<svg xmlns="http://www.w3.org/2000/svg" width="1203" height="644" viewBox="0 0 1203 644" data-orientation="TopToBottom"><rect width="100%" height="100%" fill="#ffffff"/><defs><marker id="arrow-open" viewBox="0 0 10 10" refX="9" refY="5" markerWidth="10" markerHeight="10" markerUnits="userSpaceOnUse" orient="auto-start-reverse"><path d="M0,0 L10,5 L0,10" fill="none" stroke="#1e293b" stroke-width="1.5"/></marker><marker id="arrow-triangle" viewBox="0 0 16 16" refX="15" refY="8" markerWidth="16" markerHeight="16" markerUnits="userSpaceOnUse" orient="auto-start-reverse"><polygon points="0,1 14,8 0,15" fill="#ffffff" stroke="#1e293b" stroke-width="1.5" fill-rule="nonzero"/></marker><marker id="arrow-diamond-filled" viewBox="0 0 14 10" refX="13" refY="5" markerWidth="14" markerHeight="10" markerUnits="userSpaceOnUse" orient="auto-start-reverse"><path d="M0,5 L7,0 L14,5 L7,10 z" fill="#1e293b" stroke="#1e293b" stroke-width="1"/></marker><marker id="arrow-diamond-open" viewBox="0 0 14 10" refX="13" refY="5" markerWidth="14" markerHeight="10" markerUnits="userSpaceOnUse" orient="auto-start-reverse"><path d="M0,5 L7,0 L14,5 L7,10 z" fill="#ffffff" stroke="#1e293b" stroke-width="1"/></marker></defs><defs><marker id="arrow-triangle-filled" viewBox="0 0 12 12" refX="11" refY="6" markerWidth="12" markerHeight="12" markerUnits="userSpaceOnUse" orient="auto-start-reverse"><polygon points="0,0 12,6 0,12" fill="#1e293b" stroke="#1e293b" stroke-width="1.5"/></marker><marker id="arrow-box-filled" viewBox="0 0 12 12" refX="11" refY="6" markerWidth="12" markerHeight="12" markerUnits="userSpaceOnUse" orient="auto-start-reverse"><rect x="2" y="2" width="8" height="8" fill="#1e293b" stroke="#1e293b" stroke-width="1.5"/></marker><marker id="arrow-plus" viewBox="0 0 12 12" refX="11" refY="6" markerWidth="12" markerHeight="12" markerUnits="userSpaceOnUse" orient="auto-start-reverse"><path d="M6,1 L6,11 M1,6 L11,6" fill="none" stroke="#1e293b" stroke-width="1.8" stroke-linecap="round"/></marker><marker id="arrow-cross" viewBox="0 0 12 12" refX="11" refY="6" markerWidth="12" markerHeight="12" markerUnits="userSpaceOnUse" orient="auto-start-reverse"><path d="M2,2 L10,10 M10,2 L2,10" fill="none" stroke="#1e293b" stroke-width="1.8" stroke-linecap="round"/></marker><marker id="arrow-bracket-open" viewBox="0 0 12 14" refX="11" refY="7" markerWidth="12" markerHeight="14" markerUnits="userSpaceOnUse" orient="auto-start-reverse"><path d="M10,1 L4,1 L4,13 L10,13" fill="none" stroke="#1e293b" stroke-width="1.8" stroke-linecap="round" stroke-linejoin="round"/></marker><marker id="arrow-circle-open" viewBox="0 0 12 12" refX="11" refY="6" markerWidth="12" markerHeight="12" markerUnits="userSpaceOnUse" orient="auto-start-reverse"><circle cx="6" cy="6" r="4" fill="#ffffff" stroke="#1e293b" stroke-width="1.5"/></marker><marker id="arrow-circle-filled" viewBox="0 0 12 12" refX="11" refY="6" markerWidth="12" markerHeight="12" markerUnits="userSpaceOnUse" orient="auto-start-reverse"><circle cx="6" cy="6" r="4" fill="#1e293b" stroke="#1e293b" stroke-width="1.5"/></marker><marker id="arrow-double-open" viewBox="0 0 16 12" refX="15" refY="6" markerWidth="16" markerHeight="12" markerUnits="userSpaceOnUse" orient="auto-start-reverse"><path d="M0,1 L8,6 L0,11 M7,1 L15,6 L7,11" fill="none" stroke="#1e293b" stroke-width="1.5" stroke-linejoin="round"/></marker></defs><text x="8" y="8" font-family="monospace" font-size="18" font-weight="600" fill="#0f172a">Azure architecture overview — compute, data, identity, messaging</text><polyline class="uml-relation" data-uml-from="aad" data-uml-to="aks" data-uml-arrow="--&gt;" points="207,68 124,68 418,192 336,192" fill="none" stroke="#1e293b" stroke-width="2" marker-end="url(#arrow-open)" /><rect class="uml-edge-label-bg" data-uml-label-role="edge-background" x="224" y="91" width="94" height="18" fill="white" opacity="0.85"/><text class="uml-edge-label" data-uml-label-role="edge" x="271" y="104" text-anchor="middle" font-family="monospace" font-size="11" fill="#334155">authenticates</text><polyline class="uml-relation" data-uml-from="aks" data-uml-to="sb" data-uml-arrow="--&gt;" points="501,192 418,192 565,316 483,316" fill="none" stroke="#1e293b" stroke-width="2" marker-end="url(#arrow-open)" /><rect class="uml-edge-label-bg" data-uml-label-role="edge-background" x="458" y="229" width="66" height="18" fill="white" opacity="0.85"/><text class="uml-edge-label" data-uml-label-role="edge" x="491" y="242" text-anchor="middle" font-family="monospace" font-size="11" fill="#334155">publishes</text><polyline class="uml-relation" data-uml-from="sb" data-uml-to="fn" data-uml-arrow="--&gt;" points="565,342 565,378 565,414" fill="none" stroke="#1e293b" stroke-width="2" marker-end="url(#arrow-open)" /><rect class="uml-edge-label-bg" data-uml-label-role="edge-background" x="564" y="353" width="60" height="18" fill="white" opacity="0.85"/><text class="uml-edge-label" data-uml-label-role="edge" x="594" y="366" text-anchor="middle" font-family="monospace" font-size="11" fill="#334155">triggers</text><polyline class="uml-relation" data-uml-from="fn" data-uml-to="sql" data-uml-arrow="--&gt;" points="648,440 565,440 712,564 630,564" fill="none" stroke="#1e293b" stroke-width="2" marker-end="url(#arrow-open)" /><rect class="uml-edge-label-bg" data-uml-label-role="edge-background" x="696" y="477" width="46" height="18" fill="white" opacity="0.85"/><text class="uml-edge-label" data-uml-label-role="edge" x="719" y="490" text-anchor="middle" font-family="monospace" font-size="11" fill="#334155">writes</text><polyline class="uml-relation" data-uml-from="fn" data-uml-to="cosmos" data-uml-arrow="--&gt;" points="483,440 565,440 418,564 501,564" fill="none" stroke="#1e293b" stroke-width="2" marker-end="url(#arrow-open)" /><rect class="uml-edge-label-bg" data-uml-label-role="edge-background" x="475" y="477" width="32" height="18" fill="white" opacity="0.85"/><text class="uml-edge-label" data-uml-label-role="edge" x="491" y="490" text-anchor="middle" font-family="monospace" font-size="11" fill="#334155">logs</text><polyline class="uml-relation" data-uml-from="flow" data-uml-to="blob" data-uml-arrow="--&gt;" points="501,68 418,68 712,192 630,192" fill="none" stroke="#1e293b" stroke-width="2" marker-end="url(#arrow-open)" /><rect class="uml-edge-label-bg" data-uml-label-role="edge-background" x="535" y="91" width="60" height="18" fill="white" opacity="0.85"/><text class="uml-edge-label" data-uml-label-role="edge" x="565" y="104" text-anchor="middle" font-family="monospace" font-size="11" fill="#334155">archives</text><polyline class="uml-relation" data-uml-from="kv" data-uml-to="fn" data-uml-arrow="..&gt;" points="712,94 712,254 811,254 811,254 565,254 565,414" fill="none" stroke="#1e293b" stroke-width="2" stroke-dasharray="5 3" marker-end="url(#arrow-open)" /><rect class="uml-edge-label-bg" data-uml-label-role="edge-background" x="633" y="229" width="108" height="18" fill="white" opacity="0.85"/><text class="uml-edge-label" data-uml-label-role="edge" x="687" y="242" text-anchor="middle" font-family="monospace" font-size="11" fill="#334155">provides secret</text><polyline class="uml-relation" data-uml-from="vm" data-uml-to="sql" data-uml-arrow="--&gt;" points="1006,94 1006,316 811,316 811,316 712,316 712,538" fill="none" stroke="#1e293b" stroke-width="2" marker-end="url(#arrow-open)" /><text class="uml-edge-label" data-uml-label-role="edge" x="779" y="304" text-anchor="middle" font-family="monospace" font-size="11" fill="#334155">reads</text><rect class="uml-node uml-cloud-icon-node" data-uml-id="aad" data-provider="Azure" data-service="AzureActiveDirectory" x="42" y="42" width="165" height="52" rx="4" ry="4" fill="#E3F2FD" stroke="#0078D4" stroke-width="1.5"/><rect x="42" y="42" width="165" height="30" rx="4" ry="4" fill="#0078D4" stroke="#0078D4" stroke-width="1.5"/><rect x="42" y="64" width="165" height="8" fill="#0078D4"/><line x1="42" y1="72" x2="207" y2="72" stroke="#0078D4" stroke-width="1"/><rect class="cloud-icon-badge" data-provider="Azure" x="46" y="46" width="24" height="16" rx="3" ry="3" fill="#0078D4"/><text x="58" y="54" text-anchor="middle" dominant-baseline="middle" font-family="monospace" font-size="8" font-weight="700" fill="#ffffff">Azure</text><text x="76" y="61" font-family="monospace" font-size="10" font-weight="700" fill="#ffffff" data-cloud-service-name="true">AzureActiveDirectory</text><text x="124" y="87" text-anchor="middle" font-family="monospace" font-size="12" font-weight="600" fill="#0f172a" text-decoration="underline" text-decoration-thickness="1">Identity</text><rect class="uml-node uml-cloud-icon-node" data-uml-id="fn" data-provider="Azure" data-service="AzureFunction" x="483" y="414" width="165" height="52" rx="4" ry="4" fill="#E3F2FD" stroke="#0078D4" stroke-width="1.5"/><rect x="483" y="414" width="165" height="30" rx="4" ry="4" fill="#0078D4" stroke="#0078D4" stroke-width="1.5"/><rect x="483" y="436" width="165" height="8" fill="#0078D4"/><line x1="483" y1="444" x2="648" y2="444" stroke="#0078D4" stroke-width="1"/><rect class="cloud-icon-badge" data-provider="Azure" x="487" y="418" width="24" height="16" rx="3" ry="3" fill="#0078D4"/><text x="499" y="426" text-anchor="middle" dominant-baseline="middle" font-family="monospace" font-size="8" font-weight="700" fill="#ffffff">Azure</text><text x="517" y="433" font-family="monospace" font-size="10" font-weight="700" fill="#ffffff" data-cloud-service-name="true">AzureFunction</text><text x="565" y="459" text-anchor="middle" font-family="monospace" font-size="12" font-weight="600" fill="#0f172a" text-decoration="underline" text-decoration-thickness="1">Order Processor</text><rect class="uml-node uml-cloud-icon-node" data-uml-id="flow" data-provider="Azure" data-service="AzureLogicApps" x="336" y="42" width="165" height="52" rx="4" ry="4" fill="#E3F2FD" stroke="#0078D4" stroke-width="1.5"/><rect x="336" y="42" width="165" height="30" rx="4" ry="4" fill="#0078D4" stroke="#0078D4" stroke-width="1.5"/><rect x="336" y="64" width="165" height="8" fill="#0078D4"/><line x1="336" y1="72" x2="501" y2="72" stroke="#0078D4" stroke-width="1"/><rect class="cloud-icon-badge" data-provider="Azure" x="340" y="46" width="24" height="16" rx="3" ry="3" fill="#0078D4"/><text x="352" y="54" text-anchor="middle" dominant-baseline="middle" font-family="monospace" font-size="8" font-weight="700" fill="#ffffff">Azure</text><text x="370" y="61" font-family="monospace" font-size="10" font-weight="700" fill="#ffffff" data-cloud-service-name="true">AzureLogicApps</text><text x="418" y="87" text-anchor="middle" font-family="monospace" font-size="12" font-weight="600" fill="#0f172a" text-decoration="underline" text-decoration-thickness="1">Approval Flow</text><rect class="uml-node uml-cloud-icon-node" data-uml-id="aks" data-provider="Azure" data-service="AzureKubernetesService" x="336" y="166" width="165" height="52" rx="4" ry="4" fill="#E3F2FD" stroke="#0078D4" stroke-width="1.5"/><rect x="336" y="166" width="165" height="30" rx="4" ry="4" fill="#0078D4" stroke="#0078D4" stroke-width="1.5"/><rect x="336" y="188" width="165" height="8" fill="#0078D4"/><line x1="336" y1="196" x2="501" y2="196" stroke="#0078D4" stroke-width="1"/><rect class="cloud-icon-badge" data-provider="Azure" x="340" y="170" width="24" height="16" rx="3" ry="3" fill="#0078D4"/><text x="352" y="178" text-anchor="middle" dominant-baseline="middle" font-family="monospace" font-size="8" font-weight="700" fill="#ffffff">Azure</text><text x="370" y="185" font-family="monospace" font-size="10" font-weight="700" fill="#ffffff" data-cloud-service-name="true">AzureKubernetesService</text><text x="418" y="211" text-anchor="middle" font-family="monospace" font-size="12" font-weight="600" fill="#0f172a" text-decoration="underline" text-decoration-thickness="1">App Cluster</text><rect class="uml-node uml-cloud-icon-node" data-uml-id="vm" data-provider="Azure" data-service="AzureVM" x="924" y="42" width="165" height="52" rx="4" ry="4" fill="#E3F2FD" stroke="#0078D4" stroke-width="1.5"/><rect x="924" y="42" width="165" height="30" rx="4" ry="4" fill="#0078D4" stroke="#0078D4" stroke-width="1.5"/><rect x="924" y="64" width="165" height="8" fill="#0078D4"/><line x1="924" y1="72" x2="1089" y2="72" stroke="#0078D4" stroke-width="1"/><rect class="cloud-icon-badge" data-provider="Azure" x="928" y="46" width="24" height="16" rx="3" ry="3" fill="#0078D4"/><text x="940" y="54" text-anchor="middle" dominant-baseline="middle" font-family="monospace" font-size="8" font-weight="700" fill="#ffffff">Azure</text><text x="958" y="61" font-family="monospace" font-size="10" font-weight="700" fill="#ffffff" data-cloud-service-name="true">AzureVM</text><text x="1006" y="87" text-anchor="middle" font-family="monospace" font-size="12" font-weight="600" fill="#0f172a" text-decoration="underline" text-decoration-thickness="1">Reporting VM</text><rect class="uml-node uml-cloud-icon-node" data-uml-id="sql" data-provider="Azure" data-service="AzureSQLDatabase" x="630" y="538" width="165" height="52" rx="4" ry="4" fill="#E3F2FD" stroke="#0078D4" stroke-width="1.5"/><rect x="630" y="538" width="165" height="30" rx="4" ry="4" fill="#0078D4" stroke="#0078D4" stroke-width="1.5"/><rect x="630" y="560" width="165" height="8" fill="#0078D4"/><line x1="630" y1="568" x2="795" y2="568" stroke="#0078D4" stroke-width="1"/><rect class="cloud-icon-badge" data-provider="Azure" x="634" y="542" width="24" height="16" rx="3" ry="3" fill="#0078D4"/><text x="646" y="550" text-anchor="middle" dominant-baseline="middle" font-family="monospace" font-size="8" font-weight="700" fill="#ffffff">Azure</text><text x="664" y="557" font-family="monospace" font-size="10" font-weight="700" fill="#ffffff" data-cloud-service-name="true">AzureSQLDatabase</text><text x="712" y="583" text-anchor="middle" font-family="monospace" font-size="12" font-weight="600" fill="#0f172a" text-decoration="underline" text-decoration-thickness="1">Orders DB</text><rect class="uml-node uml-cloud-icon-node" data-uml-id="cosmos" data-provider="Azure" data-service="AzureCosmosDB" x="336" y="538" width="165" height="52" rx="4" ry="4" fill="#E3F2FD" stroke="#0078D4" stroke-width="1.5"/><rect x="336" y="538" width="165" height="30" rx="4" ry="4" fill="#0078D4" stroke="#0078D4" stroke-width="1.5"/><rect x="336" y="560" width="165" height="8" fill="#0078D4"/><line x1="336" y1="568" x2="501" y2="568" stroke="#0078D4" stroke-width="1"/><rect class="cloud-icon-badge" data-provider="Azure" x="340" y="542" width="24" height="16" rx="3" ry="3" fill="#0078D4"/><text x="352" y="550" text-anchor="middle" dominant-baseline="middle" font-family="monospace" font-size="8" font-weight="700" fill="#ffffff">Azure</text><text x="370" y="557" font-family="monospace" font-size="10" font-weight="700" fill="#ffffff" data-cloud-service-name="true">AzureCosmosDB</text><text x="418" y="583" text-anchor="middle" font-family="monospace" font-size="12" font-weight="600" fill="#0f172a" text-decoration="underline" text-decoration-thickness="1">Audit Store</text><rect class="uml-node uml-cloud-icon-node" data-uml-id="blob" data-provider="Azure" data-service="AzureBlobStorage" x="630" y="166" width="165" height="52" rx="4" ry="4" fill="#E3F2FD" stroke="#0078D4" stroke-width="1.5"/><rect x="630" y="166" width="165" height="30" rx="4" ry="4" fill="#0078D4" stroke="#0078D4" stroke-width="1.5"/><rect x="630" y="188" width="165" height="8" fill="#0078D4"/><line x1="630" y1="196" x2="795" y2="196" stroke="#0078D4" stroke-width="1"/><rect class="cloud-icon-badge" data-provider="Azure" x="634" y="170" width="24" height="16" rx="3" ry="3" fill="#0078D4"/><text x="646" y="178" text-anchor="middle" dominant-baseline="middle" font-family="monospace" font-size="8" font-weight="700" fill="#ffffff">Azure</text><text x="664" y="185" font-family="monospace" font-size="10" font-weight="700" fill="#ffffff" data-cloud-service-name="true">AzureBlobStorage</text><text x="712" y="211" text-anchor="middle" font-family="monospace" font-size="12" font-weight="600" fill="#0f172a" text-decoration="underline" text-decoration-thickness="1">Document Storage</text><rect class="uml-node uml-cloud-icon-node" data-uml-id="sb" data-provider="Azure" data-service="AzureServiceBus" x="483" y="290" width="165" height="52" rx="4" ry="4" fill="#E3F2FD" stroke="#0078D4" stroke-width="1.5"/><rect x="483" y="290" width="165" height="30" rx="4" ry="4" fill="#0078D4" stroke="#0078D4" stroke-width="1.5"/><rect x="483" y="312" width="165" height="8" fill="#0078D4"/><line x1="483" y1="320" x2="648" y2="320" stroke="#0078D4" stroke-width="1"/><rect class="cloud-icon-badge" data-provider="Azure" x="487" y="294" width="24" height="16" rx="3" ry="3" fill="#0078D4"/><text x="499" y="302" text-anchor="middle" dominant-baseline="middle" font-family="monospace" font-size="8" font-weight="700" fill="#ffffff">Azure</text><text x="517" y="309" font-family="monospace" font-size="10" font-weight="700" fill="#ffffff" data-cloud-service-name="true">AzureServiceBus</text><text x="565" y="335" text-anchor="middle" font-family="monospace" font-size="12" font-weight="600" fill="#0f172a" text-decoration="underline" text-decoration-thickness="1">Order Bus</text><rect class="uml-node uml-cloud-icon-node" data-uml-id="kv" data-provider="Azure" data-service="AzureKeyVault" x="630" y="42" width="165" height="52" rx="4" ry="4" fill="#E3F2FD" stroke="#0078D4" stroke-width="1.5"/><rect x="630" y="42" width="165" height="30" rx="4" ry="4" fill="#0078D4" stroke="#0078D4" stroke-width="1.5"/><rect x="630" y="64" width="165" height="8" fill="#0078D4"/><line x1="630" y1="72" x2="795" y2="72" stroke="#0078D4" stroke-width="1"/><rect class="cloud-icon-badge" data-provider="Azure" x="634" y="46" width="24" height="16" rx="3" ry="3" fill="#0078D4"/><text x="646" y="54" text-anchor="middle" dominant-baseline="middle" font-family="monospace" font-size="8" font-weight="700" fill="#ffffff">Azure</text><text x="664" y="61" font-family="monospace" font-size="10" font-weight="700" fill="#ffffff" data-cloud-service-name="true">AzureKeyVault</text><text x="712" y="87" text-anchor="middle" font-family="monospace" font-size="12" font-weight="600" fill="#0f172a" text-decoration="underline" text-decoration-thickness="1">Secrets Vault</text></svg>