<svg xmlns="http://www.w3.org/2000/svg" width="1063" height="644" viewBox="0 0 1063 644" data-orientation="TopToBottom"><rect width="100%" height="100%" fill="#ffffff"/><defs><marker id="arrow-open" viewBox="0 0 10 10" refX="9" refY="5" markerWidth="10" markerHeight="10" markerUnits="userSpaceOnUse" orient="auto-start-reverse"><path d="M0,0 L10,5 L0,10" fill="none" stroke="#1e293b" stroke-width="1.5"/></marker><marker id="arrow-triangle" viewBox="0 0 16 16" refX="15" refY="8" markerWidth="16" markerHeight="16" markerUnits="userSpaceOnUse" orient="auto-start-reverse"><polygon points="0,1 14,8 0,15" fill="#ffffff" stroke="#1e293b" stroke-width="1.5" fill-rule="nonzero"/></marker><marker id="arrow-diamond-filled" viewBox="0 0 14 10" refX="13" refY="5" markerWidth="14" markerHeight="10" markerUnits="userSpaceOnUse" orient="auto-start-reverse"><path d="M0,5 L7,0 L14,5 L7,10 z" fill="#1e293b" stroke="#1e293b" stroke-width="1"/></marker><marker id="arrow-diamond-open" viewBox="0 0 14 10" refX="13" refY="5" markerWidth="14" markerHeight="10" markerUnits="userSpaceOnUse" orient="auto-start-reverse"><path d="M0,5 L7,0 L14,5 L7,10 z" fill="#ffffff" stroke="#1e293b" stroke-width="1"/></marker></defs><defs><marker id="arrow-triangle-filled" viewBox="0 0 12 12" refX="11" refY="6" markerWidth="12" markerHeight="12" markerUnits="userSpaceOnUse" orient="auto-start-reverse"><polygon points="0,0 12,6 0,12" fill="#1e293b" stroke="#1e293b" stroke-width="1.5"/></marker><marker id="arrow-box-filled" viewBox="0 0 12 12" refX="11" refY="6" markerWidth="12" markerHeight="12" markerUnits="userSpaceOnUse" orient="auto-start-reverse"><rect x="2" y="2" width="8" height="8" fill="#1e293b" stroke="#1e293b" stroke-width="1.5"/></marker><marker id="arrow-plus" viewBox="0 0 12 12" refX="11" refY="6" markerWidth="12" markerHeight="12" markerUnits="userSpaceOnUse" orient="auto-start-reverse"><path d="M6,1 L6,11 M1,6 L11,6" fill="none" stroke="#1e293b" stroke-width="1.8" stroke-linecap="round"/></marker><marker id="arrow-cross" viewBox="0 0 12 12" refX="11" refY="6" markerWidth="12" markerHeight="12" markerUnits="userSpaceOnUse" orient="auto-start-reverse"><path d="M2,2 L10,10 M10,2 L2,10" fill="none" stroke="#1e293b" stroke-width="1.8" stroke-linecap="round"/></marker><marker id="arrow-bracket-open" viewBox="0 0 12 14" refX="11" refY="7" markerWidth="12" markerHeight="14" markerUnits="userSpaceOnUse" orient="auto-start-reverse"><path d="M10,1 L4,1 L4,13 L10,13" fill="none" stroke="#1e293b" stroke-width="1.8" stroke-linecap="round" stroke-linejoin="round"/></marker><marker id="arrow-circle-open" viewBox="0 0 12 12" refX="11" refY="6" markerWidth="12" markerHeight="12" markerUnits="userSpaceOnUse" orient="auto-start-reverse"><circle cx="6" cy="6" r="4" fill="#ffffff" stroke="#1e293b" stroke-width="1.5"/></marker><marker id="arrow-circle-filled" viewBox="0 0 12 12" refX="11" refY="6" markerWidth="12" markerHeight="12" markerUnits="userSpaceOnUse" orient="auto-start-reverse"><circle cx="6" cy="6" r="4" fill="#1e293b" stroke="#1e293b" stroke-width="1.5"/></marker><marker id="arrow-double-open" viewBox="0 0 16 12" refX="15" refY="6" markerWidth="16" markerHeight="12" markerUnits="userSpaceOnUse" orient="auto-start-reverse"><path d="M0,1 L8,6 L0,11 M7,1 L15,6 L7,11" fill="none" stroke="#1e293b" stroke-width="1.5" stroke-linejoin="round"/></marker></defs><text x="8" y="8" font-family="monospace" font-size="18" font-weight="600" fill="#0f172a">Azure architecture overview — compute, data, identity, messaging</text><polyline class="uml-relation" data-uml-from="aad" data-uml-to="aks" data-uml-arrow="--&gt;" points="172,68 172,130 301,130 301,192" fill="none" stroke="#1e293b" stroke-width="2" marker-end="url(#arrow-open)" /><text class="uml-edge-label" data-uml-label-role="edge" x="236" y="104" text-anchor="middle" font-family="monospace" font-size="11" fill="#334155">authenticates</text><polyline class="uml-relation" data-uml-from="aks" data-uml-to="sb" data-uml-arrow="--&gt;" points="431,192 431,254 430,254 430,316" fill="none" stroke="#1e293b" stroke-width="2" marker-end="url(#arrow-open)" /><rect class="uml-edge-label-bg" data-uml-label-role="edge-background" x="397" y="260" width="66" height="18" fill="white" opacity="0.85"/><text class="uml-edge-label" data-uml-label-role="edge" x="430" y="273" text-anchor="middle" font-family="monospace" font-size="11" fill="#334155">publishes</text><polyline class="uml-relation" data-uml-from="sb" data-uml-to="fn" data-uml-arrow="--&gt;" points="495,342 495,378 495,414" fill="none" stroke="#1e293b" stroke-width="2" marker-end="url(#arrow-open)" /><rect class="uml-edge-label-bg" data-uml-label-role="edge-background" x="481" y="353" width="60" height="18" fill="white" opacity="0.85"/><rect class="uml-edge-label-bg" data-uml-label-role="edge-background" x="481" y="353" width="60" height="18" fill="white" opacity="0.85"/><text class="uml-edge-label" data-uml-label-role="edge" x="511" y="366" text-anchor="middle" font-family="monospace" font-size="11" fill="#334155">triggers</text><polyline class="uml-relation" data-uml-from="fn" data-uml-to="sql" data-uml-arrow="--&gt;" points="560,440 560,502 560,502 560,564" fill="none" stroke="#1e293b" stroke-width="2" marker-end="url(#arrow-open)" /><rect class="uml-edge-label-bg" data-uml-label-role="edge-background" x="604" y="477" width="46" height="18" fill="white" opacity="0.85"/><text class="uml-edge-label" data-uml-label-role="edge" x="627" y="490" text-anchor="middle" font-family="monospace" font-size="11" fill="#334155">writes</text><polyline class="uml-relation" data-uml-from="fn" data-uml-to="cosmos" data-uml-arrow="--&gt;" points="430,440 430,502 431,502 431,564" fill="none" stroke="#1e293b" stroke-width="2" marker-end="url(#arrow-open)" /><rect class="uml-edge-label-bg" data-uml-label-role="edge-background" x="415" y="508" width="32" height="18" fill="white" opacity="0.85"/><text class="uml-edge-label" data-uml-label-role="edge" x="431" y="521" text-anchor="middle" font-family="monospace" font-size="11" fill="#334155">logs</text><polyline class="uml-relation" data-uml-from="flow" data-uml-to="blob" data-uml-arrow="--&gt;" points="431,68 431,130 560,130 560,192" fill="none" stroke="#1e293b" stroke-width="2" marker-end="url(#arrow-open)" /><text class="uml-edge-label" data-uml-label-role="edge" x="495" y="104" text-anchor="middle" font-family="monospace" font-size="11" fill="#334155">archives</text><polyline class="uml-relation" data-uml-from="kv" data-uml-to="fn" data-uml-arrow="..&gt;" points="625,94 625,254 706,254 706,254 495,254 495,414" fill="none" stroke="#1e293b" stroke-width="2" stroke-dasharray="5 3" marker-end="url(#arrow-open)" /><rect class="uml-edge-label-bg" data-uml-label-role="edge-background" x="550" y="229" width="108" height="18" fill="white" opacity="0.85"/><text class="uml-edge-label" data-uml-label-role="edge" x="604" y="242" text-anchor="middle" font-family="monospace" font-size="11" fill="#334155">provides secret</text><polyline class="uml-relation" data-uml-from="vm" data-uml-to="sql" data-uml-arrow="--&gt;" points="884,94 884,316 706,316 706,316 625,316 625,538" fill="none" stroke="#1e293b" stroke-width="2" marker-end="url(#arrow-open)" /><text class="uml-edge-label" data-uml-label-role="edge" x="687" y="304" text-anchor="middle" font-family="monospace" font-size="11" fill="#334155">reads</text><rect class="uml-node uml-cloud-icon-node" data-uml-id="aad" data-provider="Azure" data-service="AzureActiveDirectory" x="42" y="42" width="130" height="52" rx="4" ry="4" fill="#E3F2FD" stroke="#0078D4" stroke-width="1.5"/><rect x="42" y="42" width="130" height="30" rx="4" ry="4" fill="#0078D4" stroke="#0078D4" stroke-width="1.5"/><rect x="42" y="64" width="130" height="8" fill="#0078D4"/><line x1="42" y1="72" x2="172" y2="72" stroke="#0078D4" stroke-width="1"/><rect class="cloud-icon-badge" data-provider="Azure" x="46" y="46" width="24" height="16" rx="3" ry="3" fill="#0078D4"/><text x="58" y="54" text-anchor="middle" dominant-baseline="middle" font-family="monospace" font-size="8" font-weight="700" fill="#ffffff">Azure</text><text x="76" y="61" font-family="monospace" font-size="10" font-weight="700" fill="#ffffff" data-cloud-service-name="true">AzureActiveDirectory</text><text x="107" y="87" text-anchor="middle" font-family="monospace" font-size="12" font-weight="600" fill="#0f172a" text-decoration="underline" text-decoration-thickness="1">Identity</text><rect class="uml-node uml-cloud-icon-node" data-uml-id="fn" data-provider="Azure" data-service="AzureFunction" x="430" y="414" width="130" height="52" rx="4" ry="4" fill="#E3F2FD" stroke="#0078D4" stroke-width="1.5"/><rect x="430" y="414" width="130" height="30" rx="4" ry="4" fill="#0078D4" stroke="#0078D4" stroke-width="1.5"/><rect x="430" y="436" width="130" height="8" fill="#0078D4"/><line x1="430" y1="444" x2="560" y2="444" stroke="#0078D4" stroke-width="1"/><rect class="cloud-icon-badge" data-provider="Azure" x="434" y="418" width="24" height="16" rx="3" ry="3" fill="#0078D4"/><text x="446" y="426" text-anchor="middle" dominant-baseline="middle" font-family="monospace" font-size="8" font-weight="700" fill="#ffffff">Azure</text><text x="464" y="433" font-family="monospace" font-size="10" font-weight="700" fill="#ffffff" data-cloud-service-name="true">AzureFunction</text><text x="495" y="459" text-anchor="middle" font-family="monospace" font-size="12" font-weight="600" fill="#0f172a" text-decoration="underline" text-decoration-thickness="1">Order Processor</text><rect class="uml-node uml-cloud-icon-node" data-uml-id="flow" data-provider="Azure" data-service="AzureLogicApps" x="301" y="42" width="130" height="52" rx="4" ry="4" fill="#E3F2FD" stroke="#0078D4" stroke-width="1.5"/><rect x="301" y="42" width="130" height="30" rx="4" ry="4" fill="#0078D4" stroke="#0078D4" stroke-width="1.5"/><rect x="301" y="64" width="130" height="8" fill="#0078D4"/><line x1="301" y1="72" x2="431" y2="72" stroke="#0078D4" stroke-width="1"/><rect class="cloud-icon-badge" data-provider="Azure" x="305" y="46" width="24" height="16" rx="3" ry="3" fill="#0078D4"/><text x="317" y="54" text-anchor="middle" dominant-baseline="middle" font-family="monospace" font-size="8" font-weight="700" fill="#ffffff">Azure</text><text x="335" y="61" font-family="monospace" font-size="10" font-weight="700" fill="#ffffff" data-cloud-service-name="true">AzureLogicApps</text><text x="366" y="87" text-anchor="middle" font-family="monospace" font-size="12" font-weight="600" fill="#0f172a" text-decoration="underline" text-decoration-thickness="1">Approval Flow</text><rect class="uml-node uml-cloud-icon-node" data-uml-id="aks" data-provider="Azure" data-service="AzureKubernetesService" x="301" y="166" width="130" height="52" rx="4" ry="4" fill="#E3F2FD" stroke="#0078D4" stroke-width="1.5"/><rect x="301" y="166" width="130" height="30" rx="4" ry="4" fill="#0078D4" stroke="#0078D4" stroke-width="1.5"/><rect x="301" y="188" width="130" height="8" fill="#0078D4"/><line x1="301" y1="196" x2="431" y2="196" stroke="#0078D4" stroke-width="1"/><rect class="cloud-icon-badge" data-provider="Azure" x="305" y="170" width="24" height="16" rx="3" ry="3" fill="#0078D4"/><text x="317" y="178" text-anchor="middle" dominant-baseline="middle" font-family="monospace" font-size="8" font-weight="700" fill="#ffffff">Azure</text><text x="335" y="185" font-family="monospace" font-size="10" font-weight="700" fill="#ffffff" data-cloud-service-name="true">AzureKubernetesService</text><text x="366" y="211" text-anchor="middle" font-family="monospace" font-size="12" font-weight="600" fill="#0f172a" text-decoration="underline" text-decoration-thickness="1">App Cluster</text><rect class="uml-node uml-cloud-icon-node" data-uml-id="vm" data-provider="Azure" data-service="AzureVM" x="819" y="42" width="130" height="52" rx="4" ry="4" fill="#E3F2FD" stroke="#0078D4" stroke-width="1.5"/><rect x="819" y="42" width="130" height="30" rx="4" ry="4" fill="#0078D4" stroke="#0078D4" stroke-width="1.5"/><rect x="819" y="64" width="130" height="8" fill="#0078D4"/><line x1="819" y1="72" x2="949" y2="72" stroke="#0078D4" stroke-width="1"/><rect class="cloud-icon-badge" data-provider="Azure" x="823" y="46" width="24" height="16" rx="3" ry="3" fill="#0078D4"/><text x="835" y="54" text-anchor="middle" dominant-baseline="middle" font-family="monospace" font-size="8" font-weight="700" fill="#ffffff">Azure</text><text x="853" y="61" font-family="monospace" font-size="10" font-weight="700" fill="#ffffff" data-cloud-service-name="true">AzureVM</text><text x="884" y="87" text-anchor="middle" font-family="monospace" font-size="12" font-weight="600" fill="#0f172a" text-decoration="underline" text-decoration-thickness="1">Reporting VM</text><rect class="uml-node uml-cloud-icon-node" data-uml-id="sql" data-provider="Azure" data-service="AzureSQLDatabase" x="560" y="538" width="130" height="52" rx="4" ry="4" fill="#E3F2FD" stroke="#0078D4" stroke-width="1.5"/><rect x="560" y="538" width="130" height="30" rx="4" ry="4" fill="#0078D4" stroke="#0078D4" stroke-width="1.5"/><rect x="560" y="560" width="130" height="8" fill="#0078D4"/><line x1="560" y1="568" x2="690" y2="568" stroke="#0078D4" stroke-width="1"/><rect class="cloud-icon-badge" data-provider="Azure" x="564" y="542" width="24" height="16" rx="3" ry="3" fill="#0078D4"/><text x="576" y="550" text-anchor="middle" dominant-baseline="middle" font-family="monospace" font-size="8" font-weight="700" fill="#ffffff">Azure</text><text x="594" y="557" font-family="monospace" font-size="10" font-weight="700" fill="#ffffff" data-cloud-service-name="true">AzureSQLDatabase</text><text x="625" y="583" text-anchor="middle" font-family="monospace" font-size="12" font-weight="600" fill="#0f172a" text-decoration="underline" text-decoration-thickness="1">Orders DB</text><rect class="uml-node uml-cloud-icon-node" data-uml-id="cosmos" data-provider="Azure" data-service="AzureCosmosDB" x="301" y="538" width="130" height="52" rx="4" ry="4" fill="#E3F2FD" stroke="#0078D4" stroke-width="1.5"/><rect x="301" y="538" width="130" height="30" rx="4" ry="4" fill="#0078D4" stroke="#0078D4" stroke-width="1.5"/><rect x="301" y="560" width="130" height="8" fill="#0078D4"/><line x1="301" y1="568" x2="431" y2="568" stroke="#0078D4" stroke-width="1"/><rect class="cloud-icon-badge" data-provider="Azure" x="305" y="542" width="24" height="16" rx="3" ry="3" fill="#0078D4"/><text x="317" y="550" text-anchor="middle" dominant-baseline="middle" font-family="monospace" font-size="8" font-weight="700" fill="#ffffff">Azure</text><text x="335" y="557" font-family="monospace" font-size="10" font-weight="700" fill="#ffffff" data-cloud-service-name="true">AzureCosmosDB</text><text x="366" y="583" text-anchor="middle" font-family="monospace" font-size="12" font-weight="600" fill="#0f172a" text-decoration="underline" text-decoration-thickness="1">Audit Store</text><rect class="uml-node uml-cloud-icon-node" data-uml-id="blob" data-provider="Azure" data-service="AzureBlobStorage" x="560" y="166" width="130" height="52" rx="4" ry="4" fill="#E3F2FD" stroke="#0078D4" stroke-width="1.5"/><rect x="560" y="166" width="130" height="30" rx="4" ry="4" fill="#0078D4" stroke="#0078D4" stroke-width="1.5"/><rect x="560" y="188" width="130" height="8" fill="#0078D4"/><line x1="560" y1="196" x2="690" y2="196" stroke="#0078D4" stroke-width="1"/><rect class="cloud-icon-badge" data-provider="Azure" x="564" y="170" width="24" height="16" rx="3" ry="3" fill="#0078D4"/><text x="576" y="178" text-anchor="middle" dominant-baseline="middle" font-family="monospace" font-size="8" font-weight="700" fill="#ffffff">Azure</text><text x="594" y="185" font-family="monospace" font-size="10" font-weight="700" fill="#ffffff" data-cloud-service-name="true">AzureBlobStorage</text><text x="625" y="211" text-anchor="middle" font-family="monospace" font-size="12" font-weight="600" fill="#0f172a" text-decoration="underline" text-decoration-thickness="1">Document Storage</text><rect class="uml-node uml-cloud-icon-node" data-uml-id="sb" data-provider="Azure" data-service="AzureServiceBus" x="430" y="290" width="130" height="52" rx="4" ry="4" fill="#E3F2FD" stroke="#0078D4" stroke-width="1.5"/><rect x="430" y="290" width="130" height="30" rx="4" ry="4" fill="#0078D4" stroke="#0078D4" stroke-width="1.5"/><rect x="430" y="312" width="130" height="8" fill="#0078D4"/><line x1="430" y1="320" x2="560" y2="320" stroke="#0078D4" stroke-width="1"/><rect class="cloud-icon-badge" data-provider="Azure" x="434" y="294" width="24" height="16" rx="3" ry="3" fill="#0078D4"/><text x="446" y="302" text-anchor="middle" dominant-baseline="middle" font-family="monospace" font-size="8" font-weight="700" fill="#ffffff">Azure</text><text x="464" y="309" font-family="monospace" font-size="10" font-weight="700" fill="#ffffff" data-cloud-service-name="true">AzureServiceBus</text><text x="495" y="335" text-anchor="middle" font-family="monospace" font-size="12" font-weight="600" fill="#0f172a" text-decoration="underline" text-decoration-thickness="1">Order Bus</text><rect class="uml-node uml-cloud-icon-node" data-uml-id="kv" data-provider="Azure" data-service="AzureKeyVault" x="560" y="42" width="130" height="52" rx="4" ry="4" fill="#E3F2FD" stroke="#0078D4" stroke-width="1.5"/><rect x="560" y="42" width="130" height="30" rx="4" ry="4" fill="#0078D4" stroke="#0078D4" stroke-width="1.5"/><rect x="560" y="64" width="130" height="8" fill="#0078D4"/><line x1="560" y1="72" x2="690" y2="72" stroke="#0078D4" stroke-width="1"/><rect class="cloud-icon-badge" data-provider="Azure" x="564" y="46" width="24" height="16" rx="3" ry="3" fill="#0078D4"/><text x="576" y="54" text-anchor="middle" dominant-baseline="middle" font-family="monospace" font-size="8" font-weight="700" fill="#ffffff">Azure</text><text x="594" y="61" font-family="monospace" font-size="10" font-weight="700" fill="#ffffff" data-cloud-service-name="true">AzureKeyVault</text><text x="625" y="87" text-anchor="middle" font-family="monospace" font-size="12" font-weight="600" fill="#0f172a" text-decoration="underline" text-decoration-thickness="1">Secrets Vault</text></svg>