<svg xmlns="http://www.w3.org/2000/svg" width="667" height="644" viewBox="0 0 667 644" data-orientation="TopToBottom"><rect width="100%" height="100%" fill="#ffffff"/><defs><marker id="arrow-open" viewBox="0 0 10 10" refX="9" refY="5" markerWidth="10" markerHeight="10" markerUnits="userSpaceOnUse" orient="auto-start-reverse"><path d="M0,0 L10,5 L0,10" fill="none" stroke="#1e293b" stroke-width="1.5"/></marker><marker id="arrow-triangle" viewBox="0 0 16 16" refX="15" refY="8" markerWidth="16" markerHeight="16" markerUnits="userSpaceOnUse" orient="auto-start-reverse"><polygon points="0,1 14,8 0,15" fill="#ffffff" stroke="#1e293b" stroke-width="1.5" fill-rule="nonzero"/></marker><marker id="arrow-diamond-filled" viewBox="0 0 14 10" refX="13" refY="5" markerWidth="14" markerHeight="10" markerUnits="userSpaceOnUse" orient="auto-start-reverse"><path d="M0,5 L7,0 L14,5 L7,10 z" fill="#1e293b" stroke="#1e293b" stroke-width="1"/></marker><marker id="arrow-diamond-open" viewBox="0 0 14 10" refX="13" refY="5" markerWidth="14" markerHeight="10" markerUnits="userSpaceOnUse" orient="auto-start-reverse"><path d="M0,5 L7,0 L14,5 L7,10 z" fill="#ffffff" stroke="#1e293b" stroke-width="1"/></marker></defs><defs><marker id="arrow-triangle-filled" viewBox="0 0 12 12" refX="11" refY="6" markerWidth="12" markerHeight="12" markerUnits="userSpaceOnUse" orient="auto-start-reverse"><polygon points="0,0 12,6 0,12" fill="#1e293b" stroke="#1e293b" stroke-width="1.5"/></marker><marker id="arrow-box-filled" viewBox="0 0 12 12" refX="11" refY="6" markerWidth="12" markerHeight="12" markerUnits="userSpaceOnUse" orient="auto-start-reverse"><rect x="2" y="2" width="8" height="8" fill="#1e293b" stroke="#1e293b" stroke-width="1.5"/></marker><marker id="arrow-plus" viewBox="0 0 12 12" refX="11" refY="6" markerWidth="12" markerHeight="12" markerUnits="userSpaceOnUse" orient="auto-start-reverse"><path d="M6,1 L6,11 M1,6 L11,6" fill="none" stroke="#1e293b" stroke-width="1.8" stroke-linecap="round"/></marker><marker id="arrow-cross" viewBox="0 0 12 12" refX="11" refY="6" markerWidth="12" markerHeight="12" markerUnits="userSpaceOnUse" orient="auto-start-reverse"><path d="M2,2 L10,10 M10,2 L2,10" fill="none" stroke="#1e293b" stroke-width="1.8" stroke-linecap="round"/></marker><marker id="arrow-bracket-open" viewBox="0 0 12 14" refX="11" refY="7" markerWidth="12" markerHeight="14" markerUnits="userSpaceOnUse" orient="auto-start-reverse"><path d="M10,1 L4,1 L4,13 L10,13" fill="none" stroke="#1e293b" stroke-width="1.8" stroke-linecap="round" stroke-linejoin="round"/></marker><marker id="arrow-circle-open" viewBox="0 0 12 12" refX="11" refY="6" markerWidth="12" markerHeight="12" markerUnits="userSpaceOnUse" orient="auto-start-reverse"><circle cx="6" cy="6" r="4" fill="#ffffff" stroke="#1e293b" stroke-width="1.5"/></marker><marker id="arrow-circle-filled" viewBox="0 0 12 12" refX="11" refY="6" markerWidth="12" markerHeight="12" markerUnits="userSpaceOnUse" orient="auto-start-reverse"><circle cx="6" cy="6" r="4" fill="#1e293b" stroke="#1e293b" stroke-width="1.5"/></marker><marker id="arrow-double-open" viewBox="0 0 16 12" refX="15" refY="6" markerWidth="16" markerHeight="12" markerUnits="userSpaceOnUse" orient="auto-start-reverse"><path d="M0,1 L8,6 L0,11 M7,1 L15,6 L7,11" fill="none" stroke="#1e293b" stroke-width="1.5" stroke-linejoin="round"/></marker></defs><text x="8" y="8" font-family="monospace" font-size="18" font-weight="600" fill="#0f172a">Azure e-commerce stack — frontend, services, data</text><polyline class="uml-relation" data-uml-from="frontend" data-uml-to="api" data-uml-arrow="--&gt;" points="364,68 446,68 124,192 207,192" fill="none" stroke="#1e293b" stroke-width="2" marker-end="url(#arrow-open)" /><rect class="uml-edge-label-bg" data-uml-label-role="edge-background" x="251" y="105" width="38" height="18" fill="white" opacity="0.85"/><text class="uml-edge-label" data-uml-label-role="edge" x="270" y="118" text-anchor="middle" font-family="monospace" font-size="11" fill="#334155">HTTPS</text><polyline class="uml-relation" data-uml-from="api" data-uml-to="cart" data-uml-arrow="--&gt;" points="207,192 124,192 446,316 364,316" fill="none" stroke="#1e293b" stroke-width="2" marker-end="url(#arrow-open)" /><rect class="uml-edge-label-bg" data-uml-label-role="edge-background" x="243" y="229" width="60" height="18" fill="white" opacity="0.85"/><text class="uml-edge-label" data-uml-label-role="edge" x="273" y="242" text-anchor="middle" font-family="monospace" font-size="11" fill="#334155">sessions</text><polyline class="uml-relation" data-uml-from="api" data-uml-to="orders" data-uml-arrow="--&gt;" points="124,218 124,378 285,378 285,538" fill="none" stroke="#1e293b" stroke-width="2" marker-end="url(#arrow-open)" /><rect class="uml-edge-label-bg" data-uml-label-role="edge-background" x="118" y="353" width="60" height="18" fill="white" opacity="0.85"/><text class="uml-edge-label" data-uml-label-role="edge" x="148" y="366" text-anchor="middle" font-family="monospace" font-size="11" fill="#334155">checkout</text><polyline class="uml-relation" data-uml-from="api" data-uml-to="events" data-uml-arrow="--&gt;" points="124,218 124,254 124,290" fill="none" stroke="#1e293b" stroke-width="2" marker-end="url(#arrow-open)" /><rect class="uml-edge-label-bg" data-uml-label-role="edge-background" x="100" y="229" width="136" height="18" fill="white" opacity="0.85"/><text class="uml-edge-label" data-uml-label-role="edge" x="168" y="242" text-anchor="middle" font-family="monospace" font-size="11" fill="#334155">publish OrderPlaced</text><polyline class="uml-relation" data-uml-from="events" data-uml-to="billing" data-uml-arrow="--&gt;" points="124,342 124,378 124,414" fill="none" stroke="#1e293b" stroke-width="2" marker-end="url(#arrow-open)" /><rect class="uml-edge-label-bg" data-uml-label-role="edge-background" x="119" y="353" width="80" height="18" fill="white" opacity="0.85"/><text class="uml-edge-label" data-uml-label-role="edge" x="159" y="366" text-anchor="middle" font-family="monospace" font-size="11" fill="#334155">OrderPlaced</text><polyline class="uml-relation" data-uml-from="events" data-uml-to="notify" data-uml-arrow="--&gt;" points="207,316 124,316 446,440 364,440" fill="none" stroke="#1e293b" stroke-width="2" marker-end="url(#arrow-open)" /><rect class="uml-edge-label-bg" data-uml-label-role="edge-background" x="209" y="353" width="80" height="18" fill="white" opacity="0.85"/><text class="uml-edge-label" data-uml-label-role="edge" x="249" y="366" text-anchor="middle" font-family="monospace" font-size="11" fill="#334155">OrderPlaced</text><polyline class="uml-relation" data-uml-from="billing" data-uml-to="orders" data-uml-arrow="--&gt;" points="207,440 124,440 285,564 203,564" fill="none" stroke="#1e293b" stroke-width="2" marker-end="url(#arrow-open)" /><rect class="uml-edge-label-bg" data-uml-label-role="edge-background" x="187" y="477" width="108" height="18" fill="white" opacity="0.85"/><text class="uml-edge-label" data-uml-label-role="edge" x="241" y="490" text-anchor="middle" font-family="monospace" font-size="11" fill="#334155">updates payment</text><polyline class="uml-relation" data-uml-from="frontend" data-uml-to="media" data-uml-arrow="--&gt;" points="446,94 446,130 446,166" fill="none" stroke="#1e293b" stroke-width="2" marker-end="url(#arrow-open)" /><rect class="uml-edge-label-bg" data-uml-label-role="edge-background" x="402" y="123" width="88" height="18" fill="white" opacity="0.85"/><text class="uml-edge-label" data-uml-label-role="edge" x="446" y="136" text-anchor="middle" font-family="monospace" font-size="11" fill="#334155">reads assets</text><polyline class="uml-relation" data-uml-from="kv" data-uml-to="api" data-uml-arrow="..&gt;" points="124,94 124,130 124,166" fill="none" stroke="#1e293b" stroke-width="2" stroke-dasharray="5 3" marker-end="url(#arrow-open)" /><rect class="uml-edge-label-bg" data-uml-label-role="edge-background" x="109" y="105" width="130" height="18" fill="white" opacity="0.85"/><text class="uml-edge-label" data-uml-label-role="edge" x="174" y="118" text-anchor="middle" font-family="monospace" font-size="11" fill="#334155">connection strings</text><rect class="uml-node uml-cloud-icon-node" data-uml-id="frontend" data-provider="Azure" data-service="AzureKubernetesService" x="364" y="42" width="165" height="52" rx="4" ry="4" fill="#E3F2FD" stroke="#0078D4" stroke-width="1.5"/><rect x="364" y="42" width="165" height="30" rx="4" ry="4" fill="#0078D4" stroke="#0078D4" stroke-width="1.5"/><rect x="364" y="64" width="165" height="8" fill="#0078D4"/><line x1="364" y1="72" x2="529" y2="72" stroke="#0078D4" stroke-width="1"/><rect class="cloud-icon-badge" data-provider="Azure" x="368" y="46" width="24" height="16" rx="3" ry="3" fill="#0078D4"/><text x="380" y="54" text-anchor="middle" dominant-baseline="middle" font-family="monospace" font-size="8" font-weight="700" fill="#ffffff">Azure</text><text x="398" y="61" font-family="monospace" font-size="10" font-weight="700" fill="#ffffff" data-cloud-service-name="true">AzureKubernetesService</text><text x="446" y="87" text-anchor="middle" font-family="monospace" font-size="12" font-weight="600" fill="#0f172a" text-decoration="underline" text-decoration-thickness="1">Frontend Pods</text><rect class="uml-node uml-cloud-icon-node" data-uml-id="api" data-provider="Azure" data-service="AzureKubernetesService" x="42" y="166" width="165" height="52" rx="4" ry="4" fill="#E3F2FD" stroke="#0078D4" stroke-width="1.5"/><rect x="42" y="166" width="165" height="30" rx="4" ry="4" fill="#0078D4" stroke="#0078D4" stroke-width="1.5"/><rect x="42" y="188" width="165" height="8" fill="#0078D4"/><line x1="42" y1="196" x2="207" y2="196" stroke="#0078D4" stroke-width="1"/><rect class="cloud-icon-badge" data-provider="Azure" x="46" y="170" width="24" height="16" rx="3" ry="3" fill="#0078D4"/><text x="58" y="178" text-anchor="middle" dominant-baseline="middle" font-family="monospace" font-size="8" font-weight="700" fill="#ffffff">Azure</text><text x="76" y="185" font-family="monospace" font-size="10" font-weight="700" fill="#ffffff" data-cloud-service-name="true">AzureKubernetesService</text><text x="124" y="211" text-anchor="middle" font-family="monospace" font-size="12" font-weight="600" fill="#0f172a" text-decoration="underline" text-decoration-thickness="1">API Pods</text><rect class="uml-node uml-cloud-icon-node" data-uml-id="events" data-provider="Azure" data-service="AzureServiceBus" x="42" y="290" width="165" height="52" rx="4" ry="4" fill="#E3F2FD" stroke="#0078D4" stroke-width="1.5"/><rect x="42" y="290" width="165" height="30" rx="4" ry="4" fill="#0078D4" stroke="#0078D4" stroke-width="1.5"/><rect x="42" y="312" width="165" height="8" fill="#0078D4"/><line x1="42" y1="320" x2="207" y2="320" stroke="#0078D4" stroke-width="1"/><rect class="cloud-icon-badge" data-provider="Azure" x="46" y="294" width="24" height="16" rx="3" ry="3" fill="#0078D4"/><text x="58" y="302" text-anchor="middle" dominant-baseline="middle" font-family="monospace" font-size="8" font-weight="700" fill="#ffffff">Azure</text><text x="76" y="309" font-family="monospace" font-size="10" font-weight="700" fill="#ffffff" data-cloud-service-name="true">AzureServiceBus</text><text x="124" y="335" text-anchor="middle" font-family="monospace" font-size="12" font-weight="600" fill="#0f172a" text-decoration="underline" text-decoration-thickness="1">Domain Events</text><rect class="uml-node uml-cloud-icon-node" data-uml-id="billing" data-provider="Azure" data-service="AzureFunction" x="42" y="414" width="165" height="52" rx="4" ry="4" fill="#E3F2FD" stroke="#0078D4" stroke-width="1.5"/><rect x="42" y="414" width="165" height="30" rx="4" ry="4" fill="#0078D4" stroke="#0078D4" stroke-width="1.5"/><rect x="42" y="436" width="165" height="8" fill="#0078D4"/><line x1="42" y1="444" x2="207" y2="444" stroke="#0078D4" stroke-width="1"/><rect class="cloud-icon-badge" data-provider="Azure" x="46" y="418" width="24" height="16" rx="3" ry="3" fill="#0078D4"/><text x="58" y="426" text-anchor="middle" dominant-baseline="middle" font-family="monospace" font-size="8" font-weight="700" fill="#ffffff">Azure</text><text x="76" y="433" font-family="monospace" font-size="10" font-weight="700" fill="#ffffff" data-cloud-service-name="true">AzureFunction</text><text x="124" y="459" text-anchor="middle" font-family="monospace" font-size="12" font-weight="600" fill="#0f172a" text-decoration="underline" text-decoration-thickness="1">Billing Worker</text><rect class="uml-node uml-cloud-icon-node" data-uml-id="notify" data-provider="Azure" data-service="AzureFunction" x="364" y="414" width="165" height="52" rx="4" ry="4" fill="#E3F2FD" stroke="#0078D4" stroke-width="1.5"/><rect x="364" y="414" width="165" height="30" rx="4" ry="4" fill="#0078D4" stroke="#0078D4" stroke-width="1.5"/><rect x="364" y="436" width="165" height="8" fill="#0078D4"/><line x1="364" y1="444" x2="529" y2="444" stroke="#0078D4" stroke-width="1"/><rect class="cloud-icon-badge" data-provider="Azure" x="368" y="418" width="24" height="16" rx="3" ry="3" fill="#0078D4"/><text x="380" y="426" text-anchor="middle" dominant-baseline="middle" font-family="monospace" font-size="8" font-weight="700" fill="#ffffff">Azure</text><text x="398" y="433" font-family="monospace" font-size="10" font-weight="700" fill="#ffffff" data-cloud-service-name="true">AzureFunction</text><text x="446" y="459" text-anchor="middle" font-family="monospace" font-size="12" font-weight="600" fill="#0f172a" text-decoration="underline" text-decoration-thickness="1">Notify Worker</text><rect class="uml-node uml-cloud-icon-node" data-uml-id="orders" data-provider="Azure" data-service="AzureSQLDatabase" x="203" y="538" width="165" height="52" rx="4" ry="4" fill="#E3F2FD" stroke="#0078D4" stroke-width="1.5"/><rect x="203" y="538" width="165" height="30" rx="4" ry="4" fill="#0078D4" stroke="#0078D4" stroke-width="1.5"/><rect x="203" y="560" width="165" height="8" fill="#0078D4"/><line x1="203" y1="568" x2="368" y2="568" stroke="#0078D4" stroke-width="1"/><rect class="cloud-icon-badge" data-provider="Azure" x="207" y="542" width="24" height="16" rx="3" ry="3" fill="#0078D4"/><text x="219" y="550" text-anchor="middle" dominant-baseline="middle" font-family="monospace" font-size="8" font-weight="700" fill="#ffffff">Azure</text><text x="237" y="557" font-family="monospace" font-size="10" font-weight="700" fill="#ffffff" data-cloud-service-name="true">AzureSQLDatabase</text><text x="285" y="583" text-anchor="middle" font-family="monospace" font-size="12" font-weight="600" fill="#0f172a" text-decoration="underline" text-decoration-thickness="1">Orders DB</text><rect class="uml-node uml-cloud-icon-node" data-uml-id="cart" data-provider="Azure" data-service="AzureCosmosDB" x="364" y="290" width="165" height="52" rx="4" ry="4" fill="#E3F2FD" stroke="#0078D4" stroke-width="1.5"/><rect x="364" y="290" width="165" height="30" rx="4" ry="4" fill="#0078D4" stroke="#0078D4" stroke-width="1.5"/><rect x="364" y="312" width="165" height="8" fill="#0078D4"/><line x1="364" y1="320" x2="529" y2="320" stroke="#0078D4" stroke-width="1"/><rect class="cloud-icon-badge" data-provider="Azure" x="368" y="294" width="24" height="16" rx="3" ry="3" fill="#0078D4"/><text x="380" y="302" text-anchor="middle" dominant-baseline="middle" font-family="monospace" font-size="8" font-weight="700" fill="#ffffff">Azure</text><text x="398" y="309" font-family="monospace" font-size="10" font-weight="700" fill="#ffffff" data-cloud-service-name="true">AzureCosmosDB</text><text x="446" y="335" text-anchor="middle" font-family="monospace" font-size="12" font-weight="600" fill="#0f172a" text-decoration="underline" text-decoration-thickness="1">Cart Store</text><rect class="uml-node uml-cloud-icon-node" data-uml-id="media" data-provider="Azure" data-service="AzureBlobStorage" x="364" y="166" width="165" height="52" rx="4" ry="4" fill="#E3F2FD" stroke="#0078D4" stroke-width="1.5"/><rect x="364" y="166" width="165" height="30" rx="4" ry="4" fill="#0078D4" stroke="#0078D4" stroke-width="1.5"/><rect x="364" y="188" width="165" height="8" fill="#0078D4"/><line x1="364" y1="196" x2="529" y2="196" stroke="#0078D4" stroke-width="1"/><rect class="cloud-icon-badge" data-provider="Azure" x="368" y="170" width="24" height="16" rx="3" ry="3" fill="#0078D4"/><text x="380" y="178" text-anchor="middle" dominant-baseline="middle" font-family="monospace" font-size="8" font-weight="700" fill="#ffffff">Azure</text><text x="398" y="185" font-family="monospace" font-size="10" font-weight="700" fill="#ffffff" data-cloud-service-name="true">AzureBlobStorage</text><text x="446" y="211" text-anchor="middle" font-family="monospace" font-size="12" font-weight="600" fill="#0f172a" text-decoration="underline" text-decoration-thickness="1">Product Images</text><rect class="uml-node uml-cloud-icon-node" data-uml-id="kv" data-provider="Azure" data-service="AzureKeyVault" x="42" y="42" width="165" height="52" rx="4" ry="4" fill="#E3F2FD" stroke="#0078D4" stroke-width="1.5"/><rect x="42" y="42" width="165" height="30" rx="4" ry="4" fill="#0078D4" stroke="#0078D4" stroke-width="1.5"/><rect x="42" y="64" width="165" height="8" fill="#0078D4"/><line x1="42" y1="72" x2="207" y2="72" stroke="#0078D4" stroke-width="1"/><rect class="cloud-icon-badge" data-provider="Azure" x="46" y="46" width="24" height="16" rx="3" ry="3" fill="#0078D4"/><text x="58" y="54" text-anchor="middle" dominant-baseline="middle" font-family="monospace" font-size="8" font-weight="700" fill="#ffffff">Azure</text><text x="76" y="61" font-family="monospace" font-size="10" font-weight="700" fill="#ffffff" data-cloud-service-name="true">AzureKeyVault</text><text x="124" y="87" text-anchor="middle" font-family="monospace" font-size="12" font-weight="600" fill="#0f172a" text-decoration="underline" text-decoration-thickness="1">Secrets</text></svg>