<svg xmlns="http://www.w3.org/2000/svg" width="684" height="768" viewBox="0 0 684 768" data-orientation="TopToBottom"><rect width="100%" height="100%" fill="#ffffff"/><defs><marker id="arrow-open" viewBox="0 0 10 10" refX="9" refY="5" markerWidth="10" markerHeight="10" markerUnits="userSpaceOnUse" orient="auto-start-reverse"><path d="M0,0 L10,5 L0,10" fill="none" stroke="#1e293b" stroke-width="1.5"/></marker><marker id="arrow-triangle" viewBox="0 0 16 16" refX="15" refY="8" markerWidth="16" markerHeight="16" markerUnits="userSpaceOnUse" orient="auto-start-reverse"><polygon points="0,1 14,8 0,15" fill="#ffffff" stroke="#1e293b" stroke-width="1.5" fill-rule="nonzero"/></marker><marker id="arrow-diamond-filled" viewBox="0 0 14 10" refX="13" refY="5" markerWidth="14" markerHeight="10" markerUnits="userSpaceOnUse" orient="auto-start-reverse"><path d="M0,5 L7,0 L14,5 L7,10 z" fill="#1e293b" stroke="#1e293b" stroke-width="1"/></marker><marker id="arrow-diamond-open" viewBox="0 0 14 10" refX="13" refY="5" markerWidth="14" markerHeight="10" markerUnits="userSpaceOnUse" orient="auto-start-reverse"><path d="M0,5 L7,0 L14,5 L7,10 z" fill="#ffffff" stroke="#1e293b" stroke-width="1"/></marker></defs><defs><marker id="arrow-triangle-filled" viewBox="0 0 12 12" refX="11" refY="6" markerWidth="12" markerHeight="12" markerUnits="userSpaceOnUse" orient="auto-start-reverse"><polygon points="0,0 12,6 0,12" fill="#1e293b" stroke="#1e293b" stroke-width="1.5"/></marker><marker id="arrow-box-filled" viewBox="0 0 12 12" refX="11" refY="6" markerWidth="12" markerHeight="12" markerUnits="userSpaceOnUse" orient="auto-start-reverse"><rect x="2" y="2" width="8" height="8" fill="#1e293b" stroke="#1e293b" stroke-width="1.5"/></marker><marker id="arrow-plus" viewBox="0 0 12 12" refX="11" refY="6" markerWidth="12" markerHeight="12" markerUnits="userSpaceOnUse" orient="auto-start-reverse"><path d="M6,1 L6,11 M1,6 L11,6" fill="none" stroke="#1e293b" stroke-width="1.8" stroke-linecap="round"/></marker><marker id="arrow-cross" viewBox="0 0 12 12" refX="11" refY="6" markerWidth="12" markerHeight="12" markerUnits="userSpaceOnUse" orient="auto-start-reverse"><path d="M2,2 L10,10 M10,2 L2,10" fill="none" stroke="#1e293b" stroke-width="1.8" stroke-linecap="round"/></marker><marker id="arrow-bracket-open" viewBox="0 0 12 14" refX="11" refY="7" markerWidth="12" markerHeight="14" markerUnits="userSpaceOnUse" orient="auto-start-reverse"><path d="M10,1 L4,1 L4,13 L10,13" fill="none" stroke="#1e293b" stroke-width="1.8" stroke-linecap="round" stroke-linejoin="round"/></marker><marker id="arrow-circle-open" viewBox="0 0 12 12" refX="11" refY="6" markerWidth="12" markerHeight="12" markerUnits="userSpaceOnUse" orient="auto-start-reverse"><circle cx="6" cy="6" r="4" fill="#ffffff" stroke="#1e293b" stroke-width="1.5"/></marker><marker id="arrow-circle-filled" viewBox="0 0 12 12" refX="11" refY="6" markerWidth="12" markerHeight="12" markerUnits="userSpaceOnUse" orient="auto-start-reverse"><circle cx="6" cy="6" r="4" fill="#1e293b" stroke="#1e293b" stroke-width="1.5"/></marker><marker id="arrow-double-open" viewBox="0 0 16 12" refX="15" refY="6" markerWidth="16" markerHeight="12" markerUnits="userSpaceOnUse" orient="auto-start-reverse"><path d="M0,1 L8,6 L0,11 M7,1 L15,6 L7,11" fill="none" stroke="#1e293b" stroke-width="1.5" stroke-linejoin="round"/></marker></defs><text x="8" y="8" font-family="monospace" font-size="18" font-weight="600" fill="#0f172a">GCP architecture overview — compute, data, messaging, security</text><polyline class="uml-relation" data-uml-from="cdn" data-uml-to="lb" data-uml-arrow="--&gt;" points="107,94 107,130 215,130 215,166" fill="none" stroke="#1e293b" stroke-width="2" marker-end="url(#arrow-open)" /><text class="uml-edge-label" data-uml-label-role="edge" x="161" y="104" text-anchor="middle" font-family="monospace" font-size="11" fill="#334155">forwards</text><polyline class="uml-relation" data-uml-from="lb" data-uml-to="gke" data-uml-arrow="--&gt;" points="215,218 215,254 324,254 324,290" fill="none" stroke="#1e293b" stroke-width="2" marker-end="url(#arrow-open)" /><rect class="uml-edge-label-bg" data-uml-label-role="edge-background" x="298" y="229" width="46" height="18" fill="white" opacity="0.85"/><text class="uml-edge-label" data-uml-label-role="edge" x="321" y="242" text-anchor="middle" font-family="monospace" font-size="11" fill="#334155">routes</text><polyline class="uml-relation" data-uml-from="gke" data-uml-to="sql" data-uml-arrow="--&gt;" points="324,342 324,378 432,378 432,414" fill="none" stroke="#1e293b" stroke-width="2" marker-end="url(#arrow-open)" /><text class="uml-edge-label" data-uml-label-role="edge" x="363" y="366" text-anchor="middle" font-family="monospace" font-size="11" fill="#334155">queries</text><polyline class="uml-relation" data-uml-from="gke" data-uml-to="ps" data-uml-arrow="--&gt;" points="324,342 324,378 215,378 215,414" fill="none" stroke="#1e293b" stroke-width="2" marker-end="url(#arrow-open)" /><rect class="uml-edge-label-bg" data-uml-label-role="edge-background" x="258" y="353" width="66" height="18" fill="white" opacity="0.85"/><rect class="uml-edge-label-bg" data-uml-label-role="edge-background" x="258" y="353" width="66" height="18" fill="white" opacity="0.85"/><text class="uml-edge-label" data-uml-label-role="edge" x="291" y="366" text-anchor="middle" font-family="monospace" font-size="11" fill="#334155">publishes</text><polyline class="uml-relation" data-uml-from="ps" data-uml-to="fn" data-uml-arrow="--&gt;" points="215,466 215,502 324,502 324,538" fill="none" stroke="#1e293b" stroke-width="2" marker-end="url(#arrow-open)" /><text class="uml-edge-label" data-uml-label-role="edge" x="269" y="476" text-anchor="middle" font-family="monospace" font-size="11" fill="#334155">triggers</text><polyline class="uml-relation" data-uml-from="fn" data-uml-to="bucket" data-uml-arrow="--&gt;" points="324,590 324,626 324,662" fill="none" stroke="#1e293b" stroke-width="2" marker-end="url(#arrow-open)" /><rect class="uml-edge-label-bg" data-uml-label-role="edge-background" x="301" y="619" width="46" height="18" fill="white" opacity="0.85"/><text class="uml-edge-label" data-uml-label-role="edge" x="324" y="632" text-anchor="middle" font-family="monospace" font-size="11" fill="#334155">writes</text><polyline class="uml-relation" data-uml-from="vm" data-uml-to="bq" data-uml-arrow="--&gt;" points="324,94 324,130 432,130 432,166" fill="none" stroke="#1e293b" stroke-width="2" marker-end="url(#arrow-open)" /><text class="uml-edge-label" data-uml-label-role="edge" x="378" y="104" text-anchor="middle" font-family="monospace" font-size="11" fill="#334155">loads</text><polyline class="uml-relation" data-uml-from="role" data-uml-to="gke" data-uml-arrow="..&gt;" points="541,94 541,192 324,192 324,290" fill="none" stroke="#1e293b" stroke-width="2" stroke-dasharray="5 3" marker-end="url(#arrow-open)" /><text class="uml-edge-label" data-uml-label-role="edge" x="381" y="148" text-anchor="middle" font-family="monospace" font-size="11" fill="#334155">grants</text><rect class="uml-node uml-cloud-icon-node" data-uml-id="cdn" data-provider="GCP" data-service="CloudCDN" x="42" y="42" width="130" height="52" rx="4" ry="4" fill="#E8F0FE" stroke="#4285F4" stroke-width="1.5"/><rect x="42" y="42" width="130" height="30" rx="4" ry="4" fill="#4285F4" stroke="#4285F4" stroke-width="1.5"/><rect x="42" y="64" width="130" height="8" fill="#4285F4"/><line x1="42" y1="72" x2="172" y2="72" stroke="#4285F4" stroke-width="1"/><rect class="cloud-icon-badge" data-provider="GCP" x="46" y="46" width="24" height="16" rx="3" ry="3" fill="#4285F4"/><text x="58" y="54" text-anchor="middle" dominant-baseline="middle" font-family="monospace" font-size="8" font-weight="700" fill="#ffffff">GCP</text><text x="76" y="61" font-family="monospace" font-size="10" font-weight="700" fill="#ffffff" data-cloud-service-name="true">CloudCDN</text><text x="107" y="87" text-anchor="middle" font-family="monospace" font-size="12" font-weight="600" fill="#0f172a" text-decoration="underline" text-decoration-thickness="1">Edge CDN</text><rect class="uml-node uml-cloud-icon-node" data-uml-id="lb" data-provider="GCP" data-service="CloudLoadBalancing" x="150" y="166" width="130" height="52" rx="4" ry="4" fill="#E8F0FE" stroke="#4285F4" stroke-width="1.5"/><rect x="150" y="166" width="130" height="30" rx="4" ry="4" fill="#4285F4" stroke="#4285F4" stroke-width="1.5"/><rect x="150" y="188" width="130" height="8" fill="#4285F4"/><line x1="150" y1="196" x2="280" y2="196" stroke="#4285F4" stroke-width="1"/><rect class="cloud-icon-badge" data-provider="GCP" x="154" y="170" width="24" height="16" rx="3" ry="3" fill="#4285F4"/><text x="166" y="178" text-anchor="middle" dominant-baseline="middle" font-family="monospace" font-size="8" font-weight="700" fill="#ffffff">GCP</text><text x="184" y="185" font-family="monospace" font-size="10" font-weight="700" fill="#ffffff" data-cloud-service-name="true">CloudLoadBalancing</text><text x="215" y="211" text-anchor="middle" font-family="monospace" font-size="12" font-weight="600" fill="#0f172a" text-decoration="underline" text-decoration-thickness="1">HTTP(S) LB</text><rect class="uml-node uml-cloud-icon-node" data-uml-id="gke" data-provider="GCP" data-service="GKE" x="259" y="290" width="130" height="52" rx="4" ry="4" fill="#E8F0FE" stroke="#4285F4" stroke-width="1.5"/><rect x="259" y="290" width="130" height="30" rx="4" ry="4" fill="#4285F4" stroke="#4285F4" stroke-width="1.5"/><rect x="259" y="312" width="130" height="8" fill="#4285F4"/><line x1="259" y1="320" x2="389" y2="320" stroke="#4285F4" stroke-width="1"/><rect class="cloud-icon-badge" data-provider="GCP" x="263" y="294" width="24" height="16" rx="3" ry="3" fill="#4285F4"/><text x="275" y="302" text-anchor="middle" dominant-baseline="middle" font-family="monospace" font-size="8" font-weight="700" fill="#ffffff">GCP</text><text x="293" y="309" font-family="monospace" font-size="10" font-weight="700" fill="#ffffff" data-cloud-service-name="true">GKE</text><text x="324" y="335" text-anchor="middle" font-family="monospace" font-size="12" font-weight="600" fill="#0f172a" text-decoration="underline" text-decoration-thickness="1">App Cluster</text><rect class="uml-node uml-cloud-icon-node" data-uml-id="vm" data-provider="GCP" data-service="ComputeEngine" x="259" y="42" width="130" height="52" rx="4" ry="4" fill="#E8F0FE" stroke="#4285F4" stroke-width="1.5"/><rect x="259" y="42" width="130" height="30" rx="4" ry="4" fill="#4285F4" stroke="#4285F4" stroke-width="1.5"/><rect x="259" y="64" width="130" height="8" fill="#4285F4"/><line x1="259" y1="72" x2="389" y2="72" stroke="#4285F4" stroke-width="1"/><rect class="cloud-icon-badge" data-provider="GCP" x="263" y="46" width="24" height="16" rx="3" ry="3" fill="#4285F4"/><text x="275" y="54" text-anchor="middle" dominant-baseline="middle" font-family="monospace" font-size="8" font-weight="700" fill="#ffffff">GCP</text><text x="293" y="61" font-family="monospace" font-size="10" font-weight="700" fill="#ffffff" data-cloud-service-name="true">ComputeEngine</text><text x="324" y="87" text-anchor="middle" font-family="monospace" font-size="12" font-weight="600" fill="#0f172a" text-decoration="underline" text-decoration-thickness="1">Batch VM</text><rect class="uml-node uml-cloud-icon-node" data-uml-id="fn" data-provider="GCP" data-service="CloudFunctions" x="259" y="538" width="130" height="52" rx="4" ry="4" fill="#E8F0FE" stroke="#4285F4" stroke-width="1.5"/><rect x="259" y="538" width="130" height="30" rx="4" ry="4" fill="#4285F4" stroke="#4285F4" stroke-width="1.5"/><rect x="259" y="560" width="130" height="8" fill="#4285F4"/><line x1="259" y1="568" x2="389" y2="568" stroke="#4285F4" stroke-width="1"/><rect class="cloud-icon-badge" data-provider="GCP" x="263" y="542" width="24" height="16" rx="3" ry="3" fill="#4285F4"/><text x="275" y="550" text-anchor="middle" dominant-baseline="middle" font-family="monospace" font-size="8" font-weight="700" fill="#ffffff">GCP</text><text x="293" y="557" font-family="monospace" font-size="10" font-weight="700" fill="#ffffff" data-cloud-service-name="true">CloudFunctions</text><text x="324" y="583" text-anchor="middle" font-family="monospace" font-size="12" font-weight="600" fill="#0f172a" text-decoration="underline" text-decoration-thickness="1">Image Resize</text><rect class="uml-node uml-cloud-icon-node" data-uml-id="bucket" data-provider="GCP" data-service="CloudStorage" x="259" y="662" width="130" height="52" rx="4" ry="4" fill="#E8F0FE" stroke="#4285F4" stroke-width="1.5"/><rect x="259" y="662" width="130" height="30" rx="4" ry="4" fill="#4285F4" stroke="#4285F4" stroke-width="1.5"/><rect x="259" y="684" width="130" height="8" fill="#4285F4"/><line x1="259" y1="692" x2="389" y2="692" stroke="#4285F4" stroke-width="1"/><rect class="cloud-icon-badge" data-provider="GCP" x="263" y="666" width="24" height="16" rx="3" ry="3" fill="#4285F4"/><text x="275" y="674" text-anchor="middle" dominant-baseline="middle" font-family="monospace" font-size="8" font-weight="700" fill="#ffffff">GCP</text><text x="293" y="681" font-family="monospace" font-size="10" font-weight="700" fill="#ffffff" data-cloud-service-name="true">CloudStorage</text><text x="324" y="707" text-anchor="middle" font-family="monospace" font-size="12" font-weight="600" fill="#0f172a" text-decoration="underline" text-decoration-thickness="1">Media Lake</text><rect class="uml-node uml-cloud-icon-node" data-uml-id="sql" data-provider="GCP" data-service="CloudSQL" x="367" y="414" width="130" height="52" rx="4" ry="4" fill="#E8F0FE" stroke="#4285F4" stroke-width="1.5"/><rect x="367" y="414" width="130" height="30" rx="4" ry="4" fill="#4285F4" stroke="#4285F4" stroke-width="1.5"/><rect x="367" y="436" width="130" height="8" fill="#4285F4"/><line x1="367" y1="444" x2="497" y2="444" stroke="#4285F4" stroke-width="1"/><rect class="cloud-icon-badge" data-provider="GCP" x="371" y="418" width="24" height="16" rx="3" ry="3" fill="#4285F4"/><text x="383" y="426" text-anchor="middle" dominant-baseline="middle" font-family="monospace" font-size="8" font-weight="700" fill="#ffffff">GCP</text><text x="401" y="433" font-family="monospace" font-size="10" font-weight="700" fill="#ffffff" data-cloud-service-name="true">CloudSQL</text><text x="432" y="459" text-anchor="middle" font-family="monospace" font-size="12" font-weight="600" fill="#0f172a" text-decoration="underline" text-decoration-thickness="1">App DB</text><rect class="uml-node uml-cloud-icon-node" data-uml-id="bq" data-provider="GCP" data-service="BigQuery" x="367" y="166" width="130" height="52" rx="4" ry="4" fill="#E8F0FE" stroke="#4285F4" stroke-width="1.5"/><rect x="367" y="166" width="130" height="30" rx="4" ry="4" fill="#4285F4" stroke="#4285F4" stroke-width="1.5"/><rect x="367" y="188" width="130" height="8" fill="#4285F4"/><line x1="367" y1="196" x2="497" y2="196" stroke="#4285F4" stroke-width="1"/><rect class="cloud-icon-badge" data-provider="GCP" x="371" y="170" width="24" height="16" rx="3" ry="3" fill="#4285F4"/><text x="383" y="178" text-anchor="middle" dominant-baseline="middle" font-family="monospace" font-size="8" font-weight="700" fill="#ffffff">GCP</text><text x="401" y="185" font-family="monospace" font-size="10" font-weight="700" fill="#ffffff" data-cloud-service-name="true">BigQuery</text><text x="432" y="211" text-anchor="middle" font-family="monospace" font-size="12" font-weight="600" fill="#0f172a" text-decoration="underline" text-decoration-thickness="1">Analytics Warehouse</text><rect class="uml-node uml-cloud-icon-node" data-uml-id="ps" data-provider="GCP" data-service="PubSub" x="150" y="414" width="130" height="52" rx="4" ry="4" fill="#E8F0FE" stroke="#4285F4" stroke-width="1.5"/><rect x="150" y="414" width="130" height="30" rx="4" ry="4" fill="#4285F4" stroke="#4285F4" stroke-width="1.5"/><rect x="150" y="436" width="130" height="8" fill="#4285F4"/><line x1="150" y1="444" x2="280" y2="444" stroke="#4285F4" stroke-width="1"/><rect class="cloud-icon-badge" data-provider="GCP" x="154" y="418" width="24" height="16" rx="3" ry="3" fill="#4285F4"/><text x="166" y="426" text-anchor="middle" dominant-baseline="middle" font-family="monospace" font-size="8" font-weight="700" fill="#ffffff">GCP</text><text x="184" y="433" font-family="monospace" font-size="10" font-weight="700" fill="#ffffff" data-cloud-service-name="true">PubSub</text><text x="215" y="459" text-anchor="middle" font-family="monospace" font-size="12" font-weight="600" fill="#0f172a" text-decoration="underline" text-decoration-thickness="1">Event Bus</text><rect class="uml-node uml-cloud-icon-node" data-uml-id="role" data-provider="GCP" data-service="IAM" x="476" y="42" width="130" height="52" rx="4" ry="4" fill="#E8F0FE" stroke="#4285F4" stroke-width="1.5"/><rect x="476" y="42" width="130" height="30" rx="4" ry="4" fill="#4285F4" stroke="#4285F4" stroke-width="1.5"/><rect x="476" y="64" width="130" height="8" fill="#4285F4"/><line x1="476" y1="72" x2="606" y2="72" stroke="#4285F4" stroke-width="1"/><rect class="cloud-icon-badge" data-provider="GCP" x="480" y="46" width="24" height="16" rx="3" ry="3" fill="#4285F4"/><text x="492" y="54" text-anchor="middle" dominant-baseline="middle" font-family="monospace" font-size="8" font-weight="700" fill="#ffffff">GCP</text><text x="510" y="61" font-family="monospace" font-size="10" font-weight="700" fill="#ffffff" data-cloud-service-name="true">IAM</text><text x="541" y="87" text-anchor="middle" font-family="monospace" font-size="12" font-weight="600" fill="#0f172a" text-decoration="underline" text-decoration-thickness="1">Workload Identity</text></svg>