<svg xmlns="http://www.w3.org/2000/svg" width="789" height="768" viewBox="0 0 789 768" data-orientation="TopToBottom"><rect width="100%" height="100%" fill="#ffffff"/><defs><marker id="arrow-open" viewBox="0 0 10 10" refX="9" refY="5" markerWidth="10" markerHeight="10" markerUnits="userSpaceOnUse" orient="auto-start-reverse"><path d="M0,0 L10,5 L0,10" fill="none" stroke="#1e293b" stroke-width="1.5"/></marker><marker id="arrow-triangle" viewBox="0 0 16 16" refX="15" refY="8" markerWidth="16" markerHeight="16" markerUnits="userSpaceOnUse" orient="auto-start-reverse"><polygon points="0,1 14,8 0,15" fill="#ffffff" stroke="#1e293b" stroke-width="1.5" fill-rule="nonzero"/></marker><marker id="arrow-diamond-filled" viewBox="0 0 14 10" refX="13" refY="5" markerWidth="14" markerHeight="10" markerUnits="userSpaceOnUse" orient="auto-start-reverse"><path d="M0,5 L7,0 L14,5 L7,10 z" fill="#1e293b" stroke="#1e293b" stroke-width="1"/></marker><marker id="arrow-diamond-open" viewBox="0 0 14 10" refX="13" refY="5" markerWidth="14" markerHeight="10" markerUnits="userSpaceOnUse" orient="auto-start-reverse"><path d="M0,5 L7,0 L14,5 L7,10 z" fill="#ffffff" stroke="#1e293b" stroke-width="1"/></marker></defs><defs><marker id="arrow-triangle-filled" viewBox="0 0 12 12" refX="11" refY="6" markerWidth="12" markerHeight="12" markerUnits="userSpaceOnUse" orient="auto-start-reverse"><polygon points="0,0 12,6 0,12" fill="#1e293b" stroke="#1e293b" stroke-width="1.5"/></marker><marker id="arrow-box-filled" viewBox="0 0 12 12" refX="11" refY="6" markerWidth="12" markerHeight="12" markerUnits="userSpaceOnUse" orient="auto-start-reverse"><rect x="2" y="2" width="8" height="8" fill="#1e293b" stroke="#1e293b" stroke-width="1.5"/></marker><marker id="arrow-plus" viewBox="0 0 12 12" refX="11" refY="6" markerWidth="12" markerHeight="12" markerUnits="userSpaceOnUse" orient="auto-start-reverse"><path d="M6,1 L6,11 M1,6 L11,6" fill="none" stroke="#1e293b" stroke-width="1.8" stroke-linecap="round"/></marker><marker id="arrow-cross" viewBox="0 0 12 12" refX="11" refY="6" markerWidth="12" markerHeight="12" markerUnits="userSpaceOnUse" orient="auto-start-reverse"><path d="M2,2 L10,10 M10,2 L2,10" fill="none" stroke="#1e293b" stroke-width="1.8" stroke-linecap="round"/></marker><marker id="arrow-bracket-open" viewBox="0 0 12 14" refX="11" refY="7" markerWidth="12" markerHeight="14" markerUnits="userSpaceOnUse" orient="auto-start-reverse"><path d="M10,1 L4,1 L4,13 L10,13" fill="none" stroke="#1e293b" stroke-width="1.8" stroke-linecap="round" stroke-linejoin="round"/></marker><marker id="arrow-circle-open" viewBox="0 0 12 12" refX="11" refY="6" markerWidth="12" markerHeight="12" markerUnits="userSpaceOnUse" orient="auto-start-reverse"><circle cx="6" cy="6" r="4" fill="#ffffff" stroke="#1e293b" stroke-width="1.5"/></marker><marker id="arrow-circle-filled" viewBox="0 0 12 12" refX="11" refY="6" markerWidth="12" markerHeight="12" markerUnits="userSpaceOnUse" orient="auto-start-reverse"><circle cx="6" cy="6" r="4" fill="#1e293b" stroke="#1e293b" stroke-width="1.5"/></marker><marker id="arrow-double-open" viewBox="0 0 16 12" refX="15" refY="6" markerWidth="16" markerHeight="12" markerUnits="userSpaceOnUse" orient="auto-start-reverse"><path d="M0,1 L8,6 L0,11 M7,1 L15,6 L7,11" fill="none" stroke="#1e293b" stroke-width="1.5" stroke-linejoin="round"/></marker></defs><text x="8" y="8" font-family="monospace" font-size="18" font-weight="600" fill="#0f172a">GCP architecture overview — compute, data, messaging, security</text><polyline class="uml-relation" data-uml-from="cdn" data-uml-to="lb" data-uml-arrow="--&gt;" points="207,68 124,68 250,192 168,192" fill="none" stroke="#1e293b" stroke-width="2" marker-end="url(#arrow-open)" /><rect class="uml-edge-label-bg" data-uml-label-role="edge-background" x="157" y="105" width="60" height="18" fill="white" opacity="0.85"/><text class="uml-edge-label" data-uml-label-role="edge" x="187" y="118" text-anchor="middle" font-family="monospace" font-size="11" fill="#334155">forwards</text><polyline class="uml-relation" data-uml-from="lb" data-uml-to="gke" data-uml-arrow="--&gt;" points="333,192 250,192 376,316 294,316" fill="none" stroke="#1e293b" stroke-width="2" marker-end="url(#arrow-open)" /><rect class="uml-edge-label-bg" data-uml-label-role="edge-background" x="354" y="229" width="46" height="18" fill="white" opacity="0.85"/><text class="uml-edge-label" data-uml-label-role="edge" x="377" y="242" text-anchor="middle" font-family="monospace" font-size="11" fill="#334155">routes</text><polyline class="uml-relation" data-uml-from="gke" data-uml-to="sql" data-uml-arrow="--&gt;" points="459,316 376,316 502,440 420,440" fill="none" stroke="#1e293b" stroke-width="2" marker-end="url(#arrow-open)" /><rect class="uml-edge-label-bg" data-uml-label-role="edge-background" x="389" y="353" width="52" height="18" fill="white" opacity="0.85"/><text class="uml-edge-label" data-uml-label-role="edge" x="415" y="366" text-anchor="middle" font-family="monospace" font-size="11" fill="#334155">queries</text><polyline class="uml-relation" data-uml-from="gke" data-uml-to="ps" data-uml-arrow="--&gt;" points="294,316 376,316 250,440 333,440" fill="none" stroke="#1e293b" stroke-width="2" marker-end="url(#arrow-open)" /><rect class="uml-edge-label-bg" data-uml-label-role="edge-background" x="310" y="353" width="66" height="18" fill="white" opacity="0.85"/><text class="uml-edge-label" data-uml-label-role="edge" x="343" y="366" text-anchor="middle" font-family="monospace" font-size="11" fill="#334155">publishes</text><polyline class="uml-relation" data-uml-from="ps" data-uml-to="fn" data-uml-arrow="--&gt;" points="333,440 250,440 376,564 294,564" fill="none" stroke="#1e293b" stroke-width="2" marker-end="url(#arrow-open)" /><rect class="uml-edge-label-bg" data-uml-label-role="edge-background" x="283" y="477" width="60" height="18" fill="white" opacity="0.85"/><text class="uml-edge-label" data-uml-label-role="edge" x="313" y="490" text-anchor="middle" font-family="monospace" font-size="11" fill="#334155">triggers</text><polyline class="uml-relation" data-uml-from="fn" data-uml-to="bucket" data-uml-arrow="--&gt;" points="376,590 376,626 376,662" fill="none" stroke="#1e293b" stroke-width="2" marker-end="url(#arrow-open)" /><rect class="uml-edge-label-bg" data-uml-label-role="edge-background" x="353" y="619" width="46" height="18" fill="white" opacity="0.85"/><text class="uml-edge-label" data-uml-label-role="edge" x="376" y="632" text-anchor="middle" font-family="monospace" font-size="11" fill="#334155">writes</text><polyline class="uml-relation" data-uml-from="vm" data-uml-to="bq" data-uml-arrow="--&gt;" points="459,68 376,68 502,192 420,192" fill="none" stroke="#1e293b" stroke-width="2" marker-end="url(#arrow-open)" /><rect class="uml-edge-label-bg" data-uml-label-role="edge-background" x="420" y="105" width="38" height="18" fill="white" opacity="0.85"/><text class="uml-edge-label" data-uml-label-role="edge" x="439" y="118" text-anchor="middle" font-family="monospace" font-size="11" fill="#334155">loads</text><polyline class="uml-relation" data-uml-from="role" data-uml-to="gke" data-uml-arrow="..&gt;" points="546,68 628,68 376,316 459,316" fill="none" stroke="#1e293b" stroke-width="2" stroke-dasharray="5 3" marker-end="url(#arrow-open)" /><rect class="uml-edge-label-bg" data-uml-label-role="edge-background" x="414" y="135" width="46" height="18" fill="white" opacity="0.85"/><text class="uml-edge-label" data-uml-label-role="edge" x="437" y="148" text-anchor="middle" font-family="monospace" font-size="11" fill="#334155">grants</text><rect class="uml-node uml-cloud-icon-node" data-uml-id="cdn" data-provider="GCP" data-service="CloudCDN" x="42" y="42" width="165" height="52" rx="4" ry="4" fill="#E8F0FE" stroke="#4285F4" stroke-width="1.5"/><rect x="42" y="42" width="165" height="30" rx="4" ry="4" fill="#4285F4" stroke="#4285F4" stroke-width="1.5"/><rect x="42" y="64" width="165" height="8" fill="#4285F4"/><line x1="42" y1="72" x2="207" y2="72" stroke="#4285F4" stroke-width="1"/><rect class="cloud-icon-badge" data-provider="GCP" x="46" y="46" width="24" height="16" rx="3" ry="3" fill="#4285F4"/><text x="58" y="54" text-anchor="middle" dominant-baseline="middle" font-family="monospace" font-size="8" font-weight="700" fill="#ffffff">GCP</text><text x="76" y="61" font-family="monospace" font-size="10" font-weight="700" fill="#ffffff" data-cloud-service-name="true">CloudCDN</text><text x="124" y="87" text-anchor="middle" font-family="monospace" font-size="12" font-weight="600" fill="#0f172a" text-decoration="underline" text-decoration-thickness="1">Edge CDN</text><rect class="uml-node uml-cloud-icon-node" data-uml-id="lb" data-provider="GCP" data-service="CloudLoadBalancing" x="168" y="166" width="165" height="52" rx="4" ry="4" fill="#E8F0FE" stroke="#4285F4" stroke-width="1.5"/><rect x="168" y="166" width="165" height="30" rx="4" ry="4" fill="#4285F4" stroke="#4285F4" stroke-width="1.5"/><rect x="168" y="188" width="165" height="8" fill="#4285F4"/><line x1="168" y1="196" x2="333" y2="196" stroke="#4285F4" stroke-width="1"/><rect class="cloud-icon-badge" data-provider="GCP" x="172" y="170" width="24" height="16" rx="3" ry="3" fill="#4285F4"/><text x="184" y="178" text-anchor="middle" dominant-baseline="middle" font-family="monospace" font-size="8" font-weight="700" fill="#ffffff">GCP</text><text x="202" y="185" font-family="monospace" font-size="10" font-weight="700" fill="#ffffff" data-cloud-service-name="true">CloudLoadBalancing</text><text x="250" y="211" text-anchor="middle" font-family="monospace" font-size="12" font-weight="600" fill="#0f172a" text-decoration="underline" text-decoration-thickness="1">HTTP(S) LB</text><rect class="uml-node uml-cloud-icon-node" data-uml-id="gke" data-provider="GCP" data-service="GKE" x="294" y="290" width="165" height="52" rx="4" ry="4" fill="#E8F0FE" stroke="#4285F4" stroke-width="1.5"/><rect x="294" y="290" width="165" height="30" rx="4" ry="4" fill="#4285F4" stroke="#4285F4" stroke-width="1.5"/><rect x="294" y="312" width="165" height="8" fill="#4285F4"/><line x1="294" y1="320" x2="459" y2="320" stroke="#4285F4" stroke-width="1"/><rect class="cloud-icon-badge" data-provider="GCP" x="298" y="294" width="24" height="16" rx="3" ry="3" fill="#4285F4"/><text x="310" y="302" text-anchor="middle" dominant-baseline="middle" font-family="monospace" font-size="8" font-weight="700" fill="#ffffff">GCP</text><text x="328" y="309" font-family="monospace" font-size="10" font-weight="700" fill="#ffffff" data-cloud-service-name="true">GKE</text><text x="376" y="335" text-anchor="middle" font-family="monospace" font-size="12" font-weight="600" fill="#0f172a" text-decoration="underline" text-decoration-thickness="1">App Cluster</text><rect class="uml-node uml-cloud-icon-node" data-uml-id="vm" data-provider="GCP" data-service="ComputeEngine" x="294" y="42" width="165" height="52" rx="4" ry="4" fill="#E8F0FE" stroke="#4285F4" stroke-width="1.5"/><rect x="294" y="42" width="165" height="30" rx="4" ry="4" fill="#4285F4" stroke="#4285F4" stroke-width="1.5"/><rect x="294" y="64" width="165" height="8" fill="#4285F4"/><line x1="294" y1="72" x2="459" y2="72" stroke="#4285F4" stroke-width="1"/><rect class="cloud-icon-badge" data-provider="GCP" x="298" y="46" width="24" height="16" rx="3" ry="3" fill="#4285F4"/><text x="310" y="54" text-anchor="middle" dominant-baseline="middle" font-family="monospace" font-size="8" font-weight="700" fill="#ffffff">GCP</text><text x="328" y="61" font-family="monospace" font-size="10" font-weight="700" fill="#ffffff" data-cloud-service-name="true">ComputeEngine</text><text x="376" y="87" text-anchor="middle" font-family="monospace" font-size="12" font-weight="600" fill="#0f172a" text-decoration="underline" text-decoration-thickness="1">Batch VM</text><rect class="uml-node uml-cloud-icon-node" data-uml-id="fn" data-provider="GCP" data-service="CloudFunctions" x="294" y="538" width="165" height="52" rx="4" ry="4" fill="#E8F0FE" stroke="#4285F4" stroke-width="1.5"/><rect x="294" y="538" width="165" height="30" rx="4" ry="4" fill="#4285F4" stroke="#4285F4" stroke-width="1.5"/><rect x="294" y="560" width="165" height="8" fill="#4285F4"/><line x1="294" y1="568" x2="459" y2="568" stroke="#4285F4" stroke-width="1"/><rect class="cloud-icon-badge" data-provider="GCP" x="298" y="542" width="24" height="16" rx="3" ry="3" fill="#4285F4"/><text x="310" y="550" text-anchor="middle" dominant-baseline="middle" font-family="monospace" font-size="8" font-weight="700" fill="#ffffff">GCP</text><text x="328" y="557" font-family="monospace" font-size="10" font-weight="700" fill="#ffffff" data-cloud-service-name="true">CloudFunctions</text><text x="376" y="583" text-anchor="middle" font-family="monospace" font-size="12" font-weight="600" fill="#0f172a" text-decoration="underline" text-decoration-thickness="1">Image Resize</text><rect class="uml-node uml-cloud-icon-node" data-uml-id="bucket" data-provider="GCP" data-service="CloudStorage" x="294" y="662" width="165" height="52" rx="4" ry="4" fill="#E8F0FE" stroke="#4285F4" stroke-width="1.5"/><rect x="294" y="662" width="165" height="30" rx="4" ry="4" fill="#4285F4" stroke="#4285F4" stroke-width="1.5"/><rect x="294" y="684" width="165" height="8" fill="#4285F4"/><line x1="294" y1="692" x2="459" y2="692" stroke="#4285F4" stroke-width="1"/><rect class="cloud-icon-badge" data-provider="GCP" x="298" y="666" width="24" height="16" rx="3" ry="3" fill="#4285F4"/><text x="310" y="674" text-anchor="middle" dominant-baseline="middle" font-family="monospace" font-size="8" font-weight="700" fill="#ffffff">GCP</text><text x="328" y="681" font-family="monospace" font-size="10" font-weight="700" fill="#ffffff" data-cloud-service-name="true">CloudStorage</text><text x="376" y="707" text-anchor="middle" font-family="monospace" font-size="12" font-weight="600" fill="#0f172a" text-decoration="underline" text-decoration-thickness="1">Media Lake</text><rect class="uml-node uml-cloud-icon-node" data-uml-id="sql" data-provider="GCP" data-service="CloudSQL" x="420" y="414" width="165" height="52" rx="4" ry="4" fill="#E8F0FE" stroke="#4285F4" stroke-width="1.5"/><rect x="420" y="414" width="165" height="30" rx="4" ry="4" fill="#4285F4" stroke="#4285F4" stroke-width="1.5"/><rect x="420" y="436" width="165" height="8" fill="#4285F4"/><line x1="420" y1="444" x2="585" y2="444" stroke="#4285F4" stroke-width="1"/><rect class="cloud-icon-badge" data-provider="GCP" x="424" y="418" width="24" height="16" rx="3" ry="3" fill="#4285F4"/><text x="436" y="426" text-anchor="middle" dominant-baseline="middle" font-family="monospace" font-size="8" font-weight="700" fill="#ffffff">GCP</text><text x="454" y="433" font-family="monospace" font-size="10" font-weight="700" fill="#ffffff" data-cloud-service-name="true">CloudSQL</text><text x="502" y="459" text-anchor="middle" font-family="monospace" font-size="12" font-weight="600" fill="#0f172a" text-decoration="underline" text-decoration-thickness="1">App DB</text><rect class="uml-node uml-cloud-icon-node" data-uml-id="bq" data-provider="GCP" data-service="BigQuery" x="420" y="166" width="165" height="52" rx="4" ry="4" fill="#E8F0FE" stroke="#4285F4" stroke-width="1.5"/><rect x="420" y="166" width="165" height="30" rx="4" ry="4" fill="#4285F4" stroke="#4285F4" stroke-width="1.5"/><rect x="420" y="188" width="165" height="8" fill="#4285F4"/><line x1="420" y1="196" x2="585" y2="196" stroke="#4285F4" stroke-width="1"/><rect class="cloud-icon-badge" data-provider="GCP" x="424" y="170" width="24" height="16" rx="3" ry="3" fill="#4285F4"/><text x="436" y="178" text-anchor="middle" dominant-baseline="middle" font-family="monospace" font-size="8" font-weight="700" fill="#ffffff">GCP</text><text x="454" y="185" font-family="monospace" font-size="10" font-weight="700" fill="#ffffff" data-cloud-service-name="true">BigQuery</text><text x="502" y="211" text-anchor="middle" font-family="monospace" font-size="12" font-weight="600" fill="#0f172a" text-decoration="underline" text-decoration-thickness="1">Analytics Warehouse</text><rect class="uml-node uml-cloud-icon-node" data-uml-id="ps" data-provider="GCP" data-service="PubSub" x="168" y="414" width="165" height="52" rx="4" ry="4" fill="#E8F0FE" stroke="#4285F4" stroke-width="1.5"/><rect x="168" y="414" width="165" height="30" rx="4" ry="4" fill="#4285F4" stroke="#4285F4" stroke-width="1.5"/><rect x="168" y="436" width="165" height="8" fill="#4285F4"/><line x1="168" y1="444" x2="333" y2="444" stroke="#4285F4" stroke-width="1"/><rect class="cloud-icon-badge" data-provider="GCP" x="172" y="418" width="24" height="16" rx="3" ry="3" fill="#4285F4"/><text x="184" y="426" text-anchor="middle" dominant-baseline="middle" font-family="monospace" font-size="8" font-weight="700" fill="#ffffff">GCP</text><text x="202" y="433" font-family="monospace" font-size="10" font-weight="700" fill="#ffffff" data-cloud-service-name="true">PubSub</text><text x="250" y="459" text-anchor="middle" font-family="monospace" font-size="12" font-weight="600" fill="#0f172a" text-decoration="underline" text-decoration-thickness="1">Event Bus</text><rect class="uml-node uml-cloud-icon-node" data-uml-id="role" data-provider="GCP" data-service="IAM" x="546" y="42" width="165" height="52" rx="4" ry="4" fill="#E8F0FE" stroke="#4285F4" stroke-width="1.5"/><rect x="546" y="42" width="165" height="30" rx="4" ry="4" fill="#4285F4" stroke="#4285F4" stroke-width="1.5"/><rect x="546" y="64" width="165" height="8" fill="#4285F4"/><line x1="546" y1="72" x2="711" y2="72" stroke="#4285F4" stroke-width="1"/><rect class="cloud-icon-badge" data-provider="GCP" x="550" y="46" width="24" height="16" rx="3" ry="3" fill="#4285F4"/><text x="562" y="54" text-anchor="middle" dominant-baseline="middle" font-family="monospace" font-size="8" font-weight="700" fill="#ffffff">GCP</text><text x="580" y="61" font-family="monospace" font-size="10" font-weight="700" fill="#ffffff" data-cloud-service-name="true">IAM</text><text x="628" y="87" text-anchor="middle" font-family="monospace" font-size="12" font-weight="600" fill="#0f172a" text-decoration="underline" text-decoration-thickness="1">Workload Identity</text></svg>