<svg xmlns="http://www.w3.org/2000/svg" width="506" height="644" viewBox="0 0 506 644" data-orientation="TopToBottom"><rect width="100%" height="100%" fill="#ffffff"/><defs><marker id="arrow-open" viewBox="0 0 10 10" refX="9" refY="5" markerWidth="10" markerHeight="10" markerUnits="userSpaceOnUse" orient="auto-start-reverse"><path d="M0,0 L10,5 L0,10" fill="none" stroke="#1e293b" stroke-width="1.5"/></marker><marker id="arrow-triangle" viewBox="0 0 16 16" refX="15" refY="8" markerWidth="16" markerHeight="16" markerUnits="userSpaceOnUse" orient="auto-start-reverse"><polygon points="0,1 14,8 0,15" fill="#ffffff" stroke="#1e293b" stroke-width="1.5" fill-rule="nonzero"/></marker><marker id="arrow-diamond-filled" viewBox="0 0 14 10" refX="13" refY="5" markerWidth="14" markerHeight="10" markerUnits="userSpaceOnUse" orient="auto-start-reverse"><path d="M0,5 L7,0 L14,5 L7,10 z" fill="#1e293b" stroke="#1e293b" stroke-width="1"/></marker><marker id="arrow-diamond-open" viewBox="0 0 14 10" refX="13" refY="5" markerWidth="14" markerHeight="10" markerUnits="userSpaceOnUse" orient="auto-start-reverse"><path d="M0,5 L7,0 L14,5 L7,10 z" fill="#ffffff" stroke="#1e293b" stroke-width="1"/></marker></defs><defs><marker id="arrow-triangle-filled" viewBox="0 0 12 12" refX="11" refY="6" markerWidth="12" markerHeight="12" markerUnits="userSpaceOnUse" orient="auto-start-reverse"><polygon points="0,0 12,6 0,12" fill="#1e293b" stroke="#1e293b" stroke-width="1.5"/></marker><marker id="arrow-box-filled" viewBox="0 0 12 12" refX="11" refY="6" markerWidth="12" markerHeight="12" markerUnits="userSpaceOnUse" orient="auto-start-reverse"><rect x="2" y="2" width="8" height="8" fill="#1e293b" stroke="#1e293b" stroke-width="1.5"/></marker><marker id="arrow-plus" viewBox="0 0 12 12" refX="11" refY="6" markerWidth="12" markerHeight="12" markerUnits="userSpaceOnUse" orient="auto-start-reverse"><path d="M6,1 L6,11 M1,6 L11,6" fill="none" stroke="#1e293b" stroke-width="1.8" stroke-linecap="round"/></marker><marker id="arrow-cross" viewBox="0 0 12 12" refX="11" refY="6" markerWidth="12" markerHeight="12" markerUnits="userSpaceOnUse" orient="auto-start-reverse"><path d="M2,2 L10,10 M10,2 L2,10" fill="none" stroke="#1e293b" stroke-width="1.8" stroke-linecap="round"/></marker><marker id="arrow-bracket-open" viewBox="0 0 12 14" refX="11" refY="7" markerWidth="12" markerHeight="14" markerUnits="userSpaceOnUse" orient="auto-start-reverse"><path d="M10,1 L4,1 L4,13 L10,13" fill="none" stroke="#1e293b" stroke-width="1.8" stroke-linecap="round" stroke-linejoin="round"/></marker><marker id="arrow-circle-open" viewBox="0 0 12 12" refX="11" refY="6" markerWidth="12" markerHeight="12" markerUnits="userSpaceOnUse" orient="auto-start-reverse"><circle cx="6" cy="6" r="4" fill="#ffffff" stroke="#1e293b" stroke-width="1.5"/></marker><marker id="arrow-circle-filled" viewBox="0 0 12 12" refX="11" refY="6" markerWidth="12" markerHeight="12" markerUnits="userSpaceOnUse" orient="auto-start-reverse"><circle cx="6" cy="6" r="4" fill="#1e293b" stroke="#1e293b" stroke-width="1.5"/></marker><marker id="arrow-double-open" viewBox="0 0 16 12" refX="15" refY="6" markerWidth="16" markerHeight="12" markerUnits="userSpaceOnUse" orient="auto-start-reverse"><path d="M0,1 L8,6 L0,11 M7,1 L15,6 L7,11" fill="none" stroke="#1e293b" stroke-width="1.5" stroke-linejoin="round"/></marker></defs><text x="8" y="8" font-family="monospace" font-size="18" font-weight="600" fill="#0f172a">GCP analytics data pipeline</text><polyline class="uml-relation" data-uml-from="raw" data-uml-to="ingest" data-uml-arrow="--&gt;" points="107,94 107,130 226,130 226,166" fill="none" stroke="#1e293b" stroke-width="2" marker-end="url(#arrow-open)" /><text class="uml-edge-label" data-uml-label-role="edge" x="196" y="118" text-anchor="middle" font-family="monospace" font-size="11" fill="#334155">event</text><polyline class="uml-relation" data-uml-from="ingest" data-uml-to="events" data-uml-arrow="--&gt;" points="226,218 226,254 226,290" fill="none" stroke="#1e293b" stroke-width="2" marker-end="url(#arrow-open)" /><rect class="uml-edge-label-bg" data-uml-label-role="edge-background" x="200" y="247" width="52" height="18" fill="white" opacity="0.85"/><rect class="uml-edge-label-bg" data-uml-label-role="edge-background" x="200" y="247" width="52" height="18" fill="white" opacity="0.85"/><text class="uml-edge-label" data-uml-label-role="edge" x="226" y="260" text-anchor="middle" font-family="monospace" font-size="11" fill="#334155">publish</text><polyline class="uml-relation" data-uml-from="events" data-uml-to="enrich" data-uml-arrow="--&gt;" points="226,342 226,378 226,414" fill="none" stroke="#1e293b" stroke-width="2" marker-end="url(#arrow-open)" /><rect class="uml-edge-label-bg" data-uml-label-role="edge-background" x="210" y="353" width="32" height="18" fill="white" opacity="0.85"/><rect class="uml-edge-label-bg" data-uml-label-role="edge-background" x="210" y="353" width="32" height="18" fill="white" opacity="0.85"/><text class="uml-edge-label" data-uml-label-role="edge" x="226" y="366" text-anchor="middle" font-family="monospace" font-size="11" fill="#334155">pull</text><polyline class="uml-relation" data-uml-from="enrich" data-uml-to="meta" data-uml-arrow="--&gt;" points="226,466 226,502 107,502 107,538" fill="none" stroke="#1e293b" stroke-width="2" marker-end="url(#arrow-open)" /><text class="uml-edge-label" data-uml-label-role="edge" x="178" y="490" text-anchor="middle" font-family="monospace" font-size="11" fill="#334155">lookup</text><polyline class="uml-relation" data-uml-from="enrich" data-uml-to="warehouse" data-uml-arrow="--&gt;" points="226,466 226,502 345,502 345,538" fill="none" stroke="#1e293b" stroke-width="2" marker-end="url(#arrow-open)" /><rect class="uml-edge-label-bg" data-uml-label-role="edge-background" x="212" y="477" width="88" height="18" fill="white" opacity="0.85"/><rect class="uml-edge-label-bg" data-uml-label-role="edge-background" x="212" y="477" width="88" height="18" fill="white" opacity="0.85"/><text class="uml-edge-label" data-uml-label-role="edge" x="256" y="490" text-anchor="middle" font-family="monospace" font-size="11" fill="#334155">streamInsert</text><polyline class="uml-relation" data-uml-from="role" data-uml-to="ingest" data-uml-arrow="..&gt;" points="345,94 345,130 226,130 226,166" fill="none" stroke="#1e293b" stroke-width="2" stroke-dasharray="5 3" marker-end="url(#arrow-open)" /><text class="uml-edge-label" data-uml-label-role="edge" x="256" y="118" text-anchor="middle" font-family="monospace" font-size="11" fill="#334155">grants</text><polyline class="uml-relation" data-uml-from="role" data-uml-to="enrich" data-uml-arrow="..&gt;" points="345,94 345,254 307,254 307,254 226,254 226,414" fill="none" stroke="#1e293b" stroke-width="2" stroke-dasharray="5 3" marker-end="url(#arrow-open)" /><text class="uml-edge-label" data-uml-label-role="edge" x="286" y="242" text-anchor="middle" font-family="monospace" font-size="11" fill="#334155">grants</text><rect class="uml-node uml-cloud-icon-node" data-uml-id="raw" data-provider="GCP" data-service="CloudStorage" x="42" y="42" width="130" height="52" rx="4" ry="4" fill="#E8F0FE" stroke="#4285F4" stroke-width="1.5"/><rect x="42" y="42" width="130" height="30" rx="4" ry="4" fill="#4285F4" stroke="#4285F4" stroke-width="1.5"/><rect x="42" y="64" width="130" height="8" fill="#4285F4"/><line x1="42" y1="72" x2="172" y2="72" stroke="#4285F4" stroke-width="1"/><rect class="cloud-icon-badge" data-provider="GCP" x="46" y="46" width="24" height="16" rx="3" ry="3" fill="#4285F4"/><text x="58" y="54" text-anchor="middle" dominant-baseline="middle" font-family="monospace" font-size="8" font-weight="700" fill="#ffffff">GCP</text><text x="76" y="61" font-family="monospace" font-size="10" font-weight="700" fill="#ffffff" data-cloud-service-name="true">CloudStorage</text><text x="107" y="87" text-anchor="middle" font-family="monospace" font-size="12" font-weight="600" fill="#0f172a" text-decoration="underline" text-decoration-thickness="1">Raw Bucket</text><rect class="uml-node uml-cloud-icon-node" data-uml-id="ingest" data-provider="GCP" data-service="CloudFunctions" x="161" y="166" width="130" height="52" rx="4" ry="4" fill="#E8F0FE" stroke="#4285F4" stroke-width="1.5"/><rect x="161" y="166" width="130" height="30" rx="4" ry="4" fill="#4285F4" stroke="#4285F4" stroke-width="1.5"/><rect x="161" y="188" width="130" height="8" fill="#4285F4"/><line x1="161" y1="196" x2="291" y2="196" stroke="#4285F4" stroke-width="1"/><rect class="cloud-icon-badge" data-provider="GCP" x="165" y="170" width="24" height="16" rx="3" ry="3" fill="#4285F4"/><text x="177" y="178" text-anchor="middle" dominant-baseline="middle" font-family="monospace" font-size="8" font-weight="700" fill="#ffffff">GCP</text><text x="195" y="185" font-family="monospace" font-size="10" font-weight="700" fill="#ffffff" data-cloud-service-name="true">CloudFunctions</text><text x="226" y="211" text-anchor="middle" font-family="monospace" font-size="12" font-weight="600" fill="#0f172a" text-decoration="underline" text-decoration-thickness="1">Ingestor</text><rect class="uml-node uml-cloud-icon-node" data-uml-id="events" data-provider="GCP" data-service="PubSub" x="161" y="290" width="130" height="52" rx="4" ry="4" fill="#E8F0FE" stroke="#4285F4" stroke-width="1.5"/><rect x="161" y="290" width="130" height="30" rx="4" ry="4" fill="#4285F4" stroke="#4285F4" stroke-width="1.5"/><rect x="161" y="312" width="130" height="8" fill="#4285F4"/><line x1="161" y1="320" x2="291" y2="320" stroke="#4285F4" stroke-width="1"/><rect class="cloud-icon-badge" data-provider="GCP" x="165" y="294" width="24" height="16" rx="3" ry="3" fill="#4285F4"/><text x="177" y="302" text-anchor="middle" dominant-baseline="middle" font-family="monospace" font-size="8" font-weight="700" fill="#ffffff">GCP</text><text x="195" y="309" font-family="monospace" font-size="10" font-weight="700" fill="#ffffff" data-cloud-service-name="true">PubSub</text><text x="226" y="335" text-anchor="middle" font-family="monospace" font-size="12" font-weight="600" fill="#0f172a" text-decoration="underline" text-decoration-thickness="1">Ingest Events</text><rect class="uml-node uml-cloud-icon-node" data-uml-id="enrich" data-provider="GCP" data-service="CloudFunctions" x="161" y="414" width="130" height="52" rx="4" ry="4" fill="#E8F0FE" stroke="#4285F4" stroke-width="1.5"/><rect x="161" y="414" width="130" height="30" rx="4" ry="4" fill="#4285F4" stroke="#4285F4" stroke-width="1.5"/><rect x="161" y="436" width="130" height="8" fill="#4285F4"/><line x1="161" y1="444" x2="291" y2="444" stroke="#4285F4" stroke-width="1"/><rect class="cloud-icon-badge" data-provider="GCP" x="165" y="418" width="24" height="16" rx="3" ry="3" fill="#4285F4"/><text x="177" y="426" text-anchor="middle" dominant-baseline="middle" font-family="monospace" font-size="8" font-weight="700" fill="#ffffff">GCP</text><text x="195" y="433" font-family="monospace" font-size="10" font-weight="700" fill="#ffffff" data-cloud-service-name="true">CloudFunctions</text><text x="226" y="459" text-anchor="middle" font-family="monospace" font-size="12" font-weight="600" fill="#0f172a" text-decoration="underline" text-decoration-thickness="1">Enricher</text><rect class="uml-node uml-cloud-icon-node" data-uml-id="meta" data-provider="GCP" data-service="CloudSQL" x="42" y="538" width="130" height="52" rx="4" ry="4" fill="#E8F0FE" stroke="#4285F4" stroke-width="1.5"/><rect x="42" y="538" width="130" height="30" rx="4" ry="4" fill="#4285F4" stroke="#4285F4" stroke-width="1.5"/><rect x="42" y="560" width="130" height="8" fill="#4285F4"/><line x1="42" y1="568" x2="172" y2="568" stroke="#4285F4" stroke-width="1"/><rect class="cloud-icon-badge" data-provider="GCP" x="46" y="542" width="24" height="16" rx="3" ry="3" fill="#4285F4"/><text x="58" y="550" text-anchor="middle" dominant-baseline="middle" font-family="monospace" font-size="8" font-weight="700" fill="#ffffff">GCP</text><text x="76" y="557" font-family="monospace" font-size="10" font-weight="700" fill="#ffffff" data-cloud-service-name="true">CloudSQL</text><text x="107" y="583" text-anchor="middle" font-family="monospace" font-size="12" font-weight="600" fill="#0f172a" text-decoration="underline" text-decoration-thickness="1">Metadata DB</text><rect class="uml-node uml-cloud-icon-node" data-uml-id="warehouse" data-provider="GCP" data-service="BigQuery" x="280" y="538" width="130" height="52" rx="4" ry="4" fill="#E8F0FE" stroke="#4285F4" stroke-width="1.5"/><rect x="280" y="538" width="130" height="30" rx="4" ry="4" fill="#4285F4" stroke="#4285F4" stroke-width="1.5"/><rect x="280" y="560" width="130" height="8" fill="#4285F4"/><line x1="280" y1="568" x2="410" y2="568" stroke="#4285F4" stroke-width="1"/><rect class="cloud-icon-badge" data-provider="GCP" x="284" y="542" width="24" height="16" rx="3" ry="3" fill="#4285F4"/><text x="296" y="550" text-anchor="middle" dominant-baseline="middle" font-family="monospace" font-size="8" font-weight="700" fill="#ffffff">GCP</text><text x="314" y="557" font-family="monospace" font-size="10" font-weight="700" fill="#ffffff" data-cloud-service-name="true">BigQuery</text><text x="345" y="583" text-anchor="middle" font-family="monospace" font-size="12" font-weight="600" fill="#0f172a" text-decoration="underline" text-decoration-thickness="1">Analytics DW</text><rect class="uml-node uml-cloud-icon-node" data-uml-id="role" data-provider="GCP" data-service="IAM" x="280" y="42" width="130" height="52" rx="4" ry="4" fill="#E8F0FE" stroke="#4285F4" stroke-width="1.5"/><rect x="280" y="42" width="130" height="30" rx="4" ry="4" fill="#4285F4" stroke="#4285F4" stroke-width="1.5"/><rect x="280" y="64" width="130" height="8" fill="#4285F4"/><line x1="280" y1="72" x2="410" y2="72" stroke="#4285F4" stroke-width="1"/><rect class="cloud-icon-badge" data-provider="GCP" x="284" y="46" width="24" height="16" rx="3" ry="3" fill="#4285F4"/><text x="296" y="54" text-anchor="middle" dominant-baseline="middle" font-family="monospace" font-size="8" font-weight="700" fill="#ffffff">GCP</text><text x="314" y="61" font-family="monospace" font-size="10" font-weight="700" fill="#ffffff" data-cloud-service-name="true">IAM</text><text x="345" y="87" text-anchor="middle" font-family="monospace" font-size="12" font-weight="600" fill="#0f172a" text-decoration="underline" text-decoration-thickness="1">Pipeline SA</text></svg>