<svg xmlns="http://www.w3.org/2000/svg" width="488" height="366" viewBox="0 0 488 366" data-wbs-orientation="top-to-bottom" data-wbs-node-count="13" data-wbs-leaf-count="9" data-wbs-max-depth="2"><rect width="100%" height="100%" fill="white"/><line class="wbs-edge" data-wbs-edge-depth="1" x1="244" y1="60" x2="64" y2="114" stroke="#94a3b8" stroke-width="1.5"/><line class="wbs-edge" data-wbs-edge-depth="2" x1="24" y1="150" x2="24" y2="180" stroke="#94a3b8" stroke-width="1.5"/><line class="wbs-edge" data-wbs-edge-depth="2" x1="24" y1="180" x2="54" y2="180" stroke="#94a3b8" stroke-width="1.5"/><line class="wbs-edge" data-wbs-edge-depth="2" x1="24" y1="150" x2="24" y2="228" stroke="#94a3b8" stroke-width="1.5"/><line class="wbs-edge" data-wbs-edge-depth="2" x1="24" y1="228" x2="54" y2="228" stroke="#94a3b8" stroke-width="1.5"/><line class="wbs-edge" data-wbs-edge-depth="2" x1="24" y1="150" x2="24" y2="276" stroke="#94a3b8" stroke-width="1.5"/><line class="wbs-edge" data-wbs-edge-depth="2" x1="24" y1="276" x2="54" y2="276" stroke="#94a3b8" stroke-width="1.5"/><line class="wbs-edge" data-wbs-edge-depth="2" x1="24" y1="150" x2="24" y2="324" stroke="#94a3b8" stroke-width="1.5"/><line class="wbs-edge" data-wbs-edge-depth="2" x1="24" y1="324" x2="54" y2="324" stroke="#94a3b8" stroke-width="1.5"/><line class="wbs-edge" data-wbs-edge-depth="1" x1="244" y1="60" x2="229" y2="114" stroke="#94a3b8" stroke-width="1.5"/><line class="wbs-edge" data-wbs-edge-depth="2" x1="189" y1="150" x2="189" y2="180" stroke="#94a3b8" stroke-width="1.5"/><line class="wbs-edge" data-wbs-edge-depth="2" x1="189" y1="180" x2="219" y2="180" stroke="#94a3b8" stroke-width="1.5"/><line class="wbs-edge" data-wbs-edge-depth="2" x1="189" y1="150" x2="189" y2="228" stroke="#94a3b8" stroke-width="1.5"/><line class="wbs-edge" data-wbs-edge-depth="2" x1="189" y1="228" x2="219" y2="228" stroke="#94a3b8" stroke-width="1.5"/><line class="wbs-edge" data-wbs-edge-depth="2" x1="189" y1="150" x2="189" y2="276" stroke="#94a3b8" stroke-width="1.5"/><line class="wbs-edge" data-wbs-edge-depth="2" x1="189" y1="276" x2="219" y2="276" stroke="#94a3b8" stroke-width="1.5"/><line class="wbs-edge" data-wbs-edge-depth="1" x1="244" y1="60" x2="401" y2="114" stroke="#94a3b8" stroke-width="1.5"/><line class="wbs-edge" data-wbs-edge-depth="2" x1="340" y1="150" x2="340" y2="180" stroke="#94a3b8" stroke-width="1.5"/><line class="wbs-edge" data-wbs-edge-depth="2" x1="340" y1="180" x2="370" y2="180" stroke="#94a3b8" stroke-width="1.5"/><line class="wbs-edge" data-wbs-edge-depth="2" x1="340" y1="150" x2="340" y2="228" stroke="#94a3b8" stroke-width="1.5"/><line class="wbs-edge" data-wbs-edge-depth="2" x1="340" y1="228" x2="370" y2="228" stroke="#94a3b8" stroke-width="1.5"/><rect class="wbs-node wbs-depth-0 wbs-branch" data-wbs-depth="0" data-wbs-child-count="3" data-wbs-sibling-index="0" data-wbs-fill="#fde68a" x="166" y="24" width="157" height="36" rx="4" ry="4" fill="#fde68a" stroke="#92400e" stroke-width="1.5"/><text x="244" y="42" text-anchor="middle" dominant-baseline="middle" font-family="monospace" font-size="12">E-Commerce Platform</text><rect class="wbs-node wbs-depth-1 wbs-branch" data-wbs-depth="1" data-wbs-child-count="4" data-wbs-sibling-index="0" data-wbs-fill="#f1f5f9" x="24" y="114" width="80" height="36" rx="4" ry="4" fill="#f1f5f9" stroke="#64748b" stroke-width="1.5"/><text x="64" y="132" text-anchor="middle" dominant-baseline="middle" font-family="monospace" font-size="12">Frontend</text><rect class="wbs-node wbs-depth-2 wbs-leaf" data-wbs-depth="2" data-wbs-child-count="0" data-wbs-sibling-index="0" data-wbs-fill="#f1f5f9" x="54" y="162" width="115" height="36" rx="4" ry="4" fill="#f1f5f9" stroke="#64748b" stroke-width="1.5"/><text x="111" y="180" text-anchor="middle" dominant-baseline="middle" font-family="monospace" font-size="12">Design System</text><rect class="wbs-node wbs-depth-2 wbs-leaf" data-wbs-depth="2" data-wbs-child-count="0" data-wbs-sibling-index="1" data-wbs-fill="#f1f5f9" x="54" y="210" width="115" height="36" rx="4" ry="4" fill="#f1f5f9" stroke="#64748b" stroke-width="1.5"/><text x="111" y="228" text-anchor="middle" dominant-baseline="middle" font-family="monospace" font-size="12">Product Pages</text><rect class="wbs-node wbs-depth-2 wbs-leaf" data-wbs-depth="2" data-wbs-child-count="0" data-wbs-sibling-index="2" data-wbs-fill="#f1f5f9" x="54" y="258" width="80" height="36" rx="4" ry="4" fill="#f1f5f9" stroke="#64748b" stroke-width="1.5"/><text x="94" y="276" text-anchor="middle" dominant-baseline="middle" font-family="monospace" font-size="12">Cart</text><rect class="wbs-node wbs-depth-2 wbs-leaf" data-wbs-depth="2" data-wbs-child-count="0" data-wbs-sibling-index="3" data-wbs-fill="#f1f5f9" x="54" y="306" width="80" height="36" rx="4" ry="4" fill="#f1f5f9" stroke="#64748b" stroke-width="1.5"/><text x="94" y="324" text-anchor="middle" dominant-baseline="middle" font-family="monospace" font-size="12">Checkout</text><rect class="wbs-node wbs-depth-1 wbs-branch" data-wbs-depth="1" data-wbs-child-count="3" data-wbs-sibling-index="1" data-wbs-fill="#f1f5f9" x="189" y="114" width="80" height="36" rx="4" ry="4" fill="#f1f5f9" stroke="#64748b" stroke-width="1.5"/><text x="229" y="132" text-anchor="middle" dominant-baseline="middle" font-family="monospace" font-size="12">Backend</text><rect class="wbs-node wbs-depth-2 wbs-leaf" data-wbs-depth="2" data-wbs-child-count="0" data-wbs-sibling-index="0" data-wbs-fill="#f1f5f9" x="219" y="162" width="80" height="36" rx="4" ry="4" fill="#f1f5f9" stroke="#64748b" stroke-width="1.5"/><text x="259" y="180" text-anchor="middle" dominant-baseline="middle" font-family="monospace" font-size="12">Auth API</text><rect class="wbs-node wbs-depth-2 wbs-leaf" data-wbs-depth="2" data-wbs-child-count="0" data-wbs-sibling-index="1" data-wbs-fill="#f1f5f9" x="219" y="210" width="101" height="36" rx="4" ry="4" fill="#f1f5f9" stroke="#64748b" stroke-width="1.5"/><text x="269" y="228" text-anchor="middle" dominant-baseline="middle" font-family="monospace" font-size="12">Product API</text><rect class="wbs-node wbs-depth-2 wbs-leaf" data-wbs-depth="2" data-wbs-child-count="0" data-wbs-sibling-index="2" data-wbs-fill="#f1f5f9" x="219" y="258" width="87" height="36" rx="4" ry="4" fill="#f1f5f9" stroke="#64748b" stroke-width="1.5"/><text x="262" y="276" text-anchor="middle" dominant-baseline="middle" font-family="monospace" font-size="12">Order API</text><rect class="wbs-node wbs-depth-1 wbs-branch" data-wbs-depth="1" data-wbs-child-count="2" data-wbs-sibling-index="2" data-wbs-fill="#f1f5f9" x="340" y="114" width="122" height="36" rx="4" ry="4" fill="#f1f5f9" stroke="#64748b" stroke-width="1.5"/><text x="401" y="132" text-anchor="middle" dominant-baseline="middle" font-family="monospace" font-size="12">Infrastructure</text><rect class="wbs-node wbs-depth-2 wbs-leaf" data-wbs-depth="2" data-wbs-child-count="0" data-wbs-sibling-index="0" data-wbs-fill="#f1f5f9" x="370" y="162" width="80" height="36" rx="4" ry="4" fill="#f1f5f9" stroke="#64748b" stroke-width="1.5"/><text x="410" y="180" text-anchor="middle" dominant-baseline="middle" font-family="monospace" font-size="12">CI/CD</text><rect class="wbs-node wbs-depth-2 wbs-leaf" data-wbs-depth="2" data-wbs-child-count="0" data-wbs-sibling-index="1" data-wbs-fill="#f1f5f9" x="370" y="210" width="94" height="36" rx="4" ry="4" fill="#f1f5f9" stroke="#64748b" stroke-width="1.5"/><text x="417" y="228" text-anchor="middle" dominant-baseline="middle" font-family="monospace" font-size="12">Monitoring</text></svg>