<svg xmlns="http://www.w3.org/2000/svg" width="1768" height="270" viewBox="0 0 1768 270"><rect width="100%" height="100%" fill="white"/><rect x="24" y="24" width="220" height="42" rx="6" ry="6" fill="#f6f6f6" stroke="#111" stroke-width="1"/><text x="36" y="36" font-family="monospace" font-size="12" fill="#0f172a">Sprint 5 Tasks</text><rect x="24" y="114" width="220" height="42" rx="6" ry="6" fill="#f6f6f6" stroke="#111" stroke-width="1"/><text x="36" y="126" font-family="monospace" font-size="12" fill="#0f172a">Backend</text><rect x="24" y="204" width="220" height="42" rx="6" ry="6" fill="#f6f6f6" stroke="#111" stroke-width="1"/><text x="36" y="216" font-family="monospace" font-size="12" fill="#0f172a">[x] User endpoint</text><rect x="324" y="204" width="220" height="42" rx="6" ry="6" fill="#f6f6f6" stroke="#111" stroke-width="1"/><text x="336" y="216" font-family="monospace" font-size="12" fill="#0f172a">[x] Auth middleware</text><rect x="624" y="204" width="220" height="42" rx="6" ry="6" fill="#f6f6f6" stroke="#111" stroke-width="1"/><text x="636" y="216" font-family="monospace" font-size="12" fill="#0f172a">[ ] Order endpoint</text><rect x="324" y="114" width="220" height="42" rx="6" ry="6" fill="#f6f6f6" stroke="#111" stroke-width="1"/><text x="336" y="126" font-family="monospace" font-size="12" fill="#0f172a">Frontend</text><rect x="924" y="204" width="220" height="42" rx="6" ry="6" fill="#f6f6f6" stroke="#111" stroke-width="1"/><text x="936" y="216" font-family="monospace" font-size="12" fill="#0f172a">[x] Login page</text><rect x="1224" y="204" width="220" height="42" rx="6" ry="6" fill="#f6f6f6" stroke="#111" stroke-width="1"/><text x="1236" y="216" font-family="monospace" font-size="12" fill="#0f172a">[ ] Dashboard</text><rect x="1524" y="204" width="220" height="42" rx="6" ry="6" fill="#f6f6f6" stroke="#111" stroke-width="1"/><text x="1536" y="216" font-family="monospace" font-size="12" fill="#0f172a">[ ] Settings page</text><line x1="134" y1="66" x2="134" y2="114" stroke="#111" stroke-width="1.5"/><polygon points="134,114 128,108 140,108" fill="#111"/><line x1="134" y1="156" x2="134" y2="204" stroke="#111" stroke-width="1.5"/><polygon points="134,204 128,198 140,198" fill="#111"/><line x1="134" y1="156" x2="434" y2="204" stroke="#111" stroke-width="1.5"/><polygon points="434,204 428,198 428,210" fill="#111"/><line x1="134" y1="156" x2="734" y2="204" stroke="#111" stroke-width="1.5"/><polygon points="734,204 728,198 728,210" fill="#111"/><line x1="134" y1="66" x2="434" y2="114" stroke="#111" stroke-width="1.5"/><polygon points="434,114 428,108 428,120" fill="#111"/><line x1="434" y1="156" x2="1034" y2="204" stroke="#111" stroke-width="1.5"/><polygon points="1034,204 1028,198 1028,210" fill="#111"/><line x1="434" y1="156" x2="1334" y2="204" stroke="#111" stroke-width="1.5"/><polygon points="1334,204 1328,198 1328,210" fill="#111"/><line x1="434" y1="156" x2="1634" y2="204" stroke="#111" stroke-width="1.5"/><polygon points="1634,204 1628,198 1628,210" fill="#111"/><text x="24" y="258" font-family="monospace" font-size="11" fill="#475569">relationships: 8</text></svg>