<svg xmlns="http://www.w3.org/2000/svg" width="565" height="462" viewBox="0 0 565 462" data-wbs-orientation="top-to-bottom" data-wbs-node-count="15" data-wbs-leaf-count="9" data-wbs-max-depth="3"><rect width="100%" height="100%" fill="white"/><line class="wbs-edge" data-wbs-edge-depth="1" x1="282" y1="60" x2="78" y2="114" stroke="#94a3b8" stroke-width="1.5"/><line class="wbs-edge" data-wbs-edge-depth="2" x1="24" y1="150" x2="24" y2="180" stroke="#94a3b8" stroke-width="1.5"/><line class="wbs-edge" data-wbs-edge-depth="2" x1="24" y1="180" x2="54" y2="180" stroke="#94a3b8" stroke-width="1.5"/><line class="wbs-edge" data-wbs-edge-depth="3" x1="54" y1="198" x2="54" y2="228" stroke="#94a3b8" stroke-width="1.5"/><line class="wbs-edge" data-wbs-edge-depth="3" x1="54" y1="228" x2="84" y2="228" stroke="#94a3b8" stroke-width="1.5"/><line class="wbs-edge" data-wbs-edge-depth="3" x1="54" y1="198" x2="54" y2="276" stroke="#94a3b8" stroke-width="1.5"/><line class="wbs-edge" data-wbs-edge-depth="3" x1="54" y1="276" x2="84" y2="276" stroke="#94a3b8" stroke-width="1.5"/><line class="wbs-edge" data-wbs-edge-depth="2" x1="24" y1="150" x2="24" y2="324" stroke="#94a3b8" stroke-width="1.5"/><line class="wbs-edge" data-wbs-edge-depth="2" x1="24" y1="324" x2="54" y2="324" stroke="#94a3b8" stroke-width="1.5"/><line class="wbs-edge" data-wbs-edge-depth="3" x1="54" y1="342" x2="54" y2="372" stroke="#94a3b8" stroke-width="1.5"/><line class="wbs-edge" data-wbs-edge-depth="3" x1="54" y1="372" x2="84" y2="372" stroke="#94a3b8" stroke-width="1.5"/><line class="wbs-edge" data-wbs-edge-depth="3" x1="54" y1="342" x2="54" y2="420" stroke="#94a3b8" stroke-width="1.5"/><line class="wbs-edge" data-wbs-edge-depth="3" x1="54" y1="420" x2="84" y2="420" stroke="#94a3b8" stroke-width="1.5"/><line class="wbs-edge" data-wbs-edge-depth="1" x1="282" y1="60" x2="301" y2="114" stroke="#94a3b8" stroke-width="1.5"/><line class="wbs-edge" data-wbs-edge-depth="2" x1="261" y1="150" x2="261" y2="180" stroke="#94a3b8" stroke-width="1.5"/><line class="wbs-edge" data-wbs-edge-depth="2" x1="261" y1="180" x2="291" y2="180" stroke="#94a3b8" stroke-width="1.5"/><line class="wbs-edge" data-wbs-edge-depth="2" x1="261" y1="150" x2="261" y2="228" stroke="#94a3b8" stroke-width="1.5"/><line class="wbs-edge" data-wbs-edge-depth="2" x1="261" y1="228" x2="291" y2="228" stroke="#94a3b8" stroke-width="1.5"/><line class="wbs-edge" data-wbs-edge-depth="1" x1="282" y1="60" x2="480" y2="114" stroke="#94a3b8" stroke-width="1.5"/><line class="wbs-edge" data-wbs-edge-depth="2" x1="419" y1="150" x2="419" y2="180" stroke="#94a3b8" stroke-width="1.5"/><line class="wbs-edge" data-wbs-edge-depth="2" x1="419" y1="180" x2="449" y2="180" stroke="#94a3b8" stroke-width="1.5"/><line class="wbs-edge" data-wbs-edge-depth="2" x1="419" y1="150" x2="419" y2="228" stroke="#94a3b8" stroke-width="1.5"/><line class="wbs-edge" data-wbs-edge-depth="2" x1="419" y1="228" x2="449" y2="228" stroke="#94a3b8" stroke-width="1.5"/><line class="wbs-edge" data-wbs-edge-depth="2" x1="419" y1="150" x2="419" y2="276" stroke="#94a3b8" stroke-width="1.5"/><line class="wbs-edge" data-wbs-edge-depth="2" x1="419" y1="276" x2="449" y2="276" stroke="#94a3b8" stroke-width="1.5"/><rect class="wbs-node wbs-depth-0 wbs-branch" data-wbs-depth="0" data-wbs-child-count="3" data-wbs-sibling-index="0" data-wbs-fill="#fde68a" x="200" y="24" width="164" height="36" rx="4" ry="4" fill="#fde68a" stroke="#92400e" stroke-width="1.5"/><text x="282" y="42" text-anchor="middle" dominant-baseline="middle" font-family="monospace" font-size="12">Software Development</text><rect class="wbs-node wbs-depth-1 wbs-branch" data-wbs-depth="1" data-wbs-child-count="2" data-wbs-sibling-index="0" data-wbs-fill="#f1f5f9" x="24" y="114" width="108" height="36" rx="4" ry="4" fill="#f1f5f9" stroke="#64748b" stroke-width="1.5"/><text x="78" y="132" text-anchor="middle" dominant-baseline="middle" font-family="monospace" font-size="12">Requirements</text><rect class="wbs-node wbs-depth-2 wbs-branch" data-wbs-depth="2" data-wbs-child-count="2" data-wbs-sibling-index="0" data-wbs-fill="#f1f5f9" x="54" y="162" width="94" height="36" rx="4" ry="4" fill="#f1f5f9" stroke="#64748b" stroke-width="1.5"/><text x="101" y="180" text-anchor="middle" dominant-baseline="middle" font-family="monospace" font-size="12">Functional</text><rect class="wbs-node wbs-depth-3 wbs-leaf" data-wbs-depth="3" data-wbs-child-count="0" data-wbs-sibling-index="0" data-wbs-fill="#f1f5f9" x="84" y="210" width="108" height="36" rx="4" ry="4" fill="#f1f5f9" stroke="#64748b" stroke-width="1.5"/><text x="138" y="228" text-anchor="middle" dominant-baseline="middle" font-family="monospace" font-size="12">User stories</text><rect class="wbs-node wbs-depth-3 wbs-leaf" data-wbs-depth="3" data-wbs-child-count="0" data-wbs-sibling-index="1" data-wbs-fill="#f1f5f9" x="84" y="258" width="157" height="36" rx="4" ry="4" fill="#f1f5f9" stroke="#64748b" stroke-width="1.5"/><text x="162" y="276" text-anchor="middle" dominant-baseline="middle" font-family="monospace" font-size="12">Acceptance criteria</text><rect class="wbs-node wbs-depth-2 wbs-branch" data-wbs-depth="2" data-wbs-child-count="2" data-wbs-sibling-index="1" data-wbs-fill="#f1f5f9" x="54" y="306" width="122" height="36" rx="4" ry="4" fill="#f1f5f9" stroke="#64748b" stroke-width="1.5"/><text x="115" y="324" text-anchor="middle" dominant-baseline="middle" font-family="monospace" font-size="12">Non-Functional</text><rect class="wbs-node wbs-depth-3 wbs-leaf" data-wbs-depth="3" data-wbs-child-count="0" data-wbs-sibling-index="0" data-wbs-fill="#f1f5f9" x="84" y="354" width="101" height="36" rx="4" ry="4" fill="#f1f5f9" stroke="#64748b" stroke-width="1.5"/><text x="134" y="372" text-anchor="middle" dominant-baseline="middle" font-family="monospace" font-size="12">Performance</text><rect class="wbs-node wbs-depth-3 wbs-leaf" data-wbs-depth="3" data-wbs-child-count="0" data-wbs-sibling-index="1" data-wbs-fill="#f1f5f9" x="84" y="402" width="80" height="36" rx="4" ry="4" fill="#f1f5f9" stroke="#64748b" stroke-width="1.5"/><text x="124" y="420" text-anchor="middle" dominant-baseline="middle" font-family="monospace" font-size="12">Security</text><rect class="wbs-node wbs-depth-1 wbs-branch" data-wbs-depth="1" data-wbs-child-count="2" data-wbs-sibling-index="1" data-wbs-fill="#f1f5f9" x="261" y="114" width="80" height="36" rx="4" ry="4" fill="#f1f5f9" stroke="#64748b" stroke-width="1.5"/><text x="301" y="132" text-anchor="middle" dominant-baseline="middle" font-family="monospace" font-size="12">Design</text><rect class="wbs-node wbs-depth-2 wbs-leaf" data-wbs-depth="2" data-wbs-child-count="0" data-wbs-sibling-index="0" data-wbs-fill="#f1f5f9" x="291" y="162" width="108" height="36" rx="4" ry="4" fill="#f1f5f9" stroke="#64748b" stroke-width="1.5"/><text x="345" y="180" text-anchor="middle" dominant-baseline="middle" font-family="monospace" font-size="12">Architecture</text><rect class="wbs-node wbs-depth-2 wbs-leaf" data-wbs-depth="2" data-wbs-child-count="0" data-wbs-sibling-index="1" data-wbs-fill="#f1f5f9" x="291" y="210" width="80" height="36" rx="4" ry="4" fill="#f1f5f9" stroke="#64748b" stroke-width="1.5"/><text x="331" y="228" text-anchor="middle" dominant-baseline="middle" font-family="monospace" font-size="12">UI/UX</text><rect class="wbs-node wbs-depth-1 wbs-branch" data-wbs-depth="1" data-wbs-child-count="3" data-wbs-sibling-index="2" data-wbs-fill="#f1f5f9" x="419" y="114" width="122" height="36" rx="4" ry="4" fill="#f1f5f9" stroke="#64748b" stroke-width="1.5"/><text x="480" y="132" text-anchor="middle" dominant-baseline="middle" font-family="monospace" font-size="12">Implementation</text><rect class="wbs-node wbs-depth-2 wbs-leaf" data-wbs-depth="2" data-wbs-child-count="0" data-wbs-sibling-index="0" data-wbs-fill="#f1f5f9" x="449" y="162" width="80" height="36" rx="4" ry="4" fill="#f1f5f9" stroke="#64748b" stroke-width="1.5"/><text x="489" y="180" text-anchor="middle" dominant-baseline="middle" font-family="monospace" font-size="12">Frontend</text><rect class="wbs-node wbs-depth-2 wbs-leaf" data-wbs-depth="2" data-wbs-child-count="0" data-wbs-sibling-index="1" data-wbs-fill="#f1f5f9" x="449" y="210" width="80" height="36" rx="4" ry="4" fill="#f1f5f9" stroke="#64748b" stroke-width="1.5"/><text x="489" y="228" text-anchor="middle" dominant-baseline="middle" font-family="monospace" font-size="12">Backend</text><rect class="wbs-node wbs-depth-2 wbs-leaf" data-wbs-depth="2" data-wbs-child-count="0" data-wbs-sibling-index="2" data-wbs-fill="#f1f5f9" x="449" y="258" width="80" height="36" rx="4" ry="4" fill="#f1f5f9" stroke="#64748b" stroke-width="1.5"/><text x="489" y="276" text-anchor="middle" dominant-baseline="middle" font-family="monospace" font-size="12">Database</text></svg>