<svg xmlns="http://www.w3.org/2000/svg" width="760" height="424" viewBox="0 0 760 424"><rect width="100%" height="100%" fill="white"/><text x="24" y="28" font-family="monospace" font-size="18" font-weight="600">Network diagram</text><rect class="nwdiag-network" data-nwdiag-style="solid" data-nwdiag-shape="swimlane" x="24" y="52" width="712" height="22" fill="#e0f2fe" stroke="#0284c7" stroke-width="1" /><text x="32" y="68" font-family="monospace" font-size="13" font-weight="600" fill="#0c4a6e">network dmz</text><rect class="nwdiag-node" data-nwdiag-name="web01" data-nwdiag-addresses="" data-nwdiag-shape="box" data-nwdiag-style="solid" x="56" y="78" width="680" height="20" rx="3" ry="3" fill="white" stroke="#0284c7" stroke-width="1"/><text x="66" y="92" font-family="monospace" font-size="12" fill="#0f172a">web01</text><rect class="nwdiag-node" data-nwdiag-name="web02" data-nwdiag-addresses="" data-nwdiag-shape="box" data-nwdiag-style="solid" x="56" y="102" width="680" height="20" rx="3" ry="3" fill="white" stroke="#0284c7" stroke-width="1"/><text x="66" y="116" font-family="monospace" font-size="12" fill="#0f172a">web02</text><rect class="nwdiag-network" data-nwdiag-style="solid" data-nwdiag-shape="swimlane" x="24" y="136" width="712" height="22" fill="#e0f2fe" stroke="#0284c7" stroke-width="1" /><text x="32" y="152" font-family="monospace" font-size="13" font-weight="600" fill="#0c4a6e">network internal</text><rect class="nwdiag-node" data-nwdiag-name="app01" data-nwdiag-addresses="" data-nwdiag-shape="box" data-nwdiag-style="solid" x="56" y="162" width="680" height="20" rx="3" ry="3" fill="white" stroke="#0284c7" stroke-width="1"/><text x="66" y="176" font-family="monospace" font-size="12" fill="#0f172a">app01</text><rect class="nwdiag-node" data-nwdiag-name="app02" data-nwdiag-addresses="" data-nwdiag-shape="box" data-nwdiag-style="solid" x="56" y="186" width="680" height="20" rx="3" ry="3" fill="white" stroke="#0284c7" stroke-width="1"/><text x="66" y="200" font-family="monospace" font-size="12" fill="#0f172a">app02</text><rect class="nwdiag-group" data-nwdiag-style="solid" data-nwdiag-shape="box" x="24" y="220" width="712" height="22" fill="#fef3c7" stroke="#d97706" stroke-width="1" /><text x="32" y="236" font-family="monospace" font-size="13" font-weight="600" fill="#78350f">group frontend</text><rect class="nwdiag-group-member" x="56" y="246" width="680" height="20" rx="3" ry="3" fill="#fff7ed" stroke="#f59e0b" stroke-width="1"/><text x="66" y="260" font-family="monospace" font-size="12" fill="#0f172a">web01</text><rect class="nwdiag-group-member" x="56" y="270" width="680" height="20" rx="3" ry="3" fill="#fff7ed" stroke="#f59e0b" stroke-width="1"/><text x="66" y="284" font-family="monospace" font-size="12" fill="#0f172a">web02</text><rect class="nwdiag-group" data-nwdiag-style="solid" data-nwdiag-shape="box" x="24" y="304" width="712" height="22" fill="#fef3c7" stroke="#d97706" stroke-width="1" /><text x="32" y="320" font-family="monospace" font-size="13" font-weight="600" fill="#78350f">group backend</text><rect class="nwdiag-group-member" x="56" y="330" width="680" height="20" rx="3" ry="3" fill="#fff7ed" stroke="#f59e0b" stroke-width="1"/><text x="66" y="344" font-family="monospace" font-size="12" fill="#0f172a">app01</text><rect class="nwdiag-group-member" x="56" y="354" width="680" height="20" rx="3" ry="3" fill="#fff7ed" stroke="#f59e0b" stroke-width="1"/><text x="66" y="368" font-family="monospace" font-size="12" fill="#0f172a">app02</text></svg>