<svg xmlns="http://www.w3.org/2000/svg" width="760" height="512" viewBox="0 0 760 512"><rect width="100%" height="100%" fill="white"/><text x="24" y="28" font-family="monospace" font-size="18" font-weight="600">Network diagram</text><rect class="nwdiag-network" data-nwdiag-style="solid" data-nwdiag-shape="swimlane" x="24" y="52" width="712" height="22" fill="#e0f2fe" stroke="#0284c7" stroke-width="1" /><text x="32" y="67" font-family="monospace" font-size="13" font-weight="600" fill="#0c4a6e">network dmz</text><rect class="nwdiag-network" data-nwdiag-style="solid" data-nwdiag-shape="swimlane" x="24" y="76" width="712" height="12" rx="6" ry="6" fill="#e0f2fe" stroke="#0284c7" stroke-width="1" /><line class="nwdiag-connector" data-nwdiag-network="dmz" data-nwdiag-node="web01" x1="134" y1="88" x2="134" y2="106" stroke="#0284c7" stroke-width="2" /><rect class="nwdiag-node" data-nwdiag-name="web01" data-nwdiag-addresses="" data-nwdiag-shape="box" data-nwdiag-style="solid" x="64" y="106" width="140" height="28" rx="3" ry="3" fill="white" stroke="#0284c7" stroke-width="1.5"/><text x="134" y="124" text-anchor="middle" font-family="monospace" font-size="12" fill="#0f172a">web01</text><line class="nwdiag-connector" data-nwdiag-network="dmz" data-nwdiag-node="web02" x1="298" y1="88" x2="298" y2="106" stroke="#0284c7" stroke-width="2" /><rect class="nwdiag-node" data-nwdiag-name="web02" data-nwdiag-addresses="" data-nwdiag-shape="box" data-nwdiag-style="solid" x="228" y="106" width="140" height="28" rx="3" ry="3" fill="white" stroke="#0284c7" stroke-width="1.5"/><text x="298" y="124" text-anchor="middle" font-family="monospace" font-size="12" fill="#0f172a">web02</text><rect class="nwdiag-network" data-nwdiag-style="solid" data-nwdiag-shape="swimlane" x="24" y="158" width="712" height="22" fill="#e0f2fe" stroke="#0284c7" stroke-width="1" /><text x="32" y="173" font-family="monospace" font-size="13" font-weight="600" fill="#0c4a6e">network internal</text><rect class="nwdiag-network" data-nwdiag-style="solid" data-nwdiag-shape="swimlane" x="24" y="182" width="712" height="12" rx="6" ry="6" fill="#e0f2fe" stroke="#0284c7" stroke-width="1" /><line class="nwdiag-connector" data-nwdiag-network="internal" data-nwdiag-node="app01" x1="462" y1="194" x2="462" y2="212" stroke="#0284c7" stroke-width="2" /><rect class="nwdiag-node" data-nwdiag-name="app01" data-nwdiag-addresses="" data-nwdiag-shape="box" data-nwdiag-style="solid" x="392" y="212" width="140" height="28" rx="3" ry="3" fill="white" stroke="#0284c7" stroke-width="1.5"/><text x="462" y="230" text-anchor="middle" font-family="monospace" font-size="12" fill="#0f172a">app01</text><line class="nwdiag-connector" data-nwdiag-network="internal" data-nwdiag-node="app02" x1="626" y1="194" x2="626" y2="212" stroke="#0284c7" stroke-width="2" /><rect class="nwdiag-node" data-nwdiag-name="app02" data-nwdiag-addresses="" data-nwdiag-shape="box" data-nwdiag-style="solid" x="556" y="212" width="140" height="28" rx="3" ry="3" fill="white" stroke="#0284c7" stroke-width="1.5"/><text x="626" y="230" text-anchor="middle" font-family="monospace" font-size="12" fill="#0f172a">app02</text><rect class="nwdiag-group" data-nwdiag-style="solid" data-nwdiag-shape="box" x="24" y="264" width="712" height="22" fill="#fef3c7" stroke="#d97706" stroke-width="1" /><text x="32" y="280" font-family="monospace" font-size="13" font-weight="600" fill="#78350f">group frontend</text><rect class="nwdiag-group-member" x="56" y="290" width="680" height="20" rx="3" ry="3" fill="#fff7ed" stroke="#f59e0b" stroke-width="1"/><text x="66" y="304" font-family="monospace" font-size="12" fill="#0f172a">web01</text><rect class="nwdiag-group-member" x="56" y="314" width="680" height="20" rx="3" ry="3" fill="#fff7ed" stroke="#f59e0b" stroke-width="1"/><text x="66" y="328" font-family="monospace" font-size="12" fill="#0f172a">web02</text><rect class="nwdiag-group" data-nwdiag-style="solid" data-nwdiag-shape="box" x="24" y="348" width="712" height="22" fill="#fef3c7" stroke="#d97706" stroke-width="1" /><text x="32" y="364" font-family="monospace" font-size="13" font-weight="600" fill="#78350f">group backend</text><rect class="nwdiag-group-member" x="56" y="374" width="680" height="20" rx="3" ry="3" fill="#fff7ed" stroke="#f59e0b" stroke-width="1"/><text x="66" y="388" font-family="monospace" font-size="12" fill="#0f172a">app01</text><rect class="nwdiag-group-member" x="56" y="398" width="680" height="20" rx="3" ry="3" fill="#fff7ed" stroke="#f59e0b" stroke-width="1"/><text x="66" y="412" font-family="monospace" font-size="12" fill="#0f172a">app02</text></svg>