<svg xmlns="http://www.w3.org/2000/svg" width="760" height="280" viewBox="0 0 760 280"><rect width="100%" height="100%" fill="white"/><rect class="nwdiag-group" data-nwdiag-style="dotted" data-nwdiag-shape="box" x="168" y="52" width="280" height="66" rx="6" ry="6" fill="#fef3c7" fill-opacity="0.35" stroke="#d97706" stroke-width="1.5" stroke-dasharray="1 3" /><rect class="nwdiag-network" data-nwdiag-style="solid" data-nwdiag-shape="swimlane" x="152" y="28" width="312" height="22" fill="#e0f2fe" stroke="#0284c7" stroke-width="1" /><text x="160" y="43" font-family="monospace" font-size="13" font-weight="600" fill="#0c4a6e">dmz (203.0.113.0/24)</text><rect class="nwdiag-network" data-nwdiag-style="solid" data-nwdiag-shape="swimlane" x="152" y="52" width="312" height="12" rx="6" ry="6" fill="#e0f2fe" stroke="#0284c7" stroke-width="1" /><line class="nwdiag-connector" data-nwdiag-network="dmz" data-nwdiag-node="router" x1="236" y1="64" x2="236" y2="82" stroke="#0284c7" stroke-width="2" /><rect class="nwdiag-node" data-nwdiag-name="router" data-nwdiag-addresses="" data-nwdiag-shape="box" data-nwdiag-style="solid" x="176" y="82" width="120" height="28" rx="3" ry="3" fill="white" stroke="#0284c7" stroke-width="1.5"/><text x="236" y="100" text-anchor="middle" font-family="monospace" font-size="12" fill="#0f172a">router</text><line class="nwdiag-connector" data-nwdiag-network="dmz" data-nwdiag-node="api" x1="380" y1="64" x2="380" y2="82" stroke="#0284c7" stroke-width="2" /><line class="nwdiag-jump-line" data-nwdiag-node="api" x1="380" y1="110" x2="380" y2="170" stroke="#0284c7" stroke-width="2" stroke-dasharray="3 3" /><rect class="nwdiag-node nwdiag-shared-node" data-nwdiag-name="api" data-nwdiag-addresses="" data-nwdiag-shape="box" data-nwdiag-style="solid" x="320" y="82" width="120" height="88" rx="3" ry="3" fill="white" stroke="#0284c7" stroke-width="1.5"/><text x="380" y="100" text-anchor="middle" font-family="monospace" font-size="12" fill="#0f172a">api</text><rect class="nwdiag-network" data-nwdiag-style="solid" data-nwdiag-shape="swimlane" x="296" y="134" width="312" height="22" fill="#e0f2fe" stroke="#0284c7" stroke-width="1" /><text x="304" y="149" font-family="monospace" font-size="13" font-weight="600" fill="#0c4a6e">app (10.0.0.0/24)</text><rect class="nwdiag-network" data-nwdiag-style="solid" data-nwdiag-shape="swimlane" x="296" y="158" width="312" height="12" rx="6" ry="6" fill="#e0f2fe" stroke="#0284c7" stroke-width="1" /><line class="nwdiag-connector" data-nwdiag-network="app" data-nwdiag-node="api" x1="380" y1="170" x2="380" y2="170" stroke="#0284c7" stroke-width="2" /><line class="nwdiag-connector" data-nwdiag-network="app" data-nwdiag-node="db" x1="524" y1="170" x2="524" y2="188" stroke="#0284c7" stroke-width="2" /><rect class="nwdiag-node" data-nwdiag-name="db" data-nwdiag-addresses="" data-nwdiag-shape="box" data-nwdiag-style="solid" x="464" y="188" width="120" height="28" rx="3" ry="3" fill="white" stroke="#0284c7" stroke-width="1.5"/><text x="524" y="206" text-anchor="middle" font-family="monospace" font-size="12" fill="#0f172a">db</text><path class="nwdiag-peer-link" data-nwdiag-peer-a="router" data-nwdiag-peer-b="api" data-nwdiag-network="dmz" d="M 236 110 L 236 128 L 380 128 L 380 110" fill="none" stroke="#475569" stroke-width="2" stroke-dasharray="4 2" /><text x="278" y="70" font-family="monospace" font-size="10" font-weight="600" fill="#92400e">group edge</text></svg>