<svg xmlns="http://www.w3.org/2000/svg" width="520" height="196" viewBox="0 0 520 196"><rect width="100%" height="100%" fill="white"/><rect class="nwdiag-group" data-nwdiag-style="dotted" data-nwdiag-shape="box" x="116" y="40" width="192" height="60" rx="6" ry="6" fill="#fef3c7" fill-opacity="0.35" stroke="#d97706" stroke-width="1.5" stroke-dasharray="1 3" /><rect class="nwdiag-network" data-nwdiag-style="solid" data-nwdiag-shape="swimlane" x="100" y="28" width="224" height="22" fill="#e0f2fe" stroke="#0284c7" stroke-width="1" /><text x="108" y="43" font-family="monospace" font-size="13" font-weight="600" fill="#0c4a6e">dmz (203.0.113.0/24)</text><rect class="nwdiag-network" data-nwdiag-style="solid" data-nwdiag-shape="swimlane" x="100" y="52" width="224" height="12" rx="6" ry="6" fill="#e0f2fe" stroke="#0284c7" stroke-width="1" /><line class="nwdiag-connector" data-nwdiag-network="dmz" data-nwdiag-node="router" x1="164" y1="64" x2="164" y2="70" stroke="#0284c7" stroke-width="2" /><rect class="nwdiag-node" data-nwdiag-name="router" data-nwdiag-addresses="" data-nwdiag-shape="box" data-nwdiag-style="solid" x="124" y="70" width="80" height="22" rx="3" ry="3" fill="white" stroke="#0284c7" stroke-width="1.5"/><text x="164" y="88" text-anchor="middle" font-family="monospace" font-size="12" fill="#0f172a">router</text><line class="nwdiag-connector" data-nwdiag-network="dmz" data-nwdiag-node="api" x1="260" y1="64" x2="260" y2="70" stroke="#0284c7" stroke-width="2" /><line class="nwdiag-jump-line" data-nwdiag-node="api" x1="260" y1="92" x2="260" y2="146" stroke="#0284c7" stroke-width="2" stroke-dasharray="3 3" /><rect class="nwdiag-node nwdiag-shared-node" data-nwdiag-name="api" data-nwdiag-addresses="" data-nwdiag-shape="box" data-nwdiag-style="solid" x="220" y="70" width="80" height="76" rx="3" ry="3" fill="white" stroke="#0284c7" stroke-width="1.5"/><text x="260" y="88" text-anchor="middle" font-family="monospace" font-size="12" fill="#0f172a">api</text><rect class="nwdiag-network" data-nwdiag-style="solid" data-nwdiag-shape="swimlane" x="196" y="110" width="224" height="22" fill="#e0f2fe" stroke="#0284c7" stroke-width="1" /><text x="204" y="125" font-family="monospace" font-size="13" font-weight="600" fill="#0c4a6e">app (10.0.0.0/24)</text><rect class="nwdiag-network" data-nwdiag-style="solid" data-nwdiag-shape="swimlane" x="196" y="134" width="224" height="12" rx="6" ry="6" fill="#e0f2fe" stroke="#0284c7" stroke-width="1" /><line class="nwdiag-connector" data-nwdiag-network="app" data-nwdiag-node="api" x1="260" y1="146" x2="260" y2="146" stroke="#0284c7" stroke-width="2" /><line class="nwdiag-connector" data-nwdiag-network="app" data-nwdiag-node="db" x1="356" y1="146" x2="356" y2="152" stroke="#0284c7" stroke-width="2" /><rect class="nwdiag-node" data-nwdiag-name="db" data-nwdiag-addresses="" data-nwdiag-shape="box" data-nwdiag-style="solid" x="316" y="152" width="80" height="22" rx="3" ry="3" fill="white" stroke="#0284c7" stroke-width="1.5"/><text x="356" y="170" text-anchor="middle" font-family="monospace" font-size="12" fill="#0f172a">db</text><path class="nwdiag-peer-link" data-nwdiag-peer-a="router" data-nwdiag-peer-b="api" data-nwdiag-network="dmz" d="M 164 92 L 164 110 L 260 110 L 260 92" fill="none" stroke="#475569" stroke-width="2" stroke-dasharray="4 2" /><text x="182" y="58" font-family="monospace" font-size="10" font-weight="600" fill="#92400e">group edge</text></svg>