<svg xmlns="http://www.w3.org/2000/svg" width="520" height="276" viewBox="0 0 520 276"><rect width="100%" height="100%" fill="white"/><rect class="nwdiag-group" data-nwdiag-style="solid" data-nwdiag-shape="box" x="56" y="40" width="259" height="170" rx="6" ry="6" fill="#fef3c7" fill-opacity="0.35" stroke="#d97706" stroke-width="1.5" /><rect class="nwdiag-network" data-nwdiag-style="solid" data-nwdiag-shape="swimlane" x="24" y="28" width="196" height="22" fill="#e0f2fe" stroke="#0284c7" stroke-width="1" /><text x="32" y="43" font-family="monospace" font-size="13" font-weight="600" fill="#0c4a6e">public (203.0.113.0/24)</text><rect class="nwdiag-network" data-nwdiag-style="solid" data-nwdiag-shape="swimlane" x="24" y="52" width="196" height="12" rx="6" ry="6" fill="#e0f2fe" stroke="#0284c7" stroke-width="1" /><line class="nwdiag-connector" data-nwdiag-network="public" data-nwdiag-node="api" x1="115" y1="64" x2="115" y2="70" stroke="#0284c7" stroke-width="2" /><text class="nwdiag-address" x="109" y="62" text-anchor="end" font-family="monospace" font-size="11" fill="#334155">203.0.113.10</text><rect class="nwdiag-node" data-nwdiag-name="api" data-nwdiag-addresses="203.0.113.10" data-nwdiag-shape="roundedbox" data-nwdiag-style="solid" x="64" y="70" width="103" height="36" rx="10" ry="10" fill="#ffffff" stroke="#0284c7" stroke-width="1.5"/><g data-creole-sprites="true"><g class="puml-sprite puml-sprite-svg" data-sprite="globe" transform="translate(74.00,83.00) scale(1.000)" fill="#0f172a"><svg xmlns="http://www.w3.org/2000/svg" width="8" height="8" viewBox="0 0 8 8"><path d="M4 0c-2.21 0-4 1.79-4 4s1.79 4 4 4 4-1.79 4-4-1.79-4-4-4zm0 1c.33 0 .64.09.94.19-.21.2-.45.38-.41.56.04.18.69.13.69.5 0 .27-.42.35-.13.66.35.35-.64.98-.66 1.44-.03.83.84.97 1.53.97.42 0 .53.2.5.44-.54.77-1.46 1.25-2.47 1.25-.38 0-.73-.09-1.06-.22.22-.44-.28-1.31-.75-1.59-.23-.23-.72-.14-1-.25-.09-.27-.18-.54-.19-.84.03-.05.08-.09.16-.09.19 0 .45.38.59.34.18-.04-.74-1.31-.31-1.56.2-.12.6.39.47-.16-.12-.51.36-.28.66-.41.26-.11.45-.41.13-.59-.06-.03-.13-.1-.22-.19.45-.27.97-.44 1.53-.44zm2.31 1.09c.18.22.32.46.44.72 0 .01 0 .02 0 .03-.04.07-.11.11-.22.22-.28.28-.32-.21-.44-.31-.13-.12-.6.02-.66-.13-.07-.18.5-.42.88-.53z"/></svg></g><text x="85.00" y="88" font-family="monospace" font-size="12" fill="#0f172a"> API</text><text x="74.00" y="104" font-family="monospace" font-size="12" fill="#0f172a">edge gateway</text></g><rect class="nwdiag-network" data-nwdiag-style="solid" data-nwdiag-shape="swimlane" x="159" y="124" width="172" height="22" fill="#e0f2fe" stroke="#0284c7" stroke-width="1" /><text x="167" y="139" font-family="monospace" font-size="13" font-weight="600" fill="#0c4a6e">data</text><rect class="nwdiag-network" data-nwdiag-style="solid" data-nwdiag-shape="swimlane" x="159" y="148" width="172" height="12" rx="6" ry="6" fill="#e0f2fe" stroke="#0284c7" stroke-width="1" /><line class="nwdiag-connector" data-nwdiag-network="data" data-nwdiag-node="db" x1="245" y1="160" x2="245" y2="166" stroke="#0284c7" stroke-width="2" /><text class="nwdiag-address" x="239" y="158" text-anchor="end" font-family="monospace" font-size="11" fill="#334155">10.0.0.20</text><rect class="nwdiag-node" data-nwdiag-name="db" data-nwdiag-addresses="10.0.0.20" data-nwdiag-shape="database" data-nwdiag-style="solid" x="183" y="166" width="124" height="36" rx="3" ry="3" fill="#f8fafc" stroke="#0284c7" stroke-width="1.5"/><g data-creole-sprites="true"><g class="puml-sprite puml-sprite-svg" data-sprite="hard-drive" transform="translate(193.00,179.00) scale(1.000)" fill="#0f172a"><svg xmlns="http://www.w3.org/2000/svg" width="8" height="8" viewBox="0 0 8 8"><path d="M.19 0c-.11 0-.19.08-.19.19v3.31c0 .28.22.5.5.5h6c.28 0 .5-.22.5-.5v-3.31c0-.11-.08-.19-.19-.19h-6.63zm-.19 4.91v2.91c0 .11.08.19.19.19h6.63c.11 0 .19-.08.19-.19v-2.91c-.16.06-.32.09-.5.09h-6c-.18 0-.34-.04-.5-.09zm5.5 1.09c.28 0 .5.22.5.5s-.22.5-.5.5-.5-.22-.5-.5.22-.5.5-.5z"/></svg></g><text x="204.00" y="184" font-family="monospace" font-size="12" fill="#0f172a"> DB</text><text x="193.00" y="200" font-family="monospace" font-size="12" fill="#0f172a">primary</text></g><rect class="nwdiag-node nwdiag-toplevel" data-nwdiag-name="internet" data-nwdiag-addresses="" data-nwdiag-shape="cloud" data-nwdiag-style="solid" x="323" y="228" width="132" height="22" rx="10" ry="10" fill="#f1f5f9" stroke="#475569" stroke-width="1.5"/><g data-creole-sprites="true"><g class="puml-sprite puml-sprite-svg" data-sprite="cloud" transform="translate(333.00,241.00) scale(1.000)" fill="#0f172a"><svg xmlns="http://www.w3.org/2000/svg" width="8" height="8" viewBox="0 0 8 8"><path d="M4.5 0c-1.21 0-2.27.86-2.5 2-1.1 0-2 .9-2 2s.9 2 2 2h4.5c.83 0 1.5-.67 1.5-1.5 0-.65-.42-1.29-1-1.5v-.5c0-1.38-1.12-2.5-2.5-2.5z" transform="translate(0 1)"/></svg></g><text x="344.00" y="246" font-family="monospace" font-size="12" fill="#0f172a"> Internet</text></g><path class="nwdiag-peer-link" data-nwdiag-peer-a="internet" data-nwdiag-peer-b="api" d="M 389 250 L 389 268 L 115 268 L 115 106" fill="none" stroke="#475569" stroke-width="2" stroke-dasharray="4 2" /><text x="138" y="58" font-family="monospace" font-size="10" font-weight="600" fill="#92400e">group services</text></svg>