<svg xmlns="http://www.w3.org/2000/svg" width="820" height="260" viewBox="0 0 820 260"><rect width="100%" height="100%" fill="white"/><text x="24" y="32" font-family="monospace" font-size="12" fill="#475569">EBNF railroad diagrams</text><text x="24" y="50" font-family="monospace" font-size="13" font-weight="600" fill="#0f172a">&#39; EBNF diagrams not yet supported by this parser
grammar ::=</text><line x1="24" y1="80" x2="796" y2="80" stroke="#94a3b8" stroke-width="1"/><circle cx="40" cy="80" r="5" fill="#1e293b"/><rect x="60" y="69" width="48" height="22" rx="4" ry="4" fill="#e0e7ff" stroke="#4f46e5" stroke-width="1"/><text x="66" y="84" font-family="monospace" font-size="11" fill="#1e293b">{rule}</text><circle cx="784" cy="80" r="5" fill="#1e293b"/><text x="24" y="140" font-family="monospace" font-size="13" font-weight="600" fill="#0f172a">rule ::=</text><line x1="24" y1="170" x2="796" y2="170" stroke="#94a3b8" stroke-width="1"/><circle cx="40" cy="170" r="5" fill="#1e293b"/><rect x="60" y="159" width="80" height="22" rx="4" ry="4" fill="#e0e7ff" stroke="#4f46e5" stroke-width="1"/><text x="66" y="174" font-family="monospace" font-size="11" fill="#1e293b">identifier</text><rect x="148" y="159" width="36" height="22" rx="4" ry="4" fill="#e0e7ff" stroke="#4f46e5" stroke-width="1"/><text x="154" y="174" font-family="monospace" font-size="11" fill="#1e293b">?,?</text><rect x="192" y="159" width="36" height="22" rx="4" ry="4" fill="#fef3c7" stroke="#d97706" stroke-width="1"/><text x="198" y="174" font-family="monospace" font-size="11" fill="#1e293b">&quot;=&quot;</text><rect x="236" y="159" width="36" height="22" rx="4" ry="4" fill="#e0e7ff" stroke="#4f46e5" stroke-width="1"/><text x="242" y="174" font-family="monospace" font-size="11" fill="#1e293b">?,?</text><rect x="280" y="159" width="80" height="22" rx="4" ry="4" fill="#e0e7ff" stroke="#4f46e5" stroke-width="1"/><text x="286" y="174" font-family="monospace" font-size="11" fill="#1e293b">expression</text><rect x="368" y="159" width="36" height="22" rx="4" ry="4" fill="#e0e7ff" stroke="#4f46e5" stroke-width="1"/><text x="374" y="174" font-family="monospace" font-size="11" fill="#1e293b">?,?</text><rect x="412" y="159" width="36" height="22" rx="4" ry="4" fill="#fef3c7" stroke="#d97706" stroke-width="1"/><text x="418" y="174" font-family="monospace" font-size="11" fill="#1e293b">&quot;&quot;</text><circle cx="784" cy="170" r="5" fill="#1e293b"/></svg>