<svg xmlns="http://www.w3.org/2000/svg" width="820" height="350" viewBox="0 0 820 350"><rect width="100%" height="100%" fill="white"/><text x="24" y="32" font-family="monospace" font-size="12" fill="#475569">EBNF railroad diagrams</text><text x="24" y="50" font-family="monospace" font-size="13" font-weight="600" fill="#0f172a">&#39; EBNF optional/repetition (not yet supported)
expression ::=</text><line x1="24" y1="80" x2="796" y2="80" stroke="#94a3b8" stroke-width="1"/><circle cx="40" cy="80" r="5" fill="#1e293b"/><rect x="60" y="69" width="36" height="22" rx="4" ry="4" fill="#e0e7ff" stroke="#4f46e5" stroke-width="1"/><text x="66" y="84" font-family="monospace" font-size="11" fill="#1e293b">term</text><rect x="104" y="69" width="160" height="22" rx="4" ry="4" fill="#e0e7ff" stroke="#4f46e5" stroke-width="1"/><text x="110" y="84" font-family="monospace" font-size="11" fill="#1e293b">{((&quot;+&quot; | &quot;-&quot;)) term}</text><circle cx="784" cy="80" r="5" fill="#1e293b"/><text x="24" y="140" font-family="monospace" font-size="13" font-weight="600" fill="#0f172a">term ::=</text><line x1="24" y1="170" x2="796" y2="170" stroke="#94a3b8" stroke-width="1"/><circle cx="40" cy="170" r="5" fill="#1e293b"/><rect x="60" y="159" width="48" height="22" rx="4" ry="4" fill="#e0e7ff" stroke="#4f46e5" stroke-width="1"/><text x="66" y="174" font-family="monospace" font-size="11" fill="#1e293b">factor</text><rect x="116" y="159" width="176" height="22" rx="4" ry="4" fill="#e0e7ff" stroke="#4f46e5" stroke-width="1"/><text x="122" y="174" font-family="monospace" font-size="11" fill="#1e293b">{((&quot;*&quot; | &quot;/&quot;)) factor}</text><circle cx="784" cy="170" r="5" fill="#1e293b"/><text x="24" y="230" font-family="monospace" font-size="13" font-weight="600" fill="#0f172a">factor ::=</text><line x1="24" y1="260" x2="796" y2="260" stroke="#94a3b8" stroke-width="1"/><circle cx="40" cy="260" r="5" fill="#1e293b"/><rect x="60" y="249" width="232" height="22" rx="4" ry="4" fill="#e0e7ff" stroke="#4f46e5" stroke-width="1"/><text x="66" y="264" font-family="monospace" font-size="11" fill="#1e293b">(number | &quot;(&quot; expression &quot;)&quot;)</text><circle cx="784" cy="260" r="5" fill="#1e293b"/></svg>