<svg xmlns="http://www.w3.org/2000/svg" width="384" height="514" viewBox="0 0 384 514"><rect width="100%" height="100%" fill="white"/><g data-ebnf-style="customizable"><text x="20" y="34" font-family="monospace" font-size="13" font-weight="600" fill="#555">expression :=</text><circle cx="20" cy="64" r="5" fill="#333"/><line x1="20" y1="64" x2="40" y2="64" stroke="#666" stroke-width="1.5"/><g transform="translate(40,50)"><g transform="translate(0,0)"><rect x="0" y="0" width="56" height="28" rx="4" ry="4" fill="#e8f5e9" stroke="#388e3c" stroke-width="1.5"/>
<text x="28" y="14" font-family="monospace" font-size="12" text-anchor="middle" dominant-baseline="middle" fill="#1b5e20">term</text></g><line x1="56" y1="14" x2="76" y2="14" stroke="#666" stroke-width="1.5"/><g transform="translate(76,0)"><metadata class="regex-token regex-repeat"/><metadata class="ebnf-token ebnf-repetition"/><g transform="translate(20,0)"><g transform="translate(0,0)"><metadata class="regex-token regex-alt"/><metadata class="ebnf-token ebnf-alt"/><line x1="20" y1="14" x2="20" y2="14" stroke="#666" stroke-width="1.5"/><g transform="translate(20,0)"><rect x="0" y="0" width="40" height="28" rx="14" ry="14" fill="#fff8e1" stroke="#f9a825" stroke-width="1.5"/>
<text x="20" y="14" font-family="monospace" font-size="12" text-anchor="middle" dominant-baseline="middle" fill="#333">+</text></g><line x1="60" y1="14" x2="60" y2="14" stroke="#666" stroke-width="1.5"/><line x1="20" y1="66" x2="20" y2="66" stroke="#666" stroke-width="1.5"/><g transform="translate(20,52)"><rect x="0" y="0" width="40" height="28" rx="14" ry="14" fill="#fff8e1" stroke="#f9a825" stroke-width="1.5"/>
<text x="20" y="14" font-family="monospace" font-size="12" text-anchor="middle" dominant-baseline="middle" fill="#333">-</text></g><line x1="60" y1="66" x2="60" y2="66" stroke="#666" stroke-width="1.5"/><line x1="20" y1="14" x2="20" y2="66" stroke="#666" stroke-width="1.5"/><line x1="60" y1="14" x2="60" y2="66" stroke="#666" stroke-width="1.5"/></g><line x1="80" y1="14" x2="100" y2="14" stroke="#666" stroke-width="1.5"/><g transform="translate(100,0)"><rect x="0" y="0" width="56" height="28" rx="4" ry="4" fill="#e8f5e9" stroke="#388e3c" stroke-width="1.5"/>
<text x="28" y="14" font-family="monospace" font-size="12" text-anchor="middle" dominant-baseline="middle" fill="#1b5e20">term</text></g></g><line x1="0" y1="14" x2="20" y2="14" stroke="#666" stroke-width="1.5"/><line x1="176" y1="14" x2="196" y2="14" stroke="#666" stroke-width="1.5"/><path d="M 176 14 Q 176 96 20 96" stroke="#999" stroke-width="1" fill="none" stroke-dasharray="4 2"/><path d="M 20 96 Q 20 14 20 14" stroke="#999" stroke-width="1" fill="none" stroke-dasharray="4 2"/><polygon points="20,14 26,10 26,18" fill="#999"/><text x="98" y="94" font-family="monospace" font-size="10" fill="#888" text-anchor="middle">*</text></g></g><line x1="312" y1="64" x2="332" y2="64" stroke="#666" stroke-width="1.5"/><circle cx="332" cy="64" r="6" fill="none" stroke="#333" stroke-width="2"/><circle cx="332" cy="64" r="3" fill="#333"/><text x="20" y="192" font-family="monospace" font-size="13" font-weight="600" fill="#555">term :=</text><circle cx="20" cy="222" r="5" fill="#333"/><line x1="20" y1="222" x2="40" y2="222" stroke="#666" stroke-width="1.5"/><g transform="translate(40,208)"><g transform="translate(0,0)"><rect x="0" y="0" width="72" height="28" rx="4" ry="4" fill="#e8f5e9" stroke="#388e3c" stroke-width="1.5"/>
<text x="36" y="14" font-family="monospace" font-size="12" text-anchor="middle" dominant-baseline="middle" fill="#1b5e20">factor</text></g><line x1="72" y1="14" x2="92" y2="14" stroke="#666" stroke-width="1.5"/><g transform="translate(92,0)"><metadata class="regex-token regex-repeat"/><metadata class="ebnf-token ebnf-repetition"/><g transform="translate(20,0)"><g transform="translate(0,0)"><metadata class="regex-token regex-alt"/><metadata class="ebnf-token ebnf-alt"/><line x1="20" y1="14" x2="20" y2="14" stroke="#666" stroke-width="1.5"/><g transform="translate(20,0)"><rect x="0" y="0" width="40" height="28" rx="14" ry="14" fill="#fff8e1" stroke="#f9a825" stroke-width="1.5"/>
<text x="20" y="14" font-family="monospace" font-size="12" text-anchor="middle" dominant-baseline="middle" fill="#333">*</text></g><line x1="60" y1="14" x2="60" y2="14" stroke="#666" stroke-width="1.5"/><line x1="20" y1="66" x2="20" y2="66" stroke="#666" stroke-width="1.5"/><g transform="translate(20,52)"><rect x="0" y="0" width="40" height="28" rx="14" ry="14" fill="#fff8e1" stroke="#f9a825" stroke-width="1.5"/>
<text x="20" y="14" font-family="monospace" font-size="12" text-anchor="middle" dominant-baseline="middle" fill="#333">/</text></g><line x1="60" y1="66" x2="60" y2="66" stroke="#666" stroke-width="1.5"/><line x1="20" y1="14" x2="20" y2="66" stroke="#666" stroke-width="1.5"/><line x1="60" y1="14" x2="60" y2="66" stroke="#666" stroke-width="1.5"/></g><line x1="80" y1="14" x2="100" y2="14" stroke="#666" stroke-width="1.5"/><g transform="translate(100,0)"><rect x="0" y="0" width="72" height="28" rx="4" ry="4" fill="#e8f5e9" stroke="#388e3c" stroke-width="1.5"/>
<text x="36" y="14" font-family="monospace" font-size="12" text-anchor="middle" dominant-baseline="middle" fill="#1b5e20">factor</text></g></g><line x1="0" y1="14" x2="20" y2="14" stroke="#666" stroke-width="1.5"/><line x1="192" y1="14" x2="212" y2="14" stroke="#666" stroke-width="1.5"/><path d="M 192 14 Q 192 96 20 96" stroke="#999" stroke-width="1" fill="none" stroke-dasharray="4 2"/><path d="M 20 96 Q 20 14 20 14" stroke="#999" stroke-width="1" fill="none" stroke-dasharray="4 2"/><polygon points="20,14 26,10 26,18" fill="#999"/><text x="106" y="94" font-family="monospace" font-size="10" fill="#888" text-anchor="middle">*</text></g></g><line x1="344" y1="222" x2="364" y2="222" stroke="#666" stroke-width="1.5"/><circle cx="364" cy="222" r="6" fill="none" stroke="#333" stroke-width="2"/><circle cx="364" cy="222" r="3" fill="#333"/><text x="20" y="350" font-family="monospace" font-size="13" font-weight="600" fill="#555">factor :=</text><circle cx="20" cy="380" r="5" fill="#333"/><line x1="20" y1="380" x2="40" y2="380" stroke="#666" stroke-width="1.5"/><g transform="translate(40,366)"><metadata class="regex-token regex-alt"/><metadata class="ebnf-token ebnf-alt"/><line x1="20" y1="14" x2="96" y2="14" stroke="#666" stroke-width="1.5"/><g transform="translate(96,0)"><rect x="0" y="0" width="72" height="28" rx="4" ry="4" fill="#e8f5e9" stroke="#388e3c" stroke-width="1.5"/>
<text x="36" y="14" font-family="monospace" font-size="12" text-anchor="middle" dominant-baseline="middle" fill="#1b5e20">number</text></g><line x1="168" y1="14" x2="244" y2="14" stroke="#666" stroke-width="1.5"/><line x1="20" y1="66" x2="20" y2="66" stroke="#666" stroke-width="1.5"/><g transform="translate(20,52)"><g transform="translate(0,0)"><rect x="0" y="0" width="40" height="28" rx="14" ry="14" fill="#fff8e1" stroke="#f9a825" stroke-width="1.5"/>
<text x="20" y="14" font-family="monospace" font-size="12" text-anchor="middle" dominant-baseline="middle" fill="#333">(</text></g><line x1="40" y1="14" x2="60" y2="14" stroke="#666" stroke-width="1.5"/><g transform="translate(60,0)"><rect x="0" y="0" width="104" height="28" rx="4" ry="4" fill="#e8f5e9" stroke="#388e3c" stroke-width="1.5"/>
<text x="52" y="14" font-family="monospace" font-size="12" text-anchor="middle" dominant-baseline="middle" fill="#1b5e20">expression</text></g><line x1="164" y1="14" x2="184" y2="14" stroke="#666" stroke-width="1.5"/><g transform="translate(184,0)"><rect x="0" y="0" width="40" height="28" rx="14" ry="14" fill="#fff8e1" stroke="#f9a825" stroke-width="1.5"/>
<text x="20" y="14" font-family="monospace" font-size="12" text-anchor="middle" dominant-baseline="middle" fill="#333">)</text></g></g><line x1="244" y1="66" x2="244" y2="66" stroke="#666" stroke-width="1.5"/><line x1="20" y1="14" x2="20" y2="66" stroke="#666" stroke-width="1.5"/><line x1="244" y1="14" x2="244" y2="66" stroke="#666" stroke-width="1.5"/></g><line x1="304" y1="380" x2="324" y2="380" stroke="#666" stroke-width="1.5"/><circle cx="324" cy="380" r="6" fill="none" stroke="#333" stroke-width="2"/><circle cx="324" cy="380" r="3" fill="#333"/></g></svg>