<svg xmlns="http://www.w3.org/2000/svg" width="232" height="438" viewBox="0 0 232 438"><rect width="100%" height="100%" fill="white"/><g data-ebnf-style="customizable"><text x="20" y="34" font-family="monospace" font-size="13" font-weight="600" fill="#555">program :=</text><circle cx="20" cy="64" r="5" fill="#333"/><line x1="20" y1="64" x2="40" y2="64" stroke="#666" stroke-width="1.5"/><g transform="translate(40,50)"><metadata class="regex-token regex-repeat"/><metadata class="ebnf-token ebnf-repetition"/><g transform="translate(20,0)"><rect x="0" y="0" width="96" height="28" rx="4" ry="4" fill="#e8f5e9" stroke="#388e3c" stroke-width="1.5"/>
<text x="48" y="14" font-family="monospace" font-size="12" text-anchor="middle" dominant-baseline="middle" fill="#1b5e20">statement</text></g><line x1="0" y1="14" x2="20" y2="14" stroke="#666" stroke-width="1.5"/><line x1="116" y1="14" x2="136" y2="14" stroke="#666" stroke-width="1.5"/><path d="M 116 14 Q 116 44 20 44" stroke="#999" stroke-width="1" fill="none" stroke-dasharray="4 2"/><path d="M 20 44 Q 20 14 20 14" stroke="#999" stroke-width="1" fill="none" stroke-dasharray="4 2"/><polygon points="20,14 26,10 26,18" fill="#999"/><text x="68" y="42" font-family="monospace" font-size="10" fill="#888" text-anchor="middle">*</text></g><line x1="176" y1="64" x2="196" y2="64" stroke="#666" stroke-width="1.5"/><circle cx="196" cy="64" r="6" fill="none" stroke="#333" stroke-width="2"/><circle cx="196" cy="64" r="3" fill="#333"/><text x="20" y="140" font-family="monospace" font-size="13" font-weight="600" fill="#555">statement :=</text><circle cx="20" cy="170" r="5" fill="#333"/><line x1="20" y1="170" x2="40" y2="170" stroke="#666" stroke-width="1.5"/><g transform="translate(40,156)"><metadata class="regex-token regex-alt"/><metadata class="ebnf-token ebnf-alt"/><line x1="20" y1="14" x2="24" y2="14" stroke="#666" stroke-width="1.5"/><g transform="translate(24,0)"><rect x="0" y="0" width="104" height="28" rx="4" ry="4" fill="#e8f5e9" stroke="#388e3c" stroke-width="1.5"/>
<text x="52" y="14" font-family="monospace" font-size="12" text-anchor="middle" dominant-baseline="middle" fill="#1b5e20">assignment</text></g><line x1="128" y1="14" x2="132" y2="14" stroke="#666" stroke-width="1.5"/><line x1="20" y1="66" x2="20" y2="66" stroke="#666" stroke-width="1.5"/><g transform="translate(20,52)"><rect x="0" y="0" width="112" height="28" rx="4" ry="4" fill="#e8f5e9" stroke="#388e3c" stroke-width="1.5"/>
<text x="56" y="14" font-family="monospace" font-size="12" text-anchor="middle" dominant-baseline="middle" fill="#1b5e20">conditional</text></g><line x1="132" y1="66" x2="132" y2="66" stroke="#666" stroke-width="1.5"/><line x1="20" y1="118" x2="48" y2="118" stroke="#666" stroke-width="1.5"/><g transform="translate(48,104)"><rect x="0" y="0" width="56" height="28" rx="4" ry="4" fill="#e8f5e9" stroke="#388e3c" stroke-width="1.5"/>
<text x="28" y="14" font-family="monospace" font-size="12" text-anchor="middle" dominant-baseline="middle" fill="#1b5e20">loop</text></g><line x1="104" y1="118" x2="132" y2="118" stroke="#666" stroke-width="1.5"/><line x1="20" y1="14" x2="20" y2="118" stroke="#666" stroke-width="1.5"/><line x1="132" y1="14" x2="132" y2="118" stroke="#666" stroke-width="1.5"/></g><line x1="192" y1="170" x2="212" y2="170" stroke="#666" stroke-width="1.5"/><circle cx="212" cy="170" r="6" fill="none" stroke="#333" stroke-width="2"/><circle cx="212" cy="170" r="3" fill="#333"/><text x="20" y="326" font-family="monospace" font-size="13" font-weight="600" fill="#555">assignment :=</text><circle cx="20" cy="356" r="5" fill="#333"/><line x1="20" y1="356" x2="40" y2="356" stroke="#666" stroke-width="1.5"/><g transform="translate(40,342)"><rect x="0" y="0" width="104" height="28" rx="4" ry="4" fill="#e8f5e9" stroke="#388e3c" stroke-width="1.5"/>
<text x="52" y="14" font-family="monospace" font-size="12" text-anchor="middle" dominant-baseline="middle" fill="#1b5e20">identifier</text></g><line x1="144" y1="356" x2="164" y2="356" stroke="#666" stroke-width="1.5"/><circle cx="164" cy="356" r="6" fill="none" stroke="#333" stroke-width="2"/><circle cx="164" cy="356" r="3" fill="#333"/></g></svg>
