<svg xmlns="http://www.w3.org/2000/svg" width="408" height="332" viewBox="0 0 408 332"><rect width="100%" height="100%" fill="#ecfdf5"/><metadata data-activity-kind="Start" data-activity-lane="default" data-activity-branch="0"/><circle cx="196" cy="48" r="12" fill="#0f172a"/><metadata data-activity-kind="IfStart" data-activity-lane="default" data-activity-branch="0"/><polygon points="196,74 296,96 196,118 96,96" fill="#fef9c3" stroke="#047857" stroke-width="1.5"/><text x="196" y="100" text-anchor="middle" font-family="monospace" font-size="11" fill="#0f172a">condition?</text><line x1="196" y1="70" x2="196" y2="72" stroke="#0f172a" stroke-width="1.5"/><polygon points="196,72 192,64 200,64" fill="#0f172a"/><metadata data-activity-kind="Action" data-activity-lane="default" data-activity-branch="0"/><rect x="36" y="120" width="160" height="36" rx="18" ry="18" fill="#ecfdf5" stroke="#047857" stroke-width="1.5"/><text x="116" y="143" text-anchor="middle" font-family="monospace" font-size="12" fill="#0f172a">action A</text><line x1="96" y1="96" x2="96" y2="106" stroke="#0f172a" stroke-width="1.5"/><line x1="96" y1="106" x2="116" y2="106" stroke="#0f172a" stroke-width="1.5"/><line x1="116" y1="106" x2="116" y2="116" stroke="#0f172a" stroke-width="1.5"/><polygon points="116,116 112,108 120,108" fill="#0f172a"/><text x="110" y="102" font-family="monospace" font-size="10" fill="#0f172a">no</text><metadata data-activity-kind="Else" data-activity-lane="default" data-activity-branch="0"/><metadata data-activity-kind="Action" data-activity-lane="default" data-activity-branch="0"/><rect x="196" y="164" width="160" height="36" rx="18" ry="18" fill="#ecfdf5" stroke="#047857" stroke-width="1.5"/><text x="276" y="187" text-anchor="middle" font-family="monospace" font-size="12" fill="#0f172a">action B</text><line x1="196" y1="114" x2="196" y2="137" stroke="#0f172a" stroke-width="1.5"/><line x1="196" y1="137" x2="276" y2="137" stroke="#0f172a" stroke-width="1.5"/><line x1="276" y1="137" x2="276" y2="160" stroke="#0f172a" stroke-width="1.5"/><polygon points="276,160 272,152 280,152" fill="#0f172a"/><text x="240" y="133" font-family="monospace" font-size="10" fill="#0f172a">yes</text><metadata data-activity-kind="EndIf" data-activity-lane="default" data-activity-branch="0"/><metadata data-activity-kind="Stop" data-activity-lane="default" data-activity-branch="0"/><circle cx="196" cy="268" r="14" fill="white" stroke="#0f172a" stroke-width="1.5"/><circle cx="196" cy="268" r="7" fill="#0f172a"/><line x1="116" y1="158" x2="116" y2="203" stroke="#0f172a" stroke-width="1.5"/><line x1="116" y1="203" x2="196" y2="203" stroke="#0f172a" stroke-width="1.5"/><line x1="196" y1="203" x2="196" y2="248" stroke="#0f172a" stroke-width="1.5"/><polygon points="196,248 192,240 200,240" fill="#0f172a"/><line x1="276" y1="202" x2="276" y2="225" stroke="#0f172a" stroke-width="1.5"/><line x1="276" y1="225" x2="196" y2="225" stroke="#0f172a" stroke-width="1.5"/><line x1="196" y1="225" x2="196" y2="248" stroke="#0f172a" stroke-width="1.5"/><polygon points="196,248 192,240 200,240" fill="#0f172a"/></svg>