<svg xmlns="http://www.w3.org/2000/svg" width="800" height="460" viewBox="0 0 800 460"><rect width="100%" height="100%" fill="#ecfdf5"/><text x="32" y="30" font-family="monospace" font-size="12" fill="#0f172a">activity diagram</text><rect x="32" y="40" width="736" height="400" fill="#ecfdf5" stroke="#cbd5e1" stroke-width="1" stroke-dasharray="4 3"/><metadata data-activity-kind="Start" data-activity-lane="default" data-activity-branch="0"/><circle cx="400" cy="60" r="12" fill="#0f172a"/><metadata data-activity-kind="IfStart" data-activity-lane="default" data-activity-branch="0"/><polygon points="400,102 500,124 400,146 300,124" fill="#fef9c3" stroke="#047857" stroke-width="1.5"/><text x="400" y="128" text-anchor="middle" font-family="monospace" font-size="11" fill="#0f172a">condition?</text><text x="504" y="128" text-anchor="start" font-family="monospace" font-size="10" fill="#0f172a">yes</text><line x1="400" y1="82" x2="400" y2="100" stroke="#0f172a" stroke-width="1.5"/><polygon points="400,100 396,92 404,92" fill="#0f172a"/><metadata data-activity-kind="Action" data-activity-lane="default" data-activity-branch="0"/><rect x="130" y="164" width="220" height="36" rx="18" ry="18" fill="#ecfdf5" stroke="#047857" stroke-width="1.5"/><text x="240" y="187" text-anchor="middle" font-family="monospace" font-size="12" fill="#0f172a">action A</text><line x1="400" y1="142" x2="400" y2="151" stroke="#0f172a" stroke-width="1.5"/><line x1="400" y1="151" x2="240" y2="151" stroke="#0f172a" stroke-width="1.5"/><line x1="240" y1="151" x2="240" y2="160" stroke="#0f172a" stroke-width="1.5"/><polygon points="240,160 236,152 244,152" fill="#0f172a"/><metadata data-activity-kind="Else" data-activity-lane="default" data-activity-branch="0"/><metadata data-activity-kind="Action" data-activity-lane="default" data-activity-branch="0"/><rect x="450" y="224" width="220" height="36" rx="18" ry="18" fill="#ecfdf5" stroke="#047857" stroke-width="1.5"/><text x="560" y="247" text-anchor="middle" font-family="monospace" font-size="12" fill="#0f172a">action B</text><line x1="400" y1="142" x2="400" y2="181" stroke="#0f172a" stroke-width="1.5"/><line x1="400" y1="181" x2="560" y2="181" stroke="#0f172a" stroke-width="1.5"/><line x1="560" y1="181" x2="560" y2="220" stroke="#0f172a" stroke-width="1.5"/><polygon points="560,220 556,212 564,212" fill="#0f172a"/><metadata data-activity-kind="EndIf" data-activity-lane="default" data-activity-branch="0"/><metadata data-activity-kind="Stop" data-activity-lane="default" data-activity-branch="0"/><circle cx="400" cy="360" r="14" fill="white" stroke="#0f172a" stroke-width="1.5"/><circle cx="400" cy="360" r="7" fill="#0f172a"/><line x1="240" y1="202" x2="240" y2="271" stroke="#0f172a" stroke-width="1.5"/><line x1="240" y1="271" x2="400" y2="271" stroke="#0f172a" stroke-width="1.5"/><line x1="400" y1="271" x2="400" y2="340" stroke="#0f172a" stroke-width="1.5"/><polygon points="400,340 396,332 404,332" fill="#0f172a"/><line x1="560" y1="262" x2="560" y2="301" stroke="#0f172a" stroke-width="1.5"/><line x1="560" y1="301" x2="400" y2="301" stroke="#0f172a" stroke-width="1.5"/><line x1="400" y1="301" x2="400" y2="340" stroke="#0f172a" stroke-width="1.5"/><polygon points="400,340 396,332 404,332" fill="#0f172a"/></svg>