<svg xmlns="http://www.w3.org/2000/svg" width="408" height="332" viewBox="0 0 408 332"><rect width="100%" height="100%" fill="#ecfdf5"/><metadata data-activity-kind="Start" data-activity-lane="default" data-activity-branch="0"/><circle cx="196" cy="48" r="12" fill="#0f172a"/><metadata data-activity-kind="IfStart" data-activity-lane="default" data-activity-branch="0"/><polygon points="196,74 296,96 196,118 96,96" fill="#fef9c3" stroke="#047857" stroke-width="1.5"/><text x="196" y="100" text-anchor="middle" font-family="monospace" font-size="11" fill="#0f172a">condition?</text><polyline points="196,70 196,72" fill="none" stroke="#0f172a" stroke-width="1.5"/><polygon points="196,72 192,64 200,64" fill="#0f172a"/><metadata data-activity-kind="Action" data-activity-lane="default" data-activity-branch="0"/><rect x="36" y="120" width="160" height="36" rx="18" ry="18" fill="#ecfdf5" stroke="#047857" stroke-width="1.5"/><text x="116" y="143" text-anchor="middle" font-family="monospace" font-size="12" fill="#0f172a">action A</text><polyline points="96,96 96,106 116,106 116,116" fill="none" stroke="#0f172a" stroke-width="1.5"/><polygon points="116,116 112,108 120,108" fill="#0f172a"/><text x="122" y="106" font-family="monospace" font-size="10" fill="#0f172a">yes</text><metadata data-activity-kind="Else" data-activity-lane="default" data-activity-branch="0"/><metadata data-activity-kind="Action" data-activity-lane="default" data-activity-branch="0"/><rect x="196" y="164" width="160" height="36" rx="18" ry="18" fill="#ecfdf5" stroke="#047857" stroke-width="1.5"/><text x="276" y="187" text-anchor="middle" font-family="monospace" font-size="12" fill="#0f172a">action B</text><polyline points="196,114 196,137 276,137 276,160" fill="none" stroke="#0f172a" stroke-width="1.5"/><polygon points="276,160 272,152 280,152" fill="#0f172a"/><text x="282" y="137" font-family="monospace" font-size="10" fill="#0f172a">no</text><metadata data-activity-kind="EndIf" data-activity-lane="default" data-activity-branch="0"/><metadata data-activity-kind="Stop" data-activity-lane="default" data-activity-branch="0"/><circle cx="196" cy="268" r="14" fill="white" stroke="#0f172a" stroke-width="1.5"/><circle cx="196" cy="268" r="7" fill="#0f172a"/><polyline points="116,158 116,203 196,203 196,248" fill="none" stroke="#0f172a" stroke-width="1.5"/><polygon points="196,248 192,240 200,240" fill="#0f172a"/><polyline points="276,202 276,225 196,225 196,248" fill="none" stroke="#0f172a" stroke-width="1.5"/><polygon points="196,248 192,240 200,240" fill="#0f172a"/></svg>