<svg xmlns="http://www.w3.org/2000/svg" width="480" height="520" viewBox="0 0 480 520"><rect width="100%" height="100%" fill="white"/><text x="32" y="30" font-family="monospace" font-size="12" fill="#475569">activity diagram</text><circle cx="240" cy="60" r="12" fill="#0f172a"/><rect x="130" y="124" width="220" height="8" fill="#0f172a"/><line x1="240" y1="82" x2="240" y2="100" stroke="#0f172a" stroke-width="1.5"/><polygon points="240,100 236,94 244,94" fill="#0f172a"/><rect x="130" y="164" width="220" height="36" rx="18" ry="18" fill="#ecfdf5" stroke="#047857" stroke-width="1.5"/><text x="240" y="187" text-anchor="middle" font-family="monospace" font-size="12">branch A</text><line x1="240" y1="142" x2="240" y2="160" stroke="#0f172a" stroke-width="1.5"/><polygon points="240,160 236,154 244,154" fill="#0f172a"/><rect x="130" y="244" width="220" height="8" fill="#0f172a"/><line x1="240" y1="202" x2="240" y2="220" stroke="#0f172a" stroke-width="1.5"/><polygon points="240,220 236,214 244,214" fill="#0f172a"/><rect x="130" y="284" width="220" height="36" rx="18" ry="18" fill="#ecfdf5" stroke="#047857" stroke-width="1.5"/><text x="240" y="307" text-anchor="middle" font-family="monospace" font-size="12">branch B</text><line x1="240" y1="262" x2="240" y2="280" stroke="#0f172a" stroke-width="1.5"/><polygon points="240,280 236,274 244,274" fill="#0f172a"/><rect x="130" y="364" width="220" height="8" fill="#0f172a"/><line x1="240" y1="322" x2="240" y2="340" stroke="#0f172a" stroke-width="1.5"/><polygon points="240,340 236,334 244,334" fill="#0f172a"/><circle cx="240" cy="420" r="14" fill="white" stroke="#0f172a" stroke-width="1.5"/><circle cx="240" cy="420" r="7" fill="#0f172a"/><line x1="240" y1="382" x2="240" y2="400" stroke="#0f172a" stroke-width="1.5"/><polygon points="240,400 236,394 244,394" fill="#0f172a"/></svg>