<svg xmlns="http://www.w3.org/2000/svg" width="408" height="288" viewBox="0 0 408 288"><rect width="100%" height="100%" fill="#ecfdf5"/><metadata data-activity-kind="Start" data-activity-lane="default" data-activity-branch="0"/><circle cx="196" cy="48" r="12" fill="#0f172a"/><metadata data-activity-kind="Fork" data-activity-lane="default" data-activity-branch="0"/><rect x="43" y="96" width="306" height="8" fill="#0f172a"/><polyline points="196,70 196,72" fill="none" stroke="#0f172a" stroke-width="1.5"/><polygon points="196,72 192,64 200,64" fill="#0f172a"/><metadata data-activity-kind="Action" data-activity-lane="default" data-activity-branch="0"/><rect x="24" y="120" width="160" height="36" rx="18" ry="18" fill="#ecfdf5" stroke="#047857" stroke-width="1.5"/><text x="104" y="143" text-anchor="middle" font-family="monospace" font-size="12" fill="#0f172a">branch A</text><metadata data-activity-kind="ForkAgain" data-activity-lane="default" data-activity-branch="1"/><metadata data-activity-kind="Action" data-activity-lane="default" data-activity-branch="1"/><rect x="208" y="120" width="160" height="36" rx="18" ry="18" fill="#ecfdf5" stroke="#047857" stroke-width="1.5"/><text x="288" y="143" text-anchor="middle" font-family="monospace" font-size="12" fill="#0f172a">branch B</text><metadata data-activity-kind="EndFork" data-activity-lane="default" data-activity-branch="0"/><rect x="43" y="184" width="306" height="8" fill="#0f172a"/><metadata data-activity-kind="Stop" data-activity-lane="default" data-activity-branch="0"/><circle cx="196" cy="224" r="14" fill="white" stroke="#0f172a" stroke-width="1.5"/><circle cx="196" cy="224" r="7" fill="#0f172a"/><polyline points="196,202 196,204" fill="none" stroke="#0f172a" stroke-width="1.5"/><polygon points="196,204 192,196 200,196" fill="#0f172a"/><polyline points="104,158 104,184" fill="none" stroke="#0f172a" stroke-width="1.5"/><polygon points="104,184 100,176 108,176" fill="#0f172a"/><polyline points="288,158 288,184" fill="none" stroke="#0f172a" stroke-width="1.5"/><polygon points="288,184 284,176 292,176" fill="#0f172a"/><polyline points="104,104 104,116" fill="none" stroke="#0f172a" stroke-width="1.5"/><polygon points="104,116 100,108 108,108" fill="#0f172a"/><polyline points="288,104 288,116" fill="none" stroke="#0f172a" stroke-width="1.5"/><polygon points="288,116 284,108 292,108" fill="#0f172a"/></svg>