<svg xmlns="http://www.w3.org/2000/svg" width="800" height="400" viewBox="0 0 800 400"><rect width="100%" height="100%" fill="#ecfdf5"/><text x="32" y="30" font-family="monospace" font-size="12" fill="#0f172a">activity diagram</text><rect x="32" y="40" width="736" height="340" fill="#ecfdf5" stroke="#cbd5e1" stroke-width="1" stroke-dasharray="4 3"/><metadata data-activity-kind="Start" data-activity-lane="default" data-activity-branch="0"/><circle cx="400" cy="60" r="12" fill="#0f172a"/><metadata data-activity-kind="Fork" data-activity-lane="default" data-activity-branch="0"/><rect x="32" y="124" width="736" height="8" fill="#0f172a"/><line x1="400" y1="82" x2="400" y2="100" stroke="#0f172a" stroke-width="1.5"/><polygon points="400,100 396,92 404,92" fill="#0f172a"/><metadata data-activity-kind="Action" data-activity-lane="default" data-activity-branch="0"/><rect x="106" y="164" width="220" height="36" rx="18" ry="18" fill="#ecfdf5" stroke="#047857" stroke-width="1.5"/><text x="216" y="187" text-anchor="middle" font-family="monospace" font-size="12" fill="#0f172a">branch A</text><metadata data-activity-kind="ForkAgain" data-activity-lane="default" data-activity-branch="1"/><metadata data-activity-kind="Action" data-activity-lane="default" data-activity-branch="1"/><rect x="474" y="164" width="220" height="36" rx="18" ry="18" fill="#ecfdf5" stroke="#047857" stroke-width="1.5"/><text x="584" y="187" text-anchor="middle" font-family="monospace" font-size="12" fill="#0f172a">branch B</text><metadata data-activity-kind="EndFork" data-activity-lane="default" data-activity-branch="0"/><rect x="32" y="244" width="736" height="8" fill="#0f172a"/><metadata data-activity-kind="Stop" data-activity-lane="default" data-activity-branch="0"/><circle cx="400" cy="300" r="14" fill="white" stroke="#0f172a" stroke-width="1.5"/><circle cx="400" cy="300" r="7" fill="#0f172a"/><line x1="400" y1="262" x2="400" y2="280" stroke="#0f172a" stroke-width="1.5"/><polygon points="400,280 396,272 404,272" fill="#0f172a"/><line x1="216" y1="202" x2="216" y2="244" stroke="#0f172a" stroke-width="1.5"/><polygon points="216,244 212,236 220,236" fill="#0f172a"/><line x1="584" y1="202" x2="584" y2="244" stroke="#0f172a" stroke-width="1.5"/><polygon points="584,244 580,236 588,236" fill="#0f172a"/><line x1="216" y1="132" x2="216" y2="160" stroke="#0f172a" stroke-width="1.5"/><polygon points="216,160 212,152 220,152" fill="#0f172a"/><line x1="584" y1="132" x2="584" y2="160" stroke="#0f172a" stroke-width="1.5"/><polygon points="584,160 580,152 588,152" fill="#0f172a"/></svg>