<svg xmlns="http://www.w3.org/2000/svg" width="480" height="400" viewBox="0 0 480 400"><rect width="100%" height="100%" fill="#ecfdf5"/><metadata data-activity-kind="Start" data-activity-lane="default" data-activity-branch="0"/><circle cx="240" cy="60" r="12" fill="#0f172a"/><metadata data-activity-kind="WhileStart" data-activity-lane="default" data-activity-branch="0"/><polygon points="240,102 340,124 240,146 140,124" fill="#fef9c3" stroke="#047857" stroke-width="1.5"/><text x="240" y="128" text-anchor="middle" font-family="monospace" font-size="11" fill="#0f172a">has items?</text><line x1="240" y1="82" x2="240" y2="100" stroke="#0f172a" stroke-width="1.5"/><polygon points="240,100 236,92 244,92" fill="#0f172a"/><path d="M 240 202 L 250 202 Q 362 202 362 192" fill="none" stroke="#0f172a" stroke-width="1.5"/><line x1="362" y1="192" x2="362" y2="110" stroke="#0f172a" stroke-width="1.5"/><path d="M 362 110 Q 362 100 250 100 L 240 100" fill="none" stroke="#0f172a" stroke-width="1.5"/><polygon points="240,100 236,108 244,108" fill="#0f172a"/><text x="368" y="151" font-family="monospace" font-size="10" fill="#0f172a">yes</text><metadata data-activity-kind="Action" data-activity-lane="default" data-activity-branch="0"/><rect x="130" y="164" width="220" height="36" rx="18" ry="18" fill="#ecfdf5" stroke="#047857" stroke-width="1.5"/><text x="240" y="187" text-anchor="middle" font-family="monospace" font-size="12" fill="#0f172a">process item</text><line x1="240" y1="142" x2="240" y2="160" stroke="#0f172a" stroke-width="1.5"/><polygon points="240,160 236,152 244,152" fill="#0f172a"/><metadata data-activity-kind="EndWhile" data-activity-lane="default" data-activity-branch="0"/><metadata data-activity-kind="Stop" data-activity-lane="default" data-activity-branch="0"/><circle cx="240" cy="300" r="14" fill="white" stroke="#0f172a" stroke-width="1.5"/><circle cx="240" cy="300" r="7" fill="#0f172a"/><line x1="340" y1="124" x2="362" y2="124" stroke="#0f172a" stroke-width="1.5"/><line x1="362" y1="124" x2="362" y2="202" stroke="#0f172a" stroke-width="1.5"/><line x1="362" y1="202" x2="240" y2="202" stroke="#0f172a" stroke-width="1.5"/><line x1="240" y1="202" x2="240" y2="280" stroke="#0f172a" stroke-width="1.5"/><polygon points="240,280 236,272 244,272" fill="#0f172a"/><text x="294" y="198" font-family="monospace" font-size="10" fill="#0f172a">no</text></svg>