<svg xmlns="http://www.w3.org/2000/svg" width="480" height="400" viewBox="0 0 480 400"><rect width="100%" height="100%" fill="#ecfdf5"/><text x="32" y="30" font-family="monospace" font-size="12" fill="#0f172a">activity diagram</text><rect x="32" y="32" width="416" height="340" fill="#ecfdf5" stroke="#cbd5e1" stroke-width="1" stroke-dasharray="4 3"/><metadata data-activity-kind="Start" data-activity-lane="default" data-activity-branch="0"/><circle cx="240" cy="60" r="12" fill="#0f172a"/><metadata data-activity-kind="RepeatStart" data-activity-lane="default" data-activity-branch="0"/><text x="240" y="128" text-anchor="middle" font-family="monospace" font-size="11" fill="#0f172a">(repeat)</text><line x1="240" y1="82" x2="240" y2="100" stroke="#0f172a" stroke-width="1.5"/><polygon points="240,100 236,92 244,92" fill="#0f172a"/><metadata data-activity-kind="Action" data-activity-lane="default" data-activity-branch="0"/><rect x="130" y="164" width="220" height="36" rx="18" ry="18" fill="#ecfdf5" stroke="#047857" stroke-width="1.5"/><text x="240" y="187" text-anchor="middle" font-family="monospace" font-size="12" fill="#0f172a">action</text><line x1="240" y1="142" x2="240" y2="160" stroke="#0f172a" stroke-width="1.5"/><polygon points="240,160 236,152 244,152" fill="#0f172a"/><metadata data-activity-kind="RepeatWhile" data-activity-lane="default" data-activity-branch="0"/><polygon points="240,222 340,244 240,266 140,244" fill="#fef9c3" stroke="#047857" stroke-width="1.5"/><text x="240" y="248" text-anchor="middle" font-family="monospace" font-size="11" fill="#0f172a">condition? / yes</text><text x="240" y="274" text-anchor="middle" font-family="monospace" font-size="10" fill="#0f172a">repeat while</text><line x1="240" y1="202" x2="240" y2="220" stroke="#0f172a" stroke-width="1.5"/><polygon points="240,220 236,212 244,212" fill="#0f172a"/><metadata data-activity-kind="Stop" data-activity-lane="default" data-activity-branch="0"/><circle cx="240" cy="300" r="14" fill="white" stroke="#0f172a" stroke-width="1.5"/><circle cx="240" cy="300" r="7" fill="#0f172a"/><line x1="240" y1="262" x2="240" y2="280" stroke="#0f172a" stroke-width="1.5"/><polygon points="240,280 236,272 244,272" fill="#0f172a"/></svg>