<svg xmlns="http://www.w3.org/2000/svg" width="248" height="244" viewBox="0 0 248 244"><rect width="100%" height="100%" fill="#ecfdf5"/><metadata data-activity-kind="Start" data-activity-lane="default" data-activity-branch="0"/><circle cx="116" cy="48" r="12" fill="#0f172a"/><metadata data-activity-kind="RepeatStart" data-activity-lane="default" data-activity-branch="0"/><path d="M 116 158 L 126 158 Q 208 158 208 148" fill="none" stroke="#0f172a" stroke-width="1.5"/><line x1="208" y1="148" x2="208" y2="82" stroke="#0f172a" stroke-width="1.5"/><path d="M 208 82 Q 208 72 126 72 L 116 72" fill="none" stroke="#0f172a" stroke-width="1.5"/><polygon points="116,72 112,80 120,80" fill="#0f172a"/><text x="214" y="115" font-family="monospace" font-size="10" fill="#0f172a">yes</text><metadata data-activity-kind="Action" data-activity-lane="default" data-activity-branch="0"/><rect x="36" y="76" width="160" height="36" rx="18" ry="18" fill="#ecfdf5" stroke="#047857" stroke-width="1.5"/><text x="116" y="99" text-anchor="middle" font-family="monospace" font-size="12" fill="#0f172a">action</text><line x1="116" y1="70" x2="116" y2="72" stroke="#0f172a" stroke-width="1.5"/><polygon points="116,72 112,64 120,64" fill="#0f172a"/><path d="M 116 158 L 126 158 Q 208 158 208 148" fill="none" stroke="#0f172a" stroke-width="1.5"/><line x1="208" y1="148" x2="208" y2="82" stroke="#0f172a" stroke-width="1.5"/><path d="M 208 82 Q 208 72 126 72 L 116 72" fill="none" stroke="#0f172a" stroke-width="1.5"/><polygon points="116,72 112,80 120,80" fill="#0f172a"/><text x="214" y="115" font-family="monospace" font-size="10" fill="#0f172a">yes</text><metadata data-activity-kind="RepeatWhile" data-activity-lane="default" data-activity-branch="0"/><polygon points="116,118 216,140 116,162 16,140" fill="#fef9c3" stroke="#047857" stroke-width="1.5"/><text x="116" y="144" text-anchor="middle" font-family="monospace" font-size="11" fill="#0f172a">condition?</text><line x1="116" y1="114" x2="116" y2="116" stroke="#0f172a" stroke-width="1.5"/><polygon points="116,116 112,108 120,108" fill="#0f172a"/><metadata data-activity-kind="Stop" data-activity-lane="default" data-activity-branch="0"/><circle cx="116" cy="180" r="14" fill="white" stroke="#0f172a" stroke-width="1.5"/><circle cx="116" cy="180" r="7" fill="#0f172a"/><line x1="116" y1="158" x2="116" y2="160" stroke="#0f172a" stroke-width="1.5"/><polygon points="116,160 112,152 120,152" fill="#0f172a"/></svg>