<svg xmlns="http://www.w3.org/2000/svg" width="480" height="400" viewBox="0 0 480 400"><rect width="100%" height="100%" fill="white"/><text x="32" y="30" font-family="monospace" font-size="12" fill="#475569">activity diagram</text><circle cx="240" cy="60" r="12" fill="#0f172a"/><text x="240" y="128" text-anchor="middle" font-family="monospace" font-size="11" fill="#475569">(merge) </text><line x1="240" y1="82" x2="240" y2="100" stroke="#0f172a" stroke-width="1.5"/><polygon points="240,100 236,94 244,94" fill="#0f172a"/><rect x="130" y="164" width="220" height="36" rx="18" ry="18" fill="#ecfdf5" stroke="#047857" stroke-width="1.5"/><text x="240" y="187" text-anchor="middle" font-family="monospace" font-size="12">action</text><line x1="240" y1="142" x2="240" y2="160" stroke="#0f172a" stroke-width="1.5"/><polygon points="240,160 236,154 244,154" fill="#0f172a"/><polygon points="240,222 340,244 240,266 140,244" fill="#fef9c3" stroke="#a16207" stroke-width="1.5"/><text x="240" y="248" text-anchor="middle" font-family="monospace" font-size="11">condition?) is (yes</text><line x1="240" y1="202" x2="240" y2="220" stroke="#0f172a" stroke-width="1.5"/><polygon points="240,220 236,214 244,214" fill="#0f172a"/><circle cx="240" cy="300" r="14" fill="white" stroke="#0f172a" stroke-width="1.5"/><circle cx="240" cy="300" r="7" fill="#0f172a"/><line x1="240" y1="262" x2="240" y2="280" stroke="#0f172a" stroke-width="1.5"/><polygon points="240,280 236,274 244,274" fill="#0f172a"/></svg>