<svg xmlns="http://www.w3.org/2000/svg" width="480" height="424" viewBox="0 0 480 424"><rect width="100%" height="100%" fill="#ecfdf5"/><text x="32" y="30" font-family="monospace" font-size="12" fill="#0f172a">activity diagram</text><rect x="32" y="64" width="208" height="340" fill="#ecfdf5" stroke="#cbd5e1" stroke-width="1" stroke-dasharray="4 3"/><rect x="32" y="40" width="208" height="24" fill="#e2e8f0" stroke="#94a3b8" stroke-width="1"/><text x="136" y="56" text-anchor="middle" font-family="monospace" font-size="11" font-weight="600" fill="#0f172a">Backend</text><rect x="240" y="64" width="208" height="340" fill="#f1f5f9" stroke="#cbd5e1" stroke-width="1" stroke-dasharray="4 3"/><rect x="240" y="40" width="208" height="24" fill="#dde5ef" stroke="#94a3b8" stroke-width="1"/><text x="344" y="56" text-anchor="middle" font-family="monospace" font-size="11" font-weight="600" fill="#0f172a">Frontend</text><metadata data-activity-kind="Start" data-activity-lane="default" data-activity-branch="0"/><circle cx="136" cy="84" r="12" fill="#0f172a"/><metadata data-activity-kind="PartitionStart" data-activity-lane="Backend" data-activity-branch="0"/><metadata data-activity-kind="Action" data-activity-lane="Backend" data-activity-branch="0"/><rect x="44" y="128" width="184" height="36" rx="18" ry="18" fill="#ecfdf5" stroke="#047857" stroke-width="1.5"/><text x="136" y="151" text-anchor="middle" font-family="monospace" font-size="12" fill="#0f172a">fetch data</text><line x1="136" y1="106" x2="136" y2="124" stroke="#0f172a" stroke-width="1.5"/><polygon points="136,124 132,116 140,116" fill="#0f172a"/><metadata data-activity-kind="Action" data-activity-lane="Backend" data-activity-branch="0"/><rect x="44" y="188" width="184" height="36" rx="18" ry="18" fill="#ecfdf5" stroke="#047857" stroke-width="1.5"/><text x="136" y="211" text-anchor="middle" font-family="monospace" font-size="12" fill="#0f172a">process</text><line x1="136" y1="166" x2="136" y2="184" stroke="#0f172a" stroke-width="1.5"/><polygon points="136,184 132,176 140,176" fill="#0f172a"/><metadata data-activity-kind="PartitionEnd" data-activity-lane="default" data-activity-branch="0"/><metadata data-activity-kind="PartitionStart" data-activity-lane="Frontend" data-activity-branch="0"/><metadata data-activity-kind="Action" data-activity-lane="Frontend" data-activity-branch="0"/><rect x="252" y="248" width="184" height="36" rx="18" ry="18" fill="#ecfdf5" stroke="#047857" stroke-width="1.5"/><text x="344" y="271" text-anchor="middle" font-family="monospace" font-size="12" fill="#0f172a">render</text><line x1="136" y1="226" x2="344" y2="244" stroke="#0f172a" stroke-width="1.5"/><polygon points="344,244 336,247 336,239" fill="#0f172a"/><metadata data-activity-kind="PartitionEnd" data-activity-lane="default" data-activity-branch="0"/><metadata data-activity-kind="Stop" data-activity-lane="default" data-activity-branch="0"/><circle cx="136" cy="324" r="14" fill="white" stroke="#0f172a" stroke-width="1.5"/><circle cx="136" cy="324" r="7" fill="#0f172a"/><line x1="344" y1="286" x2="136" y2="304" stroke="#0f172a" stroke-width="1.5"/><polygon points="136,304 144,299 144,307" fill="#0f172a"/></svg>