<svg xmlns="http://www.w3.org/2000/svg" width="248" height="424" viewBox="0 0 248 424"><rect width="100%" height="100%" fill="#ecfdf5"/><rect x="16" y="128" width="200" height="108" fill="#ecfdf5" stroke="#cbd5e1" stroke-width="1" stroke-dasharray="4 3"/><rect x="16" y="104" width="200" height="24" fill="#e2e8f0" stroke="#94a3b8" stroke-width="1"/><text x="116" y="120" text-anchor="middle" font-family="monospace" font-size="11" font-weight="600" fill="#0f172a">Backend</text><rect x="16" y="272" width="200" height="64" fill="#f1f5f9" stroke="#cbd5e1" stroke-width="1" stroke-dasharray="4 3"/><rect x="16" y="248" width="200" height="24" fill="#dde5ef" stroke="#94a3b8" stroke-width="1"/><text x="116" y="264" text-anchor="middle" font-family="monospace" font-size="11" font-weight="600" fill="#0f172a">Frontend</text><metadata data-activity-kind="Start" data-activity-lane="default" data-activity-branch="0"/><circle cx="116" cy="72" r="12" fill="#0f172a"/><metadata data-activity-kind="PartitionStart" data-activity-lane="Backend" data-activity-branch="0"/><metadata data-activity-kind="Action" data-activity-lane="Backend" data-activity-branch="0"/><rect x="36" y="132" width="160" height="36" rx="18" ry="18" fill="#ecfdf5" stroke="#047857" stroke-width="1.5"/><text x="116" y="155" text-anchor="middle" font-family="monospace" font-size="12" fill="#0f172a">fetch data</text><line x1="116" y1="94" x2="116" y2="128" stroke="#0f172a" stroke-width="1.5"/><polygon points="116,128 112,120 120,120" fill="#0f172a"/><metadata data-activity-kind="Action" data-activity-lane="Backend" data-activity-branch="0"/><rect x="36" y="176" width="160" height="36" rx="18" ry="18" fill="#ecfdf5" stroke="#047857" stroke-width="1.5"/><text x="116" y="199" text-anchor="middle" font-family="monospace" font-size="12" fill="#0f172a">process</text><line x1="116" y1="170" x2="116" y2="172" stroke="#0f172a" stroke-width="1.5"/><polygon points="116,172 112,164 120,164" fill="#0f172a"/><metadata data-activity-kind="PartitionEnd" data-activity-lane="default" data-activity-branch="0"/><metadata data-activity-kind="PartitionStart" data-activity-lane="Frontend" data-activity-branch="0"/><metadata data-activity-kind="Action" data-activity-lane="Frontend" data-activity-branch="0"/><rect x="36" y="276" width="160" height="36" rx="18" ry="18" fill="#ecfdf5" stroke="#047857" stroke-width="1.5"/><text x="116" y="299" text-anchor="middle" font-family="monospace" font-size="12" fill="#0f172a">render</text><line x1="116" y1="214" x2="116" y2="272" stroke="#0f172a" stroke-width="1.5"/><polygon points="116,272 112,264 120,264" fill="#0f172a"/><metadata data-activity-kind="PartitionEnd" data-activity-lane="default" data-activity-branch="0"/><metadata data-activity-kind="Stop" data-activity-lane="default" data-activity-branch="0"/><circle cx="116" cy="360" r="14" fill="white" stroke="#0f172a" stroke-width="1.5"/><circle cx="116" cy="360" r="7" fill="#0f172a"/><line x1="116" y1="314" x2="116" y2="340" stroke="#0f172a" stroke-width="1.5"/><polygon points="116,340 112,332 120,332" fill="#0f172a"/></svg>