<svg xmlns="http://www.w3.org/2000/svg" width="480" height="640" viewBox="0 0 480 640"><rect width="100%" height="100%" fill="white"/><text x="32" y="30" font-family="monospace" font-size="12" fill="#475569">activity diagram</text><circle cx="240" cy="60" r="12" fill="#0f172a"/><rect x="24" y="104" width="432" height="36" rx="4" ry="4" fill="#f1f5f9" stroke="#475569" stroke-width="1" stroke-dasharray="4 3"/><text x="240" y="127" text-anchor="middle" font-family="monospace" font-size="12" font-weight="600" fill="#1e293b">partition: Backend</text><line x1="240" y1="82" x2="240" y2="100" stroke="#0f172a" stroke-width="1.5"/><polygon points="240,100 236,94 244,94" fill="#0f172a"/><rect x="130" y="164" width="220" height="36" rx="18" ry="18" fill="#ecfdf5" stroke="#047857" stroke-width="1.5"/><text x="240" y="187" text-anchor="middle" font-family="monospace" font-size="12">fetch data</text><line x1="240" y1="142" x2="240" y2="160" stroke="#0f172a" stroke-width="1.5"/><polygon points="240,160 236,154 244,154" fill="#0f172a"/><rect x="130" y="224" width="220" height="36" rx="18" ry="18" fill="#ecfdf5" stroke="#047857" stroke-width="1.5"/><text x="240" y="247" text-anchor="middle" font-family="monospace" font-size="12">process</text><line x1="240" y1="202" x2="240" y2="220" stroke="#0f172a" stroke-width="1.5"/><polygon points="240,220 236,214 244,214" fill="#0f172a"/><rect x="24" y="284" width="432" height="36" rx="4" ry="4" fill="#f1f5f9" stroke="#475569" stroke-width="1" stroke-dasharray="4 3"/><text x="240" y="307" text-anchor="middle" font-family="monospace" font-size="12" font-weight="600" fill="#1e293b">partition: </text><line x1="240" y1="262" x2="240" y2="280" stroke="#0f172a" stroke-width="1.5"/><polygon points="240,280 236,274 244,274" fill="#0f172a"/><rect x="24" y="344" width="432" height="36" rx="4" ry="4" fill="#f1f5f9" stroke="#475569" stroke-width="1" stroke-dasharray="4 3"/><text x="240" y="367" text-anchor="middle" font-family="monospace" font-size="12" font-weight="600" fill="#1e293b">partition: Frontend</text><line x1="240" y1="322" x2="240" y2="340" stroke="#0f172a" stroke-width="1.5"/><polygon points="240,340 236,334 244,334" fill="#0f172a"/><rect x="130" y="404" width="220" height="36" rx="18" ry="18" fill="#ecfdf5" stroke="#047857" stroke-width="1.5"/><text x="240" y="427" text-anchor="middle" font-family="monospace" font-size="12">render</text><line x1="240" y1="382" x2="240" y2="400" stroke="#0f172a" stroke-width="1.5"/><polygon points="240,400 236,394 244,394" fill="#0f172a"/><rect x="24" y="464" width="432" height="36" rx="4" ry="4" fill="#f1f5f9" stroke="#475569" stroke-width="1" stroke-dasharray="4 3"/><text x="240" y="487" text-anchor="middle" font-family="monospace" font-size="12" font-weight="600" fill="#1e293b">partition: </text><line x1="240" y1="442" x2="240" y2="460" stroke="#0f172a" stroke-width="1.5"/><polygon points="240,460 236,454 244,454" fill="#0f172a"/><circle cx="240" cy="540" r="14" fill="white" stroke="#0f172a" stroke-width="1.5"/><circle cx="240" cy="540" r="7" fill="#0f172a"/><line x1="240" y1="502" x2="240" y2="520" stroke="#0f172a" stroke-width="1.5"/><polygon points="240,520 236,514 244,514" fill="#0f172a"/></svg>