<svg xmlns="http://www.w3.org/2000/svg" width="480" height="640" viewBox="0 0 480 640"><rect width="100%" height="100%" fill="#ecfdf5"/><text x="32" y="30" font-family="monospace" font-size="12" fill="#0f172a">activity diagram</text><rect x="32" y="32" width="208" height="580" fill="#ecfdf5" stroke="#cbd5e1" stroke-width="1" stroke-dasharray="4 3"/><text x="136" y="50" text-anchor="middle" font-family="monospace" font-size="11" fill="#0f172a">Backend</text><rect x="240" y="32" width="208" height="580" fill="#f1f5f9" stroke="#cbd5e1" stroke-width="1" stroke-dasharray="4 3"/><text x="344" y="50" text-anchor="middle" font-family="monospace" font-size="11" fill="#0f172a">Frontend</text><metadata data-activity-kind="Start" data-activity-lane="default" data-activity-branch="0"/><circle cx="136" cy="60" r="12" fill="#0f172a"/><metadata data-activity-kind="PartitionStart" data-activity-lane="Backend" data-activity-branch="0"/><rect x="24" y="104" width="432" height="36" rx="4" ry="4" fill="#ecfdf5" stroke="#047857" stroke-width="1" stroke-dasharray="4 3"/><text x="136" y="127" text-anchor="middle" font-family="monospace" font-size="12" font-weight="600" fill="#0f172a">partition: Backend</text><line x1="136" y1="82" x2="136" y2="100" stroke="#0f172a" stroke-width="1.5"/><polygon points="136,100 132,92 140,92" fill="#0f172a"/><metadata data-activity-kind="Action" data-activity-lane="Backend" data-activity-branch="0"/><rect x="44" y="164" width="184" height="36" rx="18" ry="18" fill="#ecfdf5" stroke="#047857" stroke-width="1.5"/><text x="136" y="187" text-anchor="middle" font-family="monospace" font-size="12" fill="#0f172a">fetch data</text><line x1="136" y1="142" x2="136" y2="160" stroke="#0f172a" stroke-width="1.5"/><polygon points="136,160 132,152 140,152" fill="#0f172a"/><metadata data-activity-kind="Action" data-activity-lane="Backend" data-activity-branch="0"/><rect x="44" y="224" width="184" height="36" rx="18" ry="18" fill="#ecfdf5" stroke="#047857" stroke-width="1.5"/><text x="136" y="247" text-anchor="middle" font-family="monospace" font-size="12" fill="#0f172a">process</text><line x1="136" y1="202" x2="136" y2="220" stroke="#0f172a" stroke-width="1.5"/><polygon points="136,220 132,212 140,212" fill="#0f172a"/><metadata data-activity-kind="PartitionEnd" data-activity-lane="default" data-activity-branch="0"/><rect x="24" y="284" width="432" height="36" rx="4" ry="4" fill="#ecfdf5" stroke="#047857" stroke-width="1" stroke-dasharray="4 3"/><text x="136" y="307" text-anchor="middle" font-family="monospace" font-size="12" font-weight="600" fill="#0f172a">partition: </text><line x1="136" y1="262" x2="136" y2="280" stroke="#0f172a" stroke-width="1.5"/><polygon points="136,280 132,272 140,272" fill="#0f172a"/><metadata data-activity-kind="PartitionStart" data-activity-lane="Frontend" data-activity-branch="0"/><rect x="24" y="344" width="432" height="36" rx="4" ry="4" fill="#ecfdf5" stroke="#047857" stroke-width="1" stroke-dasharray="4 3"/><text x="344" y="367" text-anchor="middle" font-family="monospace" font-size="12" font-weight="600" fill="#0f172a">partition: Frontend</text><line x1="136" y1="322" x2="344" y2="340" stroke="#0f172a" stroke-width="1.5"/><polygon points="344,340 336,343 336,335" fill="#0f172a"/><metadata data-activity-kind="Action" data-activity-lane="Frontend" data-activity-branch="0"/><rect x="252" y="404" width="184" height="36" rx="18" ry="18" fill="#ecfdf5" stroke="#047857" stroke-width="1.5"/><text x="344" y="427" text-anchor="middle" font-family="monospace" font-size="12" fill="#0f172a">render</text><line x1="344" y1="382" x2="344" y2="400" stroke="#0f172a" stroke-width="1.5"/><polygon points="344,400 340,392 348,392" fill="#0f172a"/><metadata data-activity-kind="PartitionEnd" data-activity-lane="default" data-activity-branch="0"/><rect x="24" y="464" width="432" height="36" rx="4" ry="4" fill="#ecfdf5" stroke="#047857" stroke-width="1" stroke-dasharray="4 3"/><text x="136" y="487" text-anchor="middle" font-family="monospace" font-size="12" font-weight="600" fill="#0f172a">partition: </text><line x1="344" y1="442" x2="136" y2="460" stroke="#0f172a" stroke-width="1.5"/><polygon points="136,460 144,455 144,463" fill="#0f172a"/><metadata data-activity-kind="Stop" data-activity-lane="default" data-activity-branch="0"/><circle cx="136" cy="540" r="14" fill="white" stroke="#0f172a" stroke-width="1.5"/><circle cx="136" cy="540" r="7" fill="#0f172a"/><line x1="136" y1="502" x2="136" y2="520" stroke="#0f172a" stroke-width="1.5"/><polygon points="136,520 132,512 140,512" fill="#0f172a"/></svg>