<svg xmlns="http://www.w3.org/2000/svg" width="480" height="626" viewBox="0 0 480 626"><rect width="100%" height="100%" fill="#ecfdf5"/><text x="32" y="28" font-family="monospace" font-size="18" font-weight="600" fill="#0f172a">Activity New Chapter 6 Parity Slice</text><text x="32" y="52" font-family="monospace" font-size="12" fill="#0f172a">activity diagram</text><rect x="32" y="86" width="416" height="520" fill="LightYellow" stroke="#cbd5e1" stroke-width="1" stroke-dasharray="4 3"/><rect x="32" y="62" width="416" height="24" fill="LightYellow" stroke="#94a3b8" stroke-width="1"/><text x="240" y="78" text-anchor="middle" font-family="monospace" font-size="11" font-weight="600" fill="#0f172a">Ops</text><metadata data-activity-kind="Start" data-activity-lane="default" data-activity-branch="0"/><circle cx="240" cy="106" r="12" fill="#0f172a"/><metadata data-activity-kind="Action" data-activity-lane="default" data-activity-branch="0"/><rect x="130" y="150" width="220" height="36" rx="18" ry="18" fill="LightBlue" stroke="#047857" stroke-width="1.5"/><text x="240" y="173" text-anchor="middle" font-family="monospace" font-size="12" fill="#0f172a">Collect request</text><line x1="240" y1="128" x2="240" y2="146" stroke="#0f172a" stroke-width="1.5"/><polygon points="240,146 236,138 244,138" fill="#0f172a"/><metadata data-activity-kind="Arrow" data-activity-lane="default" data-activity-branch="0"/><metadata data-activity-kind="Action" data-activity-lane="default" data-activity-branch="0"/><rect x="130" y="210" width="220" height="36" rx="18" ry="18" fill="#ecfdf5" stroke="#047857" stroke-width="1.5"/><text x="240" y="233" text-anchor="middle" font-family="monospace" font-size="12" fill="#0f172a">Review request</text><line x1="240" y1="188" x2="240" y2="206" stroke="red" stroke-width="1.5" stroke-dasharray="6 4"/><polygon points="240,206 236,198 244,198" fill="red"/><text x="246" y="197" font-family="monospace" font-size="10" fill="red">reviewed</text><metadata data-activity-kind="Note" data-activity-lane="default" data-activity-branch="0"/><path d="M130,268 H334 L350 284 V312 H130 Z" fill="#fff8c4" stroke="#8a6d00" stroke-width="1.2"/><path d="M334 268 V284 H350" fill="none" stroke="#8a6d00" stroke-width="1"/><text x="140" y="290" font-family="monospace" font-size="12" fill="#3b2f00">capture audit evidence</text><line x1="240" y1="248" x2="240" y2="266" stroke="#0f172a" stroke-width="1.5"/><polygon points="240,266 236,258 244,258" fill="#0f172a"/><metadata data-activity-kind="Connector" data-activity-lane="default" data-activity-branch="0"/><circle cx="240" cy="348" r="16" fill="pink" stroke="#047857" stroke-width="1.5"/><text x="240" y="352" text-anchor="middle" font-family="monospace" font-size="11" fill="#0f172a">(A)</text><line x1="240" y1="308" x2="240" y2="326" stroke="#0f172a" stroke-width="1.5"/><polygon points="240,326 236,318 244,318" fill="#0f172a"/><metadata data-activity-kind="PartitionStart" data-activity-lane="Ops" data-activity-branch="0"/><metadata data-activity-kind="Action" data-activity-lane="Ops" data-activity-branch="0"/><rect x="130" y="390" width="220" height="36" rx="18" ry="18" fill="#ecfdf5" stroke="#047857" stroke-width="1.5"/><text x="240" y="413" text-anchor="middle" font-family="monospace" font-size="12" fill="#0f172a">Ship release</text><line x1="240" y1="368" x2="240" y2="386" stroke="#0f172a" stroke-width="1.5"/><polygon points="240,386 236,378 244,378" fill="#0f172a"/><metadata data-activity-kind="PartitionEnd" data-activity-lane="default" data-activity-branch="0"/><metadata data-activity-kind="Detach" data-activity-lane="default" data-activity-branch="0"/><circle cx="240" cy="466" r="14" fill="white" stroke="#0f172a" stroke-width="1.5"/><circle cx="240" cy="466" r="7" fill="#0f172a"/><text x="240" y="490" text-anchor="middle" font-family="monospace" font-size="10" fill="#0f172a">detach</text><line x1="240" y1="428" x2="240" y2="446" stroke="#0f172a" stroke-width="1.5"/><polygon points="240,446 236,438 244,438" fill="#0f172a"/><metadata data-activity-kind="Action" data-activity-lane="default" data-activity-branch="0"/><rect x="130" y="510" width="220" height="36" rx="18" ry="18" fill="#ecfdf5" stroke="#047857" stroke-width="1.5"/><text x="240" y="533" text-anchor="middle" font-family="monospace" font-size="12" fill="#0f172a">Detached follow-up</text></svg>