<svg xmlns="http://www.w3.org/2000/svg" width="808" height="726" viewBox="0 0 808 726"><rect width="100%" height="100%" fill="#ecfdf5"/><text x="32" y="22" font-family="monospace" font-size="16" font-weight="600" fill="#0f172a">Activity New Chapter 6 Parity Slice</text><rect x="216" y="278" width="360" height="64" fill="LightYellow" stroke="#cbd5e1" stroke-width="1" stroke-dasharray="4 3"/><rect x="216" y="254" width="360" height="24" fill="LightYellow" stroke="#94a3b8" stroke-width="1"/><text x="396" y="270" text-anchor="middle" font-family="monospace" font-size="11" font-weight="600" fill="#0f172a">Ops</text><metadata data-activity-kind="Start" data-activity-lane="default" data-activity-branch="0"/><circle cx="396" cy="90" r="12" fill="#0f172a"/><metadata data-activity-kind="Action" data-activity-lane="default" data-activity-branch="0"/><rect x="316" y="118" width="160" height="36" rx="18" ry="18" fill="LightBlue" stroke="#047857" stroke-width="1.5"/><text x="396" y="141" text-anchor="middle" font-family="monospace" font-size="12" fill="#0f172a">Collect request</text><line x1="396" y1="112" x2="396" y2="114" stroke="#0f172a" stroke-width="1.5"/><polygon points="396,114 392,106 400,106" fill="#0f172a"/><metadata data-activity-kind="Note" data-activity-lane="default" data-activity-branch="0"/><line class="activity-note-connector" x1="396" y1="118" x2="556" y2="104" stroke="#8a6d1d" stroke-width="1" stroke-dasharray="4 3"/><path d="M476,60 H620 L636 76 V104 H476 Z" fill="#fff8c4" stroke="#8a6d00" stroke-width="1.2"/><path d="M620 60 V76 H636" fill="none" stroke="#8a6d00" stroke-width="1"/><text x="486" y="82" font-family="monospace" font-size="12" fill="#3b2f00">request context</text><metadata data-activity-kind="Arrow" data-activity-lane="default" data-activity-branch="0"/><metadata data-activity-kind="Action" data-activity-lane="default" data-activity-branch="0"/><rect x="316" y="162" width="160" height="36" rx="18" ry="18" fill="#ecfdf5" stroke="#047857" stroke-width="1.5"/><text x="396" y="185" text-anchor="middle" font-family="monospace" font-size="12" fill="#0f172a">Review request</text><line x1="396" y1="156" x2="396" y2="158" stroke="red" stroke-width="1.5" stroke-dasharray="6 4"/><polygon points="396,158 392,150 400,150" fill="red"/><text x="402" y="157" font-family="monospace" font-size="10" fill="red">reviewed</text><metadata data-activity-kind="Note" data-activity-lane="default" data-activity-branch="0"/><line class="activity-note-connector" x1="476" y1="180" x2="528" y2="182" stroke="#8a6d1d" stroke-width="1" stroke-dasharray="4 3"/><path d="M528,160 H672 L688 176 V218 H528 Z" fill="#fff8c4" stroke="#8a6d00" stroke-width="1.2"/><path d="M672 160 V176 H688" fill="none" stroke="#8a6d00" stroke-width="1"/><text x="538" y="182" font-family="monospace" font-size="12" fill="#3b2f00">capture audit evidence</text><text x="538" y="197" font-family="monospace" font-size="12" fill="#3b2f00">include reviewer notes</text><metadata data-activity-kind="Note" data-activity-lane="default" data-activity-branch="0"/><path d="M104,160 H248 L264 176 V204 H104 Z" fill="#fff8c4" stroke="#8a6d00" stroke-width="1.2"/><path d="M248 160 V176 H264" fill="none" stroke="#8a6d00" stroke-width="1"/><text x="114" y="182" font-family="monospace" font-size="12" fill="#3b2f00">out-of-band checklist</text><metadata data-activity-kind="Connector" data-activity-lane="default" data-activity-branch="0"/><circle cx="396" cy="224" r="16" fill="pink" stroke="#047857" stroke-width="1.5"/><text x="396" y="228" text-anchor="middle" font-family="monospace" font-size="11" fill="#0f172a">(A)</text><line x1="396" y1="200" x2="396" y2="202" stroke="#0f172a" stroke-width="1.5"/><polygon points="396,202 392,194 400,194" fill="#0f172a"/><metadata data-activity-kind="PartitionStart" data-activity-lane="Ops" data-activity-branch="0"/><metadata data-activity-kind="Action" data-activity-lane="Ops" data-activity-branch="0"/><rect x="316" y="282" width="160" height="36" rx="18" ry="18" fill="#ecfdf5" stroke="#047857" stroke-width="1.5"/><text x="396" y="305" text-anchor="middle" font-family="monospace" font-size="12" fill="#0f172a">Ship release</text><line x1="396" y1="244" x2="396" y2="278" stroke="#0f172a" stroke-width="1.5"/><polygon points="396,278 392,270 400,270" fill="#0f172a"/><metadata data-activity-kind="PartitionEnd" data-activity-lane="default" data-activity-branch="0"/><metadata data-activity-kind="Note" data-activity-lane="default" data-activity-branch="0"/><line class="activity-note-connector" x1="396" y1="318" x2="556" y2="324" stroke="#8a6d1d" stroke-width="1" stroke-dasharray="4 3"/><path d="M476,324 H620 L636 340 V368 H476 Z" fill="#fff8c4" stroke="#8a6d00" stroke-width="1.2"/><path d="M620 324 V340 H636" fill="none" stroke="#8a6d00" stroke-width="1"/><text x="486" y="346" font-family="monospace" font-size="12" fill="#3b2f00">archived release memo</text><metadata data-activity-kind="Detach" data-activity-lane="default" data-activity-branch="0"/><line x1="384" y1="398" x2="408" y2="398" stroke="#0f172a" stroke-width="3"/><line x1="396" y1="320" x2="396" y2="378" stroke="#0f172a" stroke-width="1.5"/><polygon points="396,378 392,370 400,370" fill="#0f172a"/><metadata data-activity-kind="Action" data-activity-lane="default" data-activity-branch="0"/><rect x="316" y="426" width="160" height="36" rx="18" ry="18" fill="#ecfdf5" stroke="#047857" stroke-width="1.5"/><text x="396" y="449" text-anchor="middle" font-family="monospace" font-size="12" fill="#0f172a">Detached follow-up</text><metadata data-activity-kind="Fork" data-activity-lane="default" data-activity-branch="0"/><rect x="243" y="490" width="306" height="8" fill="#0f172a"/><line x1="396" y1="464" x2="396" y2="466" stroke="#0f172a" stroke-width="1.5"/><polygon points="396,466 392,458 400,458" fill="#0f172a"/><metadata data-activity-kind="Action" data-activity-lane="default" data-activity-branch="0"/><rect x="224" y="514" width="160" height="36" rx="18" ry="18" fill="#ecfdf5" stroke="#047857" stroke-width="1.5"/><text x="304" y="537" text-anchor="middle" font-family="monospace" font-size="12" fill="#0f172a">terminal detach branch</text><metadata data-activity-kind="Detach" data-activity-lane="default" data-activity-branch="0"/><line x1="292" y1="574" x2="316" y2="574" stroke="#0f172a" stroke-width="3"/><line x1="304" y1="552" x2="304" y2="554" stroke="#0f172a" stroke-width="1.5"/><polygon points="304,554 300,546 308,546" fill="#0f172a"/><metadata data-activity-kind="ForkAgain" data-activity-lane="default" data-activity-branch="1"/><metadata data-activity-kind="Action" data-activity-lane="default" data-activity-branch="1"/><rect x="408" y="514" width="160" height="36" rx="18" ry="18" fill="#ecfdf5" stroke="#047857" stroke-width="1.5"/><text x="488" y="537" text-anchor="middle" font-family="monospace" font-size="12" fill="#0f172a">terminal kill branch</text><metadata data-activity-kind="Kill" data-activity-lane="default" data-activity-branch="1"/><circle cx="488" cy="574" r="12" fill="white" stroke="#0f172a" stroke-width="1.5"/><line x1="480" y1="566" x2="496" y2="582" stroke="#0f172a" stroke-width="2"/><line x1="496" y1="566" x2="480" y2="582" stroke="#0f172a" stroke-width="2"/><line x1="488" y1="552" x2="488" y2="554" stroke="#0f172a" stroke-width="1.5"/><polygon points="488,554 484,546 492,546" fill="#0f172a"/><metadata data-activity-kind="EndFork" data-activity-lane="default" data-activity-branch="0"/><metadata data-activity-kind="Action" data-activity-lane="default" data-activity-branch="0"/><rect x="316" y="646" width="160" height="36" rx="18" ry="18" fill="#ecfdf5" stroke="#047857" stroke-width="1.5"/><text x="396" y="669" text-anchor="middle" font-family="monospace" font-size="12" fill="#0f172a">Post-terminal split follow-up</text><line x1="304" y1="498" x2="304" y2="510" stroke="#0f172a" stroke-width="1.5"/><polygon points="304,510 300,502 308,502" fill="#0f172a"/><line x1="488" y1="498" x2="488" y2="510" stroke="#0f172a" stroke-width="1.5"/><polygon points="488,510 484,502 492,502" fill="#0f172a"/></svg>