<svg xmlns="http://www.w3.org/2000/svg" width="1320" height="946" viewBox="0 0 1320 946"><rect width="100%" height="100%" fill="#ecfdf5"/><text x="32" y="28" font-family="monospace" font-size="18" font-weight="600" fill="#0f172a">Activity New Chapter 6 Parity Slice</text><text x="32" y="52" font-family="monospace" font-size="12" fill="#0f172a">activity diagram</text><rect x="292" y="350" width="736" height="80" fill="LightYellow" stroke="#cbd5e1" stroke-width="1" stroke-dasharray="4 3"/><rect x="292" y="326" width="736" height="24" fill="LightYellow" stroke="#94a3b8" stroke-width="1"/><text x="660" y="342" text-anchor="middle" font-family="monospace" font-size="11" font-weight="600" fill="#0f172a">Ops</text><metadata data-activity-kind="Start" data-activity-lane="default" data-activity-branch="0"/><circle cx="660" cy="106" r="12" fill="#0f172a"/><metadata data-activity-kind="Action" data-activity-lane="default" data-activity-branch="0"/><rect x="550" y="150" width="220" height="36" rx="18" ry="18" fill="LightBlue" stroke="#047857" stroke-width="1.5"/><text x="660" y="173" text-anchor="middle" font-family="monospace" font-size="12" fill="#0f172a">Collect request</text><line x1="660" y1="128" x2="660" y2="146" stroke="#0f172a" stroke-width="1.5"/><polygon points="660,146 656,138 664,138" fill="#0f172a"/><metadata data-activity-kind="Note" data-activity-lane="default" data-activity-branch="0"/><line class="activity-note-connector" x1="660" y1="150" x2="660" y2="136" stroke="#8a6d1d" stroke-width="1" stroke-dasharray="4 3"/><path d="M550,92 H754 L770 108 V136 H550 Z" fill="#fff8c4" stroke="#8a6d00" stroke-width="1.2"/><path d="M754 92 V108 H770" fill="none" stroke="#8a6d00" stroke-width="1"/><text x="560" y="114" font-family="monospace" font-size="12" fill="#3b2f00">request context</text><metadata data-activity-kind="Arrow" data-activity-lane="default" data-activity-branch="0"/><metadata data-activity-kind="Action" data-activity-lane="default" data-activity-branch="0"/><rect x="550" y="210" width="220" height="36" rx="18" ry="18" fill="#ecfdf5" stroke="#047857" stroke-width="1.5"/><text x="660" y="233" text-anchor="middle" font-family="monospace" font-size="12" fill="#0f172a">Review request</text><line x1="660" y1="188" x2="660" y2="206" stroke="red" stroke-width="1.5" stroke-dasharray="6 4"/><polygon points="660,206 656,198 664,198" fill="red"/><text x="666" y="197" font-family="monospace" font-size="10" fill="red">reviewed</text><metadata data-activity-kind="Note" data-activity-lane="default" data-activity-branch="0"/><line class="activity-note-connector" x1="770" y1="228" x2="950" y2="230" stroke="#8a6d1d" stroke-width="1" stroke-dasharray="4 3"/><path d="M950,208 H1154 L1170 224 V266 H950 Z" fill="#fff8c4" stroke="#8a6d00" stroke-width="1.2"/><path d="M1154 208 V224 H1170" fill="none" stroke="#8a6d00" stroke-width="1"/><text x="960" y="230" font-family="monospace" font-size="12" fill="#3b2f00">capture audit evidence</text><text x="960" y="245" font-family="monospace" font-size="12" fill="#3b2f00">include reviewer notes</text><metadata data-activity-kind="Note" data-activity-lane="default" data-activity-branch="0"/><path d="M150,208 H354 L370 224 V252 H150 Z" fill="#fff8c4" stroke="#8a6d00" stroke-width="1.2"/><path d="M354 208 V224 H370" fill="none" stroke="#8a6d00" stroke-width="1"/><text x="160" y="230" font-family="monospace" font-size="12" fill="#3b2f00">out-of-band checklist</text><metadata data-activity-kind="Connector" data-activity-lane="default" data-activity-branch="0"/><circle cx="660" cy="288" r="16" fill="pink" stroke="#047857" stroke-width="1.5"/><text x="660" y="292" text-anchor="middle" font-family="monospace" font-size="11" fill="#0f172a">(A)</text><line x1="660" y1="248" x2="660" y2="266" stroke="#0f172a" stroke-width="1.5"/><polygon points="660,266 656,258 664,258" fill="#0f172a"/><metadata data-activity-kind="PartitionStart" data-activity-lane="Ops" data-activity-branch="0"/><metadata data-activity-kind="Action" data-activity-lane="Ops" data-activity-branch="0"/><rect x="550" y="354" width="220" height="36" rx="18" ry="18" fill="#ecfdf5" stroke="#047857" stroke-width="1.5"/><text x="660" y="377" text-anchor="middle" font-family="monospace" font-size="12" fill="#0f172a">Ship release</text><line x1="660" y1="308" x2="660" y2="350" stroke="#0f172a" stroke-width="1.5"/><polygon points="660,350 656,342 664,342" fill="#0f172a"/><metadata data-activity-kind="PartitionEnd" data-activity-lane="default" data-activity-branch="0"/><metadata data-activity-kind="Note" data-activity-lane="default" data-activity-branch="0"/><line class="activity-note-connector" x1="660" y1="390" x2="660" y2="412" stroke="#8a6d1d" stroke-width="1" stroke-dasharray="4 3"/><path d="M550,412 H754 L770 428 V456 H550 Z" fill="#fff8c4" stroke="#8a6d00" stroke-width="1.2"/><path d="M754 412 V428 H770" fill="none" stroke="#8a6d00" stroke-width="1"/><text x="560" y="434" font-family="monospace" font-size="12" fill="#3b2f00">archived release memo</text><metadata data-activity-kind="Detach" data-activity-lane="default" data-activity-branch="0"/><line x1="648" y1="486" x2="672" y2="486" stroke="#0f172a" stroke-width="3"/><line x1="660" y1="392" x2="782" y2="392" stroke="#0f172a" stroke-width="1.5"/><line x1="782" y1="392" x2="782" y2="466" stroke="#0f172a" stroke-width="1.5"/><line x1="782" y1="466" x2="660" y2="466" stroke="#0f172a" stroke-width="1.5"/><polygon points="660,466 656,458 664,458" fill="#0f172a"/><metadata data-activity-kind="Action" data-activity-lane="default" data-activity-branch="0"/><rect x="550" y="530" width="220" height="36" rx="18" ry="18" fill="#ecfdf5" stroke="#047857" stroke-width="1.5"/><text x="660" y="553" text-anchor="middle" font-family="monospace" font-size="12" fill="#0f172a">Detached follow-up</text><metadata data-activity-kind="Fork" data-activity-lane="default" data-activity-branch="0"/><rect x="292" y="610" width="736" height="8" fill="#0f172a"/><line x1="660" y1="568" x2="660" y2="586" stroke="#0f172a" stroke-width="1.5"/><polygon points="660,586 656,578 664,578" fill="#0f172a"/><metadata data-activity-kind="Action" data-activity-lane="default" data-activity-branch="0"/><rect x="366" y="650" width="220" height="36" rx="18" ry="18" fill="#ecfdf5" stroke="#047857" stroke-width="1.5"/><text x="476" y="673" text-anchor="middle" font-family="monospace" font-size="12" fill="#0f172a">terminal detach branch</text><metadata data-activity-kind="Detach" data-activity-lane="default" data-activity-branch="0"/><line x1="464" y1="726" x2="488" y2="726" stroke="#0f172a" stroke-width="3"/><line x1="476" y1="688" x2="476" y2="706" stroke="#0f172a" stroke-width="1.5"/><polygon points="476,706 472,698 480,698" fill="#0f172a"/><metadata data-activity-kind="ForkAgain" data-activity-lane="default" data-activity-branch="1"/><metadata data-activity-kind="Action" data-activity-lane="default" data-activity-branch="1"/><rect x="734" y="650" width="220" height="36" rx="18" ry="18" fill="#ecfdf5" stroke="#047857" stroke-width="1.5"/><text x="844" y="673" text-anchor="middle" font-family="monospace" font-size="12" fill="#0f172a">terminal kill branch</text><metadata data-activity-kind="Kill" data-activity-lane="default" data-activity-branch="1"/><circle cx="844" cy="726" r="12" fill="white" stroke="#0f172a" stroke-width="1.5"/><line x1="836" y1="718" x2="852" y2="734" stroke="#0f172a" stroke-width="2"/><line x1="852" y1="718" x2="836" y2="734" stroke="#0f172a" stroke-width="2"/><line x1="844" y1="688" x2="844" y2="706" stroke="#0f172a" stroke-width="1.5"/><polygon points="844,706 840,698 848,698" fill="#0f172a"/><metadata data-activity-kind="EndFork" data-activity-lane="default" data-activity-branch="0"/><metadata data-activity-kind="Action" data-activity-lane="default" data-activity-branch="0"/><rect x="550" y="830" width="220" height="36" rx="18" ry="18" fill="#ecfdf5" stroke="#047857" stroke-width="1.5"/><text x="660" y="853" text-anchor="middle" font-family="monospace" font-size="12" fill="#0f172a">Post-terminal split follow-up</text><line x1="476" y1="618" x2="476" y2="646" stroke="#0f172a" stroke-width="1.5"/><polygon points="476,646 472,638 480,638" fill="#0f172a"/><line x1="844" y1="618" x2="844" y2="646" stroke="#0f172a" stroke-width="1.5"/><polygon points="844,646 840,638 848,638" fill="#0f172a"/></svg>