<svg xmlns="http://www.w3.org/2000/svg" width="1060" height="958" viewBox="0 0 1060 958"><rect width="100%" height="100%" fill="#ecfdf5"/><text x="32" y="28" font-family="monospace" font-size="18" font-weight="600" fill="#0f172a">Activity Notes, Split, and Partitions</text><text x="32" y="52" font-family="monospace" font-size="12" fill="#0f172a">activity diagram</text><rect x="32" y="110" width="736" height="500" fill="LightBlue" stroke="#cbd5e1" stroke-width="1" stroke-dasharray="4 3"/><rect x="32" y="86" width="736" height="24" fill="LightBlue" stroke="#94a3b8" stroke-width="1"/><text x="400" y="102" text-anchor="middle" font-family="monospace" font-size="11" font-weight="600" fill="#0f172a">Planner</text><rect x="32" y="838" width="736" height="80" fill="LightGreen" stroke="#cbd5e1" stroke-width="1" stroke-dasharray="4 3"/><rect x="32" y="814" width="736" height="24" fill="LightGreen" stroke="#94a3b8" stroke-width="1"/><text x="400" y="830" text-anchor="middle" font-family="monospace" font-size="11" font-weight="600" fill="#0f172a">Builder</text><rect x="32" y="638" width="736" height="196" fill="MistyRose" stroke="#cbd5e1" stroke-width="1" stroke-dasharray="4 3"/><rect x="32" y="614" width="736" height="24" fill="MistyRose" stroke="#94a3b8" stroke-width="1"/><text x="400" y="630" text-anchor="middle" font-family="monospace" font-size="11" font-weight="600" fill="#0f172a">Build</text><metadata data-activity-kind="PartitionStart" data-activity-lane="Planner" data-activity-branch="0"/><metadata data-activity-kind="Start" data-activity-lane="Planner" data-activity-branch="0"/><circle cx="400" cy="130" r="12" fill="#0f172a"/><line x1="400" y1="86" x2="400" y2="110" stroke="#0f172a" stroke-width="1.5"/><polygon points="400,110 396,102 404,102" fill="#0f172a"/><metadata data-activity-kind="Action" data-activity-lane="Planner" data-activity-branch="0"/><rect x="290" y="174" width="220" height="36" rx="18" ry="18" fill="#ecfdf5" stroke="#047857" stroke-width="1.5"/><text x="400" y="197" text-anchor="middle" font-family="monospace" font-size="12" fill="#0f172a">Gather context</text><line x1="400" y1="152" x2="400" y2="170" stroke="#0f172a" stroke-width="1.5"/><polygon points="400,170 396,162 404,162" fill="#0f172a"/><metadata data-activity-kind="Note" data-activity-lane="default" data-activity-branch="0"/><line class="activity-note-connector" x1="510" y1="192" x2="690" y2="194" stroke="#8a6d1d" stroke-width="1" stroke-dasharray="4 3"/><path d="M690,172 H894 L910 188 V230 H690 Z" fill="#fff8c4" stroke="#8a6d00" stroke-width="1.2"/><path d="M894 172 V188 H910" fill="none" stroke="#8a6d00" stroke-width="1"/><text x="700" y="194" font-family="monospace" font-size="12" fill="#3b2f00">Attach evidence without</text><text x="700" y="209" font-family="monospace" font-size="12" fill="#3b2f00">consuming a flow step.</text><metadata data-activity-kind="Arrow" data-activity-lane="Planner" data-activity-branch="0"/><metadata data-activity-kind="Action" data-activity-lane="Planner" data-activity-branch="0"/><rect x="290" y="234" width="220" height="36" rx="18" ry="18" fill="LightYellow" stroke="#047857" stroke-width="1.5"/><text x="400" y="257" text-anchor="middle" font-family="monospace" font-size="12" fill="#0f172a">Review evidence</text><line x1="400" y1="212" x2="400" y2="230" stroke="green" stroke-width="1.5" stroke-dasharray="6 4"/><polygon points="400,230 396,222 404,222" fill="green"/><text x="406" y="221" font-family="monospace" font-size="10" fill="green">evidence ready</text><metadata data-activity-kind="Fork" data-activity-lane="Planner" data-activity-branch="0"/><rect x="32" y="314" width="736" height="8" fill="#0f172a"/><line x1="400" y1="272" x2="400" y2="290" stroke="#0f172a" stroke-width="1.5"/><polygon points="400,290 396,282 404,282" fill="#0f172a"/><metadata data-activity-kind="Action" data-activity-lane="Planner" data-activity-branch="0"/><rect x="106" y="354" width="220" height="36" rx="18" ry="18" fill="#ecfdf5" stroke="#047857" stroke-width="1.5"/><text x="216" y="377" text-anchor="middle" font-family="monospace" font-size="12" fill="#0f172a">archive stale worker</text><metadata data-activity-kind="Detach" data-activity-lane="Planner" data-activity-branch="0"/><line x1="204" y1="430" x2="228" y2="430" stroke="#0f172a" stroke-width="3"/><line x1="216" y1="392" x2="216" y2="410" stroke="#0f172a" stroke-width="1.5"/><polygon points="216,410 212,402 220,402" fill="#0f172a"/><metadata data-activity-kind="ForkAgain" data-activity-lane="Planner" data-activity-branch="1"/><metadata data-activity-kind="Action" data-activity-lane="Planner" data-activity-branch="1"/><rect x="474" y="354" width="220" height="36" rx="18" ry="18" fill="#ecfdf5" stroke="#047857" stroke-width="1.5"/><text x="584" y="377" text-anchor="middle" font-family="monospace" font-size="12" fill="#0f172a">fix live branch</text><metadata data-activity-kind="Arrow" data-activity-lane="Planner" data-activity-branch="1"/><metadata data-activity-kind="Action" data-activity-lane="Planner" data-activity-branch="1"/><rect x="474" y="414" width="220" height="36" rx="18" ry="18" fill="#ecfdf5" stroke="#047857" stroke-width="1.5"/><text x="584" y="437" text-anchor="middle" font-family="monospace" font-size="12" fill="#0f172a">run checks</text><line x1="584" y1="392" x2="584" y2="410" stroke="blue" stroke-width="2.5"/><polygon points="584,410 580,402 588,402" fill="blue"/><text x="590" y="401" font-family="monospace" font-size="10" fill="blue">continue after split</text><metadata data-activity-kind="EndFork" data-activity-lane="Planner" data-activity-branch="0"/><rect x="474" y="494" width="220" height="8" fill="#0f172a"/><metadata data-activity-kind="Action" data-activity-lane="Planner" data-activity-branch="0"/><rect x="290" y="534" width="220" height="36" rx="18" ry="18" fill="#ecfdf5" stroke="#047857" stroke-width="1.5"/><text x="400" y="557" text-anchor="middle" font-family="monospace" font-size="12" fill="#0f172a">merge live branch only</text><line x1="584" y1="512" x2="584" y2="521" stroke="#0f172a" stroke-width="1.5"/><line x1="584" y1="521" x2="400" y2="521" stroke="#0f172a" stroke-width="1.5"/><line x1="400" y1="521" x2="400" y2="530" stroke="#0f172a" stroke-width="1.5"/><polygon points="400,530 396,522 404,522" fill="#0f172a"/><metadata data-activity-kind="PartitionStart" data-activity-lane="Builder" data-activity-branch="0"/><metadata data-activity-kind="PartitionStart" data-activity-lane="Build" data-activity-branch="0"/><metadata data-activity-kind="Action" data-activity-lane="Build" data-activity-branch="0"/><rect x="290" y="642" width="220" height="36" rx="18" ry="18" fill="#ecfdf5" stroke="#047857" stroke-width="1.5"/><text x="400" y="665" text-anchor="middle" font-family="monospace" font-size="12" fill="#0f172a">compile release</text><line x1="400" y1="572" x2="400" y2="638" stroke="#0f172a" stroke-width="1.5"/><polygon points="400,638 396,630 404,630" fill="#0f172a"/><metadata data-activity-kind="Note" data-activity-lane="default" data-activity-branch="0"/><line class="activity-note-connector" x1="400" y1="678" x2="584" y2="700" stroke="#8a6d1d" stroke-width="1" stroke-dasharray="4 3"/><path d="M474,700 H678 L694 716 V744 H474 Z" fill="#fff8c4" stroke="#8a6d00" stroke-width="1.2"/><path d="M678 700 V716 H694" fill="none" stroke="#8a6d00" stroke-width="1"/><text x="484" y="722" font-family="monospace" font-size="12" fill="#3b2f00">build log path</text><metadata data-activity-kind="Action" data-activity-lane="Build" data-activity-branch="0"/><rect x="290" y="758" width="220" height="36" rx="18" ry="18" fill="#ecfdf5" stroke="#047857" stroke-width="1.5"/><text x="400" y="781" text-anchor="middle" font-family="monospace" font-size="12" fill="#0f172a">render PNG</text><line x1="400" y1="680" x2="400" y2="754" stroke="#0f172a" stroke-width="1.5"/><polygon points="400,754 396,746 404,746" fill="#0f172a"/><metadata data-activity-kind="PartitionEnd" data-activity-lane="Builder" data-activity-branch="0"/><metadata data-activity-kind="Stop" data-activity-lane="Builder" data-activity-branch="0"/><circle cx="400" cy="858" r="14" fill="white" stroke="#0f172a" stroke-width="1.5"/><circle cx="400" cy="858" r="7" fill="#0f172a"/><line x1="400" y1="796" x2="400" y2="838" stroke="#0f172a" stroke-width="1.5"/><polygon points="400,838 396,830 404,830" fill="#0f172a"/><line x1="584" y1="452" x2="584" y2="494" stroke="#0f172a" stroke-width="1.5"/><polygon points="584,494 580,486 588,486" fill="#0f172a"/><line x1="216" y1="322" x2="216" y2="350" stroke="#0f172a" stroke-width="1.5"/><polygon points="216,350 212,342 220,342" fill="#0f172a"/><line x1="584" y1="322" x2="584" y2="350" stroke="#0f172a" stroke-width="1.5"/><polygon points="584,350 580,342 588,342" fill="#0f172a"/></svg>