<svg xmlns="http://www.w3.org/2000/svg" width="608" height="770" viewBox="0 0 608 770"><rect width="100%" height="100%" fill="#ecfdf5"/><text x="32" y="22" font-family="monospace" font-size="16" font-weight="600" fill="#0f172a">Activity Notes, Split, and Partitions</text><rect x="16" y="70" width="360" height="680" fill="LightBlue" stroke="#cbd5e1" stroke-width="1" stroke-dasharray="4 3"/><rect x="16" y="46" width="360" height="24" fill="LightBlue" stroke="#94a3b8" stroke-width="1"/><text x="196" y="62" text-anchor="middle" font-family="monospace" font-size="11" font-weight="600" fill="#0f172a">Planner</text><rect x="16" y="70" width="360" height="680" fill="LightGreen" stroke="#cbd5e1" stroke-width="1" stroke-dasharray="4 3"/><rect x="16" y="46" width="360" height="24" fill="LightGreen" stroke="#94a3b8" stroke-width="1"/><text x="196" y="62" text-anchor="middle" font-family="monospace" font-size="11" font-weight="600" fill="#0f172a">Builder</text><rect x="16" y="70" width="360" height="680" fill="MistyRose" stroke="#cbd5e1" stroke-width="1" stroke-dasharray="4 3"/><rect x="16" y="46" width="360" height="24" fill="MistyRose" stroke="#94a3b8" stroke-width="1"/><text x="196" y="62" text-anchor="middle" font-family="monospace" font-size="11" font-weight="600" fill="#0f172a">Build</text><metadata data-activity-kind="PartitionStart" data-activity-lane="Planner" data-activity-branch="0"/><metadata data-activity-kind="Start" data-activity-lane="Planner" data-activity-branch="0"/><circle cx="196" cy="122" r="12" fill="#0f172a"/><line x1="196" y1="70" x2="196" y2="102" stroke="#0f172a" stroke-width="1.5"/><polygon points="196,102 192,94 200,94" fill="#0f172a"/><metadata data-activity-kind="Action" data-activity-lane="Planner" data-activity-branch="0"/><rect x="116" y="150" width="160" height="36" rx="18" ry="18" fill="#ecfdf5" stroke="#047857" stroke-width="1.5"/><text x="196" y="173" text-anchor="middle" font-family="monospace" font-size="12" fill="#0f172a">Gather context</text><line x1="196" y1="144" x2="196" y2="146" stroke="#0f172a" stroke-width="1.5"/><polygon points="196,146 192,138 200,138" fill="#0f172a"/><metadata data-activity-kind="Note" data-activity-lane="default" data-activity-branch="0"/><line class="activity-note-connector" x1="276" y1="168" x2="328" y2="170" stroke="#8a6d1d" stroke-width="1" stroke-dasharray="4 3"/><path d="M328,148 H472 L488 164 V206 H328 Z" fill="#fff8c4" stroke="#8a6d00" stroke-width="1.2"/><path d="M472 148 V164 H488" fill="none" stroke="#8a6d00" stroke-width="1"/><text x="338" y="170" font-family="monospace" font-size="12" fill="#3b2f00">Attach evidence without</text><text x="338" y="185" font-family="monospace" font-size="12" fill="#3b2f00">consuming a flow step.</text><metadata data-activity-kind="Arrow" data-activity-lane="Planner" data-activity-branch="0"/><metadata data-activity-kind="Action" data-activity-lane="Planner" data-activity-branch="0"/><rect x="116" y="194" width="160" height="36" rx="18" ry="18" fill="LightYellow" stroke="#047857" stroke-width="1.5"/><text x="196" y="217" text-anchor="middle" font-family="monospace" font-size="12" fill="#0f172a">Review evidence</text><line x1="196" y1="188" x2="196" y2="190" stroke="green" stroke-width="1.5" stroke-dasharray="6 4"/><polygon points="196,190 192,182 200,182" fill="green"/><text x="202" y="189" font-family="monospace" font-size="10" fill="green">evidence ready</text><metadata data-activity-kind="Fork" data-activity-lane="Planner" data-activity-branch="0"/><rect x="43" y="258" width="306" height="8" fill="#0f172a"/><line x1="196" y1="232" x2="196" y2="234" stroke="#0f172a" stroke-width="1.5"/><polygon points="196,234 192,226 200,226" fill="#0f172a"/><metadata data-activity-kind="Action" data-activity-lane="Planner" data-activity-branch="0"/><rect x="24" y="282" width="160" height="36" rx="18" ry="18" fill="#ecfdf5" stroke="#047857" stroke-width="1.5"/><text x="104" y="305" text-anchor="middle" font-family="monospace" font-size="12" fill="#0f172a">archive stale worker</text><metadata data-activity-kind="Detach" data-activity-lane="Planner" data-activity-branch="0"/><line x1="92" y1="342" x2="116" y2="342" stroke="#0f172a" stroke-width="3"/><line x1="104" y1="320" x2="104" y2="322" stroke="#0f172a" stroke-width="1.5"/><polygon points="104,322 100,314 108,314" fill="#0f172a"/><metadata data-activity-kind="ForkAgain" data-activity-lane="Planner" data-activity-branch="1"/><metadata data-activity-kind="Action" data-activity-lane="Planner" data-activity-branch="1"/><rect x="208" y="282" width="160" height="36" rx="18" ry="18" fill="#ecfdf5" stroke="#047857" stroke-width="1.5"/><text x="288" y="305" text-anchor="middle" font-family="monospace" font-size="12" fill="#0f172a">fix live branch</text><metadata data-activity-kind="Arrow" data-activity-lane="Planner" data-activity-branch="1"/><metadata data-activity-kind="Action" data-activity-lane="Planner" data-activity-branch="1"/><rect x="208" y="326" width="160" height="36" rx="18" ry="18" fill="#ecfdf5" stroke="#047857" stroke-width="1.5"/><text x="288" y="349" text-anchor="middle" font-family="monospace" font-size="12" fill="#0f172a">run checks</text><line x1="288" y1="320" x2="288" y2="322" stroke="blue" stroke-width="2.5"/><polygon points="288,322 284,314 292,314" fill="blue"/><text x="294" y="321" font-family="monospace" font-size="10" fill="blue">continue after split</text><metadata data-activity-kind="EndFork" data-activity-lane="Planner" data-activity-branch="0"/><rect x="178" y="390" width="220" height="8" fill="#0f172a"/><metadata data-activity-kind="Action" data-activity-lane="Planner" data-activity-branch="0"/><rect x="116" y="414" width="160" height="36" rx="18" ry="18" fill="#ecfdf5" stroke="#047857" stroke-width="1.5"/><text x="196" y="437" text-anchor="middle" font-family="monospace" font-size="12" fill="#0f172a">merge live branch only</text><line x1="288" y1="408" x2="288" y2="409" stroke="#0f172a" stroke-width="1.5"/><line x1="288" y1="409" x2="196" y2="409" stroke="#0f172a" stroke-width="1.5"/><line x1="196" y1="409" x2="196" y2="410" stroke="#0f172a" stroke-width="1.5"/><polygon points="196,410 192,402 200,402" fill="#0f172a"/><metadata data-activity-kind="PartitionStart" data-activity-lane="Builder" data-activity-branch="0"/><metadata data-activity-kind="PartitionStart" data-activity-lane="Build" data-activity-branch="0"/><metadata data-activity-kind="Action" data-activity-lane="Build" data-activity-branch="0"/><rect x="116" y="522" width="160" height="36" rx="18" ry="18" fill="#ecfdf5" stroke="#047857" stroke-width="1.5"/><text x="196" y="545" text-anchor="middle" font-family="monospace" font-size="12" fill="#0f172a">compile release</text><line x1="196" y1="452" x2="196" y2="518" stroke="#0f172a" stroke-width="1.5"/><polygon points="196,518 192,510 200,510" fill="#0f172a"/><metadata data-activity-kind="Note" data-activity-lane="default" data-activity-branch="0"/><line class="activity-note-connector" x1="196" y1="558" x2="356" y2="564" stroke="#8a6d1d" stroke-width="1" stroke-dasharray="4 3"/><path d="M276,564 H420 L436 580 V608 H276 Z" fill="#fff8c4" stroke="#8a6d00" stroke-width="1.2"/><path d="M420 564 V580 H436" fill="none" stroke="#8a6d00" stroke-width="1"/><text x="286" y="586" font-family="monospace" font-size="12" fill="#3b2f00">build log path</text><metadata data-activity-kind="Action" data-activity-lane="Build" data-activity-branch="0"/><rect x="116" y="622" width="160" height="36" rx="18" ry="18" fill="#ecfdf5" stroke="#047857" stroke-width="1.5"/><text x="196" y="645" text-anchor="middle" font-family="monospace" font-size="12" fill="#0f172a">render PNG</text><line x1="196" y1="560" x2="196" y2="618" stroke="#0f172a" stroke-width="1.5"/><polygon points="196,618 192,610 200,610" fill="#0f172a"/><metadata data-activity-kind="PartitionEnd" data-activity-lane="Builder" data-activity-branch="0"/><metadata data-activity-kind="Stop" data-activity-lane="Builder" data-activity-branch="0"/><circle cx="196" cy="706" r="14" fill="white" stroke="#0f172a" stroke-width="1.5"/><circle cx="196" cy="706" r="7" fill="#0f172a"/><line x1="196" y1="660" x2="196" y2="686" stroke="#0f172a" stroke-width="1.5"/><polygon points="196,686 192,678 200,678" fill="#0f172a"/><line x1="288" y1="364" x2="288" y2="390" stroke="#0f172a" stroke-width="1.5"/><polygon points="288,390 284,382 292,382" fill="#0f172a"/><line x1="104" y1="266" x2="104" y2="278" stroke="#0f172a" stroke-width="1.5"/><polygon points="104,278 100,270 108,270" fill="#0f172a"/><line x1="288" y1="266" x2="288" y2="278" stroke="#0f172a" stroke-width="1.5"/><polygon points="288,278 284,270 292,270" fill="#0f172a"/></svg>