<svg xmlns="http://www.w3.org/2000/svg" width="1060" height="982" viewBox="0 0 1060 982"><rect width="100%" height="100%" fill="#ecfdf5"/><text x="32" y="28" font-family="monospace" font-size="18" font-weight="600" fill="#0f172a">Activity Notes, Split, and Partitions</text><text x="32" y="52" font-family="monospace" font-size="12" fill="#0f172a">activity diagram</text><rect x="32" y="118" width="736" height="500" fill="LightBlue" stroke="#cbd5e1" stroke-width="1" stroke-dasharray="4 3"/><rect x="32" y="94" width="736" height="24" fill="LightBlue" stroke="#94a3b8" stroke-width="1"/><text x="400" y="110" text-anchor="middle" font-family="monospace" font-size="11" font-weight="600" fill="#0f172a">Planner</text><rect x="32" y="862" width="736" height="80" fill="LightGreen" stroke="#cbd5e1" stroke-width="1" stroke-dasharray="4 3"/><rect x="32" y="838" width="736" height="24" fill="LightGreen" stroke="#94a3b8" stroke-width="1"/><text x="400" y="854" text-anchor="middle" font-family="monospace" font-size="11" font-weight="600" fill="#0f172a">Builder</text><rect x="32" y="662" width="736" height="196" fill="MistyRose" stroke="#cbd5e1" stroke-width="1" stroke-dasharray="4 3"/><rect x="32" y="638" width="736" height="24" fill="MistyRose" stroke="#94a3b8" stroke-width="1"/><text x="400" y="654" text-anchor="middle" font-family="monospace" font-size="11" font-weight="600" fill="#0f172a">Build</text><metadata data-activity-kind="PartitionStart" data-activity-lane="Planner" data-activity-branch="0"/><metadata data-activity-kind="Start" data-activity-lane="Planner" data-activity-branch="0"/><circle cx="400" cy="138" r="12" fill="#0f172a"/><line x1="400" y1="86" x2="400" y2="118" stroke="#0f172a" stroke-width="1.5"/><polygon points="400,118 396,110 404,110" fill="#0f172a"/><metadata data-activity-kind="Action" data-activity-lane="Planner" data-activity-branch="0"/><rect x="290" y="182" width="220" height="36" rx="18" ry="18" fill="#ecfdf5" stroke="#047857" stroke-width="1.5"/><text x="400" y="205" text-anchor="middle" font-family="monospace" font-size="12" fill="#0f172a">Gather context</text><line x1="400" y1="160" x2="400" y2="178" stroke="#0f172a" stroke-width="1.5"/><polygon points="400,178 396,170 404,170" fill="#0f172a"/><metadata data-activity-kind="Note" data-activity-lane="default" data-activity-branch="0"/><line class="activity-note-connector" x1="510" y1="200" x2="690" y2="202" stroke="#8a6d1d" stroke-width="1" stroke-dasharray="4 3"/><path d="M690,180 H894 L910 196 V238 H690 Z" fill="#fff8c4" stroke="#8a6d00" stroke-width="1.2"/><path d="M894 180 V196 H910" fill="none" stroke="#8a6d00" stroke-width="1"/><text x="700" y="202" font-family="monospace" font-size="12" fill="#3b2f00">Attach evidence without</text><text x="700" y="217" font-family="monospace" font-size="12" fill="#3b2f00">consuming a flow step.</text><metadata data-activity-kind="Arrow" data-activity-lane="Planner" data-activity-branch="0"/><metadata data-activity-kind="Action" data-activity-lane="Planner" data-activity-branch="0"/><rect x="290" y="242" width="220" height="36" rx="18" ry="18" fill="LightYellow" stroke="#047857" stroke-width="1.5"/><text x="400" y="265" text-anchor="middle" font-family="monospace" font-size="12" fill="#0f172a">Review evidence</text><line x1="400" y1="220" x2="400" y2="238" stroke="green" stroke-width="1.5" stroke-dasharray="6 4"/><polygon points="400,238 396,230 404,230" fill="green"/><text x="406" y="229" font-family="monospace" font-size="10" fill="green">evidence ready</text><metadata data-activity-kind="Fork" data-activity-lane="Planner" data-activity-branch="0"/><rect x="32" y="322" width="736" height="8" fill="#0f172a"/><line x1="400" y1="280" x2="400" y2="298" stroke="#0f172a" stroke-width="1.5"/><polygon points="400,298 396,290 404,290" fill="#0f172a"/><metadata data-activity-kind="Action" data-activity-lane="Planner" data-activity-branch="0"/><rect x="106" y="362" width="220" height="36" rx="18" ry="18" fill="#ecfdf5" stroke="#047857" stroke-width="1.5"/><text x="216" y="385" text-anchor="middle" font-family="monospace" font-size="12" fill="#0f172a">archive stale worker</text><metadata data-activity-kind="Detach" data-activity-lane="Planner" data-activity-branch="0"/><line x1="204" y1="438" x2="228" y2="438" stroke="#0f172a" stroke-width="3"/><line x1="216" y1="400" x2="216" y2="418" stroke="#0f172a" stroke-width="1.5"/><polygon points="216,418 212,410 220,410" fill="#0f172a"/><metadata data-activity-kind="ForkAgain" data-activity-lane="Planner" data-activity-branch="1"/><metadata data-activity-kind="Action" data-activity-lane="Planner" data-activity-branch="1"/><rect x="474" y="362" width="220" height="36" rx="18" ry="18" fill="#ecfdf5" stroke="#047857" stroke-width="1.5"/><text x="584" y="385" text-anchor="middle" font-family="monospace" font-size="12" fill="#0f172a">fix live branch</text><metadata data-activity-kind="Arrow" data-activity-lane="Planner" data-activity-branch="1"/><metadata data-activity-kind="Action" data-activity-lane="Planner" data-activity-branch="1"/><rect x="474" y="422" width="220" height="36" rx="18" ry="18" fill="#ecfdf5" stroke="#047857" stroke-width="1.5"/><text x="584" y="445" text-anchor="middle" font-family="monospace" font-size="12" fill="#0f172a">run checks</text><line x1="584" y1="400" x2="584" y2="418" stroke="blue" stroke-width="2.5"/><polygon points="584,418 580,410 588,410" fill="blue"/><text x="590" y="409" font-family="monospace" font-size="10" fill="blue">continue after split</text><metadata data-activity-kind="EndFork" data-activity-lane="Planner" data-activity-branch="0"/><rect x="474" y="502" width="220" height="8" fill="#0f172a"/><metadata data-activity-kind="Action" data-activity-lane="Planner" data-activity-branch="0"/><rect x="290" y="542" width="220" height="36" rx="18" ry="18" fill="#ecfdf5" stroke="#047857" stroke-width="1.5"/><text x="400" y="565" text-anchor="middle" font-family="monospace" font-size="12" fill="#0f172a">merge live branch only</text><line x1="584" y1="520" x2="584" y2="529" stroke="#0f172a" stroke-width="1.5"/><line x1="584" y1="529" x2="400" y2="529" stroke="#0f172a" stroke-width="1.5"/><line x1="400" y1="529" x2="400" y2="538" stroke="#0f172a" stroke-width="1.5"/><polygon points="400,538 396,530 404,530" fill="#0f172a"/><metadata data-activity-kind="PartitionStart" data-activity-lane="Builder" data-activity-branch="0"/><metadata data-activity-kind="PartitionStart" data-activity-lane="Build" data-activity-branch="0"/><metadata data-activity-kind="Action" data-activity-lane="Build" data-activity-branch="0"/><rect x="290" y="666" width="220" height="36" rx="18" ry="18" fill="#ecfdf5" stroke="#047857" stroke-width="1.5"/><text x="400" y="689" text-anchor="middle" font-family="monospace" font-size="12" fill="#0f172a">compile release</text><line x1="400" y1="580" x2="400" y2="662" stroke="#0f172a" stroke-width="1.5"/><polygon points="400,662 396,654 404,654" fill="#0f172a"/><metadata data-activity-kind="Note" data-activity-lane="default" data-activity-branch="0"/><line class="activity-note-connector" x1="400" y1="702" x2="584" y2="724" stroke="#8a6d1d" stroke-width="1" stroke-dasharray="4 3"/><path d="M474,724 H678 L694 740 V768 H474 Z" fill="#fff8c4" stroke="#8a6d00" stroke-width="1.2"/><path d="M678 724 V740 H694" fill="none" stroke="#8a6d00" stroke-width="1"/><text x="484" y="746" font-family="monospace" font-size="12" fill="#3b2f00">build log path</text><metadata data-activity-kind="Action" data-activity-lane="Build" data-activity-branch="0"/><rect x="290" y="782" width="220" height="36" rx="18" ry="18" fill="#ecfdf5" stroke="#047857" stroke-width="1.5"/><text x="400" y="805" text-anchor="middle" font-family="monospace" font-size="12" fill="#0f172a">render PNG</text><line x1="400" y1="704" x2="400" y2="778" stroke="#0f172a" stroke-width="1.5"/><polygon points="400,778 396,770 404,770" fill="#0f172a"/><metadata data-activity-kind="PartitionEnd" data-activity-lane="Builder" data-activity-branch="0"/><metadata data-activity-kind="Stop" data-activity-lane="Builder" data-activity-branch="0"/><circle cx="400" cy="882" r="14" fill="white" stroke="#0f172a" stroke-width="1.5"/><circle cx="400" cy="882" r="7" fill="#0f172a"/><line x1="400" y1="820" x2="400" y2="862" stroke="#0f172a" stroke-width="1.5"/><polygon points="400,862 396,854 404,854" fill="#0f172a"/><line x1="584" y1="460" x2="584" y2="502" stroke="#0f172a" stroke-width="1.5"/><polygon points="584,502 580,494 588,494" fill="#0f172a"/><line x1="216" y1="330" x2="216" y2="358" stroke="#0f172a" stroke-width="1.5"/><polygon points="216,358 212,350 220,350" fill="#0f172a"/><line x1="584" y1="330" x2="584" y2="358" stroke="#0f172a" stroke-width="1.5"/><polygon points="584,358 580,350 588,350" fill="#0f172a"/></svg>