<svg xmlns="http://www.w3.org/2000/svg" width="408" height="376" viewBox="0 0 408 376"><rect width="100%" height="100%" fill="#eff6ff"/><metadata data-activity-kind="Start" data-activity-lane="default" data-activity-branch="0"/><circle cx="196" cy="48" r="12" fill="#7c2d12"/><metadata data-activity-kind="Action" data-activity-lane="default" data-activity-branch="0"/><rect x="116" y="76" width="160" height="36" rx="18" ry="18" fill="#eff6ff" stroke="#2563eb" stroke-width="1.5"/><text x="196" y="99" text-anchor="middle" font-family="monospace" font-size="12" fill="#1e3a8a">Receive request</text><polyline points="196,70 196,72" fill="none" stroke="#1d4ed8" stroke-width="1.5"/><polygon points="196,72 192,64 200,64" fill="#1d4ed8"/><metadata data-activity-kind="IfStart" data-activity-lane="default" data-activity-branch="0"/><polygon points="196,118 296,140 196,162 96,140" fill="#fef3c7" stroke="#2563eb" stroke-width="1.5"/><text x="196" y="144" text-anchor="middle" font-family="monospace" font-size="11" fill="#1e3a8a">ready?</text><polyline points="196,114 196,116" fill="none" stroke="#1d4ed8" stroke-width="1.5"/><polygon points="196,116 192,108 200,108" fill="#1d4ed8"/><metadata data-activity-kind="Action" data-activity-lane="default" data-activity-branch="0"/><rect x="36" y="164" width="160" height="36" rx="18" ry="18" fill="#eff6ff" stroke="#2563eb" stroke-width="1.5"/><text x="116" y="187" text-anchor="middle" font-family="monospace" font-size="12" fill="#1e3a8a">Ship order</text><polyline points="96,140 96,150 116,150 116,160" fill="none" stroke="#1d4ed8" stroke-width="1.5"/><polygon points="116,160 112,152 120,152" fill="#1d4ed8"/><text x="122" y="150" font-family="monospace" font-size="10" fill="#1d4ed8">yes</text><metadata data-activity-kind="Else" data-activity-lane="default" data-activity-branch="0"/><metadata data-activity-kind="Action" data-activity-lane="default" data-activity-branch="0"/><rect x="196" y="208" width="160" height="36" rx="18" ry="18" fill="#eff6ff" stroke="#2563eb" stroke-width="1.5"/><text x="276" y="231" text-anchor="middle" font-family="monospace" font-size="12" fill="#1e3a8a">Queue retry</text><polyline points="196,158 196,181 276,181 276,204" fill="none" stroke="#1d4ed8" stroke-width="1.5"/><polygon points="276,204 272,196 280,196" fill="#1d4ed8"/><text x="282" y="181" font-family="monospace" font-size="10" fill="#1d4ed8">no</text><metadata data-activity-kind="EndIf" data-activity-lane="default" data-activity-branch="0"/><metadata data-activity-kind="Stop" data-activity-lane="default" data-activity-branch="0"/><circle cx="196" cy="312" r="14" fill="white" stroke="#7c2d12" stroke-width="1.5"/><circle cx="196" cy="312" r="7" fill="#7c2d12"/><polyline points="116,202 116,247 196,247 196,292" fill="none" stroke="#1d4ed8" stroke-width="1.5"/><polygon points="196,292 192,284 200,284" fill="#1d4ed8"/><polyline points="276,246 276,269 196,269 196,292" fill="none" stroke="#1d4ed8" stroke-width="1.5"/><polygon points="196,292 192,284 200,284" fill="#1d4ed8"/></svg>