<svg xmlns="http://www.w3.org/2000/svg" width="408" height="376" viewBox="0 0 408 376"><rect width="100%" height="100%" fill="#eff6ff"/><metadata data-activity-kind="Start" data-activity-lane="default" data-activity-branch="0"/><circle cx="196" cy="48" r="12" fill="#7c2d12"/><metadata data-activity-kind="Action" data-activity-lane="default" data-activity-branch="0"/><rect x="116" y="76" width="160" height="36" rx="18" ry="18" fill="#eff6ff" stroke="#2563eb" stroke-width="1.5"/><text x="196" y="99" text-anchor="middle" font-family="monospace" font-size="12" fill="#1e3a8a">Receive request</text><line x1="196" y1="70" x2="196" y2="72" stroke="#1d4ed8" stroke-width="1.5"/><polygon points="196,72 192,64 200,64" fill="#1d4ed8"/><metadata data-activity-kind="IfStart" data-activity-lane="default" data-activity-branch="0"/><polygon points="196,118 296,140 196,162 96,140" fill="#fef3c7" stroke="#2563eb" stroke-width="1.5"/><text x="196" y="144" text-anchor="middle" font-family="monospace" font-size="11" fill="#1e3a8a">ready?</text><line x1="196" y1="114" x2="196" y2="116" stroke="#1d4ed8" stroke-width="1.5"/><polygon points="196,116 192,108 200,108" fill="#1d4ed8"/><metadata data-activity-kind="Action" data-activity-lane="default" data-activity-branch="0"/><rect x="36" y="164" width="160" height="36" rx="18" ry="18" fill="#eff6ff" stroke="#2563eb" stroke-width="1.5"/><text x="116" y="187" text-anchor="middle" font-family="monospace" font-size="12" fill="#1e3a8a">Ship order</text><line x1="96" y1="140" x2="96" y2="150" stroke="#1d4ed8" stroke-width="1.5"/><line x1="96" y1="150" x2="116" y2="150" stroke="#1d4ed8" stroke-width="1.5"/><line x1="116" y1="150" x2="116" y2="160" stroke="#1d4ed8" stroke-width="1.5"/><polygon points="116,160 112,152 120,152" fill="#1d4ed8"/><text x="110" y="146" font-family="monospace" font-size="10" fill="#1d4ed8">no</text><metadata data-activity-kind="Else" data-activity-lane="default" data-activity-branch="0"/><metadata data-activity-kind="Action" data-activity-lane="default" data-activity-branch="0"/><rect x="196" y="208" width="160" height="36" rx="18" ry="18" fill="#eff6ff" stroke="#2563eb" stroke-width="1.5"/><text x="276" y="231" text-anchor="middle" font-family="monospace" font-size="12" fill="#1e3a8a">Queue retry</text><line x1="196" y1="158" x2="196" y2="181" stroke="#1d4ed8" stroke-width="1.5"/><line x1="196" y1="181" x2="276" y2="181" stroke="#1d4ed8" stroke-width="1.5"/><line x1="276" y1="181" x2="276" y2="204" stroke="#1d4ed8" stroke-width="1.5"/><polygon points="276,204 272,196 280,196" fill="#1d4ed8"/><text x="240" y="177" font-family="monospace" font-size="10" fill="#1d4ed8">yes</text><metadata data-activity-kind="EndIf" data-activity-lane="default" data-activity-branch="0"/><metadata data-activity-kind="Stop" data-activity-lane="default" data-activity-branch="0"/><circle cx="196" cy="312" r="14" fill="white" stroke="#7c2d12" stroke-width="1.5"/><circle cx="196" cy="312" r="7" fill="#7c2d12"/><line x1="116" y1="202" x2="116" y2="247" stroke="#1d4ed8" stroke-width="1.5"/><line x1="116" y1="247" x2="196" y2="247" stroke="#1d4ed8" stroke-width="1.5"/><line x1="196" y1="247" x2="196" y2="292" stroke="#1d4ed8" stroke-width="1.5"/><polygon points="196,292 192,284 200,284" fill="#1d4ed8"/><line x1="276" y1="246" x2="276" y2="269" stroke="#1d4ed8" stroke-width="1.5"/><line x1="276" y1="269" x2="196" y2="269" stroke="#1d4ed8" stroke-width="1.5"/><line x1="196" y1="269" x2="196" y2="292" stroke="#1d4ed8" stroke-width="1.5"/><polygon points="196,292 192,284 200,284" fill="#1d4ed8"/></svg>