<svg xmlns="http://www.w3.org/2000/svg" width="800" height="520" viewBox="0 0 800 520"><rect width="100%" height="100%" fill="#eff6ff"/><metadata data-activity-kind="Start" data-activity-lane="default" data-activity-branch="0"/><circle cx="400" cy="60" r="12" fill="#7c2d12"/><metadata data-activity-kind="Action" data-activity-lane="default" data-activity-branch="0"/><rect x="290" y="104" width="220" height="36" rx="18" ry="18" fill="#eff6ff" stroke="#2563eb" stroke-width="1.5"/><text x="400" y="127" text-anchor="middle" font-family="monospace" font-size="12" fill="#1e3a8a">Receive request</text><line x1="400" y1="82" x2="400" y2="100" stroke="#1d4ed8" stroke-width="1.5"/><polygon points="400,100 396,92 404,92" fill="#1d4ed8"/><metadata data-activity-kind="IfStart" data-activity-lane="default" data-activity-branch="0"/><polygon points="400,162 500,184 400,206 300,184" fill="#fef3c7" stroke="#2563eb" stroke-width="1.5"/><text x="400" y="188" text-anchor="middle" font-family="monospace" font-size="11" fill="#1e3a8a">ready?</text><line x1="400" y1="142" x2="400" y2="160" stroke="#1d4ed8" stroke-width="1.5"/><polygon points="400,160 396,152 404,152" fill="#1d4ed8"/><metadata data-activity-kind="Action" data-activity-lane="default" data-activity-branch="0"/><rect x="130" y="224" width="220" height="36" rx="18" ry="18" fill="#eff6ff" stroke="#2563eb" stroke-width="1.5"/><text x="240" y="247" text-anchor="middle" font-family="monospace" font-size="12" fill="#1e3a8a">Ship order</text><line x1="300" y1="184" x2="300" y2="202" stroke="#1d4ed8" stroke-width="1.5"/><line x1="300" y1="202" x2="240" y2="202" stroke="#1d4ed8" stroke-width="1.5"/><line x1="240" y1="202" x2="240" y2="220" stroke="#1d4ed8" stroke-width="1.5"/><polygon points="240,220 236,212 244,212" fill="#1d4ed8"/><text x="274" y="198" font-family="monospace" font-size="10" fill="#1d4ed8">no</text><metadata data-activity-kind="Else" data-activity-lane="default" data-activity-branch="0"/><metadata data-activity-kind="Action" data-activity-lane="default" data-activity-branch="0"/><rect x="450" y="284" width="220" height="36" rx="18" ry="18" fill="#eff6ff" stroke="#2563eb" stroke-width="1.5"/><text x="560" y="307" text-anchor="middle" font-family="monospace" font-size="12" fill="#1e3a8a">Queue retry</text><line x1="400" y1="202" x2="400" y2="241" stroke="#1d4ed8" stroke-width="1.5"/><line x1="400" y1="241" x2="560" y2="241" stroke="#1d4ed8" stroke-width="1.5"/><line x1="560" y1="241" x2="560" y2="280" stroke="#1d4ed8" stroke-width="1.5"/><polygon points="560,280 556,272 564,272" fill="#1d4ed8"/><text x="484" y="237" font-family="monospace" font-size="10" fill="#1d4ed8">yes</text><metadata data-activity-kind="EndIf" data-activity-lane="default" data-activity-branch="0"/><metadata data-activity-kind="Stop" data-activity-lane="default" data-activity-branch="0"/><circle cx="400" cy="420" r="14" fill="white" stroke="#7c2d12" stroke-width="1.5"/><circle cx="400" cy="420" r="7" fill="#7c2d12"/><line x1="240" y1="262" x2="240" y2="331" stroke="#1d4ed8" stroke-width="1.5"/><line x1="240" y1="331" x2="400" y2="331" stroke="#1d4ed8" stroke-width="1.5"/><line x1="400" y1="331" x2="400" y2="400" stroke="#1d4ed8" stroke-width="1.5"/><polygon points="400,400 396,392 404,392" fill="#1d4ed8"/><line x1="560" y1="322" x2="560" y2="361" stroke="#1d4ed8" stroke-width="1.5"/><line x1="560" y1="361" x2="400" y2="361" stroke="#1d4ed8" stroke-width="1.5"/><line x1="400" y1="361" x2="400" y2="400" stroke="#1d4ed8" stroke-width="1.5"/><polygon points="400,400 396,392 404,392" fill="#1d4ed8"/></svg>