<svg xmlns="http://www.w3.org/2000/svg" width="400" height="232" viewBox="0 0 400 232"><rect width="100%" height="100%" fill="#f0f4f8"/><defs><marker id="arrow-open" viewBox="0 0 10 10" refX="9" refY="5" markerWidth="10" markerHeight="10" markerUnits="userSpaceOnUse" orient="auto-start-reverse"><path d="M0,0 L10,5 L0,10" fill="none" stroke="#1e293b" stroke-width="1.5"/></marker><marker id="arrow-triangle" viewBox="0 0 12 12" refX="11" refY="6" markerWidth="12" markerHeight="12" markerUnits="userSpaceOnUse" orient="auto-start-reverse"><polygon points="0,0 12,6 0,12" fill="#ffffff" stroke="#1e293b" stroke-width="1.5" fill-rule="nonzero"/></marker><marker id="arrow-diamond-filled" viewBox="0 0 14 10" refX="13" refY="5" markerWidth="14" markerHeight="10" markerUnits="userSpaceOnUse" orient="auto-start-reverse"><path d="M0,5 L7,0 L14,5 L7,10 z" fill="#1e293b" stroke="#1e293b" stroke-width="1"/></marker><marker id="arrow-diamond-open" viewBox="0 0 14 10" refX="13" refY="5" markerWidth="14" markerHeight="10" markerUnits="userSpaceOnUse" orient="auto-start-reverse"><path d="M0,5 L7,0 L14,5 L7,10 z" fill="#ffffff" stroke="#1e293b" stroke-width="1"/></marker></defs><desc data-uml-id="Frontend">Frontend</desc><rect class="uml-node uml-component" data-uml-kind="component" x="40" y="72" width="200" height="80" rx="4" ry="4" fill="#f0f4f8" stroke="#1e293b" stroke-width="1"/><rect x="36" y="84" width="16" height="8" fill="#f0f4f8" stroke="#1e293b" stroke-width="1"/><rect x="36" y="132" width="16" height="8" fill="#f0f4f8" stroke="#1e293b" stroke-width="1"/><text x="140" y="118" text-anchor="middle" font-family="monospace" font-size="13" font-weight="600" fill="#0f172a">Frontend</text><text x="140" y="86" text-anchor="middle" font-family="monospace" font-size="10" fill="#0f172a">«component»</text><desc data-uml-id="Backend">Backend</desc><rect class="uml-node uml-component" data-uml-kind="component" x="280" y="72" width="200" height="80" rx="4" ry="4" fill="#f0f4f8" stroke="#1e293b" stroke-width="1"/><rect x="276" y="84" width="16" height="8" fill="#f0f4f8" stroke="#1e293b" stroke-width="1"/><rect x="276" y="132" width="16" height="8" fill="#f0f4f8" stroke="#1e293b" stroke-width="1"/><text x="380" y="118" text-anchor="middle" font-family="monospace" font-size="13" font-weight="600" fill="#0f172a">Backend</text><text x="380" y="86" text-anchor="middle" font-family="monospace" font-size="10" fill="#0f172a">«component»</text><line class="uml-relation" data-uml-from="Frontend" data-uml-to="Backend" data-uml-arrow="--&gt;" x1="240" y1="112" x2="280" y2="112" stroke="#1e293b" stroke-width="2" marker-end="url(#arrow-open)" /><text x="260" y="100" text-anchor="middle" font-family="monospace" font-size="11" fill="#1e293b">calls</text></svg>