<svg xmlns="http://www.w3.org/2000/svg" width="664" height="504" viewBox="0 0 664 504"><rect width="100%" height="100%" fill="#f0f4f8"/><defs><marker id="arrow-open" viewBox="0 0 10 10" refX="9" refY="5" markerWidth="10" markerHeight="10" markerUnits="userSpaceOnUse" orient="auto-start-reverse"><path d="M0,0 L10,5 L0,10" fill="none" stroke="#1e293b" stroke-width="1.5"/></marker><marker id="arrow-triangle" viewBox="0 0 12 12" refX="11" refY="6" markerWidth="12" markerHeight="12" markerUnits="userSpaceOnUse" orient="auto-start-reverse"><polygon points="0,0 12,6 0,12" fill="#ffffff" stroke="#1e293b" stroke-width="1.5" fill-rule="nonzero"/></marker><marker id="arrow-diamond-filled" viewBox="0 0 14 10" refX="13" refY="5" markerWidth="14" markerHeight="10" markerUnits="userSpaceOnUse" orient="auto-start-reverse"><path d="M0,5 L7,0 L14,5 L7,10 z" fill="#1e293b" stroke="#1e293b" stroke-width="1"/></marker><marker id="arrow-diamond-open" viewBox="0 0 14 10" refX="13" refY="5" markerWidth="14" markerHeight="10" markerUnits="userSpaceOnUse" orient="auto-start-reverse"><path d="M0,5 L7,0 L14,5 L7,10 z" fill="#ffffff" stroke="#1e293b" stroke-width="1"/></marker></defs><desc data-uml-id="API">API</desc><rect class="uml-node uml-component" data-uml-kind="component" x="92" y="92" width="200" height="80" rx="4" ry="4" fill="#f0f4f8" stroke="#1e293b" stroke-width="1"/><rect x="88" y="104" width="16" height="8" fill="#f0f4f8" stroke="#1e293b" stroke-width="1"/><rect x="88" y="152" width="16" height="8" fill="#f0f4f8" stroke="#1e293b" stroke-width="1"/><text x="192" y="138" text-anchor="middle" font-family="monospace" font-size="13" font-weight="600" fill="#0f172a">API</text><text x="192" y="106" text-anchor="middle" font-family="monospace" font-size="10" fill="#0f172a">«component»</text><desc data-uml-id="REST">REST</desc><circle class="uml-node uml-interface" data-uml-kind="interface" cx="432" cy="332" r="18" fill="#e2e8f0" stroke="#1e293b" stroke-width="1.5"/><text x="432" y="360" text-anchor="middle" font-family="monospace" font-size="13" font-weight="600" fill="#0f172a">REST</text><text x="432" y="374" text-anchor="middle" font-family="monospace" font-size="10" fill="#0f172a">«interface»</text><desc data-uml-id="GraphQL">GraphQL</desc><circle class="uml-node uml-interface" data-uml-kind="interface" cx="192" cy="332" r="18" fill="#e2e8f0" stroke="#1e293b" stroke-width="1.5"/><text x="192" y="360" text-anchor="middle" font-family="monospace" font-size="13" font-weight="600" fill="#0f172a">GraphQL</text><text x="192" y="374" text-anchor="middle" font-family="monospace" font-size="10" fill="#0f172a">«interface»</text><desc data-uml-id="Client">Client</desc><rect class="uml-node uml-component" data-uml-kind="component" x="332" y="92" width="200" height="80" rx="4" ry="4" fill="#f0f4f8" stroke="#1e293b" stroke-width="1"/><rect x="328" y="104" width="16" height="8" fill="#f0f4f8" stroke="#1e293b" stroke-width="1"/><rect x="328" y="152" width="16" height="8" fill="#f0f4f8" stroke="#1e293b" stroke-width="1"/><text x="432" y="138" text-anchor="middle" font-family="monospace" font-size="13" font-weight="600" fill="#0f172a">Client</text><text x="432" y="106" text-anchor="middle" font-family="monospace" font-size="10" fill="#0f172a">«component»</text><polyline class="uml-relation" data-uml-from="API" data-uml-to="REST" data-uml-arrow="--&gt;" points="192,172 192,220 432,220 432,292" fill="none" stroke="#1e293b" stroke-width="2" marker-end="url(#arrow-open)" /><polyline class="uml-relation" data-uml-from="API" data-uml-to="GraphQL" data-uml-arrow="--&gt;" points="192,172 192,228 192,228 192,292" fill="none" stroke="#1e293b" stroke-width="2" marker-end="url(#arrow-open)" /><polyline class="uml-relation" data-uml-from="Client" data-uml-to="REST" data-uml-arrow="--&gt;" points="432,172 432,236 432,236 432,292" fill="none" stroke="#1e293b" stroke-width="2" marker-end="url(#arrow-open)" /><text x="312" y="208" text-anchor="middle" font-family="monospace" font-size="11" fill="#1e293b">provides</text><text x="192" y="216" text-anchor="middle" font-family="monospace" font-size="11" fill="#1e293b">provides</text><text x="432" y="224" text-anchor="middle" font-family="monospace" font-size="11" fill="#1e293b">uses</text></svg>