<svg xmlns="http://www.w3.org/2000/svg" width="760" height="360" viewBox="0 0 760 360"><rect width="100%" height="100%" fill="white"/><text x="40" y="30" font-family="monospace" font-size="12" fill="#475569">component diagram</text><rect x="40" y="100" width="200" height="80" rx="4" ry="4" fill="#fefce8" stroke="#a16207" stroke-width="1"/><rect x="36" y="112" width="16" height="8" fill="#fefce8" stroke="#a16207" stroke-width="1"/><rect x="36" y="160" width="16" height="8" fill="#fefce8" stroke="#a16207" stroke-width="1"/><text x="140" y="146" text-anchor="middle" font-family="monospace" font-size="13" font-weight="600">API</text><text x="140" y="114" text-anchor="middle" font-family="monospace" font-size="10" fill="#475569">component</text><circle cx="380" cy="140" r="18" fill="#f1f5f9" stroke="#0f172a" stroke-width="1.5"/><text x="380" y="168" text-anchor="middle" font-family="monospace" font-size="13" font-weight="600">REST</text><text x="380" y="182" text-anchor="middle" font-family="monospace" font-size="10" fill="#475569">interface</text><circle cx="620" cy="140" r="18" fill="#f1f5f9" stroke="#0f172a" stroke-width="1.5"/><text x="620" y="168" text-anchor="middle" font-family="monospace" font-size="13" font-weight="600">GraphQL</text><text x="620" y="182" text-anchor="middle" font-family="monospace" font-size="10" fill="#475569">interface</text><rect x="40" y="220" width="200" height="80" rx="4" ry="4" fill="#fefce8" stroke="#a16207" stroke-width="1"/><rect x="36" y="232" width="16" height="8" fill="#fefce8" stroke="#a16207" stroke-width="1"/><rect x="36" y="280" width="16" height="8" fill="#fefce8" stroke="#a16207" stroke-width="1"/><text x="140" y="266" text-anchor="middle" font-family="monospace" font-size="13" font-weight="600">Client</text><text x="140" y="234" text-anchor="middle" font-family="monospace" font-size="10" fill="#475569">component</text><line x1="240" y1="140" x2="280" y2="140" stroke="#334155" stroke-width="1.5"/><polygon points="280,140 272,144 272,136" fill="#334155"/><text x="260" y="134" text-anchor="middle" font-family="monospace" font-size="11" fill="#1e293b">provides</text><line x1="240" y1="140" x2="520" y2="140" stroke="#334155" stroke-width="1.5"/><polygon points="520,140 512,144 512,136" fill="#334155"/><text x="380" y="134" text-anchor="middle" font-family="monospace" font-size="11" fill="#1e293b">provides</text><line x1="220" y1="220" x2="300" y2="180" stroke="#334155" stroke-width="1.5"/><polygon points="300,180 294,187 291,180" fill="#334155"/><text x="260" y="194" text-anchor="middle" font-family="monospace" font-size="11" fill="#1e293b">uses</text></svg>