<svg xmlns="http://www.w3.org/2000/svg" width="664" height="808" viewBox="0 0 664 808"><rect width="100%" height="100%" fill="#f0f4f8"/><defs><marker id="arrow-open" viewBox="0 0 10 10" refX="9" refY="5" markerWidth="10" markerHeight="10" markerUnits="userSpaceOnUse" orient="auto-start-reverse"><path d="M0,0 L10,5 L0,10" fill="none" stroke="#1e293b" stroke-width="1.5"/></marker><marker id="arrow-triangle" viewBox="0 0 12 12" refX="11" refY="6" markerWidth="12" markerHeight="12" markerUnits="userSpaceOnUse" orient="auto-start-reverse"><polygon points="0,0 12,6 0,12" fill="#ffffff" stroke="#1e293b" stroke-width="1.5" fill-rule="nonzero"/></marker><marker id="arrow-diamond-filled" viewBox="0 0 14 10" refX="13" refY="5" markerWidth="14" markerHeight="10" markerUnits="userSpaceOnUse" orient="auto-start-reverse"><path d="M0,5 L7,0 L14,5 L7,10 z" fill="#1e293b" stroke="#1e293b" stroke-width="1"/></marker><marker id="arrow-diamond-open" viewBox="0 0 14 10" refX="13" refY="5" markerWidth="14" markerHeight="10" markerUnits="userSpaceOnUse" orient="auto-start-reverse"><path d="M0,5 L7,0 L14,5 L7,10 z" fill="#ffffff" stroke="#1e293b" stroke-width="1"/></marker></defs><rect class="uml-group-frame" data-uml-group="Frontend" x="68" y="40" width="488" height="156" rx="8" ry="8" fill="#f8faff" stroke="#1e293b" stroke-width="1.5"/><rect x="68" y="40" width="144" height="28" rx="8" ry="8" fill="#1e293b" stroke="#1e293b" stroke-width="1.5"/><rect x="68" y="60" width="144" height="8" fill="#1e293b" stroke="none"/><text x="76" y="60" font-family="monospace" font-size="11" font-weight="600" fill="#ffffff">package Frontend</text><line x1="68" y1="68" x2="556" y2="68" stroke="#1e293b" stroke-width="1"/><rect class="uml-group-frame" data-uml-group="Backend" x="68" y="292" width="488" height="408" rx="8" ry="8" fill="#f8faff" stroke="#1e293b" stroke-width="1.5"/><rect x="68" y="292" width="136" height="28" rx="8" ry="8" fill="#1e293b" stroke="#1e293b" stroke-width="1.5"/><rect x="68" y="312" width="136" height="8" fill="#1e293b" stroke="none"/><text x="76" y="312" font-family="monospace" font-size="11" font-weight="600" fill="#ffffff">package Backend</text><line x1="68" y1="320" x2="556" y2="320" stroke="#1e293b" stroke-width="1"/><desc data-uml-id="Frontend::WebApp">Frontend::WebApp</desc><rect class="uml-node uml-component" data-uml-kind="component" x="92" y="92" width="200" height="80" rx="4" ry="4" fill="#f0f4f8" stroke="#1e293b" stroke-width="1"/><rect x="88" y="104" width="16" height="8" fill="#f0f4f8" stroke="#1e293b" stroke-width="1"/><rect x="88" y="152" width="16" height="8" fill="#f0f4f8" stroke="#1e293b" stroke-width="1"/><text x="192" y="138" text-anchor="middle" font-family="monospace" font-size="13" font-weight="600" fill="#0f172a">WebApp</text><text x="192" y="106" text-anchor="middle" font-family="monospace" font-size="10" fill="#0f172a">«component»</text><desc data-uml-id="Frontend::MobileApp">Frontend::MobileApp</desc><rect class="uml-node uml-component" data-uml-kind="component" x="332" y="92" width="200" height="80" rx="4" ry="4" fill="#f0f4f8" stroke="#1e293b" stroke-width="1"/><rect x="328" y="104" width="16" height="8" fill="#f0f4f8" stroke="#1e293b" stroke-width="1"/><rect x="328" y="152" width="16" height="8" fill="#f0f4f8" stroke="#1e293b" stroke-width="1"/><text x="432" y="138" text-anchor="middle" font-family="monospace" font-size="13" font-weight="600" fill="#0f172a">MobileApp</text><text x="432" y="106" text-anchor="middle" font-family="monospace" font-size="10" fill="#0f172a">«component»</text><desc data-uml-id="Backend::AuthService">Backend::AuthService</desc><rect class="uml-node uml-component" data-uml-kind="component" x="332" y="344" width="200" height="80" rx="4" ry="4" fill="#f0f4f8" stroke="#1e293b" stroke-width="1"/><rect x="328" y="356" width="16" height="8" fill="#f0f4f8" stroke="#1e293b" stroke-width="1"/><rect x="328" y="404" width="16" height="8" fill="#f0f4f8" stroke="#1e293b" stroke-width="1"/><text x="432" y="390" text-anchor="middle" font-family="monospace" font-size="13" font-weight="600" fill="#0f172a">AuthService</text><text x="432" y="358" text-anchor="middle" font-family="monospace" font-size="10" fill="#0f172a">«component»</text><desc data-uml-id="Backend::OrderService">Backend::OrderService</desc><rect class="uml-node uml-component" data-uml-kind="component" x="92" y="344" width="200" height="80" rx="4" ry="4" fill="#f0f4f8" stroke="#1e293b" stroke-width="1"/><rect x="88" y="356" width="16" height="8" fill="#f0f4f8" stroke="#1e293b" stroke-width="1"/><rect x="88" y="404" width="16" height="8" fill="#f0f4f8" stroke="#1e293b" stroke-width="1"/><text x="192" y="390" text-anchor="middle" font-family="monospace" font-size="13" font-weight="600" fill="#0f172a">OrderService</text><text x="192" y="358" text-anchor="middle" font-family="monospace" font-size="10" fill="#0f172a">«component»</text><desc data-uml-id="Backend::NotificationService">Backend::NotificationService</desc><rect class="uml-node uml-component" data-uml-kind="component" x="212" y="596" width="200" height="80" rx="4" ry="4" fill="#f0f4f8" stroke="#1e293b" stroke-width="1"/><rect x="208" y="608" width="16" height="8" fill="#f0f4f8" stroke="#1e293b" stroke-width="1"/><rect x="208" y="656" width="16" height="8" fill="#f0f4f8" stroke="#1e293b" stroke-width="1"/><text x="312" y="642" text-anchor="middle" font-family="monospace" font-size="13" font-weight="600" fill="#0f172a">NotificationService</text><text x="312" y="610" text-anchor="middle" font-family="monospace" font-size="10" fill="#0f172a">«component»</text><polyline class="uml-relation" data-uml-from="WebApp" data-uml-to="AuthService" data-uml-arrow="--&gt;" points="192,172 192,250 432,250 432,344" fill="none" stroke="#1e293b" stroke-width="2" marker-end="url(#arrow-open)" /><polyline class="uml-relation" data-uml-from="WebApp" data-uml-to="OrderService" data-uml-arrow="--&gt;" points="192,172 192,258 192,344" fill="none" stroke="#1e293b" stroke-width="2" marker-end="url(#arrow-open)" /><polyline class="uml-relation" data-uml-from="MobileApp" data-uml-to="AuthService" data-uml-arrow="--&gt;" points="432,172 432,266 432,344" fill="none" stroke="#1e293b" stroke-width="2" marker-end="url(#arrow-open)" /><polyline class="uml-relation" data-uml-from="OrderService" data-uml-to="NotificationService" data-uml-arrow="--&gt;" points="192,424 192,510 312,510 312,596" fill="none" stroke="#1e293b" stroke-width="2" marker-end="url(#arrow-open)" /></svg>