<svg xmlns="http://www.w3.org/2000/svg" width="688" height="728" viewBox="0 0 688 728"><rect width="100%" height="100%" fill="#f0f4f8"/><defs><marker id="arrow-open" viewBox="0 0 10 10" refX="9" refY="5" markerWidth="10" markerHeight="10" markerUnits="userSpaceOnUse" orient="auto-start-reverse"><path d="M0,0 L10,5 L0,10" fill="none" stroke="#1e293b" stroke-width="1.5"/></marker><marker id="arrow-triangle" viewBox="0 0 12 12" refX="11" refY="6" markerWidth="12" markerHeight="12" markerUnits="userSpaceOnUse" orient="auto-start-reverse"><polygon points="0,0 12,6 0,12" fill="#ffffff" stroke="#1e293b" stroke-width="1.5" fill-rule="nonzero"/></marker><marker id="arrow-diamond-filled" viewBox="0 0 14 10" refX="13" refY="5" markerWidth="14" markerHeight="10" markerUnits="userSpaceOnUse" orient="auto-start-reverse"><path d="M0,5 L7,0 L14,5 L7,10 z" fill="#1e293b" stroke="#1e293b" stroke-width="1"/></marker><marker id="arrow-diamond-open" viewBox="0 0 14 10" refX="13" refY="5" markerWidth="14" markerHeight="10" markerUnits="userSpaceOnUse" orient="auto-start-reverse"><path d="M0,5 L7,0 L14,5 L7,10 z" fill="#ffffff" stroke="#1e293b" stroke-width="1"/></marker></defs><rect class="uml-group-frame" data-uml-group="Frontend" x="80" y="52" width="488" height="156" rx="8" ry="8" fill="#f8faff" stroke="#1e293b" stroke-width="1.5"/><rect x="80" y="52" width="144" height="40" rx="8" ry="8" fill="#1e293b" stroke="#1e293b" stroke-width="1.5"/><rect x="80" y="84" width="144" height="8" fill="#1e293b" stroke="none"/><text x="88" y="84" font-family="monospace" font-size="11" font-weight="600" fill="#ffffff">package Frontend</text><line x1="80" y1="92" x2="568" y2="92" stroke="#1e293b" stroke-width="1"/><rect class="uml-group-frame" data-uml-group="Backend" x="80" y="252" width="488" height="356" rx="8" ry="8" fill="#f8faff" stroke="#1e293b" stroke-width="1.5"/><rect x="80" y="252" width="136" height="40" rx="8" ry="8" fill="#1e293b" stroke="#1e293b" stroke-width="1.5"/><rect x="80" y="284" width="136" height="8" fill="#1e293b" stroke="none"/><text x="88" y="284" font-family="monospace" font-size="11" font-weight="600" fill="#ffffff">package Backend</text><line x1="80" y1="292" x2="568" y2="292" stroke="#1e293b" stroke-width="1"/><desc data-uml-id="Frontend::WebApp">Frontend::WebApp</desc><rect class="uml-node uml-component" data-uml-kind="component" x="104" y="104" width="200" height="80" rx="4" ry="4" fill="#f0f4f8" stroke="#1e293b" stroke-width="1"/><rect x="100" y="116" width="16" height="8" fill="#f0f4f8" stroke="#1e293b" stroke-width="1"/><rect x="100" y="164" width="16" height="8" fill="#f0f4f8" stroke="#1e293b" stroke-width="1"/><text x="204" y="150" text-anchor="middle" font-family="monospace" font-size="13" font-weight="600" fill="#0f172a">WebApp</text><text x="204" y="118" text-anchor="middle" font-family="monospace" font-size="10" fill="#0f172a">«component»</text><desc data-uml-id="Frontend::MobileApp">Frontend::MobileApp</desc><rect class="uml-node uml-component" data-uml-kind="component" x="344" y="104" width="200" height="80" rx="4" ry="4" fill="#f0f4f8" stroke="#1e293b" stroke-width="1"/><rect x="340" y="116" width="16" height="8" fill="#f0f4f8" stroke="#1e293b" stroke-width="1"/><rect x="340" y="164" width="16" height="8" fill="#f0f4f8" stroke="#1e293b" stroke-width="1"/><text x="444" y="150" text-anchor="middle" font-family="monospace" font-size="13" font-weight="600" fill="#0f172a">MobileApp</text><text x="444" y="118" text-anchor="middle" font-family="monospace" font-size="10" fill="#0f172a">«component»</text><desc data-uml-id="Backend::AuthService">Backend::AuthService</desc><rect class="uml-node uml-component" data-uml-kind="component" x="344" y="304" width="200" height="80" rx="4" ry="4" fill="#f0f4f8" stroke="#1e293b" stroke-width="1"/><rect x="340" y="316" width="16" height="8" fill="#f0f4f8" stroke="#1e293b" stroke-width="1"/><rect x="340" y="364" width="16" height="8" fill="#f0f4f8" stroke="#1e293b" stroke-width="1"/><text x="444" y="350" text-anchor="middle" font-family="monospace" font-size="13" font-weight="600" fill="#0f172a">AuthService</text><text x="444" y="318" text-anchor="middle" font-family="monospace" font-size="10" fill="#0f172a">«component»</text><desc data-uml-id="Backend::OrderService">Backend::OrderService</desc><rect class="uml-node uml-component" data-uml-kind="component" x="104" y="304" width="200" height="80" rx="4" ry="4" fill="#f0f4f8" stroke="#1e293b" stroke-width="1"/><rect x="100" y="316" width="16" height="8" fill="#f0f4f8" stroke="#1e293b" stroke-width="1"/><rect x="100" y="364" width="16" height="8" fill="#f0f4f8" stroke="#1e293b" stroke-width="1"/><text x="204" y="350" text-anchor="middle" font-family="monospace" font-size="13" font-weight="600" fill="#0f172a">OrderService</text><text x="204" y="318" text-anchor="middle" font-family="monospace" font-size="10" fill="#0f172a">«component»</text><desc data-uml-id="Backend::NotificationService">Backend::NotificationService</desc><rect class="uml-node uml-component" data-uml-kind="component" x="224" y="504" width="200" height="80" rx="4" ry="4" fill="#f0f4f8" stroke="#1e293b" stroke-width="1"/><rect x="220" y="516" width="16" height="8" fill="#f0f4f8" stroke="#1e293b" stroke-width="1"/><rect x="220" y="564" width="16" height="8" fill="#f0f4f8" stroke="#1e293b" stroke-width="1"/><text x="324" y="550" text-anchor="middle" font-family="monospace" font-size="13" font-weight="600" fill="#0f172a">NotificationService</text><text x="324" y="518" text-anchor="middle" font-family="monospace" font-size="10" fill="#0f172a">«component»</text><polyline class="uml-relation" data-uml-from="WebApp" data-uml-to="AuthService" data-uml-arrow="--&gt;" points="304,144 204,236 444,236 344,344" fill="none" stroke="#1e293b" stroke-width="2" marker-end="url(#arrow-open)" /><polyline class="uml-relation" data-uml-from="WebApp" data-uml-to="OrderService" data-uml-arrow="--&gt;" points="204,184 204,244 204,304" fill="none" stroke="#1e293b" stroke-width="2" marker-end="url(#arrow-open)" /><polyline class="uml-relation" data-uml-from="MobileApp" data-uml-to="AuthService" data-uml-arrow="--&gt;" points="444,184 444,252 444,304" fill="none" stroke="#1e293b" stroke-width="2" marker-end="url(#arrow-open)" /><polyline class="uml-relation" data-uml-from="OrderService" data-uml-to="NotificationService" data-uml-arrow="--&gt;" points="204,384 204,444 324,444 324,504" fill="none" stroke="#1e293b" stroke-width="2" marker-end="url(#arrow-open)" /></svg>