<svg xmlns="http://www.w3.org/2000/svg" width="1328" height="236" viewBox="0 0 1328 236"><rect width="100%" height="100%" fill="#f0f4f8"/><defs><marker id="arrow-open" viewBox="0 0 10 10" refX="9" refY="5" markerWidth="10" markerHeight="10" markerUnits="userSpaceOnUse" orient="auto-start-reverse"><path d="M0,0 L10,5 L0,10" fill="none" stroke="#1e293b" stroke-width="1.5"/></marker><marker id="arrow-triangle" viewBox="0 0 12 12" refX="11" refY="6" markerWidth="12" markerHeight="12" markerUnits="userSpaceOnUse" orient="auto-start-reverse"><polygon points="0,0 12,6 0,12" fill="#ffffff" stroke="#1e293b" stroke-width="1.5" fill-rule="nonzero"/></marker><marker id="arrow-diamond-filled" viewBox="0 0 14 10" refX="13" refY="5" markerWidth="14" markerHeight="10" markerUnits="userSpaceOnUse" orient="auto-start-reverse"><path d="M0,5 L7,0 L14,5 L7,10 z" fill="#1e293b" stroke="#1e293b" stroke-width="1"/></marker><marker id="arrow-diamond-open" viewBox="0 0 14 10" refX="13" refY="5" markerWidth="14" markerHeight="10" markerUnits="userSpaceOnUse" orient="auto-start-reverse"><path d="M0,5 L7,0 L14,5 L7,10 z" fill="#ffffff" stroke="#1e293b" stroke-width="1"/></marker></defs><rect class="uml-group-frame" data-uml-group="Frontend" x="40" y="40" width="488" height="156" rx="8" ry="8" fill="#f8faff" stroke="#1e293b" stroke-width="1.5"/><rect x="40" y="40" width="144" height="28" rx="8" ry="8" fill="#1e293b" stroke="#1e293b" stroke-width="1.5"/><rect x="40" y="60" width="144" height="8" fill="#1e293b" stroke="none"/><text x="48" y="60" font-family="monospace" font-size="11" font-weight="600" fill="#ffffff">package Frontend</text><line x1="40" y1="68" x2="528" y2="68" stroke="#1e293b" stroke-width="1"/><rect class="uml-group-frame" data-uml-group="Backend" x="560" y="40" width="728" height="156" rx="8" ry="8" fill="#f8faff" stroke="#1e293b" stroke-width="1.5"/><rect x="560" y="40" width="136" height="28" rx="8" ry="8" fill="#1e293b" stroke="#1e293b" stroke-width="1.5"/><rect x="560" y="60" width="136" height="8" fill="#1e293b" stroke="none"/><text x="568" y="60" font-family="monospace" font-size="11" font-weight="600" fill="#ffffff">package Backend</text><line x1="560" y1="68" x2="1288" y2="68" stroke="#1e293b" stroke-width="1"/><desc data-uml-id="Frontend::WebApp">Frontend::WebApp</desc><rect class="uml-node uml-component" data-uml-kind="component" x="64" y="92" width="200" height="80" rx="4" ry="4" fill="#f0f4f8" stroke="#1e293b" stroke-width="1"/><rect x="60" y="104" width="16" height="8" fill="#f0f4f8" stroke="#1e293b" stroke-width="1"/><rect x="60" y="152" width="16" height="8" fill="#f0f4f8" stroke="#1e293b" stroke-width="1"/><text x="164" y="138" text-anchor="middle" font-family="monospace" font-size="13" font-weight="600" fill="#0f172a">WebApp</text><text x="164" y="106" text-anchor="middle" font-family="monospace" font-size="10" fill="#0f172a">«component»</text><desc data-uml-id="Frontend::MobileApp">Frontend::MobileApp</desc><rect class="uml-node uml-component" data-uml-kind="component" x="304" y="92" width="200" height="80" rx="4" ry="4" fill="#f0f4f8" stroke="#1e293b" stroke-width="1"/><rect x="300" y="104" width="16" height="8" fill="#f0f4f8" stroke="#1e293b" stroke-width="1"/><rect x="300" y="152" width="16" height="8" fill="#f0f4f8" stroke="#1e293b" stroke-width="1"/><text x="404" y="138" text-anchor="middle" font-family="monospace" font-size="13" font-weight="600" fill="#0f172a">MobileApp</text><text x="404" y="106" text-anchor="middle" font-family="monospace" font-size="10" fill="#0f172a">«component»</text><desc data-uml-id="Backend::AuthService">Backend::AuthService</desc><rect class="uml-node uml-component" data-uml-kind="component" x="584" y="92" width="200" height="80" rx="4" ry="4" fill="#f0f4f8" stroke="#1e293b" stroke-width="1"/><rect x="580" y="104" width="16" height="8" fill="#f0f4f8" stroke="#1e293b" stroke-width="1"/><rect x="580" y="152" width="16" height="8" fill="#f0f4f8" stroke="#1e293b" stroke-width="1"/><text x="684" y="138" text-anchor="middle" font-family="monospace" font-size="13" font-weight="600" fill="#0f172a">AuthService</text><text x="684" y="106" text-anchor="middle" font-family="monospace" font-size="10" fill="#0f172a">«component»</text><desc data-uml-id="Backend::OrderService">Backend::OrderService</desc><rect class="uml-node uml-component" data-uml-kind="component" x="824" y="92" width="200" height="80" rx="4" ry="4" fill="#f0f4f8" stroke="#1e293b" stroke-width="1"/><rect x="820" y="104" width="16" height="8" fill="#f0f4f8" stroke="#1e293b" stroke-width="1"/><rect x="820" y="152" width="16" height="8" fill="#f0f4f8" stroke="#1e293b" stroke-width="1"/><text x="924" y="138" text-anchor="middle" font-family="monospace" font-size="13" font-weight="600" fill="#0f172a">OrderService</text><text x="924" y="106" text-anchor="middle" font-family="monospace" font-size="10" fill="#0f172a">«component»</text><desc data-uml-id="Backend::NotificationService">Backend::NotificationService</desc><rect class="uml-node uml-component" data-uml-kind="component" x="1064" y="92" width="200" height="80" rx="4" ry="4" fill="#f0f4f8" stroke="#1e293b" stroke-width="1"/><rect x="1060" y="104" width="16" height="8" fill="#f0f4f8" stroke="#1e293b" stroke-width="1"/><rect x="1060" y="152" width="16" height="8" fill="#f0f4f8" stroke="#1e293b" stroke-width="1"/><text x="1164" y="138" text-anchor="middle" font-family="monospace" font-size="13" font-weight="600" fill="#0f172a">NotificationService</text><text x="1164" y="106" text-anchor="middle" font-family="monospace" font-size="10" fill="#0f172a">«component»</text><polyline class="uml-relation" data-uml-from="WebApp" data-uml-to="AuthService" data-uml-arrow="--&gt;" points="264,132 264,132 584,132 584,132" fill="none" stroke="#1e293b" stroke-width="2" marker-end="url(#arrow-open)" /><polyline class="uml-relation" data-uml-from="WebApp" data-uml-to="OrderService" data-uml-arrow="--&gt;" points="264,132 264,132 824,132 824,132" fill="none" stroke="#1e293b" stroke-width="2" marker-end="url(#arrow-open)" /><line class="uml-relation" data-uml-from="MobileApp" data-uml-to="AuthService" data-uml-arrow="--&gt;" x1="504" y1="132" x2="584" y2="132" stroke="#1e293b" stroke-width="2" marker-end="url(#arrow-open)" /><line class="uml-relation" data-uml-from="OrderService" data-uml-to="NotificationService" data-uml-arrow="--&gt;" x1="1024" y1="132" x2="1064" y2="132" stroke="#1e293b" stroke-width="2" marker-end="url(#arrow-open)" /></svg>