<svg xmlns="http://www.w3.org/2000/svg" width="672" height="904" viewBox="0 0 672 904"><rect width="100%" height="100%" fill="#f0f4f8"/><defs><marker id="arrow-open" viewBox="0 0 10 10" refX="9" refY="5" markerWidth="10" markerHeight="10" markerUnits="userSpaceOnUse" orient="auto-start-reverse"><path d="M0,0 L10,5 L0,10" fill="none" stroke="#1e293b" stroke-width="1.5"/></marker><marker id="arrow-triangle" viewBox="0 0 12 12" refX="11" refY="6" markerWidth="12" markerHeight="12" markerUnits="userSpaceOnUse" orient="auto-start-reverse"><polygon points="0,0 12,6 0,12" fill="#ffffff" stroke="#1e293b" stroke-width="1.5" fill-rule="nonzero"/></marker><marker id="arrow-diamond-filled" viewBox="0 0 14 10" refX="13" refY="5" markerWidth="14" markerHeight="10" markerUnits="userSpaceOnUse" orient="auto-start-reverse"><path d="M0,5 L7,0 L14,5 L7,10 z" fill="#1e293b" stroke="#1e293b" stroke-width="1"/></marker><marker id="arrow-diamond-open" viewBox="0 0 14 10" refX="13" refY="5" markerWidth="14" markerHeight="10" markerUnits="userSpaceOnUse" orient="auto-start-reverse"><path d="M0,5 L7,0 L14,5 L7,10 z" fill="#ffffff" stroke="#1e293b" stroke-width="1"/></marker><marker id="arrow-double-open" viewBox="0 0 16 12" refX="15" refY="6" markerWidth="16" markerHeight="12" markerUnits="userSpaceOnUse" orient="auto-start-reverse"><path d="M0,1 L8,6 L0,11 M7,1 L15,6 L7,11" fill="none" stroke="#1e293b" stroke-width="1.5" stroke-linejoin="round"/></marker><marker id="arrow-circle-open" viewBox="0 0 12 12" refX="11" refY="6" markerWidth="12" markerHeight="12" markerUnits="userSpaceOnUse" orient="auto-start-reverse"><circle cx="6" cy="6" r="4" fill="#ffffff" stroke="#1e293b" stroke-width="1.5"/></marker><marker id="arrow-circle-filled" viewBox="0 0 12 12" refX="11" refY="6" markerWidth="12" markerHeight="12" markerUnits="userSpaceOnUse" orient="auto-start-reverse"><circle cx="6" cy="6" r="4" fill="#1e293b" stroke="#1e293b" stroke-width="1.5"/></marker><marker id="arrow-triangle-filled" viewBox="0 0 12 12" refX="11" refY="6" markerWidth="12" markerHeight="12" markerUnits="userSpaceOnUse" orient="auto-start-reverse"><polygon points="0,0 12,6 0,12" fill="#1e293b" stroke="#1e293b" stroke-width="1.5"/></marker><marker id="arrow-box-filled" viewBox="0 0 12 12" refX="11" refY="6" markerWidth="12" markerHeight="12" markerUnits="userSpaceOnUse" orient="auto-start-reverse"><rect x="2" y="2" width="8" height="8" fill="#1e293b" stroke="#1e293b" stroke-width="1.5"/></marker><marker id="arrow-plus" viewBox="0 0 12 12" refX="11" refY="6" markerWidth="12" markerHeight="12" markerUnits="userSpaceOnUse" orient="auto-start-reverse"><path d="M6,1 L6,11 M1,6 L11,6" fill="none" stroke="#1e293b" stroke-width="1.8" stroke-linecap="round"/></marker><marker id="arrow-slash" viewBox="0 0 12 12" refX="10" refY="6" markerWidth="12" markerHeight="12" markerUnits="userSpaceOnUse" orient="auto-start-reverse"><path d="M3,2 L9,10" fill="none" stroke="#1e293b" stroke-width="1.8" stroke-linecap="round"/></marker><marker id="arrow-cross" viewBox="0 0 12 12" refX="11" refY="6" markerWidth="12" markerHeight="12" markerUnits="userSpaceOnUse" orient="auto-start-reverse"><path d="M2,2 L10,10 M10,2 L2,10" fill="none" stroke="#1e293b" stroke-width="1.8" stroke-linecap="round"/></marker><marker id="arrow-bracket-open" viewBox="0 0 12 14" refX="11" refY="7" markerWidth="12" markerHeight="14" markerUnits="userSpaceOnUse" orient="auto-start-reverse"><path d="M10,1 L4,1 L4,13 L10,13" fill="none" stroke="#1e293b" stroke-width="1.8" stroke-linecap="round" stroke-linejoin="round"/></marker></defs><marker id="arrow-ie-one" viewBox="0 0 24 16" refX="22" refY="8" markerWidth="24" markerHeight="16" markerUnits="userSpaceOnUse" orient="auto-start-reverse"><path d="M16,2 L16,14" fill="none" stroke="#1e293b" stroke-width="1.8" stroke-linecap="round"/></marker><marker id="arrow-ie-zero-one" viewBox="0 0 30 16" refX="28" refY="8" markerWidth="30" markerHeight="16" markerUnits="userSpaceOnUse" orient="auto-start-reverse"><circle cx="10" cy="8" r="4" fill="#ffffff" stroke="#1e293b" stroke-width="1.5"/><path d="M20,2 L20,14" fill="none" stroke="#1e293b" stroke-width="1.8" stroke-linecap="round"/></marker><marker id="arrow-ie-zero-many" viewBox="0 0 34 18" refX="32" refY="9" markerWidth="34" markerHeight="18" markerUnits="userSpaceOnUse" orient="auto-start-reverse"><circle cx="8" cy="9" r="4" fill="#ffffff" stroke="#1e293b" stroke-width="1.5"/><path d="M18,9 L31,2 M18,9 L31,9 M18,9 L31,16" fill="none" stroke="#1e293b" stroke-width="1.7" stroke-linecap="round"/></marker><marker id="arrow-ie-one-many" viewBox="0 0 34 18" refX="32" refY="9" markerWidth="34" markerHeight="18" markerUnits="userSpaceOnUse" orient="auto-start-reverse"><path d="M8,2 L8,16 M18,9 L31,2 M18,9 L31,9 M18,9 L31,16" fill="none" stroke="#1e293b" stroke-width="1.7" stroke-linecap="round"/></marker><rect class="uml-group-frame" data-uml-group="Frontend" x="80" y="40" width="536" height="168" rx="8" ry="8" fill="#f8faff" stroke="#1e293b" stroke-width="1.5"/><rect x="80" y="40" width="536" height="40" rx="8" ry="8" fill="#1e293b" stroke="none"/><rect x="80" y="72" width="536" height="8" fill="#1e293b" stroke="none"/><text x="88" y="72" font-family="monospace" font-size="11" font-weight="600" fill="#ffffff">package Frontend</text><line x1="80" y1="80" x2="616" y2="80" stroke="#1e293b" stroke-width="1"/><rect class="uml-group-frame" data-uml-group="Backend" x="80" y="328" width="536" height="456" rx="8" ry="8" fill="#f8faff" stroke="#1e293b" stroke-width="1.5"/><rect x="80" y="328" width="536" height="40" rx="8" ry="8" fill="#1e293b" stroke="none"/><rect x="80" y="360" width="536" height="8" fill="#1e293b" stroke="none"/><text x="88" y="360" font-family="monospace" font-size="11" font-weight="600" fill="#ffffff">package Backend</text><line x1="80" y1="368" x2="616" y2="368" stroke="#1e293b" stroke-width="1"/><desc data-uml-id="Frontend::WebApp">Frontend::WebApp</desc><rect class="uml-node uml-component" data-uml-kind="component" x="104" y="104" width="200" height="80" rx="4" ry="4" fill="#f0f4f8" stroke="#1e293b" stroke-width="1.5"/><rect x="100" y="116" width="16" height="8" fill="#f0f4f8" stroke="#1e293b" stroke-width="1"/><rect x="100" y="164" width="16" height="8" fill="#f0f4f8" stroke="#1e293b" stroke-width="1"/><text x="204" y="150" text-anchor="middle" font-family="monospace" font-size="13" font-weight="600" fill="#0f172a">WebApp</text><text x="204" y="118" text-anchor="middle" font-family="monospace" font-size="10" fill="#0f172a">«component»</text><desc data-uml-id="Frontend::MobileApp">Frontend::MobileApp</desc><rect class="uml-node uml-component" data-uml-kind="component" x="392" y="104" width="200" height="80" rx="4" ry="4" fill="#f0f4f8" stroke="#1e293b" stroke-width="1.5"/><rect x="388" y="116" width="16" height="8" fill="#f0f4f8" stroke="#1e293b" stroke-width="1"/><rect x="388" y="164" width="16" height="8" fill="#f0f4f8" stroke="#1e293b" stroke-width="1"/><text x="492" y="150" text-anchor="middle" font-family="monospace" font-size="13" font-weight="600" fill="#0f172a">MobileApp</text><text x="492" y="118" text-anchor="middle" font-family="monospace" font-size="10" fill="#0f172a">«component»</text><desc data-uml-id="Backend::AuthService">Backend::AuthService</desc><rect class="uml-node uml-component" data-uml-kind="component" x="392" y="392" width="200" height="80" rx="4" ry="4" fill="#f0f4f8" stroke="#1e293b" stroke-width="1.5"/><rect x="388" y="404" width="16" height="8" fill="#f0f4f8" stroke="#1e293b" stroke-width="1"/><rect x="388" y="452" width="16" height="8" fill="#f0f4f8" stroke="#1e293b" stroke-width="1"/><text x="492" y="438" text-anchor="middle" font-family="monospace" font-size="13" font-weight="600" fill="#0f172a">AuthService</text><rect class="uml-edge-label-bg" data-uml-label-role="edge-background" x="452" y="393" width="80" height="18" fill="white" opacity="0.85"/><rect class="uml-edge-label-bg" data-uml-label-role="edge-background" x="452" y="393" width="80" height="18" fill="white" opacity="0.85"/><text x="492" y="406" text-anchor="middle" font-family="monospace" font-size="10" fill="#0f172a">«component»</text><desc data-uml-id="Backend::OrderService">Backend::OrderService</desc><rect class="uml-node uml-component" data-uml-kind="component" x="104" y="392" width="200" height="80" rx="4" ry="4" fill="#f0f4f8" stroke="#1e293b" stroke-width="1.5"/><rect x="100" y="404" width="16" height="8" fill="#f0f4f8" stroke="#1e293b" stroke-width="1"/><rect x="100" y="452" width="16" height="8" fill="#f0f4f8" stroke="#1e293b" stroke-width="1"/><text x="204" y="438" text-anchor="middle" font-family="monospace" font-size="13" font-weight="600" fill="#0f172a">OrderService</text><rect class="uml-edge-label-bg" data-uml-label-role="edge-background" x="164" y="393" width="80" height="18" fill="white" opacity="0.85"/><text x="204" y="406" text-anchor="middle" font-family="monospace" font-size="10" fill="#0f172a">«component»</text><desc data-uml-id="Backend::NotificationService">Backend::NotificationService</desc><rect class="uml-node uml-component" data-uml-kind="component" x="248" y="680" width="200" height="80" rx="4" ry="4" fill="#f0f4f8" stroke="#1e293b" stroke-width="1.5"/><rect x="244" y="692" width="16" height="8" fill="#f0f4f8" stroke="#1e293b" stroke-width="1"/><rect x="244" y="740" width="16" height="8" fill="#f0f4f8" stroke="#1e293b" stroke-width="1"/><text x="348" y="726" text-anchor="middle" font-family="monospace" font-size="13" font-weight="600" fill="#0f172a">NotificationService</text><rect class="uml-edge-label-bg" data-uml-label-role="edge-background" x="308" y="681" width="80" height="18" fill="white" opacity="0.85"/><text x="348" y="694" text-anchor="middle" font-family="monospace" font-size="10" fill="#0f172a">«component»</text><polyline class="uml-relation" data-uml-from="WebApp" data-uml-to="AuthService" data-uml-arrow="--&gt;" points="204,184 204,380 492,380 492,392" fill="none" stroke="#1e293b" stroke-width="2" marker-end="url(#arrow-open)" /><polyline class="uml-relation" data-uml-from="WebApp" data-uml-to="OrderService" data-uml-arrow="--&gt;" points="204,184 204,288 204,392" fill="none" stroke="#1e293b" stroke-width="2" marker-end="url(#arrow-open)" /><polyline class="uml-relation" data-uml-from="MobileApp" data-uml-to="AuthService" data-uml-arrow="--&gt;" points="492,184 492,288 492,392" fill="none" stroke="#1e293b" stroke-width="2" marker-end="url(#arrow-open)" /><polyline class="uml-relation" data-uml-from="OrderService" data-uml-to="NotificationService" data-uml-arrow="--&gt;" points="204,472 204,576 348,576 348,680" fill="none" stroke="#1e293b" stroke-width="2" marker-end="url(#arrow-open)" /></svg>