<svg xmlns="http://www.w3.org/2000/svg" width="672" height="1192" viewBox="0 0 672 1192"><rect width="100%" height="100%" fill="#f0f4f8"/><defs><marker id="arrow-open" viewBox="0 0 10 10" refX="9" refY="5" markerWidth="10" markerHeight="10" markerUnits="userSpaceOnUse" orient="auto-start-reverse"><path d="M0,0 L10,5 L0,10" fill="none" stroke="#1e293b" stroke-width="1.5"/></marker><marker id="arrow-triangle" viewBox="0 0 12 12" refX="11" refY="6" markerWidth="12" markerHeight="12" markerUnits="userSpaceOnUse" orient="auto-start-reverse"><polygon points="0,0 12,6 0,12" fill="#ffffff" stroke="#1e293b" stroke-width="1.5" fill-rule="nonzero"/></marker><marker id="arrow-diamond-filled" viewBox="0 0 14 10" refX="13" refY="5" markerWidth="14" markerHeight="10" markerUnits="userSpaceOnUse" orient="auto-start-reverse"><path d="M0,5 L7,0 L14,5 L7,10 z" fill="#1e293b" stroke="#1e293b" stroke-width="1"/></marker><marker id="arrow-diamond-open" viewBox="0 0 14 10" refX="13" refY="5" markerWidth="14" markerHeight="10" markerUnits="userSpaceOnUse" orient="auto-start-reverse"><path d="M0,5 L7,0 L14,5 L7,10 z" fill="#ffffff" stroke="#1e293b" stroke-width="1"/></marker><marker id="arrow-double-open" viewBox="0 0 16 12" refX="15" refY="6" markerWidth="16" markerHeight="12" markerUnits="userSpaceOnUse" orient="auto-start-reverse"><path d="M0,1 L8,6 L0,11 M7,1 L15,6 L7,11" fill="none" stroke="#1e293b" stroke-width="1.5" stroke-linejoin="round"/></marker><marker id="arrow-circle-open" viewBox="0 0 12 12" refX="11" refY="6" markerWidth="12" markerHeight="12" markerUnits="userSpaceOnUse" orient="auto-start-reverse"><circle cx="6" cy="6" r="4" fill="#ffffff" stroke="#1e293b" stroke-width="1.5"/></marker><marker id="arrow-circle-filled" viewBox="0 0 12 12" refX="11" refY="6" markerWidth="12" markerHeight="12" markerUnits="userSpaceOnUse" orient="auto-start-reverse"><circle cx="6" cy="6" r="4" fill="#1e293b" stroke="#1e293b" stroke-width="1.5"/></marker><marker id="arrow-triangle-filled" viewBox="0 0 12 12" refX="11" refY="6" markerWidth="12" markerHeight="12" markerUnits="userSpaceOnUse" orient="auto-start-reverse"><polygon points="0,0 12,6 0,12" fill="#1e293b" stroke="#1e293b" stroke-width="1.5"/></marker><marker id="arrow-box-filled" viewBox="0 0 12 12" refX="11" refY="6" markerWidth="12" markerHeight="12" markerUnits="userSpaceOnUse" orient="auto-start-reverse"><rect x="2" y="2" width="8" height="8" fill="#1e293b" stroke="#1e293b" stroke-width="1.5"/></marker><marker id="arrow-plus" viewBox="0 0 12 12" refX="11" refY="6" markerWidth="12" markerHeight="12" markerUnits="userSpaceOnUse" orient="auto-start-reverse"><path d="M6,1 L6,11 M1,6 L11,6" fill="none" stroke="#1e293b" stroke-width="1.8" stroke-linecap="round"/></marker><marker id="arrow-slash" viewBox="0 0 12 12" refX="10" refY="6" markerWidth="12" markerHeight="12" markerUnits="userSpaceOnUse" orient="auto-start-reverse"><path d="M3,2 L9,10" fill="none" stroke="#1e293b" stroke-width="1.8" stroke-linecap="round"/></marker></defs><desc data-uml-id="Load Balancer">Load Balancer</desc><rect class="uml-node uml-component" data-uml-kind="component" x="248" y="104" width="200" height="80" rx="4" ry="4" fill="#f0f4f8" stroke="#1e293b" stroke-width="1.5"/><rect x="244" y="116" width="16" height="8" fill="#f0f4f8" stroke="#1e293b" stroke-width="1"/><rect x="244" y="164" width="16" height="8" fill="#f0f4f8" stroke="#1e293b" stroke-width="1"/><text x="348" y="150" text-anchor="middle" font-family="monospace" font-size="13" font-weight="600" fill="#0f172a">Load Balancer</text><text x="348" y="118" text-anchor="middle" font-family="monospace" font-size="10" fill="#0f172a">«component»</text><desc data-uml-id="App Server 1">App Server 1</desc><rect class="uml-node uml-component" data-uml-kind="component" x="104" y="392" width="200" height="80" rx="4" ry="4" fill="#f0f4f8" stroke="#1e293b" stroke-width="1.5"/><rect x="100" y="404" width="16" height="8" fill="#f0f4f8" stroke="#1e293b" stroke-width="1"/><rect x="100" y="452" width="16" height="8" fill="#f0f4f8" stroke="#1e293b" stroke-width="1"/><text x="204" y="438" text-anchor="middle" font-family="monospace" font-size="13" font-weight="600" fill="#0f172a">App Server 1</text><text x="204" y="406" text-anchor="middle" font-family="monospace" font-size="10" fill="#0f172a">«component»</text><desc data-uml-id="App Server 2">App Server 2</desc><rect class="uml-node uml-component" data-uml-kind="component" x="392" y="392" width="200" height="80" rx="4" ry="4" fill="#f0f4f8" stroke="#1e293b" stroke-width="1.5"/><rect x="388" y="404" width="16" height="8" fill="#f0f4f8" stroke="#1e293b" stroke-width="1"/><rect x="388" y="452" width="16" height="8" fill="#f0f4f8" stroke="#1e293b" stroke-width="1"/><text x="492" y="438" text-anchor="middle" font-family="monospace" font-size="13" font-weight="600" fill="#0f172a">App Server 2</text><text x="492" y="406" text-anchor="middle" font-family="monospace" font-size="10" fill="#0f172a">«component»</text><desc data-uml-id="Primary DB">Primary DB</desc><rect class="uml-node uml-component" data-uml-kind="component" x="248" y="680" width="200" height="80" rx="4" ry="4" fill="#f0f4f8" stroke="#1e293b" stroke-width="1.5"/><rect x="244" y="692" width="16" height="8" fill="#f0f4f8" stroke="#1e293b" stroke-width="1"/><rect x="244" y="740" width="16" height="8" fill="#f0f4f8" stroke="#1e293b" stroke-width="1"/><text x="348" y="726" text-anchor="middle" font-family="monospace" font-size="13" font-weight="600" fill="#0f172a">Primary DB</text><text x="348" y="694" text-anchor="middle" font-family="monospace" font-size="10" fill="#0f172a">«component»</text><text x="348" y="707" text-anchor="middle" font-family="monospace" font-size="10" fill="#64748b">&lt;&lt;database&gt;&gt;</text><desc data-uml-id="Replica DB">Replica DB</desc><rect class="uml-node uml-component" data-uml-kind="component" x="248" y="968" width="200" height="80" rx="4" ry="4" fill="#f0f4f8" stroke="#1e293b" stroke-width="1.5"/><rect x="244" y="980" width="16" height="8" fill="#f0f4f8" stroke="#1e293b" stroke-width="1"/><rect x="244" y="1028" width="16" height="8" fill="#f0f4f8" stroke="#1e293b" stroke-width="1"/><text x="348" y="1014" text-anchor="middle" font-family="monospace" font-size="13" font-weight="600" fill="#0f172a">Replica DB</text><text x="348" y="982" text-anchor="middle" font-family="monospace" font-size="10" fill="#0f172a">«component»</text><text x="348" y="995" text-anchor="middle" font-family="monospace" font-size="10" fill="#64748b">&lt;&lt;database&gt;&gt;</text><polyline class="uml-relation" data-uml-from="LB" data-uml-to="App1" data-uml-arrow="--&gt;" points="348,184 348,284 204,284 204,392" fill="none" stroke="#1e293b" stroke-width="2" marker-end="url(#arrow-open)" /><polyline class="uml-relation" data-uml-from="LB" data-uml-to="App2" data-uml-arrow="--&gt;" points="348,184 348,292 492,292 492,392" fill="none" stroke="#1e293b" stroke-width="2" marker-end="url(#arrow-open)" /><polyline class="uml-relation" data-uml-from="App1" data-uml-to="PDB" data-uml-arrow="--&gt;" points="204,472 204,572 348,572 348,680" fill="none" stroke="#1e293b" stroke-width="2" marker-end="url(#arrow-open)" /><polyline class="uml-relation" data-uml-from="App2" data-uml-to="PDB" data-uml-arrow="--&gt;" points="492,472 492,580 348,580 348,680" fill="none" stroke="#1e293b" stroke-width="2" marker-end="url(#arrow-open)" /><polyline class="uml-relation" data-uml-from="PDB" data-uml-to="RDB" data-uml-arrow="--&gt;" points="348,760 348,864 348,968" fill="none" stroke="#1e293b" stroke-width="2" marker-end="url(#arrow-open)" /><text class="uml-edge-label" data-uml-label-role="edge" x="276" y="272" text-anchor="middle" font-family="monospace" font-size="11" fill="#1e293b">routes</text><text class="uml-edge-label" data-uml-label-role="edge" x="420" y="280" text-anchor="middle" font-family="monospace" font-size="11" fill="#1e293b">routes</text><text class="uml-edge-label" data-uml-label-role="edge" x="306" y="652" text-anchor="middle" font-family="monospace" font-size="11" fill="#1e293b">writes</text><text class="uml-edge-label" data-uml-label-role="edge" x="391" y="652" text-anchor="middle" font-family="monospace" font-size="11" fill="#1e293b">writes</text><rect class="uml-edge-label-bg" data-uml-label-role="edge-background" x="311" y="839" width="74" height="18" fill="white" opacity="0.85"/><text class="uml-edge-label" data-uml-label-role="edge" x="348" y="852" text-anchor="middle" font-family="monospace" font-size="11" fill="#1e293b">replicates</text></svg>