<svg xmlns="http://www.w3.org/2000/svg" width="664" height="1060" viewBox="0 0 664 1060"><rect width="100%" height="100%" fill="#f0f4f8"/><defs><marker id="arrow-open" viewBox="0 0 10 10" refX="9" refY="5" markerWidth="10" markerHeight="10" markerUnits="userSpaceOnUse" orient="auto-start-reverse"><path d="M0,0 L10,5 L0,10" fill="none" stroke="#1e293b" stroke-width="1.5"/></marker><marker id="arrow-triangle" viewBox="0 0 12 12" refX="11" refY="6" markerWidth="12" markerHeight="12" markerUnits="userSpaceOnUse" orient="auto-start-reverse"><polygon points="0,0 12,6 0,12" fill="#ffffff" stroke="#1e293b" stroke-width="1.5" fill-rule="nonzero"/></marker><marker id="arrow-diamond-filled" viewBox="0 0 14 10" refX="13" refY="5" markerWidth="14" markerHeight="10" markerUnits="userSpaceOnUse" orient="auto-start-reverse"><path d="M0,5 L7,0 L14,5 L7,10 z" fill="#1e293b" stroke="#1e293b" stroke-width="1"/></marker><marker id="arrow-diamond-open" viewBox="0 0 14 10" refX="13" refY="5" markerWidth="14" markerHeight="10" markerUnits="userSpaceOnUse" orient="auto-start-reverse"><path d="M0,5 L7,0 L14,5 L7,10 z" fill="#ffffff" stroke="#1e293b" stroke-width="1"/></marker></defs><desc data-uml-id="Load Balancer">Load Balancer</desc><rect class="uml-node uml-component" data-uml-kind="component" x="212" y="92" width="200" height="80" rx="4" ry="4" fill="#f0f4f8" stroke="#1e293b" stroke-width="1"/><rect x="208" y="104" width="16" height="8" fill="#f0f4f8" stroke="#1e293b" stroke-width="1"/><rect x="208" y="152" width="16" height="8" fill="#f0f4f8" stroke="#1e293b" stroke-width="1"/><text x="312" y="138" text-anchor="middle" font-family="monospace" font-size="13" font-weight="600" fill="#0f172a">Load Balancer</text><text x="312" y="106" text-anchor="middle" font-family="monospace" font-size="10" fill="#0f172a">«component»</text><desc data-uml-id="App Server 1">App Server 1</desc><rect class="uml-node uml-component" data-uml-kind="component" x="92" y="344" width="200" height="80" rx="4" ry="4" fill="#f0f4f8" stroke="#1e293b" stroke-width="1"/><rect x="88" y="356" width="16" height="8" fill="#f0f4f8" stroke="#1e293b" stroke-width="1"/><rect x="88" y="404" width="16" height="8" fill="#f0f4f8" stroke="#1e293b" stroke-width="1"/><text x="192" y="390" text-anchor="middle" font-family="monospace" font-size="13" font-weight="600" fill="#0f172a">App Server 1</text><text x="192" y="358" text-anchor="middle" font-family="monospace" font-size="10" fill="#0f172a">«component»</text><desc data-uml-id="App Server 2">App Server 2</desc><rect class="uml-node uml-component" data-uml-kind="component" x="332" y="344" width="200" height="80" rx="4" ry="4" fill="#f0f4f8" stroke="#1e293b" stroke-width="1"/><rect x="328" y="356" width="16" height="8" fill="#f0f4f8" stroke="#1e293b" stroke-width="1"/><rect x="328" y="404" width="16" height="8" fill="#f0f4f8" stroke="#1e293b" stroke-width="1"/><text x="432" y="390" text-anchor="middle" font-family="monospace" font-size="13" font-weight="600" fill="#0f172a">App Server 2</text><text x="432" y="358" text-anchor="middle" font-family="monospace" font-size="10" fill="#0f172a">«component»</text><desc data-uml-id="Primary DB">Primary DB</desc><rect class="uml-node uml-component" data-uml-kind="component" x="212" y="596" width="200" height="80" rx="4" ry="4" fill="#f0f4f8" stroke="#1e293b" stroke-width="1"/><rect x="208" y="608" width="16" height="8" fill="#f0f4f8" stroke="#1e293b" stroke-width="1"/><rect x="208" y="656" width="16" height="8" fill="#f0f4f8" stroke="#1e293b" stroke-width="1"/><text x="312" y="642" text-anchor="middle" font-family="monospace" font-size="13" font-weight="600" fill="#0f172a">Primary DB</text><text x="312" y="610" text-anchor="middle" font-family="monospace" font-size="10" fill="#0f172a">«component»</text><text x="312" y="623" text-anchor="middle" font-family="monospace" font-size="10" fill="#64748b">&lt;&lt;database&gt;&gt;</text><desc data-uml-id="Replica DB">Replica DB</desc><rect class="uml-node uml-component" data-uml-kind="component" x="212" y="848" width="200" height="80" rx="4" ry="4" fill="#f0f4f8" stroke="#1e293b" stroke-width="1"/><rect x="208" y="860" width="16" height="8" fill="#f0f4f8" stroke="#1e293b" stroke-width="1"/><rect x="208" y="908" width="16" height="8" fill="#f0f4f8" stroke="#1e293b" stroke-width="1"/><text x="312" y="894" text-anchor="middle" font-family="monospace" font-size="13" font-weight="600" fill="#0f172a">Replica DB</text><text x="312" y="862" text-anchor="middle" font-family="monospace" font-size="10" fill="#0f172a">«component»</text><text x="312" y="875" text-anchor="middle" font-family="monospace" font-size="10" fill="#64748b">&lt;&lt;database&gt;&gt;</text><polyline class="uml-relation" data-uml-from="LB" data-uml-to="App1" data-uml-arrow="--&gt;" points="312,172 312,254 192,254 192,344" fill="none" stroke="#1e293b" stroke-width="2" marker-end="url(#arrow-open)" /><polyline class="uml-relation" data-uml-from="LB" data-uml-to="App2" data-uml-arrow="--&gt;" points="312,172 312,262 432,262 432,344" fill="none" stroke="#1e293b" stroke-width="2" marker-end="url(#arrow-open)" /><polyline class="uml-relation" data-uml-from="App1" data-uml-to="PDB" data-uml-arrow="--&gt;" points="192,424 192,506 312,506 312,596" fill="none" stroke="#1e293b" stroke-width="2" marker-end="url(#arrow-open)" /><polyline class="uml-relation" data-uml-from="App2" data-uml-to="PDB" data-uml-arrow="--&gt;" points="432,424 432,514 312,514 312,596" fill="none" stroke="#1e293b" stroke-width="2" marker-end="url(#arrow-open)" /><polyline class="uml-relation" data-uml-from="PDB" data-uml-to="RDB" data-uml-arrow="--&gt;" points="312,676 312,762 312,848" fill="none" stroke="#1e293b" stroke-width="2" marker-end="url(#arrow-open)" /><text x="306" y="209" text-anchor="middle" font-family="monospace" font-size="11" fill="#1e293b">routes</text><text x="318" y="227" text-anchor="middle" font-family="monospace" font-size="11" fill="#1e293b">routes</text><text x="186" y="459" text-anchor="middle" font-family="monospace" font-size="11" fill="#1e293b">writes</text><text x="426" y="463" text-anchor="middle" font-family="monospace" font-size="11" fill="#1e293b">writes</text><text x="306" y="799" text-anchor="middle" font-family="monospace" font-size="11" fill="#1e293b">replicates</text></svg>