<svg xmlns="http://www.w3.org/2000/svg" width="672" height="1192" viewBox="0 0 672 1192"><rect width="100%" height="100%" fill="#f0f4f8"/><defs><marker id="arrow-open" viewBox="0 0 10 10" refX="9" refY="5" markerWidth="10" markerHeight="10" markerUnits="userSpaceOnUse" orient="auto-start-reverse"><path d="M0,0 L10,5 L0,10" fill="none" stroke="#1e293b" stroke-width="1.5"/></marker><marker id="arrow-triangle" viewBox="0 0 12 12" refX="11" refY="6" markerWidth="12" markerHeight="12" markerUnits="userSpaceOnUse" orient="auto-start-reverse"><polygon points="0,0 12,6 0,12" fill="#ffffff" stroke="#1e293b" stroke-width="1.5" fill-rule="nonzero"/></marker><marker id="arrow-diamond-filled" viewBox="0 0 14 10" refX="13" refY="5" markerWidth="14" markerHeight="10" markerUnits="userSpaceOnUse" orient="auto-start-reverse"><path d="M0,5 L7,0 L14,5 L7,10 z" fill="#1e293b" stroke="#1e293b" stroke-width="1"/></marker><marker id="arrow-diamond-open" viewBox="0 0 14 10" refX="13" refY="5" markerWidth="14" markerHeight="10" markerUnits="userSpaceOnUse" orient="auto-start-reverse"><path d="M0,5 L7,0 L14,5 L7,10 z" fill="#ffffff" stroke="#1e293b" stroke-width="1"/></marker><marker id="arrow-double-open" viewBox="0 0 16 12" refX="15" refY="6" markerWidth="16" markerHeight="12" markerUnits="userSpaceOnUse" orient="auto-start-reverse"><path d="M0,1 L8,6 L0,11 M7,1 L15,6 L7,11" fill="none" stroke="#1e293b" stroke-width="1.5" stroke-linejoin="round"/></marker><marker id="arrow-circle-open" viewBox="0 0 12 12" refX="11" refY="6" markerWidth="12" markerHeight="12" markerUnits="userSpaceOnUse" orient="auto-start-reverse"><circle cx="6" cy="6" r="4" fill="#ffffff" stroke="#1e293b" stroke-width="1.5"/></marker><marker id="arrow-circle-filled" viewBox="0 0 12 12" refX="11" refY="6" markerWidth="12" markerHeight="12" markerUnits="userSpaceOnUse" orient="auto-start-reverse"><circle cx="6" cy="6" r="4" fill="#1e293b" stroke="#1e293b" stroke-width="1.5"/></marker><marker id="arrow-triangle-filled" viewBox="0 0 12 12" refX="11" refY="6" markerWidth="12" markerHeight="12" markerUnits="userSpaceOnUse" orient="auto-start-reverse"><polygon points="0,0 12,6 0,12" fill="#1e293b" stroke="#1e293b" stroke-width="1.5"/></marker><marker id="arrow-box-filled" viewBox="0 0 12 12" refX="11" refY="6" markerWidth="12" markerHeight="12" markerUnits="userSpaceOnUse" orient="auto-start-reverse"><rect x="2" y="2" width="8" height="8" fill="#1e293b" stroke="#1e293b" stroke-width="1.5"/></marker><marker id="arrow-plus" viewBox="0 0 12 12" refX="11" refY="6" markerWidth="12" markerHeight="12" markerUnits="userSpaceOnUse" orient="auto-start-reverse"><path d="M6,1 L6,11 M1,6 L11,6" fill="none" stroke="#1e293b" stroke-width="1.8" stroke-linecap="round"/></marker><marker id="arrow-slash" viewBox="0 0 12 12" refX="10" refY="6" markerWidth="12" markerHeight="12" markerUnits="userSpaceOnUse" orient="auto-start-reverse"><path d="M3,2 L9,10" fill="none" stroke="#1e293b" stroke-width="1.8" stroke-linecap="round"/></marker><marker id="arrow-cross" viewBox="0 0 12 12" refX="11" refY="6" markerWidth="12" markerHeight="12" markerUnits="userSpaceOnUse" orient="auto-start-reverse"><path d="M2,2 L10,10 M10,2 L2,10" fill="none" stroke="#1e293b" stroke-width="1.8" stroke-linecap="round"/></marker><marker id="arrow-bracket-open" viewBox="0 0 12 14" refX="11" refY="7" markerWidth="12" markerHeight="14" markerUnits="userSpaceOnUse" orient="auto-start-reverse"><path d="M10,1 L4,1 L4,13 L10,13" fill="none" stroke="#1e293b" stroke-width="1.8" stroke-linecap="round" stroke-linejoin="round"/></marker></defs><marker id="arrow-ie-one" viewBox="0 0 24 16" refX="22" refY="8" markerWidth="24" markerHeight="16" markerUnits="userSpaceOnUse" orient="auto-start-reverse"><path d="M16,2 L16,14" fill="none" stroke="#1e293b" stroke-width="1.8" stroke-linecap="round"/></marker><marker id="arrow-ie-zero-one" viewBox="0 0 30 16" refX="28" refY="8" markerWidth="30" markerHeight="16" markerUnits="userSpaceOnUse" orient="auto-start-reverse"><circle cx="10" cy="8" r="4" fill="#ffffff" stroke="#1e293b" stroke-width="1.5"/><path d="M20,2 L20,14" fill="none" stroke="#1e293b" stroke-width="1.8" stroke-linecap="round"/></marker><marker id="arrow-ie-zero-many" viewBox="0 0 34 18" refX="32" refY="9" markerWidth="34" markerHeight="18" markerUnits="userSpaceOnUse" orient="auto-start-reverse"><circle cx="8" cy="9" r="4" fill="#ffffff" stroke="#1e293b" stroke-width="1.5"/><path d="M18,9 L31,2 M18,9 L31,9 M18,9 L31,16" fill="none" stroke="#1e293b" stroke-width="1.7" stroke-linecap="round"/></marker><marker id="arrow-ie-one-many" viewBox="0 0 34 18" refX="32" refY="9" markerWidth="34" markerHeight="18" markerUnits="userSpaceOnUse" orient="auto-start-reverse"><path d="M8,2 L8,16 M18,9 L31,2 M18,9 L31,9 M18,9 L31,16" fill="none" stroke="#1e293b" stroke-width="1.7" stroke-linecap="round"/></marker><desc data-uml-id="Load Balancer">Load Balancer</desc><rect class="uml-node uml-component" data-uml-kind="component" x="248" y="104" width="200" height="80" rx="4" ry="4" fill="#f0f4f8" stroke="#1e293b" stroke-width="1.5"/><rect x="244" y="116" width="16" height="8" fill="#f0f4f8" stroke="#1e293b" stroke-width="1"/><rect x="244" y="164" width="16" height="8" fill="#f0f4f8" stroke="#1e293b" stroke-width="1"/><text x="348" y="150" text-anchor="middle" font-family="monospace" font-size="13" font-weight="600" fill="#0f172a">Load Balancer</text><text x="348" y="118" text-anchor="middle" font-family="monospace" font-size="10" fill="#0f172a">«component»</text><desc data-uml-id="App Server 1">App Server 1</desc><rect class="uml-node uml-component" data-uml-kind="component" x="104" y="392" width="200" height="80" rx="4" ry="4" fill="#f0f4f8" stroke="#1e293b" stroke-width="1.5"/><rect x="100" y="404" width="16" height="8" fill="#f0f4f8" stroke="#1e293b" stroke-width="1"/><rect x="100" y="452" width="16" height="8" fill="#f0f4f8" stroke="#1e293b" stroke-width="1"/><text x="204" y="438" text-anchor="middle" font-family="monospace" font-size="13" font-weight="600" fill="#0f172a">App Server 1</text><text x="204" y="406" text-anchor="middle" font-family="monospace" font-size="10" fill="#0f172a">«component»</text><desc data-uml-id="App Server 2">App Server 2</desc><rect class="uml-node uml-component" data-uml-kind="component" x="392" y="392" width="200" height="80" rx="4" ry="4" fill="#f0f4f8" stroke="#1e293b" stroke-width="1.5"/><rect x="388" y="404" width="16" height="8" fill="#f0f4f8" stroke="#1e293b" stroke-width="1"/><rect x="388" y="452" width="16" height="8" fill="#f0f4f8" stroke="#1e293b" stroke-width="1"/><text x="492" y="438" text-anchor="middle" font-family="monospace" font-size="13" font-weight="600" fill="#0f172a">App Server 2</text><text x="492" y="406" text-anchor="middle" font-family="monospace" font-size="10" fill="#0f172a">«component»</text><desc data-uml-id="Primary DB">Primary DB</desc><rect class="uml-node uml-component" data-uml-kind="component" x="248" y="680" width="200" height="80" rx="4" ry="4" fill="#f0f4f8" stroke="#1e293b" stroke-width="1.5"/><rect x="244" y="692" width="16" height="8" fill="#f0f4f8" stroke="#1e293b" stroke-width="1"/><rect x="244" y="740" width="16" height="8" fill="#f0f4f8" stroke="#1e293b" stroke-width="1"/><text x="348" y="726" text-anchor="middle" font-family="monospace" font-size="13" font-weight="600" fill="#0f172a">Primary DB</text><text x="348" y="694" text-anchor="middle" font-family="monospace" font-size="10" fill="#0f172a">«component»</text><text x="348" y="707" text-anchor="middle" font-family="monospace" font-size="10" fill="#64748b">&lt;&lt;database&gt;&gt;</text><desc data-uml-id="Replica DB">Replica DB</desc><rect class="uml-node uml-component" data-uml-kind="component" x="248" y="968" width="200" height="80" rx="4" ry="4" fill="#f0f4f8" stroke="#1e293b" stroke-width="1.5"/><rect x="244" y="980" width="16" height="8" fill="#f0f4f8" stroke="#1e293b" stroke-width="1"/><rect x="244" y="1028" width="16" height="8" fill="#f0f4f8" stroke="#1e293b" stroke-width="1"/><text x="348" y="1014" text-anchor="middle" font-family="monospace" font-size="13" font-weight="600" fill="#0f172a">Replica DB</text><text x="348" y="982" text-anchor="middle" font-family="monospace" font-size="10" fill="#0f172a">«component»</text><text x="348" y="995" text-anchor="middle" font-family="monospace" font-size="10" fill="#64748b">&lt;&lt;database&gt;&gt;</text><path class="uml-relation" data-uml-from="LB" data-uml-to="App1" data-uml-arrow="--&gt;" d="M 314,184 C 314.0,217.3 332.3,267.3 314.0,284.0 C 295.7,300.7 222.3,266.0 204.0,284.0 C 185.7,302.0 204.0,356.0 204.0,392.0" fill="none" stroke="#1e293b" stroke-width="2" marker-end="url(#arrow-open)" /><path class="uml-relation" data-uml-from="LB" data-uml-to="App2" data-uml-arrow="--&gt;" d="M 381,184 C 381.0,220.0 362.5,274.0 381.0,292.0 C 399.5,310.0 473.5,275.3 492.0,292.0 C 510.5,308.7 492.0,358.7 492.0,392.0" fill="none" stroke="#1e293b" stroke-width="2" marker-end="url(#arrow-open)" /><path class="uml-relation" data-uml-from="App1" data-uml-to="PDB" data-uml-arrow="--&gt;" d="M 204,472 C 204.0,505.3 180.0,555.3 204.0,572.0 C 228.0,588.7 324.0,554.0 348.0,572.0 C 372.0,590.0 348.0,644.0 348.0,680.0" fill="none" stroke="#1e293b" stroke-width="2" marker-end="url(#arrow-open)" /><path class="uml-relation" data-uml-from="App2" data-uml-to="PDB" data-uml-arrow="--&gt;" d="M 492,472 C 492.0,508.0 516.0,562.0 492.0,580.0 C 468.0,598.0 372.0,563.3 348.0,580.0 C 324.0,596.7 348.0,646.7 348.0,680.0" fill="none" stroke="#1e293b" stroke-width="2" marker-end="url(#arrow-open)" /><path class="uml-relation" data-uml-from="PDB" data-uml-to="RDB" data-uml-arrow="--&gt;" d="M 348,760 C 348.0,794.7 348.0,829.3 348.0,864.0 C 348.0,898.7 348.0,933.3 348.0,968.0" fill="none" stroke="#1e293b" stroke-width="2" marker-end="url(#arrow-open)" /><text class="uml-edge-label" data-uml-label-role="edge" x="259" y="272" text-anchor="middle" font-family="monospace" font-size="11" fill="#1e293b">routes</text><text class="uml-edge-label" data-uml-label-role="edge" x="436" y="280" text-anchor="middle" font-family="monospace" font-size="11" fill="#1e293b">routes</text><text class="uml-edge-label" data-uml-label-role="edge" x="306" y="652" text-anchor="middle" font-family="monospace" font-size="11" fill="#1e293b">writes</text><text class="uml-edge-label" data-uml-label-role="edge" x="391" y="652" text-anchor="middle" font-family="monospace" font-size="11" fill="#1e293b">writes</text><text class="uml-edge-label" data-uml-label-role="edge" x="348" y="852" text-anchor="middle" font-family="monospace" font-size="11" fill="#1e293b">replicates</text></svg>