<svg xmlns="http://www.w3.org/2000/svg" width="760" height="360" viewBox="0 0 760 360"><rect width="100%" height="100%" fill="white"/><text x="40" y="30" font-family="monospace" font-size="12" fill="#475569">component diagram</text><rect x="40" y="100" width="200" height="80" rx="4" ry="4" fill="#fefce8" stroke="#a16207" stroke-width="1"/><rect x="36" y="112" width="16" height="8" fill="#fefce8" stroke="#a16207" stroke-width="1"/><rect x="36" y="160" width="16" height="8" fill="#fefce8" stroke="#a16207" stroke-width="1"/><text x="140" y="146" text-anchor="middle" font-family="monospace" font-size="13" font-weight="600">Load Balancer</text><text x="140" y="114" text-anchor="middle" font-family="monospace" font-size="10" fill="#475569">component</text><rect x="280" y="100" width="200" height="80" rx="4" ry="4" fill="#fefce8" stroke="#a16207" stroke-width="1"/><rect x="276" y="112" width="16" height="8" fill="#fefce8" stroke="#a16207" stroke-width="1"/><rect x="276" y="160" width="16" height="8" fill="#fefce8" stroke="#a16207" stroke-width="1"/><text x="380" y="146" text-anchor="middle" font-family="monospace" font-size="13" font-weight="600">App Server 1</text><text x="380" y="114" text-anchor="middle" font-family="monospace" font-size="10" fill="#475569">component</text><rect x="520" y="100" width="200" height="80" rx="4" ry="4" fill="#fefce8" stroke="#a16207" stroke-width="1"/><rect x="516" y="112" width="16" height="8" fill="#fefce8" stroke="#a16207" stroke-width="1"/><rect x="516" y="160" width="16" height="8" fill="#fefce8" stroke="#a16207" stroke-width="1"/><text x="620" y="146" text-anchor="middle" font-family="monospace" font-size="13" font-weight="600">App Server 2</text><text x="620" y="114" text-anchor="middle" font-family="monospace" font-size="10" fill="#475569">component</text><ellipse cx="140" cy="230" rx="94" ry="8" fill="#ecfeff" stroke="#0e7490" stroke-width="1.5"/><rect x="46" y="230" width="188" height="60" fill="#ecfeff" stroke="#0e7490" stroke-width="1.5"/><ellipse cx="140" cy="290" rx="94" ry="8" fill="#ecfeff" stroke="#0e7490" stroke-width="1.5"/><text x="140" y="266" text-anchor="middle" font-family="monospace" font-size="13" font-weight="600">Primary DB</text><text x="140" y="234" text-anchor="middle" font-family="monospace" font-size="10" fill="#475569">database</text><ellipse cx="380" cy="230" rx="94" ry="8" fill="#ecfeff" stroke="#0e7490" stroke-width="1.5"/><rect x="286" y="230" width="188" height="60" fill="#ecfeff" stroke="#0e7490" stroke-width="1.5"/><ellipse cx="380" cy="290" rx="94" ry="8" fill="#ecfeff" stroke="#0e7490" stroke-width="1.5"/><text x="380" y="266" text-anchor="middle" font-family="monospace" font-size="13" font-weight="600">Replica DB</text><text x="380" y="234" text-anchor="middle" font-family="monospace" font-size="10" fill="#475569">database</text></svg>