<svg xmlns="http://www.w3.org/2000/svg" width="398" height="458" viewBox="0 0 398 458"><rect width="100%" height="100%" fill="#f0f4f8"/><defs><marker id="arrow-open" viewBox="0 0 10 10" refX="9" refY="5" markerWidth="10" markerHeight="10" markerUnits="userSpaceOnUse" orient="auto-start-reverse"><path d="M0,0 L10,5 L0,10" fill="none" stroke="#1e293b" stroke-width="1.5"/></marker><marker id="arrow-triangle" viewBox="0 0 12 12" refX="11" refY="6" markerWidth="12" markerHeight="12" markerUnits="userSpaceOnUse" orient="auto-start-reverse"><polygon points="0,0 12,6 0,12" fill="#ffffff" stroke="#1e293b" stroke-width="1.5" fill-rule="nonzero"/></marker><marker id="arrow-diamond-filled" viewBox="0 0 14 10" refX="13" refY="5" markerWidth="14" markerHeight="10" markerUnits="userSpaceOnUse" orient="auto-start-reverse"><path d="M0,5 L7,0 L14,5 L7,10 z" fill="#1e293b" stroke="#1e293b" stroke-width="1"/></marker><marker id="arrow-diamond-open" viewBox="0 0 14 10" refX="13" refY="5" markerWidth="14" markerHeight="10" markerUnits="userSpaceOnUse" orient="auto-start-reverse"><path d="M0,5 L7,0 L14,5 L7,10 z" fill="#ffffff" stroke="#1e293b" stroke-width="1"/></marker><marker id="arrow-double-open" viewBox="0 0 16 12" refX="15" refY="6" markerWidth="16" markerHeight="12" markerUnits="userSpaceOnUse" orient="auto-start-reverse"><path d="M0,1 L8,6 L0,11 M7,1 L15,6 L7,11" fill="none" stroke="#1e293b" stroke-width="1.5" stroke-linejoin="round"/></marker><marker id="arrow-circle-open" viewBox="0 0 12 12" refX="11" refY="6" markerWidth="12" markerHeight="12" markerUnits="userSpaceOnUse" orient="auto-start-reverse"><circle cx="6" cy="6" r="4" fill="#ffffff" stroke="#1e293b" stroke-width="1.5"/></marker><marker id="arrow-circle-filled" viewBox="0 0 12 12" refX="11" refY="6" markerWidth="12" markerHeight="12" markerUnits="userSpaceOnUse" orient="auto-start-reverse"><circle cx="6" cy="6" r="4" fill="#1e293b" stroke="#1e293b" stroke-width="1.5"/></marker><marker id="arrow-triangle-filled" viewBox="0 0 12 12" refX="11" refY="6" markerWidth="12" markerHeight="12" markerUnits="userSpaceOnUse" orient="auto-start-reverse"><polygon points="0,0 12,6 0,12" fill="#1e293b" stroke="#1e293b" stroke-width="1.5"/></marker><marker id="arrow-box-filled" viewBox="0 0 12 12" refX="11" refY="6" markerWidth="12" markerHeight="12" markerUnits="userSpaceOnUse" orient="auto-start-reverse"><rect x="2" y="2" width="8" height="8" fill="#1e293b" stroke="#1e293b" stroke-width="1.5"/></marker><marker id="arrow-plus" viewBox="0 0 12 12" refX="11" refY="6" markerWidth="12" markerHeight="12" markerUnits="userSpaceOnUse" orient="auto-start-reverse"><path d="M6,1 L6,11 M1,6 L11,6" fill="none" stroke="#1e293b" stroke-width="1.8" stroke-linecap="round"/></marker><marker id="arrow-slash" viewBox="0 0 12 12" refX="10" refY="6" markerWidth="12" markerHeight="12" markerUnits="userSpaceOnUse" orient="auto-start-reverse"><path d="M3,2 L9,10" fill="none" stroke="#1e293b" stroke-width="1.8" stroke-linecap="round"/></marker><marker id="arrow-cross" viewBox="0 0 12 12" refX="11" refY="6" markerWidth="12" markerHeight="12" markerUnits="userSpaceOnUse" orient="auto-start-reverse"><path d="M2,2 L10,10 M10,2 L2,10" fill="none" stroke="#1e293b" stroke-width="1.8" stroke-linecap="round"/></marker><marker id="arrow-bracket-open" viewBox="0 0 12 14" refX="11" refY="7" markerWidth="12" markerHeight="14" markerUnits="userSpaceOnUse" orient="auto-start-reverse"><path d="M10,1 L4,1 L4,13 L10,13" fill="none" stroke="#1e293b" stroke-width="1.8" stroke-linecap="round" stroke-linejoin="round"/></marker></defs><marker id="arrow-ie-one" viewBox="0 0 24 16" refX="22" refY="8" markerWidth="24" markerHeight="16" markerUnits="userSpaceOnUse" orient="auto-start-reverse"><path d="M16,2 L16,14" fill="none" stroke="#1e293b" stroke-width="1.8" stroke-linecap="round"/></marker><marker id="arrow-ie-zero-one" viewBox="0 0 30 16" refX="28" refY="8" markerWidth="30" markerHeight="16" markerUnits="userSpaceOnUse" orient="auto-start-reverse"><circle cx="10" cy="8" r="4" fill="#ffffff" stroke="#1e293b" stroke-width="1.5"/><path d="M20,2 L20,14" fill="none" stroke="#1e293b" stroke-width="1.8" stroke-linecap="round"/></marker><marker id="arrow-ie-zero-many" viewBox="0 0 34 18" refX="32" refY="9" markerWidth="34" markerHeight="18" markerUnits="userSpaceOnUse" orient="auto-start-reverse"><circle cx="8" cy="9" r="4" fill="#ffffff" stroke="#1e293b" stroke-width="1.5"/><path d="M18,9 L31,2 M18,9 L31,9 M18,9 L31,16" fill="none" stroke="#1e293b" stroke-width="1.7" stroke-linecap="round"/></marker><marker id="arrow-ie-one-many" viewBox="0 0 34 18" refX="32" refY="9" markerWidth="34" markerHeight="18" markerUnits="userSpaceOnUse" orient="auto-start-reverse"><path d="M8,2 L8,16 M18,9 L31,2 M18,9 L31,9 M18,9 L31,16" fill="none" stroke="#1e293b" stroke-width="1.7" stroke-linecap="round"/></marker><desc data-uml-id="Load Balancer">Load Balancer</desc><rect class="uml-node uml-component" data-uml-kind="component" x="112" y="8" width="165" height="50" rx="4" ry="4" fill="#f0f4f8" stroke="#1e293b" stroke-width="1.5"/><rect x="108" y="20" width="16" height="8" fill="#f0f4f8" stroke="#1e293b" stroke-width="1"/><rect x="108" y="38" width="16" height="8" fill="#f0f4f8" stroke="#1e293b" stroke-width="1"/><text x="194" y="39" text-anchor="middle" font-family="monospace" font-size="13" font-weight="600" fill="#0f172a">Load Balancer</text><desc data-uml-id="App Server 1">App Server 1</desc><rect class="uml-node uml-component" data-uml-kind="component" x="8" y="136" width="165" height="50" rx="4" ry="4" fill="#f0f4f8" stroke="#1e293b" stroke-width="1.5"/><rect x="4" y="148" width="16" height="8" fill="#f0f4f8" stroke="#1e293b" stroke-width="1"/><rect x="4" y="166" width="16" height="8" fill="#f0f4f8" stroke="#1e293b" stroke-width="1"/><text x="90" y="167" text-anchor="middle" font-family="monospace" font-size="13" font-weight="600" fill="#0f172a">App Server 1</text><desc data-uml-id="App Server 2">App Server 2</desc><rect class="uml-node uml-component" data-uml-kind="component" x="217" y="136" width="165" height="50" rx="4" ry="4" fill="#f0f4f8" stroke="#1e293b" stroke-width="1.5"/><rect x="213" y="148" width="16" height="8" fill="#f0f4f8" stroke="#1e293b" stroke-width="1"/><rect x="213" y="166" width="16" height="8" fill="#f0f4f8" stroke="#1e293b" stroke-width="1"/><text x="299" y="167" text-anchor="middle" font-family="monospace" font-size="13" font-weight="600" fill="#0f172a">App Server 2</text><desc data-uml-id="Primary DB">Primary DB</desc><rect class="uml-node uml-component" data-uml-kind="component" x="112" y="264" width="165" height="50" rx="4" ry="4" fill="#f0f4f8" stroke="#1e293b" stroke-width="1.5"/><rect x="108" y="276" width="16" height="8" fill="#f0f4f8" stroke="#1e293b" stroke-width="1"/><rect x="108" y="294" width="16" height="8" fill="#f0f4f8" stroke="#1e293b" stroke-width="1"/><text x="194" y="295" text-anchor="middle" font-family="monospace" font-size="13" font-weight="600" fill="#0f172a">Primary DB</text><text x="194" y="281" text-anchor="middle" font-family="monospace" font-size="10" fill="#64748b">&lt;&lt;database&gt;&gt;</text><desc data-uml-id="Replica DB">Replica DB</desc><rect class="uml-node uml-component" data-uml-kind="component" x="112" y="392" width="165" height="50" rx="4" ry="4" fill="#f0f4f8" stroke="#1e293b" stroke-width="1.5"/><rect x="108" y="404" width="16" height="8" fill="#f0f4f8" stroke="#1e293b" stroke-width="1"/><rect x="108" y="422" width="16" height="8" fill="#f0f4f8" stroke="#1e293b" stroke-width="1"/><text x="194" y="423" text-anchor="middle" font-family="monospace" font-size="13" font-weight="600" fill="#0f172a">Replica DB</text><text x="194" y="409" text-anchor="middle" font-family="monospace" font-size="10" fill="#64748b">&lt;&lt;database&gt;&gt;</text><polyline class="uml-relation" data-uml-from="LB" data-uml-to="App1" data-uml-arrow="--&gt;" points="195,58 195,93 90,93 90,136" fill="none" stroke="#1e293b" stroke-width="2" marker-end="url(#arrow-open)" /><polyline class="uml-relation" data-uml-from="LB" data-uml-to="App2" data-uml-arrow="--&gt;" points="195,58 195,101 299,101 299,136" fill="none" stroke="#1e293b" stroke-width="2" marker-end="url(#arrow-open)" /><polyline class="uml-relation" data-uml-from="App1" data-uml-to="PDB" data-uml-arrow="--&gt;" points="90,186 90,221 195,221 195,264" fill="none" stroke="#1e293b" stroke-width="2" marker-end="url(#arrow-open)" /><polyline class="uml-relation" data-uml-from="App2" data-uml-to="PDB" data-uml-arrow="--&gt;" points="299,186 299,229 205,229 205,264" fill="none" stroke="#1e293b" stroke-width="2" marker-end="url(#arrow-open)" /><polyline class="uml-relation" data-uml-from="PDB" data-uml-to="RDB" data-uml-arrow="--&gt;" points="195,314 195,353 195,392" fill="none" stroke="#1e293b" stroke-width="2" marker-end="url(#arrow-open)" /><text class="uml-edge-label" data-uml-label-role="edge" x="142" y="81" text-anchor="middle" font-family="monospace" font-size="11" fill="#1e293b">routes</text><text class="uml-edge-label" data-uml-label-role="edge" x="247" y="89" text-anchor="middle" font-family="monospace" font-size="11" fill="#1e293b">routes</text><rect class="uml-edge-label-bg" data-uml-label-role="edge-background" x="129" y="223" width="46" height="18" fill="white" opacity="0.85"/><text class="uml-edge-label" data-uml-label-role="edge" x="152" y="236" text-anchor="middle" font-family="monospace" font-size="11" fill="#1e293b">writes</text><rect class="uml-edge-label-bg" data-uml-label-role="edge-background" x="214" y="223" width="46" height="18" fill="white" opacity="0.85"/><text class="uml-edge-label" data-uml-label-role="edge" x="237" y="236" text-anchor="middle" font-family="monospace" font-size="11" fill="#1e293b">writes</text><text class="uml-edge-label" data-uml-label-role="edge" x="207" y="372" text-anchor="middle" font-family="monospace" font-size="11" fill="#1e293b">replicates</text></svg>