<svg xmlns="http://www.w3.org/2000/svg" width="960" height="824" viewBox="0 0 960 824"><rect width="100%" height="100%" fill="#f0f4f8"/><defs><marker id="arrow-open" viewBox="0 0 10 10" refX="9" refY="5" markerWidth="10" markerHeight="10" markerUnits="userSpaceOnUse" orient="auto-start-reverse"><path d="M0,0 L10,5 L0,10" fill="none" stroke="#1e293b" stroke-width="1.5"/></marker><marker id="arrow-triangle" viewBox="0 0 12 12" refX="11" refY="6" markerWidth="12" markerHeight="12" markerUnits="userSpaceOnUse" orient="auto-start-reverse"><polygon points="0,0 12,6 0,12" fill="#ffffff" stroke="#1e293b" stroke-width="1.5" fill-rule="nonzero"/></marker><marker id="arrow-diamond-filled" viewBox="0 0 14 10" refX="13" refY="5" markerWidth="14" markerHeight="10" markerUnits="userSpaceOnUse" orient="auto-start-reverse"><path d="M0,5 L7,0 L14,5 L7,10 z" fill="#1e293b" stroke="#1e293b" stroke-width="1"/></marker><marker id="arrow-diamond-open" viewBox="0 0 14 10" refX="13" refY="5" markerWidth="14" markerHeight="10" markerUnits="userSpaceOnUse" orient="auto-start-reverse"><path d="M0,5 L7,0 L14,5 L7,10 z" fill="#ffffff" stroke="#1e293b" stroke-width="1"/></marker></defs><desc data-uml-id="Gateway">Gateway</desc><rect class="uml-node uml-component" data-uml-kind="component" x="104" y="104" width="200" height="80" rx="4" ry="4" fill="#f0f4f8" stroke="#1e293b" stroke-width="1"/><rect x="100" y="116" width="16" height="8" fill="#f0f4f8" stroke="#1e293b" stroke-width="1"/><rect x="100" y="164" width="16" height="8" fill="#f0f4f8" stroke="#1e293b" stroke-width="1"/><text x="204" y="150" text-anchor="middle" font-family="monospace" font-size="13" font-weight="600" fill="#0f172a">Gateway</text><text x="204" y="118" text-anchor="middle" font-family="monospace" font-size="10" fill="#0f172a">«component»</text><desc data-uml-id="UserService">UserService</desc><rect class="uml-node uml-component" data-uml-kind="component" x="536" y="392" width="200" height="80" rx="4" ry="4" fill="#f0f4f8" stroke="#1e293b" stroke-width="1"/><rect x="532" y="404" width="16" height="8" fill="#f0f4f8" stroke="#1e293b" stroke-width="1"/><rect x="532" y="452" width="16" height="8" fill="#f0f4f8" stroke="#1e293b" stroke-width="1"/><text x="636" y="438" text-anchor="middle" font-family="monospace" font-size="13" font-weight="600" fill="#0f172a">UserService</text><text x="636" y="406" text-anchor="middle" font-family="monospace" font-size="10" fill="#0f172a">«component»</text><desc data-uml-id="ProductService">ProductService</desc><rect class="uml-node uml-component" data-uml-kind="component" x="248" y="392" width="200" height="80" rx="4" ry="4" fill="#f0f4f8" stroke="#1e293b" stroke-width="1"/><rect x="244" y="404" width="16" height="8" fill="#f0f4f8" stroke="#1e293b" stroke-width="1"/><rect x="244" y="452" width="16" height="8" fill="#f0f4f8" stroke="#1e293b" stroke-width="1"/><text x="348" y="438" text-anchor="middle" font-family="monospace" font-size="13" font-weight="600" fill="#0f172a">ProductService</text><text x="348" y="406" text-anchor="middle" font-family="monospace" font-size="10" fill="#0f172a">«component»</text><desc data-uml-id="__note_0001">__note_0001</desc><desc data-uml-id="__note_0001">__note_0001</desc><path d="M392,104 H576 L592 120 V184 H392 Z" fill="#fff8c4" stroke="#8a6d00" stroke-width="1.2"/><path d="M576 104 V120 H592" fill="none" stroke="#8a6d00" stroke-width="1"/><text x="402" y="126" font-family="monospace" font-size="12" fill="#3b2f00">public facade</text><desc data-uml-id="__note_0002">__note_0002</desc><desc data-uml-id="__note_0002">__note_0002</desc><path d="M680,104 H864 L880 120 V184 H680 Z" fill="#fff8c4" stroke="#8a6d00" stroke-width="1.2"/><path d="M864 104 V120 H880" fill="none" stroke="#8a6d00" stroke-width="1"/><text x="690" y="126" font-family="monospace" font-size="12" fill="#3b2f00">retry policy</text><polyline class="uml-relation" data-uml-from="Gateway" data-uml-to="UserService" data-uml-arrow="--&gt;" points="304,144 304,213 536,213 536,432" fill="none" stroke="#1e293b" stroke-width="2" marker-end="url(#arrow-open)" /><polyline class="uml-relation" data-uml-from="Gateway" data-uml-to="ProductService" data-uml-arrow="--&gt;" points="204,184 204,263 348,263 348,392" fill="none" stroke="#1e293b" stroke-width="2" marker-end="url(#arrow-open)" /><line class="uml-relation" data-uml-from="Gateway" data-uml-to="__note_0001" data-uml-arrow=".." x1="304" y1="144" x2="392" y2="144" stroke="#1e293b" stroke-width="2" stroke-dasharray="5 3" data-uml-relation-style="dashed" /><line class="uml-relation" data-uml-from="ProductService" data-uml-to="__note_0002" data-uml-arrow=".." x1="448" y1="432" x2="680" y2="144" stroke="#1e293b" stroke-width="2" stroke-dasharray="5 3" data-uml-relation-style="dashed" /></svg>