<svg xmlns="http://www.w3.org/2000/svg" width="760" height="240" viewBox="0 0 760 240"><rect width="100%" height="100%" fill="#f0f4f8"/><defs><marker id="arrow-open" viewBox="0 0 10 10" refX="9" refY="5" markerWidth="10" markerHeight="10" orient="auto-start-reverse"><path d="M0,0 L10,5 L0,10" fill="none" stroke="#1e293b" stroke-width="1.5"/></marker><marker id="arrow-triangle" viewBox="0 0 12 12" refX="11" refY="6" markerWidth="12" markerHeight="12" orient="auto-start-reverse"><path d="M0,0 L12,6 L0,12 z" fill="white" stroke="#1e293b" stroke-width="1.5"/></marker><marker id="arrow-diamond-filled" viewBox="0 0 14 10" refX="13" refY="5" markerWidth="14" markerHeight="10" orient="auto-start-reverse"><path d="M0,5 L7,0 L14,5 L7,10 z" fill="#1e293b" stroke="#1e293b" stroke-width="1"/></marker><marker id="arrow-diamond-open" viewBox="0 0 14 10" refX="13" refY="5" markerWidth="14" markerHeight="10" orient="auto-start-reverse"><path d="M0,5 L7,0 L14,5 L7,10 z" fill="white" stroke="#1e293b" stroke-width="1"/></marker></defs><text x="40" y="30" font-family="monospace" font-size="12" fill="#475569">component diagram</text><desc data-uml-id="Gateway">Gateway</desc><rect class="uml-node uml-component" data-uml-kind="component" x="40" y="100" width="200" height="80" rx="4" ry="4" fill="#f0f4f8" stroke="#1e293b" stroke-width="1"/><rect x="36" y="112" width="16" height="8" fill="#f0f4f8" stroke="#1e293b" stroke-width="1"/><rect x="36" y="160" width="16" height="8" fill="#f0f4f8" stroke="#1e293b" stroke-width="1"/><text x="140" y="146" text-anchor="middle" font-family="monospace" font-size="13" font-weight="600" fill="#0f172a">Gateway</text><text x="140" y="114" text-anchor="middle" font-family="monospace" font-size="10" fill="#0f172a">component</text><desc data-uml-id="UserService">UserService</desc><rect class="uml-node uml-component" data-uml-kind="component" x="280" y="100" width="200" height="80" rx="4" ry="4" fill="#f0f4f8" stroke="#1e293b" stroke-width="1"/><rect x="276" y="112" width="16" height="8" fill="#f0f4f8" stroke="#1e293b" stroke-width="1"/><rect x="276" y="160" width="16" height="8" fill="#f0f4f8" stroke="#1e293b" stroke-width="1"/><text x="380" y="146" text-anchor="middle" font-family="monospace" font-size="13" font-weight="600" fill="#0f172a">UserService</text><text x="380" y="114" text-anchor="middle" font-family="monospace" font-size="10" fill="#0f172a">component</text><desc data-uml-id="ProductService">ProductService</desc><rect class="uml-node uml-component" data-uml-kind="component" x="520" y="100" width="200" height="80" rx="4" ry="4" fill="#f0f4f8" stroke="#1e293b" stroke-width="1"/><rect x="516" y="112" width="16" height="8" fill="#f0f4f8" stroke="#1e293b" stroke-width="1"/><rect x="516" y="160" width="16" height="8" fill="#f0f4f8" stroke="#1e293b" stroke-width="1"/><text x="620" y="146" text-anchor="middle" font-family="monospace" font-size="13" font-weight="600" fill="#0f172a">ProductService</text><text x="620" y="114" text-anchor="middle" font-family="monospace" font-size="10" fill="#0f172a">component</text><line x1="240" y1="140" x2="280" y2="140" stroke="#1e293b" stroke-width="2" marker-end="url(#arrow-open)" /><line x1="240" y1="140" x2="520" y2="140" stroke="#1e293b" stroke-width="2" marker-end="url(#arrow-open)" /></svg>