<svg xmlns="http://www.w3.org/2000/svg" width="760" height="240" viewBox="0 0 760 240"><rect width="100%" height="100%" fill="white"/><text x="40" y="30" font-family="monospace" font-size="12" fill="#475569">component diagram</text><rect x="40" y="100" width="200" height="80" rx="4" ry="4" fill="#fefce8" stroke="#a16207" stroke-width="1"/><rect x="36" y="112" width="16" height="8" fill="#fefce8" stroke="#a16207" stroke-width="1"/><rect x="36" y="160" width="16" height="8" fill="#fefce8" stroke="#a16207" stroke-width="1"/><text x="140" y="146" text-anchor="middle" font-family="monospace" font-size="13" font-weight="600">Gateway</text><text x="140" y="114" text-anchor="middle" font-family="monospace" font-size="10" fill="#475569">component</text><rect x="280" y="100" width="200" height="80" rx="4" ry="4" fill="#fefce8" stroke="#a16207" stroke-width="1"/><rect x="276" y="112" width="16" height="8" fill="#fefce8" stroke="#a16207" stroke-width="1"/><rect x="276" y="160" width="16" height="8" fill="#fefce8" stroke="#a16207" stroke-width="1"/><text x="380" y="146" text-anchor="middle" font-family="monospace" font-size="13" font-weight="600">UserService</text><text x="380" y="114" text-anchor="middle" font-family="monospace" font-size="10" fill="#475569">component</text><rect x="520" y="100" width="200" height="80" rx="4" ry="4" fill="#fefce8" stroke="#a16207" stroke-width="1"/><rect x="516" y="112" width="16" height="8" fill="#fefce8" stroke="#a16207" stroke-width="1"/><rect x="516" y="160" width="16" height="8" fill="#fefce8" stroke="#a16207" stroke-width="1"/><text x="620" y="146" text-anchor="middle" font-family="monospace" font-size="13" font-weight="600">ProductService</text><text x="620" y="114" text-anchor="middle" font-family="monospace" font-size="10" fill="#475569">component</text><line x1="240" y1="140" x2="280" y2="140" stroke="#334155" stroke-width="1.5"/><polygon points="280,140 272,144 272,136" fill="#334155"/><line x1="240" y1="140" x2="520" y2="140" stroke="#334155" stroke-width="1.5"/><polygon points="520,140 512,144 512,136" fill="#334155"/></svg>