<svg xmlns="http://www.w3.org/2000/svg" width="688" height="528" viewBox="0 0 688 528"><rect width="100%" height="100%" fill="#f0f4f8"/><defs><marker id="arrow-open" viewBox="0 0 10 10" refX="9" refY="5" markerWidth="10" markerHeight="10" markerUnits="userSpaceOnUse" orient="auto-start-reverse"><path d="M0,0 L10,5 L0,10" fill="none" stroke="#1e293b" stroke-width="1.5"/></marker><marker id="arrow-triangle" viewBox="0 0 12 12" refX="11" refY="6" markerWidth="12" markerHeight="12" markerUnits="userSpaceOnUse" orient="auto-start-reverse"><polygon points="0,0 12,6 0,12" fill="#ffffff" stroke="#1e293b" stroke-width="1.5" fill-rule="nonzero"/></marker><marker id="arrow-diamond-filled" viewBox="0 0 14 10" refX="13" refY="5" markerWidth="14" markerHeight="10" markerUnits="userSpaceOnUse" orient="auto-start-reverse"><path d="M0,5 L7,0 L14,5 L7,10 z" fill="#1e293b" stroke="#1e293b" stroke-width="1"/></marker><marker id="arrow-diamond-open" viewBox="0 0 14 10" refX="13" refY="5" markerWidth="14" markerHeight="10" markerUnits="userSpaceOnUse" orient="auto-start-reverse"><path d="M0,5 L7,0 L14,5 L7,10 z" fill="#ffffff" stroke="#1e293b" stroke-width="1"/></marker></defs><polyline class="uml-relation" data-uml-from="Gateway" data-uml-to="UserService" data-uml-arrow="--&gt;" points="324,184 324,240 444,240 444,304" fill="none" stroke="#1e293b" stroke-width="2" marker-end="url(#arrow-open)" /><polyline class="uml-relation" data-uml-from="Gateway" data-uml-to="ProductService" data-uml-arrow="--&gt;" points="324,184 324,248 204,248 204,304" fill="none" stroke="#1e293b" stroke-width="2" marker-end="url(#arrow-open)" /><desc data-uml-id="Gateway">Gateway</desc><rect class="uml-node uml-component" data-uml-kind="component" x="224" y="104" width="200" height="80" rx="4" ry="4" fill="#f0f4f8" stroke="#1e293b" stroke-width="1"/><rect x="220" y="116" width="16" height="8" fill="#f0f4f8" stroke="#1e293b" stroke-width="1"/><rect x="220" y="164" width="16" height="8" fill="#f0f4f8" stroke="#1e293b" stroke-width="1"/><text x="324" y="150" text-anchor="middle" font-family="monospace" font-size="13" font-weight="600" fill="#0f172a">Gateway</text><desc data-uml-id="UserService">UserService</desc><rect class="uml-node uml-component" data-uml-kind="component" x="344" y="304" width="200" height="80" rx="4" ry="4" fill="#f0f4f8" stroke="#1e293b" stroke-width="1"/><rect x="340" y="316" width="16" height="8" fill="#f0f4f8" stroke="#1e293b" stroke-width="1"/><rect x="340" y="364" width="16" height="8" fill="#f0f4f8" stroke="#1e293b" stroke-width="1"/><text x="444" y="350" text-anchor="middle" font-family="monospace" font-size="13" font-weight="600" fill="#0f172a">UserService</text><desc data-uml-id="ProductService">ProductService</desc><rect class="uml-node uml-component" data-uml-kind="component" x="104" y="304" width="200" height="80" rx="4" ry="4" fill="#f0f4f8" stroke="#1e293b" stroke-width="1"/><rect x="100" y="316" width="16" height="8" fill="#f0f4f8" stroke="#1e293b" stroke-width="1"/><rect x="100" y="364" width="16" height="8" fill="#f0f4f8" stroke="#1e293b" stroke-width="1"/><text x="204" y="350" text-anchor="middle" font-family="monospace" font-size="13" font-weight="600" fill="#0f172a">ProductService</text></svg>