<svg xmlns="http://www.w3.org/2000/svg" width="791" height="466" viewBox="0 0 791 466"><rect width="100%" height="100%" fill="#f0f4f8"/><defs><marker id="arrow-open" viewBox="0 0 10 10" refX="9" refY="5" markerWidth="10" markerHeight="10" markerUnits="userSpaceOnUse" orient="auto-start-reverse"><path d="M0,0 L10,5 L0,10" fill="none" stroke="#1e293b" stroke-width="1.5"/></marker><marker id="arrow-triangle" viewBox="0 0 12 12" refX="11" refY="6" markerWidth="12" markerHeight="12" markerUnits="userSpaceOnUse" orient="auto-start-reverse"><polygon points="0,0 12,6 0,12" fill="#ffffff" stroke="#1e293b" stroke-width="1.5" fill-rule="nonzero"/></marker><marker id="arrow-diamond-filled" viewBox="0 0 14 10" refX="13" refY="5" markerWidth="14" markerHeight="10" markerUnits="userSpaceOnUse" orient="auto-start-reverse"><path d="M0,5 L7,0 L14,5 L7,10 z" fill="#1e293b" stroke="#1e293b" stroke-width="1"/></marker><marker id="arrow-diamond-open" viewBox="0 0 14 10" refX="13" refY="5" markerWidth="14" markerHeight="10" markerUnits="userSpaceOnUse" orient="auto-start-reverse"><path d="M0,5 L7,0 L14,5 L7,10 z" fill="#ffffff" stroke="#1e293b" stroke-width="1"/></marker><marker id="arrow-double-open" viewBox="0 0 16 12" refX="15" refY="6" markerWidth="16" markerHeight="12" markerUnits="userSpaceOnUse" orient="auto-start-reverse"><path d="M0,1 L8,6 L0,11 M7,1 L15,6 L7,11" fill="none" stroke="#1e293b" stroke-width="1.5" stroke-linejoin="round"/></marker><marker id="arrow-circle-open" viewBox="0 0 12 12" refX="11" refY="6" markerWidth="12" markerHeight="12" markerUnits="userSpaceOnUse" orient="auto-start-reverse"><circle cx="6" cy="6" r="4" fill="#ffffff" stroke="#1e293b" stroke-width="1.5"/></marker><marker id="arrow-circle-filled" viewBox="0 0 12 12" refX="11" refY="6" markerWidth="12" markerHeight="12" markerUnits="userSpaceOnUse" orient="auto-start-reverse"><circle cx="6" cy="6" r="4" fill="#1e293b" stroke="#1e293b" stroke-width="1.5"/></marker><marker id="arrow-triangle-filled" viewBox="0 0 12 12" refX="11" refY="6" markerWidth="12" markerHeight="12" markerUnits="userSpaceOnUse" orient="auto-start-reverse"><polygon points="0,0 12,6 0,12" fill="#1e293b" stroke="#1e293b" stroke-width="1.5"/></marker><marker id="arrow-box-filled" viewBox="0 0 12 12" refX="11" refY="6" markerWidth="12" markerHeight="12" markerUnits="userSpaceOnUse" orient="auto-start-reverse"><rect x="2" y="2" width="8" height="8" fill="#1e293b" stroke="#1e293b" stroke-width="1.5"/></marker><marker id="arrow-plus" viewBox="0 0 12 12" refX="11" refY="6" markerWidth="12" markerHeight="12" markerUnits="userSpaceOnUse" orient="auto-start-reverse"><path d="M6,1 L6,11 M1,6 L11,6" fill="none" stroke="#1e293b" stroke-width="1.8" stroke-linecap="round"/></marker><marker id="arrow-slash" viewBox="0 0 12 12" refX="10" refY="6" markerWidth="12" markerHeight="12" markerUnits="userSpaceOnUse" orient="auto-start-reverse"><path d="M3,2 L9,10" fill="none" stroke="#1e293b" stroke-width="1.8" stroke-linecap="round"/></marker><marker id="arrow-cross" viewBox="0 0 12 12" refX="11" refY="6" markerWidth="12" markerHeight="12" markerUnits="userSpaceOnUse" orient="auto-start-reverse"><path d="M2,2 L10,10 M10,2 L2,10" fill="none" stroke="#1e293b" stroke-width="1.8" stroke-linecap="round"/></marker><marker id="arrow-bracket-open" viewBox="0 0 12 14" refX="11" refY="7" markerWidth="12" markerHeight="14" markerUnits="userSpaceOnUse" orient="auto-start-reverse"><path d="M10,1 L4,1 L4,13 L10,13" fill="none" stroke="#1e293b" stroke-width="1.8" stroke-linecap="round" stroke-linejoin="round"/></marker></defs><marker id="arrow-ie-one" viewBox="0 0 24 16" refX="22" refY="8" markerWidth="24" markerHeight="16" markerUnits="userSpaceOnUse" orient="auto-start-reverse"><path d="M16,2 L16,14" fill="none" stroke="#1e293b" stroke-width="1.8" stroke-linecap="round"/></marker><marker id="arrow-ie-zero-one" viewBox="0 0 30 16" refX="28" refY="8" markerWidth="30" markerHeight="16" markerUnits="userSpaceOnUse" orient="auto-start-reverse"><circle cx="10" cy="8" r="4" fill="#ffffff" stroke="#1e293b" stroke-width="1.5"/><path d="M20,2 L20,14" fill="none" stroke="#1e293b" stroke-width="1.8" stroke-linecap="round"/></marker><marker id="arrow-ie-zero-many" viewBox="0 0 34 18" refX="32" refY="9" markerWidth="34" markerHeight="18" markerUnits="userSpaceOnUse" orient="auto-start-reverse"><circle cx="8" cy="9" r="4" fill="#ffffff" stroke="#1e293b" stroke-width="1.5"/><path d="M18,9 L31,2 M18,9 L31,9 M18,9 L31,16" fill="none" stroke="#1e293b" stroke-width="1.7" stroke-linecap="round"/></marker><marker id="arrow-ie-one-many" viewBox="0 0 34 18" refX="32" refY="9" markerWidth="34" markerHeight="18" markerUnits="userSpaceOnUse" orient="auto-start-reverse"><path d="M8,2 L8,16 M18,9 L31,2 M18,9 L31,9 M18,9 L31,16" fill="none" stroke="#1e293b" stroke-width="1.7" stroke-linecap="round"/></marker><desc data-uml-id="Gateway">Gateway</desc><rect class="uml-node uml-component" data-uml-kind="component" x="293" y="40" width="165" height="50" rx="4" ry="4" fill="#f0f4f8" stroke="#1e293b" stroke-width="1.5"/><rect x="289" y="52" width="16" height="8" fill="#f0f4f8" stroke="#1e293b" stroke-width="1"/><rect x="289" y="70" width="16" height="8" fill="#f0f4f8" stroke="#1e293b" stroke-width="1"/><text x="375" y="71" text-anchor="middle" font-family="monospace" font-size="13" font-weight="600" fill="#0f172a">Gateway</text><desc data-uml-id="UserService">UserService</desc><rect class="uml-node uml-component" data-uml-kind="component" x="293" y="188" width="165" height="50" rx="4" ry="4" fill="#f0f4f8" stroke="#1e293b" stroke-width="1.5"/><rect x="289" y="200" width="16" height="8" fill="#f0f4f8" stroke="#1e293b" stroke-width="1"/><rect x="289" y="218" width="16" height="8" fill="#f0f4f8" stroke="#1e293b" stroke-width="1"/><text x="375" y="219" text-anchor="middle" font-family="monospace" font-size="13" font-weight="600" fill="#0f172a">UserService</text><desc data-uml-id="ProductService">ProductService</desc><rect class="uml-node uml-component" data-uml-kind="component" x="40" y="188" width="165" height="50" rx="4" ry="4" fill="#f0f4f8" stroke="#1e293b" stroke-width="1.5"/><rect x="36" y="200" width="16" height="8" fill="#f0f4f8" stroke="#1e293b" stroke-width="1"/><rect x="36" y="218" width="16" height="8" fill="#f0f4f8" stroke="#1e293b" stroke-width="1"/><text x="122" y="219" text-anchor="middle" font-family="monospace" font-size="13" font-weight="600" fill="#0f172a">ProductService</text><desc data-uml-id="__note_0001">__note_0001</desc><desc data-uml-id="__note_0001">__note_0001</desc><path d="M546,188 H695 L711 204 V238 H546 Z" fill="#fff8c4" stroke="#8a6d00" stroke-width="1.2"/><path d="M695 188 V204 H711" fill="none" stroke="#8a6d00" stroke-width="1"/><text x="556" y="210" font-family="monospace" font-size="12" fill="#3b2f00">public facade</text><desc data-uml-id="__note_0002">__note_0002</desc><desc data-uml-id="__note_0002">__note_0002</desc><path d="M293,336 H442 L458 352 V386 H293 Z" fill="#fff8c4" stroke="#8a6d00" stroke-width="1.2"/><path d="M442 336 V352 H458" fill="none" stroke="#8a6d00" stroke-width="1"/><text x="303" y="358" font-family="monospace" font-size="12" fill="#3b2f00">retry policy</text><polyline class="uml-relation" data-uml-from="Gateway" data-uml-to="UserService" data-uml-arrow="--&gt;" points="375,90 375,139 375,188" fill="none" stroke="#1e293b" stroke-width="2" marker-end="url(#arrow-open)" /><polyline class="uml-relation" data-uml-from="Gateway" data-uml-to="ProductService" data-uml-arrow="--&gt;" points="375,90 375,176 122,176 122,188" fill="none" stroke="#1e293b" stroke-width="2" marker-end="url(#arrow-open)" /><polyline class="uml-relation" data-uml-from="Gateway" data-uml-to="__note_0001" data-uml-arrow=".." points="375,90 375,176 628,176 628,188" fill="none" stroke="#1e293b" stroke-width="2" stroke-dasharray="5 3" data-uml-relation-style="dashed" /><polyline class="uml-relation" data-uml-from="ProductService" data-uml-to="__note_0002" data-uml-arrow=".." points="122,238 122,287 375,287 375,336" fill="none" stroke="#1e293b" stroke-width="2" stroke-dasharray="5 3" data-uml-relation-style="dashed" /></svg>