<svg xmlns="http://www.w3.org/2000/svg" width="688" height="728" viewBox="0 0 688 728"><rect width="100%" height="100%" fill="#f0f4f8"/><defs><marker id="arrow-open" viewBox="0 0 10 10" refX="9" refY="5" markerWidth="10" markerHeight="10" markerUnits="userSpaceOnUse" orient="auto-start-reverse"><path d="M0,0 L10,5 L0,10" fill="none" stroke="#1e293b" stroke-width="1.5"/></marker><marker id="arrow-triangle" viewBox="0 0 12 12" refX="11" refY="6" markerWidth="12" markerHeight="12" markerUnits="userSpaceOnUse" orient="auto-start-reverse"><polygon points="0,0 12,6 0,12" fill="#ffffff" stroke="#1e293b" stroke-width="1.5" fill-rule="nonzero"/></marker><marker id="arrow-diamond-filled" viewBox="0 0 14 10" refX="13" refY="5" markerWidth="14" markerHeight="10" markerUnits="userSpaceOnUse" orient="auto-start-reverse"><path d="M0,5 L7,0 L14,5 L7,10 z" fill="#1e293b" stroke="#1e293b" stroke-width="1"/></marker><marker id="arrow-diamond-open" viewBox="0 0 14 10" refX="13" refY="5" markerWidth="14" markerHeight="10" markerUnits="userSpaceOnUse" orient="auto-start-reverse"><path d="M0,5 L7,0 L14,5 L7,10 z" fill="#ffffff" stroke="#1e293b" stroke-width="1"/></marker></defs><desc data-uml-id="A">A</desc><rect class="uml-node uml-component" data-uml-kind="component" x="224" y="104" width="200" height="80" rx="4" ry="4" fill="#f0f4f8" stroke="#1e293b" stroke-width="1"/><rect x="220" y="116" width="16" height="8" fill="#f0f4f8" stroke="#1e293b" stroke-width="1"/><rect x="220" y="164" width="16" height="8" fill="#f0f4f8" stroke="#1e293b" stroke-width="1"/><text x="324" y="150" text-anchor="middle" font-family="monospace" font-size="13" font-weight="600" fill="#0f172a">A</text><text x="324" y="118" text-anchor="middle" font-family="monospace" font-size="10" fill="#0f172a">«component»</text><desc data-uml-id="B">B</desc><rect class="uml-node uml-component" data-uml-kind="component" x="104" y="304" width="200" height="80" rx="4" ry="4" fill="#f0f4f8" stroke="#1e293b" stroke-width="1"/><rect x="100" y="316" width="16" height="8" fill="#f0f4f8" stroke="#1e293b" stroke-width="1"/><rect x="100" y="364" width="16" height="8" fill="#f0f4f8" stroke="#1e293b" stroke-width="1"/><text x="204" y="350" text-anchor="middle" font-family="monospace" font-size="13" font-weight="600" fill="#0f172a">B</text><text x="204" y="318" text-anchor="middle" font-family="monospace" font-size="10" fill="#0f172a">«component»</text><desc data-uml-id="C">C</desc><rect class="uml-node uml-component" data-uml-kind="component" x="344" y="304" width="200" height="80" rx="4" ry="4" fill="#f0f4f8" stroke="#1e293b" stroke-width="1"/><rect x="340" y="316" width="16" height="8" fill="#f0f4f8" stroke="#1e293b" stroke-width="1"/><rect x="340" y="364" width="16" height="8" fill="#f0f4f8" stroke="#1e293b" stroke-width="1"/><text x="444" y="350" text-anchor="middle" font-family="monospace" font-size="13" font-weight="600" fill="#0f172a">C</text><text x="444" y="318" text-anchor="middle" font-family="monospace" font-size="10" fill="#0f172a">«component»</text><desc data-uml-id="D">D</desc><rect class="uml-node uml-component" data-uml-kind="component" x="224" y="504" width="200" height="80" rx="4" ry="4" fill="#f0f4f8" stroke="#1e293b" stroke-width="1"/><rect x="220" y="516" width="16" height="8" fill="#f0f4f8" stroke="#1e293b" stroke-width="1"/><rect x="220" y="564" width="16" height="8" fill="#f0f4f8" stroke="#1e293b" stroke-width="1"/><text x="324" y="550" text-anchor="middle" font-family="monospace" font-size="13" font-weight="600" fill="#0f172a">D</text><text x="324" y="518" text-anchor="middle" font-family="monospace" font-size="10" fill="#0f172a">«component»</text><polyline class="uml-relation" data-uml-from="A" data-uml-to="B" data-uml-arrow="--&gt;" points="324,184 324,236 204,236 204,304" fill="none" stroke="#1e293b" stroke-width="2" marker-end="url(#arrow-open)" /><polyline class="uml-relation" data-uml-from="A" data-uml-to="C" data-uml-arrow="..&gt;" points="324,184 324,244 444,244 444,304" fill="none" stroke="#1e293b" stroke-width="2" stroke-dasharray="5 3" data-uml-relation-style="dashed" marker-end="url(#arrow-open)" /><polyline class="uml-relation" data-uml-from="B" data-uml-to="D" data-uml-arrow="&lt;|--" points="204,384 204,444 324,444 324,504" fill="none" stroke="#1e293b" stroke-width="2" marker-start="url(#arrow-triangle)" /><polyline class="uml-relation" data-uml-from="C" data-uml-to="A" data-uml-arrow="--*" points="444,304 324,252 444,252 324,184" fill="none" stroke="#1e293b" stroke-width="2" marker-end="url(#arrow-diamond-filled)" /><text x="259" y="224" text-anchor="middle" font-family="monospace" font-size="11" fill="#1e293b">calls</text><text x="344" y="232" text-anchor="middle" font-family="monospace" font-size="11" fill="#1e293b">uses</text><text x="264" y="432" text-anchor="middle" font-family="monospace" font-size="11" fill="#1e293b">&lt;&lt;extend&gt;&gt;</text><text x="429" y="240" text-anchor="middle" font-family="monospace" font-size="11" fill="#1e293b">composed</text></svg>