<svg xmlns="http://www.w3.org/2000/svg" width="760" height="360" viewBox="0 0 760 360"><rect width="100%" height="100%" fill="#f0f4f8"/><defs><marker id="arrow-open" viewBox="0 0 10 10" refX="9" refY="5" markerWidth="10" markerHeight="10" markerUnits="userSpaceOnUse" orient="auto-start-reverse"><path d="M0,0 L10,5 L0,10" fill="none" stroke="#1e293b" stroke-width="1.5"/></marker><marker id="arrow-triangle" viewBox="0 0 12 12" refX="11" refY="6" markerWidth="12" markerHeight="12" markerUnits="userSpaceOnUse" orient="auto-start-reverse"><polygon points="0,0 12,6 0,12" fill="#ffffff" stroke="#1e293b" stroke-width="1.5" fill-rule="nonzero"/></marker><marker id="arrow-diamond-filled" viewBox="0 0 14 10" refX="13" refY="5" markerWidth="14" markerHeight="10" markerUnits="userSpaceOnUse" orient="auto-start-reverse"><path d="M0,5 L7,0 L14,5 L7,10 z" fill="#1e293b" stroke="#1e293b" stroke-width="1"/></marker><marker id="arrow-diamond-open" viewBox="0 0 14 10" refX="13" refY="5" markerWidth="14" markerHeight="10" markerUnits="userSpaceOnUse" orient="auto-start-reverse"><path d="M0,5 L7,0 L14,5 L7,10 z" fill="#ffffff" stroke="#1e293b" stroke-width="1"/></marker></defs><desc data-uml-id="A">A</desc><rect class="uml-node uml-component" data-uml-kind="component" x="40" y="100" width="200" height="80" rx="4" ry="4" fill="#f0f4f8" stroke="#1e293b" stroke-width="1"/><rect x="36" y="112" width="16" height="8" fill="#f0f4f8" stroke="#1e293b" stroke-width="1"/><rect x="36" y="160" width="16" height="8" fill="#f0f4f8" stroke="#1e293b" stroke-width="1"/><text x="140" y="146" text-anchor="middle" font-family="monospace" font-size="13" font-weight="600" fill="#0f172a">A</text><text x="140" y="114" text-anchor="middle" font-family="monospace" font-size="10" fill="#0f172a">«component»</text><desc data-uml-id="B">B</desc><rect class="uml-node uml-component" data-uml-kind="component" x="280" y="100" width="200" height="80" rx="4" ry="4" fill="#f0f4f8" stroke="#1e293b" stroke-width="1"/><rect x="276" y="112" width="16" height="8" fill="#f0f4f8" stroke="#1e293b" stroke-width="1"/><rect x="276" y="160" width="16" height="8" fill="#f0f4f8" stroke="#1e293b" stroke-width="1"/><text x="380" y="146" text-anchor="middle" font-family="monospace" font-size="13" font-weight="600" fill="#0f172a">B</text><text x="380" y="114" text-anchor="middle" font-family="monospace" font-size="10" fill="#0f172a">«component»</text><desc data-uml-id="C">C</desc><rect class="uml-node uml-component" data-uml-kind="component" x="520" y="100" width="200" height="80" rx="4" ry="4" fill="#f0f4f8" stroke="#1e293b" stroke-width="1"/><rect x="516" y="112" width="16" height="8" fill="#f0f4f8" stroke="#1e293b" stroke-width="1"/><rect x="516" y="160" width="16" height="8" fill="#f0f4f8" stroke="#1e293b" stroke-width="1"/><text x="620" y="146" text-anchor="middle" font-family="monospace" font-size="13" font-weight="600" fill="#0f172a">C</text><text x="620" y="114" text-anchor="middle" font-family="monospace" font-size="10" fill="#0f172a">«component»</text><desc data-uml-id="D">D</desc><rect class="uml-node uml-component" data-uml-kind="component" x="40" y="220" width="200" height="80" rx="4" ry="4" fill="#f0f4f8" stroke="#1e293b" stroke-width="1"/><rect x="36" y="232" width="16" height="8" fill="#f0f4f8" stroke="#1e293b" stroke-width="1"/><rect x="36" y="280" width="16" height="8" fill="#f0f4f8" stroke="#1e293b" stroke-width="1"/><text x="140" y="266" text-anchor="middle" font-family="monospace" font-size="13" font-weight="600" fill="#0f172a">D</text><text x="140" y="234" text-anchor="middle" font-family="monospace" font-size="10" fill="#0f172a">«component»</text><line class="uml-relation" data-uml-from="A" data-uml-to="B" data-uml-arrow="--&gt;" x1="240" y1="140" x2="280" y2="140" stroke="#1e293b" stroke-width="2" marker-end="url(#arrow-open)" /><text x="260" y="124" text-anchor="middle" font-family="monospace" font-size="11" fill="#1e293b">calls</text><line class="uml-relation" data-uml-from="A" data-uml-to="C" data-uml-arrow="..&gt;" x1="240" y1="140" x2="520" y2="140" stroke="#1e293b" stroke-width="2" stroke-dasharray="5 3" data-uml-relation-style="dashed" marker-end="url(#arrow-open)" /><text x="380" y="124" text-anchor="middle" font-family="monospace" font-size="11" fill="#1e293b">uses</text><line class="uml-relation" data-uml-from="B" data-uml-to="D" data-uml-arrow="&lt;|--" x1="300" y1="180" x2="220" y2="220" stroke="#1e293b" stroke-width="2" marker-start="url(#arrow-triangle)" /><text x="260" y="184" text-anchor="middle" font-family="monospace" font-size="11" fill="#1e293b">&lt;&lt;extend&gt;&gt;</text><line class="uml-relation" data-uml-from="C" data-uml-to="A" data-uml-arrow="--*" x1="520" y1="140" x2="240" y2="140" stroke="#1e293b" stroke-width="2" marker-end="url(#arrow-diamond-filled)" /><text x="380" y="124" text-anchor="middle" font-family="monospace" font-size="11" fill="#1e293b">composed</text></svg>