<svg xmlns="http://www.w3.org/2000/svg" width="664" height="808" viewBox="0 0 664 808"><rect width="100%" height="100%" fill="#f0f4f8"/><defs><marker id="arrow-open" viewBox="0 0 10 10" refX="9" refY="5" markerWidth="10" markerHeight="10" markerUnits="userSpaceOnUse" orient="auto-start-reverse"><path d="M0,0 L10,5 L0,10" fill="none" stroke="#1e293b" stroke-width="1.5"/></marker><marker id="arrow-triangle" viewBox="0 0 12 12" refX="11" refY="6" markerWidth="12" markerHeight="12" markerUnits="userSpaceOnUse" orient="auto-start-reverse"><polygon points="0,0 12,6 0,12" fill="#ffffff" stroke="#1e293b" stroke-width="1.5" fill-rule="nonzero"/></marker><marker id="arrow-diamond-filled" viewBox="0 0 14 10" refX="13" refY="5" markerWidth="14" markerHeight="10" markerUnits="userSpaceOnUse" orient="auto-start-reverse"><path d="M0,5 L7,0 L14,5 L7,10 z" fill="#1e293b" stroke="#1e293b" stroke-width="1"/></marker><marker id="arrow-diamond-open" viewBox="0 0 14 10" refX="13" refY="5" markerWidth="14" markerHeight="10" markerUnits="userSpaceOnUse" orient="auto-start-reverse"><path d="M0,5 L7,0 L14,5 L7,10 z" fill="#ffffff" stroke="#1e293b" stroke-width="1"/></marker></defs><desc data-uml-id="A">A</desc><rect class="uml-node uml-component" data-uml-kind="component" x="212" y="92" width="200" height="80" rx="4" ry="4" fill="#f0f4f8" stroke="#1e293b" stroke-width="1"/><rect x="208" y="104" width="16" height="8" fill="#f0f4f8" stroke="#1e293b" stroke-width="1"/><rect x="208" y="152" width="16" height="8" fill="#f0f4f8" stroke="#1e293b" stroke-width="1"/><text x="312" y="138" text-anchor="middle" font-family="monospace" font-size="13" font-weight="600" fill="#0f172a">A</text><text x="312" y="106" text-anchor="middle" font-family="monospace" font-size="10" fill="#0f172a">«component»</text><desc data-uml-id="B">B</desc><rect class="uml-node uml-component" data-uml-kind="component" x="92" y="344" width="200" height="80" rx="4" ry="4" fill="#f0f4f8" stroke="#1e293b" stroke-width="1"/><rect x="88" y="356" width="16" height="8" fill="#f0f4f8" stroke="#1e293b" stroke-width="1"/><rect x="88" y="404" width="16" height="8" fill="#f0f4f8" stroke="#1e293b" stroke-width="1"/><text x="192" y="390" text-anchor="middle" font-family="monospace" font-size="13" font-weight="600" fill="#0f172a">B</text><text x="192" y="358" text-anchor="middle" font-family="monospace" font-size="10" fill="#0f172a">«component»</text><desc data-uml-id="C">C</desc><rect class="uml-node uml-component" data-uml-kind="component" x="332" y="344" width="200" height="80" rx="4" ry="4" fill="#f0f4f8" stroke="#1e293b" stroke-width="1"/><rect x="328" y="356" width="16" height="8" fill="#f0f4f8" stroke="#1e293b" stroke-width="1"/><rect x="328" y="404" width="16" height="8" fill="#f0f4f8" stroke="#1e293b" stroke-width="1"/><text x="432" y="390" text-anchor="middle" font-family="monospace" font-size="13" font-weight="600" fill="#0f172a">C</text><text x="432" y="358" text-anchor="middle" font-family="monospace" font-size="10" fill="#0f172a">«component»</text><desc data-uml-id="D">D</desc><rect class="uml-node uml-component" data-uml-kind="component" x="212" y="596" width="200" height="80" rx="4" ry="4" fill="#f0f4f8" stroke="#1e293b" stroke-width="1"/><rect x="208" y="608" width="16" height="8" fill="#f0f4f8" stroke="#1e293b" stroke-width="1"/><rect x="208" y="656" width="16" height="8" fill="#f0f4f8" stroke="#1e293b" stroke-width="1"/><text x="312" y="642" text-anchor="middle" font-family="monospace" font-size="13" font-weight="600" fill="#0f172a">D</text><text x="312" y="610" text-anchor="middle" font-family="monospace" font-size="10" fill="#0f172a">«component»</text><polyline class="uml-relation" data-uml-from="A" data-uml-to="B" data-uml-arrow="--&gt;" points="312,172 312,250 192,250 192,344" fill="none" stroke="#1e293b" stroke-width="2" marker-end="url(#arrow-open)" /><polyline class="uml-relation" data-uml-from="A" data-uml-to="C" data-uml-arrow="..&gt;" points="312,172 312,258 432,258 432,344" fill="none" stroke="#1e293b" stroke-width="2" stroke-dasharray="5 3" data-uml-relation-style="dashed" marker-end="url(#arrow-open)" /><polyline class="uml-relation" data-uml-from="B" data-uml-to="D" data-uml-arrow="&lt;|--" points="192,424 192,510 312,510 312,596" fill="none" stroke="#1e293b" stroke-width="2" marker-start="url(#arrow-triangle)" /><polyline class="uml-relation" data-uml-from="C" data-uml-to="A" data-uml-arrow="--*" points="312,172 312,266 432,266 432,344" fill="none" stroke="#1e293b" stroke-width="2" marker-end="url(#arrow-diamond-filled)" /><text x="278" y="185" text-anchor="middle" font-family="monospace" font-size="11" fill="#1e293b">calls</text><text x="306" y="209" text-anchor="middle" font-family="monospace" font-size="11" fill="#1e293b">uses</text><text x="334" y="233" text-anchor="middle" font-family="monospace" font-size="11" fill="#1e293b">composed</text><text x="186" y="461" text-anchor="middle" font-family="monospace" font-size="11" fill="#1e293b">&lt;&lt;extend&gt;&gt;</text></svg>