<svg xmlns="http://www.w3.org/2000/svg" width="1964" height="604" viewBox="0 0 1964 604"><rect width="100%" height="100%" fill="#f0f4f8"/><defs><marker id="arrow-open" viewBox="0 0 10 10" refX="9" refY="5" markerWidth="10" markerHeight="10" markerUnits="userSpaceOnUse" orient="auto-start-reverse"><path d="M0,0 L10,5 L0,10" fill="none" stroke="#1e293b" stroke-width="1.5"/></marker><marker id="arrow-triangle" viewBox="0 0 12 12" refX="11" refY="6" markerWidth="12" markerHeight="12" markerUnits="userSpaceOnUse" orient="auto-start-reverse"><polygon points="0,0 12,6 0,12" fill="#ffffff" stroke="#1e293b" stroke-width="1.5" fill-rule="nonzero"/></marker><marker id="arrow-diamond-filled" viewBox="0 0 14 10" refX="13" refY="5" markerWidth="14" markerHeight="10" markerUnits="userSpaceOnUse" orient="auto-start-reverse"><path d="M0,5 L7,0 L14,5 L7,10 z" fill="#1e293b" stroke="#1e293b" stroke-width="1"/></marker><marker id="arrow-diamond-open" viewBox="0 0 14 10" refX="13" refY="5" markerWidth="14" markerHeight="10" markerUnits="userSpaceOnUse" orient="auto-start-reverse"><path d="M0,5 L7,0 L14,5 L7,10 z" fill="#ffffff" stroke="#1e293b" stroke-width="1"/></marker></defs><text x="40" y="40" font-family="monospace" font-size="18" font-weight="600">Ports, lollipop interfaces, and required connectors</text><rect class="uml-group-frame" data-uml-group="Order Service" x="118" y="90" width="1688" height="156" rx="8" ry="8" fill="#f8faff" stroke="#1e293b" stroke-width="1.5"/><rect x="118" y="90" width="184" height="40" rx="8" ry="8" fill="#1e293b" stroke="#1e293b" stroke-width="1.5"/><rect x="118" y="122" width="184" height="8" fill="#1e293b" stroke="none"/><text x="126" y="122" font-family="monospace" font-size="11" font-weight="600" fill="#ffffff">package Order Service</text><line x1="118" y1="130" x2="1806" y2="130" stroke="#1e293b" stroke-width="1"/><rect class="uml-group-frame" data-uml-group="Notification Service" x="478" y="290" width="968" height="156" rx="8" ry="8" fill="#f8faff" stroke="#1e293b" stroke-width="1.5"/><rect x="478" y="290" width="240" height="40" rx="8" ry="8" fill="#1e293b" stroke="#1e293b" stroke-width="1.5"/><rect x="478" y="322" width="240" height="8" fill="#1e293b" stroke="none"/><text x="486" y="322" font-family="monospace" font-size="11" font-weight="600" fill="#ffffff">package Notification Service</text><line x1="478" y1="330" x2="1446" y2="330" stroke="#1e293b" stroke-width="1"/><rect class="uml-group-frame" data-uml-group="Database&quot; &lt;&lt;database&gt;&gt;" x="958" y="290" width="248" height="156" rx="8" ry="8" fill="#f8faff" stroke="#1e293b" stroke-width="1.5"/><rect x="958" y="290" width="248" height="40" rx="8" ry="8" fill="#1e293b" stroke="#1e293b" stroke-width="1.5"/><rect x="958" y="322" width="248" height="8" fill="#1e293b" stroke="none"/><text x="966" y="322" font-family="monospace" font-size="11" font-weight="600" fill="#ffffff">package Database&quot; &lt;&lt;database&gt;&gt;</text><line x1="958" y1="330" x2="1206" y2="330" stroke="#1e293b" stroke-width="1"/><rect class="uml-group-frame" data-uml-group="Message Bus&quot; &lt;&lt;queue&gt;&gt;" x="718" y="290" width="248" height="156" rx="8" ry="8" fill="#f8faff" stroke="#1e293b" stroke-width="1.5"/><rect x="718" y="290" width="248" height="40" rx="8" ry="8" fill="#1e293b" stroke="#1e293b" stroke-width="1.5"/><rect x="718" y="322" width="248" height="8" fill="#1e293b" stroke="none"/><text x="726" y="322" font-family="monospace" font-size="11" font-weight="600" fill="#ffffff">package Message Bus&quot; &lt;&lt;queue&gt;&gt;</text><line x1="718" y1="330" x2="966" y2="330" stroke="#1e293b" stroke-width="1"/><desc data-uml-id="Order Service::OC">Order Service::OC</desc><rect class="uml-node uml-component" data-uml-kind="component" x="1102" y="142" width="200" height="80" rx="4" ry="4" fill="#f0f4f8" stroke="#1e293b" stroke-width="1"/><rect x="1098" y="154" width="16" height="8" fill="#f0f4f8" stroke="#1e293b" stroke-width="1"/><rect x="1098" y="202" width="16" height="8" fill="#f0f4f8" stroke="#1e293b" stroke-width="1"/><text x="1202" y="188" text-anchor="middle" font-family="monospace" font-size="13" font-weight="600" fill="#0f172a">OrderController</text><text x="1202" y="156" text-anchor="middle" font-family="monospace" font-size="10" fill="#0f172a">«component»</text><desc data-uml-id="Order Service::OD">Order Service::OD</desc><rect class="uml-node uml-component" data-uml-kind="component" x="142" y="142" width="200" height="80" rx="4" ry="4" fill="#f0f4f8" stroke="#1e293b" stroke-width="1"/><rect x="138" y="154" width="16" height="8" fill="#f0f4f8" stroke="#1e293b" stroke-width="1"/><rect x="138" y="202" width="16" height="8" fill="#f0f4f8" stroke="#1e293b" stroke-width="1"/><text x="242" y="188" text-anchor="middle" font-family="monospace" font-size="13" font-weight="600" fill="#0f172a">OrderDomain</text><text x="242" y="156" text-anchor="middle" font-family="monospace" font-size="10" fill="#0f172a">«component»</text><desc data-uml-id="Order Service::OR">Order Service::OR</desc><rect class="uml-node uml-component" data-uml-kind="component" x="382" y="142" width="200" height="80" rx="4" ry="4" fill="#f0f4f8" stroke="#1e293b" stroke-width="1"/><rect x="378" y="154" width="16" height="8" fill="#f0f4f8" stroke="#1e293b" stroke-width="1"/><rect x="378" y="202" width="16" height="8" fill="#f0f4f8" stroke="#1e293b" stroke-width="1"/><text x="482" y="188" text-anchor="middle" font-family="monospace" font-size="13" font-weight="600" fill="#0f172a">OrderRepository</text><text x="482" y="156" text-anchor="middle" font-family="monospace" font-size="10" fill="#0f172a">«component»</text><desc data-uml-id="Order Service::IOrderService">Order Service::IOrderService</desc><circle class="uml-node uml-interface" data-uml-kind="interface" cx="962" cy="182" r="18" fill="#e2e8f0" stroke="#1e293b" stroke-width="1.5"/><text x="962" y="210" text-anchor="middle" font-family="monospace" font-size="13" font-weight="600" fill="#0f172a">IOrderService</text><text x="962" y="224" text-anchor="middle" font-family="monospace" font-size="10" fill="#0f172a">«interface»</text><desc data-uml-id="Order Service::IOrderRepository">Order Service::IOrderRepository</desc><circle class="uml-node uml-interface" data-uml-kind="interface" cx="722" cy="182" r="18" fill="#e2e8f0" stroke="#1e293b" stroke-width="1.5"/><text x="722" y="210" text-anchor="middle" font-family="monospace" font-size="13" font-weight="600" fill="#0f172a">IOrderRepository</text><text x="722" y="224" text-anchor="middle" font-family="monospace" font-size="10" fill="#0f172a">«interface»</text><desc data-uml-id="Order Service::OC -( IOrderService : provides">Order Service::OC -( IOrderService : provides</desc><rect class="uml-node uml-component" data-uml-kind="component" x="1342" y="142" width="200" height="80" rx="4" ry="4" fill="#f0f4f8" stroke="#1e293b" stroke-width="1"/><rect x="1338" y="154" width="16" height="8" fill="#f0f4f8" stroke="#1e293b" stroke-width="1"/><rect x="1338" y="202" width="16" height="8" fill="#f0f4f8" stroke="#1e293b" stroke-width="1"/><text x="1442" y="188" text-anchor="middle" font-family="monospace" font-size="13" font-weight="600" fill="#0f172a">Order Service::OC -( IOrderService : provides</text><text x="1442" y="156" text-anchor="middle" font-family="monospace" font-size="10" fill="#0f172a">«component»</text><desc data-uml-id="Order Service::OD -( IOrderRepository : requires">Order Service::OD -( IOrderRepository : requires</desc><rect class="uml-node uml-component" data-uml-kind="component" x="1582" y="142" width="200" height="80" rx="4" ry="4" fill="#f0f4f8" stroke="#1e293b" stroke-width="1"/><rect x="1578" y="154" width="16" height="8" fill="#f0f4f8" stroke="#1e293b" stroke-width="1"/><rect x="1578" y="202" width="16" height="8" fill="#f0f4f8" stroke="#1e293b" stroke-width="1"/><text x="1682" y="188" text-anchor="middle" font-family="monospace" font-size="13" font-weight="600" fill="#0f172a">Order Service::OD -( IOrderRepository : requires</text><text x="1682" y="156" text-anchor="middle" font-family="monospace" font-size="10" fill="#0f172a">«component»</text><desc data-uml-id="Notification Service::NS">Notification Service::NS</desc><rect class="uml-node uml-component" data-uml-kind="component" x="1222" y="342" width="200" height="80" rx="4" ry="4" fill="#f0f4f8" stroke="#1e293b" stroke-width="1"/><rect x="1218" y="354" width="16" height="8" fill="#f0f4f8" stroke="#1e293b" stroke-width="1"/><rect x="1218" y="402" width="16" height="8" fill="#f0f4f8" stroke="#1e293b" stroke-width="1"/><text x="1322" y="388" text-anchor="middle" font-family="monospace" font-size="13" font-weight="600" fill="#0f172a">NotificationSender</text><text x="1322" y="356" text-anchor="middle" font-family="monospace" font-size="10" fill="#0f172a">«component»</text><desc data-uml-id="Notification Service::INotifier">Notification Service::INotifier</desc><circle class="uml-node uml-interface" data-uml-kind="interface" cx="602" cy="382" r="18" fill="#e2e8f0" stroke="#1e293b" stroke-width="1.5"/><text x="602" y="410" text-anchor="middle" font-family="monospace" font-size="13" font-weight="600" fill="#0f172a">INotifier</text><text x="602" y="424" text-anchor="middle" font-family="monospace" font-size="10" fill="#0f172a">«interface»</text><desc data-uml-id="Database&quot; &lt;&lt;database&gt;&gt;::PG">Database&quot; &lt;&lt;database&gt;&gt;::PG</desc><rect class="uml-node uml-component" data-uml-kind="component" x="982" y="342" width="200" height="80" rx="4" ry="4" fill="#f0f4f8" stroke="#1e293b" stroke-width="1"/><rect x="978" y="354" width="16" height="8" fill="#f0f4f8" stroke="#1e293b" stroke-width="1"/><rect x="978" y="402" width="16" height="8" fill="#f0f4f8" stroke="#1e293b" stroke-width="1"/><text x="1082" y="388" text-anchor="middle" font-family="monospace" font-size="13" font-weight="600" fill="#0f172a">PostgreSQL</text><text x="1082" y="356" text-anchor="middle" font-family="monospace" font-size="10" fill="#0f172a">«component»</text><desc data-uml-id="Message Bus&quot; &lt;&lt;queue&gt;&gt;::MQ">Message Bus&quot; &lt;&lt;queue&gt;&gt;::MQ</desc><rect class="uml-node uml-component" data-uml-kind="component" x="742" y="342" width="200" height="80" rx="4" ry="4" fill="#f0f4f8" stroke="#1e293b" stroke-width="1"/><rect x="738" y="354" width="16" height="8" fill="#f0f4f8" stroke="#1e293b" stroke-width="1"/><rect x="738" y="402" width="16" height="8" fill="#f0f4f8" stroke="#1e293b" stroke-width="1"/><text x="842" y="388" text-anchor="middle" font-family="monospace" font-size="13" font-weight="600" fill="#0f172a">RabbitMQ</text><text x="842" y="356" text-anchor="middle" font-family="monospace" font-size="10" fill="#0f172a">«component»</text><polyline class="uml-relation" data-uml-from="Order Service::OD" data-uml-to="Order Service::IOrderService" data-uml-arrow="--" points="342,182 342,78 944,78 944,182" fill="none" stroke="#1e293b" stroke-width="2" /><line class="uml-relation" data-uml-from="Order Service::OR" data-uml-to="Order Service::IOrderRepository" data-uml-arrow="--" x1="582" y1="182" x2="704" y2="182" stroke="#1e293b" stroke-width="2" /><polyline class="uml-relation" data-uml-from="Notification Service::NS" data-uml-to="Notification Service::INotifier" data-uml-arrow="--" points="1222,382 1222,278 620,278 620,382" fill="none" stroke="#1e293b" stroke-width="2" /><polyline class="uml-relation" data-uml-from="OD" data-uml-to="INotifier" data-uml-arrow="--&gt;" points="242,222 242,274 602,274 584,382" fill="none" stroke="#1e293b" stroke-width="2" marker-end="url(#arrow-open)" /><polyline class="uml-relation" data-uml-from="OR" data-uml-to="PG" data-uml-arrow="--&gt;" points="482,222 482,290 1082,290 1082,342" fill="none" stroke="#1e293b" stroke-width="2" marker-end="url(#arrow-open)" /><polyline class="uml-relation" data-uml-from="OD" data-uml-to="MQ" data-uml-arrow="--&gt;" points="242,222 242,282 842,282 842,342" fill="none" stroke="#1e293b" stroke-width="2" marker-end="url(#arrow-open)" /><text x="643" y="66" text-anchor="middle" font-family="monospace" font-size="11" fill="#1e293b">realizes</text><text x="643" y="170" text-anchor="middle" font-family="monospace" font-size="11" fill="#1e293b">realizes</text><text x="921" y="266" text-anchor="middle" font-family="monospace" font-size="11" fill="#1e293b">provides</text><text x="422" y="262" text-anchor="middle" font-family="monospace" font-size="11" fill="#1e293b">uses</text><text x="782" y="278" text-anchor="middle" font-family="monospace" font-size="11" fill="#1e293b">SQL</text><text x="542" y="270" text-anchor="middle" font-family="monospace" font-size="11" fill="#1e293b">publish events</text></svg>