<svg xmlns="http://www.w3.org/2000/svg" width="1347" height="478" viewBox="0 0 1347 478"><rect width="100%" height="100%" fill="#f0f4f8"/><defs><marker id="arrow-open" viewBox="0 0 10 10" refX="9" refY="5" markerWidth="10" markerHeight="10" markerUnits="userSpaceOnUse" orient="auto-start-reverse"><path d="M0,0 L10,5 L0,10" fill="none" stroke="#1e293b" stroke-width="1.5"/></marker><marker id="arrow-triangle" viewBox="0 0 12 12" refX="11" refY="6" markerWidth="12" markerHeight="12" markerUnits="userSpaceOnUse" orient="auto-start-reverse"><polygon points="0,0 12,6 0,12" fill="#ffffff" stroke="#1e293b" stroke-width="1.5" fill-rule="nonzero"/></marker><marker id="arrow-diamond-filled" viewBox="0 0 14 10" refX="13" refY="5" markerWidth="14" markerHeight="10" markerUnits="userSpaceOnUse" orient="auto-start-reverse"><path d="M0,5 L7,0 L14,5 L7,10 z" fill="#1e293b" stroke="#1e293b" stroke-width="1"/></marker><marker id="arrow-diamond-open" viewBox="0 0 14 10" refX="13" refY="5" markerWidth="14" markerHeight="10" markerUnits="userSpaceOnUse" orient="auto-start-reverse"><path d="M0,5 L7,0 L14,5 L7,10 z" fill="#ffffff" stroke="#1e293b" stroke-width="1"/></marker><marker id="arrow-double-open" viewBox="0 0 16 12" refX="15" refY="6" markerWidth="16" markerHeight="12" markerUnits="userSpaceOnUse" orient="auto-start-reverse"><path d="M0,1 L8,6 L0,11 M7,1 L15,6 L7,11" fill="none" stroke="#1e293b" stroke-width="1.5" stroke-linejoin="round"/></marker><marker id="arrow-circle-open" viewBox="0 0 12 12" refX="11" refY="6" markerWidth="12" markerHeight="12" markerUnits="userSpaceOnUse" orient="auto-start-reverse"><circle cx="6" cy="6" r="4" fill="#ffffff" stroke="#1e293b" stroke-width="1.5"/></marker><marker id="arrow-circle-filled" viewBox="0 0 12 12" refX="11" refY="6" markerWidth="12" markerHeight="12" markerUnits="userSpaceOnUse" orient="auto-start-reverse"><circle cx="6" cy="6" r="4" fill="#1e293b" stroke="#1e293b" stroke-width="1.5"/></marker><marker id="arrow-triangle-filled" viewBox="0 0 12 12" refX="11" refY="6" markerWidth="12" markerHeight="12" markerUnits="userSpaceOnUse" orient="auto-start-reverse"><polygon points="0,0 12,6 0,12" fill="#1e293b" stroke="#1e293b" stroke-width="1.5"/></marker><marker id="arrow-box-filled" viewBox="0 0 12 12" refX="11" refY="6" markerWidth="12" markerHeight="12" markerUnits="userSpaceOnUse" orient="auto-start-reverse"><rect x="2" y="2" width="8" height="8" fill="#1e293b" stroke="#1e293b" stroke-width="1.5"/></marker><marker id="arrow-plus" viewBox="0 0 12 12" refX="11" refY="6" markerWidth="12" markerHeight="12" markerUnits="userSpaceOnUse" orient="auto-start-reverse"><path d="M6,1 L6,11 M1,6 L11,6" fill="none" stroke="#1e293b" stroke-width="1.8" stroke-linecap="round"/></marker><marker id="arrow-slash" viewBox="0 0 12 12" refX="10" refY="6" markerWidth="12" markerHeight="12" markerUnits="userSpaceOnUse" orient="auto-start-reverse"><path d="M3,2 L9,10" fill="none" stroke="#1e293b" stroke-width="1.8" stroke-linecap="round"/></marker><marker id="arrow-cross" viewBox="0 0 12 12" refX="11" refY="6" markerWidth="12" markerHeight="12" markerUnits="userSpaceOnUse" orient="auto-start-reverse"><path d="M2,2 L10,10 M10,2 L2,10" fill="none" stroke="#1e293b" stroke-width="1.8" stroke-linecap="round"/></marker><marker id="arrow-bracket-open" viewBox="0 0 12 14" refX="11" refY="7" markerWidth="12" markerHeight="14" markerUnits="userSpaceOnUse" orient="auto-start-reverse"><path d="M10,1 L4,1 L4,13 L10,13" fill="none" stroke="#1e293b" stroke-width="1.8" stroke-linecap="round" stroke-linejoin="round"/></marker></defs><marker id="arrow-ie-one" viewBox="0 0 24 16" refX="22" refY="8" markerWidth="24" markerHeight="16" markerUnits="userSpaceOnUse" orient="auto-start-reverse"><path d="M16,2 L16,14" fill="none" stroke="#1e293b" stroke-width="1.8" stroke-linecap="round"/></marker><marker id="arrow-ie-zero-one" viewBox="0 0 30 16" refX="28" refY="8" markerWidth="30" markerHeight="16" markerUnits="userSpaceOnUse" orient="auto-start-reverse"><circle cx="10" cy="8" r="4" fill="#ffffff" stroke="#1e293b" stroke-width="1.5"/><path d="M20,2 L20,14" fill="none" stroke="#1e293b" stroke-width="1.8" stroke-linecap="round"/></marker><marker id="arrow-ie-zero-many" viewBox="0 0 34 18" refX="32" refY="9" markerWidth="34" markerHeight="18" markerUnits="userSpaceOnUse" orient="auto-start-reverse"><circle cx="8" cy="9" r="4" fill="#ffffff" stroke="#1e293b" stroke-width="1.5"/><path d="M18,9 L31,2 M18,9 L31,9 M18,9 L31,16" fill="none" stroke="#1e293b" stroke-width="1.7" stroke-linecap="round"/></marker><marker id="arrow-ie-one-many" viewBox="0 0 34 18" refX="32" refY="9" markerWidth="34" markerHeight="18" markerUnits="userSpaceOnUse" orient="auto-start-reverse"><path d="M8,2 L8,16 M18,9 L31,2 M18,9 L31,9 M18,9 L31,16" fill="none" stroke="#1e293b" stroke-width="1.7" stroke-linecap="round"/></marker><text x="8" y="8" font-family="monospace" font-size="18" font-weight="600">Ports, lollipop interfaces, and required connectors</text><rect class="uml-group-frame" data-uml-group="Order Service" x="86" y="46" width="920" height="266" rx="8" ry="8" fill="#f8faff" stroke="#1e293b" stroke-width="1.5"/><rect x="86" y="46" width="920" height="40" rx="8" ry="8" fill="#1e293b" stroke="none"/><rect x="86" y="78" width="920" height="8" fill="#1e293b" stroke="none"/><text x="94" y="78" font-family="monospace" font-size="11" font-weight="600" fill="#ffffff">Order Service</text><line x1="86" y1="86" x2="1006" y2="86" stroke="#1e293b" stroke-width="1"/><rect class="uml-group-frame" data-uml-group="Notification Service" x="1046" y="46" width="293" height="266" rx="8" ry="8" fill="#f8faff" stroke="#1e293b" stroke-width="1.5"/><rect x="1046" y="46" width="293" height="40" rx="8" ry="8" fill="#1e293b" stroke="none"/><rect x="1046" y="78" width="293" height="8" fill="#1e293b" stroke="none"/><text x="1054" y="78" font-family="monospace" font-size="11" font-weight="600" fill="#ffffff">Notification Service</text><line x1="1046" y1="86" x2="1339" y2="86" stroke="#1e293b" stroke-width="1"/><rect class="uml-group-frame" data-uml-group="Database" x="922" y="352" width="189" height="114" rx="8" ry="8" fill="#f8faff" stroke="#1e293b" stroke-width="1.5"/><rect x="922" y="352" width="189" height="40" rx="8" ry="8" fill="#1e293b" stroke="none"/><rect x="922" y="384" width="189" height="8" fill="#1e293b" stroke="none"/><text x="930" y="384" font-family="monospace" font-size="11" font-weight="600" fill="#ffffff">Database</text><line x1="922" y1="392" x2="1111" y2="392" stroke="#1e293b" stroke-width="1"/><rect class="uml-group-frame" data-uml-group="Message Bus" x="295" y="352" width="189" height="114" rx="8" ry="8" fill="#f8faff" stroke="#1e293b" stroke-width="1.5"/><rect x="295" y="352" width="189" height="40" rx="8" ry="8" fill="#1e293b" stroke="none"/><rect x="295" y="384" width="189" height="8" fill="#1e293b" stroke="none"/><text x="303" y="384" font-family="monospace" font-size="11" font-weight="600" fill="#ffffff">Message Bus</text><line x1="295" y1="392" x2="484" y2="392" stroke="#1e293b" stroke-width="1"/><desc data-uml-id="Order Service::OC">Order Service::OC</desc><rect class="uml-node uml-component" data-uml-kind="component" x="202" y="98" width="165" height="50" rx="4" ry="4" fill="#f0f4f8" stroke="#1e293b" stroke-width="1.5"/><rect x="198" y="110" width="16" height="8" fill="#f0f4f8" stroke="#1e293b" stroke-width="1"/><rect x="198" y="128" width="16" height="8" fill="#f0f4f8" stroke="#1e293b" stroke-width="1"/><text x="284" y="129" text-anchor="middle" font-family="monospace" font-size="13" font-weight="600" fill="#0f172a">OrderController</text><desc data-uml-id="Order Service::OD">Order Service::OD</desc><rect class="uml-node uml-component" data-uml-kind="component" x="411" y="98" width="165" height="50" rx="4" ry="4" fill="#f0f4f8" stroke="#1e293b" stroke-width="1.5"/><rect x="407" y="110" width="16" height="8" fill="#f0f4f8" stroke="#1e293b" stroke-width="1"/><rect x="407" y="128" width="16" height="8" fill="#f0f4f8" stroke="#1e293b" stroke-width="1"/><text x="493" y="129" text-anchor="middle" font-family="monospace" font-size="13" font-weight="600" fill="#0f172a">OrderDomain</text><desc data-uml-id="Order Service::OR">Order Service::OR</desc><rect class="uml-node uml-component" data-uml-kind="component" x="829" y="98" width="165" height="50" rx="4" ry="4" fill="#f0f4f8" stroke="#1e293b" stroke-width="1.5"/><rect x="825" y="110" width="16" height="8" fill="#f0f4f8" stroke="#1e293b" stroke-width="1"/><rect x="825" y="128" width="16" height="8" fill="#f0f4f8" stroke="#1e293b" stroke-width="1"/><text x="911" y="129" text-anchor="middle" font-family="monospace" font-size="13" font-weight="600" fill="#0f172a">OrderRepository</text><desc data-uml-id="Order Service::IOrderService">Order Service::IOrderService</desc><circle class="uml-node uml-interface" data-uml-kind="interface" cx="180" cy="275" r="18" fill="#e2e8f0" stroke="#1e293b" stroke-width="1.5"/><text x="180" y="303" text-anchor="middle" font-family="monospace" font-size="13" font-weight="600" fill="#0f172a">IOrderService</text><desc data-uml-id="Order Service::IOrderRepository">Order Service::IOrderRepository</desc><circle class="uml-node uml-interface" data-uml-kind="interface" cx="807" cy="275" r="18" fill="#e2e8f0" stroke="#1e293b" stroke-width="1.5"/><text x="807" y="303" text-anchor="middle" font-family="monospace" font-size="13" font-weight="600" fill="#0f172a">IOrderRepository</text><desc data-uml-id="Notification Service::NS">Notification Service::NS</desc><rect class="uml-node uml-component" data-uml-kind="component" x="1163" y="98" width="165" height="50" rx="4" ry="4" fill="#f0f4f8" stroke="#1e293b" stroke-width="1.5"/><rect x="1159" y="110" width="16" height="8" fill="#f0f4f8" stroke="#1e293b" stroke-width="1"/><rect x="1159" y="128" width="16" height="8" fill="#f0f4f8" stroke="#1e293b" stroke-width="1"/><text x="1245" y="129" text-anchor="middle" font-family="monospace" font-size="13" font-weight="600" fill="#0f172a">NotificationSender</text><desc data-uml-id="Notification Service::INotifier">Notification Service::INotifier</desc><circle class="uml-node uml-interface" data-uml-kind="interface" cx="1140" cy="275" r="18" fill="#e2e8f0" stroke="#1e293b" stroke-width="1.5"/><text x="1140" y="303" text-anchor="middle" font-family="monospace" font-size="13" font-weight="600" fill="#0f172a">INotifier</text><desc data-uml-id="Database::PG">Database::PG</desc><rect class="uml-node uml-component" data-uml-kind="component" x="934" y="404" width="165" height="50" rx="4" ry="4" fill="#f0f4f8" stroke="#1e293b" stroke-width="1.5"/><rect x="930" y="416" width="16" height="8" fill="#f0f4f8" stroke="#1e293b" stroke-width="1"/><rect x="930" y="434" width="16" height="8" fill="#f0f4f8" stroke="#1e293b" stroke-width="1"/><text x="1016" y="435" text-anchor="middle" font-family="monospace" font-size="13" font-weight="600" fill="#0f172a">PostgreSQL</text><desc data-uml-id="Message Bus::MQ">Message Bus::MQ</desc><rect class="uml-node uml-component" data-uml-kind="component" x="307" y="404" width="165" height="50" rx="4" ry="4" fill="#f0f4f8" stroke="#1e293b" stroke-width="1.5"/><rect x="303" y="416" width="16" height="8" fill="#f0f4f8" stroke="#1e293b" stroke-width="1"/><rect x="303" y="434" width="16" height="8" fill="#f0f4f8" stroke="#1e293b" stroke-width="1"/><text x="389" y="435" text-anchor="middle" font-family="monospace" font-size="13" font-weight="600" fill="#0f172a">RabbitMQ</text><polyline class="uml-relation" data-uml-from="Order Service::OC" data-uml-to="Order Service::IOrderService" data-uml-arrow="-(" points="285,148 285,157 180,157 180,257" fill="none" stroke="#1e293b" stroke-width="2" marker-end="url(#arrow-circle-open)" /><polyline class="uml-relation" data-uml-from="Order Service::OD" data-uml-to="Order Service::IOrderService" data-uml-arrow="--" points="494,148 494,169 180,169 180,257" fill="none" stroke="#1e293b" stroke-width="2" /><polyline class="uml-relation" data-uml-from="Order Service::OD" data-uml-to="Order Service::IOrderRepository" data-uml-arrow="-(" points="494,148 494,181 807,181 807,257" fill="none" stroke="#1e293b" stroke-width="2" marker-end="url(#arrow-circle-open)" /><polyline class="uml-relation" data-uml-from="Order Service::OR" data-uml-to="Order Service::IOrderRepository" data-uml-arrow="--" points="912,148 912,216 807,216 807,257" fill="none" stroke="#1e293b" stroke-width="2" /><polyline class="uml-relation" data-uml-from="Notification Service::NS" data-uml-to="Notification Service::INotifier" data-uml-arrow="--" points="1245,148 1245,240 1141,240 1141,257" fill="none" stroke="#1e293b" stroke-width="2" /><polyline class="uml-relation" data-uml-from="OD" data-uml-to="INotifier" data-uml-arrow="--&gt;" points="494,148 494,193 1141,193 1141,257" fill="none" stroke="#1e293b" stroke-width="2" marker-end="url(#arrow-open)" /><polyline class="uml-relation" data-uml-from="OR" data-uml-to="PG" data-uml-arrow="--&gt;" points="912,148 912,228 1016,228 1016,404" fill="none" stroke="#1e293b" stroke-width="2" marker-end="url(#arrow-open)" /><polyline class="uml-relation" data-uml-from="OD" data-uml-to="MQ" data-uml-arrow="--&gt;" points="494,148 494,204 70,204 70,400 389,400 389,404" fill="none" stroke="#1e293b" stroke-width="2" marker-end="url(#arrow-open)" /><text class="uml-edge-label" data-uml-label-role="edge" x="138" y="222" text-anchor="middle" font-family="monospace" font-size="11" fill="#1e293b">provides</text><text class="uml-edge-label" data-uml-label-role="edge" x="223" y="222" text-anchor="middle" font-family="monospace" font-size="11" fill="#1e293b">realizes</text><text class="uml-edge-label" data-uml-label-role="edge" x="765" y="222" text-anchor="middle" font-family="monospace" font-size="11" fill="#1e293b">requires</text><rect class="uml-edge-label-bg" data-uml-label-role="edge-background" x="820" y="209" width="60" height="18" fill="white" opacity="0.85"/><text class="uml-edge-label" data-uml-label-role="edge" x="850" y="222" text-anchor="middle" font-family="monospace" font-size="11" fill="#1e293b">realizes</text><text class="uml-edge-label" data-uml-label-role="edge" x="1193" y="228" text-anchor="middle" font-family="monospace" font-size="11" fill="#1e293b">provides</text><rect class="uml-edge-label-bg" data-uml-label-role="edge-background" x="801" y="168" width="32" height="18" fill="white" opacity="0.85"/><text class="uml-edge-label" data-uml-label-role="edge" x="817" y="181" text-anchor="middle" font-family="monospace" font-size="11" fill="#1e293b">uses</text><rect class="uml-edge-label-bg" data-uml-label-role="edge-background" x="1016" y="303" width="24" height="18" fill="white" opacity="0.85"/><text class="uml-edge-label" data-uml-label-role="edge" x="1028" y="316" text-anchor="middle" font-family="monospace" font-size="11" fill="#1e293b">SQL</text><text class="uml-edge-label" data-uml-label-role="edge" x="282" y="192" text-anchor="middle" font-family="monospace" font-size="11" fill="#1e293b">publish events</text><text x="94" y="78" font-family="monospace" font-size="11" font-weight="600" fill="#ffffff">Order Service</text><text x="1054" y="78" font-family="monospace" font-size="11" font-weight="600" fill="#ffffff">Notification Service</text><text x="930" y="384" font-family="monospace" font-size="11" font-weight="600" fill="#ffffff">Database</text><text x="303" y="384" font-family="monospace" font-size="11" font-weight="600" fill="#ffffff">Message Bus</text></svg>