<svg xmlns="http://www.w3.org/2000/svg" width="1652" height="630" viewBox="0 0 1652 630"><rect width="100%" height="100%" fill="#f0f4f8"/><defs><marker id="arrow-open" viewBox="0 0 10 10" refX="9" refY="5" markerWidth="10" markerHeight="10" markerUnits="userSpaceOnUse" orient="auto-start-reverse"><path d="M0,0 L10,5 L0,10" fill="none" stroke="#1e293b" stroke-width="1.5"/></marker><marker id="arrow-triangle" viewBox="0 0 12 12" refX="11" refY="6" markerWidth="12" markerHeight="12" markerUnits="userSpaceOnUse" orient="auto-start-reverse"><polygon points="0,0 12,6 0,12" fill="#ffffff" stroke="#1e293b" stroke-width="1.5" fill-rule="nonzero"/></marker><marker id="arrow-diamond-filled" viewBox="0 0 14 10" refX="13" refY="5" markerWidth="14" markerHeight="10" markerUnits="userSpaceOnUse" orient="auto-start-reverse"><path d="M0,5 L7,0 L14,5 L7,10 z" fill="#1e293b" stroke="#1e293b" stroke-width="1"/></marker><marker id="arrow-diamond-open" viewBox="0 0 14 10" refX="13" refY="5" markerWidth="14" markerHeight="10" markerUnits="userSpaceOnUse" orient="auto-start-reverse"><path d="M0,5 L7,0 L14,5 L7,10 z" fill="#ffffff" stroke="#1e293b" stroke-width="1"/></marker><marker id="arrow-double-open" viewBox="0 0 16 12" refX="15" refY="6" markerWidth="16" markerHeight="12" markerUnits="userSpaceOnUse" orient="auto-start-reverse"><path d="M0,1 L8,6 L0,11 M7,1 L15,6 L7,11" fill="none" stroke="#1e293b" stroke-width="1.5" stroke-linejoin="round"/></marker><marker id="arrow-circle-open" viewBox="0 0 12 12" refX="11" refY="6" markerWidth="12" markerHeight="12" markerUnits="userSpaceOnUse" orient="auto-start-reverse"><circle cx="6" cy="6" r="4" fill="#ffffff" stroke="#1e293b" stroke-width="1.5"/></marker><marker id="arrow-circle-filled" viewBox="0 0 12 12" refX="11" refY="6" markerWidth="12" markerHeight="12" markerUnits="userSpaceOnUse" orient="auto-start-reverse"><circle cx="6" cy="6" r="4" fill="#1e293b" stroke="#1e293b" stroke-width="1.5"/></marker><marker id="arrow-triangle-filled" viewBox="0 0 12 12" refX="11" refY="6" markerWidth="12" markerHeight="12" markerUnits="userSpaceOnUse" orient="auto-start-reverse"><polygon points="0,0 12,6 0,12" fill="#1e293b" stroke="#1e293b" stroke-width="1.5"/></marker><marker id="arrow-box-filled" viewBox="0 0 12 12" refX="11" refY="6" markerWidth="12" markerHeight="12" markerUnits="userSpaceOnUse" orient="auto-start-reverse"><rect x="2" y="2" width="8" height="8" fill="#1e293b" stroke="#1e293b" stroke-width="1.5"/></marker><marker id="arrow-plus" viewBox="0 0 12 12" refX="11" refY="6" markerWidth="12" markerHeight="12" markerUnits="userSpaceOnUse" orient="auto-start-reverse"><path d="M6,1 L6,11 M1,6 L11,6" fill="none" stroke="#1e293b" stroke-width="1.8" stroke-linecap="round"/></marker><marker id="arrow-slash" viewBox="0 0 12 12" refX="10" refY="6" markerWidth="12" markerHeight="12" markerUnits="userSpaceOnUse" orient="auto-start-reverse"><path d="M3,2 L9,10" fill="none" stroke="#1e293b" stroke-width="1.8" stroke-linecap="round"/></marker><marker id="arrow-cross" viewBox="0 0 12 12" refX="11" refY="6" markerWidth="12" markerHeight="12" markerUnits="userSpaceOnUse" orient="auto-start-reverse"><path d="M2,2 L10,10 M10,2 L2,10" fill="none" stroke="#1e293b" stroke-width="1.8" stroke-linecap="round"/></marker><marker id="arrow-bracket-open" viewBox="0 0 12 14" refX="11" refY="7" markerWidth="12" markerHeight="14" markerUnits="userSpaceOnUse" orient="auto-start-reverse"><path d="M10,1 L4,1 L4,13 L10,13" fill="none" stroke="#1e293b" stroke-width="1.8" stroke-linecap="round" stroke-linejoin="round"/></marker></defs><marker id="arrow-ie-one" viewBox="0 0 24 16" refX="22" refY="8" markerWidth="24" markerHeight="16" markerUnits="userSpaceOnUse" orient="auto-start-reverse"><path d="M16,2 L16,14" fill="none" stroke="#1e293b" stroke-width="1.8" stroke-linecap="round"/></marker><marker id="arrow-ie-zero-one" viewBox="0 0 30 16" refX="28" refY="8" markerWidth="30" markerHeight="16" markerUnits="userSpaceOnUse" orient="auto-start-reverse"><circle cx="10" cy="8" r="4" fill="#ffffff" stroke="#1e293b" stroke-width="1.5"/><path d="M20,2 L20,14" fill="none" stroke="#1e293b" stroke-width="1.8" stroke-linecap="round"/></marker><marker id="arrow-ie-zero-many" viewBox="0 0 34 18" refX="32" refY="9" markerWidth="34" markerHeight="18" markerUnits="userSpaceOnUse" orient="auto-start-reverse"><circle cx="8" cy="9" r="4" fill="#ffffff" stroke="#1e293b" stroke-width="1.5"/><path d="M18,9 L31,2 M18,9 L31,9 M18,9 L31,16" fill="none" stroke="#1e293b" stroke-width="1.7" stroke-linecap="round"/></marker><marker id="arrow-ie-one-many" viewBox="0 0 34 18" refX="32" refY="9" markerWidth="34" markerHeight="18" markerUnits="userSpaceOnUse" orient="auto-start-reverse"><path d="M8,2 L8,16 M18,9 L31,2 M18,9 L31,9 M18,9 L31,16" fill="none" stroke="#1e293b" stroke-width="1.7" stroke-linecap="round"/></marker><text x="40" y="40" font-family="monospace" font-size="18" font-weight="600">Ports, lollipop interfaces, and required connectors</text><rect class="uml-group-frame" data-uml-group="Order Service" x="118" y="78" width="1098" height="334" rx="8" ry="8" fill="#f8faff" stroke="#1e293b" stroke-width="1.5"/><rect x="118" y="78" width="1098" height="40" rx="8" ry="8" fill="#1e293b" stroke="none"/><rect x="118" y="110" width="1098" height="8" fill="#1e293b" stroke="none"/><text x="126" y="110" font-family="monospace" font-size="11" font-weight="600" fill="#ffffff">Order Service</text><line x1="118" y1="118" x2="1216" y2="118" stroke="#1e293b" stroke-width="1"/><rect class="uml-group-frame" data-uml-group="Notification Service" x="1256" y="78" width="339" height="334" rx="8" ry="8" fill="#f8faff" stroke="#1e293b" stroke-width="1.5"/><rect x="1256" y="78" width="339" height="40" rx="8" ry="8" fill="#1e293b" stroke="none"/><rect x="1256" y="110" width="339" height="8" fill="#1e293b" stroke="none"/><text x="1264" y="110" font-family="monospace" font-size="11" font-weight="600" fill="#ffffff">Notification Service</text><line x1="1256" y1="118" x2="1595" y2="118" stroke="#1e293b" stroke-width="1"/><rect class="uml-group-frame" data-uml-group="Database" x="1130" y="452" width="213" height="138" rx="8" ry="8" fill="#f8faff" stroke="#1e293b" stroke-width="1.5"/><rect x="1130" y="452" width="213" height="40" rx="8" ry="8" fill="#1e293b" stroke="none"/><rect x="1130" y="484" width="213" height="8" fill="#1e293b" stroke="none"/><text x="1138" y="484" font-family="monospace" font-size="11" font-weight="600" fill="#ffffff">Database</text><line x1="1130" y1="492" x2="1343" y2="492" stroke="#1e293b" stroke-width="1"/><rect class="uml-group-frame" data-uml-group="Message Bus" x="371" y="452" width="213" height="138" rx="8" ry="8" fill="#f8faff" stroke="#1e293b" stroke-width="1.5"/><rect x="371" y="452" width="213" height="40" rx="8" ry="8" fill="#1e293b" stroke="none"/><rect x="371" y="484" width="213" height="8" fill="#1e293b" stroke="none"/><text x="379" y="484" font-family="monospace" font-size="11" font-weight="600" fill="#ffffff">Message Bus</text><line x1="371" y1="492" x2="584" y2="492" stroke="#1e293b" stroke-width="1"/><desc data-uml-id="Order Service::OC">Order Service::OC</desc><rect class="uml-node uml-component" data-uml-kind="component" x="268" y="142" width="165" height="50" rx="4" ry="4" fill="#f0f4f8" stroke="#1e293b" stroke-width="1.5"/><rect x="264" y="154" width="16" height="8" fill="#f0f4f8" stroke="#1e293b" stroke-width="1"/><rect x="264" y="172" width="16" height="8" fill="#f0f4f8" stroke="#1e293b" stroke-width="1"/><text x="350" y="173" text-anchor="middle" font-family="monospace" font-size="13" font-weight="600" fill="#0f172a">OrderController</text><desc data-uml-id="Order Service::OD">Order Service::OD</desc><rect class="uml-node uml-component" data-uml-kind="component" x="521" y="142" width="165" height="50" rx="4" ry="4" fill="#f0f4f8" stroke="#1e293b" stroke-width="1.5"/><rect x="517" y="154" width="16" height="8" fill="#f0f4f8" stroke="#1e293b" stroke-width="1"/><rect x="517" y="172" width="16" height="8" fill="#f0f4f8" stroke="#1e293b" stroke-width="1"/><text x="603" y="173" text-anchor="middle" font-family="monospace" font-size="13" font-weight="600" fill="#0f172a">OrderDomain</text><desc data-uml-id="Order Service::OR">Order Service::OR</desc><rect class="uml-node uml-component" data-uml-kind="component" x="1027" y="142" width="165" height="50" rx="4" ry="4" fill="#f0f4f8" stroke="#1e293b" stroke-width="1.5"/><rect x="1023" y="154" width="16" height="8" fill="#f0f4f8" stroke="#1e293b" stroke-width="1"/><rect x="1023" y="172" width="16" height="8" fill="#f0f4f8" stroke="#1e293b" stroke-width="1"/><text x="1109" y="173" text-anchor="middle" font-family="monospace" font-size="13" font-weight="600" fill="#0f172a">OrderRepository</text><desc data-uml-id="Order Service::IOrderService">Order Service::IOrderService</desc><circle class="uml-node uml-interface" data-uml-kind="interface" cx="224" cy="363" r="18" fill="#e2e8f0" stroke="#1e293b" stroke-width="1.5"/><text x="224" y="391" text-anchor="middle" font-family="monospace" font-size="13" font-weight="600" fill="#0f172a">IOrderService</text><desc data-uml-id="Order Service::IOrderRepository">Order Service::IOrderRepository</desc><circle class="uml-node uml-interface" data-uml-kind="interface" cx="983" cy="363" r="18" fill="#e2e8f0" stroke="#1e293b" stroke-width="1.5"/><text x="983" y="391" text-anchor="middle" font-family="monospace" font-size="13" font-weight="600" fill="#0f172a">IOrderRepository</text><desc data-uml-id="Notification Service::NS">Notification Service::NS</desc><rect class="uml-node uml-component" data-uml-kind="component" x="1407" y="142" width="165" height="50" rx="4" ry="4" fill="#f0f4f8" stroke="#1e293b" stroke-width="1.5"/><rect x="1403" y="154" width="16" height="8" fill="#f0f4f8" stroke="#1e293b" stroke-width="1"/><rect x="1403" y="172" width="16" height="8" fill="#f0f4f8" stroke="#1e293b" stroke-width="1"/><text x="1489" y="173" text-anchor="middle" font-family="monospace" font-size="13" font-weight="600" fill="#0f172a">NotificationSender</text><desc data-uml-id="Notification Service::INotifier">Notification Service::INotifier</desc><circle class="uml-node uml-interface" data-uml-kind="interface" cx="1362" cy="363" r="18" fill="#e2e8f0" stroke="#1e293b" stroke-width="1.5"/><text x="1362" y="391" text-anchor="middle" font-family="monospace" font-size="13" font-weight="600" fill="#0f172a">INotifier</text><desc data-uml-id="Database::PG">Database::PG</desc><rect class="uml-node uml-component" data-uml-kind="component" x="1154" y="516" width="165" height="50" rx="4" ry="4" fill="#f0f4f8" stroke="#1e293b" stroke-width="1.5"/><rect x="1150" y="528" width="16" height="8" fill="#f0f4f8" stroke="#1e293b" stroke-width="1"/><rect x="1150" y="546" width="16" height="8" fill="#f0f4f8" stroke="#1e293b" stroke-width="1"/><text x="1236" y="547" text-anchor="middle" font-family="monospace" font-size="13" font-weight="600" fill="#0f172a">PostgreSQL</text><desc data-uml-id="Message Bus::MQ">Message Bus::MQ</desc><rect class="uml-node uml-component" data-uml-kind="component" x="395" y="516" width="165" height="50" rx="4" ry="4" fill="#f0f4f8" stroke="#1e293b" stroke-width="1.5"/><rect x="391" y="528" width="16" height="8" fill="#f0f4f8" stroke="#1e293b" stroke-width="1"/><rect x="391" y="546" width="16" height="8" fill="#f0f4f8" stroke="#1e293b" stroke-width="1"/><text x="477" y="547" text-anchor="middle" font-family="monospace" font-size="13" font-weight="600" fill="#0f172a">RabbitMQ</text><polyline class="uml-relation" data-uml-from="Order Service::OC" data-uml-to="Order Service::IOrderService" data-uml-arrow="-(" points="351,192 351,204 224,204 224,345" fill="none" stroke="#1e293b" stroke-width="2" marker-end="url(#arrow-circle-open)" /><polyline class="uml-relation" data-uml-from="Order Service::OD" data-uml-to="Order Service::IOrderService" data-uml-arrow="--" points="604,192 604,221 224,221 224,345" fill="none" stroke="#1e293b" stroke-width="2" /><polyline class="uml-relation" data-uml-from="Order Service::OD" data-uml-to="Order Service::IOrderRepository" data-uml-arrow="-(" points="604,192 604,239 983,239 983,345" fill="none" stroke="#1e293b" stroke-width="2" marker-end="url(#arrow-circle-open)" /><polyline class="uml-relation" data-uml-from="Order Service::OR" data-uml-to="Order Service::IOrderRepository" data-uml-arrow="--" points="1110,192 1110,290 983,290 983,345" fill="none" stroke="#1e293b" stroke-width="2" /><polyline class="uml-relation" data-uml-from="Notification Service::NS" data-uml-to="Notification Service::INotifier" data-uml-arrow="--" points="1489,192 1489,325 1363,325 1363,345" fill="none" stroke="#1e293b" stroke-width="2" /><polyline class="uml-relation" data-uml-from="OD" data-uml-to="INotifier" data-uml-arrow="--&gt;" points="604,192 604,256 1363,256 1363,345" fill="none" stroke="#1e293b" stroke-width="2" marker-end="url(#arrow-open)" /><polyline class="uml-relation" data-uml-from="OR" data-uml-to="PG" data-uml-arrow="--&gt;" points="1110,192 1110,308 1236,308 1236,516" fill="none" stroke="#1e293b" stroke-width="2" marker-end="url(#arrow-open)" /><polyline class="uml-relation" data-uml-from="OD" data-uml-to="MQ" data-uml-arrow="--&gt;" points="604,192 604,273 102,273 102,504 477,504 477,516" fill="none" stroke="#1e293b" stroke-width="2" marker-end="url(#arrow-open)" /><text class="uml-edge-label" data-uml-label-role="edge" x="182" y="310" text-anchor="middle" font-family="monospace" font-size="11" fill="#1e293b">provides</text><text class="uml-edge-label" data-uml-label-role="edge" x="267" y="310" text-anchor="middle" font-family="monospace" font-size="11" fill="#1e293b">realizes</text><text class="uml-edge-label" data-uml-label-role="edge" x="941" y="310" text-anchor="middle" font-family="monospace" font-size="11" fill="#1e293b">requires</text><text class="uml-edge-label" data-uml-label-role="edge" x="1026" y="310" text-anchor="middle" font-family="monospace" font-size="11" fill="#1e293b">realizes</text><rect class="uml-edge-label-bg" data-uml-label-role="edge-background" x="1471" y="245" width="60" height="18" fill="white" opacity="0.85"/><text class="uml-edge-label" data-uml-label-role="edge" x="1501" y="258" text-anchor="middle" font-family="monospace" font-size="11" fill="#1e293b">provides</text><rect class="uml-edge-label-bg" data-uml-label-role="edge-background" x="967" y="231" width="32" height="18" fill="white" opacity="0.85"/><text class="uml-edge-label" data-uml-label-role="edge" x="983" y="244" text-anchor="middle" font-family="monospace" font-size="11" fill="#1e293b">uses</text><rect class="uml-edge-label-bg" data-uml-label-role="edge-background" x="1236" y="399" width="24" height="18" fill="white" opacity="0.85"/><text class="uml-edge-label" data-uml-label-role="edge" x="1248" y="412" text-anchor="middle" font-family="monospace" font-size="11" fill="#1e293b">SQL</text><text class="uml-edge-label" data-uml-label-role="edge" x="353" y="261" text-anchor="middle" font-family="monospace" font-size="11" fill="#1e293b">publish events</text><text x="126" y="110" font-family="monospace" font-size="11" font-weight="600" fill="#ffffff">Order Service</text><text x="1264" y="110" font-family="monospace" font-size="11" font-weight="600" fill="#ffffff">Notification Service</text><text x="1138" y="484" font-family="monospace" font-size="11" font-weight="600" fill="#ffffff">Database</text><text x="379" y="484" font-family="monospace" font-size="11" font-weight="600" fill="#ffffff">Message Bus</text></svg>