<svg xmlns="http://www.w3.org/2000/svg" width="1862" height="782" viewBox="0 0 1862 782"><rect width="100%" height="100%" fill="#f0f4f8"/><defs><marker id="arrow-open" viewBox="0 0 10 10" refX="9" refY="5" markerWidth="10" markerHeight="10" markerUnits="userSpaceOnUse" orient="auto-start-reverse"><path d="M0,0 L10,5 L0,10" fill="none" stroke="#1e293b" stroke-width="1.5"/></marker><marker id="arrow-triangle" viewBox="0 0 12 12" refX="11" refY="6" markerWidth="12" markerHeight="12" markerUnits="userSpaceOnUse" orient="auto-start-reverse"><polygon points="0,0 12,6 0,12" fill="#ffffff" stroke="#1e293b" stroke-width="1.5" fill-rule="nonzero"/></marker><marker id="arrow-diamond-filled" viewBox="0 0 14 10" refX="13" refY="5" markerWidth="14" markerHeight="10" markerUnits="userSpaceOnUse" orient="auto-start-reverse"><path d="M0,5 L7,0 L14,5 L7,10 z" fill="#1e293b" stroke="#1e293b" stroke-width="1"/></marker><marker id="arrow-diamond-open" viewBox="0 0 14 10" refX="13" refY="5" markerWidth="14" markerHeight="10" markerUnits="userSpaceOnUse" orient="auto-start-reverse"><path d="M0,5 L7,0 L14,5 L7,10 z" fill="#ffffff" stroke="#1e293b" stroke-width="1"/></marker><marker id="arrow-double-open" viewBox="0 0 16 12" refX="15" refY="6" markerWidth="16" markerHeight="12" markerUnits="userSpaceOnUse" orient="auto-start-reverse"><path d="M0,1 L8,6 L0,11 M7,1 L15,6 L7,11" fill="none" stroke="#1e293b" stroke-width="1.5" stroke-linejoin="round"/></marker><marker id="arrow-circle-open" viewBox="0 0 12 12" refX="11" refY="6" markerWidth="12" markerHeight="12" markerUnits="userSpaceOnUse" orient="auto-start-reverse"><circle cx="6" cy="6" r="4" fill="#ffffff" stroke="#1e293b" stroke-width="1.5"/></marker><marker id="arrow-circle-filled" viewBox="0 0 12 12" refX="11" refY="6" markerWidth="12" markerHeight="12" markerUnits="userSpaceOnUse" orient="auto-start-reverse"><circle cx="6" cy="6" r="4" fill="#1e293b" stroke="#1e293b" stroke-width="1.5"/></marker><marker id="arrow-triangle-filled" viewBox="0 0 12 12" refX="11" refY="6" markerWidth="12" markerHeight="12" markerUnits="userSpaceOnUse" orient="auto-start-reverse"><polygon points="0,0 12,6 0,12" fill="#1e293b" stroke="#1e293b" stroke-width="1.5"/></marker><marker id="arrow-box-filled" viewBox="0 0 12 12" refX="11" refY="6" markerWidth="12" markerHeight="12" markerUnits="userSpaceOnUse" orient="auto-start-reverse"><rect x="2" y="2" width="8" height="8" fill="#1e293b" stroke="#1e293b" stroke-width="1.5"/></marker><marker id="arrow-plus" viewBox="0 0 12 12" refX="11" refY="6" markerWidth="12" markerHeight="12" markerUnits="userSpaceOnUse" orient="auto-start-reverse"><path d="M6,1 L6,11 M1,6 L11,6" fill="none" stroke="#1e293b" stroke-width="1.8" stroke-linecap="round"/></marker><marker id="arrow-slash" viewBox="0 0 12 12" refX="10" refY="6" markerWidth="12" markerHeight="12" markerUnits="userSpaceOnUse" orient="auto-start-reverse"><path d="M3,2 L9,10" fill="none" stroke="#1e293b" stroke-width="1.8" stroke-linecap="round"/></marker><marker id="arrow-cross" viewBox="0 0 12 12" refX="11" refY="6" markerWidth="12" markerHeight="12" markerUnits="userSpaceOnUse" orient="auto-start-reverse"><path d="M2,2 L10,10 M10,2 L2,10" fill="none" stroke="#1e293b" stroke-width="1.8" stroke-linecap="round"/></marker><marker id="arrow-bracket-open" viewBox="0 0 12 14" refX="11" refY="7" markerWidth="12" markerHeight="14" markerUnits="userSpaceOnUse" orient="auto-start-reverse"><path d="M10,1 L4,1 L4,13 L10,13" fill="none" stroke="#1e293b" stroke-width="1.8" stroke-linecap="round" stroke-linejoin="round"/></marker></defs><marker id="arrow-ie-one" viewBox="0 0 24 16" refX="22" refY="8" markerWidth="24" markerHeight="16" markerUnits="userSpaceOnUse" orient="auto-start-reverse"><path d="M16,2 L16,14" fill="none" stroke="#1e293b" stroke-width="1.8" stroke-linecap="round"/></marker><marker id="arrow-ie-zero-one" viewBox="0 0 30 16" refX="28" refY="8" markerWidth="30" markerHeight="16" markerUnits="userSpaceOnUse" orient="auto-start-reverse"><circle cx="10" cy="8" r="4" fill="#ffffff" stroke="#1e293b" stroke-width="1.5"/><path d="M20,2 L20,14" fill="none" stroke="#1e293b" stroke-width="1.8" stroke-linecap="round"/></marker><marker id="arrow-ie-zero-many" viewBox="0 0 34 18" refX="32" refY="9" markerWidth="34" markerHeight="18" markerUnits="userSpaceOnUse" orient="auto-start-reverse"><circle cx="8" cy="9" r="4" fill="#ffffff" stroke="#1e293b" stroke-width="1.5"/><path d="M18,9 L31,2 M18,9 L31,9 M18,9 L31,16" fill="none" stroke="#1e293b" stroke-width="1.7" stroke-linecap="round"/></marker><marker id="arrow-ie-one-many" viewBox="0 0 34 18" refX="32" refY="9" markerWidth="34" markerHeight="18" markerUnits="userSpaceOnUse" orient="auto-start-reverse"><path d="M8,2 L8,16 M18,9 L31,2 M18,9 L31,9 M18,9 L31,16" fill="none" stroke="#1e293b" stroke-width="1.7" stroke-linecap="round"/></marker><text x="40" y="40" font-family="monospace" font-size="18" font-weight="600">Ports, lollipop interfaces, and required connectors</text><rect class="uml-group-frame" data-uml-group="Order Service" x="118" y="78" width="1256" height="456" rx="8" ry="8" fill="#f8faff" stroke="#1e293b" stroke-width="1.5"/><rect x="118" y="78" width="1256" height="40" rx="8" ry="8" fill="#1e293b" stroke="none"/><rect x="118" y="110" width="1256" height="8" fill="#1e293b" stroke="none"/><text x="126" y="110" font-family="monospace" font-size="11" font-weight="600" fill="#ffffff">package Order Service</text><line x1="118" y1="118" x2="1374" y2="118" stroke="#1e293b" stroke-width="1"/><rect class="uml-group-frame" data-uml-group="Notification Service" x="1414" y="78" width="392" height="456" rx="8" ry="8" fill="#f8faff" stroke="#1e293b" stroke-width="1.5"/><rect x="1414" y="78" width="392" height="40" rx="8" ry="8" fill="#1e293b" stroke="none"/><rect x="1414" y="110" width="392" height="8" fill="#1e293b" stroke="none"/><text x="1422" y="110" font-family="monospace" font-size="11" font-weight="600" fill="#ffffff">package Notification Service</text><line x1="1414" y1="118" x2="1806" y2="118" stroke="#1e293b" stroke-width="1"/><rect class="uml-group-frame" data-uml-group="Database" x="1270" y="574" width="248" height="168" rx="8" ry="8" fill="#f8faff" stroke="#1e293b" stroke-width="1.5"/><rect x="1270" y="574" width="248" height="40" rx="8" ry="8" fill="#1e293b" stroke="none"/><rect x="1270" y="606" width="248" height="8" fill="#1e293b" stroke="none"/><text x="1278" y="606" font-family="monospace" font-size="11" font-weight="600" fill="#ffffff">package Database</text><line x1="1270" y1="614" x2="1518" y2="614" stroke="#1e293b" stroke-width="1"/><rect class="uml-group-frame" data-uml-group="Message Bus" x="406" y="574" width="248" height="168" rx="8" ry="8" fill="#f8faff" stroke="#1e293b" stroke-width="1.5"/><rect x="406" y="574" width="248" height="40" rx="8" ry="8" fill="#1e293b" stroke="none"/><rect x="406" y="606" width="248" height="8" fill="#1e293b" stroke="none"/><text x="414" y="606" font-family="monospace" font-size="11" font-weight="600" fill="#ffffff">package Message Bus</text><line x1="406" y1="614" x2="654" y2="614" stroke="#1e293b" stroke-width="1"/><desc data-uml-id="Order Service::OC">Order Service::OC</desc><rect class="uml-node uml-component" data-uml-kind="component" x="286" y="142" width="200" height="80" rx="4" ry="4" fill="#f0f4f8" stroke="#1e293b" stroke-width="1.5"/><rect x="282" y="154" width="16" height="8" fill="#f0f4f8" stroke="#1e293b" stroke-width="1"/><rect x="282" y="202" width="16" height="8" fill="#f0f4f8" stroke="#1e293b" stroke-width="1"/><text x="386" y="188" text-anchor="middle" font-family="monospace" font-size="13" font-weight="600" fill="#0f172a">OrderController</text><text x="386" y="156" text-anchor="middle" font-family="monospace" font-size="10" fill="#0f172a">«component»</text><desc data-uml-id="Order Service::OD">Order Service::OD</desc><rect class="uml-node uml-component" data-uml-kind="component" x="574" y="142" width="200" height="80" rx="4" ry="4" fill="#f0f4f8" stroke="#1e293b" stroke-width="1.5"/><rect x="570" y="154" width="16" height="8" fill="#f0f4f8" stroke="#1e293b" stroke-width="1"/><rect x="570" y="202" width="16" height="8" fill="#f0f4f8" stroke="#1e293b" stroke-width="1"/><text x="674" y="188" text-anchor="middle" font-family="monospace" font-size="13" font-weight="600" fill="#0f172a">OrderDomain</text><text x="674" y="156" text-anchor="middle" font-family="monospace" font-size="10" fill="#0f172a">«component»</text><desc data-uml-id="Order Service::OR">Order Service::OR</desc><rect class="uml-node uml-component" data-uml-kind="component" x="1150" y="142" width="200" height="80" rx="4" ry="4" fill="#f0f4f8" stroke="#1e293b" stroke-width="1.5"/><rect x="1146" y="154" width="16" height="8" fill="#f0f4f8" stroke="#1e293b" stroke-width="1"/><rect x="1146" y="202" width="16" height="8" fill="#f0f4f8" stroke="#1e293b" stroke-width="1"/><text x="1250" y="188" text-anchor="middle" font-family="monospace" font-size="13" font-weight="600" fill="#0f172a">OrderRepository</text><text x="1250" y="156" text-anchor="middle" font-family="monospace" font-size="10" fill="#0f172a">«component»</text><desc data-uml-id="Order Service::IOrderService">Order Service::IOrderService</desc><circle class="uml-node uml-interface" data-uml-kind="interface" cx="242" cy="470" r="18" fill="#e2e8f0" stroke="#1e293b" stroke-width="1.5"/><text x="242" y="498" text-anchor="middle" font-family="monospace" font-size="13" font-weight="600" fill="#0f172a">IOrderService</text><text x="242" y="512" text-anchor="middle" font-family="monospace" font-size="10" fill="#0f172a">«interface»</text><desc data-uml-id="Order Service::IOrderRepository">Order Service::IOrderRepository</desc><circle class="uml-node uml-interface" data-uml-kind="interface" cx="1106" cy="470" r="18" fill="#e2e8f0" stroke="#1e293b" stroke-width="1.5"/><text x="1106" y="498" text-anchor="middle" font-family="monospace" font-size="13" font-weight="600" fill="#0f172a">IOrderRepository</text><text x="1106" y="512" text-anchor="middle" font-family="monospace" font-size="10" fill="#0f172a">«interface»</text><desc data-uml-id="Notification Service::NS">Notification Service::NS</desc><rect class="uml-node uml-component" data-uml-kind="component" x="1582" y="142" width="200" height="80" rx="4" ry="4" fill="#f0f4f8" stroke="#1e293b" stroke-width="1.5"/><rect x="1578" y="154" width="16" height="8" fill="#f0f4f8" stroke="#1e293b" stroke-width="1"/><rect x="1578" y="202" width="16" height="8" fill="#f0f4f8" stroke="#1e293b" stroke-width="1"/><text x="1682" y="188" text-anchor="middle" font-family="monospace" font-size="13" font-weight="600" fill="#0f172a">NotificationSender</text><text x="1682" y="156" text-anchor="middle" font-family="monospace" font-size="10" fill="#0f172a">«component»</text><desc data-uml-id="Notification Service::INotifier">Notification Service::INotifier</desc><circle class="uml-node uml-interface" data-uml-kind="interface" cx="1538" cy="470" r="18" fill="#e2e8f0" stroke="#1e293b" stroke-width="1.5"/><text x="1538" y="498" text-anchor="middle" font-family="monospace" font-size="13" font-weight="600" fill="#0f172a">INotifier</text><text x="1538" y="512" text-anchor="middle" font-family="monospace" font-size="10" fill="#0f172a">«interface»</text><desc data-uml-id="Database::PG">Database::PG</desc><rect class="uml-node uml-component" data-uml-kind="component" x="1294" y="638" width="200" height="80" rx="4" ry="4" fill="#f0f4f8" stroke="#1e293b" stroke-width="1.5"/><rect x="1290" y="650" width="16" height="8" fill="#f0f4f8" stroke="#1e293b" stroke-width="1"/><rect x="1290" y="698" width="16" height="8" fill="#f0f4f8" stroke="#1e293b" stroke-width="1"/><text x="1394" y="684" text-anchor="middle" font-family="monospace" font-size="13" font-weight="600" fill="#0f172a">PostgreSQL</text><text x="1394" y="652" text-anchor="middle" font-family="monospace" font-size="10" fill="#0f172a">«component»</text><desc data-uml-id="Message Bus::MQ">Message Bus::MQ</desc><rect class="uml-node uml-component" data-uml-kind="component" x="430" y="638" width="200" height="80" rx="4" ry="4" fill="#f0f4f8" stroke="#1e293b" stroke-width="1.5"/><rect x="426" y="650" width="16" height="8" fill="#f0f4f8" stroke="#1e293b" stroke-width="1"/><rect x="426" y="698" width="16" height="8" fill="#f0f4f8" stroke="#1e293b" stroke-width="1"/><text x="530" y="684" text-anchor="middle" font-family="monospace" font-size="13" font-weight="600" fill="#0f172a">RabbitMQ</text><text x="530" y="652" text-anchor="middle" font-family="monospace" font-size="10" fill="#0f172a">«component»</text><path class="uml-relation" data-uml-from="Order Service::OC" data-uml-to="Order Service::IOrderService" data-uml-arrow="-(" d="M 386,222 C 386.0,227.3 410.0,235.3 386.0,238.0 C 362.0,240.7 266.0,202.3 242.0,238.0 C 218.0,273.7 242.0,380.7 242.0,452.0" fill="none" stroke="#1e293b" stroke-width="2" marker-end="url(#arrow-circle-open)" /><path class="uml-relation" data-uml-from="Order Service::OD" data-uml-to="Order Service::IOrderService" data-uml-arrow="--" d="M 614,222 C 614.0,235.7 673.0,256.2 614.0,263.0 C 555.0,269.8 319.0,228.5 260.0,263.0 C 201.0,297.5 260.0,401.0 260.0,470.0" fill="none" stroke="#1e293b" stroke-width="2" /><path class="uml-relation" data-uml-from="Order Service::OD" data-uml-to="Order Service::IOrderRepository" data-uml-arrow="-(" d="M 694,222 C 694.0,244.0 628.3,277.0 694.0,288.0 C 759.7,299.0 1022.3,257.7 1088.0,288.0 C 1153.7,318.3 1088.0,409.3 1088.0,470.0" fill="none" stroke="#1e293b" stroke-width="2" marker-end="url(#arrow-circle-open)" /><path class="uml-relation" data-uml-from="Order Service::OR" data-uml-to="Order Service::IOrderRepository" data-uml-arrow="--" d="M 1216,222 C 1216.0,269.0 1234.3,339.5 1216.0,363.0 C 1197.7,386.5 1124.3,348.2 1106.0,363.0 C 1087.7,377.8 1106.0,422.3 1106.0,452.0" fill="none" stroke="#1e293b" stroke-width="2" /><path class="uml-relation" data-uml-from="Notification Service::NS" data-uml-to="Notification Service::INotifier" data-uml-arrow="--" d="M 1682,222 C 1682.0,285.7 1706.0,381.2 1682.0,413.0 C 1658.0,444.8 1562.0,406.5 1538.0,413.0 C 1514.0,419.5 1538.0,439.0 1538.0,452.0" fill="none" stroke="#1e293b" stroke-width="2" /><path class="uml-relation" data-uml-from="OD" data-uml-to="INotifier" data-uml-arrow="--&gt;" d="M 734,222 C 734.0,252.3 603.0,297.8 734.0,313.0 C 865.0,328.2 1389.0,286.8 1520.0,313.0 C 1651.0,339.2 1520.0,417.7 1520.0,470.0" fill="none" stroke="#1e293b" stroke-width="2" marker-end="url(#arrow-open)" /><path class="uml-relation" data-uml-from="OR" data-uml-to="PG" data-uml-arrow="--&gt;" d="M 1283,222 C 1283.0,277.3 1264.5,360.3 1283.0,388.0 C 1301.5,415.7 1375.5,346.3 1394.0,388.0 C 1412.5,429.7 1394.0,554.7 1394.0,638.0" fill="none" stroke="#1e293b" stroke-width="2" marker-end="url(#arrow-open)" /><path class="uml-relation" data-uml-from="OD" data-uml-to="MQ" data-uml-arrow="--&gt;" d="M 654,222 C 654.0,260.7 674.7,318.7 654.0,338.0 C 633.3,357.3 550.7,288.0 530.0,338.0 C 509.3,388.0 530.0,538.0 530.0,638.0" fill="none" stroke="#1e293b" stroke-width="2" marker-end="url(#arrow-open)" /><text class="uml-edge-label" data-uml-label-role="edge" x="200" y="402" text-anchor="middle" font-family="monospace" font-size="11" fill="#1e293b">provides</text><text class="uml-edge-label" data-uml-label-role="edge" x="285" y="402" text-anchor="middle" font-family="monospace" font-size="11" fill="#1e293b">realizes</text><text class="uml-edge-label" data-uml-label-role="edge" x="1064" y="402" text-anchor="middle" font-family="monospace" font-size="11" fill="#1e293b">requires</text><text class="uml-edge-label" data-uml-label-role="edge" x="1149" y="402" text-anchor="middle" font-family="monospace" font-size="11" fill="#1e293b">realizes</text><text class="uml-edge-label" data-uml-label-role="edge" x="1610" y="401" text-anchor="middle" font-family="monospace" font-size="11" fill="#1e293b">provides</text><text class="uml-edge-label" data-uml-label-role="edge" x="1127" y="301" text-anchor="middle" font-family="monospace" font-size="11" fill="#1e293b">uses</text><text class="uml-edge-label" data-uml-label-role="edge" x="1338" y="376" text-anchor="middle" font-family="monospace" font-size="11" fill="#1e293b">SQL</text><text class="uml-edge-label" data-uml-label-role="edge" x="592" y="326" text-anchor="middle" font-family="monospace" font-size="11" fill="#1e293b">publish events</text></svg>