<svg xmlns="http://www.w3.org/2000/svg" width="2006" height="692" viewBox="0 0 2006 692"><rect width="100%" height="100%" fill="#f0f4f8"/><defs><marker id="arrow-open" viewBox="0 0 10 10" refX="9" refY="5" markerWidth="10" markerHeight="10" markerUnits="userSpaceOnUse" orient="auto-start-reverse"><path d="M0,0 L10,5 L0,10" fill="none" stroke="#1e293b" stroke-width="1.5"/></marker><marker id="arrow-triangle" viewBox="0 0 12 12" refX="11" refY="6" markerWidth="12" markerHeight="12" markerUnits="userSpaceOnUse" orient="auto-start-reverse"><polygon points="0,0 12,6 0,12" fill="#ffffff" stroke="#1e293b" stroke-width="1.5" fill-rule="nonzero"/></marker><marker id="arrow-diamond-filled" viewBox="0 0 14 10" refX="13" refY="5" markerWidth="14" markerHeight="10" markerUnits="userSpaceOnUse" orient="auto-start-reverse"><path d="M0,5 L7,0 L14,5 L7,10 z" fill="#1e293b" stroke="#1e293b" stroke-width="1"/></marker><marker id="arrow-diamond-open" viewBox="0 0 14 10" refX="13" refY="5" markerWidth="14" markerHeight="10" markerUnits="userSpaceOnUse" orient="auto-start-reverse"><path d="M0,5 L7,0 L14,5 L7,10 z" fill="#ffffff" stroke="#1e293b" stroke-width="1"/></marker></defs><text x="40" y="40" font-family="monospace" font-size="18" font-weight="600">Ports, lollipop interfaces, and required connectors</text><rect class="uml-group-frame" data-uml-group="Order Service" x="118" y="78" width="1256" height="456" rx="8" ry="8" fill="#f8faff" stroke="#1e293b" stroke-width="1.5"/><rect x="118" y="78" width="1256" height="40" rx="8" ry="8" fill="#1e293b" stroke="none"/><rect x="118" y="110" width="1256" height="8" fill="#1e293b" stroke="none"/><text x="126" y="110" font-family="monospace" font-size="11" font-weight="600" fill="#ffffff">package Order Service</text><line x1="118" y1="118" x2="1374" y2="118" stroke="#1e293b" stroke-width="1"/><rect class="uml-group-frame" data-uml-group="Notification Service" x="1414" y="78" width="392" height="456" rx="8" ry="8" fill="#f8faff" stroke="#1e293b" stroke-width="1.5"/><rect x="1414" y="78" width="392" height="40" rx="8" ry="8" fill="#1e293b" stroke="none"/><rect x="1414" y="110" width="392" height="8" fill="#1e293b" stroke="none"/><text x="1422" y="110" font-family="monospace" font-size="11" font-weight="600" fill="#ffffff">package Notification Service</text><line x1="1414" y1="118" x2="1806" y2="118" stroke="#1e293b" stroke-width="1"/><rect class="uml-group-frame" data-uml-group="Database&quot; &lt;&lt;database&gt;&gt;" x="1414" y="366" width="248" height="168" rx="8" ry="8" fill="#f8faff" stroke="#1e293b" stroke-width="1.5"/><rect x="1414" y="366" width="248" height="40" rx="8" ry="8" fill="#1e293b" stroke="none"/><rect x="1414" y="398" width="248" height="8" fill="#1e293b" stroke="none"/><text x="1422" y="398" font-family="monospace" font-size="11" font-weight="600" fill="#ffffff">package Database&quot; &lt;&lt;database&gt;&gt;</text><line x1="1414" y1="406" x2="1662" y2="406" stroke="#1e293b" stroke-width="1"/><rect class="uml-group-frame" data-uml-group="Message Bus&quot; &lt;&lt;queue&gt;&gt;" x="1702" y="366" width="248" height="168" rx="8" ry="8" fill="#f8faff" stroke="#1e293b" stroke-width="1.5"/><rect x="1702" y="366" width="248" height="40" rx="8" ry="8" fill="#1e293b" stroke="none"/><rect x="1702" y="398" width="248" height="8" fill="#1e293b" stroke="none"/><text x="1710" y="398" font-family="monospace" font-size="11" font-weight="600" fill="#ffffff">package Message Bus&quot; &lt;&lt;queue&gt;&gt;</text><line x1="1702" y1="406" x2="1950" y2="406" stroke="#1e293b" stroke-width="1"/><desc data-uml-id="Order Service::OC">Order Service::OC</desc><rect class="uml-node uml-component" data-uml-kind="component" x="286" y="142" width="200" height="80" rx="4" ry="4" fill="#f0f4f8" stroke="#1e293b" stroke-width="1"/><rect x="282" y="154" width="16" height="8" fill="#f0f4f8" stroke="#1e293b" stroke-width="1"/><rect x="282" y="202" width="16" height="8" fill="#f0f4f8" stroke="#1e293b" stroke-width="1"/><text x="386" y="188" text-anchor="middle" font-family="monospace" font-size="13" font-weight="600" fill="#0f172a">OrderController</text><text x="386" y="156" text-anchor="middle" font-family="monospace" font-size="10" fill="#0f172a">«component»</text><desc data-uml-id="Order Service::OD">Order Service::OD</desc><rect class="uml-node uml-component" data-uml-kind="component" x="574" y="142" width="200" height="80" rx="4" ry="4" fill="#f0f4f8" stroke="#1e293b" stroke-width="1"/><rect x="570" y="154" width="16" height="8" fill="#f0f4f8" stroke="#1e293b" stroke-width="1"/><rect x="570" y="202" width="16" height="8" fill="#f0f4f8" stroke="#1e293b" stroke-width="1"/><text x="674" y="188" text-anchor="middle" font-family="monospace" font-size="13" font-weight="600" fill="#0f172a">OrderDomain</text><text x="674" y="156" text-anchor="middle" font-family="monospace" font-size="10" fill="#0f172a">«component»</text><desc data-uml-id="Order Service::OR">Order Service::OR</desc><rect class="uml-node uml-component" data-uml-kind="component" x="1150" y="142" width="200" height="80" rx="4" ry="4" fill="#f0f4f8" stroke="#1e293b" stroke-width="1"/><rect x="1146" y="154" width="16" height="8" fill="#f0f4f8" stroke="#1e293b" stroke-width="1"/><rect x="1146" y="202" width="16" height="8" fill="#f0f4f8" stroke="#1e293b" stroke-width="1"/><text x="1250" y="188" text-anchor="middle" font-family="monospace" font-size="13" font-weight="600" fill="#0f172a">OrderRepository</text><text x="1250" y="156" text-anchor="middle" font-family="monospace" font-size="10" fill="#0f172a">«component»</text><desc data-uml-id="Order Service::IOrderService">Order Service::IOrderService</desc><circle class="uml-node uml-interface" data-uml-kind="interface" cx="242" cy="470" r="18" fill="#e2e8f0" stroke="#1e293b" stroke-width="1.5"/><text x="242" y="498" text-anchor="middle" font-family="monospace" font-size="13" font-weight="600" fill="#0f172a">IOrderService</text><text x="242" y="512" text-anchor="middle" font-family="monospace" font-size="10" fill="#0f172a">«interface»</text><desc data-uml-id="Order Service::IOrderRepository">Order Service::IOrderRepository</desc><circle class="uml-node uml-interface" data-uml-kind="interface" cx="1106" cy="470" r="18" fill="#e2e8f0" stroke="#1e293b" stroke-width="1.5"/><text x="1106" y="498" text-anchor="middle" font-family="monospace" font-size="13" font-weight="600" fill="#0f172a">IOrderRepository</text><text x="1106" y="512" text-anchor="middle" font-family="monospace" font-size="10" fill="#0f172a">«interface»</text><desc data-uml-id="Notification Service::NS">Notification Service::NS</desc><rect class="uml-node uml-component" data-uml-kind="component" x="1582" y="142" width="200" height="80" rx="4" ry="4" fill="#f0f4f8" stroke="#1e293b" stroke-width="1"/><rect x="1578" y="154" width="16" height="8" fill="#f0f4f8" stroke="#1e293b" stroke-width="1"/><rect x="1578" y="202" width="16" height="8" fill="#f0f4f8" stroke="#1e293b" stroke-width="1"/><text x="1682" y="188" text-anchor="middle" font-family="monospace" font-size="13" font-weight="600" fill="#0f172a">NotificationSender</text><text x="1682" y="156" text-anchor="middle" font-family="monospace" font-size="10" fill="#0f172a">«component»</text><desc data-uml-id="Notification Service::INotifier">Notification Service::INotifier</desc><circle class="uml-node uml-interface" data-uml-kind="interface" cx="1538" cy="470" r="18" fill="#e2e8f0" stroke="#1e293b" stroke-width="1.5"/><text x="1538" y="498" text-anchor="middle" font-family="monospace" font-size="13" font-weight="600" fill="#0f172a">INotifier</text><text x="1538" y="512" text-anchor="middle" font-family="monospace" font-size="10" fill="#0f172a">«interface»</text><desc data-uml-id="Database&quot; &lt;&lt;database&gt;&gt;::PG">Database&quot; &lt;&lt;database&gt;&gt;::PG</desc><rect class="uml-node uml-component" data-uml-kind="component" x="1438" y="430" width="200" height="80" rx="4" ry="4" fill="#f0f4f8" stroke="#1e293b" stroke-width="1"/><rect x="1434" y="442" width="16" height="8" fill="#f0f4f8" stroke="#1e293b" stroke-width="1"/><rect x="1434" y="490" width="16" height="8" fill="#f0f4f8" stroke="#1e293b" stroke-width="1"/><text x="1538" y="476" text-anchor="middle" font-family="monospace" font-size="13" font-weight="600" fill="#0f172a">PostgreSQL</text><text x="1538" y="444" text-anchor="middle" font-family="monospace" font-size="10" fill="#0f172a">«component»</text><desc data-uml-id="Message Bus&quot; &lt;&lt;queue&gt;&gt;::MQ">Message Bus&quot; &lt;&lt;queue&gt;&gt;::MQ</desc><rect class="uml-node uml-component" data-uml-kind="component" x="1726" y="430" width="200" height="80" rx="4" ry="4" fill="#f0f4f8" stroke="#1e293b" stroke-width="1"/><rect x="1722" y="442" width="16" height="8" fill="#f0f4f8" stroke="#1e293b" stroke-width="1"/><rect x="1722" y="490" width="16" height="8" fill="#f0f4f8" stroke="#1e293b" stroke-width="1"/><text x="1826" y="476" text-anchor="middle" font-family="monospace" font-size="13" font-weight="600" fill="#0f172a">RabbitMQ</text><text x="1826" y="444" text-anchor="middle" font-family="monospace" font-size="10" fill="#0f172a">«component»</text><polyline class="uml-relation" data-uml-from="Order Service::OC" data-uml-to="Order Service::IOrderService" data-uml-arrow="-(" points="386,222 386,418 242,418 242,452" fill="none" stroke="#1e293b" stroke-width="2" marker-end="url(#arrow-open)" /><polyline class="uml-relation" data-uml-from="Order Service::OD" data-uml-to="Order Service::IOrderService" data-uml-arrow="--" points="674,222 674,418 260,418 260,470" fill="none" stroke="#1e293b" stroke-width="2" /><polyline class="uml-relation" data-uml-from="Order Service::OD" data-uml-to="Order Service::IOrderRepository" data-uml-arrow="-(" points="674,222 674,418 1088,418 1088,470" fill="none" stroke="#1e293b" stroke-width="2" marker-end="url(#arrow-open)" /><polyline class="uml-relation" data-uml-from="Order Service::OR" data-uml-to="Order Service::IOrderRepository" data-uml-arrow="--" points="1250,222 1250,418 1106,418 1106,452" fill="none" stroke="#1e293b" stroke-width="2" /><polyline class="uml-relation" data-uml-from="Notification Service::NS" data-uml-to="Notification Service::INotifier" data-uml-arrow="--" points="1682,222 1682,418 1538,418 1538,452" fill="none" stroke="#1e293b" stroke-width="2" /><polyline class="uml-relation" data-uml-from="OD" data-uml-to="INotifier" data-uml-arrow="--&gt;" points="674,222 674,418 1520,418 1520,470" fill="none" stroke="#1e293b" stroke-width="2" marker-end="url(#arrow-open)" /><polyline class="uml-relation" data-uml-from="OR" data-uml-to="PG" data-uml-arrow="--&gt;" points="1250,222 1250,418 1538,418 1538,430" fill="none" stroke="#1e293b" stroke-width="2" marker-end="url(#arrow-open)" /><polyline class="uml-relation" data-uml-from="OD" data-uml-to="MQ" data-uml-arrow="--&gt;" points="674,222 674,418 1826,418 1826,430" fill="none" stroke="#1e293b" stroke-width="2" marker-end="url(#arrow-open)" /><text x="200" y="402" text-anchor="middle" font-family="monospace" font-size="11" fill="#1e293b">provides</text><text x="285" y="402" text-anchor="middle" font-family="monospace" font-size="11" fill="#1e293b">realizes</text><text x="1064" y="402" text-anchor="middle" font-family="monospace" font-size="11" fill="#1e293b">requires</text><text x="1149" y="402" text-anchor="middle" font-family="monospace" font-size="11" fill="#1e293b">realizes</text><text x="1610" y="406" text-anchor="middle" font-family="monospace" font-size="11" fill="#1e293b">provides</text><text x="1097" y="406" text-anchor="middle" font-family="monospace" font-size="11" fill="#1e293b">uses</text><text x="1394" y="406" text-anchor="middle" font-family="monospace" font-size="11" fill="#1e293b">SQL</text><text x="1250" y="406" text-anchor="middle" font-family="monospace" font-size="11" fill="#1e293b">publish events</text></svg>