<svg xmlns="http://www.w3.org/2000/svg" width="1558" height="630" viewBox="0 0 1558 630"><rect width="100%" height="100%" fill="#f0f4f8"/><defs><marker id="arrow-open" viewBox="0 0 10 10" refX="9" refY="5" markerWidth="10" markerHeight="10" markerUnits="userSpaceOnUse" orient="auto-start-reverse"><path d="M0,0 L10,5 L0,10" fill="none" stroke="#1e293b" stroke-width="1.5"/></marker><marker id="arrow-triangle" viewBox="0 0 12 12" refX="11" refY="6" markerWidth="12" markerHeight="12" markerUnits="userSpaceOnUse" orient="auto-start-reverse"><polygon points="0,0 12,6 0,12" fill="#ffffff" stroke="#1e293b" stroke-width="1.5" fill-rule="nonzero"/></marker><marker id="arrow-diamond-filled" viewBox="0 0 14 10" refX="13" refY="5" markerWidth="14" markerHeight="10" markerUnits="userSpaceOnUse" orient="auto-start-reverse"><path d="M0,5 L7,0 L14,5 L7,10 z" fill="#1e293b" stroke="#1e293b" stroke-width="1"/></marker><marker id="arrow-diamond-open" viewBox="0 0 14 10" refX="13" refY="5" markerWidth="14" markerHeight="10" markerUnits="userSpaceOnUse" orient="auto-start-reverse"><path d="M0,5 L7,0 L14,5 L7,10 z" fill="#ffffff" stroke="#1e293b" stroke-width="1"/></marker><marker id="arrow-double-open" viewBox="0 0 16 12" refX="15" refY="6" markerWidth="16" markerHeight="12" markerUnits="userSpaceOnUse" orient="auto-start-reverse"><path d="M0,1 L8,6 L0,11 M7,1 L15,6 L7,11" fill="none" stroke="#1e293b" stroke-width="1.5" stroke-linejoin="round"/></marker><marker id="arrow-circle-open" viewBox="0 0 12 12" refX="11" refY="6" markerWidth="12" markerHeight="12" markerUnits="userSpaceOnUse" orient="auto-start-reverse"><circle cx="6" cy="6" r="4" fill="#ffffff" stroke="#1e293b" stroke-width="1.5"/></marker><marker id="arrow-circle-filled" viewBox="0 0 12 12" refX="11" refY="6" markerWidth="12" markerHeight="12" markerUnits="userSpaceOnUse" orient="auto-start-reverse"><circle cx="6" cy="6" r="4" fill="#1e293b" stroke="#1e293b" stroke-width="1.5"/></marker><marker id="arrow-triangle-filled" viewBox="0 0 12 12" refX="11" refY="6" markerWidth="12" markerHeight="12" markerUnits="userSpaceOnUse" orient="auto-start-reverse"><polygon points="0,0 12,6 0,12" fill="#1e293b" stroke="#1e293b" stroke-width="1.5"/></marker><marker id="arrow-box-filled" viewBox="0 0 12 12" refX="11" refY="6" markerWidth="12" markerHeight="12" markerUnits="userSpaceOnUse" orient="auto-start-reverse"><rect x="2" y="2" width="8" height="8" fill="#1e293b" stroke="#1e293b" stroke-width="1.5"/></marker><marker id="arrow-plus" viewBox="0 0 12 12" refX="11" refY="6" markerWidth="12" markerHeight="12" markerUnits="userSpaceOnUse" orient="auto-start-reverse"><path d="M6,1 L6,11 M1,6 L11,6" fill="none" stroke="#1e293b" stroke-width="1.8" stroke-linecap="round"/></marker><marker id="arrow-slash" viewBox="0 0 12 12" refX="10" refY="6" markerWidth="12" markerHeight="12" markerUnits="userSpaceOnUse" orient="auto-start-reverse"><path d="M3,2 L9,10" fill="none" stroke="#1e293b" stroke-width="1.8" stroke-linecap="round"/></marker><marker id="arrow-cross" viewBox="0 0 12 12" refX="11" refY="6" markerWidth="12" markerHeight="12" markerUnits="userSpaceOnUse" orient="auto-start-reverse"><path d="M2,2 L10,10 M10,2 L2,10" fill="none" stroke="#1e293b" stroke-width="1.8" stroke-linecap="round"/></marker><marker id="arrow-bracket-open" viewBox="0 0 12 14" refX="11" refY="7" markerWidth="12" markerHeight="14" markerUnits="userSpaceOnUse" orient="auto-start-reverse"><path d="M10,1 L4,1 L4,13 L10,13" fill="none" stroke="#1e293b" stroke-width="1.8" stroke-linecap="round" stroke-linejoin="round"/></marker></defs><marker id="arrow-ie-one" viewBox="0 0 24 16" refX="22" refY="8" markerWidth="24" markerHeight="16" markerUnits="userSpaceOnUse" orient="auto-start-reverse"><path d="M16,2 L16,14" fill="none" stroke="#1e293b" stroke-width="1.8" stroke-linecap="round"/></marker><marker id="arrow-ie-zero-one" viewBox="0 0 30 16" refX="28" refY="8" markerWidth="30" markerHeight="16" markerUnits="userSpaceOnUse" orient="auto-start-reverse"><circle cx="10" cy="8" r="4" fill="#ffffff" stroke="#1e293b" stroke-width="1.5"/><path d="M20,2 L20,14" fill="none" stroke="#1e293b" stroke-width="1.8" stroke-linecap="round"/></marker><marker id="arrow-ie-zero-many" viewBox="0 0 34 18" refX="32" refY="9" markerWidth="34" markerHeight="18" markerUnits="userSpaceOnUse" orient="auto-start-reverse"><circle cx="8" cy="9" r="4" fill="#ffffff" stroke="#1e293b" stroke-width="1.5"/><path d="M18,9 L31,2 M18,9 L31,9 M18,9 L31,16" fill="none" stroke="#1e293b" stroke-width="1.7" stroke-linecap="round"/></marker><marker id="arrow-ie-one-many" viewBox="0 0 34 18" refX="32" refY="9" markerWidth="34" markerHeight="18" markerUnits="userSpaceOnUse" orient="auto-start-reverse"><path d="M8,2 L8,16 M18,9 L31,2 M18,9 L31,9 M18,9 L31,16" fill="none" stroke="#1e293b" stroke-width="1.7" stroke-linecap="round"/></marker><text x="8" y="8" font-family="monospace" font-size="18" font-weight="600">Ports, lollipop interfaces, and required connectors</text><rect class="uml-group-frame" data-uml-group="Order Service" x="86" y="46" width="1078" height="388" rx="8" ry="8" fill="#f8faff" stroke="#1e293b" stroke-width="1.5"/><rect x="86" y="46" width="1078" height="40" rx="8" ry="8" fill="#1e293b" stroke="none"/><rect x="86" y="78" width="1078" height="8" fill="#1e293b" stroke="none"/><text x="94" y="78" font-family="monospace" font-size="11" font-weight="600" fill="#ffffff">package Order Service</text><line x1="86" y1="86" x2="1164" y2="86" stroke="#1e293b" stroke-width="1"/><rect class="uml-group-frame" data-uml-group="Notification Service" x="1204" y="46" width="346" height="388" rx="8" ry="8" fill="#f8faff" stroke="#1e293b" stroke-width="1.5"/><rect x="1204" y="46" width="346" height="40" rx="8" ry="8" fill="#1e293b" stroke="none"/><rect x="1204" y="78" width="346" height="8" fill="#1e293b" stroke="none"/><text x="1212" y="78" font-family="monospace" font-size="11" font-weight="600" fill="#ffffff">package Notification Service</text><line x1="1204" y1="86" x2="1550" y2="86" stroke="#1e293b" stroke-width="1"/><rect class="uml-group-frame" data-uml-group="Database" x="1062" y="474" width="224" height="144" rx="8" ry="8" fill="#f8faff" stroke="#1e293b" stroke-width="1.5"/><rect x="1062" y="474" width="224" height="40" rx="8" ry="8" fill="#1e293b" stroke="none"/><rect x="1062" y="506" width="224" height="8" fill="#1e293b" stroke="none"/><text x="1070" y="506" font-family="monospace" font-size="11" font-weight="600" fill="#ffffff">package Database</text><line x1="1062" y1="514" x2="1286" y2="514" stroke="#1e293b" stroke-width="1"/><rect class="uml-group-frame" data-uml-group="Message Bus" x="330" y="474" width="224" height="144" rx="8" ry="8" fill="#f8faff" stroke="#1e293b" stroke-width="1.5"/><rect x="330" y="474" width="224" height="40" rx="8" ry="8" fill="#1e293b" stroke="none"/><rect x="330" y="506" width="224" height="8" fill="#1e293b" stroke="none"/><text x="338" y="506" font-family="monospace" font-size="11" font-weight="600" fill="#ffffff">package Message Bus</text><line x1="330" y1="514" x2="554" y2="514" stroke="#1e293b" stroke-width="1"/><desc data-uml-id="Order Service::OC">Order Service::OC</desc><rect class="uml-node uml-component" data-uml-kind="component" x="220" y="98" width="200" height="80" rx="4" ry="4" fill="#f0f4f8" stroke="#1e293b" stroke-width="1.5"/><rect x="216" y="110" width="16" height="8" fill="#f0f4f8" stroke="#1e293b" stroke-width="1"/><rect x="216" y="158" width="16" height="8" fill="#f0f4f8" stroke="#1e293b" stroke-width="1"/><text x="320" y="144" text-anchor="middle" font-family="monospace" font-size="13" font-weight="600" fill="#0f172a">OrderController</text><desc data-uml-id="Order Service::OD">Order Service::OD</desc><rect class="uml-node uml-component" data-uml-kind="component" x="464" y="98" width="200" height="80" rx="4" ry="4" fill="#f0f4f8" stroke="#1e293b" stroke-width="1.5"/><rect x="460" y="110" width="16" height="8" fill="#f0f4f8" stroke="#1e293b" stroke-width="1"/><rect x="460" y="158" width="16" height="8" fill="#f0f4f8" stroke="#1e293b" stroke-width="1"/><text x="564" y="144" text-anchor="middle" font-family="monospace" font-size="13" font-weight="600" fill="#0f172a">OrderDomain</text><desc data-uml-id="Order Service::OR">Order Service::OR</desc><rect class="uml-node uml-component" data-uml-kind="component" x="952" y="98" width="200" height="80" rx="4" ry="4" fill="#f0f4f8" stroke="#1e293b" stroke-width="1.5"/><rect x="948" y="110" width="16" height="8" fill="#f0f4f8" stroke="#1e293b" stroke-width="1"/><rect x="948" y="158" width="16" height="8" fill="#f0f4f8" stroke="#1e293b" stroke-width="1"/><text x="1052" y="144" text-anchor="middle" font-family="monospace" font-size="13" font-weight="600" fill="#0f172a">OrderRepository</text><desc data-uml-id="Order Service::IOrderService">Order Service::IOrderService</desc><circle class="uml-node uml-interface" data-uml-kind="interface" cx="198" cy="382" r="18" fill="#e2e8f0" stroke="#1e293b" stroke-width="1.5"/><text x="198" y="410" text-anchor="middle" font-family="monospace" font-size="13" font-weight="600" fill="#0f172a">IOrderService</text><desc data-uml-id="Order Service::IOrderRepository">Order Service::IOrderRepository</desc><circle class="uml-node uml-interface" data-uml-kind="interface" cx="930" cy="382" r="18" fill="#e2e8f0" stroke="#1e293b" stroke-width="1.5"/><text x="930" y="410" text-anchor="middle" font-family="monospace" font-size="13" font-weight="600" fill="#0f172a">IOrderRepository</text><desc data-uml-id="Notification Service::NS">Notification Service::NS</desc><rect class="uml-node uml-component" data-uml-kind="component" x="1338" y="98" width="200" height="80" rx="4" ry="4" fill="#f0f4f8" stroke="#1e293b" stroke-width="1.5"/><rect x="1334" y="110" width="16" height="8" fill="#f0f4f8" stroke="#1e293b" stroke-width="1"/><rect x="1334" y="158" width="16" height="8" fill="#f0f4f8" stroke="#1e293b" stroke-width="1"/><text x="1438" y="144" text-anchor="middle" font-family="monospace" font-size="13" font-weight="600" fill="#0f172a">NotificationSender</text><desc data-uml-id="Notification Service::INotifier">Notification Service::INotifier</desc><circle class="uml-node uml-interface" data-uml-kind="interface" cx="1316" cy="382" r="18" fill="#e2e8f0" stroke="#1e293b" stroke-width="1.5"/><text x="1316" y="410" text-anchor="middle" font-family="monospace" font-size="13" font-weight="600" fill="#0f172a">INotifier</text><desc data-uml-id="Database::PG">Database::PG</desc><rect class="uml-node uml-component" data-uml-kind="component" x="1074" y="526" width="200" height="80" rx="4" ry="4" fill="#f0f4f8" stroke="#1e293b" stroke-width="1.5"/><rect x="1070" y="538" width="16" height="8" fill="#f0f4f8" stroke="#1e293b" stroke-width="1"/><rect x="1070" y="586" width="16" height="8" fill="#f0f4f8" stroke="#1e293b" stroke-width="1"/><text x="1174" y="572" text-anchor="middle" font-family="monospace" font-size="13" font-weight="600" fill="#0f172a">PostgreSQL</text><desc data-uml-id="Message Bus::MQ">Message Bus::MQ</desc><rect class="uml-node uml-component" data-uml-kind="component" x="342" y="526" width="200" height="80" rx="4" ry="4" fill="#f0f4f8" stroke="#1e293b" stroke-width="1.5"/><rect x="338" y="538" width="16" height="8" fill="#f0f4f8" stroke="#1e293b" stroke-width="1"/><rect x="338" y="586" width="16" height="8" fill="#f0f4f8" stroke="#1e293b" stroke-width="1"/><text x="442" y="572" text-anchor="middle" font-family="monospace" font-size="13" font-weight="600" fill="#0f172a">RabbitMQ</text><polyline class="uml-relation" data-uml-from="Order Service::OC" data-uml-to="Order Service::IOrderService" data-uml-arrow="-(" points="320,178 320,191 193,191 193,364" fill="none" stroke="#1e293b" stroke-width="2" marker-end="url(#arrow-circle-open)" /><polyline class="uml-relation" data-uml-from="Order Service::OD" data-uml-to="Order Service::IOrderService" data-uml-arrow="--" points="564,178 564,211 203,211 203,364" fill="none" stroke="#1e293b" stroke-width="2" /><polyline class="uml-relation" data-uml-from="Order Service::OD" data-uml-to="Order Service::IOrderRepository" data-uml-arrow="-(" points="564,178 564,230 925,230 925,364" fill="none" stroke="#1e293b" stroke-width="2" marker-end="url(#arrow-circle-open)" /><polyline class="uml-relation" data-uml-from="Order Service::OR" data-uml-to="Order Service::IOrderRepository" data-uml-arrow="--" points="1052,178 1052,289 935,289 935,364" fill="none" stroke="#1e293b" stroke-width="2" /><polyline class="uml-relation" data-uml-from="Notification Service::NS" data-uml-to="Notification Service::INotifier" data-uml-arrow="--" points="1438,178 1438,328 1321,328 1321,364" fill="none" stroke="#1e293b" stroke-width="2" /><polyline class="uml-relation" data-uml-from="OD" data-uml-to="INotifier" data-uml-arrow="--&gt;" points="564,178 564,250 1311,250 1311,364" fill="none" stroke="#1e293b" stroke-width="2" marker-end="url(#arrow-open)" /><polyline class="uml-relation" data-uml-from="OR" data-uml-to="PG" data-uml-arrow="--&gt;" points="1052,178 1052,308 1302,308 1302,522 1174,522 1174,526" fill="none" stroke="#1e293b" stroke-width="2" marker-end="url(#arrow-open)" /><polyline class="uml-relation" data-uml-from="OD" data-uml-to="MQ" data-uml-arrow="--&gt;" points="564,178 564,269 1180,269 1180,522 442,522 442,526" fill="none" stroke="#1e293b" stroke-width="2" marker-end="url(#arrow-open)" /><text class="uml-edge-label" data-uml-label-role="edge" x="156" y="314" text-anchor="middle" font-family="monospace" font-size="11" fill="#1e293b">provides</text><text class="uml-edge-label" data-uml-label-role="edge" x="241" y="314" text-anchor="middle" font-family="monospace" font-size="11" fill="#1e293b">realizes</text><text class="uml-edge-label" data-uml-label-role="edge" x="888" y="314" text-anchor="middle" font-family="monospace" font-size="11" fill="#1e293b">requires</text><text class="uml-edge-label" data-uml-label-role="edge" x="973" y="314" text-anchor="middle" font-family="monospace" font-size="11" fill="#1e293b">realizes</text><text class="uml-edge-label" data-uml-label-role="edge" x="1379" y="316" text-anchor="middle" font-family="monospace" font-size="11" fill="#1e293b">provides</text><rect class="uml-edge-label-bg" data-uml-label-role="edge-background" x="921" y="225" width="32" height="18" fill="white" opacity="0.85"/><text class="uml-edge-label" data-uml-label-role="edge" x="937" y="238" text-anchor="middle" font-family="monospace" font-size="11" fill="#1e293b">uses</text><rect class="uml-edge-label-bg" data-uml-label-role="edge-background" x="1165" y="283" width="24" height="18" fill="white" opacity="0.85"/><text class="uml-edge-label" data-uml-label-role="edge" x="1177" y="296" text-anchor="middle" font-family="monospace" font-size="11" fill="#1e293b">SQL</text><text class="uml-edge-label" data-uml-label-role="edge" x="811" y="510" text-anchor="middle" font-family="monospace" font-size="11" fill="#1e293b">publish events</text><rect x="86" y="46" width="1078" height="40" rx="8" ry="8" fill="#1e293b" stroke="none"/><rect x="86" y="78" width="1078" height="8" fill="#1e293b" stroke="none"/><text x="94" y="78" font-family="monospace" font-size="11" font-weight="600" fill="#ffffff">package Order Service</text><rect x="1204" y="46" width="346" height="40" rx="8" ry="8" fill="#1e293b" stroke="none"/><rect x="1204" y="78" width="346" height="8" fill="#1e293b" stroke="none"/><text x="1212" y="78" font-family="monospace" font-size="11" font-weight="600" fill="#ffffff">package Notification Service</text><rect x="1062" y="474" width="224" height="40" rx="8" ry="8" fill="#1e293b" stroke="none"/><rect x="1062" y="506" width="224" height="8" fill="#1e293b" stroke="none"/><text x="1070" y="506" font-family="monospace" font-size="11" font-weight="600" fill="#ffffff">package Database</text><rect x="330" y="474" width="224" height="40" rx="8" ry="8" fill="#1e293b" stroke="none"/><rect x="330" y="506" width="224" height="8" fill="#1e293b" stroke="none"/><text x="338" y="506" font-family="monospace" font-size="11" font-weight="600" fill="#ffffff">package Message Bus</text></svg>