<svg xmlns="http://www.w3.org/2000/svg" width="2396" height="692" viewBox="0 0 2396 692"><rect width="100%" height="100%" fill="#f0f4f8"/><defs><marker id="arrow-open" viewBox="0 0 10 10" refX="9" refY="5" markerWidth="10" markerHeight="10" markerUnits="userSpaceOnUse" orient="auto-start-reverse"><path d="M0,0 L10,5 L0,10" fill="none" stroke="#1e293b" stroke-width="1.5"/></marker><marker id="arrow-triangle" viewBox="0 0 12 12" refX="11" refY="6" markerWidth="12" markerHeight="12" markerUnits="userSpaceOnUse" orient="auto-start-reverse"><polygon points="0,0 12,6 0,12" fill="#ffffff" stroke="#1e293b" stroke-width="1.5" fill-rule="nonzero"/></marker><marker id="arrow-diamond-filled" viewBox="0 0 14 10" refX="13" refY="5" markerWidth="14" markerHeight="10" markerUnits="userSpaceOnUse" orient="auto-start-reverse"><path d="M0,5 L7,0 L14,5 L7,10 z" fill="#1e293b" stroke="#1e293b" stroke-width="1"/></marker><marker id="arrow-diamond-open" viewBox="0 0 14 10" refX="13" refY="5" markerWidth="14" markerHeight="10" markerUnits="userSpaceOnUse" orient="auto-start-reverse"><path d="M0,5 L7,0 L14,5 L7,10 z" fill="#ffffff" stroke="#1e293b" stroke-width="1"/></marker></defs><text x="40" y="40" font-family="monospace" font-size="18" font-weight="600">Ports, lollipop interfaces, and required connectors</text><rect class="uml-group-frame" data-uml-group="Order Service" x="118" y="78" width="1976" height="168" rx="8" ry="8" fill="#f8faff" stroke="#1e293b" stroke-width="1.5"/><rect x="118" y="78" width="1976" height="40" rx="8" ry="8" fill="#1e293b" stroke="none"/><rect x="118" y="110" width="1976" height="8" fill="#1e293b" stroke="none"/><text x="126" y="110" font-family="monospace" font-size="11" font-weight="600" fill="#ffffff">package Order Service</text><line x1="118" y1="118" x2="2094" y2="118" stroke="#1e293b" stroke-width="1"/><rect class="uml-group-frame" data-uml-group="Notification Service" x="550" y="366" width="1112" height="168" rx="8" ry="8" fill="#f8faff" stroke="#1e293b" stroke-width="1.5"/><rect x="550" y="366" width="1112" height="40" rx="8" ry="8" fill="#1e293b" stroke="none"/><rect x="550" y="398" width="1112" height="8" fill="#1e293b" stroke="none"/><text x="558" y="398" font-family="monospace" font-size="11" font-weight="600" fill="#ffffff">package Notification Service</text><line x1="550" y1="406" x2="1662" y2="406" stroke="#1e293b" stroke-width="1"/><rect class="uml-group-frame" data-uml-group="Database&quot; &lt;&lt;database&gt;&gt;" x="1702" y="366" width="248" height="168" rx="8" ry="8" fill="#f8faff" stroke="#1e293b" stroke-width="1.5"/><rect x="1702" y="366" width="248" height="40" rx="8" ry="8" fill="#1e293b" stroke="none"/><rect x="1702" y="398" width="248" height="8" fill="#1e293b" stroke="none"/><text x="1710" y="398" font-family="monospace" font-size="11" font-weight="600" fill="#ffffff">package Database&quot; &lt;&lt;database&gt;&gt;</text><line x1="1702" y1="406" x2="1950" y2="406" stroke="#1e293b" stroke-width="1"/><rect class="uml-group-frame" data-uml-group="Message Bus&quot; &lt;&lt;queue&gt;&gt;" x="1990" y="366" width="248" height="168" rx="8" ry="8" fill="#f8faff" stroke="#1e293b" stroke-width="1.5"/><rect x="1990" y="366" width="248" height="40" rx="8" ry="8" fill="#1e293b" stroke="none"/><rect x="1990" y="398" width="248" height="8" fill="#1e293b" stroke="none"/><text x="1998" y="398" font-family="monospace" font-size="11" font-weight="600" fill="#ffffff">package Message Bus&quot; &lt;&lt;queue&gt;&gt;</text><line x1="1990" y1="406" x2="2238" y2="406" stroke="#1e293b" stroke-width="1"/><desc data-uml-id="Order Service::OC">Order Service::OC</desc><rect class="uml-node uml-component" data-uml-kind="component" x="1294" y="142" width="200" height="80" rx="4" ry="4" fill="#f0f4f8" stroke="#1e293b" stroke-width="1"/><rect x="1290" y="154" width="16" height="8" fill="#f0f4f8" stroke="#1e293b" stroke-width="1"/><rect x="1290" y="202" width="16" height="8" fill="#f0f4f8" stroke="#1e293b" stroke-width="1"/><text x="1394" y="188" text-anchor="middle" font-family="monospace" font-size="13" font-weight="600" fill="#0f172a">OrderController</text><text x="1394" y="156" text-anchor="middle" font-family="monospace" font-size="10" fill="#0f172a">«component»</text><desc data-uml-id="Order Service::OD">Order Service::OD</desc><rect class="uml-node uml-component" data-uml-kind="component" x="142" y="142" width="200" height="80" rx="4" ry="4" fill="#f0f4f8" stroke="#1e293b" stroke-width="1"/><rect x="138" y="154" width="16" height="8" fill="#f0f4f8" stroke="#1e293b" stroke-width="1"/><rect x="138" y="202" width="16" height="8" fill="#f0f4f8" stroke="#1e293b" stroke-width="1"/><text x="242" y="188" text-anchor="middle" font-family="monospace" font-size="13" font-weight="600" fill="#0f172a">OrderDomain</text><text x="242" y="156" text-anchor="middle" font-family="monospace" font-size="10" fill="#0f172a">«component»</text><desc data-uml-id="Order Service::OR">Order Service::OR</desc><rect class="uml-node uml-component" data-uml-kind="component" x="430" y="142" width="200" height="80" rx="4" ry="4" fill="#f0f4f8" stroke="#1e293b" stroke-width="1"/><rect x="426" y="154" width="16" height="8" fill="#f0f4f8" stroke="#1e293b" stroke-width="1"/><rect x="426" y="202" width="16" height="8" fill="#f0f4f8" stroke="#1e293b" stroke-width="1"/><text x="530" y="188" text-anchor="middle" font-family="monospace" font-size="13" font-weight="600" fill="#0f172a">OrderRepository</text><text x="530" y="156" text-anchor="middle" font-family="monospace" font-size="10" fill="#0f172a">«component»</text><desc data-uml-id="Order Service::IOrderService">Order Service::IOrderService</desc><circle class="uml-node uml-interface" data-uml-kind="interface" cx="1106" cy="182" r="18" fill="#e2e8f0" stroke="#1e293b" stroke-width="1.5"/><text x="1106" y="210" text-anchor="middle" font-family="monospace" font-size="13" font-weight="600" fill="#0f172a">IOrderService</text><text x="1106" y="224" text-anchor="middle" font-family="monospace" font-size="10" fill="#0f172a">«interface»</text><desc data-uml-id="Order Service::IOrderRepository">Order Service::IOrderRepository</desc><circle class="uml-node uml-interface" data-uml-kind="interface" cx="818" cy="182" r="18" fill="#e2e8f0" stroke="#1e293b" stroke-width="1.5"/><text x="818" y="210" text-anchor="middle" font-family="monospace" font-size="13" font-weight="600" fill="#0f172a">IOrderRepository</text><text x="818" y="224" text-anchor="middle" font-family="monospace" font-size="10" fill="#0f172a">«interface»</text><desc data-uml-id="Order Service::OC -( IOrderService : provides">Order Service::OC -( IOrderService : provides</desc><rect class="uml-node uml-component" data-uml-kind="component" x="1582" y="142" width="200" height="80" rx="4" ry="4" fill="#f0f4f8" stroke="#1e293b" stroke-width="1"/><rect x="1578" y="154" width="16" height="8" fill="#f0f4f8" stroke="#1e293b" stroke-width="1"/><rect x="1578" y="202" width="16" height="8" fill="#f0f4f8" stroke="#1e293b" stroke-width="1"/><text x="1682" y="188" text-anchor="middle" font-family="monospace" font-size="13" font-weight="600" fill="#0f172a">Order Service::OC -( IOrderService : provides</text><text x="1682" y="156" text-anchor="middle" font-family="monospace" font-size="10" fill="#0f172a">«component»</text><desc data-uml-id="Order Service::OD -( IOrderRepository : requires">Order Service::OD -( IOrderRepository : requires</desc><rect class="uml-node uml-component" data-uml-kind="component" x="1870" y="142" width="200" height="80" rx="4" ry="4" fill="#f0f4f8" stroke="#1e293b" stroke-width="1"/><rect x="1866" y="154" width="16" height="8" fill="#f0f4f8" stroke="#1e293b" stroke-width="1"/><rect x="1866" y="202" width="16" height="8" fill="#f0f4f8" stroke="#1e293b" stroke-width="1"/><text x="1970" y="188" text-anchor="middle" font-family="monospace" font-size="13" font-weight="600" fill="#0f172a">Order Service::OD -( IOrderRepository : requires</text><text x="1970" y="156" text-anchor="middle" font-family="monospace" font-size="10" fill="#0f172a">«component»</text><desc data-uml-id="Notification Service::NS">Notification Service::NS</desc><rect class="uml-node uml-component" data-uml-kind="component" x="1438" y="430" width="200" height="80" rx="4" ry="4" fill="#f0f4f8" stroke="#1e293b" stroke-width="1"/><rect x="1434" y="442" width="16" height="8" fill="#f0f4f8" stroke="#1e293b" stroke-width="1"/><rect x="1434" y="490" width="16" height="8" fill="#f0f4f8" stroke="#1e293b" stroke-width="1"/><text x="1538" y="476" text-anchor="middle" font-family="monospace" font-size="13" font-weight="600" fill="#0f172a">NotificationSender</text><text x="1538" y="444" text-anchor="middle" font-family="monospace" font-size="10" fill="#0f172a">«component»</text><desc data-uml-id="Notification Service::INotifier">Notification Service::INotifier</desc><circle class="uml-node uml-interface" data-uml-kind="interface" cx="674" cy="470" r="18" fill="#e2e8f0" stroke="#1e293b" stroke-width="1.5"/><text x="674" y="498" text-anchor="middle" font-family="monospace" font-size="13" font-weight="600" fill="#0f172a">INotifier</text><text x="674" y="512" text-anchor="middle" font-family="monospace" font-size="10" fill="#0f172a">«interface»</text><desc data-uml-id="Database&quot; &lt;&lt;database&gt;&gt;::PG">Database&quot; &lt;&lt;database&gt;&gt;::PG</desc><rect class="uml-node uml-component" data-uml-kind="component" x="1726" y="430" width="200" height="80" rx="4" ry="4" fill="#f0f4f8" stroke="#1e293b" stroke-width="1"/><rect x="1722" y="442" width="16" height="8" fill="#f0f4f8" stroke="#1e293b" stroke-width="1"/><rect x="1722" y="490" width="16" height="8" fill="#f0f4f8" stroke="#1e293b" stroke-width="1"/><text x="1826" y="476" text-anchor="middle" font-family="monospace" font-size="13" font-weight="600" fill="#0f172a">PostgreSQL</text><text x="1826" y="444" text-anchor="middle" font-family="monospace" font-size="10" fill="#0f172a">«component»</text><desc data-uml-id="Message Bus&quot; &lt;&lt;queue&gt;&gt;::MQ">Message Bus&quot; &lt;&lt;queue&gt;&gt;::MQ</desc><rect class="uml-node uml-component" data-uml-kind="component" x="2014" y="430" width="200" height="80" rx="4" ry="4" fill="#f0f4f8" stroke="#1e293b" stroke-width="1"/><rect x="2010" y="442" width="16" height="8" fill="#f0f4f8" stroke="#1e293b" stroke-width="1"/><rect x="2010" y="490" width="16" height="8" fill="#f0f4f8" stroke="#1e293b" stroke-width="1"/><text x="2114" y="476" text-anchor="middle" font-family="monospace" font-size="13" font-weight="600" fill="#0f172a">RabbitMQ</text><text x="2114" y="444" text-anchor="middle" font-family="monospace" font-size="10" fill="#0f172a">«component»</text><polyline class="uml-relation" data-uml-from="Order Service::OD" data-uml-to="Order Service::IOrderService" data-uml-arrow="--" points="342,182 342,66 1088,66 1088,182" fill="none" stroke="#1e293b" stroke-width="2" /><line class="uml-relation" data-uml-from="Order Service::OR" data-uml-to="Order Service::IOrderRepository" data-uml-arrow="--" x1="630" y1="182" x2="800" y2="182" stroke="#1e293b" stroke-width="2" /><line class="uml-relation" data-uml-from="Notification Service::NS" data-uml-to="Notification Service::INotifier" data-uml-arrow="--" x1="1438" y1="470" x2="692" y2="470" stroke="#1e293b" stroke-width="2" /><polyline class="uml-relation" data-uml-from="OD" data-uml-to="INotifier" data-uml-arrow="--&gt;" points="342,182 342,418 656,418 656,470" fill="none" stroke="#1e293b" stroke-width="2" marker-end="url(#arrow-open)" /><polyline class="uml-relation" data-uml-from="OR" data-uml-to="PG" data-uml-arrow="--&gt;" points="630,182 630,418 1726,418 1726,470" fill="none" stroke="#1e293b" stroke-width="2" marker-end="url(#arrow-open)" /><polyline class="uml-relation" data-uml-from="OD" data-uml-to="MQ" data-uml-arrow="--&gt;" points="342,182 342,418 2014,418 2014,470" fill="none" stroke="#1e293b" stroke-width="2" marker-end="url(#arrow-open)" /><text x="715" y="54" text-anchor="middle" font-family="monospace" font-size="11" fill="#1e293b">realizes</text><text x="715" y="170" text-anchor="middle" font-family="monospace" font-size="11" fill="#1e293b">realizes</text><text x="1065" y="458" text-anchor="middle" font-family="monospace" font-size="11" fill="#1e293b">provides</text><text x="866" y="406" text-anchor="middle" font-family="monospace" font-size="11" fill="#1e293b">uses</text><text x="951" y="406" text-anchor="middle" font-family="monospace" font-size="11" fill="#1e293b">SQL</text><text x="1036" y="406" text-anchor="middle" font-family="monospace" font-size="11" fill="#1e293b">publish events</text></svg>