<svg xmlns="http://www.w3.org/2000/svg" width="1154" height="478" viewBox="0 0 1154 478"><rect width="100%" height="100%" fill="#f0f4f8"/><defs><marker id="arrow-open" viewBox="0 0 10 10" refX="9" refY="5" markerWidth="10" markerHeight="10" markerUnits="userSpaceOnUse" orient="auto-start-reverse"><path d="M0,0 L10,5 L0,10" fill="none" stroke="#1e293b" stroke-width="1.5"/></marker><marker id="arrow-triangle" viewBox="0 0 12 12" refX="11" refY="6" markerWidth="12" markerHeight="12" markerUnits="userSpaceOnUse" orient="auto-start-reverse"><polygon points="0,0 12,6 0,12" fill="#ffffff" stroke="#1e293b" stroke-width="1.5" fill-rule="nonzero"/></marker><marker id="arrow-diamond-filled" viewBox="0 0 14 10" refX="13" refY="5" markerWidth="14" markerHeight="10" markerUnits="userSpaceOnUse" orient="auto-start-reverse"><path d="M0,5 L7,0 L14,5 L7,10 z" fill="#1e293b" stroke="#1e293b" stroke-width="1"/></marker><marker id="arrow-diamond-open" viewBox="0 0 14 10" refX="13" refY="5" markerWidth="14" markerHeight="10" markerUnits="userSpaceOnUse" orient="auto-start-reverse"><path d="M0,5 L7,0 L14,5 L7,10 z" fill="#ffffff" stroke="#1e293b" stroke-width="1"/></marker><marker id="arrow-double-open" viewBox="0 0 16 12" refX="15" refY="6" markerWidth="16" markerHeight="12" markerUnits="userSpaceOnUse" orient="auto-start-reverse"><path d="M0,1 L8,6 L0,11 M7,1 L15,6 L7,11" fill="none" stroke="#1e293b" stroke-width="1.5" stroke-linejoin="round"/></marker><marker id="arrow-circle-open" viewBox="0 0 12 12" refX="11" refY="6" markerWidth="12" markerHeight="12" markerUnits="userSpaceOnUse" orient="auto-start-reverse"><circle cx="6" cy="6" r="4" fill="#ffffff" stroke="#1e293b" stroke-width="1.5"/></marker><marker id="arrow-circle-filled" viewBox="0 0 12 12" refX="11" refY="6" markerWidth="12" markerHeight="12" markerUnits="userSpaceOnUse" orient="auto-start-reverse"><circle cx="6" cy="6" r="4" fill="#1e293b" stroke="#1e293b" stroke-width="1.5"/></marker><marker id="arrow-triangle-filled" viewBox="0 0 12 12" refX="11" refY="6" markerWidth="12" markerHeight="12" markerUnits="userSpaceOnUse" orient="auto-start-reverse"><polygon points="0,0 12,6 0,12" fill="#1e293b" stroke="#1e293b" stroke-width="1.5"/></marker><marker id="arrow-box-filled" viewBox="0 0 12 12" refX="11" refY="6" markerWidth="12" markerHeight="12" markerUnits="userSpaceOnUse" orient="auto-start-reverse"><rect x="2" y="2" width="8" height="8" fill="#1e293b" stroke="#1e293b" stroke-width="1.5"/></marker><marker id="arrow-plus" viewBox="0 0 12 12" refX="11" refY="6" markerWidth="12" markerHeight="12" markerUnits="userSpaceOnUse" orient="auto-start-reverse"><path d="M6,1 L6,11 M1,6 L11,6" fill="none" stroke="#1e293b" stroke-width="1.8" stroke-linecap="round"/></marker><marker id="arrow-slash" viewBox="0 0 12 12" refX="10" refY="6" markerWidth="12" markerHeight="12" markerUnits="userSpaceOnUse" orient="auto-start-reverse"><path d="M3,2 L9,10" fill="none" stroke="#1e293b" stroke-width="1.8" stroke-linecap="round"/></marker><marker id="arrow-cross" viewBox="0 0 12 12" refX="11" refY="6" markerWidth="12" markerHeight="12" markerUnits="userSpaceOnUse" orient="auto-start-reverse"><path d="M2,2 L10,10 M10,2 L2,10" fill="none" stroke="#1e293b" stroke-width="1.8" stroke-linecap="round"/></marker><marker id="arrow-bracket-open" viewBox="0 0 12 14" refX="11" refY="7" markerWidth="12" markerHeight="14" markerUnits="userSpaceOnUse" orient="auto-start-reverse"><path d="M10,1 L4,1 L4,13 L10,13" fill="none" stroke="#1e293b" stroke-width="1.8" stroke-linecap="round" stroke-linejoin="round"/></marker></defs><marker id="arrow-ie-one" viewBox="0 0 24 16" refX="22" refY="8" markerWidth="24" markerHeight="16" markerUnits="userSpaceOnUse" orient="auto-start-reverse"><path d="M16,2 L16,14" fill="none" stroke="#1e293b" stroke-width="1.8" stroke-linecap="round"/></marker><marker id="arrow-ie-zero-one" viewBox="0 0 30 16" refX="28" refY="8" markerWidth="30" markerHeight="16" markerUnits="userSpaceOnUse" orient="auto-start-reverse"><circle cx="10" cy="8" r="4" fill="#ffffff" stroke="#1e293b" stroke-width="1.5"/><path d="M20,2 L20,14" fill="none" stroke="#1e293b" stroke-width="1.8" stroke-linecap="round"/></marker><marker id="arrow-ie-zero-many" viewBox="0 0 34 18" refX="32" refY="9" markerWidth="34" markerHeight="18" markerUnits="userSpaceOnUse" orient="auto-start-reverse"><circle cx="8" cy="9" r="4" fill="#ffffff" stroke="#1e293b" stroke-width="1.5"/><path d="M18,9 L31,2 M18,9 L31,9 M18,9 L31,16" fill="none" stroke="#1e293b" stroke-width="1.7" stroke-linecap="round"/></marker><marker id="arrow-ie-one-many" viewBox="0 0 34 18" refX="32" refY="9" markerWidth="34" markerHeight="18" markerUnits="userSpaceOnUse" orient="auto-start-reverse"><path d="M8,2 L8,16 M18,9 L31,2 M18,9 L31,9 M18,9 L31,16" fill="none" stroke="#1e293b" stroke-width="1.7" stroke-linecap="round"/></marker><text x="8" y="8" font-family="monospace" font-size="18" font-weight="600">Ports, lollipop interfaces, and required connectors</text><rect class="uml-group-frame" data-uml-group="Order Service" x="86" y="46" width="771" height="266" rx="8" ry="8" fill="#f8faff" stroke="#1e293b" stroke-width="1.5"/><rect x="86" y="46" width="771" height="40" rx="8" ry="8" fill="#1e293b" stroke="none"/><rect x="86" y="78" width="771" height="8" fill="#1e293b" stroke="none"/><text x="94" y="78" font-family="monospace" font-size="11" font-weight="600" fill="#ffffff">Order Service</text><line x1="86" y1="86" x2="857" y2="86" stroke="#1e293b" stroke-width="1"/><rect class="uml-group-frame" data-uml-group="Notification Service" x="897" y="46" width="249" height="266" rx="8" ry="8" fill="#f8faff" stroke="#1e293b" stroke-width="1.5"/><rect x="897" y="46" width="249" height="40" rx="8" ry="8" fill="#1e293b" stroke="none"/><rect x="897" y="78" width="249" height="8" fill="#1e293b" stroke="none"/><text x="905" y="78" font-family="monospace" font-size="11" font-weight="600" fill="#ffffff">Notification Service</text><line x1="897" y1="86" x2="1146" y2="86" stroke="#1e293b" stroke-width="1"/><rect class="uml-group-frame" data-uml-group="Database" x="783" y="352" width="154" height="114" rx="8" ry="8" fill="#f8faff" stroke="#1e293b" stroke-width="1.5"/><rect x="783" y="352" width="154" height="40" rx="8" ry="8" fill="#1e293b" stroke="none"/><rect x="783" y="384" width="154" height="8" fill="#1e293b" stroke="none"/><text x="791" y="384" font-family="monospace" font-size="11" font-weight="600" fill="#ffffff">Database</text><line x1="783" y1="392" x2="937" y2="392" stroke="#1e293b" stroke-width="1"/><rect class="uml-group-frame" data-uml-group="Message Bus" x="260" y="352" width="154" height="114" rx="8" ry="8" fill="#f8faff" stroke="#1e293b" stroke-width="1.5"/><rect x="260" y="352" width="154" height="40" rx="8" ry="8" fill="#1e293b" stroke="none"/><rect x="260" y="384" width="154" height="8" fill="#1e293b" stroke="none"/><text x="268" y="384" font-family="monospace" font-size="11" font-weight="600" fill="#ffffff">Message Bus</text><line x1="260" y1="392" x2="414" y2="392" stroke="#1e293b" stroke-width="1"/><desc data-uml-id="Order Service::OC">Order Service::OC</desc><rect class="uml-node uml-component" data-uml-kind="component" x="178" y="98" width="130" height="50" rx="4" ry="4" fill="#f0f4f8" stroke="#1e293b" stroke-width="1.5"/><rect x="174" y="110" width="16" height="8" fill="#f0f4f8" stroke="#1e293b" stroke-width="1"/><rect x="174" y="128" width="16" height="8" fill="#f0f4f8" stroke="#1e293b" stroke-width="1"/><text x="243" y="129" text-anchor="middle" font-family="monospace" font-size="13" font-weight="600" fill="#0f172a">OrderController</text><desc data-uml-id="Order Service::OD">Order Service::OD</desc><rect class="uml-node uml-component" data-uml-kind="component" x="352" y="98" width="130" height="50" rx="4" ry="4" fill="#f0f4f8" stroke="#1e293b" stroke-width="1.5"/><rect x="348" y="110" width="16" height="8" fill="#f0f4f8" stroke="#1e293b" stroke-width="1"/><rect x="348" y="128" width="16" height="8" fill="#f0f4f8" stroke="#1e293b" stroke-width="1"/><text x="417" y="129" text-anchor="middle" font-family="monospace" font-size="13" font-weight="600" fill="#0f172a">OrderDomain</text><desc data-uml-id="Order Service::OR">Order Service::OR</desc><rect class="uml-node uml-component" data-uml-kind="component" x="715" y="98" width="130" height="50" rx="4" ry="4" fill="#f0f4f8" stroke="#1e293b" stroke-width="1.5"/><rect x="711" y="110" width="16" height="8" fill="#f0f4f8" stroke="#1e293b" stroke-width="1"/><rect x="711" y="128" width="16" height="8" fill="#f0f4f8" stroke="#1e293b" stroke-width="1"/><text x="780" y="129" text-anchor="middle" font-family="monospace" font-size="13" font-weight="600" fill="#0f172a">OrderRepository</text><desc data-uml-id="Order Service::IOrderService">Order Service::IOrderService</desc><circle class="uml-node uml-interface" data-uml-kind="interface" cx="163" cy="275" r="18" fill="#e2e8f0" stroke="#1e293b" stroke-width="1.5"/><text x="163" y="303" text-anchor="middle" font-family="monospace" font-size="13" font-weight="600" fill="#0f172a">IOrderService</text><desc data-uml-id="Order Service::IOrderRepository">Order Service::IOrderRepository</desc><circle class="uml-node uml-interface" data-uml-kind="interface" cx="685" cy="275" r="18" fill="#e2e8f0" stroke="#1e293b" stroke-width="1.5"/><text x="685" y="303" text-anchor="middle" font-family="monospace" font-size="13" font-weight="600" fill="#0f172a">IOrderRepository</text><desc data-uml-id="Notification Service::NS">Notification Service::NS</desc><rect class="uml-node uml-component" data-uml-kind="component" x="989" y="98" width="145" height="50" rx="4" ry="4" fill="#f0f4f8" stroke="#1e293b" stroke-width="1.5"/><rect x="985" y="110" width="16" height="8" fill="#f0f4f8" stroke="#1e293b" stroke-width="1"/><rect x="985" y="128" width="16" height="8" fill="#f0f4f8" stroke="#1e293b" stroke-width="1"/><text x="1061" y="129" text-anchor="middle" font-family="monospace" font-size="13" font-weight="600" fill="#0f172a">NotificationSender</text><desc data-uml-id="Notification Service::INotifier">Notification Service::INotifier</desc><circle class="uml-node uml-interface" data-uml-kind="interface" cx="974" cy="275" r="18" fill="#e2e8f0" stroke="#1e293b" stroke-width="1.5"/><text x="974" y="303" text-anchor="middle" font-family="monospace" font-size="13" font-weight="600" fill="#0f172a">INotifier</text><desc data-uml-id="Database::PG">Database::PG</desc><rect class="uml-node uml-component" data-uml-kind="component" x="795" y="404" width="130" height="50" rx="4" ry="4" fill="#f0f4f8" stroke="#1e293b" stroke-width="1.5"/><rect x="791" y="416" width="16" height="8" fill="#f0f4f8" stroke="#1e293b" stroke-width="1"/><rect x="791" y="434" width="16" height="8" fill="#f0f4f8" stroke="#1e293b" stroke-width="1"/><text x="860" y="435" text-anchor="middle" font-family="monospace" font-size="13" font-weight="600" fill="#0f172a">PostgreSQL</text><desc data-uml-id="Message Bus::MQ">Message Bus::MQ</desc><rect class="uml-node uml-component" data-uml-kind="component" x="272" y="404" width="130" height="50" rx="4" ry="4" fill="#f0f4f8" stroke="#1e293b" stroke-width="1.5"/><rect x="268" y="416" width="16" height="8" fill="#f0f4f8" stroke="#1e293b" stroke-width="1"/><rect x="268" y="434" width="16" height="8" fill="#f0f4f8" stroke="#1e293b" stroke-width="1"/><text x="337" y="435" text-anchor="middle" font-family="monospace" font-size="13" font-weight="600" fill="#0f172a">RabbitMQ</text><polyline class="uml-relation" data-uml-from="Order Service::OC" data-uml-to="Order Service::IOrderService" data-uml-arrow="-(" points="243,148 243,157 163,157 163,257" fill="none" stroke="#1e293b" stroke-width="2" marker-end="url(#arrow-circle-open)" /><polyline class="uml-relation" data-uml-from="Order Service::OD" data-uml-to="Order Service::IOrderService" data-uml-arrow="--" points="417,148 417,169 163,169 163,257" fill="none" stroke="#1e293b" stroke-width="2" /><polyline class="uml-relation" data-uml-from="Order Service::OD" data-uml-to="Order Service::IOrderRepository" data-uml-arrow="-(" points="417,148 417,181 685,181 685,257" fill="none" stroke="#1e293b" stroke-width="2" marker-end="url(#arrow-circle-open)" /><polyline class="uml-relation" data-uml-from="Order Service::OR" data-uml-to="Order Service::IOrderRepository" data-uml-arrow="--" points="780,148 780,216 685,216 685,257" fill="none" stroke="#1e293b" stroke-width="2" /><polyline class="uml-relation" data-uml-from="Notification Service::NS" data-uml-to="Notification Service::INotifier" data-uml-arrow="--" points="1061,148 1061,240 974,240 974,257" fill="none" stroke="#1e293b" stroke-width="2" /><polyline class="uml-relation" data-uml-from="OD" data-uml-to="INotifier" data-uml-arrow="--&gt;" points="417,148 417,193 974,193 974,257" fill="none" stroke="#1e293b" stroke-width="2" marker-end="url(#arrow-open)" /><polyline class="uml-relation" data-uml-from="OR" data-uml-to="PG" data-uml-arrow="--&gt;" points="780,148 780,228 953,228 953,400 860,400 860,404" fill="none" stroke="#1e293b" stroke-width="2" marker-end="url(#arrow-open)" /><polyline class="uml-relation" data-uml-from="OD" data-uml-to="MQ" data-uml-arrow="--&gt;" points="417,148 417,204 873,204 873,400 337,400 337,404" fill="none" stroke="#1e293b" stroke-width="2" marker-end="url(#arrow-open)" /><text class="uml-edge-label" data-uml-label-role="edge" x="121" y="222" text-anchor="middle" font-family="monospace" font-size="11" fill="#1e293b">provides</text><text class="uml-edge-label" data-uml-label-role="edge" x="206" y="222" text-anchor="middle" font-family="monospace" font-size="11" fill="#1e293b">realizes</text><text class="uml-edge-label" data-uml-label-role="edge" x="643" y="222" text-anchor="middle" font-family="monospace" font-size="11" fill="#1e293b">requires</text><rect class="uml-edge-label-bg" data-uml-label-role="edge-background" x="698" y="209" width="60" height="18" fill="white" opacity="0.85"/><text class="uml-edge-label" data-uml-label-role="edge" x="728" y="222" text-anchor="middle" font-family="monospace" font-size="11" fill="#1e293b">realizes</text><rect class="uml-edge-label-bg" data-uml-label-role="edge-background" x="1043" y="181" width="60" height="18" fill="white" opacity="0.85"/><text class="uml-edge-label" data-uml-label-role="edge" x="1073" y="194" text-anchor="middle" font-family="monospace" font-size="11" fill="#1e293b">provides</text><rect class="uml-edge-label-bg" data-uml-label-role="edge-background" x="679" y="168" width="32" height="18" fill="white" opacity="0.85"/><text class="uml-edge-label" data-uml-label-role="edge" x="695" y="181" text-anchor="middle" font-family="monospace" font-size="11" fill="#1e293b">uses</text><rect class="uml-edge-label-bg" data-uml-label-role="edge-background" x="854" y="203" width="24" height="18" fill="white" opacity="0.85"/><text class="uml-edge-label" data-uml-label-role="edge" x="866" y="216" text-anchor="middle" font-family="monospace" font-size="11" fill="#1e293b">SQL</text><text class="uml-edge-label" data-uml-label-role="edge" x="605" y="388" text-anchor="middle" font-family="monospace" font-size="11" fill="#1e293b">publish events</text><text x="94" y="78" font-family="monospace" font-size="11" font-weight="600" fill="#ffffff">Order Service</text><text x="905" y="78" font-family="monospace" font-size="11" font-weight="600" fill="#ffffff">Notification Service</text><text x="791" y="384" font-family="monospace" font-size="11" font-weight="600" fill="#ffffff">Database</text><text x="268" y="384" font-family="monospace" font-size="11" font-weight="600" fill="#ffffff">Message Bus</text></svg>