<svg xmlns="http://www.w3.org/2000/svg" width="1536" height="1768" viewBox="0 0 1536 1768"><rect width="100%" height="100%" fill="#f0f4f8"/><defs><marker id="arrow-open" viewBox="0 0 10 10" refX="9" refY="5" markerWidth="10" markerHeight="10" markerUnits="userSpaceOnUse" orient="auto-start-reverse"><path d="M0,0 L10,5 L0,10" fill="none" stroke="#1e293b" stroke-width="1.5"/></marker><marker id="arrow-triangle" viewBox="0 0 12 12" refX="11" refY="6" markerWidth="12" markerHeight="12" markerUnits="userSpaceOnUse" orient="auto-start-reverse"><polygon points="0,0 12,6 0,12" fill="#ffffff" stroke="#1e293b" stroke-width="1.5" fill-rule="nonzero"/></marker><marker id="arrow-diamond-filled" viewBox="0 0 14 10" refX="13" refY="5" markerWidth="14" markerHeight="10" markerUnits="userSpaceOnUse" orient="auto-start-reverse"><path d="M0,5 L7,0 L14,5 L7,10 z" fill="#1e293b" stroke="#1e293b" stroke-width="1"/></marker><marker id="arrow-diamond-open" viewBox="0 0 14 10" refX="13" refY="5" markerWidth="14" markerHeight="10" markerUnits="userSpaceOnUse" orient="auto-start-reverse"><path d="M0,5 L7,0 L14,5 L7,10 z" fill="#ffffff" stroke="#1e293b" stroke-width="1"/></marker><marker id="arrow-double-open" viewBox="0 0 16 12" refX="15" refY="6" markerWidth="16" markerHeight="12" markerUnits="userSpaceOnUse" orient="auto-start-reverse"><path d="M0,1 L8,6 L0,11 M7,1 L15,6 L7,11" fill="none" stroke="#1e293b" stroke-width="1.5" stroke-linejoin="round"/></marker><marker id="arrow-circle-open" viewBox="0 0 12 12" refX="11" refY="6" markerWidth="12" markerHeight="12" markerUnits="userSpaceOnUse" orient="auto-start-reverse"><circle cx="6" cy="6" r="4" fill="#ffffff" stroke="#1e293b" stroke-width="1.5"/></marker><marker id="arrow-circle-filled" viewBox="0 0 12 12" refX="11" refY="6" markerWidth="12" markerHeight="12" markerUnits="userSpaceOnUse" orient="auto-start-reverse"><circle cx="6" cy="6" r="4" fill="#1e293b" stroke="#1e293b" stroke-width="1.5"/></marker><marker id="arrow-triangle-filled" viewBox="0 0 12 12" refX="11" refY="6" markerWidth="12" markerHeight="12" markerUnits="userSpaceOnUse" orient="auto-start-reverse"><polygon points="0,0 12,6 0,12" fill="#1e293b" stroke="#1e293b" stroke-width="1.5"/></marker><marker id="arrow-box-filled" viewBox="0 0 12 12" refX="11" refY="6" markerWidth="12" markerHeight="12" markerUnits="userSpaceOnUse" orient="auto-start-reverse"><rect x="2" y="2" width="8" height="8" fill="#1e293b" stroke="#1e293b" stroke-width="1.5"/></marker><marker id="arrow-plus" viewBox="0 0 12 12" refX="11" refY="6" markerWidth="12" markerHeight="12" markerUnits="userSpaceOnUse" orient="auto-start-reverse"><path d="M6,1 L6,11 M1,6 L11,6" fill="none" stroke="#1e293b" stroke-width="1.8" stroke-linecap="round"/></marker><marker id="arrow-slash" viewBox="0 0 12 12" refX="10" refY="6" markerWidth="12" markerHeight="12" markerUnits="userSpaceOnUse" orient="auto-start-reverse"><path d="M3,2 L9,10" fill="none" stroke="#1e293b" stroke-width="1.8" stroke-linecap="round"/></marker><marker id="arrow-cross" viewBox="0 0 12 12" refX="11" refY="6" markerWidth="12" markerHeight="12" markerUnits="userSpaceOnUse" orient="auto-start-reverse"><path d="M2,2 L10,10 M10,2 L2,10" fill="none" stroke="#1e293b" stroke-width="1.8" stroke-linecap="round"/></marker><marker id="arrow-bracket-open" viewBox="0 0 12 14" refX="11" refY="7" markerWidth="12" markerHeight="14" markerUnits="userSpaceOnUse" orient="auto-start-reverse"><path d="M10,1 L4,1 L4,13 L10,13" fill="none" stroke="#1e293b" stroke-width="1.8" stroke-linecap="round" stroke-linejoin="round"/></marker></defs><marker id="arrow-ie-one" viewBox="0 0 24 16" refX="22" refY="8" markerWidth="24" markerHeight="16" markerUnits="userSpaceOnUse" orient="auto-start-reverse"><path d="M16,2 L16,14" fill="none" stroke="#1e293b" stroke-width="1.8" stroke-linecap="round"/></marker><marker id="arrow-ie-zero-one" viewBox="0 0 30 16" refX="28" refY="8" markerWidth="30" markerHeight="16" markerUnits="userSpaceOnUse" orient="auto-start-reverse"><circle cx="10" cy="8" r="4" fill="#ffffff" stroke="#1e293b" stroke-width="1.5"/><path d="M20,2 L20,14" fill="none" stroke="#1e293b" stroke-width="1.8" stroke-linecap="round"/></marker><marker id="arrow-ie-zero-many" viewBox="0 0 34 18" refX="32" refY="9" markerWidth="34" markerHeight="18" markerUnits="userSpaceOnUse" orient="auto-start-reverse"><circle cx="8" cy="9" r="4" fill="#ffffff" stroke="#1e293b" stroke-width="1.5"/><path d="M18,9 L31,2 M18,9 L31,9 M18,9 L31,16" fill="none" stroke="#1e293b" stroke-width="1.7" stroke-linecap="round"/></marker><marker id="arrow-ie-one-many" viewBox="0 0 34 18" refX="32" refY="9" markerWidth="34" markerHeight="18" markerUnits="userSpaceOnUse" orient="auto-start-reverse"><path d="M8,2 L8,16 M18,9 L31,2 M18,9 L31,9 M18,9 L31,16" fill="none" stroke="#1e293b" stroke-width="1.7" stroke-linecap="round"/></marker><rect class="uml-group-frame" data-uml-group="CDN Layer" x="512" y="40" width="248" height="168" rx="8" ry="8" fill="#f8faff" stroke="#1e293b" stroke-width="1.5"/><rect x="512" y="40" width="248" height="40" rx="8" ry="8" fill="#1e293b" stroke="none"/><rect x="512" y="72" width="248" height="8" fill="#1e293b" stroke="none"/><text x="520" y="72" font-family="monospace" font-size="11" font-weight="600" fill="#ffffff">package CDN Layer</text><line x1="512" y1="80" x2="760" y2="80" stroke="#1e293b" stroke-width="1"/><rect class="uml-group-frame" data-uml-group="API Cluster" x="368" y="328" width="536" height="456" rx="8" ry="8" fill="#f8faff" stroke="#1e293b" stroke-width="1.5"/><rect x="368" y="328" width="536" height="40" rx="8" ry="8" fill="#1e293b" stroke="none"/><rect x="368" y="360" width="536" height="8" fill="#1e293b" stroke="none"/><text x="376" y="360" font-family="monospace" font-size="11" font-weight="600" fill="#ffffff">package API Cluster</text><line x1="368" y1="368" x2="904" y2="368" stroke="#1e293b" stroke-width="1"/><rect class="uml-group-frame" data-uml-group="Storage Layer" x="80" y="904" width="1112" height="168" rx="8" ry="8" fill="#f8faff" stroke="#1e293b" stroke-width="1.5"/><rect x="80" y="904" width="1112" height="40" rx="8" ry="8" fill="#1e293b" stroke="none"/><rect x="80" y="936" width="1112" height="8" fill="#1e293b" stroke="none"/><text x="88" y="936" font-family="monospace" font-size="11" font-weight="600" fill="#ffffff">package Storage Layer</text><line x1="80" y1="944" x2="1192" y2="944" stroke="#1e293b" stroke-width="1"/><rect class="uml-group-frame" data-uml-group="Event Bus" x="1232" y="904" width="248" height="168" rx="8" ry="8" fill="#f8faff" stroke="#1e293b" stroke-width="1.5"/><rect x="1232" y="904" width="248" height="40" rx="8" ry="8" fill="#1e293b" stroke="none"/><rect x="1232" y="936" width="248" height="8" fill="#1e293b" stroke="none"/><text x="1240" y="936" font-family="monospace" font-size="11" font-weight="600" fill="#ffffff">package Event Bus</text><line x1="1232" y1="944" x2="1480" y2="944" stroke="#1e293b" stroke-width="1"/><rect class="uml-group-frame" data-uml-group="Analytics Platform" x="512" y="1192" width="248" height="456" rx="8" ry="8" fill="#f8faff" stroke="#1e293b" stroke-width="1.5"/><rect x="512" y="1192" width="248" height="40" rx="8" ry="8" fill="#1e293b" stroke="none"/><rect x="512" y="1224" width="248" height="8" fill="#1e293b" stroke="none"/><text x="520" y="1224" font-family="monospace" font-size="11" font-weight="600" fill="#ffffff">package Analytics Platform</text><line x1="512" y1="1232" x2="760" y2="1232" stroke="#1e293b" stroke-width="1"/><desc data-uml-id="CDN Layer::EC">CDN Layer::EC</desc><rect class="uml-node uml-component" data-uml-kind="component" x="536" y="104" width="200" height="80" rx="4" ry="4" fill="#f0f4f8" stroke="#1e293b" stroke-width="1.5"/><rect x="532" y="116" width="16" height="8" fill="#f0f4f8" stroke="#1e293b" stroke-width="1"/><rect x="532" y="164" width="16" height="8" fill="#f0f4f8" stroke="#1e293b" stroke-width="1"/><text x="636" y="150" text-anchor="middle" font-family="monospace" font-size="13" font-weight="600" fill="#0f172a">Edge Cache</text><text x="636" y="118" text-anchor="middle" font-family="monospace" font-size="10" fill="#0f172a">«component»</text><desc data-uml-id="API Cluster::LB">API Cluster::LB</desc><rect class="uml-node uml-component" data-uml-kind="component" x="536" y="392" width="200" height="80" rx="4" ry="4" fill="#f0f4f8" stroke="#1e293b" stroke-width="1.5"/><rect x="532" y="404" width="16" height="8" fill="#f0f4f8" stroke="#1e293b" stroke-width="1"/><rect x="532" y="452" width="16" height="8" fill="#f0f4f8" stroke="#1e293b" stroke-width="1"/><text x="636" y="438" text-anchor="middle" font-family="monospace" font-size="13" font-weight="600" fill="#0f172a">Load Balancer</text><text x="636" y="406" text-anchor="middle" font-family="monospace" font-size="10" fill="#0f172a">«component»</text><desc data-uml-id="API Cluster::SA">API Cluster::SA</desc><rect class="uml-node uml-component" data-uml-kind="component" x="392" y="680" width="200" height="80" rx="4" ry="4" fill="#f0f4f8" stroke="#1e293b" stroke-width="1.5"/><rect x="388" y="692" width="16" height="8" fill="#f0f4f8" stroke="#1e293b" stroke-width="1"/><rect x="388" y="740" width="16" height="8" fill="#f0f4f8" stroke="#1e293b" stroke-width="1"/><text x="492" y="726" text-anchor="middle" font-family="monospace" font-size="13" font-weight="600" fill="#0f172a">Service A</text><text x="492" y="694" text-anchor="middle" font-family="monospace" font-size="10" fill="#0f172a">«component»</text><desc data-uml-id="API Cluster::SB">API Cluster::SB</desc><rect class="uml-node uml-component" data-uml-kind="component" x="680" y="680" width="200" height="80" rx="4" ry="4" fill="#f0f4f8" stroke="#1e293b" stroke-width="1.5"/><rect x="676" y="692" width="16" height="8" fill="#f0f4f8" stroke="#1e293b" stroke-width="1"/><rect x="676" y="740" width="16" height="8" fill="#f0f4f8" stroke="#1e293b" stroke-width="1"/><text x="780" y="726" text-anchor="middle" font-family="monospace" font-size="13" font-weight="600" fill="#0f172a">Service B</text><text x="780" y="694" text-anchor="middle" font-family="monospace" font-size="10" fill="#0f172a">«component»</text><desc data-uml-id="Storage Layer::DB1">Storage Layer::DB1</desc><rect class="uml-node uml-component" data-uml-kind="component" x="104" y="968" width="200" height="80" rx="4" ry="4" fill="#f0f4f8" stroke="#1e293b" stroke-width="1.5"/><rect x="100" y="980" width="16" height="8" fill="#f0f4f8" stroke="#1e293b" stroke-width="1"/><rect x="100" y="1028" width="16" height="8" fill="#f0f4f8" stroke="#1e293b" stroke-width="1"/><text x="204" y="1014" text-anchor="middle" font-family="monospace" font-size="13" font-weight="600" fill="#0f172a">Primary DB</text><text x="204" y="982" text-anchor="middle" font-family="monospace" font-size="10" fill="#0f172a">«component»</text><desc data-uml-id="Storage Layer::DB2">Storage Layer::DB2</desc><rect class="uml-node uml-component" data-uml-kind="component" x="392" y="968" width="200" height="80" rx="4" ry="4" fill="#f0f4f8" stroke="#1e293b" stroke-width="1.5"/><rect x="388" y="980" width="16" height="8" fill="#f0f4f8" stroke="#1e293b" stroke-width="1"/><rect x="388" y="1028" width="16" height="8" fill="#f0f4f8" stroke="#1e293b" stroke-width="1"/><text x="492" y="1014" text-anchor="middle" font-family="monospace" font-size="13" font-weight="600" fill="#0f172a">Read Replica</text><text x="492" y="982" text-anchor="middle" font-family="monospace" font-size="10" fill="#0f172a">«component»</text><desc data-uml-id="Storage Layer::S3">Storage Layer::S3</desc><rect class="uml-node uml-component" data-uml-kind="component" x="968" y="968" width="200" height="80" rx="4" ry="4" fill="#f0f4f8" stroke="#1e293b" stroke-width="1.5"/><rect x="964" y="980" width="16" height="8" fill="#f0f4f8" stroke="#1e293b" stroke-width="1"/><rect x="964" y="1028" width="16" height="8" fill="#f0f4f8" stroke="#1e293b" stroke-width="1"/><text x="1068" y="1014" text-anchor="middle" font-family="monospace" font-size="13" font-weight="600" fill="#0f172a">Object Store</text><text x="1068" y="982" text-anchor="middle" font-family="monospace" font-size="10" fill="#0f172a">«component»</text><desc data-uml-id="Event Bus::KF">Event Bus::KF</desc><rect class="uml-node uml-component" data-uml-kind="component" x="1256" y="968" width="200" height="80" rx="4" ry="4" fill="#f0f4f8" stroke="#1e293b" stroke-width="1.5"/><rect x="1252" y="980" width="16" height="8" fill="#f0f4f8" stroke="#1e293b" stroke-width="1"/><rect x="1252" y="1028" width="16" height="8" fill="#f0f4f8" stroke="#1e293b" stroke-width="1"/><text x="1356" y="1014" text-anchor="middle" font-family="monospace" font-size="13" font-weight="600" fill="#0f172a">Kafka</text><text x="1356" y="982" text-anchor="middle" font-family="monospace" font-size="10" fill="#0f172a">«component»</text><desc data-uml-id="Analytics Platform::SP">Analytics Platform::SP</desc><rect class="uml-node uml-component" data-uml-kind="component" x="536" y="1256" width="200" height="80" rx="4" ry="4" fill="#f0f4f8" stroke="#1e293b" stroke-width="1.5"/><rect x="532" y="1268" width="16" height="8" fill="#f0f4f8" stroke="#1e293b" stroke-width="1"/><rect x="532" y="1316" width="16" height="8" fill="#f0f4f8" stroke="#1e293b" stroke-width="1"/><text x="636" y="1302" text-anchor="middle" font-family="monospace" font-size="13" font-weight="600" fill="#0f172a">Stream Processor</text><text x="636" y="1270" text-anchor="middle" font-family="monospace" font-size="10" fill="#0f172a">«component»</text><desc data-uml-id="Analytics Platform::DW">Analytics Platform::DW</desc><rect class="uml-node uml-component" data-uml-kind="component" x="536" y="1544" width="200" height="80" rx="4" ry="4" fill="#f0f4f8" stroke="#1e293b" stroke-width="1.5"/><rect x="532" y="1556" width="16" height="8" fill="#f0f4f8" stroke="#1e293b" stroke-width="1"/><rect x="532" y="1604" width="16" height="8" fill="#f0f4f8" stroke="#1e293b" stroke-width="1"/><text x="636" y="1590" text-anchor="middle" font-family="monospace" font-size="13" font-weight="600" fill="#0f172a">Data Warehouse</text><text x="636" y="1558" text-anchor="middle" font-family="monospace" font-size="10" fill="#0f172a">«component»</text><path class="uml-relation" data-uml-from="EC" data-uml-to="LB" data-uml-arrow="--&gt;" d="M 636,184 C 636.0,218.7 636.0,253.3 636.0,288.0 C 636.0,322.7 636.0,357.3 636.0,392.0" fill="none" stroke="#1e293b" stroke-width="2" marker-end="url(#arrow-open)" /><path class="uml-relation" data-uml-from="LB" data-uml-to="SA" data-uml-arrow="--&gt;" d="M 636,472 C 636.0,505.3 660.0,555.3 636.0,572.0 C 612.0,588.7 516.0,554.0 492.0,572.0 C 468.0,590.0 492.0,644.0 492.0,680.0" fill="none" stroke="#1e293b" stroke-width="2" marker-end="url(#arrow-open)" /><path class="uml-relation" data-uml-from="LB" data-uml-to="SB" data-uml-arrow="--&gt;" d="M 636,472 C 636.0,508.0 612.0,562.0 636.0,580.0 C 660.0,598.0 756.0,563.3 780.0,580.0 C 804.0,596.7 780.0,646.7 780.0,680.0" fill="none" stroke="#1e293b" stroke-width="2" marker-end="url(#arrow-open)" /><path class="uml-relation" data-uml-from="SA" data-uml-to="DB1" data-uml-arrow="--&gt;" d="M 492,760 C 492.0,825.3 540.0,923.3 492.0,956.0 C 444.0,988.7 252.0,954.0 204.0,956.0 C 156.0,958.0 204.0,964.0 204.0,968.0" fill="none" stroke="#1e293b" stroke-width="2" marker-end="url(#arrow-open)" /><path class="uml-relation" data-uml-from="SA" data-uml-to="DB2" data-uml-arrow="--&gt;" d="M 492,760 C 492.0,794.7 492.0,829.3 492.0,864.0 C 492.0,898.7 492.0,933.3 492.0,968.0" fill="none" stroke="#1e293b" stroke-width="2" marker-end="url(#arrow-open)" /><path class="uml-relation" data-uml-from="SB" data-uml-to="S3" data-uml-arrow="--&gt;" d="M 780,760 C 780.0,825.3 732.0,923.3 780.0,956.0 C 828.0,988.7 1020.0,954.0 1068.0,956.0 C 1116.0,958.0 1068.0,964.0 1068.0,968.0" fill="none" stroke="#1e293b" stroke-width="2" marker-end="url(#arrow-open)" /><path class="uml-relation" data-uml-from="SA" data-uml-to="KF" data-uml-arrow="--&gt;" d="M 592,720 C 592.0,798.7 481.3,916.7 592.0,956.0 C 702.7,995.3 1145.3,947.3 1256.0,956.0 C 1366.7,964.7 1256.0,990.7 1256.0,1008.0" fill="none" stroke="#1e293b" stroke-width="2" marker-end="url(#arrow-open)" /><path class="uml-relation" data-uml-from="SB" data-uml-to="KF" data-uml-arrow="--&gt;" d="M 880,720 C 880.0,798.7 817.3,916.7 880.0,956.0 C 942.7,995.3 1193.3,947.3 1256.0,956.0 C 1318.7,964.7 1256.0,990.7 1256.0,1008.0" fill="none" stroke="#1e293b" stroke-width="2" marker-end="url(#arrow-open)" /><path class="uml-relation" data-uml-from="KF" data-uml-to="SP" data-uml-arrow="--&gt;" d="M 1256,1008 C 1256.0,1086.7 1342.7,1204.7 1256.0,1244.0 C 1169.3,1283.3 822.7,1235.3 736.0,1244.0 C 649.3,1252.7 736.0,1278.7 736.0,1296.0" fill="none" stroke="#1e293b" stroke-width="2" marker-end="url(#arrow-open)" /><path class="uml-relation" data-uml-from="SP" data-uml-to="DW" data-uml-arrow="--&gt;" d="M 636,1336 C 636.0,1370.7 636.0,1405.3 636.0,1440.0 C 636.0,1474.7 636.0,1509.3 636.0,1544.0" fill="none" stroke="#1e293b" stroke-width="2" marker-end="url(#arrow-open)" /><text class="uml-edge-label" data-uml-label-role="edge" x="636" y="276" text-anchor="middle" font-family="monospace" font-size="11" fill="#1e293b">origin pull</text><text class="uml-edge-label" data-uml-label-role="edge" x="564" y="560" text-anchor="middle" font-family="monospace" font-size="11" fill="#1e293b">route /v1</text><text class="uml-edge-label" data-uml-label-role="edge" x="708" y="568" text-anchor="middle" font-family="monospace" font-size="11" fill="#1e293b">route /v2</text><text class="uml-edge-label" data-uml-label-role="edge" x="348" y="944" text-anchor="middle" font-family="monospace" font-size="11" fill="#1e293b">read/write</text><text class="uml-edge-label" data-uml-label-role="edge" x="492" y="852" text-anchor="middle" font-family="monospace" font-size="11" fill="#1e293b">read-only</text><text class="uml-edge-label" data-uml-label-role="edge" x="924" y="944" text-anchor="middle" font-family="monospace" font-size="11" fill="#1e293b">upload</text><text class="uml-edge-label" data-uml-label-role="edge" x="1314" y="940" text-anchor="middle" font-family="monospace" font-size="11" fill="#1e293b">publish events</text><text class="uml-edge-label" data-uml-label-role="edge" x="1399" y="940" text-anchor="middle" font-family="monospace" font-size="11" fill="#1e293b">publish events</text><text class="uml-edge-label" data-uml-label-role="edge" x="996" y="1232" text-anchor="middle" font-family="monospace" font-size="11" fill="#1e293b">consume</text><text class="uml-edge-label" data-uml-label-role="edge" x="636" y="1428" text-anchor="middle" font-family="monospace" font-size="11" fill="#1e293b">aggregate</text></svg>