<svg xmlns="http://www.w3.org/2000/svg" width="1361" height="1278" viewBox="0 0 1361 1278"><rect width="100%" height="100%" fill="#f0f4f8"/><defs><marker id="arrow-open" viewBox="0 0 10 10" refX="9" refY="5" markerWidth="10" markerHeight="10" markerUnits="userSpaceOnUse" orient="auto-start-reverse"><path d="M0,0 L10,5 L0,10" fill="none" stroke="#1e293b" stroke-width="1.5"/></marker><marker id="arrow-triangle" viewBox="0 0 12 12" refX="11" refY="6" markerWidth="12" markerHeight="12" markerUnits="userSpaceOnUse" orient="auto-start-reverse"><polygon points="0,0 12,6 0,12" fill="#ffffff" stroke="#1e293b" stroke-width="1.5" fill-rule="nonzero"/></marker><marker id="arrow-diamond-filled" viewBox="0 0 14 10" refX="13" refY="5" markerWidth="14" markerHeight="10" markerUnits="userSpaceOnUse" orient="auto-start-reverse"><path d="M0,5 L7,0 L14,5 L7,10 z" fill="#1e293b" stroke="#1e293b" stroke-width="1"/></marker><marker id="arrow-diamond-open" viewBox="0 0 14 10" refX="13" refY="5" markerWidth="14" markerHeight="10" markerUnits="userSpaceOnUse" orient="auto-start-reverse"><path d="M0,5 L7,0 L14,5 L7,10 z" fill="#ffffff" stroke="#1e293b" stroke-width="1"/></marker><marker id="arrow-double-open" viewBox="0 0 16 12" refX="15" refY="6" markerWidth="16" markerHeight="12" markerUnits="userSpaceOnUse" orient="auto-start-reverse"><path d="M0,1 L8,6 L0,11 M7,1 L15,6 L7,11" fill="none" stroke="#1e293b" stroke-width="1.5" stroke-linejoin="round"/></marker><marker id="arrow-circle-open" viewBox="0 0 12 12" refX="11" refY="6" markerWidth="12" markerHeight="12" markerUnits="userSpaceOnUse" orient="auto-start-reverse"><circle cx="6" cy="6" r="4" fill="#ffffff" stroke="#1e293b" stroke-width="1.5"/></marker><marker id="arrow-circle-filled" viewBox="0 0 12 12" refX="11" refY="6" markerWidth="12" markerHeight="12" markerUnits="userSpaceOnUse" orient="auto-start-reverse"><circle cx="6" cy="6" r="4" fill="#1e293b" stroke="#1e293b" stroke-width="1.5"/></marker><marker id="arrow-triangle-filled" viewBox="0 0 12 12" refX="11" refY="6" markerWidth="12" markerHeight="12" markerUnits="userSpaceOnUse" orient="auto-start-reverse"><polygon points="0,0 12,6 0,12" fill="#1e293b" stroke="#1e293b" stroke-width="1.5"/></marker><marker id="arrow-box-filled" viewBox="0 0 12 12" refX="11" refY="6" markerWidth="12" markerHeight="12" markerUnits="userSpaceOnUse" orient="auto-start-reverse"><rect x="2" y="2" width="8" height="8" fill="#1e293b" stroke="#1e293b" stroke-width="1.5"/></marker><marker id="arrow-plus" viewBox="0 0 12 12" refX="11" refY="6" markerWidth="12" markerHeight="12" markerUnits="userSpaceOnUse" orient="auto-start-reverse"><path d="M6,1 L6,11 M1,6 L11,6" fill="none" stroke="#1e293b" stroke-width="1.8" stroke-linecap="round"/></marker><marker id="arrow-slash" viewBox="0 0 12 12" refX="10" refY="6" markerWidth="12" markerHeight="12" markerUnits="userSpaceOnUse" orient="auto-start-reverse"><path d="M3,2 L9,10" fill="none" stroke="#1e293b" stroke-width="1.8" stroke-linecap="round"/></marker><marker id="arrow-cross" viewBox="0 0 12 12" refX="11" refY="6" markerWidth="12" markerHeight="12" markerUnits="userSpaceOnUse" orient="auto-start-reverse"><path d="M2,2 L10,10 M10,2 L2,10" fill="none" stroke="#1e293b" stroke-width="1.8" stroke-linecap="round"/></marker><marker id="arrow-bracket-open" viewBox="0 0 12 14" refX="11" refY="7" markerWidth="12" markerHeight="14" markerUnits="userSpaceOnUse" orient="auto-start-reverse"><path d="M10,1 L4,1 L4,13 L10,13" fill="none" stroke="#1e293b" stroke-width="1.8" stroke-linecap="round" stroke-linejoin="round"/></marker></defs><marker id="arrow-ie-one" viewBox="0 0 24 16" refX="22" refY="8" markerWidth="24" markerHeight="16" markerUnits="userSpaceOnUse" orient="auto-start-reverse"><path d="M16,2 L16,14" fill="none" stroke="#1e293b" stroke-width="1.8" stroke-linecap="round"/></marker><marker id="arrow-ie-zero-one" viewBox="0 0 30 16" refX="28" refY="8" markerWidth="30" markerHeight="16" markerUnits="userSpaceOnUse" orient="auto-start-reverse"><circle cx="10" cy="8" r="4" fill="#ffffff" stroke="#1e293b" stroke-width="1.5"/><path d="M20,2 L20,14" fill="none" stroke="#1e293b" stroke-width="1.8" stroke-linecap="round"/></marker><marker id="arrow-ie-zero-many" viewBox="0 0 34 18" refX="32" refY="9" markerWidth="34" markerHeight="18" markerUnits="userSpaceOnUse" orient="auto-start-reverse"><circle cx="8" cy="9" r="4" fill="#ffffff" stroke="#1e293b" stroke-width="1.5"/><path d="M18,9 L31,2 M18,9 L31,9 M18,9 L31,16" fill="none" stroke="#1e293b" stroke-width="1.7" stroke-linecap="round"/></marker><marker id="arrow-ie-one-many" viewBox="0 0 34 18" refX="32" refY="9" markerWidth="34" markerHeight="18" markerUnits="userSpaceOnUse" orient="auto-start-reverse"><path d="M8,2 L8,16 M18,9 L31,2 M18,9 L31,9 M18,9 L31,16" fill="none" stroke="#1e293b" stroke-width="1.7" stroke-linecap="round"/></marker><rect class="uml-group-frame" data-uml-group="CDN Layer" x="459" y="40" width="213" height="138" rx="8" ry="8" fill="#f8faff" stroke="#1e293b" stroke-width="1.5"/><rect x="459" y="40" width="213" height="40" rx="8" ry="8" fill="#1e293b" stroke="none"/><rect x="459" y="72" width="213" height="8" fill="#1e293b" stroke="none"/><text x="467" y="72" font-family="monospace" font-size="11" font-weight="600" fill="#ffffff">CDN Layer</text><line x1="459" y1="80" x2="672" y2="80" stroke="#1e293b" stroke-width="1"/><rect class="uml-group-frame" data-uml-group="API Cluster" x="333" y="236" width="466" height="334" rx="8" ry="8" fill="#f8faff" stroke="#1e293b" stroke-width="1.5"/><rect x="333" y="236" width="466" height="40" rx="8" ry="8" fill="#1e293b" stroke="none"/><rect x="333" y="268" width="466" height="8" fill="#1e293b" stroke="none"/><text x="341" y="268" font-family="monospace" font-size="11" font-weight="600" fill="#ffffff">API Cluster</text><line x1="333" y1="276" x2="799" y2="276" stroke="#1e293b" stroke-width="1"/><rect class="uml-group-frame" data-uml-group="Storage Layer" x="80" y="628" width="972" height="138" rx="8" ry="8" fill="#f8faff" stroke="#1e293b" stroke-width="1.5"/><rect x="80" y="628" width="972" height="40" rx="8" ry="8" fill="#1e293b" stroke="none"/><rect x="80" y="660" width="972" height="8" fill="#1e293b" stroke="none"/><text x="88" y="660" font-family="monospace" font-size="11" font-weight="600" fill="#ffffff">Storage Layer</text><line x1="80" y1="668" x2="1052" y2="668" stroke="#1e293b" stroke-width="1"/><rect class="uml-group-frame" data-uml-group="Event Bus" x="1092" y="628" width="213" height="138" rx="8" ry="8" fill="#f8faff" stroke="#1e293b" stroke-width="1.5"/><rect x="1092" y="628" width="213" height="40" rx="8" ry="8" fill="#1e293b" stroke="none"/><rect x="1092" y="660" width="213" height="8" fill="#1e293b" stroke="none"/><text x="1100" y="660" font-family="monospace" font-size="11" font-weight="600" fill="#ffffff">Event Bus</text><line x1="1092" y1="668" x2="1305" y2="668" stroke="#1e293b" stroke-width="1"/><rect class="uml-group-frame" data-uml-group="Analytics Platform" x="459" y="824" width="213" height="334" rx="8" ry="8" fill="#f8faff" stroke="#1e293b" stroke-width="1.5"/><rect x="459" y="824" width="213" height="40" rx="8" ry="8" fill="#1e293b" stroke="none"/><rect x="459" y="856" width="213" height="8" fill="#1e293b" stroke="none"/><text x="467" y="856" font-family="monospace" font-size="11" font-weight="600" fill="#ffffff">Analytics Platform</text><line x1="459" y1="864" x2="672" y2="864" stroke="#1e293b" stroke-width="1"/><desc data-uml-id="CDN Layer::EC">CDN Layer::EC</desc><rect class="uml-node uml-component" data-uml-kind="component" x="483" y="104" width="165" height="50" rx="4" ry="4" fill="#f0f4f8" stroke="#1e293b" stroke-width="1.5"/><rect x="479" y="116" width="16" height="8" fill="#f0f4f8" stroke="#1e293b" stroke-width="1"/><rect x="479" y="134" width="16" height="8" fill="#f0f4f8" stroke="#1e293b" stroke-width="1"/><text x="565" y="135" text-anchor="middle" font-family="monospace" font-size="13" font-weight="600" fill="#0f172a">Edge Cache</text><desc data-uml-id="API Cluster::LB">API Cluster::LB</desc><rect class="uml-node uml-component" data-uml-kind="component" x="483" y="300" width="165" height="50" rx="4" ry="4" fill="#f0f4f8" stroke="#1e293b" stroke-width="1.5"/><rect x="479" y="312" width="16" height="8" fill="#f0f4f8" stroke="#1e293b" stroke-width="1"/><rect x="479" y="330" width="16" height="8" fill="#f0f4f8" stroke="#1e293b" stroke-width="1"/><text x="565" y="331" text-anchor="middle" font-family="monospace" font-size="13" font-weight="600" fill="#0f172a">Load Balancer</text><desc data-uml-id="API Cluster::SA">API Cluster::SA</desc><rect class="uml-node uml-component" data-uml-kind="component" x="357" y="496" width="165" height="50" rx="4" ry="4" fill="#f0f4f8" stroke="#1e293b" stroke-width="1.5"/><rect x="353" y="508" width="16" height="8" fill="#f0f4f8" stroke="#1e293b" stroke-width="1"/><rect x="353" y="526" width="16" height="8" fill="#f0f4f8" stroke="#1e293b" stroke-width="1"/><text x="439" y="527" text-anchor="middle" font-family="monospace" font-size="13" font-weight="600" fill="#0f172a">Service A</text><desc data-uml-id="API Cluster::SB">API Cluster::SB</desc><rect class="uml-node uml-component" data-uml-kind="component" x="610" y="496" width="165" height="50" rx="4" ry="4" fill="#f0f4f8" stroke="#1e293b" stroke-width="1.5"/><rect x="606" y="508" width="16" height="8" fill="#f0f4f8" stroke="#1e293b" stroke-width="1"/><rect x="606" y="526" width="16" height="8" fill="#f0f4f8" stroke="#1e293b" stroke-width="1"/><text x="692" y="527" text-anchor="middle" font-family="monospace" font-size="13" font-weight="600" fill="#0f172a">Service B</text><desc data-uml-id="Storage Layer::DB1">Storage Layer::DB1</desc><rect class="uml-node uml-component" data-uml-kind="component" x="104" y="692" width="165" height="50" rx="4" ry="4" fill="#f0f4f8" stroke="#1e293b" stroke-width="1.5"/><rect x="100" y="704" width="16" height="8" fill="#f0f4f8" stroke="#1e293b" stroke-width="1"/><rect x="100" y="722" width="16" height="8" fill="#f0f4f8" stroke="#1e293b" stroke-width="1"/><text x="186" y="723" text-anchor="middle" font-family="monospace" font-size="13" font-weight="600" fill="#0f172a">Primary DB</text><desc data-uml-id="Storage Layer::DB2">Storage Layer::DB2</desc><rect class="uml-node uml-component" data-uml-kind="component" x="357" y="692" width="165" height="50" rx="4" ry="4" fill="#f0f4f8" stroke="#1e293b" stroke-width="1.5"/><rect x="353" y="704" width="16" height="8" fill="#f0f4f8" stroke="#1e293b" stroke-width="1"/><rect x="353" y="722" width="16" height="8" fill="#f0f4f8" stroke="#1e293b" stroke-width="1"/><text x="439" y="723" text-anchor="middle" font-family="monospace" font-size="13" font-weight="600" fill="#0f172a">Read Replica</text><desc data-uml-id="Storage Layer::S3">Storage Layer::S3</desc><rect class="uml-node uml-component" data-uml-kind="component" x="863" y="692" width="165" height="50" rx="4" ry="4" fill="#f0f4f8" stroke="#1e293b" stroke-width="1.5"/><rect x="859" y="704" width="16" height="8" fill="#f0f4f8" stroke="#1e293b" stroke-width="1"/><rect x="859" y="722" width="16" height="8" fill="#f0f4f8" stroke="#1e293b" stroke-width="1"/><text x="945" y="723" text-anchor="middle" font-family="monospace" font-size="13" font-weight="600" fill="#0f172a">Object Store</text><desc data-uml-id="Event Bus::KF">Event Bus::KF</desc><rect class="uml-node uml-component" data-uml-kind="component" x="1116" y="692" width="165" height="50" rx="4" ry="4" fill="#f0f4f8" stroke="#1e293b" stroke-width="1.5"/><rect x="1112" y="704" width="16" height="8" fill="#f0f4f8" stroke="#1e293b" stroke-width="1"/><rect x="1112" y="722" width="16" height="8" fill="#f0f4f8" stroke="#1e293b" stroke-width="1"/><text x="1198" y="723" text-anchor="middle" font-family="monospace" font-size="13" font-weight="600" fill="#0f172a">Kafka</text><desc data-uml-id="Analytics Platform::SP">Analytics Platform::SP</desc><rect class="uml-node uml-component" data-uml-kind="component" x="483" y="888" width="165" height="50" rx="4" ry="4" fill="#f0f4f8" stroke="#1e293b" stroke-width="1.5"/><rect x="479" y="900" width="16" height="8" fill="#f0f4f8" stroke="#1e293b" stroke-width="1"/><rect x="479" y="918" width="16" height="8" fill="#f0f4f8" stroke="#1e293b" stroke-width="1"/><text x="565" y="919" text-anchor="middle" font-family="monospace" font-size="13" font-weight="600" fill="#0f172a">Stream Processor</text><desc data-uml-id="Analytics Platform::DW">Analytics Platform::DW</desc><rect class="uml-node uml-component" data-uml-kind="component" x="483" y="1084" width="165" height="50" rx="4" ry="4" fill="#f0f4f8" stroke="#1e293b" stroke-width="1.5"/><rect x="479" y="1096" width="16" height="8" fill="#f0f4f8" stroke="#1e293b" stroke-width="1"/><rect x="479" y="1114" width="16" height="8" fill="#f0f4f8" stroke="#1e293b" stroke-width="1"/><text x="565" y="1115" text-anchor="middle" font-family="monospace" font-size="13" font-weight="600" fill="#0f172a">Data Warehouse</text><polyline class="uml-relation" data-uml-from="EC" data-uml-to="LB" data-uml-arrow="--&gt;" points="566,154 566,227 566,300" fill="none" stroke="#1e293b" stroke-width="2" marker-end="url(#arrow-open)" /><polyline class="uml-relation" data-uml-from="LB" data-uml-to="SA" data-uml-arrow="--&gt;" points="566,350 566,419 439,419 439,496" fill="none" stroke="#1e293b" stroke-width="2" marker-end="url(#arrow-open)" /><polyline class="uml-relation" data-uml-from="LB" data-uml-to="SB" data-uml-arrow="--&gt;" points="566,350 566,427 692,427 692,496" fill="none" stroke="#1e293b" stroke-width="2" marker-end="url(#arrow-open)" /><polyline class="uml-relation" data-uml-from="SA" data-uml-to="DB1" data-uml-arrow="--&gt;" points="439,546 439,563 186,563 186,692" fill="none" stroke="#1e293b" stroke-width="2" marker-end="url(#arrow-open)" /><polyline class="uml-relation" data-uml-from="SA" data-uml-to="DB2" data-uml-arrow="--&gt;" points="439,546 439,591 439,692" fill="none" stroke="#1e293b" stroke-width="2" marker-end="url(#arrow-open)" /><polyline class="uml-relation" data-uml-from="SB" data-uml-to="S3" data-uml-arrow="--&gt;" points="692,546 692,680 945,680 945,692" fill="none" stroke="#1e293b" stroke-width="2" marker-end="url(#arrow-open)" /><polyline class="uml-relation" data-uml-from="SA" data-uml-to="KF" data-uml-arrow="--&gt;" points="439,546 439,619 1193,619 1193,692" fill="none" stroke="#1e293b" stroke-width="2" marker-end="url(#arrow-open)" /><polyline class="uml-relation" data-uml-from="SB" data-uml-to="KF" data-uml-arrow="--&gt;" points="692,546 692,680 1203,680 1203,692" fill="none" stroke="#1e293b" stroke-width="2" marker-end="url(#arrow-open)" /><polyline class="uml-relation" data-uml-from="KF" data-uml-to="SP" data-uml-arrow="--&gt;" points="1198,742 1198,815 566,815 566,888" fill="none" stroke="#1e293b" stroke-width="2" marker-end="url(#arrow-open)" /><polyline class="uml-relation" data-uml-from="SP" data-uml-to="DW" data-uml-arrow="--&gt;" points="566,938 566,1011 566,1084" fill="none" stroke="#1e293b" stroke-width="2" marker-end="url(#arrow-open)" /><rect class="uml-edge-label-bg" data-uml-label-role="edge-background" x="538" y="217" width="80" height="18" fill="white" opacity="0.85"/><text class="uml-edge-label" data-uml-label-role="edge" x="578" y="230" text-anchor="middle" font-family="monospace" font-size="11" fill="#1e293b">origin pull</text><text class="uml-edge-label" data-uml-label-role="edge" x="502" y="407" text-anchor="middle" font-family="monospace" font-size="11" fill="#1e293b">route /v1</text><text class="uml-edge-label" data-uml-label-role="edge" x="629" y="415" text-anchor="middle" font-family="monospace" font-size="11" fill="#1e293b">route /v2</text><text class="uml-edge-label" data-uml-label-role="edge" x="312" y="551" text-anchor="middle" font-family="monospace" font-size="11" fill="#1e293b">read/write</text><rect class="uml-edge-label-bg" data-uml-label-role="edge-background" x="418" y="609" width="66" height="18" fill="white" opacity="0.85"/><text class="uml-edge-label" data-uml-label-role="edge" x="451" y="622" text-anchor="middle" font-family="monospace" font-size="11" fill="#1e293b">read-only</text><rect class="uml-edge-label-bg" data-uml-label-role="edge-background" x="795" y="609" width="46" height="18" fill="white" opacity="0.85"/><text class="uml-edge-label" data-uml-label-role="edge" x="818" y="622" text-anchor="middle" font-family="monospace" font-size="11" fill="#1e293b">upload</text><rect class="uml-edge-label-bg" data-uml-label-role="edge-background" x="1105" y="609" width="102" height="18" fill="white" opacity="0.85"/><text class="uml-edge-label" data-uml-label-role="edge" x="1156" y="622" text-anchor="middle" font-family="monospace" font-size="11" fill="#1e293b">publish events</text><rect class="uml-edge-label-bg" data-uml-label-role="edge-background" x="1190" y="609" width="102" height="18" fill="white" opacity="0.85"/><text class="uml-edge-label" data-uml-label-role="edge" x="1241" y="622" text-anchor="middle" font-family="monospace" font-size="11" fill="#1e293b">publish events</text><text class="uml-edge-label" data-uml-label-role="edge" x="882" y="803" text-anchor="middle" font-family="monospace" font-size="11" fill="#1e293b">consume</text><rect class="uml-edge-label-bg" data-uml-label-role="edge-background" x="545" y="1034" width="66" height="18" fill="white" opacity="0.85"/><text class="uml-edge-label" data-uml-label-role="edge" x="578" y="1047" text-anchor="middle" font-family="monospace" font-size="11" fill="#1e293b">aggregate</text><text x="467" y="72" font-family="monospace" font-size="11" font-weight="600" fill="#ffffff">CDN Layer</text><text x="341" y="268" font-family="monospace" font-size="11" font-weight="600" fill="#ffffff">API Cluster</text><text x="88" y="660" font-family="monospace" font-size="11" font-weight="600" fill="#ffffff">Storage Layer</text><text x="1100" y="660" font-family="monospace" font-size="11" font-weight="600" fill="#ffffff">Event Bus</text><text x="467" y="856" font-family="monospace" font-size="11" font-weight="600" fill="#ffffff">Analytics Platform</text></svg>