<svg xmlns="http://www.w3.org/2000/svg" width="1248" height="1768" viewBox="0 0 1248 1768"><rect width="100%" height="100%" fill="#f0f4f8"/><defs><marker id="arrow-open" viewBox="0 0 10 10" refX="9" refY="5" markerWidth="10" markerHeight="10" markerUnits="userSpaceOnUse" orient="auto-start-reverse"><path d="M0,0 L10,5 L0,10" fill="none" stroke="#1e293b" stroke-width="1.5"/></marker><marker id="arrow-triangle" viewBox="0 0 12 12" refX="11" refY="6" markerWidth="12" markerHeight="12" markerUnits="userSpaceOnUse" orient="auto-start-reverse"><polygon points="0,0 12,6 0,12" fill="#ffffff" stroke="#1e293b" stroke-width="1.5" fill-rule="nonzero"/></marker><marker id="arrow-diamond-filled" viewBox="0 0 14 10" refX="13" refY="5" markerWidth="14" markerHeight="10" markerUnits="userSpaceOnUse" orient="auto-start-reverse"><path d="M0,5 L7,0 L14,5 L7,10 z" fill="#1e293b" stroke="#1e293b" stroke-width="1"/></marker><marker id="arrow-diamond-open" viewBox="0 0 14 10" refX="13" refY="5" markerWidth="14" markerHeight="10" markerUnits="userSpaceOnUse" orient="auto-start-reverse"><path d="M0,5 L7,0 L14,5 L7,10 z" fill="#ffffff" stroke="#1e293b" stroke-width="1"/></marker></defs><rect class="uml-group-frame" data-uml-group="CDN Layer" x="512" y="40" width="248" height="168" rx="8" ry="8" fill="#f8faff" stroke="#1e293b" stroke-width="1.5"/><rect x="512" y="40" width="248" height="40" rx="8" ry="8" fill="#1e293b" stroke="none"/><rect x="512" y="72" width="248" height="8" fill="#1e293b" stroke="none"/><text x="520" y="72" font-family="monospace" font-size="11" font-weight="600" fill="#ffffff">package CDN Layer</text><line x1="512" y1="80" x2="760" y2="80" stroke="#1e293b" stroke-width="1"/><rect class="uml-group-frame" data-uml-group="API Cluster" x="368" y="328" width="536" height="456" rx="8" ry="8" fill="#f8faff" stroke="#1e293b" stroke-width="1.5"/><rect x="368" y="328" width="536" height="40" rx="8" ry="8" fill="#1e293b" stroke="none"/><rect x="368" y="360" width="536" height="8" fill="#1e293b" stroke="none"/><text x="376" y="360" font-family="monospace" font-size="11" font-weight="600" fill="#ffffff">package API Cluster</text><line x1="368" y1="368" x2="904" y2="368" stroke="#1e293b" stroke-width="1"/><rect class="uml-group-frame" data-uml-group="Storage Layer" x="368" y="904" width="824" height="168" rx="8" ry="8" fill="#f8faff" stroke="#1e293b" stroke-width="1.5"/><rect x="368" y="904" width="824" height="40" rx="8" ry="8" fill="#1e293b" stroke="none"/><rect x="368" y="936" width="824" height="8" fill="#1e293b" stroke="none"/><text x="376" y="936" font-family="monospace" font-size="11" font-weight="600" fill="#ffffff">package Storage Layer</text><line x1="368" y1="944" x2="1192" y2="944" stroke="#1e293b" stroke-width="1"/><rect class="uml-group-frame" data-uml-group="Event Bus" x="80" y="904" width="248" height="168" rx="8" ry="8" fill="#f8faff" stroke="#1e293b" stroke-width="1.5"/><rect x="80" y="904" width="248" height="40" rx="8" ry="8" fill="#1e293b" stroke="none"/><rect x="80" y="936" width="248" height="8" fill="#1e293b" stroke="none"/><text x="88" y="936" font-family="monospace" font-size="11" font-weight="600" fill="#ffffff">package Event Bus</text><line x1="80" y1="944" x2="328" y2="944" stroke="#1e293b" stroke-width="1"/><rect class="uml-group-frame" data-uml-group="Analytics Platform" x="512" y="1192" width="248" height="456" rx="8" ry="8" fill="#f8faff" stroke="#1e293b" stroke-width="1.5"/><rect x="512" y="1192" width="248" height="40" rx="8" ry="8" fill="#1e293b" stroke="none"/><rect x="512" y="1224" width="248" height="8" fill="#1e293b" stroke="none"/><text x="520" y="1224" font-family="monospace" font-size="11" font-weight="600" fill="#ffffff">package Analytics Platform</text><line x1="512" y1="1232" x2="760" y2="1232" stroke="#1e293b" stroke-width="1"/><desc data-uml-id="CDN Layer::EC">CDN Layer::EC</desc><rect class="uml-node uml-component" data-uml-kind="component" x="536" y="104" width="200" height="80" rx="4" ry="4" fill="#f0f4f8" stroke="#1e293b" stroke-width="1"/><rect x="532" y="116" width="16" height="8" fill="#f0f4f8" stroke="#1e293b" stroke-width="1"/><rect x="532" y="164" width="16" height="8" fill="#f0f4f8" stroke="#1e293b" stroke-width="1"/><text x="636" y="150" text-anchor="middle" font-family="monospace" font-size="13" font-weight="600" fill="#0f172a">Edge Cache</text><text x="636" y="118" text-anchor="middle" font-family="monospace" font-size="10" fill="#0f172a">«component»</text><desc data-uml-id="API Cluster::LB">API Cluster::LB</desc><rect class="uml-node uml-component" data-uml-kind="component" x="536" y="392" width="200" height="80" rx="4" ry="4" fill="#f0f4f8" stroke="#1e293b" stroke-width="1"/><rect x="532" y="404" width="16" height="8" fill="#f0f4f8" stroke="#1e293b" stroke-width="1"/><rect x="532" y="452" width="16" height="8" fill="#f0f4f8" stroke="#1e293b" stroke-width="1"/><text x="636" y="438" text-anchor="middle" font-family="monospace" font-size="13" font-weight="600" fill="#0f172a">Load Balancer</text><text x="636" y="406" text-anchor="middle" font-family="monospace" font-size="10" fill="#0f172a">«component»</text><desc data-uml-id="API Cluster::SA">API Cluster::SA</desc><rect class="uml-node uml-component" data-uml-kind="component" x="392" y="680" width="200" height="80" rx="4" ry="4" fill="#f0f4f8" stroke="#1e293b" stroke-width="1"/><rect x="388" y="692" width="16" height="8" fill="#f0f4f8" stroke="#1e293b" stroke-width="1"/><rect x="388" y="740" width="16" height="8" fill="#f0f4f8" stroke="#1e293b" stroke-width="1"/><text x="492" y="726" text-anchor="middle" font-family="monospace" font-size="13" font-weight="600" fill="#0f172a">Service A</text><text x="492" y="694" text-anchor="middle" font-family="monospace" font-size="10" fill="#0f172a">«component»</text><desc data-uml-id="API Cluster::SB">API Cluster::SB</desc><rect class="uml-node uml-component" data-uml-kind="component" x="680" y="680" width="200" height="80" rx="4" ry="4" fill="#f0f4f8" stroke="#1e293b" stroke-width="1"/><rect x="676" y="692" width="16" height="8" fill="#f0f4f8" stroke="#1e293b" stroke-width="1"/><rect x="676" y="740" width="16" height="8" fill="#f0f4f8" stroke="#1e293b" stroke-width="1"/><text x="780" y="726" text-anchor="middle" font-family="monospace" font-size="13" font-weight="600" fill="#0f172a">Service B</text><text x="780" y="694" text-anchor="middle" font-family="monospace" font-size="10" fill="#0f172a">«component»</text><desc data-uml-id="Storage Layer::DB1">Storage Layer::DB1</desc><rect class="uml-node uml-component" data-uml-kind="component" x="392" y="968" width="200" height="80" rx="4" ry="4" fill="#f0f4f8" stroke="#1e293b" stroke-width="1"/><rect x="388" y="980" width="16" height="8" fill="#f0f4f8" stroke="#1e293b" stroke-width="1"/><rect x="388" y="1028" width="16" height="8" fill="#f0f4f8" stroke="#1e293b" stroke-width="1"/><text x="492" y="1014" text-anchor="middle" font-family="monospace" font-size="13" font-weight="600" fill="#0f172a">Primary DB</text><text x="492" y="982" text-anchor="middle" font-family="monospace" font-size="10" fill="#0f172a">«component»</text><desc data-uml-id="Storage Layer::DB2">Storage Layer::DB2</desc><rect class="uml-node uml-component" data-uml-kind="component" x="680" y="968" width="200" height="80" rx="4" ry="4" fill="#f0f4f8" stroke="#1e293b" stroke-width="1"/><rect x="676" y="980" width="16" height="8" fill="#f0f4f8" stroke="#1e293b" stroke-width="1"/><rect x="676" y="1028" width="16" height="8" fill="#f0f4f8" stroke="#1e293b" stroke-width="1"/><text x="780" y="1014" text-anchor="middle" font-family="monospace" font-size="13" font-weight="600" fill="#0f172a">Read Replica</text><text x="780" y="982" text-anchor="middle" font-family="monospace" font-size="10" fill="#0f172a">«component»</text><desc data-uml-id="Storage Layer::S3">Storage Layer::S3</desc><rect class="uml-node uml-component" data-uml-kind="component" x="968" y="968" width="200" height="80" rx="4" ry="4" fill="#f0f4f8" stroke="#1e293b" stroke-width="1"/><rect x="964" y="980" width="16" height="8" fill="#f0f4f8" stroke="#1e293b" stroke-width="1"/><rect x="964" y="1028" width="16" height="8" fill="#f0f4f8" stroke="#1e293b" stroke-width="1"/><text x="1068" y="1014" text-anchor="middle" font-family="monospace" font-size="13" font-weight="600" fill="#0f172a">Object Store</text><text x="1068" y="982" text-anchor="middle" font-family="monospace" font-size="10" fill="#0f172a">«component»</text><desc data-uml-id="Event Bus::KF">Event Bus::KF</desc><rect class="uml-node uml-component" data-uml-kind="component" x="104" y="968" width="200" height="80" rx="4" ry="4" fill="#f0f4f8" stroke="#1e293b" stroke-width="1"/><rect x="100" y="980" width="16" height="8" fill="#f0f4f8" stroke="#1e293b" stroke-width="1"/><rect x="100" y="1028" width="16" height="8" fill="#f0f4f8" stroke="#1e293b" stroke-width="1"/><text x="204" y="1014" text-anchor="middle" font-family="monospace" font-size="13" font-weight="600" fill="#0f172a">Kafka</text><text x="204" y="982" text-anchor="middle" font-family="monospace" font-size="10" fill="#0f172a">«component»</text><desc data-uml-id="Analytics Platform::SP">Analytics Platform::SP</desc><rect class="uml-node uml-component" data-uml-kind="component" x="536" y="1256" width="200" height="80" rx="4" ry="4" fill="#f0f4f8" stroke="#1e293b" stroke-width="1"/><rect x="532" y="1268" width="16" height="8" fill="#f0f4f8" stroke="#1e293b" stroke-width="1"/><rect x="532" y="1316" width="16" height="8" fill="#f0f4f8" stroke="#1e293b" stroke-width="1"/><text x="636" y="1302" text-anchor="middle" font-family="monospace" font-size="13" font-weight="600" fill="#0f172a">Stream Processor</text><text x="636" y="1270" text-anchor="middle" font-family="monospace" font-size="10" fill="#0f172a">«component»</text><desc data-uml-id="Analytics Platform::DW">Analytics Platform::DW</desc><rect class="uml-node uml-component" data-uml-kind="component" x="536" y="1544" width="200" height="80" rx="4" ry="4" fill="#f0f4f8" stroke="#1e293b" stroke-width="1"/><rect x="532" y="1556" width="16" height="8" fill="#f0f4f8" stroke="#1e293b" stroke-width="1"/><rect x="532" y="1604" width="16" height="8" fill="#f0f4f8" stroke="#1e293b" stroke-width="1"/><text x="636" y="1590" text-anchor="middle" font-family="monospace" font-size="13" font-weight="600" fill="#0f172a">Data Warehouse</text><text x="636" y="1558" text-anchor="middle" font-family="monospace" font-size="10" fill="#0f172a">«component»</text><polyline class="uml-relation" data-uml-from="EC" data-uml-to="LB" data-uml-arrow="--&gt;" points="636,184 636,288 636,392" fill="none" stroke="#1e293b" stroke-width="2" marker-end="url(#arrow-open)" /><polyline class="uml-relation" data-uml-from="LB" data-uml-to="SA" data-uml-arrow="--&gt;" points="636,472 636,572 492,572 492,680" fill="none" stroke="#1e293b" stroke-width="2" marker-end="url(#arrow-open)" /><polyline class="uml-relation" data-uml-from="LB" data-uml-to="SB" data-uml-arrow="--&gt;" points="636,472 636,580 780,580 780,680" fill="none" stroke="#1e293b" stroke-width="2" marker-end="url(#arrow-open)" /><polyline class="uml-relation" data-uml-from="SA" data-uml-to="DB1" data-uml-arrow="--&gt;" points="492,760 492,864 492,968" fill="none" stroke="#1e293b" stroke-width="2" marker-end="url(#arrow-open)" /><polyline class="uml-relation" data-uml-from="SA" data-uml-to="DB2" data-uml-arrow="--&gt;" points="492,760 492,956 780,956 780,968" fill="none" stroke="#1e293b" stroke-width="2" marker-end="url(#arrow-open)" /><polyline class="uml-relation" data-uml-from="SB" data-uml-to="S3" data-uml-arrow="--&gt;" points="780,760 780,956 1068,956 1068,968" fill="none" stroke="#1e293b" stroke-width="2" marker-end="url(#arrow-open)" /><polyline class="uml-relation" data-uml-from="SA" data-uml-to="KF" data-uml-arrow="--&gt;" points="492,760 492,956 204,956 204,968" fill="none" stroke="#1e293b" stroke-width="2" marker-end="url(#arrow-open)" /><polyline class="uml-relation" data-uml-from="SB" data-uml-to="KF" data-uml-arrow="--&gt;" points="680,720 680,956 304,956 304,1008" fill="none" stroke="#1e293b" stroke-width="2" marker-end="url(#arrow-open)" /><polyline class="uml-relation" data-uml-from="KF" data-uml-to="SP" data-uml-arrow="--&gt;" points="304,1008 304,1244 536,1244 536,1296" fill="none" stroke="#1e293b" stroke-width="2" marker-end="url(#arrow-open)" /><polyline class="uml-relation" data-uml-from="SP" data-uml-to="DW" data-uml-arrow="--&gt;" points="636,1336 636,1440 636,1544" fill="none" stroke="#1e293b" stroke-width="2" marker-end="url(#arrow-open)" /><text x="636" y="276" text-anchor="middle" font-family="monospace" font-size="11" fill="#1e293b">origin pull</text><text x="564" y="560" text-anchor="middle" font-family="monospace" font-size="11" fill="#1e293b">route /v1</text><text x="708" y="568" text-anchor="middle" font-family="monospace" font-size="11" fill="#1e293b">route /v2</text><text x="492" y="852" text-anchor="middle" font-family="monospace" font-size="11" fill="#1e293b">read/write</text><text x="636" y="944" text-anchor="middle" font-family="monospace" font-size="11" fill="#1e293b">read-only</text><text x="924" y="944" text-anchor="middle" font-family="monospace" font-size="11" fill="#1e293b">upload</text><text x="162" y="940" text-anchor="middle" font-family="monospace" font-size="11" fill="#1e293b">publish events</text><text x="247" y="940" text-anchor="middle" font-family="monospace" font-size="11" fill="#1e293b">publish events</text><text x="420" y="1232" text-anchor="middle" font-family="monospace" font-size="11" fill="#1e293b">consume</text><text x="636" y="1428" text-anchor="middle" font-family="monospace" font-size="11" fill="#1e293b">aggregate</text></svg>