<svg xmlns="http://www.w3.org/2000/svg" width="1276" height="1428" viewBox="0 0 1276 1428"><rect width="100%" height="100%" fill="#f0f4f8"/><defs><marker id="arrow-open" viewBox="0 0 10 10" refX="9" refY="5" markerWidth="10" markerHeight="10" markerUnits="userSpaceOnUse" orient="auto-start-reverse"><path d="M0,0 L10,5 L0,10" fill="none" stroke="#1e293b" stroke-width="1.5"/></marker><marker id="arrow-triangle" viewBox="0 0 12 12" refX="11" refY="6" markerWidth="12" markerHeight="12" markerUnits="userSpaceOnUse" orient="auto-start-reverse"><polygon points="0,0 12,6 0,12" fill="#ffffff" stroke="#1e293b" stroke-width="1.5" fill-rule="nonzero"/></marker><marker id="arrow-diamond-filled" viewBox="0 0 14 10" refX="13" refY="5" markerWidth="14" markerHeight="10" markerUnits="userSpaceOnUse" orient="auto-start-reverse"><path d="M0,5 L7,0 L14,5 L7,10 z" fill="#1e293b" stroke="#1e293b" stroke-width="1"/></marker><marker id="arrow-diamond-open" viewBox="0 0 14 10" refX="13" refY="5" markerWidth="14" markerHeight="10" markerUnits="userSpaceOnUse" orient="auto-start-reverse"><path d="M0,5 L7,0 L14,5 L7,10 z" fill="#ffffff" stroke="#1e293b" stroke-width="1"/></marker><marker id="arrow-double-open" viewBox="0 0 16 12" refX="15" refY="6" markerWidth="16" markerHeight="12" markerUnits="userSpaceOnUse" orient="auto-start-reverse"><path d="M0,1 L8,6 L0,11 M7,1 L15,6 L7,11" fill="none" stroke="#1e293b" stroke-width="1.5" stroke-linejoin="round"/></marker><marker id="arrow-circle-open" viewBox="0 0 12 12" refX="11" refY="6" markerWidth="12" markerHeight="12" markerUnits="userSpaceOnUse" orient="auto-start-reverse"><circle cx="6" cy="6" r="4" fill="#ffffff" stroke="#1e293b" stroke-width="1.5"/></marker><marker id="arrow-circle-filled" viewBox="0 0 12 12" refX="11" refY="6" markerWidth="12" markerHeight="12" markerUnits="userSpaceOnUse" orient="auto-start-reverse"><circle cx="6" cy="6" r="4" fill="#1e293b" stroke="#1e293b" stroke-width="1.5"/></marker><marker id="arrow-triangle-filled" viewBox="0 0 12 12" refX="11" refY="6" markerWidth="12" markerHeight="12" markerUnits="userSpaceOnUse" orient="auto-start-reverse"><polygon points="0,0 12,6 0,12" fill="#1e293b" stroke="#1e293b" stroke-width="1.5"/></marker><marker id="arrow-box-filled" viewBox="0 0 12 12" refX="11" refY="6" markerWidth="12" markerHeight="12" markerUnits="userSpaceOnUse" orient="auto-start-reverse"><rect x="2" y="2" width="8" height="8" fill="#1e293b" stroke="#1e293b" stroke-width="1.5"/></marker><marker id="arrow-plus" viewBox="0 0 12 12" refX="11" refY="6" markerWidth="12" markerHeight="12" markerUnits="userSpaceOnUse" orient="auto-start-reverse"><path d="M6,1 L6,11 M1,6 L11,6" fill="none" stroke="#1e293b" stroke-width="1.8" stroke-linecap="round"/></marker><marker id="arrow-slash" viewBox="0 0 12 12" refX="10" refY="6" markerWidth="12" markerHeight="12" markerUnits="userSpaceOnUse" orient="auto-start-reverse"><path d="M3,2 L9,10" fill="none" stroke="#1e293b" stroke-width="1.8" stroke-linecap="round"/></marker><marker id="arrow-cross" viewBox="0 0 12 12" refX="11" refY="6" markerWidth="12" markerHeight="12" markerUnits="userSpaceOnUse" orient="auto-start-reverse"><path d="M2,2 L10,10 M10,2 L2,10" fill="none" stroke="#1e293b" stroke-width="1.8" stroke-linecap="round"/></marker><marker id="arrow-bracket-open" viewBox="0 0 12 14" refX="11" refY="7" markerWidth="12" markerHeight="14" markerUnits="userSpaceOnUse" orient="auto-start-reverse"><path d="M10,1 L4,1 L4,13 L10,13" fill="none" stroke="#1e293b" stroke-width="1.8" stroke-linecap="round" stroke-linejoin="round"/></marker></defs><marker id="arrow-ie-one" viewBox="0 0 24 16" refX="22" refY="8" markerWidth="24" markerHeight="16" markerUnits="userSpaceOnUse" orient="auto-start-reverse"><path d="M16,2 L16,14" fill="none" stroke="#1e293b" stroke-width="1.8" stroke-linecap="round"/></marker><marker id="arrow-ie-zero-one" viewBox="0 0 30 16" refX="28" refY="8" markerWidth="30" markerHeight="16" markerUnits="userSpaceOnUse" orient="auto-start-reverse"><circle cx="10" cy="8" r="4" fill="#ffffff" stroke="#1e293b" stroke-width="1.5"/><path d="M20,2 L20,14" fill="none" stroke="#1e293b" stroke-width="1.8" stroke-linecap="round"/></marker><marker id="arrow-ie-zero-many" viewBox="0 0 34 18" refX="32" refY="9" markerWidth="34" markerHeight="18" markerUnits="userSpaceOnUse" orient="auto-start-reverse"><circle cx="8" cy="9" r="4" fill="#ffffff" stroke="#1e293b" stroke-width="1.5"/><path d="M18,9 L31,2 M18,9 L31,9 M18,9 L31,16" fill="none" stroke="#1e293b" stroke-width="1.7" stroke-linecap="round"/></marker><marker id="arrow-ie-one-many" viewBox="0 0 34 18" refX="32" refY="9" markerWidth="34" markerHeight="18" markerUnits="userSpaceOnUse" orient="auto-start-reverse"><path d="M8,2 L8,16 M18,9 L31,2 M18,9 L31,9 M18,9 L31,16" fill="none" stroke="#1e293b" stroke-width="1.7" stroke-linecap="round"/></marker><rect class="uml-group-frame" data-uml-group="CDN Layer" x="414" y="8" width="224" height="144" rx="8" ry="8" fill="#f8faff" stroke="#1e293b" stroke-width="1.5"/><rect x="414" y="8" width="224" height="40" rx="8" ry="8" fill="#1e293b" stroke="none"/><rect x="414" y="40" width="224" height="8" fill="#1e293b" stroke="none"/><text x="422" y="40" font-family="monospace" font-size="11" font-weight="600" fill="#ffffff">package CDN Layer</text><line x1="414" y1="48" x2="638" y2="48" stroke="#1e293b" stroke-width="1"/><rect class="uml-group-frame" data-uml-group="API Cluster" x="292" y="252" width="468" height="388" rx="8" ry="8" fill="#f8faff" stroke="#1e293b" stroke-width="1.5"/><rect x="292" y="252" width="468" height="40" rx="8" ry="8" fill="#1e293b" stroke="none"/><rect x="292" y="284" width="468" height="8" fill="#1e293b" stroke="none"/><text x="300" y="284" font-family="monospace" font-size="11" font-weight="600" fill="#ffffff">package API Cluster</text><line x1="292" y1="292" x2="760" y2="292" stroke="#1e293b" stroke-width="1"/><rect class="uml-group-frame" data-uml-group="Storage Layer" x="48" y="740" width="956" height="144" rx="8" ry="8" fill="#f8faff" stroke="#1e293b" stroke-width="1.5"/><rect x="48" y="740" width="956" height="40" rx="8" ry="8" fill="#1e293b" stroke="none"/><rect x="48" y="772" width="956" height="8" fill="#1e293b" stroke="none"/><text x="56" y="772" font-family="monospace" font-size="11" font-weight="600" fill="#ffffff">package Storage Layer</text><line x1="48" y1="780" x2="1004" y2="780" stroke="#1e293b" stroke-width="1"/><rect class="uml-group-frame" data-uml-group="Event Bus" x="1044" y="740" width="224" height="144" rx="8" ry="8" fill="#f8faff" stroke="#1e293b" stroke-width="1.5"/><rect x="1044" y="740" width="224" height="40" rx="8" ry="8" fill="#1e293b" stroke="none"/><rect x="1044" y="772" width="224" height="8" fill="#1e293b" stroke="none"/><text x="1052" y="772" font-family="monospace" font-size="11" font-weight="600" fill="#ffffff">package Event Bus</text><line x1="1044" y1="780" x2="1268" y2="780" stroke="#1e293b" stroke-width="1"/><rect class="uml-group-frame" data-uml-group="Analytics Platform" x="414" y="984" width="224" height="388" rx="8" ry="8" fill="#f8faff" stroke="#1e293b" stroke-width="1.5"/><rect x="414" y="984" width="224" height="40" rx="8" ry="8" fill="#1e293b" stroke="none"/><rect x="414" y="1016" width="224" height="8" fill="#1e293b" stroke="none"/><text x="422" y="1016" font-family="monospace" font-size="11" font-weight="600" fill="#ffffff">package Analytics Platform</text><line x1="414" y1="1024" x2="638" y2="1024" stroke="#1e293b" stroke-width="1"/><desc data-uml-id="CDN Layer::EC">CDN Layer::EC</desc><rect class="uml-node uml-component" data-uml-kind="component" x="426" y="60" width="200" height="80" rx="4" ry="4" fill="#f0f4f8" stroke="#1e293b" stroke-width="1.5"/><rect x="422" y="72" width="16" height="8" fill="#f0f4f8" stroke="#1e293b" stroke-width="1"/><rect x="422" y="120" width="16" height="8" fill="#f0f4f8" stroke="#1e293b" stroke-width="1"/><text x="526" y="106" text-anchor="middle" font-family="monospace" font-size="13" font-weight="600" fill="#0f172a">Edge Cache</text><desc data-uml-id="API Cluster::LB">API Cluster::LB</desc><rect class="uml-node uml-component" data-uml-kind="component" x="426" y="304" width="200" height="80" rx="4" ry="4" fill="#f0f4f8" stroke="#1e293b" stroke-width="1.5"/><rect x="422" y="316" width="16" height="8" fill="#f0f4f8" stroke="#1e293b" stroke-width="1"/><rect x="422" y="364" width="16" height="8" fill="#f0f4f8" stroke="#1e293b" stroke-width="1"/><text x="526" y="350" text-anchor="middle" font-family="monospace" font-size="13" font-weight="600" fill="#0f172a">Load Balancer</text><desc data-uml-id="API Cluster::SA">API Cluster::SA</desc><rect class="uml-node uml-component" data-uml-kind="component" x="304" y="548" width="200" height="80" rx="4" ry="4" fill="#f0f4f8" stroke="#1e293b" stroke-width="1.5"/><rect x="300" y="560" width="16" height="8" fill="#f0f4f8" stroke="#1e293b" stroke-width="1"/><rect x="300" y="608" width="16" height="8" fill="#f0f4f8" stroke="#1e293b" stroke-width="1"/><text x="404" y="594" text-anchor="middle" font-family="monospace" font-size="13" font-weight="600" fill="#0f172a">Service A</text><desc data-uml-id="API Cluster::SB">API Cluster::SB</desc><rect class="uml-node uml-component" data-uml-kind="component" x="548" y="548" width="200" height="80" rx="4" ry="4" fill="#f0f4f8" stroke="#1e293b" stroke-width="1.5"/><rect x="544" y="560" width="16" height="8" fill="#f0f4f8" stroke="#1e293b" stroke-width="1"/><rect x="544" y="608" width="16" height="8" fill="#f0f4f8" stroke="#1e293b" stroke-width="1"/><text x="648" y="594" text-anchor="middle" font-family="monospace" font-size="13" font-weight="600" fill="#0f172a">Service B</text><desc data-uml-id="Storage Layer::DB1">Storage Layer::DB1</desc><rect class="uml-node uml-component" data-uml-kind="component" x="60" y="792" width="200" height="80" rx="4" ry="4" fill="#f0f4f8" stroke="#1e293b" stroke-width="1.5"/><rect x="56" y="804" width="16" height="8" fill="#f0f4f8" stroke="#1e293b" stroke-width="1"/><rect x="56" y="852" width="16" height="8" fill="#f0f4f8" stroke="#1e293b" stroke-width="1"/><text x="160" y="838" text-anchor="middle" font-family="monospace" font-size="13" font-weight="600" fill="#0f172a">Primary DB</text><desc data-uml-id="Storage Layer::DB2">Storage Layer::DB2</desc><rect class="uml-node uml-component" data-uml-kind="component" x="304" y="792" width="200" height="80" rx="4" ry="4" fill="#f0f4f8" stroke="#1e293b" stroke-width="1.5"/><rect x="300" y="804" width="16" height="8" fill="#f0f4f8" stroke="#1e293b" stroke-width="1"/><rect x="300" y="852" width="16" height="8" fill="#f0f4f8" stroke="#1e293b" stroke-width="1"/><text x="404" y="838" text-anchor="middle" font-family="monospace" font-size="13" font-weight="600" fill="#0f172a">Read Replica</text><desc data-uml-id="Storage Layer::S3">Storage Layer::S3</desc><rect class="uml-node uml-component" data-uml-kind="component" x="792" y="792" width="200" height="80" rx="4" ry="4" fill="#f0f4f8" stroke="#1e293b" stroke-width="1.5"/><rect x="788" y="804" width="16" height="8" fill="#f0f4f8" stroke="#1e293b" stroke-width="1"/><rect x="788" y="852" width="16" height="8" fill="#f0f4f8" stroke="#1e293b" stroke-width="1"/><text x="892" y="838" text-anchor="middle" font-family="monospace" font-size="13" font-weight="600" fill="#0f172a">Object Store</text><desc data-uml-id="Event Bus::KF">Event Bus::KF</desc><rect class="uml-node uml-component" data-uml-kind="component" x="1056" y="792" width="200" height="80" rx="4" ry="4" fill="#f0f4f8" stroke="#1e293b" stroke-width="1.5"/><rect x="1052" y="804" width="16" height="8" fill="#f0f4f8" stroke="#1e293b" stroke-width="1"/><rect x="1052" y="852" width="16" height="8" fill="#f0f4f8" stroke="#1e293b" stroke-width="1"/><text x="1156" y="838" text-anchor="middle" font-family="monospace" font-size="13" font-weight="600" fill="#0f172a">Kafka</text><desc data-uml-id="Analytics Platform::SP">Analytics Platform::SP</desc><rect class="uml-node uml-component" data-uml-kind="component" x="426" y="1036" width="200" height="80" rx="4" ry="4" fill="#f0f4f8" stroke="#1e293b" stroke-width="1.5"/><rect x="422" y="1048" width="16" height="8" fill="#f0f4f8" stroke="#1e293b" stroke-width="1"/><rect x="422" y="1096" width="16" height="8" fill="#f0f4f8" stroke="#1e293b" stroke-width="1"/><text x="526" y="1082" text-anchor="middle" font-family="monospace" font-size="13" font-weight="600" fill="#0f172a">Stream Processor</text><desc data-uml-id="Analytics Platform::DW">Analytics Platform::DW</desc><rect class="uml-node uml-component" data-uml-kind="component" x="426" y="1280" width="200" height="80" rx="4" ry="4" fill="#f0f4f8" stroke="#1e293b" stroke-width="1.5"/><rect x="422" y="1292" width="16" height="8" fill="#f0f4f8" stroke="#1e293b" stroke-width="1"/><rect x="422" y="1340" width="16" height="8" fill="#f0f4f8" stroke="#1e293b" stroke-width="1"/><text x="526" y="1326" text-anchor="middle" font-family="monospace" font-size="13" font-weight="600" fill="#0f172a">Data Warehouse</text><polyline class="uml-relation" data-uml-from="EC" data-uml-to="LB" data-uml-arrow="--&gt;" points="526,140 526,222 526,304" fill="none" stroke="#1e293b" stroke-width="2" marker-end="url(#arrow-open)" /><polyline class="uml-relation" data-uml-from="LB" data-uml-to="SA" data-uml-arrow="--&gt;" points="526,384 526,462 404,462 404,548" fill="none" stroke="#1e293b" stroke-width="2" marker-end="url(#arrow-open)" /><polyline class="uml-relation" data-uml-from="LB" data-uml-to="SB" data-uml-arrow="--&gt;" points="526,384 526,470 648,470 648,548" fill="none" stroke="#1e293b" stroke-width="2" marker-end="url(#arrow-open)" /><polyline class="uml-relation" data-uml-from="SA" data-uml-to="DB1" data-uml-arrow="--&gt;" points="404,628 404,647 160,647 160,792" fill="none" stroke="#1e293b" stroke-width="2" marker-end="url(#arrow-open)" /><polyline class="uml-relation" data-uml-from="SA" data-uml-to="DB2" data-uml-arrow="--&gt;" points="404,628 404,678 404,792" fill="none" stroke="#1e293b" stroke-width="2" marker-end="url(#arrow-open)" /><polyline class="uml-relation" data-uml-from="SB" data-uml-to="S3" data-uml-arrow="--&gt;" points="648,628 648,788 892,788 892,792" fill="none" stroke="#1e293b" stroke-width="2" marker-end="url(#arrow-open)" /><polyline class="uml-relation" data-uml-from="SA" data-uml-to="KF" data-uml-arrow="--&gt;" points="404,628 404,710 1151,710 1151,792" fill="none" stroke="#1e293b" stroke-width="2" marker-end="url(#arrow-open)" /><polyline class="uml-relation" data-uml-from="SB" data-uml-to="KF" data-uml-arrow="--&gt;" points="648,628 648,788 1161,788 1161,792" fill="none" stroke="#1e293b" stroke-width="2" marker-end="url(#arrow-open)" /><polyline class="uml-relation" data-uml-from="KF" data-uml-to="SP" data-uml-arrow="--&gt;" points="1156,872 1156,954 526,954 526,1036" fill="none" stroke="#1e293b" stroke-width="2" marker-end="url(#arrow-open)" /><polyline class="uml-relation" data-uml-from="SP" data-uml-to="DW" data-uml-arrow="--&gt;" points="526,1116 526,1198 526,1280" fill="none" stroke="#1e293b" stroke-width="2" marker-end="url(#arrow-open)" /><rect class="uml-edge-label-bg" data-uml-label-role="edge-background" x="498" y="283" width="80" height="18" fill="white" opacity="0.85"/><text class="uml-edge-label" data-uml-label-role="edge" x="538" y="263" text-anchor="middle" font-family="monospace" font-size="11" fill="#1e293b">origin pull</text><text class="uml-edge-label" data-uml-label-role="edge" x="465" y="450" text-anchor="middle" font-family="monospace" font-size="11" fill="#1e293b">route /v1</text><text class="uml-edge-label" data-uml-label-role="edge" x="587" y="458" text-anchor="middle" font-family="monospace" font-size="11" fill="#1e293b">route /v2</text><text class="uml-edge-label" data-uml-label-role="edge" x="282" y="635" text-anchor="middle" font-family="monospace" font-size="11" fill="#1e293b">read/write</text><rect class="uml-edge-label-bg" data-uml-label-role="edge-background" x="383" y="722" width="66" height="18" fill="white" opacity="0.85"/><text class="uml-edge-label" data-uml-label-role="edge" x="416" y="735" text-anchor="middle" font-family="monospace" font-size="11" fill="#1e293b">read-only</text><text class="uml-edge-label" data-uml-label-role="edge" x="770" y="776" text-anchor="middle" font-family="monospace" font-size="11" fill="#1e293b">upload</text><rect class="uml-edge-label-bg" data-uml-label-role="edge-background" x="1063" y="771" width="102" height="18" fill="white" opacity="0.85"/><text class="uml-edge-label" data-uml-label-role="edge" x="1114" y="764" text-anchor="middle" font-family="monospace" font-size="11" fill="#1e293b">publish events</text><rect class="uml-edge-label-bg" data-uml-label-role="edge-background" x="1148" y="771" width="102" height="18" fill="white" opacity="0.85"/><text class="uml-edge-label" data-uml-label-role="edge" x="1199" y="764" text-anchor="middle" font-family="monospace" font-size="11" fill="#1e293b">publish events</text><text class="uml-edge-label" data-uml-label-role="edge" x="841" y="942" text-anchor="middle" font-family="monospace" font-size="11" fill="#1e293b">consume</text><rect class="uml-edge-label-bg" data-uml-label-role="edge-background" x="505" y="1226" width="66" height="18" fill="white" opacity="0.85"/><text class="uml-edge-label" data-uml-label-role="edge" x="538" y="1239" text-anchor="middle" font-family="monospace" font-size="11" fill="#1e293b">aggregate</text><text x="422" y="40" font-family="monospace" font-size="11" font-weight="600" fill="#ffffff">package CDN Layer</text><text x="300" y="284" font-family="monospace" font-size="11" font-weight="600" fill="#ffffff">package API Cluster</text><text x="56" y="772" font-family="monospace" font-size="11" font-weight="600" fill="#ffffff">package Storage Layer</text><text x="1052" y="772" font-family="monospace" font-size="11" font-weight="600" fill="#ffffff">package Event Bus</text><text x="422" y="1016" font-family="monospace" font-size="11" font-weight="600" fill="#ffffff">package Analytics Platform</text></svg>