<svg xmlns="http://www.w3.org/2000/svg" width="1168" height="1328" viewBox="0 0 1168 1328"><rect width="100%" height="100%" fill="#f0f4f8"/><defs><marker id="arrow-open" viewBox="0 0 10 10" refX="9" refY="5" markerWidth="10" markerHeight="10" markerUnits="userSpaceOnUse" orient="auto-start-reverse"><path d="M0,0 L10,5 L0,10" fill="none" stroke="#1e293b" stroke-width="1.5"/></marker><marker id="arrow-triangle" viewBox="0 0 12 12" refX="11" refY="6" markerWidth="12" markerHeight="12" markerUnits="userSpaceOnUse" orient="auto-start-reverse"><polygon points="0,0 12,6 0,12" fill="#ffffff" stroke="#1e293b" stroke-width="1.5" fill-rule="nonzero"/></marker><marker id="arrow-diamond-filled" viewBox="0 0 14 10" refX="13" refY="5" markerWidth="14" markerHeight="10" markerUnits="userSpaceOnUse" orient="auto-start-reverse"><path d="M0,5 L7,0 L14,5 L7,10 z" fill="#1e293b" stroke="#1e293b" stroke-width="1"/></marker><marker id="arrow-diamond-open" viewBox="0 0 14 10" refX="13" refY="5" markerWidth="14" markerHeight="10" markerUnits="userSpaceOnUse" orient="auto-start-reverse"><path d="M0,5 L7,0 L14,5 L7,10 z" fill="#ffffff" stroke="#1e293b" stroke-width="1"/></marker></defs><rect class="uml-group-frame" data-uml-group="CDN Layer" x="440" y="52" width="248" height="156" rx="8" ry="8" fill="#f8faff" stroke="#1e293b" stroke-width="1.5"/><rect x="440" y="52" width="152" height="40" rx="8" ry="8" fill="#1e293b" stroke="#1e293b" stroke-width="1.5"/><rect x="440" y="84" width="152" height="8" fill="#1e293b" stroke="none"/><text x="448" y="84" font-family="monospace" font-size="11" font-weight="600" fill="#ffffff">package CDN Layer</text><line x1="440" y1="92" x2="688" y2="92" stroke="#1e293b" stroke-width="1"/><rect class="uml-group-frame" data-uml-group="API Cluster" x="320" y="252" width="488" height="356" rx="8" ry="8" fill="#f8faff" stroke="#1e293b" stroke-width="1.5"/><rect x="320" y="252" width="168" height="40" rx="8" ry="8" fill="#1e293b" stroke="#1e293b" stroke-width="1.5"/><rect x="320" y="284" width="168" height="8" fill="#1e293b" stroke="none"/><text x="328" y="284" font-family="monospace" font-size="11" font-weight="600" fill="#ffffff">package API Cluster</text><line x1="320" y1="292" x2="808" y2="292" stroke="#1e293b" stroke-width="1"/><rect class="uml-group-frame" data-uml-group="Storage Layer" x="320" y="652" width="728" height="156" rx="8" ry="8" fill="#f8faff" stroke="#1e293b" stroke-width="1.5"/><rect x="320" y="652" width="184" height="40" rx="8" ry="8" fill="#1e293b" stroke="#1e293b" stroke-width="1.5"/><rect x="320" y="684" width="184" height="8" fill="#1e293b" stroke="none"/><text x="328" y="684" font-family="monospace" font-size="11" font-weight="600" fill="#ffffff">package Storage Layer</text><line x1="320" y1="692" x2="1048" y2="692" stroke="#1e293b" stroke-width="1"/><rect class="uml-group-frame" data-uml-group="Event Bus" x="80" y="652" width="248" height="156" rx="8" ry="8" fill="#f8faff" stroke="#1e293b" stroke-width="1.5"/><rect x="80" y="652" width="152" height="40" rx="8" ry="8" fill="#1e293b" stroke="#1e293b" stroke-width="1.5"/><rect x="80" y="684" width="152" height="8" fill="#1e293b" stroke="none"/><text x="88" y="684" font-family="monospace" font-size="11" font-weight="600" fill="#ffffff">package Event Bus</text><line x1="80" y1="692" x2="328" y2="692" stroke="#1e293b" stroke-width="1"/><rect class="uml-group-frame" data-uml-group="Analytics Platform" x="440" y="852" width="248" height="356" rx="8" ry="8" fill="#f8faff" stroke="#1e293b" stroke-width="1.5"/><rect x="440" y="852" width="224" height="40" rx="8" ry="8" fill="#1e293b" stroke="#1e293b" stroke-width="1.5"/><rect x="440" y="884" width="224" height="8" fill="#1e293b" stroke="none"/><text x="448" y="884" font-family="monospace" font-size="11" font-weight="600" fill="#ffffff">package Analytics Platform</text><line x1="440" y1="892" x2="688" y2="892" stroke="#1e293b" stroke-width="1"/><desc data-uml-id="CDN Layer::EC">CDN Layer::EC</desc><rect class="uml-node uml-component" data-uml-kind="component" x="464" y="104" width="200" height="80" rx="4" ry="4" fill="#f0f4f8" stroke="#1e293b" stroke-width="1"/><rect x="460" y="116" width="16" height="8" fill="#f0f4f8" stroke="#1e293b" stroke-width="1"/><rect x="460" y="164" width="16" height="8" fill="#f0f4f8" stroke="#1e293b" stroke-width="1"/><text x="564" y="150" text-anchor="middle" font-family="monospace" font-size="13" font-weight="600" fill="#0f172a">Edge Cache</text><text x="564" y="118" text-anchor="middle" font-family="monospace" font-size="10" fill="#0f172a">«component»</text><desc data-uml-id="API Cluster::LB">API Cluster::LB</desc><rect class="uml-node uml-component" data-uml-kind="component" x="464" y="304" width="200" height="80" rx="4" ry="4" fill="#f0f4f8" stroke="#1e293b" stroke-width="1"/><rect x="460" y="316" width="16" height="8" fill="#f0f4f8" stroke="#1e293b" stroke-width="1"/><rect x="460" y="364" width="16" height="8" fill="#f0f4f8" stroke="#1e293b" stroke-width="1"/><text x="564" y="350" text-anchor="middle" font-family="monospace" font-size="13" font-weight="600" fill="#0f172a">Load Balancer</text><text x="564" y="318" text-anchor="middle" font-family="monospace" font-size="10" fill="#0f172a">«component»</text><desc data-uml-id="API Cluster::SA">API Cluster::SA</desc><rect class="uml-node uml-component" data-uml-kind="component" x="344" y="504" width="200" height="80" rx="4" ry="4" fill="#f0f4f8" stroke="#1e293b" stroke-width="1"/><rect x="340" y="516" width="16" height="8" fill="#f0f4f8" stroke="#1e293b" stroke-width="1"/><rect x="340" y="564" width="16" height="8" fill="#f0f4f8" stroke="#1e293b" stroke-width="1"/><text x="444" y="550" text-anchor="middle" font-family="monospace" font-size="13" font-weight="600" fill="#0f172a">Service A</text><text x="444" y="518" text-anchor="middle" font-family="monospace" font-size="10" fill="#0f172a">«component»</text><desc data-uml-id="API Cluster::SB">API Cluster::SB</desc><rect class="uml-node uml-component" data-uml-kind="component" x="584" y="504" width="200" height="80" rx="4" ry="4" fill="#f0f4f8" stroke="#1e293b" stroke-width="1"/><rect x="580" y="516" width="16" height="8" fill="#f0f4f8" stroke="#1e293b" stroke-width="1"/><rect x="580" y="564" width="16" height="8" fill="#f0f4f8" stroke="#1e293b" stroke-width="1"/><text x="684" y="550" text-anchor="middle" font-family="monospace" font-size="13" font-weight="600" fill="#0f172a">Service B</text><text x="684" y="518" text-anchor="middle" font-family="monospace" font-size="10" fill="#0f172a">«component»</text><desc data-uml-id="Storage Layer::DB1">Storage Layer::DB1</desc><rect class="uml-node uml-component" data-uml-kind="component" x="344" y="704" width="200" height="80" rx="4" ry="4" fill="#f0f4f8" stroke="#1e293b" stroke-width="1"/><rect x="340" y="716" width="16" height="8" fill="#f0f4f8" stroke="#1e293b" stroke-width="1"/><rect x="340" y="764" width="16" height="8" fill="#f0f4f8" stroke="#1e293b" stroke-width="1"/><text x="444" y="750" text-anchor="middle" font-family="monospace" font-size="13" font-weight="600" fill="#0f172a">Primary DB</text><text x="444" y="718" text-anchor="middle" font-family="monospace" font-size="10" fill="#0f172a">«component»</text><desc data-uml-id="Storage Layer::DB2">Storage Layer::DB2</desc><rect class="uml-node uml-component" data-uml-kind="component" x="584" y="704" width="200" height="80" rx="4" ry="4" fill="#f0f4f8" stroke="#1e293b" stroke-width="1"/><rect x="580" y="716" width="16" height="8" fill="#f0f4f8" stroke="#1e293b" stroke-width="1"/><rect x="580" y="764" width="16" height="8" fill="#f0f4f8" stroke="#1e293b" stroke-width="1"/><text x="684" y="750" text-anchor="middle" font-family="monospace" font-size="13" font-weight="600" fill="#0f172a">Read Replica</text><text x="684" y="718" text-anchor="middle" font-family="monospace" font-size="10" fill="#0f172a">«component»</text><desc data-uml-id="Storage Layer::S3">Storage Layer::S3</desc><rect class="uml-node uml-component" data-uml-kind="component" x="824" y="704" width="200" height="80" rx="4" ry="4" fill="#f0f4f8" stroke="#1e293b" stroke-width="1"/><rect x="820" y="716" width="16" height="8" fill="#f0f4f8" stroke="#1e293b" stroke-width="1"/><rect x="820" y="764" width="16" height="8" fill="#f0f4f8" stroke="#1e293b" stroke-width="1"/><text x="924" y="750" text-anchor="middle" font-family="monospace" font-size="13" font-weight="600" fill="#0f172a">Object Store</text><text x="924" y="718" text-anchor="middle" font-family="monospace" font-size="10" fill="#0f172a">«component»</text><desc data-uml-id="Event Bus::KF">Event Bus::KF</desc><rect class="uml-node uml-component" data-uml-kind="component" x="104" y="704" width="200" height="80" rx="4" ry="4" fill="#f0f4f8" stroke="#1e293b" stroke-width="1"/><rect x="100" y="716" width="16" height="8" fill="#f0f4f8" stroke="#1e293b" stroke-width="1"/><rect x="100" y="764" width="16" height="8" fill="#f0f4f8" stroke="#1e293b" stroke-width="1"/><text x="204" y="750" text-anchor="middle" font-family="monospace" font-size="13" font-weight="600" fill="#0f172a">Kafka</text><text x="204" y="718" text-anchor="middle" font-family="monospace" font-size="10" fill="#0f172a">«component»</text><desc data-uml-id="Analytics Platform::SP">Analytics Platform::SP</desc><rect class="uml-node uml-component" data-uml-kind="component" x="464" y="904" width="200" height="80" rx="4" ry="4" fill="#f0f4f8" stroke="#1e293b" stroke-width="1"/><rect x="460" y="916" width="16" height="8" fill="#f0f4f8" stroke="#1e293b" stroke-width="1"/><rect x="460" y="964" width="16" height="8" fill="#f0f4f8" stroke="#1e293b" stroke-width="1"/><text x="564" y="950" text-anchor="middle" font-family="monospace" font-size="13" font-weight="600" fill="#0f172a">Stream Processor</text><text x="564" y="918" text-anchor="middle" font-family="monospace" font-size="10" fill="#0f172a">«component»</text><desc data-uml-id="Analytics Platform::DW">Analytics Platform::DW</desc><rect class="uml-node uml-component" data-uml-kind="component" x="464" y="1104" width="200" height="80" rx="4" ry="4" fill="#f0f4f8" stroke="#1e293b" stroke-width="1"/><rect x="460" y="1116" width="16" height="8" fill="#f0f4f8" stroke="#1e293b" stroke-width="1"/><rect x="460" y="1164" width="16" height="8" fill="#f0f4f8" stroke="#1e293b" stroke-width="1"/><text x="564" y="1150" text-anchor="middle" font-family="monospace" font-size="13" font-weight="600" fill="#0f172a">Data Warehouse</text><text x="564" y="1118" text-anchor="middle" font-family="monospace" font-size="10" fill="#0f172a">«component»</text><polyline class="uml-relation" data-uml-from="EC" data-uml-to="LB" data-uml-arrow="--&gt;" points="564,184 564,244 564,304" fill="none" stroke="#1e293b" stroke-width="2" marker-end="url(#arrow-open)" /><polyline class="uml-relation" data-uml-from="LB" data-uml-to="SA" data-uml-arrow="--&gt;" points="564,384 564,440 444,440 444,504" fill="none" stroke="#1e293b" stroke-width="2" marker-end="url(#arrow-open)" /><polyline class="uml-relation" data-uml-from="LB" data-uml-to="SB" data-uml-arrow="--&gt;" points="564,384 564,448 684,448 684,504" fill="none" stroke="#1e293b" stroke-width="2" marker-end="url(#arrow-open)" /><polyline class="uml-relation" data-uml-from="SA" data-uml-to="DB1" data-uml-arrow="--&gt;" points="444,584 444,628 444,704" fill="none" stroke="#1e293b" stroke-width="2" marker-end="url(#arrow-open)" /><polyline class="uml-relation" data-uml-from="SA" data-uml-to="DB2" data-uml-arrow="--&gt;" points="444,584 444,636 684,636 684,704" fill="none" stroke="#1e293b" stroke-width="2" marker-end="url(#arrow-open)" /><polyline class="uml-relation" data-uml-from="SB" data-uml-to="S3" data-uml-arrow="--&gt;" points="684,584 684,652 924,652 924,704" fill="none" stroke="#1e293b" stroke-width="2" marker-end="url(#arrow-open)" /><polyline class="uml-relation" data-uml-from="SA" data-uml-to="KF" data-uml-arrow="--&gt;" points="444,584 444,644 204,644 204,704" fill="none" stroke="#1e293b" stroke-width="2" marker-end="url(#arrow-open)" /><polyline class="uml-relation" data-uml-from="SB" data-uml-to="KF" data-uml-arrow="--&gt;" points="684,584 684,660 204,660 204,704" fill="none" stroke="#1e293b" stroke-width="2" marker-end="url(#arrow-open)" /><polyline class="uml-relation" data-uml-from="KF" data-uml-to="SP" data-uml-arrow="--&gt;" points="204,784 204,844 564,844 564,904" fill="none" stroke="#1e293b" stroke-width="2" marker-end="url(#arrow-open)" /><polyline class="uml-relation" data-uml-from="SP" data-uml-to="DW" data-uml-arrow="--&gt;" points="564,984 564,1044 564,1104" fill="none" stroke="#1e293b" stroke-width="2" marker-end="url(#arrow-open)" /><text x="564" y="232" text-anchor="middle" font-family="monospace" font-size="11" fill="#1e293b">origin pull</text><text x="504" y="428" text-anchor="middle" font-family="monospace" font-size="11" fill="#1e293b">route /v1</text><text x="624" y="436" text-anchor="middle" font-family="monospace" font-size="11" fill="#1e293b">route /v2</text><text x="444" y="632" text-anchor="middle" font-family="monospace" font-size="11" fill="#1e293b">read/write</text><text x="564" y="624" text-anchor="middle" font-family="monospace" font-size="11" fill="#1e293b">read-only</text><text x="804" y="640" text-anchor="middle" font-family="monospace" font-size="11" fill="#1e293b">upload</text><text x="162" y="676" text-anchor="middle" font-family="monospace" font-size="11" fill="#1e293b">publish events</text><text x="247" y="676" text-anchor="middle" font-family="monospace" font-size="11" fill="#1e293b">publish events</text><text x="384" y="832" text-anchor="middle" font-family="monospace" font-size="11" fill="#1e293b">consume</text><text x="564" y="1032" text-anchor="middle" font-family="monospace" font-size="11" fill="#1e293b">aggregate</text></svg>