<svg xmlns="http://www.w3.org/2000/svg" width="436" height="410" viewBox="0 0 436 410"><rect width="100%" height="100%" fill="#f0f4f8"/><defs><marker id="arrow-open" viewBox="0 0 10 10" refX="9" refY="5" markerWidth="10" markerHeight="10" markerUnits="userSpaceOnUse" orient="auto-start-reverse"><path d="M0,0 L10,5 L0,10" fill="none" stroke="#1e293b" stroke-width="1.5"/></marker><marker id="arrow-triangle" viewBox="0 0 12 12" refX="11" refY="6" markerWidth="12" markerHeight="12" markerUnits="userSpaceOnUse" orient="auto-start-reverse"><polygon points="0,0 12,6 0,12" fill="#ffffff" stroke="#1e293b" stroke-width="1.5" fill-rule="nonzero"/></marker><marker id="arrow-diamond-filled" viewBox="0 0 14 10" refX="13" refY="5" markerWidth="14" markerHeight="10" markerUnits="userSpaceOnUse" orient="auto-start-reverse"><path d="M0,5 L7,0 L14,5 L7,10 z" fill="#1e293b" stroke="#1e293b" stroke-width="1"/></marker><marker id="arrow-diamond-open" viewBox="0 0 14 10" refX="13" refY="5" markerWidth="14" markerHeight="10" markerUnits="userSpaceOnUse" orient="auto-start-reverse"><path d="M0,5 L7,0 L14,5 L7,10 z" fill="#ffffff" stroke="#1e293b" stroke-width="1"/></marker><marker id="arrow-double-open" viewBox="0 0 16 12" refX="15" refY="6" markerWidth="16" markerHeight="12" markerUnits="userSpaceOnUse" orient="auto-start-reverse"><path d="M0,1 L8,6 L0,11 M7,1 L15,6 L7,11" fill="none" stroke="#1e293b" stroke-width="1.5" stroke-linejoin="round"/></marker><marker id="arrow-circle-open" viewBox="0 0 12 12" refX="11" refY="6" markerWidth="12" markerHeight="12" markerUnits="userSpaceOnUse" orient="auto-start-reverse"><circle cx="6" cy="6" r="4" fill="#ffffff" stroke="#1e293b" stroke-width="1.5"/></marker><marker id="arrow-circle-filled" viewBox="0 0 12 12" refX="11" refY="6" markerWidth="12" markerHeight="12" markerUnits="userSpaceOnUse" orient="auto-start-reverse"><circle cx="6" cy="6" r="4" fill="#1e293b" stroke="#1e293b" stroke-width="1.5"/></marker><marker id="arrow-triangle-filled" viewBox="0 0 12 12" refX="11" refY="6" markerWidth="12" markerHeight="12" markerUnits="userSpaceOnUse" orient="auto-start-reverse"><polygon points="0,0 12,6 0,12" fill="#1e293b" stroke="#1e293b" stroke-width="1.5"/></marker><marker id="arrow-box-filled" viewBox="0 0 12 12" refX="11" refY="6" markerWidth="12" markerHeight="12" markerUnits="userSpaceOnUse" orient="auto-start-reverse"><rect x="2" y="2" width="8" height="8" fill="#1e293b" stroke="#1e293b" stroke-width="1.5"/></marker><marker id="arrow-plus" viewBox="0 0 12 12" refX="11" refY="6" markerWidth="12" markerHeight="12" markerUnits="userSpaceOnUse" orient="auto-start-reverse"><path d="M6,1 L6,11 M1,6 L11,6" fill="none" stroke="#1e293b" stroke-width="1.8" stroke-linecap="round"/></marker><marker id="arrow-slash" viewBox="0 0 12 12" refX="10" refY="6" markerWidth="12" markerHeight="12" markerUnits="userSpaceOnUse" orient="auto-start-reverse"><path d="M3,2 L9,10" fill="none" stroke="#1e293b" stroke-width="1.8" stroke-linecap="round"/></marker><marker id="arrow-cross" viewBox="0 0 12 12" refX="11" refY="6" markerWidth="12" markerHeight="12" markerUnits="userSpaceOnUse" orient="auto-start-reverse"><path d="M2,2 L10,10 M10,2 L2,10" fill="none" stroke="#1e293b" stroke-width="1.8" stroke-linecap="round"/></marker><marker id="arrow-bracket-open" viewBox="0 0 12 14" refX="11" refY="7" markerWidth="12" markerHeight="14" markerUnits="userSpaceOnUse" orient="auto-start-reverse"><path d="M10,1 L4,1 L4,13 L10,13" fill="none" stroke="#1e293b" stroke-width="1.8" stroke-linecap="round" stroke-linejoin="round"/></marker></defs><marker id="arrow-ie-one" viewBox="0 0 24 16" refX="22" refY="8" markerWidth="24" markerHeight="16" markerUnits="userSpaceOnUse" orient="auto-start-reverse"><path d="M16,2 L16,14" fill="none" stroke="#1e293b" stroke-width="1.8" stroke-linecap="round"/></marker><marker id="arrow-ie-zero-one" viewBox="0 0 30 16" refX="28" refY="8" markerWidth="30" markerHeight="16" markerUnits="userSpaceOnUse" orient="auto-start-reverse"><circle cx="10" cy="8" r="4" fill="#ffffff" stroke="#1e293b" stroke-width="1.5"/><path d="M20,2 L20,14" fill="none" stroke="#1e293b" stroke-width="1.8" stroke-linecap="round"/></marker><marker id="arrow-ie-zero-many" viewBox="0 0 34 18" refX="32" refY="9" markerWidth="34" markerHeight="18" markerUnits="userSpaceOnUse" orient="auto-start-reverse"><circle cx="8" cy="9" r="4" fill="#ffffff" stroke="#1e293b" stroke-width="1.5"/><path d="M18,9 L31,2 M18,9 L31,9 M18,9 L31,16" fill="none" stroke="#1e293b" stroke-width="1.7" stroke-linecap="round"/></marker><marker id="arrow-ie-one-many" viewBox="0 0 34 18" refX="32" refY="9" markerWidth="34" markerHeight="18" markerUnits="userSpaceOnUse" orient="auto-start-reverse"><path d="M8,2 L8,16 M18,9 L31,2 M18,9 L31,9 M18,9 L31,16" fill="none" stroke="#1e293b" stroke-width="1.7" stroke-linecap="round"/></marker><text x="8" y="8" font-family="monospace" font-size="18" font-weight="600">Component style selectors and stereotypes</text><desc data-uml-id="Public API">Public API</desc><rect class="uml-node uml-component" data-uml-kind="component" x="150" y="46" width="165" height="50" rx="4" ry="4" fill="#dcfce7" stroke="#15803d" stroke-width="1.5"/><rect x="146" y="58" width="16" height="8" fill="#dcfce7" stroke="#15803d" stroke-width="1"/><rect x="146" y="76" width="16" height="8" fill="#dcfce7" stroke="#15803d" stroke-width="1"/><text x="232" y="77" text-anchor="middle" font-family="monospace" font-size="13" font-weight="600" fill="#14532d">Public API</text><text x="232" y="63" text-anchor="middle" font-family="monospace" font-size="10" fill="#64748b">&lt;&lt;service&gt;&gt;</text><desc data-uml-id="Worker">Worker</desc><rect class="uml-node uml-component" data-uml-kind="component" x="46" y="174" width="165" height="50" rx="4" ry="4" fill="#f0f4f8" stroke="#1e293b" stroke-width="1.5"/><rect x="42" y="186" width="16" height="8" fill="#f0f4f8" stroke="#1e293b" stroke-width="1"/><rect x="42" y="204" width="16" height="8" fill="#f0f4f8" stroke="#1e293b" stroke-width="1"/><text x="128" y="205" text-anchor="middle" font-family="monospace" font-size="13" font-weight="600" fill="#0f172a">Worker</text><desc data-uml-id="Events">Events</desc><circle class="uml-node uml-interface" data-uml-kind="interface" cx="337" cy="199" r="18" fill="#fef3c7" stroke="#b45309" stroke-width="1.5"/><text x="337" y="227" text-anchor="middle" font-family="monospace" font-size="13" font-weight="600" fill="#92400e">Events</text><desc data-uml-id="HTTPS">HTTPS</desc><rect class="uml-node uml-port" data-uml-kind="port" data-uml-port-direction="" x="220" y="315" width="24" height="24" rx="2" ry="2" fill="#e0f2fe" stroke="#0369a1" stroke-width="1.5"/><text x="232" y="355" text-anchor="middle" font-family="monospace" font-size="13" font-weight="600" fill="#075985">HTTPS</text><polyline class="uml-relation" data-uml-from="API" data-uml-to="Worker" data-uml-arrow="--&gt;" points="233,96 233,131 128,131 128,174" fill="none" stroke="#1e293b" stroke-width="2" marker-end="url(#arrow-open)" /><polyline class="uml-relation" data-uml-from="API" data-uml-to="Events" data-uml-arrow="--&gt;" points="233,96 233,139 337,139 337,181" fill="none" stroke="#1e293b" stroke-width="2" marker-end="url(#arrow-open)" /><polyline class="uml-relation" data-uml-from="Worker" data-uml-to="HTTPS" data-uml-arrow="--&gt;" points="128,224 128,263 233,263 233,302" fill="none" stroke="#1e293b" stroke-width="2" marker-end="url(#arrow-open)" /><text class="uml-edge-label" data-uml-label-role="edge" x="180" y="119" text-anchor="middle" font-family="monospace" font-size="11" fill="#1e293b">dispatch</text><text class="uml-edge-label" data-uml-label-role="edge" x="285" y="127" text-anchor="middle" font-family="monospace" font-size="11" fill="#1e293b">publish</text><text class="uml-edge-label" data-uml-label-role="edge" x="180" y="251" text-anchor="middle" font-family="monospace" font-size="11" fill="#1e293b">serve</text></svg>