<svg xmlns="http://www.w3.org/2000/svg" width="760" height="480" viewBox="0 0 760 480"><rect width="100%" height="100%" fill="white"/><text x="24" y="32" font-family="monospace" font-size="12" fill="#475569">Railroad diagram (regex)</text><text x="24" y="46" font-family="monospace" font-size="11" fill="#334155">/&#39; Regex diagrams not yet supported by this parser/</text><line x1="24" y1="76" x2="736" y2="76" stroke="#94a3b8" stroke-width="1"/><circle cx="40" cy="76" r="5" fill="#1e293b"/><rect x="58" y="65" width="426" height="22" rx="4" ry="4" fill="#e0f2fe" stroke="#0284c7" stroke-width="1"/><text x="64" y="80" font-family="monospace" font-size="11" fill="#0c4a6e">&#39;&#39; Regex diagrams not yet supported by this parser&#39;</text><circle cx="724" cy="76" r="5" fill="#1e293b"/><text x="24" y="126" font-family="monospace" font-size="11" fill="#334155">/[a-z]/</text><line x1="24" y1="156" x2="736" y2="156" stroke="#94a3b8" stroke-width="1"/><circle cx="40" cy="156" r="5" fill="#1e293b"/><rect x="58" y="145" width="58" height="22" rx="4" ry="4" fill="#e0f2fe" stroke="#0284c7" stroke-width="1"/><text x="64" y="160" font-family="monospace" font-size="11" fill="#0c4a6e">[a-z]</text><circle cx="724" cy="156" r="5" fill="#1e293b"/><text x="24" y="206" font-family="monospace" font-size="11" fill="#334155">/[A-Z0-9]/</text><line x1="24" y1="236" x2="736" y2="236" stroke="#94a3b8" stroke-width="1"/><circle cx="40" cy="236" r="5" fill="#1e293b"/><rect x="58" y="225" width="82" height="22" rx="4" ry="4" fill="#e0f2fe" stroke="#0284c7" stroke-width="1"/><text x="64" y="240" font-family="monospace" font-size="11" fill="#0c4a6e">[A-Z0-9]</text><circle cx="724" cy="236" r="5" fill="#1e293b"/><text x="24" y="286" font-family="monospace" font-size="11" fill="#334155">/\d+/</text><line x1="24" y1="316" x2="736" y2="316" stroke="#94a3b8" stroke-width="1"/><circle cx="40" cy="316" r="5" fill="#1e293b"/><rect x="58" y="305" width="42" height="22" rx="4" ry="4" fill="#e0f2fe" stroke="#0284c7" stroke-width="1"/><text x="64" y="320" font-family="monospace" font-size="11" fill="#0c4a6e">\d+</text><circle cx="724" cy="316" r="5" fill="#1e293b"/><text x="24" y="366" font-family="monospace" font-size="11" fill="#334155">/\w+/</text><line x1="24" y1="396" x2="736" y2="396" stroke="#94a3b8" stroke-width="1"/><circle cx="40" cy="396" r="5" fill="#1e293b"/><rect x="58" y="385" width="42" height="22" rx="4" ry="4" fill="#e0f2fe" stroke="#0284c7" stroke-width="1"/><text x="64" y="400" font-family="monospace" font-size="11" fill="#0c4a6e">\w+</text><circle cx="724" cy="396" r="5" fill="#1e293b"/></svg>