<svg data-regex-locale="en" data-regex-pattern-count="5" xmlns="http://www.w3.org/2000/svg" width="310" height="452" viewBox="0 0 310 452"><rect width="100%" height="100%" fill="white"/><text x="155" y="38" font-family="monospace" font-size="15" font-weight="600" text-anchor="middle" fill="#222">/a* | b+ | c? | d{3} | e{2,5}/</text><line x1="20" y1="72" x2="40" y2="72" stroke="#666" stroke-width="1.5"/><circle cx="20" cy="72" r="5" fill="#333"/><g transform="translate(40,58)"><metadata class="regex-token regex-alt"/><metadata class="ebnf-token ebnf-alt"/><line x1="20" y1="14" x2="20" y2="14" stroke="#666" stroke-width="1.5"/><g transform="translate(20,0)"><metadata class="regex-token regex-repeat"/><metadata class="ebnf-token ebnf-repetition"/><g transform="translate(20,0)"><rect x="0" y="0" width="40" height="28" rx="14" ry="14" fill="#fff8e1" stroke="#f9a825" stroke-width="1.5"/>
<text x="20" y="14" font-family="monospace" font-size="12" text-anchor="middle" dominant-baseline="middle" fill="#333">a</text></g><line x1="0" y1="14" x2="20" y2="14" stroke="#666" stroke-width="1.5"/><line x1="60" y1="14" x2="80" y2="14" stroke="#666" stroke-width="1.5"/><path d="M 60 14 Q 60 44 20 44" stroke="#999" stroke-width="1" fill="none" stroke-dasharray="4 2"/><path d="M 20 44 Q 20 14 20 14" stroke="#999" stroke-width="1" fill="none" stroke-dasharray="4 2"/><polygon points="20,14 26,10 26,18" fill="#999"/><text x="40" y="42" font-family="monospace" font-size="10" fill="#888" text-anchor="middle">*</text></g><line x1="100" y1="14" x2="100" y2="14" stroke="#666" stroke-width="1.5"/><line x1="20" y1="90" x2="20" y2="90" stroke="#666" stroke-width="1.5"/><g transform="translate(20,76)"><metadata class="regex-token regex-repeat"/><metadata class="ebnf-token ebnf-repetition"/><g transform="translate(20,0)"><rect x="0" y="0" width="40" height="28" rx="14" ry="14" fill="#fff8e1" stroke="#f9a825" stroke-width="1.5"/>
<text x="20" y="14" font-family="monospace" font-size="12" text-anchor="middle" dominant-baseline="middle" fill="#333">b</text></g><line x1="0" y1="14" x2="20" y2="14" stroke="#666" stroke-width="1.5"/><line x1="60" y1="14" x2="80" y2="14" stroke="#666" stroke-width="1.5"/><path d="M 60 14 Q 60 44 20 44" stroke="#999" stroke-width="1" fill="none" stroke-dasharray="4 2"/><text x="40" y="42" font-family="monospace" font-size="10" fill="#888" text-anchor="middle">+</text></g><line x1="100" y1="90" x2="100" y2="90" stroke="#666" stroke-width="1.5"/><line x1="20" y1="166" x2="20" y2="166" stroke="#666" stroke-width="1.5"/><g transform="translate(20,152)"><metadata class="regex-token regex-repeat"/><metadata class="ebnf-token ebnf-optional"/><g transform="translate(20,0)"><rect x="0" y="0" width="40" height="28" rx="14" ry="14" fill="#fff8e1" stroke="#f9a825" stroke-width="1.5"/>
<text x="20" y="14" font-family="monospace" font-size="12" text-anchor="middle" dominant-baseline="middle" fill="#333">c</text></g><line x1="0" y1="14" x2="20" y2="14" stroke="#666" stroke-width="1.5"/><line x1="60" y1="14" x2="80" y2="14" stroke="#666" stroke-width="1.5"/><path d="M 0 14 Q 0 40 40 40" stroke="#aaa" stroke-width="1" fill="none" stroke-dasharray="3 3"/><path d="M 40 40 Q 80 40 80 14" stroke="#aaa" stroke-width="1" fill="none" stroke-dasharray="3 3"/><text x="40" y="38" font-family="monospace" font-size="10" fill="#aaa" text-anchor="middle">?</text></g><line x1="100" y1="166" x2="100" y2="166" stroke="#666" stroke-width="1.5"/><line x1="20" y1="242" x2="20" y2="242" stroke="#666" stroke-width="1.5"/><g transform="translate(20,228)"><metadata class="regex-token regex-repeat"/><metadata class="ebnf-token ebnf-repetition"/><metadata data-regex-repeat="&#39;d&#39;{3}"/><metadata data-rail-repeat-label="exactly 3"/><g transform="translate(20,0)"><rect x="0" y="0" width="40" height="28" rx="14" ry="14" fill="#fff8e1" stroke="#f9a825" stroke-width="1.5"/>
<text x="20" y="14" font-family="monospace" font-size="12" text-anchor="middle" dominant-baseline="middle" fill="#333">d</text></g><line x1="0" y1="14" x2="20" y2="14" stroke="#666" stroke-width="1.5"/><line x1="60" y1="14" x2="80" y2="14" stroke="#666" stroke-width="1.5"/><text x="40" y="50" font-family="monospace" font-size="10" fill="#888" text-anchor="middle">{3}</text></g><line x1="100" y1="242" x2="100" y2="242" stroke="#666" stroke-width="1.5"/><line x1="20" y1="322" x2="20" y2="322" stroke="#666" stroke-width="1.5"/><g transform="translate(20,308)"><metadata class="regex-token regex-repeat"/><metadata class="ebnf-token ebnf-repetition"/><metadata data-regex-repeat="&#39;e&#39;{2,5}"/><metadata data-rail-repeat-label="2 to 5"/><g transform="translate(20,0)"><rect x="0" y="0" width="40" height="28" rx="14" ry="14" fill="#fff8e1" stroke="#f9a825" stroke-width="1.5"/>
<text x="20" y="14" font-family="monospace" font-size="12" text-anchor="middle" dominant-baseline="middle" fill="#333">e</text></g><line x1="0" y1="14" x2="20" y2="14" stroke="#666" stroke-width="1.5"/><line x1="60" y1="14" x2="80" y2="14" stroke="#666" stroke-width="1.5"/><text x="40" y="50" font-family="monospace" font-size="10" fill="#888" text-anchor="middle">{2,5}</text></g><line x1="100" y1="322" x2="100" y2="322" stroke="#666" stroke-width="1.5"/><line x1="20" y1="14" x2="20" y2="322" stroke="#666" stroke-width="1.5"/><line x1="100" y1="14" x2="100" y2="322" stroke="#666" stroke-width="1.5"/></g><line x1="160" y1="72" x2="180" y2="72" stroke="#666" stroke-width="1.5"/><circle cx="180" cy="72" r="6" fill="none" stroke="#333" stroke-width="2"/><circle cx="180" cy="72" r="3" fill="#333"/></svg>