<svg xmlns="http://www.w3.org/2000/svg" width="760" height="320" viewBox="0 0 760 320"><rect width="100%" height="100%" fill="white"/><text x="24" y="32" font-family="monospace" font-size="12" fill="#475569">Railroad diagram (regex)</text><text x="24" y="46" font-family="monospace" font-size="11" fill="#334155">/&#39; Regex alternation (not yet supported)/</text><line x1="24" y1="76" x2="736" y2="76" stroke="#94a3b8" stroke-width="1"/><circle cx="40" cy="76" r="5" fill="#1e293b"/><rect x="58" y="65" width="194" height="22" rx="4" ry="4" fill="#e0f2fe" stroke="#0284c7" stroke-width="1"/><text x="64" y="80" font-family="monospace" font-size="11" fill="#0c4a6e">&#39;&#39; Regex alternation &#39;</text><rect x="260" y="65" width="186" height="22" rx="4" ry="4" fill="#e0f2fe" stroke="#0284c7" stroke-width="1"/><text x="266" y="80" font-family="monospace" font-size="11" fill="#0c4a6e">(&#39;not yet supported&#39;)</text><circle cx="724" cy="76" r="5" fill="#1e293b"/><text x="24" y="126" font-family="monospace" font-size="11" fill="#334155">/cat|dog/</text><line x1="24" y1="156" x2="736" y2="156" stroke="#94a3b8" stroke-width="1"/><circle cx="40" cy="156" r="5" fill="#1e293b"/><rect x="58" y="145" width="146" height="22" rx="4" ry="4" fill="#e0f2fe" stroke="#0284c7" stroke-width="1"/><text x="64" y="160" font-family="monospace" font-size="11" fill="#0c4a6e">alt(&#39;cat&#39;|&#39;dog&#39;)</text><circle cx="724" cy="156" r="5" fill="#1e293b"/><text x="24" y="206" font-family="monospace" font-size="11" fill="#334155">/(foo|bar)+/</text><line x1="24" y1="236" x2="736" y2="236" stroke="#94a3b8" stroke-width="1"/><circle cx="40" cy="236" r="5" fill="#1e293b"/><rect x="58" y="225" width="170" height="22" rx="4" ry="4" fill="#e0f2fe" stroke="#0284c7" stroke-width="1"/><text x="64" y="240" font-family="monospace" font-size="11" fill="#0c4a6e">(alt(&#39;foo&#39;|&#39;bar&#39;))+</text><circle cx="724" cy="236" r="5" fill="#1e293b"/></svg>