<svg data-regex-locale="en" data-regex-pattern-count="2" xmlns="http://www.w3.org/2000/svg" width="360" height="296" viewBox="0 0 360 296"><rect width="100%" height="100%" fill="white"/><text x="180" y="38" font-family="monospace" font-size="15" font-weight="600" text-anchor="middle" fill="#222">/cat|dog | (foo|bar)+/</text><line x1="20" y1="72" x2="40" y2="72" stroke="#666" stroke-width="1.5"/><circle cx="20" cy="72" r="5" fill="#333"/><g transform="translate(40,58)"><metadata class="regex-token regex-alt"/><metadata class="ebnf-token ebnf-alt"/><line x1="20" y1="14" x2="40" y2="14" stroke="#666" stroke-width="1.5"/><g transform="translate(40,0)"><metadata class="regex-token regex-alt"/><metadata class="ebnf-token ebnf-alt"/><line x1="20" y1="14" x2="20" y2="14" stroke="#666" stroke-width="1.5"/><g transform="translate(20,0)"><g transform="translate(0,0)"><rect x="0" y="0" width="40" height="28" rx="14" ry="14" fill="#fff8e1" stroke="#f9a825" stroke-width="1.5"/>
<text x="20" y="14" font-family="monospace" font-size="12" text-anchor="middle" dominant-baseline="middle" fill="#333">c</text></g><line x1="40" y1="14" x2="60" y2="14" stroke="#666" stroke-width="1.5"/><g transform="translate(60,0)"><rect x="0" y="0" width="40" height="28" rx="14" ry="14" fill="#fff8e1" stroke="#f9a825" stroke-width="1.5"/>
<text x="20" y="14" font-family="monospace" font-size="12" text-anchor="middle" dominant-baseline="middle" fill="#333">a</text></g><line x1="100" y1="14" x2="120" y2="14" stroke="#666" stroke-width="1.5"/><g transform="translate(120,0)"><rect x="0" y="0" width="40" height="28" rx="14" ry="14" fill="#fff8e1" stroke="#f9a825" stroke-width="1.5"/>
<text x="20" y="14" font-family="monospace" font-size="12" text-anchor="middle" dominant-baseline="middle" fill="#333">t</text></g></g><line x1="180" y1="14" x2="180" y2="14" stroke="#666" stroke-width="1.5"/><line x1="20" y1="66" x2="20" y2="66" stroke="#666" stroke-width="1.5"/><g transform="translate(20,52)"><g transform="translate(0,0)"><rect x="0" y="0" width="40" height="28" rx="14" ry="14" fill="#fff8e1" stroke="#f9a825" stroke-width="1.5"/>
<text x="20" y="14" font-family="monospace" font-size="12" text-anchor="middle" dominant-baseline="middle" fill="#333">d</text></g><line x1="40" y1="14" x2="60" y2="14" stroke="#666" stroke-width="1.5"/><g transform="translate(60,0)"><rect x="0" y="0" width="40" height="28" rx="14" ry="14" fill="#fff8e1" stroke="#f9a825" stroke-width="1.5"/>
<text x="20" y="14" font-family="monospace" font-size="12" text-anchor="middle" dominant-baseline="middle" fill="#333">o</text></g><line x1="100" y1="14" x2="120" y2="14" stroke="#666" stroke-width="1.5"/><g transform="translate(120,0)"><rect x="0" y="0" width="40" height="28" rx="14" ry="14" fill="#fff8e1" stroke="#f9a825" stroke-width="1.5"/>
<text x="20" y="14" font-family="monospace" font-size="12" text-anchor="middle" dominant-baseline="middle" fill="#333">g</text></g></g><line x1="180" y1="66" x2="180" y2="66" stroke="#666" stroke-width="1.5"/><line x1="20" y1="14" x2="20" y2="66" stroke="#666" stroke-width="1.5"/><line x1="180" y1="14" x2="180" y2="66" stroke="#666" stroke-width="1.5"/></g><line x1="240" y1="14" x2="260" y2="14" stroke="#666" stroke-width="1.5"/><line x1="20" y1="118" x2="20" y2="118" stroke="#666" stroke-width="1.5"/><g transform="translate(20,104)"><metadata class="regex-token regex-repeat"/><metadata class="ebnf-token ebnf-repetition"/><g transform="translate(20,0)"><metadata class="regex-token regex-alt"/><metadata class="ebnf-token ebnf-alt"/><line x1="20" y1="14" x2="20" y2="14" stroke="#666" stroke-width="1.5"/><g transform="translate(20,0)"><g transform="translate(0,0)"><rect x="0" y="0" width="40" height="28" rx="14" ry="14" fill="#fff8e1" stroke="#f9a825" stroke-width="1.5"/>
<text x="20" y="14" font-family="monospace" font-size="12" text-anchor="middle" dominant-baseline="middle" fill="#333">f</text></g><line x1="40" y1="14" x2="60" y2="14" stroke="#666" stroke-width="1.5"/><g transform="translate(60,0)"><rect x="0" y="0" width="40" height="28" rx="14" ry="14" fill="#fff8e1" stroke="#f9a825" stroke-width="1.5"/>
<text x="20" y="14" font-family="monospace" font-size="12" text-anchor="middle" dominant-baseline="middle" fill="#333">o</text></g><line x1="100" y1="14" x2="120" y2="14" stroke="#666" stroke-width="1.5"/><g transform="translate(120,0)"><rect x="0" y="0" width="40" height="28" rx="14" ry="14" fill="#fff8e1" stroke="#f9a825" stroke-width="1.5"/>
<text x="20" y="14" font-family="monospace" font-size="12" text-anchor="middle" dominant-baseline="middle" fill="#333">o</text></g></g><line x1="180" y1="14" x2="180" y2="14" stroke="#666" stroke-width="1.5"/><line x1="20" y1="66" x2="20" y2="66" stroke="#666" stroke-width="1.5"/><g transform="translate(20,52)"><g transform="translate(0,0)"><rect x="0" y="0" width="40" height="28" rx="14" ry="14" fill="#fff8e1" stroke="#f9a825" stroke-width="1.5"/>
<text x="20" y="14" font-family="monospace" font-size="12" text-anchor="middle" dominant-baseline="middle" fill="#333">b</text></g><line x1="40" y1="14" x2="60" y2="14" stroke="#666" stroke-width="1.5"/><g transform="translate(60,0)"><rect x="0" y="0" width="40" height="28" rx="14" ry="14" fill="#fff8e1" stroke="#f9a825" stroke-width="1.5"/>
<text x="20" y="14" font-family="monospace" font-size="12" text-anchor="middle" dominant-baseline="middle" fill="#333">a</text></g><line x1="100" y1="14" x2="120" y2="14" stroke="#666" stroke-width="1.5"/><g transform="translate(120,0)"><rect x="0" y="0" width="40" height="28" rx="14" ry="14" fill="#fff8e1" stroke="#f9a825" stroke-width="1.5"/>
<text x="20" y="14" font-family="monospace" font-size="12" text-anchor="middle" dominant-baseline="middle" fill="#333">r</text></g></g><line x1="180" y1="66" x2="180" y2="66" stroke="#666" stroke-width="1.5"/><line x1="20" y1="14" x2="20" y2="66" stroke="#666" stroke-width="1.5"/><line x1="180" y1="14" x2="180" y2="66" stroke="#666" stroke-width="1.5"/></g><line x1="0" y1="14" x2="20" y2="14" stroke="#666" stroke-width="1.5"/><line x1="220" y1="14" x2="240" y2="14" stroke="#666" stroke-width="1.5"/><path d="M 220 14 Q 220 96 20 96" stroke="#999" stroke-width="1" fill="none" stroke-dasharray="4 2"/><text x="120" y="94" font-family="monospace" font-size="10" fill="#888" text-anchor="middle">+</text></g><line x1="260" y1="118" x2="260" y2="118" stroke="#666" stroke-width="1.5"/><line x1="20" y1="14" x2="20" y2="118" stroke="#666" stroke-width="1.5"/><line x1="260" y1="14" x2="260" y2="118" stroke="#666" stroke-width="1.5"/></g><line x1="320" y1="72" x2="340" y2="72" stroke="#666" stroke-width="1.5"/><circle cx="340" cy="72" r="6" fill="none" stroke="#333" stroke-width="2"/><circle cx="340" cy="72" r="3" fill="#333"/></svg>