<svg xmlns="http://www.w3.org/2000/svg" width="520" height="400" viewBox="0 0 520 400"><rect width="100%" height="100%" fill="white"/><rect x="24" y="24" width="120" height="32" rx="4" ry="4" fill="#f6f6f6" stroke="#111" stroke-width="1"/><text x="84" y="45" text-anchor="middle" font-family="monospace" font-size="13">API</text><rect x="184" y="24" width="120" height="32" rx="4" ry="4" fill="#f6f6f6" stroke="#111" stroke-width="1"/><text x="244" y="45" text-anchor="middle" font-family="monospace" font-size="13">Worker</text><line x1="84" y1="56" x2="84" y2="344" stroke="#555" stroke-width="1" stroke-dasharray="6 4"/><line x1="244" y1="56" x2="244" y2="344" stroke="#555" stroke-width="1" stroke-dasharray="6 4"/><rect x="24" y="120" width="320" height="240" rx="3" ry="3" fill="#fafafa" stroke="#666" stroke-width="1"/><text x="32" y="136" font-family="monospace" font-size="12" font-weight="600">alt success</text><line x1="24" y1="200" x2="344" y2="200" stroke="#666" stroke-width="1" stroke-dasharray="5 4"/><text x="32" y="194" font-family="monospace" font-size="11" fill="#333">failure</text><line x1="84" y1="80" x2="244" y2="80" stroke="#111" stroke-width="1.5"/><polygon points="244,80 238,76 238,84" fill="#111"/><text x="166" y="72" text-anchor="middle" font-family="monospace" font-size="12">enqueue(job)</text><line x1="244" y1="160" x2="84" y2="160" stroke="#111" stroke-width="1.5" stroke-dasharray="6 4"/><polygon points="84,160 90,156 90,164" fill="#111"/><text x="166" y="152" text-anchor="middle" font-family="monospace" font-size="12">202 Accepted</text><line x1="244" y1="280" x2="84" y2="280" stroke="#111" stroke-width="1.5" stroke-dasharray="6 4"/><polygon points="84,280 90,276 90,284" fill="#111"/><text x="166" y="272" text-anchor="middle" font-family="monospace" font-size="12">400 Bad Request</text><rect x="316" y="240" width="180" height="48" rx="3" ry="3" fill="#fff8c4" stroke="#111" stroke-width="1"/><text x="324" y="260" font-family="monospace" font-size="12">validation failed</text><text x="324" y="276" font-family="monospace" font-size="12">retry later</text><rect x="24" y="344" width="120" height="32" rx="4" ry="4" fill="#f6f6f6" stroke="#111" stroke-width="1"/><text x="84" y="365" text-anchor="middle" font-family="monospace" font-size="13">API</text><rect x="184" y="344" width="120" height="32" rx="4" ry="4" fill="#f6f6f6" stroke="#111" stroke-width="1"/><text x="244" y="365" text-anchor="middle" font-family="monospace" font-size="13">Worker</text></svg>