<svg xmlns="http://www.w3.org/2000/svg" width="232" height="200" viewBox="0 0 232 200"><rect width="100%" height="100%" fill="white"/><rect x="16" y="16" width="80" height="32" rx="8" ry="8" fill="#fff3e0" stroke="#8a5a00" stroke-width="1"/><circle cx="28" cy="17" r="6" fill="none" stroke="#8a5a00" stroke-width="1.5"/><line x1="28" y1="23" x2="28" y2="37" stroke="#8a5a00" stroke-width="1.5"/><line x1="18" y1="27" x2="38" y2="27" stroke="#8a5a00" stroke-width="1.5"/><line x1="28" y1="37" x2="20" y2="53" stroke="#8a5a00" stroke-width="1.5"/><line x1="28" y1="37" x2="36" y2="53" stroke="#8a5a00" stroke-width="1.5"/><text x="56" y="37" text-anchor="middle" font-family="monospace" font-size="13" fill="#111111">User</text><rect x="116" y="16" width="80" height="32" rx="4" ry="4" fill="#f6f6f6" stroke="#111" stroke-width="1"/><text x="156" y="37" text-anchor="middle" font-family="monospace" font-size="13" fill="#111111">Service</text><line x1="56" y1="48" x2="56" y2="152" stroke="#555" stroke-width="1" stroke-dasharray="6 4"/><line x1="156" y1="48" x2="156" y2="152" stroke="#555" stroke-width="1" stroke-dasharray="6 4"/><rect class="sequence-activation" data-participant="Service" x="151" y="96" width="10" height="60" fill="#ffffff" stroke="#555" stroke-width="1"/><line x1="56" y1="96" x2="151" y2="96" stroke="#111" stroke-width="1.5"/><polygon points="151,96 143,91 143,101" fill="#111" stroke="#111" stroke-width="1"/><text x="64" y="72" text-anchor="start" font-family="monospace" font-size="12" fill="#111">1 create</text><text x="64" y="88" text-anchor="start" font-family="monospace" font-size="12" fill="#111">request</text><line x1="151" y1="136" x2="56" y2="136" stroke="#111" stroke-width="1.5" stroke-dasharray="6 4"/><polygon points="56,136 64,131 64,141" fill="#111" stroke="#111" stroke-width="1"/><text x="64" y="128" text-anchor="start" font-family="monospace" font-size="12" fill="#111">2 accepted</text><rect x="16" y="152" width="80" height="32" rx="8" ry="8" fill="#fff3e0" stroke="#8a5a00" stroke-width="1"/><circle cx="28" cy="153" r="6" fill="none" stroke="#8a5a00" stroke-width="1.5"/><line x1="28" y1="159" x2="28" y2="173" stroke="#8a5a00" stroke-width="1.5"/><line x1="18" y1="163" x2="38" y2="163" stroke="#8a5a00" stroke-width="1.5"/><line x1="28" y1="173" x2="20" y2="189" stroke="#8a5a00" stroke-width="1.5"/><line x1="28" y1="173" x2="36" y2="189" stroke="#8a5a00" stroke-width="1.5"/><text x="56" y="173" text-anchor="middle" font-family="monospace" font-size="13" fill="#111111">User</text><rect x="116" y="152" width="80" height="32" rx="4" ry="4" fill="#f6f6f6" stroke="#111" stroke-width="1"/><text x="156" y="173" text-anchor="middle" font-family="monospace" font-size="13" fill="#111111">Service</text></svg>