<svg xmlns="http://www.w3.org/2000/svg" width="328" height="200" viewBox="0 0 328 200"><rect width="100%" height="100%" fill="white"/><rect x="24" y="24" width="120" height="32" rx="8" ry="8" fill="#fff3e0" stroke="#8a5a00" stroke-width="1"/><circle cx="36" cy="25" r="6" fill="none" stroke="#8a5a00" stroke-width="1.5"/><line x1="36" y1="31" x2="36" y2="45" stroke="#8a5a00" stroke-width="1.5"/><line x1="26" y1="35" x2="46" y2="35" stroke="#8a5a00" stroke-width="1.5"/><line x1="36" y1="45" x2="28" y2="61" stroke="#8a5a00" stroke-width="1.5"/><line x1="36" y1="45" x2="44" y2="61" stroke="#8a5a00" stroke-width="1.5"/><text x="84" y="45" text-anchor="middle" font-family="monospace" font-size="13" fill="#111111">User</text><rect x="184" y="24" width="120" height="32" rx="4" ry="4" fill="#f6f6f6" stroke="#111" stroke-width="1"/><text x="244" y="45" text-anchor="middle" font-family="monospace" font-size="13" fill="#111111">Service</text><line x1="84" y1="56" x2="84" y2="144" stroke="#555" stroke-width="1" stroke-dasharray="6 4"/><line x1="244" y1="56" x2="244" y2="144" stroke="#555" stroke-width="1" stroke-dasharray="6 4"/><rect class="sequence-activation" data-participant="Service" x="239" y="88" width="10" height="72" fill="#ffffff" stroke="#555" stroke-width="1"/><line x1="84" y1="88" x2="239" y2="88" stroke="#111" stroke-width="1.5"/><polygon points="239,88 231,83 231,93" fill="#111" stroke="#111" stroke-width="1"/><text x="92" y="80" text-anchor="start" font-family="monospace" font-size="12" fill="#111">1 create request</text><line x1="239" y1="128" x2="84" y2="128" stroke="#111" stroke-width="1.5" stroke-dasharray="6 4"/><polygon points="84,128 92,123 92,133" fill="#111" stroke="#111" stroke-width="1"/><text x="92" y="120" text-anchor="start" font-family="monospace" font-size="12" fill="#111">2 accepted</text><rect x="24" y="144" width="120" height="32" rx="8" ry="8" fill="#fff3e0" stroke="#8a5a00" stroke-width="1"/><circle cx="36" cy="145" r="6" fill="none" stroke="#8a5a00" stroke-width="1.5"/><line x1="36" y1="151" x2="36" y2="165" stroke="#8a5a00" stroke-width="1.5"/><line x1="26" y1="155" x2="46" y2="155" stroke="#8a5a00" stroke-width="1.5"/><line x1="36" y1="165" x2="28" y2="181" stroke="#8a5a00" stroke-width="1.5"/><line x1="36" y1="165" x2="44" y2="181" stroke="#8a5a00" stroke-width="1.5"/><text x="84" y="165" text-anchor="middle" font-family="monospace" font-size="13" fill="#111111">User</text><rect x="184" y="144" width="120" height="32" rx="4" ry="4" fill="#f6f6f6" stroke="#111" stroke-width="1"/><text x="244" y="165" text-anchor="middle" font-family="monospace" font-size="13" fill="#111111">Service</text></svg>