<svg xmlns="http://www.w3.org/2000/svg" width="328" height="200" viewBox="0 0 328 200"><rect width="100%" height="100%" fill="white"/><rect x="24" y="24" width="120" height="32" rx="8" ry="8" fill="#fff3e0" stroke="#8a5a00" stroke-width="1"/><circle cx="36" cy="34" r="4" fill="none" stroke="#8a5a00" stroke-width="1"/><line x1="36" y1="38" x2="36" y2="46" stroke="#8a5a00" stroke-width="1"/><line x1="32" y1="42" x2="40" y2="42" stroke="#8a5a00" stroke-width="1"/><line x1="36" y1="46" x2="32" y2="52" stroke="#8a5a00" stroke-width="1"/><line x1="36" y1="46" x2="40" y2="52" stroke="#8a5a00" stroke-width="1"/><text x="84" y="45" text-anchor="middle" font-family="monospace" font-size="13">User</text><rect x="184" y="24" width="120" height="32" rx="4" ry="4" fill="#f6f6f6" stroke="#111" stroke-width="1"/><text x="244" y="45" text-anchor="middle" font-family="monospace" font-size="13">Service</text><line x1="84" y1="56" x2="84" y2="144" stroke="#555" stroke-width="1" stroke-dasharray="6 4"/><line x1="244" y1="56" x2="244" y2="144" stroke="#555" stroke-width="1" stroke-dasharray="6 4"/><line x1="84" y1="80" x2="244" y2="80" stroke="#111" stroke-width="1.5"/><polygon points="244,80 238,76 238,84" fill="#111"/><text x="166" y="72" text-anchor="middle" font-family="monospace" font-size="12">1 create request</text><line x1="244" y1="120" x2="84" y2="120" stroke="#111" stroke-width="1.5" stroke-dasharray="6 4"/><polygon points="84,120 90,116 90,124" fill="#111"/><text x="166" y="112" text-anchor="middle" font-family="monospace" font-size="12">2 accepted</text><rect x="24" y="144" width="120" height="32" rx="8" ry="8" fill="#fff3e0" stroke="#8a5a00" stroke-width="1"/><circle cx="36" cy="154" r="4" fill="none" stroke="#8a5a00" stroke-width="1"/><line x1="36" y1="158" x2="36" y2="166" stroke="#8a5a00" stroke-width="1"/><line x1="32" y1="162" x2="40" y2="162" stroke="#8a5a00" stroke-width="1"/><line x1="36" y1="166" x2="32" y2="172" stroke="#8a5a00" stroke-width="1"/><line x1="36" y1="166" x2="40" y2="172" stroke="#8a5a00" stroke-width="1"/><text x="84" y="165" text-anchor="middle" font-family="monospace" font-size="13">User</text><rect x="184" y="144" width="120" height="32" rx="4" ry="4" fill="#f6f6f6" stroke="#111" stroke-width="1"/><text x="244" y="165" text-anchor="middle" font-family="monospace" font-size="13">Service</text></svg>