<svg xmlns="http://www.w3.org/2000/svg" width="1288" height="480" viewBox="0 0 1288 480"><rect width="100%" height="100%" fill="white"/><rect x="24" y="24" width="120" height="32" rx="4" ry="4" fill="#f6f6f6" stroke="#111" stroke-width="1"/><text x="84" y="45" text-anchor="middle" font-family="monospace" font-size="13">Client</text><rect x="184" y="24" width="120" height="32" rx="8" ry="8" fill="#fff3e0" stroke="#8a5a00" stroke-width="1"/><circle cx="196" cy="34" r="4" fill="none" stroke="#8a5a00" stroke-width="1"/><line x1="196" y1="38" x2="196" y2="46" stroke="#8a5a00" stroke-width="1"/><line x1="192" y1="42" x2="200" y2="42" stroke="#8a5a00" stroke-width="1"/><line x1="196" y1="46" x2="192" y2="52" stroke="#8a5a00" stroke-width="1"/><line x1="196" y1="46" x2="200" y2="52" stroke="#8a5a00" stroke-width="1"/><text x="244" y="45" text-anchor="middle" font-family="monospace" font-size="13">User</text><rect x="344" y="24" width="120" height="32" fill="#eef8ff" stroke="#1b5e8a" stroke-width="1" stroke-dasharray="5 3"/><line x1="350" y1="28" x2="350" y2="52" stroke="#1b5e8a" stroke-width="1"/><line x1="458" y1="28" x2="458" y2="52" stroke="#1b5e8a" stroke-width="1"/><text x="404" y="45" text-anchor="middle" font-family="monospace" font-size="13">Gateway</text><polygon points="514,24 614,24 624,40 614,56 514,56 504,40" fill="#edf7ed" stroke="#2d6a2d" stroke-width="1"/><line x1="514" y1="40" x2="614" y2="40" stroke="#2d6a2d" stroke-width="1"/><text x="564" y="45" text-anchor="middle" font-family="monospace" font-size="13">Service</text><rect x="664" y="24" width="120" height="32" rx="3" ry="3" fill="#f4f0ff" stroke="#4e3a8f" stroke-width="1"/><rect x="668" y="28" width="112" height="24" rx="2" ry="2" fill="none" stroke="#4e3a8f" stroke-width="1"/><line x1="670" y1="36" x2="778" y2="36" stroke="#4e3a8f" stroke-width="1"/><text x="724" y="45" text-anchor="middle" font-family="monospace" font-size="13">Store</text><ellipse cx="884" cy="30" rx="58" ry="6" fill="#e9f5ff" stroke="#1b5e8a" stroke-width="1"/><rect x="826" y="30" width="116" height="20" fill="#e9f5ff" stroke="#1b5e8a" stroke-width="1"/><ellipse cx="884" cy="50" rx="58" ry="6" fill="#e9f5ff" stroke="#1b5e8a" stroke-width="1"/><text x="884" y="45" text-anchor="middle" font-family="monospace" font-size="13">DB</text><rect x="984" y="28" width="120" height="28" rx="3" ry="3" fill="#fff9e8" stroke="#8a6d1b" stroke-width="1"/><rect x="992" y="24" width="24" height="8" rx="2" ry="2" fill="#fff9e8" stroke="#8a6d1b" stroke-width="1"/><rect x="998" y="26" width="24" height="8" rx="2" ry="2" fill="#fff9e8" stroke="#8a6d1b" stroke-width="1"/><text x="1044" y="45" text-anchor="middle" font-family="monospace" font-size="13">Cache</text><rect x="1144" y="24" width="120" height="32" rx="4" ry="4" fill="#fff0f0" stroke="#8a3030" stroke-width="1"/><line x1="1152" y1="32" x2="1256" y2="32" stroke="#8a3030" stroke-width="1"/><line x1="1152" y1="38" x2="1256" y2="38" stroke="#8a3030" stroke-width="1"/><line x1="1152" y1="44" x2="1256" y2="44" stroke="#8a3030" stroke-width="1"/><text x="1204" y="45" text-anchor="middle" font-family="monospace" font-size="13">Jobs</text><line x1="84" y1="56" x2="84" y2="424" stroke="#555" stroke-width="1" stroke-dasharray="6 4"/><line x1="244" y1="56" x2="244" y2="424" stroke="#555" stroke-width="1" stroke-dasharray="6 4"/><line x1="404" y1="56" x2="404" y2="424" stroke="#555" stroke-width="1" stroke-dasharray="6 4"/><line x1="564" y1="56" x2="564" y2="424" stroke="#555" stroke-width="1" stroke-dasharray="6 4"/><line x1="724" y1="56" x2="724" y2="424" stroke="#555" stroke-width="1" stroke-dasharray="6 4"/><line x1="884" y1="56" x2="884" y2="424" stroke="#555" stroke-width="1" stroke-dasharray="6 4"/><line x1="1044" y1="56" x2="1044" y2="424" stroke="#555" stroke-width="1" stroke-dasharray="6 4"/><line x1="1204" y1="56" x2="1204" y2="424" stroke="#555" stroke-width="1" stroke-dasharray="6 4"/><line x1="244" y1="80" x2="84" y2="80" stroke="#111" stroke-width="1.5"/><polygon points="84,80 90,76 90,84" fill="#111"/><text x="166" y="72" text-anchor="middle" font-family="monospace" font-size="12">click button</text><line x1="84" y1="120" x2="404" y2="120" stroke="#111" stroke-width="1.5"/><polygon points="404,120 398,116 398,124" fill="#111"/><text x="246" y="112" text-anchor="middle" font-family="monospace" font-size="12">POST /jobs</text><line x1="404" y1="160" x2="564" y2="160" stroke="#111" stroke-width="1.5"/><polygon points="564,160 558,156 558,164" fill="#111"/><text x="486" y="152" text-anchor="middle" font-family="monospace" font-size="12">validate</text><line x1="564" y1="200" x2="724" y2="200" stroke="#111" stroke-width="1.5"/><polygon points="724,200 718,196 718,204" fill="#111"/><text x="646" y="192" text-anchor="middle" font-family="monospace" font-size="12">load profile</text><line x1="724" y1="240" x2="884" y2="240" stroke="#111" stroke-width="1.5"/><polygon points="884,240 878,236 878,244" fill="#111"/><text x="806" y="232" text-anchor="middle" font-family="monospace" font-size="12">query</text><line x1="884" y1="280" x2="724" y2="280" stroke="#111" stroke-width="1.5" stroke-dasharray="6 4"/><polygon points="724,280 730,276 730,284" fill="#111"/><text x="806" y="272" text-anchor="middle" font-family="monospace" font-size="12">row</text><line x1="724" y1="320" x2="1044" y2="320" stroke="#111" stroke-width="1.5"/><polygon points="1044,320 1038,316 1038,324" fill="#111"/><text x="886" y="312" text-anchor="middle" font-family="monospace" font-size="12">cache put</text><line x1="564" y1="360" x2="1204" y2="360" stroke="#111" stroke-width="1.5"/><polygon points="1204,360 1198,356 1198,364" fill="#111"/><text x="886" y="352" text-anchor="middle" font-family="monospace" font-size="12">enqueue</text><line x1="1204" y1="400" x2="84" y2="400" stroke="#111" stroke-width="1.5" stroke-dasharray="6 4"/><polygon points="84,400 90,396 90,404" fill="#111"/><text x="646" y="392" text-anchor="middle" font-family="monospace" font-size="12">queued</text><rect x="24" y="424" width="120" height="32" rx="4" ry="4" fill="#f6f6f6" stroke="#111" stroke-width="1"/><text x="84" y="445" text-anchor="middle" font-family="monospace" font-size="13">Client</text><rect x="184" y="424" width="120" height="32" rx="8" ry="8" fill="#fff3e0" stroke="#8a5a00" stroke-width="1"/><circle cx="196" cy="434" r="4" fill="none" stroke="#8a5a00" stroke-width="1"/><line x1="196" y1="438" x2="196" y2="446" stroke="#8a5a00" stroke-width="1"/><line x1="192" y1="442" x2="200" y2="442" stroke="#8a5a00" stroke-width="1"/><line x1="196" y1="446" x2="192" y2="452" stroke="#8a5a00" stroke-width="1"/><line x1="196" y1="446" x2="200" y2="452" stroke="#8a5a00" stroke-width="1"/><text x="244" y="445" text-anchor="middle" font-family="monospace" font-size="13">User</text><rect x="344" y="424" width="120" height="32" fill="#eef8ff" stroke="#1b5e8a" stroke-width="1" stroke-dasharray="5 3"/><line x1="350" y1="428" x2="350" y2="452" stroke="#1b5e8a" stroke-width="1"/><line x1="458" y1="428" x2="458" y2="452" stroke="#1b5e8a" stroke-width="1"/><text x="404" y="445" text-anchor="middle" font-family="monospace" font-size="13">Gateway</text><polygon points="514,424 614,424 624,440 614,456 514,456 504,440" fill="#edf7ed" stroke="#2d6a2d" stroke-width="1"/><line x1="514" y1="440" x2="614" y2="440" stroke="#2d6a2d" stroke-width="1"/><text x="564" y="445" text-anchor="middle" font-family="monospace" font-size="13">Service</text><rect x="664" y="424" width="120" height="32" rx="3" ry="3" fill="#f4f0ff" stroke="#4e3a8f" stroke-width="1"/><rect x="668" y="428" width="112" height="24" rx="2" ry="2" fill="none" stroke="#4e3a8f" stroke-width="1"/><line x1="670" y1="436" x2="778" y2="436" stroke="#4e3a8f" stroke-width="1"/><text x="724" y="445" text-anchor="middle" font-family="monospace" font-size="13">Store</text><ellipse cx="884" cy="430" rx="58" ry="6" fill="#e9f5ff" stroke="#1b5e8a" stroke-width="1"/><rect x="826" y="430" width="116" height="20" fill="#e9f5ff" stroke="#1b5e8a" stroke-width="1"/><ellipse cx="884" cy="450" rx="58" ry="6" fill="#e9f5ff" stroke="#1b5e8a" stroke-width="1"/><text x="884" y="445" text-anchor="middle" font-family="monospace" font-size="13">DB</text><rect x="984" y="428" width="120" height="28" rx="3" ry="3" fill="#fff9e8" stroke="#8a6d1b" stroke-width="1"/><rect x="992" y="424" width="24" height="8" rx="2" ry="2" fill="#fff9e8" stroke="#8a6d1b" stroke-width="1"/><rect x="998" y="426" width="24" height="8" rx="2" ry="2" fill="#fff9e8" stroke="#8a6d1b" stroke-width="1"/><text x="1044" y="445" text-anchor="middle" font-family="monospace" font-size="13">Cache</text><rect x="1144" y="424" width="120" height="32" rx="4" ry="4" fill="#fff0f0" stroke="#8a3030" stroke-width="1"/><line x1="1152" y1="432" x2="1256" y2="432" stroke="#8a3030" stroke-width="1"/><line x1="1152" y1="438" x2="1256" y2="438" stroke="#8a3030" stroke-width="1"/><line x1="1152" y1="444" x2="1256" y2="444" stroke="#8a3030" stroke-width="1"/><text x="1204" y="445" text-anchor="middle" font-family="monospace" font-size="13">Jobs</text></svg>