<svg xmlns="http://www.w3.org/2000/svg" width="520" height="560" viewBox="0 0 520 560"><rect width="100%" height="100%" fill="white"/><rect x="24" y="24" width="120" height="32" rx="4" ry="4" fill="#eef6ff" stroke="#225588" stroke-width="1"/><text x="84" y="45" text-anchor="middle" font-family="monospace" font-size="13" fill="#111111">API</text><rect x="184" y="24" width="120" height="32" rx="4" ry="4" fill="#eef6ff" stroke="#225588" stroke-width="1"/><text x="244" y="45" text-anchor="middle" font-family="monospace" font-size="13" fill="#111111">Worker</text><line x1="84" y1="56" x2="84" y2="504" stroke="#008800" stroke-width="1" stroke-dasharray="6 4"/><line x1="244" y1="56" x2="244" y2="504" stroke="#008800" stroke-width="1" stroke-dasharray="6 4"/><rect x="24" y="200" width="280" height="280" rx="2" ry="2" fill="#f7f7f7" stroke="#444444" stroke-width="1"/><polygon points="24,200 117,200 117,214 111,220 24,220" fill="#f7f7f7" stroke="#444444" stroke-width="1"/><text x="32" y="214" font-family="monospace" font-size="12" font-weight="600" fill="#aa0000">alt success</text><line x1="24" y1="280" x2="304" y2="280" stroke="#444444" stroke-width="1" stroke-dasharray="5 4"/><text x="32" y="266" font-family="monospace" font-size="11" fill="#333">else failure</text><line x1="84" y1="120" x2="244" y2="120" stroke="#aa0000" stroke-width="1.5"/><polygon points="244,120 236,115 236,125" fill="#aa0000" stroke="#aa0000" stroke-width="1"/><text x="92" y="80" text-anchor="start" font-family="monospace" font-size="12" fill="#aa0000">enqueue long payload</text><text x="92" y="96" text-anchor="start" font-family="monospace" font-size="12" fill="#aa0000">text that wraps</text><text x="92" y="112" text-anchor="start" font-family="monospace" font-size="12" fill="#aa0000">deterministically</text><line x1="244" y1="248" x2="84" y2="248" stroke="#aa0000" stroke-width="1.5" stroke-dasharray="6 4"/><polygon points="84,248 92,243 92,253" fill="#aa0000" stroke="#aa0000" stroke-width="1"/><text x="92" y="240" text-anchor="start" font-family="monospace" font-size="12" fill="#aa0000">202 Accepted</text><line x1="244" y1="408" x2="84" y2="408" stroke="#aa0000" stroke-width="1.5" stroke-dasharray="6 4"/><polygon points="84,408 92,403 92,413" fill="#aa0000" stroke="#aa0000" stroke-width="1"/><text x="92" y="400" text-anchor="start" font-family="monospace" font-size="12" fill="#aa0000">400 Bad Request</text><path d="M316,320 H482 L496 334 V368 H316 Z" fill="#fff8cc" stroke="#aa8800" stroke-width="1"/><path d="M482 320 V334 H496" fill="none" stroke="#aa8800" stroke-width="1"/><text x="324" y="340" font-family="monospace" font-size="12" fill="#aa0000">validation failed</text><text x="324" y="356" font-family="monospace" font-size="12" fill="#aa0000">retry later</text><rect x="24" y="504" width="120" height="32" rx="4" ry="4" fill="#eef6ff" stroke="#225588" stroke-width="1"/><text x="84" y="525" text-anchor="middle" font-family="monospace" font-size="13" fill="#111111">API</text><rect x="184" y="504" width="120" height="32" rx="4" ry="4" fill="#eef6ff" stroke="#225588" stroke-width="1"/><text x="244" y="525" text-anchor="middle" font-family="monospace" font-size="13" fill="#111111">Worker</text></svg>