<svg xmlns="http://www.w3.org/2000/svg" width="364" height="508" viewBox="0 0 364 508"><rect width="100%" height="100%" fill="white"/><rect x="16" y="16" width="80" height="32" rx="4" ry="4" fill="#eef6ff" stroke="#225588" stroke-width="1"/><text x="56" y="37" text-anchor="middle" font-family="monospace" font-size="13" fill="#111111">API</text><rect x="116" y="16" width="80" height="32" rx="4" ry="4" fill="#eef6ff" stroke="#225588" stroke-width="1"/><text x="156" y="37" text-anchor="middle" font-family="monospace" font-size="13" fill="#111111">Worker</text><line x1="56" y1="48" x2="56" y2="460" stroke="#008800" stroke-width="1" stroke-dasharray="6 4"/><line x1="156" y1="48" x2="156" y2="460" stroke="#008800" stroke-width="1" stroke-dasharray="6 4"/><rect x="16" y="212" width="180" height="224" rx="2" ry="2" fill="#f7f7f7" stroke="#444444" stroke-width="1"/><polygon points="16,212 109,212 109,226 103,232 16,232" fill="#f7f7f7" stroke="#444444" stroke-width="1"/><text x="24" y="226" font-family="monospace" font-size="12" font-weight="600" fill="#aa0000">alt success</text><line x1="16" y1="268" x2="196" y2="268" stroke="#444444" stroke-width="1" stroke-dasharray="5 4"/><text x="24" y="254" font-family="monospace" font-size="11" fill="#333">else failure</text><line x1="56" y1="144" x2="156" y2="144" stroke="#aa0000" stroke-width="1.5"/><polygon points="156,144 148,139 148,149" fill="#aa0000" stroke="#aa0000" stroke-width="1"/><text x="64" y="72" text-anchor="start" font-family="monospace" font-size="12" fill="#aa0000">enqueue long</text><text x="64" y="88" text-anchor="start" font-family="monospace" font-size="12" fill="#aa0000">payload text</text><text x="64" y="104" text-anchor="start" font-family="monospace" font-size="12" fill="#aa0000">that wraps</text><text x="64" y="120" text-anchor="start" font-family="monospace" font-size="12" fill="#aa0000">deterministi</text><text x="64" y="136" text-anchor="start" font-family="monospace" font-size="12" fill="#aa0000">cally</text><line x1="156" y1="248" x2="56" y2="248" stroke="#aa0000" stroke-width="1.5" stroke-dasharray="6 4"/><polygon points="56,248 64,243 64,253" fill="#aa0000" stroke="#aa0000" stroke-width="1"/><text x="64" y="240" text-anchor="start" font-family="monospace" font-size="12" fill="#aa0000">202 Accepted</text><line x1="156" y1="376" x2="56" y2="376" stroke="#aa0000" stroke-width="1.5" stroke-dasharray="6 4"/><polygon points="56,376 64,371 64,381" fill="#aa0000" stroke="#aa0000" stroke-width="1"/><text x="64" y="352" text-anchor="start" font-family="monospace" font-size="12" fill="#aa0000">400 Bad</text><text x="64" y="368" text-anchor="start" font-family="monospace" font-size="12" fill="#aa0000">Request</text><path d="M208,296 H334 L348 310 V340 H208 Z" fill="#fff8cc" stroke="#aa8800" stroke-width="1"/><path d="M334 296 V310 H348" fill="none" stroke="#aa8800" stroke-width="1"/><text x="216" y="316" font-family="monospace" font-size="12" fill="#aa0000">validation failed</text><text x="216" y="332" font-family="monospace" font-size="12" fill="#aa0000">retry later</text><rect x="16" y="460" width="80" height="32" rx="4" ry="4" fill="#eef6ff" stroke="#225588" stroke-width="1"/><text x="56" y="481" text-anchor="middle" font-family="monospace" font-size="13" fill="#111111">API</text><rect x="116" y="460" width="80" height="32" rx="4" ry="4" fill="#eef6ff" stroke="#225588" stroke-width="1"/><text x="156" y="481" text-anchor="middle" font-family="monospace" font-size="13" fill="#111111">Worker</text></svg>