<svg xmlns="http://www.w3.org/2000/svg" width="528" height="468" viewBox="0 0 528 468"><rect width="100%" height="100%" fill="white"/><text x="24" y="24" font-family="monospace" font-size="18" font-weight="600" fill="#111">Lifecycle + Structure</text><rect x="24" y="52" width="120" height="32" rx="8" ry="8" fill="#fff3e0" stroke="#8a5a00" stroke-width="1"/><circle cx="36" cy="53" r="6" fill="none" stroke="#8a5a00" stroke-width="1.5"/><line x1="36" y1="59" x2="36" y2="73" stroke="#8a5a00" stroke-width="1.5"/><line x1="26" y1="63" x2="46" y2="63" stroke="#8a5a00" stroke-width="1.5"/><line x1="36" y1="73" x2="28" y2="89" stroke="#8a5a00" stroke-width="1.5"/><line x1="36" y1="73" x2="44" y2="89" stroke="#8a5a00" stroke-width="1.5"/><text x="84" y="73" text-anchor="middle" font-family="monospace" font-size="13" fill="#111111">Caller</text><rect x="184" y="52" width="120" height="32" rx="4" ry="4" fill="#f6f6f6" stroke="#111" stroke-width="1"/><text x="244" y="73" text-anchor="middle" font-family="monospace" font-size="13" fill="#111111">API</text><rect x="344" y="52" width="120" height="32" rx="4" ry="4" fill="#f6f6f6" stroke="#111" stroke-width="1"/><text x="404" y="73" text-anchor="middle" font-family="monospace" font-size="13" fill="#111111">Worker</text><line x1="84" y1="84" x2="84" y2="412" stroke="#555" stroke-width="1" stroke-dasharray="6 4"/><line x1="244" y1="84" x2="244" y2="412" stroke="#555" stroke-width="1" stroke-dasharray="6 4"/><line x1="404" y1="84" x2="404" y2="412" stroke="#555" stroke-width="1" stroke-dasharray="6 4"/><rect class="sequence-activation" data-participant="API" x="239" y="108" width="10" height="280" fill="#ffffff" stroke="#555" stroke-width="1"/><line x1="84" y1="108" x2="244" y2="108" stroke="#111" stroke-width="1.5"/><polygon points="244,108 236,103 236,113" fill="#111" stroke="#111" stroke-width="1"/><text x="92" y="100" text-anchor="start" font-family="monospace" font-size="12" fill="#111">1 start</text><line x1="244" y1="188" x2="404" y2="188" stroke="#111" stroke-width="1.5"/><polygon points="404,188 396,183 396,193" fill="#111" stroke="#111" stroke-width="1"/><text x="252" y="180" text-anchor="start" font-family="monospace" font-size="12" fill="#111">2 handoff</text><line x1="404" y1="308" x2="244" y2="308" stroke="#111" stroke-width="1.5" stroke-dasharray="6 4"/><polygon points="244,308 252,303 252,313" fill="#111" stroke="#111" stroke-width="1"/><text x="252" y="300" text-anchor="start" font-family="monospace" font-size="12" fill="#111">3 done</text><line x1="244" y1="348" x2="84" y2="348" stroke="#111" stroke-width="1.5" stroke-dasharray="6 4"/><polygon points="84,348 92,343 92,353" fill="#111" stroke="#111" stroke-width="1"/><text x="92" y="340" text-anchor="start" font-family="monospace" font-size="12" fill="#111">4 ok</text><circle class="sequence-create" data-participant="Worker" cx="404" cy="108" r="5" fill="#dcfce7" stroke="#15803d" stroke-width="1.5"/><g class="sequence-destroy" data-participant="Worker" stroke="#b91c1c" stroke-width="2"><line x1="398" y1="382" x2="410" y2="394"/><line x1="398" y1="394" x2="410" y2="382"/></g><line x1="24" y1="148" x2="504" y2="148" stroke="#222" stroke-width="1.5"/><text x="264" y="142" text-anchor="middle" font-family="monospace" font-size="11" font-weight="600" fill="#222">== Dispatch ==</text><line x1="24" y1="228" x2="504" y2="228" stroke="#666" stroke-width="1" stroke-dasharray="8 5"/><text x="264" y="222" text-anchor="middle" font-family="monospace" font-size="11" fill="#333">waiting</text><line x1="24" y1="268" x2="504" y2="268" stroke="#777" stroke-width="1" stroke-dasharray="3 7"/><rect x="24" y="412" width="120" height="32" rx="8" ry="8" fill="#fff3e0" stroke="#8a5a00" stroke-width="1"/><circle cx="36" cy="413" r="6" fill="none" stroke="#8a5a00" stroke-width="1.5"/><line x1="36" y1="419" x2="36" y2="433" stroke="#8a5a00" stroke-width="1.5"/><line x1="26" y1="423" x2="46" y2="423" stroke="#8a5a00" stroke-width="1.5"/><line x1="36" y1="433" x2="28" y2="449" stroke="#8a5a00" stroke-width="1.5"/><line x1="36" y1="433" x2="44" y2="449" stroke="#8a5a00" stroke-width="1.5"/><text x="84" y="433" text-anchor="middle" font-family="monospace" font-size="13" fill="#111111">Caller</text><rect x="184" y="412" width="120" height="32" rx="4" ry="4" fill="#f6f6f6" stroke="#111" stroke-width="1"/><text x="244" y="433" text-anchor="middle" font-family="monospace" font-size="13" fill="#111111">API</text><rect x="344" y="412" width="120" height="32" rx="4" ry="4" fill="#f6f6f6" stroke="#111" stroke-width="1"/><text x="404" y="433" text-anchor="middle" font-family="monospace" font-size="13" fill="#111111">Worker</text></svg>