<svg xmlns="http://www.w3.org/2000/svg" width="520" height="560" viewBox="0 0 520 560"><rect width="100%" height="100%" fill="white"/><rect x="24" y="24" width="120" height="32" rx="4" ry="4" fill="#eef6ff" stroke="#225588" stroke-width="1"/><text x="84" y="45" text-anchor="middle" font-family="monospace" font-size="13">API</text><rect x="184" y="24" width="120" height="32" rx="4" ry="4" fill="#eef6ff" stroke="#225588" stroke-width="1"/><text x="244" y="45" text-anchor="middle" font-family="monospace" font-size="13">Worker</text><line x1="84" y1="56" x2="84" y2="504" stroke="#008800" stroke-width="1" stroke-dasharray="6 4"/><line x1="244" y1="56" x2="244" y2="504" stroke="#008800" stroke-width="1" stroke-dasharray="6 4"/><rect x="24" y="200" width="320" height="280" rx="2" ry="2" fill="#f7f7f7" stroke="#444444" stroke-width="1"/><text x="32" y="216" font-family="monospace" font-size="12" font-weight="600">alt success</text><line x1="24" y1="280" x2="344" y2="280" stroke="#444444" stroke-width="1" stroke-dasharray="5 4"/><text x="32" y="274" font-family="monospace" font-size="11" fill="#333">failure</text><line x1="84" y1="80" x2="244" y2="80" stroke="#aa0000" stroke-width="1.5"/><polygon points="244,80 238,76 238,84" fill="#aa0000"/><text x="166" y="40" text-anchor="middle" font-family="monospace" font-size="12">enqueue long payload</text><text x="166" y="56" text-anchor="middle" font-family="monospace" font-size="12">text that wraps</text><text x="166" y="72" text-anchor="middle" font-family="monospace" font-size="12">deterministically</text><line x1="244" y1="240" x2="84" y2="240" stroke="#aa0000" stroke-width="1.5" stroke-dasharray="6 4"/><polygon points="84,240 90,236 90,244" fill="#aa0000"/><text x="166" y="232" text-anchor="middle" font-family="monospace" font-size="12">202 Accepted</text><line x1="244" y1="400" x2="84" y2="400" stroke="#aa0000" stroke-width="1.5" stroke-dasharray="6 4"/><polygon points="84,400 90,396 90,404" fill="#aa0000"/><text x="166" y="392" text-anchor="middle" font-family="monospace" font-size="12">400 Bad Request</text><rect x="316" y="320" width="180" height="48" rx="2" ry="2" fill="#fff8cc" stroke="#aa8800" stroke-width="1"/><text x="324" y="340" font-family="monospace" font-size="12">validation failed</text><text x="324" y="356" font-family="monospace" font-size="12">retry later</text><rect x="24" y="504" width="120" height="32" rx="4" ry="4" fill="#eef6ff" stroke="#225588" stroke-width="1"/><text x="84" y="525" text-anchor="middle" font-family="monospace" font-size="13">API</text><rect x="184" y="504" width="120" height="32" rx="4" ry="4" fill="#eef6ff" stroke="#225588" stroke-width="1"/><text x="244" y="525" text-anchor="middle" font-family="monospace" font-size="13">Worker</text></svg>