<svg xmlns="http://www.w3.org/2000/svg" width="332" height="424" viewBox="0 0 332 424"><rect width="100%" height="100%" fill="white"/><text x="16" y="16" font-family="monospace" font-size="18" font-weight="600" fill="#111">Lifecycle + Structure</text><rect x="16" y="44" width="80" height="32" rx="8" ry="8" fill="#fff3e0" stroke="#8a5a00" stroke-width="1"/><circle cx="28" cy="45" r="6" fill="none" stroke="#8a5a00" stroke-width="1.5"/><line x1="28" y1="51" x2="28" y2="65" stroke="#8a5a00" stroke-width="1.5"/><line x1="18" y1="55" x2="38" y2="55" stroke="#8a5a00" stroke-width="1.5"/><line x1="28" y1="65" x2="20" y2="81" stroke="#8a5a00" stroke-width="1.5"/><line x1="28" y1="65" x2="36" y2="81" stroke="#8a5a00" stroke-width="1.5"/><text x="56" y="65" text-anchor="middle" font-family="monospace" font-size="13" fill="#111111">Caller</text><rect x="116" y="44" width="80" height="32" rx="4" ry="4" fill="#f6f6f6" stroke="#111" stroke-width="1"/><text x="156" y="65" text-anchor="middle" font-family="monospace" font-size="13" fill="#111111">API</text><rect x="216" y="100" width="80" height="32" rx="4" ry="4" fill="#f6f6f6" stroke="#111" stroke-width="1"/><text x="256" y="121" text-anchor="middle" font-family="monospace" font-size="13" fill="#111111">Worker</text><line x1="56" y1="76" x2="56" y2="376" stroke="#555" stroke-width="1" stroke-dasharray="6 4"/><line x1="156" y1="76" x2="156" y2="376" stroke="#555" stroke-width="1" stroke-dasharray="6 4"/><line x1="256" y1="132" x2="256" y2="376" stroke="#555" stroke-width="1" stroke-dasharray="6 4"/><rect class="sequence-activation" data-participant="API" x="151" y="164" width="10" height="188" fill="#ffffff" stroke="#555" stroke-width="1"/><line x1="56" y1="164" x2="151" y2="164" stroke="#111" stroke-width="1.5"/><polygon points="151,164 143,159 143,169" fill="#111" stroke="#111" stroke-width="1"/><text x="64" y="156" text-anchor="start" font-family="monospace" font-size="12" fill="#111">1 start</text><line x1="161" y1="220" x2="256" y2="220" stroke="#111" stroke-width="1.5"/><polygon points="256,220 248,215 248,225" fill="#111" stroke="#111" stroke-width="1"/><text x="169" y="212" text-anchor="start" font-family="monospace" font-size="12" fill="#111">2 handoff</text><line x1="256" y1="304" x2="161" y2="304" stroke="#111" stroke-width="1.5" stroke-dasharray="6 4"/><polygon points="161,304 169,299 169,309" fill="#111" stroke="#111" stroke-width="1"/><text x="169" y="296" text-anchor="start" font-family="monospace" font-size="12" fill="#111">3 done</text><line x1="151" y1="332" x2="56" y2="332" stroke="#111" stroke-width="1.5" stroke-dasharray="6 4"/><polygon points="56,332 64,327 64,337" fill="#111" stroke="#111" stroke-width="1"/><text x="64" y="324" text-anchor="start" font-family="monospace" font-size="12" fill="#111">4 ok</text><circle class="sequence-create" data-participant="Worker" cx="256" cy="100" r="5" fill="#dcfce7" stroke="#15803d" stroke-width="1.5"/><g class="sequence-destroy" data-participant="Worker" stroke="#b91c1c" stroke-width="2"><line x1="250" y1="346" x2="262" y2="358"/><line x1="250" y1="358" x2="262" y2="346"/></g><line x1="16" y1="184" x2="316" y2="184" stroke="#222" stroke-width="1.5"/><text x="166" y="178" text-anchor="middle" font-family="monospace" font-size="11" font-weight="600" fill="#222">== Dispatch ==</text><line x1="16" y1="240" x2="316" y2="240" stroke="#666" stroke-width="1" stroke-dasharray="8 5"/><text x="166" y="234" text-anchor="middle" font-family="monospace" font-size="11" fill="#333">waiting</text><line x1="16" y1="268" x2="316" y2="268" stroke="#777" stroke-width="1" stroke-dasharray="3 7"/><rect x="16" y="376" width="80" height="32" rx="8" ry="8" fill="#fff3e0" stroke="#8a5a00" stroke-width="1"/><circle cx="28" cy="377" r="6" fill="none" stroke="#8a5a00" stroke-width="1.5"/><line x1="28" y1="383" x2="28" y2="397" stroke="#8a5a00" stroke-width="1.5"/><line x1="18" y1="387" x2="38" y2="387" stroke="#8a5a00" stroke-width="1.5"/><line x1="28" y1="397" x2="20" y2="413" stroke="#8a5a00" stroke-width="1.5"/><line x1="28" y1="397" x2="36" y2="413" stroke="#8a5a00" stroke-width="1.5"/><text x="56" y="397" text-anchor="middle" font-family="monospace" font-size="13" fill="#111111">Caller</text><rect x="116" y="376" width="80" height="32" rx="4" ry="4" fill="#f6f6f6" stroke="#111" stroke-width="1"/><text x="156" y="397" text-anchor="middle" font-family="monospace" font-size="13" fill="#111111">API</text><rect x="216" y="376" width="80" height="32" rx="4" ry="4" fill="#f6f6f6" stroke="#111" stroke-width="1"/><text x="256" y="397" text-anchor="middle" font-family="monospace" font-size="13" fill="#111111">Worker</text></svg>