<svg xmlns="http://www.w3.org/2000/svg" width="1288" height="480" viewBox="0 0 1288 480"><rect width="100%" height="100%" fill="white"/><rect x="24" y="24" width="120" height="32" rx="4" ry="4" fill="#f6f6f6" stroke="#111" stroke-width="1"/><text x="84" y="45" text-anchor="middle" font-family="monospace" font-size="13" fill="#111111">Client</text><rect x="184" y="24" width="120" height="32" rx="8" ry="8" fill="#fff3e0" stroke="#8a5a00" stroke-width="1"/><circle cx="196" cy="25" r="6" fill="none" stroke="#8a5a00" stroke-width="1.5"/><line x1="196" y1="31" x2="196" y2="45" stroke="#8a5a00" stroke-width="1.5"/><line x1="186" y1="35" x2="206" y2="35" stroke="#8a5a00" stroke-width="1.5"/><line x1="196" y1="45" x2="188" y2="61" stroke="#8a5a00" stroke-width="1.5"/><line x1="196" y1="45" x2="204" y2="61" stroke="#8a5a00" stroke-width="1.5"/><text x="244" y="45" text-anchor="middle" font-family="monospace" font-size="13" fill="#111111">User</text><rect x="344" y="24" width="120" height="32" fill="#eef8ff" stroke="#1b5e8a" stroke-width="1" stroke-dasharray="5 3"/><line x1="350" y1="28" x2="350" y2="52" stroke="#1b5e8a" stroke-width="1"/><line x1="458" y1="28" x2="458" y2="52" stroke="#1b5e8a" stroke-width="1"/><text x="404" y="45" text-anchor="middle" font-family="monospace" font-size="13" fill="#111111">Gateway</text><polygon points="514,24 614,24 624,40 614,56 514,56 504,40" fill="#edf7ed" stroke="#2d6a2d" stroke-width="1"/><line x1="514" y1="40" x2="614" y2="40" stroke="#2d6a2d" stroke-width="1"/><text x="564" y="45" text-anchor="middle" font-family="monospace" font-size="13" fill="#111111">Service</text><rect x="664" y="24" width="120" height="32" rx="3" ry="3" fill="#f4f0ff" stroke="#4e3a8f" stroke-width="1"/><rect x="668" y="28" width="112" height="24" rx="2" ry="2" fill="none" stroke="#4e3a8f" stroke-width="1"/><line x1="670" y1="36" x2="778" y2="36" stroke="#4e3a8f" stroke-width="1"/><text x="724" y="45" text-anchor="middle" font-family="monospace" font-size="13" fill="#111111">Store</text><ellipse cx="884" cy="30" rx="58" ry="6" fill="#e9f5ff" stroke="#1b5e8a" stroke-width="1"/><rect x="826" y="30" width="116" height="20" fill="#e9f5ff" stroke="#1b5e8a" stroke-width="1"/><ellipse cx="884" cy="50" rx="58" ry="6" fill="#e9f5ff" stroke="#1b5e8a" stroke-width="1"/><text x="884" y="45" text-anchor="middle" font-family="monospace" font-size="13" fill="#111111">DB</text><rect x="984" y="28" width="120" height="28" rx="3" ry="3" fill="#fff9e8" stroke="#8a6d1b" stroke-width="1"/><rect x="992" y="24" width="24" height="8" rx="2" ry="2" fill="#fff9e8" stroke="#8a6d1b" stroke-width="1"/><rect x="998" y="26" width="24" height="8" rx="2" ry="2" fill="#fff9e8" stroke="#8a6d1b" stroke-width="1"/><text x="1044" y="45" text-anchor="middle" font-family="monospace" font-size="13" fill="#111111">Cache</text><rect x="1144" y="24" width="120" height="32" rx="4" ry="4" fill="#e9f5ff" stroke="#1b5e8a" stroke-width="1"/><ellipse cx="1154" cy="40" rx="6" ry="12" fill="#d0eaff" stroke="#1b5e8a" stroke-width="1"/><ellipse cx="1254" cy="40" rx="6" ry="12" fill="#d0eaff" stroke="#1b5e8a" stroke-width="1"/><text x="1204" y="45" text-anchor="middle" font-family="monospace" font-size="13" fill="#111111">Jobs</text><line x1="84" y1="56" x2="84" y2="424" stroke="#555" stroke-width="1" stroke-dasharray="6 4"/><line x1="244" y1="56" x2="244" y2="424" stroke="#555" stroke-width="1" stroke-dasharray="6 4"/><line x1="404" y1="56" x2="404" y2="424" stroke="#555" stroke-width="1" stroke-dasharray="6 4"/><line x1="564" y1="56" x2="564" y2="424" stroke="#555" stroke-width="1" stroke-dasharray="6 4"/><line x1="724" y1="56" x2="724" y2="424" stroke="#555" stroke-width="1" stroke-dasharray="6 4"/><line x1="884" y1="56" x2="884" y2="424" stroke="#555" stroke-width="1" stroke-dasharray="6 4"/><line x1="1044" y1="56" x2="1044" y2="424" stroke="#555" stroke-width="1" stroke-dasharray="6 4"/><line x1="1204" y1="56" x2="1204" y2="424" stroke="#555" stroke-width="1" stroke-dasharray="6 4"/><line x1="244" y1="88" x2="84" y2="88" stroke="#111" stroke-width="1.5"/><polygon points="84,88 92,83 92,93" fill="#111" stroke="#111" stroke-width="1"/><text x="92" y="80" text-anchor="start" font-family="monospace" font-size="12" fill="#111">click button</text><line x1="84" y1="128" x2="404" y2="128" stroke="#111" stroke-width="1.5"/><polygon points="404,128 396,123 396,133" fill="#111" stroke="#111" stroke-width="1"/><text x="92" y="120" text-anchor="start" font-family="monospace" font-size="12" fill="#111">POST /jobs</text><line x1="404" y1="168" x2="564" y2="168" stroke="#111" stroke-width="1.5"/><polygon points="564,168 556,163 556,173" fill="#111" stroke="#111" stroke-width="1"/><text x="412" y="160" text-anchor="start" font-family="monospace" font-size="12" fill="#111">validate</text><line x1="564" y1="208" x2="724" y2="208" stroke="#111" stroke-width="1.5"/><polygon points="724,208 716,203 716,213" fill="#111" stroke="#111" stroke-width="1"/><text x="572" y="200" text-anchor="start" font-family="monospace" font-size="12" fill="#111">load profile</text><line x1="724" y1="248" x2="884" y2="248" stroke="#111" stroke-width="1.5"/><polygon points="884,248 876,243 876,253" fill="#111" stroke="#111" stroke-width="1"/><text x="732" y="240" text-anchor="start" font-family="monospace" font-size="12" fill="#111">query</text><line x1="884" y1="288" x2="724" y2="288" stroke="#111" stroke-width="1.5" stroke-dasharray="6 4"/><polygon points="724,288 732,283 732,293" fill="#111" stroke="#111" stroke-width="1"/><text x="732" y="280" text-anchor="start" font-family="monospace" font-size="12" fill="#111">row</text><line x1="724" y1="328" x2="1044" y2="328" stroke="#111" stroke-width="1.5"/><polygon points="1044,328 1036,323 1036,333" fill="#111" stroke="#111" stroke-width="1"/><text x="732" y="320" text-anchor="start" font-family="monospace" font-size="12" fill="#111">cache put</text><line x1="564" y1="368" x2="1204" y2="368" stroke="#111" stroke-width="1.5"/><polygon points="1204,368 1196,363 1196,373" fill="#111" stroke="#111" stroke-width="1"/><text x="572" y="360" text-anchor="start" font-family="monospace" font-size="12" fill="#111">enqueue</text><line x1="1204" y1="408" x2="84" y2="408" stroke="#111" stroke-width="1.5" stroke-dasharray="6 4"/><polygon points="84,408 92,403 92,413" fill="#111" stroke="#111" stroke-width="1"/><text x="92" y="400" text-anchor="start" font-family="monospace" font-size="12" fill="#111">queued</text><rect x="24" y="424" width="120" height="32" rx="4" ry="4" fill="#f6f6f6" stroke="#111" stroke-width="1"/><text x="84" y="445" text-anchor="middle" font-family="monospace" font-size="13" fill="#111111">Client</text><rect x="184" y="424" width="120" height="32" rx="8" ry="8" fill="#fff3e0" stroke="#8a5a00" stroke-width="1"/><circle cx="196" cy="425" r="6" fill="none" stroke="#8a5a00" stroke-width="1.5"/><line x1="196" y1="431" x2="196" y2="445" stroke="#8a5a00" stroke-width="1.5"/><line x1="186" y1="435" x2="206" y2="435" stroke="#8a5a00" stroke-width="1.5"/><line x1="196" y1="445" x2="188" y2="461" stroke="#8a5a00" stroke-width="1.5"/><line x1="196" y1="445" x2="204" y2="461" stroke="#8a5a00" stroke-width="1.5"/><text x="244" y="445" text-anchor="middle" font-family="monospace" font-size="13" fill="#111111">User</text><rect x="344" y="424" width="120" height="32" fill="#eef8ff" stroke="#1b5e8a" stroke-width="1" stroke-dasharray="5 3"/><line x1="350" y1="428" x2="350" y2="452" stroke="#1b5e8a" stroke-width="1"/><line x1="458" y1="428" x2="458" y2="452" stroke="#1b5e8a" stroke-width="1"/><text x="404" y="445" text-anchor="middle" font-family="monospace" font-size="13" fill="#111111">Gateway</text><polygon points="514,424 614,424 624,440 614,456 514,456 504,440" fill="#edf7ed" stroke="#2d6a2d" stroke-width="1"/><line x1="514" y1="440" x2="614" y2="440" stroke="#2d6a2d" stroke-width="1"/><text x="564" y="445" text-anchor="middle" font-family="monospace" font-size="13" fill="#111111">Service</text><rect x="664" y="424" width="120" height="32" rx="3" ry="3" fill="#f4f0ff" stroke="#4e3a8f" stroke-width="1"/><rect x="668" y="428" width="112" height="24" rx="2" ry="2" fill="none" stroke="#4e3a8f" stroke-width="1"/><line x1="670" y1="436" x2="778" y2="436" stroke="#4e3a8f" stroke-width="1"/><text x="724" y="445" text-anchor="middle" font-family="monospace" font-size="13" fill="#111111">Store</text><ellipse cx="884" cy="430" rx="58" ry="6" fill="#e9f5ff" stroke="#1b5e8a" stroke-width="1"/><rect x="826" y="430" width="116" height="20" fill="#e9f5ff" stroke="#1b5e8a" stroke-width="1"/><ellipse cx="884" cy="450" rx="58" ry="6" fill="#e9f5ff" stroke="#1b5e8a" stroke-width="1"/><text x="884" y="445" text-anchor="middle" font-family="monospace" font-size="13" fill="#111111">DB</text><rect x="984" y="428" width="120" height="28" rx="3" ry="3" fill="#fff9e8" stroke="#8a6d1b" stroke-width="1"/><rect x="992" y="424" width="24" height="8" rx="2" ry="2" fill="#fff9e8" stroke="#8a6d1b" stroke-width="1"/><rect x="998" y="426" width="24" height="8" rx="2" ry="2" fill="#fff9e8" stroke="#8a6d1b" stroke-width="1"/><text x="1044" y="445" text-anchor="middle" font-family="monospace" font-size="13" fill="#111111">Cache</text><rect x="1144" y="424" width="120" height="32" rx="4" ry="4" fill="#e9f5ff" stroke="#1b5e8a" stroke-width="1"/><ellipse cx="1154" cy="440" rx="6" ry="12" fill="#d0eaff" stroke="#1b5e8a" stroke-width="1"/><ellipse cx="1254" cy="440" rx="6" ry="12" fill="#d0eaff" stroke="#1b5e8a" stroke-width="1"/><text x="1204" y="445" text-anchor="middle" font-family="monospace" font-size="13" fill="#111111">Jobs</text></svg>