<svg xmlns="http://www.w3.org/2000/svg" width="528" height="508" viewBox="0 0 528 508"><rect width="100%" height="100%" fill="white"/><text x="24" y="24" font-family="monospace" font-size="18" font-weight="600" fill="#111">Lifecycle + Structure</text><rect x="24" y="52" width="120" height="32" rx="8" ry="8" fill="#fff3e0" stroke="#8a5a00" stroke-width="1"/><circle cx="36" cy="53" r="6" fill="none" stroke="#8a5a00" stroke-width="1.5"/><line x1="36" y1="59" x2="36" y2="73" stroke="#8a5a00" stroke-width="1.5"/><line x1="26" y1="63" x2="46" y2="63" stroke="#8a5a00" stroke-width="1.5"/><line x1="36" y1="73" x2="28" y2="89" stroke="#8a5a00" stroke-width="1.5"/><line x1="36" y1="73" x2="44" y2="89" stroke="#8a5a00" stroke-width="1.5"/><text x="84" y="73" text-anchor="middle" font-family="monospace" font-size="13" fill="#111111">Caller</text><rect x="184" y="52" width="120" height="32" rx="4" ry="4" fill="#f6f6f6" stroke="#111" stroke-width="1"/><text x="244" y="73" text-anchor="middle" font-family="monospace" font-size="13" fill="#111111">API</text><rect x="344" y="108" width="120" height="32" rx="4" ry="4" fill="#f6f6f6" stroke="#111" stroke-width="1"/><text x="404" y="129" text-anchor="middle" font-family="monospace" font-size="13" fill="#111111">Worker</text><line x1="84" y1="84" x2="84" y2="452" stroke="#555" stroke-width="1" stroke-dasharray="6 4"/><line x1="244" y1="84" x2="244" y2="452" stroke="#555" stroke-width="1" stroke-dasharray="6 4"/><line x1="404" y1="140" x2="404" y2="452" stroke="#555" stroke-width="1" stroke-dasharray="6 4"/><rect class="sequence-activation" data-participant="API" x="239" y="156" width="10" height="272" fill="#ffffff" stroke="#555" stroke-width="1"/><line x1="84" y1="156" x2="239" y2="156" stroke="#111" stroke-width="1.5"/><polygon points="239,156 231,151 231,161" fill="#111" stroke="#111" stroke-width="1"/><text x="92" y="148" text-anchor="start" font-family="monospace" font-size="12" fill="#111">1 start</text><line x1="249" y1="236" x2="404" y2="236" stroke="#111" stroke-width="1.5"/><polygon points="404,236 396,231 396,241" fill="#111" stroke="#111" stroke-width="1"/><text x="257" y="228" text-anchor="start" font-family="monospace" font-size="12" fill="#111">2 handoff</text><line x1="404" y1="356" x2="249" y2="356" stroke="#111" stroke-width="1.5" stroke-dasharray="6 4"/><polygon points="249,356 257,351 257,361" fill="#111" stroke="#111" stroke-width="1"/><text x="257" y="348" text-anchor="start" font-family="monospace" font-size="12" fill="#111">3 done</text><line x1="239" y1="396" x2="84" y2="396" stroke="#111" stroke-width="1.5" stroke-dasharray="6 4"/><polygon points="84,396 92,391 92,401" fill="#111" stroke="#111" stroke-width="1"/><text x="92" y="388" text-anchor="start" font-family="monospace" font-size="12" fill="#111">4 ok</text><circle class="sequence-create" data-participant="Worker" cx="404" cy="108" r="5" fill="#dcfce7" stroke="#15803d" stroke-width="1.5"/><g class="sequence-destroy" data-participant="Worker" stroke="#b91c1c" stroke-width="2"><line x1="398" y1="422" x2="410" y2="434"/><line x1="398" y1="434" x2="410" y2="422"/></g><line x1="24" y1="188" x2="504" y2="188" stroke="#222" stroke-width="1.5"/><text x="264" y="182" text-anchor="middle" font-family="monospace" font-size="11" font-weight="600" fill="#222">== Dispatch ==</text><line x1="24" y1="268" x2="504" y2="268" stroke="#666" stroke-width="1" stroke-dasharray="8 5"/><text x="264" y="262" text-anchor="middle" font-family="monospace" font-size="11" fill="#333">waiting</text><line x1="24" y1="308" x2="504" y2="308" stroke="#777" stroke-width="1" stroke-dasharray="3 7"/><rect x="24" y="452" width="120" height="32" rx="8" ry="8" fill="#fff3e0" stroke="#8a5a00" stroke-width="1"/><circle cx="36" cy="453" r="6" fill="none" stroke="#8a5a00" stroke-width="1.5"/><line x1="36" y1="459" x2="36" y2="473" stroke="#8a5a00" stroke-width="1.5"/><line x1="26" y1="463" x2="46" y2="463" stroke="#8a5a00" stroke-width="1.5"/><line x1="36" y1="473" x2="28" y2="489" stroke="#8a5a00" stroke-width="1.5"/><line x1="36" y1="473" x2="44" y2="489" stroke="#8a5a00" stroke-width="1.5"/><text x="84" y="473" text-anchor="middle" font-family="monospace" font-size="13" fill="#111111">Caller</text><rect x="184" y="452" width="120" height="32" rx="4" ry="4" fill="#f6f6f6" stroke="#111" stroke-width="1"/><text x="244" y="473" text-anchor="middle" font-family="monospace" font-size="13" fill="#111111">API</text><rect x="344" y="452" width="120" height="32" rx="4" ry="4" fill="#f6f6f6" stroke="#111" stroke-width="1"/><text x="404" y="473" text-anchor="middle" font-family="monospace" font-size="13" fill="#111111">Worker</text></svg>