<svg xmlns="http://www.w3.org/2000/svg" width="812" height="368" viewBox="0 0 812 368"><rect width="100%" height="100%" fill="white"/><rect x="16" y="16" width="80" height="32" rx="4" ry="4" fill="#f6f6f6" stroke="#111" stroke-width="1"/><text x="56" y="37" text-anchor="middle" font-family="monospace" font-size="13" fill="#111111">Client</text><rect x="116" y="16" width="80" height="32" rx="8" ry="8" fill="#fff3e0" stroke="#8a5a00" stroke-width="1"/><circle cx="128" cy="17" r="6" fill="none" stroke="#8a5a00" stroke-width="1.5"/><line x1="128" y1="23" x2="128" y2="37" stroke="#8a5a00" stroke-width="1.5"/><line x1="118" y1="27" x2="138" y2="27" stroke="#8a5a00" stroke-width="1.5"/><line x1="128" y1="37" x2="120" y2="53" stroke="#8a5a00" stroke-width="1.5"/><line x1="128" y1="37" x2="136" y2="53" stroke="#8a5a00" stroke-width="1.5"/><text x="156" y="37" text-anchor="middle" font-family="monospace" font-size="13" fill="#111111">User</text><rect x="216" y="16" width="80" height="32" fill="#eef8ff" stroke="#1b5e8a" stroke-width="1" stroke-dasharray="5 3"/><line x1="222" y1="20" x2="222" y2="44" stroke="#1b5e8a" stroke-width="1"/><line x1="290" y1="20" x2="290" y2="44" stroke="#1b5e8a" stroke-width="1"/><text x="256" y="37" text-anchor="middle" font-family="monospace" font-size="13" fill="#111111">Gateway</text><polygon points="326,16 386,16 396,32 386,48 326,48 316,32" fill="#edf7ed" stroke="#2d6a2d" stroke-width="1"/><line x1="326" y1="32" x2="386" y2="32" stroke="#2d6a2d" stroke-width="1"/><text x="356" y="37" text-anchor="middle" font-family="monospace" font-size="13" fill="#111111">Service</text><rect x="416" y="16" width="80" height="32" rx="3" ry="3" fill="#f4f0ff" stroke="#4e3a8f" stroke-width="1"/><rect x="420" y="20" width="72" height="24" rx="2" ry="2" fill="none" stroke="#4e3a8f" stroke-width="1"/><line x1="422" y1="28" x2="490" y2="28" stroke="#4e3a8f" stroke-width="1"/><text x="456" y="37" text-anchor="middle" font-family="monospace" font-size="13" fill="#111111">Store</text><ellipse cx="556" cy="22" rx="38" ry="6" fill="#e9f5ff" stroke="#1b5e8a" stroke-width="1"/><rect x="518" y="22" width="76" height="20" fill="#e9f5ff" stroke="#1b5e8a" stroke-width="1"/><ellipse cx="556" cy="42" rx="38" ry="6" fill="#e9f5ff" stroke="#1b5e8a" stroke-width="1"/><text x="556" y="37" text-anchor="middle" font-family="monospace" font-size="13" fill="#111111">DB</text><rect x="616" y="20" width="80" height="28" rx="3" ry="3" fill="#fff9e8" stroke="#8a6d1b" stroke-width="1"/><rect x="624" y="16" width="24" height="8" rx="2" ry="2" fill="#fff9e8" stroke="#8a6d1b" stroke-width="1"/><rect x="630" y="18" width="24" height="8" rx="2" ry="2" fill="#fff9e8" stroke="#8a6d1b" stroke-width="1"/><text x="656" y="37" text-anchor="middle" font-family="monospace" font-size="13" fill="#111111">Cache</text><rect x="716" y="16" width="80" height="32" rx="4" ry="4" fill="#e9f5ff" stroke="#1b5e8a" stroke-width="1"/><ellipse cx="726" cy="32" rx="6" ry="12" fill="#d0eaff" stroke="#1b5e8a" stroke-width="1"/><ellipse cx="786" cy="32" rx="6" ry="12" fill="#d0eaff" stroke="#1b5e8a" stroke-width="1"/><text x="756" y="37" text-anchor="middle" font-family="monospace" font-size="13" fill="#111111">Jobs</text><line x1="56" y1="48" x2="56" y2="320" stroke="#555" stroke-width="1" stroke-dasharray="6 4"/><line x1="156" y1="48" x2="156" y2="320" stroke="#555" stroke-width="1" stroke-dasharray="6 4"/><line x1="256" y1="48" x2="256" y2="320" stroke="#555" stroke-width="1" stroke-dasharray="6 4"/><line x1="356" y1="48" x2="356" y2="320" stroke="#555" stroke-width="1" stroke-dasharray="6 4"/><line x1="456" y1="48" x2="456" y2="320" stroke="#555" stroke-width="1" stroke-dasharray="6 4"/><line x1="556" y1="48" x2="556" y2="320" stroke="#555" stroke-width="1" stroke-dasharray="6 4"/><line x1="656" y1="48" x2="656" y2="320" stroke="#555" stroke-width="1" stroke-dasharray="6 4"/><line x1="756" y1="48" x2="756" y2="320" stroke="#555" stroke-width="1" stroke-dasharray="6 4"/><line x1="156" y1="80" x2="56" y2="80" stroke="#111" stroke-width="1.5"/><polygon points="56,80 64,75 64,85" fill="#111" stroke="#111" stroke-width="1"/><text x="64" y="72" text-anchor="start" font-family="monospace" font-size="12" fill="#111">click button</text><line x1="56" y1="108" x2="256" y2="108" stroke="#111" stroke-width="1.5"/><polygon points="256,108 248,103 248,113" fill="#111" stroke="#111" stroke-width="1"/><text x="64" y="100" text-anchor="start" font-family="monospace" font-size="12" fill="#111">POST /jobs</text><line x1="256" y1="136" x2="356" y2="136" stroke="#111" stroke-width="1.5"/><polygon points="356,136 348,131 348,141" fill="#111" stroke="#111" stroke-width="1"/><text x="264" y="128" text-anchor="start" font-family="monospace" font-size="12" fill="#111">validate</text><line x1="356" y1="164" x2="456" y2="164" stroke="#111" stroke-width="1.5"/><polygon points="456,164 448,159 448,169" fill="#111" stroke="#111" stroke-width="1"/><text x="364" y="156" text-anchor="start" font-family="monospace" font-size="12" fill="#111">load profile</text><line x1="456" y1="192" x2="556" y2="192" stroke="#111" stroke-width="1.5"/><polygon points="556,192 548,187 548,197" fill="#111" stroke="#111" stroke-width="1"/><text x="464" y="184" text-anchor="start" font-family="monospace" font-size="12" fill="#111">query</text><line x1="556" y1="220" x2="456" y2="220" stroke="#111" stroke-width="1.5" stroke-dasharray="6 4"/><polygon points="456,220 464,215 464,225" fill="#111" stroke="#111" stroke-width="1"/><text x="464" y="212" text-anchor="start" font-family="monospace" font-size="12" fill="#111">row</text><line x1="456" y1="248" x2="656" y2="248" stroke="#111" stroke-width="1.5"/><polygon points="656,248 648,243 648,253" fill="#111" stroke="#111" stroke-width="1"/><text x="464" y="240" text-anchor="start" font-family="monospace" font-size="12" fill="#111">cache put</text><line x1="356" y1="276" x2="756" y2="276" stroke="#111" stroke-width="1.5"/><polygon points="756,276 748,271 748,281" fill="#111" stroke="#111" stroke-width="1"/><text x="364" y="268" text-anchor="start" font-family="monospace" font-size="12" fill="#111">enqueue</text><line x1="756" y1="304" x2="56" y2="304" stroke="#111" stroke-width="1.5" stroke-dasharray="6 4"/><polygon points="56,304 64,299 64,309" fill="#111" stroke="#111" stroke-width="1"/><text x="64" y="296" text-anchor="start" font-family="monospace" font-size="12" fill="#111">queued</text><rect x="16" y="320" width="80" height="32" rx="4" ry="4" fill="#f6f6f6" stroke="#111" stroke-width="1"/><text x="56" y="341" text-anchor="middle" font-family="monospace" font-size="13" fill="#111111">Client</text><rect x="116" y="320" width="80" height="32" rx="8" ry="8" fill="#fff3e0" stroke="#8a5a00" stroke-width="1"/><circle cx="128" cy="321" r="6" fill="none" stroke="#8a5a00" stroke-width="1.5"/><line x1="128" y1="327" x2="128" y2="341" stroke="#8a5a00" stroke-width="1.5"/><line x1="118" y1="331" x2="138" y2="331" stroke="#8a5a00" stroke-width="1.5"/><line x1="128" y1="341" x2="120" y2="357" stroke="#8a5a00" stroke-width="1.5"/><line x1="128" y1="341" x2="136" y2="357" stroke="#8a5a00" stroke-width="1.5"/><text x="156" y="341" text-anchor="middle" font-family="monospace" font-size="13" fill="#111111">User</text><rect x="216" y="320" width="80" height="32" fill="#eef8ff" stroke="#1b5e8a" stroke-width="1" stroke-dasharray="5 3"/><line x1="222" y1="324" x2="222" y2="348" stroke="#1b5e8a" stroke-width="1"/><line x1="290" y1="324" x2="290" y2="348" stroke="#1b5e8a" stroke-width="1"/><text x="256" y="341" text-anchor="middle" font-family="monospace" font-size="13" fill="#111111">Gateway</text><polygon points="326,320 386,320 396,336 386,352 326,352 316,336" fill="#edf7ed" stroke="#2d6a2d" stroke-width="1"/><line x1="326" y1="336" x2="386" y2="336" stroke="#2d6a2d" stroke-width="1"/><text x="356" y="341" text-anchor="middle" font-family="monospace" font-size="13" fill="#111111">Service</text><rect x="416" y="320" width="80" height="32" rx="3" ry="3" fill="#f4f0ff" stroke="#4e3a8f" stroke-width="1"/><rect x="420" y="324" width="72" height="24" rx="2" ry="2" fill="none" stroke="#4e3a8f" stroke-width="1"/><line x1="422" y1="332" x2="490" y2="332" stroke="#4e3a8f" stroke-width="1"/><text x="456" y="341" text-anchor="middle" font-family="monospace" font-size="13" fill="#111111">Store</text><ellipse cx="556" cy="326" rx="38" ry="6" fill="#e9f5ff" stroke="#1b5e8a" stroke-width="1"/><rect x="518" y="326" width="76" height="20" fill="#e9f5ff" stroke="#1b5e8a" stroke-width="1"/><ellipse cx="556" cy="346" rx="38" ry="6" fill="#e9f5ff" stroke="#1b5e8a" stroke-width="1"/><text x="556" y="341" text-anchor="middle" font-family="monospace" font-size="13" fill="#111111">DB</text><rect x="616" y="324" width="80" height="28" rx="3" ry="3" fill="#fff9e8" stroke="#8a6d1b" stroke-width="1"/><rect x="624" y="320" width="24" height="8" rx="2" ry="2" fill="#fff9e8" stroke="#8a6d1b" stroke-width="1"/><rect x="630" y="322" width="24" height="8" rx="2" ry="2" fill="#fff9e8" stroke="#8a6d1b" stroke-width="1"/><text x="656" y="341" text-anchor="middle" font-family="monospace" font-size="13" fill="#111111">Cache</text><rect x="716" y="320" width="80" height="32" rx="4" ry="4" fill="#e9f5ff" stroke="#1b5e8a" stroke-width="1"/><ellipse cx="726" cy="336" rx="6" ry="12" fill="#d0eaff" stroke="#1b5e8a" stroke-width="1"/><ellipse cx="786" cy="336" rx="6" ry="12" fill="#d0eaff" stroke="#1b5e8a" stroke-width="1"/><text x="756" y="341" text-anchor="middle" font-family="monospace" font-size="13" fill="#111111">Jobs</text></svg>