<svg xmlns="http://www.w3.org/2000/svg" width="528" height="428" viewBox="0 0 528 428"><rect width="100%" height="100%" fill="white"/><text x="24" y="24" font-family="monospace" font-size="18" font-weight="600">Lifecycle + Structure</text><rect x="24" y="52" width="120" height="32" rx="8" ry="8" fill="#fff3e0" stroke="#8a5a00" stroke-width="1"/><circle cx="36" cy="62" r="4" fill="none" stroke="#8a5a00" stroke-width="1"/><line x1="36" y1="66" x2="36" y2="74" stroke="#8a5a00" stroke-width="1"/><line x1="32" y1="70" x2="40" y2="70" stroke="#8a5a00" stroke-width="1"/><line x1="36" y1="74" x2="32" y2="80" stroke="#8a5a00" stroke-width="1"/><line x1="36" y1="74" x2="40" y2="80" stroke="#8a5a00" stroke-width="1"/><text x="84" y="73" text-anchor="middle" font-family="monospace" font-size="13">Caller</text><rect x="184" y="52" width="120" height="32" rx="4" ry="4" fill="#f6f6f6" stroke="#111" stroke-width="1"/><text x="244" y="73" text-anchor="middle" font-family="monospace" font-size="13">API</text><rect x="344" y="52" width="120" height="32" rx="4" ry="4" fill="#f6f6f6" stroke="#111" stroke-width="1"/><text x="404" y="73" text-anchor="middle" font-family="monospace" font-size="13">Worker</text><line x1="84" y1="84" x2="84" y2="372" stroke="#555" stroke-width="1" stroke-dasharray="6 4"/><line x1="244" y1="84" x2="244" y2="372" stroke="#555" stroke-width="1" stroke-dasharray="6 4"/><line x1="404" y1="84" x2="404" y2="372" stroke="#555" stroke-width="1" stroke-dasharray="6 4"/><line x1="84" y1="108" x2="244" y2="108" stroke="#111" stroke-width="1.5"/><polygon points="244,108 238,104 238,112" fill="#111"/><text x="166" y="100" text-anchor="middle" font-family="monospace" font-size="12">1 start</text><line x1="244" y1="188" x2="404" y2="188" stroke="#111" stroke-width="1.5"/><polygon points="404,188 398,184 398,192" fill="#111"/><text x="326" y="180" text-anchor="middle" font-family="monospace" font-size="12">2 handoff</text><line x1="404" y1="308" x2="244" y2="308" stroke="#111" stroke-width="1.5" stroke-dasharray="6 4"/><polygon points="244,308 250,304 250,312" fill="#111"/><text x="326" y="300" text-anchor="middle" font-family="monospace" font-size="12">3 done</text><line x1="244" y1="348" x2="84" y2="348" stroke="#111" stroke-width="1.5" stroke-dasharray="6 4"/><polygon points="84,348 90,344 90,352" fill="#111"/><text x="166" y="340" text-anchor="middle" font-family="monospace" font-size="12">4 ok</text><line x1="24" y1="148" x2="504" y2="148" stroke="#222" stroke-width="1.5"/><text x="264" y="142" text-anchor="middle" font-family="monospace" font-size="11" font-weight="600" fill="#222">== Dispatch ==</text><line x1="24" y1="228" x2="504" y2="228" stroke="#666" stroke-width="1" stroke-dasharray="8 5"/><text x="264" y="222" text-anchor="middle" font-family="monospace" font-size="11" fill="#333">waiting</text><line x1="24" y1="268" x2="504" y2="268" stroke="#777" stroke-width="1" stroke-dasharray="3 7"/><rect x="24" y="372" width="120" height="32" rx="8" ry="8" fill="#fff3e0" stroke="#8a5a00" stroke-width="1"/><circle cx="36" cy="382" r="4" fill="none" stroke="#8a5a00" stroke-width="1"/><line x1="36" y1="386" x2="36" y2="394" stroke="#8a5a00" stroke-width="1"/><line x1="32" y1="390" x2="40" y2="390" stroke="#8a5a00" stroke-width="1"/><line x1="36" y1="394" x2="32" y2="400" stroke="#8a5a00" stroke-width="1"/><line x1="36" y1="394" x2="40" y2="400" stroke="#8a5a00" stroke-width="1"/><text x="84" y="393" text-anchor="middle" font-family="monospace" font-size="13">Caller</text><rect x="184" y="372" width="120" height="32" rx="4" ry="4" fill="#f6f6f6" stroke="#111" stroke-width="1"/><text x="244" y="393" text-anchor="middle" font-family="monospace" font-size="13">API</text><rect x="344" y="372" width="120" height="32" rx="4" ry="4" fill="#f6f6f6" stroke="#111" stroke-width="1"/><text x="404" y="393" text-anchor="middle" font-family="monospace" font-size="13">Worker</text></svg>