<svg xmlns="http://www.w3.org/2000/svg" width="612" height="486" viewBox="0 0 612 486" data-diagram-family="chen" data-orientation="TopToBottom"><rect width="100%" height="100%" fill="#ffffff"/><text x="34" y="28" font-family="monospace" font-size="18" font-weight="700" fill="#111827">Basic Chen ER</text><line class="chen-edge" x1="300.0" y1="134.0" x2="408.0" y2="208.0" stroke="#334155" stroke-width="1.4"/><rect class="chen-cardinality-bg" x="345.5" y="155.0" width="17.0" height="16" rx="3" fill="#ffffff"/><text class="chen-cardinality" x="354.0" y="166.0" text-anchor="middle" font-family="monospace" font-size="12" fill="#0f172a">N</text><line class="chen-edge" x1="300.0" y1="134.0" x2="192.0" y2="208.0" stroke="#334155" stroke-width="1.4"/><rect class="chen-cardinality-bg" x="237.5" y="155.0" width="17.0" height="16" rx="3" fill="#ffffff"/><text class="chen-cardinality" x="246.0" y="166.0" text-anchor="middle" font-family="monospace" font-size="12" fill="#0f172a">1</text><line class="chen-edge" x1="408.0" y1="266.0" x2="488.0" y2="340.0" stroke="#334155" stroke-width="1.4"/><line class="chen-edge" x1="408.0" y1="266.0" x2="300.0" y2="340.0" stroke="#334155" stroke-width="1.4"/><line class="chen-edge" x1="192.0" y1="266.0" x2="112.0" y2="340.0" stroke="#334155" stroke-width="1.4"/><rect class="chen-entity" x="340.0" y="208.0" width="136.0" height="58.0" fill="#f8fafc" stroke="#111827" stroke-width="1.5"/><text x="408.0" y="242.0" text-anchor="middle" font-family="monospace" font-size="13" font-weight="600" fill="#111827">Person</text><ellipse class="chen-attribute" cx="488.0" cy="364.0" rx="54.0" ry="24.0" fill="#fff7ed" stroke="#9a3412" stroke-width="1.3"/><text x="488.0" y="369.0" text-anchor="middle" font-family="monospace" font-size="13" font-weight="600" fill="#7c2d12">Number</text><line class="chen-key-underline" x1="466.4" y1="370.0" x2="509.6" y2="370.0" stroke="#7c2d12" stroke-width="1"/><ellipse class="chen-attribute" cx="300.0" cy="364.0" rx="54.0" ry="24.0" fill="#fff7ed" stroke="#9a3412" stroke-width="1.3"/><text x="300.0" y="369.0" text-anchor="middle" font-family="monospace" font-size="13" font-weight="600" fill="#7c2d12">Name</text><rect class="chen-entity" x="124.0" y="208.0" width="136.0" height="58.0" fill="#f8fafc" stroke="#111827" stroke-width="1.5"/><text x="192.0" y="242.0" text-anchor="middle" font-family="monospace" font-size="13" font-weight="600" fill="#111827">Location</text><ellipse class="chen-attribute" cx="112.0" cy="364.0" rx="54.0" ry="24.0" fill="#fff7ed" stroke="#9a3412" stroke-width="1.3"/><text x="112.0" y="369.0" text-anchor="middle" font-family="monospace" font-size="13" font-weight="600" fill="#7c2d12">Code</text><line class="chen-key-underline" x1="97.6" y1="370.0" x2="126.4" y2="370.0" stroke="#7c2d12" stroke-width="1"/><polygon class="chen-relationship" points="300.0,58.0 368.0,96.0 300.0,134.0 232.0,96.0" fill="#ecfeff" stroke="#155e75" stroke-width="1.5"/><text x="300.0" y="101.0" text-anchor="middle" font-family="monospace" font-size="13" font-weight="600" fill="#164e63">Birthplace</text></svg>