<svg xmlns="http://www.w3.org/2000/svg" width="621" height="282" viewBox="0 0 621 282"><rect width="100%" height="100%" fill="white"/><text x="310" y="28" font-family="Arial,Helvetica,sans-serif" font-size="16" font-weight="bold" text-anchor="middle">Student Enrollment</text><line x1="200.0" y1="140.0" x2="80.0" y2="80.0" stroke="#555555" stroke-width="1.5"/><text x="104.0" y="86.0" font-family="Arial,Helvetica,sans-serif" font-size="13" fill="#333333" text-anchor="middle">N</text><line x1="200.0" y1="140.0" x2="320.0" y2="80.0" stroke="#555555" stroke-width="1.5"/><text x="296.0" y="86.0" font-family="Arial,Helvetica,sans-serif" font-size="13" fill="#333333" text-anchor="middle">M</text><line x1="80.0" y1="80.0" x2="80.0" y2="10.0" stroke="#888888" stroke-width="1.0"/><line x1="80.0" y1="80.0" x2="140.6" y2="115.0" stroke="#888888" stroke-width="1.0"/><line x1="80.0" y1="80.0" x2="19.4" y2="115.0" stroke="#888888" stroke-width="1.0"/><line x1="320.0" y1="80.0" x2="320.0" y2="10.0" stroke="#888888" stroke-width="1.0"/><line x1="320.0" y1="80.0" x2="380.6" y2="115.0" stroke="#888888" stroke-width="1.0"/><line x1="320.0" y1="80.0" x2="259.4" y2="115.0" stroke="#888888" stroke-width="1.0"/><rect x="20.0" y="58.0" width="120.0" height="44.0" rx="3" fill="#dbeafe" stroke="#2563eb" stroke-width="2"/><text x="80.0" y="80.0" font-family="Arial,Helvetica,sans-serif" font-size="13" fill="#1e3a8a" text-anchor="middle" dominant-baseline="middle">Student</text><rect x="260.0" y="58.0" width="120.0" height="44.0" rx="3" fill="#dbeafe" stroke="#2563eb" stroke-width="2"/><text x="320.0" y="80.0" font-family="Arial,Helvetica,sans-serif" font-size="13" fill="#1e3a8a" text-anchor="middle" dominant-baseline="middle">Course</text><polygon points="200.0,116.0 254.0,140.0 200.0,164.0 146.0,140.0" fill="#ede9fe" stroke="#7c3aed" stroke-width="2"/><text x="200.0" y="140.0" font-family="Arial,Helvetica,sans-serif" font-size="13" fill="#4c1d95" text-anchor="middle" dominant-baseline="middle">Enrolls</text><ellipse cx="80.0" cy="10.0" rx="40.0" ry="18.0" fill="#f9fafb" stroke="#374151" stroke-width="1.5"/><text x="80.0" y="10.0" font-family="Arial,Helvetica,sans-serif" font-size="13" fill="#374151" text-anchor="middle" dominant-baseline="middle" text-decoration="underline">StudentID</text><ellipse cx="140.6" cy="115.0" rx="40.0" ry="18.0" fill="#f9fafb" stroke="#374151" stroke-width="1.5"/><text x="140.6" y="115.0" font-family="Arial,Helvetica,sans-serif" font-size="13" fill="#374151" text-anchor="middle" dominant-baseline="middle">Name</text><ellipse cx="19.4" cy="115.0" rx="40.0" ry="18.0" fill="#f9fafb" stroke="#374151" stroke-width="1.5"/><text x="19.4" y="115.0" font-family="Arial,Helvetica,sans-serif" font-size="13" fill="#374151" text-anchor="middle" dominant-baseline="middle">Email</text><ellipse cx="320.0" cy="10.0" rx="40.0" ry="18.0" fill="#f9fafb" stroke="#374151" stroke-width="1.5"/><text x="320.0" y="10.0" font-family="Arial,Helvetica,sans-serif" font-size="13" fill="#374151" text-anchor="middle" dominant-baseline="middle" text-decoration="underline">CourseID</text><ellipse cx="380.6" cy="115.0" rx="40.0" ry="18.0" fill="#f9fafb" stroke="#374151" stroke-width="1.5"/><text x="380.6" y="115.0" font-family="Arial,Helvetica,sans-serif" font-size="13" fill="#374151" text-anchor="middle" dominant-baseline="middle">Title</text><ellipse cx="259.4" cy="115.0" rx="40.0" ry="18.0" fill="#f9fafb" stroke="#374151" stroke-width="1.5"/><text x="259.4" y="115.0" font-family="Arial,Helvetica,sans-serif" font-size="13" fill="#374151" text-anchor="middle" dominant-baseline="middle">Credits</text></svg>