<svg xmlns="http://www.w3.org/2000/svg" width="984" height="643" viewBox="0 0 984 643">
<rect width="100%" height="100%" fill="white"/>
<text x="492.1" y="28" font-family="monospace" font-size="16" font-weight="bold" fill="#111827" text-anchor="middle">Student Enrollment</text>
<line x1="227.4" y1="222.0" x2="325.5" y2="307.4" stroke="#555555" stroke-width="1.5"/>
<text x="252.5" y="260.2" font-family="monospace" font-size="13" fill="#555555" text-anchor="middle">N</text>
<line x1="472.6" y1="222.0" x2="374.5" y2="307.4" stroke="#555555" stroke-width="1.5"/>
<text x="447.5" y="260.2" font-family="monospace" font-size="13" fill="#555555" text-anchor="middle">M</text>
<line x1="159.0" y1="218.0" x2="101.6" y2="187.2" stroke="#888888" stroke-width="1.0"/>
<line x1="235.5" y1="218.0" x2="296.3" y2="180.4" stroke="#888888" stroke-width="1.0"/>
<line x1="200.7" y1="262.0" x2="203.8" y2="362.8" stroke="#888888" stroke-width="1.0"/>
<line x1="541.0" y1="218.0" x2="598.4" y2="187.2" stroke="#888888" stroke-width="1.0"/>
<line x1="499.3" y1="262.0" x2="496.2" y2="362.8" stroke="#888888" stroke-width="1.0"/>
<line x1="464.5" y1="218.0" x2="403.7" y2="180.4" stroke="#888888" stroke-width="1.0"/>
<rect x="140.0" y="218.0" width="120.0" height="44.0" rx="3" fill="#dbeafe" stroke="#2563eb" stroke-width="2"/>
<text x="200.0" y="240.0" font-family="monospace" font-size="13" fill="#1e3a8a" text-anchor="middle" dominant-baseline="middle">Student</text>
<rect x="440.0" y="218.0" width="120.0" height="44.0" rx="3" fill="#dbeafe" stroke="#2563eb" stroke-width="2"/>
<text x="500.0" y="240.0" font-family="monospace" font-size="13" fill="#1e3a8a" text-anchor="middle" dominant-baseline="middle">Course</text>
<polygon points="350.0,296.5 404.0,320.5 350.0,344.5 296.0,320.5" fill="#ede9fe" stroke="#7c3aed" stroke-width="2"/>
<text x="350.0" y="320.5" font-family="monospace" font-size="13" fill="#4c1d95" text-anchor="middle" dominant-baseline="middle">Enrolls</text>
<ellipse cx="75.9" cy="173.4" rx="40.0" ry="18.0" fill="#f9fafb" stroke="#374151" stroke-width="1.5"/>
<text x="75.9" y="173.4" font-family="monospace" font-size="13" fill="#374151" text-anchor="middle" dominant-baseline="middle" text-decoration="underline">StudentID</text>
<ellipse cx="319.8" cy="165.8" rx="40.0" ry="18.0" fill="#f9fafb" stroke="#374151" stroke-width="1.5"/>
<text x="319.8" y="165.8" font-family="monospace" font-size="13" fill="#374151" text-anchor="middle" dominant-baseline="middle">Name</text>
<ellipse cx="204.4" cy="380.8" rx="40.0" ry="18.0" fill="#f9fafb" stroke="#374151" stroke-width="1.5"/>
<text x="204.4" y="380.8" font-family="monospace" font-size="13" fill="#374151" text-anchor="middle" dominant-baseline="middle">Email</text>
<ellipse cx="624.1" cy="173.4" rx="40.0" ry="18.0" fill="#f9fafb" stroke="#374151" stroke-width="1.5"/>
<text x="624.1" y="173.4" font-family="monospace" font-size="13" fill="#374151" text-anchor="middle" dominant-baseline="middle" text-decoration="underline">CourseID</text>
<ellipse cx="495.6" cy="380.8" rx="40.0" ry="18.0" fill="#f9fafb" stroke="#374151" stroke-width="1.5"/>
<text x="495.6" y="380.8" font-family="monospace" font-size="13" fill="#374151" text-anchor="middle" dominant-baseline="middle">Title</text>
<ellipse cx="380.2" cy="165.8" rx="40.0" ry="18.0" fill="#f9fafb" stroke="#374151" stroke-width="1.5"/>
<text x="380.2" y="165.8" font-family="monospace" font-size="13" fill="#374151" text-anchor="middle" dominant-baseline="middle">Credits</text>
</svg>