<svg xmlns="http://www.w3.org/2000/svg" width="1176" height="458" viewBox="0 0 1176 458" data-diagram-family="chen" data-orientation="TopToBottom"><rect width="100%" height="100%" fill="#ffffff"/><text x="34" y="28" font-family="monospace" font-size="18" font-weight="700" fill="#111827">Chen Attributes</text><line class="chen-edge" x1="758.0" y1="87.0" x2="998.0" y2="214.0" stroke="#334155" stroke-width="1.4"/><line class="chen-edge" x1="622.0" y1="87.0" x2="542.0" y2="214.0" stroke="#334155" stroke-width="1.4"/><line class="chen-edge" x1="488.0" y1="238.0" x2="488.0" y2="312.0" stroke="#334155" stroke-width="1.4"/><line class="chen-edge" x1="542.0" y1="214.0" x2="622.0" y2="336.0" stroke="#334155" stroke-width="1.4"/><line class="chen-edge" x1="758.0" y1="87.0" x2="810.0" y2="214.0" stroke="#334155" stroke-width="1.4"/><line class="chen-edge" x1="690.0" y1="116.0" x2="676.0" y2="190.0" stroke="#334155" stroke-width="1.4"/><line class="chen-edge" x1="406.0" y1="87.0" x2="354.0" y2="214.0" stroke="#334155" stroke-width="1.4"/><line class="chen-edge" x1="406.0" y1="87.0" x2="166.0" y2="214.0" stroke="#334155" stroke-width="1.4"/><rect class="chen-entity" x="622.0" y="58.0" width="136.0" height="58.0" fill="#f8fafc" stroke="#111827" stroke-width="1.5"/><text x="690.0" y="92.0" text-anchor="middle" font-family="monospace" font-size="13" font-weight="600" fill="#111827">Director</text><ellipse class="chen-attribute" cx="1052.0" cy="214.0" rx="54.0" ry="24.0" fill="#fff7ed" stroke="#9a3412" stroke-width="1.3"/><text x="1052.0" y="212.0" text-anchor="middle" font-family="monospace" font-size="13" font-weight="600" fill="#7c2d12">No.</text><text x="1052.0" y="227.0" text-anchor="middle" font-family="monospace" font-size="10" fill="#64748b">INTEGER</text><line class="chen-key-underline" x1="1041.2" y1="220.0" x2="1062.8" y2="220.0" stroke="#7c2d12" stroke-width="1"/><ellipse class="chen-attribute" cx="488.0" cy="214.0" rx="54.0" ry="24.0" fill="#fff7ed" stroke="#9a3412" stroke-width="1.3"/><text x="488.0" y="219.0" text-anchor="middle" font-family="monospace" font-size="13" font-weight="600" fill="#7c2d12">Name</text><ellipse class="chen-attribute" cx="488.0" cy="336.0" rx="54.0" ry="24.0" fill="#fff7ed" stroke="#9a3412" stroke-width="1.3"/><text x="488.0" y="334.0" text-anchor="middle" font-family="monospace" font-size="13" font-weight="600" fill="#7c2d12">Fname</text><text x="488.0" y="349.0" text-anchor="middle" font-family="monospace" font-size="10" fill="#64748b">STRING</text><ellipse class="chen-attribute" cx="676.0" cy="336.0" rx="54.0" ry="24.0" fill="#fff7ed" stroke="#9a3412" stroke-width="1.3"/><text x="676.0" y="334.0" text-anchor="middle" font-family="monospace" font-size="13" font-weight="600" fill="#7c2d12">Lname</text><text x="676.0" y="349.0" text-anchor="middle" font-family="monospace" font-size="10" fill="#64748b">STRING</text><ellipse class="chen-attribute" cx="864.0" cy="214.0" rx="54.0" ry="24.0" fill="#fff7ed" stroke="#9a3412" stroke-width="1.3"/><text x="864.0" y="212.0" text-anchor="middle" font-family="monospace" font-size="13" font-weight="600" fill="#7c2d12">Born</text><text x="864.0" y="227.0" text-anchor="middle" font-family="monospace" font-size="10" fill="#64748b">DATE</text><ellipse class="chen-attribute" cx="676.0" cy="214.0" rx="54.0" ry="24.0" fill="#fff7ed" stroke="#9a3412" stroke-width="1.3" stroke-dasharray="5 4"/><text x="676.0" y="212.0" text-anchor="middle" font-family="monospace" font-size="13" font-weight="600" fill="#7c2d12">Age</text><text x="676.0" y="227.0" text-anchor="middle" font-family="monospace" font-size="10" fill="#64748b">INTEGER</text><rect class="chen-entity" x="406.0" y="58.0" width="136.0" height="58.0" fill="#f8fafc" stroke="#111827" stroke-width="1.5"/><text x="474.0" y="92.0" text-anchor="middle" font-family="monospace" font-size="13" font-weight="600" fill="#111827">Customer</text><ellipse class="chen-attribute" cx="300.0" cy="214.0" rx="54.0" ry="24.0" fill="#fff7ed" stroke="#9a3412" stroke-width="1.3"/><text x="300.0" y="219.0" text-anchor="middle" font-family="monospace" font-size="13" font-weight="600" fill="#7c2d12">Number</text><line class="chen-key-underline" x1="278.4" y1="220.0" x2="321.6" y2="220.0" stroke="#7c2d12" stroke-width="1"/><ellipse class="chen-attribute" cx="112.0" cy="214.0" rx="54.0" ry="24.0" fill="#fff7ed" stroke="#9a3412" stroke-width="1.3"/><ellipse class="chen-multivalued" cx="112.0" cy="214.0" rx="49.0" ry="19.0" fill="none" stroke="#9a3412" stroke-width="1"/><text x="112.0" y="219.0" text-anchor="middle" font-family="monospace" font-size="13" font-weight="600" fill="#7c2d12">Name</text></svg>