<svg xmlns="http://www.w3.org/2000/svg" width="1296" height="719" viewBox="0 0 1296 719">
<rect width="100%" height="100%" fill="white"/>
<text x="648.0" y="28" font-family="monospace" font-size="16" font-weight="bold" fill="#111827" text-anchor="middle">Library Management</text>
<line x1="472.6" y1="222.0" x2="374.5" y2="307.4" stroke="#555555" stroke-width="1.5"/>
<text x="447.5" y="260.2" font-family="monospace" font-size="13" fill="#555555" text-anchor="middle">N</text>
<line x1="227.4" y1="222.0" x2="325.5" y2="307.4" stroke="#555555" stroke-width="1.5"/>
<text x="252.5" y="260.2" font-family="monospace" font-size="13" fill="#555555" text-anchor="middle">M</text>
<line x1="745.2" y1="222.0" x2="533.7" y2="311.5" stroke="#555555" stroke-width="1.5"/>
<text x="695.0" y="260.2" font-family="monospace" font-size="13" fill="#555555" text-anchor="middle">1</text>
<line x1="254.8" y1="222.0" x2="466.3" y2="311.5" stroke="#555555" stroke-width="1.5"/>
<text x="305.0" y="260.2" font-family="monospace" font-size="13" fill="#555555" text-anchor="middle">N</text>
<line x1="166.0" y1="218.0" x2="104.5" y2="178.3" stroke="#888888" stroke-width="1.0"/>
<line x1="214.2" y1="218.0" x2="265.3" y2="139.0" stroke="#888888" stroke-width="1.0"/>
<line x1="234.0" y1="262.0" x2="295.5" y2="301.7" stroke="#888888" stroke-width="1.0"/>
<line x1="185.8" y1="262.0" x2="134.7" y2="341.0" stroke="#888888" stroke-width="1.0"/>
<line x1="541.0" y1="218.0" x2="598.4" y2="187.2" stroke="#888888" stroke-width="1.0"/>
<line x1="499.3" y1="262.0" x2="496.2" y2="362.8" stroke="#888888" stroke-width="1.0"/>
<line x1="464.5" y1="218.0" x2="403.7" y2="180.4" stroke="#888888" stroke-width="1.0"/>
<line x1="860.0" y1="223.9" x2="901.7" y2="212.7" stroke="#888888" stroke-width="1.0"/>
<line x1="740.0" y1="256.1" x2="698.3" y2="267.3" stroke="#888888" stroke-width="1.0"/>
<line x1="350.0" y1="344.5" x2="350.0" y2="439.1" stroke="#888888" stroke-width="1.0"/>
<line x1="350.0" y1="296.5" x2="350.0" y2="201.9" stroke="#888888" stroke-width="1.0"/>
<rect x="140.0" y="218.0" width="120.0" height="44.0" rx="3" fill="#dbeafe" stroke="#2563eb" stroke-width="2"/>
<text x="200.0" y="240.0" font-family="monospace" font-size="13" fill="#1e3a8a" text-anchor="middle" dominant-baseline="middle">Book</text>
<rect x="440.0" y="218.0" width="120.0" height="44.0" rx="3" fill="#dbeafe" stroke="#2563eb" stroke-width="2"/>
<text x="500.0" y="240.0" font-family="monospace" font-size="13" fill="#1e3a8a" text-anchor="middle" dominant-baseline="middle">Member</text>
<rect x="740.0" y="218.0" width="120.0" height="44.0" rx="3" fill="#dbeafe" stroke="#2563eb" stroke-width="2"/>
<text x="800.0" y="240.0" font-family="monospace" font-size="13" fill="#1e3a8a" text-anchor="middle" dominant-baseline="middle">Librarian</text>
<polygon points="350.0,296.5 404.0,320.5 350.0,344.5 296.0,320.5" fill="#ede9fe" stroke="#7c3aed" stroke-width="2"/>
<text x="350.0" y="320.5" font-family="monospace" font-size="13" fill="#4c1d95" text-anchor="middle" dominant-baseline="middle">Borrows</text>
<polygon points="500.0,296.5 554.0,320.5 500.0,344.5 446.0,320.5" fill="#ede9fe" stroke="#7c3aed" stroke-width="2"/>
<text x="500.0" y="320.5" font-family="monospace" font-size="13" fill="#4c1d95" text-anchor="middle" dominant-baseline="middle">Manages</text>
<ellipse cx="81.7" cy="163.5" rx="40.0" ry="18.0" fill="#f9fafb" stroke="#374151" stroke-width="1.5"/>
<text x="81.7" y="163.5" font-family="monospace" font-size="13" fill="#374151" text-anchor="middle" dominant-baseline="middle" text-decoration="underline">ISBN</text>
<ellipse cx="276.5" cy="121.7" rx="40.0" ry="18.0" fill="#f9fafb" stroke="#374151" stroke-width="1.5"/>
<text x="276.5" y="121.7" font-family="monospace" font-size="13" fill="#374151" text-anchor="middle" dominant-baseline="middle">Title</text>
<ellipse cx="318.3" cy="316.5" rx="40.0" ry="18.0" fill="#f9fafb" stroke="#374151" stroke-width="1.5" stroke-dasharray="4 3"/>
<text x="318.3" y="316.5" font-family="monospace" font-size="13" fill="#374151" text-anchor="middle" dominant-baseline="middle">AgeRating</text>
<ellipse cx="123.5" cy="358.3" rx="44.0" ry="22.0" fill="white" stroke="#374151" stroke-width="1.5"/>
<ellipse cx="123.5" cy="358.3" rx="40.0" ry="18.0" fill="#f9fafb" stroke="#374151" stroke-width="1.5"/>
<text x="123.5" y="358.3" font-family="monospace" font-size="13" fill="#374151" text-anchor="middle" dominant-baseline="middle">Authors</text>
<ellipse cx="624.1" cy="173.4" rx="40.0" ry="18.0" fill="#f9fafb" stroke="#374151" stroke-width="1.5"/>
<text x="624.1" y="173.4" font-family="monospace" font-size="13" fill="#374151" text-anchor="middle" dominant-baseline="middle" text-decoration="underline">MemberID</text>
<ellipse cx="495.6" cy="380.8" rx="40.0" ry="18.0" fill="#f9fafb" stroke="#374151" stroke-width="1.5"/>
<text x="495.6" y="380.8" font-family="monospace" font-size="13" fill="#374151" text-anchor="middle" dominant-baseline="middle">Name</text>
<ellipse cx="380.2" cy="165.8" rx="40.0" ry="18.0" fill="#f9fafb" stroke="#374151" stroke-width="1.5"/>
<text x="380.2" y="165.8" font-family="monospace" font-size="13" fill="#374151" text-anchor="middle" dominant-baseline="middle">Email</text>
<ellipse cx="936.1" cy="203.5" rx="40.0" ry="18.0" fill="#f9fafb" stroke="#374151" stroke-width="1.5"/>
<text x="936.1" y="203.5" font-family="monospace" font-size="13" fill="#374151" text-anchor="middle" dominant-baseline="middle" text-decoration="underline">StaffID</text>
<ellipse cx="663.9" cy="276.5" rx="40.0" ry="18.0" fill="#f9fafb" stroke="#374151" stroke-width="1.5"/>
<text x="663.9" y="276.5" font-family="monospace" font-size="13" fill="#374151" text-anchor="middle" dominant-baseline="middle">Name</text>
<ellipse cx="350.0" cy="457.1" rx="40.0" ry="18.0" fill="#f9fafb" stroke="#374151" stroke-width="1.5"/>
<text x="350.0" y="457.1" font-family="monospace" font-size="13" fill="#374151" text-anchor="middle" dominant-baseline="middle">BorrowDate</text>
<ellipse cx="350.0" cy="183.9" rx="40.0" ry="18.0" fill="#f9fafb" stroke="#374151" stroke-width="1.5"/>
<text x="350.0" y="183.9" font-family="monospace" font-size="13" fill="#374151" text-anchor="middle" dominant-baseline="middle">DueDate</text>
</svg>