<svg xmlns="http://www.w3.org/2000/svg" width="988" height="486" viewBox="0 0 988 486" data-diagram-family="chen" data-orientation="TopToBottom"><rect width="100%" height="100%" fill="#ffffff"/><text x="34" y="28" font-family="monospace" font-size="18" font-weight="700" fill="#111827">Chen Relationships</text><line class="chen-edge" x1="420.0" y1="96.0" x2="246.0" y2="237.0" stroke="#334155" stroke-width="3.0"/><rect class="chen-cardinality-bg" x="324.5" y="150.5" width="17.0" height="16" rx="3" fill="#ffffff"/><text class="chen-cardinality" x="333.0" y="161.5" text-anchor="middle" font-family="monospace" font-size="12" fill="#0f172a">1</text><line class="chen-edge" x1="488.0" y1="134.0" x2="610.0" y2="208.0" stroke="#334155" stroke-width="1.4"/><rect class="chen-cardinality-bg" x="540.5" y="155.0" width="17.0" height="16" rx="3" fill="#ffffff"/><text class="chen-cardinality" x="549.0" y="166.0" text-anchor="middle" font-family="monospace" font-size="12" fill="#0f172a">N</text><line class="chen-edge" x1="488.0" y1="134.0" x2="394.0" y2="208.0" stroke="#334155" stroke-width="1.4"/><rect class="chen-cardinality-bg" x="418.5" y="155.0" width="45.0" height="16" rx="3" fill="#ffffff"/><text class="chen-cardinality" x="441.0" y="166.0" text-anchor="middle" font-family="monospace" font-size="12" fill="#0f172a">(0,1)</text><line class="chen-edge" x1="178.0" y1="266.0" x2="300.0" y2="340.0" stroke="#334155" stroke-width="1.4"/><line class="chen-edge" x1="178.0" y1="266.0" x2="112.0" y2="340.0" stroke="#334155" stroke-width="1.4"/><line class="chen-edge" x1="678.0" y1="237.0" x2="810.0" y2="364.0" stroke="#334155" stroke-width="1.4"/><line class="chen-edge" x1="462.0" y1="237.0" x2="622.0" y2="364.0" stroke="#334155" stroke-width="1.4"/><line class="chen-edge" x1="394.0" y1="266.0" x2="488.0" y2="340.0" stroke="#334155" stroke-width="1.4"/><line class="chen-edge" x1="556.0" y1="96.0" x2="758.0" y2="232.0" stroke="#334155" stroke-width="1.4"/><rect class="chen-entity" x="110.0" y="208.0" width="136.0" height="58.0" fill="#f8fafc" stroke="#111827" stroke-width="1.5"/><text x="178.0" y="242.0" text-anchor="middle" font-family="monospace" font-size="13" font-weight="600" fill="#111827">CUSTOMER</text><ellipse class="chen-attribute" cx="300.0" cy="364.0" rx="54.0" ry="24.0" fill="#fff7ed" stroke="#9a3412" stroke-width="1.3"/><text x="300.0" y="369.0" text-anchor="middle" font-family="monospace" font-size="13" font-weight="600" fill="#7c2d12">Number</text><line class="chen-key-underline" x1="278.4" y1="370.0" x2="321.6" y2="370.0" stroke="#7c2d12" stroke-width="1"/><ellipse class="chen-attribute" cx="112.0" cy="364.0" rx="54.0" ry="24.0" fill="#fff7ed" stroke="#9a3412" stroke-width="1.3"/><text x="112.0" y="369.0" text-anchor="middle" font-family="monospace" font-size="13" font-weight="600" fill="#7c2d12">Name</text><rect class="chen-entity" x="542.0" y="208.0" width="136.0" height="58.0" fill="#f8fafc" stroke="#111827" stroke-width="1.5"/><text x="610.0" y="242.0" text-anchor="middle" font-family="monospace" font-size="13" font-weight="600" fill="#111827">MOVIE</text><ellipse class="chen-attribute" cx="864.0" cy="364.0" rx="54.0" ry="24.0" fill="#fff7ed" stroke="#9a3412" stroke-width="1.3"/><text x="864.0" y="369.0" text-anchor="middle" font-family="monospace" font-size="13" font-weight="600" fill="#7c2d12">Code</text><line class="chen-key-underline" x1="849.6" y1="370.0" x2="878.4" y2="370.0" stroke="#7c2d12" stroke-width="1"/><rect class="chen-entity" x="326.0" y="208.0" width="136.0" height="58.0" fill="#f8fafc" stroke="#111827" stroke-width="1.5"/><text x="394.0" y="242.0" text-anchor="middle" font-family="monospace" font-size="13" font-weight="600" fill="#111827">INVOICE</text><ellipse class="chen-attribute" cx="676.0" cy="364.0" rx="54.0" ry="24.0" fill="#fff7ed" stroke="#9a3412" stroke-width="1.3"/><text x="676.0" y="369.0" text-anchor="middle" font-family="monospace" font-size="13" font-weight="600" fill="#7c2d12">Number</text><line class="chen-key-underline" x1="654.4" y1="370.0" x2="697.6" y2="370.0" stroke="#7c2d12" stroke-width="1"/><ellipse class="chen-attribute" cx="488.0" cy="364.0" rx="54.0" ry="24.0" fill="#fff7ed" stroke="#9a3412" stroke-width="1.3"/><text x="488.0" y="369.0" text-anchor="middle" font-family="monospace" font-size="13" font-weight="600" fill="#7c2d12">Amount</text><polygon class="chen-relationship" points="488.0,58.0 556.0,96.0 488.0,134.0 420.0,96.0" fill="#ecfeff" stroke="#155e75" stroke-width="1.5"/><text x="488.0" y="101.0" text-anchor="middle" font-family="monospace" font-size="13" font-weight="600" fill="#164e63">RENTED_TO</text><ellipse class="chen-attribute" cx="812.0" cy="232.0" rx="54.0" ry="24.0" fill="#fff7ed" stroke="#9a3412" stroke-width="1.3"/><text x="812.0" y="237.0" text-anchor="middle" font-family="monospace" font-size="13" font-weight="600" fill="#7c2d12">Date</text></svg>