<svg xmlns="http://www.w3.org/2000/svg" width="400" height="904" viewBox="0 0 400 904"><rect width="100%" height="100%" fill="#f0f4f8"/><defs><marker id="arrow-open" viewBox="0 0 10 10" refX="9" refY="5" markerWidth="10" markerHeight="10" markerUnits="userSpaceOnUse" orient="auto-start-reverse"><path d="M0,0 L10,5 L0,10" fill="none" stroke="#1e293b" stroke-width="1.5"/></marker><marker id="arrow-triangle" viewBox="0 0 12 12" refX="11" refY="6" markerWidth="12" markerHeight="12" markerUnits="userSpaceOnUse" orient="auto-start-reverse"><polygon points="0,0 12,6 0,12" fill="#ffffff" stroke="#1e293b" stroke-width="1.5" fill-rule="nonzero"/></marker><marker id="arrow-diamond-filled" viewBox="0 0 14 10" refX="13" refY="5" markerWidth="14" markerHeight="10" markerUnits="userSpaceOnUse" orient="auto-start-reverse"><path d="M0,5 L7,0 L14,5 L7,10 z" fill="#1e293b" stroke="#1e293b" stroke-width="1"/></marker><marker id="arrow-diamond-open" viewBox="0 0 14 10" refX="13" refY="5" markerWidth="14" markerHeight="10" markerUnits="userSpaceOnUse" orient="auto-start-reverse"><path d="M0,5 L7,0 L14,5 L7,10 z" fill="#ffffff" stroke="#1e293b" stroke-width="1"/></marker><marker id="arrow-double-open" viewBox="0 0 16 12" refX="15" refY="6" markerWidth="16" markerHeight="12" markerUnits="userSpaceOnUse" orient="auto-start-reverse"><path d="M0,1 L8,6 L0,11 M7,1 L15,6 L7,11" fill="none" stroke="#1e293b" stroke-width="1.5" stroke-linejoin="round"/></marker><marker id="arrow-circle-open" viewBox="0 0 12 12" refX="11" refY="6" markerWidth="12" markerHeight="12" markerUnits="userSpaceOnUse" orient="auto-start-reverse"><circle cx="6" cy="6" r="4" fill="#ffffff" stroke="#1e293b" stroke-width="1.5"/></marker><marker id="arrow-circle-filled" viewBox="0 0 12 12" refX="11" refY="6" markerWidth="12" markerHeight="12" markerUnits="userSpaceOnUse" orient="auto-start-reverse"><circle cx="6" cy="6" r="4" fill="#1e293b" stroke="#1e293b" stroke-width="1.5"/></marker><marker id="arrow-triangle-filled" viewBox="0 0 12 12" refX="11" refY="6" markerWidth="12" markerHeight="12" markerUnits="userSpaceOnUse" orient="auto-start-reverse"><polygon points="0,0 12,6 0,12" fill="#1e293b" stroke="#1e293b" stroke-width="1.5"/></marker><marker id="arrow-box-filled" viewBox="0 0 12 12" refX="11" refY="6" markerWidth="12" markerHeight="12" markerUnits="userSpaceOnUse" orient="auto-start-reverse"><rect x="2" y="2" width="8" height="8" fill="#1e293b" stroke="#1e293b" stroke-width="1.5"/></marker><marker id="arrow-plus" viewBox="0 0 12 12" refX="11" refY="6" markerWidth="12" markerHeight="12" markerUnits="userSpaceOnUse" orient="auto-start-reverse"><path d="M6,1 L6,11 M1,6 L11,6" fill="none" stroke="#1e293b" stroke-width="1.8" stroke-linecap="round"/></marker><marker id="arrow-slash" viewBox="0 0 12 12" refX="10" refY="6" markerWidth="12" markerHeight="12" markerUnits="userSpaceOnUse" orient="auto-start-reverse"><path d="M3,2 L9,10" fill="none" stroke="#1e293b" stroke-width="1.8" stroke-linecap="round"/></marker></defs><desc data-uml-id="WebServer">WebServer</desc><polygon points="104,104 116,92 316,92 304,104" fill="#d4dff7" stroke="#1e293b" stroke-width="1"/><polygon points="304,104 316,92 316,172 304,184" fill="#b8c8ef" stroke="#1e293b" stroke-width="1"/><rect class="uml-node uml-deployment-shape" data-uml-kind="node" x="104" y="104" width="200" height="80" fill="#f0f4f8" stroke="#1e293b" stroke-width="1.5"/><text x="204" y="150" text-anchor="middle" font-family="monospace" font-size="13" font-weight="600" fill="#0f172a">WebServer</text><text x="204" y="118" text-anchor="middle" font-family="monospace" font-size="10" fill="#0f172a">node</text><desc data-uml-id="AppServer">AppServer</desc><polygon points="104,392 116,380 316,380 304,392" fill="#d4dff7" stroke="#1e293b" stroke-width="1"/><polygon points="304,392 316,380 316,460 304,472" fill="#b8c8ef" stroke="#1e293b" stroke-width="1"/><rect class="uml-node uml-deployment-shape" data-uml-kind="node" x="104" y="392" width="200" height="80" fill="#f0f4f8" stroke="#1e293b" stroke-width="1.5"/><text x="204" y="438" text-anchor="middle" font-family="monospace" font-size="13" font-weight="600" fill="#0f172a">AppServer</text><text x="204" y="406" text-anchor="middle" font-family="monospace" font-size="10" fill="#0f172a">node</text><desc data-uml-id="DBServer">DBServer</desc><polygon points="104,680 116,668 316,668 304,680" fill="#d4dff7" stroke="#1e293b" stroke-width="1"/><polygon points="304,680 316,668 316,748 304,760" fill="#b8c8ef" stroke="#1e293b" stroke-width="1"/><rect class="uml-node uml-deployment-shape" data-uml-kind="node" x="104" y="680" width="200" height="80" fill="#f0f4f8" stroke="#1e293b" stroke-width="1.5"/><text x="204" y="726" text-anchor="middle" font-family="monospace" font-size="13" font-weight="600" fill="#0f172a">DBServer</text><text x="204" y="694" text-anchor="middle" font-family="monospace" font-size="10" fill="#0f172a">node</text><polyline class="uml-relation" data-uml-from="WebServer" data-uml-to="AppServer" data-uml-arrow="--&gt;" points="204,184 204,288 204,392" fill="none" stroke="#1e293b" stroke-width="2" marker-end="url(#arrow-open)" /><polyline class="uml-relation" data-uml-from="AppServer" data-uml-to="DBServer" data-uml-arrow="--&gt;" points="204,472 204,576 204,680" fill="none" stroke="#1e293b" stroke-width="2" marker-end="url(#arrow-open)" /><rect class="uml-edge-label-bg" data-uml-label-role="edge-background" x="188" y="263" width="32" height="18" fill="white" opacity="0.85"/><text class="uml-edge-label" data-uml-label-role="edge" x="204" y="276" text-anchor="middle" font-family="monospace" font-size="11" fill="#1e293b">HTTP</text><rect class="uml-edge-label-bg" data-uml-label-role="edge-background" x="192" y="551" width="24" height="18" fill="white" opacity="0.85"/><text class="uml-edge-label" data-uml-label-role="edge" x="204" y="564" text-anchor="middle" font-family="monospace" font-size="11" fill="#1e293b">TCP</text></svg>