<svg xmlns="http://www.w3.org/2000/svg" width="424" height="704" viewBox="0 0 424 704"><rect width="100%" height="100%" fill="#f0f4f8"/><defs><marker id="arrow-open" viewBox="0 0 10 10" refX="9" refY="5" markerWidth="10" markerHeight="10" markerUnits="userSpaceOnUse" orient="auto-start-reverse"><path d="M0,0 L10,5 L0,10" fill="none" stroke="#1e293b" stroke-width="1.5"/></marker><marker id="arrow-triangle" viewBox="0 0 12 12" refX="11" refY="6" markerWidth="12" markerHeight="12" markerUnits="userSpaceOnUse" orient="auto-start-reverse"><polygon points="0,0 12,6 0,12" fill="#ffffff" stroke="#1e293b" stroke-width="1.5" fill-rule="nonzero"/></marker><marker id="arrow-diamond-filled" viewBox="0 0 14 10" refX="13" refY="5" markerWidth="14" markerHeight="10" markerUnits="userSpaceOnUse" orient="auto-start-reverse"><path d="M0,5 L7,0 L14,5 L7,10 z" fill="#1e293b" stroke="#1e293b" stroke-width="1"/></marker><marker id="arrow-diamond-open" viewBox="0 0 14 10" refX="13" refY="5" markerWidth="14" markerHeight="10" markerUnits="userSpaceOnUse" orient="auto-start-reverse"><path d="M0,5 L7,0 L14,5 L7,10 z" fill="#ffffff" stroke="#1e293b" stroke-width="1"/></marker></defs><desc data-uml-id="WebServer">WebServer</desc><polygon class="uml-node uml-deployment-shape" data-uml-kind="node" points="102,92 302,92 302,172 102,172" fill="#f0f4f8" stroke="#1e293b" stroke-width="1"/><polygon points="92,92 102,92 302,92 292,92" fill="#f0f4f8" stroke="#1e293b" stroke-width="1"/><polygon points="292,92 302,92 302,172 292,172" fill="#f0f4f8" stroke="#1e293b" stroke-width="1"/><rect class="uml-node uml-deployment-shape" data-uml-kind="node" x="92" y="92" width="200" height="80" fill="#f0f4f8" stroke="#1e293b" stroke-width="1.5"/><text x="192" y="138" text-anchor="middle" font-family="monospace" font-size="13" font-weight="600" fill="#0f172a">WebServer</text><text x="192" y="106" text-anchor="middle" font-family="monospace" font-size="10" fill="#0f172a">node</text><desc data-uml-id="AppServer">AppServer</desc><polygon class="uml-node uml-deployment-shape" data-uml-kind="node" points="102,292 302,292 302,372 102,372" fill="#f0f4f8" stroke="#1e293b" stroke-width="1"/><polygon points="92,292 102,292 302,292 292,292" fill="#f0f4f8" stroke="#1e293b" stroke-width="1"/><polygon points="292,292 302,292 302,372 292,372" fill="#f0f4f8" stroke="#1e293b" stroke-width="1"/><rect class="uml-node uml-deployment-shape" data-uml-kind="node" x="92" y="292" width="200" height="80" fill="#f0f4f8" stroke="#1e293b" stroke-width="1.5"/><text x="192" y="338" text-anchor="middle" font-family="monospace" font-size="13" font-weight="600" fill="#0f172a">AppServer</text><text x="192" y="306" text-anchor="middle" font-family="monospace" font-size="10" fill="#0f172a">node</text><desc data-uml-id="DBServer">DBServer</desc><polygon class="uml-node uml-deployment-shape" data-uml-kind="node" points="102,492 302,492 302,572 102,572" fill="#f0f4f8" stroke="#1e293b" stroke-width="1"/><polygon points="92,492 102,492 302,492 292,492" fill="#f0f4f8" stroke="#1e293b" stroke-width="1"/><polygon points="292,492 302,492 302,572 292,572" fill="#f0f4f8" stroke="#1e293b" stroke-width="1"/><rect class="uml-node uml-deployment-shape" data-uml-kind="node" x="92" y="492" width="200" height="80" fill="#f0f4f8" stroke="#1e293b" stroke-width="1.5"/><text x="192" y="538" text-anchor="middle" font-family="monospace" font-size="13" font-weight="600" fill="#0f172a">DBServer</text><text x="192" y="506" text-anchor="middle" font-family="monospace" font-size="10" fill="#0f172a">node</text><polyline class="uml-relation" data-uml-from="WebServer" data-uml-to="AppServer" data-uml-arrow="--&gt;" points="192,172 192,220 192,220 192,292" fill="none" stroke="#1e293b" stroke-width="2" marker-end="url(#arrow-open)" /><polyline class="uml-relation" data-uml-from="AppServer" data-uml-to="DBServer" data-uml-arrow="--&gt;" points="192,372 192,420 192,420 192,492" fill="none" stroke="#1e293b" stroke-width="2" marker-end="url(#arrow-open)" /><text x="192" y="208" text-anchor="middle" font-family="monospace" font-size="11" fill="#1e293b">HTTP</text><text x="192" y="408" text-anchor="middle" font-family="monospace" font-size="11" fill="#1e293b">TCP</text></svg>