<svg xmlns="http://www.w3.org/2000/svg" width="760" height="240" viewBox="0 0 760 240"><rect width="100%" height="100%" fill="white"/><text x="40" y="30" font-family="monospace" font-size="12" fill="#475569">deployment diagram</text><rect x="46" y="106" width="200" height="80" fill="#eef2ff" stroke="#3730a3" stroke-width="1"/><rect x="40" y="100" width="200" height="80" fill="#ffffff" stroke="#3730a3" stroke-width="1.5"/><text x="140" y="146" text-anchor="middle" font-family="monospace" font-size="13" font-weight="600">WebServer</text><text x="140" y="114" text-anchor="middle" font-family="monospace" font-size="10" fill="#475569">node</text><rect x="286" y="106" width="200" height="80" fill="#eef2ff" stroke="#3730a3" stroke-width="1"/><rect x="280" y="100" width="200" height="80" fill="#ffffff" stroke="#3730a3" stroke-width="1.5"/><text x="380" y="146" text-anchor="middle" font-family="monospace" font-size="13" font-weight="600">AppServer</text><text x="380" y="114" text-anchor="middle" font-family="monospace" font-size="10" fill="#475569">node</text><rect x="526" y="106" width="200" height="80" fill="#eef2ff" stroke="#3730a3" stroke-width="1"/><rect x="520" y="100" width="200" height="80" fill="#ffffff" stroke="#3730a3" stroke-width="1.5"/><text x="620" y="146" text-anchor="middle" font-family="monospace" font-size="13" font-weight="600">DBServer</text><text x="620" y="114" text-anchor="middle" font-family="monospace" font-size="10" fill="#475569">node</text><line x1="240" y1="140" x2="280" y2="140" stroke="#334155" stroke-width="1.5"/><polygon points="280,140 272,144 272,136" fill="#334155"/><text x="260" y="134" text-anchor="middle" font-family="monospace" font-size="11" fill="#1e293b">HTTP</text><line x1="480" y1="140" x2="520" y2="140" stroke="#334155" stroke-width="1.5"/><polygon points="520,140 512,144 512,136" fill="#334155"/><text x="500" y="134" text-anchor="middle" font-family="monospace" font-size="11" fill="#1e293b">TCP</text></svg>