<svg xmlns="http://www.w3.org/2000/svg" width="424" height="808" viewBox="0 0 424 808"><rect width="100%" height="100%" fill="#f0f4f8"/><defs><marker id="arrow-open" viewBox="0 0 10 10" refX="9" refY="5" markerWidth="10" markerHeight="10" markerUnits="userSpaceOnUse" orient="auto-start-reverse"><path d="M0,0 L10,5 L0,10" fill="none" stroke="#1e293b" stroke-width="1.5"/></marker><marker id="arrow-triangle" viewBox="0 0 12 12" refX="11" refY="6" markerWidth="12" markerHeight="12" markerUnits="userSpaceOnUse" orient="auto-start-reverse"><polygon points="0,0 12,6 0,12" fill="#ffffff" stroke="#1e293b" stroke-width="1.5" fill-rule="nonzero"/></marker><marker id="arrow-diamond-filled" viewBox="0 0 14 10" refX="13" refY="5" markerWidth="14" markerHeight="10" markerUnits="userSpaceOnUse" orient="auto-start-reverse"><path d="M0,5 L7,0 L14,5 L7,10 z" fill="#1e293b" stroke="#1e293b" stroke-width="1"/></marker><marker id="arrow-diamond-open" viewBox="0 0 14 10" refX="13" refY="5" markerWidth="14" markerHeight="10" markerUnits="userSpaceOnUse" orient="auto-start-reverse"><path d="M0,5 L7,0 L14,5 L7,10 z" fill="#ffffff" stroke="#1e293b" stroke-width="1"/></marker></defs><desc data-uml-id="WebServer">WebServer</desc><polygon points="92,92 104,80 304,80 292,92" fill="#d4dff7" stroke="#1e293b" stroke-width="1"/><polygon points="292,92 304,80 304,160 292,172" fill="#b8c8ef" stroke="#1e293b" stroke-width="1"/><rect class="uml-node uml-deployment-shape" data-uml-kind="node" x="92" y="92" width="200" height="80" fill="#f0f4f8" stroke="#1e293b" stroke-width="1.5"/><text x="192" y="138" text-anchor="middle" font-family="monospace" font-size="13" font-weight="600" fill="#0f172a">WebServer</text><text x="192" y="106" text-anchor="middle" font-family="monospace" font-size="10" fill="#0f172a">node</text><desc data-uml-id="AppServer">AppServer</desc><polygon points="92,344 104,332 304,332 292,344" fill="#d4dff7" stroke="#1e293b" stroke-width="1"/><polygon points="292,344 304,332 304,412 292,424" fill="#b8c8ef" stroke="#1e293b" stroke-width="1"/><rect class="uml-node uml-deployment-shape" data-uml-kind="node" x="92" y="344" width="200" height="80" fill="#f0f4f8" stroke="#1e293b" stroke-width="1.5"/><text x="192" y="390" text-anchor="middle" font-family="monospace" font-size="13" font-weight="600" fill="#0f172a">AppServer</text><text x="192" y="358" text-anchor="middle" font-family="monospace" font-size="10" fill="#0f172a">node</text><desc data-uml-id="DBServer">DBServer</desc><polygon points="92,596 104,584 304,584 292,596" fill="#d4dff7" stroke="#1e293b" stroke-width="1"/><polygon points="292,596 304,584 304,664 292,676" fill="#b8c8ef" stroke="#1e293b" stroke-width="1"/><rect class="uml-node uml-deployment-shape" data-uml-kind="node" x="92" y="596" width="200" height="80" fill="#f0f4f8" stroke="#1e293b" stroke-width="1.5"/><text x="192" y="642" text-anchor="middle" font-family="monospace" font-size="13" font-weight="600" fill="#0f172a">DBServer</text><text x="192" y="610" text-anchor="middle" font-family="monospace" font-size="10" fill="#0f172a">node</text><polyline class="uml-relation" data-uml-from="WebServer" data-uml-to="AppServer" data-uml-arrow="--&gt;" points="192,172 192,258 192,344" fill="none" stroke="#1e293b" stroke-width="2" marker-end="url(#arrow-open)" /><polyline class="uml-relation" data-uml-from="AppServer" data-uml-to="DBServer" data-uml-arrow="--&gt;" points="192,424 192,510 192,596" fill="none" stroke="#1e293b" stroke-width="2" marker-end="url(#arrow-open)" /><text x="186" y="295" text-anchor="middle" font-family="monospace" font-size="11" fill="#1e293b">HTTP</text><text x="186" y="547" text-anchor="middle" font-family="monospace" font-size="11" fill="#1e293b">TCP</text></svg>