<svg xmlns="http://www.w3.org/2000/svg" width="576" height="696" viewBox="0 0 576 696"><rect width="100%" height="100%" fill="#f0f4f8"/><defs><marker id="arrow-open" viewBox="0 0 10 10" refX="9" refY="5" markerWidth="10" markerHeight="10" markerUnits="userSpaceOnUse" orient="auto-start-reverse"><path d="M0,0 L10,5 L0,10" fill="none" stroke="#1e293b" stroke-width="1.5"/></marker><marker id="arrow-triangle" viewBox="0 0 12 12" refX="11" refY="6" markerWidth="12" markerHeight="12" markerUnits="userSpaceOnUse" orient="auto-start-reverse"><polygon points="0,0 12,6 0,12" fill="#ffffff" stroke="#1e293b" stroke-width="1.5" fill-rule="nonzero"/></marker><marker id="arrow-diamond-filled" viewBox="0 0 14 10" refX="13" refY="5" markerWidth="14" markerHeight="10" markerUnits="userSpaceOnUse" orient="auto-start-reverse"><path d="M0,5 L7,0 L14,5 L7,10 z" fill="#1e293b" stroke="#1e293b" stroke-width="1"/></marker><marker id="arrow-diamond-open" viewBox="0 0 14 10" refX="13" refY="5" markerWidth="14" markerHeight="10" markerUnits="userSpaceOnUse" orient="auto-start-reverse"><path d="M0,5 L7,0 L14,5 L7,10 z" fill="#ffffff" stroke="#1e293b" stroke-width="1"/></marker><marker id="arrow-double-open" viewBox="0 0 16 12" refX="15" refY="6" markerWidth="16" markerHeight="12" markerUnits="userSpaceOnUse" orient="auto-start-reverse"><path d="M0,1 L8,6 L0,11 M7,1 L15,6 L7,11" fill="none" stroke="#1e293b" stroke-width="1.5" stroke-linejoin="round"/></marker><marker id="arrow-circle-open" viewBox="0 0 12 12" refX="11" refY="6" markerWidth="12" markerHeight="12" markerUnits="userSpaceOnUse" orient="auto-start-reverse"><circle cx="6" cy="6" r="4" fill="#ffffff" stroke="#1e293b" stroke-width="1.5"/></marker><marker id="arrow-circle-filled" viewBox="0 0 12 12" refX="11" refY="6" markerWidth="12" markerHeight="12" markerUnits="userSpaceOnUse" orient="auto-start-reverse"><circle cx="6" cy="6" r="4" fill="#1e293b" stroke="#1e293b" stroke-width="1.5"/></marker><marker id="arrow-triangle-filled" viewBox="0 0 12 12" refX="11" refY="6" markerWidth="12" markerHeight="12" markerUnits="userSpaceOnUse" orient="auto-start-reverse"><polygon points="0,0 12,6 0,12" fill="#1e293b" stroke="#1e293b" stroke-width="1.5"/></marker><marker id="arrow-box-filled" viewBox="0 0 12 12" refX="11" refY="6" markerWidth="12" markerHeight="12" markerUnits="userSpaceOnUse" orient="auto-start-reverse"><rect x="2" y="2" width="8" height="8" fill="#1e293b" stroke="#1e293b" stroke-width="1.5"/></marker><marker id="arrow-plus" viewBox="0 0 12 12" refX="11" refY="6" markerWidth="12" markerHeight="12" markerUnits="userSpaceOnUse" orient="auto-start-reverse"><path d="M6,1 L6,11 M1,6 L11,6" fill="none" stroke="#1e293b" stroke-width="1.8" stroke-linecap="round"/></marker><marker id="arrow-slash" viewBox="0 0 12 12" refX="10" refY="6" markerWidth="12" markerHeight="12" markerUnits="userSpaceOnUse" orient="auto-start-reverse"><path d="M3,2 L9,10" fill="none" stroke="#1e293b" stroke-width="1.8" stroke-linecap="round"/></marker><marker id="arrow-cross" viewBox="0 0 12 12" refX="11" refY="6" markerWidth="12" markerHeight="12" markerUnits="userSpaceOnUse" orient="auto-start-reverse"><path d="M2,2 L10,10 M10,2 L2,10" fill="none" stroke="#1e293b" stroke-width="1.8" stroke-linecap="round"/></marker><marker id="arrow-bracket-open" viewBox="0 0 12 14" refX="11" refY="7" markerWidth="12" markerHeight="14" markerUnits="userSpaceOnUse" orient="auto-start-reverse"><path d="M10,1 L4,1 L4,13 L10,13" fill="none" stroke="#1e293b" stroke-width="1.8" stroke-linecap="round" stroke-linejoin="round"/></marker></defs><marker id="arrow-ie-one" viewBox="0 0 24 16" refX="22" refY="8" markerWidth="24" markerHeight="16" markerUnits="userSpaceOnUse" orient="auto-start-reverse"><path d="M16,2 L16,14" fill="none" stroke="#1e293b" stroke-width="1.8" stroke-linecap="round"/></marker><marker id="arrow-ie-zero-one" viewBox="0 0 30 16" refX="28" refY="8" markerWidth="30" markerHeight="16" markerUnits="userSpaceOnUse" orient="auto-start-reverse"><circle cx="10" cy="8" r="4" fill="#ffffff" stroke="#1e293b" stroke-width="1.5"/><path d="M20,2 L20,14" fill="none" stroke="#1e293b" stroke-width="1.8" stroke-linecap="round"/></marker><marker id="arrow-ie-zero-many" viewBox="0 0 34 18" refX="32" refY="9" markerWidth="34" markerHeight="18" markerUnits="userSpaceOnUse" orient="auto-start-reverse"><circle cx="8" cy="9" r="4" fill="#ffffff" stroke="#1e293b" stroke-width="1.5"/><path d="M18,9 L31,2 M18,9 L31,9 M18,9 L31,16" fill="none" stroke="#1e293b" stroke-width="1.7" stroke-linecap="round"/></marker><marker id="arrow-ie-one-many" viewBox="0 0 34 18" refX="32" refY="9" markerWidth="34" markerHeight="18" markerUnits="userSpaceOnUse" orient="auto-start-reverse"><path d="M8,2 L8,16 M18,9 L31,2 M18,9 L31,9 M18,9 L31,16" fill="none" stroke="#1e293b" stroke-width="1.7" stroke-linecap="round"/></marker><desc data-uml-id="AppServer">AppServer</desc><polygon points="182,60 194,48 394,48 382,60" fill="#d4dff7" stroke="#1e293b" stroke-width="1"/><polygon points="382,60 394,48 394,128 382,140" fill="#b8c8ef" stroke="#1e293b" stroke-width="1"/><rect class="uml-node uml-deployment-shape" data-uml-kind="node" x="182" y="60" width="200" height="80" fill="#f0f4f8" stroke="#1e293b" stroke-width="1.5"/><text x="282" y="106" text-anchor="middle" font-family="monospace" font-size="13" font-weight="600" fill="#0f172a">AppServer</text><desc data-uml-id="PostgreSQL">PostgreSQL</desc><path class="uml-node uml-deployment-shape" data-uml-kind="database" d="M60,314 C60,304 260,304 260,314 L260,374 C260,384 60,384 60,374 Z" fill="#f0f4f8" stroke="#1e293b" stroke-width="1.5"/><ellipse cx="160" cy="314" rx="100" ry="10" fill="#f0f4f8" stroke="#1e293b" stroke-width="1.5"/><text x="160" y="350" text-anchor="middle" font-family="monospace" font-size="13" font-weight="600" fill="#0f172a">PostgreSQL</text><desc data-uml-id="Redis">Redis</desc><path class="uml-node uml-deployment-shape" data-uml-kind="database" d="M304,314 C304,304 504,304 504,314 L504,374 C504,384 304,384 304,374 Z" fill="#f0f4f8" stroke="#1e293b" stroke-width="1.5"/><ellipse cx="404" cy="314" rx="100" ry="10" fill="#f0f4f8" stroke="#1e293b" stroke-width="1.5"/><text x="404" y="350" text-anchor="middle" font-family="monospace" font-size="13" font-weight="600" fill="#0f172a">Redis</text><desc data-uml-id="BackupServer">BackupServer</desc><polygon points="182,548 194,536 394,536 382,548" fill="#d4dff7" stroke="#1e293b" stroke-width="1"/><polygon points="382,548 394,536 394,616 382,628" fill="#b8c8ef" stroke="#1e293b" stroke-width="1"/><rect class="uml-node uml-deployment-shape" data-uml-kind="node" x="182" y="548" width="200" height="80" fill="#f0f4f8" stroke="#1e293b" stroke-width="1.5"/><text x="282" y="594" text-anchor="middle" font-family="monospace" font-size="13" font-weight="600" fill="#0f172a">BackupServer</text><polyline class="uml-relation" data-uml-from="AppServer" data-uml-to="PostgreSQL" data-uml-arrow="--&gt;" points="282,140 282,218 160,218 160,304" fill="none" stroke="#1e293b" stroke-width="2" marker-end="url(#arrow-open)" /><polyline class="uml-relation" data-uml-from="AppServer" data-uml-to="Redis" data-uml-arrow="--&gt;" points="282,140 282,226 404,226 404,304" fill="none" stroke="#1e293b" stroke-width="2" marker-end="url(#arrow-open)" /><polyline class="uml-relation" data-uml-from="PostgreSQL" data-uml-to="BackupServer" data-uml-arrow="--&gt;" points="160,384 160,466 282,466 282,548" fill="none" stroke="#1e293b" stroke-width="2" marker-end="url(#arrow-open)" /><text class="uml-edge-label" data-uml-label-role="edge" x="221" y="206" text-anchor="middle" font-family="monospace" font-size="11" fill="#1e293b">reads/writes</text><text class="uml-edge-label" data-uml-label-role="edge" x="343" y="214" text-anchor="middle" font-family="monospace" font-size="11" fill="#1e293b">caches</text><text class="uml-edge-label" data-uml-label-role="edge" x="221" y="454" text-anchor="middle" font-family="monospace" font-size="11" fill="#1e293b">backup</text></svg>