<svg xmlns="http://www.w3.org/2000/svg" width="664" height="704" viewBox="0 0 664 704"><rect width="100%" height="100%" fill="#f0f4f8"/><defs><marker id="arrow-open" viewBox="0 0 10 10" refX="9" refY="5" markerWidth="10" markerHeight="10" markerUnits="userSpaceOnUse" orient="auto-start-reverse"><path d="M0,0 L10,5 L0,10" fill="none" stroke="#1e293b" stroke-width="1.5"/></marker><marker id="arrow-triangle" viewBox="0 0 12 12" refX="11" refY="6" markerWidth="12" markerHeight="12" markerUnits="userSpaceOnUse" orient="auto-start-reverse"><polygon points="0,0 12,6 0,12" fill="#ffffff" stroke="#1e293b" stroke-width="1.5" fill-rule="nonzero"/></marker><marker id="arrow-diamond-filled" viewBox="0 0 14 10" refX="13" refY="5" markerWidth="14" markerHeight="10" markerUnits="userSpaceOnUse" orient="auto-start-reverse"><path d="M0,5 L7,0 L14,5 L7,10 z" fill="#1e293b" stroke="#1e293b" stroke-width="1"/></marker><marker id="arrow-diamond-open" viewBox="0 0 14 10" refX="13" refY="5" markerWidth="14" markerHeight="10" markerUnits="userSpaceOnUse" orient="auto-start-reverse"><path d="M0,5 L7,0 L14,5 L7,10 z" fill="#ffffff" stroke="#1e293b" stroke-width="1"/></marker></defs><desc data-uml-id="AppServer">AppServer</desc><polygon class="uml-node uml-deployment-shape" data-uml-kind="node" points="222,92 422,92 422,172 222,172" fill="#f0f4f8" stroke="#1e293b" stroke-width="1"/><polygon points="212,92 222,92 422,92 412,92" fill="#f0f4f8" stroke="#1e293b" stroke-width="1"/><polygon points="412,92 422,92 422,172 412,172" fill="#f0f4f8" stroke="#1e293b" stroke-width="1"/><rect class="uml-node uml-deployment-shape" data-uml-kind="node" x="212" y="92" width="200" height="80" fill="#f0f4f8" stroke="#1e293b" stroke-width="1.5"/><text x="312" y="138" text-anchor="middle" font-family="monospace" font-size="13" font-weight="600" fill="#0f172a">AppServer</text><text x="312" y="106" text-anchor="middle" font-family="monospace" font-size="10" fill="#0f172a">node</text><desc data-uml-id="PostgreSQL">PostgreSQL</desc><path class="uml-node uml-deployment-shape" data-uml-kind="database" d="M92,302 C92,292 292,292 292,302 L292,362 C292,372 92,372 92,362 Z" fill="#f0f4f8" stroke="#1e293b" stroke-width="1.5"/><ellipse cx="192" cy="302" rx="100" ry="10" fill="#f0f4f8" stroke="#1e293b" stroke-width="1.5"/><text x="192" y="338" text-anchor="middle" font-family="monospace" font-size="13" font-weight="600" fill="#0f172a">PostgreSQL</text><text x="192" y="306" text-anchor="middle" font-family="monospace" font-size="10" fill="#0f172a">database</text><desc data-uml-id="Redis">Redis</desc><path class="uml-node uml-deployment-shape" data-uml-kind="database" d="M332,302 C332,292 532,292 532,302 L532,362 C532,372 332,372 332,362 Z" fill="#f0f4f8" stroke="#1e293b" stroke-width="1.5"/><ellipse cx="432" cy="302" rx="100" ry="10" fill="#f0f4f8" stroke="#1e293b" stroke-width="1.5"/><text x="432" y="338" text-anchor="middle" font-family="monospace" font-size="13" font-weight="600" fill="#0f172a">Redis</text><text x="432" y="306" text-anchor="middle" font-family="monospace" font-size="10" fill="#0f172a">database</text><desc data-uml-id="BackupServer">BackupServer</desc><polygon class="uml-node uml-deployment-shape" data-uml-kind="node" points="222,492 422,492 422,572 222,572" fill="#f0f4f8" stroke="#1e293b" stroke-width="1"/><polygon points="212,492 222,492 422,492 412,492" fill="#f0f4f8" stroke="#1e293b" stroke-width="1"/><polygon points="412,492 422,492 422,572 412,572" fill="#f0f4f8" stroke="#1e293b" stroke-width="1"/><rect class="uml-node uml-deployment-shape" data-uml-kind="node" x="212" y="492" width="200" height="80" fill="#f0f4f8" stroke="#1e293b" stroke-width="1.5"/><text x="312" y="538" text-anchor="middle" font-family="monospace" font-size="13" font-weight="600" fill="#0f172a">BackupServer</text><text x="312" y="506" text-anchor="middle" font-family="monospace" font-size="10" fill="#0f172a">node</text><polyline class="uml-relation" data-uml-from="AppServer" data-uml-to="PostgreSQL" data-uml-arrow="--&gt;" points="312,172 312,228 192,228 192,292" fill="none" stroke="#1e293b" stroke-width="2" marker-end="url(#arrow-open)" /><polyline class="uml-relation" data-uml-from="AppServer" data-uml-to="Redis" data-uml-arrow="--&gt;" points="312,172 312,236 432,236 432,292" fill="none" stroke="#1e293b" stroke-width="2" marker-end="url(#arrow-open)" /><polyline class="uml-relation" data-uml-from="PostgreSQL" data-uml-to="BackupServer" data-uml-arrow="--&gt;" points="192,372 192,432 312,432 312,492" fill="none" stroke="#1e293b" stroke-width="2" marker-end="url(#arrow-open)" /><text x="252" y="216" text-anchor="middle" font-family="monospace" font-size="11" fill="#1e293b">reads/writes</text><text x="372" y="224" text-anchor="middle" font-family="monospace" font-size="11" fill="#1e293b">caches</text><text x="252" y="420" text-anchor="middle" font-family="monospace" font-size="11" fill="#1e293b">backup</text></svg>