<svg xmlns="http://www.w3.org/2000/svg" width="692" height="904" viewBox="0 0 692 904"><rect width="100%" height="100%" fill="#f0f4f8"/><defs><marker id="arrow-open" viewBox="0 0 10 10" refX="9" refY="5" markerWidth="10" markerHeight="10" markerUnits="userSpaceOnUse" orient="auto-start-reverse"><path d="M0,0 L10,5 L0,10" fill="none" stroke="#1e293b" stroke-width="1.5"/></marker><marker id="arrow-triangle" viewBox="0 0 12 12" refX="11" refY="6" markerWidth="12" markerHeight="12" markerUnits="userSpaceOnUse" orient="auto-start-reverse"><polygon points="0,0 12,6 0,12" fill="#ffffff" stroke="#1e293b" stroke-width="1.5" fill-rule="nonzero"/></marker><marker id="arrow-diamond-filled" viewBox="0 0 14 10" refX="13" refY="5" markerWidth="14" markerHeight="10" markerUnits="userSpaceOnUse" orient="auto-start-reverse"><path d="M0,5 L7,0 L14,5 L7,10 z" fill="#1e293b" stroke="#1e293b" stroke-width="1"/></marker><marker id="arrow-diamond-open" viewBox="0 0 14 10" refX="13" refY="5" markerWidth="14" markerHeight="10" markerUnits="userSpaceOnUse" orient="auto-start-reverse"><path d="M0,5 L7,0 L14,5 L7,10 z" fill="#ffffff" stroke="#1e293b" stroke-width="1"/></marker></defs><desc data-uml-id="AppServer">AppServer</desc><polygon points="248,104 260,92 460,92 448,104" fill="#d4dff7" stroke="#1e293b" stroke-width="1"/><polygon points="448,104 460,92 460,172 448,184" fill="#b8c8ef" stroke="#1e293b" stroke-width="1"/><rect class="uml-node uml-deployment-shape" data-uml-kind="node" x="248" y="104" width="200" height="80" fill="#f0f4f8" stroke="#1e293b" stroke-width="1.5"/><text x="348" y="150" text-anchor="middle" font-family="monospace" font-size="13" font-weight="600" fill="#0f172a">AppServer</text><text x="348" y="118" text-anchor="middle" font-family="monospace" font-size="10" fill="#0f172a">node</text><desc data-uml-id="PostgreSQL">PostgreSQL</desc><path class="uml-node uml-deployment-shape" data-uml-kind="database" d="M104,402 C104,392 304,392 304,402 L304,462 C304,472 104,472 104,462 Z" fill="#f0f4f8" stroke="#1e293b" stroke-width="1.5"/><ellipse cx="204" cy="402" rx="100" ry="10" fill="#f0f4f8" stroke="#1e293b" stroke-width="1.5"/><text x="204" y="438" text-anchor="middle" font-family="monospace" font-size="13" font-weight="600" fill="#0f172a">PostgreSQL</text><text x="204" y="406" text-anchor="middle" font-family="monospace" font-size="10" fill="#0f172a">database</text><desc data-uml-id="Redis">Redis</desc><path class="uml-node uml-deployment-shape" data-uml-kind="database" d="M392,402 C392,392 592,392 592,402 L592,462 C592,472 392,472 392,462 Z" fill="#f0f4f8" stroke="#1e293b" stroke-width="1.5"/><ellipse cx="492" cy="402" rx="100" ry="10" fill="#f0f4f8" stroke="#1e293b" stroke-width="1.5"/><text x="492" y="438" text-anchor="middle" font-family="monospace" font-size="13" font-weight="600" fill="#0f172a">Redis</text><text x="492" y="406" text-anchor="middle" font-family="monospace" font-size="10" fill="#0f172a">database</text><desc data-uml-id="BackupServer">BackupServer</desc><polygon points="248,680 260,668 460,668 448,680" fill="#d4dff7" stroke="#1e293b" stroke-width="1"/><polygon points="448,680 460,668 460,748 448,760" fill="#b8c8ef" stroke="#1e293b" stroke-width="1"/><rect class="uml-node uml-deployment-shape" data-uml-kind="node" x="248" y="680" width="200" height="80" fill="#f0f4f8" stroke="#1e293b" stroke-width="1.5"/><text x="348" y="726" text-anchor="middle" font-family="monospace" font-size="13" font-weight="600" fill="#0f172a">BackupServer</text><text x="348" y="694" text-anchor="middle" font-family="monospace" font-size="10" fill="#0f172a">node</text><polyline class="uml-relation" data-uml-from="AppServer" data-uml-to="PostgreSQL" data-uml-arrow="--&gt;" points="348,184 348,284 204,284 204,392" fill="none" stroke="#1e293b" stroke-width="2" marker-end="url(#arrow-open)" /><polyline class="uml-relation" data-uml-from="AppServer" data-uml-to="Redis" data-uml-arrow="--&gt;" points="348,184 348,292 492,292 492,392" fill="none" stroke="#1e293b" stroke-width="2" marker-end="url(#arrow-open)" /><polyline class="uml-relation" data-uml-from="PostgreSQL" data-uml-to="BackupServer" data-uml-arrow="--&gt;" points="204,472 204,576 348,576 348,680" fill="none" stroke="#1e293b" stroke-width="2" marker-end="url(#arrow-open)" /><text x="276" y="272" text-anchor="middle" font-family="monospace" font-size="11" fill="#1e293b">reads/writes</text><text x="420" y="280" text-anchor="middle" font-family="monospace" font-size="11" fill="#1e293b">caches</text><text x="276" y="564" text-anchor="middle" font-family="monospace" font-size="11" fill="#1e293b">backup</text></svg>