<svg xmlns="http://www.w3.org/2000/svg" width="400" height="352" viewBox="0 0 400 352"><rect width="100%" height="100%" fill="#f0f4f8"/><defs><marker id="arrow-open" viewBox="0 0 10 10" refX="9" refY="5" markerWidth="10" markerHeight="10" markerUnits="userSpaceOnUse" orient="auto-start-reverse"><path d="M0,0 L10,5 L0,10" fill="none" stroke="#1e293b" stroke-width="1.5"/></marker><marker id="arrow-triangle" viewBox="0 0 12 12" refX="11" refY="6" markerWidth="12" markerHeight="12" markerUnits="userSpaceOnUse" orient="auto-start-reverse"><polygon points="0,0 12,6 0,12" fill="#ffffff" stroke="#1e293b" stroke-width="1.5" fill-rule="nonzero"/></marker><marker id="arrow-diamond-filled" viewBox="0 0 14 10" refX="13" refY="5" markerWidth="14" markerHeight="10" markerUnits="userSpaceOnUse" orient="auto-start-reverse"><path d="M0,5 L7,0 L14,5 L7,10 z" fill="#1e293b" stroke="#1e293b" stroke-width="1"/></marker><marker id="arrow-diamond-open" viewBox="0 0 14 10" refX="13" refY="5" markerWidth="14" markerHeight="10" markerUnits="userSpaceOnUse" orient="auto-start-reverse"><path d="M0,5 L7,0 L14,5 L7,10 z" fill="#ffffff" stroke="#1e293b" stroke-width="1"/></marker></defs><desc data-uml-id="AppServer">AppServer</desc><polygon class="uml-node uml-deployment-shape" data-uml-kind="node" points="50,72 250,72 250,152 50,152" fill="#f0f4f8" stroke="#1e293b" stroke-width="1"/><polygon points="40,72 50,72 250,72 240,72" fill="#f0f4f8" stroke="#1e293b" stroke-width="1"/><polygon points="240,72 250,72 250,152 240,152" fill="#f0f4f8" stroke="#1e293b" stroke-width="1"/><rect class="uml-node uml-deployment-shape" data-uml-kind="node" x="40" y="72" width="200" height="80" fill="#f0f4f8" stroke="#1e293b" stroke-width="1.5"/><text x="140" y="118" text-anchor="middle" font-family="monospace" font-size="13" font-weight="600" fill="#0f172a">AppServer</text><text x="140" y="86" text-anchor="middle" font-family="monospace" font-size="10" fill="#0f172a">node</text><desc data-uml-id="PostgreSQL">PostgreSQL</desc><path class="uml-node uml-deployment-shape" data-uml-kind="database" d="M280,82 C280,72 480,72 480,82 L480,142 C480,152 280,152 280,142 Z" fill="#f0f4f8" stroke="#1e293b" stroke-width="1.5"/><ellipse cx="380" cy="82" rx="100" ry="10" fill="#f0f4f8" stroke="#1e293b" stroke-width="1.5"/><text x="380" y="118" text-anchor="middle" font-family="monospace" font-size="13" font-weight="600" fill="#0f172a">PostgreSQL</text><text x="380" y="86" text-anchor="middle" font-family="monospace" font-size="10" fill="#0f172a">database</text><desc data-uml-id="Redis">Redis</desc><path class="uml-node uml-deployment-shape" data-uml-kind="database" d="M520,82 C520,72 720,72 720,82 L720,142 C720,152 520,152 520,142 Z" fill="#f0f4f8" stroke="#1e293b" stroke-width="1.5"/><ellipse cx="620" cy="82" rx="100" ry="10" fill="#f0f4f8" stroke="#1e293b" stroke-width="1.5"/><text x="620" y="118" text-anchor="middle" font-family="monospace" font-size="13" font-weight="600" fill="#0f172a">Redis</text><text x="620" y="86" text-anchor="middle" font-family="monospace" font-size="10" fill="#0f172a">database</text><desc data-uml-id="BackupServer">BackupServer</desc><polygon class="uml-node uml-deployment-shape" data-uml-kind="node" points="50,192 250,192 250,272 50,272" fill="#f0f4f8" stroke="#1e293b" stroke-width="1"/><polygon points="40,192 50,192 250,192 240,192" fill="#f0f4f8" stroke="#1e293b" stroke-width="1"/><polygon points="240,192 250,192 250,272 240,272" fill="#f0f4f8" stroke="#1e293b" stroke-width="1"/><rect class="uml-node uml-deployment-shape" data-uml-kind="node" x="40" y="192" width="200" height="80" fill="#f0f4f8" stroke="#1e293b" stroke-width="1.5"/><text x="140" y="238" text-anchor="middle" font-family="monospace" font-size="13" font-weight="600" fill="#0f172a">BackupServer</text><text x="140" y="206" text-anchor="middle" font-family="monospace" font-size="10" fill="#0f172a">node</text><line class="uml-relation" data-uml-from="AppServer" data-uml-to="PostgreSQL" data-uml-arrow="--&gt;" x1="240" y1="112" x2="280" y2="112" stroke="#1e293b" stroke-width="2" marker-end="url(#arrow-open)" /><polyline class="uml-relation" data-uml-from="AppServer" data-uml-to="Redis" data-uml-arrow="--&gt;" points="240,112 240,112 520,112 520,112" fill="none" stroke="#1e293b" stroke-width="2" marker-end="url(#arrow-open)" /><line class="uml-relation" data-uml-from="PostgreSQL" data-uml-to="BackupServer" data-uml-arrow="--&gt;" x1="300" y1="152" x2="220" y2="192" stroke="#1e293b" stroke-width="2" marker-end="url(#arrow-open)" /><text x="260" y="100" text-anchor="middle" font-family="monospace" font-size="11" fill="#1e293b">reads/writes</text><text x="380" y="100" text-anchor="middle" font-family="monospace" font-size="11" fill="#1e293b">caches</text><text x="260" y="160" text-anchor="middle" font-family="monospace" font-size="11" fill="#1e293b">backup</text></svg>