<svg xmlns="http://www.w3.org/2000/svg" width="760" height="360" viewBox="0 0 760 360"><rect width="100%" height="100%" fill="#f0f4f8"/><defs><marker id="arrow-open" viewBox="0 0 10 10" refX="9" refY="5" markerWidth="10" markerHeight="10" markerUnits="userSpaceOnUse" orient="auto-start-reverse"><path d="M0,0 L10,5 L0,10" fill="none" stroke="#1e293b" stroke-width="1.5"/></marker><marker id="arrow-triangle" viewBox="0 0 12 12" refX="11" refY="6" markerWidth="12" markerHeight="12" markerUnits="userSpaceOnUse" orient="auto-start-reverse"><polygon points="0,0 12,6 0,12" fill="#ffffff" stroke="#1e293b" stroke-width="1.5" fill-rule="nonzero"/></marker><marker id="arrow-diamond-filled" viewBox="0 0 14 10" refX="13" refY="5" markerWidth="14" markerHeight="10" markerUnits="userSpaceOnUse" orient="auto-start-reverse"><path d="M0,5 L7,0 L14,5 L7,10 z" fill="#1e293b" stroke="#1e293b" stroke-width="1"/></marker><marker id="arrow-diamond-open" viewBox="0 0 14 10" refX="13" refY="5" markerWidth="14" markerHeight="10" markerUnits="userSpaceOnUse" orient="auto-start-reverse"><path d="M0,5 L7,0 L14,5 L7,10 z" fill="#ffffff" stroke="#1e293b" stroke-width="1"/></marker></defs><desc data-uml-id="EC2 Instance">EC2 Instance</desc><polygon class="uml-node uml-deployment-shape" data-uml-kind="node" points="50,100 250,100 250,180 50,180" fill="#f0f4f8" stroke="#1e293b" stroke-width="1"/><polygon points="40,100 50,100 250,100 240,100" fill="#f0f4f8" stroke="#1e293b" stroke-width="1"/><polygon points="240,100 250,100 250,180 240,180" fill="#f0f4f8" stroke="#1e293b" stroke-width="1"/><rect class="uml-node uml-deployment-shape" data-uml-kind="node" x="40" y="100" width="200" height="80" fill="#f0f4f8" stroke="#1e293b" stroke-width="1.5"/><text x="140" y="146" text-anchor="middle" font-family="monospace" font-size="13" font-weight="600" fill="#0f172a">EC2 Instance</text><text x="140" y="114" text-anchor="middle" font-family="monospace" font-size="10" fill="#0f172a">node</text><desc data-uml-id="RDS Instance">RDS Instance</desc><polygon class="uml-node uml-deployment-shape" data-uml-kind="node" points="290,100 490,100 490,180 290,180" fill="#f0f4f8" stroke="#1e293b" stroke-width="1"/><polygon points="280,100 290,100 490,100 480,100" fill="#f0f4f8" stroke="#1e293b" stroke-width="1"/><polygon points="480,100 490,100 490,180 480,180" fill="#f0f4f8" stroke="#1e293b" stroke-width="1"/><rect class="uml-node uml-deployment-shape" data-uml-kind="node" x="280" y="100" width="200" height="80" fill="#f0f4f8" stroke="#1e293b" stroke-width="1.5"/><text x="380" y="146" text-anchor="middle" font-family="monospace" font-size="13" font-weight="600" fill="#0f172a">RDS Instance</text><text x="380" y="114" text-anchor="middle" font-family="monospace" font-size="10" fill="#0f172a">node</text><desc data-uml-id="S3 Bucket">S3 Bucket</desc><path class="uml-node uml-deployment-shape" data-uml-kind="database" d="M520,110 C520,100 720,100 720,110 L720,170 C720,180 520,180 520,170 Z" fill="#f0f4f8" stroke="#1e293b" stroke-width="1.5"/><ellipse cx="620" cy="110" rx="100" ry="10" fill="#f0f4f8" stroke="#1e293b" stroke-width="1.5"/><text x="620" y="146" text-anchor="middle" font-family="monospace" font-size="13" font-weight="600" fill="#0f172a">S3 Bucket</text><text x="620" y="114" text-anchor="middle" font-family="monospace" font-size="10" fill="#0f172a">database</text><desc data-uml-id="Lambda Function">Lambda Function</desc><path class="uml-node uml-deployment-shape" data-uml-kind="artifact" d="M40,220 H222 L240 238 V300 H40 Z" fill="#f0f4f8" stroke="#1e293b" stroke-width="1.5"/><text x="140" y="266" text-anchor="middle" font-family="monospace" font-size="13" font-weight="600" fill="#0f172a">Lambda Function</text><text x="140" y="234" text-anchor="middle" font-family="monospace" font-size="10" fill="#0f172a">artifact</text><line class="uml-relation" data-uml-from="EC2" data-uml-to="RDS" data-uml-arrow="--&gt;" x1="240" y1="140" x2="280" y2="140" stroke="#1e293b" stroke-width="2" marker-end="url(#arrow-open)" /><text x="260" y="124" text-anchor="middle" font-family="monospace" font-size="11" fill="#1e293b">queries</text><line class="uml-relation" data-uml-from="EC2" data-uml-to="S3" data-uml-arrow="--&gt;" x1="240" y1="140" x2="520" y2="140" stroke="#1e293b" stroke-width="2" marker-end="url(#arrow-open)" /><text x="380" y="124" text-anchor="middle" font-family="monospace" font-size="11" fill="#1e293b">stores</text><line class="uml-relation" data-uml-from="Lambda" data-uml-to="S3" data-uml-arrow="--&gt;" x1="240" y1="235" x2="520" y2="165" stroke="#1e293b" stroke-width="2" marker-end="url(#arrow-open)" /><text x="380" y="184" text-anchor="middle" font-family="monospace" font-size="11" fill="#1e293b">reads</text></svg>