<svg xmlns="http://www.w3.org/2000/svg" width="760" height="360" viewBox="0 0 760 360"><rect width="100%" height="100%" fill="white"/><text x="40" y="30" font-family="monospace" font-size="12" fill="#475569">deployment diagram</text><rect x="46" y="106" width="200" height="80" fill="#eef2ff" stroke="#3730a3" stroke-width="1"/><rect x="40" y="100" width="200" height="80" fill="#ffffff" stroke="#3730a3" stroke-width="1.5"/><text x="140" y="146" text-anchor="middle" font-family="monospace" font-size="13" font-weight="600">EC2 Instance</text><text x="140" y="114" text-anchor="middle" font-family="monospace" font-size="10" fill="#475569">node</text><rect x="286" y="106" width="200" height="80" fill="#eef2ff" stroke="#3730a3" stroke-width="1"/><rect x="280" y="100" width="200" height="80" fill="#ffffff" stroke="#3730a3" stroke-width="1.5"/><text x="380" y="146" text-anchor="middle" font-family="monospace" font-size="13" font-weight="600">RDS Instance</text><text x="380" y="114" text-anchor="middle" font-family="monospace" font-size="10" fill="#475569">node</text><ellipse cx="620" cy="110" rx="94" ry="8" fill="#ecfeff" stroke="#0e7490" stroke-width="1.5"/><rect x="526" y="110" width="188" height="60" fill="#ecfeff" stroke="#0e7490" stroke-width="1.5"/><ellipse cx="620" cy="170" rx="94" ry="8" fill="#ecfeff" stroke="#0e7490" stroke-width="1.5"/><text x="620" y="146" text-anchor="middle" font-family="monospace" font-size="13" font-weight="600">S3 Bucket</text><text x="620" y="114" text-anchor="middle" font-family="monospace" font-size="10" fill="#475569">database</text><polygon points="40,220 222,220 240,238 240,300 40,300" fill="#fff7ed" stroke="#9a3412" stroke-width="1.5"/><text x="140" y="266" text-anchor="middle" font-family="monospace" font-size="13" font-weight="600">Lambda Function</text><text x="140" y="234" text-anchor="middle" font-family="monospace" font-size="10" fill="#475569">artifact</text></svg>