<svg xmlns="http://www.w3.org/2000/svg" width="664" height="504" viewBox="0 0 664 504"><rect width="100%" height="100%" fill="#f0f4f8"/><defs><marker id="arrow-open" viewBox="0 0 10 10" refX="9" refY="5" markerWidth="10" markerHeight="10" markerUnits="userSpaceOnUse" orient="auto-start-reverse"><path d="M0,0 L10,5 L0,10" fill="none" stroke="#1e293b" stroke-width="1.5"/></marker><marker id="arrow-triangle" viewBox="0 0 12 12" refX="11" refY="6" markerWidth="12" markerHeight="12" markerUnits="userSpaceOnUse" orient="auto-start-reverse"><polygon points="0,0 12,6 0,12" fill="#ffffff" stroke="#1e293b" stroke-width="1.5" fill-rule="nonzero"/></marker><marker id="arrow-diamond-filled" viewBox="0 0 14 10" refX="13" refY="5" markerWidth="14" markerHeight="10" markerUnits="userSpaceOnUse" orient="auto-start-reverse"><path d="M0,5 L7,0 L14,5 L7,10 z" fill="#1e293b" stroke="#1e293b" stroke-width="1"/></marker><marker id="arrow-diamond-open" viewBox="0 0 14 10" refX="13" refY="5" markerWidth="14" markerHeight="10" markerUnits="userSpaceOnUse" orient="auto-start-reverse"><path d="M0,5 L7,0 L14,5 L7,10 z" fill="#ffffff" stroke="#1e293b" stroke-width="1"/></marker></defs><desc data-uml-id="EC2 Instance">EC2 Instance</desc><polygon points="92,92 104,80 304,80 292,92" fill="#d4dff7" stroke="#1e293b" stroke-width="1"/><polygon points="292,92 304,80 304,160 292,172" fill="#b8c8ef" stroke="#1e293b" stroke-width="1"/><rect class="uml-node uml-deployment-shape" data-uml-kind="node" x="92" y="92" width="200" height="80" fill="#f0f4f8" stroke="#1e293b" stroke-width="1.5"/><text x="192" y="138" text-anchor="middle" font-family="monospace" font-size="13" font-weight="600" fill="#0f172a">EC2 Instance</text><text x="192" y="106" text-anchor="middle" font-family="monospace" font-size="10" fill="#0f172a">node</text><desc data-uml-id="RDS Instance">RDS Instance</desc><polygon points="92,292 104,280 304,280 292,292" fill="#d4dff7" stroke="#1e293b" stroke-width="1"/><polygon points="292,292 304,280 304,360 292,372" fill="#b8c8ef" stroke="#1e293b" stroke-width="1"/><rect class="uml-node uml-deployment-shape" data-uml-kind="node" x="92" y="292" width="200" height="80" fill="#f0f4f8" stroke="#1e293b" stroke-width="1.5"/><text x="192" y="338" text-anchor="middle" font-family="monospace" font-size="13" font-weight="600" fill="#0f172a">RDS Instance</text><text x="192" y="306" text-anchor="middle" font-family="monospace" font-size="10" fill="#0f172a">node</text><desc data-uml-id="S3 Bucket">S3 Bucket</desc><path class="uml-node uml-deployment-shape" data-uml-kind="database" d="M332,302 C332,292 532,292 532,302 L532,362 C532,372 332,372 332,362 Z" fill="#f0f4f8" stroke="#1e293b" stroke-width="1.5"/><ellipse cx="432" cy="302" rx="100" ry="10" fill="#f0f4f8" stroke="#1e293b" stroke-width="1.5"/><text x="432" y="338" text-anchor="middle" font-family="monospace" font-size="13" font-weight="600" fill="#0f172a">S3 Bucket</text><text x="432" y="306" text-anchor="middle" font-family="monospace" font-size="10" fill="#0f172a">database</text><desc data-uml-id="Lambda Function">Lambda Function</desc><path class="uml-node uml-deployment-shape" data-uml-kind="artifact" d="M332,92 H514 L532 110 V172 H332 Z" fill="#f0f4f8" stroke="#1e293b" stroke-width="1.5"/><text x="432" y="138" text-anchor="middle" font-family="monospace" font-size="13" font-weight="600" fill="#0f172a">Lambda Function</text><text x="432" y="106" text-anchor="middle" font-family="monospace" font-size="10" fill="#0f172a">artifact</text><polyline class="uml-relation" data-uml-from="EC2" data-uml-to="RDS" data-uml-arrow="--&gt;" points="192,172 192,224 192,292" fill="none" stroke="#1e293b" stroke-width="2" marker-end="url(#arrow-open)" /><polyline class="uml-relation" data-uml-from="EC2" data-uml-to="S3" data-uml-arrow="--&gt;" points="192,172 192,232 432,232 432,292" fill="none" stroke="#1e293b" stroke-width="2" marker-end="url(#arrow-open)" /><polyline class="uml-relation" data-uml-from="Lambda" data-uml-to="S3" data-uml-arrow="--&gt;" points="432,172 432,240 432,292" fill="none" stroke="#1e293b" stroke-width="2" marker-end="url(#arrow-open)" /><text x="432" y="194" text-anchor="middle" font-family="monospace" font-size="11" fill="#1e293b">reads</text><text x="312" y="220" text-anchor="middle" font-family="monospace" font-size="11" fill="#1e293b">stores</text><text x="192" y="246" text-anchor="middle" font-family="monospace" font-size="11" fill="#1e293b">queries</text></svg>