<svg xmlns="http://www.w3.org/2000/svg" width="740" height="1180" viewBox="0 0 740 1180"><rect width="100%" height="100%" fill="#f0f4f8"/><defs><marker id="arrow-open" viewBox="0 0 10 10" refX="9" refY="5" markerWidth="10" markerHeight="10" markerUnits="userSpaceOnUse" orient="auto-start-reverse"><path d="M0,0 L10,5 L0,10" fill="none" stroke="#1e293b" stroke-width="1.5"/></marker><marker id="arrow-triangle" viewBox="0 0 12 12" refX="11" refY="6" markerWidth="12" markerHeight="12" markerUnits="userSpaceOnUse" orient="auto-start-reverse"><polygon points="0,0 12,6 0,12" fill="#ffffff" stroke="#1e293b" stroke-width="1.5" fill-rule="nonzero"/></marker><marker id="arrow-diamond-filled" viewBox="0 0 14 10" refX="13" refY="5" markerWidth="14" markerHeight="10" markerUnits="userSpaceOnUse" orient="auto-start-reverse"><path d="M0,5 L7,0 L14,5 L7,10 z" fill="#1e293b" stroke="#1e293b" stroke-width="1"/></marker><marker id="arrow-diamond-open" viewBox="0 0 14 10" refX="13" refY="5" markerWidth="14" markerHeight="10" markerUnits="userSpaceOnUse" orient="auto-start-reverse"><path d="M0,5 L7,0 L14,5 L7,10 z" fill="#ffffff" stroke="#1e293b" stroke-width="1"/></marker></defs><text x="40" y="40" font-family="monospace" font-size="18" font-weight="600">Production Deployment</text><desc data-uml-id="CDN">CDN</desc><polygon class="uml-node uml-deployment-shape" data-uml-kind="node" points="260,130 460,130 460,210 260,210" fill="#f0f4f8" stroke="#1e293b" stroke-width="1"/><polygon points="250,130 260,130 460,130 450,130" fill="#f0f4f8" stroke="#1e293b" stroke-width="1"/><polygon points="450,130 460,130 460,210 450,210" fill="#f0f4f8" stroke="#1e293b" stroke-width="1"/><rect class="uml-node uml-deployment-shape" data-uml-kind="node" x="250" y="130" width="200" height="80" fill="#f0f4f8" stroke="#1e293b" stroke-width="1.5"/><text x="350" y="176" text-anchor="middle" font-family="monospace" font-size="13" font-weight="600" fill="#0f172a">CDN</text><text x="350" y="144" text-anchor="middle" font-family="monospace" font-size="10" fill="#0f172a">node</text><desc data-uml-id="Load Balancer">Load Balancer</desc><polygon class="uml-node uml-deployment-shape" data-uml-kind="node" points="260,330 460,330 460,410 260,410" fill="#f0f4f8" stroke="#1e293b" stroke-width="1"/><polygon points="250,330 260,330 460,330 450,330" fill="#f0f4f8" stroke="#1e293b" stroke-width="1"/><polygon points="450,330 460,330 460,410 450,410" fill="#f0f4f8" stroke="#1e293b" stroke-width="1"/><rect class="uml-node uml-deployment-shape" data-uml-kind="node" x="250" y="330" width="200" height="80" fill="#f0f4f8" stroke="#1e293b" stroke-width="1.5"/><text x="350" y="376" text-anchor="middle" font-family="monospace" font-size="13" font-weight="600" fill="#0f172a">Load Balancer</text><text x="350" y="344" text-anchor="middle" font-family="monospace" font-size="10" fill="#0f172a">node</text><desc data-uml-id="Web Server 1">Web Server 1</desc><polygon class="uml-node uml-deployment-shape" data-uml-kind="node" points="140,530 340,530 340,610 140,610" fill="#f0f4f8" stroke="#1e293b" stroke-width="1"/><polygon points="130,530 140,530 340,530 330,530" fill="#f0f4f8" stroke="#1e293b" stroke-width="1"/><polygon points="330,530 340,530 340,610 330,610" fill="#f0f4f8" stroke="#1e293b" stroke-width="1"/><rect class="uml-node uml-deployment-shape" data-uml-kind="node" x="130" y="530" width="200" height="80" fill="#f0f4f8" stroke="#1e293b" stroke-width="1.5"/><text x="230" y="576" text-anchor="middle" font-family="monospace" font-size="13" font-weight="600" fill="#0f172a">Web Server 1</text><text x="230" y="544" text-anchor="middle" font-family="monospace" font-size="10" fill="#0f172a">node</text><desc data-uml-id="Web Server 2">Web Server 2</desc><polygon class="uml-node uml-deployment-shape" data-uml-kind="node" points="380,530 580,530 580,610 380,610" fill="#f0f4f8" stroke="#1e293b" stroke-width="1"/><polygon points="370,530 380,530 580,530 570,530" fill="#f0f4f8" stroke="#1e293b" stroke-width="1"/><polygon points="570,530 580,530 580,610 570,610" fill="#f0f4f8" stroke="#1e293b" stroke-width="1"/><rect class="uml-node uml-deployment-shape" data-uml-kind="node" x="370" y="530" width="200" height="80" fill="#f0f4f8" stroke="#1e293b" stroke-width="1.5"/><text x="470" y="576" text-anchor="middle" font-family="monospace" font-size="13" font-weight="600" fill="#0f172a">Web Server 2</text><text x="470" y="544" text-anchor="middle" font-family="monospace" font-size="10" fill="#0f172a">node</text><desc data-uml-id="Primary DB">Primary DB</desc><path class="uml-node uml-deployment-shape" data-uml-kind="database" d="M130,740 C130,730 330,730 330,740 L330,800 C330,810 130,810 130,800 Z" fill="#f0f4f8" stroke="#1e293b" stroke-width="1.5"/><ellipse cx="230" cy="740" rx="100" ry="10" fill="#f0f4f8" stroke="#1e293b" stroke-width="1.5"/><text x="230" y="776" text-anchor="middle" font-family="monospace" font-size="13" font-weight="600" fill="#0f172a">Primary DB</text><text x="230" y="744" text-anchor="middle" font-family="monospace" font-size="10" fill="#0f172a">database</text><desc data-uml-id="Replica DB">Replica DB</desc><path class="uml-node uml-deployment-shape" data-uml-kind="database" d="M250,940 C250,930 450,930 450,940 L450,1000 C450,1010 250,1010 250,1000 Z" fill="#f0f4f8" stroke="#1e293b" stroke-width="1.5"/><ellipse cx="350" cy="940" rx="100" ry="10" fill="#f0f4f8" stroke="#1e293b" stroke-width="1.5"/><text x="350" y="976" text-anchor="middle" font-family="monospace" font-size="13" font-weight="600" fill="#0f172a">Replica DB</text><text x="350" y="944" text-anchor="middle" font-family="monospace" font-size="10" fill="#0f172a">database</text><desc data-uml-id="Cache">Cache</desc><path class="uml-node uml-deployment-shape" data-uml-kind="artifact" d="M370,730 H552 L570 748 V810 H370 Z" fill="#f0f4f8" stroke="#1e293b" stroke-width="1.5"/><text x="470" y="776" text-anchor="middle" font-family="monospace" font-size="13" font-weight="600" fill="#0f172a">Cache</text><text x="470" y="744" text-anchor="middle" font-family="monospace" font-size="10" fill="#0f172a">artifact</text><line class="uml-relation" data-uml-from="CDN" data-uml-to="LB" data-uml-arrow="--&gt;" x1="350" y1="210" x2="350" y2="330" stroke="#1e293b" stroke-width="2" marker-end="url(#arrow-open)" /><line class="uml-relation" data-uml-from="LB" data-uml-to="WS1" data-uml-arrow="--&gt;" x1="350" y1="410" x2="230" y2="530" stroke="#1e293b" stroke-width="2" marker-end="url(#arrow-open)" /><line class="uml-relation" data-uml-from="LB" data-uml-to="WS2" data-uml-arrow="--&gt;" x1="350" y1="410" x2="470" y2="530" stroke="#1e293b" stroke-width="2" marker-end="url(#arrow-open)" /><line class="uml-relation" data-uml-from="WS1" data-uml-to="PDB" data-uml-arrow="--&gt;" x1="230" y1="610" x2="230" y2="730" stroke="#1e293b" stroke-width="2" marker-end="url(#arrow-open)" /><line class="uml-relation" data-uml-from="WS2" data-uml-to="PDB" data-uml-arrow="--&gt;" x1="370" y1="570" x2="330" y2="770" stroke="#1e293b" stroke-width="2" marker-end="url(#arrow-open)" /><line class="uml-relation" data-uml-from="WS1" data-uml-to="Cache" data-uml-arrow="--&gt;" x1="330" y1="570" x2="370" y2="770" stroke="#1e293b" stroke-width="2" marker-end="url(#arrow-open)" /><line class="uml-relation" data-uml-from="WS2" data-uml-to="Cache" data-uml-arrow="--&gt;" x1="470" y1="610" x2="470" y2="730" stroke="#1e293b" stroke-width="2" marker-end="url(#arrow-open)" /><line class="uml-relation" data-uml-from="PDB" data-uml-to="RDB" data-uml-arrow="--&gt;" x1="230" y1="810" x2="350" y2="930" stroke="#1e293b" stroke-width="2" marker-end="url(#arrow-open)" /></svg>