<svg xmlns="http://www.w3.org/2000/svg" width="400" height="510" viewBox="0 0 400 510"><rect width="100%" height="100%" fill="#f0f4f8"/><defs><marker id="arrow-open" viewBox="0 0 10 10" refX="9" refY="5" markerWidth="10" markerHeight="10" markerUnits="userSpaceOnUse" orient="auto-start-reverse"><path d="M0,0 L10,5 L0,10" fill="none" stroke="#1e293b" stroke-width="1.5"/></marker><marker id="arrow-triangle" viewBox="0 0 12 12" refX="11" refY="6" markerWidth="12" markerHeight="12" markerUnits="userSpaceOnUse" orient="auto-start-reverse"><polygon points="0,0 12,6 0,12" fill="#ffffff" stroke="#1e293b" stroke-width="1.5" fill-rule="nonzero"/></marker><marker id="arrow-diamond-filled" viewBox="0 0 14 10" refX="13" refY="5" markerWidth="14" markerHeight="10" markerUnits="userSpaceOnUse" orient="auto-start-reverse"><path d="M0,5 L7,0 L14,5 L7,10 z" fill="#1e293b" stroke="#1e293b" stroke-width="1"/></marker><marker id="arrow-diamond-open" viewBox="0 0 14 10" refX="13" refY="5" markerWidth="14" markerHeight="10" markerUnits="userSpaceOnUse" orient="auto-start-reverse"><path d="M0,5 L7,0 L14,5 L7,10 z" fill="#ffffff" stroke="#1e293b" stroke-width="1"/></marker></defs><text x="40" y="40" font-family="monospace" font-size="18" font-weight="600">Production Deployment</text><desc data-uml-id="CDN">CDN</desc><polygon class="uml-node uml-deployment-shape" data-uml-kind="node" points="50,110 250,110 250,190 50,190" fill="#f0f4f8" stroke="#1e293b" stroke-width="1"/><polygon points="40,110 50,110 250,110 240,110" fill="#f0f4f8" stroke="#1e293b" stroke-width="1"/><polygon points="240,110 250,110 250,190 240,190" fill="#f0f4f8" stroke="#1e293b" stroke-width="1"/><rect class="uml-node uml-deployment-shape" data-uml-kind="node" x="40" y="110" width="200" height="80" fill="#f0f4f8" stroke="#1e293b" stroke-width="1.5"/><text x="140" y="156" text-anchor="middle" font-family="monospace" font-size="13" font-weight="600" fill="#0f172a">CDN</text><text x="140" y="124" text-anchor="middle" font-family="monospace" font-size="10" fill="#0f172a">node</text><desc data-uml-id="Load Balancer">Load Balancer</desc><polygon class="uml-node uml-deployment-shape" data-uml-kind="node" points="290,110 490,110 490,190 290,190" fill="#f0f4f8" stroke="#1e293b" stroke-width="1"/><polygon points="280,110 290,110 490,110 480,110" fill="#f0f4f8" stroke="#1e293b" stroke-width="1"/><polygon points="480,110 490,110 490,190 480,190" fill="#f0f4f8" stroke="#1e293b" stroke-width="1"/><rect class="uml-node uml-deployment-shape" data-uml-kind="node" x="280" y="110" width="200" height="80" fill="#f0f4f8" stroke="#1e293b" stroke-width="1.5"/><text x="380" y="156" text-anchor="middle" font-family="monospace" font-size="13" font-weight="600" fill="#0f172a">Load Balancer</text><text x="380" y="124" text-anchor="middle" font-family="monospace" font-size="10" fill="#0f172a">node</text><desc data-uml-id="Web Server 1">Web Server 1</desc><polygon class="uml-node uml-deployment-shape" data-uml-kind="node" points="530,110 730,110 730,190 530,190" fill="#f0f4f8" stroke="#1e293b" stroke-width="1"/><polygon points="520,110 530,110 730,110 720,110" fill="#f0f4f8" stroke="#1e293b" stroke-width="1"/><polygon points="720,110 730,110 730,190 720,190" fill="#f0f4f8" stroke="#1e293b" stroke-width="1"/><rect class="uml-node uml-deployment-shape" data-uml-kind="node" x="520" y="110" width="200" height="80" fill="#f0f4f8" stroke="#1e293b" stroke-width="1.5"/><text x="620" y="156" text-anchor="middle" font-family="monospace" font-size="13" font-weight="600" fill="#0f172a">Web Server 1</text><text x="620" y="124" text-anchor="middle" font-family="monospace" font-size="10" fill="#0f172a">node</text><desc data-uml-id="Web Server 2">Web Server 2</desc><polygon class="uml-node uml-deployment-shape" data-uml-kind="node" points="50,230 250,230 250,310 50,310" fill="#f0f4f8" stroke="#1e293b" stroke-width="1"/><polygon points="40,230 50,230 250,230 240,230" fill="#f0f4f8" stroke="#1e293b" stroke-width="1"/><polygon points="240,230 250,230 250,310 240,310" fill="#f0f4f8" stroke="#1e293b" stroke-width="1"/><rect class="uml-node uml-deployment-shape" data-uml-kind="node" x="40" y="230" width="200" height="80" fill="#f0f4f8" stroke="#1e293b" stroke-width="1.5"/><text x="140" y="276" text-anchor="middle" font-family="monospace" font-size="13" font-weight="600" fill="#0f172a">Web Server 2</text><text x="140" y="244" text-anchor="middle" font-family="monospace" font-size="10" fill="#0f172a">node</text><desc data-uml-id="Primary DB">Primary DB</desc><path class="uml-node uml-deployment-shape" data-uml-kind="database" d="M280,240 C280,230 480,230 480,240 L480,300 C480,310 280,310 280,300 Z" fill="#f0f4f8" stroke="#1e293b" stroke-width="1.5"/><ellipse cx="380" cy="240" rx="100" ry="10" fill="#f0f4f8" stroke="#1e293b" stroke-width="1.5"/><text x="380" y="276" text-anchor="middle" font-family="monospace" font-size="13" font-weight="600" fill="#0f172a">Primary DB</text><text x="380" y="244" text-anchor="middle" font-family="monospace" font-size="10" fill="#0f172a">database</text><desc data-uml-id="Replica DB">Replica DB</desc><path class="uml-node uml-deployment-shape" data-uml-kind="database" d="M520,240 C520,230 720,230 720,240 L720,300 C720,310 520,310 520,300 Z" fill="#f0f4f8" stroke="#1e293b" stroke-width="1.5"/><ellipse cx="620" cy="240" rx="100" ry="10" fill="#f0f4f8" stroke="#1e293b" stroke-width="1.5"/><text x="620" y="276" text-anchor="middle" font-family="monospace" font-size="13" font-weight="600" fill="#0f172a">Replica DB</text><text x="620" y="244" text-anchor="middle" font-family="monospace" font-size="10" fill="#0f172a">database</text><desc data-uml-id="Cache">Cache</desc><path class="uml-node uml-deployment-shape" data-uml-kind="artifact" d="M40,350 H222 L240 368 V430 H40 Z" fill="#f0f4f8" stroke="#1e293b" stroke-width="1.5"/><text x="140" y="396" text-anchor="middle" font-family="monospace" font-size="13" font-weight="600" fill="#0f172a">Cache</text><text x="140" y="364" text-anchor="middle" font-family="monospace" font-size="10" fill="#0f172a">artifact</text><line class="uml-relation" data-uml-from="CDN" data-uml-to="LB" data-uml-arrow="--&gt;" x1="240" y1="150" x2="280" y2="150" stroke="#1e293b" stroke-width="2" marker-end="url(#arrow-open)" /><line class="uml-relation" data-uml-from="LB" data-uml-to="WS1" data-uml-arrow="--&gt;" x1="480" y1="150" x2="520" y2="150" stroke="#1e293b" stroke-width="2" marker-end="url(#arrow-open)" /><line class="uml-relation" data-uml-from="LB" data-uml-to="WS2" data-uml-arrow="--&gt;" x1="300" y1="190" x2="220" y2="230" stroke="#1e293b" stroke-width="2" marker-end="url(#arrow-open)" /><line class="uml-relation" data-uml-from="WS1" data-uml-to="PDB" data-uml-arrow="--&gt;" x1="540" y1="190" x2="460" y2="230" stroke="#1e293b" stroke-width="2" marker-end="url(#arrow-open)" /><line class="uml-relation" data-uml-from="WS2" data-uml-to="PDB" data-uml-arrow="--&gt;" x1="240" y1="270" x2="280" y2="270" stroke="#1e293b" stroke-width="2" marker-end="url(#arrow-open)" /><polyline class="uml-relation" data-uml-from="WS1" data-uml-to="Cache" data-uml-arrow="--&gt;" points="540,190 492,190 492,350 220,350" fill="none" stroke="#1e293b" stroke-width="2" marker-end="url(#arrow-open)" /><line class="uml-relation" data-uml-from="WS2" data-uml-to="Cache" data-uml-arrow="--&gt;" x1="140" y1="310" x2="140" y2="350" stroke="#1e293b" stroke-width="2" marker-end="url(#arrow-open)" /><line class="uml-relation" data-uml-from="PDB" data-uml-to="RDB" data-uml-arrow="--&gt;" x1="480" y1="270" x2="520" y2="270" stroke="#1e293b" stroke-width="2" marker-end="url(#arrow-open)" /></svg>