<svg xmlns="http://www.w3.org/2000/svg" width="400" height="900" viewBox="0 0 400 900"><rect width="100%" height="100%" fill="#f0f4f8"/><defs><marker id="arrow-open" viewBox="0 0 10 10" refX="9" refY="5" markerWidth="10" markerHeight="10" markerUnits="userSpaceOnUse" orient="auto-start-reverse"><path d="M0,0 L10,5 L0,10" fill="none" stroke="#1e293b" stroke-width="1.5"/></marker><marker id="arrow-triangle" viewBox="0 0 12 12" refX="11" refY="6" markerWidth="12" markerHeight="12" markerUnits="userSpaceOnUse" orient="auto-start-reverse"><polygon points="0,0 12,6 0,12" fill="#ffffff" stroke="#1e293b" stroke-width="1.5" fill-rule="nonzero"/></marker><marker id="arrow-diamond-filled" viewBox="0 0 14 10" refX="13" refY="5" markerWidth="14" markerHeight="10" markerUnits="userSpaceOnUse" orient="auto-start-reverse"><path d="M0,5 L7,0 L14,5 L7,10 z" fill="#1e293b" stroke="#1e293b" stroke-width="1"/></marker><marker id="arrow-diamond-open" viewBox="0 0 14 10" refX="13" refY="5" markerWidth="14" markerHeight="10" markerUnits="userSpaceOnUse" orient="auto-start-reverse"><path d="M0,5 L7,0 L14,5 L7,10 z" fill="#ffffff" stroke="#1e293b" stroke-width="1"/></marker><marker id="arrow-double-open" viewBox="0 0 16 12" refX="15" refY="6" markerWidth="16" markerHeight="12" markerUnits="userSpaceOnUse" orient="auto-start-reverse"><path d="M0,1 L8,6 L0,11 M7,1 L15,6 L7,11" fill="none" stroke="#1e293b" stroke-width="1.5" stroke-linejoin="round"/></marker><marker id="arrow-circle-open" viewBox="0 0 12 12" refX="11" refY="6" markerWidth="12" markerHeight="12" markerUnits="userSpaceOnUse" orient="auto-start-reverse"><circle cx="6" cy="6" r="4" fill="#ffffff" stroke="#1e293b" stroke-width="1.5"/></marker><marker id="arrow-circle-filled" viewBox="0 0 12 12" refX="11" refY="6" markerWidth="12" markerHeight="12" markerUnits="userSpaceOnUse" orient="auto-start-reverse"><circle cx="6" cy="6" r="4" fill="#1e293b" stroke="#1e293b" stroke-width="1.5"/></marker><marker id="arrow-triangle-filled" viewBox="0 0 12 12" refX="11" refY="6" markerWidth="12" markerHeight="12" markerUnits="userSpaceOnUse" orient="auto-start-reverse"><polygon points="0,0 12,6 0,12" fill="#1e293b" stroke="#1e293b" stroke-width="1.5"/></marker><marker id="arrow-box-filled" viewBox="0 0 12 12" refX="11" refY="6" markerWidth="12" markerHeight="12" markerUnits="userSpaceOnUse" orient="auto-start-reverse"><rect x="2" y="2" width="8" height="8" fill="#1e293b" stroke="#1e293b" stroke-width="1.5"/></marker><marker id="arrow-plus" viewBox="0 0 12 12" refX="11" refY="6" markerWidth="12" markerHeight="12" markerUnits="userSpaceOnUse" orient="auto-start-reverse"><path d="M6,1 L6,11 M1,6 L11,6" fill="none" stroke="#1e293b" stroke-width="1.8" stroke-linecap="round"/></marker><marker id="arrow-slash" viewBox="0 0 12 12" refX="10" refY="6" markerWidth="12" markerHeight="12" markerUnits="userSpaceOnUse" orient="auto-start-reverse"><path d="M3,2 L9,10" fill="none" stroke="#1e293b" stroke-width="1.8" stroke-linecap="round"/></marker><marker id="arrow-cross" viewBox="0 0 12 12" refX="11" refY="6" markerWidth="12" markerHeight="12" markerUnits="userSpaceOnUse" orient="auto-start-reverse"><path d="M2,2 L10,10 M10,2 L2,10" fill="none" stroke="#1e293b" stroke-width="1.8" stroke-linecap="round"/></marker><marker id="arrow-bracket-open" viewBox="0 0 12 14" refX="11" refY="7" markerWidth="12" markerHeight="14" markerUnits="userSpaceOnUse" orient="auto-start-reverse"><path d="M10,1 L4,1 L4,13 L10,13" fill="none" stroke="#1e293b" stroke-width="1.8" stroke-linecap="round" stroke-linejoin="round"/></marker></defs><marker id="arrow-ie-one" viewBox="0 0 24 16" refX="22" refY="8" markerWidth="24" markerHeight="16" markerUnits="userSpaceOnUse" orient="auto-start-reverse"><path d="M16,2 L16,14" fill="none" stroke="#1e293b" stroke-width="1.8" stroke-linecap="round"/></marker><marker id="arrow-ie-zero-one" viewBox="0 0 30 16" refX="28" refY="8" markerWidth="30" markerHeight="16" markerUnits="userSpaceOnUse" orient="auto-start-reverse"><circle cx="10" cy="8" r="4" fill="#ffffff" stroke="#1e293b" stroke-width="1.5"/><path d="M20,2 L20,14" fill="none" stroke="#1e293b" stroke-width="1.8" stroke-linecap="round"/></marker><marker id="arrow-ie-zero-many" viewBox="0 0 34 18" refX="32" refY="9" markerWidth="34" markerHeight="18" markerUnits="userSpaceOnUse" orient="auto-start-reverse"><circle cx="8" cy="9" r="4" fill="#ffffff" stroke="#1e293b" stroke-width="1.5"/><path d="M18,9 L31,2 M18,9 L31,9 M18,9 L31,16" fill="none" stroke="#1e293b" stroke-width="1.7" stroke-linecap="round"/></marker><marker id="arrow-ie-one-many" viewBox="0 0 34 18" refX="32" refY="9" markerWidth="34" markerHeight="18" markerUnits="userSpaceOnUse" orient="auto-start-reverse"><path d="M8,2 L8,16 M18,9 L31,2 M18,9 L31,9 M18,9 L31,16" fill="none" stroke="#1e293b" stroke-width="1.7" stroke-linecap="round"/></marker><text x="8" y="8" font-family="monospace" font-size="18" font-weight="600">Production Deployment</text><desc data-uml-id="CDN">CDN</desc><polygon points="175,144 187,132 297,132 285,144" fill="#d4dff7" stroke="#1e293b" stroke-width="1"/><polygon points="285,144 297,132 297,176 285,188" fill="#b8c8ef" stroke="#1e293b" stroke-width="1"/><rect class="uml-node uml-deployment-shape" data-uml-kind="node" x="175" y="144" width="110" height="44" fill="#f0f4f8" stroke="#1e293b" stroke-width="1.5"/><rect class="uml-edge-label-bg" data-uml-label-role="edge-background" x="218" y="159" width="24" height="18" fill="white" opacity="0.85"/><text x="230" y="172" text-anchor="middle" font-family="monospace" font-size="13" font-weight="600" fill="#0f172a">CDN</text><desc data-uml-id="Load Balancer">Load Balancer</desc><polygon points="175,306 187,294 297,294 285,306" fill="#d4dff7" stroke="#1e293b" stroke-width="1"/><polygon points="285,306 297,294 297,338 285,350" fill="#b8c8ef" stroke="#1e293b" stroke-width="1"/><rect class="uml-node uml-deployment-shape" data-uml-kind="node" x="175" y="306" width="110" height="44" fill="#f0f4f8" stroke="#1e293b" stroke-width="1.5"/><rect class="uml-edge-label-bg" data-uml-label-role="edge-background" x="183" y="321" width="94" height="18" fill="white" opacity="0.85"/><text x="230" y="334" text-anchor="middle" font-family="monospace" font-size="13" font-weight="600" fill="#0f172a">Load Balancer</text><desc data-uml-id="Web Server 1">Web Server 1</desc><polygon points="98,468 110,456 220,456 208,468" fill="#d4dff7" stroke="#1e293b" stroke-width="1"/><polygon points="208,468 220,456 220,500 208,512" fill="#b8c8ef" stroke="#1e293b" stroke-width="1"/><rect class="uml-node uml-deployment-shape" data-uml-kind="node" x="98" y="468" width="110" height="44" fill="#f0f4f8" stroke="#1e293b" stroke-width="1.5"/><rect class="uml-edge-label-bg" data-uml-label-role="edge-background" x="109" y="483" width="88" height="18" fill="white" opacity="0.85"/><text x="153" y="496" text-anchor="middle" font-family="monospace" font-size="13" font-weight="600" fill="#0f172a">Web Server 1</text><desc data-uml-id="Web Server 2">Web Server 2</desc><polygon points="252,468 264,456 374,456 362,468" fill="#d4dff7" stroke="#1e293b" stroke-width="1"/><polygon points="362,468 374,456 374,500 362,512" fill="#b8c8ef" stroke="#1e293b" stroke-width="1"/><rect class="uml-node uml-deployment-shape" data-uml-kind="node" x="252" y="468" width="110" height="44" fill="#f0f4f8" stroke="#1e293b" stroke-width="1.5"/><rect class="uml-edge-label-bg" data-uml-label-role="edge-background" x="263" y="483" width="88" height="18" fill="white" opacity="0.85"/><text x="307" y="496" text-anchor="middle" font-family="monospace" font-size="13" font-weight="600" fill="#0f172a">Web Server 2</text><desc data-uml-id="Primary DB">Primary DB</desc><path class="uml-node uml-deployment-shape" data-uml-kind="database" d="M98,640 C98,630 208,630 208,640 L208,664 C208,674 98,674 98,664 Z" fill="#f0f4f8" stroke="#1e293b" stroke-width="1.5"/><ellipse cx="153" cy="640" rx="55" ry="10" fill="#f0f4f8" stroke="#1e293b" stroke-width="1.5"/><rect class="uml-edge-label-bg" data-uml-label-role="edge-background" x="116" y="645" width="74" height="18" fill="white" opacity="0.85"/><text x="153" y="658" text-anchor="middle" font-family="monospace" font-size="13" font-weight="600" fill="#0f172a">Primary DB</text><desc data-uml-id="Replica DB">Replica DB</desc><path class="uml-node uml-deployment-shape" data-uml-kind="database" d="M175,802 C175,792 285,792 285,802 L285,826 C285,836 175,836 175,826 Z" fill="#f0f4f8" stroke="#1e293b" stroke-width="1.5"/><ellipse cx="230" cy="802" rx="55" ry="10" fill="#f0f4f8" stroke="#1e293b" stroke-width="1.5"/><text x="230" y="820" text-anchor="middle" font-family="monospace" font-size="13" font-weight="600" fill="#0f172a">Replica DB</text><desc data-uml-id="Cache">Cache</desc><path class="uml-node uml-deployment-shape" data-uml-kind="artifact" d="M252,630 H344 L362 648 V674 H252 Z" fill="#f0f4f8" stroke="#1e293b" stroke-width="1.5"/><text x="307" y="658" text-anchor="middle" font-family="monospace" font-size="13" font-weight="600" fill="#0f172a">Cache</text><polyline class="uml-relation" data-uml-from="CDN" data-uml-to="LB" data-uml-arrow="--&gt;" points="230,142 230,201 230,306" fill="none" stroke="#1e293b" stroke-width="2" marker-end="url(#arrow-open)" /><polyline class="uml-relation" data-uml-from="LB" data-uml-to="WS1" data-uml-arrow="--&gt;" points="230,304 230,359 153,359 153,468" fill="none" stroke="#1e293b" stroke-width="2" marker-end="url(#arrow-open)" /><polyline class="uml-relation" data-uml-from="LB" data-uml-to="WS2" data-uml-arrow="--&gt;" points="230,304 230,367 307,367 307,468" fill="none" stroke="#1e293b" stroke-width="2" marker-end="url(#arrow-open)" /><polyline class="uml-relation" data-uml-from="WS1" data-uml-to="PDB" data-uml-arrow="--&gt;" points="153,466 153,483 153,483 153,630" fill="none" stroke="#1e293b" stroke-width="2" marker-end="url(#arrow-open)" /><polyline class="uml-relation" data-uml-from="WS2" data-uml-to="PDB" data-uml-arrow="--&gt;" points="307,466 307,538 163,538 163,630" fill="none" stroke="#1e293b" stroke-width="2" marker-end="url(#arrow-open)" /><polyline class="uml-relation" data-uml-from="WS1" data-uml-to="Cache" data-uml-arrow="--&gt;" points="153,466 153,511 307,511 307,630" fill="none" stroke="#1e293b" stroke-width="2" marker-end="url(#arrow-open)" /><polyline class="uml-relation" data-uml-from="WS2" data-uml-to="Cache" data-uml-arrow="--&gt;" points="307,466 307,566 317,566 317,630" fill="none" stroke="#1e293b" stroke-width="2" marker-end="url(#arrow-open)" /><polyline class="uml-relation" data-uml-from="PDB" data-uml-to="RDB" data-uml-arrow="--&gt;" points="153,628 153,687 230,687 230,792" fill="none" stroke="#1e293b" stroke-width="2" marker-end="url(#arrow-open)" /></svg>