<svg xmlns="http://www.w3.org/2000/svg" width="764" height="1204" viewBox="0 0 764 1204"><rect width="100%" height="100%" fill="#f0f4f8"/><defs><marker id="arrow-open" viewBox="0 0 10 10" refX="9" refY="5" markerWidth="10" markerHeight="10" markerUnits="userSpaceOnUse" orient="auto-start-reverse"><path d="M0,0 L10,5 L0,10" fill="none" stroke="#1e293b" stroke-width="1.5"/></marker><marker id="arrow-triangle" viewBox="0 0 12 12" refX="11" refY="6" markerWidth="12" markerHeight="12" markerUnits="userSpaceOnUse" orient="auto-start-reverse"><polygon points="0,0 12,6 0,12" fill="#ffffff" stroke="#1e293b" stroke-width="1.5" fill-rule="nonzero"/></marker><marker id="arrow-diamond-filled" viewBox="0 0 14 10" refX="13" refY="5" markerWidth="14" markerHeight="10" markerUnits="userSpaceOnUse" orient="auto-start-reverse"><path d="M0,5 L7,0 L14,5 L7,10 z" fill="#1e293b" stroke="#1e293b" stroke-width="1"/></marker><marker id="arrow-diamond-open" viewBox="0 0 14 10" refX="13" refY="5" markerWidth="14" markerHeight="10" markerUnits="userSpaceOnUse" orient="auto-start-reverse"><path d="M0,5 L7,0 L14,5 L7,10 z" fill="#ffffff" stroke="#1e293b" stroke-width="1"/></marker></defs><text x="40" y="40" font-family="monospace" font-size="18" font-weight="600">Production Deployment</text><desc data-uml-id="CDN">CDN</desc><polygon points="262,142 274,130 474,130 462,142" fill="#d4dff7" stroke="#1e293b" stroke-width="1"/><polygon points="462,142 474,130 474,210 462,222" fill="#b8c8ef" stroke="#1e293b" stroke-width="1"/><rect class="uml-node uml-deployment-shape" data-uml-kind="node" x="262" y="142" width="200" height="80" fill="#f0f4f8" stroke="#1e293b" stroke-width="1.5"/><text x="362" y="188" text-anchor="middle" font-family="monospace" font-size="13" font-weight="600" fill="#0f172a">CDN</text><text x="362" y="156" text-anchor="middle" font-family="monospace" font-size="10" fill="#0f172a">node</text><desc data-uml-id="Load Balancer">Load Balancer</desc><polygon points="262,342 274,330 474,330 462,342" fill="#d4dff7" stroke="#1e293b" stroke-width="1"/><polygon points="462,342 474,330 474,410 462,422" fill="#b8c8ef" stroke="#1e293b" stroke-width="1"/><rect class="uml-node uml-deployment-shape" data-uml-kind="node" x="262" y="342" width="200" height="80" fill="#f0f4f8" stroke="#1e293b" stroke-width="1.5"/><text x="362" y="388" text-anchor="middle" font-family="monospace" font-size="13" font-weight="600" fill="#0f172a">Load Balancer</text><text x="362" y="356" text-anchor="middle" font-family="monospace" font-size="10" fill="#0f172a">node</text><desc data-uml-id="Web Server 1">Web Server 1</desc><polygon points="142,542 154,530 354,530 342,542" fill="#d4dff7" stroke="#1e293b" stroke-width="1"/><polygon points="342,542 354,530 354,610 342,622" fill="#b8c8ef" stroke="#1e293b" stroke-width="1"/><rect class="uml-node uml-deployment-shape" data-uml-kind="node" x="142" y="542" width="200" height="80" fill="#f0f4f8" stroke="#1e293b" stroke-width="1.5"/><text x="242" y="588" text-anchor="middle" font-family="monospace" font-size="13" font-weight="600" fill="#0f172a">Web Server 1</text><text x="242" y="556" text-anchor="middle" font-family="monospace" font-size="10" fill="#0f172a">node</text><desc data-uml-id="Web Server 2">Web Server 2</desc><polygon points="382,542 394,530 594,530 582,542" fill="#d4dff7" stroke="#1e293b" stroke-width="1"/><polygon points="582,542 594,530 594,610 582,622" fill="#b8c8ef" stroke="#1e293b" stroke-width="1"/><rect class="uml-node uml-deployment-shape" data-uml-kind="node" x="382" y="542" width="200" height="80" fill="#f0f4f8" stroke="#1e293b" stroke-width="1.5"/><text x="482" y="588" text-anchor="middle" font-family="monospace" font-size="13" font-weight="600" fill="#0f172a">Web Server 2</text><text x="482" y="556" text-anchor="middle" font-family="monospace" font-size="10" fill="#0f172a">node</text><desc data-uml-id="Primary DB">Primary DB</desc><path class="uml-node uml-deployment-shape" data-uml-kind="database" d="M142,752 C142,742 342,742 342,752 L342,812 C342,822 142,822 142,812 Z" fill="#f0f4f8" stroke="#1e293b" stroke-width="1.5"/><ellipse cx="242" cy="752" rx="100" ry="10" fill="#f0f4f8" stroke="#1e293b" stroke-width="1.5"/><text x="242" y="788" text-anchor="middle" font-family="monospace" font-size="13" font-weight="600" fill="#0f172a">Primary DB</text><text x="242" y="756" text-anchor="middle" font-family="monospace" font-size="10" fill="#0f172a">database</text><desc data-uml-id="Replica DB">Replica DB</desc><path class="uml-node uml-deployment-shape" data-uml-kind="database" d="M262,952 C262,942 462,942 462,952 L462,1012 C462,1022 262,1022 262,1012 Z" fill="#f0f4f8" stroke="#1e293b" stroke-width="1.5"/><ellipse cx="362" cy="952" rx="100" ry="10" fill="#f0f4f8" stroke="#1e293b" stroke-width="1.5"/><text x="362" y="988" text-anchor="middle" font-family="monospace" font-size="13" font-weight="600" fill="#0f172a">Replica DB</text><text x="362" y="956" text-anchor="middle" font-family="monospace" font-size="10" fill="#0f172a">database</text><desc data-uml-id="Cache">Cache</desc><path class="uml-node uml-deployment-shape" data-uml-kind="artifact" d="M382,742 H564 L582 760 V822 H382 Z" fill="#f0f4f8" stroke="#1e293b" stroke-width="1.5"/><text x="482" y="788" text-anchor="middle" font-family="monospace" font-size="13" font-weight="600" fill="#0f172a">Cache</text><text x="482" y="756" text-anchor="middle" font-family="monospace" font-size="10" fill="#0f172a">artifact</text><polyline class="uml-relation" data-uml-from="CDN" data-uml-to="LB" data-uml-arrow="--&gt;" points="362,222 362,282 362,342" fill="none" stroke="#1e293b" stroke-width="2" marker-end="url(#arrow-open)" /><polyline class="uml-relation" data-uml-from="LB" data-uml-to="WS1" data-uml-arrow="--&gt;" points="362,422 362,478 242,478 242,542" fill="none" stroke="#1e293b" stroke-width="2" marker-end="url(#arrow-open)" /><polyline class="uml-relation" data-uml-from="LB" data-uml-to="WS2" data-uml-arrow="--&gt;" points="362,422 362,486 482,486 482,542" fill="none" stroke="#1e293b" stroke-width="2" marker-end="url(#arrow-open)" /><polyline class="uml-relation" data-uml-from="WS1" data-uml-to="PDB" data-uml-arrow="--&gt;" points="242,622 242,682 242,742" fill="none" stroke="#1e293b" stroke-width="2" marker-end="url(#arrow-open)" /><polyline class="uml-relation" data-uml-from="WS2" data-uml-to="PDB" data-uml-arrow="--&gt;" points="382,582 382,696 342,696 342,782" fill="none" stroke="#1e293b" stroke-width="2" marker-end="url(#arrow-open)" /><polyline class="uml-relation" data-uml-from="WS1" data-uml-to="Cache" data-uml-arrow="--&gt;" points="342,582 342,668 382,668 382,782" fill="none" stroke="#1e293b" stroke-width="2" marker-end="url(#arrow-open)" /><polyline class="uml-relation" data-uml-from="WS2" data-uml-to="Cache" data-uml-arrow="--&gt;" points="482,622 482,682 482,742" fill="none" stroke="#1e293b" stroke-width="2" marker-end="url(#arrow-open)" /><polyline class="uml-relation" data-uml-from="PDB" data-uml-to="RDB" data-uml-arrow="--&gt;" points="242,822 242,882 362,882 362,942" fill="none" stroke="#1e293b" stroke-width="2" marker-end="url(#arrow-open)" /></svg>