<svg xmlns="http://www.w3.org/2000/svg" width="760" height="502" viewBox="0 0 760 502"><rect width="100%" height="100%" fill="#f0f4f8"/><defs><marker id="arrow-open" viewBox="0 0 10 10" refX="9" refY="5" markerWidth="10" markerHeight="10" orient="auto-start-reverse"><path d="M0,0 L10,5 L0,10" fill="none" stroke="#1e293b" stroke-width="1.5"/></marker><marker id="arrow-triangle" viewBox="0 0 12 12" refX="11" refY="6" markerWidth="12" markerHeight="12" orient="auto-start-reverse"><polygon points="0,0 12,6 0,12" fill="white" stroke="#1e293b" stroke-width="1.5" fill-rule="nonzero"/></marker><marker id="arrow-diamond-filled" viewBox="0 0 14 10" refX="13" refY="5" markerWidth="14" markerHeight="10" orient="auto-start-reverse"><path d="M0,5 L7,0 L14,5 L7,10 z" fill="#1e293b" stroke="#1e293b" stroke-width="1"/></marker><marker id="arrow-diamond-open" viewBox="0 0 14 10" refX="13" refY="5" markerWidth="14" markerHeight="10" orient="auto-start-reverse"><path d="M0,5 L7,0 L14,5 L7,10 z" fill="white" stroke="#1e293b" stroke-width="1"/></marker></defs><text x="40" y="28" font-family="monospace" font-size="18" font-weight="600">Production Deployment</text><desc data-uml-id="CDN">CDN</desc><polygon class="uml-node uml-deployment-shape" data-uml-kind="node" points="50,122 250,122 250,202 50,202" fill="#f0f4f8" stroke="#1e293b" stroke-width="1"/><polygon points="40,122 50,122 250,122 240,122" fill="#f0f4f8" stroke="#1e293b" stroke-width="1"/><polygon points="240,122 250,122 250,202 240,202" fill="#f0f4f8" stroke="#1e293b" stroke-width="1"/><rect class="uml-node uml-deployment-shape" data-uml-kind="node" x="40" y="122" width="200" height="80" fill="#f0f4f8" stroke="#1e293b" stroke-width="1.5"/><text x="140" y="168" text-anchor="middle" font-family="monospace" font-size="13" font-weight="600" fill="#0f172a">CDN</text><text x="140" y="136" text-anchor="middle" font-family="monospace" font-size="10" fill="#0f172a">node</text><desc data-uml-id="Load Balancer">Load Balancer</desc><polygon class="uml-node uml-deployment-shape" data-uml-kind="node" points="290,122 490,122 490,202 290,202" fill="#f0f4f8" stroke="#1e293b" stroke-width="1"/><polygon points="280,122 290,122 490,122 480,122" fill="#f0f4f8" stroke="#1e293b" stroke-width="1"/><polygon points="480,122 490,122 490,202 480,202" fill="#f0f4f8" stroke="#1e293b" stroke-width="1"/><rect class="uml-node uml-deployment-shape" data-uml-kind="node" x="280" y="122" width="200" height="80" fill="#f0f4f8" stroke="#1e293b" stroke-width="1.5"/><text x="380" y="168" text-anchor="middle" font-family="monospace" font-size="13" font-weight="600" fill="#0f172a">Load Balancer</text><text x="380" y="136" text-anchor="middle" font-family="monospace" font-size="10" fill="#0f172a">node</text><desc data-uml-id="Web Server 1">Web Server 1</desc><polygon class="uml-node uml-deployment-shape" data-uml-kind="node" points="530,122 730,122 730,202 530,202" fill="#f0f4f8" stroke="#1e293b" stroke-width="1"/><polygon points="520,122 530,122 730,122 720,122" fill="#f0f4f8" stroke="#1e293b" stroke-width="1"/><polygon points="720,122 730,122 730,202 720,202" fill="#f0f4f8" stroke="#1e293b" stroke-width="1"/><rect class="uml-node uml-deployment-shape" data-uml-kind="node" x="520" y="122" width="200" height="80" fill="#f0f4f8" stroke="#1e293b" stroke-width="1.5"/><text x="620" y="168" text-anchor="middle" font-family="monospace" font-size="13" font-weight="600" fill="#0f172a">Web Server 1</text><text x="620" y="136" text-anchor="middle" font-family="monospace" font-size="10" fill="#0f172a">node</text><desc data-uml-id="Web Server 2">Web Server 2</desc><polygon class="uml-node uml-deployment-shape" data-uml-kind="node" points="50,242 250,242 250,322 50,322" fill="#f0f4f8" stroke="#1e293b" stroke-width="1"/><polygon points="40,242 50,242 250,242 240,242" fill="#f0f4f8" stroke="#1e293b" stroke-width="1"/><polygon points="240,242 250,242 250,322 240,322" fill="#f0f4f8" stroke="#1e293b" stroke-width="1"/><rect class="uml-node uml-deployment-shape" data-uml-kind="node" x="40" y="242" width="200" height="80" fill="#f0f4f8" stroke="#1e293b" stroke-width="1.5"/><text x="140" y="288" text-anchor="middle" font-family="monospace" font-size="13" font-weight="600" fill="#0f172a">Web Server 2</text><text x="140" y="256" text-anchor="middle" font-family="monospace" font-size="10" fill="#0f172a">node</text><desc data-uml-id="Primary DB">Primary DB</desc><path class="uml-node uml-deployment-shape" data-uml-kind="database" d="M280,252 C280,242 480,242 480,252 L480,312 C480,322 280,322 280,312 Z" fill="#f0f4f8" stroke="#1e293b" stroke-width="1.5"/><ellipse cx="380" cy="252" rx="100" ry="10" fill="#f0f4f8" stroke="#1e293b" stroke-width="1.5"/><text x="380" y="288" text-anchor="middle" font-family="monospace" font-size="13" font-weight="600" fill="#0f172a">Primary DB</text><text x="380" y="256" text-anchor="middle" font-family="monospace" font-size="10" fill="#0f172a">database</text><desc data-uml-id="Replica DB">Replica DB</desc><path class="uml-node uml-deployment-shape" data-uml-kind="database" d="M520,252 C520,242 720,242 720,252 L720,312 C720,322 520,322 520,312 Z" fill="#f0f4f8" stroke="#1e293b" stroke-width="1.5"/><ellipse cx="620" cy="252" rx="100" ry="10" fill="#f0f4f8" stroke="#1e293b" stroke-width="1.5"/><text x="620" y="288" text-anchor="middle" font-family="monospace" font-size="13" font-weight="600" fill="#0f172a">Replica DB</text><text x="620" y="256" text-anchor="middle" font-family="monospace" font-size="10" fill="#0f172a">database</text><desc data-uml-id="Cache">Cache</desc><path class="uml-node uml-deployment-shape" data-uml-kind="artifact" d="M40,362 H222 L240 380 V442 H40 Z" fill="#f0f4f8" stroke="#1e293b" stroke-width="1.5"/><polygon points="222,362 222,380 240,380" fill="#f0f4f8" stroke="#1e293b" stroke-width="1"/><text x="140" y="408" text-anchor="middle" font-family="monospace" font-size="13" font-weight="600" fill="#0f172a">Cache</text><text x="140" y="376" text-anchor="middle" font-family="monospace" font-size="10" fill="#0f172a">artifact</text><line class="uml-relation" data-uml-from="CDN" data-uml-to="LB" data-uml-arrow="--&gt;" x1="240" y1="162" x2="280" y2="162" stroke="#1e293b" stroke-width="2" marker-end="url(#arrow-open)" /><line class="uml-relation" data-uml-from="LB" data-uml-to="WS1" data-uml-arrow="--&gt;" x1="480" y1="162" x2="520" y2="162" stroke="#1e293b" stroke-width="2" marker-end="url(#arrow-open)" /><line class="uml-relation" data-uml-from="LB" data-uml-to="WS2" data-uml-arrow="--&gt;" x1="300" y1="202" x2="220" y2="242" stroke="#1e293b" stroke-width="2" marker-end="url(#arrow-open)" /><line class="uml-relation" data-uml-from="WS1" data-uml-to="PDB" data-uml-arrow="--&gt;" x1="540" y1="202" x2="460" y2="242" stroke="#1e293b" stroke-width="2" marker-end="url(#arrow-open)" /><line class="uml-relation" data-uml-from="WS2" data-uml-to="PDB" data-uml-arrow="--&gt;" x1="240" y1="282" x2="280" y2="282" stroke="#1e293b" stroke-width="2" marker-end="url(#arrow-open)" /><line class="uml-relation" data-uml-from="WS1" data-uml-to="Cache" data-uml-arrow="--&gt;" x1="540" y1="202" x2="220" y2="362" stroke="#1e293b" stroke-width="2" marker-end="url(#arrow-open)" /><line class="uml-relation" data-uml-from="WS2" data-uml-to="Cache" data-uml-arrow="--&gt;" x1="140" y1="322" x2="140" y2="362" stroke="#1e293b" stroke-width="2" marker-end="url(#arrow-open)" /><line class="uml-relation" data-uml-from="PDB" data-uml-to="RDB" data-uml-arrow="--&gt;" x1="480" y1="282" x2="520" y2="282" stroke="#1e293b" stroke-width="2" marker-end="url(#arrow-open)" /></svg>