<svg xmlns="http://www.w3.org/2000/svg" width="760" height="502" viewBox="0 0 760 502"><rect width="100%" height="100%" fill="white"/><text x="40" y="28" font-family="monospace" font-size="18" font-weight="600">Production Deployment</text><text x="40" y="52" font-family="monospace" font-size="12" fill="#475569">deployment diagram</text><rect x="46" y="128" width="200" height="80" fill="#eef2ff" stroke="#3730a3" stroke-width="1"/><rect x="40" y="122" width="200" height="80" fill="#ffffff" stroke="#3730a3" stroke-width="1.5"/><text x="140" y="168" text-anchor="middle" font-family="monospace" font-size="13" font-weight="600">CDN</text><text x="140" y="136" text-anchor="middle" font-family="monospace" font-size="10" fill="#475569">node</text><rect x="286" y="128" width="200" height="80" fill="#eef2ff" stroke="#3730a3" stroke-width="1"/><rect x="280" y="122" width="200" height="80" fill="#ffffff" stroke="#3730a3" stroke-width="1.5"/><text x="380" y="168" text-anchor="middle" font-family="monospace" font-size="13" font-weight="600">Load Balancer</text><text x="380" y="136" text-anchor="middle" font-family="monospace" font-size="10" fill="#475569">node</text><rect x="526" y="128" width="200" height="80" fill="#eef2ff" stroke="#3730a3" stroke-width="1"/><rect x="520" y="122" width="200" height="80" fill="#ffffff" stroke="#3730a3" stroke-width="1.5"/><text x="620" y="168" text-anchor="middle" font-family="monospace" font-size="13" font-weight="600">Web Server 1</text><text x="620" y="136" text-anchor="middle" font-family="monospace" font-size="10" fill="#475569">node</text><rect x="46" y="248" width="200" height="80" fill="#eef2ff" stroke="#3730a3" stroke-width="1"/><rect x="40" y="242" width="200" height="80" fill="#ffffff" stroke="#3730a3" stroke-width="1.5"/><text x="140" y="288" text-anchor="middle" font-family="monospace" font-size="13" font-weight="600">Web Server 2</text><text x="140" y="256" text-anchor="middle" font-family="monospace" font-size="10" fill="#475569">node</text><ellipse cx="380" cy="252" rx="94" ry="8" fill="#ecfeff" stroke="#0e7490" stroke-width="1.5"/><rect x="286" y="252" width="188" height="60" fill="#ecfeff" stroke="#0e7490" stroke-width="1.5"/><ellipse cx="380" cy="312" rx="94" ry="8" fill="#ecfeff" stroke="#0e7490" stroke-width="1.5"/><text x="380" y="288" text-anchor="middle" font-family="monospace" font-size="13" font-weight="600">Primary DB</text><text x="380" y="256" text-anchor="middle" font-family="monospace" font-size="10" fill="#475569">database</text><ellipse cx="620" cy="252" rx="94" ry="8" fill="#ecfeff" stroke="#0e7490" stroke-width="1.5"/><rect x="526" y="252" width="188" height="60" fill="#ecfeff" stroke="#0e7490" stroke-width="1.5"/><ellipse cx="620" cy="312" rx="94" ry="8" fill="#ecfeff" stroke="#0e7490" stroke-width="1.5"/><text x="620" y="288" text-anchor="middle" font-family="monospace" font-size="13" font-weight="600">Replica DB</text><text x="620" y="256" text-anchor="middle" font-family="monospace" font-size="10" fill="#475569">database</text><polygon points="40,362 222,362 240,380 240,442 40,442" fill="#fff7ed" stroke="#9a3412" stroke-width="1.5"/><text x="140" y="408" text-anchor="middle" font-family="monospace" font-size="13" font-weight="600">Cache</text><text x="140" y="376" text-anchor="middle" font-family="monospace" font-size="10" fill="#475569">artifact</text></svg>