<svg xmlns="http://www.w3.org/2000/svg" width="740" height="1388" viewBox="0 0 740 1388"><rect width="100%" height="100%" fill="#f0f4f8"/><defs><marker id="arrow-open" viewBox="0 0 10 10" refX="9" refY="5" markerWidth="10" markerHeight="10" markerUnits="userSpaceOnUse" orient="auto-start-reverse"><path d="M0,0 L10,5 L0,10" fill="none" stroke="#1e293b" stroke-width="1.5"/></marker><marker id="arrow-triangle" viewBox="0 0 12 12" refX="11" refY="6" markerWidth="12" markerHeight="12" markerUnits="userSpaceOnUse" orient="auto-start-reverse"><polygon points="0,0 12,6 0,12" fill="#ffffff" stroke="#1e293b" stroke-width="1.5" fill-rule="nonzero"/></marker><marker id="arrow-diamond-filled" viewBox="0 0 14 10" refX="13" refY="5" markerWidth="14" markerHeight="10" markerUnits="userSpaceOnUse" orient="auto-start-reverse"><path d="M0,5 L7,0 L14,5 L7,10 z" fill="#1e293b" stroke="#1e293b" stroke-width="1"/></marker><marker id="arrow-diamond-open" viewBox="0 0 14 10" refX="13" refY="5" markerWidth="14" markerHeight="10" markerUnits="userSpaceOnUse" orient="auto-start-reverse"><path d="M0,5 L7,0 L14,5 L7,10 z" fill="#ffffff" stroke="#1e293b" stroke-width="1"/></marker></defs><text x="40" y="40" font-family="monospace" font-size="18" font-weight="600">Production Deployment</text><desc data-uml-id="CDN">CDN</desc><polygon points="250,130 262,118 462,118 450,130" fill="#d4dff7" stroke="#1e293b" stroke-width="1"/><polygon points="450,130 462,118 462,198 450,210" fill="#b8c8ef" stroke="#1e293b" stroke-width="1"/><rect class="uml-node uml-deployment-shape" data-uml-kind="node" x="250" y="130" width="200" height="80" fill="#f0f4f8" stroke="#1e293b" stroke-width="1.5"/><text x="350" y="176" text-anchor="middle" font-family="monospace" font-size="13" font-weight="600" fill="#0f172a">CDN</text><text x="350" y="144" text-anchor="middle" font-family="monospace" font-size="10" fill="#0f172a">node</text><desc data-uml-id="Load Balancer">Load Balancer</desc><polygon points="250,382 262,370 462,370 450,382" fill="#d4dff7" stroke="#1e293b" stroke-width="1"/><polygon points="450,382 462,370 462,450 450,462" fill="#b8c8ef" stroke="#1e293b" stroke-width="1"/><rect class="uml-node uml-deployment-shape" data-uml-kind="node" x="250" y="382" width="200" height="80" fill="#f0f4f8" stroke="#1e293b" stroke-width="1.5"/><text x="350" y="428" text-anchor="middle" font-family="monospace" font-size="13" font-weight="600" fill="#0f172a">Load Balancer</text><text x="350" y="396" text-anchor="middle" font-family="monospace" font-size="10" fill="#0f172a">node</text><desc data-uml-id="Web Server 1">Web Server 1</desc><polygon points="130,634 142,622 342,622 330,634" fill="#d4dff7" stroke="#1e293b" stroke-width="1"/><polygon points="330,634 342,622 342,702 330,714" fill="#b8c8ef" stroke="#1e293b" stroke-width="1"/><rect class="uml-node uml-deployment-shape" data-uml-kind="node" x="130" y="634" width="200" height="80" fill="#f0f4f8" stroke="#1e293b" stroke-width="1.5"/><text x="230" y="680" text-anchor="middle" font-family="monospace" font-size="13" font-weight="600" fill="#0f172a">Web Server 1</text><text x="230" y="648" text-anchor="middle" font-family="monospace" font-size="10" fill="#0f172a">node</text><desc data-uml-id="Web Server 2">Web Server 2</desc><polygon points="370,634 382,622 582,622 570,634" fill="#d4dff7" stroke="#1e293b" stroke-width="1"/><polygon points="570,634 582,622 582,702 570,714" fill="#b8c8ef" stroke="#1e293b" stroke-width="1"/><rect class="uml-node uml-deployment-shape" data-uml-kind="node" x="370" y="634" width="200" height="80" fill="#f0f4f8" stroke="#1e293b" stroke-width="1.5"/><text x="470" y="680" text-anchor="middle" font-family="monospace" font-size="13" font-weight="600" fill="#0f172a">Web Server 2</text><text x="470" y="648" text-anchor="middle" font-family="monospace" font-size="10" fill="#0f172a">node</text><desc data-uml-id="Primary DB">Primary DB</desc><path class="uml-node uml-deployment-shape" data-uml-kind="database" d="M130,896 C130,886 330,886 330,896 L330,956 C330,966 130,966 130,956 Z" fill="#f0f4f8" stroke="#1e293b" stroke-width="1.5"/><ellipse cx="230" cy="896" rx="100" ry="10" fill="#f0f4f8" stroke="#1e293b" stroke-width="1.5"/><text x="230" y="932" text-anchor="middle" font-family="monospace" font-size="13" font-weight="600" fill="#0f172a">Primary DB</text><text x="230" y="900" text-anchor="middle" font-family="monospace" font-size="10" fill="#0f172a">database</text><desc data-uml-id="Replica DB">Replica DB</desc><path class="uml-node uml-deployment-shape" data-uml-kind="database" d="M250,1148 C250,1138 450,1138 450,1148 L450,1208 C450,1218 250,1218 250,1208 Z" fill="#f0f4f8" stroke="#1e293b" stroke-width="1.5"/><ellipse cx="350" cy="1148" rx="100" ry="10" fill="#f0f4f8" stroke="#1e293b" stroke-width="1.5"/><text x="350" y="1184" text-anchor="middle" font-family="monospace" font-size="13" font-weight="600" fill="#0f172a">Replica DB</text><text x="350" y="1152" text-anchor="middle" font-family="monospace" font-size="10" fill="#0f172a">database</text><desc data-uml-id="Cache">Cache</desc><path class="uml-node uml-deployment-shape" data-uml-kind="artifact" d="M370,886 H552 L570 904 V966 H370 Z" fill="#f0f4f8" stroke="#1e293b" stroke-width="1.5"/><text x="470" y="932" text-anchor="middle" font-family="monospace" font-size="13" font-weight="600" fill="#0f172a">Cache</text><text x="470" y="900" text-anchor="middle" font-family="monospace" font-size="10" fill="#0f172a">artifact</text><polyline class="uml-relation" data-uml-from="CDN" data-uml-to="LB" data-uml-arrow="--&gt;" points="350,210 350,296 350,382" fill="none" stroke="#1e293b" stroke-width="2" marker-end="url(#arrow-open)" /><polyline class="uml-relation" data-uml-from="LB" data-uml-to="WS1" data-uml-arrow="--&gt;" points="350,462 350,544 230,544 230,634" fill="none" stroke="#1e293b" stroke-width="2" marker-end="url(#arrow-open)" /><polyline class="uml-relation" data-uml-from="LB" data-uml-to="WS2" data-uml-arrow="--&gt;" points="350,462 350,552 470,552 470,634" fill="none" stroke="#1e293b" stroke-width="2" marker-end="url(#arrow-open)" /><polyline class="uml-relation" data-uml-from="WS1" data-uml-to="PDB" data-uml-arrow="--&gt;" points="230,714 230,788 230,886" fill="none" stroke="#1e293b" stroke-width="2" marker-end="url(#arrow-open)" /><polyline class="uml-relation" data-uml-from="WS2" data-uml-to="PDB" data-uml-arrow="--&gt;" points="470,714 470,804 230,804 230,886" fill="none" stroke="#1e293b" stroke-width="2" marker-end="url(#arrow-open)" /><polyline class="uml-relation" data-uml-from="WS1" data-uml-to="Cache" data-uml-arrow="--&gt;" points="230,714 230,796 470,796 470,886" fill="none" stroke="#1e293b" stroke-width="2" marker-end="url(#arrow-open)" /><polyline class="uml-relation" data-uml-from="WS2" data-uml-to="Cache" data-uml-arrow="--&gt;" points="470,714 470,812 470,886" fill="none" stroke="#1e293b" stroke-width="2" marker-end="url(#arrow-open)" /><polyline class="uml-relation" data-uml-from="PDB" data-uml-to="RDB" data-uml-arrow="--&gt;" points="230,966 230,1052 350,1052 350,1138" fill="none" stroke="#1e293b" stroke-width="2" marker-end="url(#arrow-open)" /></svg>