<svg xmlns="http://www.w3.org/2000/svg" width="1795" height="1752" viewBox="0 0 1795 1752"><rect width="100%" height="100%" fill="#f0f4f8"/><defs><marker id="arrow-open" viewBox="0 0 10 10" refX="9" refY="5" markerWidth="10" markerHeight="10" markerUnits="userSpaceOnUse" orient="auto-start-reverse"><path d="M0,0 L10,5 L0,10" fill="none" stroke="#1e293b" stroke-width="1.5"/></marker><marker id="arrow-triangle" viewBox="0 0 12 12" refX="11" refY="6" markerWidth="12" markerHeight="12" markerUnits="userSpaceOnUse" orient="auto-start-reverse"><polygon points="0,0 12,6 0,12" fill="#ffffff" stroke="#1e293b" stroke-width="1.5" fill-rule="nonzero"/></marker><marker id="arrow-diamond-filled" viewBox="0 0 14 10" refX="13" refY="5" markerWidth="14" markerHeight="10" markerUnits="userSpaceOnUse" orient="auto-start-reverse"><path d="M0,5 L7,0 L14,5 L7,10 z" fill="#1e293b" stroke="#1e293b" stroke-width="1"/></marker><marker id="arrow-diamond-open" viewBox="0 0 14 10" refX="13" refY="5" markerWidth="14" markerHeight="10" markerUnits="userSpaceOnUse" orient="auto-start-reverse"><path d="M0,5 L7,0 L14,5 L7,10 z" fill="#ffffff" stroke="#1e293b" stroke-width="1"/></marker><marker id="arrow-double-open" viewBox="0 0 16 12" refX="15" refY="6" markerWidth="16" markerHeight="12" markerUnits="userSpaceOnUse" orient="auto-start-reverse"><path d="M0,1 L8,6 L0,11 M7,1 L15,6 L7,11" fill="none" stroke="#1e293b" stroke-width="1.5" stroke-linejoin="round"/></marker><marker id="arrow-circle-open" viewBox="0 0 12 12" refX="11" refY="6" markerWidth="12" markerHeight="12" markerUnits="userSpaceOnUse" orient="auto-start-reverse"><circle cx="6" cy="6" r="4" fill="#ffffff" stroke="#1e293b" stroke-width="1.5"/></marker><marker id="arrow-circle-filled" viewBox="0 0 12 12" refX="11" refY="6" markerWidth="12" markerHeight="12" markerUnits="userSpaceOnUse" orient="auto-start-reverse"><circle cx="6" cy="6" r="4" fill="#1e293b" stroke="#1e293b" stroke-width="1.5"/></marker><marker id="arrow-triangle-filled" viewBox="0 0 12 12" refX="11" refY="6" markerWidth="12" markerHeight="12" markerUnits="userSpaceOnUse" orient="auto-start-reverse"><polygon points="0,0 12,6 0,12" fill="#1e293b" stroke="#1e293b" stroke-width="1.5"/></marker><marker id="arrow-box-filled" viewBox="0 0 12 12" refX="11" refY="6" markerWidth="12" markerHeight="12" markerUnits="userSpaceOnUse" orient="auto-start-reverse"><rect x="2" y="2" width="8" height="8" fill="#1e293b" stroke="#1e293b" stroke-width="1.5"/></marker><marker id="arrow-plus" viewBox="0 0 12 12" refX="11" refY="6" markerWidth="12" markerHeight="12" markerUnits="userSpaceOnUse" orient="auto-start-reverse"><path d="M6,1 L6,11 M1,6 L11,6" fill="none" stroke="#1e293b" stroke-width="1.8" stroke-linecap="round"/></marker><marker id="arrow-slash" viewBox="0 0 12 12" refX="10" refY="6" markerWidth="12" markerHeight="12" markerUnits="userSpaceOnUse" orient="auto-start-reverse"><path d="M3,2 L9,10" fill="none" stroke="#1e293b" stroke-width="1.8" stroke-linecap="round"/></marker><marker id="arrow-cross" viewBox="0 0 12 12" refX="11" refY="6" markerWidth="12" markerHeight="12" markerUnits="userSpaceOnUse" orient="auto-start-reverse"><path d="M2,2 L10,10 M10,2 L2,10" fill="none" stroke="#1e293b" stroke-width="1.8" stroke-linecap="round"/></marker><marker id="arrow-bracket-open" viewBox="0 0 12 14" refX="11" refY="7" markerWidth="12" markerHeight="14" markerUnits="userSpaceOnUse" orient="auto-start-reverse"><path d="M10,1 L4,1 L4,13 L10,13" fill="none" stroke="#1e293b" stroke-width="1.8" stroke-linecap="round" stroke-linejoin="round"/></marker></defs><marker id="arrow-ie-one" viewBox="0 0 24 16" refX="22" refY="8" markerWidth="24" markerHeight="16" markerUnits="userSpaceOnUse" orient="auto-start-reverse"><path d="M16,2 L16,14" fill="none" stroke="#1e293b" stroke-width="1.8" stroke-linecap="round"/></marker><marker id="arrow-ie-zero-one" viewBox="0 0 30 16" refX="28" refY="8" markerWidth="30" markerHeight="16" markerUnits="userSpaceOnUse" orient="auto-start-reverse"><circle cx="10" cy="8" r="4" fill="#ffffff" stroke="#1e293b" stroke-width="1.5"/><path d="M20,2 L20,14" fill="none" stroke="#1e293b" stroke-width="1.8" stroke-linecap="round"/></marker><marker id="arrow-ie-zero-many" viewBox="0 0 34 18" refX="32" refY="9" markerWidth="34" markerHeight="18" markerUnits="userSpaceOnUse" orient="auto-start-reverse"><circle cx="8" cy="9" r="4" fill="#ffffff" stroke="#1e293b" stroke-width="1.5"/><path d="M18,9 L31,2 M18,9 L31,9 M18,9 L31,16" fill="none" stroke="#1e293b" stroke-width="1.7" stroke-linecap="round"/></marker><marker id="arrow-ie-one-many" viewBox="0 0 34 18" refX="32" refY="9" markerWidth="34" markerHeight="18" markerUnits="userSpaceOnUse" orient="auto-start-reverse"><path d="M8,2 L8,16 M18,9 L31,2 M18,9 L31,9 M18,9 L31,16" fill="none" stroke="#1e293b" stroke-width="1.7" stroke-linecap="round"/></marker><text x="8" y="8" font-family="monospace" font-size="18" font-weight="600">Three-tier: cloud front-end + hybrid mid-tier + on-prem data</text><rect class="uml-group-frame" data-uml-group="Internet" x="574" y="46" width="224" height="388" rx="8" ry="8" fill="#f8faff" stroke="#1e293b" stroke-width="1.5"/><rect x="574" y="46" width="224" height="40" rx="8" ry="8" fill="#1e293b" stroke="none"/><rect x="574" y="78" width="224" height="8" fill="#1e293b" stroke="none"/><text x="582" y="78" font-family="monospace" font-size="11" font-weight="600" fill="#ffffff">node Internet</text><line x1="574" y1="86" x2="798" y2="86" stroke="#1e293b" stroke-width="1"/><rect class="uml-group-frame" data-uml-group="Cloud Region (us-east-1)" x="46" y="534" width="1686" height="916" rx="8" ry="8" fill="#f8faff" stroke="#1e293b" stroke-width="1.5"/><rect x="46" y="534" width="1686" height="40" rx="8" ry="8" fill="#1e293b" stroke="none"/><rect x="46" y="566" width="1686" height="8" fill="#1e293b" stroke="none"/><text x="54" y="566" font-family="monospace" font-size="11" font-weight="600" fill="#ffffff">node Cloud Region (us-east-1)</text><line x1="46" y1="574" x2="1732" y2="574" stroke="#1e293b" stroke-width="1"/><rect class="uml-group-frame" data-uml-group="Corporate Data Center" x="676" y="1022" width="752" height="672" rx="8" ry="8" fill="#f8faff" stroke="#1e293b" stroke-width="1.5"/><rect x="676" y="1022" width="752" height="40" rx="8" ry="8" fill="#1e293b" stroke="none"/><rect x="676" y="1054" width="752" height="8" fill="#1e293b" stroke="none"/><text x="684" y="1054" font-family="monospace" font-size="11" font-weight="600" fill="#ffffff">node Corporate Data Center</text><line x1="676" y1="1062" x2="1428" y2="1062" stroke="#1e293b" stroke-width="1"/><rect class="uml-group-frame" data-uml-group="Cloud Region (us-east-1)::App Cluster" x="332" y="800" width="708" height="120" rx="6" ry="6" fill="none" stroke="#1e293b" stroke-width="1.5" stroke-dasharray="4 3"/><text x="338" y="813" font-family="monospace" font-size="10" font-weight="600" fill="#1e293b">node App Cluster</text><rect class="uml-group-frame" data-uml-group="Cloud Region (us-east-1)::Cache Cluster" x="88" y="1044" width="586" height="364" rx="6" ry="6" fill="none" stroke="#1e293b" stroke-width="1.5" stroke-dasharray="4 3"/><text x="94" y="1057" font-family="monospace" font-size="10" font-weight="600" fill="#1e293b">node Cache Cluster</text><rect class="uml-group-frame" data-uml-group="Cloud Region (us-east-1)::Message Queue" x="1470" y="1044" width="220" height="120" rx="6" ry="6" fill="none" stroke="#1e293b" stroke-width="1.5" stroke-dasharray="4 3"/><text x="1476" y="1057" font-family="monospace" font-size="10" font-weight="600" fill="#1e293b">node Message Queue</text><rect class="uml-group-frame" data-uml-group="Corporate Data Center::Database Cluster" x="718" y="1288" width="342" height="364" rx="6" ry="6" fill="none" stroke="#1e293b" stroke-width="1.5" stroke-dasharray="4 3"/><text x="724" y="1301" font-family="monospace" font-size="10" font-weight="600" fill="#1e293b">node Database Cluster</text><desc data-uml-id="Internet::CDN">Internet::CDN</desc><polygon points="586,98 598,86 798,86 786,98" fill="#d4dff7" stroke="#1e293b" stroke-width="1"/><polygon points="786,98 798,86 798,166 786,178" fill="#b8c8ef" stroke="#1e293b" stroke-width="1"/><rect class="uml-node uml-deployment-shape" data-uml-kind="node" x="586" y="98" width="200" height="80" fill="#f0f4f8" stroke="#1e293b" stroke-width="1.5"/><text x="686" y="144" text-anchor="middle" font-family="monospace" font-size="13" font-weight="600" fill="#0f172a">CDN</text><desc data-uml-id="Internet::WAF">Internet::WAF</desc><polygon points="586,342 598,330 798,330 786,342" fill="#d4dff7" stroke="#1e293b" stroke-width="1"/><polygon points="786,342 798,330 798,410 786,422" fill="#b8c8ef" stroke="#1e293b" stroke-width="1"/><rect class="uml-node uml-deployment-shape" data-uml-kind="node" x="586" y="342" width="200" height="80" fill="#f0f4f8" stroke="#1e293b" stroke-width="1.5"/><text x="686" y="388" text-anchor="middle" font-family="monospace" font-size="13" font-weight="600" fill="#0f172a">WAF / DDoS Protection</text><desc data-uml-id="Cloud Region (us-east-1)::LB">Cloud Region (us-east-1)::LB</desc><polygon points="586,586 598,574 798,574 786,586" fill="#d4dff7" stroke="#1e293b" stroke-width="1"/><polygon points="786,586 798,574 798,654 786,666" fill="#b8c8ef" stroke="#1e293b" stroke-width="1"/><rect class="uml-node uml-deployment-shape" data-uml-kind="node" x="586" y="586" width="200" height="80" fill="#f0f4f8" stroke="#1e293b" stroke-width="1.5"/><text x="686" y="632" text-anchor="middle" font-family="monospace" font-size="13" font-weight="600" fill="#0f172a">Load Balancer</text><desc data-uml-id="Cloud Region (us-east-1)::App Cluster::WS1">Cloud Region (us-east-1)::App Cluster::WS1</desc><polygon points="830,830 842,818 1042,818 1030,830" fill="#d4dff7" stroke="#1e293b" stroke-width="1"/><polygon points="1030,830 1042,818 1042,898 1030,910" fill="#b8c8ef" stroke="#1e293b" stroke-width="1"/><rect class="uml-node uml-deployment-shape" data-uml-kind="node" x="830" y="830" width="200" height="80" fill="#f0f4f8" stroke="#1e293b" stroke-width="1.5"/><text x="930" y="876" text-anchor="middle" font-family="monospace" font-size="13" font-weight="600" fill="#0f172a">Web Server 1</text><desc data-uml-id="Cloud Region (us-east-1)::App Cluster::WS2">Cloud Region (us-east-1)::App Cluster::WS2</desc><polygon points="342,830 354,818 554,818 542,830" fill="#d4dff7" stroke="#1e293b" stroke-width="1"/><polygon points="542,830 554,818 554,898 542,910" fill="#b8c8ef" stroke="#1e293b" stroke-width="1"/><rect class="uml-node uml-deployment-shape" data-uml-kind="node" x="342" y="830" width="200" height="80" fill="#f0f4f8" stroke="#1e293b" stroke-width="1.5"/><text x="442" y="876" text-anchor="middle" font-family="monospace" font-size="13" font-weight="600" fill="#0f172a">Web Server 2</text><desc data-uml-id="Cloud Region (us-east-1)::App Cluster::WS3">Cloud Region (us-east-1)::App Cluster::WS3</desc><polygon points="586,830 598,818 798,818 786,830" fill="#d4dff7" stroke="#1e293b" stroke-width="1"/><polygon points="786,830 798,818 798,898 786,910" fill="#b8c8ef" stroke="#1e293b" stroke-width="1"/><rect class="uml-node uml-deployment-shape" data-uml-kind="node" x="586" y="830" width="200" height="80" fill="#f0f4f8" stroke="#1e293b" stroke-width="1.5"/><text x="686" y="876" text-anchor="middle" font-family="monospace" font-size="13" font-weight="600" fill="#0f172a">Web Server 3</text><desc data-uml-id="Cloud Region (us-east-1)::Cache Cluster::RP">Cloud Region (us-east-1)::Cache Cluster::RP</desc><polygon points="98,1074 110,1062 310,1062 298,1074" fill="#d4dff7" stroke="#1e293b" stroke-width="1"/><polygon points="298,1074 310,1062 310,1142 298,1154" fill="#b8c8ef" stroke="#1e293b" stroke-width="1"/><rect class="uml-node uml-deployment-shape" data-uml-kind="node" x="98" y="1074" width="200" height="80" fill="#f0f4f8" stroke="#1e293b" stroke-width="1.5"/><text x="198" y="1120" text-anchor="middle" font-family="monospace" font-size="13" font-weight="600" fill="#0f172a">Redis Primary</text><desc data-uml-id="Cloud Region (us-east-1)::Cache Cluster::RR">Cloud Region (us-east-1)::Cache Cluster::RR</desc><polygon points="464,1318 476,1306 676,1306 664,1318" fill="#d4dff7" stroke="#1e293b" stroke-width="1"/><polygon points="664,1318 676,1306 676,1386 664,1398" fill="#b8c8ef" stroke="#1e293b" stroke-width="1"/><rect class="uml-node uml-deployment-shape" data-uml-kind="node" x="464" y="1318" width="200" height="80" fill="#f0f4f8" stroke="#1e293b" stroke-width="1.5"/><text x="564" y="1364" text-anchor="middle" font-family="monospace" font-size="13" font-weight="600" fill="#0f172a">Redis Replica</text><desc data-uml-id="Cloud Region (us-east-1)::Message Queue::SQS">Cloud Region (us-east-1)::Message Queue::SQS</desc><polygon points="1480,1074 1492,1062 1692,1062 1680,1074" fill="#d4dff7" stroke="#1e293b" stroke-width="1"/><polygon points="1680,1074 1692,1062 1692,1142 1680,1154" fill="#b8c8ef" stroke="#1e293b" stroke-width="1"/><rect class="uml-node uml-deployment-shape" data-uml-kind="node" x="1480" y="1074" width="200" height="80" fill="#f0f4f8" stroke="#1e293b" stroke-width="1.5"/><text x="1580" y="1120" text-anchor="middle" font-family="monospace" font-size="13" font-weight="600" fill="#0f172a">SQS</text><desc data-uml-id="Corporate Data Center::VPN">Corporate Data Center::VPN</desc><polygon points="728,1074 740,1062 940,1062 928,1074" fill="#d4dff7" stroke="#1e293b" stroke-width="1"/><polygon points="928,1074 940,1062 940,1142 928,1154" fill="#b8c8ef" stroke="#1e293b" stroke-width="1"/><rect class="uml-node uml-deployment-shape" data-uml-kind="node" x="728" y="1074" width="200" height="80" fill="#f0f4f8" stroke="#1e293b" stroke-width="1.5"/><text x="828" y="1120" text-anchor="middle" font-family="monospace" font-size="13" font-weight="600" fill="#0f172a">VPN Gateway</text><desc data-uml-id="Corporate Data Center::Database Cluster::PG1">Corporate Data Center::Database Cluster::PG1</desc><polygon points="850,1318 862,1306 1062,1306 1050,1318" fill="#d4dff7" stroke="#1e293b" stroke-width="1"/><polygon points="1050,1318 1062,1306 1062,1386 1050,1398" fill="#b8c8ef" stroke="#1e293b" stroke-width="1"/><rect class="uml-node uml-deployment-shape" data-uml-kind="node" x="850" y="1318" width="200" height="80" fill="#f0f4f8" stroke="#1e293b" stroke-width="1.5"/><text x="950" y="1364" text-anchor="middle" font-family="monospace" font-size="13" font-weight="600" fill="#0f172a">PostgreSQL Primary</text><desc data-uml-id="Corporate Data Center::Database Cluster::PG2">Corporate Data Center::Database Cluster::PG2</desc><polygon points="728,1562 740,1550 940,1550 928,1562" fill="#d4dff7" stroke="#1e293b" stroke-width="1"/><polygon points="928,1562 940,1550 940,1630 928,1642" fill="#b8c8ef" stroke="#1e293b" stroke-width="1"/><rect class="uml-node uml-deployment-shape" data-uml-kind="node" x="728" y="1562" width="200" height="80" fill="#f0f4f8" stroke="#1e293b" stroke-width="1.5"/><text x="828" y="1608" text-anchor="middle" font-family="monospace" font-size="13" font-weight="600" fill="#0f172a">PostgreSQL Standby</text><desc data-uml-id="Corporate Data Center::FS">Corporate Data Center::FS</desc><polygon points="1216,1074 1228,1062 1428,1062 1416,1074" fill="#d4dff7" stroke="#1e293b" stroke-width="1"/><polygon points="1416,1074 1428,1062 1428,1142 1416,1154" fill="#b8c8ef" stroke="#1e293b" stroke-width="1"/><rect class="uml-node uml-deployment-shape" data-uml-kind="node" x="1216" y="1074" width="200" height="80" fill="#f0f4f8" stroke="#1e293b" stroke-width="1.5"/><text x="1316" y="1120" text-anchor="middle" font-family="monospace" font-size="13" font-weight="600" fill="#0f172a">File Server</text><desc data-uml-id="Corporate Data Center::AD">Corporate Data Center::AD</desc><polygon points="972,1074 984,1062 1184,1062 1172,1074" fill="#d4dff7" stroke="#1e293b" stroke-width="1"/><polygon points="1172,1074 1184,1062 1184,1142 1172,1154" fill="#b8c8ef" stroke="#1e293b" stroke-width="1"/><rect class="uml-node uml-deployment-shape" data-uml-kind="node" x="972" y="1074" width="200" height="80" fill="#f0f4f8" stroke="#1e293b" stroke-width="1.5"/><text x="1072" y="1120" text-anchor="middle" font-family="monospace" font-size="13" font-weight="600" fill="#0f172a">Active Directory</text><polyline class="uml-relation" data-uml-from="CDN" data-uml-to="WAF" data-uml-arrow="--&gt;" points="686,178 686,260 686,342" fill="none" stroke="#1e293b" stroke-width="2" marker-end="url(#arrow-open)" /><polyline class="uml-relation" data-uml-from="WAF" data-uml-to="LB" data-uml-arrow="--&gt;" points="686,422 686,504 686,586" fill="none" stroke="#1e293b" stroke-width="2" marker-end="url(#arrow-open)" /><polyline class="uml-relation" data-uml-from="LB" data-uml-to="WS1" data-uml-arrow="--&gt;" points="686,666 686,696 930,696 930,830" fill="none" stroke="#1e293b" stroke-width="2" marker-end="url(#arrow-open)" /><polyline class="uml-relation" data-uml-from="LB" data-uml-to="WS2" data-uml-arrow="--&gt;" points="686,666 686,748 442,748 442,830" fill="none" stroke="#1e293b" stroke-width="2" marker-end="url(#arrow-open)" /><polyline class="uml-relation" data-uml-from="LB" data-uml-to="WS3" data-uml-arrow="--&gt;" points="686,666 686,826 686,830" fill="none" stroke="#1e293b" stroke-width="2" marker-end="url(#arrow-open)" /><polyline class="uml-relation" data-uml-from="WS1" data-uml-to="RP" data-uml-arrow="--&gt;" points="930,910 930,1070 198,1070 198,1074" fill="none" stroke="#1e293b" stroke-width="2" marker-end="url(#arrow-open)" /><polyline class="uml-relation" data-uml-from="WS2" data-uml-to="RP" data-uml-arrow="--&gt;" points="442,910 442,927 198,927 198,1074" fill="none" stroke="#1e293b" stroke-width="2" marker-end="url(#arrow-open)" /><polyline class="uml-relation" data-uml-from="WS3" data-uml-to="RP" data-uml-arrow="--&gt;" points="686,910 686,953 198,953 198,1074" fill="none" stroke="#1e293b" stroke-width="2" marker-end="url(#arrow-open)" /><polyline class="uml-relation" data-uml-from="RP" data-uml-to="RR" data-uml-arrow="--&gt;" points="198,1154 198,1232 564,1232 564,1318" fill="none" stroke="#1e293b" stroke-width="2" marker-end="url(#arrow-open)" /><polyline class="uml-relation" data-uml-from="WS1" data-uml-to="SQS" data-uml-arrow="--&gt;" points="930,910 930,1070 1580,1070 1580,1074" fill="none" stroke="#1e293b" stroke-width="2" marker-end="url(#arrow-open)" /><polyline class="uml-relation" data-uml-from="WS1" data-uml-to="VPN" data-uml-arrow="--&gt;" points="930,910 930,979 828,979 828,1074" fill="none" stroke="#1e293b" stroke-width="2" marker-end="url(#arrow-open)" /><polyline class="uml-relation" data-uml-from="VPN" data-uml-to="PG1" data-uml-arrow="--&gt;" points="828,1154 828,1240 950,1240 950,1318" fill="none" stroke="#1e293b" stroke-width="2" marker-end="url(#arrow-open)" /><polyline class="uml-relation" data-uml-from="PG1" data-uml-to="PG2" data-uml-arrow="--&gt;" points="950,1398 950,1480 828,1480 828,1562" fill="none" stroke="#1e293b" stroke-width="2" marker-end="url(#arrow-open)" /><polyline class="uml-relation" data-uml-from="WS1" data-uml-to="AD" data-uml-arrow="--&gt;" points="930,910 930,1005 1072,1005 1072,1074" fill="none" stroke="#1e293b" stroke-width="2" marker-end="url(#arrow-open)" /><text class="uml-edge-label" data-uml-label-role="edge" x="564" y="1058" text-anchor="middle" font-family="monospace" font-size="11" fill="#1e293b">cache lookups</text><text class="uml-edge-label" data-uml-label-role="edge" x="381" y="1220" text-anchor="middle" font-family="monospace" font-size="11" fill="#1e293b">replication</text><text class="uml-edge-label" data-uml-label-role="edge" x="1255" y="1058" text-anchor="middle" font-family="monospace" font-size="11" fill="#1e293b">enqueue jobs</text><text class="uml-edge-label" data-uml-label-role="edge" x="879" y="967" text-anchor="middle" font-family="monospace" font-size="11" fill="#1e293b">data queries</text><text class="uml-edge-label" data-uml-label-role="edge" x="889" y="1228" text-anchor="middle" font-family="monospace" font-size="11" fill="#1e293b">read/write</text><text class="uml-edge-label" data-uml-label-role="edge" x="889" y="1468" text-anchor="middle" font-family="monospace" font-size="11" fill="#1e293b">replication</text><text class="uml-edge-label" data-uml-label-role="edge" x="1001" y="993" text-anchor="middle" font-family="monospace" font-size="11" fill="#1e293b">LDAP auth</text><text x="582" y="78" font-family="monospace" font-size="11" font-weight="600" fill="#ffffff">node Internet</text><text x="54" y="566" font-family="monospace" font-size="11" font-weight="600" fill="#ffffff">node Cloud Region (us-east-1)</text><text x="684" y="1054" font-family="monospace" font-size="11" font-weight="600" fill="#ffffff">node Corporate Data Center</text></svg>