<svg xmlns="http://www.w3.org/2000/svg" width="1402" height="1140" viewBox="0 0 1402 1140"><rect width="100%" height="100%" fill="#f0f4f8"/><defs><marker id="arrow-open" viewBox="0 0 10 10" refX="9" refY="5" markerWidth="10" markerHeight="10" markerUnits="userSpaceOnUse" orient="auto-start-reverse"><path d="M0,0 L10,5 L0,10" fill="none" stroke="#1e293b" stroke-width="1.5"/></marker><marker id="arrow-triangle" viewBox="0 0 12 12" refX="11" refY="6" markerWidth="12" markerHeight="12" markerUnits="userSpaceOnUse" orient="auto-start-reverse"><polygon points="0,0 12,6 0,12" fill="#ffffff" stroke="#1e293b" stroke-width="1.5" fill-rule="nonzero"/></marker><marker id="arrow-diamond-filled" viewBox="0 0 14 10" refX="13" refY="5" markerWidth="14" markerHeight="10" markerUnits="userSpaceOnUse" orient="auto-start-reverse"><path d="M0,5 L7,0 L14,5 L7,10 z" fill="#1e293b" stroke="#1e293b" stroke-width="1"/></marker><marker id="arrow-diamond-open" viewBox="0 0 14 10" refX="13" refY="5" markerWidth="14" markerHeight="10" markerUnits="userSpaceOnUse" orient="auto-start-reverse"><path d="M0,5 L7,0 L14,5 L7,10 z" fill="#ffffff" stroke="#1e293b" stroke-width="1"/></marker><marker id="arrow-double-open" viewBox="0 0 16 12" refX="15" refY="6" markerWidth="16" markerHeight="12" markerUnits="userSpaceOnUse" orient="auto-start-reverse"><path d="M0,1 L8,6 L0,11 M7,1 L15,6 L7,11" fill="none" stroke="#1e293b" stroke-width="1.5" stroke-linejoin="round"/></marker><marker id="arrow-circle-open" viewBox="0 0 12 12" refX="11" refY="6" markerWidth="12" markerHeight="12" markerUnits="userSpaceOnUse" orient="auto-start-reverse"><circle cx="6" cy="6" r="4" fill="#ffffff" stroke="#1e293b" stroke-width="1.5"/></marker><marker id="arrow-circle-filled" viewBox="0 0 12 12" refX="11" refY="6" markerWidth="12" markerHeight="12" markerUnits="userSpaceOnUse" orient="auto-start-reverse"><circle cx="6" cy="6" r="4" fill="#1e293b" stroke="#1e293b" stroke-width="1.5"/></marker><marker id="arrow-triangle-filled" viewBox="0 0 12 12" refX="11" refY="6" markerWidth="12" markerHeight="12" markerUnits="userSpaceOnUse" orient="auto-start-reverse"><polygon points="0,0 12,6 0,12" fill="#1e293b" stroke="#1e293b" stroke-width="1.5"/></marker><marker id="arrow-box-filled" viewBox="0 0 12 12" refX="11" refY="6" markerWidth="12" markerHeight="12" markerUnits="userSpaceOnUse" orient="auto-start-reverse"><rect x="2" y="2" width="8" height="8" fill="#1e293b" stroke="#1e293b" stroke-width="1.5"/></marker><marker id="arrow-plus" viewBox="0 0 12 12" refX="11" refY="6" markerWidth="12" markerHeight="12" markerUnits="userSpaceOnUse" orient="auto-start-reverse"><path d="M6,1 L6,11 M1,6 L11,6" fill="none" stroke="#1e293b" stroke-width="1.8" stroke-linecap="round"/></marker><marker id="arrow-slash" viewBox="0 0 12 12" refX="10" refY="6" markerWidth="12" markerHeight="12" markerUnits="userSpaceOnUse" orient="auto-start-reverse"><path d="M3,2 L9,10" fill="none" stroke="#1e293b" stroke-width="1.8" stroke-linecap="round"/></marker><marker id="arrow-cross" viewBox="0 0 12 12" refX="11" refY="6" markerWidth="12" markerHeight="12" markerUnits="userSpaceOnUse" orient="auto-start-reverse"><path d="M2,2 L10,10 M10,2 L2,10" fill="none" stroke="#1e293b" stroke-width="1.8" stroke-linecap="round"/></marker><marker id="arrow-bracket-open" viewBox="0 0 12 14" refX="11" refY="7" markerWidth="12" markerHeight="14" markerUnits="userSpaceOnUse" orient="auto-start-reverse"><path d="M10,1 L4,1 L4,13 L10,13" fill="none" stroke="#1e293b" stroke-width="1.8" stroke-linecap="round" stroke-linejoin="round"/></marker></defs><marker id="arrow-ie-one" viewBox="0 0 24 16" refX="22" refY="8" markerWidth="24" markerHeight="16" markerUnits="userSpaceOnUse" orient="auto-start-reverse"><path d="M16,2 L16,14" fill="none" stroke="#1e293b" stroke-width="1.8" stroke-linecap="round"/></marker><marker id="arrow-ie-zero-one" viewBox="0 0 30 16" refX="28" refY="8" markerWidth="30" markerHeight="16" markerUnits="userSpaceOnUse" orient="auto-start-reverse"><circle cx="10" cy="8" r="4" fill="#ffffff" stroke="#1e293b" stroke-width="1.5"/><path d="M20,2 L20,14" fill="none" stroke="#1e293b" stroke-width="1.8" stroke-linecap="round"/></marker><marker id="arrow-ie-zero-many" viewBox="0 0 34 18" refX="32" refY="9" markerWidth="34" markerHeight="18" markerUnits="userSpaceOnUse" orient="auto-start-reverse"><circle cx="8" cy="9" r="4" fill="#ffffff" stroke="#1e293b" stroke-width="1.5"/><path d="M18,9 L31,2 M18,9 L31,9 M18,9 L31,16" fill="none" stroke="#1e293b" stroke-width="1.7" stroke-linecap="round"/></marker><marker id="arrow-ie-one-many" viewBox="0 0 34 18" refX="32" refY="9" markerWidth="34" markerHeight="18" markerUnits="userSpaceOnUse" orient="auto-start-reverse"><path d="M8,2 L8,16 M18,9 L31,2 M18,9 L31,9 M18,9 L31,16" fill="none" stroke="#1e293b" stroke-width="1.7" stroke-linecap="round"/></marker><text x="8" y="8" font-family="monospace" font-size="18" font-weight="600">Three-tier: cloud front-end + hybrid mid-tier + on-prem data</text><rect class="uml-group-frame" data-uml-group="Internet" x="440" y="46" width="191" height="256" rx="8" ry="8" fill="#f8faff" stroke="#1e293b" stroke-width="1.5"/><rect x="440" y="46" width="191" height="40" rx="8" ry="8" fill="#1e293b" stroke="none"/><rect x="440" y="78" width="191" height="8" fill="#1e293b" stroke="none"/><text x="448" y="78" font-family="monospace" font-size="11" font-weight="600" fill="#ffffff">Internet</text><line x1="440" y1="86" x2="631" y2="86" stroke="#1e293b" stroke-width="1"/><rect class="uml-group-frame" data-uml-group="Cloud Region (us-east-1)" x="46" y="342" width="1293" height="592" rx="8" ry="8" fill="#f8faff" stroke="#1e293b" stroke-width="1.5"/><rect x="46" y="342" width="1293" height="40" rx="8" ry="8" fill="#1e293b" stroke="none"/><rect x="46" y="374" width="1293" height="8" fill="#1e293b" stroke="none"/><text x="54" y="374" font-family="monospace" font-size="11" font-weight="600" fill="#ffffff">Cloud Region (us-east-1)</text><line x1="46" y1="382" x2="1339" y2="382" stroke="#1e293b" stroke-width="1"/><rect class="uml-group-frame" data-uml-group="Corporate Data Center" x="523" y="638" width="572" height="444" rx="8" ry="8" fill="#f8faff" stroke="#1e293b" stroke-width="1.5"/><rect x="523" y="638" width="572" height="40" rx="8" ry="8" fill="#1e293b" stroke="none"/><rect x="523" y="670" width="572" height="8" fill="#1e293b" stroke="none"/><text x="531" y="670" font-family="monospace" font-size="11" font-weight="600" fill="#ffffff">Corporate Data Center</text><line x1="523" y1="678" x2="1095" y2="678" stroke="#1e293b" stroke-width="1"/><rect class="uml-group-frame" data-uml-group="Cloud Region (us-east-1)::App Cluster" x="272" y="512" width="528" height="84" rx="6" ry="6" fill="none" stroke="#1e293b" stroke-width="1.5" stroke-dasharray="4 3"/><text x="278" y="525" font-family="monospace" font-size="10" font-weight="600" fill="#1e293b">App Cluster</text><rect class="uml-group-frame" data-uml-group="Cloud Region (us-east-1)::Cache Cluster" x="88" y="660" width="433" height="232" rx="6" ry="6" fill="none" stroke="#1e293b" stroke-width="1.5" stroke-dasharray="4 3"/><text x="94" y="673" font-family="monospace" font-size="10" font-weight="600" fill="#1e293b">Cache Cluster</text><rect class="uml-group-frame" data-uml-group="Cloud Region (us-east-1)::Message Queue" x="1137" y="660" width="160" height="84" rx="6" ry="6" fill="none" stroke="#1e293b" stroke-width="1.5" stroke-dasharray="4 3"/><text x="1143" y="673" font-family="monospace" font-size="10" font-weight="600" fill="#1e293b">Message Queue</text><rect class="uml-group-frame" data-uml-group="Corporate Data Center::Database Cluster" x="565" y="808" width="257" height="232" rx="6" ry="6" fill="none" stroke="#1e293b" stroke-width="1.5" stroke-dasharray="4 3"/><text x="571" y="821" font-family="monospace" font-size="10" font-weight="600" fill="#1e293b">Database Cluster</text><desc data-uml-id="Internet::CDN">Internet::CDN</desc><polygon points="466,98 478,86 618,86 606,98" fill="#d4dff7" stroke="#1e293b" stroke-width="1"/><polygon points="606,98 618,86 618,130 606,142" fill="#b8c8ef" stroke="#1e293b" stroke-width="1"/><rect class="uml-node uml-deployment-shape" data-uml-kind="node" x="466" y="98" width="140" height="44" fill="#f0f4f8" stroke="#1e293b" stroke-width="1.5"/><text x="536" y="126" text-anchor="middle" font-family="monospace" font-size="13" font-weight="600" fill="#0f172a">CDN</text><desc data-uml-id="Internet::WAF">Internet::WAF</desc><polygon points="452,246 464,234 631,234 619,246" fill="#d4dff7" stroke="#1e293b" stroke-width="1"/><polygon points="619,246 631,234 631,278 619,290" fill="#b8c8ef" stroke="#1e293b" stroke-width="1"/><rect class="uml-node uml-deployment-shape" data-uml-kind="node" x="452" y="246" width="167" height="44" fill="#f0f4f8" stroke="#1e293b" stroke-width="1.5"/><text x="535" y="274" text-anchor="middle" font-family="monospace" font-size="13" font-weight="600" fill="#0f172a">WAF / DDoS Protection</text><desc data-uml-id="Cloud Region (us-east-1)::LB">Cloud Region (us-east-1)::LB</desc><polygon points="466,394 478,382 618,382 606,394" fill="#d4dff7" stroke="#1e293b" stroke-width="1"/><polygon points="606,394 618,382 618,426 606,438" fill="#b8c8ef" stroke="#1e293b" stroke-width="1"/><rect class="uml-node uml-deployment-shape" data-uml-kind="node" x="466" y="394" width="140" height="44" fill="#f0f4f8" stroke="#1e293b" stroke-width="1.5"/><text x="536" y="422" text-anchor="middle" font-family="monospace" font-size="13" font-weight="600" fill="#0f172a">Load Balancer</text><desc data-uml-id="Cloud Region (us-east-1)::App Cluster::WS1">Cloud Region (us-east-1)::App Cluster::WS1</desc><polygon points="650,542 662,530 802,530 790,542" fill="#d4dff7" stroke="#1e293b" stroke-width="1"/><polygon points="790,542 802,530 802,574 790,586" fill="#b8c8ef" stroke="#1e293b" stroke-width="1"/><rect class="uml-node uml-deployment-shape" data-uml-kind="node" x="650" y="542" width="140" height="44" fill="#f0f4f8" stroke="#1e293b" stroke-width="1.5"/><text x="720" y="570" text-anchor="middle" font-family="monospace" font-size="13" font-weight="600" fill="#0f172a">Web Server 1</text><desc data-uml-id="Cloud Region (us-east-1)::App Cluster::WS2">Cloud Region (us-east-1)::App Cluster::WS2</desc><polygon points="282,542 294,530 434,530 422,542" fill="#d4dff7" stroke="#1e293b" stroke-width="1"/><polygon points="422,542 434,530 434,574 422,586" fill="#b8c8ef" stroke="#1e293b" stroke-width="1"/><rect class="uml-node uml-deployment-shape" data-uml-kind="node" x="282" y="542" width="140" height="44" fill="#f0f4f8" stroke="#1e293b" stroke-width="1.5"/><text x="352" y="570" text-anchor="middle" font-family="monospace" font-size="13" font-weight="600" fill="#0f172a">Web Server 2</text><desc data-uml-id="Cloud Region (us-east-1)::App Cluster::WS3">Cloud Region (us-east-1)::App Cluster::WS3</desc><polygon points="466,542 478,530 618,530 606,542" fill="#d4dff7" stroke="#1e293b" stroke-width="1"/><polygon points="606,542 618,530 618,574 606,586" fill="#b8c8ef" stroke="#1e293b" stroke-width="1"/><rect class="uml-node uml-deployment-shape" data-uml-kind="node" x="466" y="542" width="140" height="44" fill="#f0f4f8" stroke="#1e293b" stroke-width="1.5"/><text x="536" y="570" text-anchor="middle" font-family="monospace" font-size="13" font-weight="600" fill="#0f172a">Web Server 3</text><desc data-uml-id="Cloud Region (us-east-1)::Cache Cluster::RP">Cloud Region (us-east-1)::Cache Cluster::RP</desc><polygon points="98,690 110,678 250,678 238,690" fill="#d4dff7" stroke="#1e293b" stroke-width="1"/><polygon points="238,690 250,678 250,722 238,734" fill="#b8c8ef" stroke="#1e293b" stroke-width="1"/><rect class="uml-node uml-deployment-shape" data-uml-kind="node" x="98" y="690" width="140" height="44" fill="#f0f4f8" stroke="#1e293b" stroke-width="1.5"/><text x="168" y="718" text-anchor="middle" font-family="monospace" font-size="13" font-weight="600" fill="#0f172a">Redis Primary</text><desc data-uml-id="Cloud Region (us-east-1)::Cache Cluster::RR">Cloud Region (us-east-1)::Cache Cluster::RR</desc><polygon points="371,838 383,826 523,826 511,838" fill="#d4dff7" stroke="#1e293b" stroke-width="1"/><polygon points="511,838 523,826 523,870 511,882" fill="#b8c8ef" stroke="#1e293b" stroke-width="1"/><rect class="uml-node uml-deployment-shape" data-uml-kind="node" x="371" y="838" width="140" height="44" fill="#f0f4f8" stroke="#1e293b" stroke-width="1.5"/><text x="441" y="866" text-anchor="middle" font-family="monospace" font-size="13" font-weight="600" fill="#0f172a">Redis Replica</text><desc data-uml-id="Cloud Region (us-east-1)::Message Queue::SQS">Cloud Region (us-east-1)::Message Queue::SQS</desc><polygon points="1147,690 1159,678 1299,678 1287,690" fill="#d4dff7" stroke="#1e293b" stroke-width="1"/><polygon points="1287,690 1299,678 1299,722 1287,734" fill="#b8c8ef" stroke="#1e293b" stroke-width="1"/><rect class="uml-node uml-deployment-shape" data-uml-kind="node" x="1147" y="690" width="140" height="44" fill="#f0f4f8" stroke="#1e293b" stroke-width="1.5"/><text x="1217" y="718" text-anchor="middle" font-family="monospace" font-size="13" font-weight="600" fill="#0f172a">SQS</text><desc data-uml-id="Corporate Data Center::VPN">Corporate Data Center::VPN</desc><polygon points="575,690 587,678 727,678 715,690" fill="#d4dff7" stroke="#1e293b" stroke-width="1"/><polygon points="715,690 727,678 727,722 715,734" fill="#b8c8ef" stroke="#1e293b" stroke-width="1"/><rect class="uml-node uml-deployment-shape" data-uml-kind="node" x="575" y="690" width="140" height="44" fill="#f0f4f8" stroke="#1e293b" stroke-width="1.5"/><text x="645" y="718" text-anchor="middle" font-family="monospace" font-size="13" font-weight="600" fill="#0f172a">VPN Gateway</text><desc data-uml-id="Corporate Data Center::Database Cluster::PG1">Corporate Data Center::Database Cluster::PG1</desc><polygon points="667,838 679,826 824,826 812,838" fill="#d4dff7" stroke="#1e293b" stroke-width="1"/><polygon points="812,838 824,826 824,870 812,882" fill="#b8c8ef" stroke="#1e293b" stroke-width="1"/><rect class="uml-node uml-deployment-shape" data-uml-kind="node" x="667" y="838" width="145" height="44" fill="#f0f4f8" stroke="#1e293b" stroke-width="1.5"/><text x="739" y="866" text-anchor="middle" font-family="monospace" font-size="13" font-weight="600" fill="#0f172a">PostgreSQL Primary</text><desc data-uml-id="Corporate Data Center::Database Cluster::PG2">Corporate Data Center::Database Cluster::PG2</desc><polygon points="575,986 587,974 732,974 720,986" fill="#d4dff7" stroke="#1e293b" stroke-width="1"/><polygon points="720,986 732,974 732,1018 720,1030" fill="#b8c8ef" stroke="#1e293b" stroke-width="1"/><rect class="uml-node uml-deployment-shape" data-uml-kind="node" x="575" y="986" width="145" height="44" fill="#f0f4f8" stroke="#1e293b" stroke-width="1.5"/><text x="647" y="1014" text-anchor="middle" font-family="monospace" font-size="13" font-weight="600" fill="#0f172a">PostgreSQL Standby</text><desc data-uml-id="Corporate Data Center::FS">Corporate Data Center::FS</desc><polygon points="943,690 955,678 1095,678 1083,690" fill="#d4dff7" stroke="#1e293b" stroke-width="1"/><polygon points="1083,690 1095,678 1095,722 1083,734" fill="#b8c8ef" stroke="#1e293b" stroke-width="1"/><rect class="uml-node uml-deployment-shape" data-uml-kind="node" x="943" y="690" width="140" height="44" fill="#f0f4f8" stroke="#1e293b" stroke-width="1.5"/><text x="1013" y="718" text-anchor="middle" font-family="monospace" font-size="13" font-weight="600" fill="#0f172a">File Server</text><desc data-uml-id="Corporate Data Center::AD">Corporate Data Center::AD</desc><polygon points="759,690 771,678 911,678 899,690" fill="#d4dff7" stroke="#1e293b" stroke-width="1"/><polygon points="899,690 911,678 911,722 899,734" fill="#b8c8ef" stroke="#1e293b" stroke-width="1"/><rect class="uml-node uml-deployment-shape" data-uml-kind="node" x="759" y="690" width="140" height="44" fill="#f0f4f8" stroke="#1e293b" stroke-width="1.5"/><text x="829" y="718" text-anchor="middle" font-family="monospace" font-size="13" font-weight="600" fill="#0f172a">Active Directory</text><polyline class="uml-relation" data-uml-from="CDN" data-uml-to="WAF" data-uml-arrow="--&gt;" points="536,142 536,194 536,246" fill="none" stroke="#1e293b" stroke-width="2" marker-end="url(#arrow-open)" /><polyline class="uml-relation" data-uml-from="WAF" data-uml-to="LB" data-uml-arrow="--&gt;" points="536,290 536,342 536,394" fill="none" stroke="#1e293b" stroke-width="2" marker-end="url(#arrow-open)" /><polyline class="uml-relation" data-uml-from="LB" data-uml-to="WS1" data-uml-arrow="--&gt;" points="536,438 536,458 720,458 720,542" fill="none" stroke="#1e293b" stroke-width="2" marker-end="url(#arrow-open)" /><polyline class="uml-relation" data-uml-from="LB" data-uml-to="WS2" data-uml-arrow="--&gt;" points="536,438 536,490 352,490 352,542" fill="none" stroke="#1e293b" stroke-width="2" marker-end="url(#arrow-open)" /><polyline class="uml-relation" data-uml-from="LB" data-uml-to="WS3" data-uml-arrow="--&gt;" points="536,438 536,490 536,542" fill="none" stroke="#1e293b" stroke-width="2" marker-end="url(#arrow-open)" /><polyline class="uml-relation" data-uml-from="WS1" data-uml-to="RP" data-uml-arrow="--&gt;" points="720,586 720,686 168,686 168,690" fill="none" stroke="#1e293b" stroke-width="2" marker-end="url(#arrow-open)" /><polyline class="uml-relation" data-uml-from="WS2" data-uml-to="RP" data-uml-arrow="--&gt;" points="352,586 352,598 168,598 168,690" fill="none" stroke="#1e293b" stroke-width="2" marker-end="url(#arrow-open)" /><polyline class="uml-relation" data-uml-from="WS3" data-uml-to="RP" data-uml-arrow="--&gt;" points="536,586 536,614 168,614 168,690" fill="none" stroke="#1e293b" stroke-width="2" marker-end="url(#arrow-open)" /><polyline class="uml-relation" data-uml-from="RP" data-uml-to="RR" data-uml-arrow="--&gt;" points="168,734 168,782 441,782 441,838" fill="none" stroke="#1e293b" stroke-width="2" marker-end="url(#arrow-open)" /><polyline class="uml-relation" data-uml-from="WS1" data-uml-to="SQS" data-uml-arrow="--&gt;" points="720,586 720,686 1217,686 1217,690" fill="none" stroke="#1e293b" stroke-width="2" marker-end="url(#arrow-open)" /><polyline class="uml-relation" data-uml-from="WS1" data-uml-to="VPN" data-uml-arrow="--&gt;" points="720,586 720,630 645,630 645,690" fill="none" stroke="#1e293b" stroke-width="2" marker-end="url(#arrow-open)" /><polyline class="uml-relation" data-uml-from="VPN" data-uml-to="PG1" data-uml-arrow="--&gt;" points="645,734 645,834 740,834 740,838" fill="none" stroke="#1e293b" stroke-width="2" marker-end="url(#arrow-open)" /><polyline class="uml-relation" data-uml-from="PG1" data-uml-to="PG2" data-uml-arrow="--&gt;" points="740,882 740,934 648,934 648,986" fill="none" stroke="#1e293b" stroke-width="2" marker-end="url(#arrow-open)" /><polyline class="uml-relation" data-uml-from="WS1" data-uml-to="AD" data-uml-arrow="--&gt;" points="720,586 720,686 829,686 829,690" fill="none" stroke="#1e293b" stroke-width="2" marker-end="url(#arrow-open)" /><text class="uml-edge-label" data-uml-label-role="edge" x="444" y="674" text-anchor="middle" font-family="monospace" font-size="11" fill="#1e293b">cache lookups</text><text class="uml-edge-label" data-uml-label-role="edge" x="304" y="770" text-anchor="middle" font-family="monospace" font-size="11" fill="#1e293b">replication</text><text class="uml-edge-label" data-uml-label-role="edge" x="968" y="674" text-anchor="middle" font-family="monospace" font-size="11" fill="#1e293b">enqueue jobs</text><rect class="uml-edge-label-bg" data-uml-label-role="edge-background" x="638" y="605" width="88" height="18" fill="white" opacity="0.85"/><text class="uml-edge-label" data-uml-label-role="edge" x="682" y="618" text-anchor="middle" font-family="monospace" font-size="11" fill="#1e293b">data queries</text><rect class="uml-edge-label-bg" data-uml-label-role="edge-background" x="620" y="771" width="74" height="18" fill="white" opacity="0.85"/><text class="uml-edge-label" data-uml-label-role="edge" x="657" y="784" text-anchor="middle" font-family="monospace" font-size="11" fill="#1e293b">read/write</text><text class="uml-edge-label" data-uml-label-role="edge" x="694" y="922" text-anchor="middle" font-family="monospace" font-size="11" fill="#1e293b">replication</text><text class="uml-edge-label" data-uml-label-role="edge" x="774" y="674" text-anchor="middle" font-family="monospace" font-size="11" fill="#1e293b">LDAP auth</text><text x="448" y="78" font-family="monospace" font-size="11" font-weight="600" fill="#ffffff">Internet</text><text x="54" y="374" font-family="monospace" font-size="11" font-weight="600" fill="#ffffff">Cloud Region (us-east-1)</text><text x="531" y="670" font-family="monospace" font-size="11" font-weight="600" fill="#ffffff">Corporate Data Center</text></svg>