<svg xmlns="http://www.w3.org/2000/svg" width="1660" height="1520" viewBox="0 0 1660 1520"><rect width="100%" height="100%" fill="#f0f4f8"/><defs><marker id="arrow-open" viewBox="0 0 10 10" refX="9" refY="5" markerWidth="10" markerHeight="10" markerUnits="userSpaceOnUse" orient="auto-start-reverse"><path d="M0,0 L10,5 L0,10" fill="none" stroke="#1e293b" stroke-width="1.5"/></marker><marker id="arrow-triangle" viewBox="0 0 12 12" refX="11" refY="6" markerWidth="12" markerHeight="12" markerUnits="userSpaceOnUse" orient="auto-start-reverse"><polygon points="0,0 12,6 0,12" fill="#ffffff" stroke="#1e293b" stroke-width="1.5" fill-rule="nonzero"/></marker><marker id="arrow-diamond-filled" viewBox="0 0 14 10" refX="13" refY="5" markerWidth="14" markerHeight="10" markerUnits="userSpaceOnUse" orient="auto-start-reverse"><path d="M0,5 L7,0 L14,5 L7,10 z" fill="#1e293b" stroke="#1e293b" stroke-width="1"/></marker><marker id="arrow-diamond-open" viewBox="0 0 14 10" refX="13" refY="5" markerWidth="14" markerHeight="10" markerUnits="userSpaceOnUse" orient="auto-start-reverse"><path d="M0,5 L7,0 L14,5 L7,10 z" fill="#ffffff" stroke="#1e293b" stroke-width="1"/></marker><marker id="arrow-double-open" viewBox="0 0 16 12" refX="15" refY="6" markerWidth="16" markerHeight="12" markerUnits="userSpaceOnUse" orient="auto-start-reverse"><path d="M0,1 L8,6 L0,11 M7,1 L15,6 L7,11" fill="none" stroke="#1e293b" stroke-width="1.5" stroke-linejoin="round"/></marker><marker id="arrow-circle-open" viewBox="0 0 12 12" refX="11" refY="6" markerWidth="12" markerHeight="12" markerUnits="userSpaceOnUse" orient="auto-start-reverse"><circle cx="6" cy="6" r="4" fill="#ffffff" stroke="#1e293b" stroke-width="1.5"/></marker><marker id="arrow-circle-filled" viewBox="0 0 12 12" refX="11" refY="6" markerWidth="12" markerHeight="12" markerUnits="userSpaceOnUse" orient="auto-start-reverse"><circle cx="6" cy="6" r="4" fill="#1e293b" stroke="#1e293b" stroke-width="1.5"/></marker><marker id="arrow-triangle-filled" viewBox="0 0 12 12" refX="11" refY="6" markerWidth="12" markerHeight="12" markerUnits="userSpaceOnUse" orient="auto-start-reverse"><polygon points="0,0 12,6 0,12" fill="#1e293b" stroke="#1e293b" stroke-width="1.5"/></marker><marker id="arrow-box-filled" viewBox="0 0 12 12" refX="11" refY="6" markerWidth="12" markerHeight="12" markerUnits="userSpaceOnUse" orient="auto-start-reverse"><rect x="2" y="2" width="8" height="8" fill="#1e293b" stroke="#1e293b" stroke-width="1.5"/></marker><marker id="arrow-plus" viewBox="0 0 12 12" refX="11" refY="6" markerWidth="12" markerHeight="12" markerUnits="userSpaceOnUse" orient="auto-start-reverse"><path d="M6,1 L6,11 M1,6 L11,6" fill="none" stroke="#1e293b" stroke-width="1.8" stroke-linecap="round"/></marker><marker id="arrow-slash" viewBox="0 0 12 12" refX="10" refY="6" markerWidth="12" markerHeight="12" markerUnits="userSpaceOnUse" orient="auto-start-reverse"><path d="M3,2 L9,10" fill="none" stroke="#1e293b" stroke-width="1.8" stroke-linecap="round"/></marker><marker id="arrow-cross" viewBox="0 0 12 12" refX="11" refY="6" markerWidth="12" markerHeight="12" markerUnits="userSpaceOnUse" orient="auto-start-reverse"><path d="M2,2 L10,10 M10,2 L2,10" fill="none" stroke="#1e293b" stroke-width="1.8" stroke-linecap="round"/></marker><marker id="arrow-bracket-open" viewBox="0 0 12 14" refX="11" refY="7" markerWidth="12" markerHeight="14" markerUnits="userSpaceOnUse" orient="auto-start-reverse"><path d="M10,1 L4,1 L4,13 L10,13" fill="none" stroke="#1e293b" stroke-width="1.8" stroke-linecap="round" stroke-linejoin="round"/></marker></defs><marker id="arrow-ie-one" viewBox="0 0 24 16" refX="22" refY="8" markerWidth="24" markerHeight="16" markerUnits="userSpaceOnUse" orient="auto-start-reverse"><path d="M16,2 L16,14" fill="none" stroke="#1e293b" stroke-width="1.8" stroke-linecap="round"/></marker><marker id="arrow-ie-zero-one" viewBox="0 0 30 16" refX="28" refY="8" markerWidth="30" markerHeight="16" markerUnits="userSpaceOnUse" orient="auto-start-reverse"><circle cx="10" cy="8" r="4" fill="#ffffff" stroke="#1e293b" stroke-width="1.5"/><path d="M20,2 L20,14" fill="none" stroke="#1e293b" stroke-width="1.8" stroke-linecap="round"/></marker><marker id="arrow-ie-zero-many" viewBox="0 0 34 18" refX="32" refY="9" markerWidth="34" markerHeight="18" markerUnits="userSpaceOnUse" orient="auto-start-reverse"><circle cx="8" cy="9" r="4" fill="#ffffff" stroke="#1e293b" stroke-width="1.5"/><path d="M18,9 L31,2 M18,9 L31,9 M18,9 L31,16" fill="none" stroke="#1e293b" stroke-width="1.7" stroke-linecap="round"/></marker><marker id="arrow-ie-one-many" viewBox="0 0 34 18" refX="32" refY="9" markerWidth="34" markerHeight="18" markerUnits="userSpaceOnUse" orient="auto-start-reverse"><path d="M8,2 L8,16 M18,9 L31,2 M18,9 L31,9 M18,9 L31,16" fill="none" stroke="#1e293b" stroke-width="1.7" stroke-linecap="round"/></marker><text x="40" y="40" font-family="monospace" font-size="18" font-weight="600">Three-tier: cloud front-end + hybrid mid-tier + on-prem data</text><rect class="uml-group-frame" data-uml-group="Internet" x="560" y="78" width="215" height="324" rx="8" ry="8" fill="#f8faff" stroke="#1e293b" stroke-width="1.5"/><rect x="560" y="78" width="215" height="40" rx="8" ry="8" fill="#1e293b" stroke="none"/><rect x="560" y="110" width="215" height="8" fill="#1e293b" stroke="none"/><text x="568" y="110" font-family="monospace" font-size="11" font-weight="600" fill="#ffffff">Internet</text><line x1="560" y1="118" x2="775" y2="118" stroke="#1e293b" stroke-width="1"/><rect class="uml-group-frame" data-uml-group="Cloud Region (us-east-1)" x="78" y="462" width="1519" height="748" rx="8" ry="8" fill="#f8faff" stroke="#1e293b" stroke-width="1.5"/><rect x="78" y="462" width="1519" height="40" rx="8" ry="8" fill="#1e293b" stroke="none"/><rect x="78" y="494" width="1519" height="8" fill="#1e293b" stroke="none"/><text x="86" y="494" font-family="monospace" font-size="11" font-weight="600" fill="#ffffff">Cloud Region (us-east-1)</text><line x1="78" y1="502" x2="1597" y2="502" stroke="#1e293b" stroke-width="1"/><rect class="uml-group-frame" data-uml-group="Corporate Data Center" x="645" y="846" width="684" height="556" rx="8" ry="8" fill="#f8faff" stroke="#1e293b" stroke-width="1.5"/><rect x="645" y="846" width="684" height="40" rx="8" ry="8" fill="#1e293b" stroke="none"/><rect x="645" y="878" width="684" height="8" fill="#1e293b" stroke="none"/><text x="653" y="878" font-family="monospace" font-size="11" font-weight="600" fill="#ffffff">Corporate Data Center</text><line x1="645" y1="886" x2="1329" y2="886" stroke="#1e293b" stroke-width="1"/><rect class="uml-group-frame" data-uml-group="Cloud Region (us-east-1)::App Cluster" x="360" y="688" width="616" height="84" rx="6" ry="6" fill="none" stroke="#1e293b" stroke-width="1.5" stroke-dasharray="4 3"/><text x="366" y="701" font-family="monospace" font-size="10" font-weight="600" fill="#1e293b">App Cluster</text><rect class="uml-group-frame" data-uml-group="Cloud Region (us-east-1)::Cache Cluster" x="132" y="880" width="499" height="276" rx="6" ry="6" fill="none" stroke="#1e293b" stroke-width="1.5" stroke-dasharray="4 3"/><text x="138" y="893" font-family="monospace" font-size="10" font-weight="600" fill="#1e293b">Cache Cluster</text><rect class="uml-group-frame" data-uml-group="Cloud Region (us-east-1)::Message Queue" x="1383" y="880" width="160" height="84" rx="6" ry="6" fill="none" stroke="#1e293b" stroke-width="1.5" stroke-dasharray="4 3"/><text x="1389" y="893" font-family="monospace" font-size="10" font-weight="600" fill="#1e293b">Message Queue</text><rect class="uml-group-frame" data-uml-group="Corporate Data Center::Database Cluster" x="699" y="1072" width="279" height="276" rx="6" ry="6" fill="none" stroke="#1e293b" stroke-width="1.5" stroke-dasharray="4 3"/><text x="705" y="1085" font-family="monospace" font-size="10" font-weight="600" fill="#1e293b">Database Cluster</text><desc data-uml-id="Internet::CDN">Internet::CDN</desc><polygon points="598,142 610,130 750,130 738,142" fill="#d4dff7" stroke="#1e293b" stroke-width="1"/><polygon points="738,142 750,130 750,174 738,186" fill="#b8c8ef" stroke="#1e293b" stroke-width="1"/><rect class="uml-node uml-deployment-shape" data-uml-kind="node" x="598" y="142" width="140" height="44" fill="#f0f4f8" stroke="#1e293b" stroke-width="1.5"/><text x="668" y="170" text-anchor="middle" font-family="monospace" font-size="13" font-weight="600" fill="#0f172a">CDN</text><desc data-uml-id="Internet::WAF">Internet::WAF</desc><polygon points="584,334 596,322 763,322 751,334" fill="#d4dff7" stroke="#1e293b" stroke-width="1"/><polygon points="751,334 763,322 763,366 751,378" fill="#b8c8ef" stroke="#1e293b" stroke-width="1"/><rect class="uml-node uml-deployment-shape" data-uml-kind="node" x="584" y="334" width="167" height="44" fill="#f0f4f8" stroke="#1e293b" stroke-width="1.5"/><text x="667" y="362" text-anchor="middle" font-family="monospace" font-size="13" font-weight="600" fill="#0f172a">WAF / DDoS Protection</text><desc data-uml-id="Cloud Region (us-east-1)::LB">Cloud Region (us-east-1)::LB</desc><polygon points="598,526 610,514 750,514 738,526" fill="#d4dff7" stroke="#1e293b" stroke-width="1"/><polygon points="738,526 750,514 750,558 738,570" fill="#b8c8ef" stroke="#1e293b" stroke-width="1"/><rect class="uml-node uml-deployment-shape" data-uml-kind="node" x="598" y="526" width="140" height="44" fill="#f0f4f8" stroke="#1e293b" stroke-width="1.5"/><text x="668" y="554" text-anchor="middle" font-family="monospace" font-size="13" font-weight="600" fill="#0f172a">Load Balancer</text><desc data-uml-id="Cloud Region (us-east-1)::App Cluster::WS1">Cloud Region (us-east-1)::App Cluster::WS1</desc><polygon points="826,718 838,706 978,706 966,718" fill="#d4dff7" stroke="#1e293b" stroke-width="1"/><polygon points="966,718 978,706 978,750 966,762" fill="#b8c8ef" stroke="#1e293b" stroke-width="1"/><rect class="uml-node uml-deployment-shape" data-uml-kind="node" x="826" y="718" width="140" height="44" fill="#f0f4f8" stroke="#1e293b" stroke-width="1.5"/><text x="896" y="746" text-anchor="middle" font-family="monospace" font-size="13" font-weight="600" fill="#0f172a">Web Server 1</text><desc data-uml-id="Cloud Region (us-east-1)::App Cluster::WS2">Cloud Region (us-east-1)::App Cluster::WS2</desc><polygon points="370,718 382,706 522,706 510,718" fill="#d4dff7" stroke="#1e293b" stroke-width="1"/><polygon points="510,718 522,706 522,750 510,762" fill="#b8c8ef" stroke="#1e293b" stroke-width="1"/><rect class="uml-node uml-deployment-shape" data-uml-kind="node" x="370" y="718" width="140" height="44" fill="#f0f4f8" stroke="#1e293b" stroke-width="1.5"/><text x="440" y="746" text-anchor="middle" font-family="monospace" font-size="13" font-weight="600" fill="#0f172a">Web Server 2</text><desc data-uml-id="Cloud Region (us-east-1)::App Cluster::WS3">Cloud Region (us-east-1)::App Cluster::WS3</desc><polygon points="598,718 610,706 750,706 738,718" fill="#d4dff7" stroke="#1e293b" stroke-width="1"/><polygon points="738,718 750,706 750,750 738,762" fill="#b8c8ef" stroke="#1e293b" stroke-width="1"/><rect class="uml-node uml-deployment-shape" data-uml-kind="node" x="598" y="718" width="140" height="44" fill="#f0f4f8" stroke="#1e293b" stroke-width="1.5"/><text x="668" y="746" text-anchor="middle" font-family="monospace" font-size="13" font-weight="600" fill="#0f172a">Web Server 3</text><desc data-uml-id="Cloud Region (us-east-1)::Cache Cluster::RP">Cloud Region (us-east-1)::Cache Cluster::RP</desc><polygon points="142,910 154,898 294,898 282,910" fill="#d4dff7" stroke="#1e293b" stroke-width="1"/><polygon points="282,910 294,898 294,942 282,954" fill="#b8c8ef" stroke="#1e293b" stroke-width="1"/><rect class="uml-node uml-deployment-shape" data-uml-kind="node" x="142" y="910" width="140" height="44" fill="#f0f4f8" stroke="#1e293b" stroke-width="1.5"/><text x="212" y="938" text-anchor="middle" font-family="monospace" font-size="13" font-weight="600" fill="#0f172a">Redis Primary</text><desc data-uml-id="Cloud Region (us-east-1)::Cache Cluster::RR">Cloud Region (us-east-1)::Cache Cluster::RR</desc><polygon points="481,1102 493,1090 633,1090 621,1102" fill="#d4dff7" stroke="#1e293b" stroke-width="1"/><polygon points="621,1102 633,1090 633,1134 621,1146" fill="#b8c8ef" stroke="#1e293b" stroke-width="1"/><rect class="uml-node uml-deployment-shape" data-uml-kind="node" x="481" y="1102" width="140" height="44" fill="#f0f4f8" stroke="#1e293b" stroke-width="1.5"/><text x="551" y="1130" text-anchor="middle" font-family="monospace" font-size="13" font-weight="600" fill="#0f172a">Redis Replica</text><desc data-uml-id="Cloud Region (us-east-1)::Message Queue::SQS">Cloud Region (us-east-1)::Message Queue::SQS</desc><polygon points="1393,910 1405,898 1545,898 1533,910" fill="#d4dff7" stroke="#1e293b" stroke-width="1"/><polygon points="1533,910 1545,898 1545,942 1533,954" fill="#b8c8ef" stroke="#1e293b" stroke-width="1"/><rect class="uml-node uml-deployment-shape" data-uml-kind="node" x="1393" y="910" width="140" height="44" fill="#f0f4f8" stroke="#1e293b" stroke-width="1.5"/><text x="1463" y="938" text-anchor="middle" font-family="monospace" font-size="13" font-weight="600" fill="#0f172a">SQS</text><desc data-uml-id="Corporate Data Center::VPN">Corporate Data Center::VPN</desc><polygon points="709,910 721,898 861,898 849,910" fill="#d4dff7" stroke="#1e293b" stroke-width="1"/><polygon points="849,910 861,898 861,942 849,954" fill="#b8c8ef" stroke="#1e293b" stroke-width="1"/><rect class="uml-node uml-deployment-shape" data-uml-kind="node" x="709" y="910" width="140" height="44" fill="#f0f4f8" stroke="#1e293b" stroke-width="1.5"/><text x="779" y="938" text-anchor="middle" font-family="monospace" font-size="13" font-weight="600" fill="#0f172a">VPN Gateway</text><desc data-uml-id="Corporate Data Center::Database Cluster::PG1">Corporate Data Center::Database Cluster::PG1</desc><polygon points="823,1102 835,1090 980,1090 968,1102" fill="#d4dff7" stroke="#1e293b" stroke-width="1"/><polygon points="968,1102 980,1090 980,1134 968,1146" fill="#b8c8ef" stroke="#1e293b" stroke-width="1"/><rect class="uml-node uml-deployment-shape" data-uml-kind="node" x="823" y="1102" width="145" height="44" fill="#f0f4f8" stroke="#1e293b" stroke-width="1.5"/><text x="895" y="1130" text-anchor="middle" font-family="monospace" font-size="13" font-weight="600" fill="#0f172a">PostgreSQL Primary</text><desc data-uml-id="Corporate Data Center::Database Cluster::PG2">Corporate Data Center::Database Cluster::PG2</desc><polygon points="709,1294 721,1282 866,1282 854,1294" fill="#d4dff7" stroke="#1e293b" stroke-width="1"/><polygon points="854,1294 866,1282 866,1326 854,1338" fill="#b8c8ef" stroke="#1e293b" stroke-width="1"/><rect class="uml-node uml-deployment-shape" data-uml-kind="node" x="709" y="1294" width="145" height="44" fill="#f0f4f8" stroke="#1e293b" stroke-width="1.5"/><text x="781" y="1322" text-anchor="middle" font-family="monospace" font-size="13" font-weight="600" fill="#0f172a">PostgreSQL Standby</text><desc data-uml-id="Corporate Data Center::FS">Corporate Data Center::FS</desc><polygon points="1165,910 1177,898 1317,898 1305,910" fill="#d4dff7" stroke="#1e293b" stroke-width="1"/><polygon points="1305,910 1317,898 1317,942 1305,954" fill="#b8c8ef" stroke="#1e293b" stroke-width="1"/><rect class="uml-node uml-deployment-shape" data-uml-kind="node" x="1165" y="910" width="140" height="44" fill="#f0f4f8" stroke="#1e293b" stroke-width="1.5"/><text x="1235" y="938" text-anchor="middle" font-family="monospace" font-size="13" font-weight="600" fill="#0f172a">File Server</text><desc data-uml-id="Corporate Data Center::AD">Corporate Data Center::AD</desc><polygon points="937,910 949,898 1089,898 1077,910" fill="#d4dff7" stroke="#1e293b" stroke-width="1"/><polygon points="1077,910 1089,898 1089,942 1077,954" fill="#b8c8ef" stroke="#1e293b" stroke-width="1"/><rect class="uml-node uml-deployment-shape" data-uml-kind="node" x="937" y="910" width="140" height="44" fill="#f0f4f8" stroke="#1e293b" stroke-width="1.5"/><text x="1007" y="938" text-anchor="middle" font-family="monospace" font-size="13" font-weight="600" fill="#0f172a">Active Directory</text><polyline class="uml-relation" data-uml-from="CDN" data-uml-to="WAF" data-uml-arrow="--&gt;" points="668,186 668,260 668,334" fill="none" stroke="#1e293b" stroke-width="2" marker-end="url(#arrow-open)" /><polyline class="uml-relation" data-uml-from="WAF" data-uml-to="LB" data-uml-arrow="--&gt;" points="668,378 668,452 668,526" fill="none" stroke="#1e293b" stroke-width="2" marker-end="url(#arrow-open)" /><polyline class="uml-relation" data-uml-from="LB" data-uml-to="WS1" data-uml-arrow="--&gt;" points="668,570 668,597 896,597 896,718" fill="none" stroke="#1e293b" stroke-width="2" marker-end="url(#arrow-open)" /><polyline class="uml-relation" data-uml-from="LB" data-uml-to="WS2" data-uml-arrow="--&gt;" points="668,570 668,644 440,644 440,718" fill="none" stroke="#1e293b" stroke-width="2" marker-end="url(#arrow-open)" /><polyline class="uml-relation" data-uml-from="LB" data-uml-to="WS3" data-uml-arrow="--&gt;" points="668,570 668,644 668,718" fill="none" stroke="#1e293b" stroke-width="2" marker-end="url(#arrow-open)" /><polyline class="uml-relation" data-uml-from="WS1" data-uml-to="RP" data-uml-arrow="--&gt;" points="896,762 896,898 212,898 212,910" fill="none" stroke="#1e293b" stroke-width="2" marker-end="url(#arrow-open)" /><polyline class="uml-relation" data-uml-from="WS2" data-uml-to="RP" data-uml-arrow="--&gt;" points="440,762 440,777 212,777 212,910" fill="none" stroke="#1e293b" stroke-width="2" marker-end="url(#arrow-open)" /><polyline class="uml-relation" data-uml-from="WS3" data-uml-to="RP" data-uml-arrow="--&gt;" points="668,762 668,801 212,801 212,910" fill="none" stroke="#1e293b" stroke-width="2" marker-end="url(#arrow-open)" /><polyline class="uml-relation" data-uml-from="RP" data-uml-to="RR" data-uml-arrow="--&gt;" points="212,954 212,1024 551,1024 551,1102" fill="none" stroke="#1e293b" stroke-width="2" marker-end="url(#arrow-open)" /><polyline class="uml-relation" data-uml-from="WS1" data-uml-to="SQS" data-uml-arrow="--&gt;" points="896,762 896,894 1463,894 1463,910" fill="none" stroke="#1e293b" stroke-width="2" marker-end="url(#arrow-open)" /><polyline class="uml-relation" data-uml-from="WS1" data-uml-to="VPN" data-uml-arrow="--&gt;" points="896,762 896,824 779,824 779,910" fill="none" stroke="#1e293b" stroke-width="2" marker-end="url(#arrow-open)" /><polyline class="uml-relation" data-uml-from="VPN" data-uml-to="PG1" data-uml-arrow="--&gt;" points="779,954 779,1032 896,1032 896,1102" fill="none" stroke="#1e293b" stroke-width="2" marker-end="url(#arrow-open)" /><polyline class="uml-relation" data-uml-from="PG1" data-uml-to="PG2" data-uml-arrow="--&gt;" points="896,1146 896,1220 782,1220 782,1294" fill="none" stroke="#1e293b" stroke-width="2" marker-end="url(#arrow-open)" /><polyline class="uml-relation" data-uml-from="WS1" data-uml-to="AD" data-uml-arrow="--&gt;" points="896,762 896,898 1007,898 1007,910" fill="none" stroke="#1e293b" stroke-width="2" marker-end="url(#arrow-open)" /><text class="uml-edge-label" data-uml-label-role="edge" x="671" y="840" text-anchor="middle" font-family="monospace" font-size="11" fill="#1e293b">cache lookups</text><text class="uml-edge-label" data-uml-label-role="edge" x="381" y="1012" text-anchor="middle" font-family="monospace" font-size="11" fill="#1e293b">replication</text><text class="uml-edge-label" data-uml-label-role="edge" x="1169" y="840" text-anchor="middle" font-family="monospace" font-size="11" fill="#1e293b">enqueue jobs</text><rect class="uml-edge-label-bg" data-uml-label-role="edge-background" x="749" y="818" width="88" height="18" fill="white" opacity="0.85"/><text class="uml-edge-label" data-uml-label-role="edge" x="793" y="831" text-anchor="middle" font-family="monospace" font-size="11" fill="#1e293b">data queries</text><text class="uml-edge-label" data-uml-label-role="edge" x="837" y="1020" text-anchor="middle" font-family="monospace" font-size="11" fill="#1e293b">read/write</text><text class="uml-edge-label" data-uml-label-role="edge" x="839" y="1208" text-anchor="middle" font-family="monospace" font-size="11" fill="#1e293b">replication</text><rect class="uml-edge-label-bg" data-uml-label-role="edge-background" x="877" y="827" width="66" height="18" fill="white" opacity="0.85"/><text class="uml-edge-label" data-uml-label-role="edge" x="910" y="840" text-anchor="middle" font-family="monospace" font-size="11" fill="#1e293b">LDAP auth</text><text x="568" y="110" font-family="monospace" font-size="11" font-weight="600" fill="#ffffff">Internet</text><text x="86" y="494" font-family="monospace" font-size="11" font-weight="600" fill="#ffffff">Cloud Region (us-east-1)</text><text x="653" y="878" font-family="monospace" font-size="11" font-weight="600" fill="#ffffff">Corporate Data Center</text></svg>