<svg xmlns="http://www.w3.org/2000/svg" width="1224" height="1140" viewBox="0 0 1224 1140"><rect width="100%" height="100%" fill="#f0f4f8"/><defs><marker id="arrow-open" viewBox="0 0 10 10" refX="9" refY="5" markerWidth="10" markerHeight="10" markerUnits="userSpaceOnUse" orient="auto-start-reverse"><path d="M0,0 L10,5 L0,10" fill="none" stroke="#1e293b" stroke-width="1.5"/></marker><marker id="arrow-triangle" viewBox="0 0 12 12" refX="11" refY="6" markerWidth="12" markerHeight="12" markerUnits="userSpaceOnUse" orient="auto-start-reverse"><polygon points="0,0 12,6 0,12" fill="#ffffff" stroke="#1e293b" stroke-width="1.5" fill-rule="nonzero"/></marker><marker id="arrow-diamond-filled" viewBox="0 0 14 10" refX="13" refY="5" markerWidth="14" markerHeight="10" markerUnits="userSpaceOnUse" orient="auto-start-reverse"><path d="M0,5 L7,0 L14,5 L7,10 z" fill="#1e293b" stroke="#1e293b" stroke-width="1"/></marker><marker id="arrow-diamond-open" viewBox="0 0 14 10" refX="13" refY="5" markerWidth="14" markerHeight="10" markerUnits="userSpaceOnUse" orient="auto-start-reverse"><path d="M0,5 L7,0 L14,5 L7,10 z" fill="#ffffff" stroke="#1e293b" stroke-width="1"/></marker><marker id="arrow-double-open" viewBox="0 0 16 12" refX="15" refY="6" markerWidth="16" markerHeight="12" markerUnits="userSpaceOnUse" orient="auto-start-reverse"><path d="M0,1 L8,6 L0,11 M7,1 L15,6 L7,11" fill="none" stroke="#1e293b" stroke-width="1.5" stroke-linejoin="round"/></marker><marker id="arrow-circle-open" viewBox="0 0 12 12" refX="11" refY="6" markerWidth="12" markerHeight="12" markerUnits="userSpaceOnUse" orient="auto-start-reverse"><circle cx="6" cy="6" r="4" fill="#ffffff" stroke="#1e293b" stroke-width="1.5"/></marker><marker id="arrow-circle-filled" viewBox="0 0 12 12" refX="11" refY="6" markerWidth="12" markerHeight="12" markerUnits="userSpaceOnUse" orient="auto-start-reverse"><circle cx="6" cy="6" r="4" fill="#1e293b" stroke="#1e293b" stroke-width="1.5"/></marker><marker id="arrow-triangle-filled" viewBox="0 0 12 12" refX="11" refY="6" markerWidth="12" markerHeight="12" markerUnits="userSpaceOnUse" orient="auto-start-reverse"><polygon points="0,0 12,6 0,12" fill="#1e293b" stroke="#1e293b" stroke-width="1.5"/></marker><marker id="arrow-box-filled" viewBox="0 0 12 12" refX="11" refY="6" markerWidth="12" markerHeight="12" markerUnits="userSpaceOnUse" orient="auto-start-reverse"><rect x="2" y="2" width="8" height="8" fill="#1e293b" stroke="#1e293b" stroke-width="1.5"/></marker><marker id="arrow-plus" viewBox="0 0 12 12" refX="11" refY="6" markerWidth="12" markerHeight="12" markerUnits="userSpaceOnUse" orient="auto-start-reverse"><path d="M6,1 L6,11 M1,6 L11,6" fill="none" stroke="#1e293b" stroke-width="1.8" stroke-linecap="round"/></marker><marker id="arrow-slash" viewBox="0 0 12 12" refX="10" refY="6" markerWidth="12" markerHeight="12" markerUnits="userSpaceOnUse" orient="auto-start-reverse"><path d="M3,2 L9,10" fill="none" stroke="#1e293b" stroke-width="1.8" stroke-linecap="round"/></marker><marker id="arrow-cross" viewBox="0 0 12 12" refX="11" refY="6" markerWidth="12" markerHeight="12" markerUnits="userSpaceOnUse" orient="auto-start-reverse"><path d="M2,2 L10,10 M10,2 L2,10" fill="none" stroke="#1e293b" stroke-width="1.8" stroke-linecap="round"/></marker><marker id="arrow-bracket-open" viewBox="0 0 12 14" refX="11" refY="7" markerWidth="12" markerHeight="14" markerUnits="userSpaceOnUse" orient="auto-start-reverse"><path d="M10,1 L4,1 L4,13 L10,13" fill="none" stroke="#1e293b" stroke-width="1.8" stroke-linecap="round" stroke-linejoin="round"/></marker></defs><marker id="arrow-ie-one" viewBox="0 0 24 16" refX="22" refY="8" markerWidth="24" markerHeight="16" markerUnits="userSpaceOnUse" orient="auto-start-reverse"><path d="M16,2 L16,14" fill="none" stroke="#1e293b" stroke-width="1.8" stroke-linecap="round"/></marker><marker id="arrow-ie-zero-one" viewBox="0 0 30 16" refX="28" refY="8" markerWidth="30" markerHeight="16" markerUnits="userSpaceOnUse" orient="auto-start-reverse"><circle cx="10" cy="8" r="4" fill="#ffffff" stroke="#1e293b" stroke-width="1.5"/><path d="M20,2 L20,14" fill="none" stroke="#1e293b" stroke-width="1.8" stroke-linecap="round"/></marker><marker id="arrow-ie-zero-many" viewBox="0 0 34 18" refX="32" refY="9" markerWidth="34" markerHeight="18" markerUnits="userSpaceOnUse" orient="auto-start-reverse"><circle cx="8" cy="9" r="4" fill="#ffffff" stroke="#1e293b" stroke-width="1.5"/><path d="M18,9 L31,2 M18,9 L31,9 M18,9 L31,16" fill="none" stroke="#1e293b" stroke-width="1.7" stroke-linecap="round"/></marker><marker id="arrow-ie-one-many" viewBox="0 0 34 18" refX="32" refY="9" markerWidth="34" markerHeight="18" markerUnits="userSpaceOnUse" orient="auto-start-reverse"><path d="M8,2 L8,16 M18,9 L31,2 M18,9 L31,9 M18,9 L31,16" fill="none" stroke="#1e293b" stroke-width="1.7" stroke-linecap="round"/></marker><text x="8" y="8" font-family="monospace" font-size="18" font-weight="600">Three-tier: cloud front-end + hybrid mid-tier + on-prem data</text><rect class="uml-group-frame" data-uml-group="Internet" x="376" y="46" width="191" height="256" rx="8" ry="8" fill="#f8faff" stroke="#1e293b" stroke-width="1.5"/><rect x="376" y="46" width="191" height="40" rx="8" ry="8" fill="#1e293b" stroke="none"/><rect x="376" y="78" width="191" height="8" fill="#1e293b" stroke="none"/><text x="384" y="78" font-family="monospace" font-size="11" font-weight="600" fill="#ffffff">Internet</text><line x1="376" y1="86" x2="567" y2="86" stroke="#1e293b" stroke-width="1"/><rect class="uml-group-frame" data-uml-group="Cloud Region (us-east-1)" x="46" y="342" width="1115" height="592" rx="8" ry="8" fill="#f8faff" stroke="#1e293b" stroke-width="1.5"/><rect x="46" y="342" width="1115" height="40" rx="8" ry="8" fill="#1e293b" stroke="none"/><rect x="46" y="374" width="1115" height="8" fill="#1e293b" stroke="none"/><text x="54" y="374" font-family="monospace" font-size="11" font-weight="600" fill="#ffffff">Cloud Region (us-east-1)</text><line x1="46" y1="382" x2="1161" y2="382" stroke="#1e293b" stroke-width="1"/><rect class="uml-group-frame" data-uml-group="Corporate Data Center" x="444" y="638" width="503" height="444" rx="8" ry="8" fill="#f8faff" stroke="#1e293b" stroke-width="1.5"/><rect x="444" y="638" width="503" height="40" rx="8" ry="8" fill="#1e293b" stroke="none"/><rect x="444" y="670" width="503" height="8" fill="#1e293b" stroke="none"/><text x="452" y="670" font-family="monospace" font-size="11" font-weight="600" fill="#ffffff">Corporate Data Center</text><line x1="444" y1="678" x2="947" y2="678" stroke="#1e293b" stroke-width="1"/><rect class="uml-group-frame" data-uml-group="Cloud Region (us-east-1)::App Cluster" x="252" y="512" width="438" height="84" rx="6" ry="6" fill="none" stroke="#1e293b" stroke-width="1.5" stroke-dasharray="4 3"/><text x="258" y="525" font-family="monospace" font-size="10" font-weight="600" fill="#1e293b">App Cluster</text><rect class="uml-group-frame" data-uml-group="Cloud Region (us-east-1)::Cache Cluster" x="88" y="660" width="354" height="232" rx="6" ry="6" fill="none" stroke="#1e293b" stroke-width="1.5" stroke-dasharray="4 3"/><text x="94" y="673" font-family="monospace" font-size="10" font-weight="600" fill="#1e293b">Cache Cluster</text><rect class="uml-group-frame" data-uml-group="Cloud Region (us-east-1)::Message Queue" x="989" y="660" width="130" height="84" rx="6" ry="6" fill="none" stroke="#1e293b" stroke-width="1.5" stroke-dasharray="4 3"/><text x="995" y="673" font-family="monospace" font-size="10" font-weight="600" fill="#1e293b">Message Queue</text><rect class="uml-group-frame" data-uml-group="Corporate Data Center::Database Cluster" x="486" y="808" width="242" height="232" rx="6" ry="6" fill="none" stroke="#1e293b" stroke-width="1.5" stroke-dasharray="4 3"/><text x="492" y="821" font-family="monospace" font-size="10" font-weight="600" fill="#1e293b">Database Cluster</text><desc data-uml-id="Internet::CDN">Internet::CDN</desc><polygon points="416,98 428,86 538,86 526,98" fill="#d4dff7" stroke="#1e293b" stroke-width="1"/><polygon points="526,98 538,86 538,130 526,142" fill="#b8c8ef" stroke="#1e293b" stroke-width="1"/><rect class="uml-node uml-deployment-shape" data-uml-kind="node" x="416" y="98" width="110" height="44" fill="#f0f4f8" stroke="#1e293b" stroke-width="1.5"/><text x="471" y="126" text-anchor="middle" font-family="monospace" font-size="13" font-weight="600" fill="#0f172a">CDN</text><desc data-uml-id="Internet::WAF">Internet::WAF</desc><polygon points="388,246 400,234 567,234 555,246" fill="#d4dff7" stroke="#1e293b" stroke-width="1"/><polygon points="555,246 567,234 567,278 555,290" fill="#b8c8ef" stroke="#1e293b" stroke-width="1"/><rect class="uml-node uml-deployment-shape" data-uml-kind="node" x="388" y="246" width="167" height="44" fill="#f0f4f8" stroke="#1e293b" stroke-width="1.5"/><text x="471" y="274" text-anchor="middle" font-family="monospace" font-size="13" font-weight="600" fill="#0f172a">WAF / DDoS Protection</text><desc data-uml-id="Cloud Region (us-east-1)::LB">Cloud Region (us-east-1)::LB</desc><polygon points="416,394 428,382 538,382 526,394" fill="#d4dff7" stroke="#1e293b" stroke-width="1"/><polygon points="526,394 538,382 538,426 526,438" fill="#b8c8ef" stroke="#1e293b" stroke-width="1"/><rect class="uml-node uml-deployment-shape" data-uml-kind="node" x="416" y="394" width="110" height="44" fill="#f0f4f8" stroke="#1e293b" stroke-width="1.5"/><text x="471" y="422" text-anchor="middle" font-family="monospace" font-size="13" font-weight="600" fill="#0f172a">Load Balancer</text><desc data-uml-id="Cloud Region (us-east-1)::App Cluster::WS1">Cloud Region (us-east-1)::App Cluster::WS1</desc><polygon points="570,542 582,530 692,530 680,542" fill="#d4dff7" stroke="#1e293b" stroke-width="1"/><polygon points="680,542 692,530 692,574 680,586" fill="#b8c8ef" stroke="#1e293b" stroke-width="1"/><rect class="uml-node uml-deployment-shape" data-uml-kind="node" x="570" y="542" width="110" height="44" fill="#f0f4f8" stroke="#1e293b" stroke-width="1.5"/><text x="625" y="570" text-anchor="middle" font-family="monospace" font-size="13" font-weight="600" fill="#0f172a">Web Server 1</text><desc data-uml-id="Cloud Region (us-east-1)::App Cluster::WS2">Cloud Region (us-east-1)::App Cluster::WS2</desc><polygon points="262,542 274,530 384,530 372,542" fill="#d4dff7" stroke="#1e293b" stroke-width="1"/><polygon points="372,542 384,530 384,574 372,586" fill="#b8c8ef" stroke="#1e293b" stroke-width="1"/><rect class="uml-node uml-deployment-shape" data-uml-kind="node" x="262" y="542" width="110" height="44" fill="#f0f4f8" stroke="#1e293b" stroke-width="1.5"/><text x="317" y="570" text-anchor="middle" font-family="monospace" font-size="13" font-weight="600" fill="#0f172a">Web Server 2</text><desc data-uml-id="Cloud Region (us-east-1)::App Cluster::WS3">Cloud Region (us-east-1)::App Cluster::WS3</desc><polygon points="416,542 428,530 538,530 526,542" fill="#d4dff7" stroke="#1e293b" stroke-width="1"/><polygon points="526,542 538,530 538,574 526,586" fill="#b8c8ef" stroke="#1e293b" stroke-width="1"/><rect class="uml-node uml-deployment-shape" data-uml-kind="node" x="416" y="542" width="110" height="44" fill="#f0f4f8" stroke="#1e293b" stroke-width="1.5"/><text x="471" y="570" text-anchor="middle" font-family="monospace" font-size="13" font-weight="600" fill="#0f172a">Web Server 3</text><desc data-uml-id="Cloud Region (us-east-1)::Cache Cluster::RP">Cloud Region (us-east-1)::Cache Cluster::RP</desc><polygon points="98,690 110,678 220,678 208,690" fill="#d4dff7" stroke="#1e293b" stroke-width="1"/><polygon points="208,690 220,678 220,722 208,734" fill="#b8c8ef" stroke="#1e293b" stroke-width="1"/><rect class="uml-node uml-deployment-shape" data-uml-kind="node" x="98" y="690" width="110" height="44" fill="#f0f4f8" stroke="#1e293b" stroke-width="1.5"/><text x="153" y="718" text-anchor="middle" font-family="monospace" font-size="13" font-weight="600" fill="#0f172a">Redis Primary</text><desc data-uml-id="Cloud Region (us-east-1)::Cache Cluster::RR">Cloud Region (us-east-1)::Cache Cluster::RR</desc><polygon points="322,838 334,826 444,826 432,838" fill="#d4dff7" stroke="#1e293b" stroke-width="1"/><polygon points="432,838 444,826 444,870 432,882" fill="#b8c8ef" stroke="#1e293b" stroke-width="1"/><rect class="uml-node uml-deployment-shape" data-uml-kind="node" x="322" y="838" width="110" height="44" fill="#f0f4f8" stroke="#1e293b" stroke-width="1.5"/><text x="377" y="866" text-anchor="middle" font-family="monospace" font-size="13" font-weight="600" fill="#0f172a">Redis Replica</text><desc data-uml-id="Cloud Region (us-east-1)::Message Queue::SQS">Cloud Region (us-east-1)::Message Queue::SQS</desc><polygon points="999,690 1011,678 1121,678 1109,690" fill="#d4dff7" stroke="#1e293b" stroke-width="1"/><polygon points="1109,690 1121,678 1121,722 1109,734" fill="#b8c8ef" stroke="#1e293b" stroke-width="1"/><rect class="uml-node uml-deployment-shape" data-uml-kind="node" x="999" y="690" width="110" height="44" fill="#f0f4f8" stroke="#1e293b" stroke-width="1.5"/><text x="1054" y="718" text-anchor="middle" font-family="monospace" font-size="13" font-weight="600" fill="#0f172a">SQS</text><desc data-uml-id="Corporate Data Center::VPN">Corporate Data Center::VPN</desc><polygon points="496,690 508,678 618,678 606,690" fill="#d4dff7" stroke="#1e293b" stroke-width="1"/><polygon points="606,690 618,678 618,722 606,734" fill="#b8c8ef" stroke="#1e293b" stroke-width="1"/><rect class="uml-node uml-deployment-shape" data-uml-kind="node" x="496" y="690" width="110" height="44" fill="#f0f4f8" stroke="#1e293b" stroke-width="1.5"/><text x="551" y="718" text-anchor="middle" font-family="monospace" font-size="13" font-weight="600" fill="#0f172a">VPN Gateway</text><desc data-uml-id="Corporate Data Center::Database Cluster::PG1">Corporate Data Center::Database Cluster::PG1</desc><polygon points="573,838 585,826 730,826 718,838" fill="#d4dff7" stroke="#1e293b" stroke-width="1"/><polygon points="718,838 730,826 730,870 718,882" fill="#b8c8ef" stroke="#1e293b" stroke-width="1"/><rect class="uml-node uml-deployment-shape" data-uml-kind="node" x="573" y="838" width="145" height="44" fill="#f0f4f8" stroke="#1e293b" stroke-width="1.5"/><text x="645" y="866" text-anchor="middle" font-family="monospace" font-size="13" font-weight="600" fill="#0f172a">PostgreSQL Primary</text><desc data-uml-id="Corporate Data Center::Database Cluster::PG2">Corporate Data Center::Database Cluster::PG2</desc><polygon points="496,986 508,974 653,974 641,986" fill="#d4dff7" stroke="#1e293b" stroke-width="1"/><polygon points="641,986 653,974 653,1018 641,1030" fill="#b8c8ef" stroke="#1e293b" stroke-width="1"/><rect class="uml-node uml-deployment-shape" data-uml-kind="node" x="496" y="986" width="145" height="44" fill="#f0f4f8" stroke="#1e293b" stroke-width="1.5"/><text x="568" y="1014" text-anchor="middle" font-family="monospace" font-size="13" font-weight="600" fill="#0f172a">PostgreSQL Standby</text><desc data-uml-id="Corporate Data Center::FS">Corporate Data Center::FS</desc><polygon points="825,690 837,678 947,678 935,690" fill="#d4dff7" stroke="#1e293b" stroke-width="1"/><polygon points="935,690 947,678 947,722 935,734" fill="#b8c8ef" stroke="#1e293b" stroke-width="1"/><rect class="uml-node uml-deployment-shape" data-uml-kind="node" x="825" y="690" width="110" height="44" fill="#f0f4f8" stroke="#1e293b" stroke-width="1.5"/><text x="880" y="718" text-anchor="middle" font-family="monospace" font-size="13" font-weight="600" fill="#0f172a">File Server</text><desc data-uml-id="Corporate Data Center::AD">Corporate Data Center::AD</desc><polygon points="650,690 662,678 793,678 781,690" fill="#d4dff7" stroke="#1e293b" stroke-width="1"/><polygon points="781,690 793,678 793,722 781,734" fill="#b8c8ef" stroke="#1e293b" stroke-width="1"/><rect class="uml-node uml-deployment-shape" data-uml-kind="node" x="650" y="690" width="131" height="44" fill="#f0f4f8" stroke="#1e293b" stroke-width="1.5"/><text x="715" y="718" text-anchor="middle" font-family="monospace" font-size="13" font-weight="600" fill="#0f172a">Active Directory</text><polyline class="uml-relation" data-uml-from="CDN" data-uml-to="WAF" data-uml-arrow="--&gt;" points="471,142 471,194 471,246" fill="none" stroke="#1e293b" stroke-width="2" marker-end="url(#arrow-open)" /><polyline class="uml-relation" data-uml-from="WAF" data-uml-to="LB" data-uml-arrow="--&gt;" points="471,290 471,342 471,394" fill="none" stroke="#1e293b" stroke-width="2" marker-end="url(#arrow-open)" /><polyline class="uml-relation" data-uml-from="LB" data-uml-to="WS1" data-uml-arrow="--&gt;" points="471,438 471,458 625,458 625,542" fill="none" stroke="#1e293b" stroke-width="2" marker-end="url(#arrow-open)" /><polyline class="uml-relation" data-uml-from="LB" data-uml-to="WS2" data-uml-arrow="--&gt;" points="471,438 471,490 317,490 317,542" fill="none" stroke="#1e293b" stroke-width="2" marker-end="url(#arrow-open)" /><polyline class="uml-relation" data-uml-from="LB" data-uml-to="WS3" data-uml-arrow="--&gt;" points="471,438 471,490 471,542" fill="none" stroke="#1e293b" stroke-width="2" marker-end="url(#arrow-open)" /><polyline class="uml-relation" data-uml-from="WS1" data-uml-to="RP" data-uml-arrow="--&gt;" points="625,586 625,686 153,686 153,690" fill="none" stroke="#1e293b" stroke-width="2" marker-end="url(#arrow-open)" /><polyline class="uml-relation" data-uml-from="WS2" data-uml-to="RP" data-uml-arrow="--&gt;" points="317,586 317,598 153,598 153,690" fill="none" stroke="#1e293b" stroke-width="2" marker-end="url(#arrow-open)" /><polyline class="uml-relation" data-uml-from="WS3" data-uml-to="RP" data-uml-arrow="--&gt;" points="471,586 471,614 153,614 153,690" fill="none" stroke="#1e293b" stroke-width="2" marker-end="url(#arrow-open)" /><polyline class="uml-relation" data-uml-from="RP" data-uml-to="RR" data-uml-arrow="--&gt;" points="153,734 153,782 377,782 377,838" fill="none" stroke="#1e293b" stroke-width="2" marker-end="url(#arrow-open)" /><polyline class="uml-relation" data-uml-from="WS1" data-uml-to="SQS" data-uml-arrow="--&gt;" points="625,586 625,686 1054,686 1054,690" fill="none" stroke="#1e293b" stroke-width="2" marker-end="url(#arrow-open)" /><polyline class="uml-relation" data-uml-from="WS1" data-uml-to="VPN" data-uml-arrow="--&gt;" points="625,586 625,630 551,630 551,690" fill="none" stroke="#1e293b" stroke-width="2" marker-end="url(#arrow-open)" /><polyline class="uml-relation" data-uml-from="VPN" data-uml-to="PG1" data-uml-arrow="--&gt;" points="551,734 551,834 645,834 645,838" fill="none" stroke="#1e293b" stroke-width="2" marker-end="url(#arrow-open)" /><polyline class="uml-relation" data-uml-from="PG1" data-uml-to="PG2" data-uml-arrow="--&gt;" points="645,882 645,934 568,934 568,986" fill="none" stroke="#1e293b" stroke-width="2" marker-end="url(#arrow-open)" /><polyline class="uml-relation" data-uml-from="WS1" data-uml-to="AD" data-uml-arrow="--&gt;" points="625,586 625,686 715,686 715,690" fill="none" stroke="#1e293b" stroke-width="2" marker-end="url(#arrow-open)" /><text class="uml-edge-label" data-uml-label-role="edge" x="475" y="672" text-anchor="middle" font-family="monospace" font-size="11" fill="#1e293b">cache lookups</text><text class="uml-edge-label" data-uml-label-role="edge" x="265" y="770" text-anchor="middle" font-family="monospace" font-size="11" fill="#1e293b">replication</text><text class="uml-edge-label" data-uml-label-role="edge" x="827" y="672" text-anchor="middle" font-family="monospace" font-size="11" fill="#1e293b">enqueue jobs</text><rect class="uml-edge-label-bg" data-uml-label-role="edge-background" x="521" y="687" width="88" height="18" fill="white" opacity="0.85"/><text class="uml-edge-label" data-uml-label-role="edge" x="565" y="637" text-anchor="middle" font-family="monospace" font-size="11" fill="#1e293b">data queries</text><rect class="uml-edge-label-bg" data-uml-label-role="edge-background" x="526" y="771" width="74" height="18" fill="white" opacity="0.85"/><text class="uml-edge-label" data-uml-label-role="edge" x="563" y="784" text-anchor="middle" font-family="monospace" font-size="11" fill="#1e293b">read/write</text><rect class="uml-edge-label-bg" data-uml-label-role="edge-background" x="566" y="909" width="80" height="18" fill="white" opacity="0.85"/><text class="uml-edge-label" data-uml-label-role="edge" x="606" y="922" text-anchor="middle" font-family="monospace" font-size="11" fill="#1e293b">replication</text><text class="uml-edge-label" data-uml-label-role="edge" x="639" y="644" text-anchor="middle" font-family="monospace" font-size="11" fill="#1e293b">LDAP auth</text><text x="384" y="78" font-family="monospace" font-size="11" font-weight="600" fill="#ffffff">Internet</text><text x="54" y="374" font-family="monospace" font-size="11" font-weight="600" fill="#ffffff">Cloud Region (us-east-1)</text><text x="452" y="670" font-family="monospace" font-size="11" font-weight="600" fill="#ffffff">Corporate Data Center</text></svg>