<svg xmlns="http://www.w3.org/2000/svg" width="1484" height="1604" viewBox="0 0 1484 1604"><rect width="100%" height="100%" fill="#f0f4f8"/><defs><marker id="arrow-open" viewBox="0 0 10 10" refX="9" refY="5" markerWidth="10" markerHeight="10" markerUnits="userSpaceOnUse" orient="auto-start-reverse"><path d="M0,0 L10,5 L0,10" fill="none" stroke="#1e293b" stroke-width="1.5"/></marker><marker id="arrow-triangle" viewBox="0 0 12 12" refX="11" refY="6" markerWidth="12" markerHeight="12" markerUnits="userSpaceOnUse" orient="auto-start-reverse"><polygon points="0,0 12,6 0,12" fill="#ffffff" stroke="#1e293b" stroke-width="1.5" fill-rule="nonzero"/></marker><marker id="arrow-diamond-filled" viewBox="0 0 14 10" refX="13" refY="5" markerWidth="14" markerHeight="10" markerUnits="userSpaceOnUse" orient="auto-start-reverse"><path d="M0,5 L7,0 L14,5 L7,10 z" fill="#1e293b" stroke="#1e293b" stroke-width="1"/></marker><marker id="arrow-diamond-open" viewBox="0 0 14 10" refX="13" refY="5" markerWidth="14" markerHeight="10" markerUnits="userSpaceOnUse" orient="auto-start-reverse"><path d="M0,5 L7,0 L14,5 L7,10 z" fill="#ffffff" stroke="#1e293b" stroke-width="1"/></marker></defs><text x="40" y="40" font-family="monospace" font-size="18" font-weight="600">Three-tier: cloud front-end + hybrid mid-tier + on-prem data</text><rect class="uml-group-frame" data-uml-group="Internet&quot; &lt;&lt;cloud&gt;&gt;" x="598" y="90" width="248" height="356" rx="8" ry="8" fill="#f8faff" stroke="#1e293b" stroke-width="1.5"/><rect x="598" y="90" width="208" height="40" rx="8" ry="8" fill="#1e293b" stroke="#1e293b" stroke-width="1.5"/><rect x="598" y="122" width="208" height="8" fill="#1e293b" stroke="none"/><text x="606" y="122" font-family="monospace" font-size="11" font-weight="600" fill="#ffffff">node Internet&quot; &lt;&lt;cloud&gt;&gt;</text><line x1="598" y1="130" x2="846" y2="130" stroke="#1e293b" stroke-width="1"/><rect class="uml-group-frame" data-uml-group="Cloud Region (us-east-1)&quot; &lt;&lt;cloud&gt;&gt;" x="358" y="490" width="968" height="756" rx="8" ry="8" fill="#f8faff" stroke="#1e293b" stroke-width="1.5"/><rect x="358" y="490" width="336" height="40" rx="8" ry="8" fill="#1e293b" stroke="#1e293b" stroke-width="1.5"/><rect x="358" y="522" width="336" height="8" fill="#1e293b" stroke="none"/><text x="366" y="522" font-family="monospace" font-size="11" font-weight="600" fill="#ffffff">node Cloud Region (us-east-1)&quot; &lt;&lt;cloud&gt;&gt;</text><line x1="358" y1="530" x2="1326" y2="530" stroke="#1e293b" stroke-width="1"/><rect class="uml-group-frame" data-uml-group="Corporate Data Center" x="118" y="890" width="968" height="556" rx="8" ry="8" fill="#f8faff" stroke="#1e293b" stroke-width="1.5"/><rect x="118" y="890" width="224" height="40" rx="8" ry="8" fill="#1e293b" stroke="#1e293b" stroke-width="1.5"/><rect x="118" y="922" width="224" height="8" fill="#1e293b" stroke="none"/><text x="126" y="922" font-family="monospace" font-size="11" font-weight="600" fill="#ffffff">node Corporate Data Center</text><line x1="118" y1="930" x2="1086" y2="930" stroke="#1e293b" stroke-width="1"/><rect class="uml-group-frame" data-uml-group="Cloud Region (us-east-1)&quot; &lt;&lt;cloud&gt;&gt;::App Cluster" x="372" y="712" width="700" height="120" rx="6" ry="6" fill="none" stroke="#1e293b" stroke-width="1.5" stroke-dasharray="4 3"/><text x="378" y="725" font-family="monospace" font-size="10" font-weight="600" fill="#1e293b">node App Cluster</text><rect class="uml-group-frame" data-uml-group="Cloud Region (us-east-1)&quot; &lt;&lt;cloud&gt;&gt;::Cache Cluster" x="372" y="912" width="580" height="320" rx="6" ry="6" fill="none" stroke="#1e293b" stroke-width="1.5" stroke-dasharray="4 3"/><text x="378" y="925" font-family="monospace" font-size="10" font-weight="600" fill="#1e293b">node Cache Cluster</text><rect class="uml-group-frame" data-uml-group="Cloud Region (us-east-1)&quot; &lt;&lt;cloud&gt;&gt;::Message Queue&quot; &lt;&lt;queue&gt;&gt;" x="1092" y="912" width="220" height="120" rx="6" ry="6" fill="none" stroke="#1e293b" stroke-width="1.5" stroke-dasharray="4 3"/><text x="1098" y="925" font-family="monospace" font-size="10" font-weight="600" fill="#1e293b">node Message Queue&quot; &lt;&lt;queue&gt;&gt;</text><rect class="uml-group-frame" data-uml-group="Corporate Data Center::Database Cluster" x="492" y="1112" width="340" height="320" rx="6" ry="6" fill="none" stroke="#1e293b" stroke-width="1.5" stroke-dasharray="4 3"/><text x="498" y="1125" font-family="monospace" font-size="10" font-weight="600" fill="#1e293b">node Database Cluster</text><desc data-uml-id="Internet&quot; &lt;&lt;cloud&gt;&gt;::CDN">Internet&quot; &lt;&lt;cloud&gt;&gt;::CDN</desc><polygon points="622,142 634,130 834,130 822,142" fill="#d4dff7" stroke="#1e293b" stroke-width="1"/><polygon points="822,142 834,130 834,210 822,222" fill="#b8c8ef" stroke="#1e293b" stroke-width="1"/><rect class="uml-node uml-deployment-shape" data-uml-kind="node" x="622" y="142" width="200" height="80" fill="#f0f4f8" stroke="#1e293b" stroke-width="1.5"/><text x="722" y="188" text-anchor="middle" font-family="monospace" font-size="13" font-weight="600" fill="#0f172a">CDN</text><text x="722" y="156" text-anchor="middle" font-family="monospace" font-size="10" fill="#0f172a">node</text><desc data-uml-id="Internet&quot; &lt;&lt;cloud&gt;&gt;::WAF">Internet&quot; &lt;&lt;cloud&gt;&gt;::WAF</desc><polygon points="622,342 634,330 834,330 822,342" fill="#d4dff7" stroke="#1e293b" stroke-width="1"/><polygon points="822,342 834,330 834,410 822,422" fill="#b8c8ef" stroke="#1e293b" stroke-width="1"/><rect class="uml-node uml-deployment-shape" data-uml-kind="node" x="622" y="342" width="200" height="80" fill="#f0f4f8" stroke="#1e293b" stroke-width="1.5"/><text x="722" y="388" text-anchor="middle" font-family="monospace" font-size="13" font-weight="600" fill="#0f172a">WAF / DDoS Protection</text><text x="722" y="356" text-anchor="middle" font-family="monospace" font-size="10" fill="#0f172a">node</text><desc data-uml-id="Cloud Region (us-east-1)&quot; &lt;&lt;cloud&gt;&gt;::LB">Cloud Region (us-east-1)&quot; &lt;&lt;cloud&gt;&gt;::LB</desc><polygon points="622,542 634,530 834,530 822,542" fill="#d4dff7" stroke="#1e293b" stroke-width="1"/><polygon points="822,542 834,530 834,610 822,622" fill="#b8c8ef" stroke="#1e293b" stroke-width="1"/><rect class="uml-node uml-deployment-shape" data-uml-kind="node" x="622" y="542" width="200" height="80" fill="#f0f4f8" stroke="#1e293b" stroke-width="1.5"/><text x="722" y="588" text-anchor="middle" font-family="monospace" font-size="13" font-weight="600" fill="#0f172a">Load Balancer</text><text x="722" y="556" text-anchor="middle" font-family="monospace" font-size="10" fill="#0f172a">node</text><desc data-uml-id="Cloud Region (us-east-1)&quot; &lt;&lt;cloud&gt;&gt;::App Cluster::WS1">Cloud Region (us-east-1)&quot; &lt;&lt;cloud&gt;&gt;::App Cluster::WS1</desc><polygon points="862,742 874,730 1074,730 1062,742" fill="#d4dff7" stroke="#1e293b" stroke-width="1"/><polygon points="1062,742 1074,730 1074,810 1062,822" fill="#b8c8ef" stroke="#1e293b" stroke-width="1"/><rect class="uml-node uml-deployment-shape" data-uml-kind="node" x="862" y="742" width="200" height="80" fill="#f0f4f8" stroke="#1e293b" stroke-width="1.5"/><text x="962" y="788" text-anchor="middle" font-family="monospace" font-size="13" font-weight="600" fill="#0f172a">Web Server 1</text><text x="962" y="756" text-anchor="middle" font-family="monospace" font-size="10" fill="#0f172a">node</text><desc data-uml-id="Cloud Region (us-east-1)&quot; &lt;&lt;cloud&gt;&gt;::App Cluster::WS2">Cloud Region (us-east-1)&quot; &lt;&lt;cloud&gt;&gt;::App Cluster::WS2</desc><polygon points="382,742 394,730 594,730 582,742" fill="#d4dff7" stroke="#1e293b" stroke-width="1"/><polygon points="582,742 594,730 594,810 582,822" fill="#b8c8ef" stroke="#1e293b" stroke-width="1"/><rect class="uml-node uml-deployment-shape" data-uml-kind="node" x="382" y="742" width="200" height="80" fill="#f0f4f8" stroke="#1e293b" stroke-width="1.5"/><text x="482" y="788" text-anchor="middle" font-family="monospace" font-size="13" font-weight="600" fill="#0f172a">Web Server 2</text><text x="482" y="756" text-anchor="middle" font-family="monospace" font-size="10" fill="#0f172a">node</text><desc data-uml-id="Cloud Region (us-east-1)&quot; &lt;&lt;cloud&gt;&gt;::App Cluster::WS3">Cloud Region (us-east-1)&quot; &lt;&lt;cloud&gt;&gt;::App Cluster::WS3</desc><polygon points="622,742 634,730 834,730 822,742" fill="#d4dff7" stroke="#1e293b" stroke-width="1"/><polygon points="822,742 834,730 834,810 822,822" fill="#b8c8ef" stroke="#1e293b" stroke-width="1"/><rect class="uml-node uml-deployment-shape" data-uml-kind="node" x="622" y="742" width="200" height="80" fill="#f0f4f8" stroke="#1e293b" stroke-width="1.5"/><text x="722" y="788" text-anchor="middle" font-family="monospace" font-size="13" font-weight="600" fill="#0f172a">Web Server 3</text><text x="722" y="756" text-anchor="middle" font-family="monospace" font-size="10" fill="#0f172a">node</text><desc data-uml-id="Cloud Region (us-east-1)&quot; &lt;&lt;cloud&gt;&gt;::Cache Cluster::RP">Cloud Region (us-east-1)&quot; &lt;&lt;cloud&gt;&gt;::Cache Cluster::RP</desc><polygon points="382,942 394,930 594,930 582,942" fill="#d4dff7" stroke="#1e293b" stroke-width="1"/><polygon points="582,942 594,930 594,1010 582,1022" fill="#b8c8ef" stroke="#1e293b" stroke-width="1"/><rect class="uml-node uml-deployment-shape" data-uml-kind="node" x="382" y="942" width="200" height="80" fill="#f0f4f8" stroke="#1e293b" stroke-width="1.5"/><text x="482" y="988" text-anchor="middle" font-family="monospace" font-size="13" font-weight="600" fill="#0f172a">Redis Primary</text><text x="482" y="956" text-anchor="middle" font-family="monospace" font-size="10" fill="#0f172a">node</text><desc data-uml-id="Cloud Region (us-east-1)&quot; &lt;&lt;cloud&gt;&gt;::Cache Cluster::RR">Cloud Region (us-east-1)&quot; &lt;&lt;cloud&gt;&gt;::Cache Cluster::RR</desc><polygon points="742,1142 754,1130 954,1130 942,1142" fill="#d4dff7" stroke="#1e293b" stroke-width="1"/><polygon points="942,1142 954,1130 954,1210 942,1222" fill="#b8c8ef" stroke="#1e293b" stroke-width="1"/><rect class="uml-node uml-deployment-shape" data-uml-kind="node" x="742" y="1142" width="200" height="80" fill="#f0f4f8" stroke="#1e293b" stroke-width="1.5"/><text x="842" y="1188" text-anchor="middle" font-family="monospace" font-size="13" font-weight="600" fill="#0f172a">Redis Replica</text><text x="842" y="1156" text-anchor="middle" font-family="monospace" font-size="10" fill="#0f172a">node</text><desc data-uml-id="Cloud Region (us-east-1)&quot; &lt;&lt;cloud&gt;&gt;::Message Queue&quot; &lt;&lt;queue&gt;&gt;::SQS">Cloud Region (us-east-1)&quot; &lt;&lt;cloud&gt;&gt;::Message Queue&quot; &lt;&lt;queue&gt;&gt;::SQS</desc><polygon points="1102,942 1114,930 1314,930 1302,942" fill="#d4dff7" stroke="#1e293b" stroke-width="1"/><polygon points="1302,942 1314,930 1314,1010 1302,1022" fill="#b8c8ef" stroke="#1e293b" stroke-width="1"/><rect class="uml-node uml-deployment-shape" data-uml-kind="node" x="1102" y="942" width="200" height="80" fill="#f0f4f8" stroke="#1e293b" stroke-width="1.5"/><text x="1202" y="988" text-anchor="middle" font-family="monospace" font-size="13" font-weight="600" fill="#0f172a">SQS</text><text x="1202" y="956" text-anchor="middle" font-family="monospace" font-size="10" fill="#0f172a">node</text><desc data-uml-id="Corporate Data Center::VPN">Corporate Data Center::VPN</desc><polygon points="142,942 154,930 354,930 342,942" fill="#d4dff7" stroke="#1e293b" stroke-width="1"/><polygon points="342,942 354,930 354,1010 342,1022" fill="#b8c8ef" stroke="#1e293b" stroke-width="1"/><rect class="uml-node uml-deployment-shape" data-uml-kind="node" x="142" y="942" width="200" height="80" fill="#f0f4f8" stroke="#1e293b" stroke-width="1.5"/><text x="242" y="988" text-anchor="middle" font-family="monospace" font-size="13" font-weight="600" fill="#0f172a">VPN Gateway</text><text x="242" y="956" text-anchor="middle" font-family="monospace" font-size="10" fill="#0f172a">node</text><desc data-uml-id="Corporate Data Center::Database Cluster::PG1">Corporate Data Center::Database Cluster::PG1</desc><polygon points="502,1142 514,1130 714,1130 702,1142" fill="#d4dff7" stroke="#1e293b" stroke-width="1"/><polygon points="702,1142 714,1130 714,1210 702,1222" fill="#b8c8ef" stroke="#1e293b" stroke-width="1"/><rect class="uml-node uml-deployment-shape" data-uml-kind="node" x="502" y="1142" width="200" height="80" fill="#f0f4f8" stroke="#1e293b" stroke-width="1.5"/><text x="602" y="1188" text-anchor="middle" font-family="monospace" font-size="13" font-weight="600" fill="#0f172a">PostgreSQL Primary</text><text x="602" y="1156" text-anchor="middle" font-family="monospace" font-size="10" fill="#0f172a">node</text><desc data-uml-id="Corporate Data Center::Database Cluster::PG2">Corporate Data Center::Database Cluster::PG2</desc><polygon points="622,1342 634,1330 834,1330 822,1342" fill="#d4dff7" stroke="#1e293b" stroke-width="1"/><polygon points="822,1342 834,1330 834,1410 822,1422" fill="#b8c8ef" stroke="#1e293b" stroke-width="1"/><rect class="uml-node uml-deployment-shape" data-uml-kind="node" x="622" y="1342" width="200" height="80" fill="#f0f4f8" stroke="#1e293b" stroke-width="1.5"/><text x="722" y="1388" text-anchor="middle" font-family="monospace" font-size="13" font-weight="600" fill="#0f172a">PostgreSQL Standby</text><text x="722" y="1356" text-anchor="middle" font-family="monospace" font-size="10" fill="#0f172a">node</text><desc data-uml-id="Corporate Data Center::FS">Corporate Data Center::FS</desc><polygon points="862,942 874,930 1074,930 1062,942" fill="#d4dff7" stroke="#1e293b" stroke-width="1"/><polygon points="1062,942 1074,930 1074,1010 1062,1022" fill="#b8c8ef" stroke="#1e293b" stroke-width="1"/><rect class="uml-node uml-deployment-shape" data-uml-kind="node" x="862" y="942" width="200" height="80" fill="#f0f4f8" stroke="#1e293b" stroke-width="1.5"/><text x="962" y="988" text-anchor="middle" font-family="monospace" font-size="13" font-weight="600" fill="#0f172a">File Server</text><text x="962" y="956" text-anchor="middle" font-family="monospace" font-size="10" fill="#0f172a">node</text><desc data-uml-id="Corporate Data Center::AD">Corporate Data Center::AD</desc><polygon points="622,942 634,930 834,930 822,942" fill="#d4dff7" stroke="#1e293b" stroke-width="1"/><polygon points="822,942 834,930 834,1010 822,1022" fill="#b8c8ef" stroke="#1e293b" stroke-width="1"/><rect class="uml-node uml-deployment-shape" data-uml-kind="node" x="622" y="942" width="200" height="80" fill="#f0f4f8" stroke="#1e293b" stroke-width="1.5"/><text x="722" y="988" text-anchor="middle" font-family="monospace" font-size="13" font-weight="600" fill="#0f172a">Active Directory</text><text x="722" y="956" text-anchor="middle" font-family="monospace" font-size="10" fill="#0f172a">node</text><polyline class="uml-relation" data-uml-from="CDN" data-uml-to="WAF" data-uml-arrow="--&gt;" points="722,222 722,282 722,342" fill="none" stroke="#1e293b" stroke-width="2" marker-end="url(#arrow-open)" /><polyline class="uml-relation" data-uml-from="WAF" data-uml-to="LB" data-uml-arrow="--&gt;" points="722,422 722,482 722,542" fill="none" stroke="#1e293b" stroke-width="2" marker-end="url(#arrow-open)" /><polyline class="uml-relation" data-uml-from="LB" data-uml-to="WS1" data-uml-arrow="--&gt;" points="722,622 722,674 962,674 962,742" fill="none" stroke="#1e293b" stroke-width="2" marker-end="url(#arrow-open)" /><polyline class="uml-relation" data-uml-from="LB" data-uml-to="WS2" data-uml-arrow="--&gt;" points="722,622 722,682 482,682 482,742" fill="none" stroke="#1e293b" stroke-width="2" marker-end="url(#arrow-open)" /><polyline class="uml-relation" data-uml-from="LB" data-uml-to="WS3" data-uml-arrow="--&gt;" points="722,622 722,690 722,742" fill="none" stroke="#1e293b" stroke-width="2" marker-end="url(#arrow-open)" /><polyline class="uml-relation" data-uml-from="WS1" data-uml-to="RP" data-uml-arrow="--&gt;" points="962,822 962,894 482,894 482,942" fill="none" stroke="#1e293b" stroke-width="2" marker-end="url(#arrow-open)" /><polyline class="uml-relation" data-uml-from="WS2" data-uml-to="RP" data-uml-arrow="--&gt;" points="482,822 482,862 482,942" fill="none" stroke="#1e293b" stroke-width="2" marker-end="url(#arrow-open)" /><polyline class="uml-relation" data-uml-from="WS3" data-uml-to="RP" data-uml-arrow="--&gt;" points="722,822 722,870 482,870 482,942" fill="none" stroke="#1e293b" stroke-width="2" marker-end="url(#arrow-open)" /><polyline class="uml-relation" data-uml-from="RP" data-uml-to="RR" data-uml-arrow="--&gt;" points="482,1022 482,1086 842,1086 842,1142" fill="none" stroke="#1e293b" stroke-width="2" marker-end="url(#arrow-open)" /><polyline class="uml-relation" data-uml-from="WS1" data-uml-to="SQS" data-uml-arrow="--&gt;" points="962,822 962,902 1202,902 1202,942" fill="none" stroke="#1e293b" stroke-width="2" marker-end="url(#arrow-open)" /><polyline class="uml-relation" data-uml-from="WS1" data-uml-to="VPN" data-uml-arrow="--&gt;" points="962,822 962,878 242,878 242,942" fill="none" stroke="#1e293b" stroke-width="2" marker-end="url(#arrow-open)" /><polyline class="uml-relation" data-uml-from="VPN" data-uml-to="PG1" data-uml-arrow="--&gt;" points="242,1022 242,1078 602,1078 602,1142" fill="none" stroke="#1e293b" stroke-width="2" marker-end="url(#arrow-open)" /><polyline class="uml-relation" data-uml-from="PG1" data-uml-to="PG2" data-uml-arrow="--&gt;" points="602,1222 602,1282 722,1282 722,1342" fill="none" stroke="#1e293b" stroke-width="2" marker-end="url(#arrow-open)" /><polyline class="uml-relation" data-uml-from="WS1" data-uml-to="AD" data-uml-arrow="--&gt;" points="962,822 962,886 722,886 722,942" fill="none" stroke="#1e293b" stroke-width="2" marker-end="url(#arrow-open)" /><text x="722" y="882" text-anchor="middle" font-family="monospace" font-size="11" fill="#1e293b">cache lookups</text><text x="662" y="1074" text-anchor="middle" font-family="monospace" font-size="11" fill="#1e293b">replication</text><text x="1082" y="890" text-anchor="middle" font-family="monospace" font-size="11" fill="#1e293b">enqueue jobs</text><text x="602" y="866" text-anchor="middle" font-family="monospace" font-size="11" fill="#1e293b">data queries</text><text x="422" y="1066" text-anchor="middle" font-family="monospace" font-size="11" fill="#1e293b">read/write</text><text x="662" y="1270" text-anchor="middle" font-family="monospace" font-size="11" fill="#1e293b">replication</text><text x="842" y="874" text-anchor="middle" font-family="monospace" font-size="11" fill="#1e293b">LDAP auth</text></svg>