<svg xmlns="http://www.w3.org/2000/svg" width="2461" height="2132" viewBox="0 0 2461 2132"><rect width="100%" height="100%" fill="#f0f4f8"/><defs><marker id="arrow-open" viewBox="0 0 10 10" refX="9" refY="5" markerWidth="10" markerHeight="10" markerUnits="userSpaceOnUse" orient="auto-start-reverse"><path d="M0,0 L10,5 L0,10" fill="none" stroke="#1e293b" stroke-width="1.5"/></marker><marker id="arrow-triangle" viewBox="0 0 12 12" refX="11" refY="6" markerWidth="12" markerHeight="12" markerUnits="userSpaceOnUse" orient="auto-start-reverse"><polygon points="0,0 12,6 0,12" fill="#ffffff" stroke="#1e293b" stroke-width="1.5" fill-rule="nonzero"/></marker><marker id="arrow-diamond-filled" viewBox="0 0 14 10" refX="13" refY="5" markerWidth="14" markerHeight="10" markerUnits="userSpaceOnUse" orient="auto-start-reverse"><path d="M0,5 L7,0 L14,5 L7,10 z" fill="#1e293b" stroke="#1e293b" stroke-width="1"/></marker><marker id="arrow-diamond-open" viewBox="0 0 14 10" refX="13" refY="5" markerWidth="14" markerHeight="10" markerUnits="userSpaceOnUse" orient="auto-start-reverse"><path d="M0,5 L7,0 L14,5 L7,10 z" fill="#ffffff" stroke="#1e293b" stroke-width="1"/></marker></defs><text x="40" y="40" font-family="monospace" font-size="18" font-weight="600">Three-tier: cloud front-end + hybrid mid-tier + on-prem data</text><rect class="uml-group-frame" data-uml-group="Internet&quot; &lt;&lt;cloud&gt;&gt;" x="694" y="78" width="248" height="456" rx="8" ry="8" fill="#f8faff" stroke="#1e293b" stroke-width="1.5"/><rect x="694" y="78" width="248" height="40" rx="8" ry="8" fill="#1e293b" stroke="none"/><rect x="694" y="110" width="248" height="8" fill="#1e293b" stroke="none"/><text x="702" y="110" font-family="monospace" font-size="11" font-weight="600" fill="#ffffff">node Internet&quot; &lt;&lt;cloud&gt;&gt;</text><line x1="694" y1="118" x2="942" y2="118" stroke="#1e293b" stroke-width="1"/><rect class="uml-group-frame" data-uml-group="Cloud Region (us-east-1)&quot; &lt;&lt;cloud&gt;&gt;" x="118" y="654" width="1400" height="1032" rx="8" ry="8" fill="#f8faff" stroke="#1e293b" stroke-width="1.5"/><rect x="118" y="654" width="1400" height="40" rx="8" ry="8" fill="#1e293b" stroke="none"/><rect x="118" y="686" width="1400" height="8" fill="#1e293b" stroke="none"/><text x="126" y="686" font-family="monospace" font-size="11" font-weight="600" fill="#ffffff">node Cloud Region (us-east-1)&quot; &lt;&lt;cloud&gt;&gt;</text><line x1="118" y1="694" x2="1518" y2="694" stroke="#1e293b" stroke-width="1"/><rect class="uml-group-frame" data-uml-group="Corporate Data Center" x="1558" y="1230" width="824" height="744" rx="8" ry="8" fill="#f8faff" stroke="#1e293b" stroke-width="1.5"/><rect x="1558" y="1230" width="824" height="40" rx="8" ry="8" fill="#1e293b" stroke="none"/><rect x="1558" y="1262" width="824" height="8" fill="#1e293b" stroke="none"/><text x="1566" y="1262" font-family="monospace" font-size="11" font-weight="600" fill="#ffffff">node Corporate Data Center</text><line x1="1558" y1="1270" x2="2382" y2="1270" stroke="#1e293b" stroke-width="1"/><rect class="uml-group-frame" data-uml-group="Cloud Region (us-east-1)&quot; &lt;&lt;cloud&gt;&gt;::App Cluster" x="420" y="976" width="796" height="120" rx="6" ry="6" fill="none" stroke="#1e293b" stroke-width="1.5" stroke-dasharray="4 3"/><text x="426" y="989" font-family="monospace" font-size="10" font-weight="600" fill="#1e293b">node App Cluster</text><rect class="uml-group-frame" data-uml-group="Cloud Region (us-east-1)&quot; &lt;&lt;cloud&gt;&gt;::Cache Cluster" x="132" y="1264" width="652" height="408" rx="6" ry="6" fill="none" stroke="#1e293b" stroke-width="1.5" stroke-dasharray="4 3"/><text x="138" y="1277" font-family="monospace" font-size="10" font-weight="600" fill="#1e293b">node Cache Cluster</text><rect class="uml-group-frame" data-uml-group="Cloud Region (us-east-1)&quot; &lt;&lt;cloud&gt;&gt;::Message Queue&quot; &lt;&lt;queue&gt;&gt;" x="1284" y="1264" width="220" height="120" rx="6" ry="6" fill="none" stroke="#1e293b" stroke-width="1.5" stroke-dasharray="4 3"/><text x="1290" y="1277" font-family="monospace" font-size="10" font-weight="600" fill="#1e293b">node Message Queue&quot; &lt;&lt;queue&gt;&gt;</text><rect class="uml-group-frame" data-uml-group="Corporate Data Center::Database Cluster" x="1860" y="1552" width="364" height="408" rx="6" ry="6" fill="none" stroke="#1e293b" stroke-width="1.5" stroke-dasharray="4 3"/><text x="1866" y="1565" font-family="monospace" font-size="10" font-weight="600" fill="#1e293b">node Database Cluster</text><desc data-uml-id="Internet&quot; &lt;&lt;cloud&gt;&gt;::CDN">Internet&quot; &lt;&lt;cloud&gt;&gt;::CDN</desc><polygon points="718,142 730,130 930,130 918,142" fill="#d4dff7" stroke="#1e293b" stroke-width="1"/><polygon points="918,142 930,130 930,210 918,222" fill="#b8c8ef" stroke="#1e293b" stroke-width="1"/><rect class="uml-node uml-deployment-shape" data-uml-kind="node" x="718" y="142" width="200" height="80" fill="#f0f4f8" stroke="#1e293b" stroke-width="1.5"/><text x="818" y="188" text-anchor="middle" font-family="monospace" font-size="13" font-weight="600" fill="#0f172a">CDN</text><text x="818" y="156" text-anchor="middle" font-family="monospace" font-size="10" fill="#0f172a">node</text><desc data-uml-id="Internet&quot; &lt;&lt;cloud&gt;&gt;::WAF">Internet&quot; &lt;&lt;cloud&gt;&gt;::WAF</desc><polygon points="718,430 730,418 930,418 918,430" fill="#d4dff7" stroke="#1e293b" stroke-width="1"/><polygon points="918,430 930,418 930,498 918,510" fill="#b8c8ef" stroke="#1e293b" stroke-width="1"/><rect class="uml-node uml-deployment-shape" data-uml-kind="node" x="718" y="430" width="200" height="80" fill="#f0f4f8" stroke="#1e293b" stroke-width="1.5"/><text x="818" y="476" text-anchor="middle" font-family="monospace" font-size="13" font-weight="600" fill="#0f172a">WAF / DDoS Protection</text><text x="818" y="444" text-anchor="middle" font-family="monospace" font-size="10" fill="#0f172a">node</text><desc data-uml-id="Cloud Region (us-east-1)&quot; &lt;&lt;cloud&gt;&gt;::LB">Cloud Region (us-east-1)&quot; &lt;&lt;cloud&gt;&gt;::LB</desc><polygon points="718,718 730,706 930,706 918,718" fill="#d4dff7" stroke="#1e293b" stroke-width="1"/><polygon points="918,718 930,706 930,786 918,798" fill="#b8c8ef" stroke="#1e293b" stroke-width="1"/><rect class="uml-node uml-deployment-shape" data-uml-kind="node" x="718" y="718" width="200" height="80" fill="#f0f4f8" stroke="#1e293b" stroke-width="1.5"/><text x="818" y="764" text-anchor="middle" font-family="monospace" font-size="13" font-weight="600" fill="#0f172a">Load Balancer</text><text x="818" y="732" text-anchor="middle" font-family="monospace" font-size="10" fill="#0f172a">node</text><desc data-uml-id="Cloud Region (us-east-1)&quot; &lt;&lt;cloud&gt;&gt;::App Cluster::WS1">Cloud Region (us-east-1)&quot; &lt;&lt;cloud&gt;&gt;::App Cluster::WS1</desc><polygon points="1006,1006 1018,994 1218,994 1206,1006" fill="#d4dff7" stroke="#1e293b" stroke-width="1"/><polygon points="1206,1006 1218,994 1218,1074 1206,1086" fill="#b8c8ef" stroke="#1e293b" stroke-width="1"/><rect class="uml-node uml-deployment-shape" data-uml-kind="node" x="1006" y="1006" width="200" height="80" fill="#f0f4f8" stroke="#1e293b" stroke-width="1.5"/><text x="1106" y="1052" text-anchor="middle" font-family="monospace" font-size="13" font-weight="600" fill="#0f172a">Web Server 1</text><text x="1106" y="1020" text-anchor="middle" font-family="monospace" font-size="10" fill="#0f172a">node</text><desc data-uml-id="Cloud Region (us-east-1)&quot; &lt;&lt;cloud&gt;&gt;::App Cluster::WS2">Cloud Region (us-east-1)&quot; &lt;&lt;cloud&gt;&gt;::App Cluster::WS2</desc><polygon points="430,1006 442,994 642,994 630,1006" fill="#d4dff7" stroke="#1e293b" stroke-width="1"/><polygon points="630,1006 642,994 642,1074 630,1086" fill="#b8c8ef" stroke="#1e293b" stroke-width="1"/><rect class="uml-node uml-deployment-shape" data-uml-kind="node" x="430" y="1006" width="200" height="80" fill="#f0f4f8" stroke="#1e293b" stroke-width="1.5"/><text x="530" y="1052" text-anchor="middle" font-family="monospace" font-size="13" font-weight="600" fill="#0f172a">Web Server 2</text><text x="530" y="1020" text-anchor="middle" font-family="monospace" font-size="10" fill="#0f172a">node</text><desc data-uml-id="Cloud Region (us-east-1)&quot; &lt;&lt;cloud&gt;&gt;::App Cluster::WS3">Cloud Region (us-east-1)&quot; &lt;&lt;cloud&gt;&gt;::App Cluster::WS3</desc><polygon points="718,1006 730,994 930,994 918,1006" fill="#d4dff7" stroke="#1e293b" stroke-width="1"/><polygon points="918,1006 930,994 930,1074 918,1086" fill="#b8c8ef" stroke="#1e293b" stroke-width="1"/><rect class="uml-node uml-deployment-shape" data-uml-kind="node" x="718" y="1006" width="200" height="80" fill="#f0f4f8" stroke="#1e293b" stroke-width="1.5"/><text x="818" y="1052" text-anchor="middle" font-family="monospace" font-size="13" font-weight="600" fill="#0f172a">Web Server 3</text><text x="818" y="1020" text-anchor="middle" font-family="monospace" font-size="10" fill="#0f172a">node</text><desc data-uml-id="Cloud Region (us-east-1)&quot; &lt;&lt;cloud&gt;&gt;::Cache Cluster::RP">Cloud Region (us-east-1)&quot; &lt;&lt;cloud&gt;&gt;::Cache Cluster::RP</desc><polygon points="142,1294 154,1282 354,1282 342,1294" fill="#d4dff7" stroke="#1e293b" stroke-width="1"/><polygon points="342,1294 354,1282 354,1362 342,1374" fill="#b8c8ef" stroke="#1e293b" stroke-width="1"/><rect class="uml-node uml-deployment-shape" data-uml-kind="node" x="142" y="1294" width="200" height="80" fill="#f0f4f8" stroke="#1e293b" stroke-width="1.5"/><text x="242" y="1340" text-anchor="middle" font-family="monospace" font-size="13" font-weight="600" fill="#0f172a">Redis Primary</text><text x="242" y="1308" text-anchor="middle" font-family="monospace" font-size="10" fill="#0f172a">node</text><desc data-uml-id="Cloud Region (us-east-1)&quot; &lt;&lt;cloud&gt;&gt;::Cache Cluster::RR">Cloud Region (us-east-1)&quot; &lt;&lt;cloud&gt;&gt;::Cache Cluster::RR</desc><polygon points="574,1582 586,1570 786,1570 774,1582" fill="#d4dff7" stroke="#1e293b" stroke-width="1"/><polygon points="774,1582 786,1570 786,1650 774,1662" fill="#b8c8ef" stroke="#1e293b" stroke-width="1"/><rect class="uml-node uml-deployment-shape" data-uml-kind="node" x="574" y="1582" width="200" height="80" fill="#f0f4f8" stroke="#1e293b" stroke-width="1.5"/><text x="674" y="1628" text-anchor="middle" font-family="monospace" font-size="13" font-weight="600" fill="#0f172a">Redis Replica</text><text x="674" y="1596" text-anchor="middle" font-family="monospace" font-size="10" fill="#0f172a">node</text><desc data-uml-id="Cloud Region (us-east-1)&quot; &lt;&lt;cloud&gt;&gt;::Message Queue&quot; &lt;&lt;queue&gt;&gt;::SQS">Cloud Region (us-east-1)&quot; &lt;&lt;cloud&gt;&gt;::Message Queue&quot; &lt;&lt;queue&gt;&gt;::SQS</desc><polygon points="1294,1294 1306,1282 1506,1282 1494,1294" fill="#d4dff7" stroke="#1e293b" stroke-width="1"/><polygon points="1494,1294 1506,1282 1506,1362 1494,1374" fill="#b8c8ef" stroke="#1e293b" stroke-width="1"/><rect class="uml-node uml-deployment-shape" data-uml-kind="node" x="1294" y="1294" width="200" height="80" fill="#f0f4f8" stroke="#1e293b" stroke-width="1.5"/><text x="1394" y="1340" text-anchor="middle" font-family="monospace" font-size="13" font-weight="600" fill="#0f172a">SQS</text><text x="1394" y="1308" text-anchor="middle" font-family="monospace" font-size="10" fill="#0f172a">node</text><desc data-uml-id="Corporate Data Center::VPN">Corporate Data Center::VPN</desc><polygon points="1582,1294 1594,1282 1794,1282 1782,1294" fill="#d4dff7" stroke="#1e293b" stroke-width="1"/><polygon points="1782,1294 1794,1282 1794,1362 1782,1374" fill="#b8c8ef" stroke="#1e293b" stroke-width="1"/><rect class="uml-node uml-deployment-shape" data-uml-kind="node" x="1582" y="1294" width="200" height="80" fill="#f0f4f8" stroke="#1e293b" stroke-width="1.5"/><text x="1682" y="1340" text-anchor="middle" font-family="monospace" font-size="13" font-weight="600" fill="#0f172a">VPN Gateway</text><text x="1682" y="1308" text-anchor="middle" font-family="monospace" font-size="10" fill="#0f172a">node</text><desc data-uml-id="Corporate Data Center::Database Cluster::PG1">Corporate Data Center::Database Cluster::PG1</desc><polygon points="2014,1582 2026,1570 2226,1570 2214,1582" fill="#d4dff7" stroke="#1e293b" stroke-width="1"/><polygon points="2214,1582 2226,1570 2226,1650 2214,1662" fill="#b8c8ef" stroke="#1e293b" stroke-width="1"/><rect class="uml-node uml-deployment-shape" data-uml-kind="node" x="2014" y="1582" width="200" height="80" fill="#f0f4f8" stroke="#1e293b" stroke-width="1.5"/><text x="2114" y="1628" text-anchor="middle" font-family="monospace" font-size="13" font-weight="600" fill="#0f172a">PostgreSQL Primary</text><text x="2114" y="1596" text-anchor="middle" font-family="monospace" font-size="10" fill="#0f172a">node</text><desc data-uml-id="Corporate Data Center::Database Cluster::PG2">Corporate Data Center::Database Cluster::PG2</desc><polygon points="1870,1870 1882,1858 2082,1858 2070,1870" fill="#d4dff7" stroke="#1e293b" stroke-width="1"/><polygon points="2070,1870 2082,1858 2082,1938 2070,1950" fill="#b8c8ef" stroke="#1e293b" stroke-width="1"/><rect class="uml-node uml-deployment-shape" data-uml-kind="node" x="1870" y="1870" width="200" height="80" fill="#f0f4f8" stroke="#1e293b" stroke-width="1.5"/><text x="1970" y="1916" text-anchor="middle" font-family="monospace" font-size="13" font-weight="600" fill="#0f172a">PostgreSQL Standby</text><text x="1970" y="1884" text-anchor="middle" font-family="monospace" font-size="10" fill="#0f172a">node</text><desc data-uml-id="Corporate Data Center::FS">Corporate Data Center::FS</desc><polygon points="2158,1294 2170,1282 2370,1282 2358,1294" fill="#d4dff7" stroke="#1e293b" stroke-width="1"/><polygon points="2358,1294 2370,1282 2370,1362 2358,1374" fill="#b8c8ef" stroke="#1e293b" stroke-width="1"/><rect class="uml-node uml-deployment-shape" data-uml-kind="node" x="2158" y="1294" width="200" height="80" fill="#f0f4f8" stroke="#1e293b" stroke-width="1.5"/><text x="2258" y="1340" text-anchor="middle" font-family="monospace" font-size="13" font-weight="600" fill="#0f172a">File Server</text><text x="2258" y="1308" text-anchor="middle" font-family="monospace" font-size="10" fill="#0f172a">node</text><desc data-uml-id="Corporate Data Center::AD">Corporate Data Center::AD</desc><polygon points="1870,1294 1882,1282 2082,1282 2070,1294" fill="#d4dff7" stroke="#1e293b" stroke-width="1"/><polygon points="2070,1294 2082,1282 2082,1362 2070,1374" fill="#b8c8ef" stroke="#1e293b" stroke-width="1"/><rect class="uml-node uml-deployment-shape" data-uml-kind="node" x="1870" y="1294" width="200" height="80" fill="#f0f4f8" stroke="#1e293b" stroke-width="1.5"/><text x="1970" y="1340" text-anchor="middle" font-family="monospace" font-size="13" font-weight="600" fill="#0f172a">Active Directory</text><text x="1970" y="1308" text-anchor="middle" font-family="monospace" font-size="10" fill="#0f172a">node</text><polyline class="uml-relation" data-uml-from="CDN" data-uml-to="WAF" data-uml-arrow="--&gt;" points="818,222 818,326 818,430" fill="none" stroke="#1e293b" stroke-width="2" marker-end="url(#arrow-open)" /><polyline class="uml-relation" data-uml-from="WAF" data-uml-to="LB" data-uml-arrow="--&gt;" points="818,510 818,614 818,718" fill="none" stroke="#1e293b" stroke-width="2" marker-end="url(#arrow-open)" /><polyline class="uml-relation" data-uml-from="LB" data-uml-to="WS1" data-uml-arrow="--&gt;" points="818,798 818,835 1106,835 1106,1006" fill="none" stroke="#1e293b" stroke-width="2" marker-end="url(#arrow-open)" /><polyline class="uml-relation" data-uml-from="LB" data-uml-to="WS2" data-uml-arrow="--&gt;" points="818,798 818,902 530,902 530,1006" fill="none" stroke="#1e293b" stroke-width="2" marker-end="url(#arrow-open)" /><polyline class="uml-relation" data-uml-from="LB" data-uml-to="WS3" data-uml-arrow="--&gt;" points="818,798 818,902 818,1006" fill="none" stroke="#1e293b" stroke-width="2" marker-end="url(#arrow-open)" /><polyline class="uml-relation" data-uml-from="WS1" data-uml-to="RP" data-uml-arrow="--&gt;" points="1106,1086 1106,1282 242,1282 242,1294" fill="none" stroke="#1e293b" stroke-width="2" marker-end="url(#arrow-open)" /><polyline class="uml-relation" data-uml-from="WS2" data-uml-to="RP" data-uml-arrow="--&gt;" points="530,1086 530,1282 242,1282 242,1294" fill="none" stroke="#1e293b" stroke-width="2" marker-end="url(#arrow-open)" /><polyline class="uml-relation" data-uml-from="WS3" data-uml-to="RP" data-uml-arrow="--&gt;" points="818,1086 818,1282 242,1282 242,1294" fill="none" stroke="#1e293b" stroke-width="2" marker-end="url(#arrow-open)" /><polyline class="uml-relation" data-uml-from="RP" data-uml-to="RR" data-uml-arrow="--&gt;" points="242,1374 242,1474 674,1474 674,1582" fill="none" stroke="#1e293b" stroke-width="2" marker-end="url(#arrow-open)" /><polyline class="uml-relation" data-uml-from="WS1" data-uml-to="SQS" data-uml-arrow="--&gt;" points="1106,1086 1106,1282 1394,1282 1394,1294" fill="none" stroke="#1e293b" stroke-width="2" marker-end="url(#arrow-open)" /><polyline class="uml-relation" data-uml-from="WS1" data-uml-to="VPN" data-uml-arrow="--&gt;" points="1106,1086 1106,1282 1682,1282 1682,1294" fill="none" stroke="#1e293b" stroke-width="2" marker-end="url(#arrow-open)" /><polyline class="uml-relation" data-uml-from="VPN" data-uml-to="PG1" data-uml-arrow="--&gt;" points="1682,1374 1682,1482 2114,1482 2114,1582" fill="none" stroke="#1e293b" stroke-width="2" marker-end="url(#arrow-open)" /><polyline class="uml-relation" data-uml-from="PG1" data-uml-to="PG2" data-uml-arrow="--&gt;" points="2114,1662 2114,1766 1970,1766 1970,1870" fill="none" stroke="#1e293b" stroke-width="2" marker-end="url(#arrow-open)" /><polyline class="uml-relation" data-uml-from="WS1" data-uml-to="AD" data-uml-arrow="--&gt;" points="1106,1086 1106,1282 1970,1282 1970,1294" fill="none" stroke="#1e293b" stroke-width="2" marker-end="url(#arrow-open)" /><text x="674" y="1270" text-anchor="middle" font-family="monospace" font-size="11" fill="#1e293b">cache lookups</text><text x="458" y="1462" text-anchor="middle" font-family="monospace" font-size="11" fill="#1e293b">replication</text><text x="1250" y="1270" text-anchor="middle" font-family="monospace" font-size="11" fill="#1e293b">enqueue jobs</text><text x="1394" y="1270" text-anchor="middle" font-family="monospace" font-size="11" fill="#1e293b">data queries</text><text x="1898" y="1470" text-anchor="middle" font-family="monospace" font-size="11" fill="#1e293b">read/write</text><text x="2042" y="1754" text-anchor="middle" font-family="monospace" font-size="11" fill="#1e293b">replication</text><text x="1538" y="1270" text-anchor="middle" font-family="monospace" font-size="11" fill="#1e293b">LDAP auth</text></svg>