<svg xmlns="http://www.w3.org/2000/svg" width="2053" height="2132" viewBox="0 0 2053 2132"><rect width="100%" height="100%" fill="#f0f4f8"/><defs><marker id="arrow-open" viewBox="0 0 10 10" refX="9" refY="5" markerWidth="10" markerHeight="10" markerUnits="userSpaceOnUse" orient="auto-start-reverse"><path d="M0,0 L10,5 L0,10" fill="none" stroke="#1e293b" stroke-width="1.5"/></marker><marker id="arrow-triangle" viewBox="0 0 12 12" refX="11" refY="6" markerWidth="12" markerHeight="12" markerUnits="userSpaceOnUse" orient="auto-start-reverse"><polygon points="0,0 12,6 0,12" fill="#ffffff" stroke="#1e293b" stroke-width="1.5" fill-rule="nonzero"/></marker><marker id="arrow-diamond-filled" viewBox="0 0 14 10" refX="13" refY="5" markerWidth="14" markerHeight="10" markerUnits="userSpaceOnUse" orient="auto-start-reverse"><path d="M0,5 L7,0 L14,5 L7,10 z" fill="#1e293b" stroke="#1e293b" stroke-width="1"/></marker><marker id="arrow-diamond-open" viewBox="0 0 14 10" refX="13" refY="5" markerWidth="14" markerHeight="10" markerUnits="userSpaceOnUse" orient="auto-start-reverse"><path d="M0,5 L7,0 L14,5 L7,10 z" fill="#ffffff" stroke="#1e293b" stroke-width="1"/></marker><marker id="arrow-double-open" viewBox="0 0 16 12" refX="15" refY="6" markerWidth="16" markerHeight="12" markerUnits="userSpaceOnUse" orient="auto-start-reverse"><path d="M0,1 L8,6 L0,11 M7,1 L15,6 L7,11" fill="none" stroke="#1e293b" stroke-width="1.5" stroke-linejoin="round"/></marker><marker id="arrow-circle-open" viewBox="0 0 12 12" refX="11" refY="6" markerWidth="12" markerHeight="12" markerUnits="userSpaceOnUse" orient="auto-start-reverse"><circle cx="6" cy="6" r="4" fill="#ffffff" stroke="#1e293b" stroke-width="1.5"/></marker><marker id="arrow-circle-filled" viewBox="0 0 12 12" refX="11" refY="6" markerWidth="12" markerHeight="12" markerUnits="userSpaceOnUse" orient="auto-start-reverse"><circle cx="6" cy="6" r="4" fill="#1e293b" stroke="#1e293b" stroke-width="1.5"/></marker><marker id="arrow-triangle-filled" viewBox="0 0 12 12" refX="11" refY="6" markerWidth="12" markerHeight="12" markerUnits="userSpaceOnUse" orient="auto-start-reverse"><polygon points="0,0 12,6 0,12" fill="#1e293b" stroke="#1e293b" stroke-width="1.5"/></marker><marker id="arrow-box-filled" viewBox="0 0 12 12" refX="11" refY="6" markerWidth="12" markerHeight="12" markerUnits="userSpaceOnUse" orient="auto-start-reverse"><rect x="2" y="2" width="8" height="8" fill="#1e293b" stroke="#1e293b" stroke-width="1.5"/></marker><marker id="arrow-plus" viewBox="0 0 12 12" refX="11" refY="6" markerWidth="12" markerHeight="12" markerUnits="userSpaceOnUse" orient="auto-start-reverse"><path d="M6,1 L6,11 M1,6 L11,6" fill="none" stroke="#1e293b" stroke-width="1.8" stroke-linecap="round"/></marker><marker id="arrow-slash" viewBox="0 0 12 12" refX="10" refY="6" markerWidth="12" markerHeight="12" markerUnits="userSpaceOnUse" orient="auto-start-reverse"><path d="M3,2 L9,10" fill="none" stroke="#1e293b" stroke-width="1.8" stroke-linecap="round"/></marker><marker id="arrow-cross" viewBox="0 0 12 12" refX="11" refY="6" markerWidth="12" markerHeight="12" markerUnits="userSpaceOnUse" orient="auto-start-reverse"><path d="M2,2 L10,10 M10,2 L2,10" fill="none" stroke="#1e293b" stroke-width="1.8" stroke-linecap="round"/></marker><marker id="arrow-bracket-open" viewBox="0 0 12 14" refX="11" refY="7" markerWidth="12" markerHeight="14" markerUnits="userSpaceOnUse" orient="auto-start-reverse"><path d="M10,1 L4,1 L4,13 L10,13" fill="none" stroke="#1e293b" stroke-width="1.8" stroke-linecap="round" stroke-linejoin="round"/></marker></defs><marker id="arrow-ie-one" viewBox="0 0 24 16" refX="22" refY="8" markerWidth="24" markerHeight="16" markerUnits="userSpaceOnUse" orient="auto-start-reverse"><path d="M16,2 L16,14" fill="none" stroke="#1e293b" stroke-width="1.8" stroke-linecap="round"/></marker><marker id="arrow-ie-zero-one" viewBox="0 0 30 16" refX="28" refY="8" markerWidth="30" markerHeight="16" markerUnits="userSpaceOnUse" orient="auto-start-reverse"><circle cx="10" cy="8" r="4" fill="#ffffff" stroke="#1e293b" stroke-width="1.5"/><path d="M20,2 L20,14" fill="none" stroke="#1e293b" stroke-width="1.8" stroke-linecap="round"/></marker><marker id="arrow-ie-zero-many" viewBox="0 0 34 18" refX="32" refY="9" markerWidth="34" markerHeight="18" markerUnits="userSpaceOnUse" orient="auto-start-reverse"><circle cx="8" cy="9" r="4" fill="#ffffff" stroke="#1e293b" stroke-width="1.5"/><path d="M18,9 L31,2 M18,9 L31,9 M18,9 L31,16" fill="none" stroke="#1e293b" stroke-width="1.7" stroke-linecap="round"/></marker><marker id="arrow-ie-one-many" viewBox="0 0 34 18" refX="32" refY="9" markerWidth="34" markerHeight="18" markerUnits="userSpaceOnUse" orient="auto-start-reverse"><path d="M8,2 L8,16 M18,9 L31,2 M18,9 L31,9 M18,9 L31,16" fill="none" stroke="#1e293b" stroke-width="1.7" stroke-linecap="round"/></marker><text x="40" y="40" font-family="monospace" font-size="18" font-weight="600">Three-tier: cloud front-end + hybrid mid-tier + on-prem data</text><rect class="uml-group-frame" data-uml-group="Internet" x="694" y="78" width="248" height="456" rx="8" ry="8" fill="#f8faff" stroke="#1e293b" stroke-width="1.5"/><rect x="694" y="78" width="248" height="40" rx="8" ry="8" fill="#1e293b" stroke="none"/><rect x="694" y="110" width="248" height="8" fill="#1e293b" stroke="none"/><text x="702" y="110" font-family="monospace" font-size="11" font-weight="600" fill="#ffffff">node Internet</text><line x1="694" y1="118" x2="942" y2="118" stroke="#1e293b" stroke-width="1"/><rect class="uml-group-frame" data-uml-group="Cloud Region (us-east-1)" x="78" y="654" width="1912" height="1072" rx="8" ry="8" fill="#f8faff" stroke="#1e293b" stroke-width="1.5"/><rect x="78" y="654" width="1912" height="40" rx="8" ry="8" fill="#1e293b" stroke="none"/><rect x="78" y="686" width="1912" height="8" fill="#1e293b" stroke="none"/><text x="86" y="686" font-family="monospace" font-size="11" font-weight="600" fill="#ffffff">node Cloud Region (us-east-1)</text><line x1="78" y1="694" x2="1990" y2="694" stroke="#1e293b" stroke-width="1"/><rect class="uml-group-frame" data-uml-group="Corporate Data Center" x="798" y="1230" width="864" height="784" rx="8" ry="8" fill="#f8faff" stroke="#1e293b" stroke-width="1.5"/><rect x="798" y="1230" width="864" height="40" rx="8" ry="8" fill="#1e293b" stroke="none"/><rect x="798" y="1262" width="864" height="8" fill="#1e293b" stroke="none"/><text x="806" y="1262" font-family="monospace" font-size="11" font-weight="600" fill="#ffffff">node Corporate Data Center</text><line x1="798" y1="1270" x2="1662" y2="1270" stroke="#1e293b" stroke-width="1"/><rect class="uml-group-frame" data-uml-group="Cloud Region (us-east-1)::App Cluster" x="420" y="976" width="796" height="120" rx="6" ry="6" fill="none" stroke="#1e293b" stroke-width="1.5" stroke-dasharray="4 3"/><text x="426" y="989" font-family="monospace" font-size="10" font-weight="600" fill="#1e293b">node App Cluster</text><rect class="uml-group-frame" data-uml-group="Cloud Region (us-east-1)::Cache Cluster" x="132" y="1264" width="652" height="408" rx="6" ry="6" fill="none" stroke="#1e293b" stroke-width="1.5" stroke-dasharray="4 3"/><text x="138" y="1277" font-family="monospace" font-size="10" font-weight="600" fill="#1e293b">node Cache Cluster</text><rect class="uml-group-frame" data-uml-group="Cloud Region (us-east-1)::Message Queue" x="1716" y="1264" width="220" height="120" rx="6" ry="6" fill="none" stroke="#1e293b" stroke-width="1.5" stroke-dasharray="4 3"/><text x="1722" y="1277" font-family="monospace" font-size="10" font-weight="600" fill="#1e293b">node Message Queue</text><rect class="uml-group-frame" data-uml-group="Corporate Data Center::Database Cluster" x="852" y="1552" width="364" height="408" rx="6" ry="6" fill="none" stroke="#1e293b" stroke-width="1.5" stroke-dasharray="4 3"/><text x="858" y="1565" font-family="monospace" font-size="10" font-weight="600" fill="#1e293b">node Database Cluster</text><desc data-uml-id="Internet::CDN">Internet::CDN</desc><polygon points="718,142 730,130 930,130 918,142" fill="#d4dff7" stroke="#1e293b" stroke-width="1"/><polygon points="918,142 930,130 930,210 918,222" fill="#b8c8ef" stroke="#1e293b" stroke-width="1"/><rect class="uml-node uml-deployment-shape" data-uml-kind="node" x="718" y="142" width="200" height="80" fill="#f0f4f8" stroke="#1e293b" stroke-width="1.5"/><text x="818" y="188" text-anchor="middle" font-family="monospace" font-size="13" font-weight="600" fill="#0f172a">CDN</text><text x="818" y="156" text-anchor="middle" font-family="monospace" font-size="10" fill="#0f172a">node</text><desc data-uml-id="Internet::WAF">Internet::WAF</desc><polygon points="718,430 730,418 930,418 918,430" fill="#d4dff7" stroke="#1e293b" stroke-width="1"/><polygon points="918,430 930,418 930,498 918,510" fill="#b8c8ef" stroke="#1e293b" stroke-width="1"/><rect class="uml-node uml-deployment-shape" data-uml-kind="node" x="718" y="430" width="200" height="80" fill="#f0f4f8" stroke="#1e293b" stroke-width="1.5"/><text x="818" y="476" text-anchor="middle" font-family="monospace" font-size="13" font-weight="600" fill="#0f172a">WAF / DDoS Protection</text><text x="818" y="444" text-anchor="middle" font-family="monospace" font-size="10" fill="#0f172a">node</text><desc data-uml-id="Cloud Region (us-east-1)::LB">Cloud Region (us-east-1)::LB</desc><polygon points="718,718 730,706 930,706 918,718" fill="#d4dff7" stroke="#1e293b" stroke-width="1"/><polygon points="918,718 930,706 930,786 918,798" fill="#b8c8ef" stroke="#1e293b" stroke-width="1"/><rect class="uml-node uml-deployment-shape" data-uml-kind="node" x="718" y="718" width="200" height="80" fill="#f0f4f8" stroke="#1e293b" stroke-width="1.5"/><text x="818" y="764" text-anchor="middle" font-family="monospace" font-size="13" font-weight="600" fill="#0f172a">Load Balancer</text><text x="818" y="732" text-anchor="middle" font-family="monospace" font-size="10" fill="#0f172a">node</text><desc data-uml-id="Cloud Region (us-east-1)::App Cluster::WS1">Cloud Region (us-east-1)::App Cluster::WS1</desc><polygon points="1006,1006 1018,994 1218,994 1206,1006" fill="#d4dff7" stroke="#1e293b" stroke-width="1"/><polygon points="1206,1006 1218,994 1218,1074 1206,1086" fill="#b8c8ef" stroke="#1e293b" stroke-width="1"/><rect class="uml-node uml-deployment-shape" data-uml-kind="node" x="1006" y="1006" width="200" height="80" fill="#f0f4f8" stroke="#1e293b" stroke-width="1.5"/><text x="1106" y="1052" text-anchor="middle" font-family="monospace" font-size="13" font-weight="600" fill="#0f172a">Web Server 1</text><text x="1106" y="1020" text-anchor="middle" font-family="monospace" font-size="10" fill="#0f172a">node</text><desc data-uml-id="Cloud Region (us-east-1)::App Cluster::WS2">Cloud Region (us-east-1)::App Cluster::WS2</desc><polygon points="430,1006 442,994 642,994 630,1006" fill="#d4dff7" stroke="#1e293b" stroke-width="1"/><polygon points="630,1006 642,994 642,1074 630,1086" fill="#b8c8ef" stroke="#1e293b" stroke-width="1"/><rect class="uml-node uml-deployment-shape" data-uml-kind="node" x="430" y="1006" width="200" height="80" fill="#f0f4f8" stroke="#1e293b" stroke-width="1.5"/><text x="530" y="1052" text-anchor="middle" font-family="monospace" font-size="13" font-weight="600" fill="#0f172a">Web Server 2</text><text x="530" y="1020" text-anchor="middle" font-family="monospace" font-size="10" fill="#0f172a">node</text><desc data-uml-id="Cloud Region (us-east-1)::App Cluster::WS3">Cloud Region (us-east-1)::App Cluster::WS3</desc><polygon points="718,1006 730,994 930,994 918,1006" fill="#d4dff7" stroke="#1e293b" stroke-width="1"/><polygon points="918,1006 930,994 930,1074 918,1086" fill="#b8c8ef" stroke="#1e293b" stroke-width="1"/><rect class="uml-node uml-deployment-shape" data-uml-kind="node" x="718" y="1006" width="200" height="80" fill="#f0f4f8" stroke="#1e293b" stroke-width="1.5"/><text x="818" y="1052" text-anchor="middle" font-family="monospace" font-size="13" font-weight="600" fill="#0f172a">Web Server 3</text><text x="818" y="1020" text-anchor="middle" font-family="monospace" font-size="10" fill="#0f172a">node</text><desc data-uml-id="Cloud Region (us-east-1)::Cache Cluster::RP">Cloud Region (us-east-1)::Cache Cluster::RP</desc><polygon points="142,1294 154,1282 354,1282 342,1294" fill="#d4dff7" stroke="#1e293b" stroke-width="1"/><polygon points="342,1294 354,1282 354,1362 342,1374" fill="#b8c8ef" stroke="#1e293b" stroke-width="1"/><rect class="uml-node uml-deployment-shape" data-uml-kind="node" x="142" y="1294" width="200" height="80" fill="#f0f4f8" stroke="#1e293b" stroke-width="1.5"/><text x="242" y="1340" text-anchor="middle" font-family="monospace" font-size="13" font-weight="600" fill="#0f172a">Redis Primary</text><text x="242" y="1308" text-anchor="middle" font-family="monospace" font-size="10" fill="#0f172a">node</text><desc data-uml-id="Cloud Region (us-east-1)::Cache Cluster::RR">Cloud Region (us-east-1)::Cache Cluster::RR</desc><polygon points="574,1582 586,1570 786,1570 774,1582" fill="#d4dff7" stroke="#1e293b" stroke-width="1"/><polygon points="774,1582 786,1570 786,1650 774,1662" fill="#b8c8ef" stroke="#1e293b" stroke-width="1"/><rect class="uml-node uml-deployment-shape" data-uml-kind="node" x="574" y="1582" width="200" height="80" fill="#f0f4f8" stroke="#1e293b" stroke-width="1.5"/><text x="674" y="1628" text-anchor="middle" font-family="monospace" font-size="13" font-weight="600" fill="#0f172a">Redis Replica</text><text x="674" y="1596" text-anchor="middle" font-family="monospace" font-size="10" fill="#0f172a">node</text><desc data-uml-id="Cloud Region (us-east-1)::Message Queue::SQS">Cloud Region (us-east-1)::Message Queue::SQS</desc><polygon points="1726,1294 1738,1282 1938,1282 1926,1294" fill="#d4dff7" stroke="#1e293b" stroke-width="1"/><polygon points="1926,1294 1938,1282 1938,1362 1926,1374" fill="#b8c8ef" stroke="#1e293b" stroke-width="1"/><rect class="uml-node uml-deployment-shape" data-uml-kind="node" x="1726" y="1294" width="200" height="80" fill="#f0f4f8" stroke="#1e293b" stroke-width="1.5"/><text x="1826" y="1340" text-anchor="middle" font-family="monospace" font-size="13" font-weight="600" fill="#0f172a">SQS</text><text x="1826" y="1308" text-anchor="middle" font-family="monospace" font-size="10" fill="#0f172a">node</text><desc data-uml-id="Corporate Data Center::VPN">Corporate Data Center::VPN</desc><polygon points="862,1294 874,1282 1074,1282 1062,1294" fill="#d4dff7" stroke="#1e293b" stroke-width="1"/><polygon points="1062,1294 1074,1282 1074,1362 1062,1374" fill="#b8c8ef" stroke="#1e293b" stroke-width="1"/><rect class="uml-node uml-deployment-shape" data-uml-kind="node" x="862" y="1294" width="200" height="80" fill="#f0f4f8" stroke="#1e293b" stroke-width="1.5"/><text x="962" y="1340" text-anchor="middle" font-family="monospace" font-size="13" font-weight="600" fill="#0f172a">VPN Gateway</text><text x="962" y="1308" text-anchor="middle" font-family="monospace" font-size="10" fill="#0f172a">node</text><desc data-uml-id="Corporate Data Center::Database Cluster::PG1">Corporate Data Center::Database Cluster::PG1</desc><polygon points="1006,1582 1018,1570 1218,1570 1206,1582" fill="#d4dff7" stroke="#1e293b" stroke-width="1"/><polygon points="1206,1582 1218,1570 1218,1650 1206,1662" fill="#b8c8ef" stroke="#1e293b" stroke-width="1"/><rect class="uml-node uml-deployment-shape" data-uml-kind="node" x="1006" y="1582" width="200" height="80" fill="#f0f4f8" stroke="#1e293b" stroke-width="1.5"/><text x="1106" y="1628" text-anchor="middle" font-family="monospace" font-size="13" font-weight="600" fill="#0f172a">PostgreSQL Primary</text><text x="1106" y="1596" text-anchor="middle" font-family="monospace" font-size="10" fill="#0f172a">node</text><desc data-uml-id="Corporate Data Center::Database Cluster::PG2">Corporate Data Center::Database Cluster::PG2</desc><polygon points="862,1870 874,1858 1074,1858 1062,1870" fill="#d4dff7" stroke="#1e293b" stroke-width="1"/><polygon points="1062,1870 1074,1858 1074,1938 1062,1950" fill="#b8c8ef" stroke="#1e293b" stroke-width="1"/><rect class="uml-node uml-deployment-shape" data-uml-kind="node" x="862" y="1870" width="200" height="80" fill="#f0f4f8" stroke="#1e293b" stroke-width="1.5"/><text x="962" y="1916" text-anchor="middle" font-family="monospace" font-size="13" font-weight="600" fill="#0f172a">PostgreSQL Standby</text><text x="962" y="1884" text-anchor="middle" font-family="monospace" font-size="10" fill="#0f172a">node</text><desc data-uml-id="Corporate Data Center::FS">Corporate Data Center::FS</desc><polygon points="1438,1294 1450,1282 1650,1282 1638,1294" fill="#d4dff7" stroke="#1e293b" stroke-width="1"/><polygon points="1638,1294 1650,1282 1650,1362 1638,1374" fill="#b8c8ef" stroke="#1e293b" stroke-width="1"/><rect class="uml-node uml-deployment-shape" data-uml-kind="node" x="1438" y="1294" width="200" height="80" fill="#f0f4f8" stroke="#1e293b" stroke-width="1.5"/><text x="1538" y="1340" text-anchor="middle" font-family="monospace" font-size="13" font-weight="600" fill="#0f172a">File Server</text><text x="1538" y="1308" text-anchor="middle" font-family="monospace" font-size="10" fill="#0f172a">node</text><desc data-uml-id="Corporate Data Center::AD">Corporate Data Center::AD</desc><polygon points="1150,1294 1162,1282 1362,1282 1350,1294" fill="#d4dff7" stroke="#1e293b" stroke-width="1"/><polygon points="1350,1294 1362,1282 1362,1362 1350,1374" fill="#b8c8ef" stroke="#1e293b" stroke-width="1"/><rect class="uml-node uml-deployment-shape" data-uml-kind="node" x="1150" y="1294" width="200" height="80" fill="#f0f4f8" stroke="#1e293b" stroke-width="1.5"/><text x="1250" y="1340" text-anchor="middle" font-family="monospace" font-size="13" font-weight="600" fill="#0f172a">Active Directory</text><text x="1250" y="1308" text-anchor="middle" font-family="monospace" font-size="10" fill="#0f172a">node</text><path class="uml-relation" data-uml-from="CDN" data-uml-to="WAF" data-uml-arrow="--&gt;" d="M 818,222 C 818.0,256.7 818.0,291.3 818.0,326.0 C 818.0,360.7 818.0,395.3 818.0,430.0" fill="none" stroke="#1e293b" stroke-width="2" marker-end="url(#arrow-open)" /><path class="uml-relation" data-uml-from="WAF" data-uml-to="LB" data-uml-arrow="--&gt;" d="M 818,510 C 818.0,544.7 818.0,579.3 818.0,614.0 C 818.0,648.7 818.0,683.3 818.0,718.0" fill="none" stroke="#1e293b" stroke-width="2" marker-end="url(#arrow-open)" /><path class="uml-relation" data-uml-from="LB" data-uml-to="WS1" data-uml-arrow="--&gt;" d="M 868,798 C 868.0,810.3 828.3,828.8 868.0,835.0 C 907.7,841.2 1066.3,806.5 1106.0,835.0 C 1145.7,863.5 1106.0,949.0 1106.0,1006.0" fill="none" stroke="#1e293b" stroke-width="2" marker-end="url(#arrow-open)" /><path class="uml-relation" data-uml-from="LB" data-uml-to="WS2" data-uml-arrow="--&gt;" d="M 768,798 C 768.0,832.7 807.7,884.7 768.0,902.0 C 728.3,919.3 569.7,884.7 530.0,902.0 C 490.3,919.3 530.0,971.3 530.0,1006.0" fill="none" stroke="#1e293b" stroke-width="2" marker-end="url(#arrow-open)" /><path class="uml-relation" data-uml-from="LB" data-uml-to="WS3" data-uml-arrow="--&gt;" d="M 818,798 C 818.0,863.3 818.0,959.3 818.0,994.0 C 818.0,1028.7 818.0,1002.0 818.0,1006.0" fill="none" stroke="#1e293b" stroke-width="2" marker-end="url(#arrow-open)" /><path class="uml-relation" data-uml-from="WS1" data-uml-to="RP" data-uml-arrow="--&gt;" d="M 1006,1046 C 1006.0,1124.7 1116.7,1242.7 1006.0,1282.0 C 895.3,1321.3 452.7,1273.3 342.0,1282.0 C 231.3,1290.7 342.0,1316.7 342.0,1334.0" fill="none" stroke="#1e293b" stroke-width="2" marker-end="url(#arrow-open)" /><path class="uml-relation" data-uml-from="WS2" data-uml-to="RP" data-uml-arrow="--&gt;" d="M 530,1086 C 530.0,1092.7 578.0,1102.7 530.0,1106.0 C 482.0,1109.3 290.0,1074.7 242.0,1106.0 C 194.0,1137.3 242.0,1231.3 242.0,1294.0" fill="none" stroke="#1e293b" stroke-width="2" marker-end="url(#arrow-open)" /><path class="uml-relation" data-uml-from="WS3" data-uml-to="RP" data-uml-arrow="--&gt;" d="M 718,1046 C 718.0,1077.3 780.7,1124.3 718.0,1140.0 C 655.3,1155.7 404.7,1107.7 342.0,1140.0 C 279.3,1172.3 342.0,1269.3 342.0,1334.0" fill="none" stroke="#1e293b" stroke-width="2" marker-end="url(#arrow-open)" /><path class="uml-relation" data-uml-from="RP" data-uml-to="RR" data-uml-arrow="--&gt;" d="M 342,1334 C 342.0,1380.7 303.3,1450.7 342.0,1474.0 C 380.7,1497.3 535.3,1449.3 574.0,1474.0 C 612.7,1498.7 574.0,1572.7 574.0,1622.0" fill="none" stroke="#1e293b" stroke-width="2" marker-end="url(#arrow-open)" /><path class="uml-relation" data-uml-from="WS1" data-uml-to="SQS" data-uml-arrow="--&gt;" d="M 1206,1046 C 1206.0,1124.7 1119.3,1242.7 1206.0,1282.0 C 1292.7,1321.3 1639.3,1273.3 1726.0,1282.0 C 1812.7,1290.7 1726.0,1316.7 1726.0,1334.0" fill="none" stroke="#1e293b" stroke-width="2" marker-end="url(#arrow-open)" /><path class="uml-relation" data-uml-from="WS1" data-uml-to="VPN" data-uml-arrow="--&gt;" d="M 1086,1086 C 1086.0,1115.0 1106.7,1158.5 1086.0,1173.0 C 1065.3,1187.5 982.7,1152.8 962.0,1173.0 C 941.3,1193.2 962.0,1253.7 962.0,1294.0" fill="none" stroke="#1e293b" stroke-width="2" marker-end="url(#arrow-open)" /><path class="uml-relation" data-uml-from="VPN" data-uml-to="PG1" data-uml-arrow="--&gt;" d="M 962,1374 C 962.0,1410.0 938.0,1464.0 962.0,1482.0 C 986.0,1500.0 1082.0,1465.3 1106.0,1482.0 C 1130.0,1498.7 1106.0,1548.7 1106.0,1582.0" fill="none" stroke="#1e293b" stroke-width="2" marker-end="url(#arrow-open)" /><path class="uml-relation" data-uml-from="PG1" data-uml-to="PG2" data-uml-arrow="--&gt;" d="M 1106,1662 C 1106.0,1696.7 1130.0,1748.7 1106.0,1766.0 C 1082.0,1783.3 986.0,1748.7 962.0,1766.0 C 938.0,1783.3 962.0,1835.3 962.0,1870.0" fill="none" stroke="#1e293b" stroke-width="2" marker-end="url(#arrow-open)" /><path class="uml-relation" data-uml-from="WS1" data-uml-to="AD" data-uml-arrow="--&gt;" d="M 1126,1086 C 1126.0,1126.0 1105.3,1186.0 1126.0,1206.0 C 1146.7,1226.0 1229.3,1191.3 1250.0,1206.0 C 1270.7,1220.7 1250.0,1264.7 1250.0,1294.0" fill="none" stroke="#1e293b" stroke-width="2" marker-end="url(#arrow-open)" /><text class="uml-edge-label" data-uml-label-role="edge" x="674" y="1270" text-anchor="middle" font-family="monospace" font-size="11" fill="#1e293b">cache lookups</text><text class="uml-edge-label" data-uml-label-role="edge" x="458" y="1462" text-anchor="middle" font-family="monospace" font-size="11" fill="#1e293b">replication</text><text class="uml-edge-label" data-uml-label-role="edge" x="1466" y="1270" text-anchor="middle" font-family="monospace" font-size="11" fill="#1e293b">enqueue jobs</text><text class="uml-edge-label" data-uml-label-role="edge" x="1024" y="1161" text-anchor="middle" font-family="monospace" font-size="11" fill="#1e293b">data queries</text><text class="uml-edge-label" data-uml-label-role="edge" x="1034" y="1470" text-anchor="middle" font-family="monospace" font-size="11" fill="#1e293b">read/write</text><text class="uml-edge-label" data-uml-label-role="edge" x="1034" y="1754" text-anchor="middle" font-family="monospace" font-size="11" fill="#1e293b">replication</text><text class="uml-edge-label" data-uml-label-role="edge" x="1188" y="1194" text-anchor="middle" font-family="monospace" font-size="11" fill="#1e293b">LDAP auth</text></svg>