<svg xmlns="http://www.w3.org/2000/svg" width="935" height="928" viewBox="0 0 935 928"><rect width="100%" height="100%" fill="#f0f4f8"/><defs><marker id="arrow-open" viewBox="0 0 10 10" refX="9" refY="5" markerWidth="10" markerHeight="10" markerUnits="userSpaceOnUse" orient="auto-start-reverse"><path d="M0,0 L10,5 L0,10" fill="none" stroke="#1e293b" stroke-width="1.5"/></marker><marker id="arrow-triangle" viewBox="0 0 12 12" refX="11" refY="6" markerWidth="12" markerHeight="12" markerUnits="userSpaceOnUse" orient="auto-start-reverse"><polygon points="0,0 12,6 0,12" fill="#ffffff" stroke="#1e293b" stroke-width="1.5" fill-rule="nonzero"/></marker><marker id="arrow-diamond-filled" viewBox="0 0 14 10" refX="13" refY="5" markerWidth="14" markerHeight="10" markerUnits="userSpaceOnUse" orient="auto-start-reverse"><path d="M0,5 L7,0 L14,5 L7,10 z" fill="#1e293b" stroke="#1e293b" stroke-width="1"/></marker><marker id="arrow-diamond-open" viewBox="0 0 14 10" refX="13" refY="5" markerWidth="14" markerHeight="10" markerUnits="userSpaceOnUse" orient="auto-start-reverse"><path d="M0,5 L7,0 L14,5 L7,10 z" fill="#ffffff" stroke="#1e293b" stroke-width="1"/></marker><marker id="arrow-double-open" viewBox="0 0 16 12" refX="15" refY="6" markerWidth="16" markerHeight="12" markerUnits="userSpaceOnUse" orient="auto-start-reverse"><path d="M0,1 L8,6 L0,11 M7,1 L15,6 L7,11" fill="none" stroke="#1e293b" stroke-width="1.5" stroke-linejoin="round"/></marker><marker id="arrow-circle-open" viewBox="0 0 12 12" refX="11" refY="6" markerWidth="12" markerHeight="12" markerUnits="userSpaceOnUse" orient="auto-start-reverse"><circle cx="6" cy="6" r="4" fill="#ffffff" stroke="#1e293b" stroke-width="1.5"/></marker><marker id="arrow-circle-filled" viewBox="0 0 12 12" refX="11" refY="6" markerWidth="12" markerHeight="12" markerUnits="userSpaceOnUse" orient="auto-start-reverse"><circle cx="6" cy="6" r="4" fill="#1e293b" stroke="#1e293b" stroke-width="1.5"/></marker><marker id="arrow-triangle-filled" viewBox="0 0 12 12" refX="11" refY="6" markerWidth="12" markerHeight="12" markerUnits="userSpaceOnUse" orient="auto-start-reverse"><polygon points="0,0 12,6 0,12" fill="#1e293b" stroke="#1e293b" stroke-width="1.5"/></marker><marker id="arrow-box-filled" viewBox="0 0 12 12" refX="11" refY="6" markerWidth="12" markerHeight="12" markerUnits="userSpaceOnUse" orient="auto-start-reverse"><rect x="2" y="2" width="8" height="8" fill="#1e293b" stroke="#1e293b" stroke-width="1.5"/></marker><marker id="arrow-plus" viewBox="0 0 12 12" refX="11" refY="6" markerWidth="12" markerHeight="12" markerUnits="userSpaceOnUse" orient="auto-start-reverse"><path d="M6,1 L6,11 M1,6 L11,6" fill="none" stroke="#1e293b" stroke-width="1.8" stroke-linecap="round"/></marker><marker id="arrow-slash" viewBox="0 0 12 12" refX="10" refY="6" markerWidth="12" markerHeight="12" markerUnits="userSpaceOnUse" orient="auto-start-reverse"><path d="M3,2 L9,10" fill="none" stroke="#1e293b" stroke-width="1.8" stroke-linecap="round"/></marker><marker id="arrow-cross" viewBox="0 0 12 12" refX="11" refY="6" markerWidth="12" markerHeight="12" markerUnits="userSpaceOnUse" orient="auto-start-reverse"><path d="M2,2 L10,10 M10,2 L2,10" fill="none" stroke="#1e293b" stroke-width="1.8" stroke-linecap="round"/></marker><marker id="arrow-bracket-open" viewBox="0 0 12 14" refX="11" refY="7" markerWidth="12" markerHeight="14" markerUnits="userSpaceOnUse" orient="auto-start-reverse"><path d="M10,1 L4,1 L4,13 L10,13" fill="none" stroke="#1e293b" stroke-width="1.8" stroke-linecap="round" stroke-linejoin="round"/></marker></defs><marker id="arrow-ie-one" viewBox="0 0 24 16" refX="22" refY="8" markerWidth="24" markerHeight="16" markerUnits="userSpaceOnUse" orient="auto-start-reverse"><path d="M16,2 L16,14" fill="none" stroke="#1e293b" stroke-width="1.8" stroke-linecap="round"/></marker><marker id="arrow-ie-zero-one" viewBox="0 0 30 16" refX="28" refY="8" markerWidth="30" markerHeight="16" markerUnits="userSpaceOnUse" orient="auto-start-reverse"><circle cx="10" cy="8" r="4" fill="#ffffff" stroke="#1e293b" stroke-width="1.5"/><path d="M20,2 L20,14" fill="none" stroke="#1e293b" stroke-width="1.8" stroke-linecap="round"/></marker><marker id="arrow-ie-zero-many" viewBox="0 0 34 18" refX="32" refY="9" markerWidth="34" markerHeight="18" markerUnits="userSpaceOnUse" orient="auto-start-reverse"><circle cx="8" cy="9" r="4" fill="#ffffff" stroke="#1e293b" stroke-width="1.5"/><path d="M18,9 L31,2 M18,9 L31,9 M18,9 L31,16" fill="none" stroke="#1e293b" stroke-width="1.7" stroke-linecap="round"/></marker><marker id="arrow-ie-one-many" viewBox="0 0 34 18" refX="32" refY="9" markerWidth="34" markerHeight="18" markerUnits="userSpaceOnUse" orient="auto-start-reverse"><path d="M8,2 L8,16 M18,9 L31,2 M18,9 L31,9 M18,9 L31,16" fill="none" stroke="#1e293b" stroke-width="1.7" stroke-linecap="round"/></marker><text x="8" y="8" font-family="monospace" font-size="18" font-weight="600">Kubernetes pod and container groupings</text><rect class="uml-group-frame" data-uml-group="Kubernetes Cluster" x="6" y="-34" width="873" height="916" rx="8" ry="8" fill="#f8faff" stroke="#1e293b" stroke-width="1.5"/><rect x="6" y="-34" width="873" height="40" rx="8" ry="8" fill="#1e293b" stroke="none"/><rect x="6" y="-2" width="873" height="8" fill="#1e293b" stroke="none"/><text x="14" y="-2" font-family="monospace" font-size="11" font-weight="600" fill="#ffffff">node Kubernetes Cluster</text><line x1="6" y1="6" x2="879" y2="6" stroke="#1e293b" stroke-width="1"/><rect class="uml-group-frame" data-uml-group="Kubernetes Cluster::Namespace: backend" x="388" y="52" width="417" height="594" rx="6" ry="6" fill="none" stroke="#1e293b" stroke-width="1.5" stroke-dasharray="4 3"/><text x="394" y="65" font-family="monospace" font-size="10" font-weight="600" fill="#1e293b">node Namespace: backend</text><rect class="uml-group-frame" data-uml-group="Kubernetes Cluster::Namespace: data" x="80" y="700" width="628" height="108" rx="6" ry="6" fill="none" stroke="#1e293b" stroke-width="1.5" stroke-dasharray="4 3"/><text x="86" y="713" font-family="monospace" font-size="10" font-weight="600" fill="#1e293b">node Namespace: data</text><rect class="uml-group-frame" data-uml-group="Kubernetes Cluster::Namespace: frontend" x="80" y="52" width="377" height="594" rx="6" ry="6" fill="none" stroke="#1e293b" stroke-width="1.5" stroke-dasharray="4 3"/><text x="86" y="65" font-family="monospace" font-size="10" font-weight="600" fill="#1e293b">node Namespace: frontend</text><rect class="uml-group-frame" data-uml-group="Kubernetes Cluster::Namespace: backend::Pod: api-server" x="590" y="68" width="207" height="570" rx="6" ry="6" fill="none" stroke="#1e293b" stroke-width="1.5" stroke-dasharray="4 3"/><text x="596" y="81" font-family="monospace" font-size="10" font-weight="600" fill="#1e293b">node Pod: api-server</text><rect class="uml-group-frame" data-uml-group="Kubernetes Cluster::Namespace: backend::Pod: worker" x="396" y="68" width="130" height="84" rx="6" ry="6" fill="none" stroke="#1e293b" stroke-width="1.5" stroke-dasharray="4 3"/><text x="402" y="81" font-family="monospace" font-size="10" font-weight="600" fill="#1e293b">node Pod: worker</text><rect class="uml-group-frame" data-uml-group="Kubernetes Cluster::Namespace: data::Pod: redis" x="570" y="716" width="130" height="84" rx="6" ry="6" fill="none" stroke="#1e293b" stroke-width="1.5" stroke-dasharray="4 3"/><text x="576" y="729" font-family="monospace" font-size="10" font-weight="600" fill="#1e293b">node Pod: redis</text><rect class="uml-group-frame" data-uml-group="Kubernetes Cluster::Namespace: data::StatefulSet: postgres" x="88" y="716" width="438" height="84" rx="6" ry="6" fill="none" stroke="#1e293b" stroke-width="1.5" stroke-dasharray="4 3"/><text x="94" y="729" font-family="monospace" font-size="10" font-weight="600" fill="#1e293b">node StatefulSet: postgres</text><rect class="uml-group-frame" data-uml-group="Kubernetes Cluster::Namespace: frontend::Pod: nginx-proxy" x="88" y="68" width="284" height="408" rx="6" ry="6" fill="none" stroke="#1e293b" stroke-width="1.5" stroke-dasharray="4 3"/><text x="94" y="81" font-family="monospace" font-size="10" font-weight="600" fill="#1e293b">node Pod: nginx-proxy</text><rect class="uml-group-frame" data-uml-group="Kubernetes Cluster::Namespace: frontend::Pod: react-app" x="319" y="554" width="130" height="84" rx="6" ry="6" fill="none" stroke="#1e293b" stroke-width="1.5" stroke-dasharray="4 3"/><text x="325" y="567" font-family="monospace" font-size="10" font-weight="600" fill="#1e293b">node Pod: react-app</text><desc data-uml-id="Kubernetes Cluster::Namespace: frontend::Pod: nginx-proxy::NGX">Kubernetes Cluster::Namespace: frontend::Pod: nginx-proxy::NGX</desc><polygon points="252,422 264,410 374,410 362,422" fill="#d4dff7" stroke="#1e293b" stroke-width="1"/><polygon points="362,422 374,410 374,454 362,466" fill="#b8c8ef" stroke="#1e293b" stroke-width="1"/><rect class="uml-node uml-deployment-shape" data-uml-kind="node" x="252" y="422" width="110" height="44" fill="#f0f4f8" stroke="#1e293b" stroke-width="1.5"/><text x="307" y="450" text-anchor="middle" font-family="monospace" font-size="13" font-weight="600" fill="#0f172a">nginx</text><text x="307" y="449" text-anchor="middle" font-family="monospace" font-size="10" fill="#64748b">&lt;&lt;container&gt;&gt;</text><desc data-uml-id="Kubernetes Cluster::Namespace: frontend::Pod: nginx-proxy::SL">Kubernetes Cluster::Namespace: frontend::Pod: nginx-proxy::SL</desc><polygon points="98,98 110,86 220,86 208,98" fill="#d4dff7" stroke="#1e293b" stroke-width="1"/><polygon points="208,98 220,86 220,130 208,142" fill="#b8c8ef" stroke="#1e293b" stroke-width="1"/><rect class="uml-node uml-deployment-shape" data-uml-kind="node" x="98" y="98" width="110" height="44" fill="#f0f4f8" stroke="#1e293b" stroke-width="1.5"/><text x="153" y="126" text-anchor="middle" font-family="monospace" font-size="13" font-weight="600" fill="#0f172a">sidecar-logger</text><text x="153" y="125" text-anchor="middle" font-family="monospace" font-size="10" fill="#64748b">&lt;&lt;container&gt;&gt;</text><desc data-uml-id="Kubernetes Cluster::Namespace: frontend::Pod: react-app::RB">Kubernetes Cluster::Namespace: frontend::Pod: react-app::RB</desc><polygon points="329,584 341,572 451,572 439,584" fill="#d4dff7" stroke="#1e293b" stroke-width="1"/><polygon points="439,584 451,572 451,616 439,628" fill="#b8c8ef" stroke="#1e293b" stroke-width="1"/><rect class="uml-node uml-deployment-shape" data-uml-kind="node" x="329" y="584" width="110" height="44" fill="#f0f4f8" stroke="#1e293b" stroke-width="1.5"/><text x="384" y="612" text-anchor="middle" font-family="monospace" font-size="13" font-weight="600" fill="#0f172a">react-build</text><text x="384" y="611" text-anchor="middle" font-family="monospace" font-size="10" fill="#64748b">&lt;&lt;container&gt;&gt;</text><desc data-uml-id="Kubernetes Cluster::Namespace: backend::Pod: api-server::API">Kubernetes Cluster::Namespace: backend::Pod: api-server::API</desc><polygon points="600,584 612,572 722,572 710,584" fill="#d4dff7" stroke="#1e293b" stroke-width="1"/><polygon points="710,584 722,572 722,616 710,628" fill="#b8c8ef" stroke="#1e293b" stroke-width="1"/><rect class="uml-node uml-deployment-shape" data-uml-kind="node" x="600" y="584" width="110" height="44" fill="#f0f4f8" stroke="#1e293b" stroke-width="1.5"/><text x="655" y="612" text-anchor="middle" font-family="monospace" font-size="13" font-weight="600" fill="#0f172a">api-service</text><text x="655" y="611" text-anchor="middle" font-family="monospace" font-size="10" fill="#64748b">&lt;&lt;container&gt;&gt;</text><desc data-uml-id="Kubernetes Cluster::Namespace: backend::Pod: api-server::ENV">Kubernetes Cluster::Namespace: backend::Pod: api-server::ENV</desc><polygon points="677,98 689,86 799,86 787,98" fill="#d4dff7" stroke="#1e293b" stroke-width="1"/><polygon points="787,98 799,86 799,130 787,142" fill="#b8c8ef" stroke="#1e293b" stroke-width="1"/><rect class="uml-node uml-deployment-shape" data-uml-kind="node" x="677" y="98" width="110" height="44" fill="#f0f4f8" stroke="#1e293b" stroke-width="1.5"/><text x="732" y="126" text-anchor="middle" font-family="monospace" font-size="13" font-weight="600" fill="#0f172a">envoy-proxy</text><text x="732" y="125" text-anchor="middle" font-family="monospace" font-size="10" fill="#64748b">&lt;&lt;container&gt;&gt;</text><desc data-uml-id="Kubernetes Cluster::Namespace: backend::Pod: worker::QC">Kubernetes Cluster::Namespace: backend::Pod: worker::QC</desc><polygon points="406,98 418,86 528,86 516,98" fill="#d4dff7" stroke="#1e293b" stroke-width="1"/><polygon points="516,98 528,86 528,130 516,142" fill="#b8c8ef" stroke="#1e293b" stroke-width="1"/><rect class="uml-node uml-deployment-shape" data-uml-kind="node" x="406" y="98" width="110" height="44" fill="#f0f4f8" stroke="#1e293b" stroke-width="1.5"/><text x="461" y="126" text-anchor="middle" font-family="monospace" font-size="13" font-weight="600" fill="#0f172a">queue-consumer</text><text x="461" y="125" text-anchor="middle" font-family="monospace" font-size="10" fill="#64748b">&lt;&lt;container&gt;&gt;</text><desc data-uml-id="Kubernetes Cluster::Namespace: data::StatefulSet: postgres::PG0">Kubernetes Cluster::Namespace: data::StatefulSet: postgres::PG0</desc><polygon points="98,746 110,734 220,734 208,746" fill="#d4dff7" stroke="#1e293b" stroke-width="1"/><polygon points="208,746 220,734 220,778 208,790" fill="#b8c8ef" stroke="#1e293b" stroke-width="1"/><rect class="uml-node uml-deployment-shape" data-uml-kind="node" x="98" y="746" width="110" height="44" fill="#f0f4f8" stroke="#1e293b" stroke-width="1.5"/><text x="153" y="774" text-anchor="middle" font-family="monospace" font-size="13" font-weight="600" fill="#0f172a">postgres-0</text><text x="153" y="773" text-anchor="middle" font-family="monospace" font-size="10" fill="#64748b">&lt;&lt;container&gt;&gt;</text><desc data-uml-id="Kubernetes Cluster::Namespace: data::StatefulSet: postgres::PG1">Kubernetes Cluster::Namespace: data::StatefulSet: postgres::PG1</desc><polygon points="406,746 418,734 528,734 516,746" fill="#d4dff7" stroke="#1e293b" stroke-width="1"/><polygon points="516,746 528,734 528,778 516,790" fill="#b8c8ef" stroke="#1e293b" stroke-width="1"/><rect class="uml-node uml-deployment-shape" data-uml-kind="node" x="406" y="746" width="110" height="44" fill="#f0f4f8" stroke="#1e293b" stroke-width="1.5"/><text x="461" y="774" text-anchor="middle" font-family="monospace" font-size="13" font-weight="600" fill="#0f172a">postgres-1</text><text x="461" y="773" text-anchor="middle" font-family="monospace" font-size="10" fill="#64748b">&lt;&lt;container&gt;&gt;</text><desc data-uml-id="Kubernetes Cluster::Namespace: data::Pod: redis::RS">Kubernetes Cluster::Namespace: data::Pod: redis::RS</desc><polygon points="580,746 592,734 702,734 690,746" fill="#d4dff7" stroke="#1e293b" stroke-width="1"/><polygon points="690,746 702,734 702,778 690,790" fill="#b8c8ef" stroke="#1e293b" stroke-width="1"/><rect class="uml-node uml-deployment-shape" data-uml-kind="node" x="580" y="746" width="110" height="44" fill="#f0f4f8" stroke="#1e293b" stroke-width="1.5"/><text x="635" y="774" text-anchor="middle" font-family="monospace" font-size="13" font-weight="600" fill="#0f172a">redis-server</text><text x="635" y="773" text-anchor="middle" font-family="monospace" font-size="10" fill="#64748b">&lt;&lt;container&gt;&gt;</text><desc data-uml-id="Kubernetes Cluster::IC">Kubernetes Cluster::IC</desc><polygon points="426,260 438,248 548,248 536,260" fill="#d4dff7" stroke="#1e293b" stroke-width="1"/><polygon points="536,260 548,248 548,292 536,304" fill="#b8c8ef" stroke="#1e293b" stroke-width="1"/><rect class="uml-node uml-deployment-shape" data-uml-kind="node" x="426" y="260" width="110" height="44" fill="#f0f4f8" stroke="#1e293b" stroke-width="1.5"/><text x="481" y="288" text-anchor="middle" font-family="monospace" font-size="13" font-weight="600" fill="#0f172a">Ingress Controller</text><polyline class="uml-relation" data-uml-from="IC" data-uml-to="NGX" data-uml-arrow="--&gt;" points="481,304 481,404 307,404 307,422" fill="none" stroke="#1e293b" stroke-width="2" marker-end="url(#arrow-open)" /><polyline class="uml-relation" data-uml-from="NGX" data-uml-to="API" data-uml-arrow="--&gt;" points="307,466 307,580 655,580 655,584" fill="none" stroke="#1e293b" stroke-width="2" marker-end="url(#arrow-open)" /><polyline class="uml-relation" data-uml-from="NGX" data-uml-to="RB" data-uml-arrow="--&gt;" points="307,466 307,580 384,580 384,584" fill="none" stroke="#1e293b" stroke-width="2" marker-end="url(#arrow-open)" /><polyline class="uml-relation" data-uml-from="API" data-uml-to="PG0" data-uml-arrow="--&gt;" points="655,628 655,742 153,742 153,746" fill="none" stroke="#1e293b" stroke-width="2" marker-end="url(#arrow-open)" /><polyline class="uml-relation" data-uml-from="API" data-uml-to="RS" data-uml-arrow="--&gt;" points="655,628 655,742 635,742 635,746" fill="none" stroke="#1e293b" stroke-width="2" marker-end="url(#arrow-open)" /><polyline class="uml-relation" data-uml-from="QC" data-uml-to="PG0" data-uml-arrow="--&gt;" points="461,142 461,201 895,201 895,742 153,742 153,746" fill="none" stroke="#1e293b" stroke-width="2" marker-end="url(#arrow-open)" /><polyline class="uml-relation" data-uml-from="SL" data-uml-to="IC" data-uml-arrow="--&gt;" points="153,142 153,164 481,164 481,260" fill="none" stroke="#1e293b" stroke-width="2" marker-end="url(#arrow-open)" /><polyline class="uml-relation" data-uml-from="ENV" data-uml-to="API" data-uml-arrow="--&gt;" points="732,142 732,237 895,237 895,525 655,525 655,584" fill="none" stroke="#1e293b" stroke-width="2" marker-end="url(#arrow-open)" /><text class="uml-edge-label" data-uml-label-role="edge" x="613" y="556" text-anchor="middle" font-family="monospace" font-size="11" fill="#1e293b">HTTP</text><text class="uml-edge-label" data-uml-label-role="edge" x="404" y="730" text-anchor="middle" font-family="monospace" font-size="11" fill="#1e293b">psql</text><rect class="uml-edge-label-bg" data-uml-label-role="edge-background" x="648" y="672" width="38" height="18" fill="white" opacity="0.85"/><rect class="uml-edge-label-bg" data-uml-label-role="edge-background" x="648" y="672" width="38" height="18" fill="white" opacity="0.85"/><text class="uml-edge-label" data-uml-label-role="edge" x="667" y="685" text-anchor="middle" font-family="monospace" font-size="11" fill="#1e293b">redis</text><text class="uml-edge-label" data-uml-label-role="edge" x="317" y="152" text-anchor="middle" font-family="monospace" font-size="11" fill="#1e293b">log forward</text><text class="uml-edge-label" data-uml-label-role="edge" x="698" y="556" text-anchor="middle" font-family="monospace" font-size="11" fill="#1e293b">mTLS</text><text x="14" y="-2" font-family="monospace" font-size="11" font-weight="600" fill="#ffffff">node Kubernetes Cluster</text></svg>