<svg xmlns="http://www.w3.org/2000/svg" width="1075" height="918" viewBox="0 0 1075 918"><rect width="100%" height="100%" fill="#f0f4f8"/><defs><marker id="arrow-open" viewBox="0 0 10 10" refX="9" refY="5" markerWidth="10" markerHeight="10" markerUnits="userSpaceOnUse" orient="auto-start-reverse"><path d="M0,0 L10,5 L0,10" fill="none" stroke="#1e293b" stroke-width="1.5"/></marker><marker id="arrow-triangle" viewBox="0 0 12 12" refX="11" refY="6" markerWidth="12" markerHeight="12" markerUnits="userSpaceOnUse" orient="auto-start-reverse"><polygon points="0,0 12,6 0,12" fill="#ffffff" stroke="#1e293b" stroke-width="1.5" fill-rule="nonzero"/></marker><marker id="arrow-diamond-filled" viewBox="0 0 14 10" refX="13" refY="5" markerWidth="14" markerHeight="10" markerUnits="userSpaceOnUse" orient="auto-start-reverse"><path d="M0,5 L7,0 L14,5 L7,10 z" fill="#1e293b" stroke="#1e293b" stroke-width="1"/></marker><marker id="arrow-diamond-open" viewBox="0 0 14 10" refX="13" refY="5" markerWidth="14" markerHeight="10" markerUnits="userSpaceOnUse" orient="auto-start-reverse"><path d="M0,5 L7,0 L14,5 L7,10 z" fill="#ffffff" stroke="#1e293b" stroke-width="1"/></marker><marker id="arrow-double-open" viewBox="0 0 16 12" refX="15" refY="6" markerWidth="16" markerHeight="12" markerUnits="userSpaceOnUse" orient="auto-start-reverse"><path d="M0,1 L8,6 L0,11 M7,1 L15,6 L7,11" fill="none" stroke="#1e293b" stroke-width="1.5" stroke-linejoin="round"/></marker><marker id="arrow-circle-open" viewBox="0 0 12 12" refX="11" refY="6" markerWidth="12" markerHeight="12" markerUnits="userSpaceOnUse" orient="auto-start-reverse"><circle cx="6" cy="6" r="4" fill="#ffffff" stroke="#1e293b" stroke-width="1.5"/></marker><marker id="arrow-circle-filled" viewBox="0 0 12 12" refX="11" refY="6" markerWidth="12" markerHeight="12" markerUnits="userSpaceOnUse" orient="auto-start-reverse"><circle cx="6" cy="6" r="4" fill="#1e293b" stroke="#1e293b" stroke-width="1.5"/></marker><marker id="arrow-triangle-filled" viewBox="0 0 12 12" refX="11" refY="6" markerWidth="12" markerHeight="12" markerUnits="userSpaceOnUse" orient="auto-start-reverse"><polygon points="0,0 12,6 0,12" fill="#1e293b" stroke="#1e293b" stroke-width="1.5"/></marker><marker id="arrow-box-filled" viewBox="0 0 12 12" refX="11" refY="6" markerWidth="12" markerHeight="12" markerUnits="userSpaceOnUse" orient="auto-start-reverse"><rect x="2" y="2" width="8" height="8" fill="#1e293b" stroke="#1e293b" stroke-width="1.5"/></marker><marker id="arrow-plus" viewBox="0 0 12 12" refX="11" refY="6" markerWidth="12" markerHeight="12" markerUnits="userSpaceOnUse" orient="auto-start-reverse"><path d="M6,1 L6,11 M1,6 L11,6" fill="none" stroke="#1e293b" stroke-width="1.8" stroke-linecap="round"/></marker><marker id="arrow-slash" viewBox="0 0 12 12" refX="10" refY="6" markerWidth="12" markerHeight="12" markerUnits="userSpaceOnUse" orient="auto-start-reverse"><path d="M3,2 L9,10" fill="none" stroke="#1e293b" stroke-width="1.8" stroke-linecap="round"/></marker><marker id="arrow-cross" viewBox="0 0 12 12" refX="11" refY="6" markerWidth="12" markerHeight="12" markerUnits="userSpaceOnUse" orient="auto-start-reverse"><path d="M2,2 L10,10 M10,2 L2,10" fill="none" stroke="#1e293b" stroke-width="1.8" stroke-linecap="round"/></marker><marker id="arrow-bracket-open" viewBox="0 0 12 14" refX="11" refY="7" markerWidth="12" markerHeight="14" markerUnits="userSpaceOnUse" orient="auto-start-reverse"><path d="M10,1 L4,1 L4,13 L10,13" fill="none" stroke="#1e293b" stroke-width="1.8" stroke-linecap="round" stroke-linejoin="round"/></marker></defs><marker id="arrow-ie-one" viewBox="0 0 24 16" refX="22" refY="8" markerWidth="24" markerHeight="16" markerUnits="userSpaceOnUse" orient="auto-start-reverse"><path d="M16,2 L16,14" fill="none" stroke="#1e293b" stroke-width="1.8" stroke-linecap="round"/></marker><marker id="arrow-ie-zero-one" viewBox="0 0 30 16" refX="28" refY="8" markerWidth="30" markerHeight="16" markerUnits="userSpaceOnUse" orient="auto-start-reverse"><circle cx="10" cy="8" r="4" fill="#ffffff" stroke="#1e293b" stroke-width="1.5"/><path d="M20,2 L20,14" fill="none" stroke="#1e293b" stroke-width="1.8" stroke-linecap="round"/></marker><marker id="arrow-ie-zero-many" viewBox="0 0 34 18" refX="32" refY="9" markerWidth="34" markerHeight="18" markerUnits="userSpaceOnUse" orient="auto-start-reverse"><circle cx="8" cy="9" r="4" fill="#ffffff" stroke="#1e293b" stroke-width="1.5"/><path d="M18,9 L31,2 M18,9 L31,9 M18,9 L31,16" fill="none" stroke="#1e293b" stroke-width="1.7" stroke-linecap="round"/></marker><marker id="arrow-ie-one-many" viewBox="0 0 34 18" refX="32" refY="9" markerWidth="34" markerHeight="18" markerUnits="userSpaceOnUse" orient="auto-start-reverse"><path d="M8,2 L8,16 M18,9 L31,2 M18,9 L31,9 M18,9 L31,16" fill="none" stroke="#1e293b" stroke-width="1.7" stroke-linecap="round"/></marker><text x="8" y="8" font-family="monospace" font-size="18" font-weight="600">Kubernetes pod and container groupings</text><rect class="uml-group-frame" data-uml-group="Kubernetes Cluster" x="6" y="46" width="1013" height="860" rx="8" ry="8" fill="#f8faff" stroke="#1e293b" stroke-width="1.5"/><rect x="6" y="46" width="1013" height="40" rx="8" ry="8" fill="#1e293b" stroke="none"/><rect x="6" y="78" width="1013" height="8" fill="#1e293b" stroke="none"/><text x="14" y="78" font-family="monospace" font-size="11" font-weight="600" fill="#ffffff">Kubernetes Cluster</text><line x1="6" y1="86" x2="1019" y2="86" stroke="#1e293b" stroke-width="1"/><rect class="uml-group-frame" data-uml-group="Kubernetes Cluster::Namespace: backend" x="448" y="132" width="497" height="552" rx="6" ry="6" fill="none" stroke="#1e293b" stroke-width="1.5" stroke-dasharray="4 3"/><text x="454" y="145" font-family="monospace" font-size="10" font-weight="600" fill="#1e293b">Namespace: backend</text><rect class="uml-group-frame" data-uml-group="Kubernetes Cluster::Namespace: data" x="80" y="724" width="748" height="108" rx="6" ry="6" fill="none" stroke="#1e293b" stroke-width="1.5" stroke-dasharray="4 3"/><text x="86" y="737" font-family="monospace" font-size="10" font-weight="600" fill="#1e293b">Namespace: data</text><rect class="uml-group-frame" data-uml-group="Kubernetes Cluster::Namespace: frontend" x="80" y="132" width="452" height="552" rx="6" ry="6" fill="none" stroke="#1e293b" stroke-width="1.5" stroke-dasharray="4 3"/><text x="86" y="145" font-family="monospace" font-size="10" font-weight="600" fill="#1e293b">Namespace: frontend</text><rect class="uml-group-frame" data-uml-group="Kubernetes Cluster::Namespace: backend::Pod: api-server" x="685" y="148" width="252" height="528" rx="6" ry="6" fill="none" stroke="#1e293b" stroke-width="1.5" stroke-dasharray="4 3"/><text x="691" y="161" font-family="monospace" font-size="10" font-weight="600" fill="#1e293b">Pod: api-server</text><rect class="uml-group-frame" data-uml-group="Kubernetes Cluster::Namespace: backend::Pod: worker" x="456" y="148" width="160" height="84" rx="6" ry="6" fill="none" stroke="#1e293b" stroke-width="1.5" stroke-dasharray="4 3"/><text x="462" y="161" font-family="monospace" font-size="10" font-weight="600" fill="#1e293b">Pod: worker</text><rect class="uml-group-frame" data-uml-group="Kubernetes Cluster::Namespace: data::Pod: redis" x="660" y="740" width="160" height="84" rx="6" ry="6" fill="none" stroke="#1e293b" stroke-width="1.5" stroke-dasharray="4 3"/><text x="666" y="753" font-family="monospace" font-size="10" font-weight="600" fill="#1e293b">Pod: redis</text><rect class="uml-group-frame" data-uml-group="Kubernetes Cluster::Namespace: data::StatefulSet: postgres" x="88" y="740" width="528" height="84" rx="6" ry="6" fill="none" stroke="#1e293b" stroke-width="1.5" stroke-dasharray="4 3"/><text x="94" y="753" font-family="monospace" font-size="10" font-weight="600" fill="#1e293b">StatefulSet: postgres</text><rect class="uml-group-frame" data-uml-group="Kubernetes Cluster::Namespace: frontend::Pod: nginx-proxy" x="88" y="148" width="344" height="380" rx="6" ry="6" fill="none" stroke="#1e293b" stroke-width="1.5" stroke-dasharray="4 3"/><text x="94" y="161" font-family="monospace" font-size="10" font-weight="600" fill="#1e293b">Pod: nginx-proxy</text><rect class="uml-group-frame" data-uml-group="Kubernetes Cluster::Namespace: frontend::Pod: react-app" x="364" y="592" width="160" height="84" rx="6" ry="6" fill="none" stroke="#1e293b" stroke-width="1.5" stroke-dasharray="4 3"/><text x="370" y="605" font-family="monospace" font-size="10" font-weight="600" fill="#1e293b">Pod: react-app</text><desc data-uml-id="Kubernetes Cluster::Namespace: frontend::Pod: nginx-proxy::NGX">Kubernetes Cluster::Namespace: frontend::Pod: nginx-proxy::NGX</desc><polygon points="282,474 294,462 434,462 422,474" fill="#d4dff7" stroke="#1e293b" stroke-width="1"/><polygon points="422,474 434,462 434,506 422,518" fill="#b8c8ef" stroke="#1e293b" stroke-width="1"/><rect class="uml-node uml-deployment-shape" data-uml-kind="node" x="282" y="474" width="140" height="44" fill="#f0f4f8" stroke="#1e293b" stroke-width="1.5"/><text x="352" y="502" text-anchor="middle" font-family="monospace" font-size="13" font-weight="600" fill="#0f172a">nginx</text><text x="352" y="488" text-anchor="middle" font-family="monospace" font-size="10" fill="#64748b">&lt;&lt;container&gt;&gt;</text><desc data-uml-id="Kubernetes Cluster::Namespace: frontend::Pod: nginx-proxy::SL">Kubernetes Cluster::Namespace: frontend::Pod: nginx-proxy::SL</desc><polygon points="98,178 110,166 250,166 238,178" fill="#d4dff7" stroke="#1e293b" stroke-width="1"/><polygon points="238,178 250,166 250,210 238,222" fill="#b8c8ef" stroke="#1e293b" stroke-width="1"/><rect class="uml-node uml-deployment-shape" data-uml-kind="node" x="98" y="178" width="140" height="44" fill="#f0f4f8" stroke="#1e293b" stroke-width="1.5"/><text x="168" y="206" text-anchor="middle" font-family="monospace" font-size="13" font-weight="600" fill="#0f172a">sidecar-logger</text><text x="168" y="192" text-anchor="middle" font-family="monospace" font-size="10" fill="#64748b">&lt;&lt;container&gt;&gt;</text><desc data-uml-id="Kubernetes Cluster::Namespace: frontend::Pod: react-app::RB">Kubernetes Cluster::Namespace: frontend::Pod: react-app::RB</desc><polygon points="374,622 386,610 526,610 514,622" fill="#d4dff7" stroke="#1e293b" stroke-width="1"/><polygon points="514,622 526,610 526,654 514,666" fill="#b8c8ef" stroke="#1e293b" stroke-width="1"/><rect class="uml-node uml-deployment-shape" data-uml-kind="node" x="374" y="622" width="140" height="44" fill="#f0f4f8" stroke="#1e293b" stroke-width="1.5"/><text x="444" y="650" text-anchor="middle" font-family="monospace" font-size="13" font-weight="600" fill="#0f172a">react-build</text><text x="444" y="636" text-anchor="middle" font-family="monospace" font-size="10" fill="#64748b">&lt;&lt;container&gt;&gt;</text><desc data-uml-id="Kubernetes Cluster::Namespace: backend::Pod: api-server::API">Kubernetes Cluster::Namespace: backend::Pod: api-server::API</desc><polygon points="695,622 707,610 847,610 835,622" fill="#d4dff7" stroke="#1e293b" stroke-width="1"/><polygon points="835,622 847,610 847,654 835,666" fill="#b8c8ef" stroke="#1e293b" stroke-width="1"/><rect class="uml-node uml-deployment-shape" data-uml-kind="node" x="695" y="622" width="140" height="44" fill="#f0f4f8" stroke="#1e293b" stroke-width="1.5"/><text x="765" y="650" text-anchor="middle" font-family="monospace" font-size="13" font-weight="600" fill="#0f172a">api-service</text><text x="765" y="636" text-anchor="middle" font-family="monospace" font-size="10" fill="#64748b">&lt;&lt;container&gt;&gt;</text><desc data-uml-id="Kubernetes Cluster::Namespace: backend::Pod: api-server::ENV">Kubernetes Cluster::Namespace: backend::Pod: api-server::ENV</desc><polygon points="787,178 799,166 939,166 927,178" fill="#d4dff7" stroke="#1e293b" stroke-width="1"/><polygon points="927,178 939,166 939,210 927,222" fill="#b8c8ef" stroke="#1e293b" stroke-width="1"/><rect class="uml-node uml-deployment-shape" data-uml-kind="node" x="787" y="178" width="140" height="44" fill="#f0f4f8" stroke="#1e293b" stroke-width="1.5"/><text x="857" y="206" text-anchor="middle" font-family="monospace" font-size="13" font-weight="600" fill="#0f172a">envoy-proxy</text><text x="857" y="192" text-anchor="middle" font-family="monospace" font-size="10" fill="#64748b">&lt;&lt;container&gt;&gt;</text><desc data-uml-id="Kubernetes Cluster::Namespace: backend::Pod: worker::QC">Kubernetes Cluster::Namespace: backend::Pod: worker::QC</desc><polygon points="466,178 478,166 618,166 606,178" fill="#d4dff7" stroke="#1e293b" stroke-width="1"/><polygon points="606,178 618,166 618,210 606,222" fill="#b8c8ef" stroke="#1e293b" stroke-width="1"/><rect class="uml-node uml-deployment-shape" data-uml-kind="node" x="466" y="178" width="140" height="44" fill="#f0f4f8" stroke="#1e293b" stroke-width="1.5"/><text x="536" y="206" text-anchor="middle" font-family="monospace" font-size="13" font-weight="600" fill="#0f172a">queue-consumer</text><text x="536" y="192" text-anchor="middle" font-family="monospace" font-size="10" fill="#64748b">&lt;&lt;container&gt;&gt;</text><desc data-uml-id="Kubernetes Cluster::Namespace: data::StatefulSet: postgres::PG0">Kubernetes Cluster::Namespace: data::StatefulSet: postgres::PG0</desc><polygon points="98,770 110,758 250,758 238,770" fill="#d4dff7" stroke="#1e293b" stroke-width="1"/><polygon points="238,770 250,758 250,802 238,814" fill="#b8c8ef" stroke="#1e293b" stroke-width="1"/><rect class="uml-node uml-deployment-shape" data-uml-kind="node" x="98" y="770" width="140" height="44" fill="#f0f4f8" stroke="#1e293b" stroke-width="1.5"/><text x="168" y="798" text-anchor="middle" font-family="monospace" font-size="13" font-weight="600" fill="#0f172a">postgres-0</text><text x="168" y="784" text-anchor="middle" font-family="monospace" font-size="10" fill="#64748b">&lt;&lt;container&gt;&gt;</text><desc data-uml-id="Kubernetes Cluster::Namespace: data::StatefulSet: postgres::PG1">Kubernetes Cluster::Namespace: data::StatefulSet: postgres::PG1</desc><polygon points="466,770 478,758 618,758 606,770" fill="#d4dff7" stroke="#1e293b" stroke-width="1"/><polygon points="606,770 618,758 618,802 606,814" fill="#b8c8ef" stroke="#1e293b" stroke-width="1"/><rect class="uml-node uml-deployment-shape" data-uml-kind="node" x="466" y="770" width="140" height="44" fill="#f0f4f8" stroke="#1e293b" stroke-width="1.5"/><text x="536" y="798" text-anchor="middle" font-family="monospace" font-size="13" font-weight="600" fill="#0f172a">postgres-1</text><text x="536" y="784" text-anchor="middle" font-family="monospace" font-size="10" fill="#64748b">&lt;&lt;container&gt;&gt;</text><desc data-uml-id="Kubernetes Cluster::Namespace: data::Pod: redis::RS">Kubernetes Cluster::Namespace: data::Pod: redis::RS</desc><polygon points="670,770 682,758 822,758 810,770" fill="#d4dff7" stroke="#1e293b" stroke-width="1"/><polygon points="810,770 822,758 822,802 810,814" fill="#b8c8ef" stroke="#1e293b" stroke-width="1"/><rect class="uml-node uml-deployment-shape" data-uml-kind="node" x="670" y="770" width="140" height="44" fill="#f0f4f8" stroke="#1e293b" stroke-width="1.5"/><text x="740" y="798" text-anchor="middle" font-family="monospace" font-size="13" font-weight="600" fill="#0f172a">redis-server</text><text x="740" y="784" text-anchor="middle" font-family="monospace" font-size="10" fill="#64748b">&lt;&lt;container&gt;&gt;</text><desc data-uml-id="Kubernetes Cluster::IC">Kubernetes Cluster::IC</desc><polygon points="486,326 498,314 643,314 631,326" fill="#d4dff7" stroke="#1e293b" stroke-width="1"/><polygon points="631,326 643,314 643,358 631,370" fill="#b8c8ef" stroke="#1e293b" stroke-width="1"/><rect class="uml-node uml-deployment-shape" data-uml-kind="node" x="486" y="326" width="145" height="44" fill="#f0f4f8" stroke="#1e293b" stroke-width="1.5"/><text x="558" y="354" text-anchor="middle" font-family="monospace" font-size="13" font-weight="600" fill="#0f172a">Ingress Controller</text><polyline class="uml-relation" data-uml-from="IC" data-uml-to="NGX" data-uml-arrow="--&gt;" points="558,370 558,458 352,458 352,474" fill="none" stroke="#1e293b" stroke-width="2" marker-end="url(#arrow-open)" /><polyline class="uml-relation" data-uml-from="NGX" data-uml-to="API" data-uml-arrow="--&gt;" points="352,518 352,618 765,618 765,622" fill="none" stroke="#1e293b" stroke-width="2" marker-end="url(#arrow-open)" /><polyline class="uml-relation" data-uml-from="NGX" data-uml-to="RB" data-uml-arrow="--&gt;" points="352,518 352,618 444,618 444,622" fill="none" stroke="#1e293b" stroke-width="2" marker-end="url(#arrow-open)" /><polyline class="uml-relation" data-uml-from="API" data-uml-to="PG0" data-uml-arrow="--&gt;" points="765,666 765,766 168,766 168,770" fill="none" stroke="#1e293b" stroke-width="2" marker-end="url(#arrow-open)" /><polyline class="uml-relation" data-uml-from="API" data-uml-to="RS" data-uml-arrow="--&gt;" points="765,666 765,766 740,766 740,770" fill="none" stroke="#1e293b" stroke-width="2" marker-end="url(#arrow-open)" /><polyline class="uml-relation" data-uml-from="QC" data-uml-to="PG0" data-uml-arrow="--&gt;" points="536,222 536,274 30,274 30,766 168,766 168,770" fill="none" stroke="#1e293b" stroke-width="2" marker-end="url(#arrow-open)" /><polyline class="uml-relation" data-uml-from="SL" data-uml-to="IC" data-uml-arrow="--&gt;" points="168,222 168,242 558,242 558,326" fill="none" stroke="#1e293b" stroke-width="2" marker-end="url(#arrow-open)" /><polyline class="uml-relation" data-uml-from="ENV" data-uml-to="API" data-uml-arrow="--&gt;" points="857,222 857,306 765,306 765,622" fill="none" stroke="#1e293b" stroke-width="2" marker-end="url(#arrow-open)" /><text class="uml-edge-label" data-uml-label-role="edge" x="723" y="594" text-anchor="middle" font-family="monospace" font-size="11" fill="#1e293b">HTTP</text><text class="uml-edge-label" data-uml-label-role="edge" x="466" y="754" text-anchor="middle" font-family="monospace" font-size="11" fill="#1e293b">psql</text><rect class="uml-edge-label-bg" data-uml-label-role="edge-background" x="758" y="703" width="38" height="18" fill="white" opacity="0.85"/><text class="uml-edge-label" data-uml-label-role="edge" x="777" y="716" text-anchor="middle" font-family="monospace" font-size="11" fill="#1e293b">redis</text><text class="uml-edge-label" data-uml-label-role="edge" x="363" y="230" text-anchor="middle" font-family="monospace" font-size="11" fill="#1e293b">log forward</text><text class="uml-edge-label" data-uml-label-role="edge" x="808" y="594" text-anchor="middle" font-family="monospace" font-size="11" fill="#1e293b">mTLS</text><text x="14" y="78" font-family="monospace" font-size="11" font-weight="600" fill="#ffffff">Kubernetes Cluster</text></svg>