<svg xmlns="http://www.w3.org/2000/svg" width="1245" height="1178" viewBox="0 0 1245 1178"><rect width="100%" height="100%" fill="#f0f4f8"/><defs><marker id="arrow-open" viewBox="0 0 10 10" refX="9" refY="5" markerWidth="10" markerHeight="10" markerUnits="userSpaceOnUse" orient="auto-start-reverse"><path d="M0,0 L10,5 L0,10" fill="none" stroke="#1e293b" stroke-width="1.5"/></marker><marker id="arrow-triangle" viewBox="0 0 12 12" refX="11" refY="6" markerWidth="12" markerHeight="12" markerUnits="userSpaceOnUse" orient="auto-start-reverse"><polygon points="0,0 12,6 0,12" fill="#ffffff" stroke="#1e293b" stroke-width="1.5" fill-rule="nonzero"/></marker><marker id="arrow-diamond-filled" viewBox="0 0 14 10" refX="13" refY="5" markerWidth="14" markerHeight="10" markerUnits="userSpaceOnUse" orient="auto-start-reverse"><path d="M0,5 L7,0 L14,5 L7,10 z" fill="#1e293b" stroke="#1e293b" stroke-width="1"/></marker><marker id="arrow-diamond-open" viewBox="0 0 14 10" refX="13" refY="5" markerWidth="14" markerHeight="10" markerUnits="userSpaceOnUse" orient="auto-start-reverse"><path d="M0,5 L7,0 L14,5 L7,10 z" fill="#ffffff" stroke="#1e293b" stroke-width="1"/></marker><marker id="arrow-double-open" viewBox="0 0 16 12" refX="15" refY="6" markerWidth="16" markerHeight="12" markerUnits="userSpaceOnUse" orient="auto-start-reverse"><path d="M0,1 L8,6 L0,11 M7,1 L15,6 L7,11" fill="none" stroke="#1e293b" stroke-width="1.5" stroke-linejoin="round"/></marker><marker id="arrow-circle-open" viewBox="0 0 12 12" refX="11" refY="6" markerWidth="12" markerHeight="12" markerUnits="userSpaceOnUse" orient="auto-start-reverse"><circle cx="6" cy="6" r="4" fill="#ffffff" stroke="#1e293b" stroke-width="1.5"/></marker><marker id="arrow-circle-filled" viewBox="0 0 12 12" refX="11" refY="6" markerWidth="12" markerHeight="12" markerUnits="userSpaceOnUse" orient="auto-start-reverse"><circle cx="6" cy="6" r="4" fill="#1e293b" stroke="#1e293b" stroke-width="1.5"/></marker><marker id="arrow-triangle-filled" viewBox="0 0 12 12" refX="11" refY="6" markerWidth="12" markerHeight="12" markerUnits="userSpaceOnUse" orient="auto-start-reverse"><polygon points="0,0 12,6 0,12" fill="#1e293b" stroke="#1e293b" stroke-width="1.5"/></marker><marker id="arrow-box-filled" viewBox="0 0 12 12" refX="11" refY="6" markerWidth="12" markerHeight="12" markerUnits="userSpaceOnUse" orient="auto-start-reverse"><rect x="2" y="2" width="8" height="8" fill="#1e293b" stroke="#1e293b" stroke-width="1.5"/></marker><marker id="arrow-plus" viewBox="0 0 12 12" refX="11" refY="6" markerWidth="12" markerHeight="12" markerUnits="userSpaceOnUse" orient="auto-start-reverse"><path d="M6,1 L6,11 M1,6 L11,6" fill="none" stroke="#1e293b" stroke-width="1.8" stroke-linecap="round"/></marker><marker id="arrow-slash" viewBox="0 0 12 12" refX="10" refY="6" markerWidth="12" markerHeight="12" markerUnits="userSpaceOnUse" orient="auto-start-reverse"><path d="M3,2 L9,10" fill="none" stroke="#1e293b" stroke-width="1.8" stroke-linecap="round"/></marker><marker id="arrow-cross" viewBox="0 0 12 12" refX="11" refY="6" markerWidth="12" markerHeight="12" markerUnits="userSpaceOnUse" orient="auto-start-reverse"><path d="M2,2 L10,10 M10,2 L2,10" fill="none" stroke="#1e293b" stroke-width="1.8" stroke-linecap="round"/></marker><marker id="arrow-bracket-open" viewBox="0 0 12 14" refX="11" refY="7" markerWidth="12" markerHeight="14" markerUnits="userSpaceOnUse" orient="auto-start-reverse"><path d="M10,1 L4,1 L4,13 L10,13" fill="none" stroke="#1e293b" stroke-width="1.8" stroke-linecap="round" stroke-linejoin="round"/></marker></defs><marker id="arrow-ie-one" viewBox="0 0 24 16" refX="22" refY="8" markerWidth="24" markerHeight="16" markerUnits="userSpaceOnUse" orient="auto-start-reverse"><path d="M16,2 L16,14" fill="none" stroke="#1e293b" stroke-width="1.8" stroke-linecap="round"/></marker><marker id="arrow-ie-zero-one" viewBox="0 0 30 16" refX="28" refY="8" markerWidth="30" markerHeight="16" markerUnits="userSpaceOnUse" orient="auto-start-reverse"><circle cx="10" cy="8" r="4" fill="#ffffff" stroke="#1e293b" stroke-width="1.5"/><path d="M20,2 L20,14" fill="none" stroke="#1e293b" stroke-width="1.8" stroke-linecap="round"/></marker><marker id="arrow-ie-zero-many" viewBox="0 0 34 18" refX="32" refY="9" markerWidth="34" markerHeight="18" markerUnits="userSpaceOnUse" orient="auto-start-reverse"><circle cx="8" cy="9" r="4" fill="#ffffff" stroke="#1e293b" stroke-width="1.5"/><path d="M18,9 L31,2 M18,9 L31,9 M18,9 L31,16" fill="none" stroke="#1e293b" stroke-width="1.7" stroke-linecap="round"/></marker><marker id="arrow-ie-one-many" viewBox="0 0 34 18" refX="32" refY="9" markerWidth="34" markerHeight="18" markerUnits="userSpaceOnUse" orient="auto-start-reverse"><path d="M8,2 L8,16 M18,9 L31,2 M18,9 L31,9 M18,9 L31,16" fill="none" stroke="#1e293b" stroke-width="1.7" stroke-linecap="round"/></marker><text x="40" y="40" font-family="monospace" font-size="18" font-weight="600">Kubernetes pod and container groupings</text><rect class="uml-group-frame" data-uml-group="Kubernetes Cluster" x="38" y="78" width="1151" height="1060" rx="8" ry="8" fill="#f8faff" stroke="#1e293b" stroke-width="1.5"/><rect x="38" y="78" width="1151" height="40" rx="8" ry="8" fill="#1e293b" stroke="none"/><rect x="38" y="110" width="1151" height="8" fill="#1e293b" stroke="none"/><text x="46" y="110" font-family="monospace" font-size="11" font-weight="600" fill="#ffffff">Kubernetes Cluster</text><line x1="38" y1="118" x2="1189" y2="118" stroke="#1e293b" stroke-width="1"/><rect class="uml-group-frame" data-uml-group="Kubernetes Cluster::Namespace: backend" x="580" y="176" width="523" height="684" rx="6" ry="6" fill="none" stroke="#1e293b" stroke-width="1.5" stroke-dasharray="4 3"/><text x="586" y="189" font-family="monospace" font-size="10" font-weight="600" fill="#1e293b">Namespace: backend</text><rect class="uml-group-frame" data-uml-group="Kubernetes Cluster::Namespace: data" x="124" y="944" width="860" height="108" rx="6" ry="6" fill="none" stroke="#1e293b" stroke-width="1.5" stroke-dasharray="4 3"/><text x="130" y="957" font-family="monospace" font-size="10" font-weight="600" fill="#1e293b">Namespace: data</text><rect class="uml-group-frame" data-uml-group="Kubernetes Cluster::Namespace: frontend" x="124" y="176" width="518" height="684" rx="6" ry="6" fill="none" stroke="#1e293b" stroke-width="1.5" stroke-dasharray="4 3"/><text x="130" y="189" font-family="monospace" font-size="10" font-weight="600" fill="#1e293b">Namespace: frontend</text><rect class="uml-group-frame" data-uml-group="Kubernetes Cluster::Namespace: backend::Pod: api-server" x="821" y="192" width="274" height="660" rx="6" ry="6" fill="none" stroke="#1e293b" stroke-width="1.5" stroke-dasharray="4 3"/><text x="827" y="205" font-family="monospace" font-size="10" font-weight="600" fill="#1e293b">Pod: api-server</text><rect class="uml-group-frame" data-uml-group="Kubernetes Cluster::Namespace: backend::Pod: worker" x="588" y="192" width="160" height="84" rx="6" ry="6" fill="none" stroke="#1e293b" stroke-width="1.5" stroke-dasharray="4 3"/><text x="594" y="205" font-family="monospace" font-size="10" font-weight="600" fill="#1e293b">Pod: worker</text><rect class="uml-group-frame" data-uml-group="Kubernetes Cluster::Namespace: data::Pod: redis" x="816" y="960" width="160" height="84" rx="6" ry="6" fill="none" stroke="#1e293b" stroke-width="1.5" stroke-dasharray="4 3"/><text x="822" y="973" font-family="monospace" font-size="10" font-weight="600" fill="#1e293b">Pod: redis</text><rect class="uml-group-frame" data-uml-group="Kubernetes Cluster::Namespace: data::StatefulSet: postgres" x="132" y="960" width="616" height="84" rx="6" ry="6" fill="none" stroke="#1e293b" stroke-width="1.5" stroke-dasharray="4 3"/><text x="138" y="973" font-family="monospace" font-size="10" font-weight="600" fill="#1e293b">StatefulSet: postgres</text><rect class="uml-group-frame" data-uml-group="Kubernetes Cluster::Namespace: frontend::Pod: nginx-proxy" x="132" y="192" width="388" height="468" rx="6" ry="6" fill="none" stroke="#1e293b" stroke-width="1.5" stroke-dasharray="4 3"/><text x="138" y="205" font-family="monospace" font-size="10" font-weight="600" fill="#1e293b">Pod: nginx-proxy</text><rect class="uml-group-frame" data-uml-group="Kubernetes Cluster::Namespace: frontend::Pod: react-app" x="474" y="768" width="160" height="84" rx="6" ry="6" fill="none" stroke="#1e293b" stroke-width="1.5" stroke-dasharray="4 3"/><text x="480" y="781" font-family="monospace" font-size="10" font-weight="600" fill="#1e293b">Pod: react-app</text><desc data-uml-id="Kubernetes Cluster::Namespace: frontend::Pod: nginx-proxy::NGX">Kubernetes Cluster::Namespace: frontend::Pod: nginx-proxy::NGX</desc><polygon points="370,606 382,594 522,594 510,606" fill="#d4dff7" stroke="#1e293b" stroke-width="1"/><polygon points="510,606 522,594 522,638 510,650" fill="#b8c8ef" stroke="#1e293b" stroke-width="1"/><rect class="uml-node uml-deployment-shape" data-uml-kind="node" x="370" y="606" width="140" height="44" fill="#f0f4f8" stroke="#1e293b" stroke-width="1.5"/><text x="440" y="634" text-anchor="middle" font-family="monospace" font-size="13" font-weight="600" fill="#0f172a">nginx</text><text x="440" y="620" text-anchor="middle" font-family="monospace" font-size="10" fill="#64748b">&lt;&lt;container&gt;&gt;</text><desc data-uml-id="Kubernetes Cluster::Namespace: frontend::Pod: nginx-proxy::SL">Kubernetes Cluster::Namespace: frontend::Pod: nginx-proxy::SL</desc><polygon points="142,222 154,210 294,210 282,222" fill="#d4dff7" stroke="#1e293b" stroke-width="1"/><polygon points="282,222 294,210 294,254 282,266" fill="#b8c8ef" stroke="#1e293b" stroke-width="1"/><rect class="uml-node uml-deployment-shape" data-uml-kind="node" x="142" y="222" width="140" height="44" fill="#f0f4f8" stroke="#1e293b" stroke-width="1.5"/><text x="212" y="250" text-anchor="middle" font-family="monospace" font-size="13" font-weight="600" fill="#0f172a">sidecar-logger</text><text x="212" y="236" text-anchor="middle" font-family="monospace" font-size="10" fill="#64748b">&lt;&lt;container&gt;&gt;</text><desc data-uml-id="Kubernetes Cluster::Namespace: frontend::Pod: react-app::RB">Kubernetes Cluster::Namespace: frontend::Pod: react-app::RB</desc><polygon points="484,798 496,786 636,786 624,798" fill="#d4dff7" stroke="#1e293b" stroke-width="1"/><polygon points="624,798 636,786 636,830 624,842" fill="#b8c8ef" stroke="#1e293b" stroke-width="1"/><rect class="uml-node uml-deployment-shape" data-uml-kind="node" x="484" y="798" width="140" height="44" fill="#f0f4f8" stroke="#1e293b" stroke-width="1.5"/><text x="554" y="826" text-anchor="middle" font-family="monospace" font-size="13" font-weight="600" fill="#0f172a">react-build</text><text x="554" y="812" text-anchor="middle" font-family="monospace" font-size="10" fill="#64748b">&lt;&lt;container&gt;&gt;</text><desc data-uml-id="Kubernetes Cluster::Namespace: backend::Pod: api-server::API">Kubernetes Cluster::Namespace: backend::Pod: api-server::API</desc><polygon points="831,798 843,786 983,786 971,798" fill="#d4dff7" stroke="#1e293b" stroke-width="1"/><polygon points="971,798 983,786 983,830 971,842" fill="#b8c8ef" stroke="#1e293b" stroke-width="1"/><rect class="uml-node uml-deployment-shape" data-uml-kind="node" x="831" y="798" width="140" height="44" fill="#f0f4f8" stroke="#1e293b" stroke-width="1.5"/><text x="901" y="826" text-anchor="middle" font-family="monospace" font-size="13" font-weight="600" fill="#0f172a">api-service</text><text x="901" y="812" text-anchor="middle" font-family="monospace" font-size="10" fill="#64748b">&lt;&lt;container&gt;&gt;</text><desc data-uml-id="Kubernetes Cluster::Namespace: backend::Pod: api-server::ENV">Kubernetes Cluster::Namespace: backend::Pod: api-server::ENV</desc><polygon points="945,222 957,210 1097,210 1085,222" fill="#d4dff7" stroke="#1e293b" stroke-width="1"/><polygon points="1085,222 1097,210 1097,254 1085,266" fill="#b8c8ef" stroke="#1e293b" stroke-width="1"/><rect class="uml-node uml-deployment-shape" data-uml-kind="node" x="945" y="222" width="140" height="44" fill="#f0f4f8" stroke="#1e293b" stroke-width="1.5"/><text x="1015" y="250" text-anchor="middle" font-family="monospace" font-size="13" font-weight="600" fill="#0f172a">envoy-proxy</text><text x="1015" y="236" text-anchor="middle" font-family="monospace" font-size="10" fill="#64748b">&lt;&lt;container&gt;&gt;</text><desc data-uml-id="Kubernetes Cluster::Namespace: backend::Pod: worker::QC">Kubernetes Cluster::Namespace: backend::Pod: worker::QC</desc><polygon points="598,222 610,210 750,210 738,222" fill="#d4dff7" stroke="#1e293b" stroke-width="1"/><polygon points="738,222 750,210 750,254 738,266" fill="#b8c8ef" stroke="#1e293b" stroke-width="1"/><rect class="uml-node uml-deployment-shape" data-uml-kind="node" x="598" y="222" width="140" height="44" fill="#f0f4f8" stroke="#1e293b" stroke-width="1.5"/><text x="668" y="250" text-anchor="middle" font-family="monospace" font-size="13" font-weight="600" fill="#0f172a">queue-consumer</text><text x="668" y="236" text-anchor="middle" font-family="monospace" font-size="10" fill="#64748b">&lt;&lt;container&gt;&gt;</text><desc data-uml-id="Kubernetes Cluster::Namespace: data::StatefulSet: postgres::PG0">Kubernetes Cluster::Namespace: data::StatefulSet: postgres::PG0</desc><polygon points="142,990 154,978 294,978 282,990" fill="#d4dff7" stroke="#1e293b" stroke-width="1"/><polygon points="282,990 294,978 294,1022 282,1034" fill="#b8c8ef" stroke="#1e293b" stroke-width="1"/><rect class="uml-node uml-deployment-shape" data-uml-kind="node" x="142" y="990" width="140" height="44" fill="#f0f4f8" stroke="#1e293b" stroke-width="1.5"/><text x="212" y="1018" text-anchor="middle" font-family="monospace" font-size="13" font-weight="600" fill="#0f172a">postgres-0</text><text x="212" y="1004" text-anchor="middle" font-family="monospace" font-size="10" fill="#64748b">&lt;&lt;container&gt;&gt;</text><desc data-uml-id="Kubernetes Cluster::Namespace: data::StatefulSet: postgres::PG1">Kubernetes Cluster::Namespace: data::StatefulSet: postgres::PG1</desc><polygon points="598,990 610,978 750,978 738,990" fill="#d4dff7" stroke="#1e293b" stroke-width="1"/><polygon points="738,990 750,978 750,1022 738,1034" fill="#b8c8ef" stroke="#1e293b" stroke-width="1"/><rect class="uml-node uml-deployment-shape" data-uml-kind="node" x="598" y="990" width="140" height="44" fill="#f0f4f8" stroke="#1e293b" stroke-width="1.5"/><text x="668" y="1018" text-anchor="middle" font-family="monospace" font-size="13" font-weight="600" fill="#0f172a">postgres-1</text><text x="668" y="1004" text-anchor="middle" font-family="monospace" font-size="10" fill="#64748b">&lt;&lt;container&gt;&gt;</text><desc data-uml-id="Kubernetes Cluster::Namespace: data::Pod: redis::RS">Kubernetes Cluster::Namespace: data::Pod: redis::RS</desc><polygon points="826,990 838,978 978,978 966,990" fill="#d4dff7" stroke="#1e293b" stroke-width="1"/><polygon points="966,990 978,978 978,1022 966,1034" fill="#b8c8ef" stroke="#1e293b" stroke-width="1"/><rect class="uml-node uml-deployment-shape" data-uml-kind="node" x="826" y="990" width="140" height="44" fill="#f0f4f8" stroke="#1e293b" stroke-width="1.5"/><text x="896" y="1018" text-anchor="middle" font-family="monospace" font-size="13" font-weight="600" fill="#0f172a">redis-server</text><text x="896" y="1004" text-anchor="middle" font-family="monospace" font-size="10" fill="#64748b">&lt;&lt;container&gt;&gt;</text><desc data-uml-id="Kubernetes Cluster::IC">Kubernetes Cluster::IC</desc><polygon points="598,414 610,402 755,402 743,414" fill="#d4dff7" stroke="#1e293b" stroke-width="1"/><polygon points="743,414 755,402 755,446 743,458" fill="#b8c8ef" stroke="#1e293b" stroke-width="1"/><rect class="uml-node uml-deployment-shape" data-uml-kind="node" x="598" y="414" width="145" height="44" fill="#f0f4f8" stroke="#1e293b" stroke-width="1.5"/><text x="670" y="442" text-anchor="middle" font-family="monospace" font-size="13" font-weight="600" fill="#0f172a">Ingress Controller</text><polyline class="uml-relation" data-uml-from="IC" data-uml-to="NGX" data-uml-arrow="--&gt;" points="670,458 670,584 440,584 440,606" fill="none" stroke="#1e293b" stroke-width="2" marker-end="url(#arrow-open)" /><polyline class="uml-relation" data-uml-from="NGX" data-uml-to="API" data-uml-arrow="--&gt;" points="440,650 440,786 901,786 901,798" fill="none" stroke="#1e293b" stroke-width="2" marker-end="url(#arrow-open)" /><polyline class="uml-relation" data-uml-from="NGX" data-uml-to="RB" data-uml-arrow="--&gt;" points="440,650 440,786 554,786 554,798" fill="none" stroke="#1e293b" stroke-width="2" marker-end="url(#arrow-open)" /><polyline class="uml-relation" data-uml-from="API" data-uml-to="PG0" data-uml-arrow="--&gt;" points="901,842 901,978 212,978 212,990" fill="none" stroke="#1e293b" stroke-width="2" marker-end="url(#arrow-open)" /><polyline class="uml-relation" data-uml-from="API" data-uml-to="RS" data-uml-arrow="--&gt;" points="901,842 901,978 896,978 896,990" fill="none" stroke="#1e293b" stroke-width="2" marker-end="url(#arrow-open)" /><polyline class="uml-relation" data-uml-from="QC" data-uml-to="PG0" data-uml-arrow="--&gt;" points="668,266 668,340 62,340 62,978 212,978 212,990" fill="none" stroke="#1e293b" stroke-width="2" marker-end="url(#arrow-open)" /><polyline class="uml-relation" data-uml-from="SL" data-uml-to="IC" data-uml-arrow="--&gt;" points="212,266 212,293 670,293 670,414" fill="none" stroke="#1e293b" stroke-width="2" marker-end="url(#arrow-open)" /><polyline class="uml-relation" data-uml-from="ENV" data-uml-to="API" data-uml-arrow="--&gt;" points="1015,266 1015,386 901,386 901,798" fill="none" stroke="#1e293b" stroke-width="2" marker-end="url(#arrow-open)" /><text class="uml-edge-label" data-uml-label-role="edge" x="859" y="770" text-anchor="middle" font-family="monospace" font-size="11" fill="#1e293b">HTTP</text><text class="uml-edge-label" data-uml-label-role="edge" x="556" y="966" text-anchor="middle" font-family="monospace" font-size="11" fill="#1e293b">psql</text><rect class="uml-edge-label-bg" data-uml-label-role="edge-background" x="894" y="897" width="38" height="18" fill="white" opacity="0.85"/><text class="uml-edge-label" data-uml-label-role="edge" x="913" y="910" text-anchor="middle" font-family="monospace" font-size="11" fill="#1e293b">redis</text><text class="uml-edge-label" data-uml-label-role="edge" x="441" y="281" text-anchor="middle" font-family="monospace" font-size="11" fill="#1e293b">log forward</text><text class="uml-edge-label" data-uml-label-role="edge" x="944" y="770" text-anchor="middle" font-family="monospace" font-size="11" fill="#1e293b">mTLS</text><text x="46" y="110" font-family="monospace" font-size="11" font-weight="600" fill="#ffffff">Kubernetes Cluster</text></svg>