<svg xmlns="http://www.w3.org/2000/svg" width="1302" height="1556" viewBox="0 0 1302 1556"><rect width="100%" height="100%" fill="#f0f4f8"/><defs><marker id="arrow-open" viewBox="0 0 10 10" refX="9" refY="5" markerWidth="10" markerHeight="10" markerUnits="userSpaceOnUse" orient="auto-start-reverse"><path d="M0,0 L10,5 L0,10" fill="none" stroke="#1e293b" stroke-width="1.5"/></marker><marker id="arrow-triangle" viewBox="0 0 12 12" refX="11" refY="6" markerWidth="12" markerHeight="12" markerUnits="userSpaceOnUse" orient="auto-start-reverse"><polygon points="0,0 12,6 0,12" fill="#ffffff" stroke="#1e293b" stroke-width="1.5" fill-rule="nonzero"/></marker><marker id="arrow-diamond-filled" viewBox="0 0 14 10" refX="13" refY="5" markerWidth="14" markerHeight="10" markerUnits="userSpaceOnUse" orient="auto-start-reverse"><path d="M0,5 L7,0 L14,5 L7,10 z" fill="#1e293b" stroke="#1e293b" stroke-width="1"/></marker><marker id="arrow-diamond-open" viewBox="0 0 14 10" refX="13" refY="5" markerWidth="14" markerHeight="10" markerUnits="userSpaceOnUse" orient="auto-start-reverse"><path d="M0,5 L7,0 L14,5 L7,10 z" fill="#ffffff" stroke="#1e293b" stroke-width="1"/></marker><marker id="arrow-double-open" viewBox="0 0 16 12" refX="15" refY="6" markerWidth="16" markerHeight="12" markerUnits="userSpaceOnUse" orient="auto-start-reverse"><path d="M0,1 L8,6 L0,11 M7,1 L15,6 L7,11" fill="none" stroke="#1e293b" stroke-width="1.5" stroke-linejoin="round"/></marker><marker id="arrow-circle-open" viewBox="0 0 12 12" refX="11" refY="6" markerWidth="12" markerHeight="12" markerUnits="userSpaceOnUse" orient="auto-start-reverse"><circle cx="6" cy="6" r="4" fill="#ffffff" stroke="#1e293b" stroke-width="1.5"/></marker><marker id="arrow-circle-filled" viewBox="0 0 12 12" refX="11" refY="6" markerWidth="12" markerHeight="12" markerUnits="userSpaceOnUse" orient="auto-start-reverse"><circle cx="6" cy="6" r="4" fill="#1e293b" stroke="#1e293b" stroke-width="1.5"/></marker><marker id="arrow-triangle-filled" viewBox="0 0 12 12" refX="11" refY="6" markerWidth="12" markerHeight="12" markerUnits="userSpaceOnUse" orient="auto-start-reverse"><polygon points="0,0 12,6 0,12" fill="#1e293b" stroke="#1e293b" stroke-width="1.5"/></marker><marker id="arrow-box-filled" viewBox="0 0 12 12" refX="11" refY="6" markerWidth="12" markerHeight="12" markerUnits="userSpaceOnUse" orient="auto-start-reverse"><rect x="2" y="2" width="8" height="8" fill="#1e293b" stroke="#1e293b" stroke-width="1.5"/></marker><marker id="arrow-plus" viewBox="0 0 12 12" refX="11" refY="6" markerWidth="12" markerHeight="12" markerUnits="userSpaceOnUse" orient="auto-start-reverse"><path d="M6,1 L6,11 M1,6 L11,6" fill="none" stroke="#1e293b" stroke-width="1.8" stroke-linecap="round"/></marker><marker id="arrow-slash" viewBox="0 0 12 12" refX="10" refY="6" markerWidth="12" markerHeight="12" markerUnits="userSpaceOnUse" orient="auto-start-reverse"><path d="M3,2 L9,10" fill="none" stroke="#1e293b" stroke-width="1.8" stroke-linecap="round"/></marker></defs><text x="40" y="40" font-family="monospace" font-size="18" font-weight="600">Kubernetes pod and container groupings</text><rect class="uml-group-frame" data-uml-group="Kubernetes Cluster" x="118" y="78" width="1112" height="1320" rx="8" ry="8" fill="#f8faff" stroke="#1e293b" stroke-width="1.5"/><rect x="118" y="78" width="1112" height="40" rx="8" ry="8" fill="#1e293b" stroke="none"/><rect x="118" y="110" width="1112" height="8" fill="#1e293b" stroke="none"/><text x="126" y="110" font-family="monospace" font-size="11" font-weight="600" fill="#ffffff">node Kubernetes Cluster</text><line x1="118" y1="118" x2="1230" y2="118" stroke="#1e293b" stroke-width="1"/><rect class="uml-group-frame" data-uml-group="Kubernetes Cluster::Namespace: backend" x="124" y="672" width="1100" height="432" rx="6" ry="6" fill="none" stroke="#1e293b" stroke-width="1.5" stroke-dasharray="4 3"/><text x="130" y="685" font-family="monospace" font-size="10" font-weight="600" fill="#1e293b">node Namespace: backend</text><rect class="uml-group-frame" data-uml-group="Kubernetes Cluster::Namespace: data" x="412" y="672" width="524" height="720" rx="6" ry="6" fill="none" stroke="#1e293b" stroke-width="1.5" stroke-dasharray="4 3"/><text x="418" y="685" font-family="monospace" font-size="10" font-weight="600" fill="#1e293b">node Namespace: data</text><rect class="uml-group-frame" data-uml-group="Kubernetes Cluster::Namespace: frontend" x="412" y="96" width="524" height="1008" rx="6" ry="6" fill="none" stroke="#1e293b" stroke-width="1.5" stroke-dasharray="4 3"/><text x="418" y="109" font-family="monospace" font-size="10" font-weight="600" fill="#1e293b">node Namespace: frontend</text><rect class="uml-group-frame" data-uml-group="Kubernetes Cluster::Namespace: backend::Pod: api-server" x="132" y="688" width="508" height="408" rx="6" ry="6" fill="none" stroke="#1e293b" stroke-width="1.5" stroke-dasharray="4 3"/><text x="138" y="701" font-family="monospace" font-size="10" font-weight="600" fill="#1e293b">node Pod: api-server</text><rect class="uml-group-frame" data-uml-group="Kubernetes Cluster::Namespace: backend::Pod: worker" x="996" y="688" width="220" height="120" rx="6" ry="6" fill="none" stroke="#1e293b" stroke-width="1.5" stroke-dasharray="4 3"/><text x="1002" y="701" font-family="monospace" font-size="10" font-weight="600" fill="#1e293b">node Pod: worker</text><rect class="uml-group-frame" data-uml-group="Kubernetes Cluster::Namespace: data::Pod: redis" x="708" y="1264" width="220" height="120" rx="6" ry="6" fill="none" stroke="#1e293b" stroke-width="1.5" stroke-dasharray="4 3"/><text x="714" y="1277" font-family="monospace" font-size="10" font-weight="600" fill="#1e293b">node Pod: redis</text><rect class="uml-group-frame" data-uml-group="Kubernetes Cluster::Namespace: data::StatefulSet: postgres" x="420" y="688" width="508" height="696" rx="6" ry="6" fill="none" stroke="#1e293b" stroke-width="1.5" stroke-dasharray="4 3"/><text x="426" y="701" font-family="monospace" font-size="10" font-weight="600" fill="#1e293b">node StatefulSet: postgres</text><rect class="uml-group-frame" data-uml-group="Kubernetes Cluster::Namespace: frontend::Pod: nginx-proxy" x="420" y="112" width="364" height="696" rx="6" ry="6" fill="none" stroke="#1e293b" stroke-width="1.5" stroke-dasharray="4 3"/><text x="426" y="125" font-family="monospace" font-size="10" font-weight="600" fill="#1e293b">node Pod: nginx-proxy</text><rect class="uml-group-frame" data-uml-group="Kubernetes Cluster::Namespace: frontend::Pod: react-app" x="708" y="976" width="220" height="120" rx="6" ry="6" fill="none" stroke="#1e293b" stroke-width="1.5" stroke-dasharray="4 3"/><text x="714" y="989" font-family="monospace" font-size="10" font-weight="600" fill="#1e293b">node Pod: react-app</text><desc data-uml-id="Kubernetes Cluster::Namespace: frontend::Pod: nginx-proxy::NGX">Kubernetes Cluster::Namespace: frontend::Pod: nginx-proxy::NGX</desc><polygon points="430,718 442,706 642,706 630,718" fill="#d4dff7" stroke="#1e293b" stroke-width="1"/><polygon points="630,718 642,706 642,786 630,798" fill="#b8c8ef" stroke="#1e293b" stroke-width="1"/><rect class="uml-node uml-deployment-shape" data-uml-kind="node" x="430" y="718" width="200" height="80" fill="#f0f4f8" stroke="#1e293b" stroke-width="1.5"/><text x="530" y="764" text-anchor="middle" font-family="monospace" font-size="13" font-weight="600" fill="#0f172a">nginx</text><text x="530" y="732" text-anchor="middle" font-family="monospace" font-size="10" fill="#0f172a">node</text><text x="530" y="745" text-anchor="middle" font-family="monospace" font-size="10" fill="#64748b">&lt;&lt;container&gt;&gt;</text><desc data-uml-id="Kubernetes Cluster::Namespace: frontend::Pod: nginx-proxy::SL">Kubernetes Cluster::Namespace: frontend::Pod: nginx-proxy::SL</desc><polygon points="574,142 586,130 786,130 774,142" fill="#d4dff7" stroke="#1e293b" stroke-width="1"/><polygon points="774,142 786,130 786,210 774,222" fill="#b8c8ef" stroke="#1e293b" stroke-width="1"/><rect class="uml-node uml-deployment-shape" data-uml-kind="node" x="574" y="142" width="200" height="80" fill="#f0f4f8" stroke="#1e293b" stroke-width="1.5"/><text x="674" y="188" text-anchor="middle" font-family="monospace" font-size="13" font-weight="600" fill="#0f172a">sidecar-logger</text><text x="674" y="156" text-anchor="middle" font-family="monospace" font-size="10" fill="#0f172a">node</text><text x="674" y="169" text-anchor="middle" font-family="monospace" font-size="10" fill="#64748b">&lt;&lt;container&gt;&gt;</text><desc data-uml-id="Kubernetes Cluster::Namespace: frontend::Pod: react-app::RB">Kubernetes Cluster::Namespace: frontend::Pod: react-app::RB</desc><polygon points="718,1006 730,994 930,994 918,1006" fill="#d4dff7" stroke="#1e293b" stroke-width="1"/><polygon points="918,1006 930,994 930,1074 918,1086" fill="#b8c8ef" stroke="#1e293b" stroke-width="1"/><rect class="uml-node uml-deployment-shape" data-uml-kind="node" x="718" y="1006" width="200" height="80" fill="#f0f4f8" stroke="#1e293b" stroke-width="1.5"/><text x="818" y="1052" text-anchor="middle" font-family="monospace" font-size="13" font-weight="600" fill="#0f172a">react-build</text><text x="818" y="1020" text-anchor="middle" font-family="monospace" font-size="10" fill="#0f172a">node</text><text x="818" y="1033" text-anchor="middle" font-family="monospace" font-size="10" fill="#64748b">&lt;&lt;container&gt;&gt;</text><desc data-uml-id="Kubernetes Cluster::Namespace: backend::Pod: api-server::API">Kubernetes Cluster::Namespace: backend::Pod: api-server::API</desc><polygon points="430,1006 442,994 642,994 630,1006" fill="#d4dff7" stroke="#1e293b" stroke-width="1"/><polygon points="630,1006 642,994 642,1074 630,1086" fill="#b8c8ef" stroke="#1e293b" stroke-width="1"/><rect class="uml-node uml-deployment-shape" data-uml-kind="node" x="430" y="1006" width="200" height="80" fill="#f0f4f8" stroke="#1e293b" stroke-width="1.5"/><text x="530" y="1052" text-anchor="middle" font-family="monospace" font-size="13" font-weight="600" fill="#0f172a">api-service</text><text x="530" y="1020" text-anchor="middle" font-family="monospace" font-size="10" fill="#0f172a">node</text><text x="530" y="1033" text-anchor="middle" font-family="monospace" font-size="10" fill="#64748b">&lt;&lt;container&gt;&gt;</text><desc data-uml-id="Kubernetes Cluster::Namespace: backend::Pod: api-server::ENV">Kubernetes Cluster::Namespace: backend::Pod: api-server::ENV</desc><polygon points="142,718 154,706 354,706 342,718" fill="#d4dff7" stroke="#1e293b" stroke-width="1"/><polygon points="342,718 354,706 354,786 342,798" fill="#b8c8ef" stroke="#1e293b" stroke-width="1"/><rect class="uml-node uml-deployment-shape" data-uml-kind="node" x="142" y="718" width="200" height="80" fill="#f0f4f8" stroke="#1e293b" stroke-width="1.5"/><text x="242" y="764" text-anchor="middle" font-family="monospace" font-size="13" font-weight="600" fill="#0f172a">envoy-proxy</text><text x="242" y="732" text-anchor="middle" font-family="monospace" font-size="10" fill="#0f172a">node</text><text x="242" y="745" text-anchor="middle" font-family="monospace" font-size="10" fill="#64748b">&lt;&lt;container&gt;&gt;</text><desc data-uml-id="Kubernetes Cluster::Namespace: backend::Pod: worker::QC">Kubernetes Cluster::Namespace: backend::Pod: worker::QC</desc><polygon points="1006,718 1018,706 1218,706 1206,718" fill="#d4dff7" stroke="#1e293b" stroke-width="1"/><polygon points="1206,718 1218,706 1218,786 1206,798" fill="#b8c8ef" stroke="#1e293b" stroke-width="1"/><rect class="uml-node uml-deployment-shape" data-uml-kind="node" x="1006" y="718" width="200" height="80" fill="#f0f4f8" stroke="#1e293b" stroke-width="1.5"/><text x="1106" y="764" text-anchor="middle" font-family="monospace" font-size="13" font-weight="600" fill="#0f172a">queue-consumer</text><text x="1106" y="732" text-anchor="middle" font-family="monospace" font-size="10" fill="#0f172a">node</text><text x="1106" y="745" text-anchor="middle" font-family="monospace" font-size="10" fill="#64748b">&lt;&lt;container&gt;&gt;</text><desc data-uml-id="Kubernetes Cluster::Namespace: data::StatefulSet: postgres::PG0">Kubernetes Cluster::Namespace: data::StatefulSet: postgres::PG0</desc><polygon points="430,1294 442,1282 642,1282 630,1294" fill="#d4dff7" stroke="#1e293b" stroke-width="1"/><polygon points="630,1294 642,1282 642,1362 630,1374" fill="#b8c8ef" stroke="#1e293b" stroke-width="1"/><rect class="uml-node uml-deployment-shape" data-uml-kind="node" x="430" y="1294" width="200" height="80" fill="#f0f4f8" stroke="#1e293b" stroke-width="1.5"/><text x="530" y="1340" text-anchor="middle" font-family="monospace" font-size="13" font-weight="600" fill="#0f172a">postgres-0</text><text x="530" y="1308" text-anchor="middle" font-family="monospace" font-size="10" fill="#0f172a">node</text><text x="530" y="1321" text-anchor="middle" font-family="monospace" font-size="10" fill="#64748b">&lt;&lt;container&gt;&gt;</text><desc data-uml-id="Kubernetes Cluster::Namespace: data::StatefulSet: postgres::PG1">Kubernetes Cluster::Namespace: data::StatefulSet: postgres::PG1</desc><polygon points="718,718 730,706 930,706 918,718" fill="#d4dff7" stroke="#1e293b" stroke-width="1"/><polygon points="918,718 930,706 930,786 918,798" fill="#b8c8ef" stroke="#1e293b" stroke-width="1"/><rect class="uml-node uml-deployment-shape" data-uml-kind="node" x="718" y="718" width="200" height="80" fill="#f0f4f8" stroke="#1e293b" stroke-width="1.5"/><text x="818" y="764" text-anchor="middle" font-family="monospace" font-size="13" font-weight="600" fill="#0f172a">postgres-1</text><text x="818" y="732" text-anchor="middle" font-family="monospace" font-size="10" fill="#0f172a">node</text><text x="818" y="745" text-anchor="middle" font-family="monospace" font-size="10" fill="#64748b">&lt;&lt;container&gt;&gt;</text><desc data-uml-id="Kubernetes Cluster::Namespace: data::Pod: redis::RS">Kubernetes Cluster::Namespace: data::Pod: redis::RS</desc><polygon points="718,1294 730,1282 930,1282 918,1294" fill="#d4dff7" stroke="#1e293b" stroke-width="1"/><polygon points="918,1294 930,1282 930,1362 918,1374" fill="#b8c8ef" stroke="#1e293b" stroke-width="1"/><rect class="uml-node uml-deployment-shape" data-uml-kind="node" x="718" y="1294" width="200" height="80" fill="#f0f4f8" stroke="#1e293b" stroke-width="1.5"/><text x="818" y="1340" text-anchor="middle" font-family="monospace" font-size="13" font-weight="600" fill="#0f172a">redis-server</text><text x="818" y="1308" text-anchor="middle" font-family="monospace" font-size="10" fill="#0f172a">node</text><text x="818" y="1321" text-anchor="middle" font-family="monospace" font-size="10" fill="#64748b">&lt;&lt;container&gt;&gt;</text><desc data-uml-id="Kubernetes Cluster::IC">Kubernetes Cluster::IC</desc><polygon points="574,430 586,418 786,418 774,430" fill="#d4dff7" stroke="#1e293b" stroke-width="1"/><polygon points="774,430 786,418 786,498 774,510" fill="#b8c8ef" stroke="#1e293b" stroke-width="1"/><rect class="uml-node uml-deployment-shape" data-uml-kind="node" x="574" y="430" width="200" height="80" fill="#f0f4f8" stroke="#1e293b" stroke-width="1.5"/><text x="674" y="476" text-anchor="middle" font-family="monospace" font-size="13" font-weight="600" fill="#0f172a">Ingress Controller</text><text x="674" y="444" text-anchor="middle" font-family="monospace" font-size="10" fill="#0f172a">node</text><polyline class="uml-relation" data-uml-from="IC" data-uml-to="NGX" data-uml-arrow="--&gt;" points="674,510 674,614 530,614 530,718" fill="none" stroke="#1e293b" stroke-width="2" marker-end="url(#arrow-open)" /><polyline class="uml-relation" data-uml-from="NGX" data-uml-to="API" data-uml-arrow="--&gt;" points="530,798 530,902 530,1006" fill="none" stroke="#1e293b" stroke-width="2" marker-end="url(#arrow-open)" /><polyline class="uml-relation" data-uml-from="NGX" data-uml-to="RB" data-uml-arrow="--&gt;" points="530,798 530,927 818,927 818,1006" fill="none" stroke="#1e293b" stroke-width="2" marker-end="url(#arrow-open)" /><polyline class="uml-relation" data-uml-from="API" data-uml-to="PG0" data-uml-arrow="--&gt;" points="530,1086 530,1190 530,1294" fill="none" stroke="#1e293b" stroke-width="2" marker-end="url(#arrow-open)" /><polyline class="uml-relation" data-uml-from="API" data-uml-to="RS" data-uml-arrow="--&gt;" points="530,1086 530,1273 818,1273 818,1294" fill="none" stroke="#1e293b" stroke-width="2" marker-end="url(#arrow-open)" /><polyline class="uml-relation" data-uml-from="QC" data-uml-to="PG0" data-uml-arrow="--&gt;" points="1106,798 1106,977 530,977 530,1294" fill="none" stroke="#1e293b" stroke-width="2" marker-end="url(#arrow-open)" /><polyline class="uml-relation" data-uml-from="SL" data-uml-to="IC" data-uml-arrow="--&gt;" points="674,222 674,326 674,430" fill="none" stroke="#1e293b" stroke-width="2" marker-end="url(#arrow-open)" /><polyline class="uml-relation" data-uml-from="ENV" data-uml-to="API" data-uml-arrow="--&gt;" points="242,798 242,827 530,827 530,1006" fill="none" stroke="#1e293b" stroke-width="2" marker-end="url(#arrow-open)" /><rect class="uml-edge-label-bg" data-uml-label-role="edge-background" x="557" y="965" width="32" height="18" fill="white" opacity="0.85"/><text class="uml-edge-label" data-uml-label-role="edge" x="573" y="978" text-anchor="middle" font-family="monospace" font-size="11" fill="#1e293b">HTTP</text><rect class="uml-edge-label-bg" data-uml-label-role="edge-background" x="514" y="1165" width="32" height="18" fill="white" opacity="0.85"/><rect class="uml-edge-label-bg" data-uml-label-role="edge-background" x="514" y="1165" width="32" height="18" fill="white" opacity="0.85"/><rect class="uml-edge-label-bg" data-uml-label-role="edge-background" x="514" y="1165" width="32" height="18" fill="white" opacity="0.85"/><text class="uml-edge-label" data-uml-label-role="edge" x="530" y="1178" text-anchor="middle" font-family="monospace" font-size="11" fill="#1e293b">psql</text><text class="uml-edge-label" data-uml-label-role="edge" x="674" y="1261" text-anchor="middle" font-family="monospace" font-size="11" fill="#1e293b">redis</text><rect class="uml-edge-label-bg" data-uml-label-role="edge-background" x="634" y="301" width="80" height="18" fill="white" opacity="0.85"/><text class="uml-edge-label" data-uml-label-role="edge" x="674" y="314" text-anchor="middle" font-family="monospace" font-size="11" fill="#1e293b">log forward</text><text class="uml-edge-label" data-uml-label-role="edge" x="488" y="978" text-anchor="middle" font-family="monospace" font-size="11" fill="#1e293b">mTLS</text></svg>