<svg xmlns="http://www.w3.org/2000/svg" width="977" height="872" viewBox="0 0 977 872"><rect width="100%" height="100%" fill="#f0f4f8"/><defs><marker id="arrow-open" viewBox="0 0 10 10" refX="9" refY="5" markerWidth="10" markerHeight="10" markerUnits="userSpaceOnUse" orient="auto-start-reverse"><path d="M0,0 L10,5 L0,10" fill="none" stroke="#1e293b" stroke-width="1.5"/></marker><marker id="arrow-triangle" viewBox="0 0 12 12" refX="11" refY="6" markerWidth="12" markerHeight="12" markerUnits="userSpaceOnUse" orient="auto-start-reverse"><polygon points="0,0 12,6 0,12" fill="#ffffff" stroke="#1e293b" stroke-width="1.5" fill-rule="nonzero"/></marker><marker id="arrow-diamond-filled" viewBox="0 0 14 10" refX="13" refY="5" markerWidth="14" markerHeight="10" markerUnits="userSpaceOnUse" orient="auto-start-reverse"><path d="M0,5 L7,0 L14,5 L7,10 z" fill="#1e293b" stroke="#1e293b" stroke-width="1"/></marker><marker id="arrow-diamond-open" viewBox="0 0 14 10" refX="13" refY="5" markerWidth="14" markerHeight="10" markerUnits="userSpaceOnUse" orient="auto-start-reverse"><path d="M0,5 L7,0 L14,5 L7,10 z" fill="#ffffff" stroke="#1e293b" stroke-width="1"/></marker><marker id="arrow-double-open" viewBox="0 0 16 12" refX="15" refY="6" markerWidth="16" markerHeight="12" markerUnits="userSpaceOnUse" orient="auto-start-reverse"><path d="M0,1 L8,6 L0,11 M7,1 L15,6 L7,11" fill="none" stroke="#1e293b" stroke-width="1.5" stroke-linejoin="round"/></marker><marker id="arrow-circle-open" viewBox="0 0 12 12" refX="11" refY="6" markerWidth="12" markerHeight="12" markerUnits="userSpaceOnUse" orient="auto-start-reverse"><circle cx="6" cy="6" r="4" fill="#ffffff" stroke="#1e293b" stroke-width="1.5"/></marker><marker id="arrow-circle-filled" viewBox="0 0 12 12" refX="11" refY="6" markerWidth="12" markerHeight="12" markerUnits="userSpaceOnUse" orient="auto-start-reverse"><circle cx="6" cy="6" r="4" fill="#1e293b" stroke="#1e293b" stroke-width="1.5"/></marker><marker id="arrow-triangle-filled" viewBox="0 0 12 12" refX="11" refY="6" markerWidth="12" markerHeight="12" markerUnits="userSpaceOnUse" orient="auto-start-reverse"><polygon points="0,0 12,6 0,12" fill="#1e293b" stroke="#1e293b" stroke-width="1.5"/></marker><marker id="arrow-box-filled" viewBox="0 0 12 12" refX="11" refY="6" markerWidth="12" markerHeight="12" markerUnits="userSpaceOnUse" orient="auto-start-reverse"><rect x="2" y="2" width="8" height="8" fill="#1e293b" stroke="#1e293b" stroke-width="1.5"/></marker><marker id="arrow-plus" viewBox="0 0 12 12" refX="11" refY="6" markerWidth="12" markerHeight="12" markerUnits="userSpaceOnUse" orient="auto-start-reverse"><path d="M6,1 L6,11 M1,6 L11,6" fill="none" stroke="#1e293b" stroke-width="1.8" stroke-linecap="round"/></marker><marker id="arrow-slash" viewBox="0 0 12 12" refX="10" refY="6" markerWidth="12" markerHeight="12" markerUnits="userSpaceOnUse" orient="auto-start-reverse"><path d="M3,2 L9,10" fill="none" stroke="#1e293b" stroke-width="1.8" stroke-linecap="round"/></marker><marker id="arrow-cross" viewBox="0 0 12 12" refX="11" refY="6" markerWidth="12" markerHeight="12" markerUnits="userSpaceOnUse" orient="auto-start-reverse"><path d="M2,2 L10,10 M10,2 L2,10" fill="none" stroke="#1e293b" stroke-width="1.8" stroke-linecap="round"/></marker><marker id="arrow-bracket-open" viewBox="0 0 12 14" refX="11" refY="7" markerWidth="12" markerHeight="14" markerUnits="userSpaceOnUse" orient="auto-start-reverse"><path d="M10,1 L4,1 L4,13 L10,13" fill="none" stroke="#1e293b" stroke-width="1.8" stroke-linecap="round" stroke-linejoin="round"/></marker></defs><marker id="arrow-ie-one" viewBox="0 0 24 16" refX="22" refY="8" markerWidth="24" markerHeight="16" markerUnits="userSpaceOnUse" orient="auto-start-reverse"><path d="M16,2 L16,14" fill="none" stroke="#1e293b" stroke-width="1.8" stroke-linecap="round"/></marker><marker id="arrow-ie-zero-one" viewBox="0 0 30 16" refX="28" refY="8" markerWidth="30" markerHeight="16" markerUnits="userSpaceOnUse" orient="auto-start-reverse"><circle cx="10" cy="8" r="4" fill="#ffffff" stroke="#1e293b" stroke-width="1.5"/><path d="M20,2 L20,14" fill="none" stroke="#1e293b" stroke-width="1.8" stroke-linecap="round"/></marker><marker id="arrow-ie-zero-many" viewBox="0 0 34 18" refX="32" refY="9" markerWidth="34" markerHeight="18" markerUnits="userSpaceOnUse" orient="auto-start-reverse"><circle cx="8" cy="9" r="4" fill="#ffffff" stroke="#1e293b" stroke-width="1.5"/><path d="M18,9 L31,2 M18,9 L31,9 M18,9 L31,16" fill="none" stroke="#1e293b" stroke-width="1.7" stroke-linecap="round"/></marker><marker id="arrow-ie-one-many" viewBox="0 0 34 18" refX="32" refY="9" markerWidth="34" markerHeight="18" markerUnits="userSpaceOnUse" orient="auto-start-reverse"><path d="M8,2 L8,16 M18,9 L31,2 M18,9 L31,9 M18,9 L31,16" fill="none" stroke="#1e293b" stroke-width="1.7" stroke-linecap="round"/></marker><text x="8" y="8" font-family="monospace" font-size="18" font-weight="600">Kubernetes pod and container groupings</text><rect class="uml-group-frame" data-uml-group="Kubernetes Cluster" x="6" y="-34" width="915" height="860" rx="8" ry="8" fill="#f8faff" stroke="#1e293b" stroke-width="1.5"/><rect x="6" y="-34" width="915" height="40" rx="8" ry="8" fill="#1e293b" stroke="none"/><rect x="6" y="-2" width="915" height="8" fill="#1e293b" stroke="none"/><text x="14" y="-2" font-family="monospace" font-size="11" font-weight="600" fill="#ffffff">Kubernetes Cluster</text><line x1="6" y1="6" x2="921" y2="6" stroke="#1e293b" stroke-width="1"/><rect class="uml-group-frame" data-uml-group="Kubernetes Cluster::Namespace: backend" x="395" y="52" width="452" height="552" rx="6" ry="6" fill="none" stroke="#1e293b" stroke-width="1.5" stroke-dasharray="4 3"/><text x="401" y="65" font-family="monospace" font-size="10" font-weight="600" fill="#1e293b">Namespace: backend</text><rect class="uml-group-frame" data-uml-group="Kubernetes Cluster::Namespace: data" x="87" y="644" width="628" height="108" rx="6" ry="6" fill="none" stroke="#1e293b" stroke-width="1.5" stroke-dasharray="4 3"/><text x="93" y="657" font-family="monospace" font-size="10" font-weight="600" fill="#1e293b">Namespace: data</text><rect class="uml-group-frame" data-uml-group="Kubernetes Cluster::Namespace: frontend" x="80" y="52" width="384" height="552" rx="6" ry="6" fill="none" stroke="#1e293b" stroke-width="1.5" stroke-dasharray="4 3"/><text x="86" y="65" font-family="monospace" font-size="10" font-weight="600" fill="#1e293b">Namespace: frontend</text><rect class="uml-group-frame" data-uml-group="Kubernetes Cluster::Namespace: backend::Pod: api-server" x="632" y="68" width="207" height="528" rx="6" ry="6" fill="none" stroke="#1e293b" stroke-width="1.5" stroke-dasharray="4 3"/><text x="638" y="81" font-family="monospace" font-size="10" font-weight="600" fill="#1e293b">Pod: api-server</text><rect class="uml-group-frame" data-uml-group="Kubernetes Cluster::Namespace: backend::Pod: worker" x="403" y="68" width="137" height="84" rx="6" ry="6" fill="none" stroke="#1e293b" stroke-width="1.5" stroke-dasharray="4 3"/><text x="409" y="81" font-family="monospace" font-size="10" font-weight="600" fill="#1e293b">Pod: worker</text><rect class="uml-group-frame" data-uml-group="Kubernetes Cluster::Namespace: data::Pod: redis" x="577" y="660" width="130" height="84" rx="6" ry="6" fill="none" stroke="#1e293b" stroke-width="1.5" stroke-dasharray="4 3"/><text x="583" y="673" font-family="monospace" font-size="10" font-weight="600" fill="#1e293b">Pod: redis</text><rect class="uml-group-frame" data-uml-group="Kubernetes Cluster::Namespace: data::StatefulSet: postgres" x="95" y="660" width="438" height="84" rx="6" ry="6" fill="none" stroke="#1e293b" stroke-width="1.5" stroke-dasharray="4 3"/><text x="101" y="673" font-family="monospace" font-size="10" font-weight="600" fill="#1e293b">StatefulSet: postgres</text><rect class="uml-group-frame" data-uml-group="Kubernetes Cluster::Namespace: frontend::Pod: nginx-proxy" x="88" y="68" width="291" height="380" rx="6" ry="6" fill="none" stroke="#1e293b" stroke-width="1.5" stroke-dasharray="4 3"/><text x="94" y="81" font-family="monospace" font-size="10" font-weight="600" fill="#1e293b">Pod: nginx-proxy</text><rect class="uml-group-frame" data-uml-group="Kubernetes Cluster::Namespace: frontend::Pod: react-app" x="326" y="512" width="130" height="84" rx="6" ry="6" fill="none" stroke="#1e293b" stroke-width="1.5" stroke-dasharray="4 3"/><text x="332" y="525" font-family="monospace" font-size="10" font-weight="600" fill="#1e293b">Pod: react-app</text><desc data-uml-id="Kubernetes Cluster::Namespace: frontend::Pod: nginx-proxy::NGX">Kubernetes Cluster::Namespace: frontend::Pod: nginx-proxy::NGX</desc><polygon points="259,394 271,382 381,382 369,394" fill="#d4dff7" stroke="#1e293b" stroke-width="1"/><polygon points="369,394 381,382 381,426 369,438" fill="#b8c8ef" stroke="#1e293b" stroke-width="1"/><rect class="uml-node uml-deployment-shape" data-uml-kind="node" x="259" y="394" width="110" height="44" fill="#f0f4f8" stroke="#1e293b" stroke-width="1.5"/><text x="314" y="422" text-anchor="middle" font-family="monospace" font-size="13" font-weight="600" fill="#0f172a">nginx</text><text x="314" y="408" text-anchor="middle" font-family="monospace" font-size="10" fill="#64748b">&lt;&lt;container&gt;&gt;</text><desc data-uml-id="Kubernetes Cluster::Namespace: frontend::Pod: nginx-proxy::SL">Kubernetes Cluster::Namespace: frontend::Pod: nginx-proxy::SL</desc><polygon points="98,98 110,86 227,86 215,98" fill="#d4dff7" stroke="#1e293b" stroke-width="1"/><polygon points="215,98 227,86 227,130 215,142" fill="#b8c8ef" stroke="#1e293b" stroke-width="1"/><rect class="uml-node uml-deployment-shape" data-uml-kind="node" x="98" y="98" width="117" height="44" fill="#f0f4f8" stroke="#1e293b" stroke-width="1.5"/><text x="156" y="126" text-anchor="middle" font-family="monospace" font-size="13" font-weight="600" fill="#0f172a">sidecar-logger</text><text x="156" y="112" text-anchor="middle" font-family="monospace" font-size="10" fill="#64748b">&lt;&lt;container&gt;&gt;</text><desc data-uml-id="Kubernetes Cluster::Namespace: frontend::Pod: react-app::RB">Kubernetes Cluster::Namespace: frontend::Pod: react-app::RB</desc><polygon points="336,542 348,530 458,530 446,542" fill="#d4dff7" stroke="#1e293b" stroke-width="1"/><polygon points="446,542 458,530 458,574 446,586" fill="#b8c8ef" stroke="#1e293b" stroke-width="1"/><rect class="uml-node uml-deployment-shape" data-uml-kind="node" x="336" y="542" width="110" height="44" fill="#f0f4f8" stroke="#1e293b" stroke-width="1.5"/><text x="391" y="570" text-anchor="middle" font-family="monospace" font-size="13" font-weight="600" fill="#0f172a">react-build</text><text x="391" y="556" text-anchor="middle" font-family="monospace" font-size="10" fill="#64748b">&lt;&lt;container&gt;&gt;</text><desc data-uml-id="Kubernetes Cluster::Namespace: backend::Pod: api-server::API">Kubernetes Cluster::Namespace: backend::Pod: api-server::API</desc><polygon points="642,542 654,530 764,530 752,542" fill="#d4dff7" stroke="#1e293b" stroke-width="1"/><polygon points="752,542 764,530 764,574 752,586" fill="#b8c8ef" stroke="#1e293b" stroke-width="1"/><rect class="uml-node uml-deployment-shape" data-uml-kind="node" x="642" y="542" width="110" height="44" fill="#f0f4f8" stroke="#1e293b" stroke-width="1.5"/><text x="697" y="570" text-anchor="middle" font-family="monospace" font-size="13" font-weight="600" fill="#0f172a">api-service</text><text x="697" y="556" text-anchor="middle" font-family="monospace" font-size="10" fill="#64748b">&lt;&lt;container&gt;&gt;</text><desc data-uml-id="Kubernetes Cluster::Namespace: backend::Pod: api-server::ENV">Kubernetes Cluster::Namespace: backend::Pod: api-server::ENV</desc><polygon points="719,98 731,86 841,86 829,98" fill="#d4dff7" stroke="#1e293b" stroke-width="1"/><polygon points="829,98 841,86 841,130 829,142" fill="#b8c8ef" stroke="#1e293b" stroke-width="1"/><rect class="uml-node uml-deployment-shape" data-uml-kind="node" x="719" y="98" width="110" height="44" fill="#f0f4f8" stroke="#1e293b" stroke-width="1.5"/><text x="774" y="126" text-anchor="middle" font-family="monospace" font-size="13" font-weight="600" fill="#0f172a">envoy-proxy</text><text x="774" y="112" text-anchor="middle" font-family="monospace" font-size="10" fill="#64748b">&lt;&lt;container&gt;&gt;</text><desc data-uml-id="Kubernetes Cluster::Namespace: backend::Pod: worker::QC">Kubernetes Cluster::Namespace: backend::Pod: worker::QC</desc><polygon points="413,98 425,86 542,86 530,98" fill="#d4dff7" stroke="#1e293b" stroke-width="1"/><polygon points="530,98 542,86 542,130 530,142" fill="#b8c8ef" stroke="#1e293b" stroke-width="1"/><rect class="uml-node uml-deployment-shape" data-uml-kind="node" x="413" y="98" width="117" height="44" fill="#f0f4f8" stroke="#1e293b" stroke-width="1.5"/><text x="471" y="126" text-anchor="middle" font-family="monospace" font-size="13" font-weight="600" fill="#0f172a">queue-consumer</text><text x="471" y="112" text-anchor="middle" font-family="monospace" font-size="10" fill="#64748b">&lt;&lt;container&gt;&gt;</text><desc data-uml-id="Kubernetes Cluster::Namespace: data::StatefulSet: postgres::PG0">Kubernetes Cluster::Namespace: data::StatefulSet: postgres::PG0</desc><polygon points="105,690 117,678 227,678 215,690" fill="#d4dff7" stroke="#1e293b" stroke-width="1"/><polygon points="215,690 227,678 227,722 215,734" fill="#b8c8ef" stroke="#1e293b" stroke-width="1"/><rect class="uml-node uml-deployment-shape" data-uml-kind="node" x="105" y="690" width="110" height="44" fill="#f0f4f8" stroke="#1e293b" stroke-width="1.5"/><text x="160" y="718" text-anchor="middle" font-family="monospace" font-size="13" font-weight="600" fill="#0f172a">postgres-0</text><text x="160" y="704" text-anchor="middle" font-family="monospace" font-size="10" fill="#64748b">&lt;&lt;container&gt;&gt;</text><desc data-uml-id="Kubernetes Cluster::Namespace: data::StatefulSet: postgres::PG1">Kubernetes Cluster::Namespace: data::StatefulSet: postgres::PG1</desc><polygon points="413,690 425,678 535,678 523,690" fill="#d4dff7" stroke="#1e293b" stroke-width="1"/><polygon points="523,690 535,678 535,722 523,734" fill="#b8c8ef" stroke="#1e293b" stroke-width="1"/><rect class="uml-node uml-deployment-shape" data-uml-kind="node" x="413" y="690" width="110" height="44" fill="#f0f4f8" stroke="#1e293b" stroke-width="1.5"/><text x="468" y="718" text-anchor="middle" font-family="monospace" font-size="13" font-weight="600" fill="#0f172a">postgres-1</text><text x="468" y="704" text-anchor="middle" font-family="monospace" font-size="10" fill="#64748b">&lt;&lt;container&gt;&gt;</text><desc data-uml-id="Kubernetes Cluster::Namespace: data::Pod: redis::RS">Kubernetes Cluster::Namespace: data::Pod: redis::RS</desc><polygon points="587,690 599,678 709,678 697,690" fill="#d4dff7" stroke="#1e293b" stroke-width="1"/><polygon points="697,690 709,678 709,722 697,734" fill="#b8c8ef" stroke="#1e293b" stroke-width="1"/><rect class="uml-node uml-deployment-shape" data-uml-kind="node" x="587" y="690" width="110" height="44" fill="#f0f4f8" stroke="#1e293b" stroke-width="1.5"/><text x="642" y="718" text-anchor="middle" font-family="monospace" font-size="13" font-weight="600" fill="#0f172a">redis-server</text><text x="642" y="704" text-anchor="middle" font-family="monospace" font-size="10" fill="#64748b">&lt;&lt;container&gt;&gt;</text><desc data-uml-id="Kubernetes Cluster::IC">Kubernetes Cluster::IC</desc><polygon points="433,246 445,234 590,234 578,246" fill="#d4dff7" stroke="#1e293b" stroke-width="1"/><polygon points="578,246 590,234 590,278 578,290" fill="#b8c8ef" stroke="#1e293b" stroke-width="1"/><rect class="uml-node uml-deployment-shape" data-uml-kind="node" x="433" y="246" width="145" height="44" fill="#f0f4f8" stroke="#1e293b" stroke-width="1.5"/><text x="505" y="274" text-anchor="middle" font-family="monospace" font-size="13" font-weight="600" fill="#0f172a">Ingress Controller</text><polyline class="uml-relation" data-uml-from="IC" data-uml-to="NGX" data-uml-arrow="--&gt;" points="505,290 505,378 314,378 314,394" fill="none" stroke="#1e293b" stroke-width="2" marker-end="url(#arrow-open)" /><polyline class="uml-relation" data-uml-from="NGX" data-uml-to="API" data-uml-arrow="--&gt;" points="314,438 314,538 697,538 697,542" fill="none" stroke="#1e293b" stroke-width="2" marker-end="url(#arrow-open)" /><polyline class="uml-relation" data-uml-from="NGX" data-uml-to="RB" data-uml-arrow="--&gt;" points="314,438 314,538 391,538 391,542" fill="none" stroke="#1e293b" stroke-width="2" marker-end="url(#arrow-open)" /><polyline class="uml-relation" data-uml-from="API" data-uml-to="PG0" data-uml-arrow="--&gt;" points="697,586 697,686 160,686 160,690" fill="none" stroke="#1e293b" stroke-width="2" marker-end="url(#arrow-open)" /><polyline class="uml-relation" data-uml-from="API" data-uml-to="RS" data-uml-arrow="--&gt;" points="697,586 697,686 642,686 642,690" fill="none" stroke="#1e293b" stroke-width="2" marker-end="url(#arrow-open)" /><polyline class="uml-relation" data-uml-from="QC" data-uml-to="PG0" data-uml-arrow="--&gt;" points="471,142 471,194 30,194 30,686 160,686 160,690" fill="none" stroke="#1e293b" stroke-width="2" marker-end="url(#arrow-open)" /><polyline class="uml-relation" data-uml-from="SL" data-uml-to="IC" data-uml-arrow="--&gt;" points="156,142 156,162 505,162 505,246" fill="none" stroke="#1e293b" stroke-width="2" marker-end="url(#arrow-open)" /><polyline class="uml-relation" data-uml-from="ENV" data-uml-to="API" data-uml-arrow="--&gt;" points="774,142 774,226 697,226 697,542" fill="none" stroke="#1e293b" stroke-width="2" marker-end="url(#arrow-open)" /><text class="uml-edge-label" data-uml-label-role="edge" x="655" y="514" text-anchor="middle" font-family="monospace" font-size="11" fill="#1e293b">HTTP</text><text class="uml-edge-label" data-uml-label-role="edge" x="428" y="674" text-anchor="middle" font-family="monospace" font-size="11" fill="#1e293b">psql</text><rect class="uml-edge-label-bg" data-uml-label-role="edge-background" x="690" y="623" width="38" height="18" fill="white" opacity="0.85"/><rect class="uml-edge-label-bg" data-uml-label-role="edge-background" x="690" y="623" width="38" height="18" fill="white" opacity="0.85"/><text class="uml-edge-label" data-uml-label-role="edge" x="709" y="636" text-anchor="middle" font-family="monospace" font-size="11" fill="#1e293b">redis</text><text class="uml-edge-label" data-uml-label-role="edge" x="330" y="150" text-anchor="middle" font-family="monospace" font-size="11" fill="#1e293b">log forward</text><text class="uml-edge-label" data-uml-label-role="edge" x="740" y="514" text-anchor="middle" font-family="monospace" font-size="11" fill="#1e293b">mTLS</text><text x="14" y="-2" font-family="monospace" font-size="11" font-weight="600" fill="#ffffff">Kubernetes Cluster</text></svg>