<svg xmlns="http://www.w3.org/2000/svg" width="2420" height="1520" viewBox="0 0 2420 1520"><rect width="100%" height="100%" fill="#f0f4f8"/><defs><marker id="arrow-open" viewBox="0 0 10 10" refX="9" refY="5" markerWidth="10" markerHeight="10" markerUnits="userSpaceOnUse" orient="auto-start-reverse"><path d="M0,0 L10,5 L0,10" fill="none" stroke="#1e293b" stroke-width="1.5"/></marker><marker id="arrow-triangle" viewBox="0 0 12 12" refX="11" refY="6" markerWidth="12" markerHeight="12" markerUnits="userSpaceOnUse" orient="auto-start-reverse"><polygon points="0,0 12,6 0,12" fill="#ffffff" stroke="#1e293b" stroke-width="1.5" fill-rule="nonzero"/></marker><marker id="arrow-diamond-filled" viewBox="0 0 14 10" refX="13" refY="5" markerWidth="14" markerHeight="10" markerUnits="userSpaceOnUse" orient="auto-start-reverse"><path d="M0,5 L7,0 L14,5 L7,10 z" fill="#1e293b" stroke="#1e293b" stroke-width="1"/></marker><marker id="arrow-diamond-open" viewBox="0 0 14 10" refX="13" refY="5" markerWidth="14" markerHeight="10" markerUnits="userSpaceOnUse" orient="auto-start-reverse"><path d="M0,5 L7,0 L14,5 L7,10 z" fill="#ffffff" stroke="#1e293b" stroke-width="1"/></marker><marker id="arrow-double-open" viewBox="0 0 16 12" refX="15" refY="6" markerWidth="16" markerHeight="12" markerUnits="userSpaceOnUse" orient="auto-start-reverse"><path d="M0,1 L8,6 L0,11 M7,1 L15,6 L7,11" fill="none" stroke="#1e293b" stroke-width="1.5" stroke-linejoin="round"/></marker><marker id="arrow-circle-open" viewBox="0 0 12 12" refX="11" refY="6" markerWidth="12" markerHeight="12" markerUnits="userSpaceOnUse" orient="auto-start-reverse"><circle cx="6" cy="6" r="4" fill="#ffffff" stroke="#1e293b" stroke-width="1.5"/></marker><marker id="arrow-circle-filled" viewBox="0 0 12 12" refX="11" refY="6" markerWidth="12" markerHeight="12" markerUnits="userSpaceOnUse" orient="auto-start-reverse"><circle cx="6" cy="6" r="4" fill="#1e293b" stroke="#1e293b" stroke-width="1.5"/></marker><marker id="arrow-triangle-filled" viewBox="0 0 12 12" refX="11" refY="6" markerWidth="12" markerHeight="12" markerUnits="userSpaceOnUse" orient="auto-start-reverse"><polygon points="0,0 12,6 0,12" fill="#1e293b" stroke="#1e293b" stroke-width="1.5"/></marker><marker id="arrow-box-filled" viewBox="0 0 12 12" refX="11" refY="6" markerWidth="12" markerHeight="12" markerUnits="userSpaceOnUse" orient="auto-start-reverse"><rect x="2" y="2" width="8" height="8" fill="#1e293b" stroke="#1e293b" stroke-width="1.5"/></marker><marker id="arrow-plus" viewBox="0 0 12 12" refX="11" refY="6" markerWidth="12" markerHeight="12" markerUnits="userSpaceOnUse" orient="auto-start-reverse"><path d="M6,1 L6,11 M1,6 L11,6" fill="none" stroke="#1e293b" stroke-width="1.8" stroke-linecap="round"/></marker><marker id="arrow-slash" viewBox="0 0 12 12" refX="10" refY="6" markerWidth="12" markerHeight="12" markerUnits="userSpaceOnUse" orient="auto-start-reverse"><path d="M3,2 L9,10" fill="none" stroke="#1e293b" stroke-width="1.8" stroke-linecap="round"/></marker><marker id="arrow-cross" viewBox="0 0 12 12" refX="11" refY="6" markerWidth="12" markerHeight="12" markerUnits="userSpaceOnUse" orient="auto-start-reverse"><path d="M2,2 L10,10 M10,2 L2,10" fill="none" stroke="#1e293b" stroke-width="1.8" stroke-linecap="round"/></marker><marker id="arrow-bracket-open" viewBox="0 0 12 14" refX="11" refY="7" markerWidth="12" markerHeight="14" markerUnits="userSpaceOnUse" orient="auto-start-reverse"><path d="M10,1 L4,1 L4,13 L10,13" fill="none" stroke="#1e293b" stroke-width="1.8" stroke-linecap="round" stroke-linejoin="round"/></marker></defs><marker id="arrow-ie-one" viewBox="0 0 24 16" refX="22" refY="8" markerWidth="24" markerHeight="16" markerUnits="userSpaceOnUse" orient="auto-start-reverse"><path d="M16,2 L16,14" fill="none" stroke="#1e293b" stroke-width="1.8" stroke-linecap="round"/></marker><marker id="arrow-ie-zero-one" viewBox="0 0 30 16" refX="28" refY="8" markerWidth="30" markerHeight="16" markerUnits="userSpaceOnUse" orient="auto-start-reverse"><circle cx="10" cy="8" r="4" fill="#ffffff" stroke="#1e293b" stroke-width="1.5"/><path d="M20,2 L20,14" fill="none" stroke="#1e293b" stroke-width="1.8" stroke-linecap="round"/></marker><marker id="arrow-ie-zero-many" viewBox="0 0 34 18" refX="32" refY="9" markerWidth="34" markerHeight="18" markerUnits="userSpaceOnUse" orient="auto-start-reverse"><circle cx="8" cy="9" r="4" fill="#ffffff" stroke="#1e293b" stroke-width="1.5"/><path d="M18,9 L31,2 M18,9 L31,9 M18,9 L31,16" fill="none" stroke="#1e293b" stroke-width="1.7" stroke-linecap="round"/></marker><marker id="arrow-ie-one-many" viewBox="0 0 34 18" refX="32" refY="9" markerWidth="34" markerHeight="18" markerUnits="userSpaceOnUse" orient="auto-start-reverse"><path d="M8,2 L8,16 M18,9 L31,2 M18,9 L31,9 M18,9 L31,16" fill="none" stroke="#1e293b" stroke-width="1.7" stroke-linecap="round"/></marker><text x="40" y="40" font-family="monospace" font-size="18" font-weight="600">Chapter 8 Deployment Keyword Parity</text><rect class="uml-group-frame" data-uml-group="K8s Cluster" x="346" y="78" width="1214" height="1092" rx="8" ry="8" fill="#f8faff" stroke="#1e293b" stroke-width="1.5"/><rect x="346" y="78" width="1214" height="40" rx="8" ry="8" fill="#1e293b" stroke="none"/><rect x="346" y="110" width="1214" height="8" fill="#1e293b" stroke="none"/><text x="354" y="110" font-family="monospace" font-size="11" font-weight="600" fill="#ffffff">K8s Cluster</text><line x1="346" y1="118" x2="1560" y2="118" stroke="#1e293b" stroke-width="1"/><desc data-uml-id="K8s Cluster::q">K8s Cluster::q</desc><rect class="uml-node uml-deployment-shape" data-uml-kind="queue" x="382" y="142" width="116" height="44" fill="#f0f8ff" stroke="none"/><path class="uml-node uml-deployment-shape" data-uml-kind="queue" d="M382 142 A12 22 0 0 0 382 186" fill="none" stroke="#0000ff" stroke-width="1.5"/><ellipse cx="498" cy="164" rx="12" ry="22" fill="#f0f8ff" stroke="#0000ff" stroke-width="1.5"/><line x1="382" y1="142" x2="498" y2="142" stroke="#0000ff" stroke-width="1.5"/><line x1="382" y1="186" x2="498" y2="186" stroke="#0000ff" stroke-width="1.5"/><text x="440" y="170" text-anchor="middle" font-family="monospace" font-size="13" font-weight="600" fill="#000080">Ingress Queue</text><text x="440" y="156" text-anchor="middle" font-family="monospace" font-size="10" fill="#64748b">&lt;&lt;durable&gt;&gt;</text><desc data-uml-id="K8s Cluster::Jobs">K8s Cluster::Jobs</desc><rect class="uml-node uml-deployment-shape" data-uml-kind="stack" x="1178" y="536" width="130" height="34" rx="4" ry="4" fill="#f0f4f8" stroke="#1e293b" stroke-width="1.5"/><rect class="uml-node uml-deployment-shape" data-uml-kind="stack" x="1173" y="531" width="130" height="34" rx="4" ry="4" fill="#f0f4f8" stroke="#1e293b" stroke-width="1.5"/><rect class="uml-node uml-deployment-shape" data-uml-kind="stack" x="1168" y="526" width="130" height="34" rx="4" ry="4" fill="#f0f4f8" stroke="#1e293b" stroke-width="1.5"/><text x="1238" y="554" text-anchor="middle" font-family="monospace" font-size="13" font-weight="600" fill="#0f172a">Jobs</text><desc data-uml-id="K8s Cluster::Router">K8s Cluster::Router</desc><polygon class="uml-node uml-deployment-shape" data-uml-kind="hexagon" points="1300,718 1404,718 1422,740 1404,762 1300,762 1282,740" fill="#f0f4f8" stroke="#1e293b" stroke-width="1.5"/><text x="1352" y="746" text-anchor="middle" font-family="monospace" font-size="13" font-weight="600" fill="#0f172a">Router</text><desc data-uml-id="K8s Cluster::Worker">K8s Cluster::Worker</desc><rect class="uml-node uml-deployment-shape" data-uml-kind="process" x="1282" y="910" width="140" height="44" rx="6" ry="6" fill="#f0f4f8" stroke="#1e293b" stroke-width="1.5"/><text x="1352" y="938" text-anchor="middle" font-family="monospace" font-size="13" font-weight="600" fill="#0f172a">Worker</text><desc data-uml-id="K8s Cluster::app">K8s Cluster::app</desc><path class="uml-node uml-deployment-shape" data-uml-kind="artifact" d="M1396,1102 H1518 L1536 1120 V1146 H1396 Z" fill="#f0f4f8" stroke="#1e293b" stroke-width="1.5"/><text x="1466" y="1114" text-anchor="middle" font-family="monospace" font-size="13" font-weight="600" fill="#0f172a"><tspan x="1466" y="1114">boot.jar</tspan><tspan x="1466" y="1130">----</tspan><tspan x="1466" y="1146">signed</tspan></text><desc data-uml-id="StandaloneNode">StandaloneNode</desc><polygon points="1168,334 1180,322 1320,322 1308,334" fill="#d4dff7" stroke="#1e293b" stroke-width="1"/><polygon points="1308,334 1320,322 1320,366 1308,378" fill="#b8c8ef" stroke="#1e293b" stroke-width="1"/><rect class="uml-node uml-deployment-shape" data-uml-kind="node" x="1168" y="334" width="140" height="44" fill="#f0f4f8" stroke="#1e293b" stroke-width="1.5"/><text x="1238" y="362" text-anchor="middle" font-family="monospace" font-size="13" font-weight="600" fill="#0f172a">StandaloneNode</text><desc data-uml-id="Edge">Edge</desc><path class="uml-node uml-deployment-shape" data-uml-kind="cloud" d="M1420 582 C1400 580, 1400 554, 1426 554 C1432 534, 1472 534, 1484 552 L1514 552 C1534 554, 1532 582, 1508 582 Z" fill="#f0f4f8" stroke="#1e293b" stroke-width="1.5"/><text x="1466" y="554" text-anchor="middle" font-family="monospace" font-size="13" font-weight="600" fill="#0f172a">Edge</text><desc data-uml-id="Store">Store</desc><path class="uml-node uml-deployment-shape" data-uml-kind="database" d="M1168,1112 C1168,1102 1308,1102 1308,1112 L1308,1136 C1308,1146 1168,1146 1168,1136 Z" fill="#f0f4f8" stroke="#1e293b" stroke-width="1.5"/><ellipse cx="1238" cy="1112" rx="70" ry="10" fill="#f0f4f8" stroke="#1e293b" stroke-width="1.5"/><text x="1238" y="1130" text-anchor="middle" font-family="monospace" font-size="13" font-weight="600" fill="#0f172a">Store</text><desc data-uml-id="AgentA">AgentA</desc><rect class="uml-node uml-deployment-shape" data-uml-kind="agent" x="598" y="142" width="140" height="44" rx="6" ry="6" fill="#f0f4f8" stroke="#1e293b" stroke-width="1.5"/><text x="668" y="170" text-anchor="middle" font-family="monospace" font-size="13" font-weight="600" fill="#0f172a">AgentA</text><desc data-uml-id="ApiBoundary">ApiBoundary</desc><ellipse class="uml-node uml-deployment-shape" data-uml-kind="boundary" cx="1010" cy="544" rx="58" ry="10" fill="#f0f4f8" stroke="#1e293b" stroke-width="1.5"/><line x1="952" y1="556" x2="1068" y2="556" stroke="#1e293b" stroke-width="1.5"/><text x="1010" y="570" text-anchor="middle" font-family="monospace" font-size="13" font-weight="600" fill="#0f172a">ApiBoundary</text><desc data-uml-id="Controller">Controller</desc><ellipse class="uml-node uml-deployment-shape" data-uml-kind="control" cx="1124" cy="736" rx="58" ry="10" fill="#f0f4f8" stroke="#1e293b" stroke-width="1.5"/><path d="M1130 726 L1148 718 L1142 736" fill="none" stroke="#1e293b" stroke-width="1.5"/><text x="1124" y="762" text-anchor="middle" font-family="monospace" font-size="13" font-weight="600" fill="#0f172a">Controller</text><desc data-uml-id="Catalog">Catalog</desc><ellipse class="uml-node uml-deployment-shape" data-uml-kind="entity" cx="1124" cy="928" rx="58" ry="10" fill="#f0f4f8" stroke="#1e293b" stroke-width="1.5"/><line x1="1076" y1="936" x2="1172" y2="936" stroke="#1e293b" stroke-width="1.5"/><text x="1124" y="954" text-anchor="middle" font-family="monospace" font-size="13" font-weight="600" fill="#0f172a">Catalog</text><desc data-uml-id="Bag">Bag</desc><rect class="uml-node uml-deployment-shape" data-uml-kind="collections" x="836" y="152" width="130" height="34" rx="4" ry="4" fill="#f0f4f8" stroke="#1e293b" stroke-width="1.5"/><rect class="uml-node uml-deployment-shape" data-uml-kind="collections" x="831" y="147" width="130" height="34" rx="4" ry="4" fill="#f0f4f8" stroke="#1e293b" stroke-width="1.5"/><rect class="uml-node uml-deployment-shape" data-uml-kind="collections" x="826" y="142" width="130" height="34" rx="4" ry="4" fill="#f0f4f8" stroke="#1e293b" stroke-width="1.5"/><text x="896" y="170" text-anchor="middle" font-family="monospace" font-size="13" font-weight="600" fill="#0f172a">Bag</text><desc data-uml-id="Signal">Signal</desc><ellipse class="uml-node uml-deployment-shape" data-uml-kind="circle" cx="2264" cy="164" rx="70" ry="22" fill="#f0f4f8" stroke="#1e293b" stroke-width="1.5"/><text x="2264" y="170" text-anchor="middle" font-family="monospace" font-size="13" font-weight="600" fill="#0f172a">Signal</text><desc data-uml-id="Operator">Operator</desc><rect class="uml-node uml-deployment-shape" data-uml-kind="person" x="1738" y="142" width="140" height="44" rx="6" ry="6" fill="#f0f4f8" stroke="#1e293b" stroke-width="1.5" fill-opacity="0.16"/><circle cx="1808" cy="158" r="9" fill="#f0f4f8" stroke="#1e293b" stroke-width="1.5"/><line x1="1808" y1="167" x2="1808" y2="162" stroke="#1e293b" stroke-width="1.8"/><line x1="1792" y1="178" x2="1824" y2="178" stroke="#1e293b" stroke-width="1.8"/><line x1="1808" y1="162" x2="1796" y2="178" stroke="#1e293b" stroke-width="1.8"/><line x1="1808" y1="162" x2="1820" y2="178" stroke="#1e293b" stroke-width="1.8"/><text x="1808" y="199" text-anchor="middle" font-family="monospace" font-size="13" font-weight="600" fill="#0f172a">Operator</text><desc data-uml-id="AltUser">AltUser</desc><rect class="uml-node uml-deployment-shape" data-uml-kind="actor" x="142" y="142" width="140" height="44" rx="6" ry="6" fill="#f0f4f8" stroke="#1e293b" stroke-width="1.5" fill-opacity="0.16"/><circle cx="212" cy="158" r="9" fill="#f0f4f8" stroke="#1e293b" stroke-width="1.5"/><line x1="212" y1="167" x2="212" y2="162" stroke="#1e293b" stroke-width="1.8"/><line x1="196" y1="178" x2="228" y2="178" stroke="#1e293b" stroke-width="1.8"/><line x1="212" y1="162" x2="200" y2="178" stroke="#1e293b" stroke-width="1.8"/><line x1="212" y1="162" x2="224" y2="178" stroke="#1e293b" stroke-width="1.8"/><text x="212" y="199" text-anchor="middle" font-family="monospace" font-size="13" font-weight="600" fill="#0f172a">AltUser</text><text x="212" y="185" text-anchor="middle" font-family="monospace" font-size="10" fill="#64748b">&lt;&lt;actor/&gt;&gt;</text><desc data-uml-id="Colon Actor">Colon Actor</desc><rect class="uml-node uml-deployment-shape" data-uml-kind="actor" x="1054" y="142" width="140" height="44" rx="6" ry="6" fill="#f0f4f8" stroke="#1e293b" stroke-width="1.5" fill-opacity="0.16"/><circle cx="1124" cy="158" r="9" fill="#f0f4f8" stroke="#1e293b" stroke-width="1.5"/><line x1="1124" y1="167" x2="1124" y2="162" stroke="#1e293b" stroke-width="1.8"/><line x1="1108" y1="178" x2="1140" y2="178" stroke="#1e293b" stroke-width="1.8"/><line x1="1124" y1="162" x2="1112" y2="178" stroke="#1e293b" stroke-width="1.8"/><line x1="1124" y1="162" x2="1136" y2="178" stroke="#1e293b" stroke-width="1.8"/><text x="1124" y="199" text-anchor="middle" font-family="monospace" font-size="13" font-weight="600" fill="#0f172a">Colon Actor</text><desc data-uml-id="LegacyUC">LegacyUC</desc><ellipse class="uml-node uml-deployment-shape" data-uml-kind="usecase" cx="1352" cy="164" rx="70" ry="22" fill="#f0f4f8" stroke="#1e293b" stroke-width="1.5"/><text x="1352" y="170" text-anchor="middle" font-family="monospace" font-size="13" font-weight="600" fill="#0f172a">LegacyUC</text><text x="1352" y="156" text-anchor="middle" font-family="monospace" font-size="10" fill="#64748b">&lt;&lt;usecase/&gt;&gt;</text><desc data-uml-id="SearchUC">SearchUC</desc><ellipse class="uml-node uml-deployment-shape" data-uml-kind="usecase" cx="2036" cy="164" rx="70" ry="22" fill="#f0f4f8" stroke="#1e293b" stroke-width="1.5"/><text x="2036" y="170" text-anchor="middle" font-family="monospace" font-size="13" font-weight="600" fill="#0f172a">Search</text><desc data-uml-id="Runtime">Runtime</desc><rect class="uml-node uml-deployment-shape" data-uml-kind="container" x="940" y="1102" width="140" height="44" rx="6" ry="6" fill="#f0f4f8" stroke="#1e293b" stroke-width="1.5"/><text x="1010" y="1130" text-anchor="middle" font-family="monospace" font-size="13" font-weight="600" fill="#0f172a">Runtime</text><desc data-uml-id="Marker">Marker</desc><rect class="uml-node uml-deployment-shape" data-uml-kind="label" x="1510" y="142" width="140" height="44" rx="6" ry="6" fill="#f0f4f8" stroke="#1e293b" stroke-width="1.5"/><text x="1580" y="170" text-anchor="middle" font-family="monospace" font-size="13" font-weight="600" fill="#0f172a">Marker</text><desc data-uml-id="Deploy">Deploy</desc><rect class="uml-node uml-deployment-shape" data-uml-kind="action" x="1168" y="1294" width="140" height="44" rx="6" ry="6" fill="#f0f4f8" stroke="#1e293b" stroke-width="1.5"/><text x="1238" y="1322" text-anchor="middle" font-family="monospace" font-size="13" font-weight="600" fill="#0f172a">Deploy</text><polyline class="uml-relation" data-uml-from="K8s Cluster::q" data-uml-to="K8s Cluster::Jobs" data-uml-arrow="--&gt;" points="440,186 440,242 1324,242 1324,434 1238,434 1238,526" fill="none" stroke="#1e293b" stroke-width="2" marker-end="url(#arrow-open)" /><polyline class="uml-relation" data-uml-from="K8s Cluster::Jobs" data-uml-to="K8s Cluster::Router" data-uml-arrow="--&gt;" points="1238,570 1238,684 1352,684 1352,718" fill="none" stroke="#1e293b" stroke-width="2" marker-end="url(#arrow-open)" /><polyline class="uml-relation" data-uml-from="K8s Cluster::Router" data-uml-to="K8s Cluster::Worker" data-uml-arrow="--&gt;" points="1352,762 1352,836 1352,910" fill="none" stroke="#1e293b" stroke-width="2" marker-end="url(#arrow-open)" /><polyline class="uml-relation" data-uml-from="K8s Cluster::Worker" data-uml-to="K8s Cluster::app" data-uml-arrow="--&gt;" points="1352,954 1352,1091 1466,1091 1466,1102" fill="none" stroke="#1e293b" stroke-width="2" marker-end="url(#arrow-open)" /><polyline class="uml-relation" data-uml-from="AgentA" data-uml-to="Edge" data-uml-arrow="0)--(0" points="668,186 668,277 1466,277 1466,526" fill="none" stroke="#1e293b" stroke-width="2" marker-end="url(#arrow-circle-open)" marker-start="url(#arrow-circle-open)" /><defs><marker id="uml-rel-5-arrow-open" viewBox="0 0 10 10" refX="9" refY="5" markerWidth="10" markerHeight="10" markerUnits="userSpaceOnUse" orient="auto-start-reverse"><path d="M0,0 L10,5 L0,10" fill="none" stroke="#2563eb" stroke-width="1.5"/></marker><marker id="uml-rel-5-arrow-triangle" viewBox="0 0 12 12" refX="11" refY="6" markerWidth="12" markerHeight="12" markerUnits="userSpaceOnUse" orient="auto-start-reverse"><polygon points="0,0 12,6 0,12" fill="#ffffff" stroke="#2563eb" stroke-width="1.5" fill-rule="nonzero"/></marker><marker id="uml-rel-5-arrow-diamond-filled" viewBox="0 0 14 10" refX="13" refY="5" markerWidth="14" markerHeight="10" markerUnits="userSpaceOnUse" orient="auto-start-reverse"><path d="M0,5 L7,0 L14,5 L7,10 z" fill="#2563eb" stroke="#2563eb" stroke-width="1"/></marker><marker id="uml-rel-5-arrow-diamond-open" viewBox="0 0 14 10" refX="13" refY="5" markerWidth="14" markerHeight="10" markerUnits="userSpaceOnUse" orient="auto-start-reverse"><path d="M0,5 L7,0 L14,5 L7,10 z" fill="#ffffff" stroke="#2563eb" stroke-width="1"/></marker><marker id="uml-rel-5-arrow-double-open" viewBox="0 0 16 12" refX="15" refY="6" markerWidth="16" markerHeight="12" markerUnits="userSpaceOnUse" orient="auto-start-reverse"><path d="M0,1 L8,6 L0,11 M7,1 L15,6 L7,11" fill="none" stroke="#2563eb" stroke-width="1.5" stroke-linejoin="round"/></marker><marker id="uml-rel-5-arrow-circle-open" viewBox="0 0 12 12" refX="11" refY="6" markerWidth="12" markerHeight="12" markerUnits="userSpaceOnUse" orient="auto-start-reverse"><circle cx="6" cy="6" r="4" fill="#ffffff" stroke="#2563eb" stroke-width="1.5"/></marker><marker id="uml-rel-5-arrow-circle-filled" viewBox="0 0 12 12" refX="11" refY="6" markerWidth="12" markerHeight="12" markerUnits="userSpaceOnUse" orient="auto-start-reverse"><circle cx="6" cy="6" r="4" fill="#2563eb" stroke="#2563eb" stroke-width="1.5"/></marker><marker id="uml-rel-5-arrow-triangle-filled" viewBox="0 0 12 12" refX="11" refY="6" markerWidth="12" markerHeight="12" markerUnits="userSpaceOnUse" orient="auto-start-reverse"><polygon points="0,0 12,6 0,12" fill="#2563eb" stroke="#2563eb" stroke-width="1.5"/></marker><marker id="uml-rel-5-arrow-box-filled" viewBox="0 0 12 12" refX="11" refY="6" markerWidth="12" markerHeight="12" markerUnits="userSpaceOnUse" orient="auto-start-reverse"><rect x="2" y="2" width="8" height="8" fill="#2563eb" stroke="#2563eb" stroke-width="1.5"/></marker><marker id="uml-rel-5-arrow-plus" viewBox="0 0 12 12" refX="11" refY="6" markerWidth="12" markerHeight="12" markerUnits="userSpaceOnUse" orient="auto-start-reverse"><path d="M6,1 L6,11 M1,6 L11,6" fill="none" stroke="#2563eb" stroke-width="1.8" stroke-linecap="round"/></marker><marker id="uml-rel-5-arrow-slash" viewBox="0 0 12 12" refX="10" refY="6" markerWidth="12" markerHeight="12" markerUnits="userSpaceOnUse" orient="auto-start-reverse"><path d="M3,2 L9,10" fill="none" stroke="#2563eb" stroke-width="1.8" stroke-linecap="round"/></marker><marker id="uml-rel-5-arrow-cross" viewBox="0 0 12 12" refX="11" refY="6" markerWidth="12" markerHeight="12" markerUnits="userSpaceOnUse" orient="auto-start-reverse"><path d="M2,2 L10,10 M10,2 L2,10" fill="none" stroke="#2563eb" stroke-width="1.8" stroke-linecap="round"/></marker><marker id="uml-rel-5-arrow-bracket-open" viewBox="0 0 12 14" refX="11" refY="7" markerWidth="12" markerHeight="14" markerUnits="userSpaceOnUse" orient="auto-start-reverse"><path d="M10,1 L4,1 L4,13 L10,13" fill="none" stroke="#2563eb" stroke-width="1.8" stroke-linecap="round" stroke-linejoin="round"/></marker></defs><polyline class="uml-relation" data-uml-from="Edge" data-uml-to="Store" data-uml-arrow="--&gt;" points="1466,570 1466,704 1238,704 1238,1102" fill="none" stroke="#2563eb" stroke-width="3" stroke-dasharray="5 3" data-uml-relation-style="color:#2563eb dashed thickness:3" marker-end="url(#uml-rel-5-arrow-open)" /><polyline class="uml-relation" data-uml-from="Operator" data-uml-to="Deploy" data-uml-arrow="--&gt;" points="1808,186 1808,312 1576,312 1576,1248 1238,1248 1238,1294" fill="none" stroke="#1e293b" stroke-width="2" marker-end="url(#arrow-open)" /><polyline class="uml-relation" data-uml-from="AltUser" data-uml-to="ApiBoundary" data-uml-arrow="--&gt;" points="212,186 212,207 1010,207 1010,526" fill="none" stroke="#1e293b" stroke-width="2" marker-end="url(#arrow-open)" /><polyline class="uml-relation" data-uml-from="ApiBoundary" data-uml-to="Controller" data-uml-arrow="--&gt;" points="1010,570 1010,664 1124,664 1124,718" fill="none" stroke="#1e293b" stroke-width="2" marker-end="url(#arrow-open)" /><polyline class="uml-relation" data-uml-from="Controller" data-uml-to="Catalog" data-uml-arrow="--&gt;" points="1124,762 1124,836 1124,910" fill="none" stroke="#1e293b" stroke-width="2" marker-end="url(#arrow-open)" /><polyline class="uml-relation" data-uml-from="Catalog" data-uml-to="Runtime" data-uml-arrow="--&gt;" points="1124,954 1124,1063 1010,1063 1010,1102" fill="none" stroke="#1e293b" stroke-width="2" marker-end="url(#arrow-open)" /><polyline class="uml-relation" data-uml-from="Runtime" data-uml-to="Deploy" data-uml-arrow="--&gt;" points="1010,1146 1010,1276 1238,1276 1238,1294" fill="none" stroke="#1e293b" stroke-width="2" marker-end="url(#arrow-open)" /><polyline class="uml-relation" data-uml-from="Worker" data-uml-to="Store" data-uml-arrow="--&gt;" points="1352,954 1352,1077 1248,1077 1248,1102" fill="none" stroke="#1e293b" stroke-width="2" marker-end="url(#arrow-open)" /><text class="uml-edge-label" data-uml-label-role="edge" x="1067" y="265" text-anchor="middle" font-family="monospace" font-size="11" fill="#1e293b">buffers</text><text class="uml-edge-label" data-uml-label-role="edge" x="1196" y="1074" text-anchor="middle" font-family="monospace" font-size="11" fill="#1e293b">writes</text><rect class="uml-edge-label-bg" data-uml-label-role="edge-background" x="1558" y="767" width="60" height="18" fill="white" opacity="0.85"/><text class="uml-edge-label" data-uml-label-role="edge" x="1588" y="780" text-anchor="middle" font-family="monospace" font-size="11" fill="#1e293b">approves</text><rect class="uml-edge-label-bg" data-uml-label-role="edge-background" x="1255" y="1061" width="52" height="18" fill="white" opacity="0.85"/><text class="uml-edge-label" data-uml-label-role="edge" x="1281" y="1074" text-anchor="middle" font-family="monospace" font-size="11" fill="#1e293b">updates</text><text x="354" y="110" font-family="monospace" font-size="11" font-weight="600" fill="#ffffff">K8s Cluster</text></svg>