<svg xmlns="http://www.w3.org/2000/svg" width="1825" height="1062" viewBox="0 0 1825 1062"><rect width="100%" height="100%" fill="#f0f4f8"/><defs><marker id="arrow-open" viewBox="0 0 10 10" refX="9" refY="5" markerWidth="10" markerHeight="10" markerUnits="userSpaceOnUse" orient="auto-start-reverse"><path d="M0,0 L10,5 L0,10" fill="none" stroke="#1e293b" stroke-width="1.5"/></marker><marker id="arrow-triangle" viewBox="0 0 12 12" refX="11" refY="6" markerWidth="12" markerHeight="12" markerUnits="userSpaceOnUse" orient="auto-start-reverse"><polygon points="0,0 12,6 0,12" fill="#ffffff" stroke="#1e293b" stroke-width="1.5" fill-rule="nonzero"/></marker><marker id="arrow-diamond-filled" viewBox="0 0 14 10" refX="13" refY="5" markerWidth="14" markerHeight="10" markerUnits="userSpaceOnUse" orient="auto-start-reverse"><path d="M0,5 L7,0 L14,5 L7,10 z" fill="#1e293b" stroke="#1e293b" stroke-width="1"/></marker><marker id="arrow-diamond-open" viewBox="0 0 14 10" refX="13" refY="5" markerWidth="14" markerHeight="10" markerUnits="userSpaceOnUse" orient="auto-start-reverse"><path d="M0,5 L7,0 L14,5 L7,10 z" fill="#ffffff" stroke="#1e293b" stroke-width="1"/></marker><marker id="arrow-double-open" viewBox="0 0 16 12" refX="15" refY="6" markerWidth="16" markerHeight="12" markerUnits="userSpaceOnUse" orient="auto-start-reverse"><path d="M0,1 L8,6 L0,11 M7,1 L15,6 L7,11" fill="none" stroke="#1e293b" stroke-width="1.5" stroke-linejoin="round"/></marker><marker id="arrow-circle-open" viewBox="0 0 12 12" refX="11" refY="6" markerWidth="12" markerHeight="12" markerUnits="userSpaceOnUse" orient="auto-start-reverse"><circle cx="6" cy="6" r="4" fill="#ffffff" stroke="#1e293b" stroke-width="1.5"/></marker><marker id="arrow-circle-filled" viewBox="0 0 12 12" refX="11" refY="6" markerWidth="12" markerHeight="12" markerUnits="userSpaceOnUse" orient="auto-start-reverse"><circle cx="6" cy="6" r="4" fill="#1e293b" stroke="#1e293b" stroke-width="1.5"/></marker><marker id="arrow-triangle-filled" viewBox="0 0 12 12" refX="11" refY="6" markerWidth="12" markerHeight="12" markerUnits="userSpaceOnUse" orient="auto-start-reverse"><polygon points="0,0 12,6 0,12" fill="#1e293b" stroke="#1e293b" stroke-width="1.5"/></marker><marker id="arrow-box-filled" viewBox="0 0 12 12" refX="11" refY="6" markerWidth="12" markerHeight="12" markerUnits="userSpaceOnUse" orient="auto-start-reverse"><rect x="2" y="2" width="8" height="8" fill="#1e293b" stroke="#1e293b" stroke-width="1.5"/></marker><marker id="arrow-plus" viewBox="0 0 12 12" refX="11" refY="6" markerWidth="12" markerHeight="12" markerUnits="userSpaceOnUse" orient="auto-start-reverse"><path d="M6,1 L6,11 M1,6 L11,6" fill="none" stroke="#1e293b" stroke-width="1.8" stroke-linecap="round"/></marker><marker id="arrow-slash" viewBox="0 0 12 12" refX="10" refY="6" markerWidth="12" markerHeight="12" markerUnits="userSpaceOnUse" orient="auto-start-reverse"><path d="M3,2 L9,10" fill="none" stroke="#1e293b" stroke-width="1.8" stroke-linecap="round"/></marker><marker id="arrow-cross" viewBox="0 0 12 12" refX="11" refY="6" markerWidth="12" markerHeight="12" markerUnits="userSpaceOnUse" orient="auto-start-reverse"><path d="M2,2 L10,10 M10,2 L2,10" fill="none" stroke="#1e293b" stroke-width="1.8" stroke-linecap="round"/></marker><marker id="arrow-bracket-open" viewBox="0 0 12 14" refX="11" refY="7" markerWidth="12" markerHeight="14" markerUnits="userSpaceOnUse" orient="auto-start-reverse"><path d="M10,1 L4,1 L4,13 L10,13" fill="none" stroke="#1e293b" stroke-width="1.8" stroke-linecap="round" stroke-linejoin="round"/></marker></defs><marker id="arrow-ie-one" viewBox="0 0 24 16" refX="22" refY="8" markerWidth="24" markerHeight="16" markerUnits="userSpaceOnUse" orient="auto-start-reverse"><path d="M16,2 L16,14" fill="none" stroke="#1e293b" stroke-width="1.8" stroke-linecap="round"/></marker><marker id="arrow-ie-zero-one" viewBox="0 0 30 16" refX="28" refY="8" markerWidth="30" markerHeight="16" markerUnits="userSpaceOnUse" orient="auto-start-reverse"><circle cx="10" cy="8" r="4" fill="#ffffff" stroke="#1e293b" stroke-width="1.5"/><path d="M20,2 L20,14" fill="none" stroke="#1e293b" stroke-width="1.8" stroke-linecap="round"/></marker><marker id="arrow-ie-zero-many" viewBox="0 0 34 18" refX="32" refY="9" markerWidth="34" markerHeight="18" markerUnits="userSpaceOnUse" orient="auto-start-reverse"><circle cx="8" cy="9" r="4" fill="#ffffff" stroke="#1e293b" stroke-width="1.5"/><path d="M18,9 L31,2 M18,9 L31,9 M18,9 L31,16" fill="none" stroke="#1e293b" stroke-width="1.7" stroke-linecap="round"/></marker><marker id="arrow-ie-one-many" viewBox="0 0 34 18" refX="32" refY="9" markerWidth="34" markerHeight="18" markerUnits="userSpaceOnUse" orient="auto-start-reverse"><path d="M8,2 L8,16 M18,9 L31,2 M18,9 L31,9 M18,9 L31,16" fill="none" stroke="#1e293b" stroke-width="1.7" stroke-linecap="round"/></marker><text x="8" y="8" font-family="monospace" font-size="18" font-weight="600">Chapter 8 Deployment Keyword Parity</text><rect class="uml-group-frame" data-uml-group="K8s Cluster" x="240" y="46" width="904" height="756" rx="8" ry="8" fill="#f8faff" stroke="#1e293b" stroke-width="1.5"/><rect x="240" y="46" width="904" height="40" rx="8" ry="8" fill="#1e293b" stroke="none"/><rect x="240" y="78" width="904" height="8" fill="#1e293b" stroke="none"/><text x="248" y="78" font-family="monospace" font-size="11" font-weight="600" fill="#ffffff">node K8s Cluster</text><line x1="240" y1="86" x2="1144" y2="86" stroke="#1e293b" stroke-width="1"/><desc data-uml-id="K8s Cluster::q">K8s Cluster::q</desc><rect class="uml-node uml-deployment-shape" data-uml-kind="queue" x="264" y="98" width="97" height="44" fill="#f0f8ff" stroke="none"/><path class="uml-node uml-deployment-shape" data-uml-kind="queue" d="M264 98 A12 22 0 0 0 264 142" fill="none" stroke="#0000ff" stroke-width="1.5"/><ellipse cx="361" cy="120" rx="12" ry="22" fill="#f0f8ff" stroke="#0000ff" stroke-width="1.5"/><line x1="264" y1="98" x2="361" y2="98" stroke="#0000ff" stroke-width="1.5"/><line x1="264" y1="142" x2="361" y2="142" stroke="#0000ff" stroke-width="1.5"/><text x="312" y="126" text-anchor="middle" font-family="monospace" font-size="13" font-weight="600" fill="#000080">Ingress Queue</text><text x="312" y="125" text-anchor="middle" font-family="monospace" font-size="10" fill="#64748b">&lt;&lt;durable&gt;&gt;</text><desc data-uml-id="K8s Cluster::Jobs">K8s Cluster::Jobs</desc><rect class="uml-node uml-deployment-shape" data-uml-kind="stack" x="878" y="270" width="100" height="34" rx="4" ry="4" fill="#f0f4f8" stroke="#1e293b" stroke-width="1.5"/><rect class="uml-node uml-deployment-shape" data-uml-kind="stack" x="873" y="265" width="100" height="34" rx="4" ry="4" fill="#f0f4f8" stroke="#1e293b" stroke-width="1.5"/><rect class="uml-node uml-deployment-shape" data-uml-kind="stack" x="868" y="260" width="100" height="34" rx="4" ry="4" fill="#f0f4f8" stroke="#1e293b" stroke-width="1.5"/><text x="923" y="288" text-anchor="middle" font-family="monospace" font-size="13" font-weight="600" fill="#0f172a">Jobs</text><desc data-uml-id="K8s Cluster::Router">K8s Cluster::Router</desc><polygon class="uml-node uml-deployment-shape" data-uml-kind="hexagon" points="963,422 1037,422 1055,444 1037,466 963,466 945,444" fill="#f0f4f8" stroke="#1e293b" stroke-width="1.5"/><text x="1000" y="450" text-anchor="middle" font-family="monospace" font-size="13" font-weight="600" fill="#0f172a">Router</text><desc data-uml-id="K8s Cluster::Worker">K8s Cluster::Worker</desc><rect class="uml-node uml-deployment-shape" data-uml-kind="process" x="945" y="584" width="110" height="44" rx="6" ry="6" fill="#f0f4f8" stroke="#1e293b" stroke-width="1.5"/><text x="1000" y="612" text-anchor="middle" font-family="monospace" font-size="13" font-weight="600" fill="#0f172a">Worker</text><desc data-uml-id="K8s Cluster::app">K8s Cluster::app</desc><path class="uml-node uml-deployment-shape" data-uml-kind="artifact" d="M1022,746 H1175 L1193 764 V790 H1022 Z" fill="#f0f4f8" stroke="#1e293b" stroke-width="1.5"/><text x="1107" y="758" text-anchor="middle" font-family="monospace" font-size="13" font-weight="600" fill="#0f172a"><tspan x="1107" y="758">boot.jar</tspan><tspan x="1107" y="774">----</tspan><tspan x="1107" y="790">signed</tspan></text><desc data-uml-id="StandaloneNode">StandaloneNode</desc><polygon points="1638,98 1650,86 1779,86 1767,98" fill="#d4dff7" stroke="#1e293b" stroke-width="1"/><polygon points="1767,98 1779,86 1779,130 1767,142" fill="#b8c8ef" stroke="#1e293b" stroke-width="1"/><rect class="uml-node uml-deployment-shape" data-uml-kind="node" x="1638" y="98" width="129" height="44" fill="#f0f4f8" stroke="#1e293b" stroke-width="1.5"/><text x="1702" y="126" text-anchor="middle" font-family="monospace" font-size="13" font-weight="600" fill="#0f172a">StandaloneNode</text><desc data-uml-id="Edge">Edge</desc><path class="uml-node uml-deployment-shape" data-uml-kind="cloud" d="M1046 316 C1026 314, 1026 288, 1052 288 C1058 268, 1098 268, 1110 286 L1110 286 C1130 288, 1128 316, 1104 316 Z" fill="#f0f4f8" stroke="#1e293b" stroke-width="1.5"/><text x="1077" y="288" text-anchor="middle" font-family="monospace" font-size="13" font-weight="600" fill="#0f172a">Edge</text><desc data-uml-id="Store">Store</desc><path class="uml-node uml-deployment-shape" data-uml-kind="database" d="M868,756 C868,746 978,746 978,756 L978,780 C978,790 868,790 868,780 Z" fill="#f0f4f8" stroke="#1e293b" stroke-width="1.5"/><ellipse cx="923" cy="756" rx="55" ry="10" fill="#f0f4f8" stroke="#1e293b" stroke-width="1.5"/><text x="923" y="774" text-anchor="middle" font-family="monospace" font-size="13" font-weight="600" fill="#0f172a">Store</text><desc data-uml-id="AgentA">AgentA</desc><rect class="uml-node uml-deployment-shape" data-uml-kind="agent" x="406" y="98" width="110" height="44" rx="6" ry="6" fill="#f0f4f8" stroke="#1e293b" stroke-width="1.5"/><text x="461" y="126" text-anchor="middle" font-family="monospace" font-size="13" font-weight="600" fill="#0f172a">AgentA</text><desc data-uml-id="ApiBoundary">ApiBoundary</desc><ellipse class="uml-node uml-deployment-shape" data-uml-kind="boundary" cx="769" cy="278" rx="43" ry="10" fill="#f0f4f8" stroke="#1e293b" stroke-width="1.5"/><line x1="726" y1="290" x2="812" y2="290" stroke="#1e293b" stroke-width="1.5"/><text x="769" y="288" text-anchor="middle" font-family="monospace" font-size="13" font-weight="600" fill="#0f172a">ApiBoundary</text><desc data-uml-id="Controller">Controller</desc><ellipse class="uml-node uml-deployment-shape" data-uml-kind="control" cx="846" cy="440" rx="43" ry="10" fill="#f0f4f8" stroke="#1e293b" stroke-width="1.5"/><path d="M852 430 L870 422 L864 440" fill="none" stroke="#1e293b" stroke-width="1.5"/><text x="846" y="450" text-anchor="middle" font-family="monospace" font-size="13" font-weight="600" fill="#0f172a">Controller</text><desc data-uml-id="Catalog">Catalog</desc><ellipse class="uml-node uml-deployment-shape" data-uml-kind="entity" cx="846" cy="602" rx="43" ry="10" fill="#f0f4f8" stroke="#1e293b" stroke-width="1.5"/><line x1="813" y1="610" x2="879" y2="610" stroke="#1e293b" stroke-width="1.5"/><text x="846" y="612" text-anchor="middle" font-family="monospace" font-size="13" font-weight="600" fill="#0f172a">Catalog</text><desc data-uml-id="Bag">Bag</desc><rect class="uml-node uml-deployment-shape" data-uml-kind="collections" x="570" y="108" width="100" height="34" rx="4" ry="4" fill="#f0f4f8" stroke="#1e293b" stroke-width="1.5"/><rect class="uml-node uml-deployment-shape" data-uml-kind="collections" x="565" y="103" width="100" height="34" rx="4" ry="4" fill="#f0f4f8" stroke="#1e293b" stroke-width="1.5"/><rect class="uml-node uml-deployment-shape" data-uml-kind="collections" x="560" y="98" width="100" height="34" rx="4" ry="4" fill="#f0f4f8" stroke="#1e293b" stroke-width="1.5"/><text x="615" y="126" text-anchor="middle" font-family="monospace" font-size="13" font-weight="600" fill="#0f172a">Bag</text><desc data-uml-id="Signal">Signal</desc><ellipse class="uml-node uml-deployment-shape" data-uml-kind="circle" cx="1539" cy="120" rx="55" ry="22" fill="#f0f4f8" stroke="#1e293b" stroke-width="1.5"/><text x="1539" y="126" text-anchor="middle" font-family="monospace" font-size="13" font-weight="600" fill="#0f172a">Signal</text><desc data-uml-id="Operator">Operator</desc><rect class="uml-node uml-deployment-shape" data-uml-kind="person" x="1176" y="98" width="110" height="44" rx="6" ry="6" fill="#f0f4f8" stroke="#1e293b" stroke-width="1.5" fill-opacity="0.16"/><circle cx="1231" cy="114" r="9" fill="#f0f4f8" stroke="#1e293b" stroke-width="1.5"/><line x1="1231" y1="123" x2="1231" y2="118" stroke="#1e293b" stroke-width="1.8"/><line x1="1215" y1="134" x2="1247" y2="134" stroke="#1e293b" stroke-width="1.8"/><line x1="1231" y1="118" x2="1219" y2="134" stroke="#1e293b" stroke-width="1.8"/><line x1="1231" y1="118" x2="1243" y2="134" stroke="#1e293b" stroke-width="1.8"/><text x="1231" y="126" text-anchor="middle" font-family="monospace" font-size="13" font-weight="600" fill="#0f172a">Operator</text><desc data-uml-id="AltUser">AltUser</desc><rect class="uml-node uml-deployment-shape" data-uml-kind="actor" x="98" y="98" width="110" height="44" rx="6" ry="6" fill="#f0f4f8" stroke="#1e293b" stroke-width="1.5" fill-opacity="0.16"/><circle cx="153" cy="114" r="9" fill="#f0f4f8" stroke="#1e293b" stroke-width="1.5"/><line x1="153" y1="123" x2="153" y2="118" stroke="#1e293b" stroke-width="1.8"/><line x1="137" y1="134" x2="169" y2="134" stroke="#1e293b" stroke-width="1.8"/><line x1="153" y1="118" x2="141" y2="134" stroke="#1e293b" stroke-width="1.8"/><line x1="153" y1="118" x2="165" y2="134" stroke="#1e293b" stroke-width="1.8"/><text x="153" y="126" text-anchor="middle" font-family="monospace" font-size="13" font-weight="600" fill="#0f172a">AltUser</text><text x="153" y="125" text-anchor="middle" font-family="monospace" font-size="10" fill="#64748b">&lt;&lt;actor/&gt;&gt;</text><desc data-uml-id="Colon Actor">Colon Actor</desc><rect class="uml-node uml-deployment-shape" data-uml-kind="actor" x="714" y="98" width="110" height="44" rx="6" ry="6" fill="#f0f4f8" stroke="#1e293b" stroke-width="1.5" fill-opacity="0.16"/><circle cx="769" cy="114" r="9" fill="#f0f4f8" stroke="#1e293b" stroke-width="1.5"/><line x1="769" y1="123" x2="769" y2="118" stroke="#1e293b" stroke-width="1.8"/><line x1="753" y1="134" x2="785" y2="134" stroke="#1e293b" stroke-width="1.8"/><line x1="769" y1="118" x2="757" y2="134" stroke="#1e293b" stroke-width="1.8"/><line x1="769" y1="118" x2="781" y2="134" stroke="#1e293b" stroke-width="1.8"/><text x="769" y="126" text-anchor="middle" font-family="monospace" font-size="13" font-weight="600" fill="#0f172a">Colon Actor</text><desc data-uml-id="LegacyUC">LegacyUC</desc><ellipse class="uml-node uml-deployment-shape" data-uml-kind="usecase" cx="923" cy="120" rx="55" ry="22" fill="#f0f4f8" stroke="#1e293b" stroke-width="1.5"/><text x="923" y="126" text-anchor="middle" font-family="monospace" font-size="13" font-weight="600" fill="#0f172a">LegacyUC</text><text x="923" y="125" text-anchor="middle" font-family="monospace" font-size="10" fill="#64748b">&lt;&lt;usecase/&gt;&gt;</text><desc data-uml-id="SearchUC">SearchUC</desc><ellipse class="uml-node uml-deployment-shape" data-uml-kind="usecase" cx="1385" cy="120" rx="55" ry="22" fill="#f0f4f8" stroke="#1e293b" stroke-width="1.5"/><text x="1385" y="126" text-anchor="middle" font-family="monospace" font-size="13" font-weight="600" fill="#0f172a">Search</text><desc data-uml-id="Runtime">Runtime</desc><rect class="uml-node uml-deployment-shape" data-uml-kind="container" x="714" y="746" width="110" height="44" rx="6" ry="6" fill="#f0f4f8" stroke="#1e293b" stroke-width="1.5"/><text x="769" y="774" text-anchor="middle" font-family="monospace" font-size="13" font-weight="600" fill="#0f172a">Runtime</text><desc data-uml-id="Marker">Marker</desc><rect class="uml-node uml-deployment-shape" data-uml-kind="label" x="1022" y="98" width="110" height="44" rx="6" ry="6" fill="#f0f4f8" stroke="#1e293b" stroke-width="1.5"/><text x="1077" y="126" text-anchor="middle" font-family="monospace" font-size="13" font-weight="600" fill="#0f172a">Marker</text><desc data-uml-id="Deploy">Deploy</desc><rect class="uml-node uml-deployment-shape" data-uml-kind="action" x="868" y="908" width="110" height="44" rx="6" ry="6" fill="#f0f4f8" stroke="#1e293b" stroke-width="1.5"/><text x="923" y="936" text-anchor="middle" font-family="monospace" font-size="13" font-weight="600" fill="#0f172a">Deploy</text><polyline class="uml-relation" data-uml-from="K8s Cluster::q" data-uml-to="K8s Cluster::Jobs" data-uml-arrow="--&gt;" points="307,142 307,187 923,187 923,260" fill="none" stroke="#1e293b" stroke-width="2" marker-end="url(#arrow-open)" /><polyline class="uml-relation" data-uml-from="K8s Cluster::Jobs" data-uml-to="K8s Cluster::Router" data-uml-arrow="--&gt;" points="923,304 923,394 1000,394 1000,422" fill="none" stroke="#1e293b" stroke-width="2" marker-end="url(#arrow-open)" /><polyline class="uml-relation" data-uml-from="K8s Cluster::Router" data-uml-to="K8s Cluster::Worker" data-uml-arrow="--&gt;" points="1000,466 1000,573 1000,584" fill="none" stroke="#1e293b" stroke-width="2" marker-end="url(#arrow-open)" /><polyline class="uml-relation" data-uml-from="K8s Cluster::Worker" data-uml-to="K8s Cluster::app" data-uml-arrow="--&gt;" points="1000,628 1000,736 1077,736 1077,746" fill="none" stroke="#1e293b" stroke-width="2" marker-end="url(#arrow-open)" /><polyline class="uml-relation" data-uml-from="AgentA" data-uml-to="Edge" data-uml-arrow="0)--(0" points="461,142 461,214 1077,214 1077,260" fill="none" stroke="#1e293b" stroke-width="2" marker-end="url(#arrow-circle-open)" marker-start="url(#arrow-circle-open)" /><defs><marker id="uml-rel-5-arrow-open" viewBox="0 0 10 10" refX="9" refY="5" markerWidth="10" markerHeight="10" markerUnits="userSpaceOnUse" orient="auto-start-reverse"><path d="M0,0 L10,5 L0,10" fill="none" stroke="#2563eb" stroke-width="1.5"/></marker><marker id="uml-rel-5-arrow-triangle" viewBox="0 0 12 12" refX="11" refY="6" markerWidth="12" markerHeight="12" markerUnits="userSpaceOnUse" orient="auto-start-reverse"><polygon points="0,0 12,6 0,12" fill="#ffffff" stroke="#2563eb" stroke-width="1.5" fill-rule="nonzero"/></marker><marker id="uml-rel-5-arrow-diamond-filled" viewBox="0 0 14 10" refX="13" refY="5" markerWidth="14" markerHeight="10" markerUnits="userSpaceOnUse" orient="auto-start-reverse"><path d="M0,5 L7,0 L14,5 L7,10 z" fill="#2563eb" stroke="#2563eb" stroke-width="1"/></marker><marker id="uml-rel-5-arrow-diamond-open" viewBox="0 0 14 10" refX="13" refY="5" markerWidth="14" markerHeight="10" markerUnits="userSpaceOnUse" orient="auto-start-reverse"><path d="M0,5 L7,0 L14,5 L7,10 z" fill="#ffffff" stroke="#2563eb" stroke-width="1"/></marker><marker id="uml-rel-5-arrow-double-open" viewBox="0 0 16 12" refX="15" refY="6" markerWidth="16" markerHeight="12" markerUnits="userSpaceOnUse" orient="auto-start-reverse"><path d="M0,1 L8,6 L0,11 M7,1 L15,6 L7,11" fill="none" stroke="#2563eb" stroke-width="1.5" stroke-linejoin="round"/></marker><marker id="uml-rel-5-arrow-circle-open" viewBox="0 0 12 12" refX="11" refY="6" markerWidth="12" markerHeight="12" markerUnits="userSpaceOnUse" orient="auto-start-reverse"><circle cx="6" cy="6" r="4" fill="#ffffff" stroke="#2563eb" stroke-width="1.5"/></marker><marker id="uml-rel-5-arrow-circle-filled" viewBox="0 0 12 12" refX="11" refY="6" markerWidth="12" markerHeight="12" markerUnits="userSpaceOnUse" orient="auto-start-reverse"><circle cx="6" cy="6" r="4" fill="#2563eb" stroke="#2563eb" stroke-width="1.5"/></marker><marker id="uml-rel-5-arrow-triangle-filled" viewBox="0 0 12 12" refX="11" refY="6" markerWidth="12" markerHeight="12" markerUnits="userSpaceOnUse" orient="auto-start-reverse"><polygon points="0,0 12,6 0,12" fill="#2563eb" stroke="#2563eb" stroke-width="1.5"/></marker><marker id="uml-rel-5-arrow-box-filled" viewBox="0 0 12 12" refX="11" refY="6" markerWidth="12" markerHeight="12" markerUnits="userSpaceOnUse" orient="auto-start-reverse"><rect x="2" y="2" width="8" height="8" fill="#2563eb" stroke="#2563eb" stroke-width="1.5"/></marker><marker id="uml-rel-5-arrow-plus" viewBox="0 0 12 12" refX="11" refY="6" markerWidth="12" markerHeight="12" markerUnits="userSpaceOnUse" orient="auto-start-reverse"><path d="M6,1 L6,11 M1,6 L11,6" fill="none" stroke="#2563eb" stroke-width="1.8" stroke-linecap="round"/></marker><marker id="uml-rel-5-arrow-slash" viewBox="0 0 12 12" refX="10" refY="6" markerWidth="12" markerHeight="12" markerUnits="userSpaceOnUse" orient="auto-start-reverse"><path d="M3,2 L9,10" fill="none" stroke="#2563eb" stroke-width="1.8" stroke-linecap="round"/></marker><marker id="uml-rel-5-arrow-cross" viewBox="0 0 12 12" refX="11" refY="6" markerWidth="12" markerHeight="12" markerUnits="userSpaceOnUse" orient="auto-start-reverse"><path d="M2,2 L10,10 M10,2 L2,10" fill="none" stroke="#2563eb" stroke-width="1.8" stroke-linecap="round"/></marker><marker id="uml-rel-5-arrow-bracket-open" viewBox="0 0 12 14" refX="11" refY="7" markerWidth="12" markerHeight="14" markerUnits="userSpaceOnUse" orient="auto-start-reverse"><path d="M10,1 L4,1 L4,13 L10,13" fill="none" stroke="#2563eb" stroke-width="1.8" stroke-linecap="round" stroke-linejoin="round"/></marker></defs><polyline class="uml-relation" data-uml-from="Edge" data-uml-to="Store" data-uml-arrow="--&gt;" points="1077,304 1077,410 1160,410 1160,703 923,703 923,746" fill="none" stroke="#2563eb" stroke-width="3" stroke-dasharray="5 3" data-uml-relation-style="color:#2563eb dashed thickness:3" marker-end="url(#uml-rel-5-arrow-open)" /><polyline class="uml-relation" data-uml-from="Operator" data-uml-to="Deploy" data-uml-arrow="--&gt;" points="1231,142 1231,242 1160,242 1160,871 923,871 923,908" fill="none" stroke="#1e293b" stroke-width="2" marker-end="url(#arrow-open)" /><polyline class="uml-relation" data-uml-from="AltUser" data-uml-to="ApiBoundary" data-uml-arrow="--&gt;" points="153,142 153,159 769,159 769,260" fill="none" stroke="#1e293b" stroke-width="2" marker-end="url(#arrow-open)" /><polyline class="uml-relation" data-uml-from="ApiBoundary" data-uml-to="Controller" data-uml-arrow="--&gt;" points="769,304 769,378 846,378 846,422" fill="none" stroke="#1e293b" stroke-width="2" marker-end="url(#arrow-open)" /><polyline class="uml-relation" data-uml-from="Controller" data-uml-to="Catalog" data-uml-arrow="--&gt;" points="846,466 846,561 846,584" fill="none" stroke="#1e293b" stroke-width="2" marker-end="url(#arrow-open)" /><polyline class="uml-relation" data-uml-from="Catalog" data-uml-to="Runtime" data-uml-arrow="--&gt;" points="846,628 846,714 769,714 769,746" fill="none" stroke="#1e293b" stroke-width="2" marker-end="url(#arrow-open)" /><polyline class="uml-relation" data-uml-from="Runtime" data-uml-to="Deploy" data-uml-arrow="--&gt;" points="769,790 769,893 923,893 933,908" fill="none" stroke="#1e293b" stroke-width="2" marker-end="url(#arrow-open)" /><polyline class="uml-relation" data-uml-from="Worker" data-uml-to="Store" data-uml-arrow="--&gt;" points="1000,628 1000,725 923,725 933,746" fill="none" stroke="#1e293b" stroke-width="2" marker-end="url(#arrow-open)" /><rect class="uml-edge-label-bg" data-uml-label-role="edge-background" x="743" y="189" width="52" height="18" fill="white" opacity="0.85"/><rect class="uml-edge-label-bg" data-uml-label-role="edge-background" x="743" y="189" width="52" height="18" fill="white" opacity="0.85"/><text class="uml-edge-label" data-uml-label-role="edge" x="769" y="202" text-anchor="middle" font-family="monospace" font-size="11" fill="#1e293b">buffers</text><rect class="uml-edge-label-bg" data-uml-label-role="edge-background" x="943" y="705" width="46" height="18" fill="white" opacity="0.85"/><rect class="uml-edge-label-bg" data-uml-label-role="edge-background" x="943" y="705" width="46" height="18" fill="white" opacity="0.85"/><text class="uml-edge-label" data-uml-label-role="edge" x="966" y="718" text-anchor="middle" font-family="monospace" font-size="11" fill="#1e293b">writes</text><rect class="uml-edge-label-bg" data-uml-label-role="edge-background" x="1142" y="543" width="60" height="18" fill="white" opacity="0.85"/><rect class="uml-edge-label-bg" data-uml-label-role="edge-background" x="1142" y="543" width="60" height="18" fill="white" opacity="0.85"/><text class="uml-edge-label" data-uml-label-role="edge" x="1172" y="556" text-anchor="middle" font-family="monospace" font-size="11" fill="#1e293b">approves</text><text class="uml-edge-label" data-uml-label-role="edge" x="881" y="718" text-anchor="middle" font-family="monospace" font-size="11" fill="#1e293b">updates</text><text x="248" y="78" font-family="monospace" font-size="11" font-weight="600" fill="#ffffff">node K8s Cluster</text></svg>