<svg xmlns="http://www.w3.org/2000/svg" width="2308" height="1752" viewBox="0 0 2308 1752"><rect width="100%" height="100%" fill="#f0f4f8"/><defs><marker id="arrow-open" viewBox="0 0 10 10" refX="9" refY="5" markerWidth="10" markerHeight="10" markerUnits="userSpaceOnUse" orient="auto-start-reverse"><path d="M0,0 L10,5 L0,10" fill="none" stroke="#1e293b" stroke-width="1.5"/></marker><marker id="arrow-triangle" viewBox="0 0 12 12" refX="11" refY="6" markerWidth="12" markerHeight="12" markerUnits="userSpaceOnUse" orient="auto-start-reverse"><polygon points="0,0 12,6 0,12" fill="#ffffff" stroke="#1e293b" stroke-width="1.5" fill-rule="nonzero"/></marker><marker id="arrow-diamond-filled" viewBox="0 0 14 10" refX="13" refY="5" markerWidth="14" markerHeight="10" markerUnits="userSpaceOnUse" orient="auto-start-reverse"><path d="M0,5 L7,0 L14,5 L7,10 z" fill="#1e293b" stroke="#1e293b" stroke-width="1"/></marker><marker id="arrow-diamond-open" viewBox="0 0 14 10" refX="13" refY="5" markerWidth="14" markerHeight="10" markerUnits="userSpaceOnUse" orient="auto-start-reverse"><path d="M0,5 L7,0 L14,5 L7,10 z" fill="#ffffff" stroke="#1e293b" stroke-width="1"/></marker><marker id="arrow-double-open" viewBox="0 0 16 12" refX="15" refY="6" markerWidth="16" markerHeight="12" markerUnits="userSpaceOnUse" orient="auto-start-reverse"><path d="M0,1 L8,6 L0,11 M7,1 L15,6 L7,11" fill="none" stroke="#1e293b" stroke-width="1.5" stroke-linejoin="round"/></marker><marker id="arrow-circle-open" viewBox="0 0 12 12" refX="11" refY="6" markerWidth="12" markerHeight="12" markerUnits="userSpaceOnUse" orient="auto-start-reverse"><circle cx="6" cy="6" r="4" fill="#ffffff" stroke="#1e293b" stroke-width="1.5"/></marker><marker id="arrow-circle-filled" viewBox="0 0 12 12" refX="11" refY="6" markerWidth="12" markerHeight="12" markerUnits="userSpaceOnUse" orient="auto-start-reverse"><circle cx="6" cy="6" r="4" fill="#1e293b" stroke="#1e293b" stroke-width="1.5"/></marker><marker id="arrow-triangle-filled" viewBox="0 0 12 12" refX="11" refY="6" markerWidth="12" markerHeight="12" markerUnits="userSpaceOnUse" orient="auto-start-reverse"><polygon points="0,0 12,6 0,12" fill="#1e293b" stroke="#1e293b" stroke-width="1.5"/></marker><marker id="arrow-box-filled" viewBox="0 0 12 12" refX="11" refY="6" markerWidth="12" markerHeight="12" markerUnits="userSpaceOnUse" orient="auto-start-reverse"><rect x="2" y="2" width="8" height="8" fill="#1e293b" stroke="#1e293b" stroke-width="1.5"/></marker><marker id="arrow-plus" viewBox="0 0 12 12" refX="11" refY="6" markerWidth="12" markerHeight="12" markerUnits="userSpaceOnUse" orient="auto-start-reverse"><path d="M6,1 L6,11 M1,6 L11,6" fill="none" stroke="#1e293b" stroke-width="1.8" stroke-linecap="round"/></marker><marker id="arrow-slash" viewBox="0 0 12 12" refX="10" refY="6" markerWidth="12" markerHeight="12" markerUnits="userSpaceOnUse" orient="auto-start-reverse"><path d="M3,2 L9,10" fill="none" stroke="#1e293b" stroke-width="1.8" stroke-linecap="round"/></marker><marker id="arrow-cross" viewBox="0 0 12 12" refX="11" refY="6" markerWidth="12" markerHeight="12" markerUnits="userSpaceOnUse" orient="auto-start-reverse"><path d="M2,2 L10,10 M10,2 L2,10" fill="none" stroke="#1e293b" stroke-width="1.8" stroke-linecap="round"/></marker><marker id="arrow-bracket-open" viewBox="0 0 12 14" refX="11" refY="7" markerWidth="12" markerHeight="14" markerUnits="userSpaceOnUse" orient="auto-start-reverse"><path d="M10,1 L4,1 L4,13 L10,13" fill="none" stroke="#1e293b" stroke-width="1.8" stroke-linecap="round" stroke-linejoin="round"/></marker></defs><marker id="arrow-ie-one" viewBox="0 0 24 16" refX="22" refY="8" markerWidth="24" markerHeight="16" markerUnits="userSpaceOnUse" orient="auto-start-reverse"><path d="M16,2 L16,14" fill="none" stroke="#1e293b" stroke-width="1.8" stroke-linecap="round"/></marker><marker id="arrow-ie-zero-one" viewBox="0 0 30 16" refX="28" refY="8" markerWidth="30" markerHeight="16" markerUnits="userSpaceOnUse" orient="auto-start-reverse"><circle cx="10" cy="8" r="4" fill="#ffffff" stroke="#1e293b" stroke-width="1.5"/><path d="M20,2 L20,14" fill="none" stroke="#1e293b" stroke-width="1.8" stroke-linecap="round"/></marker><marker id="arrow-ie-zero-many" viewBox="0 0 34 18" refX="32" refY="9" markerWidth="34" markerHeight="18" markerUnits="userSpaceOnUse" orient="auto-start-reverse"><circle cx="8" cy="9" r="4" fill="#ffffff" stroke="#1e293b" stroke-width="1.5"/><path d="M18,9 L31,2 M18,9 L31,9 M18,9 L31,16" fill="none" stroke="#1e293b" stroke-width="1.7" stroke-linecap="round"/></marker><marker id="arrow-ie-one-many" viewBox="0 0 34 18" refX="32" refY="9" markerWidth="34" markerHeight="18" markerUnits="userSpaceOnUse" orient="auto-start-reverse"><path d="M8,2 L8,16 M18,9 L31,2 M18,9 L31,9 M18,9 L31,16" fill="none" stroke="#1e293b" stroke-width="1.7" stroke-linecap="round"/></marker><text x="8" y="8" font-family="monospace" font-size="18" font-weight="600">Chapter 8 Deployment Keyword Parity</text><rect class="uml-group-frame" data-uml-group="K8s Cluster" x="330" y="46" width="1200" height="1364" rx="8" ry="8" fill="#f8faff" stroke="#1e293b" stroke-width="1.5"/><rect x="330" y="46" width="1200" height="40" rx="8" ry="8" fill="#1e293b" stroke="none"/><rect x="330" y="78" width="1200" height="8" fill="#1e293b" stroke="none"/><text x="338" y="78" font-family="monospace" font-size="11" font-weight="600" fill="#ffffff">node K8s Cluster</text><line x1="330" y1="86" x2="1530" y2="86" stroke="#1e293b" stroke-width="1"/><desc data-uml-id="K8s Cluster::q">K8s Cluster::q</desc><rect class="uml-node uml-deployment-shape" data-uml-kind="queue" x="354" y="98" width="176" height="80" fill="#f0f8ff" stroke="none"/><path class="uml-node uml-deployment-shape" data-uml-kind="queue" d="M354 98 A12 40 0 0 0 354 178" fill="none" stroke="#0000ff" stroke-width="1.5"/><ellipse cx="530" cy="138" rx="12" ry="40" fill="#f0f8ff" stroke="#0000ff" stroke-width="1.5"/><line x1="354" y1="98" x2="530" y2="98" stroke="#0000ff" stroke-width="1.5"/><line x1="354" y1="178" x2="530" y2="178" stroke="#0000ff" stroke-width="1.5"/><text x="442" y="144" text-anchor="middle" font-family="monospace" font-size="13" font-weight="600" fill="#000080">Ingress Queue</text><text x="442" y="125" text-anchor="middle" font-family="monospace" font-size="10" fill="#64748b">&lt;&lt;durable&gt;&gt;</text><desc data-uml-id="K8s Cluster::Jobs">K8s Cluster::Jobs</desc><rect class="uml-node uml-deployment-shape" data-uml-kind="stack" x="1084" y="596" width="190" height="70" rx="4" ry="4" fill="#f0f4f8" stroke="#1e293b" stroke-width="1.5"/><rect class="uml-node uml-deployment-shape" data-uml-kind="stack" x="1079" y="591" width="190" height="70" rx="4" ry="4" fill="#f0f4f8" stroke="#1e293b" stroke-width="1.5"/><rect class="uml-node uml-deployment-shape" data-uml-kind="stack" x="1074" y="586" width="190" height="70" rx="4" ry="4" fill="#f0f4f8" stroke="#1e293b" stroke-width="1.5"/><text x="1174" y="632" text-anchor="middle" font-family="monospace" font-size="13" font-weight="600" fill="#0f172a">Jobs</text><desc data-uml-id="K8s Cluster::Router">K8s Cluster::Router</desc><polygon class="uml-node uml-deployment-shape" data-uml-kind="hexagon" points="1214,830 1378,830 1396,870 1378,910 1214,910 1196,870" fill="#f0f4f8" stroke="#1e293b" stroke-width="1.5"/><text x="1296" y="876" text-anchor="middle" font-family="monospace" font-size="13" font-weight="600" fill="#0f172a">Router</text><desc data-uml-id="K8s Cluster::Worker">K8s Cluster::Worker</desc><rect class="uml-node uml-deployment-shape" data-uml-kind="process" x="1196" y="1074" width="200" height="80" rx="6" ry="6" fill="#f0f4f8" stroke="#1e293b" stroke-width="1.5"/><text x="1296" y="1120" text-anchor="middle" font-family="monospace" font-size="13" font-weight="600" fill="#0f172a">Worker</text><desc data-uml-id="K8s Cluster::app">K8s Cluster::app</desc><path class="uml-node uml-deployment-shape" data-uml-kind="artifact" d="M1318,1318 H1500 L1518 1336 V1398 H1318 Z" fill="#f0f4f8" stroke="#1e293b" stroke-width="1.5"/><text x="1418" y="1348" text-anchor="middle" font-family="monospace" font-size="13" font-weight="600" fill="#0f172a"><tspan x="1418" y="1348">boot.jar</tspan><tspan x="1418" y="1364">----</tspan><tspan x="1418" y="1380">signed</tspan></text><desc data-uml-id="StandaloneNode">StandaloneNode</desc><polygon points="1196,342 1208,330 1408,330 1396,342" fill="#d4dff7" stroke="#1e293b" stroke-width="1"/><polygon points="1396,342 1408,330 1408,410 1396,422" fill="#b8c8ef" stroke="#1e293b" stroke-width="1"/><rect class="uml-node uml-deployment-shape" data-uml-kind="node" x="1196" y="342" width="200" height="80" fill="#f0f4f8" stroke="#1e293b" stroke-width="1.5"/><text x="1296" y="388" text-anchor="middle" font-family="monospace" font-size="13" font-weight="600" fill="#0f172a">StandaloneNode</text><desc data-uml-id="Edge">Edge</desc><path class="uml-node uml-deployment-shape" data-uml-kind="cloud" d="M1342 642 C1322 640, 1322 614, 1348 614 C1354 594, 1394 594, 1406 612 L1496 612 C1516 614, 1514 642, 1490 642 Z" fill="#f0f4f8" stroke="#1e293b" stroke-width="1.5"/><text x="1418" y="632" text-anchor="middle" font-family="monospace" font-size="13" font-weight="600" fill="#0f172a">Edge</text><desc data-uml-id="Store">Store</desc><path class="uml-node uml-deployment-shape" data-uml-kind="database" d="M1074,1328 C1074,1318 1274,1318 1274,1328 L1274,1388 C1274,1398 1074,1398 1074,1388 Z" fill="#f0f4f8" stroke="#1e293b" stroke-width="1.5"/><ellipse cx="1174" cy="1328" rx="100" ry="10" fill="#f0f4f8" stroke="#1e293b" stroke-width="1.5"/><text x="1174" y="1364" text-anchor="middle" font-family="monospace" font-size="13" font-weight="600" fill="#0f172a">Store</text><desc data-uml-id="AgentA">AgentA</desc><rect class="uml-node uml-deployment-shape" data-uml-kind="agent" x="586" y="98" width="200" height="80" rx="6" ry="6" fill="#f0f4f8" stroke="#1e293b" stroke-width="1.5"/><text x="686" y="144" text-anchor="middle" font-family="monospace" font-size="13" font-weight="600" fill="#0f172a">AgentA</text><desc data-uml-id="ApiBoundary">ApiBoundary</desc><ellipse class="uml-node uml-deployment-shape" data-uml-kind="boundary" cx="930" cy="622" rx="88" ry="28" fill="#f0f4f8" stroke="#1e293b" stroke-width="1.5"/><line x1="842" y1="652" x2="1018" y2="652" stroke="#1e293b" stroke-width="1.5"/><text x="930" y="632" text-anchor="middle" font-family="monospace" font-size="13" font-weight="600" fill="#0f172a">ApiBoundary</text><desc data-uml-id="Controller">Controller</desc><ellipse class="uml-node uml-deployment-shape" data-uml-kind="control" cx="1052" cy="866" rx="88" ry="28" fill="#f0f4f8" stroke="#1e293b" stroke-width="1.5"/><path d="M1058 856 L1076 848 L1070 866" fill="none" stroke="#1e293b" stroke-width="1.5"/><text x="1052" y="876" text-anchor="middle" font-family="monospace" font-size="13" font-weight="600" fill="#0f172a">Controller</text><desc data-uml-id="Catalog">Catalog</desc><ellipse class="uml-node uml-deployment-shape" data-uml-kind="entity" cx="1052" cy="1110" rx="88" ry="28" fill="#f0f4f8" stroke="#1e293b" stroke-width="1.5"/><line x1="974" y1="1136" x2="1130" y2="1136" stroke="#1e293b" stroke-width="1.5"/><text x="1052" y="1120" text-anchor="middle" font-family="monospace" font-size="13" font-weight="600" fill="#0f172a">Catalog</text><desc data-uml-id="Bag">Bag</desc><rect class="uml-node uml-deployment-shape" data-uml-kind="collections" x="840" y="108" width="190" height="70" rx="4" ry="4" fill="#f0f4f8" stroke="#1e293b" stroke-width="1.5"/><rect class="uml-node uml-deployment-shape" data-uml-kind="collections" x="835" y="103" width="190" height="70" rx="4" ry="4" fill="#f0f4f8" stroke="#1e293b" stroke-width="1.5"/><rect class="uml-node uml-deployment-shape" data-uml-kind="collections" x="830" y="98" width="190" height="70" rx="4" ry="4" fill="#f0f4f8" stroke="#1e293b" stroke-width="1.5"/><text x="930" y="144" text-anchor="middle" font-family="monospace" font-size="13" font-weight="600" fill="#0f172a">Bag</text><desc data-uml-id="Signal">Signal</desc><ellipse class="uml-node uml-deployment-shape" data-uml-kind="circle" cx="1052" cy="382" rx="100" ry="40" fill="#f0f4f8" stroke="#1e293b" stroke-width="1.5"/><text x="1052" y="388" text-anchor="middle" font-family="monospace" font-size="13" font-weight="600" fill="#0f172a">Signal</text><desc data-uml-id="Operator">Operator</desc><rect class="uml-node uml-deployment-shape" data-uml-kind="person" x="1806" y="98" width="200" height="80" rx="6" ry="6" fill="#f0f4f8" stroke="#1e293b" stroke-width="1.5" fill-opacity="0.16"/><circle cx="1906" cy="114" r="9" fill="#f0f4f8" stroke="#1e293b" stroke-width="1.5"/><line x1="1906" y1="123" x2="1906" y2="154" stroke="#1e293b" stroke-width="1.8"/><line x1="1890" y1="134" x2="1922" y2="134" stroke="#1e293b" stroke-width="1.8"/><line x1="1906" y1="154" x2="1894" y2="170" stroke="#1e293b" stroke-width="1.8"/><line x1="1906" y1="154" x2="1918" y2="170" stroke="#1e293b" stroke-width="1.8"/><text x="1906" y="144" text-anchor="middle" font-family="monospace" font-size="13" font-weight="600" fill="#0f172a">Operator</text><desc data-uml-id="AltUser">AltUser</desc><rect class="uml-node uml-deployment-shape" data-uml-kind="actor" x="98" y="98" width="200" height="80" rx="6" ry="6" fill="#f0f4f8" stroke="#1e293b" stroke-width="1.5" fill-opacity="0.16"/><circle cx="198" cy="114" r="9" fill="#f0f4f8" stroke="#1e293b" stroke-width="1.5"/><line x1="198" y1="123" x2="198" y2="154" stroke="#1e293b" stroke-width="1.8"/><line x1="182" y1="134" x2="214" y2="134" stroke="#1e293b" stroke-width="1.8"/><line x1="198" y1="154" x2="186" y2="170" stroke="#1e293b" stroke-width="1.8"/><line x1="198" y1="154" x2="210" y2="170" stroke="#1e293b" stroke-width="1.8"/><text x="198" y="144" text-anchor="middle" font-family="monospace" font-size="13" font-weight="600" fill="#0f172a">AltUser</text><text x="198" y="125" text-anchor="middle" font-family="monospace" font-size="10" fill="#64748b">&lt;&lt;actor/&gt;&gt;</text><desc data-uml-id="Colon Actor">Colon Actor</desc><rect class="uml-node uml-deployment-shape" data-uml-kind="actor" x="1074" y="98" width="200" height="80" rx="6" ry="6" fill="#f0f4f8" stroke="#1e293b" stroke-width="1.5" fill-opacity="0.16"/><circle cx="1174" cy="114" r="9" fill="#f0f4f8" stroke="#1e293b" stroke-width="1.5"/><line x1="1174" y1="123" x2="1174" y2="154" stroke="#1e293b" stroke-width="1.8"/><line x1="1158" y1="134" x2="1190" y2="134" stroke="#1e293b" stroke-width="1.8"/><line x1="1174" y1="154" x2="1162" y2="170" stroke="#1e293b" stroke-width="1.8"/><line x1="1174" y1="154" x2="1186" y2="170" stroke="#1e293b" stroke-width="1.8"/><text x="1174" y="144" text-anchor="middle" font-family="monospace" font-size="13" font-weight="600" fill="#0f172a">Colon Actor</text><desc data-uml-id="LegacyUC">LegacyUC</desc><ellipse class="uml-node uml-deployment-shape" data-uml-kind="usecase" cx="1418" cy="138" rx="100" ry="40" fill="#f0f4f8" stroke="#1e293b" stroke-width="1.5"/><text x="1418" y="144" text-anchor="middle" font-family="monospace" font-size="13" font-weight="600" fill="#0f172a">LegacyUC</text><text x="1418" y="125" text-anchor="middle" font-family="monospace" font-size="10" fill="#64748b">&lt;&lt;usecase/&gt;&gt;</text><desc data-uml-id="SearchUC">SearchUC</desc><ellipse class="uml-node uml-deployment-shape" data-uml-kind="usecase" cx="2150" cy="138" rx="100" ry="40" fill="#f0f4f8" stroke="#1e293b" stroke-width="1.5"/><text x="2150" y="144" text-anchor="middle" font-family="monospace" font-size="13" font-weight="600" fill="#0f172a">Search</text><desc data-uml-id="Runtime">Runtime</desc><rect class="uml-node uml-deployment-shape" data-uml-kind="container" x="830" y="1318" width="200" height="80" rx="6" ry="6" fill="#f0f4f8" stroke="#1e293b" stroke-width="1.5"/><text x="930" y="1364" text-anchor="middle" font-family="monospace" font-size="13" font-weight="600" fill="#0f172a">Runtime</text><desc data-uml-id="Marker">Marker</desc><rect class="uml-node uml-deployment-shape" data-uml-kind="label" x="1562" y="98" width="200" height="80" rx="6" ry="6" fill="#f0f4f8" stroke="#1e293b" stroke-width="1.5"/><text x="1662" y="144" text-anchor="middle" font-family="monospace" font-size="13" font-weight="600" fill="#0f172a">Marker</text><desc data-uml-id="Deploy">Deploy</desc><rect class="uml-node uml-deployment-shape" data-uml-kind="action" x="1074" y="1562" width="200" height="80" rx="6" ry="6" fill="#f0f4f8" stroke="#1e293b" stroke-width="1.5"/><text x="1174" y="1608" text-anchor="middle" font-family="monospace" font-size="13" font-weight="600" fill="#0f172a">Deploy</text><polyline class="uml-relation" data-uml-from="K8s Cluster::q" data-uml-to="K8s Cluster::Jobs" data-uml-arrow="--&gt;" points="442,178 442,240 1174,240 1174,586" fill="none" stroke="#1e293b" stroke-width="2" marker-end="url(#arrow-open)" /><polyline class="uml-relation" data-uml-from="K8s Cluster::Jobs" data-uml-to="K8s Cluster::Router" data-uml-arrow="--&gt;" points="1174,666 1174,792 1296,792 1296,830" fill="none" stroke="#1e293b" stroke-width="2" marker-end="url(#arrow-open)" /><polyline class="uml-relation" data-uml-from="K8s Cluster::Router" data-uml-to="K8s Cluster::Worker" data-uml-arrow="--&gt;" points="1296,910 1296,1061 1296,1074" fill="none" stroke="#1e293b" stroke-width="2" marker-end="url(#arrow-open)" /><polyline class="uml-relation" data-uml-from="K8s Cluster::Worker" data-uml-to="K8s Cluster::app" data-uml-arrow="--&gt;" points="1296,1154 1296,1306 1418,1306 1418,1318" fill="none" stroke="#1e293b" stroke-width="2" marker-end="url(#arrow-open)" /><polyline class="uml-relation" data-uml-from="AgentA" data-uml-to="Edge" data-uml-arrow="0)--(0" points="686,178 686,279 1418,279 1418,586" fill="none" stroke="#1e293b" stroke-width="2" marker-end="url(#arrow-circle-open)" marker-start="url(#arrow-circle-open)" /><defs><marker id="uml-rel-5-arrow-open" viewBox="0 0 10 10" refX="9" refY="5" markerWidth="10" markerHeight="10" markerUnits="userSpaceOnUse" orient="auto-start-reverse"><path d="M0,0 L10,5 L0,10" fill="none" stroke="#2563eb" stroke-width="1.5"/></marker><marker id="uml-rel-5-arrow-triangle" viewBox="0 0 12 12" refX="11" refY="6" markerWidth="12" markerHeight="12" markerUnits="userSpaceOnUse" orient="auto-start-reverse"><polygon points="0,0 12,6 0,12" fill="#ffffff" stroke="#2563eb" stroke-width="1.5" fill-rule="nonzero"/></marker><marker id="uml-rel-5-arrow-diamond-filled" viewBox="0 0 14 10" refX="13" refY="5" markerWidth="14" markerHeight="10" markerUnits="userSpaceOnUse" orient="auto-start-reverse"><path d="M0,5 L7,0 L14,5 L7,10 z" fill="#2563eb" stroke="#2563eb" stroke-width="1"/></marker><marker id="uml-rel-5-arrow-diamond-open" viewBox="0 0 14 10" refX="13" refY="5" markerWidth="14" markerHeight="10" markerUnits="userSpaceOnUse" orient="auto-start-reverse"><path d="M0,5 L7,0 L14,5 L7,10 z" fill="#ffffff" stroke="#2563eb" stroke-width="1"/></marker><marker id="uml-rel-5-arrow-double-open" viewBox="0 0 16 12" refX="15" refY="6" markerWidth="16" markerHeight="12" markerUnits="userSpaceOnUse" orient="auto-start-reverse"><path d="M0,1 L8,6 L0,11 M7,1 L15,6 L7,11" fill="none" stroke="#2563eb" stroke-width="1.5" stroke-linejoin="round"/></marker><marker id="uml-rel-5-arrow-circle-open" viewBox="0 0 12 12" refX="11" refY="6" markerWidth="12" markerHeight="12" markerUnits="userSpaceOnUse" orient="auto-start-reverse"><circle cx="6" cy="6" r="4" fill="#ffffff" stroke="#2563eb" stroke-width="1.5"/></marker><marker id="uml-rel-5-arrow-circle-filled" viewBox="0 0 12 12" refX="11" refY="6" markerWidth="12" markerHeight="12" markerUnits="userSpaceOnUse" orient="auto-start-reverse"><circle cx="6" cy="6" r="4" fill="#2563eb" stroke="#2563eb" stroke-width="1.5"/></marker><marker id="uml-rel-5-arrow-triangle-filled" viewBox="0 0 12 12" refX="11" refY="6" markerWidth="12" markerHeight="12" markerUnits="userSpaceOnUse" orient="auto-start-reverse"><polygon points="0,0 12,6 0,12" fill="#2563eb" stroke="#2563eb" stroke-width="1.5"/></marker><marker id="uml-rel-5-arrow-box-filled" viewBox="0 0 12 12" refX="11" refY="6" markerWidth="12" markerHeight="12" markerUnits="userSpaceOnUse" orient="auto-start-reverse"><rect x="2" y="2" width="8" height="8" fill="#2563eb" stroke="#2563eb" stroke-width="1.5"/></marker><marker id="uml-rel-5-arrow-plus" viewBox="0 0 12 12" refX="11" refY="6" markerWidth="12" markerHeight="12" markerUnits="userSpaceOnUse" orient="auto-start-reverse"><path d="M6,1 L6,11 M1,6 L11,6" fill="none" stroke="#2563eb" stroke-width="1.8" stroke-linecap="round"/></marker><marker id="uml-rel-5-arrow-slash" viewBox="0 0 12 12" refX="10" refY="6" markerWidth="12" markerHeight="12" markerUnits="userSpaceOnUse" orient="auto-start-reverse"><path d="M3,2 L9,10" fill="none" stroke="#2563eb" stroke-width="1.8" stroke-linecap="round"/></marker><marker id="uml-rel-5-arrow-cross" viewBox="0 0 12 12" refX="11" refY="6" markerWidth="12" markerHeight="12" markerUnits="userSpaceOnUse" orient="auto-start-reverse"><path d="M2,2 L10,10 M10,2 L2,10" fill="none" stroke="#2563eb" stroke-width="1.8" stroke-linecap="round"/></marker><marker id="uml-rel-5-arrow-bracket-open" viewBox="0 0 12 14" refX="11" refY="7" markerWidth="12" markerHeight="14" markerUnits="userSpaceOnUse" orient="auto-start-reverse"><path d="M10,1 L4,1 L4,13 L10,13" fill="none" stroke="#2563eb" stroke-width="1.8" stroke-linecap="round" stroke-linejoin="round"/></marker></defs><polyline class="uml-relation" data-uml-from="Edge" data-uml-to="Store" data-uml-arrow="--&gt;" points="1418,666 1418,814 1174,814 1174,1318" fill="none" stroke="#2563eb" stroke-width="3" stroke-dasharray="5 3" data-uml-relation-style="color:#2563eb dashed thickness:3" marker-end="url(#uml-rel-5-arrow-open)" /><polyline class="uml-relation" data-uml-from="Operator" data-uml-to="Deploy" data-uml-arrow="--&gt;" points="1906,178 1906,318 1174,318 1174,1562" fill="none" stroke="#1e293b" stroke-width="2" marker-end="url(#arrow-open)" /><polyline class="uml-relation" data-uml-from="AltUser" data-uml-to="ApiBoundary" data-uml-arrow="--&gt;" points="198,178 198,201 930,201 930,586" fill="none" stroke="#1e293b" stroke-width="2" marker-end="url(#arrow-open)" /><polyline class="uml-relation" data-uml-from="ApiBoundary" data-uml-to="Controller" data-uml-arrow="--&gt;" points="930,666 930,770 1052,770 1052,830" fill="none" stroke="#1e293b" stroke-width="2" marker-end="url(#arrow-open)" /><polyline class="uml-relation" data-uml-from="Controller" data-uml-to="Catalog" data-uml-arrow="--&gt;" points="1052,910 1052,1044 1052,1074" fill="none" stroke="#1e293b" stroke-width="2" marker-end="url(#arrow-open)" /><polyline class="uml-relation" data-uml-from="Catalog" data-uml-to="Runtime" data-uml-arrow="--&gt;" points="1052,1154 1052,1275 930,1275 930,1318" fill="none" stroke="#1e293b" stroke-width="2" marker-end="url(#arrow-open)" /><polyline class="uml-relation" data-uml-from="Runtime" data-uml-to="Deploy" data-uml-arrow="--&gt;" points="930,1398 930,1542 1174,1542 1174,1562" fill="none" stroke="#1e293b" stroke-width="2" marker-end="url(#arrow-open)" /><polyline class="uml-relation" data-uml-from="Worker" data-uml-to="Store" data-uml-arrow="--&gt;" points="1296,1154 1296,1290 1174,1290 1174,1318" fill="none" stroke="#1e293b" stroke-width="2" marker-end="url(#arrow-open)" /><text class="uml-edge-label" data-uml-label-role="edge" x="1052" y="267" text-anchor="middle" font-family="monospace" font-size="11" fill="#1e293b">buffers</text><rect class="uml-edge-label-bg" data-uml-label-role="edge-background" x="1194" y="1277" width="46" height="18" fill="white" opacity="0.85"/><text class="uml-edge-label" data-uml-label-role="edge" x="1217" y="1290" text-anchor="middle" font-family="monospace" font-size="11" fill="#1e293b">writes</text><text class="uml-edge-label" data-uml-label-role="edge" x="1540" y="306" text-anchor="middle" font-family="monospace" font-size="11" fill="#1e293b">approves</text><text class="uml-edge-label" data-uml-label-role="edge" x="1132" y="1290" text-anchor="middle" font-family="monospace" font-size="11" fill="#1e293b">updates</text></svg>