<svg xmlns="http://www.w3.org/2000/svg" width="2136" height="992" viewBox="0 0 2136 992"><rect width="100%" height="100%" fill="#f0f4f8"/><defs><marker id="arrow-open" viewBox="0 0 10 10" refX="9" refY="5" markerWidth="10" markerHeight="10" markerUnits="userSpaceOnUse" orient="auto-start-reverse"><path d="M0,0 L10,5 L0,10" fill="none" stroke="#1e293b" stroke-width="1.5"/></marker><marker id="arrow-triangle" viewBox="0 0 12 12" refX="11" refY="6" markerWidth="12" markerHeight="12" markerUnits="userSpaceOnUse" orient="auto-start-reverse"><polygon points="0,0 12,6 0,12" fill="#ffffff" stroke="#1e293b" stroke-width="1.5" fill-rule="nonzero"/></marker><marker id="arrow-diamond-filled" viewBox="0 0 14 10" refX="13" refY="5" markerWidth="14" markerHeight="10" markerUnits="userSpaceOnUse" orient="auto-start-reverse"><path d="M0,5 L7,0 L14,5 L7,10 z" fill="#1e293b" stroke="#1e293b" stroke-width="1"/></marker><marker id="arrow-diamond-open" viewBox="0 0 14 10" refX="13" refY="5" markerWidth="14" markerHeight="10" markerUnits="userSpaceOnUse" orient="auto-start-reverse"><path d="M0,5 L7,0 L14,5 L7,10 z" fill="#ffffff" stroke="#1e293b" stroke-width="1"/></marker><marker id="arrow-double-open" viewBox="0 0 16 12" refX="15" refY="6" markerWidth="16" markerHeight="12" markerUnits="userSpaceOnUse" orient="auto-start-reverse"><path d="M0,1 L8,6 L0,11 M7,1 L15,6 L7,11" fill="none" stroke="#1e293b" stroke-width="1.5" stroke-linejoin="round"/></marker><marker id="arrow-circle-open" viewBox="0 0 12 12" refX="11" refY="6" markerWidth="12" markerHeight="12" markerUnits="userSpaceOnUse" orient="auto-start-reverse"><circle cx="6" cy="6" r="4" fill="#ffffff" stroke="#1e293b" stroke-width="1.5"/></marker><marker id="arrow-circle-filled" viewBox="0 0 12 12" refX="11" refY="6" markerWidth="12" markerHeight="12" markerUnits="userSpaceOnUse" orient="auto-start-reverse"><circle cx="6" cy="6" r="4" fill="#1e293b" stroke="#1e293b" stroke-width="1.5"/></marker><marker id="arrow-triangle-filled" viewBox="0 0 12 12" refX="11" refY="6" markerWidth="12" markerHeight="12" markerUnits="userSpaceOnUse" orient="auto-start-reverse"><polygon points="0,0 12,6 0,12" fill="#1e293b" stroke="#1e293b" stroke-width="1.5"/></marker><marker id="arrow-box-filled" viewBox="0 0 12 12" refX="11" refY="6" markerWidth="12" markerHeight="12" markerUnits="userSpaceOnUse" orient="auto-start-reverse"><rect x="2" y="2" width="8" height="8" fill="#1e293b" stroke="#1e293b" stroke-width="1.5"/></marker><marker id="arrow-plus" viewBox="0 0 12 12" refX="11" refY="6" markerWidth="12" markerHeight="12" markerUnits="userSpaceOnUse" orient="auto-start-reverse"><path d="M6,1 L6,11 M1,6 L11,6" fill="none" stroke="#1e293b" stroke-width="1.8" stroke-linecap="round"/></marker><marker id="arrow-slash" viewBox="0 0 12 12" refX="10" refY="6" markerWidth="12" markerHeight="12" markerUnits="userSpaceOnUse" orient="auto-start-reverse"><path d="M3,2 L9,10" fill="none" stroke="#1e293b" stroke-width="1.8" stroke-linecap="round"/></marker><marker id="arrow-cross" viewBox="0 0 12 12" refX="11" refY="6" markerWidth="12" markerHeight="12" markerUnits="userSpaceOnUse" orient="auto-start-reverse"><path d="M2,2 L10,10 M10,2 L2,10" fill="none" stroke="#1e293b" stroke-width="1.8" stroke-linecap="round"/></marker><marker id="arrow-bracket-open" viewBox="0 0 12 14" refX="11" refY="7" markerWidth="12" markerHeight="14" markerUnits="userSpaceOnUse" orient="auto-start-reverse"><path d="M10,1 L4,1 L4,13 L10,13" fill="none" stroke="#1e293b" stroke-width="1.8" stroke-linecap="round" stroke-linejoin="round"/></marker></defs><marker id="arrow-ie-one" viewBox="0 0 24 16" refX="22" refY="8" markerWidth="24" markerHeight="16" markerUnits="userSpaceOnUse" orient="auto-start-reverse"><path d="M16,2 L16,14" fill="none" stroke="#1e293b" stroke-width="1.8" stroke-linecap="round"/></marker><marker id="arrow-ie-zero-one" viewBox="0 0 30 16" refX="28" refY="8" markerWidth="30" markerHeight="16" markerUnits="userSpaceOnUse" orient="auto-start-reverse"><circle cx="10" cy="8" r="4" fill="#ffffff" stroke="#1e293b" stroke-width="1.5"/><path d="M20,2 L20,14" fill="none" stroke="#1e293b" stroke-width="1.8" stroke-linecap="round"/></marker><marker id="arrow-ie-zero-many" viewBox="0 0 34 18" refX="32" refY="9" markerWidth="34" markerHeight="18" markerUnits="userSpaceOnUse" orient="auto-start-reverse"><circle cx="8" cy="9" r="4" fill="#ffffff" stroke="#1e293b" stroke-width="1.5"/><path d="M18,9 L31,2 M18,9 L31,9 M18,9 L31,16" fill="none" stroke="#1e293b" stroke-width="1.7" stroke-linecap="round"/></marker><marker id="arrow-ie-one-many" viewBox="0 0 34 18" refX="32" refY="9" markerWidth="34" markerHeight="18" markerUnits="userSpaceOnUse" orient="auto-start-reverse"><path d="M8,2 L8,16 M18,9 L31,2 M18,9 L31,9 M18,9 L31,16" fill="none" stroke="#1e293b" stroke-width="1.7" stroke-linecap="round"/></marker><text x="8" y="8" font-family="monospace" font-size="18" font-weight="600">Chapter 8 Deployment Keyword Parity</text><rect class="uml-group-frame" data-uml-group="K8s Cluster" x="270" y="46" width="1084" height="700" rx="8" ry="8" fill="#f8faff" stroke="#1e293b" stroke-width="1.5"/><rect x="270" y="46" width="1084" height="40" rx="8" ry="8" fill="#1e293b" stroke="none"/><rect x="270" y="78" width="1084" height="8" fill="#1e293b" stroke="none"/><text x="278" y="78" font-family="monospace" font-size="11" font-weight="600" fill="#ffffff">K8s Cluster</text><line x1="270" y1="86" x2="1354" y2="86" stroke="#1e293b" stroke-width="1"/><desc data-uml-id="K8s Cluster::q">K8s Cluster::q</desc><rect class="uml-node uml-deployment-shape" data-uml-kind="queue" x="294" y="98" width="116" height="44" fill="#f0f8ff" stroke="none"/><path class="uml-node uml-deployment-shape" data-uml-kind="queue" d="M294 98 A12 22 0 0 0 294 142" fill="none" stroke="#0000ff" stroke-width="1.5"/><ellipse cx="410" cy="120" rx="12" ry="22" fill="#f0f8ff" stroke="#0000ff" stroke-width="1.5"/><line x1="294" y1="98" x2="410" y2="98" stroke="#0000ff" stroke-width="1.5"/><line x1="294" y1="142" x2="410" y2="142" stroke="#0000ff" stroke-width="1.5"/><text x="352" y="126" text-anchor="middle" font-family="monospace" font-size="13" font-weight="600" fill="#000080">Ingress Queue</text><text x="352" y="112" text-anchor="middle" font-family="monospace" font-size="10" fill="#64748b">&lt;&lt;durable&gt;&gt;</text><desc data-uml-id="K8s Cluster::Jobs">K8s Cluster::Jobs</desc><rect class="uml-node uml-deployment-shape" data-uml-kind="stack" x="1028" y="256" width="130" height="34" rx="4" ry="4" fill="#f0f4f8" stroke="#1e293b" stroke-width="1.5"/><rect class="uml-node uml-deployment-shape" data-uml-kind="stack" x="1023" y="251" width="130" height="34" rx="4" ry="4" fill="#f0f4f8" stroke="#1e293b" stroke-width="1.5"/><rect class="uml-node uml-deployment-shape" data-uml-kind="stack" x="1018" y="246" width="130" height="34" rx="4" ry="4" fill="#f0f4f8" stroke="#1e293b" stroke-width="1.5"/><text x="1088" y="274" text-anchor="middle" font-family="monospace" font-size="13" font-weight="600" fill="#0f172a">Jobs</text><desc data-uml-id="K8s Cluster::Router">K8s Cluster::Router</desc><polygon class="uml-node uml-deployment-shape" data-uml-kind="hexagon" points="1128,394 1232,394 1250,416 1232,438 1128,438 1110,416" fill="#f0f4f8" stroke="#1e293b" stroke-width="1.5"/><text x="1180" y="422" text-anchor="middle" font-family="monospace" font-size="13" font-weight="600" fill="#0f172a">Router</text><desc data-uml-id="K8s Cluster::Worker">K8s Cluster::Worker</desc><rect class="uml-node uml-deployment-shape" data-uml-kind="process" x="1110" y="542" width="140" height="44" rx="6" ry="6" fill="#f0f4f8" stroke="#1e293b" stroke-width="1.5"/><text x="1180" y="570" text-anchor="middle" font-family="monospace" font-size="13" font-weight="600" fill="#0f172a">Worker</text><desc data-uml-id="K8s Cluster::app">K8s Cluster::app</desc><path class="uml-node uml-deployment-shape" data-uml-kind="artifact" d="M1202,690 H1324 L1342 708 V734 H1202 Z" fill="#f0f4f8" stroke="#1e293b" stroke-width="1.5"/><text x="1272" y="702" text-anchor="middle" font-family="monospace" font-size="13" font-weight="600" fill="#0f172a"><tspan x="1272" y="702">boot.jar</tspan><tspan x="1272" y="718">----</tspan><tspan x="1272" y="734">signed</tspan></text><desc data-uml-id="StandaloneNode">StandaloneNode</desc><polygon points="1938,98 1950,86 2090,86 2078,98" fill="#d4dff7" stroke="#1e293b" stroke-width="1"/><polygon points="2078,98 2090,86 2090,130 2078,142" fill="#b8c8ef" stroke="#1e293b" stroke-width="1"/><rect class="uml-node uml-deployment-shape" data-uml-kind="node" x="1938" y="98" width="140" height="44" fill="#f0f4f8" stroke="#1e293b" stroke-width="1.5"/><text x="2008" y="126" text-anchor="middle" font-family="monospace" font-size="13" font-weight="600" fill="#0f172a">StandaloneNode</text><desc data-uml-id="Edge">Edge</desc><path class="uml-node uml-deployment-shape" data-uml-kind="cloud" d="M1226 302 C1206 300, 1206 274, 1232 274 C1238 254, 1278 254, 1290 272 L1320 272 C1340 274, 1338 302, 1314 302 Z" fill="#f0f4f8" stroke="#1e293b" stroke-width="1.5"/><text x="1272" y="274" text-anchor="middle" font-family="monospace" font-size="13" font-weight="600" fill="#0f172a">Edge</text><desc data-uml-id="Store">Store</desc><path class="uml-node uml-deployment-shape" data-uml-kind="database" d="M1018,700 C1018,690 1158,690 1158,700 L1158,724 C1158,734 1018,734 1018,724 Z" fill="#f0f4f8" stroke="#1e293b" stroke-width="1.5"/><ellipse cx="1088" cy="700" rx="70" ry="10" fill="#f0f4f8" stroke="#1e293b" stroke-width="1.5"/><text x="1088" y="718" text-anchor="middle" font-family="monospace" font-size="13" font-weight="600" fill="#0f172a">Store</text><desc data-uml-id="AgentA">AgentA</desc><rect class="uml-node uml-deployment-shape" data-uml-kind="agent" x="466" y="98" width="140" height="44" rx="6" ry="6" fill="#f0f4f8" stroke="#1e293b" stroke-width="1.5"/><text x="536" y="126" text-anchor="middle" font-family="monospace" font-size="13" font-weight="600" fill="#0f172a">AgentA</text><desc data-uml-id="ApiBoundary">ApiBoundary</desc><ellipse class="uml-node uml-deployment-shape" data-uml-kind="boundary" cx="904" cy="264" rx="58" ry="10" fill="#f0f4f8" stroke="#1e293b" stroke-width="1.5"/><line x1="846" y1="276" x2="962" y2="276" stroke="#1e293b" stroke-width="1.5"/><text x="904" y="274" text-anchor="middle" font-family="monospace" font-size="13" font-weight="600" fill="#0f172a">ApiBoundary</text><desc data-uml-id="Controller">Controller</desc><ellipse class="uml-node uml-deployment-shape" data-uml-kind="control" cx="996" cy="412" rx="58" ry="10" fill="#f0f4f8" stroke="#1e293b" stroke-width="1.5"/><path d="M1002 402 L1020 394 L1014 412" fill="none" stroke="#1e293b" stroke-width="1.5"/><text x="996" y="422" text-anchor="middle" font-family="monospace" font-size="13" font-weight="600" fill="#0f172a">Controller</text><desc data-uml-id="Catalog">Catalog</desc><ellipse class="uml-node uml-deployment-shape" data-uml-kind="entity" cx="996" cy="560" rx="58" ry="10" fill="#f0f4f8" stroke="#1e293b" stroke-width="1.5"/><line x1="948" y1="568" x2="1044" y2="568" stroke="#1e293b" stroke-width="1.5"/><text x="996" y="570" text-anchor="middle" font-family="monospace" font-size="13" font-weight="600" fill="#0f172a">Catalog</text><desc data-uml-id="Bag">Bag</desc><rect class="uml-node uml-deployment-shape" data-uml-kind="collections" x="660" y="108" width="130" height="34" rx="4" ry="4" fill="#f0f4f8" stroke="#1e293b" stroke-width="1.5"/><rect class="uml-node uml-deployment-shape" data-uml-kind="collections" x="655" y="103" width="130" height="34" rx="4" ry="4" fill="#f0f4f8" stroke="#1e293b" stroke-width="1.5"/><rect class="uml-node uml-deployment-shape" data-uml-kind="collections" x="650" y="98" width="130" height="34" rx="4" ry="4" fill="#f0f4f8" stroke="#1e293b" stroke-width="1.5"/><text x="720" y="126" text-anchor="middle" font-family="monospace" font-size="13" font-weight="600" fill="#0f172a">Bag</text><desc data-uml-id="Signal">Signal</desc><ellipse class="uml-node uml-deployment-shape" data-uml-kind="circle" cx="1824" cy="120" rx="70" ry="22" fill="#f0f4f8" stroke="#1e293b" stroke-width="1.5"/><text x="1824" y="126" text-anchor="middle" font-family="monospace" font-size="13" font-weight="600" fill="#0f172a">Signal</text><desc data-uml-id="Operator">Operator</desc><rect class="uml-node uml-deployment-shape" data-uml-kind="person" x="1386" y="98" width="140" height="44" rx="6" ry="6" fill="#f0f4f8" stroke="#1e293b" stroke-width="1.5" fill-opacity="0.16"/><circle cx="1456" cy="114" r="9" fill="#f0f4f8" stroke="#1e293b" stroke-width="1.5"/><line x1="1456" y1="123" x2="1456" y2="118" stroke="#1e293b" stroke-width="1.8"/><line x1="1440" y1="134" x2="1472" y2="134" stroke="#1e293b" stroke-width="1.8"/><line x1="1456" y1="118" x2="1444" y2="134" stroke="#1e293b" stroke-width="1.8"/><line x1="1456" y1="118" x2="1468" y2="134" stroke="#1e293b" stroke-width="1.8"/><text x="1456" y="126" text-anchor="middle" font-family="monospace" font-size="13" font-weight="600" fill="#0f172a">Operator</text><desc data-uml-id="AltUser">AltUser</desc><rect class="uml-node uml-deployment-shape" data-uml-kind="actor" x="98" y="98" width="140" height="44" rx="6" ry="6" fill="#f0f4f8" stroke="#1e293b" stroke-width="1.5" fill-opacity="0.16"/><circle cx="168" cy="114" r="9" fill="#f0f4f8" stroke="#1e293b" stroke-width="1.5"/><line x1="168" y1="123" x2="168" y2="118" stroke="#1e293b" stroke-width="1.8"/><line x1="152" y1="134" x2="184" y2="134" stroke="#1e293b" stroke-width="1.8"/><line x1="168" y1="118" x2="156" y2="134" stroke="#1e293b" stroke-width="1.8"/><line x1="168" y1="118" x2="180" y2="134" stroke="#1e293b" stroke-width="1.8"/><text x="168" y="126" text-anchor="middle" font-family="monospace" font-size="13" font-weight="600" fill="#0f172a">AltUser</text><text x="168" y="112" text-anchor="middle" font-family="monospace" font-size="10" fill="#64748b">&lt;&lt;actor/&gt;&gt;</text><desc data-uml-id="Colon Actor">Colon Actor</desc><rect class="uml-node uml-deployment-shape" data-uml-kind="actor" x="834" y="98" width="140" height="44" rx="6" ry="6" fill="#f0f4f8" stroke="#1e293b" stroke-width="1.5" fill-opacity="0.16"/><circle cx="904" cy="114" r="9" fill="#f0f4f8" stroke="#1e293b" stroke-width="1.5"/><line x1="904" y1="123" x2="904" y2="118" stroke="#1e293b" stroke-width="1.8"/><line x1="888" y1="134" x2="920" y2="134" stroke="#1e293b" stroke-width="1.8"/><line x1="904" y1="118" x2="892" y2="134" stroke="#1e293b" stroke-width="1.8"/><line x1="904" y1="118" x2="916" y2="134" stroke="#1e293b" stroke-width="1.8"/><text x="904" y="126" text-anchor="middle" font-family="monospace" font-size="13" font-weight="600" fill="#0f172a">Colon Actor</text><desc data-uml-id="LegacyUC">LegacyUC</desc><ellipse class="uml-node uml-deployment-shape" data-uml-kind="usecase" cx="1088" cy="120" rx="70" ry="22" fill="#f0f4f8" stroke="#1e293b" stroke-width="1.5"/><text x="1088" y="126" text-anchor="middle" font-family="monospace" font-size="13" font-weight="600" fill="#0f172a">LegacyUC</text><text x="1088" y="112" text-anchor="middle" font-family="monospace" font-size="10" fill="#64748b">&lt;&lt;usecase/&gt;&gt;</text><desc data-uml-id="SearchUC">SearchUC</desc><ellipse class="uml-node uml-deployment-shape" data-uml-kind="usecase" cx="1640" cy="120" rx="70" ry="22" fill="#f0f4f8" stroke="#1e293b" stroke-width="1.5"/><text x="1640" y="126" text-anchor="middle" font-family="monospace" font-size="13" font-weight="600" fill="#0f172a">Search</text><desc data-uml-id="Runtime">Runtime</desc><rect class="uml-node uml-deployment-shape" data-uml-kind="container" x="834" y="690" width="140" height="44" rx="6" ry="6" fill="#f0f4f8" stroke="#1e293b" stroke-width="1.5"/><text x="904" y="718" text-anchor="middle" font-family="monospace" font-size="13" font-weight="600" fill="#0f172a">Runtime</text><desc data-uml-id="Marker">Marker</desc><rect class="uml-node uml-deployment-shape" data-uml-kind="label" x="1202" y="98" width="140" height="44" rx="6" ry="6" fill="#f0f4f8" stroke="#1e293b" stroke-width="1.5"/><text x="1272" y="126" text-anchor="middle" font-family="monospace" font-size="13" font-weight="600" fill="#0f172a">Marker</text><desc data-uml-id="Deploy">Deploy</desc><rect class="uml-node uml-deployment-shape" data-uml-kind="action" x="1018" y="838" width="140" height="44" rx="6" ry="6" fill="#f0f4f8" stroke="#1e293b" stroke-width="1.5"/><text x="1088" y="866" text-anchor="middle" font-family="monospace" font-size="13" font-weight="600" fill="#0f172a">Deploy</text><polyline class="uml-relation" data-uml-from="K8s Cluster::q" data-uml-to="K8s Cluster::Jobs" data-uml-arrow="--&gt;" points="352,142 352,182 1088,182 1088,246" fill="none" stroke="#1e293b" stroke-width="2" marker-end="url(#arrow-open)" /><polyline class="uml-relation" data-uml-from="K8s Cluster::Jobs" data-uml-to="K8s Cluster::Router" data-uml-arrow="--&gt;" points="1088,290 1088,369 1180,369 1180,394" fill="none" stroke="#1e293b" stroke-width="2" marker-end="url(#arrow-open)" /><polyline class="uml-relation" data-uml-from="K8s Cluster::Router" data-uml-to="K8s Cluster::Worker" data-uml-arrow="--&gt;" points="1180,438 1180,490 1180,542" fill="none" stroke="#1e293b" stroke-width="2" marker-end="url(#arrow-open)" /><polyline class="uml-relation" data-uml-from="K8s Cluster::Worker" data-uml-to="K8s Cluster::app" data-uml-arrow="--&gt;" points="1180,586 1180,681 1272,681 1272,690" fill="none" stroke="#1e293b" stroke-width="2" marker-end="url(#arrow-open)" /><polyline class="uml-relation" data-uml-from="AgentA" data-uml-to="Edge" data-uml-arrow="0)--(0" points="536,142 536,206 1272,206 1272,246" fill="none" stroke="#1e293b" stroke-width="2" marker-end="url(#arrow-circle-open)" marker-start="url(#arrow-circle-open)" /><defs><marker id="uml-rel-5-arrow-open" viewBox="0 0 10 10" refX="9" refY="5" markerWidth="10" markerHeight="10" markerUnits="userSpaceOnUse" orient="auto-start-reverse"><path d="M0,0 L10,5 L0,10" fill="none" stroke="#2563eb" stroke-width="1.5"/></marker><marker id="uml-rel-5-arrow-triangle" viewBox="0 0 12 12" refX="11" refY="6" markerWidth="12" markerHeight="12" markerUnits="userSpaceOnUse" orient="auto-start-reverse"><polygon points="0,0 12,6 0,12" fill="#ffffff" stroke="#2563eb" stroke-width="1.5" fill-rule="nonzero"/></marker><marker id="uml-rel-5-arrow-diamond-filled" viewBox="0 0 14 10" refX="13" refY="5" markerWidth="14" markerHeight="10" markerUnits="userSpaceOnUse" orient="auto-start-reverse"><path d="M0,5 L7,0 L14,5 L7,10 z" fill="#2563eb" stroke="#2563eb" stroke-width="1"/></marker><marker id="uml-rel-5-arrow-diamond-open" viewBox="0 0 14 10" refX="13" refY="5" markerWidth="14" markerHeight="10" markerUnits="userSpaceOnUse" orient="auto-start-reverse"><path d="M0,5 L7,0 L14,5 L7,10 z" fill="#ffffff" stroke="#2563eb" stroke-width="1"/></marker><marker id="uml-rel-5-arrow-double-open" viewBox="0 0 16 12" refX="15" refY="6" markerWidth="16" markerHeight="12" markerUnits="userSpaceOnUse" orient="auto-start-reverse"><path d="M0,1 L8,6 L0,11 M7,1 L15,6 L7,11" fill="none" stroke="#2563eb" stroke-width="1.5" stroke-linejoin="round"/></marker><marker id="uml-rel-5-arrow-circle-open" viewBox="0 0 12 12" refX="11" refY="6" markerWidth="12" markerHeight="12" markerUnits="userSpaceOnUse" orient="auto-start-reverse"><circle cx="6" cy="6" r="4" fill="#ffffff" stroke="#2563eb" stroke-width="1.5"/></marker><marker id="uml-rel-5-arrow-circle-filled" viewBox="0 0 12 12" refX="11" refY="6" markerWidth="12" markerHeight="12" markerUnits="userSpaceOnUse" orient="auto-start-reverse"><circle cx="6" cy="6" r="4" fill="#2563eb" stroke="#2563eb" stroke-width="1.5"/></marker><marker id="uml-rel-5-arrow-triangle-filled" viewBox="0 0 12 12" refX="11" refY="6" markerWidth="12" markerHeight="12" markerUnits="userSpaceOnUse" orient="auto-start-reverse"><polygon points="0,0 12,6 0,12" fill="#2563eb" stroke="#2563eb" stroke-width="1.5"/></marker><marker id="uml-rel-5-arrow-box-filled" viewBox="0 0 12 12" refX="11" refY="6" markerWidth="12" markerHeight="12" markerUnits="userSpaceOnUse" orient="auto-start-reverse"><rect x="2" y="2" width="8" height="8" fill="#2563eb" stroke="#2563eb" stroke-width="1.5"/></marker><marker id="uml-rel-5-arrow-plus" viewBox="0 0 12 12" refX="11" refY="6" markerWidth="12" markerHeight="12" markerUnits="userSpaceOnUse" orient="auto-start-reverse"><path d="M6,1 L6,11 M1,6 L11,6" fill="none" stroke="#2563eb" stroke-width="1.8" stroke-linecap="round"/></marker><marker id="uml-rel-5-arrow-slash" viewBox="0 0 12 12" refX="10" refY="6" markerWidth="12" markerHeight="12" markerUnits="userSpaceOnUse" orient="auto-start-reverse"><path d="M3,2 L9,10" fill="none" stroke="#2563eb" stroke-width="1.8" stroke-linecap="round"/></marker><marker id="uml-rel-5-arrow-cross" viewBox="0 0 12 12" refX="11" refY="6" markerWidth="12" markerHeight="12" markerUnits="userSpaceOnUse" orient="auto-start-reverse"><path d="M2,2 L10,10 M10,2 L2,10" fill="none" stroke="#2563eb" stroke-width="1.8" stroke-linecap="round"/></marker><marker id="uml-rel-5-arrow-bracket-open" viewBox="0 0 12 14" refX="11" refY="7" markerWidth="12" markerHeight="14" markerUnits="userSpaceOnUse" orient="auto-start-reverse"><path d="M10,1 L4,1 L4,13 L10,13" fill="none" stroke="#2563eb" stroke-width="1.8" stroke-linecap="round" stroke-linejoin="round"/></marker></defs><polyline class="uml-relation" data-uml-from="Edge" data-uml-to="Store" data-uml-arrow="--&gt;" points="1272,290 1272,383 1088,383 1088,690" fill="none" stroke="#2563eb" stroke-width="3" stroke-dasharray="5 3" data-uml-relation-style="color:#2563eb dashed thickness:3" marker-end="url(#uml-rel-5-arrow-open)" /><polyline class="uml-relation" data-uml-from="Operator" data-uml-to="Deploy" data-uml-arrow="--&gt;" points="1456,142 1456,230 1370,230 1370,805 1088,805 1088,838" fill="none" stroke="#1e293b" stroke-width="2" marker-end="url(#arrow-open)" /><polyline class="uml-relation" data-uml-from="AltUser" data-uml-to="ApiBoundary" data-uml-arrow="--&gt;" points="168,142 168,158 904,158 904,246" fill="none" stroke="#1e293b" stroke-width="2" marker-end="url(#arrow-open)" /><polyline class="uml-relation" data-uml-from="ApiBoundary" data-uml-to="Controller" data-uml-arrow="--&gt;" points="904,290 904,355 996,355 996,394" fill="none" stroke="#1e293b" stroke-width="2" marker-end="url(#arrow-open)" /><polyline class="uml-relation" data-uml-from="Controller" data-uml-to="Catalog" data-uml-arrow="--&gt;" points="996,438 996,490 996,542" fill="none" stroke="#1e293b" stroke-width="2" marker-end="url(#arrow-open)" /><polyline class="uml-relation" data-uml-from="Catalog" data-uml-to="Runtime" data-uml-arrow="--&gt;" points="996,586 996,662 904,662 904,690" fill="none" stroke="#1e293b" stroke-width="2" marker-end="url(#arrow-open)" /><polyline class="uml-relation" data-uml-from="Runtime" data-uml-to="Deploy" data-uml-arrow="--&gt;" points="904,734 904,824 1088,824 1088,838" fill="none" stroke="#1e293b" stroke-width="2" marker-end="url(#arrow-open)" /><polyline class="uml-relation" data-uml-from="Worker" data-uml-to="Store" data-uml-arrow="--&gt;" points="1180,586 1180,671 1098,671 1098,690" fill="none" stroke="#1e293b" stroke-width="2" marker-end="url(#arrow-open)" /><rect class="uml-edge-label-bg" data-uml-label-role="edge-background" x="878" y="181" width="52" height="18" fill="white" opacity="0.85"/><text class="uml-edge-label" data-uml-label-role="edge" x="904" y="194" text-anchor="middle" font-family="monospace" font-size="11" fill="#1e293b">buffers</text><text class="uml-edge-label" data-uml-label-role="edge" x="1046" y="662" text-anchor="middle" font-family="monospace" font-size="11" fill="#1e293b">writes</text><rect class="uml-edge-label-bg" data-uml-label-role="edge-background" x="1352" y="504" width="60" height="18" fill="white" opacity="0.85"/><text class="uml-edge-label" data-uml-label-role="edge" x="1382" y="517" text-anchor="middle" font-family="monospace" font-size="11" fill="#1e293b">approves</text><text class="uml-edge-label" data-uml-label-role="edge" x="1131" y="662" text-anchor="middle" font-family="monospace" font-size="11" fill="#1e293b">updates</text><text x="278" y="78" font-family="monospace" font-size="11" font-weight="600" fill="#ffffff">K8s Cluster</text></svg>