<svg xmlns="http://www.w3.org/2000/svg" width="5324" height="1844" viewBox="0 0 5324 1844"><rect width="100%" height="100%" fill="#f0f4f8"/><defs><marker id="arrow-open" viewBox="0 0 10 10" refX="9" refY="5" markerWidth="10" markerHeight="10" markerUnits="userSpaceOnUse" orient="auto-start-reverse"><path d="M0,0 L10,5 L0,10" fill="none" stroke="#1e293b" stroke-width="1.5"/></marker><marker id="arrow-triangle" viewBox="0 0 12 12" refX="11" refY="6" markerWidth="12" markerHeight="12" markerUnits="userSpaceOnUse" orient="auto-start-reverse"><polygon points="0,0 12,6 0,12" fill="#ffffff" stroke="#1e293b" stroke-width="1.5" fill-rule="nonzero"/></marker><marker id="arrow-diamond-filled" viewBox="0 0 14 10" refX="13" refY="5" markerWidth="14" markerHeight="10" markerUnits="userSpaceOnUse" orient="auto-start-reverse"><path d="M0,5 L7,0 L14,5 L7,10 z" fill="#1e293b" stroke="#1e293b" stroke-width="1"/></marker><marker id="arrow-diamond-open" viewBox="0 0 14 10" refX="13" refY="5" markerWidth="14" markerHeight="10" markerUnits="userSpaceOnUse" orient="auto-start-reverse"><path d="M0,5 L7,0 L14,5 L7,10 z" fill="#ffffff" stroke="#1e293b" stroke-width="1"/></marker></defs><text x="40" y="40" font-family="monospace" font-size="18" font-weight="600">Chapter 8 Deployment Keyword Parity</text><rect class="uml-group-frame" data-uml-group="K8s Cluster&quot; as k8s" x="694" y="78" width="4568" height="168" rx="8" ry="8" fill="#f8faff" stroke="#1e293b" stroke-width="1.5"/><rect x="694" y="78" width="4568" height="40" rx="8" ry="8" fill="#1e293b" stroke="none"/><rect x="694" y="110" width="4568" height="8" fill="#1e293b" stroke="none"/><text x="702" y="110" font-family="monospace" font-size="11" font-weight="600" fill="#ffffff">node K8s Cluster&quot; as k8s</text><line x1="694" y1="118" x2="5262" y2="118" stroke="#1e293b" stroke-width="1"/><desc data-uml-id="K8s Cluster&quot; as k8s::q">K8s Cluster&quot; as k8s::q</desc><rect class="uml-node uml-deployment-shape" data-uml-kind="queue" x="4762" y="142" width="176" height="80" fill="#f0f8ff" stroke="none"/><path class="uml-node uml-deployment-shape" data-uml-kind="queue" d="M4762 142 A12 40 0 0 0 4762 222" fill="none" stroke="#1e293b" stroke-width="1.5"/><ellipse cx="4938" cy="182" rx="12" ry="40" fill="#f0f8ff" stroke="#1e293b" stroke-width="1.5"/><line x1="4762" y1="142" x2="4938" y2="142" stroke="#1e293b" stroke-width="1.5"/><line x1="4762" y1="222" x2="4938" y2="222" stroke="#1e293b" stroke-width="1.5"/><text x="4850" y="188" text-anchor="middle" font-family="monospace" font-size="13" font-weight="600" fill="#0f172a">Ingress Queue</text><text x="4850" y="156" text-anchor="middle" font-family="monospace" font-size="10" fill="#0f172a">queue</text><text x="4850" y="169" text-anchor="middle" font-family="monospace" font-size="10" fill="#64748b">&lt;&lt;durable&gt;&gt;</text><desc data-uml-id="K8s Cluster&quot; as k8s::Jobs">K8s Cluster&quot; as k8s::Jobs</desc><rect class="uml-node uml-deployment-shape" data-uml-kind="stack" x="1592" y="152" width="190" height="70" rx="4" ry="4" fill="#f0f4f8" stroke="#1e293b" stroke-width="1.5"/><rect class="uml-node uml-deployment-shape" data-uml-kind="stack" x="1587" y="147" width="190" height="70" rx="4" ry="4" fill="#f0f4f8" stroke="#1e293b" stroke-width="1.5"/><rect class="uml-node uml-deployment-shape" data-uml-kind="stack" x="1582" y="142" width="190" height="70" rx="4" ry="4" fill="#f0f4f8" stroke="#1e293b" stroke-width="1.5"/><text x="1682" y="188" text-anchor="middle" font-family="monospace" font-size="13" font-weight="600" fill="#0f172a">Jobs</text><text x="1682" y="156" text-anchor="middle" font-family="monospace" font-size="10" fill="#0f172a">stack</text><desc data-uml-id="K8s Cluster&quot; as k8s::Router">K8s Cluster&quot; as k8s::Router</desc><polygon class="uml-node uml-deployment-shape" data-uml-kind="hexagon" points="2752,142 2916,142 2934,182 2916,222 2752,222 2734,182" fill="#f0f4f8" stroke="#1e293b" stroke-width="1.5"/><text x="2834" y="188" text-anchor="middle" font-family="monospace" font-size="13" font-weight="600" fill="#0f172a">Router</text><text x="2834" y="156" text-anchor="middle" font-family="monospace" font-size="10" fill="#0f172a">hexagon</text><desc data-uml-id="K8s Cluster&quot; as k8s::Worker">K8s Cluster&quot; as k8s::Worker</desc><rect class="uml-node uml-deployment-shape" data-uml-kind="process" x="3598" y="142" width="200" height="80" rx="6" ry="6" fill="#f0f4f8" stroke="#1e293b" stroke-width="1.5"/><text x="3698" y="188" text-anchor="middle" font-family="monospace" font-size="13" font-weight="600" fill="#0f172a">Worker</text><text x="3698" y="156" text-anchor="middle" font-family="monospace" font-size="10" fill="#0f172a">process</text><desc data-uml-id="K8s Cluster&quot; as k8s::app [">K8s Cluster&quot; as k8s::app [</desc><path class="uml-node uml-deployment-shape" data-uml-kind="artifact" d="M4174,142 H4356 L4374 160 V222 H4174 Z" fill="#f0f4f8" stroke="#1e293b" stroke-width="1.5"/><text x="4274" y="188" text-anchor="middle" font-family="monospace" font-size="13" font-weight="600" fill="#0f172a">app [</text><text x="4274" y="156" text-anchor="middle" font-family="monospace" font-size="10" fill="#0f172a">artifact</text><desc data-uml-id="K8s Cluster&quot; as k8s::boot.jar">K8s Cluster&quot; as k8s::boot.jar</desc><polygon points="4462,142 4474,130 4674,130 4662,142" fill="#d4dff7" stroke="#1e293b" stroke-width="1"/><polygon points="4662,142 4674,130 4674,210 4662,222" fill="#b8c8ef" stroke="#1e293b" stroke-width="1"/><rect class="uml-node uml-deployment-shape" data-uml-kind="node" x="4462" y="142" width="200" height="80" fill="#f0f4f8" stroke="#1e293b" stroke-width="1.5"/><text x="4562" y="188" text-anchor="middle" font-family="monospace" font-size="13" font-weight="600" fill="#0f172a">K8s Cluster&quot; as k8s::boot.jar</text><text x="4562" y="156" text-anchor="middle" font-family="monospace" font-size="10" fill="#0f172a">node</text><desc data-uml-id="K8s Cluster&quot; as k8s::--">K8s Cluster&quot; as k8s::--</desc><polygon points="718,142 730,130 930,130 918,142" fill="#d4dff7" stroke="#1e293b" stroke-width="1"/><polygon points="918,142 930,130 930,210 918,222" fill="#b8c8ef" stroke="#1e293b" stroke-width="1"/><rect class="uml-node uml-deployment-shape" data-uml-kind="node" x="718" y="142" width="200" height="80" fill="#f0f4f8" stroke="#1e293b" stroke-width="1.5"/><text x="818" y="188" text-anchor="middle" font-family="monospace" font-size="13" font-weight="600" fill="#0f172a">K8s Cluster&quot; as k8s::--</text><text x="818" y="156" text-anchor="middle" font-family="monospace" font-size="10" fill="#0f172a">node</text><desc data-uml-id="K8s Cluster&quot; as k8s::signed">K8s Cluster&quot; as k8s::signed</desc><polygon points="5038,142 5050,130 5250,130 5238,142" fill="#d4dff7" stroke="#1e293b" stroke-width="1"/><polygon points="5238,142 5250,130 5250,210 5238,222" fill="#b8c8ef" stroke="#1e293b" stroke-width="1"/><rect class="uml-node uml-deployment-shape" data-uml-kind="node" x="5038" y="142" width="200" height="80" fill="#f0f4f8" stroke="#1e293b" stroke-width="1.5"/><text x="5138" y="188" text-anchor="middle" font-family="monospace" font-size="13" font-weight="600" fill="#0f172a">K8s Cluster&quot; as k8s::signed</text><text x="5138" y="156" text-anchor="middle" font-family="monospace" font-size="10" fill="#0f172a">node</text><desc data-uml-id="K8s Cluster&quot; as k8s::]">K8s Cluster&quot; as k8s::]</desc><polygon points="3886,142 3898,130 4098,130 4086,142" fill="#d4dff7" stroke="#1e293b" stroke-width="1"/><polygon points="4086,142 4098,130 4098,210 4086,222" fill="#b8c8ef" stroke="#1e293b" stroke-width="1"/><rect class="uml-node uml-deployment-shape" data-uml-kind="node" x="3886" y="142" width="200" height="80" fill="#f0f4f8" stroke="#1e293b" stroke-width="1.5"/><text x="3986" y="188" text-anchor="middle" font-family="monospace" font-size="13" font-weight="600" fill="#0f172a">K8s Cluster&quot; as k8s::]</text><text x="3986" y="156" text-anchor="middle" font-family="monospace" font-size="10" fill="#0f172a">node</text><desc data-uml-id="Edge">Edge</desc><path class="uml-node uml-deployment-shape" data-uml-kind="cloud" d="M2758 486 C2738 484, 2738 458, 2764 458 C2770 438, 2810 438, 2822 456 L2912 456 C2932 458, 2930 486, 2906 486 Z" fill="#f0f4f8" stroke="#1e293b" stroke-width="1.5"/><text x="2834" y="476" text-anchor="middle" font-family="monospace" font-size="13" font-weight="600" fill="#0f172a">Edge</text><text x="2834" y="444" text-anchor="middle" font-family="monospace" font-size="10" fill="#0f172a">cloud</text><desc data-uml-id="Store">Store</desc><path class="uml-node uml-deployment-shape" data-uml-kind="database" d="M2734,728 C2734,718 2934,718 2934,728 L2934,788 C2934,798 2734,798 2734,788 Z" fill="#f0f4f8" stroke="#1e293b" stroke-width="1.5"/><ellipse cx="2834" cy="728" rx="100" ry="10" fill="#f0f4f8" stroke="#1e293b" stroke-width="1.5"/><text x="2834" y="764" text-anchor="middle" font-family="monospace" font-size="13" font-weight="600" fill="#0f172a">Store</text><text x="2834" y="732" text-anchor="middle" font-family="monospace" font-size="10" fill="#0f172a">database</text><desc data-uml-id="AgentA">AgentA</desc><rect class="uml-node uml-deployment-shape" data-uml-kind="agent" x="430" y="142" width="200" height="80" rx="6" ry="6" fill="#f0f4f8" stroke="#1e293b" stroke-width="1.5"/><text x="530" y="188" text-anchor="middle" font-family="monospace" font-size="13" font-weight="600" fill="#0f172a">AgentA</text><text x="530" y="156" text-anchor="middle" font-family="monospace" font-size="10" fill="#0f172a">agent</text><desc data-uml-id="ApiBoundary">ApiBoundary</desc><ellipse class="uml-node uml-deployment-shape" data-uml-kind="boundary" cx="2546" cy="466" rx="88" ry="28" fill="#f0f4f8" stroke="#1e293b" stroke-width="1.5"/><line x1="2458" y1="496" x2="2634" y2="496" stroke="#1e293b" stroke-width="1.5"/><text x="2546" y="476" text-anchor="middle" font-family="monospace" font-size="13" font-weight="600" fill="#0f172a">ApiBoundary</text><text x="2546" y="444" text-anchor="middle" font-family="monospace" font-size="10" fill="#0f172a">boundary</text><desc data-uml-id="Controller">Controller</desc><ellipse class="uml-node uml-deployment-shape" data-uml-kind="control" cx="2546" cy="754" rx="88" ry="28" fill="#f0f4f8" stroke="#1e293b" stroke-width="1.5"/><path d="M2552 744 L2570 736 L2564 754" fill="none" stroke="#1e293b" stroke-width="1.5"/><text x="2546" y="764" text-anchor="middle" font-family="monospace" font-size="13" font-weight="600" fill="#0f172a">Controller</text><text x="2546" y="732" text-anchor="middle" font-family="monospace" font-size="10" fill="#0f172a">control</text><desc data-uml-id="Catalog">Catalog</desc><ellipse class="uml-node uml-deployment-shape" data-uml-kind="entity" cx="2690" cy="1042" rx="88" ry="28" fill="#f0f4f8" stroke="#1e293b" stroke-width="1.5"/><line x1="2612" y1="1068" x2="2768" y2="1068" stroke="#1e293b" stroke-width="1.5"/><text x="2690" y="1052" text-anchor="middle" font-family="monospace" font-size="13" font-weight="600" fill="#0f172a">Catalog</text><text x="2690" y="1020" text-anchor="middle" font-family="monospace" font-size="10" fill="#0f172a">entity</text><desc data-uml-id="Bag">Bag</desc><rect class="uml-node uml-deployment-shape" data-uml-kind="collections" x="1016" y="152" width="190" height="70" rx="4" ry="4" fill="#f0f4f8" stroke="#1e293b" stroke-width="1.5"/><rect class="uml-node uml-deployment-shape" data-uml-kind="collections" x="1011" y="147" width="190" height="70" rx="4" ry="4" fill="#f0f4f8" stroke="#1e293b" stroke-width="1.5"/><rect class="uml-node uml-deployment-shape" data-uml-kind="collections" x="1006" y="142" width="190" height="70" rx="4" ry="4" fill="#f0f4f8" stroke="#1e293b" stroke-width="1.5"/><text x="1106" y="188" text-anchor="middle" font-family="monospace" font-size="13" font-weight="600" fill="#0f172a">Bag</text><text x="1106" y="156" text-anchor="middle" font-family="monospace" font-size="10" fill="#0f172a">collections</text><desc data-uml-id="Signal">Signal</desc><ellipse class="uml-node uml-deployment-shape" data-uml-kind="circle" cx="3410" cy="182" rx="100" ry="40" fill="#f0f4f8" stroke="#1e293b" stroke-width="1.5"/><text x="3410" y="188" text-anchor="middle" font-family="monospace" font-size="13" font-weight="600" fill="#0f172a">Signal</text><text x="3410" y="156" text-anchor="middle" font-family="monospace" font-size="10" fill="#0f172a">circle</text><desc data-uml-id="Operator">Operator</desc><rect class="uml-node uml-deployment-shape" data-uml-kind="person" x="2446" y="142" width="200" height="80" rx="6" ry="6" fill="#f0f4f8" stroke="#1e293b" stroke-width="1.5" fill-opacity="0.16"/><circle cx="2546" cy="158" r="9" fill="#f0f4f8" stroke="#1e293b" stroke-width="1.5"/><line x1="2546" y1="167" x2="2546" y2="198" stroke="#1e293b" stroke-width="1.8"/><line x1="2530" y1="178" x2="2562" y2="178" stroke="#1e293b" stroke-width="1.8"/><line x1="2546" y1="198" x2="2534" y2="214" stroke="#1e293b" stroke-width="1.8"/><line x1="2546" y1="198" x2="2558" y2="214" stroke="#1e293b" stroke-width="1.8"/><text x="2546" y="188" text-anchor="middle" font-family="monospace" font-size="13" font-weight="600" fill="#0f172a">Operator</text><text x="2546" y="156" text-anchor="middle" font-family="monospace" font-size="10" fill="#0f172a">person</text><desc data-uml-id="AltUser">AltUser</desc><rect class="uml-node uml-deployment-shape" data-uml-kind="actor" x="142" y="142" width="200" height="80" rx="6" ry="6" fill="#f0f4f8" stroke="#1e293b" stroke-width="1.5" fill-opacity="0.16"/><circle cx="242" cy="158" r="9" fill="#f0f4f8" stroke="#1e293b" stroke-width="1.5"/><line x1="242" y1="167" x2="242" y2="198" stroke="#1e293b" stroke-width="1.8"/><line x1="226" y1="178" x2="258" y2="178" stroke="#1e293b" stroke-width="1.8"/><line x1="242" y1="198" x2="230" y2="214" stroke="#1e293b" stroke-width="1.8"/><line x1="242" y1="198" x2="254" y2="214" stroke="#1e293b" stroke-width="1.8"/><text x="242" y="188" text-anchor="middle" font-family="monospace" font-size="13" font-weight="600" fill="#0f172a">AltUser</text><text x="242" y="156" text-anchor="middle" font-family="monospace" font-size="10" fill="#0f172a">actor</text><text x="242" y="169" text-anchor="middle" font-family="monospace" font-size="10" fill="#64748b">&lt;&lt;actor/&gt;&gt;</text><desc data-uml-id="Colon Actor">Colon Actor</desc><rect class="uml-node uml-deployment-shape" data-uml-kind="actor" x="1294" y="142" width="200" height="80" rx="6" ry="6" fill="#f0f4f8" stroke="#1e293b" stroke-width="1.5" fill-opacity="0.16"/><circle cx="1394" cy="158" r="9" fill="#f0f4f8" stroke="#1e293b" stroke-width="1.5"/><line x1="1394" y1="167" x2="1394" y2="198" stroke="#1e293b" stroke-width="1.8"/><line x1="1378" y1="178" x2="1410" y2="178" stroke="#1e293b" stroke-width="1.8"/><line x1="1394" y1="198" x2="1382" y2="214" stroke="#1e293b" stroke-width="1.8"/><line x1="1394" y1="198" x2="1406" y2="214" stroke="#1e293b" stroke-width="1.8"/><text x="1394" y="188" text-anchor="middle" font-family="monospace" font-size="13" font-weight="600" fill="#0f172a">Colon Actor</text><text x="1394" y="156" text-anchor="middle" font-family="monospace" font-size="10" fill="#0f172a">actor</text><desc data-uml-id="LegacyUC">LegacyUC</desc><ellipse class="uml-node uml-deployment-shape" data-uml-kind="usecase" cx="1970" cy="182" rx="100" ry="40" fill="#f0f4f8" stroke="#1e293b" stroke-width="1.5"/><text x="1970" y="188" text-anchor="middle" font-family="monospace" font-size="13" font-weight="600" fill="#0f172a">LegacyUC</text><text x="1970" y="156" text-anchor="middle" font-family="monospace" font-size="10" fill="#0f172a">usecase</text><text x="1970" y="169" text-anchor="middle" font-family="monospace" font-size="10" fill="#64748b">&lt;&lt;usecase/&gt;&gt;</text><desc data-uml-id="SearchUC">SearchUC</desc><ellipse class="uml-node uml-deployment-shape" data-uml-kind="usecase" cx="3122" cy="182" rx="100" ry="40" fill="#f0f4f8" stroke="#1e293b" stroke-width="1.5"/><text x="3122" y="188" text-anchor="middle" font-family="monospace" font-size="13" font-weight="600" fill="#0f172a">Search</text><text x="3122" y="156" text-anchor="middle" font-family="monospace" font-size="10" fill="#0f172a">usecase</text><desc data-uml-id="Runtime">Runtime</desc><rect class="uml-node uml-deployment-shape" data-uml-kind="container" x="2590" y="1294" width="200" height="80" rx="6" ry="6" fill="#f0f4f8" stroke="#1e293b" stroke-width="1.5"/><text x="2690" y="1340" text-anchor="middle" font-family="monospace" font-size="13" font-weight="600" fill="#0f172a">Runtime</text><text x="2690" y="1308" text-anchor="middle" font-family="monospace" font-size="10" fill="#0f172a">container</text><desc data-uml-id="Marker">Marker</desc><rect class="uml-node uml-deployment-shape" data-uml-kind="label" x="2158" y="142" width="200" height="80" rx="6" ry="6" fill="#f0f4f8" stroke="#1e293b" stroke-width="1.5"/><text x="2258" y="188" text-anchor="middle" font-family="monospace" font-size="13" font-weight="600" fill="#0f172a">Marker</text><text x="2258" y="156" text-anchor="middle" font-family="monospace" font-size="10" fill="#0f172a">label</text><desc data-uml-id="Deploy">Deploy</desc><rect class="uml-node uml-deployment-shape" data-uml-kind="action" x="2590" y="1582" width="200" height="80" rx="6" ry="6" fill="#f0f4f8" stroke="#1e293b" stroke-width="1.5"/><text x="2690" y="1628" text-anchor="middle" font-family="monospace" font-size="13" font-weight="600" fill="#0f172a">Deploy</text><text x="2690" y="1596" text-anchor="middle" font-family="monospace" font-size="10" fill="#0f172a">action</text><polyline class="uml-relation" data-uml-from="K8s Cluster&quot; as k8s::q" data-uml-to="K8s Cluster&quot; as k8s::Jobs" data-uml-arrow="--&gt;" points="4750,182 4750,66 1782,66 1782,182" fill="none" stroke="#1e293b" stroke-width="2" marker-end="url(#arrow-open)" /><polyline class="uml-relation" data-uml-from="K8s Cluster&quot; as k8s::Jobs" data-uml-to="K8s Cluster&quot; as k8s::Router" data-uml-arrow="--&gt;" points="1782,182 1782,66 2734,66 2734,182" fill="none" stroke="#1e293b" stroke-width="2" marker-end="url(#arrow-open)" /><polyline class="uml-relation" data-uml-from="K8s Cluster&quot; as k8s::Router" data-uml-to="K8s Cluster&quot; as k8s::Worker" data-uml-arrow="--&gt;" points="2934,182 2934,66 3598,66 3598,182" fill="none" stroke="#1e293b" stroke-width="2" marker-end="url(#arrow-open)" /><polyline class="uml-relation" data-uml-from="AgentA" data-uml-to="Edge" data-uml-arrow="0)--(0" points="530,222 530,301 2834,301 2834,430" fill="none" stroke="#1e293b" stroke-width="2" marker-end="url(#arrow-open)" marker-start="url(#arrow-open)" /><defs><marker id="uml-rel-5-arrow-open" viewBox="0 0 10 10" refX="9" refY="5" markerWidth="10" markerHeight="10" markerUnits="userSpaceOnUse" orient="auto-start-reverse"><path d="M0,0 L10,5 L0,10" fill="none" stroke="#2563eb" stroke-width="1.5"/></marker><marker id="uml-rel-5-arrow-triangle" viewBox="0 0 12 12" refX="11" refY="6" markerWidth="12" markerHeight="12" markerUnits="userSpaceOnUse" orient="auto-start-reverse"><polygon points="0,0 12,6 0,12" fill="#ffffff" stroke="#2563eb" stroke-width="1.5" fill-rule="nonzero"/></marker><marker id="uml-rel-5-arrow-diamond-filled" viewBox="0 0 14 10" refX="13" refY="5" markerWidth="14" markerHeight="10" markerUnits="userSpaceOnUse" orient="auto-start-reverse"><path d="M0,5 L7,0 L14,5 L7,10 z" fill="#2563eb" stroke="#2563eb" stroke-width="1"/></marker><marker id="uml-rel-5-arrow-diamond-open" viewBox="0 0 14 10" refX="13" refY="5" markerWidth="14" markerHeight="10" markerUnits="userSpaceOnUse" orient="auto-start-reverse"><path d="M0,5 L7,0 L14,5 L7,10 z" fill="#ffffff" stroke="#2563eb" stroke-width="1"/></marker></defs><polyline class="uml-relation" data-uml-from="Edge" data-uml-to="Store" data-uml-arrow="--&gt;" points="2834,510 2834,614 2834,718" fill="none" stroke="#2563eb" stroke-width="3" stroke-dasharray="5 3" data-uml-relation-style="color:#2563eb dashed thickness:3" marker-end="url(#uml-rel-5-arrow-open)" /><polyline class="uml-relation" data-uml-from="Operator" data-uml-to="Deploy" data-uml-arrow="--&gt;" points="2546,222 2546,351 2690,351 2690,1582" fill="none" stroke="#1e293b" stroke-width="2" marker-end="url(#arrow-open)" /><polyline class="uml-relation" data-uml-from="AltUser" data-uml-to="ApiBoundary" data-uml-arrow="--&gt;" points="242,222 242,251 2546,251 2546,430" fill="none" stroke="#1e293b" stroke-width="2" marker-end="url(#arrow-open)" /><polyline class="uml-relation" data-uml-from="ApiBoundary" data-uml-to="Controller" data-uml-arrow="--&gt;" points="2546,510 2546,614 2546,718" fill="none" stroke="#1e293b" stroke-width="2" marker-end="url(#arrow-open)" /><polyline class="uml-relation" data-uml-from="Controller" data-uml-to="Catalog" data-uml-arrow="--&gt;" points="2546,798 2546,977 2690,977 2690,1006" fill="none" stroke="#1e293b" stroke-width="2" marker-end="url(#arrow-open)" /><polyline class="uml-relation" data-uml-from="Catalog" data-uml-to="Runtime" data-uml-arrow="--&gt;" points="2690,1086 2690,1190 2690,1294" fill="none" stroke="#1e293b" stroke-width="2" marker-end="url(#arrow-open)" /><polyline class="uml-relation" data-uml-from="Runtime" data-uml-to="Deploy" data-uml-arrow="--&gt;" points="2690,1374 2690,1478 2690,1582" fill="none" stroke="#1e293b" stroke-width="2" marker-end="url(#arrow-open)" /><polyline class="uml-relation" data-uml-from="Worker" data-uml-to="Store" data-uml-arrow="--&gt;" points="3698,222 3698,401 2834,401 2834,718" fill="none" stroke="#1e293b" stroke-width="2" marker-end="url(#arrow-open)" /><text x="1682" y="289" text-anchor="middle" font-family="monospace" font-size="11" fill="#1e293b">buffers</text><text x="2792" y="690" text-anchor="middle" font-family="monospace" font-size="11" fill="#1e293b">writes</text><text x="2618" y="339" text-anchor="middle" font-family="monospace" font-size="11" fill="#1e293b">approves</text><text x="2877" y="690" text-anchor="middle" font-family="monospace" font-size="11" fill="#1e293b">updates</text></svg>