<svg xmlns="http://www.w3.org/2000/svg" width="2156" height="2420" viewBox="0 0 2156 2420"><rect width="100%" height="100%" fill="#f0f4f8"/><defs><marker id="arrow-open" viewBox="0 0 10 10" refX="9" refY="5" markerWidth="10" markerHeight="10" markerUnits="userSpaceOnUse" orient="auto-start-reverse"><path d="M0,0 L10,5 L0,10" fill="none" stroke="#1e293b" stroke-width="1.5"/></marker><marker id="arrow-triangle" viewBox="0 0 12 12" refX="11" refY="6" markerWidth="12" markerHeight="12" markerUnits="userSpaceOnUse" orient="auto-start-reverse"><polygon points="0,0 12,6 0,12" fill="#ffffff" stroke="#1e293b" stroke-width="1.5" fill-rule="nonzero"/></marker><marker id="arrow-diamond-filled" viewBox="0 0 14 10" refX="13" refY="5" markerWidth="14" markerHeight="10" markerUnits="userSpaceOnUse" orient="auto-start-reverse"><path d="M0,5 L7,0 L14,5 L7,10 z" fill="#1e293b" stroke="#1e293b" stroke-width="1"/></marker><marker id="arrow-diamond-open" viewBox="0 0 14 10" refX="13" refY="5" markerWidth="14" markerHeight="10" markerUnits="userSpaceOnUse" orient="auto-start-reverse"><path d="M0,5 L7,0 L14,5 L7,10 z" fill="#ffffff" stroke="#1e293b" stroke-width="1"/></marker></defs><text x="40" y="40" font-family="monospace" font-size="18" font-weight="600">Chapter 8 Deployment Keyword Parity</text><rect class="uml-group-frame" data-uml-group="K8s Cluster&quot; as k8s" x="406" y="78" width="1688" height="1608" rx="8" ry="8" fill="#f8faff" stroke="#1e293b" stroke-width="1.5"/><rect x="406" y="78" width="1688" height="40" rx="8" ry="8" fill="#1e293b" stroke="none"/><rect x="406" y="110" width="1688" height="8" fill="#1e293b" stroke="none"/><text x="414" y="110" font-family="monospace" font-size="11" font-weight="600" fill="#ffffff">node K8s Cluster&quot; as k8s</text><line x1="406" y1="118" x2="2094" y2="118" stroke="#1e293b" stroke-width="1"/><desc data-uml-id="K8s Cluster&quot; as k8s::q">K8s Cluster&quot; as k8s::q</desc><rect class="uml-node uml-deployment-shape" data-uml-kind="queue" x="442" y="142" width="176" height="80" fill="#f0f8ff" stroke="none"/><path class="uml-node uml-deployment-shape" data-uml-kind="queue" d="M442 142 A12 40 0 0 0 442 222" fill="none" stroke="#1e293b" stroke-width="1.5"/><ellipse cx="618" cy="182" rx="12" ry="40" fill="#f0f8ff" stroke="#1e293b" stroke-width="1.5"/><line x1="442" y1="142" x2="618" y2="142" stroke="#1e293b" stroke-width="1.5"/><line x1="442" y1="222" x2="618" y2="222" stroke="#1e293b" stroke-width="1.5"/><text x="530" y="188" text-anchor="middle" font-family="monospace" font-size="13" font-weight="600" fill="#0f172a">Ingress Queue</text><text x="530" y="156" text-anchor="middle" font-family="monospace" font-size="10" fill="#0f172a">queue</text><text x="530" y="169" text-anchor="middle" font-family="monospace" font-size="10" fill="#64748b">&lt;&lt;durable&gt;&gt;</text><desc data-uml-id="K8s Cluster&quot; as k8s::Jobs">K8s Cluster&quot; as k8s::Jobs</desc><rect class="uml-node uml-deployment-shape" data-uml-kind="stack" x="1016" y="1016" width="190" height="70" rx="4" ry="4" fill="#f0f4f8" stroke="#1e293b" stroke-width="1.5"/><rect class="uml-node uml-deployment-shape" data-uml-kind="stack" x="1011" y="1011" width="190" height="70" rx="4" ry="4" fill="#f0f4f8" stroke="#1e293b" stroke-width="1.5"/><rect class="uml-node uml-deployment-shape" data-uml-kind="stack" x="1006" y="1006" width="190" height="70" rx="4" ry="4" fill="#f0f4f8" stroke="#1e293b" stroke-width="1.5"/><text x="1106" y="1052" text-anchor="middle" font-family="monospace" font-size="13" font-weight="600" fill="#0f172a">Jobs</text><text x="1106" y="1020" text-anchor="middle" font-family="monospace" font-size="10" fill="#0f172a">stack</text><desc data-uml-id="K8s Cluster&quot; as k8s::Router">K8s Cluster&quot; as k8s::Router</desc><polygon class="uml-node uml-deployment-shape" data-uml-kind="hexagon" points="1168,1294 1332,1294 1350,1334 1332,1374 1168,1374 1150,1334" fill="#f0f4f8" stroke="#1e293b" stroke-width="1.5"/><text x="1250" y="1340" text-anchor="middle" font-family="monospace" font-size="13" font-weight="600" fill="#0f172a">Router</text><text x="1250" y="1308" text-anchor="middle" font-family="monospace" font-size="10" fill="#0f172a">hexagon</text><desc data-uml-id="K8s Cluster&quot; as k8s::Worker">K8s Cluster&quot; as k8s::Worker</desc><rect class="uml-node uml-deployment-shape" data-uml-kind="process" x="1150" y="1582" width="200" height="80" rx="6" ry="6" fill="#f0f4f8" stroke="#1e293b" stroke-width="1.5"/><text x="1250" y="1628" text-anchor="middle" font-family="monospace" font-size="13" font-weight="600" fill="#0f172a">Worker</text><text x="1250" y="1596" text-anchor="middle" font-family="monospace" font-size="10" fill="#0f172a">process</text><desc data-uml-id="K8s Cluster&quot; as k8s::app [">K8s Cluster&quot; as k8s::app [</desc><path class="uml-node uml-deployment-shape" data-uml-kind="artifact" d="M1582,430 H1764 L1782 448 V510 H1582 Z" fill="#f0f4f8" stroke="#1e293b" stroke-width="1.5"/><text x="1682" y="476" text-anchor="middle" font-family="monospace" font-size="13" font-weight="600" fill="#0f172a">app [</text><text x="1682" y="444" text-anchor="middle" font-family="monospace" font-size="10" fill="#0f172a">artifact</text><desc data-uml-id="K8s Cluster&quot; as k8s::boot.jar">K8s Cluster&quot; as k8s::boot.jar</desc><polygon points="1870,430 1882,418 2082,418 2070,430" fill="#d4dff7" stroke="#1e293b" stroke-width="1"/><polygon points="2070,430 2082,418 2082,498 2070,510" fill="#b8c8ef" stroke="#1e293b" stroke-width="1"/><rect class="uml-node uml-deployment-shape" data-uml-kind="node" x="1870" y="430" width="200" height="80" fill="#f0f4f8" stroke="#1e293b" stroke-width="1.5"/><text x="1970" y="476" text-anchor="middle" font-family="monospace" font-size="13" font-weight="600" fill="#0f172a">K8s Cluster&quot; as k8s::boot.jar</text><text x="1970" y="444" text-anchor="middle" font-family="monospace" font-size="10" fill="#0f172a">node</text><desc data-uml-id="K8s Cluster&quot; as k8s::--">K8s Cluster&quot; as k8s::--</desc><polygon points="1006,142 1018,130 1218,130 1206,142" fill="#d4dff7" stroke="#1e293b" stroke-width="1"/><polygon points="1206,142 1218,130 1218,210 1206,222" fill="#b8c8ef" stroke="#1e293b" stroke-width="1"/><rect class="uml-node uml-deployment-shape" data-uml-kind="node" x="1006" y="142" width="200" height="80" fill="#f0f4f8" stroke="#1e293b" stroke-width="1.5"/><text x="1106" y="188" text-anchor="middle" font-family="monospace" font-size="13" font-weight="600" fill="#0f172a">K8s Cluster&quot; as k8s::--</text><text x="1106" y="156" text-anchor="middle" font-family="monospace" font-size="10" fill="#0f172a">node</text><desc data-uml-id="K8s Cluster&quot; as k8s::signed">K8s Cluster&quot; as k8s::signed</desc><polygon points="1006,718 1018,706 1218,706 1206,718" fill="#d4dff7" stroke="#1e293b" stroke-width="1"/><polygon points="1206,718 1218,706 1218,786 1206,798" fill="#b8c8ef" stroke="#1e293b" stroke-width="1"/><rect class="uml-node uml-deployment-shape" data-uml-kind="node" x="1006" y="718" width="200" height="80" fill="#f0f4f8" stroke="#1e293b" stroke-width="1.5"/><text x="1106" y="764" text-anchor="middle" font-family="monospace" font-size="13" font-weight="600" fill="#0f172a">K8s Cluster&quot; as k8s::signed</text><text x="1106" y="732" text-anchor="middle" font-family="monospace" font-size="10" fill="#0f172a">node</text><desc data-uml-id="K8s Cluster&quot; as k8s::]">K8s Cluster&quot; as k8s::]</desc><polygon points="1294,430 1306,418 1506,418 1494,430" fill="#d4dff7" stroke="#1e293b" stroke-width="1"/><polygon points="1494,430 1506,418 1506,498 1494,510" fill="#b8c8ef" stroke="#1e293b" stroke-width="1"/><rect class="uml-node uml-deployment-shape" data-uml-kind="node" x="1294" y="430" width="200" height="80" fill="#f0f4f8" stroke="#1e293b" stroke-width="1.5"/><text x="1394" y="476" text-anchor="middle" font-family="monospace" font-size="13" font-weight="600" fill="#0f172a">K8s Cluster&quot; as k8s::]</text><text x="1394" y="444" text-anchor="middle" font-family="monospace" font-size="10" fill="#0f172a">node</text><desc data-uml-id="Edge">Edge</desc><path class="uml-node uml-deployment-shape" data-uml-kind="cloud" d="M1318 1062 C1298 1060, 1298 1034, 1324 1034 C1330 1014, 1370 1014, 1382 1032 L1472 1032 C1492 1034, 1490 1062, 1466 1062 Z" fill="#f0f4f8" stroke="#1e293b" stroke-width="1.5"/><text x="1394" y="1052" text-anchor="middle" font-family="monospace" font-size="13" font-weight="600" fill="#0f172a">Edge</text><text x="1394" y="1020" text-anchor="middle" font-family="monospace" font-size="10" fill="#0f172a">cloud</text><desc data-uml-id="Store">Store</desc><path class="uml-node uml-deployment-shape" data-uml-kind="database" d="M1150,1880 C1150,1870 1350,1870 1350,1880 L1350,1940 C1350,1950 1150,1950 1150,1940 Z" fill="#f0f4f8" stroke="#1e293b" stroke-width="1.5"/><ellipse cx="1250" cy="1880" rx="100" ry="10" fill="#f0f4f8" stroke="#1e293b" stroke-width="1.5"/><text x="1250" y="1916" text-anchor="middle" font-family="monospace" font-size="13" font-weight="600" fill="#0f172a">Store</text><text x="1250" y="1884" text-anchor="middle" font-family="monospace" font-size="10" fill="#0f172a">database</text><desc data-uml-id="AgentA">AgentA</desc><rect class="uml-node uml-deployment-shape" data-uml-kind="agent" x="718" y="142" width="200" height="80" rx="6" ry="6" fill="#f0f4f8" stroke="#1e293b" stroke-width="1.5"/><text x="818" y="188" text-anchor="middle" font-family="monospace" font-size="13" font-weight="600" fill="#0f172a">AgentA</text><text x="818" y="156" text-anchor="middle" font-family="monospace" font-size="10" fill="#0f172a">agent</text><desc data-uml-id="ApiBoundary">ApiBoundary</desc><ellipse class="uml-node uml-deployment-shape" data-uml-kind="boundary" cx="818" cy="1042" rx="88" ry="28" fill="#f0f4f8" stroke="#1e293b" stroke-width="1.5"/><line x1="730" y1="1072" x2="906" y2="1072" stroke="#1e293b" stroke-width="1.5"/><text x="818" y="1052" text-anchor="middle" font-family="monospace" font-size="13" font-weight="600" fill="#0f172a">ApiBoundary</text><text x="818" y="1020" text-anchor="middle" font-family="monospace" font-size="10" fill="#0f172a">boundary</text><desc data-uml-id="Controller">Controller</desc><ellipse class="uml-node uml-deployment-shape" data-uml-kind="control" cx="962" cy="1330" rx="88" ry="28" fill="#f0f4f8" stroke="#1e293b" stroke-width="1.5"/><path d="M968 1320 L986 1312 L980 1330" fill="none" stroke="#1e293b" stroke-width="1.5"/><text x="962" y="1340" text-anchor="middle" font-family="monospace" font-size="13" font-weight="600" fill="#0f172a">Controller</text><text x="962" y="1308" text-anchor="middle" font-family="monospace" font-size="10" fill="#0f172a">control</text><desc data-uml-id="Catalog">Catalog</desc><ellipse class="uml-node uml-deployment-shape" data-uml-kind="entity" cx="962" cy="1618" rx="88" ry="28" fill="#f0f4f8" stroke="#1e293b" stroke-width="1.5"/><line x1="884" y1="1644" x2="1040" y2="1644" stroke="#1e293b" stroke-width="1.5"/><text x="962" y="1628" text-anchor="middle" font-family="monospace" font-size="13" font-weight="600" fill="#0f172a">Catalog</text><text x="962" y="1596" text-anchor="middle" font-family="monospace" font-size="10" fill="#0f172a">entity</text><desc data-uml-id="Bag">Bag</desc><rect class="uml-node uml-deployment-shape" data-uml-kind="collections" x="1304" y="152" width="190" height="70" rx="4" ry="4" fill="#f0f4f8" stroke="#1e293b" stroke-width="1.5"/><rect class="uml-node uml-deployment-shape" data-uml-kind="collections" x="1299" y="147" width="190" height="70" rx="4" ry="4" fill="#f0f4f8" stroke="#1e293b" stroke-width="1.5"/><rect class="uml-node uml-deployment-shape" data-uml-kind="collections" x="1294" y="142" width="190" height="70" rx="4" ry="4" fill="#f0f4f8" stroke="#1e293b" stroke-width="1.5"/><text x="1394" y="188" text-anchor="middle" font-family="monospace" font-size="13" font-weight="600" fill="#0f172a">Bag</text><text x="1394" y="156" text-anchor="middle" font-family="monospace" font-size="10" fill="#0f172a">collections</text><desc data-uml-id="Signal">Signal</desc><ellipse class="uml-node uml-deployment-shape" data-uml-kind="circle" cx="1106" cy="470" rx="100" ry="40" fill="#f0f4f8" stroke="#1e293b" stroke-width="1.5"/><text x="1106" y="476" text-anchor="middle" font-family="monospace" font-size="13" font-weight="600" fill="#0f172a">Signal</text><text x="1106" y="444" text-anchor="middle" font-family="monospace" font-size="10" fill="#0f172a">circle</text><desc data-uml-id="Operator">Operator</desc><rect class="uml-node uml-deployment-shape" data-uml-kind="person" x="430" y="430" width="200" height="80" rx="6" ry="6" fill="#f0f4f8" stroke="#1e293b" stroke-width="1.5" fill-opacity="0.16"/><circle cx="530" cy="446" r="9" fill="#f0f4f8" stroke="#1e293b" stroke-width="1.5"/><line x1="530" y1="455" x2="530" y2="486" stroke="#1e293b" stroke-width="1.8"/><line x1="514" y1="466" x2="546" y2="466" stroke="#1e293b" stroke-width="1.8"/><line x1="530" y1="486" x2="518" y2="502" stroke="#1e293b" stroke-width="1.8"/><line x1="530" y1="486" x2="542" y2="502" stroke="#1e293b" stroke-width="1.8"/><text x="530" y="476" text-anchor="middle" font-family="monospace" font-size="13" font-weight="600" fill="#0f172a">Operator</text><text x="530" y="444" text-anchor="middle" font-family="monospace" font-size="10" fill="#0f172a">person</text><desc data-uml-id="AltUser">AltUser</desc><rect class="uml-node uml-deployment-shape" data-uml-kind="actor" x="142" y="142" width="200" height="80" rx="6" ry="6" fill="#f0f4f8" stroke="#1e293b" stroke-width="1.5" fill-opacity="0.16"/><circle cx="242" cy="158" r="9" fill="#f0f4f8" stroke="#1e293b" stroke-width="1.5"/><line x1="242" y1="167" x2="242" y2="198" stroke="#1e293b" stroke-width="1.8"/><line x1="226" y1="178" x2="258" y2="178" stroke="#1e293b" stroke-width="1.8"/><line x1="242" y1="198" x2="230" y2="214" stroke="#1e293b" stroke-width="1.8"/><line x1="242" y1="198" x2="254" y2="214" stroke="#1e293b" stroke-width="1.8"/><text x="242" y="188" text-anchor="middle" font-family="monospace" font-size="13" font-weight="600" fill="#0f172a">AltUser</text><text x="242" y="156" text-anchor="middle" font-family="monospace" font-size="10" fill="#0f172a">actor</text><text x="242" y="169" text-anchor="middle" font-family="monospace" font-size="10" fill="#64748b">&lt;&lt;actor/&gt;&gt;</text><desc data-uml-id="Colon Actor">Colon Actor</desc><rect class="uml-node uml-deployment-shape" data-uml-kind="actor" x="1582" y="142" width="200" height="80" rx="6" ry="6" fill="#f0f4f8" stroke="#1e293b" stroke-width="1.5" fill-opacity="0.16"/><circle cx="1682" cy="158" r="9" fill="#f0f4f8" stroke="#1e293b" stroke-width="1.5"/><line x1="1682" y1="167" x2="1682" y2="198" stroke="#1e293b" stroke-width="1.8"/><line x1="1666" y1="178" x2="1698" y2="178" stroke="#1e293b" stroke-width="1.8"/><line x1="1682" y1="198" x2="1670" y2="214" stroke="#1e293b" stroke-width="1.8"/><line x1="1682" y1="198" x2="1694" y2="214" stroke="#1e293b" stroke-width="1.8"/><text x="1682" y="188" text-anchor="middle" font-family="monospace" font-size="13" font-weight="600" fill="#0f172a">Colon Actor</text><text x="1682" y="156" text-anchor="middle" font-family="monospace" font-size="10" fill="#0f172a">actor</text><desc data-uml-id="LegacyUC">LegacyUC</desc><ellipse class="uml-node uml-deployment-shape" data-uml-kind="usecase" cx="1970" cy="182" rx="100" ry="40" fill="#f0f4f8" stroke="#1e293b" stroke-width="1.5"/><text x="1970" y="188" text-anchor="middle" font-family="monospace" font-size="13" font-weight="600" fill="#0f172a">LegacyUC</text><text x="1970" y="156" text-anchor="middle" font-family="monospace" font-size="10" fill="#0f172a">usecase</text><text x="1970" y="169" text-anchor="middle" font-family="monospace" font-size="10" fill="#64748b">&lt;&lt;usecase/&gt;&gt;</text><desc data-uml-id="SearchUC">SearchUC</desc><ellipse class="uml-node uml-deployment-shape" data-uml-kind="usecase" cx="818" cy="470" rx="100" ry="40" fill="#f0f4f8" stroke="#1e293b" stroke-width="1.5"/><text x="818" y="476" text-anchor="middle" font-family="monospace" font-size="13" font-weight="600" fill="#0f172a">Search</text><text x="818" y="444" text-anchor="middle" font-family="monospace" font-size="10" fill="#0f172a">usecase</text><desc data-uml-id="Runtime">Runtime</desc><rect class="uml-node uml-deployment-shape" data-uml-kind="container" x="862" y="1870" width="200" height="80" rx="6" ry="6" fill="#f0f4f8" stroke="#1e293b" stroke-width="1.5"/><text x="962" y="1916" text-anchor="middle" font-family="monospace" font-size="13" font-weight="600" fill="#0f172a">Runtime</text><text x="962" y="1884" text-anchor="middle" font-family="monospace" font-size="10" fill="#0f172a">container</text><desc data-uml-id="Marker">Marker</desc><rect class="uml-node uml-deployment-shape" data-uml-kind="label" x="142" y="430" width="200" height="80" rx="6" ry="6" fill="#f0f4f8" stroke="#1e293b" stroke-width="1.5"/><text x="242" y="476" text-anchor="middle" font-family="monospace" font-size="13" font-weight="600" fill="#0f172a">Marker</text><text x="242" y="444" text-anchor="middle" font-family="monospace" font-size="10" fill="#0f172a">label</text><desc data-uml-id="Deploy">Deploy</desc><rect class="uml-node uml-deployment-shape" data-uml-kind="action" x="1006" y="2158" width="200" height="80" rx="6" ry="6" fill="#f0f4f8" stroke="#1e293b" stroke-width="1.5"/><text x="1106" y="2204" text-anchor="middle" font-family="monospace" font-size="13" font-weight="600" fill="#0f172a">Deploy</text><text x="1106" y="2172" text-anchor="middle" font-family="monospace" font-size="10" fill="#0f172a">action</text><polyline class="uml-relation" data-uml-from="K8s Cluster&quot; as k8s::q" data-uml-to="K8s Cluster&quot; as k8s::Jobs" data-uml-arrow="--&gt;" points="530,222 530,256 1106,256 1106,1006" fill="none" stroke="#1e293b" stroke-width="2" marker-end="url(#arrow-open)" /><polyline class="uml-relation" data-uml-from="K8s Cluster&quot; as k8s::Jobs" data-uml-to="K8s Cluster&quot; as k8s::Router" data-uml-arrow="--&gt;" points="1106,1086 1106,1200 1250,1200 1250,1294" fill="none" stroke="#1e293b" stroke-width="2" marker-end="url(#arrow-open)" /><polyline class="uml-relation" data-uml-from="K8s Cluster&quot; as k8s::Router" data-uml-to="K8s Cluster&quot; as k8s::Worker" data-uml-arrow="--&gt;" points="1250,1374 1250,1478 1250,1582" fill="none" stroke="#1e293b" stroke-width="2" marker-end="url(#arrow-open)" /><polyline class="uml-relation" data-uml-from="AgentA" data-uml-to="Edge" data-uml-arrow="0)--(0" points="818,222 818,276 1394,276 1394,1006" fill="none" stroke="#1e293b" stroke-width="2" marker-end="url(#arrow-open)" marker-start="url(#arrow-open)" /><defs><marker id="uml-rel-5-arrow-open" viewBox="0 0 10 10" refX="9" refY="5" markerWidth="10" markerHeight="10" markerUnits="userSpaceOnUse" orient="auto-start-reverse"><path d="M0,0 L10,5 L0,10" fill="none" stroke="#2563eb" stroke-width="1.5"/></marker><marker id="uml-rel-5-arrow-triangle" viewBox="0 0 12 12" refX="11" refY="6" markerWidth="12" markerHeight="12" markerUnits="userSpaceOnUse" orient="auto-start-reverse"><polygon points="0,0 12,6 0,12" fill="#ffffff" stroke="#2563eb" stroke-width="1.5" fill-rule="nonzero"/></marker><marker id="uml-rel-5-arrow-diamond-filled" viewBox="0 0 14 10" refX="13" refY="5" markerWidth="14" markerHeight="10" markerUnits="userSpaceOnUse" orient="auto-start-reverse"><path d="M0,5 L7,0 L14,5 L7,10 z" fill="#2563eb" stroke="#2563eb" stroke-width="1"/></marker><marker id="uml-rel-5-arrow-diamond-open" viewBox="0 0 14 10" refX="13" refY="5" markerWidth="14" markerHeight="10" markerUnits="userSpaceOnUse" orient="auto-start-reverse"><path d="M0,5 L7,0 L14,5 L7,10 z" fill="#ffffff" stroke="#2563eb" stroke-width="1"/></marker></defs><polyline class="uml-relation" data-uml-from="Edge" data-uml-to="Store" data-uml-arrow="--&gt;" points="1394,1086 1394,1220 1250,1220 1250,1870" fill="none" stroke="#2563eb" stroke-width="3" stroke-dasharray="5 3" data-uml-relation-style="color:#2563eb dashed thickness:3" marker-end="url(#uml-rel-5-arrow-open)" /><polyline class="uml-relation" data-uml-from="Operator" data-uml-to="Deploy" data-uml-arrow="--&gt;" points="530,510 530,584 1106,584 1106,2158" fill="none" stroke="#1e293b" stroke-width="2" marker-end="url(#arrow-open)" /><polyline class="uml-relation" data-uml-from="AltUser" data-uml-to="ApiBoundary" data-uml-arrow="--&gt;" points="242,222 242,236 818,236 818,1006" fill="none" stroke="#1e293b" stroke-width="2" marker-end="url(#arrow-open)" /><polyline class="uml-relation" data-uml-from="ApiBoundary" data-uml-to="Controller" data-uml-arrow="--&gt;" points="818,1086 818,1180 962,1180 962,1294" fill="none" stroke="#1e293b" stroke-width="2" marker-end="url(#arrow-open)" /><polyline class="uml-relation" data-uml-from="Controller" data-uml-to="Catalog" data-uml-arrow="--&gt;" points="962,1374 962,1478 962,1582" fill="none" stroke="#1e293b" stroke-width="2" marker-end="url(#arrow-open)" /><polyline class="uml-relation" data-uml-from="Catalog" data-uml-to="Runtime" data-uml-arrow="--&gt;" points="962,1662 962,1766 962,1870" fill="none" stroke="#1e293b" stroke-width="2" marker-end="url(#arrow-open)" /><polyline class="uml-relation" data-uml-from="Runtime" data-uml-to="Deploy" data-uml-arrow="--&gt;" points="962,1950 962,2134 1106,2134 1106,2158" fill="none" stroke="#1e293b" stroke-width="2" marker-end="url(#arrow-open)" /><polyline class="uml-relation" data-uml-from="Worker" data-uml-to="Store" data-uml-arrow="--&gt;" points="1250,1662 1250,1766 1250,1870" fill="none" stroke="#1e293b" stroke-width="2" marker-end="url(#arrow-open)" /><rect class="uml-edge-label-bg" data-uml-label-role="edge-background" x="1080" y="251" width="52" height="18" fill="white" opacity="0.85"/><text class="uml-edge-label" data-uml-label-role="edge" x="1106" y="264" text-anchor="middle" font-family="monospace" font-size="11" fill="#1e293b">buffers</text><text class="uml-edge-label" data-uml-label-role="edge" x="1293" y="1842" text-anchor="middle" font-family="monospace" font-size="11" fill="#1e293b">writes</text><rect class="uml-edge-label-bg" data-uml-label-role="edge-background" x="788" y="559" width="60" height="18" fill="white" opacity="0.85"/><text class="uml-edge-label" data-uml-label-role="edge" x="818" y="572" text-anchor="middle" font-family="monospace" font-size="11" fill="#1e293b">approves</text><text class="uml-edge-label" data-uml-label-role="edge" x="1208" y="1842" text-anchor="middle" font-family="monospace" font-size="11" fill="#1e293b">updates</text></svg>