<svg xmlns="http://www.w3.org/2000/svg" width="431" height="980" viewBox="0 0 431 980"><rect width="100%" height="100%" fill="#f0f4f8"/><defs><marker id="arrow-open" viewBox="0 0 10 10" refX="9" refY="5" markerWidth="10" markerHeight="10" markerUnits="userSpaceOnUse" orient="auto-start-reverse"><path d="M0,0 L10,5 L0,10" fill="none" stroke="#1e293b" stroke-width="1.5"/></marker><marker id="arrow-triangle" viewBox="0 0 12 12" refX="11" refY="6" markerWidth="12" markerHeight="12" markerUnits="userSpaceOnUse" orient="auto-start-reverse"><polygon points="0,0 12,6 0,12" fill="#ffffff" stroke="#1e293b" stroke-width="1.5" fill-rule="nonzero"/></marker><marker id="arrow-diamond-filled" viewBox="0 0 14 10" refX="13" refY="5" markerWidth="14" markerHeight="10" markerUnits="userSpaceOnUse" orient="auto-start-reverse"><path d="M0,5 L7,0 L14,5 L7,10 z" fill="#1e293b" stroke="#1e293b" stroke-width="1"/></marker><marker id="arrow-diamond-open" viewBox="0 0 14 10" refX="13" refY="5" markerWidth="14" markerHeight="10" markerUnits="userSpaceOnUse" orient="auto-start-reverse"><path d="M0,5 L7,0 L14,5 L7,10 z" fill="#ffffff" stroke="#1e293b" stroke-width="1"/></marker></defs><text x="40" y="40" font-family="monospace" font-size="18" font-weight="600">Deployment bare usecase keyword</text><desc data-uml-id="Runtime">Runtime</desc><polygon points="142,142 154,130 354,130 342,142" fill="#d4dff7" stroke="#1e293b" stroke-width="1"/><polygon points="342,142 354,130 354,210 342,222" fill="#b8c8ef" stroke="#1e293b" stroke-width="1"/><rect class="uml-node uml-deployment-shape" data-uml-kind="node" x="142" y="142" width="200" height="80" fill="#f0f4f8" stroke="#1e293b" stroke-width="1.5"/><text x="242" y="188" text-anchor="middle" font-family="monospace" font-size="13" font-weight="600" fill="#0f172a">Runtime</text><text x="242" y="156" text-anchor="middle" font-family="monospace" font-size="10" fill="#0f172a">node</text><desc data-uml-id="Login Flow">Login Flow</desc><ellipse class="uml-node uml-deployment-shape" data-uml-kind="usecase" cx="242" cy="470" rx="100" ry="40" fill="#f0f8ff" stroke="#1e293b" stroke-width="1.5"/><text x="242" y="476" text-anchor="middle" font-family="monospace" font-size="13" font-weight="600" fill="#0f172a">Login Flow</text><text x="242" y="444" text-anchor="middle" font-family="monospace" font-size="10" fill="#0f172a">usecase</text><desc data-uml-id="Search">Search</desc><ellipse class="uml-node uml-deployment-shape" data-uml-kind="usecase" cx="242" cy="758" rx="100" ry="40" fill="#f0f4f8" stroke="#1e293b" stroke-width="1.5"/><text x="242" y="764" text-anchor="middle" font-family="monospace" font-size="13" font-weight="600" fill="#0f172a">Search</text><text x="242" y="732" text-anchor="middle" font-family="monospace" font-size="10" fill="#0f172a">usecase</text><polyline class="uml-relation" data-uml-from="Runtime" data-uml-to="Login" data-uml-arrow="--&gt;" points="242,222 242,326 242,430" fill="none" stroke="#1e293b" stroke-width="2" marker-end="url(#arrow-open)" /><polyline class="uml-relation" data-uml-from="Login" data-uml-to="Search" data-uml-arrow="--&gt;" points="242,510 242,614 242,718" fill="none" stroke="#1e293b" stroke-width="2" marker-end="url(#arrow-open)" /><rect class="uml-edge-label-bg" data-uml-label-role="edge-background" x="216" y="301" width="52" height="18" fill="white" opacity="0.85"/><text class="uml-edge-label" data-uml-label-role="edge" x="242" y="314" text-anchor="middle" font-family="monospace" font-size="11" fill="#1e293b">exposes</text><rect class="uml-edge-label-bg" data-uml-label-role="edge-background" x="209" y="589" width="66" height="18" fill="white" opacity="0.85"/><text class="uml-edge-label" data-uml-label-role="edge" x="242" y="602" text-anchor="middle" font-family="monospace" font-size="11" fill="#1e293b">delegates</text></svg>