<svg xmlns="http://www.w3.org/2000/svg" width="424" height="1268" viewBox="0 0 424 1268"><rect width="100%" height="100%" fill="#f0f4f8"/><defs><marker id="arrow-open" viewBox="0 0 10 10" refX="9" refY="5" markerWidth="10" markerHeight="10" markerUnits="userSpaceOnUse" orient="auto-start-reverse"><path d="M0,0 L10,5 L0,10" fill="none" stroke="#1e293b" stroke-width="1.5"/></marker><marker id="arrow-triangle" viewBox="0 0 12 12" refX="11" refY="6" markerWidth="12" markerHeight="12" markerUnits="userSpaceOnUse" orient="auto-start-reverse"><polygon points="0,0 12,6 0,12" fill="#ffffff" stroke="#1e293b" stroke-width="1.5" fill-rule="nonzero"/></marker><marker id="arrow-diamond-filled" viewBox="0 0 14 10" refX="13" refY="5" markerWidth="14" markerHeight="10" markerUnits="userSpaceOnUse" orient="auto-start-reverse"><path d="M0,5 L7,0 L14,5 L7,10 z" fill="#1e293b" stroke="#1e293b" stroke-width="1"/></marker><marker id="arrow-diamond-open" viewBox="0 0 14 10" refX="13" refY="5" markerWidth="14" markerHeight="10" markerUnits="userSpaceOnUse" orient="auto-start-reverse"><path d="M0,5 L7,0 L14,5 L7,10 z" fill="#ffffff" stroke="#1e293b" stroke-width="1"/></marker><marker id="arrow-double-open" viewBox="0 0 16 12" refX="15" refY="6" markerWidth="16" markerHeight="12" markerUnits="userSpaceOnUse" orient="auto-start-reverse"><path d="M0,1 L8,6 L0,11 M7,1 L15,6 L7,11" fill="none" stroke="#1e293b" stroke-width="1.5" stroke-linejoin="round"/></marker><marker id="arrow-circle-open" viewBox="0 0 12 12" refX="11" refY="6" markerWidth="12" markerHeight="12" markerUnits="userSpaceOnUse" orient="auto-start-reverse"><circle cx="6" cy="6" r="4" fill="#ffffff" stroke="#1e293b" stroke-width="1.5"/></marker><marker id="arrow-circle-filled" viewBox="0 0 12 12" refX="11" refY="6" markerWidth="12" markerHeight="12" markerUnits="userSpaceOnUse" orient="auto-start-reverse"><circle cx="6" cy="6" r="4" fill="#1e293b" stroke="#1e293b" stroke-width="1.5"/></marker><marker id="arrow-triangle-filled" viewBox="0 0 12 12" refX="11" refY="6" markerWidth="12" markerHeight="12" markerUnits="userSpaceOnUse" orient="auto-start-reverse"><polygon points="0,0 12,6 0,12" fill="#1e293b" stroke="#1e293b" stroke-width="1.5"/></marker><marker id="arrow-box-filled" viewBox="0 0 12 12" refX="11" refY="6" markerWidth="12" markerHeight="12" markerUnits="userSpaceOnUse" orient="auto-start-reverse"><rect x="2" y="2" width="8" height="8" fill="#1e293b" stroke="#1e293b" stroke-width="1.5"/></marker><marker id="arrow-plus" viewBox="0 0 12 12" refX="11" refY="6" markerWidth="12" markerHeight="12" markerUnits="userSpaceOnUse" orient="auto-start-reverse"><path d="M6,1 L6,11 M1,6 L11,6" fill="none" stroke="#1e293b" stroke-width="1.8" stroke-linecap="round"/></marker><marker id="arrow-slash" viewBox="0 0 12 12" refX="10" refY="6" markerWidth="12" markerHeight="12" markerUnits="userSpaceOnUse" orient="auto-start-reverse"><path d="M3,2 L9,10" fill="none" stroke="#1e293b" stroke-width="1.8" stroke-linecap="round"/></marker></defs><text x="40" y="40" font-family="monospace" font-size="18" font-weight="600">Deployment style selectors by kind</text><desc data-uml-id="Edge">Edge</desc><path class="uml-node uml-deployment-shape" data-uml-kind="cloud" d="M166 198 C146 196, 146 170, 172 170 C178 150, 218 150, 230 168 L320 168 C340 170, 338 198, 314 198 Z" fill="#ecfeff" stroke="#0891b2" stroke-width="1.5"/><text x="242" y="188" text-anchor="middle" font-family="monospace" font-size="13" font-weight="600" fill="#164e63">Edge</text><text x="242" y="156" text-anchor="middle" font-family="monospace" font-size="10" fill="#164e63">cloud</text><desc data-uml-id="Web">Web</desc><polygon points="142,430 154,418 354,418 342,430" fill="#d4dff7" stroke="#2563eb" stroke-width="1"/><polygon points="342,430 354,418 354,498 342,510" fill="#b8c8ef" stroke="#2563eb" stroke-width="1"/><rect class="uml-node uml-deployment-shape" data-uml-kind="node" x="142" y="430" width="200" height="80" fill="#dbeafe" stroke="#2563eb" stroke-width="1.5"/><text x="242" y="476" text-anchor="middle" font-family="monospace" font-size="13" font-weight="600" fill="#1e3a8a">Web</text><text x="242" y="444" text-anchor="middle" font-family="monospace" font-size="10" fill="#1e3a8a">node</text><desc data-uml-id="Jobs">Jobs</desc><rect class="uml-node uml-deployment-shape" data-uml-kind="queue" x="154" y="718" width="176" height="80" fill="#fae8ff" stroke="none"/><path class="uml-node uml-deployment-shape" data-uml-kind="queue" d="M154 718 A12 40 0 0 0 154 798" fill="none" stroke="#a21caf" stroke-width="1.5"/><ellipse cx="330" cy="758" rx="12" ry="40" fill="#fae8ff" stroke="#a21caf" stroke-width="1.5"/><line x1="154" y1="718" x2="330" y2="718" stroke="#a21caf" stroke-width="1.5"/><line x1="154" y1="798" x2="330" y2="798" stroke="#a21caf" stroke-width="1.5"/><text x="242" y="764" text-anchor="middle" font-family="monospace" font-size="13" font-weight="600" fill="#701a75">Jobs</text><text x="242" y="732" text-anchor="middle" font-family="monospace" font-size="10" fill="#701a75">queue</text><desc data-uml-id="DB">DB</desc><path class="uml-node uml-deployment-shape" data-uml-kind="database" d="M142,1016 C142,1006 342,1006 342,1016 L342,1076 C342,1086 142,1086 142,1076 Z" fill="#fef3c7" stroke="#b45309" stroke-width="1.5"/><ellipse cx="242" cy="1016" rx="100" ry="10" fill="#fef3c7" stroke="#b45309" stroke-width="1.5"/><text x="242" y="1052" text-anchor="middle" font-family="monospace" font-size="13" font-weight="600" fill="#78350f">DB</text><text x="242" y="1020" text-anchor="middle" font-family="monospace" font-size="10" fill="#78350f">database</text><polyline class="uml-relation" data-uml-from="Edge" data-uml-to="Web" data-uml-arrow="--&gt;" points="242,222 242,326 242,430" fill="none" stroke="#1e293b" stroke-width="2" marker-end="url(#arrow-open)" /><polyline class="uml-relation" data-uml-from="Web" data-uml-to="Jobs" data-uml-arrow="--&gt;" points="242,510 242,614 242,718" fill="none" stroke="#1e293b" stroke-width="2" marker-end="url(#arrow-open)" /><polyline class="uml-relation" data-uml-from="Jobs" data-uml-to="DB" data-uml-arrow="--&gt;" points="242,798 242,902 242,1006" fill="none" stroke="#1e293b" stroke-width="2" marker-end="url(#arrow-open)" /><rect class="uml-edge-label-bg" data-uml-label-role="edge-background" x="223" y="301" width="38" height="18" fill="white" opacity="0.85"/><text class="uml-edge-label" data-uml-label-role="edge" x="242" y="314" text-anchor="middle" font-family="monospace" font-size="11" fill="#1e293b">route</text><rect class="uml-edge-label-bg" data-uml-label-role="edge-background" x="216" y="589" width="52" height="18" fill="white" opacity="0.85"/><text class="uml-edge-label" data-uml-label-role="edge" x="242" y="602" text-anchor="middle" font-family="monospace" font-size="11" fill="#1e293b">enqueue</text><rect class="uml-edge-label-bg" data-uml-label-role="edge-background" x="216" y="877" width="52" height="18" fill="white" opacity="0.85"/><text class="uml-edge-label" data-uml-label-role="edge" x="242" y="890" text-anchor="middle" font-family="monospace" font-size="11" fill="#1e293b">persist</text></svg>