<svg xmlns="http://www.w3.org/2000/svg" width="400" height="1020" viewBox="0 0 400 1020"><rect width="100%" height="100%" fill="#f0f4f8"/><defs><marker id="arrow-open" viewBox="0 0 10 10" refX="9" refY="5" markerWidth="10" markerHeight="10" markerUnits="userSpaceOnUse" orient="auto-start-reverse"><path d="M0,0 L10,5 L0,10" fill="none" stroke="#1e293b" stroke-width="1.5"/></marker><marker id="arrow-triangle" viewBox="0 0 12 12" refX="11" refY="6" markerWidth="12" markerHeight="12" markerUnits="userSpaceOnUse" orient="auto-start-reverse"><polygon points="0,0 12,6 0,12" fill="#ffffff" stroke="#1e293b" stroke-width="1.5" fill-rule="nonzero"/></marker><marker id="arrow-diamond-filled" viewBox="0 0 14 10" refX="13" refY="5" markerWidth="14" markerHeight="10" markerUnits="userSpaceOnUse" orient="auto-start-reverse"><path d="M0,5 L7,0 L14,5 L7,10 z" fill="#1e293b" stroke="#1e293b" stroke-width="1"/></marker><marker id="arrow-diamond-open" viewBox="0 0 14 10" refX="13" refY="5" markerWidth="14" markerHeight="10" markerUnits="userSpaceOnUse" orient="auto-start-reverse"><path d="M0,5 L7,0 L14,5 L7,10 z" fill="#ffffff" stroke="#1e293b" stroke-width="1"/></marker><marker id="arrow-double-open" viewBox="0 0 16 12" refX="15" refY="6" markerWidth="16" markerHeight="12" markerUnits="userSpaceOnUse" orient="auto-start-reverse"><path d="M0,1 L8,6 L0,11 M7,1 L15,6 L7,11" fill="none" stroke="#1e293b" stroke-width="1.5" stroke-linejoin="round"/></marker><marker id="arrow-circle-open" viewBox="0 0 12 12" refX="11" refY="6" markerWidth="12" markerHeight="12" markerUnits="userSpaceOnUse" orient="auto-start-reverse"><circle cx="6" cy="6" r="4" fill="#ffffff" stroke="#1e293b" stroke-width="1.5"/></marker><marker id="arrow-circle-filled" viewBox="0 0 12 12" refX="11" refY="6" markerWidth="12" markerHeight="12" markerUnits="userSpaceOnUse" orient="auto-start-reverse"><circle cx="6" cy="6" r="4" fill="#1e293b" stroke="#1e293b" stroke-width="1.5"/></marker><marker id="arrow-triangle-filled" viewBox="0 0 12 12" refX="11" refY="6" markerWidth="12" markerHeight="12" markerUnits="userSpaceOnUse" orient="auto-start-reverse"><polygon points="0,0 12,6 0,12" fill="#1e293b" stroke="#1e293b" stroke-width="1.5"/></marker><marker id="arrow-box-filled" viewBox="0 0 12 12" refX="11" refY="6" markerWidth="12" markerHeight="12" markerUnits="userSpaceOnUse" orient="auto-start-reverse"><rect x="2" y="2" width="8" height="8" fill="#1e293b" stroke="#1e293b" stroke-width="1.5"/></marker><marker id="arrow-plus" viewBox="0 0 12 12" refX="11" refY="6" markerWidth="12" markerHeight="12" markerUnits="userSpaceOnUse" orient="auto-start-reverse"><path d="M6,1 L6,11 M1,6 L11,6" fill="none" stroke="#1e293b" stroke-width="1.8" stroke-linecap="round"/></marker><marker id="arrow-slash" viewBox="0 0 12 12" refX="10" refY="6" markerWidth="12" markerHeight="12" markerUnits="userSpaceOnUse" orient="auto-start-reverse"><path d="M3,2 L9,10" fill="none" stroke="#1e293b" stroke-width="1.8" stroke-linecap="round"/></marker><marker id="arrow-cross" viewBox="0 0 12 12" refX="11" refY="6" markerWidth="12" markerHeight="12" markerUnits="userSpaceOnUse" orient="auto-start-reverse"><path d="M2,2 L10,10 M10,2 L2,10" fill="none" stroke="#1e293b" stroke-width="1.8" stroke-linecap="round"/></marker><marker id="arrow-bracket-open" viewBox="0 0 12 14" refX="11" refY="7" markerWidth="12" markerHeight="14" markerUnits="userSpaceOnUse" orient="auto-start-reverse"><path d="M10,1 L4,1 L4,13 L10,13" fill="none" stroke="#1e293b" stroke-width="1.8" stroke-linecap="round" stroke-linejoin="round"/></marker></defs><marker id="arrow-ie-one" viewBox="0 0 24 16" refX="22" refY="8" markerWidth="24" markerHeight="16" markerUnits="userSpaceOnUse" orient="auto-start-reverse"><path d="M16,2 L16,14" fill="none" stroke="#1e293b" stroke-width="1.8" stroke-linecap="round"/></marker><marker id="arrow-ie-zero-one" viewBox="0 0 30 16" refX="28" refY="8" markerWidth="30" markerHeight="16" markerUnits="userSpaceOnUse" orient="auto-start-reverse"><circle cx="10" cy="8" r="4" fill="#ffffff" stroke="#1e293b" stroke-width="1.5"/><path d="M20,2 L20,14" fill="none" stroke="#1e293b" stroke-width="1.8" stroke-linecap="round"/></marker><marker id="arrow-ie-zero-many" viewBox="0 0 34 18" refX="32" refY="9" markerWidth="34" markerHeight="18" markerUnits="userSpaceOnUse" orient="auto-start-reverse"><circle cx="8" cy="9" r="4" fill="#ffffff" stroke="#1e293b" stroke-width="1.5"/><path d="M18,9 L31,2 M18,9 L31,9 M18,9 L31,16" fill="none" stroke="#1e293b" stroke-width="1.7" stroke-linecap="round"/></marker><marker id="arrow-ie-one-many" viewBox="0 0 34 18" refX="32" refY="9" markerWidth="34" markerHeight="18" markerUnits="userSpaceOnUse" orient="auto-start-reverse"><path d="M8,2 L8,16 M18,9 L31,2 M18,9 L31,9 M18,9 L31,16" fill="none" stroke="#1e293b" stroke-width="1.7" stroke-linecap="round"/></marker><text x="8" y="8" font-family="monospace" font-size="18" font-weight="600">Deployment style selectors by kind</text><desc data-uml-id="Edge">Edge</desc><path class="uml-node uml-deployment-shape" data-uml-kind="cloud" d="M122 154 C102 152, 102 126, 128 126 C134 106, 174 106, 186 124 L276 124 C296 126, 294 154, 270 154 Z" fill="#ecfeff" stroke="#0891b2" stroke-width="1.5"/><text x="198" y="144" text-anchor="middle" font-family="monospace" font-size="13" font-weight="600" fill="#164e63">Edge</text><desc data-uml-id="Web">Web</desc><polygon points="98,342 110,330 310,330 298,342" fill="#d4dff7" stroke="#2563eb" stroke-width="1"/><polygon points="298,342 310,330 310,410 298,422" fill="#b8c8ef" stroke="#2563eb" stroke-width="1"/><rect class="uml-node uml-deployment-shape" data-uml-kind="node" x="98" y="342" width="200" height="80" fill="#dbeafe" stroke="#2563eb" stroke-width="1.5"/><text x="198" y="388" text-anchor="middle" font-family="monospace" font-size="13" font-weight="600" fill="#1e3a8a">Web</text><desc data-uml-id="Jobs">Jobs</desc><rect class="uml-node uml-deployment-shape" data-uml-kind="queue" x="110" y="586" width="176" height="80" fill="#fae8ff" stroke="none"/><path class="uml-node uml-deployment-shape" data-uml-kind="queue" d="M110 586 A12 40 0 0 0 110 666" fill="none" stroke="#a21caf" stroke-width="1.5"/><ellipse cx="286" cy="626" rx="12" ry="40" fill="#fae8ff" stroke="#a21caf" stroke-width="1.5"/><line x1="110" y1="586" x2="286" y2="586" stroke="#a21caf" stroke-width="1.5"/><line x1="110" y1="666" x2="286" y2="666" stroke="#a21caf" stroke-width="1.5"/><text x="198" y="632" text-anchor="middle" font-family="monospace" font-size="13" font-weight="600" fill="#701a75">Jobs</text><desc data-uml-id="DB">DB</desc><path class="uml-node uml-deployment-shape" data-uml-kind="database" d="M98,840 C98,830 298,830 298,840 L298,900 C298,910 98,910 98,900 Z" fill="#fef3c7" stroke="#b45309" stroke-width="1.5"/><ellipse cx="198" cy="840" rx="100" ry="10" fill="#fef3c7" stroke="#b45309" stroke-width="1.5"/><text x="198" y="876" text-anchor="middle" font-family="monospace" font-size="13" font-weight="600" fill="#78350f">DB</text><polyline class="uml-relation" data-uml-from="Edge" data-uml-to="Web" data-uml-arrow="--&gt;" points="198,178 198,260 198,342" fill="none" stroke="#1e293b" stroke-width="2" marker-end="url(#arrow-open)" /><polyline class="uml-relation" data-uml-from="Web" data-uml-to="Jobs" data-uml-arrow="--&gt;" points="198,422 198,504 198,586" fill="none" stroke="#1e293b" stroke-width="2" marker-end="url(#arrow-open)" /><polyline class="uml-relation" data-uml-from="Jobs" data-uml-to="DB" data-uml-arrow="--&gt;" points="198,666 198,748 198,830" fill="none" stroke="#1e293b" stroke-width="2" marker-end="url(#arrow-open)" /><rect class="uml-edge-label-bg" data-uml-label-role="edge-background" x="191" y="288" width="38" height="18" fill="white" opacity="0.85"/><text class="uml-edge-label" data-uml-label-role="edge" x="210" y="301" text-anchor="middle" font-family="monospace" font-size="11" fill="#1e293b">route</text><rect class="uml-edge-label-bg" data-uml-label-role="edge-background" x="184" y="532" width="52" height="18" fill="white" opacity="0.85"/><text class="uml-edge-label" data-uml-label-role="edge" x="210" y="545" text-anchor="middle" font-family="monospace" font-size="11" fill="#1e293b">enqueue</text><rect class="uml-edge-label-bg" data-uml-label-role="edge-background" x="184" y="776" width="52" height="18" fill="white" opacity="0.85"/><text class="uml-edge-label" data-uml-label-role="edge" x="210" y="789" text-anchor="middle" font-family="monospace" font-size="11" fill="#1e293b">persist</text></svg>