<svg xmlns="http://www.w3.org/2000/svg" width="868" height="180" viewBox="0 0 868 180"><rect width="100%" height="100%" fill="white"/><rect x="24" y="24" width="220" height="42" rx="6" ry="6" fill="#f6f6f6" stroke="#111" stroke-width="1"/><text x="36" y="36" font-family="monospace" font-size="12" fill="#0f172a">Project</text><rect x="24" y="114" width="220" height="42" rx="6" ry="6" fill="#f6f6f6" stroke="#111" stroke-width="1"/><text x="36" y="126" font-family="monospace" font-size="12" fill="#0f172a">Planning</text><rect x="324" y="114" width="220" height="42" rx="6" ry="6" fill="#f6f6f6" stroke="#111" stroke-width="1"/><text x="336" y="126" font-family="monospace" font-size="12" fill="#0f172a">Development</text><rect x="624" y="114" width="220" height="42" rx="6" ry="6" fill="#f6f6f6" stroke="#111" stroke-width="1"/><text x="636" y="126" font-family="monospace" font-size="12" fill="#0f172a">Testing</text><line x1="134" y1="66" x2="134" y2="114" stroke="#111" stroke-width="1.5"/><polygon points="134,114 128,108 140,108" fill="#111"/><line x1="134" y1="66" x2="434" y2="114" stroke="#111" stroke-width="1.5"/><polygon points="434,114 428,108 428,120" fill="#111"/><line x1="134" y1="66" x2="734" y2="114" stroke="#111" stroke-width="1.5"/><polygon points="734,114 728,108 728,120" fill="#111"/><text x="24" y="168" font-family="monospace" font-size="11" fill="#475569">relationships: 3</text></svg>