<svg xmlns="http://www.w3.org/2000/svg" width="868" height="270" viewBox="0 0 868 270"><rect width="100%" height="100%" fill="white"/><rect x="24" y="24" width="220" height="42" rx="6" ry="6" fill="#f6f6f6" stroke="#111" stroke-width="1"/><text x="36" y="36" font-family="monospace" font-size="12" fill="#0f172a">Root</text><rect x="24" y="114" width="220" height="42" rx="6" ry="6" fill="#f6f6f6" stroke="#111" stroke-width="1"/><text x="36" y="126" font-family="monospace" font-size="12" fill="#0f172a">Branch A</text><rect x="24" y="204" width="220" height="42" rx="6" ry="6" fill="#f6f6f6" stroke="#111" stroke-width="1"/><text x="36" y="216" font-family="monospace" font-size="12" fill="#0f172a">Leaf 1</text><rect x="324" y="204" width="220" height="42" rx="6" ry="6" fill="#f6f6f6" stroke="#111" stroke-width="1"/><text x="336" y="216" font-family="monospace" font-size="12" fill="#0f172a">Leaf 2</text><rect x="324" y="114" width="220" height="42" rx="6" ry="6" fill="#f6f6f6" stroke="#111" stroke-width="1"/><text x="336" y="126" font-family="monospace" font-size="12" fill="#0f172a">Branch B</text><rect x="624" y="204" width="220" height="42" rx="6" ry="6" fill="#f6f6f6" stroke="#111" stroke-width="1"/><text x="636" y="216" font-family="monospace" font-size="12" fill="#0f172a">Leaf 3</text><line x1="134" y1="66" x2="134" y2="114" stroke="#111" stroke-width="1.5"/><polygon points="134,114 128,108 140,108" fill="#111"/><line x1="134" y1="156" x2="134" y2="204" stroke="#111" stroke-width="1.5"/><polygon points="134,204 128,198 140,198" fill="#111"/><line x1="134" y1="156" x2="434" y2="204" stroke="#111" stroke-width="1.5"/><polygon points="434,204 428,198 428,210" fill="#111"/><line x1="134" y1="66" x2="434" y2="114" stroke="#111" stroke-width="1.5"/><polygon points="434,114 428,108 428,120" fill="#111"/><line x1="434" y1="156" x2="734" y2="204" stroke="#111" stroke-width="1.5"/><polygon points="734,204 728,198 728,210" fill="#111"/><text x="24" y="258" font-family="monospace" font-size="11" fill="#475569">relationships: 5</text></svg>