<svg xmlns="http://www.w3.org/2000/svg" width="2368" height="270" viewBox="0 0 2368 270"><rect width="100%" height="100%" fill="white"/><rect x="24" y="24" width="220" height="42" rx="6" ry="6" fill="#f6f6f6" stroke="#111" stroke-width="1"/><text x="36" y="36" font-family="monospace" font-size="12" fill="#0f172a">Learning Rust</text><rect x="24" y="114" width="220" height="42" rx="6" ry="6" fill="#f6f6f6" stroke="#111" stroke-width="1"/><text x="36" y="126" font-family="monospace" font-size="12" fill="#0f172a">Ownership</text><rect x="24" y="204" width="220" height="42" rx="6" ry="6" fill="#f6f6f6" stroke="#111" stroke-width="1"/><text x="36" y="216" font-family="monospace" font-size="12" fill="#0f172a">Borrowing</text><rect x="324" y="204" width="220" height="42" rx="6" ry="6" fill="#f6f6f6" stroke="#111" stroke-width="1"/><text x="336" y="216" font-family="monospace" font-size="12" fill="#0f172a">Lifetimes</text><rect x="324" y="114" width="220" height="42" rx="6" ry="6" fill="#f6f6f6" stroke="#111" stroke-width="1"/><text x="336" y="126" font-family="monospace" font-size="12" fill="#0f172a">Traits</text><rect x="624" y="204" width="220" height="42" rx="6" ry="6" fill="#f6f6f6" stroke="#111" stroke-width="1"/><text x="636" y="216" font-family="monospace" font-size="12" fill="#0f172a">Generics</text><rect x="924" y="204" width="220" height="42" rx="6" ry="6" fill="#f6f6f6" stroke="#111" stroke-width="1"/><text x="936" y="216" font-family="monospace" font-size="12" fill="#0f172a">Associated Types</text><rect x="624" y="114" width="220" height="42" rx="6" ry="6" fill="#f6f6f6" stroke="#111" stroke-width="1"/><text x="636" y="126" font-family="monospace" font-size="12" fill="#0f172a">Async</text><rect x="1224" y="204" width="220" height="42" rx="6" ry="6" fill="#f6f6f6" stroke="#111" stroke-width="1"/><text x="1236" y="216" font-family="monospace" font-size="12" fill="#0f172a">Tokio</text><rect x="1524" y="204" width="220" height="42" rx="6" ry="6" fill="#f6f6f6" stroke="#111" stroke-width="1"/><text x="1536" y="216" font-family="monospace" font-size="12" fill="#0f172a">Futures</text><rect x="924" y="114" width="220" height="42" rx="6" ry="6" fill="#f6f6f6" stroke="#111" stroke-width="1"/><text x="936" y="126" font-family="monospace" font-size="12" fill="#0f172a">Tools</text><rect x="1824" y="204" width="220" height="42" rx="6" ry="6" fill="#f6f6f6" stroke="#111" stroke-width="1"/><text x="1836" y="216" font-family="monospace" font-size="12" fill="#0f172a">Cargo</text><rect x="2124" y="204" width="220" height="42" rx="6" ry="6" fill="#f6f6f6" stroke="#111" stroke-width="1"/><text x="2136" y="216" font-family="monospace" font-size="12" fill="#0f172a">Clippy</text><line x1="134" y1="66" x2="134" y2="114" stroke="#111" stroke-width="1.5"/><polygon points="134,114 128,108 140,108" fill="#111"/><line x1="134" y1="156" x2="134" y2="204" stroke="#111" stroke-width="1.5"/><polygon points="134,204 128,198 140,198" fill="#111"/><line x1="134" y1="156" x2="434" y2="204" stroke="#111" stroke-width="1.5"/><polygon points="434,204 428,198 428,210" fill="#111"/><line x1="134" y1="66" x2="434" y2="114" stroke="#111" stroke-width="1.5"/><polygon points="434,114 428,108 428,120" fill="#111"/><line x1="434" y1="156" x2="734" y2="204" stroke="#111" stroke-width="1.5"/><polygon points="734,204 728,198 728,210" fill="#111"/><line x1="434" y1="156" x2="1034" y2="204" stroke="#111" stroke-width="1.5"/><polygon points="1034,204 1028,198 1028,210" fill="#111"/><line x1="134" y1="66" x2="734" y2="114" stroke="#111" stroke-width="1.5"/><polygon points="734,114 728,108 728,120" fill="#111"/><line x1="734" y1="156" x2="1334" y2="204" stroke="#111" stroke-width="1.5"/><polygon points="1334,204 1328,198 1328,210" fill="#111"/><line x1="734" y1="156" x2="1634" y2="204" stroke="#111" stroke-width="1.5"/><polygon points="1634,204 1628,198 1628,210" fill="#111"/><line x1="134" y1="66" x2="1034" y2="114" stroke="#111" stroke-width="1.5"/><polygon points="1034,114 1028,108 1028,120" fill="#111"/><line x1="1034" y1="156" x2="1934" y2="204" stroke="#111" stroke-width="1.5"/><polygon points="1934,204 1928,198 1928,210" fill="#111"/><line x1="1034" y1="156" x2="2234" y2="204" stroke="#111" stroke-width="1.5"/><polygon points="2234,204 2228,198 2228,210" fill="#111"/><text x="24" y="258" font-family="monospace" font-size="11" fill="#475569">relationships: 12</text></svg>