<svg xmlns="http://www.w3.org/2000/svg" width="200" height="133" viewBox="0 0 200 133"><rect width="100%" height="100%" fill="white"/><defs><marker id="math-arrow" markerWidth="7" markerHeight="5" refX="6" refY="2.5" orient="auto"><path d="M0,0 L0,5 L7,2.5 z" fill="#333"/></marker></defs><rect x="28" y="20" width="142" height="93" rx="4" fill="#f9f9f9" stroke="#ddd" stroke-width="1"/><g transform="translate(38,30)"><g transform="translate(0,0)"><g transform="translate(8.030000000000001,0)"><g transform="translate(0,0)"><text x="0" y="10.4" font-family="serif" font-size="13" fill="#111">∞</text></g></g><text x="12.32" y="43.2" font-family="serif" font-size="32" fill="#111" text-anchor="middle">∫</text><g transform="translate(8.745000000000001,58)"><g transform="translate(0,0)"><text x="0" y="10.4" font-family="serif" font-size="13" fill="#111">0</text></g></g></g><g transform="translate(24.64,19.94)"><g transform="translate(0,7.260000000000002)"><text x="0" y="16" font-family="serif" font-size="20" fill="#111">e</text><g transform="translate(11,0)"><g transform="translate(0,2.860000000000001)"><text x="0" y="10.4" font-family="serif" font-size="13" fill="#111">-</text></g><g transform="translate(7.15,0)"><g transform="translate(0,2.860000000000001)"><text x="0" y="10.4" font-family="serif" font-size="13" fill="#111">x</text><g transform="translate(7.15,0)"><text x="0" y="6.760000000000002" font-family="serif" font-size="8.450000000000001" fill="#111">2</text></g></g></g></g></g></g><g transform="translate(54.587500000000006,27.200000000000003)"><text x="0" y="16" font-family="serif" font-size="20" fill="#111">d</text></g><g transform="translate(65.5875,27.200000000000003)"><text x="0" y="16" font-family="serif" font-size="20" fill="#111">x</text></g><g transform="translate(76.5875,27.200000000000003)"><text x="0" y="16" font-family="serif" font-size="20" fill="#111">=</text></g><g transform="translate(87.5875,9.800000000000004)"><g transform="translate(4,0)"><g transform="translate(0,0)"><path d="M 0,21.299999999999997 L 4,28.4 L 8,4 L 26.22,4" fill="none" stroke="#333" stroke-width="1.5"/><g transform="translate(12,4)"><g transform="translate(0,0)"><text x="0" y="13.600000000000001" font-family="serif" font-size="17" fill="#111">π</text></g></g></g></g><line x1="0" y1="33.4" x2="35.22" y2="33.4" stroke="#333" stroke-width="1.2"/><g transform="translate(12.934999999999999,38.4)"><g transform="translate(0,0)"><text x="0" y="13.600000000000001" font-family="serif" font-size="17" fill="#111">2</text></g></g></g></g></svg>