<svg xmlns="http://www.w3.org/2000/svg" width="800" height="294" viewBox="0 0 800 294"><rect width="100%" height="100%" fill="white"/><text x="32" y="28" font-family="monospace" font-size="18" font-weight="600" fill="#0f172a">Project Timeline</text><rect x="204" y="70" width="564" height="28" fill="#f1f5f9" stroke="#cbd5e1" stroke-width="1"/><line x1="204" y1="70" x2="204" y2="254" stroke="#e2e8f0" stroke-width="1"/><text x="210" y="88" font-family="monospace" font-size="11" fill="#475569">D+0</text><line x1="392" y1="70" x2="392" y2="254" stroke="#e2e8f0" stroke-width="1"/><text x="398" y="88" font-family="monospace" font-size="11" fill="#475569">D+1</text><line x1="580" y1="70" x2="580" y2="254" stroke="#e2e8f0" stroke-width="1"/><text x="586" y="88" font-family="monospace" font-size="11" fill="#475569">D+2</text><line x1="768" y1="70" x2="768" y2="254" stroke="#e2e8f0" stroke-width="1"/><text x="774" y="88" font-family="monospace" font-size="11" fill="#475569">D+3</text><text x="32" y="119" font-family="monospace" font-size="12" fill="#0f172a">Design</text><rect x="204" y="105" width="188" height="20" rx="3" ry="3" fill="#3b82f6" stroke="#1e40af" stroke-width="1"/><text x="32" y="153" font-family="monospace" font-size="12" fill="#0f172a">Build</text><rect x="392" y="139" width="188" height="20" rx="3" ry="3" fill="#3b82f6" stroke="#1e40af" stroke-width="1"/><text x="32" y="187" font-family="monospace" font-size="12" fill="#0f172a">Test</text><rect x="580" y="173" width="188" height="20" rx="3" ry="3" fill="#3b82f6" stroke="#1e40af" stroke-width="1"/><text x="32" y="221" font-family="monospace" font-size="12" fill="#0f172a">Kickoff</text><polygon points="486,209 494,217 486,225 478,217" fill="#facc15" stroke="#854d0e" stroke-width="1.5"/><line x1="486" y1="159" x2="298" y2="105" stroke="#64748b" stroke-width="1.25" stroke-dasharray="4 3" marker-end="url(#gantt-arrow)"/><line x1="674" y1="193" x2="486" y2="139" stroke="#64748b" stroke-width="1.25" stroke-dasharray="4 3" marker-end="url(#gantt-arrow)"/><defs><marker id="gantt-arrow" viewBox="0 0 10 10" refX="9" refY="5" markerWidth="8" markerHeight="8" orient="auto-start-reverse"><path d="M0,0 L10,5 L0,10 z" fill="#64748b"/></marker></defs><text x="32" y="264" font-family="monospace" font-size="11" fill="#475569">Design starts starts 2026-01-02</text><text x="32" y="278" font-family="monospace" font-size="11" fill="#475569">Build starts starts 2026-01-15</text><text x="32" y="292" font-family="monospace" font-size="11" fill="#475569">Build requires requires [Design]</text><text x="32" y="306" font-family="monospace" font-size="11" fill="#475569">Test starts starts 2026-02-01</text><text x="32" y="320" font-family="monospace" font-size="11" fill="#475569">Test requires requires [Build]</text></svg>