<svg xmlns="http://www.w3.org/2000/svg" width="800" height="294" viewBox="0 0 800 294"><rect width="100%" height="100%" fill="white"/><metadata data-gantt-resource-count="0" data-gantt-separator-count="0"/><text x="32" y="28" font-family="monospace" font-size="18" font-weight="600" fill="#0f172a">Project Timeline</text><rect x="204" y="70" width="564" height="28" fill="#f1f5f9" stroke="#cbd5e1" stroke-width="1"/><line x1="204" y1="70" x2="204" y2="254" stroke="#e2e8f0" stroke-width="1"/><text class="gantt-scale-tick" data-gantt-tick-day="2026-01-01" x="210" y="88" font-family="monospace" font-size="11" fill="#475569">2026-01-01</text><line x1="221" y1="70" x2="221" y2="254" stroke="#e2e8f0" stroke-width="1"/><text class="gantt-scale-tick" data-gantt-tick-day="2026-01-02" x="227" y="88" font-family="monospace" font-size="11" fill="#475569">2026-01-02</text><line x1="239" y1="70" x2="239" y2="254" stroke="#e2e8f0" stroke-width="1"/><text class="gantt-scale-tick" data-gantt-tick-day="2026-01-03" x="245" y="88" font-family="monospace" font-size="11" fill="#475569">2026-01-03</text><line x1="256" y1="70" x2="256" y2="254" stroke="#e2e8f0" stroke-width="1"/><text class="gantt-scale-tick" data-gantt-tick-day="2026-01-04" x="262" y="88" font-family="monospace" font-size="11" fill="#475569">2026-01-04</text><line x1="274" y1="70" x2="274" y2="254" stroke="#e2e8f0" stroke-width="1"/><text class="gantt-scale-tick" data-gantt-tick-day="2026-01-05" x="280" y="88" font-family="monospace" font-size="11" fill="#475569">2026-01-05</text><line x1="292" y1="70" x2="292" y2="254" stroke="#e2e8f0" stroke-width="1"/><text class="gantt-scale-tick" data-gantt-tick-day="2026-01-06" x="298" y="88" font-family="monospace" font-size="11" fill="#475569">2026-01-06</text><line x1="309" y1="70" x2="309" y2="254" stroke="#e2e8f0" stroke-width="1"/><text class="gantt-scale-tick" data-gantt-tick-day="2026-01-07" x="315" y="88" font-family="monospace" font-size="11" fill="#475569">2026-01-07</text><line x1="327" y1="70" x2="327" y2="254" stroke="#e2e8f0" stroke-width="1"/><text class="gantt-scale-tick" data-gantt-tick-day="2026-01-08" x="333" y="88" font-family="monospace" font-size="11" fill="#475569">2026-01-08</text><line x1="397" y1="70" x2="397" y2="254" stroke="#e2e8f0" stroke-width="1"/><text class="gantt-scale-tick" data-gantt-tick-day="2026-01-12" x="403" y="88" font-family="monospace" font-size="11" fill="#475569">2026-01-12</text><line x1="468" y1="70" x2="468" y2="254" stroke="#e2e8f0" stroke-width="1"/><text class="gantt-scale-tick" data-gantt-tick-day="2026-01-16" x="474" y="88" font-family="monospace" font-size="11" fill="#475569">2026-01-16</text><line x1="521" y1="70" x2="521" y2="254" stroke="#e2e8f0" stroke-width="1"/><text class="gantt-scale-tick" data-gantt-tick-day="2026-01-19" x="527" y="88" font-family="monospace" font-size="11" fill="#475569">2026-01-19</text><line x1="574" y1="70" x2="574" y2="254" stroke="#e2e8f0" stroke-width="1"/><text class="gantt-scale-tick" data-gantt-tick-day="2026-01-22" x="580" y="88" font-family="monospace" font-size="11" fill="#475569">2026-01-22</text><line x1="627" y1="70" x2="627" y2="254" stroke="#e2e8f0" stroke-width="1"/><text class="gantt-scale-tick" data-gantt-tick-day="2026-01-25" x="633" y="88" font-family="monospace" font-size="11" fill="#475569">2026-01-25</text><line x1="662" y1="70" x2="662" y2="254" stroke="#e2e8f0" stroke-width="1"/><text class="gantt-scale-tick" data-gantt-tick-day="2026-01-27" x="668" y="88" font-family="monospace" font-size="11" fill="#475569">2026-01-27</text><line x1="697" y1="70" x2="697" y2="254" stroke="#e2e8f0" stroke-width="1"/><text class="gantt-scale-tick" data-gantt-tick-day="2026-01-29" x="703" y="88" font-family="monospace" font-size="11" fill="#475569">2026-01-29</text><line x1="732" y1="70" x2="732" y2="254" stroke="#e2e8f0" stroke-width="1"/><text class="gantt-scale-tick" data-gantt-tick-day="2026-01-31" x="738" y="88" font-family="monospace" font-size="11" fill="#475569">2026-01-31</text><line x1="768" y1="70" x2="768" y2="254" stroke="#e2e8f0" stroke-width="1"/><text class="gantt-scale-tick" data-gantt-tick-day="2026-02-02" x="774" y="88" font-family="monospace" font-size="11" fill="#475569">2026-02-02</text><text x="32" y="119" font-family="monospace" font-size="12" fill="#0f172a">Design</text><rect class="gantt-task" data-gantt-start="2026-01-02" data-gantt-workload="1" data-gantt-duration="1" data-gantt-resources="" data-gantt-load="" x="221" y="105" width="17" height="20" rx="3" ry="3" fill="#3b82f6" stroke="#1e40af" stroke-width="1"/><text x="32" y="153" font-family="monospace" font-size="12" fill="#0f172a">Build</text><rect class="gantt-task" data-gantt-start="2026-01-15" data-gantt-workload="1" data-gantt-duration="1" data-gantt-resources="" data-gantt-load="" x="450" y="139" width="17" height="20" rx="3" ry="3" fill="#3b82f6" stroke="#1e40af" stroke-width="1"/><text x="32" y="187" font-family="monospace" font-size="12" fill="#0f172a">Test</text><rect class="gantt-task" data-gantt-start="2026-02-01" data-gantt-workload="1" data-gantt-duration="1" data-gantt-resources="" data-gantt-load="" x="750" y="173" width="17" height="20" rx="3" ry="3" fill="#3b82f6" stroke="#1e40af" stroke-width="1"/><text x="32" y="221" font-family="monospace" font-size="12" fill="#0f172a">Kickoff</text><polygon class="gantt-milestone" points="204,209 212,217 204,225 196,217" fill="#facc15" stroke="#854d0e" stroke-width="1.5"/><line class="gantt-dependency gantt-dependency-requires" data-gantt-from="Design" data-gantt-to="Build" x1="238" y1="115" x2="450" y2="149" stroke="#64748b" stroke-width="1.25" stroke-dasharray="4 3" marker-end="url(#gantt-arrow)"/><line class="gantt-dependency gantt-dependency-requires" data-gantt-from="Build" data-gantt-to="Test" x1="467" y1="149" x2="750" y2="183" stroke="#64748b" stroke-width="1.25" stroke-dasharray="4 3" marker-end="url(#gantt-arrow)"/><defs><marker id="gantt-arrow" viewBox="0 0 10 10" refX="9" refY="5" markerWidth="8" markerHeight="8" orient="auto-start-reverse"><path d="M0,0 L10,5 L0,10 z" fill="#64748b"/></marker></defs><text x="32" y="264" font-family="monospace" font-size="11" fill="#475569">Kickoff happens 2026-01-01</text></svg>