<svg xmlns="http://www.w3.org/2000/svg" width="880" height="294" viewBox="0 0 880 294"><rect width="100%" height="100%" fill="white"/><metadata data-gantt-resource-count="0" data-gantt-separator-count="0"/><text x="32" y="28" font-family="monospace" font-size="18" font-weight="600" fill="#0f172a">Project Timeline</text><rect x="204" y="70" width="564" height="28" fill="#f1f5f9" stroke="#cbd5e1" stroke-width="1"/><line x1="204" y1="70" x2="204" y2="254" stroke="#e2e8f0" stroke-width="1"/><text class="gantt-scale-tick" data-gantt-tick-day="2026-01-01" x="210" y="88" font-family="monospace" font-size="11" fill="#475569">2026-01-01</text><line x1="291" y1="70" x2="291" y2="254" stroke="#e2e8f0" stroke-width="1"/><text class="gantt-scale-tick" data-gantt-tick-day="2026-01-08" x="297" y="88" font-family="monospace" font-size="11" fill="#475569">2026-01-08</text><line x1="379" y1="70" x2="379" y2="254" stroke="#e2e8f0" stroke-width="1"/><text class="gantt-scale-tick" data-gantt-tick-day="2026-01-15" x="385" y="88" font-family="monospace" font-size="11" fill="#475569">2026-01-15</text><line x1="467" y1="70" x2="467" y2="254" stroke="#e2e8f0" stroke-width="1"/><text class="gantt-scale-tick" data-gantt-tick-day="2026-01-22" x="473" y="88" font-family="monospace" font-size="11" fill="#475569">2026-01-22</text><line x1="554" y1="70" x2="554" y2="254" stroke="#e2e8f0" stroke-width="1"/><text class="gantt-scale-tick" data-gantt-tick-day="2026-01-29" x="560" y="88" font-family="monospace" font-size="11" fill="#475569">2026-01-29</text><line x1="642" y1="70" x2="642" y2="254" stroke="#e2e8f0" stroke-width="1"/><text class="gantt-scale-tick" data-gantt-tick-day="2026-02-05" x="648" y="88" font-family="monospace" font-size="11" fill="#475569">2026-02-05</text><line x1="730" y1="70" x2="730" y2="254" stroke="#e2e8f0" stroke-width="1"/><text class="gantt-scale-tick" data-gantt-tick-day="2026-02-12" x="736" y="88" font-family="monospace" font-size="11" fill="#475569">2026-02-12</text><text x="32" y="119" font-family="monospace" font-size="12" fill="#0f172a">Design</text><rect class="gantt-task" data-gantt-start="2026-01-02" data-gantt-workload="14" data-gantt-duration="14" data-gantt-resources="" data-gantt-load="" x="216" y="105" width="175" height="20" rx="3" ry="3" fill="#3b82f6" stroke="#1e40af" stroke-width="1"/><text x="32" y="153" font-family="monospace" font-size="12" fill="#0f172a">Build</text><rect class="gantt-task" data-gantt-start="2026-01-16" data-gantt-workload="14" data-gantt-duration="14" data-gantt-resources="" data-gantt-load="" x="392" y="139" width="200" height="20" rx="3" ry="3" fill="#3b82f6" stroke="#1e40af" stroke-width="1"/><text x="32" y="187" font-family="monospace" font-size="12" fill="#0f172a">Test</text><rect class="gantt-task" data-gantt-start="2026-02-01" data-gantt-workload="14" data-gantt-duration="14" data-gantt-resources="" data-gantt-load="" x="592" y="173" width="175" height="20" rx="3" ry="3" fill="#3b82f6" stroke="#1e40af" stroke-width="1"/><text x="32" y="221" font-family="monospace" font-size="12" fill="#0f172a">Kickoff</text><polygon class="gantt-milestone" points="212,209 220,217 212,225 204,217" fill="#facc15" stroke="#854d0e" stroke-width="1.5"/><line class="gantt-dependency gantt-dependency-requires" data-gantt-from="Design" data-gantt-to="Build" x1="391" y1="115" x2="392" y2="149" stroke="#64748b" stroke-width="1.25" stroke-dasharray="4 3" marker-end="url(#gantt-arrow)"/><line class="gantt-dependency gantt-dependency-requires" data-gantt-from="Build" data-gantt-to="Test" x1="592" y1="149" x2="592" y2="183" stroke="#64748b" stroke-width="1.25" stroke-dasharray="4 3" marker-end="url(#gantt-arrow)"/><defs><marker id="gantt-arrow" viewBox="0 0 10 10" refX="9" refY="5" markerWidth="8" markerHeight="8" orient="auto-start-reverse"><path d="M0,0 L10,5 L0,10 z" fill="#64748b"/></marker></defs><text x="32" y="264" font-family="monospace" font-size="11" fill="#475569">Kickoff happens 2026-01-01</text></svg>