<svg xmlns="http://www.w3.org/2000/svg" width="880" height="294" viewBox="0 0 880 294"><rect width="100%" height="100%" fill="white"/><metadata data-gantt-resource-count="0" data-gantt-separator-count="0"/><text x="32" y="28" font-family="monospace" font-size="18" font-weight="600" fill="#0f172a">Release Plan</text><rect x="204" y="70" width="564" height="28" fill="#f1f5f9" stroke="#cbd5e1" stroke-width="1"/><line x1="204" y1="70" x2="204" y2="254" stroke="#e2e8f0" stroke-width="1"/><text class="gantt-scale-tick" data-gantt-tick-day="2026-02-01" x="210" y="88" font-family="monospace" font-size="11" fill="#475569">2026-02-01</text><line x1="291" y1="70" x2="291" y2="254" stroke="#e2e8f0" stroke-width="1"/><text class="gantt-scale-tick" data-gantt-tick-day="2026-02-15" x="297" y="88" font-family="monospace" font-size="11" fill="#475569">2026-02-15</text><line x1="379" y1="70" x2="379" y2="254" stroke="#e2e8f0" stroke-width="1"/><text class="gantt-scale-tick" data-gantt-tick-day="2026-03-01" x="385" y="88" font-family="monospace" font-size="11" fill="#475569">2026-03-01</text><line x1="467" y1="70" x2="467" y2="254" stroke="#e2e8f0" stroke-width="1"/><text class="gantt-scale-tick" data-gantt-tick-day="2026-03-15" x="473" y="88" font-family="monospace" font-size="11" fill="#475569">2026-03-15</text><line x1="554" y1="70" x2="554" y2="254" stroke="#e2e8f0" stroke-width="1"/><text class="gantt-scale-tick" data-gantt-tick-day="2026-03-29" x="560" y="88" font-family="monospace" font-size="11" fill="#475569">2026-03-29</text><line x1="642" y1="70" x2="642" y2="254" stroke="#e2e8f0" stroke-width="1"/><text class="gantt-scale-tick" data-gantt-tick-day="2026-04-12" x="648" y="88" font-family="monospace" font-size="11" fill="#475569">2026-04-12</text><line x1="730" y1="70" x2="730" y2="254" stroke="#e2e8f0" stroke-width="1"/><text class="gantt-scale-tick" data-gantt-tick-day="2026-04-26" x="736" y="88" font-family="monospace" font-size="11" fill="#475569">2026-04-26</text><line x1="761" y1="70" x2="761" y2="254" stroke="#e2e8f0" stroke-width="1"/><text class="gantt-scale-tick" data-gantt-tick-day="2026-05-01" x="767" y="88" font-family="monospace" font-size="11" fill="#475569">2026-05-01</text><text x="32" y="119" font-family="monospace" font-size="12" fill="#0f172a">Alpha</text><polygon class="gantt-milestone" points="212,107 220,115 212,123 204,115" fill="#facc15" stroke="#854d0e" stroke-width="1.5"/><text x="32" y="153" font-family="monospace" font-size="12" fill="#0f172a">Beta</text><polygon class="gantt-milestone" points="379,141 387,149 379,157 371,149" fill="#facc15" stroke="#854d0e" stroke-width="1.5"/><text x="32" y="187" font-family="monospace" font-size="12" fill="#0f172a">RC1</text><polygon class="gantt-milestone" points="573,175 581,183 573,191 565,183" fill="#facc15" stroke="#854d0e" stroke-width="1.5"/><text x="32" y="221" font-family="monospace" font-size="12" fill="#0f172a">GA</text><polygon class="gantt-milestone" points="760,209 768,217 760,225 752,217" fill="#facc15" stroke="#854d0e" stroke-width="1.5"/><defs><marker id="gantt-arrow" viewBox="0 0 10 10" refX="9" refY="5" markerWidth="8" markerHeight="8" orient="auto-start-reverse"><path d="M0,0 L10,5 L0,10 z" fill="#64748b"/></marker></defs><text x="32" y="264" font-family="monospace" font-size="11" fill="#475569">Alpha happens 2026-02-01</text><text x="32" y="278" font-family="monospace" font-size="11" fill="#475569">Beta happens 2026-03-01</text><text x="32" y="292" font-family="monospace" font-size="11" fill="#475569">RC1 happens 2026-04-01</text><text x="32" y="306" font-family="monospace" font-size="11" fill="#475569">GA happens 2026-05-01</text></svg>