<svg xmlns="http://www.w3.org/2000/svg" width="800" height="294" viewBox="0 0 800 294"><rect width="100%" height="100%" fill="white"/><text x="32" y="28" font-family="monospace" font-size="18" font-weight="600" fill="#0f172a">Release Plan</text><rect x="204" y="70" width="564" height="28" fill="#f1f5f9" stroke="#cbd5e1" stroke-width="1"/><line x1="204" y1="70" x2="204" y2="254" stroke="#e2e8f0" stroke-width="1"/><text x="210" y="88" font-family="monospace" font-size="11" fill="#475569">D+0</text><line x1="768" y1="70" x2="768" y2="254" stroke="#e2e8f0" stroke-width="1"/><text x="774" y="88" font-family="monospace" font-size="11" fill="#475569">D+1</text><text x="32" y="119" font-family="monospace" font-size="12" fill="#0f172a">Alpha</text><polygon points="486,107 494,115 486,123 478,115" fill="#facc15" stroke="#854d0e" stroke-width="1.5"/><text x="32" y="153" font-family="monospace" font-size="12" fill="#0f172a">Beta</text><polygon points="486,141 494,149 486,157 478,149" fill="#facc15" stroke="#854d0e" stroke-width="1.5"/><text x="32" y="187" font-family="monospace" font-size="12" fill="#0f172a">RC1</text><polygon points="486,175 494,183 486,191 478,183" fill="#facc15" stroke="#854d0e" stroke-width="1.5"/><text x="32" y="221" font-family="monospace" font-size="12" fill="#0f172a">GA</text><polygon points="486,209 494,217 486,225 478,217" fill="#facc15" stroke="#854d0e" stroke-width="1.5"/><defs><marker id="gantt-arrow" viewBox="0 0 10 10" refX="9" refY="5" markerWidth="8" markerHeight="8" orient="auto-start-reverse"><path d="M0,0 L10,5 L0,10 z" fill="#64748b"/></marker></defs></svg>