<svg xmlns="http://www.w3.org/2000/svg" width="800" height="294" viewBox="0 0 800 294"><rect width="100%" height="100%" fill="white"/><text x="32" y="28" font-family="monospace" font-size="18" font-weight="600" fill="#0f172a">Release Plan</text><rect x="204" y="70" width="564" height="28" fill="#f1f5f9" stroke="#cbd5e1" stroke-width="1"/><line x1="204" y1="70" x2="204" y2="254" stroke="#e2e8f0" stroke-width="1"/><text x="210" y="88" font-family="monospace" font-size="11" fill="#475569">T1</text><line x1="345" y1="70" x2="345" y2="254" stroke="#e2e8f0" stroke-width="1"/><text x="351" y="88" font-family="monospace" font-size="11" fill="#475569">T2</text><line x1="486" y1="70" x2="486" y2="254" stroke="#e2e8f0" stroke-width="1"/><text x="492" y="88" font-family="monospace" font-size="11" fill="#475569">T3</text><line x1="627" y1="70" x2="627" y2="254" stroke="#e2e8f0" stroke-width="1"/><text x="633" y="88" font-family="monospace" font-size="11" fill="#475569">T4</text><text x="32" y="119" font-family="monospace" font-size="12" fill="#0f172a">Alpha</text><polygon points="274,107 282,115 274,123 266,115" fill="#facc15" stroke="#854d0e" stroke-width="1.5"/><text x="32" y="153" font-family="monospace" font-size="12" fill="#0f172a">Beta</text><polygon points="415,141 423,149 415,157 407,149" fill="#facc15" stroke="#854d0e" stroke-width="1.5"/><text x="32" y="187" font-family="monospace" font-size="12" fill="#0f172a">RC1</text><polygon points="556,175 564,183 556,191 548,183" fill="#facc15" stroke="#854d0e" stroke-width="1.5"/><text x="32" y="221" font-family="monospace" font-size="12" fill="#0f172a">GA</text><polygon points="697,209 705,217 697,225 689,217" fill="#facc15" stroke="#854d0e" stroke-width="1.5"/><defs><marker id="gantt-arrow" viewBox="0 0 10 10" refX="9" refY="5" markerWidth="8" markerHeight="8" orient="auto-start-reverse"><path d="M0,0 L10,5 L0,10 z" fill="#64748b"/></marker></defs></svg>