<svg xmlns="http://www.w3.org/2000/svg" width="800" height="294" viewBox="0 0 800 294"><rect width="100%" height="100%" fill="white"/><metadata data-gantt-resource-count="0" data-gantt-separator-count="0"/><text x="32" y="28" font-family="monospace" font-size="18" font-weight="600" fill="#0f172a">Release Plan</text><rect x="204" y="70" width="564" height="28" fill="#f1f5f9" stroke="#cbd5e1" stroke-width="1"/><line x1="204" y1="70" x2="204" y2="254" stroke="#e2e8f0" stroke-width="1"/><text class="gantt-scale-tick" data-gantt-tick-day="2026-02-01" x="210" y="88" font-family="monospace" font-size="11" fill="#475569">2026-02-01</text><line x1="210" y1="70" x2="210" y2="254" stroke="#e2e8f0" stroke-width="1"/><text class="gantt-scale-tick" data-gantt-tick-day="2026-02-02" x="216" y="88" font-family="monospace" font-size="11" fill="#475569">2026-02-02</text><line x1="216" y1="70" x2="216" y2="254" stroke="#e2e8f0" stroke-width="1"/><text class="gantt-scale-tick" data-gantt-tick-day="2026-02-03" x="222" y="88" font-family="monospace" font-size="11" fill="#475569">2026-02-03</text><line x1="222" y1="70" x2="222" y2="254" stroke="#e2e8f0" stroke-width="1"/><text class="gantt-scale-tick" data-gantt-tick-day="2026-02-04" x="228" y="88" font-family="monospace" font-size="11" fill="#475569">2026-02-04</text><line x1="229" y1="70" x2="229" y2="254" stroke="#e2e8f0" stroke-width="1"/><text class="gantt-scale-tick" data-gantt-tick-day="2026-02-05" x="235" y="88" font-family="monospace" font-size="11" fill="#475569">2026-02-05</text><line x1="235" y1="70" x2="235" y2="254" stroke="#e2e8f0" stroke-width="1"/><text class="gantt-scale-tick" data-gantt-tick-day="2026-02-06" x="241" y="88" font-family="monospace" font-size="11" fill="#475569">2026-02-06</text><line x1="241" y1="70" x2="241" y2="254" stroke="#e2e8f0" stroke-width="1"/><text class="gantt-scale-tick" data-gantt-tick-day="2026-02-07" x="247" y="88" font-family="monospace" font-size="11" fill="#475569">2026-02-07</text><line x1="247" y1="70" x2="247" y2="254" stroke="#e2e8f0" stroke-width="1"/><text class="gantt-scale-tick" data-gantt-tick-day="2026-02-08" x="253" y="88" font-family="monospace" font-size="11" fill="#475569">2026-02-08</text><line x1="323" y1="70" x2="323" y2="254" stroke="#e2e8f0" stroke-width="1"/><text class="gantt-scale-tick" data-gantt-tick-day="2026-02-20" x="329" y="88" font-family="monospace" font-size="11" fill="#475569">2026-02-20</text><line x1="385" y1="70" x2="385" y2="254" stroke="#e2e8f0" stroke-width="1"/><text class="gantt-scale-tick" data-gantt-tick-day="2026-03-02" x="391" y="88" font-family="monospace" font-size="11" fill="#475569">2026-03-02</text><line x1="442" y1="70" x2="442" y2="254" stroke="#e2e8f0" stroke-width="1"/><text class="gantt-scale-tick" data-gantt-tick-day="2026-03-11" x="448" y="88" font-family="monospace" font-size="11" fill="#475569">2026-03-11</text><line x1="492" y1="70" x2="492" y2="254" stroke="#e2e8f0" stroke-width="1"/><text class="gantt-scale-tick" data-gantt-tick-day="2026-03-19" x="498" y="88" font-family="monospace" font-size="11" fill="#475569">2026-03-19</text><line x1="536" y1="70" x2="536" y2="254" stroke="#e2e8f0" stroke-width="1"/><text class="gantt-scale-tick" data-gantt-tick-day="2026-03-26" x="542" y="88" font-family="monospace" font-size="11" fill="#475569">2026-03-26</text><line x1="573" y1="70" x2="573" y2="254" stroke="#e2e8f0" stroke-width="1"/><text class="gantt-scale-tick" data-gantt-tick-day="2026-04-01" x="579" y="88" font-family="monospace" font-size="11" fill="#475569">2026-04-01</text><line x1="605" y1="70" x2="605" y2="254" stroke="#e2e8f0" stroke-width="1"/><text class="gantt-scale-tick" data-gantt-tick-day="2026-04-06" x="611" y="88" font-family="monospace" font-size="11" fill="#475569">2026-04-06</text><line x1="636" y1="70" x2="636" y2="254" stroke="#e2e8f0" stroke-width="1"/><text class="gantt-scale-tick" data-gantt-tick-day="2026-04-11" x="642" y="88" font-family="monospace" font-size="11" fill="#475569">2026-04-11</text><line x1="661" y1="70" x2="661" y2="254" stroke="#e2e8f0" stroke-width="1"/><text class="gantt-scale-tick" data-gantt-tick-day="2026-04-15" x="667" y="88" font-family="monospace" font-size="11" fill="#475569">2026-04-15</text><line x1="680" y1="70" x2="680" y2="254" stroke="#e2e8f0" stroke-width="1"/><text class="gantt-scale-tick" data-gantt-tick-day="2026-04-18" x="686" y="88" font-family="monospace" font-size="11" fill="#475569">2026-04-18</text><line x1="699" y1="70" x2="699" y2="254" stroke="#e2e8f0" stroke-width="1"/><text class="gantt-scale-tick" data-gantt-tick-day="2026-04-21" x="705" y="88" font-family="monospace" font-size="11" fill="#475569">2026-04-21</text><line x1="717" y1="70" x2="717" y2="254" stroke="#e2e8f0" stroke-width="1"/><text class="gantt-scale-tick" data-gantt-tick-day="2026-04-24" x="723" y="88" font-family="monospace" font-size="11" fill="#475569">2026-04-24</text><line x1="730" y1="70" x2="730" y2="254" stroke="#e2e8f0" stroke-width="1"/><text class="gantt-scale-tick" data-gantt-tick-day="2026-04-26" x="736" y="88" font-family="monospace" font-size="11" fill="#475569">2026-04-26</text><line x1="742" y1="70" x2="742" y2="254" stroke="#e2e8f0" stroke-width="1"/><text class="gantt-scale-tick" data-gantt-tick-day="2026-04-28" x="748" y="88" font-family="monospace" font-size="11" fill="#475569">2026-04-28</text><line x1="755" y1="70" x2="755" y2="254" stroke="#e2e8f0" stroke-width="1"/><text class="gantt-scale-tick" data-gantt-tick-day="2026-04-30" x="761" y="88" font-family="monospace" font-size="11" fill="#475569">2026-04-30</text><line x1="768" y1="70" x2="768" y2="254" stroke="#e2e8f0" stroke-width="1"/><text class="gantt-scale-tick" data-gantt-tick-day="2026-05-02" x="774" y="88" font-family="monospace" font-size="11" fill="#475569">2026-05-02</text><text x="32" y="119" font-family="monospace" font-size="12" fill="#0f172a">Alpha</text><polygon class="gantt-milestone" points="204,107 212,115 204,123 196,115" fill="#facc15" stroke="#854d0e" stroke-width="1.5"/><text x="32" y="153" font-family="monospace" font-size="12" fill="#0f172a">Beta</text><polygon class="gantt-milestone" points="379,141 387,149 379,157 371,149" fill="#facc15" stroke="#854d0e" stroke-width="1.5"/><text x="32" y="187" font-family="monospace" font-size="12" fill="#0f172a">RC1</text><polygon class="gantt-milestone" points="573,175 581,183 573,191 565,183" fill="#facc15" stroke="#854d0e" stroke-width="1.5"/><text x="32" y="221" font-family="monospace" font-size="12" fill="#0f172a">GA</text><polygon class="gantt-milestone" points="761,209 769,217 761,225 753,217" fill="#facc15" stroke="#854d0e" stroke-width="1.5"/><defs><marker id="gantt-arrow" viewBox="0 0 10 10" refX="9" refY="5" markerWidth="8" markerHeight="8" orient="auto-start-reverse"><path d="M0,0 L10,5 L0,10 z" fill="#64748b"/></marker></defs><text x="32" y="264" font-family="monospace" font-size="11" fill="#475569">Alpha happens 2026-02-01</text><text x="32" y="278" font-family="monospace" font-size="11" fill="#475569">Beta happens 2026-03-01</text><text x="32" y="292" font-family="monospace" font-size="11" fill="#475569">RC1 happens 2026-04-01</text><text x="32" y="306" font-family="monospace" font-size="11" fill="#475569">GA happens 2026-05-01</text></svg>