<svg xmlns="http://www.w3.org/2000/svg" width="800" height="328" viewBox="0 0 800 328"><rect width="100%" height="100%" fill="white"/><text x="32" y="28" font-family="monospace" font-size="18" font-weight="600" fill="#0f172a">Sprint Breakdown</text><rect x="204" y="70" width="564" height="28" fill="#f1f5f9" stroke="#cbd5e1" stroke-width="1"/><line x1="204" y1="70" x2="204" y2="288" stroke="#e2e8f0" stroke-width="1"/><text x="210" y="88" font-family="monospace" font-size="11" fill="#475569">T1</text><line x1="316" y1="70" x2="316" y2="288" stroke="#e2e8f0" stroke-width="1"/><text x="322" y="88" font-family="monospace" font-size="11" fill="#475569">T2</text><line x1="428" y1="70" x2="428" y2="288" stroke="#e2e8f0" stroke-width="1"/><text x="434" y="88" font-family="monospace" font-size="11" fill="#475569">T3</text><line x1="540" y1="70" x2="540" y2="288" stroke="#e2e8f0" stroke-width="1"/><text x="546" y="88" font-family="monospace" font-size="11" fill="#475569">T4</text><line x1="652" y1="70" x2="652" y2="288" stroke="#e2e8f0" stroke-width="1"/><text x="658" y="88" font-family="monospace" font-size="11" fill="#475569">T5</text><text x="32" y="119" font-family="monospace" font-size="12" fill="#0f172a">Discovery</text><rect x="204" y="105" width="112" height="20" rx="3" ry="3" fill="#3b82f6" stroke="#1e40af" stroke-width="1"/><text x="32" y="153" font-family="monospace" font-size="12" fill="#0f172a">UX Design</text><rect x="316" y="139" width="112" height="20" rx="3" ry="3" fill="#3b82f6" stroke="#1e40af" stroke-width="1"/><text x="32" y="187" font-family="monospace" font-size="12" fill="#0f172a">Backend</text><rect x="428" y="173" width="112" height="20" rx="3" ry="3" fill="#3b82f6" stroke="#1e40af" stroke-width="1"/><text x="32" y="221" font-family="monospace" font-size="12" fill="#0f172a">Frontend</text><rect x="540" y="207" width="112" height="20" rx="3" ry="3" fill="#3b82f6" stroke="#1e40af" stroke-width="1"/><text x="32" y="255" font-family="monospace" font-size="12" fill="#0f172a">QA</text><rect x="652" y="241" width="112" height="20" rx="3" ry="3" fill="#3b82f6" stroke="#1e40af" stroke-width="1"/><line x1="372" y1="159" x2="260" y2="105" stroke="#64748b" stroke-width="1.25" stroke-dasharray="4 3" marker-end="url(#gantt-arrow)"/><line x1="484" y1="193" x2="372" y2="139" stroke="#64748b" stroke-width="1.25" stroke-dasharray="4 3" marker-end="url(#gantt-arrow)"/><line x1="596" y1="227" x2="372" y2="139" stroke="#64748b" stroke-width="1.25" stroke-dasharray="4 3" marker-end="url(#gantt-arrow)"/><line x1="708" y1="261" x2="484" y2="173" stroke="#64748b" stroke-width="1.25" stroke-dasharray="4 3" marker-end="url(#gantt-arrow)"/><line x1="708" y1="261" x2="596" y2="207" stroke="#64748b" stroke-width="1.25" stroke-dasharray="4 3" marker-end="url(#gantt-arrow)"/><defs><marker id="gantt-arrow" viewBox="0 0 10 10" refX="9" refY="5" markerWidth="8" markerHeight="8" orient="auto-start-reverse"><path d="M0,0 L10,5 L0,10 z" fill="#64748b"/></marker></defs><text x="32" y="298" font-family="monospace" font-size="11" fill="#475569">Discovery starts starts 2026-05-01</text><text x="32" y="312" font-family="monospace" font-size="11" fill="#475569">UX Design starts starts 2026-05-08</text><text x="32" y="326" font-family="monospace" font-size="11" fill="#475569">UX Design requires requires [Discovery]</text><text x="32" y="340" font-family="monospace" font-size="11" fill="#475569">Backend starts starts 2026-05-15</text><text x="32" y="354" font-family="monospace" font-size="11" fill="#475569">Frontend starts starts 2026-05-15</text><text x="32" y="368" font-family="monospace" font-size="11" fill="#475569">Backend requires requires [UX Design]</text><text x="32" y="382" font-family="monospace" font-size="11" fill="#475569">Frontend requires requires [UX Design]</text><text x="32" y="396" font-family="monospace" font-size="11" fill="#475569">QA requires requires [Backend]</text><text x="32" y="410" font-family="monospace" font-size="11" fill="#475569">QA requires requires [Frontend]</text></svg>