<svg xmlns="http://www.w3.org/2000/svg" width="800" height="264" viewBox="0 0 800 264"><rect width="100%" height="100%" fill="white"/><text x="32" y="28" font-family="monospace" font-size="18" font-weight="600" fill="#0f172a">Gantt</text><rect x="204" y="40" width="564" height="28" fill="#f1f5f9" stroke="#cbd5e1" stroke-width="1"/><line x1="204" y1="40" x2="204" y2="224" stroke="#e2e8f0" stroke-width="1"/><text x="210" y="58" font-family="monospace" font-size="11" fill="#475569">D+0</text><line x1="345" y1="40" x2="345" y2="224" stroke="#e2e8f0" stroke-width="1"/><text x="351" y="58" font-family="monospace" font-size="11" fill="#475569">D+1</text><line x1="486" y1="40" x2="486" y2="224" stroke="#e2e8f0" stroke-width="1"/><text x="492" y="58" font-family="monospace" font-size="11" fill="#475569">D+2</text><line x1="627" y1="40" x2="627" y2="224" stroke="#e2e8f0" stroke-width="1"/><text x="633" y="58" font-family="monospace" font-size="11" fill="#475569">D+3</text><line x1="768" y1="40" x2="768" y2="224" stroke="#e2e8f0" stroke-width="1"/><text x="774" y="58" font-family="monospace" font-size="11" fill="#475569">D+4</text><text x="32" y="89" font-family="monospace" font-size="12" fill="#0f172a">Kickoff</text><rect x="204" y="75" width="141" height="20" rx="3" ry="3" fill="#3b82f6" stroke="#1e40af" stroke-width="1"/><text x="32" y="123" font-family="monospace" font-size="12" fill="#0f172a">Architecture review</text><rect x="345" y="109" width="141" height="20" rx="3" ry="3" fill="#3b82f6" stroke="#1e40af" stroke-width="1"/><text x="32" y="157" font-family="monospace" font-size="12" fill="#0f172a">First sprint complete</text><rect x="486" y="143" width="141" height="20" rx="3" ry="3" fill="#3b82f6" stroke="#1e40af" stroke-width="1"/><text x="32" y="191" font-family="monospace" font-size="12" fill="#0f172a">Beta release</text><rect x="627" y="177" width="141" height="20" rx="3" ry="3" fill="#3b82f6" stroke="#1e40af" stroke-width="1"/><defs><marker id="gantt-arrow" viewBox="0 0 10 10" refX="9" refY="5" markerWidth="8" markerHeight="8" orient="auto-start-reverse"><path d="M0,0 L10,5 L0,10 z" fill="#64748b"/></marker></defs></svg>