<svg xmlns="http://www.w3.org/2000/svg" width="800" height="264" viewBox="0 0 800 264"><rect width="100%" height="100%" fill="white"/><text x="32" y="28" font-family="monospace" font-size="18" font-weight="600" fill="#0f172a">Gantt</text><rect x="204" y="40" width="564" height="28" fill="#f1f5f9" stroke="#cbd5e1" stroke-width="1"/><line x1="204" y1="40" x2="204" y2="224" stroke="#e2e8f0" stroke-width="1"/><text x="210" y="58" font-family="monospace" font-size="11" fill="#475569">T1</text><line x1="345" y1="40" x2="345" y2="224" stroke="#e2e8f0" stroke-width="1"/><text x="351" y="58" font-family="monospace" font-size="11" fill="#475569">T2</text><line x1="486" y1="40" x2="486" y2="224" stroke="#e2e8f0" stroke-width="1"/><text x="492" y="58" font-family="monospace" font-size="11" fill="#475569">T3</text><line x1="627" y1="40" x2="627" y2="224" stroke="#e2e8f0" stroke-width="1"/><text x="633" y="58" font-family="monospace" font-size="11" fill="#475569">T4</text><text x="32" y="89" font-family="monospace" font-size="12" fill="#0f172a">Kickoff (2026-01-01)</text><polygon points="274,77 282,85 274,93 266,85" fill="#facc15" stroke="#854d0e" stroke-width="1.5"/><text x="32" y="123" font-family="monospace" font-size="12" fill="#0f172a">Architecture review (2026-01-10)</text><polygon points="415,111 423,119 415,127 407,119" fill="#facc15" stroke="#854d0e" stroke-width="1.5"/><text x="32" y="157" font-family="monospace" font-size="12" fill="#0f172a">First sprint complete (2026-02-01)</text><polygon points="556,145 564,153 556,161 548,153" fill="#facc15" stroke="#854d0e" stroke-width="1.5"/><text x="32" y="191" font-family="monospace" font-size="12" fill="#0f172a">Beta release (2026-03-01)</text><polygon points="697,179 705,187 697,195 689,187" fill="#facc15" stroke="#854d0e" stroke-width="1.5"/><defs><marker id="gantt-arrow" viewBox="0 0 10 10" refX="9" refY="5" markerWidth="8" markerHeight="8" orient="auto-start-reverse"><path d="M0,0 L10,5 L0,10 z" fill="#64748b"/></marker></defs></svg>