<svg xmlns="http://www.w3.org/2000/svg" width="880" height="264" viewBox="0 0 880 264"><rect width="100%" height="100%" fill="white"/><metadata data-gantt-resource-count="0" data-gantt-separator-count="0"/><text x="32" y="28" font-family="monospace" font-size="18" font-weight="600" fill="#0f172a">Gantt</text><rect x="204" y="40" width="564" height="28" fill="#f1f5f9" stroke="#cbd5e1" stroke-width="1"/><line x1="204" y1="40" x2="204" y2="224" stroke="#e2e8f0" stroke-width="1"/><text class="gantt-scale-tick" data-gantt-tick-day="2026-01-01" x="210" y="58" font-family="monospace" font-size="11" fill="#475569">2026-01-01</text><line x1="335" y1="40" x2="335" y2="224" stroke="#e2e8f0" stroke-width="1"/><text class="gantt-scale-tick" data-gantt-tick-day="2026-01-15" x="341" y="58" font-family="monospace" font-size="11" fill="#475569">2026-01-15</text><line x1="467" y1="40" x2="467" y2="224" stroke="#e2e8f0" stroke-width="1"/><text class="gantt-scale-tick" data-gantt-tick-day="2026-01-29" x="473" y="58" font-family="monospace" font-size="11" fill="#475569">2026-01-29</text><line x1="598" y1="40" x2="598" y2="224" stroke="#e2e8f0" stroke-width="1"/><text class="gantt-scale-tick" data-gantt-tick-day="2026-02-12" x="604" y="58" font-family="monospace" font-size="11" fill="#475569">2026-02-12</text><line x1="730" y1="40" x2="730" y2="224" stroke="#e2e8f0" stroke-width="1"/><text class="gantt-scale-tick" data-gantt-tick-day="2026-02-26" x="736" y="58" font-family="monospace" font-size="11" fill="#475569">2026-02-26</text><line x1="758" y1="40" x2="758" y2="224" stroke="#e2e8f0" stroke-width="1"/><text class="gantt-scale-tick" data-gantt-tick-day="2026-03-01" x="764" y="58" font-family="monospace" font-size="11" fill="#475569">2026-03-01</text><text x="32" y="89" font-family="monospace" font-size="12" fill="#0f172a">Kickoff</text><polygon class="gantt-milestone" points="212,77 220,85 212,93 204,85" fill="#facc15" stroke="#854d0e" stroke-width="1.5"/><text x="32" y="123" font-family="monospace" font-size="12" fill="#0f172a">Architecture review</text><polygon class="gantt-milestone" points="288,111 296,119 288,127 280,119" fill="#facc15" stroke="#854d0e" stroke-width="1.5"/><text x="32" y="157" font-family="monospace" font-size="12" fill="#0f172a">First sprint complete</text><polygon class="gantt-milestone" points="495,145 503,153 495,161 487,153" fill="#facc15" stroke="#854d0e" stroke-width="1.5"/><text x="32" y="191" font-family="monospace" font-size="12" fill="#0f172a">Beta release</text><polygon class="gantt-milestone" points="758,179 766,187 758,195 750,187" fill="#facc15" stroke="#854d0e" stroke-width="1.5"/><defs><marker id="gantt-arrow" viewBox="0 0 10 10" refX="9" refY="5" markerWidth="8" markerHeight="8" orient="auto-start-reverse"><path d="M0,0 L10,5 L0,10 z" fill="#64748b"/></marker></defs><text x="32" y="234" font-family="monospace" font-size="11" fill="#475569">Kickoff happens 2026-01-01</text><text x="32" y="248" font-family="monospace" font-size="11" fill="#475569">Architecture review happens 2026-01-10</text><text x="32" y="262" font-family="monospace" font-size="11" fill="#475569">First sprint complete happens 2026-02-01</text><text x="32" y="276" font-family="monospace" font-size="11" fill="#475569">Beta release happens 2026-03-01</text></svg>