<svg xmlns="http://www.w3.org/2000/svg" width="800" height="328" viewBox="0 0 800 328"><rect width="100%" height="100%" fill="white"/><text x="32" y="28" font-family="monospace" font-size="18" font-weight="600" fill="#0f172a">Q1 2026 Roadmap</text><rect x="204" y="70" width="564" height="28" fill="#f1f5f9" stroke="#cbd5e1" stroke-width="1"/><line x1="204" y1="70" x2="204" y2="288" stroke="#e2e8f0" stroke-width="1"/><text x="210" y="88" font-family="monospace" font-size="11" fill="#475569">D+0</text><line x1="316" y1="70" x2="316" y2="288" stroke="#e2e8f0" stroke-width="1"/><text x="322" y="88" font-family="monospace" font-size="11" fill="#475569">D+1</text><line x1="429" y1="70" x2="429" y2="288" stroke="#e2e8f0" stroke-width="1"/><text x="435" y="88" font-family="monospace" font-size="11" fill="#475569">D+2</text><line x1="542" y1="70" x2="542" y2="288" stroke="#e2e8f0" stroke-width="1"/><text x="548" y="88" font-family="monospace" font-size="11" fill="#475569">D+3</text><line x1="655" y1="70" x2="655" y2="288" stroke="#e2e8f0" stroke-width="1"/><text x="661" y="88" font-family="monospace" font-size="11" fill="#475569">D+4</text><line x1="768" y1="70" x2="768" y2="288" stroke="#e2e8f0" stroke-width="1"/><text x="774" y="88" font-family="monospace" font-size="11" fill="#475569">D+5</text><text x="32" y="119" font-family="monospace" font-size="12" fill="#0f172a">Feature A</text><rect x="204" y="105" width="112" height="20" rx="3" ry="3" fill="#3b82f6" stroke="#1e40af" stroke-width="1"/><text x="32" y="153" font-family="monospace" font-size="12" fill="#0f172a">Feature B</text><rect x="316" y="139" width="112" height="20" rx="3" ry="3" fill="#3b82f6" stroke="#1e40af" stroke-width="1"/><text x="32" y="187" font-family="monospace" font-size="12" fill="#0f172a">Feature C</text><rect x="429" y="173" width="112" height="20" rx="3" ry="3" fill="#3b82f6" stroke="#1e40af" stroke-width="1"/><text x="32" y="221" font-family="monospace" font-size="12" fill="#0f172a">Bug Fixes</text><rect x="542" y="207" width="112" height="20" rx="3" ry="3" fill="#3b82f6" stroke="#1e40af" stroke-width="1"/><text x="32" y="255" font-family="monospace" font-size="12" fill="#0f172a">Performance</text><rect x="655" y="241" width="112" height="20" rx="3" ry="3" fill="#3b82f6" stroke="#1e40af" stroke-width="1"/><line x1="260" y1="125" x2="372" y2="139" stroke="#64748b" stroke-width="1.25" stroke-dasharray="4 3" marker-end="url(#gantt-arrow)"/><line x1="711" y1="261" x2="260" y2="105" stroke="#64748b" stroke-width="1.25" stroke-dasharray="4 3" marker-end="url(#gantt-arrow)"/><line x1="711" y1="261" x2="485" y2="173" stroke="#64748b" stroke-width="1.25" stroke-dasharray="4 3" marker-end="url(#gantt-arrow)"/><defs><marker id="gantt-arrow" viewBox="0 0 10 10" refX="9" refY="5" markerWidth="8" markerHeight="8" orient="auto-start-reverse"><path d="M0,0 L10,5 L0,10 z" fill="#64748b"/></marker></defs><text x="32" y="298" font-family="monospace" font-size="11" fill="#475569">Feature A starts starts 2026-01-05</text><text x="32" y="312" font-family="monospace" font-size="11" fill="#475569">Feature B starts starts 2026-01-05</text><text x="32" y="326" font-family="monospace" font-size="11" fill="#475569">Feature A requires requires [Feature B]</text><text x="32" y="340" font-family="monospace" font-size="11" fill="#475569">Feature C starts starts 2026-02-01</text><text x="32" y="354" font-family="monospace" font-size="11" fill="#475569">Bug Fixes starts starts 2026-01-12</text><text x="32" y="368" font-family="monospace" font-size="11" fill="#475569">Performance starts starts 2026-03-01</text><text x="32" y="382" font-family="monospace" font-size="11" fill="#475569">Performance requires requires [Feature A]</text><text x="32" y="396" font-family="monospace" font-size="11" fill="#475569">Performance requires requires [Feature C]</text></svg>