<svg xmlns="http://www.w3.org/2000/svg" width="800" height="294" viewBox="0 0 800 294"><rect width="100%" height="100%" fill="white"/><metadata data-gantt-resource-count="0" data-gantt-separator-count="0"/><text x="32" y="28" font-family="monospace" font-size="18" font-weight="600" fill="#0f172a">Annual Project Plan</text><rect x="204" y="70" width="564" height="28" fill="#f1f5f9" stroke="#cbd5e1" stroke-width="1"/><line x1="204" y1="70" x2="204" y2="254" stroke="#e2e8f0" stroke-width="1"/><text class="gantt-scale-tick" data-gantt-tick-day="2026-01-01" x="210" y="88" font-family="monospace" font-size="11" fill="#475569">2026-01-01</text><line x1="206" y1="70" x2="206" y2="254" stroke="#e2e8f0" stroke-width="1"/><text class="gantt-scale-tick" data-gantt-tick-day="2026-01-02" x="212" y="88" font-family="monospace" font-size="11" fill="#475569">2026-01-02</text><line x1="208" y1="70" x2="208" y2="254" stroke="#e2e8f0" stroke-width="1"/><text class="gantt-scale-tick" data-gantt-tick-day="2026-01-03" x="214" y="88" font-family="monospace" font-size="11" fill="#475569">2026-01-03</text><line x1="210" y1="70" x2="210" y2="254" stroke="#e2e8f0" stroke-width="1"/><text class="gantt-scale-tick" data-gantt-tick-day="2026-01-04" x="216" y="88" font-family="monospace" font-size="11" fill="#475569">2026-01-04</text><line x1="213" y1="70" x2="213" y2="254" stroke="#e2e8f0" stroke-width="1"/><text class="gantt-scale-tick" data-gantt-tick-day="2026-01-05" x="219" y="88" font-family="monospace" font-size="11" fill="#475569">2026-01-05</text><line x1="215" y1="70" x2="215" y2="254" stroke="#e2e8f0" stroke-width="1"/><text class="gantt-scale-tick" data-gantt-tick-day="2026-01-06" x="221" y="88" font-family="monospace" font-size="11" fill="#475569">2026-01-06</text><line x1="217" y1="70" x2="217" y2="254" stroke="#e2e8f0" stroke-width="1"/><text class="gantt-scale-tick" data-gantt-tick-day="2026-01-07" x="223" y="88" font-family="monospace" font-size="11" fill="#475569">2026-01-07</text><line x1="220" y1="70" x2="220" y2="254" stroke="#e2e8f0" stroke-width="1"/><text class="gantt-scale-tick" data-gantt-tick-day="2026-01-08" x="226" y="88" font-family="monospace" font-size="11" fill="#475569">2026-01-08</text><line x1="291" y1="70" x2="291" y2="254" stroke="#e2e8f0" stroke-width="1"/><text class="gantt-scale-tick" data-gantt-tick-day="2026-02-08" x="297" y="88" font-family="monospace" font-size="11" fill="#475569">2026-02-08</text><line x1="354" y1="70" x2="354" y2="254" stroke="#e2e8f0" stroke-width="1"/><text class="gantt-scale-tick" data-gantt-tick-day="2026-03-07" x="360" y="88" font-family="monospace" font-size="11" fill="#475569">2026-03-07</text><line x1="409" y1="70" x2="409" y2="254" stroke="#e2e8f0" stroke-width="1"/><text class="gantt-scale-tick" data-gantt-tick-day="2026-03-31" x="415" y="88" font-family="monospace" font-size="11" fill="#475569">2026-03-31</text><line x1="458" y1="70" x2="458" y2="254" stroke="#e2e8f0" stroke-width="1"/><text class="gantt-scale-tick" data-gantt-tick-day="2026-04-21" x="464" y="88" font-family="monospace" font-size="11" fill="#475569">2026-04-21</text><line x1="499" y1="70" x2="499" y2="254" stroke="#e2e8f0" stroke-width="1"/><text class="gantt-scale-tick" data-gantt-tick-day="2026-05-09" x="505" y="88" font-family="monospace" font-size="11" fill="#475569">2026-05-09</text><line x1="536" y1="70" x2="536" y2="254" stroke="#e2e8f0" stroke-width="1"/><text class="gantt-scale-tick" data-gantt-tick-day="2026-05-25" x="542" y="88" font-family="monospace" font-size="11" fill="#475569">2026-05-25</text><line x1="569" y1="70" x2="569" y2="254" stroke="#e2e8f0" stroke-width="1"/><text class="gantt-scale-tick" data-gantt-tick-day="2026-06-08" x="575" y="88" font-family="monospace" font-size="11" fill="#475569">2026-06-08</text><line x1="596" y1="70" x2="596" y2="254" stroke="#e2e8f0" stroke-width="1"/><text class="gantt-scale-tick" data-gantt-tick-day="2026-06-20" x="602" y="88" font-family="monospace" font-size="11" fill="#475569">2026-06-20</text><line x1="622" y1="70" x2="622" y2="254" stroke="#e2e8f0" stroke-width="1"/><text class="gantt-scale-tick" data-gantt-tick-day="2026-07-01" x="628" y="88" font-family="monospace" font-size="11" fill="#475569">2026-07-01</text><line x1="643" y1="70" x2="643" y2="254" stroke="#e2e8f0" stroke-width="1"/><text class="gantt-scale-tick" data-gantt-tick-day="2026-07-10" x="649" y="88" font-family="monospace" font-size="11" fill="#475569">2026-07-10</text><line x1="661" y1="70" x2="661" y2="254" stroke="#e2e8f0" stroke-width="1"/><text class="gantt-scale-tick" data-gantt-tick-day="2026-07-18" x="667" y="88" font-family="monospace" font-size="11" fill="#475569">2026-07-18</text><line x1="677" y1="70" x2="677" y2="254" stroke="#e2e8f0" stroke-width="1"/><text class="gantt-scale-tick" data-gantt-tick-day="2026-07-25" x="683" y="88" font-family="monospace" font-size="11" fill="#475569">2026-07-25</text><line x1="691" y1="70" x2="691" y2="254" stroke="#e2e8f0" stroke-width="1"/><text class="gantt-scale-tick" data-gantt-tick-day="2026-07-31" x="697" y="88" font-family="monospace" font-size="11" fill="#475569">2026-07-31</text><line x1="703" y1="70" x2="703" y2="254" stroke="#e2e8f0" stroke-width="1"/><text class="gantt-scale-tick" data-gantt-tick-day="2026-08-05" x="709" y="88" font-family="monospace" font-size="11" fill="#475569">2026-08-05</text><line x1="714" y1="70" x2="714" y2="254" stroke="#e2e8f0" stroke-width="1"/><text class="gantt-scale-tick" data-gantt-tick-day="2026-08-10" x="720" y="88" font-family="monospace" font-size="11" fill="#475569">2026-08-10</text><line x1="724" y1="70" x2="724" y2="254" stroke="#e2e8f0" stroke-width="1"/><text class="gantt-scale-tick" data-gantt-tick-day="2026-08-14" x="730" y="88" font-family="monospace" font-size="11" fill="#475569">2026-08-14</text><line x1="733" y1="70" x2="733" y2="254" stroke="#e2e8f0" stroke-width="1"/><text class="gantt-scale-tick" data-gantt-tick-day="2026-08-18" x="739" y="88" font-family="monospace" font-size="11" fill="#475569">2026-08-18</text><line x1="740" y1="70" x2="740" y2="254" stroke="#e2e8f0" stroke-width="1"/><text class="gantt-scale-tick" data-gantt-tick-day="2026-08-21" x="746" y="88" font-family="monospace" font-size="11" fill="#475569">2026-08-21</text><line x1="747" y1="70" x2="747" y2="254" stroke="#e2e8f0" stroke-width="1"/><text class="gantt-scale-tick" data-gantt-tick-day="2026-08-24" x="753" y="88" font-family="monospace" font-size="11" fill="#475569">2026-08-24</text><line x1="751" y1="70" x2="751" y2="254" stroke="#e2e8f0" stroke-width="1"/><text class="gantt-scale-tick" data-gantt-tick-day="2026-08-26" x="757" y="88" font-family="monospace" font-size="11" fill="#475569">2026-08-26</text><line x1="756" y1="70" x2="756" y2="254" stroke="#e2e8f0" stroke-width="1"/><text class="gantt-scale-tick" data-gantt-tick-day="2026-08-28" x="762" y="88" font-family="monospace" font-size="11" fill="#475569">2026-08-28</text><line x1="761" y1="70" x2="761" y2="254" stroke="#e2e8f0" stroke-width="1"/><text class="gantt-scale-tick" data-gantt-tick-day="2026-08-30" x="767" y="88" font-family="monospace" font-size="11" fill="#475569">2026-08-30</text><line x1="765" y1="70" x2="765" y2="254" stroke="#e2e8f0" stroke-width="1"/><text class="gantt-scale-tick" data-gantt-tick-day="2026-09-01" x="771" y="88" font-family="monospace" font-size="11" fill="#475569">2026-09-01</text><line x1="768" y1="70" x2="768" y2="254" stroke="#e2e8f0" stroke-width="1"/><text class="gantt-scale-tick" data-gantt-tick-day="2026-09-02" x="774" y="88" font-family="monospace" font-size="11" fill="#475569">2026-09-02</text><text x="32" y="119" font-family="monospace" font-size="12" fill="#0f172a">Phase 1: Research</text><rect class="gantt-task" data-gantt-start="2026-01-01" data-gantt-workload="1" data-gantt-duration="1" data-gantt-resources="" data-gantt-load="" x="204" y="105" width="8" height="20" rx="3" ry="3" fill="#3b82f6" stroke="#1e40af" stroke-width="1"/><text x="32" y="153" font-family="monospace" font-size="12" fill="#0f172a">Phase 2: Development</text><rect class="gantt-task" data-gantt-start="2026-03-01" data-gantt-workload="1" data-gantt-duration="1" data-gantt-resources="" data-gantt-load="" x="340" y="139" width="8" height="20" rx="3" ry="3" fill="#3b82f6" stroke="#1e40af" stroke-width="1"/><text x="32" y="187" font-family="monospace" font-size="12" fill="#0f172a">Phase 3: Testing</text><rect class="gantt-task" data-gantt-start="2026-06-01" data-gantt-workload="1" data-gantt-duration="1" data-gantt-resources="" data-gantt-load="" x="553" y="173" width="8" height="20" rx="3" ry="3" fill="#3b82f6" stroke="#1e40af" stroke-width="1"/><text x="32" y="221" font-family="monospace" font-size="12" fill="#0f172a">Phase 4: Launch</text><polygon class="gantt-milestone" points="765,209 773,217 765,225 757,217" fill="#facc15" stroke="#854d0e" stroke-width="1.5"/><line class="gantt-dependency gantt-dependency-requires" data-gantt-from="Phase 1: Research" data-gantt-to="Phase 2: Development" x1="212" y1="115" x2="340" y2="149" stroke="#64748b" stroke-width="1.25" stroke-dasharray="4 3" marker-end="url(#gantt-arrow)"/><line class="gantt-dependency gantt-dependency-requires" data-gantt-from="Phase 2: Development" data-gantt-to="Phase 3: Testing" x1="348" y1="149" x2="553" y2="183" stroke="#64748b" stroke-width="1.25" stroke-dasharray="4 3" marker-end="url(#gantt-arrow)"/><defs><marker id="gantt-arrow" viewBox="0 0 10 10" refX="9" refY="5" markerWidth="8" markerHeight="8" orient="auto-start-reverse"><path d="M0,0 L10,5 L0,10 z" fill="#64748b"/></marker></defs><text x="32" y="264" font-family="monospace" font-size="11" fill="#475569">Phase 4: Launch happens 2026-09-01</text></svg>