<svg xmlns="http://www.w3.org/2000/svg" width="760" height="414" viewBox="0 0 760 414"><rect width="100%" height="100%" fill="#fbfdff"/><line x1="36" y1="56" x2="724" y2="56" stroke="#64748b" stroke-width="2"/><text x="40" y="28" font-family="monospace" font-size="18" font-weight="600">Annual Project Plan</text><text x="40" y="52" font-family="monospace" font-size="13" fill="#334155">GANTT timeline entries</text><rect x="36" y="60" width="688" height="1" fill="none"/><rect x="40" y="82" width="688" height="22" fill="#ffffff" stroke="#cbd5e1" stroke-width="1"/><circle cx="52" cy="93" r="5" fill="#1f2937"/><text x="70" y="98" font-family="monospace" font-size="12">milestone: Phase 4: Launch</text><rect x="40" y="112" width="688" height="22" fill="#ffffff" stroke="#cbd5e1" stroke-width="1"/><circle cx="52" cy="123" r="5" fill="#1f2937"/><text x="70" y="128" font-family="monospace" font-size="12">constraint: Phase 1: Research starts starts 2026-01-01</text><rect x="40" y="142" width="688" height="22" fill="#ffffff" stroke="#cbd5e1" stroke-width="1"/><circle cx="52" cy="153" r="5" fill="#1f2937"/><text x="70" y="158" font-family="monospace" font-size="12">constraint: Phase 2: Development starts starts 2026-03-01</text><rect x="40" y="172" width="688" height="22" fill="#ffffff" stroke="#cbd5e1" stroke-width="1"/><circle cx="52" cy="183" r="5" fill="#1f2937"/><text x="70" y="188" font-family="monospace" font-size="12">constraint: Phase 2: Development requires requires [Phase 1: Research]</text><rect x="40" y="202" width="688" height="22" fill="#ffffff" stroke="#cbd5e1" stroke-width="1"/><circle cx="52" cy="213" r="5" fill="#1f2937"/><text x="70" y="218" font-family="monospace" font-size="12">constraint: Phase 3: Testing starts starts 2026-06-01</text><rect x="40" y="232" width="688" height="22" fill="#ffffff" stroke="#cbd5e1" stroke-width="1"/><circle cx="52" cy="243" r="5" fill="#1f2937"/><text x="70" y="248" font-family="monospace" font-size="12">constraint: Phase 3: Testing requires requires [Phase 2: Development]</text></svg>