<svg xmlns="http://www.w3.org/2000/svg" width="880" height="560" viewBox="0 0 880 560"><rect width="100%" height="100%" fill="white"/><metadata data-gantt-resource-count="0" data-gantt-separator-count="0" data-gantt-hide-footbox="false" data-gantt-hide-resource-names="false" data-gantt-hide-resource-footbox="false"/><text x="32" y="28" font-family="monospace" font-size="18" font-weight="600" fill="#0f172a">Product Roadmap with Milestones and Critical Path</text><text class="gantt-calendar" x="32" y="72" font-family="monospace" font-size="11" fill="#92400e">Calendar: closed Saturday, Sunday</text><rect x="204" y="88" width="564" height="28" fill="#f1f5f9" stroke="#cbd5e1" stroke-width="1"/><line x1="204" y1="88" x2="204" y2="510" stroke="#e2e8f0" stroke-width="1"/><text class="gantt-scale-tick" data-gantt-tick-day="2026-07-01" x="210" y="106" font-family="monospace" font-size="11" fill="#475569">2026-07-01</text><line x1="353" y1="88" x2="353" y2="510" stroke="#e2e8f0" stroke-width="1"/><text class="gantt-scale-tick" data-gantt-tick-day="2026-07-31" x="359" y="106" font-family="monospace" font-size="11" fill="#475569">2026-07-31</text><line x1="503" y1="88" x2="503" y2="510" stroke="#e2e8f0" stroke-width="1"/><text class="gantt-scale-tick" data-gantt-tick-day="2026-08-30" x="509" y="106" font-family="monospace" font-size="11" fill="#475569">2026-08-30</text><line x1="653" y1="88" x2="653" y2="510" stroke="#e2e8f0" stroke-width="1"/><text class="gantt-scale-tick" data-gantt-tick-day="2026-09-29" x="659" y="106" font-family="monospace" font-size="11" fill="#475569">2026-09-29</text><line x1="763" y1="88" x2="763" y2="510" stroke="#e2e8f0" stroke-width="1"/><text class="gantt-scale-tick" data-gantt-tick-day="2026-10-21" x="769" y="106" font-family="monospace" font-size="11" fill="#475569">2026-10-21</text><rect class="gantt-closed-weekday" data-gantt-day="2026-07-04" x="218" y="116" width="5" height="394" fill="#f8fafc" opacity="0.82"/><rect class="gantt-closed-weekday" data-gantt-day="2026-07-05" x="223" y="116" width="5" height="394" fill="#f8fafc" opacity="0.82"/><rect class="gantt-closed-weekday" data-gantt-day="2026-07-11" x="253" y="116" width="5" height="394" fill="#f8fafc" opacity="0.82"/><rect class="gantt-closed-weekday" data-gantt-day="2026-07-12" x="258" y="116" width="5" height="394" fill="#f8fafc" opacity="0.82"/><rect class="gantt-closed-weekday" data-gantt-day="2026-07-18" x="288" y="116" width="5" height="394" fill="#f8fafc" opacity="0.82"/><rect class="gantt-closed-weekday" data-gantt-day="2026-07-19" x="293" y="116" width="5" height="394" fill="#f8fafc" opacity="0.82"/><rect class="gantt-closed-weekday" data-gantt-day="2026-07-25" x="323" y="116" width="5" height="394" fill="#f8fafc" opacity="0.82"/><rect class="gantt-closed-weekday" data-gantt-day="2026-07-26" x="328" y="116" width="5" height="394" fill="#f8fafc" opacity="0.82"/><rect class="gantt-closed-weekday" data-gantt-day="2026-08-01" x="358" y="116" width="5" height="394" fill="#f8fafc" opacity="0.82"/><rect class="gantt-closed-weekday" data-gantt-day="2026-08-02" x="363" y="116" width="5" height="394" fill="#f8fafc" opacity="0.82"/><rect class="gantt-closed-weekday" data-gantt-day="2026-08-08" x="393" y="116" width="5" height="394" fill="#f8fafc" opacity="0.82"/><rect class="gantt-closed-weekday" data-gantt-day="2026-08-09" x="398" y="116" width="5" height="394" fill="#f8fafc" opacity="0.82"/><rect class="gantt-closed-weekday" data-gantt-day="2026-08-15" x="428" y="116" width="5" height="394" fill="#f8fafc" opacity="0.82"/><rect class="gantt-closed-weekday" data-gantt-day="2026-08-16" x="433" y="116" width="5" height="394" fill="#f8fafc" opacity="0.82"/><rect class="gantt-closed-weekday" data-gantt-day="2026-08-22" x="463" y="116" width="5" height="394" fill="#f8fafc" opacity="0.82"/><rect class="gantt-closed-weekday" data-gantt-day="2026-08-23" x="468" y="116" width="5" height="394" fill="#f8fafc" opacity="0.82"/><rect class="gantt-closed-weekday" data-gantt-day="2026-08-29" x="498" y="116" width="5" height="394" fill="#f8fafc" opacity="0.82"/><rect class="gantt-closed-weekday" data-gantt-day="2026-08-30" x="503" y="116" width="5" height="394" fill="#f8fafc" opacity="0.82"/><rect class="gantt-closed-weekday" data-gantt-day="2026-09-05" x="533" y="116" width="5" height="394" fill="#f8fafc" opacity="0.82"/><rect class="gantt-closed-weekday" data-gantt-day="2026-09-06" x="538" y="116" width="5" height="394" fill="#f8fafc" opacity="0.82"/><rect class="gantt-closed-weekday" data-gantt-day="2026-09-12" x="568" y="116" width="5" height="394" fill="#f8fafc" opacity="0.82"/><rect class="gantt-closed-weekday" data-gantt-day="2026-09-13" x="573" y="116" width="5" height="394" fill="#f8fafc" opacity="0.82"/><rect class="gantt-closed-weekday" data-gantt-day="2026-09-19" x="603" y="116" width="5" height="394" fill="#f8fafc" opacity="0.82"/><rect class="gantt-closed-weekday" data-gantt-day="2026-09-20" x="608" y="116" width="5" height="394" fill="#f8fafc" opacity="0.82"/><rect class="gantt-closed-weekday" data-gantt-day="2026-09-26" x="638" y="116" width="5" height="394" fill="#f8fafc" opacity="0.82"/><rect class="gantt-closed-weekday" data-gantt-day="2026-09-27" x="643" y="116" width="5" height="394" fill="#f8fafc" opacity="0.82"/><rect class="gantt-closed-weekday" data-gantt-day="2026-10-03" x="673" y="116" width="5" height="394" fill="#f8fafc" opacity="0.82"/><rect class="gantt-closed-weekday" data-gantt-day="2026-10-04" x="678" y="116" width="5" height="394" fill="#f8fafc" opacity="0.82"/><rect class="gantt-closed-weekday" data-gantt-day="2026-10-10" x="708" y="116" width="5" height="394" fill="#f8fafc" opacity="0.82"/><rect class="gantt-closed-weekday" data-gantt-day="2026-10-11" x="713" y="116" width="5" height="394" fill="#f8fafc" opacity="0.82"/><rect class="gantt-closed-weekday" data-gantt-day="2026-10-17" x="743" y="116" width="5" height="394" fill="#f8fafc" opacity="0.82"/><rect class="gantt-closed-weekday" data-gantt-day="2026-10-18" x="748" y="116" width="5" height="394" fill="#f8fafc" opacity="0.82"/><text x="32" y="137" font-family="monospace" font-size="12" fill="#0f172a">Architecture</text><rect class="gantt-task" data-gantt-start="2026-07-01" data-gantt-workload="10" data-gantt-duration="14" data-gantt-resources="" data-gantt-load="" data-gantt-completion="0" data-gantt-deleted="false" x="204" y="123" width="69" height="20" rx="3" ry="3" fill="#3b82f6" stroke="#1e40af" stroke-width="1"/><text x="32" y="171" font-family="monospace" font-size="12" fill="#0f172a">Core Engine</text><rect class="gantt-task" data-gantt-start="2026-07-15" data-gantt-workload="20" data-gantt-duration="28" data-gantt-resources="" data-gantt-load="" data-gantt-completion="0" data-gantt-deleted="false" x="273" y="157" width="139" height="20" rx="3" ry="3" fill="#3b82f6" stroke="#1e40af" stroke-width="1"/><text x="32" y="205" font-family="monospace" font-size="12" fill="#0f172a">API Layer</text><rect class="gantt-task" data-gantt-start="2026-07-20" data-gantt-workload="15" data-gantt-duration="19" data-gantt-resources="" data-gantt-load="" data-gantt-completion="0" data-gantt-deleted="false" x="298" y="191" width="94" height="20" rx="3" ry="3" fill="#3b82f6" stroke="#1e40af" stroke-width="1"/><text x="32" y="239" font-family="monospace" font-size="12" fill="#0f172a">UI Shell</text><rect class="gantt-task" data-gantt-start="2026-07-15" data-gantt-workload="18" data-gantt-duration="24" data-gantt-resources="" data-gantt-load="" data-gantt-completion="0" data-gantt-deleted="false" x="273" y="225" width="119" height="20" rx="3" ry="3" fill="#3b82f6" stroke="#1e40af" stroke-width="1"/><text x="32" y="273" font-family="monospace" font-size="12" fill="#0f172a">Integration Tests</text><rect class="gantt-task" data-gantt-start="2026-08-08" data-gantt-workload="8" data-gantt-duration="12" data-gantt-resources="" data-gantt-load="" data-gantt-completion="0" data-gantt-deleted="false" x="393" y="259" width="59" height="20" rx="3" ry="3" fill="#3b82f6" stroke="#1e40af" stroke-width="1"/><text x="32" y="307" font-family="monospace" font-size="12" fill="#0f172a">Docs</text><rect class="gantt-task" data-gantt-start="2026-10-08" data-gantt-workload="10" data-gantt-duration="14" data-gantt-resources="" data-gantt-load="" data-gantt-completion="0" data-gantt-deleted="false" x="698" y="293" width="69" height="20" rx="3" ry="3" fill="#3b82f6" stroke="#1e40af" stroke-width="1"/><text x="32" y="341" font-family="monospace" font-size="12" fill="#0f172a">Alpha Release</text><polygon class="gantt-milestone" points="393,329 401,337 393,345 385,337" fill="#facc15" stroke="#854d0e" stroke-width="1.5"/><text x="32" y="375" font-family="monospace" font-size="12" fill="#0f172a">Beta Release</text><polygon class="gantt-milestone" points="453,363 461,371 453,379 445,371" fill="#facc15" stroke="#854d0e" stroke-width="1.5"/><text x="32" y="409" font-family="monospace" font-size="12" fill="#0f172a">GA Release</text><polygon class="gantt-milestone" points="658,397 666,405 658,413 650,405" fill="#facc15" stroke="#854d0e" stroke-width="1.5"/><text x="32" y="443" font-family="monospace" font-size="12" fill="#0f172a">Alpha Release</text><polygon class="gantt-milestone" points="393,431 401,439 393,447 385,439" fill="#facc15" stroke="#854d0e" stroke-width="1.5"/><text x="32" y="477" font-family="monospace" font-size="12" fill="#0f172a">Beta Release</text><polygon class="gantt-milestone" points="453,465 461,473 453,481 445,473" fill="#facc15" stroke="#854d0e" stroke-width="1.5"/><line class="gantt-dependency gantt-dependency-starts" data-gantt-from="Architecture" data-gantt-to="Core Engine" x1="273" y1="133" x2="273" y2="167" stroke="#64748b" stroke-width="1.25" stroke-dasharray="4 3" marker-end="url(#gantt-arrow)"/><line class="gantt-dependency gantt-dependency-starts" data-gantt-from="Core Engine" data-gantt-to="API Layer" x1="273" y1="167" x2="298" y2="201" stroke="#64748b" stroke-width="1.25" stroke-dasharray="4 3" marker-end="url(#gantt-arrow)"/><line class="gantt-dependency gantt-dependency-starts" data-gantt-from="Architecture" data-gantt-to="UI Shell" x1="273" y1="133" x2="273" y2="235" stroke="#64748b" stroke-width="1.25" stroke-dasharray="4 3" marker-end="url(#gantt-arrow)"/><line class="gantt-dependency gantt-dependency-starts" data-gantt-from="Core Engine" data-gantt-to="Integration Tests" x1="412" y1="167" x2="393" y2="269" stroke="#64748b" stroke-width="1.25" stroke-dasharray="4 3" marker-end="url(#gantt-arrow)"/><line class="gantt-dependency gantt-dependency-starts" data-gantt-from="API Layer" data-gantt-to="Integration Tests" x1="392" y1="201" x2="393" y2="269" stroke="#64748b" stroke-width="1.25" stroke-dasharray="4 3" marker-end="url(#gantt-arrow)"/><line class="gantt-dependency gantt-dependency-starts" data-gantt-from="Beta Release" data-gantt-to="Docs" x1="453" y1="473" x2="698" y2="303" stroke="#64748b" stroke-width="1.25" stroke-dasharray="4 3" marker-end="url(#gantt-arrow)"/><line class="gantt-dependency gantt-dependency-happens" data-gantt-from="UI Shell" data-gantt-to="Alpha Release" x1="392" y1="235" x2="393" y2="439" stroke="#64748b" stroke-width="1.25" stroke-dasharray="4 3" marker-end="url(#gantt-arrow)"/><line class="gantt-dependency gantt-dependency-happens" data-gantt-from="Integration Tests" data-gantt-to="Beta Release" x1="452" y1="269" x2="453" y2="473" stroke="#64748b" stroke-width="1.25" stroke-dasharray="4 3" marker-end="url(#gantt-arrow)"/><defs><marker id="gantt-arrow" viewBox="0 0 10 10" refX="9" refY="5" markerWidth="8" markerHeight="8" orient="auto-start-reverse"><path d="M0,0 L10,5 L0,10 z" fill="#64748b"/></marker></defs><text x="32" y="520" font-family="monospace" font-size="11" fill="#475569">Project starts 2026-07-01</text><text x="32" y="534" font-family="monospace" font-size="11" fill="#475569">Alpha Release happens 2026-07-31</text><text x="32" y="548" font-family="monospace" font-size="11" fill="#475569">Beta Release happens 2026-08-28</text><text x="32" y="562" font-family="monospace" font-size="11" fill="#475569">GA Release happens 2026-09-30</text></svg>