<svg xmlns="http://www.w3.org/2000/svg" width="426" height="156" viewBox="0 0 426 156"><rect width="100%" height="100%" fill="#ffffff"/><metadata data-timing-style="#ffffff #64748b #cbd5e1 #f8fafc #0f172a #0ea5e9 #0f172a"/><text x="24" y="22" font-family="monospace" font-size="11" fill="#94a3b8">timing diagram</text><rect x="80" y="40" width="324" height="30" fill="#f8fafc" stroke="#cbd5e1" stroke-width="1"/><line x1="80" y1="70" x2="80" y2="150" stroke="#cbd5e1" stroke-width="1" stroke-dasharray="4 3"/><line x1="80" y1="62" x2="80" y2="70" stroke="#64748b" stroke-width="1.5"/><text class="timing-tick" x="80" y="60" text-anchor="middle" font-family="monospace" font-size="11" fill="#0f172a">@0</text><line x1="173" y1="70" x2="173" y2="150" stroke="#cbd5e1" stroke-width="1" stroke-dasharray="4 3"/><line x1="173" y1="62" x2="173" y2="70" stroke="#64748b" stroke-width="1.5"/><text class="timing-tick" x="173" y="60" text-anchor="middle" font-family="monospace" font-size="11" fill="#0f172a">@100</text><line x1="266" y1="70" x2="266" y2="150" stroke="#cbd5e1" stroke-width="1" stroke-dasharray="4 3"/><line x1="266" y1="62" x2="266" y2="70" stroke="#64748b" stroke-width="1.5"/><text class="timing-tick" x="266" y="60" text-anchor="middle" font-family="monospace" font-size="11" fill="#0f172a">@200</text><line x1="360" y1="70" x2="360" y2="150" stroke="#cbd5e1" stroke-width="1" stroke-dasharray="4 3"/><line x1="360" y1="62" x2="360" y2="70" stroke="#64748b" stroke-width="1.5"/><text class="timing-tick" x="360" y="60" text-anchor="middle" font-family="monospace" font-size="11" fill="#0f172a">@300</text><line x1="126" y1="66" x2="126" y2="70" stroke="#64748b" stroke-width="0.75"/><line x1="220" y1="66" x2="220" y2="70" stroke="#64748b" stroke-width="0.75"/><line x1="313" y1="66" x2="313" y2="70" stroke="#64748b" stroke-width="0.75"/><rect x="0" y="70" width="426" height="40" fill="#ffffff"/><line x1="0" y1="110" x2="426" y2="110" stroke="#cbd5e1" stroke-width="0.5"/><text x="72" y="94" font-family="monospace" font-size="12" font-weight="600" fill="#0f172a" text-anchor="end">Web User</text><text x="72" y="106" font-family="monospace" font-size="9" fill="#94a3b8" text-anchor="end">concise</text><line x1="80" y1="76" x2="173" y2="76" stroke="#0f172a" stroke-width="1.5"/><line x1="80" y1="104" x2="173" y2="104" stroke="#0f172a" stroke-width="1.5"/><line x1="80" y1="76" x2="80" y2="104" stroke="#0f172a" stroke-width="1.5"/><text x="126" y="94" text-anchor="middle" font-family="monospace" font-size="11" fill="#1e293b">Idle</text><line x1="173" y1="76" x2="360" y2="76" stroke="#0f172a" stroke-width="1.5"/><line x1="173" y1="104" x2="360" y2="104" stroke="#0f172a" stroke-width="1.5"/><line x1="173" y1="76" x2="173" y2="104" stroke="#0f172a" stroke-width="1.5"/><text x="266" y="94" text-anchor="middle" font-family="monospace" font-size="11" fill="#1e293b">Active</text><line x1="360" y1="76" x2="390" y2="76" stroke="#0f172a" stroke-width="1.5"/><line x1="360" y1="104" x2="390" y2="104" stroke="#0f172a" stroke-width="1.5"/><line x1="360" y1="76" x2="360" y2="104" stroke="#0f172a" stroke-width="1.5"/><text x="375" y="94" text-anchor="middle" font-family="monospace" font-size="11" fill="#1e293b">Idle</text><line x1="390" y1="76" x2="390" y2="104" stroke="#0f172a" stroke-width="1.5"/><rect x="0" y="110" width="426" height="40" fill="#f8fafc"/><line x1="0" y1="150" x2="426" y2="150" stroke="#cbd5e1" stroke-width="0.5"/><text x="72" y="134" font-family="monospace" font-size="12" font-weight="600" fill="#0f172a" text-anchor="end">System</text><text x="72" y="146" font-family="monospace" font-size="9" fill="#94a3b8" text-anchor="end">concise</text><line x1="80" y1="116" x2="266" y2="116" stroke="#0f172a" stroke-width="1.5"/><line x1="80" y1="144" x2="266" y2="144" stroke="#0f172a" stroke-width="1.5"/><line x1="80" y1="116" x2="80" y2="144" stroke="#0f172a" stroke-width="1.5"/><text x="173" y="134" text-anchor="middle" font-family="monospace" font-size="11" fill="#1e293b">Idle</text><line x1="266" y1="116" x2="360" y2="116" stroke="#0f172a" stroke-width="1.5"/><line x1="266" y1="144" x2="360" y2="144" stroke="#0f172a" stroke-width="1.5"/><line x1="266" y1="116" x2="266" y2="144" stroke="#0f172a" stroke-width="1.5"/><text x="313" y="134" text-anchor="middle" font-family="monospace" font-size="11" fill="#1e293b">Processing</text><line x1="360" y1="116" x2="390" y2="116" stroke="#0f172a" stroke-width="1.5"/><line x1="360" y1="144" x2="390" y2="144" stroke="#0f172a" stroke-width="1.5"/><line x1="360" y1="116" x2="360" y2="144" stroke="#0f172a" stroke-width="1.5"/><text x="375" y="134" text-anchor="middle" font-family="monospace" font-size="11" fill="#1e293b">Done</text><line x1="390" y1="116" x2="390" y2="144" stroke="#0f172a" stroke-width="1.5"/></svg>