<svg xmlns="http://www.w3.org/2000/svg" width="1048" height="222" viewBox="0 0 1048 222"><rect width="100%" height="100%" fill="#ffffff"/><metadata data-timing-style="#ffffff #64748b #cbd5e1 #f8fafc #0f172a #0ea5e9 #0f172a"/><text x="24" y="22" font-family="monospace" font-size="11" fill="#94a3b8">timing diagram</text><rect x="130" y="40" width="878" height="48" fill="#f8fafc" stroke="#cbd5e1" stroke-width="1"/><line x1="130" y1="88" x2="130" y2="216" stroke="#cbd5e1" stroke-width="1" stroke-dasharray="4 3"/><line x1="130" y1="80" x2="130" y2="88" stroke="#64748b" stroke-width="1.5"/><text class="timing-tick" x="130" y="60" text-anchor="middle" font-family="monospace" font-size="11" fill="#0f172a">@0</text><line x1="383" y1="88" x2="383" y2="216" stroke="#cbd5e1" stroke-width="1" stroke-dasharray="4 3"/><line x1="383" y1="80" x2="383" y2="88" stroke="#64748b" stroke-width="1.5"/><text class="timing-tick" x="383" y="60" text-anchor="middle" font-family="monospace" font-size="11" fill="#0f172a">@100</text><line x1="636" y1="88" x2="636" y2="216" stroke="#cbd5e1" stroke-width="1" stroke-dasharray="4 3"/><line x1="636" y1="80" x2="636" y2="88" stroke="#64748b" stroke-width="1.5"/><text class="timing-tick" x="636" y="60" text-anchor="middle" font-family="monospace" font-size="11" fill="#0f172a">@200</text><line x1="890" y1="88" x2="890" y2="216" stroke="#cbd5e1" stroke-width="1" stroke-dasharray="4 3"/><line x1="890" y1="80" x2="890" y2="88" stroke="#64748b" stroke-width="1.5"/><text class="timing-tick" x="890" y="60" text-anchor="middle" font-family="monospace" font-size="11" fill="#0f172a">@300</text><line x1="256" y1="84" x2="256" y2="88" stroke="#64748b" stroke-width="0.75"/><line x1="510" y1="84" x2="510" y2="88" stroke="#64748b" stroke-width="0.75"/><line x1="763" y1="84" x2="763" y2="88" stroke="#64748b" stroke-width="0.75"/><rect x="0" y="88" width="1048" height="64" fill="#ffffff"/><line x1="0" y1="152" x2="1048" y2="152" stroke="#cbd5e1" stroke-width="0.5"/><text x="122" y="124" font-family="monospace" font-size="12" font-weight="600" fill="#0f172a" text-anchor="end">Web User</text><text x="122" y="136" font-family="monospace" font-size="9" fill="#94a3b8" text-anchor="end">concise</text><line x1="130" y1="98" x2="383" y2="98" stroke="#0f172a" stroke-width="1.5"/><line x1="130" y1="142" x2="383" y2="142" stroke="#0f172a" stroke-width="1.5"/><line x1="130" y1="98" x2="130" y2="142" stroke="#0f172a" stroke-width="1.5"/><text x="256" y="124" text-anchor="middle" font-family="monospace" font-size="11" fill="#1e293b">Idle</text><line x1="383" y1="98" x2="890" y2="98" stroke="#0f172a" stroke-width="1.5"/><line x1="383" y1="142" x2="890" y2="142" stroke="#0f172a" stroke-width="1.5"/><line x1="383" y1="98" x2="383" y2="142" stroke="#0f172a" stroke-width="1.5"/><text x="636" y="124" text-anchor="middle" font-family="monospace" font-size="11" fill="#1e293b">Active</text><line x1="890" y1="98" x2="971" y2="98" stroke="#0f172a" stroke-width="1.5"/><line x1="890" y1="142" x2="971" y2="142" stroke="#0f172a" stroke-width="1.5"/><line x1="890" y1="98" x2="890" y2="142" stroke="#0f172a" stroke-width="1.5"/><text x="930" y="124" text-anchor="middle" font-family="monospace" font-size="11" fill="#1e293b">Idle</text><line x1="971" y1="98" x2="971" y2="142" stroke="#0f172a" stroke-width="1.5"/><rect x="0" y="152" width="1048" height="64" fill="#f8fafc"/><line x1="0" y1="216" x2="1048" y2="216" stroke="#cbd5e1" stroke-width="0.5"/><text x="122" y="188" font-family="monospace" font-size="12" font-weight="600" fill="#0f172a" text-anchor="end">System</text><text x="122" y="200" font-family="monospace" font-size="9" fill="#94a3b8" text-anchor="end">concise</text><line x1="130" y1="162" x2="636" y2="162" stroke="#0f172a" stroke-width="1.5"/><line x1="130" y1="206" x2="636" y2="206" stroke="#0f172a" stroke-width="1.5"/><line x1="130" y1="162" x2="130" y2="206" stroke="#0f172a" stroke-width="1.5"/><text x="383" y="188" text-anchor="middle" font-family="monospace" font-size="11" fill="#1e293b">Idle</text><line x1="636" y1="162" x2="890" y2="162" stroke="#0f172a" stroke-width="1.5"/><line x1="636" y1="206" x2="890" y2="206" stroke="#0f172a" stroke-width="1.5"/><line x1="636" y1="162" x2="636" y2="206" stroke="#0f172a" stroke-width="1.5"/><text x="763" y="188" text-anchor="middle" font-family="monospace" font-size="11" fill="#1e293b">Processing</text><line x1="890" y1="162" x2="971" y2="162" stroke="#0f172a" stroke-width="1.5"/><line x1="890" y1="206" x2="971" y2="206" stroke="#0f172a" stroke-width="1.5"/><line x1="890" y1="162" x2="890" y2="206" stroke="#0f172a" stroke-width="1.5"/><text x="930" y="188" text-anchor="middle" font-family="monospace" font-size="11" fill="#1e293b">Done</text><line x1="971" y1="162" x2="971" y2="206" stroke="#0f172a" stroke-width="1.5"/></svg>