<svg xmlns="http://www.w3.org/2000/svg" width="426" height="156" viewBox="0 0 426 156"><rect width="100%" height="100%" fill="#ffffff"/><metadata data-timing-style="#ffffff #64748b #cbd5e1 #f8fafc #0f172a #0ea5e9 #0f172a"/><text x="24" y="22" font-family="monospace" font-size="11" fill="#94a3b8">timing diagram</text><rect x="80" y="40" width="324" height="30" fill="#f8fafc" stroke="#cbd5e1" stroke-width="1"/><line x1="80" y1="70" x2="80" y2="150" stroke="#cbd5e1" stroke-width="1" stroke-dasharray="4 3"/><line x1="80" y1="62" x2="80" y2="70" stroke="#64748b" stroke-width="1.5"/><text class="timing-tick" x="80" y="60" text-anchor="middle" font-family="monospace" font-size="11" fill="#0f172a">@0</text><line x1="150" y1="70" x2="150" y2="150" stroke="#cbd5e1" stroke-width="1" stroke-dasharray="4 3"/><line x1="150" y1="62" x2="150" y2="70" stroke="#64748b" stroke-width="1.5"/><text class="timing-tick" x="150" y="60" text-anchor="middle" font-family="monospace" font-size="11" fill="#0f172a">@50</text><line x1="220" y1="70" x2="220" y2="150" stroke="#cbd5e1" stroke-width="1" stroke-dasharray="4 3"/><line x1="220" y1="62" x2="220" y2="70" stroke="#64748b" stroke-width="1.5"/><text class="timing-tick" x="220" y="60" text-anchor="middle" font-family="monospace" font-size="11" fill="#0f172a">@100</text><line x1="360" y1="70" x2="360" y2="150" stroke="#cbd5e1" stroke-width="1" stroke-dasharray="4 3"/><line x1="360" y1="62" x2="360" y2="70" stroke="#64748b" stroke-width="1.5"/><text class="timing-tick" x="360" y="60" text-anchor="middle" font-family="monospace" font-size="11" fill="#0f172a">@200</text><line x1="115" y1="66" x2="115" y2="70" stroke="#64748b" stroke-width="0.75"/><line x1="185" y1="66" x2="185" y2="70" stroke="#64748b" stroke-width="0.75"/><line x1="290" y1="66" x2="290" y2="70" stroke="#64748b" stroke-width="0.75"/><rect x="0" y="70" width="426" height="40" fill="#ffffff"/><line x1="0" y1="110" x2="426" y2="110" stroke="#cbd5e1" stroke-width="0.5"/><text x="72" y="94" font-family="monospace" font-size="12" font-weight="600" fill="#0f172a" text-anchor="end">Server</text><text x="72" y="106" font-family="monospace" font-size="9" fill="#94a3b8" text-anchor="end">robust</text><polygon points="86,76 220,76 214,104 80,104" fill="#bfdbfe" stroke="#475569" stroke-width="1.5"/><text x="150" y="94" text-anchor="middle" font-family="monospace" font-size="11" fill="#0f172a" font-weight="600">Idle</text><polygon points="226,76 360,76 354,104 220,104" fill="#ddd6fe" stroke="#475569" stroke-width="1.5"/><text x="290" y="94" text-anchor="middle" font-family="monospace" font-size="11" fill="#0f172a" font-weight="600">Connected</text><polygon points="366,76 390,76 384,104 360,104" fill="#bfdbfe" stroke="#475569" stroke-width="1.5"/><text x="375" y="94" text-anchor="middle" font-family="monospace" font-size="11" fill="#0f172a" font-weight="600">Idle</text><rect x="0" y="110" width="426" height="40" fill="#f8fafc"/><line x1="0" y1="150" x2="426" y2="150" stroke="#cbd5e1" stroke-width="0.5"/><text x="72" y="134" font-family="monospace" font-size="12" font-weight="600" fill="#0f172a" text-anchor="end">Client</text><text x="72" y="146" font-family="monospace" font-size="9" fill="#94a3b8" text-anchor="end">robust</text><polygon points="86,116 150,116 144,144 80,144" fill="#bfdbfe" stroke="#475569" stroke-width="1.5"/><text x="115" y="134" text-anchor="middle" font-family="monospace" font-size="11" fill="#0f172a" font-weight="600">Idle</text><polygon points="156,116 220,116 214,144 150,144" fill="#ddd6fe" stroke="#475569" stroke-width="1.5"/><text x="185" y="134" text-anchor="middle" font-family="monospace" font-size="11" fill="#0f172a" font-weight="600">Connecting</text><polygon points="226,116 360,116 354,144 220,144" fill="#fde68a" stroke="#475569" stroke-width="1.5"/><text x="290" y="134" text-anchor="middle" font-family="monospace" font-size="11" fill="#0f172a" font-weight="600">Connected</text><polygon points="366,116 390,116 384,144 360,144" fill="#bfdbfe" stroke="#475569" stroke-width="1.5"/><text x="375" y="134" text-anchor="middle" font-family="monospace" font-size="11" fill="#0f172a" font-weight="600">Idle</text></svg>