<svg xmlns="http://www.w3.org/2000/svg" width="1048" height="222" viewBox="0 0 1048 222"><rect width="100%" height="100%" fill="#ffffff"/><metadata data-timing-style="#ffffff #64748b #cbd5e1 #f8fafc #0f172a #0ea5e9 #0f172a"/><text x="24" y="22" font-family="monospace" font-size="11" fill="#94a3b8">timing diagram</text><rect x="130" y="40" width="760" height="48" fill="#f8fafc" stroke="#cbd5e1" stroke-width="1"/><line x1="130" y1="88" x2="130" y2="216" stroke="#cbd5e1" stroke-width="1" stroke-dasharray="4 3"/><line x1="130" y1="80" x2="130" y2="88" stroke="#64748b" stroke-width="1.5"/><text class="timing-tick" x="130" y="60" text-anchor="middle" font-family="monospace" font-size="11" fill="#0f172a">@0</text><line x1="320" y1="88" x2="320" y2="216" stroke="#cbd5e1" stroke-width="1" stroke-dasharray="4 3"/><line x1="320" y1="80" x2="320" y2="88" stroke="#64748b" stroke-width="1.5"/><text class="timing-tick" x="320" y="60" text-anchor="middle" font-family="monospace" font-size="11" fill="#0f172a">@50</text><line x1="510" y1="88" x2="510" y2="216" stroke="#cbd5e1" stroke-width="1" stroke-dasharray="4 3"/><line x1="510" y1="80" x2="510" y2="88" stroke="#64748b" stroke-width="1.5"/><text class="timing-tick" x="510" y="60" text-anchor="middle" font-family="monospace" font-size="11" fill="#0f172a">@100</text><line x1="890" y1="88" x2="890" y2="216" stroke="#cbd5e1" stroke-width="1" stroke-dasharray="4 3"/><line x1="890" y1="80" x2="890" y2="88" stroke="#64748b" stroke-width="1.5"/><text class="timing-tick" x="890" y="60" text-anchor="middle" font-family="monospace" font-size="11" fill="#0f172a">@200</text><line x1="225" y1="84" x2="225" y2="88" stroke="#64748b" stroke-width="0.75"/><line x1="415" y1="84" x2="415" y2="88" stroke="#64748b" stroke-width="0.75"/><line x1="700" y1="84" x2="700" y2="88" stroke="#64748b" stroke-width="0.75"/><rect x="0" y="88" width="1048" height="64" fill="#ffffff"/><text x="122" y="124" font-family="monospace" font-size="12" font-weight="600" fill="#0f172a" text-anchor="end">Server</text><text x="122" y="136" font-family="monospace" font-size="9" fill="#94a3b8" text-anchor="end">robust</text><line x1="0" y1="152" x2="1048" y2="152" stroke="#cbd5e1" stroke-width="0.5"/><polygon points="136,98 510,98 504,142 130,142" fill="#bfdbfe" stroke="#475569" stroke-width="1.5"/><text x="320" y="124" text-anchor="middle" font-family="monospace" font-size="11" fill="#0f172a" font-weight="600">Idle</text><polygon points="516,98 890,98 884,142 510,142" fill="#ddd6fe" stroke="#475569" stroke-width="1.5"/><text x="700" y="124" text-anchor="middle" font-family="monospace" font-size="11" fill="#0f172a" font-weight="600">Connected</text><polygon points="896,98 931,98 925,142 890,142" fill="#bfdbfe" stroke="#475569" stroke-width="1.5"/><text x="910" y="124" text-anchor="middle" font-family="monospace" font-size="11" fill="#0f172a" font-weight="600">Idle</text><rect x="0" y="152" width="1048" height="64" fill="#f8fafc"/><text x="122" y="188" font-family="monospace" font-size="12" font-weight="600" fill="#0f172a" text-anchor="end">Client</text><text x="122" y="200" font-family="monospace" font-size="9" fill="#94a3b8" text-anchor="end">robust</text><line x1="0" y1="216" x2="1048" y2="216" stroke="#cbd5e1" stroke-width="0.5"/><polygon points="136,162 320,162 314,206 130,206" fill="#bfdbfe" stroke="#475569" stroke-width="1.5"/><text x="225" y="188" text-anchor="middle" font-family="monospace" font-size="11" fill="#0f172a" font-weight="600">Idle</text><polygon points="326,162 510,162 504,206 320,206" fill="#ddd6fe" stroke="#475569" stroke-width="1.5"/><text x="415" y="188" text-anchor="middle" font-family="monospace" font-size="11" fill="#0f172a" font-weight="600">Connecting</text><polygon points="516,162 890,162 884,206 510,206" fill="#fde68a" stroke="#475569" stroke-width="1.5"/><text x="700" y="188" text-anchor="middle" font-family="monospace" font-size="11" fill="#0f172a" font-weight="600">Connected</text><polygon points="896,162 931,162 925,206 890,206" fill="#bfdbfe" stroke="#475569" stroke-width="1.5"/><text x="910" y="188" text-anchor="middle" font-family="monospace" font-size="11" fill="#0f172a" font-weight="600">Idle</text></svg>