<svg xmlns="http://www.w3.org/2000/svg" width="1048" height="222" viewBox="0 0 1048 222"><rect width="100%" height="100%" fill="#ffffff"/><metadata data-timing-style="#ffffff #64748b #cbd5e1 #f8fafc #0f172a #0ea5e9 #0f172a"/><text x="24" y="22" font-family="monospace" font-size="11" fill="#94a3b8">timing diagram</text><rect x="130" y="40" width="760" height="48" fill="#f8fafc" stroke="#cbd5e1" stroke-width="1"/><line x1="130" y1="88" x2="130" y2="216" stroke="#cbd5e1" stroke-width="1" stroke-dasharray="4 3"/><line x1="130" y1="80" x2="130" y2="88" stroke="#64748b" stroke-width="1.5"/><text x="130" y="60" text-anchor="middle" font-family="monospace" font-size="11" fill="#0f172a">@0</text><line x1="320" y1="88" x2="320" y2="216" stroke="#cbd5e1" stroke-width="1" stroke-dasharray="4 3"/><line x1="320" y1="80" x2="320" y2="88" stroke="#64748b" stroke-width="1.5"/><text x="320" y="60" text-anchor="middle" font-family="monospace" font-size="11" fill="#0f172a">@1</text><line x1="510" y1="88" x2="510" y2="216" stroke="#cbd5e1" stroke-width="1" stroke-dasharray="4 3"/><line x1="510" y1="80" x2="510" y2="88" stroke="#64748b" stroke-width="1.5"/><text x="510" y="60" text-anchor="middle" font-family="monospace" font-size="11" fill="#0f172a">@2</text><line x1="700" y1="88" x2="700" y2="216" stroke="#cbd5e1" stroke-width="1" stroke-dasharray="4 3"/><line x1="700" y1="80" x2="700" y2="88" stroke="#64748b" stroke-width="1.5"/><text x="700" y="60" text-anchor="middle" font-family="monospace" font-size="11" fill="#0f172a">@3</text><line x1="890" y1="88" x2="890" y2="216" stroke="#cbd5e1" stroke-width="1" stroke-dasharray="4 3"/><line x1="890" y1="80" x2="890" y2="88" stroke="#64748b" stroke-width="1.5"/><text x="890" y="60" text-anchor="middle" font-family="monospace" font-size="11" fill="#0f172a">@4</text><line x1="130" y1="84" x2="130" y2="88" stroke="#64748b" stroke-width="0.75"/><line x1="320" y1="84" x2="320" y2="88" stroke="#64748b" stroke-width="0.75"/><line x1="510" y1="84" x2="510" y2="88" stroke="#64748b" stroke-width="0.75"/><line x1="700" y1="84" x2="700" y2="88" stroke="#64748b" stroke-width="0.75"/><rect x="0" y="88" width="1048" height="64" fill="#ffffff"/><text x="122" y="124" font-family="monospace" font-size="12" font-weight="600" fill="#0f172a" text-anchor="end">clk</text><text x="122" y="136" font-family="monospace" font-size="9" fill="#94a3b8" text-anchor="end">clock</text><text x="122" y="148" font-family="monospace" font-size="9" fill="#64748b" text-anchor="end">period 1</text><line x1="0" y1="152" x2="1048" y2="152" stroke="#cbd5e1" stroke-width="0.5"/><polyline data-timing-period="1" data-timing-pulse="1" data-timing-offset="0" points="130,142 320,142 320,98 510,98 510,142 700,142 700,98 890,98 890,142 1048,142 1048,98" fill="none" stroke="#0f172a" stroke-width="2"/><text x="134" y="94" font-family="monospace" font-size="10" fill="#64748b">clk</text><rect x="0" y="152" width="1048" height="64" fill="#f8fafc"/><text x="122" y="188" font-family="monospace" font-size="12" font-weight="600" fill="#0f172a" text-anchor="end">Enable</text><text x="122" y="200" font-family="monospace" font-size="9" fill="#94a3b8" text-anchor="end">binary</text><line x1="0" y1="216" x2="1048" y2="216" stroke="#cbd5e1" stroke-width="0.5"/><polyline points="130,206 130,206 510,206 510,162 890,162 890,206 1080,206 " fill="none" stroke="#0f172a" stroke-width="2"/><text x="130" y="158" text-anchor="middle" font-family="monospace" font-size="10" fill="#475569">low</text><text x="510" y="158" text-anchor="middle" font-family="monospace" font-size="10" fill="#475569">high</text><text x="890" y="158" text-anchor="middle" font-family="monospace" font-size="10" fill="#475569">low</text></svg>