<svg xmlns="http://www.w3.org/2000/svg" width="426" height="156" viewBox="0 0 426 156"><rect width="100%" height="100%" fill="#ffffff"/><metadata data-timing-style="#ffffff #64748b #cbd5e1 #f8fafc #0f172a #0ea5e9 #0f172a"/><rect x="80" y="40" width="324" height="30" fill="#f8fafc" stroke="#cbd5e1" stroke-width="1"/><line x1="80" y1="70" x2="80" y2="150" stroke="#cbd5e1" stroke-width="1" stroke-dasharray="4 3"/><line x1="80" y1="62" x2="80" y2="70" stroke="#64748b" stroke-width="1.5"/><text class="timing-tick" x="80" y="60" text-anchor="middle" font-family="monospace" font-size="11" fill="#0f172a">@0</text><line x1="150" y1="70" x2="150" y2="150" stroke="#cbd5e1" stroke-width="1" stroke-dasharray="4 3"/><line x1="150" y1="62" x2="150" y2="70" stroke="#64748b" stroke-width="1.5"/><text class="timing-tick" x="150" y="60" text-anchor="middle" font-family="monospace" font-size="11" fill="#0f172a">@10</text><line x1="220" y1="70" x2="220" y2="150" stroke="#cbd5e1" stroke-width="1" stroke-dasharray="4 3"/><line x1="220" y1="62" x2="220" y2="70" stroke="#64748b" stroke-width="1.5"/><text class="timing-tick" x="220" y="60" text-anchor="middle" font-family="monospace" font-size="11" fill="#0f172a">@20</text><line x1="290" y1="70" x2="290" y2="150" stroke="#cbd5e1" stroke-width="1" stroke-dasharray="4 3"/><line x1="290" y1="62" x2="290" y2="70" stroke="#64748b" stroke-width="1.5"/><text class="timing-tick" x="290" y="60" text-anchor="middle" font-family="monospace" font-size="11" fill="#0f172a">@30</text><line x1="360" y1="70" x2="360" y2="150" stroke="#cbd5e1" stroke-width="1" stroke-dasharray="4 3"/><line x1="360" y1="62" x2="360" y2="70" stroke="#64748b" stroke-width="1.5"/><text class="timing-tick" x="360" y="60" text-anchor="middle" font-family="monospace" font-size="11" fill="#0f172a">@40</text><line x1="115" y1="66" x2="115" y2="70" stroke="#64748b" stroke-width="0.75"/><line x1="185" y1="66" x2="185" y2="70" stroke="#64748b" stroke-width="0.75"/><line x1="255" y1="66" x2="255" y2="70" stroke="#64748b" stroke-width="0.75"/><line x1="325" y1="66" x2="325" y2="70" stroke="#64748b" stroke-width="0.75"/><rect x="0" y="70" width="426" height="40" fill="#ffffff"/><line x1="0" y1="110" x2="426" y2="110" stroke="#cbd5e1" stroke-width="0.5"/><text x="72" y="94" font-family="monospace" font-size="12" font-weight="600" fill="#0f172a" text-anchor="end">Request</text><polyline points="80,104 80,104 150,104 150,76 290,76 290,104 395,104 " fill="none" stroke="#0f172a" stroke-width="2"/><text x="80" y="72" text-anchor="middle" font-family="monospace" font-size="10" fill="#475569">low</text><text x="150" y="72" text-anchor="middle" font-family="monospace" font-size="10" fill="#475569">high</text><text x="290" y="72" text-anchor="middle" font-family="monospace" font-size="10" fill="#475569">low</text><rect x="0" y="110" width="426" height="40" fill="#f8fafc"/><line x1="0" y1="150" x2="426" y2="150" stroke="#cbd5e1" stroke-width="0.5"/><text x="72" y="134" font-family="monospace" font-size="12" font-weight="600" fill="#0f172a" text-anchor="end">Ack</text><polyline points="80,144 80,144 220,144 220,116 360,116 360,144 395,144 " fill="none" stroke="#0f172a" stroke-width="2"/><text x="80" y="112" text-anchor="middle" font-family="monospace" font-size="10" fill="#475569">low</text><text x="220" y="112" text-anchor="middle" font-family="monospace" font-size="10" fill="#475569">high</text><text x="360" y="112" text-anchor="middle" font-family="monospace" font-size="10" fill="#475569">low</text></svg>