<svg xmlns="http://www.w3.org/2000/svg" width="1048" height="446" viewBox="0 0 1048 446"><rect width="100%" height="100%" fill="#ffffff"/><metadata data-timing-style="#ffffff #64748b #cbd5e1 #f8fafc #0f172a #0ea5e9 #0f172a"/><text x="24" y="22" font-family="monospace" font-size="18" font-weight="600" fill="#0f172a">Concurrent timelines: CPU, cache, and I/O</text><text x="24" y="44" font-family="monospace" font-size="11" fill="#94a3b8">timing diagram</text><rect x="130" y="62" width="760" height="48" fill="#f8fafc" stroke="#cbd5e1" stroke-width="1"/><line x1="130" y1="110" x2="130" y2="430" stroke="#cbd5e1" stroke-width="1" stroke-dasharray="4 3"/><line x1="130" y1="102" x2="130" y2="110" stroke="#64748b" stroke-width="1.5"/><text class="timing-tick" x="130" y="82" text-anchor="middle" font-family="monospace" font-size="11" fill="#0f172a">@0</text><line x1="225" y1="110" x2="225" y2="430" stroke="#cbd5e1" stroke-width="1" stroke-dasharray="4 3"/><line x1="225" y1="102" x2="225" y2="110" stroke="#64748b" stroke-width="1.5"/><text class="timing-tick" x="225" y="82" text-anchor="middle" font-family="monospace" font-size="11" fill="#0f172a">@1</text><line x1="320" y1="110" x2="320" y2="430" stroke="#cbd5e1" stroke-width="1" stroke-dasharray="4 3"/><line x1="320" y1="102" x2="320" y2="110" stroke="#64748b" stroke-width="1.5"/><text class="timing-tick" x="320" y="82" text-anchor="middle" font-family="monospace" font-size="11" fill="#0f172a">@2</text><line x1="415" y1="110" x2="415" y2="430" stroke="#cbd5e1" stroke-width="1" stroke-dasharray="4 3"/><line x1="415" y1="102" x2="415" y2="110" stroke="#64748b" stroke-width="1.5"/><text class="timing-tick" x="415" y="82" text-anchor="middle" font-family="monospace" font-size="11" fill="#0f172a">@3</text><line x1="510" y1="110" x2="510" y2="430" stroke="#cbd5e1" stroke-width="1" stroke-dasharray="4 3"/><line x1="510" y1="102" x2="510" y2="110" stroke="#64748b" stroke-width="1.5"/><text class="timing-tick" x="510" y="82" text-anchor="middle" font-family="monospace" font-size="11" fill="#0f172a">@4</text><line x1="605" y1="110" x2="605" y2="430" stroke="#cbd5e1" stroke-width="1" stroke-dasharray="4 3"/><line x1="605" y1="102" x2="605" y2="110" stroke="#64748b" stroke-width="1.5"/><text class="timing-tick" x="605" y="82" text-anchor="middle" font-family="monospace" font-size="11" fill="#0f172a">@5</text><line x1="700" y1="110" x2="700" y2="430" stroke="#cbd5e1" stroke-width="1" stroke-dasharray="4 3"/><line x1="700" y1="102" x2="700" y2="110" stroke="#64748b" stroke-width="1.5"/><text class="timing-tick" x="700" y="82" text-anchor="middle" font-family="monospace" font-size="11" fill="#0f172a">@6</text><line x1="795" y1="110" x2="795" y2="430" stroke="#cbd5e1" stroke-width="1" stroke-dasharray="4 3"/><line x1="795" y1="102" x2="795" y2="110" stroke="#64748b" stroke-width="1.5"/><text class="timing-tick" x="795" y="82" text-anchor="middle" font-family="monospace" font-size="11" fill="#0f172a">@7</text><line x1="890" y1="110" x2="890" y2="430" stroke="#cbd5e1" stroke-width="1" stroke-dasharray="4 3"/><line x1="890" y1="102" x2="890" y2="110" stroke="#64748b" stroke-width="1.5"/><text class="timing-tick" x="890" y="82" text-anchor="middle" font-family="monospace" font-size="11" fill="#0f172a">@8</text><line x1="130" y1="106" x2="130" y2="110" stroke="#64748b" stroke-width="0.75"/><line x1="225" y1="106" x2="225" y2="110" stroke="#64748b" stroke-width="0.75"/><line x1="320" y1="106" x2="320" y2="110" stroke="#64748b" stroke-width="0.75"/><line x1="415" y1="106" x2="415" y2="110" stroke="#64748b" stroke-width="0.75"/><line x1="510" y1="106" x2="510" y2="110" stroke="#64748b" stroke-width="0.75"/><line x1="605" y1="106" x2="605" y2="110" stroke="#64748b" stroke-width="0.75"/><line x1="700" y1="106" x2="700" y2="110" stroke="#64748b" stroke-width="0.75"/><line x1="795" y1="106" x2="795" y2="110" stroke="#64748b" stroke-width="0.75"/><rect x="0" y="110" width="1048" height="64" fill="#ffffff"/><text x="122" y="146" font-family="monospace" font-size="12" font-weight="600" fill="#0f172a" text-anchor="end">CPU</text><text x="122" y="158" font-family="monospace" font-size="9" fill="#94a3b8" text-anchor="end">concise</text><line x1="0" y1="174" x2="1048" y2="174" stroke="#cbd5e1" stroke-width="0.5"/><line x1="130" y1="120" x2="225" y2="120" stroke="#0f172a" stroke-width="1.5"/><line x1="130" y1="164" x2="225" y2="164" stroke="#0f172a" stroke-width="1.5"/><line x1="130" y1="120" x2="130" y2="164" stroke="#0f172a" stroke-width="1.5"/><text x="177" y="146" text-anchor="middle" font-family="monospace" font-size="11" fill="#1e293b">Fetch</text><line x1="225" y1="120" x2="320" y2="120" stroke="#0f172a" stroke-width="1.5"/><line x1="225" y1="164" x2="320" y2="164" stroke="#0f172a" stroke-width="1.5"/><line x1="225" y1="120" x2="225" y2="164" stroke="#0f172a" stroke-width="1.5"/><text x="272" y="146" text-anchor="middle" font-family="monospace" font-size="11" fill="#1e293b">Decode</text><line x1="320" y1="120" x2="415" y2="120" stroke="#0f172a" stroke-width="1.5"/><line x1="320" y1="164" x2="415" y2="164" stroke="#0f172a" stroke-width="1.5"/><line x1="320" y1="120" x2="320" y2="164" stroke="#0f172a" stroke-width="1.5"/><text x="367" y="146" text-anchor="middle" font-family="monospace" font-size="11" fill="#1e293b">Execute</text><line x1="415" y1="120" x2="605" y2="120" stroke="#0f172a" stroke-width="1.5"/><line x1="415" y1="164" x2="605" y2="164" stroke="#0f172a" stroke-width="1.5"/><line x1="415" y1="120" x2="415" y2="164" stroke="#0f172a" stroke-width="1.5"/><text x="510" y="146" text-anchor="middle" font-family="monospace" font-size="11" fill="#1e293b">Stall</text><line x1="605" y1="120" x2="700" y2="120" stroke="#0f172a" stroke-width="1.5"/><line x1="605" y1="164" x2="700" y2="164" stroke="#0f172a" stroke-width="1.5"/><line x1="605" y1="120" x2="605" y2="164" stroke="#0f172a" stroke-width="1.5"/><text x="652" y="146" text-anchor="middle" font-family="monospace" font-size="11" fill="#1e293b">WriteBack</text><line x1="700" y1="120" x2="890" y2="120" stroke="#0f172a" stroke-width="1.5"/><line x1="700" y1="164" x2="890" y2="164" stroke="#0f172a" stroke-width="1.5"/><line x1="700" y1="120" x2="700" y2="164" stroke="#0f172a" stroke-width="1.5"/><text x="795" y="146" text-anchor="middle" font-family="monospace" font-size="11" fill="#1e293b">Fetch</text><line x1="890" y1="120" x2="985" y2="120" stroke="#0f172a" stroke-width="1.5"/><line x1="890" y1="164" x2="985" y2="164" stroke="#0f172a" stroke-width="1.5"/><line x1="890" y1="120" x2="890" y2="164" stroke="#0f172a" stroke-width="1.5"/><text x="937" y="146" text-anchor="middle" font-family="monospace" font-size="11" fill="#1e293b">Decode</text><line x1="985" y1="120" x2="985" y2="164" stroke="#0f172a" stroke-width="1.5"/><rect x="0" y="174" width="1048" height="64" fill="#f8fafc"/><text x="122" y="210" font-family="monospace" font-size="12" font-weight="600" fill="#0f172a" text-anchor="end">Cache L1</text><text x="122" y="222" font-family="monospace" font-size="9" fill="#94a3b8" text-anchor="end">concise</text><line x1="0" y1="238" x2="1048" y2="238" stroke="#cbd5e1" stroke-width="0.5"/><line x1="130" y1="184" x2="320" y2="184" stroke="#0f172a" stroke-width="1.5"/><line x1="130" y1="228" x2="320" y2="228" stroke="#0f172a" stroke-width="1.5"/><line x1="130" y1="184" x2="130" y2="228" stroke="#0f172a" stroke-width="1.5"/><text x="225" y="210" text-anchor="middle" font-family="monospace" font-size="11" fill="#1e293b">Warm</text><line x1="320" y1="184" x2="415" y2="184" stroke="#0f172a" stroke-width="1.5"/><line x1="320" y1="228" x2="415" y2="228" stroke="#0f172a" stroke-width="1.5"/><line x1="320" y1="184" x2="320" y2="228" stroke="#0f172a" stroke-width="1.5"/><text x="367" y="210" text-anchor="middle" font-family="monospace" font-size="11" fill="#1e293b">Hit</text><line x1="415" y1="184" x2="605" y2="184" stroke="#0f172a" stroke-width="1.5"/><line x1="415" y1="228" x2="605" y2="228" stroke="#0f172a" stroke-width="1.5"/><line x1="415" y1="184" x2="415" y2="228" stroke="#0f172a" stroke-width="1.5"/><text x="510" y="210" text-anchor="middle" font-family="monospace" font-size="11" fill="#1e293b">Miss</text><line x1="605" y1="184" x2="985" y2="184" stroke="#0f172a" stroke-width="1.5"/><line x1="605" y1="228" x2="985" y2="228" stroke="#0f172a" stroke-width="1.5"/><line x1="605" y1="184" x2="605" y2="228" stroke="#0f172a" stroke-width="1.5"/><text x="795" y="210" text-anchor="middle" font-family="monospace" font-size="11" fill="#1e293b">Fill</text><line x1="985" y1="184" x2="985" y2="228" stroke="#0f172a" stroke-width="1.5"/><rect x="0" y="238" width="1048" height="64" fill="#ffffff"/><text x="122" y="274" font-family="monospace" font-size="12" font-weight="600" fill="#0f172a" text-anchor="end">Memory Bus</text><text x="122" y="286" font-family="monospace" font-size="9" fill="#94a3b8" text-anchor="end">concise</text><line x1="0" y1="302" x2="1048" y2="302" stroke="#cbd5e1" stroke-width="0.5"/><line x1="130" y1="248" x2="415" y2="248" stroke="#0f172a" stroke-width="1.5"/><line x1="130" y1="292" x2="415" y2="292" stroke="#0f172a" stroke-width="1.5"/><line x1="130" y1="248" x2="130" y2="292" stroke="#0f172a" stroke-width="1.5"/><text x="272" y="274" text-anchor="middle" font-family="monospace" font-size="11" fill="#1e293b">Idle</text><line x1="415" y1="248" x2="510" y2="248" stroke="#0f172a" stroke-width="1.5"/><line x1="415" y1="292" x2="510" y2="292" stroke="#0f172a" stroke-width="1.5"/><line x1="415" y1="248" x2="415" y2="292" stroke="#0f172a" stroke-width="1.5"/><text x="462" y="274" text-anchor="middle" font-family="monospace" font-size="11" fill="#1e293b">Read</text><line x1="510" y1="248" x2="605" y2="248" stroke="#0f172a" stroke-width="1.5"/><line x1="510" y1="292" x2="605" y2="292" stroke="#0f172a" stroke-width="1.5"/><line x1="510" y1="248" x2="510" y2="292" stroke="#0f172a" stroke-width="1.5"/><text x="557" y="274" text-anchor="middle" font-family="monospace" font-size="11" fill="#1e293b">Wait</text><line x1="605" y1="248" x2="795" y2="248" stroke="#0f172a" stroke-width="1.5"/><line x1="605" y1="292" x2="795" y2="292" stroke="#0f172a" stroke-width="1.5"/><line x1="605" y1="248" x2="605" y2="292" stroke="#0f172a" stroke-width="1.5"/><text x="700" y="274" text-anchor="middle" font-family="monospace" font-size="11" fill="#1e293b">Done</text><line x1="795" y1="248" x2="890" y2="248" stroke="#0f172a" stroke-width="1.5"/><line x1="795" y1="292" x2="890" y2="292" stroke="#0f172a" stroke-width="1.5"/><line x1="795" y1="248" x2="795" y2="292" stroke="#0f172a" stroke-width="1.5"/><text x="842" y="274" text-anchor="middle" font-family="monospace" font-size="11" fill="#1e293b">DmaWrite</text><line x1="890" y1="248" x2="985" y2="248" stroke="#0f172a" stroke-width="1.5"/><line x1="890" y1="292" x2="985" y2="292" stroke="#0f172a" stroke-width="1.5"/><line x1="890" y1="248" x2="890" y2="292" stroke="#0f172a" stroke-width="1.5"/><text x="937" y="274" text-anchor="middle" font-family="monospace" font-size="11" fill="#1e293b">Idle</text><line x1="985" y1="248" x2="985" y2="292" stroke="#0f172a" stroke-width="1.5"/><rect x="0" y="302" width="1048" height="64" fill="#f8fafc"/><text x="122" y="338" font-family="monospace" font-size="12" font-weight="600" fill="#0f172a" text-anchor="end">I/O Controller</text><text x="122" y="350" font-family="monospace" font-size="9" fill="#94a3b8" text-anchor="end">concise</text><line x1="0" y1="366" x2="1048" y2="366" stroke="#cbd5e1" stroke-width="0.5"/><line x1="130" y1="312" x2="700" y2="312" stroke="#0f172a" stroke-width="1.5"/><line x1="130" y1="356" x2="700" y2="356" stroke="#0f172a" stroke-width="1.5"/><line x1="130" y1="312" x2="130" y2="356" stroke="#0f172a" stroke-width="1.5"/><text x="415" y="338" text-anchor="middle" font-family="monospace" font-size="11" fill="#1e293b">Idle</text><line x1="700" y1="312" x2="795" y2="312" stroke="#0f172a" stroke-width="1.5"/><line x1="700" y1="356" x2="795" y2="356" stroke="#0f172a" stroke-width="1.5"/><line x1="700" y1="312" x2="700" y2="356" stroke="#0f172a" stroke-width="1.5"/><text x="747" y="338" text-anchor="middle" font-family="monospace" font-size="11" fill="#1e293b">DmaStart</text><line x1="795" y1="312" x2="890" y2="312" stroke="#0f172a" stroke-width="1.5"/><line x1="795" y1="356" x2="890" y2="356" stroke="#0f172a" stroke-width="1.5"/><line x1="795" y1="312" x2="795" y2="356" stroke="#0f172a" stroke-width="1.5"/><text x="842" y="338" text-anchor="middle" font-family="monospace" font-size="11" fill="#1e293b">DmaActive</text><line x1="890" y1="312" x2="985" y2="312" stroke="#0f172a" stroke-width="1.5"/><line x1="890" y1="356" x2="985" y2="356" stroke="#0f172a" stroke-width="1.5"/><line x1="890" y1="312" x2="890" y2="356" stroke="#0f172a" stroke-width="1.5"/><text x="937" y="338" text-anchor="middle" font-family="monospace" font-size="11" fill="#1e293b">Idle</text><line x1="985" y1="312" x2="985" y2="356" stroke="#0f172a" stroke-width="1.5"/><rect x="0" y="366" width="1048" height="64" fill="#ffffff"/><text x="122" y="402" font-family="monospace" font-size="12" font-weight="600" fill="#0f172a" text-anchor="end">System Clock</text><text x="122" y="414" font-family="monospace" font-size="9" fill="#94a3b8" text-anchor="end">clock</text><text x="122" y="426" font-family="monospace" font-size="9" fill="#64748b" text-anchor="end">period 1</text><line x1="0" y1="430" x2="1048" y2="430" stroke="#cbd5e1" stroke-width="0.5"/><polyline data-timing-period="1" data-timing-pulse="1" data-timing-offset="0" points="130,420 225,420 225,376 320,376 320,420 415,420 415,376 510,376 510,420 605,420 605,376 700,376 700,420 795,420 795,376 890,376 890,420 985,420 985,376" fill="none" stroke="#0f172a" stroke-width="2"/><text x="134" y="372" font-family="monospace" font-size="10" fill="#64748b">clk</text></svg>