<svg xmlns="http://www.w3.org/2000/svg" width="480" height="308" viewBox="0 0 480 308"><rect width="100%" height="100%" fill="#ffffff"/><metadata data-timing-style="#ffffff #64748b #cbd5e1 #f8fafc #0f172a #0ea5e9 #0f172a"/><text x="213" y="22" text-anchor="middle" font-family="monospace" font-size="18" font-weight="600" fill="#0f172a">Concurrent timelines: CPU, cache, and I/O</text><rect x="80" y="62" width="324" height="30" fill="#f8fafc" stroke="#cbd5e1" stroke-width="1"/><line x1="80" y1="92" x2="80" y2="292" stroke="#cbd5e1" stroke-width="1" stroke-dasharray="4 3"/><line x1="80" y1="84" x2="80" y2="92" stroke="#64748b" stroke-width="1.5"/><text class="timing-tick" x="80" y="82" text-anchor="middle" font-family="monospace" font-size="11" fill="#0f172a">@0</text><line x1="115" y1="92" x2="115" y2="292" stroke="#cbd5e1" stroke-width="1" stroke-dasharray="4 3"/><line x1="115" y1="84" x2="115" y2="92" stroke="#64748b" stroke-width="1.5"/><text class="timing-tick" x="115" y="82" text-anchor="middle" font-family="monospace" font-size="11" fill="#0f172a">@1</text><line x1="150" y1="92" x2="150" y2="292" stroke="#cbd5e1" stroke-width="1" stroke-dasharray="4 3"/><line x1="150" y1="84" x2="150" y2="92" stroke="#64748b" stroke-width="1.5"/><text class="timing-tick" x="150" y="82" text-anchor="middle" font-family="monospace" font-size="11" fill="#0f172a">@2</text><line x1="185" y1="92" x2="185" y2="292" stroke="#cbd5e1" stroke-width="1" stroke-dasharray="4 3"/><line x1="185" y1="84" x2="185" y2="92" stroke="#64748b" stroke-width="1.5"/><text class="timing-tick" x="185" y="82" text-anchor="middle" font-family="monospace" font-size="11" fill="#0f172a">@3</text><line x1="220" y1="92" x2="220" y2="292" stroke="#cbd5e1" stroke-width="1" stroke-dasharray="4 3"/><line x1="220" y1="84" x2="220" y2="92" stroke="#64748b" stroke-width="1.5"/><text class="timing-tick" x="220" y="82" text-anchor="middle" font-family="monospace" font-size="11" fill="#0f172a">@4</text><line x1="255" y1="92" x2="255" y2="292" stroke="#cbd5e1" stroke-width="1" stroke-dasharray="4 3"/><line x1="255" y1="84" x2="255" y2="92" stroke="#64748b" stroke-width="1.5"/><text class="timing-tick" x="255" y="82" text-anchor="middle" font-family="monospace" font-size="11" fill="#0f172a">@5</text><line x1="290" y1="92" x2="290" y2="292" stroke="#cbd5e1" stroke-width="1" stroke-dasharray="4 3"/><line x1="290" y1="84" x2="290" y2="92" stroke="#64748b" stroke-width="1.5"/><text class="timing-tick" x="290" y="82" text-anchor="middle" font-family="monospace" font-size="11" fill="#0f172a">@6</text><line x1="325" y1="92" x2="325" y2="292" stroke="#cbd5e1" stroke-width="1" stroke-dasharray="4 3"/><line x1="325" y1="84" x2="325" y2="92" stroke="#64748b" stroke-width="1.5"/><text class="timing-tick" x="325" y="82" text-anchor="middle" font-family="monospace" font-size="11" fill="#0f172a">@7</text><line x1="360" y1="92" x2="360" y2="292" stroke="#cbd5e1" stroke-width="1" stroke-dasharray="4 3"/><line x1="360" y1="84" x2="360" y2="92" stroke="#64748b" stroke-width="1.5"/><text class="timing-tick" x="360" y="82" text-anchor="middle" font-family="monospace" font-size="11" fill="#0f172a">@8</text><line x1="80" y1="88" x2="80" y2="92" stroke="#64748b" stroke-width="0.75"/><line x1="115" y1="88" x2="115" y2="92" stroke="#64748b" stroke-width="0.75"/><line x1="150" y1="88" x2="150" y2="92" stroke="#64748b" stroke-width="0.75"/><line x1="185" y1="88" x2="185" y2="92" stroke="#64748b" stroke-width="0.75"/><line x1="220" y1="88" x2="220" y2="92" stroke="#64748b" stroke-width="0.75"/><line x1="255" y1="88" x2="255" y2="92" stroke="#64748b" stroke-width="0.75"/><line x1="290" y1="88" x2="290" y2="92" stroke="#64748b" stroke-width="0.75"/><line x1="325" y1="88" x2="325" y2="92" stroke="#64748b" stroke-width="0.75"/><rect x="0" y="92" width="426" height="40" fill="#ffffff"/><line x1="0" y1="132" x2="426" y2="132" stroke="#cbd5e1" stroke-width="0.5"/><text x="72" y="116" font-family="monospace" font-size="12" font-weight="600" fill="#0f172a" text-anchor="end">CPU</text><line x1="80" y1="98" x2="115" y2="98" stroke="#0f172a" stroke-width="1.5"/><line x1="80" y1="126" x2="115" y2="126" stroke="#0f172a" stroke-width="1.5"/><line x1="80" y1="98" x2="80" y2="126" stroke="#0f172a" stroke-width="1.5"/><text x="97" y="116" text-anchor="middle" font-family="monospace" font-size="11" fill="#1e293b">Fetch</text><line x1="115" y1="98" x2="150" y2="98" stroke="#0f172a" stroke-width="1.5"/><line x1="115" y1="126" x2="150" y2="126" stroke="#0f172a" stroke-width="1.5"/><line x1="115" y1="98" x2="115" y2="126" stroke="#0f172a" stroke-width="1.5"/><text x="132" y="116" text-anchor="middle" font-family="monospace" font-size="11" fill="#1e293b" textLength="34" lengthAdjust="spacingAndGlyphs">Decode</text><line x1="150" y1="98" x2="185" y2="98" stroke="#0f172a" stroke-width="1.5"/><line x1="150" y1="126" x2="185" y2="126" stroke="#0f172a" stroke-width="1.5"/><line x1="150" y1="98" x2="150" y2="126" stroke="#0f172a" stroke-width="1.5"/><text x="167" y="116" text-anchor="middle" font-family="monospace" font-size="11" fill="#1e293b" textLength="34" lengthAdjust="spacingAndGlyphs">Execute</text><line x1="185" y1="98" x2="255" y2="98" stroke="#0f172a" stroke-width="1.5"/><line x1="185" y1="126" x2="255" y2="126" stroke="#0f172a" stroke-width="1.5"/><line x1="185" y1="98" x2="185" y2="126" stroke="#0f172a" stroke-width="1.5"/><text x="220" y="116" text-anchor="middle" font-family="monospace" font-size="11" fill="#1e293b">Stall</text><line x1="255" y1="98" x2="290" y2="98" stroke="#0f172a" stroke-width="1.5"/><line x1="255" y1="126" x2="290" y2="126" stroke="#0f172a" stroke-width="1.5"/><line x1="255" y1="98" x2="255" y2="126" stroke="#0f172a" stroke-width="1.5"/><text x="272" y="116" text-anchor="middle" font-family="monospace" font-size="11" fill="#1e293b" textLength="34" lengthAdjust="spacingAndGlyphs">WriteBack</text><line x1="290" y1="98" x2="360" y2="98" stroke="#0f172a" stroke-width="1.5"/><line x1="290" y1="126" x2="360" y2="126" stroke="#0f172a" stroke-width="1.5"/><line x1="290" y1="98" x2="290" y2="126" stroke="#0f172a" stroke-width="1.5"/><text x="325" y="116" text-anchor="middle" font-family="monospace" font-size="11" fill="#1e293b">Fetch</text><line x1="360" y1="98" x2="395" y2="98" stroke="#0f172a" stroke-width="1.5"/><line x1="360" y1="126" x2="395" y2="126" stroke="#0f172a" stroke-width="1.5"/><line x1="360" y1="98" x2="360" y2="126" stroke="#0f172a" stroke-width="1.5"/><text x="377" y="116" text-anchor="middle" font-family="monospace" font-size="11" fill="#1e293b" textLength="34" lengthAdjust="spacingAndGlyphs">Decode</text><line x1="395" y1="98" x2="395" y2="126" stroke="#0f172a" stroke-width="1.5"/><rect x="0" y="132" width="426" height="40" fill="#f8fafc"/><line x1="0" y1="172" x2="426" y2="172" stroke="#cbd5e1" stroke-width="0.5"/><text x="72" y="156" font-family="monospace" font-size="12" font-weight="600" fill="#0f172a" text-anchor="end">Cache L1</text><line x1="80" y1="138" x2="150" y2="138" stroke="#0f172a" stroke-width="1.5"/><line x1="80" y1="166" x2="150" y2="166" stroke="#0f172a" stroke-width="1.5"/><line x1="80" y1="138" x2="80" y2="166" stroke="#0f172a" stroke-width="1.5"/><text x="115" y="156" text-anchor="middle" font-family="monospace" font-size="11" fill="#1e293b">Warm</text><line x1="150" y1="138" x2="185" y2="138" stroke="#0f172a" stroke-width="1.5"/><line x1="150" y1="166" x2="185" y2="166" stroke="#0f172a" stroke-width="1.5"/><line x1="150" y1="138" x2="150" y2="166" stroke="#0f172a" stroke-width="1.5"/><text x="167" y="156" text-anchor="middle" font-family="monospace" font-size="11" fill="#1e293b">Hit</text><line x1="185" y1="138" x2="255" y2="138" stroke="#0f172a" stroke-width="1.5"/><line x1="185" y1="166" x2="255" y2="166" stroke="#0f172a" stroke-width="1.5"/><line x1="185" y1="138" x2="185" y2="166" stroke="#0f172a" stroke-width="1.5"/><text x="220" y="156" text-anchor="middle" font-family="monospace" font-size="11" fill="#1e293b">Miss</text><line x1="255" y1="138" x2="395" y2="138" stroke="#0f172a" stroke-width="1.5"/><line x1="255" y1="166" x2="395" y2="166" stroke="#0f172a" stroke-width="1.5"/><line x1="255" y1="138" x2="255" y2="166" stroke="#0f172a" stroke-width="1.5"/><text x="325" y="156" text-anchor="middle" font-family="monospace" font-size="11" fill="#1e293b">Fill</text><line x1="395" y1="138" x2="395" y2="166" stroke="#0f172a" stroke-width="1.5"/><rect x="0" y="172" width="426" height="40" fill="#ffffff"/><line x1="0" y1="212" x2="426" y2="212" stroke="#cbd5e1" stroke-width="0.5"/><text x="72" y="196" font-family="monospace" font-size="12" font-weight="600" fill="#0f172a" text-anchor="end">Memory Bus</text><line x1="80" y1="178" x2="185" y2="178" stroke="#0f172a" stroke-width="1.5"/><line x1="80" y1="206" x2="185" y2="206" stroke="#0f172a" stroke-width="1.5"/><line x1="80" y1="178" x2="80" y2="206" stroke="#0f172a" stroke-width="1.5"/><text x="132" y="196" text-anchor="middle" font-family="monospace" font-size="11" fill="#1e293b">Idle</text><line x1="185" y1="178" x2="220" y2="178" stroke="#0f172a" stroke-width="1.5"/><line x1="185" y1="206" x2="220" y2="206" stroke="#0f172a" stroke-width="1.5"/><line x1="185" y1="178" x2="185" y2="206" stroke="#0f172a" stroke-width="1.5"/><text x="202" y="196" text-anchor="middle" font-family="monospace" font-size="11" fill="#1e293b">Read</text><line x1="220" y1="178" x2="255" y2="178" stroke="#0f172a" stroke-width="1.5"/><line x1="220" y1="206" x2="255" y2="206" stroke="#0f172a" stroke-width="1.5"/><line x1="220" y1="178" x2="220" y2="206" stroke="#0f172a" stroke-width="1.5"/><text x="237" y="196" text-anchor="middle" font-family="monospace" font-size="11" fill="#1e293b">Wait</text><line x1="255" y1="178" x2="325" y2="178" stroke="#0f172a" stroke-width="1.5"/><line x1="255" y1="206" x2="325" y2="206" stroke="#0f172a" stroke-width="1.5"/><line x1="255" y1="178" x2="255" y2="206" stroke="#0f172a" stroke-width="1.5"/><text x="290" y="196" text-anchor="middle" font-family="monospace" font-size="11" fill="#1e293b">Done</text><line x1="325" y1="178" x2="360" y2="178" stroke="#0f172a" stroke-width="1.5"/><line x1="325" y1="206" x2="360" y2="206" stroke="#0f172a" stroke-width="1.5"/><line x1="325" y1="178" x2="325" y2="206" stroke="#0f172a" stroke-width="1.5"/><text x="342" y="196" text-anchor="middle" font-family="monospace" font-size="11" fill="#1e293b" textLength="34" lengthAdjust="spacingAndGlyphs">DmaWrite</text><line x1="360" y1="178" x2="395" y2="178" stroke="#0f172a" stroke-width="1.5"/><line x1="360" y1="206" x2="395" y2="206" stroke="#0f172a" stroke-width="1.5"/><line x1="360" y1="178" x2="360" y2="206" stroke="#0f172a" stroke-width="1.5"/><text x="377" y="196" text-anchor="middle" font-family="monospace" font-size="11" fill="#1e293b">Idle</text><line x1="395" y1="178" x2="395" y2="206" stroke="#0f172a" stroke-width="1.5"/><rect x="0" y="212" width="426" height="40" fill="#f8fafc"/><line x1="0" y1="252" x2="426" y2="252" stroke="#cbd5e1" stroke-width="0.5"/><text x="72" y="236" font-family="monospace" font-size="12" font-weight="600" fill="#0f172a" text-anchor="end">I/O Controller</text><line x1="80" y1="218" x2="290" y2="218" stroke="#0f172a" stroke-width="1.5"/><line x1="80" y1="246" x2="290" y2="246" stroke="#0f172a" stroke-width="1.5"/><line x1="80" y1="218" x2="80" y2="246" stroke="#0f172a" stroke-width="1.5"/><text x="185" y="236" text-anchor="middle" font-family="monospace" font-size="11" fill="#1e293b">Idle</text><line x1="290" y1="218" x2="325" y2="218" stroke="#0f172a" stroke-width="1.5"/><line x1="290" y1="246" x2="325" y2="246" stroke="#0f172a" stroke-width="1.5"/><line x1="290" y1="218" x2="290" y2="246" stroke="#0f172a" stroke-width="1.5"/><text x="307" y="236" text-anchor="middle" font-family="monospace" font-size="11" fill="#1e293b" textLength="34" lengthAdjust="spacingAndGlyphs">DmaStart</text><line x1="325" y1="218" x2="360" y2="218" stroke="#0f172a" stroke-width="1.5"/><line x1="325" y1="246" x2="360" y2="246" stroke="#0f172a" stroke-width="1.5"/><line x1="325" y1="218" x2="325" y2="246" stroke="#0f172a" stroke-width="1.5"/><text x="342" y="236" text-anchor="middle" font-family="monospace" font-size="11" fill="#1e293b" textLength="34" lengthAdjust="spacingAndGlyphs">DmaActive</text><line x1="360" y1="218" x2="395" y2="218" stroke="#0f172a" stroke-width="1.5"/><line x1="360" y1="246" x2="395" y2="246" stroke="#0f172a" stroke-width="1.5"/><line x1="360" y1="218" x2="360" y2="246" stroke="#0f172a" stroke-width="1.5"/><text x="377" y="236" text-anchor="middle" font-family="monospace" font-size="11" fill="#1e293b">Idle</text><line x1="395" y1="218" x2="395" y2="246" stroke="#0f172a" stroke-width="1.5"/><rect x="0" y="252" width="426" height="40" fill="#ffffff"/><line x1="0" y1="292" x2="426" y2="292" stroke="#cbd5e1" stroke-width="0.5"/><text x="72" y="276" font-family="monospace" font-size="12" font-weight="600" fill="#0f172a" text-anchor="end">System Clock</text><text x="72" y="300" font-family="monospace" font-size="9" fill="#64748b" text-anchor="end">period 1</text><polyline data-timing-period="1" data-timing-pulse="1" data-timing-offset="0" points="80,280 115,280 115,264 150,264 150,280 185,280 185,264 220,264 220,280 255,280 255,264 290,264 290,280 325,280 325,264 360,264 360,280 395,280 395,264" fill="none" stroke="#0f172a" stroke-width="2"/><text x="84" y="260" font-family="monospace" font-size="10" fill="#64748b">clk</text><line class="timing-message" data-from="CPU" data-to="MEM" x1="185" y1="128" x2="185" y2="176" stroke="#0ea5e9" stroke-width="1.6"/><polygon class="timing-message-head" points="185,176 177,171 177,181" fill="#0ea5e9" stroke="#0ea5e9" stroke-width="1"/><rect x="160" y="132" width="50" height="13" fill="white" fill-opacity="0.85" rx="2"/><text class="timing-message-label" x="185" y="142" text-anchor="middle" font-family="monospace" font-size="10" fill="#0f172a">ReadReq</text><line class="timing-message" data-from="MEM" data-to="CPU" x1="255" y1="176" x2="255" y2="128" stroke="#0ea5e9" stroke-width="1.6"/><polygon class="timing-message-head" points="255,128 247,123 247,133" fill="#0ea5e9" stroke="#0ea5e9" stroke-width="1"/><rect x="227" y="132" width="56" height="13" fill="white" fill-opacity="0.85" rx="2"/><text class="timing-message-label" x="255" y="142" text-anchor="middle" font-family="monospace" font-size="10" fill="#0f172a">ReadResp</text><line class="timing-message" data-from="CPU" data-to="MEM" x1="290" y1="128" x2="325" y2="176" stroke="#0ea5e9" stroke-width="1.6"/><polygon class="timing-message-head" points="325,176 317,171 317,181" fill="#0ea5e9" stroke="#0ea5e9" stroke-width="1"/><rect x="282" y="132" width="50" height="13" fill="white" fill-opacity="0.85" rx="2"/><text class="timing-message-label" x="307" y="142" text-anchor="middle" font-family="monospace" font-size="10" fill="#0f172a">DmaKick</text><line class="timing-message" data-from="MEM" data-to="IO" x1="325" y1="208" x2="325" y2="216" stroke="#0ea5e9" stroke-width="1.6"/><polygon class="timing-message-head" points="325,216 317,211 317,221" fill="#0ea5e9" stroke="#0ea5e9" stroke-width="1"/><rect x="303" y="192" width="44" height="13" fill="white" fill-opacity="0.85" rx="2"/><text class="timing-message-label" x="325" y="202" text-anchor="middle" font-family="monospace" font-size="10" fill="#0f172a">DmaAck</text></svg>