<svg xmlns="http://www.w3.org/2000/svg" width="1048" height="382" viewBox="0 0 1048 382"><rect width="100%" height="100%" fill="#ffffff"/><metadata data-timing-style="#ffffff #64748b #cbd5e1 #f8fafc #0f172a #0ea5e9 #0f172a"/><text x="24" y="22" font-family="monospace" font-size="18" font-weight="600" fill="#0f172a">Robust timing diagram — state transitions with value annotations</text><text x="24" y="44" font-family="monospace" font-size="11" fill="#94a3b8">timing diagram</text><rect x="130" y="62" width="878" height="48" fill="#f8fafc" stroke="#cbd5e1" stroke-width="1"/><line x1="130" y1="110" x2="130" y2="366" stroke="#cbd5e1" stroke-width="1" stroke-dasharray="4 3"/><line x1="130" y1="102" x2="130" y2="110" stroke="#64748b" stroke-width="1.5"/><text class="timing-tick" x="130" y="82" text-anchor="middle" font-family="monospace" font-size="11" fill="#0f172a">@0</text><line x1="238" y1="110" x2="238" y2="366" stroke="#cbd5e1" stroke-width="1" stroke-dasharray="4 3"/><line x1="238" y1="102" x2="238" y2="110" stroke="#64748b" stroke-width="1.5"/><text class="timing-tick" x="238" y="82" text-anchor="middle" font-family="monospace" font-size="11" fill="#0f172a">@100</text><line x1="347" y1="110" x2="347" y2="366" stroke="#cbd5e1" stroke-width="1" stroke-dasharray="4 3"/><line x1="347" y1="102" x2="347" y2="110" stroke="#64748b" stroke-width="1.5"/><text class="timing-tick" x="347" y="82" text-anchor="middle" font-family="monospace" font-size="11" fill="#0f172a">@200</text><line x1="455" y1="110" x2="455" y2="366" stroke="#cbd5e1" stroke-width="1" stroke-dasharray="4 3"/><line x1="455" y1="102" x2="455" y2="110" stroke="#64748b" stroke-width="1.5"/><text class="timing-tick" x="455" y="82" text-anchor="middle" font-family="monospace" font-size="11" fill="#0f172a">@300</text><line x1="564" y1="110" x2="564" y2="366" stroke="#cbd5e1" stroke-width="1" stroke-dasharray="4 3"/><line x1="564" y1="102" x2="564" y2="110" stroke="#64748b" stroke-width="1.5"/><text class="timing-tick" x="564" y="82" text-anchor="middle" font-family="monospace" font-size="11" fill="#0f172a">@400</text><line x1="672" y1="110" x2="672" y2="366" stroke="#cbd5e1" stroke-width="1" stroke-dasharray="4 3"/><line x1="672" y1="102" x2="672" y2="110" stroke="#64748b" stroke-width="1.5"/><text class="timing-tick" x="672" y="82" text-anchor="middle" font-family="monospace" font-size="11" fill="#0f172a">@500</text><line x1="781" y1="110" x2="781" y2="366" stroke="#cbd5e1" stroke-width="1" stroke-dasharray="4 3"/><line x1="781" y1="102" x2="781" y2="110" stroke="#64748b" stroke-width="1.5"/><text class="timing-tick" x="781" y="82" text-anchor="middle" font-family="monospace" font-size="11" fill="#0f172a">@600</text><line x1="890" y1="110" x2="890" y2="366" stroke="#cbd5e1" stroke-width="1" stroke-dasharray="4 3"/><line x1="890" y1="102" x2="890" y2="110" stroke="#64748b" stroke-width="1.5"/><text class="timing-tick" x="890" y="82" text-anchor="middle" font-family="monospace" font-size="11" fill="#0f172a">@700</text><line x1="184" y1="106" x2="184" y2="110" stroke="#64748b" stroke-width="0.75"/><line x1="292" y1="106" x2="292" y2="110" stroke="#64748b" stroke-width="0.75"/><line x1="401" y1="106" x2="401" y2="110" stroke="#64748b" stroke-width="0.75"/><line x1="510" y1="106" x2="510" y2="110" stroke="#64748b" stroke-width="0.75"/><line x1="618" y1="106" x2="618" y2="110" stroke="#64748b" stroke-width="0.75"/><line x1="727" y1="106" x2="727" y2="110" stroke="#64748b" stroke-width="0.75"/><line x1="835" y1="106" x2="835" y2="110" stroke="#64748b" stroke-width="0.75"/><rect x="0" y="110" width="1048" height="64" fill="#ffffff"/><text x="122" y="146" font-family="monospace" font-size="12" font-weight="600" fill="#0f172a" text-anchor="end">HTTP Server</text><text x="122" y="158" font-family="monospace" font-size="9" fill="#94a3b8" text-anchor="end">robust</text><line x1="0" y1="174" x2="1048" y2="174" stroke="#cbd5e1" stroke-width="0.5"/><polygon points="136,120 238,120 232,164 130,164" fill="#bfdbfe" stroke="#475569" stroke-width="1.5"/><text x="184" y="146" text-anchor="middle" font-family="monospace" font-size="11" fill="#0f172a" font-weight="600">Idle</text><polygon points="244,120 347,120 341,164 238,164" fill="#ddd6fe" stroke="#475569" stroke-width="1.5"/><text x="292" y="146" text-anchor="middle" font-family="monospace" font-size="11" fill="#0f172a" font-weight="600">Handling</text><polygon points="353,120 455,120 449,164 347,164" fill="#ddd6fe" stroke="#475569" stroke-width="1.5"/><text x="401" y="146" text-anchor="middle" font-family="monospace" font-size="11" fill="#0f172a" font-weight="600">Handling</text><polygon points="461,120 564,120 558,164 455,164" fill="#fde68a" stroke="#475569" stroke-width="1.5"/><text x="509" y="146" text-anchor="middle" font-family="monospace" font-size="11" fill="#0f172a" font-weight="600">Overloaded</text><polygon points="570,120 672,120 666,164 564,164" fill="#ddd6fe" stroke="#475569" stroke-width="1.5"/><text x="618" y="146" text-anchor="middle" font-family="monospace" font-size="11" fill="#0f172a" font-weight="600">Handling</text><polygon points="678,120 781,120 775,164 672,164" fill="#bfdbfe" stroke="#475569" stroke-width="1.5"/><text x="726" y="146" text-anchor="middle" font-family="monospace" font-size="11" fill="#0f172a" font-weight="600">Idle</text><polygon points="787,120 890,120 884,164 781,164" fill="#a7f3d0" stroke="#475569" stroke-width="1.5"/><text x="835" y="146" text-anchor="middle" font-family="monospace" font-size="11" fill="#0f172a" font-weight="600">Draining</text><polygon points="896,120 929,120 923,164 890,164" fill="#bfdbfe" stroke="#475569" stroke-width="1.5"/><text x="909" y="146" text-anchor="middle" font-family="monospace" font-size="11" fill="#0f172a" font-weight="600">Idle</text><rect x="0" y="174" width="1048" height="64" fill="#f8fafc"/><text x="122" y="210" font-family="monospace" font-size="12" font-weight="600" fill="#0f172a" text-anchor="end">Worker Pool</text><text x="122" y="222" font-family="monospace" font-size="9" fill="#94a3b8" text-anchor="end">robust</text><line x1="0" y1="238" x2="1048" y2="238" stroke="#cbd5e1" stroke-width="0.5"/><polygon points="136,184 238,184 232,228 130,228" fill="#bfdbfe" stroke="#475569" stroke-width="1.5"/><text x="184" y="210" text-anchor="middle" font-family="monospace" font-size="11" fill="#0f172a" font-weight="600">Empty</text><polygon points="244,184 347,184 341,228 238,228" fill="#ddd6fe" stroke="#475569" stroke-width="1.5"/><text x="292" y="210" text-anchor="middle" font-family="monospace" font-size="11" fill="#0f172a" font-weight="600">1 active</text><polygon points="353,184 455,184 449,228 347,228" fill="#fde68a" stroke="#475569" stroke-width="1.5"/><text x="401" y="210" text-anchor="middle" font-family="monospace" font-size="11" fill="#0f172a" font-weight="600">4 active</text><polygon points="461,184 564,184 558,228 455,228" fill="#a7f3d0" stroke="#475569" stroke-width="1.5"/><text x="509" y="210" text-anchor="middle" font-family="monospace" font-size="11" fill="#0f172a" font-weight="600">8 active</text><polygon points="570,184 672,184 666,228 564,228" fill="#fde68a" stroke="#475569" stroke-width="1.5"/><text x="618" y="210" text-anchor="middle" font-family="monospace" font-size="11" fill="#0f172a" font-weight="600">4 active</text><polygon points="678,184 781,184 775,228 672,228" fill="#bfdbfe" stroke="#475569" stroke-width="1.5"/><text x="726" y="210" text-anchor="middle" font-family="monospace" font-size="11" fill="#0f172a" font-weight="600">Empty</text><polygon points="787,184 890,184 884,228 781,228" fill="#fca5a5" stroke="#475569" stroke-width="1.5"/><text x="835" y="210" text-anchor="middle" font-family="monospace" font-size="11" fill="#0f172a" font-weight="600">2 active</text><polygon points="896,184 929,184 923,228 890,228" fill="#bfdbfe" stroke="#475569" stroke-width="1.5"/><text x="909" y="210" text-anchor="middle" font-family="monospace" font-size="11" fill="#0f172a" font-weight="600">Empty</text><rect x="0" y="238" width="1048" height="64" fill="#ffffff"/><text x="122" y="274" font-family="monospace" font-size="12" font-weight="600" fill="#0f172a" text-anchor="end">Rate Limiter</text><text x="122" y="286" font-family="monospace" font-size="9" fill="#94a3b8" text-anchor="end">robust</text><line x1="0" y1="302" x2="1048" y2="302" stroke="#cbd5e1" stroke-width="0.5"/><polygon points="136,248 347,248 341,292 130,292" fill="#bfdbfe" stroke="#475569" stroke-width="1.5"/><text x="238" y="274" text-anchor="middle" font-family="monospace" font-size="11" fill="#0f172a" font-weight="600">Open</text><polygon points="353,248 455,248 449,292 347,292" fill="#ddd6fe" stroke="#475569" stroke-width="1.5"/><text x="401" y="274" text-anchor="middle" font-family="monospace" font-size="11" fill="#0f172a" font-weight="600">Throttling</text><polygon points="461,248 564,248 558,292 455,292" fill="#fde68a" stroke="#475569" stroke-width="1.5"/><text x="509" y="274" text-anchor="middle" font-family="monospace" font-size="11" fill="#0f172a" font-weight="600">Blocking</text><polygon points="570,248 672,248 666,292 564,292" fill="#ddd6fe" stroke="#475569" stroke-width="1.5"/><text x="618" y="274" text-anchor="middle" font-family="monospace" font-size="11" fill="#0f172a" font-weight="600">Throttling</text><polygon points="678,248 929,248 923,292 672,292" fill="#bfdbfe" stroke="#475569" stroke-width="1.5"/><text x="800" y="274" text-anchor="middle" font-family="monospace" font-size="11" fill="#0f172a" font-weight="600">Open</text><rect x="0" y="302" width="1048" height="64" fill="#f8fafc"/><text x="122" y="338" font-family="monospace" font-size="12" font-weight="600" fill="#0f172a" text-anchor="end">Queue Depth</text><text x="122" y="350" font-family="monospace" font-size="9" fill="#94a3b8" text-anchor="end">concise</text><line x1="0" y1="366" x2="1048" y2="366" stroke="#cbd5e1" stroke-width="0.5"/><line x1="130" y1="312" x2="238" y2="312" stroke="#0f172a" stroke-width="1.5"/><line x1="130" y1="356" x2="238" y2="356" stroke="#0f172a" stroke-width="1.5"/><line x1="130" y1="312" x2="130" y2="356" stroke="#0f172a" stroke-width="1.5"/><text x="184" y="338" text-anchor="middle" font-family="monospace" font-size="11" fill="#1e293b">0</text><line x1="238" y1="312" x2="347" y2="312" stroke="#0f172a" stroke-width="1.5"/><line x1="238" y1="356" x2="347" y2="356" stroke="#0f172a" stroke-width="1.5"/><line x1="238" y1="312" x2="238" y2="356" stroke="#0f172a" stroke-width="1.5"/><text x="292" y="338" text-anchor="middle" font-family="monospace" font-size="11" fill="#1e293b">0</text><line x1="347" y1="312" x2="455" y2="312" stroke="#0f172a" stroke-width="1.5"/><line x1="347" y1="356" x2="455" y2="356" stroke="#0f172a" stroke-width="1.5"/><line x1="347" y1="312" x2="347" y2="356" stroke="#0f172a" stroke-width="1.5"/><text x="401" y="338" text-anchor="middle" font-family="monospace" font-size="11" fill="#1e293b">12</text><line x1="455" y1="312" x2="564" y2="312" stroke="#0f172a" stroke-width="1.5"/><line x1="455" y1="356" x2="564" y2="356" stroke="#0f172a" stroke-width="1.5"/><line x1="455" y1="312" x2="455" y2="356" stroke="#0f172a" stroke-width="1.5"/><text x="509" y="338" text-anchor="middle" font-family="monospace" font-size="11" fill="#1e293b">47</text><line x1="564" y1="312" x2="672" y2="312" stroke="#0f172a" stroke-width="1.5"/><line x1="564" y1="356" x2="672" y2="356" stroke="#0f172a" stroke-width="1.5"/><line x1="564" y1="312" x2="564" y2="356" stroke="#0f172a" stroke-width="1.5"/><text x="618" y="338" text-anchor="middle" font-family="monospace" font-size="11" fill="#1e293b">20</text><line x1="672" y1="312" x2="781" y2="312" stroke="#0f172a" stroke-width="1.5"/><line x1="672" y1="356" x2="781" y2="356" stroke="#0f172a" stroke-width="1.5"/><line x1="672" y1="312" x2="672" y2="356" stroke="#0f172a" stroke-width="1.5"/><text x="726" y="338" text-anchor="middle" font-family="monospace" font-size="11" fill="#1e293b">0</text><line x1="781" y1="312" x2="929" y2="312" stroke="#0f172a" stroke-width="1.5"/><line x1="781" y1="356" x2="929" y2="356" stroke="#0f172a" stroke-width="1.5"/><line x1="781" y1="312" x2="781" y2="356" stroke="#0f172a" stroke-width="1.5"/><text x="855" y="338" text-anchor="middle" font-family="monospace" font-size="11" fill="#1e293b">0</text><line x1="929" y1="312" x2="929" y2="356" stroke="#0f172a" stroke-width="1.5"/></svg>