<svg xmlns="http://www.w3.org/2000/svg" width="485" height="268" viewBox="0 0 485 268"><rect width="100%" height="100%" fill="#ffffff"/><metadata data-timing-style="#ffffff #64748b #cbd5e1 #f8fafc #0f172a #0ea5e9 #0f172a"/><text x="24" y="22" font-family="monospace" font-size="18" font-weight="600" fill="#0f172a">Robust timing diagram — state transitions with value annotations</text><text x="24" y="44" font-family="monospace" font-size="11" fill="#94a3b8">timing diagram</text><rect x="80" y="62" width="324" height="30" fill="#f8fafc" stroke="#cbd5e1" stroke-width="1"/><line x1="80" y1="92" x2="80" y2="252" stroke="#cbd5e1" stroke-width="1" stroke-dasharray="4 3"/><line x1="80" y1="84" x2="80" y2="92" stroke="#64748b" stroke-width="1.5"/><text class="timing-tick" x="80" y="82" text-anchor="middle" font-family="monospace" font-size="11" fill="#0f172a">@0</text><line x1="120" y1="92" x2="120" y2="252" stroke="#cbd5e1" stroke-width="1" stroke-dasharray="4 3"/><line x1="120" y1="84" x2="120" y2="92" stroke="#64748b" stroke-width="1.5"/><text class="timing-tick" x="120" y="82" text-anchor="middle" font-family="monospace" font-size="11" fill="#0f172a">@100</text><line x1="160" y1="92" x2="160" y2="252" stroke="#cbd5e1" stroke-width="1" stroke-dasharray="4 3"/><line x1="160" y1="84" x2="160" y2="92" stroke="#64748b" stroke-width="1.5"/><text class="timing-tick" x="160" y="82" text-anchor="middle" font-family="monospace" font-size="11" fill="#0f172a">@200</text><line x1="200" y1="92" x2="200" y2="252" stroke="#cbd5e1" stroke-width="1" stroke-dasharray="4 3"/><line x1="200" y1="84" x2="200" y2="92" stroke="#64748b" stroke-width="1.5"/><text class="timing-tick" x="200" y="82" text-anchor="middle" font-family="monospace" font-size="11" fill="#0f172a">@300</text><line x1="240" y1="92" x2="240" y2="252" stroke="#cbd5e1" stroke-width="1" stroke-dasharray="4 3"/><line x1="240" y1="84" x2="240" y2="92" stroke="#64748b" stroke-width="1.5"/><text class="timing-tick" x="240" y="82" text-anchor="middle" font-family="monospace" font-size="11" fill="#0f172a">@400</text><line x1="280" y1="92" x2="280" y2="252" stroke="#cbd5e1" stroke-width="1" stroke-dasharray="4 3"/><line x1="280" y1="84" x2="280" y2="92" stroke="#64748b" stroke-width="1.5"/><text class="timing-tick" x="280" y="82" text-anchor="middle" font-family="monospace" font-size="11" fill="#0f172a">@500</text><line x1="320" y1="92" x2="320" y2="252" stroke="#cbd5e1" stroke-width="1" stroke-dasharray="4 3"/><line x1="320" y1="84" x2="320" y2="92" stroke="#64748b" stroke-width="1.5"/><text class="timing-tick" x="320" y="82" text-anchor="middle" font-family="monospace" font-size="11" fill="#0f172a">@600</text><line x1="360" y1="92" x2="360" y2="252" stroke="#cbd5e1" stroke-width="1" stroke-dasharray="4 3"/><line x1="360" y1="84" x2="360" y2="92" stroke="#64748b" stroke-width="1.5"/><text class="timing-tick" x="360" y="82" text-anchor="middle" font-family="monospace" font-size="11" fill="#0f172a">@700</text><line x1="100" y1="88" x2="100" y2="92" stroke="#64748b" stroke-width="0.75"/><line x1="140" y1="88" x2="140" y2="92" stroke="#64748b" stroke-width="0.75"/><line x1="180" y1="88" x2="180" y2="92" stroke="#64748b" stroke-width="0.75"/><line x1="220" y1="88" x2="220" y2="92" stroke="#64748b" stroke-width="0.75"/><line x1="260" y1="88" x2="260" y2="92" stroke="#64748b" stroke-width="0.75"/><line x1="300" y1="88" x2="300" y2="92" stroke="#64748b" stroke-width="0.75"/><line x1="340" y1="88" x2="340" y2="92" stroke="#64748b" stroke-width="0.75"/><rect x="0" y="92" width="426" height="40" fill="#ffffff"/><line x1="0" y1="132" x2="426" y2="132" stroke="#cbd5e1" stroke-width="0.5"/><text x="72" y="116" font-family="monospace" font-size="12" font-weight="600" fill="#0f172a" text-anchor="end">HTTP Server</text><text x="72" y="128" font-family="monospace" font-size="9" fill="#94a3b8" text-anchor="end">robust</text><polygon points="86,98 120,98 114,126 80,126" fill="#bfdbfe" stroke="#475569" stroke-width="1.5"/><text x="100" y="116" text-anchor="middle" font-family="monospace" font-size="11" fill="#0f172a" font-weight="600">Idle</text><polygon points="126,98 160,98 154,126 120,126" fill="#ddd6fe" stroke="#475569" stroke-width="1.5"/><text x="140" y="116" text-anchor="middle" font-family="monospace" font-size="11" fill="#0f172a" font-weight="600">Handling</text><polygon points="166,98 200,98 194,126 160,126" fill="#ddd6fe" stroke="#475569" stroke-width="1.5"/><text x="180" y="116" text-anchor="middle" font-family="monospace" font-size="11" fill="#0f172a" font-weight="600">Handling</text><polygon points="206,98 240,98 234,126 200,126" fill="#fde68a" stroke="#475569" stroke-width="1.5"/><text x="220" y="116" text-anchor="middle" font-family="monospace" font-size="11" fill="#0f172a" font-weight="600">Overloaded</text><polygon points="246,98 280,98 274,126 240,126" fill="#ddd6fe" stroke="#475569" stroke-width="1.5"/><text x="260" y="116" text-anchor="middle" font-family="monospace" font-size="11" fill="#0f172a" font-weight="600">Handling</text><polygon points="286,98 320,98 314,126 280,126" fill="#bfdbfe" stroke="#475569" stroke-width="1.5"/><text x="300" y="116" text-anchor="middle" font-family="monospace" font-size="11" fill="#0f172a" font-weight="600">Idle</text><polygon points="326,98 360,98 354,126 320,126" fill="#a7f3d0" stroke="#475569" stroke-width="1.5"/><text x="340" y="116" text-anchor="middle" font-family="monospace" font-size="11" fill="#0f172a" font-weight="600">Draining</text><polygon points="366,98 390,98 384,126 360,126" fill="#bfdbfe" stroke="#475569" stroke-width="1.5"/><text x="375" y="116" text-anchor="middle" font-family="monospace" font-size="11" fill="#0f172a" font-weight="600">Idle</text><rect x="0" y="132" width="426" height="40" fill="#f8fafc"/><line x1="0" y1="172" x2="426" y2="172" stroke="#cbd5e1" stroke-width="0.5"/><text x="72" y="156" font-family="monospace" font-size="12" font-weight="600" fill="#0f172a" text-anchor="end">Worker Pool</text><text x="72" y="168" font-family="monospace" font-size="9" fill="#94a3b8" text-anchor="end">robust</text><polygon points="86,138 120,138 114,166 80,166" fill="#bfdbfe" stroke="#475569" stroke-width="1.5"/><text x="100" y="156" text-anchor="middle" font-family="monospace" font-size="11" fill="#0f172a" font-weight="600">Empty</text><polygon points="126,138 160,138 154,166 120,166" fill="#ddd6fe" stroke="#475569" stroke-width="1.5"/><text x="140" y="156" text-anchor="middle" font-family="monospace" font-size="11" fill="#0f172a" font-weight="600">1 active</text><polygon points="166,138 200,138 194,166 160,166" fill="#fde68a" stroke="#475569" stroke-width="1.5"/><text x="180" y="156" text-anchor="middle" font-family="monospace" font-size="11" fill="#0f172a" font-weight="600">4 active</text><polygon points="206,138 240,138 234,166 200,166" fill="#a7f3d0" stroke="#475569" stroke-width="1.5"/><text x="220" y="156" text-anchor="middle" font-family="monospace" font-size="11" fill="#0f172a" font-weight="600">8 active</text><polygon points="246,138 280,138 274,166 240,166" fill="#fde68a" stroke="#475569" stroke-width="1.5"/><text x="260" y="156" text-anchor="middle" font-family="monospace" font-size="11" fill="#0f172a" font-weight="600">4 active</text><polygon points="286,138 320,138 314,166 280,166" fill="#bfdbfe" stroke="#475569" stroke-width="1.5"/><text x="300" y="156" text-anchor="middle" font-family="monospace" font-size="11" fill="#0f172a" font-weight="600">Empty</text><polygon points="326,138 360,138 354,166 320,166" fill="#fca5a5" stroke="#475569" stroke-width="1.5"/><text x="340" y="156" text-anchor="middle" font-family="monospace" font-size="11" fill="#0f172a" font-weight="600">2 active</text><polygon points="366,138 390,138 384,166 360,166" fill="#bfdbfe" stroke="#475569" stroke-width="1.5"/><text x="375" y="156" text-anchor="middle" font-family="monospace" font-size="11" fill="#0f172a" font-weight="600">Empty</text><rect x="0" y="172" width="426" height="40" fill="#ffffff"/><line x1="0" y1="212" x2="426" y2="212" stroke="#cbd5e1" stroke-width="0.5"/><text x="72" y="196" font-family="monospace" font-size="12" font-weight="600" fill="#0f172a" text-anchor="end">Rate Limiter</text><text x="72" y="208" font-family="monospace" font-size="9" fill="#94a3b8" text-anchor="end">robust</text><polygon points="86,178 160,178 154,206 80,206" fill="#bfdbfe" stroke="#475569" stroke-width="1.5"/><text x="120" y="196" text-anchor="middle" font-family="monospace" font-size="11" fill="#0f172a" font-weight="600">Open</text><polygon points="166,178 200,178 194,206 160,206" fill="#ddd6fe" stroke="#475569" stroke-width="1.5"/><text x="180" y="196" text-anchor="middle" font-family="monospace" font-size="11" fill="#0f172a" font-weight="600">Throttling</text><polygon points="206,178 240,178 234,206 200,206" fill="#fde68a" stroke="#475569" stroke-width="1.5"/><text x="220" y="196" text-anchor="middle" font-family="monospace" font-size="11" fill="#0f172a" font-weight="600">Blocking</text><polygon points="246,178 280,178 274,206 240,206" fill="#ddd6fe" stroke="#475569" stroke-width="1.5"/><text x="260" y="196" text-anchor="middle" font-family="monospace" font-size="11" fill="#0f172a" font-weight="600">Throttling</text><polygon points="286,178 390,178 384,206 280,206" fill="#bfdbfe" stroke="#475569" stroke-width="1.5"/><text x="335" y="196" text-anchor="middle" font-family="monospace" font-size="11" fill="#0f172a" font-weight="600">Open</text><rect x="0" y="212" width="426" height="40" fill="#f8fafc"/><line x1="0" y1="252" x2="426" y2="252" stroke="#cbd5e1" stroke-width="0.5"/><text x="72" y="236" font-family="monospace" font-size="12" font-weight="600" fill="#0f172a" text-anchor="end">Queue Depth</text><text x="72" y="248" font-family="monospace" font-size="9" fill="#94a3b8" text-anchor="end">concise</text><line x1="80" y1="218" x2="120" y2="218" stroke="#0f172a" stroke-width="1.5"/><line x1="80" y1="246" x2="120" y2="246" stroke="#0f172a" stroke-width="1.5"/><line x1="80" y1="218" x2="80" y2="246" stroke="#0f172a" stroke-width="1.5"/><text x="100" y="236" text-anchor="middle" font-family="monospace" font-size="11" fill="#1e293b">0</text><line x1="120" y1="218" x2="160" y2="218" stroke="#0f172a" stroke-width="1.5"/><line x1="120" y1="246" x2="160" y2="246" stroke="#0f172a" stroke-width="1.5"/><line x1="120" y1="218" x2="120" y2="246" stroke="#0f172a" stroke-width="1.5"/><text x="140" y="236" text-anchor="middle" font-family="monospace" font-size="11" fill="#1e293b">0</text><line x1="160" y1="218" x2="200" y2="218" stroke="#0f172a" stroke-width="1.5"/><line x1="160" y1="246" x2="200" y2="246" stroke="#0f172a" stroke-width="1.5"/><line x1="160" y1="218" x2="160" y2="246" stroke="#0f172a" stroke-width="1.5"/><text x="180" y="236" text-anchor="middle" font-family="monospace" font-size="11" fill="#1e293b">12</text><line x1="200" y1="218" x2="240" y2="218" stroke="#0f172a" stroke-width="1.5"/><line x1="200" y1="246" x2="240" y2="246" stroke="#0f172a" stroke-width="1.5"/><line x1="200" y1="218" x2="200" y2="246" stroke="#0f172a" stroke-width="1.5"/><text x="220" y="236" text-anchor="middle" font-family="monospace" font-size="11" fill="#1e293b">47</text><line x1="240" y1="218" x2="280" y2="218" stroke="#0f172a" stroke-width="1.5"/><line x1="240" y1="246" x2="280" y2="246" stroke="#0f172a" stroke-width="1.5"/><line x1="240" y1="218" x2="240" y2="246" stroke="#0f172a" stroke-width="1.5"/><text x="260" y="236" text-anchor="middle" font-family="monospace" font-size="11" fill="#1e293b">20</text><line x1="280" y1="218" x2="320" y2="218" stroke="#0f172a" stroke-width="1.5"/><line x1="280" y1="246" x2="320" y2="246" stroke="#0f172a" stroke-width="1.5"/><line x1="280" y1="218" x2="280" y2="246" stroke="#0f172a" stroke-width="1.5"/><text x="300" y="236" text-anchor="middle" font-family="monospace" font-size="11" fill="#1e293b">0</text><line x1="320" y1="218" x2="390" y2="218" stroke="#0f172a" stroke-width="1.5"/><line x1="320" y1="246" x2="390" y2="246" stroke="#0f172a" stroke-width="1.5"/><line x1="320" y1="218" x2="320" y2="246" stroke="#0f172a" stroke-width="1.5"/><text x="355" y="236" text-anchor="middle" font-family="monospace" font-size="11" fill="#1e293b">0</text><line x1="390" y1="218" x2="390" y2="246" stroke="#0f172a" stroke-width="1.5"/></svg>