<svg xmlns="http://www.w3.org/2000/svg" width="577" height="280" viewBox="0 0 577 280"><rect width="100%" height="100%" fill="#ffffff"/><metadata data-timing-style="#ffffff #64748b #cbd5e1 #f8fafc #0f172a #0ea5e9 #0f172a"/><text x="24" y="22" font-family="monospace" font-size="18" font-weight="600" fill="#0f172a">Chapter 10 timing parity</text><text x="24" y="44" font-family="monospace" font-size="11" fill="#94a3b8">timing diagram</text><line x1="130" y1="72" x2="130" y2="264" stroke="#cbd5e1" stroke-width="1" stroke-dasharray="4 3"/><line x1="250" y1="72" x2="250" y2="264" stroke="#cbd5e1" stroke-width="1" stroke-dasharray="4 3"/><line x1="298" y1="72" x2="298" y2="264" stroke="#cbd5e1" stroke-width="1" stroke-dasharray="4 3"/><line x1="370" y1="72" x2="370" y2="264" stroke="#cbd5e1" stroke-width="1" stroke-dasharray="4 3"/><line x1="442" y1="72" x2="442" y2="264" stroke="#cbd5e1" stroke-width="1" stroke-dasharray="4 3"/><rect x="0" y="72" width="577" height="48" fill="#ffffff"/><text x="122" y="100" font-family="monospace" font-size="12" font-weight="600" fill="#0f172a" text-anchor="end">Client</text><text x="122" y="112" font-family="monospace" font-size="9" fill="#94a3b8" text-anchor="end">concise</text><line x1="0" y1="120" x2="577" y2="120" stroke="#cbd5e1" stroke-width="0.5"/><rect class="timing-state-fill" x="130" y="82" width="120" height="28" fill="palegreen" opacity="0.5"/><line x1="130" y1="82" x2="250" y2="82" stroke="#0f172a" stroke-width="1.5"/><line x1="130" y1="110" x2="250" y2="110" stroke="#0f172a" stroke-width="1.5"/><line x1="130" y1="82" x2="130" y2="110" stroke="#0f172a" stroke-width="1.5"/><text x="190" y="100" text-anchor="middle" font-family="monospace" font-size="11" fill="#1e293b">Idle</text><rect class="timing-state-fill" x="250" y="82" width="120" height="28" fill="LightCyan" opacity="0.5"/><line x1="250" y1="82" x2="370" y2="82" stroke="Aqua" stroke-width="1.5"/><line x1="250" y1="110" x2="370" y2="110" stroke="Aqua" stroke-width="1.5"/><line x1="250" y1="82" x2="250" y2="110" stroke="Aqua" stroke-width="1.5"/><text x="310" y="100" text-anchor="middle" font-family="monospace" font-size="11" fill="#1e293b">Waiting</text><line x1="370" y1="82" x2="442" y2="82" stroke="#0f172a" stroke-width="1.5"/><line x1="370" y1="110" x2="442" y2="110" stroke="#0f172a" stroke-width="1.5"/><line x1="370" y1="82" x2="370" y2="110" stroke="#0f172a" stroke-width="1.5"/><text x="406" y="100" text-anchor="middle" font-family="monospace" font-size="11" fill="#1e293b">Done</text><line class="timing-hidden-state" x1="442" y1="96" x2="466" y2="96" stroke="#cbd5e1" stroke-width="1.2" stroke-dasharray="5 4"/><line x1="466" y1="82" x2="466" y2="110" stroke="#0f172a" stroke-width="1.5"/><rect x="0" y="120" width="577" height="48" fill="#f8fafc"/><text x="122" y="148" font-family="monospace" font-size="12" font-weight="600" fill="#0f172a" text-anchor="end">Server</text><text x="122" y="160" font-family="monospace" font-size="9" fill="#94a3b8" text-anchor="end">robust</text><line x1="0" y1="168" x2="577" y2="168" stroke="#cbd5e1" stroke-width="0.5"/><polygon points="136,130 250,130 244,158 130,158" fill="#bfdbfe" stroke="#475569" stroke-width="1.5"/><text x="190" y="148" text-anchor="middle" font-family="monospace" font-size="11" fill="#0f172a" font-weight="600">Boot</text><polygon points="256,130 370,130 364,158 250,158" fill="Gold" stroke="#475569" stroke-width="1.5"/><text x="310" y="148" text-anchor="middle" font-family="monospace" font-size="11" fill="#0f172a" font-weight="600">Busy</text><line class="timing-hidden-state" x1="370" y1="144" x2="466" y2="144" stroke="#cbd5e1" stroke-width="1.2" stroke-dasharray="5 4"/><rect x="0" y="168" width="577" height="48" fill="#ffffff"/><text x="122" y="196" font-family="monospace" font-size="12" font-weight="600" fill="#0f172a" text-anchor="end">Ready</text><text x="122" y="208" font-family="monospace" font-size="9" fill="#94a3b8" text-anchor="end">binary</text><line x1="0" y1="216" x2="577" y2="216" stroke="#cbd5e1" stroke-width="0.5"/><polyline points="130,206 130,206 250,206 250,178 370,178 370,206 466,206 " fill="none" stroke="#0f172a" stroke-width="2"/><text x="130" y="174" text-anchor="middle" font-family="monospace" font-size="10" fill="#475569">low</text><text x="250" y="174" text-anchor="middle" font-family="monospace" font-size="10" fill="#475569">high</text><rect x="0" y="216" width="577" height="48" fill="#f8fafc"/><text x="122" y="244" font-family="monospace" font-size="12" font-weight="600" fill="#0f172a" text-anchor="end">Vcore</text><text x="122" y="256" font-family="monospace" font-size="9" fill="#94a3b8" text-anchor="end">analog</text><line x1="0" y1="264" x2="577" y2="264" stroke="#cbd5e1" stroke-width="0.5"/><line x1="130" y1="254" x2="466" y2="254" stroke="#cbd5e1" stroke-width="1"/><polyline class="timing-analog" points="130,254 250,240 370,226 442,245" fill="none" stroke="#0f172a" stroke-width="2"/><circle class="timing-analog-point" cx="130" cy="254" r="3" fill="#0f172a"/><text x="130" y="248" text-anchor="middle" font-family="monospace" font-size="10" fill="#475569">0</text><circle class="timing-analog-point" cx="250" cy="240" r="3" fill="#0f172a"/><text x="250" y="234" text-anchor="middle" font-family="monospace" font-size="10" fill="#475569">3</text><circle class="timing-analog-point" cx="370" cy="226" r="3" fill="#0f172a"/><text x="370" y="220" text-anchor="middle" font-family="monospace" font-size="10" fill="#475569">6</text><circle class="timing-analog-point" cx="442" cy="245" r="3" fill="#0f172a"/><text x="442" y="239" text-anchor="middle" font-family="monospace" font-size="10" fill="#475569">2</text><line class="timing-message" data-from="C" data-to="S" x1="250" y1="112" x2="298" y2="128" stroke="#0ea5e9" stroke-width="1.6"/><polygon class="timing-message-head" points="298,128 290,123 290,133" fill="#0ea5e9" stroke="#0ea5e9" stroke-width="1"/><text class="timing-message-label" x="274" y="114" text-anchor="middle" font-family="monospace" font-size="10" fill="#0f172a">GET</text><line class="timing-message" data-from="S" data-to="C" x1="370" y1="128" x2="370" y2="112" stroke="#0ea5e9" stroke-width="1.6"/><polygon class="timing-message-head" points="370,112 362,107 362,117" fill="#0ea5e9" stroke="#0ea5e9" stroke-width="1"/><text class="timing-message-label" x="370" y="114" text-anchor="middle" font-family="monospace" font-size="10" fill="#0f172a">200 OK</text></svg>