<svg xmlns="http://www.w3.org/2000/svg" width="459" height="216" viewBox="0 0 459 216"><rect width="100%" height="100%" fill="#ffffff"/><metadata data-timing-style="#ffffff #64748b #cbd5e1 #f8fafc #0f172a #0ea5e9 #0f172a"/><text x="24" y="22" font-family="monospace" font-size="18" font-weight="600" fill="#0f172a">Chapter 10 timing parity</text><line x1="80" y1="72" x2="80" y2="200" stroke="#cbd5e1" stroke-width="1" stroke-dasharray="4 3"/><line x1="200" y1="72" x2="200" y2="200" stroke="#cbd5e1" stroke-width="1" stroke-dasharray="4 3"/><line x1="248" y1="72" x2="248" y2="200" stroke="#cbd5e1" stroke-width="1" stroke-dasharray="4 3"/><line x1="320" y1="72" x2="320" y2="200" stroke="#cbd5e1" stroke-width="1" stroke-dasharray="4 3"/><line x1="392" y1="72" x2="392" y2="200" stroke="#cbd5e1" stroke-width="1" stroke-dasharray="4 3"/><rect x="0" y="72" width="459" height="32" fill="#ffffff"/><line x1="0" y1="104" x2="459" y2="104" stroke="#cbd5e1" stroke-width="0.5"/><text x="72" y="92" font-family="monospace" font-size="12" font-weight="600" fill="#0f172a" text-anchor="end">Client</text><rect class="timing-state-fill" x="80" y="78" width="120" height="20" fill="palegreen" opacity="0.5"/><line x1="80" y1="78" x2="200" y2="78" stroke="#0f172a" stroke-width="1.5"/><line x1="80" y1="98" x2="200" y2="98" stroke="#0f172a" stroke-width="1.5"/><line x1="80" y1="78" x2="80" y2="98" stroke="#0f172a" stroke-width="1.5"/><text x="140" y="92" text-anchor="middle" font-family="monospace" font-size="11" fill="#1e293b">Idle</text><rect class="timing-state-fill" x="200" y="78" width="120" height="20" fill="LightCyan" opacity="0.5"/><line x1="200" y1="78" x2="320" y2="78" stroke="Aqua" stroke-width="1.5"/><line x1="200" y1="98" x2="320" y2="98" stroke="Aqua" stroke-width="1.5"/><line x1="200" y1="78" x2="200" y2="98" stroke="Aqua" stroke-width="1.5"/><text x="260" y="92" text-anchor="middle" font-family="monospace" font-size="11" fill="#1e293b">Waiting</text><line x1="320" y1="78" x2="392" y2="78" stroke="#0f172a" stroke-width="1.5"/><line x1="320" y1="98" x2="392" y2="98" stroke="#0f172a" stroke-width="1.5"/><line x1="320" y1="78" x2="320" y2="98" stroke="#0f172a" stroke-width="1.5"/><text x="356" y="92" text-anchor="middle" font-family="monospace" font-size="11" fill="#1e293b">Done</text><line class="timing-hidden-state" x1="392" y1="88" x2="437" y2="88" stroke="#cbd5e1" stroke-width="1.2" stroke-dasharray="5 4"/><line x1="437" y1="78" x2="437" y2="98" stroke="#0f172a" stroke-width="1.5"/><rect x="0" y="104" width="459" height="32" fill="#f8fafc"/><line x1="0" y1="136" x2="459" y2="136" stroke="#cbd5e1" stroke-width="0.5"/><text x="72" y="124" font-family="monospace" font-size="12" font-weight="600" fill="#0f172a" text-anchor="end">Server</text><polygon points="86,110 200,110 194,130 80,130" fill="#bfdbfe" stroke="#475569" stroke-width="1.5"/><text x="140" y="124" text-anchor="middle" font-family="monospace" font-size="11" fill="#0f172a" font-weight="600">Boot</text><polygon points="206,110 320,110 314,130 200,130" fill="Gold" stroke="#475569" stroke-width="1.5"/><text x="260" y="124" text-anchor="middle" font-family="monospace" font-size="11" fill="#0f172a" font-weight="600">Busy</text><line class="timing-hidden-state" x1="320" y1="120" x2="437" y2="120" stroke="#cbd5e1" stroke-width="1.2" stroke-dasharray="5 4"/><rect x="0" y="136" width="459" height="32" fill="#ffffff"/><line x1="0" y1="168" x2="459" y2="168" stroke="#cbd5e1" stroke-width="0.5"/><text x="72" y="156" font-family="monospace" font-size="12" font-weight="600" fill="#0f172a" text-anchor="end">Ready</text><polyline points="80,162 80,162 200,162 200,142 320,142 320,162 437,162 " fill="none" stroke="#0f172a" stroke-width="2"/><text x="80" y="138" text-anchor="middle" font-family="monospace" font-size="10" fill="#475569">low</text><text x="200" y="138" text-anchor="middle" font-family="monospace" font-size="10" fill="#475569">high</text><rect x="0" y="168" width="459" height="32" fill="#f8fafc"/><line x1="0" y1="200" x2="459" y2="200" stroke="#cbd5e1" stroke-width="0.5"/><text x="72" y="188" font-family="monospace" font-size="12" font-weight="600" fill="#0f172a" text-anchor="end">Vcore</text><line x1="80" y1="194" x2="439" y2="194" stroke="#cbd5e1" stroke-width="1"/><polyline class="timing-analog" points="80,194 200,184 320,174 392,187" fill="none" stroke="#0f172a" stroke-width="2"/><circle class="timing-analog-point" cx="80" cy="194" r="3" fill="#0f172a"/><text x="80" y="188" text-anchor="middle" font-family="monospace" font-size="10" fill="#475569">0</text><circle class="timing-analog-point" cx="200" cy="184" r="3" fill="#0f172a"/><text x="200" y="178" text-anchor="middle" font-family="monospace" font-size="10" fill="#475569">3</text><circle class="timing-analog-point" cx="320" cy="174" r="3" fill="#0f172a"/><text x="320" y="168" text-anchor="middle" font-family="monospace" font-size="10" fill="#475569">6</text><circle class="timing-analog-point" cx="392" cy="187" r="3" fill="#0f172a"/><text x="392" y="181" text-anchor="middle" font-family="monospace" font-size="10" fill="#475569">2</text><line class="timing-message" data-from="C" data-to="S" x1="200" y1="104" x2="248" y2="104" stroke="#0ea5e9" stroke-width="1.6"/><polygon class="timing-message-head" points="248,104 240,99 240,109" fill="#0ea5e9" stroke="#0ea5e9" stroke-width="1"/><rect x="211" y="84" width="26" height="13" fill="white" fill-opacity="0.85" rx="2"/><text class="timing-message-label" x="224" y="94" text-anchor="middle" font-family="monospace" font-size="10" fill="#0f172a">GET</text><line class="timing-message" data-from="S" data-to="C" x1="320" y1="104" x2="320" y2="104" stroke="#0ea5e9" stroke-width="1.6"/><polygon class="timing-message-head" points="320,104 312,99 312,109" fill="#0ea5e9" stroke="#0ea5e9" stroke-width="1"/><rect x="298" y="84" width="44" height="13" fill="white" fill-opacity="0.85" rx="2"/><text class="timing-message-label" x="320" y="94" text-anchor="middle" font-family="monospace" font-size="10" fill="#0f172a">200 OK</text></svg>