<svg xmlns="http://www.w3.org/2000/svg" width="1426" height="318" viewBox="0 0 1426 318"><rect width="100%" height="100%" fill="#ffffff"/><metadata data-timing-style="#ffffff #64748b #cbd5e1 #f8fafc #0f172a #0ea5e9 #0f172a"/><text x="24" y="22" font-family="monospace" font-size="18" font-weight="600" fill="#0f172a">Clock ticks and anchored messages</text><text x="24" y="44" font-family="monospace" font-size="11" fill="#94a3b8">timing diagram</text><rect x="130" y="62" width="1120" height="48" fill="#f8fafc" stroke="#cbd5e1" stroke-width="1"/><line x1="130" y1="110" x2="130" y2="302" stroke="#cbd5e1" stroke-width="1" stroke-dasharray="4 3"/><line x1="130" y1="102" x2="130" y2="110" stroke="#64748b" stroke-width="1.5"/><text class="timing-tick" x="130" y="82" text-anchor="middle" font-family="monospace" font-size="11" fill="#0f172a">@0</text><line x1="410" y1="110" x2="410" y2="302" stroke="#cbd5e1" stroke-width="1" stroke-dasharray="4 3"/><line x1="410" y1="102" x2="410" y2="110" stroke="#64748b" stroke-width="1.5"/><text class="timing-tick" x="410" y="82" text-anchor="middle" font-family="monospace" font-size="11" fill="#0f172a">@50</text><line x1="690" y1="110" x2="690" y2="302" stroke="#cbd5e1" stroke-width="1" stroke-dasharray="4 3"/><line x1="690" y1="102" x2="690" y2="110" stroke="#64748b" stroke-width="1.5"/><text class="timing-tick" x="690" y="82" text-anchor="middle" font-family="monospace" font-size="11" fill="#0f172a">@100</text><line x1="970" y1="110" x2="970" y2="302" stroke="#cbd5e1" stroke-width="1" stroke-dasharray="4 3"/><line x1="970" y1="102" x2="970" y2="110" stroke="#64748b" stroke-width="1.5"/><text class="timing-tick" x="970" y="82" text-anchor="middle" font-family="monospace" font-size="11" fill="#0f172a">@150</text><line x1="1250" y1="110" x2="1250" y2="302" stroke="#cbd5e1" stroke-width="1" stroke-dasharray="4 3"/><line x1="1250" y1="102" x2="1250" y2="110" stroke="#64748b" stroke-width="1.5"/><text class="timing-tick" x="1250" y="82" text-anchor="middle" font-family="monospace" font-size="11" fill="#0f172a">@200</text><line x1="270" y1="106" x2="270" y2="110" stroke="#64748b" stroke-width="0.75"/><line x1="550" y1="106" x2="550" y2="110" stroke="#64748b" stroke-width="0.75"/><line x1="830" y1="106" x2="830" y2="110" stroke="#64748b" stroke-width="0.75"/><line x1="1110" y1="106" x2="1110" y2="110" stroke="#64748b" stroke-width="0.75"/><rect x="0" y="110" width="1426" height="64" fill="#ffffff"/><text x="122" y="146" font-family="monospace" font-size="12" font-weight="600" fill="#0f172a" text-anchor="end">Bus clock</text><text x="122" y="158" font-family="monospace" font-size="9" fill="#94a3b8" text-anchor="end">clock</text><text x="122" y="170" font-family="monospace" font-size="9" fill="#64748b" text-anchor="end">period 50</text><line x1="0" y1="174" x2="1426" y2="174" stroke="#cbd5e1" stroke-width="0.5"/><polyline data-timing-period="50" data-timing-pulse="25" data-timing-offset="0" points="130,131 270,131 270,153 410,153 410,131 550,131 550,153 690,153 690,131 830,131 830,153 970,153 970,131 1110,131 1110,153 1250,153 1250,131 1390,131 1390,153 1426,153 1426,131" fill="none" stroke="#0f172a" stroke-width="2"/><text x="134" y="127" font-family="monospace" font-size="10" fill="#64748b">clk</text><rect x="0" y="174" width="1426" height="64" fill="#f8fafc"/><text x="122" y="210" font-family="monospace" font-size="12" font-weight="600" fill="#0f172a" text-anchor="end">Producer</text><text x="122" y="222" font-family="monospace" font-size="9" fill="#94a3b8" text-anchor="end">concise</text><line x1="0" y1="238" x2="1426" y2="238" stroke="#cbd5e1" stroke-width="0.5"/><line x1="130" y1="184" x2="410" y2="184" stroke="#0f172a" stroke-width="1.5"/><line x1="130" y1="228" x2="410" y2="228" stroke="#0f172a" stroke-width="1.5"/><line x1="130" y1="184" x2="130" y2="228" stroke="#0f172a" stroke-width="1.5"/><text x="270" y="210" text-anchor="middle" font-family="monospace" font-size="11" fill="#1e293b">Idle</text><line x1="410" y1="184" x2="690" y2="184" stroke="#0f172a" stroke-width="1.5"/><line x1="410" y1="228" x2="690" y2="228" stroke="#0f172a" stroke-width="1.5"/><line x1="410" y1="184" x2="410" y2="228" stroke="#0f172a" stroke-width="1.5"/><text x="550" y="210" text-anchor="middle" font-family="monospace" font-size="11" fill="#1e293b">Header</text><line x1="690" y1="184" x2="970" y2="184" stroke="#0f172a" stroke-width="1.5"/><line x1="690" y1="228" x2="970" y2="228" stroke="#0f172a" stroke-width="1.5"/><line x1="690" y1="184" x2="690" y2="228" stroke="#0f172a" stroke-width="1.5"/><text x="830" y="210" text-anchor="middle" font-family="monospace" font-size="11" fill="#1e293b">Payload</text><line x1="970" y1="184" x2="1311" y2="184" stroke="#0f172a" stroke-width="1.5"/><line x1="970" y1="228" x2="1311" y2="228" stroke="#0f172a" stroke-width="1.5"/><line x1="970" y1="184" x2="970" y2="228" stroke="#0f172a" stroke-width="1.5"/><text x="1140" y="210" text-anchor="middle" font-family="monospace" font-size="11" fill="#1e293b">Done</text><line x1="1311" y1="184" x2="1311" y2="228" stroke="#0f172a" stroke-width="1.5"/><rect x="0" y="238" width="1426" height="64" fill="#ffffff"/><text x="122" y="274" font-family="monospace" font-size="12" font-weight="600" fill="#0f172a" text-anchor="end">Consumer</text><text x="122" y="286" font-family="monospace" font-size="9" fill="#94a3b8" text-anchor="end">concise</text><line x1="0" y1="302" x2="1426" y2="302" stroke="#cbd5e1" stroke-width="0.5"/><line x1="130" y1="248" x2="690" y2="248" stroke="#0f172a" stroke-width="1.5"/><line x1="130" y1="292" x2="690" y2="292" stroke="#0f172a" stroke-width="1.5"/><line x1="130" y1="248" x2="130" y2="292" stroke="#0f172a" stroke-width="1.5"/><text x="410" y="274" text-anchor="middle" font-family="monospace" font-size="11" fill="#1e293b">Idle</text><line x1="690" y1="248" x2="970" y2="248" stroke="#0f172a" stroke-width="1.5"/><line x1="690" y1="292" x2="970" y2="292" stroke="#0f172a" stroke-width="1.5"/><line x1="690" y1="248" x2="690" y2="292" stroke="#0f172a" stroke-width="1.5"/><text x="830" y="274" text-anchor="middle" font-family="monospace" font-size="11" fill="#1e293b">ReceiveHeader</text><line x1="970" y1="248" x2="1250" y2="248" stroke="#0f172a" stroke-width="1.5"/><line x1="970" y1="292" x2="1250" y2="292" stroke="#0f172a" stroke-width="1.5"/><line x1="970" y1="248" x2="970" y2="292" stroke="#0f172a" stroke-width="1.5"/><text x="1110" y="274" text-anchor="middle" font-family="monospace" font-size="11" fill="#1e293b">ReceivePayload</text><line x1="1250" y1="248" x2="1311" y2="248" stroke="#0f172a" stroke-width="1.5"/><line x1="1250" y1="292" x2="1311" y2="292" stroke="#0f172a" stroke-width="1.5"/><line x1="1250" y1="248" x2="1250" y2="292" stroke="#0f172a" stroke-width="1.5"/><text x="1280" y="274" text-anchor="middle" font-family="monospace" font-size="11" fill="#1e293b">Done</text><line x1="1311" y1="248" x2="1311" y2="292" stroke="#0f172a" stroke-width="1.5"/><line class="timing-message" data-from="TX" data-to="RX" x1="410" y1="222" x2="690" y2="254" stroke="#0ea5e9" stroke-width="1.6"/><polygon class="timing-message-head" points="690,254 682,249 682,259" fill="#0ea5e9" stroke="#0ea5e9" stroke-width="1"/><text class="timing-message-label" x="550" y="232" text-anchor="middle" font-family="monospace" font-size="10" fill="#0f172a">hdr</text><line class="timing-message" data-from="TX" data-to="RX" x1="690" y1="222" x2="970" y2="254" stroke="#0ea5e9" stroke-width="1.6"/><polygon class="timing-message-head" points="970,254 962,249 962,259" fill="#0ea5e9" stroke="#0ea5e9" stroke-width="1"/><text class="timing-message-label" x="830" y="232" text-anchor="middle" font-family="monospace" font-size="10" fill="#0f172a">data</text></svg>