<svg xmlns="http://www.w3.org/2000/svg" width="1048" height="318" viewBox="0 0 1048 318"><rect width="100%" height="100%" fill="#ffffff"/><metadata data-timing-style="#ffffff #64748b #cbd5e1 #f8fafc #0f172a #0ea5e9 #0f172a"/><text x="24" y="22" font-family="monospace" font-size="18" font-weight="600" fill="#0f172a">Clock ticks and anchored messages</text><text x="24" y="44" font-family="monospace" font-size="11" fill="#94a3b8">timing diagram</text><rect x="130" y="62" width="760" height="48" fill="#f8fafc" stroke="#cbd5e1" stroke-width="1"/><line x1="130" y1="110" x2="130" y2="302" stroke="#cbd5e1" stroke-width="1" stroke-dasharray="4 3"/><line x1="130" y1="102" x2="130" y2="110" stroke="#64748b" stroke-width="1.5"/><text class="timing-tick" x="130" y="82" text-anchor="middle" font-family="monospace" font-size="11" fill="#0f172a">@0</text><line x1="320" y1="110" x2="320" y2="302" stroke="#cbd5e1" stroke-width="1" stroke-dasharray="4 3"/><line x1="320" y1="102" x2="320" y2="110" stroke="#64748b" stroke-width="1.5"/><text class="timing-tick" x="320" y="82" text-anchor="middle" font-family="monospace" font-size="11" fill="#0f172a">@50</text><line x1="415" y1="110" x2="415" y2="302" stroke="#cbd5e1" stroke-width="1" stroke-dasharray="4 3"/><line x1="415" y1="102" x2="415" y2="110" stroke="#64748b" stroke-width="1.5"/><text class="timing-tick" x="415" y="82" text-anchor="middle" font-family="monospace" font-size="11" fill="#0f172a">@75</text><line x1="510" y1="110" x2="510" y2="302" stroke="#cbd5e1" stroke-width="1" stroke-dasharray="4 3"/><line x1="510" y1="102" x2="510" y2="110" stroke="#64748b" stroke-width="1.5"/><text class="timing-tick" x="510" y="82" text-anchor="middle" font-family="monospace" font-size="11" fill="#0f172a">@100</text><line x1="605" y1="110" x2="605" y2="302" stroke="#cbd5e1" stroke-width="1" stroke-dasharray="4 3"/><line x1="605" y1="102" x2="605" y2="110" stroke="#64748b" stroke-width="1.5"/><text class="timing-tick" x="605" y="82" text-anchor="middle" font-family="monospace" font-size="11" fill="#0f172a">@125</text><line x1="890" y1="110" x2="890" y2="302" stroke="#cbd5e1" stroke-width="1" stroke-dasharray="4 3"/><line x1="890" y1="102" x2="890" y2="110" stroke="#64748b" stroke-width="1.5"/><text class="timing-tick" x="890" y="82" text-anchor="middle" font-family="monospace" font-size="11" fill="#0f172a">@200</text><line x1="225" y1="106" x2="225" y2="110" stroke="#64748b" stroke-width="0.75"/><line x1="365" y1="106" x2="365" y2="110" stroke="#64748b" stroke-width="0.75"/><line x1="460" y1="106" x2="460" y2="110" stroke="#64748b" stroke-width="0.75"/><line x1="555" y1="106" x2="555" y2="110" stroke="#64748b" stroke-width="0.75"/><line x1="745" y1="106" x2="745" y2="110" stroke="#64748b" stroke-width="0.75"/><rect x="0" y="110" width="1048" height="64" fill="#ffffff"/><text x="122" y="146" font-family="monospace" font-size="12" font-weight="600" fill="#0f172a" text-anchor="end">Bus clock</text><text x="122" y="158" font-family="monospace" font-size="9" fill="#94a3b8" text-anchor="end">clock</text><text x="122" y="170" font-family="monospace" font-size="9" fill="#64748b" text-anchor="end">period 50</text><line x1="0" y1="174" x2="1048" y2="174" stroke="#cbd5e1" stroke-width="0.5"/><polyline data-timing-period="50" data-timing-pulse="25" data-timing-offset="0" points="130,120 225,120 225,164 320,164 320,120 415,120 415,164 510,164 510,120 605,120 605,164 700,164 700,120 795,120 795,164 890,164 890,120 985,120 985,164 1048,164 1048,120" fill="none" stroke="#0f172a" stroke-width="2"/><text x="134" y="116" font-family="monospace" font-size="10" fill="#64748b">clk</text><rect x="0" y="174" width="1048" height="64" fill="#f8fafc"/><text x="122" y="210" font-family="monospace" font-size="12" font-weight="600" fill="#0f172a" text-anchor="end">Producer</text><text x="122" y="222" font-family="monospace" font-size="9" fill="#94a3b8" text-anchor="end">concise</text><line x1="0" y1="238" x2="1048" y2="238" stroke="#cbd5e1" stroke-width="0.5"/><line x1="130" y1="184" x2="320" y2="184" stroke="#0f172a" stroke-width="1.5"/><line x1="130" y1="228" x2="320" y2="228" stroke="#0f172a" stroke-width="1.5"/><line x1="130" y1="184" x2="130" y2="228" stroke="#0f172a" stroke-width="1.5"/><text x="225" y="210" text-anchor="middle" font-family="monospace" font-size="11" fill="#1e293b">Idle</text><line x1="320" y1="184" x2="510" y2="184" stroke="#0f172a" stroke-width="1.5"/><line x1="320" y1="228" x2="510" y2="228" stroke="#0f172a" stroke-width="1.5"/><line x1="320" y1="184" x2="320" y2="228" stroke="#0f172a" stroke-width="1.5"/><text x="415" y="210" text-anchor="middle" font-family="monospace" font-size="11" fill="#1e293b">SendHeader</text><line x1="510" y1="184" x2="931" y2="184" stroke="#0f172a" stroke-width="1.5"/><line x1="510" y1="228" x2="931" y2="228" stroke="#0f172a" stroke-width="1.5"/><line x1="510" y1="184" x2="510" y2="228" stroke="#0f172a" stroke-width="1.5"/><text x="720" y="210" text-anchor="middle" font-family="monospace" font-size="11" fill="#1e293b">SendPayload</text><line x1="931" y1="184" x2="931" y2="228" stroke="#0f172a" stroke-width="1.5"/><rect x="0" y="238" width="1048" height="64" fill="#ffffff"/><text x="122" y="274" font-family="monospace" font-size="12" font-weight="600" fill="#0f172a" text-anchor="end">Consumer</text><text x="122" y="286" font-family="monospace" font-size="9" fill="#94a3b8" text-anchor="end">concise</text><line x1="0" y1="302" x2="1048" y2="302" stroke="#cbd5e1" stroke-width="0.5"/><line x1="130" y1="248" x2="510" y2="248" stroke="#0f172a" stroke-width="1.5"/><line x1="130" y1="292" x2="510" y2="292" stroke="#0f172a" stroke-width="1.5"/><line x1="130" y1="248" x2="130" y2="292" stroke="#0f172a" stroke-width="1.5"/><text x="320" y="274" text-anchor="middle" font-family="monospace" font-size="11" fill="#1e293b">Idle</text><line x1="510" y1="248" x2="890" y2="248" stroke="#0f172a" stroke-width="1.5"/><line x1="510" y1="292" x2="890" y2="292" stroke="#0f172a" stroke-width="1.5"/><line x1="510" y1="248" x2="510" y2="292" stroke="#0f172a" stroke-width="1.5"/><text x="700" y="274" text-anchor="middle" font-family="monospace" font-size="11" fill="#1e293b">ReceiveHeader</text><line x1="890" y1="248" x2="931" y2="248" stroke="#0f172a" stroke-width="1.5"/><line x1="890" y1="292" x2="931" y2="292" stroke="#0f172a" stroke-width="1.5"/><line x1="890" y1="248" x2="890" y2="292" stroke="#0f172a" stroke-width="1.5"/><text x="910" y="274" text-anchor="middle" font-family="monospace" font-size="11" fill="#1e293b">ReceivePayload</text><line x1="931" y1="248" x2="931" y2="292" stroke="#0f172a" stroke-width="1.5"/><line class="timing-message" data-from="TX" data-to="RX" x1="320" y1="206" x2="415" y2="270" stroke="#0ea5e9" stroke-width="1.6"/><polygon class="timing-message-head" points="415,270 407,265 407,275" fill="#0ea5e9" stroke="#0ea5e9" stroke-width="1"/><text class="timing-message-label" x="367" y="232" text-anchor="middle" font-family="monospace" font-size="10" fill="#0f172a">header</text><line class="timing-message" data-from="TX" data-to="RX" x1="510" y1="206" x2="605" y2="270" stroke="#0ea5e9" stroke-width="1.6"/><polygon class="timing-message-head" points="605,270 597,265 597,275" fill="#0ea5e9" stroke="#0ea5e9" stroke-width="1"/><text class="timing-message-label" x="557" y="232" text-anchor="middle" font-family="monospace" font-size="10" fill="#0f172a">payload</text></svg>