<svg xmlns="http://www.w3.org/2000/svg" width="1308" height="228" viewBox="0 0 1308 228"><rect width="100%" height="100%" fill="#ffffff"/><metadata data-timing-style="#ffffff #64748b #cbd5e1 #f8fafc #0f172a #0ea5e9 #0f172a"/><text x="654" y="22" text-anchor="middle" font-family="monospace" font-size="18" font-weight="600" fill="#0f172a">Clock ticks and anchored messages</text><rect x="80" y="62" width="1206" height="30" fill="#f8fafc" stroke="#cbd5e1" stroke-width="1"/><line x1="80" y1="92" x2="80" y2="212" stroke="#cbd5e1" stroke-width="1" stroke-dasharray="4 3"/><line x1="80" y1="84" x2="80" y2="92" stroke="#64748b" stroke-width="1.5"/><text class="timing-tick" x="80" y="82" text-anchor="middle" font-family="monospace" font-size="11" fill="#0f172a">@0</text><line x1="360" y1="92" x2="360" y2="212" stroke="#cbd5e1" stroke-width="1" stroke-dasharray="4 3"/><line x1="360" y1="84" x2="360" y2="92" stroke="#64748b" stroke-width="1.5"/><text class="timing-tick" x="360" y="82" text-anchor="middle" font-family="monospace" font-size="11" fill="#0f172a">@50</text><line x1="500" y1="92" x2="500" y2="212" stroke="#cbd5e1" stroke-width="1" stroke-dasharray="4 3"/><line x1="500" y1="84" x2="500" y2="92" stroke="#64748b" stroke-width="1.5"/><text class="timing-tick" x="500" y="82" text-anchor="middle" font-family="monospace" font-size="11" fill="#0f172a">@75</text><line x1="640" y1="92" x2="640" y2="212" stroke="#cbd5e1" stroke-width="1" stroke-dasharray="4 3"/><line x1="640" y1="84" x2="640" y2="92" stroke="#64748b" stroke-width="1.5"/><text class="timing-tick" x="640" y="82" text-anchor="middle" font-family="monospace" font-size="11" fill="#0f172a">@100</text><line x1="780" y1="92" x2="780" y2="212" stroke="#cbd5e1" stroke-width="1" stroke-dasharray="4 3"/><line x1="780" y1="84" x2="780" y2="92" stroke="#64748b" stroke-width="1.5"/><text class="timing-tick" x="780" y="82" text-anchor="middle" font-family="monospace" font-size="11" fill="#0f172a">@125</text><line x1="920" y1="92" x2="920" y2="212" stroke="#cbd5e1" stroke-width="1" stroke-dasharray="4 3"/><line x1="920" y1="84" x2="920" y2="92" stroke="#64748b" stroke-width="1.5"/><text class="timing-tick" x="920" y="82" text-anchor="middle" font-family="monospace" font-size="11" fill="#0f172a">@150</text><line x1="1200" y1="92" x2="1200" y2="212" stroke="#cbd5e1" stroke-width="1" stroke-dasharray="4 3"/><line x1="1200" y1="84" x2="1200" y2="92" stroke="#64748b" stroke-width="1.5"/><text class="timing-tick" x="1200" y="82" text-anchor="middle" font-family="monospace" font-size="11" fill="#0f172a">@200</text><line x1="220" y1="88" x2="220" y2="92" stroke="#64748b" stroke-width="0.75"/><line x1="427" y1="88" x2="427" y2="92" stroke="#64748b" stroke-width="0.75"/><line x1="567" y1="88" x2="567" y2="92" stroke="#64748b" stroke-width="0.75"/><line x1="707" y1="88" x2="707" y2="92" stroke="#64748b" stroke-width="0.75"/><line x1="847" y1="88" x2="847" y2="92" stroke="#64748b" stroke-width="0.75"/><line x1="1060" y1="88" x2="1060" y2="92" stroke="#64748b" stroke-width="0.75"/><rect x="0" y="92" width="1308" height="40" fill="#ffffff"/><line x1="0" y1="132" x2="1308" y2="132" stroke="#cbd5e1" stroke-width="0.5"/><text x="72" y="116" font-family="monospace" font-size="12" font-weight="600" fill="#0f172a" text-anchor="end">Bus clock</text><text x="72" y="140" font-family="monospace" font-size="9" fill="#64748b" text-anchor="end">period 50</text><polyline data-timing-period="50" data-timing-pulse="25" data-timing-offset="0" points="80,104 220,104 220,120 360,120 360,104 500,104 500,120 640,120 640,104 780,104 780,120 920,120 920,104 1060,104 1060,120 1200,120 1200,104 1286,104 1286,120" fill="none" stroke="#0f172a" stroke-width="2"/><text x="84" y="100" font-family="monospace" font-size="10" fill="#64748b">clk</text><rect x="0" y="132" width="1308" height="40" fill="#f8fafc"/><line x1="0" y1="172" x2="1308" y2="172" stroke="#cbd5e1" stroke-width="0.5"/><text x="72" y="156" font-family="monospace" font-size="12" font-weight="600" fill="#0f172a" text-anchor="end">Producer</text><line x1="80" y1="138" x2="360" y2="138" stroke="#0f172a" stroke-width="1.5"/><line x1="80" y1="166" x2="360" y2="166" stroke="#0f172a" stroke-width="1.5"/><line x1="80" y1="138" x2="80" y2="166" stroke="#0f172a" stroke-width="1.5"/><text x="220" y="156" text-anchor="middle" font-family="monospace" font-size="11" fill="#1e293b">Idle</text><line x1="360" y1="138" x2="640" y2="138" stroke="#0f172a" stroke-width="1.5"/><line x1="360" y1="166" x2="640" y2="166" stroke="#0f172a" stroke-width="1.5"/><line x1="360" y1="138" x2="360" y2="166" stroke="#0f172a" stroke-width="1.5"/><text x="500" y="156" text-anchor="middle" font-family="monospace" font-size="11" fill="#1e293b">Header</text><line x1="640" y1="138" x2="920" y2="138" stroke="#0f172a" stroke-width="1.5"/><line x1="640" y1="166" x2="920" y2="166" stroke="#0f172a" stroke-width="1.5"/><line x1="640" y1="138" x2="640" y2="166" stroke="#0f172a" stroke-width="1.5"/><text x="780" y="156" text-anchor="middle" font-family="monospace" font-size="11" fill="#1e293b">Payload</text><line x1="920" y1="138" x2="1261" y2="138" stroke="#0f172a" stroke-width="1.5"/><line x1="920" y1="166" x2="1261" y2="166" stroke="#0f172a" stroke-width="1.5"/><line x1="920" y1="138" x2="920" y2="166" stroke="#0f172a" stroke-width="1.5"/><text x="1090" y="156" text-anchor="middle" font-family="monospace" font-size="11" fill="#1e293b">Done</text><line x1="1261" y1="138" x2="1261" y2="166" stroke="#0f172a" stroke-width="1.5"/><rect x="0" y="172" width="1308" height="40" fill="#ffffff"/><line x1="0" y1="212" x2="1308" y2="212" stroke="#cbd5e1" stroke-width="0.5"/><text x="72" y="196" font-family="monospace" font-size="12" font-weight="600" fill="#0f172a" text-anchor="end">Consumer</text><line x1="80" y1="178" x2="640" y2="178" stroke="#0f172a" stroke-width="1.5"/><line x1="80" y1="206" x2="640" y2="206" stroke="#0f172a" stroke-width="1.5"/><line x1="80" y1="178" x2="80" y2="206" stroke="#0f172a" stroke-width="1.5"/><text x="360" y="196" text-anchor="middle" font-family="monospace" font-size="11" fill="#1e293b">Idle</text><line x1="640" y1="178" x2="920" y2="178" stroke="#0f172a" stroke-width="1.5"/><line x1="640" y1="206" x2="920" y2="206" stroke="#0f172a" stroke-width="1.5"/><line x1="640" y1="178" x2="640" y2="206" stroke="#0f172a" stroke-width="1.5"/><text x="780" y="196" text-anchor="middle" font-family="monospace" font-size="11" fill="#1e293b">ReceiveHeader</text><line x1="920" y1="178" x2="1200" y2="178" stroke="#0f172a" stroke-width="1.5"/><line x1="920" y1="206" x2="1200" y2="206" stroke="#0f172a" stroke-width="1.5"/><line x1="920" y1="178" x2="920" y2="206" stroke="#0f172a" stroke-width="1.5"/><text x="1060" y="196" text-anchor="middle" font-family="monospace" font-size="11" fill="#1e293b">ReceivePayload</text><line x1="1200" y1="178" x2="1261" y2="178" stroke="#0f172a" stroke-width="1.5"/><line x1="1200" y1="206" x2="1261" y2="206" stroke="#0f172a" stroke-width="1.5"/><line x1="1200" y1="178" x2="1200" y2="206" stroke="#0f172a" stroke-width="1.5"/><text x="1230" y="196" text-anchor="middle" font-family="monospace" font-size="11" fill="#1e293b">Done</text><line x1="1261" y1="178" x2="1261" y2="206" stroke="#0f172a" stroke-width="1.5"/><line class="timing-message" data-from="TX" data-to="RX" x1="500" y1="168" x2="640" y2="176" stroke="#0ea5e9" stroke-width="1.6"/><polygon class="timing-message-head" points="640,176 632,171 632,181" fill="#0ea5e9" stroke="#0ea5e9" stroke-width="1"/><line class="timing-message" data-from="TX" data-to="RX" x1="780" y1="168" x2="920" y2="176" stroke="#0ea5e9" stroke-width="1.6"/><polygon class="timing-message-head" points="920,176 912,171 912,181" fill="#0ea5e9" stroke="#0ea5e9" stroke-width="1"/></svg>