<svg xmlns="http://www.w3.org/2000/svg" width="439" height="188" viewBox="0 0 439 188"><rect width="100%" height="100%" fill="#ffffff"/><metadata data-timing-style="#ffffff #64748b #cbd5e1 #f8fafc #0f172a #0ea5e9 #0f172a"/><text x="24" y="22" font-family="monospace" font-size="18" font-weight="600" fill="#0f172a">Absolute date/time axis values</text><rect x="80" y="62" width="324" height="30" fill="#f8fafc" stroke="#cbd5e1" stroke-width="1"/><line x1="80" y1="92" x2="80" y2="172" stroke="#cbd5e1" stroke-width="1" stroke-dasharray="4 3"/><line x1="80" y1="84" x2="80" y2="92" stroke="#64748b" stroke-width="1.5"/><text class="timing-tick" x="80" y="82" text-anchor="middle" font-family="monospace" font-size="11" fill="#0f172a">@2019/07/02</text><line x1="266" y1="92" x2="266" y2="172" stroke="#cbd5e1" stroke-width="1" stroke-dasharray="4 3"/><line x1="266" y1="84" x2="266" y2="92" stroke="#64748b" stroke-width="1.5"/><text class="timing-tick" x="266" y="82" text-anchor="middle" font-family="monospace" font-size="11" fill="#0f172a">@2019/07/04</text><line x1="360" y1="92" x2="360" y2="172" stroke="#cbd5e1" stroke-width="1" stroke-dasharray="4 3"/><line x1="360" y1="84" x2="360" y2="92" stroke="#64748b" stroke-width="1.5"/><text class="timing-tick" x="360" y="82" text-anchor="middle" font-family="monospace" font-size="11" fill="#0f172a">@2019/07/05</text><line x1="173" y1="88" x2="173" y2="92" stroke="#64748b" stroke-width="0.75"/><line x1="313" y1="88" x2="313" y2="92" stroke="#64748b" stroke-width="0.75"/><rect x="0" y="92" width="426" height="40" fill="#ffffff"/><line x1="0" y1="132" x2="426" y2="132" stroke="#cbd5e1" stroke-width="0.5"/><text x="72" y="116" font-family="monospace" font-size="12" font-weight="600" fill="#0f172a" text-anchor="end">Web Browser</text><polygon points="86,98 266,98 260,126 80,126" fill="#bfdbfe" stroke="#475569" stroke-width="1.5"/><text x="173" y="116" text-anchor="middle" font-family="monospace" font-size="11" fill="#0f172a" font-weight="600">Idle</text><polygon points="272,98 360,98 354,126 266,126" fill="#ddd6fe" stroke="#475569" stroke-width="1.5"/><text x="313" y="116" text-anchor="middle" font-family="monospace" font-size="11" fill="#0f172a" font-weight="600">Processing</text><polygon points="366,98 390,98 384,126 360,126" fill="#fde68a" stroke="#475569" stroke-width="1.5"/><text x="375" y="116" text-anchor="middle" font-family="monospace" font-size="11" fill="#0f172a" font-weight="600">Waiting</text><rect x="0" y="132" width="426" height="40" fill="#f8fafc"/><line x1="0" y1="172" x2="426" y2="172" stroke="#cbd5e1" stroke-width="0.5"/><text x="72" y="156" font-family="monospace" font-size="12" font-weight="600" fill="#0f172a" text-anchor="end">Web User</text><line x1="80" y1="138" x2="266" y2="138" stroke="#0f172a" stroke-width="1.5"/><line x1="80" y1="166" x2="266" y2="166" stroke="#0f172a" stroke-width="1.5"/><line x1="80" y1="138" x2="80" y2="166" stroke="#0f172a" stroke-width="1.5"/><text x="173" y="156" text-anchor="middle" font-family="monospace" font-size="11" fill="#1e293b">Idle</text><line x1="266" y1="138" x2="390" y2="138" stroke="#0f172a" stroke-width="1.5"/><line x1="266" y1="166" x2="390" y2="166" stroke="#0f172a" stroke-width="1.5"/><line x1="266" y1="138" x2="266" y2="166" stroke="#0f172a" stroke-width="1.5"/><text x="328" y="156" text-anchor="middle" font-family="monospace" font-size="11" fill="#1e293b">Waiting</text><line x1="390" y1="138" x2="390" y2="166" stroke="#0f172a" stroke-width="1.5"/></svg>