<svg xmlns="http://www.w3.org/2000/svg" width="1048" height="254" viewBox="0 0 1048 254"><rect width="100%" height="100%" fill="#ffffff"/><metadata data-timing-style="#ffffff #64748b #cbd5e1 #f8fafc #0f172a #0ea5e9 #0f172a"/><text x="24" y="22" font-family="monospace" font-size="18" font-weight="600" fill="#0f172a">Absolute date/time axis values</text><text x="24" y="44" font-family="monospace" font-size="11" fill="#94a3b8">timing diagram</text><rect x="130" y="62" width="760" height="48" fill="#f8fafc" stroke="#cbd5e1" stroke-width="1"/><line x1="130" y1="110" x2="130" y2="238" stroke="#cbd5e1" stroke-width="1" stroke-dasharray="4 3"/><line x1="130" y1="102" x2="130" y2="110" stroke="#64748b" stroke-width="1.5"/><text class="timing-tick" x="130" y="82" text-anchor="middle" font-family="monospace" font-size="11" fill="#0f172a">@2019/07/02</text><line x1="636" y1="110" x2="636" y2="238" stroke="#cbd5e1" stroke-width="1" stroke-dasharray="4 3"/><line x1="636" y1="102" x2="636" y2="110" stroke="#64748b" stroke-width="1.5"/><text class="timing-tick" x="636" y="82" text-anchor="middle" font-family="monospace" font-size="11" fill="#0f172a">@2019/07/04</text><line x1="890" y1="110" x2="890" y2="238" stroke="#cbd5e1" stroke-width="1" stroke-dasharray="4 3"/><line x1="890" y1="102" x2="890" y2="110" stroke="#64748b" stroke-width="1.5"/><text class="timing-tick" x="890" y="82" text-anchor="middle" font-family="monospace" font-size="11" fill="#0f172a">@2019/07/05</text><line x1="383" y1="106" x2="383" y2="110" stroke="#64748b" stroke-width="0.75"/><line x1="763" y1="106" x2="763" y2="110" stroke="#64748b" stroke-width="0.75"/><rect x="0" y="110" width="1048" height="64" fill="#ffffff"/><text x="122" y="146" font-family="monospace" font-size="12" font-weight="600" fill="#0f172a" text-anchor="end">Web Browser</text><text x="122" y="158" font-family="monospace" font-size="9" fill="#94a3b8" text-anchor="end">robust</text><line x1="0" y1="174" x2="1048" y2="174" stroke="#cbd5e1" stroke-width="0.5"/><polygon points="136,120 636,120 630,164 130,164" fill="#bfdbfe" stroke="#475569" stroke-width="1.5"/><text x="383" y="146" text-anchor="middle" font-family="monospace" font-size="11" fill="#0f172a" font-weight="600">Idle</text><polygon points="642,120 890,120 884,164 636,164" fill="#ddd6fe" stroke="#475569" stroke-width="1.5"/><text x="763" y="146" text-anchor="middle" font-family="monospace" font-size="11" fill="#0f172a" font-weight="600">Processing</text><polygon points="896,120 928,120 922,164 890,164" fill="#fde68a" stroke="#475569" stroke-width="1.5"/><text x="909" y="146" text-anchor="middle" font-family="monospace" font-size="11" fill="#0f172a" font-weight="600">Waiting</text><rect x="0" y="174" width="1048" height="64" fill="#f8fafc"/><text x="122" y="210" font-family="monospace" font-size="12" font-weight="600" fill="#0f172a" text-anchor="end">Web User</text><text x="122" y="222" font-family="monospace" font-size="9" fill="#94a3b8" text-anchor="end">concise</text><line x1="0" y1="238" x2="1048" y2="238" stroke="#cbd5e1" stroke-width="0.5"/><line x1="130" y1="184" x2="636" y2="184" stroke="#0f172a" stroke-width="1.5"/><line x1="130" y1="228" x2="636" y2="228" stroke="#0f172a" stroke-width="1.5"/><line x1="130" y1="184" x2="130" y2="228" stroke="#0f172a" stroke-width="1.5"/><text x="383" y="210" text-anchor="middle" font-family="monospace" font-size="11" fill="#1e293b">Idle</text><line x1="636" y1="184" x2="928" y2="184" stroke="#0f172a" stroke-width="1.5"/><line x1="636" y1="228" x2="928" y2="228" stroke="#0f172a" stroke-width="1.5"/><line x1="636" y1="184" x2="636" y2="228" stroke="#0f172a" stroke-width="1.5"/><text x="782" y="210" text-anchor="middle" font-family="monospace" font-size="11" fill="#1e293b">Waiting</text><line x1="928" y1="184" x2="928" y2="228" stroke="#0f172a" stroke-width="1.5"/></svg>