<svg xmlns="http://www.w3.org/2000/svg" width="426" height="188" viewBox="0 0 426 188"><rect width="100%" height="100%" fill="#ffffff"/><metadata data-timing-style="#ffffff #64748b #cbd5e1 #f8fafc #0f172a #0ea5e9 #0f172a"/><text x="24" y="22" font-family="monospace" font-size="18" font-weight="600" fill="#0f172a">Manual time-axis labels only state changes</text><rect x="80" y="62" width="324" height="30" fill="#f8fafc" stroke="#cbd5e1" stroke-width="1"/><line x1="80" y1="92" x2="80" y2="172" stroke="#cbd5e1" stroke-width="1" stroke-dasharray="4 3"/><line x1="80" y1="84" x2="80" y2="92" stroke="#64748b" stroke-width="1.5"/><text class="timing-tick" x="80" y="82" text-anchor="middle" font-family="monospace" font-size="11" fill="#0f172a">@0</text><line x1="142" y1="92" x2="142" y2="172" stroke="#cbd5e1" stroke-width="1" stroke-dasharray="4 3"/><line x1="142" y1="84" x2="142" y2="92" stroke="#64748b" stroke-width="1.5"/><line x1="173" y1="92" x2="173" y2="172" stroke="#cbd5e1" stroke-width="1" stroke-dasharray="4 3"/><line x1="173" y1="84" x2="173" y2="92" stroke="#64748b" stroke-width="1.5"/><line x1="204" y1="92" x2="204" y2="172" stroke="#cbd5e1" stroke-width="1" stroke-dasharray="4 3"/><line x1="204" y1="84" x2="204" y2="92" stroke="#64748b" stroke-width="1.5"/><text class="timing-tick" x="204" y="82" text-anchor="middle" font-family="monospace" font-size="11" fill="#0f172a">@20</text><line x1="266" y1="92" x2="266" y2="172" stroke="#cbd5e1" stroke-width="1" stroke-dasharray="4 3"/><line x1="266" y1="84" x2="266" y2="92" stroke="#64748b" stroke-width="1.5"/><line x1="297" y1="92" x2="297" y2="172" stroke="#cbd5e1" stroke-width="1" stroke-dasharray="4 3"/><line x1="297" y1="84" x2="297" y2="92" stroke="#64748b" stroke-width="1.5"/><line x1="360" y1="92" x2="360" y2="172" stroke="#cbd5e1" stroke-width="1" stroke-dasharray="4 3"/><line x1="360" y1="84" x2="360" y2="92" stroke="#64748b" stroke-width="1.5"/><text class="timing-tick" x="360" y="82" text-anchor="middle" font-family="monospace" font-size="11" fill="#0f172a">@45</text><line x1="111" y1="88" x2="111" y2="92" stroke="#64748b" stroke-width="0.75"/><line x1="154" y1="88" x2="154" y2="92" stroke="#64748b" stroke-width="0.75"/><line x1="185" y1="88" x2="185" y2="92" stroke="#64748b" stroke-width="0.75"/><line x1="235" y1="88" x2="235" y2="92" stroke="#64748b" stroke-width="0.75"/><line x1="279" y1="88" x2="279" y2="92" stroke="#64748b" stroke-width="0.75"/><line x1="328" y1="88" x2="328" y2="92" stroke="#64748b" stroke-width="0.75"/><rect x="0" y="92" width="426" height="40" fill="#ffffff"/><line x1="0" y1="132" x2="426" y2="132" stroke="#cbd5e1" stroke-width="0.5"/><text x="72" y="116" font-family="monospace" font-size="12" font-weight="600" fill="#0f172a" text-anchor="end">Client</text><line x1="80" y1="98" x2="360" y2="98" stroke="#0f172a" stroke-width="1.5"/><line x1="80" y1="126" x2="360" y2="126" stroke="#0f172a" stroke-width="1.5"/><line x1="80" y1="98" x2="80" y2="126" stroke="#0f172a" stroke-width="1.5"/><text x="220" y="116" text-anchor="middle" font-family="monospace" font-size="11" fill="#1e293b">Idle</text><line x1="360" y1="98" x2="391" y2="98" stroke="#0f172a" stroke-width="1.5"/><line x1="360" y1="126" x2="391" y2="126" stroke="#0f172a" stroke-width="1.5"/><line x1="360" y1="98" x2="360" y2="126" stroke="#0f172a" stroke-width="1.5"/><text x="375" y="116" text-anchor="middle" font-family="monospace" font-size="11" fill="#1e293b">Done</text><line x1="391" y1="98" x2="391" y2="126" stroke="#0f172a" stroke-width="1.5"/><rect x="0" y="132" width="426" height="40" fill="#f8fafc"/><line x1="0" y1="172" x2="426" y2="172" stroke="#cbd5e1" stroke-width="0.5"/><text x="72" y="156" font-family="monospace" font-size="12" font-weight="600" fill="#0f172a" text-anchor="end">Server</text><line x1="80" y1="138" x2="204" y2="138" stroke="#0f172a" stroke-width="1.5"/><line x1="80" y1="166" x2="204" y2="166" stroke="#0f172a" stroke-width="1.5"/><line x1="80" y1="138" x2="80" y2="166" stroke="#0f172a" stroke-width="1.5"/><text x="142" y="156" text-anchor="middle" font-family="monospace" font-size="11" fill="#1e293b">Idle</text><line x1="204" y1="138" x2="360" y2="138" stroke="#0f172a" stroke-width="1.5"/><line x1="204" y1="166" x2="360" y2="166" stroke="#0f172a" stroke-width="1.5"/><line x1="204" y1="138" x2="204" y2="166" stroke="#0f172a" stroke-width="1.5"/><text x="282" y="156" text-anchor="middle" font-family="monospace" font-size="11" fill="#1e293b">Handling</text><line x1="360" y1="138" x2="391" y2="138" stroke="#0f172a" stroke-width="1.5"/><line x1="360" y1="166" x2="391" y2="166" stroke="#0f172a" stroke-width="1.5"/><line x1="360" y1="138" x2="360" y2="166" stroke="#0f172a" stroke-width="1.5"/><text x="375" y="156" text-anchor="middle" font-family="monospace" font-size="11" fill="#1e293b">Idle</text><line x1="391" y1="138" x2="391" y2="166" stroke="#0f172a" stroke-width="1.5"/><line class="timing-message" data-from="C" data-to="S" x1="142" y1="128" x2="173" y2="136" stroke="#0ea5e9" stroke-width="1.6"/><polygon class="timing-message-head" points="173,136 165,131 165,141" fill="#0ea5e9" stroke="#0ea5e9" stroke-width="1"/><rect x="132" y="112" width="50" height="13" fill="white" fill-opacity="0.85" rx="2"/><text class="timing-message-label" x="157" y="122" text-anchor="middle" font-family="monospace" font-size="10" fill="#0f172a">request</text><line class="timing-message" data-from="S" data-to="C" x1="266" y1="136" x2="297" y2="128" stroke="#0ea5e9" stroke-width="1.6"/><polygon class="timing-message-head" points="297,128 289,123 289,133" fill="#0ea5e9" stroke="#0ea5e9" stroke-width="1"/><rect x="253" y="112" width="56" height="13" fill="white" fill-opacity="0.85" rx="2"/><text class="timing-message-label" x="281" y="122" text-anchor="middle" font-family="monospace" font-size="10" fill="#0f172a">response</text></svg>