<svg xmlns="http://www.w3.org/2000/svg" width="1048" height="254" viewBox="0 0 1048 254"><rect width="100%" height="100%" fill="#ffffff"/><metadata data-timing-style="#ffffff #64748b #cbd5e1 #f8fafc #0f172a #0ea5e9 #0f172a"/><text x="24" y="22" font-family="monospace" font-size="18" font-weight="600" fill="#0f172a">Manual time-axis labels only state changes</text><text x="24" y="44" font-family="monospace" font-size="11" fill="#94a3b8">timing diagram</text><rect x="130" y="62" width="878" height="48" fill="#f8fafc" stroke="#cbd5e1" stroke-width="1"/><line x1="130" y1="110" x2="130" y2="238" stroke="#cbd5e1" stroke-width="1" stroke-dasharray="4 3"/><line x1="130" y1="102" x2="130" y2="110" stroke="#64748b" stroke-width="1.5"/><text class="timing-tick" x="130" y="82" text-anchor="middle" font-family="monospace" font-size="11" fill="#0f172a">@0</text><line x1="298" y1="110" x2="298" y2="238" stroke="#cbd5e1" stroke-width="1" stroke-dasharray="4 3"/><line x1="298" y1="102" x2="298" y2="110" stroke="#64748b" stroke-width="1.5"/><line x1="383" y1="110" x2="383" y2="238" stroke="#cbd5e1" stroke-width="1" stroke-dasharray="4 3"/><line x1="383" y1="102" x2="383" y2="110" stroke="#64748b" stroke-width="1.5"/><line x1="467" y1="110" x2="467" y2="238" stroke="#cbd5e1" stroke-width="1" stroke-dasharray="4 3"/><line x1="467" y1="102" x2="467" y2="110" stroke="#64748b" stroke-width="1.5"/><text class="timing-tick" x="467" y="82" text-anchor="middle" font-family="monospace" font-size="11" fill="#0f172a">@20</text><line x1="636" y1="110" x2="636" y2="238" stroke="#cbd5e1" stroke-width="1" stroke-dasharray="4 3"/><line x1="636" y1="102" x2="636" y2="110" stroke="#64748b" stroke-width="1.5"/><line x1="721" y1="110" x2="721" y2="238" stroke="#cbd5e1" stroke-width="1" stroke-dasharray="4 3"/><line x1="721" y1="102" x2="721" y2="110" stroke="#64748b" stroke-width="1.5"/><line x1="890" y1="110" x2="890" y2="238" stroke="#cbd5e1" stroke-width="1" stroke-dasharray="4 3"/><line x1="890" y1="102" x2="890" y2="110" stroke="#64748b" stroke-width="1.5"/><text class="timing-tick" x="890" y="82" text-anchor="middle" font-family="monospace" font-size="11" fill="#0f172a">@45</text><line x1="214" y1="106" x2="214" y2="110" stroke="#64748b" stroke-width="0.75"/><line x1="332" y1="106" x2="332" y2="110" stroke="#64748b" stroke-width="0.75"/><line x1="417" y1="106" x2="417" y2="110" stroke="#64748b" stroke-width="0.75"/><line x1="552" y1="106" x2="552" y2="110" stroke="#64748b" stroke-width="0.75"/><line x1="670" y1="106" x2="670" y2="110" stroke="#64748b" stroke-width="0.75"/><line x1="805" y1="106" x2="805" y2="110" stroke="#64748b" stroke-width="0.75"/><rect x="0" y="110" width="1048" height="64" fill="#ffffff"/><line x1="0" y1="174" x2="1048" y2="174" stroke="#cbd5e1" stroke-width="0.5"/><text x="122" y="146" font-family="monospace" font-size="12" font-weight="600" fill="#0f172a" text-anchor="end">Client</text><text x="122" y="158" font-family="monospace" font-size="9" fill="#94a3b8" text-anchor="end">concise</text><line x1="130" y1="120" x2="890" y2="120" stroke="#0f172a" stroke-width="1.5"/><line x1="130" y1="164" x2="890" y2="164" stroke="#0f172a" stroke-width="1.5"/><line x1="130" y1="120" x2="130" y2="164" stroke="#0f172a" stroke-width="1.5"/><text x="510" y="146" text-anchor="middle" font-family="monospace" font-size="11" fill="#1e293b">Idle</text><line x1="890" y1="120" x2="940" y2="120" stroke="#0f172a" stroke-width="1.5"/><line x1="890" y1="164" x2="940" y2="164" stroke="#0f172a" stroke-width="1.5"/><line x1="890" y1="120" x2="890" y2="164" stroke="#0f172a" stroke-width="1.5"/><text x="915" y="146" text-anchor="middle" font-family="monospace" font-size="11" fill="#1e293b">Done</text><line x1="940" y1="120" x2="940" y2="164" stroke="#0f172a" stroke-width="1.5"/><rect x="0" y="174" width="1048" height="64" fill="#f8fafc"/><line x1="0" y1="238" x2="1048" y2="238" stroke="#cbd5e1" stroke-width="0.5"/><text x="122" y="210" font-family="monospace" font-size="12" font-weight="600" fill="#0f172a" text-anchor="end">Server</text><text x="122" y="222" font-family="monospace" font-size="9" fill="#94a3b8" text-anchor="end">concise</text><line x1="130" y1="184" x2="467" y2="184" stroke="#0f172a" stroke-width="1.5"/><line x1="130" y1="228" x2="467" y2="228" stroke="#0f172a" stroke-width="1.5"/><line x1="130" y1="184" x2="130" y2="228" stroke="#0f172a" stroke-width="1.5"/><text x="298" y="210" text-anchor="middle" font-family="monospace" font-size="11" fill="#1e293b">Idle</text><line x1="467" y1="184" x2="890" y2="184" stroke="#0f172a" stroke-width="1.5"/><line x1="467" y1="228" x2="890" y2="228" stroke="#0f172a" stroke-width="1.5"/><line x1="467" y1="184" x2="467" y2="228" stroke="#0f172a" stroke-width="1.5"/><text x="678" y="210" text-anchor="middle" font-family="monospace" font-size="11" fill="#1e293b">Handling</text><line x1="890" y1="184" x2="940" y2="184" stroke="#0f172a" stroke-width="1.5"/><line x1="890" y1="228" x2="940" y2="228" stroke="#0f172a" stroke-width="1.5"/><line x1="890" y1="184" x2="890" y2="228" stroke="#0f172a" stroke-width="1.5"/><text x="915" y="210" text-anchor="middle" font-family="monospace" font-size="11" fill="#1e293b">Idle</text><line x1="940" y1="184" x2="940" y2="228" stroke="#0f172a" stroke-width="1.5"/><line class="timing-message" data-from="C" data-to="S" x1="298" y1="158" x2="383" y2="190" stroke="#0ea5e9" stroke-width="1.6"/><polygon class="timing-message-head" points="383,190 375,185 375,195" fill="#0ea5e9" stroke="#0ea5e9" stroke-width="1"/><text class="timing-message-label" x="340" y="168" text-anchor="middle" font-family="monospace" font-size="10" fill="#0f172a">request</text><line class="timing-message" data-from="S" data-to="C" x1="636" y1="190" x2="721" y2="158" stroke="#0ea5e9" stroke-width="1.6"/><polygon class="timing-message-head" points="721,158 713,153 713,163" fill="#0ea5e9" stroke="#0ea5e9" stroke-width="1"/><text class="timing-message-label" x="678" y="168" text-anchor="middle" font-family="monospace" font-size="10" fill="#0f172a">response</text></svg>