<svg xmlns="http://www.w3.org/2000/svg" width="822" height="355" viewBox="0 0 822 355"><rect data-salt-style="canvas" width="794" height="355" fill="white"/><rect data-salt-style="panel" x="6" y="6" width="782" height="343" fill="white" stroke="#555" stroke-width="1.5"/><rect data-salt-widget="menu" data-salt-open="true" x="7" y="8" width="375" height="20" fill="#eef2ff" stroke="#555" stroke-width="1"/><text x="14" y="22" font-family="monospace" font-size="12" fill="#222">File</text><line data-salt-widget="menu-separator" x1="54" y1="10" x2="54" y2="24" stroke="#555" stroke-width="1" opacity="0.4"/><text x="66" y="22" font-family="monospace" font-size="12" fill="#222">Edit</text><line data-salt-widget="menu-separator" x1="106" y1="10" x2="106" y2="24" stroke="#555" stroke-width="1" opacity="0.4"/><text x="118" y="22" font-family="monospace" font-size="12" fill="#222">View</text><line data-salt-widget="menu-separator" x1="158" y1="10" x2="158" y2="24" stroke="#555" stroke-width="1" opacity="0.4"/><text x="170" y="22" font-family="monospace" font-size="12" fill="#222">Window</text><line data-salt-widget="menu-separator" x1="224" y1="10" x2="224" y2="24" stroke="#555" stroke-width="1" opacity="0.4"/><text x="236" y="22" font-family="monospace" font-size="12" fill="#222">Help</text><rect data-salt-widget="menu-dropdown" data-salt-open-index="0" x="14" y="28" width="80" height="64" fill="#eef2ff" stroke="#555" stroke-width="1"/><text x="20" y="40" font-family="monospace" font-size="11" fill="#222">Edit</text><text x="20" y="56" font-family="monospace" font-size="11" fill="#222">View</text><text x="20" y="72" font-family="monospace" font-size="11" fill="#222">Window</text><text x="20" y="88" font-family="monospace" font-size="11" fill="#222">Help</text><line x1="6" y1="94" x2="788" y2="94" stroke="#ccc" stroke-width="0.5"/><line data-salt-widget="tab-strip" x1="14" y1="112" x2="375" y2="112" stroke="#555" stroke-width="2"/><rect data-salt-widget="tab" data-salt-tab-active="false" x="14" y="97" width="73" height="14" rx="4" ry="4" fill="#eef2ff" stroke="#555" stroke-width="1"/><text x="26" y="108" font-family="monospace" font-size="12" fill="#aaa">General</text><rect data-salt-widget="tab" data-salt-tab-active="true" x="86" y="97" width="80" height="17" rx="4" ry="4" fill="white" stroke="#555" stroke-width="1"/><line x1="87" y1="112" x2="165" y2="112" stroke="white" stroke-width="3"/><text x="98" y="109" font-family="monospace" font-size="12" font-weight="bold" fill="#222">Security</text><rect data-salt-widget="tab" data-salt-tab-active="false" x="165" y="97" width="108" height="14" rx="4" ry="4" fill="#eef2ff" stroke="#555" stroke-width="1"/><text x="177" y="108" font-family="monospace" font-size="12" fill="#aaa">Integrations</text><line x1="6" y1="114" x2="788" y2="114" stroke="#ccc" stroke-width="0.5"/><g data-salt-widget="tree" data-salt-tree-depth="0"><line x1="14" y1="118" x2="14" y2="130" stroke="#ccc" stroke-width="1"/><line x1="14" y1="124" x2="24" y2="124" stroke="#ccc" stroke-width="1"/><circle cx="24" cy="124" r="3" fill="#555"/><text x="32" y="128" font-family="monospace" font-size="12" fill="#222">Workspace</text></g><line x1="6" y1="134" x2="788" y2="134" stroke="#ccc" stroke-width="0.5"/><g data-salt-widget="tree" data-salt-tree-depth="1"><line x1="30" y1="138" x2="30" y2="150" stroke="#ccc" stroke-width="1"/><line x1="30" y1="144" x2="40" y2="144" stroke="#ccc" stroke-width="1"/><circle cx="40" cy="144" r="3" fill="#555"/><text x="48" y="148" font-family="monospace" font-size="12" fill="#222">Profile</text></g><line x1="6" y1="154" x2="788" y2="154" stroke="#ccc" stroke-width="0.5"/><g data-salt-widget="tree" data-salt-tree-depth="1"><line x1="30" y1="158" x2="30" y2="170" stroke="#ccc" stroke-width="1"/><line x1="30" y1="164" x2="40" y2="164" stroke="#ccc" stroke-width="1"/><circle cx="40" cy="164" r="3" fill="#555"/><text x="48" y="168" font-family="monospace" font-size="12" fill="#222">Security</text></g><line x1="6" y1="174" x2="788" y2="174" stroke="#ccc" stroke-width="0.5"/><rect data-salt-widget="header" x="7" y="175" width="375" height="18" fill="#e2e8f0" stroke="#ccc" stroke-width="1"/><text x="14" y="188" font-family="monospace" font-size="12" font-weight="700" fill="#222">Setting</text><rect data-salt-widget="header" x="384" y="175" width="141" height="18" fill="#e2e8f0" stroke="#ccc" stroke-width="1"/><text x="391" y="188" font-family="monospace" font-size="12" font-weight="700" fill="#222">Control</text><rect data-salt-widget="header" x="527" y="175" width="260" height="18" fill="#e2e8f0" stroke="#ccc" stroke-width="1"/><text x="534" y="188" font-family="monospace" font-size="12" font-weight="700" fill="#222">Notes</text><line x1="6" y1="194" x2="788" y2="194" stroke="#ccc" stroke-width="0.5"/><text x="14" y="208" font-family="monospace" font-size="12" fill="#222">Owner</text><g data-salt-widget="input" fill="white"><g data-creole-sprites="true"><text x="391.00" y="208" font-family="monospace" font-size="12" fill="#222" data-salt-creole="true" data-salt-icons="person"><tspan font-style="italic">Allie</tspan><tspan> </tspan></text><g class="puml-sprite puml-sprite-svg" data-sprite="person" transform="translate(461.00,203.00) scale(1.000)" fill="#222"><svg xmlns="http://www.w3.org/2000/svg" width="8" height="8" viewBox="0 0 8 8"><path d="M4 0c-1.1 0-2 1.12-2 2.5s.9 2.5 2 2.5 2-1.12 2-2.5-.9-2.5-2-2.5zm-2.09 5c-1.06.05-1.91.92-1.91 2v1h8v-1c0-1.08-.84-1.95-1.91-2-.54.61-1.28 1-2.09 1-.81 0-1.55-.39-2.09-1z"/></svg></g></g><line x1="389" y1="210" x2="518" y2="210" stroke="#555" stroke-width="1"/><line x1="389" y1="207" x2="389" y2="210" stroke="#555" stroke-width="1"/><line x1="518" y1="207" x2="518" y2="210" stroke="#555" stroke-width="1"/></g><text x="534" y="208" font-family="monospace" font-size="12" fill="#222" data-salt-creole="true"><tspan x="534"><tspan font-weight="bold">Primary</tspan><tspan> approver</tspan></tspan></text><line x1="6" y1="214" x2="788" y2="214" stroke="#ccc" stroke-width="0.5"/><text x="14" y="255" font-family="monospace" font-size="12" fill="#222">Theme</text><rect data-salt-widget="open-combo" x="391" y="216" width="86" height="19" fill="white" stroke="#555" stroke-width="1"/><text x="393" y="230" font-family="monospace" font-size="12" fill="#222">Workspace</text><line x1="466" y1="216" x2="466" y2="235" stroke="#555" stroke-width="1"/><polygon points="469,221 475,221 472,229" fill="#555" stroke="#555" stroke-width="1"/><rect data-salt-widget="open-combo-list" x="391" y="235" width="86" height="48" fill="white" stroke="#555" stroke-width="1"/><text x="395" y="247" font-family="monospace" font-size="11" fill="#222">System default</text><text x="395" y="263" font-family="monospace" font-size="11" fill="#222">Light</text><text x="395" y="279" font-family="monospace" font-size="11" fill="#222">Dark</text><rect data-salt-widget="checkbox" x="534" y="246" width="10" height="10" fill="white" stroke="#555" stroke-width="1.5"/><text x="552" y="255" font-family="monospace" font-size="12" fill="#222">Sync across devices</text><line x1="6" y1="289" x2="788" y2="289" stroke="#ccc" stroke-width="0.5"/><text x="14" y="303" font-family="monospace" font-size="12" fill="#222">Action</text><rect data-salt-widget="button" x="391" y="289" width="100" height="20" fill="#e8e8e8" stroke="#555" stroke-width="2.5" rx="5" ry="5"/><text x="441" y="304" text-anchor="middle" font-family="monospace" font-size="12" font-weight="bold" fill="#222">Reset access</text><text x="534" y="303" font-family="monospace" font-size="12" fill="#222" data-salt-creole="true"><tspan x="534"><tspan fill="blue">Requires</tspan><tspan> restart</tspan></tspan></text><line x1="6" y1="309" x2="788" y2="309" stroke="#ccc" stroke-width="0.5"/><rect data-salt-widget="textarea" data-salt-scroll-vertical="true" data-salt-scroll-horizontal="false" x="10" y="312" width="369" height="14" fill="white" stroke="#555" stroke-width="1" rx="3" ry="3"/><rect data-salt-widget="scrollbar" x="365" y="315" width="8" height="8" rx="4" ry="4" fill="#eef2ff" stroke="#555" stroke-width="1"/><line x1="6" y1="329" x2="788" y2="329" stroke="#ccc" stroke-width="0.5"/><rect data-salt-widget="textarea" data-salt-scroll-vertical="false" data-salt-scroll-horizontal="false" x="10" y="332" width="369" height="14" fill="white" stroke="#555" stroke-width="1" rx="3" ry="3"/><g data-creole-sprites="true"><g class="puml-sprite puml-sprite-svg" data-sprite="person" transform="translate(14.00,338.00) scale(1.000)" fill="#222"><svg xmlns="http://www.w3.org/2000/svg" width="8" height="8" viewBox="0 0 8 8"><path d="M4 0c-1.1 0-2 1.12-2 2.5s.9 2.5 2 2.5 2-1.12 2-2.5-.9-2.5-2-2.5zm-2.09 5c-1.06.05-1.91.92-1.91 2v1h8v-1c0-1.08-.84-1.95-1.91-2-.54.61-1.28 1-2.09 1-.81 0-1.55-.39-2.09-1z"/></svg></g><text x="25.00" y="343" font-family="monospace" font-size="12" fill="#222" data-salt-creole="true" data-salt-icons="person"> Review access rules before inviting guests</text></g><line x1="383" y1="6" x2="383" y2="349" stroke="#ccc" stroke-width="0.5"/><line x1="526" y1="6" x2="526" y2="349" stroke="#ccc" stroke-width="0.5"/></svg>