<svg xmlns="http://www.w3.org/2000/svg" width="794" height="287"><rect data-salt-style="canvas" width="794" height="287" fill="white"/><rect data-salt-style="panel" x="6" y="6" width="782" height="275" fill="white" stroke="#555" stroke-width="1.5"/><rect data-salt-widget="menu" data-salt-open="true" x="7" y="8" width="375" height="16" fill="#eef2ff" stroke="#555" stroke-width="1"/><text x="14" y="20" font-family="monospace" font-size="12" fill="#222">File</text><text x="66" y="20" font-family="monospace" font-size="12" fill="#222">Edit</text><text x="118" y="20" font-family="monospace" font-size="12" fill="#222">View</text><text x="170" y="20" font-family="monospace" font-size="12" fill="#222">Window</text><text x="236" y="20" font-family="monospace" font-size="12" fill="#222">Help</text><line x1="6" y1="26" x2="788" y2="26" stroke="#ccc" stroke-width="0.5"/><line data-salt-widget="tab-strip" x1="14" y1="44" x2="375" y2="44" stroke="#555" stroke-width="2"/><rect data-salt-widget="tab" data-salt-tab-active="false" x="14" y="29" width="73" height="14" rx="4" ry="4" fill="#eef2ff" stroke="#555" stroke-width="1"/><text x="26" y="40" font-family="monospace" font-size="12" fill="#aaa">General</text><rect data-salt-widget="tab" data-salt-tab-active="true" x="86" y="29" width="80" height="17" rx="4" ry="4" fill="white" stroke="#555" stroke-width="1"/><line x1="87" y1="44" x2="165" y2="44" stroke="white" stroke-width="3"/><text x="98" y="41" font-family="monospace" font-size="12" font-weight="bold" fill="#222">Security</text><rect data-salt-widget="tab" data-salt-tab-active="false" x="165" y="29" width="108" height="14" rx="4" ry="4" fill="#eef2ff" stroke="#555" stroke-width="1"/><text x="177" y="40" font-family="monospace" font-size="12" fill="#aaa">Integrations</text><line x1="6" y1="46" x2="788" y2="46" stroke="#ccc" stroke-width="0.5"/><g data-salt-widget="tree" data-salt-tree-depth="0"><line x1="14" y1="50" x2="14" y2="62" stroke="#ccc" stroke-width="1"/><line x1="14" y1="56" x2="24" y2="56" stroke="#ccc" stroke-width="1"/><circle cx="24" cy="56" r="3" fill="#555"/><text x="32" y="60" font-family="monospace" font-size="12" fill="#222">Workspace</text></g><line x1="6" y1="66" x2="788" y2="66" stroke="#ccc" stroke-width="0.5"/><g data-salt-widget="tree" data-salt-tree-depth="1"><line x1="30" y1="70" x2="30" y2="82" stroke="#ccc" stroke-width="1"/><line x1="30" y1="76" x2="40" y2="76" stroke="#ccc" stroke-width="1"/><circle cx="40" cy="76" r="3" fill="#555"/><text x="48" y="80" font-family="monospace" font-size="12" fill="#222">Profile</text></g><line x1="6" y1="86" x2="788" y2="86" stroke="#ccc" stroke-width="0.5"/><g data-salt-widget="tree" data-salt-tree-depth="1"><line x1="30" y1="90" x2="30" y2="102" stroke="#ccc" stroke-width="1"/><line x1="30" y1="96" x2="40" y2="96" stroke="#ccc" stroke-width="1"/><circle cx="40" cy="96" r="3" fill="#555"/><text x="48" y="100" font-family="monospace" font-size="12" fill="#222">Security</text></g><line x1="6" y1="106" x2="788" y2="106" stroke="#ccc" stroke-width="0.5"/><rect data-salt-widget="header" x="7" y="107" width="375" height="18" fill="#e2e8f0" stroke="#ccc" stroke-width="1"/><text x="14" y="120" font-family="monospace" font-size="12" font-weight="700" fill="#222">Setting</text><rect data-salt-widget="header" x="384" y="107" width="141" height="18" fill="#e2e8f0" stroke="#ccc" stroke-width="1"/><text x="391" y="120" font-family="monospace" font-size="12" font-weight="700" fill="#222">Control</text><rect data-salt-widget="header" x="527" y="107" width="260" height="18" fill="#e2e8f0" stroke="#ccc" stroke-width="1"/><text x="534" y="120" font-family="monospace" font-size="12" font-weight="700" fill="#222">Notes</text><line x1="6" y1="126" x2="788" y2="126" stroke="#ccc" stroke-width="0.5"/><text x="14" y="140" font-family="monospace" font-size="12" fill="#222">Owner</text><g data-salt-widget="input" fill="white"><text x="391" y="140" font-family="monospace" font-size="12" fill="#222" data-salt-creole="true" data-salt-icons="person"><tspan x="391"><tspan font-style="italic">Allie</tspan><tspan> </tspan><tspan>[person]</tspan></tspan></text><line x1="389" y1="142" x2="518" y2="142" stroke="#555" stroke-width="1"/><line x1="389" y1="139" x2="389" y2="142" stroke="#555" stroke-width="1"/><line x1="518" y1="139" x2="518" y2="142" stroke="#555" stroke-width="1"/></g><text x="534" y="140" font-family="monospace" font-size="12" fill="#222" data-salt-creole="true"><tspan x="534"><tspan font-weight="bold">Primary</tspan><tspan> approver</tspan></tspan></text><line x1="6" y1="146" x2="788" y2="146" stroke="#ccc" stroke-width="0.5"/><text x="14" y="187" font-family="monospace" font-size="12" fill="#222">Theme</text><rect data-salt-widget="open-combo" x="391" y="148" width="86" height="19" fill="white" stroke="#555" stroke-width="1"/><text x="393" y="162" font-family="monospace" font-size="12" fill="#222">Workspace</text><line x1="466" y1="148" x2="466" y2="167" stroke="#555" stroke-width="1"/><polygon points="469,161 475,161 472,153" fill="#555" stroke="#555" stroke-width="1"/><rect data-salt-widget="open-combo-list" x="391" y="167" width="86" height="48" fill="white" stroke="#555" stroke-width="1"/><text x="395" y="179" font-family="monospace" font-size="11" fill="#222">System default</text><text x="395" y="195" font-family="monospace" font-size="11" fill="#222">Light</text><text x="395" y="211" font-family="monospace" font-size="11" fill="#222">Dark</text><rect data-salt-widget="checkbox" x="534" y="178" width="10" height="10" fill="white" stroke="#555" stroke-width="1.5"/><text x="552" y="187" font-family="monospace" font-size="12" fill="#222">Sync across devices</text><line x1="6" y1="221" x2="788" y2="221" stroke="#ccc" stroke-width="0.5"/><text x="14" y="235" font-family="monospace" font-size="12" fill="#222">Action</text><rect data-salt-widget="button" x="391" y="221" width="100" height="20" fill="#e8e8e8" stroke="#555" stroke-width="2.5" rx="5" ry="5"/><text x="441" y="236" text-anchor="middle" font-family="monospace" font-size="12" font-weight="bold" fill="#222">Reset access</text><text x="534" y="235" font-family="monospace" font-size="12" fill="#222" data-salt-creole="true"><tspan x="534"><tspan fill="blue">Requires</tspan><tspan> restart</tspan></tspan></text><line x1="6" y1="241" x2="788" y2="241" stroke="#ccc" stroke-width="0.5"/><rect data-salt-widget="textarea" data-salt-scroll-vertical="true" data-salt-scroll-horizontal="false" x="10" y="244" width="369" height="14" fill="white" stroke="#555" stroke-width="1" rx="3" ry="3"/><rect data-salt-widget="scrollbar" x="365" y="247" width="8" height="8" rx="4" ry="4" fill="#eef2ff" stroke="#555" stroke-width="1"/><line x1="6" y1="261" x2="788" y2="261" stroke="#ccc" stroke-width="0.5"/><rect data-salt-widget="textarea" data-salt-scroll-vertical="false" data-salt-scroll-horizontal="false" x="10" y="264" width="369" height="14" fill="white" stroke="#555" stroke-width="1" rx="3" ry="3"/><text x="14" y="275" font-family="monospace" font-size="12" fill="#222" data-salt-creole="true" data-salt-icons="person"><tspan x="14"><tspan>[person]</tspan><tspan> Review access rules before inviting guests</tspan></tspan></text><line x1="383" y1="6" x2="383" y2="281" stroke="#ccc" stroke-width="0.5"/><line x1="526" y1="6" x2="526" y2="281" stroke="#ccc" stroke-width="0.5"/></svg>