<svg xmlns="http://www.w3.org/2000/svg" width="868" height="359" viewBox="0 0 868 359"><rect data-salt-style="canvas" width="745" height="359" fill="#f8fafc"/><rect data-salt-style="panel" x="6" y="6" width="733" height="347" fill="white" stroke="#334155" stroke-width="1.5"/><rect data-salt-widget="groupbox" x="8" y="12" width="380" height="12" fill="none" stroke="#334155" stroke-width="1" rx="4" ry="4"/><rect x="14" y="7" width="127" height="12" fill="white"/><text x="18" y="17" font-family="monospace" font-size="11" fill="#0f172a">Application Shell</text><line x1="6" y1="26" x2="739" y2="26" stroke="#ccc" stroke-width="0.5"/><rect data-salt-widget="groupbox" x="8" y="32" width="380" height="12" fill="none" stroke="#334155" stroke-width="1" rx="4" ry="4"/><rect x="14" y="27" width="85" height="12" fill="white"/><text x="18" y="37" font-family="monospace" font-size="11" fill="#0f172a">Credentials</text><line x1="6" y1="46" x2="739" y2="46" stroke="#ccc" stroke-width="0.5"/><rect data-salt-widget="menu" data-salt-open="true" x="7" y="48" width="382" height="20" fill="#ede9fe" stroke="#334155" stroke-width="1"/><text x="14" y="62" font-family="monospace" font-size="12" fill="#0f172a">File</text><text x="66" y="62" font-family="monospace" font-size="12" fill="#0f172a">Edit</text><text x="118" y="62" font-family="monospace" font-size="12" fill="#0f172a">View</text><text x="170" y="62" font-family="monospace" font-size="12" fill="#0f172a">Tools</text><text x="229" y="62" font-family="monospace" font-size="12" fill="#0f172a">Help</text><rect data-salt-widget="menu-dropdown" data-salt-open-index="0" x="14" y="68" width="80" height="64" fill="#ede9fe" stroke="#334155" stroke-width="1"/><text x="20" y="80" font-family="monospace" font-size="11" fill="#0f172a">Edit</text><text x="20" y="96" font-family="monospace" font-size="11" fill="#0f172a">View</text><text x="20" y="112" font-family="monospace" font-size="11" fill="#0f172a">Tools</text><text x="20" y="128" font-family="monospace" font-size="11" fill="#0f172a">Help</text><line x1="6" y1="134" x2="739" y2="134" stroke="#ccc" stroke-width="0.5"/><line data-salt-widget="tab-strip" x1="14" y1="152" x2="382" y2="152" stroke="#334155" stroke-width="2"/><rect data-salt-widget="tab" data-salt-tab-active="false" x="14" y="137" width="73" height="14" rx="4" ry="4" fill="#fef3c7" stroke="#334155" stroke-width="1"/><text x="26" y="148" font-family="monospace" font-size="12" fill="#aaa">General</text><rect data-salt-widget="tab" data-salt-tab-active="true" x="86" y="137" width="80" height="17" rx="4" ry="4" fill="white" stroke="#334155" stroke-width="1"/><line x1="87" y1="152" x2="165" y2="152" stroke="white" stroke-width="3"/><text x="98" y="149" font-family="monospace" font-size="12" font-weight="bold" fill="#0f172a">Security</text><rect data-salt-widget="tab" data-salt-tab-active="false" x="165" y="137" width="59" height="14" rx="4" ry="4" fill="#fef3c7" stroke="#334155" stroke-width="1"/><text x="177" y="148" font-family="monospace" font-size="12" fill="#aaa">Audit</text><line x1="6" y1="154" x2="739" y2="154" stroke="#ccc" stroke-width="0.5"/><g data-salt-widget="sprite" data-salt-sprite="shield"><rect x="10" y="158" width="376" height="12" fill="#bae6fd" stroke="#334155" stroke-dasharray="3 2"/><text x="14" y="168" font-family="monospace" font-size="11" fill="#aaa">sprite:shield</text></g><line x1="6" y1="174" x2="739" y2="174" stroke="#ccc" stroke-width="0.5"/><rect data-salt-widget="header" x="7" y="175" width="382" height="18" fill="#ccfbf1" stroke="#ccc" stroke-width="1"/><text x="14" y="188" font-family="monospace" font-size="12" font-weight="700" fill="#222">Field</text><rect data-salt-widget="header" x="391" y="175" width="155" height="18" fill="#ccfbf1" stroke="#ccc" stroke-width="1"/><text x="398" y="188" font-family="monospace" font-size="12" font-weight="700" fill="#222">Widget</text><rect data-salt-widget="header" x="548" y="175" width="190" height="18" fill="#ccfbf1" stroke="#ccc" stroke-width="1"/><text x="555" y="188" font-family="monospace" font-size="12" font-weight="700" fill="#222">Notes</text><line x1="6" y1="194" x2="739" y2="194" stroke="#ccc" stroke-width="0.5"/><g data-creole-sprites="true"><text x="14.00" y="208" font-family="monospace" font-size="12" fill="#0f172a" data-salt-creole="true" data-salt-icons="person">Owner </text><g class="puml-sprite puml-sprite-svg" data-sprite="person" transform="translate(56.00,203.00) scale(1.000)" fill="#0f172a"><svg xmlns="http://www.w3.org/2000/svg" width="8" height="8" viewBox="0 0 8 8"><path d="M4 0c-1.1 0-2 1.12-2 2.5s.9 2.5 2 2.5 2-1.12 2-2.5-.9-2.5-2-2.5zm-2.09 5c-1.06.05-1.91.92-1.91 2v1h8v-1c0-1.08-.84-1.95-1.91-2-.54.61-1.28 1-2.09 1-.81 0-1.55-.39-2.09-1z"/></svg></g></g><g data-salt-widget="input" fill="#ecfeff"><text x="398" y="208" font-family="monospace" font-size="12" fill="#155e75">Allie</text><line x1="396" y1="210" x2="462" y2="210" stroke="#334155" stroke-width="1"/><line x1="396" y1="207" x2="396" y2="210" stroke="#334155" stroke-width="1"/><line x1="462" y1="207" x2="462" y2="210" stroke="#334155" stroke-width="1"/></g><text x="555" y="208" font-family="monospace" font-size="12" fill="#0f172a" data-salt-creole="true"><tspan x="555"><tspan font-weight="bold">primary</tspan></tspan></text><line x1="6" y1="214" x2="739" y2="214" stroke="#ccc" stroke-width="0.5"/><text x="14" y="247" font-family="monospace" font-size="12" fill="#0f172a">Role</text><g data-salt-widget="table-span" data-salt-colspan="2" data-salt-span-width="349"><rect data-salt-widget="open-combo" x="398" y="216" width="58" height="19" fill="#ecfeff" stroke="#334155" stroke-width="1"/><text x="400" y="230" font-family="monospace" font-size="12" fill="#155e75">Admin</text><line x1="445" y1="216" x2="445" y2="235" stroke="#334155" stroke-width="1"/><polygon points="448,229 454,229 451,221" fill="#334155" stroke="#334155" stroke-width="1"/><rect data-salt-widget="open-combo-list" x="398" y="235" width="58" height="32" fill="#ecfeff" stroke="#334155" stroke-width="1"/><text x="402" y="247" font-family="monospace" font-size="11" fill="#0f172a">Reader</text><text x="402" y="263" font-family="monospace" font-size="11" fill="#0f172a">Writer</text></g><line x1="6" y1="273" x2="739" y2="273" stroke="#ccc" stroke-width="0.5"/><text x="14" y="287" font-family="monospace" font-size="12" fill="#0f172a">Icon</text><g data-salt-widget="sprite-ref" data-salt-sprite-ref="shield"><rect x="398" y="278" width="18" height="18" fill="#bae6fd" stroke="#334155"/><text x="422" y="287" font-family="monospace" font-size="11" fill="#0f172a">shield</text></g><text x="555" y="287" font-family="monospace" font-size="12" fill="#0f172a" data-salt-creole="true"><tspan x="555"><tspan fill="blue">sprite</tspan></tspan></text><line x1="6" y1="293" x2="739" y2="293" stroke="#ccc" stroke-width="0.5"/><text x="14" y="307" font-family="monospace" font-size="12" fill="#0f172a">Action</text><rect data-salt-widget="button" x="398" y="293" width="141" height="20" fill="#fed7aa" stroke="#334155" stroke-width="2.5" rx="5" ry="5"/><g data-creole-sprites="true"><text x="468.00" y="308" text-anchor="middle" font-family="monospace" font-size="12" font-weight="bold" fill="#7c2d12" data-salt-creole="true" data-salt-icons="account-login">Save </text><g class="puml-sprite puml-sprite-svg" data-sprite="account-login" transform="translate(503.00,303.00) scale(1.000)" fill="#7c2d12"><svg xmlns="http://www.w3.org/2000/svg" width="8" height="8" viewBox="0 0 8 8"><path d="M3 0v1h4v5h-4v1h5v-7h-5zm1 2v1h-4v1h4v1l2-1.5-2-1.5z"/></svg></g></g><text x="555" y="307" font-family="monospace" font-size="12" fill="#0f172a">Done</text><line x1="6" y1="313" x2="739" y2="313" stroke="#ccc" stroke-width="0.5"/><rect data-salt-widget="textarea" data-salt-scroll-vertical="true" data-salt-scroll-horizontal="false" x="10" y="316" width="376" height="14" fill="#ecfeff" stroke="#334155" stroke-width="1" rx="3" ry="3"/><rect data-salt-widget="scrollbar" x="372" y="319" width="8" height="8" rx="4" ry="4" fill="#eef2ff" stroke="#334155" stroke-width="1"/><line x1="6" y1="333" x2="739" y2="333" stroke="#ccc" stroke-width="0.5"/><rect data-salt-widget="textarea" data-salt-scroll-vertical="false" data-salt-scroll-horizontal="false" x="10" y="336" width="376" height="14" fill="#ecfeff" stroke="#334155" stroke-width="1" rx="3" ry="3"/><g data-creole-sprites="true"><g class="puml-sprite puml-sprite-svg" data-sprite="person" transform="translate(14.00,342.00) scale(1.000)" fill="#155e75"><svg xmlns="http://www.w3.org/2000/svg" width="8" height="8" viewBox="0 0 8 8"><path d="M4 0c-1.1 0-2 1.12-2 2.5s.9 2.5 2 2.5 2-1.12 2-2.5-.9-2.5-2-2.5zm-2.09 5c-1.06.05-1.91.92-1.91 2v1h8v-1c0-1.08-.84-1.95-1.91-2-.54.61-1.28 1-2.09 1-.81 0-1.55-.39-2.09-1z"/></svg></g><text x="25.00" y="347" font-family="monospace" font-size="12" fill="#155e75" data-salt-creole="true" data-salt-icons="person"> Review scoped access before inviting guests</text></g><line x1="390" y1="6" x2="390" y2="353" stroke="#ccc" stroke-width="0.5"/><line x1="547" y1="6" x2="547" y2="353" stroke="#ccc" stroke-width="0.5"/></svg>