<svg xmlns="http://www.w3.org/2000/svg" width="252" height="92" viewBox="0 0 252 92"><rect data-salt-style="canvas" width="252" height="92" fill="white"/><rect data-salt-style="panel" x="6" y="6" width="240" height="80" fill="white" stroke="#555" stroke-width="1.5"/><rect data-salt-widget="header" x="7" y="7" width="78" height="18" fill="#e2e8f0" stroke="#ccc" stroke-width="1"/><text x="14" y="20" font-family="monospace" font-size="12" font-weight="700" fill="#222">Name</text><rect data-salt-widget="header" x="87" y="7" width="78" height="18" fill="#e2e8f0" stroke="#ccc" stroke-width="1"/><text x="94" y="20" font-family="monospace" font-size="12" font-weight="700" fill="#222">Value</text><rect data-salt-widget="header" x="167" y="7" width="78" height="18" fill="#e2e8f0" stroke="#ccc" stroke-width="1"/><text x="174" y="20" font-family="monospace" font-size="12" font-weight="700" fill="#222">Notes</text><line x1="6" y1="26" x2="246" y2="26" stroke="#ccc" stroke-width="0.5"/><text x="14" y="40" font-family="monospace" font-size="12" fill="#222">Alpha</text><g data-salt-widget="table-span" data-salt-colspan="2" data-salt-span-width="160"><text x="94" y="40" font-family="monospace" font-size="12" fill="#222">42</text></g><line x1="6" y1="46" x2="246" y2="46" stroke="#ccc" stroke-width="0.5"/><text x="14" y="60" font-family="monospace" font-size="12" fill="#222">Beta</text><g data-salt-widget="table-span" data-salt-colspan="2" data-salt-span-width="160"><text x="94" y="60" font-family="monospace" font-size="12" fill="#222">17</text></g><line x1="6" y1="66" x2="246" y2="66" stroke="#ccc" stroke-width="0.5"/><g data-salt-widget="sprite-ref" data-salt-sprite-ref="missing"><rect x="14" y="71" width="18" height="18" fill="#eef2ff" stroke="#555"/><text x="38" y="80" font-family="monospace" font-size="11" fill="#222">missing</text></g><text x="94" y="80" font-family="monospace" font-size="12" fill="#222">n/a</text><text x="174" y="80" font-family="monospace" font-size="12" fill="#222">no icon</text><line x1="86" y1="6" x2="86" y2="86" stroke="#ccc" stroke-width="0.5"/><line x1="166" y1="6" x2="166" y2="86" stroke="#ccc" stroke-width="0.5"/></svg>