<svg xmlns="http://www.w3.org/2000/svg" width="378" height="206" viewBox="0 0 378 206"><rect data-salt-style="canvas" width="250" height="206" fill="white"/><text x="125" y="22" font-family="monospace" font-size="13" font-weight="600" fill="#222" text-anchor="middle">Password Field and Slider Widgets</text><text x="14" y="42" font-family="monospace" font-size="12" fill="#222">Login Form</text><text x="14" y="62" font-family="monospace" font-size="12" fill="#222">Username</text><g data-salt-widget="input" fill="white"><text x="104" y="62" font-family="monospace" font-size="12" fill="#222">alice@example.com</text><line x1="102" y1="64" x2="236" y2="64" stroke="#555" stroke-width="1"/><line x1="102" y1="61" x2="102" y2="64" stroke="#555" stroke-width="1"/><line x1="236" y1="61" x2="236" y2="64" stroke="#555" stroke-width="1"/></g><text x="14" y="82" font-family="monospace" font-size="12" fill="#222">Password</text><g data-salt-widget="input" fill="white"><text x="104" y="82" font-family="monospace" font-size="12" fill="#222" data-salt-creole="true"><tspan x="104"><tspan></tspan></tspan></text><line x1="102" y1="84" x2="161" y2="84" stroke="#555" stroke-width="1"/><line x1="102" y1="81" x2="102" y2="84" stroke="#555" stroke-width="1"/><line x1="161" y1="81" x2="161" y2="84" stroke="#555" stroke-width="1"/></g><text x="14" y="102" font-family="monospace" font-size="12" fill="#222">Remember</text><rect data-salt-widget="checkbox" x="104" y="93" width="10" height="10" fill="white" stroke="#555" stroke-width="1.5"/><polygon points="105,97 108,100 115,91 108,98" fill="#222" stroke="#222" stroke-width="1.5"/><text x="122" y="102" font-family="monospace" font-size="12" fill="#222">Remember me</text><text x="14" y="130" font-family="monospace" font-size="12" fill="#222">Volume</text><rect data-salt-widget="slider" data-salt-min="0" data-salt-max="100" data-salt-value="60" x="106" y="124" width="128" height="4" rx="2" ry="2" fill="#eef2ff" stroke="#555" stroke-width="1"/><rect x="106" y="124" width="77" height="4" rx="2" ry="2" fill="#eef2ff"/><circle cx="183" cy="126" r="6" fill="white" stroke="#555" stroke-width="1.5"/><text x="106" y="143" font-family="monospace" font-size="9" fill="#aaa">0</text><text x="234" y="143" font-family="monospace" font-size="9" fill="#aaa" text-anchor="end">100</text><text x="14" y="166" font-family="monospace" font-size="12" fill="#222">Brightness</text><rect data-salt-widget="slider" data-salt-min="10" data-salt-max="100" data-salt-value="75" x="106" y="160" width="128" height="4" rx="2" ry="2" fill="#eef2ff" stroke="#555" stroke-width="1"/><rect x="106" y="160" width="92" height="4" rx="2" ry="2" fill="#eef2ff"/><circle cx="198" cy="162" r="6" fill="white" stroke="#555" stroke-width="1.5"/><text x="106" y="179" font-family="monospace" font-size="9" fill="#aaa">10</text><text x="234" y="179" font-family="monospace" font-size="9" fill="#aaa" text-anchor="end">100</text><rect data-salt-widget="button" x="14" y="180" width="51" height="20" fill="#e8e8e8" stroke="#555" stroke-width="2.5" rx="5" ry="5"/><text x="39" y="195" text-anchor="middle" font-family="monospace" font-size="12" font-weight="bold" fill="#222">Login</text><rect data-salt-widget="button" x="104" y="180" width="58" height="20" fill="#e8e8e8" stroke="#555" stroke-width="2.5" rx="5" ry="5"/><text x="133" y="195" text-anchor="middle" font-family="monospace" font-size="12" font-weight="bold" fill="#222">Cancel</text></svg>