<svg xmlns="http://www.w3.org/2000/svg" width="521" height="345" viewBox="0 0 521 345"><rect data-salt-style="canvas" width="480" height="345" fill="white"/><text x="240" y="22" font-family="monospace" font-size="13" font-weight="600" fill="#222" text-anchor="middle">Advanced Salt Widgets (#1503)</text><line data-salt-widget="tab-strip" x1="14" y1="46" x2="231" y2="46" stroke="#555" stroke-width="2"/><rect data-salt-widget="tab" data-salt-tab-active="false" x="14" y="31" width="80" height="14" rx="4" ry="4" fill="#eef2ff" stroke="#555" stroke-width="1"/><text x="26" y="42" font-family="monospace" font-size="12" fill="#aaa">Settings</text><rect data-salt-widget="tab" data-salt-tab-active="true" x="93" y="31" width="73" height="17" rx="4" ry="4" fill="white" stroke="#555" stroke-width="1"/><line x1="94" y1="46" x2="165" y2="46" stroke="white" stroke-width="3"/><text x="105" y="43" font-family="monospace" font-size="12" font-weight="bold" fill="#222">Profile</text><rect data-salt-widget="tab" data-salt-tab-active="false" x="165" y="31" width="80" height="14" rx="4" ry="4" fill="#eef2ff" stroke="#555" stroke-width="1"/><text x="177" y="42" font-family="monospace" font-size="12" fill="#aaa">Security</text><text x="14" y="62" font-family="monospace" font-size="12" fill="#222">Display Name</text><g data-salt-widget="input" fill="white"><text x="247" y="62" font-family="monospace" font-size="12" fill="#222">Jane Smith</text><line x1="245" y1="64" x2="346" y2="64" stroke="#555" stroke-width="1"/><line x1="245" y1="61" x2="245" y2="64" stroke="#555" stroke-width="1"/><line x1="346" y1="61" x2="346" y2="64" stroke="#555" stroke-width="1"/></g><text x="14" y="82" font-family="monospace" font-size="12" fill="#222">Password</text><g data-salt-widget="input" fill="white"><text x="247" y="82" font-family="monospace" font-size="12" fill="#222">*current password*</text><line x1="245" y1="84" x2="386" y2="84" stroke="#555" stroke-width="1"/><line x1="245" y1="81" x2="245" y2="84" stroke="#555" stroke-width="1"/><line x1="386" y1="81" x2="386" y2="84" stroke="#555" stroke-width="1"/></g><text x="14" y="102" font-family="monospace" font-size="12" fill="#222">New Password</text><g data-salt-widget="input" fill="white"><text x="247" y="102" font-family="monospace" font-size="12" fill="#222" data-salt-creole="true"><tspan x="247"><tspan></tspan></tspan></text><line x1="245" y1="104" x2="304" y2="104" stroke="#555" stroke-width="1"/><line x1="245" y1="101" x2="245" y2="104" stroke="#555" stroke-width="1"/><line x1="304" y1="101" x2="304" y2="104" stroke="#555" stroke-width="1"/></g><text x="14" y="141" font-family="monospace" font-size="12" fill="#222">Theme</text><rect data-salt-widget="open-combo" x="247" y="110" width="51" height="19" fill="white" stroke="#555" stroke-width="1"/><text x="249" y="124" font-family="monospace" font-size="12" fill="#222">Dark</text><line x1="287" y1="110" x2="287" y2="129" stroke="#555" stroke-width="1"/><polygon points="290,115 296,115 293,123" fill="#555" stroke="#555" stroke-width="1"/><rect data-salt-widget="open-combo-list" x="247" y="129" width="51" height="32" fill="white" stroke="#555" stroke-width="1"/><text x="251" y="141" font-family="monospace" font-size="11" fill="#222">Light</text><text x="251" y="157" font-family="monospace" font-size="11" fill="#222">System</text><text x="14" y="189" font-family="monospace" font-size="12" fill="#222">Font Size</text><rect data-salt-widget="slider" data-salt-min="8" data-salt-max="24" data-salt-value="14" x="249" y="183" width="135" height="4" rx="2" ry="2" fill="#eef2ff" stroke="#555" stroke-width="1"/><rect x="249" y="183" width="51" height="4" rx="2" ry="2" fill="#eef2ff"/><circle cx="300" cy="185" r="6" fill="white" stroke="#555" stroke-width="1.5"/><text x="249" y="202" font-family="monospace" font-size="9" fill="#aaa">8</text><text x="384" y="202" font-family="monospace" font-size="9" fill="#aaa" text-anchor="end">24</text><text x="14" y="225" font-family="monospace" font-size="12" fill="#222">Opacity</text><rect data-salt-widget="slider" data-salt-min="0" data-salt-max="100" data-salt-value="85" x="249" y="219" width="135" height="4" rx="2" ry="2" fill="#eef2ff" stroke="#555" stroke-width="1"/><rect x="249" y="219" width="115" height="4" rx="2" ry="2" fill="#eef2ff"/><circle cx="364" cy="221" r="6" fill="white" stroke="#555" stroke-width="1.5"/><text x="249" y="238" font-family="monospace" font-size="9" fill="#aaa">0</text><text x="384" y="238" font-family="monospace" font-size="9" fill="#aaa" text-anchor="end">100</text><text x="14" y="253" font-family="monospace" font-size="12" fill="#222">Notifications</text><text x="14" y="273" font-family="monospace" font-size="12" fill="#222">[X] Email alerts</text><text x="14" y="293" font-family="monospace" font-size="12" fill="#222">[X] Push notifications</text><text x="14" y="313" font-family="monospace" font-size="12" fill="#222">[ ] SMS messages</text><rect data-salt-widget="button" x="14" y="319" width="100" height="20" fill="#e8e8e8" stroke="#555" stroke-width="2.5" rx="5" ry="5"/><text x="64" y="334" text-anchor="middle" font-family="monospace" font-size="12" font-weight="bold" fill="#222">Save Changes</text><rect data-salt-widget="button" x="247" y="319" width="51" height="20" fill="#e8e8e8" stroke="#555" stroke-width="2.5" rx="5" ry="5"/><text x="272" y="334" text-anchor="middle" font-family="monospace" font-size="12" font-weight="bold" fill="#222">Reset</text><rect data-salt-widget="button" x="402" y="319" width="58" height="20" fill="#e8e8e8" stroke="#555" stroke-width="2.5" rx="5" ry="5"/><text x="431" y="334" text-anchor="middle" font-family="monospace" font-size="12" font-weight="bold" fill="#222">Cancel</text></svg>