<svg xmlns="http://www.w3.org/2000/svg" width="232" height="200" viewBox="0 0 232 200"><rect width="100%" height="100%" fill="white"/><rect x="16" y="16" width="80" height="32" rx="4" ry="4" fill="#f6f6f6" stroke="#111" stroke-width="1"/><text x="56" y="37" text-anchor="middle" font-family="monospace" font-size="13" fill="#111111">Alice</text><rect x="116" y="16" width="80" height="32" rx="4" ry="4" fill="#f6f6f6" stroke="#111" stroke-width="1"/><text x="156" y="37" text-anchor="middle" font-family="monospace" font-size="13" fill="#111111">Bob</text><line x1="56" y1="48" x2="56" y2="152" stroke="#555" stroke-width="1" stroke-dasharray="6 4"/><line x1="156" y1="48" x2="156" y2="152" stroke="#555" stroke-width="1" stroke-dasharray="6 4"/><line x1="56" y1="96" x2="156" y2="96" stroke="#ff5500" stroke-width="1.5"/><polygon points="156,96 148,91 148,101" fill="#ff5500" stroke="#ff5500" stroke-width="1"/><text x="64" y="72" text-anchor="start" font-family="monospace" font-size="12" fill="#ff5500">colored</text><text x="64" y="88" text-anchor="start" font-family="monospace" font-size="12" fill="#ff5500">arrows</text><line x1="156" y1="136" x2="56" y2="136" stroke="#ff5500" stroke-width="1.5" stroke-dasharray="6 4"/><polygon points="56,136 64,131 64,141" fill="#ff5500" stroke="#ff5500" stroke-width="1"/><text x="64" y="128" text-anchor="start" font-family="monospace" font-size="12" fill="#ff5500">reply</text><rect x="16" y="152" width="80" height="32" rx="4" ry="4" fill="#f6f6f6" stroke="#111" stroke-width="1"/><text x="56" y="173" text-anchor="middle" font-family="monospace" font-size="13" fill="#111111">Alice</text><rect x="116" y="152" width="80" height="32" rx="4" ry="4" fill="#f6f6f6" stroke="#111" stroke-width="1"/><text x="156" y="173" text-anchor="middle" font-family="monospace" font-size="13" fill="#111111">Bob</text></svg>