<svg xmlns="http://www.w3.org/2000/svg" width="328" height="400" viewBox="0 0 328 400"><rect width="100%" height="100%" fill="white"/><rect x="24" y="24" width="120" height="32" rx="4" ry="4" fill="#f6f6f6" stroke="#111" stroke-width="1"/><text x="84" y="45" text-anchor="middle" font-family="monospace" font-size="13" fill="#111111">Alice</text><rect x="184" y="24" width="120" height="32" rx="4" ry="4" fill="#f6f6f6" stroke="#111" stroke-width="1"/><text x="244" y="45" text-anchor="middle" font-family="monospace" font-size="13" fill="#111111">Bob</text><line x1="84" y1="56" x2="84" y2="344" stroke="#555" stroke-width="1" stroke-dasharray="6 4"/><line x1="244" y1="56" x2="244" y2="344" stroke="#555" stroke-width="1" stroke-dasharray="6 4"/><rect x="24" y="120" width="280" height="200" rx="2" ry="2" fill="#e8f5e9" stroke="#4caf50" stroke-width="1"/><polygon points="24,120 117,120 117,134 111,140 24,140" fill="#e8f5e9" stroke="#4caf50" stroke-width="1"/><text x="32" y="134" font-family="monospace" font-size="12" font-weight="600" fill="#111">alt success</text><line x1="24" y1="200" x2="304" y2="200" stroke="#4caf50" stroke-width="1" stroke-dasharray="5 4"/><text x="32" y="186" font-family="monospace" font-size="11" fill="#333">else fail</text><line x1="84" y1="80" x2="244" y2="80" stroke="#111" stroke-width="1.5"/><polygon points="244,80 236,75 236,85" fill="#111" stroke="#111" stroke-width="1"/><text x="92" y="72" text-anchor="start" font-family="monospace" font-size="12" fill="#111">start</text><line x1="244" y1="160" x2="84" y2="160" stroke="#111" stroke-width="1.5" stroke-dasharray="6 4"/><polygon points="84,160 92,155 92,165" fill="#111" stroke="#111" stroke-width="1"/><text x="92" y="152" text-anchor="start" font-family="monospace" font-size="12" fill="#111">ok</text><line x1="244" y1="240" x2="84" y2="240" stroke="#111" stroke-width="1.5" stroke-dasharray="6 4"/><polygon points="84,240 92,235 92,245" fill="#111" stroke="#111" stroke-width="1"/><text x="92" y="232" text-anchor="start" font-family="monospace" font-size="12" fill="#111">error</text><rect x="24" y="344" width="120" height="32" rx="4" ry="4" fill="#f6f6f6" stroke="#111" stroke-width="1"/><text x="84" y="365" text-anchor="middle" font-family="monospace" font-size="13" fill="#111111">Alice</text><rect x="184" y="344" width="120" height="32" rx="4" ry="4" fill="#f6f6f6" stroke="#111" stroke-width="1"/><text x="244" y="365" text-anchor="middle" font-family="monospace" font-size="13" fill="#111111">Bob</text></svg>