<svg xmlns="http://www.w3.org/2000/svg" width="232" height="312" viewBox="0 0 232 312"><rect width="100%" height="100%" fill="white"/><rect x="16" y="16" width="80" height="32" rx="4" ry="4" fill="#f6f6f6" stroke="#111" stroke-width="1"/><text x="56" y="37" text-anchor="middle" font-family="monospace" font-size="13" fill="#111111">Alice</text><rect x="116" y="16" width="80" height="32" rx="4" ry="4" fill="#f6f6f6" stroke="#111" stroke-width="1"/><text x="156" y="37" text-anchor="middle" font-family="monospace" font-size="13" fill="#111111">Bob</text><line x1="56" y1="48" x2="56" y2="264" stroke="#555" stroke-width="1" stroke-dasharray="6 4"/><line x1="156" y1="48" x2="156" y2="264" stroke="#555" stroke-width="1" stroke-dasharray="6 4"/><rect x="16" y="100" width="180" height="140" rx="2" ry="2" fill="#e8f5e9" stroke="#4caf50" stroke-width="1"/><polygon points="16,100 109,100 109,114 103,120 16,120" fill="#e8f5e9" stroke="#4caf50" stroke-width="1"/><text x="24" y="114" font-family="monospace" font-size="12" font-weight="600" fill="#111">alt success</text><line x1="16" y1="156" x2="196" y2="156" stroke="#4caf50" stroke-width="1" stroke-dasharray="5 4"/><text x="24" y="142" font-family="monospace" font-size="11" fill="#333">else fail</text><line x1="56" y1="80" x2="156" y2="80" stroke="#111" stroke-width="1.5"/><polygon points="156,80 148,75 148,85" fill="#111" stroke="#111" stroke-width="1"/><text x="64" y="72" text-anchor="start" font-family="monospace" font-size="12" fill="#111">start</text><line x1="156" y1="136" x2="56" y2="136" stroke="#111" stroke-width="1.5" stroke-dasharray="6 4"/><polygon points="56,136 64,131 64,141" fill="#111" stroke="#111" stroke-width="1"/><text x="64" y="128" text-anchor="start" font-family="monospace" font-size="12" fill="#111">ok</text><line x1="156" y1="192" x2="56" y2="192" stroke="#111" stroke-width="1.5" stroke-dasharray="6 4"/><polygon points="56,192 64,187 64,197" fill="#111" stroke="#111" stroke-width="1"/><text x="64" y="184" text-anchor="start" font-family="monospace" font-size="12" fill="#111">error</text><rect x="16" y="264" width="80" height="32" rx="4" ry="4" fill="#f6f6f6" stroke="#111" stroke-width="1"/><text x="56" y="285" text-anchor="middle" font-family="monospace" font-size="13" fill="#111111">Alice</text><rect x="116" y="264" width="80" height="32" rx="4" ry="4" fill="#f6f6f6" stroke="#111" stroke-width="1"/><text x="156" y="285" text-anchor="middle" font-family="monospace" font-size="13" fill="#111111">Bob</text></svg>