<svg xmlns="http://www.w3.org/2000/svg" width="232" height="368" viewBox="0 0 232 368"><rect width="100%" height="100%" fill="white"/><rect x="16" y="16" width="80" height="32" rx="4" ry="4" fill="#f6f6f6" stroke="#111" stroke-width="1"/><text x="56" y="37" text-anchor="middle" font-family="monospace" font-size="13" fill="#111111">Alice</text><rect x="116" y="16" width="80" height="32" rx="4" ry="4" fill="#f6f6f6" stroke="#111" stroke-width="1"/><text x="156" y="37" text-anchor="middle" font-family="monospace" font-size="13" fill="#111111">Bob</text><line x1="56" y1="48" x2="56" y2="320" stroke="#555" stroke-width="1" stroke-dasharray="6 4"/><line x1="156" y1="48" x2="156" y2="320" stroke="#555" stroke-width="1" stroke-dasharray="6 4"/><line x1="56" y1="192" x2="156" y2="192" stroke="#111" stroke-width="1.5"/><polygon points="156,192 148,187 148,197" fill="#111" stroke="#111" stroke-width="1"/><text x="64" y="72" text-anchor="start" font-family="monospace" font-size="12" fill="#111">This is a</text><text x="64" y="88" text-anchor="start" font-family="monospace" font-size="12" fill="#111">very long</text><text x="64" y="104" text-anchor="start" font-family="monospace" font-size="12" fill="#111">message that</text><text x="64" y="120" text-anchor="start" font-family="monospace" font-size="12" fill="#111">demonstrates</text><text x="64" y="136" text-anchor="start" font-family="monospace" font-size="12" fill="#111">the maximum</text><text x="64" y="152" text-anchor="start" font-family="monospace" font-size="12" fill="#111">message size</text><text x="64" y="168" text-anchor="start" font-family="monospace" font-size="12" fill="#111">skinparam in</text><text x="64" y="184" text-anchor="start" font-family="monospace" font-size="12" fill="#111">action</text><line x1="156" y1="304" x2="56" y2="304" stroke="#111" stroke-width="1.5" stroke-dasharray="6 4"/><polygon points="56,304 64,299 64,309" fill="#111" stroke="#111" stroke-width="1"/><text x="64" y="296" text-anchor="start" font-family="monospace" font-size="12" fill="#111">Short reply</text><rect x="16" y="320" width="80" height="32" rx="4" ry="4" fill="#f6f6f6" stroke="#111" stroke-width="1"/><text x="56" y="341" text-anchor="middle" font-family="monospace" font-size="13" fill="#111111">Alice</text><rect x="116" y="320" width="80" height="32" rx="4" ry="4" fill="#f6f6f6" stroke="#111" stroke-width="1"/><text x="156" y="341" text-anchor="middle" font-family="monospace" font-size="13" fill="#111111">Bob</text></svg>