<svg xmlns="http://www.w3.org/2000/svg" width="328" height="360" viewBox="0 0 328 360"><rect width="100%" height="100%" fill="white"/><rect x="24" y="24" width="120" height="32" rx="4" ry="4" fill="#f6f6f6" stroke="#111" stroke-width="1"/><text x="84" y="45" text-anchor="middle" font-family="monospace" font-size="13" fill="#111111">Alice</text><rect x="184" y="24" width="120" height="32" rx="4" ry="4" fill="#f6f6f6" stroke="#111" stroke-width="1"/><text x="244" y="45" text-anchor="middle" font-family="monospace" font-size="13" fill="#111111">Bob</text><line x1="84" y1="56" x2="84" y2="304" stroke="#555" stroke-width="1" stroke-dasharray="6 4"/><line x1="244" y1="56" x2="244" y2="304" stroke="#555" stroke-width="1" stroke-dasharray="6 4"/><line x1="84" y1="152" x2="244" y2="152" stroke="#111" stroke-width="1.5"/><polygon points="244,152 236,147 236,157" fill="#111" stroke="#111" stroke-width="1"/><text x="92" y="80" text-anchor="start" font-family="monospace" font-size="12" fill="#111">This is a very long</text><text x="92" y="96" text-anchor="start" font-family="monospace" font-size="12" fill="#111">message that</text><text x="92" y="112" text-anchor="start" font-family="monospace" font-size="12" fill="#111">demonstrates the</text><text x="92" y="128" text-anchor="start" font-family="monospace" font-size="12" fill="#111">maximum message size</text><text x="92" y="144" text-anchor="start" font-family="monospace" font-size="12" fill="#111">skinparam in action</text><line x1="244" y1="288" x2="84" y2="288" stroke="#111" stroke-width="1.5" stroke-dasharray="6 4"/><polygon points="84,288 92,283 92,293" fill="#111" stroke="#111" stroke-width="1"/><text x="92" y="280" text-anchor="start" font-family="monospace" font-size="12" fill="#111">Short reply</text><rect x="24" y="304" width="120" height="32" rx="4" ry="4" fill="#f6f6f6" stroke="#111" stroke-width="1"/><text x="84" y="325" text-anchor="middle" font-family="monospace" font-size="13" fill="#111111">Alice</text><rect x="184" y="304" width="120" height="32" rx="4" ry="4" fill="#f6f6f6" stroke="#111" stroke-width="1"/><text x="244" y="325" text-anchor="middle" font-family="monospace" font-size="13" fill="#111111">Bob</text></svg>