<svg xmlns="http://www.w3.org/2000/svg" width="364" height="256" viewBox="0 0 364 256"><rect width="100%" height="100%" fill="white"/><text x="16" y="16" font-family="monospace" font-size="18" font-weight="600" fill="#e91e63">Combined Skinparams</text><rect x="16" y="44" width="80" height="32" rx="4" ry="4" fill="#fce4ec" stroke="#e91e63" stroke-width="1"/><text x="56" y="65" text-anchor="middle" font-family="monospace" font-size="13" fill="#111111">Alice</text><rect x="116" y="44" width="80" height="32" rx="4" ry="4" fill="#fce4ec" stroke="#e91e63" stroke-width="1"/><text x="156" y="65" text-anchor="middle" font-family="monospace" font-size="13" fill="#111111">Bob</text><line x1="56" y1="76" x2="56" y2="208" stroke="#555" stroke-width="1" stroke-dasharray="6 4"/><line x1="156" y1="76" x2="156" y2="208" stroke="#555" stroke-width="1" stroke-dasharray="6 4"/><line x1="56" y1="124" x2="156" y2="124" stroke="#e91e63" stroke-width="1.5"/><polygon points="156,124 148,119 148,129" fill="#e91e63" stroke="#e91e63" stroke-width="1"/><text x="64" y="100" text-anchor="start" font-family="monospace" font-size="12" fill="#e91e63">styled</text><text x="64" y="116" text-anchor="start" font-family="monospace" font-size="12" fill="#e91e63">message</text><line x1="156" y1="192" x2="56" y2="192" stroke="#e91e63" stroke-width="1.5" stroke-dasharray="6 4"/><polygon points="56,192 64,187 64,197" fill="#e91e63" stroke="#e91e63" stroke-width="1"/><text x="64" y="184" text-anchor="start" font-family="monospace" font-size="12" fill="#e91e63">reply</text><path d="M208,156 H339 L348 165 V184 H208 Z" fill="#fce4ec" stroke="#c2185b" stroke-width="1"/><path d="M339 156 V165 H348" fill="none" stroke="#c2185b" stroke-width="1"/><text x="216" y="176" font-family="monospace" font-size="12" fill="#e91e63">styled note</text><rect x="16" y="208" width="80" height="32" rx="4" ry="4" fill="#fce4ec" stroke="#e91e63" stroke-width="1"/><text x="56" y="229" text-anchor="middle" font-family="monospace" font-size="13" fill="#111111">Alice</text><rect x="116" y="208" width="80" height="32" rx="4" ry="4" fill="#fce4ec" stroke="#e91e63" stroke-width="1"/><text x="156" y="229" text-anchor="middle" font-family="monospace" font-size="13" fill="#111111">Bob</text></svg>