<svg xmlns="http://www.w3.org/2000/svg" width="520" height="268" viewBox="0 0 520 268"><rect width="100%" height="100%" fill="white"/><text x="24" y="24" font-family="monospace" font-size="18" font-weight="600" fill="#e91e63">Combined Skinparams</text><rect x="24" y="52" width="120" height="32" rx="4" ry="4" fill="#fce4ec" stroke="#e91e63" stroke-width="1"/><text x="84" y="73" text-anchor="middle" font-family="monospace" font-size="13" fill="#111111">Alice</text><rect x="184" y="52" width="120" height="32" rx="4" ry="4" fill="#fce4ec" stroke="#e91e63" stroke-width="1"/><text x="244" y="73" text-anchor="middle" font-family="monospace" font-size="13" fill="#111111">Bob</text><line x1="84" y1="84" x2="84" y2="212" stroke="#555" stroke-width="1" stroke-dasharray="6 4"/><line x1="244" y1="84" x2="244" y2="212" stroke="#555" stroke-width="1" stroke-dasharray="6 4"/><line x1="84" y1="116" x2="244" y2="116" stroke="#e91e63" stroke-width="1.5"/><polygon points="244,116 236,111 236,121" fill="#e91e63" stroke="#e91e63" stroke-width="1"/><text x="92" y="108" text-anchor="start" font-family="monospace" font-size="12" fill="#e91e63">styled message</text><line x1="244" y1="196" x2="84" y2="196" stroke="#e91e63" stroke-width="1.5" stroke-dasharray="6 4"/><polygon points="84,196 92,191 92,201" fill="#e91e63" stroke="#e91e63" stroke-width="1"/><text x="92" y="188" text-anchor="start" font-family="monospace" font-size="12" fill="#e91e63">reply</text><path d="M316,148 H486 L496 158 V180 H316 Z" fill="#fce4ec" stroke="#c2185b" stroke-width="1"/><path d="M486 148 V158 H496" fill="none" stroke="#c2185b" stroke-width="1"/><text x="324" y="168" font-family="monospace" font-size="12" fill="#e91e63">styled note</text><rect x="24" y="212" width="120" height="32" rx="4" ry="4" fill="#fce4ec" stroke="#e91e63" stroke-width="1"/><text x="84" y="233" text-anchor="middle" font-family="monospace" font-size="13" fill="#111111">Alice</text><rect x="184" y="212" width="120" height="32" rx="4" ry="4" fill="#fce4ec" stroke="#e91e63" stroke-width="1"/><text x="244" y="233" text-anchor="middle" font-family="monospace" font-size="13" fill="#111111">Bob</text></svg>