<svg xmlns="http://www.w3.org/2000/svg" width="520" height="268" viewBox="0 0 520 268"><rect width="100%" height="100%" fill="white"/><text x="24" y="24" font-family="monospace" font-size="18" font-weight="600">Combined Skinparams</text><rect x="24" y="52" width="120" height="32" rx="4" ry="4" fill="#fce4ec" stroke="#e91e63" stroke-width="1"/><text x="84" y="73" text-anchor="middle" font-family="monospace" font-size="13">Alice</text><rect x="184" y="52" width="120" height="32" rx="4" ry="4" fill="#fce4ec" stroke="#e91e63" stroke-width="1"/><text x="244" y="73" text-anchor="middle" font-family="monospace" font-size="13">Bob</text><line x1="84" y1="84" x2="84" y2="212" stroke="#555" stroke-width="1" stroke-dasharray="6 4"/><line x1="244" y1="84" x2="244" y2="212" stroke="#555" stroke-width="1" stroke-dasharray="6 4"/><line x1="84" y1="108" x2="244" y2="108" stroke="#e91e63" stroke-width="1.5"/><polygon points="244,108 238,104 238,112" fill="#e91e63"/><text x="166" y="100" text-anchor="middle" font-family="monospace" font-size="12">styled message</text><line x1="244" y1="188" x2="84" y2="188" stroke="#e91e63" stroke-width="1.5" stroke-dasharray="6 4"/><polygon points="84,188 90,184 90,192" fill="#e91e63"/><text x="166" y="180" text-anchor="middle" font-family="monospace" font-size="12">reply</text><rect x="316" y="148" width="180" height="32" rx="3" ry="3" fill="#fce4ec" stroke="#c2185b" stroke-width="1"/><text x="324" y="168" font-family="monospace" font-size="12">styled note</text><rect x="24" y="212" width="120" height="32" rx="4" ry="4" fill="#fce4ec" stroke="#e91e63" stroke-width="1"/><text x="84" y="233" text-anchor="middle" font-family="monospace" font-size="13">Alice</text><rect x="184" y="212" width="120" height="32" rx="4" ry="4" fill="#fce4ec" stroke="#e91e63" stroke-width="1"/><text x="244" y="233" text-anchor="middle" font-family="monospace" font-size="13">Bob</text></svg>