<svg xmlns="http://www.w3.org/2000/svg" width="232" height="228" viewBox="0 0 232 228"><rect width="100%" height="100%" fill="#f0f8ff"/><text x="16" y="16" font-family="monospace" font-size="18" font-weight="600" fill="#336699">Background Color</text><rect x="16" y="44" width="80" height="32" rx="4" ry="4" fill="#ffffff" stroke="#111" stroke-width="1"/><text x="56" y="65" text-anchor="middle" font-family="monospace" font-size="13" fill="#111111">Alice</text><rect x="116" y="44" width="80" height="32" rx="4" ry="4" fill="#ffffff" stroke="#111" stroke-width="1"/><text x="156" y="65" text-anchor="middle" font-family="monospace" font-size="13" fill="#111111">Bob</text><line x1="56" y1="76" x2="56" y2="180" stroke="#555" stroke-width="1" stroke-dasharray="6 4"/><line x1="156" y1="76" x2="156" y2="180" stroke="#555" stroke-width="1" stroke-dasharray="6 4"/><line x1="56" y1="124" x2="156" y2="124" stroke="#336699" stroke-width="1.5"/><polygon points="156,124 148,119 148,129" fill="#336699" stroke="#336699" stroke-width="1"/><text x="64" y="100" text-anchor="start" font-family="monospace" font-size="12" fill="#336699">on aliceblue</text><text x="64" y="116" text-anchor="start" font-family="monospace" font-size="12" fill="#336699">bg</text><line x1="156" y1="164" x2="56" y2="164" stroke="#336699" stroke-width="1.5" stroke-dasharray="6 4"/><polygon points="56,164 64,159 64,169" fill="#336699" stroke="#336699" stroke-width="1"/><text x="64" y="156" text-anchor="start" font-family="monospace" font-size="12" fill="#336699">response</text><rect x="16" y="180" width="80" height="32" rx="4" ry="4" fill="#ffffff" stroke="#111" stroke-width="1"/><text x="56" y="201" text-anchor="middle" font-family="monospace" font-size="13" fill="#111111">Alice</text><rect x="116" y="180" width="80" height="32" rx="4" ry="4" fill="#ffffff" stroke="#111" stroke-width="1"/><text x="156" y="201" text-anchor="middle" font-family="monospace" font-size="13" fill="#111111">Bob</text></svg>