<svg xmlns="http://www.w3.org/2000/svg" width="368" height="348" viewBox="0 0 368 348"><rect width="100%" height="100%" fill="white"/><text x="24" y="24" font-family="monospace" font-size="18" font-weight="600">Round Corners = 15</text><rect x="24" y="52" width="120" height="32" rx="15" ry="15" fill="#e8f4f8" stroke="#111" stroke-width="1"/><text x="84" y="73" text-anchor="middle" font-family="monospace" font-size="13">Alice</text><rect x="184" y="52" width="120" height="32" rx="15" ry="15" fill="#e8f4f8" stroke="#111" stroke-width="1"/><text x="244" y="73" text-anchor="middle" font-family="monospace" font-size="13">Bob</text><line x1="84" y1="84" x2="84" y2="292" stroke="#555" stroke-width="1" stroke-dasharray="6 4"/><line x1="244" y1="84" x2="244" y2="292" stroke="#555" stroke-width="1" stroke-dasharray="6 4"/><rect x="24" y="148" width="320" height="120" rx="7" ry="7" fill="#fafafa" stroke="#666" stroke-width="1"/><text x="32" y="164" font-family="monospace" font-size="12" font-weight="600">alt success</text><line x1="84" y1="108" x2="244" y2="108" stroke="#111" stroke-width="1.5"/><polygon points="244,108 236,103 236,113" fill="#111" stroke="#111" stroke-width="1"/><text x="92" y="100" text-anchor="start" font-family="monospace" font-size="12">request</text><line x1="244" y1="188" x2="84" y2="188" stroke="#111" stroke-width="1.5" stroke-dasharray="6 4"/><polygon points="84,188 92,183 92,193" fill="#111" stroke="#111" stroke-width="1"/><text x="92" y="180" text-anchor="start" font-family="monospace" font-size="12">ok</text><rect x="24" y="292" width="120" height="32" rx="15" ry="15" fill="#e8f4f8" stroke="#111" stroke-width="1"/><text x="84" y="313" text-anchor="middle" font-family="monospace" font-size="13">Alice</text><rect x="184" y="292" width="120" height="32" rx="15" ry="15" fill="#e8f4f8" stroke="#111" stroke-width="1"/><text x="244" y="313" text-anchor="middle" font-family="monospace" font-size="13">Bob</text></svg>