<svg xmlns="http://www.w3.org/2000/svg" width="232" height="284" viewBox="0 0 232 284"><rect width="100%" height="100%" fill="white"/><text x="16" y="16" font-family="monospace" font-size="18" font-weight="600" fill="#111">Round Corners = 15</text><rect x="16" y="44" width="80" height="32" rx="15" ry="15" fill="#e8f4f8" stroke="#111" stroke-width="1"/><text x="56" y="65" text-anchor="middle" font-family="monospace" font-size="13" fill="#111111">Alice</text><rect x="116" y="44" width="80" height="32" rx="15" ry="15" fill="#e8f4f8" stroke="#111" stroke-width="1"/><text x="156" y="65" text-anchor="middle" font-family="monospace" font-size="13" fill="#111111">Bob</text><line x1="56" y1="76" x2="56" y2="236" stroke="#555" stroke-width="1" stroke-dasharray="6 4"/><line x1="156" y1="76" x2="156" y2="236" stroke="#555" stroke-width="1" stroke-dasharray="6 4"/><rect x="16" y="128" width="180" height="84" rx="7" ry="7" fill="#fafafa" stroke="#666" stroke-width="1"/><polygon points="16,128 109,128 109,142 103,148 16,148" fill="#fafafa" stroke="#666" stroke-width="1"/><text x="24" y="142" font-family="monospace" font-size="12" font-weight="600" fill="#111">alt success</text><line x1="56" y1="108" x2="156" y2="108" stroke="#111" stroke-width="1.5"/><polygon points="156,108 148,103 148,113" fill="#111" stroke="#111" stroke-width="1"/><text x="64" y="100" text-anchor="start" font-family="monospace" font-size="12" fill="#111">request</text><line x1="156" y1="164" x2="56" y2="164" stroke="#111" stroke-width="1.5" stroke-dasharray="6 4"/><polygon points="56,164 64,159 64,169" fill="#111" stroke="#111" stroke-width="1"/><text x="64" y="156" text-anchor="start" font-family="monospace" font-size="12" fill="#111">ok</text><rect x="16" y="236" width="80" height="32" rx="15" ry="15" fill="#e8f4f8" stroke="#111" stroke-width="1"/><text x="56" y="257" text-anchor="middle" font-family="monospace" font-size="13" fill="#111111">Alice</text><rect x="116" y="236" width="80" height="32" rx="15" ry="15" fill="#e8f4f8" stroke="#111" stroke-width="1"/><text x="156" y="257" text-anchor="middle" font-family="monospace" font-size="13" fill="#111111">Bob</text></svg>