<svg xmlns="http://www.w3.org/2000/svg" width="520" height="280" viewBox="0 0 520 280"><rect width="100%" height="100%" fill="white"/><rect x="24" y="24" width="120" height="32" rx="8" ry="8" fill="#f6f6f6" stroke="#111" stroke-width="1"/><text x="84" y="45" text-anchor="middle" font-family="monospace" font-size="13" fill="#111111">Alice</text><rect x="184" y="24" width="120" height="32" rx="8" ry="8" fill="#f6f6f6" stroke="#111" stroke-width="1"/><text x="244" y="45" text-anchor="middle" font-family="monospace" font-size="13" fill="#111111">Bob</text><line x1="84" y1="56" x2="84" y2="224" stroke="#555" stroke-width="1" stroke-dasharray="6 4"/><line x1="244" y1="56" x2="244" y2="224" stroke="#555" stroke-width="1" stroke-dasharray="6 4"/><line x1="84" y1="88" x2="244" y2="88" stroke="#111" stroke-width="1.5"/><polygon points="244,88 236,83 236,93" fill="#111" stroke="#111" stroke-width="1"/><text x="92" y="80" text-anchor="start" font-family="monospace" font-size="12" fill="#111">request</text><line x1="244" y1="208" x2="84" y2="208" stroke="#111" stroke-width="1.5" stroke-dasharray="6 4"/><polygon points="84,208 92,203 92,213" fill="#111" stroke="#111" stroke-width="1"/><text x="92" y="200" text-anchor="start" font-family="monospace" font-size="12" fill="#111">response</text><path d="M316,120 H482 L496 134 V168 H316 Z" fill="#fffacd" stroke="#cc9900" stroke-width="1"/><path d="M482 120 V134 H496" fill="none" stroke="#cc9900" stroke-width="1"/><text x="324" y="140" font-family="monospace" font-size="12" fill="#111">Response memo</text><text x="324" y="156" font-family="monospace" font-size="12" fill="#111">with styled note</text><rect x="24" y="224" width="120" height="32" rx="8" ry="8" fill="#f6f6f6" stroke="#111" stroke-width="1"/><text x="84" y="245" text-anchor="middle" font-family="monospace" font-size="13" fill="#111111">Alice</text><rect x="184" y="224" width="120" height="32" rx="8" ry="8" fill="#f6f6f6" stroke="#111" stroke-width="1"/><text x="244" y="245" text-anchor="middle" font-family="monospace" font-size="13" fill="#111111">Bob</text></svg>