<svg xmlns="http://www.w3.org/2000/svg" width="488" height="360" viewBox="0 0 488 360"><rect width="100%" height="100%" fill="white"/><rect x="24" y="24" width="120" height="32" rx="4" ry="4" fill="#f6f6f6" stroke="#111" stroke-width="1"/><text x="84" y="45" text-anchor="middle" font-family="monospace" font-size="13" fill="#111111">Alice</text><rect x="184" y="24" width="120" height="32" rx="4" ry="4" fill="#f6f6f6" stroke="#111" stroke-width="1"/><text x="244" y="45" text-anchor="middle" font-family="monospace" font-size="13" fill="#111111">Bob</text><rect x="344" y="24" width="120" height="32" rx="4" ry="4" fill="#f6f6f6" stroke="#111" stroke-width="1"/><text x="404" y="45" text-anchor="middle" font-family="monospace" font-size="13" fill="#111111">Charlie</text><line x1="84" y1="56" x2="84" y2="304" stroke="#555" stroke-width="1" stroke-dasharray="6 4"/><line x1="244" y1="56" x2="244" y2="304" stroke="#555" stroke-width="1" stroke-dasharray="6 4"/><line x1="404" y1="56" x2="404" y2="304" stroke="#555" stroke-width="1" stroke-dasharray="6 4"/><rect x="24" y="120" width="440" height="160" rx="2" ry="2" fill="#e8f5e9" stroke="#2e7d32" stroke-width="1"/><polygon points="24,120 124,120 124,134 118,140 24,140" fill="#e8f5e9" stroke="#2e7d32" stroke-width="1"/><text x="32" y="134" font-family="monospace" font-size="12" font-weight="600" fill="#111">loop 3 times</text><line x1="84" y1="88" x2="244" y2="88" stroke="#111" stroke-width="1.5"/><polygon points="244,88 236,83 236,93" fill="#111" stroke="#111" stroke-width="1"/><text x="92" y="80" text-anchor="start" font-family="monospace" font-size="12" fill="#111">start</text><line x1="244" y1="168" x2="404" y2="168" stroke="#111" stroke-width="1.5"/><polygon points="404,168 396,163 396,173" fill="#111" stroke="#111" stroke-width="1"/><text x="252" y="160" text-anchor="start" font-family="monospace" font-size="12" fill="#111">work</text><line x1="404" y1="208" x2="244" y2="208" stroke="#111" stroke-width="1.5" stroke-dasharray="6 4"/><polygon points="244,208 252,203 252,213" fill="#111" stroke="#111" stroke-width="1"/><text x="252" y="200" text-anchor="start" font-family="monospace" font-size="12" fill="#111">done</text><line x1="244" y1="288" x2="84" y2="288" stroke="#111" stroke-width="1.5" stroke-dasharray="6 4"/><polygon points="84,288 92,283 92,293" fill="#111" stroke="#111" stroke-width="1"/><text x="92" y="280" text-anchor="start" font-family="monospace" font-size="12" fill="#111">complete</text><rect x="24" y="304" width="120" height="32" rx="4" ry="4" fill="#f6f6f6" stroke="#111" stroke-width="1"/><text x="84" y="325" text-anchor="middle" font-family="monospace" font-size="13" fill="#111111">Alice</text><rect x="184" y="304" width="120" height="32" rx="4" ry="4" fill="#f6f6f6" stroke="#111" stroke-width="1"/><text x="244" y="325" text-anchor="middle" font-family="monospace" font-size="13" fill="#111111">Bob</text><rect x="344" y="304" width="120" height="32" rx="4" ry="4" fill="#f6f6f6" stroke="#111" stroke-width="1"/><text x="404" y="325" text-anchor="middle" font-family="monospace" font-size="13" fill="#111111">Charlie</text></svg>