<svg xmlns="http://www.w3.org/2000/svg" width="312" height="284" viewBox="0 0 312 284"><rect width="100%" height="100%" fill="white"/><rect x="16" y="16" width="80" height="32" rx="4" ry="4" fill="#f6f6f6" stroke="#111" stroke-width="1"/><text x="56" y="37" text-anchor="middle" font-family="monospace" font-size="13" fill="#111111">Alice</text><rect x="116" y="16" width="80" height="32" rx="4" ry="4" fill="#f6f6f6" stroke="#111" stroke-width="1"/><text x="156" y="37" text-anchor="middle" font-family="monospace" font-size="13" fill="#111111">Bob</text><rect x="216" y="16" width="80" height="32" rx="4" ry="4" fill="#f6f6f6" stroke="#111" stroke-width="1"/><text x="256" y="37" text-anchor="middle" font-family="monospace" font-size="13" fill="#111111">Charlie</text><line x1="56" y1="48" x2="56" y2="236" stroke="#555" stroke-width="1" stroke-dasharray="6 4"/><line x1="156" y1="48" x2="156" y2="236" stroke="#555" stroke-width="1" stroke-dasharray="6 4"/><line x1="256" y1="48" x2="256" y2="236" stroke="#555" stroke-width="1" stroke-dasharray="6 4"/><rect x="16" y="100" width="280" height="112" rx="2" ry="2" fill="#e8f5e9" stroke="#2e7d32" stroke-width="1"/><polygon points="16,100 116,100 116,114 110,120 16,120" fill="#e8f5e9" stroke="#2e7d32" stroke-width="1"/><text x="24" y="114" font-family="monospace" font-size="12" font-weight="600" fill="#111">loop 3 times</text><line x1="56" y1="80" x2="156" y2="80" stroke="#111" stroke-width="1.5"/><polygon points="156,80 148,75 148,85" fill="#111" stroke="#111" stroke-width="1"/><text x="64" y="72" text-anchor="start" font-family="monospace" font-size="12" fill="#111">start</text><line x1="156" y1="136" x2="256" y2="136" stroke="#111" stroke-width="1.5"/><polygon points="256,136 248,131 248,141" fill="#111" stroke="#111" stroke-width="1"/><text x="164" y="128" text-anchor="start" font-family="monospace" font-size="12" fill="#111">work</text><line x1="256" y1="164" x2="156" y2="164" stroke="#111" stroke-width="1.5" stroke-dasharray="6 4"/><polygon points="156,164 164,159 164,169" fill="#111" stroke="#111" stroke-width="1"/><text x="164" y="156" text-anchor="start" font-family="monospace" font-size="12" fill="#111">done</text><line x1="156" y1="220" x2="56" y2="220" stroke="#111" stroke-width="1.5" stroke-dasharray="6 4"/><polygon points="56,220 64,215 64,225" fill="#111" stroke="#111" stroke-width="1"/><text x="64" y="212" text-anchor="start" font-family="monospace" font-size="12" fill="#111">complete</text><rect x="16" y="236" width="80" height="32" rx="4" ry="4" fill="#f6f6f6" stroke="#111" stroke-width="1"/><text x="56" y="257" text-anchor="middle" font-family="monospace" font-size="13" fill="#111111">Alice</text><rect x="116" y="236" width="80" height="32" rx="4" ry="4" fill="#f6f6f6" stroke="#111" stroke-width="1"/><text x="156" y="257" text-anchor="middle" font-family="monospace" font-size="13" fill="#111111">Bob</text><rect x="216" y="236" width="80" height="32" rx="4" ry="4" fill="#f6f6f6" stroke="#111" stroke-width="1"/><text x="256" y="257" text-anchor="middle" font-family="monospace" font-size="13" fill="#111111">Charlie</text></svg>