<svg xmlns="http://www.w3.org/2000/svg" width="312" height="228" viewBox="0 0 312 228"><rect width="100%" height="100%" fill="white"/><rect x="16" y="16" width="80" height="32" rx="4" ry="4" fill="#ede7f6" stroke="#7c4dff" stroke-width="1"/><text x="56" y="37" text-anchor="middle" font-family="monospace" font-size="13" fill="#111111">Alice</text><rect x="116" y="16" width="80" height="32" rx="4" ry="4" fill="#ede7f6" stroke="#7c4dff" stroke-width="1"/><text x="156" y="37" text-anchor="middle" font-family="monospace" font-size="13" fill="#111111">Bob</text><rect x="216" y="16" width="80" height="32" rx="4" ry="4" fill="#ede7f6" stroke="#7c4dff" stroke-width="1"/><text x="256" y="37" text-anchor="middle" font-family="monospace" font-size="13" fill="#111111">Charlie</text><line x1="56" y1="48" x2="56" y2="180" stroke="#7c4dff" stroke-width="1" stroke-dasharray="6 4"/><line x1="156" y1="48" x2="156" y2="180" stroke="#7c4dff" stroke-width="1" stroke-dasharray="6 4"/><line x1="256" y1="48" x2="256" y2="180" stroke="#7c4dff" stroke-width="1" stroke-dasharray="6 4"/><line x1="56" y1="80" x2="156" y2="80" stroke="#111" stroke-width="1.5"/><polygon points="156,80 148,75 148,85" fill="#111" stroke="#111" stroke-width="1"/><text x="64" y="72" text-anchor="start" font-family="monospace" font-size="12" fill="#111">message</text><line x1="156" y1="108" x2="256" y2="108" stroke="#111" stroke-width="1.5"/><polygon points="256,108 248,103 248,113" fill="#111" stroke="#111" stroke-width="1"/><text x="164" y="100" text-anchor="start" font-family="monospace" font-size="12" fill="#111">forward</text><line x1="256" y1="136" x2="156" y2="136" stroke="#111" stroke-width="1.5" stroke-dasharray="6 4"/><polygon points="156,136 164,131 164,141" fill="#111" stroke="#111" stroke-width="1"/><text x="164" y="128" text-anchor="start" font-family="monospace" font-size="12" fill="#111">ack</text><line x1="156" y1="164" x2="56" y2="164" stroke="#111" stroke-width="1.5" stroke-dasharray="6 4"/><polygon points="56,164 64,159 64,169" fill="#111" stroke="#111" stroke-width="1"/><text x="64" y="156" text-anchor="start" font-family="monospace" font-size="12" fill="#111">done</text><rect x="16" y="180" width="80" height="32" rx="4" ry="4" fill="#ede7f6" stroke="#7c4dff" stroke-width="1"/><text x="56" y="201" text-anchor="middle" font-family="monospace" font-size="13" fill="#111111">Alice</text><rect x="116" y="180" width="80" height="32" rx="4" ry="4" fill="#ede7f6" stroke="#7c4dff" stroke-width="1"/><text x="156" y="201" text-anchor="middle" font-family="monospace" font-size="13" fill="#111111">Bob</text><rect x="216" y="180" width="80" height="32" rx="4" ry="4" fill="#ede7f6" stroke="#7c4dff" stroke-width="1"/><text x="256" y="201" text-anchor="middle" font-family="monospace" font-size="13" fill="#111111">Charlie</text></svg>