<svg xmlns="http://www.w3.org/2000/svg" width="364" height="228" viewBox="0 0 364 228"><rect width="100%" height="100%" fill="#1a1a2e"/><text x="16" y="16" font-family="monospace" font-size="18" font-weight="600" fill="#e94560">Dark Cinematic Theme</text><rect x="16" y="44" width="80" height="32" rx="4" ry="4" fill="#16213e" stroke="#e94560" stroke-width="1"/><text x="56" y="65" text-anchor="middle" font-family="monospace" font-size="13" fill="#ffffff">Alice</text><rect x="116" y="44" width="80" height="32" rx="4" ry="4" fill="#16213e" stroke="#e94560" stroke-width="1"/><text x="156" y="65" text-anchor="middle" font-family="monospace" font-size="13" fill="#ffffff">Bob</text><line x1="56" y1="76" x2="56" y2="180" stroke="#0f3460" stroke-width="1" stroke-dasharray="6 4"/><line x1="156" y1="76" x2="156" y2="180" stroke="#0f3460" stroke-width="1" stroke-dasharray="6 4"/><line x1="56" y1="108" x2="156" y2="108" stroke="#e94560" stroke-width="1.5"/><polygon points="156,108 148,103 148,113" fill="#e94560" stroke="#e94560" stroke-width="1"/><text x="64" y="100" text-anchor="start" font-family="monospace" font-size="12" fill="#e94560">action</text><line x1="156" y1="164" x2="56" y2="164" stroke="#e94560" stroke-width="1.5" stroke-dasharray="6 4"/><polygon points="56,164 64,159 64,169" fill="#e94560" stroke="#e94560" stroke-width="1"/><text x="64" y="156" text-anchor="start" font-family="monospace" font-size="12" fill="#e94560">reaction</text><path d="M208,128 H339 L348 137 V156 H208 Z" fill="#0f3460" stroke="#e94560" stroke-width="1"/><path d="M339 128 V137 H348" fill="none" stroke="#e94560" stroke-width="1"/><text x="216" y="148" font-family="monospace" font-size="12" fill="#e94560">plot twist</text><rect x="16" y="180" width="80" height="32" rx="4" ry="4" fill="#16213e" stroke="#e94560" stroke-width="1"/><text x="56" y="201" text-anchor="middle" font-family="monospace" font-size="13" fill="#ffffff">Alice</text><rect x="116" y="180" width="80" height="32" rx="4" ry="4" fill="#16213e" stroke="#e94560" stroke-width="1"/><text x="156" y="201" text-anchor="middle" font-family="monospace" font-size="13" fill="#ffffff">Bob</text></svg>