<svg xmlns="http://www.w3.org/2000/svg" width="312" height="284" viewBox="0 0 312 284"><rect width="100%" height="100%" fill="white"/><text x="16" y="16" font-family="monospace" font-size="18" font-weight="600" fill="#0066cc">Corporate Style</text><rect x="16" y="44" width="80" height="32" rx="4" ry="4" fill="#003366" stroke="#001a33" stroke-width="1"/><text x="56" y="65" text-anchor="middle" font-family="monospace" font-size="13" fill="#ffffff">Client</text><rect x="116" y="44" width="80" height="32" rx="4" ry="4" fill="#003366" stroke="#001a33" stroke-width="1"/><text x="156" y="65" text-anchor="middle" font-family="monospace" font-size="13" fill="#ffffff">Server</text><rect x="216" y="44" width="80" height="32" rx="4" ry="4" fill="#003366" stroke="#001a33" stroke-width="1"/><text x="256" y="65" text-anchor="middle" font-family="monospace" font-size="13" fill="#ffffff">DB</text><line x1="56" y1="76" x2="56" y2="236" stroke="#555" stroke-width="1" stroke-dasharray="6 4"/><line x1="156" y1="76" x2="156" y2="236" stroke="#555" stroke-width="1" stroke-dasharray="6 4"/><line x1="256" y1="76" x2="256" y2="236" stroke="#555" stroke-width="1" stroke-dasharray="6 4"/><line x1="56" y1="124" x2="156" y2="124" stroke="#0066cc" stroke-width="1.5"/><polygon points="156,124 148,119 148,129" fill="#0066cc" stroke="#0066cc" stroke-width="1"/><text x="64" y="100" text-anchor="start" font-family="monospace" font-size="12" fill="#0066cc">enterprise</text><text x="64" y="116" text-anchor="start" font-family="monospace" font-size="12" fill="#0066cc">request</text><line x1="156" y1="164" x2="256" y2="164" stroke="#0066cc" stroke-width="1.5"/><polygon points="256,164 248,159 248,169" fill="#0066cc" stroke="#0066cc" stroke-width="1"/><text x="164" y="156" text-anchor="start" font-family="monospace" font-size="12" fill="#0066cc">query</text><line x1="256" y1="192" x2="156" y2="192" stroke="#0066cc" stroke-width="1.5" stroke-dasharray="6 4"/><polygon points="156,192 164,187 164,197" fill="#0066cc" stroke="#0066cc" stroke-width="1"/><text x="164" y="184" text-anchor="start" font-family="monospace" font-size="12" fill="#0066cc">result</text><line x1="156" y1="220" x2="56" y2="220" stroke="#0066cc" stroke-width="1.5" stroke-dasharray="6 4"/><polygon points="56,220 64,215 64,225" fill="#0066cc" stroke="#0066cc" stroke-width="1"/><text x="64" y="212" text-anchor="start" font-family="monospace" font-size="12" fill="#0066cc">response</text><rect x="16" y="236" width="80" height="32" rx="4" ry="4" fill="#003366" stroke="#001a33" stroke-width="1"/><text x="56" y="257" text-anchor="middle" font-family="monospace" font-size="13" fill="#ffffff">Client</text><rect x="116" y="236" width="80" height="32" rx="4" ry="4" fill="#003366" stroke="#001a33" stroke-width="1"/><text x="156" y="257" text-anchor="middle" font-family="monospace" font-size="13" fill="#ffffff">Server</text><rect x="216" y="236" width="80" height="32" rx="4" ry="4" fill="#003366" stroke="#001a33" stroke-width="1"/><text x="256" y="257" text-anchor="middle" font-family="monospace" font-size="13" fill="#ffffff">DB</text></svg>