<svg xmlns="http://www.w3.org/2000/svg" width="287" height="228" viewBox="0 0 287 228"><defs><filter id="sketch" x="-5%" y="-5%" width="110%" height="110%"><feTurbulence type="fractalNoise" baseFrequency="0.04" numOctaves="3" seed="2" result="noise"/><feDisplacementMap in="SourceGraphic" in2="noise" scale="2.5" xChannelSelector="R" yChannelSelector="G"/></filter></defs><rect width="100%" height="100%" fill="#000000"/><text x="16" y="16" font-family="monospace" font-size="18" font-weight="600" fill="#ffffff">Chapter 24 Skinparam</text><rect x="16" y="44" width="80" height="32" rx="4" ry="4" fill="#000000" stroke="#ffffff" stroke-width="1"/><text x="56" y="65" text-anchor="middle" font-family="monospace" font-size="13" fill="#ffffff">Alice</text><rect x="116" y="44" width="80" height="32" rx="4" ry="4" fill="#000000" stroke="#ffffff" stroke-width="1"/><text x="156" y="65" text-anchor="middle" font-family="monospace" font-size="13" fill="#ffffff">Bob</text><g filter="url(#sketch)"><line x1="56" y1="76" x2="56" y2="180" stroke="#ffffff" stroke-width="1" stroke-dasharray="6 4"/><line x1="156" y1="76" x2="156" y2="180" stroke="#ffffff" stroke-width="1" stroke-dasharray="6 4"/></g><g filter="url(#sketch)"><line x1="56" y1="108" x2="156" y2="108" stroke="#ffffff" stroke-width="1.5"/><polygon points="156,108 148,103 148,113" fill="#ffffff" stroke="#ffffff" stroke-width="1"/></g><text x="148" y="100" text-anchor="end" font-family="monospace" font-size="12" fill="#ffffff">request</text><g filter="url(#sketch)"><line x1="156" y1="164" x2="56" y2="164" stroke="#ffffff" stroke-width="1.5" stroke-dasharray="6 4"/><polygon points="56,164 64,159 64,169" fill="#ffffff" stroke="#ffffff" stroke-width="1"/></g><text x="148" y="156" text-anchor="end" font-family="monospace" font-size="12" fill="#ffffff">response</text><path d="M41,128 H262 L271 137 V156 H41 Z" fill="#000000" stroke="#ffffff" stroke-width="1"/><path d="M262 128 V137 H271" fill="none" stroke="#ffffff" stroke-width="1"/><text x="49" y="148" font-family="monospace" font-size="12" fill="#ffffff">rendered in reverse monochrome</text><rect x="16" y="180" width="80" height="32" rx="4" ry="4" fill="#000000" stroke="#ffffff" stroke-width="1"/><text x="56" y="201" text-anchor="middle" font-family="monospace" font-size="13" fill="#ffffff">Alice</text><rect x="116" y="180" width="80" height="32" rx="4" ry="4" fill="#000000" stroke="#ffffff" stroke-width="1"/><text x="156" y="201" text-anchor="middle" font-family="monospace" font-size="13" fill="#ffffff">Bob</text></svg>