<svg xmlns="http://www.w3.org/2000/svg" width="385" height="268" viewBox="0 0 385 268"><defs><filter id="sketch" x="-5%" y="-5%" width="110%" height="110%"><feTurbulence type="fractalNoise" baseFrequency="0.04" numOctaves="3" seed="2" result="noise"/><feDisplacementMap in="SourceGraphic" in2="noise" scale="2.5" xChannelSelector="R" yChannelSelector="G"/></filter></defs><rect width="100%" height="100%" fill="#000000"/><text x="24" y="24" font-family="monospace" font-size="18" font-weight="600" fill="#ffffff">Chapter 24 Skinparam</text><rect x="24" y="52" width="120" height="32" rx="4" ry="4" fill="#000000" stroke="#ffffff" stroke-width="1"/><text x="84" y="73" text-anchor="middle" font-family="monospace" font-size="13" fill="#ffffff">Alice</text><rect x="184" y="52" width="120" height="32" rx="4" ry="4" fill="#000000" stroke="#ffffff" stroke-width="1"/><text x="244" y="73" text-anchor="middle" font-family="monospace" font-size="13" fill="#ffffff">Bob</text><g filter="url(#sketch)"><line x1="84" y1="84" x2="84" y2="212" stroke="#ffffff" stroke-width="1" stroke-dasharray="6 4"/><line x1="244" y1="84" x2="244" y2="212" stroke="#ffffff" stroke-width="1" stroke-dasharray="6 4"/></g><g filter="url(#sketch)"><line x1="84" y1="116" x2="244" y2="116" stroke="#ffffff" stroke-width="1.5"/><polygon points="244,116 236,111 236,121" fill="#ffffff" stroke="#ffffff" stroke-width="1"/></g><text x="236" y="108" text-anchor="end" font-family="monospace" font-size="12" fill="#ffffff">request</text><g filter="url(#sketch)"><line x1="244" y1="196" x2="84" y2="196" stroke="#ffffff" stroke-width="1.5" stroke-dasharray="6 4"/><polygon points="84,196 92,191 92,201" fill="#ffffff" stroke="#ffffff" stroke-width="1"/></g><text x="236" y="188" text-anchor="end" font-family="monospace" font-size="12" fill="#ffffff">response</text><path d="M127,148 H351 L361 158 V180 H127 Z" fill="#000000" stroke="#ffffff" stroke-width="1"/><path d="M351 148 V158 H361" fill="none" stroke="#ffffff" stroke-width="1"/><text x="135" y="168" font-family="monospace" font-size="12" fill="#ffffff">rendered in reverse monochrome</text><rect x="24" y="212" width="120" height="32" rx="4" ry="4" fill="#000000" stroke="#ffffff" stroke-width="1"/><text x="84" y="233" text-anchor="middle" font-family="monospace" font-size="13" fill="#ffffff">Alice</text><rect x="184" y="212" width="120" height="32" rx="4" ry="4" fill="#000000" stroke="#ffffff" stroke-width="1"/><text x="244" y="233" text-anchor="middle" font-family="monospace" font-size="13" fill="#ffffff">Bob</text></svg>