<svg xmlns="http://www.w3.org/2000/svg" width="328" height="268" viewBox="0 0 328 268"><rect width="100%" height="100%" fill="#e0f2fe"/><text x="24" y="24" font-family="monospace" font-size="18" font-weight="600" fill="#111">Top-level backgroundColor</text><rect x="24" y="52" width="120" height="32" rx="4" ry="4" fill="#f6f6f6" stroke="#111" stroke-width="1"/><text x="84" y="73" text-anchor="middle" font-family="monospace" font-size="13" fill="#111111">Alice</text><rect x="184" y="52" width="120" height="32" rx="4" ry="4" fill="#f6f6f6" stroke="#111" stroke-width="1"/><text x="244" y="73" text-anchor="middle" font-family="monospace" font-size="13" fill="#111111">Bob</text><line x1="84" y1="84" x2="84" y2="212" stroke="#555" stroke-width="1" stroke-dasharray="6 4"/><line x1="244" y1="84" x2="244" y2="212" stroke="#555" stroke-width="1" stroke-dasharray="6 4"/><line x1="84" y1="116" x2="244" y2="116" stroke="#111" stroke-width="1.5"/><polygon points="244,116 236,111 236,121" fill="#111" stroke="#111" stroke-width="1"/><text x="92" y="108" text-anchor="start" font-family="monospace" font-size="12" fill="#111">common command</text><line x1="244" y1="172" x2="84" y2="172" stroke="#111" stroke-width="1.5" stroke-dasharray="6 4"/><polygon points="84,172 92,167 92,177" fill="#111" stroke="#111" stroke-width="1"/><text x="92" y="148" text-anchor="start" font-family="monospace" font-size="12" fill="#111">rendered on blue</text><text x="92" y="164" text-anchor="start" font-family="monospace" font-size="12" fill="#111">canvas</text><rect x="24" y="212" width="120" height="32" rx="4" ry="4" fill="#f6f6f6" stroke="#111" stroke-width="1"/><text x="84" y="233" text-anchor="middle" font-family="monospace" font-size="13" fill="#111111">Alice</text><rect x="184" y="212" width="120" height="32" rx="4" ry="4" fill="#f6f6f6" stroke="#111" stroke-width="1"/><text x="244" y="233" text-anchor="middle" font-family="monospace" font-size="13" fill="#111111">Bob</text></svg>