<svg xmlns="http://www.w3.org/2000/svg" width="232" height="276" viewBox="0 0 232 276"><rect width="100%" height="100%" fill="#e0f2fe"/><text x="16" y="16" font-family="monospace" font-size="18" font-weight="600" fill="#111">Top-level</text><text x="16" y="40" font-family="monospace" font-size="18" font-weight="600" fill="#111">backgroundColor</text><rect x="16" y="64" width="80" height="32" rx="4" ry="4" fill="#f6f6f6" stroke="#111" stroke-width="1"/><text x="56" y="85" text-anchor="middle" font-family="monospace" font-size="13" fill="#111111">Alice</text><rect x="116" y="64" width="80" height="32" rx="4" ry="4" fill="#f6f6f6" stroke="#111" stroke-width="1"/><text x="156" y="85" text-anchor="middle" font-family="monospace" font-size="13" fill="#111111">Bob</text><line x1="56" y1="96" x2="56" y2="228" stroke="#555" stroke-width="1" stroke-dasharray="6 4"/><line x1="156" y1="96" x2="156" y2="228" stroke="#555" stroke-width="1" stroke-dasharray="6 4"/><line x1="56" y1="144" x2="156" y2="144" stroke="#111" stroke-width="1.5"/><polygon points="156,144 148,139 148,149" fill="#111" stroke="#111" stroke-width="1"/><text x="64" y="120" text-anchor="start" font-family="monospace" font-size="12" fill="#111">common</text><text x="64" y="136" text-anchor="start" font-family="monospace" font-size="12" fill="#111">command</text><line x1="156" y1="200" x2="56" y2="200" stroke="#111" stroke-width="1.5" stroke-dasharray="6 4"/><polygon points="56,200 64,195 64,205" fill="#111" stroke="#111" stroke-width="1"/><text x="64" y="176" text-anchor="start" font-family="monospace" font-size="12" fill="#111">rendered on</text><text x="64" y="192" text-anchor="start" font-family="monospace" font-size="12" fill="#111">blue canvas</text><rect x="16" y="228" width="80" height="32" rx="4" ry="4" fill="#f6f6f6" stroke="#111" stroke-width="1"/><text x="56" y="249" text-anchor="middle" font-family="monospace" font-size="13" fill="#111111">Alice</text><rect x="116" y="228" width="80" height="32" rx="4" ry="4" fill="#f6f6f6" stroke="#111" stroke-width="1"/><text x="156" y="249" text-anchor="middle" font-family="monospace" font-size="13" fill="#111111">Bob</text></svg>