<svg xmlns="http://www.w3.org/2000/svg" width="744" height="296" viewBox="0 0 744 296"><rect width="100%" height="100%" fill="#f8fafc"/><text class="board-title" x="24" y="24" font-family="monospace" font-size="18" font-weight="700" fill="#0f172a">Sprint board</text><g class="board-column" data-board-column="Backlog"><rect x="24" y="54" width="220" height="218" rx="8" ry="8" fill="#e2e8f0" stroke="#94a3b8"/><rect x="24" y="54" width="220" height="34" rx="8" ry="8" fill="#334155" stroke="#334155"/><text x="36" y="76" font-family="monospace" font-size="13" font-weight="700" fill="white">Backlog</text><g class="board-card" data-board-depth="1"><rect x="34" y="100" width="200" height="46" rx="6" ry="6" fill="#ffffff" stroke="#cbd5e1"/><text x="44" y="120" font-family="monospace" font-size="12" fill="#0f172a">User Task 1</text><text x="44" y="136" font-family="monospace" font-size="10" fill="#475569">#release1</text></g><g class="board-card" data-board-depth="2"><rect x="46" y="156" width="188" height="46" rx="6" ry="6" fill="#fefce8" stroke="#cbd5e1"/><text x="56" y="176" font-family="monospace" font-size="12" fill="#0f172a">Story 1</text></g><g class="board-card" data-board-depth="1"><rect x="34" y="212" width="200" height="46" rx="6" ry="6" fill="#ffffff" stroke="#cbd5e1"/><text x="44" y="232" font-family="monospace" font-size="12" fill="#0f172a">User Task 2</text></g></g><g class="board-column" data-board-column="Doing"><rect x="262" y="54" width="220" height="218" rx="8" ry="8" fill="#e2e8f0" stroke="#94a3b8"/><rect x="262" y="54" width="220" height="34" rx="8" ry="8" fill="#334155" stroke="#334155"/><text x="274" y="76" font-family="monospace" font-size="13" font-weight="700" fill="white">Doing</text><g class="board-card" data-board-depth="1"><rect x="272" y="100" width="200" height="46" rx="6" ry="6" fill="#ffffff" stroke="#cbd5e1"/><text x="282" y="120" font-family="monospace" font-size="12" fill="#0f172a">Renderer scene contract</text></g></g><g class="board-column" data-board-column="Done"><rect x="500" y="54" width="220" height="218" rx="8" ry="8" fill="#e2e8f0" stroke="#94a3b8"/><rect x="500" y="54" width="220" height="34" rx="8" ry="8" fill="#334155" stroke="#334155"/><text x="512" y="76" font-family="monospace" font-size="13" font-weight="700" fill="white">Done</text><g class="board-card" data-board-depth="1"><rect x="510" y="100" width="200" height="46" rx="6" ry="6" fill="#ffffff" stroke="#cbd5e1"/><text x="520" y="120" font-family="monospace" font-size="12" fill="#0f172a">Guardrail shipped</text><text x="520" y="136" font-family="monospace" font-size="10" fill="#475569">#ci</text></g></g></svg>