<svg xmlns="http://www.w3.org/2000/svg" width="808" height="400" viewBox="0 0 808 400"><rect width="100%" height="100%" fill="white"/><rect x="24" y="24" width="120" height="32" rx="4" ry="4" fill="#f6f6f6" stroke="#111" stroke-width="1"/><text x="84" y="45" text-anchor="middle" font-family="monospace" font-size="13" fill="#111111">Client</text><rect x="184" y="24" width="120" height="32" rx="4" ry="4" fill="#f6f6f6" stroke="#111" stroke-width="1"/><text x="244" y="45" text-anchor="middle" font-family="monospace" font-size="13" fill="#111111">Server</text><rect x="344" y="24" width="120" height="32" rx="8" ry="8" fill="#fff3e0" stroke="#8a5a00" stroke-width="1"/><circle cx="356" cy="25" r="6" fill="none" stroke="#8a5a00" stroke-width="1.5"/><line x1="356" y1="31" x2="356" y2="45" stroke="#8a5a00" stroke-width="1.5"/><line x1="346" y1="35" x2="366" y2="35" stroke="#8a5a00" stroke-width="1.5"/><line x1="356" y1="45" x2="348" y2="61" stroke="#8a5a00" stroke-width="1.5"/><line x1="356" y1="45" x2="364" y2="61" stroke="#8a5a00" stroke-width="1.5"/><text x="404" y="45" text-anchor="middle" font-family="monospace" font-size="13" fill="#111111">User</text><ellipse cx="564" cy="30" rx="58" ry="6" fill="#e9f5ff" stroke="#1b5e8a" stroke-width="1"/><rect x="506" y="30" width="116" height="20" fill="#e9f5ff" stroke="#1b5e8a" stroke-width="1"/><ellipse cx="564" cy="50" rx="58" ry="6" fill="#e9f5ff" stroke="#1b5e8a" stroke-width="1"/><text x="564" y="45" text-anchor="middle" font-family="monospace" font-size="13" fill="#111111">DB</text><rect x="664" y="24" width="120" height="32" rx="4" ry="4" fill="#e9f5ff" stroke="#1b5e8a" stroke-width="1"/><ellipse cx="674" cy="40" rx="6" ry="12" fill="#d0eaff" stroke="#1b5e8a" stroke-width="1"/><ellipse cx="774" cy="40" rx="6" ry="12" fill="#d0eaff" stroke="#1b5e8a" stroke-width="1"/><text x="724" y="45" text-anchor="middle" font-family="monospace" font-size="13" fill="#111111">JobQueue</text><line x1="84" y1="56" x2="84" y2="344" stroke="#555" stroke-width="1" stroke-dasharray="6 4"/><line x1="244" y1="56" x2="244" y2="344" stroke="#555" stroke-width="1" stroke-dasharray="6 4"/><line x1="404" y1="56" x2="404" y2="344" stroke="#555" stroke-width="1" stroke-dasharray="6 4"/><line x1="564" y1="56" x2="564" y2="344" stroke="#555" stroke-width="1" stroke-dasharray="6 4"/><line x1="724" y1="56" x2="724" y2="344" stroke="#555" stroke-width="1" stroke-dasharray="6 4"/><line x1="404" y1="88" x2="84" y2="88" stroke="#111" stroke-width="1.5"/><polygon points="84,88 92,83 92,93" fill="#111" stroke="#111" stroke-width="1"/><text x="92" y="80" text-anchor="start" font-family="monospace" font-size="12" fill="#111">submit request</text><line x1="84" y1="128" x2="244" y2="128" stroke="#111" stroke-width="1.5"/><polygon points="244,128 236,123 236,133" fill="#111" stroke="#111" stroke-width="1"/><text x="92" y="120" text-anchor="start" font-family="monospace" font-size="12" fill="#111">POST /api/order</text><line x1="244" y1="168" x2="564" y2="168" stroke="#111" stroke-width="1.5"/><polygon points="564,168 556,163 556,173" fill="#111" stroke="#111" stroke-width="1"/><text x="252" y="160" text-anchor="start" font-family="monospace" font-size="12" fill="#111">INSERT order</text><line x1="564" y1="208" x2="244" y2="208" stroke="#111" stroke-width="1.5" stroke-dasharray="6 4"/><polygon points="244,208 252,203 252,213" fill="#111" stroke="#111" stroke-width="1"/><text x="252" y="200" text-anchor="start" font-family="monospace" font-size="12" fill="#111">ok</text><line x1="244" y1="248" x2="724" y2="248" stroke="#111" stroke-width="1.5"/><polygon points="724,248 716,243 716,253" fill="#111" stroke="#111" stroke-width="1"/><text x="252" y="240" text-anchor="start" font-family="monospace" font-size="12" fill="#111">enqueue job</text><line x1="244" y1="288" x2="84" y2="288" stroke="#111" stroke-width="1.5" stroke-dasharray="6 4"/><polygon points="84,288 92,283 92,293" fill="#111" stroke="#111" stroke-width="1"/><text x="92" y="280" text-anchor="start" font-family="monospace" font-size="12" fill="#111">202 Accepted</text><line x1="84" y1="328" x2="404" y2="328" stroke="#111" stroke-width="1.5" stroke-dasharray="6 4"/><polygon points="404,328 396,323 396,333" fill="#111" stroke="#111" stroke-width="1"/><text x="92" y="320" text-anchor="start" font-family="monospace" font-size="12" fill="#111">order received</text><rect x="24" y="344" width="120" height="32" rx="4" ry="4" fill="#f6f6f6" stroke="#111" stroke-width="1"/><text x="84" y="365" text-anchor="middle" font-family="monospace" font-size="13" fill="#111111">Client</text><rect x="184" y="344" width="120" height="32" rx="4" ry="4" fill="#f6f6f6" stroke="#111" stroke-width="1"/><text x="244" y="365" text-anchor="middle" font-family="monospace" font-size="13" fill="#111111">Server</text><rect x="344" y="344" width="120" height="32" rx="8" ry="8" fill="#fff3e0" stroke="#8a5a00" stroke-width="1"/><circle cx="356" cy="345" r="6" fill="none" stroke="#8a5a00" stroke-width="1.5"/><line x1="356" y1="351" x2="356" y2="365" stroke="#8a5a00" stroke-width="1.5"/><line x1="346" y1="355" x2="366" y2="355" stroke="#8a5a00" stroke-width="1.5"/><line x1="356" y1="365" x2="348" y2="381" stroke="#8a5a00" stroke-width="1.5"/><line x1="356" y1="365" x2="364" y2="381" stroke="#8a5a00" stroke-width="1.5"/><text x="404" y="365" text-anchor="middle" font-family="monospace" font-size="13" fill="#111111">User</text><ellipse cx="564" cy="350" rx="58" ry="6" fill="#e9f5ff" stroke="#1b5e8a" stroke-width="1"/><rect x="506" y="350" width="116" height="20" fill="#e9f5ff" stroke="#1b5e8a" stroke-width="1"/><ellipse cx="564" cy="370" rx="58" ry="6" fill="#e9f5ff" stroke="#1b5e8a" stroke-width="1"/><text x="564" y="365" text-anchor="middle" font-family="monospace" font-size="13" fill="#111111">DB</text><rect x="664" y="344" width="120" height="32" rx="4" ry="4" fill="#e9f5ff" stroke="#1b5e8a" stroke-width="1"/><ellipse cx="674" cy="360" rx="6" ry="12" fill="#d0eaff" stroke="#1b5e8a" stroke-width="1"/><ellipse cx="774" cy="360" rx="6" ry="12" fill="#d0eaff" stroke="#1b5e8a" stroke-width="1"/><text x="724" y="365" text-anchor="middle" font-family="monospace" font-size="13" fill="#111111">JobQueue</text></svg>