<svg xmlns="http://www.w3.org/2000/svg" width="808" height="400" viewBox="0 0 808 400"><rect width="100%" height="100%" fill="white"/><rect x="24" y="24" width="120" height="32" rx="4" ry="4" fill="#f6f6f6" stroke="#111" stroke-width="1"/><text x="84" y="45" text-anchor="middle" font-family="monospace" font-size="13" fill="#111111">Client</text><rect x="184" y="24" width="120" height="32" rx="4" ry="4" fill="#f6f6f6" stroke="#111" stroke-width="1"/><text x="244" y="45" text-anchor="middle" font-family="monospace" font-size="13" fill="#111111">Server</text><rect x="344" y="24" width="120" height="32" rx="8" ry="8" fill="#fff3e0" stroke="#8a5a00" stroke-width="1"/><circle cx="356" cy="34" r="4" fill="none" stroke="#8a5a00" stroke-width="1"/><line x1="356" y1="38" x2="356" y2="46" stroke="#8a5a00" stroke-width="1"/><line x1="352" y1="42" x2="360" y2="42" stroke="#8a5a00" stroke-width="1"/><line x1="356" y1="46" x2="352" y2="52" stroke="#8a5a00" stroke-width="1"/><line x1="356" y1="46" x2="360" y2="52" stroke="#8a5a00" stroke-width="1"/><text x="404" y="45" text-anchor="middle" font-family="monospace" font-size="13" fill="#111111">User</text><ellipse cx="564" cy="30" rx="58" ry="6" fill="#e9f5ff" stroke="#1b5e8a" stroke-width="1"/><rect x="506" y="30" width="116" height="20" fill="#e9f5ff" stroke="#1b5e8a" stroke-width="1"/><ellipse cx="564" cy="50" rx="58" ry="6" fill="#e9f5ff" stroke="#1b5e8a" stroke-width="1"/><text x="564" y="45" text-anchor="middle" font-family="monospace" font-size="13" fill="#111111">DB</text><rect x="664" y="24" width="120" height="32" rx="4" ry="4" fill="#e9f5ff" stroke="#1b5e8a" stroke-width="1"/><ellipse cx="674" cy="40" rx="6" ry="12" fill="#d0eaff" stroke="#1b5e8a" stroke-width="1"/><ellipse cx="774" cy="40" rx="6" ry="12" fill="#d0eaff" stroke="#1b5e8a" stroke-width="1"/><text x="724" y="45" text-anchor="middle" font-family="monospace" font-size="13" fill="#111111">JobQueue</text><line x1="84" y1="56" x2="84" y2="344" stroke="#555" stroke-width="1" stroke-dasharray="6 4"/><line x1="244" y1="56" x2="244" y2="344" stroke="#555" stroke-width="1" stroke-dasharray="6 4"/><line x1="404" y1="56" x2="404" y2="344" stroke="#555" stroke-width="1" stroke-dasharray="6 4"/><line x1="564" y1="56" x2="564" y2="344" stroke="#555" stroke-width="1" stroke-dasharray="6 4"/><line x1="724" y1="56" x2="724" y2="344" stroke="#555" stroke-width="1" stroke-dasharray="6 4"/><line x1="404" y1="80" x2="84" y2="80" stroke="#111" stroke-width="1.5"/><polygon points="84,80 92,75 92,85" fill="#111" stroke="#111" stroke-width="1"/><text x="92" y="72" text-anchor="start" font-family="monospace" font-size="12" fill="#111">submit request</text><line x1="84" y1="120" x2="244" y2="120" stroke="#111" stroke-width="1.5"/><polygon points="244,120 236,115 236,125" fill="#111" stroke="#111" stroke-width="1"/><text x="92" y="112" text-anchor="start" font-family="monospace" font-size="12" fill="#111">POST /api/order</text><line x1="244" y1="160" x2="564" y2="160" stroke="#111" stroke-width="1.5"/><polygon points="564,160 556,155 556,165" fill="#111" stroke="#111" stroke-width="1"/><text x="252" y="152" text-anchor="start" font-family="monospace" font-size="12" fill="#111">INSERT order</text><line x1="564" y1="200" x2="244" y2="200" stroke="#111" stroke-width="1.5" stroke-dasharray="6 4"/><polygon points="244,200 252,195 252,205" fill="#111" stroke="#111" stroke-width="1"/><text x="252" y="192" text-anchor="start" font-family="monospace" font-size="12" fill="#111">ok</text><line x1="244" y1="240" x2="724" y2="240" stroke="#111" stroke-width="1.5"/><polygon points="724,240 716,235 716,245" fill="#111" stroke="#111" stroke-width="1"/><text x="252" y="232" text-anchor="start" font-family="monospace" font-size="12" fill="#111">enqueue job</text><line x1="244" y1="280" x2="84" y2="280" stroke="#111" stroke-width="1.5" stroke-dasharray="6 4"/><polygon points="84,280 92,275 92,285" fill="#111" stroke="#111" stroke-width="1"/><text x="92" y="272" text-anchor="start" font-family="monospace" font-size="12" fill="#111">202 Accepted</text><line x1="84" y1="320" x2="404" y2="320" stroke="#111" stroke-width="1.5" stroke-dasharray="6 4"/><polygon points="404,320 396,315 396,325" fill="#111" stroke="#111" stroke-width="1"/><text x="92" y="312" text-anchor="start" font-family="monospace" font-size="12" fill="#111">order received</text><rect x="24" y="344" width="120" height="32" rx="4" ry="4" fill="#f6f6f6" stroke="#111" stroke-width="1"/><text x="84" y="365" text-anchor="middle" font-family="monospace" font-size="13" fill="#111111">Client</text><rect x="184" y="344" width="120" height="32" rx="4" ry="4" fill="#f6f6f6" stroke="#111" stroke-width="1"/><text x="244" y="365" text-anchor="middle" font-family="monospace" font-size="13" fill="#111111">Server</text><rect x="344" y="344" width="120" height="32" rx="8" ry="8" fill="#fff3e0" stroke="#8a5a00" stroke-width="1"/><circle cx="356" cy="354" r="4" fill="none" stroke="#8a5a00" stroke-width="1"/><line x1="356" y1="358" x2="356" y2="366" stroke="#8a5a00" stroke-width="1"/><line x1="352" y1="362" x2="360" y2="362" stroke="#8a5a00" stroke-width="1"/><line x1="356" y1="366" x2="352" y2="372" stroke="#8a5a00" stroke-width="1"/><line x1="356" y1="366" x2="360" y2="372" stroke="#8a5a00" stroke-width="1"/><text x="404" y="365" text-anchor="middle" font-family="monospace" font-size="13" fill="#111111">User</text><ellipse cx="564" cy="350" rx="58" ry="6" fill="#e9f5ff" stroke="#1b5e8a" stroke-width="1"/><rect x="506" y="350" width="116" height="20" fill="#e9f5ff" stroke="#1b5e8a" stroke-width="1"/><ellipse cx="564" cy="370" rx="58" ry="6" fill="#e9f5ff" stroke="#1b5e8a" stroke-width="1"/><text x="564" y="365" text-anchor="middle" font-family="monospace" font-size="13" fill="#111111">DB</text><rect x="664" y="344" width="120" height="32" rx="4" ry="4" fill="#e9f5ff" stroke="#1b5e8a" stroke-width="1"/><ellipse cx="674" cy="360" rx="6" ry="12" fill="#d0eaff" stroke="#1b5e8a" stroke-width="1"/><ellipse cx="774" cy="360" rx="6" ry="12" fill="#d0eaff" stroke="#1b5e8a" stroke-width="1"/><text x="724" y="365" text-anchor="middle" font-family="monospace" font-size="13" fill="#111111">JobQueue</text></svg>