<svg xmlns="http://www.w3.org/2000/svg" width="512" height="340" viewBox="0 0 512 340"><rect width="100%" height="100%" fill="white"/><rect x="16" y="16" width="80" height="32" rx="4" ry="4" fill="#f6f6f6" stroke="#111" stroke-width="1"/><text x="56" y="37" text-anchor="middle" font-family="monospace" font-size="13" fill="#111111">Client</text><rect x="116" y="16" width="80" height="32" rx="4" ry="4" fill="#f6f6f6" stroke="#111" stroke-width="1"/><text x="156" y="37" text-anchor="middle" font-family="monospace" font-size="13" fill="#111111">Server</text><rect x="216" y="16" width="80" height="32" rx="8" ry="8" fill="#fff3e0" stroke="#8a5a00" stroke-width="1"/><circle cx="228" cy="17" r="6" fill="none" stroke="#8a5a00" stroke-width="1.5"/><line x1="228" y1="23" x2="228" y2="37" stroke="#8a5a00" stroke-width="1.5"/><line x1="218" y1="27" x2="238" y2="27" stroke="#8a5a00" stroke-width="1.5"/><line x1="228" y1="37" x2="220" y2="53" stroke="#8a5a00" stroke-width="1.5"/><line x1="228" y1="37" x2="236" y2="53" stroke="#8a5a00" stroke-width="1.5"/><text x="256" y="37" text-anchor="middle" font-family="monospace" font-size="13" fill="#111111">User</text><ellipse cx="356" cy="22" rx="38" ry="6" fill="#e9f5ff" stroke="#1b5e8a" stroke-width="1"/><rect x="318" y="22" width="76" height="20" fill="#e9f5ff" stroke="#1b5e8a" stroke-width="1"/><ellipse cx="356" cy="42" rx="38" ry="6" fill="#e9f5ff" stroke="#1b5e8a" stroke-width="1"/><text x="356" y="37" text-anchor="middle" font-family="monospace" font-size="13" fill="#111111">DB</text><rect x="416" y="16" width="80" height="32" rx="4" ry="4" fill="#e9f5ff" stroke="#1b5e8a" stroke-width="1"/><ellipse cx="426" cy="32" rx="6" ry="12" fill="#d0eaff" stroke="#1b5e8a" stroke-width="1"/><ellipse cx="486" cy="32" rx="6" ry="12" fill="#d0eaff" stroke="#1b5e8a" stroke-width="1"/><text x="456" y="37" text-anchor="middle" font-family="monospace" font-size="13" fill="#111111">JobQueue</text><line x1="56" y1="48" x2="56" y2="292" stroke="#555" stroke-width="1" stroke-dasharray="6 4"/><line x1="156" y1="48" x2="156" y2="292" stroke="#555" stroke-width="1" stroke-dasharray="6 4"/><line x1="256" y1="48" x2="256" y2="292" stroke="#555" stroke-width="1" stroke-dasharray="6 4"/><line x1="356" y1="48" x2="356" y2="292" stroke="#555" stroke-width="1" stroke-dasharray="6 4"/><line x1="456" y1="48" x2="456" y2="292" stroke="#555" stroke-width="1" stroke-dasharray="6 4"/><line x1="256" y1="80" x2="56" y2="80" stroke="#111" stroke-width="1.5"/><polygon points="56,80 64,75 64,85" fill="#111" stroke="#111" stroke-width="1"/><text x="64" y="72" text-anchor="start" font-family="monospace" font-size="12" fill="#111">submit request</text><line x1="56" y1="124" x2="156" y2="124" stroke="#111" stroke-width="1.5"/><polygon points="156,124 148,119 148,129" fill="#111" stroke="#111" stroke-width="1"/><text x="64" y="100" text-anchor="start" font-family="monospace" font-size="12" fill="#111">POST</text><text x="64" y="116" text-anchor="start" font-family="monospace" font-size="12" fill="#111">/api/order</text><line x1="156" y1="164" x2="356" y2="164" stroke="#111" stroke-width="1.5"/><polygon points="356,164 348,159 348,169" fill="#111" stroke="#111" stroke-width="1"/><text x="164" y="156" text-anchor="start" font-family="monospace" font-size="12" fill="#111">INSERT order</text><line x1="356" y1="192" x2="156" y2="192" stroke="#111" stroke-width="1.5" stroke-dasharray="6 4"/><polygon points="156,192 164,187 164,197" fill="#111" stroke="#111" stroke-width="1"/><text x="164" y="184" text-anchor="start" font-family="monospace" font-size="12" fill="#111">ok</text><line x1="156" y1="220" x2="456" y2="220" stroke="#111" stroke-width="1.5"/><polygon points="456,220 448,215 448,225" fill="#111" stroke="#111" stroke-width="1"/><text x="164" y="212" text-anchor="start" font-family="monospace" font-size="12" fill="#111">enqueue job</text><line x1="156" y1="248" x2="56" y2="248" stroke="#111" stroke-width="1.5" stroke-dasharray="6 4"/><polygon points="56,248 64,243 64,253" fill="#111" stroke="#111" stroke-width="1"/><text x="64" y="240" text-anchor="start" font-family="monospace" font-size="12" fill="#111">202 Accepted</text><line x1="56" y1="276" x2="256" y2="276" stroke="#111" stroke-width="1.5" stroke-dasharray="6 4"/><polygon points="256,276 248,271 248,281" fill="#111" stroke="#111" stroke-width="1"/><text x="64" y="268" text-anchor="start" font-family="monospace" font-size="12" fill="#111">order received</text><rect x="16" y="292" width="80" height="32" rx="4" ry="4" fill="#f6f6f6" stroke="#111" stroke-width="1"/><text x="56" y="313" text-anchor="middle" font-family="monospace" font-size="13" fill="#111111">Client</text><rect x="116" y="292" width="80" height="32" rx="4" ry="4" fill="#f6f6f6" stroke="#111" stroke-width="1"/><text x="156" y="313" text-anchor="middle" font-family="monospace" font-size="13" fill="#111111">Server</text><rect x="216" y="292" width="80" height="32" rx="8" ry="8" fill="#fff3e0" stroke="#8a5a00" stroke-width="1"/><circle cx="228" cy="293" r="6" fill="none" stroke="#8a5a00" stroke-width="1.5"/><line x1="228" y1="299" x2="228" y2="313" stroke="#8a5a00" stroke-width="1.5"/><line x1="218" y1="303" x2="238" y2="303" stroke="#8a5a00" stroke-width="1.5"/><line x1="228" y1="313" x2="220" y2="329" stroke="#8a5a00" stroke-width="1.5"/><line x1="228" y1="313" x2="236" y2="329" stroke="#8a5a00" stroke-width="1.5"/><text x="256" y="313" text-anchor="middle" font-family="monospace" font-size="13" fill="#111111">User</text><ellipse cx="356" cy="298" rx="38" ry="6" fill="#e9f5ff" stroke="#1b5e8a" stroke-width="1"/><rect x="318" y="298" width="76" height="20" fill="#e9f5ff" stroke="#1b5e8a" stroke-width="1"/><ellipse cx="356" cy="318" rx="38" ry="6" fill="#e9f5ff" stroke="#1b5e8a" stroke-width="1"/><text x="356" y="313" text-anchor="middle" font-family="monospace" font-size="13" fill="#111111">DB</text><rect x="416" y="292" width="80" height="32" rx="4" ry="4" fill="#e9f5ff" stroke="#1b5e8a" stroke-width="1"/><ellipse cx="426" cy="308" rx="6" ry="12" fill="#d0eaff" stroke="#1b5e8a" stroke-width="1"/><ellipse cx="486" cy="308" rx="6" ry="12" fill="#d0eaff" stroke="#1b5e8a" stroke-width="1"/><text x="456" y="313" text-anchor="middle" font-family="monospace" font-size="13" fill="#111111">JobQueue</text></svg>