<svg xmlns="http://www.w3.org/2000/svg" width="488" height="280" viewBox="0 0 488 280"><rect width="100%" height="100%" fill="white"/><rect x="24" y="24" width="120" height="32" rx="4" ry="4" fill="#f6f6f6" stroke="#111" stroke-width="1"/><text x="84" y="45" text-anchor="middle" font-family="monospace" font-size="13" fill="#111111">Alice</text><rect x="184" y="24" width="120" height="32" rx="4" ry="4" fill="#f6f6f6" stroke="#111" stroke-width="1"/><text x="244" y="45" text-anchor="middle" font-family="monospace" font-size="13" fill="#111111">Bob</text><rect x="344" y="24" width="120" height="32" rx="4" ry="4" fill="#f6f6f6" stroke="#111" stroke-width="1"/><text x="404" y="45" text-anchor="middle" font-family="monospace" font-size="13" fill="#111111">Carol</text><line x1="84" y1="56" x2="84" y2="224" stroke="#555" stroke-width="1" stroke-dasharray="6 4"/><line x1="244" y1="56" x2="244" y2="224" stroke="#555" stroke-width="1" stroke-dasharray="6 4"/><line x1="404" y1="56" x2="404" y2="224" stroke="#555" stroke-width="1" stroke-dasharray="6 4"/><line x1="84" y1="88" x2="244" y2="88" stroke="#111" stroke-width="1.5"/><polygon points="244,88 236,83 236,93" fill="#111" stroke="#111" stroke-width="1"/><text x="92" y="80" text-anchor="start" font-family="monospace" font-size="12" fill="#111">1 request</text><line x1="244" y1="128" x2="404" y2="128" stroke="#111" stroke-width="1.5"/><polygon points="404,128 396,123 396,133" fill="#111" stroke="#111" stroke-width="1"/><text x="252" y="120" text-anchor="start" font-family="monospace" font-size="12" fill="#111">2 forward</text><line x1="404" y1="168" x2="244" y2="168" stroke="#111" stroke-width="1.5" stroke-dasharray="6 4"/><polygon points="244,168 252,163 252,173" fill="#111" stroke="#111" stroke-width="1"/><text x="252" y="160" text-anchor="start" font-family="monospace" font-size="12" fill="#111">3 ack</text><line x1="244" y1="208" x2="84" y2="208" stroke="#111" stroke-width="1.5" stroke-dasharray="6 4"/><polygon points="84,208 92,203 92,213" fill="#111" stroke="#111" stroke-width="1"/><text x="92" y="200" text-anchor="start" font-family="monospace" font-size="12" fill="#111">4 done</text><rect x="24" y="224" width="120" height="32" rx="4" ry="4" fill="#f6f6f6" stroke="#111" stroke-width="1"/><text x="84" y="245" text-anchor="middle" font-family="monospace" font-size="13" fill="#111111">Alice</text><rect x="184" y="224" width="120" height="32" rx="4" ry="4" fill="#f6f6f6" stroke="#111" stroke-width="1"/><text x="244" y="245" text-anchor="middle" font-family="monospace" font-size="13" fill="#111111">Bob</text><rect x="344" y="224" width="120" height="32" rx="4" ry="4" fill="#f6f6f6" stroke="#111" stroke-width="1"/><text x="404" y="245" text-anchor="middle" font-family="monospace" font-size="13" fill="#111111">Carol</text></svg>