<svg xmlns="http://www.w3.org/2000/svg" width="312" height="340" viewBox="0 0 312 340"><rect width="100%" height="100%" fill="white"/><rect x="16" y="16" width="80" height="32" rx="4" ry="4" fill="#f6f6f6" stroke="#111" stroke-width="1"/><text x="56" y="37" text-anchor="middle" font-family="monospace" font-size="13" fill="#111111">Alice</text><rect x="116" y="16" width="80" height="32" rx="4" ry="4" fill="#f6f6f6" stroke="#111" stroke-width="1"/><text x="156" y="37" text-anchor="middle" font-family="monospace" font-size="13" fill="#111111">Bob</text><rect x="216" y="16" width="80" height="32" rx="4" ry="4" fill="#f6f6f6" stroke="#111" stroke-width="1"/><text x="256" y="37" text-anchor="middle" font-family="monospace" font-size="13" fill="#111111">Carol</text><line x1="56" y1="48" x2="56" y2="292" stroke="#555" stroke-width="1" stroke-dasharray="6 4"/><line x1="156" y1="48" x2="156" y2="292" stroke="#555" stroke-width="1" stroke-dasharray="6 4"/><line x1="256" y1="48" x2="256" y2="292" stroke="#555" stroke-width="1" stroke-dasharray="6 4"/><line x1="56" y1="96" x2="156" y2="96" stroke="#111" stroke-width="1.5"/><polygon points="156,96 148,91 148,101" fill="#111" stroke="#111" stroke-width="1"/><text x="64" y="72" text-anchor="start" font-family="monospace" font-size="12" fill="#111">10 first</text><text x="64" y="88" text-anchor="start" font-family="monospace" font-size="12" fill="#111">message</text><line x1="156" y1="152" x2="56" y2="152" stroke="#111" stroke-width="1.5"/><polygon points="56,152 64,147 64,157" fill="#111" stroke="#111" stroke-width="1"/><text x="64" y="128" text-anchor="start" font-family="monospace" font-size="12" fill="#111">11 second</text><text x="64" y="144" text-anchor="start" font-family="monospace" font-size="12" fill="#111">message</text><line x1="156" y1="208" x2="256" y2="208" stroke="#111" stroke-width="1.5"/><polygon points="256,208 248,203 248,213" fill="#111" stroke="#111" stroke-width="1"/><text x="164" y="184" text-anchor="start" font-family="monospace" font-size="12" fill="#111">12 third</text><text x="164" y="200" text-anchor="start" font-family="monospace" font-size="12" fill="#111">message</text><line x1="256" y1="264" x2="156" y2="264" stroke="#111" stroke-width="1.5" stroke-dasharray="6 4"/><polygon points="156,264 164,259 164,269" fill="#111" stroke="#111" stroke-width="1"/><text x="164" y="240" text-anchor="start" font-family="monospace" font-size="12" fill="#111">13 fourth</text><text x="164" y="256" text-anchor="start" font-family="monospace" font-size="12" fill="#111">message</text><rect x="16" y="292" width="80" height="32" rx="4" ry="4" fill="#f6f6f6" stroke="#111" stroke-width="1"/><text x="56" y="313" text-anchor="middle" font-family="monospace" font-size="13" fill="#111111">Alice</text><rect x="116" y="292" width="80" height="32" rx="4" ry="4" fill="#f6f6f6" stroke="#111" stroke-width="1"/><text x="156" y="313" text-anchor="middle" font-family="monospace" font-size="13" fill="#111111">Bob</text><rect x="216" y="292" width="80" height="32" rx="4" ry="4" fill="#f6f6f6" stroke="#111" stroke-width="1"/><text x="256" y="313" text-anchor="middle" font-family="monospace" font-size="13" fill="#111111">Carol</text></svg>