<svg xmlns="http://www.w3.org/2000/svg" width="368" height="680" viewBox="0 0 368 680"><rect width="100%" height="100%" fill="white"/><rect x="24" y="24" width="120" height="32" rx="4" ry="4" fill="#f6f6f6" stroke="#111" stroke-width="1"/><text x="84" y="45" text-anchor="middle" font-family="monospace" font-size="13">Alice</text><rect x="184" y="24" width="120" height="32" rx="4" ry="4" fill="#f6f6f6" stroke="#111" stroke-width="1"/><text x="244" y="45" text-anchor="middle" font-family="monospace" font-size="13">Bob</text><line x1="84" y1="56" x2="84" y2="624" stroke="#555" stroke-width="1" stroke-dasharray="6 4"/><line x1="244" y1="56" x2="244" y2="624" stroke="#555" stroke-width="1" stroke-dasharray="6 4"/><rect x="24" y="120" width="320" height="200" rx="2" ry="2" fill="#fafafa" stroke="#666" stroke-width="1"/><text x="32" y="136" font-family="monospace" font-size="12" font-weight="600">alt credentials valid</text><line x1="24" y1="200" x2="344" y2="200" stroke="#666" stroke-width="1" stroke-dasharray="5 4"/><text x="32" y="194" font-family="monospace" font-size="11" fill="#333">invalid</text><rect x="24" y="320" width="320" height="120" rx="2" ry="2" fill="#fafafa" stroke="#666" stroke-width="1"/><text x="32" y="336" font-family="monospace" font-size="12" font-weight="600">opt remember me</text><rect x="24" y="440" width="320" height="160" rx="2" ry="2" fill="#fafafa" stroke="#666" stroke-width="1"/><text x="32" y="456" font-family="monospace" font-size="12" font-weight="600">loop 3 times</text><line x1="84" y1="80" x2="244" y2="80" stroke="#111" stroke-width="1.5"/><polygon points="244,80 238,76 238,84" fill="#111"/><text x="166" y="72" text-anchor="middle" font-family="monospace" font-size="12">authenticate</text><line x1="244" y1="160" x2="84" y2="160" stroke="#111" stroke-width="1.5" stroke-dasharray="6 4"/><polygon points="84,160 90,156 90,164" fill="#111"/><text x="166" y="152" text-anchor="middle" font-family="monospace" font-size="12">token</text><line x1="244" y1="240" x2="84" y2="240" stroke="#111" stroke-width="1.5" stroke-dasharray="6 4"/><polygon points="84,240 90,236 90,244" fill="#111"/><text x="166" y="232" text-anchor="middle" font-family="monospace" font-size="12">401 Unauthorized</text><line x1="84" y1="360" x2="244" y2="360" stroke="#111" stroke-width="1.5"/><polygon points="244,360 238,356 238,364" fill="#111"/><text x="166" y="352" text-anchor="middle" font-family="monospace" font-size="12">store session</text><line x1="84" y1="480" x2="244" y2="480" stroke="#111" stroke-width="1.5"/><polygon points="244,480 238,476 238,484" fill="#111"/><text x="166" y="472" text-anchor="middle" font-family="monospace" font-size="12">heartbeat</text><line x1="244" y1="520" x2="84" y2="520" stroke="#111" stroke-width="1.5" stroke-dasharray="6 4"/><polygon points="84,520 90,516 90,524" fill="#111"/><text x="166" y="512" text-anchor="middle" font-family="monospace" font-size="12">pong</text><rect x="24" y="624" width="120" height="32" rx="4" ry="4" fill="#f6f6f6" stroke="#111" stroke-width="1"/><text x="84" y="645" text-anchor="middle" font-family="monospace" font-size="13">Alice</text><rect x="184" y="624" width="120" height="32" rx="4" ry="4" fill="#f6f6f6" stroke="#111" stroke-width="1"/><text x="244" y="645" text-anchor="middle" font-family="monospace" font-size="13">Bob</text></svg>