<svg xmlns="http://www.w3.org/2000/svg" width="232" height="564" viewBox="0 0 232 564"><rect width="100%" height="100%" fill="white"/><rect x="16" y="16" width="80" height="32" rx="4" ry="4" fill="#f6f6f6" stroke="#111" stroke-width="1"/><text x="56" y="37" text-anchor="middle" font-family="monospace" font-size="13" fill="#111111">Alice</text><rect x="116" y="16" width="80" height="32" rx="4" ry="4" fill="#f6f6f6" stroke="#111" stroke-width="1"/><text x="156" y="37" text-anchor="middle" font-family="monospace" font-size="13" fill="#111111">Bob</text><line x1="56" y1="48" x2="56" y2="516" stroke="#555" stroke-width="1" stroke-dasharray="6 4"/><line x1="156" y1="48" x2="156" y2="516" stroke="#555" stroke-width="1" stroke-dasharray="6 4"/><rect x="16" y="100" width="180" height="168" rx="2" ry="2" fill="#fafafa" stroke="#666" stroke-width="1"/><polygon points="16,100 179,100 179,114 173,120 16,120" fill="#fafafa" stroke="#666" stroke-width="1"/><text x="24" y="114" font-family="monospace" font-size="12" font-weight="600" fill="#111">alt credentials valid</text><line x1="16" y1="156" x2="196" y2="156" stroke="#666" stroke-width="1" stroke-dasharray="5 4"/><text x="24" y="170" font-family="monospace" font-size="11" fill="#333">else invalid</text><rect x="16" y="268" width="180" height="112" rx="2" ry="2" fill="#fafafa" stroke="#666" stroke-width="1"/><polygon points="16,268 137,268 137,282 131,288 16,288" fill="#fafafa" stroke="#666" stroke-width="1"/><text x="24" y="282" font-family="monospace" font-size="12" font-weight="600" fill="#111">opt remember me</text><rect x="16" y="380" width="180" height="112" rx="2" ry="2" fill="#fafafa" stroke="#666" stroke-width="1"/><polygon points="16,380 116,380 116,394 110,400 16,400" fill="#fafafa" stroke="#666" stroke-width="1"/><text x="24" y="394" font-family="monospace" font-size="12" font-weight="600" fill="#111">loop 3 times</text><line x1="56" y1="80" x2="156" y2="80" stroke="#111" stroke-width="1.5"/><polygon points="156,80 148,75 148,85" fill="#111" stroke="#111" stroke-width="1"/><text x="64" y="72" text-anchor="start" font-family="monospace" font-size="12" fill="#111">authenticate</text><line x1="156" y1="136" x2="56" y2="136" stroke="#111" stroke-width="1.5" stroke-dasharray="6 4"/><polygon points="56,136 64,131 64,141" fill="#111" stroke="#111" stroke-width="1"/><text x="64" y="128" text-anchor="start" font-family="monospace" font-size="12" fill="#111">token</text><line x1="156" y1="208" x2="56" y2="208" stroke="#111" stroke-width="1.5" stroke-dasharray="6 4"/><polygon points="56,208 64,203 64,213" fill="#111" stroke="#111" stroke-width="1"/><text x="64" y="184" text-anchor="start" font-family="monospace" font-size="12" fill="#111">401</text><text x="64" y="200" text-anchor="start" font-family="monospace" font-size="12" fill="#111">Unauthorized</text><line x1="56" y1="320" x2="156" y2="320" stroke="#111" stroke-width="1.5"/><polygon points="156,320 148,315 148,325" fill="#111" stroke="#111" stroke-width="1"/><text x="64" y="296" text-anchor="start" font-family="monospace" font-size="12" fill="#111">store</text><text x="64" y="312" text-anchor="start" font-family="monospace" font-size="12" fill="#111">session</text><line x1="56" y1="416" x2="156" y2="416" stroke="#111" stroke-width="1.5"/><polygon points="156,416 148,411 148,421" fill="#111" stroke="#111" stroke-width="1"/><text x="64" y="408" text-anchor="start" font-family="monospace" font-size="12" fill="#111">heartbeat</text><line x1="156" y1="444" x2="56" y2="444" stroke="#111" stroke-width="1.5" stroke-dasharray="6 4"/><polygon points="56,444 64,439 64,449" fill="#111" stroke="#111" stroke-width="1"/><text x="64" y="436" text-anchor="start" font-family="monospace" font-size="12" fill="#111">pong</text><rect x="16" y="516" width="80" height="32" rx="4" ry="4" fill="#f6f6f6" stroke="#111" stroke-width="1"/><text x="56" y="537" text-anchor="middle" font-family="monospace" font-size="13" fill="#111111">Alice</text><rect x="116" y="516" width="80" height="32" rx="4" ry="4" fill="#f6f6f6" stroke="#111" stroke-width="1"/><text x="156" y="537" text-anchor="middle" font-family="monospace" font-size="13" fill="#111111">Bob</text></svg>