<svg xmlns="http://www.w3.org/2000/svg" width="688" height="480" viewBox="0 0 688 480"><rect width="100%" height="100%" fill="white"/><rect x="24" y="24" width="120" height="32" rx="4" ry="4" fill="#f6f6f6" stroke="#111" stroke-width="1"/><text x="84" y="45" text-anchor="middle" font-family="monospace" font-size="13">Alice</text><rect x="184" y="24" width="120" height="32" rx="4" ry="4" fill="#f6f6f6" stroke="#111" stroke-width="1"/><text x="244" y="45" text-anchor="middle" font-family="monospace" font-size="13">Bob</text><rect x="344" y="24" width="120" height="32" rx="4" ry="4" fill="#f6f6f6" stroke="#111" stroke-width="1"/><text x="404" y="45" text-anchor="middle" font-family="monospace" font-size="13">DB</text><rect x="504" y="24" width="120" height="32" rx="4" ry="4" fill="#f6f6f6" stroke="#111" stroke-width="1"/><text x="564" y="45" text-anchor="middle" font-family="monospace" font-size="13">Mail</text><line x1="84" y1="56" x2="84" y2="424" stroke="#555" stroke-width="1" stroke-dasharray="6 4"/><line x1="244" y1="56" x2="244" y2="424" stroke="#555" stroke-width="1" stroke-dasharray="6 4"/><line x1="404" y1="56" x2="404" y2="424" stroke="#555" stroke-width="1" stroke-dasharray="6 4"/><line x1="564" y1="56" x2="564" y2="424" stroke="#555" stroke-width="1" stroke-dasharray="6 4"/><rect x="24" y="120" width="640" height="280" rx="3" ry="3" fill="#fafafa" stroke="#666" stroke-width="1"/><text x="32" y="136" font-family="monospace" font-size="12" font-weight="600">par fetch data</text><line x1="24" y1="240" x2="664" y2="240" stroke="#666" stroke-width="1" stroke-dasharray="5 4"/><text x="32" y="234" font-family="monospace" font-size="11" fill="#333">send email</text><line x1="84" y1="80" x2="244" y2="80" stroke="#111" stroke-width="1.5"/><polygon points="244,80 238,76 238,84" fill="#111"/><text x="166" y="72" text-anchor="middle" font-family="monospace" font-size="12">start parallel work</text><line x1="244" y1="160" x2="404" y2="160" stroke="#111" stroke-width="1.5"/><polygon points="404,160 398,156 398,164" fill="#111"/><text x="326" y="152" text-anchor="middle" font-family="monospace" font-size="12">query</text><line x1="404" y1="200" x2="244" y2="200" stroke="#111" stroke-width="1.5" stroke-dasharray="6 4"/><polygon points="244,200 250,196 250,204" fill="#111"/><text x="326" y="192" text-anchor="middle" font-family="monospace" font-size="12">rows</text><line x1="244" y1="280" x2="564" y2="280" stroke="#111" stroke-width="1.5"/><polygon points="564,280 558,276 558,284" fill="#111"/><text x="406" y="272" text-anchor="middle" font-family="monospace" font-size="12">notify</text><line x1="564" y1="320" x2="244" y2="320" stroke="#111" stroke-width="1.5" stroke-dasharray="6 4"/><polygon points="244,320 250,316 250,324" fill="#111"/><text x="406" y="312" text-anchor="middle" font-family="monospace" font-size="12">sent</text><line x1="244" y1="400" x2="84" y2="400" stroke="#111" stroke-width="1.5" stroke-dasharray="6 4"/><polygon points="84,400 90,396 90,404" fill="#111"/><text x="166" y="392" text-anchor="middle" font-family="monospace" font-size="12">done</text><rect x="24" y="424" width="120" height="32" rx="4" ry="4" fill="#f6f6f6" stroke="#111" stroke-width="1"/><text x="84" y="445" text-anchor="middle" font-family="monospace" font-size="13">Alice</text><rect x="184" y="424" width="120" height="32" rx="4" ry="4" fill="#f6f6f6" stroke="#111" stroke-width="1"/><text x="244" y="445" text-anchor="middle" font-family="monospace" font-size="13">Bob</text><rect x="344" y="424" width="120" height="32" rx="4" ry="4" fill="#f6f6f6" stroke="#111" stroke-width="1"/><text x="404" y="445" text-anchor="middle" font-family="monospace" font-size="13">DB</text><rect x="504" y="424" width="120" height="32" rx="4" ry="4" fill="#f6f6f6" stroke="#111" stroke-width="1"/><text x="564" y="445" text-anchor="middle" font-family="monospace" font-size="13">Mail</text></svg>