<svg xmlns="http://www.w3.org/2000/svg" width="432" height="452" viewBox="0 0 432 452"><rect width="100%" height="100%" fill="white"/><rect x="16" y="16" width="80" height="32" rx="4" ry="4" fill="#f6f6f6" stroke="#111" stroke-width="1"/><text x="56" y="37" text-anchor="middle" font-family="monospace" font-size="13" fill="#111111">Alice</text><rect x="116" y="16" width="80" height="32" rx="4" ry="4" fill="#f6f6f6" stroke="#111" stroke-width="1"/><text x="156" y="37" text-anchor="middle" font-family="monospace" font-size="13" fill="#111111">Bob</text><rect x="216" y="16" width="80" height="32" rx="4" ry="4" fill="#f6f6f6" stroke="#111" stroke-width="1"/><text x="256" y="37" text-anchor="middle" font-family="monospace" font-size="13" fill="#111111">DB</text><rect x="316" y="16" width="80" height="32" rx="4" ry="4" fill="#f6f6f6" stroke="#111" stroke-width="1"/><text x="356" y="37" text-anchor="middle" font-family="monospace" font-size="13" fill="#111111">Mail</text><line x1="56" y1="48" x2="56" y2="404" stroke="#555" stroke-width="1" stroke-dasharray="6 4"/><line x1="156" y1="48" x2="156" y2="404" stroke="#555" stroke-width="1" stroke-dasharray="6 4"/><line x1="256" y1="48" x2="256" y2="404" stroke="#555" stroke-width="1" stroke-dasharray="6 4"/><line x1="356" y1="48" x2="356" y2="404" stroke="#555" stroke-width="1" stroke-dasharray="6 4"/><rect x="16" y="156" width="380" height="196" rx="2" ry="2" fill="#fafafa" stroke="#666" stroke-width="1"/><polygon points="16,156 130,156 130,170 124,176 16,176" fill="#fafafa" stroke="#666" stroke-width="1"/><text x="24" y="170" font-family="monospace" font-size="12" font-weight="600" fill="#111">par fetch data</text><line x1="16" y1="240" x2="396" y2="240" stroke="#666" stroke-width="1" stroke-dasharray="5 4"/><text x="24" y="226" font-family="monospace" font-size="11" fill="#333">else send email</text><line x1="56" y1="112" x2="156" y2="112" stroke="#111" stroke-width="1.5"/><polygon points="156,112 148,107 148,117" fill="#111" stroke="#111" stroke-width="1"/><text x="64" y="72" text-anchor="start" font-family="monospace" font-size="12" fill="#111">start</text><text x="64" y="88" text-anchor="start" font-family="monospace" font-size="12" fill="#111">parallel</text><text x="64" y="104" text-anchor="start" font-family="monospace" font-size="12" fill="#111">work</text><line x1="156" y1="192" x2="256" y2="192" stroke="#111" stroke-width="1.5"/><polygon points="256,192 248,187 248,197" fill="#111" stroke="#111" stroke-width="1"/><text x="164" y="184" text-anchor="start" font-family="monospace" font-size="12" fill="#111">query</text><line x1="256" y1="220" x2="156" y2="220" stroke="#111" stroke-width="1.5" stroke-dasharray="6 4"/><polygon points="156,220 164,215 164,225" fill="#111" stroke="#111" stroke-width="1"/><text x="164" y="212" text-anchor="start" font-family="monospace" font-size="12" fill="#111">rows</text><line x1="156" y1="276" x2="356" y2="276" stroke="#111" stroke-width="1.5"/><polygon points="356,276 348,271 348,281" fill="#111" stroke="#111" stroke-width="1"/><text x="164" y="268" text-anchor="start" font-family="monospace" font-size="12" fill="#111">notify</text><line x1="356" y1="304" x2="156" y2="304" stroke="#111" stroke-width="1.5" stroke-dasharray="6 4"/><polygon points="156,304 164,299 164,309" fill="#111" stroke="#111" stroke-width="1"/><text x="164" y="296" text-anchor="start" font-family="monospace" font-size="12" fill="#111">sent</text><line x1="156" y1="388" x2="56" y2="388" stroke="#111" stroke-width="1.5" stroke-dasharray="6 4"/><polygon points="56,388 64,383 64,393" fill="#111" stroke="#111" stroke-width="1"/><text x="64" y="380" text-anchor="start" font-family="monospace" font-size="12" fill="#111">done</text><rect x="16" y="404" width="80" height="32" rx="4" ry="4" fill="#f6f6f6" stroke="#111" stroke-width="1"/><text x="56" y="425" text-anchor="middle" font-family="monospace" font-size="13" fill="#111111">Alice</text><rect x="116" y="404" width="80" height="32" rx="4" ry="4" fill="#f6f6f6" stroke="#111" stroke-width="1"/><text x="156" y="425" text-anchor="middle" font-family="monospace" font-size="13" fill="#111111">Bob</text><rect x="216" y="404" width="80" height="32" rx="4" ry="4" fill="#f6f6f6" stroke="#111" stroke-width="1"/><text x="256" y="425" text-anchor="middle" font-family="monospace" font-size="13" fill="#111111">DB</text><rect x="316" y="404" width="80" height="32" rx="4" ry="4" fill="#f6f6f6" stroke="#111" stroke-width="1"/><text x="356" y="425" text-anchor="middle" font-family="monospace" font-size="13" fill="#111111">Mail</text></svg>