<svg xmlns="http://www.w3.org/2000/svg" width="688" height="520" viewBox="0 0 688 520"><rect width="100%" height="100%" fill="white"/><rect x="24" y="24" width="120" height="32" rx="4" ry="4" fill="#f6f6f6" stroke="#111" stroke-width="1"/><text x="84" y="45" text-anchor="middle" font-family="monospace" font-size="13" fill="#111111">Alice</text><rect x="184" y="24" width="120" height="32" rx="4" ry="4" fill="#f6f6f6" stroke="#111" stroke-width="1"/><text x="244" y="45" text-anchor="middle" font-family="monospace" font-size="13" fill="#111111">Bob</text><rect x="344" y="24" width="120" height="32" rx="4" ry="4" fill="#f6f6f6" stroke="#111" stroke-width="1"/><text x="404" y="45" text-anchor="middle" font-family="monospace" font-size="13" fill="#111111">DB</text><rect x="504" y="24" width="120" height="32" rx="4" ry="4" fill="#f6f6f6" stroke="#111" stroke-width="1"/><text x="564" y="45" text-anchor="middle" font-family="monospace" font-size="13" fill="#111111">Mail</text><line x1="84" y1="56" x2="84" y2="464" stroke="#555" stroke-width="1" stroke-dasharray="6 4"/><line x1="244" y1="56" x2="244" y2="464" stroke="#555" stroke-width="1" stroke-dasharray="6 4"/><line x1="404" y1="56" x2="404" y2="464" stroke="#555" stroke-width="1" stroke-dasharray="6 4"/><line x1="564" y1="56" x2="564" y2="464" stroke="#555" stroke-width="1" stroke-dasharray="6 4"/><rect x="24" y="120" width="640" height="280" rx="2" ry="2" fill="#fafafa" stroke="#666" stroke-width="1"/><polygon points="24,120 138,120 138,134 132,140 24,140" fill="#fafafa" stroke="#666" stroke-width="1"/><text x="32" y="134" font-family="monospace" font-size="12" font-weight="600" fill="#111">par fetch data</text><line x1="24" y1="240" x2="664" y2="240" stroke="#666" stroke-width="1" stroke-dasharray="5 4"/><text x="32" y="226" font-family="monospace" font-size="11" fill="#333">else send email</text><line x1="84" y1="80" x2="244" y2="80" stroke="#111" stroke-width="1.5"/><polygon points="244,80 236,75 236,85" fill="#111" stroke="#111" stroke-width="1"/><text x="92" y="72" text-anchor="start" font-family="monospace" font-size="12" fill="#111">start parallel work</text><line x1="244" y1="160" x2="404" y2="160" stroke="#111" stroke-width="1.5"/><polygon points="404,160 396,155 396,165" fill="#111" stroke="#111" stroke-width="1"/><text x="252" y="152" text-anchor="start" font-family="monospace" font-size="12" fill="#111">query</text><line x1="404" y1="200" x2="244" y2="200" stroke="#111" stroke-width="1.5" stroke-dasharray="6 4"/><polygon points="244,200 252,195 252,205" fill="#111" stroke="#111" stroke-width="1"/><text x="252" y="192" text-anchor="start" font-family="monospace" font-size="12" fill="#111">rows</text><line x1="244" y1="280" x2="564" y2="280" stroke="#111" stroke-width="1.5"/><polygon points="564,280 556,275 556,285" fill="#111" stroke="#111" stroke-width="1"/><text x="252" y="272" text-anchor="start" font-family="monospace" font-size="12" fill="#111">notify</text><line x1="564" y1="320" x2="244" y2="320" stroke="#111" stroke-width="1.5" stroke-dasharray="6 4"/><polygon points="244,320 252,315 252,325" fill="#111" stroke="#111" stroke-width="1"/><text x="252" y="312" text-anchor="start" font-family="monospace" font-size="12" fill="#111">sent</text><line x1="244" y1="440" x2="84" y2="440" stroke="#111" stroke-width="1.5" stroke-dasharray="6 4"/><polygon points="84,440 92,435 92,445" fill="#111" stroke="#111" stroke-width="1"/><text x="92" y="432" text-anchor="start" font-family="monospace" font-size="12" fill="#111">done</text><rect x="24" y="464" width="120" height="32" rx="4" ry="4" fill="#f6f6f6" stroke="#111" stroke-width="1"/><text x="84" y="485" text-anchor="middle" font-family="monospace" font-size="13" fill="#111111">Alice</text><rect x="184" y="464" width="120" height="32" rx="4" ry="4" fill="#f6f6f6" stroke="#111" stroke-width="1"/><text x="244" y="485" text-anchor="middle" font-family="monospace" font-size="13" fill="#111111">Bob</text><rect x="344" y="464" width="120" height="32" rx="4" ry="4" fill="#f6f6f6" stroke="#111" stroke-width="1"/><text x="404" y="485" text-anchor="middle" font-family="monospace" font-size="13" fill="#111111">DB</text><rect x="504" y="464" width="120" height="32" rx="4" ry="4" fill="#f6f6f6" stroke="#111" stroke-width="1"/><text x="564" y="485" text-anchor="middle" font-family="monospace" font-size="13" fill="#111111">Mail</text></svg>