<svg xmlns="http://www.w3.org/2000/svg" width="520" height="432" viewBox="0 0 520 432"><rect width="100%" height="100%" fill="white"/><rect x="24" y="24" width="120" height="32" rx="4" ry="4" fill="#f6f6f6" stroke="#111" stroke-width="1"/><text x="84" y="45" text-anchor="middle" font-family="monospace" font-size="13">Alice</text><rect x="184" y="24" width="120" height="32" rx="4" ry="4" fill="#f6f6f6" stroke="#111" stroke-width="1"/><text x="244" y="45" text-anchor="middle" font-family="monospace" font-size="13">Bob</text><rect x="344" y="24" width="120" height="32" rx="4" ry="4" fill="#f6f6f6" stroke="#111" stroke-width="1"/><text x="404" y="45" text-anchor="middle" font-family="monospace" font-size="13">Carol</text><line x1="84" y1="56" x2="84" y2="376" stroke="#555" stroke-width="1" stroke-dasharray="6 4"/><line x1="244" y1="56" x2="244" y2="376" stroke="#555" stroke-width="1" stroke-dasharray="6 4"/><line x1="404" y1="56" x2="404" y2="376" stroke="#555" stroke-width="1" stroke-dasharray="6 4"/><line x1="84" y1="80" x2="244" y2="80" stroke="#111" stroke-width="1.5"/><polygon points="244,80 236,75 236,85" fill="#111" stroke="#111" stroke-width="1"/><text x="92" y="72" text-anchor="start" font-family="monospace" font-size="12">request</text><line x1="244" y1="160" x2="404" y2="160" stroke="#111" stroke-width="1.5"/><polygon points="404,160 396,155 396,165" fill="#111" stroke="#111" stroke-width="1"/><text x="252" y="152" text-anchor="start" font-family="monospace" font-size="12">delegate</text><line x1="404" y1="240" x2="244" y2="240" stroke="#111" stroke-width="1.5" stroke-dasharray="6 4"/><polygon points="244,240 252,235 252,245" fill="#111" stroke="#111" stroke-width="1"/><text x="252" y="232" text-anchor="start" font-family="monospace" font-size="12">response</text><line x1="244" y1="280" x2="84" y2="280" stroke="#111" stroke-width="1.5" stroke-dasharray="6 4"/><polygon points="84,280 92,275 92,285" fill="#111" stroke="#111" stroke-width="1"/><text x="92" y="272" text-anchor="start" font-family="monospace" font-size="12">reply</text><path d="M316,120 H486 L496 130 V152 H316 Z" fill="#fff8c4" stroke="#111" stroke-width="1"/><path d="M486 120 V130 H496" fill="none" stroke="#111" stroke-width="1"/><text x="324" y="140" font-family="monospace" font-size="12">server routing</text><path d="M184,200 H454 L464 210 V232 H184 Z" fill="#fff8c4" stroke="#111" stroke-width="1"/><path d="M454 200 V210 H464" fill="none" stroke="#111" stroke-width="1"/><text x="192" y="220" font-family="monospace" font-size="12">internal exchange</text><path d="M24,320 H194 L204 330 V352 H24 Z" fill="#fff8c4" stroke="#111" stroke-width="1"/><path d="M194 320 V330 H204" fill="none" stroke="#111" stroke-width="1"/><text x="32" y="340" font-family="monospace" font-size="12">client received</text><rect x="24" y="376" width="120" height="32" rx="4" ry="4" fill="#f6f6f6" stroke="#111" stroke-width="1"/><text x="84" y="397" text-anchor="middle" font-family="monospace" font-size="13">Alice</text><rect x="184" y="376" width="120" height="32" rx="4" ry="4" fill="#f6f6f6" stroke="#111" stroke-width="1"/><text x="244" y="397" text-anchor="middle" font-family="monospace" font-size="13">Bob</text><rect x="344" y="376" width="120" height="32" rx="4" ry="4" fill="#f6f6f6" stroke="#111" stroke-width="1"/><text x="404" y="397" text-anchor="middle" font-family="monospace" font-size="13">Carol</text></svg>