<svg xmlns="http://www.w3.org/2000/svg" width="394" height="340" viewBox="0 0 394 340"><rect width="100%" height="100%" fill="white"/><rect x="46" y="16" width="80" height="32" rx="4" ry="4" fill="#f6f6f6" stroke="#111" stroke-width="1"/><text x="86" y="37" text-anchor="middle" font-family="monospace" font-size="13" fill="#111111">Alice</text><rect x="146" y="16" width="80" height="32" rx="4" ry="4" fill="#f6f6f6" stroke="#111" stroke-width="1"/><text x="186" y="37" text-anchor="middle" font-family="monospace" font-size="13" fill="#111111">Bob</text><rect x="246" y="16" width="80" height="32" rx="4" ry="4" fill="#f6f6f6" stroke="#111" stroke-width="1"/><text x="286" y="37" text-anchor="middle" font-family="monospace" font-size="13" fill="#111111">Carol</text><line x1="86" y1="48" x2="86" y2="292" stroke="#555" stroke-width="1" stroke-dasharray="6 4"/><line x1="186" y1="48" x2="186" y2="292" stroke="#555" stroke-width="1" stroke-dasharray="6 4"/><line x1="286" y1="48" x2="286" y2="292" stroke="#555" stroke-width="1" stroke-dasharray="6 4"/><line x1="86" y1="80" x2="186" y2="80" stroke="#111" stroke-width="1.5"/><polygon points="186,80 178,75 178,85" fill="#111" stroke="#111" stroke-width="1"/><text x="94" y="72" text-anchor="start" font-family="monospace" font-size="12" fill="#111">request</text><line x1="186" y1="136" x2="286" y2="136" stroke="#111" stroke-width="1.5"/><polygon points="286,136 278,131 278,141" fill="#111" stroke="#111" stroke-width="1"/><text x="194" y="128" text-anchor="start" font-family="monospace" font-size="12" fill="#111">delegate</text><line x1="286" y1="192" x2="186" y2="192" stroke="#111" stroke-width="1.5" stroke-dasharray="6 4"/><polygon points="186,192 194,187 194,197" fill="#111" stroke="#111" stroke-width="1"/><text x="194" y="184" text-anchor="start" font-family="monospace" font-size="12" fill="#111">response</text><line x1="186" y1="220" x2="86" y2="220" stroke="#111" stroke-width="1.5" stroke-dasharray="6 4"/><polygon points="86,220 94,215 94,225" fill="#111" stroke="#111" stroke-width="1"/><text x="94" y="212" text-anchor="start" font-family="monospace" font-size="12" fill="#111">reply</text><path d="M238,100 H369 L378 109 V128 H238 Z" fill="#fff8c4" stroke="#111" stroke-width="1"/><path d="M369 100 V109 H378" fill="none" stroke="#111" stroke-width="1"/><text x="246" y="120" font-family="monospace" font-size="12" fill="#111">server routing</text><path d="M146,156 H317 L326 165 V184 H146 Z" fill="#fff8c4" stroke="#111" stroke-width="1"/><path d="M317 156 V165 H326" fill="none" stroke="#111" stroke-width="1"/><text x="154" y="176" font-family="monospace" font-size="12" fill="#111">internal exchange</text><path d="M16,240 H147 L156 249 V268 H16 Z" fill="#fff8c4" stroke="#111" stroke-width="1"/><path d="M147 240 V249 H156" fill="none" stroke="#111" stroke-width="1"/><text x="24" y="260" font-family="monospace" font-size="12" fill="#111">client received</text><rect x="46" y="292" width="80" height="32" rx="4" ry="4" fill="#f6f6f6" stroke="#111" stroke-width="1"/><text x="86" y="313" text-anchor="middle" font-family="monospace" font-size="13" fill="#111111">Alice</text><rect x="146" y="292" width="80" height="32" rx="4" ry="4" fill="#f6f6f6" stroke="#111" stroke-width="1"/><text x="186" y="313" text-anchor="middle" font-family="monospace" font-size="13" fill="#111111">Bob</text><rect x="246" y="292" width="80" height="32" rx="4" ry="4" fill="#f6f6f6" stroke="#111" stroke-width="1"/><text x="286" y="313" text-anchor="middle" font-family="monospace" font-size="13" fill="#111111">Carol</text></svg>