<svg xmlns="http://www.w3.org/2000/svg" width="550" height="432" viewBox="0 0 550 432"><rect width="100%" height="100%" fill="white"/><rect x="54" y="24" width="120" height="32" rx="4" ry="4" fill="#f6f6f6" stroke="#111" stroke-width="1"/><text x="114" y="45" text-anchor="middle" font-family="monospace" font-size="13" fill="#111111">Alice</text><rect x="214" y="24" width="120" height="32" rx="4" ry="4" fill="#f6f6f6" stroke="#111" stroke-width="1"/><text x="274" y="45" text-anchor="middle" font-family="monospace" font-size="13" fill="#111111">Bob</text><rect x="374" y="24" width="120" height="32" rx="4" ry="4" fill="#f6f6f6" stroke="#111" stroke-width="1"/><text x="434" y="45" text-anchor="middle" font-family="monospace" font-size="13" fill="#111111">Carol</text><line x1="114" y1="56" x2="114" y2="376" stroke="#555" stroke-width="1" stroke-dasharray="6 4"/><line x1="274" y1="56" x2="274" y2="376" stroke="#555" stroke-width="1" stroke-dasharray="6 4"/><line x1="434" y1="56" x2="434" y2="376" stroke="#555" stroke-width="1" stroke-dasharray="6 4"/><line x1="114" y1="88" x2="274" y2="88" stroke="#111" stroke-width="1.5"/><polygon points="274,88 266,83 266,93" fill="#111" stroke="#111" stroke-width="1"/><text x="122" y="80" text-anchor="start" font-family="monospace" font-size="12" fill="#111">request</text><line x1="274" y1="168" x2="434" y2="168" stroke="#111" stroke-width="1.5"/><polygon points="434,168 426,163 426,173" fill="#111" stroke="#111" stroke-width="1"/><text x="282" y="160" text-anchor="start" font-family="monospace" font-size="12" fill="#111">delegate</text><line x1="434" y1="248" x2="274" y2="248" stroke="#111" stroke-width="1.5" stroke-dasharray="6 4"/><polygon points="274,248 282,243 282,253" fill="#111" stroke="#111" stroke-width="1"/><text x="282" y="240" text-anchor="start" font-family="monospace" font-size="12" fill="#111">response</text><line x1="274" y1="288" x2="114" y2="288" stroke="#111" stroke-width="1.5" stroke-dasharray="6 4"/><polygon points="114,288 122,283 122,293" fill="#111" stroke="#111" stroke-width="1"/><text x="122" y="280" text-anchor="start" font-family="monospace" font-size="12" fill="#111">reply</text><path d="M346,120 H516 L526 130 V152 H346 Z" fill="#fff8c4" stroke="#111" stroke-width="1"/><path d="M516 120 V130 H526" fill="none" stroke="#111" stroke-width="1"/><text x="354" y="140" font-family="monospace" font-size="12" fill="#111">server routing</text><path d="M214,200 H484 L494 210 V232 H214 Z" fill="#fff8c4" stroke="#111" stroke-width="1"/><path d="M484 200 V210 H494" fill="none" stroke="#111" stroke-width="1"/><text x="222" y="220" font-family="monospace" font-size="12" fill="#111">internal exchange</text><path d="M24,320 H194 L204 330 V352 H24 Z" fill="#fff8c4" stroke="#111" stroke-width="1"/><path d="M194 320 V330 H204" fill="none" stroke="#111" stroke-width="1"/><text x="32" y="340" font-family="monospace" font-size="12" fill="#111">client received</text><rect x="54" y="376" width="120" height="32" rx="4" ry="4" fill="#f6f6f6" stroke="#111" stroke-width="1"/><text x="114" y="397" text-anchor="middle" font-family="monospace" font-size="13" fill="#111111">Alice</text><rect x="214" y="376" width="120" height="32" rx="4" ry="4" fill="#f6f6f6" stroke="#111" stroke-width="1"/><text x="274" y="397" text-anchor="middle" font-family="monospace" font-size="13" fill="#111111">Bob</text><rect x="374" y="376" width="120" height="32" rx="4" ry="4" fill="#f6f6f6" stroke="#111" stroke-width="1"/><text x="434" y="397" text-anchor="middle" font-family="monospace" font-size="13" fill="#111111">Carol</text></svg>