<svg xmlns="http://www.w3.org/2000/svg" width="520" height="432" viewBox="0 0 520 432"><rect width="100%" height="100%" fill="white"/><rect x="24" y="24" width="120" height="32" rx="4" ry="4" fill="#f6f6f6" stroke="#111" stroke-width="1"/><text x="84" y="45" text-anchor="middle" font-family="monospace" font-size="13">Alice</text><rect x="184" y="24" width="120" height="32" rx="4" ry="4" fill="#f6f6f6" stroke="#111" stroke-width="1"/><text x="244" y="45" text-anchor="middle" font-family="monospace" font-size="13">Bob</text><rect x="344" y="24" width="120" height="32" rx="4" ry="4" fill="#f6f6f6" stroke="#111" stroke-width="1"/><text x="404" y="45" text-anchor="middle" font-family="monospace" font-size="13">Carol</text><line x1="84" y1="56" x2="84" y2="376" stroke="#555" stroke-width="1" stroke-dasharray="6 4"/><line x1="244" y1="56" x2="244" y2="376" stroke="#555" stroke-width="1" stroke-dasharray="6 4"/><line x1="404" y1="56" x2="404" y2="376" stroke="#555" stroke-width="1" stroke-dasharray="6 4"/><line x1="84" y1="80" x2="244" y2="80" stroke="#111" stroke-width="1.5"/><polygon points="244,80 238,76 238,84" fill="#111"/><text x="166" y="72" text-anchor="middle" font-family="monospace" font-size="12">request</text><line x1="244" y1="160" x2="404" y2="160" stroke="#111" stroke-width="1.5"/><polygon points="404,160 398,156 398,164" fill="#111"/><text x="326" y="152" text-anchor="middle" font-family="monospace" font-size="12">delegate</text><line x1="404" y1="240" x2="244" y2="240" stroke="#111" stroke-width="1.5" stroke-dasharray="6 4"/><polygon points="244,240 250,236 250,244" fill="#111"/><text x="326" y="232" text-anchor="middle" font-family="monospace" font-size="12">response</text><line x1="244" y1="280" x2="84" y2="280" stroke="#111" stroke-width="1.5" stroke-dasharray="6 4"/><polygon points="84,280 90,276 90,284" fill="#111"/><text x="166" y="272" text-anchor="middle" font-family="monospace" font-size="12">reply</text><rect x="316" y="120" width="180" height="32" rx="2" ry="2" fill="#fff8c4" stroke="#111" stroke-width="1"/><text x="324" y="140" font-family="monospace" font-size="12">server routing</text><rect x="184" y="200" width="180" height="32" rx="2" ry="2" fill="#fff8c4" stroke="#111" stroke-width="1"/><text x="192" y="220" font-family="monospace" font-size="12">internal exchange</text><rect x="24" y="320" width="180" height="32" rx="2" ry="2" fill="#fff8c4" stroke="#111" stroke-width="1"/><text x="32" y="340" font-family="monospace" font-size="12">client received</text><rect x="24" y="376" width="120" height="32" rx="4" ry="4" fill="#f6f6f6" stroke="#111" stroke-width="1"/><text x="84" y="397" text-anchor="middle" font-family="monospace" font-size="13">Alice</text><rect x="184" y="376" width="120" height="32" rx="4" ry="4" fill="#f6f6f6" stroke="#111" stroke-width="1"/><text x="244" y="397" text-anchor="middle" font-family="monospace" font-size="13">Bob</text><rect x="344" y="376" width="120" height="32" rx="4" ry="4" fill="#f6f6f6" stroke="#111" stroke-width="1"/><text x="404" y="397" text-anchor="middle" font-family="monospace" font-size="13">Carol</text></svg>