<svg xmlns="http://www.w3.org/2000/svg" width="232" height="284" viewBox="0 0 232 284"><rect width="100%" height="100%" fill="white"/><rect x="20" y="16" width="80" height="32" rx="4" ry="4" fill="#f6f6f6" stroke="#111" stroke-width="1"/><text x="60" y="37" text-anchor="middle" font-family="monospace" font-size="13" fill="#111111">Alice</text><rect x="120" y="16" width="80" height="32" rx="4" ry="4" fill="#f6f6f6" stroke="#111" stroke-width="1"/><text x="160" y="37" text-anchor="middle" font-family="monospace" font-size="13" fill="#111111">Bob</text><line x1="60" y1="48" x2="60" y2="236" stroke="#555" stroke-width="1" stroke-dasharray="6 4"/><line x1="160" y1="48" x2="160" y2="236" stroke="#555" stroke-width="1" stroke-dasharray="6 4"/><rect x="16" y="100" width="188" height="56" rx="2" ry="2" fill="#eef6ff" stroke="#666" stroke-width="1"/><polygon points="16,100 48,100 48,114 42,120 16,120" fill="#eef6ff" stroke="#666" stroke-width="1"/><text x="22" y="114" font-family="monospace" font-size="11" font-weight="600" fill="#111">ref</text><text x="24" y="132" font-family="monospace" font-size="12" fill="#111">Authentication Flow</text><text x="24" y="148" font-family="monospace" font-size="12" fill="#111">See diagram AUTH-01</text><line x1="60" y1="80" x2="160" y2="80" stroke="#111" stroke-width="1.5"/><polygon points="160,80 152,75 152,85" fill="#111" stroke="#111" stroke-width="1"/><text x="68" y="72" text-anchor="start" font-family="monospace" font-size="12" fill="#111">login</text><line x1="160" y1="208" x2="60" y2="208" stroke="#111" stroke-width="1.5" stroke-dasharray="6 4"/><polygon points="60,208 68,203 68,213" fill="#111" stroke="#111" stroke-width="1"/><text x="68" y="184" text-anchor="start" font-family="monospace" font-size="12" fill="#111">session</text><text x="68" y="200" text-anchor="start" font-family="monospace" font-size="12" fill="#111">token</text><rect x="20" y="236" width="80" height="32" rx="4" ry="4" fill="#f6f6f6" stroke="#111" stroke-width="1"/><text x="60" y="257" text-anchor="middle" font-family="monospace" font-size="13" fill="#111111">Alice</text><rect x="120" y="236" width="80" height="32" rx="4" ry="4" fill="#f6f6f6" stroke="#111" stroke-width="1"/><text x="160" y="257" text-anchor="middle" font-family="monospace" font-size="13" fill="#111111">Bob</text></svg>