<svg xmlns="http://www.w3.org/2000/svg" width="328" height="280" viewBox="0 0 328 280"><rect width="100%" height="100%" fill="white"/><rect x="24" y="24" width="120" height="32" rx="4" ry="4" fill="#f6f6f6" stroke="#111" stroke-width="1"/><text x="84" y="45" text-anchor="middle" font-family="monospace" font-size="13" fill="#111111">Alice</text><rect x="184" y="24" width="120" height="32" rx="4" ry="4" fill="#f6f6f6" stroke="#111" stroke-width="1"/><text x="244" y="45" text-anchor="middle" font-family="monospace" font-size="13" fill="#111111">Bob</text><line x1="84" y1="56" x2="84" y2="224" stroke="#555" stroke-width="1" stroke-dasharray="6 4"/><line x1="244" y1="56" x2="244" y2="224" stroke="#555" stroke-width="1" stroke-dasharray="6 4"/><rect x="24" y="120" width="280" height="56" rx="2" ry="2" fill="#eef6ff" stroke="#666" stroke-width="1"/><polygon points="24,120 56,120 56,134 50,140 24,140" fill="#eef6ff" stroke="#666" stroke-width="1"/><text x="30" y="134" font-family="monospace" font-size="11" font-weight="600" fill="#111">ref</text><text x="32" y="152" font-family="monospace" font-size="12" fill="#111">Authentication Flow</text><text x="32" y="168" font-family="monospace" font-size="12" fill="#111">See diagram AUTH-01</text><line x1="84" y1="88" x2="244" y2="88" stroke="#111" stroke-width="1.5"/><polygon points="244,88 236,83 236,93" fill="#111" stroke="#111" stroke-width="1"/><text x="92" y="80" text-anchor="start" font-family="monospace" font-size="12" fill="#111">login</text><line x1="244" y1="208" x2="84" y2="208" stroke="#111" stroke-width="1.5" stroke-dasharray="6 4"/><polygon points="84,208 92,203 92,213" fill="#111" stroke="#111" stroke-width="1"/><text x="92" y="200" text-anchor="start" font-family="monospace" font-size="12" fill="#111">session token</text><rect x="24" y="224" width="120" height="32" rx="4" ry="4" fill="#f6f6f6" stroke="#111" stroke-width="1"/><text x="84" y="245" text-anchor="middle" font-family="monospace" font-size="13" fill="#111111">Alice</text><rect x="184" y="224" width="120" height="32" rx="4" ry="4" fill="#f6f6f6" stroke="#111" stroke-width="1"/><text x="244" y="245" text-anchor="middle" font-family="monospace" font-size="13" fill="#111111">Bob</text></svg>