<svg xmlns="http://www.w3.org/2000/svg" width="672" height="360" viewBox="0 0 672 360"><rect width="100%" height="100%" fill="white"/><rect class="sequence-participant-group" x="24" y="2" width="304" height="346" rx="4" ry="4" fill="#e0f2fe" stroke="#666" stroke-width="1"/><text x="32" y="18" font-family="monospace" font-size="12" font-weight="600" fill="#333">Frontend</text><rect class="sequence-participant-group" x="344" y="2" width="304" height="346" rx="4" ry="4" fill="#fde68a" stroke="#666" stroke-width="1"/><text x="352" y="18" font-family="monospace" font-size="12" font-weight="600" fill="#333">Backend</text><rect x="36" y="24" width="120" height="32" rx="4" ry="4" fill="#f6f6f6" stroke="#111" stroke-width="1"/><text x="96" y="45" text-anchor="middle" font-family="monospace" font-size="13" fill="#111111">Browser</text><rect x="196" y="24" width="120" height="32" rx="4" ry="4" fill="#f6f6f6" stroke="#111" stroke-width="1"/><text x="256" y="45" text-anchor="middle" font-family="monospace" font-size="13" fill="#111111">ReactApp</text><rect x="356" y="24" width="120" height="32" rx="4" ry="4" fill="#f6f6f6" stroke="#111" stroke-width="1"/><text x="416" y="45" text-anchor="middle" font-family="monospace" font-size="13" fill="#111111">API</text><rect x="516" y="24" width="120" height="32" rx="4" ry="4" fill="#f6f6f6" stroke="#111" stroke-width="1"/><text x="576" y="45" text-anchor="middle" font-family="monospace" font-size="13" fill="#111111">DB</text><line x1="96" y1="56" x2="96" y2="304" stroke="#555" stroke-width="1" stroke-dasharray="6 4"/><line x1="256" y1="56" x2="256" y2="304" stroke="#555" stroke-width="1" stroke-dasharray="6 4"/><line x1="416" y1="56" x2="416" y2="304" stroke="#555" stroke-width="1" stroke-dasharray="6 4"/><line x1="576" y1="56" x2="576" y2="304" stroke="#555" stroke-width="1" stroke-dasharray="6 4"/><line x1="96" y1="88" x2="256" y2="88" stroke="#111" stroke-width="1.5"/><polygon points="256,88 248,83 248,93" fill="#111" stroke="#111" stroke-width="1"/><text x="104" y="80" text-anchor="start" font-family="monospace" font-size="12" fill="#111">click</text><line x1="256" y1="128" x2="416" y2="128" stroke="#111" stroke-width="1.5"/><polygon points="416,128 408,123 408,133" fill="#111" stroke="#111" stroke-width="1"/><text x="264" y="120" text-anchor="start" font-family="monospace" font-size="12" fill="#111">fetch /data</text><line x1="416" y1="168" x2="576" y2="168" stroke="#111" stroke-width="1.5"/><polygon points="576,168 568,163 568,173" fill="#111" stroke="#111" stroke-width="1"/><text x="424" y="160" text-anchor="start" font-family="monospace" font-size="12" fill="#111">SELECT</text><line x1="576" y1="208" x2="416" y2="208" stroke="#111" stroke-width="1.5" stroke-dasharray="6 4"/><polygon points="416,208 424,203 424,213" fill="#111" stroke="#111" stroke-width="1"/><text x="424" y="200" text-anchor="start" font-family="monospace" font-size="12" fill="#111">rows</text><line x1="416" y1="248" x2="256" y2="248" stroke="#111" stroke-width="1.5" stroke-dasharray="6 4"/><polygon points="256,248 264,243 264,253" fill="#111" stroke="#111" stroke-width="1"/><text x="264" y="240" text-anchor="start" font-family="monospace" font-size="12" fill="#111">JSON</text><line x1="256" y1="288" x2="96" y2="288" stroke="#111" stroke-width="1.5" stroke-dasharray="6 4"/><polygon points="96,288 104,283 104,293" fill="#111" stroke="#111" stroke-width="1"/><text x="104" y="280" text-anchor="start" font-family="monospace" font-size="12" fill="#111">render</text><rect x="36" y="304" width="120" height="32" rx="4" ry="4" fill="#f6f6f6" stroke="#111" stroke-width="1"/><text x="96" y="325" text-anchor="middle" font-family="monospace" font-size="13" fill="#111111">Browser</text><rect x="196" y="304" width="120" height="32" rx="4" ry="4" fill="#f6f6f6" stroke="#111" stroke-width="1"/><text x="256" y="325" text-anchor="middle" font-family="monospace" font-size="13" fill="#111111">ReactApp</text><rect x="356" y="304" width="120" height="32" rx="4" ry="4" fill="#f6f6f6" stroke="#111" stroke-width="1"/><text x="416" y="325" text-anchor="middle" font-family="monospace" font-size="13" fill="#111111">API</text><rect x="516" y="304" width="120" height="32" rx="4" ry="4" fill="#f6f6f6" stroke="#111" stroke-width="1"/><text x="576" y="325" text-anchor="middle" font-family="monospace" font-size="13" fill="#111111">DB</text></svg>