<svg xmlns="http://www.w3.org/2000/svg" width="672" height="360" viewBox="0 0 672 360"><rect width="100%" height="100%" fill="white"/><rect class="sequence-participant-group" x="24" y="2" width="304" height="346" rx="4" ry="4" fill="#e0f2fe" stroke="#666" stroke-width="1"/><text x="32" y="18" font-family="monospace" font-size="12" font-weight="600" fill="#333">Frontend</text><rect class="sequence-participant-group" x="344" y="2" width="304" height="346" rx="4" ry="4" fill="#fde68a" stroke="#666" stroke-width="1"/><text x="352" y="18" font-family="monospace" font-size="12" font-weight="600" fill="#333">Backend</text><rect x="36" y="24" width="120" height="32" rx="4" ry="4" fill="#f6f6f6" stroke="#111" stroke-width="1"/><text x="96" y="45" text-anchor="middle" font-family="monospace" font-size="13" fill="#111111">Browser</text><rect x="196" y="24" width="120" height="32" rx="4" ry="4" fill="#f6f6f6" stroke="#111" stroke-width="1"/><text x="256" y="45" text-anchor="middle" font-family="monospace" font-size="13" fill="#111111">ReactApp</text><rect x="356" y="24" width="120" height="32" rx="4" ry="4" fill="#f6f6f6" stroke="#111" stroke-width="1"/><text x="416" y="45" text-anchor="middle" font-family="monospace" font-size="13" fill="#111111">API</text><rect x="516" y="24" width="120" height="32" rx="4" ry="4" fill="#f6f6f6" stroke="#111" stroke-width="1"/><text x="576" y="45" text-anchor="middle" font-family="monospace" font-size="13" fill="#111111">DB</text><line x1="96" y1="56" x2="96" y2="304" stroke="#555" stroke-width="1" stroke-dasharray="6 4"/><line x1="256" y1="56" x2="256" y2="304" stroke="#555" stroke-width="1" stroke-dasharray="6 4"/><line x1="416" y1="56" x2="416" y2="304" stroke="#555" stroke-width="1" stroke-dasharray="6 4"/><line x1="576" y1="56" x2="576" y2="304" stroke="#555" stroke-width="1" stroke-dasharray="6 4"/><line x1="96" y1="80" x2="256" y2="80" stroke="#111" stroke-width="1.5"/><polygon points="256,80 248,75 248,85" fill="#111" stroke="#111" stroke-width="1"/><text x="104" y="72" text-anchor="start" font-family="monospace" font-size="12" fill="#111">click</text><line x1="256" y1="120" x2="416" y2="120" stroke="#111" stroke-width="1.5"/><polygon points="416,120 408,115 408,125" fill="#111" stroke="#111" stroke-width="1"/><text x="264" y="112" text-anchor="start" font-family="monospace" font-size="12" fill="#111">fetch /data</text><line x1="416" y1="160" x2="576" y2="160" stroke="#111" stroke-width="1.5"/><polygon points="576,160 568,155 568,165" fill="#111" stroke="#111" stroke-width="1"/><text x="424" y="152" text-anchor="start" font-family="monospace" font-size="12" fill="#111">SELECT</text><line x1="576" y1="200" x2="416" y2="200" stroke="#111" stroke-width="1.5" stroke-dasharray="6 4"/><polygon points="416,200 424,195 424,205" fill="#111" stroke="#111" stroke-width="1"/><text x="424" y="192" text-anchor="start" font-family="monospace" font-size="12" fill="#111">rows</text><line x1="416" y1="240" x2="256" y2="240" stroke="#111" stroke-width="1.5" stroke-dasharray="6 4"/><polygon points="256,240 264,235 264,245" fill="#111" stroke="#111" stroke-width="1"/><text x="264" y="232" text-anchor="start" font-family="monospace" font-size="12" fill="#111">JSON</text><line x1="256" y1="280" x2="96" y2="280" stroke="#111" stroke-width="1.5" stroke-dasharray="6 4"/><polygon points="96,280 104,275 104,285" fill="#111" stroke="#111" stroke-width="1"/><text x="104" y="272" text-anchor="start" font-family="monospace" font-size="12" fill="#111">render</text><rect x="36" y="304" width="120" height="32" rx="4" ry="4" fill="#f6f6f6" stroke="#111" stroke-width="1"/><text x="96" y="325" text-anchor="middle" font-family="monospace" font-size="13" fill="#111111">Browser</text><rect x="196" y="304" width="120" height="32" rx="4" ry="4" fill="#f6f6f6" stroke="#111" stroke-width="1"/><text x="256" y="325" text-anchor="middle" font-family="monospace" font-size="13" fill="#111111">ReactApp</text><rect x="356" y="304" width="120" height="32" rx="4" ry="4" fill="#f6f6f6" stroke="#111" stroke-width="1"/><text x="416" y="325" text-anchor="middle" font-family="monospace" font-size="13" fill="#111111">API</text><rect x="516" y="304" width="120" height="32" rx="4" ry="4" fill="#f6f6f6" stroke="#111" stroke-width="1"/><text x="576" y="325" text-anchor="middle" font-family="monospace" font-size="13" fill="#111111">DB</text></svg>