<svg xmlns="http://www.w3.org/2000/svg" width="648" height="360" viewBox="0 0 648 360"><rect width="100%" height="100%" fill="white"/><rect x="24" y="24" width="120" height="32" rx="4" ry="4" fill="#f6f6f6" stroke="#111" stroke-width="1"/><text x="84" y="45" text-anchor="middle" font-family="monospace" font-size="13">Browser</text><rect x="184" y="24" width="120" height="32" rx="4" ry="4" fill="#f6f6f6" stroke="#111" stroke-width="1"/><text x="244" y="45" text-anchor="middle" font-family="monospace" font-size="13">ReactApp</text><rect x="344" y="24" width="120" height="32" rx="4" ry="4" fill="#f6f6f6" stroke="#111" stroke-width="1"/><text x="404" y="45" text-anchor="middle" font-family="monospace" font-size="13">API</text><rect x="504" y="24" width="120" height="32" rx="4" ry="4" fill="#f6f6f6" stroke="#111" stroke-width="1"/><text x="564" y="45" text-anchor="middle" font-family="monospace" font-size="13">DB</text><line x1="84" y1="56" x2="84" y2="304" stroke="#555" stroke-width="1" stroke-dasharray="6 4"/><line x1="244" y1="56" x2="244" y2="304" stroke="#555" stroke-width="1" stroke-dasharray="6 4"/><line x1="404" y1="56" x2="404" y2="304" stroke="#555" stroke-width="1" stroke-dasharray="6 4"/><line x1="564" y1="56" x2="564" y2="304" stroke="#555" stroke-width="1" stroke-dasharray="6 4"/><line x1="84" y1="80" x2="244" y2="80" stroke="#111" stroke-width="1.5"/><polygon points="244,80 238,76 238,84" fill="#111"/><text x="166" y="72" text-anchor="middle" font-family="monospace" font-size="12">click</text><line x1="244" y1="120" x2="404" y2="120" stroke="#111" stroke-width="1.5"/><polygon points="404,120 398,116 398,124" fill="#111"/><text x="326" y="112" text-anchor="middle" font-family="monospace" font-size="12">fetch /data</text><line x1="404" y1="160" x2="564" y2="160" stroke="#111" stroke-width="1.5"/><polygon points="564,160 558,156 558,164" fill="#111"/><text x="486" y="152" text-anchor="middle" font-family="monospace" font-size="12">SELECT</text><line x1="564" y1="200" x2="404" y2="200" stroke="#111" stroke-width="1.5" stroke-dasharray="6 4"/><polygon points="404,200 410,196 410,204" fill="#111"/><text x="486" y="192" text-anchor="middle" font-family="monospace" font-size="12">rows</text><line x1="404" y1="240" x2="244" y2="240" stroke="#111" stroke-width="1.5" stroke-dasharray="6 4"/><polygon points="244,240 250,236 250,244" fill="#111"/><text x="326" y="232" text-anchor="middle" font-family="monospace" font-size="12">JSON</text><line x1="244" y1="280" x2="84" y2="280" stroke="#111" stroke-width="1.5" stroke-dasharray="6 4"/><polygon points="84,280 90,276 90,284" fill="#111"/><text x="166" y="272" text-anchor="middle" font-family="monospace" font-size="12">render</text><rect x="24" y="304" width="120" height="32" rx="4" ry="4" fill="#f6f6f6" stroke="#111" stroke-width="1"/><text x="84" y="325" text-anchor="middle" font-family="monospace" font-size="13">Browser</text><rect x="184" y="304" width="120" height="32" rx="4" ry="4" fill="#f6f6f6" stroke="#111" stroke-width="1"/><text x="244" y="325" text-anchor="middle" font-family="monospace" font-size="13">ReactApp</text><rect x="344" y="304" width="120" height="32" rx="4" ry="4" fill="#f6f6f6" stroke="#111" stroke-width="1"/><text x="404" y="325" text-anchor="middle" font-family="monospace" font-size="13">API</text><rect x="504" y="304" width="120" height="32" rx="4" ry="4" fill="#f6f6f6" stroke="#111" stroke-width="1"/><text x="564" y="325" text-anchor="middle" font-family="monospace" font-size="13">DB</text></svg>