<svg xmlns="http://www.w3.org/2000/svg" width="436" height="284" viewBox="0 0 436 284"><rect width="100%" height="100%" fill="white"/><rect class="sequence-participant-group" x="16" y="-6" width="204" height="286" rx="4" ry="4" fill="#e0f2fe" stroke="#666" stroke-width="1"/><text x="24" y="10" font-family="monospace" font-size="12" font-weight="600" fill="#333">Frontend</text><rect class="sequence-participant-group" x="216" y="-6" width="204" height="286" rx="4" ry="4" fill="#fde68a" stroke="#666" stroke-width="1"/><text x="224" y="10" font-family="monospace" font-size="12" font-weight="600" fill="#333">Backend</text><rect x="28" y="16" width="80" height="32" rx="4" ry="4" fill="#f6f6f6" stroke="#111" stroke-width="1"/><text x="68" y="37" text-anchor="middle" font-family="monospace" font-size="13" fill="#111111">Browser</text><rect x="128" y="16" width="80" height="32" rx="4" ry="4" fill="#f6f6f6" stroke="#111" stroke-width="1"/><text x="168" y="37" text-anchor="middle" font-family="monospace" font-size="13" fill="#111111">ReactApp</text><rect x="228" y="16" width="80" height="32" rx="4" ry="4" fill="#f6f6f6" stroke="#111" stroke-width="1"/><text x="268" y="37" text-anchor="middle" font-family="monospace" font-size="13" fill="#111111">API</text><rect x="328" y="16" width="80" height="32" rx="4" ry="4" fill="#f6f6f6" stroke="#111" stroke-width="1"/><text x="368" y="37" text-anchor="middle" font-family="monospace" font-size="13" fill="#111111">DB</text><line x1="68" y1="48" x2="68" y2="236" stroke="#555" stroke-width="1" stroke-dasharray="6 4"/><line x1="168" y1="48" x2="168" y2="236" stroke="#555" stroke-width="1" stroke-dasharray="6 4"/><line x1="268" y1="48" x2="268" y2="236" stroke="#555" stroke-width="1" stroke-dasharray="6 4"/><line x1="368" y1="48" x2="368" y2="236" stroke="#555" stroke-width="1" stroke-dasharray="6 4"/><line x1="68" y1="80" x2="168" y2="80" stroke="#111" stroke-width="1.5"/><polygon points="168,80 160,75 160,85" fill="#111" stroke="#111" stroke-width="1"/><text x="76" y="72" text-anchor="start" font-family="monospace" font-size="12" fill="#111">click</text><line x1="168" y1="108" x2="268" y2="108" stroke="#111" stroke-width="1.5"/><polygon points="268,108 260,103 260,113" fill="#111" stroke="#111" stroke-width="1"/><text x="176" y="100" text-anchor="start" font-family="monospace" font-size="12" fill="#111">fetch /data</text><line x1="268" y1="136" x2="368" y2="136" stroke="#111" stroke-width="1.5"/><polygon points="368,136 360,131 360,141" fill="#111" stroke="#111" stroke-width="1"/><text x="276" y="128" text-anchor="start" font-family="monospace" font-size="12" fill="#111">SELECT</text><line x1="368" y1="164" x2="268" y2="164" stroke="#111" stroke-width="1.5" stroke-dasharray="6 4"/><polygon points="268,164 276,159 276,169" fill="#111" stroke="#111" stroke-width="1"/><text x="276" y="156" text-anchor="start" font-family="monospace" font-size="12" fill="#111">rows</text><line x1="268" y1="192" x2="168" y2="192" stroke="#111" stroke-width="1.5" stroke-dasharray="6 4"/><polygon points="168,192 176,187 176,197" fill="#111" stroke="#111" stroke-width="1"/><text x="176" y="184" text-anchor="start" font-family="monospace" font-size="12" fill="#111">JSON</text><line x1="168" y1="220" x2="68" y2="220" stroke="#111" stroke-width="1.5" stroke-dasharray="6 4"/><polygon points="68,220 76,215 76,225" fill="#111" stroke="#111" stroke-width="1"/><text x="76" y="212" text-anchor="start" font-family="monospace" font-size="12" fill="#111">render</text><rect x="28" y="236" width="80" height="32" rx="4" ry="4" fill="#f6f6f6" stroke="#111" stroke-width="1"/><text x="68" y="257" text-anchor="middle" font-family="monospace" font-size="13" fill="#111111">Browser</text><rect x="128" y="236" width="80" height="32" rx="4" ry="4" fill="#f6f6f6" stroke="#111" stroke-width="1"/><text x="168" y="257" text-anchor="middle" font-family="monospace" font-size="13" fill="#111111">ReactApp</text><rect x="228" y="236" width="80" height="32" rx="4" ry="4" fill="#f6f6f6" stroke="#111" stroke-width="1"/><text x="268" y="257" text-anchor="middle" font-family="monospace" font-size="13" fill="#111111">API</text><rect x="328" y="236" width="80" height="32" rx="4" ry="4" fill="#f6f6f6" stroke="#111" stroke-width="1"/><text x="368" y="257" text-anchor="middle" font-family="monospace" font-size="13" fill="#111111">DB</text></svg>