<svg xmlns="http://www.w3.org/2000/svg" width="488" height="280" viewBox="0 0 488 280"><rect width="100%" height="100%" fill="white"/><rect x="24" y="24" width="120" height="32" rx="4" ry="4" fill="#f6f6f6" stroke="#111" stroke-width="1"/><text x="84" y="45" text-anchor="middle" font-family="monospace" font-size="13" fill="#111111">Alice</text><rect x="184" y="24" width="120" height="32" rx="4" ry="4" fill="#f6f6f6" stroke="#111" stroke-width="1"/><text x="244" y="45" text-anchor="middle" font-family="monospace" font-size="13" fill="#111111">Bob</text><rect x="344" y="24" width="120" height="32" rx="4" ry="4" fill="#f6f6f6" stroke="#111" stroke-width="1"/><text x="404" y="45" text-anchor="middle" font-family="monospace" font-size="13" fill="#111111">Carol</text><line x1="84" y1="56" x2="84" y2="224" stroke="#555" stroke-width="1" stroke-dasharray="6 4"/><line x1="244" y1="56" x2="244" y2="224" stroke="#555" stroke-width="1" stroke-dasharray="6 4"/><line x1="404" y1="56" x2="404" y2="224" stroke="#555" stroke-width="1" stroke-dasharray="6 4"/><rect class="sequence-activation" data-participant="Carol" x="399" y="128" width="10" height="72" fill="#ffffff" stroke="#555" stroke-width="1"/><rect class="sequence-activation" data-participant="Bob" x="239" y="88" width="10" height="152" fill="#ffffff" stroke="#555" stroke-width="1"/><line x1="84" y1="88" x2="239" y2="88" stroke="#111" stroke-width="1.5"/><polygon points="239,88 231,83 231,93" fill="#111" stroke="#111" stroke-width="1"/><text x="92" y="80" text-anchor="start" font-family="monospace" font-size="12" fill="#111">call</text><line x1="249" y1="128" x2="399" y2="128" stroke="#111" stroke-width="1.5"/><polygon points="399,128 391,123 391,133" fill="#111" stroke="#111" stroke-width="1"/><text x="257" y="120" text-anchor="start" font-family="monospace" font-size="12" fill="#111">sub-call</text><line x1="399" y1="168" x2="249" y2="168" stroke="#111" stroke-width="1.5" stroke-dasharray="6 4"/><polygon points="249,168 257,163 257,173" fill="#111" stroke="#111" stroke-width="1"/><text x="257" y="160" text-anchor="start" font-family="monospace" font-size="12" fill="#111">result</text><line x1="239" y1="208" x2="84" y2="208" stroke="#111" stroke-width="1.5" stroke-dasharray="6 4"/><polygon points="84,208 92,203 92,213" fill="#111" stroke="#111" stroke-width="1"/><text x="92" y="200" text-anchor="start" font-family="monospace" font-size="12" fill="#111">response</text><rect x="24" y="224" width="120" height="32" rx="4" ry="4" fill="#f6f6f6" stroke="#111" stroke-width="1"/><text x="84" y="245" text-anchor="middle" font-family="monospace" font-size="13" fill="#111111">Alice</text><rect x="184" y="224" width="120" height="32" rx="4" ry="4" fill="#f6f6f6" stroke="#111" stroke-width="1"/><text x="244" y="245" text-anchor="middle" font-family="monospace" font-size="13" fill="#111111">Bob</text><rect x="344" y="224" width="120" height="32" rx="4" ry="4" fill="#f6f6f6" stroke="#111" stroke-width="1"/><text x="404" y="245" text-anchor="middle" font-family="monospace" font-size="13" fill="#111111">Carol</text></svg>