<svg xmlns="http://www.w3.org/2000/svg" width="312" height="228" viewBox="0 0 312 228"><rect width="100%" height="100%" fill="white"/><rect x="16" y="16" width="80" height="32" rx="4" ry="4" fill="#f6f6f6" stroke="#111" stroke-width="1"/><text x="56" y="37" text-anchor="middle" font-family="monospace" font-size="13" fill="#111111">Alice</text><rect x="116" y="16" width="80" height="32" rx="4" ry="4" fill="#f6f6f6" stroke="#111" stroke-width="1"/><text x="156" y="37" text-anchor="middle" font-family="monospace" font-size="13" fill="#111111">Bob</text><rect x="216" y="16" width="80" height="32" rx="4" ry="4" fill="#f6f6f6" stroke="#111" stroke-width="1"/><text x="256" y="37" text-anchor="middle" font-family="monospace" font-size="13" fill="#111111">Carol</text><line x1="56" y1="48" x2="56" y2="180" stroke="#555" stroke-width="1" stroke-dasharray="6 4"/><line x1="156" y1="48" x2="156" y2="180" stroke="#555" stroke-width="1" stroke-dasharray="6 4"/><line x1="256" y1="48" x2="256" y2="180" stroke="#555" stroke-width="1" stroke-dasharray="6 4"/><rect class="sequence-activation" data-participant="Carol" x="251" y="108" width="10" height="48" fill="#ffffff" stroke="#555" stroke-width="1"/><rect class="sequence-activation" data-participant="Bob" x="151" y="80" width="10" height="104" fill="#ffffff" stroke="#555" stroke-width="1"/><line x1="56" y1="80" x2="151" y2="80" stroke="#111" stroke-width="1.5"/><polygon points="151,80 143,75 143,85" fill="#111" stroke="#111" stroke-width="1"/><text x="64" y="72" text-anchor="start" font-family="monospace" font-size="12" fill="#111">call</text><line x1="161" y1="108" x2="251" y2="108" stroke="#111" stroke-width="1.5"/><polygon points="251,108 243,103 243,113" fill="#111" stroke="#111" stroke-width="1"/><text x="169" y="100" text-anchor="start" font-family="monospace" font-size="12" fill="#111">sub-call</text><line x1="251" y1="136" x2="161" y2="136" stroke="#111" stroke-width="1.5" stroke-dasharray="6 4"/><polygon points="161,136 169,131 169,141" fill="#111" stroke="#111" stroke-width="1"/><text x="169" y="128" text-anchor="start" font-family="monospace" font-size="12" fill="#111">result</text><line x1="151" y1="164" x2="56" y2="164" stroke="#111" stroke-width="1.5" stroke-dasharray="6 4"/><polygon points="56,164 64,159 64,169" fill="#111" stroke="#111" stroke-width="1"/><text x="64" y="156" text-anchor="start" font-family="monospace" font-size="12" fill="#111">response</text><rect x="16" y="180" width="80" height="32" rx="4" ry="4" fill="#f6f6f6" stroke="#111" stroke-width="1"/><text x="56" y="201" text-anchor="middle" font-family="monospace" font-size="13" fill="#111111">Alice</text><rect x="116" y="180" width="80" height="32" rx="4" ry="4" fill="#f6f6f6" stroke="#111" stroke-width="1"/><text x="156" y="201" text-anchor="middle" font-family="monospace" font-size="13" fill="#111111">Bob</text><rect x="216" y="180" width="80" height="32" rx="4" ry="4" fill="#f6f6f6" stroke="#111" stroke-width="1"/><text x="256" y="201" text-anchor="middle" font-family="monospace" font-size="13" fill="#111111">Carol</text></svg>