<svg xmlns="http://www.w3.org/2000/svg" width="488" height="360" viewBox="0 0 488 360"><rect width="100%" height="100%" fill="white"/><rect x="24" y="24" width="120" height="32" rx="4" ry="4" fill="#f6f6f6" stroke="#111" stroke-width="1"/><text x="84" y="45" text-anchor="middle" font-family="monospace" font-size="13" fill="#111111">Alice</text><rect x="184" y="24" width="120" height="32" rx="4" ry="4" fill="#f6f6f6" stroke="#111" stroke-width="1"/><text x="244" y="45" text-anchor="middle" font-family="monospace" font-size="13" fill="#111111">Bob</text><rect x="344" y="120" width="120" height="32" rx="4" ry="4" fill="#f6f6f6" stroke="#111" stroke-width="1"/><text x="404" y="141" text-anchor="middle" font-family="monospace" font-size="13" fill="#111111">Session</text><line x1="84" y1="56" x2="84" y2="304" stroke="#555" stroke-width="1" stroke-dasharray="6 4"/><line x1="244" y1="56" x2="244" y2="304" stroke="#555" stroke-width="1" stroke-dasharray="6 4"/><line x1="404" y1="152" x2="404" y2="304" stroke="#555" stroke-width="1" stroke-dasharray="6 4"/><line x1="84" y1="88" x2="244" y2="88" stroke="#111" stroke-width="1.5"/><polygon points="244,88 236,83 236,93" fill="#111" stroke="#111" stroke-width="1"/><text x="92" y="80" text-anchor="start" font-family="monospace" font-size="12" fill="#111">request</text><line x1="244" y1="168" x2="404" y2="168" stroke="#111" stroke-width="1.5"/><polygon points="404,168 396,163 396,173" fill="#111" stroke="#111" stroke-width="1"/><text x="252" y="160" text-anchor="start" font-family="monospace" font-size="12" fill="#111">new</text><line x1="404" y1="208" x2="244" y2="208" stroke="#111" stroke-width="1.5" stroke-dasharray="6 4"/><polygon points="244,208 252,203 252,213" fill="#111" stroke="#111" stroke-width="1"/><text x="252" y="200" text-anchor="start" font-family="monospace" font-size="12" fill="#111">id</text><line x1="244" y1="248" x2="84" y2="248" stroke="#111" stroke-width="1.5" stroke-dasharray="6 4"/><polygon points="84,248 92,243 92,253" fill="#111" stroke="#111" stroke-width="1"/><text x="92" y="240" text-anchor="start" font-family="monospace" font-size="12" fill="#111">session id</text><circle class="sequence-create" data-participant="Session" cx="404" cy="120" r="5" fill="#dcfce7" stroke="#15803d" stroke-width="1.5"/><g class="sequence-destroy" data-participant="Session" stroke="#b91c1c" stroke-width="2"><line x1="398" y1="274" x2="410" y2="286"/><line x1="398" y1="286" x2="410" y2="274"/></g><rect x="24" y="304" width="120" height="32" rx="4" ry="4" fill="#f6f6f6" stroke="#111" stroke-width="1"/><text x="84" y="325" text-anchor="middle" font-family="monospace" font-size="13" fill="#111111">Alice</text><rect x="184" y="304" width="120" height="32" rx="4" ry="4" fill="#f6f6f6" stroke="#111" stroke-width="1"/><text x="244" y="325" text-anchor="middle" font-family="monospace" font-size="13" fill="#111111">Bob</text><rect x="344" y="304" width="120" height="32" rx="4" ry="4" fill="#f6f6f6" stroke="#111" stroke-width="1"/><text x="404" y="325" text-anchor="middle" font-family="monospace" font-size="13" fill="#111111">Session</text></svg>