<svg xmlns="http://www.w3.org/2000/svg" width="328" height="440" viewBox="0 0 328 440"><rect width="100%" height="100%" fill="white"/><rect x="24" y="24" width="120" height="32" rx="4" ry="4" fill="#f6f6f6" stroke="#111" stroke-width="1"/><text x="84" y="45" text-anchor="middle" font-family="monospace" font-size="13">A</text><rect x="184" y="24" width="120" height="32" rx="4" ry="4" fill="#f6f6f6" stroke="#111" stroke-width="1"/><text x="244" y="45" text-anchor="middle" font-family="monospace" font-size="13">B</text><line x1="84" y1="56" x2="84" y2="384" stroke="#555" stroke-width="1" stroke-dasharray="6 4"/><line x1="244" y1="56" x2="244" y2="384" stroke="#555" stroke-width="1" stroke-dasharray="6 4"/><line x1="84" y1="80" x2="244" y2="80" stroke="#111" stroke-width="1.5"/><polygon points="244,80 236,75 236,85" fill="#111" stroke="#111" stroke-width="1"/><text x="92" y="72" text-anchor="start" font-family="monospace" font-size="12">sync call</text><line x1="84" y1="120" x2="244" y2="120" stroke="#111" stroke-width="1.5"/><polyline points="236,115 244,120 236,125" fill="none" stroke="#111" stroke-width="1"/><text x="92" y="112" text-anchor="start" font-family="monospace" font-size="12">async call</text><line x1="84" y1="160" x2="244" y2="160" stroke="#111" stroke-width="1.5" stroke-dasharray="6 4"/><polygon points="244,160 236,155 236,165" fill="#111" stroke="#111" stroke-width="1"/><text x="92" y="152" text-anchor="start" font-family="monospace" font-size="12">dashed reply</text><line x1="84" y1="200" x2="244" y2="200" stroke="#111" stroke-width="1.5" stroke-dasharray="6 4"/><polyline points="236,195 244,200 236,205" fill="none" stroke="#111" stroke-width="1"/><text x="92" y="192" text-anchor="start" font-family="monospace" font-size="12">dashed async</text><line x1="84" y1="240" x2="244" y2="240" stroke="#111" stroke-width="1.5"/><g class="sequence-arrow-end sequence-arrow-end-cross" data-sequence-arrow-end="cross" stroke="#111" stroke-width="1.5"><line x1="240" y1="236" x2="248" y2="244"/><line x1="240" y1="244" x2="248" y2="236"/></g><text x="92" y="232" text-anchor="start" font-family="monospace" font-size="12">lost message</text><line x1="84" y1="280" x2="244" y2="280" stroke="#111" stroke-width="1.5"/><circle class="sequence-arrow-end sequence-arrow-end-circle" data-sequence-arrow-end="circle" cx="244" cy="280" r="4" fill="white" stroke="#111" stroke-width="1.5"/><text x="92" y="272" text-anchor="start" font-family="monospace" font-size="12">open arrow</text><line x1="84" y1="320" x2="244" y2="320" stroke="#111" stroke-width="1.5"/><polygon points="244,320 236,315 236,325" fill="#111" stroke="#111" stroke-width="1"/><text x="92" y="312" text-anchor="start" font-family="monospace" font-size="12">bidirectional</text><line x1="244" y1="360" x2="84" y2="360" stroke="#111" stroke-width="1.5"/><polygon points="84,360 92,355 92,365" fill="#111" stroke="#111" stroke-width="1"/><text x="92" y="352" text-anchor="start" font-family="monospace" font-size="12">bidirectional</text><rect x="24" y="384" width="120" height="32" rx="4" ry="4" fill="#f6f6f6" stroke="#111" stroke-width="1"/><text x="84" y="405" text-anchor="middle" font-family="monospace" font-size="13">A</text><rect x="184" y="384" width="120" height="32" rx="4" ry="4" fill="#f6f6f6" stroke="#111" stroke-width="1"/><text x="244" y="405" text-anchor="middle" font-family="monospace" font-size="13">B</text></svg>