<svg xmlns="http://www.w3.org/2000/svg" width="328" height="400" viewBox="0 0 328 400"><rect width="100%" height="100%" fill="white"/><rect x="24" y="24" width="120" height="32" rx="4" ry="4" fill="#f6f6f6" stroke="#111" stroke-width="1"/><text x="84" y="45" text-anchor="middle" font-family="monospace" font-size="13" fill="#111111">A</text><rect x="184" y="24" width="120" height="32" rx="4" ry="4" fill="#f6f6f6" stroke="#111" stroke-width="1"/><text x="244" y="45" text-anchor="middle" font-family="monospace" font-size="13" fill="#111111">B</text><line x1="84" y1="56" x2="84" y2="344" stroke="#555" stroke-width="1" stroke-dasharray="6 4"/><line x1="244" y1="56" x2="244" y2="344" stroke="#555" stroke-width="1" stroke-dasharray="6 4"/><line x1="84" y1="88" x2="244" y2="88" stroke="#111" stroke-width="1.5"/><polygon points="244,88 236,83 236,93" fill="#111" stroke="#111" stroke-width="1"/><text x="92" y="80" text-anchor="start" font-family="monospace" font-size="12" fill="#111">sync call</text><line x1="84" y1="128" x2="244" y2="128" stroke="#111" stroke-width="1.5"/><polyline points="236,123 244,128 236,133" fill="none" stroke="#111" stroke-width="1"/><text x="92" y="120" text-anchor="start" font-family="monospace" font-size="12" fill="#111">async call</text><line x1="84" y1="168" x2="244" y2="168" stroke="#111" stroke-width="1.5" stroke-dasharray="6 4"/><polygon points="244,168 236,163 236,173" fill="#111" stroke="#111" stroke-width="1"/><text x="92" y="160" text-anchor="start" font-family="monospace" font-size="12" fill="#111">dashed reply</text><line x1="84" y1="208" x2="244" y2="208" stroke="#111" stroke-width="1.5" stroke-dasharray="6 4"/><polyline points="236,203 244,208 236,213" fill="none" stroke="#111" stroke-width="1"/><text x="92" y="200" text-anchor="start" font-family="monospace" font-size="12" fill="#111">dashed async</text><line x1="84" y1="248" x2="244" y2="248" stroke="#111" stroke-width="1.5"/><g class="sequence-arrow-end sequence-arrow-end-cross" data-sequence-arrow-end="cross" stroke="#111" stroke-width="1.5"><line x1="240" y1="244" x2="248" y2="252"/><line x1="240" y1="252" x2="248" y2="244"/></g><text x="92" y="240" text-anchor="start" font-family="monospace" font-size="12" fill="#111">lost message</text><line x1="84" y1="288" x2="244" y2="288" stroke="#111" stroke-width="1.5"/><circle class="sequence-arrow-end sequence-arrow-end-circle" data-sequence-arrow-end="circle" cx="244" cy="288" r="4" fill="white" stroke="#111" stroke-width="1.5"/><text x="92" y="280" text-anchor="start" font-family="monospace" font-size="12" fill="#111">open arrow</text><line x1="84" y1="328" x2="244" y2="328" stroke="#111" stroke-width="1.5"/><polygon points="84,328 92,323 92,333" fill="#111" stroke="#111" stroke-width="1"/><polygon points="244,328 236,323 236,333" fill="#111" stroke="#111" stroke-width="1"/><text x="92" y="320" text-anchor="start" font-family="monospace" font-size="12" fill="#111">bidirectional</text><rect x="24" y="344" width="120" height="32" rx="4" ry="4" fill="#f6f6f6" stroke="#111" stroke-width="1"/><text x="84" y="365" text-anchor="middle" font-family="monospace" font-size="13" fill="#111111">A</text><rect x="184" y="344" width="120" height="32" rx="4" ry="4" fill="#f6f6f6" stroke="#111" stroke-width="1"/><text x="244" y="365" text-anchor="middle" font-family="monospace" font-size="13" fill="#111111">B</text></svg>