<svg xmlns="http://www.w3.org/2000/svg" width="528" height="320" viewBox="0 0 528 320"><rect width="100%" height="100%" fill="white"/><rect x="24" y="24" width="120" height="32" rx="4" ry="4" fill="#f6f6f6" stroke="#111" stroke-width="1"/><text x="84" y="45" text-anchor="middle" font-family="monospace" font-size="13">Alice</text><rect x="184" y="24" width="120" height="32" rx="4" ry="4" fill="#f6f6f6" stroke="#111" stroke-width="1"/><text x="244" y="45" text-anchor="middle" font-family="monospace" font-size="13">Bob</text><rect x="344" y="24" width="120" height="32" rx="4" ry="4" fill="#f6f6f6" stroke="#111" stroke-width="1"/><text x="404" y="45" text-anchor="middle" font-family="monospace" font-size="13">Carol</text><line x1="84" y1="56" x2="84" y2="264" stroke="#555" stroke-width="1" stroke-dasharray="6 4"/><line x1="244" y1="56" x2="244" y2="264" stroke="#555" stroke-width="1" stroke-dasharray="6 4"/><line x1="404" y1="56" x2="404" y2="264" stroke="#555" stroke-width="1" stroke-dasharray="6 4"/><line x1="84" y1="80" x2="244" y2="80" stroke="#111" stroke-width="1.5"/><polygon points="244,80 238,76 238,84" fill="#111"/><text x="166" y="72" text-anchor="middle" font-family="monospace" font-size="12">phase one</text><line x1="244" y1="160" x2="404" y2="160" stroke="#111" stroke-width="1.5"/><polygon points="404,160 398,156 398,164" fill="#111"/><text x="326" y="152" text-anchor="middle" font-family="monospace" font-size="12">phase two</text><line x1="404" y1="240" x2="84" y2="240" stroke="#111" stroke-width="1.5" stroke-dasharray="6 4"/><polygon points="84,240 90,236 90,244" fill="#111"/><text x="246" y="232" text-anchor="middle" font-family="monospace" font-size="12">done</text><line x1="24" y1="120" x2="504" y2="120" stroke="#222" stroke-width="1.5"/><text x="264" y="114" text-anchor="middle" font-family="monospace" font-size="11" font-weight="600" fill="#222">== Separator ==</text><line x1="24" y1="200" x2="504" y2="200" stroke="#222" stroke-width="1.5"/><text x="264" y="194" text-anchor="middle" font-family="monospace" font-size="11" font-weight="600" fill="#222">== Another phase ==</text><rect x="24" y="264" width="120" height="32" rx="4" ry="4" fill="#f6f6f6" stroke="#111" stroke-width="1"/><text x="84" y="285" text-anchor="middle" font-family="monospace" font-size="13">Alice</text><rect x="184" y="264" width="120" height="32" rx="4" ry="4" fill="#f6f6f6" stroke="#111" stroke-width="1"/><text x="244" y="285" text-anchor="middle" font-family="monospace" font-size="13">Bob</text><rect x="344" y="264" width="120" height="32" rx="4" ry="4" fill="#f6f6f6" stroke="#111" stroke-width="1"/><text x="404" y="285" text-anchor="middle" font-family="monospace" font-size="13">Carol</text></svg>