<svg xmlns="http://www.w3.org/2000/svg" width="332" height="256" viewBox="0 0 332 256"><rect width="100%" height="100%" fill="white"/><rect x="16" y="16" width="80" height="32" rx="4" ry="4" fill="#f6f6f6" stroke="#111" stroke-width="1"/><text x="56" y="37" text-anchor="middle" font-family="monospace" font-size="13" fill="#111111">Alice</text><rect x="116" y="16" width="80" height="32" rx="4" ry="4" fill="#f6f6f6" stroke="#111" stroke-width="1"/><text x="156" y="37" text-anchor="middle" font-family="monospace" font-size="13" fill="#111111">Bob</text><rect x="216" y="16" width="80" height="32" rx="4" ry="4" fill="#f6f6f6" stroke="#111" stroke-width="1"/><text x="256" y="37" text-anchor="middle" font-family="monospace" font-size="13" fill="#111111">Carol</text><line x1="56" y1="48" x2="56" y2="208" stroke="#555" stroke-width="1" stroke-dasharray="6 4"/><line x1="156" y1="48" x2="156" y2="208" stroke="#555" stroke-width="1" stroke-dasharray="6 4"/><line x1="256" y1="48" x2="256" y2="208" stroke="#555" stroke-width="1" stroke-dasharray="6 4"/><line x1="56" y1="80" x2="156" y2="80" stroke="#111" stroke-width="1.5"/><polygon points="156,80 148,75 148,85" fill="#111" stroke="#111" stroke-width="1"/><text x="64" y="72" text-anchor="start" font-family="monospace" font-size="12" fill="#111">phase one</text><line x1="156" y1="136" x2="256" y2="136" stroke="#111" stroke-width="1.5"/><polygon points="256,136 248,131 248,141" fill="#111" stroke="#111" stroke-width="1"/><text x="164" y="128" text-anchor="start" font-family="monospace" font-size="12" fill="#111">phase two</text><line x1="256" y1="192" x2="56" y2="192" stroke="#111" stroke-width="1.5" stroke-dasharray="6 4"/><polygon points="56,192 64,187 64,197" fill="#111" stroke="#111" stroke-width="1"/><text x="64" y="184" text-anchor="start" font-family="monospace" font-size="12" fill="#111">done</text><line x1="16" y1="100" x2="316" y2="100" stroke="#222" stroke-width="1.5"/><text x="166" y="94" text-anchor="middle" font-family="monospace" font-size="11" font-weight="600" fill="#222">== Separator ==</text><line x1="16" y1="156" x2="316" y2="156" stroke="#222" stroke-width="1.5"/><text x="166" y="150" text-anchor="middle" font-family="monospace" font-size="11" font-weight="600" fill="#222">== Another phase ==</text><rect x="16" y="208" width="80" height="32" rx="4" ry="4" fill="#f6f6f6" stroke="#111" stroke-width="1"/><text x="56" y="229" text-anchor="middle" font-family="monospace" font-size="13" fill="#111111">Alice</text><rect x="116" y="208" width="80" height="32" rx="4" ry="4" fill="#f6f6f6" stroke="#111" stroke-width="1"/><text x="156" y="229" text-anchor="middle" font-family="monospace" font-size="13" fill="#111111">Bob</text><rect x="216" y="208" width="80" height="32" rx="4" ry="4" fill="#f6f6f6" stroke="#111" stroke-width="1"/><text x="256" y="229" text-anchor="middle" font-family="monospace" font-size="13" fill="#111111">Carol</text></svg>