<svg xmlns="http://www.w3.org/2000/svg" width="712" height="1176" viewBox="0 0 712 1176"><rect width="100%" height="100%" fill="white"/><text x="16" y="16" font-family="monospace" font-size="18" font-weight="600" fill="#111">E-Commerce Order Flow</text><rect x="16" y="44" width="80" height="44" rx="8" ry="8" fill="#fff3e0" stroke="#8a5a00" stroke-width="1"/><circle cx="28" cy="45" r="6" fill="none" stroke="#8a5a00" stroke-width="1.5"/><line x1="28" y1="51" x2="28" y2="65" stroke="#8a5a00" stroke-width="1.5"/><line x1="18" y1="55" x2="38" y2="55" stroke="#8a5a00" stroke-width="1.5"/><line x1="28" y1="65" x2="20" y2="81" stroke="#8a5a00" stroke-width="1.5"/><line x1="28" y1="65" x2="36" y2="81" stroke="#8a5a00" stroke-width="1.5"/><text x="56" y="65" text-anchor="middle" font-family="monospace" font-size="13" fill="#111111">Customer</text><rect x="116" y="44" width="80" height="44" rx="4" ry="4" fill="#f6f6f6" stroke="#111" stroke-width="1"/><text x="156" y="65" text-anchor="middle" font-family="monospace" font-size="13" fill="#111111">Web App</text><rect x="216" y="44" width="80" height="44" rx="4" ry="4" fill="#f6f6f6" stroke="#111" stroke-width="1"/><text x="256" y="65" text-anchor="middle" font-family="monospace" font-size="13" fill="#111111">Order</text><text x="256" y="81" text-anchor="middle" font-family="monospace" font-size="13" fill="#111111">Service</text><rect x="316" y="44" width="80" height="44" rx="4" ry="4" fill="#f6f6f6" stroke="#111" stroke-width="1"/><text x="356" y="65" text-anchor="middle" font-family="monospace" font-size="13" fill="#111111">Inventory</text><rect x="416" y="44" width="80" height="44" rx="4" ry="4" fill="#f6f6f6" stroke="#111" stroke-width="1"/><text x="456" y="65" text-anchor="middle" font-family="monospace" font-size="13" fill="#111111">Payment</text><rect x="516" y="44" width="80" height="44" rx="4" ry="4" fill="#f6f6f6" stroke="#111" stroke-width="1"/><text x="556" y="65" text-anchor="middle" font-family="monospace" font-size="13" fill="#111111">Order DB</text><rect x="616" y="44" width="80" height="44" rx="4" ry="4" fill="#e9f5ff" stroke="#1b5e8a" stroke-width="1"/><ellipse cx="626" cy="66" rx="6" ry="18" fill="#d0eaff" stroke="#1b5e8a" stroke-width="1"/><ellipse cx="686" cy="66" rx="6" ry="18" fill="#d0eaff" stroke="#1b5e8a" stroke-width="1"/><text x="656" y="65" text-anchor="middle" font-family="monospace" font-size="13" fill="#111111">Email</text><text x="656" y="81" text-anchor="middle" font-family="monospace" font-size="13" fill="#111111">Queue</text><line x1="56" y1="88" x2="56" y2="1116" stroke="#555" stroke-width="1" stroke-dasharray="6 4"/><line x1="156" y1="88" x2="156" y2="1116" stroke="#555" stroke-width="1" stroke-dasharray="6 4"/><line x1="256" y1="88" x2="256" y2="1116" stroke="#555" stroke-width="1" stroke-dasharray="6 4"/><line x1="356" y1="88" x2="356" y2="1116" stroke="#555" stroke-width="1" stroke-dasharray="6 4"/><line x1="456" y1="88" x2="456" y2="1116" stroke="#555" stroke-width="1" stroke-dasharray="6 4"/><line x1="556" y1="88" x2="556" y2="1116" stroke="#555" stroke-width="1" stroke-dasharray="6 4"/><line x1="656" y1="88" x2="656" y2="1116" stroke="#555" stroke-width="1" stroke-dasharray="6 4"/><rect x="16" y="280" width="680" height="812" rx="2" ry="2" fill="#fafafa" stroke="#666" stroke-width="1"/><polygon points="16,280 116,280 116,294 110,300 16,300" fill="#fafafa" stroke="#666" stroke-width="1"/><text x="24" y="294" font-family="monospace" font-size="12" font-weight="600" fill="#111">alt in stock</text><line x1="16" y1="868" x2="696" y2="868" stroke="#666" stroke-width="1" stroke-dasharray="5 4"/><text x="24" y="854" font-family="monospace" font-size="11" fill="#333">else out of stock</text><rect x="16" y="364" width="680" height="504" rx="2" ry="2" fill="#fafafa" stroke="#666" stroke-width="1"/><polygon points="16,364 130,364 130,378 124,384 16,384" fill="#fafafa" stroke="#666" stroke-width="1"/><text x="24" y="378" font-family="monospace" font-size="12" font-weight="600" fill="#111">alt payment ok</text><line x1="16" y1="644" x2="696" y2="644" stroke="#666" stroke-width="1" stroke-dasharray="5 4"/><text x="24" y="630" font-family="monospace" font-size="11" fill="#333">else payment failed</text><line x1="56" y1="136" x2="156" y2="136" stroke="#111" stroke-width="1.5"/><polygon points="156,136 148,131 148,141" fill="#111" stroke="#111" stroke-width="1"/><text x="64" y="112" text-anchor="start" font-family="monospace" font-size="12" fill="#111">1 place</text><text x="64" y="128" text-anchor="start" font-family="monospace" font-size="12" fill="#111">order</text><line x1="156" y1="192" x2="256" y2="192" stroke="#111" stroke-width="1.5"/><polygon points="256,192 248,187 248,197" fill="#111" stroke="#111" stroke-width="1"/><text x="164" y="168" text-anchor="start" font-family="monospace" font-size="12" fill="#111">2 POST</text><text x="164" y="184" text-anchor="start" font-family="monospace" font-size="12" fill="#111">/orders</text><line x1="256" y1="248" x2="356" y2="248" stroke="#111" stroke-width="1.5"/><polygon points="356,248 348,243 348,253" fill="#111" stroke="#111" stroke-width="1"/><text x="264" y="224" text-anchor="start" font-family="monospace" font-size="12" fill="#111">3 check</text><text x="264" y="240" text-anchor="start" font-family="monospace" font-size="12" fill="#111">stock</text><line x1="356" y1="316" x2="256" y2="316" stroke="#111" stroke-width="1.5" stroke-dasharray="6 4"/><polygon points="256,316 264,311 264,321" fill="#111" stroke="#111" stroke-width="1"/><text x="264" y="308" text-anchor="start" font-family="monospace" font-size="12" fill="#111">4 available</text><line x1="256" y1="344" x2="456" y2="344" stroke="#111" stroke-width="1.5"/><polygon points="456,344 448,339 448,349" fill="#111" stroke="#111" stroke-width="1"/><text x="264" y="336" text-anchor="start" font-family="monospace" font-size="12" fill="#111">5 charge card</text><line x1="456" y1="400" x2="256" y2="400" stroke="#111" stroke-width="1.5" stroke-dasharray="6 4"/><polygon points="256,400 264,395 264,405" fill="#111" stroke="#111" stroke-width="1"/><text x="264" y="392" text-anchor="start" font-family="monospace" font-size="12" fill="#111">6 charged</text><line x1="256" y1="428" x2="556" y2="428" stroke="#111" stroke-width="1.5"/><polygon points="556,428 548,423 548,433" fill="#111" stroke="#111" stroke-width="1"/><text x="264" y="420" text-anchor="start" font-family="monospace" font-size="12" fill="#111">7 INSERT order</text><line x1="556" y1="456" x2="256" y2="456" stroke="#111" stroke-width="1.5" stroke-dasharray="6 4"/><polygon points="256,456 264,451 264,461" fill="#111" stroke="#111" stroke-width="1"/><text x="264" y="448" text-anchor="start" font-family="monospace" font-size="12" fill="#111">8 order_id</text><line x1="256" y1="484" x2="656" y2="484" stroke="#111" stroke-width="1.5"/><polygon points="656,484 648,479 648,489" fill="#111" stroke="#111" stroke-width="1"/><text x="264" y="476" text-anchor="start" font-family="monospace" font-size="12" fill="#111">9 enqueue confirmation</text><line x1="656" y1="512" x2="256" y2="512" stroke="#111" stroke-width="1.5" stroke-dasharray="6 4"/><polygon points="256,512 264,507 264,517" fill="#111" stroke="#111" stroke-width="1"/><text x="264" y="504" text-anchor="start" font-family="monospace" font-size="12" fill="#111">10 queued</text><line x1="256" y1="556" x2="156" y2="556" stroke="#111" stroke-width="1.5" stroke-dasharray="6 4"/><polygon points="156,556 164,551 164,561" fill="#111" stroke="#111" stroke-width="1"/><text x="164" y="532" text-anchor="start" font-family="monospace" font-size="12" fill="#111">11 201</text><text x="164" y="548" text-anchor="start" font-family="monospace" font-size="12" fill="#111">Created</text><line x1="156" y1="612" x2="56" y2="612" stroke="#111" stroke-width="1.5" stroke-dasharray="6 4"/><polygon points="56,612 64,607 64,617" fill="#111" stroke="#111" stroke-width="1"/><text x="64" y="588" text-anchor="start" font-family="monospace" font-size="12" fill="#111">12 order</text><text x="64" y="604" text-anchor="start" font-family="monospace" font-size="12" fill="#111">confirmed</text><line x1="456" y1="680" x2="256" y2="680" stroke="#111" stroke-width="1.5" stroke-dasharray="6 4"/><polygon points="256,680 264,675 264,685" fill="#111" stroke="#111" stroke-width="1"/><text x="264" y="672" text-anchor="start" font-family="monospace" font-size="12" fill="#111">13 declined</text><line x1="256" y1="740" x2="156" y2="740" stroke="#111" stroke-width="1.5" stroke-dasharray="6 4"/><polygon points="156,740 164,735 164,745" fill="#111" stroke="#111" stroke-width="1"/><text x="164" y="700" text-anchor="start" font-family="monospace" font-size="12" fill="#111">14 402</text><text x="164" y="716" text-anchor="start" font-family="monospace" font-size="12" fill="#111">Payment</text><text x="164" y="732" text-anchor="start" font-family="monospace" font-size="12" fill="#111">Required</text><line x1="156" y1="808" x2="56" y2="808" stroke="#111" stroke-width="1.5" stroke-dasharray="6 4"/><polygon points="56,808 64,803 64,813" fill="#111" stroke="#111" stroke-width="1"/><text x="64" y="784" text-anchor="start" font-family="monospace" font-size="12" fill="#111">15 payment</text><text x="64" y="800" text-anchor="start" font-family="monospace" font-size="12" fill="#111">failed</text><line x1="356" y1="920" x2="256" y2="920" stroke="#111" stroke-width="1.5" stroke-dasharray="6 4"/><polygon points="256,920 264,915 264,925" fill="#111" stroke="#111" stroke-width="1"/><text x="264" y="896" text-anchor="start" font-family="monospace" font-size="12" fill="#111">16</text><text x="264" y="912" text-anchor="start" font-family="monospace" font-size="12" fill="#111">unavailable</text><line x1="256" y1="976" x2="156" y2="976" stroke="#111" stroke-width="1.5" stroke-dasharray="6 4"/><polygon points="156,976 164,971 164,981" fill="#111" stroke="#111" stroke-width="1"/><text x="164" y="952" text-anchor="start" font-family="monospace" font-size="12" fill="#111">17 409</text><text x="164" y="968" text-anchor="start" font-family="monospace" font-size="12" fill="#111">Conflict</text><line x1="156" y1="1032" x2="56" y2="1032" stroke="#111" stroke-width="1.5" stroke-dasharray="6 4"/><polygon points="56,1032 64,1027 64,1037" fill="#111" stroke="#111" stroke-width="1"/><text x="64" y="1008" text-anchor="start" font-family="monospace" font-size="12" fill="#111">18 item out</text><text x="64" y="1024" text-anchor="start" font-family="monospace" font-size="12" fill="#111">of stock</text><rect x="16" y="1116" width="80" height="44" rx="8" ry="8" fill="#fff3e0" stroke="#8a5a00" stroke-width="1"/><circle cx="28" cy="1117" r="6" fill="none" stroke="#8a5a00" stroke-width="1.5"/><line x1="28" y1="1123" x2="28" y2="1137" stroke="#8a5a00" stroke-width="1.5"/><line x1="18" y1="1127" x2="38" y2="1127" stroke="#8a5a00" stroke-width="1.5"/><line x1="28" y1="1137" x2="20" y2="1153" stroke="#8a5a00" stroke-width="1.5"/><line x1="28" y1="1137" x2="36" y2="1153" stroke="#8a5a00" stroke-width="1.5"/><text x="56" y="1137" text-anchor="middle" font-family="monospace" font-size="13" fill="#111111">Customer</text><rect x="116" y="1116" width="80" height="44" rx="4" ry="4" fill="#f6f6f6" stroke="#111" stroke-width="1"/><text x="156" y="1137" text-anchor="middle" font-family="monospace" font-size="13" fill="#111111">Web App</text><rect x="216" y="1116" width="80" height="44" rx="4" ry="4" fill="#f6f6f6" stroke="#111" stroke-width="1"/><text x="256" y="1137" text-anchor="middle" font-family="monospace" font-size="13" fill="#111111">Order</text><text x="256" y="1153" text-anchor="middle" font-family="monospace" font-size="13" fill="#111111">Service</text><rect x="316" y="1116" width="80" height="44" rx="4" ry="4" fill="#f6f6f6" stroke="#111" stroke-width="1"/><text x="356" y="1137" text-anchor="middle" font-family="monospace" font-size="13" fill="#111111">Inventory</text><rect x="416" y="1116" width="80" height="44" rx="4" ry="4" fill="#f6f6f6" stroke="#111" stroke-width="1"/><text x="456" y="1137" text-anchor="middle" font-family="monospace" font-size="13" fill="#111111">Payment</text><rect x="516" y="1116" width="80" height="44" rx="4" ry="4" fill="#f6f6f6" stroke="#111" stroke-width="1"/><text x="556" y="1137" text-anchor="middle" font-family="monospace" font-size="13" fill="#111111">Order DB</text><rect x="616" y="1116" width="80" height="44" rx="4" ry="4" fill="#e9f5ff" stroke="#1b5e8a" stroke-width="1"/><ellipse cx="626" cy="1138" rx="6" ry="18" fill="#d0eaff" stroke="#1b5e8a" stroke-width="1"/><ellipse cx="686" cy="1138" rx="6" ry="18" fill="#d0eaff" stroke="#1b5e8a" stroke-width="1"/><text x="656" y="1137" text-anchor="middle" font-family="monospace" font-size="13" fill="#111111">Email</text><text x="656" y="1153" text-anchor="middle" font-family="monospace" font-size="13" fill="#111111">Queue</text></svg>