<svg xmlns="http://www.w3.org/2000/svg" width="2128" height="1148" viewBox="0 0 2128 1148"><rect width="100%" height="100%" fill="white"/><text x="24" y="24" font-family="monospace" font-size="18" font-weight="600">E-Commerce Order Flow</text><rect x="24" y="52" width="120" height="32" rx="8" ry="8" fill="#fff3e0" stroke="#8a5a00" stroke-width="1"/><circle cx="36" cy="62" r="4" fill="none" stroke="#8a5a00" stroke-width="1"/><line x1="36" y1="66" x2="36" y2="74" stroke="#8a5a00" stroke-width="1"/><line x1="32" y1="70" x2="40" y2="70" stroke="#8a5a00" stroke-width="1"/><line x1="36" y1="74" x2="32" y2="80" stroke="#8a5a00" stroke-width="1"/><line x1="36" y1="74" x2="40" y2="80" stroke="#8a5a00" stroke-width="1"/><text x="84" y="73" text-anchor="middle" font-family="monospace" font-size="13">Customer</text><rect x="184" y="52" width="120" height="32" rx="4" ry="4" fill="#f6f6f6" stroke="#111" stroke-width="1"/><text x="244" y="73" text-anchor="middle" font-family="monospace" font-size="13">Web App</text><rect x="344" y="52" width="120" height="32" rx="4" ry="4" fill="#f6f6f6" stroke="#111" stroke-width="1"/><text x="404" y="73" text-anchor="middle" font-family="monospace" font-size="13">Order Service</text><rect x="504" y="52" width="120" height="32" rx="4" ry="4" fill="#f6f6f6" stroke="#111" stroke-width="1"/><text x="564" y="73" text-anchor="middle" font-family="monospace" font-size="13">Inventory</text><rect x="664" y="52" width="120" height="32" rx="4" ry="4" fill="#f6f6f6" stroke="#111" stroke-width="1"/><text x="724" y="73" text-anchor="middle" font-family="monospace" font-size="13">Payment</text><ellipse cx="884" cy="58" rx="58" ry="6" fill="#e9f5ff" stroke="#1b5e8a" stroke-width="1"/><rect x="826" y="58" width="116" height="20" fill="#e9f5ff" stroke="#1b5e8a" stroke-width="1"/><ellipse cx="884" cy="78" rx="58" ry="6" fill="#e9f5ff" stroke="#1b5e8a" stroke-width="1"/><text x="884" y="73" text-anchor="middle" font-family="monospace" font-size="13">Order DB</text><rect x="984" y="52" width="120" height="32" rx="4" ry="4" fill="#fff0f0" stroke="#8a3030" stroke-width="1"/><line x1="992" y1="60" x2="1096" y2="60" stroke="#8a3030" stroke-width="1"/><line x1="992" y1="66" x2="1096" y2="66" stroke="#8a3030" stroke-width="1"/><line x1="992" y1="72" x2="1096" y2="72" stroke="#8a3030" stroke-width="1"/><text x="1044" y="73" text-anchor="middle" font-family="monospace" font-size="13">Email Queue</text><rect x="1144" y="52" width="120" height="32" rx="4" ry="4" fill="#f6f6f6" stroke="#111" stroke-width="1"/><text x="1204" y="73" text-anchor="middle" font-family="monospace" font-size="13">Web</text><rect x="1304" y="52" width="120" height="32" rx="4" ry="4" fill="#f6f6f6" stroke="#111" stroke-width="1"/><text x="1364" y="73" text-anchor="middle" font-family="monospace" font-size="13">Orders</text><rect x="1464" y="52" width="120" height="32" rx="4" ry="4" fill="#f6f6f6" stroke="#111" stroke-width="1"/><text x="1524" y="73" text-anchor="middle" font-family="monospace" font-size="13">Inv</text><rect x="1624" y="52" width="120" height="32" rx="4" ry="4" fill="#f6f6f6" stroke="#111" stroke-width="1"/><text x="1684" y="73" text-anchor="middle" font-family="monospace" font-size="13">Pay</text><rect x="1784" y="52" width="120" height="32" rx="4" ry="4" fill="#f6f6f6" stroke="#111" stroke-width="1"/><text x="1844" y="73" text-anchor="middle" font-family="monospace" font-size="13">DB</text><rect x="1944" y="52" width="120" height="32" rx="4" ry="4" fill="#f6f6f6" stroke="#111" stroke-width="1"/><text x="2004" y="73" text-anchor="middle" font-family="monospace" font-size="13">Mail</text><line x1="84" y1="84" x2="84" y2="1092" stroke="#555" stroke-width="1" stroke-dasharray="6 4"/><line x1="244" y1="84" x2="244" y2="1092" stroke="#555" stroke-width="1" stroke-dasharray="6 4"/><line x1="404" y1="84" x2="404" y2="1092" stroke="#555" stroke-width="1" stroke-dasharray="6 4"/><line x1="564" y1="84" x2="564" y2="1092" stroke="#555" stroke-width="1" stroke-dasharray="6 4"/><line x1="724" y1="84" x2="724" y2="1092" stroke="#555" stroke-width="1" stroke-dasharray="6 4"/><line x1="884" y1="84" x2="884" y2="1092" stroke="#555" stroke-width="1" stroke-dasharray="6 4"/><line x1="1044" y1="84" x2="1044" y2="1092" stroke="#555" stroke-width="1" stroke-dasharray="6 4"/><line x1="1204" y1="84" x2="1204" y2="1092" stroke="#555" stroke-width="1" stroke-dasharray="6 4"/><line x1="1364" y1="84" x2="1364" y2="1092" stroke="#555" stroke-width="1" stroke-dasharray="6 4"/><line x1="1524" y1="84" x2="1524" y2="1092" stroke="#555" stroke-width="1" stroke-dasharray="6 4"/><line x1="1684" y1="84" x2="1684" y2="1092" stroke="#555" stroke-width="1" stroke-dasharray="6 4"/><line x1="1844" y1="84" x2="1844" y2="1092" stroke="#555" stroke-width="1" stroke-dasharray="6 4"/><line x1="2004" y1="84" x2="2004" y2="1092" stroke="#555" stroke-width="1" stroke-dasharray="6 4"/><rect x="24" y="228" width="2080" height="840" rx="3" ry="3" fill="#fafafa" stroke="#666" stroke-width="1"/><text x="32" y="244" font-family="monospace" font-size="12" font-weight="600">alt in stock</text><line x1="24" y1="868" x2="2104" y2="868" stroke="#666" stroke-width="1" stroke-dasharray="5 4"/><text x="32" y="862" font-family="monospace" font-size="11" fill="#333">out of stock</text><rect x="24" y="348" width="2080" height="520" rx="3" ry="3" fill="#fafafa" stroke="#666" stroke-width="1"/><text x="32" y="364" font-family="monospace" font-size="12" font-weight="600">alt payment ok</text><line x1="24" y1="668" x2="2104" y2="668" stroke="#666" stroke-width="1" stroke-dasharray="5 4"/><text x="32" y="662" font-family="monospace" font-size="11" fill="#333">payment failed</text><line x1="84" y1="108" x2="1204" y2="108" stroke="#111" stroke-width="1.5"/><polygon points="1204,108 1198,104 1198,112" fill="#111"/><text x="646" y="100" text-anchor="middle" font-family="monospace" font-size="12">place order</text><line x1="1204" y1="148" x2="1364" y2="148" stroke="#111" stroke-width="1.5"/><polygon points="1364,148 1358,144 1358,152" fill="#111"/><text x="1286" y="140" text-anchor="middle" font-family="monospace" font-size="12">POST /orders</text><line x1="1364" y1="188" x2="1524" y2="188" stroke="#111" stroke-width="1.5"/><polygon points="1524,188 1518,184 1518,192" fill="#111"/><text x="1446" y="180" text-anchor="middle" font-family="monospace" font-size="12">check stock</text><line x1="1524" y1="268" x2="1364" y2="268" stroke="#111" stroke-width="1.5" stroke-dasharray="6 4"/><polygon points="1364,268 1370,264 1370,272" fill="#111"/><text x="1446" y="260" text-anchor="middle" font-family="monospace" font-size="12">available</text><line x1="1364" y1="308" x2="1684" y2="308" stroke="#111" stroke-width="1.5"/><polygon points="1684,308 1678,304 1678,312" fill="#111"/><text x="1526" y="300" text-anchor="middle" font-family="monospace" font-size="12">charge card</text><line x1="1684" y1="388" x2="1364" y2="388" stroke="#111" stroke-width="1.5" stroke-dasharray="6 4"/><polygon points="1364,388 1370,384 1370,392" fill="#111"/><text x="1526" y="380" text-anchor="middle" font-family="monospace" font-size="12">charged</text><line x1="1364" y1="428" x2="1844" y2="428" stroke="#111" stroke-width="1.5"/><polygon points="1844,428 1838,424 1838,432" fill="#111"/><text x="1606" y="420" text-anchor="middle" font-family="monospace" font-size="12">INSERT order</text><line x1="1844" y1="468" x2="1364" y2="468" stroke="#111" stroke-width="1.5" stroke-dasharray="6 4"/><polygon points="1364,468 1370,464 1370,472" fill="#111"/><text x="1606" y="460" text-anchor="middle" font-family="monospace" font-size="12">order_id</text><line x1="1364" y1="508" x2="2004" y2="508" stroke="#111" stroke-width="1.5"/><polygon points="2004,508 1998,504 1998,512" fill="#111"/><text x="1686" y="500" text-anchor="middle" font-family="monospace" font-size="12">enqueue confirmation</text><line x1="2004" y1="548" x2="1364" y2="548" stroke="#111" stroke-width="1.5" stroke-dasharray="6 4"/><polygon points="1364,548 1370,544 1370,552" fill="#111"/><text x="1686" y="540" text-anchor="middle" font-family="monospace" font-size="12">queued</text><line x1="1364" y1="588" x2="1204" y2="588" stroke="#111" stroke-width="1.5" stroke-dasharray="6 4"/><polygon points="1204,588 1210,584 1210,592" fill="#111"/><text x="1286" y="580" text-anchor="middle" font-family="monospace" font-size="12">201 Created</text><line x1="1204" y1="628" x2="84" y2="628" stroke="#111" stroke-width="1.5" stroke-dasharray="6 4"/><polygon points="84,628 90,624 90,632" fill="#111"/><text x="646" y="620" text-anchor="middle" font-family="monospace" font-size="12">order confirmed</text><line x1="1684" y1="708" x2="1364" y2="708" stroke="#111" stroke-width="1.5" stroke-dasharray="6 4"/><polygon points="1364,708 1370,704 1370,712" fill="#111"/><text x="1526" y="700" text-anchor="middle" font-family="monospace" font-size="12">declined</text><line x1="1364" y1="748" x2="1204" y2="748" stroke="#111" stroke-width="1.5" stroke-dasharray="6 4"/><polygon points="1204,748 1210,744 1210,752" fill="#111"/><text x="1286" y="740" text-anchor="middle" font-family="monospace" font-size="12">402 Payment Required</text><line x1="1204" y1="788" x2="84" y2="788" stroke="#111" stroke-width="1.5" stroke-dasharray="6 4"/><polygon points="84,788 90,784 90,792" fill="#111"/><text x="646" y="780" text-anchor="middle" font-family="monospace" font-size="12">payment failed</text><line x1="1524" y1="908" x2="1364" y2="908" stroke="#111" stroke-width="1.5" stroke-dasharray="6 4"/><polygon points="1364,908 1370,904 1370,912" fill="#111"/><text x="1446" y="900" text-anchor="middle" font-family="monospace" font-size="12">unavailable</text><line x1="1364" y1="948" x2="1204" y2="948" stroke="#111" stroke-width="1.5" stroke-dasharray="6 4"/><polygon points="1204,948 1210,944 1210,952" fill="#111"/><text x="1286" y="940" text-anchor="middle" font-family="monospace" font-size="12">409 Conflict</text><line x1="1204" y1="988" x2="84" y2="988" stroke="#111" stroke-width="1.5" stroke-dasharray="6 4"/><polygon points="84,988 90,984 90,992" fill="#111"/><text x="646" y="980" text-anchor="middle" font-family="monospace" font-size="12">item out of stock</text><rect x="24" y="1092" width="120" height="32" rx="8" ry="8" fill="#fff3e0" stroke="#8a5a00" stroke-width="1"/><circle cx="36" cy="1102" r="4" fill="none" stroke="#8a5a00" stroke-width="1"/><line x1="36" y1="1106" x2="36" y2="1114" stroke="#8a5a00" stroke-width="1"/><line x1="32" y1="1110" x2="40" y2="1110" stroke="#8a5a00" stroke-width="1"/><line x1="36" y1="1114" x2="32" y2="1120" stroke="#8a5a00" stroke-width="1"/><line x1="36" y1="1114" x2="40" y2="1120" stroke="#8a5a00" stroke-width="1"/><text x="84" y="1113" text-anchor="middle" font-family="monospace" font-size="13">Customer</text><rect x="184" y="1092" width="120" height="32" rx="4" ry="4" fill="#f6f6f6" stroke="#111" stroke-width="1"/><text x="244" y="1113" text-anchor="middle" font-family="monospace" font-size="13">Web App</text><rect x="344" y="1092" width="120" height="32" rx="4" ry="4" fill="#f6f6f6" stroke="#111" stroke-width="1"/><text x="404" y="1113" text-anchor="middle" font-family="monospace" font-size="13">Order Service</text><rect x="504" y="1092" width="120" height="32" rx="4" ry="4" fill="#f6f6f6" stroke="#111" stroke-width="1"/><text x="564" y="1113" text-anchor="middle" font-family="monospace" font-size="13">Inventory</text><rect x="664" y="1092" width="120" height="32" rx="4" ry="4" fill="#f6f6f6" stroke="#111" stroke-width="1"/><text x="724" y="1113" text-anchor="middle" font-family="monospace" font-size="13">Payment</text><ellipse cx="884" cy="1098" rx="58" ry="6" fill="#e9f5ff" stroke="#1b5e8a" stroke-width="1"/><rect x="826" y="1098" width="116" height="20" fill="#e9f5ff" stroke="#1b5e8a" stroke-width="1"/><ellipse cx="884" cy="1118" rx="58" ry="6" fill="#e9f5ff" stroke="#1b5e8a" stroke-width="1"/><text x="884" y="1113" text-anchor="middle" font-family="monospace" font-size="13">Order DB</text><rect x="984" y="1092" width="120" height="32" rx="4" ry="4" fill="#fff0f0" stroke="#8a3030" stroke-width="1"/><line x1="992" y1="1100" x2="1096" y2="1100" stroke="#8a3030" stroke-width="1"/><line x1="992" y1="1106" x2="1096" y2="1106" stroke="#8a3030" stroke-width="1"/><line x1="992" y1="1112" x2="1096" y2="1112" stroke="#8a3030" stroke-width="1"/><text x="1044" y="1113" text-anchor="middle" font-family="monospace" font-size="13">Email Queue</text><rect x="1144" y="1092" width="120" height="32" rx="4" ry="4" fill="#f6f6f6" stroke="#111" stroke-width="1"/><text x="1204" y="1113" text-anchor="middle" font-family="monospace" font-size="13">Web</text><rect x="1304" y="1092" width="120" height="32" rx="4" ry="4" fill="#f6f6f6" stroke="#111" stroke-width="1"/><text x="1364" y="1113" text-anchor="middle" font-family="monospace" font-size="13">Orders</text><rect x="1464" y="1092" width="120" height="32" rx="4" ry="4" fill="#f6f6f6" stroke="#111" stroke-width="1"/><text x="1524" y="1113" text-anchor="middle" font-family="monospace" font-size="13">Inv</text><rect x="1624" y="1092" width="120" height="32" rx="4" ry="4" fill="#f6f6f6" stroke="#111" stroke-width="1"/><text x="1684" y="1113" text-anchor="middle" font-family="monospace" font-size="13">Pay</text><rect x="1784" y="1092" width="120" height="32" rx="4" ry="4" fill="#f6f6f6" stroke="#111" stroke-width="1"/><text x="1844" y="1113" text-anchor="middle" font-family="monospace" font-size="13">DB</text><rect x="1944" y="1092" width="120" height="32" rx="4" ry="4" fill="#f6f6f6" stroke="#111" stroke-width="1"/><text x="2004" y="1113" text-anchor="middle" font-family="monospace" font-size="13">Mail</text></svg>