<svg xmlns="http://www.w3.org/2000/svg" width="1128" height="1188" viewBox="0 0 1128 1188"><rect width="100%" height="100%" fill="white"/><text x="24" y="24" font-family="monospace" font-size="18" font-weight="600" fill="#111">E-Commerce Order Flow</text><rect x="24" y="52" width="120" height="32" rx="8" ry="8" fill="#fff3e0" stroke="#8a5a00" stroke-width="1"/><circle cx="36" cy="53" r="6" fill="none" stroke="#8a5a00" stroke-width="1.5"/><line x1="36" y1="59" x2="36" y2="73" stroke="#8a5a00" stroke-width="1.5"/><line x1="26" y1="63" x2="46" y2="63" stroke="#8a5a00" stroke-width="1.5"/><line x1="36" y1="73" x2="28" y2="89" stroke="#8a5a00" stroke-width="1.5"/><line x1="36" y1="73" x2="44" y2="89" stroke="#8a5a00" stroke-width="1.5"/><text x="84" y="73" text-anchor="middle" font-family="monospace" font-size="13" fill="#111111">Customer</text><rect x="184" y="52" width="120" height="32" rx="4" ry="4" fill="#f6f6f6" stroke="#111" stroke-width="1"/><text x="244" y="73" text-anchor="middle" font-family="monospace" font-size="13" fill="#111111">Web App</text><rect x="344" y="52" width="120" height="32" rx="4" ry="4" fill="#f6f6f6" stroke="#111" stroke-width="1"/><text x="404" y="73" text-anchor="middle" font-family="monospace" font-size="13" fill="#111111">Order Service</text><rect x="504" y="52" width="120" height="32" rx="4" ry="4" fill="#f6f6f6" stroke="#111" stroke-width="1"/><text x="564" y="73" text-anchor="middle" font-family="monospace" font-size="13" fill="#111111">Inventory</text><rect x="664" y="52" width="120" height="32" rx="4" ry="4" fill="#f6f6f6" stroke="#111" stroke-width="1"/><text x="724" y="73" text-anchor="middle" font-family="monospace" font-size="13" fill="#111111">Payment</text><rect x="824" y="52" width="120" height="32" rx="4" ry="4" fill="#f6f6f6" stroke="#111" stroke-width="1"/><text x="884" y="73" text-anchor="middle" font-family="monospace" font-size="13" fill="#111111">Order DB</text><rect x="984" y="52" width="120" height="32" rx="4" ry="4" fill="#e9f5ff" stroke="#1b5e8a" stroke-width="1"/><ellipse cx="994" cy="68" rx="6" ry="12" fill="#d0eaff" stroke="#1b5e8a" stroke-width="1"/><ellipse cx="1094" cy="68" rx="6" ry="12" fill="#d0eaff" stroke="#1b5e8a" stroke-width="1"/><text x="1044" y="73" text-anchor="middle" font-family="monospace" font-size="13" fill="#111111">Email Queue</text><line x1="84" y1="84" x2="84" y2="1132" stroke="#555" stroke-width="1" stroke-dasharray="6 4"/><line x1="244" y1="84" x2="244" y2="1132" stroke="#555" stroke-width="1" stroke-dasharray="6 4"/><line x1="404" y1="84" x2="404" y2="1132" stroke="#555" stroke-width="1" stroke-dasharray="6 4"/><line x1="564" y1="84" x2="564" y2="1132" stroke="#555" stroke-width="1" stroke-dasharray="6 4"/><line x1="724" y1="84" x2="724" y2="1132" stroke="#555" stroke-width="1" stroke-dasharray="6 4"/><line x1="884" y1="84" x2="884" y2="1132" stroke="#555" stroke-width="1" stroke-dasharray="6 4"/><line x1="1044" y1="84" x2="1044" y2="1132" stroke="#555" stroke-width="1" stroke-dasharray="6 4"/><rect x="24" y="228" width="1080" height="880" rx="2" ry="2" fill="#fafafa" stroke="#666" stroke-width="1"/><polygon points="24,228 124,228 124,242 118,248 24,248" fill="#fafafa" stroke="#666" stroke-width="1"/><text x="32" y="242" font-family="monospace" font-size="12" font-weight="600" fill="#111">alt in stock</text><line x1="24" y1="908" x2="1104" y2="908" stroke="#666" stroke-width="1" stroke-dasharray="5 4"/><text x="32" y="894" font-family="monospace" font-size="11" fill="#333">else out of stock</text><rect x="24" y="348" width="1080" height="560" rx="2" ry="2" fill="#fafafa" stroke="#666" stroke-width="1"/><polygon points="24,348 138,348 138,362 132,368 24,368" fill="#fafafa" stroke="#666" stroke-width="1"/><text x="32" y="362" font-family="monospace" font-size="12" font-weight="600" fill="#111">alt payment ok</text><line x1="24" y1="668" x2="1104" y2="668" stroke="#666" stroke-width="1" stroke-dasharray="5 4"/><text x="32" y="654" font-family="monospace" font-size="11" fill="#333">else payment failed</text><line x1="84" y1="116" x2="244" y2="116" stroke="#111" stroke-width="1.5"/><polygon points="244,116 236,111 236,121" fill="#111" stroke="#111" stroke-width="1"/><text x="92" y="108" text-anchor="start" font-family="monospace" font-size="12" fill="#111">1 place order</text><line x1="244" y1="156" x2="404" y2="156" stroke="#111" stroke-width="1.5"/><polygon points="404,156 396,151 396,161" fill="#111" stroke="#111" stroke-width="1"/><text x="252" y="148" text-anchor="start" font-family="monospace" font-size="12" fill="#111">2 POST /orders</text><line x1="404" y1="196" x2="564" y2="196" stroke="#111" stroke-width="1.5"/><polygon points="564,196 556,191 556,201" fill="#111" stroke="#111" stroke-width="1"/><text x="412" y="188" text-anchor="start" font-family="monospace" font-size="12" fill="#111">3 check stock</text><line x1="564" y1="276" x2="404" y2="276" stroke="#111" stroke-width="1.5" stroke-dasharray="6 4"/><polygon points="404,276 412,271 412,281" fill="#111" stroke="#111" stroke-width="1"/><text x="412" y="268" text-anchor="start" font-family="monospace" font-size="12" fill="#111">4 available</text><line x1="404" y1="316" x2="724" y2="316" stroke="#111" stroke-width="1.5"/><polygon points="724,316 716,311 716,321" fill="#111" stroke="#111" stroke-width="1"/><text x="412" y="308" text-anchor="start" font-family="monospace" font-size="12" fill="#111">5 charge card</text><line x1="724" y1="396" x2="404" y2="396" stroke="#111" stroke-width="1.5" stroke-dasharray="6 4"/><polygon points="404,396 412,391 412,401" fill="#111" stroke="#111" stroke-width="1"/><text x="412" y="388" text-anchor="start" font-family="monospace" font-size="12" fill="#111">6 charged</text><line x1="404" y1="436" x2="884" y2="436" stroke="#111" stroke-width="1.5"/><polygon points="884,436 876,431 876,441" fill="#111" stroke="#111" stroke-width="1"/><text x="412" y="428" text-anchor="start" font-family="monospace" font-size="12" fill="#111">7 INSERT order</text><line x1="884" y1="476" x2="404" y2="476" stroke="#111" stroke-width="1.5" stroke-dasharray="6 4"/><polygon points="404,476 412,471 412,481" fill="#111" stroke="#111" stroke-width="1"/><text x="412" y="468" text-anchor="start" font-family="monospace" font-size="12" fill="#111">8 order_id</text><line x1="404" y1="516" x2="1044" y2="516" stroke="#111" stroke-width="1.5"/><polygon points="1044,516 1036,511 1036,521" fill="#111" stroke="#111" stroke-width="1"/><text x="412" y="508" text-anchor="start" font-family="monospace" font-size="12" fill="#111">9 enqueue confirmation</text><line x1="1044" y1="556" x2="404" y2="556" stroke="#111" stroke-width="1.5" stroke-dasharray="6 4"/><polygon points="404,556 412,551 412,561" fill="#111" stroke="#111" stroke-width="1"/><text x="412" y="548" text-anchor="start" font-family="monospace" font-size="12" fill="#111">10 queued</text><line x1="404" y1="596" x2="244" y2="596" stroke="#111" stroke-width="1.5" stroke-dasharray="6 4"/><polygon points="244,596 252,591 252,601" fill="#111" stroke="#111" stroke-width="1"/><text x="252" y="588" text-anchor="start" font-family="monospace" font-size="12" fill="#111">11 201 Created</text><line x1="244" y1="636" x2="84" y2="636" stroke="#111" stroke-width="1.5" stroke-dasharray="6 4"/><polygon points="84,636 92,631 92,641" fill="#111" stroke="#111" stroke-width="1"/><text x="92" y="628" text-anchor="start" font-family="monospace" font-size="12" fill="#111">12 order confirmed</text><line x1="724" y1="716" x2="404" y2="716" stroke="#111" stroke-width="1.5" stroke-dasharray="6 4"/><polygon points="404,716 412,711 412,721" fill="#111" stroke="#111" stroke-width="1"/><text x="412" y="708" text-anchor="start" font-family="monospace" font-size="12" fill="#111">13 declined</text><line x1="404" y1="772" x2="244" y2="772" stroke="#111" stroke-width="1.5" stroke-dasharray="6 4"/><polygon points="244,772 252,767 252,777" fill="#111" stroke="#111" stroke-width="1"/><text x="252" y="748" text-anchor="start" font-family="monospace" font-size="12" fill="#111">14 402 Payment</text><text x="252" y="764" text-anchor="start" font-family="monospace" font-size="12" fill="#111">Required</text><line x1="244" y1="836" x2="84" y2="836" stroke="#111" stroke-width="1.5" stroke-dasharray="6 4"/><polygon points="84,836 92,831 92,841" fill="#111" stroke="#111" stroke-width="1"/><text x="92" y="828" text-anchor="start" font-family="monospace" font-size="12" fill="#111">15 payment failed</text><line x1="564" y1="956" x2="404" y2="956" stroke="#111" stroke-width="1.5" stroke-dasharray="6 4"/><polygon points="404,956 412,951 412,961" fill="#111" stroke="#111" stroke-width="1"/><text x="412" y="948" text-anchor="start" font-family="monospace" font-size="12" fill="#111">16 unavailable</text><line x1="404" y1="996" x2="244" y2="996" stroke="#111" stroke-width="1.5" stroke-dasharray="6 4"/><polygon points="244,996 252,991 252,1001" fill="#111" stroke="#111" stroke-width="1"/><text x="252" y="988" text-anchor="start" font-family="monospace" font-size="12" fill="#111">17 409 Conflict</text><line x1="244" y1="1036" x2="84" y2="1036" stroke="#111" stroke-width="1.5" stroke-dasharray="6 4"/><polygon points="84,1036 92,1031 92,1041" fill="#111" stroke="#111" stroke-width="1"/><text x="92" y="1028" text-anchor="start" font-family="monospace" font-size="12" fill="#111">18 item out of stock</text><rect x="24" y="1132" width="120" height="32" rx="8" ry="8" fill="#fff3e0" stroke="#8a5a00" stroke-width="1"/><circle cx="36" cy="1133" r="6" fill="none" stroke="#8a5a00" stroke-width="1.5"/><line x1="36" y1="1139" x2="36" y2="1153" stroke="#8a5a00" stroke-width="1.5"/><line x1="26" y1="1143" x2="46" y2="1143" stroke="#8a5a00" stroke-width="1.5"/><line x1="36" y1="1153" x2="28" y2="1169" stroke="#8a5a00" stroke-width="1.5"/><line x1="36" y1="1153" x2="44" y2="1169" stroke="#8a5a00" stroke-width="1.5"/><text x="84" y="1153" text-anchor="middle" font-family="monospace" font-size="13" fill="#111111">Customer</text><rect x="184" y="1132" width="120" height="32" rx="4" ry="4" fill="#f6f6f6" stroke="#111" stroke-width="1"/><text x="244" y="1153" text-anchor="middle" font-family="monospace" font-size="13" fill="#111111">Web App</text><rect x="344" y="1132" width="120" height="32" rx="4" ry="4" fill="#f6f6f6" stroke="#111" stroke-width="1"/><text x="404" y="1153" text-anchor="middle" font-family="monospace" font-size="13" fill="#111111">Order Service</text><rect x="504" y="1132" width="120" height="32" rx="4" ry="4" fill="#f6f6f6" stroke="#111" stroke-width="1"/><text x="564" y="1153" text-anchor="middle" font-family="monospace" font-size="13" fill="#111111">Inventory</text><rect x="664" y="1132" width="120" height="32" rx="4" ry="4" fill="#f6f6f6" stroke="#111" stroke-width="1"/><text x="724" y="1153" text-anchor="middle" font-family="monospace" font-size="13" fill="#111111">Payment</text><rect x="824" y="1132" width="120" height="32" rx="4" ry="4" fill="#f6f6f6" stroke="#111" stroke-width="1"/><text x="884" y="1153" text-anchor="middle" font-family="monospace" font-size="13" fill="#111111">Order DB</text><rect x="984" y="1132" width="120" height="32" rx="4" ry="4" fill="#e9f5ff" stroke="#1b5e8a" stroke-width="1"/><ellipse cx="994" cy="1148" rx="6" ry="12" fill="#d0eaff" stroke="#1b5e8a" stroke-width="1"/><ellipse cx="1094" cy="1148" rx="6" ry="12" fill="#d0eaff" stroke="#1b5e8a" stroke-width="1"/><text x="1044" y="1153" text-anchor="middle" font-family="monospace" font-size="13" fill="#111111">Email Queue</text></svg>