<svg xmlns="http://www.w3.org/2000/svg" width="1168" height="1188" viewBox="0 0 1168 1188"><rect width="100%" height="100%" fill="white"/><text x="24" y="24" font-family="monospace" font-size="18" font-weight="600" fill="#111">E-Commerce Order Flow</text><rect x="24" y="52" width="120" height="32" rx="8" ry="8" fill="#fff3e0" stroke="#8a5a00" stroke-width="1"/><circle cx="36" cy="62" r="4" fill="none" stroke="#8a5a00" stroke-width="1"/><line x1="36" y1="66" x2="36" y2="74" stroke="#8a5a00" stroke-width="1"/><line x1="32" y1="70" x2="40" y2="70" stroke="#8a5a00" stroke-width="1"/><line x1="36" y1="74" x2="32" y2="80" stroke="#8a5a00" stroke-width="1"/><line x1="36" y1="74" x2="40" y2="80" stroke="#8a5a00" stroke-width="1"/><text x="84" y="73" text-anchor="middle" font-family="monospace" font-size="13" fill="#111111">Customer</text><rect x="184" y="52" width="120" height="32" rx="4" ry="4" fill="#f6f6f6" stroke="#111" stroke-width="1"/><text x="244" y="73" text-anchor="middle" font-family="monospace" font-size="13" fill="#111111">Web App</text><rect x="344" y="52" width="120" height="32" rx="4" ry="4" fill="#f6f6f6" stroke="#111" stroke-width="1"/><text x="404" y="73" text-anchor="middle" font-family="monospace" font-size="13" fill="#111111">Order Service</text><rect x="504" y="52" width="120" height="32" rx="4" ry="4" fill="#f6f6f6" stroke="#111" stroke-width="1"/><text x="564" y="73" text-anchor="middle" font-family="monospace" font-size="13" fill="#111111">Inventory</text><rect x="664" y="52" width="120" height="32" rx="4" ry="4" fill="#f6f6f6" stroke="#111" stroke-width="1"/><text x="724" y="73" text-anchor="middle" font-family="monospace" font-size="13" fill="#111111">Payment</text><rect x="824" y="52" width="120" height="32" rx="4" ry="4" fill="#f6f6f6" stroke="#111" stroke-width="1"/><text x="884" y="73" text-anchor="middle" font-family="monospace" font-size="13" fill="#111111">Order DB</text><rect x="984" y="52" width="120" height="32" rx="4" ry="4" fill="#fff0f0" stroke="#8a3030" stroke-width="1"/><line x1="992" y1="60" x2="1096" y2="60" stroke="#8a3030" stroke-width="1"/><line x1="992" y1="66" x2="1096" y2="66" stroke="#8a3030" stroke-width="1"/><line x1="992" y1="72" x2="1096" y2="72" stroke="#8a3030" stroke-width="1"/><text x="1044" y="73" text-anchor="middle" font-family="monospace" font-size="13" fill="#111111">Email Queue</text><line x1="84" y1="84" x2="84" y2="1132" stroke="#555" stroke-width="1" stroke-dasharray="6 4"/><line x1="244" y1="84" x2="244" y2="1132" stroke="#555" stroke-width="1" stroke-dasharray="6 4"/><line x1="404" y1="84" x2="404" y2="1132" stroke="#555" stroke-width="1" stroke-dasharray="6 4"/><line x1="564" y1="84" x2="564" y2="1132" stroke="#555" stroke-width="1" stroke-dasharray="6 4"/><line x1="724" y1="84" x2="724" y2="1132" stroke="#555" stroke-width="1" stroke-dasharray="6 4"/><line x1="884" y1="84" x2="884" y2="1132" stroke="#555" stroke-width="1" stroke-dasharray="6 4"/><line x1="1044" y1="84" x2="1044" y2="1132" stroke="#555" stroke-width="1" stroke-dasharray="6 4"/><rect x="24" y="228" width="1120" height="880" rx="2" ry="2" fill="#fafafa" stroke="#666" stroke-width="1"/><polygon points="24,228 124,228 124,242 118,248 24,248" fill="#fafafa" stroke="#666" stroke-width="1"/><text x="32" y="242" font-family="monospace" font-size="12" font-weight="600" fill="#111">alt in stock</text><line x1="24" y1="908" x2="1144" y2="908" stroke="#666" stroke-width="1" stroke-dasharray="5 4"/><text x="32" y="894" font-family="monospace" font-size="11" fill="#333">else out of stock</text><rect x="24" y="348" width="1120" height="560" rx="2" ry="2" fill="#fafafa" stroke="#666" stroke-width="1"/><polygon points="24,348 138,348 138,362 132,368 24,368" fill="#fafafa" stroke="#666" stroke-width="1"/><text x="32" y="362" font-family="monospace" font-size="12" font-weight="600" fill="#111">alt payment ok</text><line x1="24" y1="668" x2="1144" y2="668" stroke="#666" stroke-width="1" stroke-dasharray="5 4"/><text x="32" y="654" font-family="monospace" font-size="11" fill="#333">else payment failed</text><line x1="84" y1="108" x2="244" y2="108" stroke="#111" stroke-width="1.5"/><polygon points="244,108 236,103 236,113" fill="#111" stroke="#111" stroke-width="1"/><text x="92" y="100" text-anchor="start" font-family="monospace" font-size="12" fill="#111">1 place order</text><line x1="244" y1="148" x2="404" y2="148" stroke="#111" stroke-width="1.5"/><polygon points="404,148 396,143 396,153" fill="#111" stroke="#111" stroke-width="1"/><text x="252" y="140" text-anchor="start" font-family="monospace" font-size="12" fill="#111">2 POST /orders</text><line x1="404" y1="188" x2="564" y2="188" stroke="#111" stroke-width="1.5"/><polygon points="564,188 556,183 556,193" fill="#111" stroke="#111" stroke-width="1"/><text x="412" y="180" text-anchor="start" font-family="monospace" font-size="12" fill="#111">3 check stock</text><line x1="564" y1="268" x2="404" y2="268" stroke="#111" stroke-width="1.5" stroke-dasharray="6 4"/><polygon points="404,268 412,263 412,273" fill="#111" stroke="#111" stroke-width="1"/><text x="412" y="260" text-anchor="start" font-family="monospace" font-size="12" fill="#111">4 available</text><line x1="404" y1="308" x2="724" y2="308" stroke="#111" stroke-width="1.5"/><polygon points="724,308 716,303 716,313" fill="#111" stroke="#111" stroke-width="1"/><text x="412" y="300" text-anchor="start" font-family="monospace" font-size="12" fill="#111">5 charge card</text><line x1="724" y1="388" x2="404" y2="388" stroke="#111" stroke-width="1.5" stroke-dasharray="6 4"/><polygon points="404,388 412,383 412,393" fill="#111" stroke="#111" stroke-width="1"/><text x="412" y="380" text-anchor="start" font-family="monospace" font-size="12" fill="#111">6 charged</text><line x1="404" y1="428" x2="884" y2="428" stroke="#111" stroke-width="1.5"/><polygon points="884,428 876,423 876,433" fill="#111" stroke="#111" stroke-width="1"/><text x="412" y="420" text-anchor="start" font-family="monospace" font-size="12" fill="#111">7 INSERT order</text><line x1="884" y1="468" x2="404" y2="468" stroke="#111" stroke-width="1.5" stroke-dasharray="6 4"/><polygon points="404,468 412,463 412,473" fill="#111" stroke="#111" stroke-width="1"/><text x="412" y="460" text-anchor="start" font-family="monospace" font-size="12" fill="#111">8 order_id</text><line x1="404" y1="508" x2="1044" y2="508" stroke="#111" stroke-width="1.5"/><polygon points="1044,508 1036,503 1036,513" fill="#111" stroke="#111" stroke-width="1"/><text x="412" y="500" text-anchor="start" font-family="monospace" font-size="12" fill="#111">9 enqueue confirmation</text><line x1="1044" y1="548" x2="404" y2="548" stroke="#111" stroke-width="1.5" stroke-dasharray="6 4"/><polygon points="404,548 412,543 412,553" fill="#111" stroke="#111" stroke-width="1"/><text x="412" y="540" text-anchor="start" font-family="monospace" font-size="12" fill="#111">10 queued</text><line x1="404" y1="588" x2="244" y2="588" stroke="#111" stroke-width="1.5" stroke-dasharray="6 4"/><polygon points="244,588 252,583 252,593" fill="#111" stroke="#111" stroke-width="1"/><text x="252" y="580" text-anchor="start" font-family="monospace" font-size="12" fill="#111">11 201 Created</text><line x1="244" y1="628" x2="84" y2="628" stroke="#111" stroke-width="1.5" stroke-dasharray="6 4"/><polygon points="84,628 92,623 92,633" fill="#111" stroke="#111" stroke-width="1"/><text x="92" y="620" text-anchor="start" font-family="monospace" font-size="12" fill="#111">12 order confirmed</text><line x1="724" y1="708" x2="404" y2="708" stroke="#111" stroke-width="1.5" stroke-dasharray="6 4"/><polygon points="404,708 412,703 412,713" fill="#111" stroke="#111" stroke-width="1"/><text x="412" y="700" text-anchor="start" font-family="monospace" font-size="12" fill="#111">13 declined</text><line x1="404" y1="748" x2="244" y2="748" stroke="#111" stroke-width="1.5" stroke-dasharray="6 4"/><polygon points="244,748 252,743 252,753" fill="#111" stroke="#111" stroke-width="1"/><text x="252" y="724" text-anchor="start" font-family="monospace" font-size="12" fill="#111">14 402 Payment</text><text x="252" y="740" text-anchor="start" font-family="monospace" font-size="12" fill="#111">Required</text><line x1="244" y1="828" x2="84" y2="828" stroke="#111" stroke-width="1.5" stroke-dasharray="6 4"/><polygon points="84,828 92,823 92,833" fill="#111" stroke="#111" stroke-width="1"/><text x="92" y="820" text-anchor="start" font-family="monospace" font-size="12" fill="#111">15 payment failed</text><line x1="564" y1="948" x2="404" y2="948" stroke="#111" stroke-width="1.5" stroke-dasharray="6 4"/><polygon points="404,948 412,943 412,953" fill="#111" stroke="#111" stroke-width="1"/><text x="412" y="940" text-anchor="start" font-family="monospace" font-size="12" fill="#111">16 unavailable</text><line x1="404" y1="988" x2="244" y2="988" stroke="#111" stroke-width="1.5" stroke-dasharray="6 4"/><polygon points="244,988 252,983 252,993" fill="#111" stroke="#111" stroke-width="1"/><text x="252" y="980" text-anchor="start" font-family="monospace" font-size="12" fill="#111">17 409 Conflict</text><line x1="244" y1="1028" x2="84" y2="1028" stroke="#111" stroke-width="1.5" stroke-dasharray="6 4"/><polygon points="84,1028 92,1023 92,1033" fill="#111" stroke="#111" stroke-width="1"/><text x="92" y="1020" text-anchor="start" font-family="monospace" font-size="12" fill="#111">18 item out of stock</text><rect x="24" y="1132" width="120" height="32" rx="8" ry="8" fill="#fff3e0" stroke="#8a5a00" stroke-width="1"/><circle cx="36" cy="1142" r="4" fill="none" stroke="#8a5a00" stroke-width="1"/><line x1="36" y1="1146" x2="36" y2="1154" stroke="#8a5a00" stroke-width="1"/><line x1="32" y1="1150" x2="40" y2="1150" stroke="#8a5a00" stroke-width="1"/><line x1="36" y1="1154" x2="32" y2="1160" stroke="#8a5a00" stroke-width="1"/><line x1="36" y1="1154" x2="40" y2="1160" stroke="#8a5a00" stroke-width="1"/><text x="84" y="1153" text-anchor="middle" font-family="monospace" font-size="13" fill="#111111">Customer</text><rect x="184" y="1132" width="120" height="32" rx="4" ry="4" fill="#f6f6f6" stroke="#111" stroke-width="1"/><text x="244" y="1153" text-anchor="middle" font-family="monospace" font-size="13" fill="#111111">Web App</text><rect x="344" y="1132" width="120" height="32" rx="4" ry="4" fill="#f6f6f6" stroke="#111" stroke-width="1"/><text x="404" y="1153" text-anchor="middle" font-family="monospace" font-size="13" fill="#111111">Order Service</text><rect x="504" y="1132" width="120" height="32" rx="4" ry="4" fill="#f6f6f6" stroke="#111" stroke-width="1"/><text x="564" y="1153" text-anchor="middle" font-family="monospace" font-size="13" fill="#111111">Inventory</text><rect x="664" y="1132" width="120" height="32" rx="4" ry="4" fill="#f6f6f6" stroke="#111" stroke-width="1"/><text x="724" y="1153" text-anchor="middle" font-family="monospace" font-size="13" fill="#111111">Payment</text><rect x="824" y="1132" width="120" height="32" rx="4" ry="4" fill="#f6f6f6" stroke="#111" stroke-width="1"/><text x="884" y="1153" text-anchor="middle" font-family="monospace" font-size="13" fill="#111111">Order DB</text><rect x="984" y="1132" width="120" height="32" rx="4" ry="4" fill="#fff0f0" stroke="#8a3030" stroke-width="1"/><line x1="992" y1="1140" x2="1096" y2="1140" stroke="#8a3030" stroke-width="1"/><line x1="992" y1="1146" x2="1096" y2="1146" stroke="#8a3030" stroke-width="1"/><line x1="992" y1="1152" x2="1096" y2="1152" stroke="#8a3030" stroke-width="1"/><text x="1044" y="1153" text-anchor="middle" font-family="monospace" font-size="13" fill="#111111">Email Queue</text></svg>