<svg xmlns="http://www.w3.org/2000/svg" width="328" height="628" viewBox="0 0 328 628"><rect width="100%" height="100%" fill="white"/><text x="24" y="24" font-family="monospace" font-size="18" font-weight="600">Arrow Variants</text><rect x="24" y="52" width="120" height="32" rx="4" ry="4" fill="#f6f6f6" stroke="#111" stroke-width="1"/><text x="84" y="73" text-anchor="middle" font-family="monospace" font-size="13">Alice</text><rect x="184" y="52" width="120" height="32" rx="4" ry="4" fill="#f6f6f6" stroke="#111" stroke-width="1"/><text x="244" y="73" text-anchor="middle" font-family="monospace" font-size="13">Bob</text><line x1="84" y1="84" x2="84" y2="572" stroke="#555" stroke-width="1" stroke-dasharray="6 4"/><line x1="244" y1="84" x2="244" y2="572" stroke="#555" stroke-width="1" stroke-dasharray="6 4"/><line x1="84" y1="108" x2="244" y2="108" stroke="#111" stroke-width="1.5"/><polygon points="244,108 238,104 238,112" fill="#111"/><text x="166" y="100" text-anchor="middle" font-family="monospace" font-size="12">synchronous</text><line x1="84" y1="148" x2="244" y2="148" stroke="#111" stroke-width="1.5"/><polygon points="244,148 238,144 238,152" fill="#111"/><text x="166" y="140" text-anchor="middle" font-family="monospace" font-size="12">thin arrow</text><line x1="84" y1="188" x2="244" y2="188" stroke="#111" stroke-width="1.5" stroke-dasharray="6 4"/><polygon points="244,188 238,184 238,192" fill="#111"/><text x="166" y="180" text-anchor="middle" font-family="monospace" font-size="12">dashed</text><line x1="84" y1="228" x2="244" y2="228" stroke="#111" stroke-width="1.5" stroke-dasharray="6 4"/><polygon points="244,228 238,224 238,232" fill="#111"/><text x="166" y="220" text-anchor="middle" font-family="monospace" font-size="12">dashed thin</text><line x1="244" y1="268" x2="84" y2="268" stroke="#111" stroke-width="1.5"/><polygon points="84,268 90,264 90,272" fill="#111"/><text x="166" y="260" text-anchor="middle" font-family="monospace" font-size="12">reverse sync</text><line x1="244" y1="308" x2="84" y2="308" stroke="#111" stroke-width="1.5"/><polygon points="84,308 90,304 90,312" fill="#111"/><text x="166" y="300" text-anchor="middle" font-family="monospace" font-size="12">reverse thin</text><line x1="84" y1="348" x2="244" y2="348" stroke="#111" stroke-width="1.5"/><polygon points="244,348 238,344 238,352" fill="#111"/><text x="166" y="340" text-anchor="middle" font-family="monospace" font-size="12">circle endpoint</text><line x1="84" y1="388" x2="244" y2="388" stroke="#111" stroke-width="1.5"/><polygon points="244,388 238,384 238,392" fill="#111"/><text x="166" y="380" text-anchor="middle" font-family="monospace" font-size="12">cross endpoint</text><line x1="84" y1="428" x2="244" y2="428" stroke="#111" stroke-width="1.5"/><polygon points="244,428 238,424 238,432" fill="#111"/><text x="166" y="420" text-anchor="middle" font-family="monospace" font-size="12">bidirectional</text><line x1="244" y1="468" x2="84" y2="468" stroke="#111" stroke-width="1.5"/><polygon points="84,468 90,464 90,472" fill="#111"/><text x="166" y="460" text-anchor="middle" font-family="monospace" font-size="12">bidirectional</text><line x1="84" y1="508" x2="244" y2="508" stroke="#111" stroke-width="1.5" stroke-dasharray="6 4"/><polygon points="244,508 238,504 238,512" fill="#111"/><text x="166" y="500" text-anchor="middle" font-family="monospace" font-size="12">dashed bidirectional</text><line x1="244" y1="548" x2="84" y2="548" stroke="#111" stroke-width="1.5" stroke-dasharray="6 4"/><polygon points="84,548 90,544 90,552" fill="#111"/><text x="166" y="540" text-anchor="middle" font-family="monospace" font-size="12">dashed bidirectional</text><rect x="24" y="572" width="120" height="32" rx="4" ry="4" fill="#f6f6f6" stroke="#111" stroke-width="1"/><text x="84" y="593" text-anchor="middle" font-family="monospace" font-size="13">Alice</text><rect x="184" y="572" width="120" height="32" rx="4" ry="4" fill="#f6f6f6" stroke="#111" stroke-width="1"/><text x="244" y="593" text-anchor="middle" font-family="monospace" font-size="13">Bob</text></svg>