<svg xmlns="http://www.w3.org/2000/svg" width="328" height="548" viewBox="0 0 328 548"><rect width="100%" height="100%" fill="white"/><text x="24" y="24" font-family="monospace" font-size="18" font-weight="600" fill="#111">Arrow Variants</text><rect x="24" y="52" width="120" height="32" rx="4" ry="4" fill="#f6f6f6" stroke="#111" stroke-width="1"/><text x="84" y="73" text-anchor="middle" font-family="monospace" font-size="13" fill="#111111">Alice</text><rect x="184" y="52" width="120" height="32" rx="4" ry="4" fill="#f6f6f6" stroke="#111" stroke-width="1"/><text x="244" y="73" text-anchor="middle" font-family="monospace" font-size="13" fill="#111111">Bob</text><line x1="84" y1="84" x2="84" y2="492" stroke="#555" stroke-width="1" stroke-dasharray="6 4"/><line x1="244" y1="84" x2="244" y2="492" stroke="#555" stroke-width="1" stroke-dasharray="6 4"/><line x1="84" y1="108" x2="244" y2="108" stroke="#111" stroke-width="1.5"/><polygon points="244,108 236,103 236,113" fill="#111" stroke="#111" stroke-width="1"/><text x="92" y="100" text-anchor="start" font-family="monospace" font-size="12" fill="#111">synchronous</text><line x1="84" y1="148" x2="244" y2="148" stroke="#111" stroke-width="1.5"/><polyline points="236,143 244,148 236,153" fill="none" stroke="#111" stroke-width="1"/><text x="92" y="140" text-anchor="start" font-family="monospace" font-size="12" fill="#111">thin arrow</text><line x1="84" y1="188" x2="244" y2="188" stroke="#111" stroke-width="1.5" stroke-dasharray="6 4"/><polygon points="244,188 236,183 236,193" fill="#111" stroke="#111" stroke-width="1"/><text x="92" y="180" text-anchor="start" font-family="monospace" font-size="12" fill="#111">dashed</text><line x1="84" y1="228" x2="244" y2="228" stroke="#111" stroke-width="1.5" stroke-dasharray="6 4"/><polyline points="236,223 244,228 236,233" fill="none" stroke="#111" stroke-width="1"/><text x="92" y="220" text-anchor="start" font-family="monospace" font-size="12" fill="#111">dashed thin</text><line x1="84" y1="268" x2="244" y2="268" stroke="#111" stroke-width="1.5"/><polygon points="244,268 236,263 236,273" fill="#111" stroke="#111" stroke-width="1"/><text x="92" y="260" text-anchor="start" font-family="monospace" font-size="12" fill="#111">reverse sync</text><line x1="84" y1="308" x2="244" y2="308" stroke="#111" stroke-width="1.5"/><polyline points="236,303 244,308 236,313" fill="none" stroke="#111" stroke-width="1"/><text x="92" y="300" text-anchor="start" font-family="monospace" font-size="12" fill="#111">reverse thin</text><line x1="84" y1="348" x2="244" y2="348" stroke="#111" stroke-width="1.5"/><circle class="sequence-arrow-end sequence-arrow-end-circle" data-sequence-arrow-end="circle" cx="244" cy="348" r="4" fill="white" stroke="#111" stroke-width="1.5"/><text x="92" y="340" text-anchor="start" font-family="monospace" font-size="12" fill="#111">circle endpoint</text><line x1="84" y1="388" x2="244" y2="388" stroke="#111" stroke-width="1.5"/><g class="sequence-arrow-end sequence-arrow-end-cross" data-sequence-arrow-end="cross" stroke="#111" stroke-width="1.5"><line x1="240" y1="384" x2="248" y2="392"/><line x1="240" y1="392" x2="248" y2="384"/></g><text x="92" y="380" text-anchor="start" font-family="monospace" font-size="12" fill="#111">cross endpoint</text><line x1="84" y1="428" x2="244" y2="428" stroke="#111" stroke-width="1.5"/><polygon points="84,428 92,423 92,433" fill="#111" stroke="#111" stroke-width="1"/><polygon points="244,428 236,423 236,433" fill="#111" stroke="#111" stroke-width="1"/><text x="92" y="420" text-anchor="start" font-family="monospace" font-size="12" fill="#111">bidirectional</text><line x1="84" y1="468" x2="244" y2="468" stroke="#111" stroke-width="1.5" stroke-dasharray="6 4"/><polygon points="84,468 92,463 92,473" fill="#111" stroke="#111" stroke-width="1"/><polygon points="244,468 236,463 236,473" fill="#111" stroke="#111" stroke-width="1"/><text x="92" y="460" text-anchor="start" font-family="monospace" font-size="12" fill="#111">dashed bidirectional</text><rect x="24" y="492" width="120" height="32" rx="4" ry="4" fill="#f6f6f6" stroke="#111" stroke-width="1"/><text x="84" y="513" text-anchor="middle" font-family="monospace" font-size="13" fill="#111111">Alice</text><rect x="184" y="492" width="120" height="32" rx="4" ry="4" fill="#f6f6f6" stroke="#111" stroke-width="1"/><text x="244" y="513" text-anchor="middle" font-family="monospace" font-size="13" fill="#111111">Bob</text></svg>