<svg xmlns="http://www.w3.org/2000/svg" width="328" height="548" viewBox="0 0 328 548"><rect width="100%" height="100%" fill="white"/><text x="24" y="24" font-family="monospace" font-size="18" font-weight="600" fill="#111">Arrow Variants</text><rect x="24" y="52" width="120" height="32" rx="4" ry="4" fill="#f6f6f6" stroke="#111" stroke-width="1"/><text x="84" y="73" text-anchor="middle" font-family="monospace" font-size="13" fill="#111111">Alice</text><rect x="184" y="52" width="120" height="32" rx="4" ry="4" fill="#f6f6f6" stroke="#111" stroke-width="1"/><text x="244" y="73" text-anchor="middle" font-family="monospace" font-size="13" fill="#111111">Bob</text><line x1="84" y1="84" x2="84" y2="492" stroke="#555" stroke-width="1" stroke-dasharray="6 4"/><line x1="244" y1="84" x2="244" y2="492" stroke="#555" stroke-width="1" stroke-dasharray="6 4"/><line x1="84" y1="116" x2="244" y2="116" stroke="#111" stroke-width="1.5"/><polygon points="244,116 236,111 236,121" fill="#111" stroke="#111" stroke-width="1"/><text x="92" y="108" text-anchor="start" font-family="monospace" font-size="12" fill="#111">synchronous</text><line x1="84" y1="156" x2="244" y2="156" stroke="#111" stroke-width="1.5"/><polyline points="236,151 244,156 236,161" fill="none" stroke="#111" stroke-width="1"/><text x="92" y="148" text-anchor="start" font-family="monospace" font-size="12" fill="#111">thin arrow</text><line x1="84" y1="196" x2="244" y2="196" stroke="#111" stroke-width="1.5" stroke-dasharray="6 4"/><polygon points="244,196 236,191 236,201" fill="#111" stroke="#111" stroke-width="1"/><text x="92" y="188" text-anchor="start" font-family="monospace" font-size="12" fill="#111">dashed</text><line x1="84" y1="236" x2="244" y2="236" stroke="#111" stroke-width="1.5" stroke-dasharray="6 4"/><polyline points="236,231 244,236 236,241" fill="none" stroke="#111" stroke-width="1"/><text x="92" y="228" text-anchor="start" font-family="monospace" font-size="12" fill="#111">dashed thin</text><line x1="84" y1="276" x2="244" y2="276" stroke="#111" stroke-width="1.5"/><polygon points="244,276 236,271 236,281" fill="#111" stroke="#111" stroke-width="1"/><text x="92" y="268" text-anchor="start" font-family="monospace" font-size="12" fill="#111">reverse sync</text><line x1="84" y1="316" x2="244" y2="316" stroke="#111" stroke-width="1.5"/><polyline points="236,311 244,316 236,321" fill="none" stroke="#111" stroke-width="1"/><text x="92" y="308" text-anchor="start" font-family="monospace" font-size="12" fill="#111">reverse thin</text><line x1="84" y1="356" x2="244" y2="356" stroke="#111" stroke-width="1.5"/><circle class="sequence-arrow-end sequence-arrow-end-circle" data-sequence-arrow-end="circle" cx="244" cy="356" r="4" fill="white" stroke="#111" stroke-width="1.5"/><text x="92" y="348" text-anchor="start" font-family="monospace" font-size="12" fill="#111">circle endpoint</text><line x1="84" y1="396" x2="244" y2="396" stroke="#111" stroke-width="1.5"/><g class="sequence-arrow-end sequence-arrow-end-cross" data-sequence-arrow-end="cross" stroke="#111" stroke-width="1.5"><line x1="240" y1="392" x2="248" y2="400"/><line x1="240" y1="400" x2="248" y2="392"/></g><text x="92" y="388" text-anchor="start" font-family="monospace" font-size="12" fill="#111">cross endpoint</text><line x1="84" y1="436" x2="244" y2="436" stroke="#111" stroke-width="1.5"/><polygon points="84,436 92,431 92,441" fill="#111" stroke="#111" stroke-width="1"/><polygon points="244,436 236,431 236,441" fill="#111" stroke="#111" stroke-width="1"/><text x="92" y="428" text-anchor="start" font-family="monospace" font-size="12" fill="#111">bidirectional</text><line x1="84" y1="476" x2="244" y2="476" stroke="#111" stroke-width="1.5" stroke-dasharray="6 4"/><polygon points="84,476 92,471 92,481" fill="#111" stroke="#111" stroke-width="1"/><polygon points="244,476 236,471 236,481" fill="#111" stroke="#111" stroke-width="1"/><text x="92" y="468" text-anchor="start" font-family="monospace" font-size="12" fill="#111">dashed bidirectional</text><rect x="24" y="492" width="120" height="32" rx="4" ry="4" fill="#f6f6f6" stroke="#111" stroke-width="1"/><text x="84" y="513" text-anchor="middle" font-family="monospace" font-size="13" fill="#111111">Alice</text><rect x="184" y="492" width="120" height="32" rx="4" ry="4" fill="#f6f6f6" stroke="#111" stroke-width="1"/><text x="244" y="513" text-anchor="middle" font-family="monospace" font-size="13" fill="#111111">Bob</text></svg>