<svg xmlns="http://www.w3.org/2000/svg" width="232" height="564" viewBox="0 0 232 564"><rect width="100%" height="100%" fill="white"/><text x="16" y="16" font-family="monospace" font-size="18" font-weight="600" fill="#111">Arrow Variants</text><rect x="16" y="44" width="80" height="32" rx="4" ry="4" fill="#f6f6f6" stroke="#111" stroke-width="1"/><text x="56" y="65" text-anchor="middle" font-family="monospace" font-size="13" fill="#111111">Alice</text><rect x="116" y="44" width="80" height="32" rx="4" ry="4" fill="#f6f6f6" stroke="#111" stroke-width="1"/><text x="156" y="65" text-anchor="middle" font-family="monospace" font-size="13" fill="#111111">Bob</text><line x1="56" y1="76" x2="56" y2="516" stroke="#555" stroke-width="1" stroke-dasharray="6 4"/><line x1="156" y1="76" x2="156" y2="516" stroke="#555" stroke-width="1" stroke-dasharray="6 4"/><line x1="56" y1="108" x2="156" y2="108" stroke="#111" stroke-width="1.5"/><polygon points="156,108 148,103 148,113" fill="#111" stroke="#111" stroke-width="1"/><text x="64" y="100" text-anchor="start" font-family="monospace" font-size="12" fill="#111">synchronous</text><line x1="56" y1="136" x2="156" y2="136" stroke="#111" stroke-width="1.5"/><polyline points="148,131 156,136 148,141" fill="none" stroke="#111" stroke-width="1"/><text x="64" y="128" text-anchor="start" font-family="monospace" font-size="12" fill="#111">thin arrow</text><line x1="56" y1="164" x2="156" y2="164" stroke="#111" stroke-width="1.5" stroke-dasharray="6 4"/><polygon points="156,164 148,159 148,169" fill="#111" stroke="#111" stroke-width="1"/><text x="64" y="156" text-anchor="start" font-family="monospace" font-size="12" fill="#111">dashed</text><line x1="56" y1="192" x2="156" y2="192" stroke="#111" stroke-width="1.5" stroke-dasharray="6 4"/><polyline points="148,187 156,192 148,197" fill="none" stroke="#111" stroke-width="1"/><text x="64" y="184" text-anchor="start" font-family="monospace" font-size="12" fill="#111">dashed thin</text><line x1="56" y1="220" x2="156" y2="220" stroke="#111" stroke-width="1.5"/><polygon points="156,220 148,215 148,225" fill="#111" stroke="#111" stroke-width="1"/><text x="64" y="212" text-anchor="start" font-family="monospace" font-size="12" fill="#111">reverse sync</text><line x1="56" y1="248" x2="156" y2="248" stroke="#111" stroke-width="1.5"/><polyline points="148,243 156,248 148,253" fill="none" stroke="#111" stroke-width="1"/><text x="64" y="240" text-anchor="start" font-family="monospace" font-size="12" fill="#111">reverse thin</text><line x1="56" y1="292" x2="156" y2="292" stroke="#111" stroke-width="1.5"/><circle class="sequence-arrow-end sequence-arrow-end-circle" data-sequence-arrow-end="circle" cx="156" cy="292" r="4" fill="white" stroke="#111" stroke-width="1.5"/><text x="64" y="268" text-anchor="start" font-family="monospace" font-size="12" fill="#111">circle</text><text x="64" y="284" text-anchor="start" font-family="monospace" font-size="12" fill="#111">endpoint</text><line x1="56" y1="348" x2="156" y2="348" stroke="#111" stroke-width="1.5"/><g class="sequence-arrow-end sequence-arrow-end-cross" data-sequence-arrow-end="cross" stroke="#111" stroke-width="1.5"><line x1="152" y1="344" x2="160" y2="352"/><line x1="152" y1="352" x2="160" y2="344"/></g><text x="64" y="324" text-anchor="start" font-family="monospace" font-size="12" fill="#111">cross</text><text x="64" y="340" text-anchor="start" font-family="monospace" font-size="12" fill="#111">endpoint</text><line x1="56" y1="404" x2="156" y2="404" stroke="#111" stroke-width="1.5"/><polygon points="56,404 64,399 64,409" fill="#111" stroke="#111" stroke-width="1"/><polygon points="156,404 148,399 148,409" fill="#111" stroke="#111" stroke-width="1"/><text x="64" y="380" text-anchor="start" font-family="monospace" font-size="12" fill="#111">bidirectiona</text><text x="64" y="396" text-anchor="start" font-family="monospace" font-size="12" fill="#111">l</text><line x1="56" y1="476" x2="156" y2="476" stroke="#111" stroke-width="1.5" stroke-dasharray="6 4"/><polygon points="56,476 64,471 64,481" fill="#111" stroke="#111" stroke-width="1"/><polygon points="156,476 148,471 148,481" fill="#111" stroke="#111" stroke-width="1"/><text x="64" y="436" text-anchor="start" font-family="monospace" font-size="12" fill="#111">dashed</text><text x="64" y="452" text-anchor="start" font-family="monospace" font-size="12" fill="#111">bidirectiona</text><text x="64" y="468" text-anchor="start" font-family="monospace" font-size="12" fill="#111">l</text><rect x="16" y="516" width="80" height="32" rx="4" ry="4" fill="#f6f6f6" stroke="#111" stroke-width="1"/><text x="56" y="537" text-anchor="middle" font-family="monospace" font-size="13" fill="#111111">Alice</text><rect x="116" y="516" width="80" height="32" rx="4" ry="4" fill="#f6f6f6" stroke="#111" stroke-width="1"/><text x="156" y="537" text-anchor="middle" font-family="monospace" font-size="13" fill="#111111">Bob</text></svg>