<svg xmlns="http://www.w3.org/2000/svg" width="432" height="956" viewBox="0 0 432 956"><rect width="100%" height="100%" fill="white"/><text x="16" y="16" font-family="monospace" font-size="18" font-weight="600" fill="#111">All Group Types</text><rect x="16" y="44" width="80" height="32" rx="4" ry="4" fill="#f6f6f6" stroke="#111" stroke-width="1"/><text x="56" y="65" text-anchor="middle" font-family="monospace" font-size="13" fill="#111111">Alice</text><rect x="116" y="44" width="80" height="32" rx="4" ry="4" fill="#f6f6f6" stroke="#111" stroke-width="1"/><text x="156" y="65" text-anchor="middle" font-family="monospace" font-size="13" fill="#111111">Bob</text><rect x="216" y="44" width="80" height="32" rx="4" ry="4" fill="#f6f6f6" stroke="#111" stroke-width="1"/><text x="256" y="65" text-anchor="middle" font-family="monospace" font-size="13" fill="#111111">Charlie</text><rect x="316" y="44" width="80" height="32" rx="4" ry="4" fill="#f6f6f6" stroke="#111" stroke-width="1"/><text x="356" y="65" text-anchor="middle" font-family="monospace" font-size="13" fill="#111111">DB</text><line x1="56" y1="76" x2="56" y2="908" stroke="#555" stroke-width="1" stroke-dasharray="6 4"/><line x1="156" y1="76" x2="156" y2="908" stroke="#555" stroke-width="1" stroke-dasharray="6 4"/><line x1="256" y1="76" x2="256" y2="908" stroke="#555" stroke-width="1" stroke-dasharray="6 4"/><line x1="356" y1="76" x2="356" y2="908" stroke="#555" stroke-width="1" stroke-dasharray="6 4"/><rect x="16" y="128" width="380" height="140" rx="2" ry="2" fill="#fafafa" stroke="#666" stroke-width="1"/><polygon points="16,128 109,128 109,142 103,148 16,148" fill="#fafafa" stroke="#666" stroke-width="1"/><text x="24" y="142" font-family="monospace" font-size="12" font-weight="600" fill="#111">alt success</text><line x1="16" y1="184" x2="396" y2="184" stroke="#666" stroke-width="1" stroke-dasharray="5 4"/><text x="24" y="170" font-family="monospace" font-size="11" fill="#333">else failure</text><rect x="16" y="268" width="380" height="84" rx="2" ry="2" fill="#fafafa" stroke="#666" stroke-width="1"/><polygon points="16,268 151,268 151,282 145,288 16,288" fill="#fafafa" stroke="#666" stroke-width="1"/><text x="24" y="282" font-family="monospace" font-size="12" font-weight="600" fill="#111">opt optional step</text><rect x="16" y="352" width="380" height="84" rx="2" ry="2" fill="#fafafa" stroke="#666" stroke-width="1"/><polygon points="16,352 158,352 158,366 152,372 16,372" fill="#fafafa" stroke="#666" stroke-width="1"/><text x="24" y="366" font-family="monospace" font-size="12" font-weight="600" fill="#111">loop retry 3 times</text><rect x="16" y="436" width="380" height="140" rx="2" ry="2" fill="#fafafa" stroke="#666" stroke-width="1"/><polygon points="16,436 116,436 116,450 110,456 16,456" fill="#fafafa" stroke="#666" stroke-width="1"/><text x="24" y="450" font-family="monospace" font-size="12" font-weight="600" fill="#111">par parallel</text><line x1="16" y1="492" x2="396" y2="492" stroke="#666" stroke-width="1" stroke-dasharray="5 4"/><text x="24" y="478" font-family="monospace" font-size="11" fill="#333">else</text><rect x="16" y="604" width="380" height="84" rx="2" ry="2" fill="#fafafa" stroke="#666" stroke-width="1"/><polygon points="16,604 207,604 207,618 201,624 16,624" fill="#fafafa" stroke="#666" stroke-width="1"/><text x="24" y="618" font-family="monospace" font-size="12" font-weight="600" fill="#111">critical critical section</text><rect x="16" y="688" width="380" height="112" rx="2" ry="2" fill="#fafafa" stroke="#666" stroke-width="1"/><polygon points="16,688 130,688 130,702 124,708 16,708" fill="#fafafa" stroke="#666" stroke-width="1"/><text x="24" y="702" font-family="monospace" font-size="12" font-weight="600" fill="#111">break on error</text><rect x="16" y="800" width="380" height="84" rx="2" ry="2" fill="#fafafa" stroke="#666" stroke-width="1"/><polygon points="16,800 158,800 158,814 152,820 16,820" fill="#fafafa" stroke="#666" stroke-width="1"/><text x="24" y="814" font-family="monospace" font-size="12" font-weight="600" fill="#111">group custom label</text><line x1="56" y1="108" x2="156" y2="108" stroke="#111" stroke-width="1.5"/><polygon points="156,108 148,103 148,113" fill="#111" stroke="#111" stroke-width="1"/><text x="64" y="100" text-anchor="start" font-family="monospace" font-size="12" fill="#111">request</text><line x1="156" y1="164" x2="56" y2="164" stroke="#111" stroke-width="1.5" stroke-dasharray="6 4"/><polygon points="56,164 64,159 64,169" fill="#111" stroke="#111" stroke-width="1"/><text x="64" y="156" text-anchor="start" font-family="monospace" font-size="12" fill="#111">200 OK</text><line x1="156" y1="220" x2="56" y2="220" stroke="#111" stroke-width="1.5" stroke-dasharray="6 4"/><polygon points="56,220 64,215 64,225" fill="#111" stroke="#111" stroke-width="1"/><text x="64" y="212" text-anchor="start" font-family="monospace" font-size="12" fill="#111">500 Error</text><line x1="56" y1="304" x2="156" y2="304" stroke="#111" stroke-width="1.5"/><polygon points="156,304 148,299 148,309" fill="#111" stroke="#111" stroke-width="1"/><text x="64" y="296" text-anchor="start" font-family="monospace" font-size="12" fill="#111">ping</text><line x1="56" y1="388" x2="156" y2="388" stroke="#111" stroke-width="1.5"/><polygon points="156,388 148,383 148,393" fill="#111" stroke="#111" stroke-width="1"/><text x="64" y="380" text-anchor="start" font-family="monospace" font-size="12" fill="#111">retry</text><line x1="56" y1="472" x2="156" y2="472" stroke="#111" stroke-width="1.5"/><polygon points="156,472 148,467 148,477" fill="#111" stroke="#111" stroke-width="1"/><text x="64" y="464" text-anchor="start" font-family="monospace" font-size="12" fill="#111">async A</text><line x1="56" y1="528" x2="256" y2="528" stroke="#111" stroke-width="1.5"/><polygon points="256,528 248,523 248,533" fill="#111" stroke="#111" stroke-width="1"/><text x="64" y="520" text-anchor="start" font-family="monospace" font-size="12" fill="#111">async B</text><line x1="156" y1="640" x2="356" y2="640" stroke="#111" stroke-width="1.5"/><polygon points="356,640 348,635 348,645" fill="#111" stroke="#111" stroke-width="1"/><text x="164" y="632" text-anchor="start" font-family="monospace" font-size="12" fill="#111">update</text><path d="M 56 724 L 92 724 Q 100 724 100 732 L 100 748 Q 100 756 92 756 L 64 756" fill="none" stroke="#111" stroke-width="1.5"/><polygon points="56,756 64,751 64,761" fill="#111" stroke="#111" stroke-width="1"/><text x="64" y="716" text-anchor="start" font-family="monospace" font-size="12" fill="#111">abort</text><line x1="56" y1="836" x2="156" y2="836" stroke="#111" stroke-width="1.5"/><polygon points="156,836 148,831 148,841" fill="#111" stroke="#111" stroke-width="1"/><text x="64" y="828" text-anchor="start" font-family="monospace" font-size="12" fill="#111">custom</text><rect x="16" y="908" width="80" height="32" rx="4" ry="4" fill="#f6f6f6" stroke="#111" stroke-width="1"/><text x="56" y="929" text-anchor="middle" font-family="monospace" font-size="13" fill="#111111">Alice</text><rect x="116" y="908" width="80" height="32" rx="4" ry="4" fill="#f6f6f6" stroke="#111" stroke-width="1"/><text x="156" y="929" text-anchor="middle" font-family="monospace" font-size="13" fill="#111111">Bob</text><rect x="216" y="908" width="80" height="32" rx="4" ry="4" fill="#f6f6f6" stroke="#111" stroke-width="1"/><text x="256" y="929" text-anchor="middle" font-family="monospace" font-size="13" fill="#111111">Charlie</text><rect x="316" y="908" width="80" height="32" rx="4" ry="4" fill="#f6f6f6" stroke="#111" stroke-width="1"/><text x="356" y="929" text-anchor="middle" font-family="monospace" font-size="13" fill="#111111">DB</text></svg>