<svg xmlns="http://www.w3.org/2000/svg" width="688" height="1308" viewBox="0 0 688 1308"><rect width="100%" height="100%" fill="white"/><text x="24" y="24" font-family="monospace" font-size="18" font-weight="600" fill="#111">All Group Types</text><rect x="24" y="52" width="120" height="32" rx="4" ry="4" fill="#f6f6f6" stroke="#111" stroke-width="1"/><text x="84" y="73" text-anchor="middle" font-family="monospace" font-size="13" fill="#111111">Alice</text><rect x="184" y="52" width="120" height="32" rx="4" ry="4" fill="#f6f6f6" stroke="#111" stroke-width="1"/><text x="244" y="73" text-anchor="middle" font-family="monospace" font-size="13" fill="#111111">Bob</text><rect x="344" y="52" width="120" height="32" rx="4" ry="4" fill="#f6f6f6" stroke="#111" stroke-width="1"/><text x="404" y="73" text-anchor="middle" font-family="monospace" font-size="13" fill="#111111">Charlie</text><rect x="504" y="52" width="120" height="32" rx="4" ry="4" fill="#f6f6f6" stroke="#111" stroke-width="1"/><text x="564" y="73" text-anchor="middle" font-family="monospace" font-size="13" fill="#111111">DB</text><line x1="84" y1="84" x2="84" y2="1252" stroke="#555" stroke-width="1" stroke-dasharray="6 4"/><line x1="244" y1="84" x2="244" y2="1252" stroke="#555" stroke-width="1" stroke-dasharray="6 4"/><line x1="404" y1="84" x2="404" y2="1252" stroke="#555" stroke-width="1" stroke-dasharray="6 4"/><line x1="564" y1="84" x2="564" y2="1252" stroke="#555" stroke-width="1" stroke-dasharray="6 4"/><rect x="24" y="148" width="600" height="200" rx="2" ry="2" fill="#fafafa" stroke="#666" stroke-width="1"/><polygon points="24,148 117,148 117,162 111,168 24,168" fill="#fafafa" stroke="#666" stroke-width="1"/><text x="32" y="162" font-family="monospace" font-size="12" font-weight="600" fill="#111">alt success</text><line x1="24" y1="228" x2="624" y2="228" stroke="#666" stroke-width="1" stroke-dasharray="5 4"/><text x="32" y="214" font-family="monospace" font-size="11" fill="#333">else failure</text><rect x="24" y="348" width="600" height="120" rx="2" ry="2" fill="#fafafa" stroke="#666" stroke-width="1"/><polygon points="24,348 159,348 159,362 153,368 24,368" fill="#fafafa" stroke="#666" stroke-width="1"/><text x="32" y="362" font-family="monospace" font-size="12" font-weight="600" fill="#111">opt optional step</text><rect x="24" y="468" width="600" height="120" rx="2" ry="2" fill="#fafafa" stroke="#666" stroke-width="1"/><polygon points="24,468 166,468 166,482 160,488 24,488" fill="#fafafa" stroke="#666" stroke-width="1"/><text x="32" y="482" font-family="monospace" font-size="12" font-weight="600" fill="#111">loop retry 3 times</text><rect x="24" y="588" width="600" height="200" rx="2" ry="2" fill="#fafafa" stroke="#666" stroke-width="1"/><polygon points="24,588 124,588 124,602 118,608 24,608" fill="#fafafa" stroke="#666" stroke-width="1"/><text x="32" y="602" font-family="monospace" font-size="12" font-weight="600" fill="#111">par parallel</text><line x1="24" y1="668" x2="624" y2="668" stroke="#666" stroke-width="1" stroke-dasharray="5 4"/><text x="32" y="654" font-family="monospace" font-size="11" fill="#333">else</text><rect x="24" y="828" width="600" height="120" rx="2" ry="2" fill="#fafafa" stroke="#666" stroke-width="1"/><polygon points="24,828 215,828 215,842 209,848 24,848" fill="#fafafa" stroke="#666" stroke-width="1"/><text x="32" y="842" font-family="monospace" font-size="12" font-weight="600" fill="#111">critical critical section</text><rect x="24" y="948" width="600" height="160" rx="2" ry="2" fill="#fafafa" stroke="#666" stroke-width="1"/><polygon points="24,948 138,948 138,962 132,968 24,968" fill="#fafafa" stroke="#666" stroke-width="1"/><text x="32" y="962" font-family="monospace" font-size="12" font-weight="600" fill="#111">break on error</text><rect x="24" y="1108" width="600" height="120" rx="2" ry="2" fill="#fafafa" stroke="#666" stroke-width="1"/><polygon points="24,1108 166,1108 166,1122 160,1128 24,1128" fill="#fafafa" stroke="#666" stroke-width="1"/><text x="32" y="1122" font-family="monospace" font-size="12" font-weight="600" fill="#111">group custom label</text><line x1="84" y1="116" x2="244" y2="116" stroke="#111" stroke-width="1.5"/><polygon points="244,116 236,111 236,121" fill="#111" stroke="#111" stroke-width="1"/><text x="92" y="108" text-anchor="start" font-family="monospace" font-size="12" fill="#111">request</text><line x1="244" y1="196" x2="84" y2="196" stroke="#111" stroke-width="1.5" stroke-dasharray="6 4"/><polygon points="84,196 92,191 92,201" fill="#111" stroke="#111" stroke-width="1"/><text x="92" y="188" text-anchor="start" font-family="monospace" font-size="12" fill="#111">200 OK</text><line x1="244" y1="276" x2="84" y2="276" stroke="#111" stroke-width="1.5" stroke-dasharray="6 4"/><polygon points="84,276 92,271 92,281" fill="#111" stroke="#111" stroke-width="1"/><text x="92" y="268" text-anchor="start" font-family="monospace" font-size="12" fill="#111">500 Error</text><line x1="84" y1="396" x2="244" y2="396" stroke="#111" stroke-width="1.5"/><polygon points="244,396 236,391 236,401" fill="#111" stroke="#111" stroke-width="1"/><text x="92" y="388" text-anchor="start" font-family="monospace" font-size="12" fill="#111">ping</text><line x1="84" y1="516" x2="244" y2="516" stroke="#111" stroke-width="1.5"/><polygon points="244,516 236,511 236,521" fill="#111" stroke="#111" stroke-width="1"/><text x="92" y="508" text-anchor="start" font-family="monospace" font-size="12" fill="#111">retry</text><line x1="84" y1="636" x2="244" y2="636" stroke="#111" stroke-width="1.5"/><polygon points="244,636 236,631 236,641" fill="#111" stroke="#111" stroke-width="1"/><text x="92" y="628" text-anchor="start" font-family="monospace" font-size="12" fill="#111">async A</text><line x1="84" y1="716" x2="404" y2="716" stroke="#111" stroke-width="1.5"/><polygon points="404,716 396,711 396,721" fill="#111" stroke="#111" stroke-width="1"/><text x="92" y="708" text-anchor="start" font-family="monospace" font-size="12" fill="#111">async B</text><line x1="244" y1="876" x2="564" y2="876" stroke="#111" stroke-width="1.5"/><polygon points="564,876 556,871 556,881" fill="#111" stroke="#111" stroke-width="1"/><text x="252" y="868" text-anchor="start" font-family="monospace" font-size="12" fill="#111">update</text><path d="M 84 996 L 120 996 Q 128 996 128 1004 L 128 1020 Q 128 1028 120 1028 L 92 1028" fill="none" stroke="#111" stroke-width="1.5"/><polygon points="84,1028 92,1023 92,1033" fill="#111" stroke="#111" stroke-width="1"/><text x="92" y="988" text-anchor="start" font-family="monospace" font-size="12" fill="#111">abort</text><line x1="84" y1="1156" x2="244" y2="1156" stroke="#111" stroke-width="1.5"/><polygon points="244,1156 236,1151 236,1161" fill="#111" stroke="#111" stroke-width="1"/><text x="92" y="1148" text-anchor="start" font-family="monospace" font-size="12" fill="#111">custom</text><rect x="24" y="1252" width="120" height="32" rx="4" ry="4" fill="#f6f6f6" stroke="#111" stroke-width="1"/><text x="84" y="1273" text-anchor="middle" font-family="monospace" font-size="13" fill="#111111">Alice</text><rect x="184" y="1252" width="120" height="32" rx="4" ry="4" fill="#f6f6f6" stroke="#111" stroke-width="1"/><text x="244" y="1273" text-anchor="middle" font-family="monospace" font-size="13" fill="#111111">Bob</text><rect x="344" y="1252" width="120" height="32" rx="4" ry="4" fill="#f6f6f6" stroke="#111" stroke-width="1"/><text x="404" y="1273" text-anchor="middle" font-family="monospace" font-size="13" fill="#111111">Charlie</text><rect x="504" y="1252" width="120" height="32" rx="4" ry="4" fill="#f6f6f6" stroke="#111" stroke-width="1"/><text x="564" y="1273" text-anchor="middle" font-family="monospace" font-size="13" fill="#111111">DB</text></svg>