<svg xmlns="http://www.w3.org/2000/svg" width="312" height="368" viewBox="0 0 312 368"><rect width="100%" height="100%" fill="white"/><text x="16" y="16" font-family="monospace" font-size="18" font-weight="600" fill="#111">Activation Bar Stacking</text><rect x="16" y="44" width="80" height="32" rx="4" ry="4" fill="#f6f6f6" stroke="#111" stroke-width="1"/><text x="56" y="65" text-anchor="middle" font-family="monospace" font-size="13" fill="#111111">A</text><rect x="116" y="44" width="80" height="32" rx="4" ry="4" fill="#f6f6f6" stroke="#111" stroke-width="1"/><text x="156" y="65" text-anchor="middle" font-family="monospace" font-size="13" fill="#111111">B</text><rect x="216" y="44" width="80" height="32" rx="4" ry="4" fill="#f6f6f6" stroke="#111" stroke-width="1"/><text x="256" y="65" text-anchor="middle" font-family="monospace" font-size="13" fill="#111111">C</text><line x1="56" y1="76" x2="56" y2="320" stroke="#555" stroke-width="1" stroke-dasharray="6 4"/><line x1="156" y1="76" x2="156" y2="320" stroke="#555" stroke-width="1" stroke-dasharray="6 4"/><line x1="256" y1="76" x2="256" y2="320" stroke="#555" stroke-width="1" stroke-dasharray="6 4"/><rect class="sequence-activation" data-participant="C" x="251" y="136" width="10" height="48" fill="#ffffff" stroke="#555" stroke-width="1"/><rect class="sequence-activation" data-participant="B" x="157" y="192" width="10" height="104" fill="#ffffff" stroke="#555" stroke-width="1"/><rect class="sequence-activation" data-participant="B" x="151" y="108" width="10" height="216" fill="#ffffff" stroke="#555" stroke-width="1"/><rect class="sequence-activation" data-participant="A" x="51" y="100" width="10" height="224" fill="#ffffff" stroke="#555" stroke-width="1"/><line x1="61" y1="108" x2="151" y2="108" stroke="#111" stroke-width="1.5"/><polygon points="151,108 143,103 143,113" fill="#111" stroke="#111" stroke-width="1"/><text x="69" y="100" text-anchor="start" font-family="monospace" font-size="12" fill="#111">call 1</text><line x1="161" y1="136" x2="251" y2="136" stroke="#111" stroke-width="1.5"/><polygon points="251,136 243,131 243,141" fill="#111" stroke="#111" stroke-width="1"/><text x="169" y="128" text-anchor="start" font-family="monospace" font-size="12" fill="#111">nested call</text><line x1="251" y1="164" x2="161" y2="164" stroke="#111" stroke-width="1.5" stroke-dasharray="6 4"/><polygon points="161,164 169,159 169,169" fill="#111" stroke="#111" stroke-width="1"/><text x="169" y="156" text-anchor="start" font-family="monospace" font-size="12" fill="#111">return</text><path d="M 156 192 L 149 192 Q 157 192 157 200 L 157 216 Q 157 224 149 224 L 164 224" fill="none" stroke="#111" stroke-width="1.5"/><polygon points="156,224 164,219 164,229" fill="#111" stroke="#111" stroke-width="1"/><text x="164" y="184" text-anchor="start" font-family="monospace" font-size="12" fill="#111">self call</text><path d="M 156 248 L 192 248 Q 200 248 200 256 L 200 272 Q 200 280 192 280 L 164 280" fill="none" stroke="#111" stroke-width="1.5" stroke-dasharray="6 4"/><polygon points="156,280 164,275 164,285" fill="#111" stroke="#111" stroke-width="1"/><text x="164" y="240" text-anchor="start" font-family="monospace" font-size="12" fill="#111">done</text><line x1="151" y1="304" x2="61" y2="304" stroke="#111" stroke-width="1.5" stroke-dasharray="6 4"/><polygon points="61,304 69,299 69,309" fill="#111" stroke="#111" stroke-width="1"/><text x="69" y="296" text-anchor="start" font-family="monospace" font-size="12" fill="#111">return 1</text><rect x="16" y="320" width="80" height="32" rx="4" ry="4" fill="#f6f6f6" stroke="#111" stroke-width="1"/><text x="56" y="341" text-anchor="middle" font-family="monospace" font-size="13" fill="#111111">A</text><rect x="116" y="320" width="80" height="32" rx="4" ry="4" fill="#f6f6f6" stroke="#111" stroke-width="1"/><text x="156" y="341" text-anchor="middle" font-family="monospace" font-size="13" fill="#111111">B</text><rect x="216" y="320" width="80" height="32" rx="4" ry="4" fill="#f6f6f6" stroke="#111" stroke-width="1"/><text x="256" y="341" text-anchor="middle" font-family="monospace" font-size="13" fill="#111111">C</text></svg>