<svg xmlns="http://www.w3.org/2000/svg" width="488" height="388" viewBox="0 0 488 388"><rect width="100%" height="100%" fill="white"/><text x="24" y="24" font-family="monospace" font-size="18" font-weight="600">Activation Bar Stacking</text><rect x="24" y="52" width="120" height="32" rx="4" ry="4" fill="#f6f6f6" stroke="#111" stroke-width="1"/><text x="84" y="73" text-anchor="middle" font-family="monospace" font-size="13">A</text><rect x="184" y="52" width="120" height="32" rx="4" ry="4" fill="#f6f6f6" stroke="#111" stroke-width="1"/><text x="244" y="73" text-anchor="middle" font-family="monospace" font-size="13">B</text><rect x="344" y="52" width="120" height="32" rx="4" ry="4" fill="#f6f6f6" stroke="#111" stroke-width="1"/><text x="404" y="73" text-anchor="middle" font-family="monospace" font-size="13">C</text><line x1="84" y1="84" x2="84" y2="332" stroke="#555" stroke-width="1" stroke-dasharray="6 4"/><line x1="244" y1="84" x2="244" y2="332" stroke="#555" stroke-width="1" stroke-dasharray="6 4"/><line x1="404" y1="84" x2="404" y2="332" stroke="#555" stroke-width="1" stroke-dasharray="6 4"/><line x1="84" y1="108" x2="244" y2="108" stroke="#111" stroke-width="1.5"/><polygon points="244,108 238,104 238,112" fill="#111"/><text x="166" y="100" text-anchor="middle" font-family="monospace" font-size="12">call 1</text><line x1="244" y1="148" x2="404" y2="148" stroke="#111" stroke-width="1.5"/><polygon points="404,148 398,144 398,152" fill="#111"/><text x="326" y="140" text-anchor="middle" font-family="monospace" font-size="12">nested call</text><line x1="404" y1="188" x2="244" y2="188" stroke="#111" stroke-width="1.5" stroke-dasharray="6 4"/><polygon points="244,188 250,184 250,192" fill="#111"/><text x="326" y="180" text-anchor="middle" font-family="monospace" font-size="12">return</text><line x1="244" y1="228" x2="288" y2="228" stroke="#111" stroke-width="1.5"/><polygon points="288,228 282,224 282,232" fill="#111"/><text x="268" y="220" text-anchor="middle" font-family="monospace" font-size="12">self call</text><line x1="244" y1="268" x2="288" y2="268" stroke="#111" stroke-width="1.5" stroke-dasharray="6 4"/><polygon points="288,268 282,264 282,272" fill="#111"/><text x="268" y="260" text-anchor="middle" font-family="monospace" font-size="12">done</text><line x1="244" y1="308" x2="84" y2="308" stroke="#111" stroke-width="1.5" stroke-dasharray="6 4"/><polygon points="84,308 90,304 90,312" fill="#111"/><text x="166" y="300" text-anchor="middle" font-family="monospace" font-size="12">return 1</text><rect x="24" y="332" width="120" height="32" rx="4" ry="4" fill="#f6f6f6" stroke="#111" stroke-width="1"/><text x="84" y="353" text-anchor="middle" font-family="monospace" font-size="13">A</text><rect x="184" y="332" width="120" height="32" rx="4" ry="4" fill="#f6f6f6" stroke="#111" stroke-width="1"/><text x="244" y="353" text-anchor="middle" font-family="monospace" font-size="13">B</text><rect x="344" y="332" width="120" height="32" rx="4" ry="4" fill="#f6f6f6" stroke="#111" stroke-width="1"/><text x="404" y="353" text-anchor="middle" font-family="monospace" font-size="13">C</text></svg>