<svg xmlns="http://www.w3.org/2000/svg" width="488" height="468" viewBox="0 0 488 468"><rect width="100%" height="100%" fill="white"/><text x="24" y="24" font-family="monospace" font-size="18" font-weight="600" fill="#111">Activation Bar Stacking</text><rect x="24" y="52" width="120" height="32" rx="4" ry="4" fill="#f6f6f6" stroke="#111" stroke-width="1"/><text x="84" y="73" text-anchor="middle" font-family="monospace" font-size="13" fill="#111111">A</text><rect x="184" y="52" width="120" height="32" rx="4" ry="4" fill="#f6f6f6" stroke="#111" stroke-width="1"/><text x="244" y="73" text-anchor="middle" font-family="monospace" font-size="13" fill="#111111">B</text><rect x="344" y="52" width="120" height="32" rx="4" ry="4" fill="#f6f6f6" stroke="#111" stroke-width="1"/><text x="404" y="73" text-anchor="middle" font-family="monospace" font-size="13" fill="#111111">C</text><line x1="84" y1="84" x2="84" y2="412" stroke="#555" stroke-width="1" stroke-dasharray="6 4"/><line x1="244" y1="84" x2="244" y2="412" stroke="#555" stroke-width="1" stroke-dasharray="6 4"/><line x1="404" y1="84" x2="404" y2="412" stroke="#555" stroke-width="1" stroke-dasharray="6 4"/><rect class="sequence-activation" data-participant="C" x="399" y="156" width="10" height="72" fill="#ffffff" stroke="#555" stroke-width="1"/><rect class="sequence-activation" data-participant="B" x="245" y="236" width="10" height="152" fill="#ffffff" stroke="#555" stroke-width="1"/><rect class="sequence-activation" data-participant="B" x="239" y="116" width="10" height="312" fill="#ffffff" stroke="#555" stroke-width="1"/><rect class="sequence-activation" data-participant="A" x="79" y="108" width="10" height="320" fill="#ffffff" stroke="#555" stroke-width="1"/><line x1="89" y1="116" x2="239" y2="116" stroke="#111" stroke-width="1.5"/><polygon points="239,116 231,111 231,121" fill="#111" stroke="#111" stroke-width="1"/><text x="97" y="108" text-anchor="start" font-family="monospace" font-size="12" fill="#111">call 1</text><line x1="249" y1="156" x2="399" y2="156" stroke="#111" stroke-width="1.5"/><polygon points="399,156 391,151 391,161" fill="#111" stroke="#111" stroke-width="1"/><text x="257" y="148" text-anchor="start" font-family="monospace" font-size="12" fill="#111">nested call</text><line x1="399" y1="196" x2="249" y2="196" stroke="#111" stroke-width="1.5" stroke-dasharray="6 4"/><polygon points="249,196 257,191 257,201" fill="#111" stroke="#111" stroke-width="1"/><text x="257" y="188" text-anchor="start" font-family="monospace" font-size="12" fill="#111">return</text><path d="M 244 236 L 237 236 Q 245 236 245 244 L 245 260 Q 245 268 237 268 L 252 268" fill="none" stroke="#111" stroke-width="1.5"/><polygon points="244,268 252,263 252,273" fill="#111" stroke="#111" stroke-width="1"/><text x="252" y="228" text-anchor="start" font-family="monospace" font-size="12" fill="#111">self call</text><path d="M 244 316 L 280 316 Q 288 316 288 324 L 288 340 Q 288 348 280 348 L 252 348" fill="none" stroke="#111" stroke-width="1.5" stroke-dasharray="6 4"/><polygon points="244,348 252,343 252,353" fill="#111" stroke="#111" stroke-width="1"/><text x="252" y="308" text-anchor="start" font-family="monospace" font-size="12" fill="#111">done</text><line x1="239" y1="396" x2="89" y2="396" stroke="#111" stroke-width="1.5" stroke-dasharray="6 4"/><polygon points="89,396 97,391 97,401" fill="#111" stroke="#111" stroke-width="1"/><text x="97" y="388" text-anchor="start" font-family="monospace" font-size="12" fill="#111">return 1</text><rect x="24" y="412" width="120" height="32" rx="4" ry="4" fill="#f6f6f6" stroke="#111" stroke-width="1"/><text x="84" y="433" text-anchor="middle" font-family="monospace" font-size="13" fill="#111111">A</text><rect x="184" y="412" width="120" height="32" rx="4" ry="4" fill="#f6f6f6" stroke="#111" stroke-width="1"/><text x="244" y="433" text-anchor="middle" font-family="monospace" font-size="13" fill="#111111">B</text><rect x="344" y="412" width="120" height="32" rx="4" ry="4" fill="#f6f6f6" stroke="#111" stroke-width="1"/><text x="404" y="433" text-anchor="middle" font-family="monospace" font-size="13" fill="#111111">C</text></svg>