<svg xmlns="http://www.w3.org/2000/svg" width="488" height="468" viewBox="0 0 488 468"><rect width="100%" height="100%" fill="white"/><text x="24" y="24" font-family="monospace" font-size="18" font-weight="600" fill="#111">Activation Bar Stacking</text><rect x="24" y="52" width="120" height="32" rx="4" ry="4" fill="#f6f6f6" stroke="#111" stroke-width="1"/><text x="84" y="73" text-anchor="middle" font-family="monospace" font-size="13" fill="#111111">A</text><rect x="184" y="52" width="120" height="32" rx="4" ry="4" fill="#f6f6f6" stroke="#111" stroke-width="1"/><text x="244" y="73" text-anchor="middle" font-family="monospace" font-size="13" fill="#111111">B</text><rect x="344" y="52" width="120" height="32" rx="4" ry="4" fill="#f6f6f6" stroke="#111" stroke-width="1"/><text x="404" y="73" text-anchor="middle" font-family="monospace" font-size="13" fill="#111111">C</text><line x1="84" y1="84" x2="84" y2="412" stroke="#555" stroke-width="1" stroke-dasharray="6 4"/><line x1="244" y1="84" x2="244" y2="412" stroke="#555" stroke-width="1" stroke-dasharray="6 4"/><line x1="404" y1="84" x2="404" y2="412" stroke="#555" stroke-width="1" stroke-dasharray="6 4"/><rect class="sequence-activation" data-participant="C" x="399" y="148" width="10" height="80" fill="#ffffff" stroke="#555" stroke-width="1"/><rect class="sequence-activation" data-participant="B" x="245" y="228" width="10" height="160" fill="#ffffff" stroke="#555" stroke-width="1"/><rect class="sequence-activation" data-participant="B" x="239" y="108" width="10" height="320" fill="#ffffff" stroke="#555" stroke-width="1"/><rect class="sequence-activation" data-participant="A" x="79" y="108" width="10" height="320" fill="#ffffff" stroke="#555" stroke-width="1"/><line x1="89" y1="108" x2="239" y2="108" stroke="#111" stroke-width="1.5"/><polygon points="239,108 231,103 231,113" fill="#111" stroke="#111" stroke-width="1"/><text x="97" y="100" text-anchor="start" font-family="monospace" font-size="12" fill="#111">call 1</text><line x1="249" y1="148" x2="399" y2="148" stroke="#111" stroke-width="1.5"/><polygon points="399,148 391,143 391,153" fill="#111" stroke="#111" stroke-width="1"/><text x="257" y="140" text-anchor="start" font-family="monospace" font-size="12" fill="#111">nested call</text><line x1="399" y1="188" x2="249" y2="188" stroke="#111" stroke-width="1.5" stroke-dasharray="6 4"/><polygon points="249,188 257,183 257,193" fill="#111" stroke="#111" stroke-width="1"/><text x="257" y="180" text-anchor="start" font-family="monospace" font-size="12" fill="#111">return</text><path d="M 244 228 L 245 228 L 245 260 L 252 260" fill="none" stroke="#111" stroke-width="1.5"/><polygon points="244,260 252,255 252,265" fill="#111" stroke="#111" stroke-width="1"/><text x="252" y="220" text-anchor="start" font-family="monospace" font-size="12" fill="#111">self call</text><path d="M 244 308 L 288 308 L 288 340 L 252 340" fill="none" stroke="#111" stroke-width="1.5" stroke-dasharray="6 4"/><polygon points="244,340 252,335 252,345" fill="#111" stroke="#111" stroke-width="1"/><text x="252" y="300" text-anchor="start" font-family="monospace" font-size="12" fill="#111">done</text><line x1="239" y1="388" x2="89" y2="388" stroke="#111" stroke-width="1.5" stroke-dasharray="6 4"/><polygon points="89,388 97,383 97,393" fill="#111" stroke="#111" stroke-width="1"/><text x="97" y="380" text-anchor="start" font-family="monospace" font-size="12" fill="#111">return 1</text><rect x="24" y="412" width="120" height="32" rx="4" ry="4" fill="#f6f6f6" stroke="#111" stroke-width="1"/><text x="84" y="433" text-anchor="middle" font-family="monospace" font-size="13" fill="#111111">A</text><rect x="184" y="412" width="120" height="32" rx="4" ry="4" fill="#f6f6f6" stroke="#111" stroke-width="1"/><text x="244" y="433" text-anchor="middle" font-family="monospace" font-size="13" fill="#111111">B</text><rect x="344" y="412" width="120" height="32" rx="4" ry="4" fill="#f6f6f6" stroke="#111" stroke-width="1"/><text x="404" y="433" text-anchor="middle" font-family="monospace" font-size="13" fill="#111111">C</text></svg>