<svg xmlns="http://www.w3.org/2000/svg" width="488" height="388" viewBox="0 0 488 388"><rect width="100%" height="100%" fill="white"/><text x="24" y="24" font-family="monospace" font-size="18" font-weight="600">Activation Bar Stacking</text><rect x="24" y="52" width="120" height="32" rx="4" ry="4" fill="#f6f6f6" stroke="#111" stroke-width="1"/><text x="84" y="73" text-anchor="middle" font-family="monospace" font-size="13">A</text><rect x="184" y="52" width="120" height="32" rx="4" ry="4" fill="#f6f6f6" stroke="#111" stroke-width="1"/><text x="244" y="73" text-anchor="middle" font-family="monospace" font-size="13">B</text><rect x="344" y="52" width="120" height="32" rx="4" ry="4" fill="#f6f6f6" stroke="#111" stroke-width="1"/><text x="404" y="73" text-anchor="middle" font-family="monospace" font-size="13">C</text><line x1="84" y1="84" x2="84" y2="332" stroke="#555" stroke-width="1" stroke-dasharray="6 4"/><line x1="244" y1="84" x2="244" y2="332" stroke="#555" stroke-width="1" stroke-dasharray="6 4"/><line x1="404" y1="84" x2="404" y2="332" stroke="#555" stroke-width="1" stroke-dasharray="6 4"/><rect class="sequence-activation" data-participant="C" x="399" y="188" width="10" height="40" fill="#ffffff" stroke="#555" stroke-width="1"/><rect class="sequence-activation" data-participant="B" x="245" y="268" width="10" height="40" fill="#ffffff" stroke="#555" stroke-width="1"/><rect class="sequence-activation" data-participant="B" x="239" y="148" width="10" height="200" fill="#ffffff" stroke="#555" stroke-width="1"/><rect class="sequence-activation" data-participant="A" x="79" y="108" width="10" height="240" fill="#ffffff" stroke="#555" stroke-width="1"/><line x1="84" y1="108" x2="244" y2="108" stroke="#111" stroke-width="1.5"/><polygon points="244,108 236,103 236,113" fill="#111" stroke="#111" stroke-width="1"/><text x="92" y="100" text-anchor="start" font-family="monospace" font-size="12">call 1</text><line x1="244" y1="148" x2="404" y2="148" stroke="#111" stroke-width="1.5"/><polygon points="404,148 396,143 396,153" fill="#111" stroke="#111" stroke-width="1"/><text x="252" y="140" text-anchor="start" font-family="monospace" font-size="12">nested call</text><line x1="404" y1="188" x2="244" y2="188" stroke="#111" stroke-width="1.5" stroke-dasharray="6 4"/><polygon points="244,188 252,183 252,193" fill="#111" stroke="#111" stroke-width="1"/><text x="252" y="180" text-anchor="start" font-family="monospace" font-size="12">return</text><path d="M 244 228 L 288 228 L 288 248 L 244 248" fill="none" stroke="#111" stroke-width="1.5"/><polygon points="244,248 252,243 252,253" fill="#111" stroke="#111" stroke-width="1"/><text x="252" y="220" text-anchor="start" font-family="monospace" font-size="12">self call</text><path d="M 244 268 L 288 268 L 288 288 L 244 288" fill="none" stroke="#111" stroke-width="1.5" stroke-dasharray="6 4"/><polygon points="244,288 252,283 252,293" fill="#111" stroke="#111" stroke-width="1"/><text x="252" y="260" text-anchor="start" font-family="monospace" font-size="12">done</text><line x1="244" y1="308" x2="84" y2="308" stroke="#111" stroke-width="1.5" stroke-dasharray="6 4"/><polygon points="84,308 92,303 92,313" fill="#111" stroke="#111" stroke-width="1"/><text x="92" y="300" text-anchor="start" font-family="monospace" font-size="12">return 1</text><rect x="24" y="332" width="120" height="32" rx="4" ry="4" fill="#f6f6f6" stroke="#111" stroke-width="1"/><text x="84" y="353" text-anchor="middle" font-family="monospace" font-size="13">A</text><rect x="184" y="332" width="120" height="32" rx="4" ry="4" fill="#f6f6f6" stroke="#111" stroke-width="1"/><text x="244" y="353" text-anchor="middle" font-family="monospace" font-size="13">B</text><rect x="344" y="332" width="120" height="32" rx="4" ry="4" fill="#f6f6f6" stroke="#111" stroke-width="1"/><text x="404" y="353" text-anchor="middle" font-family="monospace" font-size="13">C</text></svg>