<svg xmlns="http://www.w3.org/2000/svg" width="346" height="348" viewBox="0 0 346 348"><rect width="100%" height="100%" fill="white"/><text x="24" y="24" font-family="monospace" font-size="18" font-weight="600">Participant Lifecycle</text><rect x="24" y="52" width="120" height="32" rx="4" ry="4" fill="#f6f6f6" stroke="#111" stroke-width="1"/><text x="84" y="73" text-anchor="middle" font-family="monospace" font-size="13">Alice</text><rect x="184" y="52" width="120" height="32" rx="4" ry="4" fill="#f6f6f6" stroke="#111" stroke-width="1"/><text x="244" y="73" text-anchor="middle" font-family="monospace" font-size="13">Worker</text><line x1="84" y1="84" x2="84" y2="292" stroke="#555" stroke-width="1" stroke-dasharray="6 4"/><line x1="244" y1="84" x2="244" y2="292" stroke="#555" stroke-width="1" stroke-dasharray="6 4"/><rect class="sequence-activation" data-participant="Worker" x="239" y="148" width="10" height="120" fill="#ffffff" stroke="#555" stroke-width="1"/><path d="M 84 108 L 128 108 L 128 140 L 92 140" fill="none" stroke="#111" stroke-width="1.5"/><polygon points="84,140 92,135 92,145" fill="#111" stroke="#111" stroke-width="1"/><text x="92" y="100" text-anchor="start" font-family="monospace" font-size="12">start process</text><line x1="84" y1="148" x2="244" y2="148" stroke="#111" stroke-width="1.5"/><polygon points="244,148 236,143 236,153" fill="#111" stroke="#111" stroke-width="1"/><text x="92" y="140" text-anchor="start" font-family="monospace" font-size="12">spawn</text><path d="M 244 188 L 288 188 L 288 220 L 252 220" fill="none" stroke="#111" stroke-width="1.5"/><polygon points="244,220 252,215 252,225" fill="#111" stroke="#111" stroke-width="1"/><text x="252" y="180" text-anchor="start" font-family="monospace" font-size="12">processing</text><line x1="244" y1="228" x2="84" y2="228" stroke="#111" stroke-width="1.5" stroke-dasharray="6 4"/><polygon points="84,228 92,223 92,233" fill="#111" stroke="#111" stroke-width="1"/><text x="92" y="220" text-anchor="start" font-family="monospace" font-size="12">done</text><circle class="sequence-create" data-participant="Worker" cx="244" cy="148" r="5" fill="#dcfce7" stroke="#15803d" stroke-width="1.5"/><g class="sequence-destroy" data-participant="Worker" stroke="#b91c1c" stroke-width="2"><line x1="238" y1="262" x2="250" y2="274"/><line x1="238" y1="274" x2="250" y2="262"/></g><rect x="24" y="292" width="120" height="32" rx="4" ry="4" fill="#f6f6f6" stroke="#111" stroke-width="1"/><text x="84" y="313" text-anchor="middle" font-family="monospace" font-size="13">Alice</text><rect x="184" y="292" width="120" height="32" rx="4" ry="4" fill="#f6f6f6" stroke="#111" stroke-width="1"/><text x="244" y="313" text-anchor="middle" font-family="monospace" font-size="13">Worker</text></svg>