<svg xmlns="http://www.w3.org/2000/svg" width="328" height="308" viewBox="0 0 328 308"><rect width="100%" height="100%" fill="white"/><text x="24" y="24" font-family="monospace" font-size="18" font-weight="600">Participant Lifecycle</text><rect x="24" y="52" width="120" height="32" rx="4" ry="4" fill="#f6f6f6" stroke="#111" stroke-width="1"/><text x="84" y="73" text-anchor="middle" font-family="monospace" font-size="13">Alice</text><rect x="184" y="52" width="120" height="32" rx="4" ry="4" fill="#f6f6f6" stroke="#111" stroke-width="1"/><text x="244" y="73" text-anchor="middle" font-family="monospace" font-size="13">Worker</text><line x1="84" y1="84" x2="84" y2="252" stroke="#555" stroke-width="1" stroke-dasharray="6 4"/><line x1="244" y1="84" x2="244" y2="252" stroke="#555" stroke-width="1" stroke-dasharray="6 4"/><line x1="84" y1="108" x2="128" y2="108" stroke="#111" stroke-width="1.5"/><polygon points="128,108 122,104 122,112" fill="#111"/><text x="108" y="100" text-anchor="middle" font-family="monospace" font-size="12">start process</text><line x1="84" y1="148" x2="244" y2="148" stroke="#111" stroke-width="1.5"/><polygon points="244,148 238,144 238,152" fill="#111"/><text x="166" y="140" text-anchor="middle" font-family="monospace" font-size="12">spawn</text><line x1="244" y1="188" x2="288" y2="188" stroke="#111" stroke-width="1.5"/><polygon points="288,188 282,184 282,192" fill="#111"/><text x="268" y="180" text-anchor="middle" font-family="monospace" font-size="12">processing</text><line x1="244" y1="228" x2="84" y2="228" stroke="#111" stroke-width="1.5" stroke-dasharray="6 4"/><polygon points="84,228 90,224 90,232" fill="#111"/><text x="166" y="220" text-anchor="middle" font-family="monospace" font-size="12">done</text><rect x="24" y="252" width="120" height="32" rx="4" ry="4" fill="#f6f6f6" stroke="#111" stroke-width="1"/><text x="84" y="273" text-anchor="middle" font-family="monospace" font-size="13">Alice</text><rect x="184" y="252" width="120" height="32" rx="4" ry="4" fill="#f6f6f6" stroke="#111" stroke-width="1"/><text x="244" y="273" text-anchor="middle" font-family="monospace" font-size="13">Worker</text></svg>