<svg xmlns="http://www.w3.org/2000/svg" width="250" height="396" viewBox="0 0 250 396"><rect width="100%" height="100%" fill="white"/><text x="16" y="16" font-family="monospace" font-size="18" font-weight="600" fill="#111">Participant Lifecycle</text><rect x="16" y="44" width="80" height="32" rx="4" ry="4" fill="#f6f6f6" stroke="#111" stroke-width="1"/><text x="56" y="65" text-anchor="middle" font-family="monospace" font-size="13" fill="#111111">Alice</text><rect x="116" y="156" width="80" height="32" rx="4" ry="4" fill="#f6f6f6" stroke="#111" stroke-width="1"/><text x="156" y="177" text-anchor="middle" font-family="monospace" font-size="13" fill="#111111">Worker</text><line x1="56" y1="76" x2="56" y2="348" stroke="#555" stroke-width="1" stroke-dasharray="6 4"/><line x1="156" y1="188" x2="156" y2="348" stroke="#555" stroke-width="1" stroke-dasharray="6 4"/><rect class="sequence-activation" data-participant="Worker" x="151" y="220" width="10" height="104" fill="#ffffff" stroke="#555" stroke-width="1"/><path d="M 56 124 L 92 124 Q 100 124 100 132 L 100 148 Q 100 156 92 156 L 64 156" fill="none" stroke="#111" stroke-width="1.5"/><polygon points="56,156 64,151 64,161" fill="#111" stroke="#111" stroke-width="1"/><text x="64" y="100" text-anchor="start" font-family="monospace" font-size="12" fill="#111">start</text><text x="64" y="116" text-anchor="start" font-family="monospace" font-size="12" fill="#111">process</text><line x1="56" y1="220" x2="151" y2="220" stroke="#111" stroke-width="1.5"/><polygon points="151,220 143,215 143,225" fill="#111" stroke="#111" stroke-width="1"/><text x="64" y="212" text-anchor="start" font-family="monospace" font-size="12" fill="#111">spawn</text><path d="M 156 248 L 192 248 Q 200 248 200 256 L 200 272 Q 200 280 192 280 L 164 280" fill="none" stroke="#111" stroke-width="1.5"/><polygon points="156,280 164,275 164,285" fill="#111" stroke="#111" stroke-width="1"/><text x="164" y="240" text-anchor="start" font-family="monospace" font-size="12" fill="#111">processing</text><line x1="151" y1="304" x2="56" y2="304" stroke="#111" stroke-width="1.5" stroke-dasharray="6 4"/><polygon points="56,304 64,299 64,309" fill="#111" stroke="#111" stroke-width="1"/><text x="64" y="296" text-anchor="start" font-family="monospace" font-size="12" fill="#111">done</text><circle class="sequence-create" data-participant="Worker" cx="156" cy="156" r="5" fill="#dcfce7" stroke="#15803d" stroke-width="1.5"/><g class="sequence-destroy" data-participant="Worker" stroke="#b91c1c" stroke-width="2"><line x1="150" y1="318" x2="162" y2="330"/><line x1="150" y1="330" x2="162" y2="318"/></g><rect x="16" y="348" width="80" height="32" rx="4" ry="4" fill="#f6f6f6" stroke="#111" stroke-width="1"/><text x="56" y="369" text-anchor="middle" font-family="monospace" font-size="13" fill="#111111">Alice</text><rect x="116" y="348" width="80" height="32" rx="4" ry="4" fill="#f6f6f6" stroke="#111" stroke-width="1"/><text x="156" y="369" text-anchor="middle" font-family="monospace" font-size="13" fill="#111111">Worker</text></svg>