<svg xmlns="http://www.w3.org/2000/svg" width="346" height="428" viewBox="0 0 346 428"><rect width="100%" height="100%" fill="white"/><text x="24" y="24" font-family="monospace" font-size="18" font-weight="600" fill="#111">Participant Lifecycle</text><rect x="24" y="52" width="120" height="32" rx="4" ry="4" fill="#f6f6f6" stroke="#111" stroke-width="1"/><text x="84" y="73" text-anchor="middle" font-family="monospace" font-size="13" fill="#111111">Alice</text><rect x="184" y="52" width="120" height="32" rx="4" ry="4" fill="#f6f6f6" stroke="#111" stroke-width="1"/><text x="244" y="73" text-anchor="middle" font-family="monospace" font-size="13" fill="#111111">Worker</text><line x1="84" y1="84" x2="84" y2="372" stroke="#555" stroke-width="1" stroke-dasharray="6 4"/><line x1="244" y1="84" x2="244" y2="372" stroke="#555" stroke-width="1" stroke-dasharray="6 4"/><rect class="sequence-activation" data-participant="Worker" x="239" y="196" width="10" height="152" fill="#ffffff" stroke="#555" stroke-width="1"/><path d="M 84 116 L 128 116 L 128 148 L 92 148" fill="none" stroke="#111" stroke-width="1.5"/><polygon points="84,148 92,143 92,153" fill="#111" stroke="#111" stroke-width="1"/><text x="92" y="108" text-anchor="start" font-family="monospace" font-size="12" fill="#111">start process</text><line x1="84" y1="196" x2="239" y2="196" stroke="#111" stroke-width="1.5"/><polygon points="239,196 231,191 231,201" fill="#111" stroke="#111" stroke-width="1"/><text x="92" y="188" text-anchor="start" font-family="monospace" font-size="12" fill="#111">spawn</text><path d="M 244 236 L 288 236 L 288 268 L 252 268" fill="none" stroke="#111" stroke-width="1.5"/><polygon points="244,268 252,263 252,273" fill="#111" stroke="#111" stroke-width="1"/><text x="252" y="228" text-anchor="start" font-family="monospace" font-size="12" fill="#111">processing</text><line x1="239" y1="316" x2="84" y2="316" stroke="#111" stroke-width="1.5" stroke-dasharray="6 4"/><polygon points="84,316 92,311 92,321" fill="#111" stroke="#111" stroke-width="1"/><text x="92" y="308" text-anchor="start" font-family="monospace" font-size="12" fill="#111">done</text><circle class="sequence-create" data-participant="Worker" cx="244" cy="188" r="5" fill="#dcfce7" stroke="#15803d" stroke-width="1.5"/><g class="sequence-destroy" data-participant="Worker" stroke="#b91c1c" stroke-width="2"><line x1="238" y1="342" x2="250" y2="354"/><line x1="238" y1="354" x2="250" y2="342"/></g><rect x="24" y="372" width="120" height="32" rx="4" ry="4" fill="#f6f6f6" stroke="#111" stroke-width="1"/><text x="84" y="393" text-anchor="middle" font-family="monospace" font-size="13" fill="#111111">Alice</text><rect x="184" y="372" width="120" height="32" rx="4" ry="4" fill="#f6f6f6" stroke="#111" stroke-width="1"/><text x="244" y="393" text-anchor="middle" font-family="monospace" font-size="13" fill="#111111">Worker</text></svg>