<svg xmlns="http://www.w3.org/2000/svg" width="346" height="468" viewBox="0 0 346 468"><rect width="100%" height="100%" fill="white"/><text x="24" y="24" font-family="monospace" font-size="18" font-weight="600" fill="#111">Participant Lifecycle</text><rect x="24" y="52" width="120" height="32" rx="4" ry="4" fill="#f6f6f6" stroke="#111" stroke-width="1"/><text x="84" y="73" text-anchor="middle" font-family="monospace" font-size="13" fill="#111111">Alice</text><rect x="184" y="188" width="120" height="32" rx="4" ry="4" fill="#f6f6f6" stroke="#111" stroke-width="1"/><text x="244" y="209" text-anchor="middle" font-family="monospace" font-size="13" fill="#111111">Worker</text><line x1="84" y1="84" x2="84" y2="412" stroke="#555" stroke-width="1" stroke-dasharray="6 4"/><line x1="244" y1="220" x2="244" y2="412" stroke="#555" stroke-width="1" stroke-dasharray="6 4"/><rect class="sequence-activation" data-participant="Worker" x="239" y="236" width="10" height="152" fill="#ffffff" stroke="#555" stroke-width="1"/><path d="M 84 116 L 120 116 Q 128 116 128 124 L 128 140 Q 128 148 120 148 L 92 148" fill="none" stroke="#111" stroke-width="1.5"/><polygon points="84,148 92,143 92,153" fill="#111" stroke="#111" stroke-width="1"/><text x="92" y="108" text-anchor="start" font-family="monospace" font-size="12" fill="#111">start process</text><line x1="84" y1="236" x2="239" y2="236" stroke="#111" stroke-width="1.5"/><polygon points="239,236 231,231 231,241" fill="#111" stroke="#111" stroke-width="1"/><text x="92" y="228" text-anchor="start" font-family="monospace" font-size="12" fill="#111">spawn</text><path d="M 244 276 L 280 276 Q 288 276 288 284 L 288 300 Q 288 308 280 308 L 252 308" fill="none" stroke="#111" stroke-width="1.5"/><polygon points="244,308 252,303 252,313" fill="#111" stroke="#111" stroke-width="1"/><text x="252" y="268" text-anchor="start" font-family="monospace" font-size="12" fill="#111">processing</text><line x1="239" y1="356" x2="84" y2="356" stroke="#111" stroke-width="1.5" stroke-dasharray="6 4"/><polygon points="84,356 92,351 92,361" fill="#111" stroke="#111" stroke-width="1"/><text x="92" y="348" text-anchor="start" font-family="monospace" font-size="12" fill="#111">done</text><circle class="sequence-create" data-participant="Worker" cx="244" cy="188" r="5" fill="#dcfce7" stroke="#15803d" stroke-width="1.5"/><g class="sequence-destroy" data-participant="Worker" stroke="#b91c1c" stroke-width="2"><line x1="238" y1="382" x2="250" y2="394"/><line x1="238" y1="394" x2="250" y2="382"/></g><rect x="24" y="412" width="120" height="32" rx="4" ry="4" fill="#f6f6f6" stroke="#111" stroke-width="1"/><text x="84" y="433" text-anchor="middle" font-family="monospace" font-size="13" fill="#111111">Alice</text><rect x="184" y="412" width="120" height="32" rx="4" ry="4" fill="#f6f6f6" stroke="#111" stroke-width="1"/><text x="244" y="433" text-anchor="middle" font-family="monospace" font-size="13" fill="#111111">Worker</text></svg>