<svg xmlns="http://www.w3.org/2000/svg" width="328" height="368" viewBox="0 0 328 368"><rect width="100%" height="100%" fill="white"/><text x="24" y="24" font-family="monospace" font-size="18" font-weight="600" fill="#111">Autonumber with Custom</text><text x="24" y="48" font-family="monospace" font-size="18" font-weight="600" fill="#111">Format</text><rect x="24" y="72" width="120" height="32" rx="4" ry="4" fill="#f6f6f6" stroke="#111" stroke-width="1"/><text x="84" y="93" text-anchor="middle" font-family="monospace" font-size="13" fill="#111111">Alice</text><rect x="184" y="72" width="120" height="32" rx="4" ry="4" fill="#f6f6f6" stroke="#111" stroke-width="1"/><text x="244" y="93" text-anchor="middle" font-family="monospace" font-size="13" fill="#111111">Bob</text><line x1="84" y1="104" x2="84" y2="312" stroke="#555" stroke-width="1" stroke-dasharray="6 4"/><line x1="244" y1="104" x2="244" y2="312" stroke="#555" stroke-width="1" stroke-dasharray="6 4"/><line x1="84" y1="136" x2="244" y2="136" stroke="#111" stroke-width="1.5"/><polygon points="244,136 236,131 236,141" fill="#111" stroke="#111" stroke-width="1"/><text x="92" y="128" text-anchor="start" font-family="monospace" font-size="12" fill="#111">1 message 1</text><line x1="244" y1="176" x2="84" y2="176" stroke="#111" stroke-width="1.5" stroke-dasharray="6 4"/><polygon points="84,176 92,171 92,181" fill="#111" stroke="#111" stroke-width="1"/><text x="92" y="168" text-anchor="start" font-family="monospace" font-size="12" fill="#111">2 response 1</text><line x1="84" y1="216" x2="244" y2="216" stroke="#111" stroke-width="1.5"/><polygon points="244,216 236,211 236,221" fill="#111" stroke="#111" stroke-width="1"/><text x="92" y="208" text-anchor="start" font-family="monospace" font-size="12" fill="#111">unnumbered</text><line x1="84" y1="256" x2="244" y2="256" stroke="#111" stroke-width="1.5"/><polygon points="244,256 236,251 236,261" fill="#111" stroke="#111" stroke-width="1"/><text x="92" y="248" text-anchor="start" font-family="monospace" font-size="12" fill="#111">3 message 3</text><line x1="244" y1="296" x2="84" y2="296" stroke="#111" stroke-width="1.5" stroke-dasharray="6 4"/><polygon points="84,296 92,291 92,301" fill="#111" stroke="#111" stroke-width="1"/><text x="92" y="288" text-anchor="start" font-family="monospace" font-size="12" fill="#111">4 response 3</text><rect x="24" y="312" width="120" height="32" rx="4" ry="4" fill="#f6f6f6" stroke="#111" stroke-width="1"/><text x="84" y="333" text-anchor="middle" font-family="monospace" font-size="13" fill="#111111">Alice</text><rect x="184" y="312" width="120" height="32" rx="4" ry="4" fill="#f6f6f6" stroke="#111" stroke-width="1"/><text x="244" y="333" text-anchor="middle" font-family="monospace" font-size="13" fill="#111111">Bob</text></svg>