<svg xmlns="http://www.w3.org/2000/svg" width="232" height="304" viewBox="0 0 232 304"><rect width="100%" height="100%" fill="white"/><text x="16" y="16" font-family="monospace" font-size="18" font-weight="600" fill="#111">Autonumber with Custom</text><text x="16" y="40" font-family="monospace" font-size="18" font-weight="600" fill="#111">Format</text><rect x="16" y="64" width="80" height="32" rx="4" ry="4" fill="#f6f6f6" stroke="#111" stroke-width="1"/><text x="56" y="85" text-anchor="middle" font-family="monospace" font-size="13" fill="#111111">Alice</text><rect x="116" y="64" width="80" height="32" rx="4" ry="4" fill="#f6f6f6" stroke="#111" stroke-width="1"/><text x="156" y="85" text-anchor="middle" font-family="monospace" font-size="13" fill="#111111">Bob</text><line x1="56" y1="96" x2="56" y2="256" stroke="#555" stroke-width="1" stroke-dasharray="6 4"/><line x1="156" y1="96" x2="156" y2="256" stroke="#555" stroke-width="1" stroke-dasharray="6 4"/><line x1="56" y1="128" x2="156" y2="128" stroke="#111" stroke-width="1.5"/><polygon points="156,128 148,123 148,133" fill="#111" stroke="#111" stroke-width="1"/><text x="64" y="120" text-anchor="start" font-family="monospace" font-size="12" fill="#111">1 message 1</text><line x1="156" y1="156" x2="56" y2="156" stroke="#111" stroke-width="1.5" stroke-dasharray="6 4"/><polygon points="56,156 64,151 64,161" fill="#111" stroke="#111" stroke-width="1"/><text x="64" y="148" text-anchor="start" font-family="monospace" font-size="12" fill="#111">2 response 1</text><line x1="56" y1="184" x2="156" y2="184" stroke="#111" stroke-width="1.5"/><polygon points="156,184 148,179 148,189" fill="#111" stroke="#111" stroke-width="1"/><text x="64" y="176" text-anchor="start" font-family="monospace" font-size="12" fill="#111">unnumbered</text><line x1="56" y1="212" x2="156" y2="212" stroke="#111" stroke-width="1.5"/><polygon points="156,212 148,207 148,217" fill="#111" stroke="#111" stroke-width="1"/><text x="64" y="204" text-anchor="start" font-family="monospace" font-size="12" fill="#111">3 message 3</text><line x1="156" y1="240" x2="56" y2="240" stroke="#111" stroke-width="1.5" stroke-dasharray="6 4"/><polygon points="56,240 64,235 64,245" fill="#111" stroke="#111" stroke-width="1"/><text x="64" y="232" text-anchor="start" font-family="monospace" font-size="12" fill="#111">4 response 3</text><rect x="16" y="256" width="80" height="32" rx="4" ry="4" fill="#f6f6f6" stroke="#111" stroke-width="1"/><text x="56" y="277" text-anchor="middle" font-family="monospace" font-size="13" fill="#111111">Alice</text><rect x="116" y="256" width="80" height="32" rx="4" ry="4" fill="#f6f6f6" stroke="#111" stroke-width="1"/><text x="156" y="277" text-anchor="middle" font-family="monospace" font-size="13" fill="#111111">Bob</text></svg>