<svg xmlns="http://www.w3.org/2000/svg" width="488" height="308" viewBox="0 0 488 308"><rect width="100%" height="100%" fill="white"/><text x="24" y="24" font-family="monospace" font-size="18" font-weight="600" fill="#111">Return Shorthand</text><rect x="24" y="52" width="120" height="32" rx="4" ry="4" fill="#f6f6f6" stroke="#111" stroke-width="1"/><text x="84" y="73" text-anchor="middle" font-family="monospace" font-size="13" fill="#111111">Alice</text><rect x="184" y="52" width="120" height="32" rx="4" ry="4" fill="#f6f6f6" stroke="#111" stroke-width="1"/><text x="244" y="73" text-anchor="middle" font-family="monospace" font-size="13" fill="#111111">Bob</text><rect x="344" y="52" width="120" height="32" rx="4" ry="4" fill="#f6f6f6" stroke="#111" stroke-width="1"/><text x="404" y="73" text-anchor="middle" font-family="monospace" font-size="13" fill="#111111">Cache</text><line x1="84" y1="84" x2="84" y2="252" stroke="#555" stroke-width="1" stroke-dasharray="6 4"/><line x1="244" y1="84" x2="244" y2="252" stroke="#555" stroke-width="1" stroke-dasharray="6 4"/><line x1="404" y1="84" x2="404" y2="252" stroke="#555" stroke-width="1" stroke-dasharray="6 4"/><rect class="sequence-activation" data-participant="Bob" x="239" y="116" width="10" height="152" fill="#ffffff" stroke="#555" stroke-width="1"/><rect class="sequence-activation" data-participant="Cache" x="399" y="156" width="10" height="112" fill="#ffffff" stroke="#555" stroke-width="1"/><line x1="84" y1="116" x2="239" y2="116" stroke="#111" stroke-width="1.5"/><polygon points="239,116 231,111 231,121" fill="#111" stroke="#111" stroke-width="1"/><text x="92" y="108" text-anchor="start" font-family="monospace" font-size="12" fill="#111">authenticate()</text><line x1="249" y1="156" x2="399" y2="156" stroke="#111" stroke-width="1.5"/><polygon points="399,156 391,151 391,161" fill="#111" stroke="#111" stroke-width="1"/><text x="257" y="148" text-anchor="start" font-family="monospace" font-size="12" fill="#111">lookup()</text><line x1="404" y1="196" x2="244" y2="196" stroke="#111" stroke-width="1.5" stroke-dasharray="6 4"/><polyline points="252,191 244,196 252,201" fill="none" stroke="#111" stroke-width="1"/><text x="252" y="188" text-anchor="start" font-family="monospace" font-size="12" fill="#111">hit</text><line x1="239" y1="236" x2="84" y2="236" stroke="#111" stroke-width="1.5"/><polygon points="84,236 92,231 92,241" fill="#111" stroke="#111" stroke-width="1"/><text x="92" y="228" text-anchor="start" font-family="monospace" font-size="12" fill="#111">token</text><rect x="24" y="252" width="120" height="32" rx="4" ry="4" fill="#f6f6f6" stroke="#111" stroke-width="1"/><text x="84" y="273" text-anchor="middle" font-family="monospace" font-size="13" fill="#111111">Alice</text><rect x="184" y="252" width="120" height="32" rx="4" ry="4" fill="#f6f6f6" stroke="#111" stroke-width="1"/><text x="244" y="273" text-anchor="middle" font-family="monospace" font-size="13" fill="#111111">Bob</text><rect x="344" y="252" width="120" height="32" rx="4" ry="4" fill="#f6f6f6" stroke="#111" stroke-width="1"/><text x="404" y="273" text-anchor="middle" font-family="monospace" font-size="13" fill="#111111">Cache</text></svg>