<svg xmlns="http://www.w3.org/2000/svg" width="312" height="284" viewBox="0 0 312 284"><rect width="100%" height="100%" fill="white"/><text x="16" y="16" font-family="monospace" font-size="18" font-weight="600" fill="#111">Return Shorthand</text><rect x="16" y="44" width="80" height="32" rx="4" ry="4" fill="#f6f6f6" stroke="#111" stroke-width="1"/><text x="56" y="65" text-anchor="middle" font-family="monospace" font-size="13" fill="#111111">Alice</text><rect x="116" y="44" width="80" height="32" rx="4" ry="4" fill="#f6f6f6" stroke="#111" stroke-width="1"/><text x="156" y="65" text-anchor="middle" font-family="monospace" font-size="13" fill="#111111">Bob</text><rect x="216" y="44" width="80" height="32" rx="4" ry="4" fill="#f6f6f6" stroke="#111" stroke-width="1"/><text x="256" y="65" text-anchor="middle" font-family="monospace" font-size="13" fill="#111111">Cache</text><line x1="56" y1="76" x2="56" y2="236" stroke="#555" stroke-width="1" stroke-dasharray="6 4"/><line x1="156" y1="76" x2="156" y2="236" stroke="#555" stroke-width="1" stroke-dasharray="6 4"/><line x1="256" y1="76" x2="256" y2="236" stroke="#555" stroke-width="1" stroke-dasharray="6 4"/><rect class="sequence-activation" data-participant="Bob" x="151" y="124" width="10" height="116" fill="#ffffff" stroke="#555" stroke-width="1"/><rect class="sequence-activation" data-participant="Cache" x="251" y="164" width="10" height="76" fill="#ffffff" stroke="#555" stroke-width="1"/><line x1="56" y1="124" x2="151" y2="124" stroke="#111" stroke-width="1.5"/><polygon points="151,124 143,119 143,129" fill="#111" stroke="#111" stroke-width="1"/><text x="64" y="100" text-anchor="start" font-family="monospace" font-size="12" fill="#111">authenticate</text><text x="64" y="116" text-anchor="start" font-family="monospace" font-size="12" fill="#111">()</text><line x1="161" y1="164" x2="251" y2="164" stroke="#111" stroke-width="1.5"/><polygon points="251,164 243,159 243,169" fill="#111" stroke="#111" stroke-width="1"/><text x="169" y="156" text-anchor="start" font-family="monospace" font-size="12" fill="#111">lookup()</text><line x1="256" y1="192" x2="156" y2="192" stroke="#111" stroke-width="1.5" stroke-dasharray="6 4"/><polyline points="164,187 156,192 164,197" fill="none" stroke="#111" stroke-width="1"/><text x="164" y="184" text-anchor="start" font-family="monospace" font-size="12" fill="#111">hit</text><line x1="151" y1="220" x2="56" y2="220" stroke="#111" stroke-width="1.5"/><polygon points="56,220 64,215 64,225" fill="#111" stroke="#111" stroke-width="1"/><text x="64" y="212" text-anchor="start" font-family="monospace" font-size="12" fill="#111">token</text><rect x="16" y="236" width="80" height="32" rx="4" ry="4" fill="#f6f6f6" stroke="#111" stroke-width="1"/><text x="56" y="257" text-anchor="middle" font-family="monospace" font-size="13" fill="#111111">Alice</text><rect x="116" y="236" width="80" height="32" rx="4" ry="4" fill="#f6f6f6" stroke="#111" stroke-width="1"/><text x="156" y="257" text-anchor="middle" font-family="monospace" font-size="13" fill="#111111">Bob</text><rect x="216" y="236" width="80" height="32" rx="4" ry="4" fill="#f6f6f6" stroke="#111" stroke-width="1"/><text x="256" y="257" text-anchor="middle" font-family="monospace" font-size="13" fill="#111111">Cache</text></svg>