<svg xmlns="http://www.w3.org/2000/svg" width="488" height="348" viewBox="0 0 488 348"><rect width="100%" height="100%" fill="white"/><text x="24" y="24" font-family="monospace" font-size="18" font-weight="600" fill="#111">Ref Over Multiple Participants</text><rect x="24" y="52" width="120" height="32" rx="4" ry="4" fill="#f6f6f6" stroke="#111" stroke-width="1"/><text x="84" y="73" text-anchor="middle" font-family="monospace" font-size="13" fill="#111111">Alice</text><rect x="184" y="52" width="120" height="32" rx="4" ry="4" fill="#f6f6f6" stroke="#111" stroke-width="1"/><text x="244" y="73" text-anchor="middle" font-family="monospace" font-size="13" fill="#111111">Bob</text><rect x="344" y="52" width="120" height="32" rx="4" ry="4" fill="#f6f6f6" stroke="#111" stroke-width="1"/><text x="404" y="73" text-anchor="middle" font-family="monospace" font-size="13" fill="#111111">Charlie</text><line x1="84" y1="84" x2="84" y2="292" stroke="#555" stroke-width="1" stroke-dasharray="6 4"/><line x1="244" y1="84" x2="244" y2="292" stroke="#555" stroke-width="1" stroke-dasharray="6 4"/><line x1="404" y1="84" x2="404" y2="292" stroke="#555" stroke-width="1" stroke-dasharray="6 4"/><rect x="24" y="148" width="440" height="72" rx="2" ry="2" fill="#eef6ff" stroke="#666" stroke-width="1"/><polygon points="24,148 56,148 56,162 50,168 24,168" fill="#eef6ff" stroke="#666" stroke-width="1"/><text x="30" y="162" font-family="monospace" font-size="11" font-weight="600" fill="#111">ref</text><text x="32" y="180" font-family="monospace" font-size="12" fill="#111">over Alice, Bob, Charlie</text><text x="32" y="196" font-family="monospace" font-size="12" fill="#111">See authentication flow</text><text x="32" y="212" font-family="monospace" font-size="12" fill="#111">in diagram AUTH-001</text><line x1="84" y1="116" x2="244" y2="116" stroke="#111" stroke-width="1.5"/><polygon points="244,116 236,111 236,121" fill="#111" stroke="#111" stroke-width="1"/><text x="92" y="108" text-anchor="start" font-family="monospace" font-size="12" fill="#111">request</text><line x1="244" y1="276" x2="84" y2="276" stroke="#111" stroke-width="1.5" stroke-dasharray="6 4"/><polygon points="84,276 92,271 92,281" fill="#111" stroke="#111" stroke-width="1"/><text x="92" y="268" text-anchor="start" font-family="monospace" font-size="12" fill="#111">response</text><rect x="24" y="292" width="120" height="32" rx="4" ry="4" fill="#f6f6f6" stroke="#111" stroke-width="1"/><text x="84" y="313" text-anchor="middle" font-family="monospace" font-size="13" fill="#111111">Alice</text><rect x="184" y="292" width="120" height="32" rx="4" ry="4" fill="#f6f6f6" stroke="#111" stroke-width="1"/><text x="244" y="313" text-anchor="middle" font-family="monospace" font-size="13" fill="#111111">Bob</text><rect x="344" y="292" width="120" height="32" rx="4" ry="4" fill="#f6f6f6" stroke="#111" stroke-width="1"/><text x="404" y="313" text-anchor="middle" font-family="monospace" font-size="13" fill="#111111">Charlie</text></svg>