<svg xmlns="http://www.w3.org/2000/svg" width="328" height="328" viewBox="0 0 328 328"><rect width="100%" height="100%" fill="white"/><text x="24" y="24" font-family="monospace" font-size="18" font-weight="600">Ref Over Multiple</text><text x="24" y="48" font-family="monospace" font-size="18" font-weight="600">Participants</text><rect x="24" y="72" width="120" height="32" rx="4" ry="4" fill="#f6f6f6" stroke="#111" stroke-width="1"/><text x="84" y="93" text-anchor="middle" font-family="monospace" font-size="13">Alice</text><rect x="184" y="72" width="120" height="32" rx="4" ry="4" fill="#f6f6f6" stroke="#111" stroke-width="1"/><text x="244" y="93" text-anchor="middle" font-family="monospace" font-size="13">Bob</text><line x1="84" y1="104" x2="84" y2="272" stroke="#555" stroke-width="1" stroke-dasharray="6 4"/><line x1="244" y1="104" x2="244" y2="272" stroke="#555" stroke-width="1" stroke-dasharray="6 4"/><rect x="24" y="168" width="280" height="56" rx="2" ry="2" fill="#eef6ff" stroke="#666" stroke-width="1"/><text x="32" y="184" font-family="monospace" font-size="12" font-weight="600">ref over Alice, Bob, Charlie</text><text x="32" y="200" font-family="monospace" font-size="12">See authentication flow</text><text x="32" y="216" font-family="monospace" font-size="12">in diagram AUTH-001</text><line x1="84" y1="128" x2="244" y2="128" stroke="#111" stroke-width="1.5"/><polygon points="244,128 238,124 238,132" fill="#111"/><text x="166" y="120" text-anchor="middle" font-family="monospace" font-size="12">request</text><line x1="244" y1="248" x2="84" y2="248" stroke="#111" stroke-width="1.5" stroke-dasharray="6 4"/><polygon points="84,248 90,244 90,252" fill="#111"/><text x="166" y="240" text-anchor="middle" font-family="monospace" font-size="12">response</text><rect x="24" y="272" width="120" height="32" rx="4" ry="4" fill="#f6f6f6" stroke="#111" stroke-width="1"/><text x="84" y="293" text-anchor="middle" font-family="monospace" font-size="13">Alice</text><rect x="184" y="272" width="120" height="32" rx="4" ry="4" fill="#f6f6f6" stroke="#111" stroke-width="1"/><text x="244" y="293" text-anchor="middle" font-family="monospace" font-size="13">Bob</text></svg>