<svg xmlns="http://www.w3.org/2000/svg" width="488" height="308" viewBox="0 0 488 308"><rect width="100%" height="100%" fill="white"/><text x="24" y="24" font-family="monospace" font-size="18" font-weight="600">Ref Over Multiple Participants</text><rect x="24" y="52" width="120" height="32" rx="4" ry="4" fill="#f6f6f6" stroke="#111" stroke-width="1"/><text x="84" y="73" text-anchor="middle" font-family="monospace" font-size="13">Alice</text><rect x="184" y="52" width="120" height="32" rx="4" ry="4" fill="#f6f6f6" stroke="#111" stroke-width="1"/><text x="244" y="73" text-anchor="middle" font-family="monospace" font-size="13">Bob</text><rect x="344" y="52" width="120" height="32" rx="4" ry="4" fill="#f6f6f6" stroke="#111" stroke-width="1"/><text x="404" y="73" text-anchor="middle" font-family="monospace" font-size="13">Charlie</text><line x1="84" y1="84" x2="84" y2="252" stroke="#555" stroke-width="1" stroke-dasharray="6 4"/><line x1="244" y1="84" x2="244" y2="252" stroke="#555" stroke-width="1" stroke-dasharray="6 4"/><line x1="404" y1="84" x2="404" y2="252" stroke="#555" stroke-width="1" stroke-dasharray="6 4"/><rect x="24" y="148" width="440" height="72" rx="2" ry="2" fill="#eef6ff" stroke="#666" stroke-width="1"/><polygon points="24,148 56,148 56,162 50,168 24,168" fill="#eef6ff" stroke="#666" stroke-width="1"/><text x="30" y="162" font-family="monospace" font-size="11" font-weight="600">ref</text><text x="32" y="180" font-family="monospace" font-size="12">over Alice, Bob, Charlie</text><text x="32" y="196" font-family="monospace" font-size="12">See authentication flow</text><text x="32" y="212" font-family="monospace" font-size="12">in diagram AUTH-001</text><line x1="84" y1="108" x2="244" y2="108" stroke="#111" stroke-width="1.5"/><polygon points="244,108 236,103 236,113" fill="#111" stroke="#111" stroke-width="1"/><text x="92" y="100" text-anchor="start" font-family="monospace" font-size="12">request</text><line x1="244" y1="228" x2="84" y2="228" stroke="#111" stroke-width="1.5" stroke-dasharray="6 4"/><polygon points="84,228 92,223 92,233" fill="#111" stroke="#111" stroke-width="1"/><text x="92" y="220" text-anchor="start" font-family="monospace" font-size="12">response</text><rect x="24" y="252" width="120" height="32" rx="4" ry="4" fill="#f6f6f6" stroke="#111" stroke-width="1"/><text x="84" y="273" text-anchor="middle" font-family="monospace" font-size="13">Alice</text><rect x="184" y="252" width="120" height="32" rx="4" ry="4" fill="#f6f6f6" stroke="#111" stroke-width="1"/><text x="244" y="273" text-anchor="middle" font-family="monospace" font-size="13">Bob</text><rect x="344" y="252" width="120" height="32" rx="4" ry="4" fill="#f6f6f6" stroke="#111" stroke-width="1"/><text x="404" y="273" text-anchor="middle" font-family="monospace" font-size="13">Charlie</text></svg>