<svg xmlns="http://www.w3.org/2000/svg" width="320" height="304" viewBox="0 0 320 304"><rect width="100%" height="100%" fill="white"/><text x="16" y="16" font-family="monospace" font-size="18" font-weight="600" fill="#111">Ref Over Multiple</text><text x="16" y="40" font-family="monospace" font-size="18" font-weight="600" fill="#111">Participants</text><rect x="20" y="64" width="80" height="32" rx="4" ry="4" fill="#f6f6f6" stroke="#111" stroke-width="1"/><text x="60" y="85" text-anchor="middle" font-family="monospace" font-size="13" fill="#111111">Alice</text><rect x="120" y="64" width="80" height="32" rx="4" ry="4" fill="#f6f6f6" stroke="#111" stroke-width="1"/><text x="160" y="85" text-anchor="middle" font-family="monospace" font-size="13" fill="#111111">Bob</text><rect x="220" y="64" width="80" height="32" rx="4" ry="4" fill="#f6f6f6" stroke="#111" stroke-width="1"/><text x="260" y="85" text-anchor="middle" font-family="monospace" font-size="13" fill="#111111">Charlie</text><line x1="60" y1="96" x2="60" y2="256" stroke="#555" stroke-width="1" stroke-dasharray="6 4"/><line x1="160" y1="96" x2="160" y2="256" stroke="#555" stroke-width="1" stroke-dasharray="6 4"/><line x1="260" y1="96" x2="260" y2="256" stroke="#555" stroke-width="1" stroke-dasharray="6 4"/><rect x="16" y="148" width="288" height="56" rx="2" ry="2" fill="#eef6ff" stroke="#666" stroke-width="1"/><polygon points="16,148 48,148 48,162 42,168 16,168" fill="#eef6ff" stroke="#666" stroke-width="1"/><text x="22" y="162" font-family="monospace" font-size="11" font-weight="600" fill="#111">ref</text><text x="24" y="180" font-family="monospace" font-size="12" fill="#111">See authentication flow</text><text x="24" y="196" font-family="monospace" font-size="12" fill="#111">in diagram AUTH-001</text><line x1="60" y1="128" x2="160" y2="128" stroke="#111" stroke-width="1.5"/><polygon points="160,128 152,123 152,133" fill="#111" stroke="#111" stroke-width="1"/><text x="68" y="120" text-anchor="start" font-family="monospace" font-size="12" fill="#111">request</text><line x1="160" y1="240" x2="60" y2="240" stroke="#111" stroke-width="1.5" stroke-dasharray="6 4"/><polygon points="60,240 68,235 68,245" fill="#111" stroke="#111" stroke-width="1"/><text x="68" y="232" text-anchor="start" font-family="monospace" font-size="12" fill="#111">response</text><rect x="20" y="256" width="80" height="32" rx="4" ry="4" fill="#f6f6f6" stroke="#111" stroke-width="1"/><text x="60" y="277" text-anchor="middle" font-family="monospace" font-size="13" fill="#111111">Alice</text><rect x="120" y="256" width="80" height="32" rx="4" ry="4" fill="#f6f6f6" stroke="#111" stroke-width="1"/><text x="160" y="277" text-anchor="middle" font-family="monospace" font-size="13" fill="#111111">Bob</text><rect x="220" y="256" width="80" height="32" rx="4" ry="4" fill="#f6f6f6" stroke="#111" stroke-width="1"/><text x="260" y="277" text-anchor="middle" font-family="monospace" font-size="13" fill="#111111">Charlie</text></svg>