<svg xmlns="http://www.w3.org/2000/svg" width="496" height="308" viewBox="0 0 496 308"><rect width="100%" height="100%" fill="white"/><text x="24" y="24" font-family="monospace" font-size="18" font-weight="600" fill="#111">Ref Over Multiple Participants</text><rect x="28" y="52" width="120" height="32" rx="4" ry="4" fill="#f6f6f6" stroke="#111" stroke-width="1"/><text x="88" y="73" text-anchor="middle" font-family="monospace" font-size="13" fill="#111111">Alice</text><rect x="188" y="52" width="120" height="32" rx="4" ry="4" fill="#f6f6f6" stroke="#111" stroke-width="1"/><text x="248" y="73" text-anchor="middle" font-family="monospace" font-size="13" fill="#111111">Bob</text><rect x="348" y="52" width="120" height="32" rx="4" ry="4" fill="#f6f6f6" stroke="#111" stroke-width="1"/><text x="408" y="73" text-anchor="middle" font-family="monospace" font-size="13" fill="#111111">Charlie</text><line x1="88" y1="84" x2="88" y2="252" stroke="#555" stroke-width="1" stroke-dasharray="6 4"/><line x1="248" y1="84" x2="248" y2="252" stroke="#555" stroke-width="1" stroke-dasharray="6 4"/><line x1="408" y1="84" x2="408" y2="252" stroke="#555" stroke-width="1" stroke-dasharray="6 4"/><rect x="24" y="148" width="448" height="56" rx="2" ry="2" fill="#eef6ff" stroke="#666" stroke-width="1"/><polygon points="24,148 56,148 56,162 50,168 24,168" fill="#eef6ff" stroke="#666" stroke-width="1"/><text x="30" y="162" font-family="monospace" font-size="11" font-weight="600" fill="#111">ref</text><text x="32" y="180" font-family="monospace" font-size="12" fill="#111">See authentication flow</text><text x="32" y="196" font-family="monospace" font-size="12" fill="#111">in diagram AUTH-001</text><line x1="88" y1="116" x2="248" y2="116" stroke="#111" stroke-width="1.5"/><polygon points="248,116 240,111 240,121" fill="#111" stroke="#111" stroke-width="1"/><text x="96" y="108" text-anchor="start" font-family="monospace" font-size="12" fill="#111">request</text><line x1="248" y1="236" x2="88" y2="236" stroke="#111" stroke-width="1.5" stroke-dasharray="6 4"/><polygon points="88,236 96,231 96,241" fill="#111" stroke="#111" stroke-width="1"/><text x="96" y="228" text-anchor="start" font-family="monospace" font-size="12" fill="#111">response</text><rect x="28" y="252" width="120" height="32" rx="4" ry="4" fill="#f6f6f6" stroke="#111" stroke-width="1"/><text x="88" y="273" text-anchor="middle" font-family="monospace" font-size="13" fill="#111111">Alice</text><rect x="188" y="252" width="120" height="32" rx="4" ry="4" fill="#f6f6f6" stroke="#111" stroke-width="1"/><text x="248" y="273" text-anchor="middle" font-family="monospace" font-size="13" fill="#111111">Bob</text><rect x="348" y="252" width="120" height="32" rx="4" ry="4" fill="#f6f6f6" stroke="#111" stroke-width="1"/><text x="408" y="273" text-anchor="middle" font-family="monospace" font-size="13" fill="#111111">Charlie</text></svg>