<svg xmlns="http://www.w3.org/2000/svg" width="332" height="492" viewBox="0 0 332 492"><rect width="100%" height="100%" fill="white"/><text x="16" y="16" font-family="monospace" font-size="18" font-weight="600" fill="#111">Divider Styles</text><rect x="16" y="44" width="80" height="32" rx="4" ry="4" fill="#f6f6f6" stroke="#111" stroke-width="1"/><text x="56" y="65" text-anchor="middle" font-family="monospace" font-size="13" fill="#111111">Alice</text><rect x="116" y="44" width="80" height="32" rx="4" ry="4" fill="#f6f6f6" stroke="#111" stroke-width="1"/><text x="156" y="65" text-anchor="middle" font-family="monospace" font-size="13" fill="#111111">Bob</text><rect x="216" y="44" width="80" height="32" rx="4" ry="4" fill="#f6f6f6" stroke="#111" stroke-width="1"/><text x="256" y="65" text-anchor="middle" font-family="monospace" font-size="13" fill="#111111">Auth</text><line x1="56" y1="76" x2="56" y2="444" stroke="#555" stroke-width="1" stroke-dasharray="6 4"/><line x1="156" y1="76" x2="156" y2="444" stroke="#555" stroke-width="1" stroke-dasharray="6 4"/><line x1="256" y1="76" x2="256" y2="444" stroke="#555" stroke-width="1" stroke-dasharray="6 4"/><line x1="56" y1="124" x2="156" y2="124" stroke="#111" stroke-width="1.5"/><polygon points="156,124 148,119 148,129" fill="#111" stroke="#111" stroke-width="1"/><text x="64" y="100" text-anchor="start" font-family="monospace" font-size="12" fill="#111">initial</text><text x="64" y="116" text-anchor="start" font-family="monospace" font-size="12" fill="#111">request</text><line x1="56" y1="192" x2="256" y2="192" stroke="#111" stroke-width="1.5"/><polygon points="256,192 248,187 248,197" fill="#111" stroke="#111" stroke-width="1"/><text x="64" y="184" text-anchor="start" font-family="monospace" font-size="12" fill="#111">login</text><line x1="256" y1="220" x2="56" y2="220" stroke="#111" stroke-width="1.5" stroke-dasharray="6 4"/><polygon points="56,220 64,215 64,225" fill="#111" stroke="#111" stroke-width="1"/><text x="64" y="212" text-anchor="start" font-family="monospace" font-size="12" fill="#111">token</text><line x1="56" y1="292" x2="156" y2="292" stroke="#111" stroke-width="1.5"/><polygon points="156,292 148,287 148,297" fill="#111" stroke="#111" stroke-width="1"/><text x="64" y="268" text-anchor="start" font-family="monospace" font-size="12" fill="#111">process with</text><text x="64" y="284" text-anchor="start" font-family="monospace" font-size="12" fill="#111">token</text><line x1="156" y1="332" x2="56" y2="332" stroke="#111" stroke-width="1.5" stroke-dasharray="6 4"/><polygon points="56,332 64,327 64,337" fill="#111" stroke="#111" stroke-width="1"/><text x="64" y="324" text-anchor="start" font-family="monospace" font-size="12" fill="#111">result</text><path d="M 56 388 L 92 388 Q 100 388 100 396 L 100 412 Q 100 420 92 420 L 64 420" fill="none" stroke="#111" stroke-width="1.5"/><polygon points="56,420 64,415 64,425" fill="#111" stroke="#111" stroke-width="1"/><text x="64" y="380" text-anchor="start" font-family="monospace" font-size="12" fill="#111">cleanup</text><line x1="16" y1="156" x2="316" y2="156" stroke="#222" stroke-width="1.5"/><text x="166" y="150" text-anchor="middle" font-family="monospace" font-size="11" font-weight="600" fill="#222">== Authentication Phase ==</text><line x1="16" y1="240" x2="316" y2="240" stroke="#222" stroke-width="1.5"/><text x="166" y="234" text-anchor="middle" font-family="monospace" font-size="11" font-weight="600" fill="#222">== Processing Phase ==</text><line x1="16" y1="352" x2="316" y2="352" stroke="#222" stroke-width="1.5"/><text x="166" y="346" text-anchor="middle" font-family="monospace" font-size="11" font-weight="600" fill="#222">== Cleanup Phase ==</text><rect x="16" y="444" width="80" height="32" rx="4" ry="4" fill="#f6f6f6" stroke="#111" stroke-width="1"/><text x="56" y="465" text-anchor="middle" font-family="monospace" font-size="13" fill="#111111">Alice</text><rect x="116" y="444" width="80" height="32" rx="4" ry="4" fill="#f6f6f6" stroke="#111" stroke-width="1"/><text x="156" y="465" text-anchor="middle" font-family="monospace" font-size="13" fill="#111111">Bob</text><rect x="216" y="444" width="80" height="32" rx="4" ry="4" fill="#f6f6f6" stroke="#111" stroke-width="1"/><text x="256" y="465" text-anchor="middle" font-family="monospace" font-size="13" fill="#111111">Auth</text></svg>