<svg xmlns="http://www.w3.org/2000/svg" width="528" height="540" viewBox="0 0 528 540"><rect width="100%" height="100%" fill="white"/><text x="24" y="24" font-family="monospace" font-size="18" font-weight="600" fill="#111">Divider Styles</text><rect x="24" y="52" width="120" height="32" rx="4" ry="4" fill="#f6f6f6" stroke="#111" stroke-width="1"/><text x="84" y="73" text-anchor="middle" font-family="monospace" font-size="13" fill="#111111">Alice</text><rect x="184" y="52" width="120" height="32" rx="4" ry="4" fill="#f6f6f6" stroke="#111" stroke-width="1"/><text x="244" y="73" text-anchor="middle" font-family="monospace" font-size="13" fill="#111111">Bob</text><rect x="344" y="52" width="120" height="32" rx="4" ry="4" fill="#f6f6f6" stroke="#111" stroke-width="1"/><text x="404" y="73" text-anchor="middle" font-family="monospace" font-size="13" fill="#111111">Auth</text><line x1="84" y1="84" x2="84" y2="484" stroke="#555" stroke-width="1" stroke-dasharray="6 4"/><line x1="244" y1="84" x2="244" y2="484" stroke="#555" stroke-width="1" stroke-dasharray="6 4"/><line x1="404" y1="84" x2="404" y2="484" stroke="#555" stroke-width="1" stroke-dasharray="6 4"/><line x1="84" y1="108" x2="244" y2="108" stroke="#111" stroke-width="1.5"/><polygon points="244,108 236,103 236,113" fill="#111" stroke="#111" stroke-width="1"/><text x="92" y="100" text-anchor="start" font-family="monospace" font-size="12" fill="#111">initial request</text><line x1="84" y1="188" x2="404" y2="188" stroke="#111" stroke-width="1.5"/><polygon points="404,188 396,183 396,193" fill="#111" stroke="#111" stroke-width="1"/><text x="92" y="180" text-anchor="start" font-family="monospace" font-size="12" fill="#111">login</text><line x1="404" y1="228" x2="84" y2="228" stroke="#111" stroke-width="1.5" stroke-dasharray="6 4"/><polygon points="84,228 92,223 92,233" fill="#111" stroke="#111" stroke-width="1"/><text x="92" y="220" text-anchor="start" font-family="monospace" font-size="12" fill="#111">token</text><line x1="84" y1="308" x2="244" y2="308" stroke="#111" stroke-width="1.5"/><polygon points="244,308 236,303 236,313" fill="#111" stroke="#111" stroke-width="1"/><text x="92" y="300" text-anchor="start" font-family="monospace" font-size="12" fill="#111">process with token</text><line x1="244" y1="348" x2="84" y2="348" stroke="#111" stroke-width="1.5" stroke-dasharray="6 4"/><polygon points="84,348 92,343 92,353" fill="#111" stroke="#111" stroke-width="1"/><text x="92" y="340" text-anchor="start" font-family="monospace" font-size="12" fill="#111">result</text><path d="M 84 428 L 128 428 L 128 460 L 92 460" fill="none" stroke="#111" stroke-width="1.5"/><polygon points="84,460 92,455 92,465" fill="#111" stroke="#111" stroke-width="1"/><text x="92" y="420" text-anchor="start" font-family="monospace" font-size="12" fill="#111">cleanup</text><line x1="24" y1="148" x2="504" y2="148" stroke="#222" stroke-width="1.5"/><text x="264" y="142" text-anchor="middle" font-family="monospace" font-size="11" font-weight="600" fill="#222">== Authentication Phase ==</text><line x1="24" y1="268" x2="504" y2="268" stroke="#222" stroke-width="1.5"/><text x="264" y="262" text-anchor="middle" font-family="monospace" font-size="11" font-weight="600" fill="#222">== Processing Phase ==</text><line x1="24" y1="388" x2="504" y2="388" stroke="#222" stroke-width="1.5"/><text x="264" y="382" text-anchor="middle" font-family="monospace" font-size="11" font-weight="600" fill="#222">== Cleanup Phase ==</text><rect x="24" y="484" width="120" height="32" rx="4" ry="4" fill="#f6f6f6" stroke="#111" stroke-width="1"/><text x="84" y="505" text-anchor="middle" font-family="monospace" font-size="13" fill="#111111">Alice</text><rect x="184" y="484" width="120" height="32" rx="4" ry="4" fill="#f6f6f6" stroke="#111" stroke-width="1"/><text x="244" y="505" text-anchor="middle" font-family="monospace" font-size="13" fill="#111111">Bob</text><rect x="344" y="484" width="120" height="32" rx="4" ry="4" fill="#f6f6f6" stroke="#111" stroke-width="1"/><text x="404" y="505" text-anchor="middle" font-family="monospace" font-size="13" fill="#111111">Auth</text></svg>