<svg xmlns="http://www.w3.org/2000/svg" width="528" height="508" viewBox="0 0 528 508"><rect width="100%" height="100%" fill="white"/><text x="24" y="24" font-family="monospace" font-size="18" font-weight="600">Divider Styles</text><rect x="24" y="52" width="120" height="32" rx="4" ry="4" fill="#f6f6f6" stroke="#111" stroke-width="1"/><text x="84" y="73" text-anchor="middle" font-family="monospace" font-size="13">Alice</text><rect x="184" y="52" width="120" height="32" rx="4" ry="4" fill="#f6f6f6" stroke="#111" stroke-width="1"/><text x="244" y="73" text-anchor="middle" font-family="monospace" font-size="13">Bob</text><rect x="344" y="52" width="120" height="32" rx="4" ry="4" fill="#f6f6f6" stroke="#111" stroke-width="1"/><text x="404" y="73" text-anchor="middle" font-family="monospace" font-size="13">Auth</text><line x1="84" y1="84" x2="84" y2="452" stroke="#555" stroke-width="1" stroke-dasharray="6 4"/><line x1="244" y1="84" x2="244" y2="452" stroke="#555" stroke-width="1" stroke-dasharray="6 4"/><line x1="404" y1="84" x2="404" y2="452" stroke="#555" stroke-width="1" stroke-dasharray="6 4"/><line x1="84" y1="108" x2="244" y2="108" stroke="#111" stroke-width="1.5"/><polygon points="244,108 238,104 238,112" fill="#111"/><text x="166" y="100" text-anchor="middle" font-family="monospace" font-size="12">initial request</text><line x1="84" y1="188" x2="404" y2="188" stroke="#111" stroke-width="1.5"/><polygon points="404,188 398,184 398,192" fill="#111"/><text x="246" y="180" text-anchor="middle" font-family="monospace" font-size="12">login</text><line x1="404" y1="228" x2="84" y2="228" stroke="#111" stroke-width="1.5" stroke-dasharray="6 4"/><polygon points="84,228 90,224 90,232" fill="#111"/><text x="246" y="220" text-anchor="middle" font-family="monospace" font-size="12">token</text><line x1="84" y1="308" x2="244" y2="308" stroke="#111" stroke-width="1.5"/><polygon points="244,308 238,304 238,312" fill="#111"/><text x="166" y="300" text-anchor="middle" font-family="monospace" font-size="12">process with token</text><line x1="244" y1="348" x2="84" y2="348" stroke="#111" stroke-width="1.5" stroke-dasharray="6 4"/><polygon points="84,348 90,344 90,352" fill="#111"/><text x="166" y="340" text-anchor="middle" font-family="monospace" font-size="12">result</text><line x1="84" y1="428" x2="128" y2="428" stroke="#111" stroke-width="1.5"/><polygon points="128,428 122,424 122,432" fill="#111"/><text x="108" y="420" text-anchor="middle" font-family="monospace" font-size="12">cleanup</text><line x1="24" y1="148" x2="504" y2="148" stroke="#222" stroke-width="1.5"/><text x="264" y="142" text-anchor="middle" font-family="monospace" font-size="11" font-weight="600" fill="#222">== Authentication Phase ==</text><line x1="24" y1="268" x2="504" y2="268" stroke="#222" stroke-width="1.5"/><text x="264" y="262" text-anchor="middle" font-family="monospace" font-size="11" font-weight="600" fill="#222">== Processing Phase ==</text><line x1="24" y1="388" x2="504" y2="388" stroke="#222" stroke-width="1.5"/><text x="264" y="382" text-anchor="middle" font-family="monospace" font-size="11" font-weight="600" fill="#222">== Cleanup Phase ==</text><rect x="24" y="452" width="120" height="32" rx="4" ry="4" fill="#f6f6f6" stroke="#111" stroke-width="1"/><text x="84" y="473" text-anchor="middle" font-family="monospace" font-size="13">Alice</text><rect x="184" y="452" width="120" height="32" rx="4" ry="4" fill="#f6f6f6" stroke="#111" stroke-width="1"/><text x="244" y="473" text-anchor="middle" font-family="monospace" font-size="13">Bob</text><rect x="344" y="452" width="120" height="32" rx="4" ry="4" fill="#f6f6f6" stroke="#111" stroke-width="1"/><text x="404" y="473" text-anchor="middle" font-family="monospace" font-size="13">Auth</text></svg>