<svg xmlns="http://www.w3.org/2000/svg" width="528" height="548" viewBox="0 0 528 548"><rect width="100%" height="100%" fill="white"/><text x="24" y="24" font-family="monospace" font-size="18" font-weight="600" fill="#111">Divider Styles</text><rect x="24" y="52" width="120" height="32" rx="4" ry="4" fill="#f6f6f6" stroke="#111" stroke-width="1"/><text x="84" y="73" text-anchor="middle" font-family="monospace" font-size="13" fill="#111111">Alice</text><rect x="184" y="52" width="120" height="32" rx="4" ry="4" fill="#f6f6f6" stroke="#111" stroke-width="1"/><text x="244" y="73" text-anchor="middle" font-family="monospace" font-size="13" fill="#111111">Bob</text><rect x="344" y="52" width="120" height="32" rx="4" ry="4" fill="#f6f6f6" stroke="#111" stroke-width="1"/><text x="404" y="73" text-anchor="middle" font-family="monospace" font-size="13" fill="#111111">Auth</text><line x1="84" y1="84" x2="84" y2="492" stroke="#555" stroke-width="1" stroke-dasharray="6 4"/><line x1="244" y1="84" x2="244" y2="492" stroke="#555" stroke-width="1" stroke-dasharray="6 4"/><line x1="404" y1="84" x2="404" y2="492" stroke="#555" stroke-width="1" stroke-dasharray="6 4"/><line x1="84" y1="116" x2="244" y2="116" stroke="#111" stroke-width="1.5"/><polygon points="244,116 236,111 236,121" fill="#111" stroke="#111" stroke-width="1"/><text x="92" y="108" text-anchor="start" font-family="monospace" font-size="12" fill="#111">initial request</text><line x1="84" y1="196" x2="404" y2="196" stroke="#111" stroke-width="1.5"/><polygon points="404,196 396,191 396,201" fill="#111" stroke="#111" stroke-width="1"/><text x="92" y="188" text-anchor="start" font-family="monospace" font-size="12" fill="#111">login</text><line x1="404" y1="236" x2="84" y2="236" stroke="#111" stroke-width="1.5" stroke-dasharray="6 4"/><polygon points="84,236 92,231 92,241" fill="#111" stroke="#111" stroke-width="1"/><text x="92" y="228" text-anchor="start" font-family="monospace" font-size="12" fill="#111">token</text><line x1="84" y1="316" x2="244" y2="316" stroke="#111" stroke-width="1.5"/><polygon points="244,316 236,311 236,321" fill="#111" stroke="#111" stroke-width="1"/><text x="92" y="308" text-anchor="start" font-family="monospace" font-size="12" fill="#111">process with token</text><line x1="244" y1="356" x2="84" y2="356" stroke="#111" stroke-width="1.5" stroke-dasharray="6 4"/><polygon points="84,356 92,351 92,361" fill="#111" stroke="#111" stroke-width="1"/><text x="92" y="348" text-anchor="start" font-family="monospace" font-size="12" fill="#111">result</text><path d="M 84 436 L 120 436 Q 128 436 128 444 L 128 460 Q 128 468 120 468 L 92 468" fill="none" stroke="#111" stroke-width="1.5"/><polygon points="84,468 92,463 92,473" fill="#111" stroke="#111" stroke-width="1"/><text x="92" y="428" text-anchor="start" font-family="monospace" font-size="12" fill="#111">cleanup</text><line x1="24" y1="148" x2="504" y2="148" stroke="#222" stroke-width="1.5"/><text x="264" y="142" text-anchor="middle" font-family="monospace" font-size="11" font-weight="600" fill="#222">== Authentication Phase ==</text><line x1="24" y1="268" x2="504" y2="268" stroke="#222" stroke-width="1.5"/><text x="264" y="262" text-anchor="middle" font-family="monospace" font-size="11" font-weight="600" fill="#222">== Processing Phase ==</text><line x1="24" y1="388" x2="504" y2="388" stroke="#222" stroke-width="1.5"/><text x="264" y="382" text-anchor="middle" font-family="monospace" font-size="11" font-weight="600" fill="#222">== Cleanup Phase ==</text><rect x="24" y="492" width="120" height="32" rx="4" ry="4" fill="#f6f6f6" stroke="#111" stroke-width="1"/><text x="84" y="513" text-anchor="middle" font-family="monospace" font-size="13" fill="#111111">Alice</text><rect x="184" y="492" width="120" height="32" rx="4" ry="4" fill="#f6f6f6" stroke="#111" stroke-width="1"/><text x="244" y="513" text-anchor="middle" font-family="monospace" font-size="13" fill="#111111">Bob</text><rect x="344" y="492" width="120" height="32" rx="4" ry="4" fill="#f6f6f6" stroke="#111" stroke-width="1"/><text x="404" y="513" text-anchor="middle" font-family="monospace" font-size="13" fill="#111111">Auth</text></svg>