<svg xmlns="http://www.w3.org/2000/svg" width="328" height="228" viewBox="0 0 328 228"><rect width="100%" height="100%" fill="white"/><text x="24" y="24" font-family="monospace" font-size="18" font-weight="600" fill="#2244aa">Round Corners</text><rect x="24" y="52" width="120" height="32" rx="20" ry="20" fill="#ddeeff" stroke="#111" stroke-width="1"/><text x="84" y="73" text-anchor="middle" font-family="monospace" font-size="13" fill="#111111">Alice</text><rect x="184" y="52" width="120" height="32" rx="20" ry="20" fill="#ddeeff" stroke="#111" stroke-width="1"/><text x="244" y="73" text-anchor="middle" font-family="monospace" font-size="13" fill="#111111">Bob</text><line x1="84" y1="84" x2="84" y2="172" stroke="#555" stroke-width="1" stroke-dasharray="6 4"/><line x1="244" y1="84" x2="244" y2="172" stroke="#555" stroke-width="1" stroke-dasharray="6 4"/><line x1="84" y1="116" x2="244" y2="116" stroke="#2244aa" stroke-width="1.5"/><polygon points="244,116 236,111 236,121" fill="#2244aa" stroke="#2244aa" stroke-width="1"/><text x="92" y="108" text-anchor="start" font-family="monospace" font-size="12" fill="#2244aa">Hello</text><line x1="244" y1="156" x2="84" y2="156" stroke="#2244aa" stroke-width="1.5" stroke-dasharray="6 4"/><polygon points="84,156 92,151 92,161" fill="#2244aa" stroke="#2244aa" stroke-width="1"/><text x="92" y="148" text-anchor="start" font-family="monospace" font-size="12" fill="#2244aa">Hi</text><rect x="24" y="172" width="120" height="32" rx="20" ry="20" fill="#ddeeff" stroke="#111" stroke-width="1"/><text x="84" y="193" text-anchor="middle" font-family="monospace" font-size="13" fill="#111111">Alice</text><rect x="184" y="172" width="120" height="32" rx="20" ry="20" fill="#ddeeff" stroke="#111" stroke-width="1"/><text x="244" y="193" text-anchor="middle" font-family="monospace" font-size="13" fill="#111111">Bob</text></svg>