<svg xmlns="http://www.w3.org/2000/svg" width="328" height="228" viewBox="0 0 328 228"><defs><filter id="shadow" x="-10%" y="-10%" width="130%" height="130%"><feDropShadow dx="3" dy="3" stdDeviation="2" flood-color="#00000040"/></filter></defs><rect width="100%" height="100%" fill="white"/><text x="24" y="24" font-family="monospace" font-size="18" font-weight="600">Shadowing Effect</text><rect x="24" y="52" width="120" height="32" rx="4" ry="4" fill="#fff3e0" stroke="#111" stroke-width="1" filter="url(#shadow)"/><text x="84" y="73" text-anchor="middle" font-family="monospace" font-size="13">Alice</text><rect x="184" y="52" width="120" height="32" rx="4" ry="4" fill="#fff3e0" stroke="#111" stroke-width="1" filter="url(#shadow)"/><text x="244" y="73" text-anchor="middle" font-family="monospace" font-size="13">Bob</text><line x1="84" y1="84" x2="84" y2="172" stroke="#555" stroke-width="1" stroke-dasharray="6 4"/><line x1="244" y1="84" x2="244" y2="172" stroke="#555" stroke-width="1" stroke-dasharray="6 4"/><line x1="84" y1="108" x2="244" y2="108" stroke="#111" stroke-width="1.5"/><polygon points="244,108 238,104 238,112" fill="#111"/><text x="166" y="100" text-anchor="middle" font-family="monospace" font-size="12">request</text><line x1="244" y1="148" x2="84" y2="148" stroke="#111" stroke-width="1.5" stroke-dasharray="6 4"/><polygon points="84,148 90,144 90,152" fill="#111"/><text x="166" y="140" text-anchor="middle" font-family="monospace" font-size="12">response</text><rect x="24" y="172" width="120" height="32" rx="4" ry="4" fill="#fff3e0" stroke="#111" stroke-width="1" filter="url(#shadow)"/><text x="84" y="193" text-anchor="middle" font-family="monospace" font-size="13">Alice</text><rect x="184" y="172" width="120" height="32" rx="4" ry="4" fill="#fff3e0" stroke="#111" stroke-width="1" filter="url(#shadow)"/><text x="244" y="193" text-anchor="middle" font-family="monospace" font-size="13">Bob</text></svg>