<svg xmlns="http://www.w3.org/2000/svg" width="232" height="200" viewBox="0 0 232 200"><defs><filter id="shadow" x="-10%" y="-10%" width="130%" height="130%"><feDropShadow dx="3" dy="3" stdDeviation="2" flood-color="#00000040"/></filter></defs><rect width="100%" height="100%" fill="white"/><text x="16" y="16" font-family="monospace" font-size="18" font-weight="600" fill="#111">Shadowing Effect</text><rect x="16" y="44" width="80" height="32" rx="4" ry="4" fill="#fff3e0" stroke="#111" stroke-width="1" filter="url(#shadow)"/><text x="56" y="65" text-anchor="middle" font-family="monospace" font-size="13" fill="#111111">Alice</text><rect x="116" y="44" width="80" height="32" rx="4" ry="4" fill="#fff3e0" stroke="#111" stroke-width="1" filter="url(#shadow)"/><text x="156" y="65" text-anchor="middle" font-family="monospace" font-size="13" fill="#111111">Bob</text><line x1="56" y1="76" x2="56" y2="152" stroke="#555" stroke-width="1" stroke-dasharray="6 4"/><line x1="156" y1="76" x2="156" y2="152" stroke="#555" stroke-width="1" stroke-dasharray="6 4"/><line x1="56" y1="108" x2="156" y2="108" stroke="#111" stroke-width="1.5"/><polygon points="156,108 148,103 148,113" fill="#111" stroke="#111" stroke-width="1"/><text x="64" y="100" text-anchor="start" font-family="monospace" font-size="12" fill="#111">request</text><line x1="156" y1="136" x2="56" y2="136" stroke="#111" stroke-width="1.5" stroke-dasharray="6 4"/><polygon points="56,136 64,131 64,141" fill="#111" stroke="#111" stroke-width="1"/><text x="64" y="128" text-anchor="start" font-family="monospace" font-size="12" fill="#111">response</text><rect x="16" y="152" width="80" height="32" rx="4" ry="4" fill="#fff3e0" stroke="#111" stroke-width="1" filter="url(#shadow)"/><text x="56" y="173" text-anchor="middle" font-family="monospace" font-size="13" fill="#111111">Alice</text><rect x="116" y="152" width="80" height="32" rx="4" ry="4" fill="#fff3e0" stroke="#111" stroke-width="1" filter="url(#shadow)"/><text x="156" y="173" text-anchor="middle" font-family="monospace" font-size="13" fill="#111111">Bob</text></svg>