<svg xmlns="http://www.w3.org/2000/svg" width="312" height="256" viewBox="0 0 312 256"><rect width="100%" height="100%" fill="white"/><text x="16" y="16" font-family="monospace" font-size="18" font-weight="600" fill="#2196f3">Material Design Theme</text><rect x="16" y="44" width="80" height="32" rx="4" ry="4" fill="#e3f2fd" stroke="#2196f3" stroke-width="1"/><text x="56" y="65" text-anchor="middle" font-family="monospace" font-size="13" fill="#111111">User</text><rect x="116" y="44" width="80" height="32" rx="4" ry="4" fill="#e3f2fd" stroke="#2196f3" stroke-width="1"/><text x="156" y="65" text-anchor="middle" font-family="monospace" font-size="13" fill="#111111">App</text><rect x="216" y="44" width="80" height="32" rx="4" ry="4" fill="#e3f2fd" stroke="#2196f3" stroke-width="1"/><text x="256" y="65" text-anchor="middle" font-family="monospace" font-size="13" fill="#111111">Service</text><line x1="56" y1="76" x2="56" y2="208" stroke="#90caf9" stroke-width="1" stroke-dasharray="6 4"/><line x1="156" y1="76" x2="156" y2="208" stroke="#90caf9" stroke-width="1" stroke-dasharray="6 4"/><line x1="256" y1="76" x2="256" y2="208" stroke="#90caf9" stroke-width="1" stroke-dasharray="6 4"/><line x1="56" y1="108" x2="156" y2="108" stroke="#2196f3" stroke-width="1.5"/><polygon points="156,108 148,103 148,113" fill="#2196f3" stroke="#2196f3" stroke-width="1"/><text x="64" y="100" text-anchor="start" font-family="monospace" font-size="12" fill="#2196f3">interaction</text><line x1="156" y1="136" x2="256" y2="136" stroke="#2196f3" stroke-width="1.5"/><polygon points="256,136 248,131 248,141" fill="#2196f3" stroke="#2196f3" stroke-width="1"/><text x="164" y="128" text-anchor="start" font-family="monospace" font-size="12" fill="#2196f3">request</text><line x1="256" y1="164" x2="156" y2="164" stroke="#2196f3" stroke-width="1.5" stroke-dasharray="6 4"/><polygon points="156,164 164,159 164,169" fill="#2196f3" stroke="#2196f3" stroke-width="1"/><text x="164" y="156" text-anchor="start" font-family="monospace" font-size="12" fill="#2196f3">data</text><line x1="156" y1="192" x2="56" y2="192" stroke="#2196f3" stroke-width="1.5" stroke-dasharray="6 4"/><polygon points="56,192 64,187 64,197" fill="#2196f3" stroke="#2196f3" stroke-width="1"/><text x="64" y="184" text-anchor="start" font-family="monospace" font-size="12" fill="#2196f3">render</text><rect x="16" y="208" width="80" height="32" rx="4" ry="4" fill="#e3f2fd" stroke="#2196f3" stroke-width="1"/><text x="56" y="229" text-anchor="middle" font-family="monospace" font-size="13" fill="#111111">User</text><rect x="116" y="208" width="80" height="32" rx="4" ry="4" fill="#e3f2fd" stroke="#2196f3" stroke-width="1"/><text x="156" y="229" text-anchor="middle" font-family="monospace" font-size="13" fill="#111111">App</text><rect x="216" y="208" width="80" height="32" rx="4" ry="4" fill="#e3f2fd" stroke="#2196f3" stroke-width="1"/><text x="256" y="229" text-anchor="middle" font-family="monospace" font-size="13" fill="#111111">Service</text></svg>