<svg xmlns="http://www.w3.org/2000/svg" width="312" height="256" viewBox="0 0 312 256"><rect width="100%" height="100%" fill="white"/><text x="16" y="16" font-family="monospace" font-size="18" font-weight="600" fill="#78c2ad">Minty Theme</text><rect x="16" y="44" width="80" height="32" rx="4" ry="4" fill="#e8f7f4" stroke="#78c2ad" stroke-width="1"/><text x="56" y="65" text-anchor="middle" font-family="monospace" font-size="13" fill="#111111">Browser</text><rect x="116" y="44" width="80" height="32" rx="4" ry="4" fill="#e8f7f4" stroke="#78c2ad" stroke-width="1"/><text x="156" y="65" text-anchor="middle" font-family="monospace" font-size="13" fill="#111111">CDN</text><rect x="216" y="44" width="80" height="32" rx="4" ry="4" fill="#e8f7f4" stroke="#78c2ad" stroke-width="1"/><text x="256" y="65" text-anchor="middle" font-family="monospace" font-size="13" fill="#111111">API</text><line x1="56" y1="76" x2="56" y2="208" stroke="#56b29f" stroke-width="1" stroke-dasharray="6 4"/><line x1="156" y1="76" x2="156" y2="208" stroke="#56b29f" stroke-width="1" stroke-dasharray="6 4"/><line x1="256" y1="76" x2="256" y2="208" stroke="#56b29f" stroke-width="1" stroke-dasharray="6 4"/><line x1="56" y1="108" x2="156" y2="108" stroke="#78c2ad" stroke-width="1.5"/><polygon points="156,108 148,103 148,113" fill="#78c2ad" stroke="#78c2ad" stroke-width="1"/><text x="64" y="100" text-anchor="start" font-family="monospace" font-size="12" fill="#78c2ad">assets</text><line x1="156" y1="136" x2="56" y2="136" stroke="#78c2ad" stroke-width="1.5" stroke-dasharray="6 4"/><polygon points="56,136 64,131 64,141" fill="#78c2ad" stroke="#78c2ad" stroke-width="1"/><text x="64" y="128" text-anchor="start" font-family="monospace" font-size="12" fill="#78c2ad">cached</text><line x1="56" y1="164" x2="256" y2="164" stroke="#78c2ad" stroke-width="1.5"/><polygon points="256,164 248,159 248,169" fill="#78c2ad" stroke="#78c2ad" stroke-width="1"/><text x="64" y="156" text-anchor="start" font-family="monospace" font-size="12" fill="#78c2ad">data</text><line x1="256" y1="192" x2="56" y2="192" stroke="#78c2ad" stroke-width="1.5" stroke-dasharray="6 4"/><polygon points="56,192 64,187 64,197" fill="#78c2ad" stroke="#78c2ad" stroke-width="1"/><text x="64" y="184" text-anchor="start" font-family="monospace" font-size="12" fill="#78c2ad">json</text><rect x="16" y="208" width="80" height="32" rx="4" ry="4" fill="#e8f7f4" stroke="#78c2ad" stroke-width="1"/><text x="56" y="229" text-anchor="middle" font-family="monospace" font-size="13" fill="#111111">Browser</text><rect x="116" y="208" width="80" height="32" rx="4" ry="4" fill="#e8f7f4" stroke="#78c2ad" stroke-width="1"/><text x="156" y="229" text-anchor="middle" font-family="monospace" font-size="13" fill="#111111">CDN</text><rect x="216" y="208" width="80" height="32" rx="4" ry="4" fill="#e8f7f4" stroke="#78c2ad" stroke-width="1"/><text x="256" y="229" text-anchor="middle" font-family="monospace" font-size="13" fill="#111111">API</text></svg>