<svg xmlns="http://www.w3.org/2000/svg" width="488" height="308" viewBox="0 0 488 308"><rect width="100%" height="100%" fill="white"/><text x="24" y="24" font-family="monospace" font-size="18" font-weight="600" fill="#78c2ad">Minty Theme</text><rect x="24" y="52" width="120" height="32" rx="4" ry="4" fill="#e8f7f4" stroke="#78c2ad" stroke-width="1"/><text x="84" y="73" text-anchor="middle" font-family="monospace" font-size="13" fill="#111111">Browser</text><rect x="184" y="52" width="120" height="32" rx="4" ry="4" fill="#e8f7f4" stroke="#78c2ad" stroke-width="1"/><text x="244" y="73" text-anchor="middle" font-family="monospace" font-size="13" fill="#111111">CDN</text><rect x="344" y="52" width="120" height="32" rx="4" ry="4" fill="#e8f7f4" stroke="#78c2ad" stroke-width="1"/><text x="404" y="73" text-anchor="middle" font-family="monospace" font-size="13" fill="#111111">API</text><line x1="84" y1="84" x2="84" y2="252" stroke="#56b29f" stroke-width="1" stroke-dasharray="6 4"/><line x1="244" y1="84" x2="244" y2="252" stroke="#56b29f" stroke-width="1" stroke-dasharray="6 4"/><line x1="404" y1="84" x2="404" y2="252" stroke="#56b29f" stroke-width="1" stroke-dasharray="6 4"/><line x1="84" y1="116" x2="244" y2="116" stroke="#78c2ad" stroke-width="1.5"/><polygon points="244,116 236,111 236,121" fill="#78c2ad" stroke="#78c2ad" stroke-width="1"/><text x="92" y="108" text-anchor="start" font-family="monospace" font-size="12" fill="#78c2ad">assets</text><line x1="244" y1="156" x2="84" y2="156" stroke="#78c2ad" stroke-width="1.5" stroke-dasharray="6 4"/><polygon points="84,156 92,151 92,161" fill="#78c2ad" stroke="#78c2ad" stroke-width="1"/><text x="92" y="148" text-anchor="start" font-family="monospace" font-size="12" fill="#78c2ad">cached</text><line x1="84" y1="196" x2="404" y2="196" stroke="#78c2ad" stroke-width="1.5"/><polygon points="404,196 396,191 396,201" fill="#78c2ad" stroke="#78c2ad" stroke-width="1"/><text x="92" y="188" text-anchor="start" font-family="monospace" font-size="12" fill="#78c2ad">data</text><line x1="404" y1="236" x2="84" y2="236" stroke="#78c2ad" stroke-width="1.5" stroke-dasharray="6 4"/><polygon points="84,236 92,231 92,241" fill="#78c2ad" stroke="#78c2ad" stroke-width="1"/><text x="92" y="228" text-anchor="start" font-family="monospace" font-size="12" fill="#78c2ad">json</text><rect x="24" y="252" width="120" height="32" rx="4" ry="4" fill="#e8f7f4" stroke="#78c2ad" stroke-width="1"/><text x="84" y="273" text-anchor="middle" font-family="monospace" font-size="13" fill="#111111">Browser</text><rect x="184" y="252" width="120" height="32" rx="4" ry="4" fill="#e8f7f4" stroke="#78c2ad" stroke-width="1"/><text x="244" y="273" text-anchor="middle" font-family="monospace" font-size="13" fill="#111111">CDN</text><rect x="344" y="252" width="120" height="32" rx="4" ry="4" fill="#e8f7f4" stroke="#78c2ad" stroke-width="1"/><text x="404" y="273" text-anchor="middle" font-family="monospace" font-size="13" fill="#111111">API</text></svg>