<svg xmlns="http://www.w3.org/2000/svg" width="488" height="308" viewBox="0 0 488 308"><rect width="100%" height="100%" fill="white"/><text x="24" y="24" font-family="monospace" font-size="18" font-weight="600" fill="#8e6b3e">Sandstone Theme</text><rect x="24" y="52" width="120" height="32" rx="4" ry="4" fill="#f5ede0" stroke="#8e6b3e" stroke-width="1"/><text x="84" y="73" text-anchor="middle" font-family="monospace" font-size="13" fill="#111111">Client</text><rect x="184" y="52" width="120" height="32" rx="4" ry="4" fill="#f5ede0" stroke="#8e6b3e" stroke-width="1"/><text x="244" y="73" text-anchor="middle" font-family="monospace" font-size="13" fill="#111111">Server</text><rect x="344" y="52" width="120" height="32" rx="4" ry="4" fill="#f5ede0" stroke="#8e6b3e" stroke-width="1"/><text x="404" y="73" text-anchor="middle" font-family="monospace" font-size="13" fill="#111111">Cache</text><line x1="84" y1="84" x2="84" y2="252" stroke="#b08c5a" stroke-width="1" stroke-dasharray="6 4"/><line x1="244" y1="84" x2="244" y2="252" stroke="#b08c5a" stroke-width="1" stroke-dasharray="6 4"/><line x1="404" y1="84" x2="404" y2="252" stroke="#b08c5a" stroke-width="1" stroke-dasharray="6 4"/><line x1="84" y1="116" x2="244" y2="116" stroke="#8e6b3e" stroke-width="1.5"/><polygon points="244,116 236,111 236,121" fill="#8e6b3e" stroke="#8e6b3e" stroke-width="1"/><text x="92" y="108" text-anchor="start" font-family="monospace" font-size="12" fill="#8e6b3e">HTTP GET</text><line x1="244" y1="156" x2="404" y2="156" stroke="#8e6b3e" stroke-width="1.5"/><polygon points="404,156 396,151 396,161" fill="#8e6b3e" stroke="#8e6b3e" stroke-width="1"/><text x="252" y="148" text-anchor="start" font-family="monospace" font-size="12" fill="#8e6b3e">lookup</text><line x1="404" y1="196" x2="244" y2="196" stroke="#8e6b3e" stroke-width="1.5" stroke-dasharray="6 4"/><polygon points="244,196 252,191 252,201" fill="#8e6b3e" stroke="#8e6b3e" stroke-width="1"/><text x="252" y="188" text-anchor="start" font-family="monospace" font-size="12" fill="#8e6b3e">hit</text><line x1="244" y1="236" x2="84" y2="236" stroke="#8e6b3e" stroke-width="1.5" stroke-dasharray="6 4"/><polygon points="84,236 92,231 92,241" fill="#8e6b3e" stroke="#8e6b3e" stroke-width="1"/><text x="92" y="228" text-anchor="start" font-family="monospace" font-size="12" fill="#8e6b3e">200 OK</text><rect x="24" y="252" width="120" height="32" rx="4" ry="4" fill="#f5ede0" stroke="#8e6b3e" stroke-width="1"/><text x="84" y="273" text-anchor="middle" font-family="monospace" font-size="13" fill="#111111">Client</text><rect x="184" y="252" width="120" height="32" rx="4" ry="4" fill="#f5ede0" stroke="#8e6b3e" stroke-width="1"/><text x="244" y="273" text-anchor="middle" font-family="monospace" font-size="13" fill="#111111">Server</text><rect x="344" y="252" width="120" height="32" rx="4" ry="4" fill="#f5ede0" stroke="#8e6b3e" stroke-width="1"/><text x="404" y="273" text-anchor="middle" font-family="monospace" font-size="13" fill="#111111">Cache</text></svg>