<svg xmlns="http://www.w3.org/2000/svg" width="488" height="308" viewBox="0 0 488 308"><defs><filter id="sketch" x="-5%" y="-5%" width="110%" height="110%"><feTurbulence type="fractalNoise" baseFrequency="0.04" numOctaves="3" seed="2" result="noise"/><feDisplacementMap in="SourceGraphic" in2="noise" scale="2.5" xChannelSelector="R" yChannelSelector="G"/></filter></defs><rect width="100%" height="100%" fill="white"/><text x="24" y="24" font-family="monospace" font-size="18" font-weight="600" fill="#333333">Sketchy Theme</text><rect x="24" y="52" width="120" height="32" rx="4" ry="4" fill="#fffde7" stroke="#333333" stroke-width="1"/><text x="84" y="73" text-anchor="middle" font-family="monospace" font-size="13" fill="#111111">Idea</text><rect x="184" y="52" width="120" height="32" rx="4" ry="4" fill="#fffde7" stroke="#333333" stroke-width="1"/><text x="244" y="73" text-anchor="middle" font-family="monospace" font-size="13" fill="#111111">Design</text><rect x="344" y="52" width="120" height="32" rx="4" ry="4" fill="#fffde7" stroke="#333333" stroke-width="1"/><text x="404" y="73" text-anchor="middle" font-family="monospace" font-size="13" fill="#111111">Dev</text><g filter="url(#sketch)"><line x1="84" y1="84" x2="84" y2="252" stroke="#555555" stroke-width="1" stroke-dasharray="6 4"/><line x1="244" y1="84" x2="244" y2="252" stroke="#555555" stroke-width="1" stroke-dasharray="6 4"/><line x1="404" y1="84" x2="404" y2="252" stroke="#555555" stroke-width="1" stroke-dasharray="6 4"/></g><g filter="url(#sketch)"><line x1="84" y1="116" x2="244" y2="116" stroke="#333333" stroke-width="1.5"/><polygon points="244,116 236,111 236,121" fill="#333333" stroke="#333333" stroke-width="1"/></g><text x="92" y="108" text-anchor="start" font-family="monospace" font-size="12" fill="#333333">sketch</text><g filter="url(#sketch)"><line x1="244" y1="156" x2="404" y2="156" stroke="#333333" stroke-width="1.5"/><polygon points="404,156 396,151 396,161" fill="#333333" stroke="#333333" stroke-width="1"/></g><text x="252" y="148" text-anchor="start" font-family="monospace" font-size="12" fill="#333333">implement</text><g filter="url(#sketch)"><line x1="404" y1="196" x2="244" y2="196" stroke="#333333" stroke-width="1.5" stroke-dasharray="6 4"/><polygon points="244,196 252,191 252,201" fill="#333333" stroke="#333333" stroke-width="1"/></g><text x="252" y="188" text-anchor="start" font-family="monospace" font-size="12" fill="#333333">review</text><g filter="url(#sketch)"><line x1="244" y1="236" x2="84" y2="236" stroke="#333333" stroke-width="1.5" stroke-dasharray="6 4"/><polygon points="84,236 92,231 92,241" fill="#333333" stroke="#333333" stroke-width="1"/></g><text x="92" y="228" text-anchor="start" font-family="monospace" font-size="12" fill="#333333">iterate</text><rect x="24" y="252" width="120" height="32" rx="4" ry="4" fill="#fffde7" stroke="#333333" stroke-width="1"/><text x="84" y="273" text-anchor="middle" font-family="monospace" font-size="13" fill="#111111">Idea</text><rect x="184" y="252" width="120" height="32" rx="4" ry="4" fill="#fffde7" stroke="#333333" stroke-width="1"/><text x="244" y="273" text-anchor="middle" font-family="monospace" font-size="13" fill="#111111">Design</text><rect x="344" y="252" width="120" height="32" rx="4" ry="4" fill="#fffde7" stroke="#333333" stroke-width="1"/><text x="404" y="273" text-anchor="middle" font-family="monospace" font-size="13" fill="#111111">Dev</text></svg>