<svg xmlns="http://www.w3.org/2000/svg" width="488" height="308" viewBox="0 0 488 308"><rect width="100%" height="100%" fill="white"/><text x="24" y="24" font-family="monospace" font-size="18" font-weight="600" fill="#e95420">United Theme</text><rect x="24" y="52" width="120" height="32" rx="4" ry="4" fill="#f4e3d7" stroke="#e95420" stroke-width="1"/><text x="84" y="73" text-anchor="middle" font-family="monospace" font-size="13" fill="#111111">Frontend</text><rect x="184" y="52" width="120" height="32" rx="4" ry="4" fill="#f4e3d7" stroke="#e95420" stroke-width="1"/><text x="244" y="73" text-anchor="middle" font-family="monospace" font-size="13" fill="#111111">Backend</text><rect x="344" y="52" width="120" height="32" rx="4" ry="4" fill="#f4e3d7" stroke="#e95420" stroke-width="1"/><text x="404" y="73" text-anchor="middle" font-family="monospace" font-size="13" fill="#111111">DB</text><line x1="84" y1="84" x2="84" y2="252" stroke="#c34113" stroke-width="1" stroke-dasharray="6 4"/><line x1="244" y1="84" x2="244" y2="252" stroke="#c34113" stroke-width="1" stroke-dasharray="6 4"/><line x1="404" y1="84" x2="404" y2="252" stroke="#c34113" stroke-width="1" stroke-dasharray="6 4"/><line x1="84" y1="108" x2="244" y2="108" stroke="#e95420" stroke-width="1.5"/><polygon points="244,108 236,103 236,113" fill="#e95420" stroke="#e95420" stroke-width="1"/><text x="92" y="100" text-anchor="start" font-family="monospace" font-size="12" fill="#e95420">API call</text><line x1="244" y1="148" x2="404" y2="148" stroke="#e95420" stroke-width="1.5"/><polygon points="404,148 396,143 396,153" fill="#e95420" stroke="#e95420" stroke-width="1"/><text x="252" y="140" text-anchor="start" font-family="monospace" font-size="12" fill="#e95420">query</text><line x1="404" y1="188" x2="244" y2="188" stroke="#e95420" stroke-width="1.5" stroke-dasharray="6 4"/><polygon points="244,188 252,183 252,193" fill="#e95420" stroke="#e95420" stroke-width="1"/><text x="252" y="180" text-anchor="start" font-family="monospace" font-size="12" fill="#e95420">result</text><line x1="244" y1="228" x2="84" y2="228" stroke="#e95420" stroke-width="1.5" stroke-dasharray="6 4"/><polygon points="84,228 92,223 92,233" fill="#e95420" stroke="#e95420" stroke-width="1"/><text x="92" y="220" text-anchor="start" font-family="monospace" font-size="12" fill="#e95420">response</text><rect x="24" y="252" width="120" height="32" rx="4" ry="4" fill="#f4e3d7" stroke="#e95420" stroke-width="1"/><text x="84" y="273" text-anchor="middle" font-family="monospace" font-size="13" fill="#111111">Frontend</text><rect x="184" y="252" width="120" height="32" rx="4" ry="4" fill="#f4e3d7" stroke="#e95420" stroke-width="1"/><text x="244" y="273" text-anchor="middle" font-family="monospace" font-size="13" fill="#111111">Backend</text><rect x="344" y="252" width="120" height="32" rx="4" ry="4" fill="#f4e3d7" stroke="#e95420" stroke-width="1"/><text x="404" y="273" text-anchor="middle" font-family="monospace" font-size="13" fill="#111111">DB</text></svg>