<svg xmlns="http://www.w3.org/2000/svg" width="312" height="276" viewBox="0 0 312 276"><rect width="100%" height="100%" fill="white"/><text x="16" y="16" font-family="monospace" font-size="18" font-weight="600" fill="#0055aa">Amiga Theme (Retro</text><text x="16" y="40" font-family="monospace" font-size="18" font-weight="600" fill="#0055aa">Orange+Blue)</text><rect x="16" y="64" width="80" height="32" rx="4" ry="4" fill="#ff6600" stroke="#0055aa" stroke-width="1"/><text x="56" y="85" text-anchor="middle" font-family="monospace" font-size="13" fill="#111111">User</text><rect x="116" y="64" width="80" height="32" rx="4" ry="4" fill="#ff6600" stroke="#0055aa" stroke-width="1"/><text x="156" y="85" text-anchor="middle" font-family="monospace" font-size="13" fill="#111111">System</text><rect x="216" y="64" width="80" height="32" rx="4" ry="4" fill="#ff6600" stroke="#0055aa" stroke-width="1"/><text x="256" y="85" text-anchor="middle" font-family="monospace" font-size="13" fill="#111111">Memory</text><line x1="56" y1="96" x2="56" y2="228" stroke="#0055aa" stroke-width="1" stroke-dasharray="6 4"/><line x1="156" y1="96" x2="156" y2="228" stroke="#0055aa" stroke-width="1" stroke-dasharray="6 4"/><line x1="256" y1="96" x2="256" y2="228" stroke="#0055aa" stroke-width="1" stroke-dasharray="6 4"/><line x1="56" y1="128" x2="156" y2="128" stroke="#0055aa" stroke-width="1.5"/><polygon points="156,128 148,123 148,133" fill="#0055aa" stroke="#0055aa" stroke-width="1"/><text x="64" y="120" text-anchor="start" font-family="monospace" font-size="12" fill="#0055aa">request</text><line x1="156" y1="156" x2="256" y2="156" stroke="#0055aa" stroke-width="1.5"/><polygon points="256,156 248,151 248,161" fill="#0055aa" stroke="#0055aa" stroke-width="1"/><text x="164" y="148" text-anchor="start" font-family="monospace" font-size="12" fill="#0055aa">allocate</text><line x1="256" y1="184" x2="156" y2="184" stroke="#0055aa" stroke-width="1.5" stroke-dasharray="6 4"/><polygon points="156,184 164,179 164,189" fill="#0055aa" stroke="#0055aa" stroke-width="1"/><text x="164" y="176" text-anchor="start" font-family="monospace" font-size="12" fill="#0055aa">block</text><line x1="156" y1="212" x2="56" y2="212" stroke="#0055aa" stroke-width="1.5" stroke-dasharray="6 4"/><polygon points="56,212 64,207 64,217" fill="#0055aa" stroke="#0055aa" stroke-width="1"/><text x="64" y="204" text-anchor="start" font-family="monospace" font-size="12" fill="#0055aa">result</text><rect x="16" y="228" width="80" height="32" rx="4" ry="4" fill="#ff6600" stroke="#0055aa" stroke-width="1"/><text x="56" y="249" text-anchor="middle" font-family="monospace" font-size="13" fill="#111111">User</text><rect x="116" y="228" width="80" height="32" rx="4" ry="4" fill="#ff6600" stroke="#0055aa" stroke-width="1"/><text x="156" y="249" text-anchor="middle" font-family="monospace" font-size="13" fill="#111111">System</text><rect x="216" y="228" width="80" height="32" rx="4" ry="4" fill="#ff6600" stroke="#0055aa" stroke-width="1"/><text x="256" y="249" text-anchor="middle" font-family="monospace" font-size="13" fill="#111111">Memory</text></svg>