<svg xmlns="http://www.w3.org/2000/svg" width="488" height="308" viewBox="0 0 488 308"><rect width="100%" height="100%" fill="white"/><text x="24" y="24" font-family="monospace" font-size="18" font-weight="600">Vibrant Theme</text><rect x="24" y="52" width="120" height="32" rx="4" ry="4" fill="#ede9fe" stroke="#7c3aed" stroke-width="1"/><text x="84" y="73" text-anchor="middle" font-family="monospace" font-size="13">Alice</text><rect x="184" y="52" width="120" height="32" rx="4" ry="4" fill="#ede9fe" stroke="#7c3aed" stroke-width="1"/><text x="244" y="73" text-anchor="middle" font-family="monospace" font-size="13">Bob</text><rect x="344" y="52" width="120" height="32" rx="4" ry="4" fill="#ede9fe" stroke="#7c3aed" stroke-width="1"/><text x="404" y="73" text-anchor="middle" font-family="monospace" font-size="13">Charlie</text><line x1="84" y1="84" x2="84" y2="252" stroke="#6d28d9" stroke-width="1" stroke-dasharray="6 4"/><line x1="244" y1="84" x2="244" y2="252" stroke="#6d28d9" stroke-width="1" stroke-dasharray="6 4"/><line x1="404" y1="84" x2="404" y2="252" stroke="#6d28d9" stroke-width="1" stroke-dasharray="6 4"/><line x1="84" y1="108" x2="244" y2="108" stroke="#7c3aed" stroke-width="1.5"/><polygon points="244,108 238,104 238,112" fill="#7c3aed"/><text x="166" y="100" text-anchor="middle" font-family="monospace" font-size="12">colorful message</text><line x1="244" y1="148" x2="404" y2="148" stroke="#7c3aed" stroke-width="1.5"/><polygon points="404,148 398,144 398,152" fill="#7c3aed"/><text x="326" y="140" text-anchor="middle" font-family="monospace" font-size="12">another</text><line x1="404" y1="188" x2="244" y2="188" stroke="#7c3aed" stroke-width="1.5" stroke-dasharray="6 4"/><polygon points="244,188 250,184 250,192" fill="#7c3aed"/><text x="326" y="180" text-anchor="middle" font-family="monospace" font-size="12">ack</text><line x1="244" y1="228" x2="84" y2="228" stroke="#7c3aed" stroke-width="1.5" stroke-dasharray="6 4"/><polygon points="84,228 90,224 90,232" fill="#7c3aed"/><text x="166" y="220" text-anchor="middle" font-family="monospace" font-size="12">done</text><rect x="24" y="252" width="120" height="32" rx="4" ry="4" fill="#ede9fe" stroke="#7c3aed" stroke-width="1"/><text x="84" y="273" text-anchor="middle" font-family="monospace" font-size="13">Alice</text><rect x="184" y="252" width="120" height="32" rx="4" ry="4" fill="#ede9fe" stroke="#7c3aed" stroke-width="1"/><text x="244" y="273" text-anchor="middle" font-family="monospace" font-size="13">Bob</text><rect x="344" y="252" width="120" height="32" rx="4" ry="4" fill="#ede9fe" stroke="#7c3aed" stroke-width="1"/><text x="404" y="273" text-anchor="middle" font-family="monospace" font-size="13">Charlie</text></svg>