<svg xmlns="http://www.w3.org/2000/svg" width="312" height="284" viewBox="0 0 312 284"><rect width="100%" height="100%" fill="white"/><text x="16" y="16" font-family="monospace" font-size="18" font-weight="600" fill="#7c3aed">Vibrant Theme</text><rect x="16" y="44" width="80" height="32" rx="4" ry="4" fill="#ede9fe" stroke="#7c3aed" stroke-width="1"/><text x="56" y="65" text-anchor="middle" font-family="monospace" font-size="13" fill="#111111">Alice</text><rect x="116" y="44" width="80" height="32" rx="4" ry="4" fill="#ede9fe" stroke="#7c3aed" stroke-width="1"/><text x="156" y="65" text-anchor="middle" font-family="monospace" font-size="13" fill="#111111">Bob</text><rect x="216" y="44" width="80" height="32" rx="4" ry="4" fill="#ede9fe" stroke="#7c3aed" stroke-width="1"/><text x="256" y="65" text-anchor="middle" font-family="monospace" font-size="13" fill="#111111">Charlie</text><line x1="56" y1="76" x2="56" y2="236" stroke="#6d28d9" stroke-width="1" stroke-dasharray="6 4"/><line x1="156" y1="76" x2="156" y2="236" stroke="#6d28d9" stroke-width="1" stroke-dasharray="6 4"/><line x1="256" y1="76" x2="256" y2="236" stroke="#6d28d9" stroke-width="1" stroke-dasharray="6 4"/><line x1="56" y1="124" x2="156" y2="124" stroke="#7c3aed" stroke-width="1.5"/><polygon points="156,124 148,119 148,129" fill="#7c3aed" stroke="#7c3aed" stroke-width="1"/><text x="64" y="100" text-anchor="start" font-family="monospace" font-size="12" fill="#7c3aed">colorful</text><text x="64" y="116" text-anchor="start" font-family="monospace" font-size="12" fill="#7c3aed">message</text><line x1="156" y1="164" x2="256" y2="164" stroke="#7c3aed" stroke-width="1.5"/><polygon points="256,164 248,159 248,169" fill="#7c3aed" stroke="#7c3aed" stroke-width="1"/><text x="164" y="156" text-anchor="start" font-family="monospace" font-size="12" fill="#7c3aed">another</text><line x1="256" y1="192" x2="156" y2="192" stroke="#7c3aed" stroke-width="1.5" stroke-dasharray="6 4"/><polygon points="156,192 164,187 164,197" fill="#7c3aed" stroke="#7c3aed" stroke-width="1"/><text x="164" y="184" text-anchor="start" font-family="monospace" font-size="12" fill="#7c3aed">ack</text><line x1="156" y1="220" x2="56" y2="220" stroke="#7c3aed" stroke-width="1.5" stroke-dasharray="6 4"/><polygon points="56,220 64,215 64,225" fill="#7c3aed" stroke="#7c3aed" stroke-width="1"/><text x="64" y="212" text-anchor="start" font-family="monospace" font-size="12" fill="#7c3aed">done</text><rect x="16" y="236" width="80" height="32" rx="4" ry="4" fill="#ede9fe" stroke="#7c3aed" stroke-width="1"/><text x="56" y="257" text-anchor="middle" font-family="monospace" font-size="13" fill="#111111">Alice</text><rect x="116" y="236" width="80" height="32" rx="4" ry="4" fill="#ede9fe" stroke="#7c3aed" stroke-width="1"/><text x="156" y="257" text-anchor="middle" font-family="monospace" font-size="13" fill="#111111">Bob</text><rect x="216" y="236" width="80" height="32" rx="4" ry="4" fill="#ede9fe" stroke="#7c3aed" stroke-width="1"/><text x="256" y="257" text-anchor="middle" font-family="monospace" font-size="13" fill="#111111">Charlie</text></svg>