<svg xmlns="http://www.w3.org/2000/svg" width="488" height="308" viewBox="0 0 488 308"><rect width="100%" height="100%" fill="white"/><text x="24" y="24" font-family="monospace" font-size="18" font-weight="600" fill="#e53935">Toy Theme (Bright Primary)</text><rect x="24" y="52" width="120" height="32" rx="4" ry="4" fill="#e3f2fd" stroke="#e53935" stroke-width="1"/><text x="84" y="73" text-anchor="middle" font-family="monospace" font-size="13" fill="#111111">Woody</text><rect x="184" y="52" width="120" height="32" rx="4" ry="4" fill="#e3f2fd" stroke="#e53935" stroke-width="1"/><text x="244" y="73" text-anchor="middle" font-family="monospace" font-size="13" fill="#111111">Buzz</text><rect x="344" y="52" width="120" height="32" rx="4" ry="4" fill="#e3f2fd" stroke="#e53935" stroke-width="1"/><text x="404" y="73" text-anchor="middle" font-family="monospace" font-size="13" fill="#111111">Rex</text><line x1="84" y1="84" x2="84" y2="252" stroke="#1e88e5" stroke-width="1" stroke-dasharray="6 4"/><line x1="244" y1="84" x2="244" y2="252" stroke="#1e88e5" stroke-width="1" stroke-dasharray="6 4"/><line x1="404" y1="84" x2="404" y2="252" stroke="#1e88e5" stroke-width="1" stroke-dasharray="6 4"/><line x1="84" y1="116" x2="244" y2="116" stroke="#e53935" stroke-width="1.5"/><polygon points="244,116 236,111 236,121" fill="#e53935" stroke="#e53935" stroke-width="1"/><text x="92" y="108" text-anchor="start" font-family="monospace" font-size="12" fill="#e53935">reach for sky</text><line x1="244" y1="156" x2="404" y2="156" stroke="#e53935" stroke-width="1.5"/><polygon points="404,156 396,151 396,161" fill="#e53935" stroke="#e53935" stroke-width="1"/><text x="252" y="148" text-anchor="start" font-family="monospace" font-size="12" fill="#e53935">roar</text><line x1="404" y1="196" x2="244" y2="196" stroke="#e53935" stroke-width="1.5" stroke-dasharray="6 4"/><polygon points="244,196 252,191 252,201" fill="#e53935" stroke="#e53935" stroke-width="1"/><text x="252" y="188" text-anchor="start" font-family="monospace" font-size="12" fill="#e53935">ok</text><line x1="244" y1="236" x2="84" y2="236" stroke="#e53935" stroke-width="1.5" stroke-dasharray="6 4"/><polygon points="84,236 92,231 92,241" fill="#e53935" stroke="#e53935" stroke-width="1"/><text x="92" y="228" text-anchor="start" font-family="monospace" font-size="12" fill="#e53935">done</text><rect x="24" y="252" width="120" height="32" rx="4" ry="4" fill="#e3f2fd" stroke="#e53935" stroke-width="1"/><text x="84" y="273" text-anchor="middle" font-family="monospace" font-size="13" fill="#111111">Woody</text><rect x="184" y="252" width="120" height="32" rx="4" ry="4" fill="#e3f2fd" stroke="#e53935" stroke-width="1"/><text x="244" y="273" text-anchor="middle" font-family="monospace" font-size="13" fill="#111111">Buzz</text><rect x="344" y="252" width="120" height="32" rx="4" ry="4" fill="#e3f2fd" stroke="#e53935" stroke-width="1"/><text x="404" y="273" text-anchor="middle" font-family="monospace" font-size="13" fill="#111111">Rex</text></svg>