<svg xmlns="http://www.w3.org/2000/svg" width="688" height="760" viewBox="0 0 688 760"><rect width="100%" height="100%" fill="white"/><rect x="24" y="24" width="120" height="32" rx="4" ry="4" fill="#f6f6f6" stroke="#111" stroke-width="1"/><text x="84" y="45" text-anchor="middle" font-family="monospace" font-size="13">User</text><rect x="184" y="24" width="120" height="32" rx="4" ry="4" fill="#f6f6f6" stroke="#111" stroke-width="1"/><text x="244" y="45" text-anchor="middle" font-family="monospace" font-size="13">Browser</text><rect x="344" y="24" width="120" height="32" rx="4" ry="4" fill="#f6f6f6" stroke="#111" stroke-width="1"/><text x="404" y="45" text-anchor="middle" font-family="monospace" font-size="13">Auth Service</text><rect x="504" y="24" width="120" height="32" rx="4" ry="4" fill="#f6f6f6" stroke="#111" stroke-width="1"/><text x="564" y="45" text-anchor="middle" font-family="monospace" font-size="13">Session DB</text><line x1="84" y1="56" x2="84" y2="704" stroke="#555" stroke-width="1" stroke-dasharray="6 4"/><line x1="244" y1="56" x2="244" y2="704" stroke="#555" stroke-width="1" stroke-dasharray="6 4"/><line x1="404" y1="56" x2="404" y2="704" stroke="#555" stroke-width="1" stroke-dasharray="6 4"/><line x1="564" y1="56" x2="564" y2="704" stroke="#555" stroke-width="1" stroke-dasharray="6 4"/><rect class="sequence-activation" data-participant="DB" x="559" y="200" width="10" height="80" fill="#ffffff" stroke="#555" stroke-width="1"/><rect class="sequence-activation" data-participant="A" x="399" y="120" width="10" height="560" fill="#ffffff" stroke="#555" stroke-width="1"/><rect x="24" y="160" width="640" height="520" rx="2" ry="2" fill="#fafafa" stroke="#666" stroke-width="1"/><polygon points="24,160 187,160 187,174 181,180 24,180" fill="#fafafa" stroke="#666" stroke-width="1"/><text x="32" y="174" font-family="monospace" font-size="12" font-weight="600">alt credentials valid</text><line x1="24" y1="400" x2="664" y2="400" stroke="#666" stroke-width="1" stroke-dasharray="5 4"/><text x="32" y="386" font-family="monospace" font-size="11" fill="#333">else invalid password</text><line x1="24" y1="520" x2="664" y2="520" stroke="#666" stroke-width="1" stroke-dasharray="5 4"/><text x="32" y="506" font-family="monospace" font-size="11" fill="#333">else account locked</text><line x1="84" y1="80" x2="244" y2="80" stroke="#111" stroke-width="1.5"/><polygon points="244,80 236,75 236,85" fill="#111" stroke="#111" stroke-width="1"/><text x="92" y="72" text-anchor="start" font-family="monospace" font-size="12">submit credentials</text><line x1="244" y1="120" x2="404" y2="120" stroke="#111" stroke-width="1.5"/><polygon points="404,120 396,115 396,125" fill="#111" stroke="#111" stroke-width="1"/><text x="252" y="112" text-anchor="start" font-family="monospace" font-size="12">POST /login</text><line x1="404" y1="200" x2="564" y2="200" stroke="#111" stroke-width="1.5"/><polygon points="564,200 556,195 556,205" fill="#111" stroke="#111" stroke-width="1"/><text x="412" y="192" text-anchor="start" font-family="monospace" font-size="12">create session</text><line x1="564" y1="240" x2="404" y2="240" stroke="#111" stroke-width="1.5" stroke-dasharray="6 4"/><polygon points="404,240 412,235 412,245" fill="#111" stroke="#111" stroke-width="1"/><text x="412" y="232" text-anchor="start" font-family="monospace" font-size="12">sessionId</text><line x1="404" y1="280" x2="244" y2="280" stroke="#111" stroke-width="1.5" stroke-dasharray="6 4"/><polygon points="244,280 252,275 252,285" fill="#111" stroke="#111" stroke-width="1"/><text x="252" y="272" text-anchor="start" font-family="monospace" font-size="12">200 OK {token}</text><line x1="244" y1="320" x2="84" y2="320" stroke="#111" stroke-width="1.5" stroke-dasharray="6 4"/><polygon points="84,320 92,315 92,325" fill="#111" stroke="#111" stroke-width="1"/><text x="92" y="296" text-anchor="start" font-family="monospace" font-size="12">redirect to</text><text x="92" y="312" text-anchor="start" font-family="monospace" font-size="12">dashboard</text><line x1="404" y1="440" x2="244" y2="440" stroke="#111" stroke-width="1.5" stroke-dasharray="6 4"/><polygon points="244,440 252,435 252,445" fill="#111" stroke="#111" stroke-width="1"/><text x="252" y="432" text-anchor="start" font-family="monospace" font-size="12">401 Unauthorized</text><line x1="244" y1="480" x2="84" y2="480" stroke="#111" stroke-width="1.5" stroke-dasharray="6 4"/><polygon points="84,480 92,475 92,485" fill="#111" stroke="#111" stroke-width="1"/><text x="92" y="472" text-anchor="start" font-family="monospace" font-size="12">Invalid credentials</text><line x1="404" y1="560" x2="244" y2="560" stroke="#111" stroke-width="1.5" stroke-dasharray="6 4"/><polygon points="244,560 252,555 252,565" fill="#111" stroke="#111" stroke-width="1"/><text x="252" y="552" text-anchor="start" font-family="monospace" font-size="12">403 Forbidden</text><line x1="244" y1="600" x2="84" y2="600" stroke="#111" stroke-width="1.5" stroke-dasharray="6 4"/><polygon points="84,600 92,595 92,605" fill="#111" stroke="#111" stroke-width="1"/><text x="92" y="592" text-anchor="start" font-family="monospace" font-size="12">Account locked</text><rect x="24" y="704" width="120" height="32" rx="4" ry="4" fill="#f6f6f6" stroke="#111" stroke-width="1"/><text x="84" y="725" text-anchor="middle" font-family="monospace" font-size="13">User</text><rect x="184" y="704" width="120" height="32" rx="4" ry="4" fill="#f6f6f6" stroke="#111" stroke-width="1"/><text x="244" y="725" text-anchor="middle" font-family="monospace" font-size="13">Browser</text><rect x="344" y="704" width="120" height="32" rx="4" ry="4" fill="#f6f6f6" stroke="#111" stroke-width="1"/><text x="404" y="725" text-anchor="middle" font-family="monospace" font-size="13">Auth Service</text><rect x="504" y="704" width="120" height="32" rx="4" ry="4" fill="#f6f6f6" stroke="#111" stroke-width="1"/><text x="564" y="725" text-anchor="middle" font-family="monospace" font-size="13">Session DB</text></svg>