<svg xmlns="http://www.w3.org/2000/svg" width="412" height="784" viewBox="0 0 412 784"><rect width="100%" height="100%" fill="white"/><rect x="16" y="16" width="80" height="44" rx="4" ry="4" fill="#f6f6f6" stroke="#111" stroke-width="1"/><text x="56" y="37" text-anchor="middle" font-family="monospace" font-size="13" fill="#111111">User</text><rect x="116" y="16" width="80" height="44" rx="4" ry="4" fill="#f6f6f6" stroke="#111" stroke-width="1"/><text x="156" y="37" text-anchor="middle" font-family="monospace" font-size="13" fill="#111111">Browser</text><rect x="216" y="16" width="80" height="44" rx="4" ry="4" fill="#f6f6f6" stroke="#111" stroke-width="1"/><text x="256" y="37" text-anchor="middle" font-family="monospace" font-size="13" fill="#111111">Auth</text><text x="256" y="53" text-anchor="middle" font-family="monospace" font-size="13" fill="#111111">Service</text><rect x="316" y="16" width="80" height="44" rx="4" ry="4" fill="#f6f6f6" stroke="#111" stroke-width="1"/><text x="356" y="37" text-anchor="middle" font-family="monospace" font-size="13" fill="#111111">Session</text><text x="356" y="53" text-anchor="middle" font-family="monospace" font-size="13" fill="#111111">DB</text><line x1="56" y1="60" x2="56" y2="724" stroke="#555" stroke-width="1" stroke-dasharray="6 4"/><line x1="156" y1="60" x2="156" y2="724" stroke="#555" stroke-width="1" stroke-dasharray="6 4"/><line x1="256" y1="60" x2="256" y2="724" stroke="#555" stroke-width="1" stroke-dasharray="6 4"/><line x1="356" y1="60" x2="356" y2="724" stroke="#555" stroke-width="1" stroke-dasharray="6 4"/><rect x="16" y="168" width="380" height="532" rx="2" ry="2" fill="#fafafa" stroke="#666" stroke-width="1"/><polygon points="16,168 179,168 179,182 173,188 16,188" fill="#fafafa" stroke="#666" stroke-width="1"/><text x="24" y="182" font-family="monospace" font-size="12" font-weight="600" fill="#111">alt credentials valid</text><line x1="16" y1="392" x2="396" y2="392" stroke="#666" stroke-width="1" stroke-dasharray="5 4"/><text x="24" y="406" font-family="monospace" font-size="11" fill="#333">else invalid password</text><line x1="16" y1="532" x2="396" y2="532" stroke="#666" stroke-width="1" stroke-dasharray="5 4"/><text x="24" y="546" font-family="monospace" font-size="11" fill="#333">else account locked</text><rect class="sequence-activation" data-participant="DB" x="351" y="220" width="10" height="60" fill="#ffffff" stroke="#555" stroke-width="1"/><rect class="sequence-activation" data-participant="A" x="251" y="148" width="10" height="552" fill="#ffffff" stroke="#555" stroke-width="1"/><line x1="56" y1="108" x2="156" y2="108" stroke="#111" stroke-width="1.5"/><polygon points="156,108 148,103 148,113" fill="#111" stroke="#111" stroke-width="1"/><text x="64" y="84" text-anchor="start" font-family="monospace" font-size="12" fill="#111">submit</text><text x="64" y="100" text-anchor="start" font-family="monospace" font-size="12" fill="#111">credentials</text><line x1="156" y1="148" x2="251" y2="148" stroke="#111" stroke-width="1.5"/><polygon points="251,148 243,143 243,153" fill="#111" stroke="#111" stroke-width="1"/><text x="164" y="140" text-anchor="start" font-family="monospace" font-size="12" fill="#111">POST /login</text><line x1="261" y1="220" x2="351" y2="220" stroke="#111" stroke-width="1.5"/><polygon points="351,220 343,215 343,225" fill="#111" stroke="#111" stroke-width="1"/><text x="269" y="196" text-anchor="start" font-family="monospace" font-size="12" fill="#111">create</text><text x="269" y="212" text-anchor="start" font-family="monospace" font-size="12" fill="#111">session</text><line x1="351" y1="260" x2="261" y2="260" stroke="#111" stroke-width="1.5" stroke-dasharray="6 4"/><polygon points="261,260 269,255 269,265" fill="#111" stroke="#111" stroke-width="1"/><text x="269" y="252" text-anchor="start" font-family="monospace" font-size="12" fill="#111">sessionId</text><line x1="251" y1="304" x2="156" y2="304" stroke="#111" stroke-width="1.5" stroke-dasharray="6 4"/><polygon points="156,304 164,299 164,309" fill="#111" stroke="#111" stroke-width="1"/><text x="164" y="280" text-anchor="start" font-family="monospace" font-size="12" fill="#111">200 OK</text><text x="164" y="296" text-anchor="start" font-family="monospace" font-size="12" fill="#111">{token}</text><line x1="156" y1="360" x2="56" y2="360" stroke="#111" stroke-width="1.5" stroke-dasharray="6 4"/><polygon points="56,360 64,355 64,365" fill="#111" stroke="#111" stroke-width="1"/><text x="64" y="336" text-anchor="start" font-family="monospace" font-size="12" fill="#111">redirect to</text><text x="64" y="352" text-anchor="start" font-family="monospace" font-size="12" fill="#111">dashboard</text><line x1="251" y1="444" x2="156" y2="444" stroke="#111" stroke-width="1.5" stroke-dasharray="6 4"/><polygon points="156,444 164,439 164,449" fill="#111" stroke="#111" stroke-width="1"/><text x="164" y="420" text-anchor="start" font-family="monospace" font-size="12" fill="#111">401</text><text x="164" y="436" text-anchor="start" font-family="monospace" font-size="12" fill="#111">Unauthorized</text><line x1="156" y1="500" x2="56" y2="500" stroke="#111" stroke-width="1.5" stroke-dasharray="6 4"/><polygon points="56,500 64,495 64,505" fill="#111" stroke="#111" stroke-width="1"/><text x="64" y="476" text-anchor="start" font-family="monospace" font-size="12" fill="#111">Invalid</text><text x="64" y="492" text-anchor="start" font-family="monospace" font-size="12" fill="#111">credentials</text><line x1="251" y1="584" x2="156" y2="584" stroke="#111" stroke-width="1.5" stroke-dasharray="6 4"/><polygon points="156,584 164,579 164,589" fill="#111" stroke="#111" stroke-width="1"/><text x="164" y="560" text-anchor="start" font-family="monospace" font-size="12" fill="#111">403</text><text x="164" y="576" text-anchor="start" font-family="monospace" font-size="12" fill="#111">Forbidden</text><line x1="156" y1="640" x2="56" y2="640" stroke="#111" stroke-width="1.5" stroke-dasharray="6 4"/><polygon points="56,640 64,635 64,645" fill="#111" stroke="#111" stroke-width="1"/><text x="64" y="616" text-anchor="start" font-family="monospace" font-size="12" fill="#111">Account</text><text x="64" y="632" text-anchor="start" font-family="monospace" font-size="12" fill="#111">locked</text><rect x="16" y="724" width="80" height="44" rx="4" ry="4" fill="#f6f6f6" stroke="#111" stroke-width="1"/><text x="56" y="745" text-anchor="middle" font-family="monospace" font-size="13" fill="#111111">User</text><rect x="116" y="724" width="80" height="44" rx="4" ry="4" fill="#f6f6f6" stroke="#111" stroke-width="1"/><text x="156" y="745" text-anchor="middle" font-family="monospace" font-size="13" fill="#111111">Browser</text><rect x="216" y="724" width="80" height="44" rx="4" ry="4" fill="#f6f6f6" stroke="#111" stroke-width="1"/><text x="256" y="745" text-anchor="middle" font-family="monospace" font-size="13" fill="#111111">Auth</text><text x="256" y="761" text-anchor="middle" font-family="monospace" font-size="13" fill="#111111">Service</text><rect x="316" y="724" width="80" height="44" rx="4" ry="4" fill="#f6f6f6" stroke="#111" stroke-width="1"/><text x="356" y="745" text-anchor="middle" font-family="monospace" font-size="13" fill="#111111">Session</text><text x="356" y="761" text-anchor="middle" font-family="monospace" font-size="13" fill="#111111">DB</text></svg>