<svg xmlns="http://www.w3.org/2000/svg" width="648" height="760" viewBox="0 0 648 760"><rect width="100%" height="100%" fill="white"/><rect x="24" y="24" width="120" height="32" rx="4" ry="4" fill="#f6f6f6" stroke="#111" stroke-width="1"/><text x="84" y="45" text-anchor="middle" font-family="monospace" font-size="13" fill="#111111">User</text><rect x="184" y="24" width="120" height="32" rx="4" ry="4" fill="#f6f6f6" stroke="#111" stroke-width="1"/><text x="244" y="45" text-anchor="middle" font-family="monospace" font-size="13" fill="#111111">Browser</text><rect x="344" y="24" width="120" height="32" rx="4" ry="4" fill="#f6f6f6" stroke="#111" stroke-width="1"/><text x="404" y="45" text-anchor="middle" font-family="monospace" font-size="13" fill="#111111">Auth Service</text><rect x="504" y="24" width="120" height="32" rx="4" ry="4" fill="#f6f6f6" stroke="#111" stroke-width="1"/><text x="564" y="45" text-anchor="middle" font-family="monospace" font-size="13" fill="#111111">Session DB</text><line x1="84" y1="56" x2="84" y2="704" stroke="#555" stroke-width="1" stroke-dasharray="6 4"/><line x1="244" y1="56" x2="244" y2="704" stroke="#555" stroke-width="1" stroke-dasharray="6 4"/><line x1="404" y1="56" x2="404" y2="704" stroke="#555" stroke-width="1" stroke-dasharray="6 4"/><line x1="564" y1="56" x2="564" y2="704" stroke="#555" stroke-width="1" stroke-dasharray="6 4"/><rect class="sequence-activation" data-participant="DB" x="559" y="208" width="10" height="72" fill="#ffffff" stroke="#555" stroke-width="1"/><rect class="sequence-activation" data-participant="A" x="399" y="128" width="10" height="552" fill="#ffffff" stroke="#555" stroke-width="1"/><rect x="24" y="160" width="600" height="520" rx="2" ry="2" fill="#fafafa" stroke="#666" stroke-width="1"/><polygon points="24,160 187,160 187,174 181,180 24,180" fill="#fafafa" stroke="#666" stroke-width="1"/><text x="32" y="174" font-family="monospace" font-size="12" font-weight="600" fill="#111">alt credentials valid</text><line x1="24" y1="400" x2="624" y2="400" stroke="#666" stroke-width="1" stroke-dasharray="5 4"/><text x="32" y="386" font-family="monospace" font-size="11" fill="#333">else invalid password</text><line x1="24" y1="520" x2="624" y2="520" stroke="#666" stroke-width="1" stroke-dasharray="5 4"/><text x="32" y="506" font-family="monospace" font-size="11" fill="#333">else account locked</text><line x1="84" y1="88" x2="244" y2="88" stroke="#111" stroke-width="1.5"/><polygon points="244,88 236,83 236,93" fill="#111" stroke="#111" stroke-width="1"/><text x="92" y="80" text-anchor="start" font-family="monospace" font-size="12" fill="#111">submit credentials</text><line x1="244" y1="128" x2="399" y2="128" stroke="#111" stroke-width="1.5"/><polygon points="399,128 391,123 391,133" fill="#111" stroke="#111" stroke-width="1"/><text x="252" y="120" text-anchor="start" font-family="monospace" font-size="12" fill="#111">POST /login</text><line x1="409" y1="208" x2="559" y2="208" stroke="#111" stroke-width="1.5"/><polygon points="559,208 551,203 551,213" fill="#111" stroke="#111" stroke-width="1"/><text x="417" y="200" text-anchor="start" font-family="monospace" font-size="12" fill="#111">create session</text><line x1="559" y1="248" x2="409" y2="248" stroke="#111" stroke-width="1.5" stroke-dasharray="6 4"/><polygon points="409,248 417,243 417,253" fill="#111" stroke="#111" stroke-width="1"/><text x="417" y="240" text-anchor="start" font-family="monospace" font-size="12" fill="#111">sessionId</text><line x1="399" y1="288" x2="244" y2="288" stroke="#111" stroke-width="1.5" stroke-dasharray="6 4"/><polygon points="244,288 252,283 252,293" fill="#111" stroke="#111" stroke-width="1"/><text x="252" y="280" text-anchor="start" font-family="monospace" font-size="12" fill="#111">200 OK {token}</text><line x1="244" y1="344" x2="84" y2="344" stroke="#111" stroke-width="1.5" stroke-dasharray="6 4"/><polygon points="84,344 92,339 92,349" fill="#111" stroke="#111" stroke-width="1"/><text x="92" y="320" text-anchor="start" font-family="monospace" font-size="12" fill="#111">redirect to</text><text x="92" y="336" text-anchor="start" font-family="monospace" font-size="12" fill="#111">dashboard</text><line x1="399" y1="448" x2="244" y2="448" stroke="#111" stroke-width="1.5" stroke-dasharray="6 4"/><polygon points="244,448 252,443 252,453" fill="#111" stroke="#111" stroke-width="1"/><text x="252" y="440" text-anchor="start" font-family="monospace" font-size="12" fill="#111">401 Unauthorized</text><line x1="244" y1="488" x2="84" y2="488" stroke="#111" stroke-width="1.5" stroke-dasharray="6 4"/><polygon points="84,488 92,483 92,493" fill="#111" stroke="#111" stroke-width="1"/><text x="92" y="480" text-anchor="start" font-family="monospace" font-size="12" fill="#111">Invalid credentials</text><line x1="399" y1="568" x2="244" y2="568" stroke="#111" stroke-width="1.5" stroke-dasharray="6 4"/><polygon points="244,568 252,563 252,573" fill="#111" stroke="#111" stroke-width="1"/><text x="252" y="560" text-anchor="start" font-family="monospace" font-size="12" fill="#111">403 Forbidden</text><line x1="244" y1="608" x2="84" y2="608" stroke="#111" stroke-width="1.5" stroke-dasharray="6 4"/><polygon points="84,608 92,603 92,613" fill="#111" stroke="#111" stroke-width="1"/><text x="92" y="600" text-anchor="start" font-family="monospace" font-size="12" fill="#111">Account locked</text><rect x="24" y="704" width="120" height="32" rx="4" ry="4" fill="#f6f6f6" stroke="#111" stroke-width="1"/><text x="84" y="725" text-anchor="middle" font-family="monospace" font-size="13" fill="#111111">User</text><rect x="184" y="704" width="120" height="32" rx="4" ry="4" fill="#f6f6f6" stroke="#111" stroke-width="1"/><text x="244" y="725" text-anchor="middle" font-family="monospace" font-size="13" fill="#111111">Browser</text><rect x="344" y="704" width="120" height="32" rx="4" ry="4" fill="#f6f6f6" stroke="#111" stroke-width="1"/><text x="404" y="725" text-anchor="middle" font-family="monospace" font-size="13" fill="#111111">Auth Service</text><rect x="504" y="704" width="120" height="32" rx="4" ry="4" fill="#f6f6f6" stroke="#111" stroke-width="1"/><text x="564" y="725" text-anchor="middle" font-family="monospace" font-size="13" fill="#111111">Session DB</text></svg>