<svg xmlns="http://www.w3.org/2000/svg" width="808" height="892" viewBox="0 0 808 892"><rect width="100%" height="100%" fill="white"/><text x="24" y="24" font-family="monospace" font-size="18" font-weight="600" fill="#111">Create participant mid-flow: dynamic object lifecycle</text><rect x="24" y="52" width="120" height="44" rx="4" ry="4" fill="#f6f6f6" stroke="#111" stroke-width="1"/><text x="84" y="73" text-anchor="middle" font-family="monospace" font-size="13" fill="#111111">Client</text><rect x="184" y="52" width="120" height="44" rx="4" ry="4" fill="#f6f6f6" stroke="#111" stroke-width="1"/><text x="244" y="73" text-anchor="middle" font-family="monospace" font-size="13" fill="#111111">Factory</text><rect x="344" y="52" width="120" height="44" rx="4" ry="4" fill="#f6f6f6" stroke="#111" stroke-width="1"/><text x="404" y="73" text-anchor="middle" font-family="monospace" font-size="13" fill="#111111">Logger</text><rect x="664" y="52" width="120" height="44" rx="4" ry="4" fill="#f6f6f6" stroke="#111" stroke-width="1"/><text x="724" y="73" text-anchor="middle" font-family="monospace" font-size="13" fill="#111111">Worker</text><rect x="504" y="200" width="120" height="44" rx="4" ry="4" fill="#f6f6f6" stroke="#111" stroke-width="1"/><text x="564" y="221" text-anchor="middle" font-family="monospace" font-size="13" fill="#111111">participant</text><text x="564" y="237" text-anchor="middle" font-family="monospace" font-size="13" fill="#111111">Worker</text><line x1="84" y1="96" x2="84" y2="824" stroke="#555" stroke-width="1" stroke-dasharray="6 4"/><line x1="244" y1="96" x2="244" y2="824" stroke="#555" stroke-width="1" stroke-dasharray="6 4"/><line x1="404" y1="96" x2="404" y2="824" stroke="#555" stroke-width="1" stroke-dasharray="6 4"/><line x1="724" y1="96" x2="724" y2="824" stroke="#555" stroke-width="1" stroke-dasharray="6 4"/><line x1="564" y1="244" x2="564" y2="824" stroke="#555" stroke-width="1" stroke-dasharray="6 4"/><rect x="24" y="480" width="760" height="160" rx="2" ry="2" fill="#fafafa" stroke="#666" stroke-width="1"/><polygon points="24,480 145,480 145,494 139,500 24,500" fill="#fafafa" stroke="#666" stroke-width="1"/><text x="32" y="494" font-family="monospace" font-size="12" font-weight="600" fill="#111">loop until done</text><rect class="sequence-activation" data-participant="Worker" x="719" y="288" width="10" height="512" fill="#ffffff" stroke="#555" stroke-width="1"/><line x1="84" y1="144" x2="244" y2="144" stroke="#111" stroke-width="1.5"/><polygon points="244,144 236,139 236,149" fill="#111" stroke="#111" stroke-width="1"/><text x="92" y="120" text-anchor="start" font-family="monospace" font-size="12" fill="#111">createWorker(&quot;heavy-</text><text x="92" y="136" text-anchor="start" font-family="monospace" font-size="12" fill="#111">job&quot;)</text><line x1="244" y1="288" x2="719" y2="288" stroke="#111" stroke-width="1.5"/><polygon points="719,288 711,283 711,293" fill="#111" stroke="#111" stroke-width="1"/><text x="252" y="280" text-anchor="start" font-family="monospace" font-size="12" fill="#111">new Worker(&quot;heavy-job&quot;)</text><line x1="244" y1="328" x2="84" y2="328" stroke="#111" stroke-width="1.5" stroke-dasharray="6 4"/><polygon points="84,328 92,323 92,333" fill="#111" stroke="#111" stroke-width="1"/><text x="92" y="320" text-anchor="start" font-family="monospace" font-size="12" fill="#111">worker handle</text><line x1="84" y1="368" x2="719" y2="368" stroke="#111" stroke-width="1.5"/><polygon points="719,368 711,363 711,373" fill="#111" stroke="#111" stroke-width="1"/><text x="92" y="360" text-anchor="start" font-family="monospace" font-size="12" fill="#111">start()</text><line x1="719" y1="408" x2="404" y2="408" stroke="#111" stroke-width="1.5"/><polygon points="404,408 412,403 412,413" fill="#111" stroke="#111" stroke-width="1"/><text x="412" y="400" text-anchor="start" font-family="monospace" font-size="12" fill="#111">log(&quot;started&quot;)</text><line x1="404" y1="448" x2="719" y2="448" stroke="#111" stroke-width="1.5" stroke-dasharray="6 4"/><polygon points="719,448 711,443 711,453" fill="#111" stroke="#111" stroke-width="1"/><text x="412" y="440" text-anchor="start" font-family="monospace" font-size="12" fill="#111">ok</text><line x1="84" y1="528" x2="719" y2="528" stroke="#111" stroke-width="1.5"/><polygon points="719,528 711,523 711,533" fill="#111" stroke="#111" stroke-width="1"/><text x="92" y="520" text-anchor="start" font-family="monospace" font-size="12" fill="#111">poll()</text><line x1="719" y1="568" x2="84" y2="568" stroke="#111" stroke-width="1.5" stroke-dasharray="6 4"/><polygon points="84,568 92,563 92,573" fill="#111" stroke="#111" stroke-width="1"/><text x="92" y="560" text-anchor="start" font-family="monospace" font-size="12" fill="#111">progress %</text><line x1="84" y1="648" x2="719" y2="648" stroke="#111" stroke-width="1.5"/><polygon points="719,648 711,643 711,653" fill="#111" stroke="#111" stroke-width="1"/><text x="92" y="640" text-anchor="start" font-family="monospace" font-size="12" fill="#111">shutdown()</text><line x1="719" y1="688" x2="404" y2="688" stroke="#111" stroke-width="1.5"/><polygon points="404,688 412,683 412,693" fill="#111" stroke="#111" stroke-width="1"/><text x="412" y="680" text-anchor="start" font-family="monospace" font-size="12" fill="#111">log(&quot;finished&quot;)</text><line x1="404" y1="728" x2="719" y2="728" stroke="#111" stroke-width="1.5" stroke-dasharray="6 4"/><polygon points="719,728 711,723 711,733" fill="#111" stroke="#111" stroke-width="1"/><text x="412" y="720" text-anchor="start" font-family="monospace" font-size="12" fill="#111">ok</text><line x1="719" y1="768" x2="84" y2="768" stroke="#111" stroke-width="1.5" stroke-dasharray="6 4"/><polygon points="84,768 92,763 92,773" fill="#111" stroke="#111" stroke-width="1"/><text x="92" y="760" text-anchor="start" font-family="monospace" font-size="12" fill="#111">done</text><circle class="sequence-create" data-participant="participant Worker" cx="564" cy="200" r="5" fill="#dcfce7" stroke="#15803d" stroke-width="1.5"/><g class="sequence-destroy" data-participant="Worker" stroke="#b91c1c" stroke-width="2"><line x1="718" y1="794" x2="730" y2="806"/><line x1="718" y1="806" x2="730" y2="794"/></g><rect x="24" y="824" width="120" height="44" rx="4" ry="4" fill="#f6f6f6" stroke="#111" stroke-width="1"/><text x="84" y="845" text-anchor="middle" font-family="monospace" font-size="13" fill="#111111">Client</text><rect x="184" y="824" width="120" height="44" rx="4" ry="4" fill="#f6f6f6" stroke="#111" stroke-width="1"/><text x="244" y="845" text-anchor="middle" font-family="monospace" font-size="13" fill="#111111">Factory</text><rect x="344" y="824" width="120" height="44" rx="4" ry="4" fill="#f6f6f6" stroke="#111" stroke-width="1"/><text x="404" y="845" text-anchor="middle" font-family="monospace" font-size="13" fill="#111111">Logger</text><rect x="664" y="824" width="120" height="44" rx="4" ry="4" fill="#f6f6f6" stroke="#111" stroke-width="1"/><text x="724" y="845" text-anchor="middle" font-family="monospace" font-size="13" fill="#111111">Worker</text><rect x="504" y="824" width="120" height="44" rx="4" ry="4" fill="#f6f6f6" stroke="#111" stroke-width="1"/><text x="564" y="845" text-anchor="middle" font-family="monospace" font-size="13" fill="#111111">participant</text><text x="564" y="861" text-anchor="middle" font-family="monospace" font-size="13" fill="#111111">Worker</text></svg>