<svg xmlns="http://www.w3.org/2000/svg" width="512" height="808" viewBox="0 0 512 808"><rect width="100%" height="100%" fill="white"/><text x="16" y="16" font-family="monospace" font-size="18" font-weight="600" fill="#111">Create participant mid-flow: dynamic object</text><text x="16" y="40" font-family="monospace" font-size="18" font-weight="600" fill="#111">lifecycle</text><rect x="16" y="64" width="80" height="60" rx="4" ry="4" fill="#f6f6f6" stroke="#111" stroke-width="1"/><text x="56" y="85" text-anchor="middle" font-family="monospace" font-size="13" fill="#111111">Client</text><rect x="116" y="64" width="80" height="60" rx="4" ry="4" fill="#f6f6f6" stroke="#111" stroke-width="1"/><text x="156" y="85" text-anchor="middle" font-family="monospace" font-size="13" fill="#111111">Factory</text><rect x="216" y="64" width="80" height="60" rx="4" ry="4" fill="#f6f6f6" stroke="#111" stroke-width="1"/><text x="256" y="85" text-anchor="middle" font-family="monospace" font-size="13" fill="#111111">Logger</text><rect x="416" y="64" width="80" height="60" rx="4" ry="4" fill="#f6f6f6" stroke="#111" stroke-width="1"/><text x="456" y="85" text-anchor="middle" font-family="monospace" font-size="13" fill="#111111">Worker</text><rect x="316" y="232" width="80" height="60" rx="4" ry="4" fill="#f6f6f6" stroke="#111" stroke-width="1"/><text x="356" y="253" text-anchor="middle" font-family="monospace" font-size="13" fill="#111111">participa</text><text x="356" y="269" text-anchor="middle" font-family="monospace" font-size="13" fill="#111111">nt</text><text x="356" y="285" text-anchor="middle" font-family="monospace" font-size="13" fill="#111111">Worker</text><line x1="56" y1="124" x2="56" y2="732" stroke="#555" stroke-width="1" stroke-dasharray="6 4"/><line x1="156" y1="124" x2="156" y2="732" stroke="#555" stroke-width="1" stroke-dasharray="6 4"/><line x1="256" y1="124" x2="256" y2="732" stroke="#555" stroke-width="1" stroke-dasharray="6 4"/><line x1="456" y1="124" x2="456" y2="732" stroke="#555" stroke-width="1" stroke-dasharray="6 4"/><line x1="356" y1="292" x2="356" y2="732" stroke="#555" stroke-width="1" stroke-dasharray="6 4"/><rect x="16" y="484" width="480" height="112" rx="2" ry="2" fill="#fafafa" stroke="#666" stroke-width="1"/><polygon points="16,484 137,484 137,498 131,504 16,504" fill="#fafafa" stroke="#666" stroke-width="1"/><text x="24" y="498" font-family="monospace" font-size="12" font-weight="600" fill="#111">loop until done</text><rect class="sequence-activation" data-participant="Worker" x="451" y="324" width="10" height="384" fill="#ffffff" stroke="#555" stroke-width="1"/><line x1="56" y1="188" x2="156" y2="188" stroke="#111" stroke-width="1.5"/><polygon points="156,188 148,183 148,193" fill="#111" stroke="#111" stroke-width="1"/><text x="64" y="148" text-anchor="start" font-family="monospace" font-size="12" fill="#111">createWorker</text><text x="64" y="164" text-anchor="start" font-family="monospace" font-size="12" fill="#111">(&quot;heavy-job&quot;</text><text x="64" y="180" text-anchor="start" font-family="monospace" font-size="12" fill="#111">)</text><line x1="156" y1="324" x2="451" y2="324" stroke="#111" stroke-width="1.5"/><polygon points="451,324 443,319 443,329" fill="#111" stroke="#111" stroke-width="1"/><text x="164" y="316" text-anchor="start" font-family="monospace" font-size="12" fill="#111">new Worker(&quot;heavy-job&quot;)</text><line x1="156" y1="368" x2="56" y2="368" stroke="#111" stroke-width="1.5" stroke-dasharray="6 4"/><polygon points="56,368 64,363 64,373" fill="#111" stroke="#111" stroke-width="1"/><text x="64" y="344" text-anchor="start" font-family="monospace" font-size="12" fill="#111">worker</text><text x="64" y="360" text-anchor="start" font-family="monospace" font-size="12" fill="#111">handle</text><line x1="56" y1="408" x2="451" y2="408" stroke="#111" stroke-width="1.5"/><polygon points="451,408 443,403 443,413" fill="#111" stroke="#111" stroke-width="1"/><text x="64" y="400" text-anchor="start" font-family="monospace" font-size="12" fill="#111">start()</text><line x1="451" y1="436" x2="256" y2="436" stroke="#111" stroke-width="1.5"/><polygon points="256,436 264,431 264,441" fill="#111" stroke="#111" stroke-width="1"/><text x="264" y="428" text-anchor="start" font-family="monospace" font-size="12" fill="#111">log(&quot;started&quot;)</text><line x1="256" y1="464" x2="451" y2="464" stroke="#111" stroke-width="1.5" stroke-dasharray="6 4"/><polygon points="451,464 443,459 443,469" fill="#111" stroke="#111" stroke-width="1"/><text x="264" y="456" text-anchor="start" font-family="monospace" font-size="12" fill="#111">ok</text><line x1="56" y1="520" x2="451" y2="520" stroke="#111" stroke-width="1.5"/><polygon points="451,520 443,515 443,525" fill="#111" stroke="#111" stroke-width="1"/><text x="64" y="512" text-anchor="start" font-family="monospace" font-size="12" fill="#111">poll()</text><line x1="451" y1="548" x2="56" y2="548" stroke="#111" stroke-width="1.5" stroke-dasharray="6 4"/><polygon points="56,548 64,543 64,553" fill="#111" stroke="#111" stroke-width="1"/><text x="64" y="540" text-anchor="start" font-family="monospace" font-size="12" fill="#111">progress %</text><line x1="56" y1="604" x2="451" y2="604" stroke="#111" stroke-width="1.5"/><polygon points="451,604 443,599 443,609" fill="#111" stroke="#111" stroke-width="1"/><text x="64" y="596" text-anchor="start" font-family="monospace" font-size="12" fill="#111">shutdown()</text><line x1="451" y1="632" x2="256" y2="632" stroke="#111" stroke-width="1.5"/><polygon points="256,632 264,627 264,637" fill="#111" stroke="#111" stroke-width="1"/><text x="264" y="624" text-anchor="start" font-family="monospace" font-size="12" fill="#111">log(&quot;finished&quot;)</text><line x1="256" y1="660" x2="451" y2="660" stroke="#111" stroke-width="1.5" stroke-dasharray="6 4"/><polygon points="451,660 443,655 443,665" fill="#111" stroke="#111" stroke-width="1"/><text x="264" y="652" text-anchor="start" font-family="monospace" font-size="12" fill="#111">ok</text><line x1="451" y1="688" x2="56" y2="688" stroke="#111" stroke-width="1.5" stroke-dasharray="6 4"/><polygon points="56,688 64,683 64,693" fill="#111" stroke="#111" stroke-width="1"/><text x="64" y="680" text-anchor="start" font-family="monospace" font-size="12" fill="#111">done</text><circle class="sequence-create" data-participant="participant Worker" cx="356" cy="232" r="5" fill="#dcfce7" stroke="#15803d" stroke-width="1.5"/><g class="sequence-destroy" data-participant="Worker" stroke="#b91c1c" stroke-width="2"><line x1="450" y1="702" x2="462" y2="714"/><line x1="450" y1="714" x2="462" y2="702"/></g><rect x="16" y="732" width="80" height="60" rx="4" ry="4" fill="#f6f6f6" stroke="#111" stroke-width="1"/><text x="56" y="753" text-anchor="middle" font-family="monospace" font-size="13" fill="#111111">Client</text><rect x="116" y="732" width="80" height="60" rx="4" ry="4" fill="#f6f6f6" stroke="#111" stroke-width="1"/><text x="156" y="753" text-anchor="middle" font-family="monospace" font-size="13" fill="#111111">Factory</text><rect x="216" y="732" width="80" height="60" rx="4" ry="4" fill="#f6f6f6" stroke="#111" stroke-width="1"/><text x="256" y="753" text-anchor="middle" font-family="monospace" font-size="13" fill="#111111">Logger</text><rect x="416" y="732" width="80" height="60" rx="4" ry="4" fill="#f6f6f6" stroke="#111" stroke-width="1"/><text x="456" y="753" text-anchor="middle" font-family="monospace" font-size="13" fill="#111111">Worker</text><rect x="316" y="732" width="80" height="60" rx="4" ry="4" fill="#f6f6f6" stroke="#111" stroke-width="1"/><text x="356" y="753" text-anchor="middle" font-family="monospace" font-size="13" fill="#111111">participa</text><text x="356" y="769" text-anchor="middle" font-family="monospace" font-size="13" fill="#111111">nt</text><text x="356" y="785" text-anchor="middle" font-family="monospace" font-size="13" fill="#111111">Worker</text></svg>