<svg xmlns="http://www.w3.org/2000/svg" width="808" height="812" viewBox="0 0 808 812"><rect width="100%" height="100%" fill="white"/><text x="24" y="24" font-family="monospace" font-size="18" font-weight="600" fill="#111">Create participant mid-flow: dynamic object lifecycle</text><rect x="24" y="52" width="120" height="44" rx="4" ry="4" fill="#f6f6f6" stroke="#111" stroke-width="1"/><text x="84" y="73" text-anchor="middle" font-family="monospace" font-size="13" fill="#111111">Client</text><rect x="184" y="52" width="120" height="44" rx="4" ry="4" fill="#f6f6f6" stroke="#111" stroke-width="1"/><text x="244" y="73" text-anchor="middle" font-family="monospace" font-size="13" fill="#111111">Factory</text><rect x="344" y="52" width="120" height="44" rx="4" ry="4" fill="#f6f6f6" stroke="#111" stroke-width="1"/><text x="404" y="73" text-anchor="middle" font-family="monospace" font-size="13" fill="#111111">Logger</text><rect x="504" y="52" width="120" height="44" rx="4" ry="4" fill="#f6f6f6" stroke="#111" stroke-width="1"/><text x="564" y="73" text-anchor="middle" font-family="monospace" font-size="13" fill="#111111">participant</text><text x="564" y="89" text-anchor="middle" font-family="monospace" font-size="13" fill="#111111">Worker</text><rect x="664" y="52" width="120" height="44" rx="4" ry="4" fill="#f6f6f6" stroke="#111" stroke-width="1"/><text x="724" y="73" text-anchor="middle" font-family="monospace" font-size="13" fill="#111111">Worker</text><line x1="84" y1="96" x2="84" y2="744" stroke="#555" stroke-width="1" stroke-dasharray="6 4"/><line x1="244" y1="96" x2="244" y2="744" stroke="#555" stroke-width="1" stroke-dasharray="6 4"/><line x1="404" y1="96" x2="404" y2="744" stroke="#555" stroke-width="1" stroke-dasharray="6 4"/><line x1="564" y1="96" x2="564" y2="744" stroke="#555" stroke-width="1" stroke-dasharray="6 4"/><line x1="724" y1="96" x2="724" y2="744" stroke="#555" stroke-width="1" stroke-dasharray="6 4"/><rect class="sequence-activation" data-participant="Worker" x="719" y="200" width="10" height="520" fill="#ffffff" stroke="#555" stroke-width="1"/><rect x="24" y="400" width="760" height="160" rx="2" ry="2" fill="#fafafa" stroke="#666" stroke-width="1"/><polygon points="24,400 145,400 145,414 139,420 24,420" fill="#fafafa" stroke="#666" stroke-width="1"/><text x="32" y="414" font-family="monospace" font-size="12" font-weight="600" fill="#111">loop until done</text><line x1="84" y1="120" x2="244" y2="120" stroke="#111" stroke-width="1.5"/><polygon points="244,120 236,115 236,125" fill="#111" stroke="#111" stroke-width="1"/><text x="92" y="96" text-anchor="start" font-family="monospace" font-size="12" fill="#111">createWorker(&quot;heavy-</text><text x="92" y="112" text-anchor="start" font-family="monospace" font-size="12" fill="#111">job&quot;)</text><line x1="244" y1="200" x2="724" y2="200" stroke="#111" stroke-width="1.5"/><polygon points="724,200 716,195 716,205" fill="#111" stroke="#111" stroke-width="1"/><text x="252" y="192" text-anchor="start" font-family="monospace" font-size="12" fill="#111">new Worker(&quot;heavy-job&quot;)</text><line x1="244" y1="240" x2="84" y2="240" stroke="#111" stroke-width="1.5" stroke-dasharray="6 4"/><polygon points="84,240 92,235 92,245" fill="#111" stroke="#111" stroke-width="1"/><text x="92" y="232" text-anchor="start" font-family="monospace" font-size="12" fill="#111">worker handle</text><line x1="84" y1="280" x2="724" y2="280" stroke="#111" stroke-width="1.5"/><polygon points="724,280 716,275 716,285" fill="#111" stroke="#111" stroke-width="1"/><text x="92" y="272" text-anchor="start" font-family="monospace" font-size="12" fill="#111">start()</text><line x1="724" y1="320" x2="404" y2="320" stroke="#111" stroke-width="1.5"/><polygon points="404,320 412,315 412,325" fill="#111" stroke="#111" stroke-width="1"/><text x="412" y="312" text-anchor="start" font-family="monospace" font-size="12" fill="#111">log(&quot;started&quot;)</text><line x1="404" y1="360" x2="724" y2="360" stroke="#111" stroke-width="1.5" stroke-dasharray="6 4"/><polygon points="724,360 716,355 716,365" fill="#111" stroke="#111" stroke-width="1"/><text x="412" y="352" text-anchor="start" font-family="monospace" font-size="12" fill="#111">ok</text><line x1="84" y1="440" x2="724" y2="440" stroke="#111" stroke-width="1.5"/><polygon points="724,440 716,435 716,445" fill="#111" stroke="#111" stroke-width="1"/><text x="92" y="432" text-anchor="start" font-family="monospace" font-size="12" fill="#111">poll()</text><line x1="724" y1="480" x2="84" y2="480" stroke="#111" stroke-width="1.5" stroke-dasharray="6 4"/><polygon points="84,480 92,475 92,485" fill="#111" stroke="#111" stroke-width="1"/><text x="92" y="472" text-anchor="start" font-family="monospace" font-size="12" fill="#111">progress %</text><line x1="84" y1="560" x2="724" y2="560" stroke="#111" stroke-width="1.5"/><polygon points="724,560 716,555 716,565" fill="#111" stroke="#111" stroke-width="1"/><text x="92" y="552" text-anchor="start" font-family="monospace" font-size="12" fill="#111">shutdown()</text><line x1="724" y1="600" x2="404" y2="600" stroke="#111" stroke-width="1.5"/><polygon points="404,600 412,595 412,605" fill="#111" stroke="#111" stroke-width="1"/><text x="412" y="592" text-anchor="start" font-family="monospace" font-size="12" fill="#111">log(&quot;finished&quot;)</text><line x1="404" y1="640" x2="724" y2="640" stroke="#111" stroke-width="1.5" stroke-dasharray="6 4"/><polygon points="724,640 716,635 716,645" fill="#111" stroke="#111" stroke-width="1"/><text x="412" y="632" text-anchor="start" font-family="monospace" font-size="12" fill="#111">ok</text><line x1="724" y1="680" x2="84" y2="680" stroke="#111" stroke-width="1.5" stroke-dasharray="6 4"/><polygon points="84,680 92,675 92,685" fill="#111" stroke="#111" stroke-width="1"/><text x="92" y="672" text-anchor="start" font-family="monospace" font-size="12" fill="#111">done</text><circle class="sequence-create" data-participant="participant Worker" cx="564" cy="200" r="5" fill="#dcfce7" stroke="#15803d" stroke-width="1.5"/><g class="sequence-destroy" data-participant="Worker" stroke="#b91c1c" stroke-width="2"><line x1="718" y1="714" x2="730" y2="726"/><line x1="718" y1="726" x2="730" y2="714"/></g><rect x="24" y="744" width="120" height="44" rx="4" ry="4" fill="#f6f6f6" stroke="#111" stroke-width="1"/><text x="84" y="765" text-anchor="middle" font-family="monospace" font-size="13" fill="#111111">Client</text><rect x="184" y="744" width="120" height="44" rx="4" ry="4" fill="#f6f6f6" stroke="#111" stroke-width="1"/><text x="244" y="765" text-anchor="middle" font-family="monospace" font-size="13" fill="#111111">Factory</text><rect x="344" y="744" width="120" height="44" rx="4" ry="4" fill="#f6f6f6" stroke="#111" stroke-width="1"/><text x="404" y="765" text-anchor="middle" font-family="monospace" font-size="13" fill="#111111">Logger</text><rect x="504" y="744" width="120" height="44" rx="4" ry="4" fill="#f6f6f6" stroke="#111" stroke-width="1"/><text x="564" y="765" text-anchor="middle" font-family="monospace" font-size="13" fill="#111111">participant</text><text x="564" y="781" text-anchor="middle" font-family="monospace" font-size="13" fill="#111111">Worker</text><rect x="664" y="744" width="120" height="44" rx="4" ry="4" fill="#f6f6f6" stroke="#111" stroke-width="1"/><text x="724" y="765" text-anchor="middle" font-family="monospace" font-size="13" fill="#111111">Worker</text></svg>