<svg xmlns="http://www.w3.org/2000/svg" width="512" height="692" viewBox="0 0 512 692"><rect width="100%" height="100%" fill="white"/><text x="16" y="16" font-family="monospace" font-size="18" font-weight="600" fill="#111">Create participant mid-flow: dynamic object</text><text x="16" y="40" font-family="monospace" font-size="18" font-weight="600" fill="#111">lifecycle</text><rect x="16" y="64" width="80" height="44" rx="4" ry="4" fill="#f6f6f6" stroke="#111" stroke-width="1"/><text x="56" y="85" text-anchor="middle" font-family="monospace" font-size="13" fill="#111111">Client</text><rect x="116" y="64" width="80" height="44" rx="4" ry="4" fill="#f6f6f6" stroke="#111" stroke-width="1"/><text x="156" y="85" text-anchor="middle" font-family="monospace" font-size="13" fill="#111111">Factory</text><rect x="216" y="64" width="80" height="44" rx="4" ry="4" fill="#f6f6f6" stroke="#111" stroke-width="1"/><text x="256" y="85" text-anchor="middle" font-family="monospace" font-size="13" fill="#111111">Logger</text><rect x="416" y="64" width="80" height="44" rx="4" ry="4" fill="#f6f6f6" stroke="#111" stroke-width="1"/><text x="456" y="85" text-anchor="middle" font-family="monospace" font-size="13" fill="#111111">Worker</text><rect x="316" y="160" width="80" height="44" rx="4" ry="4" fill="#f6f6f6" stroke="#111" stroke-width="1"/><text x="356" y="181" text-anchor="middle" font-family="monospace" font-size="13" fill="#111111">participant</text><text x="356" y="197" text-anchor="middle" font-family="monospace" font-size="13" fill="#111111">Worker</text><line x1="56" y1="108" x2="56" y2="632" stroke="#555" stroke-width="1" stroke-dasharray="6 4"/><line x1="156" y1="108" x2="156" y2="632" stroke="#555" stroke-width="1" stroke-dasharray="6 4"/><line x1="256" y1="108" x2="256" y2="632" stroke="#555" stroke-width="1" stroke-dasharray="6 4"/><line x1="456" y1="108" x2="456" y2="632" stroke="#555" stroke-width="1" stroke-dasharray="6 4"/><line x1="356" y1="204" x2="356" y2="632" stroke="#555" stroke-width="1" stroke-dasharray="6 4"/><rect x="16" y="384" width="480" height="112" rx="2" ry="2" fill="#fafafa" stroke="#666" stroke-width="1"/><polygon points="16,384 137,384 137,398 131,404 16,404" fill="#fafafa" stroke="#666" stroke-width="1"/><text x="24" y="398" font-family="monospace" font-size="12" font-weight="600" fill="#111">loop until done</text><rect class="sequence-activation" data-participant="Worker" x="451" y="224" width="10" height="384" fill="#ffffff" stroke="#555" stroke-width="1"/><line x1="56" y1="140" x2="156" y2="140" stroke="#111" stroke-width="1.5"/><polygon points="156,140 148,135 148,145" fill="#111" stroke="#111" stroke-width="1"/><text x="64" y="132" text-anchor="start" font-family="monospace" font-size="12" fill="#111">createWorker(&quot;heavy-job&quot;)</text><line x1="156" y1="224" x2="451" y2="224" stroke="#111" stroke-width="1.5"/><polygon points="451,224 443,219 443,229" fill="#111" stroke="#111" stroke-width="1"/><text x="164" y="216" text-anchor="start" font-family="monospace" font-size="12" fill="#111">new Worker(&quot;heavy-job&quot;)</text><line x1="156" y1="268" x2="56" y2="268" stroke="#111" stroke-width="1.5" stroke-dasharray="6 4"/><polygon points="56,268 64,263 64,273" fill="#111" stroke="#111" stroke-width="1"/><text x="64" y="244" text-anchor="start" font-family="monospace" font-size="12" fill="#111">worker</text><text x="64" y="260" text-anchor="start" font-family="monospace" font-size="12" fill="#111">handle</text><line x1="56" y1="308" x2="451" y2="308" stroke="#111" stroke-width="1.5"/><polygon points="451,308 443,303 443,313" fill="#111" stroke="#111" stroke-width="1"/><text x="64" y="300" text-anchor="start" font-family="monospace" font-size="12" fill="#111">start()</text><line x1="451" y1="336" x2="256" y2="336" stroke="#111" stroke-width="1.5"/><polygon points="256,336 264,331 264,341" fill="#111" stroke="#111" stroke-width="1"/><text x="264" y="328" text-anchor="start" font-family="monospace" font-size="12" fill="#111">log(&quot;started&quot;)</text><line x1="256" y1="364" x2="451" y2="364" stroke="#111" stroke-width="1.5" stroke-dasharray="6 4"/><polygon points="451,364 443,359 443,369" fill="#111" stroke="#111" stroke-width="1"/><text x="264" y="356" text-anchor="start" font-family="monospace" font-size="12" fill="#111">ok</text><line x1="56" y1="420" x2="451" y2="420" stroke="#111" stroke-width="1.5"/><polygon points="451,420 443,415 443,425" fill="#111" stroke="#111" stroke-width="1"/><text x="64" y="412" text-anchor="start" font-family="monospace" font-size="12" fill="#111">poll()</text><line x1="451" y1="448" x2="56" y2="448" stroke="#111" stroke-width="1.5" stroke-dasharray="6 4"/><polygon points="56,448 64,443 64,453" fill="#111" stroke="#111" stroke-width="1"/><text x="64" y="440" text-anchor="start" font-family="monospace" font-size="12" fill="#111">progress %</text><line x1="56" y1="504" x2="451" y2="504" stroke="#111" stroke-width="1.5"/><polygon points="451,504 443,499 443,509" fill="#111" stroke="#111" stroke-width="1"/><text x="64" y="496" text-anchor="start" font-family="monospace" font-size="12" fill="#111">shutdown()</text><line x1="451" y1="532" x2="256" y2="532" stroke="#111" stroke-width="1.5"/><polygon points="256,532 264,527 264,537" fill="#111" stroke="#111" stroke-width="1"/><text x="264" y="524" text-anchor="start" font-family="monospace" font-size="12" fill="#111">log(&quot;finished&quot;)</text><line x1="256" y1="560" x2="451" y2="560" stroke="#111" stroke-width="1.5" stroke-dasharray="6 4"/><polygon points="451,560 443,555 443,565" fill="#111" stroke="#111" stroke-width="1"/><text x="264" y="552" text-anchor="start" font-family="monospace" font-size="12" fill="#111">ok</text><line x1="451" y1="588" x2="56" y2="588" stroke="#111" stroke-width="1.5" stroke-dasharray="6 4"/><polygon points="56,588 64,583 64,593" fill="#111" stroke="#111" stroke-width="1"/><text x="64" y="580" text-anchor="start" font-family="monospace" font-size="12" fill="#111">done</text><circle class="sequence-create" data-participant="participant Worker" cx="356" cy="160" r="5" fill="#dcfce7" stroke="#15803d" stroke-width="1.5"/><g class="sequence-destroy" data-participant="Worker" stroke="#b91c1c" stroke-width="2"><line x1="450" y1="602" x2="462" y2="614"/><line x1="450" y1="614" x2="462" y2="602"/></g><rect x="16" y="632" width="80" height="44" rx="4" ry="4" fill="#f6f6f6" stroke="#111" stroke-width="1"/><text x="56" y="653" text-anchor="middle" font-family="monospace" font-size="13" fill="#111111">Client</text><rect x="116" y="632" width="80" height="44" rx="4" ry="4" fill="#f6f6f6" stroke="#111" stroke-width="1"/><text x="156" y="653" text-anchor="middle" font-family="monospace" font-size="13" fill="#111111">Factory</text><rect x="216" y="632" width="80" height="44" rx="4" ry="4" fill="#f6f6f6" stroke="#111" stroke-width="1"/><text x="256" y="653" text-anchor="middle" font-family="monospace" font-size="13" fill="#111111">Logger</text><rect x="416" y="632" width="80" height="44" rx="4" ry="4" fill="#f6f6f6" stroke="#111" stroke-width="1"/><text x="456" y="653" text-anchor="middle" font-family="monospace" font-size="13" fill="#111111">Worker</text><rect x="316" y="632" width="80" height="44" rx="4" ry="4" fill="#f6f6f6" stroke="#111" stroke-width="1"/><text x="356" y="653" text-anchor="middle" font-family="monospace" font-size="13" fill="#111111">participant</text><text x="356" y="669" text-anchor="middle" font-family="monospace" font-size="13" fill="#111111">Worker</text></svg>