<svg xmlns="http://www.w3.org/2000/svg" width="992" height="960" viewBox="0 0 992 960"><rect width="100%" height="100%" fill="white"/><rect class="sequence-participant-group" x="24" y="2" width="304" height="946" rx="4" ry="4" fill="#add8e6" stroke="#666" stroke-width="1"/><text x="32" y="18" font-family="monospace" font-size="12" font-weight="600" fill="#333">Client Tier</text><rect class="sequence-participant-group" x="344" y="2" width="304" height="946" rx="4" ry="4" fill="#90ee90" stroke="#666" stroke-width="1"/><text x="352" y="18" font-family="monospace" font-size="12" font-weight="600" fill="#333">API Tier</text><rect class="sequence-participant-group" x="664" y="2" width="304" height="946" rx="4" ry="4" fill="#ffffe0" stroke="#666" stroke-width="1"/><text x="672" y="18" font-family="monospace" font-size="12" font-weight="600" fill="#333">Data Tier</text><rect x="36" y="24" width="120" height="32" rx="8" ry="8" fill="#fff3e0" stroke="#8a5a00" stroke-width="1"/><circle cx="48" cy="25" r="6" fill="none" stroke="#8a5a00" stroke-width="1.5"/><line x1="48" y1="31" x2="48" y2="45" stroke="#8a5a00" stroke-width="1.5"/><line x1="38" y1="35" x2="58" y2="35" stroke="#8a5a00" stroke-width="1.5"/><line x1="48" y1="45" x2="40" y2="61" stroke="#8a5a00" stroke-width="1.5"/><line x1="48" y1="45" x2="56" y2="61" stroke="#8a5a00" stroke-width="1.5"/><text x="96" y="45" text-anchor="middle" font-family="monospace" font-size="13" fill="#111111">User</text><rect x="196" y="24" width="120" height="32" rx="4" ry="4" fill="#f6f6f6" stroke="#111" stroke-width="1"/><text x="256" y="45" text-anchor="middle" font-family="monospace" font-size="13" fill="#111111">Browser</text><rect x="356" y="24" width="120" height="32" rx="4" ry="4" fill="#f6f6f6" stroke="#111" stroke-width="1"/><text x="416" y="45" text-anchor="middle" font-family="monospace" font-size="13" fill="#111111">Gateway</text><rect x="516" y="24" width="120" height="32" rx="4" ry="4" fill="#f6f6f6" stroke="#111" stroke-width="1"/><text x="576" y="45" text-anchor="middle" font-family="monospace" font-size="13" fill="#111111">AuthSvc</text><rect x="676" y="24" width="120" height="32" rx="4" ry="4" fill="#f6f6f6" stroke="#111" stroke-width="1"/><text x="736" y="45" text-anchor="middle" font-family="monospace" font-size="13" fill="#111111">DB</text><rect x="836" y="24" width="120" height="32" rx="4" ry="4" fill="#f6f6f6" stroke="#111" stroke-width="1"/><text x="896" y="45" text-anchor="middle" font-family="monospace" font-size="13" fill="#111111">Cache</text><line x1="96" y1="56" x2="96" y2="904" stroke="#555" stroke-width="1" stroke-dasharray="6 4"/><line x1="256" y1="56" x2="256" y2="904" stroke="#555" stroke-width="1" stroke-dasharray="6 4"/><line x1="416" y1="56" x2="416" y2="904" stroke="#555" stroke-width="1" stroke-dasharray="6 4"/><line x1="576" y1="56" x2="576" y2="904" stroke="#555" stroke-width="1" stroke-dasharray="6 4"/><line x1="736" y1="56" x2="736" y2="904" stroke="#555" stroke-width="1" stroke-dasharray="6 4"/><line x1="896" y1="56" x2="896" y2="904" stroke="#555" stroke-width="1" stroke-dasharray="6 4"/><rect x="36" y="240" width="920" height="160" rx="2" ry="2" fill="#fafafa" stroke="#666" stroke-width="1"/><polygon points="36,240 192,240 192,254 186,260 36,260" fill="#fafafa" stroke="#666" stroke-width="1"/><text x="44" y="254" font-family="monospace" font-size="12" font-weight="600" fill="#111">group Authentication</text><rect x="196" y="280" width="440" height="56" rx="2" ry="2" fill="#eef6ff" stroke="#666" stroke-width="1"/><polygon points="196,280 228,280 228,294 222,300 196,300" fill="#eef6ff" stroke="#666" stroke-width="1"/><text x="202" y="294" font-family="monospace" font-size="11" font-weight="600" fill="#111">ref</text><text x="204" y="312" font-family="monospace" font-size="12" fill="#111">over Browser, Gateway, AuthSvc</text><text x="204" y="328" font-family="monospace" font-size="12" fill="#111">OAuth2 PKCE handshake</text><rect x="36" y="480" width="920" height="280" rx="2" ry="2" fill="#fafafa" stroke="#666" stroke-width="1"/><polygon points="36,480 143,480 143,494 137,500 36,500" fill="#fafafa" stroke="#666" stroke-width="1"/><text x="44" y="494" font-family="monospace" font-size="12" font-weight="600" fill="#111">alt cache hit</text><line x1="36" y1="560" x2="956" y2="560" stroke="#666" stroke-width="1" stroke-dasharray="5 4"/><text x="44" y="546" font-family="monospace" font-size="11" fill="#333">else cache miss</text><line x1="96" y1="80" x2="256" y2="80" stroke="#111" stroke-width="1.5"/><polygon points="256,80 248,75 248,85" fill="#111" stroke="#111" stroke-width="1"/><text x="104" y="56" text-anchor="start" font-family="monospace" font-size="12" fill="#111">[01] navigate to</text><text x="104" y="72" text-anchor="start" font-family="monospace" font-size="12" fill="#111">/dashboard</text><line x1="256" y1="160" x2="416" y2="160" stroke="#111" stroke-width="1.5"/><polygon points="416,160 408,155 408,165" fill="#111" stroke="#111" stroke-width="1"/><text x="264" y="136" text-anchor="start" font-family="monospace" font-size="12" fill="#111">[02] GET</text><text x="264" y="152" text-anchor="start" font-family="monospace" font-size="12" fill="#111">/api/dashboard</text><line x1="416" y1="440" x2="896" y2="440" stroke="#111" stroke-width="1.5"/><polygon points="896,440 888,435 888,445" fill="#111" stroke="#111" stroke-width="1"/><text x="424" y="432" text-anchor="start" font-family="monospace" font-size="12" fill="#111">[03] GET user:profile:{uid}</text><line x1="896" y1="520" x2="416" y2="520" stroke="#111" stroke-width="1.5" stroke-dasharray="6 4"/><polygon points="416,520 424,515 424,525" fill="#111" stroke="#111" stroke-width="1"/><text x="424" y="512" text-anchor="start" font-family="monospace" font-size="12" fill="#111">[04] profile JSON</text><line x1="416" y1="600" x2="736" y2="600" stroke="#111" stroke-width="1.5"/><polygon points="736,600 728,595 728,605" fill="#111" stroke="#111" stroke-width="1"/><text x="424" y="592" text-anchor="start" font-family="monospace" font-size="12" fill="#111">[05] SELECT * FROM profiles WHERE uid=?</text><line x1="736" y1="640" x2="416" y2="640" stroke="#111" stroke-width="1.5" stroke-dasharray="6 4"/><polygon points="416,640 424,635 424,645" fill="#111" stroke="#111" stroke-width="1"/><text x="424" y="632" text-anchor="start" font-family="monospace" font-size="12" fill="#111">[06] row</text><line x1="416" y1="680" x2="896" y2="680" stroke="#111" stroke-width="1.5"/><polygon points="896,680 888,675 888,685" fill="#111" stroke="#111" stroke-width="1"/><text x="424" y="672" text-anchor="start" font-family="monospace" font-size="12" fill="#111">[07] SET user:profile:{uid} TTL 300</text><line x1="416" y1="760" x2="256" y2="760" stroke="#111" stroke-width="1.5" stroke-dasharray="6 4"/><polygon points="256,760 264,755 264,765" fill="#111" stroke="#111" stroke-width="1"/><text x="264" y="736" text-anchor="start" font-family="monospace" font-size="12" fill="#111">[08] 200 {dashboard</text><text x="264" y="752" text-anchor="start" font-family="monospace" font-size="12" fill="#111">payload}</text><line x1="256" y1="840" x2="96" y2="840" stroke="#111" stroke-width="1.5" stroke-dasharray="6 4"/><polygon points="96,840 104,835 104,845" fill="#111" stroke="#111" stroke-width="1"/><text x="104" y="816" text-anchor="start" font-family="monospace" font-size="12" fill="#111">[09] render</text><text x="104" y="832" text-anchor="start" font-family="monospace" font-size="12" fill="#111">dashboard</text><path d="M326,400 H496 L506 410 V432 H326 Z" fill="#fff8c4" stroke="#111" stroke-width="1"/><path d="M496 400 V410 H506" fill="none" stroke="#111" stroke-width="1"/><text x="334" y="420" font-family="monospace" font-size="12" fill="#111">Token validated</text><rect x="36" y="904" width="120" height="32" rx="8" ry="8" fill="#fff3e0" stroke="#8a5a00" stroke-width="1"/><circle cx="48" cy="905" r="6" fill="none" stroke="#8a5a00" stroke-width="1.5"/><line x1="48" y1="911" x2="48" y2="925" stroke="#8a5a00" stroke-width="1.5"/><line x1="38" y1="915" x2="58" y2="915" stroke="#8a5a00" stroke-width="1.5"/><line x1="48" y1="925" x2="40" y2="941" stroke="#8a5a00" stroke-width="1.5"/><line x1="48" y1="925" x2="56" y2="941" stroke="#8a5a00" stroke-width="1.5"/><text x="96" y="925" text-anchor="middle" font-family="monospace" font-size="13" fill="#111111">User</text><rect x="196" y="904" width="120" height="32" rx="4" ry="4" fill="#f6f6f6" stroke="#111" stroke-width="1"/><text x="256" y="925" text-anchor="middle" font-family="monospace" font-size="13" fill="#111111">Browser</text><rect x="356" y="904" width="120" height="32" rx="4" ry="4" fill="#f6f6f6" stroke="#111" stroke-width="1"/><text x="416" y="925" text-anchor="middle" font-family="monospace" font-size="13" fill="#111111">Gateway</text><rect x="516" y="904" width="120" height="32" rx="4" ry="4" fill="#f6f6f6" stroke="#111" stroke-width="1"/><text x="576" y="925" text-anchor="middle" font-family="monospace" font-size="13" fill="#111111">AuthSvc</text><rect x="676" y="904" width="120" height="32" rx="4" ry="4" fill="#f6f6f6" stroke="#111" stroke-width="1"/><text x="736" y="925" text-anchor="middle" font-family="monospace" font-size="13" fill="#111111">DB</text><rect x="836" y="904" width="120" height="32" rx="4" ry="4" fill="#f6f6f6" stroke="#111" stroke-width="1"/><text x="896" y="925" text-anchor="middle" font-family="monospace" font-size="13" fill="#111111">Cache</text></svg>