<svg xmlns="http://www.w3.org/2000/svg" width="636" height="788" viewBox="0 0 636 788"><rect width="100%" height="100%" fill="white"/><rect class="sequence-participant-group" x="16" y="-6" width="204" height="790" rx="4" ry="4" fill="#add8e6" stroke="#666" stroke-width="1"/><text x="24" y="10" font-family="monospace" font-size="12" font-weight="600" fill="#333">Client Tier</text><rect class="sequence-participant-group" x="216" y="-6" width="204" height="790" rx="4" ry="4" fill="#90ee90" stroke="#666" stroke-width="1"/><text x="224" y="10" font-family="monospace" font-size="12" font-weight="600" fill="#333">API Tier</text><rect class="sequence-participant-group" x="416" y="-6" width="204" height="790" rx="4" ry="4" fill="#ffffe0" stroke="#666" stroke-width="1"/><text x="424" y="10" font-family="monospace" font-size="12" font-weight="600" fill="#333">Data Tier</text><rect x="28" y="16" width="80" height="32" rx="8" ry="8" fill="#fff3e0" stroke="#8a5a00" stroke-width="1"/><circle cx="40" cy="17" r="6" fill="none" stroke="#8a5a00" stroke-width="1.5"/><line x1="40" y1="23" x2="40" y2="37" stroke="#8a5a00" stroke-width="1.5"/><line x1="30" y1="27" x2="50" y2="27" stroke="#8a5a00" stroke-width="1.5"/><line x1="40" y1="37" x2="32" y2="53" stroke="#8a5a00" stroke-width="1.5"/><line x1="40" y1="37" x2="48" y2="53" stroke="#8a5a00" stroke-width="1.5"/><text x="68" y="37" text-anchor="middle" font-family="monospace" font-size="13" fill="#111111">User</text><rect x="128" y="16" width="80" height="32" rx="4" ry="4" fill="#f6f6f6" stroke="#111" stroke-width="1"/><text x="168" y="37" text-anchor="middle" font-family="monospace" font-size="13" fill="#111111">Browser</text><rect x="228" y="16" width="80" height="32" rx="4" ry="4" fill="#f6f6f6" stroke="#111" stroke-width="1"/><text x="268" y="37" text-anchor="middle" font-family="monospace" font-size="13" fill="#111111">Gateway</text><rect x="328" y="16" width="80" height="32" rx="4" ry="4" fill="#f6f6f6" stroke="#111" stroke-width="1"/><text x="368" y="37" text-anchor="middle" font-family="monospace" font-size="13" fill="#111111">AuthSvc</text><rect x="428" y="16" width="80" height="32" rx="4" ry="4" fill="#f6f6f6" stroke="#111" stroke-width="1"/><text x="468" y="37" text-anchor="middle" font-family="monospace" font-size="13" fill="#111111">DB</text><rect x="528" y="16" width="80" height="32" rx="4" ry="4" fill="#f6f6f6" stroke="#111" stroke-width="1"/><text x="568" y="37" text-anchor="middle" font-family="monospace" font-size="13" fill="#111111">Cache</text><line x1="68" y1="48" x2="68" y2="740" stroke="#555" stroke-width="1" stroke-dasharray="6 4"/><line x1="168" y1="48" x2="168" y2="740" stroke="#555" stroke-width="1" stroke-dasharray="6 4"/><line x1="268" y1="48" x2="268" y2="740" stroke="#555" stroke-width="1" stroke-dasharray="6 4"/><line x1="368" y1="48" x2="368" y2="740" stroke="#555" stroke-width="1" stroke-dasharray="6 4"/><line x1="468" y1="48" x2="468" y2="740" stroke="#555" stroke-width="1" stroke-dasharray="6 4"/><line x1="568" y1="48" x2="568" y2="740" stroke="#555" stroke-width="1" stroke-dasharray="6 4"/><rect x="28" y="212" width="580" height="112" rx="2" ry="2" fill="#fafafa" stroke="#666" stroke-width="1"/><polygon points="28,212 184,212 184,226 178,232 28,232" fill="#fafafa" stroke="#666" stroke-width="1"/><text x="36" y="226" font-family="monospace" font-size="12" font-weight="600" fill="#111">group Authentication</text><rect x="124" y="240" width="288" height="40" rx="2" ry="2" fill="#eef6ff" stroke="#666" stroke-width="1"/><polygon points="124,240 156,240 156,254 150,260 124,260" fill="#eef6ff" stroke="#666" stroke-width="1"/><text x="130" y="254" font-family="monospace" font-size="11" font-weight="600" fill="#111">ref</text><text x="132" y="272" font-family="monospace" font-size="12" fill="#111">OAuth2 PKCE handshake</text><rect x="28" y="380" width="580" height="224" rx="2" ry="2" fill="#fafafa" stroke="#666" stroke-width="1"/><polygon points="28,380 135,380 135,394 129,400 28,400" fill="#fafafa" stroke="#666" stroke-width="1"/><text x="36" y="394" font-family="monospace" font-size="12" font-weight="600" fill="#111">alt cache hit</text><line x1="28" y1="436" x2="608" y2="436" stroke="#666" stroke-width="1" stroke-dasharray="5 4"/><text x="36" y="450" font-family="monospace" font-size="11" fill="#333">else cache miss</text><line x1="68" y1="112" x2="168" y2="112" stroke="#111" stroke-width="1.5"/><polygon points="168,112 160,107 160,117" fill="#111" stroke="#111" stroke-width="1"/><text x="76" y="72" text-anchor="start" font-family="monospace" font-size="12" fill="#111">[01]</text><text x="76" y="88" text-anchor="start" font-family="monospace" font-size="12" fill="#111">navigate to</text><text x="76" y="104" text-anchor="start" font-family="monospace" font-size="12" fill="#111">/dashboard</text><line x1="168" y1="180" x2="268" y2="180" stroke="#111" stroke-width="1.5"/><polygon points="268,180 260,175 260,185" fill="#111" stroke="#111" stroke-width="1"/><text x="176" y="156" text-anchor="start" font-family="monospace" font-size="12" fill="#111">[02] GET</text><text x="176" y="172" text-anchor="start" font-family="monospace" font-size="12" fill="#111">/api/dashboard</text><line x1="268" y1="360" x2="568" y2="360" stroke="#111" stroke-width="1.5"/><polygon points="568,360 560,355 560,365" fill="#111" stroke="#111" stroke-width="1"/><text x="276" y="352" text-anchor="start" font-family="monospace" font-size="12" fill="#111">[03] GET user:profile:{uid}</text><line x1="568" y1="416" x2="268" y2="416" stroke="#111" stroke-width="1.5" stroke-dasharray="6 4"/><polygon points="268,416 276,411 276,421" fill="#111" stroke="#111" stroke-width="1"/><text x="276" y="408" text-anchor="start" font-family="monospace" font-size="12" fill="#111">[04] profile JSON</text><line x1="268" y1="488" x2="468" y2="488" stroke="#111" stroke-width="1.5"/><polygon points="468,488 460,483 460,493" fill="#111" stroke="#111" stroke-width="1"/><text x="276" y="464" text-anchor="start" font-family="monospace" font-size="12" fill="#111">[05] SELECT * FROM</text><text x="276" y="480" text-anchor="start" font-family="monospace" font-size="12" fill="#111">profiles WHERE uid=?</text><line x1="468" y1="528" x2="268" y2="528" stroke="#111" stroke-width="1.5" stroke-dasharray="6 4"/><polygon points="268,528 276,523 276,533" fill="#111" stroke="#111" stroke-width="1"/><text x="276" y="520" text-anchor="start" font-family="monospace" font-size="12" fill="#111">[06] row</text><line x1="268" y1="556" x2="568" y2="556" stroke="#111" stroke-width="1.5"/><polygon points="568,556 560,551 560,561" fill="#111" stroke="#111" stroke-width="1"/><text x="276" y="548" text-anchor="start" font-family="monospace" font-size="12" fill="#111">[07] SET user:profile:{uid} TTL 300</text><line x1="268" y1="644" x2="168" y2="644" stroke="#111" stroke-width="1.5" stroke-dasharray="6 4"/><polygon points="168,644 176,639 176,649" fill="#111" stroke="#111" stroke-width="1"/><text x="176" y="604" text-anchor="start" font-family="monospace" font-size="12" fill="#111">[08] 200</text><text x="176" y="620" text-anchor="start" font-family="monospace" font-size="12" fill="#111">{dashboard</text><text x="176" y="636" text-anchor="start" font-family="monospace" font-size="12" fill="#111">payload}</text><line x1="168" y1="712" x2="68" y2="712" stroke="#111" stroke-width="1.5" stroke-dasharray="6 4"/><polygon points="68,712 76,707 76,717" fill="#111" stroke="#111" stroke-width="1"/><text x="76" y="688" text-anchor="start" font-family="monospace" font-size="12" fill="#111">[09] render</text><text x="76" y="704" text-anchor="start" font-family="monospace" font-size="12" fill="#111">dashboard</text><path d="M198,324 H329 L338 333 V352 H198 Z" fill="#fff8c4" stroke="#111" stroke-width="1"/><path d="M329 324 V333 H338" fill="none" stroke="#111" stroke-width="1"/><text x="206" y="344" font-family="monospace" font-size="12" fill="#111">Token validated</text><rect x="28" y="740" width="80" height="32" rx="8" ry="8" fill="#fff3e0" stroke="#8a5a00" stroke-width="1"/><circle cx="40" cy="741" r="6" fill="none" stroke="#8a5a00" stroke-width="1.5"/><line x1="40" y1="747" x2="40" y2="761" stroke="#8a5a00" stroke-width="1.5"/><line x1="30" y1="751" x2="50" y2="751" stroke="#8a5a00" stroke-width="1.5"/><line x1="40" y1="761" x2="32" y2="777" stroke="#8a5a00" stroke-width="1.5"/><line x1="40" y1="761" x2="48" y2="777" stroke="#8a5a00" stroke-width="1.5"/><text x="68" y="761" text-anchor="middle" font-family="monospace" font-size="13" fill="#111111">User</text><rect x="128" y="740" width="80" height="32" rx="4" ry="4" fill="#f6f6f6" stroke="#111" stroke-width="1"/><text x="168" y="761" text-anchor="middle" font-family="monospace" font-size="13" fill="#111111">Browser</text><rect x="228" y="740" width="80" height="32" rx="4" ry="4" fill="#f6f6f6" stroke="#111" stroke-width="1"/><text x="268" y="761" text-anchor="middle" font-family="monospace" font-size="13" fill="#111111">Gateway</text><rect x="328" y="740" width="80" height="32" rx="4" ry="4" fill="#f6f6f6" stroke="#111" stroke-width="1"/><text x="368" y="761" text-anchor="middle" font-family="monospace" font-size="13" fill="#111111">AuthSvc</text><rect x="428" y="740" width="80" height="32" rx="4" ry="4" fill="#f6f6f6" stroke="#111" stroke-width="1"/><text x="468" y="761" text-anchor="middle" font-family="monospace" font-size="13" fill="#111111">DB</text><rect x="528" y="740" width="80" height="32" rx="4" ry="4" fill="#f6f6f6" stroke="#111" stroke-width="1"/><text x="568" y="761" text-anchor="middle" font-family="monospace" font-size="13" fill="#111111">Cache</text></svg>