<svg xmlns="http://www.w3.org/2000/svg" width="391" height="200" viewBox="0 0 391 200"><rect width="100%" height="100%" fill="white"/><rect x="16" y="16" width="80" height="32" rx="4" ry="4" fill="#d9ead3" stroke="#274e13" stroke-width="1"/><text x="56" y="37" text-anchor="middle" font-family="monospace" font-size="13" fill="#274e13">Alice</text><rect x="116" y="16" width="80" height="32" rx="4" ry="4" fill="#d9ead3" stroke="#274e13" stroke-width="1"/><text x="156" y="37" text-anchor="middle" font-family="monospace" font-size="13" fill="#274e13">Bob</text><line x1="56" y1="48" x2="56" y2="152" stroke="#555" stroke-width="1" stroke-dasharray="6 4"/><line x1="156" y1="48" x2="156" y2="152" stroke="#555" stroke-width="1" stroke-dasharray="6 4"/><line x1="56" y1="80" x2="156" y2="80" stroke="#0b5394" stroke-width="1.5"/><polygon points="156,80 148,75 148,85" fill="#0b5394" stroke="#0b5394" stroke-width="1"/><text x="64" y="72" text-anchor="start" font-family="monospace" font-size="12" fill="#0b5394">style block</text><path d="M208,100 H366 L375 109 V128 H208 Z" fill="#fff2cc" stroke="#7f6000" stroke-width="1"/><path d="M366 100 V109 H375" fill="none" stroke="#7f6000" stroke-width="1"/><line x1="156" y1="114" x2="208" y2="114" stroke="#7f6000" stroke-width="1"/><text x="216" y="120" font-family="monospace" font-size="12" fill="#0b5394">note from style block</text><rect x="16" y="152" width="80" height="32" rx="4" ry="4" fill="#d9ead3" stroke="#274e13" stroke-width="1"/><text x="56" y="173" text-anchor="middle" font-family="monospace" font-size="13" fill="#274e13">Alice</text><rect x="116" y="152" width="80" height="32" rx="4" ry="4" fill="#d9ead3" stroke="#274e13" stroke-width="1"/><text x="156" y="173" text-anchor="middle" font-family="monospace" font-size="13" fill="#274e13">Bob</text></svg>