<svg xmlns="http://www.w3.org/2000/svg" width="520" height="232" viewBox="0 0 520 232"><rect width="100%" height="100%" fill="white"/><rect x="24" y="24" width="120" height="32" rx="4" ry="4" fill="#d9ead3" stroke="#274e13" stroke-width="1"/><text x="84" y="45" text-anchor="middle" font-family="monospace" font-size="13" fill="#274e13">Alice</text><rect x="184" y="24" width="120" height="32" rx="4" ry="4" fill="#d9ead3" stroke="#274e13" stroke-width="1"/><text x="244" y="45" text-anchor="middle" font-family="monospace" font-size="13" fill="#274e13">Bob</text><line x1="84" y1="56" x2="84" y2="176" stroke="#555" stroke-width="1" stroke-dasharray="6 4"/><line x1="244" y1="56" x2="244" y2="176" stroke="#555" stroke-width="1" stroke-dasharray="6 4"/><line x1="84" y1="80" x2="244" y2="80" stroke="#0b5394" stroke-width="1.5"/><polygon points="244,80 236,75 236,85" fill="#0b5394" stroke="#0b5394" stroke-width="1"/><text x="92" y="72" text-anchor="start" font-family="monospace" font-size="12" fill="#0b5394">style block</text><path d="M316,120 H486 L496 130 V152 H316 Z" fill="#fff2cc" stroke="#7f6000" stroke-width="1"/><path d="M486 120 V130 H496" fill="none" stroke="#7f6000" stroke-width="1"/><text x="324" y="140" font-family="monospace" font-size="12" fill="#0b5394">note from style block</text><rect x="24" y="176" width="120" height="32" rx="4" ry="4" fill="#d9ead3" stroke="#274e13" stroke-width="1"/><text x="84" y="197" text-anchor="middle" font-family="monospace" font-size="13" fill="#274e13">Alice</text><rect x="184" y="176" width="120" height="32" rx="4" ry="4" fill="#d9ead3" stroke="#274e13" stroke-width="1"/><text x="244" y="197" text-anchor="middle" font-family="monospace" font-size="13" fill="#274e13">Bob</text></svg>