<svg xmlns="http://www.w3.org/2000/svg" width="364" height="396" viewBox="0 0 364 396"><rect width="100%" height="100%" fill="white"/><rect x="16" y="16" width="80" height="32" rx="4" ry="4" fill="#f6f6f6" stroke="#111" stroke-width="1"/><text x="56" y="37" text-anchor="middle" font-family="monospace" font-size="13" fill="#111111">API</text><rect x="116" y="16" width="80" height="32" rx="4" ry="4" fill="#f6f6f6" stroke="#111" stroke-width="1"/><text x="156" y="37" text-anchor="middle" font-family="monospace" font-size="13" fill="#111111">Worker</text><line x1="56" y1="48" x2="56" y2="348" stroke="#555" stroke-width="1" stroke-dasharray="6 4"/><line x1="156" y1="48" x2="156" y2="348" stroke="#555" stroke-width="1" stroke-dasharray="6 4"/><rect x="16" y="100" width="180" height="224" rx="2" ry="2" fill="#fafafa" stroke="#666" stroke-width="1"/><polygon points="16,100 109,100 109,114 103,120 16,120" fill="#fafafa" stroke="#666" stroke-width="1"/><text x="24" y="114" font-family="monospace" font-size="12" font-weight="600" fill="#111">alt success</text><line x1="16" y1="156" x2="196" y2="156" stroke="#666" stroke-width="1" stroke-dasharray="5 4"/><text x="24" y="142" font-family="monospace" font-size="11" fill="#333">else failure</text><line x1="56" y1="80" x2="156" y2="80" stroke="#111" stroke-width="1.5"/><polygon points="156,80 148,75 148,85" fill="#111" stroke="#111" stroke-width="1"/><text x="64" y="72" text-anchor="start" font-family="monospace" font-size="12" fill="#111">enqueue(job)</text><line x1="156" y1="136" x2="56" y2="136" stroke="#111" stroke-width="1.5" stroke-dasharray="6 4"/><polygon points="56,136 64,131 64,141" fill="#111" stroke="#111" stroke-width="1"/><text x="64" y="128" text-anchor="start" font-family="monospace" font-size="12" fill="#111">202 Accepted</text><line x1="156" y1="264" x2="56" y2="264" stroke="#111" stroke-width="1.5" stroke-dasharray="6 4"/><polygon points="56,264 64,259 64,269" fill="#111" stroke="#111" stroke-width="1"/><text x="64" y="240" text-anchor="start" font-family="monospace" font-size="12" fill="#111">400 Bad</text><text x="64" y="256" text-anchor="start" font-family="monospace" font-size="12" fill="#111">Request</text><path d="M208,184 H334 L348 198 V228 H208 Z" fill="#fff8c4" stroke="#111" stroke-width="1"/><path d="M334 184 V198 H348" fill="none" stroke="#111" stroke-width="1"/><text x="216" y="204" font-family="monospace" font-size="12" fill="#111">validation failed</text><text x="216" y="220" font-family="monospace" font-size="12" fill="#111">retry later</text><rect x="16" y="348" width="80" height="32" rx="4" ry="4" fill="#f6f6f6" stroke="#111" stroke-width="1"/><text x="56" y="369" text-anchor="middle" font-family="monospace" font-size="13" fill="#111111">API</text><rect x="116" y="348" width="80" height="32" rx="4" ry="4" fill="#f6f6f6" stroke="#111" stroke-width="1"/><text x="156" y="369" text-anchor="middle" font-family="monospace" font-size="13" fill="#111111">Worker</text></svg>