<svg xmlns="http://www.w3.org/2000/svg" width="310" height="300" viewBox="0 0 310 300"><rect width="100%" height="100%" fill="white"/><line x1="50" y1="20" x2="50" y2="260" stroke="#888" stroke-width="1.5"/><line x1="50" y1="260" x2="290" y2="260" stroke="#888" stroke-width="1.5"/><line x1="50" y1="260" x2="290" y2="260" stroke="#ddd" stroke-width="1"/><text x="46" y="264" font-family="monospace" font-size="10" fill="#666" text-anchor="end">0</text><line x1="50" y1="200" x2="290" y2="200" stroke="#ddd" stroke-width="1"/><text x="46" y="204" font-family="monospace" font-size="10" fill="#666" text-anchor="end">23</text><line x1="50" y1="140" x2="290" y2="140" stroke="#ddd" stroke-width="1"/><text x="46" y="144" font-family="monospace" font-size="10" fill="#666" text-anchor="end">46</text><line x1="50" y1="80" x2="290" y2="80" stroke="#ddd" stroke-width="1"/><text x="46" y="84" font-family="monospace" font-size="10" fill="#666" text-anchor="end">68</text><line x1="50" y1="20" x2="290" y2="20" stroke="#ddd" stroke-width="1"/><text x="46" y="24" font-family="monospace" font-size="10" fill="#666" text-anchor="end">91</text><rect x="54" y="150" width="52" height="110" fill="#4e79a7" rx="2"/><text x="80" y="147" font-family="monospace" font-size="10" text-anchor="middle" fill="#4e79a7">42</text><text x="80" y="274" font-family="monospace" font-size="10" text-anchor="middle" fill="#444">Q1</text><rect x="114" y="108" width="52" height="152" fill="#f28e2b" rx="2"/><text x="140" y="105" font-family="monospace" font-size="10" text-anchor="middle" fill="#f28e2b">58</text><text x="140" y="274" font-family="monospace" font-size="10" text-anchor="middle" fill="#444">Q2</text><rect x="174" y="68" width="52" height="192" fill="#e15759" rx="2"/><text x="200" y="65" font-family="monospace" font-size="10" text-anchor="middle" fill="#e15759">73</text><text x="200" y="274" font-family="monospace" font-size="10" text-anchor="middle" fill="#444">Q3</text><rect x="234" y="20" width="52" height="240" fill="#76b7b2" rx="2"/><text x="260" y="17" font-family="monospace" font-size="10" text-anchor="middle" fill="#76b7b2">91</text><text x="260" y="274" font-family="monospace" font-size="10" text-anchor="middle" fill="#444">Q4</text><metadata data-chart-type="bar"/></svg>