<svg xmlns="http://www.w3.org/2000/svg" width="310" height="300" viewBox="0 0 310 300"><rect width="100%" height="100%" fill="white"/><line x1="50" y1="20" x2="50" y2="260" stroke="#888" stroke-width="1.5"/><line x1="50" y1="260" x2="290" y2="260" stroke="#888" stroke-width="1.5"/><line x1="50" y1="260" x2="290" y2="260" stroke="#eee" stroke-width="1"/><text x="46" y="264" font-family="monospace" font-size="10" fill="#666" text-anchor="end">0</text><line x1="50" y1="200" x2="290" y2="200" stroke="#eee" stroke-width="1"/><text x="46" y="204" font-family="monospace" font-size="10" fill="#666" text-anchor="end">5</text><line x1="50" y1="140" x2="290" y2="140" stroke="#eee" stroke-width="1"/><text x="46" y="144" font-family="monospace" font-size="10" fill="#666" text-anchor="end">10</text><line x1="50" y1="80" x2="290" y2="80" stroke="#eee" stroke-width="1"/><text x="46" y="84" font-family="monospace" font-size="10" fill="#666" text-anchor="end">15</text><line x1="50" y1="20" x2="290" y2="20" stroke="#eee" stroke-width="1"/><text x="46" y="24" font-family="monospace" font-size="10" fill="#666" text-anchor="end">20</text><polyline points="50,140 130,80 210,116 290,20" fill="none" stroke="#4e79a7" stroke-width="2"/><circle cx="50" cy="140" r="4" fill="#4e79a7" stroke="white" stroke-width="1.5"/><text x="50" y="274" font-family="monospace" font-size="10" text-anchor="middle" fill="#444">Jan</text><circle cx="130" cy="80" r="4" fill="#4e79a7" stroke="white" stroke-width="1.5"/><text x="130" y="274" font-family="monospace" font-size="10" text-anchor="middle" fill="#444">Feb</text><circle cx="210" cy="116" r="4" fill="#4e79a7" stroke="white" stroke-width="1.5"/><text x="210" y="274" font-family="monospace" font-size="10" text-anchor="middle" fill="#444">Mar</text><circle cx="290" cy="20" r="4" fill="#4e79a7" stroke="white" stroke-width="1.5"/><text x="290" y="274" font-family="monospace" font-size="10" text-anchor="middle" fill="#444">Apr</text><metadata data-chart-type="line"/></svg>