<svg xmlns="http://www.w3.org/2000/svg" width="780" height="420" viewBox="0 0 780 420" data-chart-type="pie" data-chart-horizontal="false" data-chart-stacked="false"><rect width="100%" height="100%" fill="#ffffff"/><metadata data-chart-style="#ffffff #0f172a #e2e8f0 #1d4ed8 #1d4ed8 #1d4ed8 #0f172a #0f172a"/><text x="24" y="28" font-family="monospace" font-size="12" fill="#475569">pie</text><metadata data-chart-series="Value"/><metadata data-chart-label-mode="auto"/><path class="chart-pie-slice" data-chart-slice="Frontend" data-chart-value="35" data-chart-percent="35%" d="M 390 214 L 510.00 214.00 A 120 120 0 0 1 319.47 311.08 Z" fill="#1d4ed8" stroke="#0f172a" stroke-width="0.5"/><text class="chart-pie-label" data-chart-label-mode="auto" data-chart-slice-label="Frontend" x="423" y="278" text-anchor="middle" font-family="monospace" font-size="11" fill="#0f172a">Frontend 35%</text><path class="chart-pie-slice" data-chart-slice="Backend" data-chart-value="40" data-chart-percent="40%" d="M 390 214 L 319.47 311.08 A 120 120 0 0 1 390.00 94.00 Z" fill="#16a34a" stroke="#0f172a" stroke-width="0.5"/><text class="chart-pie-label" data-chart-label-mode="auto" data-chart-slice-label="Backend" x="322" y="192" text-anchor="middle" font-family="monospace" font-size="11" fill="#0f172a">Backend 40%</text><path class="chart-pie-slice" data-chart-slice="DevOps" data-chart-value="25" data-chart-percent="25%" d="M 390 214 L 390.00 94.00 A 120 120 0 0 1 510.00 214.00 Z" fill="#d97706" stroke="#0f172a" stroke-width="0.5"/><text class="chart-pie-label" data-chart-label-mode="auto" data-chart-slice-label="DevOps" x="441" y="163" text-anchor="middle" font-family="monospace" font-size="11" fill="#0f172a">DevOps 25%</text><g class="chart-legend" data-chart-legend="right" data-chart-legend-h="right" data-chart-legend-v="top"><rect x="622" y="44" width="132" height="72" rx="4" fill="#ffffff" stroke="#cbd5e1"/><rect class="chart-legend-swatch" x="630" y="53" width="10" height="10" fill="#1d4ed8"/><text class="chart-legend-label" x="646" y="62" font-family="monospace" font-size="11" fill="#0f172a">Frontend</text><rect class="chart-legend-swatch" x="630" y="71" width="10" height="10" fill="#16a34a"/><text class="chart-legend-label" x="646" y="80" font-family="monospace" font-size="11" fill="#0f172a">Backend</text><rect class="chart-legend-swatch" x="630" y="89" width="10" height="10" fill="#d97706"/><text class="chart-legend-label" x="646" y="98" font-family="monospace" font-size="11" fill="#0f172a">DevOps</text></g></svg>