<svg xmlns="http://www.w3.org/2000/svg" width="500" height="340" viewBox="0 0 500 340"><rect width="100%" height="100%" fill="white"/><path d="M 150 180 L 150 70 A 110 110 0 0 1 238 244 Z" fill="#4e79a7" stroke="white" stroke-width="1.5"/><text x="213" y="147" font-family="monospace" font-size="11" text-anchor="middle" dominant-baseline="middle" fill="white" font-weight="600">35%</text><path d="M 150 180 L 238 244 A 110 110 0 0 1 40 180 Z" fill="#f28e2b" stroke="white" stroke-width="1.5"/><text x="127" y="248" font-family="monospace" font-size="11" text-anchor="middle" dominant-baseline="middle" fill="white" font-weight="600">40%</text><path d="M 150 180 L 40 180 A 110 110 0 0 1 149 70 Z" fill="#e15759" stroke="white" stroke-width="1.5"/><text x="99" y="129" font-family="monospace" font-size="11" text-anchor="middle" dominant-baseline="middle" fill="white" font-weight="600">25%</text><text x="310" y="40" font-family="monospace" font-size="12" font-weight="600" fill="#333">Legend</text><rect x="310" y="48" width="12" height="12" fill="#4e79a7"/><text x="328" y="58" font-family="monospace" font-size="11" fill="#333">Frontend (35)</text><rect x="310" y="66" width="12" height="12" fill="#f28e2b"/><text x="328" y="76" font-family="monospace" font-size="11" fill="#333">Backend (40)</text><rect x="310" y="84" width="12" height="12" fill="#e15759"/><text x="328" y="94" font-family="monospace" font-size="11" fill="#333">DevOps (25)</text><metadata data-chart-type="pie"/></svg>