<svg xmlns="http://www.w3.org/2000/svg" width="250" height="300" viewBox="0 0 250 300"><rect width="100%" height="100%" fill="white"/><line x1="50" y1="20" x2="50" y2="260" stroke="#888" stroke-width="1.5"/><line x1="50" y1="260" x2="230" y2="260" stroke="#888" stroke-width="1.5"/><line x1="50" y1="260" x2="230" y2="260" stroke="#ddd" stroke-width="1"/><text x="46" y="264" font-family="monospace" font-size="10" fill="#666" text-anchor="end">0</text><line x1="50" y1="200" x2="230" y2="200" stroke="#ddd" stroke-width="1"/><text x="46" y="204" font-family="monospace" font-size="10" fill="#666" text-anchor="end">48</text><line x1="50" y1="140" x2="230" y2="140" stroke="#ddd" stroke-width="1"/><text x="46" y="144" font-family="monospace" font-size="10" fill="#666" text-anchor="end">95</text><line x1="50" y1="80" x2="230" y2="80" stroke="#ddd" stroke-width="1"/><text x="46" y="84" font-family="monospace" font-size="10" fill="#666" text-anchor="end">142</text><line x1="50" y1="20" x2="230" y2="20" stroke="#ddd" stroke-width="1"/><text x="46" y="24" font-family="monospace" font-size="10" fill="#666" text-anchor="end">190</text><rect x="54" y="134" width="52" height="126" fill="#4e79a7" rx="2"/><text x="80" y="131" font-family="monospace" font-size="10" text-anchor="middle" fill="#4e79a7">100</text><text x="80" y="274" font-family="monospace" font-size="10" text-anchor="middle" fill="#444">2024</text><rect x="114" y="84" width="52" height="176" fill="#f28e2b" rx="2"/><text x="140" y="81" font-family="monospace" font-size="10" text-anchor="middle" fill="#f28e2b">140</text><text x="140" y="274" font-family="monospace" font-size="10" text-anchor="middle" fill="#444">2025</text><rect x="174" y="20" width="52" height="240" fill="#e15759" rx="2"/><text x="200" y="17" font-family="monospace" font-size="10" text-anchor="middle" fill="#e15759">190</text><text x="200" y="274" font-family="monospace" font-size="10" text-anchor="middle" fill="#444">2026</text><metadata data-chart-type="bar"/></svg>