<svg xmlns="http://www.w3.org/2000/svg" width="780" height="420" viewBox="0 0 780 420" data-chart-type="line" data-chart-horizontal="false" data-chart-stacked="false"><rect width="100%" height="100%" fill="#ffffff"/><metadata data-chart-style="#ffffff #0f172a #e2e8f0 #1d4ed8 #1d4ed8 #1d4ed8 #0f172a #0f172a"/><text x="24" y="28" font-family="monospace" font-size="16" font-weight="600">Weekly Active Users — Multi-series Line Chart</text><metadata data-chart-subtype-label="line"/><metadata data-chart-series="Desktop|Mobile|Tablet"/><metadata data-chart-label-mode="auto"/><line x1="78" y1="346" x2="602" y2="346" stroke="#0f172a" stroke-width="1"/><line x1="78" y1="104" x2="78" y2="346" stroke="#0f172a" stroke-width="1"/><line class="chart-axis-grid chart-axis-grid-v" x1="78" y1="346" x2="602" y2="346" stroke="#e2e8f0" stroke-width="0.5"/><text class="chart-axis-tick chart-axis-tick-v" data-chart-axis-tick="0" x="70" y="350" text-anchor="end" font-family="monospace" font-size="10" fill="#0f172a">0</text><line class="chart-axis-grid chart-axis-grid-v" x1="78" y1="286" x2="602" y2="286" stroke="#e2e8f0" stroke-width="0.5"/><text class="chart-axis-tick chart-axis-tick-v" data-chart-axis-tick="450" x="70" y="290" text-anchor="end" font-family="monospace" font-size="10" fill="#0f172a">450</text><line class="chart-axis-grid chart-axis-grid-v" x1="78" y1="225" x2="602" y2="225" stroke="#e2e8f0" stroke-width="0.5"/><text class="chart-axis-tick chart-axis-tick-v" data-chart-axis-tick="900" x="70" y="229" text-anchor="end" font-family="monospace" font-size="10" fill="#0f172a">900</text><line class="chart-axis-grid chart-axis-grid-v" x1="78" y1="165" x2="602" y2="165" stroke="#e2e8f0" stroke-width="0.5"/><text class="chart-axis-tick chart-axis-tick-v" data-chart-axis-tick="1350" x="70" y="169" text-anchor="end" font-family="monospace" font-size="10" fill="#0f172a">1350</text><line class="chart-axis-grid chart-axis-grid-v" x1="78" y1="104" x2="602" y2="104" stroke="#e2e8f0" stroke-width="0.5"/><text class="chart-axis-tick chart-axis-tick-v" data-chart-axis-tick="1800" x="70" y="108" text-anchor="end" font-family="monospace" font-size="10" fill="#0f172a">1800</text><metadata data-chart-axis-v-range="0..1800"/><line class="chart-zero-axis" x1="78" y1="346" x2="602" y2="346" stroke="#0f172a" stroke-width="1.25"/><text x="340" y="388" text-anchor="middle" font-family="monospace" font-size="12" fill="#0f172a">Category</text><text x="18" y="225" transform="rotate(-90 18 225)" text-anchor="middle" font-family="monospace" font-size="12" fill="#0f172a">Value</text><line class="chart-axis-grid chart-axis-grid-h" x1="78" y1="104" x2="78" y2="346" stroke="#e2e8f0" stroke-width="0.5"/><line class="chart-axis-grid chart-axis-grid-h" x1="152" y1="104" x2="152" y2="346" stroke="#e2e8f0" stroke-width="0.5"/><line class="chart-axis-grid chart-axis-grid-h" x1="227" y1="104" x2="227" y2="346" stroke="#e2e8f0" stroke-width="0.5"/><line class="chart-axis-grid chart-axis-grid-h" x1="302" y1="104" x2="302" y2="346" stroke="#e2e8f0" stroke-width="0.5"/><line class="chart-axis-grid chart-axis-grid-h" x1="377" y1="104" x2="377" y2="346" stroke="#e2e8f0" stroke-width="0.5"/><line class="chart-axis-grid chart-axis-grid-h" x1="452" y1="104" x2="452" y2="346" stroke="#e2e8f0" stroke-width="0.5"/><line class="chart-axis-grid chart-axis-grid-h" x1="527" y1="104" x2="527" y2="346" stroke="#e2e8f0" stroke-width="0.5"/><line class="chart-axis-grid chart-axis-grid-h" x1="602" y1="104" x2="602" y2="346" stroke="#e2e8f0" stroke-width="0.5"/><circle class="chart-point" data-chart-value="1200" cx="78" cy="185" r="3" fill="#4682b4"/><text class="chart-value-label" data-chart-label-mode="auto" x="92" y="169" text-anchor="middle" font-family="monospace" font-size="10" fill="#334155">1200</text><text x="78" y="362" text-anchor="middle" font-family="monospace" font-size="11" fill="#0f172a">W1</text><circle class="chart-point" data-chart-value="1350" cx="152" cy="165" r="3" fill="#4682b4"/><text class="chart-value-label" data-chart-label-mode="auto" x="166" y="149" text-anchor="middle" font-family="monospace" font-size="10" fill="#334155">1350</text><text x="152" y="362" text-anchor="middle" font-family="monospace" font-size="11" fill="#0f172a">W2</text><circle class="chart-point" data-chart-value="1280" cx="227" cy="174" r="3" fill="#4682b4"/><text class="chart-value-label" data-chart-label-mode="auto" x="241" y="158" text-anchor="middle" font-family="monospace" font-size="10" fill="#334155">1280</text><text x="227" y="362" text-anchor="middle" font-family="monospace" font-size="11" fill="#0f172a">W3</text><circle class="chart-point" data-chart-value="1500" cx="302" cy="145" r="3" fill="#4682b4"/><text class="chart-value-label" data-chart-label-mode="auto" x="316" y="129" text-anchor="middle" font-family="monospace" font-size="10" fill="#334155">1500</text><text x="302" y="362" text-anchor="middle" font-family="monospace" font-size="11" fill="#0f172a">W4</text><circle class="chart-point" data-chart-value="1620" cx="377" cy="129" r="3" fill="#4682b4"/><text class="chart-value-label" data-chart-label-mode="auto" x="391" y="113" text-anchor="middle" font-family="monospace" font-size="10" fill="#334155">1620</text><text x="377" y="362" text-anchor="middle" font-family="monospace" font-size="11" fill="#0f172a">W5</text><circle class="chart-point" data-chart-value="1700" cx="452" cy="118" r="3" fill="#4682b4"/><text class="chart-value-label" data-chart-label-mode="auto" x="466" y="102" text-anchor="middle" font-family="monospace" font-size="10" fill="#334155">1700</text><text x="452" y="362" text-anchor="middle" font-family="monospace" font-size="11" fill="#0f172a">W6</text><circle class="chart-point" data-chart-value="1580" cx="527" cy="134" r="3" fill="#4682b4"/><text class="chart-value-label" data-chart-label-mode="auto" x="541" y="118" text-anchor="middle" font-family="monospace" font-size="10" fill="#334155">1580</text><text x="527" y="362" text-anchor="middle" font-family="monospace" font-size="11" fill="#0f172a">W7</text><circle class="chart-point" data-chart-value="1800" cx="602" cy="104" r="3" fill="#4682b4"/><text class="chart-value-label" data-chart-label-mode="auto" x="616" y="88" text-anchor="middle" font-family="monospace" font-size="10" fill="#334155">1800</text><text x="602" y="362" text-anchor="middle" font-family="monospace" font-size="11" fill="#0f172a">W8</text><polyline points="78,185 152,165 227,174 302,145 377,129 452,118 527,134 602,104" fill="none" stroke="#4682b4" stroke-width="1.5"/><circle class="chart-point" data-chart-value="800" cx="78" cy="239" r="3" fill="#ff8c00"/><text class="chart-value-label" data-chart-label-mode="auto" x="92" y="223" text-anchor="middle" font-family="monospace" font-size="10" fill="#334155">800</text><circle class="chart-point" data-chart-value="820" cx="152" cy="236" r="3" fill="#ff8c00"/><text class="chart-value-label" data-chart-label-mode="auto" x="166" y="220" text-anchor="middle" font-family="monospace" font-size="10" fill="#334155">820</text><circle class="chart-point" data-chart-value="790" cx="227" cy="240" r="3" fill="#ff8c00"/><text class="chart-value-label" data-chart-label-mode="auto" x="241" y="224" text-anchor="middle" font-family="monospace" font-size="10" fill="#334155">790</text><circle class="chart-point" data-chart-value="900" cx="302" cy="225" r="3" fill="#ff8c00"/><text class="chart-value-label" data-chart-label-mode="auto" x="316" y="209" text-anchor="middle" font-family="monospace" font-size="10" fill="#334155">900</text><circle class="chart-point" data-chart-value="980" cx="377" cy="215" r="3" fill="#ff8c00"/><text class="chart-value-label" data-chart-label-mode="auto" x="391" y="199" text-anchor="middle" font-family="monospace" font-size="10" fill="#334155">980</text><circle class="chart-point" data-chart-value="1050" cx="452" cy="205" r="3" fill="#ff8c00"/><text class="chart-value-label" data-chart-label-mode="auto" x="466" y="189" text-anchor="middle" font-family="monospace" font-size="10" fill="#334155">1050</text><circle class="chart-point" data-chart-value="1020" cx="527" cy="209" r="3" fill="#ff8c00"/><text class="chart-value-label" data-chart-label-mode="auto" x="541" y="193" text-anchor="middle" font-family="monospace" font-size="10" fill="#334155">1020</text><circle class="chart-point" data-chart-value="1100" cx="602" cy="199" r="3" fill="#ff8c00"/><text class="chart-value-label" data-chart-label-mode="auto" x="616" y="183" text-anchor="middle" font-family="monospace" font-size="10" fill="#334155">1100</text><polyline points="78,239 152,236 227,240 302,225 377,215 452,205 527,209 602,199" fill="none" stroke="#ff8c00" stroke-width="1.5"/><circle class="chart-point" data-chart-value="400" cx="78" cy="293" r="3" fill="#006400"/><text class="chart-value-label" data-chart-label-mode="auto" x="92" y="277" text-anchor="middle" font-family="monospace" font-size="10" fill="#334155">400</text><circle class="chart-point" data-chart-value="430" cx="152" cy="289" r="3" fill="#006400"/><text class="chart-value-label" data-chart-label-mode="auto" x="166" y="273" text-anchor="middle" font-family="monospace" font-size="10" fill="#334155">430</text><circle class="chart-point" data-chart-value="460" cx="227" cy="285" r="3" fill="#006400"/><text class="chart-value-label" data-chart-label-mode="auto" x="241" y="269" text-anchor="middle" font-family="monospace" font-size="10" fill="#334155">460</text><circle class="chart-point" data-chart-value="510" cx="302" cy="278" r="3" fill="#006400"/><text class="chart-value-label" data-chart-label-mode="auto" x="316" y="262" text-anchor="middle" font-family="monospace" font-size="10" fill="#334155">510</text><circle class="chart-point" data-chart-value="540" cx="377" cy="274" r="3" fill="#006400"/><text class="chart-value-label" data-chart-label-mode="auto" x="391" y="258" text-anchor="middle" font-family="monospace" font-size="10" fill="#334155">540</text><circle class="chart-point" data-chart-value="580" cx="452" cy="269" r="3" fill="#006400"/><text class="chart-value-label" data-chart-label-mode="auto" x="466" y="253" text-anchor="middle" font-family="monospace" font-size="10" fill="#334155">580</text><circle class="chart-point" data-chart-value="560" cx="527" cy="271" r="3" fill="#006400"/><text class="chart-value-label" data-chart-label-mode="auto" x="541" y="255" text-anchor="middle" font-family="monospace" font-size="10" fill="#334155">560</text><circle class="chart-point" data-chart-value="610" cx="602" cy="264" r="3" fill="#006400"/><text class="chart-value-label" data-chart-label-mode="auto" x="616" y="248" text-anchor="middle" font-family="monospace" font-size="10" fill="#334155">610</text><polyline points="78,293 152,289 227,285 302,278 377,274 452,269 527,271 602,264" fill="none" stroke="#006400" stroke-width="1.5"/><g class="chart-legend" data-chart-legend="right" data-chart-legend-h="right" data-chart-legend-v="top"><rect x="622" y="60" width="132" height="72" rx="4" fill="#ffffff" stroke="#cbd5e1"/><rect class="chart-legend-swatch" x="630" y="69" width="10" height="10" fill="#4682b4"/><text class="chart-legend-label" x="646" y="78" font-family="monospace" font-size="11" fill="#0f172a">Desktop</text><rect class="chart-legend-swatch" x="630" y="87" width="10" height="10" fill="#ff8c00"/><text class="chart-legend-label" x="646" y="96" font-family="monospace" font-size="11" fill="#0f172a">Mobile</text><rect class="chart-legend-swatch" x="630" y="105" width="10" height="10" fill="#006400"/><text class="chart-legend-label" x="646" y="114" font-family="monospace" font-size="11" fill="#0f172a">Tablet</text></g></svg>