<svg xmlns="http://www.w3.org/2000/svg" width="609" height="280" viewBox="0 0 609 280"><rect width="100%" height="100%" fill="white"/><rect x="24" y="24" width="120" height="32" rx="4" ry="4" fill="#f6f6f6" stroke="#111" stroke-width="1"/><text x="84" y="45" text-anchor="middle" font-family="monospace" font-size="13" fill="#111111">Alice</text><rect x="184" y="24" width="120" height="32" rx="4" ry="4" fill="#f6f6f6" stroke="#111" stroke-width="1"/><text x="244" y="45" text-anchor="middle" font-family="monospace" font-size="13" fill="#111111">Bob</text><line x1="84" y1="56" x2="84" y2="224" stroke="#555" stroke-width="1" stroke-dasharray="6 4"/><line x1="244" y1="56" x2="244" y2="224" stroke="#555" stroke-width="1" stroke-dasharray="6 4"/><line x1="84" y1="104" x2="244" y2="104" stroke="#111" stroke-width="1.5"/><polygon points="244,104 236,99 236,109" fill="#111" stroke="#111" stroke-width="1"/><text x="92" y="80" text-anchor="start" font-family="monospace" font-size="12" fill="#111"><tspan x="92"><tspan font-weight="bold">bold message</tspan><tspan> and</tspan></tspan></text><text x="92" y="96" text-anchor="start" font-family="monospace" font-size="12" fill="#111"><tspan x="92"><tspan font-style="italic">italic text</tspan></tspan></text><line x1="244" y1="208" x2="84" y2="208" stroke="#111" stroke-width="1.5" stroke-dasharray="6 4"/><polygon points="84,208 92,203 92,213" fill="#111" stroke="#111" stroke-width="1"/><text x="92" y="200" text-anchor="start" font-family="monospace" font-size="12" fill="#111">normal reply</text><path d="M316,160 H575 L585 170 V192 H316 Z" fill="#fff8c4" stroke="#111" stroke-width="1"/><path d="M575 160 V170 H585" fill="none" stroke="#111" stroke-width="1"/><text x="324" y="180" font-family="monospace" font-size="12" fill="#111"><tspan x="324"><tspan text-decoration="underline">underline</tspan><tspan> and </tspan><tspan text-decoration="line-through">strikethrough</tspan></tspan></text><rect x="24" y="224" width="120" height="32" rx="4" ry="4" fill="#f6f6f6" stroke="#111" stroke-width="1"/><text x="84" y="245" text-anchor="middle" font-family="monospace" font-size="13" fill="#111111">Alice</text><rect x="184" y="224" width="120" height="32" rx="4" ry="4" fill="#f6f6f6" stroke="#111" stroke-width="1"/><text x="244" y="245" text-anchor="middle" font-family="monospace" font-size="13" fill="#111111">Bob</text></svg>