<svg xmlns="http://www.w3.org/2000/svg" width="609" height="280" viewBox="0 0 609 280"><rect width="100%" height="100%" fill="white"/><rect x="24" y="24" width="120" height="32" rx="4" ry="4" fill="#f6f6f6" stroke="#111" stroke-width="1"/><text x="84" y="45" text-anchor="middle" font-family="monospace" font-size="13">Alice</text><rect x="184" y="24" width="120" height="32" rx="4" ry="4" fill="#f6f6f6" stroke="#111" stroke-width="1"/><text x="244" y="45" text-anchor="middle" font-family="monospace" font-size="13">Bob</text><line x1="84" y1="56" x2="84" y2="224" stroke="#555" stroke-width="1" stroke-dasharray="6 4"/><line x1="244" y1="56" x2="244" y2="224" stroke="#555" stroke-width="1" stroke-dasharray="6 4"/><line x1="84" y1="80" x2="244" y2="80" stroke="#111" stroke-width="1.5"/><polygon points="244,80 238,76 238,84" fill="#111"/><text x="166" y="56" text-anchor="middle" font-family="monospace" font-size="12"><tspan x="166"><tspan font-weight="bold">bold message</tspan><tspan> and</tspan></tspan></text><text x="166" y="72" text-anchor="middle" font-family="monospace" font-size="12"><tspan x="166"><tspan font-style="italic">italic text</tspan></tspan></text><line x1="244" y1="200" x2="84" y2="200" stroke="#111" stroke-width="1.5" stroke-dasharray="6 4"/><polygon points="84,200 90,196 90,204" fill="#111"/><text x="166" y="192" text-anchor="middle" font-family="monospace" font-size="12">normal reply</text><rect x="316" y="160" width="269" height="32" rx="2" ry="2" fill="#fff8c4" stroke="#111" stroke-width="1"/><text x="324" y="180" font-family="monospace" font-size="12"><tspan x="324"><tspan text-decoration="underline">underline</tspan><tspan> and </tspan><tspan text-decoration="line-through">strikethrough</tspan></tspan></text><rect x="24" y="224" width="120" height="32" rx="4" ry="4" fill="#f6f6f6" stroke="#111" stroke-width="1"/><text x="84" y="245" text-anchor="middle" font-family="monospace" font-size="13">Alice</text><rect x="184" y="224" width="120" height="32" rx="4" ry="4" fill="#f6f6f6" stroke="#111" stroke-width="1"/><text x="244" y="245" text-anchor="middle" font-family="monospace" font-size="13">Bob</text></svg>