<svg xmlns="http://www.w3.org/2000/svg" width="665" height="360" viewBox="0 0 665 360"><rect width="100%" height="100%" fill="white"/><rect x="24" y="24" width="120" height="32" rx="4" ry="4" fill="#f6f6f6" stroke="#111" stroke-width="1"/><text x="84" y="45" text-anchor="middle" font-family="monospace" font-size="13">Alice</text><rect x="184" y="24" width="120" height="32" rx="4" ry="4" fill="#f6f6f6" stroke="#111" stroke-width="1"/><text x="244" y="45" text-anchor="middle" font-family="monospace" font-size="13">Bob</text><line x1="84" y1="56" x2="84" y2="304" stroke="#555" stroke-width="1" stroke-dasharray="6 4"/><line x1="244" y1="56" x2="244" y2="304" stroke="#555" stroke-width="1" stroke-dasharray="6 4"/><line x1="84" y1="80" x2="244" y2="80" stroke="#111" stroke-width="1.5"/><polygon points="244,80 236,75 236,85" fill="#111" stroke="#111" stroke-width="1"/><text x="92" y="24" text-anchor="start" font-family="monospace" font-size="12"><tspan x="92"><tspan fill="red">red</tspan></tspan></text><text x="92" y="40" text-anchor="start" font-family="monospace" font-size="12">text&lt;/color&gt; and</text><text x="92" y="56" text-anchor="start" font-family="monospace" font-size="12"><tspan x="92"><tspan font-size="14">bigger&lt;/siz</tspan></tspan></text><text x="92" y="72" text-anchor="start" font-family="monospace" font-size="12">e&gt;</text><line x1="244" y1="280" x2="84" y2="280" stroke="#111" stroke-width="1.5" stroke-dasharray="6 4"/><polygon points="84,280 92,275 92,285" fill="#111" stroke="#111" stroke-width="1"/><text x="92" y="272" text-anchor="start" font-family="monospace" font-size="12">reply</text><path d="M316,240 H631 L641 250 V272 H316 Z" fill="#fff8c4" stroke="#111" stroke-width="1"/><path d="M631 240 V250 H641" fill="none" stroke="#111" stroke-width="1"/><text x="324" y="260" font-family="monospace" font-size="12"><tspan x="324"><tspan font-weight="bold">bold</tspan><tspan> </tspan><tspan font-style="italic">italic</tspan><tspan> </tspan><tspan text-decoration="underline">underlined</tspan></tspan></text><rect x="24" y="304" width="120" height="32" rx="4" ry="4" fill="#f6f6f6" stroke="#111" stroke-width="1"/><text x="84" y="325" text-anchor="middle" font-family="monospace" font-size="13">Alice</text><rect x="184" y="304" width="120" height="32" rx="4" ry="4" fill="#f6f6f6" stroke="#111" stroke-width="1"/><text x="244" y="325" text-anchor="middle" font-family="monospace" font-size="13">Bob</text></svg>