<svg xmlns="http://www.w3.org/2000/svg" width="665" height="360" viewBox="0 0 665 360"><rect width="100%" height="100%" fill="white"/><rect x="24" y="24" width="120" height="32" rx="4" ry="4" fill="#f6f6f6" stroke="#111" stroke-width="1"/><text x="84" y="45" text-anchor="middle" font-family="monospace" font-size="13">Alice</text><rect x="184" y="24" width="120" height="32" rx="4" ry="4" fill="#f6f6f6" stroke="#111" stroke-width="1"/><text x="244" y="45" text-anchor="middle" font-family="monospace" font-size="13">Bob</text><line x1="84" y1="56" x2="84" y2="304" stroke="#555" stroke-width="1" stroke-dasharray="6 4"/><line x1="244" y1="56" x2="244" y2="304" stroke="#555" stroke-width="1" stroke-dasharray="6 4"/><line x1="84" y1="80" x2="244" y2="80" stroke="#111" stroke-width="1.5"/><polygon points="244,80 238,76 238,84" fill="#111"/><text x="166" y="24" text-anchor="middle" font-family="monospace" font-size="12">&lt;color:red&gt;red</text><text x="166" y="40" text-anchor="middle" font-family="monospace" font-size="12">text&lt;/color&gt; and</text><text x="166" y="56" text-anchor="middle" font-family="monospace" font-size="12">&lt;size:14&gt;bigger&lt;/siz</text><text x="166" y="72" text-anchor="middle" font-family="monospace" font-size="12">e&gt;</text><line x1="244" y1="280" x2="84" y2="280" stroke="#111" stroke-width="1.5" stroke-dasharray="6 4"/><polygon points="84,280 90,276 90,284" fill="#111"/><text x="166" y="272" text-anchor="middle" font-family="monospace" font-size="12">reply</text><rect x="316" y="240" width="325" height="32" rx="3" ry="3" fill="#fff8c4" stroke="#111" stroke-width="1"/><text x="324" y="260" font-family="monospace" font-size="12">&lt;b&gt;bold&lt;/b&gt; &lt;i&gt;italic&lt;/i&gt; &lt;u&gt;underlined&lt;/u&gt;</text><rect x="24" y="304" width="120" height="32" rx="4" ry="4" fill="#f6f6f6" stroke="#111" stroke-width="1"/><text x="84" y="325" text-anchor="middle" font-family="monospace" font-size="13">Alice</text><rect x="184" y="304" width="120" height="32" rx="4" ry="4" fill="#f6f6f6" stroke="#111" stroke-width="1"/><text x="244" y="325" text-anchor="middle" font-family="monospace" font-size="13">Bob</text></svg>