<svg xmlns="http://www.w3.org/2000/svg" width="545" height="228" viewBox="0 0 545 228"><rect width="100%" height="100%" fill="white"/><rect x="16" y="16" width="80" height="32" rx="4" ry="4" fill="#f6f6f6" stroke="#111" stroke-width="1"/><text x="56" y="37" text-anchor="middle" font-family="monospace" font-size="13" fill="#111111">Alice</text><rect x="116" y="16" width="80" height="32" rx="4" ry="4" fill="#f6f6f6" stroke="#111" stroke-width="1"/><text x="156" y="37" text-anchor="middle" font-family="monospace" font-size="13" fill="#111111">Bob</text><line x1="56" y1="48" x2="56" y2="180" stroke="#555" stroke-width="1" stroke-dasharray="6 4"/><line x1="156" y1="48" x2="156" y2="180" stroke="#555" stroke-width="1" stroke-dasharray="6 4"/><line x1="56" y1="96" x2="156" y2="96" stroke="#111" stroke-width="1.5"/><polygon points="156,96 148,91 148,101" fill="#111" stroke="#111" stroke-width="1"/><text x="64" y="72" text-anchor="start" font-family="monospace" font-size="12" fill="#111"><tspan x="64"><tspan fill="red">red text</tspan><tspan> and</tspan></tspan></text><text x="64" y="88" text-anchor="start" font-family="monospace" font-size="12" fill="#111"><tspan x="64"><tspan font-size="14">bigger</tspan></tspan></text><line x1="156" y1="164" x2="56" y2="164" stroke="#111" stroke-width="1.5" stroke-dasharray="6 4"/><polygon points="56,164 64,159 64,169" fill="#111" stroke="#111" stroke-width="1"/><text x="64" y="156" text-anchor="start" font-family="monospace" font-size="12" fill="#111">reply</text><path d="M208,128 H520 L529 137 V156 H208 Z" fill="#fff8c4" stroke="#111" stroke-width="1"/><path d="M520 128 V137 H529" fill="none" stroke="#111" stroke-width="1"/><line x1="156" y1="142" x2="208" y2="142" stroke="#111" stroke-width="1"/><text x="216" y="148" font-family="monospace" font-size="12" fill="#111"><tspan x="216"><tspan font-weight="bold">bold</tspan><tspan> </tspan><tspan font-style="italic">italic</tspan><tspan> </tspan><tspan text-decoration="underline">underlined</tspan></tspan></text><rect x="16" y="180" width="80" height="32" rx="4" ry="4" fill="#f6f6f6" stroke="#111" stroke-width="1"/><text x="56" y="201" text-anchor="middle" font-family="monospace" font-size="13" fill="#111111">Alice</text><rect x="116" y="180" width="80" height="32" rx="4" ry="4" fill="#f6f6f6" stroke="#111" stroke-width="1"/><text x="156" y="201" text-anchor="middle" font-family="monospace" font-size="13" fill="#111111">Bob</text></svg>