<svg xmlns="http://www.w3.org/2000/svg" width="520" height="320" viewBox="0 0 520 320"><rect width="100%" height="100%" fill="white"/><rect x="24" y="24" width="120" height="32" rx="4" ry="4" fill="#f6f6f6" stroke="#111" stroke-width="1"/><text x="84" y="45" text-anchor="middle" font-family="monospace" font-size="13">Alice</text><rect x="184" y="24" width="120" height="32" rx="4" ry="4" fill="#f6f6f6" stroke="#111" stroke-width="1"/><text x="244" y="45" text-anchor="middle" font-family="monospace" font-size="13">Bob</text><line x1="84" y1="56" x2="84" y2="264" stroke="#555" stroke-width="1" stroke-dasharray="6 4"/><line x1="244" y1="56" x2="244" y2="264" stroke="#555" stroke-width="1" stroke-dasharray="6 4"/><line x1="84" y1="80" x2="244" y2="80" stroke="#111" stroke-width="1.5"/><polygon points="244,80 238,76 238,84" fill="#111"/><text x="166" y="56" text-anchor="middle" font-family="monospace" font-size="12"><tspan x="166"><tspan>line one</tspan></tspan><tspan x="166" dy="1.2em"><tspan>line</tspan></tspan></text><text x="166" y="72" text-anchor="middle" font-family="monospace" font-size="12"><tspan x="166"><tspan>two</tspan></tspan><tspan x="166" dy="1.2em"><tspan>line three</tspan></tspan></text><line x1="244" y1="240" x2="84" y2="240" stroke="#111" stroke-width="1.5" stroke-dasharray="6 4"/><polygon points="84,240 90,236 90,244" fill="#111"/><text x="166" y="232" text-anchor="middle" font-family="monospace" font-size="12">done</text><rect x="316" y="160" width="180" height="64" rx="2" ry="2" fill="#fff8c4" stroke="#111" stroke-width="1"/><text x="324" y="180" font-family="monospace" font-size="12">Multiline</text><text x="324" y="196" font-family="monospace" font-size="12">note content</text><text x="324" y="212" font-family="monospace" font-size="12">third line</text><rect x="24" y="264" width="120" height="32" rx="4" ry="4" fill="#f6f6f6" stroke="#111" stroke-width="1"/><text x="84" y="285" text-anchor="middle" font-family="monospace" font-size="13">Alice</text><rect x="184" y="264" width="120" height="32" rx="4" ry="4" fill="#f6f6f6" stroke="#111" stroke-width="1"/><text x="244" y="285" text-anchor="middle" font-family="monospace" font-size="13">Bob</text></svg>