<svg xmlns="http://www.w3.org/2000/svg" width="398" height="228" viewBox="0 0 398 228"><rect width="100%" height="100%" fill="white"/><rect x="16" y="16" width="80" height="32" rx="4" ry="4" fill="#f6f6f6" stroke="#111" stroke-width="1"/><text x="56" y="37" text-anchor="middle" font-family="monospace" font-size="13" fill="#111111">Alice</text><rect x="116" y="16" width="80" height="32" rx="4" ry="4" fill="#f6f6f6" stroke="#111" stroke-width="1"/><text x="156" y="37" text-anchor="middle" font-family="monospace" font-size="13" fill="#111111">Bob</text><line x1="56" y1="48" x2="56" y2="180" stroke="#555" stroke-width="1" stroke-dasharray="6 4"/><line x1="156" y1="48" x2="156" y2="180" stroke="#555" stroke-width="1" stroke-dasharray="6 4"/><line x1="56" y1="96" x2="156" y2="96" stroke="#111" stroke-width="1.5"/><polygon points="156,96 148,91 148,101" fill="#111" stroke="#111" stroke-width="1"/><text x="64" y="72" text-anchor="start" font-family="monospace" font-size="12" fill="#111">send `code</text><text x="64" y="88" text-anchor="start" font-family="monospace" font-size="12" fill="#111">snippet`</text><line x1="156" y1="164" x2="56" y2="164" stroke="#111" stroke-width="1.5" stroke-dasharray="6 4"/><polygon points="56,164 64,159 64,169" fill="#111" stroke="#111" stroke-width="1"/><text x="64" y="156" text-anchor="start" font-family="monospace" font-size="12" fill="#111">received</text><path d="M208,128 H373 L382 137 V156 H208 Z" fill="#fff8c4" stroke="#111" stroke-width="1"/><path d="M373 128 V137 H382" fill="none" stroke="#111" stroke-width="1"/><line x1="156" y1="142" x2="208" y2="142" stroke="#111" stroke-width="1"/><text x="216" y="148" font-family="monospace" font-size="12" fill="#111">use monospace for code</text><rect x="16" y="180" width="80" height="32" rx="4" ry="4" fill="#f6f6f6" stroke="#111" stroke-width="1"/><text x="56" y="201" text-anchor="middle" font-family="monospace" font-size="13" fill="#111111">Alice</text><rect x="116" y="180" width="80" height="32" rx="4" ry="4" fill="#f6f6f6" stroke="#111" stroke-width="1"/><text x="156" y="201" text-anchor="middle" font-family="monospace" font-size="13" fill="#111111">Bob</text></svg>