<svg xmlns="http://www.w3.org/2000/svg" width="820" height="300" viewBox="0 0 820 300"><rect width="100%" height="100%" fill="white"/><text x="24" y="32" font-family="monospace" font-size="12" fill="#475569">SDL state machine (deterministic stub)</text><rect x="40" y="68" width="144" height="40" rx="18" ry="18" fill="#e0e7ff" stroke="#4f46e5" stroke-width="1.5"/><text x="48" y="92" font-family="monospace" font-size="12" fill="#0f172a">state: process Handler</text><rect x="200" y="68" width="144" height="40" rx="18" ry="18" fill="#e0e7ff" stroke="#4f46e5" stroke-width="1.5"/><text x="208" y="92" font-family="monospace" font-size="12" fill="#0f172a">state: Idle</text><rect x="360" y="68" width="144" height="40" rx="18" ry="18" fill="#e0e7ff" stroke="#4f46e5" stroke-width="1.5"/><text x="368" y="92" font-family="monospace" font-size="12" fill="#0f172a">state: receive Request</text><rect x="520" y="68" width="144" height="40" rx="18" ry="18" fill="#e0e7ff" stroke="#4f46e5" stroke-width="1.5"/><text x="528" y="92" font-family="monospace" font-size="12" fill="#0f172a">state: nextstate Processing</text><rect x="40" y="158" width="144" height="40" rx="18" ry="18" fill="#e0e7ff" stroke="#4f46e5" stroke-width="1.5"/><text x="48" y="182" font-family="monospace" font-size="12" fill="#0f172a">state: Processing</text><rect x="200" y="158" width="144" height="40" rx="18" ry="18" fill="#e0e7ff" stroke="#4f46e5" stroke-width="1.5"/><text x="208" y="182" font-family="monospace" font-size="12" fill="#0f172a">state: task &quot;process&quot;</text><rect x="360" y="158" width="144" height="40" rx="18" ry="18" fill="#e0e7ff" stroke="#4f46e5" stroke-width="1.5"/><text x="368" y="182" font-family="monospace" font-size="12" fill="#0f172a">state: send Response</text><rect x="520" y="158" width="144" height="40" rx="18" ry="18" fill="#e0e7ff" stroke="#4f46e5" stroke-width="1.5"/><text x="528" y="182" font-family="monospace" font-size="12" fill="#0f172a">state: nextstate Idle</text><text x="24" y="244" font-family="monospace" font-size="12" font-weight="600" fill="#334155">Transitions</text></svg>