<svg xmlns="http://www.w3.org/2000/svg" width="340" height="496" viewBox="0 0 340 496"><rect width="100%" height="100%" fill="white"/><defs><marker id="sdl-arrow" markerWidth="10" markerHeight="10" refX="9" refY="3" orient="auto"><path d="M0,0 L0,6 L9,3 z" fill="#334155"/></marker></defs><text x="24" y="28" font-family="monospace" font-size="16" font-weight="600" fill="#0f172a">SDL With Transitions</text><text x="24" y="52" font-family="monospace" font-size="12" fill="#475569">SDL diagram</text><line class="sdl-transition" data-sdl-from="Idle" data-sdl-to="Processing" x1="170" y1="124" x2="170" y2="172" stroke="#334155" stroke-width="1.5" marker-end="url(#sdl-arrow)"/><line class="sdl-transition" data-sdl-from="Processing" data-sdl-to="Waiting" x1="170" y1="220" x2="170" y2="268" stroke="#334155" stroke-width="1.5" marker-end="url(#sdl-arrow)"/><path class="sdl-transition" data-sdl-from="Waiting" data-sdl-to="Idle" d="M 170 268 C 50 268, 50 124, 170 124" fill="none" stroke="#334155" stroke-width="1.5" marker-end="url(#sdl-arrow)"/><line class="sdl-transition" data-sdl-from="Waiting" data-sdl-to="Done" x1="170" y1="316" x2="170" y2="367" stroke="#334155" stroke-width="1.5" marker-end="url(#sdl-arrow)"/><g class="sdl-node sdl-state" data-sdl-kind="state" data-sdl-name="Idle"><rect x="86" y="76" width="168" height="48" rx="8" ry="8" fill="#e0e7ff" stroke="#4f46e5" stroke-width="1.5"/><text x="170" y="104" font-family="monospace" font-size="12" font-weight="600" text-anchor="middle" fill="#312e81">Idle</text></g><g class="sdl-node sdl-state" data-sdl-kind="state" data-sdl-name="Processing"><rect x="86" y="172" width="168" height="48" rx="8" ry="8" fill="#e0e7ff" stroke="#4f46e5" stroke-width="1.5"/><text x="170" y="200" font-family="monospace" font-size="12" font-weight="600" text-anchor="middle" fill="#312e81">Processing</text></g><g class="sdl-node sdl-state" data-sdl-kind="state" data-sdl-name="Waiting"><rect x="86" y="268" width="168" height="48" rx="8" ry="8" fill="#e0e7ff" stroke="#4f46e5" stroke-width="1.5"/><text x="170" y="296" font-family="monospace" font-size="12" font-weight="600" text-anchor="middle" fill="#312e81">Waiting</text></g><g class="sdl-node sdl-stop" data-sdl-kind="stop" data-sdl-name="Done"><circle cx="170" cy="382" r="15" fill="none" stroke="#111827" stroke-width="2"/><circle cx="170" cy="382" r="9" fill="#111827"/><text x="170" y="414" font-family="monospace" font-size="12" font-weight="600" text-anchor="middle" fill="#111827">Done</text></g><rect x="132" y="135" width="56" height="15" fill="white"/><text class="sdl-transition-label" x="160" y="148" font-family="monospace" font-size="11" text-anchor="middle" fill="#475569">request</text><rect x="128" y="231" width="64" height="15" fill="white"/><text class="sdl-transition-label" x="160" y="244" font-family="monospace" font-size="11" text-anchor="middle" fill="#475569">response</text><rect x="24" y="183" width="42" height="15" fill="white"/><text class="sdl-transition-label" x="45" y="196" font-family="monospace" font-size="11" text-anchor="middle" fill="#475569">retry</text><rect x="128" y="329" width="64" height="15" fill="white"/><text class="sdl-transition-label" x="160" y="342" font-family="monospace" font-size="11" text-anchor="middle" fill="#475569">complete</text></svg>