<svg xmlns="http://www.w3.org/2000/svg" width="600" height="304" viewBox="0 0 600 304"><rect width="100%" height="100%" fill="white"/><defs><marker id="sdl-arrow" markerWidth="10" markerHeight="10" refX="9" refY="3" orient="auto"><path d="M0,0 L0,6 L9,3 z" fill="#334155"/></marker></defs><text x="24" y="28" font-family="monospace" font-size="16" font-weight="600" fill="#0f172a">SDL With Transitions</text><text x="24" y="52" font-family="monospace" font-size="12" fill="#475569">SDL diagram</text><line class="sdl-transition" data-sdl-from="Idle" data-sdl-to="Processing" x1="254" y1="100" x2="346" y2="100" stroke="#334155" stroke-width="1.5" marker-end="url(#sdl-arrow)"/><line class="sdl-transition" data-sdl-from="Processing" data-sdl-to="Waiting" x1="346" y1="100" x2="254" y2="196" stroke="#334155" stroke-width="1.5" marker-end="url(#sdl-arrow)"/><line class="sdl-transition" data-sdl-from="Waiting" data-sdl-to="Idle" x1="170" y1="172" x2="170" y2="124" stroke="#334155" stroke-width="1.5" marker-end="url(#sdl-arrow)"/><line class="sdl-transition" data-sdl-from="Waiting" data-sdl-to="Done" x1="254" y1="196" x2="415" y2="190" stroke="#334155" stroke-width="1.5" marker-end="url(#sdl-arrow)"/><g class="sdl-node sdl-state" data-sdl-kind="state" data-sdl-name="Idle"><rect x="86" y="76" width="168" height="48" rx="8" ry="8" fill="#e0e7ff" stroke="#4f46e5" stroke-width="1.5"/><text x="170" y="104" font-family="monospace" font-size="12" font-weight="600" text-anchor="middle" fill="#312e81">Idle</text></g><g class="sdl-node sdl-state" data-sdl-kind="state" data-sdl-name="Processing"><rect x="346" y="76" width="168" height="48" rx="8" ry="8" fill="#e0e7ff" stroke="#4f46e5" stroke-width="1.5"/><text x="430" y="104" font-family="monospace" font-size="12" font-weight="600" text-anchor="middle" fill="#312e81">Processing</text></g><g class="sdl-node sdl-state" data-sdl-kind="state" data-sdl-name="Waiting"><rect x="86" y="172" width="168" height="48" rx="8" ry="8" fill="#e0e7ff" stroke="#4f46e5" stroke-width="1.5"/><text x="170" y="200" font-family="monospace" font-size="12" font-weight="600" text-anchor="middle" fill="#312e81">Waiting</text></g><g class="sdl-node sdl-stop" data-sdl-kind="stop" data-sdl-name="Done"><circle cx="430" cy="190" r="15" fill="none" stroke="#111827" stroke-width="2"/><circle cx="430" cy="190" r="9" fill="#111827"/><text x="430" y="222" font-family="monospace" font-size="12" font-weight="600" text-anchor="middle" fill="#111827">Done</text></g><rect x="272" y="97" width="56" height="15" fill="white"/><text class="sdl-transition-label" x="300" y="110" font-family="monospace" font-size="11" text-anchor="middle" fill="#475569">request</text><rect x="261" y="128" width="64" height="15" fill="white"/><text class="sdl-transition-label" x="293" y="141" font-family="monospace" font-size="11" text-anchor="middle" fill="#475569">response</text><rect x="159" y="135" width="42" height="15" fill="white"/><text class="sdl-transition-label" x="180" y="148" font-family="monospace" font-size="11" text-anchor="middle" fill="#475569">retry</text><rect x="303" y="190" width="64" height="15" fill="white"/><text class="sdl-transition-label" x="335" y="203" font-family="monospace" font-size="11" text-anchor="middle" fill="#475569">complete</text></svg>