<svg xmlns="http://www.w3.org/2000/svg" width="600" height="304" viewBox="0 0 600 304"><rect width="100%" height="100%" fill="white"/><defs><marker id="sdl-arrow" markerWidth="10" markerHeight="10" refX="8" refY="3" orient="auto"><path d="M0,0 L0,6 L9,3 z" fill="#334155"/></marker></defs><text x="24" y="28" font-family="monospace" font-size="16" font-weight="600" fill="#0f172a">SDL With Transitions</text><text x="24" y="52" font-family="monospace" font-size="12" fill="#475569">SDL diagram</text><line class="sdl-transition" data-sdl-from="Idle" data-sdl-to="Processing" x1="254" y1="100" x2="346" y2="100" stroke="#334155" stroke-width="1.5" marker-end="url(#sdl-arrow)"/><line class="sdl-transition" data-sdl-from="Processing" data-sdl-to="Waiting" x1="346" y1="100" x2="254" y2="196" stroke="#334155" stroke-width="1.5" marker-end="url(#sdl-arrow)"/><line class="sdl-transition" data-sdl-from="Waiting" data-sdl-to="Idle" x1="170" y1="172" x2="170" y2="124" stroke="#334155" stroke-width="1.5" marker-end="url(#sdl-arrow)"/><line class="sdl-transition" data-sdl-from="Waiting" data-sdl-to="Done" x1="254" y1="196" x2="390" y2="200" stroke="#334155" stroke-width="1.5" marker-end="url(#sdl-arrow)"/><g class="sdl-node sdl-state" data-sdl-kind="state" data-sdl-name="Idle"><rect x="86" y="76" width="168" height="48" rx="8" ry="8" fill="#e0e7ff" stroke="#4f46e5" stroke-width="1.5"/><text x="170" y="104" font-family="monospace" font-size="12" font-weight="600" text-anchor="middle" fill="#312e81">Idle</text></g><g class="sdl-node sdl-state" data-sdl-kind="state" data-sdl-name="Processing"><rect x="346" y="76" width="168" height="48" rx="8" ry="8" fill="#e0e7ff" stroke="#4f46e5" stroke-width="1.5"/><text x="430" y="104" font-family="monospace" font-size="12" font-weight="600" text-anchor="middle" fill="#312e81">Processing</text></g><g class="sdl-node sdl-state" data-sdl-kind="state" data-sdl-name="Waiting"><rect x="86" y="172" width="168" height="48" rx="8" ry="8" fill="#e0e7ff" stroke="#4f46e5" stroke-width="1.5"/><text x="170" y="200" font-family="monospace" font-size="12" font-weight="600" text-anchor="middle" fill="#312e81">Waiting</text></g><g class="sdl-node sdl-stop" data-sdl-kind="stop" data-sdl-name="Done"><circle cx="430" cy="190" r="15" fill="none" stroke="#111827" stroke-width="2"/><circle cx="430" cy="190" r="9" fill="#111827"/><text x="430" y="222" font-family="monospace" font-size="12" font-weight="600" text-anchor="middle" fill="#111827">Done</text></g><rect x="273" y="79" width="54" height="15" fill="white"/><text class="sdl-transition-label" x="300" y="92" font-family="monospace" font-size="11" text-anchor="middle" fill="#475569">request</text><rect x="269" y="127" width="62" height="15" fill="white"/><text class="sdl-transition-label" x="300" y="140" font-family="monospace" font-size="11" text-anchor="middle" fill="#475569">response</text><rect x="132" y="127" width="40" height="15" fill="white"/><text class="sdl-transition-label" x="152" y="140" font-family="monospace" font-size="11" text-anchor="middle" fill="#475569">retry</text><rect x="291" y="177" width="62" height="15" fill="white"/><text class="sdl-transition-label" x="322" y="190" font-family="monospace" font-size="11" text-anchor="middle" fill="#475569">complete</text></svg>