<svg xmlns="http://www.w3.org/2000/svg" width="760" height="278" viewBox="0 0 760 278"><rect width="100%" height="100%" fill="white"/><text x="24" y="28" font-family="monospace" font-size="18" font-weight="600">JSON</text><rect x="24" y="44" width="712" height="18" rx="3" ry="3" fill="#f1f5f9" stroke="#94a3b8" stroke-width="1"/><text x="30" y="58" font-family="monospace" font-size="12" fill="#0f172a">{...}</text><rect x="42" y="66" width="694" height="18" rx="3" ry="3" fill="#f1f5f9" stroke="#94a3b8" stroke-width="1"/><text x="48" y="80" font-family="monospace" font-size="12" fill="#0f172a">settings: {...}</text><rect x="60" y="88" width="676" height="18" rx="3" ry="3" fill="#f1f5f9" stroke="#94a3b8" stroke-width="1"/><text x="66" y="102" font-family="monospace" font-size="12" fill="#0f172a">locale: &quot;en-US&quot;</text><rect x="60" y="110" width="676" height="18" rx="3" ry="3" fill="#f1f5f9" stroke="#94a3b8" stroke-width="1"/><text x="66" y="124" font-family="monospace" font-size="12" fill="#0f172a">theme: &quot;dark&quot;</text><rect x="42" y="132" width="694" height="18" rx="3" ry="3" fill="#f1f5f9" stroke="#94a3b8" stroke-width="1"/><text x="48" y="146" font-family="monospace" font-size="12" fill="#0f172a">user: {...}</text><rect x="60" y="154" width="676" height="18" rx="3" ry="3" fill="#f1f5f9" stroke="#94a3b8" stroke-width="1"/><text x="66" y="168" font-family="monospace" font-size="12" fill="#0f172a">name: &quot;Bob&quot;</text><rect x="60" y="176" width="676" height="18" rx="3" ry="3" fill="#f1f5f9" stroke="#94a3b8" stroke-width="1"/><text x="66" y="190" font-family="monospace" font-size="12" fill="#0f172a">roles: [...]</text><rect x="78" y="198" width="658" height="18" rx="3" ry="3" fill="#f1f5f9" stroke="#94a3b8" stroke-width="1"/><text x="84" y="212" font-family="monospace" font-size="12" fill="#0f172a">[0]: &quot;admin&quot;</text><rect x="78" y="220" width="658" height="18" rx="3" ry="3" fill="#f1f5f9" stroke="#94a3b8" stroke-width="1"/><text x="84" y="234" font-family="monospace" font-size="12" fill="#0f172a">[1]: &quot;editor&quot;</text></svg>