<svg xmlns="http://www.w3.org/2000/svg" width="760" height="278" viewBox="0 0 760 278" data-projection="json" data-json-node-count="9" data-json-max-depth="3"><rect width="100%" height="100%" fill="white"/><defs><marker id="arrow-open" viewBox="0 0 10 10" refX="9" refY="5" markerWidth="10" markerHeight="10" orient="auto-start-reverse"><path d="M0,0 L10,5 L0,10" fill="none" stroke="#475569" stroke-width="1.5"/></marker><marker id="arrow-triangle" viewBox="0 0 12 12" refX="11" refY="6" markerWidth="12" markerHeight="12" orient="auto-start-reverse"><polygon points="0,0 12,6 0,12" fill="white" stroke="#475569" stroke-width="1.5" fill-rule="nonzero"/></marker><marker id="arrow-diamond-filled" viewBox="0 0 14 10" refX="13" refY="5" markerWidth="14" markerHeight="10" orient="auto-start-reverse"><path d="M0,5 L7,0 L14,5 L7,10 z" fill="#475569" stroke="#475569" stroke-width="1"/></marker><marker id="arrow-diamond-open" viewBox="0 0 14 10" refX="13" refY="5" markerWidth="14" markerHeight="10" orient="auto-start-reverse"><path d="M0,5 L7,0 L14,5 L7,10 z" fill="white" stroke="#475569" stroke-width="1"/></marker></defs><text x="24" y="28" font-family="monospace" font-size="18" font-weight="600">JSON</text><g class="data-tree-node json-node json-depth-0" data-projection="json" data-json-index="0" data-json-depth="0" data-json-label="{...}"><rect x="24" y="44" width="712" height="18" rx="3" ry="3" fill="#f1f5f9" stroke="#94a3b8" stroke-width="1"/><text x="30" y="58" font-family="monospace" font-size="12" fill="#0f172a">{...}</text></g><line x1="33" y1="59" x2="33" y2="75" stroke="#94a3b8" stroke-width="1"/><line x1="33" y1="75" x2="42" y2="75" stroke="#94a3b8" stroke-width="1"/><g class="data-tree-node json-node json-depth-1" data-projection="json" data-json-index="1" data-json-depth="1" data-json-label="settings: {...}"><rect x="42" y="66" width="694" height="18" rx="3" ry="3" fill="#f1f5f9" stroke="#94a3b8" stroke-width="1"/><text x="48" y="80" font-family="monospace" font-size="12" fill="#0f172a">settings: {...}</text></g><line x1="51" y1="81" x2="51" y2="97" stroke="#94a3b8" stroke-width="1"/><line x1="51" y1="97" x2="60" y2="97" stroke="#94a3b8" stroke-width="1"/><g class="data-tree-node json-node json-depth-2" data-projection="json" data-json-index="2" data-json-depth="2" data-json-label="locale: &quot;en-US&quot;"><rect x="60" y="88" width="676" height="18" rx="3" ry="3" fill="#f1f5f9" stroke="#94a3b8" stroke-width="1"/><text x="66" y="102" font-family="monospace" font-size="12" fill="#0f172a">locale: &quot;en-US&quot;</text></g><line x1="51" y1="81" x2="51" y2="119" stroke="#94a3b8" stroke-width="1"/><line x1="51" y1="119" x2="60" y2="119" stroke="#94a3b8" stroke-width="1"/><g class="data-tree-node json-node json-depth-2" data-projection="json" data-json-index="3" data-json-depth="2" data-json-label="theme: &quot;dark&quot;"><rect x="60" y="110" width="676" height="18" rx="3" ry="3" fill="#f1f5f9" stroke="#94a3b8" stroke-width="1"/><text x="66" y="124" font-family="monospace" font-size="12" fill="#0f172a">theme: &quot;dark&quot;</text></g><line x1="33" y1="59" x2="33" y2="141" stroke="#94a3b8" stroke-width="1"/><line x1="33" y1="141" x2="42" y2="141" stroke="#94a3b8" stroke-width="1"/><g class="data-tree-node json-node json-depth-1" data-projection="json" data-json-index="4" data-json-depth="1" data-json-label="user: {...}"><rect x="42" y="132" width="694" height="18" rx="3" ry="3" fill="#f1f5f9" stroke="#94a3b8" stroke-width="1"/><text x="48" y="146" font-family="monospace" font-size="12" fill="#0f172a">user: {...}</text></g><line x1="51" y1="147" x2="51" y2="163" stroke="#94a3b8" stroke-width="1"/><line x1="51" y1="163" x2="60" y2="163" stroke="#94a3b8" stroke-width="1"/><g class="data-tree-node json-node json-depth-2" data-projection="json" data-json-index="5" data-json-depth="2" data-json-label="name: &quot;Bob&quot;"><rect x="60" y="154" width="676" height="18" rx="3" ry="3" fill="#f1f5f9" stroke="#94a3b8" stroke-width="1"/><text x="66" y="168" font-family="monospace" font-size="12" fill="#0f172a">name: &quot;Bob&quot;</text></g><line x1="51" y1="147" x2="51" y2="185" stroke="#94a3b8" stroke-width="1"/><line x1="51" y1="185" x2="60" y2="185" stroke="#94a3b8" stroke-width="1"/><g class="data-tree-node json-node json-depth-2" data-projection="json" data-json-index="6" data-json-depth="2" data-json-label="roles: [...]"><rect x="60" y="176" width="676" height="18" rx="3" ry="3" fill="#f1f5f9" stroke="#94a3b8" stroke-width="1"/><text x="66" y="190" font-family="monospace" font-size="12" fill="#0f172a">roles: [...]</text></g><line x1="69" y1="191" x2="69" y2="207" stroke="#94a3b8" stroke-width="1"/><line x1="69" y1="207" x2="78" y2="207" stroke="#94a3b8" stroke-width="1"/><g class="data-tree-node json-node json-depth-3" data-projection="json" data-json-index="7" data-json-depth="3" data-json-label="[0]: &quot;admin&quot;"><rect x="78" y="198" width="658" height="18" rx="3" ry="3" fill="#f1f5f9" stroke="#94a3b8" stroke-width="1"/><text x="84" y="212" font-family="monospace" font-size="12" fill="#0f172a">[0]: &quot;admin&quot;</text></g><line x1="69" y1="191" x2="69" y2="229" stroke="#94a3b8" stroke-width="1"/><line x1="69" y1="229" x2="78" y2="229" stroke="#94a3b8" stroke-width="1"/><g class="data-tree-node json-node json-depth-3" data-projection="json" data-json-index="8" data-json-depth="3" data-json-label="[1]: &quot;editor&quot;"><rect x="78" y="220" width="658" height="18" rx="3" ry="3" fill="#f1f5f9" stroke="#94a3b8" stroke-width="1"/><text x="84" y="234" font-family="monospace" font-size="12" fill="#0f172a">[1]: &quot;editor&quot;</text></g></svg>