<svg xmlns="http://www.w3.org/2000/svg" width="760" height="1138" viewBox="0 0 760 1138" data-projection="json" data-json-node-count="44" data-json-max-depth="6"><rect width="100%" height="100%" fill="white"/><defs><marker id="arrow-open" viewBox="0 0 10 10" refX="9" refY="5" markerWidth="10" markerHeight="10" markerUnits="userSpaceOnUse" orient="auto-start-reverse"><path d="M0,0 L10,5 L0,10" fill="none" stroke="#475569" stroke-width="1.5"/></marker><marker id="arrow-triangle" viewBox="0 0 12 12" refX="11" refY="6" markerWidth="12" markerHeight="12" markerUnits="userSpaceOnUse" orient="auto-start-reverse"><polygon points="0,0 12,6 0,12" fill="#ffffff" stroke="#475569" stroke-width="1.5" fill-rule="nonzero"/></marker><marker id="arrow-diamond-filled" viewBox="0 0 14 10" refX="13" refY="5" markerWidth="14" markerHeight="10" markerUnits="userSpaceOnUse" orient="auto-start-reverse"><path d="M0,5 L7,0 L14,5 L7,10 z" fill="#475569" stroke="#475569" stroke-width="1"/></marker><marker id="arrow-diamond-open" viewBox="0 0 14 10" refX="13" refY="5" markerWidth="14" markerHeight="10" markerUnits="userSpaceOnUse" orient="auto-start-reverse"><path d="M0,5 L7,0 L14,5 L7,10 z" fill="#ffffff" stroke="#475569" stroke-width="1"/></marker><marker id="arrow-double-open" viewBox="0 0 16 12" refX="15" refY="6" markerWidth="16" markerHeight="12" markerUnits="userSpaceOnUse" orient="auto-start-reverse"><path d="M0,1 L8,6 L0,11 M7,1 L15,6 L7,11" fill="none" stroke="#475569" stroke-width="1.5" stroke-linejoin="round"/></marker><marker id="arrow-circle-open" viewBox="0 0 12 12" refX="11" refY="6" markerWidth="12" markerHeight="12" markerUnits="userSpaceOnUse" orient="auto-start-reverse"><circle cx="6" cy="6" r="4" fill="#ffffff" stroke="#475569" stroke-width="1.5"/></marker><marker id="arrow-circle-filled" viewBox="0 0 12 12" refX="11" refY="6" markerWidth="12" markerHeight="12" markerUnits="userSpaceOnUse" orient="auto-start-reverse"><circle cx="6" cy="6" r="4" fill="#475569" stroke="#475569" stroke-width="1.5"/></marker><marker id="arrow-triangle-filled" viewBox="0 0 12 12" refX="11" refY="6" markerWidth="12" markerHeight="12" markerUnits="userSpaceOnUse" orient="auto-start-reverse"><polygon points="0,0 12,6 0,12" fill="#475569" stroke="#475569" stroke-width="1.5"/></marker><marker id="arrow-box-filled" viewBox="0 0 12 12" refX="11" refY="6" markerWidth="12" markerHeight="12" markerUnits="userSpaceOnUse" orient="auto-start-reverse"><rect x="2" y="2" width="8" height="8" fill="#475569" stroke="#475569" stroke-width="1.5"/></marker><marker id="arrow-plus" viewBox="0 0 12 12" refX="11" refY="6" markerWidth="12" markerHeight="12" markerUnits="userSpaceOnUse" orient="auto-start-reverse"><path d="M6,1 L6,11 M1,6 L11,6" fill="none" stroke="#475569" stroke-width="1.8" stroke-linecap="round"/></marker><marker id="arrow-slash" viewBox="0 0 12 12" refX="10" refY="6" markerWidth="12" markerHeight="12" markerUnits="userSpaceOnUse" orient="auto-start-reverse"><path d="M3,2 L9,10" fill="none" stroke="#475569" stroke-width="1.8" stroke-linecap="round"/></marker></defs><text x="24" y="28" font-family="monospace" font-size="18" font-weight="600">JSON</text><g class="data-tree-node json-node json-depth-0" data-projection="json" data-json-index="0" data-json-depth="0" data-json-path="/" data-json-highlight="false" data-json-label="{...}"><rect x="24" y="40" width="712" height="24" fill="#f1f5f9" stroke="none"/><line class="data-table-separator" x1="260" y1="40" x2="260" y2="64" stroke="#94a3b8" stroke-width="1" opacity="0.85"/><text x="268" y="60" font-family="monospace" font-size="12" fill="#0f172a">{...}</text></g><g class="data-tree-node json-node json-depth-1" data-projection="json" data-json-index="1" data-json-depth="1" data-json-path="/api_response" data-json-highlight="false" data-json-label="api_response: {...}"><rect x="24" y="64" width="712" height="24" fill="#f1f5f9" stroke="none"/><line x1="24" y1="64" x2="736" y2="64" stroke="#94a3b8" stroke-width="1" opacity="0.75"/><line class="data-table-separator" x1="260" y1="64" x2="260" y2="88" stroke="#94a3b8" stroke-width="1" opacity="0.85"/><line x1="36" y1="64" x2="36" y2="80" stroke="#94a3b8" stroke-width="1"/><line x1="36" y1="80" x2="46" y2="80" stroke="#94a3b8" stroke-width="1"/><text x="50" y="84" font-family="monospace" font-size="12" fill="#0f172a">api_response</text><text x="268" y="84" font-family="monospace" font-size="12" fill="#0f172a">{...}</text></g><g class="data-tree-node json-node json-depth-2" data-projection="json" data-json-index="2" data-json-depth="2" data-json-path="/api_response/data" data-json-highlight="false" data-json-label="data: [...]"><rect x="24" y="88" width="712" height="24" fill="#f1f5f9" stroke="none"/><line x1="24" y1="88" x2="736" y2="88" stroke="#94a3b8" stroke-width="1" opacity="0.75"/><line class="data-table-separator" x1="260" y1="88" x2="260" y2="112" stroke="#94a3b8" stroke-width="1" opacity="0.85"/><line x1="54" y1="80" x2="54" y2="104" stroke="#94a3b8" stroke-width="1"/><line x1="54" y1="104" x2="64" y2="104" stroke="#94a3b8" stroke-width="1"/><text x="68" y="108" font-family="monospace" font-size="12" fill="#0f172a">data</text><text x="268" y="108" font-family="monospace" font-size="12" fill="#0f172a">[...]</text></g><g class="data-tree-node json-node json-depth-3" data-projection="json" data-json-index="3" data-json-depth="3" data-json-path="/api_response/data/0" data-json-highlight="false" data-json-label="[0]: {...}"><rect x="24" y="112" width="712" height="24" fill="#f1f5f9" stroke="none"/><line x1="24" y1="112" x2="736" y2="112" stroke="#94a3b8" stroke-width="1" opacity="0.75"/><line class="data-table-separator" x1="260" y1="112" x2="260" y2="136" stroke="#94a3b8" stroke-width="1" opacity="0.85"/><line x1="72" y1="104" x2="72" y2="128" stroke="#94a3b8" stroke-width="1"/><line x1="72" y1="128" x2="82" y2="128" stroke="#94a3b8" stroke-width="1"/><text x="86" y="132" font-family="monospace" font-size="12" fill="#0f172a">[0]</text><text x="268" y="132" font-family="monospace" font-size="12" fill="#0f172a">{...}</text></g><g class="data-tree-node json-node json-depth-4" data-projection="json" data-json-index="4" data-json-depth="4" data-json-path="/api_response/data/0/customer" data-json-highlight="false" data-json-label="customer: {...}"><rect x="24" y="136" width="712" height="24" fill="#f1f5f9" stroke="none"/><line x1="24" y1="136" x2="736" y2="136" stroke="#94a3b8" stroke-width="1" opacity="0.75"/><line class="data-table-separator" x1="260" y1="136" x2="260" y2="160" stroke="#94a3b8" stroke-width="1" opacity="0.85"/><line x1="90" y1="128" x2="90" y2="152" stroke="#94a3b8" stroke-width="1"/><line x1="90" y1="152" x2="100" y2="152" stroke="#94a3b8" stroke-width="1"/><text x="104" y="156" font-family="monospace" font-size="12" fill="#0f172a">customer</text><text x="268" y="156" font-family="monospace" font-size="12" fill="#0f172a">{...}</text></g><g class="data-tree-node json-node json-depth-5" data-projection="json" data-json-index="5" data-json-depth="5" data-json-path="/api_response/data/0/customer/email" data-json-highlight="false" data-json-label="email: &quot;alice@example.com&quot;"><rect x="24" y="160" width="712" height="24" fill="#f1f5f9" stroke="none"/><line x1="24" y1="160" x2="736" y2="160" stroke="#94a3b8" stroke-width="1" opacity="0.75"/><line class="data-table-separator" x1="260" y1="160" x2="260" y2="184" stroke="#94a3b8" stroke-width="1" opacity="0.85"/><line x1="108" y1="152" x2="108" y2="176" stroke="#94a3b8" stroke-width="1"/><line x1="108" y1="176" x2="118" y2="176" stroke="#94a3b8" stroke-width="1"/><text x="122" y="180" font-family="monospace" font-size="12" fill="#0f172a">email</text><text x="268" y="180" font-family="monospace" font-size="12" fill="#0f172a">&quot;alice@example.com&quot;</text></g><g class="data-tree-node json-node json-depth-5" data-projection="json" data-json-index="6" data-json-depth="5" data-json-path="/api_response/data/0/customer/id" data-json-highlight="false" data-json-label="id: &quot;usr-42&quot;"><rect x="24" y="184" width="712" height="24" fill="#f1f5f9" stroke="none"/><line x1="24" y1="184" x2="736" y2="184" stroke="#94a3b8" stroke-width="1" opacity="0.75"/><line class="data-table-separator" x1="260" y1="184" x2="260" y2="208" stroke="#94a3b8" stroke-width="1" opacity="0.85"/><line x1="108" y1="152" x2="108" y2="200" stroke="#94a3b8" stroke-width="1"/><line x1="108" y1="200" x2="118" y2="200" stroke="#94a3b8" stroke-width="1"/><text x="122" y="204" font-family="monospace" font-size="12" fill="#0f172a">id</text><text x="268" y="204" font-family="monospace" font-size="12" fill="#0f172a">&quot;usr-42&quot;</text></g><g class="data-tree-node json-node json-depth-5" data-projection="json" data-json-index="7" data-json-depth="5" data-json-path="/api_response/data/0/customer/name" data-json-highlight="false" data-json-label="name: &quot;Alice&quot;"><rect x="24" y="208" width="712" height="24" fill="#f1f5f9" stroke="none"/><line x1="24" y1="208" x2="736" y2="208" stroke="#94a3b8" stroke-width="1" opacity="0.75"/><line class="data-table-separator" x1="260" y1="208" x2="260" y2="232" stroke="#94a3b8" stroke-width="1" opacity="0.85"/><line x1="108" y1="152" x2="108" y2="224" stroke="#94a3b8" stroke-width="1"/><line x1="108" y1="224" x2="118" y2="224" stroke="#94a3b8" stroke-width="1"/><text x="122" y="228" font-family="monospace" font-size="12" fill="#0f172a">name</text><text x="268" y="228" font-family="monospace" font-size="12" fill="#0f172a">&quot;Alice&quot;</text></g><g class="data-tree-node json-node json-depth-4" data-projection="json" data-json-index="8" data-json-depth="4" data-json-path="/api_response/data/0/id" data-json-highlight="false" data-json-label="id: &quot;ord-001&quot;"><rect x="24" y="232" width="712" height="24" fill="#f1f5f9" stroke="none"/><line x1="24" y1="232" x2="736" y2="232" stroke="#94a3b8" stroke-width="1" opacity="0.75"/><line class="data-table-separator" x1="260" y1="232" x2="260" y2="256" stroke="#94a3b8" stroke-width="1" opacity="0.85"/><line x1="90" y1="128" x2="90" y2="248" stroke="#94a3b8" stroke-width="1"/><line x1="90" y1="248" x2="100" y2="248" stroke="#94a3b8" stroke-width="1"/><text x="104" y="252" font-family="monospace" font-size="12" fill="#0f172a">id</text><text x="268" y="252" font-family="monospace" font-size="12" fill="#0f172a">&quot;ord-001&quot;</text></g><g class="data-tree-node json-node json-depth-4" data-projection="json" data-json-index="9" data-json-depth="4" data-json-path="/api_response/data/0/items" data-json-highlight="false" data-json-label="items: [...]"><rect x="24" y="256" width="712" height="24" fill="#f1f5f9" stroke="none"/><line x1="24" y1="256" x2="736" y2="256" stroke="#94a3b8" stroke-width="1" opacity="0.75"/><line class="data-table-separator" x1="260" y1="256" x2="260" y2="280" stroke="#94a3b8" stroke-width="1" opacity="0.85"/><line x1="90" y1="128" x2="90" y2="272" stroke="#94a3b8" stroke-width="1"/><line x1="90" y1="272" x2="100" y2="272" stroke="#94a3b8" stroke-width="1"/><text x="104" y="276" font-family="monospace" font-size="12" fill="#0f172a">items</text><text x="268" y="276" font-family="monospace" font-size="12" fill="#0f172a">[...]</text></g><g class="data-tree-node json-node json-depth-5" data-projection="json" data-json-index="10" data-json-depth="5" data-json-path="/api_response/data/0/items/0" data-json-highlight="false" data-json-label="[0]: {...}"><rect x="24" y="280" width="712" height="24" fill="#f1f5f9" stroke="none"/><line x1="24" y1="280" x2="736" y2="280" stroke="#94a3b8" stroke-width="1" opacity="0.75"/><line class="data-table-separator" x1="260" y1="280" x2="260" y2="304" stroke="#94a3b8" stroke-width="1" opacity="0.85"/><line x1="108" y1="272" x2="108" y2="296" stroke="#94a3b8" stroke-width="1"/><line x1="108" y1="296" x2="118" y2="296" stroke="#94a3b8" stroke-width="1"/><text x="122" y="300" font-family="monospace" font-size="12" fill="#0f172a">[0]</text><text x="268" y="300" font-family="monospace" font-size="12" fill="#0f172a">{...}</text></g><g class="data-tree-node json-node json-depth-6" data-projection="json" data-json-index="11" data-json-depth="6" data-json-path="/api_response/data/0/items/0/price" data-json-highlight="false" data-json-label="price: 29.99"><rect x="24" y="304" width="712" height="24" fill="#f1f5f9" stroke="none"/><line x1="24" y1="304" x2="736" y2="304" stroke="#94a3b8" stroke-width="1" opacity="0.75"/><line class="data-table-separator" x1="260" y1="304" x2="260" y2="328" stroke="#94a3b8" stroke-width="1" opacity="0.85"/><line x1="126" y1="296" x2="126" y2="320" stroke="#94a3b8" stroke-width="1"/><line x1="126" y1="320" x2="136" y2="320" stroke="#94a3b8" stroke-width="1"/><text x="140" y="324" font-family="monospace" font-size="12" fill="#0f172a">price</text><text x="268" y="324" font-family="monospace" font-size="12" fill="#0f172a">29.99</text></g><g class="data-tree-node json-node json-depth-6" data-projection="json" data-json-index="12" data-json-depth="6" data-json-path="/api_response/data/0/items/0/qty" data-json-highlight="false" data-json-label="qty: 2"><rect x="24" y="328" width="712" height="24" fill="#f1f5f9" stroke="none"/><line x1="24" y1="328" x2="736" y2="328" stroke="#94a3b8" stroke-width="1" opacity="0.75"/><line class="data-table-separator" x1="260" y1="328" x2="260" y2="352" stroke="#94a3b8" stroke-width="1" opacity="0.85"/><line x1="126" y1="296" x2="126" y2="344" stroke="#94a3b8" stroke-width="1"/><line x1="126" y1="344" x2="136" y2="344" stroke="#94a3b8" stroke-width="1"/><text x="140" y="348" font-family="monospace" font-size="12" fill="#0f172a">qty</text><text x="268" y="348" font-family="monospace" font-size="12" fill="#0f172a">2</text></g><g class="data-tree-node json-node json-depth-6" data-projection="json" data-json-index="13" data-json-depth="6" data-json-path="/api_response/data/0/items/0/sku" data-json-highlight="false" data-json-label="sku: &quot;A100&quot;"><rect x="24" y="352" width="712" height="24" fill="#f1f5f9" stroke="none"/><line x1="24" y1="352" x2="736" y2="352" stroke="#94a3b8" stroke-width="1" opacity="0.75"/><line class="data-table-separator" x1="260" y1="352" x2="260" y2="376" stroke="#94a3b8" stroke-width="1" opacity="0.85"/><line x1="126" y1="296" x2="126" y2="368" stroke="#94a3b8" stroke-width="1"/><line x1="126" y1="368" x2="136" y2="368" stroke="#94a3b8" stroke-width="1"/><text x="140" y="372" font-family="monospace" font-size="12" fill="#0f172a">sku</text><text x="268" y="372" font-family="monospace" font-size="12" fill="#0f172a">&quot;A100&quot;</text></g><g class="data-tree-node json-node json-depth-5" data-projection="json" data-json-index="14" data-json-depth="5" data-json-path="/api_response/data/0/items/1" data-json-highlight="false" data-json-label="[1]: {...}"><rect x="24" y="376" width="712" height="24" fill="#f1f5f9" stroke="none"/><line x1="24" y1="376" x2="736" y2="376" stroke="#94a3b8" stroke-width="1" opacity="0.75"/><line class="data-table-separator" x1="260" y1="376" x2="260" y2="400" stroke="#94a3b8" stroke-width="1" opacity="0.85"/><line x1="108" y1="272" x2="108" y2="392" stroke="#94a3b8" stroke-width="1"/><line x1="108" y1="392" x2="118" y2="392" stroke="#94a3b8" stroke-width="1"/><text x="122" y="396" font-family="monospace" font-size="12" fill="#0f172a">[1]</text><text x="268" y="396" font-family="monospace" font-size="12" fill="#0f172a">{...}</text></g><g class="data-tree-node json-node json-depth-6" data-projection="json" data-json-index="15" data-json-depth="6" data-json-path="/api_response/data/0/items/1/price" data-json-highlight="false" data-json-label="price: 49.99"><rect x="24" y="400" width="712" height="24" fill="#f1f5f9" stroke="none"/><line x1="24" y1="400" x2="736" y2="400" stroke="#94a3b8" stroke-width="1" opacity="0.75"/><line class="data-table-separator" x1="260" y1="400" x2="260" y2="424" stroke="#94a3b8" stroke-width="1" opacity="0.85"/><line x1="126" y1="392" x2="126" y2="416" stroke="#94a3b8" stroke-width="1"/><line x1="126" y1="416" x2="136" y2="416" stroke="#94a3b8" stroke-width="1"/><text x="140" y="420" font-family="monospace" font-size="12" fill="#0f172a">price</text><text x="268" y="420" font-family="monospace" font-size="12" fill="#0f172a">49.99</text></g><g class="data-tree-node json-node json-depth-6" data-projection="json" data-json-index="16" data-json-depth="6" data-json-path="/api_response/data/0/items/1/qty" data-json-highlight="false" data-json-label="qty: 1"><rect x="24" y="424" width="712" height="24" fill="#f1f5f9" stroke="none"/><line x1="24" y1="424" x2="736" y2="424" stroke="#94a3b8" stroke-width="1" opacity="0.75"/><line class="data-table-separator" x1="260" y1="424" x2="260" y2="448" stroke="#94a3b8" stroke-width="1" opacity="0.85"/><line x1="126" y1="392" x2="126" y2="440" stroke="#94a3b8" stroke-width="1"/><line x1="126" y1="440" x2="136" y2="440" stroke="#94a3b8" stroke-width="1"/><text x="140" y="444" font-family="monospace" font-size="12" fill="#0f172a">qty</text><text x="268" y="444" font-family="monospace" font-size="12" fill="#0f172a">1</text></g><g class="data-tree-node json-node json-depth-6" data-projection="json" data-json-index="17" data-json-depth="6" data-json-path="/api_response/data/0/items/1/sku" data-json-highlight="false" data-json-label="sku: &quot;B200&quot;"><rect x="24" y="448" width="712" height="24" fill="#f1f5f9" stroke="none"/><line x1="24" y1="448" x2="736" y2="448" stroke="#94a3b8" stroke-width="1" opacity="0.75"/><line class="data-table-separator" x1="260" y1="448" x2="260" y2="472" stroke="#94a3b8" stroke-width="1" opacity="0.85"/><line x1="126" y1="392" x2="126" y2="464" stroke="#94a3b8" stroke-width="1"/><line x1="126" y1="464" x2="136" y2="464" stroke="#94a3b8" stroke-width="1"/><text x="140" y="468" font-family="monospace" font-size="12" fill="#0f172a">sku</text><text x="268" y="468" font-family="monospace" font-size="12" fill="#0f172a">&quot;B200&quot;</text></g><g class="data-tree-node json-node json-depth-4" data-projection="json" data-json-index="18" data-json-depth="4" data-json-path="/api_response/data/0/shipping" data-json-highlight="false" data-json-label="shipping: {...}"><rect x="24" y="472" width="712" height="24" fill="#f1f5f9" stroke="none"/><line x1="24" y1="472" x2="736" y2="472" stroke="#94a3b8" stroke-width="1" opacity="0.75"/><line class="data-table-separator" x1="260" y1="472" x2="260" y2="496" stroke="#94a3b8" stroke-width="1" opacity="0.85"/><line x1="90" y1="128" x2="90" y2="488" stroke="#94a3b8" stroke-width="1"/><line x1="90" y1="488" x2="100" y2="488" stroke="#94a3b8" stroke-width="1"/><text x="104" y="492" font-family="monospace" font-size="12" fill="#0f172a">shipping</text><text x="268" y="492" font-family="monospace" font-size="12" fill="#0f172a">{...}</text></g><g class="data-tree-node json-node json-depth-5" data-projection="json" data-json-index="19" data-json-depth="5" data-json-path="/api_response/data/0/shipping/carrier" data-json-highlight="false" data-json-label="carrier: &quot;FedEx&quot;"><rect x="24" y="496" width="712" height="24" fill="#f1f5f9" stroke="none"/><line x1="24" y1="496" x2="736" y2="496" stroke="#94a3b8" stroke-width="1" opacity="0.75"/><line class="data-table-separator" x1="260" y1="496" x2="260" y2="520" stroke="#94a3b8" stroke-width="1" opacity="0.85"/><line x1="108" y1="488" x2="108" y2="512" stroke="#94a3b8" stroke-width="1"/><line x1="108" y1="512" x2="118" y2="512" stroke="#94a3b8" stroke-width="1"/><text x="122" y="516" font-family="monospace" font-size="12" fill="#0f172a">carrier</text><text x="268" y="516" font-family="monospace" font-size="12" fill="#0f172a">&quot;FedEx&quot;</text></g><g class="data-tree-node json-node json-depth-5" data-projection="json" data-json-index="20" data-json-depth="5" data-json-path="/api_response/data/0/shipping/estimated" data-json-highlight="false" data-json-label="estimated: &quot;2026-05-22&quot;"><rect x="24" y="520" width="712" height="24" fill="#f1f5f9" stroke="none"/><line x1="24" y1="520" x2="736" y2="520" stroke="#94a3b8" stroke-width="1" opacity="0.75"/><line class="data-table-separator" x1="260" y1="520" x2="260" y2="544" stroke="#94a3b8" stroke-width="1" opacity="0.85"/><line x1="108" y1="488" x2="108" y2="536" stroke="#94a3b8" stroke-width="1"/><line x1="108" y1="536" x2="118" y2="536" stroke="#94a3b8" stroke-width="1"/><text x="122" y="540" font-family="monospace" font-size="12" fill="#0f172a">estimated</text><text x="268" y="540" font-family="monospace" font-size="12" fill="#0f172a">&quot;2026-05-22&quot;</text></g><g class="data-tree-node json-node json-depth-5" data-projection="json" data-json-index="21" data-json-depth="5" data-json-path="/api_response/data/0/shipping/tracking" data-json-highlight="false" data-json-label="tracking: &quot;123456789&quot;"><rect x="24" y="544" width="712" height="24" fill="#f1f5f9" stroke="none"/><line x1="24" y1="544" x2="736" y2="544" stroke="#94a3b8" stroke-width="1" opacity="0.75"/><line class="data-table-separator" x1="260" y1="544" x2="260" y2="568" stroke="#94a3b8" stroke-width="1" opacity="0.85"/><line x1="108" y1="488" x2="108" y2="560" stroke="#94a3b8" stroke-width="1"/><line x1="108" y1="560" x2="118" y2="560" stroke="#94a3b8" stroke-width="1"/><text x="122" y="564" font-family="monospace" font-size="12" fill="#0f172a">tracking</text><text x="268" y="564" font-family="monospace" font-size="12" fill="#0f172a">&quot;123456789&quot;</text></g><g class="data-tree-node json-node json-depth-4" data-projection="json" data-json-index="22" data-json-depth="4" data-json-path="/api_response/data/0/status" data-json-highlight="false" data-json-label="status: &quot;shipped&quot;"><rect x="24" y="568" width="712" height="24" fill="#f1f5f9" stroke="none"/><line x1="24" y1="568" x2="736" y2="568" stroke="#94a3b8" stroke-width="1" opacity="0.75"/><line class="data-table-separator" x1="260" y1="568" x2="260" y2="592" stroke="#94a3b8" stroke-width="1" opacity="0.85"/><line x1="90" y1="128" x2="90" y2="584" stroke="#94a3b8" stroke-width="1"/><line x1="90" y1="584" x2="100" y2="584" stroke="#94a3b8" stroke-width="1"/><text x="104" y="588" font-family="monospace" font-size="12" fill="#0f172a">status</text><text x="268" y="588" font-family="monospace" font-size="12" fill="#0f172a">&quot;shipped&quot;</text></g><g class="data-tree-node json-node json-depth-3" data-projection="json" data-json-index="23" data-json-depth="3" data-json-path="/api_response/data/1" data-json-highlight="false" data-json-label="[1]: {...}"><rect x="24" y="592" width="712" height="24" fill="#f1f5f9" stroke="none"/><line x1="24" y1="592" x2="736" y2="592" stroke="#94a3b8" stroke-width="1" opacity="0.75"/><line class="data-table-separator" x1="260" y1="592" x2="260" y2="616" stroke="#94a3b8" stroke-width="1" opacity="0.85"/><line x1="72" y1="104" x2="72" y2="608" stroke="#94a3b8" stroke-width="1"/><line x1="72" y1="608" x2="82" y2="608" stroke="#94a3b8" stroke-width="1"/><text x="86" y="612" font-family="monospace" font-size="12" fill="#0f172a">[1]</text><text x="268" y="612" font-family="monospace" font-size="12" fill="#0f172a">{...}</text></g><g class="data-tree-node json-node json-depth-4" data-projection="json" data-json-index="24" data-json-depth="4" data-json-path="/api_response/data/1/customer" data-json-highlight="false" data-json-label="customer: {...}"><rect x="24" y="616" width="712" height="24" fill="#f1f5f9" stroke="none"/><line x1="24" y1="616" x2="736" y2="616" stroke="#94a3b8" stroke-width="1" opacity="0.75"/><line class="data-table-separator" x1="260" y1="616" x2="260" y2="640" stroke="#94a3b8" stroke-width="1" opacity="0.85"/><line x1="90" y1="608" x2="90" y2="632" stroke="#94a3b8" stroke-width="1"/><line x1="90" y1="632" x2="100" y2="632" stroke="#94a3b8" stroke-width="1"/><text x="104" y="636" font-family="monospace" font-size="12" fill="#0f172a">customer</text><text x="268" y="636" font-family="monospace" font-size="12" fill="#0f172a">{...}</text></g><g class="data-tree-node json-node json-depth-5" data-projection="json" data-json-index="25" data-json-depth="5" data-json-path="/api_response/data/1/customer/email" data-json-highlight="false" data-json-label="email: &quot;bob@example.com&quot;"><rect x="24" y="640" width="712" height="24" fill="#f1f5f9" stroke="none"/><line x1="24" y1="640" x2="736" y2="640" stroke="#94a3b8" stroke-width="1" opacity="0.75"/><line class="data-table-separator" x1="260" y1="640" x2="260" y2="664" stroke="#94a3b8" stroke-width="1" opacity="0.85"/><line x1="108" y1="632" x2="108" y2="656" stroke="#94a3b8" stroke-width="1"/><line x1="108" y1="656" x2="118" y2="656" stroke="#94a3b8" stroke-width="1"/><text x="122" y="660" font-family="monospace" font-size="12" fill="#0f172a">email</text><text x="268" y="660" font-family="monospace" font-size="12" fill="#0f172a">&quot;bob@example.com&quot;</text></g><g class="data-tree-node json-node json-depth-5" data-projection="json" data-json-index="26" data-json-depth="5" data-json-path="/api_response/data/1/customer/id" data-json-highlight="false" data-json-label="id: &quot;usr-17&quot;"><rect x="24" y="664" width="712" height="24" fill="#f1f5f9" stroke="none"/><line x1="24" y1="664" x2="736" y2="664" stroke="#94a3b8" stroke-width="1" opacity="0.75"/><line class="data-table-separator" x1="260" y1="664" x2="260" y2="688" stroke="#94a3b8" stroke-width="1" opacity="0.85"/><line x1="108" y1="632" x2="108" y2="680" stroke="#94a3b8" stroke-width="1"/><line x1="108" y1="680" x2="118" y2="680" stroke="#94a3b8" stroke-width="1"/><text x="122" y="684" font-family="monospace" font-size="12" fill="#0f172a">id</text><text x="268" y="684" font-family="monospace" font-size="12" fill="#0f172a">&quot;usr-17&quot;</text></g><g class="data-tree-node json-node json-depth-5" data-projection="json" data-json-index="27" data-json-depth="5" data-json-path="/api_response/data/1/customer/name" data-json-highlight="false" data-json-label="name: &quot;Bob&quot;"><rect x="24" y="688" width="712" height="24" fill="#f1f5f9" stroke="none"/><line x1="24" y1="688" x2="736" y2="688" stroke="#94a3b8" stroke-width="1" opacity="0.75"/><line class="data-table-separator" x1="260" y1="688" x2="260" y2="712" stroke="#94a3b8" stroke-width="1" opacity="0.85"/><line x1="108" y1="632" x2="108" y2="704" stroke="#94a3b8" stroke-width="1"/><line x1="108" y1="704" x2="118" y2="704" stroke="#94a3b8" stroke-width="1"/><text x="122" y="708" font-family="monospace" font-size="12" fill="#0f172a">name</text><text x="268" y="708" font-family="monospace" font-size="12" fill="#0f172a">&quot;Bob&quot;</text></g><g class="data-tree-node json-node json-depth-4" data-projection="json" data-json-index="28" data-json-depth="4" data-json-path="/api_response/data/1/id" data-json-highlight="false" data-json-label="id: &quot;ord-002&quot;"><rect x="24" y="712" width="712" height="24" fill="#f1f5f9" stroke="none"/><line x1="24" y1="712" x2="736" y2="712" stroke="#94a3b8" stroke-width="1" opacity="0.75"/><line class="data-table-separator" x1="260" y1="712" x2="260" y2="736" stroke="#94a3b8" stroke-width="1" opacity="0.85"/><line x1="90" y1="608" x2="90" y2="728" stroke="#94a3b8" stroke-width="1"/><line x1="90" y1="728" x2="100" y2="728" stroke="#94a3b8" stroke-width="1"/><text x="104" y="732" font-family="monospace" font-size="12" fill="#0f172a">id</text><text x="268" y="732" font-family="monospace" font-size="12" fill="#0f172a">&quot;ord-002&quot;</text></g><g class="data-tree-node json-node json-depth-4" data-projection="json" data-json-index="29" data-json-depth="4" data-json-path="/api_response/data/1/items" data-json-highlight="false" data-json-label="items: [...]"><rect x="24" y="736" width="712" height="24" fill="#f1f5f9" stroke="none"/><line x1="24" y1="736" x2="736" y2="736" stroke="#94a3b8" stroke-width="1" opacity="0.75"/><line class="data-table-separator" x1="260" y1="736" x2="260" y2="760" stroke="#94a3b8" stroke-width="1" opacity="0.85"/><line x1="90" y1="608" x2="90" y2="752" stroke="#94a3b8" stroke-width="1"/><line x1="90" y1="752" x2="100" y2="752" stroke="#94a3b8" stroke-width="1"/><text x="104" y="756" font-family="monospace" font-size="12" fill="#0f172a">items</text><text x="268" y="756" font-family="monospace" font-size="12" fill="#0f172a">[...]</text></g><g class="data-tree-node json-node json-depth-5" data-projection="json" data-json-index="30" data-json-depth="5" data-json-path="/api_response/data/1/items/0" data-json-highlight="false" data-json-label="[0]: {...}"><rect x="24" y="760" width="712" height="24" fill="#f1f5f9" stroke="none"/><line x1="24" y1="760" x2="736" y2="760" stroke="#94a3b8" stroke-width="1" opacity="0.75"/><line class="data-table-separator" x1="260" y1="760" x2="260" y2="784" stroke="#94a3b8" stroke-width="1" opacity="0.85"/><line x1="108" y1="752" x2="108" y2="776" stroke="#94a3b8" stroke-width="1"/><line x1="108" y1="776" x2="118" y2="776" stroke="#94a3b8" stroke-width="1"/><text x="122" y="780" font-family="monospace" font-size="12" fill="#0f172a">[0]</text><text x="268" y="780" font-family="monospace" font-size="12" fill="#0f172a">{...}</text></g><g class="data-tree-node json-node json-depth-6" data-projection="json" data-json-index="31" data-json-depth="6" data-json-path="/api_response/data/1/items/0/price" data-json-highlight="false" data-json-label="price: 15.0"><rect x="24" y="784" width="712" height="24" fill="#f1f5f9" stroke="none"/><line x1="24" y1="784" x2="736" y2="784" stroke="#94a3b8" stroke-width="1" opacity="0.75"/><line class="data-table-separator" x1="260" y1="784" x2="260" y2="808" stroke="#94a3b8" stroke-width="1" opacity="0.85"/><line x1="126" y1="776" x2="126" y2="800" stroke="#94a3b8" stroke-width="1"/><line x1="126" y1="800" x2="136" y2="800" stroke="#94a3b8" stroke-width="1"/><text x="140" y="804" font-family="monospace" font-size="12" fill="#0f172a">price</text><text x="268" y="804" font-family="monospace" font-size="12" fill="#0f172a">15.0</text></g><g class="data-tree-node json-node json-depth-6" data-projection="json" data-json-index="32" data-json-depth="6" data-json-path="/api_response/data/1/items/0/qty" data-json-highlight="false" data-json-label="qty: 3"><rect x="24" y="808" width="712" height="24" fill="#f1f5f9" stroke="none"/><line x1="24" y1="808" x2="736" y2="808" stroke="#94a3b8" stroke-width="1" opacity="0.75"/><line class="data-table-separator" x1="260" y1="808" x2="260" y2="832" stroke="#94a3b8" stroke-width="1" opacity="0.85"/><line x1="126" y1="776" x2="126" y2="824" stroke="#94a3b8" stroke-width="1"/><line x1="126" y1="824" x2="136" y2="824" stroke="#94a3b8" stroke-width="1"/><text x="140" y="828" font-family="monospace" font-size="12" fill="#0f172a">qty</text><text x="268" y="828" font-family="monospace" font-size="12" fill="#0f172a">3</text></g><g class="data-tree-node json-node json-depth-6" data-projection="json" data-json-index="33" data-json-depth="6" data-json-path="/api_response/data/1/items/0/sku" data-json-highlight="false" data-json-label="sku: &quot;C300&quot;"><rect x="24" y="832" width="712" height="24" fill="#f1f5f9" stroke="none"/><line x1="24" y1="832" x2="736" y2="832" stroke="#94a3b8" stroke-width="1" opacity="0.75"/><line class="data-table-separator" x1="260" y1="832" x2="260" y2="856" stroke="#94a3b8" stroke-width="1" opacity="0.85"/><line x1="126" y1="776" x2="126" y2="848" stroke="#94a3b8" stroke-width="1"/><line x1="126" y1="848" x2="136" y2="848" stroke="#94a3b8" stroke-width="1"/><text x="140" y="852" font-family="monospace" font-size="12" fill="#0f172a">sku</text><text x="268" y="852" font-family="monospace" font-size="12" fill="#0f172a">&quot;C300&quot;</text></g><g class="data-tree-node json-node json-depth-4" data-projection="json" data-json-index="34" data-json-depth="4" data-json-path="/api_response/data/1/shipping" data-json-highlight="false" data-json-label="shipping: null"><rect x="24" y="856" width="712" height="24" fill="#f1f5f9" stroke="none"/><line x1="24" y1="856" x2="736" y2="856" stroke="#94a3b8" stroke-width="1" opacity="0.75"/><line class="data-table-separator" x1="260" y1="856" x2="260" y2="880" stroke="#94a3b8" stroke-width="1" opacity="0.85"/><line x1="90" y1="608" x2="90" y2="872" stroke="#94a3b8" stroke-width="1"/><line x1="90" y1="872" x2="100" y2="872" stroke="#94a3b8" stroke-width="1"/><text x="104" y="876" font-family="monospace" font-size="12" fill="#0f172a">shipping</text><text x="268" y="876" font-family="monospace" font-size="12" fill="#0f172a">null</text></g><g class="data-tree-node json-node json-depth-4" data-projection="json" data-json-index="35" data-json-depth="4" data-json-path="/api_response/data/1/status" data-json-highlight="false" data-json-label="status: &quot;pending&quot;"><rect x="24" y="880" width="712" height="24" fill="#f1f5f9" stroke="none"/><line x1="24" y1="880" x2="736" y2="880" stroke="#94a3b8" stroke-width="1" opacity="0.75"/><line class="data-table-separator" x1="260" y1="880" x2="260" y2="904" stroke="#94a3b8" stroke-width="1" opacity="0.85"/><line x1="90" y1="608" x2="90" y2="896" stroke="#94a3b8" stroke-width="1"/><line x1="90" y1="896" x2="100" y2="896" stroke="#94a3b8" stroke-width="1"/><text x="104" y="900" font-family="monospace" font-size="12" fill="#0f172a">status</text><text x="268" y="900" font-family="monospace" font-size="12" fill="#0f172a">&quot;pending&quot;</text></g><g class="data-tree-node json-node json-depth-2" data-projection="json" data-json-index="36" data-json-depth="2" data-json-path="/api_response/pagination" data-json-highlight="false" data-json-label="pagination: {...}"><rect x="24" y="904" width="712" height="24" fill="#f1f5f9" stroke="none"/><line x1="24" y1="904" x2="736" y2="904" stroke="#94a3b8" stroke-width="1" opacity="0.75"/><line class="data-table-separator" x1="260" y1="904" x2="260" y2="928" stroke="#94a3b8" stroke-width="1" opacity="0.85"/><line x1="54" y1="80" x2="54" y2="920" stroke="#94a3b8" stroke-width="1"/><line x1="54" y1="920" x2="64" y2="920" stroke="#94a3b8" stroke-width="1"/><text x="68" y="924" font-family="monospace" font-size="12" fill="#0f172a">pagination</text><text x="268" y="924" font-family="monospace" font-size="12" fill="#0f172a">{...}</text></g><g class="data-tree-node json-node json-depth-3" data-projection="json" data-json-index="37" data-json-depth="3" data-json-path="/api_response/pagination/links" data-json-highlight="false" data-json-label="links: {...}"><rect x="24" y="928" width="712" height="24" fill="#f1f5f9" stroke="none"/><line x1="24" y1="928" x2="736" y2="928" stroke="#94a3b8" stroke-width="1" opacity="0.75"/><line class="data-table-separator" x1="260" y1="928" x2="260" y2="952" stroke="#94a3b8" stroke-width="1" opacity="0.85"/><line x1="72" y1="920" x2="72" y2="944" stroke="#94a3b8" stroke-width="1"/><line x1="72" y1="944" x2="82" y2="944" stroke="#94a3b8" stroke-width="1"/><text x="86" y="948" font-family="monospace" font-size="12" fill="#0f172a">links</text><text x="268" y="948" font-family="monospace" font-size="12" fill="#0f172a">{...}</text></g><g class="data-tree-node json-node json-depth-4" data-projection="json" data-json-index="38" data-json-depth="4" data-json-path="/api_response/pagination/links/next" data-json-highlight="false" data-json-label="next: &quot;/api/orders?page=2&quot;"><rect x="24" y="952" width="712" height="24" fill="#f1f5f9" stroke="none"/><line x1="24" y1="952" x2="736" y2="952" stroke="#94a3b8" stroke-width="1" opacity="0.75"/><line class="data-table-separator" x1="260" y1="952" x2="260" y2="976" stroke="#94a3b8" stroke-width="1" opacity="0.85"/><line x1="90" y1="944" x2="90" y2="968" stroke="#94a3b8" stroke-width="1"/><line x1="90" y1="968" x2="100" y2="968" stroke="#94a3b8" stroke-width="1"/><text x="104" y="972" font-family="monospace" font-size="12" fill="#0f172a">next</text><text x="268" y="972" font-family="monospace" font-size="12" fill="#0f172a">&quot;/api/orders?page=2&quot;</text></g><g class="data-tree-node json-node json-depth-4" data-projection="json" data-json-index="39" data-json-depth="4" data-json-path="/api_response/pagination/links/prev" data-json-highlight="false" data-json-label="prev: null"><rect x="24" y="976" width="712" height="24" fill="#f1f5f9" stroke="none"/><line x1="24" y1="976" x2="736" y2="976" stroke="#94a3b8" stroke-width="1" opacity="0.75"/><line class="data-table-separator" x1="260" y1="976" x2="260" y2="1000" stroke="#94a3b8" stroke-width="1" opacity="0.85"/><line x1="90" y1="944" x2="90" y2="992" stroke="#94a3b8" stroke-width="1"/><line x1="90" y1="992" x2="100" y2="992" stroke="#94a3b8" stroke-width="1"/><text x="104" y="996" font-family="monospace" font-size="12" fill="#0f172a">prev</text><text x="268" y="996" font-family="monospace" font-size="12" fill="#0f172a">null</text></g><g class="data-tree-node json-node json-depth-3" data-projection="json" data-json-index="40" data-json-depth="3" data-json-path="/api_response/pagination/page" data-json-highlight="false" data-json-label="page: 1"><rect x="24" y="1000" width="712" height="24" fill="#f1f5f9" stroke="none"/><line x1="24" y1="1000" x2="736" y2="1000" stroke="#94a3b8" stroke-width="1" opacity="0.75"/><line class="data-table-separator" x1="260" y1="1000" x2="260" y2="1024" stroke="#94a3b8" stroke-width="1" opacity="0.85"/><line x1="72" y1="920" x2="72" y2="1016" stroke="#94a3b8" stroke-width="1"/><line x1="72" y1="1016" x2="82" y2="1016" stroke="#94a3b8" stroke-width="1"/><text x="86" y="1020" font-family="monospace" font-size="12" fill="#0f172a">page</text><text x="268" y="1020" font-family="monospace" font-size="12" fill="#0f172a">1</text></g><g class="data-tree-node json-node json-depth-3" data-projection="json" data-json-index="41" data-json-depth="3" data-json-path="/api_response/pagination/per_page" data-json-highlight="false" data-json-label="per_page: 25"><rect x="24" y="1024" width="712" height="24" fill="#f1f5f9" stroke="none"/><line x1="24" y1="1024" x2="736" y2="1024" stroke="#94a3b8" stroke-width="1" opacity="0.75"/><line class="data-table-separator" x1="260" y1="1024" x2="260" y2="1048" stroke="#94a3b8" stroke-width="1" opacity="0.85"/><line x1="72" y1="920" x2="72" y2="1040" stroke="#94a3b8" stroke-width="1"/><line x1="72" y1="1040" x2="82" y2="1040" stroke="#94a3b8" stroke-width="1"/><text x="86" y="1044" font-family="monospace" font-size="12" fill="#0f172a">per_page</text><text x="268" y="1044" font-family="monospace" font-size="12" fill="#0f172a">25</text></g><g class="data-tree-node json-node json-depth-3" data-projection="json" data-json-index="42" data-json-depth="3" data-json-path="/api_response/pagination/total" data-json-highlight="false" data-json-label="total: 312"><rect x="24" y="1048" width="712" height="24" fill="#f1f5f9" stroke="none"/><line x1="24" y1="1048" x2="736" y2="1048" stroke="#94a3b8" stroke-width="1" opacity="0.75"/><line class="data-table-separator" x1="260" y1="1048" x2="260" y2="1072" stroke="#94a3b8" stroke-width="1" opacity="0.85"/><line x1="72" y1="920" x2="72" y2="1064" stroke="#94a3b8" stroke-width="1"/><line x1="72" y1="1064" x2="82" y2="1064" stroke="#94a3b8" stroke-width="1"/><text x="86" y="1068" font-family="monospace" font-size="12" fill="#0f172a">total</text><text x="268" y="1068" font-family="monospace" font-size="12" fill="#0f172a">312</text></g><g class="data-tree-node json-node json-depth-2" data-projection="json" data-json-index="43" data-json-depth="2" data-json-path="/api_response/status" data-json-highlight="false" data-json-label="status: &quot;success&quot;"><rect x="24" y="1072" width="712" height="24" fill="#f1f5f9" stroke="none"/><line x1="24" y1="1072" x2="736" y2="1072" stroke="#94a3b8" stroke-width="1" opacity="0.75"/><line class="data-table-separator" x1="260" y1="1072" x2="260" y2="1096" stroke="#94a3b8" stroke-width="1" opacity="0.85"/><line x1="54" y1="80" x2="54" y2="1088" stroke="#94a3b8" stroke-width="1"/><line x1="54" y1="1088" x2="64" y2="1088" stroke="#94a3b8" stroke-width="1"/><text x="68" y="1092" font-family="monospace" font-size="12" fill="#0f172a">status</text><text x="268" y="1092" font-family="monospace" font-size="12" fill="#0f172a">&quot;success&quot;</text></g><rect class="data-table-frame json-table" x="24" y="40" width="712" height="1056" rx="3" ry="3" fill="none" stroke="#94a3b8" stroke-width="1"/></svg>