<svg xmlns="http://www.w3.org/2000/svg" width="760" height="1048" viewBox="0 0 760 1048" data-projection="json" data-json-node-count="44" data-json-max-depth="6"><rect width="100%" height="100%" fill="white"/><defs><marker id="arrow-open" viewBox="0 0 10 10" refX="9" refY="5" markerWidth="10" markerHeight="10" markerUnits="userSpaceOnUse" orient="auto-start-reverse"><path d="M0,0 L10,5 L0,10" fill="none" stroke="#475569" stroke-width="1.5"/></marker><marker id="arrow-triangle" viewBox="0 0 12 12" refX="11" refY="6" markerWidth="12" markerHeight="12" markerUnits="userSpaceOnUse" orient="auto-start-reverse"><polygon points="0,0 12,6 0,12" fill="#ffffff" stroke="#475569" stroke-width="1.5" fill-rule="nonzero"/></marker><marker id="arrow-diamond-filled" viewBox="0 0 14 10" refX="13" refY="5" markerWidth="14" markerHeight="10" markerUnits="userSpaceOnUse" orient="auto-start-reverse"><path d="M0,5 L7,0 L14,5 L7,10 z" fill="#475569" stroke="#475569" stroke-width="1"/></marker><marker id="arrow-diamond-open" viewBox="0 0 14 10" refX="13" refY="5" markerWidth="14" markerHeight="10" markerUnits="userSpaceOnUse" orient="auto-start-reverse"><path d="M0,5 L7,0 L14,5 L7,10 z" fill="#ffffff" stroke="#475569" stroke-width="1"/></marker></defs><text x="24" y="28" font-family="monospace" font-size="18" font-weight="600">JSON</text><line x1="33" y1="59" x2="33" y2="75" stroke="#94a3b8" stroke-width="1"/><line x1="33" y1="75" x2="42" y2="75" stroke="#94a3b8" stroke-width="1"/><line x1="51" y1="81" x2="51" y2="97" stroke="#94a3b8" stroke-width="1"/><line x1="51" y1="97" x2="60" y2="97" stroke="#94a3b8" stroke-width="1"/><line x1="69" y1="103" x2="69" y2="119" stroke="#94a3b8" stroke-width="1"/><line x1="69" y1="119" x2="78" y2="119" stroke="#94a3b8" stroke-width="1"/><line x1="87" y1="125" x2="87" y2="141" stroke="#94a3b8" stroke-width="1"/><line x1="87" y1="141" x2="96" y2="141" stroke="#94a3b8" stroke-width="1"/><line x1="105" y1="147" x2="105" y2="163" stroke="#94a3b8" stroke-width="1"/><line x1="105" y1="163" x2="114" y2="163" stroke="#94a3b8" stroke-width="1"/><line x1="105" y1="147" x2="105" y2="185" stroke="#94a3b8" stroke-width="1"/><line x1="105" y1="185" x2="114" y2="185" stroke="#94a3b8" stroke-width="1"/><line x1="105" y1="147" x2="105" y2="207" stroke="#94a3b8" stroke-width="1"/><line x1="105" y1="207" x2="114" y2="207" stroke="#94a3b8" stroke-width="1"/><line x1="87" y1="125" x2="87" y2="229" stroke="#94a3b8" stroke-width="1"/><line x1="87" y1="229" x2="96" y2="229" stroke="#94a3b8" stroke-width="1"/><line x1="87" y1="125" x2="87" y2="251" stroke="#94a3b8" stroke-width="1"/><line x1="87" y1="251" x2="96" y2="251" stroke="#94a3b8" stroke-width="1"/><line x1="105" y1="257" x2="105" y2="273" stroke="#94a3b8" stroke-width="1"/><line x1="105" y1="273" x2="114" y2="273" stroke="#94a3b8" stroke-width="1"/><line x1="123" y1="279" x2="123" y2="295" stroke="#94a3b8" stroke-width="1"/><line x1="123" y1="295" x2="132" y2="295" stroke="#94a3b8" stroke-width="1"/><line x1="123" y1="279" x2="123" y2="317" stroke="#94a3b8" stroke-width="1"/><line x1="123" y1="317" x2="132" y2="317" stroke="#94a3b8" stroke-width="1"/><line x1="123" y1="279" x2="123" y2="339" stroke="#94a3b8" stroke-width="1"/><line x1="123" y1="339" x2="132" y2="339" stroke="#94a3b8" stroke-width="1"/><line x1="105" y1="257" x2="105" y2="361" stroke="#94a3b8" stroke-width="1"/><line x1="105" y1="361" x2="114" y2="361" stroke="#94a3b8" stroke-width="1"/><line x1="123" y1="367" x2="123" y2="383" stroke="#94a3b8" stroke-width="1"/><line x1="123" y1="383" x2="132" y2="383" stroke="#94a3b8" stroke-width="1"/><line x1="123" y1="367" x2="123" y2="405" stroke="#94a3b8" stroke-width="1"/><line x1="123" y1="405" x2="132" y2="405" stroke="#94a3b8" stroke-width="1"/><line x1="123" y1="367" x2="123" y2="427" stroke="#94a3b8" stroke-width="1"/><line x1="123" y1="427" x2="132" y2="427" stroke="#94a3b8" stroke-width="1"/><line x1="87" y1="125" x2="87" y2="449" stroke="#94a3b8" stroke-width="1"/><line x1="87" y1="449" x2="96" y2="449" stroke="#94a3b8" stroke-width="1"/><line x1="105" y1="455" x2="105" y2="471" stroke="#94a3b8" stroke-width="1"/><line x1="105" y1="471" x2="114" y2="471" stroke="#94a3b8" stroke-width="1"/><line x1="105" y1="455" x2="105" y2="493" stroke="#94a3b8" stroke-width="1"/><line x1="105" y1="493" x2="114" y2="493" stroke="#94a3b8" stroke-width="1"/><line x1="105" y1="455" x2="105" y2="515" stroke="#94a3b8" stroke-width="1"/><line x1="105" y1="515" x2="114" y2="515" stroke="#94a3b8" stroke-width="1"/><line x1="87" y1="125" x2="87" y2="537" stroke="#94a3b8" stroke-width="1"/><line x1="87" y1="537" x2="96" y2="537" stroke="#94a3b8" stroke-width="1"/><line x1="69" y1="103" x2="69" y2="559" stroke="#94a3b8" stroke-width="1"/><line x1="69" y1="559" x2="78" y2="559" stroke="#94a3b8" stroke-width="1"/><line x1="87" y1="565" x2="87" y2="581" stroke="#94a3b8" stroke-width="1"/><line x1="87" y1="581" x2="96" y2="581" stroke="#94a3b8" stroke-width="1"/><line x1="105" y1="587" x2="105" y2="603" stroke="#94a3b8" stroke-width="1"/><line x1="105" y1="603" x2="114" y2="603" stroke="#94a3b8" stroke-width="1"/><line x1="105" y1="587" x2="105" y2="625" stroke="#94a3b8" stroke-width="1"/><line x1="105" y1="625" x2="114" y2="625" stroke="#94a3b8" stroke-width="1"/><line x1="105" y1="587" x2="105" y2="647" stroke="#94a3b8" stroke-width="1"/><line x1="105" y1="647" x2="114" y2="647" stroke="#94a3b8" stroke-width="1"/><line x1="87" y1="565" x2="87" y2="669" stroke="#94a3b8" stroke-width="1"/><line x1="87" y1="669" x2="96" y2="669" stroke="#94a3b8" stroke-width="1"/><line x1="87" y1="565" x2="87" y2="691" stroke="#94a3b8" stroke-width="1"/><line x1="87" y1="691" x2="96" y2="691" stroke="#94a3b8" stroke-width="1"/><line x1="105" y1="697" x2="105" y2="713" stroke="#94a3b8" stroke-width="1"/><line x1="105" y1="713" x2="114" y2="713" stroke="#94a3b8" stroke-width="1"/><line x1="123" y1="719" x2="123" y2="735" stroke="#94a3b8" stroke-width="1"/><line x1="123" y1="735" x2="132" y2="735" stroke="#94a3b8" stroke-width="1"/><line x1="123" y1="719" x2="123" y2="757" stroke="#94a3b8" stroke-width="1"/><line x1="123" y1="757" x2="132" y2="757" stroke="#94a3b8" stroke-width="1"/><line x1="123" y1="719" x2="123" y2="779" stroke="#94a3b8" stroke-width="1"/><line x1="123" y1="779" x2="132" y2="779" stroke="#94a3b8" stroke-width="1"/><line x1="87" y1="565" x2="87" y2="801" stroke="#94a3b8" stroke-width="1"/><line x1="87" y1="801" x2="96" y2="801" stroke="#94a3b8" stroke-width="1"/><line x1="87" y1="565" x2="87" y2="823" stroke="#94a3b8" stroke-width="1"/><line x1="87" y1="823" x2="96" y2="823" stroke="#94a3b8" stroke-width="1"/><line x1="51" y1="81" x2="51" y2="845" stroke="#94a3b8" stroke-width="1"/><line x1="51" y1="845" x2="60" y2="845" stroke="#94a3b8" stroke-width="1"/><line x1="69" y1="851" x2="69" y2="867" stroke="#94a3b8" stroke-width="1"/><line x1="69" y1="867" x2="78" y2="867" stroke="#94a3b8" stroke-width="1"/><line x1="87" y1="873" x2="87" y2="889" stroke="#94a3b8" stroke-width="1"/><line x1="87" y1="889" x2="96" y2="889" stroke="#94a3b8" stroke-width="1"/><line x1="87" y1="873" x2="87" y2="911" stroke="#94a3b8" stroke-width="1"/><line x1="87" y1="911" x2="96" y2="911" stroke="#94a3b8" stroke-width="1"/><line x1="69" y1="851" x2="69" y2="933" stroke="#94a3b8" stroke-width="1"/><line x1="69" y1="933" x2="78" y2="933" stroke="#94a3b8" stroke-width="1"/><line x1="69" y1="851" x2="69" y2="955" stroke="#94a3b8" stroke-width="1"/><line x1="69" y1="955" x2="78" y2="955" stroke="#94a3b8" stroke-width="1"/><line x1="69" y1="851" x2="69" y2="977" stroke="#94a3b8" stroke-width="1"/><line x1="69" y1="977" x2="78" y2="977" stroke="#94a3b8" stroke-width="1"/><line x1="51" y1="81" x2="51" y2="999" stroke="#94a3b8" stroke-width="1"/><line x1="51" y1="999" x2="60" y2="999" stroke="#94a3b8" stroke-width="1"/><g class="data-tree-node json-node json-depth-0" data-projection="json" data-json-index="0" data-json-depth="0" data-json-label="{...}"><rect x="24" y="44" width="712" height="18" rx="3" ry="3" fill="#f1f5f9" stroke="#94a3b8" stroke-width="1"/><text x="30" y="58" font-family="monospace" font-size="12" fill="#0f172a">{...}</text></g><g class="data-tree-node json-node json-depth-1" data-projection="json" data-json-index="1" data-json-depth="1" data-json-label="api_response: {...}"><rect x="42" y="66" width="694" height="18" rx="3" ry="3" fill="#f1f5f9" stroke="#94a3b8" stroke-width="1"/><text x="48" y="80" font-family="monospace" font-size="12" fill="#0f172a">api_response: {...}</text></g><g class="data-tree-node json-node json-depth-2" data-projection="json" data-json-index="2" data-json-depth="2" data-json-label="data: [...]"><rect x="60" y="88" width="676" height="18" rx="3" ry="3" fill="#f1f5f9" stroke="#94a3b8" stroke-width="1"/><text x="66" y="102" font-family="monospace" font-size="12" fill="#0f172a">data: [...]</text></g><g class="data-tree-node json-node json-depth-3" data-projection="json" data-json-index="3" data-json-depth="3" data-json-label="[0]: {...}"><rect x="78" y="110" width="658" height="18" rx="3" ry="3" fill="#f1f5f9" stroke="#94a3b8" stroke-width="1"/><text x="84" y="124" font-family="monospace" font-size="12" fill="#0f172a">[0]: {...}</text></g><g class="data-tree-node json-node json-depth-4" data-projection="json" data-json-index="4" data-json-depth="4" data-json-label="customer: {...}"><rect x="96" y="132" width="640" height="18" rx="3" ry="3" fill="#f1f5f9" stroke="#94a3b8" stroke-width="1"/><text x="102" y="146" font-family="monospace" font-size="12" fill="#0f172a">customer: {...}</text></g><g class="data-tree-node json-node json-depth-5" data-projection="json" data-json-index="5" data-json-depth="5" data-json-label="email: &quot;alice@example.com&quot;"><rect x="114" y="154" width="622" height="18" rx="3" ry="3" fill="#f1f5f9" stroke="#94a3b8" stroke-width="1"/><text x="120" y="168" font-family="monospace" font-size="12" fill="#0f172a">email: &quot;alice@example.com&quot;</text></g><g class="data-tree-node json-node json-depth-5" data-projection="json" data-json-index="6" data-json-depth="5" data-json-label="id: &quot;usr-42&quot;"><rect x="114" y="176" width="622" height="18" rx="3" ry="3" fill="#f1f5f9" stroke="#94a3b8" stroke-width="1"/><text x="120" y="190" font-family="monospace" font-size="12" fill="#0f172a">id: &quot;usr-42&quot;</text></g><g class="data-tree-node json-node json-depth-5" data-projection="json" data-json-index="7" data-json-depth="5" data-json-label="name: &quot;Alice&quot;"><rect x="114" y="198" width="622" height="18" rx="3" ry="3" fill="#f1f5f9" stroke="#94a3b8" stroke-width="1"/><text x="120" y="212" font-family="monospace" font-size="12" fill="#0f172a">name: &quot;Alice&quot;</text></g><g class="data-tree-node json-node json-depth-4" data-projection="json" data-json-index="8" data-json-depth="4" data-json-label="id: &quot;ord-001&quot;"><rect x="96" y="220" width="640" height="18" rx="3" ry="3" fill="#f1f5f9" stroke="#94a3b8" stroke-width="1"/><text x="102" y="234" font-family="monospace" font-size="12" fill="#0f172a">id: &quot;ord-001&quot;</text></g><g class="data-tree-node json-node json-depth-4" data-projection="json" data-json-index="9" data-json-depth="4" data-json-label="items: [...]"><rect x="96" y="242" width="640" height="18" rx="3" ry="3" fill="#f1f5f9" stroke="#94a3b8" stroke-width="1"/><text x="102" y="256" font-family="monospace" font-size="12" fill="#0f172a">items: [...]</text></g><g class="data-tree-node json-node json-depth-5" data-projection="json" data-json-index="10" data-json-depth="5" data-json-label="[0]: {...}"><rect x="114" y="264" width="622" height="18" rx="3" ry="3" fill="#f1f5f9" stroke="#94a3b8" stroke-width="1"/><text x="120" y="278" font-family="monospace" font-size="12" fill="#0f172a">[0]: {...}</text></g><g class="data-tree-node json-node json-depth-6" data-projection="json" data-json-index="11" data-json-depth="6" data-json-label="price: 29.99"><rect x="132" y="286" width="604" height="18" rx="3" ry="3" fill="#f1f5f9" stroke="#94a3b8" stroke-width="1"/><text x="138" y="300" font-family="monospace" font-size="12" fill="#0f172a">price: 29.99</text></g><g class="data-tree-node json-node json-depth-6" data-projection="json" data-json-index="12" data-json-depth="6" data-json-label="qty: 2"><rect x="132" y="308" width="604" height="18" rx="3" ry="3" fill="#f1f5f9" stroke="#94a3b8" stroke-width="1"/><text x="138" y="322" font-family="monospace" font-size="12" fill="#0f172a">qty: 2</text></g><g class="data-tree-node json-node json-depth-6" data-projection="json" data-json-index="13" data-json-depth="6" data-json-label="sku: &quot;A100&quot;"><rect x="132" y="330" width="604" height="18" rx="3" ry="3" fill="#f1f5f9" stroke="#94a3b8" stroke-width="1"/><text x="138" y="344" font-family="monospace" font-size="12" fill="#0f172a">sku: &quot;A100&quot;</text></g><g class="data-tree-node json-node json-depth-5" data-projection="json" data-json-index="14" data-json-depth="5" data-json-label="[1]: {...}"><rect x="114" y="352" width="622" height="18" rx="3" ry="3" fill="#f1f5f9" stroke="#94a3b8" stroke-width="1"/><text x="120" y="366" font-family="monospace" font-size="12" fill="#0f172a">[1]: {...}</text></g><g class="data-tree-node json-node json-depth-6" data-projection="json" data-json-index="15" data-json-depth="6" data-json-label="price: 49.99"><rect x="132" y="374" width="604" height="18" rx="3" ry="3" fill="#f1f5f9" stroke="#94a3b8" stroke-width="1"/><text x="138" y="388" font-family="monospace" font-size="12" fill="#0f172a">price: 49.99</text></g><g class="data-tree-node json-node json-depth-6" data-projection="json" data-json-index="16" data-json-depth="6" data-json-label="qty: 1"><rect x="132" y="396" width="604" height="18" rx="3" ry="3" fill="#f1f5f9" stroke="#94a3b8" stroke-width="1"/><text x="138" y="410" font-family="monospace" font-size="12" fill="#0f172a">qty: 1</text></g><g class="data-tree-node json-node json-depth-6" data-projection="json" data-json-index="17" data-json-depth="6" data-json-label="sku: &quot;B200&quot;"><rect x="132" y="418" width="604" height="18" rx="3" ry="3" fill="#f1f5f9" stroke="#94a3b8" stroke-width="1"/><text x="138" y="432" font-family="monospace" font-size="12" fill="#0f172a">sku: &quot;B200&quot;</text></g><g class="data-tree-node json-node json-depth-4" data-projection="json" data-json-index="18" data-json-depth="4" data-json-label="shipping: {...}"><rect x="96" y="440" width="640" height="18" rx="3" ry="3" fill="#f1f5f9" stroke="#94a3b8" stroke-width="1"/><text x="102" y="454" font-family="monospace" font-size="12" fill="#0f172a">shipping: {...}</text></g><g class="data-tree-node json-node json-depth-5" data-projection="json" data-json-index="19" data-json-depth="5" data-json-label="carrier: &quot;FedEx&quot;"><rect x="114" y="462" width="622" height="18" rx="3" ry="3" fill="#f1f5f9" stroke="#94a3b8" stroke-width="1"/><text x="120" y="476" font-family="monospace" font-size="12" fill="#0f172a">carrier: &quot;FedEx&quot;</text></g><g class="data-tree-node json-node json-depth-5" data-projection="json" data-json-index="20" data-json-depth="5" data-json-label="estimated: &quot;2026-05-22&quot;"><rect x="114" y="484" width="622" height="18" rx="3" ry="3" fill="#f1f5f9" stroke="#94a3b8" stroke-width="1"/><text x="120" y="498" font-family="monospace" font-size="12" fill="#0f172a">estimated: &quot;2026-05-22&quot;</text></g><g class="data-tree-node json-node json-depth-5" data-projection="json" data-json-index="21" data-json-depth="5" data-json-label="tracking: &quot;123456789&quot;"><rect x="114" y="506" width="622" height="18" rx="3" ry="3" fill="#f1f5f9" stroke="#94a3b8" stroke-width="1"/><text x="120" y="520" font-family="monospace" font-size="12" fill="#0f172a">tracking: &quot;123456789&quot;</text></g><g class="data-tree-node json-node json-depth-4" data-projection="json" data-json-index="22" data-json-depth="4" data-json-label="status: &quot;shipped&quot;"><rect x="96" y="528" width="640" height="18" rx="3" ry="3" fill="#f1f5f9" stroke="#94a3b8" stroke-width="1"/><text x="102" y="542" font-family="monospace" font-size="12" fill="#0f172a">status: &quot;shipped&quot;</text></g><g class="data-tree-node json-node json-depth-3" data-projection="json" data-json-index="23" data-json-depth="3" data-json-label="[1]: {...}"><rect x="78" y="550" width="658" height="18" rx="3" ry="3" fill="#f1f5f9" stroke="#94a3b8" stroke-width="1"/><text x="84" y="564" font-family="monospace" font-size="12" fill="#0f172a">[1]: {...}</text></g><g class="data-tree-node json-node json-depth-4" data-projection="json" data-json-index="24" data-json-depth="4" data-json-label="customer: {...}"><rect x="96" y="572" width="640" height="18" rx="3" ry="3" fill="#f1f5f9" stroke="#94a3b8" stroke-width="1"/><text x="102" y="586" font-family="monospace" font-size="12" fill="#0f172a">customer: {...}</text></g><g class="data-tree-node json-node json-depth-5" data-projection="json" data-json-index="25" data-json-depth="5" data-json-label="email: &quot;bob@example.com&quot;"><rect x="114" y="594" width="622" height="18" rx="3" ry="3" fill="#f1f5f9" stroke="#94a3b8" stroke-width="1"/><text x="120" y="608" font-family="monospace" font-size="12" fill="#0f172a">email: &quot;bob@example.com&quot;</text></g><g class="data-tree-node json-node json-depth-5" data-projection="json" data-json-index="26" data-json-depth="5" data-json-label="id: &quot;usr-17&quot;"><rect x="114" y="616" width="622" height="18" rx="3" ry="3" fill="#f1f5f9" stroke="#94a3b8" stroke-width="1"/><text x="120" y="630" font-family="monospace" font-size="12" fill="#0f172a">id: &quot;usr-17&quot;</text></g><g class="data-tree-node json-node json-depth-5" data-projection="json" data-json-index="27" data-json-depth="5" data-json-label="name: &quot;Bob&quot;"><rect x="114" y="638" width="622" height="18" rx="3" ry="3" fill="#f1f5f9" stroke="#94a3b8" stroke-width="1"/><text x="120" y="652" font-family="monospace" font-size="12" fill="#0f172a">name: &quot;Bob&quot;</text></g><g class="data-tree-node json-node json-depth-4" data-projection="json" data-json-index="28" data-json-depth="4" data-json-label="id: &quot;ord-002&quot;"><rect x="96" y="660" width="640" height="18" rx="3" ry="3" fill="#f1f5f9" stroke="#94a3b8" stroke-width="1"/><text x="102" y="674" font-family="monospace" font-size="12" fill="#0f172a">id: &quot;ord-002&quot;</text></g><g class="data-tree-node json-node json-depth-4" data-projection="json" data-json-index="29" data-json-depth="4" data-json-label="items: [...]"><rect x="96" y="682" width="640" height="18" rx="3" ry="3" fill="#f1f5f9" stroke="#94a3b8" stroke-width="1"/><text x="102" y="696" font-family="monospace" font-size="12" fill="#0f172a">items: [...]</text></g><g class="data-tree-node json-node json-depth-5" data-projection="json" data-json-index="30" data-json-depth="5" data-json-label="[0]: {...}"><rect x="114" y="704" width="622" height="18" rx="3" ry="3" fill="#f1f5f9" stroke="#94a3b8" stroke-width="1"/><text x="120" y="718" font-family="monospace" font-size="12" fill="#0f172a">[0]: {...}</text></g><g class="data-tree-node json-node json-depth-6" data-projection="json" data-json-index="31" data-json-depth="6" data-json-label="price: 15.0"><rect x="132" y="726" width="604" height="18" rx="3" ry="3" fill="#f1f5f9" stroke="#94a3b8" stroke-width="1"/><text x="138" y="740" font-family="monospace" font-size="12" fill="#0f172a">price: 15.0</text></g><g class="data-tree-node json-node json-depth-6" data-projection="json" data-json-index="32" data-json-depth="6" data-json-label="qty: 3"><rect x="132" y="748" width="604" height="18" rx="3" ry="3" fill="#f1f5f9" stroke="#94a3b8" stroke-width="1"/><text x="138" y="762" font-family="monospace" font-size="12" fill="#0f172a">qty: 3</text></g><g class="data-tree-node json-node json-depth-6" data-projection="json" data-json-index="33" data-json-depth="6" data-json-label="sku: &quot;C300&quot;"><rect x="132" y="770" width="604" height="18" rx="3" ry="3" fill="#f1f5f9" stroke="#94a3b8" stroke-width="1"/><text x="138" y="784" font-family="monospace" font-size="12" fill="#0f172a">sku: &quot;C300&quot;</text></g><g class="data-tree-node json-node json-depth-4" data-projection="json" data-json-index="34" data-json-depth="4" data-json-label="shipping: null"><rect x="96" y="792" width="640" height="18" rx="3" ry="3" fill="#f1f5f9" stroke="#94a3b8" stroke-width="1"/><text x="102" y="806" font-family="monospace" font-size="12" fill="#0f172a">shipping: null</text></g><g class="data-tree-node json-node json-depth-4" data-projection="json" data-json-index="35" data-json-depth="4" data-json-label="status: &quot;pending&quot;"><rect x="96" y="814" width="640" height="18" rx="3" ry="3" fill="#f1f5f9" stroke="#94a3b8" stroke-width="1"/><text x="102" y="828" font-family="monospace" font-size="12" fill="#0f172a">status: &quot;pending&quot;</text></g><g class="data-tree-node json-node json-depth-2" data-projection="json" data-json-index="36" data-json-depth="2" data-json-label="pagination: {...}"><rect x="60" y="836" width="676" height="18" rx="3" ry="3" fill="#f1f5f9" stroke="#94a3b8" stroke-width="1"/><text x="66" y="850" font-family="monospace" font-size="12" fill="#0f172a">pagination: {...}</text></g><g class="data-tree-node json-node json-depth-3" data-projection="json" data-json-index="37" data-json-depth="3" data-json-label="links: {...}"><rect x="78" y="858" width="658" height="18" rx="3" ry="3" fill="#f1f5f9" stroke="#94a3b8" stroke-width="1"/><text x="84" y="872" font-family="monospace" font-size="12" fill="#0f172a">links: {...}</text></g><g class="data-tree-node json-node json-depth-4" data-projection="json" data-json-index="38" data-json-depth="4" data-json-label="next: &quot;/api/orders?page=2&quot;"><rect x="96" y="880" width="640" height="18" rx="3" ry="3" fill="#f1f5f9" stroke="#94a3b8" stroke-width="1"/><text x="102" y="894" font-family="monospace" font-size="12" fill="#0f172a">next: &quot;/api/orders?page=2&quot;</text></g><g class="data-tree-node json-node json-depth-4" data-projection="json" data-json-index="39" data-json-depth="4" data-json-label="prev: null"><rect x="96" y="902" width="640" height="18" rx="3" ry="3" fill="#f1f5f9" stroke="#94a3b8" stroke-width="1"/><text x="102" y="916" font-family="monospace" font-size="12" fill="#0f172a">prev: null</text></g><g class="data-tree-node json-node json-depth-3" data-projection="json" data-json-index="40" data-json-depth="3" data-json-label="page: 1"><rect x="78" y="924" width="658" height="18" rx="3" ry="3" fill="#f1f5f9" stroke="#94a3b8" stroke-width="1"/><text x="84" y="938" font-family="monospace" font-size="12" fill="#0f172a">page: 1</text></g><g class="data-tree-node json-node json-depth-3" data-projection="json" data-json-index="41" data-json-depth="3" data-json-label="per_page: 25"><rect x="78" y="946" width="658" height="18" rx="3" ry="3" fill="#f1f5f9" stroke="#94a3b8" stroke-width="1"/><text x="84" y="960" font-family="monospace" font-size="12" fill="#0f172a">per_page: 25</text></g><g class="data-tree-node json-node json-depth-3" data-projection="json" data-json-index="42" data-json-depth="3" data-json-label="total: 312"><rect x="78" y="968" width="658" height="18" rx="3" ry="3" fill="#f1f5f9" stroke="#94a3b8" stroke-width="1"/><text x="84" y="982" font-family="monospace" font-size="12" fill="#0f172a">total: 312</text></g><g class="data-tree-node json-node json-depth-2" data-projection="json" data-json-index="43" data-json-depth="2" data-json-label="status: &quot;success&quot;"><rect x="60" y="990" width="676" height="18" rx="3" ry="3" fill="#f1f5f9" stroke="#94a3b8" stroke-width="1"/><text x="66" y="1004" font-family="monospace" font-size="12" fill="#0f172a">status: &quot;success&quot;</text></g></svg>