<svg xmlns="http://www.w3.org/2000/svg" width="1032" height="1672" viewBox="0 0 1032 1672"><rect width="100%" height="100%" fill="#f0f4f8"/><defs><marker id="arrow-open" viewBox="0 0 10 10" refX="9" refY="5" markerWidth="10" markerHeight="10" markerUnits="userSpaceOnUse" orient="auto-start-reverse"><path d="M0,0 L10,5 L0,10" fill="none" stroke="#1e293b" stroke-width="1.5"/></marker><marker id="arrow-triangle" viewBox="0 0 12 12" refX="11" refY="6" markerWidth="12" markerHeight="12" markerUnits="userSpaceOnUse" orient="auto-start-reverse"><polygon points="0,0 12,6 0,12" fill="#ffffff" stroke="#1e293b" stroke-width="1.5" fill-rule="nonzero"/></marker><marker id="arrow-diamond-filled" viewBox="0 0 14 10" refX="13" refY="5" markerWidth="14" markerHeight="10" markerUnits="userSpaceOnUse" orient="auto-start-reverse"><path d="M0,5 L7,0 L14,5 L7,10 z" fill="#1e293b" stroke="#1e293b" stroke-width="1"/></marker><marker id="arrow-diamond-open" viewBox="0 0 14 10" refX="13" refY="5" markerWidth="14" markerHeight="10" markerUnits="userSpaceOnUse" orient="auto-start-reverse"><path d="M0,5 L7,0 L14,5 L7,10 z" fill="#ffffff" stroke="#1e293b" stroke-width="1"/></marker><marker id="arrow-double-open" viewBox="0 0 16 12" refX="15" refY="6" markerWidth="16" markerHeight="12" markerUnits="userSpaceOnUse" orient="auto-start-reverse"><path d="M0,1 L8,6 L0,11 M7,1 L15,6 L7,11" fill="none" stroke="#1e293b" stroke-width="1.5" stroke-linejoin="round"/></marker><marker id="arrow-circle-open" viewBox="0 0 12 12" refX="11" refY="6" markerWidth="12" markerHeight="12" markerUnits="userSpaceOnUse" orient="auto-start-reverse"><circle cx="6" cy="6" r="4" fill="#ffffff" stroke="#1e293b" stroke-width="1.5"/></marker><marker id="arrow-circle-filled" viewBox="0 0 12 12" refX="11" refY="6" markerWidth="12" markerHeight="12" markerUnits="userSpaceOnUse" orient="auto-start-reverse"><circle cx="6" cy="6" r="4" fill="#1e293b" stroke="#1e293b" stroke-width="1.5"/></marker><marker id="arrow-triangle-filled" viewBox="0 0 12 12" refX="11" refY="6" markerWidth="12" markerHeight="12" markerUnits="userSpaceOnUse" orient="auto-start-reverse"><polygon points="0,0 12,6 0,12" fill="#1e293b" stroke="#1e293b" stroke-width="1.5"/></marker><marker id="arrow-box-filled" viewBox="0 0 12 12" refX="11" refY="6" markerWidth="12" markerHeight="12" markerUnits="userSpaceOnUse" orient="auto-start-reverse"><rect x="2" y="2" width="8" height="8" fill="#1e293b" stroke="#1e293b" stroke-width="1.5"/></marker><marker id="arrow-plus" viewBox="0 0 12 12" refX="11" refY="6" markerWidth="12" markerHeight="12" markerUnits="userSpaceOnUse" orient="auto-start-reverse"><path d="M6,1 L6,11 M1,6 L11,6" fill="none" stroke="#1e293b" stroke-width="1.8" stroke-linecap="round"/></marker><marker id="arrow-slash" viewBox="0 0 12 12" refX="10" refY="6" markerWidth="12" markerHeight="12" markerUnits="userSpaceOnUse" orient="auto-start-reverse"><path d="M3,2 L9,10" fill="none" stroke="#1e293b" stroke-width="1.8" stroke-linecap="round"/></marker><marker id="arrow-cross" viewBox="0 0 12 12" refX="11" refY="6" markerWidth="12" markerHeight="12" markerUnits="userSpaceOnUse" orient="auto-start-reverse"><path d="M2,2 L10,10 M10,2 L2,10" fill="none" stroke="#1e293b" stroke-width="1.8" stroke-linecap="round"/></marker><marker id="arrow-bracket-open" viewBox="0 0 12 14" refX="11" refY="7" markerWidth="12" markerHeight="14" markerUnits="userSpaceOnUse" orient="auto-start-reverse"><path d="M10,1 L4,1 L4,13 L10,13" fill="none" stroke="#1e293b" stroke-width="1.8" stroke-linecap="round" stroke-linejoin="round"/></marker></defs><marker id="arrow-ie-one" viewBox="0 0 24 16" refX="22" refY="8" markerWidth="24" markerHeight="16" markerUnits="userSpaceOnUse" orient="auto-start-reverse"><path d="M16,2 L16,14" fill="none" stroke="#1e293b" stroke-width="1.8" stroke-linecap="round"/></marker><marker id="arrow-ie-zero-one" viewBox="0 0 30 16" refX="28" refY="8" markerWidth="30" markerHeight="16" markerUnits="userSpaceOnUse" orient="auto-start-reverse"><circle cx="10" cy="8" r="4" fill="#ffffff" stroke="#1e293b" stroke-width="1.5"/><path d="M20,2 L20,14" fill="none" stroke="#1e293b" stroke-width="1.8" stroke-linecap="round"/></marker><marker id="arrow-ie-zero-many" viewBox="0 0 34 18" refX="32" refY="9" markerWidth="34" markerHeight="18" markerUnits="userSpaceOnUse" orient="auto-start-reverse"><circle cx="8" cy="9" r="4" fill="#ffffff" stroke="#1e293b" stroke-width="1.5"/><path d="M18,9 L31,2 M18,9 L31,9 M18,9 L31,16" fill="none" stroke="#1e293b" stroke-width="1.7" stroke-linecap="round"/></marker><marker id="arrow-ie-one-many" viewBox="0 0 34 18" refX="32" refY="9" markerWidth="34" markerHeight="18" markerUnits="userSpaceOnUse" orient="auto-start-reverse"><path d="M8,2 L8,16 M18,9 L31,2 M18,9 L31,9 M18,9 L31,16" fill="none" stroke="#1e293b" stroke-width="1.7" stroke-linecap="round"/></marker><rect class="uml-group-frame" data-uml-group="Transports" x="48" y="8" width="712" height="144" rx="8" ry="8" fill="#f8faff" stroke="#1e293b" stroke-width="1.5"/><rect x="48" y="8" width="712" height="40" rx="8" ry="8" fill="#1e293b" stroke="none"/><rect x="48" y="40" width="712" height="8" fill="#1e293b" stroke="none"/><text x="56" y="40" font-family="monospace" font-size="11" font-weight="600" fill="#ffffff">package Transports</text><line x1="48" y1="48" x2="760" y2="48" stroke="#1e293b" stroke-width="1"/><rect class="uml-group-frame" data-uml-group="Frontends" x="48" y="252" width="224" height="144" rx="8" ry="8" fill="#f8faff" stroke="#1e293b" stroke-width="1.5"/><rect x="48" y="252" width="224" height="40" rx="8" ry="8" fill="#1e293b" stroke="none"/><rect x="48" y="284" width="224" height="8" fill="#1e293b" stroke="none"/><rect class="uml-edge-label-bg" data-uml-label-role="edge-background" x="54" y="283" width="123" height="18" fill="white" opacity="0.85"/><text x="56" y="284" font-family="monospace" font-size="11" font-weight="600" fill="#ffffff">package Frontends</text><line x1="48" y1="292" x2="272" y2="292" stroke="#1e293b" stroke-width="1"/><rect class="uml-group-frame" data-uml-group="Shared Services" x="556" y="252" width="468" height="388" rx="8" ry="8" fill="#f8faff" stroke="#1e293b" stroke-width="1.5"/><rect x="556" y="252" width="468" height="40" rx="8" ry="8" fill="#1e293b" stroke="none"/><rect x="556" y="284" width="468" height="8" fill="#1e293b" stroke="none"/><rect class="uml-edge-label-bg" data-uml-label-role="edge-background" x="562" y="283" width="165" height="18" fill="white" opacity="0.85"/><text x="564" y="284" font-family="monospace" font-size="11" font-weight="600" fill="#ffffff">package Shared Services</text><line x1="556" y1="292" x2="1024" y2="292" stroke="#1e293b" stroke-width="1"/><rect class="uml-group-frame" data-uml-group="Pipeline Core" x="170" y="496" width="346" height="876" rx="8" ry="8" fill="#f8faff" stroke="#1e293b" stroke-width="1.5"/><rect x="170" y="496" width="346" height="40" rx="8" ry="8" fill="#1e293b" stroke="none"/><rect x="170" y="528" width="346" height="8" fill="#1e293b" stroke="none"/><rect class="uml-edge-label-bg" data-uml-label-role="edge-background" x="176" y="527" width="151" height="18" fill="white" opacity="0.85"/><text x="178" y="528" font-family="monospace" font-size="11" font-weight="600" fill="#ffffff">package Pipeline Core</text><line x1="170" y1="536" x2="516" y2="536" stroke="#1e293b" stroke-width="1"/><rect class="uml-group-frame" data-uml-group="Output Formats" x="292" y="1472" width="224" height="144" rx="8" ry="8" fill="#f8faff" stroke="#1e293b" stroke-width="1.5"/><rect x="292" y="1472" width="224" height="40" rx="8" ry="8" fill="#1e293b" stroke="none"/><rect x="292" y="1504" width="224" height="8" fill="#1e293b" stroke="none"/><rect class="uml-edge-label-bg" data-uml-label-role="edge-background" x="298" y="1503" width="158" height="18" fill="white" opacity="0.85"/><text x="300" y="1504" font-family="monospace" font-size="11" font-weight="600" fill="#ffffff">package Output Formats</text><line x1="292" y1="1512" x2="516" y2="1512" stroke="#1e293b" stroke-width="1"/><desc data-uml-id="Transports::CLI">Transports::CLI</desc><rect class="uml-node uml-component" data-uml-kind="component" x="60" y="60" width="200" height="80" rx="4" ry="4" fill="#f0f4f8" stroke="#1e293b" stroke-width="1.5"/><rect x="56" y="72" width="16" height="8" fill="#f0f4f8" stroke="#1e293b" stroke-width="1"/><rect x="56" y="120" width="16" height="8" fill="#f0f4f8" stroke="#1e293b" stroke-width="1"/><text x="160" y="106" text-anchor="middle" font-family="monospace" font-size="13" font-weight="600" fill="#0f172a">CLI</text><desc data-uml-id="Transports::LSP">Transports::LSP</desc><rect class="uml-node uml-component" data-uml-kind="component" x="304" y="60" width="200" height="80" rx="4" ry="4" fill="#f0f4f8" stroke="#1e293b" stroke-width="1.5"/><rect x="300" y="72" width="16" height="8" fill="#f0f4f8" stroke="#1e293b" stroke-width="1"/><rect x="300" y="120" width="16" height="8" fill="#f0f4f8" stroke="#1e293b" stroke-width="1"/><text x="404" y="106" text-anchor="middle" font-family="monospace" font-size="13" font-weight="600" fill="#0f172a">LSP</text><desc data-uml-id="Transports::WASM">Transports::WASM</desc><rect class="uml-node uml-component" data-uml-kind="component" x="548" y="60" width="200" height="80" rx="4" ry="4" fill="#f0f4f8" stroke="#1e293b" stroke-width="1.5"/><rect x="544" y="72" width="16" height="8" fill="#f0f4f8" stroke="#1e293b" stroke-width="1"/><rect x="544" y="120" width="16" height="8" fill="#f0f4f8" stroke="#1e293b" stroke-width="1"/><text x="648" y="106" text-anchor="middle" font-family="monospace" font-size="13" font-weight="600" fill="#0f172a">WASM</text><desc data-uml-id="Frontends::Frontends">Frontends::Frontends</desc><rect class="uml-node uml-component" data-uml-kind="component" x="60" y="304" width="200" height="80" rx="4" ry="4" fill="#f0f4f8" stroke="#1e293b" stroke-width="1.5"/><rect x="56" y="316" width="16" height="8" fill="#f0f4f8" stroke="#1e293b" stroke-width="1"/><rect x="56" y="364" width="16" height="8" fill="#f0f4f8" stroke="#1e293b" stroke-width="1"/><text x="160" y="350" text-anchor="middle" font-family="monospace" font-size="13" font-weight="600" fill="#0f172a">Adapters</text><desc data-uml-id="Shared Services::Preproc">Shared Services::Preproc</desc><rect class="uml-node uml-component" data-uml-kind="component" x="568" y="304" width="200" height="80" rx="4" ry="4" fill="#f0f4f8" stroke="#1e293b" stroke-width="1.5"/><rect x="564" y="316" width="16" height="8" fill="#f0f4f8" stroke="#1e293b" stroke-width="1"/><rect x="564" y="364" width="16" height="8" fill="#f0f4f8" stroke="#1e293b" stroke-width="1"/><text x="668" y="350" text-anchor="middle" font-family="monospace" font-size="13" font-weight="600" fill="#0f172a">Preprocessor</text><desc data-uml-id="Shared Services::LangSvc">Shared Services::LangSvc</desc><rect class="uml-node uml-component" data-uml-kind="component" x="812" y="304" width="200" height="80" rx="4" ry="4" fill="#f0f4f8" stroke="#1e293b" stroke-width="1.5"/><rect x="808" y="316" width="16" height="8" fill="#f0f4f8" stroke="#1e293b" stroke-width="1"/><rect x="808" y="364" width="16" height="8" fill="#f0f4f8" stroke="#1e293b" stroke-width="1"/><text x="912" y="350" text-anchor="middle" font-family="monospace" font-size="13" font-weight="600" fill="#0f172a">Language Service</text><desc data-uml-id="Shared Services::RenderSupport">Shared Services::RenderSupport</desc><rect class="uml-node uml-component" data-uml-kind="component" x="690" y="548" width="200" height="80" rx="4" ry="4" fill="#f0f4f8" stroke="#1e293b" stroke-width="1.5"/><rect x="686" y="560" width="16" height="8" fill="#f0f4f8" stroke="#1e293b" stroke-width="1"/><rect x="686" y="608" width="16" height="8" fill="#f0f4f8" stroke="#1e293b" stroke-width="1"/><text x="790" y="594" text-anchor="middle" font-family="monospace" font-size="13" font-weight="600" fill="#0f172a">Diagnostics + Theme</text><desc data-uml-id="Pipeline Core::Parser">Pipeline Core::Parser</desc><rect class="uml-node uml-component" data-uml-kind="component" x="182" y="548" width="200" height="80" rx="4" ry="4" fill="#f0f4f8" stroke="#1e293b" stroke-width="1.5"/><rect x="178" y="560" width="16" height="8" fill="#f0f4f8" stroke="#1e293b" stroke-width="1"/><rect x="178" y="608" width="16" height="8" fill="#f0f4f8" stroke="#1e293b" stroke-width="1"/><text x="282" y="594" text-anchor="middle" font-family="monospace" font-size="13" font-weight="600" fill="#0f172a">Parser</text><desc data-uml-id="Pipeline Core::AST">Pipeline Core::AST</desc><rect class="uml-node uml-component" data-uml-kind="component" x="304" y="792" width="200" height="80" rx="4" ry="4" fill="#f0f4f8" stroke="#1e293b" stroke-width="1.5"/><rect x="300" y="804" width="16" height="8" fill="#f0f4f8" stroke="#1e293b" stroke-width="1"/><rect x="300" y="852" width="16" height="8" fill="#f0f4f8" stroke="#1e293b" stroke-width="1"/><rect class="uml-edge-label-bg" data-uml-label-role="edge-background" x="392" y="825" width="24" height="18" fill="white" opacity="0.85"/><text x="404" y="838" text-anchor="middle" font-family="monospace" font-size="13" font-weight="600" fill="#0f172a">AST</text><desc data-uml-id="Pipeline Core::Normalizer">Pipeline Core::Normalizer</desc><rect class="uml-node uml-component" data-uml-kind="component" x="304" y="1036" width="200" height="80" rx="4" ry="4" fill="#f0f4f8" stroke="#1e293b" stroke-width="1.5"/><rect x="300" y="1048" width="16" height="8" fill="#f0f4f8" stroke="#1e293b" stroke-width="1"/><rect x="300" y="1096" width="16" height="8" fill="#f0f4f8" stroke="#1e293b" stroke-width="1"/><rect class="uml-edge-label-bg" data-uml-label-role="edge-background" x="367" y="1069" width="74" height="18" fill="white" opacity="0.85"/><text x="404" y="1082" text-anchor="middle" font-family="monospace" font-size="13" font-weight="600" fill="#0f172a">Normalizer</text><desc data-uml-id="Pipeline Core::Renderer">Pipeline Core::Renderer</desc><rect class="uml-node uml-component" data-uml-kind="component" x="304" y="1280" width="200" height="80" rx="4" ry="4" fill="#f0f4f8" stroke="#1e293b" stroke-width="1.5"/><rect x="300" y="1292" width="16" height="8" fill="#f0f4f8" stroke="#1e293b" stroke-width="1"/><rect x="300" y="1340" width="16" height="8" fill="#f0f4f8" stroke="#1e293b" stroke-width="1"/><text x="404" y="1326" text-anchor="middle" font-family="monospace" font-size="13" font-weight="600" fill="#0f172a">Renderer</text><desc data-uml-id="Output Formats::Outputs">Output Formats::Outputs</desc><rect class="uml-node uml-component" data-uml-kind="component" x="304" y="1524" width="200" height="80" rx="4" ry="4" fill="#f0f4f8" stroke="#1e293b" stroke-width="1.5"/><rect x="300" y="1536" width="16" height="8" fill="#f0f4f8" stroke="#1e293b" stroke-width="1"/><rect x="300" y="1584" width="16" height="8" fill="#f0f4f8" stroke="#1e293b" stroke-width="1"/><text x="404" y="1570" text-anchor="middle" font-family="monospace" font-size="13" font-weight="600" fill="#0f172a">SVG / PNG / Text</text><polyline class="uml-relation" data-uml-from="CLI" data-uml-to="Frontends" data-uml-arrow="--&gt;" points="160,140 160,163 160,304" fill="none" stroke="#1e293b" stroke-width="2" marker-end="url(#arrow-open)" /><polyline class="uml-relation" data-uml-from="CLI" data-uml-to="Preproc" data-uml-arrow="--&gt;" points="260,100 260,202 568,202 568,344" fill="none" stroke="#1e293b" stroke-width="2" marker-end="url(#arrow-open)" /><polyline class="uml-relation" data-uml-from="LSP" data-uml-to="LangSvc" data-uml-arrow="--&gt;" points="504,100 504,241 812,241 812,344" fill="none" stroke="#1e293b" stroke-width="2" marker-end="url(#arrow-open)" /><polyline class="uml-relation" data-uml-from="WASM" data-uml-to="LangSvc" data-uml-arrow="--&gt;" points="748,100 748,300 812,300 812,344" fill="none" stroke="#1e293b" stroke-width="2" marker-end="url(#arrow-open)" /><polyline class="uml-relation" data-uml-from="Frontends" data-uml-to="Parser" data-uml-arrow="--&gt;" points="160,384 160,407 282,407 282,548" fill="none" stroke="#1e293b" stroke-width="2" marker-end="url(#arrow-open)" /><polyline class="uml-relation" data-uml-from="Preproc" data-uml-to="Parser" data-uml-arrow="--&gt;" points="568,344 568,446 382,446 382,588" fill="none" stroke="#1e293b" stroke-width="2" marker-end="url(#arrow-open)" /><polyline class="uml-relation" data-uml-from="LangSvc" data-uml-to="Parser" data-uml-arrow="--&gt;" points="812,344 812,485 382,485 382,588" fill="none" stroke="#1e293b" stroke-width="2" marker-end="url(#arrow-open)" /><polyline class="uml-relation" data-uml-from="LangSvc" data-uml-to="RenderSupport" data-uml-arrow="--&gt;" points="912,384 912,544 790,544 790,548" fill="none" stroke="#1e293b" stroke-width="2" marker-end="url(#arrow-open)" /><polyline class="uml-relation" data-uml-from="RenderSupport" data-uml-to="Renderer" data-uml-arrow="--&gt;" points="790,628 790,714 404,714 404,1280" fill="none" stroke="#1e293b" stroke-width="2" marker-end="url(#arrow-open)" /><polyline class="uml-relation" data-uml-from="Parser" data-uml-to="AST" data-uml-arrow="--&gt;" points="282,628 282,706 404,706 404,792" fill="none" stroke="#1e293b" stroke-width="2" marker-end="url(#arrow-open)" /><polyline class="uml-relation" data-uml-from="AST" data-uml-to="Normalizer" data-uml-arrow="--&gt;" points="404,872 404,1006 404,1036" fill="none" stroke="#1e293b" stroke-width="2" marker-end="url(#arrow-open)" /><polyline class="uml-relation" data-uml-from="Normalizer" data-uml-to="Renderer" data-uml-arrow="--&gt;" points="404,1116 404,1250 404,1280" fill="none" stroke="#1e293b" stroke-width="2" marker-end="url(#arrow-open)" /><polyline class="uml-relation" data-uml-from="Renderer" data-uml-to="Outputs" data-uml-arrow="--&gt;" points="404,1360 404,1442 404,1524" fill="none" stroke="#1e293b" stroke-width="2" marker-end="url(#arrow-open)" /></svg>