<svg xmlns="http://www.w3.org/2000/svg" width="1248" height="2056" viewBox="0 0 1248 2056"><rect width="100%" height="100%" fill="#f0f4f8"/><defs><marker id="arrow-open" viewBox="0 0 10 10" refX="9" refY="5" markerWidth="10" markerHeight="10" markerUnits="userSpaceOnUse" orient="auto-start-reverse"><path d="M0,0 L10,5 L0,10" fill="none" stroke="#1e293b" stroke-width="1.5"/></marker><marker id="arrow-triangle" viewBox="0 0 12 12" refX="11" refY="6" markerWidth="12" markerHeight="12" markerUnits="userSpaceOnUse" orient="auto-start-reverse"><polygon points="0,0 12,6 0,12" fill="#ffffff" stroke="#1e293b" stroke-width="1.5" fill-rule="nonzero"/></marker><marker id="arrow-diamond-filled" viewBox="0 0 14 10" refX="13" refY="5" markerWidth="14" markerHeight="10" markerUnits="userSpaceOnUse" orient="auto-start-reverse"><path d="M0,5 L7,0 L14,5 L7,10 z" fill="#1e293b" stroke="#1e293b" stroke-width="1"/></marker><marker id="arrow-diamond-open" viewBox="0 0 14 10" refX="13" refY="5" markerWidth="14" markerHeight="10" markerUnits="userSpaceOnUse" orient="auto-start-reverse"><path d="M0,5 L7,0 L14,5 L7,10 z" fill="#ffffff" stroke="#1e293b" stroke-width="1"/></marker></defs><rect class="uml-group-frame" data-uml-group="Transports" x="80" y="40" width="824" height="168" rx="8" ry="8" fill="#f8faff" stroke="#1e293b" stroke-width="1.5"/><rect x="80" y="40" width="824" height="40" rx="8" ry="8" fill="#1e293b" stroke="none"/><rect x="80" y="72" width="824" height="8" fill="#1e293b" stroke="none"/><text x="88" y="72" font-family="monospace" font-size="11" font-weight="600" fill="#ffffff">package Transports</text><line x1="80" y1="80" x2="904" y2="80" stroke="#1e293b" stroke-width="1"/><rect class="uml-group-frame" data-uml-group="Frontends" x="80" y="328" width="248" height="168" rx="8" ry="8" fill="#f8faff" stroke="#1e293b" stroke-width="1.5"/><rect x="80" y="328" width="248" height="40" rx="8" ry="8" fill="#1e293b" stroke="none"/><rect x="80" y="360" width="248" height="8" fill="#1e293b" stroke="none"/><text x="88" y="360" font-family="monospace" font-size="11" font-weight="600" fill="#ffffff">package Frontends</text><line x1="80" y1="368" x2="328" y2="368" stroke="#1e293b" stroke-width="1"/><rect class="uml-group-frame" data-uml-group="Shared Services" x="656" y="328" width="536" height="456" rx="8" ry="8" fill="#f8faff" stroke="#1e293b" stroke-width="1.5"/><rect x="656" y="328" width="536" height="40" rx="8" ry="8" fill="#1e293b" stroke="none"/><rect x="656" y="360" width="536" height="8" fill="#1e293b" stroke="none"/><text x="664" y="360" font-family="monospace" font-size="11" font-weight="600" fill="#ffffff">package Shared Services</text><line x1="656" y1="368" x2="1192" y2="368" stroke="#1e293b" stroke-width="1"/><rect class="uml-group-frame" data-uml-group="Pipeline Core" x="224" y="616" width="392" height="1032" rx="8" ry="8" fill="#f8faff" stroke="#1e293b" stroke-width="1.5"/><rect x="224" y="616" width="392" height="40" rx="8" ry="8" fill="#1e293b" stroke="none"/><rect x="224" y="648" width="392" height="8" fill="#1e293b" stroke="none"/><text x="232" y="648" font-family="monospace" font-size="11" font-weight="600" fill="#ffffff">package Pipeline Core</text><line x1="224" y1="656" x2="616" y2="656" stroke="#1e293b" stroke-width="1"/><rect class="uml-group-frame" data-uml-group="Output Formats" x="368" y="1768" width="248" height="168" rx="8" ry="8" fill="#f8faff" stroke="#1e293b" stroke-width="1.5"/><rect x="368" y="1768" width="248" height="40" rx="8" ry="8" fill="#1e293b" stroke="none"/><rect x="368" y="1800" width="248" height="8" fill="#1e293b" stroke="none"/><text x="376" y="1800" font-family="monospace" font-size="11" font-weight="600" fill="#ffffff">package Output Formats</text><line x1="368" y1="1808" x2="616" y2="1808" stroke="#1e293b" stroke-width="1"/><desc data-uml-id="Transports::CLI">Transports::CLI</desc><rect class="uml-node uml-component" data-uml-kind="component" x="104" y="104" width="200" height="80" rx="4" ry="4" fill="#f0f4f8" stroke="#1e293b" stroke-width="1"/><rect x="100" y="116" width="16" height="8" fill="#f0f4f8" stroke="#1e293b" stroke-width="1"/><rect x="100" y="164" width="16" height="8" fill="#f0f4f8" stroke="#1e293b" stroke-width="1"/><text x="204" y="150" text-anchor="middle" font-family="monospace" font-size="13" font-weight="600" fill="#0f172a">CLI</text><text x="204" y="118" text-anchor="middle" font-family="monospace" font-size="10" fill="#0f172a">«component»</text><desc data-uml-id="Transports::LSP">Transports::LSP</desc><rect class="uml-node uml-component" data-uml-kind="component" x="392" y="104" width="200" height="80" rx="4" ry="4" fill="#f0f4f8" stroke="#1e293b" stroke-width="1"/><rect x="388" y="116" width="16" height="8" fill="#f0f4f8" stroke="#1e293b" stroke-width="1"/><rect x="388" y="164" width="16" height="8" fill="#f0f4f8" stroke="#1e293b" stroke-width="1"/><text x="492" y="150" text-anchor="middle" font-family="monospace" font-size="13" font-weight="600" fill="#0f172a">LSP</text><text x="492" y="118" text-anchor="middle" font-family="monospace" font-size="10" fill="#0f172a">«component»</text><desc data-uml-id="Transports::WASM">Transports::WASM</desc><rect class="uml-node uml-component" data-uml-kind="component" x="680" y="104" width="200" height="80" rx="4" ry="4" fill="#f0f4f8" stroke="#1e293b" stroke-width="1"/><rect x="676" y="116" width="16" height="8" fill="#f0f4f8" stroke="#1e293b" stroke-width="1"/><rect x="676" y="164" width="16" height="8" fill="#f0f4f8" stroke="#1e293b" stroke-width="1"/><text x="780" y="150" text-anchor="middle" font-family="monospace" font-size="13" font-weight="600" fill="#0f172a">WASM</text><text x="780" y="118" text-anchor="middle" font-family="monospace" font-size="10" fill="#0f172a">«component»</text><desc data-uml-id="Frontends::Frontends">Frontends::Frontends</desc><rect class="uml-node uml-component" data-uml-kind="component" x="104" y="392" width="200" height="80" rx="4" ry="4" fill="#f0f4f8" stroke="#1e293b" stroke-width="1"/><rect x="100" y="404" width="16" height="8" fill="#f0f4f8" stroke="#1e293b" stroke-width="1"/><rect x="100" y="452" width="16" height="8" fill="#f0f4f8" stroke="#1e293b" stroke-width="1"/><text x="204" y="438" text-anchor="middle" font-family="monospace" font-size="13" font-weight="600" fill="#0f172a">Adapters</text><text x="204" y="406" text-anchor="middle" font-family="monospace" font-size="10" fill="#0f172a">«component»</text><desc data-uml-id="Shared Services::Preproc">Shared Services::Preproc</desc><rect class="uml-node uml-component" data-uml-kind="component" x="680" y="392" width="200" height="80" rx="4" ry="4" fill="#f0f4f8" stroke="#1e293b" stroke-width="1"/><rect x="676" y="404" width="16" height="8" fill="#f0f4f8" stroke="#1e293b" stroke-width="1"/><rect x="676" y="452" width="16" height="8" fill="#f0f4f8" stroke="#1e293b" stroke-width="1"/><text x="780" y="438" text-anchor="middle" font-family="monospace" font-size="13" font-weight="600" fill="#0f172a">Preprocessor</text><text x="780" y="406" text-anchor="middle" font-family="monospace" font-size="10" fill="#0f172a">«component»</text><desc data-uml-id="Shared Services::LangSvc">Shared Services::LangSvc</desc><rect class="uml-node uml-component" data-uml-kind="component" x="968" y="392" width="200" height="80" rx="4" ry="4" fill="#f0f4f8" stroke="#1e293b" stroke-width="1"/><rect x="964" y="404" width="16" height="8" fill="#f0f4f8" stroke="#1e293b" stroke-width="1"/><rect x="964" y="452" width="16" height="8" fill="#f0f4f8" stroke="#1e293b" stroke-width="1"/><text x="1068" y="438" text-anchor="middle" font-family="monospace" font-size="13" font-weight="600" fill="#0f172a">Language Service</text><text x="1068" y="406" text-anchor="middle" font-family="monospace" font-size="10" fill="#0f172a">«component»</text><desc data-uml-id="Shared Services::RenderSupport">Shared Services::RenderSupport</desc><rect class="uml-node uml-component" data-uml-kind="component" x="824" y="680" width="200" height="80" rx="4" ry="4" fill="#f0f4f8" stroke="#1e293b" stroke-width="1"/><rect x="820" y="692" width="16" height="8" fill="#f0f4f8" stroke="#1e293b" stroke-width="1"/><rect x="820" y="740" width="16" height="8" fill="#f0f4f8" stroke="#1e293b" stroke-width="1"/><text x="924" y="726" text-anchor="middle" font-family="monospace" font-size="13" font-weight="600" fill="#0f172a">Diagnostics + Theme</text><text x="924" y="694" text-anchor="middle" font-family="monospace" font-size="10" fill="#0f172a">«component»</text><desc data-uml-id="Pipeline Core::Parser">Pipeline Core::Parser</desc><rect class="uml-node uml-component" data-uml-kind="component" x="248" y="680" width="200" height="80" rx="4" ry="4" fill="#f0f4f8" stroke="#1e293b" stroke-width="1"/><rect x="244" y="692" width="16" height="8" fill="#f0f4f8" stroke="#1e293b" stroke-width="1"/><rect x="244" y="740" width="16" height="8" fill="#f0f4f8" stroke="#1e293b" stroke-width="1"/><text x="348" y="726" text-anchor="middle" font-family="monospace" font-size="13" font-weight="600" fill="#0f172a">Parser</text><text x="348" y="694" text-anchor="middle" font-family="monospace" font-size="10" fill="#0f172a">«component»</text><desc data-uml-id="Pipeline Core::AST">Pipeline Core::AST</desc><rect class="uml-node uml-component" data-uml-kind="component" x="392" y="968" width="200" height="80" rx="4" ry="4" fill="#f0f4f8" stroke="#1e293b" stroke-width="1"/><rect x="388" y="980" width="16" height="8" fill="#f0f4f8" stroke="#1e293b" stroke-width="1"/><rect x="388" y="1028" width="16" height="8" fill="#f0f4f8" stroke="#1e293b" stroke-width="1"/><text x="492" y="1014" text-anchor="middle" font-family="monospace" font-size="13" font-weight="600" fill="#0f172a">AST</text><text x="492" y="982" text-anchor="middle" font-family="monospace" font-size="10" fill="#0f172a">«component»</text><desc data-uml-id="Pipeline Core::Normalizer">Pipeline Core::Normalizer</desc><rect class="uml-node uml-component" data-uml-kind="component" x="392" y="1256" width="200" height="80" rx="4" ry="4" fill="#f0f4f8" stroke="#1e293b" stroke-width="1"/><rect x="388" y="1268" width="16" height="8" fill="#f0f4f8" stroke="#1e293b" stroke-width="1"/><rect x="388" y="1316" width="16" height="8" fill="#f0f4f8" stroke="#1e293b" stroke-width="1"/><text x="492" y="1302" text-anchor="middle" font-family="monospace" font-size="13" font-weight="600" fill="#0f172a">Normalizer</text><text x="492" y="1270" text-anchor="middle" font-family="monospace" font-size="10" fill="#0f172a">«component»</text><desc data-uml-id="Pipeline Core::Renderer">Pipeline Core::Renderer</desc><rect class="uml-node uml-component" data-uml-kind="component" x="392" y="1544" width="200" height="80" rx="4" ry="4" fill="#f0f4f8" stroke="#1e293b" stroke-width="1"/><rect x="388" y="1556" width="16" height="8" fill="#f0f4f8" stroke="#1e293b" stroke-width="1"/><rect x="388" y="1604" width="16" height="8" fill="#f0f4f8" stroke="#1e293b" stroke-width="1"/><text x="492" y="1590" text-anchor="middle" font-family="monospace" font-size="13" font-weight="600" fill="#0f172a">Renderer</text><text x="492" y="1558" text-anchor="middle" font-family="monospace" font-size="10" fill="#0f172a">«component»</text><desc data-uml-id="Output Formats::Outputs">Output Formats::Outputs</desc><rect class="uml-node uml-component" data-uml-kind="component" x="392" y="1832" width="200" height="80" rx="4" ry="4" fill="#f0f4f8" stroke="#1e293b" stroke-width="1"/><rect x="388" y="1844" width="16" height="8" fill="#f0f4f8" stroke="#1e293b" stroke-width="1"/><rect x="388" y="1892" width="16" height="8" fill="#f0f4f8" stroke="#1e293b" stroke-width="1"/><text x="492" y="1878" text-anchor="middle" font-family="monospace" font-size="13" font-weight="600" fill="#0f172a">SVG / PNG / Text</text><text x="492" y="1846" text-anchor="middle" font-family="monospace" font-size="10" fill="#0f172a">«component»</text><polyline class="uml-relation" data-uml-from="CLI" data-uml-to="Frontends" data-uml-arrow="--&gt;" points="204,184 204,288 204,392" fill="none" stroke="#1e293b" stroke-width="2" marker-end="url(#arrow-open)" /><polyline class="uml-relation" data-uml-from="CLI" data-uml-to="Preproc" data-uml-arrow="--&gt;" points="304,144 304,380 680,380 680,432" fill="none" stroke="#1e293b" stroke-width="2" marker-end="url(#arrow-open)" /><polyline class="uml-relation" data-uml-from="LSP" data-uml-to="LangSvc" data-uml-arrow="--&gt;" points="592,144 592,380 968,380 968,432" fill="none" stroke="#1e293b" stroke-width="2" marker-end="url(#arrow-open)" /><polyline class="uml-relation" data-uml-from="WASM" data-uml-to="LangSvc" data-uml-arrow="--&gt;" points="780,184 780,380 1068,380 1068,392" fill="none" stroke="#1e293b" stroke-width="2" marker-end="url(#arrow-open)" /><polyline class="uml-relation" data-uml-from="Frontends" data-uml-to="Parser" data-uml-arrow="--&gt;" points="204,472 204,668 348,668 348,680" fill="none" stroke="#1e293b" stroke-width="2" marker-end="url(#arrow-open)" /><polyline class="uml-relation" data-uml-from="Preproc" data-uml-to="Parser" data-uml-arrow="--&gt;" points="680,432 680,668 448,668 448,720" fill="none" stroke="#1e293b" stroke-width="2" marker-end="url(#arrow-open)" /><polyline class="uml-relation" data-uml-from="LangSvc" data-uml-to="Parser" data-uml-arrow="--&gt;" points="968,432 968,668 448,668 448,720" fill="none" stroke="#1e293b" stroke-width="2" marker-end="url(#arrow-open)" /><polyline class="uml-relation" data-uml-from="LangSvc" data-uml-to="RenderSupport" data-uml-arrow="--&gt;" points="1068,472 1068,668 924,668 924,680" fill="none" stroke="#1e293b" stroke-width="2" marker-end="url(#arrow-open)" /><polyline class="uml-relation" data-uml-from="RenderSupport" data-uml-to="Renderer" data-uml-arrow="--&gt;" points="924,760 924,868 492,868 492,1544" fill="none" stroke="#1e293b" stroke-width="2" marker-end="url(#arrow-open)" /><polyline class="uml-relation" data-uml-from="Parser" data-uml-to="AST" data-uml-arrow="--&gt;" points="348,760 348,860 492,860 492,968" fill="none" stroke="#1e293b" stroke-width="2" marker-end="url(#arrow-open)" /><polyline class="uml-relation" data-uml-from="AST" data-uml-to="Normalizer" data-uml-arrow="--&gt;" points="492,1048 492,1152 492,1256" fill="none" stroke="#1e293b" stroke-width="2" marker-end="url(#arrow-open)" /><polyline class="uml-relation" data-uml-from="Normalizer" data-uml-to="Renderer" data-uml-arrow="--&gt;" points="492,1336 492,1440 492,1544" fill="none" stroke="#1e293b" stroke-width="2" marker-end="url(#arrow-open)" /><polyline class="uml-relation" data-uml-from="Renderer" data-uml-to="Outputs" data-uml-arrow="--&gt;" points="492,1624 492,1728 492,1832" fill="none" stroke="#1e293b" stroke-width="2" marker-end="url(#arrow-open)" /></svg>