<svg xmlns="http://www.w3.org/2000/svg" width="1384" height="1504" viewBox="0 0 1384 1504"><rect width="100%" height="100%" fill="#f0f4f8"/><defs><marker id="arrow-open" viewBox="0 0 10 10" refX="9" refY="5" markerWidth="10" markerHeight="10" markerUnits="userSpaceOnUse" orient="auto-start-reverse"><path d="M0,0 L10,5 L0,10" fill="none" stroke="#1e293b" stroke-width="1.5"/></marker><marker id="arrow-triangle" viewBox="0 0 12 12" refX="11" refY="6" markerWidth="12" markerHeight="12" markerUnits="userSpaceOnUse" orient="auto-start-reverse"><polygon points="0,0 12,6 0,12" fill="#ffffff" stroke="#1e293b" stroke-width="1.5" fill-rule="nonzero"/></marker><marker id="arrow-diamond-filled" viewBox="0 0 14 10" refX="13" refY="5" markerWidth="14" markerHeight="10" markerUnits="userSpaceOnUse" orient="auto-start-reverse"><path d="M0,5 L7,0 L14,5 L7,10 z" fill="#1e293b" stroke="#1e293b" stroke-width="1"/></marker><marker id="arrow-diamond-open" viewBox="0 0 14 10" refX="13" refY="5" markerWidth="14" markerHeight="10" markerUnits="userSpaceOnUse" orient="auto-start-reverse"><path d="M0,5 L7,0 L14,5 L7,10 z" fill="#ffffff" stroke="#1e293b" stroke-width="1"/></marker></defs><rect class="uml-group-frame" data-uml-group="Frontends" x="68" y="240" width="728" height="156" rx="8" ry="8" fill="#f8faff" stroke="#1e293b" stroke-width="1.5"/><rect x="68" y="240" width="152" height="28" rx="8" ry="8" fill="#1e293b" stroke="#1e293b" stroke-width="1.5"/><rect x="68" y="260" width="152" height="8" fill="#1e293b" stroke="none"/><text x="76" y="260" font-family="monospace" font-size="11" font-weight="600" fill="#ffffff">package Frontends</text><line x1="68" y1="268" x2="796" y2="268" stroke="#1e293b" stroke-width="1"/><rect class="uml-group-frame" data-uml-group="Pipeline Core" x="428" y="440" width="368" height="756" rx="8" ry="8" fill="#f8faff" stroke="#1e293b" stroke-width="1.5"/><rect x="428" y="440" width="184" height="28" rx="8" ry="8" fill="#1e293b" stroke="#1e293b" stroke-width="1.5"/><rect x="428" y="460" width="184" height="8" fill="#1e293b" stroke="none"/><text x="436" y="460" font-family="monospace" font-size="11" font-weight="600" fill="#ffffff">package Pipeline Core</text><line x1="428" y1="468" x2="796" y2="468" stroke="#1e293b" stroke-width="1"/><rect class="uml-group-frame" data-uml-group="Shared Services" x="668" y="40" width="608" height="556" rx="8" ry="8" fill="#f8faff" stroke="#1e293b" stroke-width="1.5"/><rect x="668" y="40" width="200" height="28" rx="8" ry="8" fill="#1e293b" stroke="#1e293b" stroke-width="1.5"/><rect x="668" y="60" width="200" height="8" fill="#1e293b" stroke="none"/><text x="676" y="60" font-family="monospace" font-size="11" font-weight="600" fill="#ffffff">package Shared Services</text><line x1="668" y1="68" x2="1276" y2="68" stroke="#1e293b" stroke-width="1"/><rect class="uml-group-frame" data-uml-group="Transports" x="188" y="40" width="728" height="156" rx="8" ry="8" fill="#f8faff" stroke="#1e293b" stroke-width="1.5"/><rect x="188" y="40" width="160" height="28" rx="8" ry="8" fill="#1e293b" stroke="#1e293b" stroke-width="1.5"/><rect x="188" y="60" width="160" height="8" fill="#1e293b" stroke="none"/><text x="196" y="60" font-family="monospace" font-size="11" font-weight="600" fill="#ffffff">package Transports</text><line x1="188" y1="68" x2="916" y2="68" stroke="#1e293b" stroke-width="1"/><rect class="uml-group-frame" data-uml-group="Output Formats" x="308" y="1240" width="728" height="156" rx="8" ry="8" fill="#f8faff" stroke="#1e293b" stroke-width="1.5"/><rect x="308" y="1240" width="192" height="28" rx="8" ry="8" fill="#1e293b" stroke="#1e293b" stroke-width="1.5"/><rect x="308" y="1260" width="192" height="8" fill="#1e293b" stroke="none"/><text x="316" y="1260" font-family="monospace" font-size="11" font-weight="600" fill="#ffffff">package Output Formats</text><line x1="308" y1="1268" x2="1036" y2="1268" stroke="#1e293b" stroke-width="1"/><desc data-uml-id="Frontends::PlantumlFE">Frontends::PlantumlFE</desc><rect class="uml-node uml-component" data-uml-kind="component" x="572" y="292" width="200" height="80" rx="4" ry="4" fill="#f0f4f8" stroke="#1e293b" stroke-width="1"/><rect x="568" y="304" width="16" height="8" fill="#f0f4f8" stroke="#1e293b" stroke-width="1"/><rect x="568" y="352" width="16" height="8" fill="#f0f4f8" stroke="#1e293b" stroke-width="1"/><text x="672" y="338" text-anchor="middle" font-family="monospace" font-size="13" font-weight="600" fill="#0f172a">PlantUML Frontend</text><text x="672" y="306" text-anchor="middle" font-family="monospace" font-size="10" fill="#0f172a">«component»</text><desc data-uml-id="Frontends::PicoumlFE">Frontends::PicoumlFE</desc><rect class="uml-node uml-component" data-uml-kind="component" x="332" y="292" width="200" height="80" rx="4" ry="4" fill="#f0f4f8" stroke="#1e293b" stroke-width="1"/><rect x="328" y="304" width="16" height="8" fill="#f0f4f8" stroke="#1e293b" stroke-width="1"/><rect x="328" y="352" width="16" height="8" fill="#f0f4f8" stroke="#1e293b" stroke-width="1"/><text x="432" y="338" text-anchor="middle" font-family="monospace" font-size="13" font-weight="600" fill="#0f172a">PicoUML Frontend</text><text x="432" y="306" text-anchor="middle" font-family="monospace" font-size="10" fill="#0f172a">«component»</text><desc data-uml-id="Frontends::MermaidFE">Frontends::MermaidFE</desc><rect class="uml-node uml-component" data-uml-kind="component" x="92" y="292" width="200" height="80" rx="4" ry="4" fill="#f0f4f8" stroke="#1e293b" stroke-width="1"/><rect x="88" y="304" width="16" height="8" fill="#f0f4f8" stroke="#1e293b" stroke-width="1"/><rect x="88" y="352" width="16" height="8" fill="#f0f4f8" stroke="#1e293b" stroke-width="1"/><text x="192" y="338" text-anchor="middle" font-family="monospace" font-size="13" font-weight="600" fill="#0f172a">Mermaid Adapter</text><text x="192" y="306" text-anchor="middle" font-family="monospace" font-size="10" fill="#0f172a">«component»</text><desc data-uml-id="Pipeline Core::Parser">Pipeline Core::Parser</desc><rect class="uml-node uml-component" data-uml-kind="component" x="452" y="492" width="200" height="80" rx="4" ry="4" fill="#f0f4f8" stroke="#1e293b" stroke-width="1"/><rect x="448" y="504" width="16" height="8" fill="#f0f4f8" stroke="#1e293b" stroke-width="1"/><rect x="448" y="552" width="16" height="8" fill="#f0f4f8" stroke="#1e293b" stroke-width="1"/><text x="552" y="538" text-anchor="middle" font-family="monospace" font-size="13" font-weight="600" fill="#0f172a">Parser</text><text x="552" y="506" text-anchor="middle" font-family="monospace" font-size="10" fill="#0f172a">«component»</text><desc data-uml-id="Pipeline Core::AST">Pipeline Core::AST</desc><rect class="uml-node uml-component" data-uml-kind="component" x="572" y="692" width="200" height="80" rx="4" ry="4" fill="#f0f4f8" stroke="#1e293b" stroke-width="1"/><rect x="568" y="704" width="16" height="8" fill="#f0f4f8" stroke="#1e293b" stroke-width="1"/><rect x="568" y="752" width="16" height="8" fill="#f0f4f8" stroke="#1e293b" stroke-width="1"/><text x="672" y="738" text-anchor="middle" font-family="monospace" font-size="13" font-weight="600" fill="#0f172a">AST</text><text x="672" y="706" text-anchor="middle" font-family="monospace" font-size="10" fill="#0f172a">«component»</text><desc data-uml-id="Pipeline Core::Normalizer">Pipeline Core::Normalizer</desc><rect class="uml-node uml-component" data-uml-kind="component" x="572" y="892" width="200" height="80" rx="4" ry="4" fill="#f0f4f8" stroke="#1e293b" stroke-width="1"/><rect x="568" y="904" width="16" height="8" fill="#f0f4f8" stroke="#1e293b" stroke-width="1"/><rect x="568" y="952" width="16" height="8" fill="#f0f4f8" stroke="#1e293b" stroke-width="1"/><text x="672" y="938" text-anchor="middle" font-family="monospace" font-size="13" font-weight="600" fill="#0f172a">Normalizer</text><text x="672" y="906" text-anchor="middle" font-family="monospace" font-size="10" fill="#0f172a">«component»</text><desc data-uml-id="Pipeline Core::Renderer">Pipeline Core::Renderer</desc><rect class="uml-node uml-component" data-uml-kind="component" x="572" y="1092" width="200" height="80" rx="4" ry="4" fill="#f0f4f8" stroke="#1e293b" stroke-width="1"/><rect x="568" y="1104" width="16" height="8" fill="#f0f4f8" stroke="#1e293b" stroke-width="1"/><rect x="568" y="1152" width="16" height="8" fill="#f0f4f8" stroke="#1e293b" stroke-width="1"/><text x="672" y="1138" text-anchor="middle" font-family="monospace" font-size="13" font-weight="600" fill="#0f172a">Renderer</text><text x="672" y="1106" text-anchor="middle" font-family="monospace" font-size="10" fill="#0f172a">«component»</text><desc data-uml-id="Shared Services::Preproc">Shared Services::Preproc</desc><rect class="uml-node uml-component" data-uml-kind="component" x="812" y="292" width="200" height="80" rx="4" ry="4" fill="#f0f4f8" stroke="#1e293b" stroke-width="1"/><rect x="808" y="304" width="16" height="8" fill="#f0f4f8" stroke="#1e293b" stroke-width="1"/><rect x="808" y="352" width="16" height="8" fill="#f0f4f8" stroke="#1e293b" stroke-width="1"/><text x="912" y="338" text-anchor="middle" font-family="monospace" font-size="13" font-weight="600" fill="#0f172a">Preprocessor</text><text x="912" y="306" text-anchor="middle" font-family="monospace" font-size="10" fill="#0f172a">«component»</text><desc data-uml-id="Shared Services::LangSvc">Shared Services::LangSvc</desc><rect class="uml-node uml-component" data-uml-kind="component" x="1052" y="292" width="200" height="80" rx="4" ry="4" fill="#f0f4f8" stroke="#1e293b" stroke-width="1"/><rect x="1048" y="304" width="16" height="8" fill="#f0f4f8" stroke="#1e293b" stroke-width="1"/><rect x="1048" y="352" width="16" height="8" fill="#f0f4f8" stroke="#1e293b" stroke-width="1"/><text x="1152" y="338" text-anchor="middle" font-family="monospace" font-size="13" font-weight="600" fill="#0f172a">Language Service</text><text x="1152" y="306" text-anchor="middle" font-family="monospace" font-size="10" fill="#0f172a">«component»</text><desc data-uml-id="Shared Services::Diag">Shared Services::Diag</desc><rect class="uml-node uml-component" data-uml-kind="component" x="692" y="492" width="200" height="80" rx="4" ry="4" fill="#f0f4f8" stroke="#1e293b" stroke-width="1"/><rect x="688" y="504" width="16" height="8" fill="#f0f4f8" stroke="#1e293b" stroke-width="1"/><rect x="688" y="552" width="16" height="8" fill="#f0f4f8" stroke="#1e293b" stroke-width="1"/><text x="792" y="538" text-anchor="middle" font-family="monospace" font-size="13" font-weight="600" fill="#0f172a">Diagnostics</text><text x="792" y="506" text-anchor="middle" font-family="monospace" font-size="10" fill="#0f172a">«component»</text><desc data-uml-id="Shared Services::Theme">Shared Services::Theme</desc><rect class="uml-node uml-component" data-uml-kind="component" x="932" y="92" width="200" height="80" rx="4" ry="4" fill="#f0f4f8" stroke="#1e293b" stroke-width="1"/><rect x="928" y="104" width="16" height="8" fill="#f0f4f8" stroke="#1e293b" stroke-width="1"/><rect x="928" y="152" width="16" height="8" fill="#f0f4f8" stroke="#1e293b" stroke-width="1"/><text x="1032" y="138" text-anchor="middle" font-family="monospace" font-size="13" font-weight="600" fill="#0f172a">Theme Engine</text><text x="1032" y="106" text-anchor="middle" font-family="monospace" font-size="10" fill="#0f172a">«component»</text><desc data-uml-id="Transports::CLI">Transports::CLI</desc><rect class="uml-node uml-component" data-uml-kind="component" x="212" y="92" width="200" height="80" rx="4" ry="4" fill="#f0f4f8" stroke="#1e293b" stroke-width="1"/><rect x="208" y="104" width="16" height="8" fill="#f0f4f8" stroke="#1e293b" stroke-width="1"/><rect x="208" y="152" width="16" height="8" fill="#f0f4f8" stroke="#1e293b" stroke-width="1"/><text x="312" y="138" text-anchor="middle" font-family="monospace" font-size="13" font-weight="600" fill="#0f172a">CLI Binary</text><text x="312" y="106" text-anchor="middle" font-family="monospace" font-size="10" fill="#0f172a">«component»</text><desc data-uml-id="Transports::LSP">Transports::LSP</desc><rect class="uml-node uml-component" data-uml-kind="component" x="452" y="92" width="200" height="80" rx="4" ry="4" fill="#f0f4f8" stroke="#1e293b" stroke-width="1"/><rect x="448" y="104" width="16" height="8" fill="#f0f4f8" stroke="#1e293b" stroke-width="1"/><rect x="448" y="152" width="16" height="8" fill="#f0f4f8" stroke="#1e293b" stroke-width="1"/><text x="552" y="138" text-anchor="middle" font-family="monospace" font-size="13" font-weight="600" fill="#0f172a">LSP Server</text><text x="552" y="106" text-anchor="middle" font-family="monospace" font-size="10" fill="#0f172a">«component»</text><desc data-uml-id="Transports::WASM">Transports::WASM</desc><rect class="uml-node uml-component" data-uml-kind="component" x="692" y="92" width="200" height="80" rx="4" ry="4" fill="#f0f4f8" stroke="#1e293b" stroke-width="1"/><rect x="688" y="104" width="16" height="8" fill="#f0f4f8" stroke="#1e293b" stroke-width="1"/><rect x="688" y="152" width="16" height="8" fill="#f0f4f8" stroke="#1e293b" stroke-width="1"/><text x="792" y="138" text-anchor="middle" font-family="monospace" font-size="13" font-weight="600" fill="#0f172a">WASM Crate</text><text x="792" y="106" text-anchor="middle" font-family="monospace" font-size="10" fill="#0f172a">«component»</text><desc data-uml-id="Output Formats::SVG">Output Formats::SVG</desc><rect class="uml-node uml-component" data-uml-kind="component" x="572" y="1292" width="200" height="80" rx="4" ry="4" fill="#f0f4f8" stroke="#1e293b" stroke-width="1"/><rect x="568" y="1304" width="16" height="8" fill="#f0f4f8" stroke="#1e293b" stroke-width="1"/><rect x="568" y="1352" width="16" height="8" fill="#f0f4f8" stroke="#1e293b" stroke-width="1"/><text x="672" y="1338" text-anchor="middle" font-family="monospace" font-size="13" font-weight="600" fill="#0f172a">SVG</text><text x="672" y="1306" text-anchor="middle" font-family="monospace" font-size="10" fill="#0f172a">«component»</text><desc data-uml-id="Output Formats::Raster">Output Formats::Raster</desc><rect class="uml-node uml-component" data-uml-kind="component" x="332" y="1292" width="200" height="80" rx="4" ry="4" fill="#f0f4f8" stroke="#1e293b" stroke-width="1"/><rect x="328" y="1304" width="16" height="8" fill="#f0f4f8" stroke="#1e293b" stroke-width="1"/><rect x="328" y="1352" width="16" height="8" fill="#f0f4f8" stroke="#1e293b" stroke-width="1"/><text x="432" y="1338" text-anchor="middle" font-family="monospace" font-size="13" font-weight="600" fill="#0f172a">PNG / JPEG</text><text x="432" y="1306" text-anchor="middle" font-family="monospace" font-size="10" fill="#0f172a">«component»</text><desc data-uml-id="Output Formats::Text">Output Formats::Text</desc><rect class="uml-node uml-component" data-uml-kind="component" x="812" y="1292" width="200" height="80" rx="4" ry="4" fill="#f0f4f8" stroke="#1e293b" stroke-width="1"/><rect x="808" y="1304" width="16" height="8" fill="#f0f4f8" stroke="#1e293b" stroke-width="1"/><rect x="808" y="1352" width="16" height="8" fill="#f0f4f8" stroke="#1e293b" stroke-width="1"/><text x="912" y="1338" text-anchor="middle" font-family="monospace" font-size="13" font-weight="600" fill="#0f172a">Text (utxt/atxt)</text><text x="912" y="1306" text-anchor="middle" font-family="monospace" font-size="10" fill="#0f172a">«component»</text><polyline class="uml-relation" data-uml-from="PlantumlFE" data-uml-to="Parser" data-uml-arrow="--&gt;" points="672,372 672,460 552,460 552,492" fill="none" stroke="#1e293b" stroke-width="2" marker-end="url(#arrow-open)" /><polyline class="uml-relation" data-uml-from="PicoumlFE" data-uml-to="Parser" data-uml-arrow="--&gt;" points="432,372 432,452 552,452 552,492" fill="none" stroke="#1e293b" stroke-width="2" marker-end="url(#arrow-open)" /><polyline class="uml-relation" data-uml-from="MermaidFE" data-uml-to="Parser" data-uml-arrow="--&gt;" points="192,372 192,444 552,444 552,492" fill="none" stroke="#1e293b" stroke-width="2" marker-end="url(#arrow-open)" /><polyline class="uml-relation" data-uml-from="Preproc" data-uml-to="Parser" data-uml-arrow="--&gt;" points="912,372 912,468 552,468 552,492" fill="none" stroke="#1e293b" stroke-width="2" marker-end="url(#arrow-open)" /><polyline class="uml-relation" data-uml-from="Parser" data-uml-to="AST" data-uml-arrow="--&gt;" points="552,572 552,656 672,656 672,692" fill="none" stroke="#1e293b" stroke-width="2" marker-end="url(#arrow-open)" /><polyline class="uml-relation" data-uml-from="AST" data-uml-to="Normalizer" data-uml-arrow="--&gt;" points="672,772 672,868 672,892" fill="none" stroke="#1e293b" stroke-width="2" marker-end="url(#arrow-open)" /><polyline class="uml-relation" data-uml-from="Normalizer" data-uml-to="Renderer" data-uml-arrow="--&gt;" points="672,972 672,1068 672,1092" fill="none" stroke="#1e293b" stroke-width="2" marker-end="url(#arrow-open)" /><polyline class="uml-relation" data-uml-from="Theme" data-uml-to="Renderer" data-uml-arrow="--&gt;" points="1032,172 1032,256 960,256 960,436 888,436 888,648 816,648 816,844 744,844 744,1044 672,1044 672,1092" fill="none" stroke="#1e293b" stroke-width="2" marker-end="url(#arrow-open)" /><polyline class="uml-relation" data-uml-from="Diag" data-uml-to="Renderer" data-uml-arrow="--&gt;" points="792,572 792,664 752,664 752,860 712,860 712,1060 672,1060 672,1092" fill="none" stroke="#1e293b" stroke-width="2" marker-end="url(#arrow-open)" /><polyline class="uml-relation" data-uml-from="Renderer" data-uml-to="SVG" data-uml-arrow="--&gt;" points="672,1172 672,1240 672,1292" fill="none" stroke="#1e293b" stroke-width="2" marker-end="url(#arrow-open)" /><polyline class="uml-relation" data-uml-from="Renderer" data-uml-to="Raster" data-uml-arrow="--&gt;" points="672,1172 672,1224 432,1224 432,1292" fill="none" stroke="#1e293b" stroke-width="2" marker-end="url(#arrow-open)" /><polyline class="uml-relation" data-uml-from="Renderer" data-uml-to="Text" data-uml-arrow="--&gt;" points="672,1172 672,1232 912,1232 912,1292" fill="none" stroke="#1e293b" stroke-width="2" marker-end="url(#arrow-open)" /><polyline class="uml-relation" data-uml-from="CLI" data-uml-to="PlantumlFE" data-uml-arrow="--&gt;" points="312,172 312,208 672,208 672,292" fill="none" stroke="#1e293b" stroke-width="2" marker-end="url(#arrow-open)" /><polyline class="uml-relation" data-uml-from="CLI" data-uml-to="PicoumlFE" data-uml-arrow="--&gt;" points="312,172 312,216 432,216 432,292" fill="none" stroke="#1e293b" stroke-width="2" marker-end="url(#arrow-open)" /><polyline class="uml-relation" data-uml-from="CLI" data-uml-to="MermaidFE" data-uml-arrow="--&gt;" points="312,172 312,224 192,224 192,292" fill="none" stroke="#1e293b" stroke-width="2" marker-end="url(#arrow-open)" /><polyline class="uml-relation" data-uml-from="CLI" data-uml-to="Preproc" data-uml-arrow="--&gt;" points="312,172 312,232 912,232 912,292" fill="none" stroke="#1e293b" stroke-width="2" marker-end="url(#arrow-open)" /><polyline class="uml-relation" data-uml-from="LSP" data-uml-to="LangSvc" data-uml-arrow="--&gt;" points="552,172 552,240 1152,240 1152,292" fill="none" stroke="#1e293b" stroke-width="2" marker-end="url(#arrow-open)" /><polyline class="uml-relation" data-uml-from="LangSvc" data-uml-to="Parser" data-uml-arrow="--&gt;" points="1152,372 1152,476 552,476 552,492" fill="none" stroke="#1e293b" stroke-width="2" marker-end="url(#arrow-open)" /><polyline class="uml-relation" data-uml-from="LangSvc" data-uml-to="Diag" data-uml-arrow="--&gt;" points="1152,372 1152,476 792,476 792,492" fill="none" stroke="#1e293b" stroke-width="2" marker-end="url(#arrow-open)" /><polyline class="uml-relation" data-uml-from="WASM" data-uml-to="LangSvc" data-uml-arrow="--&gt;" points="792,172 792,248 1152,248 1152,292" fill="none" stroke="#1e293b" stroke-width="2" marker-end="url(#arrow-open)" /><text x="492" y="196" text-anchor="middle" font-family="monospace" font-size="11" fill="#1e293b">file input</text><text x="372" y="204" text-anchor="middle" font-family="monospace" font-size="11" fill="#1e293b">file input</text><text x="252" y="212" text-anchor="middle" font-family="monospace" font-size="11" fill="#1e293b">file input</text><text x="612" y="220" text-anchor="middle" font-family="monospace" font-size="11" fill="#1e293b">&lt;&lt;include&gt;&gt;</text><text x="852" y="228" text-anchor="middle" font-family="monospace" font-size="11" fill="#1e293b">hover / completion</text><text x="972" y="236" text-anchor="middle" font-family="monospace" font-size="11" fill="#1e293b">browser call</text><text x="372" y="432" text-anchor="middle" font-family="monospace" font-size="11" fill="#1e293b">source text</text><text x="492" y="440" text-anchor="middle" font-family="monospace" font-size="11" fill="#1e293b">source text</text><text x="612" y="448" text-anchor="middle" font-family="monospace" font-size="11" fill="#1e293b">source text</text><text x="732" y="456" text-anchor="middle" font-family="monospace" font-size="11" fill="#1e293b">expanded source</text><text x="852" y="464" text-anchor="middle" font-family="monospace" font-size="11" fill="#1e293b">parse_with_options</text><text x="972" y="464" text-anchor="middle" font-family="monospace" font-size="11" fill="#1e293b">emit</text><text x="612" y="644" text-anchor="middle" font-family="monospace" font-size="11" fill="#1e293b">token tree</text><text x="672" y="808" text-anchor="middle" font-family="monospace" font-size="11" fill="#1e293b">raw nodes</text><text x="672" y="1008" text-anchor="middle" font-family="monospace" font-size="11" fill="#1e293b">NormalizedDocument</text><text x="708" y="1032" text-anchor="middle" font-family="monospace" font-size="11" fill="#1e293b">style tokens</text><text x="692" y="1048" text-anchor="middle" font-family="monospace" font-size="11" fill="#1e293b">annotations</text><text x="672" y="1194" text-anchor="middle" font-family="monospace" font-size="11" fill="#1e293b">vector output</text><text x="552" y="1212" text-anchor="middle" font-family="monospace" font-size="11" fill="#1e293b">rasterized</text><text x="792" y="1220" text-anchor="middle" font-family="monospace" font-size="11" fill="#1e293b">ascii art</text></svg>