<svg xmlns="http://www.w3.org/2000/svg" width="928" height="1528" viewBox="0 0 928 1528"><rect width="100%" height="100%" fill="#f0f4f8"/><defs><marker id="arrow-open" viewBox="0 0 10 10" refX="9" refY="5" markerWidth="10" markerHeight="10" markerUnits="userSpaceOnUse" orient="auto-start-reverse"><path d="M0,0 L10,5 L0,10" fill="none" stroke="#1e293b" stroke-width="1.5"/></marker><marker id="arrow-triangle" viewBox="0 0 12 12" refX="11" refY="6" markerWidth="12" markerHeight="12" markerUnits="userSpaceOnUse" orient="auto-start-reverse"><polygon points="0,0 12,6 0,12" fill="#ffffff" stroke="#1e293b" stroke-width="1.5" fill-rule="nonzero"/></marker><marker id="arrow-diamond-filled" viewBox="0 0 14 10" refX="13" refY="5" markerWidth="14" markerHeight="10" markerUnits="userSpaceOnUse" orient="auto-start-reverse"><path d="M0,5 L7,0 L14,5 L7,10 z" fill="#1e293b" stroke="#1e293b" stroke-width="1"/></marker><marker id="arrow-diamond-open" viewBox="0 0 14 10" refX="13" refY="5" markerWidth="14" markerHeight="10" markerUnits="userSpaceOnUse" orient="auto-start-reverse"><path d="M0,5 L7,0 L14,5 L7,10 z" fill="#ffffff" stroke="#1e293b" stroke-width="1"/></marker></defs><rect class="uml-group-frame" data-uml-group="Transports" x="80" y="52" width="728" height="156" rx="8" ry="8" fill="#f8faff" stroke="#1e293b" stroke-width="1.5"/><rect x="80" y="52" width="160" height="40" rx="8" ry="8" fill="#1e293b" stroke="#1e293b" stroke-width="1.5"/><rect x="80" y="84" width="160" height="8" fill="#1e293b" stroke="none"/><text x="88" y="84" font-family="monospace" font-size="11" font-weight="600" fill="#ffffff">package Transports</text><line x1="80" y1="92" x2="808" y2="92" stroke="#1e293b" stroke-width="1"/><rect class="uml-group-frame" data-uml-group="Frontends" x="80" y="252" width="248" height="156" rx="8" ry="8" fill="#f8faff" stroke="#1e293b" stroke-width="1.5"/><rect x="80" y="252" width="152" height="40" rx="8" ry="8" fill="#1e293b" stroke="#1e293b" stroke-width="1.5"/><rect x="80" y="284" width="152" height="8" fill="#1e293b" stroke="none"/><text x="88" y="284" font-family="monospace" font-size="11" font-weight="600" fill="#ffffff">package Frontends</text><line x1="80" y1="292" x2="328" y2="292" stroke="#1e293b" stroke-width="1"/><rect class="uml-group-frame" data-uml-group="Shared Services" x="320" y="252" width="488" height="356" rx="8" ry="8" fill="#f8faff" stroke="#1e293b" stroke-width="1.5"/><rect x="320" y="252" width="200" height="40" rx="8" ry="8" fill="#1e293b" stroke="#1e293b" stroke-width="1.5"/><rect x="320" y="284" width="200" height="8" fill="#1e293b" stroke="none"/><text x="328" y="284" font-family="monospace" font-size="11" font-weight="600" fill="#ffffff">package Shared Services</text><line x1="320" y1="292" x2="808" y2="292" stroke="#1e293b" stroke-width="1"/><rect class="uml-group-frame" data-uml-group="Pipeline Core" x="200" y="452" width="368" height="756" rx="8" ry="8" fill="#f8faff" stroke="#1e293b" stroke-width="1.5"/><rect x="200" y="452" width="184" height="40" rx="8" ry="8" fill="#1e293b" stroke="#1e293b" stroke-width="1.5"/><rect x="200" y="484" width="184" height="8" fill="#1e293b" stroke="none"/><text x="208" y="484" font-family="monospace" font-size="11" font-weight="600" fill="#ffffff">package Pipeline Core</text><line x1="200" y1="492" x2="568" y2="492" stroke="#1e293b" stroke-width="1"/><rect class="uml-group-frame" data-uml-group="Output Formats" x="320" y="1252" width="248" height="156" rx="8" ry="8" fill="#f8faff" stroke="#1e293b" stroke-width="1.5"/><rect x="320" y="1252" width="192" height="40" rx="8" ry="8" fill="#1e293b" stroke="#1e293b" stroke-width="1.5"/><rect x="320" y="1284" width="192" height="8" fill="#1e293b" stroke="none"/><text x="328" y="1284" font-family="monospace" font-size="11" font-weight="600" fill="#ffffff">package Output Formats</text><line x1="320" y1="1292" x2="568" y2="1292" stroke="#1e293b" stroke-width="1"/><desc data-uml-id="Transports::CLI">Transports::CLI</desc><rect class="uml-node uml-component" data-uml-kind="component" x="104" y="104" width="200" height="80" rx="4" ry="4" fill="#f0f4f8" stroke="#1e293b" stroke-width="1"/><rect x="100" y="116" width="16" height="8" fill="#f0f4f8" stroke="#1e293b" stroke-width="1"/><rect x="100" y="164" width="16" height="8" fill="#f0f4f8" stroke="#1e293b" stroke-width="1"/><text x="204" y="150" text-anchor="middle" font-family="monospace" font-size="13" font-weight="600" fill="#0f172a">CLI</text><text x="204" y="118" text-anchor="middle" font-family="monospace" font-size="10" fill="#0f172a">«component»</text><desc data-uml-id="Transports::LSP">Transports::LSP</desc><rect class="uml-node uml-component" data-uml-kind="component" x="344" y="104" width="200" height="80" rx="4" ry="4" fill="#f0f4f8" stroke="#1e293b" stroke-width="1"/><rect x="340" y="116" width="16" height="8" fill="#f0f4f8" stroke="#1e293b" stroke-width="1"/><rect x="340" y="164" width="16" height="8" fill="#f0f4f8" stroke="#1e293b" stroke-width="1"/><text x="444" y="150" text-anchor="middle" font-family="monospace" font-size="13" font-weight="600" fill="#0f172a">LSP</text><text x="444" y="118" text-anchor="middle" font-family="monospace" font-size="10" fill="#0f172a">«component»</text><desc data-uml-id="Transports::WASM">Transports::WASM</desc><rect class="uml-node uml-component" data-uml-kind="component" x="584" y="104" width="200" height="80" rx="4" ry="4" fill="#f0f4f8" stroke="#1e293b" stroke-width="1"/><rect x="580" y="116" width="16" height="8" fill="#f0f4f8" stroke="#1e293b" stroke-width="1"/><rect x="580" y="164" width="16" height="8" fill="#f0f4f8" stroke="#1e293b" stroke-width="1"/><text x="684" y="150" text-anchor="middle" font-family="monospace" font-size="13" font-weight="600" fill="#0f172a">WASM</text><text x="684" y="118" text-anchor="middle" font-family="monospace" font-size="10" fill="#0f172a">«component»</text><desc data-uml-id="Frontends::Frontends">Frontends::Frontends</desc><rect class="uml-node uml-component" data-uml-kind="component" x="104" y="304" width="200" height="80" rx="4" ry="4" fill="#f0f4f8" stroke="#1e293b" stroke-width="1"/><rect x="100" y="316" width="16" height="8" fill="#f0f4f8" stroke="#1e293b" stroke-width="1"/><rect x="100" y="364" width="16" height="8" fill="#f0f4f8" stroke="#1e293b" stroke-width="1"/><text x="204" y="350" text-anchor="middle" font-family="monospace" font-size="13" font-weight="600" fill="#0f172a">Adapters</text><text x="204" y="318" text-anchor="middle" font-family="monospace" font-size="10" fill="#0f172a">«component»</text><desc data-uml-id="Shared Services::Preproc">Shared Services::Preproc</desc><rect class="uml-node uml-component" data-uml-kind="component" x="344" y="304" width="200" height="80" rx="4" ry="4" fill="#f0f4f8" stroke="#1e293b" stroke-width="1"/><rect x="340" y="316" width="16" height="8" fill="#f0f4f8" stroke="#1e293b" stroke-width="1"/><rect x="340" y="364" width="16" height="8" fill="#f0f4f8" stroke="#1e293b" stroke-width="1"/><text x="444" y="350" text-anchor="middle" font-family="monospace" font-size="13" font-weight="600" fill="#0f172a">Preprocessor</text><text x="444" y="318" text-anchor="middle" font-family="monospace" font-size="10" fill="#0f172a">«component»</text><desc data-uml-id="Shared Services::LangSvc">Shared Services::LangSvc</desc><rect class="uml-node uml-component" data-uml-kind="component" x="584" y="304" width="200" height="80" rx="4" ry="4" fill="#f0f4f8" stroke="#1e293b" stroke-width="1"/><rect x="580" y="316" width="16" height="8" fill="#f0f4f8" stroke="#1e293b" stroke-width="1"/><rect x="580" y="364" width="16" height="8" fill="#f0f4f8" stroke="#1e293b" stroke-width="1"/><text x="684" y="350" text-anchor="middle" font-family="monospace" font-size="13" font-weight="600" fill="#0f172a">Language Service</text><text x="684" y="318" text-anchor="middle" font-family="monospace" font-size="10" fill="#0f172a">«component»</text><desc data-uml-id="Shared Services::RenderSupport">Shared Services::RenderSupport</desc><rect class="uml-node uml-component" data-uml-kind="component" x="464" y="504" width="200" height="80" rx="4" ry="4" fill="#f0f4f8" stroke="#1e293b" stroke-width="1"/><rect x="460" y="516" width="16" height="8" fill="#f0f4f8" stroke="#1e293b" stroke-width="1"/><rect x="460" y="564" width="16" height="8" fill="#f0f4f8" stroke="#1e293b" stroke-width="1"/><text x="564" y="550" text-anchor="middle" font-family="monospace" font-size="13" font-weight="600" fill="#0f172a">Diagnostics + Theme</text><text x="564" y="518" text-anchor="middle" font-family="monospace" font-size="10" fill="#0f172a">«component»</text><desc data-uml-id="Pipeline Core::Parser">Pipeline Core::Parser</desc><rect class="uml-node uml-component" data-uml-kind="component" x="224" y="504" width="200" height="80" rx="4" ry="4" fill="#f0f4f8" stroke="#1e293b" stroke-width="1"/><rect x="220" y="516" width="16" height="8" fill="#f0f4f8" stroke="#1e293b" stroke-width="1"/><rect x="220" y="564" width="16" height="8" fill="#f0f4f8" stroke="#1e293b" stroke-width="1"/><text x="324" y="550" text-anchor="middle" font-family="monospace" font-size="13" font-weight="600" fill="#0f172a">Parser</text><text x="324" y="518" text-anchor="middle" font-family="monospace" font-size="10" fill="#0f172a">«component»</text><desc data-uml-id="Pipeline Core::AST">Pipeline Core::AST</desc><rect class="uml-node uml-component" data-uml-kind="component" x="344" y="704" width="200" height="80" rx="4" ry="4" fill="#f0f4f8" stroke="#1e293b" stroke-width="1"/><rect x="340" y="716" width="16" height="8" fill="#f0f4f8" stroke="#1e293b" stroke-width="1"/><rect x="340" y="764" width="16" height="8" fill="#f0f4f8" stroke="#1e293b" stroke-width="1"/><text x="444" y="750" text-anchor="middle" font-family="monospace" font-size="13" font-weight="600" fill="#0f172a">AST</text><text x="444" y="718" text-anchor="middle" font-family="monospace" font-size="10" fill="#0f172a">«component»</text><desc data-uml-id="Pipeline Core::Normalizer">Pipeline Core::Normalizer</desc><rect class="uml-node uml-component" data-uml-kind="component" x="344" y="904" width="200" height="80" rx="4" ry="4" fill="#f0f4f8" stroke="#1e293b" stroke-width="1"/><rect x="340" y="916" width="16" height="8" fill="#f0f4f8" stroke="#1e293b" stroke-width="1"/><rect x="340" y="964" width="16" height="8" fill="#f0f4f8" stroke="#1e293b" stroke-width="1"/><text x="444" y="950" text-anchor="middle" font-family="monospace" font-size="13" font-weight="600" fill="#0f172a">Normalizer</text><text x="444" y="918" text-anchor="middle" font-family="monospace" font-size="10" fill="#0f172a">«component»</text><desc data-uml-id="Pipeline Core::Renderer">Pipeline Core::Renderer</desc><rect class="uml-node uml-component" data-uml-kind="component" x="344" y="1104" width="200" height="80" rx="4" ry="4" fill="#f0f4f8" stroke="#1e293b" stroke-width="1"/><rect x="340" y="1116" width="16" height="8" fill="#f0f4f8" stroke="#1e293b" stroke-width="1"/><rect x="340" y="1164" width="16" height="8" fill="#f0f4f8" stroke="#1e293b" stroke-width="1"/><text x="444" y="1150" text-anchor="middle" font-family="monospace" font-size="13" font-weight="600" fill="#0f172a">Renderer</text><text x="444" y="1118" text-anchor="middle" font-family="monospace" font-size="10" fill="#0f172a">«component»</text><desc data-uml-id="Output Formats::Outputs">Output Formats::Outputs</desc><rect class="uml-node uml-component" data-uml-kind="component" x="344" y="1304" width="200" height="80" rx="4" ry="4" fill="#f0f4f8" stroke="#1e293b" stroke-width="1"/><rect x="340" y="1316" width="16" height="8" fill="#f0f4f8" stroke="#1e293b" stroke-width="1"/><rect x="340" y="1364" width="16" height="8" fill="#f0f4f8" stroke="#1e293b" stroke-width="1"/><text x="444" y="1350" text-anchor="middle" font-family="monospace" font-size="13" font-weight="600" fill="#0f172a">SVG / PNG / Text</text><text x="444" y="1318" text-anchor="middle" font-family="monospace" font-size="10" fill="#0f172a">«component»</text><polyline class="uml-relation" data-uml-from="CLI" data-uml-to="Frontends" data-uml-arrow="--&gt;" points="204,184 204,232 204,304" fill="none" stroke="#1e293b" stroke-width="2" marker-end="url(#arrow-open)" /><polyline class="uml-relation" data-uml-from="CLI" data-uml-to="Preproc" data-uml-arrow="--&gt;" points="204,184 204,240 444,240 444,304" fill="none" stroke="#1e293b" stroke-width="2" marker-end="url(#arrow-open)" /><polyline class="uml-relation" data-uml-from="LSP" data-uml-to="LangSvc" data-uml-arrow="--&gt;" points="444,184 444,248 684,248 684,304" fill="none" stroke="#1e293b" stroke-width="2" marker-end="url(#arrow-open)" /><polyline class="uml-relation" data-uml-from="WASM" data-uml-to="LangSvc" data-uml-arrow="--&gt;" points="684,184 684,256 684,304" fill="none" stroke="#1e293b" stroke-width="2" marker-end="url(#arrow-open)" /><polyline class="uml-relation" data-uml-from="Frontends" data-uml-to="Parser" data-uml-arrow="--&gt;" points="204,384 204,432 324,432 324,504" fill="none" stroke="#1e293b" stroke-width="2" marker-end="url(#arrow-open)" /><polyline class="uml-relation" data-uml-from="Preproc" data-uml-to="Parser" data-uml-arrow="--&gt;" points="444,384 444,440 324,440 324,504" fill="none" stroke="#1e293b" stroke-width="2" marker-end="url(#arrow-open)" /><polyline class="uml-relation" data-uml-from="LangSvc" data-uml-to="Parser" data-uml-arrow="--&gt;" points="684,384 684,448 324,448 324,504" fill="none" stroke="#1e293b" stroke-width="2" marker-end="url(#arrow-open)" /><polyline class="uml-relation" data-uml-from="LangSvc" data-uml-to="RenderSupport" data-uml-arrow="--&gt;" points="684,384 684,456 564,456 564,504" fill="none" stroke="#1e293b" stroke-width="2" marker-end="url(#arrow-open)" /><polyline class="uml-relation" data-uml-from="RenderSupport" data-uml-to="Renderer" data-uml-arrow="--&gt;" points="564,584 564,648 524,648 524,844 484,844 484,1044 444,1044 444,1104" fill="none" stroke="#1e293b" stroke-width="2" marker-end="url(#arrow-open)" /><polyline class="uml-relation" data-uml-from="Parser" data-uml-to="AST" data-uml-arrow="--&gt;" points="324,584 324,640 444,640 444,704" fill="none" stroke="#1e293b" stroke-width="2" marker-end="url(#arrow-open)" /><polyline class="uml-relation" data-uml-from="AST" data-uml-to="Normalizer" data-uml-arrow="--&gt;" points="444,784 444,852 444,904" fill="none" stroke="#1e293b" stroke-width="2" marker-end="url(#arrow-open)" /><polyline class="uml-relation" data-uml-from="Normalizer" data-uml-to="Renderer" data-uml-arrow="--&gt;" points="444,984 444,1052 444,1104" fill="none" stroke="#1e293b" stroke-width="2" marker-end="url(#arrow-open)" /><polyline class="uml-relation" data-uml-from="Renderer" data-uml-to="Outputs" data-uml-arrow="--&gt;" points="444,1184 444,1244 444,1304" fill="none" stroke="#1e293b" stroke-width="2" marker-end="url(#arrow-open)" /></svg>