<svg xmlns="http://www.w3.org/2000/svg" width="1568" height="852" viewBox="0 0 1568 852"><rect width="100%" height="100%" fill="#f0f4f8"/><defs><marker id="arrow-open" viewBox="0 0 10 10" refX="9" refY="5" markerWidth="10" markerHeight="10" markerUnits="userSpaceOnUse" orient="auto-start-reverse"><path d="M0,0 L10,5 L0,10" fill="none" stroke="#1e293b" stroke-width="1.5"/></marker><marker id="arrow-triangle" viewBox="0 0 12 12" refX="11" refY="6" markerWidth="12" markerHeight="12" markerUnits="userSpaceOnUse" orient="auto-start-reverse"><polygon points="0,0 12,6 0,12" fill="#ffffff" stroke="#1e293b" stroke-width="1.5" fill-rule="nonzero"/></marker><marker id="arrow-diamond-filled" viewBox="0 0 14 10" refX="13" refY="5" markerWidth="14" markerHeight="10" markerUnits="userSpaceOnUse" orient="auto-start-reverse"><path d="M0,5 L7,0 L14,5 L7,10 z" fill="#1e293b" stroke="#1e293b" stroke-width="1"/></marker><marker id="arrow-diamond-open" viewBox="0 0 14 10" refX="13" refY="5" markerWidth="14" markerHeight="10" markerUnits="userSpaceOnUse" orient="auto-start-reverse"><path d="M0,5 L7,0 L14,5 L7,10 z" fill="#ffffff" stroke="#1e293b" stroke-width="1"/></marker></defs><rect class="uml-group-frame" data-uml-group="Frontends" x="40" y="40" width="728" height="156" rx="8" ry="8" fill="#f8faff" stroke="#1e293b" stroke-width="1.5"/><rect x="40" y="40" width="152" height="28" rx="8" ry="8" fill="#1e293b" stroke="#1e293b" stroke-width="1.5"/><rect x="40" y="60" width="152" height="8" fill="#1e293b" stroke="none"/><text x="48" y="60" font-family="monospace" font-size="11" font-weight="600" fill="#ffffff">package Frontends</text><line x1="40" y1="68" x2="768" y2="68" stroke="#1e293b" stroke-width="1"/><rect class="uml-group-frame" data-uml-group="Pipeline Core" x="800" y="40" width="728" height="276" rx="8" ry="8" fill="#f8faff" stroke="#1e293b" stroke-width="1.5"/><rect x="800" y="40" width="184" height="28" rx="8" ry="8" fill="#1e293b" stroke="#1e293b" stroke-width="1.5"/><rect x="800" y="60" width="184" height="8" fill="#1e293b" stroke="none"/><text x="808" y="60" font-family="monospace" font-size="11" font-weight="600" fill="#ffffff">package Pipeline Core</text><line x1="800" y1="68" x2="1528" y2="68" stroke="#1e293b" stroke-width="1"/><rect class="uml-group-frame" data-uml-group="Shared Services" x="40" y="348" width="728" height="276" rx="8" ry="8" fill="#f8faff" stroke="#1e293b" stroke-width="1.5"/><rect x="40" y="348" width="200" height="28" rx="8" ry="8" fill="#1e293b" stroke="#1e293b" stroke-width="1.5"/><rect x="40" y="368" width="200" height="8" fill="#1e293b" stroke="none"/><text x="48" y="368" font-family="monospace" font-size="11" font-weight="600" fill="#ffffff">package Shared Services</text><line x1="40" y1="376" x2="768" y2="376" stroke="#1e293b" stroke-width="1"/><rect class="uml-group-frame" data-uml-group="Transports" x="800" y="348" width="728" height="156" rx="8" ry="8" fill="#f8faff" stroke="#1e293b" stroke-width="1.5"/><rect x="800" y="348" width="160" height="28" rx="8" ry="8" fill="#1e293b" stroke="#1e293b" stroke-width="1.5"/><rect x="800" y="368" width="160" height="8" fill="#1e293b" stroke="none"/><text x="808" y="368" font-family="monospace" font-size="11" font-weight="600" fill="#ffffff">package Transports</text><line x1="800" y1="376" x2="1528" y2="376" stroke="#1e293b" stroke-width="1"/><rect class="uml-group-frame" data-uml-group="Output Formats" x="40" y="656" width="728" height="156" rx="8" ry="8" fill="#f8faff" stroke="#1e293b" stroke-width="1.5"/><rect x="40" y="656" width="192" height="28" rx="8" ry="8" fill="#1e293b" stroke="#1e293b" stroke-width="1.5"/><rect x="40" y="676" width="192" height="8" fill="#1e293b" stroke="none"/><text x="48" y="676" font-family="monospace" font-size="11" font-weight="600" fill="#ffffff">package Output Formats</text><line x1="40" y1="684" x2="768" y2="684" stroke="#1e293b" stroke-width="1"/><desc data-uml-id="Frontends::PlantumlFE">Frontends::PlantumlFE</desc><rect class="uml-node uml-component" data-uml-kind="component" x="64" y="92" width="200" height="80" rx="4" ry="4" fill="#f0f4f8" stroke="#1e293b" stroke-width="1"/><rect x="60" y="104" width="16" height="8" fill="#f0f4f8" stroke="#1e293b" stroke-width="1"/><rect x="60" y="152" width="16" height="8" fill="#f0f4f8" stroke="#1e293b" stroke-width="1"/><text x="164" y="138" text-anchor="middle" font-family="monospace" font-size="13" font-weight="600" fill="#0f172a">PlantUML Frontend</text><text x="164" y="106" text-anchor="middle" font-family="monospace" font-size="10" fill="#0f172a">«component»</text><desc data-uml-id="Frontends::PicoumlFE">Frontends::PicoumlFE</desc><rect class="uml-node uml-component" data-uml-kind="component" x="304" y="92" width="200" height="80" rx="4" ry="4" fill="#f0f4f8" stroke="#1e293b" stroke-width="1"/><rect x="300" y="104" width="16" height="8" fill="#f0f4f8" stroke="#1e293b" stroke-width="1"/><rect x="300" y="152" width="16" height="8" fill="#f0f4f8" stroke="#1e293b" stroke-width="1"/><text x="404" y="138" text-anchor="middle" font-family="monospace" font-size="13" font-weight="600" fill="#0f172a">PicoUML Frontend</text><text x="404" y="106" text-anchor="middle" font-family="monospace" font-size="10" fill="#0f172a">«component»</text><desc data-uml-id="Frontends::MermaidFE">Frontends::MermaidFE</desc><rect class="uml-node uml-component" data-uml-kind="component" x="544" y="92" width="200" height="80" rx="4" ry="4" fill="#f0f4f8" stroke="#1e293b" stroke-width="1"/><rect x="540" y="104" width="16" height="8" fill="#f0f4f8" stroke="#1e293b" stroke-width="1"/><rect x="540" y="152" width="16" height="8" fill="#f0f4f8" stroke="#1e293b" stroke-width="1"/><text x="644" y="138" text-anchor="middle" font-family="monospace" font-size="13" font-weight="600" fill="#0f172a">Mermaid Adapter</text><text x="644" y="106" text-anchor="middle" font-family="monospace" font-size="10" fill="#0f172a">«component»</text><desc data-uml-id="Pipeline Core::Parser">Pipeline Core::Parser</desc><rect class="uml-node uml-component" data-uml-kind="component" x="824" y="92" width="200" height="80" rx="4" ry="4" fill="#f0f4f8" stroke="#1e293b" stroke-width="1"/><rect x="820" y="104" width="16" height="8" fill="#f0f4f8" stroke="#1e293b" stroke-width="1"/><rect x="820" y="152" width="16" height="8" fill="#f0f4f8" stroke="#1e293b" stroke-width="1"/><text x="924" y="138" text-anchor="middle" font-family="monospace" font-size="13" font-weight="600" fill="#0f172a">Parser</text><text x="924" y="106" text-anchor="middle" font-family="monospace" font-size="10" fill="#0f172a">«component»</text><desc data-uml-id="Pipeline Core::AST">Pipeline Core::AST</desc><rect class="uml-node uml-component" data-uml-kind="component" x="1064" y="92" width="200" height="80" rx="4" ry="4" fill="#f0f4f8" stroke="#1e293b" stroke-width="1"/><rect x="1060" y="104" width="16" height="8" fill="#f0f4f8" stroke="#1e293b" stroke-width="1"/><rect x="1060" y="152" width="16" height="8" fill="#f0f4f8" stroke="#1e293b" stroke-width="1"/><text x="1164" y="138" text-anchor="middle" font-family="monospace" font-size="13" font-weight="600" fill="#0f172a">AST</text><text x="1164" y="106" text-anchor="middle" font-family="monospace" font-size="10" fill="#0f172a">«component»</text><desc data-uml-id="Pipeline Core::Normalizer">Pipeline Core::Normalizer</desc><rect class="uml-node uml-component" data-uml-kind="component" x="1304" y="92" width="200" height="80" rx="4" ry="4" fill="#f0f4f8" stroke="#1e293b" stroke-width="1"/><rect x="1300" y="104" width="16" height="8" fill="#f0f4f8" stroke="#1e293b" stroke-width="1"/><rect x="1300" y="152" width="16" height="8" fill="#f0f4f8" stroke="#1e293b" stroke-width="1"/><text x="1404" y="138" text-anchor="middle" font-family="monospace" font-size="13" font-weight="600" fill="#0f172a">Normalizer</text><text x="1404" y="106" text-anchor="middle" font-family="monospace" font-size="10" fill="#0f172a">«component»</text><desc data-uml-id="Pipeline Core::Renderer">Pipeline Core::Renderer</desc><rect class="uml-node uml-component" data-uml-kind="component" x="824" y="212" width="200" height="80" rx="4" ry="4" fill="#f0f4f8" stroke="#1e293b" stroke-width="1"/><rect x="820" y="224" width="16" height="8" fill="#f0f4f8" stroke="#1e293b" stroke-width="1"/><rect x="820" y="272" width="16" height="8" fill="#f0f4f8" stroke="#1e293b" stroke-width="1"/><text x="924" y="258" text-anchor="middle" font-family="monospace" font-size="13" font-weight="600" fill="#0f172a">Renderer</text><text x="924" y="226" text-anchor="middle" font-family="monospace" font-size="10" fill="#0f172a">«component»</text><desc data-uml-id="Shared Services::Preproc">Shared Services::Preproc</desc><rect class="uml-node uml-component" data-uml-kind="component" x="64" y="400" width="200" height="80" rx="4" ry="4" fill="#f0f4f8" stroke="#1e293b" stroke-width="1"/><rect x="60" y="412" width="16" height="8" fill="#f0f4f8" stroke="#1e293b" stroke-width="1"/><rect x="60" y="460" width="16" height="8" fill="#f0f4f8" stroke="#1e293b" stroke-width="1"/><text x="164" y="446" text-anchor="middle" font-family="monospace" font-size="13" font-weight="600" fill="#0f172a">Preprocessor</text><text x="164" y="414" text-anchor="middle" font-family="monospace" font-size="10" fill="#0f172a">«component»</text><desc data-uml-id="Shared Services::LangSvc">Shared Services::LangSvc</desc><rect class="uml-node uml-component" data-uml-kind="component" x="304" y="400" width="200" height="80" rx="4" ry="4" fill="#f0f4f8" stroke="#1e293b" stroke-width="1"/><rect x="300" y="412" width="16" height="8" fill="#f0f4f8" stroke="#1e293b" stroke-width="1"/><rect x="300" y="460" width="16" height="8" fill="#f0f4f8" stroke="#1e293b" stroke-width="1"/><text x="404" y="446" text-anchor="middle" font-family="monospace" font-size="13" font-weight="600" fill="#0f172a">Language Service</text><text x="404" y="414" text-anchor="middle" font-family="monospace" font-size="10" fill="#0f172a">«component»</text><desc data-uml-id="Shared Services::Diag">Shared Services::Diag</desc><rect class="uml-node uml-component" data-uml-kind="component" x="544" y="400" width="200" height="80" rx="4" ry="4" fill="#f0f4f8" stroke="#1e293b" stroke-width="1"/><rect x="540" y="412" width="16" height="8" fill="#f0f4f8" stroke="#1e293b" stroke-width="1"/><rect x="540" y="460" width="16" height="8" fill="#f0f4f8" stroke="#1e293b" stroke-width="1"/><text x="644" y="446" text-anchor="middle" font-family="monospace" font-size="13" font-weight="600" fill="#0f172a">Diagnostics</text><text x="644" y="414" text-anchor="middle" font-family="monospace" font-size="10" fill="#0f172a">«component»</text><desc data-uml-id="Shared Services::Theme">Shared Services::Theme</desc><rect class="uml-node uml-component" data-uml-kind="component" x="64" y="520" width="200" height="80" rx="4" ry="4" fill="#f0f4f8" stroke="#1e293b" stroke-width="1"/><rect x="60" y="532" width="16" height="8" fill="#f0f4f8" stroke="#1e293b" stroke-width="1"/><rect x="60" y="580" width="16" height="8" fill="#f0f4f8" stroke="#1e293b" stroke-width="1"/><text x="164" y="566" text-anchor="middle" font-family="monospace" font-size="13" font-weight="600" fill="#0f172a">Theme Engine</text><text x="164" y="534" text-anchor="middle" font-family="monospace" font-size="10" fill="#0f172a">«component»</text><desc data-uml-id="Transports::CLI">Transports::CLI</desc><rect class="uml-node uml-component" data-uml-kind="component" x="824" y="400" width="200" height="80" rx="4" ry="4" fill="#f0f4f8" stroke="#1e293b" stroke-width="1"/><rect x="820" y="412" width="16" height="8" fill="#f0f4f8" stroke="#1e293b" stroke-width="1"/><rect x="820" y="460" width="16" height="8" fill="#f0f4f8" stroke="#1e293b" stroke-width="1"/><text x="924" y="446" text-anchor="middle" font-family="monospace" font-size="13" font-weight="600" fill="#0f172a">CLI Binary</text><text x="924" y="414" text-anchor="middle" font-family="monospace" font-size="10" fill="#0f172a">«component»</text><desc data-uml-id="Transports::LSP">Transports::LSP</desc><rect class="uml-node uml-component" data-uml-kind="component" x="1064" y="400" width="200" height="80" rx="4" ry="4" fill="#f0f4f8" stroke="#1e293b" stroke-width="1"/><rect x="1060" y="412" width="16" height="8" fill="#f0f4f8" stroke="#1e293b" stroke-width="1"/><rect x="1060" y="460" width="16" height="8" fill="#f0f4f8" stroke="#1e293b" stroke-width="1"/><text x="1164" y="446" text-anchor="middle" font-family="monospace" font-size="13" font-weight="600" fill="#0f172a">LSP Server</text><text x="1164" y="414" text-anchor="middle" font-family="monospace" font-size="10" fill="#0f172a">«component»</text><desc data-uml-id="Transports::WASM">Transports::WASM</desc><rect class="uml-node uml-component" data-uml-kind="component" x="1304" y="400" width="200" height="80" rx="4" ry="4" fill="#f0f4f8" stroke="#1e293b" stroke-width="1"/><rect x="1300" y="412" width="16" height="8" fill="#f0f4f8" stroke="#1e293b" stroke-width="1"/><rect x="1300" y="460" width="16" height="8" fill="#f0f4f8" stroke="#1e293b" stroke-width="1"/><text x="1404" y="446" text-anchor="middle" font-family="monospace" font-size="13" font-weight="600" fill="#0f172a">WASM Crate</text><text x="1404" y="414" text-anchor="middle" font-family="monospace" font-size="10" fill="#0f172a">«component»</text><desc data-uml-id="Output Formats::SVG">Output Formats::SVG</desc><rect class="uml-node uml-component" data-uml-kind="component" x="64" y="708" width="200" height="80" rx="4" ry="4" fill="#f0f4f8" stroke="#1e293b" stroke-width="1"/><rect x="60" y="720" width="16" height="8" fill="#f0f4f8" stroke="#1e293b" stroke-width="1"/><rect x="60" y="768" width="16" height="8" fill="#f0f4f8" stroke="#1e293b" stroke-width="1"/><text x="164" y="754" text-anchor="middle" font-family="monospace" font-size="13" font-weight="600" fill="#0f172a">SVG</text><text x="164" y="722" text-anchor="middle" font-family="monospace" font-size="10" fill="#0f172a">«component»</text><desc data-uml-id="Output Formats::Raster">Output Formats::Raster</desc><rect class="uml-node uml-component" data-uml-kind="component" x="304" y="708" width="200" height="80" rx="4" ry="4" fill="#f0f4f8" stroke="#1e293b" stroke-width="1"/><rect x="300" y="720" width="16" height="8" fill="#f0f4f8" stroke="#1e293b" stroke-width="1"/><rect x="300" y="768" width="16" height="8" fill="#f0f4f8" stroke="#1e293b" stroke-width="1"/><text x="404" y="754" text-anchor="middle" font-family="monospace" font-size="13" font-weight="600" fill="#0f172a">PNG / JPEG</text><text x="404" y="722" text-anchor="middle" font-family="monospace" font-size="10" fill="#0f172a">«component»</text><desc data-uml-id="Output Formats::Text">Output Formats::Text</desc><rect class="uml-node uml-component" data-uml-kind="component" x="544" y="708" width="200" height="80" rx="4" ry="4" fill="#f0f4f8" stroke="#1e293b" stroke-width="1"/><rect x="540" y="720" width="16" height="8" fill="#f0f4f8" stroke="#1e293b" stroke-width="1"/><rect x="540" y="768" width="16" height="8" fill="#f0f4f8" stroke="#1e293b" stroke-width="1"/><text x="644" y="754" text-anchor="middle" font-family="monospace" font-size="13" font-weight="600" fill="#0f172a">Text (utxt/atxt)</text><text x="644" y="722" text-anchor="middle" font-family="monospace" font-size="10" fill="#0f172a">«component»</text><polyline class="uml-relation" data-uml-from="PlantumlFE" data-uml-to="Parser" data-uml-arrow="--&gt;" points="264,132 264,132 824,132 824,132" fill="none" stroke="#1e293b" stroke-width="2" marker-end="url(#arrow-open)" /><polyline class="uml-relation" data-uml-from="PicoumlFE" data-uml-to="Parser" data-uml-arrow="--&gt;" points="504,132 504,132 824,132 824,132" fill="none" stroke="#1e293b" stroke-width="2" marker-end="url(#arrow-open)" /><line class="uml-relation" data-uml-from="MermaidFE" data-uml-to="Parser" data-uml-arrow="--&gt;" x1="744" y1="132" x2="824" y2="132" stroke="#1e293b" stroke-width="2" marker-end="url(#arrow-open)" /><line class="uml-relation" data-uml-from="Preproc" data-uml-to="Parser" data-uml-arrow="--&gt;" x1="262" y1="400" x2="825" y2="172" stroke="#1e293b" stroke-width="2" marker-end="url(#arrow-open)" /><line class="uml-relation" data-uml-from="Parser" data-uml-to="AST" data-uml-arrow="--&gt;" x1="1024" y1="132" x2="1064" y2="132" stroke="#1e293b" stroke-width="2" marker-end="url(#arrow-open)" /><line class="uml-relation" data-uml-from="AST" data-uml-to="Normalizer" data-uml-arrow="--&gt;" x1="1264" y1="132" x2="1304" y2="132" stroke="#1e293b" stroke-width="2" marker-end="url(#arrow-open)" /><polyline class="uml-relation" data-uml-from="Normalizer" data-uml-to="Renderer" data-uml-arrow="--&gt;" points="1304,157 1304,192 1024,192 1024,227" fill="none" stroke="#1e293b" stroke-width="2" marker-end="url(#arrow-open)" /><polyline class="uml-relation" data-uml-from="Theme" data-uml-to="Renderer" data-uml-arrow="--&gt;" points="262,520 543,520 543,292 825,292" fill="none" stroke="#1e293b" stroke-width="2" marker-end="url(#arrow-open)" /><line class="uml-relation" data-uml-from="Diag" data-uml-to="Renderer" data-uml-arrow="--&gt;" x1="703" y1="400" x2="864" y2="292" stroke="#1e293b" stroke-width="2" marker-end="url(#arrow-open)" /><polyline class="uml-relation" data-uml-from="Renderer" data-uml-to="SVG" data-uml-arrow="--&gt;" points="862,292 862,500 225,500 225,708" fill="none" stroke="#1e293b" stroke-width="2" marker-end="url(#arrow-open)" /><polyline class="uml-relation" data-uml-from="Renderer" data-uml-to="Raster" data-uml-arrow="--&gt;" points="882,292 882,500 445,500 445,708" fill="none" stroke="#1e293b" stroke-width="2" marker-end="url(#arrow-open)" /><polyline class="uml-relation" data-uml-from="Renderer" data-uml-to="Text" data-uml-arrow="--&gt;" points="901,292 783,292 783,708 666,708" fill="none" stroke="#1e293b" stroke-width="2" marker-end="url(#arrow-open)" /><line class="uml-relation" data-uml-from="CLI" data-uml-to="PlantumlFE" data-uml-arrow="--&gt;" x1="825" y1="400" x2="262" y2="172" stroke="#1e293b" stroke-width="2" marker-end="url(#arrow-open)" /><line class="uml-relation" data-uml-from="CLI" data-uml-to="PicoumlFE" data-uml-arrow="--&gt;" x1="856" y1="400" x2="471" y2="172" stroke="#1e293b" stroke-width="2" marker-end="url(#arrow-open)" /><line class="uml-relation" data-uml-from="CLI" data-uml-to="MermaidFE" data-uml-arrow="--&gt;" x1="887" y1="400" x2="680" y2="172" stroke="#1e293b" stroke-width="2" marker-end="url(#arrow-open)" /><polyline class="uml-relation" data-uml-from="CLI" data-uml-to="Preproc" data-uml-arrow="--&gt;" points="824,440 824,440 264,440 264,440" fill="none" stroke="#1e293b" stroke-width="2" marker-end="url(#arrow-open)" /><polyline class="uml-relation" data-uml-from="LSP" data-uml-to="LangSvc" data-uml-arrow="--&gt;" points="1064,440 1064,440 504,440 504,440" fill="none" stroke="#1e293b" stroke-width="2" marker-end="url(#arrow-open)" /><line class="uml-relation" data-uml-from="LangSvc" data-uml-to="Parser" data-uml-arrow="--&gt;" x1="471" y1="400" x2="856" y2="172" stroke="#1e293b" stroke-width="2" marker-end="url(#arrow-open)" /><line class="uml-relation" data-uml-from="LangSvc" data-uml-to="Diag" data-uml-arrow="--&gt;" x1="504" y1="440" x2="544" y2="440" stroke="#1e293b" stroke-width="2" marker-end="url(#arrow-open)" /><polyline class="uml-relation" data-uml-from="WASM" data-uml-to="LangSvc" data-uml-arrow="--&gt;" points="1304,440 1304,440 504,440 504,440" fill="none" stroke="#1e293b" stroke-width="2" marker-end="url(#arrow-open)" /><text x="544" y="120" text-anchor="middle" font-family="monospace" font-size="11" fill="#1e293b">source text</text><text x="664" y="120" text-anchor="middle" font-family="monospace" font-size="11" fill="#1e293b">source text</text><text x="784" y="120" text-anchor="middle" font-family="monospace" font-size="11" fill="#1e293b">source text</text><text x="543" y="274" text-anchor="middle" font-family="monospace" font-size="11" fill="#1e293b">expanded source</text><text x="1044" y="120" text-anchor="middle" font-family="monospace" font-size="11" fill="#1e293b">token tree</text><text x="1284" y="120" text-anchor="middle" font-family="monospace" font-size="11" fill="#1e293b">raw nodes</text><text x="1164" y="180" text-anchor="middle" font-family="monospace" font-size="11" fill="#1e293b">NormalizedDocument</text><text x="684" y="280" text-anchor="middle" font-family="monospace" font-size="11" fill="#1e293b">style tokens</text><text x="783" y="334" text-anchor="middle" font-family="monospace" font-size="11" fill="#1e293b">annotations</text><text x="543" y="488" text-anchor="middle" font-family="monospace" font-size="11" fill="#1e293b">vector output</text><text x="663" y="488" text-anchor="middle" font-family="monospace" font-size="11" fill="#1e293b">rasterized</text><text x="783" y="488" text-anchor="middle" font-family="monospace" font-size="11" fill="#1e293b">ascii art</text><text x="543" y="288" text-anchor="middle" font-family="monospace" font-size="11" fill="#1e293b">file input</text><text x="663" y="274" text-anchor="middle" font-family="monospace" font-size="11" fill="#1e293b">file input</text><text x="783" y="274" text-anchor="middle" font-family="monospace" font-size="11" fill="#1e293b">file input</text><text x="544" y="428" text-anchor="middle" font-family="monospace" font-size="11" fill="#1e293b">&lt;&lt;include&gt;&gt;</text><text x="784" y="428" text-anchor="middle" font-family="monospace" font-size="11" fill="#1e293b">hover / completion</text><text x="663" y="288" text-anchor="middle" font-family="monospace" font-size="11" fill="#1e293b">parse_with_options</text><text x="524" y="428" text-anchor="middle" font-family="monospace" font-size="11" fill="#1e293b">emit</text><text x="904" y="428" text-anchor="middle" font-family="monospace" font-size="11" fill="#1e293b">browser call</text></svg>