<svg xmlns="http://www.w3.org/2000/svg" width="1384" height="1816" viewBox="0 0 1384 1816"><rect width="100%" height="100%" fill="#f0f4f8"/><defs><marker id="arrow-open" viewBox="0 0 10 10" refX="9" refY="5" markerWidth="10" markerHeight="10" markerUnits="userSpaceOnUse" orient="auto-start-reverse"><path d="M0,0 L10,5 L0,10" fill="none" stroke="#1e293b" stroke-width="1.5"/></marker><marker id="arrow-triangle" viewBox="0 0 12 12" refX="11" refY="6" markerWidth="12" markerHeight="12" markerUnits="userSpaceOnUse" orient="auto-start-reverse"><polygon points="0,0 12,6 0,12" fill="#ffffff" stroke="#1e293b" stroke-width="1.5" fill-rule="nonzero"/></marker><marker id="arrow-diamond-filled" viewBox="0 0 14 10" refX="13" refY="5" markerWidth="14" markerHeight="10" markerUnits="userSpaceOnUse" orient="auto-start-reverse"><path d="M0,5 L7,0 L14,5 L7,10 z" fill="#1e293b" stroke="#1e293b" stroke-width="1"/></marker><marker id="arrow-diamond-open" viewBox="0 0 14 10" refX="13" refY="5" markerWidth="14" markerHeight="10" markerUnits="userSpaceOnUse" orient="auto-start-reverse"><path d="M0,5 L7,0 L14,5 L7,10 z" fill="#ffffff" stroke="#1e293b" stroke-width="1"/></marker></defs><rect class="uml-group-frame" data-uml-group="Frontends" x="68" y="292" width="728" height="156" rx="8" ry="8" fill="#f8faff" stroke="#1e293b" stroke-width="1.5"/><rect x="68" y="292" width="152" height="28" rx="8" ry="8" fill="#1e293b" stroke="#1e293b" stroke-width="1.5"/><rect x="68" y="312" width="152" height="8" fill="#1e293b" stroke="none"/><text x="76" y="312" font-family="monospace" font-size="11" font-weight="600" fill="#ffffff">package Frontends</text><line x1="68" y1="320" x2="796" y2="320" stroke="#1e293b" stroke-width="1"/><rect class="uml-group-frame" data-uml-group="Pipeline Core" x="428" y="544" width="368" height="912" rx="8" ry="8" fill="#f8faff" stroke="#1e293b" stroke-width="1.5"/><rect x="428" y="544" width="184" height="28" rx="8" ry="8" fill="#1e293b" stroke="#1e293b" stroke-width="1.5"/><rect x="428" y="564" width="184" height="8" fill="#1e293b" stroke="none"/><text x="436" y="564" font-family="monospace" font-size="11" font-weight="600" fill="#ffffff">package Pipeline Core</text><line x1="428" y1="572" x2="796" y2="572" stroke="#1e293b" stroke-width="1"/><rect class="uml-group-frame" data-uml-group="Shared Services" x="668" y="40" width="608" height="660" rx="8" ry="8" fill="#f8faff" stroke="#1e293b" stroke-width="1.5"/><rect x="668" y="40" width="200" height="28" rx="8" ry="8" fill="#1e293b" stroke="#1e293b" stroke-width="1.5"/><rect x="668" y="60" width="200" height="8" fill="#1e293b" stroke="none"/><text x="676" y="60" font-family="monospace" font-size="11" font-weight="600" fill="#ffffff">package Shared Services</text><line x1="668" y1="68" x2="1276" y2="68" stroke="#1e293b" stroke-width="1"/><rect class="uml-group-frame" data-uml-group="Transports" x="188" y="40" width="728" height="156" rx="8" ry="8" fill="#f8faff" stroke="#1e293b" stroke-width="1.5"/><rect x="188" y="40" width="160" height="28" rx="8" ry="8" fill="#1e293b" stroke="#1e293b" stroke-width="1.5"/><rect x="188" y="60" width="160" height="8" fill="#1e293b" stroke="none"/><text x="196" y="60" font-family="monospace" font-size="11" font-weight="600" fill="#ffffff">package Transports</text><line x1="188" y1="68" x2="916" y2="68" stroke="#1e293b" stroke-width="1"/><rect class="uml-group-frame" data-uml-group="Output Formats" x="308" y="1552" width="728" height="156" rx="8" ry="8" fill="#f8faff" stroke="#1e293b" stroke-width="1.5"/><rect x="308" y="1552" width="192" height="28" rx="8" ry="8" fill="#1e293b" stroke="#1e293b" stroke-width="1.5"/><rect x="308" y="1572" width="192" height="8" fill="#1e293b" stroke="none"/><text x="316" y="1572" font-family="monospace" font-size="11" font-weight="600" fill="#ffffff">package Output Formats</text><line x1="308" y1="1580" x2="1036" y2="1580" stroke="#1e293b" stroke-width="1"/><desc data-uml-id="Frontends::PlantumlFE">Frontends::PlantumlFE</desc><rect class="uml-node uml-component" data-uml-kind="component" x="572" y="344" width="200" height="80" rx="4" ry="4" fill="#f0f4f8" stroke="#1e293b" stroke-width="1"/><rect x="568" y="356" width="16" height="8" fill="#f0f4f8" stroke="#1e293b" stroke-width="1"/><rect x="568" y="404" width="16" height="8" fill="#f0f4f8" stroke="#1e293b" stroke-width="1"/><text x="672" y="390" text-anchor="middle" font-family="monospace" font-size="13" font-weight="600" fill="#0f172a">PlantUML Frontend</text><text x="672" y="358" text-anchor="middle" font-family="monospace" font-size="10" fill="#0f172a">«component»</text><desc data-uml-id="Frontends::PicoumlFE">Frontends::PicoumlFE</desc><rect class="uml-node uml-component" data-uml-kind="component" x="332" y="344" width="200" height="80" rx="4" ry="4" fill="#f0f4f8" stroke="#1e293b" stroke-width="1"/><rect x="328" y="356" width="16" height="8" fill="#f0f4f8" stroke="#1e293b" stroke-width="1"/><rect x="328" y="404" width="16" height="8" fill="#f0f4f8" stroke="#1e293b" stroke-width="1"/><text x="432" y="390" text-anchor="middle" font-family="monospace" font-size="13" font-weight="600" fill="#0f172a">PicoUML Frontend</text><text x="432" y="358" text-anchor="middle" font-family="monospace" font-size="10" fill="#0f172a">«component»</text><desc data-uml-id="Frontends::MermaidFE">Frontends::MermaidFE</desc><rect class="uml-node uml-component" data-uml-kind="component" x="92" y="344" width="200" height="80" rx="4" ry="4" fill="#f0f4f8" stroke="#1e293b" stroke-width="1"/><rect x="88" y="356" width="16" height="8" fill="#f0f4f8" stroke="#1e293b" stroke-width="1"/><rect x="88" y="404" width="16" height="8" fill="#f0f4f8" stroke="#1e293b" stroke-width="1"/><text x="192" y="390" text-anchor="middle" font-family="monospace" font-size="13" font-weight="600" fill="#0f172a">Mermaid Adapter</text><text x="192" y="358" text-anchor="middle" font-family="monospace" font-size="10" fill="#0f172a">«component»</text><desc data-uml-id="Pipeline Core::Parser">Pipeline Core::Parser</desc><rect class="uml-node uml-component" data-uml-kind="component" x="452" y="596" width="200" height="80" rx="4" ry="4" fill="#f0f4f8" stroke="#1e293b" stroke-width="1"/><rect x="448" y="608" width="16" height="8" fill="#f0f4f8" stroke="#1e293b" stroke-width="1"/><rect x="448" y="656" width="16" height="8" fill="#f0f4f8" stroke="#1e293b" stroke-width="1"/><text x="552" y="642" text-anchor="middle" font-family="monospace" font-size="13" font-weight="600" fill="#0f172a">Parser</text><text x="552" y="610" text-anchor="middle" font-family="monospace" font-size="10" fill="#0f172a">«component»</text><desc data-uml-id="Pipeline Core::AST">Pipeline Core::AST</desc><rect class="uml-node uml-component" data-uml-kind="component" x="572" y="848" width="200" height="80" rx="4" ry="4" fill="#f0f4f8" stroke="#1e293b" stroke-width="1"/><rect x="568" y="860" width="16" height="8" fill="#f0f4f8" stroke="#1e293b" stroke-width="1"/><rect x="568" y="908" width="16" height="8" fill="#f0f4f8" stroke="#1e293b" stroke-width="1"/><text x="672" y="894" text-anchor="middle" font-family="monospace" font-size="13" font-weight="600" fill="#0f172a">AST</text><text x="672" y="862" text-anchor="middle" font-family="monospace" font-size="10" fill="#0f172a">«component»</text><desc data-uml-id="Pipeline Core::Normalizer">Pipeline Core::Normalizer</desc><rect class="uml-node uml-component" data-uml-kind="component" x="572" y="1100" width="200" height="80" rx="4" ry="4" fill="#f0f4f8" stroke="#1e293b" stroke-width="1"/><rect x="568" y="1112" width="16" height="8" fill="#f0f4f8" stroke="#1e293b" stroke-width="1"/><rect x="568" y="1160" width="16" height="8" fill="#f0f4f8" stroke="#1e293b" stroke-width="1"/><text x="672" y="1146" text-anchor="middle" font-family="monospace" font-size="13" font-weight="600" fill="#0f172a">Normalizer</text><text x="672" y="1114" text-anchor="middle" font-family="monospace" font-size="10" fill="#0f172a">«component»</text><desc data-uml-id="Pipeline Core::Renderer">Pipeline Core::Renderer</desc><rect class="uml-node uml-component" data-uml-kind="component" x="572" y="1352" width="200" height="80" rx="4" ry="4" fill="#f0f4f8" stroke="#1e293b" stroke-width="1"/><rect x="568" y="1364" width="16" height="8" fill="#f0f4f8" stroke="#1e293b" stroke-width="1"/><rect x="568" y="1412" width="16" height="8" fill="#f0f4f8" stroke="#1e293b" stroke-width="1"/><text x="672" y="1398" text-anchor="middle" font-family="monospace" font-size="13" font-weight="600" fill="#0f172a">Renderer</text><text x="672" y="1366" text-anchor="middle" font-family="monospace" font-size="10" fill="#0f172a">«component»</text><desc data-uml-id="Shared Services::Preproc">Shared Services::Preproc</desc><rect class="uml-node uml-component" data-uml-kind="component" x="812" y="344" width="200" height="80" rx="4" ry="4" fill="#f0f4f8" stroke="#1e293b" stroke-width="1"/><rect x="808" y="356" width="16" height="8" fill="#f0f4f8" stroke="#1e293b" stroke-width="1"/><rect x="808" y="404" width="16" height="8" fill="#f0f4f8" stroke="#1e293b" stroke-width="1"/><text x="912" y="390" text-anchor="middle" font-family="monospace" font-size="13" font-weight="600" fill="#0f172a">Preprocessor</text><text x="912" y="358" text-anchor="middle" font-family="monospace" font-size="10" fill="#0f172a">«component»</text><desc data-uml-id="Shared Services::LangSvc">Shared Services::LangSvc</desc><rect class="uml-node uml-component" data-uml-kind="component" x="1052" y="344" width="200" height="80" rx="4" ry="4" fill="#f0f4f8" stroke="#1e293b" stroke-width="1"/><rect x="1048" y="356" width="16" height="8" fill="#f0f4f8" stroke="#1e293b" stroke-width="1"/><rect x="1048" y="404" width="16" height="8" fill="#f0f4f8" stroke="#1e293b" stroke-width="1"/><text x="1152" y="390" text-anchor="middle" font-family="monospace" font-size="13" font-weight="600" fill="#0f172a">Language Service</text><text x="1152" y="358" text-anchor="middle" font-family="monospace" font-size="10" fill="#0f172a">«component»</text><desc data-uml-id="Shared Services::Diag">Shared Services::Diag</desc><rect class="uml-node uml-component" data-uml-kind="component" x="692" y="596" width="200" height="80" rx="4" ry="4" fill="#f0f4f8" stroke="#1e293b" stroke-width="1"/><rect x="688" y="608" width="16" height="8" fill="#f0f4f8" stroke="#1e293b" stroke-width="1"/><rect x="688" y="656" width="16" height="8" fill="#f0f4f8" stroke="#1e293b" stroke-width="1"/><text x="792" y="642" text-anchor="middle" font-family="monospace" font-size="13" font-weight="600" fill="#0f172a">Diagnostics</text><text x="792" y="610" text-anchor="middle" font-family="monospace" font-size="10" fill="#0f172a">«component»</text><desc data-uml-id="Shared Services::Theme">Shared Services::Theme</desc><rect class="uml-node uml-component" data-uml-kind="component" x="932" y="92" width="200" height="80" rx="4" ry="4" fill="#f0f4f8" stroke="#1e293b" stroke-width="1"/><rect x="928" y="104" width="16" height="8" fill="#f0f4f8" stroke="#1e293b" stroke-width="1"/><rect x="928" y="152" width="16" height="8" fill="#f0f4f8" stroke="#1e293b" stroke-width="1"/><text x="1032" y="138" text-anchor="middle" font-family="monospace" font-size="13" font-weight="600" fill="#0f172a">Theme Engine</text><text x="1032" y="106" text-anchor="middle" font-family="monospace" font-size="10" fill="#0f172a">«component»</text><desc data-uml-id="Transports::CLI">Transports::CLI</desc><rect class="uml-node uml-component" data-uml-kind="component" x="212" y="92" width="200" height="80" rx="4" ry="4" fill="#f0f4f8" stroke="#1e293b" stroke-width="1"/><rect x="208" y="104" width="16" height="8" fill="#f0f4f8" stroke="#1e293b" stroke-width="1"/><rect x="208" y="152" width="16" height="8" fill="#f0f4f8" stroke="#1e293b" stroke-width="1"/><text x="312" y="138" text-anchor="middle" font-family="monospace" font-size="13" font-weight="600" fill="#0f172a">CLI Binary</text><text x="312" y="106" text-anchor="middle" font-family="monospace" font-size="10" fill="#0f172a">«component»</text><desc data-uml-id="Transports::LSP">Transports::LSP</desc><rect class="uml-node uml-component" data-uml-kind="component" x="452" y="92" width="200" height="80" rx="4" ry="4" fill="#f0f4f8" stroke="#1e293b" stroke-width="1"/><rect x="448" y="104" width="16" height="8" fill="#f0f4f8" stroke="#1e293b" stroke-width="1"/><rect x="448" y="152" width="16" height="8" fill="#f0f4f8" stroke="#1e293b" stroke-width="1"/><text x="552" y="138" text-anchor="middle" font-family="monospace" font-size="13" font-weight="600" fill="#0f172a">LSP Server</text><text x="552" y="106" text-anchor="middle" font-family="monospace" font-size="10" fill="#0f172a">«component»</text><desc data-uml-id="Transports::WASM">Transports::WASM</desc><rect class="uml-node uml-component" data-uml-kind="component" x="692" y="92" width="200" height="80" rx="4" ry="4" fill="#f0f4f8" stroke="#1e293b" stroke-width="1"/><rect x="688" y="104" width="16" height="8" fill="#f0f4f8" stroke="#1e293b" stroke-width="1"/><rect x="688" y="152" width="16" height="8" fill="#f0f4f8" stroke="#1e293b" stroke-width="1"/><text x="792" y="138" text-anchor="middle" font-family="monospace" font-size="13" font-weight="600" fill="#0f172a">WASM Crate</text><text x="792" y="106" text-anchor="middle" font-family="monospace" font-size="10" fill="#0f172a">«component»</text><desc data-uml-id="Output Formats::SVG">Output Formats::SVG</desc><rect class="uml-node uml-component" data-uml-kind="component" x="572" y="1604" width="200" height="80" rx="4" ry="4" fill="#f0f4f8" stroke="#1e293b" stroke-width="1"/><rect x="568" y="1616" width="16" height="8" fill="#f0f4f8" stroke="#1e293b" stroke-width="1"/><rect x="568" y="1664" width="16" height="8" fill="#f0f4f8" stroke="#1e293b" stroke-width="1"/><text x="672" y="1650" text-anchor="middle" font-family="monospace" font-size="13" font-weight="600" fill="#0f172a">SVG</text><text x="672" y="1618" text-anchor="middle" font-family="monospace" font-size="10" fill="#0f172a">«component»</text><desc data-uml-id="Output Formats::Raster">Output Formats::Raster</desc><rect class="uml-node uml-component" data-uml-kind="component" x="332" y="1604" width="200" height="80" rx="4" ry="4" fill="#f0f4f8" stroke="#1e293b" stroke-width="1"/><rect x="328" y="1616" width="16" height="8" fill="#f0f4f8" stroke="#1e293b" stroke-width="1"/><rect x="328" y="1664" width="16" height="8" fill="#f0f4f8" stroke="#1e293b" stroke-width="1"/><text x="432" y="1650" text-anchor="middle" font-family="monospace" font-size="13" font-weight="600" fill="#0f172a">PNG / JPEG</text><text x="432" y="1618" text-anchor="middle" font-family="monospace" font-size="10" fill="#0f172a">«component»</text><desc data-uml-id="Output Formats::Text">Output Formats::Text</desc><rect class="uml-node uml-component" data-uml-kind="component" x="812" y="1604" width="200" height="80" rx="4" ry="4" fill="#f0f4f8" stroke="#1e293b" stroke-width="1"/><rect x="808" y="1616" width="16" height="8" fill="#f0f4f8" stroke="#1e293b" stroke-width="1"/><rect x="808" y="1664" width="16" height="8" fill="#f0f4f8" stroke="#1e293b" stroke-width="1"/><text x="912" y="1650" text-anchor="middle" font-family="monospace" font-size="13" font-weight="600" fill="#0f172a">Text (utxt/atxt)</text><text x="912" y="1618" text-anchor="middle" font-family="monospace" font-size="10" fill="#0f172a">«component»</text><polyline class="uml-relation" data-uml-from="PlantumlFE" data-uml-to="Parser" data-uml-arrow="--&gt;" points="672,424 672,538 552,538 552,596" fill="none" stroke="#1e293b" stroke-width="2" marker-end="url(#arrow-open)" /><polyline class="uml-relation" data-uml-from="PicoumlFE" data-uml-to="Parser" data-uml-arrow="--&gt;" points="432,424 432,530 552,530 552,596" fill="none" stroke="#1e293b" stroke-width="2" marker-end="url(#arrow-open)" /><polyline class="uml-relation" data-uml-from="MermaidFE" data-uml-to="Parser" data-uml-arrow="--&gt;" points="192,424 192,522 552,522 552,596" fill="none" stroke="#1e293b" stroke-width="2" marker-end="url(#arrow-open)" /><polyline class="uml-relation" data-uml-from="Preproc" data-uml-to="Parser" data-uml-arrow="--&gt;" points="912,424 912,546 552,546 552,596" fill="none" stroke="#1e293b" stroke-width="2" marker-end="url(#arrow-open)" /><polyline class="uml-relation" data-uml-from="Parser" data-uml-to="AST" data-uml-arrow="--&gt;" points="552,676 552,786 672,786 672,848" fill="none" stroke="#1e293b" stroke-width="2" marker-end="url(#arrow-open)" /><polyline class="uml-relation" data-uml-from="AST" data-uml-to="Normalizer" data-uml-arrow="--&gt;" points="672,928 672,1050 672,1100" fill="none" stroke="#1e293b" stroke-width="2" marker-end="url(#arrow-open)" /><polyline class="uml-relation" data-uml-from="Normalizer" data-uml-to="Renderer" data-uml-arrow="--&gt;" points="672,1180 672,1302 672,1352" fill="none" stroke="#1e293b" stroke-width="2" marker-end="url(#arrow-open)" /><polyline class="uml-relation" data-uml-from="Theme" data-uml-to="Renderer" data-uml-arrow="--&gt;" points="1032,172 1032,282 960,282 960,514 888,514 888,778 816,778 816,1026 744,1026 744,1278 672,1278 672,1352" fill="none" stroke="#1e293b" stroke-width="2" marker-end="url(#arrow-open)" /><polyline class="uml-relation" data-uml-from="Diag" data-uml-to="Renderer" data-uml-arrow="--&gt;" points="792,676 792,794 752,794 752,1042 712,1042 712,1294 672,1294 672,1352" fill="none" stroke="#1e293b" stroke-width="2" marker-end="url(#arrow-open)" /><polyline class="uml-relation" data-uml-from="Renderer" data-uml-to="SVG" data-uml-arrow="--&gt;" points="672,1432 672,1526 672,1604" fill="none" stroke="#1e293b" stroke-width="2" marker-end="url(#arrow-open)" /><polyline class="uml-relation" data-uml-from="Renderer" data-uml-to="Raster" data-uml-arrow="--&gt;" points="672,1432 672,1510 432,1510 432,1604" fill="none" stroke="#1e293b" stroke-width="2" marker-end="url(#arrow-open)" /><polyline class="uml-relation" data-uml-from="Renderer" data-uml-to="Text" data-uml-arrow="--&gt;" points="672,1432 672,1518 912,1518 912,1604" fill="none" stroke="#1e293b" stroke-width="2" marker-end="url(#arrow-open)" /><polyline class="uml-relation" data-uml-from="CLI" data-uml-to="PlantumlFE" data-uml-arrow="--&gt;" points="312,172 312,234 672,234 672,344" fill="none" stroke="#1e293b" stroke-width="2" marker-end="url(#arrow-open)" /><polyline class="uml-relation" data-uml-from="CLI" data-uml-to="PicoumlFE" data-uml-arrow="--&gt;" points="312,172 312,242 432,242 432,344" fill="none" stroke="#1e293b" stroke-width="2" marker-end="url(#arrow-open)" /><polyline class="uml-relation" data-uml-from="CLI" data-uml-to="MermaidFE" data-uml-arrow="--&gt;" points="312,172 312,250 192,250 192,344" fill="none" stroke="#1e293b" stroke-width="2" marker-end="url(#arrow-open)" /><polyline class="uml-relation" data-uml-from="CLI" data-uml-to="Preproc" data-uml-arrow="--&gt;" points="312,172 312,258 912,258 912,344" fill="none" stroke="#1e293b" stroke-width="2" marker-end="url(#arrow-open)" /><polyline class="uml-relation" data-uml-from="LSP" data-uml-to="LangSvc" data-uml-arrow="--&gt;" points="552,172 552,266 1152,266 1152,344" fill="none" stroke="#1e293b" stroke-width="2" marker-end="url(#arrow-open)" /><polyline class="uml-relation" data-uml-from="LangSvc" data-uml-to="Parser" data-uml-arrow="--&gt;" points="1152,424 1152,554 552,554 552,596" fill="none" stroke="#1e293b" stroke-width="2" marker-end="url(#arrow-open)" /><polyline class="uml-relation" data-uml-from="LangSvc" data-uml-to="Diag" data-uml-arrow="--&gt;" points="1152,424 1152,554 792,554 792,596" fill="none" stroke="#1e293b" stroke-width="2" marker-end="url(#arrow-open)" /><polyline class="uml-relation" data-uml-from="WASM" data-uml-to="LangSvc" data-uml-arrow="--&gt;" points="792,172 792,274 1152,274 1152,344" fill="none" stroke="#1e293b" stroke-width="2" marker-end="url(#arrow-open)" /><text x="278" y="179" text-anchor="middle" font-family="monospace" font-size="11" fill="#1e293b">file input</text><text x="306" y="203" text-anchor="middle" font-family="monospace" font-size="11" fill="#1e293b">file input</text><text x="334" y="227" text-anchor="middle" font-family="monospace" font-size="11" fill="#1e293b">file input</text><text x="362" y="251" text-anchor="middle" font-family="monospace" font-size="11" fill="#1e293b">&lt;&lt;include&gt;&gt;</text><text x="546" y="213" text-anchor="middle" font-family="monospace" font-size="11" fill="#1e293b">hover / completion</text><text x="786" y="217" text-anchor="middle" font-family="monospace" font-size="11" fill="#1e293b">browser call</text><text x="186" y="467" text-anchor="middle" font-family="monospace" font-size="11" fill="#1e293b">source text</text><text x="426" y="471" text-anchor="middle" font-family="monospace" font-size="11" fill="#1e293b">source text</text><text x="666" y="475" text-anchor="middle" font-family="monospace" font-size="11" fill="#1e293b">source text</text><text x="906" y="479" text-anchor="middle" font-family="monospace" font-size="11" fill="#1e293b">expanded source</text><text x="1146" y="483" text-anchor="middle" font-family="monospace" font-size="11" fill="#1e293b">parse_with_options</text><text x="1158" y="501" text-anchor="middle" font-family="monospace" font-size="11" fill="#1e293b">emit</text><text x="546" y="725" text-anchor="middle" font-family="monospace" font-size="11" fill="#1e293b">token tree</text><text x="666" y="983" text-anchor="middle" font-family="monospace" font-size="11" fill="#1e293b">raw nodes</text><text x="666" y="1235" text-anchor="middle" font-family="monospace" font-size="11" fill="#1e293b">NormalizedDocument</text><text x="700" y="1274" text-anchor="middle" font-family="monospace" font-size="11" fill="#1e293b">style tokens</text><text x="712" y="1292" text-anchor="middle" font-family="monospace" font-size="11" fill="#1e293b">annotations</text><text x="638" y="1445" text-anchor="middle" font-family="monospace" font-size="11" fill="#1e293b">rasterized</text><text x="666" y="1469" text-anchor="middle" font-family="monospace" font-size="11" fill="#1e293b">ascii art</text><text x="694" y="1493" text-anchor="middle" font-family="monospace" font-size="11" fill="#1e293b">vector output</text></svg>