<svg xmlns="http://www.w3.org/2000/svg" width="752" height="1090" viewBox="0 0 752 1090"><rect width="100%" height="100%" fill="#f0f4f8"/><defs><marker id="arrow-open" viewBox="0 0 10 10" refX="9" refY="5" markerWidth="10" markerHeight="10" markerUnits="userSpaceOnUse" orient="auto-start-reverse"><path d="M0,0 L10,5 L0,10" fill="none" stroke="#1e293b" stroke-width="1.5"/></marker><marker id="arrow-triangle" viewBox="0 0 12 12" refX="11" refY="6" markerWidth="12" markerHeight="12" markerUnits="userSpaceOnUse" orient="auto-start-reverse"><polygon points="0,0 12,6 0,12" fill="#ffffff" stroke="#1e293b" stroke-width="1.5" fill-rule="nonzero"/></marker><marker id="arrow-diamond-filled" viewBox="0 0 14 10" refX="13" refY="5" markerWidth="14" markerHeight="10" markerUnits="userSpaceOnUse" orient="auto-start-reverse"><path d="M0,5 L7,0 L14,5 L7,10 z" fill="#1e293b" stroke="#1e293b" stroke-width="1"/></marker><marker id="arrow-diamond-open" viewBox="0 0 14 10" refX="13" refY="5" markerWidth="14" markerHeight="10" markerUnits="userSpaceOnUse" orient="auto-start-reverse"><path d="M0,5 L7,0 L14,5 L7,10 z" fill="#ffffff" stroke="#1e293b" stroke-width="1"/></marker><marker id="arrow-double-open" viewBox="0 0 16 12" refX="15" refY="6" markerWidth="16" markerHeight="12" markerUnits="userSpaceOnUse" orient="auto-start-reverse"><path d="M0,1 L8,6 L0,11 M7,1 L15,6 L7,11" fill="none" stroke="#1e293b" stroke-width="1.5" stroke-linejoin="round"/></marker><marker id="arrow-circle-open" viewBox="0 0 12 12" refX="11" refY="6" markerWidth="12" markerHeight="12" markerUnits="userSpaceOnUse" orient="auto-start-reverse"><circle cx="6" cy="6" r="4" fill="#ffffff" stroke="#1e293b" stroke-width="1.5"/></marker><marker id="arrow-circle-filled" viewBox="0 0 12 12" refX="11" refY="6" markerWidth="12" markerHeight="12" markerUnits="userSpaceOnUse" orient="auto-start-reverse"><circle cx="6" cy="6" r="4" fill="#1e293b" stroke="#1e293b" stroke-width="1.5"/></marker><marker id="arrow-triangle-filled" viewBox="0 0 12 12" refX="11" refY="6" markerWidth="12" markerHeight="12" markerUnits="userSpaceOnUse" orient="auto-start-reverse"><polygon points="0,0 12,6 0,12" fill="#1e293b" stroke="#1e293b" stroke-width="1.5"/></marker><marker id="arrow-box-filled" viewBox="0 0 12 12" refX="11" refY="6" markerWidth="12" markerHeight="12" markerUnits="userSpaceOnUse" orient="auto-start-reverse"><rect x="2" y="2" width="8" height="8" fill="#1e293b" stroke="#1e293b" stroke-width="1.5"/></marker><marker id="arrow-plus" viewBox="0 0 12 12" refX="11" refY="6" markerWidth="12" markerHeight="12" markerUnits="userSpaceOnUse" orient="auto-start-reverse"><path d="M6,1 L6,11 M1,6 L11,6" fill="none" stroke="#1e293b" stroke-width="1.8" stroke-linecap="round"/></marker><marker id="arrow-slash" viewBox="0 0 12 12" refX="10" refY="6" markerWidth="12" markerHeight="12" markerUnits="userSpaceOnUse" orient="auto-start-reverse"><path d="M3,2 L9,10" fill="none" stroke="#1e293b" stroke-width="1.8" stroke-linecap="round"/></marker><marker id="arrow-cross" viewBox="0 0 12 12" refX="11" refY="6" markerWidth="12" markerHeight="12" markerUnits="userSpaceOnUse" orient="auto-start-reverse"><path d="M2,2 L10,10 M10,2 L2,10" fill="none" stroke="#1e293b" stroke-width="1.8" stroke-linecap="round"/></marker><marker id="arrow-bracket-open" viewBox="0 0 12 14" refX="11" refY="7" markerWidth="12" markerHeight="14" markerUnits="userSpaceOnUse" orient="auto-start-reverse"><path d="M10,1 L4,1 L4,13 L10,13" fill="none" stroke="#1e293b" stroke-width="1.8" stroke-linecap="round" stroke-linejoin="round"/></marker></defs><marker id="arrow-ie-one" viewBox="0 0 24 16" refX="22" refY="8" markerWidth="24" markerHeight="16" markerUnits="userSpaceOnUse" orient="auto-start-reverse"><path d="M16,2 L16,14" fill="none" stroke="#1e293b" stroke-width="1.8" stroke-linecap="round"/></marker><marker id="arrow-ie-zero-one" viewBox="0 0 30 16" refX="28" refY="8" markerWidth="30" markerHeight="16" markerUnits="userSpaceOnUse" orient="auto-start-reverse"><circle cx="10" cy="8" r="4" fill="#ffffff" stroke="#1e293b" stroke-width="1.5"/><path d="M20,2 L20,14" fill="none" stroke="#1e293b" stroke-width="1.8" stroke-linecap="round"/></marker><marker id="arrow-ie-zero-many" viewBox="0 0 34 18" refX="32" refY="9" markerWidth="34" markerHeight="18" markerUnits="userSpaceOnUse" orient="auto-start-reverse"><circle cx="8" cy="9" r="4" fill="#ffffff" stroke="#1e293b" stroke-width="1.5"/><path d="M18,9 L31,2 M18,9 L31,9 M18,9 L31,16" fill="none" stroke="#1e293b" stroke-width="1.7" stroke-linecap="round"/></marker><marker id="arrow-ie-one-many" viewBox="0 0 34 18" refX="32" refY="9" markerWidth="34" markerHeight="18" markerUnits="userSpaceOnUse" orient="auto-start-reverse"><path d="M8,2 L8,16 M18,9 L31,2 M18,9 L31,9 M18,9 L31,16" fill="none" stroke="#1e293b" stroke-width="1.7" stroke-linecap="round"/></marker><rect class="uml-group-frame" data-uml-group="Transports" x="48" y="8" width="502" height="114" rx="8" ry="8" fill="#f8faff" stroke="#1e293b" stroke-width="1.5"/><rect x="48" y="8" width="502" height="40" rx="8" ry="8" fill="#1e293b" stroke="none"/><rect x="48" y="40" width="502" height="8" fill="#1e293b" stroke="none"/><text x="56" y="40" font-family="monospace" font-size="11" font-weight="600" fill="#ffffff">package Transports</text><line x1="48" y1="48" x2="550" y2="48" stroke="#1e293b" stroke-width="1"/><rect class="uml-group-frame" data-uml-group="Frontends" x="48" y="160" width="154" height="114" rx="8" ry="8" fill="#f8faff" stroke="#1e293b" stroke-width="1.5"/><rect x="48" y="160" width="154" height="40" rx="8" ry="8" fill="#1e293b" stroke="none"/><rect x="48" y="192" width="154" height="8" fill="#1e293b" stroke="none"/><text x="56" y="192" font-family="monospace" font-size="11" font-weight="600" fill="#ffffff">package Frontends</text><line x1="48" y1="200" x2="202" y2="200" stroke="#1e293b" stroke-width="1"/><rect class="uml-group-frame" data-uml-group="Shared Services" x="416" y="160" width="328" height="266" rx="8" ry="8" fill="#f8faff" stroke="#1e293b" stroke-width="1.5"/><rect x="416" y="160" width="328" height="40" rx="8" ry="8" fill="#1e293b" stroke="none"/><rect x="416" y="192" width="328" height="8" fill="#1e293b" stroke="none"/><text x="424" y="192" font-family="monospace" font-size="11" font-weight="600" fill="#ffffff">package Shared Services</text><line x1="416" y1="200" x2="744" y2="200" stroke="#1e293b" stroke-width="1"/><rect class="uml-group-frame" data-uml-group="Pipeline Core" x="135" y="312" width="241" height="570" rx="8" ry="8" fill="#f8faff" stroke="#1e293b" stroke-width="1.5"/><rect x="135" y="312" width="241" height="40" rx="8" ry="8" fill="#1e293b" stroke="none"/><rect x="135" y="344" width="241" height="8" fill="#1e293b" stroke="none"/><text x="143" y="344" font-family="monospace" font-size="11" font-weight="600" fill="#ffffff">package Pipeline Core</text><line x1="135" y1="352" x2="376" y2="352" stroke="#1e293b" stroke-width="1"/><rect class="uml-group-frame" data-uml-group="Output Formats" x="222" y="920" width="154" height="114" rx="8" ry="8" fill="#f8faff" stroke="#1e293b" stroke-width="1.5"/><rect x="222" y="920" width="154" height="40" rx="8" ry="8" fill="#1e293b" stroke="none"/><rect x="222" y="952" width="154" height="8" fill="#1e293b" stroke="none"/><text x="230" y="952" font-family="monospace" font-size="11" font-weight="600" fill="#ffffff">package Output Formats</text><line x1="222" y1="960" x2="376" y2="960" stroke="#1e293b" stroke-width="1"/><desc data-uml-id="Transports::CLI">Transports::CLI</desc><rect class="uml-node uml-component" data-uml-kind="component" x="60" y="60" width="130" height="50" rx="4" ry="4" fill="#f0f4f8" stroke="#1e293b" stroke-width="1.5"/><rect x="56" y="72" width="16" height="8" fill="#f0f4f8" stroke="#1e293b" stroke-width="1"/><rect x="56" y="90" width="16" height="8" fill="#f0f4f8" stroke="#1e293b" stroke-width="1"/><text x="125" y="91" text-anchor="middle" font-family="monospace" font-size="13" font-weight="600" fill="#0f172a">CLI</text><desc data-uml-id="Transports::LSP">Transports::LSP</desc><rect class="uml-node uml-component" data-uml-kind="component" x="234" y="60" width="130" height="50" rx="4" ry="4" fill="#f0f4f8" stroke="#1e293b" stroke-width="1.5"/><rect x="230" y="72" width="16" height="8" fill="#f0f4f8" stroke="#1e293b" stroke-width="1"/><rect x="230" y="90" width="16" height="8" fill="#f0f4f8" stroke="#1e293b" stroke-width="1"/><text x="299" y="91" text-anchor="middle" font-family="monospace" font-size="13" font-weight="600" fill="#0f172a">LSP</text><desc data-uml-id="Transports::WASM">Transports::WASM</desc><rect class="uml-node uml-component" data-uml-kind="component" x="408" y="60" width="130" height="50" rx="4" ry="4" fill="#f0f4f8" stroke="#1e293b" stroke-width="1.5"/><rect x="404" y="72" width="16" height="8" fill="#f0f4f8" stroke="#1e293b" stroke-width="1"/><rect x="404" y="90" width="16" height="8" fill="#f0f4f8" stroke="#1e293b" stroke-width="1"/><text x="473" y="91" text-anchor="middle" font-family="monospace" font-size="13" font-weight="600" fill="#0f172a">WASM</text><desc data-uml-id="Frontends::AdaptersComp">Frontends::AdaptersComp</desc><rect class="uml-node uml-component" data-uml-kind="component" x="60" y="212" width="130" height="50" rx="4" ry="4" fill="#f0f4f8" stroke="#1e293b" stroke-width="1.5"/><rect x="56" y="224" width="16" height="8" fill="#f0f4f8" stroke="#1e293b" stroke-width="1"/><rect x="56" y="242" width="16" height="8" fill="#f0f4f8" stroke="#1e293b" stroke-width="1"/><text x="125" y="243" text-anchor="middle" font-family="monospace" font-size="13" font-weight="600" fill="#0f172a">Adapters</text><desc data-uml-id="Shared Services::Preproc">Shared Services::Preproc</desc><rect class="uml-node uml-component" data-uml-kind="component" x="428" y="212" width="130" height="50" rx="4" ry="4" fill="#f0f4f8" stroke="#1e293b" stroke-width="1.5"/><rect x="424" y="224" width="16" height="8" fill="#f0f4f8" stroke="#1e293b" stroke-width="1"/><rect x="424" y="242" width="16" height="8" fill="#f0f4f8" stroke="#1e293b" stroke-width="1"/><text x="493" y="243" text-anchor="middle" font-family="monospace" font-size="13" font-weight="600" fill="#0f172a">Preprocessor</text><desc data-uml-id="Shared Services::LangSvc">Shared Services::LangSvc</desc><rect class="uml-node uml-component" data-uml-kind="component" x="602" y="212" width="130" height="50" rx="4" ry="4" fill="#f0f4f8" stroke="#1e293b" stroke-width="1.5"/><rect x="598" y="224" width="16" height="8" fill="#f0f4f8" stroke="#1e293b" stroke-width="1"/><rect x="598" y="242" width="16" height="8" fill="#f0f4f8" stroke="#1e293b" stroke-width="1"/><text x="667" y="243" text-anchor="middle" font-family="monospace" font-size="13" font-weight="600" fill="#0f172a">Language Service</text><desc data-uml-id="Shared Services::RenderSupport">Shared Services::RenderSupport</desc><rect class="uml-node uml-component" data-uml-kind="component" x="515" y="364" width="130" height="50" rx="4" ry="4" fill="#f0f4f8" stroke="#1e293b" stroke-width="1.5"/><rect x="511" y="376" width="16" height="8" fill="#f0f4f8" stroke="#1e293b" stroke-width="1"/><rect x="511" y="394" width="16" height="8" fill="#f0f4f8" stroke="#1e293b" stroke-width="1"/><text x="580" y="395" text-anchor="middle" font-family="monospace" font-size="13" font-weight="600" fill="#0f172a">Diagnostics + Theme</text><desc data-uml-id="Pipeline Core::Parser">Pipeline Core::Parser</desc><rect class="uml-node uml-component" data-uml-kind="component" x="147" y="364" width="130" height="50" rx="4" ry="4" fill="#f0f4f8" stroke="#1e293b" stroke-width="1.5"/><rect x="143" y="376" width="16" height="8" fill="#f0f4f8" stroke="#1e293b" stroke-width="1"/><rect x="143" y="394" width="16" height="8" fill="#f0f4f8" stroke="#1e293b" stroke-width="1"/><text x="212" y="395" text-anchor="middle" font-family="monospace" font-size="13" font-weight="600" fill="#0f172a">Parser</text><desc data-uml-id="Pipeline Core::AST">Pipeline Core::AST</desc><rect class="uml-node uml-component" data-uml-kind="component" x="234" y="516" width="130" height="50" rx="4" ry="4" fill="#f0f4f8" stroke="#1e293b" stroke-width="1.5"/><rect x="230" y="528" width="16" height="8" fill="#f0f4f8" stroke="#1e293b" stroke-width="1"/><rect x="230" y="546" width="16" height="8" fill="#f0f4f8" stroke="#1e293b" stroke-width="1"/><text x="299" y="547" text-anchor="middle" font-family="monospace" font-size="13" font-weight="600" fill="#0f172a">AST</text><desc data-uml-id="Pipeline Core::Normalizer">Pipeline Core::Normalizer</desc><rect class="uml-node uml-component" data-uml-kind="component" x="234" y="668" width="130" height="50" rx="4" ry="4" fill="#f0f4f8" stroke="#1e293b" stroke-width="1.5"/><rect x="230" y="680" width="16" height="8" fill="#f0f4f8" stroke="#1e293b" stroke-width="1"/><rect x="230" y="698" width="16" height="8" fill="#f0f4f8" stroke="#1e293b" stroke-width="1"/><text x="299" y="699" text-anchor="middle" font-family="monospace" font-size="13" font-weight="600" fill="#0f172a">Normalizer</text><desc data-uml-id="Pipeline Core::Renderer">Pipeline Core::Renderer</desc><rect class="uml-node uml-component" data-uml-kind="component" x="234" y="820" width="130" height="50" rx="4" ry="4" fill="#f0f4f8" stroke="#1e293b" stroke-width="1.5"/><rect x="230" y="832" width="16" height="8" fill="#f0f4f8" stroke="#1e293b" stroke-width="1"/><rect x="230" y="850" width="16" height="8" fill="#f0f4f8" stroke="#1e293b" stroke-width="1"/><text x="299" y="851" text-anchor="middle" font-family="monospace" font-size="13" font-weight="600" fill="#0f172a">Renderer</text><desc data-uml-id="Output Formats::Outputs">Output Formats::Outputs</desc><rect class="uml-node uml-component" data-uml-kind="component" x="234" y="972" width="130" height="50" rx="4" ry="4" fill="#f0f4f8" stroke="#1e293b" stroke-width="1.5"/><rect x="230" y="984" width="16" height="8" fill="#f0f4f8" stroke="#1e293b" stroke-width="1"/><rect x="230" y="1002" width="16" height="8" fill="#f0f4f8" stroke="#1e293b" stroke-width="1"/><text x="299" y="1003" text-anchor="middle" font-family="monospace" font-size="13" font-weight="600" fill="#0f172a">SVG / PNG / Text</text><polyline class="uml-relation" data-uml-from="CLI" data-uml-to="AdaptersComp" data-uml-arrow="--&gt;" points="125,110 125,125 125,212" fill="none" stroke="#1e293b" stroke-width="2" marker-end="url(#arrow-open)" /><polyline class="uml-relation" data-uml-from="CLI" data-uml-to="Preproc" data-uml-arrow="--&gt;" points="125,110 125,149 493,149 493,212" fill="none" stroke="#1e293b" stroke-width="2" marker-end="url(#arrow-open)" /><polyline class="uml-relation" data-uml-from="LSP" data-uml-to="LangSvc" data-uml-arrow="--&gt;" points="299,110 299,208 667,208 667,212" fill="none" stroke="#1e293b" stroke-width="2" marker-end="url(#arrow-open)" /><polyline class="uml-relation" data-uml-from="WASM" data-uml-to="LangSvc" data-uml-arrow="--&gt;" points="473,110 473,208 667,208 667,212" fill="none" stroke="#1e293b" stroke-width="2" marker-end="url(#arrow-open)" /><polyline class="uml-relation" data-uml-from="AdaptersComp" data-uml-to="Parser" data-uml-arrow="--&gt;" points="125,262 125,277 212,277 212,364" fill="none" stroke="#1e293b" stroke-width="2" marker-end="url(#arrow-open)" /><polyline class="uml-relation" data-uml-from="Preproc" data-uml-to="Parser" data-uml-arrow="--&gt;" points="493,262 493,301 212,301 212,364" fill="none" stroke="#1e293b" stroke-width="2" marker-end="url(#arrow-open)" /><polyline class="uml-relation" data-uml-from="LangSvc" data-uml-to="Parser" data-uml-arrow="--&gt;" points="667,262 667,360 212,360 212,364" fill="none" stroke="#1e293b" stroke-width="2" marker-end="url(#arrow-open)" /><polyline class="uml-relation" data-uml-from="LangSvc" data-uml-to="RenderSupport" data-uml-arrow="--&gt;" points="667,262 667,360 580,360 580,364" fill="none" stroke="#1e293b" stroke-width="2" marker-end="url(#arrow-open)" /><polyline class="uml-relation" data-uml-from="RenderSupport" data-uml-to="Renderer" data-uml-arrow="--&gt;" points="580,414 580,469 392,469 392,769 299,769 299,820" fill="none" stroke="#1e293b" stroke-width="2" marker-end="url(#arrow-open)" /><polyline class="uml-relation" data-uml-from="Parser" data-uml-to="AST" data-uml-arrow="--&gt;" points="212,414 212,461 299,461 299,516" fill="none" stroke="#1e293b" stroke-width="2" marker-end="url(#arrow-open)" /><polyline class="uml-relation" data-uml-from="AST" data-uml-to="Normalizer" data-uml-arrow="--&gt;" points="299,566 299,648 299,668" fill="none" stroke="#1e293b" stroke-width="2" marker-end="url(#arrow-open)" /><polyline class="uml-relation" data-uml-from="Normalizer" data-uml-to="Renderer" data-uml-arrow="--&gt;" points="299,718 299,800 309,820" fill="none" stroke="#1e293b" stroke-width="2" marker-end="url(#arrow-open)" /><polyline class="uml-relation" data-uml-from="Renderer" data-uml-to="Outputs" data-uml-arrow="--&gt;" points="299,870 299,968 299,972" fill="none" stroke="#1e293b" stroke-width="2" marker-end="url(#arrow-open)" /><text x="56" y="40" font-family="monospace" font-size="11" font-weight="600" fill="#ffffff">package Transports</text><text x="56" y="192" font-family="monospace" font-size="11" font-weight="600" fill="#ffffff">package Frontends</text><text x="424" y="192" font-family="monospace" font-size="11" font-weight="600" fill="#ffffff">package Shared Services</text><text x="143" y="344" font-family="monospace" font-size="11" font-weight="600" fill="#ffffff">package Pipeline Core</text><text x="230" y="952" font-family="monospace" font-size="11" font-weight="600" fill="#ffffff">package Output Formats</text></svg>