<svg xmlns="http://www.w3.org/2000/svg" width="640" height="1688" viewBox="0 0 640 1688"><rect width="100%" height="100%" fill="white"/><defs><marker id="arrow" markerWidth="8" markerHeight="8" refX="6" refY="3" orient="auto"><path d="M0,0 L0,6 L8,3 z" fill="#1e293b"/></marker></defs><path class="state-transition" data-state-from="[*]" data-state-to="Source" d="M 231 106 L 231 136 L 288 136 L 288 166" fill="none" stroke="#1e293b" stroke-width="2" marker-end="url(#arrow)"/><text x="128" y="158" font-family="monospace" font-size="11" fill="#0f172a" text-anchor="middle" data-state-label="file or stdin input"><tspan x="128" y="158">file or stdin input</tspan></text><path class="state-transition" data-state-from="Source" data-state-to="Tokenized" d="M 288 206 L 288 266" fill="none" stroke="#1e293b" stroke-width="2" marker-end="url(#arrow)"/><text x="136" y="221" font-family="monospace" font-size="11" fill="#0f172a" text-anchor="middle" data-state-label="Preprocessor expands includes and macros"><tspan x="136" y="221">Preprocessor expands</tspan><tspan x="136" y="235">includes and macros</tspan></text><path class="state-transition" data-state-from="Source" data-state-to="Diagnostics" d="M 288 206 L 288 646 L 540 646 L 540 1086" fill="none" stroke="#1e293b" stroke-width="2" marker-end="url(#arrow)"/><text x="469" y="782" font-family="monospace" font-size="11" fill="#0f172a" text-anchor="middle" data-state-label="preprocessor error"><tspan x="469" y="782">preprocessor error</tspan></text><path class="state-transition" data-state-from="Tokenized" data-state-to="Parsed" d="M 288 306 L 288 366" fill="none" stroke="#1e293b" stroke-width="2" marker-end="url(#arrow)"/><text x="221" y="346" font-family="monospace" font-size="11" fill="#0f172a" text-anchor="middle" data-state-label="Parser builds AST"><tspan x="221" y="346">Parser builds AST</tspan></text><path class="state-transition" data-state-from="Tokenized" data-state-to="Diagnostics" d="M 288 306 L 288 696 L 540 696 L 540 1086" fill="none" stroke="#1e293b" stroke-width="2" marker-end="url(#arrow)"/><text x="469" y="817" font-family="monospace" font-size="11" fill="#0f172a" text-anchor="middle" data-state-label="lex or parse error"><tspan x="469" y="817">lex or parse error</tspan></text><path class="state-transition" data-state-from="Parsed" data-state-to="Normalized" d="M 288 406 L 288 466" fill="none" stroke="#1e293b" stroke-width="2" marker-end="url(#arrow)"/><text x="116" y="421" font-family="monospace" font-size="11" fill="#0f172a" text-anchor="middle" data-state-label="Normalizer resolves family and layout"><tspan x="116" y="421">Normalizer resolves</tspan><tspan x="116" y="435">family and layout</tspan></text><path class="state-transition" data-state-from="Parsed" data-state-to="Diagnostics" d="M 288 406 L 288 746 L 540 746 L 540 1086" fill="none" stroke="#1e293b" stroke-width="2" marker-end="url(#arrow)"/><text x="483" y="852" font-family="monospace" font-size="11" fill="#0f172a" text-anchor="middle" data-state-label="semantic error"><tspan x="483" y="852">semantic error</tspan></text><path class="state-transition" data-state-from="Normalized" data-state-to="Styled" d="M 288 506 L 288 536 L 304 536 L 304 566" fill="none" stroke="#1e293b" stroke-width="2" marker-end="url(#arrow)"/><text x="128" y="542" font-family="monospace" font-size="11" fill="#0f172a" text-anchor="middle" data-state-label="Theme Engine applies styles"><tspan x="128" y="542">Theme Engine applies</tspan><tspan x="128" y="556">styles</tspan></text><path class="state-transition" data-state-from="Styled" data-state-to="Rendered" d="M 304 1026 L 304 1086" fill="none" stroke="#1e293b" stroke-width="2" marker-end="url(#arrow)"/><text x="114" y="1041" font-family="monospace" font-size="11" fill="#0f172a" text-anchor="middle" data-state-label="Renderer computes geometry and emits nodes"><tspan x="114" y="1041">Renderer computes</tspan><tspan x="114" y="1055">geometry and emits nodes</tspan></text><path class="state-transition" data-state-from="Styled" data-state-to="Diagnostics" d="M 304 1026 L 304 1056 L 540 1056 L 540 1086" fill="none" stroke="#1e293b" stroke-width="2" marker-end="url(#arrow)"/><text x="451" y="1152" font-family="monospace" font-size="11" fill="#0f172a" text-anchor="middle" data-state-label="render error"><tspan x="451" y="1152">render error</tspan></text><path class="state-transition" data-state-from="Rendered" data-state-to="Output" d="M 304 1460 L 304 1490 L 288 1490 L 288 1520" fill="none" stroke="#1e293b" stroke-width="2" marker-end="url(#arrow)"/><text x="210" y="1503" font-family="monospace" font-size="11" fill="#0f172a" text-anchor="middle" data-state-label="write file or stdout"><tspan x="210" y="1503">write file or stdout</tspan></text><path class="state-transition" data-state-from="Output" data-state-to="[*]__end" d="M 288 1560 L 288 1590 L 231 1590 L 231 1620" fill="none" stroke="#1e293b" stroke-width="2" marker-end="url(#arrow)"/><text x="175" y="1576" font-family="monospace" font-size="11" fill="#0f172a" text-anchor="middle" data-state-label="exit 0"><tspan x="175" y="1576">exit 0</tspan></text><path class="state-transition" data-state-from="Diagnostics" data-state-to="[*]__end" d="M 540 1126 L 540 1373 L 231 1373 L 231 1620" fill="none" stroke="#1e293b" stroke-width="2" marker-end="url(#arrow)"/><text x="483" y="1359" font-family="monospace" font-size="11" fill="#0f172a" text-anchor="middle" data-state-label="emit to stderr exit 1"><tspan x="483" y="1359">emit to stderr exit 1</tspan></text><metadata data-state-node="[*]" data-state-kind="start-end" /><circle cx="231" cy="93" r="12" fill="#0f172a"/><metadata data-state-node="Source" data-state-kind="normal" /><rect x="218" y="166" width="140" height="40" rx="8" ry="8" fill="#f6f6f6" stroke="#1e293b" stroke-width="1.5"/><text x="288" y="190" font-family="monospace" font-size="13" font-weight="600" text-anchor="middle" fill="#0f172a">Source</text><metadata data-state-node="Tokenized" data-state-kind="normal" /><rect x="218" y="266" width="140" height="40" rx="8" ry="8" fill="#f6f6f6" stroke="#1e293b" stroke-width="1.5"/><text x="288" y="290" font-family="monospace" font-size="13" font-weight="600" text-anchor="middle" fill="#0f172a">Tokenized</text><metadata data-state-node="Diagnostics" data-state-kind="normal" /><rect x="470" y="1086" width="140" height="40" rx="8" ry="8" fill="#f6f6f6" stroke="#1e293b" stroke-width="1.5"/><text x="540" y="1110" font-family="monospace" font-size="13" font-weight="600" text-anchor="middle" fill="#0f172a">Diagnostics</text><metadata data-state-node="Parsed" data-state-kind="normal" /><rect x="218" y="366" width="140" height="40" rx="8" ry="8" fill="#f6f6f6" stroke="#1e293b" stroke-width="1.5"/><text x="288" y="390" font-family="monospace" font-size="13" font-weight="600" text-anchor="middle" fill="#0f172a">Parsed</text><metadata data-state-node="Normalized" data-state-kind="normal" /><rect x="218" y="466" width="140" height="40" rx="8" ry="8" fill="#f6f6f6" stroke="#1e293b" stroke-width="1.5"/><text x="288" y="490" font-family="monospace" font-size="13" font-weight="600" text-anchor="middle" fill="#0f172a">Normalized</text><metadata data-state-node="Styled" data-state-kind="normal" /><rect x="218" y="566" width="172" height="460" rx="8" ry="8" fill="#f6f6f6" stroke="#1e293b" stroke-width="1.5"/><text x="304" y="586" font-family="monospace" font-size="13" font-weight="600" text-anchor="middle" fill="#0f172a">Styled</text><path class="state-transition" data-state-from="[*]__in__Styled__r0" data-state-to="SkinParams" d="M 304 628 L 304 688" fill="none" stroke="#1e293b" stroke-width="2" marker-end="url(#arrow)"/><path class="state-transition" data-state-from="SkinParams" data-state-to="ThemeTokens" d="M 304 728 L 304 788" fill="none" stroke="#1e293b" stroke-width="2" marker-end="url(#arrow)"/><path class="state-transition" data-state-from="ThemeTokens" data-state-to="Palette" d="M 304 828 L 304 888" fill="none" stroke="#1e293b" stroke-width="2" marker-end="url(#arrow)"/><path class="state-transition" data-state-from="Palette" data-state-to="[*]__end__Styled__r0" d="M 304 928 L 304 988" fill="none" stroke="#1e293b" stroke-width="2" marker-end="url(#arrow)"/><metadata data-state-node="[*]__in__Styled__r0" data-state-kind="start-end" /><circle cx="304" cy="615" r="12" fill="#0f172a"/><metadata data-state-node="SkinParams" data-state-kind="normal" /><rect x="234" y="688" width="140" height="40" rx="8" ry="8" fill="#f6f6f6" stroke="#1e293b" stroke-width="1.5"/><text x="304" y="712" font-family="monospace" font-size="13" font-weight="600" text-anchor="middle" fill="#0f172a">Apply Skin Params</text><metadata data-state-node="ThemeTokens" data-state-kind="normal" /><rect x="234" y="788" width="140" height="40" rx="8" ry="8" fill="#f6f6f6" stroke="#1e293b" stroke-width="1.5"/><text x="304" y="812" font-family="monospace" font-size="13" font-weight="600" text-anchor="middle" fill="#0f172a">Resolve Theme Tokens</text><metadata data-state-node="Palette" data-state-kind="normal" /><rect x="234" y="888" width="140" height="40" rx="8" ry="8" fill="#f6f6f6" stroke="#1e293b" stroke-width="1.5"/><text x="304" y="912" font-family="monospace" font-size="13" font-weight="600" text-anchor="middle" fill="#0f172a">Compute Palette</text><metadata data-state-node="[*]__end__Styled__r0" data-state-kind="end" /><circle cx="304" cy="1001" r="12" fill="#f6f6f6" stroke="#1e293b" stroke-width="2"/><circle cx="304" cy="1001" r="8" fill="#0f172a"/><metadata data-state-node="Rendered" data-state-kind="normal" /><rect x="218" y="1086" width="172" height="374" rx="8" ry="8" fill="#f6f6f6" stroke="#1e293b" stroke-width="1.5"/><text x="304" y="1106" font-family="monospace" font-size="13" font-weight="600" text-anchor="middle" fill="#0f172a">Rendered</text><path class="state-transition" data-state-from="[*]__in__Rendered__r0" data-state-to="SVGOut" d="M 304 1148 L 304 1208" fill="none" stroke="#1e293b" stroke-width="2" marker-end="url(#arrow)"/><path class="state-transition" data-state-from="SVGOut" data-state-to="Raster" d="M 304 1248 L 304 1308" fill="none" stroke="#1e293b" stroke-width="2" marker-end="url(#arrow)"/><text x="146" y="1270" font-family="monospace" font-size="11" fill="#0f172a" text-anchor="middle" data-state-label="resvg rasterize"><tspan x="146" y="1270">resvg rasterize</tspan></text><path class="state-transition" data-state-from="SVGOut" data-state-to="TxtOut" d="M 304 1248 L 304 1408" fill="none" stroke="#1e293b" stroke-width="2" marker-end="url(#arrow)"/><text x="142" y="1300" font-family="monospace" font-size="11" fill="#0f172a" text-anchor="middle" data-state-label="ascii conversion"><tspan x="142" y="1300">ascii conversion</tspan></text><metadata data-state-node="[*]__in__Rendered__r0" data-state-kind="start-end" /><circle cx="304" cy="1135" r="12" fill="#0f172a"/><metadata data-state-node="SVGOut" data-state-kind="normal" /><rect x="234" y="1208" width="140" height="40" rx="8" ry="8" fill="#f6f6f6" stroke="#1e293b" stroke-width="1.5"/><text x="304" y="1232" font-family="monospace" font-size="13" font-weight="600" text-anchor="middle" fill="#0f172a">SVG</text><metadata data-state-node="Raster" data-state-kind="normal" /><rect x="234" y="1308" width="140" height="40" rx="8" ry="8" fill="#f6f6f6" stroke="#1e293b" stroke-width="1.5"/><text x="304" y="1332" font-family="monospace" font-size="13" font-weight="600" text-anchor="middle" fill="#0f172a">Raster PNG/JPEG</text><metadata data-state-node="TxtOut" data-state-kind="normal" /><rect x="234" y="1408" width="140" height="40" rx="8" ry="8" fill="#f6f6f6" stroke="#1e293b" stroke-width="1.5"/><text x="304" y="1432" font-family="monospace" font-size="13" font-weight="600" text-anchor="middle" fill="#0f172a">Text utxt/atxt</text><metadata data-state-node="Output" data-state-kind="normal" /><rect x="218" y="1520" width="140" height="40" rx="8" ry="8" fill="#f6f6f6" stroke="#1e293b" stroke-width="1.5"/><text x="288" y="1544" font-family="monospace" font-size="13" font-weight="600" text-anchor="middle" fill="#0f172a">Output</text><metadata data-state-node="[*]__end" data-state-kind="end" /><circle cx="231" cy="1633" r="12" fill="#f6f6f6" stroke="#1e293b" stroke-width="2"/><circle cx="231" cy="1633" r="8" fill="#0f172a"/></svg>