<svg xmlns="http://www.w3.org/2000/svg" width="620" height="1688" viewBox="0 0 620 1688"><rect width="100%" height="100%" fill="white"/><defs><marker id="arrow" markerWidth="8" markerHeight="8" refX="6" refY="3" orient="auto"><path d="M0,0 L0,6 L8,3 z" fill="#1e293b"/></marker></defs><path class="state-transition" data-state-from="[*]" data-state-to="Source" d="M 211 106 L 211 136 L 268 136 L 268 166" fill="none" stroke="#1e293b" stroke-width="2" marker-end="url(#arrow)"/><text x="215" y="140" font-family="monospace" font-size="11" fill="#0f172a" text-anchor="middle" data-state-label="file or stdin input"><tspan x="215" y="140">file or stdin input</tspan></text><path class="state-transition" data-state-from="Source" data-state-to="Tokenized" d="M 268 206 L 268 266" fill="none" stroke="#1e293b" stroke-width="2" marker-end="url(#arrow)"/><text x="100" y="221" font-family="monospace" font-size="11" fill="#0f172a" text-anchor="middle" data-state-label="Preprocessor expands includes and macros"><tspan x="100" y="221">Preprocessor expands</tspan><tspan x="100" y="235">includes and macros</tspan></text><path class="state-transition" data-state-from="Source" data-state-to="Diagnostics" d="M 338 186 L 338 143 L 450 143 L 450 100" fill="none" stroke="#1e293b" stroke-width="2" marker-end="url(#arrow)"/><text x="427" y="144" font-family="monospace" font-size="11" fill="#0f172a" text-anchor="middle" data-state-label="preprocessor error"><tspan x="427" y="144">preprocessor error</tspan></text><path class="state-transition" data-state-from="Tokenized" data-state-to="Parsed" d="M 268 306 L 268 366" fill="none" stroke="#1e293b" stroke-width="2" marker-end="url(#arrow)"/><text x="250" y="346" font-family="monospace" font-size="11" fill="#0f172a" text-anchor="middle" data-state-label="Parser builds AST"><tspan x="250" y="346">Parser builds AST</tspan></text><path class="state-transition" data-state-from="Tokenized" data-state-to="Diagnostics" d="M 338 286 L 338 193 L 450 193 L 450 100" fill="none" stroke="#1e293b" stroke-width="2" marker-end="url(#arrow)"/><text x="387" y="243" font-family="monospace" font-size="11" fill="#0f172a" text-anchor="middle" data-state-label="lex or parse error"><tspan x="387" y="243">lex or parse error</tspan></text><path class="state-transition" data-state-from="Parsed" data-state-to="Normalized" d="M 268 406 L 268 466" fill="none" stroke="#1e293b" stroke-width="2" marker-end="url(#arrow)"/><text x="100" y="421" font-family="monospace" font-size="11" fill="#0f172a" text-anchor="middle" data-state-label="Normalizer resolves family and layout"><tspan x="100" y="421">Normalizer resolves</tspan><tspan x="100" y="435">family and layout</tspan></text><path class="state-transition" data-state-from="Parsed" data-state-to="Diagnostics" d="M 268 366 L 268 243 L 520 243 L 520 120" fill="none" stroke="#1e293b" stroke-width="2" marker-end="url(#arrow)"/><text x="405" y="279" font-family="monospace" font-size="11" fill="#0f172a" text-anchor="middle" data-state-label="semantic error"><tspan x="405" y="279">semantic error</tspan></text><path class="state-transition" data-state-from="Normalized" data-state-to="Styled" d="M 268 506 L 268 536 L 284 536 L 284 566" fill="none" stroke="#1e293b" stroke-width="2" marker-end="url(#arrow)"/><text x="244" y="529" font-family="monospace" font-size="11" fill="#0f172a" text-anchor="middle" data-state-label="Theme Engine applies styles"><tspan x="244" y="529">Theme Engine applies</tspan><tspan x="244" y="543">styles</tspan></text><path class="state-transition" data-state-from="Styled" data-state-to="Rendered" d="M 284 1026 L 284 1086" fill="none" stroke="#1e293b" stroke-width="2" marker-end="url(#arrow)"/><text x="266" y="1053" font-family="monospace" font-size="11" fill="#0f172a" text-anchor="middle" data-state-label="Renderer computes geometry and emits nodes"><tspan x="266" y="1053">Renderer computes</tspan><tspan x="266" y="1067">geometry and emits nodes</tspan></text><path class="state-transition" data-state-from="Styled" data-state-to="Diagnostics" d="M 284 566 L 284 343 L 520 343 L 520 120" fill="none" stroke="#1e293b" stroke-width="2" marker-end="url(#arrow)"/><text x="371" y="445" font-family="monospace" font-size="11" fill="#0f172a" text-anchor="middle" data-state-label="render error"><tspan x="371" y="445">render error</tspan></text><path class="state-transition" data-state-from="Rendered" data-state-to="Output" d="M 284 1460 L 284 1490 L 268 1490 L 268 1520" fill="none" stroke="#1e293b" stroke-width="2" marker-end="url(#arrow)"/><text x="257" y="1495" font-family="monospace" font-size="11" fill="#0f172a" text-anchor="middle" data-state-label="write file or stdout"><tspan x="257" y="1495">write file or stdout</tspan></text><path class="state-transition" data-state-from="Output" data-state-to="[*]__end" d="M 268 1560 L 268 1590 L 211 1590 L 211 1620" fill="none" stroke="#1e293b" stroke-width="2" marker-end="url(#arrow)"/><text x="225" y="1583" font-family="monospace" font-size="11" fill="#0f172a" text-anchor="middle" data-state-label="exit 0"><tspan x="225" y="1583">exit 0</tspan></text><path class="state-transition" data-state-from="Diagnostics" data-state-to="[*]__end" d="M 520 120 L 520 870 L 211 870 L 211 1620" fill="none" stroke="#1e293b" stroke-width="2" marker-end="url(#arrow)"/><text x="417" y="535" font-family="monospace" font-size="11" fill="#0f172a" text-anchor="middle" data-state-label="emit to stderr exit 1"><tspan x="417" y="535">emit to stderr exit 1</tspan></text><metadata data-state-node="[*]" data-state-kind="start-end" /><circle cx="211" cy="93" r="12" fill="#0f172a"/><metadata data-state-node="Source" data-state-kind="normal" /><rect x="198" y="166" width="140" height="40" rx="8" ry="8" fill="#f6f6f6" stroke="#1e293b" stroke-width="1.5"/><text x="268" y="190" font-family="monospace" font-size="13" font-weight="600" text-anchor="middle" fill="#0f172a">Source</text><metadata data-state-node="Tokenized" data-state-kind="normal" /><rect x="198" y="266" width="140" height="40" rx="8" ry="8" fill="#f6f6f6" stroke="#1e293b" stroke-width="1.5"/><text x="268" y="290" font-family="monospace" font-size="13" font-weight="600" text-anchor="middle" fill="#0f172a">Tokenized</text><metadata data-state-node="Diagnostics" data-state-kind="normal" /><rect x="450" y="80" width="140" height="40" rx="8" ry="8" fill="#f6f6f6" stroke="#1e293b" stroke-width="1.5"/><text x="520" y="104" font-family="monospace" font-size="13" font-weight="600" text-anchor="middle" fill="#0f172a">Diagnostics</text><metadata data-state-node="Parsed" data-state-kind="normal" /><rect x="198" y="366" width="140" height="40" rx="8" ry="8" fill="#f6f6f6" stroke="#1e293b" stroke-width="1.5"/><text x="268" y="390" font-family="monospace" font-size="13" font-weight="600" text-anchor="middle" fill="#0f172a">Parsed</text><metadata data-state-node="Normalized" data-state-kind="normal" /><rect x="198" y="466" width="140" height="40" rx="8" ry="8" fill="#f6f6f6" stroke="#1e293b" stroke-width="1.5"/><text x="268" y="490" font-family="monospace" font-size="13" font-weight="600" text-anchor="middle" fill="#0f172a">Normalized</text><metadata data-state-node="Styled" data-state-kind="normal" /><rect x="198" y="566" width="172" height="460" rx="8" ry="8" fill="#f6f6f6" stroke="#1e293b" stroke-width="1.5"/><text x="284" y="586" font-family="monospace" font-size="13" font-weight="600" text-anchor="middle" fill="#0f172a">Styled</text><path class="state-transition" data-state-from="[*]__in__Styled" data-state-to="SkinParams" d="M 284 628 L 284 688" fill="none" stroke="#1e293b" stroke-width="2" marker-end="url(#arrow)"/><path class="state-transition" data-state-from="SkinParams" data-state-to="ThemeTokens" d="M 284 728 L 284 788" fill="none" stroke="#1e293b" stroke-width="2" marker-end="url(#arrow)"/><path class="state-transition" data-state-from="ThemeTokens" data-state-to="Palette" d="M 284 828 L 284 888" fill="none" stroke="#1e293b" stroke-width="2" marker-end="url(#arrow)"/><path class="state-transition" data-state-from="Palette" data-state-to="[*]__end__Styled" d="M 284 928 L 284 988" fill="none" stroke="#1e293b" stroke-width="2" marker-end="url(#arrow)"/><metadata data-state-node="[*]__in__Styled" data-state-kind="start-end" /><circle cx="284" cy="615" r="12" fill="#0f172a"/><metadata data-state-node="SkinParams" data-state-kind="normal" /><rect x="214" y="688" width="140" height="40" rx="8" ry="8" fill="#f6f6f6" stroke="#1e293b" stroke-width="1.5"/><text x="284" y="712" font-family="monospace" font-size="13" font-weight="600" text-anchor="middle" fill="#0f172a">Apply Skin Params</text><metadata data-state-node="ThemeTokens" data-state-kind="normal" /><rect x="214" y="788" width="140" height="40" rx="8" ry="8" fill="#f6f6f6" stroke="#1e293b" stroke-width="1.5"/><text x="284" y="812" font-family="monospace" font-size="13" font-weight="600" text-anchor="middle" fill="#0f172a">Resolve Theme Tokens</text><metadata data-state-node="Palette" data-state-kind="normal" /><rect x="214" y="888" width="140" height="40" rx="8" ry="8" fill="#f6f6f6" stroke="#1e293b" stroke-width="1.5"/><text x="284" y="912" font-family="monospace" font-size="13" font-weight="600" text-anchor="middle" fill="#0f172a">Compute Palette</text><metadata data-state-node="[*]__end__Styled" data-state-kind="end" /><circle cx="284" cy="1001" r="12" fill="#f6f6f6" stroke="#1e293b" stroke-width="2"/><circle cx="284" cy="1001" r="8" fill="#0f172a"/><metadata data-state-node="Rendered" data-state-kind="normal" /><rect x="198" y="1086" width="172" height="374" rx="8" ry="8" fill="#f6f6f6" stroke="#1e293b" stroke-width="1.5"/><text x="284" y="1106" font-family="monospace" font-size="13" font-weight="600" text-anchor="middle" fill="#0f172a">Rendered</text><path class="state-transition" data-state-from="[*]__in__Rendered" data-state-to="SVGOut" d="M 284 1148 L 284 1208" fill="none" stroke="#1e293b" stroke-width="2" marker-end="url(#arrow)"/><path class="state-transition" data-state-from="SVGOut" data-state-to="Raster" d="M 284 1248 L 284 1308" fill="none" stroke="#1e293b" stroke-width="2" marker-end="url(#arrow)"/><text x="116" y="1270" font-family="monospace" font-size="11" fill="#0f172a" text-anchor="middle" data-state-label="resvg rasterize"><tspan x="116" y="1270">resvg rasterize</tspan></text><path class="state-transition" data-state-from="SVGOut" data-state-to="TxtOut" d="M 284 1248 L 284 1408" fill="none" stroke="#1e293b" stroke-width="2" marker-end="url(#arrow)"/><text x="116" y="1300" font-family="monospace" font-size="11" fill="#0f172a" text-anchor="middle" data-state-label="ascii conversion"><tspan x="116" y="1300">ascii conversion</tspan></text><metadata data-state-node="[*]__in__Rendered" data-state-kind="start-end" /><circle cx="284" cy="1135" r="12" fill="#0f172a"/><metadata data-state-node="SVGOut" data-state-kind="normal" /><rect x="214" y="1208" width="140" height="40" rx="8" ry="8" fill="#f6f6f6" stroke="#1e293b" stroke-width="1.5"/><text x="284" y="1232" font-family="monospace" font-size="13" font-weight="600" text-anchor="middle" fill="#0f172a">SVG</text><metadata data-state-node="Raster" data-state-kind="normal" /><rect x="214" y="1308" width="140" height="40" rx="8" ry="8" fill="#f6f6f6" stroke="#1e293b" stroke-width="1.5"/><text x="284" y="1332" font-family="monospace" font-size="13" font-weight="600" text-anchor="middle" fill="#0f172a">Raster PNG/JPEG</text><metadata data-state-node="TxtOut" data-state-kind="normal" /><rect x="214" y="1408" width="140" height="40" rx="8" ry="8" fill="#f6f6f6" stroke="#1e293b" stroke-width="1.5"/><text x="284" y="1432" font-family="monospace" font-size="13" font-weight="600" text-anchor="middle" fill="#0f172a">Text utxt/atxt</text><metadata data-state-node="Output" data-state-kind="normal" /><rect x="198" y="1520" width="140" height="40" rx="8" ry="8" fill="#f6f6f6" stroke="#1e293b" stroke-width="1.5"/><text x="268" y="1544" font-family="monospace" font-size="13" font-weight="600" text-anchor="middle" fill="#0f172a">Output</text><metadata data-state-node="[*]__end" data-state-kind="end" /><circle cx="211" cy="1633" r="12" fill="#f6f6f6" stroke="#1e293b" stroke-width="2"/><circle cx="211" cy="1633" r="8" fill="#0f172a"/></svg>