<svg xmlns="http://www.w3.org/2000/svg" width="741" height="1688" viewBox="0 0 741 1688"><rect width="100%" height="100%" fill="white"/><defs><marker id="arrow" markerWidth="8" markerHeight="8" refX="6" refY="3" orient="auto"><path d="M0,0 L0,6 L8,3 z" fill="#1e293b"/></marker></defs><path class="state-transition" data-state-from="[*]" data-state-to="Source" d="M 154 106 L 154 136 L 211 136 L 211 166" fill="none" stroke="#1e293b" stroke-width="2" marker-end="url(#arrow)"/><text x="75" y="141" font-family="monospace" font-size="11" fill="#0f172a" text-anchor="middle" data-state-label="file or stdin\ninput"><tspan x="75" y="141">file or stdin</tspan><tspan x="75" y="155">input</tspan></text><path class="state-note-connector" data-state-from="Source" data-state-to="__state_note_0001" d="M 211 186 L 309 186" fill="none" stroke="#6b7280" stroke-width="1" stroke-dasharray="5 3"/><path class="state-transition" data-state-from="Source" data-state-to="Tokenized" d="M 211 206 L 211 266" fill="none" stroke="#1e293b" stroke-width="2" marker-end="url(#arrow)"/><text x="257" y="125" font-family="monospace" font-size="11" fill="#0f172a" text-anchor="middle" data-state-label="Preprocessor expands includes and macros"><tspan x="257" y="125">Preprocessor expands</tspan><tspan x="257" y="139">includes and macros</tspan></text><path class="state-transition" data-state-from="Source" data-state-to="Diagnostics" d="M 211 206 L 211 646 L 463 646 L 463 1086" fill="none" stroke="#1e293b" stroke-width="2" marker-end="url(#arrow)"/><text x="407" y="658" font-family="monospace" font-size="11" fill="#0f172a" text-anchor="middle" data-state-label="preprocessor error"><tspan x="407" y="658">preprocessor error</tspan></text><path class="state-transition" data-state-from="Tokenized" data-state-to="Parsed" d="M 211 306 L 211 366" fill="none" stroke="#1e293b" stroke-width="2" marker-end="url(#arrow)"/><text x="203" y="346" font-family="monospace" font-size="11" fill="#0f172a" text-anchor="middle" data-state-label="Parser builds AST"><tspan x="203" y="346">Parser builds AST</tspan></text><path class="state-transition" data-state-from="Tokenized" data-state-to="Diagnostics" d="M 211 306 L 211 696 L 463 696 L 463 1086" fill="none" stroke="#1e293b" stroke-width="2" marker-end="url(#arrow)"/><text x="407" y="708" font-family="monospace" font-size="11" fill="#0f172a" text-anchor="middle" data-state-label="lex or parse error"><tspan x="407" y="708">lex or parse error</tspan></text><path class="state-transition" data-state-from="Parsed" data-state-to="Normalized" d="M 211 406 L 211 466" fill="none" stroke="#1e293b" stroke-width="2" marker-end="url(#arrow)"/><text x="203" y="433" font-family="monospace" font-size="11" fill="#0f172a" text-anchor="middle" data-state-label="Normalizer resolves family and layout"><tspan x="203" y="433">Normalizer resolves</tspan><tspan x="203" y="447">family and layout</tspan></text><path class="state-transition" data-state-from="Parsed" data-state-to="Diagnostics" d="M 211 406 L 211 746 L 463 746 L 463 1086" fill="none" stroke="#1e293b" stroke-width="2" marker-end="url(#arrow)"/><text x="383" y="758" font-family="monospace" font-size="11" fill="#0f172a" text-anchor="middle" data-state-label="semantic error"><tspan x="383" y="758">semantic error</tspan></text><path class="state-transition" data-state-from="Normalized" data-state-to="Styled" d="M 211 506 L 211 536 L 227 536 L 227 566" fill="none" stroke="#1e293b" stroke-width="2" marker-end="url(#arrow)"/><text x="219" y="541" font-family="monospace" font-size="11" fill="#0f172a" text-anchor="middle" data-state-label="Theme Engine applies styles"><tspan x="219" y="541">Theme Engine applies</tspan><tspan x="219" y="555">styles</tspan></text><path class="state-transition" data-state-from="Styled" data-state-to="Rendered" d="M 227 1026 L 227 1086" fill="none" stroke="#1e293b" stroke-width="2" marker-end="url(#arrow)"/><text x="219" y="1053" font-family="monospace" font-size="11" fill="#0f172a" text-anchor="middle" data-state-label="Renderer computes geometry and emits nodes"><tspan x="219" y="1053">Renderer computes</tspan><tspan x="219" y="1067">geometry and emits nodes</tspan></text><path class="state-transition" data-state-from="Styled" data-state-to="Diagnostics" d="M 227 1026 L 227 1056 L 463 1056 L 463 1086" fill="none" stroke="#1e293b" stroke-width="2" marker-end="url(#arrow)"/><text x="354" y="1068" font-family="monospace" font-size="11" fill="#0f172a" text-anchor="middle" data-state-label="render error"><tspan x="354" y="1068">render error</tspan></text><path class="state-note-connector" data-state-from="Rendered" data-state-to="__state_note_0002" d="M 227 1273 L 341 1273" fill="none" stroke="#6b7280" stroke-width="1" stroke-dasharray="5 3"/><path class="state-transition" data-state-from="Rendered" data-state-to="Output" d="M 227 1460 L 227 1490 L 211 1490 L 211 1520" fill="none" stroke="#1e293b" stroke-width="2" marker-end="url(#arrow)"/><text x="222" y="1486" font-family="monospace" font-size="11" fill="#0f172a" text-anchor="middle" data-state-label="write file or stdout"><tspan x="222" y="1486">write file or stdout</tspan></text><path class="state-transition" data-state-from="Output" data-state-to="[*]__end" d="M 211 1560 L 211 1590 L 154 1590 L 154 1620" fill="none" stroke="#1e293b" stroke-width="2" marker-end="url(#arrow)"/><text x="194" y="1586" font-family="monospace" font-size="11" fill="#0f172a" text-anchor="middle" data-state-label="exit 0"><tspan x="194" y="1586">exit 0</tspan></text><path class="state-transition" data-state-from="Diagnostics" data-state-to="[*]__end" d="M 463 1126 L 463 1373 L 154 1373 L 154 1620" fill="none" stroke="#1e293b" stroke-width="2" marker-end="url(#arrow)"/><text x="406" y="1369" font-family="monospace" font-size="11" fill="#0f172a" text-anchor="middle" data-state-label="emit to stderr exit 1"><tspan x="406" y="1369">emit to stderr exit 1</tspan></text><metadata data-state-node="[*]" data-state-kind="start-end" /><circle cx="154" cy="93" r="12" fill="#0f172a"/><metadata data-state-node="Source" data-state-kind="normal" /><rect x="141" y="166" width="140" height="40" rx="8" ry="8" fill="#f6f6f6" stroke="#1e293b" stroke-width="1.5"/><text x="211" y="190" font-family="monospace" font-size="13" font-weight="600" text-anchor="middle" fill="#0f172a">Source</text><metadata data-state-node="__state_note_0001" data-state-kind="note" data-state-stereotype="right" /><path class="state-note" d="M 309 164 H 674 L 686 176 V 208 H 309 Z" fill="#fff8c4" stroke="#111111" stroke-width="1"/><path class="state-note-fold" d="M 674 164 V 176 H 686" fill="none" stroke="#111111" stroke-width="1"/><text x="319" y="185" font-family="monospace" font-size="11" fill="#111111">Raw source text is retained for mapped diagnostics.</text><metadata data-state-node="Tokenized" data-state-kind="normal" /><rect x="141" y="266" width="140" height="40" rx="8" ry="8" fill="#f6f6f6" stroke="#1e293b" stroke-width="1.5"/><text x="211" y="290" font-family="monospace" font-size="13" font-weight="600" text-anchor="middle" fill="#0f172a">Tokenized</text><metadata data-state-node="Diagnostics" data-state-kind="normal" /><rect x="393" y="1086" width="140" height="40" rx="8" ry="8" fill="#f6f6f6" stroke="#1e293b" stroke-width="1.5"/><text x="463" y="1110" font-family="monospace" font-size="13" font-weight="600" text-anchor="middle" fill="#0f172a">Diagnostics</text><metadata data-state-node="Parsed" data-state-kind="normal" /><rect x="141" y="366" width="140" height="40" rx="8" ry="8" fill="#f6f6f6" stroke="#1e293b" stroke-width="1.5"/><text x="211" y="390" font-family="monospace" font-size="13" font-weight="600" text-anchor="middle" fill="#0f172a">Parsed</text><metadata data-state-node="Normalized" data-state-kind="normal" /><rect x="141" y="466" width="140" height="40" rx="8" ry="8" fill="#f6f6f6" stroke="#1e293b" stroke-width="1.5"/><text x="211" y="490" font-family="monospace" font-size="13" font-weight="600" text-anchor="middle" fill="#0f172a">Normalized</text><metadata data-state-node="Styled" data-state-kind="normal" /><rect x="141" y="566" width="172" height="460" rx="8" ry="8" fill="#f6f6f6" stroke="#1e293b" stroke-width="1.5"/><text x="227" y="586" font-family="monospace" font-size="13" font-weight="600" text-anchor="middle" fill="#0f172a">Styled</text><path class="state-transition" data-state-from="[*]__in__Styled__r0" data-state-to="SkinParams" d="M 227 628 L 227 688" fill="none" stroke="#1e293b" stroke-width="2" marker-end="url(#arrow)"/><path class="state-transition" data-state-from="SkinParams" data-state-to="ThemeTokens" d="M 227 728 L 227 788" fill="none" stroke="#1e293b" stroke-width="2" marker-end="url(#arrow)"/><path class="state-transition" data-state-from="ThemeTokens" data-state-to="Palette" d="M 227 828 L 227 888" fill="none" stroke="#1e293b" stroke-width="2" marker-end="url(#arrow)"/><path class="state-transition" data-state-from="Palette" data-state-to="[*]__end__Styled__r0" d="M 227 928 L 227 988" fill="none" stroke="#1e293b" stroke-width="2" marker-end="url(#arrow)"/><metadata data-state-node="[*]__in__Styled__r0" data-state-kind="start-end" /><circle cx="227" cy="615" r="12" fill="#0f172a"/><metadata data-state-node="SkinParams" data-state-kind="normal" /><rect x="157" y="688" width="140" height="40" rx="8" ry="8" fill="#f6f6f6" stroke="#1e293b" stroke-width="1.5"/><text x="227" y="712" font-family="monospace" font-size="13" font-weight="600" text-anchor="middle" fill="#0f172a">Apply Skin Params</text><metadata data-state-node="ThemeTokens" data-state-kind="normal" /><rect x="157" y="788" width="140" height="40" rx="8" ry="8" fill="#f6f6f6" stroke="#1e293b" stroke-width="1.5"/><text x="227" y="812" font-family="monospace" font-size="13" font-weight="600" text-anchor="middle" fill="#0f172a">Resolve Theme Tokens</text><metadata data-state-node="Palette" data-state-kind="normal" /><rect x="157" y="888" width="140" height="40" rx="8" ry="8" fill="#f6f6f6" stroke="#1e293b" stroke-width="1.5"/><text x="227" y="912" font-family="monospace" font-size="13" font-weight="600" text-anchor="middle" fill="#0f172a">Compute Palette</text><metadata data-state-node="[*]__end__Styled__r0" data-state-kind="end" /><circle cx="227" cy="1001" r="12" fill="#f6f6f6" stroke="#1e293b" stroke-width="2"/><circle cx="227" cy="1001" r="8" fill="#0f172a"/><metadata data-state-node="Rendered" data-state-kind="normal" /><rect x="141" y="1086" width="172" height="374" rx="8" ry="8" fill="#f6f6f6" stroke="#1e293b" stroke-width="1.5"/><text x="227" y="1106" font-family="monospace" font-size="13" font-weight="600" text-anchor="middle" fill="#0f172a">Rendered</text><path class="state-transition" data-state-from="[*]__in__Rendered__r0" data-state-to="SVGOut" d="M 227 1148 L 227 1208" fill="none" stroke="#1e293b" stroke-width="2" marker-end="url(#arrow)"/><path class="state-transition" data-state-from="SVGOut" data-state-to="Raster" d="M 227 1248 L 227 1308" fill="none" stroke="#1e293b" stroke-width="2" marker-end="url(#arrow)"/><text x="219" y="1282" font-family="monospace" font-size="11" fill="#0f172a" text-anchor="middle" data-state-label="resvg rasterize"><tspan x="219" y="1282">resvg rasterize</tspan></text><path class="state-transition" data-state-from="SVGOut" data-state-to="TxtOut" d="M 227 1248 L 227 1408" fill="none" stroke="#1e293b" stroke-width="2" marker-end="url(#arrow)"/><text x="219" y="1332" font-family="monospace" font-size="11" fill="#0f172a" text-anchor="middle" data-state-label="ascii conversion"><tspan x="219" y="1332">ascii conversion</tspan></text><metadata data-state-node="[*]__in__Rendered__r0" data-state-kind="start-end" /><circle cx="227" cy="1135" r="12" fill="#0f172a"/><metadata data-state-node="SVGOut" data-state-kind="normal" /><rect x="157" y="1208" width="140" height="40" rx="8" ry="8" fill="#f6f6f6" stroke="#1e293b" stroke-width="1.5"/><text x="227" y="1232" font-family="monospace" font-size="13" font-weight="600" text-anchor="middle" fill="#0f172a">SVG</text><metadata data-state-node="Raster" data-state-kind="normal" /><rect x="157" y="1308" width="140" height="40" rx="8" ry="8" fill="#f6f6f6" stroke="#1e293b" stroke-width="1.5"/><text x="227" y="1332" font-family="monospace" font-size="13" font-weight="600" text-anchor="middle" fill="#0f172a">Raster PNG/JPEG</text><metadata data-state-node="TxtOut" data-state-kind="normal" /><rect x="157" y="1408" width="140" height="40" rx="8" ry="8" fill="#f6f6f6" stroke="#1e293b" stroke-width="1.5"/><text x="227" y="1432" font-family="monospace" font-size="13" font-weight="600" text-anchor="middle" fill="#0f172a">Text utxt/atxt</text><metadata data-state-node="__state_note_0002" data-state-kind="note" data-state-stereotype="right" /><path class="state-note" d="M 341 1251 H 699 L 711 1263 V 1295 H 341 Z" fill="#fff8c4" stroke="#111111" stroke-width="1"/><path class="state-note-fold" d="M 699 1251 V 1263 H 711" fill="none" stroke="#111111" stroke-width="1"/><text x="351" y="1272" font-family="monospace" font-size="11" fill="#111111">RenderArtifact carries SVG, scene, and diagnostics</text><metadata data-state-node="Output" data-state-kind="normal" /><rect x="141" y="1520" width="140" height="40" rx="8" ry="8" fill="#f6f6f6" stroke="#1e293b" stroke-width="1.5"/><text x="211" y="1544" font-family="monospace" font-size="13" font-weight="600" text-anchor="middle" fill="#0f172a">Output</text><metadata data-state-node="[*]__end" data-state-kind="end" /><circle cx="154" cy="1633" r="12" fill="#f6f6f6" stroke="#1e293b" stroke-width="2"/><circle cx="154" cy="1633" r="8" fill="#0f172a"/></svg>