<svg xmlns="http://www.w3.org/2000/svg" width="232" height="1788" viewBox="0 0 232 1788"><rect width="100%" height="100%" fill="white"/><defs><marker id="arrow" markerWidth="8" markerHeight="8" refX="6" refY="3" orient="auto"><path d="M0,0 L0,6 L8,3 z" fill="#1e293b"/></marker></defs><path class="state-transition" data-state-from="[*]" data-state-to="Source" d="M 43 106 L 43 222 L 100 222 L 100 338" fill="none" stroke="#1e293b" stroke-width="2" marker-end="url(#arrow)"/><text x="34" y="149" font-family="monospace" font-size="11" fill="#0f172a" text-anchor="middle" data-state-label="file or stdin input"><tspan x="34" y="149">file or stdin input</tspan></text><path class="state-transition" data-state-from="Source" data-state-to="Tokenized" d="M 100 378 L 100 438" fill="none" stroke="#1e293b" stroke-width="2" marker-end="url(#arrow)"/><text x="-68" y="393" font-family="monospace" font-size="11" fill="#0f172a" text-anchor="middle" data-state-label="Preprocessor expands includes and macros"><tspan x="-68" y="393">Preprocessor expands</tspan><tspan x="-68" y="407">includes and macros</tspan></text><path class="state-transition" data-state-from="Source" data-state-to="Diagnostics" d="M 100 378 L 100 1086" fill="none" stroke="#1e293b" stroke-width="2" marker-end="url(#arrow)"/><text x="82" y="612" font-family="monospace" font-size="11" fill="#0f172a" text-anchor="middle" data-state-label="preprocessor error"><tspan x="82" y="612">preprocessor error</tspan></text><path class="state-transition" data-state-from="Tokenized" data-state-to="Parsed" d="M 100 478 L 100 538" fill="none" stroke="#1e293b" stroke-width="2" marker-end="url(#arrow)"/><text x="82" y="518" font-family="monospace" font-size="11" fill="#0f172a" text-anchor="middle" data-state-label="Parser builds AST"><tspan x="82" y="518">Parser builds AST</tspan></text><path class="state-transition" data-state-from="Tokenized" data-state-to="Diagnostics" d="M 100 478 L 100 1086" fill="none" stroke="#1e293b" stroke-width="2" marker-end="url(#arrow)"/><text x="82" y="720" font-family="monospace" font-size="11" fill="#0f172a" text-anchor="middle" data-state-label="lex or parse error"><tspan x="82" y="720">lex or parse error</tspan></text><path class="state-transition" data-state-from="Parsed" data-state-to="Normalized" d="M 100 578 L 100 638" fill="none" stroke="#1e293b" stroke-width="2" marker-end="url(#arrow)"/><text x="-68" y="593" font-family="monospace" font-size="11" fill="#0f172a" text-anchor="middle" data-state-label="Normalizer resolves family and layout"><tspan x="-68" y="593">Normalizer resolves</tspan><tspan x="-68" y="607">family and layout</tspan></text><path class="state-transition" data-state-from="Parsed" data-state-to="Diagnostics" d="M 100 578 L 100 1086" fill="none" stroke="#1e293b" stroke-width="2" marker-end="url(#arrow)"/><text x="-40" y="734" font-family="monospace" font-size="11" fill="#0f172a" text-anchor="middle" data-state-label="semantic error"><tspan x="-40" y="734">semantic error</tspan></text><path class="state-transition" data-state-from="[*]__in__Styled" data-state-to="SkinParams" d="M 43 192 L 43 483 L 116 483 L 116 774" fill="none" stroke="#1e293b" stroke-width="2" marker-end="url(#arrow)"/><path class="state-transition" data-state-from="Palette" data-state-to="[*]__end__Styled" d="M 116 1014 L 116 1367 L 43 1367 L 43 1720" fill="none" stroke="#1e293b" stroke-width="2" marker-end="url(#arrow)"/><path class="state-transition" data-state-from="Normalized" data-state-to="Styled" d="M 100 678 L 100 708 L 116 708 L 116 738" fill="none" stroke="#1e293b" stroke-width="2" marker-end="url(#arrow)"/><text x="-55" y="636" font-family="monospace" font-size="11" fill="#0f172a" text-anchor="middle" data-state-label="Theme Engine applies styles"><tspan x="-55" y="636">Theme Engine applies</tspan><tspan x="-55" y="650">styles</tspan></text><path class="state-transition" data-state-from="[*]__in__Rendered" data-state-to="SVGOut" d="M 43 278 L 43 750 L 116 750 L 116 1222" fill="none" stroke="#1e293b" stroke-width="2" marker-end="url(#arrow)"/><path class="state-transition" data-state-from="Styled" data-state-to="Rendered" d="M 116 1026 L 116 1186" fill="none" stroke="#1e293b" stroke-width="2" marker-end="url(#arrow)"/><text x="98" y="1053" font-family="monospace" font-size="11" fill="#0f172a" text-anchor="middle" data-state-label="Renderer computes geometry and emits nodes"><tspan x="98" y="1053">Renderer computes</tspan><tspan x="98" y="1067">geometry and emits nodes</tspan></text><path class="state-transition" data-state-from="Styled" data-state-to="Diagnostics" d="M 116 1026 L 116 1056 L 100 1056 L 100 1086" fill="none" stroke="#1e293b" stroke-width="2" marker-end="url(#arrow)"/><text x="63" y="1159" font-family="monospace" font-size="11" fill="#0f172a" text-anchor="middle" data-state-label="render error"><tspan x="63" y="1159">render error</tspan></text><path class="state-transition" data-state-from="Rendered" data-state-to="Output" d="M 116 1474 L 116 1504 L 100 1504 L 100 1534" fill="none" stroke="#1e293b" stroke-width="2" marker-end="url(#arrow)"/><text x="89" y="1509" font-family="monospace" font-size="11" fill="#0f172a" text-anchor="middle" data-state-label="write file or stdout"><tspan x="89" y="1509">write file or stdout</tspan></text><path class="state-transition" data-state-from="Output" data-state-to="[*]__end" d="M 100 1574 L 100 1604 L 43 1604 L 43 1634" fill="none" stroke="#1e293b" stroke-width="2" marker-end="url(#arrow)"/><text x="57" y="1597" font-family="monospace" font-size="11" fill="#0f172a" text-anchor="middle" data-state-label="exit 0"><tspan x="57" y="1597">exit 0</tspan></text><path class="state-transition" data-state-from="Diagnostics" data-state-to="[*]__end" d="M 100 1126 L 100 1380 L 43 1380 L 43 1634" fill="none" stroke="#1e293b" stroke-width="2" marker-end="url(#arrow)"/><text x="-56" y="1267" font-family="monospace" font-size="11" fill="#0f172a" text-anchor="middle" data-state-label="emit to stderr exit 1"><tspan x="-56" y="1267">emit to stderr exit 1</tspan></text><metadata data-state-node="[*]" data-state-kind="start-end" /><circle cx="43" cy="93" r="12" fill="#0f172a"/><metadata data-state-node="Source" data-state-kind="normal" /><rect x="30" y="338" width="140" height="40" rx="8" ry="8" fill="#f6f6f6" stroke="#1e293b" stroke-width="1.5"/><text x="100" y="362" font-family="monospace" font-size="13" font-weight="600" text-anchor="middle" fill="#0f172a">Source</text><metadata data-state-node="Tokenized" data-state-kind="normal" /><rect x="30" y="438" width="140" height="40" rx="8" ry="8" fill="#f6f6f6" stroke="#1e293b" stroke-width="1.5"/><text x="100" y="462" font-family="monospace" font-size="13" font-weight="600" text-anchor="middle" fill="#0f172a">Tokenized</text><metadata data-state-node="Diagnostics" data-state-kind="normal" /><rect x="30" y="1086" width="140" height="40" rx="8" ry="8" fill="#f6f6f6" stroke="#1e293b" stroke-width="1.5"/><text x="100" y="1110" font-family="monospace" font-size="13" font-weight="600" text-anchor="middle" fill="#0f172a">Diagnostics</text><metadata data-state-node="Parsed" data-state-kind="normal" /><rect x="30" y="538" width="140" height="40" rx="8" ry="8" fill="#f6f6f6" stroke="#1e293b" stroke-width="1.5"/><text x="100" y="562" font-family="monospace" font-size="13" font-weight="600" text-anchor="middle" fill="#0f172a">Parsed</text><metadata data-state-node="Normalized" data-state-kind="normal" /><rect x="30" y="638" width="140" height="40" rx="8" ry="8" fill="#f6f6f6" stroke="#1e293b" stroke-width="1.5"/><text x="100" y="662" font-family="monospace" font-size="13" font-weight="600" text-anchor="middle" fill="#0f172a">Normalized</text><metadata data-state-node="[*]__in__Styled" data-state-kind="start-end" /><circle cx="43" cy="179" r="12" fill="#0f172a"/><metadata data-state-node="[*]__end__Styled" data-state-kind="end" /><circle cx="43" cy="1733" r="12" fill="#f6f6f6" stroke="#1e293b" stroke-width="2"/><circle cx="43" cy="1733" r="8" fill="#0f172a"/><metadata data-state-node="Styled" data-state-kind="normal" /><rect x="30" y="738" width="172" height="288" rx="8" ry="8" fill="#f6f6f6" stroke="#1e293b" stroke-width="1.5"/><text x="116" y="758" font-family="monospace" font-size="13" font-weight="600" text-anchor="middle" fill="#0f172a">Styled</text><path class="state-transition" data-state-from="SkinParams" data-state-to="ThemeTokens" d="M 116 814 L 116 874" fill="none" stroke="#1e293b" stroke-width="2" marker-end="url(#arrow)"/><path class="state-transition" data-state-from="ThemeTokens" data-state-to="Palette" d="M 116 914 L 116 974" fill="none" stroke="#1e293b" stroke-width="2" marker-end="url(#arrow)"/><metadata data-state-node="SkinParams" data-state-kind="normal" /><rect x="46" y="774" width="140" height="40" rx="8" ry="8" fill="#f6f6f6" stroke="#1e293b" stroke-width="1.5"/><text x="116" y="798" font-family="monospace" font-size="13" font-weight="600" text-anchor="middle" fill="#0f172a">Apply Skin Params</text><metadata data-state-node="ThemeTokens" data-state-kind="normal" /><rect x="46" y="874" width="140" height="40" rx="8" ry="8" fill="#f6f6f6" stroke="#1e293b" stroke-width="1.5"/><text x="116" y="898" font-family="monospace" font-size="13" font-weight="600" text-anchor="middle" fill="#0f172a">Resolve Theme Tokens</text><metadata data-state-node="Palette" data-state-kind="normal" /><rect x="46" y="974" width="140" height="40" rx="8" ry="8" fill="#f6f6f6" stroke="#1e293b" stroke-width="1.5"/><text x="116" y="998" font-family="monospace" font-size="13" font-weight="600" text-anchor="middle" fill="#0f172a">Compute Palette</text><metadata data-state-node="[*]__in__Rendered" data-state-kind="start-end" /><circle cx="43" cy="265" r="12" fill="#0f172a"/><metadata data-state-node="Rendered" data-state-kind="normal" /><rect x="30" y="1186" width="172" height="288" rx="8" ry="8" fill="#f6f6f6" stroke="#1e293b" stroke-width="1.5"/><text x="116" y="1206" font-family="monospace" font-size="13" font-weight="600" text-anchor="middle" fill="#0f172a">Rendered</text><path class="state-transition" data-state-from="SVGOut" data-state-to="Raster" d="M 116 1262 L 116 1322" fill="none" stroke="#1e293b" stroke-width="2" marker-end="url(#arrow)"/><text x="-52" y="1302" font-family="monospace" font-size="11" fill="#0f172a" text-anchor="middle" data-state-label="resvg rasterize"><tspan x="-52" y="1302">resvg rasterize</tspan></text><path class="state-transition" data-state-from="SVGOut" data-state-to="TxtOut" d="M 116 1262 L 116 1422" fill="none" stroke="#1e293b" stroke-width="2" marker-end="url(#arrow)"/><text x="-52" y="1332" font-family="monospace" font-size="11" fill="#0f172a" text-anchor="middle" data-state-label="ascii conversion"><tspan x="-52" y="1332">ascii conversion</tspan></text><metadata data-state-node="SVGOut" data-state-kind="normal" /><rect x="46" y="1222" width="140" height="40" rx="8" ry="8" fill="#f6f6f6" stroke="#1e293b" stroke-width="1.5"/><text x="116" y="1246" font-family="monospace" font-size="13" font-weight="600" text-anchor="middle" fill="#0f172a">SVG</text><metadata data-state-node="Raster" data-state-kind="normal" /><rect x="46" y="1322" width="140" height="40" rx="8" ry="8" fill="#f6f6f6" stroke="#1e293b" stroke-width="1.5"/><text x="116" y="1346" font-family="monospace" font-size="13" font-weight="600" text-anchor="middle" fill="#0f172a">Raster PNG/JPEG</text><metadata data-state-node="TxtOut" data-state-kind="normal" /><rect x="46" y="1422" width="140" height="40" rx="8" ry="8" fill="#f6f6f6" stroke="#1e293b" stroke-width="1.5"/><text x="116" y="1446" font-family="monospace" font-size="13" font-weight="600" text-anchor="middle" fill="#0f172a">Text utxt/atxt</text><metadata data-state-node="Output" data-state-kind="normal" /><rect x="30" y="1534" width="140" height="40" rx="8" ry="8" fill="#f6f6f6" stroke="#1e293b" stroke-width="1.5"/><text x="100" y="1558" font-family="monospace" font-size="13" font-weight="600" text-anchor="middle" fill="#0f172a">Output</text><metadata data-state-node="[*]__end" data-state-kind="end" /><circle cx="43" cy="1647" r="12" fill="#f6f6f6" stroke="#1e293b" stroke-width="2"/><circle cx="43" cy="1647" r="8" fill="#0f172a"/></svg>