<svg xmlns="http://www.w3.org/2000/svg" width="548" height="426" viewBox="0 0 548 426"><rect width="100%" height="100%" fill="white"/><defs><marker id="arrow" markerWidth="8" markerHeight="8" refX="6" refY="3" orient="auto"><path d="M0,0 L0,6 L8,3 z" fill="#1e293b"/></marker></defs><text x="274" y="28" font-family="monospace" font-size="16" font-weight="600" text-anchor="middle" fill="#0f172a">Issue 987 state notes</text><polyline class="state-transition" data-state-from="Idle" data-state-to="Active" points="281,120 281,180" fill="none" stroke="#1e293b" stroke-width="2" marker-end="url(#arrow)"/><text x="273" y="160" font-family="monospace" font-size="11" fill="#0f172a" text-anchor="middle" data-state-label="start"><tspan x="273" y="160">start</tspan></text><path class="state-note-connector" data-state-from="Active" data-state-to="__state_note_0001" d="M 281 200 L 182 200" fill="none" stroke="#6b7280" stroke-width="1" stroke-dasharray="5 3"/><polyline class="state-transition" data-state-from="Active" data-state-to="Done" points="281,220 281,280" fill="none" stroke="#1e293b" stroke-width="2" marker-end="url(#arrow)"/><text x="273" y="260" font-family="monospace" font-size="11" fill="#0f172a" text-anchor="middle" data-state-label="finish"><tspan x="273" y="260">finish</tspan></text><path class="state-note-connector" data-state-from="Active" data-state-to="__state_note_0002" d="M 281 250 L 309 250" fill="none" stroke="#6b7280" stroke-width="1" stroke-dasharray="5 3"/><path class="state-note-connector" data-state-from="Active" data-state-to="__state_note_0003" d="M 281 250 L 371 340" fill="none" stroke="#6b7280" stroke-width="1" stroke-dasharray="5 3"/><metadata data-state-node="Idle" data-state-kind="normal" /><rect x="211" y="80" width="140" height="40" rx="8" ry="8" fill="#f6f6f6" stroke="#1e293b" stroke-width="1.5"/><text x="281" y="104" font-family="monospace" font-size="13" font-weight="600" text-anchor="middle" fill="#0f172a">Idle</text><metadata data-state-node="Active" data-state-kind="normal" /><rect x="211" y="180" width="140" height="40" rx="8" ry="8" fill="#f6f6f6" stroke="#1e293b" stroke-width="1.5"/><text x="281" y="204" font-family="monospace" font-size="13" font-weight="600" text-anchor="middle" fill="#0f172a">Active</text><metadata data-state-node="Done" data-state-kind="normal" /><rect x="211" y="280" width="140" height="40" rx="8" ry="8" fill="#f6f6f6" stroke="#1e293b" stroke-width="1.5"/><text x="281" y="304" font-family="monospace" font-size="13" font-weight="600" text-anchor="middle" fill="#0f172a">Done</text><metadata data-state-node="__state_note_0001" data-state-kind="note" data-state-stereotype="left" /><path class="state-note" d="M 30 178 H 171 L 183 190 V 222 H 30 Z" fill="#fff8c4" stroke="#111111" stroke-width="1"/><path class="state-note-fold" d="M 171 178 V 190 H 183" fill="none" stroke="#111111" stroke-width="1"/><text x="40" y="199" font-family="monospace" font-size="11" fill="#111111">attached state note</text><metadata data-state-node="__state_note_0002" data-state-kind="note" data-state-stereotype="over" /><path class="state-note" d="M 309 228 H 506 L 518 240 V 272 H 309 Z" fill="#fff8c4" stroke="#111111" stroke-width="1"/><path class="state-note-fold" d="M 506 228 V 240 H 518" fill="none" stroke="#111111" stroke-width="1"/><text x="319" y="249" font-family="monospace" font-size="11" fill="#111111">note centered on transition</text><metadata data-state-node="__state_note_0003" data-state-kind="note" data-state-stereotype="right" /><path class="state-note" d="M 309 340 H 422 L 434 352 V 384 H 309 Z" fill="#fff8c4" stroke="#111111" stroke-width="1"/><path class="state-note-fold" d="M 422 340 V 352 H 434" fill="none" stroke="#111111" stroke-width="1"/><text x="319" y="361" font-family="monospace" font-size="11" fill="#111111">right link note</text></svg>