<svg xmlns="http://www.w3.org/2000/svg" width="2304" height="1258" viewBox="0 0 2304 1258"><rect width="100%" height="100%" fill="#ffffff"/><defs><marker id="arrow-open" viewBox="0 0 10 10" refX="9" refY="5" markerWidth="10" markerHeight="10" markerUnits="userSpaceOnUse" orient="auto-start-reverse"><path d="M0,0 L10,5 L0,10" fill="none" stroke="#1e293b" stroke-width="1.5"/></marker><marker id="arrow-triangle" viewBox="0 0 16 16" refX="15" refY="8" markerWidth="16" markerHeight="16" markerUnits="userSpaceOnUse" orient="auto-start-reverse"><polygon points="0,1 14,8 0,15" fill="#ffffff" stroke="#1e293b" stroke-width="1.5" fill-rule="nonzero"/></marker><marker id="arrow-diamond-filled" viewBox="0 0 14 10" refX="13" refY="5" markerWidth="14" markerHeight="10" markerUnits="userSpaceOnUse" orient="auto-start-reverse"><path d="M0,5 L7,0 L14,5 L7,10 z" fill="#1e293b" stroke="#1e293b" stroke-width="1"/></marker><marker id="arrow-diamond-open" viewBox="0 0 14 10" refX="13" refY="5" markerWidth="14" markerHeight="10" markerUnits="userSpaceOnUse" orient="auto-start-reverse"><path d="M0,5 L7,0 L14,5 L7,10 z" fill="#ffffff" stroke="#1e293b" stroke-width="1"/></marker></defs><polyline class="uml-relation" data-uml-from="language service::CompletionList" data-uml-to="language service::CompletionItem" data-uml-arrow="*--" points="584,814 584,937 1320,937 1320,1036" fill="none" stroke="#1e293b" stroke-width="2" marker-start="url(#arrow-diamond-filled)" /><polyline class="uml-relation" data-uml-from="diagnostics::Diagnostic" data-uml-to="diagnostics::Severity" data-uml-arrow="--&gt;" points="216,830 216,929 952,929 952,1036" fill="none" stroke="#1e293b" stroke-width="2" marker-end="url(#arrow-open)" /><polyline class="uml-relation" data-uml-from="LspAdapter" data-uml-to="CompletionList" data-uml-arrow="--&gt;" points="1136,530 1136,641 584,641 584,736" fill="none" stroke="#1e293b" stroke-width="2" marker-end="url(#arrow-open)" /><text x="544" y="722" text-anchor="middle" font-family="monospace" font-size="11" fill="#334155">returns</text><polyline class="uml-relation" data-uml-from="LspAdapter" data-uml-to="Hover" data-uml-arrow="--&gt;" points="1136,530 1136,649 1688,649 1688,736" fill="none" stroke="#1e293b" stroke-width="2" marker-end="url(#arrow-open)" /><text x="1648" y="722" text-anchor="middle" font-family="monospace" font-size="11" fill="#334155">returns</text><polyline class="uml-relation" data-uml-from="LspAdapter" data-uml-to="SemanticTokens" data-uml-arrow="--&gt;" points="1136,530 1136,657 2056,657 2056,736" fill="none" stroke="#1e293b" stroke-width="2" marker-end="url(#arrow-open)" /><text x="1596" y="645" text-anchor="middle" font-family="monospace" font-size="11" fill="#334155">returns</text><polyline class="uml-relation" data-uml-from="LspAdapter" data-uml-to="FormatResult" data-uml-arrow="--&gt;" points="1136,530 1136,665 1320,665 1320,736" fill="none" stroke="#1e293b" stroke-width="2" marker-end="url(#arrow-open)" /><text x="1280" y="722" text-anchor="middle" font-family="monospace" font-size="11" fill="#334155">returns</text><polyline class="uml-relation" data-uml-from="LspAdapter" data-uml-to="Diagnostic" data-uml-arrow="--&gt;" points="1136,530 1136,673 216,673 216,736" fill="none" stroke="#1e293b" stroke-width="2" marker-end="url(#arrow-open)" /><text x="136" y="722" text-anchor="middle" font-family="monospace" font-size="11" fill="#334155">emits</text><polyline class="uml-relation" data-uml-from="WasmAdapter" data-uml-to="CompletionList" data-uml-arrow="--&gt;" points="1504,182 1504,289 1044,289 1044,617 584,617 584,736" fill="none" stroke="#1e293b" stroke-width="2" marker-end="url(#arrow-open)" /><text x="624" y="722" text-anchor="middle" font-family="monospace" font-size="11" fill="#334155">returns</text><polyline class="uml-relation" data-uml-from="WasmAdapter" data-uml-to="Hover" data-uml-arrow="--&gt;" points="1504,182 1504,297 1596,297 1596,625 1688,625 1688,736" fill="none" stroke="#1e293b" stroke-width="2" marker-end="url(#arrow-open)" /><text x="1728" y="722" text-anchor="middle" font-family="monospace" font-size="11" fill="#334155">returns</text><polyline class="uml-relation" data-uml-from="WasmAdapter" data-uml-to="Diagnostic" data-uml-arrow="--&gt;" points="1504,182 1504,305 860,305 860,633 216,633 216,736" fill="none" stroke="#1e293b" stroke-width="2" marker-end="url(#arrow-open)" /><text x="216" y="722" text-anchor="middle" font-family="monospace" font-size="11" fill="#334155">emits</text><polyline class="uml-relation" data-uml-from="CliAdapter" data-uml-to="FormatResult" data-uml-arrow="--&gt;" points="1136,166 1136,273 1228,273 1228,601 1320,601 1320,736" fill="none" stroke="#1e293b" stroke-width="2" marker-end="url(#arrow-open)" /><text x="1360" y="722" text-anchor="middle" font-family="monospace" font-size="11" fill="#334155">returns</text><polyline class="uml-relation" data-uml-from="CliAdapter" data-uml-to="Diagnostic" data-uml-arrow="--&gt;" points="1136,166 1136,281 676,281 676,609 216,609 216,736" fill="none" stroke="#1e293b" stroke-width="2" marker-end="url(#arrow-open)" /><text x="296" y="722" text-anchor="middle" font-family="monospace" font-size="11" fill="#334155">emits</text><polyline class="uml-relation" data-uml-from="VsCodeExtension" data-uml-to="LspAdapter" data-uml-arrow="--&gt;" points="768,150 768,265 1136,265 1136,388" fill="none" stroke="#1e293b" stroke-width="2" marker-end="url(#arrow-open)" /><text x="952" y="253" text-anchor="middle" font-family="monospace" font-size="11" fill="#334155">delegates to</text><rect class="uml-group-frame" data-uml-group="diagnostics" x="56" y="680" width="1056" height="464" rx="6" ry="6" fill="none" stroke="#6366f1" stroke-width="1.5" stroke-dasharray="5 3"/><text x="64" y="694" font-family="monospace" font-size="11" font-weight="600" fill="#4338ca">package diagnostics</text><rect class="uml-group-frame" data-uml-group="language service" x="424" y="680" width="1792" height="482" rx="6" ry="6" fill="none" stroke="#6366f1" stroke-width="1.5" stroke-dasharray="5 3"/><text x="432" y="694" font-family="monospace" font-size="11" font-weight="600" fill="#4338ca">package language service</text><rect class="uml-group-frame" data-uml-group="transports" x="608" y="16" width="1056" height="530" rx="6" ry="6" fill="none" stroke="#6366f1" stroke-width="1.5" stroke-dasharray="5 3"/><text x="616" y="30" font-family="monospace" font-size="11" font-weight="600" fill="#4338ca">package transports</text><rect x="1176" y="1036" width="288" height="110" rx="4" ry="4" fill="#ffffff" stroke="#1e293b" stroke-width="1.5"/><rect x="1176" y="1036" width="288" height="30" rx="4" ry="4" fill="#dbeafe" stroke="#1e293b" stroke-width="1.5"/><line x1="1176" y1="1066" x2="1464" y2="1066" stroke="#1e293b" stroke-width="1"/><text x="1320" y="1057" text-anchor="middle" font-family="monospace" font-size="13" font-weight="600" fill="#0f172a">language service::CompletionItem</text><text class="uml-member" data-uml-visibility="public" x="1186" y="1082" font-family="monospace" font-size="11" fill="#16a34a">+label: String</text><text class="uml-member" data-uml-visibility="public" x="1186" y="1098" font-family="monospace" font-size="11" fill="#16a34a">+kind: CompletionItemKind</text><text class="uml-member" data-uml-visibility="public" x="1186" y="1114" font-family="monospace" font-size="11" fill="#16a34a">+detail: String</text><text class="uml-member" data-uml-visibility="public" x="1186" y="1130" font-family="monospace" font-size="11" fill="#16a34a">+documentation: String</text><rect x="440" y="736" width="288" height="78" rx="4" ry="4" fill="#ffffff" stroke="#1e293b" stroke-width="1.5"/><rect x="440" y="736" width="288" height="30" rx="4" ry="4" fill="#dbeafe" stroke="#1e293b" stroke-width="1.5"/><line x1="440" y1="766" x2="728" y2="766" stroke="#1e293b" stroke-width="1"/><text x="584" y="757" text-anchor="middle" font-family="monospace" font-size="13" font-weight="600" fill="#0f172a">language service::CompletionList</text><text class="uml-member" data-uml-visibility="public" x="450" y="782" font-family="monospace" font-size="11" fill="#16a34a">+is_incomplete: bool</text><text class="uml-member" data-uml-visibility="public" x="450" y="798" font-family="monospace" font-size="11" fill="#16a34a">+items: Vec&lt;CompletionItem&gt;</text><rect x="1544" y="736" width="288" height="62" rx="4" ry="4" fill="#ffffff" stroke="#1e293b" stroke-width="1.5"/><rect x="1544" y="736" width="288" height="30" rx="4" ry="4" fill="#dbeafe" stroke="#1e293b" stroke-width="1.5"/><line x1="1544" y1="766" x2="1832" y2="766" stroke="#1e293b" stroke-width="1"/><text x="1688" y="757" text-anchor="middle" font-family="monospace" font-size="13" font-weight="600" fill="#0f172a">language service::Hover</text><text class="uml-member" data-uml-visibility="public" x="1554" y="782" font-family="monospace" font-size="11" fill="#16a34a">+markdown: String</text><rect x="808" y="736" width="288" height="94" rx="4" ry="4" fill="#ffffff" stroke="#1e293b" stroke-width="1.5"/><rect x="808" y="736" width="288" height="30" rx="4" ry="4" fill="#dbeafe" stroke="#1e293b" stroke-width="1.5"/><line x1="808" y1="766" x2="1096" y2="766" stroke="#1e293b" stroke-width="1"/><text x="952" y="757" text-anchor="middle" font-family="monospace" font-size="13" font-weight="600" fill="#0f172a">language service::DocumentSymbol</text><text class="uml-member" data-uml-visibility="public" x="818" y="782" font-family="monospace" font-size="11" fill="#16a34a">+name: String</text><text class="uml-member" data-uml-visibility="public" x="818" y="798" font-family="monospace" font-size="11" fill="#16a34a">+kind: DocumentSymbolKind</text><text class="uml-member" data-uml-visibility="public" x="818" y="814" font-family="monospace" font-size="11" fill="#16a34a">+span: Span</text><rect x="1912" y="736" width="288" height="62" rx="4" ry="4" fill="#ffffff" stroke="#1e293b" stroke-width="1.5"/><rect x="1912" y="736" width="288" height="30" rx="4" ry="4" fill="#dbeafe" stroke="#1e293b" stroke-width="1.5"/><line x1="1912" y1="766" x2="2200" y2="766" stroke="#1e293b" stroke-width="1"/><text x="2056" y="757" text-anchor="middle" font-family="monospace" font-size="13" font-weight="600" fill="#0f172a">language service::SemanticTokens</text><text class="uml-member" data-uml-visibility="public" x="1922" y="782" font-family="monospace" font-size="11" fill="#16a34a">+data: Vec&lt;SemanticToken&gt;</text><rect x="1176" y="736" width="288" height="78" rx="4" ry="4" fill="#ffffff" stroke="#1e293b" stroke-width="1.5"/><rect x="1176" y="736" width="288" height="30" rx="4" ry="4" fill="#dbeafe" stroke="#1e293b" stroke-width="1.5"/><line x1="1176" y1="766" x2="1464" y2="766" stroke="#1e293b" stroke-width="1"/><text x="1320" y="757" text-anchor="middle" font-family="monospace" font-size="13" font-weight="600" fill="#0f172a">language service::FormatResult</text><text class="uml-member" data-uml-visibility="public" x="1186" y="782" font-family="monospace" font-size="11" fill="#16a34a">+text: String</text><text class="uml-member" data-uml-visibility="public" x="1186" y="798" font-family="monospace" font-size="11" fill="#16a34a">+changed: bool</text><rect x="72" y="736" width="288" height="94" rx="4" ry="4" fill="#ffffff" stroke="#1e293b" stroke-width="1.5"/><rect x="72" y="736" width="288" height="30" rx="4" ry="4" fill="#dbeafe" stroke="#1e293b" stroke-width="1.5"/><line x1="72" y1="766" x2="360" y2="766" stroke="#1e293b" stroke-width="1"/><text x="216" y="757" text-anchor="middle" font-family="monospace" font-size="13" font-weight="600" fill="#0f172a">diagnostics::Diagnostic</text><text class="uml-member" data-uml-visibility="public" x="82" y="782" font-family="monospace" font-size="11" fill="#16a34a">+message: String</text><text class="uml-member" data-uml-visibility="public" x="82" y="798" font-family="monospace" font-size="11" fill="#16a34a">+span: Option&lt;Span&gt;</text><text class="uml-member" data-uml-visibility="public" x="82" y="814" font-family="monospace" font-size="11" fill="#16a34a">+severity: Severity</text><rect x="808" y="1036" width="288" height="92" rx="4" ry="4" fill="#ffffff" stroke="#1e293b" stroke-width="1.5"/><rect x="808" y="1036" width="288" height="44" rx="4" ry="4" fill="#dbeafe" stroke="#1e293b" stroke-width="1.5"/><line x1="808" y1="1080" x2="1096" y2="1080" stroke="#1e293b" stroke-width="1"/><text x="952" y="1049" text-anchor="middle" font-family="monospace" font-size="10" fill="#0f172a">«enumeration»</text><text x="952" y="1071" text-anchor="middle" font-family="monospace" font-size="13" font-weight="600" fill="#0f172a">diagnostics::Severity</text><text class="uml-member" x="818" y="1096" font-family="monospace" font-size="11" fill="#334155">Error</text><text class="uml-member" x="818" y="1112" font-family="monospace" font-size="11" fill="#334155">Warning</text><rect x="992" y="388" width="288" height="142" rx="4" ry="4" fill="#ffffff" stroke="#1e293b" stroke-width="1.5"/><rect x="992" y="388" width="288" height="30" rx="4" ry="4" fill="#dbeafe" stroke="#1e293b" stroke-width="1.5"/><line x1="992" y1="418" x2="1280" y2="418" stroke="#1e293b" stroke-width="1"/><text x="1136" y="409" text-anchor="middle" font-family="monospace" font-size="13" font-weight="600" fill="#0f172a">transports::LspAdapter</text><text class="uml-member" data-uml-visibility="public" x="1002" y="434" font-family="monospace" font-size="11" fill="#16a34a">+initialize()</text><text class="uml-member" data-uml-visibility="public" x="1002" y="450" font-family="monospace" font-size="11" fill="#16a34a">+hover(pos): Hover</text><text class="uml-member" data-uml-visibility="public" x="1002" y="466" font-family="monospace" font-size="11" fill="#16a34a">+completion(pos): CompletionList</text><text class="uml-member" data-uml-visibility="public" x="1002" y="482" font-family="monospace" font-size="11" fill="#16a34a">+semantic_tokens(): SemanticTokens</text><text class="uml-member" data-uml-visibility="public" x="1002" y="498" font-family="monospace" font-size="11" fill="#16a34a">+format(): FormatResult</text><text class="uml-member" data-uml-visibility="public" x="1002" y="514" font-family="monospace" font-size="11" fill="#16a34a">+diagnostics(): Vec&lt;Diagnostic&gt;</text><rect x="1360" y="72" width="288" height="110" rx="4" ry="4" fill="#ffffff" stroke="#1e293b" stroke-width="1.5"/><rect x="1360" y="72" width="288" height="30" rx="4" ry="4" fill="#dbeafe" stroke="#1e293b" stroke-width="1.5"/><line x1="1360" y1="102" x2="1648" y2="102" stroke="#1e293b" stroke-width="1"/><text x="1504" y="93" text-anchor="middle" font-family="monospace" font-size="13" font-weight="600" fill="#0f172a">transports::WasmAdapter</text><text class="uml-member" data-uml-visibility="public" x="1370" y="118" font-family="monospace" font-size="11" fill="#16a34a">+render(src): String</text><text class="uml-member" data-uml-visibility="public" x="1370" y="134" font-family="monospace" font-size="11" fill="#16a34a">+hover(pos): Hover</text><text class="uml-member" data-uml-visibility="public" x="1370" y="150" font-family="monospace" font-size="11" fill="#16a34a">+completion(pos): CompletionList</text><text class="uml-member" data-uml-visibility="public" x="1370" y="166" font-family="monospace" font-size="11" fill="#16a34a">+diagnostics(): Vec&lt;Diagnostic&gt;</text><rect x="992" y="72" width="288" height="94" rx="4" ry="4" fill="#ffffff" stroke="#1e293b" stroke-width="1.5"/><rect x="992" y="72" width="288" height="30" rx="4" ry="4" fill="#dbeafe" stroke="#1e293b" stroke-width="1.5"/><line x1="992" y1="102" x2="1280" y2="102" stroke="#1e293b" stroke-width="1"/><text x="1136" y="93" text-anchor="middle" font-family="monospace" font-size="13" font-weight="600" fill="#0f172a">transports::CliAdapter</text><text class="uml-member" data-uml-visibility="public" x="1002" y="118" font-family="monospace" font-size="11" fill="#16a34a">+render(path, fmt): Vec&lt;u8&gt;</text><text class="uml-member" data-uml-visibility="public" x="1002" y="134" font-family="monospace" font-size="11" fill="#16a34a">+check(path): Vec&lt;Diagnostic&gt;</text><text class="uml-member" data-uml-visibility="public" x="1002" y="150" font-family="monospace" font-size="11" fill="#16a34a">+format(path): FormatResult</text><rect x="624" y="72" width="288" height="78" rx="4" ry="4" fill="#ffffff" stroke="#1e293b" stroke-width="1.5"/><rect x="624" y="72" width="288" height="30" rx="4" ry="4" fill="#dbeafe" stroke="#1e293b" stroke-width="1.5"/><line x1="624" y1="102" x2="912" y2="102" stroke="#1e293b" stroke-width="1"/><text x="768" y="93" text-anchor="middle" font-family="monospace" font-size="13" font-weight="600" fill="#0f172a">transports::VsCodeExtension</text><text class="uml-member" data-uml-visibility="public" x="634" y="118" font-family="monospace" font-size="11" fill="#16a34a">+activate()</text><text class="uml-member" data-uml-visibility="public" x="634" y="134" font-family="monospace" font-size="11" fill="#16a34a">+deactivate()</text></svg>