<svg xmlns="http://www.w3.org/2000/svg" width="2472" height="1722" viewBox="0 0 2472 1722" data-orientation="TopToBottom"><rect width="100%" height="100%" fill="#ffffff"/><defs><marker id="arrow-open" viewBox="0 0 10 10" refX="9" refY="5" markerWidth="10" markerHeight="10" markerUnits="userSpaceOnUse" orient="auto-start-reverse"><path d="M0,0 L10,5 L0,10" fill="none" stroke="#1e293b" stroke-width="1.5"/></marker><marker id="arrow-triangle" viewBox="0 0 16 16" refX="15" refY="8" markerWidth="16" markerHeight="16" markerUnits="userSpaceOnUse" orient="auto-start-reverse"><polygon points="0,1 14,8 0,15" fill="#ffffff" stroke="#1e293b" stroke-width="1.5" fill-rule="nonzero"/></marker><marker id="arrow-diamond-filled" viewBox="0 0 14 10" refX="13" refY="5" markerWidth="14" markerHeight="10" markerUnits="userSpaceOnUse" orient="auto-start-reverse"><path d="M0,5 L7,0 L14,5 L7,10 z" fill="#1e293b" stroke="#1e293b" stroke-width="1"/></marker><marker id="arrow-diamond-open" viewBox="0 0 14 10" refX="13" refY="5" markerWidth="14" markerHeight="10" markerUnits="userSpaceOnUse" orient="auto-start-reverse"><path d="M0,5 L7,0 L14,5 L7,10 z" fill="#ffffff" stroke="#1e293b" stroke-width="1"/></marker></defs><defs><marker id="arrow-triangle-filled" viewBox="0 0 12 12" refX="11" refY="6" markerWidth="12" markerHeight="12" markerUnits="userSpaceOnUse" orient="auto-start-reverse"><polygon points="0,0 12,6 0,12" fill="#1e293b" stroke="#1e293b" stroke-width="1.5"/></marker><marker id="arrow-box-filled" viewBox="0 0 12 12" refX="11" refY="6" markerWidth="12" markerHeight="12" markerUnits="userSpaceOnUse" orient="auto-start-reverse"><rect x="2" y="2" width="8" height="8" fill="#1e293b" stroke="#1e293b" stroke-width="1.5"/></marker><marker id="arrow-plus" viewBox="0 0 12 12" refX="11" refY="6" markerWidth="12" markerHeight="12" markerUnits="userSpaceOnUse" orient="auto-start-reverse"><path d="M6,1 L6,11 M1,6 L11,6" fill="none" stroke="#1e293b" stroke-width="1.8" stroke-linecap="round"/></marker><marker id="arrow-cross" viewBox="0 0 12 12" refX="11" refY="6" markerWidth="12" markerHeight="12" markerUnits="userSpaceOnUse" orient="auto-start-reverse"><path d="M2,2 L10,10 M10,2 L2,10" fill="none" stroke="#1e293b" stroke-width="1.8" stroke-linecap="round"/></marker><marker id="arrow-bracket-open" viewBox="0 0 12 14" refX="11" refY="7" markerWidth="12" markerHeight="14" markerUnits="userSpaceOnUse" orient="auto-start-reverse"><path d="M10,1 L4,1 L4,13 L10,13" fill="none" stroke="#1e293b" stroke-width="1.8" stroke-linecap="round" stroke-linejoin="round"/></marker><marker id="arrow-circle-open" viewBox="0 0 12 12" refX="11" refY="6" markerWidth="12" markerHeight="12" markerUnits="userSpaceOnUse" orient="auto-start-reverse"><circle cx="6" cy="6" r="4" fill="#ffffff" stroke="#1e293b" stroke-width="1.5"/></marker><marker id="arrow-circle-filled" viewBox="0 0 12 12" refX="11" refY="6" markerWidth="12" markerHeight="12" markerUnits="userSpaceOnUse" orient="auto-start-reverse"><circle cx="6" cy="6" r="4" fill="#1e293b" stroke="#1e293b" stroke-width="1.5"/></marker><marker id="arrow-double-open" viewBox="0 0 16 12" refX="15" refY="6" markerWidth="16" markerHeight="12" markerUnits="userSpaceOnUse" orient="auto-start-reverse"><path d="M0,1 L8,6 L0,11 M7,1 L15,6 L7,11" fill="none" stroke="#1e293b" stroke-width="1.5" stroke-linejoin="round"/></marker></defs><path class="uml-relation" data-uml-from="language service::CompletionList" data-uml-to="language service::CompletionItem" data-uml-arrow="*--" d="M 768,1291 C 768.0,1343.7 684.0,1422.7 768.0,1449.0 C 852.0,1475.3 1188.0,1422.7 1272.0,1449.0 C 1356.0,1475.3 1272.0,1554.3 1272.0,1607.0" fill="none" stroke="#1e293b" stroke-width="2" marker-start="url(#arrow-diamond-filled)" /><path class="uml-relation" data-uml-from="diagnostics::Diagnostic" data-uml-to="diagnostics::Severity" data-uml-arrow="--&gt;" d="M 372,795 C 372.0,875.0 288.0,995.0 372.0,1035.0 C 456.0,1075.0 792.0,1025.2 876.0,1035.0 C 960.0,1044.8 876.0,1074.3 876.0,1094.0" fill="none" stroke="#1e293b" stroke-width="2" marker-end="url(#arrow-open)" /><path class="uml-relation" data-uml-from="LspAdapter" data-uml-to="CompletionList" data-uml-arrow="--&gt;" d="M 1218,542 C 1218.0,609.3 1317.0,710.3 1218.0,744.0 C 1119.0,777.7 723.0,659.3 624.0,744.0 C 525.0,828.7 624.0,1082.7 624.0,1252.0" fill="none" stroke="#1e293b" stroke-width="2" marker-end="url(#arrow-open)" /><text class="uml-edge-label" data-uml-label-role="edge" x="987" y="732" text-anchor="middle" font-family="monospace" font-size="11" fill="#334155">returns</text><path class="uml-relation" data-uml-from="LspAdapter" data-uml-to="Hover" data-uml-arrow="--&gt;" d="M 1218,542 C 1218.0,609.3 1119.0,710.3 1218.0,744.0 C 1317.0,777.7 1713.0,659.3 1812.0,744.0 C 1911.0,828.7 1812.0,1082.7 1812.0,1252.0" fill="none" stroke="#1e293b" stroke-width="2" marker-end="url(#arrow-open)" /><text class="uml-edge-label" data-uml-label-role="edge" x="1630" y="732" text-anchor="middle" font-family="monospace" font-size="11" fill="#334155">returns</text><path class="uml-relation" data-uml-from="LspAdapter" data-uml-to="SemanticTokens" data-uml-arrow="--&gt;" d="M 1362,471 C 1362.0,562.0 1245.0,698.5 1362.0,744.0 C 1479.0,789.5 1947.0,654.2 2064.0,744.0 C 2181.0,833.8 2064.0,1103.3 2064.0,1283.0" fill="none" stroke="#1e293b" stroke-width="2" marker-end="url(#arrow-open)" /><text class="uml-edge-label" data-uml-label-role="edge" x="1985" y="732" text-anchor="middle" font-family="monospace" font-size="11" fill="#334155">returns</text><path class="uml-relation" data-uml-from="LspAdapter" data-uml-to="FormatResult" data-uml-arrow="--&gt;" d="M 1218,542 C 1218.0,609.3 1185.0,710.3 1218.0,744.0 C 1251.0,777.7 1383.0,659.3 1416.0,744.0 C 1449.0,828.7 1416.0,1082.7 1416.0,1252.0" fill="none" stroke="#1e293b" stroke-width="2" marker-end="url(#arrow-open)" /><text class="uml-edge-label" data-uml-label-role="edge" x="1383" y="986" text-anchor="middle" font-family="monospace" font-size="11" fill="#334155">returns</text><path class="uml-relation" data-uml-from="LspAdapter" data-uml-to="Diagnostic" data-uml-arrow="--&gt;" d="M 1074,471 C 1074.0,562.0 1191.0,698.5 1074.0,744.0 C 957.0,789.5 489.0,735.5 372.0,744.0 C 255.0,752.5 372.0,778.0 372.0,795.0" fill="none" stroke="#1e293b" stroke-width="2" marker-end="url(#arrow-open)" /><text class="uml-edge-label" data-uml-label-role="edge" x="729" y="732" text-anchor="middle" font-family="monospace" font-size="11" fill="#334155">emits</text><path class="uml-relation" data-uml-from="WasmAdapter" data-uml-to="CompletionList" data-uml-arrow="--&gt;" d="M 1614,194 C 1614.0,233.7 1779.0,293.2 1614.0,313.0 C 1449.0,332.8 789.0,156.5 624.0,313.0 C 459.0,469.5 624.0,939.0 624.0,1252.0" fill="none" stroke="#1e293b" stroke-width="2" marker-end="url(#arrow-open)" /><text class="uml-edge-label" data-uml-label-role="edge" x="1053" y="301" text-anchor="middle" font-family="monospace" font-size="11" fill="#334155">returns</text><path class="uml-relation" data-uml-from="WasmAdapter" data-uml-to="Hover" data-uml-arrow="--&gt;" d="M 1614,194 C 1614.0,244.7 1581.0,320.7 1614.0,346.0 C 1647.0,371.3 1779.0,195.0 1812.0,346.0 C 1845.0,497.0 1812.0,950.0 1812.0,1252.0" fill="none" stroke="#1e293b" stroke-width="2" marker-end="url(#arrow-open)" /><text class="uml-edge-label" data-uml-label-role="edge" x="1696" y="787" text-anchor="middle" font-family="monospace" font-size="11" fill="#334155">returns</text><path class="uml-relation" data-uml-from="WasmAdapter" data-uml-to="Diagnostic" data-uml-arrow="--&gt;" d="M 1470,139 C 1470.0,219.0 1653.0,339.0 1470.0,379.0 C 1287.0,419.0 555.0,309.7 372.0,379.0 C 189.0,448.3 372.0,656.3 372.0,795.0" fill="none" stroke="#1e293b" stroke-width="2" marker-end="url(#arrow-open)" /><text class="uml-edge-label" data-uml-label-role="edge" x="849" y="367" text-anchor="middle" font-family="monospace" font-size="11" fill="#334155">emits</text><path class="uml-relation" data-uml-from="CliAdapter" data-uml-to="FormatResult" data-uml-arrow="--&gt;" d="M 1218,178 C 1218.0,201.0 1185.0,235.5 1218.0,247.0 C 1251.0,258.5 1383.0,79.5 1416.0,247.0 C 1449.0,414.5 1416.0,917.0 1416.0,1252.0" fill="none" stroke="#1e293b" stroke-width="2" marker-end="url(#arrow-open)" /><text class="uml-edge-label" data-uml-label-role="edge" x="1449" y="737" text-anchor="middle" font-family="monospace" font-size="11" fill="#334155">returns</text><path class="uml-relation" data-uml-from="CliAdapter" data-uml-to="Diagnostic" data-uml-arrow="--&gt;" d="M 1074,131 C 1074.0,180.7 1191.0,255.2 1074.0,280.0 C 957.0,304.8 489.0,194.2 372.0,280.0 C 255.0,365.8 372.0,623.3 372.0,795.0" fill="none" stroke="#1e293b" stroke-width="2" marker-end="url(#arrow-open)" /><text class="uml-edge-label" data-uml-label-role="edge" x="789" y="268" text-anchor="middle" font-family="monospace" font-size="11" fill="#334155">emits</text><path class="uml-relation" data-uml-from="VsCodeExtension" data-uml-to="LspAdapter" data-uml-arrow="--&gt;" d="M 966,123 C 966.0,153.3 948.0,198.8 966.0,214.0 C 984.0,229.2 1056.0,171.2 1074.0,214.0 C 1092.0,256.8 1074.0,385.3 1074.0,471.0" fill="none" stroke="#1e293b" stroke-width="2" marker-end="url(#arrow-open)" /><text class="uml-edge-label" data-uml-label-role="edge" x="1406" y="330" text-anchor="middle" font-family="monospace" font-size="11" fill="#334155">delegates to</text><rect class="uml-group-frame" data-uml-group="diagnostics" x="64" y="676" width="1120" height="484" rx="6" ry="6" fill="none" stroke="#6366f1" stroke-width="1.5" stroke-dasharray="5 3"/><rect x="64" y="676" width="168" height="24" rx="6" ry="6" fill="#ffffff" stroke="#6366f1" stroke-width="1.5"/><rect x="64" y="692" width="168" height="8" fill="#ffffff" stroke="none"/><text x="72" y="692" font-family="monospace" font-size="11" font-weight="600" fill="#4338ca">package diagnostics</text><line x1="64" y1="700" x2="1184" y2="700" stroke="#6366f1" stroke-width="1"/><rect class="uml-group-frame" data-uml-group="language service" x="460" y="1180" width="1912" height="502" rx="6" ry="6" fill="none" stroke="#6366f1" stroke-width="1.5" stroke-dasharray="5 3"/><rect x="460" y="1180" width="208" height="24" rx="6" ry="6" fill="#ffffff" stroke="#6366f1" stroke-width="1.5"/><rect x="460" y="1196" width="208" height="8" fill="#ffffff" stroke="none"/><text x="468" y="1196" font-family="monospace" font-size="11" font-weight="600" fill="#4338ca">package language service</text><line x1="460" y1="1204" x2="2372" y2="1204" stroke="#6366f1" stroke-width="1"/><rect class="uml-group-frame" data-uml-group="transports" x="658" y="12" width="1120" height="550" rx="6" ry="6" fill="none" stroke="#6366f1" stroke-width="1.5" stroke-dasharray="5 3"/><rect x="658" y="12" width="160" height="24" rx="6" ry="6" fill="#ffffff" stroke="#6366f1" stroke-width="1.5"/><rect x="658" y="28" width="160" height="8" fill="#ffffff" stroke="none"/><text x="666" y="28" font-family="monospace" font-size="11" font-weight="600" fill="#4338ca">package transports</text><line x1="658" y1="36" x2="1778" y2="36" stroke="#6366f1" stroke-width="1"/><rect x="1272" y="1552" width="288" height="110" rx="4" ry="4" fill="#ffffff" stroke="#1e293b" stroke-width="1.5"/><rect x="1272" y="1552" width="288" height="30" rx="4" ry="4" fill="#dbeafe" stroke="#1e293b" stroke-width="1.5"/><line x1="1272" y1="1582" x2="1560" y2="1582" stroke="#1e293b" stroke-width="1"/><text x="1416" y="1573" text-anchor="middle" font-family="monospace" font-size="13" font-weight="600" fill="#0f172a">language service::CompletionItem</text><text class="uml-member" x="1282" y="1598" font-family="monospace" font-size="11" fill="#334155">+label: String</text><text class="uml-member" x="1282" y="1614" font-family="monospace" font-size="11" fill="#334155">+kind: CompletionItemKind</text><text class="uml-member" x="1282" y="1630" font-family="monospace" font-size="11" fill="#334155">+detail: String</text><text class="uml-member" x="1282" y="1646" font-family="monospace" font-size="11" fill="#334155">+documentation: String</text><rect x="480" y="1252" width="288" height="78" rx="4" ry="4" fill="#ffffff" stroke="#1e293b" stroke-width="1.5"/><rect x="480" y="1252" width="288" height="30" rx="4" ry="4" fill="#dbeafe" stroke="#1e293b" stroke-width="1.5"/><line x1="480" y1="1282" x2="768" y2="1282" stroke="#1e293b" stroke-width="1"/><text x="624" y="1273" text-anchor="middle" font-family="monospace" font-size="13" font-weight="600" fill="#0f172a">language service::CompletionList</text><text class="uml-member" x="490" y="1298" font-family="monospace" font-size="11" fill="#334155">+is_incomplete: bool</text><text class="uml-member" x="490" y="1314" font-family="monospace" font-size="11" fill="#334155">+items: Vec&lt;CompletionItem&gt;</text><rect x="1668" y="1252" width="288" height="62" rx="4" ry="4" fill="#ffffff" stroke="#1e293b" stroke-width="1.5"/><rect x="1668" y="1252" width="288" height="30" rx="4" ry="4" fill="#dbeafe" stroke="#1e293b" stroke-width="1.5"/><line x1="1668" y1="1282" x2="1956" y2="1282" stroke="#1e293b" stroke-width="1"/><text x="1812" y="1273" text-anchor="middle" font-family="monospace" font-size="13" font-weight="600" fill="#0f172a">language service::Hover</text><text class="uml-member" x="1678" y="1298" font-family="monospace" font-size="11" fill="#334155">+markdown: String</text><rect x="876" y="1252" width="288" height="94" rx="4" ry="4" fill="#ffffff" stroke="#1e293b" stroke-width="1.5"/><rect x="876" y="1252" width="288" height="30" rx="4" ry="4" fill="#dbeafe" stroke="#1e293b" stroke-width="1.5"/><line x1="876" y1="1282" x2="1164" y2="1282" stroke="#1e293b" stroke-width="1"/><text x="1020" y="1273" text-anchor="middle" font-family="monospace" font-size="13" font-weight="600" fill="#0f172a">language service::DocumentSymbol</text><text class="uml-member" x="886" y="1298" font-family="monospace" font-size="11" fill="#334155">+name: String</text><text class="uml-member" x="886" y="1314" font-family="monospace" font-size="11" fill="#334155">+kind: DocumentSymbolKind</text><text class="uml-member" x="886" y="1330" font-family="monospace" font-size="11" fill="#334155">+span: Span</text><rect x="2064" y="1252" width="288" height="62" rx="4" ry="4" fill="#ffffff" stroke="#1e293b" stroke-width="1.5"/><rect x="2064" y="1252" width="288" height="30" rx="4" ry="4" fill="#dbeafe" stroke="#1e293b" stroke-width="1.5"/><line x1="2064" y1="1282" x2="2352" y2="1282" stroke="#1e293b" stroke-width="1"/><text x="2208" y="1273" text-anchor="middle" font-family="monospace" font-size="13" font-weight="600" fill="#0f172a">language service::SemanticTokens</text><text class="uml-member" x="2074" y="1298" font-family="monospace" font-size="11" fill="#334155">+data: Vec&lt;SemanticToken&gt;</text><rect x="1272" y="1252" width="288" height="78" rx="4" ry="4" fill="#ffffff" stroke="#1e293b" stroke-width="1.5"/><rect x="1272" y="1252" width="288" height="30" rx="4" ry="4" fill="#dbeafe" stroke="#1e293b" stroke-width="1.5"/><line x1="1272" y1="1282" x2="1560" y2="1282" stroke="#1e293b" stroke-width="1"/><text x="1416" y="1273" text-anchor="middle" font-family="monospace" font-size="13" font-weight="600" fill="#0f172a">language service::FormatResult</text><text class="uml-member" x="1282" y="1298" font-family="monospace" font-size="11" fill="#334155">+text: String</text><text class="uml-member" x="1282" y="1314" font-family="monospace" font-size="11" fill="#334155">+changed: bool</text><rect x="84" y="748" width="288" height="94" rx="4" ry="4" fill="#ffffff" stroke="#1e293b" stroke-width="1.5"/><rect x="84" y="748" width="288" height="30" rx="4" ry="4" fill="#dbeafe" stroke="#1e293b" stroke-width="1.5"/><line x1="84" y1="778" x2="372" y2="778" stroke="#1e293b" stroke-width="1"/><text x="228" y="769" text-anchor="middle" font-family="monospace" font-size="13" font-weight="600" fill="#0f172a">diagnostics::Diagnostic</text><text class="uml-member" x="94" y="794" font-family="monospace" font-size="11" fill="#334155">+message: String</text><text class="uml-member" x="94" y="810" font-family="monospace" font-size="11" fill="#334155">+span: Option&lt;Span&gt;</text><text class="uml-member" x="94" y="826" font-family="monospace" font-size="11" fill="#334155">+severity: Severity</text><rect x="876" y="1048" width="288" height="92" rx="4" ry="4" fill="#ffffff" stroke="#1e293b" stroke-width="1.5"/><rect x="876" y="1048" width="288" height="44" rx="4" ry="4" fill="#ffffcc" stroke="#1e293b" stroke-width="1.5"/><line x1="876" y1="1092" x2="1164" y2="1092" stroke="#1e293b" stroke-width="1"/><text x="1020" y="1061" text-anchor="middle" font-family="monospace" font-size="10" fill="#0f172a">«enumeration»</text><text x="1020" y="1083" text-anchor="middle" font-family="monospace" font-size="13" font-weight="600" fill="#0f172a">diagnostics::Severity</text><text class="uml-member" x="886" y="1108" font-family="monospace" font-size="11" fill="#334155">Error</text><text class="uml-member" x="886" y="1124" font-family="monospace" font-size="11" fill="#334155">Warning</text><rect x="1074" y="400" width="288" height="142" rx="4" ry="4" fill="#ffffff" stroke="#1e293b" stroke-width="1.5"/><rect x="1074" y="400" width="288" height="30" rx="4" ry="4" fill="#dbeafe" stroke="#1e293b" stroke-width="1.5"/><line x1="1074" y1="430" x2="1362" y2="430" stroke="#1e293b" stroke-width="1"/><text x="1218" y="421" text-anchor="middle" font-family="monospace" font-size="13" font-weight="600" fill="#0f172a">transports::LspAdapter</text><text class="uml-member" x="1084" y="446" font-family="monospace" font-size="11" fill="#334155">+initialize()</text><text class="uml-member" x="1084" y="462" font-family="monospace" font-size="11" fill="#334155">+hover(pos): Hover</text><text class="uml-member" x="1084" y="478" font-family="monospace" font-size="11" fill="#334155">+completion(pos): CompletionList</text><text class="uml-member" x="1084" y="494" font-family="monospace" font-size="11" fill="#334155">+semantic_tokens(): SemanticTokens</text><text class="uml-member" x="1084" y="510" font-family="monospace" font-size="11" fill="#334155">+format(): FormatResult</text><text class="uml-member" x="1084" y="526" font-family="monospace" font-size="11" fill="#334155">+diagnostics(): Vec&lt;Diagnostic&gt;</text><rect x="1470" y="84" width="288" height="110" rx="4" ry="4" fill="#ffffff" stroke="#1e293b" stroke-width="1.5"/><rect x="1470" y="84" width="288" height="30" rx="4" ry="4" fill="#dbeafe" stroke="#1e293b" stroke-width="1.5"/><line x1="1470" y1="114" x2="1758" y2="114" stroke="#1e293b" stroke-width="1"/><text x="1614" y="105" text-anchor="middle" font-family="monospace" font-size="13" font-weight="600" fill="#0f172a">transports::WasmAdapter</text><text class="uml-member" x="1480" y="130" font-family="monospace" font-size="11" fill="#334155">+render(src): String</text><text class="uml-member" x="1480" y="146" font-family="monospace" font-size="11" fill="#334155">+hover(pos): Hover</text><text class="uml-member" x="1480" y="162" font-family="monospace" font-size="11" fill="#334155">+completion(pos): CompletionList</text><text class="uml-member" x="1480" y="178" font-family="monospace" font-size="11" fill="#334155">+diagnostics(): Vec&lt;Diagnostic&gt;</text><rect x="1074" y="84" width="288" height="94" rx="4" ry="4" fill="#ffffff" stroke="#1e293b" stroke-width="1.5"/><rect x="1074" y="84" width="288" height="30" rx="4" ry="4" fill="#dbeafe" stroke="#1e293b" stroke-width="1.5"/><line x1="1074" y1="114" x2="1362" y2="114" stroke="#1e293b" stroke-width="1"/><text x="1218" y="105" text-anchor="middle" font-family="monospace" font-size="13" font-weight="600" fill="#0f172a">transports::CliAdapter</text><text class="uml-member" x="1084" y="130" font-family="monospace" font-size="11" fill="#334155">+render(path, fmt): Vec&lt;u8&gt;</text><text class="uml-member" x="1084" y="146" font-family="monospace" font-size="11" fill="#334155">+check(path): Vec&lt;Diagnostic&gt;</text><text class="uml-member" x="1084" y="162" font-family="monospace" font-size="11" fill="#334155">+format(path): FormatResult</text><rect x="678" y="84" width="288" height="78" rx="4" ry="4" fill="#ffffff" stroke="#1e293b" stroke-width="1.5"/><rect x="678" y="84" width="288" height="30" rx="4" ry="4" fill="#dbeafe" stroke="#1e293b" stroke-width="1.5"/><line x1="678" y1="114" x2="966" y2="114" stroke="#1e293b" stroke-width="1"/><text x="822" y="105" text-anchor="middle" font-family="monospace" font-size="13" font-weight="600" fill="#0f172a">transports::VsCodeExtension</text><text class="uml-member" x="688" y="130" font-family="monospace" font-size="11" fill="#334155">+activate()</text><text class="uml-member" x="688" y="146" font-family="monospace" font-size="11" fill="#334155">+deactivate()</text></svg>