<svg xmlns="http://www.w3.org/2000/svg" width="1120" height="748" viewBox="0 0 1120 748"><rect width="100%" height="100%" fill="#ffffff"/><defs><marker id="arrow-open" viewBox="0 0 10 10" refX="9" refY="5" markerWidth="10" markerHeight="10" markerUnits="userSpaceOnUse" orient="auto-start-reverse"><path d="M0,0 L10,5 L0,10" fill="none" stroke="#1e293b" stroke-width="1.5"/></marker><marker id="arrow-triangle" viewBox="0 0 16 16" refX="15" refY="8" markerWidth="16" markerHeight="16" markerUnits="userSpaceOnUse" orient="auto-start-reverse"><polygon points="0,1 14,8 0,15" fill="#ffffff" stroke="#1e293b" stroke-width="1.5" fill-rule="nonzero"/></marker><marker id="arrow-diamond-filled" viewBox="0 0 14 10" refX="13" refY="5" markerWidth="14" markerHeight="10" markerUnits="userSpaceOnUse" orient="auto-start-reverse"><path d="M0,5 L7,0 L14,5 L7,10 z" fill="#1e293b" stroke="#1e293b" stroke-width="1"/></marker><marker id="arrow-diamond-open" viewBox="0 0 14 10" refX="13" refY="5" markerWidth="14" markerHeight="10" markerUnits="userSpaceOnUse" orient="auto-start-reverse"><path d="M0,5 L7,0 L14,5 L7,10 z" fill="#ffffff" stroke="#1e293b" stroke-width="1"/></marker></defs><line class="uml-relation" data-uml-from="language service::CompletionList" data-uml-to="language service::CompletionItem" x1="416" y1="99" x2="320" y2="115" stroke="#1e293b" stroke-width="2" marker-start="url(#arrow-diamond-filled)"/><line class="uml-relation" data-uml-from="diagnostics::Diagnostic" data-uml-to="diagnostics::Severity" x1="320" y1="439" x2="416" y2="438" stroke="#1e293b" stroke-width="2" marker-end="url(#arrow-open)"/><rect class="uml-group-frame" data-uml-group="diagnostics" x="16" y="348" width="704" height="154" rx="6" ry="6" fill="none" stroke="#6366f1" stroke-width="1.5" stroke-dasharray="5 3"/><text x="24" y="362" font-family="monospace" font-size="11" font-weight="600" fill="#4338ca">package diagnostics</text><rect class="uml-group-frame" data-uml-group="language service" x="16" y="16" width="1088" height="328" rx="6" ry="6" fill="none" stroke="#6366f1" stroke-width="1.5" stroke-dasharray="5 3"/><text x="24" y="30" font-family="monospace" font-size="11" font-weight="600" fill="#4338ca">package language service</text><rect class="uml-group-frame" data-uml-group="transports" x="16" y="348" width="1088" height="376" rx="6" ry="6" fill="none" stroke="#6366f1" stroke-width="1.5" stroke-dasharray="5 3"/><text x="24" y="362" font-family="monospace" font-size="11" font-weight="600" fill="#4338ca">package transports</text><rect x="32" y="60" width="288" height="110" rx="4" ry="4" fill="#ffffff" stroke="#1e293b" stroke-width="1.5"/><rect x="32" y="60" width="288" height="30" rx="4" ry="4" fill="#dbeafe" stroke="#1e293b" stroke-width="1.5"/><line x1="32" y1="90" x2="320" y2="90" stroke="#1e293b" stroke-width="1"/><text x="176" y="81" text-anchor="middle" font-family="monospace" font-size="13" font-weight="600" fill="#0f172a">language service::CompletionItem</text><text class="uml-member" data-uml-visibility="public" x="42" y="106" font-family="monospace" font-size="11" fill="#16a34a">+label: String</text><text class="uml-member" data-uml-visibility="public" x="42" y="122" font-family="monospace" font-size="11" fill="#16a34a">+kind: CompletionItemKind</text><text class="uml-member" data-uml-visibility="public" x="42" y="138" font-family="monospace" font-size="11" fill="#16a34a">+detail: String</text><text class="uml-member" data-uml-visibility="public" x="42" y="154" font-family="monospace" font-size="11" fill="#16a34a">+documentation: String</text><rect x="416" y="60" width="288" height="78" rx="4" ry="4" fill="#ffffff" stroke="#1e293b" stroke-width="1.5"/><rect x="416" y="60" width="288" height="30" rx="4" ry="4" fill="#dbeafe" stroke="#1e293b" stroke-width="1.5"/><line x1="416" y1="90" x2="704" y2="90" stroke="#1e293b" stroke-width="1"/><text x="560" y="81" text-anchor="middle" font-family="monospace" font-size="13" font-weight="600" fill="#0f172a">language service::CompletionList</text><text class="uml-member" data-uml-visibility="public" x="426" y="106" font-family="monospace" font-size="11" fill="#16a34a">+is_incomplete: bool</text><text class="uml-member" data-uml-visibility="public" x="426" y="122" font-family="monospace" font-size="11" fill="#16a34a">+items: Vec&lt;CompletionItem&gt;</text><rect x="800" y="60" width="288" height="62" rx="4" ry="4" fill="#ffffff" stroke="#1e293b" stroke-width="1.5"/><rect x="800" y="60" width="288" height="30" rx="4" ry="4" fill="#dbeafe" stroke="#1e293b" stroke-width="1.5"/><line x1="800" y1="90" x2="1088" y2="90" stroke="#1e293b" stroke-width="1"/><text x="944" y="81" text-anchor="middle" font-family="monospace" font-size="13" font-weight="600" fill="#0f172a">language service::Hover</text><text class="uml-member" data-uml-visibility="public" x="810" y="106" font-family="monospace" font-size="11" fill="#16a34a">+markdown: String</text><rect x="32" y="234" width="288" height="94" rx="4" ry="4" fill="#ffffff" stroke="#1e293b" stroke-width="1.5"/><rect x="32" y="234" width="288" height="30" rx="4" ry="4" fill="#dbeafe" stroke="#1e293b" stroke-width="1.5"/><line x1="32" y1="264" x2="320" y2="264" stroke="#1e293b" stroke-width="1"/><text x="176" y="255" text-anchor="middle" font-family="monospace" font-size="13" font-weight="600" fill="#0f172a">language service::DocumentSymbol</text><text class="uml-member" data-uml-visibility="public" x="42" y="280" font-family="monospace" font-size="11" fill="#16a34a">+name: String</text><text class="uml-member" data-uml-visibility="public" x="42" y="296" font-family="monospace" font-size="11" fill="#16a34a">+kind: DocumentSymbolKind</text><text class="uml-member" data-uml-visibility="public" x="42" y="312" font-family="monospace" font-size="11" fill="#16a34a">+span: Span</text><rect x="416" y="234" width="288" height="62" rx="4" ry="4" fill="#ffffff" stroke="#1e293b" stroke-width="1.5"/><rect x="416" y="234" width="288" height="30" rx="4" ry="4" fill="#dbeafe" stroke="#1e293b" stroke-width="1.5"/><line x1="416" y1="264" x2="704" y2="264" stroke="#1e293b" stroke-width="1"/><text x="560" y="255" text-anchor="middle" font-family="monospace" font-size="13" font-weight="600" fill="#0f172a">language service::SemanticTokens</text><text class="uml-member" data-uml-visibility="public" x="426" y="280" font-family="monospace" font-size="11" fill="#16a34a">+data: Vec&lt;SemanticToken&gt;</text><rect x="800" y="234" width="288" height="78" rx="4" ry="4" fill="#ffffff" stroke="#1e293b" stroke-width="1.5"/><rect x="800" y="234" width="288" height="30" rx="4" ry="4" fill="#dbeafe" stroke="#1e293b" stroke-width="1.5"/><line x1="800" y1="264" x2="1088" y2="264" stroke="#1e293b" stroke-width="1"/><text x="944" y="255" text-anchor="middle" font-family="monospace" font-size="13" font-weight="600" fill="#0f172a">language service::FormatResult</text><text class="uml-member" data-uml-visibility="public" x="810" y="280" font-family="monospace" font-size="11" fill="#16a34a">+text: String</text><text class="uml-member" data-uml-visibility="public" x="810" y="296" font-family="monospace" font-size="11" fill="#16a34a">+changed: bool</text><rect x="32" y="392" width="288" height="94" rx="4" ry="4" fill="#ffffff" stroke="#1e293b" stroke-width="1.5"/><rect x="32" y="392" width="288" height="30" rx="4" ry="4" fill="#dbeafe" stroke="#1e293b" stroke-width="1.5"/><line x1="32" y1="422" x2="320" y2="422" stroke="#1e293b" stroke-width="1"/><text x="176" y="413" text-anchor="middle" font-family="monospace" font-size="13" font-weight="600" fill="#0f172a">diagnostics::Diagnostic</text><text class="uml-member" data-uml-visibility="public" x="42" y="438" font-family="monospace" font-size="11" fill="#16a34a">+message: String</text><text class="uml-member" data-uml-visibility="public" x="42" y="454" font-family="monospace" font-size="11" fill="#16a34a">+span: Option&lt;Span&gt;</text><text class="uml-member" data-uml-visibility="public" x="42" y="470" font-family="monospace" font-size="11" fill="#16a34a">+severity: Severity</text><rect x="416" y="392" width="288" height="92" rx="4" ry="4" fill="#ffffff" stroke="#1e293b" stroke-width="1.5"/><rect x="416" y="392" width="288" height="44" rx="4" ry="4" fill="#dbeafe" stroke="#1e293b" stroke-width="1.5"/><line x1="416" y1="436" x2="704" y2="436" stroke="#1e293b" stroke-width="1"/><text x="560" y="405" text-anchor="middle" font-family="monospace" font-size="10" fill="#0f172a">«enumeration»</text><text x="560" y="427" text-anchor="middle" font-family="monospace" font-size="13" font-weight="600" fill="#0f172a">diagnostics::Severity</text><text class="uml-member" x="426" y="452" font-family="monospace" font-size="11" fill="#334155">Error</text><text class="uml-member" x="426" y="468" font-family="monospace" font-size="11" fill="#334155">Warning</text><rect x="800" y="392" width="288" height="142" rx="4" ry="4" fill="#ffffff" stroke="#1e293b" stroke-width="1.5"/><rect x="800" y="392" width="288" height="30" rx="4" ry="4" fill="#dbeafe" stroke="#1e293b" stroke-width="1.5"/><line x1="800" y1="422" x2="1088" y2="422" stroke="#1e293b" stroke-width="1"/><text x="944" y="413" text-anchor="middle" font-family="monospace" font-size="13" font-weight="600" fill="#0f172a">transports::LspAdapter</text><text class="uml-member" data-uml-visibility="public" x="810" y="438" font-family="monospace" font-size="11" fill="#16a34a">+initialize()</text><text class="uml-member" data-uml-visibility="public" x="810" y="454" font-family="monospace" font-size="11" fill="#16a34a">+hover(pos): Hover</text><text class="uml-member" data-uml-visibility="public" x="810" y="470" font-family="monospace" font-size="11" fill="#16a34a">+completion(pos): CompletionList</text><text class="uml-member" data-uml-visibility="public" x="810" y="486" font-family="monospace" font-size="11" fill="#16a34a">+semantic_tokens(): SemanticTokens</text><text class="uml-member" data-uml-visibility="public" x="810" y="502" font-family="monospace" font-size="11" fill="#16a34a">+format(): FormatResult</text><text class="uml-member" data-uml-visibility="public" x="810" y="518" font-family="monospace" font-size="11" fill="#16a34a">+diagnostics(): Vec&lt;Diagnostic&gt;</text><rect x="32" y="598" width="288" height="110" rx="4" ry="4" fill="#ffffff" stroke="#1e293b" stroke-width="1.5"/><rect x="32" y="598" width="288" height="30" rx="4" ry="4" fill="#dbeafe" stroke="#1e293b" stroke-width="1.5"/><line x1="32" y1="628" x2="320" y2="628" stroke="#1e293b" stroke-width="1"/><text x="176" y="619" text-anchor="middle" font-family="monospace" font-size="13" font-weight="600" fill="#0f172a">transports::WasmAdapter</text><text class="uml-member" data-uml-visibility="public" x="42" y="644" font-family="monospace" font-size="11" fill="#16a34a">+render(src): String</text><text class="uml-member" data-uml-visibility="public" x="42" y="660" font-family="monospace" font-size="11" fill="#16a34a">+hover(pos): Hover</text><text class="uml-member" data-uml-visibility="public" x="42" y="676" font-family="monospace" font-size="11" fill="#16a34a">+completion(pos): CompletionList</text><text class="uml-member" data-uml-visibility="public" x="42" y="692" font-family="monospace" font-size="11" fill="#16a34a">+diagnostics(): Vec&lt;Diagnostic&gt;</text><rect x="416" y="598" width="288" height="94" rx="4" ry="4" fill="#ffffff" stroke="#1e293b" stroke-width="1.5"/><rect x="416" y="598" width="288" height="30" rx="4" ry="4" fill="#dbeafe" stroke="#1e293b" stroke-width="1.5"/><line x1="416" y1="628" x2="704" y2="628" stroke="#1e293b" stroke-width="1"/><text x="560" y="619" text-anchor="middle" font-family="monospace" font-size="13" font-weight="600" fill="#0f172a">transports::CliAdapter</text><text class="uml-member" data-uml-visibility="public" x="426" y="644" font-family="monospace" font-size="11" fill="#16a34a">+render(path, fmt): Vec&lt;u8&gt;</text><text class="uml-member" data-uml-visibility="public" x="426" y="660" font-family="monospace" font-size="11" fill="#16a34a">+check(path): Vec&lt;Diagnostic&gt;</text><text class="uml-member" data-uml-visibility="public" x="426" y="676" font-family="monospace" font-size="11" fill="#16a34a">+format(path): FormatResult</text><rect x="800" y="598" width="288" height="78" rx="4" ry="4" fill="#ffffff" stroke="#1e293b" stroke-width="1.5"/><rect x="800" y="598" width="288" height="30" rx="4" ry="4" fill="#dbeafe" stroke="#1e293b" stroke-width="1.5"/><line x1="800" y1="628" x2="1088" y2="628" stroke="#1e293b" stroke-width="1"/><text x="944" y="619" text-anchor="middle" font-family="monospace" font-size="13" font-weight="600" fill="#0f172a">transports::VsCodeExtension</text><text class="uml-member" data-uml-visibility="public" x="810" y="644" font-family="monospace" font-size="11" fill="#16a34a">+activate()</text><text class="uml-member" data-uml-visibility="public" x="810" y="660" font-family="monospace" font-size="11" fill="#16a34a">+deactivate()</text></svg>