<svg xmlns="http://www.w3.org/2000/svg" width="2448" height="1068" viewBox="0 0 2448 1068" data-orientation="TopToBottom"><rect width="100%" height="100%" fill="#ffffff"/><defs><marker id="arrow-open" viewBox="0 0 10 10" refX="9" refY="5" markerWidth="10" markerHeight="10" markerUnits="userSpaceOnUse" orient="auto-start-reverse"><path d="M0,0 L10,5 L0,10" fill="none" stroke="#1e293b" stroke-width="1.5"/></marker><marker id="arrow-triangle" viewBox="0 0 16 16" refX="15" refY="8" markerWidth="16" markerHeight="16" markerUnits="userSpaceOnUse" orient="auto-start-reverse"><polygon points="0,1 14,8 0,15" fill="#ffffff" stroke="#1e293b" stroke-width="1.5" fill-rule="nonzero"/></marker><marker id="arrow-diamond-filled" viewBox="0 0 14 10" refX="13" refY="5" markerWidth="14" markerHeight="10" markerUnits="userSpaceOnUse" orient="auto-start-reverse"><path d="M0,5 L7,0 L14,5 L7,10 z" fill="#1e293b" stroke="#1e293b" stroke-width="1"/></marker><marker id="arrow-diamond-open" viewBox="0 0 14 10" refX="13" refY="5" markerWidth="14" markerHeight="10" markerUnits="userSpaceOnUse" orient="auto-start-reverse"><path d="M0,5 L7,0 L14,5 L7,10 z" fill="#ffffff" stroke="#1e293b" stroke-width="1"/></marker></defs><defs><marker id="arrow-triangle-filled" viewBox="0 0 12 12" refX="11" refY="6" markerWidth="12" markerHeight="12" markerUnits="userSpaceOnUse" orient="auto-start-reverse"><polygon points="0,0 12,6 0,12" fill="#1e293b" stroke="#1e293b" stroke-width="1.5"/></marker><marker id="arrow-box-filled" viewBox="0 0 12 12" refX="11" refY="6" markerWidth="12" markerHeight="12" markerUnits="userSpaceOnUse" orient="auto-start-reverse"><rect x="2" y="2" width="8" height="8" fill="#1e293b" stroke="#1e293b" stroke-width="1.5"/></marker><marker id="arrow-plus" viewBox="0 0 12 12" refX="11" refY="6" markerWidth="12" markerHeight="12" markerUnits="userSpaceOnUse" orient="auto-start-reverse"><path d="M6,1 L6,11 M1,6 L11,6" fill="none" stroke="#1e293b" stroke-width="1.8" stroke-linecap="round"/></marker><marker id="arrow-cross" viewBox="0 0 12 12" refX="11" refY="6" markerWidth="12" markerHeight="12" markerUnits="userSpaceOnUse" orient="auto-start-reverse"><path d="M2,2 L10,10 M10,2 L2,10" fill="none" stroke="#1e293b" stroke-width="1.8" stroke-linecap="round"/></marker><marker id="arrow-bracket-open" viewBox="0 0 12 14" refX="11" refY="7" markerWidth="12" markerHeight="14" markerUnits="userSpaceOnUse" orient="auto-start-reverse"><path d="M10,1 L4,1 L4,13 L10,13" fill="none" stroke="#1e293b" stroke-width="1.8" stroke-linecap="round" stroke-linejoin="round"/></marker><marker id="arrow-circle-open" viewBox="0 0 12 12" refX="11" refY="6" markerWidth="12" markerHeight="12" markerUnits="userSpaceOnUse" orient="auto-start-reverse"><circle cx="6" cy="6" r="4" fill="#ffffff" stroke="#1e293b" stroke-width="1.5"/></marker><marker id="arrow-circle-filled" viewBox="0 0 12 12" refX="11" refY="6" markerWidth="12" markerHeight="12" markerUnits="userSpaceOnUse" orient="auto-start-reverse"><circle cx="6" cy="6" r="4" fill="#1e293b" stroke="#1e293b" stroke-width="1.5"/></marker><marker id="arrow-double-open" viewBox="0 0 16 12" refX="15" refY="6" markerWidth="16" markerHeight="12" markerUnits="userSpaceOnUse" orient="auto-start-reverse"><path d="M0,1 L8,6 L0,11 M7,1 L15,6 L7,11" fill="none" stroke="#1e293b" stroke-width="1.5" stroke-linejoin="round"/></marker></defs><polyline class="uml-relation" data-uml-from="language service::CompletionList" data-uml-to="language service::CompletionItem" data-uml-arrow="*--" points="768,845 624,845 1416,985 1272,985" fill="none" stroke="#1e293b" stroke-width="2" marker-start="url(#arrow-diamond-filled)" /><polyline class="uml-relation" data-uml-from="diagnostics::Diagnostic" data-uml-to="diagnostics::Severity" data-uml-arrow="--&gt;" points="372,525 228,525 1020,648 876,648" fill="none" stroke="#1e293b" stroke-width="2" marker-end="url(#arrow-open)" /><polyline class="uml-relation" data-uml-from="LspAdapter" data-uml-to="CompletionList" data-uml-arrow="--&gt;" points="1074,295 1218,295 1196,474 1196,802 624,845 768,845" fill="none" stroke="#1e293b" stroke-width="2" marker-end="url(#arrow-open)" /><text class="uml-edge-label" data-uml-label-role="edge" x="731" y="790" text-anchor="middle" font-family="monospace" font-size="11" fill="#334155">returns</text><polyline class="uml-relation" data-uml-from="LspAdapter" data-uml-to="Hover" data-uml-arrow="--&gt;" points="1362,295 1218,295 1812,837 1668,837" fill="none" stroke="#1e293b" stroke-width="2" marker-end="url(#arrow-open)" /><rect class="uml-edge-label-bg" data-uml-label-role="edge-background" x="1660" y="449" width="52" height="18" fill="white" opacity="0.85"/><text class="uml-edge-label" data-uml-label-role="edge" x="1686" y="462" text-anchor="middle" font-family="monospace" font-size="11" fill="#334155">returns</text><polyline class="uml-relation" data-uml-from="LspAdapter" data-uml-to="SemanticTokens" data-uml-arrow="--&gt;" points="1362,295 1218,295 2208,837 2064,837" fill="none" stroke="#1e293b" stroke-width="2" marker-end="url(#arrow-open)" /><rect class="uml-edge-label-bg" data-uml-label-role="edge-background" x="1687" y="527" width="52" height="18" fill="white" opacity="0.85"/><text class="uml-edge-label" data-uml-label-role="edge" x="1713" y="540" text-anchor="middle" font-family="monospace" font-size="11" fill="#334155">returns</text><polyline class="uml-relation" data-uml-from="LspAdapter" data-uml-to="FormatResult" data-uml-arrow="--&gt;" points="1218,366 1218,474 1416,474 1416,806" fill="none" stroke="#1e293b" stroke-width="2" marker-end="url(#arrow-open)" /><rect class="uml-edge-label-bg" data-uml-label-role="edge-background" x="1544" y="462" width="52" height="18" fill="white" opacity="0.85"/><text class="uml-edge-label" data-uml-label-role="edge" x="1570" y="475" text-anchor="middle" font-family="monospace" font-size="11" fill="#334155">returns</text><polyline class="uml-relation" data-uml-from="LspAdapter" data-uml-to="Diagnostic" data-uml-arrow="--&gt;" points="1074,295 1218,295 228,525 372,525" fill="none" stroke="#1e293b" stroke-width="2" marker-end="url(#arrow-open)" /><rect class="uml-edge-label-bg" data-uml-label-role="edge-background" x="707" y="455" width="38" height="18" fill="white" opacity="0.85"/><text class="uml-edge-label" data-uml-label-role="edge" x="726" y="462" text-anchor="middle" font-family="monospace" font-size="11" fill="#334155">emits</text><polyline class="uml-relation" data-uml-from="WasmAdapter" data-uml-to="CompletionList" data-uml-arrow="--&gt;" points="1470,139 1614,139 52,213 52,734 624,845 768,845" fill="none" stroke="#1e293b" stroke-width="2" marker-end="url(#arrow-open)" /><rect class="uml-edge-label-bg" data-uml-label-role="edge-background" x="639" y="188" width="52" height="18" fill="white" opacity="0.85"/><text class="uml-edge-label" data-uml-label-role="edge" x="665" y="201" text-anchor="middle" font-family="monospace" font-size="11" fill="#334155">returns</text><polyline class="uml-relation" data-uml-from="WasmAdapter" data-uml-to="Hover" data-uml-arrow="--&gt;" points="1614,194 1614,220 1812,220 1812,806" fill="none" stroke="#1e293b" stroke-width="2" marker-end="url(#arrow-open)" /><rect class="uml-edge-label-bg" data-uml-label-role="edge-background" x="1726" y="376" width="52" height="18" fill="white" opacity="0.85"/><text class="uml-edge-label" data-uml-label-role="edge" x="1752" y="389" text-anchor="middle" font-family="monospace" font-size="11" fill="#334155">returns</text><polyline class="uml-relation" data-uml-from="WasmAdapter" data-uml-to="Diagnostic" data-uml-arrow="--&gt;" points="1470,139 1614,139 228,525 372,525" fill="none" stroke="#1e293b" stroke-width="2" marker-end="url(#arrow-open)" /><rect class="uml-edge-label-bg" data-uml-label-role="edge-background" x="767" y="195" width="38" height="18" fill="white" opacity="0.85"/><text class="uml-edge-label" data-uml-label-role="edge" x="786" y="208" text-anchor="middle" font-family="monospace" font-size="11" fill="#334155">emits</text><polyline class="uml-relation" data-uml-from="CliAdapter" data-uml-to="FormatResult" data-uml-arrow="--&gt;" points="1218,178 1218,198 1790,198 1790,713 1416,713 1416,806" fill="none" stroke="#1e293b" stroke-width="2" marker-end="url(#arrow-open)" /><rect class="uml-edge-label-bg" data-uml-label-role="edge-background" x="1610" y="368" width="52" height="18" fill="white" opacity="0.85"/><text class="uml-edge-label" data-uml-label-role="edge" x="1636" y="381" text-anchor="middle" font-family="monospace" font-size="11" fill="#334155">returns</text><polyline class="uml-relation" data-uml-from="CliAdapter" data-uml-to="Diagnostic" data-uml-arrow="--&gt;" points="1074,131 1218,131 228,525 372,525" fill="none" stroke="#1e293b" stroke-width="2" marker-end="url(#arrow-open)" /><rect class="uml-edge-label-bg" data-uml-label-role="edge-background" x="647" y="180" width="38" height="18" fill="white" opacity="0.85"/><text class="uml-edge-label" data-uml-label-role="edge" x="666" y="193" text-anchor="middle" font-family="monospace" font-size="11" fill="#334155">emits</text><polyline class="uml-relation" data-uml-from="VsCodeExtension" data-uml-to="LspAdapter" data-uml-arrow="--&gt;" points="966,123 822,123 1218,295 1074,295" fill="none" stroke="#1e293b" stroke-width="2" marker-end="url(#arrow-open)" /><rect class="uml-edge-label-bg" data-uml-label-role="edge-background" x="976" y="184" width="88" height="18" fill="white" opacity="0.85"/><text class="uml-edge-label" data-uml-label-role="edge" x="1020" y="197" text-anchor="middle" font-family="monospace" font-size="11" fill="#334155">delegates to</text><rect class="uml-group-frame" data-uml-group="diagnostics" x="64" y="406" width="1120" height="308" rx="6" ry="6" fill="none" stroke="#6366f1" stroke-width="1.5" stroke-dasharray="5 3"/><rect x="64" y="406" width="168" height="24" rx="6" ry="6" fill="#ffffff" stroke="#6366f1" stroke-width="1.5"/><rect x="64" y="422" width="168" height="8" fill="#ffffff" stroke="none"/><text x="72" y="422" font-family="monospace" font-size="11" font-weight="600" fill="#4338ca">package diagnostics</text><line x1="64" y1="430" x2="1184" y2="430" stroke="#6366f1" stroke-width="1"/><rect class="uml-group-frame" data-uml-group="language service" x="460" y="734" width="1912" height="326" rx="6" ry="6" fill="none" stroke="#6366f1" stroke-width="1.5" stroke-dasharray="5 3"/><rect x="460" y="734" width="208" height="24" rx="6" ry="6" fill="#ffffff" stroke="#6366f1" stroke-width="1.5"/><rect x="460" y="750" width="208" height="8" fill="#ffffff" stroke="none"/><text x="468" y="750" font-family="monospace" font-size="11" font-weight="600" fill="#4338ca">package language service</text><line x1="460" y1="758" x2="2372" y2="758" stroke="#6366f1" stroke-width="1"/><rect class="uml-group-frame" data-uml-group="transports" x="658" y="12" width="1120" height="374" rx="6" ry="6" fill="none" stroke="#6366f1" stroke-width="1.5" stroke-dasharray="5 3"/><rect x="658" y="12" width="160" height="24" rx="6" ry="6" fill="#ffffff" stroke="#6366f1" stroke-width="1.5"/><rect x="658" y="28" width="160" height="8" fill="#ffffff" stroke="none"/><text x="666" y="28" font-family="monospace" font-size="11" font-weight="600" fill="#4338ca">package transports</text><line x1="658" y1="36" x2="1778" y2="36" stroke="#6366f1" stroke-width="1"/><rect class="uml-node uml-class" data-uml-id="language service::CompletionItem" x="1272" y="930" width="288" height="110" rx="4" ry="4" fill="#ffffff" stroke="#1e293b" stroke-width="1.5"/><rect x="1272" y="930" width="288" height="30" rx="4" ry="4" fill="#dbeafe" stroke="#1e293b" stroke-width="1.5"/><line x1="1272" y1="960" x2="1560" y2="960" stroke="#1e293b" stroke-width="1"/><circle class="uml-class-badge" cx="1284" cy="947" r="8" fill="#A2D5A2" stroke="#2E7D32" stroke-width="1"/><text class="uml-class-badge-letter" x="1284" y="950" text-anchor="middle" font-family="monospace" font-size="9" font-weight="700" fill="#2E7D32">C</text><text x="1416" y="951" text-anchor="middle" font-family="monospace" font-size="13" font-weight="600" fill="#0f172a">language service::CompletionItem</text><text class="uml-member" x="1296" y="976" font-family="monospace" font-size="11" fill="#334155">+label: String</text><text class="uml-member" x="1296" y="992" font-family="monospace" font-size="11" fill="#334155">+kind: CompletionItemKind</text><text class="uml-member" x="1296" y="1008" font-family="monospace" font-size="11" fill="#334155">+detail: String</text><text class="uml-member" x="1296" y="1024" font-family="monospace" font-size="11" fill="#334155">+documentation: String</text><rect class="uml-node uml-class" data-uml-id="language service::CompletionList" x="480" y="806" width="288" height="78" rx="4" ry="4" fill="#ffffff" stroke="#1e293b" stroke-width="1.5"/><rect x="480" y="806" width="288" height="30" rx="4" ry="4" fill="#dbeafe" stroke="#1e293b" stroke-width="1.5"/><line x1="480" y1="836" x2="768" y2="836" stroke="#1e293b" stroke-width="1"/><circle class="uml-class-badge" cx="492" cy="823" r="8" fill="#A2D5A2" stroke="#2E7D32" stroke-width="1"/><text class="uml-class-badge-letter" x="492" y="826" text-anchor="middle" font-family="monospace" font-size="9" font-weight="700" fill="#2E7D32">C</text><text x="624" y="827" text-anchor="middle" font-family="monospace" font-size="13" font-weight="600" fill="#0f172a">language service::CompletionList</text><text class="uml-member" x="504" y="852" font-family="monospace" font-size="11" fill="#334155">+is_incomplete: bool</text><text class="uml-member" x="504" y="868" font-family="monospace" font-size="11" fill="#334155">+items: Vec&lt;CompletionItem&gt;</text><rect class="uml-node uml-class" data-uml-id="language service::Hover" x="1668" y="806" width="288" height="62" rx="4" ry="4" fill="#ffffff" stroke="#1e293b" stroke-width="1.5"/><rect x="1668" y="806" width="288" height="30" rx="4" ry="4" fill="#dbeafe" stroke="#1e293b" stroke-width="1.5"/><line x1="1668" y1="836" x2="1956" y2="836" stroke="#1e293b" stroke-width="1"/><circle class="uml-class-badge" cx="1680" cy="823" r="8" fill="#A2D5A2" stroke="#2E7D32" stroke-width="1"/><text class="uml-class-badge-letter" x="1680" y="826" text-anchor="middle" font-family="monospace" font-size="9" font-weight="700" fill="#2E7D32">C</text><text x="1812" y="827" text-anchor="middle" font-family="monospace" font-size="13" font-weight="600" fill="#0f172a">language service::Hover</text><text class="uml-member" x="1692" y="852" font-family="monospace" font-size="11" fill="#334155">+markdown: String</text><rect class="uml-node uml-class" data-uml-id="language service::DocumentSymbol" x="876" y="806" width="288" height="94" rx="4" ry="4" fill="#ffffff" stroke="#1e293b" stroke-width="1.5"/><rect x="876" y="806" width="288" height="30" rx="4" ry="4" fill="#dbeafe" stroke="#1e293b" stroke-width="1.5"/><line x1="876" y1="836" x2="1164" y2="836" stroke="#1e293b" stroke-width="1"/><circle class="uml-class-badge" cx="888" cy="823" r="8" fill="#A2D5A2" stroke="#2E7D32" stroke-width="1"/><text class="uml-class-badge-letter" x="888" y="826" text-anchor="middle" font-family="monospace" font-size="9" font-weight="700" fill="#2E7D32">C</text><text x="1020" y="827" text-anchor="middle" font-family="monospace" font-size="13" font-weight="600" fill="#0f172a">language service::DocumentSymbol</text><text class="uml-member" x="900" y="852" font-family="monospace" font-size="11" fill="#334155">+name: String</text><text class="uml-member" x="900" y="868" font-family="monospace" font-size="11" fill="#334155">+kind: DocumentSymbolKind</text><text class="uml-member" x="900" y="884" font-family="monospace" font-size="11" fill="#334155">+span: Span</text><rect class="uml-node uml-class" data-uml-id="language service::SemanticTokens" x="2064" y="806" width="288" height="62" rx="4" ry="4" fill="#ffffff" stroke="#1e293b" stroke-width="1.5"/><rect x="2064" y="806" width="288" height="30" rx="4" ry="4" fill="#dbeafe" stroke="#1e293b" stroke-width="1.5"/><line x1="2064" y1="836" x2="2352" y2="836" stroke="#1e293b" stroke-width="1"/><circle class="uml-class-badge" cx="2076" cy="823" r="8" fill="#A2D5A2" stroke="#2E7D32" stroke-width="1"/><text class="uml-class-badge-letter" x="2076" y="826" text-anchor="middle" font-family="monospace" font-size="9" font-weight="700" fill="#2E7D32">C</text><text x="2208" y="827" text-anchor="middle" font-family="monospace" font-size="13" font-weight="600" fill="#0f172a">language service::SemanticTokens</text><text class="uml-member" x="2088" y="852" font-family="monospace" font-size="11" fill="#334155">+data: Vec&lt;SemanticToken&gt;</text><rect class="uml-node uml-class" data-uml-id="language service::FormatResult" x="1272" y="806" width="288" height="78" rx="4" ry="4" fill="#ffffff" stroke="#1e293b" stroke-width="1.5"/><rect x="1272" y="806" width="288" height="30" rx="4" ry="4" fill="#dbeafe" stroke="#1e293b" stroke-width="1.5"/><line x1="1272" y1="836" x2="1560" y2="836" stroke="#1e293b" stroke-width="1"/><circle class="uml-class-badge" cx="1284" cy="823" r="8" fill="#A2D5A2" stroke="#2E7D32" stroke-width="1"/><text class="uml-class-badge-letter" x="1284" y="826" text-anchor="middle" font-family="monospace" font-size="9" font-weight="700" fill="#2E7D32">C</text><text x="1416" y="827" text-anchor="middle" font-family="monospace" font-size="13" font-weight="600" fill="#0f172a">language service::FormatResult</text><text class="uml-member" x="1296" y="852" font-family="monospace" font-size="11" fill="#334155">+text: String</text><text class="uml-member" x="1296" y="868" font-family="monospace" font-size="11" fill="#334155">+changed: bool</text><rect class="uml-node uml-class" data-uml-id="diagnostics::Diagnostic" x="84" y="478" width="288" height="94" rx="4" ry="4" fill="#ffffff" stroke="#1e293b" stroke-width="1.5"/><rect x="84" y="478" width="288" height="30" rx="4" ry="4" fill="#dbeafe" stroke="#1e293b" stroke-width="1.5"/><line x1="84" y1="508" x2="372" y2="508" stroke="#1e293b" stroke-width="1"/><circle class="uml-class-badge" cx="96" cy="495" r="8" fill="#A2D5A2" stroke="#2E7D32" stroke-width="1"/><text class="uml-class-badge-letter" x="96" y="498" text-anchor="middle" font-family="monospace" font-size="9" font-weight="700" fill="#2E7D32">C</text><text x="228" y="499" text-anchor="middle" font-family="monospace" font-size="13" font-weight="600" fill="#0f172a">diagnostics::Diagnostic</text><text class="uml-member" x="108" y="524" font-family="monospace" font-size="11" fill="#334155">+message: String</text><text class="uml-member" x="108" y="540" font-family="monospace" font-size="11" fill="#334155">+span: Option&lt;Span&gt;</text><text class="uml-member" x="108" y="556" font-family="monospace" font-size="11" fill="#334155">+severity: Severity</text><rect class="uml-node uml-class" data-uml-id="diagnostics::Severity" x="876" y="602" width="288" height="92" rx="4" ry="4" fill="#ffffff" stroke="#1e293b" stroke-width="1.5"/><rect x="876" y="602" width="288" height="44" rx="4" ry="4" fill="#ffffcc" stroke="#1e293b" stroke-width="1.5"/><line x1="876" y1="646" x2="1164" y2="646" stroke="#1e293b" stroke-width="1"/><text x="1020" y="615" text-anchor="middle" font-family="monospace" font-size="10" fill="#0f172a">«enumeration»</text><circle class="uml-class-badge" cx="888" cy="633" r="8" fill="#FFF176" stroke="#F9A825" stroke-width="1"/><text class="uml-class-badge-letter" x="888" y="636" text-anchor="middle" font-family="monospace" font-size="9" font-weight="700" fill="#F9A825">E</text><text x="1020" y="637" text-anchor="middle" font-family="monospace" font-size="13" font-weight="600" fill="#0f172a">diagnostics::Severity</text><text class="uml-member" x="886" y="662" font-family="monospace" font-size="11" fill="#334155">Error</text><text class="uml-member" x="886" y="678" font-family="monospace" font-size="11" fill="#334155">Warning</text><rect class="uml-node uml-class" data-uml-id="transports::LspAdapter" x="1074" y="224" width="288" height="142" rx="4" ry="4" fill="#ffffff" stroke="#1e293b" stroke-width="1.5"/><rect x="1074" y="224" width="288" height="30" rx="4" ry="4" fill="#dbeafe" stroke="#1e293b" stroke-width="1.5"/><line x1="1074" y1="254" x2="1362" y2="254" stroke="#1e293b" stroke-width="1"/><circle class="uml-class-badge" cx="1086" cy="241" r="8" fill="#A2D5A2" stroke="#2E7D32" stroke-width="1"/><text class="uml-class-badge-letter" x="1086" y="244" text-anchor="middle" font-family="monospace" font-size="9" font-weight="700" fill="#2E7D32">C</text><text x="1218" y="245" text-anchor="middle" font-family="monospace" font-size="13" font-weight="600" fill="#0f172a">transports::LspAdapter</text><text class="uml-member" x="1098" y="270" font-family="monospace" font-size="11" fill="#334155">+initialize()</text><text class="uml-member" x="1098" y="286" font-family="monospace" font-size="11" fill="#334155">+hover(pos): Hover</text><text class="uml-member" x="1098" y="302" font-family="monospace" font-size="11" fill="#334155">+completion(pos): CompletionList</text><text class="uml-member" x="1098" y="318" font-family="monospace" font-size="11" fill="#334155">+semantic_tokens(): SemanticTokens</text><text class="uml-member" x="1098" y="334" font-family="monospace" font-size="11" fill="#334155">+format(): FormatResult</text><text class="uml-member" x="1098" y="350" font-family="monospace" font-size="11" fill="#334155">+diagnostics(): Vec&lt;Diagnostic&gt;</text><rect class="uml-node uml-class" data-uml-id="transports::WasmAdapter" x="1470" y="84" width="288" height="110" rx="4" ry="4" fill="#ffffff" stroke="#1e293b" stroke-width="1.5"/><rect x="1470" y="84" width="288" height="30" rx="4" ry="4" fill="#dbeafe" stroke="#1e293b" stroke-width="1.5"/><line x1="1470" y1="114" x2="1758" y2="114" stroke="#1e293b" stroke-width="1"/><circle class="uml-class-badge" cx="1482" cy="101" r="8" fill="#A2D5A2" stroke="#2E7D32" stroke-width="1"/><text class="uml-class-badge-letter" x="1482" y="104" text-anchor="middle" font-family="monospace" font-size="9" font-weight="700" fill="#2E7D32">C</text><text x="1614" y="105" text-anchor="middle" font-family="monospace" font-size="13" font-weight="600" fill="#0f172a">transports::WasmAdapter</text><text class="uml-member" x="1494" y="130" font-family="monospace" font-size="11" fill="#334155">+render(src): String</text><text class="uml-member" x="1494" y="146" font-family="monospace" font-size="11" fill="#334155">+hover(pos): Hover</text><text class="uml-member" x="1494" y="162" font-family="monospace" font-size="11" fill="#334155">+completion(pos): CompletionList</text><text class="uml-member" x="1494" y="178" font-family="monospace" font-size="11" fill="#334155">+diagnostics(): Vec&lt;Diagnostic&gt;</text><rect class="uml-node uml-class" data-uml-id="transports::CliAdapter" x="1074" y="84" width="288" height="94" rx="4" ry="4" fill="#ffffff" stroke="#1e293b" stroke-width="1.5"/><rect x="1074" y="84" width="288" height="30" rx="4" ry="4" fill="#dbeafe" stroke="#1e293b" stroke-width="1.5"/><line x1="1074" y1="114" x2="1362" y2="114" stroke="#1e293b" stroke-width="1"/><circle class="uml-class-badge" cx="1086" cy="101" r="8" fill="#A2D5A2" stroke="#2E7D32" stroke-width="1"/><text class="uml-class-badge-letter" x="1086" y="104" text-anchor="middle" font-family="monospace" font-size="9" font-weight="700" fill="#2E7D32">C</text><text x="1218" y="105" text-anchor="middle" font-family="monospace" font-size="13" font-weight="600" fill="#0f172a">transports::CliAdapter</text><text class="uml-member" x="1098" y="130" font-family="monospace" font-size="11" fill="#334155">+render(path, fmt): Vec&lt;u8&gt;</text><text class="uml-member" x="1098" y="146" font-family="monospace" font-size="11" fill="#334155">+check(path): Vec&lt;Diagnostic&gt;</text><text class="uml-member" x="1098" y="162" font-family="monospace" font-size="11" fill="#334155">+format(path): FormatResult</text><rect class="uml-node uml-class" data-uml-id="transports::VsCodeExtension" x="678" y="84" width="288" height="78" rx="4" ry="4" fill="#ffffff" stroke="#1e293b" stroke-width="1.5"/><rect x="678" y="84" width="288" height="30" rx="4" ry="4" fill="#dbeafe" stroke="#1e293b" stroke-width="1.5"/><line x1="678" y1="114" x2="966" y2="114" stroke="#1e293b" stroke-width="1"/><circle class="uml-class-badge" cx="690" cy="101" r="8" fill="#A2D5A2" stroke="#2E7D32" stroke-width="1"/><text class="uml-class-badge-letter" x="690" y="104" text-anchor="middle" font-family="monospace" font-size="9" font-weight="700" fill="#2E7D32">C</text><text x="822" y="105" text-anchor="middle" font-family="monospace" font-size="13" font-weight="600" fill="#0f172a">transports::VsCodeExtension</text><text class="uml-member" x="702" y="130" font-family="monospace" font-size="11" fill="#334155">+activate()</text><text class="uml-member" x="702" y="146" font-family="monospace" font-size="11" fill="#334155">+deactivate()</text></svg>