<svg xmlns="http://www.w3.org/2000/svg" width="1912" height="1234" viewBox="0 0 1912 1234"><rect width="100%" height="100%" fill="#ffffff"/><defs><marker id="arrow-open" viewBox="0 0 10 10" refX="9" refY="5" markerWidth="10" markerHeight="10" markerUnits="userSpaceOnUse" orient="auto-start-reverse"><path d="M0,0 L10,5 L0,10" fill="none" stroke="#1e293b" stroke-width="1.5"/></marker><marker id="arrow-triangle" viewBox="0 0 16 16" refX="15" refY="8" markerWidth="16" markerHeight="16" markerUnits="userSpaceOnUse" orient="auto-start-reverse"><polygon points="0,1 14,8 0,15" fill="#ffffff" stroke="#1e293b" stroke-width="1.5" fill-rule="nonzero"/></marker><marker id="arrow-diamond-filled" viewBox="0 0 14 10" refX="13" refY="5" markerWidth="14" markerHeight="10" markerUnits="userSpaceOnUse" orient="auto-start-reverse"><path d="M0,5 L7,0 L14,5 L7,10 z" fill="#1e293b" stroke="#1e293b" stroke-width="1"/></marker><marker id="arrow-diamond-open" viewBox="0 0 14 10" refX="13" refY="5" markerWidth="14" markerHeight="10" markerUnits="userSpaceOnUse" orient="auto-start-reverse"><path d="M0,5 L7,0 L14,5 L7,10 z" fill="#ffffff" stroke="#1e293b" stroke-width="1"/></marker></defs><polyline class="uml-relation" data-uml-from="language service::CompletionList" data-uml-to="language service::CompletionItem" data-uml-arrow="*--" points="572,802 572,925 1124,925 1124,1024" fill="none" stroke="#1e293b" stroke-width="2" marker-start="url(#arrow-diamond-filled)" /><polyline class="uml-relation" data-uml-from="diagnostics::Diagnostic" data-uml-to="diagnostics::Severity" data-uml-arrow="--&gt;" points="204,818 204,917 756,917 756,1024" fill="none" stroke="#1e293b" stroke-width="2" marker-end="url(#arrow-open)" /><polyline class="uml-relation" data-uml-from="LspAdapter" data-uml-to="CompletionList" data-uml-arrow="--&gt;" points="940,518 940,629 572,629 572,724" fill="none" stroke="#1e293b" stroke-width="2" marker-end="url(#arrow-open)" /><text x="756" y="617" text-anchor="middle" font-family="monospace" font-size="11" fill="#334155">returns</text><polyline class="uml-relation" data-uml-from="LspAdapter" data-uml-to="Hover" data-uml-arrow="--&gt;" points="940,518 940,637 1308,637 1308,724" fill="none" stroke="#1e293b" stroke-width="2" marker-end="url(#arrow-open)" /><text x="1124" y="625" text-anchor="middle" font-family="monospace" font-size="11" fill="#334155">returns</text><polyline class="uml-relation" data-uml-from="LspAdapter" data-uml-to="SemanticTokens" data-uml-arrow="--&gt;" points="940,518 940,645 1676,645 1676,724" fill="none" stroke="#1e293b" stroke-width="2" marker-end="url(#arrow-open)" /><text x="1308" y="633" text-anchor="middle" font-family="monospace" font-size="11" fill="#334155">returns</text><polyline class="uml-relation" data-uml-from="LspAdapter" data-uml-to="FormatResult" data-uml-arrow="--&gt;" points="940,518 940,653 940,724" fill="none" stroke="#1e293b" stroke-width="2" marker-end="url(#arrow-open)" /><text x="940" y="573" text-anchor="middle" font-family="monospace" font-size="11" fill="#334155">returns</text><polyline class="uml-relation" data-uml-from="LspAdapter" data-uml-to="Diagnostic" data-uml-arrow="--&gt;" points="940,518 940,661 204,661 204,724" fill="none" stroke="#1e293b" stroke-width="2" marker-end="url(#arrow-open)" /><text x="572" y="649" text-anchor="middle" font-family="monospace" font-size="11" fill="#334155">emits</text><polyline class="uml-relation" data-uml-from="WasmAdapter" data-uml-to="CompletionList" data-uml-arrow="--&gt;" points="1492,170 1492,277 1032,277 1032,605 572,605 572,724" fill="none" stroke="#1e293b" stroke-width="2" marker-end="url(#arrow-open)" /><text x="802" y="593" text-anchor="middle" font-family="monospace" font-size="11" fill="#334155">returns</text><polyline class="uml-relation" data-uml-from="WasmAdapter" data-uml-to="Hover" data-uml-arrow="--&gt;" points="1492,170 1492,285 1400,285 1400,613 1308,613 1308,724" fill="none" stroke="#1e293b" stroke-width="2" marker-end="url(#arrow-open)" /><text x="1354" y="601" text-anchor="middle" font-family="monospace" font-size="11" fill="#334155">returns</text><polyline class="uml-relation" data-uml-from="WasmAdapter" data-uml-to="Diagnostic" data-uml-arrow="--&gt;" points="1492,170 1492,293 848,293 848,621 204,621 204,724" fill="none" stroke="#1e293b" stroke-width="2" marker-end="url(#arrow-open)" /><text x="526" y="609" text-anchor="middle" font-family="monospace" font-size="11" fill="#334155">emits</text><polyline class="uml-relation" data-uml-from="CliAdapter" data-uml-to="FormatResult" data-uml-arrow="--&gt;" points="1124,154 1124,261 1032,261 1032,589 940,589 940,724" fill="none" stroke="#1e293b" stroke-width="2" marker-end="url(#arrow-open)" /><text x="986" y="577" text-anchor="middle" font-family="monospace" font-size="11" fill="#334155">returns</text><polyline class="uml-relation" data-uml-from="CliAdapter" data-uml-to="Diagnostic" data-uml-arrow="--&gt;" points="1124,154 1124,269 664,269 664,597 204,597 204,724" fill="none" stroke="#1e293b" stroke-width="2" marker-end="url(#arrow-open)" /><text x="434" y="585" text-anchor="middle" font-family="monospace" font-size="11" fill="#334155">emits</text><polyline class="uml-relation" data-uml-from="VsCodeExtension" data-uml-to="LspAdapter" data-uml-arrow="--&gt;" points="388,138 388,253 940,253 940,376" fill="none" stroke="#1e293b" stroke-width="2" marker-end="url(#arrow-open)" /><text x="664" y="241" text-anchor="middle" font-family="monospace" font-size="11" fill="#334155">delegates to</text><rect class="uml-group-frame" data-uml-group="diagnostics" x="44" y="680" width="872" height="452" rx="6" ry="6" fill="none" stroke="#6366f1" stroke-width="1.5" stroke-dasharray="5 3"/><text x="52" y="694" font-family="monospace" font-size="11" font-weight="600" fill="#4338ca">package diagnostics</text><rect class="uml-group-frame" data-uml-group="language service" x="412" y="16" width="1424" height="1134" rx="6" ry="6" fill="none" stroke="#6366f1" stroke-width="1.5" stroke-dasharray="5 3"/><text x="420" y="30" font-family="monospace" font-size="11" font-weight="600" fill="#4338ca">package language service</text><rect class="uml-group-frame" data-uml-group="transports" x="228" y="16" width="1424" height="518" rx="6" ry="6" fill="none" stroke="#6366f1" stroke-width="1.5" stroke-dasharray="5 3"/><text x="236" y="30" font-family="monospace" font-size="11" font-weight="600" fill="#4338ca">package transports</text><rect x="980" y="1024" width="288" height="110" rx="4" ry="4" fill="#ffffff" stroke="#1e293b" stroke-width="1.5"/><rect x="980" y="1024" width="288" height="30" rx="4" ry="4" fill="#dbeafe" stroke="#1e293b" stroke-width="1.5"/><line x1="980" y1="1054" x2="1268" y2="1054" stroke="#1e293b" stroke-width="1"/><text x="1124" y="1045" text-anchor="middle" font-family="monospace" font-size="13" font-weight="600" fill="#0f172a">language service::CompletionItem</text><text class="uml-member" data-uml-visibility="public" x="990" y="1070" font-family="monospace" font-size="11" fill="#16a34a">+label: String</text><text class="uml-member" data-uml-visibility="public" x="990" y="1086" font-family="monospace" font-size="11" fill="#16a34a">+kind: CompletionItemKind</text><text class="uml-member" data-uml-visibility="public" x="990" y="1102" font-family="monospace" font-size="11" fill="#16a34a">+detail: String</text><text class="uml-member" data-uml-visibility="public" x="990" y="1118" font-family="monospace" font-size="11" fill="#16a34a">+documentation: String</text><rect x="428" y="724" width="288" height="78" rx="4" ry="4" fill="#ffffff" stroke="#1e293b" stroke-width="1.5"/><rect x="428" y="724" width="288" height="30" rx="4" ry="4" fill="#dbeafe" stroke="#1e293b" stroke-width="1.5"/><line x1="428" y1="754" x2="716" y2="754" stroke="#1e293b" stroke-width="1"/><text x="572" y="745" text-anchor="middle" font-family="monospace" font-size="13" font-weight="600" fill="#0f172a">language service::CompletionList</text><text class="uml-member" data-uml-visibility="public" x="438" y="770" font-family="monospace" font-size="11" fill="#16a34a">+is_incomplete: bool</text><text class="uml-member" data-uml-visibility="public" x="438" y="786" font-family="monospace" font-size="11" fill="#16a34a">+items: Vec&lt;CompletionItem&gt;</text><rect x="1164" y="724" width="288" height="62" rx="4" ry="4" fill="#ffffff" stroke="#1e293b" stroke-width="1.5"/><rect x="1164" y="724" width="288" height="30" rx="4" ry="4" fill="#dbeafe" stroke="#1e293b" stroke-width="1.5"/><line x1="1164" y1="754" x2="1452" y2="754" stroke="#1e293b" stroke-width="1"/><text x="1308" y="745" text-anchor="middle" font-family="monospace" font-size="13" font-weight="600" fill="#0f172a">language service::Hover</text><text class="uml-member" data-uml-visibility="public" x="1174" y="770" font-family="monospace" font-size="11" fill="#16a34a">+markdown: String</text><rect x="612" y="60" width="288" height="94" rx="4" ry="4" fill="#ffffff" stroke="#1e293b" stroke-width="1.5"/><rect x="612" y="60" width="288" height="30" rx="4" ry="4" fill="#dbeafe" stroke="#1e293b" stroke-width="1.5"/><line x1="612" y1="90" x2="900" y2="90" stroke="#1e293b" stroke-width="1"/><text x="756" y="81" text-anchor="middle" font-family="monospace" font-size="13" font-weight="600" fill="#0f172a">language service::DocumentSymbol</text><text class="uml-member" data-uml-visibility="public" x="622" y="106" font-family="monospace" font-size="11" fill="#16a34a">+name: String</text><text class="uml-member" data-uml-visibility="public" x="622" y="122" font-family="monospace" font-size="11" fill="#16a34a">+kind: DocumentSymbolKind</text><text class="uml-member" data-uml-visibility="public" x="622" y="138" font-family="monospace" font-size="11" fill="#16a34a">+span: Span</text><rect x="1532" y="724" width="288" height="62" rx="4" ry="4" fill="#ffffff" stroke="#1e293b" stroke-width="1.5"/><rect x="1532" y="724" width="288" height="30" rx="4" ry="4" fill="#dbeafe" stroke="#1e293b" stroke-width="1.5"/><line x1="1532" y1="754" x2="1820" y2="754" stroke="#1e293b" stroke-width="1"/><text x="1676" y="745" text-anchor="middle" font-family="monospace" font-size="13" font-weight="600" fill="#0f172a">language service::SemanticTokens</text><text class="uml-member" data-uml-visibility="public" x="1542" y="770" font-family="monospace" font-size="11" fill="#16a34a">+data: Vec&lt;SemanticToken&gt;</text><rect x="796" y="724" width="288" height="78" rx="4" ry="4" fill="#ffffff" stroke="#1e293b" stroke-width="1.5"/><rect x="796" y="724" width="288" height="30" rx="4" ry="4" fill="#dbeafe" stroke="#1e293b" stroke-width="1.5"/><line x1="796" y1="754" x2="1084" y2="754" stroke="#1e293b" stroke-width="1"/><text x="940" y="745" text-anchor="middle" font-family="monospace" font-size="13" font-weight="600" fill="#0f172a">language service::FormatResult</text><text class="uml-member" data-uml-visibility="public" x="806" y="770" font-family="monospace" font-size="11" fill="#16a34a">+text: String</text><text class="uml-member" data-uml-visibility="public" x="806" y="786" font-family="monospace" font-size="11" fill="#16a34a">+changed: bool</text><rect x="60" y="724" width="288" height="94" rx="4" ry="4" fill="#ffffff" stroke="#1e293b" stroke-width="1.5"/><rect x="60" y="724" width="288" height="30" rx="4" ry="4" fill="#dbeafe" stroke="#1e293b" stroke-width="1.5"/><line x1="60" y1="754" x2="348" y2="754" stroke="#1e293b" stroke-width="1"/><text x="204" y="745" text-anchor="middle" font-family="monospace" font-size="13" font-weight="600" fill="#0f172a">diagnostics::Diagnostic</text><text class="uml-member" data-uml-visibility="public" x="70" y="770" font-family="monospace" font-size="11" fill="#16a34a">+message: String</text><text class="uml-member" data-uml-visibility="public" x="70" y="786" font-family="monospace" font-size="11" fill="#16a34a">+span: Option&lt;Span&gt;</text><text class="uml-member" data-uml-visibility="public" x="70" y="802" font-family="monospace" font-size="11" fill="#16a34a">+severity: Severity</text><rect x="612" y="1024" width="288" height="92" rx="4" ry="4" fill="#ffffff" stroke="#1e293b" stroke-width="1.5"/><rect x="612" y="1024" width="288" height="44" rx="4" ry="4" fill="#dbeafe" stroke="#1e293b" stroke-width="1.5"/><line x1="612" y1="1068" x2="900" y2="1068" stroke="#1e293b" stroke-width="1"/><text x="756" y="1037" text-anchor="middle" font-family="monospace" font-size="10" fill="#0f172a">«enumeration»</text><text x="756" y="1059" text-anchor="middle" font-family="monospace" font-size="13" font-weight="600" fill="#0f172a">diagnostics::Severity</text><text class="uml-member" x="622" y="1084" font-family="monospace" font-size="11" fill="#334155">Error</text><text class="uml-member" x="622" y="1100" font-family="monospace" font-size="11" fill="#334155">Warning</text><rect x="796" y="376" width="288" height="142" rx="4" ry="4" fill="#ffffff" stroke="#1e293b" stroke-width="1.5"/><rect x="796" y="376" width="288" height="30" rx="4" ry="4" fill="#dbeafe" stroke="#1e293b" stroke-width="1.5"/><line x1="796" y1="406" x2="1084" y2="406" stroke="#1e293b" stroke-width="1"/><text x="940" y="397" text-anchor="middle" font-family="monospace" font-size="13" font-weight="600" fill="#0f172a">transports::LspAdapter</text><text class="uml-member" data-uml-visibility="public" x="806" y="422" font-family="monospace" font-size="11" fill="#16a34a">+initialize()</text><text class="uml-member" data-uml-visibility="public" x="806" y="438" font-family="monospace" font-size="11" fill="#16a34a">+hover(pos): Hover</text><text class="uml-member" data-uml-visibility="public" x="806" y="454" font-family="monospace" font-size="11" fill="#16a34a">+completion(pos): CompletionList</text><text class="uml-member" data-uml-visibility="public" x="806" y="470" font-family="monospace" font-size="11" fill="#16a34a">+semantic_tokens(): SemanticTokens</text><text class="uml-member" data-uml-visibility="public" x="806" y="486" font-family="monospace" font-size="11" fill="#16a34a">+format(): FormatResult</text><text class="uml-member" data-uml-visibility="public" x="806" y="502" font-family="monospace" font-size="11" fill="#16a34a">+diagnostics(): Vec&lt;Diagnostic&gt;</text><rect x="1348" y="60" width="288" height="110" rx="4" ry="4" fill="#ffffff" stroke="#1e293b" stroke-width="1.5"/><rect x="1348" y="60" width="288" height="30" rx="4" ry="4" fill="#dbeafe" stroke="#1e293b" stroke-width="1.5"/><line x1="1348" y1="90" x2="1636" y2="90" stroke="#1e293b" stroke-width="1"/><text x="1492" y="81" text-anchor="middle" font-family="monospace" font-size="13" font-weight="600" fill="#0f172a">transports::WasmAdapter</text><text class="uml-member" data-uml-visibility="public" x="1358" y="106" font-family="monospace" font-size="11" fill="#16a34a">+render(src): String</text><text class="uml-member" data-uml-visibility="public" x="1358" y="122" font-family="monospace" font-size="11" fill="#16a34a">+hover(pos): Hover</text><text class="uml-member" data-uml-visibility="public" x="1358" y="138" font-family="monospace" font-size="11" fill="#16a34a">+completion(pos): CompletionList</text><text class="uml-member" data-uml-visibility="public" x="1358" y="154" font-family="monospace" font-size="11" fill="#16a34a">+diagnostics(): Vec&lt;Diagnostic&gt;</text><rect x="980" y="60" width="288" height="94" rx="4" ry="4" fill="#ffffff" stroke="#1e293b" stroke-width="1.5"/><rect x="980" y="60" width="288" height="30" rx="4" ry="4" fill="#dbeafe" stroke="#1e293b" stroke-width="1.5"/><line x1="980" y1="90" x2="1268" y2="90" stroke="#1e293b" stroke-width="1"/><text x="1124" y="81" text-anchor="middle" font-family="monospace" font-size="13" font-weight="600" fill="#0f172a">transports::CliAdapter</text><text class="uml-member" data-uml-visibility="public" x="990" y="106" font-family="monospace" font-size="11" fill="#16a34a">+render(path, fmt): Vec&lt;u8&gt;</text><text class="uml-member" data-uml-visibility="public" x="990" y="122" font-family="monospace" font-size="11" fill="#16a34a">+check(path): Vec&lt;Diagnostic&gt;</text><text class="uml-member" data-uml-visibility="public" x="990" y="138" font-family="monospace" font-size="11" fill="#16a34a">+format(path): FormatResult</text><rect x="244" y="60" width="288" height="78" rx="4" ry="4" fill="#ffffff" stroke="#1e293b" stroke-width="1.5"/><rect x="244" y="60" width="288" height="30" rx="4" ry="4" fill="#dbeafe" stroke="#1e293b" stroke-width="1.5"/><line x1="244" y1="90" x2="532" y2="90" stroke="#1e293b" stroke-width="1"/><text x="388" y="81" text-anchor="middle" font-family="monospace" font-size="13" font-weight="600" fill="#0f172a">transports::VsCodeExtension</text><text class="uml-member" data-uml-visibility="public" x="254" y="106" font-family="monospace" font-size="11" fill="#16a34a">+activate()</text><text class="uml-member" data-uml-visibility="public" x="254" y="122" font-family="monospace" font-size="11" fill="#16a34a">+deactivate()</text></svg>