<svg xmlns="http://www.w3.org/2000/svg" width="2456" height="1130" viewBox="0 0 2456 1130" data-orientation="TopToBottom"><rect width="100%" height="100%" fill="#ffffff"/><defs><marker id="arrow-open" viewBox="0 0 10 10" refX="9" refY="5" markerWidth="10" markerHeight="10" markerUnits="userSpaceOnUse" orient="auto-start-reverse"><path d="M0,0 L10,5 L0,10" fill="none" stroke="#1e293b" stroke-width="1.5"/></marker><marker id="arrow-triangle" viewBox="0 0 16 16" refX="15" refY="8" markerWidth="16" markerHeight="16" markerUnits="userSpaceOnUse" orient="auto-start-reverse"><polygon points="0,1 14,8 0,15" fill="#ffffff" stroke="#1e293b" stroke-width="1.5" fill-rule="nonzero"/></marker><marker id="arrow-diamond-filled" viewBox="0 0 14 10" refX="13" refY="5" markerWidth="14" markerHeight="10" markerUnits="userSpaceOnUse" orient="auto-start-reverse"><path d="M0,5 L7,0 L14,5 L7,10 z" fill="#1e293b" stroke="#1e293b" stroke-width="1"/></marker><marker id="arrow-diamond-open" viewBox="0 0 14 10" refX="13" refY="5" markerWidth="14" markerHeight="10" markerUnits="userSpaceOnUse" orient="auto-start-reverse"><path d="M0,5 L7,0 L14,5 L7,10 z" fill="#ffffff" stroke="#1e293b" stroke-width="1"/></marker></defs><defs><marker id="arrow-triangle-filled" viewBox="0 0 12 12" refX="11" refY="6" markerWidth="12" markerHeight="12" markerUnits="userSpaceOnUse" orient="auto-start-reverse"><polygon points="0,0 12,6 0,12" fill="#1e293b" stroke="#1e293b" stroke-width="1.5"/></marker><marker id="arrow-box-filled" viewBox="0 0 12 12" refX="11" refY="6" markerWidth="12" markerHeight="12" markerUnits="userSpaceOnUse" orient="auto-start-reverse"><rect x="2" y="2" width="8" height="8" fill="#1e293b" stroke="#1e293b" stroke-width="1.5"/></marker><marker id="arrow-plus" viewBox="0 0 12 12" refX="11" refY="6" markerWidth="12" markerHeight="12" markerUnits="userSpaceOnUse" orient="auto-start-reverse"><path d="M6,1 L6,11 M1,6 L11,6" fill="none" stroke="#1e293b" stroke-width="1.8" stroke-linecap="round"/></marker><marker id="arrow-cross" viewBox="0 0 12 12" refX="11" refY="6" markerWidth="12" markerHeight="12" markerUnits="userSpaceOnUse" orient="auto-start-reverse"><path d="M2,2 L10,10 M10,2 L2,10" fill="none" stroke="#1e293b" stroke-width="1.8" stroke-linecap="round"/></marker><marker id="arrow-bracket-open" viewBox="0 0 12 14" refX="11" refY="7" markerWidth="12" markerHeight="14" markerUnits="userSpaceOnUse" orient="auto-start-reverse"><path d="M10,1 L4,1 L4,13 L10,13" fill="none" stroke="#1e293b" stroke-width="1.8" stroke-linecap="round" stroke-linejoin="round"/></marker><marker id="arrow-circle-open" viewBox="0 0 12 12" refX="11" refY="6" markerWidth="12" markerHeight="12" markerUnits="userSpaceOnUse" orient="auto-start-reverse"><circle cx="6" cy="6" r="4" fill="#ffffff" stroke="#1e293b" stroke-width="1.5"/></marker><marker id="arrow-circle-filled" viewBox="0 0 12 12" refX="11" refY="6" markerWidth="12" markerHeight="12" markerUnits="userSpaceOnUse" orient="auto-start-reverse"><circle cx="6" cy="6" r="4" fill="#1e293b" stroke="#1e293b" stroke-width="1.5"/></marker><marker id="arrow-double-open" viewBox="0 0 16 12" refX="15" refY="6" markerWidth="16" markerHeight="12" markerUnits="userSpaceOnUse" orient="auto-start-reverse"><path d="M0,1 L8,6 L0,11 M7,1 L15,6 L7,11" fill="none" stroke="#1e293b" stroke-width="1.5" stroke-linejoin="round"/></marker></defs><polyline class="uml-relation" data-uml-from="language service::CompletionList" data-uml-to="language service::CompletionItem" data-uml-arrow="*--" points="768,865 768,940 1272,940 1272,1015" fill="none" stroke="#1e293b" stroke-width="2" marker-start="url(#arrow-diamond-filled)" /><polyline class="uml-relation" data-uml-from="diagnostics::Diagnostic" data-uml-to="diagnostics::Severity" data-uml-arrow="--&gt;" points="372,535 372,618 876,618 876,668" fill="none" stroke="#1e293b" stroke-width="2" marker-end="url(#arrow-open)" /><polyline class="uml-relation" data-uml-from="LspAdapter" data-uml-to="CompletionList" data-uml-arrow="--&gt;" points="1074,305 1074,484 2384,484 2384,822 768,822 768,865" fill="none" stroke="#1e293b" stroke-width="2" marker-end="url(#arrow-open)" /><text class="uml-edge-label" data-uml-label-role="edge" x="2253" y="810" text-anchor="middle" font-family="monospace" font-size="11" fill="#334155">returns</text><polyline class="uml-relation" data-uml-from="LspAdapter" data-uml-to="Hover" data-uml-arrow="--&gt;" points="1362,305 1362,484 2384,484 2384,822 1668,822 1668,857" fill="none" stroke="#1e293b" stroke-width="2" marker-end="url(#arrow-open)" /><text class="uml-edge-label" data-uml-label-role="edge" x="2261" y="472" text-anchor="middle" font-family="monospace" font-size="11" fill="#334155">returns</text><polyline class="uml-relation" data-uml-from="LspAdapter" data-uml-to="SemanticTokens" data-uml-arrow="--&gt;" points="1362,305 1362,484 2384,484 2384,822 2064,822 2064,857" fill="none" stroke="#1e293b" stroke-width="2" marker-end="url(#arrow-open)" /><text class="uml-edge-label" data-uml-label-role="edge" x="1873" y="458" text-anchor="middle" font-family="monospace" font-size="11" fill="#334155">returns</text><polyline class="uml-relation" data-uml-from="LspAdapter" data-uml-to="FormatResult" data-uml-arrow="--&gt;" points="1218,376 1218,484 2384,484 2384,822 1416,822 1416,826" fill="none" stroke="#1e293b" stroke-width="2" marker-end="url(#arrow-open)" /><rect class="uml-edge-label-bg" data-uml-label-role="edge-background" x="2325" y="477" width="52" height="18" fill="white" opacity="0.85"/><rect class="uml-edge-label-bg" data-uml-label-role="edge-background" x="2325" y="477" width="52" height="18" fill="white" opacity="0.85"/><rect class="uml-edge-label-bg" data-uml-label-role="edge-background" x="2325" y="477" width="52" height="18" fill="white" opacity="0.85"/><rect class="uml-edge-label-bg" data-uml-label-role="edge-background" x="2325" y="477" width="52" height="18" fill="white" opacity="0.85"/><text class="uml-edge-label" data-uml-label-role="edge" x="2351" y="490" text-anchor="middle" font-family="monospace" font-size="11" fill="#334155">returns</text><polyline class="uml-relation" data-uml-from="LspAdapter" data-uml-to="Diagnostic" data-uml-arrow="--&gt;" points="1074,305 1074,484 372,484 372,535" fill="none" stroke="#1e293b" stroke-width="2" marker-end="url(#arrow-open)" /><text class="uml-edge-label" data-uml-label-role="edge" x="800" y="472" text-anchor="middle" font-family="monospace" font-size="11" fill="#334155">emits</text><polyline class="uml-relation" data-uml-from="WasmAdapter" data-uml-to="CompletionList" data-uml-arrow="--&gt;" points="1470,139 1470,218 2384,218 2384,754 768,754 768,865" fill="none" stroke="#1e293b" stroke-width="2" marker-end="url(#arrow-open)" /><rect class="uml-edge-label-bg" data-uml-label-role="edge-background" x="2161" y="729" width="52" height="18" fill="white" opacity="0.85"/><text class="uml-edge-label" data-uml-label-role="edge" x="2187" y="742" text-anchor="middle" font-family="monospace" font-size="11" fill="#334155">returns</text><polyline class="uml-relation" data-uml-from="WasmAdapter" data-uml-to="Hover" data-uml-arrow="--&gt;" points="1614,194 1614,226 2384,226 2384,764 1812,764 1812,826" fill="none" stroke="#1e293b" stroke-width="2" marker-end="url(#arrow-open)" /><text class="uml-edge-label" data-uml-label-role="edge" x="2327" y="399" text-anchor="middle" font-family="monospace" font-size="11" fill="#334155">returns</text><polyline class="uml-relation" data-uml-from="WasmAdapter" data-uml-to="Diagnostic" data-uml-arrow="--&gt;" points="1470,139 1470,230 1196,230 1196,432 372,432 372,535" fill="none" stroke="#1e293b" stroke-width="2" marker-end="url(#arrow-open)" /><text class="uml-edge-label" data-uml-label-role="edge" x="920" y="420" text-anchor="middle" font-family="monospace" font-size="11" fill="#334155">emits</text><polyline class="uml-relation" data-uml-from="CliAdapter" data-uml-to="FormatResult" data-uml-arrow="--&gt;" points="1218,178 1218,202 2384,202 2384,733 1416,733 1416,826" fill="none" stroke="#1e293b" stroke-width="2" marker-end="url(#arrow-open)" /><rect class="uml-edge-label-bg" data-uml-label-role="edge-background" x="2385" y="378" width="52" height="18" fill="white" opacity="0.85"/><rect class="uml-edge-label-bg" data-uml-label-role="edge-background" x="2385" y="378" width="52" height="18" fill="white" opacity="0.85"/><rect class="uml-edge-label-bg" data-uml-label-role="edge-background" x="2385" y="378" width="52" height="18" fill="white" opacity="0.85"/><text class="uml-edge-label" data-uml-label-role="edge" x="2411" y="391" text-anchor="middle" font-family="monospace" font-size="11" fill="#334155">returns</text><polyline class="uml-relation" data-uml-from="CliAdapter" data-uml-to="Diagnostic" data-uml-arrow="--&gt;" points="1074,131 1074,210 1196,210 1196,403 372,403 372,535" fill="none" stroke="#1e293b" stroke-width="2" marker-end="url(#arrow-open)" /><text class="uml-edge-label" data-uml-label-role="edge" x="860" y="391" text-anchor="middle" font-family="monospace" font-size="11" fill="#334155">emits</text><polyline class="uml-relation" data-uml-from="VsCodeExtension" data-uml-to="LspAdapter" data-uml-arrow="--&gt;" points="966,123 966,198 1074,198 1074,305" fill="none" stroke="#1e293b" stroke-width="2" marker-end="url(#arrow-open)" /><text class="uml-edge-label" data-uml-label-role="edge" x="1020" y="186" text-anchor="middle" font-family="monospace" font-size="11" fill="#334155">delegates to</text><rect class="uml-group-frame" data-uml-group="diagnostics" x="64" y="416" width="1120" height="318" rx="6" ry="6" fill="none" stroke="#6366f1" stroke-width="1.5" stroke-dasharray="5 3"/><rect x="64" y="416" width="168" height="24" rx="6" ry="6" fill="#ffffff" stroke="#6366f1" stroke-width="1.5"/><rect x="64" y="432" width="168" height="8" fill="#ffffff" stroke="none"/><text x="72" y="432" font-family="monospace" font-size="11" font-weight="600" fill="#4338ca">package diagnostics</text><line x1="64" y1="440" x2="1184" y2="440" stroke="#6366f1" stroke-width="1"/><rect class="uml-group-frame" data-uml-group="language service" x="460" y="754" width="1912" height="336" rx="6" ry="6" fill="none" stroke="#6366f1" stroke-width="1.5" stroke-dasharray="5 3"/><rect x="460" y="754" width="208" height="24" rx="6" ry="6" fill="#ffffff" stroke="#6366f1" stroke-width="1.5"/><rect x="460" y="770" width="208" height="8" fill="#ffffff" stroke="none"/><text x="468" y="770" font-family="monospace" font-size="11" font-weight="600" fill="#4338ca">package language service</text><line x1="460" y1="778" x2="2372" y2="778" stroke="#6366f1" stroke-width="1"/><rect class="uml-group-frame" data-uml-group="transports" x="658" y="12" width="1120" height="384" rx="6" ry="6" fill="none" stroke="#6366f1" stroke-width="1.5" stroke-dasharray="5 3"/><rect x="658" y="12" width="160" height="24" rx="6" ry="6" fill="#ffffff" stroke="#6366f1" stroke-width="1.5"/><rect x="658" y="28" width="160" height="8" fill="#ffffff" stroke="none"/><text x="666" y="28" font-family="monospace" font-size="11" font-weight="600" fill="#4338ca">package transports</text><line x1="658" y1="36" x2="1778" y2="36" stroke="#6366f1" stroke-width="1"/><rect class="uml-node uml-class" data-uml-id="language service::CompletionItem" x="1272" y="960" width="288" height="110" rx="4" ry="4" fill="#ffffff" stroke="#1e293b" stroke-width="1.5"/><rect x="1272" y="960" width="288" height="30" rx="4" ry="4" fill="#dbeafe" stroke="#1e293b" stroke-width="1.5"/><line x1="1272" y1="990" x2="1560" y2="990" stroke="#1e293b" stroke-width="1"/><circle class="uml-class-badge" cx="1284" cy="977" r="8" fill="#A2D5A2" stroke="#2E7D32" stroke-width="1"/><text class="uml-class-badge-letter" x="1284" y="980" text-anchor="middle" font-family="monospace" font-size="9" font-weight="700" fill="#2E7D32">C</text><text x="1416" y="981" text-anchor="middle" font-family="monospace" font-size="13" font-weight="600" fill="#0f172a">language service::CompletionItem</text><text class="uml-member" x="1296" y="1006" font-family="monospace" font-size="11" fill="#334155">+label: String</text><text class="uml-member" x="1296" y="1022" font-family="monospace" font-size="11" fill="#334155">+kind: CompletionItemKind</text><text class="uml-member" x="1296" y="1038" font-family="monospace" font-size="11" fill="#334155">+detail: String</text><text class="uml-member" x="1296" y="1054" font-family="monospace" font-size="11" fill="#334155">+documentation: String</text><rect class="uml-node uml-class" data-uml-id="language service::CompletionList" x="480" y="826" width="288" height="78" rx="4" ry="4" fill="#ffffff" stroke="#1e293b" stroke-width="1.5"/><rect x="480" y="826" width="288" height="30" rx="4" ry="4" fill="#dbeafe" stroke="#1e293b" stroke-width="1.5"/><line x1="480" y1="856" x2="768" y2="856" stroke="#1e293b" stroke-width="1"/><circle class="uml-class-badge" cx="492" cy="843" r="8" fill="#A2D5A2" stroke="#2E7D32" stroke-width="1"/><text class="uml-class-badge-letter" x="492" y="846" text-anchor="middle" font-family="monospace" font-size="9" font-weight="700" fill="#2E7D32">C</text><text x="624" y="847" text-anchor="middle" font-family="monospace" font-size="13" font-weight="600" fill="#0f172a">language service::CompletionList</text><text class="uml-member" x="504" y="872" font-family="monospace" font-size="11" fill="#334155">+is_incomplete: bool</text><text class="uml-member" x="504" y="888" font-family="monospace" font-size="11" fill="#334155">+items: Vec&lt;CompletionItem&gt;</text><rect class="uml-node uml-class" data-uml-id="language service::Hover" x="1668" y="826" width="288" height="62" rx="4" ry="4" fill="#ffffff" stroke="#1e293b" stroke-width="1.5"/><rect x="1668" y="826" width="288" height="30" rx="4" ry="4" fill="#dbeafe" stroke="#1e293b" stroke-width="1.5"/><line x1="1668" y1="856" x2="1956" y2="856" stroke="#1e293b" stroke-width="1"/><circle class="uml-class-badge" cx="1680" cy="843" r="8" fill="#A2D5A2" stroke="#2E7D32" stroke-width="1"/><text class="uml-class-badge-letter" x="1680" y="846" text-anchor="middle" font-family="monospace" font-size="9" font-weight="700" fill="#2E7D32">C</text><text x="1812" y="847" text-anchor="middle" font-family="monospace" font-size="13" font-weight="600" fill="#0f172a">language service::Hover</text><text class="uml-member" x="1692" y="872" font-family="monospace" font-size="11" fill="#334155">+markdown: String</text><rect class="uml-node uml-class" data-uml-id="language service::DocumentSymbol" x="876" y="826" width="288" height="94" rx="4" ry="4" fill="#ffffff" stroke="#1e293b" stroke-width="1.5"/><rect x="876" y="826" width="288" height="30" rx="4" ry="4" fill="#dbeafe" stroke="#1e293b" stroke-width="1.5"/><line x1="876" y1="856" x2="1164" y2="856" stroke="#1e293b" stroke-width="1"/><circle class="uml-class-badge" cx="888" cy="843" r="8" fill="#A2D5A2" stroke="#2E7D32" stroke-width="1"/><text class="uml-class-badge-letter" x="888" y="846" text-anchor="middle" font-family="monospace" font-size="9" font-weight="700" fill="#2E7D32">C</text><text x="1020" y="847" text-anchor="middle" font-family="monospace" font-size="13" font-weight="600" fill="#0f172a">language service::DocumentSymbol</text><text class="uml-member" x="900" y="872" font-family="monospace" font-size="11" fill="#334155">+name: String</text><text class="uml-member" x="900" y="888" font-family="monospace" font-size="11" fill="#334155">+kind: DocumentSymbolKind</text><text class="uml-member" x="900" y="904" font-family="monospace" font-size="11" fill="#334155">+span: Span</text><rect class="uml-node uml-class" data-uml-id="language service::SemanticTokens" x="2064" y="826" width="288" height="62" rx="4" ry="4" fill="#ffffff" stroke="#1e293b" stroke-width="1.5"/><rect x="2064" y="826" width="288" height="30" rx="4" ry="4" fill="#dbeafe" stroke="#1e293b" stroke-width="1.5"/><line x1="2064" y1="856" x2="2352" y2="856" stroke="#1e293b" stroke-width="1"/><circle class="uml-class-badge" cx="2076" cy="843" r="8" fill="#A2D5A2" stroke="#2E7D32" stroke-width="1"/><text class="uml-class-badge-letter" x="2076" y="846" text-anchor="middle" font-family="monospace" font-size="9" font-weight="700" fill="#2E7D32">C</text><text x="2208" y="847" text-anchor="middle" font-family="monospace" font-size="13" font-weight="600" fill="#0f172a">language service::SemanticTokens</text><text class="uml-member" x="2088" y="872" font-family="monospace" font-size="11" fill="#334155">+data: Vec&lt;SemanticToken&gt;</text><rect class="uml-node uml-class" data-uml-id="language service::FormatResult" x="1272" y="826" width="288" height="78" rx="4" ry="4" fill="#ffffff" stroke="#1e293b" stroke-width="1.5"/><rect x="1272" y="826" width="288" height="30" rx="4" ry="4" fill="#dbeafe" stroke="#1e293b" stroke-width="1.5"/><line x1="1272" y1="856" x2="1560" y2="856" stroke="#1e293b" stroke-width="1"/><circle class="uml-class-badge" cx="1284" cy="843" r="8" fill="#A2D5A2" stroke="#2E7D32" stroke-width="1"/><text class="uml-class-badge-letter" x="1284" y="846" text-anchor="middle" font-family="monospace" font-size="9" font-weight="700" fill="#2E7D32">C</text><text x="1416" y="847" text-anchor="middle" font-family="monospace" font-size="13" font-weight="600" fill="#0f172a">language service::FormatResult</text><text class="uml-member" x="1296" y="872" font-family="monospace" font-size="11" fill="#334155">+text: String</text><text class="uml-member" x="1296" y="888" font-family="monospace" font-size="11" fill="#334155">+changed: bool</text><rect class="uml-node uml-class" data-uml-id="diagnostics::Diagnostic" x="84" y="488" width="288" height="94" rx="4" ry="4" fill="#ffffff" stroke="#1e293b" stroke-width="1.5"/><rect x="84" y="488" width="288" height="30" rx="4" ry="4" fill="#dbeafe" stroke="#1e293b" stroke-width="1.5"/><line x1="84" y1="518" x2="372" y2="518" stroke="#1e293b" stroke-width="1"/><circle class="uml-class-badge" cx="96" cy="505" r="8" fill="#A2D5A2" stroke="#2E7D32" stroke-width="1"/><text class="uml-class-badge-letter" x="96" y="508" text-anchor="middle" font-family="monospace" font-size="9" font-weight="700" fill="#2E7D32">C</text><text x="228" y="509" text-anchor="middle" font-family="monospace" font-size="13" font-weight="600" fill="#0f172a">diagnostics::Diagnostic</text><text class="uml-member" x="108" y="534" font-family="monospace" font-size="11" fill="#334155">+message: String</text><text class="uml-member" x="108" y="550" font-family="monospace" font-size="11" fill="#334155">+span: Option&lt;Span&gt;</text><text class="uml-member" x="108" y="566" font-family="monospace" font-size="11" fill="#334155">+severity: Severity</text><rect class="uml-node uml-class" data-uml-id="diagnostics::Severity" x="876" y="622" width="288" height="92" rx="4" ry="4" fill="#ffffff" stroke="#1e293b" stroke-width="1.5"/><rect x="876" y="622" width="288" height="44" rx="4" ry="4" fill="#ffffcc" stroke="#1e293b" stroke-width="1.5"/><line x1="876" y1="666" x2="1164" y2="666" stroke="#1e293b" stroke-width="1"/><text x="1020" y="635" text-anchor="middle" font-family="monospace" font-size="10" fill="#0f172a">«enumeration»</text><circle class="uml-class-badge" cx="888" cy="653" r="8" fill="#FFF176" stroke="#F9A825" stroke-width="1"/><text class="uml-class-badge-letter" x="888" y="656" text-anchor="middle" font-family="monospace" font-size="9" font-weight="700" fill="#F9A825">E</text><text x="1020" y="657" text-anchor="middle" font-family="monospace" font-size="13" font-weight="600" fill="#0f172a">diagnostics::Severity</text><text class="uml-member" x="886" y="682" font-family="monospace" font-size="11" fill="#334155">Error</text><text class="uml-member" x="886" y="698" font-family="monospace" font-size="11" fill="#334155">Warning</text><rect class="uml-node uml-class" data-uml-id="transports::LspAdapter" x="1074" y="234" width="288" height="142" rx="4" ry="4" fill="#ffffff" stroke="#1e293b" stroke-width="1.5"/><rect x="1074" y="234" width="288" height="30" rx="4" ry="4" fill="#dbeafe" stroke="#1e293b" stroke-width="1.5"/><line x1="1074" y1="264" x2="1362" y2="264" stroke="#1e293b" stroke-width="1"/><circle class="uml-class-badge" cx="1086" cy="251" r="8" fill="#A2D5A2" stroke="#2E7D32" stroke-width="1"/><text class="uml-class-badge-letter" x="1086" y="254" text-anchor="middle" font-family="monospace" font-size="9" font-weight="700" fill="#2E7D32">C</text><text x="1218" y="255" text-anchor="middle" font-family="monospace" font-size="13" font-weight="600" fill="#0f172a">transports::LspAdapter</text><text class="uml-member" x="1098" y="280" font-family="monospace" font-size="11" fill="#334155">+initialize()</text><text class="uml-member" x="1098" y="296" font-family="monospace" font-size="11" fill="#334155">+hover(pos): Hover</text><text class="uml-member" x="1098" y="312" font-family="monospace" font-size="11" fill="#334155">+completion(pos): CompletionList</text><text class="uml-member" x="1098" y="328" font-family="monospace" font-size="11" fill="#334155">+semantic_tokens(): SemanticTokens</text><text class="uml-member" x="1098" y="344" font-family="monospace" font-size="11" fill="#334155">+format(): FormatResult</text><text class="uml-member" x="1098" y="360" font-family="monospace" font-size="11" fill="#334155">+diagnostics(): Vec&lt;Diagnostic&gt;</text><rect class="uml-node uml-class" data-uml-id="transports::WasmAdapter" x="1470" y="84" width="288" height="110" rx="4" ry="4" fill="#ffffff" stroke="#1e293b" stroke-width="1.5"/><rect x="1470" y="84" width="288" height="30" rx="4" ry="4" fill="#dbeafe" stroke="#1e293b" stroke-width="1.5"/><line x1="1470" y1="114" x2="1758" y2="114" stroke="#1e293b" stroke-width="1"/><circle class="uml-class-badge" cx="1482" cy="101" r="8" fill="#A2D5A2" stroke="#2E7D32" stroke-width="1"/><text class="uml-class-badge-letter" x="1482" y="104" text-anchor="middle" font-family="monospace" font-size="9" font-weight="700" fill="#2E7D32">C</text><text x="1614" y="105" text-anchor="middle" font-family="monospace" font-size="13" font-weight="600" fill="#0f172a">transports::WasmAdapter</text><text class="uml-member" x="1494" y="130" font-family="monospace" font-size="11" fill="#334155">+render(src): String</text><text class="uml-member" x="1494" y="146" font-family="monospace" font-size="11" fill="#334155">+hover(pos): Hover</text><text class="uml-member" x="1494" y="162" font-family="monospace" font-size="11" fill="#334155">+completion(pos): CompletionList</text><text class="uml-member" x="1494" y="178" font-family="monospace" font-size="11" fill="#334155">+diagnostics(): Vec&lt;Diagnostic&gt;</text><rect class="uml-node uml-class" data-uml-id="transports::CliAdapter" x="1074" y="84" width="288" height="94" rx="4" ry="4" fill="#ffffff" stroke="#1e293b" stroke-width="1.5"/><rect x="1074" y="84" width="288" height="30" rx="4" ry="4" fill="#dbeafe" stroke="#1e293b" stroke-width="1.5"/><line x1="1074" y1="114" x2="1362" y2="114" stroke="#1e293b" stroke-width="1"/><circle class="uml-class-badge" cx="1086" cy="101" r="8" fill="#A2D5A2" stroke="#2E7D32" stroke-width="1"/><text class="uml-class-badge-letter" x="1086" y="104" text-anchor="middle" font-family="monospace" font-size="9" font-weight="700" fill="#2E7D32">C</text><text x="1218" y="105" text-anchor="middle" font-family="monospace" font-size="13" font-weight="600" fill="#0f172a">transports::CliAdapter</text><text class="uml-member" x="1098" y="130" font-family="monospace" font-size="11" fill="#334155">+render(path, fmt): Vec&lt;u8&gt;</text><text class="uml-member" x="1098" y="146" font-family="monospace" font-size="11" fill="#334155">+check(path): Vec&lt;Diagnostic&gt;</text><text class="uml-member" x="1098" y="162" font-family="monospace" font-size="11" fill="#334155">+format(path): FormatResult</text><rect class="uml-node uml-class" data-uml-id="transports::VsCodeExtension" x="678" y="84" width="288" height="78" rx="4" ry="4" fill="#ffffff" stroke="#1e293b" stroke-width="1.5"/><rect x="678" y="84" width="288" height="30" rx="4" ry="4" fill="#dbeafe" stroke="#1e293b" stroke-width="1.5"/><line x1="678" y1="114" x2="966" y2="114" stroke="#1e293b" stroke-width="1"/><circle class="uml-class-badge" cx="690" cy="101" r="8" fill="#A2D5A2" stroke="#2E7D32" stroke-width="1"/><text class="uml-class-badge-letter" x="690" y="104" text-anchor="middle" font-family="monospace" font-size="9" font-weight="700" fill="#2E7D32">C</text><text x="822" y="105" text-anchor="middle" font-family="monospace" font-size="13" font-weight="600" fill="#0f172a">transports::VsCodeExtension</text><text class="uml-member" x="702" y="130" font-family="monospace" font-size="11" fill="#334155">+activate()</text><text class="uml-member" x="702" y="146" font-family="monospace" font-size="11" fill="#334155">+deactivate()</text></svg>