<svg xmlns="http://www.w3.org/2000/svg" width="1048" height="744" viewBox="0 0 1048 744"><rect width="100%" height="100%" fill="#ffffff"/><defs><marker id="arrow-open" viewBox="0 0 10 10" refX="9" refY="5" markerWidth="10" markerHeight="10" orient="auto-start-reverse"><path d="M0,0 L10,5 L0,10" fill="none" stroke="#1e293b" stroke-width="1.5"/></marker><marker id="arrow-triangle" viewBox="0 0 12 12" refX="11" refY="6" markerWidth="12" markerHeight="12" orient="auto-start-reverse"><polygon points="0,0 12,6 0,12" fill="white" stroke="#1e293b" stroke-width="1.5" fill-rule="nonzero"/></marker><marker id="arrow-diamond-filled" viewBox="0 0 14 10" refX="13" refY="5" markerWidth="14" markerHeight="10" orient="auto-start-reverse"><path d="M0,5 L7,0 L14,5 L7,10 z" fill="#1e293b" stroke="#1e293b" stroke-width="1"/></marker><marker id="arrow-diamond-open" viewBox="0 0 14 10" refX="13" refY="5" markerWidth="14" markerHeight="10" orient="auto-start-reverse"><path d="M0,5 L7,0 L14,5 L7,10 z" fill="white" stroke="#1e293b" stroke-width="1"/></marker></defs><line class="uml-relation" data-uml-from="language service::CompletionList" data-uml-to="language service::CompletionItem" x1="376" y1="101" x2="328" y2="105" stroke="#1e293b" stroke-width="2" marker-start="url(#arrow-diamond-filled)"/><line class="uml-relation" data-uml-from="diagnostics::Diagnostic" data-uml-to="diagnostics::Severity" x1="328" y1="435" x2="376" y2="434" stroke="#1e293b" stroke-width="2" marker-end="url(#arrow-open)"/><rect class="uml-group-frame" data-uml-group="diagnostics" x="20" y="356" width="664" height="138" rx="4" ry="4" fill="none" stroke="#6366f1" stroke-width="1.5" stroke-dasharray="5 3"/><text x="28" y="370" font-family="monospace" font-size="11" font-weight="600" fill="#4338ca">package diagnostics</text><rect class="uml-group-frame" data-uml-group="language service" x="20" y="24" width="1008" height="312" rx="4" ry="4" fill="none" stroke="#6366f1" stroke-width="1.5" stroke-dasharray="5 3"/><text x="28" y="38" font-family="monospace" font-size="11" font-weight="600" fill="#4338ca">package language service</text><rect class="uml-group-frame" data-uml-group="transports" x="20" y="356" width="1008" height="360" rx="4" ry="4" fill="none" stroke="#6366f1" stroke-width="1.5" stroke-dasharray="5 3"/><text x="28" y="370" font-family="monospace" font-size="11" font-weight="600" fill="#4338ca">package transports</text><rect x="32" y="56" width="296" height="110" rx="4" ry="4" fill="#ffffff" stroke="#1e293b" stroke-width="1.5"/><rect x="32" y="56" width="296" height="30" rx="4" ry="4" fill="#dbeafe" stroke="#1e293b" stroke-width="1.5"/><line x1="32" y1="86" x2="328" y2="86" stroke="#1e293b" stroke-width="1"/><text x="180" y="77" text-anchor="middle" font-family="monospace" font-size="13" font-weight="600" fill="#0f172a">language service::CompletionItem</text><text class="uml-member" data-uml-visibility="public" x="42" y="102" font-family="monospace" font-size="11" fill="#16a34a">+label: String</text><text class="uml-member" data-uml-visibility="public" x="42" y="118" font-family="monospace" font-size="11" fill="#16a34a">+kind: CompletionItemKind</text><text class="uml-member" data-uml-visibility="public" x="42" y="134" font-family="monospace" font-size="11" fill="#16a34a">+detail: String</text><text class="uml-member" data-uml-visibility="public" x="42" y="150" font-family="monospace" font-size="11" fill="#16a34a">+documentation: String</text><rect x="376" y="56" width="296" height="78" rx="4" ry="4" fill="#ffffff" stroke="#1e293b" stroke-width="1.5"/><rect x="376" y="56" width="296" height="30" rx="4" ry="4" fill="#dbeafe" stroke="#1e293b" stroke-width="1.5"/><line x1="376" y1="86" x2="672" y2="86" stroke="#1e293b" stroke-width="1"/><text x="524" y="77" text-anchor="middle" font-family="monospace" font-size="13" font-weight="600" fill="#0f172a">language service::CompletionList</text><text class="uml-member" data-uml-visibility="public" x="386" y="102" font-family="monospace" font-size="11" fill="#16a34a">+is_incomplete: bool</text><text class="uml-member" data-uml-visibility="public" x="386" y="118" font-family="monospace" font-size="11" fill="#16a34a">+items: Vec&lt;CompletionItem&gt;</text><rect x="720" y="56" width="296" height="62" rx="4" ry="4" fill="#ffffff" stroke="#1e293b" stroke-width="1.5"/><rect x="720" y="56" width="296" height="30" rx="4" ry="4" fill="#dbeafe" stroke="#1e293b" stroke-width="1.5"/><line x1="720" y1="86" x2="1016" y2="86" stroke="#1e293b" stroke-width="1"/><text x="868" y="77" text-anchor="middle" font-family="monospace" font-size="13" font-weight="600" fill="#0f172a">language service::Hover</text><text class="uml-member" data-uml-visibility="public" x="730" y="102" font-family="monospace" font-size="11" fill="#16a34a">+markdown: String</text><rect x="32" y="230" width="296" height="94" rx="4" ry="4" fill="#ffffff" stroke="#1e293b" stroke-width="1.5"/><rect x="32" y="230" width="296" height="30" rx="4" ry="4" fill="#dbeafe" stroke="#1e293b" stroke-width="1.5"/><line x1="32" y1="260" x2="328" y2="260" stroke="#1e293b" stroke-width="1"/><text x="180" y="251" text-anchor="middle" font-family="monospace" font-size="13" font-weight="600" fill="#0f172a">language service::DocumentSymbol</text><text class="uml-member" data-uml-visibility="public" x="42" y="276" font-family="monospace" font-size="11" fill="#16a34a">+name: String</text><text class="uml-member" data-uml-visibility="public" x="42" y="292" font-family="monospace" font-size="11" fill="#16a34a">+kind: DocumentSymbolKind</text><text class="uml-member" data-uml-visibility="public" x="42" y="308" font-family="monospace" font-size="11" fill="#16a34a">+span: Span</text><rect x="376" y="230" width="296" height="62" rx="4" ry="4" fill="#ffffff" stroke="#1e293b" stroke-width="1.5"/><rect x="376" y="230" width="296" height="30" rx="4" ry="4" fill="#dbeafe" stroke="#1e293b" stroke-width="1.5"/><line x1="376" y1="260" x2="672" y2="260" stroke="#1e293b" stroke-width="1"/><text x="524" y="251" text-anchor="middle" font-family="monospace" font-size="13" font-weight="600" fill="#0f172a">language service::SemanticTokens</text><text class="uml-member" data-uml-visibility="public" x="386" y="276" font-family="monospace" font-size="11" fill="#16a34a">+data: Vec&lt;SemanticToken&gt;</text><rect x="720" y="230" width="296" height="78" rx="4" ry="4" fill="#ffffff" stroke="#1e293b" stroke-width="1.5"/><rect x="720" y="230" width="296" height="30" rx="4" ry="4" fill="#dbeafe" stroke="#1e293b" stroke-width="1.5"/><line x1="720" y1="260" x2="1016" y2="260" stroke="#1e293b" stroke-width="1"/><text x="868" y="251" text-anchor="middle" font-family="monospace" font-size="13" font-weight="600" fill="#0f172a">language service::FormatResult</text><text class="uml-member" data-uml-visibility="public" x="730" y="276" font-family="monospace" font-size="11" fill="#16a34a">+text: String</text><text class="uml-member" data-uml-visibility="public" x="730" y="292" font-family="monospace" font-size="11" fill="#16a34a">+changed: bool</text><rect x="32" y="388" width="296" height="94" rx="4" ry="4" fill="#ffffff" stroke="#1e293b" stroke-width="1.5"/><rect x="32" y="388" width="296" height="30" rx="4" ry="4" fill="#dbeafe" stroke="#1e293b" stroke-width="1.5"/><line x1="32" y1="418" x2="328" y2="418" stroke="#1e293b" stroke-width="1"/><text x="180" y="409" text-anchor="middle" font-family="monospace" font-size="13" font-weight="600" fill="#0f172a">diagnostics::Diagnostic</text><text class="uml-member" data-uml-visibility="public" x="42" y="434" font-family="monospace" font-size="11" fill="#16a34a">+message: String</text><text class="uml-member" data-uml-visibility="public" x="42" y="450" font-family="monospace" font-size="11" fill="#16a34a">+span: Option&lt;Span&gt;</text><text class="uml-member" data-uml-visibility="public" x="42" y="466" font-family="monospace" font-size="11" fill="#16a34a">+severity: Severity</text><rect x="376" y="388" width="296" height="92" rx="4" ry="4" fill="#ffffff" stroke="#1e293b" stroke-width="1.5"/><rect x="376" y="388" width="296" height="44" rx="4" ry="4" fill="#dbeafe" stroke="#1e293b" stroke-width="1.5"/><line x1="376" y1="432" x2="672" y2="432" stroke="#1e293b" stroke-width="1"/><text x="524" y="401" text-anchor="middle" font-family="monospace" font-size="10" fill="#0f172a">«enumeration»</text><text x="524" y="423" text-anchor="middle" font-family="monospace" font-size="13" font-weight="600" fill="#0f172a">diagnostics::Severity</text><text class="uml-member" x="386" y="448" font-family="monospace" font-size="11" fill="#334155">Error</text><text class="uml-member" x="386" y="464" font-family="monospace" font-size="11" fill="#334155">Warning</text><rect x="720" y="388" width="296" height="142" rx="4" ry="4" fill="#ffffff" stroke="#1e293b" stroke-width="1.5"/><rect x="720" y="388" width="296" height="30" rx="4" ry="4" fill="#dbeafe" stroke="#1e293b" stroke-width="1.5"/><line x1="720" y1="418" x2="1016" y2="418" stroke="#1e293b" stroke-width="1"/><text x="868" y="409" text-anchor="middle" font-family="monospace" font-size="13" font-weight="600" fill="#0f172a">transports::LspAdapter</text><text class="uml-member" data-uml-visibility="public" x="730" y="434" font-family="monospace" font-size="11" fill="#16a34a">+initialize()</text><text class="uml-member" data-uml-visibility="public" x="730" y="450" font-family="monospace" font-size="11" fill="#16a34a">+hover(pos): Hover</text><text class="uml-member" data-uml-visibility="public" x="730" y="466" font-family="monospace" font-size="11" fill="#16a34a">+completion(pos): CompletionList</text><text class="uml-member" data-uml-visibility="public" x="730" y="482" font-family="monospace" font-size="11" fill="#16a34a">+semantic_tokens(): SemanticTokens</text><text class="uml-member" data-uml-visibility="public" x="730" y="498" font-family="monospace" font-size="11" fill="#16a34a">+format(): FormatResult</text><text class="uml-member" data-uml-visibility="public" x="730" y="514" font-family="monospace" font-size="11" fill="#16a34a">+diagnostics(): Vec&lt;Diagnostic&gt;</text><rect x="32" y="594" width="296" height="110" rx="4" ry="4" fill="#ffffff" stroke="#1e293b" stroke-width="1.5"/><rect x="32" y="594" width="296" height="30" rx="4" ry="4" fill="#dbeafe" stroke="#1e293b" stroke-width="1.5"/><line x1="32" y1="624" x2="328" y2="624" stroke="#1e293b" stroke-width="1"/><text x="180" y="615" text-anchor="middle" font-family="monospace" font-size="13" font-weight="600" fill="#0f172a">transports::WasmAdapter</text><text class="uml-member" data-uml-visibility="public" x="42" y="640" font-family="monospace" font-size="11" fill="#16a34a">+render(src): String</text><text class="uml-member" data-uml-visibility="public" x="42" y="656" font-family="monospace" font-size="11" fill="#16a34a">+hover(pos): Hover</text><text class="uml-member" data-uml-visibility="public" x="42" y="672" font-family="monospace" font-size="11" fill="#16a34a">+completion(pos): CompletionList</text><text class="uml-member" data-uml-visibility="public" x="42" y="688" font-family="monospace" font-size="11" fill="#16a34a">+diagnostics(): Vec&lt;Diagnostic&gt;</text><rect x="376" y="594" width="296" height="94" rx="4" ry="4" fill="#ffffff" stroke="#1e293b" stroke-width="1.5"/><rect x="376" y="594" width="296" height="30" rx="4" ry="4" fill="#dbeafe" stroke="#1e293b" stroke-width="1.5"/><line x1="376" y1="624" x2="672" y2="624" stroke="#1e293b" stroke-width="1"/><text x="524" y="615" text-anchor="middle" font-family="monospace" font-size="13" font-weight="600" fill="#0f172a">transports::CliAdapter</text><text class="uml-member" data-uml-visibility="public" x="386" y="640" font-family="monospace" font-size="11" fill="#16a34a">+render(path, fmt): Vec&lt;u8&gt;</text><text class="uml-member" data-uml-visibility="public" x="386" y="656" font-family="monospace" font-size="11" fill="#16a34a">+check(path): Vec&lt;Diagnostic&gt;</text><text class="uml-member" data-uml-visibility="public" x="386" y="672" font-family="monospace" font-size="11" fill="#16a34a">+format(path): FormatResult</text><rect x="720" y="594" width="296" height="78" rx="4" ry="4" fill="#ffffff" stroke="#1e293b" stroke-width="1.5"/><rect x="720" y="594" width="296" height="30" rx="4" ry="4" fill="#dbeafe" stroke="#1e293b" stroke-width="1.5"/><line x1="720" y1="624" x2="1016" y2="624" stroke="#1e293b" stroke-width="1"/><text x="868" y="615" text-anchor="middle" font-family="monospace" font-size="13" font-weight="600" fill="#0f172a">transports::VsCodeExtension</text><text class="uml-member" data-uml-visibility="public" x="730" y="640" font-family="monospace" font-size="11" fill="#16a34a">+activate()</text><text class="uml-member" data-uml-visibility="public" x="730" y="656" font-family="monospace" font-size="11" fill="#16a34a">+deactivate()</text></svg>