<svg xmlns="http://www.w3.org/2000/svg" width="3752" height="618" viewBox="0 0 3752 618"><rect width="100%" height="100%" fill="#ffffff"/><defs><marker id="arrow-open" viewBox="0 0 10 10" refX="9" refY="5" markerWidth="10" markerHeight="10" markerUnits="userSpaceOnUse" orient="auto-start-reverse"><path d="M0,0 L10,5 L0,10" fill="none" stroke="#1e293b" stroke-width="1.5"/></marker><marker id="arrow-triangle" viewBox="0 0 16 16" refX="15" refY="8" markerWidth="16" markerHeight="16" markerUnits="userSpaceOnUse" orient="auto-start-reverse"><polygon points="0,1 14,8 0,15" fill="#ffffff" stroke="#1e293b" stroke-width="1.5" fill-rule="nonzero"/></marker><marker id="arrow-diamond-filled" viewBox="0 0 14 10" refX="13" refY="5" markerWidth="14" markerHeight="10" markerUnits="userSpaceOnUse" orient="auto-start-reverse"><path d="M0,5 L7,0 L14,5 L7,10 z" fill="#1e293b" stroke="#1e293b" stroke-width="1"/></marker><marker id="arrow-diamond-open" viewBox="0 0 14 10" refX="13" refY="5" markerWidth="14" markerHeight="10" markerUnits="userSpaceOnUse" orient="auto-start-reverse"><path d="M0,5 L7,0 L14,5 L7,10 z" fill="#ffffff" stroke="#1e293b" stroke-width="1"/></marker></defs><polyline class="uml-relation" data-uml-from="language service::CompletionList" data-uml-to="language service::CompletionItem" data-uml-arrow="*--" points="204,138 204,301 1676,301 1676,408" fill="none" stroke="#1e293b" stroke-width="2" marker-start="url(#arrow-diamond-filled)" /><polyline class="uml-relation" data-uml-from="diagnostics::Diagnostic" data-uml-to="diagnostics::Severity" data-uml-arrow="--&gt;" points="572,154 572,309 2044,309 2044,408" fill="none" stroke="#1e293b" stroke-width="2" marker-end="url(#arrow-open)" /><line class="uml-relation" data-uml-from="LspAdapter" data-uml-to="CompletionList" x1="2636" y1="131" x2="348" y2="99" stroke="#1e293b" stroke-width="2" marker-end="url(#arrow-open)"/><text x="1721" y="105" text-anchor="middle" font-family="monospace" font-size="11" fill="#334155">returns</text><line class="uml-relation" data-uml-from="LspAdapter" data-uml-to="Hover" x1="2636" y1="131" x2="1820" y2="91" stroke="#1e293b" stroke-width="2" marker-end="url(#arrow-open)"/><text x="2310" y="102" text-anchor="middle" font-family="monospace" font-size="11" fill="#334155">returns</text><line class="uml-relation" data-uml-from="LspAdapter" data-uml-to="SemanticTokens" x1="2636" y1="131" x2="2188" y2="91" stroke="#1e293b" stroke-width="2" marker-end="url(#arrow-open)"/><text x="2458" y="102" text-anchor="middle" font-family="monospace" font-size="11" fill="#334155">returns</text><line class="uml-relation" data-uml-from="LspAdapter" data-uml-to="FormatResult" x1="2636" y1="131" x2="1452" y2="99" stroke="#1e293b" stroke-width="2" marker-end="url(#arrow-open)"/><text x="2163" y="105" text-anchor="middle" font-family="monospace" font-size="11" fill="#334155">returns</text><line class="uml-relation" data-uml-from="LspAdapter" data-uml-to="Diagnostic" x1="2636" y1="131" x2="716" y2="107" stroke="#1e293b" stroke-width="2" marker-end="url(#arrow-open)"/><text x="1868" y="108" text-anchor="middle" font-family="monospace" font-size="11" fill="#334155">emits</text><line class="uml-relation" data-uml-from="WasmAdapter" data-uml-to="CompletionList" x1="3372" y1="115" x2="348" y2="99" stroke="#1e293b" stroke-width="2" marker-end="url(#arrow-open)"/><text x="2163" y="95" text-anchor="middle" font-family="monospace" font-size="11" fill="#334155">returns</text><line class="uml-relation" data-uml-from="WasmAdapter" data-uml-to="Hover" x1="3372" y1="115" x2="1820" y2="91" stroke="#1e293b" stroke-width="2" marker-end="url(#arrow-open)"/><text x="2752" y="92" text-anchor="middle" font-family="monospace" font-size="11" fill="#334155">returns</text><line class="uml-relation" data-uml-from="WasmAdapter" data-uml-to="Diagnostic" x1="3372" y1="115" x2="716" y2="107" stroke="#1e293b" stroke-width="2" marker-end="url(#arrow-open)"/><text x="2310" y="98" text-anchor="middle" font-family="monospace" font-size="11" fill="#334155">emits</text><line class="uml-relation" data-uml-from="CliAdapter" data-uml-to="FormatResult" x1="2268" y1="107" x2="1452" y2="99" stroke="#1e293b" stroke-width="2" marker-end="url(#arrow-open)"/><text x="1942" y="90" text-anchor="middle" font-family="monospace" font-size="11" fill="#334155">returns</text><line class="uml-relation" data-uml-from="CliAdapter" data-uml-to="Diagnostic" x1="2268" y1="107" x2="716" y2="107" stroke="#1e293b" stroke-width="2" marker-end="url(#arrow-open)"/><text x="1648" y="93" text-anchor="middle" font-family="monospace" font-size="11" fill="#334155">emits</text><line class="uml-relation" data-uml-from="VsCodeExtension" data-uml-to="LspAdapter" x1="3004" y1="99" x2="2924" y2="131" stroke="#1e293b" stroke-width="2" marker-end="url(#arrow-open)"/><text x="2973" y="97" text-anchor="middle" font-family="monospace" font-size="11" fill="#334155">delegates to</text><rect class="uml-group-frame" data-uml-group="diagnostics" x="412" y="16" width="1792" height="500" rx="6" ry="6" fill="none" stroke="#6366f1" stroke-width="1.5" stroke-dasharray="5 3"/><text x="420" y="30" font-family="monospace" font-size="11" font-weight="600" fill="#4338ca">package diagnostics</text><rect class="uml-group-frame" data-uml-group="language service" x="44" y="16" width="2160" height="518" rx="6" ry="6" fill="none" stroke="#6366f1" stroke-width="1.5" stroke-dasharray="5 3"/><text x="52" y="30" font-family="monospace" font-size="11" font-weight="600" fill="#4338ca">package language service</text><rect class="uml-group-frame" data-uml-group="transports" x="2252" y="16" width="1424" height="202" rx="6" ry="6" fill="none" stroke="#6366f1" stroke-width="1.5" stroke-dasharray="5 3"/><text x="2260" y="30" font-family="monospace" font-size="11" font-weight="600" fill="#4338ca">package transports</text><rect x="1532" y="408" width="288" height="110" rx="4" ry="4" fill="#ffffff" stroke="#1e293b" stroke-width="1.5"/><rect x="1532" y="408" width="288" height="30" rx="4" ry="4" fill="#dbeafe" stroke="#1e293b" stroke-width="1.5"/><line x1="1532" y1="438" x2="1820" y2="438" stroke="#1e293b" stroke-width="1"/><text x="1676" y="429" text-anchor="middle" font-family="monospace" font-size="13" font-weight="600" fill="#0f172a">language service::CompletionItem</text><text class="uml-member" data-uml-visibility="public" x="1542" y="454" font-family="monospace" font-size="11" fill="#16a34a">+label: String</text><text class="uml-member" data-uml-visibility="public" x="1542" y="470" font-family="monospace" font-size="11" fill="#16a34a">+kind: CompletionItemKind</text><text class="uml-member" data-uml-visibility="public" x="1542" y="486" font-family="monospace" font-size="11" fill="#16a34a">+detail: String</text><text class="uml-member" data-uml-visibility="public" x="1542" y="502" font-family="monospace" font-size="11" fill="#16a34a">+documentation: String</text><rect x="60" y="60" width="288" height="78" rx="4" ry="4" fill="#ffffff" stroke="#1e293b" stroke-width="1.5"/><rect x="60" y="60" width="288" height="30" rx="4" ry="4" fill="#dbeafe" stroke="#1e293b" stroke-width="1.5"/><line x1="60" y1="90" x2="348" y2="90" stroke="#1e293b" stroke-width="1"/><text x="204" y="81" text-anchor="middle" font-family="monospace" font-size="13" font-weight="600" fill="#0f172a">language service::CompletionList</text><text class="uml-member" data-uml-visibility="public" x="70" y="106" font-family="monospace" font-size="11" fill="#16a34a">+is_incomplete: bool</text><text class="uml-member" data-uml-visibility="public" x="70" y="122" font-family="monospace" font-size="11" fill="#16a34a">+items: Vec&lt;CompletionItem&gt;</text><rect x="1532" y="60" width="288" height="62" rx="4" ry="4" fill="#ffffff" stroke="#1e293b" stroke-width="1.5"/><rect x="1532" y="60" width="288" height="30" rx="4" ry="4" fill="#dbeafe" stroke="#1e293b" stroke-width="1.5"/><line x1="1532" y1="90" x2="1820" y2="90" stroke="#1e293b" stroke-width="1"/><text x="1676" y="81" text-anchor="middle" font-family="monospace" font-size="13" font-weight="600" fill="#0f172a">language service::Hover</text><text class="uml-member" data-uml-visibility="public" x="1542" y="106" font-family="monospace" font-size="11" fill="#16a34a">+markdown: String</text><rect x="796" y="60" width="288" height="94" rx="4" ry="4" fill="#ffffff" stroke="#1e293b" stroke-width="1.5"/><rect x="796" y="60" width="288" height="30" rx="4" ry="4" fill="#dbeafe" stroke="#1e293b" stroke-width="1.5"/><line x1="796" y1="90" x2="1084" y2="90" stroke="#1e293b" stroke-width="1"/><text x="940" y="81" text-anchor="middle" font-family="monospace" font-size="13" font-weight="600" fill="#0f172a">language service::DocumentSymbol</text><text class="uml-member" data-uml-visibility="public" x="806" y="106" font-family="monospace" font-size="11" fill="#16a34a">+name: String</text><text class="uml-member" data-uml-visibility="public" x="806" y="122" font-family="monospace" font-size="11" fill="#16a34a">+kind: DocumentSymbolKind</text><text class="uml-member" data-uml-visibility="public" x="806" y="138" font-family="monospace" font-size="11" fill="#16a34a">+span: Span</text><rect x="1900" y="60" width="288" height="62" rx="4" ry="4" fill="#ffffff" stroke="#1e293b" stroke-width="1.5"/><rect x="1900" y="60" width="288" height="30" rx="4" ry="4" fill="#dbeafe" stroke="#1e293b" stroke-width="1.5"/><line x1="1900" y1="90" x2="2188" y2="90" stroke="#1e293b" stroke-width="1"/><text x="2044" y="81" text-anchor="middle" font-family="monospace" font-size="13" font-weight="600" fill="#0f172a">language service::SemanticTokens</text><text class="uml-member" data-uml-visibility="public" x="1910" y="106" font-family="monospace" font-size="11" fill="#16a34a">+data: Vec&lt;SemanticToken&gt;</text><rect x="1164" y="60" width="288" height="78" rx="4" ry="4" fill="#ffffff" stroke="#1e293b" stroke-width="1.5"/><rect x="1164" y="60" width="288" height="30" rx="4" ry="4" fill="#dbeafe" stroke="#1e293b" stroke-width="1.5"/><line x1="1164" y1="90" x2="1452" y2="90" stroke="#1e293b" stroke-width="1"/><text x="1308" y="81" text-anchor="middle" font-family="monospace" font-size="13" font-weight="600" fill="#0f172a">language service::FormatResult</text><text class="uml-member" data-uml-visibility="public" x="1174" y="106" font-family="monospace" font-size="11" fill="#16a34a">+text: String</text><text class="uml-member" data-uml-visibility="public" x="1174" y="122" font-family="monospace" font-size="11" fill="#16a34a">+changed: bool</text><rect x="428" y="60" width="288" height="94" rx="4" ry="4" fill="#ffffff" stroke="#1e293b" stroke-width="1.5"/><rect x="428" y="60" width="288" height="30" rx="4" ry="4" fill="#dbeafe" stroke="#1e293b" stroke-width="1.5"/><line x1="428" y1="90" x2="716" y2="90" stroke="#1e293b" stroke-width="1"/><text x="572" y="81" text-anchor="middle" font-family="monospace" font-size="13" font-weight="600" fill="#0f172a">diagnostics::Diagnostic</text><text class="uml-member" data-uml-visibility="public" x="438" y="106" font-family="monospace" font-size="11" fill="#16a34a">+message: String</text><text class="uml-member" data-uml-visibility="public" x="438" y="122" font-family="monospace" font-size="11" fill="#16a34a">+span: Option&lt;Span&gt;</text><text class="uml-member" data-uml-visibility="public" x="438" y="138" font-family="monospace" font-size="11" fill="#16a34a">+severity: Severity</text><rect x="1900" y="408" width="288" height="92" rx="4" ry="4" fill="#ffffff" stroke="#1e293b" stroke-width="1.5"/><rect x="1900" y="408" width="288" height="44" rx="4" ry="4" fill="#dbeafe" stroke="#1e293b" stroke-width="1.5"/><line x1="1900" y1="452" x2="2188" y2="452" stroke="#1e293b" stroke-width="1"/><text x="2044" y="421" text-anchor="middle" font-family="monospace" font-size="10" fill="#0f172a">«enumeration»</text><text x="2044" y="443" text-anchor="middle" font-family="monospace" font-size="13" font-weight="600" fill="#0f172a">diagnostics::Severity</text><text class="uml-member" x="1910" y="468" font-family="monospace" font-size="11" fill="#334155">Error</text><text class="uml-member" x="1910" y="484" font-family="monospace" font-size="11" fill="#334155">Warning</text><rect x="2636" y="60" width="288" height="142" rx="4" ry="4" fill="#ffffff" stroke="#1e293b" stroke-width="1.5"/><rect x="2636" y="60" width="288" height="30" rx="4" ry="4" fill="#dbeafe" stroke="#1e293b" stroke-width="1.5"/><line x1="2636" y1="90" x2="2924" y2="90" stroke="#1e293b" stroke-width="1"/><text x="2780" y="81" text-anchor="middle" font-family="monospace" font-size="13" font-weight="600" fill="#0f172a">transports::LspAdapter</text><text class="uml-member" data-uml-visibility="public" x="2646" y="106" font-family="monospace" font-size="11" fill="#16a34a">+initialize()</text><text class="uml-member" data-uml-visibility="public" x="2646" y="122" font-family="monospace" font-size="11" fill="#16a34a">+hover(pos): Hover</text><text class="uml-member" data-uml-visibility="public" x="2646" y="138" font-family="monospace" font-size="11" fill="#16a34a">+completion(pos): CompletionList</text><text class="uml-member" data-uml-visibility="public" x="2646" y="154" font-family="monospace" font-size="11" fill="#16a34a">+semantic_tokens(): SemanticTokens</text><text class="uml-member" data-uml-visibility="public" x="2646" y="170" font-family="monospace" font-size="11" fill="#16a34a">+format(): FormatResult</text><text class="uml-member" data-uml-visibility="public" x="2646" y="186" font-family="monospace" font-size="11" fill="#16a34a">+diagnostics(): Vec&lt;Diagnostic&gt;</text><rect x="3372" y="60" width="288" height="110" rx="4" ry="4" fill="#ffffff" stroke="#1e293b" stroke-width="1.5"/><rect x="3372" y="60" width="288" height="30" rx="4" ry="4" fill="#dbeafe" stroke="#1e293b" stroke-width="1.5"/><line x1="3372" y1="90" x2="3660" y2="90" stroke="#1e293b" stroke-width="1"/><text x="3516" y="81" text-anchor="middle" font-family="monospace" font-size="13" font-weight="600" fill="#0f172a">transports::WasmAdapter</text><text class="uml-member" data-uml-visibility="public" x="3382" y="106" font-family="monospace" font-size="11" fill="#16a34a">+render(src): String</text><text class="uml-member" data-uml-visibility="public" x="3382" y="122" font-family="monospace" font-size="11" fill="#16a34a">+hover(pos): Hover</text><text class="uml-member" data-uml-visibility="public" x="3382" y="138" font-family="monospace" font-size="11" fill="#16a34a">+completion(pos): CompletionList</text><text class="uml-member" data-uml-visibility="public" x="3382" y="154" font-family="monospace" font-size="11" fill="#16a34a">+diagnostics(): Vec&lt;Diagnostic&gt;</text><rect x="2268" y="60" width="288" height="94" rx="4" ry="4" fill="#ffffff" stroke="#1e293b" stroke-width="1.5"/><rect x="2268" y="60" width="288" height="30" rx="4" ry="4" fill="#dbeafe" stroke="#1e293b" stroke-width="1.5"/><line x1="2268" y1="90" x2="2556" y2="90" stroke="#1e293b" stroke-width="1"/><text x="2412" y="81" text-anchor="middle" font-family="monospace" font-size="13" font-weight="600" fill="#0f172a">transports::CliAdapter</text><text class="uml-member" data-uml-visibility="public" x="2278" y="106" font-family="monospace" font-size="11" fill="#16a34a">+render(path, fmt): Vec&lt;u8&gt;</text><text class="uml-member" data-uml-visibility="public" x="2278" y="122" font-family="monospace" font-size="11" fill="#16a34a">+check(path): Vec&lt;Diagnostic&gt;</text><text class="uml-member" data-uml-visibility="public" x="2278" y="138" font-family="monospace" font-size="11" fill="#16a34a">+format(path): FormatResult</text><rect x="3004" y="60" width="288" height="78" rx="4" ry="4" fill="#ffffff" stroke="#1e293b" stroke-width="1.5"/><rect x="3004" y="60" width="288" height="30" rx="4" ry="4" fill="#dbeafe" stroke="#1e293b" stroke-width="1.5"/><line x1="3004" y1="90" x2="3292" y2="90" stroke="#1e293b" stroke-width="1"/><text x="3148" y="81" text-anchor="middle" font-family="monospace" font-size="13" font-weight="600" fill="#0f172a">transports::VsCodeExtension</text><text class="uml-member" data-uml-visibility="public" x="3014" y="106" font-family="monospace" font-size="11" fill="#16a34a">+activate()</text><text class="uml-member" data-uml-visibility="public" x="3014" y="122" font-family="monospace" font-size="11" fill="#16a34a">+deactivate()</text></svg>