<svg xmlns="http://www.w3.org/2000/svg" width="1128" height="2120" viewBox="0 0 1128 2120"><rect width="100%" height="100%" fill="white"/><rect x="24" y="24" width="120" height="32" rx="4" ry="4" fill="#f6f6f6" stroke="#111" stroke-width="1"/><text x="84" y="45" text-anchor="middle" font-family="monospace" font-size="13" fill="#111111">User</text><rect x="184" y="24" width="120" height="32" rx="4" ry="4" fill="#f6f6f6" stroke="#111" stroke-width="1"/><text x="244" y="45" text-anchor="middle" font-family="monospace" font-size="13" fill="#111111">CLI</text><rect x="344" y="24" width="120" height="32" rx="4" ry="4" fill="#f6f6f6" stroke="#111" stroke-width="1"/><text x="404" y="45" text-anchor="middle" font-family="monospace" font-size="13" fill="#111111">Preprocessor</text><rect x="504" y="24" width="120" height="32" rx="4" ry="4" fill="#f6f6f6" stroke="#111" stroke-width="1"/><text x="564" y="45" text-anchor="middle" font-family="monospace" font-size="13" fill="#111111">Parser</text><rect x="664" y="24" width="120" height="32" rx="4" ry="4" fill="#f6f6f6" stroke="#111" stroke-width="1"/><text x="724" y="45" text-anchor="middle" font-family="monospace" font-size="13" fill="#111111">Normalizer</text><rect x="824" y="24" width="120" height="32" rx="4" ry="4" fill="#f6f6f6" stroke="#111" stroke-width="1"/><text x="884" y="45" text-anchor="middle" font-family="monospace" font-size="13" fill="#111111">Renderer</text><rect x="984" y="24" width="120" height="32" rx="4" ry="4" fill="#f6f6f6" stroke="#111" stroke-width="1"/><text x="1044" y="45" text-anchor="middle" font-family="monospace" font-size="13" fill="#111111">Output</text><line x1="84" y1="56" x2="84" y2="2064" stroke="#555" stroke-width="1" stroke-dasharray="6 4"/><line x1="244" y1="56" x2="244" y2="2064" stroke="#555" stroke-width="1" stroke-dasharray="6 4"/><line x1="404" y1="56" x2="404" y2="2064" stroke="#555" stroke-width="1" stroke-dasharray="6 4"/><line x1="564" y1="56" x2="564" y2="2064" stroke="#555" stroke-width="1" stroke-dasharray="6 4"/><line x1="724" y1="56" x2="724" y2="2064" stroke="#555" stroke-width="1" stroke-dasharray="6 4"/><line x1="884" y1="56" x2="884" y2="2064" stroke="#555" stroke-width="1" stroke-dasharray="6 4"/><line x1="1044" y1="56" x2="1044" y2="2064" stroke="#555" stroke-width="1" stroke-dasharray="6 4"/><rect x="24" y="440" width="1080" height="160" rx="2" ry="2" fill="#fafafa" stroke="#666" stroke-width="1"/><polygon points="24,440 194,440 194,454 188,460 24,460" fill="#fafafa" stroke="#666" stroke-width="1"/><text x="32" y="454" font-family="monospace" font-size="12" font-weight="600" fill="#111">alt preprocessor error</text><rect x="24" y="840" width="1080" height="120" rx="2" ry="2" fill="#fafafa" stroke="#666" stroke-width="1"/><polygon points="24,840 222,840 222,854 216,860 24,860" fill="#fafafa" stroke="#666" stroke-width="1"/><text x="32" y="854" font-family="monospace" font-size="12" font-weight="600" fill="#111">opt parse warnings present</text><rect x="24" y="960" width="1080" height="160" rx="2" ry="2" fill="#fafafa" stroke="#666" stroke-width="1"/><polygon points="24,960 145,960 145,974 139,980 24,980" fill="#fafafa" stroke="#666" stroke-width="1"/><text x="32" y="974" font-family="monospace" font-size="12" font-weight="600" fill="#111">alt parse error</text><rect x="24" y="1480" width="1080" height="160" rx="2" ry="2" fill="#fafafa" stroke="#666" stroke-width="1"/><polygon points="24,1480 180,1480 180,1494 174,1500 24,1500" fill="#fafafa" stroke="#666" stroke-width="1"/><text x="32" y="1494" font-family="monospace" font-size="12" font-weight="600" fill="#111">alt normalizer error</text><line x1="84" y1="88" x2="244" y2="88" stroke="#111" stroke-width="1.5"/><polygon points="244,88 236,83 236,93" fill="#111" stroke="#111" stroke-width="1"/><text x="92" y="80" text-anchor="start" font-family="monospace" font-size="12" fill="#111">puml hello.puml</text><line x1="244" y1="168" x2="404" y2="168" stroke="#111" stroke-width="1.5"/><polygon points="404,168 396,163 396,173" fill="#111" stroke="#111" stroke-width="1"/><text x="252" y="160" text-anchor="start" font-family="monospace" font-size="12" fill="#111">raw source text</text><path d="M 404 224 L 448 224 L 448 256 L 412 256" fill="none" stroke="#111" stroke-width="1.5"/><polygon points="404,256 412,251 412,261" fill="#111" stroke="#111" stroke-width="1"/><text x="412" y="200" text-anchor="start" font-family="monospace" font-size="12" fill="#111">scan for !include</text><text x="412" y="216" text-anchor="start" font-family="monospace" font-size="12" fill="#111">/ !define</text><path d="M 404 304 L 448 304 L 448 336 L 412 336" fill="none" stroke="#111" stroke-width="1.5"/><polygon points="404,336 412,331 412,341" fill="#111" stroke="#111" stroke-width="1"/><text x="412" y="280" text-anchor="start" font-family="monospace" font-size="12" fill="#111">resolve file</text><text x="412" y="296" text-anchor="start" font-family="monospace" font-size="12" fill="#111">includes</text><path d="M 404 368 L 448 368 L 448 400 L 412 400" fill="none" stroke="#111" stroke-width="1.5"/><polygon points="404,400 412,395 412,405" fill="#111" stroke="#111" stroke-width="1"/><text x="412" y="360" text-anchor="start" font-family="monospace" font-size="12" fill="#111">expand macros</text><line x1="404" y1="488" x2="244" y2="488" stroke="#111" stroke-width="1.5" stroke-dasharray="6 4"/><polygon points="244,488 252,483 252,493" fill="#111" stroke="#111" stroke-width="1"/><text x="252" y="480" text-anchor="start" font-family="monospace" font-size="12" fill="#111">Diagnostic(Error)</text><line x1="244" y1="528" x2="84" y2="528" stroke="#111" stroke-width="1.5" stroke-dasharray="6 4"/><polygon points="84,528 92,523 92,533" fill="#111" stroke="#111" stroke-width="1"/><text x="92" y="520" text-anchor="start" font-family="monospace" font-size="12" fill="#111">stderr + exit 1</text><line x1="404" y1="608" x2="244" y2="608" stroke="#111" stroke-width="1.5" stroke-dasharray="6 4"/><polygon points="244,608 252,603 252,613" fill="#111" stroke="#111" stroke-width="1"/><text x="252" y="600" text-anchor="start" font-family="monospace" font-size="12" fill="#111">expanded source</text><line x1="244" y1="648" x2="564" y2="648" stroke="#111" stroke-width="1.5"/><polygon points="564,648 556,643 556,653" fill="#111" stroke="#111" stroke-width="1"/><text x="252" y="640" text-anchor="start" font-family="monospace" font-size="12" fill="#111">expanded source + ParsePipelineOptions</text><path d="M 564 688 L 608 688 L 608 720 L 572 720" fill="none" stroke="#111" stroke-width="1.5"/><polygon points="564,720 572,715 572,725" fill="#111" stroke="#111" stroke-width="1"/><text x="572" y="680" text-anchor="start" font-family="monospace" font-size="12" fill="#111">tokenise</text><path d="M 564 768 L 608 768 L 608 800 L 572 800" fill="none" stroke="#111" stroke-width="1.5"/><polygon points="564,800 572,795 572,805" fill="#111" stroke="#111" stroke-width="1"/><text x="572" y="760" text-anchor="start" font-family="monospace" font-size="12" fill="#111">build AST nodes</text><line x1="564" y1="888" x2="244" y2="888" stroke="#111" stroke-width="1.5" stroke-dasharray="6 4"/><polygon points="244,888 252,883 252,893" fill="#111" stroke="#111" stroke-width="1"/><text x="252" y="880" text-anchor="start" font-family="monospace" font-size="12" fill="#111">Diagnostic(Warning)</text><line x1="564" y1="1008" x2="244" y2="1008" stroke="#111" stroke-width="1.5" stroke-dasharray="6 4"/><polygon points="244,1008 252,1003 252,1013" fill="#111" stroke="#111" stroke-width="1"/><text x="252" y="1000" text-anchor="start" font-family="monospace" font-size="12" fill="#111">Diagnostic(Error)</text><line x1="244" y1="1048" x2="84" y2="1048" stroke="#111" stroke-width="1.5" stroke-dasharray="6 4"/><polygon points="84,1048 92,1043 92,1053" fill="#111" stroke="#111" stroke-width="1"/><text x="92" y="1040" text-anchor="start" font-family="monospace" font-size="12" fill="#111">stderr + exit 1</text><line x1="564" y1="1128" x2="244" y2="1128" stroke="#111" stroke-width="1.5" stroke-dasharray="6 4"/><polygon points="244,1128 252,1123 252,1133" fill="#111" stroke="#111" stroke-width="1"/><text x="252" y="1120" text-anchor="start" font-family="monospace" font-size="12" fill="#111">Document (AST)</text><line x1="244" y1="1168" x2="724" y2="1168" stroke="#111" stroke-width="1.5"/><polygon points="724,1168 716,1163 716,1173" fill="#111" stroke="#111" stroke-width="1"/><text x="252" y="1160" text-anchor="start" font-family="monospace" font-size="12" fill="#111">Document + family hint</text><path d="M 724 1224 L 768 1224 L 768 1256 L 732 1256" fill="none" stroke="#111" stroke-width="1.5"/><polygon points="724,1256 732,1251 732,1261" fill="#111" stroke="#111" stroke-width="1"/><text x="732" y="1200" text-anchor="start" font-family="monospace" font-size="12" fill="#111">detect diagram</text><text x="732" y="1216" text-anchor="start" font-family="monospace" font-size="12" fill="#111">family</text><path d="M 724 1320 L 768 1320 L 768 1352 L 732 1352" fill="none" stroke="#111" stroke-width="1.5"/><polygon points="724,1352 732,1347 732,1357" fill="#111" stroke="#111" stroke-width="1"/><text x="732" y="1280" text-anchor="start" font-family="monospace" font-size="12" fill="#111">resolve</text><text x="732" y="1296" text-anchor="start" font-family="monospace" font-size="12" fill="#111">participants /</text><text x="732" y="1312" text-anchor="start" font-family="monospace" font-size="12" fill="#111">lifelines</text><path d="M 724 1424 L 768 1424 L 768 1456 L 732 1456" fill="none" stroke="#111" stroke-width="1.5"/><polygon points="724,1456 732,1451 732,1461" fill="#111" stroke="#111" stroke-width="1"/><text x="732" y="1400" text-anchor="start" font-family="monospace" font-size="12" fill="#111">apply layout</text><text x="732" y="1416" text-anchor="start" font-family="monospace" font-size="12" fill="#111">constraints</text><line x1="724" y1="1528" x2="244" y2="1528" stroke="#111" stroke-width="1.5" stroke-dasharray="6 4"/><polygon points="244,1528 252,1523 252,1533" fill="#111" stroke="#111" stroke-width="1"/><text x="252" y="1520" text-anchor="start" font-family="monospace" font-size="12" fill="#111">Diagnostic(Error)</text><line x1="244" y1="1568" x2="84" y2="1568" stroke="#111" stroke-width="1.5" stroke-dasharray="6 4"/><polygon points="84,1568 92,1563 92,1573" fill="#111" stroke="#111" stroke-width="1"/><text x="92" y="1560" text-anchor="start" font-family="monospace" font-size="12" fill="#111">stderr + exit 1</text><line x1="724" y1="1648" x2="244" y2="1648" stroke="#111" stroke-width="1.5" stroke-dasharray="6 4"/><polygon points="244,1648 252,1643 252,1653" fill="#111" stroke="#111" stroke-width="1"/><text x="252" y="1640" text-anchor="start" font-family="monospace" font-size="12" fill="#111">NormalizedDocument</text><line x1="244" y1="1688" x2="884" y2="1688" stroke="#111" stroke-width="1.5"/><polygon points="884,1688 876,1683 876,1693" fill="#111" stroke="#111" stroke-width="1"/><text x="252" y="1680" text-anchor="start" font-family="monospace" font-size="12" fill="#111">NormalizedDocument + theme + format</text><path d="M 884 1728 L 928 1728 L 928 1760 L 892 1760" fill="none" stroke="#111" stroke-width="1.5"/><polygon points="884,1760 892,1755 892,1765" fill="#111" stroke="#111" stroke-width="1"/><text x="892" y="1720" text-anchor="start" font-family="monospace" font-size="12" fill="#111">compute geometry</text><path d="M 884 1808 L 928 1808 L 928 1840 L 892 1840" fill="none" stroke="#111" stroke-width="1.5"/><polygon points="884,1840 892,1835 892,1845" fill="#111" stroke="#111" stroke-width="1"/><text x="892" y="1800" text-anchor="start" font-family="monospace" font-size="12" fill="#111">apply skin params</text><path d="M 884 1888 L 928 1888 L 928 1920 L 892 1920" fill="none" stroke="#111" stroke-width="1.5"/><polygon points="884,1920 892,1915 892,1925" fill="#111" stroke="#111" stroke-width="1"/><text x="892" y="1880" text-anchor="start" font-family="monospace" font-size="12" fill="#111">emit SVG nodes</text><line x1="884" y1="1968" x2="244" y2="1968" stroke="#111" stroke-width="1.5" stroke-dasharray="6 4"/><polygon points="244,1968 252,1963 252,1973" fill="#111" stroke="#111" stroke-width="1"/><text x="252" y="1960" text-anchor="start" font-family="monospace" font-size="12" fill="#111">rendered bytes</text><line x1="244" y1="2008" x2="1044" y2="2008" stroke="#111" stroke-width="1.5"/><polygon points="1044,2008 1036,2003 1036,2013" fill="#111" stroke="#111" stroke-width="1"/><text x="252" y="2000" text-anchor="start" font-family="monospace" font-size="12" fill="#111">write hello.svg</text><line x1="1044" y1="2048" x2="84" y2="2048" stroke="#111" stroke-width="1.5" stroke-dasharray="6 4"/><polygon points="84,2048 92,2043 92,2053" fill="#111" stroke="#111" stroke-width="1"/><text x="92" y="2040" text-anchor="start" font-family="monospace" font-size="12" fill="#111">hello.svg (exit 0)</text><path d="M117,120 H362 L372 130 V152 H117 Z" fill="#fff8c4" stroke="#111" stroke-width="1"/><path d="M362 120 V130 H372" fill="none" stroke="#111" stroke-width="1"/><text x="125" y="140" font-family="monospace" font-size="12" fill="#111"><tspan x="125"><tspan>resolve </tspan><tspan text-decoration="line-through">format, </tspan><tspan>dialect flags</tspan></tspan></text><rect x="24" y="2064" width="120" height="32" rx="4" ry="4" fill="#f6f6f6" stroke="#111" stroke-width="1"/><text x="84" y="2085" text-anchor="middle" font-family="monospace" font-size="13" fill="#111111">User</text><rect x="184" y="2064" width="120" height="32" rx="4" ry="4" fill="#f6f6f6" stroke="#111" stroke-width="1"/><text x="244" y="2085" text-anchor="middle" font-family="monospace" font-size="13" fill="#111111">CLI</text><rect x="344" y="2064" width="120" height="32" rx="4" ry="4" fill="#f6f6f6" stroke="#111" stroke-width="1"/><text x="404" y="2085" text-anchor="middle" font-family="monospace" font-size="13" fill="#111111">Preprocessor</text><rect x="504" y="2064" width="120" height="32" rx="4" ry="4" fill="#f6f6f6" stroke="#111" stroke-width="1"/><text x="564" y="2085" text-anchor="middle" font-family="monospace" font-size="13" fill="#111111">Parser</text><rect x="664" y="2064" width="120" height="32" rx="4" ry="4" fill="#f6f6f6" stroke="#111" stroke-width="1"/><text x="724" y="2085" text-anchor="middle" font-family="monospace" font-size="13" fill="#111111">Normalizer</text><rect x="824" y="2064" width="120" height="32" rx="4" ry="4" fill="#f6f6f6" stroke="#111" stroke-width="1"/><text x="884" y="2085" text-anchor="middle" font-family="monospace" font-size="13" fill="#111111">Renderer</text><rect x="984" y="2064" width="120" height="32" rx="4" ry="4" fill="#f6f6f6" stroke="#111" stroke-width="1"/><text x="1044" y="2085" text-anchor="middle" font-family="monospace" font-size="13" fill="#111111">Output</text></svg>