<svg xmlns="http://www.w3.org/2000/svg" width="1168" height="2120" viewBox="0 0 1168 2120"><rect width="100%" height="100%" fill="white"/><rect x="24" y="24" width="120" height="32" rx="4" ry="4" fill="#f6f6f6" stroke="#111" stroke-width="1"/><text x="84" y="45" text-anchor="middle" font-family="monospace" font-size="13" fill="#111111">User</text><rect x="184" y="24" width="120" height="32" rx="4" ry="4" fill="#f6f6f6" stroke="#111" stroke-width="1"/><text x="244" y="45" text-anchor="middle" font-family="monospace" font-size="13" fill="#111111">CLI</text><rect x="344" y="24" width="120" height="32" rx="4" ry="4" fill="#f6f6f6" stroke="#111" stroke-width="1"/><text x="404" y="45" text-anchor="middle" font-family="monospace" font-size="13" fill="#111111">Preprocessor</text><rect x="504" y="24" width="120" height="32" rx="4" ry="4" fill="#f6f6f6" stroke="#111" stroke-width="1"/><text x="564" y="45" text-anchor="middle" font-family="monospace" font-size="13" fill="#111111">Parser</text><rect x="664" y="24" width="120" height="32" rx="4" ry="4" fill="#f6f6f6" stroke="#111" stroke-width="1"/><text x="724" y="45" text-anchor="middle" font-family="monospace" font-size="13" fill="#111111">Normalizer</text><rect x="824" y="24" width="120" height="32" rx="4" ry="4" fill="#f6f6f6" stroke="#111" stroke-width="1"/><text x="884" y="45" text-anchor="middle" font-family="monospace" font-size="13" fill="#111111">Renderer</text><rect x="984" y="24" width="120" height="32" rx="4" ry="4" fill="#f6f6f6" stroke="#111" stroke-width="1"/><text x="1044" y="45" text-anchor="middle" font-family="monospace" font-size="13" fill="#111111">Output</text><line x1="84" y1="56" x2="84" y2="2064" stroke="#555" stroke-width="1" stroke-dasharray="6 4"/><line x1="244" y1="56" x2="244" y2="2064" stroke="#555" stroke-width="1" stroke-dasharray="6 4"/><line x1="404" y1="56" x2="404" y2="2064" stroke="#555" stroke-width="1" stroke-dasharray="6 4"/><line x1="564" y1="56" x2="564" y2="2064" stroke="#555" stroke-width="1" stroke-dasharray="6 4"/><line x1="724" y1="56" x2="724" y2="2064" stroke="#555" stroke-width="1" stroke-dasharray="6 4"/><line x1="884" y1="56" x2="884" y2="2064" stroke="#555" stroke-width="1" stroke-dasharray="6 4"/><line x1="1044" y1="56" x2="1044" y2="2064" stroke="#555" stroke-width="1" stroke-dasharray="6 4"/><rect x="24" y="440" width="1120" height="160" rx="2" ry="2" fill="#fafafa" stroke="#666" stroke-width="1"/><polygon points="24,440 194,440 194,454 188,460 24,460" fill="#fafafa" stroke="#666" stroke-width="1"/><text x="32" y="454" font-family="monospace" font-size="12" font-weight="600" fill="#111">alt preprocessor error</text><rect x="24" y="840" width="1120" height="120" rx="2" ry="2" fill="#fafafa" stroke="#666" stroke-width="1"/><polygon points="24,840 222,840 222,854 216,860 24,860" fill="#fafafa" stroke="#666" stroke-width="1"/><text x="32" y="854" font-family="monospace" font-size="12" font-weight="600" fill="#111">opt parse warnings present</text><rect x="24" y="960" width="1120" height="160" rx="2" ry="2" fill="#fafafa" stroke="#666" stroke-width="1"/><polygon points="24,960 145,960 145,974 139,980 24,980" fill="#fafafa" stroke="#666" stroke-width="1"/><text x="32" y="974" font-family="monospace" font-size="12" font-weight="600" fill="#111">alt parse error</text><rect x="24" y="1480" width="1120" height="160" rx="2" ry="2" fill="#fafafa" stroke="#666" stroke-width="1"/><polygon points="24,1480 180,1480 180,1494 174,1500 24,1500" fill="#fafafa" stroke="#666" stroke-width="1"/><text x="32" y="1494" font-family="monospace" font-size="12" font-weight="600" fill="#111">alt normalizer error</text><line x1="84" y1="80" x2="244" y2="80" stroke="#111" stroke-width="1.5"/><polygon points="244,80 236,75 236,85" fill="#111" stroke="#111" stroke-width="1"/><text x="92" y="72" text-anchor="start" font-family="monospace" font-size="12" fill="#111">puml hello.puml</text><line x1="244" y1="160" x2="404" y2="160" stroke="#111" stroke-width="1.5"/><polygon points="404,160 396,155 396,165" fill="#111" stroke="#111" stroke-width="1"/><text x="252" y="152" text-anchor="start" font-family="monospace" font-size="12" fill="#111">raw source text</text><path d="M 404 200 L 448 200 L 448 232 L 412 232" fill="none" stroke="#111" stroke-width="1.5"/><polygon points="404,232 412,227 412,237" fill="#111" stroke="#111" stroke-width="1"/><text x="412" y="176" text-anchor="start" font-family="monospace" font-size="12" fill="#111">scan for !include</text><text x="412" y="192" text-anchor="start" font-family="monospace" font-size="12" fill="#111">/ !define</text><path d="M 404 280 L 448 280 L 448 312 L 412 312" fill="none" stroke="#111" stroke-width="1.5"/><polygon points="404,312 412,307 412,317" fill="#111" stroke="#111" stroke-width="1"/><text x="412" y="256" text-anchor="start" font-family="monospace" font-size="12" fill="#111">resolve file</text><text x="412" y="272" text-anchor="start" font-family="monospace" font-size="12" fill="#111">includes</text><path d="M 404 360 L 448 360 L 448 392 L 412 392" fill="none" stroke="#111" stroke-width="1.5"/><polygon points="404,392 412,387 412,397" fill="#111" stroke="#111" stroke-width="1"/><text x="412" y="352" text-anchor="start" font-family="monospace" font-size="12" fill="#111">expand macros</text><line x1="404" y1="480" x2="244" y2="480" stroke="#111" stroke-width="1.5" stroke-dasharray="6 4"/><polygon points="244,480 252,475 252,485" fill="#111" stroke="#111" stroke-width="1"/><text x="252" y="472" text-anchor="start" font-family="monospace" font-size="12" fill="#111">Diagnostic(Error)</text><line x1="244" y1="520" x2="84" y2="520" stroke="#111" stroke-width="1.5" stroke-dasharray="6 4"/><polygon points="84,520 92,515 92,525" fill="#111" stroke="#111" stroke-width="1"/><text x="92" y="512" text-anchor="start" font-family="monospace" font-size="12" fill="#111">stderr + exit 1</text><line x1="404" y1="600" x2="244" y2="600" stroke="#111" stroke-width="1.5" stroke-dasharray="6 4"/><polygon points="244,600 252,595 252,605" fill="#111" stroke="#111" stroke-width="1"/><text x="252" y="592" text-anchor="start" font-family="monospace" font-size="12" fill="#111">expanded source</text><line x1="244" y1="640" x2="564" y2="640" stroke="#111" stroke-width="1.5"/><polygon points="564,640 556,635 556,645" fill="#111" stroke="#111" stroke-width="1"/><text x="252" y="632" text-anchor="start" font-family="monospace" font-size="12" fill="#111">expanded source + ParsePipelineOptions</text><path d="M 564 680 L 608 680 L 608 712 L 572 712" fill="none" stroke="#111" stroke-width="1.5"/><polygon points="564,712 572,707 572,717" fill="#111" stroke="#111" stroke-width="1"/><text x="572" y="672" text-anchor="start" font-family="monospace" font-size="12" fill="#111">tokenise</text><path d="M 564 760 L 608 760 L 608 792 L 572 792" fill="none" stroke="#111" stroke-width="1.5"/><polygon points="564,792 572,787 572,797" fill="#111" stroke="#111" stroke-width="1"/><text x="572" y="752" text-anchor="start" font-family="monospace" font-size="12" fill="#111">build AST nodes</text><line x1="564" y1="880" x2="244" y2="880" stroke="#111" stroke-width="1.5" stroke-dasharray="6 4"/><polygon points="244,880 252,875 252,885" fill="#111" stroke="#111" stroke-width="1"/><text x="252" y="872" text-anchor="start" font-family="monospace" font-size="12" fill="#111">Diagnostic(Warning)</text><line x1="564" y1="1000" x2="244" y2="1000" stroke="#111" stroke-width="1.5" stroke-dasharray="6 4"/><polygon points="244,1000 252,995 252,1005" fill="#111" stroke="#111" stroke-width="1"/><text x="252" y="992" text-anchor="start" font-family="monospace" font-size="12" fill="#111">Diagnostic(Error)</text><line x1="244" y1="1040" x2="84" y2="1040" stroke="#111" stroke-width="1.5" stroke-dasharray="6 4"/><polygon points="84,1040 92,1035 92,1045" fill="#111" stroke="#111" stroke-width="1"/><text x="92" y="1032" text-anchor="start" font-family="monospace" font-size="12" fill="#111">stderr + exit 1</text><line x1="564" y1="1120" x2="244" y2="1120" stroke="#111" stroke-width="1.5" stroke-dasharray="6 4"/><polygon points="244,1120 252,1115 252,1125" fill="#111" stroke="#111" stroke-width="1"/><text x="252" y="1112" text-anchor="start" font-family="monospace" font-size="12" fill="#111">Document (AST)</text><line x1="244" y1="1160" x2="724" y2="1160" stroke="#111" stroke-width="1.5"/><polygon points="724,1160 716,1155 716,1165" fill="#111" stroke="#111" stroke-width="1"/><text x="252" y="1152" text-anchor="start" font-family="monospace" font-size="12" fill="#111">Document + family hint</text><path d="M 724 1200 L 768 1200 L 768 1232 L 732 1232" fill="none" stroke="#111" stroke-width="1.5"/><polygon points="724,1232 732,1227 732,1237" fill="#111" stroke="#111" stroke-width="1"/><text x="732" y="1176" text-anchor="start" font-family="monospace" font-size="12" fill="#111">detect diagram</text><text x="732" y="1192" text-anchor="start" font-family="monospace" font-size="12" fill="#111">family</text><path d="M 724 1280 L 768 1280 L 768 1312 L 732 1312" fill="none" stroke="#111" stroke-width="1.5"/><polygon points="724,1312 732,1307 732,1317" fill="#111" stroke="#111" stroke-width="1"/><text x="732" y="1240" text-anchor="start" font-family="monospace" font-size="12" fill="#111">resolve</text><text x="732" y="1256" text-anchor="start" font-family="monospace" font-size="12" fill="#111">participants /</text><text x="732" y="1272" text-anchor="start" font-family="monospace" font-size="12" fill="#111">lifelines</text><path d="M 724 1400 L 768 1400 L 768 1432 L 732 1432" fill="none" stroke="#111" stroke-width="1.5"/><polygon points="724,1432 732,1427 732,1437" fill="#111" stroke="#111" stroke-width="1"/><text x="732" y="1376" text-anchor="start" font-family="monospace" font-size="12" fill="#111">apply layout</text><text x="732" y="1392" text-anchor="start" font-family="monospace" font-size="12" fill="#111">constraints</text><line x1="724" y1="1520" x2="244" y2="1520" stroke="#111" stroke-width="1.5" stroke-dasharray="6 4"/><polygon points="244,1520 252,1515 252,1525" fill="#111" stroke="#111" stroke-width="1"/><text x="252" y="1512" text-anchor="start" font-family="monospace" font-size="12" fill="#111">Diagnostic(Error)</text><line x1="244" y1="1560" x2="84" y2="1560" stroke="#111" stroke-width="1.5" stroke-dasharray="6 4"/><polygon points="84,1560 92,1555 92,1565" fill="#111" stroke="#111" stroke-width="1"/><text x="92" y="1552" text-anchor="start" font-family="monospace" font-size="12" fill="#111">stderr + exit 1</text><line x1="724" y1="1640" x2="244" y2="1640" stroke="#111" stroke-width="1.5" stroke-dasharray="6 4"/><polygon points="244,1640 252,1635 252,1645" fill="#111" stroke="#111" stroke-width="1"/><text x="252" y="1632" text-anchor="start" font-family="monospace" font-size="12" fill="#111">NormalizedDocument</text><line x1="244" y1="1680" x2="884" y2="1680" stroke="#111" stroke-width="1.5"/><polygon points="884,1680 876,1675 876,1685" fill="#111" stroke="#111" stroke-width="1"/><text x="252" y="1672" text-anchor="start" font-family="monospace" font-size="12" fill="#111">NormalizedDocument + theme + format</text><path d="M 884 1720 L 928 1720 L 928 1752 L 892 1752" fill="none" stroke="#111" stroke-width="1.5"/><polygon points="884,1752 892,1747 892,1757" fill="#111" stroke="#111" stroke-width="1"/><text x="892" y="1712" text-anchor="start" font-family="monospace" font-size="12" fill="#111">compute geometry</text><path d="M 884 1800 L 928 1800 L 928 1832 L 892 1832" fill="none" stroke="#111" stroke-width="1.5"/><polygon points="884,1832 892,1827 892,1837" fill="#111" stroke="#111" stroke-width="1"/><text x="892" y="1792" text-anchor="start" font-family="monospace" font-size="12" fill="#111">apply skin params</text><path d="M 884 1880 L 928 1880 L 928 1912 L 892 1912" fill="none" stroke="#111" stroke-width="1.5"/><polygon points="884,1912 892,1907 892,1917" fill="#111" stroke="#111" stroke-width="1"/><text x="892" y="1872" text-anchor="start" font-family="monospace" font-size="12" fill="#111">emit SVG nodes</text><line x1="884" y1="1960" x2="244" y2="1960" stroke="#111" stroke-width="1.5" stroke-dasharray="6 4"/><polygon points="244,1960 252,1955 252,1965" fill="#111" stroke="#111" stroke-width="1"/><text x="252" y="1952" text-anchor="start" font-family="monospace" font-size="12" fill="#111">rendered bytes</text><line x1="244" y1="2000" x2="1044" y2="2000" stroke="#111" stroke-width="1.5"/><polygon points="1044,2000 1036,1995 1036,2005" fill="#111" stroke="#111" stroke-width="1"/><text x="252" y="1992" text-anchor="start" font-family="monospace" font-size="12" fill="#111">write hello.svg</text><line x1="1044" y1="2040" x2="84" y2="2040" stroke="#111" stroke-width="1.5" stroke-dasharray="6 4"/><polygon points="84,2040 92,2035 92,2045" fill="#111" stroke="#111" stroke-width="1"/><text x="92" y="2032" text-anchor="start" font-family="monospace" font-size="12" fill="#111">hello.svg (exit 0)</text><path d="M117,120 H362 L372 130 V152 H117 Z" fill="#fff8c4" stroke="#111" stroke-width="1"/><path d="M362 120 V130 H372" fill="none" stroke="#111" stroke-width="1"/><text x="125" y="140" font-family="monospace" font-size="12" fill="#111"><tspan x="125"><tspan>resolve </tspan><tspan text-decoration="line-through">format, </tspan><tspan>dialect flags</tspan></tspan></text><rect x="24" y="2064" width="120" height="32" rx="4" ry="4" fill="#f6f6f6" stroke="#111" stroke-width="1"/><text x="84" y="2085" text-anchor="middle" font-family="monospace" font-size="13" fill="#111111">User</text><rect x="184" y="2064" width="120" height="32" rx="4" ry="4" fill="#f6f6f6" stroke="#111" stroke-width="1"/><text x="244" y="2085" text-anchor="middle" font-family="monospace" font-size="13" fill="#111111">CLI</text><rect x="344" y="2064" width="120" height="32" rx="4" ry="4" fill="#f6f6f6" stroke="#111" stroke-width="1"/><text x="404" y="2085" text-anchor="middle" font-family="monospace" font-size="13" fill="#111111">Preprocessor</text><rect x="504" y="2064" width="120" height="32" rx="4" ry="4" fill="#f6f6f6" stroke="#111" stroke-width="1"/><text x="564" y="2085" text-anchor="middle" font-family="monospace" font-size="13" fill="#111111">Parser</text><rect x="664" y="2064" width="120" height="32" rx="4" ry="4" fill="#f6f6f6" stroke="#111" stroke-width="1"/><text x="724" y="2085" text-anchor="middle" font-family="monospace" font-size="13" fill="#111111">Normalizer</text><rect x="824" y="2064" width="120" height="32" rx="4" ry="4" fill="#f6f6f6" stroke="#111" stroke-width="1"/><text x="884" y="2085" text-anchor="middle" font-family="monospace" font-size="13" fill="#111111">Renderer</text><rect x="984" y="2064" width="120" height="32" rx="4" ry="4" fill="#f6f6f6" stroke="#111" stroke-width="1"/><text x="1044" y="2085" text-anchor="middle" font-family="monospace" font-size="13" fill="#111111">Output</text></svg>