<svg xmlns="http://www.w3.org/2000/svg" width="1168" height="1880" viewBox="0 0 1168 1880"><rect width="100%" height="100%" fill="white"/><rect x="24" y="24" width="120" height="32" rx="4" ry="4" fill="#f6f6f6" stroke="#111" stroke-width="1"/><text x="84" y="45" text-anchor="middle" font-family="monospace" font-size="13">User</text><rect x="184" y="24" width="120" height="32" rx="4" ry="4" fill="#f6f6f6" stroke="#111" stroke-width="1"/><text x="244" y="45" text-anchor="middle" font-family="monospace" font-size="13">CLI</text><rect x="344" y="24" width="120" height="32" rx="4" ry="4" fill="#f6f6f6" stroke="#111" stroke-width="1"/><text x="404" y="45" text-anchor="middle" font-family="monospace" font-size="13">Preprocessor</text><rect x="504" y="24" width="120" height="32" rx="4" ry="4" fill="#f6f6f6" stroke="#111" stroke-width="1"/><text x="564" y="45" text-anchor="middle" font-family="monospace" font-size="13">Parser</text><rect x="664" y="24" width="120" height="32" rx="4" ry="4" fill="#f6f6f6" stroke="#111" stroke-width="1"/><text x="724" y="45" text-anchor="middle" font-family="monospace" font-size="13">Normalizer</text><rect x="824" y="24" width="120" height="32" rx="4" ry="4" fill="#f6f6f6" stroke="#111" stroke-width="1"/><text x="884" y="45" text-anchor="middle" font-family="monospace" font-size="13">Renderer</text><rect x="984" y="24" width="120" height="32" rx="4" ry="4" fill="#f6f6f6" stroke="#111" stroke-width="1"/><text x="1044" y="45" text-anchor="middle" font-family="monospace" font-size="13">Output</text><line x1="84" y1="56" x2="84" y2="1824" stroke="#555" stroke-width="1" stroke-dasharray="6 4"/><line x1="244" y1="56" x2="244" y2="1824" stroke="#555" stroke-width="1" stroke-dasharray="6 4"/><line x1="404" y1="56" x2="404" y2="1824" stroke="#555" stroke-width="1" stroke-dasharray="6 4"/><line x1="564" y1="56" x2="564" y2="1824" stroke="#555" stroke-width="1" stroke-dasharray="6 4"/><line x1="724" y1="56" x2="724" y2="1824" stroke="#555" stroke-width="1" stroke-dasharray="6 4"/><line x1="884" y1="56" x2="884" y2="1824" stroke="#555" stroke-width="1" stroke-dasharray="6 4"/><line x1="1044" y1="56" x2="1044" y2="1824" stroke="#555" stroke-width="1" stroke-dasharray="6 4"/><rect x="24" y="400" width="1120" height="160" rx="2" ry="2" fill="#fafafa" stroke="#666" stroke-width="1"/><text x="32" y="416" font-family="monospace" font-size="12" font-weight="600">alt preprocessor error</text><rect x="24" y="720" width="1120" height="120" rx="2" ry="2" fill="#fafafa" stroke="#666" stroke-width="1"/><text x="32" y="736" font-family="monospace" font-size="12" font-weight="600">opt parse warnings present</text><rect x="24" y="840" width="1120" height="160" rx="2" ry="2" fill="#fafafa" stroke="#666" stroke-width="1"/><text x="32" y="856" font-family="monospace" font-size="12" font-weight="600">alt parse error</text><rect x="24" y="1360" width="1120" height="160" rx="2" ry="2" fill="#fafafa" stroke="#666" stroke-width="1"/><text x="32" y="1376" font-family="monospace" font-size="12" font-weight="600">alt normalizer error</text><line x1="84" y1="80" x2="244" y2="80" stroke="#111" stroke-width="1.5"/><polygon points="244,80 236,75 236,85" fill="#111" stroke="#111" stroke-width="1"/><text x="92" y="72" text-anchor="start" font-family="monospace" font-size="12">puml hello.puml</text><line x1="244" y1="160" x2="404" y2="160" stroke="#111" stroke-width="1.5"/><polygon points="404,160 396,155 396,165" fill="#111" stroke="#111" stroke-width="1"/><text x="252" y="152" text-anchor="start" font-family="monospace" font-size="12">raw source text</text><line x1="404" y1="200" x2="448" y2="200" stroke="#111" stroke-width="1.5"/><polygon points="448,200 440,195 440,205" fill="#111" stroke="#111" stroke-width="1"/><text x="412" y="176" text-anchor="start" font-family="monospace" font-size="12">scan for !include</text><text x="412" y="192" text-anchor="start" font-family="monospace" font-size="12">/ !define</text><line x1="404" y1="280" x2="448" y2="280" stroke="#111" stroke-width="1.5"/><polygon points="448,280 440,275 440,285" fill="#111" stroke="#111" stroke-width="1"/><text x="412" y="256" text-anchor="start" font-family="monospace" font-size="12">resolve file</text><text x="412" y="272" text-anchor="start" font-family="monospace" font-size="12">includes</text><line x1="404" y1="360" x2="448" y2="360" stroke="#111" stroke-width="1.5"/><polygon points="448,360 440,355 440,365" fill="#111" stroke="#111" stroke-width="1"/><text x="412" y="352" text-anchor="start" font-family="monospace" font-size="12">expand macros</text><line x1="404" y1="440" x2="244" y2="440" stroke="#111" stroke-width="1.5" stroke-dasharray="6 4"/><polygon points="244,440 252,435 252,445" fill="#111" stroke="#111" stroke-width="1"/><text x="252" y="432" text-anchor="start" font-family="monospace" font-size="12">Diagnostic(Error)</text><line x1="244" y1="480" x2="84" y2="480" stroke="#111" stroke-width="1.5" stroke-dasharray="6 4"/><polygon points="84,480 92,475 92,485" fill="#111" stroke="#111" stroke-width="1"/><text x="92" y="472" text-anchor="start" font-family="monospace" font-size="12">stderr + exit 1</text><line x1="404" y1="560" x2="244" y2="560" stroke="#111" stroke-width="1.5" stroke-dasharray="6 4"/><polygon points="244,560 252,555 252,565" fill="#111" stroke="#111" stroke-width="1"/><text x="252" y="552" text-anchor="start" font-family="monospace" font-size="12">expanded source</text><line x1="244" y1="600" x2="564" y2="600" stroke="#111" stroke-width="1.5"/><polygon points="564,600 556,595 556,605" fill="#111" stroke="#111" stroke-width="1"/><text x="252" y="592" text-anchor="start" font-family="monospace" font-size="12">expanded source + ParsePipelineOptions</text><line x1="564" y1="640" x2="608" y2="640" stroke="#111" stroke-width="1.5"/><polygon points="608,640 600,635 600,645" fill="#111" stroke="#111" stroke-width="1"/><text x="572" y="632" text-anchor="start" font-family="monospace" font-size="12">tokenise</text><line x1="564" y1="680" x2="608" y2="680" stroke="#111" stroke-width="1.5"/><polygon points="608,680 600,675 600,685" fill="#111" stroke="#111" stroke-width="1"/><text x="572" y="672" text-anchor="start" font-family="monospace" font-size="12">build AST nodes</text><line x1="564" y1="760" x2="244" y2="760" stroke="#111" stroke-width="1.5" stroke-dasharray="6 4"/><polygon points="244,760 252,755 252,765" fill="#111" stroke="#111" stroke-width="1"/><text x="252" y="752" text-anchor="start" font-family="monospace" font-size="12">Diagnostic(Warning)</text><line x1="564" y1="880" x2="244" y2="880" stroke="#111" stroke-width="1.5" stroke-dasharray="6 4"/><polygon points="244,880 252,875 252,885" fill="#111" stroke="#111" stroke-width="1"/><text x="252" y="872" text-anchor="start" font-family="monospace" font-size="12">Diagnostic(Error)</text><line x1="244" y1="920" x2="84" y2="920" stroke="#111" stroke-width="1.5" stroke-dasharray="6 4"/><polygon points="84,920 92,915 92,925" fill="#111" stroke="#111" stroke-width="1"/><text x="92" y="912" text-anchor="start" font-family="monospace" font-size="12">stderr + exit 1</text><line x1="564" y1="1000" x2="244" y2="1000" stroke="#111" stroke-width="1.5" stroke-dasharray="6 4"/><polygon points="244,1000 252,995 252,1005" fill="#111" stroke="#111" stroke-width="1"/><text x="252" y="992" text-anchor="start" font-family="monospace" font-size="12">Document (AST)</text><line x1="244" y1="1040" x2="724" y2="1040" stroke="#111" stroke-width="1.5"/><polygon points="724,1040 716,1035 716,1045" fill="#111" stroke="#111" stroke-width="1"/><text x="252" y="1032" text-anchor="start" font-family="monospace" font-size="12">Document + family hint</text><line x1="724" y1="1080" x2="768" y2="1080" stroke="#111" stroke-width="1.5"/><polygon points="768,1080 760,1075 760,1085" fill="#111" stroke="#111" stroke-width="1"/><text x="732" y="1056" text-anchor="start" font-family="monospace" font-size="12">detect diagram</text><text x="732" y="1072" text-anchor="start" font-family="monospace" font-size="12">family</text><line x1="724" y1="1160" x2="768" y2="1160" stroke="#111" stroke-width="1.5"/><polygon points="768,1160 760,1155 760,1165" fill="#111" stroke="#111" stroke-width="1"/><text x="732" y="1120" text-anchor="start" font-family="monospace" font-size="12">resolve</text><text x="732" y="1136" text-anchor="start" font-family="monospace" font-size="12">participants /</text><text x="732" y="1152" text-anchor="start" font-family="monospace" font-size="12">lifelines</text><line x1="724" y1="1280" x2="768" y2="1280" stroke="#111" stroke-width="1.5"/><polygon points="768,1280 760,1275 760,1285" fill="#111" stroke="#111" stroke-width="1"/><text x="732" y="1256" text-anchor="start" font-family="monospace" font-size="12">apply layout</text><text x="732" y="1272" text-anchor="start" font-family="monospace" font-size="12">constraints</text><line x1="724" y1="1400" x2="244" y2="1400" stroke="#111" stroke-width="1.5" stroke-dasharray="6 4"/><polygon points="244,1400 252,1395 252,1405" fill="#111" stroke="#111" stroke-width="1"/><text x="252" y="1392" text-anchor="start" font-family="monospace" font-size="12">Diagnostic(Error)</text><line x1="244" y1="1440" x2="84" y2="1440" stroke="#111" stroke-width="1.5" stroke-dasharray="6 4"/><polygon points="84,1440 92,1435 92,1445" fill="#111" stroke="#111" stroke-width="1"/><text x="92" y="1432" text-anchor="start" font-family="monospace" font-size="12">stderr + exit 1</text><line x1="724" y1="1520" x2="244" y2="1520" stroke="#111" stroke-width="1.5" stroke-dasharray="6 4"/><polygon points="244,1520 252,1515 252,1525" fill="#111" stroke="#111" stroke-width="1"/><text x="252" y="1512" text-anchor="start" font-family="monospace" font-size="12">NormalizedDocument</text><line x1="244" y1="1560" x2="884" y2="1560" stroke="#111" stroke-width="1.5"/><polygon points="884,1560 876,1555 876,1565" fill="#111" stroke="#111" stroke-width="1"/><text x="252" y="1552" text-anchor="start" font-family="monospace" font-size="12">NormalizedDocument + theme + format</text><line x1="884" y1="1600" x2="928" y2="1600" stroke="#111" stroke-width="1.5"/><polygon points="928,1600 920,1595 920,1605" fill="#111" stroke="#111" stroke-width="1"/><text x="892" y="1592" text-anchor="start" font-family="monospace" font-size="12">compute geometry</text><line x1="884" y1="1640" x2="928" y2="1640" stroke="#111" stroke-width="1.5"/><polygon points="928,1640 920,1635 920,1645" fill="#111" stroke="#111" stroke-width="1"/><text x="892" y="1632" text-anchor="start" font-family="monospace" font-size="12">apply skin params</text><line x1="884" y1="1680" x2="928" y2="1680" stroke="#111" stroke-width="1.5"/><polygon points="928,1680 920,1675 920,1685" fill="#111" stroke="#111" stroke-width="1"/><text x="892" y="1672" text-anchor="start" font-family="monospace" font-size="12">emit SVG nodes</text><line x1="884" y1="1720" x2="244" y2="1720" stroke="#111" stroke-width="1.5" stroke-dasharray="6 4"/><polygon points="244,1720 252,1715 252,1725" fill="#111" stroke="#111" stroke-width="1"/><text x="252" y="1712" text-anchor="start" font-family="monospace" font-size="12">rendered bytes</text><line x1="244" y1="1760" x2="1044" y2="1760" stroke="#111" stroke-width="1.5"/><polygon points="1044,1760 1036,1755 1036,1765" fill="#111" stroke="#111" stroke-width="1"/><text x="252" y="1752" text-anchor="start" font-family="monospace" font-size="12">write hello.svg</text><line x1="1044" y1="1800" x2="84" y2="1800" stroke="#111" stroke-width="1.5" stroke-dasharray="6 4"/><polygon points="84,1800 92,1795 92,1805" fill="#111" stroke="#111" stroke-width="1"/><text x="92" y="1792" text-anchor="start" font-family="monospace" font-size="12">hello.svg (exit 0)</text><path d="M117,120 H362 L372 130 V152 H117 Z" fill="#fff8c4" stroke="#111" stroke-width="1"/><path d="M362 120 V130 H372" fill="none" stroke="#111" stroke-width="1"/><text x="125" y="140" font-family="monospace" font-size="12"><tspan x="125"><tspan>resolve </tspan><tspan text-decoration="line-through">format, </tspan><tspan>dialect flags</tspan></tspan></text><rect x="24" y="1824" width="120" height="32" rx="4" ry="4" fill="#f6f6f6" stroke="#111" stroke-width="1"/><text x="84" y="1845" text-anchor="middle" font-family="monospace" font-size="13">User</text><rect x="184" y="1824" width="120" height="32" rx="4" ry="4" fill="#f6f6f6" stroke="#111" stroke-width="1"/><text x="244" y="1845" text-anchor="middle" font-family="monospace" font-size="13">CLI</text><rect x="344" y="1824" width="120" height="32" rx="4" ry="4" fill="#f6f6f6" stroke="#111" stroke-width="1"/><text x="404" y="1845" text-anchor="middle" font-family="monospace" font-size="13">Preprocessor</text><rect x="504" y="1824" width="120" height="32" rx="4" ry="4" fill="#f6f6f6" stroke="#111" stroke-width="1"/><text x="564" y="1845" text-anchor="middle" font-family="monospace" font-size="13">Parser</text><rect x="664" y="1824" width="120" height="32" rx="4" ry="4" fill="#f6f6f6" stroke="#111" stroke-width="1"/><text x="724" y="1845" text-anchor="middle" font-family="monospace" font-size="13">Normalizer</text><rect x="824" y="1824" width="120" height="32" rx="4" ry="4" fill="#f6f6f6" stroke="#111" stroke-width="1"/><text x="884" y="1845" text-anchor="middle" font-family="monospace" font-size="13">Renderer</text><rect x="984" y="1824" width="120" height="32" rx="4" ry="4" fill="#f6f6f6" stroke="#111" stroke-width="1"/><text x="1044" y="1845" text-anchor="middle" font-family="monospace" font-size="13">Output</text></svg>