<svg xmlns="http://www.w3.org/2000/svg" width="396" height="268" viewBox="0 0 396 268"><rect width="100%" height="100%" fill="white"/><text x="24" y="24" font-family="monospace" font-size="18" font-weight="600" fill="#111">Sprite reference</text><rect x="24" y="52" width="120" height="32" rx="4" ry="4" fill="#f6f6f6" stroke="#111" stroke-width="1"/><text x="84" y="73" text-anchor="middle" font-family="monospace" font-size="13" fill="#111111">Alice</text><rect x="184" y="52" width="120" height="32" rx="4" ry="4" fill="#f6f6f6" stroke="#111" stroke-width="1"/><text x="244" y="73" text-anchor="middle" font-family="monospace" font-size="13" fill="#111111">Bob</text><line x1="84" y1="84" x2="84" y2="212" stroke="#555" stroke-width="1" stroke-dasharray="6 4"/><line x1="244" y1="84" x2="244" y2="212" stroke="#555" stroke-width="1" stroke-dasharray="6 4"/><line x1="84" y1="116" x2="244" y2="116" stroke="#111" stroke-width="1.5"/><polygon points="244,116 236,111 236,121" fill="#111" stroke="#111" stroke-width="1"/><g data-creole-sprites="true"><text x="92.00" y="108" text-anchor="start" font-family="monospace" font-size="12" fill="#111">Open </text><g class="puml-sprite" data-sprite="ma_folder" transform="translate(127.00,95.00) scale(2.000)"><metadata data-sprite-width="8" data-sprite-height="8" data-sprite-gray-levels="16"/><rect x="1" y="1" width="1" height="1" fill="#2563eb" fill-opacity="0.267"/><rect x="2" y="1" width="1" height="1" fill="#2563eb" fill-opacity="0.267"/><rect x="3" y="1" width="1" height="1" fill="#2563eb" fill-opacity="0.267"/><rect x="4" y="1" width="1" height="1" fill="#2563eb" fill-opacity="0.267"/><rect x="5" y="1" width="1" height="1" fill="#2563eb" fill-opacity="0.267"/><rect x="0" y="2" width="1" height="1" fill="#2563eb" fill-opacity="0.267"/><rect x="1" y="2" width="1" height="1" fill="#2563eb" fill-opacity="1.000"/><rect x="2" y="2" width="1" height="1" fill="#2563eb" fill-opacity="1.000"/><rect x="3" y="2" width="1" height="1" fill="#2563eb" fill-opacity="1.000"/><rect x="4" y="2" width="1" height="1" fill="#2563eb" fill-opacity="1.000"/><rect x="5" y="2" width="1" height="1" fill="#2563eb" fill-opacity="1.000"/><rect x="6" y="2" width="1" height="1" fill="#2563eb" fill-opacity="0.267"/><rect x="0" y="3" width="1" height="1" fill="#2563eb" fill-opacity="0.267"/><rect x="1" y="3" width="1" height="1" fill="#2563eb" fill-opacity="1.000"/><rect x="2" y="3" width="1" height="1" fill="#2563eb" fill-opacity="0.267"/><rect x="3" y="3" width="1" height="1" fill="#2563eb" fill-opacity="0.267"/><rect x="4" y="3" width="1" height="1" fill="#2563eb" fill-opacity="0.267"/><rect x="5" y="3" width="1" height="1" fill="#2563eb" fill-opacity="1.000"/><rect x="6" y="3" width="1" height="1" fill="#2563eb" fill-opacity="0.267"/><rect x="0" y="4" width="1" height="1" fill="#2563eb" fill-opacity="0.267"/><rect x="1" y="4" width="1" height="1" fill="#2563eb" fill-opacity="1.000"/><rect x="2" y="4" width="1" height="1" fill="#2563eb" fill-opacity="1.000"/><rect x="3" y="4" width="1" height="1" fill="#2563eb" fill-opacity="1.000"/><rect x="4" y="4" width="1" height="1" fill="#2563eb" fill-opacity="1.000"/><rect x="5" y="4" width="1" height="1" fill="#2563eb" fill-opacity="1.000"/><rect x="6" y="4" width="1" height="1" fill="#2563eb" fill-opacity="0.267"/><rect x="0" y="5" width="1" height="1" fill="#2563eb" fill-opacity="0.267"/><rect x="1" y="5" width="1" height="1" fill="#2563eb" fill-opacity="1.000"/><rect x="2" y="5" width="1" height="1" fill="#2563eb" fill-opacity="0.267"/><rect x="3" y="5" width="1" height="1" fill="#2563eb" fill-opacity="0.267"/><rect x="4" y="5" width="1" height="1" fill="#2563eb" fill-opacity="0.267"/><rect x="5" y="5" width="1" height="1" fill="#2563eb" fill-opacity="1.000"/><rect x="6" y="5" width="1" height="1" fill="#2563eb" fill-opacity="0.267"/><rect x="0" y="6" width="1" height="1" fill="#2563eb" fill-opacity="0.267"/><rect x="1" y="6" width="1" height="1" fill="#2563eb" fill-opacity="1.000"/><rect x="2" y="6" width="1" height="1" fill="#2563eb" fill-opacity="1.000"/><rect x="3" y="6" width="1" height="1" fill="#2563eb" fill-opacity="1.000"/><rect x="4" y="6" width="1" height="1" fill="#2563eb" fill-opacity="1.000"/><rect x="5" y="6" width="1" height="1" fill="#2563eb" fill-opacity="1.000"/><rect x="6" y="6" width="1" height="1" fill="#2563eb" fill-opacity="0.267"/></g></g><line x1="244" y1="172" x2="84" y2="172" stroke="#111" stroke-width="1.5" stroke-dasharray="6 4"/><polygon points="84,172 92,167 92,177" fill="#111" stroke="#111" stroke-width="1"/><text x="92" y="148" text-anchor="start" font-family="monospace" font-size="12" fill="#111">listed with</text><text x="92" y="164" text-anchor="start" font-family="monospace" font-size="12" fill="#111">listsprites</text><rect x="24" y="212" width="120" height="32" rx="4" ry="4" fill="#f6f6f6" stroke="#111" stroke-width="1"/><text x="84" y="233" text-anchor="middle" font-family="monospace" font-size="13" fill="#111111">Alice</text><rect x="184" y="212" width="120" height="32" rx="4" ry="4" fill="#f6f6f6" stroke="#111" stroke-width="1"/><text x="244" y="233" text-anchor="middle" font-family="monospace" font-size="13" fill="#111111">Bob</text></svg>