<svg xmlns="http://www.w3.org/2000/svg" width="360" height="228" viewBox="0 0 360 228"><rect width="100%" height="100%" fill="white"/><text x="16" y="16" font-family="monospace" font-size="18" font-weight="600" fill="#111">Sprite reference</text><rect x="16" y="44" width="80" height="32" rx="4" ry="4" fill="#f6f6f6" stroke="#111" stroke-width="1"/><text x="56" y="65" text-anchor="middle" font-family="monospace" font-size="13" fill="#111111">Alice</text><rect x="116" y="44" width="80" height="32" rx="4" ry="4" fill="#f6f6f6" stroke="#111" stroke-width="1"/><text x="156" y="65" text-anchor="middle" font-family="monospace" font-size="13" fill="#111111">Bob</text><line x1="56" y1="76" x2="56" y2="180" stroke="#555" stroke-width="1" stroke-dasharray="6 4"/><line x1="156" y1="76" x2="156" y2="180" stroke="#555" stroke-width="1" stroke-dasharray="6 4"/><line x1="56" y1="108" x2="156" y2="108" stroke="#111" stroke-width="1.5"/><polygon points="156,108 148,103 148,113" fill="#111" stroke="#111" stroke-width="1"/><g data-creole-sprites="true"><text x="64.00" y="100" text-anchor="start" font-family="monospace" font-size="12" fill="#111">Open </text><g class="puml-sprite" data-sprite="ma_folder" transform="translate(99.00,87.00) scale(2.000)"><metadata data-sprite-width="8" data-sprite-height="8" data-sprite-gray-levels="16"/><rect x="1" y="1" width="1" height="1" fill="#2563eb" fill-opacity="0.267"/><rect x="2" y="1" width="1" height="1" fill="#2563eb" fill-opacity="0.267"/><rect x="3" y="1" width="1" height="1" fill="#2563eb" fill-opacity="0.267"/><rect x="4" y="1" width="1" height="1" fill="#2563eb" fill-opacity="0.267"/><rect x="5" y="1" width="1" height="1" fill="#2563eb" fill-opacity="0.267"/><rect x="0" y="2" width="1" height="1" fill="#2563eb" fill-opacity="0.267"/><rect x="1" y="2" width="1" height="1" fill="#2563eb" fill-opacity="1.000"/><rect x="2" y="2" width="1" height="1" fill="#2563eb" fill-opacity="1.000"/><rect x="3" y="2" width="1" height="1" fill="#2563eb" fill-opacity="1.000"/><rect x="4" y="2" width="1" height="1" fill="#2563eb" fill-opacity="1.000"/><rect x="5" y="2" width="1" height="1" fill="#2563eb" fill-opacity="1.000"/><rect x="6" y="2" width="1" height="1" fill="#2563eb" fill-opacity="0.267"/><rect x="0" y="3" width="1" height="1" fill="#2563eb" fill-opacity="0.267"/><rect x="1" y="3" width="1" height="1" fill="#2563eb" fill-opacity="1.000"/><rect x="2" y="3" width="1" height="1" fill="#2563eb" fill-opacity="0.267"/><rect x="3" y="3" width="1" height="1" fill="#2563eb" fill-opacity="0.267"/><rect x="4" y="3" width="1" height="1" fill="#2563eb" fill-opacity="0.267"/><rect x="5" y="3" width="1" height="1" fill="#2563eb" fill-opacity="1.000"/><rect x="6" y="3" width="1" height="1" fill="#2563eb" fill-opacity="0.267"/><rect x="0" y="4" width="1" height="1" fill="#2563eb" fill-opacity="0.267"/><rect x="1" y="4" width="1" height="1" fill="#2563eb" fill-opacity="1.000"/><rect x="2" y="4" width="1" height="1" fill="#2563eb" fill-opacity="1.000"/><rect x="3" y="4" width="1" height="1" fill="#2563eb" fill-opacity="1.000"/><rect x="4" y="4" width="1" height="1" fill="#2563eb" fill-opacity="1.000"/><rect x="5" y="4" width="1" height="1" fill="#2563eb" fill-opacity="1.000"/><rect x="6" y="4" width="1" height="1" fill="#2563eb" fill-opacity="0.267"/><rect x="0" y="5" width="1" height="1" fill="#2563eb" fill-opacity="0.267"/><rect x="1" y="5" width="1" height="1" fill="#2563eb" fill-opacity="1.000"/><rect x="2" y="5" width="1" height="1" fill="#2563eb" fill-opacity="0.267"/><rect x="3" y="5" width="1" height="1" fill="#2563eb" fill-opacity="0.267"/><rect x="4" y="5" width="1" height="1" fill="#2563eb" fill-opacity="0.267"/><rect x="5" y="5" width="1" height="1" fill="#2563eb" fill-opacity="1.000"/><rect x="6" y="5" width="1" height="1" fill="#2563eb" fill-opacity="0.267"/><rect x="0" y="6" width="1" height="1" fill="#2563eb" fill-opacity="0.267"/><rect x="1" y="6" width="1" height="1" fill="#2563eb" fill-opacity="1.000"/><rect x="2" y="6" width="1" height="1" fill="#2563eb" fill-opacity="1.000"/><rect x="3" y="6" width="1" height="1" fill="#2563eb" fill-opacity="1.000"/><rect x="4" y="6" width="1" height="1" fill="#2563eb" fill-opacity="1.000"/><rect x="5" y="6" width="1" height="1" fill="#2563eb" fill-opacity="1.000"/><rect x="6" y="6" width="1" height="1" fill="#2563eb" fill-opacity="0.267"/></g></g><line x1="156" y1="152" x2="56" y2="152" stroke="#111" stroke-width="1.5" stroke-dasharray="6 4"/><polygon points="56,152 64,147 64,157" fill="#111" stroke="#111" stroke-width="1"/><text x="64" y="128" text-anchor="start" font-family="monospace" font-size="12" fill="#111">listed with</text><text x="64" y="144" text-anchor="start" font-family="monospace" font-size="12" fill="#111">listsprites</text><rect x="16" y="180" width="80" height="32" rx="4" ry="4" fill="#f6f6f6" stroke="#111" stroke-width="1"/><text x="56" y="201" text-anchor="middle" font-family="monospace" font-size="13" fill="#111111">Alice</text><rect x="116" y="180" width="80" height="32" rx="4" ry="4" fill="#f6f6f6" stroke="#111" stroke-width="1"/><text x="156" y="201" text-anchor="middle" font-family="monospace" font-size="13" fill="#111111">Bob</text></svg>