<svg xmlns="http://www.w3.org/2000/svg" width="639" height="376" viewBox="0 0 639 376"><rect width="100%" height="100%" fill="white"/><text x="24" y="24" font-family="monospace" font-size="18" font-weight="600" fill="#111">Built-in OpenIconic SVG</text><text x="24" y="48" font-family="monospace" font-size="18" font-weight="600" fill="#111">icons</text><rect x="24" y="72" width="120" height="32" rx="4" ry="4" fill="#f6f6f6" stroke="#111" stroke-width="1"/><text x="84" y="93" text-anchor="middle" font-family="monospace" font-size="13" fill="#111111">Alice</text><rect x="184" y="72" width="120" height="32" rx="4" ry="4" fill="#f6f6f6" stroke="#111" stroke-width="1"/><text x="244" y="93" text-anchor="middle" font-family="monospace" font-size="13" fill="#111111">Bob</text><line x1="84" y1="104" x2="84" y2="320" stroke="#555" stroke-width="1" stroke-dasharray="6 4"/><line x1="244" y1="104" x2="244" y2="320" stroke="#555" stroke-width="1" stroke-dasharray="6 4"/><line x1="84" y1="136" x2="244" y2="136" stroke="#111" stroke-width="1.5"/><polygon points="244,136 236,131 236,141" fill="#111" stroke="#111" stroke-width="1"/><g data-creole-sprites="true"><text x="92.00" y="128" text-anchor="start" font-family="monospace" font-size="12" fill="#111">Open </text><g class="puml-sprite puml-sprite-svg" data-sprite="folder" transform="translate(127.00,115.00) scale(2.000)" fill="#2563eb"><svg xmlns="http://www.w3.org/2000/svg" width="8" height="8" viewBox="0 0 8 8"><path d="M0 0v2h8v-1h-5v-1h-3zm0 3v4.5c0 .28.22.5.5.5h7c.28 0 .5-.22.5-.5v-4.5h-8z"/></svg></g><text x="146.00" y="128" text-anchor="start" font-family="monospace" font-size="12" fill="#111"> project</text></g><line x1="244" y1="192" x2="84" y2="192" stroke="#111" stroke-width="1.5" stroke-dasharray="6 4"/><polygon points="84,192 92,187 92,197" fill="#111" stroke="#111" stroke-width="1"/><g data-creole-sprites="true"><text x="92.00" y="168" text-anchor="start" font-family="monospace" font-size="12" fill="#111">Upload </text><g class="puml-sprite puml-sprite-svg" data-sprite="cloud-upload" transform="translate(141.00,163.00) scale(1.000)" fill="#111"><svg xmlns="http://www.w3.org/2000/svg" width="8" height="8" viewBox="0 0 8 8"><path d="M4.5 0c-1.21 0-2.27.86-2.5 2-1.1 0-2 .9-2 2 0 .37.11.71.28 1h2.22l2-2 2 2h1.41c.06-.16.09-.32.09-.5 0-.65-.42-1.29-1-1.5v-.5c0-1.38-1.12-2.5-2.5-2.5zm0 4.5l-2.5 2.5h2v.5a.5.5 0 1 0 1 0v-.5h2l-2.5-2.5z"/></svg></g></g><text x="92" y="184" text-anchor="start" font-family="monospace" font-size="12" fill="#111">complete</text><path d="M24,248 H601 L615 262 V296 H24 Z" fill="#fff8c4" stroke="#111" stroke-width="1"/><path d="M601 248 V262 H615" fill="none" stroke="#111" stroke-width="1"/><text x="32" y="268" font-family="monospace" font-size="12" fill="#111">Built-in MIT OpenIconic paths render as SVG:</text><g data-creole-sprites="true"><g class="puml-sprite puml-sprite-svg" data-sprite="person" transform="translate(32.00,271.00) scale(2.000)" fill="#0f766e"><svg xmlns="http://www.w3.org/2000/svg" width="8" height="8" viewBox="0 0 8 8"><path d="M4 0c-1.1 0-2 1.12-2 2.5s.9 2.5 2 2.5 2-1.12 2-2.5-.9-2.5-2-2.5zm-2.09 5c-1.06.05-1.91.92-1.91 2v1h8v-1c0-1.08-.84-1.95-1.91-2-.54.61-1.28 1-2.09 1-.81 0-1.55-.39-2.09-1z"/></svg></g><text x="51.00" y="284" font-family="monospace" font-size="12" fill="#111"> user  </text><g class="puml-sprite puml-sprite-svg" data-sprite="lock-locked" transform="translate(100.00,271.00) scale(2.000)" fill="#b91c1c"><svg xmlns="http://www.w3.org/2000/svg" width="8" height="8" viewBox="0 0 8 8"><path d="M3 0c-1.1 0-2 .9-2 2v1h-1v4h6v-4h-1v-1c0-1.1-.9-2-2-2zm0 1c.56 0 1 .44 1 1v1h-2v-1c0-.56.44-1 1-1z" transform="translate(1)"/></svg></g><text x="119.00" y="284" font-family="monospace" font-size="12" fill="#111"> locked</text></g><rect x="24" y="320" width="120" height="32" rx="4" ry="4" fill="#f6f6f6" stroke="#111" stroke-width="1"/><text x="84" y="341" text-anchor="middle" font-family="monospace" font-size="13" fill="#111111">Alice</text><rect x="184" y="320" width="120" height="32" rx="4" ry="4" fill="#f6f6f6" stroke="#111" stroke-width="1"/><text x="244" y="341" text-anchor="middle" font-family="monospace" font-size="13" fill="#111111">Bob</text></svg>