<svg xmlns="http://www.w3.org/2000/svg" width="459" height="352" viewBox="0 0 459 352"><rect width="100%" height="100%" fill="white"/><text x="24" y="24" font-family="monospace" font-size="18" font-weight="600" fill="#111">Built-in Bootstrap Icons SVG</text><text x="24" y="48" font-family="monospace" font-size="18" font-weight="600" fill="#111">sprites</text><rect x="24" y="72" width="120" height="32" rx="4" ry="4" fill="#f6f6f6" stroke="#111" stroke-width="1"/><text x="84" y="93" text-anchor="middle" font-family="monospace" font-size="13" fill="#111111">Alice</text><rect x="184" y="72" width="120" height="32" rx="4" ry="4" fill="#f6f6f6" stroke="#111" stroke-width="1"/><text x="244" y="93" text-anchor="middle" font-family="monospace" font-size="13" fill="#111111">Bob</text><line x1="84" y1="104" x2="84" y2="296" stroke="#555" stroke-width="1" stroke-dasharray="6 4"/><line x1="244" y1="104" x2="244" y2="296" stroke="#555" stroke-width="1" stroke-dasharray="6 4"/><line x1="84" y1="136" x2="244" y2="136" stroke="#111" stroke-width="1.5"/><polygon points="244,136 236,131 236,141" fill="#111" stroke="#111" stroke-width="1"/><g data-creole-sprites="true"><text x="92.00" y="128" text-anchor="start" font-family="monospace" font-size="12" fill="#111">Browse </text><g class="puml-sprite puml-sprite-svg" data-sprite="bi-globe" transform="translate(141.00,99.00) scale(2.000)" fill="#7952b3"><svg xmlns="http://www.w3.org/2000/svg" width="16" height="16" class="bi bi-globe" viewBox="0 0 16 16"><path d="M0 8a8 8 0 1 1 16 0A8 8 0 0 1 0 8m7.5-6.923c-.67.204-1.335.82-1.887 1.855A8 8 0 0 0 5.145 4H7.5zM4.09 4a9.3 9.3 0 0 1 .64-1.539 7 7 0 0 1 .597-.933A7.03 7.03 0 0 0 2.255 4zm-.582 3.5c.03-.877.138-1.718.312-2.5H1.674a7 7 0 0 0-.656 2.5zM4.847 5a12.5 12.5 0 0 0-.338 2.5H7.5V5zM8.5 5v2.5h2.99a12.5 12.5 0 0 0-.337-2.5zM4.51 8.5a12.5 12.5 0 0 0 .337 2.5H7.5V8.5zm3.99 0V11h2.653c.187-.765.306-1.608.338-2.5zM5.145 12q.208.58.468 1.068c.552 1.035 1.218 1.65 1.887 1.855V12zm.182 2.472a7 7 0 0 1-.597-.933A9.3 9.3 0 0 1 4.09 12H2.255a7 7 0 0 0 3.072 2.472M3.82 11a13.7 13.7 0 0 1-.312-2.5h-2.49c.062.89.291 1.733.656 2.5zm6.853 3.472A7 7 0 0 0 13.745 12H11.91a9.3 9.3 0 0 1-.64 1.539 7 7 0 0 1-.597.933M8.5 12v2.923c.67-.204 1.335-.82 1.887-1.855q.26-.487.468-1.068zm3.68-1h2.146c.365-.767.594-1.61.656-2.5h-2.49a13.7 13.7 0 0 1-.312 2.5m2.802-3.5a7 7 0 0 0-.656-2.5H12.18c.174.782.282 1.623.312 2.5zM11.27 2.461c.247.464.462.98.64 1.539h1.835a7 7 0 0 0-3.072-2.472c.218.284.418.598.597.933M10.855 4a8 8 0 0 0-.468-1.068C9.835 1.897 9.17 1.282 8.5 1.077V4z"/></svg></g><text x="176.00" y="128" text-anchor="start" font-family="monospace" font-size="12" fill="#111"> docs</text></g><line x1="244" y1="176" x2="84" y2="176" stroke="#111" stroke-width="1.5" stroke-dasharray="6 4"/><polygon points="84,176 92,171 92,181" fill="#111" stroke="#111" stroke-width="1"/><g data-creole-sprites="true"><text x="92.00" y="168" text-anchor="start" font-family="monospace" font-size="12" fill="#111">Ship </text><g class="puml-sprite puml-sprite-svg" data-sprite="bi-box-seam" transform="translate(127.00,139.00) scale(2.000)" fill="#0d6efd"><svg xmlns="http://www.w3.org/2000/svg" width="16" height="16" class="bi bi-box-seam" viewBox="0 0 16 16"><path d="M8.186 1.113a.5.5 0 0 0-.372 0L1.846 3.5l2.404.961L10.404 2zm3.564 1.426L5.596 5 8 5.961 14.154 3.5zm3.25 1.7-6.5 2.6v7.922l6.5-2.6V4.24zM7.5 14.762V6.838L1 4.239v7.923zM7.443.184a1.5 1.5 0 0 1 1.114 0l7.129 2.852A.5.5 0 0 1 16 3.5v8.662a1 1 0 0 1-.629.928l-7.185 2.874a.5.5 0 0 1-.372 0L.63 13.09a1 1 0 0 1-.63-.928V3.5a.5.5 0 0 1 .314-.464z"/></svg></g><text x="162.00" y="168" text-anchor="start" font-family="monospace" font-size="12" fill="#111"> package</text></g><path d="M24,208 H405 L419 222 V272 H24 Z" fill="#fff8c4" stroke="#111" stroke-width="1"/><path d="M405 208 V222 H419" fill="none" stroke="#111" stroke-width="1"/><text x="32" y="228" font-family="monospace" font-size="12" fill="#111">Bootstrap Icons use the PlantUML stdlib `bi-` prefix:</text><g data-creole-sprites="true"><g class="puml-sprite puml-sprite-svg" data-sprite="bi-bootstrap-fill" transform="translate(32.00,231.00) scale(1.000)" fill="#7952b3"><svg xmlns="http://www.w3.org/2000/svg" width="16" height="16" class="bi bi-bootstrap-fill" viewBox="0 0 16 16"><path d="M6.375 7.125V4.658h1.78c.973 0 1.542.457 1.542 1.237 0 .802-.604 1.23-1.764 1.23zm0 3.762h1.898c1.184 0 1.81-.48 1.81-1.377 0-.885-.65-1.348-1.886-1.348H6.375z"/><path d="M4.002 0a4 4 0 0 0-4 4v8a4 4 0 0 0 4 4h8a4 4 0 0 0 4-4V4a4 4 0 0 0-4-4zm1.06 12V3.545h3.399c1.587 0 2.543.809 2.543 2.11 0 .884-.65 1.675-1.483 1.816v.1c1.143.117 1.904.931 1.904 2.033 0 1.488-1.084 2.396-2.888 2.396z"/></svg></g><text x="51.00" y="244" font-family="monospace" font-size="12" fill="#111"> bootstrap</text></g><g data-creole-sprites="true"><g class="puml-sprite puml-sprite-svg" data-sprite="bi-shield-check" transform="translate(32.00,247.00) scale(1.000)" fill="#198754"><svg xmlns="http://www.w3.org/2000/svg" width="16" height="16" class="bi bi-shield-check" viewBox="0 0 16 16"><path d="M5.338 1.59a61 61 0 0 0-2.837.856.48.48 0 0 0-.328.39c-.554 4.157.726 7.19 2.253 9.188a10.7 10.7 0 0 0 2.287 2.233c.346.244.652.42.893.533q.18.085.293.118a1 1 0 0 0 .101.025 1 1 0 0 0 .1-.025q.114-.034.294-.118c.24-.113.547-.29.893-.533a10.7 10.7 0 0 0 2.287-2.233c1.527-1.997 2.807-5.031 2.253-9.188a.48.48 0 0 0-.328-.39c-.651-.213-1.75-.56-2.837-.855C9.552 1.29 8.531 1.067 8 1.067c-.53 0-1.552.223-2.662.524zM5.072.56C6.157.265 7.31 0 8 0s1.843.265 2.928.56c1.11.3 2.229.655 2.887.87a1.54 1.54 0 0 1 1.044 1.262c.596 4.477-.787 7.795-2.465 9.99a11.8 11.8 0 0 1-2.517 2.453 7 7 0 0 1-1.048.625c-.28.132-.581.24-.829.24s-.548-.108-.829-.24a7 7 0 0 1-1.048-.625 11.8 11.8 0 0 1-2.517-2.453C1.928 10.487.545 7.169 1.141 2.692A1.54 1.54 0 0 1 2.185 1.43 63 63 0 0 1 5.072.56"/><path d="M10.854 5.146a.5.5 0 0 1 0 .708l-3 3a.5.5 0 0 1-.708 0l-1.5-1.5a.5.5 0 1 1 .708-.708L7.5 7.793l2.646-2.647a.5.5 0 0 1 .708 0"/></svg></g><text x="51.00" y="260" font-family="monospace" font-size="12" fill="#111"> checked</text></g><rect x="24" y="296" width="120" height="32" rx="4" ry="4" fill="#f6f6f6" stroke="#111" stroke-width="1"/><text x="84" y="317" text-anchor="middle" font-family="monospace" font-size="13" fill="#111111">Alice</text><rect x="184" y="296" width="120" height="32" rx="4" ry="4" fill="#f6f6f6" stroke="#111" stroke-width="1"/><text x="244" y="317" text-anchor="middle" font-family="monospace" font-size="13" fill="#111111">Bob</text></svg>