<svg xmlns="http://www.w3.org/2000/svg" width="507" height="572" viewBox="0 0 507 572"><rect width="100%" height="100%" fill="white"/><text x="16" y="16" font-family="monospace" font-size="18" font-weight="600" fill="#111">Legacy Material2</text><text x="16" y="40" font-family="monospace" font-size="18" font-weight="600" fill="#111">stdlib aliases</text><rect x="16" y="64" width="80" height="32" rx="4" ry="4" fill="#f6f6f6" stroke="#111" stroke-width="1"/><text x="56" y="85" text-anchor="middle" font-family="monospace" font-size="13" fill="#111111">archive</text><rect x="116" y="64" width="80" height="32" rx="4" ry="4" fill="#f6f6f6" stroke="#111" stroke-width="1"/><text x="156" y="85" text-anchor="middle" font-family="monospace" font-size="13" fill="#111111">home</text><line x1="56" y1="96" x2="56" y2="524" stroke="#555" stroke-width="1" stroke-dasharray="6 4"/><line x1="156" y1="96" x2="156" y2="524" stroke="#555" stroke-width="1" stroke-dasharray="6 4"/><path d="M 56 192 L 92 192 Q 100 192 100 200 L 100 216 Q 100 224 92 224 L 64 224" fill="none" stroke="#111" stroke-width="1.5"/><polygon points="56,224 64,219 64,229" fill="#111" stroke="#111" stroke-width="1"/><text x="64" y="120" text-anchor="start" font-family="monospace" font-size="12" fill="#111">[Material</text><text x="64" y="136" text-anchor="start" font-family="monospace" font-size="12" fill="#111">folder_mo</text><text x="64" y="152" text-anchor="start" font-family="monospace" font-size="12" fill="#111">ve]</text><text x="64" y="168" text-anchor="start" font-family="monospace" font-size="12" fill="#111">Archive</text><text x="64" y="184" text-anchor="start" font-family="monospace" font-size="12" fill="#111">Folder</text><path d="M 156 316 L 192 316 Q 200 316 200 324 L 200 340 Q 200 348 192 348 L 164 348" fill="none" stroke="#111" stroke-width="1.5"/><polygon points="156,348 164,343 164,353" fill="#111" stroke="#111" stroke-width="1"/><text x="164" y="260" text-anchor="start" font-family="monospace" font-size="12" fill="#111">[Material</text><text x="164" y="276" text-anchor="start" font-family="monospace" font-size="12" fill="#111">folder]</text><text x="164" y="292" text-anchor="start" font-family="monospace" font-size="12" fill="#111">Home</text><text x="164" y="308" text-anchor="start" font-family="monospace" font-size="12" fill="#111">Folder</text><line x1="56" y1="412" x2="156" y2="412" stroke="#111" stroke-width="1.5"/><polygon points="156,412 148,407 148,417" fill="#111" stroke="#111" stroke-width="1"/><g data-creole-sprites="true"><text x="64.00" y="372" text-anchor="start" font-family="monospace" font-size="12" fill="#111">restore </text><g class="puml-sprite" data-sprite="ma_folder_move" transform="translate(120.00,359.00) scale(2.000)"><metadata data-sprite-width="8" data-sprite-height="8" data-sprite-gray-levels="16"/><rect x="1" y="1" width="1" height="1" fill="#1565c0" fill-opacity="0.267"/><rect x="2" y="1" width="1" height="1" fill="#1565c0" fill-opacity="0.267"/><rect x="3" y="1" width="1" height="1" fill="#1565c0" fill-opacity="0.267"/><rect x="4" y="1" width="1" height="1" fill="#1565c0" fill-opacity="0.267"/><rect x="5" y="1" width="1" height="1" fill="#1565c0" fill-opacity="0.267"/><rect x="0" y="2" width="1" height="1" fill="#1565c0" fill-opacity="0.267"/><rect x="1" y="2" width="1" height="1" fill="#1565c0" fill-opacity="1.000"/><rect x="2" y="2" width="1" height="1" fill="#1565c0" fill-opacity="1.000"/><rect x="3" y="2" width="1" height="1" fill="#1565c0" fill-opacity="1.000"/><rect x="4" y="2" width="1" height="1" fill="#1565c0" fill-opacity="1.000"/><rect x="5" y="2" width="1" height="1" fill="#1565c0" fill-opacity="1.000"/><rect x="6" y="2" width="1" height="1" fill="#1565c0" fill-opacity="0.267"/><rect x="0" y="3" width="1" height="1" fill="#1565c0" fill-opacity="0.267"/><rect x="1" y="3" width="1" height="1" fill="#1565c0" fill-opacity="1.000"/><rect x="2" y="3" width="1" height="1" fill="#1565c0" fill-opacity="0.267"/><rect x="3" y="3" width="1" height="1" fill="#1565c0" fill-opacity="0.267"/><rect x="4" y="3" width="1" height="1" fill="#1565c0" fill-opacity="0.267"/><rect x="5" y="3" width="1" height="1" fill="#1565c0" fill-opacity="1.000"/><rect x="6" y="3" width="1" height="1" fill="#1565c0" fill-opacity="0.267"/><rect x="0" y="4" width="1" height="1" fill="#1565c0" fill-opacity="0.267"/><rect x="1" y="4" width="1" height="1" fill="#1565c0" fill-opacity="1.000"/><rect x="2" y="4" width="1" height="1" fill="#1565c0" fill-opacity="1.000"/><rect x="3" y="4" width="1" height="1" fill="#1565c0" fill-opacity="1.000"/><rect x="5" y="4" width="1" height="1" fill="#1565c0" fill-opacity="1.000"/><rect x="6" y="4" width="1" height="1" fill="#1565c0" fill-opacity="0.267"/><rect x="0" y="5" width="1" height="1" fill="#1565c0" fill-opacity="0.267"/><rect x="1" y="5" width="1" height="1" fill="#1565c0" fill-opacity="1.000"/><rect x="2" y="5" width="1" height="1" fill="#1565c0" fill-opacity="0.267"/><rect x="3" y="5" width="1" height="1" fill="#1565c0" fill-opacity="0.267"/><rect x="4" y="5" width="1" height="1" fill="#1565c0" fill-opacity="1.000"/><rect x="5" y="5" width="1" height="1" fill="#1565c0" fill-opacity="0.267"/><rect x="6" y="5" width="1" height="1" fill="#1565c0" fill-opacity="0.267"/><rect x="0" y="6" width="1" height="1" fill="#1565c0" fill-opacity="0.267"/><rect x="1" y="6" width="1" height="1" fill="#1565c0" fill-opacity="1.000"/><rect x="2" y="6" width="1" height="1" fill="#1565c0" fill-opacity="1.000"/><rect x="3" y="6" width="1" height="1" fill="#1565c0" fill-opacity="1.000"/><rect x="4" y="6" width="1" height="1" fill="#1565c0" fill-opacity="1.000"/><rect x="5" y="6" width="1" height="1" fill="#1565c0" fill-opacity="1.000"/><rect x="6" y="6" width="1" height="1" fill="#1565c0" fill-opacity="0.267"/></g></g><text x="64" y="388" text-anchor="start" font-family="monospace" font-size="12" fill="#111">old include</text><text x="64" y="404" text-anchor="start" font-family="monospace" font-size="12" fill="#111">path</text><path d="M16,456 H477 L491 470 V500 H16 Z" fill="#fff8c4" stroke="#111" stroke-width="1"/><path d="M477 456 V470 H491" fill="none" stroke="#111" stroke-width="1"/><text x="24" y="476" font-family="monospace" font-size="12" fill="#111">&lt;material2.1.19/...&gt; and &lt;material2/...&gt; resolve to the bundled</text><text x="24" y="492" font-family="monospace" font-size="12" fill="#111">deterministic Material subset, including legacy MA_* macro arity.</text><rect x="16" y="524" width="80" height="32" rx="4" ry="4" fill="#f6f6f6" stroke="#111" stroke-width="1"/><text x="56" y="545" text-anchor="middle" font-family="monospace" font-size="13" fill="#111111">archive</text><rect x="116" y="524" width="80" height="32" rx="4" ry="4" fill="#f6f6f6" stroke="#111" stroke-width="1"/><text x="156" y="545" text-anchor="middle" font-family="monospace" font-size="13" fill="#111111">home</text></svg>