<svg xmlns="http://www.w3.org/2000/svg" width="527" height="536" viewBox="0 0 527 536"><rect width="100%" height="100%" fill="white"/><text x="24" y="24" font-family="monospace" font-size="18" font-weight="600" fill="#111">Legacy Material2 stdlib</text><text x="24" y="48" font-family="monospace" font-size="18" font-weight="600" fill="#111">aliases</text><rect x="24" y="72" width="120" height="32" rx="4" ry="4" fill="#f6f6f6" stroke="#111" stroke-width="1"/><text x="84" y="93" text-anchor="middle" font-family="monospace" font-size="13" fill="#111111">archive</text><rect x="184" y="72" width="120" height="32" rx="4" ry="4" fill="#f6f6f6" stroke="#111" stroke-width="1"/><text x="244" y="93" text-anchor="middle" font-family="monospace" font-size="13" fill="#111111">home</text><line x1="84" y1="104" x2="84" y2="480" stroke="#555" stroke-width="1" stroke-dasharray="6 4"/><line x1="244" y1="104" x2="244" y2="480" stroke="#555" stroke-width="1" stroke-dasharray="6 4"/><path d="M 84 168 L 128 168 L 128 200 L 92 200" fill="none" stroke="#111" stroke-width="1.5"/><polygon points="84,200 92,195 92,205" fill="#111" stroke="#111" stroke-width="1"/><text x="92" y="128" text-anchor="start" font-family="monospace" font-size="12" fill="#111">[Material</text><text x="92" y="144" text-anchor="start" font-family="monospace" font-size="12" fill="#111">folder_move]</text><text x="92" y="160" text-anchor="start" font-family="monospace" font-size="12" fill="#111">Archive Folder</text><path d="M 244 272 L 288 272 L 288 304 L 252 304" fill="none" stroke="#111" stroke-width="1.5"/><polygon points="244,304 252,299 252,309" fill="#111" stroke="#111" stroke-width="1"/><text x="252" y="248" text-anchor="start" font-family="monospace" font-size="12" fill="#111">[Material folder]</text><text x="252" y="264" text-anchor="start" font-family="monospace" font-size="12" fill="#111">Home Folder</text><line x1="84" y1="352" x2="244" y2="352" stroke="#111" stroke-width="1.5"/><polygon points="244,352 236,347 236,357" fill="#111" stroke="#111" stroke-width="1"/><g data-creole-sprites="true"><text x="92.00" y="328" text-anchor="start" font-family="monospace" font-size="12" fill="#111">restore </text><g class="puml-sprite" data-sprite="ma_folder_move" transform="translate(148.00,315.00) scale(2.000)"><metadata data-sprite-width="8" data-sprite-height="8" data-sprite-gray-levels="16"/><rect x="1" y="1" width="1" height="1" fill="#1565c0" fill-opacity="0.267"/><rect x="2" y="1" width="1" height="1" fill="#1565c0" fill-opacity="0.267"/><rect x="3" y="1" width="1" height="1" fill="#1565c0" fill-opacity="0.267"/><rect x="4" y="1" width="1" height="1" fill="#1565c0" fill-opacity="0.267"/><rect x="5" y="1" width="1" height="1" fill="#1565c0" fill-opacity="0.267"/><rect x="0" y="2" width="1" height="1" fill="#1565c0" fill-opacity="0.267"/><rect x="1" y="2" width="1" height="1" fill="#1565c0" fill-opacity="1.000"/><rect x="2" y="2" width="1" height="1" fill="#1565c0" fill-opacity="1.000"/><rect x="3" y="2" width="1" height="1" fill="#1565c0" fill-opacity="1.000"/><rect x="4" y="2" width="1" height="1" fill="#1565c0" fill-opacity="1.000"/><rect x="5" y="2" width="1" height="1" fill="#1565c0" fill-opacity="1.000"/><rect x="6" y="2" width="1" height="1" fill="#1565c0" fill-opacity="0.267"/><rect x="0" y="3" width="1" height="1" fill="#1565c0" fill-opacity="0.267"/><rect x="1" y="3" width="1" height="1" fill="#1565c0" fill-opacity="1.000"/><rect x="2" y="3" width="1" height="1" fill="#1565c0" fill-opacity="0.267"/><rect x="3" y="3" width="1" height="1" fill="#1565c0" fill-opacity="0.267"/><rect x="4" y="3" width="1" height="1" fill="#1565c0" fill-opacity="0.267"/><rect x="5" y="3" width="1" height="1" fill="#1565c0" fill-opacity="1.000"/><rect x="6" y="3" width="1" height="1" fill="#1565c0" fill-opacity="0.267"/><rect x="0" y="4" width="1" height="1" fill="#1565c0" fill-opacity="0.267"/><rect x="1" y="4" width="1" height="1" fill="#1565c0" fill-opacity="1.000"/><rect x="2" y="4" width="1" height="1" fill="#1565c0" fill-opacity="1.000"/><rect x="3" y="4" width="1" height="1" fill="#1565c0" fill-opacity="1.000"/><rect x="5" y="4" width="1" height="1" fill="#1565c0" fill-opacity="1.000"/><rect x="6" y="4" width="1" height="1" fill="#1565c0" fill-opacity="0.267"/><rect x="0" y="5" width="1" height="1" fill="#1565c0" fill-opacity="0.267"/><rect x="1" y="5" width="1" height="1" fill="#1565c0" fill-opacity="1.000"/><rect x="2" y="5" width="1" height="1" fill="#1565c0" fill-opacity="0.267"/><rect x="3" y="5" width="1" height="1" fill="#1565c0" fill-opacity="0.267"/><rect x="4" y="5" width="1" height="1" fill="#1565c0" fill-opacity="1.000"/><rect x="5" y="5" width="1" height="1" fill="#1565c0" fill-opacity="0.267"/><rect x="6" y="5" width="1" height="1" fill="#1565c0" fill-opacity="0.267"/><rect x="0" y="6" width="1" height="1" fill="#1565c0" fill-opacity="0.267"/><rect x="1" y="6" width="1" height="1" fill="#1565c0" fill-opacity="1.000"/><rect x="2" y="6" width="1" height="1" fill="#1565c0" fill-opacity="1.000"/><rect x="3" y="6" width="1" height="1" fill="#1565c0" fill-opacity="1.000"/><rect x="4" y="6" width="1" height="1" fill="#1565c0" fill-opacity="1.000"/><rect x="5" y="6" width="1" height="1" fill="#1565c0" fill-opacity="1.000"/><rect x="6" y="6" width="1" height="1" fill="#1565c0" fill-opacity="0.267"/></g><text x="167.00" y="328" text-anchor="start" font-family="monospace" font-size="12" fill="#111"> old</text></g><text x="92" y="344" text-anchor="start" font-family="monospace" font-size="12" fill="#111">include path</text><path d="M24,408 H489 L503 422 V456 H24 Z" fill="#fff8c4" stroke="#111" stroke-width="1"/><path d="M489 408 V422 H503" fill="none" stroke="#111" stroke-width="1"/><text x="32" y="428" font-family="monospace" font-size="12" fill="#111">&lt;material2.1.19/...&gt; and &lt;material2/...&gt; resolve to the bundled</text><text x="32" y="444" font-family="monospace" font-size="12" fill="#111">deterministic Material subset, including legacy MA_* macro arity.</text><rect x="24" y="480" width="120" height="32" rx="4" ry="4" fill="#f6f6f6" stroke="#111" stroke-width="1"/><text x="84" y="501" text-anchor="middle" font-family="monospace" font-size="13" fill="#111111">archive</text><rect x="184" y="480" width="120" height="32" rx="4" ry="4" fill="#f6f6f6" stroke="#111" stroke-width="1"/><text x="244" y="501" text-anchor="middle" font-family="monospace" font-size="13" fill="#111111">home</text></svg>