<svg xmlns="http://www.w3.org/2000/svg" width="416" height="388" viewBox="0 0 416 388"><rect width="100%" height="100%" fill="white"/><text x="16" y="16" font-family="monospace" font-size="18" font-weight="600" fill="#111">Built-in Google</text><text x="16" y="40" font-family="monospace" font-size="18" font-weight="600" fill="#111">Material Icons SVG</text><text x="16" y="64" font-family="monospace" font-size="18" font-weight="600" fill="#111">sprites</text><rect x="16" y="88" width="80" height="32" rx="4" ry="4" fill="#f6f6f6" stroke="#111" stroke-width="1"/><text x="56" y="109" text-anchor="middle" font-family="monospace" font-size="13" fill="#111111">Alice</text><rect x="116" y="88" width="80" height="32" rx="4" ry="4" fill="#f6f6f6" stroke="#111" stroke-width="1"/><text x="156" y="109" text-anchor="middle" font-family="monospace" font-size="13" fill="#111111">Bob</text><line x1="56" y1="120" x2="56" y2="340" stroke="#555" stroke-width="1" stroke-dasharray="6 4"/><line x1="156" y1="120" x2="156" y2="340" stroke="#555" stroke-width="1" stroke-dasharray="6 4"/><line x1="56" y1="168" x2="156" y2="168" stroke="#111" stroke-width="1.5"/><polygon points="156,168 148,163 148,173" fill="#111" stroke="#111" stroke-width="1"/><g data-creole-sprites="true"><text x="64.00" y="144" text-anchor="start" font-family="monospace" font-size="12" fill="#111">Open </text><g class="puml-sprite puml-sprite-svg" data-sprite="ma_folder" transform="translate(99.00,99.00) scale(2.000)" fill="#2563eb"><svg xmlns="http://www.w3.org/2000/svg" height="24" viewBox="0 0 24 24" width="24"><path d="M0 0h24v24H0z" fill="none"/><path d="M10 4H4c-1.1 0-1.99.9-1.99 2L2 18c0 1.1.9 2 2 2h16c1.1 0 2-.9 2-2V8c0-1.1-.9-2-2-2h-8l-2-2z"/></svg></g></g><text x="64" y="160" text-anchor="start" font-family="monospace" font-size="12" fill="#111">assets</text><line x1="156" y1="224" x2="56" y2="224" stroke="#111" stroke-width="1.5" stroke-dasharray="6 4"/><polygon points="56,224 64,219 64,229" fill="#111" stroke="#111" stroke-width="1"/><g data-creole-sprites="true"><text x="64.00" y="200" text-anchor="start" font-family="monospace" font-size="12" fill="#111">Upload </text><g class="puml-sprite puml-sprite-svg" data-sprite="ma_cloud_upload" transform="translate(113.00,155.00) scale(2.000)" fill="#0f766e"><svg xmlns="http://www.w3.org/2000/svg" height="24" viewBox="0 0 24 24" width="24"><path d="M0 0h24v24H0z" fill="none"/><path d="M19.35 10.04C18.67 6.59 15.64 4 12 4 9.11 4 6.6 5.64 5.35 8.04 2.34 8.36 0 10.91 0 14c0 3.31 2.69 6 6 6h13c2.76 0 5-2.24 5-5 0-2.64-2.05-4.78-4.65-4.96zM14 13v4h-4v-4H7l5-5 5 5h-3z"/></svg></g></g><text x="64" y="216" text-anchor="start" font-family="monospace" font-size="12" fill="#111">complete</text><path d="M16,256 H386 L400 270 V316 H16 Z" fill="#fff8c4" stroke="#111" stroke-width="1"/><path d="M386 256 V270 H400" fill="none" stroke="#111" stroke-width="1"/><text x="24" y="276" font-family="monospace" font-size="12" fill="#111">Material Icons use the PlantUML stdlib `ma_` prefix:</text><g data-creole-sprites="true"><g class="puml-sprite puml-sprite-svg" data-sprite="ma_security" transform="translate(24.00,271.00) scale(1.000)" fill="#b91c1c"><svg xmlns="http://www.w3.org/2000/svg" height="24" viewBox="0 0 24 24" width="24"><path d="M0 0h24v24H0z" fill="none"/><path d="M12 1L3 5v6c0 5.55 3.84 10.74 9 12 5.16-1.26 9-6.45 9-12V5l-9-4zm0 10.99h7c-.53 4.12-3.28 7.79-7 8.94V12H5V6.3l7-3.11v8.8z"/></svg></g><text x="51.00" y="292" font-family="monospace" font-size="12" fill="#111"> security alias</text></g><g data-creole-sprites="true"><g class="puml-sprite puml-sprite-svg" data-sprite="ma_dashboard" transform="translate(24.00,287.00) scale(1.000)" fill="#ca8a04"><svg xmlns="http://www.w3.org/2000/svg" height="24" viewBox="0 0 24 24" width="24"><path d="M0 0h24v24H0z" fill="none"/><path d="M3 13h8V3H3v10zm0 8h8v-6H3v6zm10 0h8V11h-8v10zm0-18v6h8V3h-8z"/></svg></g><text x="51.00" y="308" font-family="monospace" font-size="12" fill="#111"> dashboard</text></g><rect x="16" y="340" width="80" height="32" rx="4" ry="4" fill="#f6f6f6" stroke="#111" stroke-width="1"/><text x="56" y="361" text-anchor="middle" font-family="monospace" font-size="13" fill="#111111">Alice</text><rect x="116" y="340" width="80" height="32" rx="4" ry="4" fill="#f6f6f6" stroke="#111" stroke-width="1"/><text x="156" y="361" text-anchor="middle" font-family="monospace" font-size="13" fill="#111111">Bob</text></svg>