<svg xmlns="http://www.w3.org/2000/svg" width="508" height="352" viewBox="0 0 508 352"><rect width="100%" height="100%" fill="white"/><text x="24" y="24" font-family="monospace" font-size="18" font-weight="600" fill="#111">Built-in Google Material</text><text x="24" y="48" font-family="monospace" font-size="18" font-weight="600" fill="#111">Icons SVG sprites</text><rect x="24" y="72" width="120" height="32" rx="4" ry="4" fill="#f6f6f6" stroke="#111" stroke-width="1"/><text x="84" y="93" text-anchor="middle" font-family="monospace" font-size="13" fill="#111111">Alice</text><rect x="184" y="72" width="120" height="32" rx="4" ry="4" fill="#f6f6f6" stroke="#111" stroke-width="1"/><text x="244" y="93" text-anchor="middle" font-family="monospace" font-size="13" fill="#111111">Bob</text><line x1="84" y1="104" x2="84" y2="296" stroke="#555" stroke-width="1" stroke-dasharray="6 4"/><line x1="244" y1="104" x2="244" y2="296" stroke="#555" stroke-width="1" stroke-dasharray="6 4"/><line x1="84" y1="136" x2="244" y2="136" stroke="#111" stroke-width="1.5"/><polygon points="244,136 236,131 236,141" fill="#111" stroke="#111" stroke-width="1"/><g data-creole-sprites="true"><text x="92.00" y="128" text-anchor="start" font-family="monospace" font-size="12" fill="#111">Open </text><g class="puml-sprite puml-sprite-svg" data-sprite="ma_folder" transform="translate(127.00,83.00) scale(2.000)" fill="#2563eb"><svg xmlns="http://www.w3.org/2000/svg" height="24" viewBox="0 0 24 24" width="24"><path d="M0 0h24v24H0z" fill="none"/><path d="M10 4H4c-1.1 0-1.99.9-1.99 2L2 18c0 1.1.9 2 2 2h16c1.1 0 2-.9 2-2V8c0-1.1-.9-2-2-2h-8l-2-2z"/></svg></g><text x="178.00" y="128" text-anchor="start" font-family="monospace" font-size="12" fill="#111"> assets</text></g><line x1="244" y1="176" x2="84" y2="176" stroke="#111" stroke-width="1.5" stroke-dasharray="6 4"/><polygon points="84,176 92,171 92,181" fill="#111" stroke="#111" stroke-width="1"/><g data-creole-sprites="true"><text x="92.00" y="168" text-anchor="start" font-family="monospace" font-size="12" fill="#111">Upload </text><g class="puml-sprite puml-sprite-svg" data-sprite="ma_cloud_upload" transform="translate(141.00,123.00) scale(2.000)" fill="#0f766e"><svg xmlns="http://www.w3.org/2000/svg" height="24" viewBox="0 0 24 24" width="24"><path d="M0 0h24v24H0z" fill="none"/><path d="M19.35 10.04C18.67 6.59 15.64 4 12 4 9.11 4 6.6 5.64 5.35 8.04 2.34 8.36 0 10.91 0 14c0 3.31 2.69 6 6 6h13c2.76 0 5-2.24 5-5 0-2.64-2.05-4.78-4.65-4.96zM14 13v4h-4v-4H7l5-5 5 5h-3z"/></svg></g><text x="192.00" y="168" text-anchor="start" font-family="monospace" font-size="12" fill="#111"> complete</text></g><path d="M24,208 H398 L412 222 V272 H24 Z" fill="#fff8c4" stroke="#111" stroke-width="1"/><path d="M398 208 V222 H412" fill="none" stroke="#111" stroke-width="1"/><text x="32" y="228" font-family="monospace" font-size="12" fill="#111">Material Icons use the PlantUML stdlib `ma_` prefix:</text><g data-creole-sprites="true"><g class="puml-sprite puml-sprite-svg" data-sprite="ma_security" transform="translate(32.00,223.00) scale(1.000)" fill="#b91c1c"><svg xmlns="http://www.w3.org/2000/svg" height="24" viewBox="0 0 24 24" width="24"><path d="M0 0h24v24H0z" fill="none"/><path d="M12 1L3 5v6c0 5.55 3.84 10.74 9 12 5.16-1.26 9-6.45 9-12V5l-9-4zm0 10.99h7c-.53 4.12-3.28 7.79-7 8.94V12H5V6.3l7-3.11v8.8z"/></svg></g><text x="59.00" y="244" font-family="monospace" font-size="12" fill="#111"> security alias</text></g><g data-creole-sprites="true"><g class="puml-sprite puml-sprite-svg" data-sprite="ma_dashboard" transform="translate(32.00,239.00) scale(1.000)" fill="#ca8a04"><svg xmlns="http://www.w3.org/2000/svg" height="24" viewBox="0 0 24 24" width="24"><path d="M0 0h24v24H0z" fill="none"/><path d="M3 13h8V3H3v10zm0 8h8v-6H3v6zm10 0h8V11h-8v10zm0-18v6h8V3h-8z"/></svg></g><text x="59.00" y="260" font-family="monospace" font-size="12" fill="#111"> dashboard</text></g><rect x="24" y="296" width="120" height="32" rx="4" ry="4" fill="#f6f6f6" stroke="#111" stroke-width="1"/><text x="84" y="317" text-anchor="middle" font-family="monospace" font-size="13" fill="#111111">Alice</text><rect x="184" y="296" width="120" height="32" rx="4" ry="4" fill="#f6f6f6" stroke="#111" stroke-width="1"/><text x="244" y="317" text-anchor="middle" font-family="monospace" font-size="13" fill="#111111">Bob</text></svg>