<svg xmlns="http://www.w3.org/2000/svg" width="760" height="166" viewBox="0 0 760 166"><rect width="100%" height="100%" fill="#ffffff"/><defs><marker id="arrow-open" viewBox="0 0 10 10" refX="9" refY="5" markerWidth="10" markerHeight="10" orient="auto-start-reverse"><path d="M0,0 L10,5 L0,10" fill="none" stroke="#1e293b" stroke-width="1.5"/></marker><marker id="arrow-triangle" viewBox="0 0 12 12" refX="11" refY="6" markerWidth="12" markerHeight="12" orient="auto-start-reverse"><path d="M0,0 L12,6 L0,12 z" fill="white" stroke="#1e293b" stroke-width="1.5"/></marker><marker id="arrow-diamond-filled" viewBox="0 0 14 10" refX="13" refY="5" markerWidth="14" markerHeight="10" orient="auto-start-reverse"><path d="M0,5 L7,0 L14,5 L7,10 z" fill="#1e293b" stroke="#1e293b" stroke-width="1"/></marker><marker id="arrow-diamond-open" viewBox="0 0 14 10" refX="13" refY="5" markerWidth="14" markerHeight="10" orient="auto-start-reverse"><path d="M0,5 L7,0 L14,5 L7,10 z" fill="white" stroke="#1e293b" stroke-width="1"/></marker></defs><line class="uml-relation" data-uml-from="Order" data-uml-to="Customer" x1="232" y1="79" x2="280" y2="79" stroke="#1e293b" stroke-width="2" marker-end="url(#arrow-open)"/><text x="256" y="75" text-anchor="middle" font-family="monospace" font-size="11" fill="#334155">placedBy</text><rect x="32" y="32" width="200" height="94" rx="4" ry="4" fill="#ffffff" stroke="#1e293b" stroke-width="1.5"/><rect x="32" y="32" width="200" height="30" rx="4" ry="4" fill="#fef3c7" stroke="#1e293b" stroke-width="1.5"/><line x1="32" y1="62" x2="232" y2="62" stroke="#1e293b" stroke-width="1"/><text x="132" y="53" text-anchor="middle" font-family="monospace" font-size="13" font-weight="600" fill="#0f172a" text-decoration="underline">Order</text><text class="uml-member" x="42" y="78" font-family="monospace" font-size="11" fill="#334155">id = 1001</text><text class="uml-member" x="42" y="94" font-family="monospace" font-size="11" fill="#334155">status = pending</text><text class="uml-member" x="42" y="110" font-family="monospace" font-size="11" fill="#334155">total = 99.99</text><rect x="280" y="32" width="200" height="94" rx="4" ry="4" fill="#ffffff" stroke="#1e293b" stroke-width="1.5"/><rect x="280" y="32" width="200" height="30" rx="4" ry="4" fill="#fef3c7" stroke="#1e293b" stroke-width="1.5"/><line x1="280" y1="62" x2="480" y2="62" stroke="#1e293b" stroke-width="1"/><text x="380" y="53" text-anchor="middle" font-family="monospace" font-size="13" font-weight="600" fill="#0f172a" text-decoration="underline">Customer</text><text class="uml-member" x="290" y="78" font-family="monospace" font-size="11" fill="#334155">id = 42</text><text class="uml-member" x="290" y="94" font-family="monospace" font-size="11" fill="#334155">name = Alice Smith</text><text class="uml-member" x="290" y="110" font-family="monospace" font-size="11" fill="#334155">email = alice@example.com</text></svg>