<svg xmlns="http://www.w3.org/2000/svg" width="327" height="450" viewBox="0 0 327 450" data-orientation="TopToBottom"><rect width="100%" height="100%" fill="#ffffff"/><defs><marker id="arrow-open" viewBox="0 0 10 10" refX="9" refY="5" markerWidth="10" markerHeight="10" markerUnits="userSpaceOnUse" orient="auto-start-reverse"><path d="M0,0 L10,5 L0,10" fill="none" stroke="#1e293b" stroke-width="1.5"/></marker><marker id="arrow-triangle" viewBox="0 0 16 16" refX="15" refY="8" markerWidth="16" markerHeight="16" markerUnits="userSpaceOnUse" orient="auto-start-reverse"><polygon points="0,1 14,8 0,15" fill="#ffffff" stroke="#1e293b" stroke-width="1.5" fill-rule="nonzero"/></marker><marker id="arrow-diamond-filled" viewBox="0 0 14 10" refX="13" refY="5" markerWidth="14" markerHeight="10" markerUnits="userSpaceOnUse" orient="auto-start-reverse"><path d="M0,5 L7,0 L14,5 L7,10 z" fill="#1e293b" stroke="#1e293b" stroke-width="1"/></marker><marker id="arrow-diamond-open" viewBox="0 0 14 10" refX="13" refY="5" markerWidth="14" markerHeight="10" markerUnits="userSpaceOnUse" orient="auto-start-reverse"><path d="M0,5 L7,0 L14,5 L7,10 z" fill="#ffffff" stroke="#1e293b" stroke-width="1"/></marker></defs><polyline class="uml-relation" data-uml-from="Order" data-uml-to="Customer" data-uml-arrow="--&gt;" points="131,126 131,205 131,284" fill="none" stroke="#1e293b" stroke-width="2" marker-end="url(#arrow-open)" /><rect class="uml-edge-label-bg" data-uml-label-role="edge-background" x="115" y="219" width="60" height="18" fill="white" opacity="0.85"/><text class="uml-edge-label" data-uml-label-role="edge" x="145" y="232" text-anchor="middle" font-family="monospace" font-size="11" fill="#334155">placedBy</text><rect x="32" y="32" width="199" height="94" rx="4" ry="4" fill="#ffffff" stroke="#1e293b" stroke-width="1.5"/><rect x="32" y="32" width="199" height="30" rx="4" ry="4" fill="#fef3c7" stroke="#1e293b" stroke-width="1.5"/><line x1="32" y1="62" x2="231" y2="62" stroke="#1e293b" stroke-width="1"/><text x="131" y="53" text-anchor="middle" font-family="monospace" font-size="13" font-weight="600" fill="#0f172a" text-decoration="underline" text-decoration-thickness="1">Order</text><text class="uml-member" x="42" y="78" font-family="monospace" font-size="11" fill="#334155">id = 1001</text><text class="uml-member" x="42" y="94" font-family="monospace" font-size="11" fill="#334155">status = pending</text><text class="uml-member" x="42" y="110" font-family="monospace" font-size="11" fill="#334155">total = 99.99</text><rect x="32" y="284" width="199" height="94" rx="4" ry="4" fill="#ffffff" stroke="#1e293b" stroke-width="1.5"/><rect x="32" y="284" width="199" height="30" rx="4" ry="4" fill="#fef3c7" stroke="#1e293b" stroke-width="1.5"/><line x1="32" y1="314" x2="231" y2="314" stroke="#1e293b" stroke-width="1"/><text x="131" y="305" text-anchor="middle" font-family="monospace" font-size="13" font-weight="600" fill="#0f172a" text-decoration="underline" text-decoration-thickness="1">Customer</text><text class="uml-member" x="42" y="330" font-family="monospace" font-size="11" fill="#334155">id = 42</text><text class="uml-member" x="42" y="346" font-family="monospace" font-size="11" fill="#334155">name = Alice Smith</text><text class="uml-member" x="42" y="362" font-family="monospace" font-size="11" fill="#334155">email = alice@example.com</text></svg>