<svg xmlns="http://www.w3.org/2000/svg" width="770" height="150" viewBox="0 0 770 150"><rect width="100%" height="100%" fill="#ffffff"/><defs><marker id="arrow-open" viewBox="0 0 10 10" refX="9" refY="5" markerWidth="10" markerHeight="10" markerUnits="userSpaceOnUse" orient="auto-start-reverse"><path d="M0,0 L10,5 L0,10" fill="none" stroke="#1e293b" stroke-width="1.5"/></marker><marker id="arrow-triangle" viewBox="0 0 16 16" refX="15" refY="8" markerWidth="16" markerHeight="16" markerUnits="userSpaceOnUse" orient="auto-start-reverse"><polygon points="0,1 14,8 0,15" fill="#ffffff" stroke="#1e293b" stroke-width="1.5" fill-rule="nonzero"/></marker><marker id="arrow-diamond-filled" viewBox="0 0 14 10" refX="13" refY="5" markerWidth="14" markerHeight="10" markerUnits="userSpaceOnUse" orient="auto-start-reverse"><path d="M0,5 L7,0 L14,5 L7,10 z" fill="#1e293b" stroke="#1e293b" stroke-width="1"/></marker><marker id="arrow-diamond-open" viewBox="0 0 14 10" refX="13" refY="5" markerWidth="14" markerHeight="10" markerUnits="userSpaceOnUse" orient="auto-start-reverse"><path d="M0,5 L7,0 L14,5 L7,10 z" fill="#ffffff" stroke="#1e293b" stroke-width="1"/></marker></defs><line class="uml-relation" data-uml-from="Server" data-uml-to="Database" x1="214" y1="71" x2="294" y2="71" stroke="#1e293b" stroke-width="2" marker-end="url(#arrow-open)"/><text x="246" y="57" text-anchor="middle" font-family="monospace" font-size="11" fill="#334155">connects</text><line class="uml-relation" data-uml-from="Server" data-uml-to="Cache" x1="214" y1="71" x2="556" y2="71" stroke="#1e293b" stroke-width="2" marker-end="url(#arrow-open)"/><text x="350" y="57" text-anchor="middle" font-family="monospace" font-size="11" fill="#334155">uses</text><rect x="32" y="32" width="182" height="78" rx="4" ry="4" fill="#ffffff" stroke="#1e293b" stroke-width="1.5"/><rect x="32" y="32" width="182" height="30" rx="4" ry="4" fill="#fef3c7" stroke="#1e293b" stroke-width="1.5"/><line x1="32" y1="62" x2="214" y2="62" stroke="#1e293b" stroke-width="1"/><text x="123" y="53" text-anchor="middle" font-family="monospace" font-size="13" font-weight="600" fill="#0f172a" text-decoration="underline">Server</text><text class="uml-member" x="42" y="78" font-family="monospace" font-size="11" fill="#334155">host = api.example.com</text><text class="uml-member" x="42" y="94" font-family="monospace" font-size="11" fill="#334155">port = 443</text><rect x="294" y="32" width="182" height="78" rx="4" ry="4" fill="#ffffff" stroke="#1e293b" stroke-width="1.5"/><rect x="294" y="32" width="182" height="30" rx="4" ry="4" fill="#fef3c7" stroke="#1e293b" stroke-width="1.5"/><line x1="294" y1="62" x2="476" y2="62" stroke="#1e293b" stroke-width="1"/><text x="385" y="53" text-anchor="middle" font-family="monospace" font-size="13" font-weight="600" fill="#0f172a" text-decoration="underline">Database</text><text class="uml-member" x="304" y="78" font-family="monospace" font-size="11" fill="#334155">host = db.internal</text><text class="uml-member" x="304" y="94" font-family="monospace" font-size="11" fill="#334155">port = 5432</text><rect x="556" y="32" width="182" height="78" rx="4" ry="4" fill="#ffffff" stroke="#1e293b" stroke-width="1.5"/><rect x="556" y="32" width="182" height="30" rx="4" ry="4" fill="#fef3c7" stroke="#1e293b" stroke-width="1.5"/><line x1="556" y1="62" x2="738" y2="62" stroke="#1e293b" stroke-width="1"/><text x="647" y="53" text-anchor="middle" font-family="monospace" font-size="13" font-weight="600" fill="#0f172a" text-decoration="underline">Cache</text><text class="uml-member" x="566" y="78" font-family="monospace" font-size="11" fill="#334155">host = redis.internal</text><text class="uml-member" x="566" y="94" font-family="monospace" font-size="11" fill="#334155">port = 6379</text></svg>