<svg xmlns="http://www.w3.org/2000/svg" width="564" height="402" viewBox="0 0 564 402" data-orientation="TopToBottom"><rect width="100%" height="100%" fill="#ffffff"/><defs><marker id="arrow-open" viewBox="0 0 10 10" refX="9" refY="5" markerWidth="10" markerHeight="10" markerUnits="userSpaceOnUse" orient="auto-start-reverse"><path d="M0,0 L10,5 L0,10" fill="none" stroke="#1e293b" stroke-width="1.5"/></marker><marker id="arrow-triangle" viewBox="0 0 16 16" refX="15" refY="8" markerWidth="16" markerHeight="16" markerUnits="userSpaceOnUse" orient="auto-start-reverse"><polygon points="0,1 14,8 0,15" fill="#ffffff" stroke="#1e293b" stroke-width="1.5" fill-rule="nonzero"/></marker><marker id="arrow-diamond-filled" viewBox="0 0 14 10" refX="13" refY="5" markerWidth="14" markerHeight="10" markerUnits="userSpaceOnUse" orient="auto-start-reverse"><path d="M0,5 L7,0 L14,5 L7,10 z" fill="#1e293b" stroke="#1e293b" stroke-width="1"/></marker><marker id="arrow-diamond-open" viewBox="0 0 14 10" refX="13" refY="5" markerWidth="14" markerHeight="10" markerUnits="userSpaceOnUse" orient="auto-start-reverse"><path d="M0,5 L7,0 L14,5 L7,10 z" fill="#ffffff" stroke="#1e293b" stroke-width="1"/></marker></defs><defs><marker id="arrow-triangle-filled" viewBox="0 0 12 12" refX="11" refY="6" markerWidth="12" markerHeight="12" markerUnits="userSpaceOnUse" orient="auto-start-reverse"><polygon points="0,0 12,6 0,12" fill="#1e293b" stroke="#1e293b" stroke-width="1.5"/></marker><marker id="arrow-box-filled" viewBox="0 0 12 12" refX="11" refY="6" markerWidth="12" markerHeight="12" markerUnits="userSpaceOnUse" orient="auto-start-reverse"><rect x="2" y="2" width="8" height="8" fill="#1e293b" stroke="#1e293b" stroke-width="1.5"/></marker><marker id="arrow-plus" viewBox="0 0 12 12" refX="11" refY="6" markerWidth="12" markerHeight="12" markerUnits="userSpaceOnUse" orient="auto-start-reverse"><path d="M6,1 L6,11 M1,6 L11,6" fill="none" stroke="#1e293b" stroke-width="1.8" stroke-linecap="round"/></marker><marker id="arrow-cross" viewBox="0 0 12 12" refX="11" refY="6" markerWidth="12" markerHeight="12" markerUnits="userSpaceOnUse" orient="auto-start-reverse"><path d="M2,2 L10,10 M10,2 L2,10" fill="none" stroke="#1e293b" stroke-width="1.8" stroke-linecap="round"/></marker><marker id="arrow-bracket-open" viewBox="0 0 12 14" refX="11" refY="7" markerWidth="12" markerHeight="14" markerUnits="userSpaceOnUse" orient="auto-start-reverse"><path d="M10,1 L4,1 L4,13 L10,13" fill="none" stroke="#1e293b" stroke-width="1.8" stroke-linecap="round" stroke-linejoin="round"/></marker><marker id="arrow-circle-open" viewBox="0 0 12 12" refX="11" refY="6" markerWidth="12" markerHeight="12" markerUnits="userSpaceOnUse" orient="auto-start-reverse"><circle cx="6" cy="6" r="4" fill="#ffffff" stroke="#1e293b" stroke-width="1.5"/></marker><marker id="arrow-circle-filled" viewBox="0 0 12 12" refX="11" refY="6" markerWidth="12" markerHeight="12" markerUnits="userSpaceOnUse" orient="auto-start-reverse"><circle cx="6" cy="6" r="4" fill="#1e293b" stroke="#1e293b" stroke-width="1.5"/></marker><marker id="arrow-double-open" viewBox="0 0 16 12" refX="15" refY="6" markerWidth="16" markerHeight="12" markerUnits="userSpaceOnUse" orient="auto-start-reverse"><path d="M0,1 L8,6 L0,11 M7,1 L15,6 L7,11" fill="none" stroke="#1e293b" stroke-width="1.5" stroke-linejoin="round"/></marker></defs><polyline class="uml-relation" data-uml-from="Server" data-uml-to="Database" data-uml-arrow="--&gt;" points="250,110 250,181 379,181 379,252" fill="none" stroke="#1e293b" stroke-width="2" marker-end="url(#arrow-open)" /><rect class="uml-edge-label-bg" data-uml-label-role="edge-background" x="250" y="156" width="60" height="18" fill="white" opacity="0.85"/><rect class="uml-edge-label-bg" data-uml-label-role="edge-background" x="250" y="156" width="60" height="18" fill="white" opacity="0.85"/><text class="uml-edge-label" data-uml-label-role="edge" x="280" y="169" text-anchor="middle" font-family="monospace" font-size="11" fill="#334155">connects</text><polyline class="uml-relation" data-uml-from="Server" data-uml-to="Cache" data-uml-arrow="--&gt;" points="250,110 250,181 121,181 121,252" fill="none" stroke="#1e293b" stroke-width="2" marker-end="url(#arrow-open)" /><text class="uml-edge-label" data-uml-label-role="edge" x="214" y="169" text-anchor="middle" font-family="monospace" font-size="11" fill="#334155">uses</text><rect class="uml-node uml-class" data-uml-id="Server" x="161" y="32" width="178" height="78" rx="4" ry="4" fill="#ffffff" stroke="#1e293b" stroke-width="1.5"/><rect x="161" y="32" width="178" height="30" rx="4" ry="4" fill="#fef3c7" stroke="#1e293b" stroke-width="1.5"/><line x1="161" y1="62" x2="339" y2="62" stroke="#1e293b" stroke-width="1"/><circle class="uml-class-badge" cx="173" cy="49" r="8" fill="#FFD54F" stroke="#F57F17" stroke-width="1"/><text class="uml-class-badge-letter" x="173" y="52" text-anchor="middle" font-family="monospace" font-size="9" font-weight="700" fill="#F57F17">O</text><text x="250" y="53" text-anchor="middle" font-family="monospace" font-size="13" font-weight="600" fill="#0f172a" text-decoration="underline" text-decoration-thickness="1">Server</text><text class="uml-member" x="171" y="78" font-family="monospace" font-size="11" fill="#334155">host = api.example.com</text><text class="uml-member" x="171" y="94" font-family="monospace" font-size="11" fill="#334155">port = 443</text><rect class="uml-node uml-class" data-uml-id="Database" x="290" y="252" width="178" height="78" rx="4" ry="4" fill="#ffffff" stroke="#1e293b" stroke-width="1.5"/><rect x="290" y="252" width="178" height="30" rx="4" ry="4" fill="#fef3c7" stroke="#1e293b" stroke-width="1.5"/><line x1="290" y1="282" x2="468" y2="282" stroke="#1e293b" stroke-width="1"/><circle class="uml-class-badge" cx="302" cy="269" r="8" fill="#FFD54F" stroke="#F57F17" stroke-width="1"/><text class="uml-class-badge-letter" x="302" y="272" text-anchor="middle" font-family="monospace" font-size="9" font-weight="700" fill="#F57F17">O</text><text x="379" y="273" text-anchor="middle" font-family="monospace" font-size="13" font-weight="600" fill="#0f172a" text-decoration="underline" text-decoration-thickness="1">Database</text><text class="uml-member" x="300" y="298" font-family="monospace" font-size="11" fill="#334155">host = db.internal</text><text class="uml-member" x="300" y="314" font-family="monospace" font-size="11" fill="#334155">port = 5432</text><rect class="uml-node uml-class" data-uml-id="Cache" x="32" y="252" width="178" height="78" rx="4" ry="4" fill="#ffffff" stroke="#1e293b" stroke-width="1.5"/><rect x="32" y="252" width="178" height="30" rx="4" ry="4" fill="#fef3c7" stroke="#1e293b" stroke-width="1.5"/><line x1="32" y1="282" x2="210" y2="282" stroke="#1e293b" stroke-width="1"/><circle class="uml-class-badge" cx="44" cy="269" r="8" fill="#FFD54F" stroke="#F57F17" stroke-width="1"/><text class="uml-class-badge-letter" x="44" y="272" text-anchor="middle" font-family="monospace" font-size="9" font-weight="700" fill="#F57F17">O</text><text x="121" y="273" text-anchor="middle" font-family="monospace" font-size="13" font-weight="600" fill="#0f172a" text-decoration="underline" text-decoration-thickness="1">Cache</text><text class="uml-member" x="42" y="298" font-family="monospace" font-size="11" fill="#334155">host = redis.internal</text><text class="uml-member" x="42" y="314" font-family="monospace" font-size="11" fill="#334155">port = 6379</text></svg>