<svg xmlns="http://www.w3.org/2000/svg" width="770" height="402" viewBox="0 0 770 402"><rect width="100%" height="100%" fill="#ffffff"/><defs><marker id="arrow-open" viewBox="0 0 10 10" refX="9" refY="5" markerWidth="10" markerHeight="10" markerUnits="userSpaceOnUse" orient="auto-start-reverse"><path d="M0,0 L10,5 L0,10" fill="none" stroke="#1e293b" stroke-width="1.5"/></marker><marker id="arrow-triangle" viewBox="0 0 16 16" refX="15" refY="8" markerWidth="16" markerHeight="16" markerUnits="userSpaceOnUse" orient="auto-start-reverse"><polygon points="0,1 14,8 0,15" fill="#ffffff" stroke="#1e293b" stroke-width="1.5" fill-rule="nonzero"/></marker><marker id="arrow-diamond-filled" viewBox="0 0 14 10" refX="13" refY="5" markerWidth="14" markerHeight="10" markerUnits="userSpaceOnUse" orient="auto-start-reverse"><path d="M0,5 L7,0 L14,5 L7,10 z" fill="#1e293b" stroke="#1e293b" stroke-width="1"/></marker><marker id="arrow-diamond-open" viewBox="0 0 14 10" refX="13" refY="5" markerWidth="14" markerHeight="10" markerUnits="userSpaceOnUse" orient="auto-start-reverse"><path d="M0,5 L7,0 L14,5 L7,10 z" fill="#ffffff" stroke="#1e293b" stroke-width="1"/></marker></defs><polyline class="uml-relation" data-uml-from="Server" data-uml-to="Database" data-uml-arrow="--&gt;" points="254,110 254,169 385,169 385,252" fill="none" stroke="#1e293b" stroke-width="2" marker-end="url(#arrow-open)" /><text x="319" y="157" text-anchor="middle" font-family="monospace" font-size="11" fill="#334155">connects</text><polyline class="uml-relation" data-uml-from="Server" data-uml-to="Cache" data-uml-arrow="--&gt;" points="254,110 254,177 123,177 123,252" fill="none" stroke="#1e293b" stroke-width="2" marker-end="url(#arrow-open)" /><text x="188" y="165" text-anchor="middle" font-family="monospace" font-size="11" fill="#334155">uses</text><rect x="163" y="32" width="182" height="78" rx="4" ry="4" fill="#ffffff" stroke="#1e293b" stroke-width="1.5"/><rect x="163" y="32" width="182" height="30" rx="4" ry="4" fill="#fef3c7" stroke="#1e293b" stroke-width="1.5"/><line x1="163" y1="62" x2="345" y2="62" stroke="#1e293b" stroke-width="1"/><text x="254" y="53" text-anchor="middle" font-family="monospace" font-size="13" font-weight="600" fill="#0f172a" text-decoration="underline">Server</text><text class="uml-member" x="173" y="78" font-family="monospace" font-size="11" fill="#334155">host = api.example.com</text><text class="uml-member" x="173" y="94" font-family="monospace" font-size="11" fill="#334155">port = 443</text><rect x="294" y="252" width="182" height="78" rx="4" ry="4" fill="#ffffff" stroke="#1e293b" stroke-width="1.5"/><rect x="294" y="252" width="182" height="30" rx="4" ry="4" fill="#fef3c7" stroke="#1e293b" stroke-width="1.5"/><line x1="294" y1="282" x2="476" y2="282" stroke="#1e293b" stroke-width="1"/><text x="385" y="273" text-anchor="middle" font-family="monospace" font-size="13" font-weight="600" fill="#0f172a" text-decoration="underline">Database</text><text class="uml-member" x="304" y="298" font-family="monospace" font-size="11" fill="#334155">host = db.internal</text><text class="uml-member" x="304" y="314" font-family="monospace" font-size="11" fill="#334155">port = 5432</text><rect x="32" y="252" width="182" height="78" rx="4" ry="4" fill="#ffffff" stroke="#1e293b" stroke-width="1.5"/><rect x="32" y="252" width="182" height="30" rx="4" ry="4" fill="#fef3c7" stroke="#1e293b" stroke-width="1.5"/><line x1="32" y1="282" x2="214" y2="282" stroke="#1e293b" stroke-width="1"/><text x="123" y="273" text-anchor="middle" font-family="monospace" font-size="13" font-weight="600" fill="#0f172a" text-decoration="underline">Cache</text><text class="uml-member" x="42" y="298" font-family="monospace" font-size="11" fill="#334155">host = redis.internal</text><text class="uml-member" x="42" y="314" font-family="monospace" font-size="11" fill="#334155">port = 6379</text></svg>