<svg xmlns="http://www.w3.org/2000/svg" width="682" height="150" viewBox="0 0 682 150"><rect width="100%" height="100%" fill="#ffffff"/><defs><marker id="arrow-open" viewBox="0 0 10 10" refX="9" refY="5" markerWidth="10" markerHeight="10" orient="auto-start-reverse"><path d="M0,0 L10,5 L0,10" fill="none" stroke="#1e293b" stroke-width="1.5"/></marker><marker id="arrow-triangle" viewBox="0 0 12 12" refX="11" refY="6" markerWidth="12" markerHeight="12" orient="auto-start-reverse"><polygon points="0,0 12,6 0,12" fill="white" stroke="#1e293b" stroke-width="1.5" fill-rule="nonzero"/></marker><marker id="arrow-diamond-filled" viewBox="0 0 14 10" refX="13" refY="5" markerWidth="14" markerHeight="10" orient="auto-start-reverse"><path d="M0,5 L7,0 L14,5 L7,10 z" fill="#1e293b" stroke="#1e293b" stroke-width="1"/></marker><marker id="arrow-diamond-open" viewBox="0 0 14 10" refX="13" refY="5" markerWidth="14" markerHeight="10" orient="auto-start-reverse"><path d="M0,5 L7,0 L14,5 L7,10 z" fill="white" stroke="#1e293b" stroke-width="1"/></marker></defs><line class="uml-relation" data-uml-from="Server" data-uml-to="Database" x1="206" y1="71" x2="254" y2="71" stroke="#1e293b" stroke-width="2" marker-end="url(#arrow-open)"/><text x="230" y="59" text-anchor="middle" font-family="monospace" font-size="11" fill="#334155">connects</text><line class="uml-relation" data-uml-from="Server" data-uml-to="Cache" x1="206" y1="71" x2="476" y2="71" stroke="#1e293b" stroke-width="2" marker-end="url(#arrow-open)"/><text x="341" y="59" text-anchor="middle" font-family="monospace" font-size="11" fill="#334155">uses</text><rect x="32" y="32" width="174" height="78" rx="4" ry="4" fill="#ffffff" stroke="#1e293b" stroke-width="1.5"/><rect x="32" y="32" width="174" height="30" rx="4" ry="4" fill="#fef3c7" stroke="#1e293b" stroke-width="1.5"/><line x1="32" y1="62" x2="206" y2="62" stroke="#1e293b" stroke-width="1"/><text x="119" y="53" text-anchor="middle" font-family="monospace" font-size="13" font-weight="600" fill="#0f172a" text-decoration="underline">Server</text><text class="uml-member" x="42" y="78" font-family="monospace" font-size="11" fill="#334155">host = api.example.com</text><text class="uml-member" x="42" y="94" font-family="monospace" font-size="11" fill="#334155">port = 443</text><rect x="254" y="32" width="174" height="78" rx="4" ry="4" fill="#ffffff" stroke="#1e293b" stroke-width="1.5"/><rect x="254" y="32" width="174" height="30" rx="4" ry="4" fill="#fef3c7" stroke="#1e293b" stroke-width="1.5"/><line x1="254" y1="62" x2="428" y2="62" stroke="#1e293b" stroke-width="1"/><text x="341" y="53" text-anchor="middle" font-family="monospace" font-size="13" font-weight="600" fill="#0f172a" text-decoration="underline">Database</text><text class="uml-member" x="264" y="78" font-family="monospace" font-size="11" fill="#334155">host = db.internal</text><text class="uml-member" x="264" y="94" font-family="monospace" font-size="11" fill="#334155">port = 5432</text><rect x="476" y="32" width="174" height="78" rx="4" ry="4" fill="#ffffff" stroke="#1e293b" stroke-width="1.5"/><rect x="476" y="32" width="174" height="30" rx="4" ry="4" fill="#fef3c7" stroke="#1e293b" stroke-width="1.5"/><line x1="476" y1="62" x2="650" y2="62" stroke="#1e293b" stroke-width="1"/><text x="563" y="53" text-anchor="middle" font-family="monospace" font-size="13" font-weight="600" fill="#0f172a" text-decoration="underline">Cache</text><text class="uml-member" x="486" y="78" font-family="monospace" font-size="11" fill="#334155">host = redis.internal</text><text class="uml-member" x="486" y="94" font-family="monospace" font-size="11" fill="#334155">port = 6379</text></svg>