<svg xmlns="http://www.w3.org/2000/svg" width="732" height="560" viewBox="0 0 732 560" data-orientation="TopToBottom"><rect width="100%" height="100%" fill="#ffffff"/><defs><marker id="arrow-open" viewBox="0 0 10 10" refX="9" refY="5" markerWidth="10" markerHeight="10" markerUnits="userSpaceOnUse" orient="auto-start-reverse"><path d="M0,0 L10,5 L0,10" fill="none" stroke="#1e293b" stroke-width="1.5"/></marker><marker id="arrow-triangle" viewBox="0 0 16 16" refX="15" refY="8" markerWidth="16" markerHeight="16" markerUnits="userSpaceOnUse" orient="auto-start-reverse"><polygon points="0,1 14,8 0,15" fill="#ffffff" stroke="#1e293b" stroke-width="1.5" fill-rule="nonzero"/></marker><marker id="arrow-diamond-filled" viewBox="0 0 14 10" refX="13" refY="5" markerWidth="14" markerHeight="10" markerUnits="userSpaceOnUse" orient="auto-start-reverse"><path d="M0,5 L7,0 L14,5 L7,10 z" fill="#1e293b" stroke="#1e293b" stroke-width="1"/></marker><marker id="arrow-diamond-open" viewBox="0 0 14 10" refX="13" refY="5" markerWidth="14" markerHeight="10" markerUnits="userSpaceOnUse" orient="auto-start-reverse"><path d="M0,5 L7,0 L14,5 L7,10 z" fill="#ffffff" stroke="#1e293b" stroke-width="1"/></marker></defs><defs><marker id="arrow-triangle-filled" viewBox="0 0 12 12" refX="11" refY="6" markerWidth="12" markerHeight="12" markerUnits="userSpaceOnUse" orient="auto-start-reverse"><polygon points="0,0 12,6 0,12" fill="#1e293b" stroke="#1e293b" stroke-width="1.5"/></marker><marker id="arrow-box-filled" viewBox="0 0 12 12" refX="11" refY="6" markerWidth="12" markerHeight="12" markerUnits="userSpaceOnUse" orient="auto-start-reverse"><rect x="2" y="2" width="8" height="8" fill="#1e293b" stroke="#1e293b" stroke-width="1.5"/></marker><marker id="arrow-plus" viewBox="0 0 12 12" refX="11" refY="6" markerWidth="12" markerHeight="12" markerUnits="userSpaceOnUse" orient="auto-start-reverse"><path d="M6,1 L6,11 M1,6 L11,6" fill="none" stroke="#1e293b" stroke-width="1.8" stroke-linecap="round"/></marker><marker id="arrow-cross" viewBox="0 0 12 12" refX="11" refY="6" markerWidth="12" markerHeight="12" markerUnits="userSpaceOnUse" orient="auto-start-reverse"><path d="M2,2 L10,10 M10,2 L2,10" fill="none" stroke="#1e293b" stroke-width="1.8" stroke-linecap="round"/></marker><marker id="arrow-bracket-open" viewBox="0 0 12 14" refX="11" refY="7" markerWidth="12" markerHeight="14" markerUnits="userSpaceOnUse" orient="auto-start-reverse"><path d="M10,1 L4,1 L4,13 L10,13" fill="none" stroke="#1e293b" stroke-width="1.8" stroke-linecap="round" stroke-linejoin="round"/></marker><marker id="arrow-circle-open" viewBox="0 0 12 12" refX="11" refY="6" markerWidth="12" markerHeight="12" markerUnits="userSpaceOnUse" orient="auto-start-reverse"><circle cx="6" cy="6" r="4" fill="#ffffff" stroke="#1e293b" stroke-width="1.5"/></marker><marker id="arrow-circle-filled" viewBox="0 0 12 12" refX="11" refY="6" markerWidth="12" markerHeight="12" markerUnits="userSpaceOnUse" orient="auto-start-reverse"><circle cx="6" cy="6" r="4" fill="#1e293b" stroke="#1e293b" stroke-width="1.5"/></marker><marker id="arrow-double-open" viewBox="0 0 16 12" refX="15" refY="6" markerWidth="16" markerHeight="12" markerUnits="userSpaceOnUse" orient="auto-start-reverse"><path d="M0,1 L8,6 L0,11 M7,1 L15,6 L7,11" fill="none" stroke="#1e293b" stroke-width="1.5" stroke-linejoin="round"/></marker></defs><path class="uml-relation" data-uml-from="CapitalCity::UK" data-uml-to="London" data-uml-arrow="*-&gt;" d="M 440,260 C 453.3,260.0 473.3,240.7 480.0,260.0 C 486.7,279.3 500.3,356.7 480.0,376.0 C 459.7,395.3 378.3,363.7 358.0,376.0 C 337.7,388.3 358.0,425.3 358.0,450.0" fill="none" stroke="#1e293b" stroke-width="2" marker-end="url(#arrow-open)" marker-start="url(#arrow-diamond-filled)" /><path class="uml-relation" data-uml-from="CapitalCity::USA" data-uml-to="Washington" data-uml-arrow="*--&gt;" d="M 440,278 C 453.3,278.0 473.3,261.7 480.0,278.0 C 486.7,294.3 459.7,359.7 480.0,376.0 C 500.3,392.3 581.7,363.7 602.0,376.0 C 622.3,388.3 602.0,425.3 602.0,450.0" fill="none" stroke="#1e293b" stroke-width="2" marker-end="url(#arrow-open)" marker-start="url(#arrow-diamond-filled)" /><path class="uml-relation" data-uml-from="CapitalCity::Germany" data-uml-to="Berlin" data-uml-arrow="*---&gt;" d="M 276,296 C 262.7,296.0 242.7,275.0 236.0,296.0 C 229.3,317.0 256.3,401.0 236.0,422.0 C 215.7,443.0 134.3,417.3 114.0,422.0 C 93.7,426.7 114.0,440.7 114.0,450.0" fill="none" stroke="#1e293b" stroke-width="2" marker-end="url(#arrow-open)" marker-start="url(#arrow-diamond-filled)" /><path class="uml-relation" data-uml-from="NewYork" data-uml-to="CapitalCity::USA" data-uml-arrow="--&gt;" d="M 358,70 C 358.0,94.7 337.7,131.7 358.0,144.0 C 378.3,156.3 459.7,121.7 480.0,144.0 C 500.3,166.3 486.7,255.7 480.0,278.0 C 473.3,300.3 453.3,278.0 440.0,278.0" fill="none" stroke="#1e293b" stroke-width="2" marker-end="url(#arrow-open)" /><rect x="276" y="450" width="164" height="38" rx="4" ry="4" fill="#ffffff" stroke="#1e293b" stroke-width="1.5"/><rect x="276" y="450" width="164" height="30" rx="4" ry="4" fill="#fef3c7" stroke="#1e293b" stroke-width="1.5"/><line x1="276" y1="480" x2="440" y2="480" stroke="#1e293b" stroke-width="1"/><text x="358" y="471" text-anchor="middle" font-family="monospace" font-size="13" font-weight="600" fill="#0f172a" text-decoration="underline" text-decoration-thickness="1">London</text><rect x="520" y="450" width="164" height="38" rx="4" ry="4" fill="#ffffff" stroke="#1e293b" stroke-width="1.5"/><rect x="520" y="450" width="164" height="30" rx="4" ry="4" fill="#fef3c7" stroke="#1e293b" stroke-width="1.5"/><line x1="520" y1="480" x2="684" y2="480" stroke="#1e293b" stroke-width="1"/><text x="602" y="471" text-anchor="middle" font-family="monospace" font-size="13" font-weight="600" fill="#0f172a" text-decoration="underline" text-decoration-thickness="1">Washington</text><rect x="32" y="450" width="164" height="38" rx="4" ry="4" fill="#ffffff" stroke="#1e293b" stroke-width="1.5"/><rect x="32" y="450" width="164" height="30" rx="4" ry="4" fill="#fef3c7" stroke="#1e293b" stroke-width="1.5"/><line x1="32" y1="480" x2="196" y2="480" stroke="#1e293b" stroke-width="1"/><text x="114" y="471" text-anchor="middle" font-family="monospace" font-size="13" font-weight="600" fill="#0f172a" text-decoration="underline" text-decoration-thickness="1">Berlin</text><rect x="276" y="32" width="164" height="38" rx="4" ry="4" fill="#ffffff" stroke="#1e293b" stroke-width="1.5"/><rect x="276" y="32" width="164" height="30" rx="4" ry="4" fill="#fef3c7" stroke="#1e293b" stroke-width="1.5"/><line x1="276" y1="62" x2="440" y2="62" stroke="#1e293b" stroke-width="1"/><text x="358" y="53" text-anchor="middle" font-family="monospace" font-size="13" font-weight="600" fill="#0f172a" text-decoration="underline" text-decoration-thickness="1">NewYork</text><rect x="276" y="218" width="164" height="84" rx="4" ry="4" fill="#ffffff" stroke="#1e293b" stroke-width="1.5"/><rect x="276" y="218" width="164" height="30" rx="4" ry="4" fill="#fef3c7" stroke="#1e293b" stroke-width="1.5"/><line x1="276" y1="248" x2="440" y2="248" stroke="#1e293b" stroke-width="1"/><text x="358" y="239" text-anchor="middle" font-family="monospace" font-size="13" font-weight="600" fill="#0f172a">CapitalCity</text><line class="uml-map-divider" x1="349" y1="248" x2="349" y2="302" stroke="#1e293b" stroke-width="1"/><text class="uml-map-key" data-uml-anchor="CapitalCity::UK" x="286" y="260" font-family="monospace" font-size="11" fill="#334155">UK</text><text class="uml-map-value" x="359" y="260" font-family="monospace" font-size="11" fill="#334155">London</text><line class="uml-map-row" x1="276" y1="266" x2="440" y2="266" stroke="#1e293b" stroke-width="1"/><text class="uml-map-key" data-uml-anchor="CapitalCity::USA" x="286" y="278" font-family="monospace" font-size="11" fill="#334155">USA</text><text class="uml-map-value" x="359" y="278" font-family="monospace" font-size="11" fill="#334155">Washington</text><line class="uml-map-row" x1="276" y1="284" x2="440" y2="284" stroke="#1e293b" stroke-width="1"/><text class="uml-map-key" data-uml-anchor="CapitalCity::Germany" x="286" y="296" font-family="monospace" font-size="11" fill="#334155">Germany</text><text class="uml-map-value" x="359" y="296" font-family="monospace" font-size="11" fill="#334155">Berlin</text></svg>