<svg xmlns="http://www.w3.org/2000/svg" width="240" height="374" viewBox="0 0 240 374" data-orientation="TopToBottom"><rect width="100%" height="100%" fill="#ffffff"/><defs><marker id="arrow-open" viewBox="0 0 10 10" refX="9" refY="5" markerWidth="10" markerHeight="10" markerUnits="userSpaceOnUse" orient="auto-start-reverse"><path d="M0,0 L10,5 L0,10" fill="none" stroke="#1e293b" stroke-width="1.5"/></marker><marker id="arrow-triangle" viewBox="0 0 16 16" refX="15" refY="8" markerWidth="16" markerHeight="16" markerUnits="userSpaceOnUse" orient="auto-start-reverse"><polygon points="0,1 14,8 0,15" fill="#ffffff" stroke="#1e293b" stroke-width="1.5" fill-rule="nonzero"/></marker><marker id="arrow-diamond-filled" viewBox="0 0 14 10" refX="13" refY="5" markerWidth="14" markerHeight="10" markerUnits="userSpaceOnUse" orient="auto-start-reverse"><path d="M0,5 L7,0 L14,5 L7,10 z" fill="#1e293b" stroke="#1e293b" stroke-width="1"/></marker><marker id="arrow-diamond-open" viewBox="0 0 14 10" refX="13" refY="5" markerWidth="14" markerHeight="10" markerUnits="userSpaceOnUse" orient="auto-start-reverse"><path d="M0,5 L7,0 L14,5 L7,10 z" fill="#ffffff" stroke="#1e293b" stroke-width="1"/></marker></defs><polyline class="uml-relation" data-uml-from="NewYork" data-uml-to="CapitalCity::USA" data-uml-arrow="--&gt;" points="112,70 112,144 192,278" fill="none" stroke="#1e293b" stroke-width="2" marker-end="url(#arrow-open)" /><rect x="32" y="32" width="160" height="38" rx="4" ry="4" fill="#ffffff" stroke="#1e293b" stroke-width="1.5"/><rect x="32" y="32" width="160" height="30" rx="4" ry="4" fill="#fef3c7" stroke="#1e293b" stroke-width="1.5"/><line x1="32" y1="62" x2="192" y2="62" stroke="#1e293b" stroke-width="1"/><text x="112" y="53" text-anchor="middle" font-family="monospace" font-size="13" font-weight="600" fill="#0f172a" text-decoration="underline" text-decoration-thickness="1">NewYork</text><rect x="32" y="218" width="160" height="84" rx="4" ry="4" fill="#ffffff" stroke="#1e293b" stroke-width="1.5"/><rect x="32" y="218" width="160" height="30" rx="4" ry="4" fill="#fef3c7" stroke="#1e293b" stroke-width="1.5"/><line x1="32" y1="248" x2="192" y2="248" stroke="#1e293b" stroke-width="1"/><text x="112" y="239" text-anchor="middle" font-family="monospace" font-size="13" font-weight="600" fill="#0f172a">CapitalCity</text><line class="uml-map-divider" x1="104" y1="248" x2="104" y2="302" stroke="#1e293b" stroke-width="1"/><text class="uml-map-key" data-uml-anchor="CapitalCity::UK" x="42" y="260" font-family="monospace" font-size="11" fill="#334155">UK</text><text class="uml-map-value" x="114" y="260" font-family="monospace" font-size="11" fill="#334155">London</text><line class="uml-map-row" x1="32" y1="266" x2="192" y2="266" stroke="#1e293b" stroke-width="1"/><text class="uml-map-key" data-uml-anchor="CapitalCity::USA" x="42" y="278" font-family="monospace" font-size="11" fill="#334155">USA</text><text class="uml-map-value" x="114" y="278" font-family="monospace" font-size="11" fill="#334155">Washington</text><line class="uml-map-row" x1="32" y1="284" x2="192" y2="284" stroke="#1e293b" stroke-width="1"/><text class="uml-map-key" data-uml-anchor="CapitalCity::Germany" x="42" y="296" font-family="monospace" font-size="11" fill="#334155">Germany</text><text class="uml-map-value" x="114" y="296" font-family="monospace" font-size="11" fill="#334155">Berlin</text></svg>