<svg xmlns="http://www.w3.org/2000/svg" width="900" height="474" viewBox="0 0 900 474" data-chronology-renderer="vertical-axis"><rect width="100%" height="100%" fill="#f8fafc"/><rect x="186" y="0" width="714" height="100%" fill="#ffffff"/><text x="36" y="30" font-family="monospace" font-size="18" font-weight="600" fill="#0f172a">Project Milestones</text><defs><filter id="chronology-card-shadow" x="-4%" y="-20%" width="108%" height="140%"><feDropShadow dx="0" dy="1" stdDeviation="1.2" flood-color="#0f172a" flood-opacity="0.12"/></filter></defs><line class="chronology-axis" x1="220" y1="102" x2="220" y2="402" stroke="#334155" stroke-width="3" stroke-linecap="round"/><text x="150" y="106" text-anchor="end" font-family="monospace" font-size="11" fill="#64748b">2026-01-01</text><text x="150" y="406" text-anchor="end" font-family="monospace" font-size="11" fill="#64748b">2026-05-01</text><line class="chronology-connector" x1="220" y1="102" x2="271" y2="102" stroke="#cbd5e1" stroke-width="1.5"/><circle class="chronology-marker" cx="220" cy="102" r="7" fill="#2563eb" stroke="#0f172a" stroke-width="1.5"/><rect class="chronology-event-card" x="285" y="80" width="579" height="44" rx="6" ry="6" fill="#ffffff" stroke="#cbd5e1" stroke-width="1" filter="url(#chronology-card-shadow)" data-chronology-index="0" data-chronology-start-day="20454" data-chronology-end-day="" data-chronology-date-precision="day"/><rect class="chronology-event-accent" x="285" y="80" width="5" height="44" rx="2" ry="2" fill="#2563eb"/><text x="301" y="98" font-family="monospace" font-size="11" fill="#64748b">2026-01-01</text><text x="301" y="116" font-family="monospace" font-size="14" font-weight="600" fill="#0f172a">Requirements freeze</text><line class="chronology-connector" x1="220" y1="179" x2="271" y2="179" stroke="#cbd5e1" stroke-width="1.5"/><circle class="chronology-marker" cx="220" cy="179" r="7" fill="#2563eb" stroke="#0f172a" stroke-width="1.5"/><rect class="chronology-event-card" x="285" y="157" width="579" height="44" rx="6" ry="6" fill="#ffffff" stroke="#cbd5e1" stroke-width="1" filter="url(#chronology-card-shadow)" data-chronology-index="1" data-chronology-start-day="20485" data-chronology-end-day="" data-chronology-date-precision="day"/><rect class="chronology-event-accent" x="285" y="157" width="5" height="44" rx="2" ry="2" fill="#2563eb"/><text x="301" y="175" font-family="monospace" font-size="11" fill="#64748b">2026-02-01</text><text x="301" y="193" font-family="monospace" font-size="14" font-weight="600" fill="#0f172a">Design complete</text><line class="chronology-connector" x1="220" y1="284" x2="271" y2="284" stroke="#cbd5e1" stroke-width="1.5"/><circle class="chronology-marker" cx="220" cy="284" r="7" fill="#2563eb" stroke="#0f172a" stroke-width="1.5"/><rect class="chronology-event-card" x="285" y="262" width="579" height="44" rx="6" ry="6" fill="#ffffff" stroke="#cbd5e1" stroke-width="1" filter="url(#chronology-card-shadow)" data-chronology-index="2" data-chronology-start-day="20527" data-chronology-end-day="" data-chronology-date-precision="day"/><rect class="chronology-event-accent" x="285" y="262" width="5" height="44" rx="2" ry="2" fill="#2563eb"/><text x="301" y="280" font-family="monospace" font-size="11" fill="#64748b">2026-03-15</text><text x="301" y="298" font-family="monospace" font-size="14" font-weight="600" fill="#0f172a">Development complete</text><line class="chronology-connector" x1="220" y1="327" x2="271" y2="342" stroke="#cbd5e1" stroke-width="1.5"/><circle class="chronology-marker" cx="220" cy="327" r="7" fill="#2563eb" stroke="#0f172a" stroke-width="1.5"/><rect class="chronology-event-card" x="285" y="320" width="579" height="44" rx="6" ry="6" fill="#ffffff" stroke="#cbd5e1" stroke-width="1" filter="url(#chronology-card-shadow)" data-chronology-index="3" data-chronology-start-day="20544" data-chronology-end-day="" data-chronology-date-precision="day"/><rect class="chronology-event-accent" x="285" y="320" width="5" height="44" rx="2" ry="2" fill="#2563eb"/><text x="301" y="338" font-family="monospace" font-size="11" fill="#64748b">2026-04-01</text><text x="301" y="356" font-family="monospace" font-size="14" font-weight="600" fill="#0f172a">QA sign-off</text><line class="chronology-connector" x1="220" y1="402" x2="271" y2="402" stroke="#cbd5e1" stroke-width="1.5"/><circle class="chronology-marker" cx="220" cy="402" r="7" fill="#2563eb" stroke="#0f172a" stroke-width="1.5"/><rect class="chronology-event-card" x="285" y="380" width="579" height="44" rx="6" ry="6" fill="#ffffff" stroke="#cbd5e1" stroke-width="1" filter="url(#chronology-card-shadow)" data-chronology-index="4" data-chronology-start-day="20574" data-chronology-end-day="" data-chronology-date-precision="day"/><rect class="chronology-event-accent" x="285" y="380" width="5" height="44" rx="2" ry="2" fill="#2563eb"/><text x="301" y="398" font-family="monospace" font-size="11" fill="#64748b">2026-05-01</text><text x="301" y="416" font-family="monospace" font-size="14" font-weight="600" fill="#0f172a">Production release</text></svg>