<svg xmlns="http://www.w3.org/2000/svg" width="900" height="444" viewBox="0 0 900 444" data-chronology-renderer="vertical-axis"><rect width="100%" height="100%" fill="#f8fafc"/><rect x="186" y="0" width="714" height="100%" fill="#ffffff"/><text x="36" y="32" font-family="monospace" font-size="18" font-weight="600" fill="#0f172a">Chronology</text><defs><filter id="chronology-card-shadow" x="-4%" y="-20%" width="108%" height="140%"><feDropShadow dx="0" dy="1" stdDeviation="1.2" flood-color="#0f172a" flood-opacity="0.12"/></filter></defs><line class="chronology-axis" x1="220" y1="72" x2="220" y2="372" stroke="#334155" stroke-width="3" stroke-linecap="round"/><text x="150" y="76" text-anchor="end" font-family="monospace" font-size="11" fill="#64748b">2026-01-10</text><text x="150" y="376" text-anchor="end" font-family="monospace" font-size="11" fill="#64748b">2026-04-05</text><line class="chronology-connector" x1="220" y1="72" x2="271" y2="72" stroke="#cbd5e1" stroke-width="1.5"/><circle class="chronology-marker" cx="220" cy="72" r="7" fill="#2563eb" stroke="#0f172a" stroke-width="1.5"/><rect class="chronology-event-card" x="285" y="50" width="579" height="44" rx="6" ry="6" fill="#ffffff" stroke="#cbd5e1" stroke-width="1" filter="url(#chronology-card-shadow)" data-chronology-index="0" data-chronology-start-day="20463" data-chronology-end-day="" data-chronology-date-precision="day"/><rect class="chronology-event-accent" x="285" y="50" width="5" height="44" rx="2" ry="2" fill="#2563eb"/><text x="301" y="68" font-family="monospace" font-size="11" fill="#64748b">2026-01-10</text><text x="301" y="86" font-family="monospace" font-size="14" font-weight="600" fill="#0f172a">Phase 1</text><line class="chronology-connector" x1="220" y1="216" x2="271" y2="216" stroke="#cbd5e1" stroke-width="1.5"/><circle class="chronology-marker" cx="220" cy="216" r="7" fill="#2563eb" stroke="#0f172a" stroke-width="1.5"/><rect class="chronology-event-card" x="285" y="194" width="579" height="44" rx="6" ry="6" fill="#ffffff" stroke="#cbd5e1" stroke-width="1" filter="url(#chronology-card-shadow)" data-chronology-index="1" data-chronology-start-day="20504" data-chronology-end-day="" data-chronology-date-precision="day"/><rect class="chronology-event-accent" x="285" y="194" width="5" height="44" rx="2" ry="2" fill="#2563eb"/><text x="301" y="212" font-family="monospace" font-size="11" fill="#64748b">2026-02-20</text><text x="301" y="230" font-family="monospace" font-size="14" font-weight="600" fill="#0f172a">Phase 2</text><line class="chronology-connector" x1="220" y1="372" x2="271" y2="372" stroke="#cbd5e1" stroke-width="1.5"/><circle class="chronology-marker" cx="220" cy="372" r="7" fill="#2563eb" stroke="#0f172a" stroke-width="1.5"/><rect class="chronology-event-card" x="285" y="350" width="579" height="44" rx="6" ry="6" fill="#ffffff" stroke="#cbd5e1" stroke-width="1" filter="url(#chronology-card-shadow)" data-chronology-index="2" data-chronology-start-day="20548" data-chronology-end-day="" data-chronology-date-precision="day"/><rect class="chronology-event-accent" x="285" y="350" width="5" height="44" rx="2" ry="2" fill="#2563eb"/><text x="301" y="368" font-family="monospace" font-size="11" fill="#64748b">2026-04-05</text><text x="301" y="386" font-family="monospace" font-size="14" font-weight="600" fill="#0f172a">Phase 3</text></svg>