<svg xmlns="http://www.w3.org/2000/svg" width="900" height="566" viewBox="0 0 900 566" data-chronology-renderer="vertical-axis"><rect width="100%" height="100%" fill="#f8fafc"/><rect x="186" y="0" width="714" height="100%" fill="#ffffff"/><text x="36" y="30" font-family="monospace" font-size="18" font-weight="600" fill="#0f172a">Calendar Precision</text><defs><filter id="chronology-card-shadow" x="-4%" y="-20%" width="108%" height="140%"><feDropShadow dx="0" dy="1" stdDeviation="1.2" flood-color="#0f172a" flood-opacity="0.12"/></filter></defs><line class="chronology-axis" x1="220" y1="102" x2="220" y2="402" stroke="#334155" stroke-width="3" stroke-linecap="round"/><text x="150" y="106" text-anchor="end" font-family="monospace" font-size="11" fill="#64748b">1901-01-01</text><text x="150" y="406" text-anchor="end" font-family="monospace" font-size="11" fill="#64748b">2026-04-30</text><path class="chronology-bracket" d="M178,102 h22 M178,341 h22 M178,102 V341" fill="none" stroke="#2563eb" stroke-width="3" stroke-linecap="round" data-chronology-label="20th century"/><text class="chronology-bracket-label" x="168" y="221" text-anchor="end" dominant-baseline="middle" font-family="monospace" font-size="11" fill="#2563eb">20th century</text><path class="chronology-bracket" d="M178,315 h22 M178,338 h22 M178,315 V338" fill="none" stroke="#f97316" stroke-width="3" stroke-linecap="round" data-chronology-label="1990s"/><text class="chronology-bracket-label" x="168" y="326" text-anchor="end" dominant-baseline="middle" font-family="monospace" font-size="11" fill="#f97316">1990s</text><rect class="chronology-era" x="206" y="401" width="28" height="12" rx="8" ry="8" fill="#bfdbfe" fill-opacity="0.28" stroke="#bfdbfe" stroke-opacity="0.75" data-chronology-label="Research"/><line class="chronology-connector" x1="220" y1="102" x2="271" y2="102" stroke="#cbd5e1" stroke-width="1.5"/><circle class="chronology-marker" cx="220" cy="102" r="7" fill="#2563eb" stroke="#0f172a" stroke-width="1.5"/><rect class="chronology-event-card" x="285" y="80" width="579" height="44" rx="6" ry="6" fill="#ffffff" stroke="#cbd5e1" stroke-width="1" filter="url(#chronology-card-shadow)" data-chronology-index="0" data-chronology-start-day="-25202" data-chronology-end-day="11322" data-chronology-date-precision="century"/><rect class="chronology-event-accent" x="285" y="80" width="5" height="44" rx="2" ry="2" fill="#2563eb"/><text x="301" y="98" font-family="monospace" font-size="11" fill="#64748b">20th century</text><text x="301" y="116" font-family="monospace" font-size="14" font-weight="600" fill="#0f172a">20th century</text><line class="chronology-connector" x1="220" y1="315" x2="271" y2="315" stroke="#cbd5e1" stroke-width="1.5"/><circle class="chronology-marker" cx="220" cy="315" r="7" fill="#f97316" stroke="#0f172a" stroke-width="1.5"/><rect class="chronology-event-card" x="285" y="293" width="579" height="44" rx="6" ry="6" fill="#ffffff" stroke="#cbd5e1" stroke-width="1" filter="url(#chronology-card-shadow)" data-chronology-index="1" data-chronology-start-day="7305" data-chronology-end-day="10956" data-chronology-date-precision="year"/><rect class="chronology-event-accent" x="285" y="293" width="5" height="44" rx="2" ry="2" fill="#f97316"/><text x="301" y="311" font-family="monospace" font-size="11" fill="#64748b">1990 to 1999</text><text x="301" y="329" font-family="monospace" font-size="14" font-weight="600" fill="#0f172a">1990s</text><line class="chronology-connector" x1="220" y1="396" x2="271" y2="396" stroke="#cbd5e1" stroke-width="1.5"/><circle class="chronology-marker" cx="220" cy="396" r="7" fill="#2563eb" stroke="#0f172a" stroke-width="1.5"/><rect class="chronology-event-card" x="285" y="374" width="579" height="44" rx="6" ry="6" fill="#ffffff" stroke="#cbd5e1" stroke-width="1" filter="url(#chronology-card-shadow)" data-chronology-index="2" data-chronology-start-day="19737" data-chronology-end-day="" data-chronology-date-precision="day"/><rect class="chronology-event-accent" x="285" y="374" width="5" height="44" rx="2" ry="2" fill="#2563eb"/><text x="301" y="392" font-family="monospace" font-size="11" fill="#64748b">2024-01-15 01:08:12</text><text x="301" y="410" font-family="monospace" font-size="14" font-weight="600" fill="#0f172a">A: 2024-01-15 01:08:12</text><line class="chronology-connector" x1="220" y1="396" x2="271" y2="454" stroke="#cbd5e1" stroke-width="1.5"/><circle class="chronology-marker" cx="220" cy="396" r="7" fill="#2563eb" stroke="#0f172a" stroke-width="1.5"/><rect class="chronology-event-card" x="285" y="432" width="579" height="44" rx="6" ry="6" fill="#ffffff" stroke="#cbd5e1" stroke-width="1" filter="url(#chronology-card-shadow)" data-chronology-index="3" data-chronology-start-day="19737" data-chronology-end-day="" data-chronology-date-precision="day"/><rect class="chronology-event-accent" x="285" y="432" width="5" height="44" rx="2" ry="2" fill="#2563eb"/><text x="301" y="450" font-family="monospace" font-size="11" fill="#64748b">2024-01-15 13:08:12</text><text x="301" y="468" font-family="monospace" font-size="14" font-weight="600" fill="#0f172a">B: 2024-01-15 13:08:12</text><line class="chronology-connector" x1="220" y1="401" x2="271" y2="512" stroke="#cbd5e1" stroke-width="1.5"/><circle class="chronology-marker" cx="220" cy="401" r="7" fill="#bfdbfe" stroke="#0f172a" stroke-width="1.5"/><rect class="chronology-event-card" x="285" y="490" width="579" height="44" rx="6" ry="6" fill="#ffffff" stroke="#cbd5e1" stroke-width="1" filter="url(#chronology-card-shadow)" data-chronology-index="4" data-chronology-start-day="20485" data-chronology-end-day="20573" data-chronology-date-precision="month"/><rect class="chronology-event-accent" x="285" y="490" width="5" height="44" rx="2" ry="2" fill="#bfdbfe"/><text x="301" y="508" font-family="monospace" font-size="11" fill="#64748b">2026-02 to 2026-04</text><text x="301" y="526" font-family="monospace" font-size="14" font-weight="600" fill="#0f172a">Research</text></svg>