<svg xmlns="http://www.w3.org/2000/svg" width="480" height="484" viewBox="0 0 480 484"><rect width="100%" height="100%" fill="#ecfdf5"/><text x="32" y="30" font-family="monospace" font-size="12" fill="#0f172a">activity diagram</text><rect x="32" y="64" width="138" height="400" fill="#ecfdf5" stroke="#cbd5e1" stroke-width="1" stroke-dasharray="4 3"/><rect x="32" y="40" width="138" height="24" fill="#e2e8f0" stroke="#94a3b8" stroke-width="1"/><text x="101" y="56" text-anchor="middle" font-family="monospace" font-size="11" font-weight="600" fill="#0f172a">Build</text><rect x="170" y="64" width="138" height="400" fill="#f1f5f9" stroke="#cbd5e1" stroke-width="1" stroke-dasharray="4 3"/><rect x="170" y="40" width="138" height="24" fill="#dde5ef" stroke="#94a3b8" stroke-width="1"/><text x="239" y="56" text-anchor="middle" font-family="monospace" font-size="11" font-weight="600" fill="#0f172a">Test</text><rect x="308" y="64" width="138" height="400" fill="#ecfdf5" stroke="#cbd5e1" stroke-width="1" stroke-dasharray="4 3"/><rect x="308" y="40" width="138" height="24" fill="#e2e8f0" stroke="#94a3b8" stroke-width="1"/><text x="377" y="56" text-anchor="middle" font-family="monospace" font-size="11" font-weight="600" fill="#0f172a">Deploy</text><metadata data-activity-kind="PartitionStart" data-activity-lane="Build" data-activity-branch="0"/><metadata data-activity-kind="Start" data-activity-lane="Build" data-activity-branch="0"/><circle cx="101" cy="84" r="12" fill="#0f172a"/><metadata data-activity-kind="Action" data-activity-lane="Build" data-activity-branch="0"/><rect x="41" y="128" width="120" height="36" rx="18" ry="18" fill="#ecfdf5" stroke="#047857" stroke-width="1.5"/><text x="101" y="151" text-anchor="middle" font-family="monospace" font-size="12" fill="#0f172a">Init</text><line x1="101" y1="106" x2="101" y2="124" stroke="#0f172a" stroke-width="1.5"/><polygon points="101,124 97,116 105,116" fill="#0f172a"/><metadata data-activity-kind="Action" data-activity-lane="Build" data-activity-branch="0"/><rect x="41" y="188" width="120" height="36" rx="18" ry="18" fill="#ecfdf5" stroke="#047857" stroke-width="1.5"/><text x="101" y="211" text-anchor="middle" font-family="monospace" font-size="12" fill="#0f172a">Compile</text><line x1="101" y1="166" x2="101" y2="184" stroke="#0f172a" stroke-width="1.5"/><polygon points="101,184 97,176 105,176" fill="#0f172a"/><metadata data-activity-kind="PartitionStart" data-activity-lane="Test" data-activity-branch="0"/><metadata data-activity-kind="Action" data-activity-lane="Test" data-activity-branch="0"/><rect x="179" y="248" width="120" height="36" rx="18" ry="18" fill="#ecfdf5" stroke="#047857" stroke-width="1.5"/><text x="239" y="271" text-anchor="middle" font-family="monospace" font-size="12" fill="#0f172a">Run Tests</text><line x1="101" y1="226" x2="239" y2="244" stroke="#0f172a" stroke-width="1.5"/><polygon points="239,244 231,247 232,239" fill="#0f172a"/><metadata data-activity-kind="PartitionStart" data-activity-lane="Deploy" data-activity-branch="0"/><metadata data-activity-kind="Action" data-activity-lane="Deploy" data-activity-branch="0"/><rect x="317" y="308" width="120" height="36" rx="18" ry="18" fill="#ecfdf5" stroke="#047857" stroke-width="1.5"/><text x="377" y="331" text-anchor="middle" font-family="monospace" font-size="12" fill="#0f172a">Deploy</text><line x1="239" y1="286" x2="377" y2="304" stroke="#0f172a" stroke-width="1.5"/><polygon points="377,304 369,307 370,299" fill="#0f172a"/><metadata data-activity-kind="Stop" data-activity-lane="Deploy" data-activity-branch="0"/><circle cx="377" cy="384" r="14" fill="white" stroke="#0f172a" stroke-width="1.5"/><circle cx="377" cy="384" r="7" fill="#0f172a"/><line x1="377" y1="346" x2="377" y2="364" stroke="#0f172a" stroke-width="1.5"/><polygon points="377,364 373,356 381,356" fill="#0f172a"/></svg>