<svg xmlns="http://www.w3.org/2000/svg" width="480" height="640" viewBox="0 0 480 640"><rect width="100%" height="100%" fill="#ecfdf5"/><text x="32" y="30" font-family="monospace" font-size="12" fill="#0f172a">activity diagram</text><rect x="32" y="32" width="138" height="580" fill="#ecfdf5" stroke="#cbd5e1" stroke-width="1" stroke-dasharray="4 3"/><text x="101" y="50" text-anchor="middle" font-family="monospace" font-size="11" fill="#0f172a">Build</text><rect x="170" y="32" width="138" height="580" fill="#f1f5f9" stroke="#cbd5e1" stroke-width="1" stroke-dasharray="4 3"/><text x="239" y="50" text-anchor="middle" font-family="monospace" font-size="11" fill="#0f172a">Test</text><rect x="308" y="32" width="138" height="580" fill="#ecfdf5" stroke="#cbd5e1" stroke-width="1" stroke-dasharray="4 3"/><text x="377" y="50" text-anchor="middle" font-family="monospace" font-size="11" fill="#0f172a">Deploy</text><metadata data-activity-kind="PartitionStart" data-activity-lane="Build" data-activity-branch="0"/><rect x="24" y="44" width="432" height="36" rx="4" ry="4" fill="#ecfdf5" stroke="#047857" stroke-width="1" stroke-dasharray="4 3"/><text x="101" y="67" text-anchor="middle" font-family="monospace" font-size="12" font-weight="600" fill="#0f172a">partition: Build</text><metadata data-activity-kind="Start" data-activity-lane="Build" data-activity-branch="0"/><circle cx="101" cy="120" r="12" fill="#0f172a"/><line x1="101" y1="82" x2="101" y2="100" stroke="#0f172a" stroke-width="1.5"/><polygon points="101,100 97,92 105,92" fill="#0f172a"/><metadata data-activity-kind="Action" data-activity-lane="Build" data-activity-branch="0"/><rect x="41" y="164" width="120" height="36" rx="18" ry="18" fill="#ecfdf5" stroke="#047857" stroke-width="1.5"/><text x="101" y="187" text-anchor="middle" font-family="monospace" font-size="12" fill="#0f172a">Init</text><line x1="101" y1="142" x2="101" y2="160" stroke="#0f172a" stroke-width="1.5"/><polygon points="101,160 97,152 105,152" fill="#0f172a"/><metadata data-activity-kind="Action" data-activity-lane="Build" data-activity-branch="0"/><rect x="41" y="224" width="120" height="36" rx="18" ry="18" fill="#ecfdf5" stroke="#047857" stroke-width="1.5"/><text x="101" y="247" text-anchor="middle" font-family="monospace" font-size="12" fill="#0f172a">Compile</text><line x1="101" y1="202" x2="101" y2="220" stroke="#0f172a" stroke-width="1.5"/><polygon points="101,220 97,212 105,212" fill="#0f172a"/><metadata data-activity-kind="PartitionStart" data-activity-lane="Test" data-activity-branch="0"/><rect x="24" y="284" width="432" height="36" rx="4" ry="4" fill="#ecfdf5" stroke="#047857" stroke-width="1" stroke-dasharray="4 3"/><text x="239" y="307" text-anchor="middle" font-family="monospace" font-size="12" font-weight="600" fill="#0f172a">partition: Test</text><line x1="101" y1="262" x2="239" y2="280" stroke="#0f172a" stroke-width="1.5"/><polygon points="239,280 231,283 232,275" fill="#0f172a"/><metadata data-activity-kind="Action" data-activity-lane="Test" data-activity-branch="0"/><rect x="179" y="344" width="120" height="36" rx="18" ry="18" fill="#ecfdf5" stroke="#047857" stroke-width="1.5"/><text x="239" y="367" text-anchor="middle" font-family="monospace" font-size="12" fill="#0f172a">Run Tests</text><line x1="239" y1="322" x2="239" y2="340" stroke="#0f172a" stroke-width="1.5"/><polygon points="239,340 235,332 243,332" fill="#0f172a"/><metadata data-activity-kind="PartitionStart" data-activity-lane="Deploy" data-activity-branch="0"/><rect x="24" y="404" width="432" height="36" rx="4" ry="4" fill="#ecfdf5" stroke="#047857" stroke-width="1" stroke-dasharray="4 3"/><text x="377" y="427" text-anchor="middle" font-family="monospace" font-size="12" font-weight="600" fill="#0f172a">partition: Deploy</text><line x1="239" y1="382" x2="377" y2="400" stroke="#0f172a" stroke-width="1.5"/><polygon points="377,400 369,403 370,395" fill="#0f172a"/><metadata data-activity-kind="Action" data-activity-lane="Deploy" data-activity-branch="0"/><rect x="317" y="464" width="120" height="36" rx="18" ry="18" fill="#ecfdf5" stroke="#047857" stroke-width="1.5"/><text x="377" y="487" text-anchor="middle" font-family="monospace" font-size="12" fill="#0f172a">Deploy</text><line x1="377" y1="442" x2="377" y2="460" stroke="#0f172a" stroke-width="1.5"/><polygon points="377,460 373,452 381,452" fill="#0f172a"/><metadata data-activity-kind="Stop" data-activity-lane="Deploy" data-activity-branch="0"/><circle cx="377" cy="540" r="14" fill="white" stroke="#0f172a" stroke-width="1.5"/><circle cx="377" cy="540" r="7" fill="#0f172a"/><line x1="377" y1="502" x2="377" y2="520" stroke="#0f172a" stroke-width="1.5"/><polygon points="377,520 373,512 381,512" fill="#0f172a"/></svg>