<svg xmlns="http://www.w3.org/2000/svg" width="396" height="356" viewBox="0 0 396 356"><rect width="100%" height="100%" fill="#ecfdf5"/><rect x="16" y="52" width="120" height="284" fill="#ecfdf5" stroke="#cbd5e1" stroke-width="1" stroke-dasharray="4 3"/><rect x="16" y="28" width="120" height="24" fill="#e2e8f0" stroke="#94a3b8" stroke-width="1"/><text x="76" y="44" text-anchor="middle" font-family="monospace" font-size="11" font-weight="600" fill="#0f172a">Build</text><rect x="136" y="52" width="120" height="284" fill="#f1f5f9" stroke="#cbd5e1" stroke-width="1" stroke-dasharray="4 3"/><rect x="136" y="28" width="120" height="24" fill="#dde5ef" stroke="#94a3b8" stroke-width="1"/><text x="196" y="44" text-anchor="middle" font-family="monospace" font-size="11" font-weight="600" fill="#0f172a">Test</text><rect x="256" y="52" width="120" height="284" fill="#ecfdf5" stroke="#cbd5e1" stroke-width="1" stroke-dasharray="4 3"/><rect x="256" y="28" width="120" height="24" fill="#e2e8f0" stroke="#94a3b8" stroke-width="1"/><text x="316" y="44" text-anchor="middle" font-family="monospace" font-size="11" font-weight="600" fill="#0f172a">Deploy</text><metadata data-activity-kind="PartitionStart" data-activity-lane="Build" data-activity-branch="0"/><metadata data-activity-kind="Start" data-activity-lane="Build" data-activity-branch="0"/><circle cx="76" cy="72" r="12" fill="#0f172a"/><metadata data-activity-kind="Action" data-activity-lane="Build" data-activity-branch="0"/><rect x="28" y="100" width="96" height="36" rx="18" ry="18" fill="#ecfdf5" stroke="#047857" stroke-width="1.5"/><text x="76" y="123" text-anchor="middle" font-family="monospace" font-size="12" fill="#0f172a">Init</text><line x1="76" y1="94" x2="76" y2="96" stroke="#0f172a" stroke-width="1.5"/><polygon points="76,96 72,88 80,88" fill="#0f172a"/><metadata data-activity-kind="Action" data-activity-lane="Build" data-activity-branch="0"/><rect x="28" y="144" width="96" height="36" rx="18" ry="18" fill="#ecfdf5" stroke="#047857" stroke-width="1.5"/><text x="76" y="167" text-anchor="middle" font-family="monospace" font-size="12" fill="#0f172a">Compile</text><line x1="76" y1="138" x2="76" y2="140" stroke="#0f172a" stroke-width="1.5"/><polygon points="76,140 72,132 80,132" fill="#0f172a"/><metadata data-activity-kind="PartitionStart" data-activity-lane="Test" data-activity-branch="0"/><metadata data-activity-kind="Action" data-activity-lane="Test" data-activity-branch="0"/><rect x="148" y="188" width="96" height="36" rx="18" ry="18" fill="#ecfdf5" stroke="#047857" stroke-width="1.5"/><text x="196" y="211" text-anchor="middle" font-family="monospace" font-size="12" fill="#0f172a">Run Tests</text><line x1="76" y1="182" x2="76" y2="183" stroke="#0f172a" stroke-width="1.5"/><line x1="76" y1="183" x2="196" y2="183" stroke="#0f172a" stroke-width="1.5"/><line x1="196" y1="183" x2="196" y2="184" stroke="#0f172a" stroke-width="1.5"/><polygon points="196,184 192,176 200,176" fill="#0f172a"/><metadata data-activity-kind="PartitionStart" data-activity-lane="Deploy" data-activity-branch="0"/><metadata data-activity-kind="Action" data-activity-lane="Deploy" data-activity-branch="0"/><rect x="268" y="232" width="96" height="36" rx="18" ry="18" fill="#ecfdf5" stroke="#047857" stroke-width="1.5"/><text x="316" y="255" text-anchor="middle" font-family="monospace" font-size="12" fill="#0f172a">Deploy</text><line x1="196" y1="226" x2="196" y2="227" stroke="#0f172a" stroke-width="1.5"/><line x1="196" y1="227" x2="316" y2="227" stroke="#0f172a" stroke-width="1.5"/><line x1="316" y1="227" x2="316" y2="228" stroke="#0f172a" stroke-width="1.5"/><polygon points="316,228 312,220 320,220" fill="#0f172a"/><metadata data-activity-kind="Stop" data-activity-lane="Deploy" data-activity-branch="0"/><circle cx="316" cy="292" r="14" fill="white" stroke="#0f172a" stroke-width="1.5"/><circle cx="316" cy="292" r="7" fill="#0f172a"/><line x1="316" y1="270" x2="316" y2="272" stroke="#0f172a" stroke-width="1.5"/><polygon points="316,272 312,264 320,264" fill="#0f172a"/></svg>