<svg xmlns="http://www.w3.org/2000/svg" width="480" height="460" viewBox="0 0 480 460"><rect width="100%" height="100%" fill="#ecfdf5"/><text x="32" y="30" font-family="monospace" font-size="12" fill="#0f172a">activity diagram</text><rect x="32" y="40" width="416" height="400" fill="#ecfdf5" stroke="#cbd5e1" stroke-width="1" stroke-dasharray="4 3"/><metadata data-activity-kind="Start" data-activity-lane="default" data-activity-branch="0"/><circle cx="240" cy="60" r="12" fill="#0f172a"/><metadata data-activity-kind="Action" data-activity-lane="default" data-activity-branch="0"/><rect x="130" y="104" width="220" height="36" rx="18" ry="18" fill="#ecfdf5" stroke="#047857" stroke-width="1.5"/><text x="240" y="127" text-anchor="middle" font-family="monospace" font-size="12" fill="#0f172a">Init</text><line x1="240" y1="82" x2="240" y2="100" stroke="#0f172a" stroke-width="1.5"/><polygon points="240,100 236,92 244,92" fill="#0f172a"/><metadata data-activity-kind="Action" data-activity-lane="default" data-activity-branch="0"/><rect x="130" y="164" width="220" height="36" rx="18" ry="18" fill="gold" stroke="#047857" stroke-width="1.5"/><text x="240" y="187" text-anchor="middle" font-family="monospace" font-size="12" fill="#0f172a">Compile</text><line x1="240" y1="142" x2="240" y2="160" stroke="#0f172a" stroke-width="1.5"/><polygon points="240,160 236,152 244,152" fill="#0f172a"/><metadata data-activity-kind="Action" data-activity-lane="default" data-activity-branch="0"/><rect x="130" y="224" width="220" height="36" rx="18" ry="18" fill="lightblue" stroke="#047857" stroke-width="1.5"/><text x="240" y="247" text-anchor="middle" font-family="monospace" font-size="12" fill="#0f172a">Test</text><line x1="240" y1="202" x2="240" y2="220" stroke="#0f172a" stroke-width="1.5"/><polygon points="240,220 236,212 244,212" fill="#0f172a"/><metadata data-activity-kind="Action" data-activity-lane="default" data-activity-branch="0"/><rect x="130" y="284" width="220" height="36" rx="18" ry="18" fill="lightgreen" stroke="#047857" stroke-width="1.5"/><text x="240" y="307" text-anchor="middle" font-family="monospace" font-size="12" fill="#0f172a">Deploy</text><line x1="240" y1="262" x2="240" y2="280" stroke="#0f172a" stroke-width="1.5"/><polygon points="240,280 236,272 244,272" fill="#0f172a"/><metadata data-activity-kind="Stop" data-activity-lane="default" data-activity-branch="0"/><circle cx="240" cy="360" r="14" fill="white" stroke="#0f172a" stroke-width="1.5"/><circle cx="240" cy="360" r="7" fill="#0f172a"/><line x1="240" y1="322" x2="240" y2="340" stroke="#0f172a" stroke-width="1.5"/><polygon points="240,340 236,332 244,332" fill="#0f172a"/></svg>