<svg xmlns="http://www.w3.org/2000/svg" width="248" height="332" viewBox="0 0 248 332"><rect width="100%" height="100%" fill="#ecfdf5"/><metadata data-activity-kind="Start" data-activity-lane="default" data-activity-branch="0"/><circle cx="116" cy="48" r="12" fill="#0f172a"/><metadata data-activity-kind="Action" data-activity-lane="default" data-activity-branch="0"/><rect x="36" y="76" width="160" height="36" rx="18" ry="18" fill="#ecfdf5" stroke="#047857" stroke-width="1.5"/><text x="116" y="99" text-anchor="middle" font-family="monospace" font-size="12" fill="#0f172a">Init</text><line x1="116" y1="70" x2="116" y2="72" stroke="#0f172a" stroke-width="1.5"/><polygon points="116,72 112,64 120,64" fill="#0f172a"/><metadata data-activity-kind="Action" data-activity-lane="default" data-activity-branch="0"/><rect x="36" y="120" width="160" height="36" rx="18" ry="18" fill="gold" stroke="#047857" stroke-width="1.5"/><text x="116" y="143" text-anchor="middle" font-family="monospace" font-size="12" fill="#0f172a">Compile</text><line x1="116" y1="114" x2="116" y2="116" stroke="#0f172a" stroke-width="1.5"/><polygon points="116,116 112,108 120,108" fill="#0f172a"/><metadata data-activity-kind="Action" data-activity-lane="default" data-activity-branch="0"/><rect x="36" y="164" width="160" height="36" rx="18" ry="18" fill="lightblue" stroke="#047857" stroke-width="1.5"/><text x="116" y="187" text-anchor="middle" font-family="monospace" font-size="12" fill="#0f172a">Test</text><line x1="116" y1="158" x2="116" y2="160" stroke="#0f172a" stroke-width="1.5"/><polygon points="116,160 112,152 120,152" fill="#0f172a"/><metadata data-activity-kind="Action" data-activity-lane="default" data-activity-branch="0"/><rect x="36" y="208" width="160" height="36" rx="18" ry="18" fill="lightgreen" stroke="#047857" stroke-width="1.5"/><text x="116" y="231" text-anchor="middle" font-family="monospace" font-size="12" fill="#0f172a">Deploy</text><line x1="116" y1="202" x2="116" y2="204" stroke="#0f172a" stroke-width="1.5"/><polygon points="116,204 112,196 120,196" fill="#0f172a"/><metadata data-activity-kind="Stop" data-activity-lane="default" data-activity-branch="0"/><circle cx="116" cy="268" r="14" fill="white" stroke="#0f172a" stroke-width="1.5"/><circle cx="116" cy="268" r="7" fill="#0f172a"/><line x1="116" y1="246" x2="116" y2="248" stroke="#0f172a" stroke-width="1.5"/><polygon points="116,248 112,240 120,240" fill="#0f172a"/></svg>