<svg xmlns="http://www.w3.org/2000/svg" width="448" height="312" viewBox="0 0 448 312"><rect width="100%" height="100%" fill="#ecfdf5"/><rect x="16" y="52" width="120" height="240" fill="#ecfdf5" stroke="#cbd5e1" stroke-width="1" stroke-dasharray="4 3"/><rect x="16" y="28" width="120" height="24" fill="#e2e8f0" stroke="#94a3b8" stroke-width="1"/><text x="76" y="44" text-anchor="middle" font-family="monospace" font-size="11" font-weight="600" fill="#0f172a">Build</text><rect x="136" y="52" width="120" height="240" fill="#f1f5f9" stroke="#cbd5e1" stroke-width="1" stroke-dasharray="4 3"/><rect x="136" y="28" width="120" height="24" fill="#dde5ef" stroke="#94a3b8" stroke-width="1"/><text x="196" y="44" text-anchor="middle" font-family="monospace" font-size="11" font-weight="600" fill="#0f172a">Test</text><metadata data-activity-kind="PartitionStart" data-activity-lane="Build" data-activity-branch="0"/><metadata data-activity-kind="Start" data-activity-lane="Build" data-activity-branch="0"/><circle cx="76" cy="72" r="12" fill="#0f172a"/><metadata data-activity-kind="Action" data-activity-lane="Build" data-activity-branch="0"/><rect x="28" y="100" width="96" height="36" rx="18" ry="18" fill="#ecfdf5" stroke="#047857" stroke-width="1.5"/><text x="76" y="123" text-anchor="middle" font-family="monospace" font-size="12" fill="#0f172a">Init</text><polyline points="76,94 76,96" fill="none" stroke="#0f172a" stroke-width="1.5"/><polygon points="76,96 72,88 80,88" fill="#0f172a"/><metadata data-activity-kind="Action" data-activity-lane="Build" data-activity-branch="0"/><rect x="28" y="144" width="96" height="36" rx="18" ry="18" fill="gold" stroke="#047857" stroke-width="1.5"/><text x="76" y="167" text-anchor="middle" font-family="monospace" font-size="12" fill="#0f172a">Compile</text><polyline points="76,138 76,140" fill="none" stroke="#0f172a" stroke-width="1.5"/><polygon points="76,140 72,132 80,132" fill="#0f172a"/><metadata data-activity-kind="Action" data-activity-lane="Build" data-activity-branch="0"/><rect x="28" y="188" width="96" height="36" rx="18" ry="18" fill="#ecfdf5" stroke="#047857" stroke-width="1.5"/><text x="76" y="211" text-anchor="middle" font-family="monospace" font-size="12" fill="#0f172a">Test</text><polyline points="76,182 76,184" fill="none" stroke="#0f172a" stroke-width="1.5"/><polygon points="76,184 72,176 80,176" fill="#0f172a"/><metadata data-activity-kind="PartitionStart" data-activity-lane="Test" data-activity-branch="0"/><metadata data-activity-kind="Detach" data-activity-lane="Test" data-activity-branch="0"/><line x1="184" y1="248" x2="208" y2="248" stroke="#0f172a" stroke-width="3"/><polyline points="76,226 76,227 196,227 196,228" fill="none" stroke="#0f172a" stroke-width="1.5"/><polygon points="196,228 192,220 200,220" fill="#0f172a"/><metadata data-activity-kind="Note" data-activity-lane="default" data-activity-branch="0"/><line class="activity-note-connector" x1="244" y1="250" x2="320" y2="252" stroke="#8a6d1d" stroke-width="1" stroke-dasharray="4 3"/><path d="M320,230 H400 L416 246 V274 H320 Z" fill="#fff8c4" stroke="#8a6d00" stroke-width="1.2"/><path d="M400 230 V246 H416" fill="none" stroke="#8a6d00" stroke-width="1"/><text x="330" y="252" font-family="monospace" font-size="12" fill="#3b2f00">baseline note</text></svg>