<svg xmlns="http://www.w3.org/2000/svg" width="480" height="544" viewBox="0 0 480 544"><rect width="100%" height="100%" fill="#ecfdf5"/><text x="32" y="30" font-family="monospace" font-size="12" fill="#0f172a">activity diagram</text><rect x="32" y="64" width="208" height="260" fill="#ecfdf5" stroke="#cbd5e1" stroke-width="1" stroke-dasharray="4 3"/><rect x="32" y="40" width="208" height="24" fill="#e2e8f0" stroke="#94a3b8" stroke-width="1"/><text x="136" y="56" text-anchor="middle" font-family="monospace" font-size="11" font-weight="600" fill="#0f172a">Build</text><rect x="240" y="304" width="208" height="140" fill="#f1f5f9" stroke="#cbd5e1" stroke-width="1" stroke-dasharray="4 3"/><rect x="240" y="280" width="208" height="24" fill="#dde5ef" stroke="#94a3b8" stroke-width="1"/><text x="344" y="296" text-anchor="middle" font-family="monospace" font-size="11" font-weight="600" fill="#0f172a">Test</text><metadata data-activity-kind="PartitionStart" data-activity-lane="Build" data-activity-branch="0"/><metadata data-activity-kind="Start" data-activity-lane="Build" data-activity-branch="0"/><circle cx="136" cy="84" r="12" fill="#0f172a"/><metadata data-activity-kind="Action" data-activity-lane="Build" data-activity-branch="0"/><rect x="44" y="128" width="184" height="36" rx="18" ry="18" fill="#ecfdf5" stroke="#047857" stroke-width="1.5"/><text x="136" y="151" text-anchor="middle" font-family="monospace" font-size="12" fill="#0f172a">Init</text><line x1="136" y1="106" x2="136" y2="124" stroke="#0f172a" stroke-width="1.5"/><polygon points="136,124 132,116 140,116" fill="#0f172a"/><metadata data-activity-kind="Action" data-activity-lane="Build" data-activity-branch="0"/><rect x="44" y="188" width="184" height="36" rx="18" ry="18" fill="#ecfdf5" stroke="#047857" stroke-width="1.5"/><text x="136" y="211" text-anchor="middle" font-family="monospace" font-size="12" fill="#0f172a">Compile</text><line x1="136" y1="166" x2="136" y2="184" stroke="#0f172a" stroke-width="1.5"/><polygon points="136,184 132,176 140,176" fill="#0f172a"/><metadata data-activity-kind="Action" data-activity-lane="Build" data-activity-branch="0"/><rect x="44" y="248" width="184" height="36" rx="18" ry="18" fill="#ecfdf5" stroke="#047857" stroke-width="1.5"/><text x="136" y="271" text-anchor="middle" font-family="monospace" font-size="12" fill="#0f172a">Test</text><line x1="136" y1="226" x2="136" y2="244" stroke="#0f172a" stroke-width="1.5"/><polygon points="136,244 132,236 140,236" fill="#0f172a"/><metadata data-activity-kind="PartitionStart" data-activity-lane="Test" data-activity-branch="0"/><metadata data-activity-kind="Stop" data-activity-lane="Test" data-activity-branch="0"/><circle cx="344" cy="324" r="14" fill="white" stroke="#0f172a" stroke-width="1.5"/><circle cx="344" cy="324" r="7" fill="#0f172a"/><line x1="136" y1="286" x2="136" y2="295" stroke="#0f172a" stroke-width="1.5"/><line x1="136" y1="295" x2="344" y2="295" stroke="#0f172a" stroke-width="1.5"/><line x1="344" y1="295" x2="344" y2="304" stroke="#0f172a" stroke-width="1.5"/><polygon points="344,304 340,296 348,296" fill="#0f172a"/><metadata data-activity-kind="Stop" data-activity-lane="Test" data-activity-branch="0"/><circle cx="344" cy="384" r="14" fill="white" stroke="#0f172a" stroke-width="1.5"/><circle cx="344" cy="384" r="7" fill="#0f172a"/><text x="344" y="408" text-anchor="middle" font-family="monospace" font-size="10" fill="#0f172a">detach</text><line x1="344" y1="346" x2="344" y2="364" stroke="#0f172a" stroke-width="1.5"/><polygon points="344,364 340,356 348,356" fill="#0f172a"/><metadata data-activity-kind="" data-activity-lane="default" data-activity-branch="0"/><path d="M44,426 H212 L228 442 V470 H44 Z" fill="#fff8c4" stroke="#8a6d00" stroke-width="1.2"/><path d="M212 426 V442 H228" fill="none" stroke="#8a6d00" stroke-width="1"/><text x="54" y="448" font-family="monospace" font-size="12" fill="#3b2f00">baseline note</text><line x1="344" y1="406" x2="344" y2="415" stroke="#0f172a" stroke-width="1.5"/><line x1="344" y1="415" x2="136" y2="415" stroke="#0f172a" stroke-width="1.5"/><line x1="136" y1="415" x2="136" y2="424" stroke="#0f172a" stroke-width="1.5"/><polygon points="136,424 132,416 140,416" fill="#0f172a"/></svg>