<svg xmlns="http://www.w3.org/2000/svg" width="480" height="640" viewBox="0 0 480 640"><rect width="100%" height="100%" fill="#ecfdf5"/><text x="32" y="30" font-family="monospace" font-size="12" fill="#0f172a">activity diagram</text><rect x="32" y="32" width="208" height="580" fill="#ecfdf5" stroke="#cbd5e1" stroke-width="1" stroke-dasharray="4 3"/><text x="136" y="50" text-anchor="middle" font-family="monospace" font-size="11" fill="#0f172a">Build</text><rect x="240" y="32" width="208" height="580" fill="#f1f5f9" stroke="#cbd5e1" stroke-width="1" stroke-dasharray="4 3"/><text x="344" y="50" text-anchor="middle" font-family="monospace" font-size="11" fill="#0f172a">Test</text><metadata data-activity-kind="PartitionStart" data-activity-lane="Build" data-activity-branch="0"/><rect x="24" y="44" width="432" height="36" rx="4" ry="4" fill="#ecfdf5" stroke="#047857" stroke-width="1" stroke-dasharray="4 3"/><text x="136" y="67" text-anchor="middle" font-family="monospace" font-size="12" font-weight="600" fill="#0f172a">partition: Build</text><metadata data-activity-kind="Start" data-activity-lane="Build" data-activity-branch="0"/><circle cx="136" cy="120" r="12" fill="#0f172a"/><line x1="136" y1="82" x2="136" y2="100" stroke="#0f172a" stroke-width="1.5"/><polygon points="136,100 132,92 140,92" fill="#0f172a"/><metadata data-activity-kind="Action" data-activity-lane="Build" data-activity-branch="0"/><rect x="44" y="164" width="184" height="36" rx="18" ry="18" fill="#ecfdf5" stroke="#047857" stroke-width="1.5"/><text x="136" y="187" text-anchor="middle" font-family="monospace" font-size="12" fill="#0f172a">Init</text><line x1="136" y1="142" x2="136" y2="160" stroke="#0f172a" stroke-width="1.5"/><polygon points="136,160 132,152 140,152" fill="#0f172a"/><metadata data-activity-kind="Action" data-activity-lane="Build" data-activity-branch="0"/><rect x="44" y="224" width="184" height="36" rx="18" ry="18" fill="#ecfdf5" stroke="#047857" stroke-width="1.5"/><text x="136" y="247" text-anchor="middle" font-family="monospace" font-size="12" fill="#0f172a">Compile</text><line x1="136" y1="202" x2="136" y2="220" stroke="#0f172a" stroke-width="1.5"/><polygon points="136,220 132,212 140,212" fill="#0f172a"/><metadata data-activity-kind="Action" data-activity-lane="Build" data-activity-branch="0"/><rect x="44" y="284" width="184" height="36" rx="18" ry="18" fill="#ecfdf5" stroke="#047857" stroke-width="1.5"/><text x="136" y="307" text-anchor="middle" font-family="monospace" font-size="12" fill="#0f172a">Test</text><line x1="136" y1="262" x2="136" y2="280" stroke="#0f172a" stroke-width="1.5"/><polygon points="136,280 132,272 140,272" fill="#0f172a"/><metadata data-activity-kind="PartitionStart" data-activity-lane="Test" data-activity-branch="0"/><rect x="24" y="344" width="432" height="36" rx="4" ry="4" fill="#ecfdf5" stroke="#047857" stroke-width="1" stroke-dasharray="4 3"/><text x="344" y="367" text-anchor="middle" font-family="monospace" font-size="12" font-weight="600" fill="#0f172a">partition: Test</text><line x1="136" y1="322" x2="344" y2="340" stroke="#0f172a" stroke-width="1.5"/><polygon points="344,340 336,343 336,335" fill="#0f172a"/><metadata data-activity-kind="Stop" data-activity-lane="Test" data-activity-branch="0"/><circle cx="344" cy="420" r="14" fill="white" stroke="#0f172a" stroke-width="1.5"/><circle cx="344" cy="420" r="7" fill="#0f172a"/><line x1="344" y1="382" x2="344" y2="400" stroke="#0f172a" stroke-width="1.5"/><polygon points="344,400 340,392 348,392" fill="#0f172a"/><metadata data-activity-kind="Stop" data-activity-lane="Test" data-activity-branch="0"/><circle cx="344" cy="480" r="14" fill="white" stroke="#0f172a" stroke-width="1.5"/><circle cx="344" cy="480" r="7" fill="#0f172a"/><text x="344" y="504" text-anchor="middle" font-family="monospace" font-size="10" fill="#0f172a">detach</text><line x1="344" y1="442" x2="344" y2="460" stroke="#0f172a" stroke-width="1.5"/><polygon points="344,460 340,452 348,452" fill="#0f172a"/><metadata data-activity-kind="" data-activity-lane="default" data-activity-branch="0"/><path d="M44,522 H212 L228 538 V566 H44 Z" fill="#fff8c4" stroke="#8a6d00" stroke-width="1.2"/><path d="M212 522 V538 H228" fill="none" stroke="#8a6d00" stroke-width="1"/><text x="54" y="544" font-family="monospace" font-size="12" fill="#3b2f00">baseline note</text><line x1="344" y1="502" x2="136" y2="520" stroke="#0f172a" stroke-width="1.5"/><polygon points="136,520 144,515 144,523" fill="#0f172a"/></svg>