<svg xmlns="http://www.w3.org/2000/svg" width="760" height="166" viewBox="0 0 760 166"><rect width="100%" height="100%" fill="#ffffff"/><defs><marker id="arrow-open" viewBox="0 0 10 10" refX="9" refY="5" markerWidth="10" markerHeight="10" markerUnits="userSpaceOnUse" orient="auto-start-reverse"><path d="M0,0 L10,5 L0,10" fill="none" stroke="#1e293b" stroke-width="1.5"/></marker><marker id="arrow-triangle" viewBox="0 0 16 16" refX="15" refY="8" markerWidth="16" markerHeight="16" markerUnits="userSpaceOnUse" orient="auto-start-reverse"><polygon points="0,1 14,8 0,15" fill="#ffffff" stroke="#1e293b" stroke-width="1.5" fill-rule="nonzero"/></marker><marker id="arrow-diamond-filled" viewBox="0 0 14 10" refX="13" refY="5" markerWidth="14" markerHeight="10" markerUnits="userSpaceOnUse" orient="auto-start-reverse"><path d="M0,5 L7,0 L14,5 L7,10 z" fill="#1e293b" stroke="#1e293b" stroke-width="1"/></marker><marker id="arrow-diamond-open" viewBox="0 0 14 10" refX="13" refY="5" markerWidth="14" markerHeight="10" markerUnits="userSpaceOnUse" orient="auto-start-reverse"><path d="M0,5 L7,0 L14,5 L7,10 z" fill="#ffffff" stroke="#1e293b" stroke-width="1"/></marker></defs><line class="uml-relation" data-uml-from="Vehicle" data-uml-to="Car" x1="232" y1="79" x2="280" y2="71" stroke="#1e293b" stroke-width="2" marker-start="url(#arrow-triangle)"/><line class="uml-relation" data-uml-from="Vehicle" data-uml-to="Truck" x1="232" y1="79" x2="528" y2="71" stroke="#1e293b" stroke-width="2" marker-start="url(#arrow-triangle)"/><rect x="32" y="32" width="200" height="94" rx="4" ry="4" fill="#ffffff" stroke="#1e293b" stroke-width="1.5"/><rect x="32" y="32" width="200" height="30" rx="4" ry="4" fill="#dbeafe" stroke="#1e293b" stroke-width="1.5"/><line x1="32" y1="62" x2="232" y2="62" stroke="#1e293b" stroke-width="1"/><text x="132" y="53" text-anchor="middle" font-family="monospace" font-size="13" font-weight="600" fill="#0f172a">Vehicle</text><text class="uml-member" data-uml-visibility="public" x="42" y="78" font-family="monospace" font-size="11" fill="#16a34a">+make: String</text><text class="uml-member" data-uml-visibility="public" x="42" y="94" font-family="monospace" font-size="11" fill="#16a34a">+model: String</text><line x1="32" y1="102" x2="232" y2="102" stroke="#1e293b" stroke-width="1"/><text class="uml-member" data-uml-visibility="public" x="42" y="110" font-family="monospace" font-size="11" fill="#16a34a">+start()</text><rect x="280" y="32" width="200" height="78" rx="4" ry="4" fill="#ffffff" stroke="#1e293b" stroke-width="1.5"/><rect x="280" y="32" width="200" height="30" rx="4" ry="4" fill="#dbeafe" stroke="#1e293b" stroke-width="1.5"/><line x1="280" y1="62" x2="480" y2="62" stroke="#1e293b" stroke-width="1"/><text x="380" y="53" text-anchor="middle" font-family="monospace" font-size="13" font-weight="600" fill="#0f172a">Car</text><text class="uml-member" data-uml-visibility="public" x="290" y="78" font-family="monospace" font-size="11" fill="#16a34a">+doors: Int</text><line x1="280" y1="86" x2="480" y2="86" stroke="#1e293b" stroke-width="1"/><text class="uml-member" data-uml-visibility="public" x="290" y="94" font-family="monospace" font-size="11" fill="#16a34a">+drive()</text><rect x="528" y="32" width="200" height="78" rx="4" ry="4" fill="#ffffff" stroke="#1e293b" stroke-width="1.5"/><rect x="528" y="32" width="200" height="30" rx="4" ry="4" fill="#dbeafe" stroke="#1e293b" stroke-width="1.5"/><line x1="528" y1="62" x2="728" y2="62" stroke="#1e293b" stroke-width="1"/><text x="628" y="53" text-anchor="middle" font-family="monospace" font-size="13" font-weight="600" fill="#0f172a">Truck</text><text class="uml-member" data-uml-visibility="public" x="538" y="78" font-family="monospace" font-size="11" fill="#16a34a">+payload: Float</text><line x1="528" y1="86" x2="728" y2="86" stroke="#1e293b" stroke-width="1"/><text class="uml-member" data-uml-visibility="public" x="538" y="94" font-family="monospace" font-size="11" fill="#16a34a">+haul()</text></svg>