<svg xmlns="http://www.w3.org/2000/svg" width="364" height="316" viewBox="0 0 364 316" data-orientation="TopToBottom"><rect width="100%" height="100%" fill="#ffffff"/><defs><marker id="arrow-open" viewBox="0 0 10 10" refX="9" refY="5" markerWidth="10" markerHeight="10" markerUnits="userSpaceOnUse" orient="auto-start-reverse"><path d="M0,0 L10,5 L0,10" fill="none" stroke="#1e293b" stroke-width="1.5"/></marker><marker id="arrow-triangle" viewBox="0 0 16 16" refX="15" refY="8" markerWidth="16" markerHeight="16" markerUnits="userSpaceOnUse" orient="auto-start-reverse"><polygon points="0,1 14,8 0,15" fill="#ffffff" stroke="#1e293b" stroke-width="1.5" fill-rule="nonzero"/></marker><marker id="arrow-diamond-filled" viewBox="0 0 14 10" refX="13" refY="5" markerWidth="14" markerHeight="10" markerUnits="userSpaceOnUse" orient="auto-start-reverse"><path d="M0,5 L7,0 L14,5 L7,10 z" fill="#1e293b" stroke="#1e293b" stroke-width="1"/></marker><marker id="arrow-diamond-open" viewBox="0 0 14 10" refX="13" refY="5" markerWidth="14" markerHeight="10" markerUnits="userSpaceOnUse" orient="auto-start-reverse"><path d="M0,5 L7,0 L14,5 L7,10 z" fill="#ffffff" stroke="#1e293b" stroke-width="1"/></marker></defs><defs><marker id="arrow-triangle-filled" viewBox="0 0 12 12" refX="11" refY="6" markerWidth="12" markerHeight="12" markerUnits="userSpaceOnUse" orient="auto-start-reverse"><polygon points="0,0 12,6 0,12" fill="#1e293b" stroke="#1e293b" stroke-width="1.5"/></marker><marker id="arrow-box-filled" viewBox="0 0 12 12" refX="11" refY="6" markerWidth="12" markerHeight="12" markerUnits="userSpaceOnUse" orient="auto-start-reverse"><rect x="2" y="2" width="8" height="8" fill="#1e293b" stroke="#1e293b" stroke-width="1.5"/></marker><marker id="arrow-plus" viewBox="0 0 12 12" refX="11" refY="6" markerWidth="12" markerHeight="12" markerUnits="userSpaceOnUse" orient="auto-start-reverse"><path d="M6,1 L6,11 M1,6 L11,6" fill="none" stroke="#1e293b" stroke-width="1.8" stroke-linecap="round"/></marker><marker id="arrow-cross" viewBox="0 0 12 12" refX="11" refY="6" markerWidth="12" markerHeight="12" markerUnits="userSpaceOnUse" orient="auto-start-reverse"><path d="M2,2 L10,10 M10,2 L2,10" fill="none" stroke="#1e293b" stroke-width="1.8" stroke-linecap="round"/></marker><marker id="arrow-bracket-open" viewBox="0 0 12 14" refX="11" refY="7" markerWidth="12" markerHeight="14" markerUnits="userSpaceOnUse" orient="auto-start-reverse"><path d="M10,1 L4,1 L4,13 L10,13" fill="none" stroke="#1e293b" stroke-width="1.8" stroke-linecap="round" stroke-linejoin="round"/></marker><marker id="arrow-circle-open" viewBox="0 0 12 12" refX="11" refY="6" markerWidth="12" markerHeight="12" markerUnits="userSpaceOnUse" orient="auto-start-reverse"><circle cx="6" cy="6" r="4" fill="#ffffff" stroke="#1e293b" stroke-width="1.5"/></marker><marker id="arrow-circle-filled" viewBox="0 0 12 12" refX="11" refY="6" markerWidth="12" markerHeight="12" markerUnits="userSpaceOnUse" orient="auto-start-reverse"><circle cx="6" cy="6" r="4" fill="#1e293b" stroke="#1e293b" stroke-width="1.5"/></marker><marker id="arrow-double-open" viewBox="0 0 16 12" refX="15" refY="6" markerWidth="16" markerHeight="12" markerUnits="userSpaceOnUse" orient="auto-start-reverse"><path d="M0,1 L8,6 L0,11 M7,1 L15,6 L7,11" fill="none" stroke="#1e293b" stroke-width="1.5" stroke-linejoin="round"/></marker></defs><polyline class="uml-relation" data-uml-from="Vehicle" data-uml-to="Car" data-uml-arrow="&lt;|--" points="182,126 182,142 97,142 97,166" fill="none" stroke="#1e293b" stroke-width="2" marker-start="url(#arrow-triangle)" /><polyline class="uml-relation" data-uml-from="Vehicle" data-uml-to="Truck" data-uml-arrow="&lt;|--" points="182,126 182,150 267,150 267,166" fill="none" stroke="#1e293b" stroke-width="2" marker-start="url(#arrow-triangle)" /><rect class="uml-node uml-class" data-uml-id="Vehicle" x="117" y="32" width="130" height="94" rx="4" ry="4" fill="#ffffff" stroke="#1e293b" stroke-width="1.5"/><rect x="117" y="32" width="130" height="30" rx="4" ry="4" fill="#dbeafe" stroke="#1e293b" stroke-width="1.5"/><line x1="117" y1="62" x2="247" y2="62" stroke="#1e293b" stroke-width="1"/><circle class="uml-class-badge" cx="129" cy="49" r="8" fill="#A2D5A2" stroke="#2E7D32" stroke-width="1"/><text class="uml-class-badge-letter" x="129" y="52" text-anchor="middle" font-family="monospace" font-size="9" font-weight="700" fill="#2E7D32">C</text><text x="182" y="53" text-anchor="middle" font-family="monospace" font-size="13" font-weight="600" fill="#0f172a">Vehicle</text><circle class="uml-vis-glyph" cx="131" cy="73" r="4" fill="none" stroke="#16a34a" stroke-width="1.5"/><text class="uml-member" data-uml-visibility="public" x="141" y="78" font-family="monospace" font-size="11" fill="#16a34a">make: String</text><circle class="uml-vis-glyph" cx="131" cy="89" r="4" fill="none" stroke="#16a34a" stroke-width="1.5"/><text class="uml-member" data-uml-visibility="public" x="141" y="94" font-family="monospace" font-size="11" fill="#16a34a">model: String</text><line x1="117" y1="102" x2="247" y2="102" stroke="#1e293b" stroke-width="1"/><circle class="uml-vis-glyph" cx="131" cy="105" r="4" fill="#16a34a" stroke="#16a34a" stroke-width="1"/><text class="uml-member" data-uml-visibility="public" x="141" y="110" font-family="monospace" font-size="11" fill="#16a34a">start()</text><rect class="uml-node uml-class" data-uml-id="Car" x="32" y="166" width="130" height="78" rx="4" ry="4" fill="#ffffff" stroke="#1e293b" stroke-width="1.5"/><rect x="32" y="166" width="130" height="30" rx="4" ry="4" fill="#dbeafe" stroke="#1e293b" stroke-width="1.5"/><line x1="32" y1="196" x2="162" y2="196" stroke="#1e293b" stroke-width="1"/><circle class="uml-class-badge" cx="44" cy="183" r="8" fill="#A2D5A2" stroke="#2E7D32" stroke-width="1"/><text class="uml-class-badge-letter" x="44" y="186" text-anchor="middle" font-family="monospace" font-size="9" font-weight="700" fill="#2E7D32">C</text><text x="97" y="187" text-anchor="middle" font-family="monospace" font-size="13" font-weight="600" fill="#0f172a">Car</text><circle class="uml-vis-glyph" cx="46" cy="207" r="4" fill="none" stroke="#16a34a" stroke-width="1.5"/><text class="uml-member" data-uml-visibility="public" x="56" y="212" font-family="monospace" font-size="11" fill="#16a34a">doors: Int</text><line x1="32" y1="220" x2="162" y2="220" stroke="#1e293b" stroke-width="1"/><circle class="uml-vis-glyph" cx="46" cy="223" r="4" fill="#16a34a" stroke="#16a34a" stroke-width="1"/><text class="uml-member" data-uml-visibility="public" x="56" y="228" font-family="monospace" font-size="11" fill="#16a34a">drive()</text><rect class="uml-node uml-class" data-uml-id="Truck" x="202" y="166" width="130" height="78" rx="4" ry="4" fill="#ffffff" stroke="#1e293b" stroke-width="1.5"/><rect x="202" y="166" width="130" height="30" rx="4" ry="4" fill="#dbeafe" stroke="#1e293b" stroke-width="1.5"/><line x1="202" y1="196" x2="332" y2="196" stroke="#1e293b" stroke-width="1"/><circle class="uml-class-badge" cx="214" cy="183" r="8" fill="#A2D5A2" stroke="#2E7D32" stroke-width="1"/><text class="uml-class-badge-letter" x="214" y="186" text-anchor="middle" font-family="monospace" font-size="9" font-weight="700" fill="#2E7D32">C</text><text x="267" y="187" text-anchor="middle" font-family="monospace" font-size="13" font-weight="600" fill="#0f172a">Truck</text><circle class="uml-vis-glyph" cx="216" cy="207" r="4" fill="none" stroke="#16a34a" stroke-width="1.5"/><text class="uml-member" data-uml-visibility="public" x="226" y="212" font-family="monospace" font-size="11" fill="#16a34a">payload: Float</text><line x1="202" y1="220" x2="332" y2="220" stroke="#1e293b" stroke-width="1"/><circle class="uml-vis-glyph" cx="216" cy="223" r="4" fill="#16a34a" stroke="#16a34a" stroke-width="1"/><text class="uml-member" data-uml-visibility="public" x="226" y="228" font-family="monospace" font-size="11" fill="#16a34a">haul()</text></svg>