<svg xmlns="http://www.w3.org/2000/svg" width="704" height="590" viewBox="0 0 704 590"><rect width="100%" height="100%" fill="#ffffff"/><defs><marker id="arrow-open" viewBox="0 0 10 10" refX="9" refY="5" markerWidth="10" markerHeight="10" markerUnits="userSpaceOnUse" orient="auto-start-reverse"><path d="M0,0 L10,5 L0,10" fill="none" stroke="#1e293b" stroke-width="1.5"/></marker><marker id="arrow-triangle" viewBox="0 0 16 16" refX="15" refY="8" markerWidth="16" markerHeight="16" markerUnits="userSpaceOnUse" orient="auto-start-reverse"><polygon points="0,1 14,8 0,15" fill="#ffffff" stroke="#1e293b" stroke-width="1.5" fill-rule="nonzero"/></marker><marker id="arrow-diamond-filled" viewBox="0 0 14 10" refX="13" refY="5" markerWidth="14" markerHeight="10" markerUnits="userSpaceOnUse" orient="auto-start-reverse"><path d="M0,5 L7,0 L14,5 L7,10 z" fill="#1e293b" stroke="#1e293b" stroke-width="1"/></marker><marker id="arrow-diamond-open" viewBox="0 0 14 10" refX="13" refY="5" markerWidth="14" markerHeight="10" markerUnits="userSpaceOnUse" orient="auto-start-reverse"><path d="M0,5 L7,0 L14,5 L7,10 z" fill="#ffffff" stroke="#1e293b" stroke-width="1"/></marker></defs><polyline class="uml-relation" data-uml-from="House" data-uml-to="Room" data-uml-arrow="*--" points="112,94 112,165 112,236" fill="none" stroke="#1e293b" stroke-width="2" marker-start="url(#arrow-diamond-filled)" /><text x="224" y="188" text-anchor="middle" font-family="monospace" font-size="11" fill="#334155">contains</text><polyline class="uml-relation" data-uml-from="Room" data-uml-to="Furniture" data-uml-arrow="o--" points="112,314 112,385 112,456" fill="none" stroke="#1e293b" stroke-width="2" marker-start="url(#arrow-diamond-open)" /><text x="224" y="408" text-anchor="middle" font-family="monospace" font-size="11" fill="#334155">may have</text><rect x="32" y="32" width="160" height="62" rx="4" ry="4" fill="#ffffff" stroke="#1e293b" stroke-width="1.5"/><rect x="32" y="32" width="160" height="30" rx="4" ry="4" fill="#dbeafe" stroke="#1e293b" stroke-width="1.5"/><line x1="32" y1="62" x2="192" y2="62" stroke="#1e293b" stroke-width="1"/><text x="112" y="53" text-anchor="middle" font-family="monospace" font-size="13" font-weight="600" fill="#0f172a">House</text><text class="uml-member" data-uml-visibility="public" x="42" y="78" font-family="monospace" font-size="11" fill="#16a34a">+address: String</text><rect x="32" y="236" width="160" height="78" rx="4" ry="4" fill="#ffffff" stroke="#1e293b" stroke-width="1.5"/><rect x="32" y="236" width="160" height="30" rx="4" ry="4" fill="#dbeafe" stroke="#1e293b" stroke-width="1.5"/><line x1="32" y1="266" x2="192" y2="266" stroke="#1e293b" stroke-width="1"/><text x="112" y="257" text-anchor="middle" font-family="monospace" font-size="13" font-weight="600" fill="#0f172a">Room</text><text class="uml-member" data-uml-visibility="public" x="42" y="282" font-family="monospace" font-size="11" fill="#16a34a">+name: String</text><text class="uml-member" data-uml-visibility="public" x="42" y="298" font-family="monospace" font-size="11" fill="#16a34a">+area: Float</text><rect x="32" y="456" width="160" height="62" rx="4" ry="4" fill="#ffffff" stroke="#1e293b" stroke-width="1.5"/><rect x="32" y="456" width="160" height="30" rx="4" ry="4" fill="#dbeafe" stroke="#1e293b" stroke-width="1.5"/><line x1="32" y1="486" x2="192" y2="486" stroke="#1e293b" stroke-width="1"/><text x="112" y="477" text-anchor="middle" font-family="monospace" font-size="13" font-weight="600" fill="#0f172a">Furniture</text><text class="uml-member" data-uml-visibility="public" x="42" y="502" font-family="monospace" font-size="11" fill="#16a34a">+type: String</text></svg>