<svg xmlns="http://www.w3.org/2000/svg" width="704" height="282" viewBox="0 0 704 282"><rect width="100%" height="100%" fill="#ffffff"/><defs><marker id="arrow-open" viewBox="0 0 10 10" refX="9" refY="5" markerWidth="10" markerHeight="10" markerUnits="userSpaceOnUse" orient="auto-start-reverse"><path d="M0,0 L10,5 L0,10" fill="none" stroke="#1e293b" stroke-width="1.5"/></marker><marker id="arrow-triangle" viewBox="0 0 16 16" refX="15" refY="8" markerWidth="16" markerHeight="16" markerUnits="userSpaceOnUse" orient="auto-start-reverse"><polygon points="0,1 14,8 0,15" fill="#ffffff" stroke="#1e293b" stroke-width="1.5" fill-rule="nonzero"/></marker><marker id="arrow-diamond-filled" viewBox="0 0 14 10" refX="13" refY="5" markerWidth="14" markerHeight="10" markerUnits="userSpaceOnUse" orient="auto-start-reverse"><path d="M0,5 L7,0 L14,5 L7,10 z" fill="#1e293b" stroke="#1e293b" stroke-width="1"/></marker><marker id="arrow-diamond-open" viewBox="0 0 14 10" refX="13" refY="5" markerWidth="14" markerHeight="10" markerUnits="userSpaceOnUse" orient="auto-start-reverse"><path d="M0,5 L7,0 L14,5 L7,10 z" fill="#ffffff" stroke="#1e293b" stroke-width="1"/></marker></defs><polyline class="uml-relation" data-uml-from="OrderService" data-uml-to="PaymentGateway" data-uml-arrow="--&gt;" points="232,70 232,109 352,109 352,172" fill="none" stroke="#1e293b" stroke-width="2" marker-end="url(#arrow-open)" /><text x="292" y="97" text-anchor="middle" font-family="monospace" font-size="11" fill="#334155">uses</text><polyline class="uml-relation" data-uml-from="OrderService" data-uml-to="EmailService" data-uml-arrow="--&gt;" points="232,70 232,117 112,117 112,172" fill="none" stroke="#1e293b" stroke-width="2" marker-end="url(#arrow-open)" /><text x="172" y="105" text-anchor="middle" font-family="monospace" font-size="11" fill="#334155">notifies</text><rect x="152" y="32" width="160" height="38" rx="4" ry="4" fill="#ffffff" stroke="#1e293b" stroke-width="1.5"/><rect x="152" y="32" width="160" height="30" rx="4" ry="4" fill="#dbeafe" stroke="#1e293b" stroke-width="1.5"/><line x1="152" y1="62" x2="312" y2="62" stroke="#1e293b" stroke-width="1"/><text x="232" y="53" text-anchor="middle" font-family="monospace" font-size="13" font-weight="600" fill="#0f172a">OrderService</text><rect x="272" y="172" width="160" height="38" rx="4" ry="4" fill="#ffffff" stroke="#1e293b" stroke-width="1.5"/><rect x="272" y="172" width="160" height="30" rx="4" ry="4" fill="#dbeafe" stroke="#1e293b" stroke-width="1.5"/><line x1="272" y1="202" x2="432" y2="202" stroke="#1e293b" stroke-width="1"/><text x="352" y="193" text-anchor="middle" font-family="monospace" font-size="13" font-weight="600" fill="#0f172a">PaymentGateway</text><rect x="32" y="172" width="160" height="38" rx="4" ry="4" fill="#ffffff" stroke="#1e293b" stroke-width="1.5"/><rect x="32" y="172" width="160" height="30" rx="4" ry="4" fill="#dbeafe" stroke="#1e293b" stroke-width="1.5"/><line x1="32" y1="202" x2="192" y2="202" stroke="#1e293b" stroke-width="1"/><text x="112" y="193" text-anchor="middle" font-family="monospace" font-size="13" font-weight="600" fill="#0f172a">EmailService</text></svg>