<svg xmlns="http://www.w3.org/2000/svg" width="704" height="110" viewBox="0 0 704 110"><rect width="100%" height="100%" fill="#ffffff"/><defs><marker id="arrow-open" viewBox="0 0 10 10" refX="9" refY="5" markerWidth="10" markerHeight="10" markerUnits="userSpaceOnUse" orient="auto-start-reverse"><path d="M0,0 L10,5 L0,10" fill="none" stroke="#1e293b" stroke-width="1.5"/></marker><marker id="arrow-triangle" viewBox="0 0 16 16" refX="15" refY="8" markerWidth="16" markerHeight="16" markerUnits="userSpaceOnUse" orient="auto-start-reverse"><polygon points="0,1 14,8 0,15" fill="#ffffff" stroke="#1e293b" stroke-width="1.5" fill-rule="nonzero"/></marker><marker id="arrow-diamond-filled" viewBox="0 0 14 10" refX="13" refY="5" markerWidth="14" markerHeight="10" markerUnits="userSpaceOnUse" orient="auto-start-reverse"><path d="M0,5 L7,0 L14,5 L7,10 z" fill="#1e293b" stroke="#1e293b" stroke-width="1"/></marker><marker id="arrow-diamond-open" viewBox="0 0 14 10" refX="13" refY="5" markerWidth="14" markerHeight="10" markerUnits="userSpaceOnUse" orient="auto-start-reverse"><path d="M0,5 L7,0 L14,5 L7,10 z" fill="#ffffff" stroke="#1e293b" stroke-width="1"/></marker></defs><line class="uml-relation" data-uml-from="OrderService" data-uml-to="PaymentGateway" x1="192" y1="51" x2="272" y2="51" stroke="#1e293b" stroke-width="2" marker-end="url(#arrow-open)"/><text x="224" y="37" text-anchor="middle" font-family="monospace" font-size="11" fill="#334155">uses</text><line class="uml-relation" data-uml-from="OrderService" data-uml-to="EmailService" x1="192" y1="51" x2="512" y2="51" stroke="#1e293b" stroke-width="2" marker-end="url(#arrow-open)"/><text x="320" y="37" text-anchor="middle" font-family="monospace" font-size="11" fill="#334155">notifies</text><rect x="32" y="32" width="160" height="38" rx="4" ry="4" fill="#ffffff" stroke="#1e293b" stroke-width="1.5"/><rect x="32" y="32" width="160" height="30" rx="4" ry="4" fill="#dbeafe" stroke="#1e293b" stroke-width="1.5"/><line x1="32" y1="62" x2="192" y2="62" stroke="#1e293b" stroke-width="1"/><text x="112" y="53" text-anchor="middle" font-family="monospace" font-size="13" font-weight="600" fill="#0f172a">OrderService</text><rect x="272" y="32" width="160" height="38" rx="4" ry="4" fill="#ffffff" stroke="#1e293b" stroke-width="1.5"/><rect x="272" y="32" width="160" height="30" rx="4" ry="4" fill="#dbeafe" stroke="#1e293b" stroke-width="1.5"/><line x1="272" y1="62" x2="432" y2="62" stroke="#1e293b" stroke-width="1"/><text x="352" y="53" text-anchor="middle" font-family="monospace" font-size="13" font-weight="600" fill="#0f172a">PaymentGateway</text><rect x="512" y="32" width="160" height="38" rx="4" ry="4" fill="#ffffff" stroke="#1e293b" stroke-width="1.5"/><rect x="512" y="32" width="160" height="30" rx="4" ry="4" fill="#dbeafe" stroke="#1e293b" stroke-width="1.5"/><line x1="512" y1="62" x2="672" y2="62" stroke="#1e293b" stroke-width="1"/><text x="592" y="53" text-anchor="middle" font-family="monospace" font-size="13" font-weight="600" fill="#0f172a">EmailService</text></svg>