<svg xmlns="http://www.w3.org/2000/svg" width="404" height="322" viewBox="0 0 404 322" data-orientation="TopToBottom"><rect width="100%" height="100%" fill="#ffffff"/><defs><marker id="arrow-open" viewBox="0 0 10 10" refX="9" refY="5" markerWidth="10" markerHeight="10" markerUnits="userSpaceOnUse" orient="auto-start-reverse"><path d="M0,0 L10,5 L0,10" fill="none" stroke="#1e293b" stroke-width="1.5"/></marker><marker id="arrow-triangle" viewBox="0 0 16 16" refX="15" refY="8" markerWidth="16" markerHeight="16" markerUnits="userSpaceOnUse" orient="auto-start-reverse"><polygon points="0,1 14,8 0,15" fill="#ffffff" stroke="#1e293b" stroke-width="1.5" fill-rule="nonzero"/></marker><marker id="arrow-diamond-filled" viewBox="0 0 14 10" refX="13" refY="5" markerWidth="14" markerHeight="10" markerUnits="userSpaceOnUse" orient="auto-start-reverse"><path d="M0,5 L7,0 L14,5 L7,10 z" fill="#1e293b" stroke="#1e293b" stroke-width="1"/></marker><marker id="arrow-diamond-open" viewBox="0 0 14 10" refX="13" refY="5" markerWidth="14" markerHeight="10" markerUnits="userSpaceOnUse" orient="auto-start-reverse"><path d="M0,5 L7,0 L14,5 L7,10 z" fill="#ffffff" stroke="#1e293b" stroke-width="1"/></marker></defs><defs><marker id="arrow-triangle-filled" viewBox="0 0 12 12" refX="11" refY="6" markerWidth="12" markerHeight="12" markerUnits="userSpaceOnUse" orient="auto-start-reverse"><polygon points="0,0 12,6 0,12" fill="#1e293b" stroke="#1e293b" stroke-width="1.5"/></marker><marker id="arrow-box-filled" viewBox="0 0 12 12" refX="11" refY="6" markerWidth="12" markerHeight="12" markerUnits="userSpaceOnUse" orient="auto-start-reverse"><rect x="2" y="2" width="8" height="8" fill="#1e293b" stroke="#1e293b" stroke-width="1.5"/></marker><marker id="arrow-plus" viewBox="0 0 12 12" refX="11" refY="6" markerWidth="12" markerHeight="12" markerUnits="userSpaceOnUse" orient="auto-start-reverse"><path d="M6,1 L6,11 M1,6 L11,6" fill="none" stroke="#1e293b" stroke-width="1.8" stroke-linecap="round"/></marker><marker id="arrow-cross" viewBox="0 0 12 12" refX="11" refY="6" markerWidth="12" markerHeight="12" markerUnits="userSpaceOnUse" orient="auto-start-reverse"><path d="M2,2 L10,10 M10,2 L2,10" fill="none" stroke="#1e293b" stroke-width="1.8" stroke-linecap="round"/></marker><marker id="arrow-bracket-open" viewBox="0 0 12 14" refX="11" refY="7" markerWidth="12" markerHeight="14" markerUnits="userSpaceOnUse" orient="auto-start-reverse"><path d="M10,1 L4,1 L4,13 L10,13" fill="none" stroke="#1e293b" stroke-width="1.8" stroke-linecap="round" stroke-linejoin="round"/></marker><marker id="arrow-circle-open" viewBox="0 0 12 12" refX="11" refY="6" markerWidth="12" markerHeight="12" markerUnits="userSpaceOnUse" orient="auto-start-reverse"><circle cx="6" cy="6" r="4" fill="#ffffff" stroke="#1e293b" stroke-width="1.5"/></marker><marker id="arrow-circle-filled" viewBox="0 0 12 12" refX="11" refY="6" markerWidth="12" markerHeight="12" markerUnits="userSpaceOnUse" orient="auto-start-reverse"><circle cx="6" cy="6" r="4" fill="#1e293b" stroke="#1e293b" stroke-width="1.5"/></marker><marker id="arrow-double-open" viewBox="0 0 16 12" refX="15" refY="6" markerWidth="16" markerHeight="12" markerUnits="userSpaceOnUse" orient="auto-start-reverse"><path d="M0,1 L8,6 L0,11 M7,1 L15,6 L7,11" fill="none" stroke="#1e293b" stroke-width="1.5" stroke-linejoin="round"/></marker></defs><polyline class="uml-relation" data-uml-from="Shape" data-uml-to="Circle" data-uml-arrow="&lt;|--" points="182,86 182,149 222,149 222,227" fill="none" stroke="#1e293b" stroke-width="2" marker-start="url(#arrow-triangle)" /><polyline class="uml-relation" data-uml-from="Shape" data-uml-to="Rectangle" data-uml-arrow="&lt;|--" points="107,140 107,160 107,180" fill="none" stroke="#1e293b" stroke-width="2" marker-start="url(#arrow-triangle)" /><polyline class="uml-relation" data-uml-from="Drawable" data-uml-to="Circle" data-uml-arrow="&lt;|.." points="297,108 297,144 297,180" fill="none" stroke="#1e293b" stroke-width="2" stroke-dasharray="5 3" marker-start="url(#arrow-triangle)" /><rect class="uml-node uml-class" data-uml-id="Shape" x="32" y="32" width="150" height="108" rx="4" ry="4" fill="#ffffff" stroke="#1e293b" stroke-width="1.5"/><rect x="32" y="32" width="150" height="44" rx="4" ry="4" fill="#f0e6ff" stroke="#1e293b" stroke-width="1.5"/><line x1="32" y1="76" x2="182" y2="76" stroke="#1e293b" stroke-width="1"/><text x="107" y="45" text-anchor="middle" font-family="monospace" font-size="10" fill="#0f172a">«abstract»</text><circle class="uml-class-badge" cx="44" cy="63" r="8" fill="#A2D5A2" stroke="#2E7D32" stroke-width="1"/><text class="uml-class-badge-letter" x="44" y="66" text-anchor="middle" font-family="monospace" font-size="9" font-weight="700" fill="#2E7D32">A</text><text x="107" y="67" text-anchor="middle" font-family="monospace" font-size="13" font-weight="600" fill="#0f172a" font-style="italic">Shape</text><text class="uml-member" x="42" y="92" font-family="monospace" font-size="11" fill="#334155" font-style="italic">color: String</text><line x1="32" y1="100" x2="182" y2="100" stroke="#1e293b" stroke-width="1"/><text class="uml-member" data-uml-modifier="abstract" x="42" y="108" font-family="monospace" font-size="11" fill="#334155" font-style="italic">area(): Float</text><text class="uml-member" data-uml-modifier="abstract" x="42" y="124" font-family="monospace" font-size="11" fill="#334155" font-style="italic">perimeter(): Float</text><rect class="uml-node uml-class" data-uml-id="Drawable" x="222" y="32" width="150" height="76" rx="4" ry="4" fill="#ffffff" stroke="#1e293b" stroke-width="1.5"/><rect x="222" y="32" width="150" height="44" rx="4" ry="4" fill="#dae8fc" stroke="#1e293b" stroke-width="1.5"/><line x1="222" y1="76" x2="372" y2="76" stroke="#1e293b" stroke-width="1"/><text x="297" y="45" text-anchor="middle" font-family="monospace" font-size="10" fill="#0f172a">«interface»</text><circle class="uml-class-badge" cx="234" cy="63" r="8" fill="#90CAF9" stroke="#1565C0" stroke-width="1"/><text class="uml-class-badge-letter" x="234" y="66" text-anchor="middle" font-family="monospace" font-size="9" font-weight="700" fill="#1565C0">I</text><text x="297" y="67" text-anchor="middle" font-family="monospace" font-size="13" font-weight="600" fill="#0f172a" font-style="italic">Drawable</text><text class="uml-member" x="232" y="92" font-family="monospace" font-size="11" fill="#334155" font-style="italic">draw(): void</text><rect class="uml-node uml-class" data-uml-id="Circle" x="222" y="180" width="150" height="94" rx="4" ry="4" fill="#ffffff" stroke="#1e293b" stroke-width="1.5"/><rect x="222" y="180" width="150" height="30" rx="4" ry="4" fill="#dbeafe" stroke="#1e293b" stroke-width="1.5"/><line x1="222" y1="210" x2="372" y2="210" stroke="#1e293b" stroke-width="1"/><circle class="uml-class-badge" cx="234" cy="197" r="8" fill="#A2D5A2" stroke="#2E7D32" stroke-width="1"/><text class="uml-class-badge-letter" x="234" y="200" text-anchor="middle" font-family="monospace" font-size="9" font-weight="700" fill="#2E7D32">C</text><text x="297" y="201" text-anchor="middle" font-family="monospace" font-size="13" font-weight="600" fill="#0f172a">Circle</text><text class="uml-member" x="232" y="226" font-family="monospace" font-size="11" fill="#334155">radius: Float</text><line x1="222" y1="234" x2="372" y2="234" stroke="#1e293b" stroke-width="1"/><text class="uml-member" x="232" y="242" font-family="monospace" font-size="11" fill="#334155">area(): Float</text><text class="uml-member" x="232" y="258" font-family="monospace" font-size="11" fill="#334155">perimeter(): Float</text><rect class="uml-node uml-class" data-uml-id="Rectangle" x="32" y="180" width="150" height="94" rx="4" ry="4" fill="#ffffff" stroke="#1e293b" stroke-width="1.5"/><rect x="32" y="180" width="150" height="30" rx="4" ry="4" fill="#dbeafe" stroke="#1e293b" stroke-width="1.5"/><line x1="32" y1="210" x2="182" y2="210" stroke="#1e293b" stroke-width="1"/><circle class="uml-class-badge" cx="44" cy="197" r="8" fill="#A2D5A2" stroke="#2E7D32" stroke-width="1"/><text class="uml-class-badge-letter" x="44" y="200" text-anchor="middle" font-family="monospace" font-size="9" font-weight="700" fill="#2E7D32">C</text><text x="107" y="201" text-anchor="middle" font-family="monospace" font-size="13" font-weight="600" fill="#0f172a">Rectangle</text><text class="uml-member" x="42" y="226" font-family="monospace" font-size="11" fill="#334155">width: Float</text><text class="uml-member" x="42" y="242" font-family="monospace" font-size="11" fill="#334155">height: Float</text><line x1="32" y1="250" x2="182" y2="250" stroke="#1e293b" stroke-width="1"/><text class="uml-member" x="42" y="258" font-family="monospace" font-size="11" fill="#334155">area(): Float</text></svg>