<svg xmlns="http://www.w3.org/2000/svg" width="480" height="478" viewBox="0 0 480 478" data-orientation="TopToBottom"><rect width="100%" height="100%" fill="#ffffff"/><defs><marker id="arrow-open" viewBox="0 0 10 10" refX="9" refY="5" markerWidth="10" markerHeight="10" markerUnits="userSpaceOnUse" orient="auto-start-reverse"><path d="M0,0 L10,5 L0,10" fill="none" stroke="#1e293b" stroke-width="1.5"/></marker><marker id="arrow-triangle" viewBox="0 0 16 16" refX="15" refY="8" markerWidth="16" markerHeight="16" markerUnits="userSpaceOnUse" orient="auto-start-reverse"><polygon points="0,1 14,8 0,15" fill="#ffffff" stroke="#1e293b" stroke-width="1.5" fill-rule="nonzero"/></marker><marker id="arrow-diamond-filled" viewBox="0 0 14 10" refX="13" refY="5" markerWidth="14" markerHeight="10" markerUnits="userSpaceOnUse" orient="auto-start-reverse"><path d="M0,5 L7,0 L14,5 L7,10 z" fill="#1e293b" stroke="#1e293b" stroke-width="1"/></marker><marker id="arrow-diamond-open" viewBox="0 0 14 10" refX="13" refY="5" markerWidth="14" markerHeight="10" markerUnits="userSpaceOnUse" orient="auto-start-reverse"><path d="M0,5 L7,0 L14,5 L7,10 z" fill="#ffffff" stroke="#1e293b" stroke-width="1"/></marker></defs><polyline class="uml-relation" data-uml-from="Shape" data-uml-to="Circle" data-uml-arrow="&lt;|--" points="112,140 112,171 352,171 352,312" fill="none" stroke="#1e293b" stroke-width="2" marker-start="url(#arrow-triangle)" /><polyline class="uml-relation" data-uml-from="Shape" data-uml-to="Rectangle" data-uml-arrow="&lt;|--" points="112,140 112,226 112,312" fill="none" stroke="#1e293b" stroke-width="2" marker-start="url(#arrow-triangle)" /><polyline class="uml-relation" data-uml-from="Drawable" data-uml-to="Circle" data-uml-arrow="&lt;|.." points="352,108 352,210 352,312" fill="none" stroke="#1e293b" stroke-width="2" stroke-dasharray="5 3" marker-start="url(#arrow-triangle)" /><rect x="32" y="32" width="160" height="108" rx="4" ry="4" fill="#ffffff" stroke="#1e293b" stroke-width="1.5"/><rect x="32" y="32" width="160" height="44" rx="4" ry="4" fill="#f0e6ff" stroke="#1e293b" stroke-width="1.5"/><line x1="32" y1="76" x2="192" y2="76" stroke="#1e293b" stroke-width="1"/><text x="112" y="45" text-anchor="middle" font-family="monospace" font-size="10" fill="#0f172a">«abstract»</text><text x="112" y="67" text-anchor="middle" font-family="monospace" font-size="13" font-weight="600" fill="#0f172a" font-style="italic">Shape</text><text class="uml-member" x="42" y="92" font-family="monospace" font-size="11" fill="#334155" font-style="italic">color: String</text><line x1="32" y1="100" x2="192" y2="100" stroke="#1e293b" stroke-width="1"/><text class="uml-member" data-uml-modifier="abstract" x="42" y="108" font-family="monospace" font-size="11" fill="#334155" font-style="italic">area(): Float</text><text class="uml-member" data-uml-modifier="abstract" x="42" y="124" font-family="monospace" font-size="11" fill="#334155" font-style="italic">perimeter(): Float</text><rect x="272" y="32" width="160" height="76" rx="4" ry="4" fill="#ffffff" stroke="#1e293b" stroke-width="1.5"/><rect x="272" y="32" width="160" height="44" rx="4" ry="4" fill="#dae8fc" stroke="#1e293b" stroke-width="1.5"/><line x1="272" y1="76" x2="432" y2="76" stroke="#1e293b" stroke-width="1"/><text x="352" y="45" text-anchor="middle" font-family="monospace" font-size="10" fill="#0f172a">«interface»</text><text x="352" y="67" text-anchor="middle" font-family="monospace" font-size="13" font-weight="600" fill="#0f172a" font-style="italic">Drawable</text><text class="uml-member" x="282" y="92" font-family="monospace" font-size="11" fill="#334155" font-style="italic">draw(): void</text><rect x="272" y="312" width="160" height="94" rx="4" ry="4" fill="#ffffff" stroke="#1e293b" stroke-width="1.5"/><rect x="272" y="312" width="160" height="30" rx="4" ry="4" fill="#dbeafe" stroke="#1e293b" stroke-width="1.5"/><line x1="272" y1="342" x2="432" y2="342" stroke="#1e293b" stroke-width="1"/><text x="352" y="333" text-anchor="middle" font-family="monospace" font-size="13" font-weight="600" fill="#0f172a">Circle</text><text class="uml-member" x="282" y="358" font-family="monospace" font-size="11" fill="#334155">radius: Float</text><line x1="272" y1="366" x2="432" y2="366" stroke="#1e293b" stroke-width="1"/><text class="uml-member" x="282" y="374" font-family="monospace" font-size="11" fill="#334155">area(): Float</text><text class="uml-member" x="282" y="390" font-family="monospace" font-size="11" fill="#334155">perimeter(): Float</text><rect x="32" y="312" width="160" height="94" rx="4" ry="4" fill="#ffffff" stroke="#1e293b" stroke-width="1.5"/><rect x="32" y="312" width="160" height="30" rx="4" ry="4" fill="#dbeafe" stroke="#1e293b" stroke-width="1.5"/><line x1="32" y1="342" x2="192" y2="342" stroke="#1e293b" stroke-width="1"/><text x="112" y="333" text-anchor="middle" font-family="monospace" font-size="13" font-weight="600" fill="#0f172a">Rectangle</text><text class="uml-member" x="42" y="358" font-family="monospace" font-size="11" fill="#334155">width: Float</text><text class="uml-member" x="42" y="374" font-family="monospace" font-size="11" fill="#334155">height: Float</text><line x1="32" y1="382" x2="192" y2="382" stroke="#1e293b" stroke-width="1"/><text class="uml-member" x="42" y="390" font-family="monospace" font-size="11" fill="#334155">area(): Float</text></svg>