<svg xmlns="http://www.w3.org/2000/svg" width="704" height="450" viewBox="0 0 704 450"><rect width="100%" height="100%" fill="#ffffff"/><defs><marker id="arrow-open" viewBox="0 0 10 10" refX="9" refY="5" markerWidth="10" markerHeight="10" markerUnits="userSpaceOnUse" orient="auto-start-reverse"><path d="M0,0 L10,5 L0,10" fill="none" stroke="#1e293b" stroke-width="1.5"/></marker><marker id="arrow-triangle" viewBox="0 0 16 16" refX="15" refY="8" markerWidth="16" markerHeight="16" markerUnits="userSpaceOnUse" orient="auto-start-reverse"><polygon points="0,1 14,8 0,15" fill="#ffffff" stroke="#1e293b" stroke-width="1.5" fill-rule="nonzero"/></marker><marker id="arrow-diamond-filled" viewBox="0 0 14 10" refX="13" refY="5" markerWidth="14" markerHeight="10" markerUnits="userSpaceOnUse" orient="auto-start-reverse"><path d="M0,5 L7,0 L14,5 L7,10 z" fill="#1e293b" stroke="#1e293b" stroke-width="1"/></marker><marker id="arrow-diamond-open" viewBox="0 0 14 10" refX="13" refY="5" markerWidth="14" markerHeight="10" markerUnits="userSpaceOnUse" orient="auto-start-reverse"><path d="M0,5 L7,0 L14,5 L7,10 z" fill="#ffffff" stroke="#1e293b" stroke-width="1"/></marker></defs><polyline class="uml-relation" data-uml-from="Shape" data-uml-to="Circle" data-uml-arrow="&lt;|--" points="232,126 232,193 112,193 112,284" fill="none" stroke="#1e293b" stroke-width="2" marker-start="url(#arrow-triangle)" /><polyline class="uml-relation" data-uml-from="Shape" data-uml-to="Rectangle" data-uml-arrow="&lt;|--" points="232,126 232,201 352,201 352,284" fill="none" stroke="#1e293b" stroke-width="2" marker-start="url(#arrow-triangle)" /><rect x="152" y="32" width="160" height="94" rx="4" ry="4" fill="#ffffff" stroke="#1e293b" stroke-width="1.5"/><rect x="152" y="32" width="160" height="30" rx="4" ry="4" fill="#dbeafe" stroke="#1e293b" stroke-width="1.5"/><line x1="152" y1="62" x2="312" y2="62" stroke="#1e293b" stroke-width="1"/><text x="232" y="53" text-anchor="middle" font-family="monospace" font-size="13" font-weight="600" fill="#0f172a">Shape</text><text class="uml-member" x="162" y="78" font-family="monospace" font-size="11" fill="#334155">color: String</text><line x1="152" y1="86" x2="312" y2="86" stroke="#1e293b" stroke-width="1"/><text class="uml-member" x="162" y="94" font-family="monospace" font-size="11" fill="#334155">area(): Float</text><text class="uml-member" x="162" y="110" font-family="monospace" font-size="11" fill="#334155">perimeter(): Float</text><rect x="32" y="284" width="160" height="94" rx="4" ry="4" fill="#ffffff" stroke="#1e293b" stroke-width="1.5"/><rect x="32" y="284" width="160" height="30" rx="4" ry="4" fill="#dbeafe" stroke="#1e293b" stroke-width="1.5"/><line x1="32" y1="314" x2="192" y2="314" stroke="#1e293b" stroke-width="1"/><text x="112" y="305" text-anchor="middle" font-family="monospace" font-size="13" font-weight="600" fill="#0f172a">Circle</text><text class="uml-member" x="42" y="330" font-family="monospace" font-size="11" fill="#334155">radius: Float</text><line x1="32" y1="338" x2="192" y2="338" stroke="#1e293b" stroke-width="1"/><text class="uml-member" x="42" y="346" font-family="monospace" font-size="11" fill="#334155">area(): Float</text><text class="uml-member" x="42" y="362" font-family="monospace" font-size="11" fill="#334155">perimeter(): Float</text><rect x="272" y="284" width="160" height="94" rx="4" ry="4" fill="#ffffff" stroke="#1e293b" stroke-width="1.5"/><rect x="272" y="284" width="160" height="30" rx="4" ry="4" fill="#dbeafe" stroke="#1e293b" stroke-width="1.5"/><line x1="272" y1="314" x2="432" y2="314" stroke="#1e293b" stroke-width="1"/><text x="352" y="305" text-anchor="middle" font-family="monospace" font-size="13" font-weight="600" fill="#0f172a">Rectangle</text><text class="uml-member" x="282" y="330" font-family="monospace" font-size="11" fill="#334155">width: Float</text><text class="uml-member" x="282" y="346" font-family="monospace" font-size="11" fill="#334155">height: Float</text><line x1="272" y1="354" x2="432" y2="354" stroke="#1e293b" stroke-width="1"/><text class="uml-member" x="282" y="362" font-family="monospace" font-size="11" fill="#334155">area(): Float</text></svg>