<svg xmlns="http://www.w3.org/2000/svg" width="262" height="408" viewBox="0 0 262 408" data-orientation="TopToBottom"><rect width="100%" height="100%" fill="#ffffff"/><defs><marker id="arrow-open" viewBox="0 0 10 10" refX="9" refY="5" markerWidth="10" markerHeight="10" markerUnits="userSpaceOnUse" orient="auto-start-reverse"><path d="M0,0 L10,5 L0,10" fill="none" stroke="#1e293b" stroke-width="1.5"/></marker><marker id="arrow-triangle" viewBox="0 0 16 16" refX="15" refY="8" markerWidth="16" markerHeight="16" markerUnits="userSpaceOnUse" orient="auto-start-reverse"><polygon points="0,1 14,8 0,15" fill="#ffffff" stroke="#1e293b" stroke-width="1.5" fill-rule="nonzero"/></marker><marker id="arrow-diamond-filled" viewBox="0 0 14 10" refX="13" refY="5" markerWidth="14" markerHeight="10" markerUnits="userSpaceOnUse" orient="auto-start-reverse"><path d="M0,5 L7,0 L14,5 L7,10 z" fill="#1e293b" stroke="#1e293b" stroke-width="1"/></marker><marker id="arrow-diamond-open" viewBox="0 0 14 10" refX="13" refY="5" markerWidth="14" markerHeight="10" markerUnits="userSpaceOnUse" orient="auto-start-reverse"><path d="M0,5 L7,0 L14,5 L7,10 z" fill="#ffffff" stroke="#1e293b" stroke-width="1"/></marker></defs><defs><marker id="arrow-triangle-filled" viewBox="0 0 12 12" refX="11" refY="6" markerWidth="12" markerHeight="12" markerUnits="userSpaceOnUse" orient="auto-start-reverse"><polygon points="0,0 12,6 0,12" fill="#1e293b" stroke="#1e293b" stroke-width="1.5"/></marker><marker id="arrow-box-filled" viewBox="0 0 12 12" refX="11" refY="6" markerWidth="12" markerHeight="12" markerUnits="userSpaceOnUse" orient="auto-start-reverse"><rect x="2" y="2" width="8" height="8" fill="#1e293b" stroke="#1e293b" stroke-width="1.5"/></marker><marker id="arrow-plus" viewBox="0 0 12 12" refX="11" refY="6" markerWidth="12" markerHeight="12" markerUnits="userSpaceOnUse" orient="auto-start-reverse"><path d="M6,1 L6,11 M1,6 L11,6" fill="none" stroke="#1e293b" stroke-width="1.8" stroke-linecap="round"/></marker><marker id="arrow-cross" viewBox="0 0 12 12" refX="11" refY="6" markerWidth="12" markerHeight="12" markerUnits="userSpaceOnUse" orient="auto-start-reverse"><path d="M2,2 L10,10 M10,2 L2,10" fill="none" stroke="#1e293b" stroke-width="1.8" stroke-linecap="round"/></marker><marker id="arrow-bracket-open" viewBox="0 0 12 14" refX="11" refY="7" markerWidth="12" markerHeight="14" markerUnits="userSpaceOnUse" orient="auto-start-reverse"><path d="M10,1 L4,1 L4,13 L10,13" fill="none" stroke="#1e293b" stroke-width="1.8" stroke-linecap="round" stroke-linejoin="round"/></marker><marker id="arrow-circle-open" viewBox="0 0 12 12" refX="11" refY="6" markerWidth="12" markerHeight="12" markerUnits="userSpaceOnUse" orient="auto-start-reverse"><circle cx="6" cy="6" r="4" fill="#ffffff" stroke="#1e293b" stroke-width="1.5"/></marker><marker id="arrow-circle-filled" viewBox="0 0 12 12" refX="11" refY="6" markerWidth="12" markerHeight="12" markerUnits="userSpaceOnUse" orient="auto-start-reverse"><circle cx="6" cy="6" r="4" fill="#1e293b" stroke="#1e293b" stroke-width="1.5"/></marker><marker id="arrow-double-open" viewBox="0 0 16 12" refX="15" refY="6" markerWidth="16" markerHeight="12" markerUnits="userSpaceOnUse" orient="auto-start-reverse"><path d="M0,1 L8,6 L0,11 M7,1 L15,6 L7,11" fill="none" stroke="#1e293b" stroke-width="1.5" stroke-linejoin="round"/></marker></defs><polyline class="uml-relation" data-uml-from="UserController" data-uml-to="UserService" data-uml-arrow="--&gt;" points="104,84 104,104 104,124" fill="none" stroke="#1e293b" stroke-width="2" marker-end="url(#arrow-open)" /><rect class="uml-edge-label-bg" data-uml-label-role="edge-background" x="71" y="89" width="66" height="18" fill="white" opacity="0.85"/><text class="uml-edge-label" data-uml-label-role="edge" x="104" y="102" text-anchor="middle" font-family="monospace" font-size="11" fill="#334155">delegates</text><polyline class="uml-relation" data-uml-from="UserService" data-uml-to="UserRepository" data-uml-arrow="--&gt;" points="104,176 104,196 104,216" fill="none" stroke="#1e293b" stroke-width="2" marker-end="url(#arrow-open)" /><rect class="uml-edge-label-bg" data-uml-label-role="edge-background" x="74" y="181" width="60" height="18" fill="white" opacity="0.85"/><text class="uml-edge-label" data-uml-label-role="edge" x="104" y="194" text-anchor="middle" font-family="monospace" font-size="11" fill="#334155">persists</text><polyline class="uml-relation" data-uml-from="UserRepository" data-uml-to="User" data-uml-arrow="--&gt;" points="104,268 104,288 104,308" fill="none" stroke="#1e293b" stroke-width="2" marker-end="url(#arrow-open)" /><rect class="uml-edge-label-bg" data-uml-label-role="edge-background" x="88" y="273" width="32" height="18" fill="white" opacity="0.85"/><text class="uml-edge-label" data-uml-label-role="edge" x="104" y="286" text-anchor="middle" font-family="monospace" font-size="11" fill="#334155">maps</text><polygon class="uml-node uml-stereotype-controller" data-uml-kind="class" data-uml-id="UserController" points="60,32 148,32 176,58 148,84 60,84 32,58" fill="#ffffff" stroke="#1e293b" stroke-width="1.5"/><polygon class="uml-stereotype-controller-header" points="60,32 148,32 172,54 36,54" fill="#bfdbfe" stroke="none"/><line x1="36" y1="54" x2="172" y2="54" stroke="#1e293b" stroke-width="1"/><text class="uml-stereotype" x="104" y="44" text-anchor="middle" font-family="monospace" font-size="10" fill="#0f172a">«controller»</text><text class="uml-node-name" x="104" y="48" text-anchor="middle" font-family="monospace" font-size="13" font-weight="600" fill="#0f172a">UserController</text><rect class="uml-node uml-stereotype-service" data-uml-kind="class" data-uml-id="UserService" x="32" y="124" width="144" height="52" rx="26" ry="26" fill="#ffffff" stroke="#1e293b" stroke-width="1.5"/><rect class="uml-stereotype-service-header" x="32" y="124" width="144" height="22" rx="26" ry="26" fill="#bbf7d0" stroke="none"/><line x1="32" y1="146" x2="176" y2="146" stroke="#1e293b" stroke-width="1"/><text class="uml-stereotype" x="104" y="136" text-anchor="middle" font-family="monospace" font-size="10" fill="#0f172a">«service»</text><text class="uml-node-name" x="104" y="140" text-anchor="middle" font-family="monospace" font-size="13" font-weight="600" fill="#0f172a">UserService</text><rect class="uml-node uml-stereotype-repository" data-uml-kind="class" data-uml-id="UserRepository" x="32" y="222" width="144" height="40" fill="#ffffff" stroke="#1e293b" stroke-width="1.5"/><ellipse cx="104" cy="262" rx="72" ry="6" fill="#ffffff" stroke="#1e293b" stroke-width="1.5"/><ellipse class="uml-stereotype-repository-header" cx="104" cy="222" rx="72" ry="6" fill="#fef3c7" stroke="#1e293b" stroke-width="1.5"/><line x1="32" y1="222" x2="32" y2="262" stroke="#1e293b" stroke-width="1.5"/><line x1="176" y1="222" x2="176" y2="262" stroke="#1e293b" stroke-width="1.5"/><text class="uml-stereotype" x="104" y="218" text-anchor="middle" font-family="monospace" font-size="10" fill="#0f172a">«repository»</text><text class="uml-node-name" x="104" y="242" text-anchor="middle" font-family="monospace" font-size="13" font-weight="600" fill="#0f172a">UserRepository</text><rect class="uml-node uml-class" data-uml-id="User" x="32" y="308" width="144" height="52" rx="4" ry="4" fill="#ffffff" stroke="#1e293b" stroke-width="1.5"/><rect x="32" y="308" width="144" height="44" rx="4" ry="4" fill="#fde68a" stroke="#1e293b" stroke-width="1.5"/><line x1="32" y1="352" x2="176" y2="352" stroke="#1e293b" stroke-width="1"/><text x="104" y="321" text-anchor="middle" font-family="monospace" font-size="10" fill="#0f172a">«entity»</text><circle class="uml-class-badge" cx="44" cy="339" r="8" fill="#A2D5A2" stroke="#2E7D32" stroke-width="1"/><text class="uml-class-badge-letter" x="44" y="342" text-anchor="middle" font-family="monospace" font-size="9" font-weight="700" fill="#2E7D32">C</text><text x="104" y="343" text-anchor="middle" font-family="monospace" font-size="13" font-weight="600" fill="#0f172a">User</text></svg>