<svg xmlns="http://www.w3.org/2000/svg" width="760" height="260" viewBox="0 0 760 260"><rect width="100%" height="100%" fill="#ffffff"/><defs><marker id="arrow-open" viewBox="0 0 10 10" refX="9" refY="5" markerWidth="10" markerHeight="10" markerUnits="userSpaceOnUse" orient="auto-start-reverse"><path d="M0,0 L10,5 L0,10" fill="none" stroke="#1e293b" stroke-width="1.5"/></marker><marker id="arrow-triangle" viewBox="0 0 12 12" refX="11" refY="6" markerWidth="12" markerHeight="12" markerUnits="userSpaceOnUse" orient="auto-start-reverse"><polygon points="0,0 12,6 0,12" fill="#ffffff" stroke="#1e293b" stroke-width="1.5" fill-rule="nonzero"/></marker><marker id="arrow-diamond-filled" viewBox="0 0 14 10" refX="13" refY="5" markerWidth="14" markerHeight="10" markerUnits="userSpaceOnUse" orient="auto-start-reverse"><path d="M0,5 L7,0 L14,5 L7,10 z" fill="#1e293b" stroke="#1e293b" stroke-width="1"/></marker><marker id="arrow-diamond-open" viewBox="0 0 14 10" refX="13" refY="5" markerWidth="14" markerHeight="10" markerUnits="userSpaceOnUse" orient="auto-start-reverse"><path d="M0,5 L7,0 L14,5 L7,10 z" fill="#ffffff" stroke="#1e293b" stroke-width="1"/></marker></defs><line class="uml-relation" data-uml-from="UserController" data-uml-to="UserService" x1="232" y1="63" x2="280" y2="63" stroke="#1e293b" stroke-width="2" marker-end="url(#arrow-open)"/><text x="256" y="47" text-anchor="middle" font-family="monospace" font-size="11" fill="#334155">delegates</text><line class="uml-relation" data-uml-from="UserService" data-uml-to="UserRepository" x1="480" y1="63" x2="528" y2="63" stroke="#1e293b" stroke-width="2" marker-end="url(#arrow-open)"/><text x="504" y="47" text-anchor="middle" font-family="monospace" font-size="11" fill="#334155">persists</text><line class="uml-relation" data-uml-from="UserRepository" data-uml-to="User" x1="528" y1="88" x2="232" y2="164" stroke="#1e293b" stroke-width="2" marker-end="url(#arrow-open)"/><text x="380" y="110" text-anchor="middle" font-family="monospace" font-size="11" fill="#334155">maps</text><rect x="32" y="32" width="200" height="62" rx="4" ry="4" fill="#ffffff" stroke="#1e293b" stroke-width="1.5"/><rect x="32" y="32" width="200" height="30" rx="4" ry="4" fill="#dbeafe" stroke="#1e293b" stroke-width="1.5"/><line x1="32" y1="62" x2="232" y2="62" stroke="#1e293b" stroke-width="1"/><text x="132" y="53" text-anchor="middle" font-family="monospace" font-size="13" font-weight="600" fill="#0f172a">UserController</text><text class="uml-member" x="42" y="78" font-family="monospace" font-size="11" fill="#334155">&lt;&lt;controller&gt;&gt;</text><rect x="280" y="32" width="200" height="62" rx="4" ry="4" fill="#ffffff" stroke="#1e293b" stroke-width="1.5"/><rect x="280" y="32" width="200" height="30" rx="4" ry="4" fill="#dbeafe" stroke="#1e293b" stroke-width="1.5"/><line x1="280" y1="62" x2="480" y2="62" stroke="#1e293b" stroke-width="1"/><text x="380" y="53" text-anchor="middle" font-family="monospace" font-size="13" font-weight="600" fill="#0f172a">UserService</text><text class="uml-member" x="290" y="78" font-family="monospace" font-size="11" fill="#334155">&lt;&lt;service&gt;&gt;</text><rect x="528" y="32" width="200" height="62" rx="4" ry="4" fill="#ffffff" stroke="#1e293b" stroke-width="1.5"/><rect x="528" y="32" width="200" height="30" rx="4" ry="4" fill="#dbeafe" stroke="#1e293b" stroke-width="1.5"/><line x1="528" y1="62" x2="728" y2="62" stroke="#1e293b" stroke-width="1"/><text x="628" y="53" text-anchor="middle" font-family="monospace" font-size="13" font-weight="600" fill="#0f172a">UserRepository</text><text class="uml-member" x="538" y="78" font-family="monospace" font-size="11" fill="#334155">&lt;&lt;repository&gt;&gt;</text><rect x="32" y="158" width="200" height="62" rx="4" ry="4" fill="#ffffff" stroke="#1e293b" stroke-width="1.5"/><rect x="32" y="158" width="200" height="30" rx="4" ry="4" fill="#dbeafe" stroke="#1e293b" stroke-width="1.5"/><line x1="32" y1="188" x2="232" y2="188" stroke="#1e293b" stroke-width="1"/><text x="132" y="179" text-anchor="middle" font-family="monospace" font-size="13" font-weight="600" fill="#0f172a">User</text><text class="uml-member" x="42" y="204" font-family="monospace" font-size="11" fill="#334155">&lt;&lt;entity&gt;&gt;</text></svg>