<svg xmlns="http://www.w3.org/2000/svg" width="294" height="660" viewBox="0 0 294 660" data-orientation="TopToBottom"><rect width="100%" height="100%" fill="#ffffff"/><defs><marker id="arrow-open" viewBox="0 0 10 10" refX="9" refY="5" markerWidth="10" markerHeight="10" markerUnits="userSpaceOnUse" orient="auto-start-reverse"><path d="M0,0 L10,5 L0,10" fill="none" stroke="#1e293b" stroke-width="1.5"/></marker><marker id="arrow-triangle" viewBox="0 0 16 16" refX="15" refY="8" markerWidth="16" markerHeight="16" markerUnits="userSpaceOnUse" orient="auto-start-reverse"><polygon points="0,1 14,8 0,15" fill="#ffffff" stroke="#1e293b" stroke-width="1.5" fill-rule="nonzero"/></marker><marker id="arrow-diamond-filled" viewBox="0 0 14 10" refX="13" refY="5" markerWidth="14" markerHeight="10" markerUnits="userSpaceOnUse" orient="auto-start-reverse"><path d="M0,5 L7,0 L14,5 L7,10 z" fill="#1e293b" stroke="#1e293b" stroke-width="1"/></marker><marker id="arrow-diamond-open" viewBox="0 0 14 10" refX="13" refY="5" markerWidth="14" markerHeight="10" markerUnits="userSpaceOnUse" orient="auto-start-reverse"><path d="M0,5 L7,0 L14,5 L7,10 z" fill="#ffffff" stroke="#1e293b" stroke-width="1"/></marker></defs><polyline class="uml-relation" data-uml-from="UserController" data-uml-to="UserService" data-uml-arrow="--&gt;" points="112,84 112,142 112,200" fill="none" stroke="#1e293b" stroke-width="2" marker-end="url(#arrow-open)" /><text class="uml-edge-label" data-uml-label-role="edge" x="227" y="130" text-anchor="middle" font-family="monospace" font-size="11" fill="#334155">delegates</text><polyline class="uml-relation" data-uml-from="UserService" data-uml-to="UserRepository" data-uml-arrow="--&gt;" points="112,252 112,310 112,368" fill="none" stroke="#1e293b" stroke-width="2" marker-end="url(#arrow-open)" /><text class="uml-edge-label" data-uml-label-role="edge" x="224" y="298" text-anchor="middle" font-family="monospace" font-size="11" fill="#334155">persists</text><polyline class="uml-relation" data-uml-from="UserRepository" data-uml-to="User" data-uml-arrow="--&gt;" points="112,420 112,478 112,536" fill="none" stroke="#1e293b" stroke-width="2" marker-end="url(#arrow-open)" /><text class="uml-edge-label" data-uml-label-role="edge" x="218" y="466" text-anchor="middle" font-family="monospace" font-size="11" fill="#334155">maps</text><rect x="32" y="32" width="160" height="52" rx="4" ry="4" fill="#ffffff" stroke="#1e293b" stroke-width="1.5"/><rect x="32" y="32" width="160" height="44" rx="4" ry="4" fill="#dbeafe" stroke="#1e293b" stroke-width="1.5"/><line x1="32" y1="76" x2="192" y2="76" stroke="#1e293b" stroke-width="1"/><text x="112" y="45" text-anchor="middle" font-family="monospace" font-size="10" fill="#0f172a">«controller»</text><text x="112" y="67" text-anchor="middle" font-family="monospace" font-size="13" font-weight="600" fill="#0f172a">UserController</text><rect x="32" y="200" width="160" height="52" rx="4" ry="4" fill="#ffffff" stroke="#1e293b" stroke-width="1.5"/><rect x="32" y="200" width="160" height="44" rx="4" ry="4" fill="#dbeafe" stroke="#1e293b" stroke-width="1.5"/><line x1="32" y1="244" x2="192" y2="244" stroke="#1e293b" stroke-width="1"/><text x="112" y="213" text-anchor="middle" font-family="monospace" font-size="10" fill="#0f172a">«service»</text><text x="112" y="235" text-anchor="middle" font-family="monospace" font-size="13" font-weight="600" fill="#0f172a">UserService</text><rect x="32" y="368" width="160" height="52" rx="4" ry="4" fill="#ffffff" stroke="#1e293b" stroke-width="1.5"/><rect x="32" y="368" width="160" height="44" rx="4" ry="4" fill="#dbeafe" stroke="#1e293b" stroke-width="1.5"/><line x1="32" y1="412" x2="192" y2="412" stroke="#1e293b" stroke-width="1"/><text x="112" y="381" text-anchor="middle" font-family="monospace" font-size="10" fill="#0f172a">«repository»</text><text x="112" y="403" text-anchor="middle" font-family="monospace" font-size="13" font-weight="600" fill="#0f172a">UserRepository</text><rect x="32" y="536" width="160" height="52" rx="4" ry="4" fill="#ffffff" stroke="#1e293b" stroke-width="1.5"/><rect x="32" y="536" width="160" height="44" rx="4" ry="4" fill="#dbeafe" stroke="#1e293b" stroke-width="1.5"/><line x1="32" y1="580" x2="192" y2="580" stroke="#1e293b" stroke-width="1"/><text x="112" y="549" text-anchor="middle" font-family="monospace" font-size="10" fill="#0f172a">«entity»</text><text x="112" y="571" text-anchor="middle" font-family="monospace" font-size="13" font-weight="600" fill="#0f172a">User</text></svg>