<svg xmlns="http://www.w3.org/2000/svg" width="984" height="386" viewBox="0 0 984 386"><rect width="100%" height="100%" fill="#ffffff"/><defs><marker id="arrow-open" viewBox="0 0 10 10" refX="9" refY="5" markerWidth="10" markerHeight="10" markerUnits="userSpaceOnUse" orient="auto-start-reverse"><path d="M0,0 L10,5 L0,10" fill="none" stroke="#1e293b" stroke-width="1.5"/></marker><marker id="arrow-triangle" viewBox="0 0 16 16" refX="15" refY="8" markerWidth="16" markerHeight="16" markerUnits="userSpaceOnUse" orient="auto-start-reverse"><polygon points="0,1 14,8 0,15" fill="#ffffff" stroke="#1e293b" stroke-width="1.5" fill-rule="nonzero"/></marker><marker id="arrow-diamond-filled" viewBox="0 0 14 10" refX="13" refY="5" markerWidth="14" markerHeight="10" markerUnits="userSpaceOnUse" orient="auto-start-reverse"><path d="M0,5 L7,0 L14,5 L7,10 z" fill="#1e293b" stroke="#1e293b" stroke-width="1"/></marker><marker id="arrow-diamond-open" viewBox="0 0 14 10" refX="13" refY="5" markerWidth="14" markerHeight="10" markerUnits="userSpaceOnUse" orient="auto-start-reverse"><path d="M0,5 L7,0 L14,5 L7,10 z" fill="#ffffff" stroke="#1e293b" stroke-width="1"/></marker></defs><polyline class="uml-relation" data-uml-from="UserService" data-uml-to="User" data-uml-arrow="--&gt;" points="332,122 332,165 188,165 188,224" fill="none" stroke="#1e293b" stroke-width="2" marker-end="url(#arrow-open)" /><polyline class="uml-relation" data-uml-from="OrderService" data-uml-to="Order" data-uml-arrow="--&gt;" points="620,122 620,173 476,173 476,224" fill="none" stroke="#1e293b" stroke-width="2" marker-end="url(#arrow-open)" /><polyline class="uml-relation" data-uml-from="OrderService" data-uml-to="Product" data-uml-arrow="--&gt;" points="620,122 620,181 764,181 764,224" fill="none" stroke="#1e293b" stroke-width="2" marker-end="url(#arrow-open)" /><rect class="uml-group-frame" data-uml-group="domain" x="64" y="152" width="824" height="130" rx="6" ry="6" fill="none" stroke="#6366f1" stroke-width="1.5" stroke-dasharray="5 3"/><rect x="64" y="152" width="128" height="24" rx="6" ry="6" fill="#ffffff" stroke="#6366f1" stroke-width="1.5"/><rect x="64" y="168" width="128" height="8" fill="#ffffff" stroke="none"/><text x="72" y="168" font-family="monospace" font-size="11" font-weight="600" fill="#4338ca">package domain</text><line x1="64" y1="176" x2="888" y2="176" stroke="#6366f1" stroke-width="1"/><rect class="uml-group-frame" data-uml-group="services" x="208" y="12" width="536" height="130" rx="6" ry="6" fill="none" stroke="#6366f1" stroke-width="1.5" stroke-dasharray="5 3"/><rect x="208" y="12" width="144" height="24" rx="6" ry="6" fill="#ffffff" stroke="#6366f1" stroke-width="1.5"/><rect x="208" y="28" width="144" height="8" fill="#ffffff" stroke="none"/><text x="216" y="28" font-family="monospace" font-size="11" font-weight="600" fill="#4338ca">package services</text><line x1="208" y1="36" x2="744" y2="36" stroke="#6366f1" stroke-width="1"/><rect x="228" y="84" width="208" height="38" rx="4" ry="4" fill="#ffffff" stroke="#1e293b" stroke-width="1.5"/><rect x="228" y="84" width="208" height="30" rx="4" ry="4" fill="#dbeafe" stroke="#1e293b" stroke-width="1.5"/><line x1="228" y1="114" x2="436" y2="114" stroke="#1e293b" stroke-width="1"/><text x="332" y="105" text-anchor="middle" font-family="monospace" font-size="13" font-weight="600" fill="#0f172a">services::UserService</text><rect x="516" y="84" width="208" height="38" rx="4" ry="4" fill="#ffffff" stroke="#1e293b" stroke-width="1.5"/><rect x="516" y="84" width="208" height="30" rx="4" ry="4" fill="#dbeafe" stroke="#1e293b" stroke-width="1.5"/><line x1="516" y1="114" x2="724" y2="114" stroke="#1e293b" stroke-width="1"/><text x="620" y="105" text-anchor="middle" font-family="monospace" font-size="13" font-weight="600" fill="#0f172a">services::OrderService</text><rect x="84" y="224" width="208" height="38" rx="4" ry="4" fill="#ffffff" stroke="#1e293b" stroke-width="1.5"/><rect x="84" y="224" width="208" height="30" rx="4" ry="4" fill="#dbeafe" stroke="#1e293b" stroke-width="1.5"/><line x1="84" y1="254" x2="292" y2="254" stroke="#1e293b" stroke-width="1"/><text x="188" y="245" text-anchor="middle" font-family="monospace" font-size="13" font-weight="600" fill="#0f172a">domain::User</text><rect x="372" y="224" width="208" height="38" rx="4" ry="4" fill="#ffffff" stroke="#1e293b" stroke-width="1.5"/><rect x="372" y="224" width="208" height="30" rx="4" ry="4" fill="#dbeafe" stroke="#1e293b" stroke-width="1.5"/><line x1="372" y1="254" x2="580" y2="254" stroke="#1e293b" stroke-width="1"/><text x="476" y="245" text-anchor="middle" font-family="monospace" font-size="13" font-weight="600" fill="#0f172a">domain::Order</text><rect x="660" y="224" width="208" height="38" rx="4" ry="4" fill="#ffffff" stroke="#1e293b" stroke-width="1.5"/><rect x="660" y="224" width="208" height="30" rx="4" ry="4" fill="#dbeafe" stroke="#1e293b" stroke-width="1.5"/><line x1="660" y1="254" x2="868" y2="254" stroke="#1e293b" stroke-width="1"/><text x="764" y="245" text-anchor="middle" font-family="monospace" font-size="13" font-weight="600" fill="#0f172a">domain::Product</text></svg>