<svg xmlns="http://www.w3.org/2000/svg" width="1010" height="214" viewBox="0 0 1010 214"><rect width="100%" height="100%" fill="#ffffff"/><defs><marker id="arrow-open" viewBox="0 0 10 10" refX="9" refY="5" markerWidth="10" markerHeight="10" markerUnits="userSpaceOnUse" orient="auto-start-reverse"><path d="M0,0 L10,5 L0,10" fill="none" stroke="#1e293b" stroke-width="1.5"/></marker><marker id="arrow-triangle" viewBox="0 0 16 16" refX="15" refY="8" markerWidth="16" markerHeight="16" markerUnits="userSpaceOnUse" orient="auto-start-reverse"><polygon points="0,1 14,8 0,15" fill="#ffffff" stroke="#1e293b" stroke-width="1.5" fill-rule="nonzero"/></marker><marker id="arrow-diamond-filled" viewBox="0 0 14 10" refX="13" refY="5" markerWidth="14" markerHeight="10" markerUnits="userSpaceOnUse" orient="auto-start-reverse"><path d="M0,5 L7,0 L14,5 L7,10 z" fill="#1e293b" stroke="#1e293b" stroke-width="1"/></marker><marker id="arrow-diamond-open" viewBox="0 0 14 10" refX="13" refY="5" markerWidth="14" markerHeight="10" markerUnits="userSpaceOnUse" orient="auto-start-reverse"><path d="M0,5 L7,0 L14,5 L7,10 z" fill="#ffffff" stroke="#1e293b" stroke-width="1"/></marker></defs><rect x="32" y="32" width="262" height="110" rx="4" ry="4" fill="#ffffff" stroke="#1e293b" stroke-width="1.5"/><rect x="32" y="32" width="262" height="30" rx="4" ry="4" fill="#dbeafe" stroke="#1e293b" stroke-width="1.5"/><line x1="32" y1="62" x2="294" y2="62" stroke="#1e293b" stroke-width="1"/><text x="163" y="53" text-anchor="middle" font-family="monospace" font-size="13" font-weight="600" fill="#0f172a">MathUtils</text><text class="uml-member" data-uml-visibility="public" x="42" y="78" font-family="monospace" font-size="11" fill="#16a34a" text-decoration="underline">+PI: Float</text><text class="uml-member" data-uml-visibility="public" x="42" y="94" font-family="monospace" font-size="11" fill="#16a34a" text-decoration="underline">+E: Float</text><line x1="32" y1="102" x2="294" y2="102" stroke="#1e293b" stroke-width="1"/><text class="uml-member" data-uml-visibility="public" x="42" y="110" font-family="monospace" font-size="11" fill="#16a34a" text-decoration="underline">+sqrt(x: Float): Float</text><text class="uml-member" data-uml-visibility="public" x="42" y="126" font-family="monospace" font-size="11" fill="#16a34a" text-decoration="underline">+abs(x: Float): Float</text><rect x="374" y="32" width="262" height="94" rx="4" ry="4" fill="#ffffff" stroke="#1e293b" stroke-width="1.5"/><rect x="374" y="32" width="262" height="30" rx="4" ry="4" fill="#dbeafe" stroke="#1e293b" stroke-width="1.5"/><line x1="374" y1="62" x2="636" y2="62" stroke="#1e293b" stroke-width="1"/><text x="505" y="53" text-anchor="middle" font-family="monospace" font-size="13" font-weight="600" fill="#0f172a">Singleton</text><text class="uml-member" data-uml-visibility="private" x="384" y="78" font-family="monospace" font-size="11" fill="#dc2626" text-decoration="underline">-instance: Singleton</text><line x1="374" y1="86" x2="636" y2="86" stroke="#1e293b" stroke-width="1"/><text class="uml-member" data-uml-visibility="public" x="384" y="94" font-family="monospace" font-size="11" fill="#16a34a" text-decoration="underline">+getInstance(): Singleton</text><text class="uml-member" data-uml-visibility="private" x="384" y="110" font-family="monospace" font-size="11" fill="#dc2626">-Singleton()</text></svg>