<svg xmlns="http://www.w3.org/2000/svg" width="760" height="864" viewBox="0 0 760 864"><rect width="100%" height="100%" fill="white"/><text x="24" y="28" font-family="monospace" font-size="18" font-weight="600">E-Commerce Domain Model</text><text x="24" y="52" font-family="monospace" font-size="13" fill="#333">Bootstrap stub for class diagrams</text><rect x="24" y="68" width="712" height="572" rx="6" ry="6" fill="#f8fafc" stroke="#94a3b8" stroke-width="1"/><rect x="40" y="78" width="680" height="30" rx="4" ry="4" fill="white" stroke="#cbd5e1" stroke-width="1"/><text x="52" y="98" font-family="monospace" font-size="12" fill="#0f172a">class BaseEntity</text><text x="66" y="120" font-family="monospace" font-size="11" fill="#334155">+id: UUID</text><text x="66" y="136" font-family="monospace" font-size="11" fill="#334155">+createdAt: DateTime</text><text x="66" y="152" font-family="monospace" font-size="11" fill="#334155">+updatedAt: DateTime</text><rect x="40" y="168" width="680" height="30" rx="4" ry="4" fill="white" stroke="#cbd5e1" stroke-width="1"/><text x="52" y="188" font-family="monospace" font-size="12" fill="#0f172a">class User</text><text x="66" y="210" font-family="monospace" font-size="11" fill="#334155">+email: String</text><text x="66" y="226" font-family="monospace" font-size="11" fill="#334155">+name: String</text><text x="66" y="242" font-family="monospace" font-size="11" fill="#334155">+register()</text><rect x="40" y="258" width="680" height="30" rx="4" ry="4" fill="white" stroke="#cbd5e1" stroke-width="1"/><text x="52" y="278" font-family="monospace" font-size="12" fill="#0f172a">class Order</text><text x="66" y="300" font-family="monospace" font-size="11" fill="#334155">+status: String</text><text x="66" y="316" font-family="monospace" font-size="11" fill="#334155">+total: Decimal</text><text x="66" y="332" font-family="monospace" font-size="11" fill="#334155">+place()</text><text x="66" y="348" font-family="monospace" font-size="11" fill="#334155">+cancel()</text><rect x="40" y="364" width="680" height="30" rx="4" ry="4" fill="white" stroke="#cbd5e1" stroke-width="1"/><text x="52" y="384" font-family="monospace" font-size="12" fill="#0f172a">class OrderItem</text><text x="66" y="406" font-family="monospace" font-size="11" fill="#334155">+quantity: Int</text><text x="66" y="422" font-family="monospace" font-size="11" fill="#334155">+unitPrice: Decimal</text><rect x="40" y="438" width="680" height="30" rx="4" ry="4" fill="white" stroke="#cbd5e1" stroke-width="1"/><text x="52" y="458" font-family="monospace" font-size="12" fill="#0f172a">class Product</text><text x="66" y="480" font-family="monospace" font-size="11" fill="#334155">+name: String</text><text x="66" y="496" font-family="monospace" font-size="11" fill="#334155">+price: Decimal</text><text x="66" y="512" font-family="monospace" font-size="11" fill="#334155">+stock: Int</text><rect x="40" y="528" width="680" height="30" rx="4" ry="4" fill="white" stroke="#cbd5e1" stroke-width="1"/><text x="52" y="548" font-family="monospace" font-size="12" fill="#0f172a">class Address</text><text x="66" y="570" font-family="monospace" font-size="11" fill="#334155">+street: String</text><text x="66" y="586" font-family="monospace" font-size="11" fill="#334155">+city: String</text><text x="66" y="602" font-family="monospace" font-size="11" fill="#334155">+country: String</text><text x="24" y="638" font-family="monospace" font-size="12" font-weight="600" fill="#334155">Relations</text><text x="40" y="656" font-family="monospace" font-size="12" fill="#1e293b">BaseEntity &lt;| -- User</text><text x="40" y="676" font-family="monospace" font-size="12" fill="#1e293b">BaseEntity &lt;| -- Order</text><text x="40" y="696" font-family="monospace" font-size="12" fill="#1e293b">BaseEntity &lt;| -- Product</text><text x="40" y="716" font-family="monospace" font-size="12" fill="#1e293b">User --&gt; Order : places</text><text x="40" y="736" font-family="monospace" font-size="12" fill="#1e293b">Order * -- OrderItem : contains</text><text x="40" y="756" font-family="monospace" font-size="12" fill="#1e293b">OrderItem --&gt; Product : references</text><text x="40" y="776" font-family="monospace" font-size="12" fill="#1e293b">User --&gt; Address : has</text><text x="40" y="796" font-family="monospace" font-size="12" fill="#1e293b">Order --&gt; Address : ships to</text></svg>