<svg xmlns="http://www.w3.org/2000/svg" width="572" height="746" viewBox="0 0 572 746" data-orientation="TopToBottom"><rect width="100%" height="100%" fill="#ffffff"/><defs><marker id="arrow-open" viewBox="0 0 10 10" refX="9" refY="5" markerWidth="10" markerHeight="10" markerUnits="userSpaceOnUse" orient="auto-start-reverse"><path d="M0,0 L10,5 L0,10" fill="none" stroke="#1e293b" stroke-width="1.5"/></marker><marker id="arrow-triangle" viewBox="0 0 16 16" refX="15" refY="8" markerWidth="16" markerHeight="16" markerUnits="userSpaceOnUse" orient="auto-start-reverse"><polygon points="0,1 14,8 0,15" fill="#ffffff" stroke="#1e293b" stroke-width="1.5" fill-rule="nonzero"/></marker><marker id="arrow-diamond-filled" viewBox="0 0 14 10" refX="13" refY="5" markerWidth="14" markerHeight="10" markerUnits="userSpaceOnUse" orient="auto-start-reverse"><path d="M0,5 L7,0 L14,5 L7,10 z" fill="#1e293b" stroke="#1e293b" stroke-width="1"/></marker><marker id="arrow-diamond-open" viewBox="0 0 14 10" refX="13" refY="5" markerWidth="14" markerHeight="10" markerUnits="userSpaceOnUse" orient="auto-start-reverse"><path d="M0,5 L7,0 L14,5 L7,10 z" fill="#ffffff" stroke="#1e293b" stroke-width="1"/></marker></defs><defs><marker id="arrow-triangle-filled" viewBox="0 0 12 12" refX="11" refY="6" markerWidth="12" markerHeight="12" markerUnits="userSpaceOnUse" orient="auto-start-reverse"><polygon points="0,0 12,6 0,12" fill="#1e293b" stroke="#1e293b" stroke-width="1.5"/></marker><marker id="arrow-box-filled" viewBox="0 0 12 12" refX="11" refY="6" markerWidth="12" markerHeight="12" markerUnits="userSpaceOnUse" orient="auto-start-reverse"><rect x="2" y="2" width="8" height="8" fill="#1e293b" stroke="#1e293b" stroke-width="1.5"/></marker><marker id="arrow-plus" viewBox="0 0 12 12" refX="11" refY="6" markerWidth="12" markerHeight="12" markerUnits="userSpaceOnUse" orient="auto-start-reverse"><path d="M6,1 L6,11 M1,6 L11,6" fill="none" stroke="#1e293b" stroke-width="1.8" stroke-linecap="round"/></marker><marker id="arrow-cross" viewBox="0 0 12 12" refX="11" refY="6" markerWidth="12" markerHeight="12" markerUnits="userSpaceOnUse" orient="auto-start-reverse"><path d="M2,2 L10,10 M10,2 L2,10" fill="none" stroke="#1e293b" stroke-width="1.8" stroke-linecap="round"/></marker><marker id="arrow-bracket-open" viewBox="0 0 12 14" refX="11" refY="7" markerWidth="12" markerHeight="14" markerUnits="userSpaceOnUse" orient="auto-start-reverse"><path d="M10,1 L4,1 L4,13 L10,13" fill="none" stroke="#1e293b" stroke-width="1.8" stroke-linecap="round" stroke-linejoin="round"/></marker><marker id="arrow-circle-open" viewBox="0 0 12 12" refX="11" refY="6" markerWidth="12" markerHeight="12" markerUnits="userSpaceOnUse" orient="auto-start-reverse"><circle cx="6" cy="6" r="4" fill="#ffffff" stroke="#1e293b" stroke-width="1.5"/></marker><marker id="arrow-circle-filled" viewBox="0 0 12 12" refX="11" refY="6" markerWidth="12" markerHeight="12" markerUnits="userSpaceOnUse" orient="auto-start-reverse"><circle cx="6" cy="6" r="4" fill="#1e293b" stroke="#1e293b" stroke-width="1.5"/></marker><marker id="arrow-double-open" viewBox="0 0 16 12" refX="15" refY="6" markerWidth="16" markerHeight="12" markerUnits="userSpaceOnUse" orient="auto-start-reverse"><path d="M0,1 L8,6 L0,11 M7,1 L15,6 L7,11" fill="none" stroke="#1e293b" stroke-width="1.5" stroke-linejoin="round"/></marker></defs><text x="8" y="32" font-family="monospace" font-size="18" font-weight="600" fill="#0f172a">E-Commerce Domain Model</text><polyline class="uml-relation" data-uml-from="BaseEntity" data-uml-to="User" data-uml-arrow="&lt;|--" points="277,160 277,175 277,190" fill="none" stroke="#1e293b" stroke-width="2" marker-start="url(#arrow-triangle)" /><polyline class="uml-relation" data-uml-from="BaseEntity" data-uml-to="Order" data-uml-arrow="&lt;|--" points="277,160 277,175 375,175 375,291 277,291 277,314" fill="none" stroke="#1e293b" stroke-width="2" marker-start="url(#arrow-triangle)" /><polyline class="uml-relation" data-uml-from="BaseEntity" data-uml-to="Product" data-uml-arrow="&lt;|--" points="277,160 277,183 504,183 504,567 277,567 277,578" fill="none" stroke="#1e293b" stroke-width="2" marker-start="url(#arrow-triangle)" /><polyline class="uml-relation" data-uml-from="User" data-uml-to="Order" data-uml-arrow="--&gt;" points="277,284 277,299 277,314" fill="none" stroke="#1e293b" stroke-width="2" marker-end="url(#arrow-open)" /><rect class="uml-edge-label-bg" data-uml-label-role="edge-background" x="254" y="281" width="46" height="18" fill="white" opacity="0.85"/><text class="uml-edge-label" data-uml-label-role="edge" x="277" y="294" text-anchor="middle" font-family="monospace" font-size="11" fill="#334155">places</text><polyline class="uml-relation" data-uml-from="Order" data-uml-to="OrderItem" data-uml-arrow="*--" points="195,369 195,450 230,450 230,493" fill="none" stroke="#1e293b" stroke-width="2" marker-start="url(#arrow-diamond-filled)" /><text class="uml-edge-label" data-uml-label-role="edge" x="195" y="296" text-anchor="middle" font-family="monospace" font-size="11" fill="#334155">contains</text><polyline class="uml-relation" data-uml-from="OrderItem" data-uml-to="Product" data-uml-arrow="--&gt;" points="148,532 148,574 277,574 277,578" fill="none" stroke="#1e293b" stroke-width="2" marker-end="url(#arrow-open)" /><text class="uml-edge-label" data-uml-label-role="edge" x="212" y="548" text-anchor="middle" font-family="monospace" font-size="11" fill="#334155">references</text><polyline class="uml-relation" data-uml-from="User" data-uml-to="Address" data-uml-arrow="--&gt;" points="277,284 277,310 406,310 406,454" fill="none" stroke="#1e293b" stroke-width="2" marker-end="url(#arrow-open)" /><text class="uml-edge-label" data-uml-label-role="edge" x="402" y="298" text-anchor="middle" font-family="monospace" font-size="11" fill="#334155">has</text><polyline class="uml-relation" data-uml-from="Order" data-uml-to="Address" data-uml-arrow="--&gt;" points="277,424 277,450 406,450 406,454" fill="none" stroke="#1e293b" stroke-width="2" marker-end="url(#arrow-open)" /><text class="uml-edge-label" data-uml-label-role="edge" x="336" y="438" text-anchor="middle" font-family="monospace" font-size="11" fill="#334155">ships to</text><rect class="uml-node uml-class" data-uml-id="BaseEntity" x="195" y="66" width="164" height="94" rx="4" ry="4" fill="#ffffff" stroke="#1e293b" stroke-width="1.5"/><rect x="195" y="66" width="164" height="30" rx="4" ry="4" fill="#dbeafe" stroke="#1e293b" stroke-width="1.5"/><line x1="195" y1="96" x2="359" y2="96" stroke="#1e293b" stroke-width="1"/><circle class="uml-class-badge" cx="207" cy="83" r="8" fill="#A2D5A2" stroke="#2E7D32" stroke-width="1"/><text class="uml-class-badge-letter" x="207" y="86" text-anchor="middle" font-family="monospace" font-size="9" font-weight="700" fill="#2E7D32">C</text><text x="277" y="87" text-anchor="middle" font-family="monospace" font-size="13" font-weight="600" fill="#0f172a">BaseEntity</text><circle class="uml-vis-glyph" cx="209" cy="107" r="4" fill="none" stroke="#16a34a" stroke-width="1.5"/><text class="uml-member" data-uml-visibility="public" x="219" y="112" font-family="monospace" font-size="11" fill="#16a34a">id: UUID</text><circle class="uml-vis-glyph" cx="209" cy="123" r="4" fill="none" stroke="#16a34a" stroke-width="1.5"/><text class="uml-member" data-uml-visibility="public" x="219" y="128" font-family="monospace" font-size="11" fill="#16a34a">createdAt: DateTime</text><circle class="uml-vis-glyph" cx="209" cy="139" r="4" fill="none" stroke="#16a34a" stroke-width="1.5"/><text class="uml-member" data-uml-visibility="public" x="219" y="144" font-family="monospace" font-size="11" fill="#16a34a">updatedAt: DateTime</text><rect class="uml-node uml-class" data-uml-id="User" x="195" y="190" width="164" height="94" rx="4" ry="4" fill="#ffffff" stroke="#1e293b" stroke-width="1.5"/><rect x="195" y="190" width="164" height="30" rx="4" ry="4" fill="#dbeafe" stroke="#1e293b" stroke-width="1.5"/><line x1="195" y1="220" x2="359" y2="220" stroke="#1e293b" stroke-width="1"/><circle class="uml-class-badge" cx="207" cy="207" r="8" fill="#A2D5A2" stroke="#2E7D32" stroke-width="1"/><text class="uml-class-badge-letter" x="207" y="210" text-anchor="middle" font-family="monospace" font-size="9" font-weight="700" fill="#2E7D32">C</text><text x="277" y="211" text-anchor="middle" font-family="monospace" font-size="13" font-weight="600" fill="#0f172a">User</text><circle class="uml-vis-glyph" cx="209" cy="231" r="4" fill="none" stroke="#16a34a" stroke-width="1.5"/><text class="uml-member" data-uml-visibility="public" x="219" y="236" font-family="monospace" font-size="11" fill="#16a34a">email: String</text><circle class="uml-vis-glyph" cx="209" cy="247" r="4" fill="none" stroke="#16a34a" stroke-width="1.5"/><text class="uml-member" data-uml-visibility="public" x="219" y="252" font-family="monospace" font-size="11" fill="#16a34a">name: String</text><line x1="195" y1="260" x2="359" y2="260" stroke="#1e293b" stroke-width="1"/><circle class="uml-vis-glyph" cx="209" cy="263" r="4" fill="#16a34a" stroke="#16a34a" stroke-width="1"/><text class="uml-member" data-uml-visibility="public" x="219" y="268" font-family="monospace" font-size="11" fill="#16a34a">register()</text><rect class="uml-node uml-class" data-uml-id="Order" x="195" y="314" width="164" height="110" rx="4" ry="4" fill="#ffffff" stroke="#1e293b" stroke-width="1.5"/><rect x="195" y="314" width="164" height="30" rx="4" ry="4" fill="#dbeafe" stroke="#1e293b" stroke-width="1.5"/><line x1="195" y1="344" x2="359" y2="344" stroke="#1e293b" stroke-width="1"/><circle class="uml-class-badge" cx="207" cy="331" r="8" fill="#A2D5A2" stroke="#2E7D32" stroke-width="1"/><text class="uml-class-badge-letter" x="207" y="334" text-anchor="middle" font-family="monospace" font-size="9" font-weight="700" fill="#2E7D32">C</text><text x="277" y="335" text-anchor="middle" font-family="monospace" font-size="13" font-weight="600" fill="#0f172a">Order</text><circle class="uml-vis-glyph" cx="209" cy="355" r="4" fill="none" stroke="#16a34a" stroke-width="1.5"/><text class="uml-member" data-uml-visibility="public" x="219" y="360" font-family="monospace" font-size="11" fill="#16a34a">status: String</text><circle class="uml-vis-glyph" cx="209" cy="371" r="4" fill="none" stroke="#16a34a" stroke-width="1.5"/><text class="uml-member" data-uml-visibility="public" x="219" y="376" font-family="monospace" font-size="11" fill="#16a34a">total: Decimal</text><line x1="195" y1="384" x2="359" y2="384" stroke="#1e293b" stroke-width="1"/><circle class="uml-vis-glyph" cx="209" cy="387" r="4" fill="#16a34a" stroke="#16a34a" stroke-width="1"/><text class="uml-member" data-uml-visibility="public" x="219" y="392" font-family="monospace" font-size="11" fill="#16a34a">place()</text><circle class="uml-vis-glyph" cx="209" cy="403" r="4" fill="#16a34a" stroke="#16a34a" stroke-width="1"/><text class="uml-member" data-uml-visibility="public" x="219" y="408" font-family="monospace" font-size="11" fill="#16a34a">cancel()</text><rect class="uml-node uml-class" data-uml-id="OrderItem" x="66" y="454" width="164" height="78" rx="4" ry="4" fill="#ffffff" stroke="#1e293b" stroke-width="1.5"/><rect x="66" y="454" width="164" height="30" rx="4" ry="4" fill="#dbeafe" stroke="#1e293b" stroke-width="1.5"/><line x1="66" y1="484" x2="230" y2="484" stroke="#1e293b" stroke-width="1"/><circle class="uml-class-badge" cx="78" cy="471" r="8" fill="#A2D5A2" stroke="#2E7D32" stroke-width="1"/><text class="uml-class-badge-letter" x="78" y="474" text-anchor="middle" font-family="monospace" font-size="9" font-weight="700" fill="#2E7D32">C</text><text x="148" y="475" text-anchor="middle" font-family="monospace" font-size="13" font-weight="600" fill="#0f172a">OrderItem</text><circle class="uml-vis-glyph" cx="80" cy="495" r="4" fill="none" stroke="#16a34a" stroke-width="1.5"/><text class="uml-member" data-uml-visibility="public" x="90" y="500" font-family="monospace" font-size="11" fill="#16a34a">quantity: Int</text><circle class="uml-vis-glyph" cx="80" cy="511" r="4" fill="none" stroke="#16a34a" stroke-width="1.5"/><text class="uml-member" data-uml-visibility="public" x="90" y="516" font-family="monospace" font-size="11" fill="#16a34a">unitPrice: Decimal</text><rect class="uml-node uml-class" data-uml-id="Product" x="195" y="578" width="164" height="94" rx="4" ry="4" fill="#ffffff" stroke="#1e293b" stroke-width="1.5"/><rect x="195" y="578" width="164" height="30" rx="4" ry="4" fill="#dbeafe" stroke="#1e293b" stroke-width="1.5"/><line x1="195" y1="608" x2="359" y2="608" stroke="#1e293b" stroke-width="1"/><circle class="uml-class-badge" cx="207" cy="595" r="8" fill="#A2D5A2" stroke="#2E7D32" stroke-width="1"/><text class="uml-class-badge-letter" x="207" y="598" text-anchor="middle" font-family="monospace" font-size="9" font-weight="700" fill="#2E7D32">C</text><text x="277" y="599" text-anchor="middle" font-family="monospace" font-size="13" font-weight="600" fill="#0f172a">Product</text><circle class="uml-vis-glyph" cx="209" cy="619" r="4" fill="none" stroke="#16a34a" stroke-width="1.5"/><text class="uml-member" data-uml-visibility="public" x="219" y="624" font-family="monospace" font-size="11" fill="#16a34a">name: String</text><circle class="uml-vis-glyph" cx="209" cy="635" r="4" fill="none" stroke="#16a34a" stroke-width="1.5"/><text class="uml-member" data-uml-visibility="public" x="219" y="640" font-family="monospace" font-size="11" fill="#16a34a">price: Decimal</text><circle class="uml-vis-glyph" cx="209" cy="651" r="4" fill="none" stroke="#16a34a" stroke-width="1.5"/><text class="uml-member" data-uml-visibility="public" x="219" y="656" font-family="monospace" font-size="11" fill="#16a34a">stock: Int</text><rect class="uml-node uml-class" data-uml-id="Address" x="324" y="454" width="164" height="94" rx="4" ry="4" fill="#ffffff" stroke="#1e293b" stroke-width="1.5"/><rect x="324" y="454" width="164" height="30" rx="4" ry="4" fill="#dbeafe" stroke="#1e293b" stroke-width="1.5"/><line x1="324" y1="484" x2="488" y2="484" stroke="#1e293b" stroke-width="1"/><circle class="uml-class-badge" cx="336" cy="471" r="8" fill="#A2D5A2" stroke="#2E7D32" stroke-width="1"/><text class="uml-class-badge-letter" x="336" y="474" text-anchor="middle" font-family="monospace" font-size="9" font-weight="700" fill="#2E7D32">C</text><text x="406" y="475" text-anchor="middle" font-family="monospace" font-size="13" font-weight="600" fill="#0f172a">Address</text><circle class="uml-vis-glyph" cx="338" cy="495" r="4" fill="none" stroke="#16a34a" stroke-width="1.5"/><text class="uml-member" data-uml-visibility="public" x="348" y="500" font-family="monospace" font-size="11" fill="#16a34a">street: String</text><circle class="uml-vis-glyph" cx="338" cy="511" r="4" fill="none" stroke="#16a34a" stroke-width="1.5"/><text class="uml-member" data-uml-visibility="public" x="348" y="516" font-family="monospace" font-size="11" fill="#16a34a">city: String</text><circle class="uml-vis-glyph" cx="338" cy="527" r="4" fill="none" stroke="#16a34a" stroke-width="1.5"/><text class="uml-member" data-uml-visibility="public" x="348" y="532" font-family="monospace" font-size="11" fill="#16a34a">country: String</text></svg>