<svg xmlns="http://www.w3.org/2000/svg" width="760" height="374" viewBox="0 0 760 374"><rect width="100%" height="100%" fill="white"/><defs><marker id="arrow-open" viewBox="0 0 10 10" refX="9" refY="5" markerWidth="10" markerHeight="10" orient="auto-start-reverse"><path d="M0,0 L10,5 L0,10" fill="none" stroke="#1e293b" stroke-width="1.5"/></marker><marker id="arrow-triangle" viewBox="0 0 12 12" refX="11" refY="6" markerWidth="12" markerHeight="12" orient="auto-start-reverse"><path d="M0,0 L12,6 L0,12 z" fill="white" stroke="#1e293b" stroke-width="1.5"/></marker><marker id="arrow-diamond-filled" viewBox="0 0 14 10" refX="13" refY="5" markerWidth="14" markerHeight="10" orient="auto-start-reverse"><path d="M0,5 L7,0 L14,5 L7,10 z" fill="#1e293b" stroke="#1e293b" stroke-width="1"/></marker><marker id="arrow-diamond-open" viewBox="0 0 14 10" refX="13" refY="5" markerWidth="14" markerHeight="10" orient="auto-start-reverse"><path d="M0,5 L7,0 L14,5 L7,10 z" fill="white" stroke="#1e293b" stroke-width="1"/></marker></defs><text x="32" y="32" font-family="monospace" font-size="18" font-weight="600" fill="#0f172a">E-Commerce Domain Model</text><line x1="232" y1="113" x2="280" y2="113" stroke="#1e293b" stroke-width="1.5" marker-start="url(#arrow-triangle)"/><line x1="232" y1="114" x2="528" y2="120" stroke="#1e293b" stroke-width="1.5" marker-start="url(#arrow-triangle)"/><line x1="198" y1="160" x2="314" y2="240" stroke="#1e293b" stroke-width="1.5" marker-start="url(#arrow-triangle)"/><line x1="480" y1="116" x2="528" y2="118" stroke="#1e293b" stroke-width="1.5" marker-end="url(#arrow-open)"/><text x="504" y="113" text-anchor="middle" font-family="monospace" font-size="11" fill="#334155">places</text><line x1="528" y1="152" x2="232" y2="248" stroke="#1e293b" stroke-width="1.5" marker-start="url(#arrow-diamond-filled)"/><text x="380" y="196" text-anchor="middle" font-family="monospace" font-size="11" fill="#334155">contains</text><line x1="232" y1="282" x2="280" y2="284" stroke="#1e293b" stroke-width="1.5" marker-end="url(#arrow-open)"/><text x="256" y="279" text-anchor="middle" font-family="monospace" font-size="11" fill="#334155">references</text><line x1="446" y1="160" x2="562" y2="240" stroke="#1e293b" stroke-width="1.5" marker-end="url(#arrow-open)"/><text x="504" y="196" text-anchor="middle" font-family="monospace" font-size="11" fill="#334155">has</text><line x1="628" y1="176" x2="628" y2="240" stroke="#1e293b" stroke-width="1.5" marker-end="url(#arrow-open)"/><text x="628" y="204" text-anchor="middle" font-family="monospace" font-size="11" fill="#334155">ships to</text><rect x="32" y="66" width="200" height="94" rx="4" ry="4" fill="#ffffff" stroke="#1e293b" stroke-width="1.5"/><rect x="32" y="66" width="200" height="30" rx="4" ry="4" fill="#dbeafe" stroke="#1e293b" stroke-width="1.5"/><line x1="32" y1="96" x2="232" y2="96" stroke="#1e293b" stroke-width="1"/><text x="132" y="87" text-anchor="middle" font-family="monospace" font-size="13" font-weight="600" fill="#0f172a">BaseEntity</text><text x="42" y="112" font-family="monospace" font-size="11" fill="#16a34a">+id: UUID</text><text x="42" y="128" font-family="monospace" font-size="11" fill="#16a34a">+createdAt: DateTime</text><text x="42" y="144" font-family="monospace" font-size="11" fill="#16a34a">+updatedAt: DateTime</text><rect x="280" y="66" width="200" height="94" rx="4" ry="4" fill="#ffffff" stroke="#1e293b" stroke-width="1.5"/><rect x="280" y="66" width="200" height="30" rx="4" ry="4" fill="#dbeafe" stroke="#1e293b" stroke-width="1.5"/><line x1="280" y1="96" x2="480" y2="96" stroke="#1e293b" stroke-width="1"/><text x="380" y="87" text-anchor="middle" font-family="monospace" font-size="13" font-weight="600" fill="#0f172a">User</text><text x="290" y="112" font-family="monospace" font-size="11" fill="#16a34a">+email: String</text><text x="290" y="128" font-family="monospace" font-size="11" fill="#16a34a">+name: String</text><text x="290" y="144" font-family="monospace" font-size="11" fill="#16a34a">+register()</text><rect x="528" y="66" width="200" height="110" rx="4" ry="4" fill="#ffffff" stroke="#1e293b" stroke-width="1.5"/><rect x="528" y="66" width="200" height="30" rx="4" ry="4" fill="#dbeafe" stroke="#1e293b" stroke-width="1.5"/><line x1="528" y1="96" x2="728" y2="96" stroke="#1e293b" stroke-width="1"/><text x="628" y="87" text-anchor="middle" font-family="monospace" font-size="13" font-weight="600" fill="#0f172a">Order</text><text x="538" y="112" font-family="monospace" font-size="11" fill="#16a34a">+status: String</text><text x="538" y="128" font-family="monospace" font-size="11" fill="#16a34a">+total: Decimal</text><text x="538" y="144" font-family="monospace" font-size="11" fill="#16a34a">+place()</text><text x="538" y="160" font-family="monospace" font-size="11" fill="#16a34a">+cancel()</text><rect x="32" y="240" width="200" height="78" rx="4" ry="4" fill="#ffffff" stroke="#1e293b" stroke-width="1.5"/><rect x="32" y="240" width="200" height="30" rx="4" ry="4" fill="#dbeafe" stroke="#1e293b" stroke-width="1.5"/><line x1="32" y1="270" x2="232" y2="270" stroke="#1e293b" stroke-width="1"/><text x="132" y="261" text-anchor="middle" font-family="monospace" font-size="13" font-weight="600" fill="#0f172a">OrderItem</text><text x="42" y="286" font-family="monospace" font-size="11" fill="#16a34a">+quantity: Int</text><text x="42" y="302" font-family="monospace" font-size="11" fill="#16a34a">+unitPrice: Decimal</text><rect x="280" y="240" width="200" height="94" rx="4" ry="4" fill="#ffffff" stroke="#1e293b" stroke-width="1.5"/><rect x="280" y="240" width="200" height="30" rx="4" ry="4" fill="#dbeafe" stroke="#1e293b" stroke-width="1.5"/><line x1="280" y1="270" x2="480" y2="270" stroke="#1e293b" stroke-width="1"/><text x="380" y="261" text-anchor="middle" font-family="monospace" font-size="13" font-weight="600" fill="#0f172a">Product</text><text x="290" y="286" font-family="monospace" font-size="11" fill="#16a34a">+name: String</text><text x="290" y="302" font-family="monospace" font-size="11" fill="#16a34a">+price: Decimal</text><text x="290" y="318" font-family="monospace" font-size="11" fill="#16a34a">+stock: Int</text><rect x="528" y="240" width="200" height="94" rx="4" ry="4" fill="#ffffff" stroke="#1e293b" stroke-width="1.5"/><rect x="528" y="240" width="200" height="30" rx="4" ry="4" fill="#dbeafe" stroke="#1e293b" stroke-width="1.5"/><line x1="528" y1="270" x2="728" y2="270" stroke="#1e293b" stroke-width="1"/><text x="628" y="261" text-anchor="middle" font-family="monospace" font-size="13" font-weight="600" fill="#0f172a">Address</text><text x="538" y="286" font-family="monospace" font-size="11" fill="#16a34a">+street: String</text><text x="538" y="302" font-family="monospace" font-size="11" fill="#16a34a">+city: String</text><text x="538" y="318" font-family="monospace" font-size="11" fill="#16a34a">+country: String</text></svg>