<svg xmlns="http://www.w3.org/2000/svg" width="728" height="1354" viewBox="0 0 728 1354"><rect width="100%" height="100%" fill="#ffffff"/><defs><marker id="arrow-open" viewBox="0 0 10 10" refX="9" refY="5" markerWidth="10" markerHeight="10" markerUnits="userSpaceOnUse" orient="auto-start-reverse"><path d="M0,0 L10,5 L0,10" fill="none" stroke="#1e293b" stroke-width="1.5"/></marker><marker id="arrow-triangle" viewBox="0 0 16 16" refX="15" refY="8" markerWidth="16" markerHeight="16" markerUnits="userSpaceOnUse" orient="auto-start-reverse"><polygon points="0,1 14,8 0,15" fill="#ffffff" stroke="#1e293b" stroke-width="1.5" fill-rule="nonzero"/></marker><marker id="arrow-diamond-filled" viewBox="0 0 14 10" refX="13" refY="5" markerWidth="14" markerHeight="10" markerUnits="userSpaceOnUse" orient="auto-start-reverse"><path d="M0,5 L7,0 L14,5 L7,10 z" fill="#1e293b" stroke="#1e293b" stroke-width="1"/></marker><marker id="arrow-diamond-open" viewBox="0 0 14 10" refX="13" refY="5" markerWidth="14" markerHeight="10" markerUnits="userSpaceOnUse" orient="auto-start-reverse"><path d="M0,5 L7,0 L14,5 L7,10 z" fill="#ffffff" stroke="#1e293b" stroke-width="1"/></marker></defs><text x="32" y="32" font-family="monospace" font-size="18" font-weight="600" fill="#0f172a">E-Commerce Domain Model</text><polyline class="uml-relation" data-uml-from="BaseEntity" data-uml-to="User" data-uml-arrow="&lt;|--" points="274,160 274,239 274,334" fill="none" stroke="#1e293b" stroke-width="2" marker-start="url(#arrow-triangle)" /><polyline class="uml-relation" data-uml-from="BaseEntity" data-uml-to="Order" data-uml-arrow="&lt;|--" points="274,160 274,247 274,507 274,602" fill="none" stroke="#1e293b" stroke-width="2" marker-start="url(#arrow-triangle)" /><polyline class="uml-relation" data-uml-from="BaseEntity" data-uml-to="Product" data-uml-arrow="&lt;|--" points="274,160 274,255 274,515 274,791 274,1071 274,1154" fill="none" stroke="#1e293b" stroke-width="2" marker-start="url(#arrow-triangle)" /><polyline class="uml-relation" data-uml-from="User" data-uml-to="Order" data-uml-arrow="--&gt;" points="274,428 274,523 274,602" fill="none" stroke="#1e293b" stroke-width="2" marker-end="url(#arrow-open)" /><text x="274" y="463" text-anchor="middle" font-family="monospace" font-size="11" fill="#334155">places</text><polyline class="uml-relation" data-uml-from="Order" data-uml-to="OrderItem" data-uml-arrow="*--" points="274,712 274,815 150,815 150,886" fill="none" stroke="#1e293b" stroke-width="2" marker-start="url(#arrow-diamond-filled)" /><text x="212" y="803" text-anchor="middle" font-family="monospace" font-size="11" fill="#334155">contains</text><polyline class="uml-relation" data-uml-from="OrderItem" data-uml-to="Product" data-uml-arrow="--&gt;" points="150,964 150,1079 274,1079 274,1154" fill="none" stroke="#1e293b" stroke-width="2" marker-end="url(#arrow-open)" /><text x="212" y="1067" text-anchor="middle" font-family="monospace" font-size="11" fill="#334155">references</text><polyline class="uml-relation" data-uml-from="User" data-uml-to="Address" data-uml-arrow="--&gt;" points="274,428 274,531 336,531 336,807 398,807 398,886" fill="none" stroke="#1e293b" stroke-width="2" marker-end="url(#arrow-open)" /><text x="367" y="795" text-anchor="middle" font-family="monospace" font-size="11" fill="#334155">has</text><polyline class="uml-relation" data-uml-from="Order" data-uml-to="Address" data-uml-arrow="--&gt;" points="274,712 274,823 398,823 398,886" fill="none" stroke="#1e293b" stroke-width="2" marker-end="url(#arrow-open)" /><text x="336" y="811" text-anchor="middle" font-family="monospace" font-size="11" fill="#334155">ships to</text><rect x="190" y="66" width="168" height="94" rx="4" ry="4" fill="#ffffff" stroke="#1e293b" stroke-width="1.5"/><rect x="190" y="66" width="168" height="30" rx="4" ry="4" fill="#dbeafe" stroke="#1e293b" stroke-width="1.5"/><line x1="190" y1="96" x2="358" y2="96" stroke="#1e293b" stroke-width="1"/><text x="274" y="87" text-anchor="middle" font-family="monospace" font-size="13" font-weight="600" fill="#0f172a">BaseEntity</text><text class="uml-member" data-uml-visibility="public" x="200" y="112" font-family="monospace" font-size="11" fill="#16a34a">+id: UUID</text><text class="uml-member" data-uml-visibility="public" x="200" y="128" font-family="monospace" font-size="11" fill="#16a34a">+createdAt: DateTime</text><text class="uml-member" data-uml-visibility="public" x="200" y="144" font-family="monospace" font-size="11" fill="#16a34a">+updatedAt: DateTime</text><rect x="190" y="334" width="168" height="94" rx="4" ry="4" fill="#ffffff" stroke="#1e293b" stroke-width="1.5"/><rect x="190" y="334" width="168" height="30" rx="4" ry="4" fill="#dbeafe" stroke="#1e293b" stroke-width="1.5"/><line x1="190" y1="364" x2="358" y2="364" stroke="#1e293b" stroke-width="1"/><text x="274" y="355" text-anchor="middle" font-family="monospace" font-size="13" font-weight="600" fill="#0f172a">User</text><text class="uml-member" data-uml-visibility="public" x="200" y="380" font-family="monospace" font-size="11" fill="#16a34a">+email: String</text><text class="uml-member" data-uml-visibility="public" x="200" y="396" font-family="monospace" font-size="11" fill="#16a34a">+name: String</text><line x1="190" y1="404" x2="358" y2="404" stroke="#1e293b" stroke-width="1"/><text class="uml-member" data-uml-visibility="public" x="200" y="412" font-family="monospace" font-size="11" fill="#16a34a">+register()</text><rect x="190" y="602" width="168" height="110" rx="4" ry="4" fill="#ffffff" stroke="#1e293b" stroke-width="1.5"/><rect x="190" y="602" width="168" height="30" rx="4" ry="4" fill="#dbeafe" stroke="#1e293b" stroke-width="1.5"/><line x1="190" y1="632" x2="358" y2="632" stroke="#1e293b" stroke-width="1"/><text x="274" y="623" text-anchor="middle" font-family="monospace" font-size="13" font-weight="600" fill="#0f172a">Order</text><text class="uml-member" data-uml-visibility="public" x="200" y="648" font-family="monospace" font-size="11" fill="#16a34a">+status: String</text><text class="uml-member" data-uml-visibility="public" x="200" y="664" font-family="monospace" font-size="11" fill="#16a34a">+total: Decimal</text><line x1="190" y1="672" x2="358" y2="672" stroke="#1e293b" stroke-width="1"/><text class="uml-member" data-uml-visibility="public" x="200" y="680" font-family="monospace" font-size="11" fill="#16a34a">+place()</text><text class="uml-member" data-uml-visibility="public" x="200" y="696" font-family="monospace" font-size="11" fill="#16a34a">+cancel()</text><rect x="66" y="886" width="168" height="78" rx="4" ry="4" fill="#ffffff" stroke="#1e293b" stroke-width="1.5"/><rect x="66" y="886" width="168" height="30" rx="4" ry="4" fill="#dbeafe" stroke="#1e293b" stroke-width="1.5"/><line x1="66" y1="916" x2="234" y2="916" stroke="#1e293b" stroke-width="1"/><text x="150" y="907" text-anchor="middle" font-family="monospace" font-size="13" font-weight="600" fill="#0f172a">OrderItem</text><text class="uml-member" data-uml-visibility="public" x="76" y="932" font-family="monospace" font-size="11" fill="#16a34a">+quantity: Int</text><text class="uml-member" data-uml-visibility="public" x="76" y="948" font-family="monospace" font-size="11" fill="#16a34a">+unitPrice: Decimal</text><rect x="190" y="1154" width="168" height="94" rx="4" ry="4" fill="#ffffff" stroke="#1e293b" stroke-width="1.5"/><rect x="190" y="1154" width="168" height="30" rx="4" ry="4" fill="#dbeafe" stroke="#1e293b" stroke-width="1.5"/><line x1="190" y1="1184" x2="358" y2="1184" stroke="#1e293b" stroke-width="1"/><text x="274" y="1175" text-anchor="middle" font-family="monospace" font-size="13" font-weight="600" fill="#0f172a">Product</text><text class="uml-member" data-uml-visibility="public" x="200" y="1200" font-family="monospace" font-size="11" fill="#16a34a">+name: String</text><text class="uml-member" data-uml-visibility="public" x="200" y="1216" font-family="monospace" font-size="11" fill="#16a34a">+price: Decimal</text><text class="uml-member" data-uml-visibility="public" x="200" y="1232" font-family="monospace" font-size="11" fill="#16a34a">+stock: Int</text><rect x="314" y="886" width="168" height="94" rx="4" ry="4" fill="#ffffff" stroke="#1e293b" stroke-width="1.5"/><rect x="314" y="886" width="168" height="30" rx="4" ry="4" fill="#dbeafe" stroke="#1e293b" stroke-width="1.5"/><line x1="314" y1="916" x2="482" y2="916" stroke="#1e293b" stroke-width="1"/><text x="398" y="907" text-anchor="middle" font-family="monospace" font-size="13" font-weight="600" fill="#0f172a">Address</text><text class="uml-member" data-uml-visibility="public" x="324" y="932" font-family="monospace" font-size="11" fill="#16a34a">+street: String</text><text class="uml-member" data-uml-visibility="public" x="324" y="948" font-family="monospace" font-size="11" fill="#16a34a">+city: String</text><text class="uml-member" data-uml-visibility="public" x="324" y="964" font-family="monospace" font-size="11" fill="#16a34a">+country: String</text></svg>