<svg xmlns="http://www.w3.org/2000/svg" width="596" height="1354" viewBox="0 0 596 1354" data-orientation="TopToBottom"><rect width="100%" height="100%" fill="#ffffff"/><defs><marker id="arrow-open" viewBox="0 0 10 10" refX="9" refY="5" markerWidth="10" markerHeight="10" markerUnits="userSpaceOnUse" orient="auto-start-reverse"><path d="M0,0 L10,5 L0,10" fill="none" stroke="#1e293b" stroke-width="1.5"/></marker><marker id="arrow-triangle" viewBox="0 0 16 16" refX="15" refY="8" markerWidth="16" markerHeight="16" markerUnits="userSpaceOnUse" orient="auto-start-reverse"><polygon points="0,1 14,8 0,15" fill="#ffffff" stroke="#1e293b" stroke-width="1.5" fill-rule="nonzero"/></marker><marker id="arrow-diamond-filled" viewBox="0 0 14 10" refX="13" refY="5" markerWidth="14" markerHeight="10" markerUnits="userSpaceOnUse" orient="auto-start-reverse"><path d="M0,5 L7,0 L14,5 L7,10 z" fill="#1e293b" stroke="#1e293b" stroke-width="1"/></marker><marker id="arrow-diamond-open" viewBox="0 0 14 10" refX="13" refY="5" markerWidth="14" markerHeight="10" markerUnits="userSpaceOnUse" orient="auto-start-reverse"><path d="M0,5 L7,0 L14,5 L7,10 z" fill="#ffffff" stroke="#1e293b" stroke-width="1"/></marker></defs><defs><marker id="arrow-triangle-filled" viewBox="0 0 12 12" refX="11" refY="6" markerWidth="12" markerHeight="12" markerUnits="userSpaceOnUse" orient="auto-start-reverse"><polygon points="0,0 12,6 0,12" fill="#1e293b" stroke="#1e293b" stroke-width="1.5"/></marker><marker id="arrow-box-filled" viewBox="0 0 12 12" refX="11" refY="6" markerWidth="12" markerHeight="12" markerUnits="userSpaceOnUse" orient="auto-start-reverse"><rect x="2" y="2" width="8" height="8" fill="#1e293b" stroke="#1e293b" stroke-width="1.5"/></marker><marker id="arrow-plus" viewBox="0 0 12 12" refX="11" refY="6" markerWidth="12" markerHeight="12" markerUnits="userSpaceOnUse" orient="auto-start-reverse"><path d="M6,1 L6,11 M1,6 L11,6" fill="none" stroke="#1e293b" stroke-width="1.8" stroke-linecap="round"/></marker><marker id="arrow-cross" viewBox="0 0 12 12" refX="11" refY="6" markerWidth="12" markerHeight="12" markerUnits="userSpaceOnUse" orient="auto-start-reverse"><path d="M2,2 L10,10 M10,2 L2,10" fill="none" stroke="#1e293b" stroke-width="1.8" stroke-linecap="round"/></marker><marker id="arrow-bracket-open" viewBox="0 0 12 14" refX="11" refY="7" markerWidth="12" markerHeight="14" markerUnits="userSpaceOnUse" orient="auto-start-reverse"><path d="M10,1 L4,1 L4,13 L10,13" fill="none" stroke="#1e293b" stroke-width="1.8" stroke-linecap="round" stroke-linejoin="round"/></marker><marker id="arrow-circle-open" viewBox="0 0 12 12" refX="11" refY="6" markerWidth="12" markerHeight="12" markerUnits="userSpaceOnUse" orient="auto-start-reverse"><circle cx="6" cy="6" r="4" fill="#ffffff" stroke="#1e293b" stroke-width="1.5"/></marker><marker id="arrow-circle-filled" viewBox="0 0 12 12" refX="11" refY="6" markerWidth="12" markerHeight="12" markerUnits="userSpaceOnUse" orient="auto-start-reverse"><circle cx="6" cy="6" r="4" fill="#1e293b" stroke="#1e293b" stroke-width="1.5"/></marker><marker id="arrow-double-open" viewBox="0 0 16 12" refX="15" refY="6" markerWidth="16" markerHeight="12" markerUnits="userSpaceOnUse" orient="auto-start-reverse"><path d="M0,1 L8,6 L0,11 M7,1 L15,6 L7,11" fill="none" stroke="#1e293b" stroke-width="1.5" stroke-linejoin="round"/></marker></defs><text x="32" y="32" font-family="monospace" font-size="18" font-weight="600" fill="#0f172a">E-Commerce Domain Model</text><path class="uml-relation" data-uml-from="BaseEntity" data-uml-to="User" data-uml-arrow="&lt;|--" d="M 277,160 C 277.0,189.0 277.0,218.0 277.0,247.0 C 277.0,276.0 277.0,305.0 277.0,334.0" fill="none" stroke="#1e293b" stroke-width="2" marker-start="url(#arrow-triangle)" /><path class="uml-relation" data-uml-from="BaseEntity" data-uml-to="Order" data-uml-arrow="&lt;|--" d="M 277,160 C 277.0,189.0 260.7,232.5 277.0,247.0 C 293.3,261.5 358.7,208.0 375.0,247.0 C 391.3,286.0 391.3,442.0 375.0,481.0 C 358.7,520.0 293.3,460.8 277.0,481.0 C 260.7,501.2 277.0,561.7 277.0,602.0" fill="none" stroke="#1e293b" stroke-width="2" marker-start="url(#arrow-triangle)" /><path class="uml-relation" data-uml-from="BaseEntity" data-uml-to="Product" data-uml-arrow="&lt;|--" d="M 277,160 C 277.0,207.3 260.7,278.3 277.0,302.0 C 293.3,325.7 358.7,171.2 375.0,302.0 C 391.3,432.8 391.3,956.2 375.0,1087.0 C 358.7,1217.8 293.3,1075.8 277.0,1087.0 C 260.7,1098.2 277.0,1131.7 277.0,1154.0" fill="none" stroke="#1e293b" stroke-width="2" marker-start="url(#arrow-triangle)" /><path class="uml-relation" data-uml-from="User" data-uml-to="Order" data-uml-arrow="--&gt;" d="M 277,428 C 277.0,457.0 277.0,486.0 277.0,515.0 C 277.0,544.0 277.0,573.0 277.0,602.0" fill="none" stroke="#1e293b" stroke-width="2" marker-end="url(#arrow-open)" /><text class="uml-edge-label" data-uml-label-role="edge" x="385" y="546" text-anchor="middle" font-family="monospace" font-size="11" fill="#334155">places</text><path class="uml-relation" data-uml-from="Order" data-uml-to="OrderItem" data-uml-arrow="*--" d="M 277,712 C 277.0,756.7 298.5,823.7 277.0,846.0 C 255.5,868.3 169.5,839.3 148.0,846.0 C 126.5,852.7 148.0,872.7 148.0,886.0" fill="none" stroke="#1e293b" stroke-width="2" marker-start="url(#arrow-diamond-filled)" /><text class="uml-edge-label" data-uml-label-role="edge" x="391" y="767" text-anchor="middle" font-family="monospace" font-size="11" fill="#334155">contains</text><path class="uml-relation" data-uml-from="OrderItem" data-uml-to="Product" data-uml-arrow="--&gt;" d="M 148,964 C 148.0,1019.0 126.5,1101.5 148.0,1129.0 C 169.5,1156.5 255.5,1124.8 277.0,1129.0 C 298.5,1133.2 277.0,1145.7 277.0,1154.0" fill="none" stroke="#1e293b" stroke-width="2" marker-end="url(#arrow-open)" /><text class="uml-edge-label" data-uml-label-role="edge" x="268" y="1034" text-anchor="middle" font-family="monospace" font-size="11" fill="#334155">references</text><path class="uml-relation" data-uml-from="User" data-uml-to="Address" data-uml-arrow="--&gt;" d="M 277,428 C 277.0,479.0 255.5,555.5 277.0,581.0 C 298.5,606.5 384.5,530.2 406.0,581.0 C 427.5,631.8 406.0,784.3 406.0,886.0" fill="none" stroke="#1e293b" stroke-width="2" marker-end="url(#arrow-open)" /><text class="uml-edge-label" data-uml-label-role="edge" x="377" y="721" text-anchor="middle" font-family="monospace" font-size="11" fill="#334155">has</text><path class="uml-relation" data-uml-from="Order" data-uml-to="Address" data-uml-arrow="--&gt;" d="M 277,712 C 277.0,764.7 255.5,843.7 277.0,870.0 C 298.5,896.3 384.5,867.3 406.0,870.0 C 427.5,872.7 406.0,880.7 406.0,886.0" fill="none" stroke="#1e293b" stroke-width="2" marker-end="url(#arrow-open)" /><text class="uml-edge-label" data-uml-label-role="edge" x="311" y="779" text-anchor="middle" font-family="monospace" font-size="11" fill="#334155">ships to</text><rect x="195" y="66" width="164" height="94" rx="4" ry="4" fill="#ffffff" stroke="#1e293b" stroke-width="1.5"/><rect x="195" y="66" width="164" height="30" rx="4" ry="4" fill="#dbeafe" stroke="#1e293b" stroke-width="1.5"/><line x1="195" y1="96" x2="359" y2="96" stroke="#1e293b" stroke-width="1"/><text x="277" y="87" text-anchor="middle" font-family="monospace" font-size="13" font-weight="600" fill="#0f172a">BaseEntity</text><text class="uml-member" data-uml-visibility="public" x="205" y="112" font-family="monospace" font-size="11" fill="#16a34a">+id: UUID</text><text class="uml-member" data-uml-visibility="public" x="205" y="128" font-family="monospace" font-size="11" fill="#16a34a">+createdAt: DateTime</text><text class="uml-member" data-uml-visibility="public" x="205" y="144" font-family="monospace" font-size="11" fill="#16a34a">+updatedAt: DateTime</text><rect x="195" y="334" width="164" height="94" rx="4" ry="4" fill="#ffffff" stroke="#1e293b" stroke-width="1.5"/><rect x="195" y="334" width="164" height="30" rx="4" ry="4" fill="#dbeafe" stroke="#1e293b" stroke-width="1.5"/><line x1="195" y1="364" x2="359" y2="364" stroke="#1e293b" stroke-width="1"/><text x="277" y="355" text-anchor="middle" font-family="monospace" font-size="13" font-weight="600" fill="#0f172a">User</text><text class="uml-member" data-uml-visibility="public" x="205" y="380" font-family="monospace" font-size="11" fill="#16a34a">+email: String</text><text class="uml-member" data-uml-visibility="public" x="205" y="396" font-family="monospace" font-size="11" fill="#16a34a">+name: String</text><line x1="195" y1="404" x2="359" y2="404" stroke="#1e293b" stroke-width="1"/><text class="uml-member" data-uml-visibility="public" x="205" y="412" font-family="monospace" font-size="11" fill="#16a34a">+register()</text><rect x="195" y="602" width="164" height="110" rx="4" ry="4" fill="#ffffff" stroke="#1e293b" stroke-width="1.5"/><rect x="195" y="602" width="164" height="30" rx="4" ry="4" fill="#dbeafe" stroke="#1e293b" stroke-width="1.5"/><line x1="195" y1="632" x2="359" y2="632" stroke="#1e293b" stroke-width="1"/><text x="277" y="623" text-anchor="middle" font-family="monospace" font-size="13" font-weight="600" fill="#0f172a">Order</text><text class="uml-member" data-uml-visibility="public" x="205" y="648" font-family="monospace" font-size="11" fill="#16a34a">+status: String</text><text class="uml-member" data-uml-visibility="public" x="205" y="664" font-family="monospace" font-size="11" fill="#16a34a">+total: Decimal</text><line x1="195" y1="672" x2="359" y2="672" stroke="#1e293b" stroke-width="1"/><text class="uml-member" data-uml-visibility="public" x="205" y="680" font-family="monospace" font-size="11" fill="#16a34a">+place()</text><text class="uml-member" data-uml-visibility="public" x="205" y="696" font-family="monospace" font-size="11" fill="#16a34a">+cancel()</text><rect x="66" y="886" width="164" height="78" rx="4" ry="4" fill="#ffffff" stroke="#1e293b" stroke-width="1.5"/><rect x="66" y="886" width="164" height="30" rx="4" ry="4" fill="#dbeafe" stroke="#1e293b" stroke-width="1.5"/><line x1="66" y1="916" x2="230" y2="916" stroke="#1e293b" stroke-width="1"/><text x="148" y="907" text-anchor="middle" font-family="monospace" font-size="13" font-weight="600" fill="#0f172a">OrderItem</text><text class="uml-member" data-uml-visibility="public" x="76" y="932" font-family="monospace" font-size="11" fill="#16a34a">+quantity: Int</text><text class="uml-member" data-uml-visibility="public" x="76" y="948" font-family="monospace" font-size="11" fill="#16a34a">+unitPrice: Decimal</text><rect x="195" y="1154" width="164" height="94" rx="4" ry="4" fill="#ffffff" stroke="#1e293b" stroke-width="1.5"/><rect x="195" y="1154" width="164" height="30" rx="4" ry="4" fill="#dbeafe" stroke="#1e293b" stroke-width="1.5"/><line x1="195" y1="1184" x2="359" y2="1184" stroke="#1e293b" stroke-width="1"/><text x="277" y="1175" text-anchor="middle" font-family="monospace" font-size="13" font-weight="600" fill="#0f172a">Product</text><text class="uml-member" data-uml-visibility="public" x="205" y="1200" font-family="monospace" font-size="11" fill="#16a34a">+name: String</text><text class="uml-member" data-uml-visibility="public" x="205" y="1216" font-family="monospace" font-size="11" fill="#16a34a">+price: Decimal</text><text class="uml-member" data-uml-visibility="public" x="205" y="1232" font-family="monospace" font-size="11" fill="#16a34a">+stock: Int</text><rect x="324" y="886" width="164" height="94" rx="4" ry="4" fill="#ffffff" stroke="#1e293b" stroke-width="1.5"/><rect x="324" y="886" width="164" height="30" rx="4" ry="4" fill="#dbeafe" stroke="#1e293b" stroke-width="1.5"/><line x1="324" y1="916" x2="488" y2="916" stroke="#1e293b" stroke-width="1"/><text x="406" y="907" text-anchor="middle" font-family="monospace" font-size="13" font-weight="600" fill="#0f172a">Address</text><text class="uml-member" data-uml-visibility="public" x="334" y="932" font-family="monospace" font-size="11" fill="#16a34a">+street: String</text><text class="uml-member" data-uml-visibility="public" x="334" y="948" font-family="monospace" font-size="11" fill="#16a34a">+city: String</text><text class="uml-member" data-uml-visibility="public" x="334" y="964" font-family="monospace" font-size="11" fill="#16a34a">+country: String</text></svg>