<svg xmlns="http://www.w3.org/2000/svg" width="682" height="200" viewBox="0 0 682 200"><rect width="100%" height="100%" fill="#ffffff"/><defs><marker id="arrow-open" viewBox="0 0 10 10" refX="9" refY="5" markerWidth="10" markerHeight="10" orient="auto-start-reverse"><path d="M0,0 L10,5 L0,10" fill="none" stroke="#1e293b" stroke-width="1.5"/></marker><marker id="arrow-triangle" viewBox="0 0 12 12" refX="11" refY="6" markerWidth="12" markerHeight="12" orient="auto-start-reverse"><polygon points="0,0 12,6 0,12" fill="white" stroke="#1e293b" stroke-width="1.5" fill-rule="nonzero"/></marker><marker id="arrow-diamond-filled" viewBox="0 0 14 10" refX="13" refY="5" markerWidth="14" markerHeight="10" orient="auto-start-reverse"><path d="M0,5 L7,0 L14,5 L7,10 z" fill="#1e293b" stroke="#1e293b" stroke-width="1"/></marker><marker id="arrow-diamond-open" viewBox="0 0 14 10" refX="13" refY="5" markerWidth="14" markerHeight="10" orient="auto-start-reverse"><path d="M0,5 L7,0 L14,5 L7,10 z" fill="white" stroke="#1e293b" stroke-width="1"/></marker></defs><text x="32" y="32" font-family="monospace" font-size="18" font-weight="600" fill="#0f172a">Generic Classes</text><rect x="32" y="66" width="174" height="94" rx="4" ry="4" fill="#ffffff" stroke="#1e293b" stroke-width="1.5"/><rect x="32" y="66" width="174" height="30" rx="4" ry="4" fill="#dbeafe" stroke="#1e293b" stroke-width="1.5"/><line x1="32" y1="96" x2="206" y2="96" stroke="#1e293b" stroke-width="1"/><text x="119" y="87" text-anchor="middle" font-family="monospace" font-size="13" font-weight="600" fill="#0f172a">Container&lt;T&gt;</text><text class="uml-member" data-uml-visibility="public" x="42" y="112" font-family="monospace" font-size="11" fill="#16a34a">+items: List&lt;T&gt;</text><text class="uml-member" data-uml-visibility="public" x="42" y="128" font-family="monospace" font-size="11" fill="#16a34a">+add(item: T): void</text><text class="uml-member" data-uml-visibility="public" x="42" y="144" font-family="monospace" font-size="11" fill="#16a34a">+get(index: int): T</text><rect x="254" y="66" width="174" height="94" rx="4" ry="4" fill="#ffffff" stroke="#1e293b" stroke-width="1.5"/><rect x="254" y="66" width="174" height="30" rx="4" ry="4" fill="#dbeafe" stroke="#1e293b" stroke-width="1.5"/><line x1="254" y1="96" x2="428" y2="96" stroke="#1e293b" stroke-width="1"/><text x="341" y="87" text-anchor="middle" font-family="monospace" font-size="13" font-weight="600" fill="#0f172a">Stack&lt;E&gt;</text><text class="uml-member" data-uml-visibility="public" x="264" y="112" font-family="monospace" font-size="11" fill="#16a34a">+push(e: E): void</text><text class="uml-member" data-uml-visibility="public" x="264" y="128" font-family="monospace" font-size="11" fill="#16a34a">+pop(): E</text><text class="uml-member" data-uml-visibility="public" x="264" y="144" font-family="monospace" font-size="11" fill="#16a34a">+peek(): E</text><rect x="476" y="66" width="174" height="78" rx="4" ry="4" fill="#ffffff" stroke="#1e293b" stroke-width="1.5"/><rect x="476" y="66" width="174" height="30" rx="4" ry="4" fill="#dbeafe" stroke="#1e293b" stroke-width="1.5"/><line x1="476" y1="96" x2="650" y2="96" stroke="#1e293b" stroke-width="1"/><text x="563" y="87" text-anchor="middle" font-family="monospace" font-size="13" font-weight="600" fill="#0f172a">Map&lt;K, V&gt;</text><text class="uml-member" data-uml-visibility="public" x="486" y="112" font-family="monospace" font-size="11" fill="#16a34a">+put(k: K, v: V): void</text><text class="uml-member" data-uml-visibility="public" x="486" y="128" font-family="monospace" font-size="11" fill="#16a34a">+get(k: K): V</text></svg>