<svg xmlns="http://www.w3.org/2000/svg" width="283" height="370" viewBox="0 0 283 370" data-orientation="TopToBottom"><rect width="100%" height="100%" fill="#ffffff"/><defs><marker id="arrow-open" viewBox="0 0 10 10" refX="9" refY="5" markerWidth="10" markerHeight="10" markerUnits="userSpaceOnUse" orient="auto-start-reverse"><path d="M0,0 L10,5 L0,10" fill="none" stroke="#1e293b" stroke-width="1.5"/></marker><marker id="arrow-triangle" viewBox="0 0 16 16" refX="15" refY="8" markerWidth="16" markerHeight="16" markerUnits="userSpaceOnUse" orient="auto-start-reverse"><polygon points="0,1 14,8 0,15" fill="#ffffff" stroke="#1e293b" stroke-width="1.5" fill-rule="nonzero"/></marker><marker id="arrow-diamond-filled" viewBox="0 0 14 10" refX="13" refY="5" markerWidth="14" markerHeight="10" markerUnits="userSpaceOnUse" orient="auto-start-reverse"><path d="M0,5 L7,0 L14,5 L7,10 z" fill="#1e293b" stroke="#1e293b" stroke-width="1"/></marker><marker id="arrow-diamond-open" viewBox="0 0 14 10" refX="13" refY="5" markerWidth="14" markerHeight="10" markerUnits="userSpaceOnUse" orient="auto-start-reverse"><path d="M0,5 L7,0 L14,5 L7,10 z" fill="#ffffff" stroke="#1e293b" stroke-width="1"/></marker></defs><defs><marker id="arrow-triangle-filled" viewBox="0 0 12 12" refX="11" refY="6" markerWidth="12" markerHeight="12" markerUnits="userSpaceOnUse" orient="auto-start-reverse"><polygon points="0,0 12,6 0,12" fill="#1e293b" stroke="#1e293b" stroke-width="1.5"/></marker><marker id="arrow-box-filled" viewBox="0 0 12 12" refX="11" refY="6" markerWidth="12" markerHeight="12" markerUnits="userSpaceOnUse" orient="auto-start-reverse"><rect x="2" y="2" width="8" height="8" fill="#1e293b" stroke="#1e293b" stroke-width="1.5"/></marker><marker id="arrow-plus" viewBox="0 0 12 12" refX="11" refY="6" markerWidth="12" markerHeight="12" markerUnits="userSpaceOnUse" orient="auto-start-reverse"><path d="M6,1 L6,11 M1,6 L11,6" fill="none" stroke="#1e293b" stroke-width="1.8" stroke-linecap="round"/></marker><marker id="arrow-cross" viewBox="0 0 12 12" refX="11" refY="6" markerWidth="12" markerHeight="12" markerUnits="userSpaceOnUse" orient="auto-start-reverse"><path d="M2,2 L10,10 M10,2 L2,10" fill="none" stroke="#1e293b" stroke-width="1.8" stroke-linecap="round"/></marker><marker id="arrow-bracket-open" viewBox="0 0 12 14" refX="11" refY="7" markerWidth="12" markerHeight="14" markerUnits="userSpaceOnUse" orient="auto-start-reverse"><path d="M10,1 L4,1 L4,13 L10,13" fill="none" stroke="#1e293b" stroke-width="1.8" stroke-linecap="round" stroke-linejoin="round"/></marker><marker id="arrow-circle-open" viewBox="0 0 12 12" refX="11" refY="6" markerWidth="12" markerHeight="12" markerUnits="userSpaceOnUse" orient="auto-start-reverse"><circle cx="6" cy="6" r="4" fill="#ffffff" stroke="#1e293b" stroke-width="1.5"/></marker><marker id="arrow-circle-filled" viewBox="0 0 12 12" refX="11" refY="6" markerWidth="12" markerHeight="12" markerUnits="userSpaceOnUse" orient="auto-start-reverse"><circle cx="6" cy="6" r="4" fill="#1e293b" stroke="#1e293b" stroke-width="1.5"/></marker><marker id="arrow-double-open" viewBox="0 0 16 12" refX="15" refY="6" markerWidth="16" markerHeight="12" markerUnits="userSpaceOnUse" orient="auto-start-reverse"><path d="M0,1 L8,6 L0,11 M7,1 L15,6 L7,11" fill="none" stroke="#1e293b" stroke-width="1.5" stroke-linejoin="round"/></marker></defs><polyline class="uml-relation" data-uml-from="Service" data-uml-to="Controller" data-uml-arrow="--&gt;" points="145,84 145,99 145,114" fill="none" stroke="#1e293b" stroke-width="2" marker-end="url(#arrow-open)" /><polyline class="uml-relation" data-uml-from="Controller" data-uml-to="Repository" data-uml-arrow="--&gt;" points="145,166 145,181 145,196" fill="none" stroke="#1e293b" stroke-width="2" marker-end="url(#arrow-open)" /><polyline class="uml-relation" data-uml-from="Repository" data-uml-to="ValueObject" data-uml-arrow="--&gt;" points="145,248 145,263 145,278" fill="none" stroke="#1e293b" stroke-width="2" marker-end="url(#arrow-open)" /><rect class="uml-node uml-class" data-uml-id="Service" x="32" y="32" width="227" height="52" rx="4" ry="4" fill="#ffffff" stroke="#1e293b" stroke-width="1.5"/><rect x="32" y="32" width="227" height="44" rx="4" ry="4" fill="#dbeafe" stroke="#1e293b" stroke-width="1.5"/><line x1="32" y1="76" x2="259" y2="76" stroke="#1e293b" stroke-width="1"/><text x="145" y="45" text-anchor="middle" font-family="monospace" font-size="10" fill="#0f172a">«Service»</text><circle class="uml-class-badge uml-spot-badge" cx="44" cy="63" r="8" fill="#FF7700" stroke="#FF7700" stroke-width="1"/><text class="uml-class-badge-letter uml-spot-badge-letter" x="44" y="66" text-anchor="middle" font-family="monospace" font-size="9" font-weight="700" fill="#ffffff">S</text><text x="145" y="67" text-anchor="middle" font-family="monospace" font-size="13" font-weight="600" fill="#0f172a">Service</text><rect class="uml-node uml-class" data-uml-id="Controller" x="32" y="114" width="227" height="52" rx="4" ry="4" fill="#ffffff" stroke="#1e293b" stroke-width="1.5"/><rect x="32" y="114" width="227" height="44" rx="4" ry="4" fill="#dbeafe" stroke="#1e293b" stroke-width="1.5"/><line x1="32" y1="158" x2="259" y2="158" stroke="#1e293b" stroke-width="1"/><text x="145" y="127" text-anchor="middle" font-family="monospace" font-size="10" fill="#0f172a">«Controller»</text><circle class="uml-class-badge uml-spot-badge" cx="44" cy="145" r="8" fill="#0066CC" stroke="#0066CC" stroke-width="1"/><text class="uml-class-badge-letter uml-spot-badge-letter" x="44" y="148" text-anchor="middle" font-family="monospace" font-size="9" font-weight="700" fill="#ffffff">C</text><text x="145" y="149" text-anchor="middle" font-family="monospace" font-size="13" font-weight="600" fill="#0f172a">Controller</text><rect class="uml-node uml-class" data-uml-id="Repository" x="32" y="196" width="227" height="52" rx="4" ry="4" fill="#ffffff" stroke="#1e293b" stroke-width="1.5"/><rect x="32" y="196" width="227" height="44" rx="4" ry="4" fill="#dbeafe" stroke="#1e293b" stroke-width="1.5"/><line x1="32" y1="240" x2="259" y2="240" stroke="#1e293b" stroke-width="1"/><text x="145" y="209" text-anchor="middle" font-family="monospace" font-size="10" fill="#0f172a">«Repository»</text><circle class="uml-class-badge uml-spot-badge" cx="44" cy="227" r="8" fill="#009900" stroke="#009900" stroke-width="1"/><text class="uml-class-badge-letter uml-spot-badge-letter" x="44" y="230" text-anchor="middle" font-family="monospace" font-size="9" font-weight="700" fill="#ffffff">R</text><text x="145" y="231" text-anchor="middle" font-family="monospace" font-size="13" font-weight="600" fill="#0f172a">Repository</text><rect class="uml-node uml-class" data-uml-id="ValueObject" x="32" y="278" width="227" height="52" rx="4" ry="4" fill="#ffffff" stroke="#1e293b" stroke-width="1.5"/><rect x="32" y="278" width="227" height="44" rx="4" ry="4" fill="#dbeafe" stroke="#1e293b" stroke-width="1.5"/><line x1="32" y1="322" x2="259" y2="322" stroke="#1e293b" stroke-width="1"/><text x="145" y="291" text-anchor="middle" font-family="monospace" font-size="10" fill="#0f172a">«Value»</text><circle class="uml-class-badge uml-spot-badge" cx="44" cy="309" r="8" fill="#9933CC" stroke="#9933CC" stroke-width="1"/><text class="uml-class-badge-letter uml-spot-badge-letter" x="44" y="312" text-anchor="middle" font-family="monospace" font-size="9" font-weight="700" fill="#ffffff">V</text><text x="145" y="313" text-anchor="middle" font-family="monospace" font-size="13" font-weight="600" fill="#0f172a">ValueObject</text></svg>