<svg xmlns="http://www.w3.org/2000/svg" width="704" height="246" viewBox="0 0 704 246"><rect width="100%" height="100%" fill="#ffffff"/><defs><marker id="arrow-open" viewBox="0 0 10 10" refX="9" refY="5" markerWidth="10" markerHeight="10" markerUnits="userSpaceOnUse" orient="auto-start-reverse"><path d="M0,0 L10,5 L0,10" fill="none" stroke="#1e293b" stroke-width="1.5"/></marker><marker id="arrow-triangle" viewBox="0 0 16 16" refX="15" refY="8" markerWidth="16" markerHeight="16" markerUnits="userSpaceOnUse" orient="auto-start-reverse"><polygon points="0,1 14,8 0,15" fill="#ffffff" stroke="#1e293b" stroke-width="1.5" fill-rule="nonzero"/></marker><marker id="arrow-diamond-filled" viewBox="0 0 14 10" refX="13" refY="5" markerWidth="14" markerHeight="10" markerUnits="userSpaceOnUse" orient="auto-start-reverse"><path d="M0,5 L7,0 L14,5 L7,10 z" fill="#1e293b" stroke="#1e293b" stroke-width="1"/></marker><marker id="arrow-diamond-open" viewBox="0 0 14 10" refX="13" refY="5" markerWidth="14" markerHeight="10" markerUnits="userSpaceOnUse" orient="auto-start-reverse"><path d="M0,5 L7,0 L14,5 L7,10 z" fill="#ffffff" stroke="#1e293b" stroke-width="1"/></marker></defs><text x="32" y="32" font-family="monospace" font-size="18" font-weight="600" fill="#0f172a">Relation Arrow Types in Class Diagrams</text><line class="uml-relation" data-uml-from="A" data-uml-to="B" x1="192" y1="85" x2="272" y2="85" stroke="#1e293b" stroke-width="2" stroke-dasharray="5 3" marker-end="url(#arrow-open)" marker-start="url(#arrow-triangle)"/><text x="232" y="71" text-anchor="middle" font-family="monospace" font-size="11" fill="#334155">&lt;&lt;extend&gt;&gt;</text><line class="uml-relation" data-uml-from="C" data-uml-to="D" x1="512" y1="85" x2="192" y2="187" stroke="#1e293b" stroke-width="2" marker-start="url(#arrow-diamond-filled)"/><text x="384" y="111" text-anchor="middle" font-family="monospace" font-size="11" fill="#334155">composition (D is part of C)</text><line class="uml-relation" data-uml-from="E" data-uml-to="F" x1="432" y1="187" x2="512" y2="187" stroke="#1e293b" stroke-width="2"/><text x="464" y="173" text-anchor="middle" font-family="monospace" font-size="11" fill="#334155">aggregation (F belongs to E)</text><line class="uml-relation" data-uml-from="A" data-uml-to="B" x1="192" y1="85" x2="272" y2="85" stroke="#1e293b" stroke-width="2" marker-end="url(#arrow-open)"/><text x="224" y="71" text-anchor="middle" font-family="monospace" font-size="11" fill="#334155">association</text><rect x="32" y="66" width="160" height="38" rx="4" ry="4" fill="#ffffff" stroke="#1e293b" stroke-width="1.5"/><rect x="32" y="66" width="160" height="30" rx="4" ry="4" fill="#dbeafe" stroke="#1e293b" stroke-width="1.5"/><line x1="32" y1="96" x2="192" y2="96" stroke="#1e293b" stroke-width="1"/><text x="112" y="87" text-anchor="middle" font-family="monospace" font-size="13" font-weight="600" fill="#0f172a">A</text><rect x="272" y="66" width="160" height="38" rx="4" ry="4" fill="#ffffff" stroke="#1e293b" stroke-width="1.5"/><rect x="272" y="66" width="160" height="30" rx="4" ry="4" fill="#dbeafe" stroke="#1e293b" stroke-width="1.5"/><line x1="272" y1="96" x2="432" y2="96" stroke="#1e293b" stroke-width="1"/><text x="352" y="87" text-anchor="middle" font-family="monospace" font-size="13" font-weight="600" fill="#0f172a">B</text><rect x="512" y="66" width="160" height="38" rx="4" ry="4" fill="#ffffff" stroke="#1e293b" stroke-width="1.5"/><rect x="512" y="66" width="160" height="30" rx="4" ry="4" fill="#dbeafe" stroke="#1e293b" stroke-width="1.5"/><line x1="512" y1="96" x2="672" y2="96" stroke="#1e293b" stroke-width="1"/><text x="592" y="87" text-anchor="middle" font-family="monospace" font-size="13" font-weight="600" fill="#0f172a">C</text><rect x="32" y="168" width="160" height="38" rx="4" ry="4" fill="#ffffff" stroke="#1e293b" stroke-width="1.5"/><rect x="32" y="168" width="160" height="30" rx="4" ry="4" fill="#dbeafe" stroke="#1e293b" stroke-width="1.5"/><line x1="32" y1="198" x2="192" y2="198" stroke="#1e293b" stroke-width="1"/><text x="112" y="189" text-anchor="middle" font-family="monospace" font-size="13" font-weight="600" fill="#0f172a">D</text><rect x="272" y="168" width="160" height="38" rx="4" ry="4" fill="#ffffff" stroke="#1e293b" stroke-width="1.5"/><rect x="272" y="168" width="160" height="30" rx="4" ry="4" fill="#dbeafe" stroke="#1e293b" stroke-width="1.5"/><line x1="272" y1="198" x2="432" y2="198" stroke="#1e293b" stroke-width="1"/><text x="352" y="189" text-anchor="middle" font-family="monospace" font-size="13" font-weight="600" fill="#0f172a">E</text><rect x="512" y="168" width="160" height="38" rx="4" ry="4" fill="#ffffff" stroke="#1e293b" stroke-width="1.5"/><rect x="512" y="168" width="160" height="30" rx="4" ry="4" fill="#dbeafe" stroke="#1e293b" stroke-width="1.5"/><line x1="512" y1="198" x2="672" y2="198" stroke="#1e293b" stroke-width="1"/><text x="592" y="189" text-anchor="middle" font-family="monospace" font-size="13" font-weight="600" fill="#0f172a">F</text></svg>