<svg xmlns="http://www.w3.org/2000/svg" width="1202" height="350" viewBox="0 0 1202 350" data-orientation="TopToBottom"><rect width="100%" height="100%" fill="#ffffff"/><defs><marker id="arrow-open" viewBox="0 0 10 10" refX="9" refY="5" markerWidth="10" markerHeight="10" markerUnits="userSpaceOnUse" orient="auto-start-reverse"><path d="M0,0 L10,5 L0,10" fill="none" stroke="#1e293b" stroke-width="1.5"/></marker><marker id="arrow-triangle" viewBox="0 0 16 16" refX="15" refY="8" markerWidth="16" markerHeight="16" markerUnits="userSpaceOnUse" orient="auto-start-reverse"><polygon points="0,1 14,8 0,15" fill="#ffffff" stroke="#1e293b" stroke-width="1.5" fill-rule="nonzero"/></marker><marker id="arrow-diamond-filled" viewBox="0 0 14 10" refX="13" refY="5" markerWidth="14" markerHeight="10" markerUnits="userSpaceOnUse" orient="auto-start-reverse"><path d="M0,5 L7,0 L14,5 L7,10 z" fill="#1e293b" stroke="#1e293b" stroke-width="1"/></marker><marker id="arrow-diamond-open" viewBox="0 0 14 10" refX="13" refY="5" markerWidth="14" markerHeight="10" markerUnits="userSpaceOnUse" orient="auto-start-reverse"><path d="M0,5 L7,0 L14,5 L7,10 z" fill="#ffffff" stroke="#1e293b" stroke-width="1"/></marker></defs><defs><marker id="arrow-triangle-filled" viewBox="0 0 12 12" refX="11" refY="6" markerWidth="12" markerHeight="12" markerUnits="userSpaceOnUse" orient="auto-start-reverse"><polygon points="0,0 12,6 0,12" fill="#1e293b" stroke="#1e293b" stroke-width="1.5"/></marker><marker id="arrow-box-filled" viewBox="0 0 12 12" refX="11" refY="6" markerWidth="12" markerHeight="12" markerUnits="userSpaceOnUse" orient="auto-start-reverse"><rect x="2" y="2" width="8" height="8" fill="#1e293b" stroke="#1e293b" stroke-width="1.5"/></marker><marker id="arrow-plus" viewBox="0 0 12 12" refX="11" refY="6" markerWidth="12" markerHeight="12" markerUnits="userSpaceOnUse" orient="auto-start-reverse"><path d="M6,1 L6,11 M1,6 L11,6" fill="none" stroke="#1e293b" stroke-width="1.8" stroke-linecap="round"/></marker><marker id="arrow-cross" viewBox="0 0 12 12" refX="11" refY="6" markerWidth="12" markerHeight="12" markerUnits="userSpaceOnUse" orient="auto-start-reverse"><path d="M2,2 L10,10 M10,2 L2,10" fill="none" stroke="#1e293b" stroke-width="1.8" stroke-linecap="round"/></marker><marker id="arrow-bracket-open" viewBox="0 0 12 14" refX="11" refY="7" markerWidth="12" markerHeight="14" markerUnits="userSpaceOnUse" orient="auto-start-reverse"><path d="M10,1 L4,1 L4,13 L10,13" fill="none" stroke="#1e293b" stroke-width="1.8" stroke-linecap="round" stroke-linejoin="round"/></marker><marker id="arrow-circle-open" viewBox="0 0 12 12" refX="11" refY="6" markerWidth="12" markerHeight="12" markerUnits="userSpaceOnUse" orient="auto-start-reverse"><circle cx="6" cy="6" r="4" fill="#ffffff" stroke="#1e293b" stroke-width="1.5"/></marker><marker id="arrow-circle-filled" viewBox="0 0 12 12" refX="11" refY="6" markerWidth="12" markerHeight="12" markerUnits="userSpaceOnUse" orient="auto-start-reverse"><circle cx="6" cy="6" r="4" fill="#1e293b" stroke="#1e293b" stroke-width="1.5"/></marker><marker id="arrow-double-open" viewBox="0 0 16 12" refX="15" refY="6" markerWidth="16" markerHeight="12" markerUnits="userSpaceOnUse" orient="auto-start-reverse"><path d="M0,1 L8,6 L0,11 M7,1 L15,6 L7,11" fill="none" stroke="#1e293b" stroke-width="1.5" stroke-linejoin="round"/></marker></defs><text x="32" y="32" font-family="monospace" font-size="18" font-weight="600" fill="#0f172a">Relation Arrow Types in Class Diagrams</text><path class="uml-relation" data-uml-from="A" data-uml-to="B" data-uml-arrow="&lt;|--" d="M 126,104 C 126.0,109.0 126.0,116.5 126.0,119.0 C 126.0,121.5 126.0,104.5 126.0,119.0 C 126.0,133.5 126.0,177.0 126.0,206.0" fill="none" stroke="#1e293b" stroke-width="2" marker-start="url(#arrow-triangle)" /><text class="uml-edge-label" data-uml-label-role="edge" x="115" y="136" text-anchor="middle" font-family="monospace" font-size="11" fill="#334155">inheritance (B extends A)</text><path class="uml-relation" data-uml-from="C" data-uml-to="D" data-uml-arrow="*--" d="M 526,104 C 526.0,121.0 526.0,138.0 526.0,155.0 C 526.0,172.0 526.0,189.0 526.0,206.0" fill="none" stroke="#1e293b" stroke-width="2" marker-start="url(#arrow-diamond-filled)" /><text class="uml-edge-label" data-uml-label-role="edge" x="698" y="168" text-anchor="middle" font-family="monospace" font-size="11" fill="#334155">composition (D is part of C)</text><path class="uml-relation" data-uml-from="E" data-uml-to="F" data-uml-arrow="o--" d="M 906,104 C 906.0,121.0 906.0,138.0 906.0,155.0 C 906.0,172.0 906.0,189.0 906.0,206.0" fill="none" stroke="#1e293b" stroke-width="2" marker-start="url(#arrow-diamond-open)" /><text class="uml-edge-label" data-uml-label-role="edge" x="1078" y="168" text-anchor="middle" font-family="monospace" font-size="11" fill="#334155">aggregation (F belongs to E)</text><path class="uml-relation" data-uml-from="A" data-uml-to="B" data-uml-arrow="--&gt;" d="M 146,104 C 146.0,117.0 146.0,136.5 146.0,143.0 C 146.0,149.5 146.0,132.5 146.0,143.0 C 146.0,153.5 146.0,185.0 146.0,206.0" fill="none" stroke="#1e293b" stroke-width="2" marker-end="url(#arrow-open)" /><text class="uml-edge-label" data-uml-label-role="edge" x="233" y="176" text-anchor="middle" font-family="monospace" font-size="11" fill="#334155">association</text><rect x="66" y="66" width="160" height="38" rx="4" ry="4" fill="#ffffff" stroke="#1e293b" stroke-width="1.5"/><rect x="66" y="66" width="160" height="30" rx="4" ry="4" fill="#dbeafe" stroke="#1e293b" stroke-width="1.5"/><line x1="66" y1="96" x2="226" y2="96" stroke="#1e293b" stroke-width="1"/><text x="146" y="87" text-anchor="middle" font-family="monospace" font-size="13" font-weight="600" fill="#0f172a">A</text><rect x="66" y="206" width="160" height="38" rx="4" ry="4" fill="#ffffff" stroke="#1e293b" stroke-width="1.5"/><rect x="66" y="206" width="160" height="30" rx="4" ry="4" fill="#dbeafe" stroke="#1e293b" stroke-width="1.5"/><line x1="66" y1="236" x2="226" y2="236" stroke="#1e293b" stroke-width="1"/><text x="146" y="227" text-anchor="middle" font-family="monospace" font-size="13" font-weight="600" fill="#0f172a">B</text><rect x="446" y="66" width="160" height="38" rx="4" ry="4" fill="#ffffff" stroke="#1e293b" stroke-width="1.5"/><rect x="446" y="66" width="160" height="30" rx="4" ry="4" fill="#dbeafe" stroke="#1e293b" stroke-width="1.5"/><line x1="446" y1="96" x2="606" y2="96" stroke="#1e293b" stroke-width="1"/><text x="526" y="87" text-anchor="middle" font-family="monospace" font-size="13" font-weight="600" fill="#0f172a">C</text><rect x="446" y="206" width="160" height="38" rx="4" ry="4" fill="#ffffff" stroke="#1e293b" stroke-width="1.5"/><rect x="446" y="206" width="160" height="30" rx="4" ry="4" fill="#dbeafe" stroke="#1e293b" stroke-width="1.5"/><line x1="446" y1="236" x2="606" y2="236" stroke="#1e293b" stroke-width="1"/><text x="526" y="227" text-anchor="middle" font-family="monospace" font-size="13" font-weight="600" fill="#0f172a">D</text><rect x="826" y="66" width="160" height="38" rx="4" ry="4" fill="#ffffff" stroke="#1e293b" stroke-width="1.5"/><rect x="826" y="66" width="160" height="30" rx="4" ry="4" fill="#dbeafe" stroke="#1e293b" stroke-width="1.5"/><line x1="826" y1="96" x2="986" y2="96" stroke="#1e293b" stroke-width="1"/><text x="906" y="87" text-anchor="middle" font-family="monospace" font-size="13" font-weight="600" fill="#0f172a">E</text><rect x="826" y="206" width="160" height="38" rx="4" ry="4" fill="#ffffff" stroke="#1e293b" stroke-width="1.5"/><rect x="826" y="206" width="160" height="30" rx="4" ry="4" fill="#dbeafe" stroke="#1e293b" stroke-width="1.5"/><line x1="826" y1="236" x2="986" y2="236" stroke="#1e293b" stroke-width="1"/><text x="906" y="227" text-anchor="middle" font-family="monospace" font-size="13" font-weight="600" fill="#0f172a">F</text></svg>