<svg xmlns="http://www.w3.org/2000/svg" width="1102" height="350" viewBox="0 0 1102 350"><rect width="100%" height="100%" fill="#ffffff"/><defs><marker id="arrow-open" viewBox="0 0 10 10" refX="9" refY="5" markerWidth="10" markerHeight="10" markerUnits="userSpaceOnUse" orient="auto-start-reverse"><path d="M0,0 L10,5 L0,10" fill="none" stroke="#1e293b" stroke-width="1.5"/></marker><marker id="arrow-triangle" viewBox="0 0 16 16" refX="15" refY="8" markerWidth="16" markerHeight="16" markerUnits="userSpaceOnUse" orient="auto-start-reverse"><polygon points="0,1 14,8 0,15" fill="#ffffff" stroke="#1e293b" stroke-width="1.5" fill-rule="nonzero"/></marker><marker id="arrow-diamond-filled" viewBox="0 0 14 10" refX="13" refY="5" markerWidth="14" markerHeight="10" markerUnits="userSpaceOnUse" orient="auto-start-reverse"><path d="M0,5 L7,0 L14,5 L7,10 z" fill="#1e293b" stroke="#1e293b" stroke-width="1"/></marker><marker id="arrow-diamond-open" viewBox="0 0 14 10" refX="13" refY="5" markerWidth="14" markerHeight="10" markerUnits="userSpaceOnUse" orient="auto-start-reverse"><path d="M0,5 L7,0 L14,5 L7,10 z" fill="#ffffff" stroke="#1e293b" stroke-width="1"/></marker></defs><text x="32" y="32" font-family="monospace" font-size="18" font-weight="600" fill="#0f172a">Relation Arrow Types in Class Diagrams</text><polyline class="uml-relation" data-uml-from="A" data-uml-to="B" data-uml-arrow="&lt;|--" points="146,104 146,155 146,206" fill="none" stroke="#1e293b" stroke-width="2" stroke-dasharray="5 3" marker-end="url(#arrow-open)" marker-start="url(#arrow-triangle)" /><text x="264" y="174" text-anchor="middle" font-family="monospace" font-size="11" fill="#334155">&lt;&lt;extend&gt;&gt;</text><polyline class="uml-relation" data-uml-from="C" data-uml-to="D" data-uml-arrow="*--" points="526,104 526,155 526,206" fill="none" stroke="#1e293b" stroke-width="2" marker-start="url(#arrow-diamond-filled)" /><text x="698" y="168" text-anchor="middle" font-family="monospace" font-size="11" fill="#334155">composition (D is part of C)</text><polyline class="uml-relation" data-uml-from="E" data-uml-to="F" data-uml-arrow="o--" points="906,104 906,155 906,206" fill="none" stroke="#1e293b" stroke-width="2" marker-start="url(#arrow-diamond-open)" /><text x="978" y="168" text-anchor="middle" font-family="monospace" font-size="11" fill="#334155">aggregation (F belongs to E)</text><polyline class="uml-relation" data-uml-from="A" data-uml-to="B" data-uml-arrow="--&gt;" points="146,104 146,155 146,206" fill="none" stroke="#1e293b" stroke-width="2" marker-end="url(#arrow-open)" /><text x="267" y="188" text-anchor="middle" font-family="monospace" font-size="11" fill="#334155">association</text><rect x="66" y="66" width="160" height="38" rx="4" ry="4" fill="#ffffff" stroke="#1e293b" stroke-width="1.5"/><rect x="66" y="66" width="160" height="30" rx="4" ry="4" fill="#dbeafe" stroke="#1e293b" stroke-width="1.5"/><line x1="66" y1="96" x2="226" y2="96" stroke="#1e293b" stroke-width="1"/><text x="146" y="87" text-anchor="middle" font-family="monospace" font-size="13" font-weight="600" fill="#0f172a">A</text><rect x="66" y="206" width="160" height="38" rx="4" ry="4" fill="#ffffff" stroke="#1e293b" stroke-width="1.5"/><rect x="66" y="206" width="160" height="30" rx="4" ry="4" fill="#dbeafe" stroke="#1e293b" stroke-width="1.5"/><line x1="66" y1="236" x2="226" y2="236" stroke="#1e293b" stroke-width="1"/><text x="146" y="227" text-anchor="middle" font-family="monospace" font-size="13" font-weight="600" fill="#0f172a">B</text><rect x="446" y="66" width="160" height="38" rx="4" ry="4" fill="#ffffff" stroke="#1e293b" stroke-width="1.5"/><rect x="446" y="66" width="160" height="30" rx="4" ry="4" fill="#dbeafe" stroke="#1e293b" stroke-width="1.5"/><line x1="446" y1="96" x2="606" y2="96" stroke="#1e293b" stroke-width="1"/><text x="526" y="87" text-anchor="middle" font-family="monospace" font-size="13" font-weight="600" fill="#0f172a">C</text><rect x="446" y="206" width="160" height="38" rx="4" ry="4" fill="#ffffff" stroke="#1e293b" stroke-width="1.5"/><rect x="446" y="206" width="160" height="30" rx="4" ry="4" fill="#dbeafe" stroke="#1e293b" stroke-width="1.5"/><line x1="446" y1="236" x2="606" y2="236" stroke="#1e293b" stroke-width="1"/><text x="526" y="227" text-anchor="middle" font-family="monospace" font-size="13" font-weight="600" fill="#0f172a">D</text><rect x="826" y="66" width="160" height="38" rx="4" ry="4" fill="#ffffff" stroke="#1e293b" stroke-width="1.5"/><rect x="826" y="66" width="160" height="30" rx="4" ry="4" fill="#dbeafe" stroke="#1e293b" stroke-width="1.5"/><line x1="826" y1="96" x2="986" y2="96" stroke="#1e293b" stroke-width="1"/><text x="906" y="87" text-anchor="middle" font-family="monospace" font-size="13" font-weight="600" fill="#0f172a">E</text><rect x="826" y="206" width="160" height="38" rx="4" ry="4" fill="#ffffff" stroke="#1e293b" stroke-width="1.5"/><rect x="826" y="206" width="160" height="30" rx="4" ry="4" fill="#dbeafe" stroke="#1e293b" stroke-width="1.5"/><line x1="826" y1="236" x2="986" y2="236" stroke="#1e293b" stroke-width="1"/><text x="906" y="227" text-anchor="middle" font-family="monospace" font-size="13" font-weight="600" fill="#0f172a">F</text></svg>