<svg xmlns="http://www.w3.org/2000/svg" width="760" height="342" viewBox="0 0 760 342"><rect width="100%" height="100%" fill="white"/><defs><marker id="arrow-open" viewBox="0 0 10 10" refX="9" refY="5" markerWidth="10" markerHeight="10" orient="auto-start-reverse"><path d="M0,0 L10,5 L0,10" fill="none" stroke="#1e293b" stroke-width="1.5"/></marker><marker id="arrow-triangle" viewBox="0 0 12 12" refX="11" refY="6" markerWidth="12" markerHeight="12" orient="auto-start-reverse"><path d="M0,0 L12,6 L0,12 z" fill="white" stroke="#1e293b" stroke-width="1.5"/></marker><marker id="arrow-diamond-filled" viewBox="0 0 14 10" refX="13" refY="5" markerWidth="14" markerHeight="10" orient="auto-start-reverse"><path d="M0,5 L7,0 L14,5 L7,10 z" fill="#1e293b" stroke="#1e293b" stroke-width="1"/></marker><marker id="arrow-diamond-open" viewBox="0 0 14 10" refX="13" refY="5" markerWidth="14" markerHeight="10" orient="auto-start-reverse"><path d="M0,5 L7,0 L14,5 L7,10 z" fill="white" stroke="#1e293b" stroke-width="1"/></marker></defs><text x="32" y="32" font-family="monospace" font-size="18" font-weight="600" fill="#0f172a">Abstract and Interface Pattern</text><line x1="132" y1="144" x2="132" y2="208" stroke="#1e293b" stroke-width="1.5" marker-start="url(#arrow-triangle)"/><line x1="332" y1="128" x2="205" y2="208" stroke="#1e293b" stroke-width="1.5" marker-start="url(#arrow-triangle)"/><line x1="531" y1="128" x2="232" y2="224" stroke="#1e293b" stroke-width="1.5" marker-start="url(#arrow-triangle)"/><rect x="32" y="66" width="200" height="78" rx="4" ry="4" fill="#ffffff" stroke="#1e293b" stroke-width="1.5"/><rect x="32" y="66" width="200" height="30" rx="4" ry="4" fill="#dbeafe" stroke="#1e293b" stroke-width="1.5"/><line x1="32" y1="96" x2="232" y2="96" stroke="#1e293b" stroke-width="1"/><text x="132" y="87" text-anchor="middle" font-family="monospace" font-size="13" font-weight="600" fill="#0f172a">Shape</text><text x="42" y="112" font-family="monospace" font-size="11" fill="#16a34a">+area(): double</text><text x="42" y="128" font-family="monospace" font-size="11" fill="#16a34a">+perimeter(): double</text><rect x="280" y="66" width="200" height="62" rx="4" ry="4" fill="#ffffff" stroke="#1e293b" stroke-width="1.5"/><rect x="280" y="66" width="200" height="30" rx="4" ry="4" fill="#dbeafe" stroke="#1e293b" stroke-width="1.5"/><line x1="280" y1="96" x2="480" y2="96" stroke="#1e293b" stroke-width="1"/><text x="380" y="87" text-anchor="middle" font-family="monospace" font-size="13" font-weight="600" fill="#0f172a">Drawable</text><text x="290" y="112" font-family="monospace" font-size="11" fill="#16a34a">+draw(): void</text><rect x="528" y="66" width="200" height="62" rx="4" ry="4" fill="#ffffff" stroke="#1e293b" stroke-width="1.5"/><rect x="528" y="66" width="200" height="30" rx="4" ry="4" fill="#dbeafe" stroke="#1e293b" stroke-width="1.5"/><line x1="528" y1="96" x2="728" y2="96" stroke="#1e293b" stroke-width="1"/><text x="628" y="87" text-anchor="middle" font-family="monospace" font-size="13" font-weight="600" fill="#0f172a">Resizable</text><text x="538" y="112" font-family="monospace" font-size="11" fill="#16a34a">+resize(f: double): void</text><rect x="32" y="208" width="200" height="94" rx="4" ry="4" fill="#ffffff" stroke="#1e293b" stroke-width="1.5"/><rect x="32" y="208" width="200" height="30" rx="4" ry="4" fill="#dbeafe" stroke="#1e293b" stroke-width="1.5"/><line x1="32" y1="238" x2="232" y2="238" stroke="#1e293b" stroke-width="1"/><text x="132" y="229" text-anchor="middle" font-family="monospace" font-size="13" font-weight="600" fill="#0f172a">Circle</text><text x="42" y="254" font-family="monospace" font-size="11" fill="#dc2626">-radius: double</text><text x="42" y="270" font-family="monospace" font-size="11" fill="#16a34a">+area(): double</text><text x="42" y="286" font-family="monospace" font-size="11" fill="#16a34a">+perimeter(): double</text></svg>