<svg xmlns="http://www.w3.org/2000/svg" width="754" height="374" viewBox="0 0 754 374" data-orientation="TopToBottom"><rect width="100%" height="100%" fill="#ffffff"/><defs><marker id="arrow-open" viewBox="0 0 10 10" refX="9" refY="5" markerWidth="10" markerHeight="10" markerUnits="userSpaceOnUse" orient="auto-start-reverse"><path d="M0,0 L10,5 L0,10" fill="none" stroke="#1e293b" stroke-width="1.5"/></marker><marker id="arrow-triangle" viewBox="0 0 16 16" refX="15" refY="8" markerWidth="16" markerHeight="16" markerUnits="userSpaceOnUse" orient="auto-start-reverse"><polygon points="0,1 14,8 0,15" fill="#ffffff" stroke="#1e293b" stroke-width="1.5" fill-rule="nonzero"/></marker><marker id="arrow-diamond-filled" viewBox="0 0 14 10" refX="13" refY="5" markerWidth="14" markerHeight="10" markerUnits="userSpaceOnUse" orient="auto-start-reverse"><path d="M0,5 L7,0 L14,5 L7,10 z" fill="#1e293b" stroke="#1e293b" stroke-width="1"/></marker><marker id="arrow-diamond-open" viewBox="0 0 14 10" refX="13" refY="5" markerWidth="14" markerHeight="10" markerUnits="userSpaceOnUse" orient="auto-start-reverse"><path d="M0,5 L7,0 L14,5 L7,10 z" fill="#ffffff" stroke="#1e293b" stroke-width="1"/></marker></defs><defs><marker id="arrow-triangle-filled" viewBox="0 0 12 12" refX="11" refY="6" markerWidth="12" markerHeight="12" markerUnits="userSpaceOnUse" orient="auto-start-reverse"><polygon points="0,0 12,6 0,12" fill="#1e293b" stroke="#1e293b" stroke-width="1.5"/></marker><marker id="arrow-box-filled" viewBox="0 0 12 12" refX="11" refY="6" markerWidth="12" markerHeight="12" markerUnits="userSpaceOnUse" orient="auto-start-reverse"><rect x="2" y="2" width="8" height="8" fill="#1e293b" stroke="#1e293b" stroke-width="1.5"/></marker><marker id="arrow-plus" viewBox="0 0 12 12" refX="11" refY="6" markerWidth="12" markerHeight="12" markerUnits="userSpaceOnUse" orient="auto-start-reverse"><path d="M6,1 L6,11 M1,6 L11,6" fill="none" stroke="#1e293b" stroke-width="1.8" stroke-linecap="round"/></marker><marker id="arrow-cross" viewBox="0 0 12 12" refX="11" refY="6" markerWidth="12" markerHeight="12" markerUnits="userSpaceOnUse" orient="auto-start-reverse"><path d="M2,2 L10,10 M10,2 L2,10" fill="none" stroke="#1e293b" stroke-width="1.8" stroke-linecap="round"/></marker><marker id="arrow-bracket-open" viewBox="0 0 12 14" refX="11" refY="7" markerWidth="12" markerHeight="14" markerUnits="userSpaceOnUse" orient="auto-start-reverse"><path d="M10,1 L4,1 L4,13 L10,13" fill="none" stroke="#1e293b" stroke-width="1.8" stroke-linecap="round" stroke-linejoin="round"/></marker><marker id="arrow-circle-open" viewBox="0 0 12 12" refX="11" refY="6" markerWidth="12" markerHeight="12" markerUnits="userSpaceOnUse" orient="auto-start-reverse"><circle cx="6" cy="6" r="4" fill="#ffffff" stroke="#1e293b" stroke-width="1.5"/></marker><marker id="arrow-circle-filled" viewBox="0 0 12 12" refX="11" refY="6" markerWidth="12" markerHeight="12" markerUnits="userSpaceOnUse" orient="auto-start-reverse"><circle cx="6" cy="6" r="4" fill="#1e293b" stroke="#1e293b" stroke-width="1.5"/></marker><marker id="arrow-double-open" viewBox="0 0 16 12" refX="15" refY="6" markerWidth="16" markerHeight="12" markerUnits="userSpaceOnUse" orient="auto-start-reverse"><path d="M0,1 L8,6 L0,11 M7,1 L15,6 L7,11" fill="none" stroke="#1e293b" stroke-width="1.5" stroke-linejoin="round"/></marker></defs><text x="16" y="32" font-family="monospace" font-size="18" font-weight="600" fill="#0f172a">Abstract and Interface Pattern</text><polyline class="uml-relation" data-uml-from="Shape" data-uml-to="Circle" data-uml-arrow="&lt;|--" points="530,112 530,188 490,188 490,245" fill="none" stroke="#1e293b" stroke-width="2" marker-start="url(#arrow-triangle)" /><polyline class="uml-relation" data-uml-from="Drawable" data-uml-to="Circle" data-uml-arrow="&lt;|.." points="258,104 258,167 298,167 298,245" fill="none" stroke="#1e293b" stroke-width="2" stroke-dasharray="5 3" marker-start="url(#arrow-triangle)" /><polyline class="uml-relation" data-uml-from="Resizable" data-uml-to="Circle" data-uml-arrow="&lt;|.." points="394,142 394,170 394,198" fill="none" stroke="#1e293b" stroke-width="2" stroke-dasharray="5 3" marker-start="url(#arrow-triangle)" /><rect class="uml-node uml-class" data-uml-id="Shape" x="530" y="66" width="192" height="92" rx="4" ry="4" fill="#ffffff" stroke="#1e293b" stroke-width="1.5"/><rect x="530" y="66" width="192" height="44" rx="4" ry="4" fill="#f0e6ff" stroke="#1e293b" stroke-width="1.5"/><line x1="530" y1="110" x2="722" y2="110" stroke="#1e293b" stroke-width="1"/><text x="626" y="79" text-anchor="middle" font-family="monospace" font-size="10" fill="#0f172a">«abstract»</text><circle class="uml-class-badge" cx="542" cy="97" r="8" fill="#A2D5A2" stroke="#2E7D32" stroke-width="1"/><text class="uml-class-badge-letter" x="542" y="100" text-anchor="middle" font-family="monospace" font-size="9" font-weight="700" fill="#2E7D32">A</text><text x="626" y="101" text-anchor="middle" font-family="monospace" font-size="13" font-weight="600" fill="#0f172a" font-style="italic">Shape</text><circle class="uml-vis-glyph" cx="544" cy="121" r="4" fill="#16a34a" stroke="#16a34a" stroke-width="1"/><text class="uml-member" data-uml-visibility="public" data-uml-modifier="abstract" x="554" y="126" font-family="monospace" font-size="11" fill="#16a34a" font-style="italic">area(): double</text><circle class="uml-vis-glyph" cx="544" cy="137" r="4" fill="#16a34a" stroke="#16a34a" stroke-width="1"/><text class="uml-member" data-uml-visibility="public" data-uml-modifier="abstract" x="554" y="142" font-family="monospace" font-size="11" fill="#16a34a" font-style="italic">perimeter(): double</text><rect class="uml-node uml-class" data-uml-id="Drawable" x="66" y="66" width="192" height="76" rx="4" ry="4" fill="#ffffff" stroke="#1e293b" stroke-width="1.5"/><rect x="66" y="66" width="192" height="44" rx="4" ry="4" fill="#dae8fc" stroke="#1e293b" stroke-width="1.5"/><line x1="66" y1="110" x2="258" y2="110" stroke="#1e293b" stroke-width="1"/><text x="162" y="79" text-anchor="middle" font-family="monospace" font-size="10" fill="#0f172a">«interface»</text><circle class="uml-class-badge" cx="78" cy="97" r="8" fill="#90CAF9" stroke="#1565C0" stroke-width="1"/><text class="uml-class-badge-letter" x="78" y="100" text-anchor="middle" font-family="monospace" font-size="9" font-weight="700" fill="#1565C0">I</text><text x="162" y="101" text-anchor="middle" font-family="monospace" font-size="13" font-weight="600" fill="#0f172a" font-style="italic">Drawable</text><circle class="uml-vis-glyph" cx="80" cy="121" r="4" fill="#16a34a" stroke="#16a34a" stroke-width="1"/><text class="uml-member" data-uml-visibility="public" x="90" y="126" font-family="monospace" font-size="11" fill="#16a34a" font-style="italic">draw(): void</text><rect class="uml-node uml-class" data-uml-id="Resizable" x="298" y="66" width="192" height="76" rx="4" ry="4" fill="#ffffff" stroke="#1e293b" stroke-width="1.5"/><rect x="298" y="66" width="192" height="44" rx="4" ry="4" fill="#dae8fc" stroke="#1e293b" stroke-width="1.5"/><line x1="298" y1="110" x2="490" y2="110" stroke="#1e293b" stroke-width="1"/><text x="394" y="79" text-anchor="middle" font-family="monospace" font-size="10" fill="#0f172a">«interface»</text><circle class="uml-class-badge" cx="310" cy="97" r="8" fill="#90CAF9" stroke="#1565C0" stroke-width="1"/><text class="uml-class-badge-letter" x="310" y="100" text-anchor="middle" font-family="monospace" font-size="9" font-weight="700" fill="#1565C0">I</text><text x="394" y="101" text-anchor="middle" font-family="monospace" font-size="13" font-weight="600" fill="#0f172a" font-style="italic">Resizable</text><circle class="uml-vis-glyph" cx="312" cy="121" r="4" fill="#16a34a" stroke="#16a34a" stroke-width="1"/><text class="uml-member" data-uml-visibility="public" x="322" y="126" font-family="monospace" font-size="11" fill="#16a34a" font-style="italic">resize(f: double): void</text><rect class="uml-node uml-class" data-uml-id="Circle" x="298" y="198" width="192" height="94" rx="4" ry="4" fill="#ffffff" stroke="#1e293b" stroke-width="1.5"/><rect x="298" y="198" width="192" height="30" rx="4" ry="4" fill="#dbeafe" stroke="#1e293b" stroke-width="1.5"/><line x1="298" y1="228" x2="490" y2="228" stroke="#1e293b" stroke-width="1"/><circle class="uml-class-badge" cx="310" cy="215" r="8" fill="#A2D5A2" stroke="#2E7D32" stroke-width="1"/><text class="uml-class-badge-letter" x="310" y="218" text-anchor="middle" font-family="monospace" font-size="9" font-weight="700" fill="#2E7D32">C</text><text x="394" y="219" text-anchor="middle" font-family="monospace" font-size="13" font-weight="600" fill="#0f172a">Circle</text><polygon class="uml-vis-glyph" points="312,234 316,239 312,244 308,239" fill="#dc2626" stroke="#dc2626" stroke-width="0.5"/><text class="uml-member" data-uml-visibility="private" x="322" y="244" font-family="monospace" font-size="11" fill="#dc2626">radius: double</text><line x1="298" y1="252" x2="490" y2="252" stroke="#1e293b" stroke-width="1"/><circle class="uml-vis-glyph" cx="312" cy="255" r="4" fill="#16a34a" stroke="#16a34a" stroke-width="1"/><text class="uml-member" data-uml-visibility="public" x="322" y="260" font-family="monospace" font-size="11" fill="#16a34a">area(): double</text><circle class="uml-vis-glyph" cx="312" cy="271" r="4" fill="#16a34a" stroke="#16a34a" stroke-width="1"/><text class="uml-member" data-uml-visibility="public" x="322" y="276" font-family="monospace" font-size="11" fill="#16a34a">perimeter(): double</text></svg>