<svg xmlns="http://www.w3.org/2000/svg" width="812" height="342" viewBox="0 0 812 342"><rect width="100%" height="100%" fill="#ffffff"/><defs><marker id="arrow-open" viewBox="0 0 10 10" refX="9" refY="5" markerWidth="10" markerHeight="10" markerUnits="userSpaceOnUse" orient="auto-start-reverse"><path d="M0,0 L10,5 L0,10" fill="none" stroke="#1e293b" stroke-width="1.5"/></marker><marker id="arrow-triangle" viewBox="0 0 16 16" refX="15" refY="8" markerWidth="16" markerHeight="16" markerUnits="userSpaceOnUse" orient="auto-start-reverse"><polygon points="0,1 14,8 0,15" fill="#ffffff" stroke="#1e293b" stroke-width="1.5" fill-rule="nonzero"/></marker><marker id="arrow-diamond-filled" viewBox="0 0 14 10" refX="13" refY="5" markerWidth="14" markerHeight="10" markerUnits="userSpaceOnUse" orient="auto-start-reverse"><path d="M0,5 L7,0 L14,5 L7,10 z" fill="#1e293b" stroke="#1e293b" stroke-width="1"/></marker><marker id="arrow-diamond-open" viewBox="0 0 14 10" refX="13" refY="5" markerWidth="14" markerHeight="10" markerUnits="userSpaceOnUse" orient="auto-start-reverse"><path d="M0,5 L7,0 L14,5 L7,10 z" fill="#ffffff" stroke="#1e293b" stroke-width="1"/></marker></defs><text x="32" y="32" font-family="monospace" font-size="18" font-weight="600" fill="#0f172a">Abstract and Interface Pattern</text><line class="uml-relation" data-uml-from="Shape" data-uml-to="Circle" x1="130" y1="144" x2="130" y2="208" stroke="#1e293b" stroke-width="2" marker-start="url(#arrow-triangle)"/><line class="uml-relation" data-uml-from="Drawable" data-uml-to="Circle" x1="308" y1="97" x2="228" y2="255" stroke="#1e293b" stroke-width="2" marker-start="url(#arrow-triangle)"/><line class="uml-relation" data-uml-from="Resizable" data-uml-to="Circle" x1="584" y1="97" x2="228" y2="255" stroke="#1e293b" stroke-width="2" marker-start="url(#arrow-triangle)"/><rect x="32" y="66" width="196" height="78" rx="4" ry="4" fill="#ffffff" stroke="#1e293b" stroke-width="1.5"/><rect x="32" y="66" width="196" height="30" rx="4" ry="4" fill="#dbeafe" stroke="#1e293b" stroke-width="1.5"/><line x1="32" y1="96" x2="228" y2="96" stroke="#1e293b" stroke-width="1"/><text x="130" y="87" text-anchor="middle" font-family="monospace" font-size="13" font-weight="600" fill="#0f172a">Shape</text><text class="uml-member" data-uml-visibility="public" x="42" y="112" font-family="monospace" font-size="11" fill="#16a34a">+area(): double</text><text class="uml-member" data-uml-visibility="public" x="42" y="128" font-family="monospace" font-size="11" fill="#16a34a">+perimeter(): double</text><rect x="308" y="66" width="196" height="62" rx="4" ry="4" fill="#ffffff" stroke="#1e293b" stroke-width="1.5"/><rect x="308" y="66" width="196" height="30" rx="4" ry="4" fill="#dbeafe" stroke="#1e293b" stroke-width="1.5"/><line x1="308" y1="96" x2="504" y2="96" stroke="#1e293b" stroke-width="1"/><text x="406" y="87" text-anchor="middle" font-family="monospace" font-size="13" font-weight="600" fill="#0f172a">Drawable</text><text class="uml-member" data-uml-visibility="public" x="318" y="112" font-family="monospace" font-size="11" fill="#16a34a">+draw(): void</text><rect x="584" y="66" width="196" height="62" rx="4" ry="4" fill="#ffffff" stroke="#1e293b" stroke-width="1.5"/><rect x="584" y="66" width="196" height="30" rx="4" ry="4" fill="#dbeafe" stroke="#1e293b" stroke-width="1.5"/><line x1="584" y1="96" x2="780" y2="96" stroke="#1e293b" stroke-width="1"/><text x="682" y="87" text-anchor="middle" font-family="monospace" font-size="13" font-weight="600" fill="#0f172a">Resizable</text><text class="uml-member" data-uml-visibility="public" x="594" y="112" font-family="monospace" font-size="11" fill="#16a34a">+resize(f: double): void</text><rect x="32" y="208" width="196" height="94" rx="4" ry="4" fill="#ffffff" stroke="#1e293b" stroke-width="1.5"/><rect x="32" y="208" width="196" height="30" rx="4" ry="4" fill="#dbeafe" stroke="#1e293b" stroke-width="1.5"/><line x1="32" y1="238" x2="228" y2="238" stroke="#1e293b" stroke-width="1"/><text x="130" y="229" text-anchor="middle" font-family="monospace" font-size="13" font-weight="600" fill="#0f172a">Circle</text><text class="uml-member" data-uml-visibility="private" x="42" y="254" font-family="monospace" font-size="11" fill="#dc2626">-radius: double</text><line x1="32" y1="262" x2="228" y2="262" stroke="#1e293b" stroke-width="1"/><text class="uml-member" data-uml-visibility="public" x="42" y="270" font-family="monospace" font-size="11" fill="#16a34a">+area(): double</text><text class="uml-member" data-uml-visibility="public" x="42" y="286" font-family="monospace" font-size="11" fill="#16a34a">+perimeter(): double</text></svg>