<svg xmlns="http://www.w3.org/2000/svg" width="850" height="516" viewBox="0 0 850 516"><rect width="100%" height="100%" fill="#ffffff"/><defs><marker id="arrow-open" viewBox="0 0 10 10" refX="9" refY="5" markerWidth="10" markerHeight="10" markerUnits="userSpaceOnUse" orient="auto-start-reverse"><path d="M0,0 L10,5 L0,10" fill="none" stroke="#1e293b" stroke-width="1.5"/></marker><marker id="arrow-triangle" viewBox="0 0 16 16" refX="15" refY="8" markerWidth="16" markerHeight="16" markerUnits="userSpaceOnUse" orient="auto-start-reverse"><polygon points="0,1 14,8 0,15" fill="#ffffff" stroke="#1e293b" stroke-width="1.5" fill-rule="nonzero"/></marker><marker id="arrow-diamond-filled" viewBox="0 0 14 10" refX="13" refY="5" markerWidth="14" markerHeight="10" markerUnits="userSpaceOnUse" orient="auto-start-reverse"><path d="M0,5 L7,0 L14,5 L7,10 z" fill="#1e293b" stroke="#1e293b" stroke-width="1"/></marker><marker id="arrow-diamond-open" viewBox="0 0 14 10" refX="13" refY="5" markerWidth="14" markerHeight="10" markerUnits="userSpaceOnUse" orient="auto-start-reverse"><path d="M0,5 L7,0 L14,5 L7,10 z" fill="#ffffff" stroke="#1e293b" stroke-width="1"/></marker></defs><text x="32" y="32" font-family="monospace" font-size="18" font-weight="600" fill="#0f172a">Abstract and Interface Pattern</text><polyline class="uml-relation" data-uml-from="Shape" data-uml-to="Circle" data-uml-arrow="&lt;|--" points="610,112 610,245 530,245 530,363" fill="none" stroke="#1e293b" stroke-width="2" marker-start="url(#arrow-triangle)" /><polyline class="uml-relation" data-uml-from="Drawable" data-uml-to="Circle" data-uml-arrow="&lt;|.." points="258,104 258,229 338,229 338,363" fill="none" stroke="#1e293b" stroke-width="2" stroke-dasharray="5 3" marker-start="url(#arrow-triangle)" /><polyline class="uml-relation" data-uml-from="Resizable" data-uml-to="Circle" data-uml-arrow="&lt;|.." points="434,142 434,229 434,316" fill="none" stroke="#1e293b" stroke-width="2" stroke-dasharray="5 3" marker-start="url(#arrow-triangle)" /><rect x="610" y="66" width="192" height="92" rx="4" ry="4" fill="#ffffff" stroke="#1e293b" stroke-width="1.5"/><rect x="610" y="66" width="192" height="44" rx="4" ry="4" fill="#f0e6ff" stroke="#1e293b" stroke-width="1.5"/><line x1="610" y1="110" x2="802" y2="110" stroke="#1e293b" stroke-width="1"/><text x="706" y="79" text-anchor="middle" font-family="monospace" font-size="10" fill="#0f172a">«abstract»</text><text x="706" y="101" text-anchor="middle" font-family="monospace" font-size="13" font-weight="600" fill="#0f172a" font-style="italic">Shape</text><text class="uml-member" data-uml-visibility="public" data-uml-modifier="abstract" x="620" y="126" font-family="monospace" font-size="11" fill="#16a34a" font-style="italic">+area(): double</text><text class="uml-member" data-uml-visibility="public" data-uml-modifier="abstract" x="620" y="142" font-family="monospace" font-size="11" fill="#16a34a" font-style="italic">+perimeter(): double</text><rect x="66" y="66" width="192" height="76" rx="4" ry="4" fill="#ffffff" stroke="#1e293b" stroke-width="1.5"/><rect x="66" y="66" width="192" height="44" rx="4" ry="4" fill="#dae8fc" stroke="#1e293b" stroke-width="1.5"/><line x1="66" y1="110" x2="258" y2="110" stroke="#1e293b" stroke-width="1"/><text x="162" y="79" text-anchor="middle" font-family="monospace" font-size="10" fill="#0f172a">«interface»</text><text x="162" y="101" text-anchor="middle" font-family="monospace" font-size="13" font-weight="600" fill="#0f172a" font-style="italic">Drawable</text><text class="uml-member" data-uml-visibility="public" x="76" y="126" font-family="monospace" font-size="11" fill="#16a34a" font-style="italic">+draw(): void</text><rect x="338" y="66" width="192" height="76" rx="4" ry="4" fill="#ffffff" stroke="#1e293b" stroke-width="1.5"/><rect x="338" y="66" width="192" height="44" rx="4" ry="4" fill="#dae8fc" stroke="#1e293b" stroke-width="1.5"/><line x1="338" y1="110" x2="530" y2="110" stroke="#1e293b" stroke-width="1"/><text x="434" y="79" text-anchor="middle" font-family="monospace" font-size="10" fill="#0f172a">«interface»</text><text x="434" y="101" text-anchor="middle" font-family="monospace" font-size="13" font-weight="600" fill="#0f172a" font-style="italic">Resizable</text><text class="uml-member" data-uml-visibility="public" x="348" y="126" font-family="monospace" font-size="11" fill="#16a34a" font-style="italic">+resize(f: double): void</text><rect x="338" y="316" width="192" height="94" rx="4" ry="4" fill="#ffffff" stroke="#1e293b" stroke-width="1.5"/><rect x="338" y="316" width="192" height="30" rx="4" ry="4" fill="#dbeafe" stroke="#1e293b" stroke-width="1.5"/><line x1="338" y1="346" x2="530" y2="346" stroke="#1e293b" stroke-width="1"/><text x="434" y="337" text-anchor="middle" font-family="monospace" font-size="13" font-weight="600" fill="#0f172a">Circle</text><text class="uml-member" data-uml-visibility="private" x="348" y="362" font-family="monospace" font-size="11" fill="#dc2626">-radius: double</text><line x1="338" y1="370" x2="530" y2="370" stroke="#1e293b" stroke-width="1"/><text class="uml-member" data-uml-visibility="public" x="348" y="378" font-family="monospace" font-size="11" fill="#16a34a">+area(): double</text><text class="uml-member" data-uml-visibility="public" x="348" y="394" font-family="monospace" font-size="11" fill="#16a34a">+perimeter(): double</text></svg>