<svg xmlns="http://www.w3.org/2000/svg" width="912" height="502" viewBox="0 0 912 502"><rect width="100%" height="100%" fill="#ffffff"/><defs><marker id="arrow-open" viewBox="0 0 10 10" refX="9" refY="5" markerWidth="10" markerHeight="10" markerUnits="userSpaceOnUse" orient="auto-start-reverse"><path d="M0,0 L10,5 L0,10" fill="none" stroke="#1e293b" stroke-width="1.5"/></marker><marker id="arrow-triangle" viewBox="0 0 16 16" refX="15" refY="8" markerWidth="16" markerHeight="16" markerUnits="userSpaceOnUse" orient="auto-start-reverse"><polygon points="0,1 14,8 0,15" fill="#ffffff" stroke="#1e293b" stroke-width="1.5" fill-rule="nonzero"/></marker><marker id="arrow-diamond-filled" viewBox="0 0 14 10" refX="13" refY="5" markerWidth="14" markerHeight="10" markerUnits="userSpaceOnUse" orient="auto-start-reverse"><path d="M0,5 L7,0 L14,5 L7,10 z" fill="#1e293b" stroke="#1e293b" stroke-width="1"/></marker><marker id="arrow-diamond-open" viewBox="0 0 14 10" refX="13" refY="5" markerWidth="14" markerHeight="10" markerUnits="userSpaceOnUse" orient="auto-start-reverse"><path d="M0,5 L7,0 L14,5 L7,10 z" fill="#ffffff" stroke="#1e293b" stroke-width="1"/></marker></defs><text x="32" y="32" font-family="monospace" font-size="18" font-weight="600" fill="#0f172a">Abstract and Interface Pattern</text><polyline class="uml-relation" data-uml-from="Shape" data-uml-to="Circle" data-uml-arrow="&lt;|--" points="716,144 716,227 440,227 440,302" fill="none" stroke="#1e293b" stroke-width="2" marker-start="url(#arrow-triangle)" /><polyline class="uml-relation" data-uml-from="Drawable" data-uml-to="Circle" data-uml-arrow="&lt;|--" points="164,128 164,211 440,211 440,302" fill="none" stroke="#1e293b" stroke-width="2" marker-start="url(#arrow-triangle)" /><polyline class="uml-relation" data-uml-from="Resizable" data-uml-to="Circle" data-uml-arrow="&lt;|--" points="440,128 440,219 440,302" fill="none" stroke="#1e293b" stroke-width="2" marker-start="url(#arrow-triangle)" /><rect x="618" y="66" width="196" height="78" rx="4" ry="4" fill="#ffffff" stroke="#1e293b" stroke-width="1.5"/><rect x="618" y="66" width="196" height="30" rx="4" ry="4" fill="#dbeafe" stroke="#1e293b" stroke-width="1.5"/><line x1="618" y1="96" x2="814" y2="96" stroke="#1e293b" stroke-width="1"/><text x="716" y="87" text-anchor="middle" font-family="monospace" font-size="13" font-weight="600" fill="#0f172a">Shape</text><text class="uml-member" data-uml-visibility="public" x="628" y="112" font-family="monospace" font-size="11" fill="#16a34a">+area(): double</text><text class="uml-member" data-uml-visibility="public" x="628" y="128" font-family="monospace" font-size="11" fill="#16a34a">+perimeter(): double</text><rect x="66" y="66" width="196" height="62" rx="4" ry="4" fill="#ffffff" stroke="#1e293b" stroke-width="1.5"/><rect x="66" y="66" width="196" height="30" rx="4" ry="4" fill="#dbeafe" stroke="#1e293b" stroke-width="1.5"/><line x1="66" y1="96" x2="262" y2="96" stroke="#1e293b" stroke-width="1"/><text x="164" y="87" text-anchor="middle" font-family="monospace" font-size="13" font-weight="600" fill="#0f172a">Drawable</text><text class="uml-member" data-uml-visibility="public" x="76" y="112" font-family="monospace" font-size="11" fill="#16a34a">+draw(): void</text><rect x="342" y="66" width="196" height="62" rx="4" ry="4" fill="#ffffff" stroke="#1e293b" stroke-width="1.5"/><rect x="342" y="66" width="196" height="30" rx="4" ry="4" fill="#dbeafe" stroke="#1e293b" stroke-width="1.5"/><line x1="342" y1="96" x2="538" y2="96" stroke="#1e293b" stroke-width="1"/><text x="440" y="87" text-anchor="middle" font-family="monospace" font-size="13" font-weight="600" fill="#0f172a">Resizable</text><text class="uml-member" data-uml-visibility="public" x="352" y="112" font-family="monospace" font-size="11" fill="#16a34a">+resize(f: double): void</text><rect x="342" y="302" width="196" height="94" rx="4" ry="4" fill="#ffffff" stroke="#1e293b" stroke-width="1.5"/><rect x="342" y="302" width="196" height="30" rx="4" ry="4" fill="#dbeafe" stroke="#1e293b" stroke-width="1.5"/><line x1="342" y1="332" x2="538" y2="332" stroke="#1e293b" stroke-width="1"/><text x="440" y="323" text-anchor="middle" font-family="monospace" font-size="13" font-weight="600" fill="#0f172a">Circle</text><text class="uml-member" data-uml-visibility="private" x="352" y="348" font-family="monospace" font-size="11" fill="#dc2626">-radius: double</text><line x1="342" y1="356" x2="538" y2="356" stroke="#1e293b" stroke-width="1"/><text class="uml-member" data-uml-visibility="public" x="352" y="364" font-family="monospace" font-size="11" fill="#16a34a">+area(): double</text><text class="uml-member" data-uml-visibility="public" x="352" y="380" font-family="monospace" font-size="11" fill="#16a34a">+perimeter(): double</text></svg>