<svg xmlns="http://www.w3.org/2000/svg" width="760" height="372" viewBox="0 0 760 372"><rect width="100%" height="100%" fill="#ffffff"/><defs><marker id="arrow-open" viewBox="0 0 10 10" refX="9" refY="5" markerWidth="10" markerHeight="10" markerUnits="userSpaceOnUse" orient="auto-start-reverse"><path d="M0,0 L10,5 L0,10" fill="none" stroke="#1e293b" stroke-width="1.5"/></marker><marker id="arrow-triangle" viewBox="0 0 12 12" refX="11" refY="6" markerWidth="12" markerHeight="12" markerUnits="userSpaceOnUse" orient="auto-start-reverse"><polygon points="0,0 12,6 0,12" fill="#ffffff" stroke="#1e293b" stroke-width="1.5" fill-rule="nonzero"/></marker><marker id="arrow-diamond-filled" viewBox="0 0 14 10" refX="13" refY="5" markerWidth="14" markerHeight="10" markerUnits="userSpaceOnUse" orient="auto-start-reverse"><path d="M0,5 L7,0 L14,5 L7,10 z" fill="#1e293b" stroke="#1e293b" stroke-width="1"/></marker><marker id="arrow-diamond-open" viewBox="0 0 14 10" refX="13" refY="5" markerWidth="14" markerHeight="10" markerUnits="userSpaceOnUse" orient="auto-start-reverse"><path d="M0,5 L7,0 L14,5 L7,10 z" fill="#ffffff" stroke="#1e293b" stroke-width="1"/></marker></defs><text x="32" y="32" font-family="monospace" font-size="18" font-weight="600" fill="#0f172a">Package Structure</text><rect class="uml-group-frame" data-uml-group="domain" x="20" y="58" width="720" height="82" rx="6" ry="6" fill="none" stroke="#6366f1" stroke-width="1.5" stroke-dasharray="5 3"/><text x="28" y="72" font-family="monospace" font-size="11" font-weight="600" fill="#4338ca">package domain</text><rect class="uml-group-frame" data-uml-group="repository" x="20" y="160" width="720" height="184" rx="6" ry="6" fill="none" stroke="#6366f1" stroke-width="1.5" stroke-dasharray="5 3"/><text x="28" y="174" font-family="monospace" font-size="11" font-weight="600" fill="#4338ca">package repository</text><rect class="uml-group-frame" data-uml-group="service" x="20" y="160" width="472" height="82" rx="6" ry="6" fill="none" stroke="#6366f1" stroke-width="1.5" stroke-dasharray="5 3"/><text x="28" y="174" font-family="monospace" font-size="11" font-weight="600" fill="#4338ca">package service</text><rect x="32" y="90" width="200" height="38" rx="4" ry="4" fill="#ffffff" stroke="#1e293b" stroke-width="1.5"/><rect x="32" y="90" width="200" height="30" rx="4" ry="4" fill="#dbeafe" stroke="#1e293b" stroke-width="1.5"/><line x1="32" y1="120" x2="232" y2="120" stroke="#1e293b" stroke-width="1"/><text x="132" y="111" text-anchor="middle" font-family="monospace" font-size="13" font-weight="600" fill="#0f172a">domain::User</text><rect x="280" y="90" width="200" height="38" rx="4" ry="4" fill="#ffffff" stroke="#1e293b" stroke-width="1.5"/><rect x="280" y="90" width="200" height="30" rx="4" ry="4" fill="#dbeafe" stroke="#1e293b" stroke-width="1.5"/><line x1="280" y1="120" x2="480" y2="120" stroke="#1e293b" stroke-width="1"/><text x="380" y="111" text-anchor="middle" font-family="monospace" font-size="13" font-weight="600" fill="#0f172a">domain::Product</text><rect x="528" y="90" width="200" height="38" rx="4" ry="4" fill="#ffffff" stroke="#1e293b" stroke-width="1.5"/><rect x="528" y="90" width="200" height="30" rx="4" ry="4" fill="#dbeafe" stroke="#1e293b" stroke-width="1.5"/><line x1="528" y1="120" x2="728" y2="120" stroke="#1e293b" stroke-width="1"/><text x="628" y="111" text-anchor="middle" font-family="monospace" font-size="13" font-weight="600" fill="#0f172a">domain::Order</text><rect x="32" y="192" width="200" height="38" rx="4" ry="4" fill="#ffffff" stroke="#1e293b" stroke-width="1.5"/><rect x="32" y="192" width="200" height="30" rx="4" ry="4" fill="#dbeafe" stroke="#1e293b" stroke-width="1.5"/><line x1="32" y1="222" x2="232" y2="222" stroke="#1e293b" stroke-width="1"/><text x="132" y="213" text-anchor="middle" font-family="monospace" font-size="13" font-weight="600" fill="#0f172a">service::UserService</text><rect x="280" y="192" width="200" height="38" rx="4" ry="4" fill="#ffffff" stroke="#1e293b" stroke-width="1.5"/><rect x="280" y="192" width="200" height="30" rx="4" ry="4" fill="#dbeafe" stroke="#1e293b" stroke-width="1.5"/><line x1="280" y1="222" x2="480" y2="222" stroke="#1e293b" stroke-width="1"/><text x="380" y="213" text-anchor="middle" font-family="monospace" font-size="13" font-weight="600" fill="#0f172a">service::ProductService</text><rect x="528" y="192" width="200" height="38" rx="4" ry="4" fill="#ffffff" stroke="#1e293b" stroke-width="1.5"/><rect x="528" y="192" width="200" height="30" rx="4" ry="4" fill="#dbeafe" stroke="#1e293b" stroke-width="1.5"/><line x1="528" y1="222" x2="728" y2="222" stroke="#1e293b" stroke-width="1"/><text x="628" y="213" text-anchor="middle" font-family="monospace" font-size="13" font-weight="600" fill="#0f172a">repository::UserRepo</text><rect x="32" y="294" width="200" height="38" rx="4" ry="4" fill="#ffffff" stroke="#1e293b" stroke-width="1.5"/><rect x="32" y="294" width="200" height="30" rx="4" ry="4" fill="#dbeafe" stroke="#1e293b" stroke-width="1.5"/><line x1="32" y1="324" x2="232" y2="324" stroke="#1e293b" stroke-width="1"/><text x="132" y="315" text-anchor="middle" font-family="monospace" font-size="13" font-weight="600" fill="#0f172a">repository::ProductRepo</text></svg>