<svg xmlns="http://www.w3.org/2000/svg" width="2212" height="266" viewBox="0 0 2212 266"><rect width="100%" height="100%" fill="#ffffff"/><defs><marker id="arrow-open" viewBox="0 0 10 10" refX="9" refY="5" markerWidth="10" markerHeight="10" markerUnits="userSpaceOnUse" orient="auto-start-reverse"><path d="M0,0 L10,5 L0,10" fill="none" stroke="#1e293b" stroke-width="1.5"/></marker><marker id="arrow-triangle" viewBox="0 0 16 16" refX="15" refY="8" markerWidth="16" markerHeight="16" markerUnits="userSpaceOnUse" orient="auto-start-reverse"><polygon points="0,1 14,8 0,15" fill="#ffffff" stroke="#1e293b" stroke-width="1.5" fill-rule="nonzero"/></marker><marker id="arrow-diamond-filled" viewBox="0 0 14 10" refX="13" refY="5" markerWidth="14" markerHeight="10" markerUnits="userSpaceOnUse" orient="auto-start-reverse"><path d="M0,5 L7,0 L14,5 L7,10 z" fill="#1e293b" stroke="#1e293b" stroke-width="1"/></marker><marker id="arrow-diamond-open" viewBox="0 0 14 10" refX="13" refY="5" markerWidth="14" markerHeight="10" markerUnits="userSpaceOnUse" orient="auto-start-reverse"><path d="M0,5 L7,0 L14,5 L7,10 z" fill="#ffffff" stroke="#1e293b" stroke-width="1"/></marker></defs><text x="32" y="32" font-family="monospace" font-size="18" font-weight="600" fill="#0f172a">Package Structure</text><line class="uml-relation" data-uml-from="UserService" data-uml-to="User" x1="982" y1="113" x2="310" y2="113" stroke="#1e293b" stroke-width="2" marker-end="url(#arrow-open)"/><line class="uml-relation" data-uml-from="ProductService" data-uml-to="Product" x1="1278" y1="113" x2="606" y2="113" stroke="#1e293b" stroke-width="2" marker-end="url(#arrow-open)"/><line class="uml-relation" data-uml-from="UserRepo" data-uml-to="User" x1="1574" y1="113" x2="310" y2="113" stroke="#1e293b" stroke-width="2" marker-end="url(#arrow-open)"/><line class="uml-relation" data-uml-from="ProductRepo" data-uml-to="Product" x1="1870" y1="113" x2="606" y2="113" stroke="#1e293b" stroke-width="2" marker-end="url(#arrow-open)"/><rect class="uml-group-frame" data-uml-group="domain" x="78" y="50" width="840" height="98" rx="6" ry="6" fill="none" stroke="#6366f1" stroke-width="1.5" stroke-dasharray="5 3"/><text x="86" y="64" font-family="monospace" font-size="11" font-weight="600" fill="#4338ca">package domain</text><rect class="uml-group-frame" data-uml-group="repository" x="1558" y="50" width="544" height="98" rx="6" ry="6" fill="none" stroke="#6366f1" stroke-width="1.5" stroke-dasharray="5 3"/><text x="1566" y="64" font-family="monospace" font-size="11" font-weight="600" fill="#4338ca">package repository</text><rect class="uml-group-frame" data-uml-group="service" x="966" y="50" width="544" height="98" rx="6" ry="6" fill="none" stroke="#6366f1" stroke-width="1.5" stroke-dasharray="5 3"/><text x="974" y="64" font-family="monospace" font-size="11" font-weight="600" fill="#4338ca">package service</text><rect x="94" y="94" width="216" height="38" rx="4" ry="4" fill="#ffffff" stroke="#1e293b" stroke-width="1.5"/><rect x="94" y="94" width="216" height="30" rx="4" ry="4" fill="#dbeafe" stroke="#1e293b" stroke-width="1.5"/><line x1="94" y1="124" x2="310" y2="124" stroke="#1e293b" stroke-width="1"/><text x="202" y="115" text-anchor="middle" font-family="monospace" font-size="13" font-weight="600" fill="#0f172a">domain::User</text><rect x="390" y="94" width="216" height="38" rx="4" ry="4" fill="#ffffff" stroke="#1e293b" stroke-width="1.5"/><rect x="390" y="94" width="216" height="30" rx="4" ry="4" fill="#dbeafe" stroke="#1e293b" stroke-width="1.5"/><line x1="390" y1="124" x2="606" y2="124" stroke="#1e293b" stroke-width="1"/><text x="498" y="115" text-anchor="middle" font-family="monospace" font-size="13" font-weight="600" fill="#0f172a">domain::Product</text><rect x="686" y="94" width="216" height="38" rx="4" ry="4" fill="#ffffff" stroke="#1e293b" stroke-width="1.5"/><rect x="686" y="94" width="216" height="30" rx="4" ry="4" fill="#dbeafe" stroke="#1e293b" stroke-width="1.5"/><line x1="686" y1="124" x2="902" y2="124" stroke="#1e293b" stroke-width="1"/><text x="794" y="115" text-anchor="middle" font-family="monospace" font-size="13" font-weight="600" fill="#0f172a">domain::Order</text><rect x="982" y="94" width="216" height="38" rx="4" ry="4" fill="#ffffff" stroke="#1e293b" stroke-width="1.5"/><rect x="982" y="94" width="216" height="30" rx="4" ry="4" fill="#dbeafe" stroke="#1e293b" stroke-width="1.5"/><line x1="982" y1="124" x2="1198" y2="124" stroke="#1e293b" stroke-width="1"/><text x="1090" y="115" text-anchor="middle" font-family="monospace" font-size="13" font-weight="600" fill="#0f172a">service::UserService</text><rect x="1278" y="94" width="216" height="38" rx="4" ry="4" fill="#ffffff" stroke="#1e293b" stroke-width="1.5"/><rect x="1278" y="94" width="216" height="30" rx="4" ry="4" fill="#dbeafe" stroke="#1e293b" stroke-width="1.5"/><line x1="1278" y1="124" x2="1494" y2="124" stroke="#1e293b" stroke-width="1"/><text x="1386" y="115" text-anchor="middle" font-family="monospace" font-size="13" font-weight="600" fill="#0f172a">service::ProductService</text><rect x="1574" y="94" width="216" height="38" rx="4" ry="4" fill="#ffffff" stroke="#1e293b" stroke-width="1.5"/><rect x="1574" y="94" width="216" height="30" rx="4" ry="4" fill="#dbeafe" stroke="#1e293b" stroke-width="1.5"/><line x1="1574" y1="124" x2="1790" y2="124" stroke="#1e293b" stroke-width="1"/><text x="1682" y="115" text-anchor="middle" font-family="monospace" font-size="13" font-weight="600" fill="#0f172a">repository::UserRepo</text><rect x="1870" y="94" width="216" height="38" rx="4" ry="4" fill="#ffffff" stroke="#1e293b" stroke-width="1.5"/><rect x="1870" y="94" width="216" height="30" rx="4" ry="4" fill="#dbeafe" stroke="#1e293b" stroke-width="1.5"/><line x1="1870" y1="124" x2="2086" y2="124" stroke="#1e293b" stroke-width="1"/><text x="1978" y="115" text-anchor="middle" font-family="monospace" font-size="13" font-weight="600" fill="#0f172a">repository::ProductRepo</text></svg>