<svg xmlns="http://www.w3.org/2000/svg" width="1348" height="430" viewBox="0 0 1348 430"><rect width="100%" height="100%" fill="#ffffff"/><defs><marker id="arrow-open" viewBox="0 0 10 10" refX="9" refY="5" markerWidth="10" markerHeight="10" markerUnits="userSpaceOnUse" orient="auto-start-reverse"><path d="M0,0 L10,5 L0,10" fill="none" stroke="#1e293b" stroke-width="1.5"/></marker><marker id="arrow-triangle" viewBox="0 0 16 16" refX="15" refY="8" markerWidth="16" markerHeight="16" markerUnits="userSpaceOnUse" orient="auto-start-reverse"><polygon points="0,1 14,8 0,15" fill="#ffffff" stroke="#1e293b" stroke-width="1.5" fill-rule="nonzero"/></marker><marker id="arrow-diamond-filled" viewBox="0 0 14 10" refX="13" refY="5" markerWidth="14" markerHeight="10" markerUnits="userSpaceOnUse" orient="auto-start-reverse"><path d="M0,5 L7,0 L14,5 L7,10 z" fill="#1e293b" stroke="#1e293b" stroke-width="1"/></marker><marker id="arrow-diamond-open" viewBox="0 0 14 10" refX="13" refY="5" markerWidth="14" markerHeight="10" markerUnits="userSpaceOnUse" orient="auto-start-reverse"><path d="M0,5 L7,0 L14,5 L7,10 z" fill="#ffffff" stroke="#1e293b" stroke-width="1"/></marker></defs><text x="32" y="32" font-family="monospace" font-size="18" font-weight="600" fill="#0f172a">Package Structure</text><polyline class="uml-relation" data-uml-from="UserService" data-uml-to="User" data-uml-arrow="--&gt;" points="510,144 510,191 362,191 362,246" fill="none" stroke="#1e293b" stroke-width="2" marker-end="url(#arrow-open)" /><polyline class="uml-relation" data-uml-from="ProductService" data-uml-to="Product" data-uml-arrow="--&gt;" points="1102,144 1102,207 658,207 658,246" fill="none" stroke="#1e293b" stroke-width="2" marker-end="url(#arrow-open)" /><polyline class="uml-relation" data-uml-from="UserRepo" data-uml-to="User" data-uml-arrow="--&gt;" points="214,144 214,183 362,183 362,246" fill="none" stroke="#1e293b" stroke-width="2" marker-end="url(#arrow-open)" /><polyline class="uml-relation" data-uml-from="ProductRepo" data-uml-to="Product" data-uml-arrow="--&gt;" points="806,144 806,199 658,199 658,246" fill="none" stroke="#1e293b" stroke-width="2" marker-end="url(#arrow-open)" /><rect class="uml-group-frame" data-uml-group="domain" x="238" y="190" width="840" height="110" rx="6" ry="6" fill="none" stroke="#6366f1" stroke-width="1.5" stroke-dasharray="5 3"/><text x="246" y="204" font-family="monospace" font-size="11" font-weight="600" fill="#4338ca">package domain</text><rect class="uml-group-frame" data-uml-group="repository" x="90" y="50" width="840" height="110" rx="6" ry="6" fill="none" stroke="#6366f1" stroke-width="1.5" stroke-dasharray="5 3"/><text x="98" y="64" font-family="monospace" font-size="11" font-weight="600" fill="#4338ca">package repository</text><rect class="uml-group-frame" data-uml-group="service" x="386" y="50" width="840" height="110" rx="6" ry="6" fill="none" stroke="#6366f1" stroke-width="1.5" stroke-dasharray="5 3"/><text x="394" y="64" font-family="monospace" font-size="11" font-weight="600" fill="#4338ca">package service</text><rect x="254" y="246" width="216" height="38" rx="4" ry="4" fill="#ffffff" stroke="#1e293b" stroke-width="1.5"/><rect x="254" y="246" width="216" height="30" rx="4" ry="4" fill="#dbeafe" stroke="#1e293b" stroke-width="1.5"/><line x1="254" y1="276" x2="470" y2="276" stroke="#1e293b" stroke-width="1"/><text x="362" y="267" text-anchor="middle" font-family="monospace" font-size="13" font-weight="600" fill="#0f172a">domain::User</text><rect x="550" y="246" width="216" height="38" rx="4" ry="4" fill="#ffffff" stroke="#1e293b" stroke-width="1.5"/><rect x="550" y="246" width="216" height="30" rx="4" ry="4" fill="#dbeafe" stroke="#1e293b" stroke-width="1.5"/><line x1="550" y1="276" x2="766" y2="276" stroke="#1e293b" stroke-width="1"/><text x="658" y="267" text-anchor="middle" font-family="monospace" font-size="13" font-weight="600" fill="#0f172a">domain::Product</text><rect x="846" y="246" width="216" height="38" rx="4" ry="4" fill="#ffffff" stroke="#1e293b" stroke-width="1.5"/><rect x="846" y="246" width="216" height="30" rx="4" ry="4" fill="#dbeafe" stroke="#1e293b" stroke-width="1.5"/><line x1="846" y1="276" x2="1062" y2="276" stroke="#1e293b" stroke-width="1"/><text x="954" y="267" text-anchor="middle" font-family="monospace" font-size="13" font-weight="600" fill="#0f172a">domain::Order</text><rect x="402" y="106" width="216" height="38" rx="4" ry="4" fill="#ffffff" stroke="#1e293b" stroke-width="1.5"/><rect x="402" y="106" width="216" height="30" rx="4" ry="4" fill="#dbeafe" stroke="#1e293b" stroke-width="1.5"/><line x1="402" y1="136" x2="618" y2="136" stroke="#1e293b" stroke-width="1"/><text x="510" y="127" text-anchor="middle" font-family="monospace" font-size="13" font-weight="600" fill="#0f172a">service::UserService</text><rect x="994" y="106" width="216" height="38" rx="4" ry="4" fill="#ffffff" stroke="#1e293b" stroke-width="1.5"/><rect x="994" y="106" width="216" height="30" rx="4" ry="4" fill="#dbeafe" stroke="#1e293b" stroke-width="1.5"/><line x1="994" y1="136" x2="1210" y2="136" stroke="#1e293b" stroke-width="1"/><text x="1102" y="127" text-anchor="middle" font-family="monospace" font-size="13" font-weight="600" fill="#0f172a">service::ProductService</text><rect x="106" y="106" width="216" height="38" rx="4" ry="4" fill="#ffffff" stroke="#1e293b" stroke-width="1.5"/><rect x="106" y="106" width="216" height="30" rx="4" ry="4" fill="#dbeafe" stroke="#1e293b" stroke-width="1.5"/><line x1="106" y1="136" x2="322" y2="136" stroke="#1e293b" stroke-width="1"/><text x="214" y="127" text-anchor="middle" font-family="monospace" font-size="13" font-weight="600" fill="#0f172a">repository::UserRepo</text><rect x="698" y="106" width="216" height="38" rx="4" ry="4" fill="#ffffff" stroke="#1e293b" stroke-width="1.5"/><rect x="698" y="106" width="216" height="30" rx="4" ry="4" fill="#dbeafe" stroke="#1e293b" stroke-width="1.5"/><line x1="698" y1="136" x2="914" y2="136" stroke="#1e293b" stroke-width="1"/><text x="806" y="127" text-anchor="middle" font-family="monospace" font-size="13" font-weight="600" fill="#0f172a">repository::ProductRepo</text></svg>