<svg xmlns="http://www.w3.org/2000/svg" width="2474" height="350" viewBox="0 0 2474 350" data-orientation="TopToBottom"><rect width="100%" height="100%" fill="#ffffff"/><defs><marker id="arrow-open" viewBox="0 0 10 10" refX="9" refY="5" markerWidth="10" markerHeight="10" markerUnits="userSpaceOnUse" orient="auto-start-reverse"><path d="M0,0 L10,5 L0,10" fill="none" stroke="#1e293b" stroke-width="1.5"/></marker><marker id="arrow-triangle" viewBox="0 0 16 16" refX="15" refY="8" markerWidth="16" markerHeight="16" markerUnits="userSpaceOnUse" orient="auto-start-reverse"><polygon points="0,1 14,8 0,15" fill="#ffffff" stroke="#1e293b" stroke-width="1.5" fill-rule="nonzero"/></marker><marker id="arrow-diamond-filled" viewBox="0 0 14 10" refX="13" refY="5" markerWidth="14" markerHeight="10" markerUnits="userSpaceOnUse" orient="auto-start-reverse"><path d="M0,5 L7,0 L14,5 L7,10 z" fill="#1e293b" stroke="#1e293b" stroke-width="1"/></marker><marker id="arrow-diamond-open" viewBox="0 0 14 10" refX="13" refY="5" markerWidth="14" markerHeight="10" markerUnits="userSpaceOnUse" orient="auto-start-reverse"><path d="M0,5 L7,0 L14,5 L7,10 z" fill="#ffffff" stroke="#1e293b" stroke-width="1"/></marker></defs><defs><marker id="arrow-triangle-filled" viewBox="0 0 12 12" refX="11" refY="6" markerWidth="12" markerHeight="12" markerUnits="userSpaceOnUse" orient="auto-start-reverse"><polygon points="0,0 12,6 0,12" fill="#1e293b" stroke="#1e293b" stroke-width="1.5"/></marker><marker id="arrow-box-filled" viewBox="0 0 12 12" refX="11" refY="6" markerWidth="12" markerHeight="12" markerUnits="userSpaceOnUse" orient="auto-start-reverse"><rect x="2" y="2" width="8" height="8" fill="#1e293b" stroke="#1e293b" stroke-width="1.5"/></marker><marker id="arrow-plus" viewBox="0 0 12 12" refX="11" refY="6" markerWidth="12" markerHeight="12" markerUnits="userSpaceOnUse" orient="auto-start-reverse"><path d="M6,1 L6,11 M1,6 L11,6" fill="none" stroke="#1e293b" stroke-width="1.8" stroke-linecap="round"/></marker><marker id="arrow-cross" viewBox="0 0 12 12" refX="11" refY="6" markerWidth="12" markerHeight="12" markerUnits="userSpaceOnUse" orient="auto-start-reverse"><path d="M2,2 L10,10 M10,2 L2,10" fill="none" stroke="#1e293b" stroke-width="1.8" stroke-linecap="round"/></marker><marker id="arrow-bracket-open" viewBox="0 0 12 14" refX="11" refY="7" markerWidth="12" markerHeight="14" markerUnits="userSpaceOnUse" orient="auto-start-reverse"><path d="M10,1 L4,1 L4,13 L10,13" fill="none" stroke="#1e293b" stroke-width="1.8" stroke-linecap="round" stroke-linejoin="round"/></marker><marker id="arrow-circle-open" viewBox="0 0 12 12" refX="11" refY="6" markerWidth="12" markerHeight="12" markerUnits="userSpaceOnUse" orient="auto-start-reverse"><circle cx="6" cy="6" r="4" fill="#ffffff" stroke="#1e293b" stroke-width="1.5"/></marker><marker id="arrow-circle-filled" viewBox="0 0 12 12" refX="11" refY="6" markerWidth="12" markerHeight="12" markerUnits="userSpaceOnUse" orient="auto-start-reverse"><circle cx="6" cy="6" r="4" fill="#1e293b" stroke="#1e293b" stroke-width="1.5"/></marker><marker id="arrow-double-open" viewBox="0 0 16 12" refX="15" refY="6" markerWidth="16" markerHeight="12" markerUnits="userSpaceOnUse" orient="auto-start-reverse"><path d="M0,1 L8,6 L0,11 M7,1 L15,6 L7,11" fill="none" stroke="#1e293b" stroke-width="1.5" stroke-linejoin="round"/></marker></defs><text x="8" y="32" font-family="monospace" font-size="18" font-weight="600" fill="#0f172a">Package Structure</text><polyline class="uml-relation" data-uml-from="UserService" data-uml-to="User" data-uml-arrow="--&gt;" points="1134,137 1026,137 1826,205 1718,205" fill="none" stroke="#1e293b" stroke-width="2" marker-end="url(#arrow-open)" /><polyline class="uml-relation" data-uml-from="ProductService" data-uml-to="Product" data-uml-arrow="--&gt;" points="1646,137 1538,137 2082,205 1974,205" fill="none" stroke="#1e293b" stroke-width="2" marker-end="url(#arrow-open)" /><polyline class="uml-relation" data-uml-from="UserRepo" data-uml-to="User" data-uml-arrow="--&gt;" points="334,137 226,137 1826,205 1718,205" fill="none" stroke="#1e293b" stroke-width="2" marker-end="url(#arrow-open)" /><polyline class="uml-relation" data-uml-from="ProductRepo" data-uml-to="Product" data-uml-arrow="--&gt;" points="846,137 738,137 2082,205 1974,205" fill="none" stroke="#1e293b" stroke-width="2" marker-end="url(#arrow-open)" /><rect class="uml-group-frame" data-uml-group="domain" x="1698" y="114" width="768" height="130" rx="6" ry="6" fill="none" stroke="#6366f1" stroke-width="1.5" stroke-dasharray="5 3"/><rect x="1698" y="114" width="128" height="24" rx="6" ry="6" fill="#ffffff" stroke="#6366f1" stroke-width="1.5"/><rect x="1698" y="130" width="128" height="8" fill="#ffffff" stroke="none"/><text x="1706" y="130" font-family="monospace" font-size="11" font-weight="600" fill="#4338ca">package domain</text><line x1="1698" y1="138" x2="2466" y2="138" stroke="#6366f1" stroke-width="1"/><rect class="uml-group-frame" data-uml-group="repository" x="98" y="46" width="768" height="130" rx="6" ry="6" fill="none" stroke="#6366f1" stroke-width="1.5" stroke-dasharray="5 3"/><rect x="98" y="46" width="160" height="24" rx="6" ry="6" fill="#ffffff" stroke="#6366f1" stroke-width="1.5"/><rect x="98" y="62" width="160" height="8" fill="#ffffff" stroke="none"/><text x="106" y="62" font-family="monospace" font-size="11" font-weight="600" fill="#4338ca">package repository</text><line x1="98" y1="70" x2="866" y2="70" stroke="#6366f1" stroke-width="1"/><rect class="uml-group-frame" data-uml-group="service" x="898" y="46" width="768" height="130" rx="6" ry="6" fill="none" stroke="#6366f1" stroke-width="1.5" stroke-dasharray="5 3"/><rect x="898" y="46" width="136" height="24" rx="6" ry="6" fill="#ffffff" stroke="#6366f1" stroke-width="1.5"/><rect x="898" y="62" width="136" height="8" fill="#ffffff" stroke="none"/><text x="906" y="62" font-family="monospace" font-size="11" font-weight="600" fill="#4338ca">package service</text><line x1="898" y1="70" x2="1666" y2="70" stroke="#6366f1" stroke-width="1"/><rect class="uml-node uml-class" data-uml-id="domain::User" x="1718" y="186" width="216" height="38" rx="4" ry="4" fill="#ffffff" stroke="#1e293b" stroke-width="1.5"/><rect x="1718" y="186" width="216" height="30" rx="4" ry="4" fill="#dbeafe" stroke="#1e293b" stroke-width="1.5"/><line x1="1718" y1="216" x2="1934" y2="216" stroke="#1e293b" stroke-width="1"/><circle class="uml-class-badge" cx="1730" cy="203" r="8" fill="#A2D5A2" stroke="#2E7D32" stroke-width="1"/><text class="uml-class-badge-letter" x="1730" y="206" text-anchor="middle" font-family="monospace" font-size="9" font-weight="700" fill="#2E7D32">C</text><rect class="uml-edge-label-bg" data-uml-label-role="edge-background" x="1782" y="194" width="88" height="18" fill="white" opacity="0.85"/><text x="1826" y="207" text-anchor="middle" font-family="monospace" font-size="13" font-weight="600" fill="#0f172a">domain::User</text><rect class="uml-node uml-class" data-uml-id="domain::Product" x="1974" y="186" width="216" height="38" rx="4" ry="4" fill="#ffffff" stroke="#1e293b" stroke-width="1.5"/><rect x="1974" y="186" width="216" height="30" rx="4" ry="4" fill="#dbeafe" stroke="#1e293b" stroke-width="1.5"/><line x1="1974" y1="216" x2="2190" y2="216" stroke="#1e293b" stroke-width="1"/><circle class="uml-class-badge" cx="1986" cy="203" r="8" fill="#A2D5A2" stroke="#2E7D32" stroke-width="1"/><text class="uml-class-badge-letter" x="1986" y="206" text-anchor="middle" font-family="monospace" font-size="9" font-weight="700" fill="#2E7D32">C</text><rect class="uml-edge-label-bg" data-uml-label-role="edge-background" x="2028" y="194" width="108" height="18" fill="white" opacity="0.85"/><text x="2082" y="207" text-anchor="middle" font-family="monospace" font-size="13" font-weight="600" fill="#0f172a">domain::Product</text><rect class="uml-node uml-class" data-uml-id="domain::Order" x="2230" y="186" width="216" height="38" rx="4" ry="4" fill="#ffffff" stroke="#1e293b" stroke-width="1.5"/><rect x="2230" y="186" width="216" height="30" rx="4" ry="4" fill="#dbeafe" stroke="#1e293b" stroke-width="1.5"/><line x1="2230" y1="216" x2="2446" y2="216" stroke="#1e293b" stroke-width="1"/><circle class="uml-class-badge" cx="2242" cy="203" r="8" fill="#A2D5A2" stroke="#2E7D32" stroke-width="1"/><text class="uml-class-badge-letter" x="2242" y="206" text-anchor="middle" font-family="monospace" font-size="9" font-weight="700" fill="#2E7D32">C</text><text x="2338" y="207" text-anchor="middle" font-family="monospace" font-size="13" font-weight="600" fill="#0f172a">domain::Order</text><rect class="uml-node uml-class" data-uml-id="service::UserService" x="918" y="118" width="216" height="38" rx="4" ry="4" fill="#ffffff" stroke="#1e293b" stroke-width="1.5"/><rect x="918" y="118" width="216" height="30" rx="4" ry="4" fill="#dbeafe" stroke="#1e293b" stroke-width="1.5"/><line x1="918" y1="148" x2="1134" y2="148" stroke="#1e293b" stroke-width="1"/><circle class="uml-class-badge" cx="930" cy="135" r="8" fill="#A2D5A2" stroke="#2E7D32" stroke-width="1"/><rect class="uml-edge-label-bg" data-uml-label-role="edge-background" x="925" y="125" width="10" height="18" fill="white" opacity="0.85"/><text class="uml-class-badge-letter" x="930" y="138" text-anchor="middle" font-family="monospace" font-size="9" font-weight="700" fill="#2E7D32">C</text><rect class="uml-edge-label-bg" data-uml-label-role="edge-background" x="954" y="126" width="144" height="18" fill="white" opacity="0.85"/><text x="1026" y="139" text-anchor="middle" font-family="monospace" font-size="13" font-weight="600" fill="#0f172a">service::UserService</text><rect class="uml-node uml-class" data-uml-id="service::ProductService" x="1430" y="118" width="216" height="38" rx="4" ry="4" fill="#ffffff" stroke="#1e293b" stroke-width="1.5"/><rect x="1430" y="118" width="216" height="30" rx="4" ry="4" fill="#dbeafe" stroke="#1e293b" stroke-width="1.5"/><line x1="1430" y1="148" x2="1646" y2="148" stroke="#1e293b" stroke-width="1"/><circle class="uml-class-badge" cx="1442" cy="135" r="8" fill="#A2D5A2" stroke="#2E7D32" stroke-width="1"/><rect class="uml-edge-label-bg" data-uml-label-role="edge-background" x="1437" y="125" width="10" height="18" fill="white" opacity="0.85"/><text class="uml-class-badge-letter" x="1442" y="138" text-anchor="middle" font-family="monospace" font-size="9" font-weight="700" fill="#2E7D32">C</text><rect class="uml-edge-label-bg" data-uml-label-role="edge-background" x="1456" y="126" width="164" height="18" fill="white" opacity="0.85"/><text x="1538" y="139" text-anchor="middle" font-family="monospace" font-size="13" font-weight="600" fill="#0f172a">service::ProductService</text><rect class="uml-node uml-class" data-uml-id="repository::UserRepo" x="118" y="118" width="216" height="38" rx="4" ry="4" fill="#ffffff" stroke="#1e293b" stroke-width="1.5"/><rect x="118" y="118" width="216" height="30" rx="4" ry="4" fill="#dbeafe" stroke="#1e293b" stroke-width="1.5"/><line x1="118" y1="148" x2="334" y2="148" stroke="#1e293b" stroke-width="1"/><circle class="uml-class-badge" cx="130" cy="135" r="8" fill="#A2D5A2" stroke="#2E7D32" stroke-width="1"/><text class="uml-class-badge-letter" x="130" y="138" text-anchor="middle" font-family="monospace" font-size="9" font-weight="700" fill="#2E7D32">C</text><rect class="uml-edge-label-bg" data-uml-label-role="edge-background" x="154" y="126" width="144" height="18" fill="white" opacity="0.85"/><text x="226" y="139" text-anchor="middle" font-family="monospace" font-size="13" font-weight="600" fill="#0f172a">repository::UserRepo</text><rect class="uml-node uml-class" data-uml-id="repository::ProductRepo" x="630" y="118" width="216" height="38" rx="4" ry="4" fill="#ffffff" stroke="#1e293b" stroke-width="1.5"/><rect x="630" y="118" width="216" height="30" rx="4" ry="4" fill="#dbeafe" stroke="#1e293b" stroke-width="1.5"/><line x1="630" y1="148" x2="846" y2="148" stroke="#1e293b" stroke-width="1"/><circle class="uml-class-badge" cx="642" cy="135" r="8" fill="#A2D5A2" stroke="#2E7D32" stroke-width="1"/><rect class="uml-edge-label-bg" data-uml-label-role="edge-background" x="637" y="125" width="10" height="18" fill="white" opacity="0.85"/><text class="uml-class-badge-letter" x="642" y="138" text-anchor="middle" font-family="monospace" font-size="9" font-weight="700" fill="#2E7D32">C</text><rect class="uml-edge-label-bg" data-uml-label-role="edge-background" x="656" y="126" width="164" height="18" fill="white" opacity="0.85"/><text x="738" y="139" text-anchor="middle" font-family="monospace" font-size="13" font-weight="600" fill="#0f172a">repository::ProductRepo</text></svg>