<svg xmlns="http://www.w3.org/2000/svg" width="1854" height="454" viewBox="0 0 1854 454"><rect width="100%" height="100%" fill="#ffffff"/><defs><marker id="arrow-open" viewBox="0 0 10 10" refX="9" refY="5" markerWidth="10" markerHeight="10" markerUnits="userSpaceOnUse" orient="auto-start-reverse"><path d="M0,0 L10,5 L0,10" fill="none" stroke="#1e293b" stroke-width="1.5"/></marker><marker id="arrow-triangle" viewBox="0 0 16 16" refX="15" refY="8" markerWidth="16" markerHeight="16" markerUnits="userSpaceOnUse" orient="auto-start-reverse"><polygon points="0,1 14,8 0,15" fill="#ffffff" stroke="#1e293b" stroke-width="1.5" fill-rule="nonzero"/></marker><marker id="arrow-diamond-filled" viewBox="0 0 14 10" refX="13" refY="5" markerWidth="14" markerHeight="10" markerUnits="userSpaceOnUse" orient="auto-start-reverse"><path d="M0,5 L7,0 L14,5 L7,10 z" fill="#1e293b" stroke="#1e293b" stroke-width="1"/></marker><marker id="arrow-diamond-open" viewBox="0 0 14 10" refX="13" refY="5" markerWidth="14" markerHeight="10" markerUnits="userSpaceOnUse" orient="auto-start-reverse"><path d="M0,5 L7,0 L14,5 L7,10 z" fill="#ffffff" stroke="#1e293b" stroke-width="1"/></marker></defs><text x="32" y="32" font-family="monospace" font-size="18" font-weight="600" fill="#0f172a">Package Structure</text><polyline class="uml-relation puml-edge" data-uml-from="UserService" data-uml-to="User" data-puml-edge-id="relation:0" data-puml-family="class" data-puml-edge-kind="relation" data-puml-from="UserService" data-puml-to="User" data-uml-arrow="--&gt;" points="998,137 998,254 482,254 482,277" fill="none" stroke="#1e293b" stroke-width="2" marker-end="url(#arrow-open)" /><polyline class="uml-relation puml-edge" data-uml-from="ProductService" data-uml-to="Product" data-puml-edge-id="relation:1" data-puml-family="class" data-puml-edge-kind="relation" data-puml-from="ProductService" data-puml-to="Product" data-uml-arrow="--&gt;" points="1590,137 1590,254 778,254 778,277" fill="none" stroke="#1e293b" stroke-width="2" marker-end="url(#arrow-open)" /><polyline class="uml-relation puml-edge" data-uml-from="UserRepo" data-uml-to="User" data-puml-edge-id="relation:2" data-puml-family="class" data-puml-edge-kind="relation" data-puml-from="UserRepo" data-puml-to="User" data-uml-arrow="--&gt;" points="334,137 334,254 266,254 266,277" fill="none" stroke="#1e293b" stroke-width="2" marker-end="url(#arrow-open)" /><polyline class="uml-relation puml-edge" data-uml-from="ProductRepo" data-uml-to="Product" data-puml-edge-id="relation:3" data-puml-family="class" data-puml-edge-kind="relation" data-puml-from="ProductRepo" data-puml-to="Product" data-uml-arrow="--&gt;" points="710,137 710,254 778,254 778,277" fill="none" stroke="#1e293b" stroke-width="2" marker-end="url(#arrow-open)" /><rect class="uml-group-frame puml-container" data-uml-group="domain" data-puml-id="domain" data-puml-kind="package" data-puml-family="class" data-puml-bbox="246.0 186.0 848.0 130.0" x="246" y="186" width="848" height="130" rx="6" ry="6" fill="none" stroke="#6366f1" stroke-width="1.5" stroke-dasharray="5 3"/><rect x="246" y="186" width="128" height="24" rx="6" ry="6" fill="#ffffff" stroke="#6366f1" stroke-width="1.5"/><rect x="246" y="202" width="128" height="8" fill="#ffffff" stroke="none"/><text x="254" y="202" font-family="monospace" font-size="11" font-weight="600" fill="#4338ca">package domain</text><line x1="246" y1="210" x2="1094" y2="210" stroke="#6366f1" stroke-width="1"/><rect class="uml-group-frame puml-container" data-uml-group="repository" data-puml-id="repository" data-puml-kind="package" data-puml-family="class" data-puml-bbox="98.0 46.0 848.0 130.0" x="98" y="46" width="848" height="130" rx="6" ry="6" fill="none" stroke="#6366f1" stroke-width="1.5" stroke-dasharray="5 3"/><rect x="98" y="46" width="160" height="24" rx="6" ry="6" fill="#ffffff" stroke="#6366f1" stroke-width="1.5"/><rect x="98" y="62" width="160" height="8" fill="#ffffff" stroke="none"/><text x="106" y="62" font-family="monospace" font-size="11" font-weight="600" fill="#4338ca">package repository</text><line x1="98" y1="70" x2="946" y2="70" stroke="#6366f1" stroke-width="1"/><rect class="uml-group-frame puml-container" data-uml-group="service" data-puml-id="service" data-puml-kind="package" data-puml-family="class" data-puml-bbox="978.0 46.0 848.0 130.0" x="978" y="46" width="848" height="130" rx="6" ry="6" fill="none" stroke="#6366f1" stroke-width="1.5" stroke-dasharray="5 3"/><rect x="978" y="46" width="136" height="24" rx="6" ry="6" fill="#ffffff" stroke="#6366f1" stroke-width="1.5"/><rect x="978" y="62" width="136" height="8" fill="#ffffff" stroke="none"/><text x="986" y="62" font-family="monospace" font-size="11" font-weight="600" fill="#4338ca">package service</text><line x1="978" y1="70" x2="1826" y2="70" stroke="#6366f1" stroke-width="1"/><rect class="uml-node puml-node" data-uml-id="domain::User" data-uml-kind="class" data-puml-id="domain::User" data-puml-kind="class" data-puml-family="class" data-puml-bbox="266.0 258.0 216.0 38.0" x="266" y="258" width="216" height="38" rx="4" ry="4" fill="#ffffff" stroke="#1e293b" stroke-width="1.5"/><rect x="266" y="258" width="216" height="30" rx="4" ry="4" fill="#dbeafe" stroke="#1e293b" stroke-width="1.5"/><line x1="266" y1="288" x2="482" y2="288" stroke="#1e293b" stroke-width="1"/><text class="puml-label" data-puml-owner="domain::User" data-puml-label-kind="node-label" data-puml-bbox="325.6 266.8 96.7 17.0" x="374" y="279" text-anchor="middle" font-family="monospace" font-size="13" font-weight="600" fill="#0f172a">domain::User</text><rect class="uml-node puml-node" data-uml-id="domain::Product" data-uml-kind="class" data-puml-id="domain::Product" data-puml-kind="class" data-puml-family="class" data-puml-bbox="562.0 258.0 216.0 38.0" x="562" y="258" width="216" height="38" rx="4" ry="4" fill="#ffffff" stroke="#1e293b" stroke-width="1.5"/><rect x="562" y="258" width="216" height="30" rx="4" ry="4" fill="#dbeafe" stroke="#1e293b" stroke-width="1.5"/><line x1="562" y1="288" x2="778" y2="288" stroke="#1e293b" stroke-width="1"/><text class="puml-label" data-puml-owner="domain::Product" data-puml-label-kind="node-label" data-puml-bbox="609.5 266.8 120.9 17.0" x="670" y="279" text-anchor="middle" font-family="monospace" font-size="13" font-weight="600" fill="#0f172a">domain::Product</text><rect class="uml-node puml-node" data-uml-id="domain::Order" data-uml-kind="class" data-puml-id="domain::Order" data-puml-kind="class" data-puml-family="class" data-puml-bbox="858.0 258.0 216.0 38.0" x="858" y="258" width="216" height="38" rx="4" ry="4" fill="#ffffff" stroke="#1e293b" stroke-width="1.5"/><rect x="858" y="258" width="216" height="30" rx="4" ry="4" fill="#dbeafe" stroke="#1e293b" stroke-width="1.5"/><line x1="858" y1="288" x2="1074" y2="288" stroke="#1e293b" stroke-width="1"/><text class="puml-label" data-puml-owner="domain::Order" data-puml-label-kind="node-label" data-puml-bbox="913.6 266.8 104.8 17.0" x="966" y="279" text-anchor="middle" font-family="monospace" font-size="13" font-weight="600" fill="#0f172a">domain::Order</text><rect class="uml-node puml-node" data-uml-id="service::UserService" data-uml-kind="class" data-puml-id="service::UserService" data-puml-kind="class" data-puml-family="class" data-puml-bbox="998.0 118.0 216.0 38.0" x="998" y="118" width="216" height="38" rx="4" ry="4" fill="#ffffff" stroke="#1e293b" stroke-width="1.5"/><rect x="998" y="118" width="216" height="30" rx="4" ry="4" fill="#dbeafe" stroke="#1e293b" stroke-width="1.5"/><line x1="998" y1="148" x2="1214" y2="148" stroke="#1e293b" stroke-width="1"/><text class="puml-label" data-puml-owner="service::UserService" data-puml-label-kind="node-label" data-puml-bbox="1025.4 126.8 161.2 17.0" x="1106" y="139" text-anchor="middle" font-family="monospace" font-size="13" font-weight="600" fill="#0f172a">service::UserService</text><rect class="uml-node puml-node" data-uml-id="service::ProductService" data-uml-kind="class" data-puml-id="service::ProductService" data-puml-kind="class" data-puml-family="class" data-puml-bbox="1590.0 118.0 216.0 38.0" x="1590" y="118" width="216" height="38" rx="4" ry="4" fill="#ffffff" stroke="#1e293b" stroke-width="1.5"/><rect x="1590" y="118" width="216" height="30" rx="4" ry="4" fill="#dbeafe" stroke="#1e293b" stroke-width="1.5"/><line x1="1590" y1="148" x2="1806" y2="148" stroke="#1e293b" stroke-width="1"/><text class="puml-label" data-puml-owner="service::ProductService" data-puml-label-kind="node-label" data-puml-bbox="1605.3 126.8 185.4 17.0" x="1698" y="139" text-anchor="middle" font-family="monospace" font-size="13" font-weight="600" fill="#0f172a">service::ProductService</text><rect class="uml-node puml-node" data-uml-id="repository::UserRepo" data-uml-kind="class" data-puml-id="repository::UserRepo" data-puml-kind="class" data-puml-family="class" data-puml-bbox="118.0 118.0 216.0 38.0" x="118" y="118" width="216" height="38" rx="4" ry="4" fill="#ffffff" stroke="#1e293b" stroke-width="1.5"/><rect x="118" y="118" width="216" height="30" rx="4" ry="4" fill="#dbeafe" stroke="#1e293b" stroke-width="1.5"/><line x1="118" y1="148" x2="334" y2="148" stroke="#1e293b" stroke-width="1"/><text class="puml-label" data-puml-owner="repository::UserRepo" data-puml-label-kind="node-label" data-puml-bbox="145.4 126.8 161.2 17.0" x="226" y="139" text-anchor="middle" font-family="monospace" font-size="13" font-weight="600" fill="#0f172a">repository::UserRepo</text><rect class="uml-node puml-node" data-uml-id="repository::ProductRepo" data-uml-kind="class" data-puml-id="repository::ProductRepo" data-puml-kind="class" data-puml-family="class" data-puml-bbox="710.0 118.0 216.0 38.0" x="710" y="118" width="216" height="38" rx="4" ry="4" fill="#ffffff" stroke="#1e293b" stroke-width="1.5"/><rect x="710" y="118" width="216" height="30" rx="4" ry="4" fill="#dbeafe" stroke="#1e293b" stroke-width="1.5"/><line x1="710" y1="148" x2="926" y2="148" stroke="#1e293b" stroke-width="1"/><text class="puml-label" data-puml-owner="repository::ProductRepo" data-puml-label-kind="node-label" data-puml-bbox="725.3 126.8 185.4 17.0" x="818" y="139" text-anchor="middle" font-family="monospace" font-size="13" font-weight="600" fill="#0f172a">repository::ProductRepo</text></svg>