<svg xmlns="http://www.w3.org/2000/svg" width="1858" height="454" viewBox="0 0 1858 454" data-orientation="TopToBottom"><rect width="100%" height="100%" fill="#ffffff"/><defs><marker id="arrow-open" viewBox="0 0 10 10" refX="9" refY="5" markerWidth="10" markerHeight="10" markerUnits="userSpaceOnUse" orient="auto-start-reverse"><path d="M0,0 L10,5 L0,10" fill="none" stroke="#1e293b" stroke-width="1.5"/></marker><marker id="arrow-triangle" viewBox="0 0 16 16" refX="15" refY="8" markerWidth="16" markerHeight="16" markerUnits="userSpaceOnUse" orient="auto-start-reverse"><polygon points="0,1 14,8 0,15" fill="#ffffff" stroke="#1e293b" stroke-width="1.5" fill-rule="nonzero"/></marker><marker id="arrow-diamond-filled" viewBox="0 0 14 10" refX="13" refY="5" markerWidth="14" markerHeight="10" markerUnits="userSpaceOnUse" orient="auto-start-reverse"><path d="M0,5 L7,0 L14,5 L7,10 z" fill="#1e293b" stroke="#1e293b" stroke-width="1"/></marker><marker id="arrow-diamond-open" viewBox="0 0 14 10" refX="13" refY="5" markerWidth="14" markerHeight="10" markerUnits="userSpaceOnUse" orient="auto-start-reverse"><path d="M0,5 L7,0 L14,5 L7,10 z" fill="#ffffff" stroke="#1e293b" stroke-width="1"/></marker></defs><text x="32" y="32" font-family="monospace" font-size="18" font-weight="600" fill="#0f172a">Package Structure</text><polyline class="uml-relation" data-uml-from="UserService" data-uml-to="User" data-uml-arrow="--&gt;" points="998,137 998,254 482,254 482,277" fill="none" stroke="#1e293b" stroke-width="2" marker-end="url(#arrow-open)" /><polyline class="uml-relation" data-uml-from="ProductService" data-uml-to="Product" data-uml-arrow="--&gt;" points="1590,137 1590,254 778,254 778,277" fill="none" stroke="#1e293b" stroke-width="2" marker-end="url(#arrow-open)" /><polyline class="uml-relation" data-uml-from="UserRepo" data-uml-to="User" data-uml-arrow="--&gt;" points="334,137 334,254 266,254 266,277" fill="none" stroke="#1e293b" stroke-width="2" marker-end="url(#arrow-open)" /><polyline class="uml-relation" data-uml-from="ProductRepo" data-uml-to="Product" data-uml-arrow="--&gt;" points="710,137 710,254 778,254 778,277" fill="none" stroke="#1e293b" stroke-width="2" marker-end="url(#arrow-open)" /><rect class="uml-group-frame" data-uml-group="domain" x="246" y="186" width="848" height="130" rx="6" ry="6" fill="none" stroke="#6366f1" stroke-width="1.5" stroke-dasharray="5 3"/><rect x="246" y="186" width="128" height="24" rx="6" ry="6" fill="#ffffff" stroke="#6366f1" stroke-width="1.5"/><rect x="246" y="202" width="128" height="8" fill="#ffffff" stroke="none"/><rect class="uml-edge-label-bg" data-uml-label-role="edge-background" x="252" y="189" width="102" height="18" fill="white" opacity="0.85"/><text x="254" y="202" font-family="monospace" font-size="11" font-weight="600" fill="#4338ca">package domain</text><line x1="246" y1="210" x2="1094" y2="210" stroke="#6366f1" stroke-width="1"/><rect class="uml-group-frame" data-uml-group="repository" x="98" y="46" width="848" height="130" rx="6" ry="6" fill="none" stroke="#6366f1" stroke-width="1.5" stroke-dasharray="5 3"/><rect x="98" y="46" width="160" height="24" rx="6" ry="6" fill="#ffffff" stroke="#6366f1" stroke-width="1.5"/><rect x="98" y="62" width="160" height="8" fill="#ffffff" stroke="none"/><text x="106" y="62" font-family="monospace" font-size="11" font-weight="600" fill="#4338ca">package repository</text><line x1="98" y1="70" x2="946" y2="70" stroke="#6366f1" stroke-width="1"/><rect class="uml-group-frame" data-uml-group="service" x="978" y="46" width="848" height="130" rx="6" ry="6" fill="none" stroke="#6366f1" stroke-width="1.5" stroke-dasharray="5 3"/><rect x="978" y="46" width="136" height="24" rx="6" ry="6" fill="#ffffff" stroke="#6366f1" stroke-width="1.5"/><rect x="978" y="62" width="136" height="8" fill="#ffffff" stroke="none"/><text x="986" y="62" font-family="monospace" font-size="11" font-weight="600" fill="#4338ca">package service</text><line x1="978" y1="70" x2="1826" y2="70" stroke="#6366f1" stroke-width="1"/><rect x="266" y="258" width="216" height="38" rx="4" ry="4" fill="#ffffff" stroke="#1e293b" stroke-width="1.5"/><rect x="266" y="258" width="216" height="30" rx="4" ry="4" fill="#dbeafe" stroke="#1e293b" stroke-width="1.5"/><line x1="266" y1="288" x2="482" y2="288" stroke="#1e293b" stroke-width="1"/><text x="374" y="279" text-anchor="middle" font-family="monospace" font-size="13" font-weight="600" fill="#0f172a">domain::User</text><rect x="562" y="258" width="216" height="38" rx="4" ry="4" fill="#ffffff" stroke="#1e293b" stroke-width="1.5"/><rect x="562" y="258" width="216" height="30" rx="4" ry="4" fill="#dbeafe" stroke="#1e293b" stroke-width="1.5"/><line x1="562" y1="288" x2="778" y2="288" stroke="#1e293b" stroke-width="1"/><text x="670" y="279" text-anchor="middle" font-family="monospace" font-size="13" font-weight="600" fill="#0f172a">domain::Product</text><rect x="858" y="258" width="216" height="38" rx="4" ry="4" fill="#ffffff" stroke="#1e293b" stroke-width="1.5"/><rect x="858" y="258" width="216" height="30" rx="4" ry="4" fill="#dbeafe" stroke="#1e293b" stroke-width="1.5"/><line x1="858" y1="288" x2="1074" y2="288" stroke="#1e293b" stroke-width="1"/><text x="966" y="279" text-anchor="middle" font-family="monospace" font-size="13" font-weight="600" fill="#0f172a">domain::Order</text><rect x="998" y="118" width="216" height="38" rx="4" ry="4" fill="#ffffff" stroke="#1e293b" stroke-width="1.5"/><rect x="998" y="118" width="216" height="30" rx="4" ry="4" fill="#dbeafe" stroke="#1e293b" stroke-width="1.5"/><line x1="998" y1="148" x2="1214" y2="148" stroke="#1e293b" stroke-width="1"/><text x="1106" y="139" text-anchor="middle" font-family="monospace" font-size="13" font-weight="600" fill="#0f172a">service::UserService</text><rect x="1590" y="118" width="216" height="38" rx="4" ry="4" fill="#ffffff" stroke="#1e293b" stroke-width="1.5"/><rect x="1590" y="118" width="216" height="30" rx="4" ry="4" fill="#dbeafe" stroke="#1e293b" stroke-width="1.5"/><line x1="1590" y1="148" x2="1806" y2="148" stroke="#1e293b" stroke-width="1"/><text x="1698" y="139" text-anchor="middle" font-family="monospace" font-size="13" font-weight="600" fill="#0f172a">service::ProductService</text><rect x="118" y="118" width="216" height="38" rx="4" ry="4" fill="#ffffff" stroke="#1e293b" stroke-width="1.5"/><rect x="118" y="118" width="216" height="30" rx="4" ry="4" fill="#dbeafe" stroke="#1e293b" stroke-width="1.5"/><line x1="118" y1="148" x2="334" y2="148" stroke="#1e293b" stroke-width="1"/><text x="226" y="139" text-anchor="middle" font-family="monospace" font-size="13" font-weight="600" fill="#0f172a">repository::UserRepo</text><rect x="710" y="118" width="216" height="38" rx="4" ry="4" fill="#ffffff" stroke="#1e293b" stroke-width="1.5"/><rect x="710" y="118" width="216" height="30" rx="4" ry="4" fill="#dbeafe" stroke="#1e293b" stroke-width="1.5"/><line x1="710" y1="148" x2="926" y2="148" stroke="#1e293b" stroke-width="1"/><text x="818" y="139" text-anchor="middle" font-family="monospace" font-size="13" font-weight="600" fill="#0f172a">repository::ProductRepo</text></svg>