<svg xmlns="http://www.w3.org/2000/svg" width="704" height="598" viewBox="0 0 704 598"><rect width="100%" height="100%" fill="#ffffff"/><defs><marker id="arrow-open" viewBox="0 0 10 10" refX="9" refY="5" markerWidth="10" markerHeight="10" markerUnits="userSpaceOnUse" orient="auto-start-reverse"><path d="M0,0 L10,5 L0,10" fill="none" stroke="#1e293b" stroke-width="1.5"/></marker><marker id="arrow-triangle" viewBox="0 0 16 16" refX="15" refY="8" markerWidth="16" markerHeight="16" markerUnits="userSpaceOnUse" orient="auto-start-reverse"><polygon points="0,1 14,8 0,15" fill="#ffffff" stroke="#1e293b" stroke-width="1.5" fill-rule="nonzero"/></marker><marker id="arrow-diamond-filled" viewBox="0 0 14 10" refX="13" refY="5" markerWidth="14" markerHeight="10" markerUnits="userSpaceOnUse" orient="auto-start-reverse"><path d="M0,5 L7,0 L14,5 L7,10 z" fill="#1e293b" stroke="#1e293b" stroke-width="1"/></marker><marker id="arrow-diamond-open" viewBox="0 0 14 10" refX="13" refY="5" markerWidth="14" markerHeight="10" markerUnits="userSpaceOnUse" orient="auto-start-reverse"><path d="M0,5 L7,0 L14,5 L7,10 z" fill="#ffffff" stroke="#1e293b" stroke-width="1"/></marker></defs><text x="32" y="32" font-family="monospace" font-size="18" font-weight="600" fill="#0f172a">Status and Priority Classes</text><polyline class="uml-relation" data-uml-from="Task" data-uml-to="Status" data-uml-arrow="--&gt;" points="266,192 266,283 386,283 386,382" fill="none" stroke="#1e293b" stroke-width="2" marker-end="url(#arrow-open)" /><polyline class="uml-relation" data-uml-from="Task" data-uml-to="Priority" data-uml-arrow="--&gt;" points="266,192 266,291 146,291 146,382" fill="none" stroke="#1e293b" stroke-width="2" marker-end="url(#arrow-open)" /><rect x="306" y="382" width="160" height="110" rx="4" ry="4" fill="#ffffff" stroke="#1e293b" stroke-width="1.5"/><rect x="306" y="382" width="160" height="30" rx="4" ry="4" fill="#dbeafe" stroke="#1e293b" stroke-width="1.5"/><line x1="306" y1="412" x2="466" y2="412" stroke="#1e293b" stroke-width="1"/><text x="386" y="403" text-anchor="middle" font-family="monospace" font-size="13" font-weight="600" fill="#0f172a">Status</text><text class="uml-member" x="316" y="428" font-family="monospace" font-size="11" fill="#334155">PENDING</text><text class="uml-member" x="316" y="444" font-family="monospace" font-size="11" fill="#334155">ACTIVE</text><text class="uml-member" x="316" y="460" font-family="monospace" font-size="11" fill="#334155">INACTIVE</text><text class="uml-member" x="316" y="476" font-family="monospace" font-size="11" fill="#334155">DELETED</text><rect x="66" y="382" width="160" height="110" rx="4" ry="4" fill="#ffffff" stroke="#1e293b" stroke-width="1.5"/><rect x="66" y="382" width="160" height="30" rx="4" ry="4" fill="#dbeafe" stroke="#1e293b" stroke-width="1.5"/><line x1="66" y1="412" x2="226" y2="412" stroke="#1e293b" stroke-width="1"/><text x="146" y="403" text-anchor="middle" font-family="monospace" font-size="13" font-weight="600" fill="#0f172a">Priority</text><text class="uml-member" x="76" y="428" font-family="monospace" font-size="11" fill="#334155">LOW</text><text class="uml-member" x="76" y="444" font-family="monospace" font-size="11" fill="#334155">MEDIUM</text><text class="uml-member" x="76" y="460" font-family="monospace" font-size="11" fill="#334155">HIGH</text><text class="uml-member" x="76" y="476" font-family="monospace" font-size="11" fill="#334155">CRITICAL</text><rect x="186" y="66" width="160" height="126" rx="4" ry="4" fill="#ffffff" stroke="#1e293b" stroke-width="1.5"/><rect x="186" y="66" width="160" height="30" rx="4" ry="4" fill="#dbeafe" stroke="#1e293b" stroke-width="1.5"/><line x1="186" y1="96" x2="346" y2="96" stroke="#1e293b" stroke-width="1"/><text x="266" y="87" text-anchor="middle" font-family="monospace" font-size="13" font-weight="600" fill="#0f172a">Task</text><text class="uml-member" data-uml-visibility="private" x="196" y="112" font-family="monospace" font-size="11" fill="#dc2626">-id: Long</text><text class="uml-member" data-uml-visibility="private" x="196" y="128" font-family="monospace" font-size="11" fill="#dc2626">-title: String</text><text class="uml-member" data-uml-visibility="private" x="196" y="144" font-family="monospace" font-size="11" fill="#dc2626">-status: Status</text><text class="uml-member" data-uml-visibility="private" x="196" y="160" font-family="monospace" font-size="11" fill="#dc2626">-priority: Priority</text><line x1="186" y1="168" x2="346" y2="168" stroke="#1e293b" stroke-width="1"/><text class="uml-member" data-uml-visibility="public" x="196" y="176" font-family="monospace" font-size="11" fill="#16a34a">+execute(): void</text></svg>