<svg xmlns="http://www.w3.org/2000/svg" width="240" height="568" viewBox="0 0 240 568" data-orientation="TopToBottom"><rect width="100%" height="100%" fill="#ffffff"/><defs><marker id="arrow-open" viewBox="0 0 10 10" refX="9" refY="5" markerWidth="10" markerHeight="10" markerUnits="userSpaceOnUse" orient="auto-start-reverse"><path d="M0,0 L10,5 L0,10" fill="none" stroke="#1e293b" stroke-width="1.5"/></marker><marker id="arrow-triangle" viewBox="0 0 16 16" refX="15" refY="8" markerWidth="16" markerHeight="16" markerUnits="userSpaceOnUse" orient="auto-start-reverse"><polygon points="0,1 14,8 0,15" fill="#ffffff" stroke="#1e293b" stroke-width="1.5" fill-rule="nonzero"/></marker><marker id="arrow-diamond-filled" viewBox="0 0 14 10" refX="13" refY="5" markerWidth="14" markerHeight="10" markerUnits="userSpaceOnUse" orient="auto-start-reverse"><path d="M0,5 L7,0 L14,5 L7,10 z" fill="#1e293b" stroke="#1e293b" stroke-width="1"/></marker><marker id="arrow-diamond-open" viewBox="0 0 14 10" refX="13" refY="5" markerWidth="14" markerHeight="10" markerUnits="userSpaceOnUse" orient="auto-start-reverse"><path d="M0,5 L7,0 L14,5 L7,10 z" fill="#ffffff" stroke="#1e293b" stroke-width="1"/></marker></defs><defs><marker id="arrow-triangle-filled" viewBox="0 0 12 12" refX="11" refY="6" markerWidth="12" markerHeight="12" markerUnits="userSpaceOnUse" orient="auto-start-reverse"><polygon points="0,0 12,6 0,12" fill="#1e293b" stroke="#1e293b" stroke-width="1.5"/></marker><marker id="arrow-box-filled" viewBox="0 0 12 12" refX="11" refY="6" markerWidth="12" markerHeight="12" markerUnits="userSpaceOnUse" orient="auto-start-reverse"><rect x="2" y="2" width="8" height="8" fill="#1e293b" stroke="#1e293b" stroke-width="1.5"/></marker><marker id="arrow-plus" viewBox="0 0 12 12" refX="11" refY="6" markerWidth="12" markerHeight="12" markerUnits="userSpaceOnUse" orient="auto-start-reverse"><path d="M6,1 L6,11 M1,6 L11,6" fill="none" stroke="#1e293b" stroke-width="1.8" stroke-linecap="round"/></marker><marker id="arrow-cross" viewBox="0 0 12 12" refX="11" refY="6" markerWidth="12" markerHeight="12" markerUnits="userSpaceOnUse" orient="auto-start-reverse"><path d="M2,2 L10,10 M10,2 L2,10" fill="none" stroke="#1e293b" stroke-width="1.8" stroke-linecap="round"/></marker><marker id="arrow-bracket-open" viewBox="0 0 12 14" refX="11" refY="7" markerWidth="12" markerHeight="14" markerUnits="userSpaceOnUse" orient="auto-start-reverse"><path d="M10,1 L4,1 L4,13 L10,13" fill="none" stroke="#1e293b" stroke-width="1.8" stroke-linecap="round" stroke-linejoin="round"/></marker><marker id="arrow-circle-open" viewBox="0 0 12 12" refX="11" refY="6" markerWidth="12" markerHeight="12" markerUnits="userSpaceOnUse" orient="auto-start-reverse"><circle cx="6" cy="6" r="4" fill="#ffffff" stroke="#1e293b" stroke-width="1.5"/></marker><marker id="arrow-circle-filled" viewBox="0 0 12 12" refX="11" refY="6" markerWidth="12" markerHeight="12" markerUnits="userSpaceOnUse" orient="auto-start-reverse"><circle cx="6" cy="6" r="4" fill="#1e293b" stroke="#1e293b" stroke-width="1.5"/></marker><marker id="arrow-double-open" viewBox="0 0 16 12" refX="15" refY="6" markerWidth="16" markerHeight="12" markerUnits="userSpaceOnUse" orient="auto-start-reverse"><path d="M0,1 L8,6 L0,11 M7,1 L15,6 L7,11" fill="none" stroke="#1e293b" stroke-width="1.5" stroke-linejoin="round"/></marker></defs><text x="8" y="32" font-family="monospace" font-size="18" font-weight="600" fill="#0f172a">Collection Hierarchy</text><polyline class="uml-relation" data-uml-from="Iterable" data-uml-to="Collection" data-uml-arrow="&lt;|.." points="141,142 141,157 141,172" fill="none" stroke="#1e293b" stroke-width="2" stroke-dasharray="5 3" marker-start="url(#arrow-triangle)" /><polyline class="uml-relation" data-uml-from="Collection" data-uml-to="List" data-uml-arrow="&lt;|.." points="141,264 141,279 141,294" fill="none" stroke="#1e293b" stroke-width="2" stroke-dasharray="5 3" marker-start="url(#arrow-triangle)" /><polyline class="uml-relation" data-uml-from="List" data-uml-to="ArrayList" data-uml-arrow="&lt;|.." points="141,370 141,385 141,400" fill="none" stroke="#1e293b" stroke-width="2" stroke-dasharray="5 3" marker-start="url(#arrow-triangle)" /><rect class="uml-node uml-class" data-uml-id="Iterable" x="66" y="66" width="150" height="76" rx="4" ry="4" fill="#ffffff" stroke="#1e293b" stroke-width="1.5"/><rect x="66" y="66" width="150" height="44" rx="4" ry="4" fill="#dae8fc" stroke="#1e293b" stroke-width="1.5"/><line x1="66" y1="110" x2="216" y2="110" stroke="#1e293b" stroke-width="1"/><text x="141" y="79" text-anchor="middle" font-family="monospace" font-size="10" fill="#0f172a">«interface»</text><circle class="uml-class-badge" cx="78" cy="97" r="8" fill="#90CAF9" stroke="#1565C0" stroke-width="1"/><text class="uml-class-badge-letter" x="78" y="100" text-anchor="middle" font-family="monospace" font-size="9" font-weight="700" fill="#1565C0">I</text><text x="141" y="101" text-anchor="middle" font-family="monospace" font-size="13" font-weight="600" fill="#0f172a" font-style="italic">Iterable</text><circle class="uml-vis-glyph" cx="80" cy="121" r="4" fill="#16a34a" stroke="#16a34a" stroke-width="1"/><text class="uml-member" data-uml-visibility="public" x="90" y="126" font-family="monospace" font-size="11" fill="#16a34a" font-style="italic">iterator()</text><rect class="uml-node uml-class" data-uml-id="Collection" x="66" y="172" width="150" height="92" rx="4" ry="4" fill="#ffffff" stroke="#1e293b" stroke-width="1.5"/><rect x="66" y="172" width="150" height="44" rx="4" ry="4" fill="#dae8fc" stroke="#1e293b" stroke-width="1.5"/><line x1="66" y1="216" x2="216" y2="216" stroke="#1e293b" stroke-width="1"/><rect class="uml-edge-label-bg" data-uml-label-role="edge-background" x="101" y="172" width="80" height="18" fill="white" opacity="0.85"/><text x="141" y="185" text-anchor="middle" font-family="monospace" font-size="10" fill="#0f172a">«interface»</text><circle class="uml-class-badge" cx="78" cy="203" r="8" fill="#90CAF9" stroke="#1565C0" stroke-width="1"/><text class="uml-class-badge-letter" x="78" y="206" text-anchor="middle" font-family="monospace" font-size="9" font-weight="700" fill="#1565C0">I</text><text x="141" y="207" text-anchor="middle" font-family="monospace" font-size="13" font-weight="600" fill="#0f172a" font-style="italic">Collection</text><circle class="uml-vis-glyph" cx="80" cy="227" r="4" fill="#16a34a" stroke="#16a34a" stroke-width="1"/><text class="uml-member" data-uml-visibility="public" x="90" y="232" font-family="monospace" font-size="11" fill="#16a34a" font-style="italic">add(e): boolean</text><circle class="uml-vis-glyph" cx="80" cy="243" r="4" fill="#16a34a" stroke="#16a34a" stroke-width="1"/><text class="uml-member" data-uml-visibility="public" x="90" y="248" font-family="monospace" font-size="11" fill="#16a34a" font-style="italic">size(): int</text><rect class="uml-node uml-class" data-uml-id="List" x="66" y="294" width="150" height="76" rx="4" ry="4" fill="#ffffff" stroke="#1e293b" stroke-width="1.5"/><rect x="66" y="294" width="150" height="44" rx="4" ry="4" fill="#dae8fc" stroke="#1e293b" stroke-width="1.5"/><line x1="66" y1="338" x2="216" y2="338" stroke="#1e293b" stroke-width="1"/><rect class="uml-edge-label-bg" data-uml-label-role="edge-background" x="101" y="294" width="80" height="18" fill="white" opacity="0.85"/><text x="141" y="307" text-anchor="middle" font-family="monospace" font-size="10" fill="#0f172a">«interface»</text><circle class="uml-class-badge" cx="78" cy="325" r="8" fill="#90CAF9" stroke="#1565C0" stroke-width="1"/><text class="uml-class-badge-letter" x="78" y="328" text-anchor="middle" font-family="monospace" font-size="9" font-weight="700" fill="#1565C0">I</text><text x="141" y="329" text-anchor="middle" font-family="monospace" font-size="13" font-weight="600" fill="#0f172a" font-style="italic">List</text><circle class="uml-vis-glyph" cx="80" cy="349" r="4" fill="#16a34a" stroke="#16a34a" stroke-width="1"/><text class="uml-member" data-uml-visibility="public" x="90" y="354" font-family="monospace" font-size="11" fill="#16a34a" font-style="italic">get(i: int)</text><rect class="uml-node uml-class" data-uml-id="ArrayList" x="66" y="400" width="150" height="94" rx="4" ry="4" fill="#ffffff" stroke="#1e293b" stroke-width="1.5"/><rect x="66" y="400" width="150" height="30" rx="4" ry="4" fill="#dbeafe" stroke="#1e293b" stroke-width="1.5"/><line x1="66" y1="430" x2="216" y2="430" stroke="#1e293b" stroke-width="1"/><circle class="uml-class-badge" cx="78" cy="417" r="8" fill="#A2D5A2" stroke="#2E7D32" stroke-width="1"/><text class="uml-class-badge-letter" x="78" y="420" text-anchor="middle" font-family="monospace" font-size="9" font-weight="700" fill="#2E7D32">C</text><text x="141" y="421" text-anchor="middle" font-family="monospace" font-size="13" font-weight="600" fill="#0f172a">ArrayList</text><circle class="uml-vis-glyph" cx="80" cy="441" r="4" fill="#16a34a" stroke="#16a34a" stroke-width="1"/><text class="uml-member" data-uml-visibility="public" x="90" y="446" font-family="monospace" font-size="11" fill="#16a34a">add(e): boolean</text><circle class="uml-vis-glyph" cx="80" cy="457" r="4" fill="#16a34a" stroke="#16a34a" stroke-width="1"/><text class="uml-member" data-uml-visibility="public" x="90" y="462" font-family="monospace" font-size="11" fill="#16a34a">get(i: int)</text><circle class="uml-vis-glyph" cx="80" cy="473" r="4" fill="#16a34a" stroke="#16a34a" stroke-width="1"/><text class="uml-member" data-uml-visibility="public" x="90" y="478" font-family="monospace" font-size="11" fill="#16a34a">size(): int</text></svg>