<svg xmlns="http://www.w3.org/2000/svg" width="704" height="942" viewBox="0 0 704 942"><rect width="100%" height="100%" fill="#ffffff"/><defs><marker id="arrow-open" viewBox="0 0 10 10" refX="9" refY="5" markerWidth="10" markerHeight="10" markerUnits="userSpaceOnUse" orient="auto-start-reverse"><path d="M0,0 L10,5 L0,10" fill="none" stroke="#1e293b" stroke-width="1.5"/></marker><marker id="arrow-triangle" viewBox="0 0 16 16" refX="15" refY="8" markerWidth="16" markerHeight="16" markerUnits="userSpaceOnUse" orient="auto-start-reverse"><polygon points="0,1 14,8 0,15" fill="#ffffff" stroke="#1e293b" stroke-width="1.5" fill-rule="nonzero"/></marker><marker id="arrow-diamond-filled" viewBox="0 0 14 10" refX="13" refY="5" markerWidth="14" markerHeight="10" markerUnits="userSpaceOnUse" orient="auto-start-reverse"><path d="M0,5 L7,0 L14,5 L7,10 z" fill="#1e293b" stroke="#1e293b" stroke-width="1"/></marker><marker id="arrow-diamond-open" viewBox="0 0 14 10" refX="13" refY="5" markerWidth="14" markerHeight="10" markerUnits="userSpaceOnUse" orient="auto-start-reverse"><path d="M0,5 L7,0 L14,5 L7,10 z" fill="#ffffff" stroke="#1e293b" stroke-width="1"/></marker></defs><text x="32" y="32" font-family="monospace" font-size="18" font-weight="600" fill="#0f172a">Collection Hierarchy</text><polyline class="uml-relation" data-uml-from="Collection" data-uml-to="Iterable" data-uml-arrow="&lt;|--" points="146,616 146,683 146,774" fill="none" stroke="#1e293b" stroke-width="2" marker-start="url(#arrow-triangle)" /><polyline class="uml-relation" data-uml-from="List" data-uml-to="Collection" data-uml-arrow="&lt;|--" points="146,380 146,447 146,538" fill="none" stroke="#1e293b" stroke-width="2" marker-start="url(#arrow-triangle)" /><polyline class="uml-relation" data-uml-from="ArrayList" data-uml-to="List" data-uml-arrow="&lt;|--" points="146,160 146,227 146,318" fill="none" stroke="#1e293b" stroke-width="2" marker-start="url(#arrow-triangle)" /><rect x="66" y="774" width="160" height="62" rx="4" ry="4" fill="#ffffff" stroke="#1e293b" stroke-width="1.5"/><rect x="66" y="774" width="160" height="30" rx="4" ry="4" fill="#dbeafe" stroke="#1e293b" stroke-width="1.5"/><line x1="66" y1="804" x2="226" y2="804" stroke="#1e293b" stroke-width="1"/><text x="146" y="795" text-anchor="middle" font-family="monospace" font-size="13" font-weight="600" fill="#0f172a">Iterable</text><text class="uml-member" data-uml-visibility="public" x="76" y="820" font-family="monospace" font-size="11" fill="#16a34a">+iterator()</text><rect x="66" y="538" width="160" height="78" rx="4" ry="4" fill="#ffffff" stroke="#1e293b" stroke-width="1.5"/><rect x="66" y="538" width="160" height="30" rx="4" ry="4" fill="#dbeafe" stroke="#1e293b" stroke-width="1.5"/><line x1="66" y1="568" x2="226" y2="568" stroke="#1e293b" stroke-width="1"/><text x="146" y="559" text-anchor="middle" font-family="monospace" font-size="13" font-weight="600" fill="#0f172a">Collection</text><text class="uml-member" data-uml-visibility="public" x="76" y="584" font-family="monospace" font-size="11" fill="#16a34a">+add(e): boolean</text><text class="uml-member" data-uml-visibility="public" x="76" y="600" font-family="monospace" font-size="11" fill="#16a34a">+size(): int</text><rect x="66" y="318" width="160" height="62" rx="4" ry="4" fill="#ffffff" stroke="#1e293b" stroke-width="1.5"/><rect x="66" y="318" width="160" height="30" rx="4" ry="4" fill="#dbeafe" stroke="#1e293b" stroke-width="1.5"/><line x1="66" y1="348" x2="226" y2="348" stroke="#1e293b" stroke-width="1"/><text x="146" y="339" text-anchor="middle" font-family="monospace" font-size="13" font-weight="600" fill="#0f172a">List</text><text class="uml-member" data-uml-visibility="public" x="76" y="364" font-family="monospace" font-size="11" fill="#16a34a">+get(i: int)</text><rect x="66" y="66" width="160" height="94" rx="4" ry="4" fill="#ffffff" stroke="#1e293b" stroke-width="1.5"/><rect x="66" y="66" width="160" height="30" rx="4" ry="4" fill="#dbeafe" stroke="#1e293b" stroke-width="1.5"/><line x1="66" y1="96" x2="226" y2="96" stroke="#1e293b" stroke-width="1"/><text x="146" y="87" text-anchor="middle" font-family="monospace" font-size="13" font-weight="600" fill="#0f172a">ArrayList</text><text class="uml-member" data-uml-visibility="public" x="76" y="112" font-family="monospace" font-size="11" fill="#16a34a">+add(e): boolean</text><text class="uml-member" data-uml-visibility="public" x="76" y="128" font-family="monospace" font-size="11" fill="#16a34a">+get(i: int)</text><text class="uml-member" data-uml-visibility="public" x="76" y="144" font-family="monospace" font-size="11" fill="#16a34a">+size(): int</text></svg>