<svg xmlns="http://www.w3.org/2000/svg" width="274" height="984" viewBox="0 0 274 984" data-orientation="TopToBottom"><rect width="100%" height="100%" fill="#ffffff"/><defs><marker id="arrow-open" viewBox="0 0 10 10" refX="9" refY="5" markerWidth="10" markerHeight="10" markerUnits="userSpaceOnUse" orient="auto-start-reverse"><path d="M0,0 L10,5 L0,10" fill="none" stroke="#1e293b" stroke-width="1.5"/></marker><marker id="arrow-triangle" viewBox="0 0 16 16" refX="15" refY="8" markerWidth="16" markerHeight="16" markerUnits="userSpaceOnUse" orient="auto-start-reverse"><polygon points="0,1 14,8 0,15" fill="#ffffff" stroke="#1e293b" stroke-width="1.5" fill-rule="nonzero"/></marker><marker id="arrow-diamond-filled" viewBox="0 0 14 10" refX="13" refY="5" markerWidth="14" markerHeight="10" markerUnits="userSpaceOnUse" orient="auto-start-reverse"><path d="M0,5 L7,0 L14,5 L7,10 z" fill="#1e293b" stroke="#1e293b" stroke-width="1"/></marker><marker id="arrow-diamond-open" viewBox="0 0 14 10" refX="13" refY="5" markerWidth="14" markerHeight="10" markerUnits="userSpaceOnUse" orient="auto-start-reverse"><path d="M0,5 L7,0 L14,5 L7,10 z" fill="#ffffff" stroke="#1e293b" stroke-width="1"/></marker></defs><text x="32" y="32" font-family="monospace" font-size="18" font-weight="600" fill="#0f172a">Collection Hierarchy</text><polyline class="uml-relation" data-uml-from="Iterable" data-uml-to="Collection" data-uml-arrow="&lt;|.." points="146,142 146,221 146,300" fill="none" stroke="#1e293b" stroke-width="2" stroke-dasharray="5 3" marker-start="url(#arrow-triangle)" /><polyline class="uml-relation" data-uml-from="Collection" data-uml-to="List" data-uml-arrow="&lt;|.." points="146,392 146,471 146,550" fill="none" stroke="#1e293b" stroke-width="2" stroke-dasharray="5 3" marker-start="url(#arrow-triangle)" /><polyline class="uml-relation" data-uml-from="List" data-uml-to="ArrayList" data-uml-arrow="&lt;|.." points="146,626 146,705 146,784" fill="none" stroke="#1e293b" stroke-width="2" stroke-dasharray="5 3" marker-start="url(#arrow-triangle)" /><rect x="66" y="66" width="160" height="76" rx="4" ry="4" fill="#ffffff" stroke="#1e293b" stroke-width="1.5"/><rect x="66" y="66" width="160" height="44" rx="4" ry="4" fill="#dae8fc" stroke="#1e293b" stroke-width="1.5"/><line x1="66" y1="110" x2="226" y2="110" stroke="#1e293b" stroke-width="1"/><text x="146" y="79" text-anchor="middle" font-family="monospace" font-size="10" fill="#0f172a">«interface»</text><text x="146" y="101" text-anchor="middle" font-family="monospace" font-size="13" font-weight="600" fill="#0f172a" font-style="italic">Iterable</text><text class="uml-member" data-uml-visibility="public" x="76" y="126" font-family="monospace" font-size="11" fill="#16a34a" font-style="italic">+iterator()</text><rect x="66" y="300" width="160" height="92" rx="4" ry="4" fill="#ffffff" stroke="#1e293b" stroke-width="1.5"/><rect x="66" y="300" width="160" height="44" rx="4" ry="4" fill="#dae8fc" stroke="#1e293b" stroke-width="1.5"/><line x1="66" y1="344" x2="226" y2="344" stroke="#1e293b" stroke-width="1"/><rect class="uml-edge-label-bg" data-uml-label-role="edge-background" x="106" y="300" width="80" height="18" fill="white" opacity="0.85"/><text x="146" y="313" text-anchor="middle" font-family="monospace" font-size="10" fill="#0f172a">«interface»</text><text x="146" y="335" text-anchor="middle" font-family="monospace" font-size="13" font-weight="600" fill="#0f172a" font-style="italic">Collection</text><text class="uml-member" data-uml-visibility="public" x="76" y="360" font-family="monospace" font-size="11" fill="#16a34a" font-style="italic">+add(e): boolean</text><text class="uml-member" data-uml-visibility="public" x="76" y="376" font-family="monospace" font-size="11" fill="#16a34a" font-style="italic">+size(): int</text><rect x="66" y="550" width="160" height="76" rx="4" ry="4" fill="#ffffff" stroke="#1e293b" stroke-width="1.5"/><rect x="66" y="550" width="160" height="44" rx="4" ry="4" fill="#dae8fc" stroke="#1e293b" stroke-width="1.5"/><line x1="66" y1="594" x2="226" y2="594" stroke="#1e293b" stroke-width="1"/><rect class="uml-edge-label-bg" data-uml-label-role="edge-background" x="106" y="550" width="80" height="18" fill="white" opacity="0.85"/><text x="146" y="563" text-anchor="middle" font-family="monospace" font-size="10" fill="#0f172a">«interface»</text><text x="146" y="585" text-anchor="middle" font-family="monospace" font-size="13" font-weight="600" fill="#0f172a" font-style="italic">List</text><text class="uml-member" data-uml-visibility="public" x="76" y="610" font-family="monospace" font-size="11" fill="#16a34a" font-style="italic">+get(i: int)</text><rect x="66" y="784" width="160" height="94" rx="4" ry="4" fill="#ffffff" stroke="#1e293b" stroke-width="1.5"/><rect x="66" y="784" width="160" height="30" rx="4" ry="4" fill="#dbeafe" stroke="#1e293b" stroke-width="1.5"/><line x1="66" y1="814" x2="226" y2="814" stroke="#1e293b" stroke-width="1"/><text x="146" y="805" text-anchor="middle" font-family="monospace" font-size="13" font-weight="600" fill="#0f172a">ArrayList</text><text class="uml-member" data-uml-visibility="public" x="76" y="830" font-family="monospace" font-size="11" fill="#16a34a">+add(e): boolean</text><text class="uml-member" data-uml-visibility="public" x="76" y="846" font-family="monospace" font-size="11" fill="#16a34a">+get(i: int)</text><text class="uml-member" data-uml-visibility="public" x="76" y="862" font-family="monospace" font-size="11" fill="#16a34a">+size(): int</text></svg>