<svg xmlns="http://www.w3.org/2000/svg" width="430" height="386" viewBox="0 0 430 386" data-orientation="TopToBottom"><rect width="100%" height="100%" fill="#ffffff"/><defs><marker id="arrow-open" viewBox="0 0 10 10" refX="9" refY="5" markerWidth="10" markerHeight="10" markerUnits="userSpaceOnUse" orient="auto-start-reverse"><path d="M0,0 L10,5 L0,10" fill="none" stroke="#1e293b" stroke-width="1.5"/></marker><marker id="arrow-triangle" viewBox="0 0 16 16" refX="15" refY="8" markerWidth="16" markerHeight="16" markerUnits="userSpaceOnUse" orient="auto-start-reverse"><polygon points="0,1 14,8 0,15" fill="#ffffff" stroke="#1e293b" stroke-width="1.5" fill-rule="nonzero"/></marker><marker id="arrow-diamond-filled" viewBox="0 0 14 10" refX="13" refY="5" markerWidth="14" markerHeight="10" markerUnits="userSpaceOnUse" orient="auto-start-reverse"><path d="M0,5 L7,0 L14,5 L7,10 z" fill="#1e293b" stroke="#1e293b" stroke-width="1"/></marker><marker id="arrow-diamond-open" viewBox="0 0 14 10" refX="13" refY="5" markerWidth="14" markerHeight="10" markerUnits="userSpaceOnUse" orient="auto-start-reverse"><path d="M0,5 L7,0 L14,5 L7,10 z" fill="#ffffff" stroke="#1e293b" stroke-width="1"/></marker></defs><defs><marker id="arrow-triangle-filled" viewBox="0 0 12 12" refX="11" refY="6" markerWidth="12" markerHeight="12" markerUnits="userSpaceOnUse" orient="auto-start-reverse"><polygon points="0,0 12,6 0,12" fill="#1e293b" stroke="#1e293b" stroke-width="1.5"/></marker><marker id="arrow-box-filled" viewBox="0 0 12 12" refX="11" refY="6" markerWidth="12" markerHeight="12" markerUnits="userSpaceOnUse" orient="auto-start-reverse"><rect x="2" y="2" width="8" height="8" fill="#1e293b" stroke="#1e293b" stroke-width="1.5"/></marker><marker id="arrow-plus" viewBox="0 0 12 12" refX="11" refY="6" markerWidth="12" markerHeight="12" markerUnits="userSpaceOnUse" orient="auto-start-reverse"><path d="M6,1 L6,11 M1,6 L11,6" fill="none" stroke="#1e293b" stroke-width="1.8" stroke-linecap="round"/></marker><marker id="arrow-cross" viewBox="0 0 12 12" refX="11" refY="6" markerWidth="12" markerHeight="12" markerUnits="userSpaceOnUse" orient="auto-start-reverse"><path d="M2,2 L10,10 M10,2 L2,10" fill="none" stroke="#1e293b" stroke-width="1.8" stroke-linecap="round"/></marker><marker id="arrow-bracket-open" viewBox="0 0 12 14" refX="11" refY="7" markerWidth="12" markerHeight="14" markerUnits="userSpaceOnUse" orient="auto-start-reverse"><path d="M10,1 L4,1 L4,13 L10,13" fill="none" stroke="#1e293b" stroke-width="1.8" stroke-linecap="round" stroke-linejoin="round"/></marker><marker id="arrow-circle-open" viewBox="0 0 12 12" refX="11" refY="6" markerWidth="12" markerHeight="12" markerUnits="userSpaceOnUse" orient="auto-start-reverse"><circle cx="6" cy="6" r="4" fill="#ffffff" stroke="#1e293b" stroke-width="1.5"/></marker><marker id="arrow-circle-filled" viewBox="0 0 12 12" refX="11" refY="6" markerWidth="12" markerHeight="12" markerUnits="userSpaceOnUse" orient="auto-start-reverse"><circle cx="6" cy="6" r="4" fill="#1e293b" stroke="#1e293b" stroke-width="1.5"/></marker><marker id="arrow-double-open" viewBox="0 0 16 12" refX="15" refY="6" markerWidth="16" markerHeight="12" markerUnits="userSpaceOnUse" orient="auto-start-reverse"><path d="M0,1 L8,6 L0,11 M7,1 L15,6 L7,11" fill="none" stroke="#1e293b" stroke-width="1.5" stroke-linejoin="round"/></marker></defs><text x="8" y="32" font-family="monospace" font-size="18" font-weight="600" fill="#0f172a">Factory Pattern</text><polyline class="uml-relation" data-uml-from="AnimalFactory" data-uml-to="DogFactory" data-uml-arrow="&lt;|--" points="216,97 141,97 331,189 256,189" fill="none" stroke="#1e293b" stroke-width="2" marker-start="url(#arrow-triangle)" /><polyline class="uml-relation" data-uml-from="AnimalFactory" data-uml-to="CatFactory" data-uml-arrow="&lt;|--" points="141,128 141,143 141,158" fill="none" stroke="#1e293b" stroke-width="2" marker-start="url(#arrow-triangle)" /><polyline class="uml-relation" data-uml-from="Animal" data-uml-to="Dog" data-uml-arrow="&lt;|--" points="331,128 331,147 422,147 422,231 331,231 331,250" fill="none" stroke="#1e293b" stroke-width="2" marker-start="url(#arrow-triangle)" /><polyline class="uml-relation" data-uml-from="Animal" data-uml-to="Cat" data-uml-arrow="&lt;|--" points="256,97 331,97 232,154 232,239 141,281 216,281" fill="none" stroke="#1e293b" stroke-width="2" marker-start="url(#arrow-triangle)" /><polyline class="uml-relation" data-uml-from="DogFactory" data-uml-to="Dog" data-uml-arrow="--&gt;" points="331,220 331,235 331,250" fill="none" stroke="#1e293b" stroke-width="2" marker-end="url(#arrow-open)" /><polyline class="uml-relation" data-uml-from="CatFactory" data-uml-to="Cat" data-uml-arrow="--&gt;" points="141,220 141,235 141,250" fill="none" stroke="#1e293b" stroke-width="2" marker-end="url(#arrow-open)" /><rect class="uml-node uml-class" data-uml-id="AnimalFactory" x="66" y="66" width="150" height="62" rx="4" ry="4" fill="#ffffff" stroke="#1e293b" stroke-width="1.5"/><rect x="66" y="66" width="150" height="30" rx="4" ry="4" fill="#dbeafe" stroke="#1e293b" stroke-width="1.5"/><line x1="66" y1="96" x2="216" y2="96" stroke="#1e293b" stroke-width="1"/><circle class="uml-class-badge" cx="78" cy="83" r="8" fill="#A2D5A2" stroke="#2E7D32" stroke-width="1"/><text class="uml-class-badge-letter" x="78" y="86" text-anchor="middle" font-family="monospace" font-size="9" font-weight="700" fill="#2E7D32">C</text><text x="141" y="87" text-anchor="middle" font-family="monospace" font-size="13" font-weight="600" fill="#0f172a">AnimalFactory</text><circle class="uml-vis-glyph" cx="80" cy="107" r="4" fill="#16a34a" stroke="#16a34a" stroke-width="1"/><text class="uml-member" data-uml-visibility="public" x="90" y="112" font-family="monospace" font-size="11" fill="#16a34a">create(): Animal</text><rect class="uml-node uml-class" data-uml-id="Animal" x="256" y="66" width="150" height="62" rx="4" ry="4" fill="#ffffff" stroke="#1e293b" stroke-width="1.5"/><rect x="256" y="66" width="150" height="30" rx="4" ry="4" fill="#dbeafe" stroke="#1e293b" stroke-width="1.5"/><line x1="256" y1="96" x2="406" y2="96" stroke="#1e293b" stroke-width="1"/><circle class="uml-class-badge" cx="268" cy="83" r="8" fill="#A2D5A2" stroke="#2E7D32" stroke-width="1"/><text class="uml-class-badge-letter" x="268" y="86" text-anchor="middle" font-family="monospace" font-size="9" font-weight="700" fill="#2E7D32">C</text><text x="331" y="87" text-anchor="middle" font-family="monospace" font-size="13" font-weight="600" fill="#0f172a">Animal</text><circle class="uml-vis-glyph" cx="270" cy="107" r="4" fill="#16a34a" stroke="#16a34a" stroke-width="1"/><text class="uml-member" data-uml-visibility="public" x="280" y="112" font-family="monospace" font-size="11" fill="#16a34a">speak(): String</text><rect class="uml-node uml-class" data-uml-id="DogFactory" x="256" y="158" width="150" height="62" rx="4" ry="4" fill="#ffffff" stroke="#1e293b" stroke-width="1.5"/><rect x="256" y="158" width="150" height="30" rx="4" ry="4" fill="#dbeafe" stroke="#1e293b" stroke-width="1.5"/><line x1="256" y1="188" x2="406" y2="188" stroke="#1e293b" stroke-width="1"/><circle class="uml-class-badge" cx="268" cy="175" r="8" fill="#A2D5A2" stroke="#2E7D32" stroke-width="1"/><rect class="uml-edge-label-bg" data-uml-label-role="edge-background" x="263" y="165" width="10" height="18" fill="white" opacity="0.85"/><text class="uml-class-badge-letter" x="268" y="178" text-anchor="middle" font-family="monospace" font-size="9" font-weight="700" fill="#2E7D32">C</text><rect class="uml-edge-label-bg" data-uml-label-role="edge-background" x="294" y="166" width="74" height="18" fill="white" opacity="0.85"/><text x="331" y="179" text-anchor="middle" font-family="monospace" font-size="13" font-weight="600" fill="#0f172a">DogFactory</text><circle class="uml-vis-glyph" cx="270" cy="199" r="4" fill="#16a34a" stroke="#16a34a" stroke-width="1"/><rect class="uml-edge-label-bg" data-uml-label-role="edge-background" x="278" y="191" width="116" height="18" fill="white" opacity="0.85"/><text class="uml-member" data-uml-visibility="public" x="280" y="204" font-family="monospace" font-size="11" fill="#16a34a">create(): Animal</text><rect class="uml-node uml-class" data-uml-id="CatFactory" x="66" y="158" width="150" height="62" rx="4" ry="4" fill="#ffffff" stroke="#1e293b" stroke-width="1.5"/><rect x="66" y="158" width="150" height="30" rx="4" ry="4" fill="#dbeafe" stroke="#1e293b" stroke-width="1.5"/><line x1="66" y1="188" x2="216" y2="188" stroke="#1e293b" stroke-width="1"/><circle class="uml-class-badge" cx="78" cy="175" r="8" fill="#A2D5A2" stroke="#2E7D32" stroke-width="1"/><text class="uml-class-badge-letter" x="78" y="178" text-anchor="middle" font-family="monospace" font-size="9" font-weight="700" fill="#2E7D32">C</text><rect class="uml-edge-label-bg" data-uml-label-role="edge-background" x="104" y="166" width="74" height="18" fill="white" opacity="0.85"/><text x="141" y="179" text-anchor="middle" font-family="monospace" font-size="13" font-weight="600" fill="#0f172a">CatFactory</text><circle class="uml-vis-glyph" cx="80" cy="199" r="4" fill="#16a34a" stroke="#16a34a" stroke-width="1"/><text class="uml-member" data-uml-visibility="public" x="90" y="204" font-family="monospace" font-size="11" fill="#16a34a">create(): Animal</text><rect class="uml-node uml-class" data-uml-id="Dog" x="256" y="250" width="150" height="62" rx="4" ry="4" fill="#ffffff" stroke="#1e293b" stroke-width="1.5"/><rect x="256" y="250" width="150" height="30" rx="4" ry="4" fill="#dbeafe" stroke="#1e293b" stroke-width="1.5"/><line x1="256" y1="280" x2="406" y2="280" stroke="#1e293b" stroke-width="1"/><circle class="uml-class-badge" cx="268" cy="267" r="8" fill="#A2D5A2" stroke="#2E7D32" stroke-width="1"/><text class="uml-class-badge-letter" x="268" y="270" text-anchor="middle" font-family="monospace" font-size="9" font-weight="700" fill="#2E7D32">C</text><text x="331" y="271" text-anchor="middle" font-family="monospace" font-size="13" font-weight="600" fill="#0f172a">Dog</text><circle class="uml-vis-glyph" cx="270" cy="291" r="4" fill="#16a34a" stroke="#16a34a" stroke-width="1"/><text class="uml-member" data-uml-visibility="public" x="280" y="296" font-family="monospace" font-size="11" fill="#16a34a">speak(): String</text><rect class="uml-node uml-class" data-uml-id="Cat" x="66" y="250" width="150" height="62" rx="4" ry="4" fill="#ffffff" stroke="#1e293b" stroke-width="1.5"/><rect x="66" y="250" width="150" height="30" rx="4" ry="4" fill="#dbeafe" stroke="#1e293b" stroke-width="1.5"/><line x1="66" y1="280" x2="216" y2="280" stroke="#1e293b" stroke-width="1"/><circle class="uml-class-badge" cx="78" cy="267" r="8" fill="#A2D5A2" stroke="#2E7D32" stroke-width="1"/><text class="uml-class-badge-letter" x="78" y="270" text-anchor="middle" font-family="monospace" font-size="9" font-weight="700" fill="#2E7D32">C</text><text x="141" y="271" text-anchor="middle" font-family="monospace" font-size="13" font-weight="600" fill="#0f172a">Cat</text><circle class="uml-vis-glyph" cx="80" cy="291" r="4" fill="#16a34a" stroke="#16a34a" stroke-width="1"/><rect class="uml-edge-label-bg" data-uml-label-role="edge-background" x="88" y="283" width="109" height="18" fill="white" opacity="0.85"/><text class="uml-member" data-uml-visibility="public" x="90" y="296" font-family="monospace" font-size="11" fill="#16a34a">speak(): String</text></svg>