<svg xmlns="http://www.w3.org/2000/svg" width="828" height="502" viewBox="0 0 828 502"><rect width="100%" height="100%" fill="#ffffff"/><defs><marker id="arrow-open" viewBox="0 0 10 10" refX="9" refY="5" markerWidth="10" markerHeight="10" markerUnits="userSpaceOnUse" orient="auto-start-reverse"><path d="M0,0 L10,5 L0,10" fill="none" stroke="#1e293b" stroke-width="1.5"/></marker><marker id="arrow-triangle" viewBox="0 0 16 16" refX="15" refY="8" markerWidth="16" markerHeight="16" markerUnits="userSpaceOnUse" orient="auto-start-reverse"><polygon points="0,1 14,8 0,15" fill="#ffffff" stroke="#1e293b" stroke-width="1.5" fill-rule="nonzero"/></marker><marker id="arrow-diamond-filled" viewBox="0 0 14 10" refX="13" refY="5" markerWidth="14" markerHeight="10" markerUnits="userSpaceOnUse" orient="auto-start-reverse"><path d="M0,5 L7,0 L14,5 L7,10 z" fill="#1e293b" stroke="#1e293b" stroke-width="1"/></marker><marker id="arrow-diamond-open" viewBox="0 0 14 10" refX="13" refY="5" markerWidth="14" markerHeight="10" markerUnits="userSpaceOnUse" orient="auto-start-reverse"><path d="M0,5 L7,0 L14,5 L7,10 z" fill="#ffffff" stroke="#1e293b" stroke-width="1"/></marker></defs><text x="32" y="32" font-family="monospace" font-size="18" font-weight="600" fill="#0f172a">Observer Pattern</text><polyline class="uml-relation" data-uml-from="EventBus" data-uml-to="Subject" data-uml-arrow="&lt;|--" points="150,160 150,227 274,227 274,318" fill="none" stroke="#1e293b" stroke-width="2" marker-start="url(#arrow-triangle)" /><polyline class="uml-relation" data-uml-from="UIComponent" data-uml-to="Observer" data-uml-arrow="&lt;|--" points="646,128 646,251 522,251 522,318" fill="none" stroke="#1e293b" stroke-width="2" marker-start="url(#arrow-triangle)" /><polyline class="uml-relation" data-uml-from="Logger" data-uml-to="Observer" data-uml-arrow="&lt;|--" points="398,128 398,243 522,243 522,318" fill="none" stroke="#1e293b" stroke-width="2" marker-start="url(#arrow-triangle)" /><polyline class="uml-relation" data-uml-from="EventBus" data-uml-to="Observer" data-uml-arrow="--&gt;" points="150,160 150,235 522,235 522,318" fill="none" stroke="#1e293b" stroke-width="2" marker-end="url(#arrow-open)" /><rect x="438" y="318" width="168" height="62" rx="4" ry="4" fill="#ffffff" stroke="#1e293b" stroke-width="1.5"/><rect x="438" y="318" width="168" height="30" rx="4" ry="4" fill="#dbeafe" stroke="#1e293b" stroke-width="1.5"/><line x1="438" y1="348" x2="606" y2="348" stroke="#1e293b" stroke-width="1"/><text x="522" y="339" text-anchor="middle" font-family="monospace" font-size="13" font-weight="600" fill="#0f172a">Observer</text><text class="uml-member" data-uml-visibility="public" x="448" y="364" font-family="monospace" font-size="11" fill="#16a34a">+update(event): void</text><rect x="190" y="318" width="168" height="78" rx="4" ry="4" fill="#ffffff" stroke="#1e293b" stroke-width="1.5"/><rect x="190" y="318" width="168" height="30" rx="4" ry="4" fill="#dbeafe" stroke="#1e293b" stroke-width="1.5"/><line x1="190" y1="348" x2="358" y2="348" stroke="#1e293b" stroke-width="1"/><text x="274" y="339" text-anchor="middle" font-family="monospace" font-size="13" font-weight="600" fill="#0f172a">Subject</text><text class="uml-member" data-uml-visibility="public" x="200" y="364" font-family="monospace" font-size="11" fill="#16a34a">+subscribe(o): void</text><text class="uml-member" data-uml-visibility="public" x="200" y="380" font-family="monospace" font-size="11" fill="#16a34a">+notify(): void</text><rect x="66" y="66" width="168" height="94" rx="4" ry="4" fill="#ffffff" stroke="#1e293b" stroke-width="1.5"/><rect x="66" y="66" width="168" height="30" rx="4" ry="4" fill="#dbeafe" stroke="#1e293b" stroke-width="1.5"/><line x1="66" y1="96" x2="234" y2="96" stroke="#1e293b" stroke-width="1"/><text x="150" y="87" text-anchor="middle" font-family="monospace" font-size="13" font-weight="600" fill="#0f172a">EventBus</text><text class="uml-member" data-uml-visibility="private" x="76" y="112" font-family="monospace" font-size="11" fill="#dc2626">-observers: List</text><line x1="66" y1="120" x2="234" y2="120" stroke="#1e293b" stroke-width="1"/><text class="uml-member" data-uml-visibility="public" x="76" y="128" font-family="monospace" font-size="11" fill="#16a34a">+subscribe(o): void</text><text class="uml-member" data-uml-visibility="public" x="76" y="144" font-family="monospace" font-size="11" fill="#16a34a">+notify(): void</text><rect x="562" y="66" width="168" height="62" rx="4" ry="4" fill="#ffffff" stroke="#1e293b" stroke-width="1.5"/><rect x="562" y="66" width="168" height="30" rx="4" ry="4" fill="#dbeafe" stroke="#1e293b" stroke-width="1.5"/><line x1="562" y1="96" x2="730" y2="96" stroke="#1e293b" stroke-width="1"/><text x="646" y="87" text-anchor="middle" font-family="monospace" font-size="13" font-weight="600" fill="#0f172a">UIComponent</text><text class="uml-member" data-uml-visibility="public" x="572" y="112" font-family="monospace" font-size="11" fill="#16a34a">+update(event): void</text><rect x="314" y="66" width="168" height="62" rx="4" ry="4" fill="#ffffff" stroke="#1e293b" stroke-width="1.5"/><rect x="314" y="66" width="168" height="30" rx="4" ry="4" fill="#dbeafe" stroke="#1e293b" stroke-width="1.5"/><line x1="314" y1="96" x2="482" y2="96" stroke="#1e293b" stroke-width="1"/><text x="398" y="87" text-anchor="middle" font-family="monospace" font-size="13" font-weight="600" fill="#0f172a">Logger</text><text class="uml-member" data-uml-visibility="public" x="324" y="112" font-family="monospace" font-size="11" fill="#16a34a">+update(event): void</text></svg>