<svg xmlns="http://www.w3.org/2000/svg" width="766" height="502" viewBox="0 0 766 502" data-orientation="TopToBottom"><rect width="100%" height="100%" fill="#ffffff"/><defs><marker id="arrow-open" viewBox="0 0 10 10" refX="9" refY="5" markerWidth="10" markerHeight="10" markerUnits="userSpaceOnUse" orient="auto-start-reverse"><path d="M0,0 L10,5 L0,10" fill="none" stroke="#1e293b" stroke-width="1.5"/></marker><marker id="arrow-triangle" viewBox="0 0 16 16" refX="15" refY="8" markerWidth="16" markerHeight="16" markerUnits="userSpaceOnUse" orient="auto-start-reverse"><polygon points="0,1 14,8 0,15" fill="#ffffff" stroke="#1e293b" stroke-width="1.5" fill-rule="nonzero"/></marker><marker id="arrow-diamond-filled" viewBox="0 0 14 10" refX="13" refY="5" markerWidth="14" markerHeight="10" markerUnits="userSpaceOnUse" orient="auto-start-reverse"><path d="M0,5 L7,0 L14,5 L7,10 z" fill="#1e293b" stroke="#1e293b" stroke-width="1"/></marker><marker id="arrow-diamond-open" viewBox="0 0 14 10" refX="13" refY="5" markerWidth="14" markerHeight="10" markerUnits="userSpaceOnUse" orient="auto-start-reverse"><path d="M0,5 L7,0 L14,5 L7,10 z" fill="#ffffff" stroke="#1e293b" stroke-width="1"/></marker></defs><defs><marker id="arrow-triangle-filled" viewBox="0 0 12 12" refX="11" refY="6" markerWidth="12" markerHeight="12" markerUnits="userSpaceOnUse" orient="auto-start-reverse"><polygon points="0,0 12,6 0,12" fill="#1e293b" stroke="#1e293b" stroke-width="1.5"/></marker><marker id="arrow-box-filled" viewBox="0 0 12 12" refX="11" refY="6" markerWidth="12" markerHeight="12" markerUnits="userSpaceOnUse" orient="auto-start-reverse"><rect x="2" y="2" width="8" height="8" fill="#1e293b" stroke="#1e293b" stroke-width="1.5"/></marker><marker id="arrow-plus" viewBox="0 0 12 12" refX="11" refY="6" markerWidth="12" markerHeight="12" markerUnits="userSpaceOnUse" orient="auto-start-reverse"><path d="M6,1 L6,11 M1,6 L11,6" fill="none" stroke="#1e293b" stroke-width="1.8" stroke-linecap="round"/></marker><marker id="arrow-cross" viewBox="0 0 12 12" refX="11" refY="6" markerWidth="12" markerHeight="12" markerUnits="userSpaceOnUse" orient="auto-start-reverse"><path d="M2,2 L10,10 M10,2 L2,10" fill="none" stroke="#1e293b" stroke-width="1.8" stroke-linecap="round"/></marker><marker id="arrow-bracket-open" viewBox="0 0 12 14" refX="11" refY="7" markerWidth="12" markerHeight="14" markerUnits="userSpaceOnUse" orient="auto-start-reverse"><path d="M10,1 L4,1 L4,13 L10,13" fill="none" stroke="#1e293b" stroke-width="1.8" stroke-linecap="round" stroke-linejoin="round"/></marker><marker id="arrow-circle-open" viewBox="0 0 12 12" refX="11" refY="6" markerWidth="12" markerHeight="12" markerUnits="userSpaceOnUse" orient="auto-start-reverse"><circle cx="6" cy="6" r="4" fill="#ffffff" stroke="#1e293b" stroke-width="1.5"/></marker><marker id="arrow-circle-filled" viewBox="0 0 12 12" refX="11" refY="6" markerWidth="12" markerHeight="12" markerUnits="userSpaceOnUse" orient="auto-start-reverse"><circle cx="6" cy="6" r="4" fill="#1e293b" stroke="#1e293b" stroke-width="1.5"/></marker><marker id="arrow-double-open" viewBox="0 0 16 12" refX="15" refY="6" markerWidth="16" markerHeight="12" markerUnits="userSpaceOnUse" orient="auto-start-reverse"><path d="M0,1 L8,6 L0,11 M7,1 L15,6 L7,11" fill="none" stroke="#1e293b" stroke-width="1.5" stroke-linejoin="round"/></marker></defs><text x="32" y="32" font-family="monospace" font-size="18" font-weight="600" fill="#0f172a">Observer Pattern</text><path class="uml-relation" data-uml-from="EventBus" data-uml-to="Subject" data-uml-arrow="&lt;|--" d="M 148,160 C 148.0,167.3 127.7,178.3 148.0,182.0 C 168.3,185.7 249.7,159.3 270.0,182.0 C 290.3,204.7 270.0,272.7 270.0,318.0" fill="none" stroke="#1e293b" stroke-width="2" marker-start="url(#arrow-triangle)" /><path class="uml-relation" data-uml-from="UIComponent" data-uml-to="Observer" data-uml-arrow="&lt;|--" d="M 636,128 C 636.0,183.7 656.3,267.2 636.0,295.0 C 615.7,322.8 534.3,291.2 514.0,295.0 C 493.7,298.8 514.0,310.3 514.0,318.0" fill="none" stroke="#1e293b" stroke-width="2" marker-start="url(#arrow-triangle)" /><path class="uml-relation" data-uml-from="Logger" data-uml-to="Observer" data-uml-arrow="&lt;|--" d="M 392,128 C 392.0,171.0 371.7,235.5 392.0,257.0 C 412.3,278.5 493.7,246.8 514.0,257.0 C 534.3,267.2 514.0,297.7 514.0,318.0" fill="none" stroke="#1e293b" stroke-width="2" marker-start="url(#arrow-triangle)" /><path class="uml-relation" data-uml-from="EventBus" data-uml-to="Observer" data-uml-arrow="--&gt;" d="M 230,113 C 230.0,148.7 196.3,202.2 230.0,220.0 C 263.7,237.8 398.3,198.5 432.0,220.0 C 465.7,241.5 432.0,306.0 432.0,349.0" fill="none" stroke="#1e293b" stroke-width="2" marker-end="url(#arrow-open)" /><rect x="432" y="318" width="164" height="62" rx="4" ry="4" fill="#ffffff" stroke="#1e293b" stroke-width="1.5"/><rect x="432" y="318" width="164" height="30" rx="4" ry="4" fill="#dbeafe" stroke="#1e293b" stroke-width="1.5"/><line x1="432" y1="348" x2="596" y2="348" stroke="#1e293b" stroke-width="1"/><text x="514" y="339" text-anchor="middle" font-family="monospace" font-size="13" font-weight="600" fill="#0f172a">Observer</text><text class="uml-member" data-uml-visibility="public" x="442" y="364" font-family="monospace" font-size="11" fill="#16a34a">+update(event): void</text><rect x="188" y="318" width="164" height="78" rx="4" ry="4" fill="#ffffff" stroke="#1e293b" stroke-width="1.5"/><rect x="188" y="318" width="164" height="30" rx="4" ry="4" fill="#dbeafe" stroke="#1e293b" stroke-width="1.5"/><line x1="188" y1="348" x2="352" y2="348" stroke="#1e293b" stroke-width="1"/><text x="270" y="339" text-anchor="middle" font-family="monospace" font-size="13" font-weight="600" fill="#0f172a">Subject</text><text class="uml-member" data-uml-visibility="public" x="198" y="364" font-family="monospace" font-size="11" fill="#16a34a">+subscribe(o): void</text><text class="uml-member" data-uml-visibility="public" x="198" y="380" font-family="monospace" font-size="11" fill="#16a34a">+notify(): void</text><rect x="66" y="66" width="164" height="94" rx="4" ry="4" fill="#ffffff" stroke="#1e293b" stroke-width="1.5"/><rect x="66" y="66" width="164" height="30" rx="4" ry="4" fill="#dbeafe" stroke="#1e293b" stroke-width="1.5"/><line x1="66" y1="96" x2="230" y2="96" stroke="#1e293b" stroke-width="1"/><text x="148" y="87" text-anchor="middle" font-family="monospace" font-size="13" font-weight="600" fill="#0f172a">EventBus</text><text class="uml-member" data-uml-visibility="private" x="76" y="112" font-family="monospace" font-size="11" fill="#dc2626">-observers: List</text><line x1="66" y1="120" x2="230" y2="120" stroke="#1e293b" stroke-width="1"/><text class="uml-member" data-uml-visibility="public" x="76" y="128" font-family="monospace" font-size="11" fill="#16a34a">+subscribe(o): void</text><text class="uml-member" data-uml-visibility="public" x="76" y="144" font-family="monospace" font-size="11" fill="#16a34a">+notify(): void</text><rect x="554" y="66" width="164" height="62" rx="4" ry="4" fill="#ffffff" stroke="#1e293b" stroke-width="1.5"/><rect x="554" y="66" width="164" height="30" rx="4" ry="4" fill="#dbeafe" stroke="#1e293b" stroke-width="1.5"/><line x1="554" y1="96" x2="718" y2="96" stroke="#1e293b" stroke-width="1"/><text x="636" y="87" text-anchor="middle" font-family="monospace" font-size="13" font-weight="600" fill="#0f172a">UIComponent</text><text class="uml-member" data-uml-visibility="public" x="564" y="112" font-family="monospace" font-size="11" fill="#16a34a">+update(event): void</text><rect x="310" y="66" width="164" height="62" rx="4" ry="4" fill="#ffffff" stroke="#1e293b" stroke-width="1.5"/><rect x="310" y="66" width="164" height="30" rx="4" ry="4" fill="#dbeafe" stroke="#1e293b" stroke-width="1.5"/><line x1="310" y1="96" x2="474" y2="96" stroke="#1e293b" stroke-width="1"/><text x="392" y="87" text-anchor="middle" font-family="monospace" font-size="13" font-weight="600" fill="#0f172a">Logger</text><text class="uml-member" data-uml-visibility="public" x="320" y="112" font-family="monospace" font-size="11" fill="#16a34a">+update(event): void</text></svg>