<svg xmlns="http://www.w3.org/2000/svg" width="766" height="502" viewBox="0 0 766 502" data-orientation="TopToBottom"><rect width="100%" height="100%" fill="#ffffff"/><defs><marker id="arrow-open" viewBox="0 0 10 10" refX="9" refY="5" markerWidth="10" markerHeight="10" markerUnits="userSpaceOnUse" orient="auto-start-reverse"><path d="M0,0 L10,5 L0,10" fill="none" stroke="#1e293b" stroke-width="1.5"/></marker><marker id="arrow-triangle" viewBox="0 0 16 16" refX="15" refY="8" markerWidth="16" markerHeight="16" markerUnits="userSpaceOnUse" orient="auto-start-reverse"><polygon points="0,1 14,8 0,15" fill="#ffffff" stroke="#1e293b" stroke-width="1.5" fill-rule="nonzero"/></marker><marker id="arrow-diamond-filled" viewBox="0 0 14 10" refX="13" refY="5" markerWidth="14" markerHeight="10" markerUnits="userSpaceOnUse" orient="auto-start-reverse"><path d="M0,5 L7,0 L14,5 L7,10 z" fill="#1e293b" stroke="#1e293b" stroke-width="1"/></marker><marker id="arrow-diamond-open" viewBox="0 0 14 10" refX="13" refY="5" markerWidth="14" markerHeight="10" markerUnits="userSpaceOnUse" orient="auto-start-reverse"><path d="M0,5 L7,0 L14,5 L7,10 z" fill="#ffffff" stroke="#1e293b" stroke-width="1"/></marker></defs><defs><marker id="arrow-triangle-filled" viewBox="0 0 12 12" refX="11" refY="6" markerWidth="12" markerHeight="12" markerUnits="userSpaceOnUse" orient="auto-start-reverse"><polygon points="0,0 12,6 0,12" fill="#1e293b" stroke="#1e293b" stroke-width="1.5"/></marker><marker id="arrow-box-filled" viewBox="0 0 12 12" refX="11" refY="6" markerWidth="12" markerHeight="12" markerUnits="userSpaceOnUse" orient="auto-start-reverse"><rect x="2" y="2" width="8" height="8" fill="#1e293b" stroke="#1e293b" stroke-width="1.5"/></marker><marker id="arrow-plus" viewBox="0 0 12 12" refX="11" refY="6" markerWidth="12" markerHeight="12" markerUnits="userSpaceOnUse" orient="auto-start-reverse"><path d="M6,1 L6,11 M1,6 L11,6" fill="none" stroke="#1e293b" stroke-width="1.8" stroke-linecap="round"/></marker><marker id="arrow-cross" viewBox="0 0 12 12" refX="11" refY="6" markerWidth="12" markerHeight="12" markerUnits="userSpaceOnUse" orient="auto-start-reverse"><path d="M2,2 L10,10 M10,2 L2,10" fill="none" stroke="#1e293b" stroke-width="1.8" stroke-linecap="round"/></marker><marker id="arrow-bracket-open" viewBox="0 0 12 14" refX="11" refY="7" markerWidth="12" markerHeight="14" markerUnits="userSpaceOnUse" orient="auto-start-reverse"><path d="M10,1 L4,1 L4,13 L10,13" fill="none" stroke="#1e293b" stroke-width="1.8" stroke-linecap="round" stroke-linejoin="round"/></marker><marker id="arrow-circle-open" viewBox="0 0 12 12" refX="11" refY="6" markerWidth="12" markerHeight="12" markerUnits="userSpaceOnUse" orient="auto-start-reverse"><circle cx="6" cy="6" r="4" fill="#ffffff" stroke="#1e293b" stroke-width="1.5"/></marker><marker id="arrow-circle-filled" viewBox="0 0 12 12" refX="11" refY="6" markerWidth="12" markerHeight="12" markerUnits="userSpaceOnUse" orient="auto-start-reverse"><circle cx="6" cy="6" r="4" fill="#1e293b" stroke="#1e293b" stroke-width="1.5"/></marker><marker id="arrow-double-open" viewBox="0 0 16 12" refX="15" refY="6" markerWidth="16" markerHeight="12" markerUnits="userSpaceOnUse" orient="auto-start-reverse"><path d="M0,1 L8,6 L0,11 M7,1 L15,6 L7,11" fill="none" stroke="#1e293b" stroke-width="1.5" stroke-linejoin="round"/></marker></defs><text x="32" y="32" font-family="monospace" font-size="18" font-weight="600" fill="#0f172a">Observer Pattern</text><polyline class="uml-relation" data-uml-from="EventBus" data-uml-to="Subject" data-uml-arrow="&lt;|--" points="148,160 148,182 270,182 270,318" fill="none" stroke="#1e293b" stroke-width="2" marker-start="url(#arrow-triangle)" /><polyline class="uml-relation" data-uml-from="UIComponent" data-uml-to="Observer" data-uml-arrow="&lt;|--" points="636,128 636,295 514,295 514,318" fill="none" stroke="#1e293b" stroke-width="2" marker-start="url(#arrow-triangle)" /><polyline class="uml-relation" data-uml-from="Logger" data-uml-to="Observer" data-uml-arrow="&lt;|--" points="392,128 392,257 514,257 514,318" fill="none" stroke="#1e293b" stroke-width="2" marker-start="url(#arrow-triangle)" /><polyline class="uml-relation" data-uml-from="EventBus" data-uml-to="Observer" data-uml-arrow="--&gt;" points="230,113 230,220 432,220 432,349" fill="none" stroke="#1e293b" stroke-width="2" marker-end="url(#arrow-open)" /><rect x="432" y="318" width="164" height="62" rx="4" ry="4" fill="#ffffff" stroke="#1e293b" stroke-width="1.5"/><rect x="432" y="318" width="164" height="30" rx="4" ry="4" fill="#dbeafe" stroke="#1e293b" stroke-width="1.5"/><line x1="432" y1="348" x2="596" y2="348" stroke="#1e293b" stroke-width="1"/><circle class="uml-class-badge" cx="444" cy="335" r="8" fill="#A2D5A2" stroke="#2E7D32" stroke-width="1"/><text x="444" y="338" text-anchor="middle" font-family="monospace" font-size="9" font-weight="700" fill="#2E7D32">C</text><text x="514" y="339" text-anchor="middle" font-family="monospace" font-size="13" font-weight="600" fill="#0f172a">Observer</text><circle class="uml-vis-glyph" cx="446" cy="359" r="4" fill="#16a34a" stroke="#16a34a" stroke-width="1"/><text class="uml-member" data-uml-visibility="public" x="456" y="364" font-family="monospace" font-size="11" fill="#16a34a">update(event): void</text><rect x="188" y="318" width="164" height="78" rx="4" ry="4" fill="#ffffff" stroke="#1e293b" stroke-width="1.5"/><rect x="188" y="318" width="164" height="30" rx="4" ry="4" fill="#dbeafe" stroke="#1e293b" stroke-width="1.5"/><line x1="188" y1="348" x2="352" y2="348" stroke="#1e293b" stroke-width="1"/><circle class="uml-class-badge" cx="200" cy="335" r="8" fill="#A2D5A2" stroke="#2E7D32" stroke-width="1"/><text x="200" y="338" text-anchor="middle" font-family="monospace" font-size="9" font-weight="700" fill="#2E7D32">C</text><text x="270" y="339" text-anchor="middle" font-family="monospace" font-size="13" font-weight="600" fill="#0f172a">Subject</text><circle class="uml-vis-glyph" cx="202" cy="359" r="4" fill="#16a34a" stroke="#16a34a" stroke-width="1"/><text class="uml-member" data-uml-visibility="public" x="212" y="364" font-family="monospace" font-size="11" fill="#16a34a">subscribe(o): void</text><circle class="uml-vis-glyph" cx="202" cy="375" r="4" fill="#16a34a" stroke="#16a34a" stroke-width="1"/><text class="uml-member" data-uml-visibility="public" x="212" y="380" font-family="monospace" font-size="11" fill="#16a34a">notify(): void</text><rect x="66" y="66" width="164" height="94" rx="4" ry="4" fill="#ffffff" stroke="#1e293b" stroke-width="1.5"/><rect x="66" y="66" width="164" height="30" rx="4" ry="4" fill="#dbeafe" stroke="#1e293b" stroke-width="1.5"/><line x1="66" y1="96" x2="230" y2="96" stroke="#1e293b" stroke-width="1"/><circle class="uml-class-badge" cx="78" cy="83" r="8" fill="#A2D5A2" stroke="#2E7D32" stroke-width="1"/><text x="78" y="86" text-anchor="middle" font-family="monospace" font-size="9" font-weight="700" fill="#2E7D32">C</text><text x="148" y="87" text-anchor="middle" font-family="monospace" font-size="13" font-weight="600" fill="#0f172a">EventBus</text><polygon class="uml-vis-glyph" points="80,102 84,107 80,112 76,107" fill="#dc2626" stroke="#dc2626" stroke-width="0.5"/><text class="uml-member" data-uml-visibility="private" x="90" y="112" font-family="monospace" font-size="11" fill="#dc2626">observers: List</text><line x1="66" y1="120" x2="230" y2="120" stroke="#1e293b" stroke-width="1"/><circle class="uml-vis-glyph" cx="80" cy="123" r="4" fill="#16a34a" stroke="#16a34a" stroke-width="1"/><text class="uml-member" data-uml-visibility="public" x="90" y="128" font-family="monospace" font-size="11" fill="#16a34a">subscribe(o): void</text><circle class="uml-vis-glyph" cx="80" cy="139" r="4" fill="#16a34a" stroke="#16a34a" stroke-width="1"/><text class="uml-member" data-uml-visibility="public" x="90" y="144" font-family="monospace" font-size="11" fill="#16a34a">notify(): void</text><rect x="554" y="66" width="164" height="62" rx="4" ry="4" fill="#ffffff" stroke="#1e293b" stroke-width="1.5"/><rect x="554" y="66" width="164" height="30" rx="4" ry="4" fill="#dbeafe" stroke="#1e293b" stroke-width="1.5"/><line x1="554" y1="96" x2="718" y2="96" stroke="#1e293b" stroke-width="1"/><circle class="uml-class-badge" cx="566" cy="83" r="8" fill="#A2D5A2" stroke="#2E7D32" stroke-width="1"/><text x="566" y="86" text-anchor="middle" font-family="monospace" font-size="9" font-weight="700" fill="#2E7D32">C</text><text x="636" y="87" text-anchor="middle" font-family="monospace" font-size="13" font-weight="600" fill="#0f172a">UIComponent</text><circle class="uml-vis-glyph" cx="568" cy="107" r="4" fill="#16a34a" stroke="#16a34a" stroke-width="1"/><text class="uml-member" data-uml-visibility="public" x="578" y="112" font-family="monospace" font-size="11" fill="#16a34a">update(event): void</text><rect x="310" y="66" width="164" height="62" rx="4" ry="4" fill="#ffffff" stroke="#1e293b" stroke-width="1.5"/><rect x="310" y="66" width="164" height="30" rx="4" ry="4" fill="#dbeafe" stroke="#1e293b" stroke-width="1.5"/><line x1="310" y1="96" x2="474" y2="96" stroke="#1e293b" stroke-width="1"/><circle class="uml-class-badge" cx="322" cy="83" r="8" fill="#A2D5A2" stroke="#2E7D32" stroke-width="1"/><text x="322" y="86" text-anchor="middle" font-family="monospace" font-size="9" font-weight="700" fill="#2E7D32">C</text><text x="392" y="87" text-anchor="middle" font-family="monospace" font-size="13" font-weight="600" fill="#0f172a">Logger</text><circle class="uml-vis-glyph" cx="324" cy="107" r="4" fill="#16a34a" stroke="#16a34a" stroke-width="1"/><text class="uml-member" data-uml-visibility="public" x="334" y="112" font-family="monospace" font-size="11" fill="#16a34a">update(event): void</text></svg>