<svg xmlns="http://www.w3.org/2000/svg" width="704" height="294" viewBox="0 0 704 294"><rect width="100%" height="100%" fill="#ffffff"/><defs><marker id="arrow-open" viewBox="0 0 10 10" refX="9" refY="5" markerWidth="10" markerHeight="10" markerUnits="userSpaceOnUse" orient="auto-start-reverse"><path d="M0,0 L10,5 L0,10" fill="none" stroke="#1e293b" stroke-width="1.5"/></marker><marker id="arrow-triangle" viewBox="0 0 16 16" refX="15" refY="8" markerWidth="16" markerHeight="16" markerUnits="userSpaceOnUse" orient="auto-start-reverse"><polygon points="0,1 14,8 0,15" fill="#ffffff" stroke="#1e293b" stroke-width="1.5" fill-rule="nonzero"/></marker><marker id="arrow-diamond-filled" viewBox="0 0 14 10" refX="13" refY="5" markerWidth="14" markerHeight="10" markerUnits="userSpaceOnUse" orient="auto-start-reverse"><path d="M0,5 L7,0 L14,5 L7,10 z" fill="#1e293b" stroke="#1e293b" stroke-width="1"/></marker><marker id="arrow-diamond-open" viewBox="0 0 14 10" refX="13" refY="5" markerWidth="14" markerHeight="10" markerUnits="userSpaceOnUse" orient="auto-start-reverse"><path d="M0,5 L7,0 L14,5 L7,10 z" fill="#ffffff" stroke="#1e293b" stroke-width="1"/></marker></defs><text x="32" y="32" font-family="monospace" font-size="18" font-weight="600" fill="#0f172a">Factory Pattern</text><line class="uml-relation" data-uml-from="AnimalFactory" data-uml-to="DogFactory" x1="192" y1="97" x2="512" y2="97" stroke="#1e293b" stroke-width="2" marker-start="url(#arrow-triangle)"/><line class="uml-relation" data-uml-from="AnimalFactory" data-uml-to="CatFactory" x1="112" y1="128" x2="112" y2="192" stroke="#1e293b" stroke-width="2" marker-start="url(#arrow-triangle)"/><line class="uml-relation" data-uml-from="Animal" data-uml-to="Dog" x1="352" y1="128" x2="352" y2="192" stroke="#1e293b" stroke-width="2" marker-start="url(#arrow-triangle)"/><line class="uml-relation" data-uml-from="Animal" data-uml-to="Cat" x1="432" y1="97" x2="512" y2="223" stroke="#1e293b" stroke-width="2" marker-start="url(#arrow-triangle)"/><line class="uml-relation" data-uml-from="DogFactory" data-uml-to="Dog" x1="512" y1="97" x2="432" y2="223" stroke="#1e293b" stroke-width="2" marker-end="url(#arrow-open)"/><line class="uml-relation" data-uml-from="CatFactory" data-uml-to="Cat" x1="192" y1="223" x2="512" y2="223" stroke="#1e293b" stroke-width="2" marker-end="url(#arrow-open)"/><rect x="32" y="66" width="160" height="62" rx="4" ry="4" fill="#ffffff" stroke="#1e293b" stroke-width="1.5"/><rect x="32" y="66" width="160" height="30" rx="4" ry="4" fill="#dbeafe" stroke="#1e293b" stroke-width="1.5"/><line x1="32" y1="96" x2="192" y2="96" stroke="#1e293b" stroke-width="1"/><text x="112" y="87" text-anchor="middle" font-family="monospace" font-size="13" font-weight="600" fill="#0f172a">AnimalFactory</text><text class="uml-member" data-uml-visibility="public" x="42" y="112" font-family="monospace" font-size="11" fill="#16a34a">+create(): Animal</text><rect x="272" y="66" width="160" height="62" rx="4" ry="4" fill="#ffffff" stroke="#1e293b" stroke-width="1.5"/><rect x="272" y="66" width="160" height="30" rx="4" ry="4" fill="#dbeafe" stroke="#1e293b" stroke-width="1.5"/><line x1="272" y1="96" x2="432" y2="96" stroke="#1e293b" stroke-width="1"/><text x="352" y="87" text-anchor="middle" font-family="monospace" font-size="13" font-weight="600" fill="#0f172a">Animal</text><text class="uml-member" data-uml-visibility="public" x="282" y="112" font-family="monospace" font-size="11" fill="#16a34a">+speak(): String</text><rect x="512" y="66" width="160" height="62" rx="4" ry="4" fill="#ffffff" stroke="#1e293b" stroke-width="1.5"/><rect x="512" y="66" width="160" height="30" rx="4" ry="4" fill="#dbeafe" stroke="#1e293b" stroke-width="1.5"/><line x1="512" y1="96" x2="672" y2="96" stroke="#1e293b" stroke-width="1"/><text x="592" y="87" text-anchor="middle" font-family="monospace" font-size="13" font-weight="600" fill="#0f172a">DogFactory</text><text class="uml-member" data-uml-visibility="public" x="522" y="112" font-family="monospace" font-size="11" fill="#16a34a">+create(): Animal</text><rect x="32" y="192" width="160" height="62" rx="4" ry="4" fill="#ffffff" stroke="#1e293b" stroke-width="1.5"/><rect x="32" y="192" width="160" height="30" rx="4" ry="4" fill="#dbeafe" stroke="#1e293b" stroke-width="1.5"/><line x1="32" y1="222" x2="192" y2="222" stroke="#1e293b" stroke-width="1"/><text x="112" y="213" text-anchor="middle" font-family="monospace" font-size="13" font-weight="600" fill="#0f172a">CatFactory</text><text class="uml-member" data-uml-visibility="public" x="42" y="238" font-family="monospace" font-size="11" fill="#16a34a">+create(): Animal</text><rect x="272" y="192" width="160" height="62" rx="4" ry="4" fill="#ffffff" stroke="#1e293b" stroke-width="1.5"/><rect x="272" y="192" width="160" height="30" rx="4" ry="4" fill="#dbeafe" stroke="#1e293b" stroke-width="1.5"/><line x1="272" y1="222" x2="432" y2="222" stroke="#1e293b" stroke-width="1"/><text x="352" y="213" text-anchor="middle" font-family="monospace" font-size="13" font-weight="600" fill="#0f172a">Dog</text><text class="uml-member" data-uml-visibility="public" x="282" y="238" font-family="monospace" font-size="11" fill="#16a34a">+speak(): String</text><rect x="512" y="192" width="160" height="62" rx="4" ry="4" fill="#ffffff" stroke="#1e293b" stroke-width="1.5"/><rect x="512" y="192" width="160" height="30" rx="4" ry="4" fill="#dbeafe" stroke="#1e293b" stroke-width="1.5"/><line x1="512" y1="222" x2="672" y2="222" stroke="#1e293b" stroke-width="1"/><text x="592" y="213" text-anchor="middle" font-family="monospace" font-size="13" font-weight="600" fill="#0f172a">Cat</text><text class="uml-member" data-uml-visibility="public" x="522" y="238" font-family="monospace" font-size="11" fill="#16a34a">+speak(): String</text></svg>