<svg xmlns="http://www.w3.org/2000/svg" width="514" height="610" viewBox="0 0 514 610" data-orientation="TopToBottom"><rect width="100%" height="100%" fill="#ffffff"/><defs><marker id="arrow-open" viewBox="0 0 10 10" refX="9" refY="5" markerWidth="10" markerHeight="10" markerUnits="userSpaceOnUse" orient="auto-start-reverse"><path d="M0,0 L10,5 L0,10" fill="none" stroke="#1e293b" stroke-width="1.5"/></marker><marker id="arrow-triangle" viewBox="0 0 16 16" refX="15" refY="8" markerWidth="16" markerHeight="16" markerUnits="userSpaceOnUse" orient="auto-start-reverse"><polygon points="0,1 14,8 0,15" fill="#ffffff" stroke="#1e293b" stroke-width="1.5" fill-rule="nonzero"/></marker><marker id="arrow-diamond-filled" viewBox="0 0 14 10" refX="13" refY="5" markerWidth="14" markerHeight="10" markerUnits="userSpaceOnUse" orient="auto-start-reverse"><path d="M0,5 L7,0 L14,5 L7,10 z" fill="#1e293b" stroke="#1e293b" stroke-width="1"/></marker><marker id="arrow-diamond-open" viewBox="0 0 14 10" refX="13" refY="5" markerWidth="14" markerHeight="10" markerUnits="userSpaceOnUse" orient="auto-start-reverse"><path d="M0,5 L7,0 L14,5 L7,10 z" fill="#ffffff" stroke="#1e293b" stroke-width="1"/></marker></defs><defs><marker id="arrow-triangle-filled" viewBox="0 0 12 12" refX="11" refY="6" markerWidth="12" markerHeight="12" markerUnits="userSpaceOnUse" orient="auto-start-reverse"><polygon points="0,0 12,6 0,12" fill="#1e293b" stroke="#1e293b" stroke-width="1.5"/></marker><marker id="arrow-box-filled" viewBox="0 0 12 12" refX="11" refY="6" markerWidth="12" markerHeight="12" markerUnits="userSpaceOnUse" orient="auto-start-reverse"><rect x="2" y="2" width="8" height="8" fill="#1e293b" stroke="#1e293b" stroke-width="1.5"/></marker><marker id="arrow-plus" viewBox="0 0 12 12" refX="11" refY="6" markerWidth="12" markerHeight="12" markerUnits="userSpaceOnUse" orient="auto-start-reverse"><path d="M6,1 L6,11 M1,6 L11,6" fill="none" stroke="#1e293b" stroke-width="1.8" stroke-linecap="round"/></marker><marker id="arrow-cross" viewBox="0 0 12 12" refX="11" refY="6" markerWidth="12" markerHeight="12" markerUnits="userSpaceOnUse" orient="auto-start-reverse"><path d="M2,2 L10,10 M10,2 L2,10" fill="none" stroke="#1e293b" stroke-width="1.8" stroke-linecap="round"/></marker><marker id="arrow-bracket-open" viewBox="0 0 12 14" refX="11" refY="7" markerWidth="12" markerHeight="14" markerUnits="userSpaceOnUse" orient="auto-start-reverse"><path d="M10,1 L4,1 L4,13 L10,13" fill="none" stroke="#1e293b" stroke-width="1.8" stroke-linecap="round" stroke-linejoin="round"/></marker><marker id="arrow-circle-open" viewBox="0 0 12 12" refX="11" refY="6" markerWidth="12" markerHeight="12" markerUnits="userSpaceOnUse" orient="auto-start-reverse"><circle cx="6" cy="6" r="4" fill="#ffffff" stroke="#1e293b" stroke-width="1.5"/></marker><marker id="arrow-circle-filled" viewBox="0 0 12 12" refX="11" refY="6" markerWidth="12" markerHeight="12" markerUnits="userSpaceOnUse" orient="auto-start-reverse"><circle cx="6" cy="6" r="4" fill="#1e293b" stroke="#1e293b" stroke-width="1.5"/></marker><marker id="arrow-double-open" viewBox="0 0 16 12" refX="15" refY="6" markerWidth="16" markerHeight="12" markerUnits="userSpaceOnUse" orient="auto-start-reverse"><path d="M0,1 L8,6 L0,11 M7,1 L15,6 L7,11" fill="none" stroke="#1e293b" stroke-width="1.5" stroke-linejoin="round"/></marker></defs><text x="32" y="32" font-family="monospace" font-size="18" font-weight="600" fill="#0f172a">Factory Pattern</text><path class="uml-relation" data-uml-from="AnimalFactory" data-uml-to="DogFactory" data-uml-arrow="&lt;|--" d="M 226,97 C 226.0,113.3 212.7,137.8 226.0,146.0 C 239.3,154.2 292.7,122.8 306.0,146.0 C 319.3,169.2 306.0,238.7 306.0,285.0" fill="none" stroke="#1e293b" stroke-width="2" marker-start="url(#arrow-triangle)" /><path class="uml-relation" data-uml-from="AnimalFactory" data-uml-to="CatFactory" data-uml-arrow="&lt;|--" d="M 146,128 C 146.0,149.0 146.0,170.0 146.0,191.0 C 146.0,212.0 146.0,233.0 146.0,254.0" fill="none" stroke="#1e293b" stroke-width="2" marker-start="url(#arrow-triangle)" /><path class="uml-relation" data-uml-from="Animal" data-uml-to="Dog" data-uml-arrow="&lt;|--" d="M 386,128 C 386.0,153.7 370.0,192.2 386.0,205.0 C 402.0,217.8 466.0,177.7 482.0,205.0 C 498.0,232.3 498.0,341.7 482.0,369.0 C 466.0,396.3 402.0,356.8 386.0,369.0 C 370.0,381.2 386.0,417.7 386.0,442.0" fill="none" stroke="#1e293b" stroke-width="2" marker-start="url(#arrow-triangle)" /><path class="uml-relation" data-uml-from="Animal" data-uml-to="Cat" data-uml-arrow="&lt;|--" d="M 386,128 C 386.0,163.7 426.0,217.2 386.0,235.0 C 346.0,252.8 186.0,200.5 146.0,235.0 C 106.0,269.5 146.0,373.0 146.0,442.0" fill="none" stroke="#1e293b" stroke-width="2" marker-start="url(#arrow-triangle)" /><path class="uml-relation" data-uml-from="DogFactory" data-uml-to="Dog" data-uml-arrow="--&gt;" d="M 386,316 C 386.0,337.0 386.0,358.0 386.0,379.0 C 386.0,400.0 386.0,421.0 386.0,442.0" fill="none" stroke="#1e293b" stroke-width="2" marker-end="url(#arrow-open)" /><path class="uml-relation" data-uml-from="CatFactory" data-uml-to="Cat" data-uml-arrow="--&gt;" d="M 146,316 C 146.0,337.0 146.0,358.0 146.0,379.0 C 146.0,400.0 146.0,421.0 146.0,442.0" fill="none" stroke="#1e293b" stroke-width="2" marker-end="url(#arrow-open)" /><rect x="66" y="66" width="160" height="62" rx="4" ry="4" fill="#ffffff" stroke="#1e293b" stroke-width="1.5"/><rect x="66" y="66" width="160" height="30" rx="4" ry="4" fill="#dbeafe" stroke="#1e293b" stroke-width="1.5"/><line x1="66" y1="96" x2="226" y2="96" stroke="#1e293b" stroke-width="1"/><text x="146" y="87" text-anchor="middle" font-family="monospace" font-size="13" font-weight="600" fill="#0f172a">AnimalFactory</text><text class="uml-member" data-uml-visibility="public" x="76" y="112" font-family="monospace" font-size="11" fill="#16a34a">+create(): Animal</text><rect x="306" y="66" width="160" height="62" rx="4" ry="4" fill="#ffffff" stroke="#1e293b" stroke-width="1.5"/><rect x="306" y="66" width="160" height="30" rx="4" ry="4" fill="#dbeafe" stroke="#1e293b" stroke-width="1.5"/><line x1="306" y1="96" x2="466" y2="96" stroke="#1e293b" stroke-width="1"/><text x="386" y="87" text-anchor="middle" font-family="monospace" font-size="13" font-weight="600" fill="#0f172a">Animal</text><text class="uml-member" data-uml-visibility="public" x="316" y="112" font-family="monospace" font-size="11" fill="#16a34a">+speak(): String</text><rect x="306" y="254" width="160" height="62" rx="4" ry="4" fill="#ffffff" stroke="#1e293b" stroke-width="1.5"/><rect x="306" y="254" width="160" height="30" rx="4" ry="4" fill="#dbeafe" stroke="#1e293b" stroke-width="1.5"/><line x1="306" y1="284" x2="466" y2="284" stroke="#1e293b" stroke-width="1"/><text x="386" y="275" text-anchor="middle" font-family="monospace" font-size="13" font-weight="600" fill="#0f172a">DogFactory</text><text class="uml-member" data-uml-visibility="public" x="316" y="300" font-family="monospace" font-size="11" fill="#16a34a">+create(): Animal</text><rect x="66" y="254" width="160" height="62" rx="4" ry="4" fill="#ffffff" stroke="#1e293b" stroke-width="1.5"/><rect x="66" y="254" width="160" height="30" rx="4" ry="4" fill="#dbeafe" stroke="#1e293b" stroke-width="1.5"/><line x1="66" y1="284" x2="226" y2="284" stroke="#1e293b" stroke-width="1"/><text x="146" y="275" text-anchor="middle" font-family="monospace" font-size="13" font-weight="600" fill="#0f172a">CatFactory</text><text class="uml-member" data-uml-visibility="public" x="76" y="300" font-family="monospace" font-size="11" fill="#16a34a">+create(): Animal</text><rect x="306" y="442" width="160" height="62" rx="4" ry="4" fill="#ffffff" stroke="#1e293b" stroke-width="1.5"/><rect x="306" y="442" width="160" height="30" rx="4" ry="4" fill="#dbeafe" stroke="#1e293b" stroke-width="1.5"/><line x1="306" y1="472" x2="466" y2="472" stroke="#1e293b" stroke-width="1"/><text x="386" y="463" text-anchor="middle" font-family="monospace" font-size="13" font-weight="600" fill="#0f172a">Dog</text><text class="uml-member" data-uml-visibility="public" x="316" y="488" font-family="monospace" font-size="11" fill="#16a34a">+speak(): String</text><rect x="66" y="442" width="160" height="62" rx="4" ry="4" fill="#ffffff" stroke="#1e293b" stroke-width="1.5"/><rect x="66" y="442" width="160" height="30" rx="4" ry="4" fill="#dbeafe" stroke="#1e293b" stroke-width="1.5"/><line x1="66" y1="472" x2="226" y2="472" stroke="#1e293b" stroke-width="1"/><text x="146" y="463" text-anchor="middle" font-family="monospace" font-size="13" font-weight="600" fill="#0f172a">Cat</text><text class="uml-member" data-uml-visibility="public" x="76" y="488" font-family="monospace" font-size="11" fill="#16a34a">+speak(): String</text></svg>