<svg xmlns="http://www.w3.org/2000/svg" width="704" height="610" viewBox="0 0 704 610"><rect width="100%" height="100%" fill="#ffffff"/><defs><marker id="arrow-open" viewBox="0 0 10 10" refX="9" refY="5" markerWidth="10" markerHeight="10" markerUnits="userSpaceOnUse" orient="auto-start-reverse"><path d="M0,0 L10,5 L0,10" fill="none" stroke="#1e293b" stroke-width="1.5"/></marker><marker id="arrow-triangle" viewBox="0 0 16 16" refX="15" refY="8" markerWidth="16" markerHeight="16" markerUnits="userSpaceOnUse" orient="auto-start-reverse"><polygon points="0,1 14,8 0,15" fill="#ffffff" stroke="#1e293b" stroke-width="1.5" fill-rule="nonzero"/></marker><marker id="arrow-diamond-filled" viewBox="0 0 14 10" refX="13" refY="5" markerWidth="14" markerHeight="10" markerUnits="userSpaceOnUse" orient="auto-start-reverse"><path d="M0,5 L7,0 L14,5 L7,10 z" fill="#1e293b" stroke="#1e293b" stroke-width="1"/></marker><marker id="arrow-diamond-open" viewBox="0 0 14 10" refX="13" refY="5" markerWidth="14" markerHeight="10" markerUnits="userSpaceOnUse" orient="auto-start-reverse"><path d="M0,5 L7,0 L14,5 L7,10 z" fill="#ffffff" stroke="#1e293b" stroke-width="1"/></marker></defs><text x="32" y="32" font-family="monospace" font-size="18" font-weight="600" fill="#0f172a">Factory Pattern</text><polyline class="uml-relation" data-uml-from="AnimalFactory" data-uml-to="DogFactory" data-uml-arrow="&lt;|--" points="146,128 146,179 386,179 386,254" fill="none" stroke="#1e293b" stroke-width="2" marker-start="url(#arrow-triangle)" /><polyline class="uml-relation" data-uml-from="AnimalFactory" data-uml-to="CatFactory" data-uml-arrow="&lt;|--" points="146,128 146,187 146,254" fill="none" stroke="#1e293b" stroke-width="2" marker-start="url(#arrow-triangle)" /><polyline class="uml-relation" data-uml-from="Animal" data-uml-to="Dog" data-uml-arrow="&lt;|--" points="386,128 386,195 386,383 386,442" fill="none" stroke="#1e293b" stroke-width="2" marker-start="url(#arrow-triangle)" /><polyline class="uml-relation" data-uml-from="Animal" data-uml-to="Cat" data-uml-arrow="&lt;|--" points="386,128 386,203 266,203 266,391 146,391 146,442" fill="none" stroke="#1e293b" stroke-width="2" marker-start="url(#arrow-triangle)" /><polyline class="uml-relation" data-uml-from="DogFactory" data-uml-to="Dog" data-uml-arrow="--&gt;" points="386,316 386,407 386,442" fill="none" stroke="#1e293b" stroke-width="2" marker-end="url(#arrow-open)" /><polyline class="uml-relation" data-uml-from="CatFactory" data-uml-to="Cat" data-uml-arrow="--&gt;" points="146,316 146,399 146,442" fill="none" stroke="#1e293b" stroke-width="2" marker-end="url(#arrow-open)" /><rect x="66" y="66" width="160" height="62" rx="4" ry="4" fill="#ffffff" stroke="#1e293b" stroke-width="1.5"/><rect x="66" y="66" width="160" height="30" rx="4" ry="4" fill="#dbeafe" stroke="#1e293b" stroke-width="1.5"/><line x1="66" y1="96" x2="226" y2="96" stroke="#1e293b" stroke-width="1"/><text x="146" y="87" text-anchor="middle" font-family="monospace" font-size="13" font-weight="600" fill="#0f172a">AnimalFactory</text><text class="uml-member" data-uml-visibility="public" x="76" y="112" font-family="monospace" font-size="11" fill="#16a34a">+create(): Animal</text><rect x="306" y="66" width="160" height="62" rx="4" ry="4" fill="#ffffff" stroke="#1e293b" stroke-width="1.5"/><rect x="306" y="66" width="160" height="30" rx="4" ry="4" fill="#dbeafe" stroke="#1e293b" stroke-width="1.5"/><line x1="306" y1="96" x2="466" y2="96" stroke="#1e293b" stroke-width="1"/><text x="386" y="87" text-anchor="middle" font-family="monospace" font-size="13" font-weight="600" fill="#0f172a">Animal</text><text class="uml-member" data-uml-visibility="public" x="316" y="112" font-family="monospace" font-size="11" fill="#16a34a">+speak(): String</text><rect x="306" y="254" width="160" height="62" rx="4" ry="4" fill="#ffffff" stroke="#1e293b" stroke-width="1.5"/><rect x="306" y="254" width="160" height="30" rx="4" ry="4" fill="#dbeafe" stroke="#1e293b" stroke-width="1.5"/><line x1="306" y1="284" x2="466" y2="284" stroke="#1e293b" stroke-width="1"/><text x="386" y="275" text-anchor="middle" font-family="monospace" font-size="13" font-weight="600" fill="#0f172a">DogFactory</text><text class="uml-member" data-uml-visibility="public" x="316" y="300" font-family="monospace" font-size="11" fill="#16a34a">+create(): Animal</text><rect x="66" y="254" width="160" height="62" rx="4" ry="4" fill="#ffffff" stroke="#1e293b" stroke-width="1.5"/><rect x="66" y="254" width="160" height="30" rx="4" ry="4" fill="#dbeafe" stroke="#1e293b" stroke-width="1.5"/><line x1="66" y1="284" x2="226" y2="284" stroke="#1e293b" stroke-width="1"/><text x="146" y="275" text-anchor="middle" font-family="monospace" font-size="13" font-weight="600" fill="#0f172a">CatFactory</text><text class="uml-member" data-uml-visibility="public" x="76" y="300" font-family="monospace" font-size="11" fill="#16a34a">+create(): Animal</text><rect x="306" y="442" width="160" height="62" rx="4" ry="4" fill="#ffffff" stroke="#1e293b" stroke-width="1.5"/><rect x="306" y="442" width="160" height="30" rx="4" ry="4" fill="#dbeafe" stroke="#1e293b" stroke-width="1.5"/><line x1="306" y1="472" x2="466" y2="472" stroke="#1e293b" stroke-width="1"/><text x="386" y="463" text-anchor="middle" font-family="monospace" font-size="13" font-weight="600" fill="#0f172a">Dog</text><text class="uml-member" data-uml-visibility="public" x="316" y="488" font-family="monospace" font-size="11" fill="#16a34a">+speak(): String</text><rect x="66" y="442" width="160" height="62" rx="4" ry="4" fill="#ffffff" stroke="#1e293b" stroke-width="1.5"/><rect x="66" y="442" width="160" height="30" rx="4" ry="4" fill="#dbeafe" stroke="#1e293b" stroke-width="1.5"/><line x1="66" y1="472" x2="226" y2="472" stroke="#1e293b" stroke-width="1"/><text x="146" y="463" text-anchor="middle" font-family="monospace" font-size="13" font-weight="600" fill="#0f172a">Cat</text><text class="uml-member" data-uml-visibility="public" x="76" y="488" font-family="monospace" font-size="11" fill="#16a34a">+speak(): String</text></svg>