<svg xmlns="http://www.w3.org/2000/svg" width="875" height="232" viewBox="0 0 875 232"><rect width="100%" height="100%" fill="#ffffff"/><defs><marker id="arrow-open" viewBox="0 0 10 10" refX="9" refY="5" markerWidth="10" markerHeight="10" markerUnits="userSpaceOnUse" orient="auto-start-reverse"><path d="M0,0 L10,5 L0,10" fill="none" stroke="#1e293b" stroke-width="1.5"/></marker><marker id="arrow-triangle" viewBox="0 0 16 16" refX="15" refY="8" markerWidth="16" markerHeight="16" markerUnits="userSpaceOnUse" orient="auto-start-reverse"><polygon points="0,1 14,8 0,15" fill="#ffffff" stroke="#1e293b" stroke-width="1.5" fill-rule="nonzero"/></marker><marker id="arrow-diamond-filled" viewBox="0 0 14 10" refX="13" refY="5" markerWidth="14" markerHeight="10" markerUnits="userSpaceOnUse" orient="auto-start-reverse"><path d="M0,5 L7,0 L14,5 L7,10 z" fill="#1e293b" stroke="#1e293b" stroke-width="1"/></marker><marker id="arrow-diamond-open" viewBox="0 0 14 10" refX="13" refY="5" markerWidth="14" markerHeight="10" markerUnits="userSpaceOnUse" orient="auto-start-reverse"><path d="M0,5 L7,0 L14,5 L7,10 z" fill="#ffffff" stroke="#1e293b" stroke-width="1"/></marker></defs><text x="32" y="32" font-family="monospace" font-size="18" font-weight="600" fill="#0f172a">Repository Pattern</text><line class="uml-relation" data-uml-from="UserRepository" data-uml-to="Repository" x1="329" y1="129" x2="249" y2="113" stroke="#1e293b" stroke-width="2" marker-start="url(#arrow-triangle)"/><line class="uml-relation" data-uml-from="UserRepository" data-uml-to="User" x1="546" y1="129" x2="626" y2="113" stroke="#1e293b" stroke-width="2" marker-end="url(#arrow-open)"/><rect x="32" y="66" width="217" height="94" rx="4" ry="4" fill="#ffffff" stroke="#1e293b" stroke-width="1.5"/><rect x="32" y="66" width="217" height="30" rx="4" ry="4" fill="#dbeafe" stroke="#1e293b" stroke-width="1.5"/><line x1="32" y1="96" x2="249" y2="96" stroke="#1e293b" stroke-width="1"/><text x="140" y="87" text-anchor="middle" font-family="monospace" font-size="13" font-weight="600" fill="#0f172a">Repository</text><text class="uml-member" data-uml-visibility="public" x="42" y="112" font-family="monospace" font-size="11" fill="#16a34a">+findById(id)</text><text class="uml-member" data-uml-visibility="public" x="42" y="128" font-family="monospace" font-size="11" fill="#16a34a">+findAll(): List</text><text class="uml-member" data-uml-visibility="public" x="42" y="144" font-family="monospace" font-size="11" fill="#16a34a">+save(entity): void</text><rect x="329" y="66" width="217" height="126" rx="4" ry="4" fill="#ffffff" stroke="#1e293b" stroke-width="1.5"/><rect x="329" y="66" width="217" height="30" rx="4" ry="4" fill="#dbeafe" stroke="#1e293b" stroke-width="1.5"/><line x1="329" y1="96" x2="546" y2="96" stroke="#1e293b" stroke-width="1"/><text x="437" y="87" text-anchor="middle" font-family="monospace" font-size="13" font-weight="600" fill="#0f172a">UserRepository</text><text class="uml-member" data-uml-visibility="private" x="339" y="112" font-family="monospace" font-size="11" fill="#dc2626">-db: Database</text><line x1="329" y1="120" x2="546" y2="120" stroke="#1e293b" stroke-width="1"/><text class="uml-member" data-uml-visibility="public" x="339" y="128" font-family="monospace" font-size="11" fill="#16a34a">+findById(id: Long)</text><text class="uml-member" data-uml-visibility="public" x="339" y="144" font-family="monospace" font-size="11" fill="#16a34a">+findAll(): List</text><text class="uml-member" data-uml-visibility="public" x="339" y="160" font-family="monospace" font-size="11" fill="#16a34a">+findByEmail(email: String)</text><text class="uml-member" data-uml-visibility="public" x="339" y="176" font-family="monospace" font-size="11" fill="#16a34a">+save(user: User): User</text><rect x="626" y="66" width="217" height="94" rx="4" ry="4" fill="#ffffff" stroke="#1e293b" stroke-width="1.5"/><rect x="626" y="66" width="217" height="30" rx="4" ry="4" fill="#dbeafe" stroke="#1e293b" stroke-width="1.5"/><line x1="626" y1="96" x2="843" y2="96" stroke="#1e293b" stroke-width="1"/><text x="734" y="87" text-anchor="middle" font-family="monospace" font-size="13" font-weight="600" fill="#0f172a">User</text><text class="uml-member" data-uml-visibility="private" x="636" y="112" font-family="monospace" font-size="11" fill="#dc2626">-id: Long</text><text class="uml-member" data-uml-visibility="private" x="636" y="128" font-family="monospace" font-size="11" fill="#dc2626">-name: String</text><text class="uml-member" data-uml-visibility="private" x="636" y="144" font-family="monospace" font-size="11" fill="#dc2626">-email: String</text></svg>