<svg xmlns="http://www.w3.org/2000/svg" width="620" height="582" viewBox="0 0 620 582" data-orientation="TopToBottom"><rect width="100%" height="100%" fill="#ffffff"/><defs><marker id="arrow-open" viewBox="0 0 10 10" refX="9" refY="5" markerWidth="10" markerHeight="10" markerUnits="userSpaceOnUse" orient="auto-start-reverse"><path d="M0,0 L10,5 L0,10" fill="none" stroke="#1e293b" stroke-width="1.5"/></marker><marker id="arrow-triangle" viewBox="0 0 16 16" refX="15" refY="8" markerWidth="16" markerHeight="16" markerUnits="userSpaceOnUse" orient="auto-start-reverse"><polygon points="0,1 14,8 0,15" fill="#ffffff" stroke="#1e293b" stroke-width="1.5" fill-rule="nonzero"/></marker><marker id="arrow-diamond-filled" viewBox="0 0 14 10" refX="13" refY="5" markerWidth="14" markerHeight="10" markerUnits="userSpaceOnUse" orient="auto-start-reverse"><path d="M0,5 L7,0 L14,5 L7,10 z" fill="#1e293b" stroke="#1e293b" stroke-width="1"/></marker><marker id="arrow-diamond-open" viewBox="0 0 14 10" refX="13" refY="5" markerWidth="14" markerHeight="10" markerUnits="userSpaceOnUse" orient="auto-start-reverse"><path d="M0,5 L7,0 L14,5 L7,10 z" fill="#ffffff" stroke="#1e293b" stroke-width="1"/></marker></defs><defs><marker id="arrow-triangle-filled" viewBox="0 0 12 12" refX="11" refY="6" markerWidth="12" markerHeight="12" markerUnits="userSpaceOnUse" orient="auto-start-reverse"><polygon points="0,0 12,6 0,12" fill="#1e293b" stroke="#1e293b" stroke-width="1.5"/></marker><marker id="arrow-box-filled" viewBox="0 0 12 12" refX="11" refY="6" markerWidth="12" markerHeight="12" markerUnits="userSpaceOnUse" orient="auto-start-reverse"><rect x="2" y="2" width="8" height="8" fill="#1e293b" stroke="#1e293b" stroke-width="1.5"/></marker><marker id="arrow-plus" viewBox="0 0 12 12" refX="11" refY="6" markerWidth="12" markerHeight="12" markerUnits="userSpaceOnUse" orient="auto-start-reverse"><path d="M6,1 L6,11 M1,6 L11,6" fill="none" stroke="#1e293b" stroke-width="1.8" stroke-linecap="round"/></marker><marker id="arrow-cross" viewBox="0 0 12 12" refX="11" refY="6" markerWidth="12" markerHeight="12" markerUnits="userSpaceOnUse" orient="auto-start-reverse"><path d="M2,2 L10,10 M10,2 L2,10" fill="none" stroke="#1e293b" stroke-width="1.8" stroke-linecap="round"/></marker><marker id="arrow-bracket-open" viewBox="0 0 12 14" refX="11" refY="7" markerWidth="12" markerHeight="14" markerUnits="userSpaceOnUse" orient="auto-start-reverse"><path d="M10,1 L4,1 L4,13 L10,13" fill="none" stroke="#1e293b" stroke-width="1.8" stroke-linecap="round" stroke-linejoin="round"/></marker><marker id="arrow-circle-open" viewBox="0 0 12 12" refX="11" refY="6" markerWidth="12" markerHeight="12" markerUnits="userSpaceOnUse" orient="auto-start-reverse"><circle cx="6" cy="6" r="4" fill="#ffffff" stroke="#1e293b" stroke-width="1.5"/></marker><marker id="arrow-circle-filled" viewBox="0 0 12 12" refX="11" refY="6" markerWidth="12" markerHeight="12" markerUnits="userSpaceOnUse" orient="auto-start-reverse"><circle cx="6" cy="6" r="4" fill="#1e293b" stroke="#1e293b" stroke-width="1.5"/></marker><marker id="arrow-double-open" viewBox="0 0 16 12" refX="15" refY="6" markerWidth="16" markerHeight="12" markerUnits="userSpaceOnUse" orient="auto-start-reverse"><path d="M0,1 L8,6 L0,11 M7,1 L15,6 L7,11" fill="none" stroke="#1e293b" stroke-width="1.5" stroke-linejoin="round"/></marker></defs><text x="32" y="32" font-family="monospace" font-size="18" font-weight="600" fill="#0f172a">Repository Pattern</text><path class="uml-relation" data-uml-from="UserRepository" data-uml-to="Repository" data-uml-arrow="&lt;|--" d="M 318,192 C 318.0,222.3 342.3,267.8 318.0,283.0 C 293.7,298.2 196.3,266.5 172.0,283.0 C 147.7,299.5 172.0,349.0 172.0,382.0" fill="none" stroke="#1e293b" stroke-width="2" marker-start="url(#arrow-triangle)" /><path class="uml-relation" data-uml-from="UserRepository" data-uml-to="User" data-uml-arrow="--&gt;" d="M 318,192 C 318.0,225.0 293.5,274.5 318.0,291.0 C 342.5,307.5 440.5,275.8 465.0,291.0 C 489.5,306.2 465.0,351.7 465.0,382.0" fill="none" stroke="#1e293b" stroke-width="2" marker-end="url(#arrow-open)" /><rect x="66" y="382" width="213" height="94" rx="4" ry="4" fill="#ffffff" stroke="#1e293b" stroke-width="1.5"/><rect x="66" y="382" width="213" height="30" rx="4" ry="4" fill="#dbeafe" stroke="#1e293b" stroke-width="1.5"/><line x1="66" y1="412" x2="279" y2="412" stroke="#1e293b" stroke-width="1"/><text x="172" y="403" text-anchor="middle" font-family="monospace" font-size="13" font-weight="600" fill="#0f172a">Repository</text><text class="uml-member" data-uml-visibility="public" x="76" y="428" font-family="monospace" font-size="11" fill="#16a34a">+findById(id)</text><text class="uml-member" data-uml-visibility="public" x="76" y="444" font-family="monospace" font-size="11" fill="#16a34a">+findAll(): List</text><text class="uml-member" data-uml-visibility="public" x="76" y="460" font-family="monospace" font-size="11" fill="#16a34a">+save(entity): void</text><rect x="212" y="66" width="213" height="126" rx="4" ry="4" fill="#ffffff" stroke="#1e293b" stroke-width="1.5"/><rect x="212" y="66" width="213" height="30" rx="4" ry="4" fill="#dbeafe" stroke="#1e293b" stroke-width="1.5"/><line x1="212" y1="96" x2="425" y2="96" stroke="#1e293b" stroke-width="1"/><text x="318" y="87" text-anchor="middle" font-family="monospace" font-size="13" font-weight="600" fill="#0f172a">UserRepository</text><text class="uml-member" data-uml-visibility="private" x="222" y="112" font-family="monospace" font-size="11" fill="#dc2626">-db: Database</text><line x1="212" y1="120" x2="425" y2="120" stroke="#1e293b" stroke-width="1"/><text class="uml-member" data-uml-visibility="public" x="222" y="128" font-family="monospace" font-size="11" fill="#16a34a">+findById(id: Long)</text><text class="uml-member" data-uml-visibility="public" x="222" y="144" font-family="monospace" font-size="11" fill="#16a34a">+findAll(): List</text><text class="uml-member" data-uml-visibility="public" x="222" y="160" font-family="monospace" font-size="11" fill="#16a34a">+findByEmail(email: String)</text><text class="uml-member" data-uml-visibility="public" x="222" y="176" font-family="monospace" font-size="11" fill="#16a34a">+save(user: User): User</text><rect x="359" y="382" width="213" height="94" rx="4" ry="4" fill="#ffffff" stroke="#1e293b" stroke-width="1.5"/><rect x="359" y="382" width="213" height="30" rx="4" ry="4" fill="#dbeafe" stroke="#1e293b" stroke-width="1.5"/><line x1="359" y1="412" x2="572" y2="412" stroke="#1e293b" stroke-width="1"/><text x="465" y="403" text-anchor="middle" font-family="monospace" font-size="13" font-weight="600" fill="#0f172a">User</text><text class="uml-member" data-uml-visibility="private" x="369" y="428" font-family="monospace" font-size="11" fill="#dc2626">-id: Long</text><text class="uml-member" data-uml-visibility="private" x="369" y="444" font-family="monospace" font-size="11" fill="#dc2626">-name: String</text><text class="uml-member" data-uml-visibility="private" x="369" y="460" font-family="monospace" font-size="11" fill="#dc2626">-email: String</text></svg>