<svg xmlns="http://www.w3.org/2000/svg" width="556" height="390" viewBox="0 0 556 390" data-orientation="TopToBottom"><rect width="100%" height="100%" fill="#ffffff"/><defs><marker id="arrow-open" viewBox="0 0 10 10" refX="9" refY="5" markerWidth="10" markerHeight="10" markerUnits="userSpaceOnUse" orient="auto-start-reverse"><path d="M0,0 L10,5 L0,10" fill="none" stroke="#1e293b" stroke-width="1.5"/></marker><marker id="arrow-triangle" viewBox="0 0 16 16" refX="15" refY="8" markerWidth="16" markerHeight="16" markerUnits="userSpaceOnUse" orient="auto-start-reverse"><polygon points="0,1 14,8 0,15" fill="#ffffff" stroke="#1e293b" stroke-width="1.5" fill-rule="nonzero"/></marker><marker id="arrow-diamond-filled" viewBox="0 0 14 10" refX="13" refY="5" markerWidth="14" markerHeight="10" markerUnits="userSpaceOnUse" orient="auto-start-reverse"><path d="M0,5 L7,0 L14,5 L7,10 z" fill="#1e293b" stroke="#1e293b" stroke-width="1"/></marker><marker id="arrow-diamond-open" viewBox="0 0 14 10" refX="13" refY="5" markerWidth="14" markerHeight="10" markerUnits="userSpaceOnUse" orient="auto-start-reverse"><path d="M0,5 L7,0 L14,5 L7,10 z" fill="#ffffff" stroke="#1e293b" stroke-width="1"/></marker></defs><defs><marker id="arrow-triangle-filled" viewBox="0 0 12 12" refX="11" refY="6" markerWidth="12" markerHeight="12" markerUnits="userSpaceOnUse" orient="auto-start-reverse"><polygon points="0,0 12,6 0,12" fill="#1e293b" stroke="#1e293b" stroke-width="1.5"/></marker><marker id="arrow-box-filled" viewBox="0 0 12 12" refX="11" refY="6" markerWidth="12" markerHeight="12" markerUnits="userSpaceOnUse" orient="auto-start-reverse"><rect x="2" y="2" width="8" height="8" fill="#1e293b" stroke="#1e293b" stroke-width="1.5"/></marker><marker id="arrow-plus" viewBox="0 0 12 12" refX="11" refY="6" markerWidth="12" markerHeight="12" markerUnits="userSpaceOnUse" orient="auto-start-reverse"><path d="M6,1 L6,11 M1,6 L11,6" fill="none" stroke="#1e293b" stroke-width="1.8" stroke-linecap="round"/></marker><marker id="arrow-cross" viewBox="0 0 12 12" refX="11" refY="6" markerWidth="12" markerHeight="12" markerUnits="userSpaceOnUse" orient="auto-start-reverse"><path d="M2,2 L10,10 M10,2 L2,10" fill="none" stroke="#1e293b" stroke-width="1.8" stroke-linecap="round"/></marker><marker id="arrow-bracket-open" viewBox="0 0 12 14" refX="11" refY="7" markerWidth="12" markerHeight="14" markerUnits="userSpaceOnUse" orient="auto-start-reverse"><path d="M10,1 L4,1 L4,13 L10,13" fill="none" stroke="#1e293b" stroke-width="1.8" stroke-linecap="round" stroke-linejoin="round"/></marker><marker id="arrow-circle-open" viewBox="0 0 12 12" refX="11" refY="6" markerWidth="12" markerHeight="12" markerUnits="userSpaceOnUse" orient="auto-start-reverse"><circle cx="6" cy="6" r="4" fill="#ffffff" stroke="#1e293b" stroke-width="1.5"/></marker><marker id="arrow-circle-filled" viewBox="0 0 12 12" refX="11" refY="6" markerWidth="12" markerHeight="12" markerUnits="userSpaceOnUse" orient="auto-start-reverse"><circle cx="6" cy="6" r="4" fill="#1e293b" stroke="#1e293b" stroke-width="1.5"/></marker><marker id="arrow-double-open" viewBox="0 0 16 12" refX="15" refY="6" markerWidth="16" markerHeight="12" markerUnits="userSpaceOnUse" orient="auto-start-reverse"><path d="M0,1 L8,6 L0,11 M7,1 L15,6 L7,11" fill="none" stroke="#1e293b" stroke-width="1.5" stroke-linejoin="round"/></marker></defs><text x="8" y="32" font-family="monospace" font-size="18" font-weight="600" fill="#0f172a">Repository Pattern</text><polyline class="uml-relation" data-uml-from="UserRepository" data-uml-to="Repository" data-uml-arrow="&lt;|--" points="298,192 298,203 172,203 172,222" fill="none" stroke="#1e293b" stroke-width="2" marker-start="url(#arrow-triangle)" /><polyline class="uml-relation" data-uml-from="UserRepository" data-uml-to="User" data-uml-arrow="--&gt;" points="298,192 298,211 425,211 425,222" fill="none" stroke="#1e293b" stroke-width="2" marker-end="url(#arrow-open)" /><rect class="uml-node uml-class" data-uml-id="Repository" x="66" y="222" width="213" height="94" rx="4" ry="4" fill="#ffffff" stroke="#1e293b" stroke-width="1.5"/><rect x="66" y="222" width="213" height="30" rx="4" ry="4" fill="#dbeafe" stroke="#1e293b" stroke-width="1.5"/><line x1="66" y1="252" x2="279" y2="252" stroke="#1e293b" stroke-width="1"/><circle class="uml-class-badge" cx="78" cy="239" r="8" fill="#A2D5A2" stroke="#2E7D32" stroke-width="1"/><text class="uml-class-badge-letter" x="78" y="242" text-anchor="middle" font-family="monospace" font-size="9" font-weight="700" fill="#2E7D32">C</text><text x="172" y="243" text-anchor="middle" font-family="monospace" font-size="13" font-weight="600" fill="#0f172a">Repository</text><circle class="uml-vis-glyph" cx="80" cy="263" r="4" fill="#16a34a" stroke="#16a34a" stroke-width="1"/><text class="uml-member" data-uml-visibility="public" x="90" y="268" font-family="monospace" font-size="11" fill="#16a34a">findById(id)</text><circle class="uml-vis-glyph" cx="80" cy="279" r="4" fill="#16a34a" stroke="#16a34a" stroke-width="1"/><text class="uml-member" data-uml-visibility="public" x="90" y="284" font-family="monospace" font-size="11" fill="#16a34a">findAll(): List</text><circle class="uml-vis-glyph" cx="80" cy="295" r="4" fill="#16a34a" stroke="#16a34a" stroke-width="1"/><text class="uml-member" data-uml-visibility="public" x="90" y="300" font-family="monospace" font-size="11" fill="#16a34a">save(entity): void</text><rect class="uml-node uml-class" data-uml-id="UserRepository" x="192" y="66" width="213" height="126" rx="4" ry="4" fill="#ffffff" stroke="#1e293b" stroke-width="1.5"/><rect x="192" y="66" width="213" height="30" rx="4" ry="4" fill="#dbeafe" stroke="#1e293b" stroke-width="1.5"/><line x1="192" y1="96" x2="405" y2="96" stroke="#1e293b" stroke-width="1"/><circle class="uml-class-badge" cx="204" cy="83" r="8" fill="#A2D5A2" stroke="#2E7D32" stroke-width="1"/><text class="uml-class-badge-letter" x="204" y="86" text-anchor="middle" font-family="monospace" font-size="9" font-weight="700" fill="#2E7D32">C</text><text x="298" y="87" text-anchor="middle" font-family="monospace" font-size="13" font-weight="600" fill="#0f172a">UserRepository</text><polygon class="uml-vis-glyph" points="206,102 210,107 206,112 202,107" fill="#dc2626" stroke="#dc2626" stroke-width="0.5"/><text class="uml-member" data-uml-visibility="private" x="216" y="112" font-family="monospace" font-size="11" fill="#dc2626">db: Database</text><line x1="192" y1="120" x2="405" y2="120" stroke="#1e293b" stroke-width="1"/><circle class="uml-vis-glyph" cx="206" cy="123" r="4" fill="#16a34a" stroke="#16a34a" stroke-width="1"/><text class="uml-member" data-uml-visibility="public" x="216" y="128" font-family="monospace" font-size="11" fill="#16a34a">findById(id: Long)</text><circle class="uml-vis-glyph" cx="206" cy="139" r="4" fill="#16a34a" stroke="#16a34a" stroke-width="1"/><text class="uml-member" data-uml-visibility="public" x="216" y="144" font-family="monospace" font-size="11" fill="#16a34a">findAll(): List</text><circle class="uml-vis-glyph" cx="206" cy="155" r="4" fill="#16a34a" stroke="#16a34a" stroke-width="1"/><text class="uml-member" data-uml-visibility="public" x="216" y="160" font-family="monospace" font-size="11" fill="#16a34a">findByEmail(email: String)</text><circle class="uml-vis-glyph" cx="206" cy="171" r="4" fill="#16a34a" stroke="#16a34a" stroke-width="1"/><text class="uml-member" data-uml-visibility="public" x="216" y="176" font-family="monospace" font-size="11" fill="#16a34a">save(user: User): User</text><rect class="uml-node uml-class" data-uml-id="User" x="319" y="222" width="213" height="94" rx="4" ry="4" fill="#ffffff" stroke="#1e293b" stroke-width="1.5"/><rect x="319" y="222" width="213" height="30" rx="4" ry="4" fill="#dbeafe" stroke="#1e293b" stroke-width="1.5"/><line x1="319" y1="252" x2="532" y2="252" stroke="#1e293b" stroke-width="1"/><circle class="uml-class-badge" cx="331" cy="239" r="8" fill="#A2D5A2" stroke="#2E7D32" stroke-width="1"/><text class="uml-class-badge-letter" x="331" y="242" text-anchor="middle" font-family="monospace" font-size="9" font-weight="700" fill="#2E7D32">C</text><text x="425" y="243" text-anchor="middle" font-family="monospace" font-size="13" font-weight="600" fill="#0f172a">User</text><polygon class="uml-vis-glyph" points="333,258 337,263 333,268 329,263" fill="#dc2626" stroke="#dc2626" stroke-width="0.5"/><text class="uml-member" data-uml-visibility="private" x="343" y="268" font-family="monospace" font-size="11" fill="#dc2626">id: Long</text><polygon class="uml-vis-glyph" points="333,274 337,279 333,284 329,279" fill="#dc2626" stroke="#dc2626" stroke-width="0.5"/><text class="uml-member" data-uml-visibility="private" x="343" y="284" font-family="monospace" font-size="11" fill="#dc2626">name: String</text><polygon class="uml-vis-glyph" points="333,290 337,295 333,300 329,295" fill="#dc2626" stroke="#dc2626" stroke-width="0.5"/><text class="uml-member" data-uml-visibility="private" x="343" y="300" font-family="monospace" font-size="11" fill="#dc2626">email: String</text></svg>