<svg xmlns="http://www.w3.org/2000/svg" width="570" height="498" viewBox="0 0 570 498" data-orientation="TopToBottom"><rect width="100%" height="100%" fill="#ffffff"/><defs><marker id="arrow-open" viewBox="0 0 10 10" refX="9" refY="5" markerWidth="10" markerHeight="10" markerUnits="userSpaceOnUse" orient="auto-start-reverse"><path d="M0,0 L10,5 L0,10" fill="none" stroke="#1e293b" stroke-width="1.5"/></marker><marker id="arrow-triangle" viewBox="0 0 16 16" refX="15" refY="8" markerWidth="16" markerHeight="16" markerUnits="userSpaceOnUse" orient="auto-start-reverse"><polygon points="0,1 14,8 0,15" fill="#ffffff" stroke="#1e293b" stroke-width="1.5" fill-rule="nonzero"/></marker><marker id="arrow-diamond-filled" viewBox="0 0 14 10" refX="13" refY="5" markerWidth="14" markerHeight="10" markerUnits="userSpaceOnUse" orient="auto-start-reverse"><path d="M0,5 L7,0 L14,5 L7,10 z" fill="#1e293b" stroke="#1e293b" stroke-width="1"/></marker><marker id="arrow-diamond-open" viewBox="0 0 14 10" refX="13" refY="5" markerWidth="14" markerHeight="10" markerUnits="userSpaceOnUse" orient="auto-start-reverse"><path d="M0,5 L7,0 L14,5 L7,10 z" fill="#ffffff" stroke="#1e293b" stroke-width="1"/></marker></defs><defs><marker id="arrow-triangle-filled" viewBox="0 0 12 12" refX="11" refY="6" markerWidth="12" markerHeight="12" markerUnits="userSpaceOnUse" orient="auto-start-reverse"><polygon points="0,0 12,6 0,12" fill="#1e293b" stroke="#1e293b" stroke-width="1.5"/></marker><marker id="arrow-box-filled" viewBox="0 0 12 12" refX="11" refY="6" markerWidth="12" markerHeight="12" markerUnits="userSpaceOnUse" orient="auto-start-reverse"><rect x="2" y="2" width="8" height="8" fill="#1e293b" stroke="#1e293b" stroke-width="1.5"/></marker><marker id="arrow-plus" viewBox="0 0 12 12" refX="11" refY="6" markerWidth="12" markerHeight="12" markerUnits="userSpaceOnUse" orient="auto-start-reverse"><path d="M6,1 L6,11 M1,6 L11,6" fill="none" stroke="#1e293b" stroke-width="1.8" stroke-linecap="round"/></marker><marker id="arrow-cross" viewBox="0 0 12 12" refX="11" refY="6" markerWidth="12" markerHeight="12" markerUnits="userSpaceOnUse" orient="auto-start-reverse"><path d="M2,2 L10,10 M10,2 L2,10" fill="none" stroke="#1e293b" stroke-width="1.8" stroke-linecap="round"/></marker><marker id="arrow-bracket-open" viewBox="0 0 12 14" refX="11" refY="7" markerWidth="12" markerHeight="14" markerUnits="userSpaceOnUse" orient="auto-start-reverse"><path d="M10,1 L4,1 L4,13 L10,13" fill="none" stroke="#1e293b" stroke-width="1.8" stroke-linecap="round" stroke-linejoin="round"/></marker><marker id="arrow-circle-open" viewBox="0 0 12 12" refX="11" refY="6" markerWidth="12" markerHeight="12" markerUnits="userSpaceOnUse" orient="auto-start-reverse"><circle cx="6" cy="6" r="4" fill="#ffffff" stroke="#1e293b" stroke-width="1.5"/></marker><marker id="arrow-circle-filled" viewBox="0 0 12 12" refX="11" refY="6" markerWidth="12" markerHeight="12" markerUnits="userSpaceOnUse" orient="auto-start-reverse"><circle cx="6" cy="6" r="4" fill="#1e293b" stroke="#1e293b" stroke-width="1.5"/></marker><marker id="arrow-double-open" viewBox="0 0 16 12" refX="15" refY="6" markerWidth="16" markerHeight="12" markerUnits="userSpaceOnUse" orient="auto-start-reverse"><path d="M0,1 L8,6 L0,11 M7,1 L15,6 L7,11" fill="none" stroke="#1e293b" stroke-width="1.5" stroke-linejoin="round"/></marker></defs><text x="8" y="32" font-family="monospace" font-size="18" font-weight="600" fill="#0f172a">Domain-Driven Design</text><polyline class="uml-relation" data-uml-from="Order" data-uml-to="OrderItem" data-uml-arrow="*--" points="306,192 306,203 176,203 176,222" fill="none" stroke="#1e293b" stroke-width="2" marker-start="url(#arrow-diamond-filled)" /><polyline class="uml-relation" data-uml-from="Order" data-uml-to="OrderId" data-uml-arrow="*--" points="416,129 306,129 436,253 326,253" fill="none" stroke="#1e293b" stroke-width="2" marker-start="url(#arrow-diamond-filled)" /><polyline class="uml-relation" data-uml-from="OrderItem" data-uml-to="Money" data-uml-arrow="*--" points="286,269 176,269 306,385 196,385" fill="none" stroke="#1e293b" stroke-width="2" marker-start="url(#arrow-diamond-filled)" /><rect class="uml-node uml-class" data-uml-id="Order" x="196" y="66" width="220" height="126" rx="4" ry="4" fill="#ffffff" stroke="#1e293b" stroke-width="1.5"/><rect x="196" y="66" width="220" height="30" rx="4" ry="4" fill="#dbeafe" stroke="#1e293b" stroke-width="1.5"/><line x1="196" y1="96" x2="416" y2="96" stroke="#1e293b" stroke-width="1"/><circle class="uml-class-badge" cx="208" cy="83" r="8" fill="#A2D5A2" stroke="#2E7D32" stroke-width="1"/><text class="uml-class-badge-letter" x="208" y="86" text-anchor="middle" font-family="monospace" font-size="9" font-weight="700" fill="#2E7D32">C</text><text x="306" y="87" text-anchor="middle" font-family="monospace" font-size="13" font-weight="600" fill="#0f172a">Order</text><polygon class="uml-vis-glyph" points="210,102 214,107 210,112 206,107" fill="#dc2626" stroke="#dc2626" stroke-width="0.5"/><text class="uml-member" data-uml-visibility="private" x="220" y="112" font-family="monospace" font-size="11" fill="#dc2626">id: OrderId</text><polygon class="uml-vis-glyph" points="210,118 214,123 210,128 206,123" fill="#dc2626" stroke="#dc2626" stroke-width="0.5"/><rect class="uml-edge-label-bg" data-uml-label-role="edge-background" x="218" y="115" width="102" height="18" fill="white" opacity="0.85"/><text class="uml-member" data-uml-visibility="private" x="220" y="128" font-family="monospace" font-size="11" fill="#dc2626">status: String</text><line x1="196" y1="136" x2="416" y2="136" stroke="#1e293b" stroke-width="1"/><circle class="uml-vis-glyph" cx="210" cy="139" r="4" fill="#16a34a" stroke="#16a34a" stroke-width="1"/><text class="uml-member" data-uml-visibility="public" x="220" y="144" font-family="monospace" font-size="11" fill="#16a34a">addItem(product, qty): void</text><circle class="uml-vis-glyph" cx="210" cy="155" r="4" fill="#16a34a" stroke="#16a34a" stroke-width="1"/><rect class="uml-edge-label-bg" data-uml-label-role="edge-background" x="218" y="147" width="109" height="18" fill="white" opacity="0.85"/><text class="uml-member" data-uml-visibility="public" x="220" y="160" font-family="monospace" font-size="11" fill="#16a34a">confirm(): void</text><circle class="uml-vis-glyph" cx="210" cy="171" r="4" fill="#16a34a" stroke="#16a34a" stroke-width="1"/><text class="uml-member" data-uml-visibility="public" x="220" y="176" font-family="monospace" font-size="11" fill="#16a34a">cancel(): void</text><rect class="uml-node uml-class" data-uml-id="OrderItem" x="66" y="222" width="220" height="94" rx="4" ry="4" fill="#ffffff" stroke="#1e293b" stroke-width="1.5"/><rect x="66" y="222" width="220" height="30" rx="4" ry="4" fill="#dbeafe" stroke="#1e293b" stroke-width="1.5"/><line x1="66" y1="252" x2="286" y2="252" stroke="#1e293b" stroke-width="1"/><circle class="uml-class-badge" cx="78" cy="239" r="8" fill="#A2D5A2" stroke="#2E7D32" stroke-width="1"/><text class="uml-class-badge-letter" x="78" y="242" text-anchor="middle" font-family="monospace" font-size="9" font-weight="700" fill="#2E7D32">C</text><text x="176" y="243" text-anchor="middle" font-family="monospace" font-size="13" font-weight="600" fill="#0f172a">OrderItem</text><polygon class="uml-vis-glyph" points="80,258 84,263 80,268 76,263" fill="#dc2626" stroke="#dc2626" stroke-width="0.5"/><rect class="uml-edge-label-bg" data-uml-label-role="edge-background" x="88" y="255" width="123" height="18" fill="white" opacity="0.85"/><text class="uml-member" data-uml-visibility="private" x="90" y="268" font-family="monospace" font-size="11" fill="#dc2626">productId: String</text><polygon class="uml-vis-glyph" points="80,274 84,279 80,284 76,279" fill="#dc2626" stroke="#dc2626" stroke-width="0.5"/><rect class="uml-edge-label-bg" data-uml-label-role="edge-background" x="88" y="271" width="95" height="18" fill="white" opacity="0.85"/><text class="uml-member" data-uml-visibility="private" x="90" y="284" font-family="monospace" font-size="11" fill="#dc2626">quantity: int</text><polygon class="uml-vis-glyph" points="80,290 84,295 80,300 76,295" fill="#dc2626" stroke="#dc2626" stroke-width="0.5"/><text class="uml-member" data-uml-visibility="private" x="90" y="300" font-family="monospace" font-size="11" fill="#dc2626">price: Money</text><rect class="uml-node uml-class" data-uml-id="OrderId" x="326" y="222" width="220" height="62" rx="4" ry="4" fill="#ffffff" stroke="#1e293b" stroke-width="1.5"/><rect x="326" y="222" width="220" height="30" rx="4" ry="4" fill="#dbeafe" stroke="#1e293b" stroke-width="1.5"/><line x1="326" y1="252" x2="546" y2="252" stroke="#1e293b" stroke-width="1"/><circle class="uml-class-badge" cx="338" cy="239" r="8" fill="#A2D5A2" stroke="#2E7D32" stroke-width="1"/><rect class="uml-edge-label-bg" data-uml-label-role="edge-background" x="333" y="229" width="10" height="18" fill="white" opacity="0.85"/><text class="uml-class-badge-letter" x="338" y="242" text-anchor="middle" font-family="monospace" font-size="9" font-weight="700" fill="#2E7D32">C</text><rect class="uml-edge-label-bg" data-uml-label-role="edge-background" x="410" y="230" width="52" height="18" fill="white" opacity="0.85"/><text x="436" y="243" text-anchor="middle" font-family="monospace" font-size="13" font-weight="600" fill="#0f172a">OrderId</text><polygon class="uml-vis-glyph" points="340,258 344,263 340,268 336,263" fill="#dc2626" stroke="#dc2626" stroke-width="0.5"/><rect class="uml-edge-label-bg" data-uml-label-role="edge-background" x="348" y="255" width="81" height="18" fill="white" opacity="0.85"/><text class="uml-member" data-uml-visibility="private" x="350" y="268" font-family="monospace" font-size="11" fill="#dc2626">value: UUID</text><rect class="uml-node uml-class" data-uml-id="Money" x="196" y="346" width="220" height="78" rx="4" ry="4" fill="#ffffff" stroke="#1e293b" stroke-width="1.5"/><rect x="196" y="346" width="220" height="30" rx="4" ry="4" fill="#dbeafe" stroke="#1e293b" stroke-width="1.5"/><line x1="196" y1="376" x2="416" y2="376" stroke="#1e293b" stroke-width="1"/><circle class="uml-class-badge" cx="208" cy="363" r="8" fill="#A2D5A2" stroke="#2E7D32" stroke-width="1"/><rect class="uml-edge-label-bg" data-uml-label-role="edge-background" x="203" y="353" width="10" height="18" fill="white" opacity="0.85"/><text class="uml-class-badge-letter" x="208" y="366" text-anchor="middle" font-family="monospace" font-size="9" font-weight="700" fill="#2E7D32">C</text><rect class="uml-edge-label-bg" data-uml-label-role="edge-background" x="287" y="354" width="38" height="18" fill="white" opacity="0.85"/><text x="306" y="367" text-anchor="middle" font-family="monospace" font-size="13" font-weight="600" fill="#0f172a">Money</text><polygon class="uml-vis-glyph" points="210,382 214,387 210,392 206,387" fill="#dc2626" stroke="#dc2626" stroke-width="0.5"/><rect class="uml-edge-label-bg" data-uml-label-role="edge-background" x="218" y="379" width="130" height="18" fill="white" opacity="0.85"/><text class="uml-member" data-uml-visibility="private" x="220" y="392" font-family="monospace" font-size="11" fill="#dc2626">amount: BigDecimal</text><polygon class="uml-vis-glyph" points="210,398 214,403 210,408 206,403" fill="#dc2626" stroke="#dc2626" stroke-width="0.5"/><text class="uml-member" data-uml-visibility="private" x="220" y="408" font-family="monospace" font-size="11" fill="#dc2626">currency: String</text></svg>