<svg xmlns="http://www.w3.org/2000/svg" width="917" height="388" viewBox="0 0 917 388"><rect width="100%" height="100%" fill="#ffffff"/><defs><marker id="arrow-open" viewBox="0 0 10 10" refX="9" refY="5" markerWidth="10" markerHeight="10" markerUnits="userSpaceOnUse" orient="auto-start-reverse"><path d="M0,0 L10,5 L0,10" fill="none" stroke="#1e293b" stroke-width="1.5"/></marker><marker id="arrow-triangle" viewBox="0 0 16 16" refX="15" refY="8" markerWidth="16" markerHeight="16" markerUnits="userSpaceOnUse" orient="auto-start-reverse"><polygon points="0,1 14,8 0,15" fill="#ffffff" stroke="#1e293b" stroke-width="1.5" fill-rule="nonzero"/></marker><marker id="arrow-diamond-filled" viewBox="0 0 14 10" refX="13" refY="5" markerWidth="14" markerHeight="10" markerUnits="userSpaceOnUse" orient="auto-start-reverse"><path d="M0,5 L7,0 L14,5 L7,10 z" fill="#1e293b" stroke="#1e293b" stroke-width="1"/></marker><marker id="arrow-diamond-open" viewBox="0 0 14 10" refX="13" refY="5" markerWidth="14" markerHeight="10" markerUnits="userSpaceOnUse" orient="auto-start-reverse"><path d="M0,5 L7,0 L14,5 L7,10 z" fill="#ffffff" stroke="#1e293b" stroke-width="1"/></marker></defs><text x="32" y="32" font-family="monospace" font-size="18" font-weight="600" fill="#0f172a">Microservices Architecture</text><line class="uml-relation" data-uml-from="Gateway" data-uml-to="UserController" x1="263" y1="105" x2="343" y2="85" stroke="#1e293b" stroke-width="2" marker-end="url(#arrow-open)"/><line class="uml-relation" data-uml-from="Gateway" data-uml-to="OrderController" x1="263" y1="105" x2="343" y2="227" stroke="#1e293b" stroke-width="2" marker-end="url(#arrow-open)"/><line class="uml-relation" data-uml-from="UserController" data-uml-to="UserService" x1="574" y1="85" x2="654" y2="85" stroke="#1e293b" stroke-width="2" marker-end="url(#arrow-open)"/><line class="uml-relation" data-uml-from="UserService" data-uml-to="UserRepository" x1="654" y1="85" x2="263" y2="227" stroke="#1e293b" stroke-width="2" marker-end="url(#arrow-open)"/><line class="uml-relation" data-uml-from="OrderController" data-uml-to="OrderService" x1="574" y1="227" x2="654" y2="227" stroke="#1e293b" stroke-width="2" marker-end="url(#arrow-open)"/><line class="uml-relation" data-uml-from="OrderService" data-uml-to="OrderRepository" x1="654" y1="227" x2="263" y2="329" stroke="#1e293b" stroke-width="2" marker-end="url(#arrow-open)"/><rect x="32" y="66" width="231" height="78" rx="4" ry="4" fill="#ffffff" stroke="#1e293b" stroke-width="1.5"/><rect x="32" y="66" width="231" height="30" rx="4" ry="4" fill="#dbeafe" stroke="#1e293b" stroke-width="1.5"/><line x1="32" y1="96" x2="263" y2="96" stroke="#1e293b" stroke-width="1"/><text x="147" y="87" text-anchor="middle" font-family="monospace" font-size="13" font-weight="600" fill="#0f172a">Gateway</text><text class="uml-member" data-uml-visibility="public" x="42" y="112" font-family="monospace" font-size="11" fill="#16a34a">+route(req): Response</text><text class="uml-member" data-uml-visibility="public" x="42" y="128" font-family="monospace" font-size="11" fill="#16a34a">+authenticate(token): boolean</text><rect x="343" y="66" width="231" height="38" rx="4" ry="4" fill="#ffffff" stroke="#1e293b" stroke-width="1.5"/><rect x="343" y="66" width="231" height="30" rx="4" ry="4" fill="#dbeafe" stroke="#1e293b" stroke-width="1.5"/><line x1="343" y1="96" x2="574" y2="96" stroke="#1e293b" stroke-width="1"/><text x="458" y="87" text-anchor="middle" font-family="monospace" font-size="13" font-weight="600" fill="#0f172a">UserController</text><rect x="654" y="66" width="231" height="38" rx="4" ry="4" fill="#ffffff" stroke="#1e293b" stroke-width="1.5"/><rect x="654" y="66" width="231" height="30" rx="4" ry="4" fill="#dbeafe" stroke="#1e293b" stroke-width="1.5"/><line x1="654" y1="96" x2="885" y2="96" stroke="#1e293b" stroke-width="1"/><text x="769" y="87" text-anchor="middle" font-family="monospace" font-size="13" font-weight="600" fill="#0f172a">UserService</text><rect x="32" y="208" width="231" height="38" rx="4" ry="4" fill="#ffffff" stroke="#1e293b" stroke-width="1.5"/><rect x="32" y="208" width="231" height="30" rx="4" ry="4" fill="#dbeafe" stroke="#1e293b" stroke-width="1.5"/><line x1="32" y1="238" x2="263" y2="238" stroke="#1e293b" stroke-width="1"/><text x="147" y="229" text-anchor="middle" font-family="monospace" font-size="13" font-weight="600" fill="#0f172a">UserRepository</text><rect x="343" y="208" width="231" height="38" rx="4" ry="4" fill="#ffffff" stroke="#1e293b" stroke-width="1.5"/><rect x="343" y="208" width="231" height="30" rx="4" ry="4" fill="#dbeafe" stroke="#1e293b" stroke-width="1.5"/><line x1="343" y1="238" x2="574" y2="238" stroke="#1e293b" stroke-width="1"/><text x="458" y="229" text-anchor="middle" font-family="monospace" font-size="13" font-weight="600" fill="#0f172a">OrderController</text><rect x="654" y="208" width="231" height="38" rx="4" ry="4" fill="#ffffff" stroke="#1e293b" stroke-width="1.5"/><rect x="654" y="208" width="231" height="30" rx="4" ry="4" fill="#dbeafe" stroke="#1e293b" stroke-width="1.5"/><line x1="654" y1="238" x2="885" y2="238" stroke="#1e293b" stroke-width="1"/><text x="769" y="229" text-anchor="middle" font-family="monospace" font-size="13" font-weight="600" fill="#0f172a">OrderService</text><rect x="32" y="310" width="231" height="38" rx="4" ry="4" fill="#ffffff" stroke="#1e293b" stroke-width="1.5"/><rect x="32" y="310" width="231" height="30" rx="4" ry="4" fill="#dbeafe" stroke="#1e293b" stroke-width="1.5"/><line x1="32" y1="340" x2="263" y2="340" stroke="#1e293b" stroke-width="1"/><text x="147" y="331" text-anchor="middle" font-family="monospace" font-size="13" font-weight="600" fill="#0f172a">OrderRepository</text></svg>