<svg xmlns="http://www.w3.org/2000/svg" width="648" height="790" viewBox="0 0 648 790" data-orientation="TopToBottom"><rect width="100%" height="100%" fill="#ffffff"/><defs><marker id="arrow-open" viewBox="0 0 10 10" refX="9" refY="5" markerWidth="10" markerHeight="10" markerUnits="userSpaceOnUse" orient="auto-start-reverse"><path d="M0,0 L10,5 L0,10" fill="none" stroke="#1e293b" stroke-width="1.5"/></marker><marker id="arrow-triangle" viewBox="0 0 16 16" refX="15" refY="8" markerWidth="16" markerHeight="16" markerUnits="userSpaceOnUse" orient="auto-start-reverse"><polygon points="0,1 14,8 0,15" fill="#ffffff" stroke="#1e293b" stroke-width="1.5" fill-rule="nonzero"/></marker><marker id="arrow-diamond-filled" viewBox="0 0 14 10" refX="13" refY="5" markerWidth="14" markerHeight="10" markerUnits="userSpaceOnUse" orient="auto-start-reverse"><path d="M0,5 L7,0 L14,5 L7,10 z" fill="#1e293b" stroke="#1e293b" stroke-width="1"/></marker><marker id="arrow-diamond-open" viewBox="0 0 14 10" refX="13" refY="5" markerWidth="14" markerHeight="10" markerUnits="userSpaceOnUse" orient="auto-start-reverse"><path d="M0,5 L7,0 L14,5 L7,10 z" fill="#ffffff" stroke="#1e293b" stroke-width="1"/></marker></defs><defs><marker id="arrow-triangle-filled" viewBox="0 0 12 12" refX="11" refY="6" markerWidth="12" markerHeight="12" markerUnits="userSpaceOnUse" orient="auto-start-reverse"><polygon points="0,0 12,6 0,12" fill="#1e293b" stroke="#1e293b" stroke-width="1.5"/></marker><marker id="arrow-box-filled" viewBox="0 0 12 12" refX="11" refY="6" markerWidth="12" markerHeight="12" markerUnits="userSpaceOnUse" orient="auto-start-reverse"><rect x="2" y="2" width="8" height="8" fill="#1e293b" stroke="#1e293b" stroke-width="1.5"/></marker><marker id="arrow-plus" viewBox="0 0 12 12" refX="11" refY="6" markerWidth="12" markerHeight="12" markerUnits="userSpaceOnUse" orient="auto-start-reverse"><path d="M6,1 L6,11 M1,6 L11,6" fill="none" stroke="#1e293b" stroke-width="1.8" stroke-linecap="round"/></marker><marker id="arrow-cross" viewBox="0 0 12 12" refX="11" refY="6" markerWidth="12" markerHeight="12" markerUnits="userSpaceOnUse" orient="auto-start-reverse"><path d="M2,2 L10,10 M10,2 L2,10" fill="none" stroke="#1e293b" stroke-width="1.8" stroke-linecap="round"/></marker><marker id="arrow-bracket-open" viewBox="0 0 12 14" refX="11" refY="7" markerWidth="12" markerHeight="14" markerUnits="userSpaceOnUse" orient="auto-start-reverse"><path d="M10,1 L4,1 L4,13 L10,13" fill="none" stroke="#1e293b" stroke-width="1.8" stroke-linecap="round" stroke-linejoin="round"/></marker><marker id="arrow-circle-open" viewBox="0 0 12 12" refX="11" refY="6" markerWidth="12" markerHeight="12" markerUnits="userSpaceOnUse" orient="auto-start-reverse"><circle cx="6" cy="6" r="4" fill="#ffffff" stroke="#1e293b" stroke-width="1.5"/></marker><marker id="arrow-circle-filled" viewBox="0 0 12 12" refX="11" refY="6" markerWidth="12" markerHeight="12" markerUnits="userSpaceOnUse" orient="auto-start-reverse"><circle cx="6" cy="6" r="4" fill="#1e293b" stroke="#1e293b" stroke-width="1.5"/></marker><marker id="arrow-double-open" viewBox="0 0 16 12" refX="15" refY="6" markerWidth="16" markerHeight="12" markerUnits="userSpaceOnUse" orient="auto-start-reverse"><path d="M0,1 L8,6 L0,11 M7,1 L15,6 L7,11" fill="none" stroke="#1e293b" stroke-width="1.5" stroke-linejoin="round"/></marker></defs><text x="32" y="32" font-family="monospace" font-size="18" font-weight="600" fill="#0f172a">Microservices Architecture</text><path class="uml-relation" data-uml-from="Gateway" data-uml-to="UserController" data-uml-arrow="--&gt;" d="M 332,144 C 332.0,166.3 306.3,199.8 332.0,211.0 C 357.7,222.2 460.3,198.5 486.0,211.0 C 511.7,223.5 486.0,261.0 486.0,286.0" fill="none" stroke="#1e293b" stroke-width="2" marker-end="url(#arrow-open)" /><path class="uml-relation" data-uml-from="Gateway" data-uml-to="OrderController" data-uml-arrow="--&gt;" d="M 332,144 C 332.0,169.0 357.5,206.5 332.0,219.0 C 306.5,231.5 204.5,207.8 179.0,219.0 C 153.5,230.2 179.0,263.7 179.0,286.0" fill="none" stroke="#1e293b" stroke-width="2" marker-end="url(#arrow-open)" /><path class="uml-relation" data-uml-from="UserController" data-uml-to="UserService" data-uml-arrow="--&gt;" d="M 486,324 C 486.0,347.7 486.0,371.3 486.0,395.0 C 486.0,418.7 486.0,442.3 486.0,466.0" fill="none" stroke="#1e293b" stroke-width="2" marker-end="url(#arrow-open)" /><path class="uml-relation" data-uml-from="UserService" data-uml-to="UserRepository" data-uml-arrow="--&gt;" d="M 486,504 C 486.0,527.7 486.0,551.3 486.0,575.0 C 486.0,598.7 486.0,622.3 486.0,646.0" fill="none" stroke="#1e293b" stroke-width="2" marker-end="url(#arrow-open)" /><path class="uml-relation" data-uml-from="OrderController" data-uml-to="OrderService" data-uml-arrow="--&gt;" d="M 179,324 C 179.0,347.7 179.0,371.3 179.0,395.0 C 179.0,418.7 179.0,442.3 179.0,466.0" fill="none" stroke="#1e293b" stroke-width="2" marker-end="url(#arrow-open)" /><path class="uml-relation" data-uml-from="OrderService" data-uml-to="OrderRepository" data-uml-arrow="--&gt;" d="M 179,504 C 179.0,527.7 179.0,551.3 179.0,575.0 C 179.0,598.7 179.0,622.3 179.0,646.0" fill="none" stroke="#1e293b" stroke-width="2" marker-end="url(#arrow-open)" /><rect x="219" y="66" width="227" height="78" rx="4" ry="4" fill="#ffffff" stroke="#1e293b" stroke-width="1.5"/><rect x="219" y="66" width="227" height="30" rx="4" ry="4" fill="#dbeafe" stroke="#1e293b" stroke-width="1.5"/><line x1="219" y1="96" x2="446" y2="96" stroke="#1e293b" stroke-width="1"/><text x="332" y="87" text-anchor="middle" font-family="monospace" font-size="13" font-weight="600" fill="#0f172a">Gateway</text><text class="uml-member" data-uml-visibility="public" x="229" y="112" font-family="monospace" font-size="11" fill="#16a34a">+route(req): Response</text><text class="uml-member" data-uml-visibility="public" x="229" y="128" font-family="monospace" font-size="11" fill="#16a34a">+authenticate(token): boolean</text><rect x="373" y="286" width="227" height="38" rx="4" ry="4" fill="#ffffff" stroke="#1e293b" stroke-width="1.5"/><rect x="373" y="286" width="227" height="30" rx="4" ry="4" fill="#dbeafe" stroke="#1e293b" stroke-width="1.5"/><line x1="373" y1="316" x2="600" y2="316" stroke="#1e293b" stroke-width="1"/><text x="486" y="307" text-anchor="middle" font-family="monospace" font-size="13" font-weight="600" fill="#0f172a">UserController</text><rect x="373" y="466" width="227" height="38" rx="4" ry="4" fill="#ffffff" stroke="#1e293b" stroke-width="1.5"/><rect x="373" y="466" width="227" height="30" rx="4" ry="4" fill="#dbeafe" stroke="#1e293b" stroke-width="1.5"/><line x1="373" y1="496" x2="600" y2="496" stroke="#1e293b" stroke-width="1"/><text x="486" y="487" text-anchor="middle" font-family="monospace" font-size="13" font-weight="600" fill="#0f172a">UserService</text><rect x="373" y="646" width="227" height="38" rx="4" ry="4" fill="#ffffff" stroke="#1e293b" stroke-width="1.5"/><rect x="373" y="646" width="227" height="30" rx="4" ry="4" fill="#dbeafe" stroke="#1e293b" stroke-width="1.5"/><line x1="373" y1="676" x2="600" y2="676" stroke="#1e293b" stroke-width="1"/><text x="486" y="667" text-anchor="middle" font-family="monospace" font-size="13" font-weight="600" fill="#0f172a">UserRepository</text><rect x="66" y="286" width="227" height="38" rx="4" ry="4" fill="#ffffff" stroke="#1e293b" stroke-width="1.5"/><rect x="66" y="286" width="227" height="30" rx="4" ry="4" fill="#dbeafe" stroke="#1e293b" stroke-width="1.5"/><line x1="66" y1="316" x2="293" y2="316" stroke="#1e293b" stroke-width="1"/><text x="179" y="307" text-anchor="middle" font-family="monospace" font-size="13" font-weight="600" fill="#0f172a">OrderController</text><rect x="66" y="466" width="227" height="38" rx="4" ry="4" fill="#ffffff" stroke="#1e293b" stroke-width="1.5"/><rect x="66" y="466" width="227" height="30" rx="4" ry="4" fill="#dbeafe" stroke="#1e293b" stroke-width="1.5"/><line x1="66" y1="496" x2="293" y2="496" stroke="#1e293b" stroke-width="1"/><text x="179" y="487" text-anchor="middle" font-family="monospace" font-size="13" font-weight="600" fill="#0f172a">OrderService</text><rect x="66" y="646" width="227" height="38" rx="4" ry="4" fill="#ffffff" stroke="#1e293b" stroke-width="1.5"/><rect x="66" y="646" width="227" height="30" rx="4" ry="4" fill="#dbeafe" stroke="#1e293b" stroke-width="1.5"/><line x1="66" y1="676" x2="293" y2="676" stroke="#1e293b" stroke-width="1"/><text x="179" y="667" text-anchor="middle" font-family="monospace" font-size="13" font-weight="600" fill="#0f172a">OrderRepository</text></svg>