<svg xmlns="http://www.w3.org/2000/svg" width="634" height="850" viewBox="0 0 634 850" data-orientation="TopToBottom"><rect width="100%" height="100%" fill="#ffffff"/><defs><marker id="arrow-open" viewBox="0 0 10 10" refX="9" refY="5" markerWidth="10" markerHeight="10" markerUnits="userSpaceOnUse" orient="auto-start-reverse"><path d="M0,0 L10,5 L0,10" fill="none" stroke="#1e293b" stroke-width="1.5"/></marker><marker id="arrow-triangle" viewBox="0 0 16 16" refX="15" refY="8" markerWidth="16" markerHeight="16" markerUnits="userSpaceOnUse" orient="auto-start-reverse"><polygon points="0,1 14,8 0,15" fill="#ffffff" stroke="#1e293b" stroke-width="1.5" fill-rule="nonzero"/></marker><marker id="arrow-diamond-filled" viewBox="0 0 14 10" refX="13" refY="5" markerWidth="14" markerHeight="10" markerUnits="userSpaceOnUse" orient="auto-start-reverse"><path d="M0,5 L7,0 L14,5 L7,10 z" fill="#1e293b" stroke="#1e293b" stroke-width="1"/></marker><marker id="arrow-diamond-open" viewBox="0 0 14 10" refX="13" refY="5" markerWidth="14" markerHeight="10" markerUnits="userSpaceOnUse" orient="auto-start-reverse"><path d="M0,5 L7,0 L14,5 L7,10 z" fill="#ffffff" stroke="#1e293b" stroke-width="1"/></marker></defs><text x="32" y="32" font-family="monospace" font-size="18" font-weight="600" fill="#0f172a">Domain-Driven Design</text><polyline class="uml-relation" data-uml-from="Order" data-uml-to="OrderItem" data-uml-arrow="*--" points="326,192 326,283 176,283 176,382" fill="none" stroke="#1e293b" stroke-width="2" marker-start="url(#arrow-diamond-filled)" /><polyline class="uml-relation" data-uml-from="Order" data-uml-to="OrderId" data-uml-arrow="*--" points="326,192 326,291 476,291 476,382" fill="none" stroke="#1e293b" stroke-width="2" marker-start="url(#arrow-diamond-filled)" /><polyline class="uml-relation" data-uml-from="OrderItem" data-uml-to="Money" data-uml-arrow="*--" points="176,476 176,571 326,571 326,666" fill="none" stroke="#1e293b" stroke-width="2" marker-start="url(#arrow-diamond-filled)" /><rect x="216" y="66" width="220" height="126" rx="4" ry="4" fill="#ffffff" stroke="#1e293b" stroke-width="1.5"/><rect x="216" y="66" width="220" height="30" rx="4" ry="4" fill="#dbeafe" stroke="#1e293b" stroke-width="1.5"/><line x1="216" y1="96" x2="436" y2="96" stroke="#1e293b" stroke-width="1"/><text x="326" y="87" text-anchor="middle" font-family="monospace" font-size="13" font-weight="600" fill="#0f172a">Order</text><text class="uml-member" data-uml-visibility="private" x="226" y="112" font-family="monospace" font-size="11" fill="#dc2626">-id: OrderId</text><text class="uml-member" data-uml-visibility="private" x="226" y="128" font-family="monospace" font-size="11" fill="#dc2626">-status: String</text><line x1="216" y1="136" x2="436" y2="136" stroke="#1e293b" stroke-width="1"/><text class="uml-member" data-uml-visibility="public" x="226" y="144" font-family="monospace" font-size="11" fill="#16a34a">+addItem(product, qty): void</text><text class="uml-member" data-uml-visibility="public" x="226" y="160" font-family="monospace" font-size="11" fill="#16a34a">+confirm(): void</text><text class="uml-member" data-uml-visibility="public" x="226" y="176" font-family="monospace" font-size="11" fill="#16a34a">+cancel(): void</text><rect x="66" y="382" width="220" height="94" rx="4" ry="4" fill="#ffffff" stroke="#1e293b" stroke-width="1.5"/><rect x="66" y="382" width="220" height="30" rx="4" ry="4" fill="#dbeafe" stroke="#1e293b" stroke-width="1.5"/><line x1="66" y1="412" x2="286" y2="412" stroke="#1e293b" stroke-width="1"/><text x="176" y="403" text-anchor="middle" font-family="monospace" font-size="13" font-weight="600" fill="#0f172a">OrderItem</text><text class="uml-member" data-uml-visibility="private" x="76" y="428" font-family="monospace" font-size="11" fill="#dc2626">-productId: String</text><text class="uml-member" data-uml-visibility="private" x="76" y="444" font-family="monospace" font-size="11" fill="#dc2626">-quantity: int</text><text class="uml-member" data-uml-visibility="private" x="76" y="460" font-family="monospace" font-size="11" fill="#dc2626">-price: Money</text><rect x="366" y="382" width="220" height="62" rx="4" ry="4" fill="#ffffff" stroke="#1e293b" stroke-width="1.5"/><rect x="366" y="382" width="220" height="30" rx="4" ry="4" fill="#dbeafe" stroke="#1e293b" stroke-width="1.5"/><line x1="366" y1="412" x2="586" y2="412" stroke="#1e293b" stroke-width="1"/><text x="476" y="403" text-anchor="middle" font-family="monospace" font-size="13" font-weight="600" fill="#0f172a">OrderId</text><text class="uml-member" data-uml-visibility="private" x="376" y="428" font-family="monospace" font-size="11" fill="#dc2626">-value: UUID</text><rect x="216" y="666" width="220" height="78" rx="4" ry="4" fill="#ffffff" stroke="#1e293b" stroke-width="1.5"/><rect x="216" y="666" width="220" height="30" rx="4" ry="4" fill="#dbeafe" stroke="#1e293b" stroke-width="1.5"/><line x1="216" y1="696" x2="436" y2="696" stroke="#1e293b" stroke-width="1"/><text x="326" y="687" text-anchor="middle" font-family="monospace" font-size="13" font-weight="600" fill="#0f172a">Money</text><text class="uml-member" data-uml-visibility="private" x="226" y="712" font-family="monospace" font-size="11" fill="#dc2626">-amount: BigDecimal</text><text class="uml-member" data-uml-visibility="private" x="226" y="728" font-family="monospace" font-size="11" fill="#dc2626">-currency: String</text></svg>