<svg xmlns="http://www.w3.org/2000/svg" width="578" height="550" viewBox="0 0 578 550" data-orientation="TopToBottom"><rect width="100%" height="100%" fill="#ffffff"/><defs><marker id="arrow-open" viewBox="0 0 10 10" refX="9" refY="5" markerWidth="10" markerHeight="10" markerUnits="userSpaceOnUse" orient="auto-start-reverse"><path d="M0,0 L10,5 L0,10" fill="none" stroke="#1e293b" stroke-width="1.5"/></marker><marker id="arrow-triangle" viewBox="0 0 16 16" refX="15" refY="8" markerWidth="16" markerHeight="16" markerUnits="userSpaceOnUse" orient="auto-start-reverse"><polygon points="0,1 14,8 0,15" fill="#ffffff" stroke="#1e293b" stroke-width="1.5" fill-rule="nonzero"/></marker><marker id="arrow-diamond-filled" viewBox="0 0 14 10" refX="13" refY="5" markerWidth="14" markerHeight="10" markerUnits="userSpaceOnUse" orient="auto-start-reverse"><path d="M0,5 L7,0 L14,5 L7,10 z" fill="#1e293b" stroke="#1e293b" stroke-width="1"/></marker><marker id="arrow-diamond-open" viewBox="0 0 14 10" refX="13" refY="5" markerWidth="14" markerHeight="10" markerUnits="userSpaceOnUse" orient="auto-start-reverse"><path d="M0,5 L7,0 L14,5 L7,10 z" fill="#ffffff" stroke="#1e293b" stroke-width="1"/></marker></defs><defs><marker id="arrow-triangle-filled" viewBox="0 0 12 12" refX="11" refY="6" markerWidth="12" markerHeight="12" markerUnits="userSpaceOnUse" orient="auto-start-reverse"><polygon points="0,0 12,6 0,12" fill="#1e293b" stroke="#1e293b" stroke-width="1.5"/></marker><marker id="arrow-box-filled" viewBox="0 0 12 12" refX="11" refY="6" markerWidth="12" markerHeight="12" markerUnits="userSpaceOnUse" orient="auto-start-reverse"><rect x="2" y="2" width="8" height="8" fill="#1e293b" stroke="#1e293b" stroke-width="1.5"/></marker><marker id="arrow-plus" viewBox="0 0 12 12" refX="11" refY="6" markerWidth="12" markerHeight="12" markerUnits="userSpaceOnUse" orient="auto-start-reverse"><path d="M6,1 L6,11 M1,6 L11,6" fill="none" stroke="#1e293b" stroke-width="1.8" stroke-linecap="round"/></marker><marker id="arrow-cross" viewBox="0 0 12 12" refX="11" refY="6" markerWidth="12" markerHeight="12" markerUnits="userSpaceOnUse" orient="auto-start-reverse"><path d="M2,2 L10,10 M10,2 L2,10" fill="none" stroke="#1e293b" stroke-width="1.8" stroke-linecap="round"/></marker><marker id="arrow-bracket-open" viewBox="0 0 12 14" refX="11" refY="7" markerWidth="12" markerHeight="14" markerUnits="userSpaceOnUse" orient="auto-start-reverse"><path d="M10,1 L4,1 L4,13 L10,13" fill="none" stroke="#1e293b" stroke-width="1.8" stroke-linecap="round" stroke-linejoin="round"/></marker><marker id="arrow-circle-open" viewBox="0 0 12 12" refX="11" refY="6" markerWidth="12" markerHeight="12" markerUnits="userSpaceOnUse" orient="auto-start-reverse"><circle cx="6" cy="6" r="4" fill="#ffffff" stroke="#1e293b" stroke-width="1.5"/></marker><marker id="arrow-circle-filled" viewBox="0 0 12 12" refX="11" refY="6" markerWidth="12" markerHeight="12" markerUnits="userSpaceOnUse" orient="auto-start-reverse"><circle cx="6" cy="6" r="4" fill="#1e293b" stroke="#1e293b" stroke-width="1.5"/></marker><marker id="arrow-double-open" viewBox="0 0 16 12" refX="15" refY="6" markerWidth="16" markerHeight="12" markerUnits="userSpaceOnUse" orient="auto-start-reverse"><path d="M0,1 L8,6 L0,11 M7,1 L15,6 L7,11" fill="none" stroke="#1e293b" stroke-width="1.5" stroke-linejoin="round"/></marker></defs><text x="16" y="32" font-family="monospace" font-size="18" font-weight="600" fill="#0f172a">Domain-Driven Design</text><polyline class="uml-relation" data-uml-from="Order" data-uml-to="OrderItem" data-uml-arrow="*--" points="306,192 306,208 176,208 176,232" fill="none" stroke="#1e293b" stroke-width="2" marker-start="url(#arrow-diamond-filled)" /><polyline class="uml-relation" data-uml-from="Order" data-uml-to="OrderId" data-uml-arrow="*--" points="306,192 306,216 436,216 436,232" fill="none" stroke="#1e293b" stroke-width="2" marker-start="url(#arrow-diamond-filled)" /><polyline class="uml-relation" data-uml-from="OrderItem" data-uml-to="Money" data-uml-arrow="*--" points="286,279 286,346 196,346 196,405" fill="none" stroke="#1e293b" stroke-width="2" marker-start="url(#arrow-diamond-filled)" /><rect class="uml-node uml-class" data-uml-id="Order" x="196" y="66" width="220" height="126" rx="4" ry="4" fill="#ffffff" stroke="#1e293b" stroke-width="1.5"/><rect x="196" y="66" width="220" height="30" rx="4" ry="4" fill="#dbeafe" stroke="#1e293b" stroke-width="1.5"/><line x1="196" y1="96" x2="416" y2="96" stroke="#1e293b" stroke-width="1"/><circle class="uml-class-badge" cx="208" cy="83" r="8" fill="#A2D5A2" stroke="#2E7D32" stroke-width="1"/><text class="uml-class-badge-letter" x="208" y="86" text-anchor="middle" font-family="monospace" font-size="9" font-weight="700" fill="#2E7D32">C</text><text x="306" y="87" text-anchor="middle" font-family="monospace" font-size="13" font-weight="600" fill="#0f172a">Order</text><polygon class="uml-vis-glyph" points="210,102 214,107 210,112 206,107" fill="#dc2626" stroke="#dc2626" stroke-width="0.5"/><text class="uml-member" data-uml-visibility="private" x="220" y="112" font-family="monospace" font-size="11" fill="#dc2626">id: OrderId</text><polygon class="uml-vis-glyph" points="210,118 214,123 210,128 206,123" fill="#dc2626" stroke="#dc2626" stroke-width="0.5"/><text class="uml-member" data-uml-visibility="private" x="220" y="128" font-family="monospace" font-size="11" fill="#dc2626">status: String</text><line x1="196" y1="136" x2="416" y2="136" stroke="#1e293b" stroke-width="1"/><circle class="uml-vis-glyph" cx="210" cy="139" r="4" fill="#16a34a" stroke="#16a34a" stroke-width="1"/><text class="uml-member" data-uml-visibility="public" x="220" y="144" font-family="monospace" font-size="11" fill="#16a34a">addItem(product, qty): void</text><circle class="uml-vis-glyph" cx="210" cy="155" r="4" fill="#16a34a" stroke="#16a34a" stroke-width="1"/><text class="uml-member" data-uml-visibility="public" x="220" y="160" font-family="monospace" font-size="11" fill="#16a34a">confirm(): void</text><circle class="uml-vis-glyph" cx="210" cy="171" r="4" fill="#16a34a" stroke="#16a34a" stroke-width="1"/><text class="uml-member" data-uml-visibility="public" x="220" y="176" font-family="monospace" font-size="11" fill="#16a34a">cancel(): void</text><rect class="uml-node uml-class" data-uml-id="OrderItem" x="66" y="232" width="220" height="94" rx="4" ry="4" fill="#ffffff" stroke="#1e293b" stroke-width="1.5"/><rect x="66" y="232" width="220" height="30" rx="4" ry="4" fill="#dbeafe" stroke="#1e293b" stroke-width="1.5"/><line x1="66" y1="262" x2="286" y2="262" stroke="#1e293b" stroke-width="1"/><circle class="uml-class-badge" cx="78" cy="249" r="8" fill="#A2D5A2" stroke="#2E7D32" stroke-width="1"/><text class="uml-class-badge-letter" x="78" y="252" text-anchor="middle" font-family="monospace" font-size="9" font-weight="700" fill="#2E7D32">C</text><text x="176" y="253" text-anchor="middle" font-family="monospace" font-size="13" font-weight="600" fill="#0f172a">OrderItem</text><polygon class="uml-vis-glyph" points="80,268 84,273 80,278 76,273" fill="#dc2626" stroke="#dc2626" stroke-width="0.5"/><text class="uml-member" data-uml-visibility="private" x="90" y="278" font-family="monospace" font-size="11" fill="#dc2626">productId: String</text><polygon class="uml-vis-glyph" points="80,284 84,289 80,294 76,289" fill="#dc2626" stroke="#dc2626" stroke-width="0.5"/><text class="uml-member" data-uml-visibility="private" x="90" y="294" font-family="monospace" font-size="11" fill="#dc2626">quantity: int</text><polygon class="uml-vis-glyph" points="80,300 84,305 80,310 76,305" fill="#dc2626" stroke="#dc2626" stroke-width="0.5"/><text class="uml-member" data-uml-visibility="private" x="90" y="310" font-family="monospace" font-size="11" fill="#dc2626">price: Money</text><rect class="uml-node uml-class" data-uml-id="OrderId" x="326" y="232" width="220" height="62" rx="4" ry="4" fill="#ffffff" stroke="#1e293b" stroke-width="1.5"/><rect x="326" y="232" width="220" height="30" rx="4" ry="4" fill="#dbeafe" stroke="#1e293b" stroke-width="1.5"/><line x1="326" y1="262" x2="546" y2="262" stroke="#1e293b" stroke-width="1"/><circle class="uml-class-badge" cx="338" cy="249" r="8" fill="#A2D5A2" stroke="#2E7D32" stroke-width="1"/><text class="uml-class-badge-letter" x="338" y="252" text-anchor="middle" font-family="monospace" font-size="9" font-weight="700" fill="#2E7D32">C</text><text x="436" y="253" text-anchor="middle" font-family="monospace" font-size="13" font-weight="600" fill="#0f172a">OrderId</text><polygon class="uml-vis-glyph" points="340,268 344,273 340,278 336,273" fill="#dc2626" stroke="#dc2626" stroke-width="0.5"/><text class="uml-member" data-uml-visibility="private" x="350" y="278" font-family="monospace" font-size="11" fill="#dc2626">value: UUID</text><rect class="uml-node uml-class" data-uml-id="Money" x="196" y="366" width="220" height="78" rx="4" ry="4" fill="#ffffff" stroke="#1e293b" stroke-width="1.5"/><rect x="196" y="366" width="220" height="30" rx="4" ry="4" fill="#dbeafe" stroke="#1e293b" stroke-width="1.5"/><line x1="196" y1="396" x2="416" y2="396" stroke="#1e293b" stroke-width="1"/><circle class="uml-class-badge" cx="208" cy="383" r="8" fill="#A2D5A2" stroke="#2E7D32" stroke-width="1"/><text class="uml-class-badge-letter" x="208" y="386" text-anchor="middle" font-family="monospace" font-size="9" font-weight="700" fill="#2E7D32">C</text><text x="306" y="387" text-anchor="middle" font-family="monospace" font-size="13" font-weight="600" fill="#0f172a">Money</text><polygon class="uml-vis-glyph" points="210,402 214,407 210,412 206,407" fill="#dc2626" stroke="#dc2626" stroke-width="0.5"/><text class="uml-member" data-uml-visibility="private" x="220" y="412" font-family="monospace" font-size="11" fill="#dc2626">amount: BigDecimal</text><polygon class="uml-vis-glyph" points="210,418 214,423 210,428 206,423" fill="#dc2626" stroke="#dc2626" stroke-width="0.5"/><text class="uml-member" data-uml-visibility="private" x="220" y="428" font-family="monospace" font-size="11" fill="#dc2626">currency: String</text></svg>