<svg xmlns="http://www.w3.org/2000/svg" width="760" height="374" viewBox="0 0 760 374"><rect width="100%" height="100%" fill="#ffffff"/><defs><marker id="arrow-open" viewBox="0 0 10 10" refX="9" refY="5" markerWidth="10" markerHeight="10" orient="auto-start-reverse"><path d="M0,0 L10,5 L0,10" fill="none" stroke="#1e293b" stroke-width="1.5"/></marker><marker id="arrow-triangle" viewBox="0 0 12 12" refX="11" refY="6" markerWidth="12" markerHeight="12" orient="auto-start-reverse"><path d="M0,0 L12,6 L0,12 z" fill="white" stroke="#1e293b" stroke-width="1.5"/></marker><marker id="arrow-diamond-filled" viewBox="0 0 14 10" refX="13" refY="5" markerWidth="14" markerHeight="10" orient="auto-start-reverse"><path d="M0,5 L7,0 L14,5 L7,10 z" fill="#1e293b" stroke="#1e293b" stroke-width="1"/></marker><marker id="arrow-diamond-open" viewBox="0 0 14 10" refX="13" refY="5" markerWidth="14" markerHeight="10" orient="auto-start-reverse"><path d="M0,5 L7,0 L14,5 L7,10 z" fill="white" stroke="#1e293b" stroke-width="1"/></marker></defs><text x="32" y="32" font-family="monospace" font-size="18" font-weight="600" fill="#0f172a">Domain-Driven Design</text><line class="uml-relation" data-uml-from="Order" data-uml-to="OrderItem" x1="232" y1="123" x2="280" y2="119" stroke="#1e293b" stroke-width="2" marker-start="url(#arrow-diamond-filled)"/><line class="uml-relation" data-uml-from="Order" data-uml-to="OrderId" x1="232" y1="123" x2="528" y2="103" stroke="#1e293b" stroke-width="2" marker-start="url(#arrow-diamond-filled)"/><line class="uml-relation" data-uml-from="OrderItem" data-uml-to="Money" x1="316" y1="160" x2="185" y2="256" stroke="#1e293b" stroke-width="2" marker-start="url(#arrow-diamond-filled)"/><rect x="32" y="66" width="200" height="126" rx="4" ry="4" fill="#ffffff" stroke="#1e293b" stroke-width="1.5"/><rect x="32" y="66" width="200" height="30" rx="4" ry="4" fill="#dbeafe" stroke="#1e293b" stroke-width="1.5"/><line x1="32" y1="96" x2="232" y2="96" stroke="#1e293b" stroke-width="1"/><text x="132" y="87" text-anchor="middle" font-family="monospace" font-size="13" font-weight="600" fill="#0f172a">class Order</text><text class="uml-member" data-uml-visibility="private" x="42" y="112" font-family="monospace" font-size="11" fill="#dc2626">-id: OrderId</text><text class="uml-member" data-uml-visibility="private" x="42" y="128" font-family="monospace" font-size="11" fill="#dc2626">-status: String</text><text class="uml-member" data-uml-visibility="public" x="42" y="144" font-family="monospace" font-size="11" fill="#16a34a">+addItem(product, qty): void</text><text class="uml-member" data-uml-visibility="public" x="42" y="160" font-family="monospace" font-size="11" fill="#16a34a">+confirm(): void</text><text class="uml-member" data-uml-visibility="public" x="42" y="176" font-family="monospace" font-size="11" fill="#16a34a">+cancel(): void</text><rect x="280" y="66" width="200" height="94" rx="4" ry="4" fill="#ffffff" stroke="#1e293b" stroke-width="1.5"/><rect x="280" y="66" width="200" height="30" rx="4" ry="4" fill="#dbeafe" stroke="#1e293b" stroke-width="1.5"/><line x1="280" y1="96" x2="480" y2="96" stroke="#1e293b" stroke-width="1"/><text x="380" y="87" text-anchor="middle" font-family="monospace" font-size="13" font-weight="600" fill="#0f172a">class OrderItem</text><text class="uml-member" data-uml-visibility="private" x="290" y="112" font-family="monospace" font-size="11" fill="#dc2626">-productId: String</text><text class="uml-member" data-uml-visibility="private" x="290" y="128" font-family="monospace" font-size="11" fill="#dc2626">-quantity: int</text><text class="uml-member" data-uml-visibility="private" x="290" y="144" font-family="monospace" font-size="11" fill="#dc2626">-price: Money</text><rect x="528" y="66" width="200" height="62" rx="4" ry="4" fill="#ffffff" stroke="#1e293b" stroke-width="1.5"/><rect x="528" y="66" width="200" height="30" rx="4" ry="4" fill="#dbeafe" stroke="#1e293b" stroke-width="1.5"/><line x1="528" y1="96" x2="728" y2="96" stroke="#1e293b" stroke-width="1"/><text x="628" y="87" text-anchor="middle" font-family="monospace" font-size="13" font-weight="600" fill="#0f172a">class OrderId</text><text class="uml-member" data-uml-visibility="private" x="538" y="112" font-family="monospace" font-size="11" fill="#dc2626">-value: UUID</text><rect x="32" y="256" width="200" height="78" rx="4" ry="4" fill="#ffffff" stroke="#1e293b" stroke-width="1.5"/><rect x="32" y="256" width="200" height="30" rx="4" ry="4" fill="#dbeafe" stroke="#1e293b" stroke-width="1.5"/><line x1="32" y1="286" x2="232" y2="286" stroke="#1e293b" stroke-width="1"/><text x="132" y="277" text-anchor="middle" font-family="monospace" font-size="13" font-weight="600" fill="#0f172a">class Money</text><text class="uml-member" data-uml-visibility="private" x="42" y="302" font-family="monospace" font-size="11" fill="#dc2626">-amount: BigDecimal</text><text class="uml-member" data-uml-visibility="private" x="42" y="318" font-family="monospace" font-size="11" fill="#dc2626">-currency: String</text></svg>