<svg xmlns="http://www.w3.org/2000/svg" width="809" height="342" viewBox="0 0 809 342" data-orientation="TopToBottom"><rect width="100%" height="100%" fill="#ffffff"/><defs><marker id="arrow-open" viewBox="0 0 10 10" refX="9" refY="5" markerWidth="10" markerHeight="10" markerUnits="userSpaceOnUse" orient="auto-start-reverse"><path d="M0,0 L10,5 L0,10" fill="none" stroke="#1e293b" stroke-width="1.5"/></marker><marker id="arrow-triangle" viewBox="0 0 16 16" refX="15" refY="8" markerWidth="16" markerHeight="16" markerUnits="userSpaceOnUse" orient="auto-start-reverse"><polygon points="0,1 14,8 0,15" fill="#ffffff" stroke="#1e293b" stroke-width="1.5" fill-rule="nonzero"/></marker><marker id="arrow-diamond-filled" viewBox="0 0 14 10" refX="13" refY="5" markerWidth="14" markerHeight="10" markerUnits="userSpaceOnUse" orient="auto-start-reverse"><path d="M0,5 L7,0 L14,5 L7,10 z" fill="#1e293b" stroke="#1e293b" stroke-width="1"/></marker><marker id="arrow-diamond-open" viewBox="0 0 14 10" refX="13" refY="5" markerWidth="14" markerHeight="10" markerUnits="userSpaceOnUse" orient="auto-start-reverse"><path d="M0,5 L7,0 L14,5 L7,10 z" fill="#ffffff" stroke="#1e293b" stroke-width="1"/></marker></defs><defs><marker id="arrow-triangle-filled" viewBox="0 0 12 12" refX="11" refY="6" markerWidth="12" markerHeight="12" markerUnits="userSpaceOnUse" orient="auto-start-reverse"><polygon points="0,0 12,6 0,12" fill="#1e293b" stroke="#1e293b" stroke-width="1.5"/></marker><marker id="arrow-box-filled" viewBox="0 0 12 12" refX="11" refY="6" markerWidth="12" markerHeight="12" markerUnits="userSpaceOnUse" orient="auto-start-reverse"><rect x="2" y="2" width="8" height="8" fill="#1e293b" stroke="#1e293b" stroke-width="1.5"/></marker><marker id="arrow-plus" viewBox="0 0 12 12" refX="11" refY="6" markerWidth="12" markerHeight="12" markerUnits="userSpaceOnUse" orient="auto-start-reverse"><path d="M6,1 L6,11 M1,6 L11,6" fill="none" stroke="#1e293b" stroke-width="1.8" stroke-linecap="round"/></marker><marker id="arrow-cross" viewBox="0 0 12 12" refX="11" refY="6" markerWidth="12" markerHeight="12" markerUnits="userSpaceOnUse" orient="auto-start-reverse"><path d="M2,2 L10,10 M10,2 L2,10" fill="none" stroke="#1e293b" stroke-width="1.8" stroke-linecap="round"/></marker><marker id="arrow-bracket-open" viewBox="0 0 12 14" refX="11" refY="7" markerWidth="12" markerHeight="14" markerUnits="userSpaceOnUse" orient="auto-start-reverse"><path d="M10,1 L4,1 L4,13 L10,13" fill="none" stroke="#1e293b" stroke-width="1.8" stroke-linecap="round" stroke-linejoin="round"/></marker><marker id="arrow-circle-open" viewBox="0 0 12 12" refX="11" refY="6" markerWidth="12" markerHeight="12" markerUnits="userSpaceOnUse" orient="auto-start-reverse"><circle cx="6" cy="6" r="4" fill="#ffffff" stroke="#1e293b" stroke-width="1.5"/></marker><marker id="arrow-circle-filled" viewBox="0 0 12 12" refX="11" refY="6" markerWidth="12" markerHeight="12" markerUnits="userSpaceOnUse" orient="auto-start-reverse"><circle cx="6" cy="6" r="4" fill="#1e293b" stroke="#1e293b" stroke-width="1.5"/></marker><marker id="arrow-double-open" viewBox="0 0 16 12" refX="15" refY="6" markerWidth="16" markerHeight="12" markerUnits="userSpaceOnUse" orient="auto-start-reverse"><path d="M0,1 L8,6 L0,11 M7,1 L15,6 L7,11" fill="none" stroke="#1e293b" stroke-width="1.5" stroke-linejoin="round"/></marker></defs><text x="8" y="32" font-family="monospace" font-size="18" font-weight="600" fill="#0f172a">Event Sourcing</text><polyline class="uml-relation" data-uml-from="OrderCreated" data-uml-to="Event" data-uml-arrow="&lt;|--" points="319,105 319,159 405,159 405,213" fill="none" stroke="#1e293b" stroke-width="2" marker-start="url(#arrow-triangle)" /><polyline class="uml-relation" data-uml-from="OrderAggregate" data-uml-to="Aggregate" data-uml-arrow="&lt;|--" points="572,97 572,167 658,167 658,221" fill="none" stroke="#1e293b" stroke-width="2" marker-start="url(#arrow-triangle)" /><polyline class="uml-relation" data-uml-from="EventStore" data-uml-to="Event" data-uml-arrow="--&gt;" points="279,105 279,151 192,151 192,213" fill="none" stroke="#1e293b" stroke-width="2" marker-end="url(#arrow-open)" /><rect class="uml-node uml-class" data-uml-id="Event" x="192" y="174" width="213" height="78" rx="4" ry="4" fill="#ffffff" stroke="#1e293b" stroke-width="1.5"/><rect x="192" y="174" width="213" height="30" rx="4" ry="4" fill="#dbeafe" stroke="#1e293b" stroke-width="1.5"/><line x1="192" y1="204" x2="405" y2="204" stroke="#1e293b" stroke-width="1"/><circle class="uml-class-badge" cx="204" cy="191" r="8" fill="#A2D5A2" stroke="#2E7D32" stroke-width="1"/><text class="uml-class-badge-letter" x="204" y="194" text-anchor="middle" font-family="monospace" font-size="9" font-weight="700" fill="#2E7D32">C</text><text x="298" y="195" text-anchor="middle" font-family="monospace" font-size="13" font-weight="600" fill="#0f172a">Event</text><circle class="uml-vis-glyph" cx="206" cy="215" r="4" fill="#16a34a" stroke="#16a34a" stroke-width="1"/><text class="uml-member" data-uml-visibility="public" x="216" y="220" font-family="monospace" font-size="11" fill="#16a34a">aggregateId(): String</text><circle class="uml-vis-glyph" cx="206" cy="231" r="4" fill="#16a34a" stroke="#16a34a" stroke-width="1"/><text class="uml-member" data-uml-visibility="public" x="216" y="236" font-family="monospace" font-size="11" fill="#16a34a">timestamp(): Instant</text><rect class="uml-node uml-class" data-uml-id="EventStore" x="66" y="66" width="213" height="78" rx="4" ry="4" fill="#ffffff" stroke="#1e293b" stroke-width="1.5"/><rect x="66" y="66" width="213" height="30" rx="4" ry="4" fill="#dbeafe" stroke="#1e293b" stroke-width="1.5"/><line x1="66" y1="96" x2="279" y2="96" stroke="#1e293b" stroke-width="1"/><circle class="uml-class-badge" cx="78" cy="83" r="8" fill="#A2D5A2" stroke="#2E7D32" stroke-width="1"/><text class="uml-class-badge-letter" x="78" y="86" text-anchor="middle" font-family="monospace" font-size="9" font-weight="700" fill="#2E7D32">C</text><text x="172" y="87" text-anchor="middle" font-family="monospace" font-size="13" font-weight="600" fill="#0f172a">EventStore</text><circle class="uml-vis-glyph" cx="80" cy="107" r="4" fill="#16a34a" stroke="#16a34a" stroke-width="1"/><text class="uml-member" data-uml-visibility="public" x="90" y="112" font-family="monospace" font-size="11" fill="#16a34a">append(event: Event): void</text><circle class="uml-vis-glyph" cx="80" cy="123" r="4" fill="#16a34a" stroke="#16a34a" stroke-width="1"/><text class="uml-member" data-uml-visibility="public" x="90" y="128" font-family="monospace" font-size="11" fill="#16a34a">load(id: String): List</text><rect class="uml-node uml-class" data-uml-id="Aggregate" x="445" y="174" width="213" height="94" rx="4" ry="4" fill="#ffffff" stroke="#1e293b" stroke-width="1.5"/><rect x="445" y="174" width="213" height="30" rx="4" ry="4" fill="#dbeafe" stroke="#1e293b" stroke-width="1.5"/><line x1="445" y1="204" x2="658" y2="204" stroke="#1e293b" stroke-width="1"/><circle class="uml-class-badge" cx="457" cy="191" r="8" fill="#A2D5A2" stroke="#2E7D32" stroke-width="1"/><text class="uml-class-badge-letter" x="457" y="194" text-anchor="middle" font-family="monospace" font-size="9" font-weight="700" fill="#2E7D32">C</text><text x="551" y="195" text-anchor="middle" font-family="monospace" font-size="13" font-weight="600" fill="#0f172a">Aggregate</text><polygon class="uml-vis-glyph" points="459,210 463,215 459,220 455,215" fill="#dc2626" stroke="#dc2626" stroke-width="0.5"/><text class="uml-member" data-uml-visibility="private" x="469" y="220" font-family="monospace" font-size="11" fill="#dc2626">id: String</text><polygon class="uml-vis-glyph" points="459,226 463,231 459,236 455,231" fill="#dc2626" stroke="#dc2626" stroke-width="0.5"/><text class="uml-member" data-uml-visibility="private" x="469" y="236" font-family="monospace" font-size="11" fill="#dc2626">version: int</text><line x1="445" y1="244" x2="658" y2="244" stroke="#1e293b" stroke-width="1"/><circle class="uml-vis-glyph" cx="459" cy="247" r="4" fill="#16a34a" stroke="#16a34a" stroke-width="1"/><text class="uml-member" data-uml-visibility="public" x="469" y="252" font-family="monospace" font-size="11" fill="#16a34a">apply(event: Event): void</text><rect class="uml-node uml-class" data-uml-id="OrderCreated" x="319" y="66" width="213" height="78" rx="4" ry="4" fill="#ffffff" stroke="#1e293b" stroke-width="1.5"/><rect x="319" y="66" width="213" height="30" rx="4" ry="4" fill="#dbeafe" stroke="#1e293b" stroke-width="1.5"/><line x1="319" y1="96" x2="532" y2="96" stroke="#1e293b" stroke-width="1"/><circle class="uml-class-badge" cx="331" cy="83" r="8" fill="#A2D5A2" stroke="#2E7D32" stroke-width="1"/><text class="uml-class-badge-letter" x="331" y="86" text-anchor="middle" font-family="monospace" font-size="9" font-weight="700" fill="#2E7D32">C</text><text x="425" y="87" text-anchor="middle" font-family="monospace" font-size="13" font-weight="600" fill="#0f172a">OrderCreated</text><circle class="uml-vis-glyph" cx="333" cy="107" r="4" fill="none" stroke="#16a34a" stroke-width="1.5"/><text class="uml-member" data-uml-visibility="public" x="343" y="112" font-family="monospace" font-size="11" fill="#16a34a">orderId: String</text><circle class="uml-vis-glyph" cx="333" cy="123" r="4" fill="none" stroke="#16a34a" stroke-width="1.5"/><text class="uml-member" data-uml-visibility="public" x="343" y="128" font-family="monospace" font-size="11" fill="#16a34a">customerId: String</text><rect class="uml-node uml-class" data-uml-id="OrderAggregate" x="572" y="66" width="213" height="62" rx="4" ry="4" fill="#ffffff" stroke="#1e293b" stroke-width="1.5"/><rect x="572" y="66" width="213" height="30" rx="4" ry="4" fill="#dbeafe" stroke="#1e293b" stroke-width="1.5"/><line x1="572" y1="96" x2="785" y2="96" stroke="#1e293b" stroke-width="1"/><circle class="uml-class-badge" cx="584" cy="83" r="8" fill="#A2D5A2" stroke="#2E7D32" stroke-width="1"/><text class="uml-class-badge-letter" x="584" y="86" text-anchor="middle" font-family="monospace" font-size="9" font-weight="700" fill="#2E7D32">C</text><text x="678" y="87" text-anchor="middle" font-family="monospace" font-size="13" font-weight="600" fill="#0f172a">OrderAggregate</text><polygon class="uml-vis-glyph" points="586,102 590,107 586,112 582,107" fill="#dc2626" stroke="#dc2626" stroke-width="0.5"/><text class="uml-member" data-uml-visibility="private" x="596" y="112" font-family="monospace" font-size="11" fill="#dc2626">status: String</text></svg>