<svg xmlns="http://www.w3.org/2000/svg" width="787" height="342" viewBox="0 0 787 342"><rect width="100%" height="100%" fill="#ffffff"/><defs><marker id="arrow-open" viewBox="0 0 10 10" refX="9" refY="5" markerWidth="10" markerHeight="10" orient="auto-start-reverse"><path d="M0,0 L10,5 L0,10" fill="none" stroke="#1e293b" stroke-width="1.5"/></marker><marker id="arrow-triangle" viewBox="0 0 12 12" refX="11" refY="6" markerWidth="12" markerHeight="12" orient="auto-start-reverse"><polygon points="0,0 12,6 0,12" fill="white" stroke="#1e293b" stroke-width="1.5" fill-rule="nonzero"/></marker><marker id="arrow-diamond-filled" viewBox="0 0 14 10" refX="13" refY="5" markerWidth="14" markerHeight="10" orient="auto-start-reverse"><path d="M0,5 L7,0 L14,5 L7,10 z" fill="#1e293b" stroke="#1e293b" stroke-width="1"/></marker><marker id="arrow-diamond-open" viewBox="0 0 14 10" refX="13" refY="5" markerWidth="14" markerHeight="10" orient="auto-start-reverse"><path d="M0,5 L7,0 L14,5 L7,10 z" fill="white" stroke="#1e293b" stroke-width="1"/></marker></defs><text x="32" y="32" font-family="monospace" font-size="18" font-weight="600" fill="#0f172a">Event Sourcing</text><line class="uml-relation" data-uml-from="OrderCreated" data-uml-to="Event" x1="136" y1="224" x2="136" y2="144" stroke="#1e293b" stroke-width="2" marker-start="url(#arrow-triangle)"/><line class="uml-relation" data-uml-from="OrderAggregate" data-uml-to="Aggregate" x1="449" y1="224" x2="565" y2="160" stroke="#1e293b" stroke-width="2" marker-start="url(#arrow-triangle)"/><line class="uml-relation" data-uml-from="EventStore" data-uml-to="Event" x1="289" y1="105" x2="241" y2="105" stroke="#1e293b" stroke-width="2" marker-end="url(#arrow-open)"/><rect x="32" y="66" width="209" height="78" rx="4" ry="4" fill="#ffffff" stroke="#1e293b" stroke-width="1.5"/><rect x="32" y="66" width="209" height="30" rx="4" ry="4" fill="#dbeafe" stroke="#1e293b" stroke-width="1.5"/><line x1="32" y1="96" x2="241" y2="96" stroke="#1e293b" stroke-width="1"/><text x="136" y="87" text-anchor="middle" font-family="monospace" font-size="13" font-weight="600" fill="#0f172a">Event</text><text class="uml-member" data-uml-visibility="public" x="42" y="112" font-family="monospace" font-size="11" fill="#16a34a">+aggregateId(): String</text><text class="uml-member" data-uml-visibility="public" x="42" y="128" font-family="monospace" font-size="11" fill="#16a34a">+timestamp(): Instant</text><rect x="289" y="66" width="209" height="78" rx="4" ry="4" fill="#ffffff" stroke="#1e293b" stroke-width="1.5"/><rect x="289" y="66" width="209" height="30" rx="4" ry="4" fill="#dbeafe" stroke="#1e293b" stroke-width="1.5"/><line x1="289" y1="96" x2="498" y2="96" stroke="#1e293b" stroke-width="1"/><text x="393" y="87" text-anchor="middle" font-family="monospace" font-size="13" font-weight="600" fill="#0f172a">EventStore</text><text class="uml-member" data-uml-visibility="public" x="299" y="112" font-family="monospace" font-size="11" fill="#16a34a">+append(event: Event): void</text><text class="uml-member" data-uml-visibility="public" x="299" y="128" font-family="monospace" font-size="11" fill="#16a34a">+load(id: String): List</text><rect x="546" y="66" width="209" height="94" rx="4" ry="4" fill="#ffffff" stroke="#1e293b" stroke-width="1.5"/><rect x="546" y="66" width="209" height="30" rx="4" ry="4" fill="#dbeafe" stroke="#1e293b" stroke-width="1.5"/><line x1="546" y1="96" x2="755" y2="96" stroke="#1e293b" stroke-width="1"/><text x="650" y="87" text-anchor="middle" font-family="monospace" font-size="13" font-weight="600" fill="#0f172a">Aggregate</text><text class="uml-member" data-uml-visibility="private" x="556" y="112" font-family="monospace" font-size="11" fill="#dc2626">-id: String</text><text class="uml-member" data-uml-visibility="private" x="556" y="128" font-family="monospace" font-size="11" fill="#dc2626">-version: int</text><text class="uml-member" data-uml-visibility="public" x="556" y="144" font-family="monospace" font-size="11" fill="#16a34a">+apply(event: Event): void</text><rect x="32" y="224" width="209" height="78" rx="4" ry="4" fill="#ffffff" stroke="#1e293b" stroke-width="1.5"/><rect x="32" y="224" width="209" height="30" rx="4" ry="4" fill="#dbeafe" stroke="#1e293b" stroke-width="1.5"/><line x1="32" y1="254" x2="241" y2="254" stroke="#1e293b" stroke-width="1"/><text x="136" y="245" text-anchor="middle" font-family="monospace" font-size="13" font-weight="600" fill="#0f172a">OrderCreated</text><text class="uml-member" data-uml-visibility="public" x="42" y="270" font-family="monospace" font-size="11" fill="#16a34a">+orderId: String</text><text class="uml-member" data-uml-visibility="public" x="42" y="286" font-family="monospace" font-size="11" fill="#16a34a">+customerId: String</text><rect x="289" y="224" width="209" height="62" rx="4" ry="4" fill="#ffffff" stroke="#1e293b" stroke-width="1.5"/><rect x="289" y="224" width="209" height="30" rx="4" ry="4" fill="#dbeafe" stroke="#1e293b" stroke-width="1.5"/><line x1="289" y1="254" x2="498" y2="254" stroke="#1e293b" stroke-width="1"/><text x="393" y="245" text-anchor="middle" font-family="monospace" font-size="13" font-weight="600" fill="#0f172a">OrderAggregate</text><text class="uml-member" data-uml-visibility="private" x="299" y="270" font-family="monospace" font-size="11" fill="#dc2626">-status: String</text></svg>