<svg xmlns="http://www.w3.org/2000/svg" width="963" height="502" viewBox="0 0 963 502"><rect width="100%" height="100%" fill="#ffffff"/><defs><marker id="arrow-open" viewBox="0 0 10 10" refX="9" refY="5" markerWidth="10" markerHeight="10" markerUnits="userSpaceOnUse" orient="auto-start-reverse"><path d="M0,0 L10,5 L0,10" fill="none" stroke="#1e293b" stroke-width="1.5"/></marker><marker id="arrow-triangle" viewBox="0 0 16 16" refX="15" refY="8" markerWidth="16" markerHeight="16" markerUnits="userSpaceOnUse" orient="auto-start-reverse"><polygon points="0,1 14,8 0,15" fill="#ffffff" stroke="#1e293b" stroke-width="1.5" fill-rule="nonzero"/></marker><marker id="arrow-diamond-filled" viewBox="0 0 14 10" refX="13" refY="5" markerWidth="14" markerHeight="10" markerUnits="userSpaceOnUse" orient="auto-start-reverse"><path d="M0,5 L7,0 L14,5 L7,10 z" fill="#1e293b" stroke="#1e293b" stroke-width="1"/></marker><marker id="arrow-diamond-open" viewBox="0 0 14 10" refX="13" refY="5" markerWidth="14" markerHeight="10" markerUnits="userSpaceOnUse" orient="auto-start-reverse"><path d="M0,5 L7,0 L14,5 L7,10 z" fill="#ffffff" stroke="#1e293b" stroke-width="1"/></marker></defs><text x="32" y="32" font-family="monospace" font-size="18" font-weight="600" fill="#0f172a">Event Sourcing</text><polyline class="uml-relation" data-uml-from="OrderCreated" data-uml-to="Event" data-uml-arrow="&lt;|--" points="465,144 465,223 318,223 318,302" fill="none" stroke="#1e293b" stroke-width="2" marker-start="url(#arrow-triangle)" /><polyline class="uml-relation" data-uml-from="OrderAggregate" data-uml-to="Aggregate" data-uml-arrow="&lt;|--" points="758,128 758,273 611,273 611,302" fill="none" stroke="#1e293b" stroke-width="2" marker-start="url(#arrow-triangle)" /><polyline class="uml-relation" data-uml-from="EventStore" data-uml-to="Event" data-uml-arrow="--&gt;" points="172,144 172,173 318,173 318,302" fill="none" stroke="#1e293b" stroke-width="2" marker-end="url(#arrow-open)" /><rect x="212" y="302" width="213" height="78" rx="4" ry="4" fill="#ffffff" stroke="#1e293b" stroke-width="1.5"/><rect x="212" y="302" width="213" height="30" rx="4" ry="4" fill="#dbeafe" stroke="#1e293b" stroke-width="1.5"/><line x1="212" y1="332" x2="425" y2="332" stroke="#1e293b" stroke-width="1"/><text x="318" y="323" text-anchor="middle" font-family="monospace" font-size="13" font-weight="600" fill="#0f172a">Event</text><text class="uml-member" data-uml-visibility="public" x="222" y="348" font-family="monospace" font-size="11" fill="#16a34a">+aggregateId(): String</text><text class="uml-member" data-uml-visibility="public" x="222" y="364" font-family="monospace" font-size="11" fill="#16a34a">+timestamp(): Instant</text><rect x="66" y="66" width="213" height="78" rx="4" ry="4" fill="#ffffff" stroke="#1e293b" stroke-width="1.5"/><rect x="66" y="66" width="213" height="30" rx="4" ry="4" fill="#dbeafe" stroke="#1e293b" stroke-width="1.5"/><line x1="66" y1="96" x2="279" y2="96" stroke="#1e293b" stroke-width="1"/><text x="172" y="87" text-anchor="middle" font-family="monospace" font-size="13" font-weight="600" fill="#0f172a">EventStore</text><text class="uml-member" data-uml-visibility="public" x="76" y="112" font-family="monospace" font-size="11" fill="#16a34a">+append(event: Event): void</text><text class="uml-member" data-uml-visibility="public" x="76" y="128" font-family="monospace" font-size="11" fill="#16a34a">+load(id: String): List</text><rect x="505" y="302" width="213" height="94" rx="4" ry="4" fill="#ffffff" stroke="#1e293b" stroke-width="1.5"/><rect x="505" y="302" width="213" height="30" rx="4" ry="4" fill="#dbeafe" stroke="#1e293b" stroke-width="1.5"/><line x1="505" y1="332" x2="718" y2="332" stroke="#1e293b" stroke-width="1"/><text x="611" y="323" text-anchor="middle" font-family="monospace" font-size="13" font-weight="600" fill="#0f172a">Aggregate</text><text class="uml-member" data-uml-visibility="private" x="515" y="348" font-family="monospace" font-size="11" fill="#dc2626">-id: String</text><text class="uml-member" data-uml-visibility="private" x="515" y="364" font-family="monospace" font-size="11" fill="#dc2626">-version: int</text><line x1="505" y1="372" x2="718" y2="372" stroke="#1e293b" stroke-width="1"/><text class="uml-member" data-uml-visibility="public" x="515" y="380" font-family="monospace" font-size="11" fill="#16a34a">+apply(event: Event): void</text><rect x="359" y="66" width="213" height="78" rx="4" ry="4" fill="#ffffff" stroke="#1e293b" stroke-width="1.5"/><rect x="359" y="66" width="213" height="30" rx="4" ry="4" fill="#dbeafe" stroke="#1e293b" stroke-width="1.5"/><line x1="359" y1="96" x2="572" y2="96" stroke="#1e293b" stroke-width="1"/><text x="465" y="87" text-anchor="middle" font-family="monospace" font-size="13" font-weight="600" fill="#0f172a">OrderCreated</text><text class="uml-member" data-uml-visibility="public" x="369" y="112" font-family="monospace" font-size="11" fill="#16a34a">+orderId: String</text><text class="uml-member" data-uml-visibility="public" x="369" y="128" font-family="monospace" font-size="11" fill="#16a34a">+customerId: String</text><rect x="652" y="66" width="213" height="62" rx="4" ry="4" fill="#ffffff" stroke="#1e293b" stroke-width="1.5"/><rect x="652" y="66" width="213" height="30" rx="4" ry="4" fill="#dbeafe" stroke="#1e293b" stroke-width="1.5"/><line x1="652" y1="96" x2="865" y2="96" stroke="#1e293b" stroke-width="1"/><text x="758" y="87" text-anchor="middle" font-family="monospace" font-size="13" font-weight="600" fill="#0f172a">OrderAggregate</text><text class="uml-member" data-uml-visibility="private" x="662" y="112" font-family="monospace" font-size="11" fill="#dc2626">-status: String</text></svg>