<svg xmlns="http://www.w3.org/2000/svg" width="1424" height="422" viewBox="0 0 1424 422"><rect width="100%" height="100%" fill="#ffffff"/><defs><marker id="arrow-open" viewBox="0 0 10 10" refX="9" refY="5" markerWidth="10" markerHeight="10" markerUnits="userSpaceOnUse" orient="auto-start-reverse"><path d="M0,0 L10,5 L0,10" fill="none" stroke="#1e293b" stroke-width="1.5"/></marker><marker id="arrow-triangle" viewBox="0 0 16 16" refX="15" refY="8" markerWidth="16" markerHeight="16" markerUnits="userSpaceOnUse" orient="auto-start-reverse"><polygon points="0,1 14,8 0,15" fill="#ffffff" stroke="#1e293b" stroke-width="1.5" fill-rule="nonzero"/></marker><marker id="arrow-diamond-filled" viewBox="0 0 14 10" refX="13" refY="5" markerWidth="14" markerHeight="10" markerUnits="userSpaceOnUse" orient="auto-start-reverse"><path d="M0,5 L7,0 L14,5 L7,10 z" fill="#1e293b" stroke="#1e293b" stroke-width="1"/></marker><marker id="arrow-diamond-open" viewBox="0 0 14 10" refX="13" refY="5" markerWidth="14" markerHeight="10" markerUnits="userSpaceOnUse" orient="auto-start-reverse"><path d="M0,5 L7,0 L14,5 L7,10 z" fill="#ffffff" stroke="#1e293b" stroke-width="1"/></marker></defs><text x="32" y="32" font-family="monospace" font-size="18" font-weight="600" fill="#0f172a">CQRS Pattern</text><polyline class="uml-relation" data-uml-from="CommandBus" data-uml-to="CommandHandler" data-uml-arrow="--&gt;" points="321,97 321,187 401,187 401,285" fill="none" stroke="#1e293b" stroke-width="2" marker-end="url(#arrow-open)" /><polyline class="uml-relation" data-uml-from="QueryBus" data-uml-to="QueryHandler" data-uml-arrow="--&gt;" points="656,97 656,195 736,195 736,285" fill="none" stroke="#1e293b" stroke-width="2" marker-end="url(#arrow-open)" /><rect x="736" y="66" width="255" height="38" rx="4" ry="4" fill="#ffffff" stroke="#1e293b" stroke-width="1.5"/><rect x="736" y="66" width="255" height="30" rx="4" ry="4" fill="#dbeafe" stroke="#1e293b" stroke-width="1.5"/><line x1="736" y1="96" x2="991" y2="96" stroke="#1e293b" stroke-width="1"/><text x="863" y="87" text-anchor="middle" font-family="monospace" font-size="13" font-weight="600" fill="#0f172a">Command</text><rect x="1071" y="66" width="255" height="38" rx="4" ry="4" fill="#ffffff" stroke="#1e293b" stroke-width="1.5"/><rect x="1071" y="66" width="255" height="30" rx="4" ry="4" fill="#dbeafe" stroke="#1e293b" stroke-width="1.5"/><line x1="1071" y1="96" x2="1326" y2="96" stroke="#1e293b" stroke-width="1"/><text x="1198" y="87" text-anchor="middle" font-family="monospace" font-size="13" font-weight="600" fill="#0f172a">Query</text><rect x="401" y="254" width="255" height="62" rx="4" ry="4" fill="#ffffff" stroke="#1e293b" stroke-width="1.5"/><rect x="401" y="254" width="255" height="30" rx="4" ry="4" fill="#dbeafe" stroke="#1e293b" stroke-width="1.5"/><line x1="401" y1="284" x2="656" y2="284" stroke="#1e293b" stroke-width="1"/><text x="528" y="275" text-anchor="middle" font-family="monospace" font-size="13" font-weight="600" fill="#0f172a">CommandHandler</text><text class="uml-member" data-uml-visibility="public" x="411" y="300" font-family="monospace" font-size="11" fill="#16a34a">+handle(command: Command): void</text><rect x="736" y="254" width="255" height="62" rx="4" ry="4" fill="#ffffff" stroke="#1e293b" stroke-width="1.5"/><rect x="736" y="254" width="255" height="30" rx="4" ry="4" fill="#dbeafe" stroke="#1e293b" stroke-width="1.5"/><line x1="736" y1="284" x2="991" y2="284" stroke="#1e293b" stroke-width="1"/><text x="863" y="275" text-anchor="middle" font-family="monospace" font-size="13" font-weight="600" fill="#0f172a">QueryHandler</text><text class="uml-member" data-uml-visibility="public" x="746" y="300" font-family="monospace" font-size="11" fill="#16a34a">+handle(query: Query): Object</text><rect x="66" y="66" width="255" height="62" rx="4" ry="4" fill="#ffffff" stroke="#1e293b" stroke-width="1.5"/><rect x="66" y="66" width="255" height="30" rx="4" ry="4" fill="#dbeafe" stroke="#1e293b" stroke-width="1.5"/><line x1="66" y1="96" x2="321" y2="96" stroke="#1e293b" stroke-width="1"/><text x="193" y="87" text-anchor="middle" font-family="monospace" font-size="13" font-weight="600" fill="#0f172a">CommandBus</text><text class="uml-member" data-uml-visibility="public" x="76" y="112" font-family="monospace" font-size="11" fill="#16a34a">+dispatch(command: Command): void</text><rect x="401" y="66" width="255" height="62" rx="4" ry="4" fill="#ffffff" stroke="#1e293b" stroke-width="1.5"/><rect x="401" y="66" width="255" height="30" rx="4" ry="4" fill="#dbeafe" stroke="#1e293b" stroke-width="1.5"/><line x1="401" y1="96" x2="656" y2="96" stroke="#1e293b" stroke-width="1"/><text x="528" y="87" text-anchor="middle" font-family="monospace" font-size="13" font-weight="600" fill="#0f172a">QueryBus</text><text class="uml-member" data-uml-visibility="public" x="411" y="112" font-family="monospace" font-size="11" fill="#16a34a">+execute(query: Query): Object</text></svg>