<svg xmlns="http://www.w3.org/2000/svg" width="760" height="294" viewBox="0 0 760 294"><rect width="100%" height="100%" fill="white"/><defs><marker id="arrow-open" viewBox="0 0 10 10" refX="9" refY="5" markerWidth="10" markerHeight="10" orient="auto-start-reverse"><path d="M0,0 L10,5 L0,10" fill="none" stroke="#1e293b" stroke-width="1.5"/></marker><marker id="arrow-triangle" viewBox="0 0 12 12" refX="11" refY="6" markerWidth="12" markerHeight="12" orient="auto-start-reverse"><path d="M0,0 L12,6 L0,12 z" fill="white" stroke="#1e293b" stroke-width="1.5"/></marker><marker id="arrow-diamond-filled" viewBox="0 0 14 10" refX="13" refY="5" markerWidth="14" markerHeight="10" orient="auto-start-reverse"><path d="M0,5 L7,0 L14,5 L7,10 z" fill="#1e293b" stroke="#1e293b" stroke-width="1"/></marker><marker id="arrow-diamond-open" viewBox="0 0 14 10" refX="13" refY="5" markerWidth="14" markerHeight="10" orient="auto-start-reverse"><path d="M0,5 L7,0 L14,5 L7,10 z" fill="white" stroke="#1e293b" stroke-width="1"/></marker></defs><text x="32" y="32" font-family="monospace" font-size="18" font-weight="600" fill="#0f172a">CQRS Pattern</text><line x1="441" y1="192" x2="567" y2="128" stroke="#1e293b" stroke-width="1.5" marker-end="url(#arrow-open)"/><line x1="528" y1="223" x2="232" y2="223" stroke="#1e293b" stroke-width="1.5" marker-end="url(#arrow-open)"/><rect x="32" y="66" width="200" height="38" rx="4" ry="4" fill="#ffffff" stroke="#1e293b" stroke-width="1.5"/><rect x="32" y="66" width="200" height="30" rx="4" ry="4" fill="#dbeafe" stroke="#1e293b" stroke-width="1.5"/><line x1="32" y1="96" x2="232" y2="96" stroke="#1e293b" stroke-width="1"/><text x="132" y="87" text-anchor="middle" font-family="monospace" font-size="13" font-weight="600" fill="#0f172a">Command</text><rect x="280" y="66" width="200" height="38" rx="4" ry="4" fill="#ffffff" stroke="#1e293b" stroke-width="1.5"/><rect x="280" y="66" width="200" height="30" rx="4" ry="4" fill="#dbeafe" stroke="#1e293b" stroke-width="1.5"/><line x1="280" y1="96" x2="480" y2="96" stroke="#1e293b" stroke-width="1"/><text x="380" y="87" text-anchor="middle" font-family="monospace" font-size="13" font-weight="600" fill="#0f172a">Query</text><rect x="528" y="66" width="200" height="62" rx="4" ry="4" fill="#ffffff" stroke="#1e293b" stroke-width="1.5"/><rect x="528" y="66" width="200" height="30" rx="4" ry="4" fill="#dbeafe" stroke="#1e293b" stroke-width="1.5"/><line x1="528" y1="96" x2="728" y2="96" stroke="#1e293b" stroke-width="1"/><text x="628" y="87" text-anchor="middle" font-family="monospace" font-size="13" font-weight="600" fill="#0f172a">CommandHandler</text><text x="538" y="112" font-family="monospace" font-size="11" fill="#16a34a">+handle(command: Command): void</text><rect x="32" y="192" width="200" height="62" rx="4" ry="4" fill="#ffffff" stroke="#1e293b" stroke-width="1.5"/><rect x="32" y="192" width="200" height="30" rx="4" ry="4" fill="#dbeafe" stroke="#1e293b" stroke-width="1.5"/><line x1="32" y1="222" x2="232" y2="222" stroke="#1e293b" stroke-width="1"/><text x="132" y="213" text-anchor="middle" font-family="monospace" font-size="13" font-weight="600" fill="#0f172a">QueryHandler</text><text x="42" y="238" font-family="monospace" font-size="11" fill="#16a34a">+handle(query: Query): Object</text><rect x="280" y="192" width="200" height="62" rx="4" ry="4" fill="#ffffff" stroke="#1e293b" stroke-width="1.5"/><rect x="280" y="192" width="200" height="30" rx="4" ry="4" fill="#dbeafe" stroke="#1e293b" stroke-width="1.5"/><line x1="280" y1="222" x2="480" y2="222" stroke="#1e293b" stroke-width="1"/><text x="380" y="213" text-anchor="middle" font-family="monospace" font-size="13" font-weight="600" fill="#0f172a">CommandBus</text><text x="290" y="238" font-family="monospace" font-size="11" fill="#16a34a">+dispatch(command: Command): void</text><rect x="528" y="192" width="200" height="62" rx="4" ry="4" fill="#ffffff" stroke="#1e293b" stroke-width="1.5"/><rect x="528" y="192" width="200" height="30" rx="4" ry="4" fill="#dbeafe" stroke="#1e293b" stroke-width="1.5"/><line x1="528" y1="222" x2="728" y2="222" stroke="#1e293b" stroke-width="1"/><text x="628" y="213" text-anchor="middle" font-family="monospace" font-size="13" font-weight="600" fill="#0f172a">QueryBus</text><text x="538" y="238" font-family="monospace" font-size="11" fill="#16a34a">+execute(query: Query): Object</text></svg>