<svg xmlns="http://www.w3.org/2000/svg" width="891" height="454" viewBox="0 0 891 454"><rect width="100%" height="100%" fill="#ffffff"/><defs><marker id="arrow-open" viewBox="0 0 10 10" refX="9" refY="5" markerWidth="10" markerHeight="10" markerUnits="userSpaceOnUse" orient="auto-start-reverse"><path d="M0,0 L10,5 L0,10" fill="none" stroke="#1e293b" stroke-width="1.5"/></marker><marker id="arrow-triangle" viewBox="0 0 16 16" refX="15" refY="8" markerWidth="16" markerHeight="16" markerUnits="userSpaceOnUse" orient="auto-start-reverse"><polygon points="0,1 14,8 0,15" fill="#ffffff" stroke="#1e293b" stroke-width="1.5" fill-rule="nonzero"/></marker><marker id="arrow-diamond-filled" viewBox="0 0 14 10" refX="13" refY="5" markerWidth="14" markerHeight="10" markerUnits="userSpaceOnUse" orient="auto-start-reverse"><path d="M0,5 L7,0 L14,5 L7,10 z" fill="#1e293b" stroke="#1e293b" stroke-width="1"/></marker><marker id="arrow-diamond-open" viewBox="0 0 14 10" refX="13" refY="5" markerWidth="14" markerHeight="10" markerUnits="userSpaceOnUse" orient="auto-start-reverse"><path d="M0,5 L7,0 L14,5 L7,10 z" fill="#ffffff" stroke="#1e293b" stroke-width="1"/></marker></defs><text x="32" y="32" font-family="monospace" font-size="18" font-weight="600" fill="#0f172a">Strategy Pattern</text><polyline class="uml-relation" data-uml-from="QuickSort" data-uml-to="SortStrategy" data-uml-arrow="&lt;|--" points="429,128 429,215 429,286" fill="none" stroke="#1e293b" stroke-width="2" marker-start="url(#arrow-triangle)" /><polyline class="uml-relation" data-uml-from="MergeSort" data-uml-to="SortStrategy" data-uml-arrow="&lt;|--" points="160,128 160,207 429,207 429,286" fill="none" stroke="#1e293b" stroke-width="2" marker-start="url(#arrow-triangle)" /><polyline class="uml-relation" data-uml-from="Sorter" data-uml-to="SortStrategy" data-uml-arrow="--" points="698,144 698,223 429,223 429,286" fill="none" stroke="#1e293b" stroke-width="2" /><rect x="335" y="286" width="189" height="62" rx="4" ry="4" fill="#ffffff" stroke="#1e293b" stroke-width="1.5"/><rect x="335" y="286" width="189" height="30" rx="4" ry="4" fill="#dbeafe" stroke="#1e293b" stroke-width="1.5"/><line x1="335" y1="316" x2="524" y2="316" stroke="#1e293b" stroke-width="1"/><text x="429" y="307" text-anchor="middle" font-family="monospace" font-size="13" font-weight="600" fill="#0f172a">SortStrategy</text><text class="uml-member" data-uml-visibility="public" x="345" y="332" font-family="monospace" font-size="11" fill="#16a34a">+sort(data: List): List</text><rect x="335" y="66" width="189" height="62" rx="4" ry="4" fill="#ffffff" stroke="#1e293b" stroke-width="1.5"/><rect x="335" y="66" width="189" height="30" rx="4" ry="4" fill="#dbeafe" stroke="#1e293b" stroke-width="1.5"/><line x1="335" y1="96" x2="524" y2="96" stroke="#1e293b" stroke-width="1"/><text x="429" y="87" text-anchor="middle" font-family="monospace" font-size="13" font-weight="600" fill="#0f172a">QuickSort</text><text class="uml-member" data-uml-visibility="public" x="345" y="112" font-family="monospace" font-size="11" fill="#16a34a">+sort(data: List): List</text><rect x="66" y="66" width="189" height="62" rx="4" ry="4" fill="#ffffff" stroke="#1e293b" stroke-width="1.5"/><rect x="66" y="66" width="189" height="30" rx="4" ry="4" fill="#dbeafe" stroke="#1e293b" stroke-width="1.5"/><line x1="66" y1="96" x2="255" y2="96" stroke="#1e293b" stroke-width="1"/><text x="160" y="87" text-anchor="middle" font-family="monospace" font-size="13" font-weight="600" fill="#0f172a">MergeSort</text><text class="uml-member" data-uml-visibility="public" x="76" y="112" font-family="monospace" font-size="11" fill="#16a34a">+sort(data: List): List</text><rect x="604" y="66" width="189" height="78" rx="4" ry="4" fill="#ffffff" stroke="#1e293b" stroke-width="1.5"/><rect x="604" y="66" width="189" height="30" rx="4" ry="4" fill="#dbeafe" stroke="#1e293b" stroke-width="1.5"/><line x1="604" y1="96" x2="793" y2="96" stroke="#1e293b" stroke-width="1"/><text x="698" y="87" text-anchor="middle" font-family="monospace" font-size="13" font-weight="600" fill="#0f172a">Sorter</text><text class="uml-member" data-uml-visibility="private" x="614" y="112" font-family="monospace" font-size="11" fill="#dc2626">-strategy: SortStrategy</text><line x1="604" y1="120" x2="793" y2="120" stroke="#1e293b" stroke-width="1"/><text class="uml-member" data-uml-visibility="public" x="614" y="128" font-family="monospace" font-size="11" fill="#16a34a">+sort(data: List): List</text></svg>