<svg xmlns="http://www.w3.org/2000/svg" width="766" height="310" viewBox="0 0 766 310"><rect width="100%" height="100%" fill="#ffffff"/><defs><marker id="arrow-open" viewBox="0 0 10 10" refX="9" refY="5" markerWidth="10" markerHeight="10" orient="auto-start-reverse"><path d="M0,0 L10,5 L0,10" fill="none" stroke="#1e293b" stroke-width="1.5"/></marker><marker id="arrow-triangle" viewBox="0 0 12 12" refX="11" refY="6" markerWidth="12" markerHeight="12" orient="auto-start-reverse"><polygon points="0,0 12,6 0,12" fill="white" stroke="#1e293b" stroke-width="1.5" fill-rule="nonzero"/></marker><marker id="arrow-diamond-filled" viewBox="0 0 14 10" refX="13" refY="5" markerWidth="14" markerHeight="10" orient="auto-start-reverse"><path d="M0,5 L7,0 L14,5 L7,10 z" fill="#1e293b" stroke="#1e293b" stroke-width="1"/></marker><marker id="arrow-diamond-open" viewBox="0 0 14 10" refX="13" refY="5" markerWidth="14" markerHeight="10" orient="auto-start-reverse"><path d="M0,5 L7,0 L14,5 L7,10 z" fill="white" stroke="#1e293b" stroke-width="1"/></marker></defs><text x="32" y="32" font-family="monospace" font-size="18" font-weight="600" fill="#0f172a">Chain of Responsibility</text><line class="uml-relation" data-uml-from="Handler" data-uml-to="AuthHandler" x1="234" y1="102" x2="282" y2="100" stroke="#1e293b" stroke-width="2" marker-start="url(#arrow-triangle)"/><line class="uml-relation" data-uml-from="Handler" data-uml-to="RateLimitHandler" x1="234" y1="104" x2="532" y2="98" stroke="#1e293b" stroke-width="2" marker-start="url(#arrow-triangle)"/><line class="uml-relation" data-uml-from="Handler" data-uml-to="BusinessHandler" x1="133" y1="144" x2="133" y2="208" stroke="#1e293b" stroke-width="2" marker-start="url(#arrow-triangle)"/><line class="uml-relation" data-uml-from="AuthHandler" data-uml-to="RateLimitHandler" x1="484" y1="97" x2="532" y2="97" stroke="#1e293b" stroke-width="2" marker-end="url(#arrow-open)"/><text x="508" y="85" text-anchor="middle" font-family="monospace" font-size="11" fill="#334155">next</text><line class="uml-relation" data-uml-from="RateLimitHandler" data-uml-to="BusinessHandler" x1="532" y1="125" x2="234" y2="211" stroke="#1e293b" stroke-width="2" marker-end="url(#arrow-open)"/><text x="383" y="156" text-anchor="middle" font-family="monospace" font-size="11" fill="#334155">next</text><rect x="32" y="66" width="202" height="78" rx="4" ry="4" fill="#ffffff" stroke="#1e293b" stroke-width="1.5"/><rect x="32" y="66" width="202" height="30" rx="4" ry="4" fill="#dbeafe" stroke="#1e293b" stroke-width="1.5"/><line x1="32" y1="96" x2="234" y2="96" stroke="#1e293b" stroke-width="1"/><text x="133" y="87" text-anchor="middle" font-family="monospace" font-size="13" font-weight="600" fill="#0f172a">Handler</text><text class="uml-member" data-uml-visibility="private" x="42" y="112" font-family="monospace" font-size="11" fill="#dc2626">-next: Handler</text><text class="uml-member" data-uml-visibility="public" x="42" y="128" font-family="monospace" font-size="11" fill="#16a34a">+handle(request): Response</text><rect x="282" y="66" width="202" height="62" rx="4" ry="4" fill="#ffffff" stroke="#1e293b" stroke-width="1.5"/><rect x="282" y="66" width="202" height="30" rx="4" ry="4" fill="#dbeafe" stroke="#1e293b" stroke-width="1.5"/><line x1="282" y1="96" x2="484" y2="96" stroke="#1e293b" stroke-width="1"/><text x="383" y="87" text-anchor="middle" font-family="monospace" font-size="13" font-weight="600" fill="#0f172a">AuthHandler</text><text class="uml-member" data-uml-visibility="public" x="292" y="112" font-family="monospace" font-size="11" fill="#16a34a">+handle(request): Response</text><rect x="532" y="66" width="202" height="62" rx="4" ry="4" fill="#ffffff" stroke="#1e293b" stroke-width="1.5"/><rect x="532" y="66" width="202" height="30" rx="4" ry="4" fill="#dbeafe" stroke="#1e293b" stroke-width="1.5"/><line x1="532" y1="96" x2="734" y2="96" stroke="#1e293b" stroke-width="1"/><text x="633" y="87" text-anchor="middle" font-family="monospace" font-size="13" font-weight="600" fill="#0f172a">RateLimitHandler</text><text class="uml-member" data-uml-visibility="public" x="542" y="112" font-family="monospace" font-size="11" fill="#16a34a">+handle(request): Response</text><rect x="32" y="208" width="202" height="62" rx="4" ry="4" fill="#ffffff" stroke="#1e293b" stroke-width="1.5"/><rect x="32" y="208" width="202" height="30" rx="4" ry="4" fill="#dbeafe" stroke="#1e293b" stroke-width="1.5"/><line x1="32" y1="238" x2="234" y2="238" stroke="#1e293b" stroke-width="1"/><text x="133" y="229" text-anchor="middle" font-family="monospace" font-size="13" font-weight="600" fill="#0f172a">BusinessHandler</text><text class="uml-member" data-uml-visibility="public" x="42" y="254" font-family="monospace" font-size="11" fill="#16a34a">+handle(request): Response</text></svg>