<svg xmlns="http://www.w3.org/2000/svg" width="332" height="494" viewBox="0 0 332 494" data-orientation="TopToBottom"><rect width="100%" height="100%" fill="#ffffff"/><defs><marker id="arrow-open" viewBox="0 0 10 10" refX="9" refY="5" markerWidth="10" markerHeight="10" markerUnits="userSpaceOnUse" orient="auto-start-reverse"><path d="M0,0 L10,5 L0,10" fill="none" stroke="#1e293b" stroke-width="1.5"/></marker><marker id="arrow-triangle" viewBox="0 0 16 16" refX="15" refY="8" markerWidth="16" markerHeight="16" markerUnits="userSpaceOnUse" orient="auto-start-reverse"><polygon points="0,1 14,8 0,15" fill="#ffffff" stroke="#1e293b" stroke-width="1.5" fill-rule="nonzero"/></marker><marker id="arrow-diamond-filled" viewBox="0 0 14 10" refX="13" refY="5" markerWidth="14" markerHeight="10" markerUnits="userSpaceOnUse" orient="auto-start-reverse"><path d="M0,5 L7,0 L14,5 L7,10 z" fill="#1e293b" stroke="#1e293b" stroke-width="1"/></marker><marker id="arrow-diamond-open" viewBox="0 0 14 10" refX="13" refY="5" markerWidth="14" markerHeight="10" markerUnits="userSpaceOnUse" orient="auto-start-reverse"><path d="M0,5 L7,0 L14,5 L7,10 z" fill="#ffffff" stroke="#1e293b" stroke-width="1"/></marker></defs><defs><marker id="arrow-triangle-filled" viewBox="0 0 12 12" refX="11" refY="6" markerWidth="12" markerHeight="12" markerUnits="userSpaceOnUse" orient="auto-start-reverse"><polygon points="0,0 12,6 0,12" fill="#1e293b" stroke="#1e293b" stroke-width="1.5"/></marker><marker id="arrow-box-filled" viewBox="0 0 12 12" refX="11" refY="6" markerWidth="12" markerHeight="12" markerUnits="userSpaceOnUse" orient="auto-start-reverse"><rect x="2" y="2" width="8" height="8" fill="#1e293b" stroke="#1e293b" stroke-width="1.5"/></marker><marker id="arrow-plus" viewBox="0 0 12 12" refX="11" refY="6" markerWidth="12" markerHeight="12" markerUnits="userSpaceOnUse" orient="auto-start-reverse"><path d="M6,1 L6,11 M1,6 L11,6" fill="none" stroke="#1e293b" stroke-width="1.8" stroke-linecap="round"/></marker><marker id="arrow-cross" viewBox="0 0 12 12" refX="11" refY="6" markerWidth="12" markerHeight="12" markerUnits="userSpaceOnUse" orient="auto-start-reverse"><path d="M2,2 L10,10 M10,2 L2,10" fill="none" stroke="#1e293b" stroke-width="1.8" stroke-linecap="round"/></marker><marker id="arrow-bracket-open" viewBox="0 0 12 14" refX="11" refY="7" markerWidth="12" markerHeight="14" markerUnits="userSpaceOnUse" orient="auto-start-reverse"><path d="M10,1 L4,1 L4,13 L10,13" fill="none" stroke="#1e293b" stroke-width="1.8" stroke-linecap="round" stroke-linejoin="round"/></marker><marker id="arrow-circle-open" viewBox="0 0 12 12" refX="11" refY="6" markerWidth="12" markerHeight="12" markerUnits="userSpaceOnUse" orient="auto-start-reverse"><circle cx="6" cy="6" r="4" fill="#ffffff" stroke="#1e293b" stroke-width="1.5"/></marker><marker id="arrow-circle-filled" viewBox="0 0 12 12" refX="11" refY="6" markerWidth="12" markerHeight="12" markerUnits="userSpaceOnUse" orient="auto-start-reverse"><circle cx="6" cy="6" r="4" fill="#1e293b" stroke="#1e293b" stroke-width="1.5"/></marker><marker id="arrow-double-open" viewBox="0 0 16 12" refX="15" refY="6" markerWidth="16" markerHeight="12" markerUnits="userSpaceOnUse" orient="auto-start-reverse"><path d="M0,1 L8,6 L0,11 M7,1 L15,6 L7,11" fill="none" stroke="#1e293b" stroke-width="1.5" stroke-linejoin="round"/></marker></defs><text x="8" y="32" font-family="monospace" font-size="18" font-weight="600" fill="#0f172a">Chain of Responsibility</text><polyline class="uml-relation" data-uml-from="Handler" data-uml-to="AuthHandler" data-uml-arrow="&lt;|--" points="169,144 169,159 169,174" fill="none" stroke="#1e293b" stroke-width="2" marker-start="url(#arrow-triangle)" /><polyline class="uml-relation" data-uml-from="Handler" data-uml-to="RateLimitHandler" data-uml-arrow="&lt;|--" points="169,144 169,159 288,159 288,247 169,247 169,266" fill="none" stroke="#1e293b" stroke-width="2" marker-start="url(#arrow-triangle)" /><polyline class="uml-relation" data-uml-from="Handler" data-uml-to="BusinessHandler" data-uml-arrow="&lt;|--" points="169,144 169,167 288,167 288,347 169,347 169,358" fill="none" stroke="#1e293b" stroke-width="2" marker-start="url(#arrow-triangle)" /><polyline class="uml-relation" data-uml-from="AuthHandler" data-uml-to="RateLimitHandler" data-uml-arrow="--&gt;" points="169,236 169,251 169,266" fill="none" stroke="#1e293b" stroke-width="2" marker-end="url(#arrow-open)" /><rect class="uml-edge-label-bg" data-uml-label-role="edge-background" x="153" y="233" width="32" height="18" fill="white" opacity="0.85"/><rect class="uml-edge-label-bg" data-uml-label-role="edge-background" x="153" y="233" width="32" height="18" fill="white" opacity="0.85"/><text class="uml-edge-label" data-uml-label-role="edge" x="169" y="246" text-anchor="middle" font-family="monospace" font-size="11" fill="#334155">next</text><polyline class="uml-relation" data-uml-from="RateLimitHandler" data-uml-to="BusinessHandler" data-uml-arrow="--&gt;" points="169,328 169,343 169,358" fill="none" stroke="#1e293b" stroke-width="2" marker-end="url(#arrow-open)" /><rect class="uml-edge-label-bg" data-uml-label-role="edge-background" x="153" y="325" width="32" height="18" fill="white" opacity="0.85"/><text class="uml-edge-label" data-uml-label-role="edge" x="169" y="338" text-anchor="middle" font-family="monospace" font-size="11" fill="#334155">next</text><rect class="uml-node uml-class" data-uml-id="Handler" x="66" y="66" width="206" height="78" rx="4" ry="4" fill="#ffffff" stroke="#1e293b" stroke-width="1.5"/><rect x="66" y="66" width="206" height="30" rx="4" ry="4" fill="#dbeafe" stroke="#1e293b" stroke-width="1.5"/><line x1="66" y1="96" x2="272" y2="96" stroke="#1e293b" stroke-width="1"/><circle class="uml-class-badge" cx="78" cy="83" r="8" fill="#A2D5A2" stroke="#2E7D32" stroke-width="1"/><text class="uml-class-badge-letter" x="78" y="86" text-anchor="middle" font-family="monospace" font-size="9" font-weight="700" fill="#2E7D32">C</text><text x="169" y="87" text-anchor="middle" font-family="monospace" font-size="13" font-weight="600" fill="#0f172a">Handler</text><polygon class="uml-vis-glyph" points="80,102 84,107 80,112 76,107" fill="#dc2626" stroke="#dc2626" stroke-width="0.5"/><text class="uml-member" data-uml-visibility="private" x="90" y="112" font-family="monospace" font-size="11" fill="#dc2626">next: Handler</text><line x1="66" y1="120" x2="272" y2="120" stroke="#1e293b" stroke-width="1"/><circle class="uml-vis-glyph" cx="80" cy="123" r="4" fill="#16a34a" stroke="#16a34a" stroke-width="1"/><text class="uml-member" data-uml-visibility="public" x="90" y="128" font-family="monospace" font-size="11" fill="#16a34a">handle(request): Response</text><rect class="uml-node uml-class" data-uml-id="AuthHandler" x="66" y="174" width="206" height="62" rx="4" ry="4" fill="#ffffff" stroke="#1e293b" stroke-width="1.5"/><rect x="66" y="174" width="206" height="30" rx="4" ry="4" fill="#dbeafe" stroke="#1e293b" stroke-width="1.5"/><line x1="66" y1="204" x2="272" y2="204" stroke="#1e293b" stroke-width="1"/><circle class="uml-class-badge" cx="78" cy="191" r="8" fill="#A2D5A2" stroke="#2E7D32" stroke-width="1"/><text class="uml-class-badge-letter" x="78" y="194" text-anchor="middle" font-family="monospace" font-size="9" font-weight="700" fill="#2E7D32">C</text><text x="169" y="195" text-anchor="middle" font-family="monospace" font-size="13" font-weight="600" fill="#0f172a">AuthHandler</text><circle class="uml-vis-glyph" cx="80" cy="215" r="4" fill="#16a34a" stroke="#16a34a" stroke-width="1"/><text class="uml-member" data-uml-visibility="public" x="90" y="220" font-family="monospace" font-size="11" fill="#16a34a">handle(request): Response</text><rect class="uml-node uml-class" data-uml-id="RateLimitHandler" x="66" y="266" width="206" height="62" rx="4" ry="4" fill="#ffffff" stroke="#1e293b" stroke-width="1.5"/><rect x="66" y="266" width="206" height="30" rx="4" ry="4" fill="#dbeafe" stroke="#1e293b" stroke-width="1.5"/><line x1="66" y1="296" x2="272" y2="296" stroke="#1e293b" stroke-width="1"/><circle class="uml-class-badge" cx="78" cy="283" r="8" fill="#A2D5A2" stroke="#2E7D32" stroke-width="1"/><text class="uml-class-badge-letter" x="78" y="286" text-anchor="middle" font-family="monospace" font-size="9" font-weight="700" fill="#2E7D32">C</text><text x="169" y="287" text-anchor="middle" font-family="monospace" font-size="13" font-weight="600" fill="#0f172a">RateLimitHandler</text><circle class="uml-vis-glyph" cx="80" cy="307" r="4" fill="#16a34a" stroke="#16a34a" stroke-width="1"/><text class="uml-member" data-uml-visibility="public" x="90" y="312" font-family="monospace" font-size="11" fill="#16a34a">handle(request): Response</text><rect class="uml-node uml-class" data-uml-id="BusinessHandler" x="66" y="358" width="206" height="62" rx="4" ry="4" fill="#ffffff" stroke="#1e293b" stroke-width="1.5"/><rect x="66" y="358" width="206" height="30" rx="4" ry="4" fill="#dbeafe" stroke="#1e293b" stroke-width="1.5"/><line x1="66" y1="388" x2="272" y2="388" stroke="#1e293b" stroke-width="1"/><circle class="uml-class-badge" cx="78" cy="375" r="8" fill="#A2D5A2" stroke="#2E7D32" stroke-width="1"/><text class="uml-class-badge-letter" x="78" y="378" text-anchor="middle" font-family="monospace" font-size="9" font-weight="700" fill="#2E7D32">C</text><text x="169" y="379" text-anchor="middle" font-family="monospace" font-size="13" font-weight="600" fill="#0f172a">BusinessHandler</text><circle class="uml-vis-glyph" cx="80" cy="399" r="4" fill="#16a34a" stroke="#16a34a" stroke-width="1"/><text class="uml-member" data-uml-visibility="public" x="90" y="404" font-family="monospace" font-size="11" fill="#16a34a">handle(request): Response</text></svg>