<svg xmlns="http://www.w3.org/2000/svg" width="760" height="310" viewBox="0 0 760 310"><rect width="100%" height="100%" fill="#ffffff"/><defs><marker id="arrow-open" viewBox="0 0 10 10" refX="9" refY="5" markerWidth="10" markerHeight="10" markerUnits="userSpaceOnUse" orient="auto-start-reverse"><path d="M0,0 L10,5 L0,10" fill="none" stroke="#1e293b" stroke-width="1.5"/></marker><marker id="arrow-triangle" viewBox="0 0 16 16" refX="15" refY="8" markerWidth="16" markerHeight="16" markerUnits="userSpaceOnUse" orient="auto-start-reverse"><polygon points="0,1 14,8 0,15" fill="#ffffff" stroke="#1e293b" stroke-width="1.5" fill-rule="nonzero"/></marker><marker id="arrow-diamond-filled" viewBox="0 0 14 10" refX="13" refY="5" markerWidth="14" markerHeight="10" markerUnits="userSpaceOnUse" orient="auto-start-reverse"><path d="M0,5 L7,0 L14,5 L7,10 z" fill="#1e293b" stroke="#1e293b" stroke-width="1"/></marker><marker id="arrow-diamond-open" viewBox="0 0 14 10" refX="13" refY="5" markerWidth="14" markerHeight="10" markerUnits="userSpaceOnUse" orient="auto-start-reverse"><path d="M0,5 L7,0 L14,5 L7,10 z" fill="#ffffff" stroke="#1e293b" stroke-width="1"/></marker></defs><text x="32" y="32" font-family="monospace" font-size="18" font-weight="600" fill="#0f172a">Chain of Responsibility</text><line class="uml-relation" data-uml-from="Handler" data-uml-to="AuthHandler" x1="232" y1="105" x2="280" y2="97" stroke="#1e293b" stroke-width="2" marker-start="url(#arrow-triangle)"/><line class="uml-relation" data-uml-from="Handler" data-uml-to="RateLimitHandler" x1="232" y1="105" x2="528" y2="97" stroke="#1e293b" stroke-width="2" marker-start="url(#arrow-triangle)"/><line class="uml-relation" data-uml-from="Handler" data-uml-to="BusinessHandler" x1="132" y1="144" x2="132" y2="208" stroke="#1e293b" stroke-width="2" marker-start="url(#arrow-triangle)"/><line class="uml-relation" data-uml-from="AuthHandler" data-uml-to="RateLimitHandler" x1="480" y1="97" x2="528" y2="97" stroke="#1e293b" stroke-width="2" marker-end="url(#arrow-open)"/><text x="504" y="81" text-anchor="middle" font-family="monospace" font-size="11" fill="#334155">next</text><line class="uml-relation" data-uml-from="RateLimitHandler" data-uml-to="BusinessHandler" x1="528" y1="97" x2="232" y2="239" stroke="#1e293b" stroke-width="2" marker-end="url(#arrow-open)"/><text x="380" y="152" text-anchor="middle" font-family="monospace" font-size="11" fill="#334155">next</text><rect x="32" y="66" width="200" height="78" rx="4" ry="4" fill="#ffffff" stroke="#1e293b" stroke-width="1.5"/><rect x="32" y="66" width="200" height="30" rx="4" ry="4" fill="#dbeafe" stroke="#1e293b" stroke-width="1.5"/><line x1="32" y1="96" x2="232" y2="96" stroke="#1e293b" stroke-width="1"/><text x="132" y="87" text-anchor="middle" font-family="monospace" font-size="13" font-weight="600" fill="#0f172a">Handler</text><text class="uml-member" data-uml-visibility="private" x="42" y="112" font-family="monospace" font-size="11" fill="#dc2626">-next: Handler</text><line x1="32" y1="120" x2="232" y2="120" stroke="#1e293b" stroke-width="1"/><text class="uml-member" data-uml-visibility="public" x="42" y="128" font-family="monospace" font-size="11" fill="#16a34a">+handle(request): Response</text><rect x="280" y="66" width="200" height="62" rx="4" ry="4" fill="#ffffff" stroke="#1e293b" stroke-width="1.5"/><rect x="280" y="66" width="200" height="30" rx="4" ry="4" fill="#dbeafe" stroke="#1e293b" stroke-width="1.5"/><line x1="280" y1="96" x2="480" y2="96" stroke="#1e293b" stroke-width="1"/><text x="380" y="87" text-anchor="middle" font-family="monospace" font-size="13" font-weight="600" fill="#0f172a">AuthHandler</text><text class="uml-member" data-uml-visibility="public" x="290" y="112" font-family="monospace" font-size="11" fill="#16a34a">+handle(request): Response</text><rect x="528" y="66" width="200" height="62" rx="4" ry="4" fill="#ffffff" stroke="#1e293b" stroke-width="1.5"/><rect x="528" y="66" width="200" height="30" rx="4" ry="4" fill="#dbeafe" stroke="#1e293b" stroke-width="1.5"/><line x1="528" y1="96" x2="728" y2="96" stroke="#1e293b" stroke-width="1"/><text x="628" y="87" text-anchor="middle" font-family="monospace" font-size="13" font-weight="600" fill="#0f172a">RateLimitHandler</text><text class="uml-member" data-uml-visibility="public" x="538" y="112" font-family="monospace" font-size="11" fill="#16a34a">+handle(request): Response</text><rect x="32" y="208" width="200" height="62" rx="4" ry="4" fill="#ffffff" stroke="#1e293b" stroke-width="1.5"/><rect x="32" y="208" width="200" height="30" rx="4" ry="4" fill="#dbeafe" stroke="#1e293b" stroke-width="1.5"/><line x1="32" y1="238" x2="232" y2="238" stroke="#1e293b" stroke-width="1"/><text x="132" y="229" text-anchor="middle" font-family="monospace" font-size="13" font-weight="600" fill="#0f172a">BusinessHandler</text><text class="uml-member" data-uml-visibility="public" x="42" y="254" font-family="monospace" font-size="11" fill="#16a34a">+handle(request): Response</text></svg>