<svg xmlns="http://www.w3.org/2000/svg" width="842" height="862" viewBox="0 0 842 862"><rect width="100%" height="100%" fill="#ffffff"/><defs><marker id="arrow-open" viewBox="0 0 10 10" refX="9" refY="5" markerWidth="10" markerHeight="10" markerUnits="userSpaceOnUse" orient="auto-start-reverse"><path d="M0,0 L10,5 L0,10" fill="none" stroke="#1e293b" stroke-width="1.5"/></marker><marker id="arrow-triangle" viewBox="0 0 16 16" refX="15" refY="8" markerWidth="16" markerHeight="16" markerUnits="userSpaceOnUse" orient="auto-start-reverse"><polygon points="0,1 14,8 0,15" fill="#ffffff" stroke="#1e293b" stroke-width="1.5" fill-rule="nonzero"/></marker><marker id="arrow-diamond-filled" viewBox="0 0 14 10" refX="13" refY="5" markerWidth="14" markerHeight="10" markerUnits="userSpaceOnUse" orient="auto-start-reverse"><path d="M0,5 L7,0 L14,5 L7,10 z" fill="#1e293b" stroke="#1e293b" stroke-width="1"/></marker><marker id="arrow-diamond-open" viewBox="0 0 14 10" refX="13" refY="5" markerWidth="14" markerHeight="10" markerUnits="userSpaceOnUse" orient="auto-start-reverse"><path d="M0,5 L7,0 L14,5 L7,10 z" fill="#ffffff" stroke="#1e293b" stroke-width="1"/></marker></defs><text x="32" y="32" font-family="monospace" font-size="18" font-weight="600" fill="#0f172a">Chain of Responsibility</text><polyline class="uml-relation" data-uml-from="Handler" data-uml-to="AuthHandler" data-uml-arrow="&lt;|--" points="169,144 169,207 169,286" fill="none" stroke="#1e293b" stroke-width="2" marker-start="url(#arrow-triangle)" /><polyline class="uml-relation" data-uml-from="Handler" data-uml-to="RateLimitHandler" data-uml-arrow="&lt;|--" points="169,144 169,215 169,415 169,490" fill="none" stroke="#1e293b" stroke-width="2" marker-start="url(#arrow-triangle)" /><polyline class="uml-relation" data-uml-from="Handler" data-uml-to="BusinessHandler" data-uml-arrow="&lt;|--" points="169,144 169,223 169,423 169,627 169,694" fill="none" stroke="#1e293b" stroke-width="2" marker-start="url(#arrow-triangle)" /><polyline class="uml-relation" data-uml-from="AuthHandler" data-uml-to="RateLimitHandler" data-uml-arrow="--&gt;" points="169,348 169,431 169,490" fill="none" stroke="#1e293b" stroke-width="2" marker-end="url(#arrow-open)" /><text x="298" y="377" text-anchor="middle" font-family="monospace" font-size="11" fill="#334155">next</text><polyline class="uml-relation" data-uml-from="RateLimitHandler" data-uml-to="BusinessHandler" data-uml-arrow="--&gt;" points="169,552 169,635 169,694" fill="none" stroke="#1e293b" stroke-width="2" marker-end="url(#arrow-open)" /><text x="298" y="581" text-anchor="middle" font-family="monospace" font-size="11" fill="#334155">next</text><rect x="66" y="66" width="206" height="78" rx="4" ry="4" fill="#ffffff" stroke="#1e293b" stroke-width="1.5"/><rect x="66" y="66" width="206" height="30" rx="4" ry="4" fill="#dbeafe" stroke="#1e293b" stroke-width="1.5"/><line x1="66" y1="96" x2="272" y2="96" stroke="#1e293b" stroke-width="1"/><text x="169" y="87" text-anchor="middle" font-family="monospace" font-size="13" font-weight="600" fill="#0f172a">Handler</text><text class="uml-member" data-uml-visibility="private" x="76" y="112" font-family="monospace" font-size="11" fill="#dc2626">-next: Handler</text><line x1="66" y1="120" x2="272" y2="120" stroke="#1e293b" stroke-width="1"/><text class="uml-member" data-uml-visibility="public" x="76" y="128" font-family="monospace" font-size="11" fill="#16a34a">+handle(request): Response</text><rect x="66" y="286" width="206" height="62" rx="4" ry="4" fill="#ffffff" stroke="#1e293b" stroke-width="1.5"/><rect x="66" y="286" width="206" height="30" rx="4" ry="4" fill="#dbeafe" stroke="#1e293b" stroke-width="1.5"/><line x1="66" y1="316" x2="272" y2="316" stroke="#1e293b" stroke-width="1"/><text x="169" y="307" text-anchor="middle" font-family="monospace" font-size="13" font-weight="600" fill="#0f172a">AuthHandler</text><text class="uml-member" data-uml-visibility="public" x="76" y="332" font-family="monospace" font-size="11" fill="#16a34a">+handle(request): Response</text><rect x="66" y="490" width="206" height="62" rx="4" ry="4" fill="#ffffff" stroke="#1e293b" stroke-width="1.5"/><rect x="66" y="490" width="206" height="30" rx="4" ry="4" fill="#dbeafe" stroke="#1e293b" stroke-width="1.5"/><line x1="66" y1="520" x2="272" y2="520" stroke="#1e293b" stroke-width="1"/><text x="169" y="511" text-anchor="middle" font-family="monospace" font-size="13" font-weight="600" fill="#0f172a">RateLimitHandler</text><text class="uml-member" data-uml-visibility="public" x="76" y="536" font-family="monospace" font-size="11" fill="#16a34a">+handle(request): Response</text><rect x="66" y="694" width="206" height="62" rx="4" ry="4" fill="#ffffff" stroke="#1e293b" stroke-width="1.5"/><rect x="66" y="694" width="206" height="30" rx="4" ry="4" fill="#dbeafe" stroke="#1e293b" stroke-width="1.5"/><line x1="66" y1="724" x2="272" y2="724" stroke="#1e293b" stroke-width="1"/><text x="169" y="715" text-anchor="middle" font-family="monospace" font-size="13" font-weight="600" fill="#0f172a">BusinessHandler</text><text class="uml-member" data-uml-visibility="public" x="76" y="740" font-family="monospace" font-size="11" fill="#16a34a">+handle(request): Response</text></svg>