<svg xmlns="http://www.w3.org/2000/svg" width="760" height="232" viewBox="0 0 760 232"><rect width="100%" height="100%" fill="#ffffff"/><defs><marker id="arrow-open" viewBox="0 0 10 10" refX="9" refY="5" markerWidth="10" markerHeight="10" markerUnits="userSpaceOnUse" orient="auto-start-reverse"><path d="M0,0 L10,5 L0,10" fill="none" stroke="#1e293b" stroke-width="1.5"/></marker><marker id="arrow-triangle" viewBox="0 0 16 16" refX="15" refY="8" markerWidth="16" markerHeight="16" markerUnits="userSpaceOnUse" orient="auto-start-reverse"><polygon points="0,1 14,8 0,15" fill="#ffffff" stroke="#1e293b" stroke-width="1.5" fill-rule="nonzero"/></marker><marker id="arrow-diamond-filled" viewBox="0 0 14 10" refX="13" refY="5" markerWidth="14" markerHeight="10" markerUnits="userSpaceOnUse" orient="auto-start-reverse"><path d="M0,5 L7,0 L14,5 L7,10 z" fill="#1e293b" stroke="#1e293b" stroke-width="1"/></marker><marker id="arrow-diamond-open" viewBox="0 0 14 10" refX="13" refY="5" markerWidth="14" markerHeight="10" markerUnits="userSpaceOnUse" orient="auto-start-reverse"><path d="M0,5 L7,0 L14,5 L7,10 z" fill="#ffffff" stroke="#1e293b" stroke-width="1"/></marker></defs><text x="32" y="32" font-family="monospace" font-size="18" font-weight="600" fill="#0f172a">Composite Pattern</text><line class="uml-relation" data-uml-from="File" data-uml-to="FileSystemNode" x1="280" y1="113" x2="232" y2="105" stroke="#1e293b" stroke-width="2" marker-start="url(#arrow-triangle)"/><line class="uml-relation" data-uml-from="Directory" data-uml-to="FileSystemNode" x1="528" y1="129" x2="232" y2="105" stroke="#1e293b" stroke-width="2" marker-start="url(#arrow-triangle)"/><line class="uml-relation" data-uml-from="Directory" data-uml-to="FileSystemNode" x1="528" y1="129" x2="232" y2="105" stroke="#1e293b" stroke-width="2" marker-start="url(#arrow-diamond-filled)"/><rect x="32" y="66" width="200" height="78" rx="4" ry="4" fill="#ffffff" stroke="#1e293b" stroke-width="1.5"/><rect x="32" y="66" width="200" height="30" rx="4" ry="4" fill="#dbeafe" stroke="#1e293b" stroke-width="1.5"/><line x1="32" y1="96" x2="232" y2="96" stroke="#1e293b" stroke-width="1"/><text x="132" y="87" text-anchor="middle" font-family="monospace" font-size="13" font-weight="600" fill="#0f172a">FileSystemNode</text><text class="uml-member" data-uml-visibility="public" x="42" y="112" font-family="monospace" font-size="11" fill="#16a34a">+name(): String</text><text class="uml-member" data-uml-visibility="public" x="42" y="128" font-family="monospace" font-size="11" fill="#16a34a">+size(): long</text><rect x="280" y="66" width="200" height="94" rx="4" ry="4" fill="#ffffff" stroke="#1e293b" stroke-width="1.5"/><rect x="280" y="66" width="200" height="30" rx="4" ry="4" fill="#dbeafe" stroke="#1e293b" stroke-width="1.5"/><line x1="280" y1="96" x2="480" y2="96" stroke="#1e293b" stroke-width="1"/><text x="380" y="87" text-anchor="middle" font-family="monospace" font-size="13" font-weight="600" fill="#0f172a">File</text><text class="uml-member" data-uml-visibility="private" x="290" y="112" font-family="monospace" font-size="11" fill="#dc2626">-name: String</text><line x1="280" y1="120" x2="480" y2="120" stroke="#1e293b" stroke-width="1"/><text class="uml-member" data-uml-visibility="public" x="290" y="128" font-family="monospace" font-size="11" fill="#16a34a">+name(): String</text><text class="uml-member" data-uml-visibility="public" x="290" y="144" font-family="monospace" font-size="11" fill="#16a34a">+size(): long</text><rect x="528" y="66" width="200" height="126" rx="4" ry="4" fill="#ffffff" stroke="#1e293b" stroke-width="1.5"/><rect x="528" y="66" width="200" height="30" rx="4" ry="4" fill="#dbeafe" stroke="#1e293b" stroke-width="1.5"/><line x1="528" y1="96" x2="728" y2="96" stroke="#1e293b" stroke-width="1"/><text x="628" y="87" text-anchor="middle" font-family="monospace" font-size="13" font-weight="600" fill="#0f172a">Directory</text><text class="uml-member" data-uml-visibility="private" x="538" y="112" font-family="monospace" font-size="11" fill="#dc2626">-name: String</text><text class="uml-member" data-uml-visibility="private" x="538" y="128" font-family="monospace" font-size="11" fill="#dc2626">-children: List</text><line x1="528" y1="136" x2="728" y2="136" stroke="#1e293b" stroke-width="1"/><text class="uml-member" data-uml-visibility="public" x="538" y="144" font-family="monospace" font-size="11" fill="#16a34a">+add(node): void</text><text class="uml-member" data-uml-visibility="public" x="538" y="160" font-family="monospace" font-size="11" fill="#16a34a">+name(): String</text><text class="uml-member" data-uml-visibility="public" x="538" y="176" font-family="monospace" font-size="11" fill="#16a34a">+size(): long</text></svg>