<svg xmlns="http://www.w3.org/2000/svg" width="1038" height="454" viewBox="0 0 1038 454"><rect width="100%" height="100%" fill="#ffffff"/><defs><marker id="arrow-open" viewBox="0 0 10 10" refX="9" refY="5" markerWidth="10" markerHeight="10" markerUnits="userSpaceOnUse" orient="auto-start-reverse"><path d="M0,0 L10,5 L0,10" fill="none" stroke="#1e293b" stroke-width="1.5"/></marker><marker id="arrow-triangle" viewBox="0 0 16 16" refX="15" refY="8" markerWidth="16" markerHeight="16" markerUnits="userSpaceOnUse" orient="auto-start-reverse"><polygon points="0,1 14,8 0,15" fill="#ffffff" stroke="#1e293b" stroke-width="1.5" fill-rule="nonzero"/></marker><marker id="arrow-diamond-filled" viewBox="0 0 14 10" refX="13" refY="5" markerWidth="14" markerHeight="10" markerUnits="userSpaceOnUse" orient="auto-start-reverse"><path d="M0,5 L7,0 L14,5 L7,10 z" fill="#1e293b" stroke="#1e293b" stroke-width="1"/></marker><marker id="arrow-diamond-open" viewBox="0 0 14 10" refX="13" refY="5" markerWidth="14" markerHeight="10" markerUnits="userSpaceOnUse" orient="auto-start-reverse"><path d="M0,5 L7,0 L14,5 L7,10 z" fill="#ffffff" stroke="#1e293b" stroke-width="1"/></marker></defs><text x="32" y="32" font-family="monospace" font-size="18" font-weight="600" fill="#0f172a">Decorator Pattern</text><polyline class="uml-relation" data-uml-from="PlainProcessor" data-uml-to="TextProcessor" data-uml-arrow="&lt;|--" points="344,128 344,203 185,203 185,286" fill="none" stroke="#1e293b" stroke-width="2" marker-start="url(#arrow-triangle)" /><polyline class="uml-relation" data-uml-from="TextDecorator" data-uml-to="TextProcessor" data-uml-arrow="&lt;|--" points="662,144 662,211 185,211 185,286" fill="none" stroke="#1e293b" stroke-width="2" marker-start="url(#arrow-triangle)" /><polyline class="uml-relation" data-uml-from="TextDecorator" data-uml-to="UppercaseDecorator" data-uml-arrow="&lt;|--" points="662,144 662,219 821,219 821,286" fill="none" stroke="#1e293b" stroke-width="2" marker-start="url(#arrow-triangle)" /><polyline class="uml-relation" data-uml-from="TextDecorator" data-uml-to="TrimDecorator" data-uml-arrow="&lt;|--" points="662,144 662,227 503,227 503,286" fill="none" stroke="#1e293b" stroke-width="2" marker-start="url(#arrow-triangle)" /><polyline class="uml-relation" data-uml-from="TextDecorator" data-uml-to="TextProcessor" data-uml-arrow="--" points="662,144 662,235 185,235 185,286" fill="none" stroke="#1e293b" stroke-width="2" /><rect x="66" y="286" width="238" height="62" rx="4" ry="4" fill="#ffffff" stroke="#1e293b" stroke-width="1.5"/><rect x="66" y="286" width="238" height="30" rx="4" ry="4" fill="#dbeafe" stroke="#1e293b" stroke-width="1.5"/><line x1="66" y1="316" x2="304" y2="316" stroke="#1e293b" stroke-width="1"/><text x="185" y="307" text-anchor="middle" font-family="monospace" font-size="13" font-weight="600" fill="#0f172a">TextProcessor</text><text class="uml-member" data-uml-visibility="public" x="76" y="332" font-family="monospace" font-size="11" fill="#16a34a">+process(text: String): String</text><rect x="225" y="66" width="238" height="62" rx="4" ry="4" fill="#ffffff" stroke="#1e293b" stroke-width="1.5"/><rect x="225" y="66" width="238" height="30" rx="4" ry="4" fill="#dbeafe" stroke="#1e293b" stroke-width="1.5"/><line x1="225" y1="96" x2="463" y2="96" stroke="#1e293b" stroke-width="1"/><text x="344" y="87" text-anchor="middle" font-family="monospace" font-size="13" font-weight="600" fill="#0f172a">PlainProcessor</text><text class="uml-member" data-uml-visibility="public" x="235" y="112" font-family="monospace" font-size="11" fill="#16a34a">+process(text: String): String</text><rect x="543" y="66" width="238" height="78" rx="4" ry="4" fill="#ffffff" stroke="#1e293b" stroke-width="1.5"/><rect x="543" y="66" width="238" height="30" rx="4" ry="4" fill="#dbeafe" stroke="#1e293b" stroke-width="1.5"/><line x1="543" y1="96" x2="781" y2="96" stroke="#1e293b" stroke-width="1"/><text x="662" y="87" text-anchor="middle" font-family="monospace" font-size="13" font-weight="600" fill="#0f172a">TextDecorator</text><text class="uml-member" data-uml-visibility="private" x="553" y="112" font-family="monospace" font-size="11" fill="#dc2626">-wrapped: TextProcessor</text><line x1="543" y1="120" x2="781" y2="120" stroke="#1e293b" stroke-width="1"/><text class="uml-member" data-uml-visibility="public" x="553" y="128" font-family="monospace" font-size="11" fill="#16a34a">+process(text: String): String</text><rect x="702" y="286" width="238" height="62" rx="4" ry="4" fill="#ffffff" stroke="#1e293b" stroke-width="1.5"/><rect x="702" y="286" width="238" height="30" rx="4" ry="4" fill="#dbeafe" stroke="#1e293b" stroke-width="1.5"/><line x1="702" y1="316" x2="940" y2="316" stroke="#1e293b" stroke-width="1"/><text x="821" y="307" text-anchor="middle" font-family="monospace" font-size="13" font-weight="600" fill="#0f172a">UppercaseDecorator</text><text class="uml-member" data-uml-visibility="public" x="712" y="332" font-family="monospace" font-size="11" fill="#16a34a">+process(text: String): String</text><rect x="384" y="286" width="238" height="62" rx="4" ry="4" fill="#ffffff" stroke="#1e293b" stroke-width="1.5"/><rect x="384" y="286" width="238" height="30" rx="4" ry="4" fill="#dbeafe" stroke="#1e293b" stroke-width="1.5"/><line x1="384" y1="316" x2="622" y2="316" stroke="#1e293b" stroke-width="1"/><text x="503" y="307" text-anchor="middle" font-family="monospace" font-size="13" font-weight="600" fill="#0f172a">TrimDecorator</text><text class="uml-member" data-uml-visibility="public" x="394" y="332" font-family="monospace" font-size="11" fill="#16a34a">+process(text: String): String</text></svg>