<svg xmlns="http://www.w3.org/2000/svg" width="850" height="310" viewBox="0 0 850 310"><rect width="100%" height="100%" fill="#ffffff"/><defs><marker id="arrow-open" viewBox="0 0 10 10" refX="9" refY="5" markerWidth="10" markerHeight="10" orient="auto-start-reverse"><path d="M0,0 L10,5 L0,10" fill="none" stroke="#1e293b" stroke-width="1.5"/></marker><marker id="arrow-triangle" viewBox="0 0 12 12" refX="11" refY="6" markerWidth="12" markerHeight="12" orient="auto-start-reverse"><polygon points="0,0 12,6 0,12" fill="white" stroke="#1e293b" stroke-width="1.5" fill-rule="nonzero"/></marker><marker id="arrow-diamond-filled" viewBox="0 0 14 10" refX="13" refY="5" markerWidth="14" markerHeight="10" orient="auto-start-reverse"><path d="M0,5 L7,0 L14,5 L7,10 z" fill="#1e293b" stroke="#1e293b" stroke-width="1"/></marker><marker id="arrow-diamond-open" viewBox="0 0 14 10" refX="13" refY="5" markerWidth="14" markerHeight="10" orient="auto-start-reverse"><path d="M0,5 L7,0 L14,5 L7,10 z" fill="white" stroke="#1e293b" stroke-width="1"/></marker></defs><text x="32" y="32" font-family="monospace" font-size="18" font-weight="600" fill="#0f172a">Decorator Pattern</text><line class="uml-relation" data-uml-from="PlainProcessor" data-uml-to="TextProcessor" x1="310" y1="97" x2="262" y2="97" stroke="#1e293b" stroke-width="2" marker-start="url(#arrow-triangle)"/><line class="uml-relation" data-uml-from="TextDecorator" data-uml-to="TextProcessor" x1="588" y1="104" x2="262" y2="98" stroke="#1e293b" stroke-width="2" marker-start="url(#arrow-triangle)"/><line class="uml-relation" data-uml-from="TextDecorator" data-uml-to="UppercaseDecorator" x1="588" y1="132" x2="262" y2="212" stroke="#1e293b" stroke-width="2" marker-start="url(#arrow-triangle)"/><line class="uml-relation" data-uml-from="TextDecorator" data-uml-to="TrimDecorator" x1="623" y1="144" x2="489" y2="208" stroke="#1e293b" stroke-width="2" marker-start="url(#arrow-triangle)"/><line class="uml-relation" data-uml-from="TextDecorator" data-uml-to="TextProcessor" x1="588" y1="104" x2="262" y2="98" stroke="#1e293b" stroke-width="2"/><rect x="32" y="66" width="230" height="62" rx="4" ry="4" fill="#ffffff" stroke="#1e293b" stroke-width="1.5"/><rect x="32" y="66" width="230" height="30" rx="4" ry="4" fill="#dbeafe" stroke="#1e293b" stroke-width="1.5"/><line x1="32" y1="96" x2="262" y2="96" stroke="#1e293b" stroke-width="1"/><text x="147" y="87" text-anchor="middle" font-family="monospace" font-size="13" font-weight="600" fill="#0f172a">TextProcessor</text><text class="uml-member" data-uml-visibility="public" x="42" y="112" font-family="monospace" font-size="11" fill="#16a34a">+process(text: String): String</text><rect x="310" y="66" width="230" height="62" rx="4" ry="4" fill="#ffffff" stroke="#1e293b" stroke-width="1.5"/><rect x="310" y="66" width="230" height="30" rx="4" ry="4" fill="#dbeafe" stroke="#1e293b" stroke-width="1.5"/><line x1="310" y1="96" x2="540" y2="96" stroke="#1e293b" stroke-width="1"/><text x="425" y="87" text-anchor="middle" font-family="monospace" font-size="13" font-weight="600" fill="#0f172a">PlainProcessor</text><text class="uml-member" data-uml-visibility="public" x="320" y="112" font-family="monospace" font-size="11" fill="#16a34a">+process(text: String): String</text><rect x="588" y="66" width="230" height="78" rx="4" ry="4" fill="#ffffff" stroke="#1e293b" stroke-width="1.5"/><rect x="588" y="66" width="230" height="30" rx="4" ry="4" fill="#dbeafe" stroke="#1e293b" stroke-width="1.5"/><line x1="588" y1="96" x2="818" y2="96" stroke="#1e293b" stroke-width="1"/><text x="703" y="87" text-anchor="middle" font-family="monospace" font-size="13" font-weight="600" fill="#0f172a">TextDecorator</text><text class="uml-member" data-uml-visibility="private" x="598" y="112" font-family="monospace" font-size="11" fill="#dc2626">-wrapped: TextProcessor</text><text class="uml-member" data-uml-visibility="public" x="598" y="128" font-family="monospace" font-size="11" fill="#16a34a">+process(text: String): String</text><rect x="32" y="208" width="230" height="62" rx="4" ry="4" fill="#ffffff" stroke="#1e293b" stroke-width="1.5"/><rect x="32" y="208" width="230" height="30" rx="4" ry="4" fill="#dbeafe" stroke="#1e293b" stroke-width="1.5"/><line x1="32" y1="238" x2="262" y2="238" stroke="#1e293b" stroke-width="1"/><text x="147" y="229" text-anchor="middle" font-family="monospace" font-size="13" font-weight="600" fill="#0f172a">UppercaseDecorator</text><text class="uml-member" data-uml-visibility="public" x="42" y="254" font-family="monospace" font-size="11" fill="#16a34a">+process(text: String): String</text><rect x="310" y="208" width="230" height="62" rx="4" ry="4" fill="#ffffff" stroke="#1e293b" stroke-width="1.5"/><rect x="310" y="208" width="230" height="30" rx="4" ry="4" fill="#dbeafe" stroke="#1e293b" stroke-width="1.5"/><line x1="310" y1="238" x2="540" y2="238" stroke="#1e293b" stroke-width="1"/><text x="425" y="229" text-anchor="middle" font-family="monospace" font-size="13" font-weight="600" fill="#0f172a">TrimDecorator</text><text class="uml-member" data-uml-visibility="public" x="320" y="254" font-family="monospace" font-size="11" fill="#16a34a">+process(text: String): String</text></svg>