<svg xmlns="http://www.w3.org/2000/svg" width="872" height="310" viewBox="0 0 872 310" data-orientation="TopToBottom"><rect width="100%" height="100%" fill="#ffffff"/><defs><marker id="arrow-open" viewBox="0 0 10 10" refX="9" refY="5" markerWidth="10" markerHeight="10" markerUnits="userSpaceOnUse" orient="auto-start-reverse"><path d="M0,0 L10,5 L0,10" fill="none" stroke="#1e293b" stroke-width="1.5"/></marker><marker id="arrow-triangle" viewBox="0 0 16 16" refX="15" refY="8" markerWidth="16" markerHeight="16" markerUnits="userSpaceOnUse" orient="auto-start-reverse"><polygon points="0,1 14,8 0,15" fill="#ffffff" stroke="#1e293b" stroke-width="1.5" fill-rule="nonzero"/></marker><marker id="arrow-diamond-filled" viewBox="0 0 14 10" refX="13" refY="5" markerWidth="14" markerHeight="10" markerUnits="userSpaceOnUse" orient="auto-start-reverse"><path d="M0,5 L7,0 L14,5 L7,10 z" fill="#1e293b" stroke="#1e293b" stroke-width="1"/></marker><marker id="arrow-diamond-open" viewBox="0 0 14 10" refX="13" refY="5" markerWidth="14" markerHeight="10" markerUnits="userSpaceOnUse" orient="auto-start-reverse"><path d="M0,5 L7,0 L14,5 L7,10 z" fill="#ffffff" stroke="#1e293b" stroke-width="1"/></marker></defs><defs><marker id="arrow-triangle-filled" viewBox="0 0 12 12" refX="11" refY="6" markerWidth="12" markerHeight="12" markerUnits="userSpaceOnUse" orient="auto-start-reverse"><polygon points="0,0 12,6 0,12" fill="#1e293b" stroke="#1e293b" stroke-width="1.5"/></marker><marker id="arrow-box-filled" viewBox="0 0 12 12" refX="11" refY="6" markerWidth="12" markerHeight="12" markerUnits="userSpaceOnUse" orient="auto-start-reverse"><rect x="2" y="2" width="8" height="8" fill="#1e293b" stroke="#1e293b" stroke-width="1.5"/></marker><marker id="arrow-plus" viewBox="0 0 12 12" refX="11" refY="6" markerWidth="12" markerHeight="12" markerUnits="userSpaceOnUse" orient="auto-start-reverse"><path d="M6,1 L6,11 M1,6 L11,6" fill="none" stroke="#1e293b" stroke-width="1.8" stroke-linecap="round"/></marker><marker id="arrow-cross" viewBox="0 0 12 12" refX="11" refY="6" markerWidth="12" markerHeight="12" markerUnits="userSpaceOnUse" orient="auto-start-reverse"><path d="M2,2 L10,10 M10,2 L2,10" fill="none" stroke="#1e293b" stroke-width="1.8" stroke-linecap="round"/></marker><marker id="arrow-bracket-open" viewBox="0 0 12 14" refX="11" refY="7" markerWidth="12" markerHeight="14" markerUnits="userSpaceOnUse" orient="auto-start-reverse"><path d="M10,1 L4,1 L4,13 L10,13" fill="none" stroke="#1e293b" stroke-width="1.8" stroke-linecap="round" stroke-linejoin="round"/></marker><marker id="arrow-circle-open" viewBox="0 0 12 12" refX="11" refY="6" markerWidth="12" markerHeight="12" markerUnits="userSpaceOnUse" orient="auto-start-reverse"><circle cx="6" cy="6" r="4" fill="#ffffff" stroke="#1e293b" stroke-width="1.5"/></marker><marker id="arrow-circle-filled" viewBox="0 0 12 12" refX="11" refY="6" markerWidth="12" markerHeight="12" markerUnits="userSpaceOnUse" orient="auto-start-reverse"><circle cx="6" cy="6" r="4" fill="#1e293b" stroke="#1e293b" stroke-width="1.5"/></marker><marker id="arrow-double-open" viewBox="0 0 16 12" refX="15" refY="6" markerWidth="16" markerHeight="12" markerUnits="userSpaceOnUse" orient="auto-start-reverse"><path d="M0,1 L8,6 L0,11 M7,1 L15,6 L7,11" fill="none" stroke="#1e293b" stroke-width="1.5" stroke-linejoin="round"/></marker></defs><text x="8" y="32" font-family="monospace" font-size="18" font-weight="600" fill="#0f172a">Decorator Pattern</text><polyline class="uml-relation" data-uml-from="PlainProcessor" data-uml-to="TextProcessor" data-uml-arrow="&lt;|--" points="203,97 203,148 300,148 300,205" fill="none" stroke="#1e293b" stroke-width="2" marker-start="url(#arrow-triangle)" /><polyline class="uml-relation" data-uml-from="TextDecorator" data-uml-to="TextProcessor" data-uml-arrow="&lt;|--" points="477,85 477,131 300,131 300,185" fill="none" stroke="#1e293b" stroke-width="2" marker-start="url(#arrow-triangle)" /><polyline class="uml-relation" data-uml-from="TextDecorator" data-uml-to="UppercaseDecorator" data-uml-arrow="&lt;|--" points="711,105 711,159 614,159 614,205" fill="none" stroke="#1e293b" stroke-width="2" marker-start="url(#arrow-triangle)" /><polyline class="uml-relation" data-uml-from="TextDecorator" data-uml-to="TrimDecorator" data-uml-arrow="&lt;|--" points="477,105 477,167 574,167 574,205" fill="none" stroke="#1e293b" stroke-width="2" marker-start="url(#arrow-triangle)" /><polyline class="uml-relation" data-uml-from="TextDecorator" data-uml-to="TextProcessor" data-uml-arrow="o--" points="477,105 477,170 300,170 300,205" fill="none" stroke="#1e293b" stroke-width="2" marker-start="url(#arrow-diamond-open)" /><rect class="uml-node uml-class" data-uml-id="TextProcessor" x="66" y="174" width="234" height="62" rx="4" ry="4" fill="#ffffff" stroke="#1e293b" stroke-width="1.5"/><rect x="66" y="174" width="234" height="30" rx="4" ry="4" fill="#dbeafe" stroke="#1e293b" stroke-width="1.5"/><line x1="66" y1="204" x2="300" y2="204" stroke="#1e293b" stroke-width="1"/><circle class="uml-class-badge" cx="78" cy="191" r="8" fill="#A2D5A2" stroke="#2E7D32" stroke-width="1"/><text class="uml-class-badge-letter" x="78" y="194" text-anchor="middle" font-family="monospace" font-size="9" font-weight="700" fill="#2E7D32">C</text><text x="183" y="195" text-anchor="middle" font-family="monospace" font-size="13" font-weight="600" fill="#0f172a">TextProcessor</text><circle class="uml-vis-glyph" cx="80" cy="215" r="4" fill="#16a34a" stroke="#16a34a" stroke-width="1"/><text class="uml-member" data-uml-visibility="public" x="90" y="220" font-family="monospace" font-size="11" fill="#16a34a">process(text: String): String</text><rect class="uml-node uml-class" data-uml-id="PlainProcessor" x="203" y="66" width="234" height="62" rx="4" ry="4" fill="#ffffff" stroke="#1e293b" stroke-width="1.5"/><rect x="203" y="66" width="234" height="30" rx="4" ry="4" fill="#dbeafe" stroke="#1e293b" stroke-width="1.5"/><line x1="203" y1="96" x2="437" y2="96" stroke="#1e293b" stroke-width="1"/><circle class="uml-class-badge" cx="215" cy="83" r="8" fill="#A2D5A2" stroke="#2E7D32" stroke-width="1"/><text class="uml-class-badge-letter" x="215" y="86" text-anchor="middle" font-family="monospace" font-size="9" font-weight="700" fill="#2E7D32">C</text><text x="320" y="87" text-anchor="middle" font-family="monospace" font-size="13" font-weight="600" fill="#0f172a">PlainProcessor</text><circle class="uml-vis-glyph" cx="217" cy="107" r="4" fill="#16a34a" stroke="#16a34a" stroke-width="1"/><text class="uml-member" data-uml-visibility="public" x="227" y="112" font-family="monospace" font-size="11" fill="#16a34a">process(text: String): String</text><rect class="uml-node uml-class" data-uml-id="TextDecorator" x="477" y="66" width="234" height="78" rx="4" ry="4" fill="#ffffff" stroke="#1e293b" stroke-width="1.5"/><rect x="477" y="66" width="234" height="30" rx="4" ry="4" fill="#dbeafe" stroke="#1e293b" stroke-width="1.5"/><line x1="477" y1="96" x2="711" y2="96" stroke="#1e293b" stroke-width="1"/><circle class="uml-class-badge" cx="489" cy="83" r="8" fill="#A2D5A2" stroke="#2E7D32" stroke-width="1"/><text class="uml-class-badge-letter" x="489" y="86" text-anchor="middle" font-family="monospace" font-size="9" font-weight="700" fill="#2E7D32">C</text><text x="594" y="87" text-anchor="middle" font-family="monospace" font-size="13" font-weight="600" fill="#0f172a">TextDecorator</text><polygon class="uml-vis-glyph" points="491,102 495,107 491,112 487,107" fill="#dc2626" stroke="#dc2626" stroke-width="0.5"/><text class="uml-member" data-uml-visibility="private" x="501" y="112" font-family="monospace" font-size="11" fill="#dc2626">wrapped: TextProcessor</text><line x1="477" y1="120" x2="711" y2="120" stroke="#1e293b" stroke-width="1"/><circle class="uml-vis-glyph" cx="491" cy="123" r="4" fill="#16a34a" stroke="#16a34a" stroke-width="1"/><text class="uml-member" data-uml-visibility="public" x="501" y="128" font-family="monospace" font-size="11" fill="#16a34a">process(text: String): String</text><rect class="uml-node uml-class" data-uml-id="UppercaseDecorator" x="614" y="174" width="234" height="62" rx="4" ry="4" fill="#ffffff" stroke="#1e293b" stroke-width="1.5"/><rect x="614" y="174" width="234" height="30" rx="4" ry="4" fill="#dbeafe" stroke="#1e293b" stroke-width="1.5"/><line x1="614" y1="204" x2="848" y2="204" stroke="#1e293b" stroke-width="1"/><circle class="uml-class-badge" cx="626" cy="191" r="8" fill="#A2D5A2" stroke="#2E7D32" stroke-width="1"/><text class="uml-class-badge-letter" x="626" y="194" text-anchor="middle" font-family="monospace" font-size="9" font-weight="700" fill="#2E7D32">C</text><text x="731" y="195" text-anchor="middle" font-family="monospace" font-size="13" font-weight="600" fill="#0f172a">UppercaseDecorator</text><circle class="uml-vis-glyph" cx="628" cy="215" r="4" fill="#16a34a" stroke="#16a34a" stroke-width="1"/><text class="uml-member" data-uml-visibility="public" x="638" y="220" font-family="monospace" font-size="11" fill="#16a34a">process(text: String): String</text><rect class="uml-node uml-class" data-uml-id="TrimDecorator" x="340" y="174" width="234" height="62" rx="4" ry="4" fill="#ffffff" stroke="#1e293b" stroke-width="1.5"/><rect x="340" y="174" width="234" height="30" rx="4" ry="4" fill="#dbeafe" stroke="#1e293b" stroke-width="1.5"/><line x1="340" y1="204" x2="574" y2="204" stroke="#1e293b" stroke-width="1"/><circle class="uml-class-badge" cx="352" cy="191" r="8" fill="#A2D5A2" stroke="#2E7D32" stroke-width="1"/><text class="uml-class-badge-letter" x="352" y="194" text-anchor="middle" font-family="monospace" font-size="9" font-weight="700" fill="#2E7D32">C</text><text x="457" y="195" text-anchor="middle" font-family="monospace" font-size="13" font-weight="600" fill="#0f172a">TrimDecorator</text><circle class="uml-vis-glyph" cx="354" cy="215" r="4" fill="#16a34a" stroke="#16a34a" stroke-width="1"/><text class="uml-member" data-uml-visibility="public" x="364" y="220" font-family="monospace" font-size="11" fill="#16a34a">process(text: String): String</text></svg>