<svg xmlns="http://www.w3.org/2000/svg" width="896" height="502" viewBox="0 0 896 502"><rect width="100%" height="100%" fill="#ffffff"/><defs><marker id="arrow-open" viewBox="0 0 10 10" refX="9" refY="5" markerWidth="10" markerHeight="10" markerUnits="userSpaceOnUse" orient="auto-start-reverse"><path d="M0,0 L10,5 L0,10" fill="none" stroke="#1e293b" stroke-width="1.5"/></marker><marker id="arrow-triangle" viewBox="0 0 16 16" refX="15" refY="8" markerWidth="16" markerHeight="16" markerUnits="userSpaceOnUse" orient="auto-start-reverse"><polygon points="0,1 14,8 0,15" fill="#ffffff" stroke="#1e293b" stroke-width="1.5" fill-rule="nonzero"/></marker><marker id="arrow-diamond-filled" viewBox="0 0 14 10" refX="13" refY="5" markerWidth="14" markerHeight="10" markerUnits="userSpaceOnUse" orient="auto-start-reverse"><path d="M0,5 L7,0 L14,5 L7,10 z" fill="#1e293b" stroke="#1e293b" stroke-width="1"/></marker><marker id="arrow-diamond-open" viewBox="0 0 14 10" refX="13" refY="5" markerWidth="14" markerHeight="10" markerUnits="userSpaceOnUse" orient="auto-start-reverse"><path d="M0,5 L7,0 L14,5 L7,10 z" fill="#ffffff" stroke="#1e293b" stroke-width="1"/></marker></defs><text x="32" y="32" font-family="monospace" font-size="18" font-weight="600" fill="#0f172a">Command Pattern</text><polyline class="uml-relation" data-uml-from="ConcreteCommand" data-uml-to="Command" data-uml-arrow="&lt;|--" points="482,160 482,235 178,235 178,318" fill="none" stroke="#1e293b" stroke-width="2" marker-start="url(#arrow-triangle)" /><polyline class="uml-relation" data-uml-from="Invoker" data-uml-to="Command" data-uml-arrow="--" points="178,160 178,227 178,318" fill="none" stroke="#1e293b" stroke-width="2" /><polyline class="uml-relation" data-uml-from="ConcreteCommand" data-uml-to="Receiver" data-uml-arrow="--&gt;" points="482,160 482,243 482,318" fill="none" stroke="#1e293b" stroke-width="2" marker-end="url(#arrow-open)" /><rect x="66" y="318" width="224" height="78" rx="4" ry="4" fill="#ffffff" stroke="#1e293b" stroke-width="1.5"/><rect x="66" y="318" width="224" height="30" rx="4" ry="4" fill="#dbeafe" stroke="#1e293b" stroke-width="1.5"/><line x1="66" y1="348" x2="290" y2="348" stroke="#1e293b" stroke-width="1"/><text x="178" y="339" text-anchor="middle" font-family="monospace" font-size="13" font-weight="600" fill="#0f172a">Command</text><text class="uml-member" data-uml-visibility="public" x="76" y="364" font-family="monospace" font-size="11" fill="#16a34a">+execute(): void</text><text class="uml-member" data-uml-visibility="public" x="76" y="380" font-family="monospace" font-size="11" fill="#16a34a">+undo(): void</text><rect x="66" y="66" width="224" height="94" rx="4" ry="4" fill="#ffffff" stroke="#1e293b" stroke-width="1.5"/><rect x="66" y="66" width="224" height="30" rx="4" ry="4" fill="#dbeafe" stroke="#1e293b" stroke-width="1.5"/><line x1="66" y1="96" x2="290" y2="96" stroke="#1e293b" stroke-width="1"/><text x="178" y="87" text-anchor="middle" font-family="monospace" font-size="13" font-weight="600" fill="#0f172a">Invoker</text><text class="uml-member" data-uml-visibility="private" x="76" y="112" font-family="monospace" font-size="11" fill="#dc2626">-history: Stack</text><line x1="66" y1="120" x2="290" y2="120" stroke="#1e293b" stroke-width="1"/><text class="uml-member" data-uml-visibility="public" x="76" y="128" font-family="monospace" font-size="11" fill="#16a34a">+execute(cmd: Command): void</text><text class="uml-member" data-uml-visibility="public" x="76" y="144" font-family="monospace" font-size="11" fill="#16a34a">+undo(): void</text><rect x="370" y="318" width="224" height="62" rx="4" ry="4" fill="#ffffff" stroke="#1e293b" stroke-width="1.5"/><rect x="370" y="318" width="224" height="30" rx="4" ry="4" fill="#dbeafe" stroke="#1e293b" stroke-width="1.5"/><line x1="370" y1="348" x2="594" y2="348" stroke="#1e293b" stroke-width="1"/><text x="482" y="339" text-anchor="middle" font-family="monospace" font-size="13" font-weight="600" fill="#0f172a">Receiver</text><text class="uml-member" data-uml-visibility="public" x="380" y="364" font-family="monospace" font-size="11" fill="#16a34a">+action(): void</text><rect x="370" y="66" width="224" height="94" rx="4" ry="4" fill="#ffffff" stroke="#1e293b" stroke-width="1.5"/><rect x="370" y="66" width="224" height="30" rx="4" ry="4" fill="#dbeafe" stroke="#1e293b" stroke-width="1.5"/><line x1="370" y1="96" x2="594" y2="96" stroke="#1e293b" stroke-width="1"/><text x="482" y="87" text-anchor="middle" font-family="monospace" font-size="13" font-weight="600" fill="#0f172a">ConcreteCommand</text><text class="uml-member" data-uml-visibility="private" x="380" y="112" font-family="monospace" font-size="11" fill="#dc2626">-receiver: Receiver</text><line x1="370" y1="120" x2="594" y2="120" stroke="#1e293b" stroke-width="1"/><text class="uml-member" data-uml-visibility="public" x="380" y="128" font-family="monospace" font-size="11" fill="#16a34a">+execute(): void</text><text class="uml-member" data-uml-visibility="public" x="380" y="144" font-family="monospace" font-size="11" fill="#16a34a">+undo(): void</text></svg>