<svg xmlns="http://www.w3.org/2000/svg" width="634" height="502" viewBox="0 0 634 502" data-orientation="TopToBottom"><rect width="100%" height="100%" fill="#ffffff"/><defs><marker id="arrow-open" viewBox="0 0 10 10" refX="9" refY="5" markerWidth="10" markerHeight="10" markerUnits="userSpaceOnUse" orient="auto-start-reverse"><path d="M0,0 L10,5 L0,10" fill="none" stroke="#1e293b" stroke-width="1.5"/></marker><marker id="arrow-triangle" viewBox="0 0 16 16" refX="15" refY="8" markerWidth="16" markerHeight="16" markerUnits="userSpaceOnUse" orient="auto-start-reverse"><polygon points="0,1 14,8 0,15" fill="#ffffff" stroke="#1e293b" stroke-width="1.5" fill-rule="nonzero"/></marker><marker id="arrow-diamond-filled" viewBox="0 0 14 10" refX="13" refY="5" markerWidth="14" markerHeight="10" markerUnits="userSpaceOnUse" orient="auto-start-reverse"><path d="M0,5 L7,0 L14,5 L7,10 z" fill="#1e293b" stroke="#1e293b" stroke-width="1"/></marker><marker id="arrow-diamond-open" viewBox="0 0 14 10" refX="13" refY="5" markerWidth="14" markerHeight="10" markerUnits="userSpaceOnUse" orient="auto-start-reverse"><path d="M0,5 L7,0 L14,5 L7,10 z" fill="#ffffff" stroke="#1e293b" stroke-width="1"/></marker></defs><defs><marker id="arrow-triangle-filled" viewBox="0 0 12 12" refX="11" refY="6" markerWidth="12" markerHeight="12" markerUnits="userSpaceOnUse" orient="auto-start-reverse"><polygon points="0,0 12,6 0,12" fill="#1e293b" stroke="#1e293b" stroke-width="1.5"/></marker><marker id="arrow-box-filled" viewBox="0 0 12 12" refX="11" refY="6" markerWidth="12" markerHeight="12" markerUnits="userSpaceOnUse" orient="auto-start-reverse"><rect x="2" y="2" width="8" height="8" fill="#1e293b" stroke="#1e293b" stroke-width="1.5"/></marker><marker id="arrow-plus" viewBox="0 0 12 12" refX="11" refY="6" markerWidth="12" markerHeight="12" markerUnits="userSpaceOnUse" orient="auto-start-reverse"><path d="M6,1 L6,11 M1,6 L11,6" fill="none" stroke="#1e293b" stroke-width="1.8" stroke-linecap="round"/></marker><marker id="arrow-cross" viewBox="0 0 12 12" refX="11" refY="6" markerWidth="12" markerHeight="12" markerUnits="userSpaceOnUse" orient="auto-start-reverse"><path d="M2,2 L10,10 M10,2 L2,10" fill="none" stroke="#1e293b" stroke-width="1.8" stroke-linecap="round"/></marker><marker id="arrow-bracket-open" viewBox="0 0 12 14" refX="11" refY="7" markerWidth="12" markerHeight="14" markerUnits="userSpaceOnUse" orient="auto-start-reverse"><path d="M10,1 L4,1 L4,13 L10,13" fill="none" stroke="#1e293b" stroke-width="1.8" stroke-linecap="round" stroke-linejoin="round"/></marker><marker id="arrow-circle-open" viewBox="0 0 12 12" refX="11" refY="6" markerWidth="12" markerHeight="12" markerUnits="userSpaceOnUse" orient="auto-start-reverse"><circle cx="6" cy="6" r="4" fill="#ffffff" stroke="#1e293b" stroke-width="1.5"/></marker><marker id="arrow-circle-filled" viewBox="0 0 12 12" refX="11" refY="6" markerWidth="12" markerHeight="12" markerUnits="userSpaceOnUse" orient="auto-start-reverse"><circle cx="6" cy="6" r="4" fill="#1e293b" stroke="#1e293b" stroke-width="1.5"/></marker><marker id="arrow-double-open" viewBox="0 0 16 12" refX="15" refY="6" markerWidth="16" markerHeight="12" markerUnits="userSpaceOnUse" orient="auto-start-reverse"><path d="M0,1 L8,6 L0,11 M7,1 L15,6 L7,11" fill="none" stroke="#1e293b" stroke-width="1.5" stroke-linejoin="round"/></marker></defs><text x="32" y="32" font-family="monospace" font-size="18" font-weight="600" fill="#0f172a">Command Pattern</text><path class="uml-relation" data-uml-from="ConcreteCommand" data-uml-to="Command" data-uml-arrow="&lt;|--" d="M 366,113 C 366.0,155.0 379.3,218.0 366.0,239.0 C 352.7,260.0 299.3,219.3 286.0,239.0 C 272.7,258.7 286.0,317.7 286.0,357.0" fill="none" stroke="#1e293b" stroke-width="2" marker-start="url(#arrow-triangle)" /><path class="uml-relation" data-uml-from="Invoker" data-uml-to="Command" data-uml-arrow="o--" d="M 176,160 C 176.0,186.3 176.0,212.7 176.0,239.0 C 176.0,265.3 176.0,291.7 176.0,318.0" fill="none" stroke="#1e293b" stroke-width="2" marker-start="url(#arrow-diamond-open)" /><path class="uml-relation" data-uml-from="ConcreteCommand" data-uml-to="Receiver" data-uml-arrow="--&gt;" d="M 476,160 C 476.0,186.3 476.0,212.7 476.0,239.0 C 476.0,265.3 476.0,291.7 476.0,318.0" fill="none" stroke="#1e293b" stroke-width="2" marker-end="url(#arrow-open)" /><rect x="66" y="318" width="220" height="78" rx="4" ry="4" fill="#ffffff" stroke="#1e293b" stroke-width="1.5"/><rect x="66" y="318" width="220" height="30" rx="4" ry="4" fill="#dbeafe" stroke="#1e293b" stroke-width="1.5"/><line x1="66" y1="348" x2="286" y2="348" stroke="#1e293b" stroke-width="1"/><text x="176" y="339" text-anchor="middle" font-family="monospace" font-size="13" font-weight="600" fill="#0f172a">Command</text><text class="uml-member" data-uml-visibility="public" x="76" y="364" font-family="monospace" font-size="11" fill="#16a34a">+execute(): void</text><text class="uml-member" data-uml-visibility="public" x="76" y="380" font-family="monospace" font-size="11" fill="#16a34a">+undo(): void</text><rect x="66" y="66" width="220" height="94" rx="4" ry="4" fill="#ffffff" stroke="#1e293b" stroke-width="1.5"/><rect x="66" y="66" width="220" height="30" rx="4" ry="4" fill="#dbeafe" stroke="#1e293b" stroke-width="1.5"/><line x1="66" y1="96" x2="286" y2="96" stroke="#1e293b" stroke-width="1"/><text x="176" y="87" text-anchor="middle" font-family="monospace" font-size="13" font-weight="600" fill="#0f172a">Invoker</text><text class="uml-member" data-uml-visibility="private" x="76" y="112" font-family="monospace" font-size="11" fill="#dc2626">-history: Stack</text><line x1="66" y1="120" x2="286" y2="120" stroke="#1e293b" stroke-width="1"/><text class="uml-member" data-uml-visibility="public" x="76" y="128" font-family="monospace" font-size="11" fill="#16a34a">+execute(cmd: Command): void</text><text class="uml-member" data-uml-visibility="public" x="76" y="144" font-family="monospace" font-size="11" fill="#16a34a">+undo(): void</text><rect x="366" y="318" width="220" height="62" rx="4" ry="4" fill="#ffffff" stroke="#1e293b" stroke-width="1.5"/><rect x="366" y="318" width="220" height="30" rx="4" ry="4" fill="#dbeafe" stroke="#1e293b" stroke-width="1.5"/><line x1="366" y1="348" x2="586" y2="348" stroke="#1e293b" stroke-width="1"/><text x="476" y="339" text-anchor="middle" font-family="monospace" font-size="13" font-weight="600" fill="#0f172a">Receiver</text><text class="uml-member" data-uml-visibility="public" x="376" y="364" font-family="monospace" font-size="11" fill="#16a34a">+action(): void</text><rect x="366" y="66" width="220" height="94" rx="4" ry="4" fill="#ffffff" stroke="#1e293b" stroke-width="1.5"/><rect x="366" y="66" width="220" height="30" rx="4" ry="4" fill="#dbeafe" stroke="#1e293b" stroke-width="1.5"/><line x1="366" y1="96" x2="586" y2="96" stroke="#1e293b" stroke-width="1"/><text x="476" y="87" text-anchor="middle" font-family="monospace" font-size="13" font-weight="600" fill="#0f172a">ConcreteCommand</text><text class="uml-member" data-uml-visibility="private" x="376" y="112" font-family="monospace" font-size="11" fill="#dc2626">-receiver: Receiver</text><line x1="366" y1="120" x2="586" y2="120" stroke="#1e293b" stroke-width="1"/><text class="uml-member" data-uml-visibility="public" x="376" y="128" font-family="monospace" font-size="11" fill="#16a34a">+execute(): void</text><text class="uml-member" data-uml-visibility="public" x="376" y="144" font-family="monospace" font-size="11" fill="#16a34a">+undo(): void</text></svg>