<svg xmlns="http://www.w3.org/2000/svg" width="808" height="358" viewBox="0 0 808 358"><rect width="100%" height="100%" fill="#ffffff"/><defs><marker id="arrow-open" viewBox="0 0 10 10" refX="9" refY="5" markerWidth="10" markerHeight="10" orient="auto-start-reverse"><path d="M0,0 L10,5 L0,10" fill="none" stroke="#1e293b" stroke-width="1.5"/></marker><marker id="arrow-triangle" viewBox="0 0 12 12" refX="11" refY="6" markerWidth="12" markerHeight="12" orient="auto-start-reverse"><polygon points="0,0 12,6 0,12" fill="white" stroke="#1e293b" stroke-width="1.5" fill-rule="nonzero"/></marker><marker id="arrow-diamond-filled" viewBox="0 0 14 10" refX="13" refY="5" markerWidth="14" markerHeight="10" orient="auto-start-reverse"><path d="M0,5 L7,0 L14,5 L7,10 z" fill="#1e293b" stroke="#1e293b" stroke-width="1"/></marker><marker id="arrow-diamond-open" viewBox="0 0 14 10" refX="13" refY="5" markerWidth="14" markerHeight="10" orient="auto-start-reverse"><path d="M0,5 L7,0 L14,5 L7,10 z" fill="white" stroke="#1e293b" stroke-width="1"/></marker></defs><text x="32" y="32" font-family="monospace" font-size="18" font-weight="600" fill="#0f172a">Command Pattern</text><line class="uml-relation" data-uml-from="ConcreteCommand" data-uml-to="Command" x1="140" y1="224" x2="140" y2="144" stroke="#1e293b" stroke-width="2" marker-start="url(#arrow-triangle)"/><line class="uml-relation" data-uml-from="Invoker" data-uml-to="Command" x1="296" y1="110" x2="248" y2="108" stroke="#1e293b" stroke-width="2"/><line class="uml-relation" data-uml-from="ConcreteCommand" data-uml-to="Receiver" x1="248" y1="236" x2="574" y2="128" stroke="#1e293b" stroke-width="2" marker-end="url(#arrow-open)"/><rect x="32" y="66" width="216" height="78" rx="4" ry="4" fill="#ffffff" stroke="#1e293b" stroke-width="1.5"/><rect x="32" y="66" width="216" height="30" rx="4" ry="4" fill="#dbeafe" stroke="#1e293b" stroke-width="1.5"/><line x1="32" y1="96" x2="248" y2="96" stroke="#1e293b" stroke-width="1"/><text x="140" y="87" text-anchor="middle" font-family="monospace" font-size="13" font-weight="600" fill="#0f172a">Command</text><text class="uml-member" data-uml-visibility="public" x="42" y="112" font-family="monospace" font-size="11" fill="#16a34a">+execute(): void</text><text class="uml-member" data-uml-visibility="public" x="42" y="128" font-family="monospace" font-size="11" fill="#16a34a">+undo(): void</text><rect x="296" y="66" width="216" height="94" rx="4" ry="4" fill="#ffffff" stroke="#1e293b" stroke-width="1.5"/><rect x="296" y="66" width="216" height="30" rx="4" ry="4" fill="#dbeafe" stroke="#1e293b" stroke-width="1.5"/><line x1="296" y1="96" x2="512" y2="96" stroke="#1e293b" stroke-width="1"/><text x="404" y="87" text-anchor="middle" font-family="monospace" font-size="13" font-weight="600" fill="#0f172a">Invoker</text><text class="uml-member" data-uml-visibility="private" x="306" y="112" font-family="monospace" font-size="11" fill="#dc2626">-history: Stack</text><text class="uml-member" data-uml-visibility="public" x="306" y="128" font-family="monospace" font-size="11" fill="#16a34a">+execute(cmd: Command): void</text><text class="uml-member" data-uml-visibility="public" x="306" y="144" font-family="monospace" font-size="11" fill="#16a34a">+undo(): void</text><rect x="560" y="66" width="216" height="62" rx="4" ry="4" fill="#ffffff" stroke="#1e293b" stroke-width="1.5"/><rect x="560" y="66" width="216" height="30" rx="4" ry="4" fill="#dbeafe" stroke="#1e293b" stroke-width="1.5"/><line x1="560" y1="96" x2="776" y2="96" stroke="#1e293b" stroke-width="1"/><text x="668" y="87" text-anchor="middle" font-family="monospace" font-size="13" font-weight="600" fill="#0f172a">Receiver</text><text class="uml-member" data-uml-visibility="public" x="570" y="112" font-family="monospace" font-size="11" fill="#16a34a">+action(): void</text><rect x="32" y="224" width="216" height="94" rx="4" ry="4" fill="#ffffff" stroke="#1e293b" stroke-width="1.5"/><rect x="32" y="224" width="216" height="30" rx="4" ry="4" fill="#dbeafe" stroke="#1e293b" stroke-width="1.5"/><line x1="32" y1="254" x2="248" y2="254" stroke="#1e293b" stroke-width="1"/><text x="140" y="245" text-anchor="middle" font-family="monospace" font-size="13" font-weight="600" fill="#0f172a">ConcreteCommand</text><text class="uml-member" data-uml-visibility="private" x="42" y="270" font-family="monospace" font-size="11" fill="#dc2626">-receiver: Receiver</text><text class="uml-member" data-uml-visibility="public" x="42" y="286" font-family="monospace" font-size="11" fill="#16a34a">+execute(): void</text><text class="uml-member" data-uml-visibility="public" x="42" y="302" font-family="monospace" font-size="11" fill="#16a34a">+undo(): void</text></svg>