<svg xmlns="http://www.w3.org/2000/svg" width="1434" height="1554" viewBox="0 0 1434 1554" data-orientation="TopToBottom"><rect width="100%" height="100%" fill="#ffffff"/><defs><marker id="arrow-open" viewBox="0 0 10 10" refX="9" refY="5" markerWidth="10" markerHeight="10" markerUnits="userSpaceOnUse" orient="auto-start-reverse"><path d="M0,0 L10,5 L0,10" fill="none" stroke="#1e293b" stroke-width="1.5"/></marker><marker id="arrow-triangle" viewBox="0 0 16 16" refX="15" refY="8" markerWidth="16" markerHeight="16" markerUnits="userSpaceOnUse" orient="auto-start-reverse"><polygon points="0,1 14,8 0,15" fill="#ffffff" stroke="#1e293b" stroke-width="1.5" fill-rule="nonzero"/></marker><marker id="arrow-diamond-filled" viewBox="0 0 14 10" refX="13" refY="5" markerWidth="14" markerHeight="10" markerUnits="userSpaceOnUse" orient="auto-start-reverse"><path d="M0,5 L7,0 L14,5 L7,10 z" fill="#1e293b" stroke="#1e293b" stroke-width="1"/></marker><marker id="arrow-diamond-open" viewBox="0 0 14 10" refX="13" refY="5" markerWidth="14" markerHeight="10" markerUnits="userSpaceOnUse" orient="auto-start-reverse"><path d="M0,5 L7,0 L14,5 L7,10 z" fill="#ffffff" stroke="#1e293b" stroke-width="1"/></marker></defs><defs><marker id="arrow-triangle-filled" viewBox="0 0 12 12" refX="11" refY="6" markerWidth="12" markerHeight="12" markerUnits="userSpaceOnUse" orient="auto-start-reverse"><polygon points="0,0 12,6 0,12" fill="#1e293b" stroke="#1e293b" stroke-width="1.5"/></marker><marker id="arrow-box-filled" viewBox="0 0 12 12" refX="11" refY="6" markerWidth="12" markerHeight="12" markerUnits="userSpaceOnUse" orient="auto-start-reverse"><rect x="2" y="2" width="8" height="8" fill="#1e293b" stroke="#1e293b" stroke-width="1.5"/></marker><marker id="arrow-plus" viewBox="0 0 12 12" refX="11" refY="6" markerWidth="12" markerHeight="12" markerUnits="userSpaceOnUse" orient="auto-start-reverse"><path d="M6,1 L6,11 M1,6 L11,6" fill="none" stroke="#1e293b" stroke-width="1.8" stroke-linecap="round"/></marker><marker id="arrow-cross" viewBox="0 0 12 12" refX="11" refY="6" markerWidth="12" markerHeight="12" markerUnits="userSpaceOnUse" orient="auto-start-reverse"><path d="M2,2 L10,10 M10,2 L2,10" fill="none" stroke="#1e293b" stroke-width="1.8" stroke-linecap="round"/></marker><marker id="arrow-bracket-open" viewBox="0 0 12 14" refX="11" refY="7" markerWidth="12" markerHeight="14" markerUnits="userSpaceOnUse" orient="auto-start-reverse"><path d="M10,1 L4,1 L4,13 L10,13" fill="none" stroke="#1e293b" stroke-width="1.8" stroke-linecap="round" stroke-linejoin="round"/></marker><marker id="arrow-circle-open" viewBox="0 0 12 12" refX="11" refY="6" markerWidth="12" markerHeight="12" markerUnits="userSpaceOnUse" orient="auto-start-reverse"><circle cx="6" cy="6" r="4" fill="#ffffff" stroke="#1e293b" stroke-width="1.5"/></marker><marker id="arrow-circle-filled" viewBox="0 0 12 12" refX="11" refY="6" markerWidth="12" markerHeight="12" markerUnits="userSpaceOnUse" orient="auto-start-reverse"><circle cx="6" cy="6" r="4" fill="#1e293b" stroke="#1e293b" stroke-width="1.5"/></marker><marker id="arrow-double-open" viewBox="0 0 16 12" refX="15" refY="6" markerWidth="16" markerHeight="12" markerUnits="userSpaceOnUse" orient="auto-start-reverse"><path d="M0,1 L8,6 L0,11 M7,1 L15,6 L7,11" fill="none" stroke="#1e293b" stroke-width="1.5" stroke-linejoin="round"/></marker></defs><text x="32" y="32" font-family="monospace" font-size="18" font-weight="600" fill="#0f172a">Association class + 3-level deep package nesting</text><polyline class="uml-relation" data-uml-from="com::acme::hr::Employee" data-uml-to="com::acme::hr::Department" data-uml-arrow="--" points="601,521 601,647 514,647 514,773" fill="none" stroke="#1e293b" stroke-width="2" /><text x="597" y="515" text-anchor="end" font-family="monospace" font-size="10" fill="#334155">1..*</text><text x="518" y="767" text-anchor="start" font-family="monospace" font-size="10" fill="#334155">1</text><polyline class="uml-relation" data-uml-from="com::acme::hr::Employee" data-uml-to="com::acme::hr::Department" data-uml-arrow=".." points="621,521 621,677 534,677 534,773" fill="none" stroke="#1e293b" stroke-width="2" stroke-dasharray="5 3" /><polyline class="uml-relation" data-uml-from="com::acme::hr::Membership" data-uml-to="com::acme::hr::Employee" data-uml-arrow=".." points="777,316 777,395 777,474" fill="none" stroke="#1e293b" stroke-width="2" stroke-dasharray="5 3" /><polyline class="uml-relation" data-uml-from="com::acme::hr::Membership" data-uml-to="com::acme::hr::Department" data-uml-arrow=".." points="777,316 777,399 378,399 378,726" fill="none" stroke="#1e293b" stroke-width="2" stroke-dasharray="5 3" /><polyline class="uml-relation" data-uml-from="com::acme::payroll::PaySlip" data-uml-to="com::acme::payroll::Deduction" data-uml-arrow="*--" points="1176,820 1176,955 976,955 976,978" fill="none" stroke="#1e293b" stroke-width="2" marker-start="url(#arrow-diamond-filled)" /><text x="1172" y="814" text-anchor="end" font-family="monospace" font-size="10" fill="#334155">1</text><text x="980" y="972" text-anchor="start" font-family="monospace" font-size="10" fill="#334155">0..*</text><polyline class="uml-relation" data-uml-from="com::acme::reporting::Report" data-uml-to="com::acme::reporting::DataSource" data-uml-arrow="--" points="577,1036 577,1145 777,1145 777,1194" fill="none" stroke="#1e293b" stroke-width="2" /><text x="573" y="1030" text-anchor="end" font-family="monospace" font-size="10" fill="#334155">0..*</text><text x="781" y="1188" text-anchor="start" font-family="monospace" font-size="10" fill="#334155">1..*</text><polyline class="uml-relation" data-uml-from="com::acme::reporting::Report" data-uml-to="com::acme::reporting::DataSource" data-uml-arrow=".." points="577,1056 577,1195 777,1195 777,1214" fill="none" stroke="#1e293b" stroke-width="2" stroke-dasharray="5 3" /><polyline class="uml-relation" data-uml-from="com::acme::reporting::ReportBinding" data-uml-to="com::acme::reporting::Report" data-uml-arrow=".." points="777,804 777,880 577,880 577,978" fill="none" stroke="#1e293b" stroke-width="2" stroke-dasharray="5 3" /><polyline class="uml-relation" data-uml-from="com::acme::reporting::ReportBinding" data-uml-to="com::acme::reporting::DataSource" data-uml-arrow=".." points="777,804 777,1009 777,1214" fill="none" stroke="#1e293b" stroke-width="2" stroke-dasharray="5 3" /><polyline class="uml-relation" data-uml-from="Employee" data-uml-to="PaySlip" data-uml-arrow="--&gt;" points="933,521 933,707 1020,707 1020,773" fill="none" stroke="#1e293b" stroke-width="2" marker-end="url(#arrow-open)" /><text class="uml-edge-label" data-uml-label-role="edge" x="1158" y="602" text-anchor="middle" font-family="monospace" font-size="11" fill="#334155">has</text><polyline class="uml-relation" data-uml-from="Department" data-uml-to="Report" data-uml-arrow="--&gt;" points="378,820 378,842 577,842 577,978" fill="none" stroke="#1e293b" stroke-width="2" marker-end="url(#arrow-open)" /><text class="uml-edge-label" data-uml-label-role="edge" x="477" y="708" text-anchor="middle" font-family="monospace" font-size="11" fill="#334155">publishes</text><rect class="uml-group-frame" data-uml-group="com" x="166" y="78" width="1222" height="1270" rx="6" ry="6" fill="none" stroke="#6366f1" stroke-width="1.5" stroke-dasharray="5 3"/><rect x="166" y="78" width="104" height="24" rx="6" ry="6" fill="#ffffff" stroke="#6366f1" stroke-width="1.5"/><rect x="166" y="94" width="104" height="8" fill="#ffffff" stroke="none"/><text x="174" y="94" font-family="monospace" font-size="11" font-weight="600" fill="#4338ca">package com</text><line x1="166" y1="102" x2="1388" y2="102" stroke="#6366f1" stroke-width="1"/><rect class="uml-group-frame" data-uml-group="com::acme" x="184" y="114" width="1186" height="1216" rx="6" ry="6" fill="none" stroke="#6366f1" stroke-width="1.5" stroke-dasharray="5 3"/><rect x="184" y="114" width="112" height="24" rx="6" ry="6" fill="#ffffff" stroke="#6366f1" stroke-width="1.5"/><rect x="184" y="130" width="112" height="8" fill="#ffffff" stroke="none"/><text x="192" y="130" font-family="monospace" font-size="11" font-weight="600" fill="#4338ca">package acme</text><line x1="184" y1="138" x2="1370" y2="138" stroke="#6366f1" stroke-width="1"/><rect class="uml-group-frame" data-uml-group="com::acme::hr" x="202" y="150" width="751" height="690" rx="6" ry="6" fill="none" stroke="#6366f1" stroke-width="1.5" stroke-dasharray="5 3"/><rect x="202" y="150" width="96" height="24" rx="6" ry="6" fill="#ffffff" stroke="#6366f1" stroke-width="1.5"/><rect x="202" y="166" width="96" height="8" fill="#ffffff" stroke="none"/><text x="210" y="166" font-family="monospace" font-size="11" font-weight="600" fill="#4338ca">package hr</text><line x1="202" y1="174" x2="953" y2="174" stroke="#6366f1" stroke-width="1"/><rect class="uml-group-frame" data-uml-group="com::acme::payroll" x="800" y="654" width="552" height="422" rx="6" ry="6" fill="none" stroke="#6366f1" stroke-width="1.5" stroke-dasharray="5 3"/><rect x="800" y="654" width="136" height="24" rx="6" ry="6" fill="#ffffff" stroke="#6366f1" stroke-width="1.5"/><rect x="800" y="670" width="136" height="8" fill="#ffffff" stroke="none"/><text x="808" y="670" font-family="monospace" font-size="11" font-weight="600" fill="#4338ca">package payroll</text><line x1="800" y1="678" x2="1352" y2="678" stroke="#6366f1" stroke-width="1"/><rect class="uml-group-frame" data-uml-group="com::acme::reporting" x="401" y="654" width="552" height="658" rx="6" ry="6" fill="none" stroke="#6366f1" stroke-width="1.5" stroke-dasharray="5 3"/><rect x="401" y="654" width="152" height="24" rx="6" ry="6" fill="#ffffff" stroke="#6366f1" stroke-width="1.5"/><rect x="401" y="670" width="152" height="8" fill="#ffffff" stroke="none"/><text x="409" y="670" font-family="monospace" font-size="11" font-weight="600" fill="#4338ca">package reporting</text><line x1="401" y1="678" x2="953" y2="678" stroke="#6366f1" stroke-width="1"/><rect x="621" y="474" width="312" height="94" rx="4" ry="4" fill="#ffffff" stroke="#1e293b" stroke-width="1.5"/><rect x="621" y="474" width="312" height="30" rx="4" ry="4" fill="#dbeafe" stroke="#1e293b" stroke-width="1.5"/><line x1="621" y1="504" x2="933" y2="504" stroke="#1e293b" stroke-width="1"/><text x="777" y="495" text-anchor="middle" font-family="monospace" font-size="13" font-weight="600" fill="#0f172a">com::acme::hr::Employee</text><text class="uml-member" data-uml-visibility="public" x="631" y="520" font-family="monospace" font-size="11" fill="#16a34a">+id: UUID</text><text class="uml-member" data-uml-visibility="public" x="631" y="536" font-family="monospace" font-size="11" fill="#16a34a">+name: String</text><text class="uml-member" data-uml-visibility="public" x="631" y="552" font-family="monospace" font-size="11" fill="#16a34a">+email: String</text><rect x="222" y="726" width="312" height="94" rx="4" ry="4" fill="#ffffff" stroke="#1e293b" stroke-width="1.5"/><rect x="222" y="726" width="312" height="30" rx="4" ry="4" fill="#dbeafe" stroke="#1e293b" stroke-width="1.5"/><line x1="222" y1="756" x2="534" y2="756" stroke="#1e293b" stroke-width="1"/><text x="378" y="747" text-anchor="middle" font-family="monospace" font-size="13" font-weight="600" fill="#0f172a">com::acme::hr::Department</text><text class="uml-member" data-uml-visibility="public" x="232" y="772" font-family="monospace" font-size="11" fill="#16a34a">+id: UUID</text><text class="uml-member" data-uml-visibility="public" x="232" y="788" font-family="monospace" font-size="11" fill="#16a34a">+name: String</text><text class="uml-member" data-uml-visibility="public" x="232" y="804" font-family="monospace" font-size="11" fill="#16a34a">+budget: Decimal</text><rect x="621" y="222" width="312" height="94" rx="4" ry="4" fill="#ffffff" stroke="#1e293b" stroke-width="1.5"/><rect x="621" y="222" width="312" height="30" rx="4" ry="4" fill="#dbeafe" stroke="#1e293b" stroke-width="1.5"/><line x1="621" y1="252" x2="933" y2="252" stroke="#1e293b" stroke-width="1"/><text x="777" y="243" text-anchor="middle" font-family="monospace" font-size="13" font-weight="600" fill="#0f172a">com::acme::hr::Membership</text><text class="uml-member" data-uml-visibility="public" x="631" y="268" font-family="monospace" font-size="11" fill="#16a34a">+startDate: Date</text><text class="uml-member" data-uml-visibility="public" x="631" y="284" font-family="monospace" font-size="11" fill="#16a34a">+role: String</text><text class="uml-member" data-uml-visibility="public" x="631" y="300" font-family="monospace" font-size="11" fill="#16a34a">+fte: float</text><rect x="1020" y="726" width="312" height="94" rx="4" ry="4" fill="#ffffff" stroke="#1e293b" stroke-width="1.5"/><rect x="1020" y="726" width="312" height="30" rx="4" ry="4" fill="#dbeafe" stroke="#1e293b" stroke-width="1.5"/><line x1="1020" y1="756" x2="1332" y2="756" stroke="#1e293b" stroke-width="1"/><text x="1176" y="747" text-anchor="middle" font-family="monospace" font-size="13" font-weight="600" fill="#0f172a">com::acme::payroll::PaySlip</text><text class="uml-member" data-uml-visibility="public" x="1030" y="772" font-family="monospace" font-size="11" fill="#16a34a">+period: YearMonth</text><text class="uml-member" data-uml-visibility="public" x="1030" y="788" font-family="monospace" font-size="11" fill="#16a34a">+gross: Decimal</text><text class="uml-member" data-uml-visibility="public" x="1030" y="804" font-family="monospace" font-size="11" fill="#16a34a">+net: Decimal</text><rect x="820" y="978" width="312" height="78" rx="4" ry="4" fill="#ffffff" stroke="#1e293b" stroke-width="1.5"/><rect x="820" y="978" width="312" height="30" rx="4" ry="4" fill="#dbeafe" stroke="#1e293b" stroke-width="1.5"/><line x1="820" y1="1008" x2="1132" y2="1008" stroke="#1e293b" stroke-width="1"/><text x="976" y="999" text-anchor="middle" font-family="monospace" font-size="13" font-weight="600" fill="#0f172a">com::acme::payroll::Deduction</text><text class="uml-member" data-uml-visibility="public" x="830" y="1024" font-family="monospace" font-size="11" fill="#16a34a">+type: String</text><text class="uml-member" data-uml-visibility="public" x="830" y="1040" font-family="monospace" font-size="11" fill="#16a34a">+amount: Decimal</text><rect x="421" y="978" width="312" height="78" rx="4" ry="4" fill="#ffffff" stroke="#1e293b" stroke-width="1.5"/><rect x="421" y="978" width="312" height="30" rx="4" ry="4" fill="#dbeafe" stroke="#1e293b" stroke-width="1.5"/><line x1="421" y1="1008" x2="733" y2="1008" stroke="#1e293b" stroke-width="1"/><text x="577" y="999" text-anchor="middle" font-family="monospace" font-size="13" font-weight="600" fill="#0f172a">com::acme::reporting::Report</text><text class="uml-member" data-uml-visibility="public" x="431" y="1024" font-family="monospace" font-size="11" fill="#16a34a">+title: String</text><text class="uml-member" data-uml-visibility="public" x="431" y="1040" font-family="monospace" font-size="11" fill="#16a34a">+generatedAt: Instant</text><rect x="621" y="1214" width="312" height="78" rx="4" ry="4" fill="#ffffff" stroke="#1e293b" stroke-width="1.5"/><rect x="621" y="1214" width="312" height="30" rx="4" ry="4" fill="#dbeafe" stroke="#1e293b" stroke-width="1.5"/><line x1="621" y1="1244" x2="933" y2="1244" stroke="#1e293b" stroke-width="1"/><text x="777" y="1235" text-anchor="middle" font-family="monospace" font-size="13" font-weight="600" fill="#0f172a">com::acme::reporting::DataSource</text><text class="uml-member" data-uml-visibility="public" x="631" y="1260" font-family="monospace" font-size="11" fill="#16a34a">+query: String</text><text class="uml-member" data-uml-visibility="public" x="631" y="1276" font-family="monospace" font-size="11" fill="#16a34a">+connection: String</text><rect x="621" y="726" width="312" height="78" rx="4" ry="4" fill="#ffffff" stroke="#1e293b" stroke-width="1.5"/><rect x="621" y="726" width="312" height="30" rx="4" ry="4" fill="#dbeafe" stroke="#1e293b" stroke-width="1.5"/><line x1="621" y1="756" x2="933" y2="756" stroke="#1e293b" stroke-width="1"/><text x="777" y="747" text-anchor="middle" font-family="monospace" font-size="13" font-weight="600" fill="#0f172a">com::acme::reporting::ReportBinding</text><text class="uml-member" data-uml-visibility="public" x="631" y="772" font-family="monospace" font-size="11" fill="#16a34a">+refreshInterval: Duration</text><text class="uml-member" data-uml-visibility="public" x="631" y="788" font-family="monospace" font-size="11" fill="#16a34a">+format: String</text></svg>