<svg xmlns="http://www.w3.org/2000/svg" width="2002" height="1554" viewBox="0 0 2002 1554" data-orientation="TopToBottom"><rect width="100%" height="100%" fill="#ffffff"/><defs><marker id="arrow-open" viewBox="0 0 10 10" refX="9" refY="5" markerWidth="10" markerHeight="10" markerUnits="userSpaceOnUse" orient="auto-start-reverse"><path d="M0,0 L10,5 L0,10" fill="none" stroke="#1e293b" stroke-width="1.5"/></marker><marker id="arrow-triangle" viewBox="0 0 16 16" refX="15" refY="8" markerWidth="16" markerHeight="16" markerUnits="userSpaceOnUse" orient="auto-start-reverse"><polygon points="0,1 14,8 0,15" fill="#ffffff" stroke="#1e293b" stroke-width="1.5" fill-rule="nonzero"/></marker><marker id="arrow-diamond-filled" viewBox="0 0 14 10" refX="13" refY="5" markerWidth="14" markerHeight="10" markerUnits="userSpaceOnUse" orient="auto-start-reverse"><path d="M0,5 L7,0 L14,5 L7,10 z" fill="#1e293b" stroke="#1e293b" stroke-width="1"/></marker><marker id="arrow-diamond-open" viewBox="0 0 14 10" refX="13" refY="5" markerWidth="14" markerHeight="10" markerUnits="userSpaceOnUse" orient="auto-start-reverse"><path d="M0,5 L7,0 L14,5 L7,10 z" fill="#ffffff" stroke="#1e293b" stroke-width="1"/></marker></defs><defs><marker id="arrow-triangle-filled" viewBox="0 0 12 12" refX="11" refY="6" markerWidth="12" markerHeight="12" markerUnits="userSpaceOnUse" orient="auto-start-reverse"><polygon points="0,0 12,6 0,12" fill="#1e293b" stroke="#1e293b" stroke-width="1.5"/></marker><marker id="arrow-box-filled" viewBox="0 0 12 12" refX="11" refY="6" markerWidth="12" markerHeight="12" markerUnits="userSpaceOnUse" orient="auto-start-reverse"><rect x="2" y="2" width="8" height="8" fill="#1e293b" stroke="#1e293b" stroke-width="1.5"/></marker><marker id="arrow-plus" viewBox="0 0 12 12" refX="11" refY="6" markerWidth="12" markerHeight="12" markerUnits="userSpaceOnUse" orient="auto-start-reverse"><path d="M6,1 L6,11 M1,6 L11,6" fill="none" stroke="#1e293b" stroke-width="1.8" stroke-linecap="round"/></marker><marker id="arrow-cross" viewBox="0 0 12 12" refX="11" refY="6" markerWidth="12" markerHeight="12" markerUnits="userSpaceOnUse" orient="auto-start-reverse"><path d="M2,2 L10,10 M10,2 L2,10" fill="none" stroke="#1e293b" stroke-width="1.8" stroke-linecap="round"/></marker><marker id="arrow-bracket-open" viewBox="0 0 12 14" refX="11" refY="7" markerWidth="12" markerHeight="14" markerUnits="userSpaceOnUse" orient="auto-start-reverse"><path d="M10,1 L4,1 L4,13 L10,13" fill="none" stroke="#1e293b" stroke-width="1.8" stroke-linecap="round" stroke-linejoin="round"/></marker><marker id="arrow-circle-open" viewBox="0 0 12 12" refX="11" refY="6" markerWidth="12" markerHeight="12" markerUnits="userSpaceOnUse" orient="auto-start-reverse"><circle cx="6" cy="6" r="4" fill="#ffffff" stroke="#1e293b" stroke-width="1.5"/></marker><marker id="arrow-circle-filled" viewBox="0 0 12 12" refX="11" refY="6" markerWidth="12" markerHeight="12" markerUnits="userSpaceOnUse" orient="auto-start-reverse"><circle cx="6" cy="6" r="4" fill="#1e293b" stroke="#1e293b" stroke-width="1.5"/></marker><marker id="arrow-double-open" viewBox="0 0 16 12" refX="15" refY="6" markerWidth="16" markerHeight="12" markerUnits="userSpaceOnUse" orient="auto-start-reverse"><path d="M0,1 L8,6 L0,11 M7,1 L15,6 L7,11" fill="none" stroke="#1e293b" stroke-width="1.5" stroke-linejoin="round"/></marker></defs><text x="32" y="32" font-family="monospace" font-size="18" font-weight="600" fill="#0f172a">Association class + 3-level deep package nesting</text><polyline class="uml-relation" data-uml-from="com::acme::hr::Employee" data-uml-to="com::acme::hr::Department" data-uml-arrow="--" points="577,548 577,648 378,648 378,706" fill="none" stroke="#1e293b" stroke-width="2" /><text x="573" y="542" text-anchor="end" font-family="monospace" font-size="10" fill="#334155">1..*</text><text x="382" y="700" text-anchor="start" font-family="monospace" font-size="10" fill="#334155">1</text><polyline class="uml-relation" data-uml-from="com::acme::hr::Employee" data-uml-to="com::acme::hr::Department" data-uml-arrow=".." points="577,568 577,722 378,722 378,726" fill="none" stroke="#1e293b" stroke-width="2" stroke-dasharray="5 3" /><polyline class="uml-relation" data-uml-from="com::acme::hr::Membership" data-uml-to="com::acme::hr::Employee" data-uml-arrow=".." points="378,316 378,338 577,338 577,474" fill="none" stroke="#1e293b" stroke-width="2" stroke-dasharray="5 3" /><polyline class="uml-relation" data-uml-from="com::acme::hr::Membership" data-uml-to="com::acme::hr::Department" data-uml-arrow=".." points="378,316 378,376 2012,376 2012,604 378,604 378,726" fill="none" stroke="#1e293b" stroke-width="2" stroke-dasharray="5 3" /><polyline class="uml-relation" data-uml-from="com::acme::payroll::PaySlip" data-uml-to="com::acme::payroll::Deduction" data-uml-arrow="*--" points="961,820 961,961 961,978" fill="none" stroke="#1e293b" stroke-width="2" marker-start="url(#arrow-diamond-filled)" /><text x="957" y="814" text-anchor="end" font-family="monospace" font-size="10" fill="#334155">1</text><text x="965" y="972" text-anchor="start" font-family="monospace" font-size="10" fill="#334155">0..*</text><polyline class="uml-relation" data-uml-from="com::acme::reporting::Report" data-uml-to="com::acme::reporting::DataSource" data-uml-arrow="--" points="1345,1036 1345,1152 1545,1152 1545,1194" fill="none" stroke="#1e293b" stroke-width="2" /><text x="1341" y="1030" text-anchor="end" font-family="monospace" font-size="10" fill="#334155">0..*</text><text x="1549" y="1188" text-anchor="start" font-family="monospace" font-size="10" fill="#334155">1..*</text><polyline class="uml-relation" data-uml-from="com::acme::reporting::Report" data-uml-to="com::acme::reporting::DataSource" data-uml-arrow=".." points="1345,1056 1345,1197 1545,1197 1545,1214" fill="none" stroke="#1e293b" stroke-width="2" stroke-dasharray="5 3" /><polyline class="uml-relation" data-uml-from="com::acme::reporting::ReportBinding" data-uml-to="com::acme::reporting::Report" data-uml-arrow=".." points="1744,300 1744,413 1345,413 1345,978" fill="none" stroke="#1e293b" stroke-width="2" stroke-dasharray="5 3" /><polyline class="uml-relation" data-uml-from="com::acme::reporting::ReportBinding" data-uml-to="com::acme::reporting::DataSource" data-uml-arrow=".." points="1744,300 1744,451 1545,451 1545,1214" fill="none" stroke="#1e293b" stroke-width="2" stroke-dasharray="5 3" /><polyline class="uml-relation" data-uml-from="Employee" data-uml-to="PaySlip" data-uml-arrow="--&gt;" points="733,521 733,722 805,722 805,773" fill="none" stroke="#1e293b" stroke-width="2" marker-end="url(#arrow-open)" /><rect class="uml-edge-label-bg" data-uml-label-role="edge-background" x="735" y="596" width="24" height="18" fill="white" opacity="0.85"/><text class="uml-edge-label" data-uml-label-role="edge" x="747" y="609" text-anchor="middle" font-family="monospace" font-size="11" fill="#334155">has</text><polyline class="uml-relation" data-uml-from="Department" data-uml-to="Report" data-uml-arrow="--&gt;" points="534,773 534,936 1189,936 1189,1017" fill="none" stroke="#1e293b" stroke-width="2" marker-end="url(#arrow-open)" /><text class="uml-edge-label" data-uml-label-role="edge" x="861" y="910" text-anchor="middle" font-family="monospace" font-size="11" fill="#334155">publishes</text><rect class="uml-group-frame" data-uml-group="com" x="166" y="78" width="1790" height="1270" rx="6" ry="6" fill="none" stroke="#6366f1" stroke-width="1.5" stroke-dasharray="5 3"/><rect x="166" y="78" width="104" height="24" rx="6" ry="6" fill="#ffffff" stroke="#6366f1" stroke-width="1.5"/><rect x="166" y="94" width="104" height="8" fill="#ffffff" stroke="none"/><text x="174" y="94" font-family="monospace" font-size="11" font-weight="600" fill="#4338ca">package com</text><line x1="166" y1="102" x2="1956" y2="102" stroke="#6366f1" stroke-width="1"/><rect class="uml-group-frame" data-uml-group="com::acme" x="184" y="114" width="1754" height="1216" rx="6" ry="6" fill="none" stroke="#6366f1" stroke-width="1.5" stroke-dasharray="5 3"/><rect x="184" y="114" width="112" height="24" rx="6" ry="6" fill="#ffffff" stroke="#6366f1" stroke-width="1.5"/><rect x="184" y="130" width="112" height="8" fill="#ffffff" stroke="none"/><text x="192" y="130" font-family="monospace" font-size="11" font-weight="600" fill="#4338ca">package acme</text><line x1="184" y1="138" x2="1938" y2="138" stroke="#6366f1" stroke-width="1"/><rect class="uml-group-frame" data-uml-group="com::acme::hr" x="202" y="150" width="551" height="690" rx="6" ry="6" fill="none" stroke="#6366f1" stroke-width="1.5" stroke-dasharray="5 3"/><rect x="202" y="150" width="96" height="24" rx="6" ry="6" fill="#ffffff" stroke="#6366f1" stroke-width="1.5"/><rect x="202" y="166" width="96" height="8" fill="#ffffff" stroke="none"/><text x="210" y="166" font-family="monospace" font-size="11" font-weight="600" fill="#4338ca">package hr</text><line x1="202" y1="174" x2="753" y2="174" stroke="#6366f1" stroke-width="1"/><rect class="uml-group-frame" data-uml-group="com::acme::payroll" x="785" y="654" width="352" height="422" rx="6" ry="6" fill="none" stroke="#6366f1" stroke-width="1.5" stroke-dasharray="5 3"/><rect x="785" y="654" width="136" height="24" rx="6" ry="6" fill="#ffffff" stroke="#6366f1" stroke-width="1.5"/><rect x="785" y="670" width="136" height="8" fill="#ffffff" stroke="none"/><text x="793" y="670" font-family="monospace" font-size="11" font-weight="600" fill="#4338ca">package payroll</text><line x1="785" y1="678" x2="1137" y2="678" stroke="#6366f1" stroke-width="1"/><rect class="uml-group-frame" data-uml-group="com::acme::reporting" x="1169" y="150" width="751" height="1162" rx="6" ry="6" fill="none" stroke="#6366f1" stroke-width="1.5" stroke-dasharray="5 3"/><rect x="1169" y="150" width="152" height="24" rx="6" ry="6" fill="#ffffff" stroke="#6366f1" stroke-width="1.5"/><rect x="1169" y="166" width="152" height="8" fill="#ffffff" stroke="none"/><text x="1177" y="166" font-family="monospace" font-size="11" font-weight="600" fill="#4338ca">package reporting</text><line x1="1169" y1="174" x2="1920" y2="174" stroke="#6366f1" stroke-width="1"/><rect x="421" y="474" width="312" height="94" rx="4" ry="4" fill="#ffffff" stroke="#1e293b" stroke-width="1.5"/><rect x="421" y="474" width="312" height="30" rx="4" ry="4" fill="#dbeafe" stroke="#1e293b" stroke-width="1.5"/><line x1="421" y1="504" x2="733" y2="504" stroke="#1e293b" stroke-width="1"/><circle class="uml-class-badge" cx="433" cy="491" r="8" fill="#A2D5A2" stroke="#2E7D32" stroke-width="1"/><text x="433" y="494" text-anchor="middle" font-family="monospace" font-size="9" font-weight="700" fill="#2E7D32">C</text><text x="577" y="495" text-anchor="middle" font-family="monospace" font-size="13" font-weight="600" fill="#0f172a">com::acme::hr::Employee</text><circle class="uml-vis-glyph" cx="435" cy="515" r="4" fill="none" stroke="#16a34a" stroke-width="1.5"/><text class="uml-member" data-uml-visibility="public" x="445" y="520" font-family="monospace" font-size="11" fill="#16a34a">id: UUID</text><circle class="uml-vis-glyph" cx="435" cy="531" r="4" fill="none" stroke="#16a34a" stroke-width="1.5"/><text class="uml-member" data-uml-visibility="public" x="445" y="536" font-family="monospace" font-size="11" fill="#16a34a">name: String</text><circle class="uml-vis-glyph" cx="435" cy="547" r="4" fill="none" stroke="#16a34a" stroke-width="1.5"/><text class="uml-member" data-uml-visibility="public" x="445" y="552" font-family="monospace" font-size="11" fill="#16a34a">email: String</text><rect x="222" y="726" width="312" height="94" rx="4" ry="4" fill="#ffffff" stroke="#1e293b" stroke-width="1.5"/><rect x="222" y="726" width="312" height="30" rx="4" ry="4" fill="#dbeafe" stroke="#1e293b" stroke-width="1.5"/><line x1="222" y1="756" x2="534" y2="756" stroke="#1e293b" stroke-width="1"/><circle class="uml-class-badge" cx="234" cy="743" r="8" fill="#A2D5A2" stroke="#2E7D32" stroke-width="1"/><text x="234" y="746" text-anchor="middle" font-family="monospace" font-size="9" font-weight="700" fill="#2E7D32">C</text><text x="378" y="747" text-anchor="middle" font-family="monospace" font-size="13" font-weight="600" fill="#0f172a">com::acme::hr::Department</text><circle class="uml-vis-glyph" cx="236" cy="767" r="4" fill="none" stroke="#16a34a" stroke-width="1.5"/><text class="uml-member" data-uml-visibility="public" x="246" y="772" font-family="monospace" font-size="11" fill="#16a34a">id: UUID</text><circle class="uml-vis-glyph" cx="236" cy="783" r="4" fill="none" stroke="#16a34a" stroke-width="1.5"/><text class="uml-member" data-uml-visibility="public" x="246" y="788" font-family="monospace" font-size="11" fill="#16a34a">name: String</text><circle class="uml-vis-glyph" cx="236" cy="799" r="4" fill="none" stroke="#16a34a" stroke-width="1.5"/><text class="uml-member" data-uml-visibility="public" x="246" y="804" font-family="monospace" font-size="11" fill="#16a34a">budget: Decimal</text><rect x="222" y="222" width="312" height="94" rx="4" ry="4" fill="#ffffff" stroke="#1e293b" stroke-width="1.5"/><rect x="222" y="222" width="312" height="30" rx="4" ry="4" fill="#dbeafe" stroke="#1e293b" stroke-width="1.5"/><line x1="222" y1="252" x2="534" y2="252" stroke="#1e293b" stroke-width="1"/><circle class="uml-class-badge" cx="234" cy="239" r="8" fill="#A2D5A2" stroke="#2E7D32" stroke-width="1"/><text x="234" y="242" text-anchor="middle" font-family="monospace" font-size="9" font-weight="700" fill="#2E7D32">C</text><text x="378" y="243" text-anchor="middle" font-family="monospace" font-size="13" font-weight="600" fill="#0f172a">com::acme::hr::Membership</text><circle class="uml-vis-glyph" cx="236" cy="263" r="4" fill="none" stroke="#16a34a" stroke-width="1.5"/><text class="uml-member" data-uml-visibility="public" x="246" y="268" font-family="monospace" font-size="11" fill="#16a34a">startDate: Date</text><circle class="uml-vis-glyph" cx="236" cy="279" r="4" fill="none" stroke="#16a34a" stroke-width="1.5"/><text class="uml-member" data-uml-visibility="public" x="246" y="284" font-family="monospace" font-size="11" fill="#16a34a">role: String</text><circle class="uml-vis-glyph" cx="236" cy="295" r="4" fill="none" stroke="#16a34a" stroke-width="1.5"/><text class="uml-member" data-uml-visibility="public" x="246" y="300" font-family="monospace" font-size="11" fill="#16a34a">fte: float</text><rect x="805" y="726" width="312" height="94" rx="4" ry="4" fill="#ffffff" stroke="#1e293b" stroke-width="1.5"/><rect x="805" y="726" width="312" height="30" rx="4" ry="4" fill="#dbeafe" stroke="#1e293b" stroke-width="1.5"/><line x1="805" y1="756" x2="1117" y2="756" stroke="#1e293b" stroke-width="1"/><circle class="uml-class-badge" cx="817" cy="743" r="8" fill="#A2D5A2" stroke="#2E7D32" stroke-width="1"/><text x="817" y="746" text-anchor="middle" font-family="monospace" font-size="9" font-weight="700" fill="#2E7D32">C</text><text x="961" y="747" text-anchor="middle" font-family="monospace" font-size="13" font-weight="600" fill="#0f172a">com::acme::payroll::PaySlip</text><circle class="uml-vis-glyph" cx="819" cy="767" r="4" fill="none" stroke="#16a34a" stroke-width="1.5"/><text class="uml-member" data-uml-visibility="public" x="829" y="772" font-family="monospace" font-size="11" fill="#16a34a">period: YearMonth</text><circle class="uml-vis-glyph" cx="819" cy="783" r="4" fill="none" stroke="#16a34a" stroke-width="1.5"/><text class="uml-member" data-uml-visibility="public" x="829" y="788" font-family="monospace" font-size="11" fill="#16a34a">gross: Decimal</text><circle class="uml-vis-glyph" cx="819" cy="799" r="4" fill="none" stroke="#16a34a" stroke-width="1.5"/><text class="uml-member" data-uml-visibility="public" x="829" y="804" font-family="monospace" font-size="11" fill="#16a34a">net: Decimal</text><rect x="805" y="978" width="312" height="78" rx="4" ry="4" fill="#ffffff" stroke="#1e293b" stroke-width="1.5"/><rect x="805" y="978" width="312" height="30" rx="4" ry="4" fill="#dbeafe" stroke="#1e293b" stroke-width="1.5"/><line x1="805" y1="1008" x2="1117" y2="1008" stroke="#1e293b" stroke-width="1"/><circle class="uml-class-badge" cx="817" cy="995" r="8" fill="#A2D5A2" stroke="#2E7D32" stroke-width="1"/><text x="817" y="998" text-anchor="middle" font-family="monospace" font-size="9" font-weight="700" fill="#2E7D32">C</text><text x="961" y="999" text-anchor="middle" font-family="monospace" font-size="13" font-weight="600" fill="#0f172a">com::acme::payroll::Deduction</text><circle class="uml-vis-glyph" cx="819" cy="1019" r="4" fill="none" stroke="#16a34a" stroke-width="1.5"/><text class="uml-member" data-uml-visibility="public" x="829" y="1024" font-family="monospace" font-size="11" fill="#16a34a">type: String</text><circle class="uml-vis-glyph" cx="819" cy="1035" r="4" fill="none" stroke="#16a34a" stroke-width="1.5"/><text class="uml-member" data-uml-visibility="public" x="829" y="1040" font-family="monospace" font-size="11" fill="#16a34a">amount: Decimal</text><rect x="1189" y="978" width="312" height="78" rx="4" ry="4" fill="#ffffff" stroke="#1e293b" stroke-width="1.5"/><rect x="1189" y="978" width="312" height="30" rx="4" ry="4" fill="#dbeafe" stroke="#1e293b" stroke-width="1.5"/><line x1="1189" y1="1008" x2="1501" y2="1008" stroke="#1e293b" stroke-width="1"/><circle class="uml-class-badge" cx="1201" cy="995" r="8" fill="#A2D5A2" stroke="#2E7D32" stroke-width="1"/><text x="1201" y="998" text-anchor="middle" font-family="monospace" font-size="9" font-weight="700" fill="#2E7D32">C</text><text x="1345" y="999" text-anchor="middle" font-family="monospace" font-size="13" font-weight="600" fill="#0f172a">com::acme::reporting::Report</text><circle class="uml-vis-glyph" cx="1203" cy="1019" r="4" fill="none" stroke="#16a34a" stroke-width="1.5"/><text class="uml-member" data-uml-visibility="public" x="1213" y="1024" font-family="monospace" font-size="11" fill="#16a34a">title: String</text><circle class="uml-vis-glyph" cx="1203" cy="1035" r="4" fill="none" stroke="#16a34a" stroke-width="1.5"/><text class="uml-member" data-uml-visibility="public" x="1213" y="1040" font-family="monospace" font-size="11" fill="#16a34a">generatedAt: Instant</text><rect x="1389" y="1214" width="312" height="78" rx="4" ry="4" fill="#ffffff" stroke="#1e293b" stroke-width="1.5"/><rect x="1389" y="1214" width="312" height="30" rx="4" ry="4" fill="#dbeafe" stroke="#1e293b" stroke-width="1.5"/><line x1="1389" y1="1244" x2="1701" y2="1244" stroke="#1e293b" stroke-width="1"/><circle class="uml-class-badge" cx="1401" cy="1231" r="8" fill="#A2D5A2" stroke="#2E7D32" stroke-width="1"/><text x="1401" y="1234" text-anchor="middle" font-family="monospace" font-size="9" font-weight="700" fill="#2E7D32">C</text><text x="1545" y="1235" text-anchor="middle" font-family="monospace" font-size="13" font-weight="600" fill="#0f172a">com::acme::reporting::DataSource</text><circle class="uml-vis-glyph" cx="1403" cy="1255" r="4" fill="none" stroke="#16a34a" stroke-width="1.5"/><text class="uml-member" data-uml-visibility="public" x="1413" y="1260" font-family="monospace" font-size="11" fill="#16a34a">query: String</text><circle class="uml-vis-glyph" cx="1403" cy="1271" r="4" fill="none" stroke="#16a34a" stroke-width="1.5"/><text class="uml-member" data-uml-visibility="public" x="1413" y="1276" font-family="monospace" font-size="11" fill="#16a34a">connection: String</text><rect x="1588" y="222" width="312" height="78" rx="4" ry="4" fill="#ffffff" stroke="#1e293b" stroke-width="1.5"/><rect x="1588" y="222" width="312" height="30" rx="4" ry="4" fill="#dbeafe" stroke="#1e293b" stroke-width="1.5"/><line x1="1588" y1="252" x2="1900" y2="252" stroke="#1e293b" stroke-width="1"/><circle class="uml-class-badge" cx="1600" cy="239" r="8" fill="#A2D5A2" stroke="#2E7D32" stroke-width="1"/><text x="1600" y="242" text-anchor="middle" font-family="monospace" font-size="9" font-weight="700" fill="#2E7D32">C</text><text x="1744" y="243" text-anchor="middle" font-family="monospace" font-size="13" font-weight="600" fill="#0f172a">com::acme::reporting::ReportBinding</text><circle class="uml-vis-glyph" cx="1602" cy="263" r="4" fill="none" stroke="#16a34a" stroke-width="1.5"/><text class="uml-member" data-uml-visibility="public" x="1612" y="268" font-family="monospace" font-size="11" fill="#16a34a">refreshInterval: Duration</text><circle class="uml-vis-glyph" cx="1602" cy="279" r="4" fill="none" stroke="#16a34a" stroke-width="1.5"/><text class="uml-member" data-uml-visibility="public" x="1612" y="284" font-family="monospace" font-size="11" fill="#16a34a">format: String</text></svg>