<svg xmlns="http://www.w3.org/2000/svg" width="1434" height="1302" viewBox="0 0 1434 1302"><rect width="100%" height="100%" fill="#ffffff"/><defs><marker id="arrow-open" viewBox="0 0 10 10" refX="9" refY="5" markerWidth="10" markerHeight="10" markerUnits="userSpaceOnUse" orient="auto-start-reverse"><path d="M0,0 L10,5 L0,10" fill="none" stroke="#1e293b" stroke-width="1.5"/></marker><marker id="arrow-triangle" viewBox="0 0 16 16" refX="15" refY="8" markerWidth="16" markerHeight="16" markerUnits="userSpaceOnUse" orient="auto-start-reverse"><polygon points="0,1 14,8 0,15" fill="#ffffff" stroke="#1e293b" stroke-width="1.5" fill-rule="nonzero"/></marker><marker id="arrow-diamond-filled" viewBox="0 0 14 10" refX="13" refY="5" markerWidth="14" markerHeight="10" markerUnits="userSpaceOnUse" orient="auto-start-reverse"><path d="M0,5 L7,0 L14,5 L7,10 z" fill="#1e293b" stroke="#1e293b" stroke-width="1"/></marker><marker id="arrow-diamond-open" viewBox="0 0 14 10" refX="13" refY="5" markerWidth="14" markerHeight="10" markerUnits="userSpaceOnUse" orient="auto-start-reverse"><path d="M0,5 L7,0 L14,5 L7,10 z" fill="#ffffff" stroke="#1e293b" stroke-width="1"/></marker></defs><text x="32" y="32" font-family="monospace" font-size="18" font-weight="600" fill="#0f172a">Association class + 3-level deep package nesting</text><polyline class="uml-relation" data-uml-from="com::acme::hr::Employee" data-uml-to="com::acme::hr::Department" data-uml-arrow="--" points="378,316 378,391 577,391 577,474" fill="none" stroke="#1e293b" stroke-width="2" /><text x="374" y="310" text-anchor="end" font-family="monospace" font-size="10" fill="#334155">1..*</text><text x="581" y="468" text-anchor="start" font-family="monospace" font-size="10" fill="#334155">1</text><polyline class="uml-relation" data-uml-from="com::acme::payroll::PaySlip" data-uml-to="com::acme::payroll::Deduction" data-uml-arrow="*--" points="976,568 976,647 976,726" fill="none" stroke="#1e293b" stroke-width="2" marker-start="url(#arrow-diamond-filled)" /><text x="972" y="562" text-anchor="end" font-family="monospace" font-size="10" fill="#334155">1</text><text x="980" y="720" text-anchor="start" font-family="monospace" font-size="10" fill="#334155">0..*</text><polyline class="uml-relation" data-uml-from="com::acme::reporting::Report" data-uml-to="com::acme::reporting::DataSource" data-uml-arrow="--" points="577,804 577,883 777,883 777,962" fill="none" stroke="#1e293b" stroke-width="2" /><text x="573" y="798" text-anchor="end" font-family="monospace" font-size="10" fill="#334155">0..*</text><text x="781" y="956" text-anchor="start" font-family="monospace" font-size="10" fill="#334155">1..*</text><polyline class="uml-relation" data-uml-from="Employee" data-uml-to="PaySlip" data-uml-arrow="--&gt;" points="534,269 534,399 820,399 820,521" fill="none" stroke="#1e293b" stroke-width="2" marker-end="url(#arrow-open)" /><text x="677" y="373" text-anchor="middle" font-family="monospace" font-size="11" fill="#334155">has</text><polyline class="uml-relation" data-uml-from="Department" data-uml-to="Report" data-uml-arrow="--&gt;" points="577,568 577,647 577,726" fill="none" stroke="#1e293b" stroke-width="2" marker-end="url(#arrow-open)" /><text x="577" y="635" text-anchor="middle" font-family="monospace" font-size="11" fill="#334155">publishes</text><rect class="uml-group-frame" data-uml-group="com" x="166" y="78" width="1222" height="1018" rx="6" ry="6" fill="none" stroke="#6366f1" stroke-width="1.5" stroke-dasharray="5 3"/><rect x="166" y="78" width="104" height="24" rx="6" ry="6" fill="#ffffff" stroke="#6366f1" stroke-width="1.5"/><rect x="166" y="94" width="104" height="8" fill="#ffffff" stroke="none"/><text x="174" y="94" font-family="monospace" font-size="11" font-weight="600" fill="#4338ca">package com</text><line x1="166" y1="102" x2="1388" y2="102" stroke="#6366f1" stroke-width="1"/><rect class="uml-group-frame" data-uml-group="com::acme" x="184" y="114" width="1186" height="964" rx="6" ry="6" fill="none" stroke="#6366f1" stroke-width="1.5" stroke-dasharray="5 3"/><rect x="184" y="114" width="112" height="24" rx="6" ry="6" fill="#ffffff" stroke="#6366f1" stroke-width="1.5"/><rect x="184" y="130" width="112" height="8" fill="#ffffff" stroke="none"/><text x="192" y="130" font-family="monospace" font-size="11" font-weight="600" fill="#4338ca">package acme</text><line x1="184" y1="138" x2="1370" y2="138" stroke="#6366f1" stroke-width="1"/><rect class="uml-group-frame" data-uml-group="com::acme::hr" x="202" y="150" width="751" height="438" rx="6" ry="6" fill="none" stroke="#6366f1" stroke-width="1.5" stroke-dasharray="5 3"/><rect x="202" y="150" width="96" height="24" rx="6" ry="6" fill="#ffffff" stroke="#6366f1" stroke-width="1.5"/><rect x="202" y="166" width="96" height="8" fill="#ffffff" stroke="none"/><text x="210" y="166" font-family="monospace" font-size="11" font-weight="600" fill="#4338ca">package hr</text><line x1="202" y1="174" x2="953" y2="174" stroke="#6366f1" stroke-width="1"/><rect class="uml-group-frame" data-uml-group="com::acme::payroll" x="800" y="402" width="352" height="422" rx="6" ry="6" fill="none" stroke="#6366f1" stroke-width="1.5" stroke-dasharray="5 3"/><rect x="800" y="402" width="136" height="24" rx="6" ry="6" fill="#ffffff" stroke="#6366f1" stroke-width="1.5"/><rect x="800" y="418" width="136" height="8" fill="#ffffff" stroke="none"/><text x="808" y="418" font-family="monospace" font-size="11" font-weight="600" fill="#4338ca">package payroll</text><line x1="800" y1="426" x2="1152" y2="426" stroke="#6366f1" stroke-width="1"/><rect class="uml-group-frame" data-uml-group="com::acme::reporting" x="401" y="150" width="951" height="910" rx="6" ry="6" fill="none" stroke="#6366f1" stroke-width="1.5" stroke-dasharray="5 3"/><rect x="401" y="150" width="152" height="24" rx="6" ry="6" fill="#ffffff" stroke="#6366f1" stroke-width="1.5"/><rect x="401" y="166" width="152" height="8" fill="#ffffff" stroke="none"/><text x="409" y="166" font-family="monospace" font-size="11" font-weight="600" fill="#4338ca">package reporting</text><line x1="401" y1="174" x2="1352" y2="174" stroke="#6366f1" stroke-width="1"/><ellipse cx="378" cy="269" rx="156" ry="47" fill="#ffffff" stroke="#1e293b" stroke-width="1.5"/><text x="378" y="273" text-anchor="middle" font-family="monospace" font-size="13" font-weight="600" fill="#0f172a">Employee</text><text x="378" y="330" text-anchor="middle" font-family="monospace" font-size="11" fill="#334155">+id: UUID</text><text x="378" y="344" text-anchor="middle" font-family="monospace" font-size="11" fill="#334155">+name: String</text><text x="378" y="358" text-anchor="middle" font-family="monospace" font-size="11" fill="#334155">+email: String</text><ellipse cx="577" cy="521" rx="156" ry="47" fill="#ffffff" stroke="#1e293b" stroke-width="1.5"/><text x="577" y="525" text-anchor="middle" font-family="monospace" font-size="13" font-weight="600" fill="#0f172a">Department</text><text x="577" y="582" text-anchor="middle" font-family="monospace" font-size="11" fill="#334155">+id: UUID</text><text x="577" y="596" text-anchor="middle" font-family="monospace" font-size="11" fill="#334155">+name: String</text><text x="577" y="610" text-anchor="middle" font-family="monospace" font-size="11" fill="#334155">+budget: Decimal</text><ellipse cx="777" cy="269" rx="156" ry="47" fill="#ffffff" stroke="#1e293b" stroke-width="1.5"/><text x="777" y="273" text-anchor="middle" font-family="monospace" font-size="13" font-weight="600" fill="#0f172a">Membership</text><text x="777" y="330" text-anchor="middle" font-family="monospace" font-size="11" fill="#334155">+startDate: Date</text><text x="777" y="344" text-anchor="middle" font-family="monospace" font-size="11" fill="#334155">+role: String</text><text x="777" y="358" text-anchor="middle" font-family="monospace" font-size="11" fill="#334155">+fte: float</text><ellipse cx="976" cy="521" rx="156" ry="47" fill="#ffffff" stroke="#1e293b" stroke-width="1.5"/><text x="976" y="525" text-anchor="middle" font-family="monospace" font-size="13" font-weight="600" fill="#0f172a">PaySlip</text><text x="976" y="582" text-anchor="middle" font-family="monospace" font-size="11" fill="#334155">+period: YearMonth</text><text x="976" y="596" text-anchor="middle" font-family="monospace" font-size="11" fill="#334155">+gross: Decimal</text><text x="976" y="610" text-anchor="middle" font-family="monospace" font-size="11" fill="#334155">+net: Decimal</text><ellipse cx="976" cy="765" rx="156" ry="39" fill="#ffffff" stroke="#1e293b" stroke-width="1.5"/><text x="976" y="769" text-anchor="middle" font-family="monospace" font-size="13" font-weight="600" fill="#0f172a">Deduction</text><text x="976" y="818" text-anchor="middle" font-family="monospace" font-size="11" fill="#334155">+type: String</text><text x="976" y="832" text-anchor="middle" font-family="monospace" font-size="11" fill="#334155">+amount: Decimal</text><ellipse cx="577" cy="765" rx="156" ry="39" fill="#ffffff" stroke="#1e293b" stroke-width="1.5"/><text x="577" y="769" text-anchor="middle" font-family="monospace" font-size="13" font-weight="600" fill="#0f172a">Report</text><text x="577" y="818" text-anchor="middle" font-family="monospace" font-size="11" fill="#334155">+title: String</text><text x="577" y="832" text-anchor="middle" font-family="monospace" font-size="11" fill="#334155">+generatedAt: Instant</text><ellipse cx="777" cy="1001" rx="156" ry="39" fill="#ffffff" stroke="#1e293b" stroke-width="1.5"/><text x="777" y="1005" text-anchor="middle" font-family="monospace" font-size="13" font-weight="600" fill="#0f172a">DataSource</text><text x="777" y="1054" text-anchor="middle" font-family="monospace" font-size="11" fill="#334155">+query: String</text><text x="777" y="1068" text-anchor="middle" font-family="monospace" font-size="11" fill="#334155">+connection: String</text><ellipse cx="1176" cy="261" rx="156" ry="39" fill="#ffffff" stroke="#1e293b" stroke-width="1.5"/><text x="1176" y="265" text-anchor="middle" font-family="monospace" font-size="13" font-weight="600" fill="#0f172a">ReportBinding</text><text x="1176" y="314" text-anchor="middle" font-family="monospace" font-size="11" fill="#334155">+refreshInterval: Duration</text><text x="1176" y="328" text-anchor="middle" font-family="monospace" font-size="11" fill="#334155">+format: String</text></svg>