<svg xmlns="http://www.w3.org/2000/svg" width="640" height="255" viewBox="0 0 640 255"><rect width="100%" height="100%" fill="white"/><defs><marker id="arrow" markerWidth="8" markerHeight="8" refX="6" refY="3" orient="auto"><path d="M0,0 L0,6 L8,3 z" fill="#1e293b"/></marker></defs><path class="state-transition" data-state-from="[*]" data-state-to="Idle" d="M 216 93 L 216 96 L 470 96 L 470 100" fill="none" stroke="#1e293b" stroke-width="2" marker-end="url(#arrow)"/><text x="292" y="117" font-family="monospace" font-size="11" fill="#0f172a" text-anchor="middle" data-state-label="init"><tspan x="292" y="117">init</tspan></text><path class="state-transition" data-state-from="Idle" data-state-to="Running" d="M 470 100 L 470 143 L 330 143 L 330 186" fill="none" stroke="#1e293b" stroke-width="2" marker-end="url(#arrow)"/><text x="419" y="114" font-family="monospace" font-size="11" fill="#0f172a" text-anchor="middle" data-state-label="start"><tspan x="419" y="114">start</tspan></text><path class="state-transition" data-state-from="Running" data-state-to="[*]__end" d="M 330 186 L 330 189 L 470 189 L 470 193" fill="none" stroke="#1e293b" stroke-width="2" marker-end="url(#arrow)"/><text x="371" y="210" font-family="monospace" font-size="11" fill="#0f172a" text-anchor="middle" data-state-label="stop"><tspan x="371" y="210">stop</tspan></text><metadata data-state-node="[*]" data-state-kind="start-end" /><circle cx="203" cy="93" r="12" fill="#0f172a"/><metadata data-state-node="Idle" data-state-kind="normal" /><rect x="470" y="80" width="140" height="40" rx="8" ry="8" fill="#f6f6f6" stroke="#1e293b" stroke-width="1.5"/><text x="540" y="104" font-family="monospace" font-size="13" font-weight="600" text-anchor="middle" fill="#0f172a">Idle</text><metadata data-state-node="Running" data-state-kind="normal" /><rect x="190" y="166" width="140" height="40" rx="8" ry="8" fill="#f6f6f6" stroke="#1e293b" stroke-width="1.5"/><text x="260" y="190" font-family="monospace" font-size="13" font-weight="600" text-anchor="middle" fill="#0f172a">Running</text><metadata data-state-node="[*]__end" data-state-kind="end" /><circle cx="483" cy="193" r="12" fill="#f6f6f6" stroke="#1e293b" stroke-width="2"/><circle cx="483" cy="193" r="8" fill="#0f172a"/></svg>