<svg xmlns="http://www.w3.org/2000/svg" width="480" height="248" viewBox="0 0 480 248"><rect width="100%" height="100%" fill="white"/><defs><marker id="arrow" markerWidth="8" markerHeight="8" refX="6" refY="3" orient="auto"><path d="M0,0 L0,6 L8,3 z" fill="#1e293b"/></marker></defs><path class="state-transition" data-state-from="[*]" data-state-to="Idle" d="M 56 93 L 56 96 L 310 96 L 310 100" fill="none" stroke="#1e293b" stroke-width="2" marker-end="url(#arrow)"/><text x="132" y="108" font-family="monospace" font-size="11" fill="#0f172a" text-anchor="middle" data-state-label="init"><tspan x="132" y="108">init</tspan></text><path class="state-transition" data-state-from="Idle" data-state-to="Running" d="M 310 100 L 310 143 L 170 143 L 170 186" fill="none" stroke="#1e293b" stroke-width="2" marker-end="url(#arrow)"/><text x="268" y="139" font-family="monospace" font-size="11" fill="#0f172a" text-anchor="middle" data-state-label="start"><tspan x="268" y="139">start</tspan></text><path class="state-transition" data-state-from="Running" data-state-to="[*]__end" d="M 170 186 L 170 189 L 310 189 L 310 193" fill="none" stroke="#1e293b" stroke-width="2" marker-end="url(#arrow)"/><text x="212" y="201" font-family="monospace" font-size="11" fill="#0f172a" text-anchor="middle" data-state-label="stop"><tspan x="212" y="201">stop</tspan></text><metadata data-state-node="[*]" data-state-kind="start-end" /><circle cx="43" cy="93" r="12" fill="#0f172a"/><metadata data-state-node="Idle" data-state-kind="normal" /><rect x="310" y="80" width="140" height="40" rx="8" ry="8" fill="#f6f6f6" stroke="#1e293b" stroke-width="1.5"/><text x="380" y="104" font-family="monospace" font-size="13" font-weight="600" text-anchor="middle" fill="#0f172a">Idle</text><metadata data-state-node="Running" data-state-kind="normal" /><rect x="30" y="166" width="140" height="40" rx="8" ry="8" fill="#f6f6f6" stroke="#1e293b" stroke-width="1.5"/><text x="100" y="190" font-family="monospace" font-size="13" font-weight="600" text-anchor="middle" fill="#0f172a">Running</text><metadata data-state-node="[*]__end" data-state-kind="end" /><circle cx="323" cy="193" r="12" fill="#f6f6f6" stroke="#1e293b" stroke-width="2"/><circle cx="323" cy="193" r="8" fill="#0f172a"/></svg>