<svg xmlns="http://www.w3.org/2000/svg" width="640" height="434" viewBox="0 0 640 434"><rect width="100%" height="100%" fill="white"/><defs><marker id="arrow" markerWidth="8" markerHeight="8" refX="6" refY="3" orient="auto"><path d="M0,0 L0,6 L8,3 z" fill="#1e293b"/></marker></defs><path class="state-transition" data-state-from="[*]" data-state-to="Draft" d="M 216 93 L 216 96 L 470 96 L 470 100" fill="none" stroke="#1e293b" stroke-width="2" marker-end="url(#arrow)"/><path class="state-transition" data-state-from="Draft" data-state-to="Submitted" d="M 470 100 L 470 143 L 330 143 L 330 186" fill="none" stroke="#1e293b" stroke-width="2" marker-end="url(#arrow)"/><text x="419" y="114" font-family="monospace" font-size="11" fill="#0f172a" text-anchor="middle" data-state-label="submit()"><tspan x="419" y="114">submit()</tspan></text><path class="state-transition" data-state-from="Submitted" data-state-to="Approved" d="M 330 186 L 330 193 L 470 193 L 470 200" fill="none" stroke="#1e293b" stroke-width="2" marker-end="url(#arrow)"/><text x="388" y="214" font-family="monospace" font-size="11" fill="#0f172a" text-anchor="middle" data-state-label="approve()"><tspan x="388" y="214">approve()</tspan></text><path class="state-transition" data-state-from="Submitted" data-state-to="Rejected" d="M 260 206 L 260 266" fill="none" stroke="#1e293b" stroke-width="2" marker-end="url(#arrow)"/><text x="242" y="246" font-family="monospace" font-size="11" fill="#0f172a" text-anchor="middle" data-state-label="reject()"><tspan x="242" y="246">reject()</tspan></text><path class="state-transition" data-state-from="Approved" data-state-to="Published" d="M 540 220 L 540 280" fill="none" stroke="#1e293b" stroke-width="2" marker-end="url(#arrow)"/><text x="522" y="260" font-family="monospace" font-size="11" fill="#0f172a" text-anchor="middle" data-state-label="publish()"><tspan x="522" y="260">publish()</tspan></text><path class="state-transition" data-state-from="Rejected" data-state-to="Draft" d="M 330 286 L 330 193 L 470 193 L 470 100" fill="none" stroke="#1e293b" stroke-width="2" marker-end="url(#arrow)"/><text x="386" y="245" font-family="monospace" font-size="11" fill="#0f172a" text-anchor="middle" data-state-label="revise()"><tspan x="386" y="245">revise()</tspan></text><path class="state-transition" data-state-from="Published" data-state-to="[*]__end" d="M 470 300 L 470 339 L 216 339 L 216 379" fill="none" stroke="#1e293b" stroke-width="2" marker-end="url(#arrow)"/><metadata data-state-node="[*]" data-state-kind="start-end" /><circle cx="203" cy="93" r="12" fill="#0f172a"/><metadata data-state-node="Draft" data-state-kind="normal" /><rect x="470" y="80" width="140" height="40" rx="8" ry="8" fill="#f6f6f6" stroke="#1e293b" stroke-width="1.5"/><text x="540" y="104" font-family="monospace" font-size="13" font-weight="600" text-anchor="middle" fill="#0f172a">Draft</text><metadata data-state-node="Submitted" data-state-kind="normal" /><rect x="190" y="166" width="140" height="40" rx="8" ry="8" fill="#f6f6f6" stroke="#1e293b" stroke-width="1.5"/><text x="260" y="190" font-family="monospace" font-size="13" font-weight="600" text-anchor="middle" fill="#0f172a">Submitted</text><metadata data-state-node="Approved" data-state-kind="normal" /><rect x="470" y="180" width="140" height="40" rx="8" ry="8" fill="#f6f6f6" stroke="#1e293b" stroke-width="1.5"/><text x="540" y="204" font-family="monospace" font-size="13" font-weight="600" text-anchor="middle" fill="#0f172a">Approved</text><metadata data-state-node="Rejected" data-state-kind="normal" /><rect x="190" y="266" width="140" height="40" rx="8" ry="8" fill="#f6f6f6" stroke="#1e293b" stroke-width="1.5"/><text x="260" y="290" font-family="monospace" font-size="13" font-weight="600" text-anchor="middle" fill="#0f172a">Rejected</text><metadata data-state-node="Published" data-state-kind="normal" /><rect x="470" y="280" width="140" height="40" rx="8" ry="8" fill="#f6f6f6" stroke="#1e293b" stroke-width="1.5"/><text x="540" y="304" font-family="monospace" font-size="13" font-weight="600" text-anchor="middle" fill="#0f172a">Published</text><metadata data-state-node="[*]__end" data-state-kind="end" /><circle cx="203" cy="379" r="12" fill="#f6f6f6" stroke="#1e293b" stroke-width="2"/><circle cx="203" cy="379" r="8" fill="#0f172a"/></svg>