<svg xmlns="http://www.w3.org/2000/svg" width="480" height="434" viewBox="0 0 480 434"><rect width="100%" height="100%" fill="white"/><defs><marker id="arrow" markerWidth="8" markerHeight="8" refX="6" refY="3" orient="auto"><path d="M0,0 L0,6 L8,3 z" fill="#1e293b"/></marker></defs><polyline class="state-transition" data-state-from="[*]" data-state-to="Draft" points="56,93 56,96 310,96 310,100" fill="none" stroke="#1e293b" stroke-width="2" marker-end="url(#arrow)"/><polyline class="state-transition" data-state-from="Draft" data-state-to="Submitted" points="310,100 310,143 170,143 170,186" fill="none" stroke="#1e293b" stroke-width="2" marker-end="url(#arrow)"/><text x="268" y="139" font-family="monospace" font-size="11" fill="#0f172a" text-anchor="middle" data-state-label="submit()"><tspan x="268" y="139">submit()</tspan></text><polyline class="state-transition" data-state-from="Submitted" data-state-to="Approved" points="170,186 170,193 310,193 310,200" fill="none" stroke="#1e293b" stroke-width="2" marker-end="url(#arrow)"/><text x="230" y="205" font-family="monospace" font-size="11" fill="#0f172a" text-anchor="middle" data-state-label="approve()"><tspan x="230" y="205">approve()</tspan></text><polyline class="state-transition" data-state-from="Submitted" data-state-to="Rejected" points="100,206 100,266" fill="none" stroke="#1e293b" stroke-width="2" marker-end="url(#arrow)"/><text x="92" y="246" font-family="monospace" font-size="11" fill="#0f172a" text-anchor="middle" data-state-label="reject()"><tspan x="92" y="246">reject()</tspan></text><polyline class="state-transition" data-state-from="Approved" data-state-to="Published" points="380,220 380,280" fill="none" stroke="#1e293b" stroke-width="2" marker-end="url(#arrow)"/><text x="372" y="260" font-family="monospace" font-size="11" fill="#0f172a" text-anchor="middle" data-state-label="publish()"><tspan x="372" y="260">publish()</tspan></text><polyline class="state-transition" data-state-from="Rejected" data-state-to="Draft" points="170,286 298,286 298,100 310,100" fill="none" stroke="#1e293b" stroke-width="2" marker-end="url(#arrow)"/><text x="306" y="354" font-family="monospace" font-size="11" fill="#0f172a" text-anchor="middle" data-state-label="revise()"><tspan x="306" y="354">revise()</tspan></text><polyline class="state-transition" data-state-from="Published" data-state-to="[*]__end" points="310,300 310,339 56,339 56,379" fill="none" stroke="#1e293b" stroke-width="2" marker-end="url(#arrow)"/><metadata data-state-node="[*]" data-state-kind="start-end" /><circle cx="43" cy="93" r="12" fill="#0f172a"/><metadata data-state-node="Draft" data-state-kind="normal" /><rect x="310" y="80" width="140" height="40" rx="8" ry="8" fill="#f6f6f6" stroke="#1e293b" stroke-width="1.5"/><text x="380" y="104" font-family="monospace" font-size="13" font-weight="600" text-anchor="middle" fill="#0f172a">Draft</text><metadata data-state-node="Submitted" data-state-kind="normal" /><rect x="30" y="166" width="140" height="40" rx="8" ry="8" fill="#f6f6f6" stroke="#1e293b" stroke-width="1.5"/><text x="100" y="190" font-family="monospace" font-size="13" font-weight="600" text-anchor="middle" fill="#0f172a">Submitted</text><metadata data-state-node="Approved" data-state-kind="normal" /><rect x="310" y="180" width="140" height="40" rx="8" ry="8" fill="#f6f6f6" stroke="#1e293b" stroke-width="1.5"/><text x="380" y="204" font-family="monospace" font-size="13" font-weight="600" text-anchor="middle" fill="#0f172a">Approved</text><metadata data-state-node="Rejected" data-state-kind="normal" /><rect x="30" y="266" width="140" height="40" rx="8" ry="8" fill="#f6f6f6" stroke="#1e293b" stroke-width="1.5"/><text x="100" y="290" font-family="monospace" font-size="13" font-weight="600" text-anchor="middle" fill="#0f172a">Rejected</text><metadata data-state-node="Published" data-state-kind="normal" /><rect x="310" y="280" width="140" height="40" rx="8" ry="8" fill="#f6f6f6" stroke="#1e293b" stroke-width="1.5"/><text x="380" y="304" font-family="monospace" font-size="13" font-weight="600" text-anchor="middle" fill="#0f172a">Published</text><metadata data-state-node="[*]__end" data-state-kind="end" /><circle cx="43" cy="379" r="12" fill="#f6f6f6" stroke="#1e293b" stroke-width="2"/><circle cx="43" cy="379" r="8" fill="#0f172a"/></svg>