<svg xmlns="http://www.w3.org/2000/svg" width="460" height="250" viewBox="0 0 460 250"><rect width="100%" height="100%" fill="white"/><defs><marker id="arrow" markerWidth="8" markerHeight="8" refX="6" refY="3" orient="auto"><path d="M0,0 L0,6 L8,3 z" fill="#333"/></marker></defs><text x="40" y="28" font-family="monospace" font-size="12" fill="#475569">state diagram</text><line x1="230" y1="100" x2="170" y2="100" stroke="#333" stroke-width="1.5" marker-end="url(#arrow)"/><line x1="170" y1="100" x2="230" y2="100" stroke="#333" stroke-width="1.5" marker-end="url(#arrow)"/><rect x="30" y="80" width="220" height="56" rx="8" ry="8" fill="#f0f9ff" stroke="#0ea5e9" stroke-width="1.5"/><text x="140" y="96" font-family="monospace" font-size="12" font-weight="600" text-anchor="middle" fill="#0c4a6e">Processing</text><line x1="140" y1="104" x2="140" y2="136" stroke="#0ea5e9" stroke-width="1" stroke-dasharray="4 3"/><rect x="34" y="108" width="140" height="40" rx="8" ry="8" fill="#f8fafc" stroke="#64748b" stroke-width="1.5"/><text x="104" y="132" font-family="monospace" font-size="13" font-weight="600" text-anchor="middle" fill="#0f172a">Parsing</text><rect x="34" y="160" width="140" height="40" rx="8" ry="8" fill="#f8fafc" stroke="#64748b" stroke-width="1.5"/><text x="104" y="184" font-family="monospace" font-size="13" font-weight="600" text-anchor="middle" fill="#0f172a">Validating</text><rect x="144" y="108" width="140" height="40" rx="8" ry="8" fill="#f8fafc" stroke="#64748b" stroke-width="1.5"/><text x="214" y="132" font-family="monospace" font-size="13" font-weight="600" text-anchor="middle" fill="#0f172a">Logging</text><rect x="144" y="160" width="140" height="40" rx="8" ry="8" fill="#f8fafc" stroke="#64748b" stroke-width="1.5"/><text x="214" y="184" font-family="monospace" font-size="13" font-weight="600" text-anchor="middle" fill="#0f172a">Auditing</text><circle cx="300" cy="100" r="12" fill="#1e293b"/></svg>