<svg xmlns="http://www.w3.org/2000/svg" width="232" height="646" viewBox="0 0 232 646"><rect width="100%" height="100%" fill="white"/><defs><marker id="arrow" markerWidth="8" markerHeight="8" refX="6" refY="3" orient="auto"><path d="M0,0 L0,6 L8,3 z" fill="#1e293b"/></marker></defs><path class="state-transition" data-state-from="[*]" data-state-to="Processing" d="M 43 106 L 43 136 L 116 136 L 116 166" fill="none" stroke="#1e293b" stroke-width="2" marker-end="url(#arrow)"/><text x="65" y="148" font-family="monospace" font-size="11" fill="#0f172a" text-anchor="middle" data-state-label="start"><tspan x="65" y="148">start</tspan></text><path class="state-transition" data-state-from="Processing" data-state-to="[*]__end" d="M 116 518 L 116 548 L 43 548 L 43 578" fill="none" stroke="#1e293b" stroke-width="2" marker-end="url(#arrow)"/><text x="94" y="544" font-family="monospace" font-size="11" fill="#0f172a" text-anchor="middle" data-state-label="done"><tspan x="94" y="544">done</tspan></text><metadata data-state-node="Processing" data-state-kind="normal" /><rect x="30" y="166" width="172" height="352" rx="8" ry="8" fill="#f6f6f6" stroke="#1e293b" stroke-width="1.5"/><text x="116" y="186" font-family="monospace" font-size="13" font-weight="600" text-anchor="middle" fill="#0f172a">Processing</text><line x1="38" y1="354" x2="194" y2="354" stroke="#1e293b" stroke-width="1" stroke-dasharray="5 3"/><path class="state-transition" data-state-from="Parse" data-state-to="Validate" d="M 116 242 L 116 302" fill="none" stroke="#1e293b" stroke-width="2" marker-end="url(#arrow)"/><text x="108" y="282" font-family="monospace" font-size="11" fill="#0f172a" text-anchor="middle" data-state-label="parsed"><tspan x="108" y="282">parsed</tspan></text><path class="state-transition" data-state-from="Log" data-state-to="Audit" d="M 116 406 L 116 466" fill="none" stroke="#1e293b" stroke-width="2" marker-end="url(#arrow)"/><text x="108" y="446" font-family="monospace" font-size="11" fill="#0f172a" text-anchor="middle" data-state-label="logged"><tspan x="108" y="446">logged</tspan></text><metadata data-state-node="Parse" data-state-kind="normal" /><rect x="46" y="202" width="140" height="40" rx="8" ry="8" fill="#f6f6f6" stroke="#1e293b" stroke-width="1.5"/><text x="116" y="226" font-family="monospace" font-size="13" font-weight="600" text-anchor="middle" fill="#0f172a">Parsing</text><metadata data-state-node="Validate" data-state-kind="normal" /><rect x="46" y="302" width="140" height="40" rx="8" ry="8" fill="#f6f6f6" stroke="#1e293b" stroke-width="1.5"/><text x="116" y="326" font-family="monospace" font-size="13" font-weight="600" text-anchor="middle" fill="#0f172a">Validating</text><metadata data-state-node="Log" data-state-kind="normal" /><rect x="46" y="366" width="140" height="40" rx="8" ry="8" fill="#f6f6f6" stroke="#1e293b" stroke-width="1.5"/><text x="116" y="390" font-family="monospace" font-size="13" font-weight="600" text-anchor="middle" fill="#0f172a">Logging</text><metadata data-state-node="Audit" data-state-kind="normal" /><rect x="46" y="466" width="140" height="40" rx="8" ry="8" fill="#f6f6f6" stroke="#1e293b" stroke-width="1.5"/><text x="116" y="490" font-family="monospace" font-size="13" font-weight="600" text-anchor="middle" fill="#0f172a">Auditing</text><metadata data-state-node="[*]" data-state-kind="start-end" /><circle cx="43" cy="93" r="12" fill="#0f172a"/><metadata data-state-node="[*]__end" data-state-kind="end" /><circle cx="43" cy="591" r="12" fill="#f6f6f6" stroke="#1e293b" stroke-width="2"/><circle cx="43" cy="591" r="8" fill="#0f172a"/></svg>