<svg xmlns="http://www.w3.org/2000/svg" width="366" height="448" viewBox="0 0 366 448"><rect width="100%" height="100%" fill="white"/><defs><marker id="arrow" markerWidth="8" markerHeight="8" refX="6" refY="3" orient="auto"><path d="M0,0 L0,6 L8,3 z" fill="#1e293b"/></marker></defs><path class="state-transition" data-state-from="[*]" data-state-to="Processing" d="M 318 99 Q 264 177 210 255" fill="none" stroke="#1e293b" stroke-width="2" marker-end="url(#arrow)"/><path class="state-transition" data-state-from="Processing" data-state-to="[*]" d="M 194 243 Q 248 165 302 87" fill="none" stroke="#1e293b" stroke-width="2" marker-end="url(#arrow)"/><metadata data-state-node="Processing" data-state-kind="normal" /><rect x="30" y="80" width="172" height="338" rx="8" ry="8" fill="#f6f6f6" stroke="#1e293b" stroke-width="1.5"/><text x="116" y="100" font-family="monospace" font-size="13" font-weight="600" text-anchor="middle" fill="#0f172a">Processing</text><line x1="34" y1="261" x2="198" y2="261" stroke="#1e293b" stroke-width="1" stroke-dasharray="5 3"/><metadata data-state-node="Parse" data-state-kind="normal" /><rect x="46" y="116" width="140" height="40" rx="8" ry="8" fill="#f6f6f6" stroke="#1e293b" stroke-width="1.5"/><text x="116" y="140" font-family="monospace" font-size="13" font-weight="600" text-anchor="middle" fill="#0f172a">Parsing</text><metadata data-state-node="Validate" data-state-kind="normal" /><rect x="46" y="216" width="140" height="40" rx="8" ry="8" fill="#f6f6f6" stroke="#1e293b" stroke-width="1.5"/><text x="116" y="240" font-family="monospace" font-size="13" font-weight="600" text-anchor="middle" fill="#0f172a">Validating</text><metadata data-state-node="Log" data-state-kind="normal" /><rect x="46" y="266" width="140" height="40" rx="8" ry="8" fill="#f6f6f6" stroke="#1e293b" stroke-width="1.5"/><text x="116" y="290" font-family="monospace" font-size="13" font-weight="600" text-anchor="middle" fill="#0f172a">Logging</text><metadata data-state-node="Audit" data-state-kind="normal" /><rect x="46" y="366" width="140" height="40" rx="8" ry="8" fill="#f6f6f6" stroke="#1e293b" stroke-width="1.5"/><text x="116" y="390" font-family="monospace" font-size="13" font-weight="600" text-anchor="middle" fill="#0f172a">Auditing</text><metadata data-state-node="[*]" data-state-kind="start-end" /><circle cx="323" cy="93" r="12" fill="#0f172a"/></svg>