<svg xmlns="http://www.w3.org/2000/svg" width="290" height="646" viewBox="0 0 290 646"><rect width="100%" height="100%" fill="white"/><defs><marker id="arrow" markerWidth="8" markerHeight="8" refX="6" refY="3" orient="auto"><path d="M0,0 L0,6 L8,3 z" fill="#1e293b"/></marker></defs><path class="state-transition" data-state-from="[*]" data-state-to="Processing" d="M 101 106 L 101 136 L 174 136 L 174 166" fill="none" stroke="#1e293b" stroke-width="2" marker-end="url(#arrow)"/><text x="47" y="158" font-family="monospace" font-size="11" fill="#0f172a" text-anchor="middle" data-state-label="start"><tspan x="47" y="158">start</tspan></text><path class="state-transition" data-state-from="Processing" data-state-to="[*]__end" d="M 174 518 L 174 548 L 101 548 L 101 578" fill="none" stroke="#1e293b" stroke-width="2" marker-end="url(#arrow)"/><text x="56" y="534" font-family="monospace" font-size="11" fill="#0f172a" text-anchor="middle" data-state-label="done"><tspan x="56" y="534">done</tspan></text><metadata data-state-node="Processing" data-state-kind="normal" /><rect x="88" y="166" width="172" height="352" rx="8" ry="8" fill="#f6f6f6" stroke="#1e293b" stroke-width="1.5"/><text x="174" y="186" font-family="monospace" font-size="13" font-weight="600" text-anchor="middle" fill="#0f172a">Processing</text><line x1="96" y1="354" x2="252" y2="354" stroke="#1e293b" stroke-width="1" stroke-dasharray="5 3"/><path class="state-transition" data-state-from="Parse" data-state-to="Validate" d="M 174 242 L 174 302" fill="none" stroke="#1e293b" stroke-width="2" marker-end="url(#arrow)"/><text x="145" y="282" font-family="monospace" font-size="11" fill="#0f172a" text-anchor="middle" data-state-label="parsed"><tspan x="145" y="282">parsed</tspan></text><path class="state-transition" data-state-from="Log" data-state-to="Audit" d="M 174 406 L 174 466" fill="none" stroke="#1e293b" stroke-width="2" marker-end="url(#arrow)"/><text x="145" y="446" font-family="monospace" font-size="11" fill="#0f172a" text-anchor="middle" data-state-label="logged"><tspan x="145" y="446">logged</tspan></text><metadata data-state-node="Parse" data-state-kind="normal" /><rect x="104" y="202" width="140" height="40" rx="8" ry="8" fill="#f6f6f6" stroke="#1e293b" stroke-width="1.5"/><text x="174" y="226" font-family="monospace" font-size="13" font-weight="600" text-anchor="middle" fill="#0f172a">Parsing</text><metadata data-state-node="Validate" data-state-kind="normal" /><rect x="104" y="302" width="140" height="40" rx="8" ry="8" fill="#f6f6f6" stroke="#1e293b" stroke-width="1.5"/><text x="174" y="326" font-family="monospace" font-size="13" font-weight="600" text-anchor="middle" fill="#0f172a">Validating</text><metadata data-state-node="Log" data-state-kind="normal" /><rect x="104" y="366" width="140" height="40" rx="8" ry="8" fill="#f6f6f6" stroke="#1e293b" stroke-width="1.5"/><text x="174" y="390" font-family="monospace" font-size="13" font-weight="600" text-anchor="middle" fill="#0f172a">Logging</text><metadata data-state-node="Audit" data-state-kind="normal" /><rect x="104" y="466" width="140" height="40" rx="8" ry="8" fill="#f6f6f6" stroke="#1e293b" stroke-width="1.5"/><text x="174" y="490" font-family="monospace" font-size="13" font-weight="600" text-anchor="middle" fill="#0f172a">Auditing</text><metadata data-state-node="[*]" data-state-kind="start-end" /><circle cx="101" cy="93" r="12" fill="#0f172a"/><metadata data-state-node="[*]__end" data-state-kind="end" /><circle cx="101" cy="591" r="12" fill="#f6f6f6" stroke="#1e293b" stroke-width="2"/><circle cx="101" cy="591" r="8" fill="#0f172a"/></svg>