<svg xmlns="http://www.w3.org/2000/svg" width="232" height="620" viewBox="0 0 232 620"><rect width="100%" height="100%" fill="white"/><defs><marker id="arrow" markerWidth="8" markerHeight="8" refX="6" refY="3" orient="auto"><path d="M0,0 L0,6 L8,3 z" fill="#1e293b"/></marker></defs><line class="state-transition" data-state-from="[*]" data-state-to="Processing" x1="43" y1="106" x2="116" y2="166" stroke="#1e293b" stroke-width="2" marker-end="url(#arrow)"/><line class="state-transition" data-state-from="Processing" data-state-to="[*]__end" x1="116" y1="504" x2="43" y2="564" stroke="#1e293b" stroke-width="2" marker-end="url(#arrow)"/><metadata data-state-node="Processing" data-state-kind="normal" /><rect x="30" y="166" width="172" height="338" rx="8" ry="8" fill="#f6f6f6" stroke="#1e293b" stroke-width="1.5"/><text x="116" y="186" font-family="monospace" font-size="13" font-weight="600" text-anchor="middle" fill="#0f172a">Processing</text><line x1="34" y1="347" x2="198" y2="347" stroke="#1e293b" stroke-width="1" stroke-dasharray="5 3"/><metadata data-state-node="Parse" data-state-kind="normal" /><rect x="46" y="202" width="140" height="40" rx="8" ry="8" fill="#f6f6f6" stroke="#1e293b" stroke-width="1.5"/><text x="116" y="226" font-family="monospace" font-size="13" font-weight="600" text-anchor="middle" fill="#0f172a">Parsing</text><metadata data-state-node="Validate" data-state-kind="normal" /><rect x="46" y="302" width="140" height="40" rx="8" ry="8" fill="#f6f6f6" stroke="#1e293b" stroke-width="1.5"/><text x="116" y="326" font-family="monospace" font-size="13" font-weight="600" text-anchor="middle" fill="#0f172a">Validating</text><metadata data-state-node="Log" data-state-kind="normal" /><rect x="46" y="352" width="140" height="40" rx="8" ry="8" fill="#f6f6f6" stroke="#1e293b" stroke-width="1.5"/><text x="116" y="376" font-family="monospace" font-size="13" font-weight="600" text-anchor="middle" fill="#0f172a">Logging</text><metadata data-state-node="Audit" data-state-kind="normal" /><rect x="46" y="452" width="140" height="40" rx="8" ry="8" fill="#f6f6f6" stroke="#1e293b" stroke-width="1.5"/><text x="116" y="476" font-family="monospace" font-size="13" font-weight="600" text-anchor="middle" fill="#0f172a">Auditing</text><metadata data-state-node="[*]" data-state-kind="start-end" /><circle cx="43" cy="93" r="12" fill="#0f172a"/><metadata data-state-node="[*]__end" data-state-kind="end" /><circle cx="43" cy="577" r="12" fill="#f6f6f6" stroke="#1e293b" stroke-width="2"/><circle cx="43" cy="577" r="8" fill="#0f172a"/></svg>