<svg xmlns="http://www.w3.org/2000/svg" width="232" height="1203" viewBox="0 0 232 1203"><rect width="100%" height="100%" fill="white"/><defs><marker id="arrow" markerWidth="8" markerHeight="8" refX="6" refY="3" orient="auto"><path d="M0,0 L0,6 L8,3 z" fill="#1e293b"/></marker></defs><path class="state-transition" data-state-from="[*]" data-state-to="Active" d="M 43 106 L 43 444 L 100 444 L 100 782" fill="none" stroke="#1e293b" stroke-width="2" marker-end="url(#arrow)"/><path class="state-transition" data-state-from="Active" data-state-to="[H]" d="M 100 822 L 100 852 L 47 852 L 47 882" fill="none" stroke="#1e293b" stroke-width="2" marker-end="url(#arrow)"/><path class="state-transition" data-state-from="[H]" data-state-to="Running" d="M 47 916 L 47 946 L 100 946 L 100 976" fill="none" stroke="#1e293b" stroke-width="2" marker-end="url(#arrow)"/><path class="state-transition" data-state-from="[H*]" data-state-to="Paused" d="M 47 200 L 47 638 L 100 638 L 100 1076" fill="none" stroke="#1e293b" stroke-width="2" marker-end="url(#arrow)"/><path class="state-transition" data-state-from="Running" data-state-to="Paused" d="M 110 1016 Q 110 1046 110 1076" fill="none" stroke="#1e293b" stroke-width="2" marker-end="url(#arrow)"/><text x="85" y="1056" font-family="monospace" font-size="11" fill="#0f172a" text-anchor="middle" data-state-label="pause"><tspan x="85" y="1056">pause</tspan></text><path class="state-transition" data-state-from="Paused" data-state-to="Running" d="M 90 1076 Q 90 1046 90 1016" fill="none" stroke="#1e293b" stroke-width="2" marker-end="url(#arrow)"/><text x="119" y="1158" font-family="monospace" font-size="11" fill="#0f172a" text-anchor="middle" data-state-label="resume"><tspan x="119" y="1158">resume</tspan></text><path class="state-transition" data-state-from="Running" data-state-to="Session[H]" d="M 100 976 L 108 976 L 108 710 L 116 710" fill="none" stroke="#1e293b" stroke-width="2" marker-end="url(#arrow)"/><text x="137" y="900" font-family="monospace" font-size="11" fill="#0f172a" text-anchor="middle" data-state-label="reopen"><tspan x="137" y="900">reopen</tspan></text><path class="state-transition" data-state-from="Session[H*]" data-state-to="Active" d="M 116 616 L 116 699 L 100 699 L 100 782" fill="none" stroke="#1e293b" stroke-width="2" marker-end="url(#arrow)"/><text x="68" y="746" font-family="monospace" font-size="11" fill="#0f172a" text-anchor="middle" data-state-label="recover"><tspan x="68" y="746">recover</tspan></text><metadata data-state-node="[*]" data-state-kind="start-end" /><circle cx="43" cy="93" r="12" fill="#0f172a"/><metadata data-state-node="Active" data-state-kind="normal" /><rect x="30" y="782" width="140" height="40" rx="8" ry="8" fill="#f6f6f6" stroke="#1e293b" stroke-width="1.5"/><text x="100" y="806" font-family="monospace" font-size="13" font-weight="600" text-anchor="middle" fill="#0f172a">Active</text><metadata data-state-node="[H]" data-state-kind="history-shallow" /><circle cx="47" cy="899" r="16" fill="#f6f6f6" stroke="#1e293b" stroke-width="2"/><text x="47" y="899" font-family="monospace" font-size="13" font-weight="600" text-anchor="middle" dominant-baseline="middle" fill="#0f172a">H</text><metadata data-state-node="Running" data-state-kind="normal" /><rect x="30" y="976" width="140" height="40" rx="8" ry="8" fill="#f6f6f6" stroke="#1e293b" stroke-width="1.5"/><text x="100" y="1000" font-family="monospace" font-size="13" font-weight="600" text-anchor="middle" fill="#0f172a">Running</text><metadata data-state-node="[H*]" data-state-kind="history-deep" /><circle cx="47" cy="183" r="16" fill="#f6f6f6" stroke="#1e293b" stroke-width="2"/><text x="47" y="183" font-family="monospace" font-size="13" font-weight="600" text-anchor="middle" dominant-baseline="middle" fill="#0f172a">H*</text><metadata data-state-node="Paused" data-state-kind="normal" /><rect x="30" y="1076" width="140" height="40" rx="8" ry="8" fill="#f6f6f6" stroke="#1e293b" stroke-width="1.5"/><text x="100" y="1100" font-family="monospace" font-size="13" font-weight="600" text-anchor="middle" fill="#0f172a">Paused</text><metadata data-state-node="Session" data-state-kind="normal" /><rect x="30" y="260" width="172" height="462" rx="8" ry="8" fill="#f6f6f6" stroke="#1e293b" stroke-width="1.5"/><text x="116" y="280" font-family="monospace" font-size="13" font-weight="600" text-anchor="middle" fill="#0f172a">Session</text><path class="state-transition" data-state-from="[*]__in__Session__r0" data-state-to="Idle" d="M 116 322 L 116 382" fill="none" stroke="#1e293b" stroke-width="2" marker-end="url(#arrow)"/><path class="state-transition" data-state-from="Idle" data-state-to="Busy" d="M 116 422 L 116 482" fill="none" stroke="#1e293b" stroke-width="2" marker-end="url(#arrow)"/><metadata data-state-node="[*]__in__Session__r0" data-state-kind="start-end" /><circle cx="116" cy="309" r="12" fill="#0f172a"/><metadata data-state-node="Idle" data-state-kind="normal" /><rect x="46" y="382" width="140" height="40" rx="8" ry="8" fill="#f6f6f6" stroke="#1e293b" stroke-width="1.5"/><text x="116" y="406" font-family="monospace" font-size="13" font-weight="600" text-anchor="middle" fill="#0f172a">Idle</text><metadata data-state-node="Busy" data-state-kind="normal" /><rect x="46" y="482" width="140" height="40" rx="8" ry="8" fill="#f6f6f6" stroke="#1e293b" stroke-width="1.5"/><text x="116" y="506" font-family="monospace" font-size="13" font-weight="600" text-anchor="middle" fill="#0f172a">Busy</text><metadata data-state-node="Session[H*]" data-state-kind="history-deep" /><circle cx="116" cy="599" r="16" fill="#f6f6f6" stroke="#1e293b" stroke-width="2"/><text x="116" y="599" font-family="monospace" font-size="13" font-weight="600" text-anchor="middle" dominant-baseline="middle" fill="#0f172a">H*</text><metadata data-state-node="Session[H]" data-state-kind="history-shallow" /><circle cx="116" cy="693" r="16" fill="#f6f6f6" stroke="#1e293b" stroke-width="2"/><text x="116" y="693" font-family="monospace" font-size="13" font-weight="600" text-anchor="middle" dominant-baseline="middle" fill="#0f172a">H</text></svg>