<svg xmlns="http://www.w3.org/2000/svg" width="295" height="1203" viewBox="0 0 295 1203"><rect width="100%" height="100%" fill="white"/><defs><marker id="arrow" markerWidth="8" markerHeight="8" refX="6" refY="3" orient="auto"><path d="M0,0 L0,6 L8,3 z" fill="#1e293b"/></marker></defs><path class="state-transition" data-state-from="[*]" data-state-to="Active" d="M 106 106 L 106 444 L 163 444 L 163 782" fill="none" stroke="#1e293b" stroke-width="2" marker-end="url(#arrow)"/><path class="state-transition" data-state-from="Active" data-state-to="[H]" d="M 163 822 L 163 852 L 110 852 L 110 882" fill="none" stroke="#1e293b" stroke-width="2" marker-end="url(#arrow)"/><path class="state-transition" data-state-from="[H]" data-state-to="Running" d="M 110 916 L 110 946 L 163 946 L 163 976" fill="none" stroke="#1e293b" stroke-width="2" marker-end="url(#arrow)"/><path class="state-transition" data-state-from="[H*]" data-state-to="Paused" d="M 110 200 L 110 638 L 163 638 L 163 1076" fill="none" stroke="#1e293b" stroke-width="2" marker-end="url(#arrow)"/><path class="state-transition" data-state-from="Running" data-state-to="Paused" d="M 173 1016 Q 173 1046 173 1076" fill="none" stroke="#1e293b" stroke-width="2" marker-end="url(#arrow)"/><text x="165" y="1056" font-family="monospace" font-size="11" fill="#0f172a" text-anchor="middle" data-state-label="pause"><tspan x="165" y="1056">pause</tspan></text><path class="state-transition" data-state-from="Paused" data-state-to="Running" d="M 153 1076 Q 153 1046 153 1016" fill="none" stroke="#1e293b" stroke-width="2" marker-end="url(#arrow)"/><text x="161" y="1158" font-family="monospace" font-size="11" fill="#0f172a" text-anchor="middle" data-state-label="resume"><tspan x="161" y="1158">resume</tspan></text><path class="state-transition" data-state-from="Running" data-state-to="Session[H]" d="M 163 976 L 171 976 L 171 710 L 179 710" fill="none" stroke="#1e293b" stroke-width="2" marker-end="url(#arrow)"/><text x="179" y="900" font-family="monospace" font-size="11" fill="#0f172a" text-anchor="middle" data-state-label="reopen"><tspan x="179" y="900">reopen</tspan></text><path class="state-transition" data-state-from="Session[H*]" data-state-to="Active" d="M 179 616 L 179 699 L 163 699 L 163 782" fill="none" stroke="#1e293b" stroke-width="2" marker-end="url(#arrow)"/><text x="54" y="695" font-family="monospace" font-size="11" fill="#0f172a" text-anchor="middle" data-state-label="recover"><tspan x="54" y="695">recover</tspan></text><metadata data-state-node="[*]" data-state-kind="start-end" /><circle cx="106" cy="93" r="12" fill="#0f172a"/><metadata data-state-node="Active" data-state-kind="normal" /><rect x="93" y="782" width="140" height="40" rx="8" ry="8" fill="#f6f6f6" stroke="#1e293b" stroke-width="1.5"/><text x="163" y="806" font-family="monospace" font-size="13" font-weight="600" text-anchor="middle" fill="#0f172a">Active</text><metadata data-state-node="[H]" data-state-kind="history-shallow" /><circle cx="110" cy="899" r="16" fill="#f6f6f6" stroke="#1e293b" stroke-width="2"/><text x="110" y="899" font-family="monospace" font-size="13" font-weight="600" text-anchor="middle" dominant-baseline="middle" fill="#0f172a">H</text><metadata data-state-node="Running" data-state-kind="normal" /><rect x="93" y="976" width="140" height="40" rx="8" ry="8" fill="#f6f6f6" stroke="#1e293b" stroke-width="1.5"/><text x="163" y="1000" font-family="monospace" font-size="13" font-weight="600" text-anchor="middle" fill="#0f172a">Running</text><metadata data-state-node="[H*]" data-state-kind="history-deep" /><circle cx="110" cy="183" r="16" fill="#f6f6f6" stroke="#1e293b" stroke-width="2"/><text x="110" y="183" font-family="monospace" font-size="13" font-weight="600" text-anchor="middle" dominant-baseline="middle" fill="#0f172a">H*</text><metadata data-state-node="Paused" data-state-kind="normal" /><rect x="93" y="1076" width="140" height="40" rx="8" ry="8" fill="#f6f6f6" stroke="#1e293b" stroke-width="1.5"/><text x="163" y="1100" font-family="monospace" font-size="13" font-weight="600" text-anchor="middle" fill="#0f172a">Paused</text><metadata data-state-node="Session" data-state-kind="normal" /><rect x="93" y="260" width="172" height="462" rx="8" ry="8" fill="#f6f6f6" stroke="#1e293b" stroke-width="1.5"/><text x="179" y="280" font-family="monospace" font-size="13" font-weight="600" text-anchor="middle" fill="#0f172a">Session</text><path class="state-transition" data-state-from="[*]__in__Session__r0" data-state-to="Idle" d="M 179 322 L 179 382" fill="none" stroke="#1e293b" stroke-width="2" marker-end="url(#arrow)"/><path class="state-transition" data-state-from="Idle" data-state-to="Busy" d="M 179 422 L 179 482" fill="none" stroke="#1e293b" stroke-width="2" marker-end="url(#arrow)"/><metadata data-state-node="[*]__in__Session__r0" data-state-kind="start-end" /><circle cx="179" cy="309" r="12" fill="#0f172a"/><metadata data-state-node="Idle" data-state-kind="normal" /><rect x="109" y="382" width="140" height="40" rx="8" ry="8" fill="#f6f6f6" stroke="#1e293b" stroke-width="1.5"/><text x="179" y="406" font-family="monospace" font-size="13" font-weight="600" text-anchor="middle" fill="#0f172a">Idle</text><metadata data-state-node="Busy" data-state-kind="normal" /><rect x="109" y="482" width="140" height="40" rx="8" ry="8" fill="#f6f6f6" stroke="#1e293b" stroke-width="1.5"/><text x="179" y="506" font-family="monospace" font-size="13" font-weight="600" text-anchor="middle" fill="#0f172a">Busy</text><metadata data-state-node="Session[H*]" data-state-kind="history-deep" /><circle cx="179" cy="599" r="16" fill="#f6f6f6" stroke="#1e293b" stroke-width="2"/><text x="179" y="599" font-family="monospace" font-size="13" font-weight="600" text-anchor="middle" dominant-baseline="middle" fill="#0f172a">H*</text><metadata data-state-node="Session[H]" data-state-kind="history-shallow" /><circle cx="179" cy="693" r="16" fill="#f6f6f6" stroke="#1e293b" stroke-width="2"/><text x="179" y="693" font-family="monospace" font-size="13" font-weight="600" text-anchor="middle" dominant-baseline="middle" fill="#0f172a">H</text></svg>