<svg xmlns="http://www.w3.org/2000/svg" width="295" height="1158" viewBox="0 0 295 1158"><rect width="100%" height="100%" fill="white"/><defs><marker id="arrow" markerWidth="8" markerHeight="8" refX="6" refY="3" orient="auto"><path d="M0,0 L0,6 L8,3 z" fill="#1e293b"/></marker></defs><polyline class="state-transition" data-state-from="[*]" data-state-to="Active" points="106,106 106,444 163,444 163,782" fill="none" stroke="#1e293b" stroke-width="2" marker-end="url(#arrow)"/><polyline class="state-transition" data-state-from="Active" data-state-to="[H]" points="163,822 163,852 110,852 110,882" fill="none" stroke="#1e293b" stroke-width="2" marker-end="url(#arrow)"/><polyline class="state-transition" data-state-from="[H]" data-state-to="Running" points="110,916 110,946 163,946 163,976" fill="none" stroke="#1e293b" stroke-width="2" marker-end="url(#arrow)"/><polyline class="state-transition" data-state-from="[H*]" data-state-to="Paused" points="110,200 110,638 163,638 163,1076" fill="none" stroke="#1e293b" stroke-width="2" marker-end="url(#arrow)"/><path class="state-transition" data-state-from="Running" data-state-to="Paused" d="M 203 1016 Q 203 1046 203 1076" fill="none" stroke="#1e293b" stroke-width="2" marker-end="url(#arrow)"/><text x="195" y="1056" font-family="monospace" font-size="11" fill="#0f172a" text-anchor="middle" data-state-label="pause"><tspan x="195" y="1056">pause</tspan></text><path class="state-transition" data-state-from="Paused" data-state-to="Running" d="M 123 1076 Q 123 1046 123 1016" fill="none" stroke="#1e293b" stroke-width="2" marker-end="url(#arrow)"/><text x="131" y="1044" font-family="monospace" font-size="11" fill="#0f172a" text-anchor="middle" data-state-label="resume"><tspan x="131" y="1044">resume</tspan></text><polyline class="state-transition" data-state-from="Running" data-state-to="Session[H]" points="163,976 171,976 171,710 179,710" fill="none" stroke="#1e293b" stroke-width="2" marker-end="url(#arrow)"/><text x="179" y="900" font-family="monospace" font-size="11" fill="#0f172a" text-anchor="middle" data-state-label="reopen"><tspan x="179" y="900">reopen</tspan></text><polyline class="state-transition" data-state-from="Session[H*]" data-state-to="Active" points="179,616 179,699 163,699 163,782" fill="none" stroke="#1e293b" stroke-width="2" marker-end="url(#arrow)"/><text x="54" y="695" font-family="monospace" font-size="11" fill="#0f172a" text-anchor="middle" data-state-label="recover"><tspan x="54" y="695">recover</tspan></text><metadata data-state-node="[*]" data-state-kind="start-end" /><circle cx="106" cy="93" r="12" fill="#0f172a"/><metadata data-state-node="Active" data-state-kind="normal" /><rect x="93" y="782" width="140" height="40" rx="8" ry="8" fill="#f6f6f6" stroke="#1e293b" stroke-width="1.5"/><text x="163" y="806" font-family="monospace" font-size="13" font-weight="600" text-anchor="middle" fill="#0f172a">Active</text><metadata data-state-node="[H]" data-state-kind="history-shallow" /><circle cx="110" cy="899" r="16" fill="#f6f6f6" stroke="#1e293b" stroke-width="2"/><text x="110" y="899" font-family="monospace" font-size="13" font-weight="600" text-anchor="middle" dominant-baseline="middle" fill="#0f172a">H</text><metadata data-state-node="Running" data-state-kind="normal" /><rect x="93" y="976" width="140" height="40" rx="8" ry="8" fill="#f6f6f6" stroke="#1e293b" stroke-width="1.5"/><text x="163" y="1000" font-family="monospace" font-size="13" font-weight="600" text-anchor="middle" fill="#0f172a">Running</text><metadata data-state-node="[H*]" data-state-kind="history-deep" /><circle cx="110" cy="183" r="16" fill="#f6f6f6" stroke="#1e293b" stroke-width="2"/><text x="110" y="183" font-family="monospace" font-size="13" font-weight="600" text-anchor="middle" dominant-baseline="middle" fill="#0f172a">H*</text><metadata data-state-node="Paused" data-state-kind="normal" /><rect x="93" y="1076" width="140" height="40" rx="8" ry="8" fill="#f6f6f6" stroke="#1e293b" stroke-width="1.5"/><text x="163" y="1100" font-family="monospace" font-size="13" font-weight="600" text-anchor="middle" fill="#0f172a">Paused</text><metadata data-state-node="Session" data-state-kind="normal" /><rect x="93" y="260" width="172" height="462" rx="8" ry="8" fill="#f6f6f6" stroke="#1e293b" stroke-width="1.5"/><text x="179" y="280" font-family="monospace" font-size="13" font-weight="600" text-anchor="middle" fill="#0f172a">Session</text><polyline class="state-transition" data-state-from="[*]__in__Session__r0" data-state-to="Idle" points="179,322 179,382" fill="none" stroke="#1e293b" stroke-width="2" marker-end="url(#arrow)"/><polyline class="state-transition" data-state-from="Idle" data-state-to="Busy" points="179,422 179,482" fill="none" stroke="#1e293b" stroke-width="2" marker-end="url(#arrow)"/><metadata data-state-node="[*]__in__Session__r0" data-state-kind="start-end" /><circle cx="179" cy="309" r="12" fill="#0f172a"/><metadata data-state-node="Idle" data-state-kind="normal" /><rect x="109" y="382" width="140" height="40" rx="8" ry="8" fill="#f6f6f6" stroke="#1e293b" stroke-width="1.5"/><text x="179" y="406" font-family="monospace" font-size="13" font-weight="600" text-anchor="middle" fill="#0f172a">Idle</text><metadata data-state-node="Busy" data-state-kind="normal" /><rect x="109" y="482" width="140" height="40" rx="8" ry="8" fill="#f6f6f6" stroke="#1e293b" stroke-width="1.5"/><text x="179" y="506" font-family="monospace" font-size="13" font-weight="600" text-anchor="middle" fill="#0f172a">Busy</text><metadata data-state-node="Session[H*]" data-state-kind="history-deep" /><circle cx="179" cy="599" r="16" fill="#f6f6f6" stroke="#1e293b" stroke-width="2"/><text x="179" y="599" font-family="monospace" font-size="13" font-weight="600" text-anchor="middle" dominant-baseline="middle" fill="#0f172a">H*</text><metadata data-state-node="Session[H]" data-state-kind="history-shallow" /><circle cx="179" cy="693" r="16" fill="#f6f6f6" stroke="#1e293b" stroke-width="2"/><text x="179" y="693" font-family="monospace" font-size="13" font-weight="600" text-anchor="middle" dominant-baseline="middle" fill="#0f172a">H</text></svg>