<svg xmlns="http://www.w3.org/2000/svg" width="480" height="350" viewBox="0 0 480 350"><rect width="100%" height="100%" fill="white"/><defs><marker id="arrow" markerWidth="8" markerHeight="8" refX="6" refY="3" orient="auto"><path d="M0,0 L0,6 L8,3 z" fill="#1e293b"/></marker></defs><line class="state-transition" data-state-from="[*]" data-state-to="Active" x1="43" y1="106" x2="100" y2="166" stroke="#1e293b" stroke-width="2" marker-end="url(#arrow)"/><line class="state-transition" data-state-from="Active" data-state-to="[H]" x1="170" y1="186" x2="310" y2="191" stroke="#1e293b" stroke-width="2" marker-end="url(#arrow)"/><line class="state-transition" data-state-from="[H]" data-state-to="Running" x1="310" y1="191" x2="170" y2="286" stroke="#1e293b" stroke-width="2" marker-end="url(#arrow)"/><line class="state-transition" data-state-from="[H*]" data-state-to="Paused" x1="327" y1="114" x2="380" y2="268" stroke="#1e293b" stroke-width="2" marker-end="url(#arrow)"/><path class="state-transition" data-state-from="Running" data-state-to="Paused" d="M 170 276 Q 240 277 310 278" fill="none" stroke="#1e293b" stroke-width="2" marker-end="url(#arrow)"/><text x="212" y="299" font-family="monospace" font-size="11" fill="#0f172a" text-anchor="middle" data-state-label="pause"><tspan x="212" y="299">pause</tspan></text><path class="state-transition" data-state-from="Paused" data-state-to="Running" d="M 310 298 Q 240 297 170 296" fill="none" stroke="#1e293b" stroke-width="2" marker-end="url(#arrow)"/><text x="268" y="283" font-family="monospace" font-size="11" fill="#0f172a" text-anchor="middle" data-state-label="resume"><tspan x="268" y="283">resume</tspan></text><metadata data-state-node="[*]" data-state-kind="start-end" /><circle cx="43" cy="93" r="12" fill="#0f172a"/><metadata data-state-node="Active" data-state-kind="normal" /><rect x="30" y="166" width="140" height="40" rx="8" ry="8" fill="#f6f6f6" stroke="#1e293b" stroke-width="1.5"/><text x="100" y="190" font-family="monospace" font-size="13" font-weight="600" text-anchor="middle" fill="#0f172a">Active</text><metadata data-state-node="[H]" data-state-kind="history-shallow" /><circle cx="327" cy="191" r="16" fill="#f6f6f6" stroke="#1e293b" stroke-width="2"/><text x="327" y="191" font-family="monospace" font-size="13" font-weight="600" text-anchor="middle" dominant-baseline="middle" fill="#0f172a">H</text><metadata data-state-node="Running" data-state-kind="normal" /><rect x="30" y="266" width="140" height="40" rx="8" ry="8" fill="#f6f6f6" stroke="#1e293b" stroke-width="1.5"/><text x="100" y="290" font-family="monospace" font-size="13" font-weight="600" text-anchor="middle" fill="#0f172a">Running</text><metadata data-state-node="[H*]" data-state-kind="history-deep" /><circle cx="327" cy="97" r="16" fill="#f6f6f6" stroke="#1e293b" stroke-width="2"/><text x="327" y="97" font-family="monospace" font-size="13" font-weight="600" text-anchor="middle" dominant-baseline="middle" fill="#0f172a">H*</text><metadata data-state-node="Paused" data-state-kind="normal" /><rect x="310" y="268" width="140" height="40" rx="8" ry="8" fill="#f6f6f6" stroke="#1e293b" stroke-width="1.5"/><text x="380" y="292" font-family="monospace" font-size="13" font-weight="600" text-anchor="middle" fill="#0f172a">Paused</text></svg>