<svg xmlns="http://www.w3.org/2000/svg" width="232" height="751" viewBox="0 0 232 751"><rect width="100%" height="100%" fill="white"/><defs><marker id="arrow" markerWidth="8" markerHeight="8" refX="6" refY="3" orient="auto"><path d="M0,0 L0,6 L8,3 z" fill="#1e293b"/></marker></defs><path class="state-transition" data-state-from="[*]" data-state-to="Playing" d="M 43 106 L 43 136 L 116 136 L 116 166" fill="none" stroke="#1e293b" stroke-width="2" marker-end="url(#arrow)"/><path class="state-transition" data-state-from="Playing" data-state-to="Stopped" d="M 126 545 Q 118 575 110 605" fill="none" stroke="#1e293b" stroke-width="2" marker-end="url(#arrow)"/><text x="99" y="580" font-family="monospace" font-size="11" fill="#0f172a" text-anchor="middle" data-state-label="stop"><tspan x="99" y="580">stop</tspan></text><path class="state-transition" data-state-from="Stopped" data-state-to="Playing" d="M 90 599 Q 98 569 106 539" fill="none" stroke="#1e293b" stroke-width="2" marker-end="url(#arrow)"/><text x="87" y="682" font-family="monospace" font-size="11" fill="#0f172a" text-anchor="middle" data-state-label="play"><tspan x="87" y="682">play</tspan></text><metadata data-state-node="[*]" data-state-kind="start-end" /><circle cx="43" cy="93" r="12" fill="#0f172a"/><metadata data-state-node="Playing" data-state-kind="normal" /><rect x="30" y="166" width="172" height="376" rx="8" ry="8" fill="#f6f6f6" stroke="#1e293b" stroke-width="1.5"/><text x="116" y="186" font-family="monospace" font-size="13" font-weight="600" text-anchor="middle" fill="#0f172a">Playing</text><path class="state-transition" data-state-from="Running" data-state-to="Paused" d="M 126 430 Q 126 460 126 490" fill="none" stroke="#1e293b" stroke-width="2" marker-end="url(#arrow)"/><text x="54" y="572" font-family="monospace" font-size="11" fill="#0f172a" text-anchor="middle" data-state-label="pause"><tspan x="54" y="572">pause</tspan></text><path class="state-transition" data-state-from="Paused" data-state-to="Running" d="M 106 490 Q 106 460 106 430" fill="none" stroke="#1e293b" stroke-width="2" marker-end="url(#arrow)"/><text x="148" y="572" font-family="monospace" font-size="11" fill="#0f172a" text-anchor="middle" data-state-label="resume"><tspan x="148" y="572">resume</tspan></text><metadata data-state-node="[H]" data-state-kind="history-shallow" /><circle cx="116" cy="219" r="16" fill="#f6f6f6" stroke="#1e293b" stroke-width="2"/><text x="116" y="219" font-family="monospace" font-size="13" font-weight="600" text-anchor="middle" dominant-baseline="middle" fill="#0f172a">H</text><metadata data-state-node="[H*]" data-state-kind="history-deep" /><circle cx="116" cy="313" r="16" fill="#f6f6f6" stroke="#1e293b" stroke-width="2"/><text x="116" y="313" font-family="monospace" font-size="13" font-weight="600" text-anchor="middle" dominant-baseline="middle" fill="#0f172a">H*</text><metadata data-state-node="Running" data-state-kind="normal" /><rect x="46" y="390" width="140" height="40" rx="8" ry="8" fill="#f6f6f6" stroke="#1e293b" stroke-width="1.5"/><text x="116" y="414" font-family="monospace" font-size="13" font-weight="600" text-anchor="middle" fill="#0f172a">Running</text><metadata data-state-node="Paused" data-state-kind="normal" /><rect x="46" y="490" width="140" height="40" rx="8" ry="8" fill="#f6f6f6" stroke="#1e293b" stroke-width="1.5"/><text x="116" y="514" font-family="monospace" font-size="13" font-weight="600" text-anchor="middle" fill="#0f172a">Paused</text><metadata data-state-node="Stopped" data-state-kind="normal" /><rect x="30" y="602" width="140" height="40" rx="8" ry="8" fill="#f6f6f6" stroke="#1e293b" stroke-width="1.5"/><text x="100" y="626" font-family="monospace" font-size="13" font-weight="600" text-anchor="middle" fill="#0f172a">Stopped</text></svg>