<svg xmlns="http://www.w3.org/2000/svg" width="460" height="580" viewBox="0 0 460 580"><rect width="100%" height="100%" fill="white"/><defs><marker id="arrow" markerWidth="8" markerHeight="8" refX="6" refY="3" orient="auto"><path d="M0,0 L0,6 L8,3 z" fill="#333"/></marker></defs><line x1="230" y1="210" x2="170" y2="100" stroke="#333" stroke-width="1.5" marker-end="url(#arrow)"/><line x1="100" y1="120" x2="100" y2="300" stroke="#333" stroke-width="1.5" marker-end="url(#arrow)"/><line x1="100" y1="120" x2="300" y2="300" stroke="#333" stroke-width="1.5" marker-end="url(#arrow)"/><line x1="100" y1="300" x2="300" y2="120" stroke="#333" stroke-width="1.5" marker-end="url(#arrow)"/><line x1="300" y1="300" x2="300" y2="120" stroke="#333" stroke-width="1.5" marker-end="url(#arrow)"/><line x1="230" y1="100" x2="170" y2="210" stroke="#333" stroke-width="1.5" marker-end="url(#arrow)"/><line x1="100" y1="230" x2="100" y2="410" stroke="#333" stroke-width="1.5" marker-end="url(#arrow)"/><text x="100" y="314" font-family="monospace" font-size="11" fill="#555" text-anchor="middle">ok</text><line x1="100" y1="230" x2="300" y2="410" stroke="#333" stroke-width="1.5" marker-end="url(#arrow)"/><text x="200" y="314" font-family="monospace" font-size="11" fill="#555" text-anchor="middle">error</text><rect x="30" y="96" width="140" height="8" fill="#1e293b"/><text x="100" y="118" font-family="monospace" font-size="11" fill="#475569" text-anchor="middle">fork</text><rect x="230" y="96" width="140" height="8" fill="#1e293b"/><text x="300" y="118" font-family="monospace" font-size="11" fill="#475569" text-anchor="middle">join</text><polygon points="100,192 118,210 100,228 82,210" fill="white" stroke="#1e293b" stroke-width="2"/><circle cx="300" cy="210" r="12" fill="#1e293b"/><rect x="30" y="300" width="140" height="40" rx="8" ry="8" fill="#f8fafc" stroke="#64748b" stroke-width="1.5"/><text x="100" y="324" font-family="monospace" font-size="13" font-weight="600" text-anchor="middle" fill="#0f172a">TaskA</text><rect x="230" y="300" width="140" height="40" rx="8" ry="8" fill="#f8fafc" stroke="#64748b" stroke-width="1.5"/><text x="300" y="324" font-family="monospace" font-size="13" font-weight="600" text-anchor="middle" fill="#0f172a">TaskB</text><rect x="30" y="410" width="140" height="40" rx="8" ry="8" fill="#f8fafc" stroke="#64748b" stroke-width="1.5"/><text x="100" y="434" font-family="monospace" font-size="13" font-weight="600" text-anchor="middle" fill="#0f172a">Success</text><rect x="230" y="410" width="140" height="40" rx="8" ry="8" fill="#f8fafc" stroke="#64748b" stroke-width="1.5"/><text x="300" y="434" font-family="monospace" font-size="13" font-weight="600" text-anchor="middle" fill="#0f172a">Failure</text></svg>