<svg xmlns="http://www.w3.org/2000/svg" width="460" height="800" viewBox="0 0 460 800"><rect width="100%" height="100%" fill="white"/><defs><marker id="arrow" markerWidth="8" markerHeight="8" refX="6" refY="3" orient="auto"><path d="M0,0 L0,6 L8,3 z" fill="#1e293b"/></marker></defs><line class="state-transition" data-state-from="[*]" data-state-to="fork1" x1="230" y1="210" x2="170" y2="84" stroke="#1e293b" stroke-width="2" marker-end="url(#arrow)"/><line class="state-transition" data-state-from="TaskA" data-state-to="join1" x1="100" y1="410" x2="300" y2="88" stroke="#1e293b" stroke-width="2" marker-end="url(#arrow)"/><line class="state-transition" data-state-from="TaskB" data-state-to="join1" x1="300" y1="410" x2="300" y2="88" stroke="#1e293b" stroke-width="2" marker-end="url(#arrow)"/><metadata data-state-node="fork1" data-state-kind="fork" data-state-stereotype="fork" /><rect x="30" y="96" width="140" height="8" fill="#0f172a"/><text x="100" y="118" font-family="monospace" font-size="11" fill="#0f172a" text-anchor="middle">fork</text><metadata data-state-node="join1" data-state-kind="join" data-state-stereotype="join" /><rect x="230" y="96" width="140" height="8" fill="#0f172a"/><text x="300" y="118" font-family="monospace" font-size="11" fill="#0f172a" text-anchor="middle">join</text><metadata data-state-node="choice1" data-state-kind="choice" data-state-stereotype="choice" /><polygon points="100,192 118,210 100,228 82,210" fill="#f6f6f6" stroke="#1e293b" stroke-width="2"/><metadata data-state-node="[*]" data-state-kind="start-end" /><circle cx="300" cy="210" r="12" fill="#0f172a"/><metadata data-state-node="1 --&gt; TaskA" data-state-kind="fork" data-state-stereotype="fork" /><rect x="30" y="316" width="140" height="8" fill="#0f172a"/><text x="100" y="338" font-family="monospace" font-size="11" fill="#0f172a" text-anchor="middle">fork</text><metadata data-state-node="1 --&gt; TaskB" data-state-kind="fork" data-state-stereotype="fork" /><rect x="230" y="316" width="140" height="8" fill="#0f172a"/><text x="300" y="338" font-family="monospace" font-size="11" fill="#0f172a" text-anchor="middle">fork</text><metadata data-state-node="TaskA" data-state-kind="normal" /><rect x="30" y="410" width="140" height="40" rx="8" ry="8" fill="#f6f6f6" stroke="#1e293b" stroke-width="1.5"/><text x="100" y="434" font-family="monospace" font-size="13" font-weight="600" text-anchor="middle" fill="#0f172a">TaskA</text><metadata data-state-node="TaskB" data-state-kind="normal" /><rect x="230" y="410" width="140" height="40" rx="8" ry="8" fill="#f6f6f6" stroke="#1e293b" stroke-width="1.5"/><text x="300" y="434" font-family="monospace" font-size="13" font-weight="600" text-anchor="middle" fill="#0f172a">TaskB</text><metadata data-state-node="1 --&gt; choice1" data-state-kind="join" data-state-stereotype="join" /><rect x="30" y="536" width="140" height="8" fill="#0f172a"/><text x="100" y="558" font-family="monospace" font-size="11" fill="#0f172a" text-anchor="middle">join</text><metadata data-state-node="1 --&gt; Success : ok" data-state-kind="choice" data-state-stereotype="choice" /><polygon points="300,522 318,540 300,558 282,540" fill="#f6f6f6" stroke="#1e293b" stroke-width="2"/><metadata data-state-node="1 --&gt; Failure : error" data-state-kind="choice" data-state-stereotype="choice" /><polygon points="100,632 118,650 100,668 82,650" fill="#f6f6f6" stroke="#1e293b" stroke-width="2"/></svg>