<svg xmlns="http://www.w3.org/2000/svg" width="430" height="588" viewBox="0 0 430 588"><rect width="100%" height="100%" fill="white"/><defs><marker id="arrow" markerWidth="8" markerHeight="8" refX="6" refY="3" orient="auto"><path d="M0,0 L0,6 L8,3 z" fill="#1e293b"/></marker></defs><polyline class="state-transition" data-state-from="[*]" data-state-to="fork1" points="230,106 230,166" fill="none" stroke="#1e293b" stroke-width="2" marker-end="url(#arrow)"/><polyline class="state-transition" data-state-from="fork1" data-state-to="TaskA" points="130,174 130,234" fill="none" stroke="#1e293b" stroke-width="2" marker-end="url(#arrow)"/><polyline class="state-transition" data-state-from="fork1" data-state-to="TaskB" points="330,174 330,234" fill="none" stroke="#1e293b" stroke-width="2" marker-end="url(#arrow)"/><polyline class="state-transition" data-state-from="TaskA" data-state-to="join1" points="130,274 130,334" fill="none" stroke="#1e293b" stroke-width="2" marker-end="url(#arrow)"/><polyline class="state-transition" data-state-from="TaskB" data-state-to="join1" points="330,274 330,334" fill="none" stroke="#1e293b" stroke-width="2" marker-end="url(#arrow)"/><polyline class="state-transition" data-state-from="join1" data-state-to="choice1" points="230,342 230,402" fill="none" stroke="#1e293b" stroke-width="2" marker-end="url(#arrow)"/><polyline class="state-transition" data-state-from="choice1" data-state-to="Success" points="219,435 219,470 130,470 130,506" fill="none" stroke="#1e293b" stroke-width="2" marker-end="url(#arrow)"/><text x="174" y="466" font-family="monospace" font-size="11" fill="#0f172a" text-anchor="middle" data-state-label="ok"><tspan x="174" y="466">ok</tspan></text><polyline class="state-transition" data-state-from="choice1" data-state-to="Failure" points="241,435 241,470 330,470 330,506" fill="none" stroke="#1e293b" stroke-width="2" marker-end="url(#arrow)"/><text x="268" y="482" font-family="monospace" font-size="11" fill="#0f172a" text-anchor="middle" data-state-label="error"><tspan x="268" y="482">error</tspan></text><metadata data-state-node="fork1" data-state-kind="fork" data-state-stereotype="fork" /><rect x="130" y="166" width="200" height="8" fill="#0f172a"/><metadata data-state-node="join1" data-state-kind="join" data-state-stereotype="join" /><rect x="130" y="334" width="200" height="8" fill="#0f172a"/><metadata data-state-node="choice1" data-state-kind="choice" data-state-stereotype="choice" /><polygon points="230,404 250,424 230,444 210,424" fill="#f6f6f6" stroke="#1e293b" stroke-width="2"/><metadata data-state-node="[*]" data-state-kind="start-end" /><circle cx="230" cy="93" r="12" fill="#0f172a"/><metadata data-state-node="TaskA" data-state-kind="normal" /><rect x="60" y="234" width="140" height="40" rx="8" ry="8" fill="#f6f6f6" stroke="#1e293b" stroke-width="1.5"/><text x="130" y="258" font-family="monospace" font-size="13" font-weight="600" text-anchor="middle" fill="#0f172a">TaskA</text><metadata data-state-node="TaskB" data-state-kind="normal" /><rect x="260" y="234" width="140" height="40" rx="8" ry="8" fill="#f6f6f6" stroke="#1e293b" stroke-width="1.5"/><text x="330" y="258" font-family="monospace" font-size="13" font-weight="600" text-anchor="middle" fill="#0f172a">TaskB</text><metadata data-state-node="Success" data-state-kind="normal" /><rect x="60" y="506" width="140" height="40" rx="8" ry="8" fill="#f6f6f6" stroke="#1e293b" stroke-width="1.5"/><text x="130" y="530" font-family="monospace" font-size="13" font-weight="600" text-anchor="middle" fill="#0f172a">Success</text><metadata data-state-node="Failure" data-state-kind="normal" /><rect x="260" y="506" width="140" height="40" rx="8" ry="8" fill="#f6f6f6" stroke="#1e293b" stroke-width="1.5"/><text x="330" y="530" font-family="monospace" font-size="13" font-weight="600" text-anchor="middle" fill="#0f172a">Failure</text></svg>