<svg xmlns="http://www.w3.org/2000/svg" width="264" height="532" viewBox="0 0 264 532"><rect width="100%" height="100%" fill="white"/><defs><marker id="arrow" markerWidth="8" markerHeight="8" refX="6" refY="3" orient="auto"><path d="M0,0 L0,6 L8,3 z" fill="#1e293b"/></marker></defs><line class="state-transition" data-state-from="Fetching" data-state-to="Processing" x1="132" y1="378" x2="132" y2="438" stroke="#1e293b" stroke-width="2" marker-end="url(#arrow)"/><text x="132" y="396" font-family="monospace" font-size="11" fill="#0f172a" text-anchor="middle">data ready</text><path class="state-transition" data-state-from="Idle" data-state-to="Working" d="M 142 242 Q 142 272 142 302" fill="none" stroke="#1e293b" stroke-width="2" marker-end="url(#arrow)"/><text x="142" y="266" font-family="monospace" font-size="11" fill="#0f172a" text-anchor="middle">start</text><path class="state-transition" data-state-from="Working" data-state-to="Idle" d="M 122 302 Q 122 272 122 242" fill="none" stroke="#1e293b" stroke-width="2" marker-end="url(#arrow)"/><text x="122" y="266" font-family="monospace" font-size="11" fill="#0f172a" text-anchor="middle">done</text><path class="state-transition" data-state-from="[*]" data-state-to="Operational" d="M 49 98 Q 93 128 138 158" fill="none" stroke="#1e293b" stroke-width="2" marker-end="url(#arrow)"/><path class="state-transition" data-state-from="Operational" data-state-to="[*]" d="M 126 174 Q 81 144 37 114" fill="none" stroke="#1e293b" stroke-width="2" marker-end="url(#arrow)"/><text x="81" y="138" font-family="monospace" font-size="11" fill="#0f172a" text-anchor="middle">shutdown</text><metadata data-state-node="Operational" data-state-kind="normal" /><rect x="30" y="166" width="204" height="336" rx="8" ry="8" fill="#f6f6f6" stroke="#1e293b" stroke-width="1.5"/><text x="132" y="186" font-family="monospace" font-size="13" font-weight="600" text-anchor="middle" fill="#0f172a">Operational</text><metadata data-state-node="Idle" data-state-kind="normal" /><rect x="62" y="202" width="140" height="40" rx="8" ry="8" fill="#f6f6f6" stroke="#1e293b" stroke-width="1.5"/><text x="132" y="226" font-family="monospace" font-size="13" font-weight="600" text-anchor="middle" fill="#0f172a">Idle</text><metadata data-state-node="Working" data-state-kind="normal" /><rect x="46" y="302" width="172" height="188" rx="8" ry="8" fill="#f6f6f6" stroke="#1e293b" stroke-width="1.5"/><text x="132" y="322" font-family="monospace" font-size="13" font-weight="600" text-anchor="middle" fill="#0f172a">Working</text><metadata data-state-node="Fetching" data-state-kind="normal" /><rect x="62" y="338" width="140" height="40" rx="8" ry="8" fill="#f6f6f6" stroke="#1e293b" stroke-width="1.5"/><text x="132" y="362" font-family="monospace" font-size="13" font-weight="600" text-anchor="middle" fill="#0f172a">Fetching</text><metadata data-state-node="Processing" data-state-kind="normal" /><rect x="62" y="438" width="140" height="40" rx="8" ry="8" fill="#f6f6f6" stroke="#1e293b" stroke-width="1.5"/><text x="132" y="462" font-family="monospace" font-size="13" font-weight="600" text-anchor="middle" fill="#0f172a">Processing</text><metadata data-state-node="[*]" data-state-kind="start-end" /><circle cx="43" cy="93" r="12" fill="#0f172a"/></svg>