<svg xmlns="http://www.w3.org/2000/svg" width="362" height="630" viewBox="0 0 362 630"><rect width="100%" height="100%" fill="white"/><defs><marker id="arrow" markerWidth="8" markerHeight="8" refX="6" refY="3" orient="auto"><path d="M0,0 L0,6 L8,3 z" fill="#1e293b"/></marker></defs><path class="state-transition" data-state-from="[*]" data-state-to="Operational" d="M 141 106 L 141 136 L 230 136 L 230 166" fill="none" stroke="#1e293b" stroke-width="2" marker-end="url(#arrow)"/><path class="state-transition" data-state-from="Operational" data-state-to="[*]__end" d="M 230 502 L 230 532 L 141 532 L 141 562" fill="none" stroke="#1e293b" stroke-width="2" marker-end="url(#arrow)"/><text x="83" y="518" font-family="monospace" font-size="11" fill="#0f172a" text-anchor="middle" data-state-label="shutdown"><tspan x="83" y="518">shutdown</tspan></text><metadata data-state-node="Operational" data-state-kind="normal" /><rect x="128" y="166" width="204" height="336" rx="8" ry="8" fill="#f6f6f6" stroke="#1e293b" stroke-width="1.5"/><text x="230" y="186" font-family="monospace" font-size="13" font-weight="600" text-anchor="middle" fill="#0f172a">Operational</text><path class="state-transition" data-state-from="Idle" data-state-to="Working" d="M 240 242 Q 240 272 240 302" fill="none" stroke="#1e293b" stroke-width="2" marker-end="url(#arrow)"/><text x="215" y="282" font-family="monospace" font-size="11" fill="#0f172a" text-anchor="middle" data-state-label="start"><tspan x="215" y="282">start</tspan></text><path class="state-transition" data-state-from="Working" data-state-to="Idle" d="M 220 302 Q 220 272 220 242" fill="none" stroke="#1e293b" stroke-width="2" marker-end="url(#arrow)"/><text x="266" y="270" font-family="monospace" font-size="11" fill="#0f172a" text-anchor="middle" data-state-label="done"><tspan x="266" y="270">done</tspan></text><metadata data-state-node="Idle" data-state-kind="normal" /><rect x="160" y="202" width="140" height="40" rx="8" ry="8" fill="#f6f6f6" stroke="#1e293b" stroke-width="1.5"/><text x="230" y="226" font-family="monospace" font-size="13" font-weight="600" text-anchor="middle" fill="#0f172a">Idle</text><metadata data-state-node="Working" data-state-kind="normal" /><rect x="144" y="302" width="172" height="188" rx="8" ry="8" fill="#f6f6f6" stroke="#1e293b" stroke-width="1.5"/><text x="230" y="322" font-family="monospace" font-size="13" font-weight="600" text-anchor="middle" fill="#0f172a">Working</text><path class="state-transition" data-state-from="Fetching" data-state-to="Processing" d="M 230 378 L 230 438" fill="none" stroke="#1e293b" stroke-width="2" marker-end="url(#arrow)"/><text x="65" y="400" font-family="monospace" font-size="11" fill="#0f172a" text-anchor="middle" data-state-label="data ready"><tspan x="65" y="400">data ready</tspan></text><metadata data-state-node="Fetching" data-state-kind="normal" /><rect x="160" y="338" width="140" height="40" rx="8" ry="8" fill="#f6f6f6" stroke="#1e293b" stroke-width="1.5"/><text x="230" y="362" font-family="monospace" font-size="13" font-weight="600" text-anchor="middle" fill="#0f172a">Fetching</text><metadata data-state-node="Processing" data-state-kind="normal" /><rect x="160" y="438" width="140" height="40" rx="8" ry="8" fill="#f6f6f6" stroke="#1e293b" stroke-width="1.5"/><text x="230" y="462" font-family="monospace" font-size="13" font-weight="600" text-anchor="middle" fill="#0f172a">Processing</text><metadata data-state-node="[*]" data-state-kind="start-end" /><circle cx="141" cy="93" r="12" fill="#0f172a"/><metadata data-state-node="[*]__end" data-state-kind="end" /><circle cx="141" cy="575" r="12" fill="#f6f6f6" stroke="#1e293b" stroke-width="2"/><circle cx="141" cy="575" r="8" fill="#0f172a"/></svg>