<svg xmlns="http://www.w3.org/2000/svg" width="273" height="630" viewBox="0 0 273 630"><rect width="100%" height="100%" fill="white"/><defs><marker id="arrow" markerWidth="8" markerHeight="8" refX="6" refY="3" orient="auto"><path d="M0,0 L0,6 L8,3 z" fill="#1e293b"/></marker></defs><polyline class="state-transition" data-state-from="[*]" data-state-to="Operational" points="52,106 52,136 141,136 141,166" fill="none" stroke="#1e293b" stroke-width="2" marker-end="url(#arrow)"/><polyline class="state-transition" data-state-from="Operational" data-state-to="[*]__end" points="141,502 141,532 52,532 52,562" fill="none" stroke="#1e293b" stroke-width="2" marker-end="url(#arrow)"/><text x="114" y="528" font-family="monospace" font-size="11" fill="#0f172a" text-anchor="middle" data-state-label="shutdown"><tspan x="114" y="528">shutdown</tspan></text><metadata data-state-node="Operational" data-state-kind="normal" /><rect x="39" y="166" width="204" height="336" rx="8" ry="8" fill="#f6f6f6" stroke="#1e293b" stroke-width="1.5"/><text x="141" y="186" font-family="monospace" font-size="13" font-weight="600" text-anchor="middle" fill="#0f172a">Operational</text><path class="state-transition" data-state-from="Idle" data-state-to="Working" d="M 151 242 Q 151 272 151 302" fill="none" stroke="#1e293b" stroke-width="2" marker-end="url(#arrow)"/><text x="143" y="282" font-family="monospace" font-size="11" fill="#0f172a" text-anchor="middle" data-state-label="start"><tspan x="143" y="282">start</tspan></text><path class="state-transition" data-state-from="Working" data-state-to="Idle" d="M 131 302 Q 131 272 131 242" fill="none" stroke="#1e293b" stroke-width="2" marker-end="url(#arrow)"/><text x="99" y="270" font-family="monospace" font-size="11" fill="#0f172a" text-anchor="middle" data-state-label="done"><tspan x="99" y="270">done</tspan></text><metadata data-state-node="Idle" data-state-kind="normal" /><rect x="71" y="202" width="140" height="40" rx="8" ry="8" fill="#f6f6f6" stroke="#1e293b" stroke-width="1.5"/><text x="141" y="226" font-family="monospace" font-size="13" font-weight="600" text-anchor="middle" fill="#0f172a">Idle</text><metadata data-state-node="Working" data-state-kind="normal" /><rect x="55" y="302" width="172" height="188" rx="8" ry="8" fill="#f6f6f6" stroke="#1e293b" stroke-width="1.5"/><text x="141" y="322" font-family="monospace" font-size="13" font-weight="600" text-anchor="middle" fill="#0f172a">Working</text><polyline class="state-transition" data-state-from="Fetching" data-state-to="Processing" points="141,378 141,438" fill="none" stroke="#1e293b" stroke-width="2" marker-end="url(#arrow)"/><text x="187" y="526" font-family="monospace" font-size="11" fill="#0f172a" text-anchor="middle" data-state-label="data ready"><tspan x="187" y="526">data ready</tspan></text><metadata data-state-node="Fetching" data-state-kind="normal" /><rect x="71" y="338" width="140" height="40" rx="8" ry="8" fill="#f6f6f6" stroke="#1e293b" stroke-width="1.5"/><text x="141" y="362" font-family="monospace" font-size="13" font-weight="600" text-anchor="middle" fill="#0f172a">Fetching</text><metadata data-state-node="Processing" data-state-kind="normal" /><rect x="71" y="438" width="140" height="40" rx="8" ry="8" fill="#f6f6f6" stroke="#1e293b" stroke-width="1.5"/><text x="141" y="462" font-family="monospace" font-size="13" font-weight="600" text-anchor="middle" fill="#0f172a">Processing</text><metadata data-state-node="[*]" data-state-kind="start-end" /><circle cx="52" cy="93" r="12" fill="#0f172a"/><metadata data-state-node="[*]__end" data-state-kind="end" /><circle cx="52" cy="575" r="12" fill="#f6f6f6" stroke="#1e293b" stroke-width="2"/><circle cx="52" cy="575" r="8" fill="#0f172a"/></svg>