<svg xmlns="http://www.w3.org/2000/svg" width="466" height="630" viewBox="0 0 466 630"><rect width="100%" height="100%" fill="white"/><defs><marker id="arrow" markerWidth="8" markerHeight="8" refX="6" refY="3" orient="auto"><path d="M0,0 L0,6 L8,3 z" fill="#1e293b"/></marker></defs><path class="state-transition" data-state-from="[*]" data-state-to="Operational" d="M 203 106 L 203 136 L 292 136 L 292 166" fill="none" stroke="#1e293b" stroke-width="2" marker-end="url(#arrow)"/><path class="state-transition" data-state-from="Operational" data-state-to="[*]__end" d="M 292 502 L 292 532 L 203 532 L 203 562" fill="none" stroke="#1e293b" stroke-width="2" marker-end="url(#arrow)"/><text x="225" y="529" font-family="monospace" font-size="11" fill="#0f172a" text-anchor="middle" data-state-label="shutdown"><tspan x="225" y="529">shutdown</tspan></text><metadata data-state-node="Operational" data-state-kind="normal" /><rect x="190" y="166" width="204" height="336" rx="8" ry="8" fill="#f6f6f6" stroke="#1e293b" stroke-width="1.5"/><text x="292" y="186" font-family="monospace" font-size="13" font-weight="600" text-anchor="middle" fill="#0f172a">Operational</text><path class="state-transition" data-state-from="Idle" data-state-to="Working" d="M 302 242 Q 302 272 302 302" fill="none" stroke="#1e293b" stroke-width="2" marker-end="url(#arrow)"/><text x="284" y="144" font-family="monospace" font-size="11" fill="#0f172a" text-anchor="middle" data-state-label="start"><tspan x="284" y="144">start</tspan></text><path class="state-transition" data-state-from="Working" data-state-to="Idle" d="M 282 302 Q 282 272 282 242" fill="none" stroke="#1e293b" stroke-width="2" marker-end="url(#arrow)"/><text x="422" y="288" font-family="monospace" font-size="11" fill="#0f172a" text-anchor="middle" data-state-label="done"><tspan x="422" y="288">done</tspan></text><metadata data-state-node="Idle" data-state-kind="normal" /><rect x="222" y="202" width="140" height="40" rx="8" ry="8" fill="#f6f6f6" stroke="#1e293b" stroke-width="1.5"/><text x="292" y="226" font-family="monospace" font-size="13" font-weight="600" text-anchor="middle" fill="#0f172a">Idle</text><metadata data-state-node="Working" data-state-kind="normal" /><rect x="206" y="302" width="172" height="188" rx="8" ry="8" fill="#f6f6f6" stroke="#1e293b" stroke-width="1.5"/><text x="292" y="322" font-family="monospace" font-size="13" font-weight="600" text-anchor="middle" fill="#0f172a">Working</text><path class="state-transition" data-state-from="Fetching" data-state-to="Processing" d="M 292 378 L 292 438" fill="none" stroke="#1e293b" stroke-width="2" marker-end="url(#arrow)"/><text x="124" y="400" font-family="monospace" font-size="11" fill="#0f172a" text-anchor="middle" data-state-label="data ready"><tspan x="124" y="400">data ready</tspan></text><metadata data-state-node="Fetching" data-state-kind="normal" /><rect x="222" y="338" width="140" height="40" rx="8" ry="8" fill="#f6f6f6" stroke="#1e293b" stroke-width="1.5"/><text x="292" y="362" font-family="monospace" font-size="13" font-weight="600" text-anchor="middle" fill="#0f172a">Fetching</text><metadata data-state-node="Processing" data-state-kind="normal" /><rect x="222" y="438" width="140" height="40" rx="8" ry="8" fill="#f6f6f6" stroke="#1e293b" stroke-width="1.5"/><text x="292" y="462" font-family="monospace" font-size="13" font-weight="600" text-anchor="middle" fill="#0f172a">Processing</text><metadata data-state-node="[*]" data-state-kind="start-end" /><circle cx="203" cy="93" r="12" fill="#0f172a"/><metadata data-state-node="[*]__end" data-state-kind="end" /><circle cx="203" cy="575" r="12" fill="#f6f6f6" stroke="#1e293b" stroke-width="2"/><circle cx="203" cy="575" r="8" fill="#0f172a"/></svg>