<svg xmlns="http://www.w3.org/2000/svg" width="460" height="910" viewBox="0 0 460 910"><rect width="100%" height="100%" fill="white"/><defs><marker id="arrow" markerWidth="8" markerHeight="8" refX="6" refY="3" orient="auto"><path d="M0,0 L0,6 L8,3 z" fill="#1e293b"/></marker></defs><text x="230" y="28" font-family="monospace" font-size="16" font-weight="600" text-anchor="middle" fill="#0f172a">Order State Machine</text><text x="40" y="48" font-family="monospace" font-size="12" fill="#0f172a">state diagram</text><line class="state-transition" data-state-from="[*]" data-state-to="Pending" x1="50" y1="520" x2="300" y2="244" stroke="#1e293b" stroke-width="2" marker-end="url(#arrow)"/><line class="state-transition" data-state-from="Pending" data-state-to="fork1" x1="230" y1="217" x2="170" y2="84" stroke="#1e293b" stroke-width="2" marker-end="url(#arrow)"/><text x="200" y="144" font-family="monospace" font-size="11" fill="#0f172a" text-anchor="middle">confirm</text><line class="state-transition" data-state-from="Fulfillment" data-state-to="join1" x1="100" y1="300" x2="300" y2="88" stroke="#1e293b" stroke-width="2" marker-end="url(#arrow)"/><text x="200" y="188" font-family="monospace" font-size="11" fill="#0f172a" text-anchor="middle">packed</text><line class="state-transition" data-state-from="Shipped" data-state-to="Delivered" x1="230" y1="327" x2="170" y2="430" stroke="#1e293b" stroke-width="2" marker-end="url(#arrow)"/><text x="200" y="372" font-family="monospace" font-size="11" fill="#0f172a" text-anchor="middle">delivered</text><line class="state-transition" data-state-from="Delivered" data-state-to="[*]" x1="100" y1="450" x2="50" y2="520" stroke="#1e293b" stroke-width="2" marker-end="url(#arrow)"/><line class="state-transition" data-state-from="Cancelled" data-state-to="[*]" x1="230" y1="430" x2="70" y2="540" stroke="#1e293b" stroke-width="2" marker-end="url(#arrow)"/><metadata data-state-node="fork1" data-state-kind="fork" data-state-stereotype="fork" /><rect x="30" y="96" width="140" height="8" fill="#0f172a"/><text x="100" y="118" font-family="monospace" font-size="11" fill="#0f172a" text-anchor="middle">fork</text><metadata data-state-node="join1" data-state-kind="join" data-state-stereotype="join" /><rect x="230" y="96" width="140" height="8" fill="#0f172a"/><text x="300" y="118" font-family="monospace" font-size="11" fill="#0f172a" text-anchor="middle">join</text><metadata data-state-node="choice1" data-state-kind="choice" data-state-stereotype="choice" /><polygon points="100,192 118,210 100,228 82,210" fill="#f6f6f6" stroke="#1e293b" stroke-width="2"/><metadata data-state-node="Pending" data-state-kind="normal" /><rect x="230" y="190" width="140" height="54" rx="8" ry="8" fill="#f6f6f6" stroke="#1e293b" stroke-width="1.5"/><text x="300" y="214" font-family="monospace" font-size="13" font-weight="600" text-anchor="middle" fill="#0f172a">Pending</text><line x1="230" y1="226" x2="370" y2="226" stroke="#1e293b" stroke-width="1"/><text x="236" y="240" font-family="monospace" font-size="10" font-style="italic" fill="#0f172a">entry / notifyCustomer</text><metadata data-state-node="Fulfillment" data-state-kind="normal" /><rect x="30" y="300" width="140" height="40" rx="8" ry="8" fill="#f6f6f6" stroke="#1e293b" stroke-width="1.5"/><text x="100" y="324" font-family="monospace" font-size="13" font-weight="600" text-anchor="middle" fill="#0f172a">Fulfillment</text><metadata data-state-node="Picking" data-state-kind="normal" /><rect x="38" y="344" width="140" height="40" rx="8" ry="8" fill="#f6f6f6" stroke="#1e293b" stroke-width="1.5"/><text x="108" y="368" font-family="monospace" font-size="13" font-weight="600" text-anchor="middle" fill="#0f172a">Picking</text><metadata data-state-node="Packing" data-state-kind="normal" /><rect x="38" y="392" width="140" height="40" rx="8" ry="8" fill="#f6f6f6" stroke="#1e293b" stroke-width="1.5"/><text x="108" y="416" font-family="monospace" font-size="13" font-weight="600" text-anchor="middle" fill="#0f172a">Packing</text><metadata data-state-node="Shipped" data-state-kind="normal" /><rect x="230" y="300" width="140" height="54" rx="8" ry="8" fill="#f6f6f6" stroke="#1e293b" stroke-width="1.5"/><text x="300" y="324" font-family="monospace" font-size="13" font-weight="600" text-anchor="middle" fill="#0f172a">Shipped</text><line x1="230" y1="336" x2="370" y2="336" stroke="#1e293b" stroke-width="1"/><text x="236" y="350" font-family="monospace" font-size="10" font-style="italic" fill="#0f172a">entry / sendTrackingEmail</text><metadata data-state-node="Delivered" data-state-kind="normal" /><rect x="30" y="410" width="140" height="40" rx="8" ry="8" fill="#f6f6f6" stroke="#1e293b" stroke-width="1.5"/><text x="100" y="434" font-family="monospace" font-size="13" font-weight="600" text-anchor="middle" fill="#0f172a">Delivered</text><metadata data-state-node="Cancelled" data-state-kind="normal" /><rect x="230" y="410" width="140" height="40" rx="8" ry="8" fill="#f6f6f6" stroke="#1e293b" stroke-width="1.5"/><text x="300" y="434" font-family="monospace" font-size="13" font-weight="600" text-anchor="middle" fill="#0f172a">Cancelled</text><metadata data-state-node="[*]" data-state-kind="start-end" /><circle cx="100" cy="540" r="12" fill="#0f172a"/><metadata data-state-node="1 --&gt; Fulfillment" data-state-kind="fork" data-state-stereotype="fork" /><rect x="230" y="536" width="140" height="8" fill="#0f172a"/><text x="300" y="558" font-family="monospace" font-size="11" fill="#0f172a" text-anchor="middle">fork</text><metadata data-state-node="1 --&gt; choice1" data-state-kind="fork" data-state-stereotype="fork" /><rect x="30" y="646" width="140" height="8" fill="#0f172a"/><text x="100" y="668" font-family="monospace" font-size="11" fill="#0f172a" text-anchor="middle">fork</text><metadata data-state-node="1 --&gt; Cancelled : out of stock" data-state-kind="choice" data-state-stereotype="choice" /><polygon points="300,632 318,650 300,668 282,650" fill="#f6f6f6" stroke="#1e293b" stroke-width="2"/><metadata data-state-node="1 --&gt; join1 : in stock" data-state-kind="choice" data-state-stereotype="choice" /><polygon points="100,742 118,760 100,778 82,760" fill="#f6f6f6" stroke="#1e293b" stroke-width="2"/><metadata data-state-node="1 --&gt; Shipped" data-state-kind="join" data-state-stereotype="join" /><rect x="230" y="756" width="140" height="8" fill="#0f172a"/><text x="300" y="778" font-family="monospace" font-size="11" fill="#0f172a" text-anchor="middle">join</text></svg>