<svg xmlns="http://www.w3.org/2000/svg" width="398" height="978" viewBox="0 0 398 978"><rect width="100%" height="100%" fill="white"/><defs><marker id="arrow" markerWidth="8" markerHeight="8" refX="6" refY="3" orient="auto"><path d="M0,0 L0,6 L8,3 z" fill="#1e293b"/></marker></defs><text x="199" y="28" font-family="monospace" font-size="16" font-weight="600" text-anchor="middle" fill="#0f172a">Order State Machine</text><line class="state-transition" data-state-from="Picking" data-state-to="Packing" x1="282" y1="424" x2="282" y2="484" stroke="#1e293b" stroke-width="2" marker-end="url(#arrow)"/><text x="264" y="326" font-family="monospace" font-size="11" fill="#0f172a" text-anchor="middle" data-state-label="picked"><tspan x="264" y="326">picked</tspan></text><line class="state-transition" data-state-from="[*]" data-state-to="Pending" x1="230" y1="106" x2="230" y2="166" stroke="#1e293b" stroke-width="2" marker-end="url(#arrow)"/><line class="state-transition" data-state-from="Pending" data-state-to="fork1" x1="230" y1="220" x2="230" y2="280" stroke="#1e293b" stroke-width="2" marker-end="url(#arrow)"/><text x="212" y="260" font-family="monospace" font-size="11" fill="#0f172a" text-anchor="middle" data-state-label="confirm"><tspan x="212" y="260">confirm</tspan></text><line class="state-transition" data-state-from="fork1" data-state-to="Fulfillment" x1="282" y1="288" x2="282" y2="348" stroke="#1e293b" stroke-width="2" marker-end="url(#arrow)"/><line class="state-transition" data-state-from="fork1" data-state-to="choice1" x1="114" y1="288" x2="122" y2="428" stroke="#1e293b" stroke-width="2" marker-end="url(#arrow)"/><line class="state-transition" data-state-from="choice1" data-state-to="Cancelled" x1="108" y1="459" x2="56" y2="596" stroke="#1e293b" stroke-width="2" marker-end="url(#arrow)"/><text x="76" y="498" font-family="monospace" font-size="11" fill="#0f172a" text-anchor="middle" data-state-label="out of stock"><tspan x="76" y="498">out of stock</tspan></text><line class="state-transition" data-state-from="Fulfillment" data-state-to="join1" x1="282" y1="536" x2="282" y2="612" stroke="#1e293b" stroke-width="2" marker-end="url(#arrow)"/><text x="264" y="563" font-family="monospace" font-size="11" fill="#0f172a" text-anchor="middle" data-state-label="packed"><tspan x="264" y="563">packed</tspan></text><line class="state-transition" data-state-from="choice1" data-state-to="join1" x1="121" y1="457" x2="114" y2="612" stroke="#1e293b" stroke-width="2" marker-end="url(#arrow)"/><text x="100" y="525" font-family="monospace" font-size="11" fill="#0f172a" text-anchor="middle" data-state-label="in stock"><tspan x="100" y="525">in stock</tspan></text><line class="state-transition" data-state-from="join1" data-state-to="Shipped" x1="256" y1="620" x2="256" y2="696" stroke="#1e293b" stroke-width="2" marker-end="url(#arrow)"/><line class="state-transition" data-state-from="Shipped" data-state-to="Delivered" x1="256" y1="750" x2="256" y2="810" stroke="#1e293b" stroke-width="2" marker-end="url(#arrow)"/><text x="238" y="790" font-family="monospace" font-size="11" fill="#0f172a" text-anchor="middle" data-state-label="delivered"><tspan x="238" y="790">delivered</tspan></text><line class="state-transition" data-state-from="Delivered" data-state-to="[*]__end" x1="186" y1="830" x2="169" y2="923" stroke="#1e293b" stroke-width="2" marker-end="url(#arrow)"/><line class="state-transition" data-state-from="Cancelled" data-state-to="[*]__end" x1="56" y1="636" x2="156" y2="910" stroke="#1e293b" stroke-width="2" marker-end="url(#arrow)"/><metadata data-state-node="fork1" data-state-kind="fork" data-state-stereotype="fork" /><rect x="114" y="280" width="168" height="8" fill="#0f172a"/><metadata data-state-node="join1" data-state-kind="join" data-state-stereotype="join" /><rect x="114" y="612" width="168" height="8" fill="#0f172a"/><metadata data-state-node="choice1" data-state-kind="choice" data-state-stereotype="choice" /><polygon points="114,422 134,442 114,462 94,442" fill="#f6f6f6" stroke="#1e293b" stroke-width="2"/><metadata data-state-node="Pending" data-state-kind="normal" /><rect x="160" y="166" width="140" height="54" rx="8" ry="8" fill="#f6f6f6" stroke="#1e293b" stroke-width="1.5"/><text x="230" y="190" font-family="monospace" font-size="13" font-weight="600" text-anchor="middle" fill="#0f172a">Pending</text><line x1="160" y1="202" x2="300" y2="202" stroke="#1e293b" stroke-width="1"/><text x="166" y="216" font-family="monospace" font-size="10" font-style="italic" fill="#0f172a">entry / notifyCustomer</text><metadata data-state-node="Fulfillment" data-state-kind="normal" /><rect x="196" y="348" width="172" height="188" rx="8" ry="8" fill="#f6f6f6" stroke="#1e293b" stroke-width="1.5"/><text x="282" y="368" font-family="monospace" font-size="13" font-weight="600" text-anchor="middle" fill="#0f172a">Fulfillment</text><metadata data-state-node="Picking" data-state-kind="normal" /><rect x="212" y="384" width="140" height="40" rx="8" ry="8" fill="#f6f6f6" stroke="#1e293b" stroke-width="1.5"/><text x="282" y="408" font-family="monospace" font-size="13" font-weight="600" text-anchor="middle" fill="#0f172a">Picking</text><metadata data-state-node="Packing" data-state-kind="normal" /><rect x="212" y="484" width="140" height="40" rx="8" ry="8" fill="#f6f6f6" stroke="#1e293b" stroke-width="1.5"/><text x="282" y="508" font-family="monospace" font-size="13" font-weight="600" text-anchor="middle" fill="#0f172a">Packing</text><metadata data-state-node="Shipped" data-state-kind="normal" /><rect x="186" y="696" width="140" height="54" rx="8" ry="8" fill="#f6f6f6" stroke="#1e293b" stroke-width="1.5"/><text x="256" y="720" font-family="monospace" font-size="13" font-weight="600" text-anchor="middle" fill="#0f172a">Shipped</text><line x1="186" y1="732" x2="326" y2="732" stroke="#1e293b" stroke-width="1"/><text x="192" y="746" font-family="monospace" font-size="10" font-style="italic" fill="#0f172a">entry / sendTrackingEmail</text><metadata data-state-node="Delivered" data-state-kind="normal" /><rect x="186" y="810" width="140" height="40" rx="8" ry="8" fill="#f6f6f6" stroke="#1e293b" stroke-width="1.5"/><text x="256" y="834" font-family="monospace" font-size="13" font-weight="600" text-anchor="middle" fill="#0f172a">Delivered</text><metadata data-state-node="Cancelled" data-state-kind="normal" /><rect x="-14" y="596" width="140" height="40" rx="8" ry="8" fill="#f6f6f6" stroke="#1e293b" stroke-width="1.5"/><text x="56" y="620" font-family="monospace" font-size="13" font-weight="600" text-anchor="middle" fill="#0f172a">Cancelled</text><metadata data-state-node="[*]" data-state-kind="start-end" /><circle cx="230" cy="93" r="12" fill="#0f172a"/><metadata data-state-node="[*]__end" data-state-kind="end" /><circle cx="156" cy="923" r="12" fill="#f6f6f6" stroke="#1e293b" stroke-width="2"/><circle cx="156" cy="923" r="8" fill="#0f172a"/></svg>