<svg xmlns="http://www.w3.org/2000/svg" width="232" height="1138" viewBox="0 0 232 1138"><rect width="100%" height="100%" fill="white"/><defs><marker id="arrow" markerWidth="8" markerHeight="8" refX="6" refY="3" orient="auto"><path d="M0,0 L0,6 L8,3 z" fill="#1e293b"/></marker></defs><text x="116" y="28" font-family="monospace" font-size="16" font-weight="600" text-anchor="middle" fill="#0f172a">Order State Machine</text><line class="state-transition" data-state-from="Picking" data-state-to="Packing" x1="116" y1="528" x2="116" y2="588" stroke="#1e293b" stroke-width="2" marker-end="url(#arrow)"/><text x="116" y="546" font-family="monospace" font-size="11" fill="#0f172a" text-anchor="middle">picked</text><line class="state-transition" data-state-from="[*]" data-state-to="Pending" x1="43" y1="106" x2="100" y2="166" stroke="#1e293b" stroke-width="2" marker-end="url(#arrow)"/><line class="state-transition" data-state-from="Pending" data-state-to="fork1" x1="100" y1="220" x2="100" y2="280" stroke="#1e293b" stroke-width="2" marker-end="url(#arrow)"/><text x="100" y="238" font-family="monospace" font-size="11" fill="#0f172a" text-anchor="middle">confirm</text><line class="state-transition" data-state-from="fork1" data-state-to="Fulfillment" x1="100" y1="288" x2="116" y2="452" stroke="#1e293b" stroke-width="2" marker-end="url(#arrow)"/><line class="state-transition" data-state-from="fork1" data-state-to="choice1" x1="100" y1="288" x2="52" y2="348" stroke="#1e293b" stroke-width="2" marker-end="url(#arrow)"/><line class="state-transition" data-state-from="choice1" data-state-to="Cancelled" x1="52" y1="392" x2="100" y2="768" stroke="#1e293b" stroke-width="2" marker-end="url(#arrow)"/><text x="76" y="568" font-family="monospace" font-size="11" fill="#0f172a" text-anchor="middle">out of stock</text><line class="state-transition" data-state-from="Fulfillment" data-state-to="join1" x1="116" y1="640" x2="100" y2="700" stroke="#1e293b" stroke-width="2" marker-end="url(#arrow)"/><text x="108" y="658" font-family="monospace" font-size="11" fill="#0f172a" text-anchor="middle">packed</text><line class="state-transition" data-state-from="choice1" data-state-to="join1" x1="52" y1="392" x2="100" y2="700" stroke="#1e293b" stroke-width="2" marker-end="url(#arrow)"/><text x="76" y="534" font-family="monospace" font-size="11" fill="#0f172a" text-anchor="middle">in stock</text><line class="state-transition" data-state-from="join1" data-state-to="Shipped" x1="100" y1="708" x2="100" y2="868" stroke="#1e293b" stroke-width="2" marker-end="url(#arrow)"/><line class="state-transition" data-state-from="Shipped" data-state-to="Delivered" x1="100" y1="922" x2="100" y2="1068" stroke="#1e293b" stroke-width="2" marker-end="url(#arrow)"/><text x="100" y="983" font-family="monospace" font-size="11" fill="#0f172a" text-anchor="middle">delivered</text><line class="state-transition" data-state-from="Delivered" data-state-to="[*]__end" x1="100" y1="1068" x2="43" y2="1008" stroke="#1e293b" stroke-width="2" marker-end="url(#arrow)"/><line class="state-transition" data-state-from="Cancelled" data-state-to="[*]__end" x1="100" y1="808" x2="43" y2="982" stroke="#1e293b" stroke-width="2" marker-end="url(#arrow)"/><metadata data-state-node="fork1" data-state-kind="fork" data-state-stereotype="fork" /><rect x="30" y="280" width="140" height="8" fill="#0f172a"/><metadata data-state-node="join1" data-state-kind="join" data-state-stereotype="join" /><rect x="30" y="700" width="140" height="8" fill="#0f172a"/><metadata data-state-node="choice1" data-state-kind="choice" data-state-stereotype="choice" /><polygon points="52,350 72,370 52,390 32,370" fill="#f6f6f6" stroke="#1e293b" stroke-width="2"/><metadata data-state-node="Pending" data-state-kind="normal" /><rect x="30" y="166" width="140" height="54" rx="8" ry="8" fill="#f6f6f6" stroke="#1e293b" stroke-width="1.5"/><text x="100" y="190" font-family="monospace" font-size="13" font-weight="600" text-anchor="middle" fill="#0f172a">Pending</text><line x1="30" y1="202" x2="170" y2="202" stroke="#1e293b" stroke-width="1"/><text x="36" y="216" font-family="monospace" font-size="10" font-style="italic" fill="#0f172a">entry / notifyCustomer</text><metadata data-state-node="Fulfillment" data-state-kind="normal" /><rect x="30" y="452" width="172" height="188" rx="8" ry="8" fill="#f6f6f6" stroke="#1e293b" stroke-width="1.5"/><text x="116" y="472" font-family="monospace" font-size="13" font-weight="600" text-anchor="middle" fill="#0f172a">Fulfillment</text><metadata data-state-node="Picking" data-state-kind="normal" /><rect x="46" y="488" width="140" height="40" rx="8" ry="8" fill="#f6f6f6" stroke="#1e293b" stroke-width="1.5"/><text x="116" y="512" font-family="monospace" font-size="13" font-weight="600" text-anchor="middle" fill="#0f172a">Picking</text><metadata data-state-node="Packing" data-state-kind="normal" /><rect x="46" y="588" width="140" height="40" rx="8" ry="8" fill="#f6f6f6" stroke="#1e293b" stroke-width="1.5"/><text x="116" y="612" font-family="monospace" font-size="13" font-weight="600" text-anchor="middle" fill="#0f172a">Packing</text><metadata data-state-node="Shipped" data-state-kind="normal" /><rect x="30" y="868" width="140" height="54" rx="8" ry="8" fill="#f6f6f6" stroke="#1e293b" stroke-width="1.5"/><text x="100" y="892" font-family="monospace" font-size="13" font-weight="600" text-anchor="middle" fill="#0f172a">Shipped</text><line x1="30" y1="904" x2="170" y2="904" stroke="#1e293b" stroke-width="1"/><text x="36" y="918" font-family="monospace" font-size="10" font-style="italic" fill="#0f172a">entry / sendTrackingEmail</text><metadata data-state-node="Delivered" data-state-kind="normal" /><rect x="30" y="1068" width="140" height="40" rx="8" ry="8" fill="#f6f6f6" stroke="#1e293b" stroke-width="1.5"/><text x="100" y="1092" font-family="monospace" font-size="13" font-weight="600" text-anchor="middle" fill="#0f172a">Delivered</text><metadata data-state-node="Cancelled" data-state-kind="normal" /><rect x="30" y="768" width="140" height="40" rx="8" ry="8" fill="#f6f6f6" stroke="#1e293b" stroke-width="1.5"/><text x="100" y="792" font-family="monospace" font-size="13" font-weight="600" text-anchor="middle" fill="#0f172a">Cancelled</text><metadata data-state-node="[*]" data-state-kind="start-end" /><circle cx="43" cy="93" r="12" fill="#0f172a"/><metadata data-state-node="[*]__end" data-state-kind="end" /><circle cx="43" cy="995" r="12" fill="#f6f6f6" stroke="#1e293b" stroke-width="2"/><circle cx="43" cy="995" r="8" fill="#0f172a"/></svg>