<svg xmlns="http://www.w3.org/2000/svg" width="480" height="656" viewBox="0 0 480 656"><rect width="100%" height="100%" fill="white"/><defs><marker id="arrow" markerWidth="8" markerHeight="8" refX="6" refY="3" orient="auto"><path d="M0,0 L0,6 L8,3 z" fill="#1e293b"/></marker></defs><text x="240" y="28" font-family="monospace" font-size="16" font-weight="600" text-anchor="middle" fill="#0f172a">Order State Machine</text><line class="state-transition" data-state-from="Picking" data-state-to="Packing" x1="116" y1="328" x2="116" y2="388" stroke="#1e293b" stroke-width="2" marker-end="url(#arrow)"/><text x="116" y="346" font-family="monospace" font-size="11" fill="#0f172a" text-anchor="middle">picked</text><line class="state-transition" data-state-from="[*]" data-state-to="Pending" x1="43" y1="600" x2="380" y2="202" stroke="#1e293b" stroke-width="2" marker-end="url(#arrow)"/><line class="state-transition" data-state-from="Pending" data-state-to="fork1" x1="310" y1="175" x2="170" y2="84" stroke="#1e293b" stroke-width="2" marker-end="url(#arrow)"/><text x="240" y="117" font-family="monospace" font-size="11" fill="#0f172a" text-anchor="middle">confirm</text><line class="state-transition" data-state-from="fork1" data-state-to="Fulfillment" x1="100" y1="88" x2="116" y2="252" stroke="#1e293b" stroke-width="2" marker-end="url(#arrow)"/><line class="state-transition" data-state-from="fork1" data-state-to="choice1" x1="100" y1="88" x2="52" y2="148" stroke="#1e293b" stroke-width="2" marker-end="url(#arrow)"/><line class="state-transition" data-state-from="choice1" data-state-to="Cancelled" x1="74" y1="170" x2="310" y2="396" stroke="#1e293b" stroke-width="2" marker-end="url(#arrow)"/><text x="192" y="271" font-family="monospace" font-size="11" fill="#0f172a" text-anchor="middle">out of stock</text><line class="state-transition" data-state-from="Fulfillment" data-state-to="join1" x1="202" y1="346" x2="310" y2="84" stroke="#1e293b" stroke-width="2" marker-end="url(#arrow)"/><text x="256" y="203" font-family="monospace" font-size="11" fill="#0f172a" text-anchor="middle">packed</text><line class="state-transition" data-state-from="choice1" data-state-to="join1" x1="74" y1="170" x2="310" y2="84" stroke="#1e293b" stroke-width="2" marker-end="url(#arrow)"/><text x="192" y="115" font-family="monospace" font-size="11" fill="#0f172a" text-anchor="middle">in stock</text><line class="state-transition" data-state-from="join1" data-state-to="Shipped" x1="380" y1="88" x2="380" y2="262" stroke="#1e293b" stroke-width="2" marker-end="url(#arrow)"/><line class="state-transition" data-state-from="Shipped" data-state-to="Delivered" x1="310" y1="289" x2="170" y2="520" stroke="#1e293b" stroke-width="2" marker-end="url(#arrow)"/><text x="240" y="392" font-family="monospace" font-size="11" fill="#0f172a" text-anchor="middle">delivered</text><line class="state-transition" data-state-from="Delivered" data-state-to="[*]" x1="100" y1="540" x2="43" y2="600" stroke="#1e293b" stroke-width="2" marker-end="url(#arrow)"/><line class="state-transition" data-state-from="Cancelled" data-state-to="[*]" x1="310" y1="396" x2="56" y2="613" stroke="#1e293b" stroke-width="2" marker-end="url(#arrow)"/><metadata data-state-node="fork1" data-state-kind="fork" data-state-stereotype="fork" /><rect x="30" y="80" width="140" height="8" fill="#0f172a"/><metadata data-state-node="join1" data-state-kind="join" data-state-stereotype="join" /><rect x="310" y="80" width="140" height="8" fill="#0f172a"/><metadata data-state-node="choice1" data-state-kind="choice" data-state-stereotype="choice" /><polygon points="52,150 72,170 52,190 32,170" fill="#f6f6f6" stroke="#1e293b" stroke-width="2"/><metadata data-state-node="Pending" data-state-kind="normal" /><rect x="310" y="148" width="140" height="54" rx="8" ry="8" fill="#f6f6f6" stroke="#1e293b" stroke-width="1.5"/><text x="380" y="172" font-family="monospace" font-size="13" font-weight="600" text-anchor="middle" fill="#0f172a">Pending</text><line x1="310" y1="184" x2="450" y2="184" stroke="#1e293b" stroke-width="1"/><text x="316" y="198" font-family="monospace" font-size="10" font-style="italic" fill="#0f172a">entry / notifyCustomer</text><metadata data-state-node="Fulfillment" data-state-kind="normal" /><rect x="30" y="252" width="172" height="188" rx="8" ry="8" fill="#f6f6f6" stroke="#1e293b" stroke-width="1.5"/><text x="116" y="272" font-family="monospace" font-size="13" font-weight="600" text-anchor="middle" fill="#0f172a">Fulfillment</text><metadata data-state-node="Picking" data-state-kind="normal" /><rect x="46" y="288" width="140" height="40" rx="8" ry="8" fill="#f6f6f6" stroke="#1e293b" stroke-width="1.5"/><text x="116" y="312" font-family="monospace" font-size="13" font-weight="600" text-anchor="middle" fill="#0f172a">Picking</text><metadata data-state-node="Packing" data-state-kind="normal" /><rect x="46" y="388" width="140" height="40" rx="8" ry="8" fill="#f6f6f6" stroke="#1e293b" stroke-width="1.5"/><text x="116" y="412" font-family="monospace" font-size="13" font-weight="600" text-anchor="middle" fill="#0f172a">Packing</text><metadata data-state-node="Shipped" data-state-kind="normal" /><rect x="310" y="262" width="140" height="54" rx="8" ry="8" fill="#f6f6f6" stroke="#1e293b" stroke-width="1.5"/><text x="380" y="286" font-family="monospace" font-size="13" font-weight="600" text-anchor="middle" fill="#0f172a">Shipped</text><line x1="310" y1="298" x2="450" y2="298" stroke="#1e293b" stroke-width="1"/><text x="316" y="312" font-family="monospace" font-size="10" font-style="italic" fill="#0f172a">entry / sendTrackingEmail</text><metadata data-state-node="Delivered" data-state-kind="normal" /><rect x="30" y="500" width="140" height="40" rx="8" ry="8" fill="#f6f6f6" stroke="#1e293b" stroke-width="1.5"/><text x="100" y="524" font-family="monospace" font-size="13" font-weight="600" text-anchor="middle" fill="#0f172a">Delivered</text><metadata data-state-node="Cancelled" data-state-kind="normal" /><rect x="310" y="376" width="140" height="40" rx="8" ry="8" fill="#f6f6f6" stroke="#1e293b" stroke-width="1.5"/><text x="380" y="400" font-family="monospace" font-size="13" font-weight="600" text-anchor="middle" fill="#0f172a">Cancelled</text><metadata data-state-node="[*]" data-state-kind="start-end" /><circle cx="43" cy="613" r="12" fill="#0f172a"/></svg>