<svg xmlns="http://www.w3.org/2000/svg" width="457" height="978" viewBox="0 0 457 978"><rect width="100%" height="100%" fill="white"/><defs><marker id="arrow" markerWidth="8" markerHeight="8" refX="6" refY="3" orient="auto"><path d="M0,0 L0,6 L8,3 z" fill="#1e293b"/></marker></defs><text x="228" y="28" font-family="monospace" font-size="16" font-weight="600" text-anchor="middle" fill="#0f172a">Order State Machine</text><polyline class="state-transition" data-state-from="[*]" data-state-to="Pending" points="289,106 289,166" fill="none" stroke="#1e293b" stroke-width="2" marker-end="url(#arrow)"/><polyline class="state-transition" data-state-from="Pending" data-state-to="fork1" points="289,220 289,280" fill="none" stroke="#1e293b" stroke-width="2" marker-end="url(#arrow)"/><text x="281" y="260" font-family="monospace" font-size="11" fill="#0f172a" text-anchor="middle" data-state-label="confirm"><tspan x="281" y="260">confirm</tspan></text><polyline class="state-transition" data-state-from="fork1" data-state-to="Fulfillment" points="341,288 341,348" fill="none" stroke="#1e293b" stroke-width="2" marker-end="url(#arrow)"/><polyline class="state-transition" data-state-from="fork1" data-state-to="choice1" points="173,288 173,358 181,358 181,428" fill="none" stroke="#1e293b" stroke-width="2" marker-end="url(#arrow)"/><polyline class="state-transition" data-state-from="choice1" data-state-to="Cancelled" points="167,459 167,527 115,527 115,596" fill="none" stroke="#1e293b" stroke-width="2" marker-end="url(#arrow)"/><text x="151" y="523" font-family="monospace" font-size="11" fill="#0f172a" text-anchor="middle" data-state-label="out of stock"><tspan x="151" y="523">out of stock</tspan></text><polyline class="state-transition" data-state-from="Fulfillment" data-state-to="join1" points="341,536 341,612" fill="none" stroke="#1e293b" stroke-width="2" marker-end="url(#arrow)"/><text x="333" y="563" font-family="monospace" font-size="11" fill="#0f172a" text-anchor="middle" data-state-label="packed"><tspan x="333" y="563">packed</tspan></text><polyline class="state-transition" data-state-from="choice1" data-state-to="join1" points="180,457 180,534 173,534 173,612" fill="none" stroke="#1e293b" stroke-width="2" marker-end="url(#arrow)"/><text x="58" y="530" font-family="monospace" font-size="11" fill="#0f172a" text-anchor="middle" data-state-label="in stock"><tspan x="58" y="530">in stock</tspan></text><polyline class="state-transition" data-state-from="join1" data-state-to="Shipped" points="315,620 315,696" fill="none" stroke="#1e293b" stroke-width="2" marker-end="url(#arrow)"/><polyline class="state-transition" data-state-from="Shipped" data-state-to="Delivered" points="315,750 315,810" fill="none" stroke="#1e293b" stroke-width="2" marker-end="url(#arrow)"/><text x="307" y="790" font-family="monospace" font-size="11" fill="#0f172a" text-anchor="middle" data-state-label="delivered"><tspan x="307" y="790">delivered</tspan></text><polyline class="state-transition" data-state-from="Delivered" data-state-to="[*]__end" points="245,830 245,876 228,876 228,923" fill="none" stroke="#1e293b" stroke-width="2" marker-end="url(#arrow)"/><polyline class="state-transition" data-state-from="Cancelled" data-state-to="[*]__end" points="115,636 115,773 215,773 215,910" fill="none" stroke="#1e293b" stroke-width="2" marker-end="url(#arrow)"/><metadata data-state-node="fork1" data-state-kind="fork" data-state-stereotype="fork" /><rect x="173" y="280" width="168" height="8" fill="#0f172a"/><metadata data-state-node="join1" data-state-kind="join" data-state-stereotype="join" /><rect x="173" y="612" width="168" height="8" fill="#0f172a"/><metadata data-state-node="choice1" data-state-kind="choice" data-state-stereotype="choice" /><polygon points="173,422 193,442 173,462 153,442" fill="#f6f6f6" stroke="#1e293b" stroke-width="2"/><metadata data-state-node="Pending" data-state-kind="normal" /><rect x="219" y="166" width="140" height="54" rx="8" ry="8" fill="#f6f6f6" stroke="#1e293b" stroke-width="1.5"/><text x="289" y="190" font-family="monospace" font-size="13" font-weight="600" text-anchor="middle" fill="#0f172a">Pending</text><line x1="219" y1="202" x2="359" y2="202" stroke="#1e293b" stroke-width="1"/><text x="225" y="214" font-family="monospace" font-size="10" font-style="italic" fill="#0f172a">entry / notifyCustomer</text><metadata data-state-node="Fulfillment" data-state-kind="normal" /><rect x="255" y="348" width="172" height="188" rx="8" ry="8" fill="#f6f6f6" stroke="#1e293b" stroke-width="1.5"/><text x="341" y="368" font-family="monospace" font-size="13" font-weight="600" text-anchor="middle" fill="#0f172a">Fulfillment</text><polyline class="state-transition" data-state-from="Picking" data-state-to="Packing" points="341,424 341,484" fill="none" stroke="#1e293b" stroke-width="2" marker-end="url(#arrow)"/><text x="333" y="464" font-family="monospace" font-size="11" fill="#0f172a" text-anchor="middle" data-state-label="picked"><tspan x="333" y="464">picked</tspan></text><metadata data-state-node="Picking" data-state-kind="normal" /><rect x="271" y="384" width="140" height="40" rx="8" ry="8" fill="#f6f6f6" stroke="#1e293b" stroke-width="1.5"/><text x="341" y="408" font-family="monospace" font-size="13" font-weight="600" text-anchor="middle" fill="#0f172a">Picking</text><metadata data-state-node="Packing" data-state-kind="normal" /><rect x="271" y="484" width="140" height="40" rx="8" ry="8" fill="#f6f6f6" stroke="#1e293b" stroke-width="1.5"/><text x="341" y="508" font-family="monospace" font-size="13" font-weight="600" text-anchor="middle" fill="#0f172a">Packing</text><metadata data-state-node="Shipped" data-state-kind="normal" /><rect x="245" y="696" width="140" height="54" rx="8" ry="8" fill="#f6f6f6" stroke="#1e293b" stroke-width="1.5"/><text x="315" y="720" font-family="monospace" font-size="13" font-weight="600" text-anchor="middle" fill="#0f172a">Shipped</text><line x1="245" y1="732" x2="385" y2="732" stroke="#1e293b" stroke-width="1"/><text x="251" y="744" font-family="monospace" font-size="10" font-style="italic" fill="#0f172a">entry / sendTrackingEmail</text><metadata data-state-node="Delivered" data-state-kind="normal" /><rect x="245" y="810" width="140" height="40" rx="8" ry="8" fill="#f6f6f6" stroke="#1e293b" stroke-width="1.5"/><text x="315" y="834" font-family="monospace" font-size="13" font-weight="600" text-anchor="middle" fill="#0f172a">Delivered</text><metadata data-state-node="Cancelled" data-state-kind="normal" /><rect x="45" y="596" width="140" height="40" rx="8" ry="8" fill="#f6f6f6" stroke="#1e293b" stroke-width="1.5"/><text x="115" y="620" font-family="monospace" font-size="13" font-weight="600" text-anchor="middle" fill="#0f172a">Cancelled</text><metadata data-state-node="[*]" data-state-kind="start-end" /><circle cx="289" cy="93" r="12" fill="#0f172a"/><metadata data-state-node="[*]__end" data-state-kind="end" /><circle cx="215" cy="923" r="12" fill="#f6f6f6" stroke="#1e293b" stroke-width="2"/><circle cx="215" cy="923" r="8" fill="#0f172a"/></svg>