<svg xmlns="http://www.w3.org/2000/svg" width="460" height="690" viewBox="0 0 460 690"><rect width="100%" height="100%" fill="white"/><defs><marker id="arrow" markerWidth="8" markerHeight="8" refX="6" refY="3" orient="auto"><path d="M0,0 L0,6 L8,3 z" fill="#333"/></marker></defs><text x="230" y="28" font-family="monospace" font-size="16" font-weight="600" text-anchor="middle">Order State Machine</text><line x1="100" y1="520" x2="300" y2="230" stroke="#333" stroke-width="1.5" marker-end="url(#arrow)"/><line x1="230" y1="210" x2="170" y2="100" stroke="#333" stroke-width="1.5" marker-end="url(#arrow)"/><text x="200" y="149" font-family="monospace" font-size="11" fill="#555" text-anchor="middle">confirm</text><line x1="100" y1="120" x2="100" y2="300" stroke="#333" stroke-width="1.5" marker-end="url(#arrow)"/><line x1="100" y1="120" x2="100" y2="190" stroke="#333" stroke-width="1.5" marker-end="url(#arrow)"/><line x1="100" y1="230" x2="300" y2="410" stroke="#333" stroke-width="1.5" marker-end="url(#arrow)"/><text x="200" y="314" font-family="monospace" font-size="11" fill="#555" text-anchor="middle">out of stock</text><line x1="100" y1="300" x2="300" y2="120" stroke="#333" stroke-width="1.5" marker-end="url(#arrow)"/><text x="200" y="204" font-family="monospace" font-size="11" fill="#555" text-anchor="middle">packed</text><line x1="170" y1="210" x2="230" y2="100" stroke="#333" stroke-width="1.5" marker-end="url(#arrow)"/><text x="200" y="149" font-family="monospace" font-size="11" fill="#555" text-anchor="middle">in stock</text><line x1="300" y1="120" x2="300" y2="300" stroke="#333" stroke-width="1.5" marker-end="url(#arrow)"/><line x1="230" y1="320" x2="170" y2="430" stroke="#333" stroke-width="1.5" marker-end="url(#arrow)"/><text x="200" y="369" font-family="monospace" font-size="11" fill="#555" text-anchor="middle">delivered</text><line x1="100" y1="450" x2="100" y2="520" stroke="#333" stroke-width="1.5" marker-end="url(#arrow)"/><line x1="230" y1="430" x2="170" y2="540" stroke="#333" stroke-width="1.5" marker-end="url(#arrow)"/><rect x="30" y="96" width="140" height="8" fill="#1e293b"/><text x="100" y="118" font-family="monospace" font-size="11" fill="#475569" text-anchor="middle">fork</text><rect x="230" y="96" width="140" height="8" fill="#1e293b"/><text x="300" y="118" font-family="monospace" font-size="11" fill="#475569" text-anchor="middle">join</text><polygon points="100,192 118,210 100,228 82,210" fill="white" stroke="#1e293b" stroke-width="2"/><rect x="230" y="190" width="140" height="54" rx="8" ry="8" fill="#f8fafc" stroke="#64748b" stroke-width="1.5"/><text x="300" y="214" font-family="monospace" font-size="13" font-weight="600" text-anchor="middle" fill="#0f172a">Pending</text><line x1="230" y1="226" x2="370" y2="226" stroke="#64748b" stroke-width="1"/><text x="236" y="240" font-family="monospace" font-size="10" font-style="italic" fill="#334155">entry / notifyCustomer</text><rect x="30" y="300" width="140" height="40" rx="8" ry="8" fill="#f8fafc" stroke="#64748b" stroke-width="1.5"/><text x="100" y="324" font-family="monospace" font-size="13" font-weight="600" text-anchor="middle" fill="#0f172a">Fulfillment</text><rect x="38" y="344" width="140" height="40" rx="8" ry="8" fill="#f8fafc" stroke="#64748b" stroke-width="1.5"/><text x="108" y="368" font-family="monospace" font-size="13" font-weight="600" text-anchor="middle" fill="#0f172a">Picking</text><rect x="38" y="392" width="140" height="40" rx="8" ry="8" fill="#f8fafc" stroke="#64748b" stroke-width="1.5"/><text x="108" y="416" font-family="monospace" font-size="13" font-weight="600" text-anchor="middle" fill="#0f172a">Packing</text><rect x="230" y="300" width="140" height="54" rx="8" ry="8" fill="#f8fafc" stroke="#64748b" stroke-width="1.5"/><text x="300" y="324" font-family="monospace" font-size="13" font-weight="600" text-anchor="middle" fill="#0f172a">Shipped</text><line x1="230" y1="336" x2="370" y2="336" stroke="#64748b" stroke-width="1"/><text x="236" y="350" font-family="monospace" font-size="10" font-style="italic" fill="#334155">entry / sendTrackingEmail</text><rect x="30" y="410" width="140" height="40" rx="8" ry="8" fill="#f8fafc" stroke="#64748b" stroke-width="1.5"/><text x="100" y="434" font-family="monospace" font-size="13" font-weight="600" text-anchor="middle" fill="#0f172a">Delivered</text><rect x="230" y="410" width="140" height="40" rx="8" ry="8" fill="#f8fafc" stroke="#64748b" stroke-width="1.5"/><text x="300" y="434" font-family="monospace" font-size="13" font-weight="600" text-anchor="middle" fill="#0f172a">Cancelled</text><circle cx="100" cy="540" r="12" fill="#1e293b"/></svg>