<svg xmlns="http://www.w3.org/2000/svg" width="578" height="1219" viewBox="0 0 578 1219"><rect width="100%" height="100%" fill="white"/><defs><marker id="arrow" markerWidth="8" markerHeight="8" refX="6" refY="3" orient="auto"><path d="M0,0 L0,6 L8,3 z" fill="#1e293b"/></marker></defs><text x="289" y="28" font-family="monospace" font-size="16" font-weight="600" text-anchor="middle" fill="#0f172a">Three-level composite state hierarchy</text><path class="state-transition" data-state-from="[*]" data-state-to="Device" d="M 203 106 L 203 136 L 324 136 L 324 166" fill="none" stroke="#1e293b" stroke-width="2" marker-end="url(#arrow)"/><metadata data-state-node="Device" data-state-kind="normal" /><rect x="190" y="166" width="268" height="966" rx="8" ry="8" fill="#f6f6f6" stroke="#1e293b" stroke-width="1.5"/><text x="324" y="186" font-family="monospace" font-size="13" font-weight="600" text-anchor="middle" fill="#0f172a">Device</text><path class="state-transition" data-state-from="Off" data-state-to="On" d="M 334 242 Q 334 272 334 302" fill="none" stroke="#1e293b" stroke-width="2" marker-end="url(#arrow)"/><text x="316" y="144" font-family="monospace" font-size="11" fill="#0f172a" text-anchor="middle" data-state-label="power on"><tspan x="316" y="144">power on</tspan></text><path class="state-transition" data-state-from="On" data-state-to="Off" d="M 314 302 Q 314 272 314 242" fill="none" stroke="#1e293b" stroke-width="2" marker-end="url(#arrow)"/><text x="146" y="288" font-family="monospace" font-size="11" fill="#0f172a" text-anchor="middle" data-state-label="power off"><tspan x="146" y="288">power off</tspan></text><metadata data-state-node="Off" data-state-kind="normal" /><rect x="254" y="202" width="140" height="40" rx="8" ry="8" fill="#f6f6f6" stroke="#1e293b" stroke-width="1.5"/><text x="324" y="226" font-family="monospace" font-size="13" font-weight="600" text-anchor="middle" fill="#0f172a">Off</text><metadata data-state-node="On" data-state-kind="normal" /><rect x="206" y="302" width="236" height="818" rx="8" ry="8" fill="#f6f6f6" stroke="#1e293b" stroke-width="1.5"/><text x="324" y="322" font-family="monospace" font-size="13" font-weight="600" text-anchor="middle" fill="#0f172a">On</text><path class="state-transition" data-state-from="Initializing" data-state-to="Running" d="M 324 760 L 324 820" fill="none" stroke="#1e293b" stroke-width="2" marker-end="url(#arrow)"/><text x="306" y="800" font-family="monospace" font-size="11" fill="#0f172a" text-anchor="middle" data-state-label="init complete"><tspan x="306" y="800">init complete</tspan></text><path class="state-transition" data-state-from="Running" data-state-to="Sleeping" d="M 334 1008 Q 334 1038 334 1068" fill="none" stroke="#1e293b" stroke-width="2" marker-end="url(#arrow)"/><text x="316" y="1156" font-family="monospace" font-size="11" fill="#0f172a" text-anchor="middle" data-state-label="idle timeout"><tspan x="316" y="1156">idle timeout</tspan></text><path class="state-transition" data-state-from="Sleeping" data-state-to="Running" d="M 314 1068 Q 314 1038 314 1008" fill="none" stroke="#1e293b" stroke-width="2" marker-end="url(#arrow)"/><text x="406" y="1174" font-family="monospace" font-size="11" fill="#0f172a" text-anchor="middle" data-state-label="wake event"><tspan x="406" y="1174">wake event</tspan></text><metadata data-state-node="Initializing" data-state-kind="normal" /><rect x="222" y="338" width="204" height="422" rx="8" ry="8" fill="#f6f6f6" stroke="#1e293b" stroke-width="1.5"/><text x="324" y="358" font-family="monospace" font-size="13" font-weight="600" text-anchor="middle" fill="#0f172a">Initializing</text><path class="state-transition" data-state-from="LoadingFirmware" data-state-to="SelfTest" d="M 324 414 L 324 474" fill="none" stroke="#1e293b" stroke-width="2" marker-end="url(#arrow)"/><text x="306" y="316" font-family="monospace" font-size="11" fill="#0f172a" text-anchor="middle" data-state-label="firmware loaded"><tspan x="306" y="316">firmware loaded</tspan></text><path class="state-transition" data-state-from="SelfTest" data-state-to="[*]__end__Initializing" d="M 324 662 L 324 722" fill="none" stroke="#1e293b" stroke-width="2" marker-end="url(#arrow)"/><text x="208" y="804" font-family="monospace" font-size="11" fill="#0f172a" text-anchor="middle" data-state-label="tests passed"><tspan x="208" y="804">tests passed</tspan></text><metadata data-state-node="LoadingFirmware" data-state-kind="normal" /><rect x="254" y="374" width="140" height="40" rx="8" ry="8" fill="#f6f6f6" stroke="#1e293b" stroke-width="1.5"/><text x="324" y="398" font-family="monospace" font-size="13" font-weight="600" text-anchor="middle" fill="#0f172a">LoadingFirmware</text><metadata data-state-node="SelfTest" data-state-kind="normal" /><rect x="238" y="474" width="172" height="188" rx="8" ry="8" fill="#f6f6f6" stroke="#1e293b" stroke-width="1.5"/><text x="324" y="494" font-family="monospace" font-size="13" font-weight="600" text-anchor="middle" fill="#0f172a">SelfTest</text><path class="state-transition" data-state-from="RamCheck" data-state-to="StorageCheck" d="M 324 550 L 324 610" fill="none" stroke="#1e293b" stroke-width="2" marker-end="url(#arrow)"/><text x="156" y="572" font-family="monospace" font-size="11" fill="#0f172a" text-anchor="middle" data-state-label="ram ok"><tspan x="156" y="572">ram ok</tspan></text><metadata data-state-node="RamCheck" data-state-kind="normal" /><rect x="254" y="510" width="140" height="40" rx="8" ry="8" fill="#f6f6f6" stroke="#1e293b" stroke-width="1.5"/><text x="324" y="534" font-family="monospace" font-size="13" font-weight="600" text-anchor="middle" fill="#0f172a">RamCheck</text><metadata data-state-node="StorageCheck" data-state-kind="normal" /><rect x="254" y="610" width="140" height="40" rx="8" ry="8" fill="#f6f6f6" stroke="#1e293b" stroke-width="1.5"/><text x="324" y="634" font-family="monospace" font-size="13" font-weight="600" text-anchor="middle" fill="#0f172a">StorageCheck</text><metadata data-state-node="[*]__end__Initializing" data-state-kind="end" /><circle cx="324" cy="735" r="12" fill="#f6f6f6" stroke="#1e293b" stroke-width="2"/><circle cx="324" cy="735" r="8" fill="#0f172a"/><metadata data-state-node="Running" data-state-kind="normal" /><rect x="238" y="820" width="172" height="188" rx="8" ry="8" fill="#f6f6f6" stroke="#1e293b" stroke-width="1.5"/><text x="324" y="840" font-family="monospace" font-size="13" font-weight="600" text-anchor="middle" fill="#0f172a">Running</text><path class="state-transition" data-state-from="Idle" data-state-to="Busy" d="M 334 896 Q 334 926 334 956" fill="none" stroke="#1e293b" stroke-width="2" marker-end="url(#arrow)"/><text x="502" y="918" font-family="monospace" font-size="11" fill="#0f172a" text-anchor="middle" data-state-label="task received"><tspan x="502" y="918">task received</tspan></text><path class="state-transition" data-state-from="Busy" data-state-to="Idle" d="M 314 956 Q 314 926 314 896" fill="none" stroke="#1e293b" stroke-width="2" marker-end="url(#arrow)"/><text x="146" y="942" font-family="monospace" font-size="11" fill="#0f172a" text-anchor="middle" data-state-label="task complete"><tspan x="146" y="942">task complete</tspan></text><metadata data-state-node="Idle" data-state-kind="normal" /><rect x="254" y="856" width="140" height="40" rx="8" ry="8" fill="#f6f6f6" stroke="#1e293b" stroke-width="1.5"/><text x="324" y="880" font-family="monospace" font-size="13" font-weight="600" text-anchor="middle" fill="#0f172a">Idle</text><metadata data-state-node="Busy" data-state-kind="normal" /><rect x="254" y="956" width="140" height="40" rx="8" ry="8" fill="#f6f6f6" stroke="#1e293b" stroke-width="1.5"/><text x="324" y="980" font-family="monospace" font-size="13" font-weight="600" text-anchor="middle" fill="#0f172a">Busy</text><metadata data-state-node="Sleeping" data-state-kind="normal" /><rect x="254" y="1068" width="140" height="40" rx="8" ry="8" fill="#f6f6f6" stroke="#1e293b" stroke-width="1.5"/><text x="324" y="1092" font-family="monospace" font-size="13" font-weight="600" text-anchor="middle" fill="#0f172a">Sleeping</text><metadata data-state-node="[*]" data-state-kind="start-end" /><circle cx="203" cy="93" r="12" fill="#0f172a"/></svg>