<svg xmlns="http://www.w3.org/2000/svg" width="418" height="1174" viewBox="0 0 418 1174"><rect width="100%" height="100%" fill="white"/><defs><marker id="arrow" markerWidth="8" markerHeight="8" refX="6" refY="3" orient="auto"><path d="M0,0 L0,6 L8,3 z" fill="#1e293b"/></marker></defs><text x="209" y="28" font-family="monospace" font-size="16" font-weight="600" text-anchor="middle" fill="#0f172a">Three-level composite state hierarchy</text><line class="state-transition" data-state-from="SelfTest" data-state-to="[*]__end__Initializing" x1="164" y1="662" x2="43" y2="1106" stroke="#1e293b" stroke-width="2" marker-end="url(#arrow)"/><text x="-27" y="836" font-family="monospace" font-size="11" fill="#0f172a" text-anchor="middle" data-state-label="tests passed"><tspan x="-27" y="836">tests passed</tspan></text><line class="state-transition" data-state-from="[*]" data-state-to="Device" x1="43" y1="106" x2="164" y2="166" stroke="#1e293b" stroke-width="2" marker-end="url(#arrow)"/><metadata data-state-node="[*]__end__Initializing" data-state-kind="end" /><circle cx="43" cy="1119" r="12" fill="#f6f6f6" stroke="#1e293b" stroke-width="2"/><circle cx="43" cy="1119" r="8" fill="#0f172a"/><metadata data-state-node="Device" data-state-kind="normal" /><rect x="30" y="166" width="268" height="880" rx="8" ry="8" fill="#f6f6f6" stroke="#1e293b" stroke-width="1.5"/><text x="164" y="186" font-family="monospace" font-size="13" font-weight="600" text-anchor="middle" fill="#0f172a">Device</text><path class="state-transition" data-state-from="Off" data-state-to="On" d="M 174 242 Q 174 272 174 302" fill="none" stroke="#1e293b" stroke-width="2" marker-end="url(#arrow)"/><text x="156" y="144" font-family="monospace" font-size="11" fill="#0f172a" text-anchor="middle" data-state-label="power on"><tspan x="156" y="144">power on</tspan></text><path class="state-transition" data-state-from="On" data-state-to="Off" d="M 154 302 Q 154 272 154 242" fill="none" stroke="#1e293b" stroke-width="2" marker-end="url(#arrow)"/><text x="-14" y="288" font-family="monospace" font-size="11" fill="#0f172a" text-anchor="middle" data-state-label="power off"><tspan x="-14" y="288">power off</tspan></text><metadata data-state-node="Off" data-state-kind="normal" /><rect x="94" y="202" width="140" height="40" rx="8" ry="8" fill="#f6f6f6" stroke="#1e293b" stroke-width="1.5"/><text x="164" y="226" font-family="monospace" font-size="13" font-weight="600" text-anchor="middle" fill="#0f172a">Off</text><metadata data-state-node="On" data-state-kind="normal" /><rect x="46" y="302" width="236" height="732" rx="8" ry="8" fill="#f6f6f6" stroke="#1e293b" stroke-width="1.5"/><text x="164" y="322" font-family="monospace" font-size="13" font-weight="600" text-anchor="middle" fill="#0f172a">On</text><line class="state-transition" data-state-from="Initializing" data-state-to="Running" x1="164" y1="674" x2="164" y2="734" stroke="#1e293b" stroke-width="2" marker-end="url(#arrow)"/><text x="146" y="714" font-family="monospace" font-size="11" fill="#0f172a" text-anchor="middle" data-state-label="init complete"><tspan x="146" y="714">init complete</tspan></text><path class="state-transition" data-state-from="Running" data-state-to="Sleeping" d="M 174 922 Q 174 952 174 982" fill="none" stroke="#1e293b" stroke-width="2" marker-end="url(#arrow)"/><text x="156" y="1070" font-family="monospace" font-size="11" fill="#0f172a" text-anchor="middle" data-state-label="idle timeout"><tspan x="156" y="1070">idle timeout</tspan></text><path class="state-transition" data-state-from="Sleeping" data-state-to="Running" d="M 154 982 Q 154 952 154 922" fill="none" stroke="#1e293b" stroke-width="2" marker-end="url(#arrow)"/><text x="246" y="1088" font-family="monospace" font-size="11" fill="#0f172a" text-anchor="middle" data-state-label="wake event"><tspan x="246" y="1088">wake event</tspan></text><metadata data-state-node="Initializing" data-state-kind="normal" /><rect x="62" y="338" width="204" height="336" rx="8" ry="8" fill="#f6f6f6" stroke="#1e293b" stroke-width="1.5"/><text x="164" y="358" font-family="monospace" font-size="13" font-weight="600" text-anchor="middle" fill="#0f172a">Initializing</text><line class="state-transition" data-state-from="LoadingFirmware" data-state-to="SelfTest" x1="164" y1="414" x2="164" y2="474" stroke="#1e293b" stroke-width="2" marker-end="url(#arrow)"/><text x="146" y="316" font-family="monospace" font-size="11" fill="#0f172a" text-anchor="middle" data-state-label="firmware loaded"><tspan x="146" y="316">firmware loaded</tspan></text><metadata data-state-node="LoadingFirmware" data-state-kind="normal" /><rect x="94" y="374" width="140" height="40" rx="8" ry="8" fill="#f6f6f6" stroke="#1e293b" stroke-width="1.5"/><text x="164" y="398" font-family="monospace" font-size="13" font-weight="600" text-anchor="middle" fill="#0f172a">LoadingFirmware</text><metadata data-state-node="SelfTest" data-state-kind="normal" /><rect x="78" y="474" width="172" height="188" rx="8" ry="8" fill="#f6f6f6" stroke="#1e293b" stroke-width="1.5"/><text x="164" y="494" font-family="monospace" font-size="13" font-weight="600" text-anchor="middle" fill="#0f172a">SelfTest</text><line class="state-transition" data-state-from="RamCheck" data-state-to="StorageCheck" x1="164" y1="550" x2="164" y2="610" stroke="#1e293b" stroke-width="2" marker-end="url(#arrow)"/><text x="-4" y="572" font-family="monospace" font-size="11" fill="#0f172a" text-anchor="middle" data-state-label="ram ok"><tspan x="-4" y="572">ram ok</tspan></text><metadata data-state-node="RamCheck" data-state-kind="normal" /><rect x="94" y="510" width="140" height="40" rx="8" ry="8" fill="#f6f6f6" stroke="#1e293b" stroke-width="1.5"/><text x="164" y="534" font-family="monospace" font-size="13" font-weight="600" text-anchor="middle" fill="#0f172a">RamCheck</text><metadata data-state-node="StorageCheck" data-state-kind="normal" /><rect x="94" y="610" width="140" height="40" rx="8" ry="8" fill="#f6f6f6" stroke="#1e293b" stroke-width="1.5"/><text x="164" y="634" font-family="monospace" font-size="13" font-weight="600" text-anchor="middle" fill="#0f172a">StorageCheck</text><metadata data-state-node="Running" data-state-kind="normal" /><rect x="78" y="734" width="172" height="188" rx="8" ry="8" fill="#f6f6f6" stroke="#1e293b" stroke-width="1.5"/><text x="164" y="754" font-family="monospace" font-size="13" font-weight="600" text-anchor="middle" fill="#0f172a">Running</text><path class="state-transition" data-state-from="Idle" data-state-to="Busy" d="M 174 810 Q 174 840 174 870" fill="none" stroke="#1e293b" stroke-width="2" marker-end="url(#arrow)"/><text x="342" y="832" font-family="monospace" font-size="11" fill="#0f172a" text-anchor="middle" data-state-label="task received"><tspan x="342" y="832">task received</tspan></text><path class="state-transition" data-state-from="Busy" data-state-to="Idle" d="M 154 870 Q 154 840 154 810" fill="none" stroke="#1e293b" stroke-width="2" marker-end="url(#arrow)"/><text x="-14" y="874" font-family="monospace" font-size="11" fill="#0f172a" text-anchor="middle" data-state-label="task complete"><tspan x="-14" y="874">task complete</tspan></text><metadata data-state-node="Idle" data-state-kind="normal" /><rect x="94" y="770" width="140" height="40" rx="8" ry="8" fill="#f6f6f6" stroke="#1e293b" stroke-width="1.5"/><text x="164" y="794" font-family="monospace" font-size="13" font-weight="600" text-anchor="middle" fill="#0f172a">Idle</text><metadata data-state-node="Busy" data-state-kind="normal" /><rect x="94" y="870" width="140" height="40" rx="8" ry="8" fill="#f6f6f6" stroke="#1e293b" stroke-width="1.5"/><text x="164" y="894" font-family="monospace" font-size="13" font-weight="600" text-anchor="middle" fill="#0f172a">Busy</text><metadata data-state-node="Sleeping" data-state-kind="normal" /><rect x="94" y="982" width="140" height="40" rx="8" ry="8" fill="#f6f6f6" stroke="#1e293b" stroke-width="1.5"/><text x="164" y="1006" font-family="monospace" font-size="13" font-weight="600" text-anchor="middle" fill="#0f172a">Sleeping</text><metadata data-state-node="[*]" data-state-kind="start-end" /><circle cx="43" cy="93" r="12" fill="#0f172a"/></svg>