<svg xmlns="http://www.w3.org/2000/svg" width="563" height="1247" viewBox="0 0 563 1247"><rect width="100%" height="100%" fill="white"/><defs><marker id="arrow" markerWidth="8" markerHeight="8" refX="6" refY="3" orient="auto"><path d="M0,0 L0,6 L8,3 z" fill="#1e293b"/></marker></defs><text x="281" y="28" font-family="monospace" font-size="16" font-weight="600" text-anchor="middle" fill="#0f172a">Three-level composite state hierarchy</text><path class="state-transition" data-state-from="[*]" data-state-to="Device" d="M 172 106 L 172 136 L 293 136 L 293 166" fill="none" stroke="#1e293b" stroke-width="2" marker-end="url(#arrow)"/><metadata data-state-node="Device" data-state-kind="normal" /><rect x="159" y="166" width="268" height="994" rx="8" ry="8" fill="#f6f6f6" stroke="#1e293b" stroke-width="1.5"/><text x="293" y="186" font-family="monospace" font-size="13" font-weight="600" text-anchor="middle" fill="#0f172a">Device</text><line x1="159" y1="194" x2="427" y2="194" stroke="#1e293b" stroke-width="1"/><text x="165" y="206" font-family="monospace" font-size="10" font-style="italic" fill="#0f172a">entry / connect power</text><text x="165" y="220" font-family="monospace" font-size="10" font-style="italic" fill="#0f172a">exit / flush state</text><path class="state-transition" data-state-from="Off" data-state-to="On" d="M 303 270 Q 303 300 303 330" fill="none" stroke="#1e293b" stroke-width="2" marker-end="url(#arrow)"/><text x="267" y="310" font-family="monospace" font-size="11" fill="#0f172a" text-anchor="middle" data-state-label="power on"><tspan x="267" y="310">power on</tspan></text><path class="state-transition" data-state-from="On" data-state-to="Off" d="M 283 330 Q 283 300 283 270" fill="none" stroke="#1e293b" stroke-width="2" marker-end="url(#arrow)"/><text x="335" y="298" font-family="monospace" font-size="11" fill="#0f172a" text-anchor="middle" data-state-label="power off"><tspan x="335" y="298">power off</tspan></text><metadata data-state-node="Off" data-state-kind="normal" /><rect x="223" y="230" width="140" height="40" rx="8" ry="8" fill="#f6f6f6" stroke="#1e293b" stroke-width="1.5"/><text x="293" y="254" font-family="monospace" font-size="13" font-weight="600" text-anchor="middle" fill="#0f172a">Off</text><metadata data-state-node="On" data-state-kind="normal" /><rect x="175" y="330" width="236" height="818" rx="8" ry="8" fill="#f6f6f6" stroke="#1e293b" stroke-width="1.5"/><text x="293" y="350" font-family="monospace" font-size="13" font-weight="600" text-anchor="middle" fill="#0f172a">On</text><path class="state-transition" data-state-from="Initializing" data-state-to="Running" d="M 293 788 L 293 848" fill="none" stroke="#1e293b" stroke-width="2" marker-end="url(#arrow)"/><text x="90" y="810" font-family="monospace" font-size="11" fill="#0f172a" text-anchor="middle" data-state-label="init complete"><tspan x="90" y="810">init complete</tspan></text><path class="state-transition" data-state-from="Running" data-state-to="Sleeping" d="M 303 1036 Q 303 1066 303 1096" fill="none" stroke="#1e293b" stroke-width="2" marker-end="url(#arrow)"/><text x="103" y="1058" font-family="monospace" font-size="11" fill="#0f172a" text-anchor="middle" data-state-label="idle timeout"><tspan x="103" y="1058">idle timeout</tspan></text><path class="state-transition" data-state-from="Sleeping" data-state-to="Running" d="M 283 1096 Q 283 1066 283 1036" fill="none" stroke="#1e293b" stroke-width="2" marker-end="url(#arrow)"/><text x="326" y="1202" font-family="monospace" font-size="11" fill="#0f172a" text-anchor="middle" data-state-label="wake event"><tspan x="326" y="1202">wake event</tspan></text><metadata data-state-node="Initializing" data-state-kind="normal" /><rect x="191" y="366" width="204" height="422" rx="8" ry="8" fill="#f6f6f6" stroke="#1e293b" stroke-width="1.5"/><text x="293" y="386" font-family="monospace" font-size="13" font-weight="600" text-anchor="middle" fill="#0f172a">Initializing</text><path class="state-transition" data-state-from="LoadingFirmware" data-state-to="SelfTest" d="M 293 442 L 293 502" fill="none" stroke="#1e293b" stroke-width="2" marker-end="url(#arrow)"/><text x="83" y="464" font-family="monospace" font-size="11" fill="#0f172a" text-anchor="middle" data-state-label="firmware loaded"><tspan x="83" y="464">firmware loaded</tspan></text><path class="state-transition" data-state-from="SelfTest" data-state-to="[*]__end__Initializing__r0" d="M 293 690 L 293 750" fill="none" stroke="#1e293b" stroke-width="2" marker-end="url(#arrow)"/><text x="93" y="712" font-family="monospace" font-size="11" fill="#0f172a" text-anchor="middle" data-state-label="tests passed"><tspan x="93" y="712">tests passed</tspan></text><metadata data-state-node="LoadingFirmware" data-state-kind="normal" /><rect x="223" y="402" width="140" height="40" rx="8" ry="8" fill="#f6f6f6" stroke="#1e293b" stroke-width="1.5"/><text x="293" y="426" font-family="monospace" font-size="13" font-weight="600" text-anchor="middle" fill="#0f172a">LoadingFirmware</text><metadata data-state-node="SelfTest" data-state-kind="normal" /><rect x="207" y="502" width="172" height="188" rx="8" ry="8" fill="#f6f6f6" stroke="#1e293b" stroke-width="1.5"/><text x="293" y="522" font-family="monospace" font-size="13" font-weight="600" text-anchor="middle" fill="#0f172a">SelfTest</text><path class="state-transition" data-state-from="RamCheck" data-state-to="StorageCheck" d="M 293 578 L 293 638" fill="none" stroke="#1e293b" stroke-width="2" marker-end="url(#arrow)"/><text x="114" y="600" font-family="monospace" font-size="11" fill="#0f172a" text-anchor="middle" data-state-label="ram ok"><tspan x="114" y="600">ram ok</tspan></text><metadata data-state-node="RamCheck" data-state-kind="normal" /><rect x="223" y="538" width="140" height="40" rx="8" ry="8" fill="#f6f6f6" stroke="#1e293b" stroke-width="1.5"/><text x="293" y="562" font-family="monospace" font-size="13" font-weight="600" text-anchor="middle" fill="#0f172a">RamCheck</text><metadata data-state-node="StorageCheck" data-state-kind="normal" /><rect x="223" y="638" width="140" height="40" rx="8" ry="8" fill="#f6f6f6" stroke="#1e293b" stroke-width="1.5"/><text x="293" y="662" font-family="monospace" font-size="13" font-weight="600" text-anchor="middle" fill="#0f172a">StorageCheck</text><metadata data-state-node="[*]__end__Initializing__r0" data-state-kind="end" /><circle cx="293" cy="763" r="12" fill="#f6f6f6" stroke="#1e293b" stroke-width="2"/><circle cx="293" cy="763" r="8" fill="#0f172a"/><metadata data-state-node="Running" data-state-kind="normal" /><rect x="207" y="848" width="172" height="188" rx="8" ry="8" fill="#f6f6f6" stroke="#1e293b" stroke-width="1.5"/><text x="293" y="868" font-family="monospace" font-size="13" font-weight="600" text-anchor="middle" fill="#0f172a">Running</text><path class="state-transition" data-state-from="Idle" data-state-to="Busy" d="M 303 924 Q 303 954 303 984" fill="none" stroke="#1e293b" stroke-width="2" marker-end="url(#arrow)"/><text x="100" y="946" font-family="monospace" font-size="11" fill="#0f172a" text-anchor="middle" data-state-label="task received"><tspan x="100" y="946">task received</tspan></text><path class="state-transition" data-state-from="Busy" data-state-to="Idle" d="M 283 984 Q 283 954 283 924" fill="none" stroke="#1e293b" stroke-width="2" marker-end="url(#arrow)"/><text x="487" y="970" font-family="monospace" font-size="11" fill="#0f172a" text-anchor="middle" data-state-label="task complete"><tspan x="487" y="970">task complete</tspan></text><metadata data-state-node="Idle" data-state-kind="normal" /><rect x="223" y="884" width="140" height="40" rx="8" ry="8" fill="#f6f6f6" stroke="#1e293b" stroke-width="1.5"/><text x="293" y="908" font-family="monospace" font-size="13" font-weight="600" text-anchor="middle" fill="#0f172a">Idle</text><metadata data-state-node="Busy" data-state-kind="normal" /><rect x="223" y="984" width="140" height="40" rx="8" ry="8" fill="#f6f6f6" stroke="#1e293b" stroke-width="1.5"/><text x="293" y="1008" font-family="monospace" font-size="13" font-weight="600" text-anchor="middle" fill="#0f172a">Busy</text><metadata data-state-node="Sleeping" data-state-kind="normal" /><rect x="223" y="1096" width="140" height="40" rx="8" ry="8" fill="#f6f6f6" stroke="#1e293b" stroke-width="1.5"/><text x="293" y="1120" font-family="monospace" font-size="13" font-weight="600" text-anchor="middle" fill="#0f172a">Sleeping</text><metadata data-state-node="[*]" data-state-kind="start-end" /><circle cx="172" cy="93" r="12" fill="#0f172a"/></svg>