<svg xmlns="http://www.w3.org/2000/svg" width="507" height="1219" viewBox="0 0 507 1219"><rect width="100%" height="100%" fill="white"/><defs><marker id="arrow" markerWidth="8" markerHeight="8" refX="6" refY="3" orient="auto"><path d="M0,0 L0,6 L8,3 z" fill="#1e293b"/></marker></defs><text x="253" y="28" font-family="monospace" font-size="16" font-weight="600" text-anchor="middle" fill="#0f172a">Three-level composite state hierarchy</text><path class="state-transition" data-state-from="[*]" data-state-to="Device" d="M 132 106 L 132 136 L 253 136 L 253 166" fill="none" stroke="#1e293b" stroke-width="2" marker-end="url(#arrow)"/><metadata data-state-node="Device" data-state-kind="normal" /><rect x="119" y="166" width="268" height="966" rx="8" ry="8" fill="#f6f6f6" stroke="#1e293b" stroke-width="1.5"/><text x="253" y="186" font-family="monospace" font-size="13" font-weight="600" text-anchor="middle" fill="#0f172a">Device</text><path class="state-transition" data-state-from="Off" data-state-to="On" d="M 263 242 Q 263 272 263 302" fill="none" stroke="#1e293b" stroke-width="2" marker-end="url(#arrow)"/><text x="245" y="144" font-family="monospace" font-size="11" fill="#0f172a" text-anchor="middle" data-state-label="power on"><tspan x="245" y="144">power on</tspan></text><path class="state-transition" data-state-from="On" data-state-to="Off" d="M 243 302 Q 243 272 243 242" fill="none" stroke="#1e293b" stroke-width="2" marker-end="url(#arrow)"/><text x="75" y="288" font-family="monospace" font-size="11" fill="#0f172a" text-anchor="middle" data-state-label="power off"><tspan x="75" y="288">power off</tspan></text><metadata data-state-node="Off" data-state-kind="normal" /><rect x="183" y="202" width="140" height="40" rx="8" ry="8" fill="#f6f6f6" stroke="#1e293b" stroke-width="1.5"/><text x="253" y="226" font-family="monospace" font-size="13" font-weight="600" text-anchor="middle" fill="#0f172a">Off</text><metadata data-state-node="On" data-state-kind="normal" /><rect x="135" y="302" width="236" height="818" rx="8" ry="8" fill="#f6f6f6" stroke="#1e293b" stroke-width="1.5"/><text x="253" y="322" font-family="monospace" font-size="13" font-weight="600" text-anchor="middle" fill="#0f172a">On</text><path class="state-transition" data-state-from="Initializing" data-state-to="Running" d="M 253 760 L 253 820" fill="none" stroke="#1e293b" stroke-width="2" marker-end="url(#arrow)"/><text x="235" y="800" font-family="monospace" font-size="11" fill="#0f172a" text-anchor="middle" data-state-label="init complete"><tspan x="235" y="800">init complete</tspan></text><path class="state-transition" data-state-from="Running" data-state-to="Sleeping" d="M 263 1008 Q 263 1038 263 1068" fill="none" stroke="#1e293b" stroke-width="2" marker-end="url(#arrow)"/><text x="245" y="1156" font-family="monospace" font-size="11" fill="#0f172a" text-anchor="middle" data-state-label="idle timeout"><tspan x="245" y="1156">idle timeout</tspan></text><path class="state-transition" data-state-from="Sleeping" data-state-to="Running" d="M 243 1068 Q 243 1038 243 1008" fill="none" stroke="#1e293b" stroke-width="2" marker-end="url(#arrow)"/><text x="335" y="1174" font-family="monospace" font-size="11" fill="#0f172a" text-anchor="middle" data-state-label="wake event"><tspan x="335" y="1174">wake event</tspan></text><metadata data-state-node="Initializing" data-state-kind="normal" /><rect x="151" y="338" width="204" height="422" rx="8" ry="8" fill="#f6f6f6" stroke="#1e293b" stroke-width="1.5"/><text x="253" y="358" font-family="monospace" font-size="13" font-weight="600" text-anchor="middle" fill="#0f172a">Initializing</text><path class="state-transition" data-state-from="LoadingFirmware" data-state-to="SelfTest" d="M 253 414 L 253 474" fill="none" stroke="#1e293b" stroke-width="2" marker-end="url(#arrow)"/><text x="235" y="316" font-family="monospace" font-size="11" fill="#0f172a" text-anchor="middle" data-state-label="firmware loaded"><tspan x="235" y="316">firmware loaded</tspan></text><path class="state-transition" data-state-from="SelfTest" data-state-to="[*]__end__Initializing__r0" d="M 253 662 L 253 722" fill="none" stroke="#1e293b" stroke-width="2" marker-end="url(#arrow)"/><text x="137" y="804" font-family="monospace" font-size="11" fill="#0f172a" text-anchor="middle" data-state-label="tests passed"><tspan x="137" y="804">tests passed</tspan></text><metadata data-state-node="LoadingFirmware" data-state-kind="normal" /><rect x="183" y="374" width="140" height="40" rx="8" ry="8" fill="#f6f6f6" stroke="#1e293b" stroke-width="1.5"/><text x="253" y="398" font-family="monospace" font-size="13" font-weight="600" text-anchor="middle" fill="#0f172a">LoadingFirmware</text><metadata data-state-node="SelfTest" data-state-kind="normal" /><rect x="167" y="474" width="172" height="188" rx="8" ry="8" fill="#f6f6f6" stroke="#1e293b" stroke-width="1.5"/><text x="253" y="494" font-family="monospace" font-size="13" font-weight="600" text-anchor="middle" fill="#0f172a">SelfTest</text><path class="state-transition" data-state-from="RamCheck" data-state-to="StorageCheck" d="M 253 550 L 253 610" fill="none" stroke="#1e293b" stroke-width="2" marker-end="url(#arrow)"/><text x="85" y="572" font-family="monospace" font-size="11" fill="#0f172a" text-anchor="middle" data-state-label="ram ok"><tspan x="85" y="572">ram ok</tspan></text><metadata data-state-node="RamCheck" data-state-kind="normal" /><rect x="183" y="510" width="140" height="40" rx="8" ry="8" fill="#f6f6f6" stroke="#1e293b" stroke-width="1.5"/><text x="253" y="534" font-family="monospace" font-size="13" font-weight="600" text-anchor="middle" fill="#0f172a">RamCheck</text><metadata data-state-node="StorageCheck" data-state-kind="normal" /><rect x="183" y="610" width="140" height="40" rx="8" ry="8" fill="#f6f6f6" stroke="#1e293b" stroke-width="1.5"/><text x="253" y="634" font-family="monospace" font-size="13" font-weight="600" text-anchor="middle" fill="#0f172a">StorageCheck</text><metadata data-state-node="[*]__end__Initializing__r0" data-state-kind="end" /><circle cx="253" cy="735" r="12" fill="#f6f6f6" stroke="#1e293b" stroke-width="2"/><circle cx="253" cy="735" r="8" fill="#0f172a"/><metadata data-state-node="Running" data-state-kind="normal" /><rect x="167" y="820" width="172" height="188" rx="8" ry="8" fill="#f6f6f6" stroke="#1e293b" stroke-width="1.5"/><text x="253" y="840" font-family="monospace" font-size="13" font-weight="600" text-anchor="middle" fill="#0f172a">Running</text><path class="state-transition" data-state-from="Idle" data-state-to="Busy" d="M 263 896 Q 263 926 263 956" fill="none" stroke="#1e293b" stroke-width="2" marker-end="url(#arrow)"/><text x="431" y="918" font-family="monospace" font-size="11" fill="#0f172a" text-anchor="middle" data-state-label="task received"><tspan x="431" y="918">task received</tspan></text><path class="state-transition" data-state-from="Busy" data-state-to="Idle" d="M 243 956 Q 243 926 243 896" fill="none" stroke="#1e293b" stroke-width="2" marker-end="url(#arrow)"/><text x="75" y="942" font-family="monospace" font-size="11" fill="#0f172a" text-anchor="middle" data-state-label="task complete"><tspan x="75" y="942">task complete</tspan></text><metadata data-state-node="Idle" data-state-kind="normal" /><rect x="183" y="856" width="140" height="40" rx="8" ry="8" fill="#f6f6f6" stroke="#1e293b" stroke-width="1.5"/><text x="253" y="880" font-family="monospace" font-size="13" font-weight="600" text-anchor="middle" fill="#0f172a">Idle</text><metadata data-state-node="Busy" data-state-kind="normal" /><rect x="183" y="956" width="140" height="40" rx="8" ry="8" fill="#f6f6f6" stroke="#1e293b" stroke-width="1.5"/><text x="253" y="980" font-family="monospace" font-size="13" font-weight="600" text-anchor="middle" fill="#0f172a">Busy</text><metadata data-state-node="Sleeping" data-state-kind="normal" /><rect x="183" y="1068" width="140" height="40" rx="8" ry="8" fill="#f6f6f6" stroke="#1e293b" stroke-width="1.5"/><text x="253" y="1092" font-family="monospace" font-size="13" font-weight="600" text-anchor="middle" fill="#0f172a">Sleeping</text><metadata data-state-node="[*]" data-state-kind="start-end" /><circle cx="132" cy="93" r="12" fill="#0f172a"/></svg>