<svg xmlns="http://www.w3.org/2000/svg" width="232" height="1164" viewBox="0 0 232 1164"><rect width="100%" height="100%" fill="white"/><defs><marker id="arrow" markerWidth="8" markerHeight="8" refX="6" refY="3" orient="auto"><path d="M0,0 L0,6 L8,3 z" fill="#1e293b"/></marker></defs><text x="116" y="28" font-family="monospace" font-size="16" font-weight="600" text-anchor="middle" fill="#0f172a">Parallel regions with shared events</text><line class="state-transition" data-state-from="[*]__in__EqualizerControl" data-state-to="EQOff" x1="43" y1="106" x2="116" y2="884" stroke="#1e293b" stroke-width="2" marker-end="url(#arrow)"/><line class="state-transition" data-state-from="[*]" data-state-to="MediaPlayer" x1="43" y1="192" x2="116" y2="252" stroke="#1e293b" stroke-width="2" marker-end="url(#arrow)"/><line class="state-transition" data-state-from="[*]" data-state-to="VolumeControl" x1="43" y1="192" x2="116" y2="600" stroke="#1e293b" stroke-width="2" marker-end="url(#arrow)"/><line class="state-transition" data-state-from="[*]" data-state-to="EqualizerControl" x1="43" y1="192" x2="116" y2="848" stroke="#1e293b" stroke-width="2" marker-end="url(#arrow)"/><line class="state-transition" data-state-from="MediaPlayer" data-state-to="[*]__end" x1="116" y1="540" x2="43" y2="1096" stroke="#1e293b" stroke-width="2" marker-end="url(#arrow)"/><text x="61" y="827" font-family="monospace" font-size="11" fill="#0f172a" text-anchor="middle" data-state-label="powerOff"><tspan x="61" y="827">powerOff</tspan></text><line class="state-transition" data-state-from="VolumeControl" data-state-to="[*]__end" x1="116" y1="788" x2="43" y2="1096" stroke="#1e293b" stroke-width="2" marker-end="url(#arrow)"/><text x="-13" y="937" font-family="monospace" font-size="11" fill="#0f172a" text-anchor="middle" data-state-label="powerOff"><tspan x="-13" y="937">powerOff</tspan></text><line class="state-transition" data-state-from="EqualizerControl" data-state-to="[*]__end" x1="116" y1="1036" x2="43" y2="1096" stroke="#1e293b" stroke-width="2" marker-end="url(#arrow)"/><text x="55" y="1067" font-family="monospace" font-size="11" fill="#0f172a" text-anchor="middle" data-state-label="powerOff"><tspan x="55" y="1067">powerOff</tspan></text><metadata data-state-node="MediaPlayer" data-state-kind="normal" /><rect x="30" y="252" width="172" height="288" rx="8" ry="8" fill="#f6f6f6" stroke="#1e293b" stroke-width="1.5"/><text x="116" y="272" font-family="monospace" font-size="13" font-weight="600" text-anchor="middle" fill="#0f172a">MediaPlayer</text><path class="state-transition" data-state-from="Playing" data-state-to="Paused" d="M 126 328 Q 126 358 126 388" fill="none" stroke="#1e293b" stroke-width="2" marker-end="url(#arrow)"/><text x="108" y="230" font-family="monospace" font-size="11" fill="#0f172a" text-anchor="middle" data-state-label="pause"><tspan x="108" y="230">pause</tspan></text><path class="state-transition" data-state-from="Paused" data-state-to="Playing" d="M 106 388 Q 106 358 106 328" fill="none" stroke="#1e293b" stroke-width="2" marker-end="url(#arrow)"/><text x="246" y="374" font-family="monospace" font-size="11" fill="#0f172a" text-anchor="middle" data-state-label="resume"><tspan x="246" y="374">resume</tspan></text><path class="state-transition" data-state-from="Playing" data-state-to="Stopped" d="M 126 328 Q 126 408 126 488" fill="none" stroke="#1e293b" stroke-width="2" marker-end="url(#arrow)"/><text x="-14" y="380" font-family="monospace" font-size="11" fill="#0f172a" text-anchor="middle" data-state-label="stop"><tspan x="-14" y="380">stop</tspan></text><line class="state-transition" data-state-from="Paused" data-state-to="Stopped" x1="116" y1="428" x2="116" y2="488" stroke="#1e293b" stroke-width="2" marker-end="url(#arrow)"/><text x="98" y="570" font-family="monospace" font-size="11" fill="#0f172a" text-anchor="middle" data-state-label="stop"><tspan x="98" y="570">stop</tspan></text><path class="state-transition" data-state-from="Stopped" data-state-to="Playing" d="M 106 488 Q 106 408 106 328" fill="none" stroke="#1e293b" stroke-width="2" marker-end="url(#arrow)"/><text x="136" y="564" font-family="monospace" font-size="11" fill="#0f172a" text-anchor="middle" data-state-label="play"><tspan x="136" y="564">play</tspan></text><metadata data-state-node="Playing" data-state-kind="normal" /><rect x="46" y="288" width="140" height="40" rx="8" ry="8" fill="#f6f6f6" stroke="#1e293b" stroke-width="1.5"/><text x="116" y="312" font-family="monospace" font-size="13" font-weight="600" text-anchor="middle" fill="#0f172a">Playing</text><metadata data-state-node="Paused" data-state-kind="normal" /><rect x="46" y="388" width="140" height="40" rx="8" ry="8" fill="#f6f6f6" stroke="#1e293b" stroke-width="1.5"/><text x="116" y="412" font-family="monospace" font-size="13" font-weight="600" text-anchor="middle" fill="#0f172a">Paused</text><metadata data-state-node="Stopped" data-state-kind="normal" /><rect x="46" y="488" width="140" height="40" rx="8" ry="8" fill="#f6f6f6" stroke="#1e293b" stroke-width="1.5"/><text x="116" y="512" font-family="monospace" font-size="13" font-weight="600" text-anchor="middle" fill="#0f172a">Stopped</text><metadata data-state-node="VolumeControl" data-state-kind="normal" /><rect x="30" y="600" width="172" height="188" rx="8" ry="8" fill="#f6f6f6" stroke="#1e293b" stroke-width="1.5"/><text x="116" y="620" font-family="monospace" font-size="13" font-weight="600" text-anchor="middle" fill="#0f172a">VolumeControl</text><path class="state-transition" data-state-from="Normal" data-state-to="Muted" d="M 126 676 Q 126 706 126 736" fill="none" stroke="#1e293b" stroke-width="2" marker-end="url(#arrow)"/><text x="54" y="578" font-family="monospace" font-size="11" fill="#0f172a" text-anchor="middle" data-state-label="mute"><tspan x="54" y="578">mute</tspan></text><path class="state-transition" data-state-from="Muted" data-state-to="Normal" d="M 106 736 Q 106 706 106 676" fill="none" stroke="#1e293b" stroke-width="2" marker-end="url(#arrow)"/><text x="124" y="818" font-family="monospace" font-size="11" fill="#0f172a" text-anchor="middle" data-state-label="unmute"><tspan x="124" y="818">unmute</tspan></text><metadata data-state-node="Normal" data-state-kind="normal" /><rect x="46" y="636" width="140" height="40" rx="8" ry="8" fill="#f6f6f6" stroke="#1e293b" stroke-width="1.5"/><text x="116" y="660" font-family="monospace" font-size="13" font-weight="600" text-anchor="middle" fill="#0f172a">Normal</text><metadata data-state-node="Muted" data-state-kind="normal" /><rect x="46" y="736" width="140" height="40" rx="8" ry="8" fill="#f6f6f6" stroke="#1e293b" stroke-width="1.5"/><text x="116" y="760" font-family="monospace" font-size="13" font-weight="600" text-anchor="middle" fill="#0f172a">Muted</text><metadata data-state-node="[*]__in__EqualizerControl" data-state-kind="start-end" /><circle cx="43" cy="93" r="12" fill="#0f172a"/><metadata data-state-node="EqualizerControl" data-state-kind="normal" /><rect x="30" y="848" width="172" height="188" rx="8" ry="8" fill="#f6f6f6" stroke="#1e293b" stroke-width="1.5"/><text x="116" y="868" font-family="monospace" font-size="13" font-weight="600" text-anchor="middle" fill="#0f172a">EqualizerControl</text><path class="state-transition" data-state-from="EQOff" data-state-to="EQOn" d="M 126 924 Q 126 954 126 984" fill="none" stroke="#1e293b" stroke-width="2" marker-end="url(#arrow)"/><text x="-14" y="964" font-family="monospace" font-size="11" fill="#0f172a" text-anchor="middle" data-state-label="enableEQ"><tspan x="-14" y="964">enableEQ</tspan></text><path class="state-transition" data-state-from="EQOn" data-state-to="EQOff" d="M 106 984 Q 106 954 106 924" fill="none" stroke="#1e293b" stroke-width="2" marker-end="url(#arrow)"/><text x="124" y="1066" font-family="monospace" font-size="11" fill="#0f172a" text-anchor="middle" data-state-label="disableEQ"><tspan x="124" y="1066">disableEQ</tspan></text><metadata data-state-node="EQOff" data-state-kind="normal" /><rect x="46" y="884" width="140" height="40" rx="8" ry="8" fill="#f6f6f6" stroke="#1e293b" stroke-width="1.5"/><text x="116" y="908" font-family="monospace" font-size="13" font-weight="600" text-anchor="middle" fill="#0f172a">EQOff</text><metadata data-state-node="EQOn" data-state-kind="normal" /><rect x="46" y="984" width="140" height="40" rx="8" ry="8" fill="#f6f6f6" stroke="#1e293b" stroke-width="1.5"/><text x="116" y="1008" font-family="monospace" font-size="13" font-weight="600" text-anchor="middle" fill="#0f172a">EQOn</text><metadata data-state-node="[*]" data-state-kind="start-end" /><circle cx="43" cy="179" r="12" fill="#0f172a"/><metadata data-state-node="[*]__end" data-state-kind="end" /><circle cx="43" cy="1109" r="12" fill="#f6f6f6" stroke="#1e293b" stroke-width="2"/><circle cx="43" cy="1109" r="8" fill="#0f172a"/></svg>