<svg xmlns="http://www.w3.org/2000/svg" width="392" height="1164" viewBox="0 0 392 1164"><rect width="100%" height="100%" fill="white"/><defs><marker id="arrow" markerWidth="8" markerHeight="8" refX="6" refY="3" orient="auto"><path d="M0,0 L0,6 L8,3 z" fill="#1e293b"/></marker></defs><text x="196" y="28" font-family="monospace" font-size="16" font-weight="600" text-anchor="middle" fill="#0f172a">Parallel regions with shared events</text><line class="state-transition" data-state-from="[*]" data-state-to="MediaPlayer" x1="203" y1="106" x2="276" y2="166" stroke="#1e293b" stroke-width="2" marker-end="url(#arrow)"/><line class="state-transition" data-state-from="[*]" data-state-to="VolumeControl" x1="203" y1="106" x2="276" y2="514" stroke="#1e293b" stroke-width="2" marker-end="url(#arrow)"/><line class="state-transition" data-state-from="[*]" data-state-to="EqualizerControl" x1="203" y1="106" x2="276" y2="762" stroke="#1e293b" stroke-width="2" marker-end="url(#arrow)"/><line class="state-transition" data-state-from="MediaPlayer" data-state-to="[*]__end" x1="276" y1="454" x2="203" y2="1096" stroke="#1e293b" stroke-width="2" marker-end="url(#arrow)"/><text x="225" y="744" font-family="monospace" font-size="11" fill="#0f172a" text-anchor="middle" data-state-label="powerOff"><tspan x="225" y="744">powerOff</tspan></text><line class="state-transition" data-state-from="VolumeControl" data-state-to="[*]__end" x1="276" y1="702" x2="203" y2="1096" stroke="#1e293b" stroke-width="2" marker-end="url(#arrow)"/><text x="150" y="882" font-family="monospace" font-size="11" fill="#0f172a" text-anchor="middle" data-state-label="powerOff"><tspan x="150" y="882">powerOff</tspan></text><line class="state-transition" data-state-from="EqualizerControl" data-state-to="[*]__end" x1="276" y1="1036" x2="203" y2="1096" stroke="#1e293b" stroke-width="2" marker-end="url(#arrow)"/><text x="215" y="1067" font-family="monospace" font-size="11" fill="#0f172a" text-anchor="middle" data-state-label="powerOff"><tspan x="215" y="1067">powerOff</tspan></text><metadata data-state-node="MediaPlayer" data-state-kind="normal" /><rect x="190" y="166" width="172" height="288" rx="8" ry="8" fill="#f6f6f6" stroke="#1e293b" stroke-width="1.5"/><text x="276" y="186" font-family="monospace" font-size="13" font-weight="600" text-anchor="middle" fill="#0f172a">MediaPlayer</text><path class="state-transition" data-state-from="Playing" data-state-to="Paused" d="M 286 242 Q 286 272 286 302" fill="none" stroke="#1e293b" stroke-width="2" marker-end="url(#arrow)"/><text x="268" y="144" font-family="monospace" font-size="11" fill="#0f172a" text-anchor="middle" data-state-label="pause"><tspan x="268" y="144">pause</tspan></text><path class="state-transition" data-state-from="Paused" data-state-to="Playing" d="M 266 302 Q 266 272 266 242" fill="none" stroke="#1e293b" stroke-width="2" marker-end="url(#arrow)"/><text x="406" y="288" font-family="monospace" font-size="11" fill="#0f172a" text-anchor="middle" data-state-label="resume"><tspan x="406" y="288">resume</tspan></text><path class="state-transition" data-state-from="Playing" data-state-to="Stopped" d="M 286 242 Q 286 322 286 402" fill="none" stroke="#1e293b" stroke-width="2" marker-end="url(#arrow)"/><text x="146" y="294" font-family="monospace" font-size="11" fill="#0f172a" text-anchor="middle" data-state-label="stop"><tspan x="146" y="294">stop</tspan></text><line class="state-transition" data-state-from="Paused" data-state-to="Stopped" x1="276" y1="342" x2="276" y2="402" stroke="#1e293b" stroke-width="2" marker-end="url(#arrow)"/><text x="258" y="484" font-family="monospace" font-size="11" fill="#0f172a" text-anchor="middle" data-state-label="stop"><tspan x="258" y="484">stop</tspan></text><path class="state-transition" data-state-from="Stopped" data-state-to="Playing" d="M 266 402 Q 266 322 266 242" fill="none" stroke="#1e293b" stroke-width="2" marker-end="url(#arrow)"/><text x="296" y="478" font-family="monospace" font-size="11" fill="#0f172a" text-anchor="middle" data-state-label="play"><tspan x="296" y="478">play</tspan></text><metadata data-state-node="Playing" data-state-kind="normal" /><rect x="206" y="202" width="140" height="40" rx="8" ry="8" fill="#f6f6f6" stroke="#1e293b" stroke-width="1.5"/><text x="276" y="226" font-family="monospace" font-size="13" font-weight="600" text-anchor="middle" fill="#0f172a">Playing</text><metadata data-state-node="Paused" data-state-kind="normal" /><rect x="206" y="302" width="140" height="40" rx="8" ry="8" fill="#f6f6f6" stroke="#1e293b" stroke-width="1.5"/><text x="276" y="326" font-family="monospace" font-size="13" font-weight="600" text-anchor="middle" fill="#0f172a">Paused</text><metadata data-state-node="Stopped" data-state-kind="normal" /><rect x="206" y="402" width="140" height="40" rx="8" ry="8" fill="#f6f6f6" stroke="#1e293b" stroke-width="1.5"/><text x="276" y="426" font-family="monospace" font-size="13" font-weight="600" text-anchor="middle" fill="#0f172a">Stopped</text><metadata data-state-node="VolumeControl" data-state-kind="normal" /><rect x="190" y="514" width="172" height="188" rx="8" ry="8" fill="#f6f6f6" stroke="#1e293b" stroke-width="1.5"/><text x="276" y="534" font-family="monospace" font-size="13" font-weight="600" text-anchor="middle" fill="#0f172a">VolumeControl</text><path class="state-transition" data-state-from="Normal" data-state-to="Muted" d="M 286 590 Q 286 620 286 650" fill="none" stroke="#1e293b" stroke-width="2" marker-end="url(#arrow)"/><text x="214" y="492" font-family="monospace" font-size="11" fill="#0f172a" text-anchor="middle" data-state-label="mute"><tspan x="214" y="492">mute</tspan></text><path class="state-transition" data-state-from="Muted" data-state-to="Normal" d="M 266 650 Q 266 620 266 590" fill="none" stroke="#1e293b" stroke-width="2" marker-end="url(#arrow)"/><text x="284" y="732" font-family="monospace" font-size="11" fill="#0f172a" text-anchor="middle" data-state-label="unmute"><tspan x="284" y="732">unmute</tspan></text><metadata data-state-node="Normal" data-state-kind="normal" /><rect x="206" y="550" width="140" height="40" rx="8" ry="8" fill="#f6f6f6" stroke="#1e293b" stroke-width="1.5"/><text x="276" y="574" font-family="monospace" font-size="13" font-weight="600" text-anchor="middle" fill="#0f172a">Normal</text><metadata data-state-node="Muted" data-state-kind="normal" /><rect x="206" y="650" width="140" height="40" rx="8" ry="8" fill="#f6f6f6" stroke="#1e293b" stroke-width="1.5"/><text x="276" y="674" font-family="monospace" font-size="13" font-weight="600" text-anchor="middle" fill="#0f172a">Muted</text><metadata data-state-node="EqualizerControl" data-state-kind="normal" /><rect x="190" y="762" width="172" height="274" rx="8" ry="8" fill="#f6f6f6" stroke="#1e293b" stroke-width="1.5"/><text x="276" y="782" font-family="monospace" font-size="13" font-weight="600" text-anchor="middle" fill="#0f172a">EqualizerControl</text><line class="state-transition" data-state-from="[*]__in__EqualizerControl" data-state-to="EQOff" x1="276" y1="824" x2="276" y2="884" stroke="#1e293b" stroke-width="2" marker-end="url(#arrow)"/><path class="state-transition" data-state-from="EQOff" data-state-to="EQOn" d="M 286 924 Q 286 954 286 984" fill="none" stroke="#1e293b" stroke-width="2" marker-end="url(#arrow)"/><text x="146" y="946" font-family="monospace" font-size="11" fill="#0f172a" text-anchor="middle" data-state-label="enableEQ"><tspan x="146" y="946">enableEQ</tspan></text><path class="state-transition" data-state-from="EQOn" data-state-to="EQOff" d="M 266 984 Q 266 954 266 924" fill="none" stroke="#1e293b" stroke-width="2" marker-end="url(#arrow)"/><text x="284" y="1066" font-family="monospace" font-size="11" fill="#0f172a" text-anchor="middle" data-state-label="disableEQ"><tspan x="284" y="1066">disableEQ</tspan></text><metadata data-state-node="[*]__in__EqualizerControl" data-state-kind="start-end" /><circle cx="276" cy="811" r="12" fill="#0f172a"/><metadata data-state-node="EQOff" data-state-kind="normal" /><rect x="206" y="884" width="140" height="40" rx="8" ry="8" fill="#f6f6f6" stroke="#1e293b" stroke-width="1.5"/><text x="276" y="908" font-family="monospace" font-size="13" font-weight="600" text-anchor="middle" fill="#0f172a">EQOff</text><metadata data-state-node="EQOn" data-state-kind="normal" /><rect x="206" y="984" width="140" height="40" rx="8" ry="8" fill="#f6f6f6" stroke="#1e293b" stroke-width="1.5"/><text x="276" y="1008" font-family="monospace" font-size="13" font-weight="600" text-anchor="middle" fill="#0f172a">EQOn</text><metadata data-state-node="[*]" data-state-kind="start-end" /><circle cx="203" cy="93" r="12" fill="#0f172a"/><metadata data-state-node="[*]__end" data-state-kind="end" /><circle cx="203" cy="1109" r="12" fill="#f6f6f6" stroke="#1e293b" stroke-width="2"/><circle cx="203" cy="1109" r="8" fill="#0f172a"/></svg>