<svg xmlns="http://www.w3.org/2000/svg" width="300" height="1164" viewBox="0 0 300 1164"><rect width="100%" height="100%" fill="white"/><defs><marker id="arrow" markerWidth="8" markerHeight="8" refX="6" refY="3" orient="auto"><path d="M0,0 L0,6 L8,3 z" fill="#1e293b"/></marker></defs><text x="150" y="28" font-family="monospace" font-size="16" font-weight="600" text-anchor="middle" fill="#0f172a">Parallel regions with shared events</text><path class="state-transition" data-state-from="[*]" data-state-to="MediaPlayer" d="M 111 106 L 111 136 L 184 136 L 184 166" fill="none" stroke="#1e293b" stroke-width="2" marker-end="url(#arrow)"/><path class="state-transition" data-state-from="[*]" data-state-to="VolumeControl" d="M 111 106 L 111 310 L 184 310 L 184 514" fill="none" stroke="#1e293b" stroke-width="2" marker-end="url(#arrow)"/><path class="state-transition" data-state-from="[*]" data-state-to="EqualizerControl" d="M 111 106 L 111 434 L 184 434 L 184 762" fill="none" stroke="#1e293b" stroke-width="2" marker-end="url(#arrow)"/><path class="state-transition" data-state-from="MediaPlayer" data-state-to="[*]__end" d="M 184 454 L 184 775 L 111 775 L 111 1096" fill="none" stroke="#1e293b" stroke-width="2" marker-end="url(#arrow)"/><text x="133" y="744" font-family="monospace" font-size="11" fill="#0f172a" text-anchor="middle" data-state-label="powerOff"><tspan x="133" y="744">powerOff</tspan></text><path class="state-transition" data-state-from="VolumeControl" data-state-to="[*]__end" d="M 184 702 L 184 899 L 111 899 L 111 1096" fill="none" stroke="#1e293b" stroke-width="2" marker-end="url(#arrow)"/><text x="58" y="882" font-family="monospace" font-size="11" fill="#0f172a" text-anchor="middle" data-state-label="powerOff"><tspan x="58" y="882">powerOff</tspan></text><path class="state-transition" data-state-from="EqualizerControl" data-state-to="[*]__end" d="M 184 1036 L 184 1066 L 111 1066 L 111 1096" fill="none" stroke="#1e293b" stroke-width="2" marker-end="url(#arrow)"/><text x="123" y="1067" font-family="monospace" font-size="11" fill="#0f172a" text-anchor="middle" data-state-label="powerOff"><tspan x="123" y="1067">powerOff</tspan></text><metadata data-state-node="MediaPlayer" data-state-kind="normal" /><rect x="98" y="166" width="172" height="288" rx="8" ry="8" fill="#f6f6f6" stroke="#1e293b" stroke-width="1.5"/><text x="184" y="186" font-family="monospace" font-size="13" font-weight="600" text-anchor="middle" fill="#0f172a">MediaPlayer</text><path class="state-transition" data-state-from="Playing" data-state-to="Paused" d="M 194 242 Q 194 272 194 302" fill="none" stroke="#1e293b" stroke-width="2" marker-end="url(#arrow)"/><text x="176" y="282" font-family="monospace" font-size="11" fill="#0f172a" text-anchor="middle" data-state-label="pause"><tspan x="176" y="282">pause</tspan></text><path class="state-transition" data-state-from="Paused" data-state-to="Playing" d="M 174 302 Q 174 272 174 242" fill="none" stroke="#1e293b" stroke-width="2" marker-end="url(#arrow)"/><text x="192" y="384" font-family="monospace" font-size="11" fill="#0f172a" text-anchor="middle" data-state-label="resume"><tspan x="192" y="384">resume</tspan></text><path class="state-transition" data-state-from="Playing" data-state-to="Stopped" d="M 194 242 Q 194 322 194 402" fill="none" stroke="#1e293b" stroke-width="2" marker-end="url(#arrow)"/><text x="54" y="294" font-family="monospace" font-size="11" fill="#0f172a" text-anchor="middle" data-state-label="stop"><tspan x="54" y="294">stop</tspan></text><path class="state-transition" data-state-from="Paused" data-state-to="Stopped" d="M 184 342 L 184 402" fill="none" stroke="#1e293b" stroke-width="2" marker-end="url(#arrow)"/><text x="166" y="484" font-family="monospace" font-size="11" fill="#0f172a" text-anchor="middle" data-state-label="stop"><tspan x="166" y="484">stop</tspan></text><path class="state-transition" data-state-from="Stopped" data-state-to="Playing" d="M 174 402 Q 174 322 174 242" fill="none" stroke="#1e293b" stroke-width="2" marker-end="url(#arrow)"/><text x="204" y="478" font-family="monospace" font-size="11" fill="#0f172a" text-anchor="middle" data-state-label="play"><tspan x="204" y="478">play</tspan></text><metadata data-state-node="Playing" data-state-kind="normal" /><rect x="114" y="202" width="140" height="40" rx="8" ry="8" fill="#f6f6f6" stroke="#1e293b" stroke-width="1.5"/><text x="184" y="226" font-family="monospace" font-size="13" font-weight="600" text-anchor="middle" fill="#0f172a">Playing</text><metadata data-state-node="Paused" data-state-kind="normal" /><rect x="114" y="302" width="140" height="40" rx="8" ry="8" fill="#f6f6f6" stroke="#1e293b" stroke-width="1.5"/><text x="184" y="326" font-family="monospace" font-size="13" font-weight="600" text-anchor="middle" fill="#0f172a">Paused</text><metadata data-state-node="Stopped" data-state-kind="normal" /><rect x="114" y="402" width="140" height="40" rx="8" ry="8" fill="#f6f6f6" stroke="#1e293b" stroke-width="1.5"/><text x="184" y="426" font-family="monospace" font-size="13" font-weight="600" text-anchor="middle" fill="#0f172a">Stopped</text><metadata data-state-node="VolumeControl" data-state-kind="normal" /><rect x="98" y="514" width="172" height="188" rx="8" ry="8" fill="#f6f6f6" stroke="#1e293b" stroke-width="1.5"/><text x="184" y="534" font-family="monospace" font-size="13" font-weight="600" text-anchor="middle" fill="#0f172a">VolumeControl</text><path class="state-transition" data-state-from="Normal" data-state-to="Muted" d="M 194 590 Q 194 620 194 650" fill="none" stroke="#1e293b" stroke-width="2" marker-end="url(#arrow)"/><text x="176" y="630" font-family="monospace" font-size="11" fill="#0f172a" text-anchor="middle" data-state-label="mute"><tspan x="176" y="630">mute</tspan></text><path class="state-transition" data-state-from="Muted" data-state-to="Normal" d="M 174 650 Q 174 620 174 590" fill="none" stroke="#1e293b" stroke-width="2" marker-end="url(#arrow)"/><text x="192" y="732" font-family="monospace" font-size="11" fill="#0f172a" text-anchor="middle" data-state-label="unmute"><tspan x="192" y="732">unmute</tspan></text><metadata data-state-node="Normal" data-state-kind="normal" /><rect x="114" y="550" width="140" height="40" rx="8" ry="8" fill="#f6f6f6" stroke="#1e293b" stroke-width="1.5"/><text x="184" y="574" font-family="monospace" font-size="13" font-weight="600" text-anchor="middle" fill="#0f172a">Normal</text><metadata data-state-node="Muted" data-state-kind="normal" /><rect x="114" y="650" width="140" height="40" rx="8" ry="8" fill="#f6f6f6" stroke="#1e293b" stroke-width="1.5"/><text x="184" y="674" font-family="monospace" font-size="13" font-weight="600" text-anchor="middle" fill="#0f172a">Muted</text><metadata data-state-node="EqualizerControl" data-state-kind="normal" /><rect x="98" y="762" width="172" height="274" rx="8" ry="8" fill="#f6f6f6" stroke="#1e293b" stroke-width="1.5"/><text x="184" y="782" font-family="monospace" font-size="13" font-weight="600" text-anchor="middle" fill="#0f172a">EqualizerControl</text><path class="state-transition" data-state-from="[*]__in__EqualizerControl__r0" data-state-to="EQOff" d="M 184 824 L 184 884" fill="none" stroke="#1e293b" stroke-width="2" marker-end="url(#arrow)"/><path class="state-transition" data-state-from="EQOff" data-state-to="EQOn" d="M 194 924 Q 194 954 194 984" fill="none" stroke="#1e293b" stroke-width="2" marker-end="url(#arrow)"/><text x="176" y="964" font-family="monospace" font-size="11" fill="#0f172a" text-anchor="middle" data-state-label="enableEQ"><tspan x="176" y="964">enableEQ</tspan></text><path class="state-transition" data-state-from="EQOn" data-state-to="EQOff" d="M 174 984 Q 174 954 174 924" fill="none" stroke="#1e293b" stroke-width="2" marker-end="url(#arrow)"/><text x="192" y="1066" font-family="monospace" font-size="11" fill="#0f172a" text-anchor="middle" data-state-label="disableEQ"><tspan x="192" y="1066">disableEQ</tspan></text><metadata data-state-node="[*]__in__EqualizerControl__r0" data-state-kind="start-end" /><circle cx="184" cy="811" r="12" fill="#0f172a"/><metadata data-state-node="EQOff" data-state-kind="normal" /><rect x="114" y="884" width="140" height="40" rx="8" ry="8" fill="#f6f6f6" stroke="#1e293b" stroke-width="1.5"/><text x="184" y="908" font-family="monospace" font-size="13" font-weight="600" text-anchor="middle" fill="#0f172a">EQOff</text><metadata data-state-node="EQOn" data-state-kind="normal" /><rect x="114" y="984" width="140" height="40" rx="8" ry="8" fill="#f6f6f6" stroke="#1e293b" stroke-width="1.5"/><text x="184" y="1008" font-family="monospace" font-size="13" font-weight="600" text-anchor="middle" fill="#0f172a">EQOn</text><metadata data-state-node="[*]" data-state-kind="start-end" /><circle cx="111" cy="93" r="12" fill="#0f172a"/><metadata data-state-node="[*]__end" data-state-kind="end" /><circle cx="111" cy="1109" r="12" fill="#f6f6f6" stroke="#1e293b" stroke-width="2"/><circle cx="111" cy="1109" r="8" fill="#0f172a"/></svg>