<svg xmlns="http://www.w3.org/2000/svg" width="632" height="582" viewBox="0 0 632 582"><rect width="100%" height="100%" fill="white"/><defs><marker id="arrow" markerWidth="8" markerHeight="8" refX="6" refY="3" orient="auto"><path d="M0,0 L0,6 L8,3 z" fill="#1e293b"/></marker></defs><text x="316" y="28" font-family="monospace" font-size="16" font-weight="600" text-anchor="middle" fill="#0f172a">Parallel regions with shared events</text><path class="state-transition" data-state-from="[*]" data-state-to="MediaPlayer" d="M 128 93 L 128 201 L 102 201 L 102 310" fill="none" stroke="#1e293b" stroke-width="2" marker-end="url(#arrow)"/><path class="state-transition" data-state-from="MediaPlayer" data-state-to="[*]__end" d="M 102 310 L 102 418 L 128 418 L 128 527" fill="none" stroke="#1e293b" stroke-width="2" marker-end="url(#arrow)"/><text x="92" y="491" font-family="monospace" font-size="11" fill="#0f172a" text-anchor="middle" data-state-label="powerOff"><tspan x="92" y="491">powerOff</tspan></text><metadata data-state-node="MediaPlayer" data-state-kind="normal" /><rect x="102" y="166" width="500" height="288" rx="8" ry="8" fill="#f6f6f6" stroke="#1e293b" stroke-width="1.5"/><text x="352" y="186" font-family="monospace" font-size="13" font-weight="600" text-anchor="middle" fill="#0f172a">MediaPlayer</text><line x1="270" y1="194" x2="270" y2="446" stroke="#1e293b" stroke-width="1" stroke-dasharray="5 3"/><line x1="434" y1="194" x2="434" y2="446" stroke="#1e293b" stroke-width="1" stroke-dasharray="5 3"/><path class="state-transition" data-state-from="Playing" data-state-to="Paused" d="M 198 242 Q 198 272 198 302" fill="none" stroke="#1e293b" stroke-width="2" marker-end="url(#arrow)"/><text x="173" y="282" font-family="monospace" font-size="11" fill="#0f172a" text-anchor="middle" data-state-label="pause"><tspan x="173" y="282">pause</tspan></text><path class="state-transition" data-state-from="Paused" data-state-to="Playing" d="M 178 302 Q 178 272 178 242" fill="none" stroke="#1e293b" stroke-width="2" marker-end="url(#arrow)"/><text x="207" y="384" font-family="monospace" font-size="11" fill="#0f172a" text-anchor="middle" data-state-label="resume"><tspan x="207" y="384">resume</tspan></text><path class="state-transition" data-state-from="Playing" data-state-to="Stopped" d="M 198 242 Q 198 322 198 402" fill="none" stroke="#1e293b" stroke-width="2" marker-end="url(#arrow)"/><text x="164" y="370" font-family="monospace" font-size="11" fill="#0f172a" text-anchor="middle" data-state-label="stop"><tspan x="164" y="370">stop</tspan></text><path class="state-transition" data-state-from="Paused" data-state-to="Stopped" d="M 188 342 L 188 402" fill="none" stroke="#1e293b" stroke-width="2" marker-end="url(#arrow)"/><text x="166" y="484" font-family="monospace" font-size="11" fill="#0f172a" text-anchor="middle" data-state-label="stop"><tspan x="166" y="484">stop</tspan></text><path class="state-transition" data-state-from="Stopped" data-state-to="Playing" d="M 178 402 Q 178 322 178 242" fill="none" stroke="#1e293b" stroke-width="2" marker-end="url(#arrow)"/><text x="212" y="478" font-family="monospace" font-size="11" fill="#0f172a" text-anchor="middle" data-state-label="play"><tspan x="212" y="478">play</tspan></text><path class="state-transition" data-state-from="Normal" data-state-to="Muted" d="M 362 242 Q 362 272 362 302" fill="none" stroke="#1e293b" stroke-width="2" marker-end="url(#arrow)"/><text x="340" y="282" font-family="monospace" font-size="11" fill="#0f172a" text-anchor="middle" data-state-label="mute"><tspan x="340" y="282">mute</tspan></text><path class="state-transition" data-state-from="Muted" data-state-to="Normal" d="M 342 302 Q 342 272 342 242" fill="none" stroke="#1e293b" stroke-width="2" marker-end="url(#arrow)"/><text x="371" y="384" font-family="monospace" font-size="11" fill="#0f172a" text-anchor="middle" data-state-label="unmute"><tspan x="371" y="384">unmute</tspan></text><path class="state-transition" data-state-from="[*]__in__MediaPlayer__r2" data-state-to="EQOff" d="M 516 228 L 516 288" fill="none" stroke="#1e293b" stroke-width="2" marker-end="url(#arrow)"/><path class="state-transition" data-state-from="EQOff" data-state-to="EQOn" d="M 526 328 Q 526 358 526 388" fill="none" stroke="#1e293b" stroke-width="2" marker-end="url(#arrow)"/><text x="490" y="368" font-family="monospace" font-size="11" fill="#0f172a" text-anchor="middle" data-state-label="enableEQ"><tspan x="490" y="368">enableEQ</tspan></text><path class="state-transition" data-state-from="EQOn" data-state-to="EQOff" d="M 506 388 Q 506 358 506 328" fill="none" stroke="#1e293b" stroke-width="2" marker-end="url(#arrow)"/><text x="546" y="494" font-family="monospace" font-size="11" fill="#0f172a" text-anchor="middle" data-state-label="disableEQ"><tspan x="546" y="494">disableEQ</tspan></text><metadata data-state-node="Playing" data-state-kind="normal" /><rect x="118" y="202" width="140" height="40" rx="8" ry="8" fill="#f6f6f6" stroke="#1e293b" stroke-width="1.5"/><text x="188" y="226" font-family="monospace" font-size="13" font-weight="600" text-anchor="middle" fill="#0f172a">Playing</text><metadata data-state-node="Paused" data-state-kind="normal" /><rect x="118" y="302" width="140" height="40" rx="8" ry="8" fill="#f6f6f6" stroke="#1e293b" stroke-width="1.5"/><text x="188" y="326" font-family="monospace" font-size="13" font-weight="600" text-anchor="middle" fill="#0f172a">Paused</text><metadata data-state-node="Stopped" data-state-kind="normal" /><rect x="118" y="402" width="140" height="40" rx="8" ry="8" fill="#f6f6f6" stroke="#1e293b" stroke-width="1.5"/><text x="188" y="426" font-family="monospace" font-size="13" font-weight="600" text-anchor="middle" fill="#0f172a">Stopped</text><metadata data-state-node="Normal" data-state-kind="normal" /><rect x="282" y="202" width="140" height="40" rx="8" ry="8" fill="#f6f6f6" stroke="#1e293b" stroke-width="1.5"/><text x="352" y="226" font-family="monospace" font-size="13" font-weight="600" text-anchor="middle" fill="#0f172a">Normal</text><metadata data-state-node="Muted" data-state-kind="normal" /><rect x="282" y="302" width="140" height="40" rx="8" ry="8" fill="#f6f6f6" stroke="#1e293b" stroke-width="1.5"/><text x="352" y="326" font-family="monospace" font-size="13" font-weight="600" text-anchor="middle" fill="#0f172a">Muted</text><metadata data-state-node="[*]__in__MediaPlayer__r2" data-state-kind="start-end" /><circle cx="516" cy="215" r="12" fill="#0f172a"/><metadata data-state-node="EQOff" data-state-kind="normal" /><rect x="446" y="288" width="140" height="40" rx="8" ry="8" fill="#f6f6f6" stroke="#1e293b" stroke-width="1.5"/><text x="516" y="312" font-family="monospace" font-size="13" font-weight="600" text-anchor="middle" fill="#0f172a">EQOff</text><metadata data-state-node="EQOn" data-state-kind="normal" /><rect x="446" y="388" width="140" height="54" rx="8" ry="8" fill="#f6f6f6" stroke="#1e293b" stroke-width="1.5"/><text x="516" y="412" font-family="monospace" font-size="13" font-weight="600" text-anchor="middle" fill="#0f172a">EQOn</text><line x1="446" y1="424" x2="586" y2="424" stroke="#1e293b" stroke-width="1"/><text x="452" y="438" font-family="monospace" font-size="10" font-style="italic" fill="#0f172a">do / applyBands</text><metadata data-state-node="[*]" data-state-kind="start-end" /><circle cx="115" cy="93" r="12" fill="#0f172a"/><metadata data-state-node="[*]__end" data-state-kind="end" /><circle cx="115" cy="527" r="12" fill="#f6f6f6" stroke="#1e293b" stroke-width="2"/><circle cx="115" cy="527" r="8" fill="#0f172a"/></svg>