<svg xmlns="http://www.w3.org/2000/svg" width="322" height="1010" viewBox="0 0 322 1010"><rect width="100%" height="100%" fill="white"/><defs><marker id="arrow" markerWidth="8" markerHeight="8" refX="6" refY="3" orient="auto"><path d="M0,0 L0,6 L8,3 z" fill="#1e293b"/></marker></defs><text x="161" y="28" font-family="monospace" font-size="16" font-weight="600" text-anchor="middle" fill="#0f172a">Parallel regions with shared events</text><path class="state-transition" data-state-from="[*]" data-state-to="MediaPlayer" d="M 133 106 L 133 136 L 206 136 L 206 166" fill="none" stroke="#1e293b" stroke-width="2" marker-end="url(#arrow)"/><path class="state-transition" data-state-from="MediaPlayer" data-state-to="[*]__end" d="M 206 882 L 206 912 L 133 912 L 133 942" fill="none" stroke="#1e293b" stroke-width="2" marker-end="url(#arrow)"/><text x="64" y="898" font-family="monospace" font-size="11" fill="#0f172a" text-anchor="middle" data-state-label="powerOff"><tspan x="64" y="898">powerOff</tspan></text><metadata data-state-node="MediaPlayer" data-state-kind="normal" /><rect x="120" y="166" width="172" height="716" rx="8" ry="8" fill="#f6f6f6" stroke="#1e293b" stroke-width="1.5"/><text x="206" y="186" font-family="monospace" font-size="13" font-weight="600" text-anchor="middle" fill="#0f172a">MediaPlayer</text><line x1="128" y1="454" x2="284" y2="454" stroke="#1e293b" stroke-width="1" stroke-dasharray="5 3"/><line x1="128" y1="618" x2="284" y2="618" stroke="#1e293b" stroke-width="1" stroke-dasharray="5 3"/><path class="state-transition" data-state-from="Playing" data-state-to="Paused" d="M 216 242 Q 216 272 216 302" fill="none" stroke="#1e293b" stroke-width="2" marker-end="url(#arrow)"/><text x="191" y="282" font-family="monospace" font-size="11" fill="#0f172a" text-anchor="middle" data-state-label="pause"><tspan x="191" y="282">pause</tspan></text><path class="state-transition" data-state-from="Paused" data-state-to="Playing" d="M 196 302 Q 196 272 196 242" fill="none" stroke="#1e293b" stroke-width="2" marker-end="url(#arrow)"/><text x="225" y="384" font-family="monospace" font-size="11" fill="#0f172a" text-anchor="middle" data-state-label="resume"><tspan x="225" y="384">resume</tspan></text><path class="state-transition" data-state-from="Playing" data-state-to="Stopped" d="M 216 242 Q 216 322 216 402" fill="none" stroke="#1e293b" stroke-width="2" marker-end="url(#arrow)"/><text x="182" y="370" font-family="monospace" font-size="11" fill="#0f172a" text-anchor="middle" data-state-label="stop"><tspan x="182" y="370">stop</tspan></text><path class="state-transition" data-state-from="Paused" data-state-to="Stopped" d="M 206 342 L 206 402" fill="none" stroke="#1e293b" stroke-width="2" marker-end="url(#arrow)"/><text x="86" y="364" font-family="monospace" font-size="11" fill="#0f172a" text-anchor="middle" data-state-label="stop"><tspan x="86" y="364">stop</tspan></text><path class="state-transition" data-state-from="Stopped" data-state-to="Playing" d="M 196 402 Q 196 322 196 242" fill="none" stroke="#1e293b" stroke-width="2" marker-end="url(#arrow)"/><text x="242" y="282" font-family="monospace" font-size="11" fill="#0f172a" text-anchor="middle" data-state-label="play"><tspan x="242" y="282">play</tspan></text><path class="state-transition" data-state-from="Normal" data-state-to="Muted" d="M 216 506 Q 216 536 216 566" fill="none" stroke="#1e293b" stroke-width="2" marker-end="url(#arrow)"/><text x="194" y="546" font-family="monospace" font-size="11" fill="#0f172a" text-anchor="middle" data-state-label="mute"><tspan x="194" y="546">mute</tspan></text><path class="state-transition" data-state-from="Muted" data-state-to="Normal" d="M 196 566 Q 196 536 196 506" fill="none" stroke="#1e293b" stroke-width="2" marker-end="url(#arrow)"/><text x="237" y="534" font-family="monospace" font-size="11" fill="#0f172a" text-anchor="middle" data-state-label="unmute"><tspan x="237" y="534">unmute</tspan></text><path class="state-transition" data-state-from="[*]__in__MediaPlayer__r2" data-state-to="EQOff" d="M 206 656 L 206 716" fill="none" stroke="#1e293b" stroke-width="2" marker-end="url(#arrow)"/><path class="state-transition" data-state-from="EQOff" data-state-to="EQOn" d="M 216 756 Q 216 786 216 816" fill="none" stroke="#1e293b" stroke-width="2" marker-end="url(#arrow)"/><text x="180" y="796" font-family="monospace" font-size="11" fill="#0f172a" text-anchor="middle" data-state-label="enableEQ"><tspan x="180" y="796">enableEQ</tspan></text><path class="state-transition" data-state-from="EQOn" data-state-to="EQOff" d="M 196 816 Q 196 786 196 756" fill="none" stroke="#1e293b" stroke-width="2" marker-end="url(#arrow)"/><text x="236" y="922" font-family="monospace" font-size="11" fill="#0f172a" text-anchor="middle" data-state-label="disableEQ"><tspan x="236" y="922">disableEQ</tspan></text><metadata data-state-node="Playing" data-state-kind="normal" /><rect x="136" y="202" width="140" height="40" rx="8" ry="8" fill="#f6f6f6" stroke="#1e293b" stroke-width="1.5"/><text x="206" y="226" font-family="monospace" font-size="13" font-weight="600" text-anchor="middle" fill="#0f172a">Playing</text><metadata data-state-node="Paused" data-state-kind="normal" /><rect x="136" y="302" width="140" height="40" rx="8" ry="8" fill="#f6f6f6" stroke="#1e293b" stroke-width="1.5"/><text x="206" y="326" font-family="monospace" font-size="13" font-weight="600" text-anchor="middle" fill="#0f172a">Paused</text><metadata data-state-node="Stopped" data-state-kind="normal" /><rect x="136" y="402" width="140" height="40" rx="8" ry="8" fill="#f6f6f6" stroke="#1e293b" stroke-width="1.5"/><text x="206" y="426" font-family="monospace" font-size="13" font-weight="600" text-anchor="middle" fill="#0f172a">Stopped</text><metadata data-state-node="Normal" data-state-kind="normal" /><rect x="136" y="466" width="140" height="40" rx="8" ry="8" fill="#f6f6f6" stroke="#1e293b" stroke-width="1.5"/><text x="206" y="490" font-family="monospace" font-size="13" font-weight="600" text-anchor="middle" fill="#0f172a">Normal</text><metadata data-state-node="Muted" data-state-kind="normal" /><rect x="136" y="566" width="140" height="40" rx="8" ry="8" fill="#f6f6f6" stroke="#1e293b" stroke-width="1.5"/><text x="206" y="590" font-family="monospace" font-size="13" font-weight="600" text-anchor="middle" fill="#0f172a">Muted</text><metadata data-state-node="[*]__in__MediaPlayer__r2" data-state-kind="start-end" /><circle cx="206" cy="643" r="12" fill="#0f172a"/><metadata data-state-node="EQOff" data-state-kind="normal" /><rect x="136" y="716" width="140" height="40" rx="8" ry="8" fill="#f6f6f6" stroke="#1e293b" stroke-width="1.5"/><text x="206" y="740" font-family="monospace" font-size="13" font-weight="600" text-anchor="middle" fill="#0f172a">EQOff</text><metadata data-state-node="EQOn" data-state-kind="normal" /><rect x="136" y="816" width="140" height="54" rx="8" ry="8" fill="#f6f6f6" stroke="#1e293b" stroke-width="1.5"/><text x="206" y="840" font-family="monospace" font-size="13" font-weight="600" text-anchor="middle" fill="#0f172a">EQOn</text><line x1="136" y1="852" x2="276" y2="852" stroke="#1e293b" stroke-width="1"/><text x="142" y="864" font-family="monospace" font-size="10" font-style="italic" fill="#0f172a">do / applyBands</text><metadata data-state-node="[*]" data-state-kind="start-end" /><circle cx="133" cy="93" r="12" fill="#0f172a"/><metadata data-state-node="[*]__end" data-state-kind="end" /><circle cx="133" cy="955" r="12" fill="#f6f6f6" stroke="#1e293b" stroke-width="2"/><circle cx="133" cy="955" r="8" fill="#0f172a"/></svg>