<svg xmlns="http://www.w3.org/2000/svg" width="476" height="878" viewBox="0 0 476 878"><rect width="100%" height="100%" fill="white"/><defs><marker id="arrow" markerWidth="8" markerHeight="8" refX="6" refY="3" orient="auto"><path d="M0,0 L0,6 L8,3 z" fill="#1e293b"/></marker></defs><path class="state-transition" data-state-from="[H]" data-state-to="Authenticated" d="M 151 114 L 151 358 L 236 358 L 236 602" fill="none" stroke="#1e293b" stroke-width="2" marker-end="url(#arrow)"/><text x="153" y="232" font-family="monospace" font-size="11" fill="#0f172a" text-anchor="middle" data-state-label="resume"><tspan x="153" y="232">resume</tspan></text><path class="state-transition" data-state-from="[*]" data-state-to="CM" d="M 147 200 L 147 230 L 236 230 L 236 260" fill="none" stroke="#1e293b" stroke-width="2" marker-end="url(#arrow)"/><metadata data-state-node="[H]" data-state-kind="history-shallow" /><circle cx="151" cy="97" r="16" fill="#f6f6f6" stroke="#1e293b" stroke-width="2"/><text x="151" y="97" font-family="monospace" font-size="13" font-weight="600" text-anchor="middle" dominant-baseline="middle" fill="#0f172a">H</text><metadata data-state-node="CM" data-state-kind="normal" /><rect x="134" y="260" width="204" height="576" rx="8" ry="8" fill="#f6f6f6" stroke="#1e293b" stroke-width="1.5"/><text x="236" y="280" font-family="monospace" font-size="13" font-weight="600" text-anchor="middle" fill="#0f172a">Connection Manager</text><path class="state-transition" data-state-from="Disconnected" data-state-to="Connecting" d="M 246 364 Q 246 394 246 424" fill="none" stroke="#1e293b" stroke-width="2" marker-end="url(#arrow)"/><text x="228" y="404" font-family="monospace" font-size="11" fill="#0f172a" text-anchor="middle" data-state-label="connect()"><tspan x="228" y="404">connect()</tspan></text><path class="state-transition" data-state-from="Connecting" data-state-to="Connected" d="M 236 506 L 236 566" fill="none" stroke="#1e293b" stroke-width="2" marker-end="url(#arrow)"/><text x="218" y="546" font-family="monospace" font-size="11" fill="#0f172a" text-anchor="middle" data-state-label="handshakeOk"><tspan x="218" y="546">handshakeOk</tspan></text><path class="state-transition" data-state-from="Connecting" data-state-to="Disconnected" d="M 226 424 Q 226 394 226 364" fill="none" stroke="#1e293b" stroke-width="2" marker-end="url(#arrow)"/><text x="394" y="410" font-family="monospace" font-size="11" fill="#0f172a" text-anchor="middle" data-state-label="timeout"><tspan x="394" y="410">timeout</tspan></text><path class="state-transition" data-state-from="Connected" data-state-to="Disconnected" d="M 236 566 L 236 364" fill="none" stroke="#1e293b" stroke-width="2" marker-end="url(#arrow)"/><text x="404" y="509" font-family="monospace" font-size="11" fill="#0f172a" text-anchor="middle" data-state-label="disconnect()"><tspan x="404" y="509">disconnect()</tspan></text><metadata data-state-node="Disconnected" data-state-kind="normal" /><rect x="166" y="296" width="140" height="68" rx="8" ry="8" fill="#f6f6f6" stroke="#1e293b" stroke-width="1.5"/><text x="236" y="320" font-family="monospace" font-size="13" font-weight="600" text-anchor="middle" fill="#0f172a">Disconnected</text><line x1="166" y1="332" x2="306" y2="332" stroke="#1e293b" stroke-width="1"/><text x="172" y="346" font-family="monospace" font-size="10" font-style="italic" fill="#0f172a">entry / clearCredentials()</text><text x="172" y="360" font-family="monospace" font-size="10" font-style="italic" fill="#0f172a">exit / initSocket()</text><metadata data-state-node="Connecting" data-state-kind="normal" /><rect x="166" y="424" width="140" height="82" rx="8" ry="8" fill="#f6f6f6" stroke="#1e293b" stroke-width="1.5"/><text x="236" y="448" font-family="monospace" font-size="13" font-weight="600" text-anchor="middle" fill="#0f172a">Connecting</text><line x1="166" y1="460" x2="306" y2="460" stroke="#1e293b" stroke-width="1"/><text x="172" y="474" font-family="monospace" font-size="10" font-style="italic" fill="#0f172a">entry / startTimer(30s)</text><text x="172" y="488" font-family="monospace" font-size="10" font-style="italic" fill="#0f172a">do / sendHandshake()</text><text x="172" y="502" font-family="monospace" font-size="10" font-style="italic" fill="#0f172a">exit / stopTimer()</text><metadata data-state-node="Connected" data-state-kind="normal" /><rect x="150" y="566" width="172" height="258" rx="8" ry="8" fill="#f6f6f6" stroke="#1e293b" stroke-width="1.5"/><text x="236" y="586" font-family="monospace" font-size="13" font-weight="600" text-anchor="middle" fill="#0f172a">Connected</text><path class="state-transition" data-state-from="Authenticated" data-state-to="Degraded" d="M 246 684 Q 246 714 246 744" fill="none" stroke="#1e293b" stroke-width="2" marker-end="url(#arrow)"/><text x="78" y="706" font-family="monospace" font-size="11" fill="#0f172a" text-anchor="middle" data-state-label="networkError"><tspan x="78" y="706">networkError</tspan></text><path class="state-transition" data-state-from="Degraded" data-state-to="Authenticated" d="M 226 744 Q 226 714 226 684" fill="none" stroke="#1e293b" stroke-width="2" marker-end="url(#arrow)"/><text x="394" y="730" font-family="monospace" font-size="11" fill="#0f172a" text-anchor="middle" data-state-label="recoveryOk"><tspan x="394" y="730">recoveryOk</tspan></text><metadata data-state-node="Authenticated" data-state-kind="normal" /><rect x="166" y="602" width="140" height="82" rx="8" ry="8" fill="#f6f6f6" stroke="#1e293b" stroke-width="1.5"/><text x="236" y="626" font-family="monospace" font-size="13" font-weight="600" text-anchor="middle" fill="#0f172a">Authenticated</text><line x1="166" y1="638" x2="306" y2="638" stroke="#1e293b" stroke-width="1"/><text x="172" y="652" font-family="monospace" font-size="10" font-style="italic" fill="#0f172a">entry / subscribeChannels()</text><text x="172" y="666" font-family="monospace" font-size="10" font-style="italic" fill="#0f172a">do / heartbeat()</text><text x="172" y="680" font-family="monospace" font-size="10" font-style="italic" fill="#0f172a">exit / unsubscribeChannels()</text><metadata data-state-node="Degraded" data-state-kind="normal" /><rect x="166" y="744" width="140" height="68" rx="8" ry="8" fill="#f6f6f6" stroke="#1e293b" stroke-width="1.5"/><text x="236" y="768" font-family="monospace" font-size="13" font-weight="600" text-anchor="middle" fill="#0f172a">Degraded</text><line x1="166" y1="780" x2="306" y2="780" stroke="#1e293b" stroke-width="1"/><text x="172" y="794" font-family="monospace" font-size="10" font-style="italic" fill="#0f172a">entry / alertOps()</text><text x="172" y="808" font-family="monospace" font-size="10" font-style="italic" fill="#0f172a">do / attemptRecovery()</text><metadata data-state-node="[*]" data-state-kind="start-end" /><circle cx="147" cy="187" r="12" fill="#0f172a"/></svg>