<svg xmlns="http://www.w3.org/2000/svg" width="264" height="878" viewBox="0 0 264 878"><rect width="100%" height="100%" fill="white"/><defs><marker id="arrow" markerWidth="8" markerHeight="8" refX="6" refY="3" orient="auto"><path d="M0,0 L0,6 L8,3 z" fill="#1e293b"/></marker></defs><polyline class="state-transition" data-state-from="[*]" data-state-to="CM" points="43,106 43,136 132,136 132,166" fill="none" stroke="#1e293b" stroke-width="2" marker-end="url(#arrow)"/><metadata data-state-node="CM" data-state-kind="normal" /><rect x="30" y="166" width="204" height="670" rx="8" ry="8" fill="#f6f6f6" stroke="#1e293b" stroke-width="1.5"/><text x="132" y="186" font-family="monospace" font-size="13" font-weight="600" text-anchor="middle" fill="#0f172a">Connection Manager</text><path class="state-transition" data-state-from="Disconnected" data-state-to="Connecting" d="M 172 270 Q 172 300 172 330" fill="none" stroke="#1e293b" stroke-width="2" marker-end="url(#arrow)"/><text x="164" y="310" font-family="monospace" font-size="11" fill="#0f172a" text-anchor="middle" data-state-label="connect()"><tspan x="164" y="310">connect()</tspan></text><polyline class="state-transition" data-state-from="Connecting" data-state-to="Connected" points="132,412 132,472" fill="none" stroke="#1e293b" stroke-width="2" marker-end="url(#arrow)"/><text x="124" y="452" font-family="monospace" font-size="11" fill="#0f172a" text-anchor="middle" data-state-label="handshakeOk"><tspan x="124" y="452">handshakeOk</tspan></text><path class="state-transition" data-state-from="Connecting" data-state-to="Disconnected" d="M 92 330 Q 92 300 92 270" fill="none" stroke="#1e293b" stroke-width="2" marker-end="url(#arrow)"/><text x="100" y="298" font-family="monospace" font-size="11" fill="#0f172a" text-anchor="middle" data-state-label="timeout"><tspan x="100" y="298">timeout</tspan></text><polyline class="state-transition" data-state-from="Connected" data-state-to="Disconnected" points="132,472 132,270" fill="none" stroke="#1e293b" stroke-width="2" marker-end="url(#arrow)"/><text x="140" y="375" font-family="monospace" font-size="11" fill="#0f172a" text-anchor="middle" data-state-label="disconnect()"><tspan x="140" y="375">disconnect()</tspan></text><metadata data-state-node="Disconnected" data-state-kind="normal" /><rect x="62" y="202" width="140" height="68" rx="8" ry="8" fill="#f6f6f6" stroke="#1e293b" stroke-width="1.5"/><text x="132" y="226" font-family="monospace" font-size="13" font-weight="600" text-anchor="middle" fill="#0f172a">Disconnected</text><line x1="62" y1="238" x2="202" y2="238" stroke="#1e293b" stroke-width="1"/><text x="68" y="250" font-family="monospace" font-size="10" font-style="italic" fill="#0f172a">entry / clearCredentials()</text><text x="68" y="264" font-family="monospace" font-size="10" font-style="italic" fill="#0f172a">exit / initSocket()</text><metadata data-state-node="Connecting" data-state-kind="normal" /><rect x="62" y="330" width="140" height="82" rx="8" ry="8" fill="#f6f6f6" stroke="#1e293b" stroke-width="1.5"/><text x="132" y="354" font-family="monospace" font-size="13" font-weight="600" text-anchor="middle" fill="#0f172a">Connecting</text><line x1="62" y1="366" x2="202" y2="366" stroke="#1e293b" stroke-width="1"/><text x="68" y="378" font-family="monospace" font-size="10" font-style="italic" fill="#0f172a">entry / startTimer(30s)</text><text x="68" y="392" font-family="monospace" font-size="10" font-style="italic" fill="#0f172a">do / sendHandshake()</text><text x="68" y="406" font-family="monospace" font-size="10" font-style="italic" fill="#0f172a">exit / stopTimer()</text><metadata data-state-node="Connected" data-state-kind="normal" /><rect x="46" y="472" width="172" height="352" rx="8" ry="8" fill="#f6f6f6" stroke="#1e293b" stroke-width="1.5"/><text x="132" y="492" font-family="monospace" font-size="13" font-weight="600" text-anchor="middle" fill="#0f172a">Connected</text><polyline class="state-transition" data-state-from="[H]" data-state-to="Authenticated" points="132,542 132,602" fill="none" stroke="#1e293b" stroke-width="2" marker-end="url(#arrow)"/><text x="124" y="576" font-family="monospace" font-size="11" fill="#0f172a" text-anchor="middle" data-state-label="resume"><tspan x="124" y="576">resume</tspan></text><path class="state-transition" data-state-from="Authenticated" data-state-to="Degraded" d="M 172 684 Q 172 714 172 744" fill="none" stroke="#1e293b" stroke-width="2" marker-end="url(#arrow)"/><text x="164" y="718" font-family="monospace" font-size="11" fill="#0f172a" text-anchor="middle" data-state-label="networkError"><tspan x="164" y="718">networkError</tspan></text><path class="state-transition" data-state-from="Degraded" data-state-to="Authenticated" d="M 92 744 Q 92 714 92 684" fill="none" stroke="#1e293b" stroke-width="2" marker-end="url(#arrow)"/><text x="100" y="718" font-family="monospace" font-size="11" fill="#0f172a" text-anchor="middle" data-state-label="recoveryOk"><tspan x="100" y="718">recoveryOk</tspan></text><metadata data-state-node="[H]" data-state-kind="history-shallow" /><circle cx="132" cy="525" r="16" fill="#f6f6f6" stroke="#1e293b" stroke-width="2"/><text x="132" y="525" font-family="monospace" font-size="13" font-weight="600" text-anchor="middle" dominant-baseline="middle" fill="#0f172a">H</text><metadata data-state-node="Authenticated" data-state-kind="normal" /><rect x="62" y="602" width="140" height="82" rx="8" ry="8" fill="#f6f6f6" stroke="#1e293b" stroke-width="1.5"/><text x="132" y="626" font-family="monospace" font-size="13" font-weight="600" text-anchor="middle" fill="#0f172a">Authenticated</text><line x1="62" y1="638" x2="202" y2="638" stroke="#1e293b" stroke-width="1"/><text x="68" y="650" font-family="monospace" font-size="10" font-style="italic" fill="#0f172a">entry / subscribeChannels()</text><text x="68" y="664" font-family="monospace" font-size="10" font-style="italic" fill="#0f172a">do / heartbeat()</text><text x="68" y="678" font-family="monospace" font-size="10" font-style="italic" fill="#0f172a">exit / unsubscribeChannels()</text><metadata data-state-node="Degraded" data-state-kind="normal" /><rect x="62" y="744" width="140" height="68" rx="8" ry="8" fill="#f6f6f6" stroke="#1e293b" stroke-width="1.5"/><text x="132" y="768" font-family="monospace" font-size="13" font-weight="600" text-anchor="middle" fill="#0f172a">Degraded</text><line x1="62" y1="780" x2="202" y2="780" stroke="#1e293b" stroke-width="1"/><text x="68" y="792" font-family="monospace" font-size="10" font-style="italic" fill="#0f172a">entry / alertOps()</text><text x="68" y="806" font-family="monospace" font-size="10" font-style="italic" fill="#0f172a">do / attemptRecovery()</text><metadata data-state-node="[*]" data-state-kind="start-end" /><circle cx="43" cy="93" r="12" fill="#0f172a"/></svg>