<svg xmlns="http://www.w3.org/2000/svg" width="481" height="878" viewBox="0 0 481 878"><rect width="100%" height="100%" fill="white"/><defs><marker id="arrow" markerWidth="8" markerHeight="8" refX="6" refY="3" orient="auto"><path d="M0,0 L0,6 L8,3 z" fill="#1e293b"/></marker></defs><path class="state-transition" data-state-from="[H]" data-state-to="Authenticated" d="M 152 114 L 152 358 L 237 358 L 237 602" fill="none" stroke="#1e293b" stroke-width="2" marker-end="url(#arrow)"/><text x="86" y="435" font-family="monospace" font-size="11" fill="#0f172a" text-anchor="middle" data-state-label="resume"><tspan x="86" y="435">resume</tspan></text><path class="state-transition" data-state-from="[*]" data-state-to="CM" d="M 148 200 L 148 230 L 237 230 L 237 260" fill="none" stroke="#1e293b" stroke-width="2" marker-end="url(#arrow)"/><metadata data-state-node="[H]" data-state-kind="history-shallow" /><circle cx="152" cy="97" r="16" fill="#f6f6f6" stroke="#1e293b" stroke-width="2"/><text x="152" y="97" font-family="monospace" font-size="13" font-weight="600" text-anchor="middle" dominant-baseline="middle" fill="#0f172a">H</text><metadata data-state-node="CM" data-state-kind="normal" /><rect x="135" y="260" width="204" height="576" rx="8" ry="8" fill="#f6f6f6" stroke="#1e293b" stroke-width="1.5"/><text x="237" y="280" font-family="monospace" font-size="13" font-weight="600" text-anchor="middle" fill="#0f172a">Connection Manager</text><path class="state-transition" data-state-from="Disconnected" data-state-to="Connecting" d="M 247 364 Q 247 394 247 424" fill="none" stroke="#1e293b" stroke-width="2" marker-end="url(#arrow)"/><text x="208" y="404" font-family="monospace" font-size="11" fill="#0f172a" text-anchor="middle" data-state-label="connect()"><tspan x="208" y="404">connect()</tspan></text><path class="state-transition" data-state-from="Connecting" data-state-to="Connected" d="M 237 506 L 237 566" fill="none" stroke="#1e293b" stroke-width="2" marker-end="url(#arrow)"/><text x="69" y="528" font-family="monospace" font-size="11" fill="#0f172a" text-anchor="middle" data-state-label="handshakeOk"><tspan x="69" y="528">handshakeOk</tspan></text><path class="state-transition" data-state-from="Connecting" data-state-to="Disconnected" d="M 227 424 Q 227 394 227 364" fill="none" stroke="#1e293b" stroke-width="2" marker-end="url(#arrow)"/><text x="260" y="530" font-family="monospace" font-size="11" fill="#0f172a" text-anchor="middle" data-state-label="timeout"><tspan x="260" y="530">timeout</tspan></text><path class="state-transition" data-state-from="Connected" data-state-to="Disconnected" d="M 237 566 L 237 364" fill="none" stroke="#1e293b" stroke-width="2" marker-end="url(#arrow)"/><text x="409" y="509" font-family="monospace" font-size="11" fill="#0f172a" text-anchor="middle" data-state-label="disconnect()"><tspan x="409" y="509">disconnect()</tspan></text><metadata data-state-node="Disconnected" data-state-kind="normal" /><rect x="167" y="296" width="140" height="68" rx="8" ry="8" fill="#f6f6f6" stroke="#1e293b" stroke-width="1.5"/><text x="237" y="320" font-family="monospace" font-size="13" font-weight="600" text-anchor="middle" fill="#0f172a">Disconnected</text><line x1="167" y1="332" x2="307" y2="332" stroke="#1e293b" stroke-width="1"/><text x="173" y="346" font-family="monospace" font-size="10" font-style="italic" fill="#0f172a">entry / clearCredentials()</text><text x="173" y="360" font-family="monospace" font-size="10" font-style="italic" fill="#0f172a">exit / initSocket()</text><metadata data-state-node="Connecting" data-state-kind="normal" /><rect x="167" y="424" width="140" height="82" rx="8" ry="8" fill="#f6f6f6" stroke="#1e293b" stroke-width="1.5"/><text x="237" y="448" font-family="monospace" font-size="13" font-weight="600" text-anchor="middle" fill="#0f172a">Connecting</text><line x1="167" y1="460" x2="307" y2="460" stroke="#1e293b" stroke-width="1"/><text x="173" y="474" font-family="monospace" font-size="10" font-style="italic" fill="#0f172a">entry / startTimer(30s)</text><text x="173" y="488" font-family="monospace" font-size="10" font-style="italic" fill="#0f172a">do / sendHandshake()</text><text x="173" y="502" font-family="monospace" font-size="10" font-style="italic" fill="#0f172a">exit / stopTimer()</text><metadata data-state-node="Connected" data-state-kind="normal" /><rect x="151" y="566" width="172" height="258" rx="8" ry="8" fill="#f6f6f6" stroke="#1e293b" stroke-width="1.5"/><text x="237" y="586" font-family="monospace" font-size="13" font-weight="600" text-anchor="middle" fill="#0f172a">Connected</text><path class="state-transition" data-state-from="Authenticated" data-state-to="Degraded" d="M 247 684 Q 247 714 247 744" fill="none" stroke="#1e293b" stroke-width="2" marker-end="url(#arrow)"/><text x="75" y="706" font-family="monospace" font-size="11" fill="#0f172a" text-anchor="middle" data-state-label="networkError"><tspan x="75" y="706">networkError</tspan></text><path class="state-transition" data-state-from="Degraded" data-state-to="Authenticated" d="M 227 744 Q 227 714 227 684" fill="none" stroke="#1e293b" stroke-width="2" marker-end="url(#arrow)"/><text x="392" y="730" font-family="monospace" font-size="11" fill="#0f172a" text-anchor="middle" data-state-label="recoveryOk"><tspan x="392" y="730">recoveryOk</tspan></text><metadata data-state-node="Authenticated" data-state-kind="normal" /><rect x="167" y="602" width="140" height="82" rx="8" ry="8" fill="#f6f6f6" stroke="#1e293b" stroke-width="1.5"/><text x="237" y="626" font-family="monospace" font-size="13" font-weight="600" text-anchor="middle" fill="#0f172a">Authenticated</text><line x1="167" y1="638" x2="307" y2="638" stroke="#1e293b" stroke-width="1"/><text x="173" y="652" font-family="monospace" font-size="10" font-style="italic" fill="#0f172a">entry / subscribeChannels()</text><text x="173" y="666" font-family="monospace" font-size="10" font-style="italic" fill="#0f172a">do / heartbeat()</text><text x="173" y="680" font-family="monospace" font-size="10" font-style="italic" fill="#0f172a">exit / unsubscribeChannels()</text><metadata data-state-node="Degraded" data-state-kind="normal" /><rect x="167" y="744" width="140" height="68" rx="8" ry="8" fill="#f6f6f6" stroke="#1e293b" stroke-width="1.5"/><text x="237" y="768" font-family="monospace" font-size="13" font-weight="600" text-anchor="middle" fill="#0f172a">Degraded</text><line x1="167" y1="780" x2="307" y2="780" stroke="#1e293b" stroke-width="1"/><text x="173" y="794" font-family="monospace" font-size="10" font-style="italic" fill="#0f172a">entry / alertOps()</text><text x="173" y="808" font-family="monospace" font-size="10" font-style="italic" fill="#0f172a">do / attemptRecovery()</text><metadata data-state-node="[*]" data-state-kind="start-end" /><circle cx="148" cy="187" r="12" fill="#0f172a"/></svg>