<svg xmlns="http://www.w3.org/2000/svg" width="459" height="1796" viewBox="0 0 459 1796"><rect width="100%" height="100%" fill="white"/><defs><marker id="arrow" markerWidth="8" markerHeight="8" refX="6" refY="3" orient="auto"><path d="M0,0 L0,6 L8,3 z" fill="#1e293b"/></marker></defs><text x="229" y="28" font-family="monospace" font-size="16" font-weight="600" text-anchor="middle" fill="#0f172a">State diagram Chapter 9 parity slice</text><polyline class="state-transition" data-state-from="Active" data-state-to="entry1" points="239,134 239,489 182,489 182,844" fill="none" stroke="#dd00aa" stroke-width="2" stroke-dasharray="5 3" marker-end="url(#arrow)"/><text x="222" y="485" font-family="monospace" font-size="11" fill="#0f172a" text-anchor="middle" data-state-label="colored"><tspan x="222" y="485">colored</tspan></text><polyline class="state-transition" data-state-from="entry1" data-state-to="Parent" points="182,886 182,916 270,916 270,946" fill="none" stroke="#1e293b" stroke-width="2" marker-end="url(#arrow)"/><polyline class="state-transition" data-state-from="Parent" data-state-to="exit1" points="270,1458 270,1488 182,1488 182,1518" fill="none" stroke="#1e293b" stroke-width="2" marker-end="url(#arrow)"/><polyline class="state-transition" data-state-from="exit1" data-state-to="Styled" points="182,1560 182,1590 239,1590 239,1620" fill="none" stroke="#1e293b" stroke-width="2" marker-end="url(#arrow)"/><polyline class="state-transition" data-state-from="Styled" data-state-to="Done[H*]" points="239,1660 239,1690 186,1690 186,1720" fill="none" stroke="#1e293b" stroke-width="2" marker-end="url(#arrow)"/><path class="state-note-connector" data-state-from="Active" data-state-to="__state_note_0001" d="M 239 107 L 140 107" fill="none" stroke="#6b7280" stroke-width="1" stroke-dasharray="5 3"/><path class="state-note-connector" data-state-from="Styled" data-state-to="__state_note_0002" d="M 212 1690 L 240 1690" fill="none" stroke="#6b7280" stroke-width="1" stroke-dasharray="5 3"/><metadata data-state-node="Active" data-state-kind="normal" /><rect x="169" y="80" width="140" height="54" rx="8" ry="8" fill="pink" stroke="blue" stroke-width="1.5" stroke-dasharray="5 3"/><text x="239" y="104" font-family="monospace" font-size="13" font-weight="600" text-anchor="middle" fill="#0f172a">Active</text><line x1="169" y1="116" x2="309" y2="116" stroke="#1e293b" stroke-width="1"/><text x="175" y="128" font-family="monospace" font-size="10" font-style="italic" fill="#0f172a">waits for input</text><metadata data-state-node="Empty" data-state-kind="normal" /><rect x="169" y="194" width="140" height="40" rx="8" ry="8" fill="#f6f6f6" stroke="#1e293b" stroke-width="1.5"/><text x="239" y="218" font-family="monospace" font-size="13" font-weight="600" text-anchor="middle" fill="#0f172a">Empty</text><metadata data-state-node="Styled" data-state-kind="normal" /><rect x="169" y="1620" width="140" height="40" rx="8" ry="8" fill="lightgreen" stroke="red" stroke-width="3"/><text x="239" y="1644" font-family="monospace" font-size="13" font-weight="600" text-anchor="middle" fill="blue">Styled</text><metadata data-state-node="Parent" data-state-kind="normal" /><rect x="169" y="946" width="202" height="512" rx="8" ry="8" fill="#f6f6f6" stroke="#1e293b" stroke-width="1.5"/><text x="270" y="966" font-family="monospace" font-size="13" font-weight="600" text-anchor="middle" fill="#0f172a">Parent</text><polyline class="state-transition" data-state-from="[*]__in__Parent__r0" data-state-to="Child" points="270,1008 270,1272" fill="none" stroke="#1e293b" stroke-width="2" marker-end="url(#arrow)"/><polyline class="state-transition" data-state-from="entryIn" data-state-to="Child" points="169,1110 169,1191 270,1191 270,1272" fill="none" stroke="#1e293b" stroke-width="2" marker-end="url(#arrow)"/><text x="217" y="1203" font-family="monospace" font-size="11" fill="#0f172a" text-anchor="middle" data-state-label="enter"><tspan x="217" y="1203">enter</tspan></text><polyline class="state-transition" data-state-from="Child" data-state-to="exitOut" points="340,1292 349,1292 349,1191 358,1191" fill="none" stroke="#1e293b" stroke-width="2" marker-end="url(#arrow)"/><text x="411" y="1266" font-family="monospace" font-size="11" fill="#0f172a" text-anchor="middle" data-state-label="leave"><tspan x="411" y="1266">leave</tspan></text><metadata data-state-node="[*]__in__Parent__r0" data-state-kind="start-end" /><circle cx="270" cy="995" r="12" fill="#0f172a"/><metadata data-state-node="entryIn" data-state-kind="entry-point" data-state-stereotype="entryPoint" /><circle cx="169" cy="1081" r="10" fill="#f6f6f6" stroke="#1e293b" stroke-width="2"/><text x="169" y="1097" font-family="monospace" font-size="10" text-anchor="middle" fill="#0f172a">entryIn</text><metadata data-state-node="exitOut" data-state-kind="exit-point" data-state-stereotype="exitPoint" /><circle cx="371" cy="1183" r="10" fill="#f6f6f6" stroke="#1e293b" stroke-width="2"/><line x1="366" y1="1178" x2="376" y2="1188" stroke="#1e293b" stroke-width="2"/><line x1="376" y1="1178" x2="366" y2="1188" stroke="#1e293b" stroke-width="2"/><text x="371" y="1199" font-family="monospace" font-size="10" text-anchor="middle" fill="#0f172a">exitOut</text><metadata data-state-node="Child" data-state-kind="normal" /><rect x="200" y="1272" width="140" height="40" rx="8" ry="8" fill="LightBlue" stroke="#1e293b" stroke-width="1.5"/><text x="270" y="1296" font-family="monospace" font-size="13" font-weight="600" text-anchor="middle" fill="#0f172a">Child</text><metadata data-state-node="__state_json_in_Parent_0006" data-state-kind="json-projection" data-state-stereotype="json" /><g class="state-json-projection" data-state-json="true" data-state-projection-format="json" data-state-projection-alias="$payload" data-state-projection-lines="2"><rect x="185" y="1372" width="170" height="74" rx="6" ry="6" fill="#eef6ff" stroke="#1e293b" stroke-width="1.5" /><rect x="185" y="1372" width="170" height="22" rx="6" ry="6" fill="#bfdbfe" stroke="#1e293b" stroke-width="1.5" /><line x1="185" y1="1394" x2="355" y2="1394" stroke="#1e293b" stroke-width="1"/><text x="195" y="1387" font-family="monospace" font-size="11" font-weight="600" fill="#1e3a8a">$payload (json)</text><g class="state-projection-row" data-state-projection-row="0" data-state-projection-row-depth="0" data-state-projection-row-label="fruit: Apple"><text x="195" y="1412" font-family="monospace" font-size="11" fill="#0f172a">fruit: Apple</text></g><g class="state-projection-row" data-state-projection-row="1" data-state-projection-row-depth="0" data-state-projection-row-label="count: 3"><text x="195" y="1428" font-family="monospace" font-size="11" fill="#0f172a">count: 3</text></g></g><metadata data-state-node="entry1" data-state-kind="entry-point" data-state-stereotype="entryPoint" /><circle cx="182" cy="857" r="10" fill="#f6f6f6" stroke="#1e293b" stroke-width="2"/><text x="182" y="873" font-family="monospace" font-size="10" text-anchor="middle" fill="#0f172a">entry1</text><metadata data-state-node="exit1" data-state-kind="exit-point" data-state-stereotype="exitPoint" /><circle cx="182" cy="1531" r="10" fill="#f6f6f6" stroke="#1e293b" stroke-width="2"/><line x1="177" y1="1526" x2="187" y2="1536" stroke="#1e293b" stroke-width="2"/><line x1="187" y1="1526" x2="177" y2="1536" stroke="#1e293b" stroke-width="2"/><text x="182" y="1547" font-family="monospace" font-size="10" text-anchor="middle" fill="#0f172a">exit1</text><metadata data-state-node="in1" data-state-kind="input-pin" data-state-stereotype="inputPin" /><rect x="174" y="299" width="24" height="24" fill="#f6f6f6" stroke="#1e293b" stroke-width="1.5" /><text x="186" y="329" font-family="monospace" font-size="10" text-anchor="middle" fill="#0f172a">in1</text><metadata data-state-node="out1" data-state-kind="output-pin" data-state-stereotype="outputPin" /><rect x="174" y="405" width="24" height="24" fill="#f6f6f6" stroke="#1e293b" stroke-width="1.5" /><text x="186" y="435" font-family="monospace" font-size="10" text-anchor="middle" fill="#0f172a">out1</text><metadata data-state-node="expIn" data-state-kind="expansion-input" data-state-stereotype="expansionInput" /><rect x="173" y="511" width="12" height="20" fill="#f6f6f6" stroke="#1e293b" stroke-width="1.5" /><rect x="185" y="511" width="12" height="20" fill="#f6f6f6" stroke="#1e293b" stroke-width="1.5" /><rect x="197" y="511" width="12" height="20" fill="#f6f6f6" stroke="#1e293b" stroke-width="1.5" /><text x="192" y="537" font-family="monospace" font-size="10" text-anchor="middle" fill="#0f172a">expIn</text><metadata data-state-node="expOut" data-state-kind="expansion-output" data-state-stereotype="expansionOutput" /><rect x="173" y="613" width="12" height="20" fill="#f6f6f6" stroke="#1e293b" stroke-width="1.5" /><rect x="185" y="613" width="12" height="20" fill="#f6f6f6" stroke="#1e293b" stroke-width="1.5" /><rect x="197" y="613" width="12" height="20" fill="#f6f6f6" stroke="#1e293b" stroke-width="1.5" /><text x="192" y="639" font-family="monospace" font-size="10" text-anchor="middle" fill="#0f172a">expOut</text><metadata data-state-node="Done[H*]" data-state-kind="history-deep" /><circle cx="186" cy="1737" r="16" fill="#f6f6f6" stroke="#1e293b" stroke-width="2"/><text x="186" y="1737" font-family="monospace" font-size="13" font-weight="600" text-anchor="middle" dominant-baseline="middle" fill="#0f172a">H*</text><metadata data-state-node="__state_note_0001" data-state-kind="note" data-state-stereotype="left" /><path class="state-note" d="M 30 85 H 129 L 141 97 V 129 H 30 Z" fill="#fff8c4" stroke="#111111" stroke-width="1"/><path class="state-note-fold" d="M 129 85 V 97 H 141" fill="none" stroke="#111111" stroke-width="1"/><text x="40" y="106" font-family="monospace" font-size="11" fill="#111111">attached note</text><metadata data-state-node="__state_note_0002" data-state-kind="note" data-state-stereotype="over" /><path class="state-note" d="M 240 1668 H 324 L 336 1680 V 1712 H 240 Z" fill="#fff8c4" stroke="#111111" stroke-width="1"/><path class="state-note-fold" d="M 324 1668 V 1680 H 336" fill="none" stroke="#111111" stroke-width="1"/><text x="250" y="1689" font-family="monospace" font-size="11" fill="#111111">link note</text><metadata data-state-node="__state_json_0001" data-state-kind="json-projection" data-state-stereotype="json" /><g class="state-json-projection" data-state-json="true" data-state-projection-format="json" data-state-projection-alias="$cfg" data-state-projection-lines="2"><rect x="169" y="710" width="170" height="74" rx="6" ry="6" fill="#eef6ff" stroke="#1e293b" stroke-width="1.5" /><rect x="169" y="710" width="170" height="22" rx="6" ry="6" fill="#bfdbfe" stroke="#1e293b" stroke-width="1.5" /><line x1="169" y1="732" x2="339" y2="732" stroke="#1e293b" stroke-width="1"/><text x="179" y="725" font-family="monospace" font-size="11" font-weight="600" fill="#1e3a8a">$cfg (json)</text><g class="state-projection-row" data-state-projection-row="0" data-state-projection-row-depth="0" data-state-projection-row-label="outer"><text x="179" y="750" font-family="monospace" font-size="11" fill="#0f172a">outer</text></g><line class="state-projection-connector" data-state-projection-connector="1" x1="186" y1="746" x2="186" y2="762" stroke="#1e293b" stroke-width="1"/><line class="state-projection-connector" data-state-projection-connector="1" x1="186" y1="762" x2="191" y2="762" stroke="#1e293b" stroke-width="1"/><g class="state-projection-row" data-state-projection-row="1" data-state-projection-row-depth="1" data-state-projection-row-label="ok: true"><text x="195" y="766" font-family="monospace" font-size="11" fill="#0f172a">ok: true</text></g></g></svg>