<svg xmlns="http://www.w3.org/2000/svg" width="242" height="1610" viewBox="0 0 242 1610"><rect width="100%" height="100%" fill="white"/><defs><marker id="arrow" markerWidth="8" markerHeight="8" refX="6" refY="3" orient="auto"><path d="M0,0 L0,6 L8,3 z" fill="#1e293b"/></marker></defs><text x="121" y="28" font-family="monospace" font-size="16" font-weight="600" text-anchor="middle" fill="#0f172a">State diagram Chapter 9 parity slice</text><path class="state-transition" data-state-from="Active" data-state-to="entry1" d="M 100 134 L 100 416 L 43 416 L 43 698" fill="none" stroke="#dd00aa" stroke-width="2" stroke-dasharray="5 3" marker-end="url(#arrow)"/><text x="69" y="270" font-family="monospace" font-size="11" fill="#0f172a" text-anchor="middle" data-state-label="colored"><tspan x="69" y="270">colored</tspan></text><path class="state-transition" data-state-from="entry1" data-state-to="Parent" d="M 43 724 L 43 806 L 121 806 L 121 888" fill="none" stroke="#1e293b" stroke-width="2" marker-end="url(#arrow)"/><path class="state-transition" data-state-from="Parent" data-state-to="exit1" d="M 121 1184 L 121 1214 L 43 1214 L 43 1244" fill="none" stroke="#1e293b" stroke-width="2" marker-end="url(#arrow)"/><path class="state-transition" data-state-from="exit1" data-state-to="Styled" d="M 43 1270 L 43 1300 L 100 1300 L 100 1330" fill="none" stroke="#1e293b" stroke-width="2" marker-end="url(#arrow)"/><path class="state-transition" data-state-from="Styled" data-state-to="Done[H*]" d="M 100 1370 L 100 1400 L 47 1400 L 47 1430" fill="none" stroke="#1e293b" stroke-width="2" marker-end="url(#arrow)"/><path class="state-transition" data-state-from="Active" data-state-to="__state_note_0001" d="M 100 134 L 100 459 L 85 459 L 85 784" fill="none" stroke="#6b7280" stroke-width="1" stroke-dasharray="5 3" data-state-direction="left" marker-end="url(#arrow)"/><path class="state-transition" data-state-from="Done[H*]" data-state-to="__state_note_0002" d="M 47 1464 L 47 1494 L 78 1494 L 78 1524" fill="none" stroke="#6b7280" stroke-width="1" stroke-dasharray="5 3" data-state-direction="over" marker-end="url(#arrow)"/><metadata data-state-node="Active" data-state-kind="normal" /><rect x="30" y="80" width="140" height="54" rx="8" ry="8" fill="pink" stroke="blue" stroke-width="1.5" stroke-dasharray="5 3"/><text x="100" y="104" font-family="monospace" font-size="13" font-weight="600" text-anchor="middle" fill="#0f172a">Active</text><line x1="30" y1="116" x2="170" y2="116" stroke="#1e293b" stroke-width="1"/><text x="36" y="130" font-family="monospace" font-size="10" font-style="italic" fill="#0f172a">waits for input</text><metadata data-state-node="Styled" data-state-kind="normal" /><rect x="30" y="1330" width="140" height="40" rx="8" ry="8" fill="lightgreen" stroke="red" stroke-width="3"/><text x="100" y="1354" font-family="monospace" font-size="13" font-weight="600" text-anchor="middle" fill="blue">Styled</text><metadata data-state-node="Parent" data-state-kind="normal" /><rect x="30" y="888" width="182" height="296" rx="8" ry="8" fill="#f6f6f6" stroke="#1e293b" stroke-width="1.5"/><text x="121" y="908" font-family="monospace" font-size="13" font-weight="600" text-anchor="middle" fill="#0f172a">Parent</text><path class="state-transition" data-state-from="[*]__in__Parent__r0" data-state-to="Child" d="M 121 950 L 121 1010" fill="none" stroke="#1e293b" stroke-width="2" marker-end="url(#arrow)"/><metadata data-state-node="[*]__in__Parent__r0" data-state-kind="start-end" /><circle cx="121" cy="937" r="12" fill="#0f172a"/><metadata data-state-node="Child" data-state-kind="normal" /><rect x="51" y="1010" width="140" height="40" rx="8" ry="8" fill="LightBlue" stroke="#1e293b" stroke-width="1.5"/><text x="121" y="1034" font-family="monospace" font-size="13" font-weight="600" text-anchor="middle" fill="#0f172a">Child</text><metadata data-state-node="__state_json_in_Parent_0002" data-state-kind="json-projection" data-state-stereotype="json" /><rect class="state-json-projection" data-state-json="true" x="46" y="1110" width="150" height="62" rx="6" ry="6" fill="#eef6ff" stroke="#1e293b" stroke-width="1.5" /><text x="56" y="1131" font-family="monospace" font-size="11" font-weight="600" fill="#0f172a">$payload</text><text x="56" y="1145" font-family="monospace" font-size="11" font-weight="400" fill="#0f172a">&quot;fruit&quot;: &quot;Apple&quot;,</text><text x="56" y="1159" font-family="monospace" font-size="11" font-weight="400" fill="#0f172a">&quot;count&quot;: 3</text><metadata data-state-node="entry1" data-state-kind="entry-point" data-state-stereotype="entryPoint" /><circle cx="43" cy="711" r="10" fill="#f6f6f6" stroke="#1e293b" stroke-width="2"/><metadata data-state-node="exit1" data-state-kind="exit-point" data-state-stereotype="exitPoint" /><circle cx="43" cy="1257" r="10" fill="#f6f6f6" stroke="#1e293b" stroke-width="2"/><line x1="38" y1="1252" x2="48" y2="1262" stroke="#1e293b" stroke-width="2"/><line x1="48" y1="1252" x2="38" y2="1262" stroke="#1e293b" stroke-width="2"/><metadata data-state-node="in1" data-state-kind="input-pin" data-state-stereotype="inputPin" /><rect x="35" y="199" width="24" height="24" fill="#f6f6f6" stroke="#1e293b" stroke-width="1.5" /><metadata data-state-node="out1" data-state-kind="output-pin" data-state-stereotype="outputPin" /><rect x="35" y="293" width="24" height="24" fill="#f6f6f6" stroke="#1e293b" stroke-width="1.5" /><metadata data-state-node="expIn" data-state-kind="expansion-input" data-state-stereotype="expansionInput" /><rect x="34" y="387" width="12" height="20" fill="#f6f6f6" stroke="#1e293b" stroke-width="1.5" /><rect x="46" y="387" width="12" height="20" fill="#f6f6f6" stroke="#1e293b" stroke-width="1.5" /><rect x="58" y="387" width="12" height="20" fill="#f6f6f6" stroke="#1e293b" stroke-width="1.5" /><metadata data-state-node="expOut" data-state-kind="expansion-output" data-state-stereotype="expansionOutput" /><rect x="34" y="477" width="12" height="20" fill="#f6f6f6" stroke="#1e293b" stroke-width="1.5" /><rect x="46" y="477" width="12" height="20" fill="#f6f6f6" stroke="#1e293b" stroke-width="1.5" /><rect x="58" y="477" width="12" height="20" fill="#f6f6f6" stroke="#1e293b" stroke-width="1.5" /><metadata data-state-node="Done[H*]" data-state-kind="history-deep" /><circle cx="47" cy="1447" r="16" fill="#f6f6f6" stroke="#1e293b" stroke-width="2"/><text x="47" y="1447" font-family="monospace" font-size="13" font-weight="600" text-anchor="middle" dominant-baseline="middle" fill="#0f172a">H*</text><metadata data-state-node="__state_note_0001" data-state-kind="note" data-state-stereotype="left" /><path class="state-note" d="M 30 784 H 129 L 141 796 V 828 H 30 Z" fill="#fff8c4" stroke="#111111" stroke-width="1"/><path class="state-note-fold" d="M 129 784 V 796 H 141" fill="none" stroke="#111111" stroke-width="1"/><text x="40" y="805" font-family="monospace" font-size="11" fill="#111111">attached note</text><metadata data-state-node="__state_note_0002" data-state-kind="note" data-state-stereotype="over" /><path class="state-note" d="M 30 1524 H 114 L 126 1536 V 1568 H 30 Z" fill="#fff8c4" stroke="#111111" stroke-width="1"/><path class="state-note-fold" d="M 114 1524 V 1536 H 126" fill="none" stroke="#111111" stroke-width="1"/><text x="40" y="1545" font-family="monospace" font-size="11" fill="#111111">link note</text><metadata data-state-node="__state_json_0001" data-state-kind="json-projection" data-state-stereotype="json" /><rect class="state-json-projection" data-state-json="true" x="30" y="562" width="150" height="76" rx="6" ry="6" fill="#eef6ff" stroke="#1e293b" stroke-width="1.5" /><text x="40" y="583" font-family="monospace" font-size="11" font-weight="600" fill="#0f172a">$cfg</text><text x="40" y="597" font-family="monospace" font-size="11" font-weight="400" fill="#0f172a">&quot;outer&quot;: {</text><text x="40" y="611" font-family="monospace" font-size="11" font-weight="400" fill="#0f172a">&quot;ok&quot;: true</text><text x="40" y="625" font-family="monospace" font-size="11" font-weight="400" fill="#0f172a">}</text></svg>