<svg xmlns="http://www.w3.org/2000/svg" width="401" height="1412" viewBox="0 0 401 1412"><rect width="100%" height="100%" fill="white"/><defs><marker id="arrow" markerWidth="8" markerHeight="8" refX="6" refY="3" orient="auto"><path d="M0,0 L0,6 L8,3 z" fill="#1e293b"/></marker></defs><text x="200" y="28" font-family="monospace" font-size="16" font-weight="600" text-anchor="middle" fill="#0f172a">State diagram Chapter 9 parity slice</text><path class="state-transition" data-state-from="Active" data-state-to="entry1" d="M 239 134 L 239 415 L 182 415 L 182 696" fill="none" stroke="#dd00aa" stroke-width="2" stroke-dasharray="5 3" marker-end="url(#arrow)"/><text x="150" y="539" font-family="monospace" font-size="11" fill="#0f172a" text-anchor="middle" data-state-label="colored"><tspan x="150" y="539">colored</tspan></text><path class="state-transition" data-state-from="entry1" data-state-to="Parent" d="M 182 722 L 182 752 L 270 752 L 270 782" fill="none" stroke="#1e293b" stroke-width="2" marker-end="url(#arrow)"/><path class="state-transition" data-state-from="Parent" data-state-to="exit1" d="M 270 1090 L 270 1120 L 182 1120 L 182 1150" fill="none" stroke="#1e293b" stroke-width="2" marker-end="url(#arrow)"/><path class="state-transition" data-state-from="exit1" data-state-to="Styled" d="M 182 1176 L 182 1206 L 239 1206 L 239 1236" fill="none" stroke="#1e293b" stroke-width="2" marker-end="url(#arrow)"/><path class="state-transition" data-state-from="Styled" data-state-to="Done[H*]" d="M 239 1276 L 239 1306 L 186 1306 L 186 1336" fill="none" stroke="#1e293b" stroke-width="2" marker-end="url(#arrow)"/><path class="state-note-connector" data-state-from="Active" data-state-to="__state_note_0001" d="M 239 107 L 140 107" fill="none" stroke="#6b7280" stroke-width="1" stroke-dasharray="5 3"/><path class="state-note-connector" data-state-from="Styled" data-state-to="__state_note_0002" d="M 212 1306 L 240 1306" fill="none" stroke="#6b7280" stroke-width="1" stroke-dasharray="5 3"/><metadata data-state-node="Active" data-state-kind="normal" /><rect x="169" y="80" width="140" height="54" rx="8" ry="8" fill="pink" stroke="blue" stroke-width="1.5" stroke-dasharray="5 3"/><text x="239" y="104" font-family="monospace" font-size="13" font-weight="600" text-anchor="middle" fill="#0f172a">Active</text><line x1="169" y1="116" x2="309" y2="116" stroke="#1e293b" stroke-width="1"/><text x="175" y="130" font-family="monospace" font-size="10" font-style="italic" fill="#0f172a">waits for input</text><metadata data-state-node="Styled" data-state-kind="normal" /><rect x="169" y="1236" width="140" height="40" rx="8" ry="8" fill="lightgreen" stroke="red" stroke-width="3"/><text x="239" y="1260" font-family="monospace" font-size="13" font-weight="600" text-anchor="middle" fill="blue">Styled</text><metadata data-state-node="Parent" data-state-kind="normal" /><rect x="169" y="782" width="202" height="308" rx="8" ry="8" fill="#f6f6f6" stroke="#1e293b" stroke-width="1.5"/><text x="270" y="802" font-family="monospace" font-size="13" font-weight="600" text-anchor="middle" fill="#0f172a">Parent</text><path class="state-transition" data-state-from="[*]__in__Parent__r0" data-state-to="Child" d="M 270 844 L 270 904" fill="none" stroke="#1e293b" stroke-width="2" marker-end="url(#arrow)"/><metadata data-state-node="[*]__in__Parent__r0" data-state-kind="start-end" /><circle cx="270" cy="831" r="12" fill="#0f172a"/><metadata data-state-node="Child" data-state-kind="normal" /><rect x="200" y="904" width="140" height="40" rx="8" ry="8" fill="LightBlue" stroke="#1e293b" stroke-width="1.5"/><text x="270" y="928" font-family="monospace" font-size="13" font-weight="600" text-anchor="middle" fill="#0f172a">Child</text><metadata data-state-node="__state_json_in_Parent_0002" data-state-kind="json-projection" data-state-stereotype="json" /><g class="state-json-projection" data-state-json="true" data-state-projection-format="json" data-state-projection-alias="$payload" data-state-projection-lines="2"><rect x="185" y="1004" width="170" height="74" rx="6" ry="6" fill="#eef6ff" stroke="#1e293b" stroke-width="1.5" /><rect x="185" y="1004" width="170" height="22" rx="6" ry="6" fill="#bfdbfe" stroke="#1e293b" stroke-width="1.5" /><line x1="185" y1="1026" x2="355" y2="1026" stroke="#1e293b" stroke-width="1"/><text x="195" y="1019" font-family="monospace" font-size="11" font-weight="600" fill="#1e3a8a">$payload (json)</text><g class="state-projection-row" data-state-projection-row="0" data-state-projection-row-depth="0" data-state-projection-row-label="count: 3"><text x="195" y="1044" font-family="monospace" font-size="11" fill="#0f172a">count: 3</text></g><g class="state-projection-row" data-state-projection-row="1" data-state-projection-row-depth="0" data-state-projection-row-label="fruit: Apple"><text x="195" y="1060" font-family="monospace" font-size="11" fill="#0f172a">fruit: Apple</text></g></g><metadata data-state-node="entry1" data-state-kind="entry-point" data-state-stereotype="entryPoint" /><circle cx="182" cy="709" r="10" fill="#f6f6f6" stroke="#1e293b" stroke-width="2"/><metadata data-state-node="exit1" data-state-kind="exit-point" data-state-stereotype="exitPoint" /><circle cx="182" cy="1163" r="10" fill="#f6f6f6" stroke="#1e293b" stroke-width="2"/><line x1="177" y1="1158" x2="187" y2="1168" stroke="#1e293b" stroke-width="2"/><line x1="187" y1="1158" x2="177" y2="1168" stroke="#1e293b" stroke-width="2"/><metadata data-state-node="in1" data-state-kind="input-pin" data-state-stereotype="inputPin" /><rect x="174" y="199" width="24" height="24" fill="#f6f6f6" stroke="#1e293b" stroke-width="1.5" /><metadata data-state-node="out1" data-state-kind="output-pin" data-state-stereotype="outputPin" /><rect x="174" y="293" width="24" height="24" fill="#f6f6f6" stroke="#1e293b" stroke-width="1.5" /><metadata data-state-node="expIn" data-state-kind="expansion-input" data-state-stereotype="expansionInput" /><rect x="173" y="387" width="12" height="20" fill="#f6f6f6" stroke="#1e293b" stroke-width="1.5" /><rect x="185" y="387" width="12" height="20" fill="#f6f6f6" stroke="#1e293b" stroke-width="1.5" /><rect x="197" y="387" width="12" height="20" fill="#f6f6f6" stroke="#1e293b" stroke-width="1.5" /><metadata data-state-node="expOut" data-state-kind="expansion-output" data-state-stereotype="expansionOutput" /><rect x="173" y="477" width="12" height="20" fill="#f6f6f6" stroke="#1e293b" stroke-width="1.5" /><rect x="185" y="477" width="12" height="20" fill="#f6f6f6" stroke="#1e293b" stroke-width="1.5" /><rect x="197" y="477" width="12" height="20" fill="#f6f6f6" stroke="#1e293b" stroke-width="1.5" /><metadata data-state-node="Done[H*]" data-state-kind="history-deep" /><circle cx="186" cy="1353" r="16" fill="#f6f6f6" stroke="#1e293b" stroke-width="2"/><text x="186" y="1353" font-family="monospace" font-size="13" font-weight="600" text-anchor="middle" dominant-baseline="middle" fill="#0f172a">H*</text><metadata data-state-node="__state_note_0001" data-state-kind="note" data-state-stereotype="left" /><path class="state-note" d="M 30 85 H 129 L 141 97 V 129 H 30 Z" fill="#fff8c4" stroke="#111111" stroke-width="1"/><path class="state-note-fold" d="M 129 85 V 97 H 141" fill="none" stroke="#111111" stroke-width="1"/><text x="40" y="106" font-family="monospace" font-size="11" fill="#111111">attached note</text><metadata data-state-node="__state_note_0002" data-state-kind="note" data-state-stereotype="over" /><path class="state-note" d="M 240 1284 H 324 L 336 1296 V 1328 H 240 Z" fill="#fff8c4" stroke="#111111" stroke-width="1"/><path class="state-note-fold" d="M 324 1284 V 1296 H 336" fill="none" stroke="#111111" stroke-width="1"/><text x="250" y="1305" font-family="monospace" font-size="11" fill="#111111">link note</text><metadata data-state-node="__state_json_0001" data-state-kind="json-projection" data-state-stereotype="json" /><g class="state-json-projection" data-state-json="true" data-state-projection-format="json" data-state-projection-alias="$cfg" data-state-projection-lines="2"><rect x="169" y="562" width="170" height="74" rx="6" ry="6" fill="#eef6ff" stroke="#1e293b" stroke-width="1.5" /><rect x="169" y="562" width="170" height="22" rx="6" ry="6" fill="#bfdbfe" stroke="#1e293b" stroke-width="1.5" /><line x1="169" y1="584" x2="339" y2="584" stroke="#1e293b" stroke-width="1"/><text x="179" y="577" font-family="monospace" font-size="11" font-weight="600" fill="#1e3a8a">$cfg (json)</text><g class="state-projection-row" data-state-projection-row="0" data-state-projection-row-depth="0" data-state-projection-row-label="outer"><text x="179" y="602" font-family="monospace" font-size="11" fill="#0f172a">outer</text></g><line class="state-projection-connector" data-state-projection-connector="1" x1="186" y1="598" x2="186" y2="614" stroke="#1e293b" stroke-width="1"/><line class="state-projection-connector" data-state-projection-connector="1" x1="186" y1="614" x2="191" y2="614" stroke="#1e293b" stroke-width="1"/><g class="state-projection-row" data-state-projection-row="1" data-state-projection-row-depth="1" data-state-projection-row-label="ok: true"><text x="195" y="618" font-family="monospace" font-size="11" fill="#0f172a">ok: true</text></g></g></svg>