<svg xmlns="http://www.w3.org/2000/svg" width="200" height="434" viewBox="0 0 200 434"><rect width="100%" height="100%" fill="white"/><defs><marker id="arrow" markerWidth="8" markerHeight="8" refX="6" refY="3" orient="auto"><path d="M0,0 L0,6 L8,3 z" fill="#0f766e"/></marker></defs><polyline class="state-transition" data-state-from="[*]" data-state-to="Idle" points="43,106 43,136 100,136 100,166" fill="none" stroke="#0f766e" stroke-width="2" marker-end="url(#arrow)"/><text x="60" y="148" font-family="monospace" font-size="11" fill="#164e63" text-anchor="middle" data-state-label="boot"><tspan x="60" y="148">boot</tspan></text><polyline class="state-transition" data-state-from="Idle" data-state-to="Running" points="100,206 100,266" fill="none" stroke="#0f766e" stroke-width="2" marker-end="url(#arrow)"/><text x="92" y="246" font-family="monospace" font-size="11" fill="#164e63" text-anchor="middle" data-state-label="start"><tspan x="92" y="246">start</tspan></text><polyline class="state-transition" data-state-from="Running" data-state-to="[*]__end" points="100,306 100,336 43,336 43,366" fill="none" stroke="#0f766e" stroke-width="2" marker-end="url(#arrow)"/><text x="83" y="332" font-family="monospace" font-size="11" fill="#164e63" text-anchor="middle" data-state-label="stop"><tspan x="83" y="332">stop</tspan></text><metadata data-state-node="[*]" data-state-kind="start-end" /><circle cx="43" cy="93" r="12" fill="#dc2626"/><metadata data-state-node="Idle" data-state-kind="normal" /><rect x="30" y="166" width="140" height="40" rx="8" ry="8" fill="#ecfeff" stroke="#0891b2" stroke-width="1.5"/><text x="100" y="190" font-family="monospace" font-size="14" font-weight="600" text-anchor="middle" fill="#164e63">Idle</text><metadata data-state-node="Running" data-state-kind="normal" /><rect x="30" y="266" width="140" height="40" rx="8" ry="8" fill="#ecfeff" stroke="#0891b2" stroke-width="1.5"/><text x="100" y="290" font-family="monospace" font-size="14" font-weight="600" text-anchor="middle" fill="#164e63">Running</text><metadata data-state-node="[*]__end" data-state-kind="end" /><circle cx="43" cy="379" r="12" fill="#ecfeff" stroke="#0891b2" stroke-width="2"/><circle cx="43" cy="379" r="8" fill="#dc2626"/></svg>