<svg xmlns="http://www.w3.org/2000/svg" width="616" height="348" viewBox="0 0 616 348"><rect width="100%" height="100%" fill="white"/><defs><marker id="arrow" markerWidth="8" markerHeight="8" refX="6" refY="3" orient="auto"><path d="M0,0 L0,6 L8,3 z" fill="#1e293b"/></marker></defs><text x="308" y="28" font-family="monospace" font-size="16" font-weight="600" text-anchor="middle" fill="#0f172a">State Self-Transitions</text><polyline class="state-transition" data-state-from="[*]" data-state-to="Idle" points="137,93 137,96 391,96 391,100" fill="none" stroke="#1e293b" stroke-width="2" marker-end="url(#arrow)"/><polyline class="state-transition" data-state-from="Idle" data-state-to="Active" points="391,100 391,143 251,143 251,186" fill="none" stroke="#1e293b" stroke-width="2" marker-end="url(#arrow)"/><text x="349" y="139" font-family="monospace" font-size="11" fill="#0f172a" text-anchor="middle" data-state-label="start()"><tspan x="349" y="139">start()</tspan></text><path class="state-transition" data-state-from="Active" data-state-to="Active" d="M 251 186 C 291 186 291 126 241 166" fill="none" stroke="#1e293b" stroke-width="2" marker-end="url(#arrow)"/><text x="275" y="142" font-family="monospace" font-size="11" fill="#0f172a" text-anchor="middle" data-state-label="process()"><tspan x="275" y="142">process()</tspan></text><path class="state-transition" data-state-from="Active" data-state-to="Retrying" d="M 252 176 Q 322 183 392 190" fill="none" stroke="#1e293b" stroke-width="2" marker-end="url(#arrow)"/><text x="293" y="192" font-family="monospace" font-size="11" fill="#0f172a" text-anchor="middle" data-state-label="fail()"><tspan x="293" y="192">fail()</tspan></text><path class="state-transition" data-state-from="Retrying" data-state-to="Retrying" d="M 531 200 C 571 200 571 140 521 180" fill="none" stroke="#1e293b" stroke-width="2" marker-end="url(#arrow)"/><text x="573" y="156" font-family="monospace" font-size="11" fill="#0f172a" text-anchor="middle" data-state-label="backoff"><tspan x="573" y="156">backoff</tspan></text><path class="state-transition" data-state-from="Retrying" data-state-to="Active" d="M 390 210 Q 320 203 250 196" fill="none" stroke="#1e293b" stroke-width="2" marker-end="url(#arrow)"/><text x="349" y="202" font-family="monospace" font-size="11" fill="#0f172a" text-anchor="middle" data-state-label="retry()"><tspan x="349" y="202">retry()</tspan></text><polyline class="state-transition" data-state-from="Active" data-state-to="Done" points="181,206 181,266" fill="none" stroke="#1e293b" stroke-width="2" marker-end="url(#arrow)"/><text x="173" y="246" font-family="monospace" font-size="11" fill="#0f172a" text-anchor="middle" data-state-label="complete()"><tspan x="173" y="246">complete()</tspan></text><polyline class="state-transition" data-state-from="Done" data-state-to="[*]__end" points="251,286 251,289 391,289 391,293" fill="none" stroke="#1e293b" stroke-width="2" marker-end="url(#arrow)"/><metadata data-state-node="[*]" data-state-kind="start-end" /><circle cx="124" cy="93" r="12" fill="#0f172a"/><metadata data-state-node="Idle" data-state-kind="normal" /><rect x="391" y="80" width="140" height="40" rx="8" ry="8" fill="#f6f6f6" stroke="#1e293b" stroke-width="1.5"/><text x="461" y="104" font-family="monospace" font-size="13" font-weight="600" text-anchor="middle" fill="#0f172a">Idle</text><metadata data-state-node="Active" data-state-kind="normal" /><rect x="111" y="166" width="140" height="40" rx="8" ry="8" fill="#f6f6f6" stroke="#1e293b" stroke-width="1.5"/><text x="181" y="190" font-family="monospace" font-size="13" font-weight="600" text-anchor="middle" fill="#0f172a">Active</text><metadata data-state-node="Retrying" data-state-kind="normal" /><rect x="391" y="180" width="140" height="40" rx="8" ry="8" fill="#f6f6f6" stroke="#1e293b" stroke-width="1.5"/><text x="461" y="204" font-family="monospace" font-size="13" font-weight="600" text-anchor="middle" fill="#0f172a">Retrying</text><metadata data-state-node="Done" data-state-kind="normal" /><rect x="111" y="266" width="140" height="40" rx="8" ry="8" fill="#f6f6f6" stroke="#1e293b" stroke-width="1.5"/><text x="181" y="290" font-family="monospace" font-size="13" font-weight="600" text-anchor="middle" fill="#0f172a">Done</text><metadata data-state-node="[*]__end" data-state-kind="end" /><circle cx="404" cy="293" r="12" fill="#f6f6f6" stroke="#1e293b" stroke-width="2"/><circle cx="404" cy="293" r="8" fill="#0f172a"/></svg>