<svg xmlns="http://www.w3.org/2000/svg" width="408" height="394" viewBox="0 0 408 394"><rect width="100%" height="100%" fill="#ecfdf5"/><text x="32" y="22" font-family="monospace" font-size="16" font-weight="600" fill="#0f172a">If-Then-Else Decision</text><metadata data-activity-kind="Start" data-activity-lane="default" data-activity-branch="0"/><circle cx="196" cy="66" r="12" fill="#0f172a"/><metadata data-activity-kind="Action" data-activity-lane="default" data-activity-branch="0"/><rect x="116" y="94" width="160" height="36" rx="18" ry="18" fill="#ecfdf5" stroke="#047857" stroke-width="1.5"/><text x="196" y="117" text-anchor="middle" font-family="monospace" font-size="12" fill="#0f172a">Receive Request</text><line x1="196" y1="88" x2="196" y2="90" stroke="#0f172a" stroke-width="1.5"/><polygon points="196,90 192,82 200,82" fill="#0f172a"/><metadata data-activity-kind="IfStart" data-activity-lane="default" data-activity-branch="0"/><polygon points="196,136 296,158 196,180 96,158" fill="#fef9c3" stroke="#047857" stroke-width="1.5"/><text x="196" y="162" text-anchor="middle" font-family="monospace" font-size="11" fill="#0f172a">authenticated?</text><line x1="196" y1="132" x2="196" y2="134" stroke="#0f172a" stroke-width="1.5"/><polygon points="196,134 192,126 200,126" fill="#0f172a"/><metadata data-activity-kind="Action" data-activity-lane="default" data-activity-branch="0"/><rect x="36" y="182" width="160" height="36" rx="18" ry="18" fill="#ecfdf5" stroke="#047857" stroke-width="1.5"/><text x="116" y="205" text-anchor="middle" font-family="monospace" font-size="12" fill="#0f172a">Process</text><line x1="96" y1="158" x2="96" y2="168" stroke="#0f172a" stroke-width="1.5"/><line x1="96" y1="168" x2="116" y2="168" stroke="#0f172a" stroke-width="1.5"/><line x1="116" y1="168" x2="116" y2="178" stroke="#0f172a" stroke-width="1.5"/><polygon points="116,178 112,170 120,170" fill="#0f172a"/><text x="110" y="164" font-family="monospace" font-size="10" fill="#0f172a">no</text><metadata data-activity-kind="Action" data-activity-lane="default" data-activity-branch="0"/><rect x="36" y="226" width="160" height="36" rx="18" ry="18" fill="#ecfdf5" stroke="#047857" stroke-width="1.5"/><text x="116" y="249" text-anchor="middle" font-family="monospace" font-size="12" fill="#0f172a">Return 200</text><line x1="116" y1="220" x2="116" y2="222" stroke="#0f172a" stroke-width="1.5"/><polygon points="116,222 112,214 120,214" fill="#0f172a"/><metadata data-activity-kind="Else" data-activity-lane="default" data-activity-branch="0"/><metadata data-activity-kind="Action" data-activity-lane="default" data-activity-branch="0"/><rect x="196" y="226" width="160" height="36" rx="18" ry="18" fill="#ecfdf5" stroke="#047857" stroke-width="1.5"/><text x="276" y="249" text-anchor="middle" font-family="monospace" font-size="12" fill="#0f172a">Return 401</text><line x1="196" y1="176" x2="196" y2="199" stroke="#0f172a" stroke-width="1.5"/><line x1="196" y1="199" x2="276" y2="199" stroke="#0f172a" stroke-width="1.5"/><line x1="276" y1="199" x2="276" y2="222" stroke="#0f172a" stroke-width="1.5"/><polygon points="276,222 272,214 280,214" fill="#0f172a"/><text x="240" y="195" font-family="monospace" font-size="10" fill="#0f172a">yes</text><metadata data-activity-kind="EndIf" data-activity-lane="default" data-activity-branch="0"/><metadata data-activity-kind="Stop" data-activity-lane="default" data-activity-branch="0"/><circle cx="196" cy="330" r="14" fill="white" stroke="#0f172a" stroke-width="1.5"/><circle cx="196" cy="330" r="7" fill="#0f172a"/><line x1="116" y1="264" x2="116" y2="287" stroke="#0f172a" stroke-width="1.5"/><line x1="116" y1="287" x2="196" y2="287" stroke="#0f172a" stroke-width="1.5"/><line x1="196" y1="287" x2="196" y2="310" stroke="#0f172a" stroke-width="1.5"/><polygon points="196,310 192,302 200,302" fill="#0f172a"/><line x1="276" y1="264" x2="276" y2="287" stroke="#0f172a" stroke-width="1.5"/><line x1="276" y1="287" x2="196" y2="287" stroke="#0f172a" stroke-width="1.5"/><line x1="196" y1="287" x2="196" y2="310" stroke="#0f172a" stroke-width="1.5"/><polygon points="196,310 192,302 200,302" fill="#0f172a"/></svg>