<svg xmlns="http://www.w3.org/2000/svg" width="480" height="662" viewBox="0 0 480 662"><rect width="100%" height="100%" fill="white"/><text x="32" y="28" font-family="monospace" font-size="18" font-weight="600">If-Then-Else Decision</text><text x="32" y="52" font-family="monospace" font-size="12" fill="#475569">activity diagram</text><circle cx="240" cy="82" r="12" fill="#0f172a"/><rect x="130" y="126" width="220" height="36" rx="18" ry="18" fill="#ecfdf5" stroke="#047857" stroke-width="1.5"/><text x="240" y="149" text-anchor="middle" font-family="monospace" font-size="12">Receive Request</text><line x1="240" y1="104" x2="240" y2="122" stroke="#0f172a" stroke-width="1.5"/><polygon points="240,122 236,116 244,116" fill="#0f172a"/><polygon points="240,184 340,206 240,228 140,206" fill="#fef9c3" stroke="#047857" stroke-width="1.5"/><text x="240" y="210" text-anchor="middle" font-family="monospace" font-size="11">authenticated?) then (yes</text><line x1="240" y1="164" x2="240" y2="182" stroke="#0f172a" stroke-width="1.5"/><polygon points="240,182 236,176 244,176" fill="#0f172a"/><rect x="130" y="246" width="220" height="36" rx="18" ry="18" fill="#ecfdf5" stroke="#047857" stroke-width="1.5"/><text x="240" y="269" text-anchor="middle" font-family="monospace" font-size="12">Process</text><line x1="240" y1="224" x2="240" y2="242" stroke="#0f172a" stroke-width="1.5"/><polygon points="240,242 236,236 244,236" fill="#0f172a"/><rect x="130" y="306" width="220" height="36" rx="18" ry="18" fill="#ecfdf5" stroke="#047857" stroke-width="1.5"/><text x="240" y="329" text-anchor="middle" font-family="monospace" font-size="12">Return 200</text><line x1="240" y1="284" x2="240" y2="302" stroke="#0f172a" stroke-width="1.5"/><polygon points="240,302 236,296 244,296" fill="#0f172a"/><text x="240" y="390" text-anchor="middle" font-family="monospace" font-size="11" fill="#475569">(merge) no</text><line x1="240" y1="344" x2="240" y2="362" stroke="#0f172a" stroke-width="1.5"/><polygon points="240,362 236,356 244,356" fill="#0f172a"/><rect x="130" y="426" width="220" height="36" rx="18" ry="18" fill="#ecfdf5" stroke="#047857" stroke-width="1.5"/><text x="240" y="449" text-anchor="middle" font-family="monospace" font-size="12">Return 401</text><line x1="240" y1="404" x2="240" y2="422" stroke="#0f172a" stroke-width="1.5"/><polygon points="240,422 236,416 244,416" fill="#0f172a"/><text x="240" y="510" text-anchor="middle" font-family="monospace" font-size="11" fill="#475569">(merge) </text><line x1="240" y1="464" x2="240" y2="482" stroke="#0f172a" stroke-width="1.5"/><polygon points="240,482 236,476 244,476" fill="#0f172a"/><circle cx="240" cy="562" r="14" fill="white" stroke="#0f172a" stroke-width="1.5"/><circle cx="240" cy="562" r="7" fill="#0f172a"/><line x1="240" y1="524" x2="240" y2="542" stroke="#0f172a" stroke-width="1.5"/><polygon points="240,542 236,536 244,536" fill="#0f172a"/></svg>