<svg xmlns="http://www.w3.org/2000/svg" width="800" height="542" viewBox="0 0 800 542"><rect width="100%" height="100%" fill="#ecfdf5"/><text x="32" y="28" font-family="monospace" font-size="18" font-weight="600" fill="#0f172a">If-Then-Else Decision</text><text x="32" y="52" font-family="monospace" font-size="12" fill="#0f172a">activity diagram</text><rect x="32" y="62" width="736" height="460" fill="#ecfdf5" stroke="#cbd5e1" stroke-width="1" stroke-dasharray="4 3"/><metadata data-activity-kind="Start" data-activity-lane="default" data-activity-branch="0"/><circle cx="400" cy="82" r="12" fill="#0f172a"/><metadata data-activity-kind="Action" data-activity-lane="default" data-activity-branch="0"/><rect x="290" y="126" width="220" height="36" rx="18" ry="18" fill="#ecfdf5" stroke="#047857" stroke-width="1.5"/><text x="400" y="149" text-anchor="middle" font-family="monospace" font-size="12" fill="#0f172a">Receive Request</text><line x1="400" y1="104" x2="400" y2="122" stroke="#0f172a" stroke-width="1.5"/><polygon points="400,122 396,114 404,114" fill="#0f172a"/><metadata data-activity-kind="IfStart" data-activity-lane="default" data-activity-branch="0"/><polygon points="400,184 500,206 400,228 300,206" fill="#fef9c3" stroke="#047857" stroke-width="1.5"/><text x="400" y="210" text-anchor="middle" font-family="monospace" font-size="11" fill="#0f172a">authenticated?</text><text x="504" y="210" text-anchor="start" font-family="monospace" font-size="10" fill="#0f172a">yes</text><line x1="400" y1="164" x2="400" y2="182" stroke="#0f172a" stroke-width="1.5"/><polygon points="400,182 396,174 404,174" fill="#0f172a"/><metadata data-activity-kind="Action" data-activity-lane="default" data-activity-branch="0"/><rect x="290" y="246" width="220" height="36" rx="18" ry="18" fill="#ecfdf5" stroke="#047857" stroke-width="1.5"/><text x="400" y="269" text-anchor="middle" font-family="monospace" font-size="12" fill="#0f172a">Process</text><line x1="400" y1="224" x2="400" y2="242" stroke="#0f172a" stroke-width="1.5"/><polygon points="400,242 396,234 404,234" fill="#0f172a"/><metadata data-activity-kind="Action" data-activity-lane="default" data-activity-branch="0"/><rect x="290" y="306" width="220" height="36" rx="18" ry="18" fill="#ecfdf5" stroke="#047857" stroke-width="1.5"/><text x="400" y="329" text-anchor="middle" font-family="monospace" font-size="12" fill="#0f172a">Return 200</text><line x1="400" y1="284" x2="400" y2="302" stroke="#0f172a" stroke-width="1.5"/><polygon points="400,302 396,294 404,294" fill="#0f172a"/><metadata data-activity-kind="Else" data-activity-lane="default" data-activity-branch="0"/><line x1="400" y1="224" x2="560" y2="242" stroke="#0f172a" stroke-width="1.5"/><polygon points="560,242 552,245 552,237" fill="#0f172a"/><metadata data-activity-kind="Action" data-activity-lane="default" data-activity-branch="0"/><rect x="450" y="306" width="220" height="36" rx="18" ry="18" fill="#ecfdf5" stroke="#047857" stroke-width="1.5"/><text x="560" y="329" text-anchor="middle" font-family="monospace" font-size="12" fill="#0f172a">Return 401</text><line x1="560" y1="284" x2="560" y2="302" stroke="#0f172a" stroke-width="1.5"/><polygon points="560,302 556,294 564,294" fill="#0f172a"/><metadata data-activity-kind="EndIf" data-activity-lane="default" data-activity-branch="0"/><line x1="400" y1="344" x2="400" y2="362" stroke="#0f172a" stroke-width="1.5"/><polygon points="400,362 396,354 404,354" fill="#0f172a"/><line x1="560" y1="344" x2="400" y2="362" stroke="#0f172a" stroke-width="1.5"/><polygon points="400,362 408,357 408,365" fill="#0f172a"/><metadata data-activity-kind="Stop" data-activity-lane="default" data-activity-branch="0"/><circle cx="400" cy="442" r="14" fill="white" stroke="#0f172a" stroke-width="1.5"/><circle cx="400" cy="442" r="7" fill="#0f172a"/><line x1="400" y1="404" x2="400" y2="422" stroke="#0f172a" stroke-width="1.5"/><polygon points="400,422 396,414 404,414" fill="#0f172a"/></svg>