<svg xmlns="http://www.w3.org/2000/svg" width="568" height="482" viewBox="0 0 568 482"><rect width="100%" height="100%" fill="#ecfdf5"/><text x="32" y="22" font-family="monospace" font-size="16" font-weight="600" fill="#0f172a">Nested Conditionals</text><metadata data-activity-kind="Start" data-activity-lane="default" data-activity-branch="0"/><circle cx="276" cy="66" r="12" fill="#0f172a"/><metadata data-activity-kind="Action" data-activity-lane="default" data-activity-branch="0"/><rect x="196" y="94" width="160" height="36" rx="18" ry="18" fill="#ecfdf5" stroke="#047857" stroke-width="1.5"/><text x="276" y="117" text-anchor="middle" font-family="monospace" font-size="12" fill="#0f172a">Check Input</text><line x1="276" y1="88" x2="276" y2="90" stroke="#0f172a" stroke-width="1.5"/><polygon points="276,90 272,82 280,82" fill="#0f172a"/><metadata data-activity-kind="IfStart" data-activity-lane="default" data-activity-branch="0"/><polygon points="276,136 376,158 276,180 176,158" fill="#fef9c3" stroke="#047857" stroke-width="1.5"/><text x="276" y="162" text-anchor="middle" font-family="monospace" font-size="11" fill="#0f172a">valid?</text><line x1="276" y1="132" x2="276" y2="134" stroke="#0f172a" stroke-width="1.5"/><polygon points="276,134 272,126 280,126" fill="#0f172a"/><metadata data-activity-kind="IfStart" data-activity-lane="default" data-activity-branch="0"/><polygon points="196,180 296,202 196,224 96,202" fill="#fef9c3" stroke="#047857" stroke-width="1.5"/><text x="196" y="206" text-anchor="middle" font-family="monospace" font-size="11" fill="#0f172a">authorized?</text><line x1="176" y1="158" x2="176" y2="168" stroke="#0f172a" stroke-width="1.5"/><line x1="176" y1="168" x2="196" y2="168" stroke="#0f172a" stroke-width="1.5"/><line x1="196" y1="168" x2="196" y2="178" stroke="#0f172a" stroke-width="1.5"/><polygon points="196,178 192,170 200,170" fill="#0f172a"/><text x="190" y="164" font-family="monospace" font-size="10" fill="#0f172a">no</text><metadata data-activity-kind="Action" data-activity-lane="default" data-activity-branch="0"/><rect x="36" y="226" width="160" height="36" rx="18" ry="18" fill="#ecfdf5" stroke="#047857" stroke-width="1.5"/><text x="116" y="249" text-anchor="middle" font-family="monospace" font-size="12" fill="#0f172a">Execute</text><line x1="96" y1="202" x2="96" y2="212" stroke="#0f172a" stroke-width="1.5"/><line x1="96" y1="212" x2="116" y2="212" stroke="#0f172a" stroke-width="1.5"/><line x1="116" y1="212" x2="116" y2="222" stroke="#0f172a" stroke-width="1.5"/><polygon points="116,222 112,214 120,214" fill="#0f172a"/><text x="110" y="208" font-family="monospace" font-size="10" fill="#0f172a">no</text><metadata data-activity-kind="Else" data-activity-lane="default" data-activity-branch="0"/><metadata data-activity-kind="Action" data-activity-lane="default" data-activity-branch="0"/><rect x="196" y="270" width="160" height="36" rx="18" ry="18" fill="#ecfdf5" stroke="#047857" stroke-width="1.5"/><text x="276" y="293" text-anchor="middle" font-family="monospace" font-size="12" fill="#0f172a">Return 403</text><line x1="196" y1="220" x2="196" y2="243" stroke="#0f172a" stroke-width="1.5"/><line x1="196" y1="243" x2="276" y2="243" stroke="#0f172a" stroke-width="1.5"/><line x1="276" y1="243" x2="276" y2="266" stroke="#0f172a" stroke-width="1.5"/><polygon points="276,266 272,258 280,258" fill="#0f172a"/><text x="240" y="239" font-family="monospace" font-size="10" fill="#0f172a">yes</text><metadata data-activity-kind="EndIf" data-activity-lane="default" data-activity-branch="0"/><metadata data-activity-kind="Else" data-activity-lane="default" data-activity-branch="0"/><metadata data-activity-kind="Action" data-activity-lane="default" data-activity-branch="0"/><rect x="276" y="226" width="160" height="36" rx="18" ry="18" fill="#ecfdf5" stroke="#047857" stroke-width="1.5"/><text x="356" y="249" text-anchor="middle" font-family="monospace" font-size="12" fill="#0f172a">Return 400</text><line x1="116" y1="264" x2="116" y2="260" stroke="#0f172a" stroke-width="1.5"/><line x1="116" y1="260" x2="356" y2="260" stroke="#0f172a" stroke-width="1.5"/><line x1="356" y1="260" x2="356" y2="222" stroke="#0f172a" stroke-width="1.5"/><polygon points="356,222 352,230 360,230" fill="#0f172a"/><line x1="276" y1="308" x2="368" y2="308" stroke="#0f172a" stroke-width="1.5"/><line x1="368" y1="308" x2="368" y2="265" stroke="#0f172a" stroke-width="1.5"/><line x1="368" y1="265" x2="356" y2="265" stroke="#0f172a" stroke-width="1.5"/><line x1="356" y1="265" x2="356" y2="222" stroke="#0f172a" stroke-width="1.5"/><polygon points="356,222 352,230 360,230" fill="#0f172a"/><line x1="276" y1="176" x2="276" y2="199" stroke="#0f172a" stroke-width="1.5"/><line x1="276" y1="199" x2="356" y2="199" stroke="#0f172a" stroke-width="1.5"/><line x1="356" y1="199" x2="356" y2="222" stroke="#0f172a" stroke-width="1.5"/><polygon points="356,222 352,214 360,214" fill="#0f172a"/><text x="320" y="195" font-family="monospace" font-size="10" fill="#0f172a">yes</text><metadata data-activity-kind="EndIf" data-activity-lane="default" data-activity-branch="0"/><metadata data-activity-kind="Stop" data-activity-lane="default" data-activity-branch="0"/><circle cx="276" cy="418" r="14" fill="white" stroke="#0f172a" stroke-width="1.5"/><circle cx="276" cy="418" r="7" fill="#0f172a"/><line x1="356" y1="264" x2="356" y2="331" stroke="#0f172a" stroke-width="1.5"/><line x1="356" y1="331" x2="276" y2="331" stroke="#0f172a" stroke-width="1.5"/><line x1="276" y1="331" x2="276" y2="398" stroke="#0f172a" stroke-width="1.5"/><polygon points="276,398 272,390 280,390" fill="#0f172a"/></svg>