<svg xmlns="http://www.w3.org/2000/svg" width="568" height="482" viewBox="0 0 568 482"><rect width="100%" height="100%" fill="#ecfdf5"/><text x="32" y="22" font-family="monospace" font-size="16" font-weight="600" fill="#0f172a">Nested Conditionals</text><metadata data-activity-kind="Start" data-activity-lane="default" data-activity-branch="0"/><circle cx="276" cy="66" r="12" fill="#0f172a"/><metadata data-activity-kind="Action" data-activity-lane="default" data-activity-branch="0"/><rect x="196" y="94" width="160" height="36" rx="18" ry="18" fill="#ecfdf5" stroke="#047857" stroke-width="1.5"/><text x="276" y="117" text-anchor="middle" font-family="monospace" font-size="12" fill="#0f172a">Check Input</text><polyline points="276,88 276,90" fill="none" stroke="#0f172a" stroke-width="1.5"/><polygon points="276,90 272,82 280,82" fill="#0f172a"/><metadata data-activity-kind="IfStart" data-activity-lane="default" data-activity-branch="0"/><polygon points="276,136 376,158 276,180 176,158" fill="#fef9c3" stroke="#047857" stroke-width="1.5"/><text x="276" y="162" text-anchor="middle" font-family="monospace" font-size="11" fill="#0f172a">valid?</text><polyline points="276,132 276,134" fill="none" stroke="#0f172a" stroke-width="1.5"/><polygon points="276,134 272,126 280,126" fill="#0f172a"/><metadata data-activity-kind="IfStart" data-activity-lane="default" data-activity-branch="0"/><polygon points="196,180 296,202 196,224 96,202" fill="#fef9c3" stroke="#047857" stroke-width="1.5"/><text x="196" y="206" text-anchor="middle" font-family="monospace" font-size="11" fill="#0f172a">authorized?</text><polyline points="176,158 176,168 196,168 196,178" fill="none" stroke="#0f172a" stroke-width="1.5"/><polygon points="196,178 192,170 200,170" fill="#0f172a"/><text x="202" y="168" font-family="monospace" font-size="10" fill="#0f172a">yes</text><metadata data-activity-kind="Action" data-activity-lane="default" data-activity-branch="0"/><rect x="36" y="226" width="160" height="36" rx="18" ry="18" fill="#ecfdf5" stroke="#047857" stroke-width="1.5"/><text x="116" y="249" text-anchor="middle" font-family="monospace" font-size="12" fill="#0f172a">Execute</text><polyline points="96,202 96,212 116,212 116,222" fill="none" stroke="#0f172a" stroke-width="1.5"/><polygon points="116,222 112,214 120,214" fill="#0f172a"/><text x="122" y="212" font-family="monospace" font-size="10" fill="#0f172a">yes</text><metadata data-activity-kind="Else" data-activity-lane="default" data-activity-branch="0"/><metadata data-activity-kind="Action" data-activity-lane="default" data-activity-branch="0"/><rect x="196" y="270" width="160" height="36" rx="18" ry="18" fill="#ecfdf5" stroke="#047857" stroke-width="1.5"/><text x="276" y="293" text-anchor="middle" font-family="monospace" font-size="12" fill="#0f172a">Return 403</text><polyline points="196,220 196,243 276,243 276,266" fill="none" stroke="#0f172a" stroke-width="1.5"/><polygon points="276,266 272,258 280,258" fill="#0f172a"/><text x="282" y="243" font-family="monospace" font-size="10" fill="#0f172a">no</text><metadata data-activity-kind="EndIf" data-activity-lane="default" data-activity-branch="0"/><metadata data-activity-kind="Else" data-activity-lane="default" data-activity-branch="0"/><metadata data-activity-kind="Action" data-activity-lane="default" data-activity-branch="0"/><rect x="276" y="226" width="160" height="36" rx="18" ry="18" fill="#ecfdf5" stroke="#047857" stroke-width="1.5"/><text x="356" y="249" text-anchor="middle" font-family="monospace" font-size="12" fill="#0f172a">Return 400</text><polyline points="116,264 116,260 356,260 356,222" fill="none" stroke="#0f172a" stroke-width="1.5"/><polygon points="356,222 352,230 360,230" fill="#0f172a"/><polyline points="276,308 368,308 368,265 356,265 356,222" fill="none" stroke="#0f172a" stroke-width="1.5"/><polygon points="356,222 352,230 360,230" fill="#0f172a"/><polyline points="276,176 276,199 356,199 356,222" fill="none" stroke="#0f172a" stroke-width="1.5"/><polygon points="356,222 352,214 360,214" fill="#0f172a"/><text x="362" y="199" font-family="monospace" font-size="10" fill="#0f172a">no</text><metadata data-activity-kind="EndIf" data-activity-lane="default" data-activity-branch="0"/><metadata data-activity-kind="Stop" data-activity-lane="default" data-activity-branch="0"/><circle cx="276" cy="418" r="14" fill="white" stroke="#0f172a" stroke-width="1.5"/><circle cx="276" cy="418" r="7" fill="#0f172a"/><polyline points="356,264 356,331 276,331 276,398" fill="none" stroke="#0f172a" stroke-width="1.5"/><polygon points="276,398 272,390 280,390" fill="#0f172a"/></svg>