<svg xmlns="http://www.w3.org/2000/svg" width="1120" height="662" viewBox="0 0 1120 662"><rect width="100%" height="100%" fill="#ecfdf5"/><text x="32" y="28" font-family="monospace" font-size="18" font-weight="600" fill="#0f172a">Nested Conditionals</text><text x="32" y="52" font-family="monospace" font-size="12" fill="#0f172a">activity diagram</text><rect x="32" y="62" width="1056" height="580" fill="#ecfdf5" stroke="#cbd5e1" stroke-width="1" stroke-dasharray="4 3"/><metadata data-activity-kind="Start" data-activity-lane="default" data-activity-branch="0"/><circle cx="560" cy="82" r="12" fill="#0f172a"/><metadata data-activity-kind="Action" data-activity-lane="default" data-activity-branch="0"/><rect x="450" y="126" width="220" height="36" rx="18" ry="18" fill="#ecfdf5" stroke="#047857" stroke-width="1.5"/><text x="560" y="149" text-anchor="middle" font-family="monospace" font-size="12" fill="#0f172a">Check Input</text><line x1="560" y1="104" x2="560" y2="122" stroke="#0f172a" stroke-width="1.5"/><polygon points="560,122 556,114 564,114" fill="#0f172a"/><metadata data-activity-kind="IfStart" data-activity-lane="default" data-activity-branch="0"/><polygon points="560,184 660,206 560,228 460,206" fill="#fef9c3" stroke="#047857" stroke-width="1.5"/><text x="560" y="210" text-anchor="middle" font-family="monospace" font-size="11" fill="#0f172a">valid?</text><line x1="560" y1="164" x2="560" y2="182" stroke="#0f172a" stroke-width="1.5"/><polygon points="560,182 556,174 564,174" fill="#0f172a"/><metadata data-activity-kind="IfStart" data-activity-lane="default" data-activity-branch="0"/><polygon points="400,244 500,266 400,288 300,266" fill="#fef9c3" stroke="#047857" stroke-width="1.5"/><text x="400" y="270" text-anchor="middle" font-family="monospace" font-size="11" fill="#0f172a">authorized?</text><line x1="460" y1="206" x2="460" y2="224" stroke="#0f172a" stroke-width="1.5"/><line x1="460" y1="224" x2="400" y2="224" stroke="#0f172a" stroke-width="1.5"/><line x1="400" y1="224" x2="400" y2="242" stroke="#0f172a" stroke-width="1.5"/><polygon points="400,242 396,234 404,234" fill="#0f172a"/><text x="434" y="220" font-family="monospace" font-size="10" fill="#0f172a">no</text><metadata data-activity-kind="Action" data-activity-lane="default" data-activity-branch="0"/><rect x="130" y="306" width="220" height="36" rx="18" ry="18" fill="#ecfdf5" stroke="#047857" stroke-width="1.5"/><text x="240" y="329" text-anchor="middle" font-family="monospace" font-size="12" fill="#0f172a">Execute</text><line x1="300" y1="266" x2="300" y2="284" stroke="#0f172a" stroke-width="1.5"/><line x1="300" y1="284" x2="240" y2="284" stroke="#0f172a" stroke-width="1.5"/><line x1="240" y1="284" x2="240" y2="302" stroke="#0f172a" stroke-width="1.5"/><polygon points="240,302 236,294 244,294" fill="#0f172a"/><text x="274" y="280" font-family="monospace" font-size="10" fill="#0f172a">no</text><metadata data-activity-kind="Else" data-activity-lane="default" data-activity-branch="0"/><metadata data-activity-kind="Action" data-activity-lane="default" data-activity-branch="0"/><rect x="450" y="366" width="220" height="36" rx="18" ry="18" fill="#ecfdf5" stroke="#047857" stroke-width="1.5"/><text x="560" y="389" text-anchor="middle" font-family="monospace" font-size="12" fill="#0f172a">Return 403</text><line x1="400" y1="284" x2="400" y2="323" stroke="#0f172a" stroke-width="1.5"/><line x1="400" y1="323" x2="560" y2="323" stroke="#0f172a" stroke-width="1.5"/><line x1="560" y1="323" x2="560" y2="362" stroke="#0f172a" stroke-width="1.5"/><polygon points="560,362 556,354 564,354" fill="#0f172a"/><text x="484" y="319" font-family="monospace" font-size="10" fill="#0f172a">yes</text><metadata data-activity-kind="EndIf" data-activity-lane="default" data-activity-branch="0"/><metadata data-activity-kind="Else" data-activity-lane="default" data-activity-branch="0"/><metadata data-activity-kind="Action" data-activity-lane="default" data-activity-branch="0"/><rect x="610" y="306" width="220" height="36" rx="18" ry="18" fill="#ecfdf5" stroke="#047857" stroke-width="1.5"/><text x="720" y="329" text-anchor="middle" font-family="monospace" font-size="12" fill="#0f172a">Return 400</text><line x1="240" y1="344" x2="362" y2="344" stroke="#0f172a" stroke-width="1.5"/><line x1="362" y1="344" x2="362" y2="302" stroke="#0f172a" stroke-width="1.5"/><line x1="362" y1="302" x2="720" y2="302" stroke="#0f172a" stroke-width="1.5"/><line x1="720" y1="302" x2="720" y2="302" stroke="#0f172a" stroke-width="1.5"/><polygon points="720,302 716,294 724,294" fill="#0f172a"/><line x1="560" y1="404" x2="682" y2="404" stroke="#0f172a" stroke-width="1.5"/><line x1="682" y1="404" x2="682" y2="353" stroke="#0f172a" stroke-width="1.5"/><line x1="682" y1="353" x2="720" y2="353" stroke="#0f172a" stroke-width="1.5"/><line x1="720" y1="353" x2="720" y2="302" stroke="#0f172a" stroke-width="1.5"/><polygon points="720,302 716,310 724,310" fill="#0f172a"/><line x1="560" y1="224" x2="560" y2="263" stroke="#0f172a" stroke-width="1.5"/><line x1="560" y1="263" x2="720" y2="263" stroke="#0f172a" stroke-width="1.5"/><line x1="720" y1="263" x2="720" y2="302" stroke="#0f172a" stroke-width="1.5"/><polygon points="720,302 716,294 724,294" fill="#0f172a"/><text x="644" y="259" font-family="monospace" font-size="10" fill="#0f172a">yes</text><metadata data-activity-kind="EndIf" data-activity-lane="default" data-activity-branch="0"/><metadata data-activity-kind="Stop" data-activity-lane="default" data-activity-branch="0"/><circle cx="560" cy="562" r="14" fill="white" stroke="#0f172a" stroke-width="1.5"/><circle cx="560" cy="562" r="7" fill="#0f172a"/><line x1="720" y1="344" x2="720" y2="443" stroke="#0f172a" stroke-width="1.5"/><line x1="720" y1="443" x2="560" y2="443" stroke="#0f172a" stroke-width="1.5"/><line x1="560" y1="443" x2="560" y2="542" stroke="#0f172a" stroke-width="1.5"/><polygon points="560,542 556,534 564,534" fill="#0f172a"/></svg>