<svg xmlns="http://www.w3.org/2000/svg" width="1120" height="662" viewBox="0 0 1120 662"><rect width="100%" height="100%" fill="#ecfdf5"/><text x="32" y="28" font-family="monospace" font-size="18" font-weight="600" fill="#0f172a">Nested Conditionals</text><text x="32" y="52" font-family="monospace" font-size="12" fill="#0f172a">activity diagram</text><rect x="32" y="62" width="1056" height="580" fill="#ecfdf5" stroke="#cbd5e1" stroke-width="1" stroke-dasharray="4 3"/><metadata data-activity-kind="Start" data-activity-lane="default" data-activity-branch="0"/><circle cx="560" cy="82" r="12" fill="#0f172a"/><metadata data-activity-kind="Action" data-activity-lane="default" data-activity-branch="0"/><rect x="450" y="126" width="220" height="36" rx="18" ry="18" fill="#ecfdf5" stroke="#047857" stroke-width="1.5"/><text x="560" y="149" text-anchor="middle" font-family="monospace" font-size="12" fill="#0f172a">Check Input</text><line x1="560" y1="104" x2="560" y2="122" stroke="#0f172a" stroke-width="1.5"/><polygon points="560,122 556,114 564,114" fill="#0f172a"/><metadata data-activity-kind="IfStart" data-activity-lane="default" data-activity-branch="0"/><polygon points="560,184 660,206 560,228 460,206" fill="#fef9c3" stroke="#047857" stroke-width="1.5"/><text x="560" y="210" text-anchor="middle" font-family="monospace" font-size="11" fill="#0f172a">valid?</text><text x="664" y="210" text-anchor="start" font-family="monospace" font-size="10" fill="#0f172a">yes</text><line x1="560" y1="164" x2="560" y2="182" stroke="#0f172a" stroke-width="1.5"/><polygon points="560,182 556,174 564,174" fill="#0f172a"/><metadata data-activity-kind="IfStart" data-activity-lane="default" data-activity-branch="0"/><polygon points="560,244 660,266 560,288 460,266" fill="#fef9c3" stroke="#047857" stroke-width="1.5"/><text x="560" y="270" text-anchor="middle" font-family="monospace" font-size="11" fill="#0f172a">authorized?</text><text x="664" y="270" text-anchor="start" font-family="monospace" font-size="10" fill="#0f172a">yes</text><line x1="560" y1="224" x2="560" y2="242" stroke="#0f172a" stroke-width="1.5"/><polygon points="560,242 556,234 564,234" fill="#0f172a"/><metadata data-activity-kind="Action" data-activity-lane="default" data-activity-branch="0"/><rect x="450" y="306" width="220" height="36" rx="18" ry="18" fill="#ecfdf5" stroke="#047857" stroke-width="1.5"/><text x="560" y="329" text-anchor="middle" font-family="monospace" font-size="12" fill="#0f172a">Execute</text><line x1="560" y1="284" x2="560" y2="302" stroke="#0f172a" stroke-width="1.5"/><polygon points="560,302 556,294 564,294" fill="#0f172a"/><metadata data-activity-kind="Else" data-activity-lane="default" data-activity-branch="0"/><metadata data-activity-kind="Action" data-activity-lane="default" data-activity-branch="0"/><rect x="610" y="366" width="220" height="36" rx="18" ry="18" fill="#ecfdf5" stroke="#047857" stroke-width="1.5"/><text x="720" y="389" text-anchor="middle" font-family="monospace" font-size="12" fill="#0f172a">Return 403</text><line x1="560" y1="284" x2="720" y2="362" stroke="#0f172a" stroke-width="1.5"/><polygon points="720,362 711,362 715,355" fill="#0f172a"/><metadata data-activity-kind="EndIf" data-activity-lane="default" data-activity-branch="0"/><metadata data-activity-kind="Else" data-activity-lane="default" data-activity-branch="0"/><metadata data-activity-kind="Action" data-activity-lane="default" data-activity-branch="0"/><rect x="770" y="306" width="220" height="36" rx="18" ry="18" fill="#ecfdf5" stroke="#047857" stroke-width="1.5"/><text x="880" y="329" text-anchor="middle" font-family="monospace" font-size="12" fill="#0f172a">Return 400</text><line x1="560" y1="344" x2="880" y2="302" stroke="#0f172a" stroke-width="1.5"/><polygon points="880,302 873,307 872,299" fill="#0f172a"/><line x1="720" y1="404" x2="880" y2="302" stroke="#0f172a" stroke-width="1.5"/><polygon points="880,302 875,310 871,303" fill="#0f172a"/><line x1="560" y1="224" x2="880" y2="302" stroke="#0f172a" stroke-width="1.5"/><polygon points="880,302 871,304 873,296" fill="#0f172a"/><metadata data-activity-kind="EndIf" data-activity-lane="default" data-activity-branch="0"/><metadata data-activity-kind="Stop" data-activity-lane="default" data-activity-branch="0"/><circle cx="560" cy="562" r="14" fill="white" stroke="#0f172a" stroke-width="1.5"/><circle cx="560" cy="562" r="7" fill="#0f172a"/><line x1="880" y1="344" x2="560" y2="542" stroke="#0f172a" stroke-width="1.5"/><polygon points="560,542 565,534 569,541" fill="#0f172a"/></svg>