<svg xmlns="http://www.w3.org/2000/svg" width="960" height="602" viewBox="0 0 960 602"><rect width="100%" height="100%" fill="#ecfdf5"/><text x="32" y="28" font-family="monospace" font-size="18" font-weight="600" fill="#0f172a">Fork and Join</text><text x="32" y="52" font-family="monospace" font-size="12" fill="#0f172a">activity diagram</text><rect x="32" y="62" width="896" height="520" fill="#ecfdf5" stroke="#cbd5e1" stroke-width="1" stroke-dasharray="4 3"/><metadata data-activity-kind="Start" data-activity-lane="default" data-activity-branch="0"/><circle cx="480" cy="82" r="12" fill="#0f172a"/><metadata data-activity-kind="Action" data-activity-lane="default" data-activity-branch="0"/><rect x="370" y="126" width="220" height="36" rx="18" ry="18" fill="#ecfdf5" stroke="#047857" stroke-width="1.5"/><text x="480" y="149" text-anchor="middle" font-family="monospace" font-size="12" fill="#0f172a">Start Task</text><line x1="480" y1="104" x2="480" y2="122" stroke="#0f172a" stroke-width="1.5"/><polygon points="480,122 476,114 484,114" fill="#0f172a"/><metadata data-activity-kind="Fork" data-activity-lane="default" data-activity-branch="0"/><rect x="33" y="206" width="894" height="8" fill="#0f172a"/><line x1="480" y1="164" x2="480" y2="182" stroke="#0f172a" stroke-width="1.5"/><polygon points="480,182 476,174 484,174" fill="#0f172a"/><metadata data-activity-kind="Action" data-activity-lane="default" data-activity-branch="0"/><rect x="72" y="246" width="220" height="36" rx="18" ry="18" fill="#ecfdf5" stroke="#047857" stroke-width="1.5"/><text x="182" y="269" text-anchor="middle" font-family="monospace" font-size="12" fill="#0f172a">Subtask A</text><metadata data-activity-kind="Action" data-activity-lane="default" data-activity-branch="0"/><rect x="72" y="306" width="220" height="36" rx="18" ry="18" fill="#ecfdf5" stroke="#047857" stroke-width="1.5"/><text x="182" y="329" text-anchor="middle" font-family="monospace" font-size="12" fill="#0f172a">Subtask A2</text><line x1="182" y1="284" x2="182" y2="302" stroke="#0f172a" stroke-width="1.5"/><polygon points="182,302 178,294 186,294" fill="#0f172a"/><metadata data-activity-kind="ForkAgain" data-activity-lane="default" data-activity-branch="1"/><metadata data-activity-kind="Action" data-activity-lane="default" data-activity-branch="1"/><rect x="370" y="246" width="220" height="36" rx="18" ry="18" fill="#ecfdf5" stroke="#047857" stroke-width="1.5"/><text x="480" y="269" text-anchor="middle" font-family="monospace" font-size="12" fill="#0f172a">Subtask B</text><metadata data-activity-kind="ForkAgain" data-activity-lane="default" data-activity-branch="2"/><metadata data-activity-kind="Action" data-activity-lane="default" data-activity-branch="2"/><rect x="668" y="246" width="220" height="36" rx="18" ry="18" fill="#ecfdf5" stroke="#047857" stroke-width="1.5"/><text x="778" y="269" text-anchor="middle" font-family="monospace" font-size="12" fill="#0f172a">Subtask C</text><metadata data-activity-kind="EndFork" data-activity-lane="default" data-activity-branch="0"/><rect x="33" y="386" width="894" height="8" fill="#0f172a"/><metadata data-activity-kind="Action" data-activity-lane="default" data-activity-branch="0"/><rect x="370" y="426" width="220" height="36" rx="18" ry="18" fill="#ecfdf5" stroke="#047857" stroke-width="1.5"/><text x="480" y="449" text-anchor="middle" font-family="monospace" font-size="12" fill="#0f172a">Merge Results</text><line x1="480" y1="404" x2="480" y2="422" stroke="#0f172a" stroke-width="1.5"/><polygon points="480,422 476,414 484,414" fill="#0f172a"/><metadata data-activity-kind="Stop" data-activity-lane="default" data-activity-branch="0"/><circle cx="480" cy="502" r="14" fill="white" stroke="#0f172a" stroke-width="1.5"/><circle cx="480" cy="502" r="7" fill="#0f172a"/><line x1="480" y1="464" x2="480" y2="482" stroke="#0f172a" stroke-width="1.5"/><polygon points="480,482 476,474 484,474" fill="#0f172a"/><line x1="182" y1="344" x2="182" y2="386" stroke="#0f172a" stroke-width="1.5"/><polygon points="182,386 178,378 186,378" fill="#0f172a"/><line x1="480" y1="284" x2="480" y2="386" stroke="#0f172a" stroke-width="1.5"/><polygon points="480,386 476,378 484,378" fill="#0f172a"/><line x1="778" y1="284" x2="778" y2="386" stroke="#0f172a" stroke-width="1.5"/><polygon points="778,386 774,378 782,378" fill="#0f172a"/><line x1="182" y1="214" x2="182" y2="242" stroke="#0f172a" stroke-width="1.5"/><polygon points="182,242 178,234 186,234" fill="#0f172a"/><line x1="480" y1="214" x2="480" y2="242" stroke="#0f172a" stroke-width="1.5"/><polygon points="480,242 476,234 484,234" fill="#0f172a"/><line x1="778" y1="214" x2="778" y2="242" stroke="#0f172a" stroke-width="1.5"/><polygon points="778,242 774,234 782,234" fill="#0f172a"/></svg>