<svg xmlns="http://www.w3.org/2000/svg" width="532" height="438" viewBox="0 0 532 438"><rect width="100%" height="100%" fill="#ecfdf5"/><text x="32" y="22" font-family="monospace" font-size="16" font-weight="600" fill="#0f172a">Fork and Join</text><metadata data-activity-kind="Start" data-activity-lane="default" data-activity-branch="0"/><circle cx="236" cy="66" r="12" fill="#0f172a"/><metadata data-activity-kind="Action" data-activity-lane="default" data-activity-branch="0"/><rect x="156" y="94" width="160" height="36" rx="18" ry="18" fill="#ecfdf5" stroke="#047857" stroke-width="1.5"/><text x="236" y="117" text-anchor="middle" font-family="monospace" font-size="12" fill="#0f172a">Start Task</text><line x1="236" y1="88" x2="236" y2="90" stroke="#0f172a" stroke-width="1.5"/><polygon points="236,90 232,82 240,82" fill="#0f172a"/><metadata data-activity-kind="Fork" data-activity-lane="default" data-activity-branch="0"/><rect x="40" y="158" width="392" height="8" fill="#0f172a"/><line x1="236" y1="132" x2="236" y2="134" stroke="#0f172a" stroke-width="1.5"/><polygon points="236,134 232,126 240,126" fill="#0f172a"/><metadata data-activity-kind="Action" data-activity-lane="default" data-activity-branch="0"/><rect x="-28" y="182" width="160" height="36" rx="18" ry="18" fill="#ecfdf5" stroke="#047857" stroke-width="1.5"/><text x="52" y="205" text-anchor="middle" font-family="monospace" font-size="12" fill="#0f172a">Subtask A</text><metadata data-activity-kind="Action" data-activity-lane="default" data-activity-branch="0"/><rect x="-28" y="226" width="160" height="36" rx="18" ry="18" fill="#ecfdf5" stroke="#047857" stroke-width="1.5"/><text x="52" y="249" text-anchor="middle" font-family="monospace" font-size="12" fill="#0f172a">Subtask A2</text><line x1="52" y1="220" x2="52" y2="222" stroke="#0f172a" stroke-width="1.5"/><polygon points="52,222 48,214 56,214" fill="#0f172a"/><metadata data-activity-kind="ForkAgain" data-activity-lane="default" data-activity-branch="1"/><metadata data-activity-kind="Action" data-activity-lane="default" data-activity-branch="1"/><rect x="156" y="182" width="160" height="36" rx="18" ry="18" fill="#ecfdf5" stroke="#047857" stroke-width="1.5"/><text x="236" y="205" text-anchor="middle" font-family="monospace" font-size="12" fill="#0f172a">Subtask B</text><metadata data-activity-kind="ForkAgain" data-activity-lane="default" data-activity-branch="2"/><metadata data-activity-kind="Action" data-activity-lane="default" data-activity-branch="2"/><rect x="340" y="182" width="160" height="36" rx="18" ry="18" fill="#ecfdf5" stroke="#047857" stroke-width="1.5"/><text x="420" y="205" text-anchor="middle" font-family="monospace" font-size="12" fill="#0f172a">Subtask C</text><metadata data-activity-kind="EndFork" data-activity-lane="default" data-activity-branch="0"/><rect x="40" y="290" width="392" height="8" fill="#0f172a"/><metadata data-activity-kind="Action" data-activity-lane="default" data-activity-branch="0"/><rect x="156" y="314" width="160" height="36" rx="18" ry="18" fill="#ecfdf5" stroke="#047857" stroke-width="1.5"/><text x="236" y="337" text-anchor="middle" font-family="monospace" font-size="12" fill="#0f172a">Merge Results</text><line x1="236" y1="308" x2="236" y2="310" stroke="#0f172a" stroke-width="1.5"/><polygon points="236,310 232,302 240,302" fill="#0f172a"/><metadata data-activity-kind="Stop" data-activity-lane="default" data-activity-branch="0"/><circle cx="236" cy="374" r="14" fill="white" stroke="#0f172a" stroke-width="1.5"/><circle cx="236" cy="374" r="7" fill="#0f172a"/><line x1="236" y1="352" x2="236" y2="354" stroke="#0f172a" stroke-width="1.5"/><polygon points="236,354 232,346 240,346" fill="#0f172a"/><line x1="52" y1="264" x2="52" y2="290" stroke="#0f172a" stroke-width="1.5"/><polygon points="52,290 48,282 56,282" fill="#0f172a"/><line x1="236" y1="220" x2="236" y2="290" stroke="#0f172a" stroke-width="1.5"/><polygon points="236,290 232,282 240,282" fill="#0f172a"/><line x1="420" y1="220" x2="420" y2="290" stroke="#0f172a" stroke-width="1.5"/><polygon points="420,290 416,282 424,282" fill="#0f172a"/><line x1="52" y1="166" x2="52" y2="178" stroke="#0f172a" stroke-width="1.5"/><polygon points="52,178 48,170 56,170" fill="#0f172a"/><line x1="236" y1="166" x2="236" y2="178" stroke="#0f172a" stroke-width="1.5"/><polygon points="236,178 232,170 240,170" fill="#0f172a"/><line x1="420" y1="166" x2="420" y2="178" stroke="#0f172a" stroke-width="1.5"/><polygon points="420,178 416,170 424,170" fill="#0f172a"/></svg>