<svg xmlns="http://www.w3.org/2000/svg" width="532" height="438" viewBox="0 0 532 438"><rect width="100%" height="100%" fill="#ecfdf5"/><text x="32" y="22" font-family="monospace" font-size="16" font-weight="600" fill="#0f172a">Fork and Join</text><metadata data-activity-kind="Start" data-activity-lane="default" data-activity-branch="0"/><circle cx="236" cy="66" r="12" fill="#0f172a"/><metadata data-activity-kind="Action" data-activity-lane="default" data-activity-branch="0"/><rect x="156" y="94" width="160" height="36" rx="18" ry="18" fill="#ecfdf5" stroke="#047857" stroke-width="1.5"/><text x="236" y="117" text-anchor="middle" font-family="monospace" font-size="12" fill="#0f172a">Start Task</text><polyline points="236,88 236,90" fill="none" stroke="#0f172a" stroke-width="1.5"/><polygon points="236,90 232,82 240,82" fill="#0f172a"/><metadata data-activity-kind="Fork" data-activity-lane="default" data-activity-branch="0"/><rect x="40" y="158" width="392" height="8" fill="#0f172a"/><polyline points="236,132 236,134" fill="none" stroke="#0f172a" stroke-width="1.5"/><polygon points="236,134 232,126 240,126" fill="#0f172a"/><metadata data-activity-kind="Action" data-activity-lane="default" data-activity-branch="0"/><rect x="-28" y="182" width="160" height="36" rx="18" ry="18" fill="#ecfdf5" stroke="#047857" stroke-width="1.5"/><text x="52" y="205" text-anchor="middle" font-family="monospace" font-size="12" fill="#0f172a">Subtask A</text><metadata data-activity-kind="Action" data-activity-lane="default" data-activity-branch="0"/><rect x="-28" y="226" width="160" height="36" rx="18" ry="18" fill="#ecfdf5" stroke="#047857" stroke-width="1.5"/><text x="52" y="249" text-anchor="middle" font-family="monospace" font-size="12" fill="#0f172a">Subtask A2</text><polyline points="52,220 52,222" fill="none" stroke="#0f172a" stroke-width="1.5"/><polygon points="52,222 48,214 56,214" fill="#0f172a"/><metadata data-activity-kind="ForkAgain" data-activity-lane="default" data-activity-branch="1"/><metadata data-activity-kind="Action" data-activity-lane="default" data-activity-branch="1"/><rect x="156" y="182" width="160" height="36" rx="18" ry="18" fill="#ecfdf5" stroke="#047857" stroke-width="1.5"/><text x="236" y="205" text-anchor="middle" font-family="monospace" font-size="12" fill="#0f172a">Subtask B</text><metadata data-activity-kind="ForkAgain" data-activity-lane="default" data-activity-branch="2"/><metadata data-activity-kind="Action" data-activity-lane="default" data-activity-branch="2"/><rect x="340" y="182" width="160" height="36" rx="18" ry="18" fill="#ecfdf5" stroke="#047857" stroke-width="1.5"/><text x="420" y="205" text-anchor="middle" font-family="monospace" font-size="12" fill="#0f172a">Subtask C</text><metadata data-activity-kind="EndFork" data-activity-lane="default" data-activity-branch="0"/><rect x="40" y="290" width="392" height="8" fill="#0f172a"/><metadata data-activity-kind="Action" data-activity-lane="default" data-activity-branch="0"/><rect x="156" y="314" width="160" height="36" rx="18" ry="18" fill="#ecfdf5" stroke="#047857" stroke-width="1.5"/><text x="236" y="337" text-anchor="middle" font-family="monospace" font-size="12" fill="#0f172a">Merge Results</text><polyline points="236,308 236,310" fill="none" stroke="#0f172a" stroke-width="1.5"/><polygon points="236,310 232,302 240,302" fill="#0f172a"/><metadata data-activity-kind="Stop" data-activity-lane="default" data-activity-branch="0"/><circle cx="236" cy="374" r="14" fill="white" stroke="#0f172a" stroke-width="1.5"/><circle cx="236" cy="374" r="7" fill="#0f172a"/><polyline points="236,352 236,354" fill="none" stroke="#0f172a" stroke-width="1.5"/><polygon points="236,354 232,346 240,346" fill="#0f172a"/><polyline points="52,264 52,290" fill="none" stroke="#0f172a" stroke-width="1.5"/><polygon points="52,290 48,282 56,282" fill="#0f172a"/><polyline points="236,220 236,290" fill="none" stroke="#0f172a" stroke-width="1.5"/><polygon points="236,290 232,282 240,282" fill="#0f172a"/><polyline points="420,220 420,290" fill="none" stroke="#0f172a" stroke-width="1.5"/><polygon points="420,290 416,282 424,282" fill="#0f172a"/><polyline points="52,166 52,178" fill="none" stroke="#0f172a" stroke-width="1.5"/><polygon points="52,178 48,170 56,170" fill="#0f172a"/><polyline points="236,166 236,178" fill="none" stroke="#0f172a" stroke-width="1.5"/><polygon points="236,178 232,170 240,170" fill="#0f172a"/><polyline points="420,166 420,178" fill="none" stroke="#0f172a" stroke-width="1.5"/><polygon points="420,178 416,170 424,170" fill="#0f172a"/></svg>