<svg xmlns="http://www.w3.org/2000/svg" width="480" height="842" viewBox="0 0 480 842"><rect width="100%" height="100%" fill="#ecfdf5"/><text x="32" y="28" font-family="monospace" font-size="18" font-weight="600" fill="#0f172a">Fork and Join</text><text x="32" y="52" font-family="monospace" font-size="12" fill="#0f172a">activity diagram</text><rect x="32" y="54" width="416" height="760" fill="#ecfdf5" stroke="#cbd5e1" stroke-width="1" stroke-dasharray="4 3"/><metadata data-activity-kind="Start" data-activity-lane="default" data-activity-branch="0"/><circle cx="240" cy="82" r="12" fill="#0f172a"/><metadata data-activity-kind="Action" data-activity-lane="default" data-activity-branch="0"/><rect x="130" y="126" width="220" height="36" rx="18" ry="18" fill="#ecfdf5" stroke="#047857" stroke-width="1.5"/><text x="240" y="149" text-anchor="middle" font-family="monospace" font-size="12" fill="#0f172a">Start Task</text><line x1="240" y1="104" x2="240" y2="122" stroke="#0f172a" stroke-width="1.5"/><polygon points="240,122 236,114 244,114" fill="#0f172a"/><metadata data-activity-kind="Fork" data-activity-lane="default" data-activity-branch="0"/><rect x="130" y="206" width="220" height="8" fill="#0f172a"/><line x1="240" y1="164" x2="240" y2="182" stroke="#0f172a" stroke-width="1.5"/><polygon points="240,182 236,174 244,174" fill="#0f172a"/><metadata data-activity-kind="Action" data-activity-lane="default" data-activity-branch="0"/><rect x="130" y="246" width="220" height="36" rx="18" ry="18" fill="#ecfdf5" stroke="#047857" stroke-width="1.5"/><text x="240" y="269" text-anchor="middle" font-family="monospace" font-size="12" fill="#0f172a">Subtask A</text><line x1="240" y1="224" x2="240" y2="242" stroke="#0f172a" stroke-width="1.5"/><polygon points="240,242 236,234 244,234" fill="#0f172a"/><metadata data-activity-kind="Action" data-activity-lane="default" data-activity-branch="0"/><rect x="130" y="306" width="220" height="36" rx="18" ry="18" fill="#ecfdf5" stroke="#047857" stroke-width="1.5"/><text x="240" y="329" text-anchor="middle" font-family="monospace" font-size="12" fill="#0f172a">Subtask A2</text><line x1="240" y1="284" x2="240" y2="302" stroke="#0f172a" stroke-width="1.5"/><polygon points="240,302 236,294 244,294" fill="#0f172a"/><metadata data-activity-kind="ForkAgain" data-activity-lane="default" data-activity-branch="1"/><rect x="130" y="386" width="220" height="8" fill="#0f172a"/><text x="240" y="382" text-anchor="middle" font-family="monospace" font-size="10" fill="#0f172a">branch 2</text><line x1="240" y1="344" x2="240" y2="362" stroke="#0f172a" stroke-width="1.5"/><polygon points="240,362 236,354 244,354" fill="#0f172a"/><line x1="240" y1="210" x2="240" y2="362" stroke="#0f172a" stroke-width="1.25" stroke-dasharray="4 2"/><metadata data-activity-kind="Action" data-activity-lane="default" data-activity-branch="1"/><rect x="130" y="426" width="220" height="36" rx="18" ry="18" fill="#ecfdf5" stroke="#047857" stroke-width="1.5"/><text x="240" y="449" text-anchor="middle" font-family="monospace" font-size="12" fill="#0f172a">Subtask B</text><line x1="240" y1="404" x2="240" y2="422" stroke="#0f172a" stroke-width="1.5"/><polygon points="240,422 236,414 244,414" fill="#0f172a"/><line x1="240" y1="210" x2="240" y2="422" stroke="#0f172a" stroke-width="1.25" stroke-dasharray="4 2"/><metadata data-activity-kind="ForkAgain" data-activity-lane="default" data-activity-branch="2"/><rect x="130" y="506" width="220" height="8" fill="#0f172a"/><text x="240" y="502" text-anchor="middle" font-family="monospace" font-size="10" fill="#0f172a">branch 3</text><line x1="240" y1="464" x2="240" y2="482" stroke="#0f172a" stroke-width="1.5"/><polygon points="240,482 236,474 244,474" fill="#0f172a"/><line x1="240" y1="210" x2="240" y2="482" stroke="#0f172a" stroke-width="1.25" stroke-dasharray="4 2"/><metadata data-activity-kind="Action" data-activity-lane="default" data-activity-branch="2"/><rect x="130" y="546" width="220" height="36" rx="18" ry="18" fill="#ecfdf5" stroke="#047857" stroke-width="1.5"/><text x="240" y="569" text-anchor="middle" font-family="monospace" font-size="12" fill="#0f172a">Subtask C</text><line x1="240" y1="524" x2="240" y2="542" stroke="#0f172a" stroke-width="1.5"/><polygon points="240,542 236,534 244,534" fill="#0f172a"/><line x1="240" y1="210" x2="240" y2="542" stroke="#0f172a" stroke-width="1.25" stroke-dasharray="4 2"/><metadata data-activity-kind="EndFork" data-activity-lane="default" data-activity-branch="0"/><rect x="130" y="626" width="220" height="8" fill="#0f172a"/><line x1="240" y1="584" x2="240" y2="602" stroke="#0f172a" stroke-width="1.5"/><polygon points="240,602 236,594 244,594" fill="#0f172a"/><metadata data-activity-kind="Action" data-activity-lane="default" data-activity-branch="0"/><rect x="130" y="666" width="220" height="36" rx="18" ry="18" fill="#ecfdf5" stroke="#047857" stroke-width="1.5"/><text x="240" y="689" text-anchor="middle" font-family="monospace" font-size="12" fill="#0f172a">Merge Results</text><line x1="240" y1="644" x2="240" y2="662" stroke="#0f172a" stroke-width="1.5"/><polygon points="240,662 236,654 244,654" fill="#0f172a"/><metadata data-activity-kind="Stop" data-activity-lane="default" data-activity-branch="0"/><circle cx="240" cy="742" r="14" fill="white" stroke="#0f172a" stroke-width="1.5"/><circle cx="240" cy="742" r="7" fill="#0f172a"/><line x1="240" y1="704" x2="240" y2="722" stroke="#0f172a" stroke-width="1.5"/><polygon points="240,722 236,714 244,714" fill="#0f172a"/></svg>