<svg xmlns="http://www.w3.org/2000/svg" width="480" height="602" viewBox="0 0 480 602"><rect width="100%" height="100%" fill="#ecfdf5"/><text x="32" y="28" font-family="monospace" font-size="18" font-weight="600" fill="#0f172a">While Loop</text><text x="32" y="52" font-family="monospace" font-size="12" fill="#0f172a">activity diagram</text><rect x="32" y="62" width="416" height="520" fill="#ecfdf5" stroke="#cbd5e1" stroke-width="1" stroke-dasharray="4 3"/><metadata data-activity-kind="Start" data-activity-lane="default" data-activity-branch="0"/><circle cx="240" cy="82" r="12" fill="#0f172a"/><metadata data-activity-kind="Action" data-activity-lane="default" data-activity-branch="0"/><rect x="130" y="126" width="220" height="36" rx="18" ry="18" fill="#ecfdf5" stroke="#047857" stroke-width="1.5"/><text x="240" y="149" text-anchor="middle" font-family="monospace" font-size="12" fill="#0f172a">Initialize Counter</text><line x1="240" y1="104" x2="240" y2="122" stroke="#0f172a" stroke-width="1.5"/><polygon points="240,122 236,114 244,114" fill="#0f172a"/><metadata data-activity-kind="WhileStart" data-activity-lane="default" data-activity-branch="0"/><polygon points="240,184 340,206 240,228 140,206" fill="#fef9c3" stroke="#047857" stroke-width="1.5"/><text x="240" y="210" text-anchor="middle" font-family="monospace" font-size="11" fill="#0f172a">counter &lt; 10?</text><line x1="240" y1="164" x2="240" y2="182" stroke="#0f172a" stroke-width="1.5"/><polygon points="240,182 236,174 244,174" fill="#0f172a"/><path d="M 240 344 L 250 344 Q 362 344 362 334" fill="none" stroke="#0f172a" stroke-width="1.5"/><line x1="362" y1="334" x2="362" y2="192" stroke="#0f172a" stroke-width="1.5"/><path d="M 362 192 Q 362 182 250 182 L 240 182" fill="none" stroke="#0f172a" stroke-width="1.5"/><polygon points="240,182 236,190 244,190" fill="#0f172a"/><text x="368" y="263" font-family="monospace" font-size="10" fill="#0f172a">yes</text><metadata data-activity-kind="Action" data-activity-lane="default" data-activity-branch="0"/><rect x="130" y="246" width="220" height="36" rx="18" ry="18" fill="#ecfdf5" stroke="#047857" stroke-width="1.5"/><text x="240" y="269" text-anchor="middle" font-family="monospace" font-size="12" fill="#0f172a">Process Item</text><line x1="240" y1="224" x2="240" y2="242" stroke="#0f172a" stroke-width="1.5"/><polygon points="240,242 236,234 244,234" fill="#0f172a"/><metadata data-activity-kind="Action" data-activity-lane="default" data-activity-branch="0"/><rect x="130" y="306" width="220" height="36" rx="18" ry="18" fill="#ecfdf5" stroke="#047857" stroke-width="1.5"/><text x="240" y="329" text-anchor="middle" font-family="monospace" font-size="12" fill="#0f172a">Increment</text><line x1="240" y1="284" x2="240" y2="302" stroke="#0f172a" stroke-width="1.5"/><polygon points="240,302 236,294 244,294" fill="#0f172a"/><metadata data-activity-kind="EndWhile" data-activity-lane="default" data-activity-branch="0"/><metadata data-activity-kind="Action" data-activity-lane="default" data-activity-branch="0"/><rect x="130" y="426" width="220" height="36" rx="18" ry="18" fill="#ecfdf5" stroke="#047857" stroke-width="1.5"/><text x="240" y="449" text-anchor="middle" font-family="monospace" font-size="12" fill="#0f172a">Finished</text><line x1="340" y1="206" x2="362" y2="206" stroke="#0f172a" stroke-width="1.5"/><line x1="362" y1="206" x2="362" y2="302" stroke="#0f172a" stroke-width="1.5"/><line x1="362" y1="302" x2="240" y2="302" stroke="#0f172a" stroke-width="1.5"/><line x1="240" y1="302" x2="240" y2="422" stroke="#0f172a" stroke-width="1.5"/><polygon points="240,422 236,414 244,414" fill="#0f172a"/><metadata data-activity-kind="Stop" data-activity-lane="default" data-activity-branch="0"/><circle cx="240" cy="502" r="14" fill="white" stroke="#0f172a" stroke-width="1.5"/><circle cx="240" cy="502" r="7" fill="#0f172a"/><line x1="240" y1="464" x2="240" y2="482" stroke="#0f172a" stroke-width="1.5"/><polygon points="240,482 236,474 244,474" fill="#0f172a"/></svg>