<svg xmlns="http://www.w3.org/2000/svg" width="248" height="450" viewBox="0 0 248 450"><rect width="100%" height="100%" fill="#ecfdf5"/><text x="32" y="22" font-family="monospace" font-size="16" font-weight="600" fill="#0f172a">While Loop</text><metadata data-activity-kind="Start" data-activity-lane="default" data-activity-branch="0"/><circle cx="116" cy="66" r="12" fill="#0f172a"/><metadata data-activity-kind="Action" data-activity-lane="default" data-activity-branch="0"/><rect x="36" y="94" width="160" height="36" rx="18" ry="18" fill="#ecfdf5" stroke="#047857" stroke-width="1.5"/><text x="116" y="117" text-anchor="middle" font-family="monospace" font-size="12" fill="#0f172a">Initialize Counter</text><polyline points="116,88 116,90" fill="none" stroke="#0f172a" stroke-width="1.5"/><polygon points="116,90 112,82 120,82" fill="#0f172a"/><metadata data-activity-kind="WhileStart" data-activity-lane="default" data-activity-branch="0"/><polygon points="116,136 216,158 116,180 16,158" fill="#fef9c3" stroke="#047857" stroke-width="1.5"/><text x="116" y="162" text-anchor="middle" font-family="monospace" font-size="11" fill="#0f172a">counter &lt; 10?</text><polyline points="116,132 116,134" fill="none" stroke="#0f172a" stroke-width="1.5"/><polygon points="116,134 112,126 120,126" fill="#0f172a"/><polyline points="116,264 208,264 208,134 116,134" fill="none" stroke="#0f172a" stroke-width="1.5"/><polygon points="116,134 112,126 120,126" fill="#0f172a"/><text x="214" y="134" font-family="monospace" font-size="10" fill="#0f172a">yes</text><metadata data-activity-kind="Action" data-activity-lane="default" data-activity-branch="0"/><rect x="36" y="182" width="160" height="36" rx="18" ry="18" fill="#ecfdf5" stroke="#047857" stroke-width="1.5"/><text x="116" y="205" text-anchor="middle" font-family="monospace" font-size="12" fill="#0f172a">Process Item</text><polyline points="116,176 116,178" fill="none" stroke="#0f172a" stroke-width="1.5"/><polygon points="116,178 112,170 120,170" fill="#0f172a"/><metadata data-activity-kind="Action" data-activity-lane="default" data-activity-branch="0"/><rect x="36" y="226" width="160" height="36" rx="18" ry="18" fill="#ecfdf5" stroke="#047857" stroke-width="1.5"/><text x="116" y="249" text-anchor="middle" font-family="monospace" font-size="12" fill="#0f172a">Increment</text><polyline points="116,220 116,222" fill="none" stroke="#0f172a" stroke-width="1.5"/><polygon points="116,222 112,214 120,214" fill="#0f172a"/><metadata data-activity-kind="EndWhile" data-activity-lane="default" data-activity-branch="0"/><metadata data-activity-kind="Action" data-activity-lane="default" data-activity-branch="0"/><rect x="36" y="314" width="160" height="36" rx="18" ry="18" fill="#ecfdf5" stroke="#047857" stroke-width="1.5"/><text x="116" y="337" text-anchor="middle" font-family="monospace" font-size="12" fill="#0f172a">Finished</text><polyline points="216,158 216,222 116,222 116,310" fill="none" stroke="#0f172a" stroke-width="1.5"/><polygon points="116,310 112,302 120,302" fill="#0f172a"/><metadata data-activity-kind="Stop" data-activity-lane="default" data-activity-branch="0"/><circle cx="116" cy="374" r="14" fill="white" stroke="#0f172a" stroke-width="1.5"/><circle cx="116" cy="374" r="7" fill="#0f172a"/><polyline points="116,352 116,354" fill="none" stroke="#0f172a" stroke-width="1.5"/><polygon points="116,354 112,346 120,346" fill="#0f172a"/></svg>