<svg xmlns="http://www.w3.org/2000/svg" width="480" height="542" viewBox="0 0 480 542"><rect width="100%" height="100%" fill="#ecfdf5"/><text x="32" y="28" font-family="monospace" font-size="18" font-weight="600" fill="#0f172a">Repeat Until</text><text x="32" y="52" font-family="monospace" font-size="12" fill="#0f172a">activity diagram</text><rect x="32" y="62" width="416" height="460" fill="#ecfdf5" stroke="#cbd5e1" stroke-width="1" stroke-dasharray="4 3"/><metadata data-activity-kind="Start" data-activity-lane="default" data-activity-branch="0"/><circle cx="240" cy="82" r="12" fill="#0f172a"/><metadata data-activity-kind="Action" data-activity-lane="default" data-activity-branch="0"/><rect x="130" y="126" width="220" height="36" rx="18" ry="18" fill="#ecfdf5" stroke="#047857" stroke-width="1.5"/><text x="240" y="149" text-anchor="middle" font-family="monospace" font-size="12" fill="#0f172a">Connect</text><line x1="240" y1="104" x2="240" y2="122" stroke="#0f172a" stroke-width="1.5"/><polygon points="240,122 236,114 244,114" fill="#0f172a"/><metadata data-activity-kind="RepeatStart" data-activity-lane="default" data-activity-branch="0"/><line x1="240" y1="344" x2="362" y2="344" stroke="#0f172a" stroke-width="1.5"/><line x1="362" y1="344" x2="362" y2="182" stroke="#0f172a" stroke-width="1.5"/><line x1="362" y1="182" x2="240" y2="182" stroke="#0f172a" stroke-width="1.5"/><polygon points="240,182 236,190 244,190" fill="#0f172a"/><metadata data-activity-kind="Action" data-activity-lane="default" data-activity-branch="0"/><rect x="130" y="186" width="220" height="36" rx="18" ry="18" fill="#ecfdf5" stroke="#047857" stroke-width="1.5"/><text x="240" y="209" text-anchor="middle" font-family="monospace" font-size="12" fill="#0f172a">Send Heartbeat</text><line x1="240" y1="164" x2="240" y2="182" stroke="#0f172a" stroke-width="1.5"/><polygon points="240,182 236,174 244,174" fill="#0f172a"/><line x1="240" y1="344" x2="362" y2="344" stroke="#0f172a" stroke-width="1.5"/><line x1="362" y1="344" x2="362" y2="182" stroke="#0f172a" stroke-width="1.5"/><line x1="362" y1="182" x2="240" y2="182" stroke="#0f172a" stroke-width="1.5"/><polygon points="240,182 236,190 244,190" fill="#0f172a"/><metadata data-activity-kind="Action" data-activity-lane="default" data-activity-branch="0"/><rect x="130" y="246" width="220" height="36" rx="18" ry="18" fill="#ecfdf5" stroke="#047857" stroke-width="1.5"/><text x="240" y="269" text-anchor="middle" font-family="monospace" font-size="12" fill="#0f172a">Wait 30s</text><line x1="240" y1="224" x2="240" y2="242" stroke="#0f172a" stroke-width="1.5"/><polygon points="240,242 236,234 244,234" fill="#0f172a"/><metadata data-activity-kind="RepeatWhile" data-activity-lane="default" data-activity-branch="0"/><polygon points="240,304 340,326 240,348 140,326" fill="#fef9c3" stroke="#047857" stroke-width="1.5"/><text x="240" y="330" text-anchor="middle" font-family="monospace" font-size="11" fill="#0f172a">server alive?</text><line x1="240" y1="284" x2="240" y2="302" stroke="#0f172a" stroke-width="1.5"/><polygon points="240,302 236,294 244,294" fill="#0f172a"/><metadata data-activity-kind="Action" data-activity-lane="default" data-activity-branch="0"/><rect x="130" y="366" width="220" height="36" rx="18" ry="18" fill="#ecfdf5" stroke="#047857" stroke-width="1.5"/><text x="240" y="389" text-anchor="middle" font-family="monospace" font-size="12" fill="#0f172a">Reconnect</text><line x1="240" y1="344" x2="240" y2="362" stroke="#0f172a" stroke-width="1.5"/><polygon points="240,362 236,354 244,354" fill="#0f172a"/><metadata data-activity-kind="Stop" data-activity-lane="default" data-activity-branch="0"/><circle cx="240" cy="442" r="14" fill="white" stroke="#0f172a" stroke-width="1.5"/><circle cx="240" cy="442" r="7" fill="#0f172a"/><line x1="240" y1="404" x2="240" y2="422" stroke="#0f172a" stroke-width="1.5"/><polygon points="240,422 236,414 244,414" fill="#0f172a"/></svg>