<svg xmlns="http://www.w3.org/2000/svg" width="248" height="406" viewBox="0 0 248 406"><rect width="100%" height="100%" fill="#ecfdf5"/><text x="32" y="22" font-family="monospace" font-size="16" font-weight="600" fill="#0f172a">Repeat Until</text><metadata data-activity-kind="Start" data-activity-lane="default" data-activity-branch="0"/><circle cx="116" cy="66" r="12" fill="#0f172a"/><metadata data-activity-kind="Action" data-activity-lane="default" data-activity-branch="0"/><rect x="36" y="94" width="160" height="36" rx="18" ry="18" fill="#ecfdf5" stroke="#047857" stroke-width="1.5"/><text x="116" y="117" text-anchor="middle" font-family="monospace" font-size="12" fill="#0f172a">Connect</text><polyline points="116,88 116,90" fill="none" stroke="#0f172a" stroke-width="1.5"/><polygon points="116,90 112,82 120,82" fill="#0f172a"/><metadata data-activity-kind="RepeatStart" data-activity-lane="default" data-activity-branch="0"/><polyline points="116,264 208,264 208,134 116,134" fill="none" stroke="#0f172a" stroke-width="1.5"/><polygon points="116,134 112,126 120,126" fill="#0f172a"/><text x="214" y="134" font-family="monospace" font-size="10" fill="#0f172a">yes</text><metadata data-activity-kind="Action" data-activity-lane="default" data-activity-branch="0"/><rect x="36" y="138" width="160" height="36" rx="18" ry="18" fill="#ecfdf5" stroke="#047857" stroke-width="1.5"/><text x="116" y="161" text-anchor="middle" font-family="monospace" font-size="12" fill="#0f172a">Send Heartbeat</text><polyline points="116,132 116,134" fill="none" stroke="#0f172a" stroke-width="1.5"/><polygon points="116,134 112,126 120,126" fill="#0f172a"/><polyline points="116,264 208,264 208,134 116,134" fill="none" stroke="#0f172a" stroke-width="1.5"/><polygon points="116,134 112,126 120,126" fill="#0f172a"/><text x="214" y="134" font-family="monospace" font-size="10" fill="#0f172a">yes</text><metadata data-activity-kind="Action" data-activity-lane="default" data-activity-branch="0"/><rect x="36" y="182" width="160" height="36" rx="18" ry="18" fill="#ecfdf5" stroke="#047857" stroke-width="1.5"/><text x="116" y="205" text-anchor="middle" font-family="monospace" font-size="12" fill="#0f172a">Wait 30s</text><polyline points="116,176 116,178" fill="none" stroke="#0f172a" stroke-width="1.5"/><polygon points="116,178 112,170 120,170" fill="#0f172a"/><metadata data-activity-kind="RepeatWhile" data-activity-lane="default" data-activity-branch="0"/><polygon points="116,224 216,246 116,268 16,246" fill="#fef9c3" stroke="#047857" stroke-width="1.5"/><text x="116" y="250" text-anchor="middle" font-family="monospace" font-size="11" fill="#0f172a">server alive?</text><polyline points="116,220 116,222" fill="none" stroke="#0f172a" stroke-width="1.5"/><polygon points="116,222 112,214 120,214" fill="#0f172a"/><metadata data-activity-kind="Action" data-activity-lane="default" data-activity-branch="0"/><rect x="36" y="270" width="160" height="36" rx="18" ry="18" fill="#ecfdf5" stroke="#047857" stroke-width="1.5"/><text x="116" y="293" text-anchor="middle" font-family="monospace" font-size="12" fill="#0f172a">Reconnect</text><polyline points="116,264 116,266" fill="none" stroke="#0f172a" stroke-width="1.5"/><polygon points="116,266 112,258 120,258" fill="#0f172a"/><metadata data-activity-kind="Stop" data-activity-lane="default" data-activity-branch="0"/><circle cx="116" cy="330" r="14" fill="white" stroke="#0f172a" stroke-width="1.5"/><circle cx="116" cy="330" r="7" fill="#0f172a"/><polyline points="116,308 116,310" fill="none" stroke="#0f172a" stroke-width="1.5"/><polygon points="116,310 112,302 120,302" fill="#0f172a"/></svg>