<svg xmlns="http://www.w3.org/2000/svg" width="480" height="950" viewBox="0 0 480 950"><rect width="100%" height="100%" fill="#ecfdf5"/><text x="32" y="28" font-family="monospace" font-size="18" font-weight="600" fill="#0f172a">Partitioned Activity</text><text x="32" y="52" font-family="monospace" font-size="12" fill="#0f172a">activity diagram</text><rect x="32" y="170" width="416" height="140" fill="#ecfdf5" stroke="#cbd5e1" stroke-width="1" stroke-dasharray="4 3"/><rect x="32" y="146" width="416" height="24" fill="#e2e8f0" stroke="#94a3b8" stroke-width="1"/><text x="240" y="162" text-anchor="middle" font-family="monospace" font-size="11" font-weight="600" fill="#0f172a">Worker</text><rect x="32" y="338" width="416" height="320" fill="#f1f5f9" stroke="#cbd5e1" stroke-width="1" stroke-dasharray="4 3"/><rect x="32" y="314" width="416" height="24" fill="#dde5ef" stroke="#94a3b8" stroke-width="1"/><text x="240" y="330" text-anchor="middle" font-family="monospace" font-size="11" font-weight="600" fill="#0f172a">Backend</text><rect x="32" y="686" width="416" height="140" fill="#ecfdf5" stroke="#cbd5e1" stroke-width="1" stroke-dasharray="4 3"/><rect x="32" y="662" width="416" height="24" fill="#e2e8f0" stroke="#94a3b8" stroke-width="1"/><text x="240" y="678" text-anchor="middle" font-family="monospace" font-size="11" font-weight="600" fill="#0f172a">Frontend</text><metadata data-activity-kind="Start" data-activity-lane="default" data-activity-branch="0"/><circle cx="240" cy="106" r="12" fill="#0f172a"/><metadata data-activity-kind="PartitionStart" data-activity-lane="Worker" data-activity-branch="0"/><metadata data-activity-kind="Action" data-activity-lane="Worker" data-activity-branch="0"/><rect x="130" y="174" width="220" height="36" rx="18" ry="18" fill="#ecfdf5" stroke="#047857" stroke-width="1.5"/><text x="240" y="197" text-anchor="middle" font-family="monospace" font-size="12" fill="#0f172a">User Click</text><line x1="240" y1="128" x2="240" y2="170" stroke="#0f172a" stroke-width="1.5"/><polygon points="240,170 236,162 244,162" fill="#0f172a"/><metadata data-activity-kind="Action" data-activity-lane="Worker" data-activity-branch="0"/><rect x="130" y="234" width="220" height="36" rx="18" ry="18" fill="#ecfdf5" stroke="#047857" stroke-width="1.5"/><text x="240" y="257" text-anchor="middle" font-family="monospace" font-size="12" fill="#0f172a">Validate Form</text><line x1="240" y1="212" x2="240" y2="230" stroke="#0f172a" stroke-width="1.5"/><polygon points="240,230 236,222 244,222" fill="#0f172a"/><metadata data-activity-kind="PartitionEnd" data-activity-lane="default" data-activity-branch="0"/><metadata data-activity-kind="PartitionStart" data-activity-lane="Backend" data-activity-branch="0"/><metadata data-activity-kind="Action" data-activity-lane="Backend" data-activity-branch="0"/><rect x="130" y="342" width="220" height="36" rx="18" ry="18" fill="#ecfdf5" stroke="#047857" stroke-width="1.5"/><text x="240" y="365" text-anchor="middle" font-family="monospace" font-size="12" fill="#0f172a">Receive Request</text><line x1="240" y1="272" x2="240" y2="338" stroke="#0f172a" stroke-width="1.5"/><polygon points="240,338 236,330 244,330" fill="#0f172a"/><metadata data-activity-kind="Action" data-activity-lane="Backend" data-activity-branch="0"/><rect x="130" y="402" width="220" height="36" rx="18" ry="18" fill="#ecfdf5" stroke="#047857" stroke-width="1.5"/><text x="240" y="425" text-anchor="middle" font-family="monospace" font-size="12" fill="#0f172a">Authenticate</text><line x1="240" y1="380" x2="240" y2="398" stroke="#0f172a" stroke-width="1.5"/><polygon points="240,398 236,390 244,390" fill="#0f172a"/><metadata data-activity-kind="Action" data-activity-lane="Backend" data-activity-branch="0"/><rect x="130" y="462" width="220" height="36" rx="18" ry="18" fill="#ecfdf5" stroke="#047857" stroke-width="1.5"/><text x="240" y="485" text-anchor="middle" font-family="monospace" font-size="12" fill="#0f172a">Process</text><line x1="240" y1="440" x2="240" y2="458" stroke="#0f172a" stroke-width="1.5"/><polygon points="240,458 236,450 244,450" fill="#0f172a"/><metadata data-activity-kind="Action" data-activity-lane="Backend" data-activity-branch="0"/><rect x="130" y="522" width="220" height="36" rx="18" ry="18" fill="#ecfdf5" stroke="#047857" stroke-width="1.5"/><text x="240" y="545" text-anchor="middle" font-family="monospace" font-size="12" fill="#0f172a">Query Data</text><line x1="240" y1="500" x2="240" y2="518" stroke="#0f172a" stroke-width="1.5"/><polygon points="240,518 236,510 244,510" fill="#0f172a"/><metadata data-activity-kind="Action" data-activity-lane="Backend" data-activity-branch="0"/><rect x="130" y="582" width="220" height="36" rx="18" ry="18" fill="#ecfdf5" stroke="#047857" stroke-width="1.5"/><text x="240" y="605" text-anchor="middle" font-family="monospace" font-size="12" fill="#0f172a">Return Rows</text><line x1="240" y1="560" x2="240" y2="578" stroke="#0f172a" stroke-width="1.5"/><polygon points="240,578 236,570 244,570" fill="#0f172a"/><metadata data-activity-kind="PartitionEnd" data-activity-lane="default" data-activity-branch="0"/><metadata data-activity-kind="PartitionStart" data-activity-lane="Frontend" data-activity-branch="0"/><metadata data-activity-kind="Action" data-activity-lane="Frontend" data-activity-branch="0"/><rect x="130" y="690" width="220" height="36" rx="18" ry="18" fill="#ecfdf5" stroke="#047857" stroke-width="1.5"/><text x="240" y="713" text-anchor="middle" font-family="monospace" font-size="12" fill="#0f172a">Format Response</text><line x1="240" y1="620" x2="240" y2="686" stroke="#0f172a" stroke-width="1.5"/><polygon points="240,686 236,678 244,678" fill="#0f172a"/><metadata data-activity-kind="Action" data-activity-lane="Frontend" data-activity-branch="0"/><rect x="130" y="750" width="220" height="36" rx="18" ry="18" fill="#ecfdf5" stroke="#047857" stroke-width="1.5"/><text x="240" y="773" text-anchor="middle" font-family="monospace" font-size="12" fill="#0f172a">Render UI</text><line x1="240" y1="728" x2="240" y2="746" stroke="#0f172a" stroke-width="1.5"/><polygon points="240,746 236,738 244,738" fill="#0f172a"/><metadata data-activity-kind="PartitionEnd" data-activity-lane="default" data-activity-branch="0"/><metadata data-activity-kind="Stop" data-activity-lane="default" data-activity-branch="0"/><circle cx="240" cy="850" r="14" fill="white" stroke="#0f172a" stroke-width="1.5"/><circle cx="240" cy="850" r="7" fill="#0f172a"/><line x1="240" y1="788" x2="240" y2="830" stroke="#0f172a" stroke-width="1.5"/><polygon points="240,830 236,822 244,822" fill="#0f172a"/></svg>