<svg xmlns="http://www.w3.org/2000/svg" width="248" height="762" viewBox="0 0 248 762"><rect width="100%" height="100%" fill="#ecfdf5"/><text x="32" y="22" font-family="monospace" font-size="16" font-weight="600" fill="#0f172a">Partitioned Activity</text><rect x="16" y="146" width="200" height="108" fill="#ecfdf5" stroke="#cbd5e1" stroke-width="1" stroke-dasharray="4 3"/><rect x="16" y="122" width="200" height="24" fill="#e2e8f0" stroke="#94a3b8" stroke-width="1"/><text x="116" y="138" text-anchor="middle" font-family="monospace" font-size="11" font-weight="600" fill="#0f172a">Worker</text><rect x="16" y="290" width="200" height="240" fill="#f1f5f9" stroke="#cbd5e1" stroke-width="1" stroke-dasharray="4 3"/><rect x="16" y="266" width="200" height="24" fill="#dde5ef" stroke="#94a3b8" stroke-width="1"/><text x="116" y="282" text-anchor="middle" font-family="monospace" font-size="11" font-weight="600" fill="#0f172a">Backend</text><rect x="16" y="566" width="200" height="108" fill="#ecfdf5" stroke="#cbd5e1" stroke-width="1" stroke-dasharray="4 3"/><rect x="16" y="542" width="200" height="24" fill="#e2e8f0" stroke="#94a3b8" stroke-width="1"/><text x="116" y="558" text-anchor="middle" font-family="monospace" font-size="11" font-weight="600" fill="#0f172a">Frontend</text><metadata data-activity-kind="Start" data-activity-lane="default" data-activity-branch="0"/><circle cx="116" cy="90" r="12" fill="#0f172a"/><metadata data-activity-kind="PartitionStart" data-activity-lane="Worker" data-activity-branch="0"/><metadata data-activity-kind="Action" data-activity-lane="Worker" data-activity-branch="0"/><rect x="36" y="150" width="160" height="36" rx="18" ry="18" fill="#ecfdf5" stroke="#047857" stroke-width="1.5"/><text x="116" y="173" text-anchor="middle" font-family="monospace" font-size="12" fill="#0f172a">User Click</text><polyline points="116,112 116,146" fill="none" stroke="#0f172a" stroke-width="1.5"/><polygon points="116,146 112,138 120,138" fill="#0f172a"/><metadata data-activity-kind="Action" data-activity-lane="Worker" data-activity-branch="0"/><rect x="36" y="194" width="160" height="36" rx="18" ry="18" fill="#ecfdf5" stroke="#047857" stroke-width="1.5"/><text x="116" y="217" text-anchor="middle" font-family="monospace" font-size="12" fill="#0f172a">Validate Form</text><polyline points="116,188 116,190" fill="none" stroke="#0f172a" stroke-width="1.5"/><polygon points="116,190 112,182 120,182" fill="#0f172a"/><metadata data-activity-kind="PartitionEnd" data-activity-lane="default" data-activity-branch="0"/><metadata data-activity-kind="PartitionStart" data-activity-lane="Backend" data-activity-branch="0"/><metadata data-activity-kind="Action" data-activity-lane="Backend" data-activity-branch="0"/><rect x="36" y="294" width="160" height="36" rx="18" ry="18" fill="#ecfdf5" stroke="#047857" stroke-width="1.5"/><text x="116" y="317" text-anchor="middle" font-family="monospace" font-size="12" fill="#0f172a">Receive Request</text><polyline points="116,232 116,290" fill="none" stroke="#0f172a" stroke-width="1.5"/><polygon points="116,290 112,282 120,282" fill="#0f172a"/><metadata data-activity-kind="Action" data-activity-lane="Backend" data-activity-branch="0"/><rect x="36" y="338" width="160" height="36" rx="18" ry="18" fill="#ecfdf5" stroke="#047857" stroke-width="1.5"/><text x="116" y="361" text-anchor="middle" font-family="monospace" font-size="12" fill="#0f172a">Authenticate</text><polyline points="116,332 116,334" fill="none" stroke="#0f172a" stroke-width="1.5"/><polygon points="116,334 112,326 120,326" fill="#0f172a"/><metadata data-activity-kind="Action" data-activity-lane="Backend" data-activity-branch="0"/><rect x="36" y="382" width="160" height="36" rx="18" ry="18" fill="#ecfdf5" stroke="#047857" stroke-width="1.5"/><text x="116" y="405" text-anchor="middle" font-family="monospace" font-size="12" fill="#0f172a">Process</text><polyline points="116,376 116,378" fill="none" stroke="#0f172a" stroke-width="1.5"/><polygon points="116,378 112,370 120,370" fill="#0f172a"/><metadata data-activity-kind="Action" data-activity-lane="Backend" data-activity-branch="0"/><rect x="36" y="426" width="160" height="36" rx="18" ry="18" fill="#ecfdf5" stroke="#047857" stroke-width="1.5"/><text x="116" y="449" text-anchor="middle" font-family="monospace" font-size="12" fill="#0f172a">Query Data</text><polyline points="116,420 116,422" fill="none" stroke="#0f172a" stroke-width="1.5"/><polygon points="116,422 112,414 120,414" fill="#0f172a"/><metadata data-activity-kind="Action" data-activity-lane="Backend" data-activity-branch="0"/><rect x="36" y="470" width="160" height="36" rx="18" ry="18" fill="#ecfdf5" stroke="#047857" stroke-width="1.5"/><text x="116" y="493" text-anchor="middle" font-family="monospace" font-size="12" fill="#0f172a">Return Rows</text><polyline points="116,464 116,466" fill="none" stroke="#0f172a" stroke-width="1.5"/><polygon points="116,466 112,458 120,458" fill="#0f172a"/><metadata data-activity-kind="PartitionEnd" data-activity-lane="default" data-activity-branch="0"/><metadata data-activity-kind="PartitionStart" data-activity-lane="Frontend" data-activity-branch="0"/><metadata data-activity-kind="Action" data-activity-lane="Frontend" data-activity-branch="0"/><rect x="36" y="570" width="160" height="36" rx="18" ry="18" fill="#ecfdf5" stroke="#047857" stroke-width="1.5"/><text x="116" y="593" text-anchor="middle" font-family="monospace" font-size="12" fill="#0f172a">Format Response</text><polyline points="116,508 116,566" fill="none" stroke="#0f172a" stroke-width="1.5"/><polygon points="116,566 112,558 120,558" fill="#0f172a"/><metadata data-activity-kind="Action" data-activity-lane="Frontend" data-activity-branch="0"/><rect x="36" y="614" width="160" height="36" rx="18" ry="18" fill="#ecfdf5" stroke="#047857" stroke-width="1.5"/><text x="116" y="637" text-anchor="middle" font-family="monospace" font-size="12" fill="#0f172a">Render UI</text><polyline points="116,608 116,610" fill="none" stroke="#0f172a" stroke-width="1.5"/><polygon points="116,610 112,602 120,602" fill="#0f172a"/><metadata data-activity-kind="PartitionEnd" data-activity-lane="default" data-activity-branch="0"/><metadata data-activity-kind="Stop" data-activity-lane="default" data-activity-branch="0"/><circle cx="116" cy="698" r="14" fill="white" stroke="#0f172a" stroke-width="1.5"/><circle cx="116" cy="698" r="7" fill="#0f172a"/><polyline points="116,652 116,678" fill="none" stroke="#0f172a" stroke-width="1.5"/><polygon points="116,678 112,670 120,670" fill="#0f172a"/></svg>