<svg xmlns="http://www.w3.org/2000/svg" width="480" height="806" viewBox="0 0 480 806"><rect width="100%" height="100%" fill="#ecfdf5"/><text x="32" y="28" font-family="monospace" font-size="18" font-weight="600" fill="#0f172a">Partitioned Activity</text><text x="32" y="52" font-family="monospace" font-size="12" fill="#0f172a">activity diagram</text><rect x="32" y="86" width="138" height="700" fill="#ecfdf5" stroke="#cbd5e1" stroke-width="1" stroke-dasharray="4 3"/><rect x="32" y="62" width="138" height="24" fill="#e2e8f0" stroke="#94a3b8" stroke-width="1"/><text x="101" y="78" text-anchor="middle" font-family="monospace" font-size="11" font-weight="600" fill="#0f172a">Worker</text><rect x="170" y="86" width="138" height="700" fill="#f1f5f9" stroke="#cbd5e1" stroke-width="1" stroke-dasharray="4 3"/><rect x="170" y="62" width="138" height="24" fill="#dde5ef" stroke="#94a3b8" stroke-width="1"/><text x="239" y="78" text-anchor="middle" font-family="monospace" font-size="11" font-weight="600" fill="#0f172a">Backend</text><rect x="308" y="86" width="138" height="700" fill="#ecfdf5" stroke="#cbd5e1" stroke-width="1" stroke-dasharray="4 3"/><rect x="308" y="62" width="138" height="24" fill="#e2e8f0" stroke="#94a3b8" stroke-width="1"/><text x="377" y="78" text-anchor="middle" font-family="monospace" font-size="11" font-weight="600" fill="#0f172a">Frontend</text><metadata data-activity-kind="Start" data-activity-lane="default" data-activity-branch="0"/><circle cx="101" cy="106" r="12" fill="#0f172a"/><metadata data-activity-kind="PartitionStart" data-activity-lane="Worker" data-activity-branch="0"/><metadata data-activity-kind="Action" data-activity-lane="Worker" data-activity-branch="0"/><rect x="41" y="150" width="120" height="36" rx="18" ry="18" fill="#ecfdf5" stroke="#047857" stroke-width="1.5"/><text x="101" y="173" text-anchor="middle" font-family="monospace" font-size="12" fill="#0f172a">User Click</text><line x1="101" y1="128" x2="101" y2="146" stroke="#0f172a" stroke-width="1.5"/><polygon points="101,146 97,138 105,138" fill="#0f172a"/><metadata data-activity-kind="Action" data-activity-lane="Worker" data-activity-branch="0"/><rect x="41" y="210" width="120" height="36" rx="18" ry="18" fill="#ecfdf5" stroke="#047857" stroke-width="1.5"/><text x="101" y="233" text-anchor="middle" font-family="monospace" font-size="12" fill="#0f172a">Validate Form</text><line x1="101" y1="188" x2="101" y2="206" stroke="#0f172a" stroke-width="1.5"/><polygon points="101,206 97,198 105,198" fill="#0f172a"/><metadata data-activity-kind="PartitionEnd" data-activity-lane="default" data-activity-branch="0"/><metadata data-activity-kind="PartitionStart" data-activity-lane="Backend" data-activity-branch="0"/><metadata data-activity-kind="Action" data-activity-lane="Backend" data-activity-branch="0"/><rect x="179" y="270" width="120" height="36" rx="18" ry="18" fill="#ecfdf5" stroke="#047857" stroke-width="1.5"/><text x="239" y="293" text-anchor="middle" font-family="monospace" font-size="12" fill="#0f172a">Receive Request</text><line x1="101" y1="248" x2="101" y2="257" stroke="#0f172a" stroke-width="1.5"/><line x1="101" y1="257" x2="239" y2="257" stroke="#0f172a" stroke-width="1.5"/><line x1="239" y1="257" x2="239" y2="266" stroke="#0f172a" stroke-width="1.5"/><polygon points="239,266 235,258 243,258" fill="#0f172a"/><metadata data-activity-kind="Action" data-activity-lane="Backend" data-activity-branch="0"/><rect x="179" y="330" width="120" height="36" rx="18" ry="18" fill="#ecfdf5" stroke="#047857" stroke-width="1.5"/><text x="239" y="353" text-anchor="middle" font-family="monospace" font-size="12" fill="#0f172a">Authenticate</text><line x1="239" y1="308" x2="239" y2="326" stroke="#0f172a" stroke-width="1.5"/><polygon points="239,326 235,318 243,318" fill="#0f172a"/><metadata data-activity-kind="Action" data-activity-lane="Backend" data-activity-branch="0"/><rect x="179" y="390" width="120" height="36" rx="18" ry="18" fill="#ecfdf5" stroke="#047857" stroke-width="1.5"/><text x="239" y="413" text-anchor="middle" font-family="monospace" font-size="12" fill="#0f172a">Process</text><line x1="239" y1="368" x2="239" y2="386" stroke="#0f172a" stroke-width="1.5"/><polygon points="239,386 235,378 243,378" fill="#0f172a"/><metadata data-activity-kind="Action" data-activity-lane="Backend" data-activity-branch="0"/><rect x="179" y="450" width="120" height="36" rx="18" ry="18" fill="#ecfdf5" stroke="#047857" stroke-width="1.5"/><text x="239" y="473" text-anchor="middle" font-family="monospace" font-size="12" fill="#0f172a">Query Data</text><line x1="239" y1="428" x2="239" y2="446" stroke="#0f172a" stroke-width="1.5"/><polygon points="239,446 235,438 243,438" fill="#0f172a"/><metadata data-activity-kind="Action" data-activity-lane="Backend" data-activity-branch="0"/><rect x="179" y="510" width="120" height="36" rx="18" ry="18" fill="#ecfdf5" stroke="#047857" stroke-width="1.5"/><text x="239" y="533" text-anchor="middle" font-family="monospace" font-size="12" fill="#0f172a">Return Rows</text><line x1="239" y1="488" x2="239" y2="506" stroke="#0f172a" stroke-width="1.5"/><polygon points="239,506 235,498 243,498" fill="#0f172a"/><metadata data-activity-kind="PartitionEnd" data-activity-lane="default" data-activity-branch="0"/><metadata data-activity-kind="PartitionStart" data-activity-lane="Frontend" data-activity-branch="0"/><metadata data-activity-kind="Action" data-activity-lane="Frontend" data-activity-branch="0"/><rect x="317" y="570" width="120" height="36" rx="18" ry="18" fill="#ecfdf5" stroke="#047857" stroke-width="1.5"/><text x="377" y="593" text-anchor="middle" font-family="monospace" font-size="12" fill="#0f172a">Format Response</text><line x1="239" y1="548" x2="239" y2="557" stroke="#0f172a" stroke-width="1.5"/><line x1="239" y1="557" x2="377" y2="557" stroke="#0f172a" stroke-width="1.5"/><line x1="377" y1="557" x2="377" y2="566" stroke="#0f172a" stroke-width="1.5"/><polygon points="377,566 373,558 381,558" fill="#0f172a"/><metadata data-activity-kind="Action" data-activity-lane="Frontend" data-activity-branch="0"/><rect x="317" y="630" width="120" height="36" rx="18" ry="18" fill="#ecfdf5" stroke="#047857" stroke-width="1.5"/><text x="377" y="653" text-anchor="middle" font-family="monospace" font-size="12" fill="#0f172a">Render UI</text><line x1="377" y1="608" x2="377" y2="626" stroke="#0f172a" stroke-width="1.5"/><polygon points="377,626 373,618 381,618" fill="#0f172a"/><metadata data-activity-kind="PartitionEnd" data-activity-lane="default" data-activity-branch="0"/><metadata data-activity-kind="Stop" data-activity-lane="default" data-activity-branch="0"/><circle cx="101" cy="706" r="14" fill="white" stroke="#0f172a" stroke-width="1.5"/><circle cx="101" cy="706" r="7" fill="#0f172a"/><line x1="377" y1="668" x2="377" y2="677" stroke="#0f172a" stroke-width="1.5"/><line x1="377" y1="677" x2="101" y2="677" stroke="#0f172a" stroke-width="1.5"/><line x1="101" y1="677" x2="101" y2="686" stroke="#0f172a" stroke-width="1.5"/><polygon points="101,686 97,678 105,678" fill="#0f172a"/></svg>