<svg xmlns="http://www.w3.org/2000/svg" width="480" height="974" viewBox="0 0 480 974"><rect width="100%" height="100%" fill="#ecfdf5"/><text x="32" y="28" font-family="monospace" font-size="18" font-weight="600" fill="#0f172a">Partitioned Activity</text><text x="32" y="52" font-family="monospace" font-size="12" fill="#0f172a">activity diagram</text><rect x="32" y="178" width="416" height="140" fill="#ecfdf5" stroke="#cbd5e1" stroke-width="1" stroke-dasharray="4 3"/><rect x="32" y="154" width="416" height="24" fill="#e2e8f0" stroke="#94a3b8" stroke-width="1"/><text x="240" y="170" text-anchor="middle" font-family="monospace" font-size="11" font-weight="600" fill="#0f172a">Worker</text><rect x="32" y="354" width="416" height="320" fill="#f1f5f9" stroke="#cbd5e1" stroke-width="1" stroke-dasharray="4 3"/><rect x="32" y="330" width="416" height="24" fill="#dde5ef" stroke="#94a3b8" stroke-width="1"/><text x="240" y="346" text-anchor="middle" font-family="monospace" font-size="11" font-weight="600" fill="#0f172a">Backend</text><rect x="32" y="710" width="416" height="140" fill="#ecfdf5" stroke="#cbd5e1" stroke-width="1" stroke-dasharray="4 3"/><rect x="32" y="686" width="416" height="24" fill="#e2e8f0" stroke="#94a3b8" stroke-width="1"/><text x="240" y="702" text-anchor="middle" font-family="monospace" font-size="11" font-weight="600" fill="#0f172a">Frontend</text><metadata data-activity-kind="Start" data-activity-lane="default" data-activity-branch="0"/><circle cx="240" cy="106" r="12" fill="#0f172a"/><metadata data-activity-kind="PartitionStart" data-activity-lane="Worker" data-activity-branch="0"/><metadata data-activity-kind="Action" data-activity-lane="Worker" data-activity-branch="0"/><rect x="130" y="182" width="220" height="36" rx="18" ry="18" fill="#ecfdf5" stroke="#047857" stroke-width="1.5"/><text x="240" y="205" text-anchor="middle" font-family="monospace" font-size="12" fill="#0f172a">User Click</text><line x1="240" y1="128" x2="240" y2="178" stroke="#0f172a" stroke-width="1.5"/><polygon points="240,178 236,170 244,170" fill="#0f172a"/><metadata data-activity-kind="Action" data-activity-lane="Worker" data-activity-branch="0"/><rect x="130" y="242" width="220" height="36" rx="18" ry="18" fill="#ecfdf5" stroke="#047857" stroke-width="1.5"/><text x="240" y="265" text-anchor="middle" font-family="monospace" font-size="12" fill="#0f172a">Validate Form</text><line x1="240" y1="220" x2="240" y2="238" stroke="#0f172a" stroke-width="1.5"/><polygon points="240,238 236,230 244,230" fill="#0f172a"/><metadata data-activity-kind="PartitionEnd" data-activity-lane="default" data-activity-branch="0"/><metadata data-activity-kind="PartitionStart" data-activity-lane="Backend" data-activity-branch="0"/><metadata data-activity-kind="Action" data-activity-lane="Backend" data-activity-branch="0"/><rect x="130" y="358" width="220" height="36" rx="18" ry="18" fill="#ecfdf5" stroke="#047857" stroke-width="1.5"/><text x="240" y="381" text-anchor="middle" font-family="monospace" font-size="12" fill="#0f172a">Receive Request</text><line x1="240" y1="280" x2="240" y2="354" stroke="#0f172a" stroke-width="1.5"/><polygon points="240,354 236,346 244,346" fill="#0f172a"/><metadata data-activity-kind="Action" data-activity-lane="Backend" data-activity-branch="0"/><rect x="130" y="418" width="220" height="36" rx="18" ry="18" fill="#ecfdf5" stroke="#047857" stroke-width="1.5"/><text x="240" y="441" text-anchor="middle" font-family="monospace" font-size="12" fill="#0f172a">Authenticate</text><line x1="240" y1="396" x2="240" y2="414" stroke="#0f172a" stroke-width="1.5"/><polygon points="240,414 236,406 244,406" fill="#0f172a"/><metadata data-activity-kind="Action" data-activity-lane="Backend" data-activity-branch="0"/><rect x="130" y="478" width="220" height="36" rx="18" ry="18" fill="#ecfdf5" stroke="#047857" stroke-width="1.5"/><text x="240" y="501" text-anchor="middle" font-family="monospace" font-size="12" fill="#0f172a">Process</text><line x1="240" y1="456" x2="240" y2="474" stroke="#0f172a" stroke-width="1.5"/><polygon points="240,474 236,466 244,466" fill="#0f172a"/><metadata data-activity-kind="Action" data-activity-lane="Backend" data-activity-branch="0"/><rect x="130" y="538" width="220" height="36" rx="18" ry="18" fill="#ecfdf5" stroke="#047857" stroke-width="1.5"/><text x="240" y="561" text-anchor="middle" font-family="monospace" font-size="12" fill="#0f172a">Query Data</text><line x1="240" y1="516" x2="240" y2="534" stroke="#0f172a" stroke-width="1.5"/><polygon points="240,534 236,526 244,526" fill="#0f172a"/><metadata data-activity-kind="Action" data-activity-lane="Backend" data-activity-branch="0"/><rect x="130" y="598" width="220" height="36" rx="18" ry="18" fill="#ecfdf5" stroke="#047857" stroke-width="1.5"/><text x="240" y="621" text-anchor="middle" font-family="monospace" font-size="12" fill="#0f172a">Return Rows</text><line x1="240" y1="576" x2="240" y2="594" stroke="#0f172a" stroke-width="1.5"/><polygon points="240,594 236,586 244,586" fill="#0f172a"/><metadata data-activity-kind="PartitionEnd" data-activity-lane="default" data-activity-branch="0"/><metadata data-activity-kind="PartitionStart" data-activity-lane="Frontend" data-activity-branch="0"/><metadata data-activity-kind="Action" data-activity-lane="Frontend" data-activity-branch="0"/><rect x="130" y="714" width="220" height="36" rx="18" ry="18" fill="#ecfdf5" stroke="#047857" stroke-width="1.5"/><text x="240" y="737" text-anchor="middle" font-family="monospace" font-size="12" fill="#0f172a">Format Response</text><line x1="240" y1="636" x2="240" y2="710" stroke="#0f172a" stroke-width="1.5"/><polygon points="240,710 236,702 244,702" fill="#0f172a"/><metadata data-activity-kind="Action" data-activity-lane="Frontend" data-activity-branch="0"/><rect x="130" y="774" width="220" height="36" rx="18" ry="18" fill="#ecfdf5" stroke="#047857" stroke-width="1.5"/><text x="240" y="797" text-anchor="middle" font-family="monospace" font-size="12" fill="#0f172a">Render UI</text><line x1="240" y1="752" x2="240" y2="770" stroke="#0f172a" stroke-width="1.5"/><polygon points="240,770 236,762 244,762" fill="#0f172a"/><metadata data-activity-kind="PartitionEnd" data-activity-lane="default" data-activity-branch="0"/><metadata data-activity-kind="Stop" data-activity-lane="default" data-activity-branch="0"/><circle cx="240" cy="874" r="14" fill="white" stroke="#0f172a" stroke-width="1.5"/><circle cx="240" cy="874" r="7" fill="#0f172a"/><line x1="240" y1="812" x2="240" y2="854" stroke="#0f172a" stroke-width="1.5"/><polygon points="240,854 236,846 244,846" fill="#0f172a"/></svg>