<svg xmlns="http://www.w3.org/2000/svg" width="480" height="782" viewBox="0 0 480 782"><rect width="100%" height="100%" fill="#ecfdf5"/><text x="32" y="28" font-family="monospace" font-size="18" font-weight="600" fill="#0f172a">Partitioned Activity</text><text x="32" y="52" font-family="monospace" font-size="12" fill="#0f172a">activity diagram</text><rect x="32" y="86" width="138" height="676" fill="#ecfdf5" stroke="#cbd5e1" stroke-width="1" stroke-dasharray="4 3"/><rect x="32" y="62" width="138" height="24" fill="#e2e8f0" stroke="#94a3b8" stroke-width="1"/><text x="101" y="78" text-anchor="middle" font-family="monospace" font-size="11" font-weight="600" fill="#0f172a">Worker</text><rect x="170" y="86" width="138" height="676" fill="#f1f5f9" stroke="#cbd5e1" stroke-width="1" stroke-dasharray="4 3"/><rect x="170" y="62" width="138" height="24" fill="#dde5ef" stroke="#94a3b8" stroke-width="1"/><text x="239" y="78" text-anchor="middle" font-family="monospace" font-size="11" font-weight="600" fill="#0f172a">Backend</text><rect x="308" y="86" width="138" height="676" fill="#ecfdf5" stroke="#cbd5e1" stroke-width="1" stroke-dasharray="4 3"/><rect x="308" y="62" width="138" height="24" fill="#e2e8f0" stroke="#94a3b8" stroke-width="1"/><text x="377" y="78" text-anchor="middle" font-family="monospace" font-size="11" font-weight="600" fill="#0f172a">Frontend</text><metadata data-activity-kind="Start" data-activity-lane="default" data-activity-branch="0"/><circle cx="101" cy="82" r="12" fill="#0f172a"/><metadata data-activity-kind="PartitionStart" data-activity-lane="Worker" data-activity-branch="0"/><text x="101" y="134" text-anchor="middle" font-family="monospace" font-size="10" font-weight="600" fill="#0f172a" opacity="0.7">[Worker]</text><metadata data-activity-kind="Action" data-activity-lane="Worker" data-activity-branch="0"/><rect x="41" y="126" width="120" height="36" rx="18" ry="18" fill="#ecfdf5" stroke="#047857" stroke-width="1.5"/><text x="101" y="149" text-anchor="middle" font-family="monospace" font-size="12" fill="#0f172a">User Click</text><line x1="101" y1="104" x2="101" y2="122" stroke="#0f172a" stroke-width="1.5"/><polygon points="101,122 97,114 105,114" fill="#0f172a"/><metadata data-activity-kind="Action" data-activity-lane="Worker" data-activity-branch="0"/><rect x="41" y="186" width="120" height="36" rx="18" ry="18" fill="#ecfdf5" stroke="#047857" stroke-width="1.5"/><text x="101" y="209" text-anchor="middle" font-family="monospace" font-size="12" fill="#0f172a">Validate Form</text><line x1="101" y1="164" x2="101" y2="182" stroke="#0f172a" stroke-width="1.5"/><polygon points="101,182 97,174 105,174" fill="#0f172a"/><metadata data-activity-kind="PartitionEnd" data-activity-lane="default" data-activity-branch="0"/><metadata data-activity-kind="PartitionStart" data-activity-lane="Backend" data-activity-branch="0"/><text x="239" y="254" text-anchor="middle" font-family="monospace" font-size="10" font-weight="600" fill="#0f172a" opacity="0.7">[Backend]</text><metadata data-activity-kind="Action" data-activity-lane="Backend" data-activity-branch="0"/><rect x="179" y="246" width="120" height="36" rx="18" ry="18" fill="#ecfdf5" stroke="#047857" stroke-width="1.5"/><text x="239" y="269" text-anchor="middle" font-family="monospace" font-size="12" fill="#0f172a">Receive Request</text><line x1="101" y1="224" x2="239" y2="242" stroke="#0f172a" stroke-width="1.5"/><polygon points="239,242 231,245 232,237" fill="#0f172a"/><metadata data-activity-kind="Action" data-activity-lane="Backend" data-activity-branch="0"/><rect x="179" y="306" width="120" height="36" rx="18" ry="18" fill="#ecfdf5" stroke="#047857" stroke-width="1.5"/><text x="239" y="329" text-anchor="middle" font-family="monospace" font-size="12" fill="#0f172a">Authenticate</text><line x1="239" y1="284" x2="239" y2="302" stroke="#0f172a" stroke-width="1.5"/><polygon points="239,302 235,294 243,294" fill="#0f172a"/><metadata data-activity-kind="Action" data-activity-lane="Backend" data-activity-branch="0"/><rect x="179" y="366" width="120" height="36" rx="18" ry="18" fill="#ecfdf5" stroke="#047857" stroke-width="1.5"/><text x="239" y="389" text-anchor="middle" font-family="monospace" font-size="12" fill="#0f172a">Process</text><line x1="239" y1="344" x2="239" y2="362" stroke="#0f172a" stroke-width="1.5"/><polygon points="239,362 235,354 243,354" fill="#0f172a"/><metadata data-activity-kind="Action" data-activity-lane="Backend" data-activity-branch="0"/><rect x="179" y="426" width="120" height="36" rx="18" ry="18" fill="#ecfdf5" stroke="#047857" stroke-width="1.5"/><text x="239" y="449" text-anchor="middle" font-family="monospace" font-size="12" fill="#0f172a">Query Data</text><line x1="239" y1="404" x2="239" y2="422" stroke="#0f172a" stroke-width="1.5"/><polygon points="239,422 235,414 243,414" fill="#0f172a"/><metadata data-activity-kind="Action" data-activity-lane="Backend" data-activity-branch="0"/><rect x="179" y="486" width="120" height="36" rx="18" ry="18" fill="#ecfdf5" stroke="#047857" stroke-width="1.5"/><text x="239" y="509" text-anchor="middle" font-family="monospace" font-size="12" fill="#0f172a">Return Rows</text><line x1="239" y1="464" x2="239" y2="482" stroke="#0f172a" stroke-width="1.5"/><polygon points="239,482 235,474 243,474" fill="#0f172a"/><metadata data-activity-kind="PartitionEnd" data-activity-lane="default" data-activity-branch="0"/><metadata data-activity-kind="PartitionStart" data-activity-lane="Frontend" data-activity-branch="0"/><text x="377" y="554" text-anchor="middle" font-family="monospace" font-size="10" font-weight="600" fill="#0f172a" opacity="0.7">[Frontend]</text><metadata data-activity-kind="Action" data-activity-lane="Frontend" data-activity-branch="0"/><rect x="317" y="546" width="120" height="36" rx="18" ry="18" fill="#ecfdf5" stroke="#047857" stroke-width="1.5"/><text x="377" y="569" text-anchor="middle" font-family="monospace" font-size="12" fill="#0f172a">Format Response</text><line x1="239" y1="524" x2="377" y2="542" stroke="#0f172a" stroke-width="1.5"/><polygon points="377,542 369,545 370,537" fill="#0f172a"/><metadata data-activity-kind="Action" data-activity-lane="Frontend" data-activity-branch="0"/><rect x="317" y="606" width="120" height="36" rx="18" ry="18" fill="#ecfdf5" stroke="#047857" stroke-width="1.5"/><text x="377" y="629" text-anchor="middle" font-family="monospace" font-size="12" fill="#0f172a">Render UI</text><line x1="377" y1="584" x2="377" y2="602" stroke="#0f172a" stroke-width="1.5"/><polygon points="377,602 373,594 381,594" fill="#0f172a"/><metadata data-activity-kind="PartitionEnd" data-activity-lane="default" data-activity-branch="0"/><metadata data-activity-kind="Stop" data-activity-lane="default" data-activity-branch="0"/><circle cx="101" cy="682" r="14" fill="white" stroke="#0f172a" stroke-width="1.5"/><circle cx="101" cy="682" r="7" fill="#0f172a"/><line x1="377" y1="644" x2="101" y2="662" stroke="#0f172a" stroke-width="1.5"/><polygon points="101,662 109,657 109,665" fill="#0f172a"/></svg>