<svg xmlns="http://www.w3.org/2000/svg" width="480" height="1322" viewBox="0 0 480 1322"><rect width="100%" height="100%" fill="white"/><text x="32" y="28" font-family="monospace" font-size="18" font-weight="600">Order Processing Flow</text><text x="32" y="52" font-family="monospace" font-size="12" fill="#475569">activity diagram</text><circle cx="240" cy="82" r="12" fill="#0f172a"/><rect x="130" y="126" width="220" height="36" rx="18" ry="18" fill="#ecfdf5" stroke="#047857" stroke-width="1.5"/><text x="240" y="149" text-anchor="middle" font-family="monospace" font-size="12">Receive Order</text><line x1="240" y1="104" x2="240" y2="122" stroke="#0f172a" stroke-width="1.5"/><polygon points="240,122 236,116 244,116" fill="#0f172a"/><polygon points="240,184 340,206 240,228 140,206" fill="#fef9c3" stroke="#a16207" stroke-width="1.5"/><text x="240" y="210" text-anchor="middle" font-family="monospace" font-size="11">In Stock?) then (yes</text><line x1="240" y1="164" x2="240" y2="182" stroke="#0f172a" stroke-width="1.5"/><polygon points="240,182 236,176 244,176" fill="#0f172a"/><rect x="130" y="266" width="220" height="8" fill="#0f172a"/><line x1="240" y1="224" x2="240" y2="242" stroke="#0f172a" stroke-width="1.5"/><polygon points="240,242 236,236 244,236" fill="#0f172a"/><rect x="130" y="306" width="220" height="36" rx="18" ry="18" fill="#ecfdf5" stroke="#047857" stroke-width="1.5"/><text x="240" y="329" text-anchor="middle" font-family="monospace" font-size="12">Reserve Inventory</text><line x1="240" y1="284" x2="240" y2="302" stroke="#0f172a" stroke-width="1.5"/><polygon points="240,302 236,296 244,296" fill="#0f172a"/><rect x="130" y="386" width="220" height="8" fill="#0f172a"/><line x1="240" y1="344" x2="240" y2="362" stroke="#0f172a" stroke-width="1.5"/><polygon points="240,362 236,356 244,356" fill="#0f172a"/><rect x="130" y="426" width="220" height="36" rx="18" ry="18" fill="#ecfdf5" stroke="#047857" stroke-width="1.5"/><text x="240" y="449" text-anchor="middle" font-family="monospace" font-size="12">Charge Payment</text><line x1="240" y1="404" x2="240" y2="422" stroke="#0f172a" stroke-width="1.5"/><polygon points="240,422 236,416 244,416" fill="#0f172a"/><rect x="130" y="506" width="220" height="8" fill="#0f172a"/><line x1="240" y1="464" x2="240" y2="482" stroke="#0f172a" stroke-width="1.5"/><polygon points="240,482 236,476 244,476" fill="#0f172a"/><polygon points="240,544 340,566 240,588 140,566" fill="#fef9c3" stroke="#a16207" stroke-width="1.5"/><text x="240" y="570" text-anchor="middle" font-family="monospace" font-size="11">Payment OK?) then (yes</text><line x1="240" y1="524" x2="240" y2="542" stroke="#0f172a" stroke-width="1.5"/><polygon points="240,542 236,536 244,536" fill="#0f172a"/><rect x="130" y="606" width="220" height="36" rx="18" ry="18" fill="#ecfdf5" stroke="#047857" stroke-width="1.5"/><text x="240" y="629" text-anchor="middle" font-family="monospace" font-size="12">Pack Order</text><line x1="240" y1="584" x2="240" y2="602" stroke="#0f172a" stroke-width="1.5"/><polygon points="240,602 236,596 244,596" fill="#0f172a"/><rect x="130" y="666" width="220" height="36" rx="18" ry="18" fill="#ecfdf5" stroke="#047857" stroke-width="1.5"/><text x="240" y="689" text-anchor="middle" font-family="monospace" font-size="12">Ship Order</text><line x1="240" y1="644" x2="240" y2="662" stroke="#0f172a" stroke-width="1.5"/><polygon points="240,662 236,656 244,656" fill="#0f172a"/><rect x="130" y="726" width="220" height="36" rx="18" ry="18" fill="#ecfdf5" stroke="#047857" stroke-width="1.5"/><text x="240" y="749" text-anchor="middle" font-family="monospace" font-size="12">Send Confirmation</text><line x1="240" y1="704" x2="240" y2="722" stroke="#0f172a" stroke-width="1.5"/><polygon points="240,722 236,716 244,716" fill="#0f172a"/><text x="240" y="810" text-anchor="middle" font-family="monospace" font-size="11" fill="#475569">(merge) no</text><line x1="240" y1="764" x2="240" y2="782" stroke="#0f172a" stroke-width="1.5"/><polygon points="240,782 236,776 244,776" fill="#0f172a"/><rect x="130" y="846" width="220" height="36" rx="18" ry="18" fill="#ecfdf5" stroke="#047857" stroke-width="1.5"/><text x="240" y="869" text-anchor="middle" font-family="monospace" font-size="12">Release Inventory</text><line x1="240" y1="824" x2="240" y2="842" stroke="#0f172a" stroke-width="1.5"/><polygon points="240,842 236,836 244,836" fill="#0f172a"/><rect x="130" y="906" width="220" height="36" rx="18" ry="18" fill="#ecfdf5" stroke="#047857" stroke-width="1.5"/><text x="240" y="929" text-anchor="middle" font-family="monospace" font-size="12">Notify Customer</text><line x1="240" y1="884" x2="240" y2="902" stroke="#0f172a" stroke-width="1.5"/><polygon points="240,902 236,896 244,896" fill="#0f172a"/><text x="240" y="990" text-anchor="middle" font-family="monospace" font-size="11" fill="#475569">(merge) </text><line x1="240" y1="944" x2="240" y2="962" stroke="#0f172a" stroke-width="1.5"/><polygon points="240,962 236,956 244,956" fill="#0f172a"/><text x="240" y="1050" text-anchor="middle" font-family="monospace" font-size="11" fill="#475569">(merge) no</text><line x1="240" y1="1004" x2="240" y2="1022" stroke="#0f172a" stroke-width="1.5"/><polygon points="240,1022 236,1016 244,1016" fill="#0f172a"/><rect x="130" y="1086" width="220" height="36" rx="18" ry="18" fill="#ecfdf5" stroke="#047857" stroke-width="1.5"/><text x="240" y="1109" text-anchor="middle" font-family="monospace" font-size="12">Notify Out of Stock</text><line x1="240" y1="1064" x2="240" y2="1082" stroke="#0f172a" stroke-width="1.5"/><polygon points="240,1082 236,1076 244,1076" fill="#0f172a"/><text x="240" y="1170" text-anchor="middle" font-family="monospace" font-size="11" fill="#475569">(merge) </text><line x1="240" y1="1124" x2="240" y2="1142" stroke="#0f172a" stroke-width="1.5"/><polygon points="240,1142 236,1136 244,1136" fill="#0f172a"/><circle cx="240" cy="1222" r="14" fill="white" stroke="#0f172a" stroke-width="1.5"/><circle cx="240" cy="1222" r="7" fill="#0f172a"/><line x1="240" y1="1184" x2="240" y2="1202" stroke="#0f172a" stroke-width="1.5"/><polygon points="240,1202 236,1196 244,1196" fill="#0f172a"/></svg>