<svg xmlns="http://www.w3.org/2000/svg" width="1120" height="1022" viewBox="0 0 1120 1022"><rect width="100%" height="100%" fill="#ecfdf5"/><text x="32" y="28" font-family="monospace" font-size="18" font-weight="600" fill="#0f172a">Order Processing Flow</text><text x="32" y="52" font-family="monospace" font-size="12" fill="#0f172a">activity diagram</text><rect x="32" y="54" width="1056" height="940" fill="#ecfdf5" stroke="#cbd5e1" stroke-width="1" stroke-dasharray="4 3"/><metadata data-activity-kind="Start" data-activity-lane="default" data-activity-branch="0"/><circle cx="560" cy="82" r="12" fill="#0f172a"/><metadata data-activity-kind="Action" data-activity-lane="default" data-activity-branch="0"/><rect x="450" y="126" width="220" height="36" rx="18" ry="18" fill="#ecfdf5" stroke="#047857" stroke-width="1.5"/><text x="560" y="149" text-anchor="middle" font-family="monospace" font-size="12" fill="#0f172a">Receive Order</text><line x1="560" y1="104" x2="560" y2="122" stroke="#0f172a" stroke-width="1.5"/><polygon points="560,122 556,114 564,114" fill="#0f172a"/><metadata data-activity-kind="IfStart" data-activity-lane="default" data-activity-branch="0"/><polygon points="560,184 660,206 560,228 460,206" fill="#fef9c3" stroke="#047857" stroke-width="1.5"/><text x="560" y="210" text-anchor="middle" font-family="monospace" font-size="11" fill="#0f172a">In Stock?</text><text x="664" y="210" text-anchor="start" font-family="monospace" font-size="10" fill="#0f172a">yes</text><line x1="560" y1="164" x2="560" y2="182" stroke="#0f172a" stroke-width="1.5"/><polygon points="560,182 556,174 564,174" fill="#0f172a"/><metadata data-activity-kind="Fork" data-activity-lane="default" data-activity-branch="0"/><rect x="450" y="266" width="220" height="8" fill="#0f172a"/><line x1="560" y1="224" x2="560" y2="242" stroke="#0f172a" stroke-width="1.5"/><polygon points="560,242 556,234 564,234" fill="#0f172a"/><metadata data-activity-kind="Action" data-activity-lane="default" data-activity-branch="0"/><rect x="450" y="306" width="220" height="36" rx="18" ry="18" fill="#ecfdf5" stroke="#047857" stroke-width="1.5"/><text x="560" y="329" text-anchor="middle" font-family="monospace" font-size="12" fill="#0f172a">Reserve Inventory</text><line x1="560" y1="284" x2="560" y2="302" stroke="#0f172a" stroke-width="1.5"/><polygon points="560,302 556,294 564,294" fill="#0f172a"/><metadata data-activity-kind="ForkAgain" data-activity-lane="default" data-activity-branch="1"/><rect x="450" y="386" width="220" height="8" fill="#0f172a"/><text x="560" y="382" text-anchor="middle" font-family="monospace" font-size="10" fill="#0f172a">branch 2</text><line x1="560" y1="344" x2="560" y2="362" stroke="#0f172a" stroke-width="1.5"/><polygon points="560,362 556,354 564,354" fill="#0f172a"/><line x1="560" y1="270" x2="560" y2="362" stroke="#0f172a" stroke-width="1.25" stroke-dasharray="4 2"/><metadata data-activity-kind="Action" data-activity-lane="default" data-activity-branch="1"/><rect x="450" y="426" width="220" height="36" rx="18" ry="18" fill="#ecfdf5" stroke="#047857" stroke-width="1.5"/><text x="560" y="449" text-anchor="middle" font-family="monospace" font-size="12" fill="#0f172a">Charge Payment</text><line x1="560" y1="404" x2="560" y2="422" stroke="#0f172a" stroke-width="1.5"/><polygon points="560,422 556,414 564,414" fill="#0f172a"/><line x1="560" y1="270" x2="560" y2="422" stroke="#0f172a" stroke-width="1.25" stroke-dasharray="4 2"/><metadata data-activity-kind="EndFork" data-activity-lane="default" data-activity-branch="0"/><rect x="450" y="506" width="220" height="8" fill="#0f172a"/><line x1="560" y1="464" x2="560" y2="482" stroke="#0f172a" stroke-width="1.5"/><polygon points="560,482 556,474 564,474" fill="#0f172a"/><metadata data-activity-kind="IfStart" data-activity-lane="default" data-activity-branch="0"/><polygon points="560,544 660,566 560,588 460,566" fill="#fef9c3" stroke="#047857" stroke-width="1.5"/><text x="560" y="570" text-anchor="middle" font-family="monospace" font-size="11" fill="#0f172a">Payment OK?</text><text x="664" y="570" text-anchor="start" font-family="monospace" font-size="10" fill="#0f172a">yes</text><line x1="560" y1="524" x2="560" y2="542" stroke="#0f172a" stroke-width="1.5"/><polygon points="560,542 556,534 564,534" fill="#0f172a"/><metadata data-activity-kind="Action" data-activity-lane="default" data-activity-branch="0"/><rect x="450" y="606" width="220" height="36" rx="18" ry="18" fill="#ecfdf5" stroke="#047857" stroke-width="1.5"/><text x="560" y="629" text-anchor="middle" font-family="monospace" font-size="12" fill="#0f172a">Pack Order</text><line x1="560" y1="584" x2="560" y2="602" stroke="#0f172a" stroke-width="1.5"/><polygon points="560,602 556,594 564,594" fill="#0f172a"/><metadata data-activity-kind="Action" data-activity-lane="default" data-activity-branch="0"/><rect x="450" y="666" width="220" height="36" rx="18" ry="18" fill="#ecfdf5" stroke="#047857" stroke-width="1.5"/><text x="560" y="689" text-anchor="middle" font-family="monospace" font-size="12" fill="#0f172a">Ship Order</text><line x1="560" y1="644" x2="560" y2="662" stroke="#0f172a" stroke-width="1.5"/><polygon points="560,662 556,654 564,654" fill="#0f172a"/><metadata data-activity-kind="Action" data-activity-lane="default" data-activity-branch="0"/><rect x="450" y="726" width="220" height="36" rx="18" ry="18" fill="#ecfdf5" stroke="#047857" stroke-width="1.5"/><text x="560" y="749" text-anchor="middle" font-family="monospace" font-size="12" fill="#0f172a">Send Confirmation</text><line x1="560" y1="704" x2="560" y2="722" stroke="#0f172a" stroke-width="1.5"/><polygon points="560,722 556,714 564,714" fill="#0f172a"/><metadata data-activity-kind="Else" data-activity-lane="default" data-activity-branch="0"/><text x="720" y="630" text-anchor="middle" font-family="monospace" font-size="11" fill="#0f172a">(else) no</text><line x1="560" y1="584" x2="720" y2="602" stroke="#0f172a" stroke-width="1.5"/><polygon points="720,602 712,605 712,597" fill="#0f172a"/><metadata data-activity-kind="Action" data-activity-lane="default" data-activity-branch="0"/><rect x="610" y="666" width="220" height="36" rx="18" ry="18" fill="#ecfdf5" stroke="#047857" stroke-width="1.5"/><text x="720" y="689" text-anchor="middle" font-family="monospace" font-size="12" fill="#0f172a">Release Inventory</text><line x1="720" y1="644" x2="720" y2="662" stroke="#0f172a" stroke-width="1.5"/><polygon points="720,662 716,654 724,654" fill="#0f172a"/><metadata data-activity-kind="Action" data-activity-lane="default" data-activity-branch="0"/><rect x="610" y="726" width="220" height="36" rx="18" ry="18" fill="#ecfdf5" stroke="#047857" stroke-width="1.5"/><text x="720" y="749" text-anchor="middle" font-family="monospace" font-size="12" fill="#0f172a">Notify Customer</text><line x1="720" y1="704" x2="720" y2="722" stroke="#0f172a" stroke-width="1.5"/><polygon points="720,722 716,714 724,714" fill="#0f172a"/><metadata data-activity-kind="EndIf" data-activity-lane="default" data-activity-branch="0"/><text x="560" y="810" text-anchor="middle" font-family="monospace" font-size="11" fill="#0f172a">(endif)</text><line x1="560" y1="764" x2="560" y2="782" stroke="#0f172a" stroke-width="1.5"/><polygon points="560,782 556,774 564,774" fill="#0f172a"/><line x1="720" y1="764" x2="560" y2="782" stroke="#0f172a" stroke-width="1.5"/><polygon points="560,782 568,777 568,785" fill="#0f172a"/><metadata data-activity-kind="Else" data-activity-lane="default" data-activity-branch="0"/><text x="880" y="270" text-anchor="middle" font-family="monospace" font-size="11" fill="#0f172a">(else) no</text><line x1="560" y1="224" x2="880" y2="242" stroke="#0f172a" stroke-width="1.5"/><polygon points="880,242 872,246 872,238" fill="#0f172a"/><metadata data-activity-kind="Action" data-activity-lane="default" data-activity-branch="0"/><rect x="770" y="306" width="220" height="36" rx="18" ry="18" fill="#ecfdf5" stroke="#047857" stroke-width="1.5"/><text x="880" y="329" text-anchor="middle" font-family="monospace" font-size="12" fill="#0f172a">Notify Out of Stock</text><line x1="880" y1="284" x2="880" y2="302" stroke="#0f172a" stroke-width="1.5"/><polygon points="880,302 876,294 884,294" fill="#0f172a"/><metadata data-activity-kind="EndIf" data-activity-lane="default" data-activity-branch="0"/><text x="560" y="870" text-anchor="middle" font-family="monospace" font-size="11" fill="#0f172a">(endif)</text><line x1="560" y1="824" x2="560" y2="842" stroke="#0f172a" stroke-width="1.5"/><polygon points="560,842 556,834 564,834" fill="#0f172a"/><line x1="880" y1="344" x2="560" y2="842" stroke="#0f172a" stroke-width="1.5"/><polygon points="560,842 561,833 568,837" fill="#0f172a"/><metadata data-activity-kind="Stop" data-activity-lane="default" data-activity-branch="0"/><circle cx="560" cy="922" r="14" fill="white" stroke="#0f172a" stroke-width="1.5"/><circle cx="560" cy="922" r="7" fill="#0f172a"/><line x1="560" y1="884" x2="560" y2="902" stroke="#0f172a" stroke-width="1.5"/><polygon points="560,902 556,894 564,894" fill="#0f172a"/></svg>