<svg xmlns="http://www.w3.org/2000/svg" width="1440" height="902" viewBox="0 0 1440 902"><rect width="100%" height="100%" fill="#ecfdf5"/><text x="32" y="28" font-family="monospace" font-size="18" font-weight="600" fill="#0f172a">Order Processing Flow</text><text x="32" y="52" font-family="monospace" font-size="12" fill="#0f172a">activity diagram</text><rect x="32" y="62" width="1376" height="820" fill="#ecfdf5" stroke="#cbd5e1" stroke-width="1" stroke-dasharray="4 3"/><metadata data-activity-kind="Start" data-activity-lane="default" data-activity-branch="0"/><circle cx="720" cy="82" r="12" fill="#0f172a"/><metadata data-activity-kind="Action" data-activity-lane="default" data-activity-branch="0"/><rect x="610" y="126" width="220" height="36" rx="18" ry="18" fill="#ecfdf5" stroke="#047857" stroke-width="1.5"/><text x="720" y="149" text-anchor="middle" font-family="monospace" font-size="12" fill="#0f172a">Receive Order</text><line x1="720" y1="104" x2="720" y2="122" stroke="#0f172a" stroke-width="1.5"/><polygon points="720,122 716,114 724,114" fill="#0f172a"/><metadata data-activity-kind="IfStart" data-activity-lane="default" data-activity-branch="0"/><polygon points="720,184 820,206 720,228 620,206" fill="#fef9c3" stroke="#047857" stroke-width="1.5"/><text x="720" y="210" text-anchor="middle" font-family="monospace" font-size="11" fill="#0f172a">In Stock?</text><text x="824" y="210" text-anchor="start" font-family="monospace" font-size="10" fill="#0f172a">yes</text><line x1="720" y1="164" x2="720" y2="182" stroke="#0f172a" stroke-width="1.5"/><polygon points="720,182 716,174 724,174" fill="#0f172a"/><metadata data-activity-kind="Fork" data-activity-lane="default" data-activity-branch="0"/><rect x="-128" y="266" width="1376" height="8" fill="#0f172a"/><line x1="720" y1="224" x2="720" y2="233" stroke="#0f172a" stroke-width="1.5"/><line x1="720" y1="233" x2="560" y2="233" stroke="#0f172a" stroke-width="1.5"/><line x1="560" y1="233" x2="560" y2="242" stroke="#0f172a" stroke-width="1.5"/><polygon points="560,242 556,234 564,234" fill="#0f172a"/><metadata data-activity-kind="Action" data-activity-lane="default" data-activity-branch="0"/><rect x="106" y="306" width="220" height="36" rx="18" ry="18" fill="#ecfdf5" stroke="#047857" stroke-width="1.5"/><text x="216" y="329" text-anchor="middle" font-family="monospace" font-size="12" fill="#0f172a">Reserve Inventory</text><metadata data-activity-kind="ForkAgain" data-activity-lane="default" data-activity-branch="1"/><metadata data-activity-kind="Action" data-activity-lane="default" data-activity-branch="1"/><rect x="794" y="306" width="220" height="36" rx="18" ry="18" fill="#ecfdf5" stroke="#047857" stroke-width="1.5"/><text x="904" y="329" text-anchor="middle" font-family="monospace" font-size="12" fill="#0f172a">Charge Payment</text><metadata data-activity-kind="EndFork" data-activity-lane="default" data-activity-branch="0"/><rect x="-128" y="386" width="1376" height="8" fill="#0f172a"/><metadata data-activity-kind="IfStart" data-activity-lane="default" data-activity-branch="0"/><polygon points="560,424 660,446 560,468 460,446" fill="#fef9c3" stroke="#047857" stroke-width="1.5"/><text x="560" y="450" text-anchor="middle" font-family="monospace" font-size="11" fill="#0f172a">Payment OK?</text><text x="664" y="450" text-anchor="start" font-family="monospace" font-size="10" fill="#0f172a">yes</text><line x1="560" y1="404" x2="560" y2="422" stroke="#0f172a" stroke-width="1.5"/><polygon points="560,422 556,414 564,414" fill="#0f172a"/><metadata data-activity-kind="Action" data-activity-lane="default" data-activity-branch="0"/><rect x="290" y="486" width="220" height="36" rx="18" ry="18" fill="#ecfdf5" stroke="#047857" stroke-width="1.5"/><text x="400" y="509" text-anchor="middle" font-family="monospace" font-size="12" fill="#0f172a">Pack Order</text><line x1="560" y1="464" x2="560" y2="473" stroke="#0f172a" stroke-width="1.5"/><line x1="560" y1="473" x2="400" y2="473" stroke="#0f172a" stroke-width="1.5"/><line x1="400" y1="473" x2="400" y2="482" stroke="#0f172a" stroke-width="1.5"/><polygon points="400,482 396,474 404,474" fill="#0f172a"/><metadata data-activity-kind="Action" data-activity-lane="default" data-activity-branch="0"/><rect x="290" y="546" width="220" height="36" rx="18" ry="18" fill="#ecfdf5" stroke="#047857" stroke-width="1.5"/><text x="400" y="569" text-anchor="middle" font-family="monospace" font-size="12" fill="#0f172a">Ship Order</text><line x1="400" y1="524" x2="400" y2="542" stroke="#0f172a" stroke-width="1.5"/><polygon points="400,542 396,534 404,534" fill="#0f172a"/><metadata data-activity-kind="Action" data-activity-lane="default" data-activity-branch="0"/><rect x="290" y="606" width="220" height="36" rx="18" ry="18" fill="#ecfdf5" stroke="#047857" stroke-width="1.5"/><text x="400" y="629" text-anchor="middle" font-family="monospace" font-size="12" fill="#0f172a">Send Confirmation</text><line x1="400" y1="584" x2="400" y2="602" stroke="#0f172a" stroke-width="1.5"/><polygon points="400,602 396,594 404,594" fill="#0f172a"/><metadata data-activity-kind="Else" data-activity-lane="default" data-activity-branch="0"/><metadata data-activity-kind="Action" data-activity-lane="default" data-activity-branch="0"/><rect x="610" y="546" width="220" height="36" rx="18" ry="18" fill="#ecfdf5" stroke="#047857" stroke-width="1.5"/><text x="720" y="569" text-anchor="middle" font-family="monospace" font-size="12" fill="#0f172a">Release Inventory</text><line x1="560" y1="464" x2="560" y2="503" stroke="#0f172a" stroke-width="1.5"/><line x1="560" y1="503" x2="720" y2="503" stroke="#0f172a" stroke-width="1.5"/><line x1="720" y1="503" x2="720" y2="542" stroke="#0f172a" stroke-width="1.5"/><polygon points="720,542 716,534 724,534" fill="#0f172a"/><metadata data-activity-kind="Action" data-activity-lane="default" data-activity-branch="0"/><rect x="610" y="606" width="220" height="36" rx="18" ry="18" fill="#ecfdf5" stroke="#047857" stroke-width="1.5"/><text x="720" y="629" text-anchor="middle" font-family="monospace" font-size="12" fill="#0f172a">Notify Customer</text><line x1="720" y1="584" x2="720" y2="602" stroke="#0f172a" stroke-width="1.5"/><polygon points="720,602 716,594 724,594" fill="#0f172a"/><metadata data-activity-kind="EndIf" data-activity-lane="default" data-activity-branch="0"/><metadata data-activity-kind="Else" data-activity-lane="default" data-activity-branch="0"/><metadata data-activity-kind="Action" data-activity-lane="default" data-activity-branch="0"/><rect x="954" y="306" width="220" height="36" rx="18" ry="18" fill="#ecfdf5" stroke="#047857" stroke-width="1.5"/><text x="1064" y="329" text-anchor="middle" font-family="monospace" font-size="12" fill="#0f172a">Notify Out of Stock</text><line x1="400" y1="644" x2="1064" y2="302" stroke="#0f172a" stroke-width="1.5"/><polygon points="1064,302 1059,309 1055,302" fill="#0f172a"/><line x1="720" y1="644" x2="1064" y2="302" stroke="#0f172a" stroke-width="1.5"/><polygon points="1064,302 1061,310 1056,305" fill="#0f172a"/><line x1="720" y1="224" x2="720" y2="263" stroke="#0f172a" stroke-width="1.5"/><line x1="720" y1="263" x2="1064" y2="263" stroke="#0f172a" stroke-width="1.5"/><line x1="1064" y1="263" x2="1064" y2="302" stroke="#0f172a" stroke-width="1.5"/><polygon points="1064,302 1060,294 1068,294" fill="#0f172a"/><metadata data-activity-kind="EndIf" data-activity-lane="default" data-activity-branch="0"/><metadata data-activity-kind="Stop" data-activity-lane="default" data-activity-branch="0"/><circle cx="720" cy="802" r="14" fill="white" stroke="#0f172a" stroke-width="1.5"/><circle cx="720" cy="802" r="7" fill="#0f172a"/><line x1="1064" y1="344" x2="1064" y2="563" stroke="#0f172a" stroke-width="1.5"/><line x1="1064" y1="563" x2="720" y2="563" stroke="#0f172a" stroke-width="1.5"/><line x1="720" y1="563" x2="720" y2="782" stroke="#0f172a" stroke-width="1.5"/><polygon points="720,782 716,774 724,774" fill="#0f172a"/><line x1="216" y1="344" x2="216" y2="386" stroke="#0f172a" stroke-width="1.5"/><polygon points="216,386 212,378 220,378" fill="#0f172a"/><line x1="904" y1="344" x2="904" y2="386" stroke="#0f172a" stroke-width="1.5"/><polygon points="904,386 900,378 908,378" fill="#0f172a"/><line x1="216" y1="274" x2="216" y2="302" stroke="#0f172a" stroke-width="1.5"/><polygon points="216,302 212,294 220,294" fill="#0f172a"/><line x1="904" y1="274" x2="904" y2="302" stroke="#0f172a" stroke-width="1.5"/><polygon points="904,302 900,294 908,294" fill="#0f172a"/></svg>