<svg xmlns="http://www.w3.org/2000/svg" width="728" height="658" viewBox="0 0 728 658"><rect width="100%" height="100%" fill="#ecfdf5"/><text x="32" y="22" font-family="monospace" font-size="16" font-weight="600" fill="#0f172a">Order Processing Flow</text><metadata data-activity-kind="Start" data-activity-lane="default" data-activity-branch="0"/><circle cx="356" cy="66" r="12" fill="#0f172a"/><metadata data-activity-kind="Action" data-activity-lane="default" data-activity-branch="0"/><rect x="276" y="94" width="160" height="36" rx="18" ry="18" fill="#ecfdf5" stroke="#047857" stroke-width="1.5"/><text x="356" y="117" text-anchor="middle" font-family="monospace" font-size="12" fill="#0f172a">Receive Order</text><polyline points="356,88 356,90" fill="none" stroke="#0f172a" stroke-width="1.5"/><polygon points="356,90 352,82 360,82" fill="#0f172a"/><metadata data-activity-kind="IfStart" data-activity-lane="default" data-activity-branch="0"/><polygon points="356,136 456,158 356,180 256,158" fill="#fef9c3" stroke="#047857" stroke-width="1.5"/><text x="356" y="162" text-anchor="middle" font-family="monospace" font-size="11" fill="#0f172a">In Stock?</text><polyline points="356,132 356,134" fill="none" stroke="#0f172a" stroke-width="1.5"/><polygon points="356,134 352,126 360,126" fill="#0f172a"/><metadata data-activity-kind="Fork" data-activity-lane="default" data-activity-branch="0"/><rect x="34" y="202" width="484" height="8" fill="#0f172a"/><polyline points="256,158 256,168 276,168 276,178" fill="none" stroke="#0f172a" stroke-width="1.5"/><polygon points="276,178 272,170 280,170" fill="#0f172a"/><text x="282" y="168" font-family="monospace" font-size="10" fill="#0f172a">yes</text><metadata data-activity-kind="Action" data-activity-lane="default" data-activity-branch="0"/><rect x="26" y="226" width="160" height="36" rx="18" ry="18" fill="#ecfdf5" stroke="#047857" stroke-width="1.5"/><text x="106" y="249" text-anchor="middle" font-family="monospace" font-size="12" fill="#0f172a">Reserve Inventory</text><metadata data-activity-kind="ForkAgain" data-activity-lane="default" data-activity-branch="1"/><metadata data-activity-kind="Action" data-activity-lane="default" data-activity-branch="1"/><rect x="366" y="226" width="160" height="36" rx="18" ry="18" fill="#ecfdf5" stroke="#047857" stroke-width="1.5"/><text x="446" y="249" text-anchor="middle" font-family="monospace" font-size="12" fill="#0f172a">Charge Payment</text><metadata data-activity-kind="EndFork" data-activity-lane="default" data-activity-branch="0"/><rect x="34" y="290" width="484" height="8" fill="#0f172a"/><metadata data-activity-kind="IfStart" data-activity-lane="default" data-activity-branch="0"/><polygon points="276,312 376,334 276,356 176,334" fill="#fef9c3" stroke="#047857" stroke-width="1.5"/><text x="276" y="338" text-anchor="middle" font-family="monospace" font-size="11" fill="#0f172a">Payment OK?</text><polyline points="276,308 276,310" fill="none" stroke="#0f172a" stroke-width="1.5"/><polygon points="276,310 272,302 280,302" fill="#0f172a"/><metadata data-activity-kind="Action" data-activity-lane="default" data-activity-branch="0"/><rect x="116" y="358" width="160" height="36" rx="18" ry="18" fill="#ecfdf5" stroke="#047857" stroke-width="1.5"/><text x="196" y="381" text-anchor="middle" font-family="monospace" font-size="12" fill="#0f172a">Pack Order</text><polyline points="176,334 176,344 196,344 196,354" fill="none" stroke="#0f172a" stroke-width="1.5"/><polygon points="196,354 192,346 200,346" fill="#0f172a"/><text x="202" y="344" font-family="monospace" font-size="10" fill="#0f172a">yes</text><metadata data-activity-kind="Action" data-activity-lane="default" data-activity-branch="0"/><rect x="116" y="402" width="160" height="36" rx="18" ry="18" fill="#ecfdf5" stroke="#047857" stroke-width="1.5"/><text x="196" y="425" text-anchor="middle" font-family="monospace" font-size="12" fill="#0f172a">Ship Order</text><polyline points="196,396 196,398" fill="none" stroke="#0f172a" stroke-width="1.5"/><polygon points="196,398 192,390 200,390" fill="#0f172a"/><metadata data-activity-kind="Action" data-activity-lane="default" data-activity-branch="0"/><rect x="116" y="446" width="160" height="36" rx="18" ry="18" fill="#ecfdf5" stroke="#047857" stroke-width="1.5"/><text x="196" y="469" text-anchor="middle" font-family="monospace" font-size="12" fill="#0f172a">Send Confirmation</text><polyline points="196,440 196,442" fill="none" stroke="#0f172a" stroke-width="1.5"/><polygon points="196,442 192,434 200,434" fill="#0f172a"/><metadata data-activity-kind="Else" data-activity-lane="default" data-activity-branch="0"/><metadata data-activity-kind="Action" data-activity-lane="default" data-activity-branch="0"/><rect x="276" y="402" width="160" height="36" rx="18" ry="18" fill="#ecfdf5" stroke="#047857" stroke-width="1.5"/><text x="356" y="425" text-anchor="middle" font-family="monospace" font-size="12" fill="#0f172a">Release Inventory</text><polyline points="276,352 276,375 356,375 356,398" fill="none" stroke="#0f172a" stroke-width="1.5"/><polygon points="356,398 352,390 360,390" fill="#0f172a"/><text x="362" y="375" font-family="monospace" font-size="10" fill="#0f172a">no</text><metadata data-activity-kind="Action" data-activity-lane="default" data-activity-branch="0"/><rect x="276" y="446" width="160" height="36" rx="18" ry="18" fill="#ecfdf5" stroke="#047857" stroke-width="1.5"/><text x="356" y="469" text-anchor="middle" font-family="monospace" font-size="12" fill="#0f172a">Notify Customer</text><polyline points="356,440 356,442" fill="none" stroke="#0f172a" stroke-width="1.5"/><polygon points="356,442 352,434 360,434" fill="#0f172a"/><metadata data-activity-kind="EndIf" data-activity-lane="default" data-activity-branch="0"/><metadata data-activity-kind="Else" data-activity-lane="default" data-activity-branch="0"/><metadata data-activity-kind="Action" data-activity-lane="default" data-activity-branch="0"/><rect x="446" y="226" width="160" height="36" rx="18" ry="18" fill="#ecfdf5" stroke="#047857" stroke-width="1.5"/><text x="526" y="249" text-anchor="middle" font-family="monospace" font-size="12" fill="#0f172a">Notify Out of Stock</text><polyline points="196,484 448,484 448,353 526,353 526,222" fill="none" stroke="#0f172a" stroke-width="1.5"/><polygon points="526,222 522,230 530,230" fill="#0f172a"/><polyline points="356,484 448,484 448,353 526,353 526,222" fill="none" stroke="#0f172a" stroke-width="1.5"/><polygon points="526,222 522,230 530,230" fill="#0f172a"/><polyline points="356,176 356,199 526,199 526,222" fill="none" stroke="#0f172a" stroke-width="1.5"/><polygon points="526,222 522,214 530,214" fill="#0f172a"/><text x="532" y="199" font-family="monospace" font-size="10" fill="#0f172a">no</text><metadata data-activity-kind="EndIf" data-activity-lane="default" data-activity-branch="0"/><metadata data-activity-kind="Stop" data-activity-lane="default" data-activity-branch="0"/><circle cx="356" cy="594" r="14" fill="white" stroke="#0f172a" stroke-width="1.5"/><circle cx="356" cy="594" r="7" fill="#0f172a"/><polyline points="526,264 526,436 356,436 356,574" fill="none" stroke="#0f172a" stroke-width="1.5"/><polygon points="356,574 352,566 360,566" fill="#0f172a"/><polyline points="106,264 106,290" fill="none" stroke="#0f172a" stroke-width="1.5"/><polygon points="106,290 102,282 110,282" fill="#0f172a"/><polyline points="446,264 446,290" fill="none" stroke="#0f172a" stroke-width="1.5"/><polygon points="446,290 442,282 450,282" fill="#0f172a"/><polyline points="106,210 106,222" fill="none" stroke="#0f172a" stroke-width="1.5"/><polygon points="106,222 102,214 110,214" fill="#0f172a"/><polyline points="446,210 446,222" fill="none" stroke="#0f172a" stroke-width="1.5"/><polygon points="446,222 442,214 450,214" fill="#0f172a"/></svg>