<svg xmlns="http://www.w3.org/2000/svg" width="728" height="658" viewBox="0 0 728 658"><rect width="100%" height="100%" fill="#ecfdf5"/><text x="32" y="22" font-family="monospace" font-size="16" font-weight="600" fill="#0f172a">Order Processing Flow</text><metadata data-activity-kind="Start" data-activity-lane="default" data-activity-branch="0"/><circle cx="356" cy="66" r="12" fill="#0f172a"/><metadata data-activity-kind="Action" data-activity-lane="default" data-activity-branch="0"/><rect x="276" y="94" width="160" height="36" rx="18" ry="18" fill="#ecfdf5" stroke="#047857" stroke-width="1.5"/><text x="356" y="117" text-anchor="middle" font-family="monospace" font-size="12" fill="#0f172a">Receive Order</text><line x1="356" y1="88" x2="356" y2="90" stroke="#0f172a" stroke-width="1.5"/><polygon points="356,90 352,82 360,82" fill="#0f172a"/><metadata data-activity-kind="IfStart" data-activity-lane="default" data-activity-branch="0"/><polygon points="356,136 456,158 356,180 256,158" fill="#fef9c3" stroke="#047857" stroke-width="1.5"/><text x="356" y="162" text-anchor="middle" font-family="monospace" font-size="11" fill="#0f172a">In Stock?</text><line x1="356" y1="132" x2="356" y2="134" stroke="#0f172a" stroke-width="1.5"/><polygon points="356,134 352,126 360,126" fill="#0f172a"/><metadata data-activity-kind="Fork" data-activity-lane="default" data-activity-branch="0"/><rect x="26" y="202" width="500" height="8" fill="#0f172a"/><line x1="256" y1="158" x2="256" y2="168" stroke="#0f172a" stroke-width="1.5"/><line x1="256" y1="168" x2="276" y2="168" stroke="#0f172a" stroke-width="1.5"/><line x1="276" y1="168" x2="276" y2="178" stroke="#0f172a" stroke-width="1.5"/><polygon points="276,178 272,170 280,170" fill="#0f172a"/><text x="270" y="164" font-family="monospace" font-size="10" fill="#0f172a">no</text><metadata data-activity-kind="Action" data-activity-lane="default" data-activity-branch="0"/><rect x="26" y="226" width="160" height="36" rx="18" ry="18" fill="#ecfdf5" stroke="#047857" stroke-width="1.5"/><text x="106" y="249" text-anchor="middle" font-family="monospace" font-size="12" fill="#0f172a">Reserve Inventory</text><metadata data-activity-kind="ForkAgain" data-activity-lane="default" data-activity-branch="1"/><metadata data-activity-kind="Action" data-activity-lane="default" data-activity-branch="1"/><rect x="366" y="226" width="160" height="36" rx="18" ry="18" fill="#ecfdf5" stroke="#047857" stroke-width="1.5"/><text x="446" y="249" text-anchor="middle" font-family="monospace" font-size="12" fill="#0f172a">Charge Payment</text><metadata data-activity-kind="EndFork" data-activity-lane="default" data-activity-branch="0"/><rect x="26" y="290" width="500" height="8" fill="#0f172a"/><metadata data-activity-kind="IfStart" data-activity-lane="default" data-activity-branch="0"/><polygon points="276,312 376,334 276,356 176,334" fill="#fef9c3" stroke="#047857" stroke-width="1.5"/><text x="276" y="338" text-anchor="middle" font-family="monospace" font-size="11" fill="#0f172a">Payment OK?</text><line x1="276" y1="308" x2="276" y2="310" stroke="#0f172a" stroke-width="1.5"/><polygon points="276,310 272,302 280,302" fill="#0f172a"/><metadata data-activity-kind="Action" data-activity-lane="default" data-activity-branch="0"/><rect x="116" y="358" width="160" height="36" rx="18" ry="18" fill="#ecfdf5" stroke="#047857" stroke-width="1.5"/><text x="196" y="381" text-anchor="middle" font-family="monospace" font-size="12" fill="#0f172a">Pack Order</text><line x1="176" y1="334" x2="176" y2="344" stroke="#0f172a" stroke-width="1.5"/><line x1="176" y1="344" x2="196" y2="344" stroke="#0f172a" stroke-width="1.5"/><line x1="196" y1="344" x2="196" y2="354" stroke="#0f172a" stroke-width="1.5"/><polygon points="196,354 192,346 200,346" fill="#0f172a"/><text x="190" y="340" font-family="monospace" font-size="10" fill="#0f172a">no</text><metadata data-activity-kind="Action" data-activity-lane="default" data-activity-branch="0"/><rect x="116" y="402" width="160" height="36" rx="18" ry="18" fill="#ecfdf5" stroke="#047857" stroke-width="1.5"/><text x="196" y="425" text-anchor="middle" font-family="monospace" font-size="12" fill="#0f172a">Ship Order</text><line x1="196" y1="396" x2="196" y2="398" stroke="#0f172a" stroke-width="1.5"/><polygon points="196,398 192,390 200,390" fill="#0f172a"/><metadata data-activity-kind="Action" data-activity-lane="default" data-activity-branch="0"/><rect x="116" y="446" width="160" height="36" rx="18" ry="18" fill="#ecfdf5" stroke="#047857" stroke-width="1.5"/><text x="196" y="469" text-anchor="middle" font-family="monospace" font-size="12" fill="#0f172a">Send Confirmation</text><line x1="196" y1="440" x2="196" y2="442" stroke="#0f172a" stroke-width="1.5"/><polygon points="196,442 192,434 200,434" fill="#0f172a"/><metadata data-activity-kind="Else" data-activity-lane="default" data-activity-branch="0"/><metadata data-activity-kind="Action" data-activity-lane="default" data-activity-branch="0"/><rect x="276" y="402" width="160" height="36" rx="18" ry="18" fill="#ecfdf5" stroke="#047857" stroke-width="1.5"/><text x="356" y="425" text-anchor="middle" font-family="monospace" font-size="12" fill="#0f172a">Release Inventory</text><line x1="276" y1="352" x2="276" y2="375" stroke="#0f172a" stroke-width="1.5"/><line x1="276" y1="375" x2="356" y2="375" stroke="#0f172a" stroke-width="1.5"/><line x1="356" y1="375" x2="356" y2="398" stroke="#0f172a" stroke-width="1.5"/><polygon points="356,398 352,390 360,390" fill="#0f172a"/><text x="320" y="371" font-family="monospace" font-size="10" fill="#0f172a">yes</text><metadata data-activity-kind="Action" data-activity-lane="default" data-activity-branch="0"/><rect x="276" y="446" width="160" height="36" rx="18" ry="18" fill="#ecfdf5" stroke="#047857" stroke-width="1.5"/><text x="356" y="469" text-anchor="middle" font-family="monospace" font-size="12" fill="#0f172a">Notify Customer</text><line x1="356" y1="440" x2="356" y2="442" stroke="#0f172a" stroke-width="1.5"/><polygon points="356,442 352,434 360,434" fill="#0f172a"/><metadata data-activity-kind="EndIf" data-activity-lane="default" data-activity-branch="0"/><metadata data-activity-kind="Else" data-activity-lane="default" data-activity-branch="0"/><metadata data-activity-kind="Action" data-activity-lane="default" data-activity-branch="0"/><rect x="446" y="226" width="160" height="36" rx="18" ry="18" fill="#ecfdf5" stroke="#047857" stroke-width="1.5"/><text x="526" y="249" text-anchor="middle" font-family="monospace" font-size="12" fill="#0f172a">Notify Out of Stock</text><line x1="196" y1="484" x2="448" y2="484" stroke="#0f172a" stroke-width="1.5"/><line x1="448" y1="484" x2="448" y2="353" stroke="#0f172a" stroke-width="1.5"/><line x1="448" y1="353" x2="526" y2="353" stroke="#0f172a" stroke-width="1.5"/><line x1="526" y1="353" x2="526" y2="222" stroke="#0f172a" stroke-width="1.5"/><polygon points="526,222 522,230 530,230" fill="#0f172a"/><line x1="356" y1="484" x2="448" y2="484" stroke="#0f172a" stroke-width="1.5"/><line x1="448" y1="484" x2="448" y2="353" stroke="#0f172a" stroke-width="1.5"/><line x1="448" y1="353" x2="526" y2="353" stroke="#0f172a" stroke-width="1.5"/><line x1="526" y1="353" x2="526" y2="222" stroke="#0f172a" stroke-width="1.5"/><polygon points="526,222 522,230 530,230" fill="#0f172a"/><line x1="356" y1="176" x2="356" y2="199" stroke="#0f172a" stroke-width="1.5"/><line x1="356" y1="199" x2="526" y2="199" stroke="#0f172a" stroke-width="1.5"/><line x1="526" y1="199" x2="526" y2="222" stroke="#0f172a" stroke-width="1.5"/><polygon points="526,222 522,214 530,214" fill="#0f172a"/><text x="445" y="195" font-family="monospace" font-size="10" fill="#0f172a">yes</text><metadata data-activity-kind="EndIf" data-activity-lane="default" data-activity-branch="0"/><metadata data-activity-kind="Stop" data-activity-lane="default" data-activity-branch="0"/><circle cx="356" cy="594" r="14" fill="white" stroke="#0f172a" stroke-width="1.5"/><circle cx="356" cy="594" r="7" fill="#0f172a"/><line x1="526" y1="264" x2="526" y2="436" stroke="#0f172a" stroke-width="1.5"/><line x1="526" y1="436" x2="356" y2="436" stroke="#0f172a" stroke-width="1.5"/><line x1="356" y1="436" x2="356" y2="574" stroke="#0f172a" stroke-width="1.5"/><polygon points="356,574 352,566 360,566" fill="#0f172a"/><line x1="106" y1="264" x2="106" y2="290" stroke="#0f172a" stroke-width="1.5"/><polygon points="106,290 102,282 110,282" fill="#0f172a"/><line x1="446" y1="264" x2="446" y2="290" stroke="#0f172a" stroke-width="1.5"/><polygon points="446,290 442,282 450,282" fill="#0f172a"/><line x1="106" y1="210" x2="106" y2="222" stroke="#0f172a" stroke-width="1.5"/><polygon points="106,222 102,214 110,214" fill="#0f172a"/><line x1="446" y1="210" x2="446" y2="222" stroke="#0f172a" stroke-width="1.5"/><polygon points="446,222 442,214 450,214" fill="#0f172a"/></svg>