<svg xmlns="http://www.w3.org/2000/svg" width="800" height="782" viewBox="0 0 800 782"><rect width="100%" height="100%" fill="#ecfdf5"/><text x="32" y="28" font-family="monospace" font-size="18" font-weight="600" fill="#0f172a">Error Handling Flow</text><text x="32" y="52" font-family="monospace" font-size="12" fill="#0f172a">activity diagram</text><rect x="32" y="62" width="736" height="700" fill="#ecfdf5" stroke="#cbd5e1" stroke-width="1" stroke-dasharray="4 3"/><metadata data-activity-kind="Start" data-activity-lane="default" data-activity-branch="0"/><circle cx="400" cy="82" r="12" fill="#0f172a"/><metadata data-activity-kind="Action" data-activity-lane="default" data-activity-branch="0"/><rect x="290" y="126" width="220" height="36" rx="18" ry="18" fill="#ecfdf5" stroke="#047857" stroke-width="1.5"/><text x="400" y="149" text-anchor="middle" font-family="monospace" font-size="12" fill="#0f172a">Start Operation</text><line x1="400" y1="104" x2="400" y2="122" stroke="#0f172a" stroke-width="1.5"/><polygon points="400,122 396,114 404,114" fill="#0f172a"/><metadata data-activity-kind="RepeatStart" data-activity-lane="default" data-activity-branch="0"/><line x1="400" y1="584" x2="522" y2="584" stroke="#0f172a" stroke-width="1.5"/><line x1="522" y1="584" x2="522" y2="182" stroke="#0f172a" stroke-width="1.5"/><line x1="522" y1="182" x2="400" y2="182" stroke="#0f172a" stroke-width="1.5"/><polygon points="400,182 396,190 404,190" fill="#0f172a"/><metadata data-activity-kind="Action" data-activity-lane="default" data-activity-branch="0"/><rect x="290" y="186" width="220" height="36" rx="18" ry="18" fill="#ecfdf5" stroke="#047857" stroke-width="1.5"/><text x="400" y="209" text-anchor="middle" font-family="monospace" font-size="12" fill="#0f172a">Try Action</text><line x1="400" y1="164" x2="400" y2="182" stroke="#0f172a" stroke-width="1.5"/><polygon points="400,182 396,174 404,174" fill="#0f172a"/><line x1="400" y1="584" x2="522" y2="584" stroke="#0f172a" stroke-width="1.5"/><line x1="522" y1="584" x2="522" y2="182" stroke="#0f172a" stroke-width="1.5"/><line x1="522" y1="182" x2="400" y2="182" stroke="#0f172a" stroke-width="1.5"/><polygon points="400,182 396,190 404,190" fill="#0f172a"/><metadata data-activity-kind="IfStart" data-activity-lane="default" data-activity-branch="0"/><polygon points="400,244 500,266 400,288 300,266" fill="#fef9c3" stroke="#047857" stroke-width="1.5"/><text x="400" y="270" text-anchor="middle" font-family="monospace" font-size="11" fill="#0f172a">Success?</text><line x1="400" y1="224" x2="400" y2="242" stroke="#0f172a" stroke-width="1.5"/><polygon points="400,242 396,234 404,234" fill="#0f172a"/><metadata data-activity-kind="Action" data-activity-lane="default" data-activity-branch="0"/><rect x="130" y="306" width="220" height="36" rx="18" ry="18" fill="#ecfdf5" stroke="#047857" stroke-width="1.5"/><text x="240" y="329" text-anchor="middle" font-family="monospace" font-size="12" fill="#0f172a">Complete</text><line x1="300" y1="266" x2="300" y2="284" stroke="#0f172a" stroke-width="1.5"/><line x1="300" y1="284" x2="240" y2="284" stroke="#0f172a" stroke-width="1.5"/><line x1="240" y1="284" x2="240" y2="302" stroke="#0f172a" stroke-width="1.5"/><polygon points="240,302 236,294 244,294" fill="#0f172a"/><text x="274" y="280" font-family="monospace" font-size="10" fill="#0f172a">no</text><metadata data-activity-kind="Stop" data-activity-lane="default" data-activity-branch="0"/><circle cx="240" cy="382" r="14" fill="white" stroke="#0f172a" stroke-width="1.5"/><circle cx="240" cy="382" r="7" fill="#0f172a"/><line x1="240" y1="344" x2="240" y2="362" stroke="#0f172a" stroke-width="1.5"/><polygon points="240,362 236,354 244,354" fill="#0f172a"/><metadata data-activity-kind="Else" data-activity-lane="default" data-activity-branch="0"/><metadata data-activity-kind="Action" data-activity-lane="default" data-activity-branch="0"/><rect x="450" y="366" width="220" height="36" rx="18" ry="18" fill="#ecfdf5" stroke="#047857" stroke-width="1.5"/><text x="560" y="389" text-anchor="middle" font-family="monospace" font-size="12" fill="#0f172a">Log Error</text><line x1="400" y1="284" x2="400" y2="323" stroke="#0f172a" stroke-width="1.5"/><line x1="400" y1="323" x2="560" y2="323" stroke="#0f172a" stroke-width="1.5"/><line x1="560" y1="323" x2="560" y2="362" stroke="#0f172a" stroke-width="1.5"/><polygon points="560,362 556,354 564,354" fill="#0f172a"/><text x="484" y="319" font-family="monospace" font-size="10" fill="#0f172a">yes</text><metadata data-activity-kind="Action" data-activity-lane="default" data-activity-branch="0"/><rect x="450" y="426" width="220" height="36" rx="18" ry="18" fill="#ecfdf5" stroke="#047857" stroke-width="1.5"/><text x="560" y="449" text-anchor="middle" font-family="monospace" font-size="12" fill="#0f172a">Increment Retry</text><line x1="560" y1="404" x2="560" y2="422" stroke="#0f172a" stroke-width="1.5"/><polygon points="560,422 556,414 564,414" fill="#0f172a"/><metadata data-activity-kind="EndIf" data-activity-lane="default" data-activity-branch="0"/><metadata data-activity-kind="RepeatWhile" data-activity-lane="default" data-activity-branch="0"/><polygon points="400,544 500,566 400,588 300,566" fill="#fef9c3" stroke="#047857" stroke-width="1.5"/><text x="400" y="570" text-anchor="middle" font-family="monospace" font-size="11" fill="#0f172a">retry &lt; 3?</text><line x1="240" y1="404" x2="240" y2="473" stroke="#0f172a" stroke-width="1.5"/><line x1="240" y1="473" x2="400" y2="473" stroke="#0f172a" stroke-width="1.5"/><line x1="400" y1="473" x2="400" y2="542" stroke="#0f172a" stroke-width="1.5"/><polygon points="400,542 396,534 404,534" fill="#0f172a"/><line x1="560" y1="464" x2="560" y2="503" stroke="#0f172a" stroke-width="1.5"/><line x1="560" y1="503" x2="400" y2="503" stroke="#0f172a" stroke-width="1.5"/><line x1="400" y1="503" x2="400" y2="542" stroke="#0f172a" stroke-width="1.5"/><polygon points="400,542 396,534 404,534" fill="#0f172a"/><metadata data-activity-kind="Action" data-activity-lane="default" data-activity-branch="0"/><rect x="290" y="606" width="220" height="36" rx="18" ry="18" fill="#ecfdf5" stroke="#047857" stroke-width="1.5"/><text x="400" y="629" text-anchor="middle" font-family="monospace" font-size="12" fill="#0f172a">Fatal Error</text><line x1="400" y1="584" x2="400" y2="602" stroke="#0f172a" stroke-width="1.5"/><polygon points="400,602 396,594 404,594" fill="#0f172a"/><metadata data-activity-kind="Stop" data-activity-lane="default" data-activity-branch="0"/><circle cx="400" cy="682" r="14" fill="white" stroke="#0f172a" stroke-width="1.5"/><circle cx="400" cy="682" r="7" fill="#0f172a"/><line x1="400" y1="644" x2="400" y2="662" stroke="#0f172a" stroke-width="1.5"/><polygon points="400,662 396,654 404,654" fill="#0f172a"/></svg>