<svg xmlns="http://www.w3.org/2000/svg" width="408" height="570" viewBox="0 0 408 570"><rect width="100%" height="100%" fill="#ecfdf5"/><text x="32" y="22" font-family="monospace" font-size="16" font-weight="600" fill="#0f172a">Error Handling Flow</text><metadata data-activity-kind="Start" data-activity-lane="default" data-activity-branch="0"/><circle cx="196" cy="66" r="12" fill="#0f172a"/><metadata data-activity-kind="Action" data-activity-lane="default" data-activity-branch="0"/><rect x="116" y="94" width="160" height="36" rx="18" ry="18" fill="#ecfdf5" stroke="#047857" stroke-width="1.5"/><text x="196" y="117" text-anchor="middle" font-family="monospace" font-size="12" fill="#0f172a">Start Operation</text><polyline points="196,88 196,90" fill="none" stroke="#0f172a" stroke-width="1.5"/><polygon points="196,90 192,82 200,82" fill="#0f172a"/><metadata data-activity-kind="RepeatStart" data-activity-lane="default" data-activity-branch="0"/><polyline points="196,440 368,440 368,134 196,134" fill="none" stroke="#0f172a" stroke-width="1.5"/><polygon points="196,134 192,126 200,126" fill="#0f172a"/><text x="374" y="134" font-family="monospace" font-size="10" fill="#0f172a">yes</text><metadata data-activity-kind="Action" data-activity-lane="default" data-activity-branch="0"/><rect x="116" y="138" width="160" height="36" rx="18" ry="18" fill="#ecfdf5" stroke="#047857" stroke-width="1.5"/><text x="196" y="161" text-anchor="middle" font-family="monospace" font-size="12" fill="#0f172a">Try Action</text><polyline points="196,132 196,134" fill="none" stroke="#0f172a" stroke-width="1.5"/><polygon points="196,134 192,126 200,126" fill="#0f172a"/><polyline points="196,440 368,440 368,134 196,134" fill="none" stroke="#0f172a" stroke-width="1.5"/><polygon points="196,134 192,126 200,126" fill="#0f172a"/><text x="374" y="134" font-family="monospace" font-size="10" fill="#0f172a">yes</text><metadata data-activity-kind="IfStart" data-activity-lane="default" data-activity-branch="0"/><polygon points="196,180 296,202 196,224 96,202" fill="#fef9c3" stroke="#047857" stroke-width="1.5"/><text x="196" y="206" text-anchor="middle" font-family="monospace" font-size="11" fill="#0f172a">Success?</text><polyline points="196,176 196,178" fill="none" stroke="#0f172a" stroke-width="1.5"/><polygon points="196,178 192,170 200,170" fill="#0f172a"/><metadata data-activity-kind="Action" data-activity-lane="default" data-activity-branch="0"/><rect x="36" y="226" width="160" height="36" rx="18" ry="18" fill="#ecfdf5" stroke="#047857" stroke-width="1.5"/><text x="116" y="249" text-anchor="middle" font-family="monospace" font-size="12" fill="#0f172a">Complete</text><polyline points="96,202 96,212 116,212 116,222" fill="none" stroke="#0f172a" stroke-width="1.5"/><polygon points="116,222 112,214 120,214" fill="#0f172a"/><text x="122" y="212" font-family="monospace" font-size="10" fill="#0f172a">yes</text><metadata data-activity-kind="Stop" data-activity-lane="default" data-activity-branch="0"/><circle cx="116" cy="286" r="14" fill="white" stroke="#0f172a" stroke-width="1.5"/><circle cx="116" cy="286" r="7" fill="#0f172a"/><polyline points="116,264 116,266" fill="none" stroke="#0f172a" stroke-width="1.5"/><polygon points="116,266 112,258 120,258" fill="#0f172a"/><metadata data-activity-kind="Else" data-activity-lane="default" data-activity-branch="0"/><metadata data-activity-kind="Action" data-activity-lane="default" data-activity-branch="0"/><rect x="196" y="270" width="160" height="36" rx="18" ry="18" fill="#ecfdf5" stroke="#047857" stroke-width="1.5"/><text x="276" y="293" text-anchor="middle" font-family="monospace" font-size="12" fill="#0f172a">Log Error</text><polyline points="196,220 196,243 276,243 276,266" fill="none" stroke="#0f172a" stroke-width="1.5"/><polygon points="276,266 272,258 280,258" fill="#0f172a"/><text x="282" y="243" font-family="monospace" font-size="10" fill="#0f172a">no</text><metadata data-activity-kind="Action" data-activity-lane="default" data-activity-branch="0"/><rect x="196" y="314" width="160" height="36" rx="18" ry="18" fill="#ecfdf5" stroke="#047857" stroke-width="1.5"/><text x="276" y="337" text-anchor="middle" font-family="monospace" font-size="12" fill="#0f172a">Increment Retry</text><polyline points="276,308 276,310" fill="none" stroke="#0f172a" stroke-width="1.5"/><polygon points="276,310 272,302 280,302" fill="#0f172a"/><metadata data-activity-kind="EndIf" data-activity-lane="default" data-activity-branch="0"/><metadata data-activity-kind="RepeatWhile" data-activity-lane="default" data-activity-branch="0"/><polygon points="196,400 296,422 196,444 96,422" fill="#fef9c3" stroke="#047857" stroke-width="1.5"/><text x="196" y="426" text-anchor="middle" font-family="monospace" font-size="11" fill="#0f172a">retry &lt; 3?</text><polyline points="116,308 116,353 196,353 196,398" fill="none" stroke="#0f172a" stroke-width="1.5"/><polygon points="196,398 192,390 200,390" fill="#0f172a"/><polyline points="276,352 276,375 196,375 196,398" fill="none" stroke="#0f172a" stroke-width="1.5"/><polygon points="196,398 192,390 200,390" fill="#0f172a"/><metadata data-activity-kind="Action" data-activity-lane="default" data-activity-branch="0"/><rect x="116" y="446" width="160" height="36" rx="18" ry="18" fill="#ecfdf5" stroke="#047857" stroke-width="1.5"/><text x="196" y="469" text-anchor="middle" font-family="monospace" font-size="12" fill="#0f172a">Fatal Error</text><polyline points="196,440 196,442" fill="none" stroke="#0f172a" stroke-width="1.5"/><polygon points="196,442 192,434 200,434" fill="#0f172a"/><metadata data-activity-kind="Stop" data-activity-lane="default" data-activity-branch="0"/><circle cx="196" cy="506" r="14" fill="white" stroke="#0f172a" stroke-width="1.5"/><circle cx="196" cy="506" r="7" fill="#0f172a"/><polyline points="196,484 196,486" fill="none" stroke="#0f172a" stroke-width="1.5"/><polygon points="196,486 192,478 200,478" fill="#0f172a"/></svg>