<svg xmlns="http://www.w3.org/2000/svg" width="408" height="570" viewBox="0 0 408 570"><rect width="100%" height="100%" fill="#ecfdf5"/><text x="32" y="22" font-family="monospace" font-size="16" font-weight="600" fill="#0f172a">Error Handling Flow</text><metadata data-activity-kind="Start" data-activity-lane="default" data-activity-branch="0"/><circle cx="196" cy="66" r="12" fill="#0f172a"/><metadata data-activity-kind="Action" data-activity-lane="default" data-activity-branch="0"/><rect x="116" y="94" width="160" height="36" rx="18" ry="18" fill="#ecfdf5" stroke="#047857" stroke-width="1.5"/><text x="196" y="117" text-anchor="middle" font-family="monospace" font-size="12" fill="#0f172a">Start Operation</text><line x1="196" y1="88" x2="196" y2="90" stroke="#0f172a" stroke-width="1.5"/><polygon points="196,90 192,82 200,82" fill="#0f172a"/><metadata data-activity-kind="RepeatStart" data-activity-lane="default" data-activity-branch="0"/><path d="M 196 440 L 206 440 Q 368 440 368 430" fill="none" stroke="#0f172a" stroke-width="1.5"/><line x1="368" y1="430" x2="368" y2="144" stroke="#0f172a" stroke-width="1.5"/><path d="M 368 144 Q 368 134 206 134 L 196 134" fill="none" stroke="#0f172a" stroke-width="1.5"/><polygon points="196,134 192,142 200,142" fill="#0f172a"/><text x="374" y="287" font-family="monospace" font-size="10" fill="#0f172a">yes</text><metadata data-activity-kind="Action" data-activity-lane="default" data-activity-branch="0"/><rect x="116" y="138" width="160" height="36" rx="18" ry="18" fill="#ecfdf5" stroke="#047857" stroke-width="1.5"/><text x="196" y="161" text-anchor="middle" font-family="monospace" font-size="12" fill="#0f172a">Try Action</text><line x1="196" y1="132" x2="196" y2="134" stroke="#0f172a" stroke-width="1.5"/><polygon points="196,134 192,126 200,126" fill="#0f172a"/><path d="M 196 440 L 206 440 Q 368 440 368 430" fill="none" stroke="#0f172a" stroke-width="1.5"/><line x1="368" y1="430" x2="368" y2="144" stroke="#0f172a" stroke-width="1.5"/><path d="M 368 144 Q 368 134 206 134 L 196 134" fill="none" stroke="#0f172a" stroke-width="1.5"/><polygon points="196,134 192,142 200,142" fill="#0f172a"/><text x="374" y="287" font-family="monospace" font-size="10" fill="#0f172a">yes</text><metadata data-activity-kind="IfStart" data-activity-lane="default" data-activity-branch="0"/><polygon points="196,180 296,202 196,224 96,202" fill="#fef9c3" stroke="#047857" stroke-width="1.5"/><text x="196" y="206" text-anchor="middle" font-family="monospace" font-size="11" fill="#0f172a">Success?</text><line x1="196" y1="176" x2="196" y2="178" stroke="#0f172a" stroke-width="1.5"/><polygon points="196,178 192,170 200,170" fill="#0f172a"/><metadata data-activity-kind="Action" data-activity-lane="default" data-activity-branch="0"/><rect x="36" y="226" width="160" height="36" rx="18" ry="18" fill="#ecfdf5" stroke="#047857" stroke-width="1.5"/><text x="116" y="249" text-anchor="middle" font-family="monospace" font-size="12" fill="#0f172a">Complete</text><line x1="96" y1="202" x2="96" y2="212" stroke="#0f172a" stroke-width="1.5"/><line x1="96" y1="212" x2="116" y2="212" stroke="#0f172a" stroke-width="1.5"/><line x1="116" y1="212" x2="116" y2="222" stroke="#0f172a" stroke-width="1.5"/><polygon points="116,222 112,214 120,214" fill="#0f172a"/><text x="110" y="208" font-family="monospace" font-size="10" fill="#0f172a">no</text><metadata data-activity-kind="Stop" data-activity-lane="default" data-activity-branch="0"/><circle cx="116" cy="286" r="14" fill="white" stroke="#0f172a" stroke-width="1.5"/><circle cx="116" cy="286" r="7" fill="#0f172a"/><line x1="116" y1="264" x2="116" y2="266" stroke="#0f172a" stroke-width="1.5"/><polygon points="116,266 112,258 120,258" fill="#0f172a"/><metadata data-activity-kind="Else" data-activity-lane="default" data-activity-branch="0"/><metadata data-activity-kind="Action" data-activity-lane="default" data-activity-branch="0"/><rect x="196" y="270" width="160" height="36" rx="18" ry="18" fill="#ecfdf5" stroke="#047857" stroke-width="1.5"/><text x="276" y="293" text-anchor="middle" font-family="monospace" font-size="12" fill="#0f172a">Log Error</text><line x1="196" y1="220" x2="196" y2="243" stroke="#0f172a" stroke-width="1.5"/><line x1="196" y1="243" x2="276" y2="243" stroke="#0f172a" stroke-width="1.5"/><line x1="276" y1="243" x2="276" y2="266" stroke="#0f172a" stroke-width="1.5"/><polygon points="276,266 272,258 280,258" fill="#0f172a"/><text x="240" y="239" font-family="monospace" font-size="10" fill="#0f172a">yes</text><metadata data-activity-kind="Action" data-activity-lane="default" data-activity-branch="0"/><rect x="196" y="314" width="160" height="36" rx="18" ry="18" fill="#ecfdf5" stroke="#047857" stroke-width="1.5"/><text x="276" y="337" text-anchor="middle" font-family="monospace" font-size="12" fill="#0f172a">Increment Retry</text><line x1="276" y1="308" x2="276" y2="310" stroke="#0f172a" stroke-width="1.5"/><polygon points="276,310 272,302 280,302" fill="#0f172a"/><metadata data-activity-kind="EndIf" data-activity-lane="default" data-activity-branch="0"/><metadata data-activity-kind="RepeatWhile" data-activity-lane="default" data-activity-branch="0"/><polygon points="196,400 296,422 196,444 96,422" fill="#fef9c3" stroke="#047857" stroke-width="1.5"/><text x="196" y="426" text-anchor="middle" font-family="monospace" font-size="11" fill="#0f172a">retry &lt; 3?</text><line x1="116" y1="308" x2="116" y2="353" stroke="#0f172a" stroke-width="1.5"/><line x1="116" y1="353" x2="196" y2="353" stroke="#0f172a" stroke-width="1.5"/><line x1="196" y1="353" x2="196" y2="398" stroke="#0f172a" stroke-width="1.5"/><polygon points="196,398 192,390 200,390" fill="#0f172a"/><line x1="276" y1="352" x2="276" y2="375" stroke="#0f172a" stroke-width="1.5"/><line x1="276" y1="375" x2="196" y2="375" stroke="#0f172a" stroke-width="1.5"/><line x1="196" y1="375" x2="196" y2="398" stroke="#0f172a" stroke-width="1.5"/><polygon points="196,398 192,390 200,390" fill="#0f172a"/><metadata data-activity-kind="Action" data-activity-lane="default" data-activity-branch="0"/><rect x="116" y="446" width="160" height="36" rx="18" ry="18" fill="#ecfdf5" stroke="#047857" stroke-width="1.5"/><text x="196" y="469" text-anchor="middle" font-family="monospace" font-size="12" fill="#0f172a">Fatal Error</text><line x1="196" y1="440" x2="196" y2="442" stroke="#0f172a" stroke-width="1.5"/><polygon points="196,442 192,434 200,434" fill="#0f172a"/><metadata data-activity-kind="Stop" data-activity-lane="default" data-activity-branch="0"/><circle cx="196" cy="506" r="14" fill="white" stroke="#0f172a" stroke-width="1.5"/><circle cx="196" cy="506" r="7" fill="#0f172a"/><line x1="196" y1="484" x2="196" y2="486" stroke="#0f172a" stroke-width="1.5"/><polygon points="196,486 192,478 200,478" fill="#0f172a"/></svg>