<svg xmlns="http://www.w3.org/2000/svg" width="480" height="1742" viewBox="0 0 480 1742"><rect width="100%" height="100%" fill="white"/><text x="32" y="28" font-family="monospace" font-size="18" font-weight="600">Authentication Flow</text><text x="32" y="52" font-family="monospace" font-size="12" fill="#475569">activity diagram</text><circle cx="240" cy="82" r="12" fill="#0f172a"/><rect x="130" y="126" width="220" height="36" rx="18" ry="18" fill="#ecfdf5" stroke="#047857" stroke-width="1.5"/><text x="240" y="149" text-anchor="middle" font-family="monospace" font-size="12">Enter Credentials</text><line x1="240" y1="104" x2="240" y2="122" stroke="#0f172a" stroke-width="1.5"/><polygon points="240,122 236,116 244,116" fill="#0f172a"/><polygon points="240,184 340,206 240,228 140,206" fill="#fef9c3" stroke="#047857" stroke-width="1.5"/><text x="240" y="210" text-anchor="middle" font-family="monospace" font-size="11">Username valid?) then (yes</text><line x1="240" y1="164" x2="240" y2="182" stroke="#0f172a" stroke-width="1.5"/><polygon points="240,182 236,176 244,176" fill="#0f172a"/><rect x="130" y="246" width="220" height="36" rx="18" ry="18" fill="#ecfdf5" stroke="#047857" stroke-width="1.5"/><text x="240" y="269" text-anchor="middle" font-family="monospace" font-size="12">Hash Password</text><line x1="240" y1="224" x2="240" y2="242" stroke="#0f172a" stroke-width="1.5"/><polygon points="240,242 236,236 244,236" fill="#0f172a"/><polygon points="240,304 340,326 240,348 140,326" fill="#fef9c3" stroke="#047857" stroke-width="1.5"/><text x="240" y="330" text-anchor="middle" font-family="monospace" font-size="11">Password match?) then (yes</text><line x1="240" y1="284" x2="240" y2="302" stroke="#0f172a" stroke-width="1.5"/><polygon points="240,302 236,296 244,296" fill="#0f172a"/><polygon points="240,364 340,386 240,408 140,386" fill="#fef9c3" stroke="#047857" stroke-width="1.5"/><text x="240" y="390" text-anchor="middle" font-family="monospace" font-size="11">MFA enabled?) then (yes</text><line x1="240" y1="344" x2="240" y2="362" stroke="#0f172a" stroke-width="1.5"/><polygon points="240,362 236,356 244,356" fill="#0f172a"/><rect x="130" y="426" width="220" height="36" rx="18" ry="18" fill="#ecfdf5" stroke="#047857" stroke-width="1.5"/><text x="240" y="449" text-anchor="middle" font-family="monospace" font-size="12">Send OTP</text><line x1="240" y1="404" x2="240" y2="422" stroke="#0f172a" stroke-width="1.5"/><polygon points="240,422 236,416 244,416" fill="#0f172a"/><polygon points="240,484 340,506 240,528 140,506" fill="#fef9c3" stroke="#047857" stroke-width="1.5"/><text x="240" y="510" text-anchor="middle" font-family="monospace" font-size="11">OTP valid?) then (yes</text><line x1="240" y1="464" x2="240" y2="482" stroke="#0f172a" stroke-width="1.5"/><polygon points="240,482 236,476 244,476" fill="#0f172a"/><rect x="130" y="546" width="220" height="36" rx="18" ry="18" fill="#ecfdf5" stroke="#047857" stroke-width="1.5"/><text x="240" y="569" text-anchor="middle" font-family="monospace" font-size="12">Grant Access</text><line x1="240" y1="524" x2="240" y2="542" stroke="#0f172a" stroke-width="1.5"/><polygon points="240,542 236,536 244,536" fill="#0f172a"/><text x="240" y="630" text-anchor="middle" font-family="monospace" font-size="11" fill="#475569">(merge) no</text><line x1="240" y1="584" x2="240" y2="602" stroke="#0f172a" stroke-width="1.5"/><polygon points="240,602 236,596 244,596" fill="#0f172a"/><rect x="130" y="666" width="220" height="36" rx="18" ry="18" fill="#ecfdf5" stroke="#047857" stroke-width="1.5"/><text x="240" y="689" text-anchor="middle" font-family="monospace" font-size="12">Deny + Log</text><line x1="240" y1="644" x2="240" y2="662" stroke="#0f172a" stroke-width="1.5"/><polygon points="240,662 236,656 244,656" fill="#0f172a"/><text x="240" y="750" text-anchor="middle" font-family="monospace" font-size="11" fill="#475569">(merge) </text><line x1="240" y1="704" x2="240" y2="722" stroke="#0f172a" stroke-width="1.5"/><polygon points="240,722 236,716 244,716" fill="#0f172a"/><text x="240" y="810" text-anchor="middle" font-family="monospace" font-size="11" fill="#475569">(merge) no</text><line x1="240" y1="764" x2="240" y2="782" stroke="#0f172a" stroke-width="1.5"/><polygon points="240,782 236,776 244,776" fill="#0f172a"/><rect x="130" y="846" width="220" height="36" rx="18" ry="18" fill="#ecfdf5" stroke="#047857" stroke-width="1.5"/><text x="240" y="869" text-anchor="middle" font-family="monospace" font-size="12">Grant Access</text><line x1="240" y1="824" x2="240" y2="842" stroke="#0f172a" stroke-width="1.5"/><polygon points="240,842 236,836 244,836" fill="#0f172a"/><text x="240" y="930" text-anchor="middle" font-family="monospace" font-size="11" fill="#475569">(merge) </text><line x1="240" y1="884" x2="240" y2="902" stroke="#0f172a" stroke-width="1.5"/><polygon points="240,902 236,896 244,896" fill="#0f172a"/><text x="240" y="990" text-anchor="middle" font-family="monospace" font-size="11" fill="#475569">(merge) no</text><line x1="240" y1="944" x2="240" y2="962" stroke="#0f172a" stroke-width="1.5"/><polygon points="240,962 236,956 244,956" fill="#0f172a"/><rect x="130" y="1026" width="220" height="36" rx="18" ry="18" fill="#ecfdf5" stroke="#047857" stroke-width="1.5"/><text x="240" y="1049" text-anchor="middle" font-family="monospace" font-size="12">Increment Attempts</text><line x1="240" y1="1004" x2="240" y2="1022" stroke="#0f172a" stroke-width="1.5"/><polygon points="240,1022 236,1016 244,1016" fill="#0f172a"/><polygon points="240,1084 340,1106 240,1128 140,1106" fill="#fef9c3" stroke="#047857" stroke-width="1.5"/><text x="240" y="1110" text-anchor="middle" font-family="monospace" font-size="11">Max attempts?) then (yes</text><line x1="240" y1="1064" x2="240" y2="1082" stroke="#0f172a" stroke-width="1.5"/><polygon points="240,1082 236,1076 244,1076" fill="#0f172a"/><rect x="130" y="1146" width="220" height="36" rx="18" ry="18" fill="#ecfdf5" stroke="#047857" stroke-width="1.5"/><text x="240" y="1169" text-anchor="middle" font-family="monospace" font-size="12">Lock Account</text><line x1="240" y1="1124" x2="240" y2="1142" stroke="#0f172a" stroke-width="1.5"/><polygon points="240,1142 236,1136 244,1136" fill="#0f172a"/><text x="240" y="1230" text-anchor="middle" font-family="monospace" font-size="11" fill="#475569">(merge) no</text><line x1="240" y1="1184" x2="240" y2="1202" stroke="#0f172a" stroke-width="1.5"/><polygon points="240,1202 236,1196 244,1196" fill="#0f172a"/><rect x="130" y="1266" width="220" height="36" rx="18" ry="18" fill="#ecfdf5" stroke="#047857" stroke-width="1.5"/><text x="240" y="1289" text-anchor="middle" font-family="monospace" font-size="12">Retry</text><line x1="240" y1="1244" x2="240" y2="1262" stroke="#0f172a" stroke-width="1.5"/><polygon points="240,1262 236,1256 244,1256" fill="#0f172a"/><text x="240" y="1350" text-anchor="middle" font-family="monospace" font-size="11" fill="#475569">(merge) </text><line x1="240" y1="1304" x2="240" y2="1322" stroke="#0f172a" stroke-width="1.5"/><polygon points="240,1322 236,1316 244,1316" fill="#0f172a"/><text x="240" y="1410" text-anchor="middle" font-family="monospace" font-size="11" fill="#475569">(merge) </text><line x1="240" y1="1364" x2="240" y2="1382" stroke="#0f172a" stroke-width="1.5"/><polygon points="240,1382 236,1376 244,1376" fill="#0f172a"/><text x="240" y="1470" text-anchor="middle" font-family="monospace" font-size="11" fill="#475569">(merge) no</text><line x1="240" y1="1424" x2="240" y2="1442" stroke="#0f172a" stroke-width="1.5"/><polygon points="240,1442 236,1436 244,1436" fill="#0f172a"/><rect x="130" y="1506" width="220" height="36" rx="18" ry="18" fill="#ecfdf5" stroke="#047857" stroke-width="1.5"/><text x="240" y="1529" text-anchor="middle" font-family="monospace" font-size="12">Return 401</text><line x1="240" y1="1484" x2="240" y2="1502" stroke="#0f172a" stroke-width="1.5"/><polygon points="240,1502 236,1496 244,1496" fill="#0f172a"/><text x="240" y="1590" text-anchor="middle" font-family="monospace" font-size="11" fill="#475569">(merge) </text><line x1="240" y1="1544" x2="240" y2="1562" stroke="#0f172a" stroke-width="1.5"/><polygon points="240,1562 236,1556 244,1556" fill="#0f172a"/><circle cx="240" cy="1642" r="14" fill="white" stroke="#0f172a" stroke-width="1.5"/><circle cx="240" cy="1642" r="7" fill="#0f172a"/><line x1="240" y1="1604" x2="240" y2="1622" stroke="#0f172a" stroke-width="1.5"/><polygon points="240,1622 236,1616 244,1616" fill="#0f172a"/></svg>