<svg xmlns="http://www.w3.org/2000/svg" width="888" height="746" viewBox="0 0 888 746"><rect width="100%" height="100%" fill="#ecfdf5"/><text x="32" y="22" font-family="monospace" font-size="16" font-weight="600" fill="#0f172a">Authentication Flow</text><metadata data-activity-kind="Start" data-activity-lane="default" data-activity-branch="0"/><circle cx="436" cy="66" r="12" fill="#0f172a"/><metadata data-activity-kind="Action" data-activity-lane="default" data-activity-branch="0"/><rect x="356" y="94" width="160" height="36" rx="18" ry="18" fill="#ecfdf5" stroke="#047857" stroke-width="1.5"/><text x="436" y="117" text-anchor="middle" font-family="monospace" font-size="12" fill="#0f172a">Enter Credentials</text><line x1="436" y1="88" x2="436" y2="90" stroke="#0f172a" stroke-width="1.5"/><polygon points="436,90 432,82 440,82" fill="#0f172a"/><metadata data-activity-kind="IfStart" data-activity-lane="default" data-activity-branch="0"/><polygon points="436,136 536,158 436,180 336,158" fill="#fef9c3" stroke="#047857" stroke-width="1.5"/><text x="436" y="162" text-anchor="middle" font-family="monospace" font-size="11" fill="#0f172a">Username valid?</text><line x1="436" y1="132" x2="436" y2="134" stroke="#0f172a" stroke-width="1.5"/><polygon points="436,134 432,126 440,126" fill="#0f172a"/><metadata data-activity-kind="Action" data-activity-lane="default" data-activity-branch="0"/><rect x="276" y="182" width="160" height="36" rx="18" ry="18" fill="#ecfdf5" stroke="#047857" stroke-width="1.5"/><text x="356" y="205" text-anchor="middle" font-family="monospace" font-size="12" fill="#0f172a">Hash Password</text><line x1="336" y1="158" x2="336" y2="168" stroke="#0f172a" stroke-width="1.5"/><line x1="336" y1="168" x2="356" y2="168" stroke="#0f172a" stroke-width="1.5"/><line x1="356" y1="168" x2="356" y2="178" stroke="#0f172a" stroke-width="1.5"/><polygon points="356,178 352,170 360,170" fill="#0f172a"/><text x="350" y="164" font-family="monospace" font-size="10" fill="#0f172a">no</text><metadata data-activity-kind="IfStart" data-activity-lane="default" data-activity-branch="0"/><polygon points="356,224 456,246 356,268 256,246" fill="#fef9c3" stroke="#047857" stroke-width="1.5"/><text x="356" y="250" text-anchor="middle" font-family="monospace" font-size="11" fill="#0f172a">Password match?</text><line x1="356" y1="220" x2="356" y2="222" stroke="#0f172a" stroke-width="1.5"/><polygon points="356,222 352,214 360,214" fill="#0f172a"/><metadata data-activity-kind="IfStart" data-activity-lane="default" data-activity-branch="0"/><polygon points="276,268 376,290 276,312 176,290" fill="#fef9c3" stroke="#047857" stroke-width="1.5"/><text x="276" y="294" text-anchor="middle" font-family="monospace" font-size="11" fill="#0f172a">MFA enabled?</text><line x1="256" y1="246" x2="256" y2="256" stroke="#0f172a" stroke-width="1.5"/><line x1="256" y1="256" x2="276" y2="256" stroke="#0f172a" stroke-width="1.5"/><line x1="276" y1="256" x2="276" y2="266" stroke="#0f172a" stroke-width="1.5"/><polygon points="276,266 272,258 280,258" fill="#0f172a"/><text x="270" y="252" font-family="monospace" font-size="10" fill="#0f172a">no</text><metadata data-activity-kind="Action" data-activity-lane="default" data-activity-branch="0"/><rect x="116" y="314" width="160" height="36" rx="18" ry="18" fill="#ecfdf5" stroke="#047857" stroke-width="1.5"/><text x="196" y="337" text-anchor="middle" font-family="monospace" font-size="12" fill="#0f172a">Send OTP</text><line x1="176" y1="290" x2="176" y2="300" stroke="#0f172a" stroke-width="1.5"/><line x1="176" y1="300" x2="196" y2="300" stroke="#0f172a" stroke-width="1.5"/><line x1="196" y1="300" x2="196" y2="310" stroke="#0f172a" stroke-width="1.5"/><polygon points="196,310 192,302 200,302" fill="#0f172a"/><text x="190" y="296" font-family="monospace" font-size="10" fill="#0f172a">no</text><metadata data-activity-kind="IfStart" data-activity-lane="default" data-activity-branch="0"/><polygon points="196,356 296,378 196,400 96,378" fill="#fef9c3" stroke="#047857" stroke-width="1.5"/><text x="196" y="382" text-anchor="middle" font-family="monospace" font-size="11" fill="#0f172a">OTP valid?</text><line x1="196" y1="352" x2="196" y2="354" stroke="#0f172a" stroke-width="1.5"/><polygon points="196,354 192,346 200,346" fill="#0f172a"/><metadata data-activity-kind="Action" data-activity-lane="default" data-activity-branch="0"/><rect x="36" y="402" width="160" height="36" rx="18" ry="18" fill="#ecfdf5" stroke="#047857" stroke-width="1.5"/><text x="116" y="425" text-anchor="middle" font-family="monospace" font-size="12" fill="#0f172a">Grant Access</text><line x1="96" y1="378" x2="96" y2="388" stroke="#0f172a" stroke-width="1.5"/><line x1="96" y1="388" x2="116" y2="388" stroke="#0f172a" stroke-width="1.5"/><line x1="116" y1="388" x2="116" y2="398" stroke="#0f172a" stroke-width="1.5"/><polygon points="116,398 112,390 120,390" fill="#0f172a"/><text x="110" y="384" font-family="monospace" font-size="10" fill="#0f172a">no</text><metadata data-activity-kind="Else" data-activity-lane="default" data-activity-branch="0"/><metadata data-activity-kind="Action" data-activity-lane="default" data-activity-branch="0"/><rect x="196" y="446" width="160" height="36" rx="18" ry="18" fill="#ecfdf5" stroke="#047857" stroke-width="1.5"/><text x="276" y="469" text-anchor="middle" font-family="monospace" font-size="12" fill="#0f172a">Deny + Log</text><line x1="196" y1="396" x2="196" y2="419" stroke="#0f172a" stroke-width="1.5"/><line x1="196" y1="419" x2="276" y2="419" stroke="#0f172a" stroke-width="1.5"/><line x1="276" y1="419" x2="276" y2="442" stroke="#0f172a" stroke-width="1.5"/><polygon points="276,442 272,434 280,434" fill="#0f172a"/><text x="240" y="415" font-family="monospace" font-size="10" fill="#0f172a">yes</text><metadata data-activity-kind="EndIf" data-activity-lane="default" data-activity-branch="0"/><metadata data-activity-kind="Else" data-activity-lane="default" data-activity-branch="0"/><metadata data-activity-kind="Action" data-activity-lane="default" data-activity-branch="0"/><rect x="276" y="358" width="160" height="36" rx="18" ry="18" fill="#ecfdf5" stroke="#047857" stroke-width="1.5"/><text x="356" y="381" text-anchor="middle" font-family="monospace" font-size="12" fill="#0f172a">Grant Access</text><line x1="116" y1="440" x2="208" y2="440" stroke="#0f172a" stroke-width="1.5"/><line x1="208" y1="440" x2="208" y2="397" stroke="#0f172a" stroke-width="1.5"/><line x1="208" y1="397" x2="356" y2="397" stroke="#0f172a" stroke-width="1.5"/><line x1="356" y1="397" x2="356" y2="354" stroke="#0f172a" stroke-width="1.5"/><polygon points="356,354 352,362 360,362" fill="#0f172a"/><line x1="276" y1="484" x2="368" y2="484" stroke="#0f172a" stroke-width="1.5"/><line x1="368" y1="484" x2="368" y2="436" stroke="#0f172a" stroke-width="1.5"/><line x1="368" y1="436" x2="356" y2="436" stroke="#0f172a" stroke-width="1.5"/><line x1="356" y1="436" x2="356" y2="354" stroke="#0f172a" stroke-width="1.5"/><polygon points="356,354 352,362 360,362" fill="#0f172a"/><line x1="276" y1="308" x2="276" y2="331" stroke="#0f172a" stroke-width="1.5"/><line x1="276" y1="331" x2="356" y2="331" stroke="#0f172a" stroke-width="1.5"/><line x1="356" y1="331" x2="356" y2="354" stroke="#0f172a" stroke-width="1.5"/><polygon points="356,354 352,346 360,346" fill="#0f172a"/><text x="320" y="327" font-family="monospace" font-size="10" fill="#0f172a">yes</text><metadata data-activity-kind="EndIf" data-activity-lane="default" data-activity-branch="0"/><metadata data-activity-kind="Else" data-activity-lane="default" data-activity-branch="0"/><metadata data-activity-kind="Action" data-activity-lane="default" data-activity-branch="0"/><rect x="356" y="314" width="160" height="36" rx="18" ry="18" fill="#ecfdf5" stroke="#047857" stroke-width="1.5"/><text x="436" y="337" text-anchor="middle" font-family="monospace" font-size="12" fill="#0f172a">Increment Attempts</text><line x1="356" y1="396" x2="528" y2="396" stroke="#0f172a" stroke-width="1.5"/><line x1="528" y1="396" x2="528" y2="353" stroke="#0f172a" stroke-width="1.5"/><line x1="528" y1="353" x2="436" y2="353" stroke="#0f172a" stroke-width="1.5"/><line x1="436" y1="353" x2="436" y2="310" stroke="#0f172a" stroke-width="1.5"/><polygon points="436,310 432,318 440,318" fill="#0f172a"/><line x1="356" y1="264" x2="356" y2="287" stroke="#0f172a" stroke-width="1.5"/><line x1="356" y1="287" x2="436" y2="287" stroke="#0f172a" stroke-width="1.5"/><line x1="436" y1="287" x2="436" y2="310" stroke="#0f172a" stroke-width="1.5"/><polygon points="436,310 432,302 440,302" fill="#0f172a"/><text x="400" y="283" font-family="monospace" font-size="10" fill="#0f172a">yes</text><metadata data-activity-kind="IfStart" data-activity-lane="default" data-activity-branch="0"/><polygon points="436,356 536,378 436,400 336,378" fill="#fef9c3" stroke="#047857" stroke-width="1.5"/><text x="436" y="382" text-anchor="middle" font-family="monospace" font-size="11" fill="#0f172a">Max attempts?</text><line x1="436" y1="352" x2="436" y2="354" stroke="#0f172a" stroke-width="1.5"/><polygon points="436,354 432,346 440,346" fill="#0f172a"/><metadata data-activity-kind="Action" data-activity-lane="default" data-activity-branch="0"/><rect x="276" y="402" width="160" height="36" rx="18" ry="18" fill="#ecfdf5" stroke="#047857" stroke-width="1.5"/><text x="356" y="425" text-anchor="middle" font-family="monospace" font-size="12" fill="#0f172a">Lock Account</text><line x1="336" y1="378" x2="336" y2="388" stroke="#0f172a" stroke-width="1.5"/><line x1="336" y1="388" x2="356" y2="388" stroke="#0f172a" stroke-width="1.5"/><line x1="356" y1="388" x2="356" y2="398" stroke="#0f172a" stroke-width="1.5"/><polygon points="356,398 352,390 360,390" fill="#0f172a"/><text x="350" y="384" font-family="monospace" font-size="10" fill="#0f172a">no</text><metadata data-activity-kind="Else" data-activity-lane="default" data-activity-branch="0"/><metadata data-activity-kind="Action" data-activity-lane="default" data-activity-branch="0"/><rect x="436" y="446" width="160" height="36" rx="18" ry="18" fill="#ecfdf5" stroke="#047857" stroke-width="1.5"/><text x="516" y="469" text-anchor="middle" font-family="monospace" font-size="12" fill="#0f172a">Retry</text><line x1="436" y1="396" x2="436" y2="419" stroke="#0f172a" stroke-width="1.5"/><line x1="436" y1="419" x2="516" y2="419" stroke="#0f172a" stroke-width="1.5"/><line x1="516" y1="419" x2="516" y2="442" stroke="#0f172a" stroke-width="1.5"/><polygon points="516,442 512,434 520,434" fill="#0f172a"/><text x="480" y="415" font-family="monospace" font-size="10" fill="#0f172a">yes</text><metadata data-activity-kind="EndIf" data-activity-lane="default" data-activity-branch="0"/><metadata data-activity-kind="EndIf" data-activity-lane="default" data-activity-branch="0"/><metadata data-activity-kind="Else" data-activity-lane="default" data-activity-branch="0"/><metadata data-activity-kind="Action" data-activity-lane="default" data-activity-branch="0"/><rect x="516" y="226" width="160" height="36" rx="18" ry="18" fill="#ecfdf5" stroke="#047857" stroke-width="1.5"/><text x="596" y="249" text-anchor="middle" font-family="monospace" font-size="12" fill="#0f172a">Return 401</text><line x1="356" y1="440" x2="528" y2="440" stroke="#0f172a" stroke-width="1.5"/><line x1="528" y1="440" x2="528" y2="348" stroke="#0f172a" stroke-width="1.5"/><line x1="528" y1="348" x2="596" y2="348" stroke="#0f172a" stroke-width="1.5"/><line x1="596" y1="348" x2="596" y2="222" stroke="#0f172a" stroke-width="1.5"/><polygon points="596,222 592,230 600,230" fill="#0f172a"/><line x1="516" y1="484" x2="608" y2="484" stroke="#0f172a" stroke-width="1.5"/><line x1="608" y1="484" x2="608" y2="353" stroke="#0f172a" stroke-width="1.5"/><line x1="608" y1="353" x2="596" y2="353" stroke="#0f172a" stroke-width="1.5"/><line x1="596" y1="353" x2="596" y2="222" stroke="#0f172a" stroke-width="1.5"/><polygon points="596,222 592,230 600,230" fill="#0f172a"/><line x1="436" y1="176" x2="436" y2="199" stroke="#0f172a" stroke-width="1.5"/><line x1="436" y1="199" x2="596" y2="199" stroke="#0f172a" stroke-width="1.5"/><line x1="596" y1="199" x2="596" y2="222" stroke="#0f172a" stroke-width="1.5"/><polygon points="596,222 592,214 600,214" fill="#0f172a"/><text x="520" y="195" font-family="monospace" font-size="10" fill="#0f172a">yes</text><metadata data-activity-kind="EndIf" data-activity-lane="default" data-activity-branch="0"/><metadata data-activity-kind="Stop" data-activity-lane="default" data-activity-branch="0"/><circle cx="436" cy="682" r="14" fill="white" stroke="#0f172a" stroke-width="1.5"/><circle cx="436" cy="682" r="7" fill="#0f172a"/><line x1="596" y1="264" x2="596" y2="480" stroke="#0f172a" stroke-width="1.5"/><line x1="596" y1="480" x2="436" y2="480" stroke="#0f172a" stroke-width="1.5"/><line x1="436" y1="480" x2="436" y2="662" stroke="#0f172a" stroke-width="1.5"/><polygon points="436,662 432,654 440,654" fill="#0f172a"/></svg>