<svg xmlns="http://www.w3.org/2000/svg" width="1760" height="1022" viewBox="0 0 1760 1022"><rect width="100%" height="100%" fill="#ecfdf5"/><text x="32" y="28" font-family="monospace" font-size="18" font-weight="600" fill="#0f172a">Authentication Flow</text><text x="32" y="52" font-family="monospace" font-size="12" fill="#0f172a">activity diagram</text><rect x="32" y="62" width="1696" height="940" fill="#ecfdf5" stroke="#cbd5e1" stroke-width="1" stroke-dasharray="4 3"/><metadata data-activity-kind="Start" data-activity-lane="default" data-activity-branch="0"/><circle cx="880" cy="82" r="12" fill="#0f172a"/><metadata data-activity-kind="Action" data-activity-lane="default" data-activity-branch="0"/><rect x="770" y="126" width="220" height="36" rx="18" ry="18" fill="#ecfdf5" stroke="#047857" stroke-width="1.5"/><text x="880" y="149" text-anchor="middle" font-family="monospace" font-size="12" fill="#0f172a">Enter Credentials</text><line x1="880" y1="104" x2="880" y2="122" stroke="#0f172a" stroke-width="1.5"/><polygon points="880,122 876,114 884,114" fill="#0f172a"/><metadata data-activity-kind="IfStart" data-activity-lane="default" data-activity-branch="0"/><polygon points="880,184 980,206 880,228 780,206" fill="#fef9c3" stroke="#047857" stroke-width="1.5"/><text x="880" y="210" text-anchor="middle" font-family="monospace" font-size="11" fill="#0f172a">Username valid?</text><text x="984" y="210" text-anchor="start" font-family="monospace" font-size="10" fill="#0f172a">yes</text><line x1="880" y1="164" x2="880" y2="182" stroke="#0f172a" stroke-width="1.5"/><polygon points="880,182 876,174 884,174" fill="#0f172a"/><metadata data-activity-kind="Action" data-activity-lane="default" data-activity-branch="0"/><rect x="770" y="246" width="220" height="36" rx="18" ry="18" fill="#ecfdf5" stroke="#047857" stroke-width="1.5"/><text x="880" y="269" text-anchor="middle" font-family="monospace" font-size="12" fill="#0f172a">Hash Password</text><line x1="880" y1="224" x2="880" y2="242" stroke="#0f172a" stroke-width="1.5"/><polygon points="880,242 876,234 884,234" fill="#0f172a"/><metadata data-activity-kind="IfStart" data-activity-lane="default" data-activity-branch="0"/><polygon points="880,304 980,326 880,348 780,326" fill="#fef9c3" stroke="#047857" stroke-width="1.5"/><text x="880" y="330" text-anchor="middle" font-family="monospace" font-size="11" fill="#0f172a">Password match?</text><text x="984" y="330" text-anchor="start" font-family="monospace" font-size="10" fill="#0f172a">yes</text><line x1="880" y1="284" x2="880" y2="302" stroke="#0f172a" stroke-width="1.5"/><polygon points="880,302 876,294 884,294" fill="#0f172a"/><metadata data-activity-kind="IfStart" data-activity-lane="default" data-activity-branch="0"/><polygon points="880,364 980,386 880,408 780,386" fill="#fef9c3" stroke="#047857" stroke-width="1.5"/><text x="880" y="390" text-anchor="middle" font-family="monospace" font-size="11" fill="#0f172a">MFA enabled?</text><text x="984" y="390" text-anchor="start" font-family="monospace" font-size="10" fill="#0f172a">yes</text><line x1="880" y1="344" x2="880" y2="362" stroke="#0f172a" stroke-width="1.5"/><polygon points="880,362 876,354 884,354" fill="#0f172a"/><metadata data-activity-kind="Action" data-activity-lane="default" data-activity-branch="0"/><rect x="770" y="426" width="220" height="36" rx="18" ry="18" fill="#ecfdf5" stroke="#047857" stroke-width="1.5"/><text x="880" y="449" text-anchor="middle" font-family="monospace" font-size="12" fill="#0f172a">Send OTP</text><line x1="880" y1="404" x2="880" y2="422" stroke="#0f172a" stroke-width="1.5"/><polygon points="880,422 876,414 884,414" fill="#0f172a"/><metadata data-activity-kind="IfStart" data-activity-lane="default" data-activity-branch="0"/><polygon points="880,484 980,506 880,528 780,506" fill="#fef9c3" stroke="#047857" stroke-width="1.5"/><text x="880" y="510" text-anchor="middle" font-family="monospace" font-size="11" fill="#0f172a">OTP valid?</text><text x="984" y="510" text-anchor="start" font-family="monospace" font-size="10" fill="#0f172a">yes</text><line x1="880" y1="464" x2="880" y2="482" stroke="#0f172a" stroke-width="1.5"/><polygon points="880,482 876,474 884,474" fill="#0f172a"/><metadata data-activity-kind="Action" data-activity-lane="default" data-activity-branch="0"/><rect x="770" y="546" width="220" height="36" rx="18" ry="18" fill="#ecfdf5" stroke="#047857" stroke-width="1.5"/><text x="880" y="569" text-anchor="middle" font-family="monospace" font-size="12" fill="#0f172a">Grant Access</text><line x1="880" y1="524" x2="880" y2="542" stroke="#0f172a" stroke-width="1.5"/><polygon points="880,542 876,534 884,534" fill="#0f172a"/><metadata data-activity-kind="Else" data-activity-lane="default" data-activity-branch="0"/><line x1="880" y1="524" x2="1040" y2="542" stroke="#0f172a" stroke-width="1.5"/><polygon points="1040,542 1032,545 1032,537" fill="#0f172a"/><metadata data-activity-kind="Action" data-activity-lane="default" data-activity-branch="0"/><rect x="930" y="606" width="220" height="36" rx="18" ry="18" fill="#ecfdf5" stroke="#047857" stroke-width="1.5"/><text x="1040" y="629" text-anchor="middle" font-family="monospace" font-size="12" fill="#0f172a">Deny + Log</text><line x1="1040" y1="584" x2="1040" y2="602" stroke="#0f172a" stroke-width="1.5"/><polygon points="1040,602 1036,594 1044,594" fill="#0f172a"/><metadata data-activity-kind="EndIf" data-activity-lane="default" data-activity-branch="0"/><line x1="880" y1="584" x2="880" y2="662" stroke="#0f172a" stroke-width="1.5"/><polygon points="880,662 876,654 884,654" fill="#0f172a"/><line x1="1040" y1="644" x2="880" y2="662" stroke="#0f172a" stroke-width="1.5"/><polygon points="880,662 888,657 888,665" fill="#0f172a"/><metadata data-activity-kind="Else" data-activity-lane="default" data-activity-branch="0"/><line x1="880" y1="404" x2="1200" y2="422" stroke="#0f172a" stroke-width="1.5"/><polygon points="1200,422 1192,426 1192,418" fill="#0f172a"/><metadata data-activity-kind="Action" data-activity-lane="default" data-activity-branch="0"/><rect x="1090" y="486" width="220" height="36" rx="18" ry="18" fill="#ecfdf5" stroke="#047857" stroke-width="1.5"/><text x="1200" y="509" text-anchor="middle" font-family="monospace" font-size="12" fill="#0f172a">Grant Access</text><line x1="1200" y1="464" x2="1200" y2="482" stroke="#0f172a" stroke-width="1.5"/><polygon points="1200,482 1196,474 1204,474" fill="#0f172a"/><metadata data-activity-kind="EndIf" data-activity-lane="default" data-activity-branch="0"/><line x1="880" y1="704" x2="880" y2="722" stroke="#0f172a" stroke-width="1.5"/><polygon points="880,722 876,714 884,714" fill="#0f172a"/><line x1="1200" y1="524" x2="880" y2="722" stroke="#0f172a" stroke-width="1.5"/><polygon points="880,722 885,714 889,721" fill="#0f172a"/><metadata data-activity-kind="Else" data-activity-lane="default" data-activity-branch="0"/><line x1="880" y1="344" x2="1360" y2="362" stroke="#0f172a" stroke-width="1.5"/><polygon points="1360,362 1352,366 1352,358" fill="#0f172a"/><metadata data-activity-kind="Action" data-activity-lane="default" data-activity-branch="0"/><rect x="1250" y="426" width="220" height="36" rx="18" ry="18" fill="#ecfdf5" stroke="#047857" stroke-width="1.5"/><text x="1360" y="449" text-anchor="middle" font-family="monospace" font-size="12" fill="#0f172a">Increment Attempts</text><line x1="1360" y1="404" x2="1360" y2="422" stroke="#0f172a" stroke-width="1.5"/><polygon points="1360,422 1356,414 1364,414" fill="#0f172a"/><metadata data-activity-kind="IfStart" data-activity-lane="default" data-activity-branch="0"/><polygon points="1360,484 1460,506 1360,528 1260,506" fill="#fef9c3" stroke="#047857" stroke-width="1.5"/><text x="1360" y="510" text-anchor="middle" font-family="monospace" font-size="11" fill="#0f172a">Max attempts?</text><text x="1464" y="510" text-anchor="start" font-family="monospace" font-size="10" fill="#0f172a">yes</text><line x1="1360" y1="464" x2="1360" y2="482" stroke="#0f172a" stroke-width="1.5"/><polygon points="1360,482 1356,474 1364,474" fill="#0f172a"/><metadata data-activity-kind="Action" data-activity-lane="default" data-activity-branch="0"/><rect x="1250" y="546" width="220" height="36" rx="18" ry="18" fill="#ecfdf5" stroke="#047857" stroke-width="1.5"/><text x="1360" y="569" text-anchor="middle" font-family="monospace" font-size="12" fill="#0f172a">Lock Account</text><line x1="1360" y1="524" x2="1360" y2="542" stroke="#0f172a" stroke-width="1.5"/><polygon points="1360,542 1356,534 1364,534" fill="#0f172a"/><metadata data-activity-kind="Else" data-activity-lane="default" data-activity-branch="0"/><line x1="1360" y1="524" x2="1520" y2="542" stroke="#0f172a" stroke-width="1.5"/><polygon points="1520,542 1512,545 1512,537" fill="#0f172a"/><metadata data-activity-kind="Action" data-activity-lane="default" data-activity-branch="0"/><rect x="1410" y="606" width="220" height="36" rx="18" ry="18" fill="#ecfdf5" stroke="#047857" stroke-width="1.5"/><text x="1520" y="629" text-anchor="middle" font-family="monospace" font-size="12" fill="#0f172a">Retry</text><line x1="1520" y1="584" x2="1520" y2="602" stroke="#0f172a" stroke-width="1.5"/><polygon points="1520,602 1516,594 1524,594" fill="#0f172a"/><metadata data-activity-kind="EndIf" data-activity-lane="default" data-activity-branch="0"/><line x1="1360" y1="584" x2="1360" y2="662" stroke="#0f172a" stroke-width="1.5"/><polygon points="1360,662 1356,654 1364,654" fill="#0f172a"/><line x1="1520" y1="644" x2="1360" y2="662" stroke="#0f172a" stroke-width="1.5"/><polygon points="1360,662 1368,657 1368,665" fill="#0f172a"/><metadata data-activity-kind="EndIf" data-activity-lane="default" data-activity-branch="0"/><line x1="880" y1="764" x2="880" y2="782" stroke="#0f172a" stroke-width="1.5"/><polygon points="880,782 876,774 884,774" fill="#0f172a"/><line x1="1360" y1="704" x2="880" y2="782" stroke="#0f172a" stroke-width="1.5"/><polygon points="880,782 887,777 889,785" fill="#0f172a"/><metadata data-activity-kind="Else" data-activity-lane="default" data-activity-branch="0"/><line x1="880" y1="224" x2="1680" y2="242" stroke="#0f172a" stroke-width="1.5"/><polygon points="1680,242 1672,246 1672,238" fill="#0f172a"/><metadata data-activity-kind="Action" data-activity-lane="default" data-activity-branch="0"/><rect x="1570" y="306" width="220" height="36" rx="18" ry="18" fill="#ecfdf5" stroke="#047857" stroke-width="1.5"/><text x="1680" y="329" text-anchor="middle" font-family="monospace" font-size="12" fill="#0f172a">Return 401</text><line x1="1680" y1="284" x2="1680" y2="302" stroke="#0f172a" stroke-width="1.5"/><polygon points="1680,302 1676,294 1684,294" fill="#0f172a"/><metadata data-activity-kind="EndIf" data-activity-lane="default" data-activity-branch="0"/><line x1="880" y1="824" x2="880" y2="842" stroke="#0f172a" stroke-width="1.5"/><polygon points="880,842 876,834 884,834" fill="#0f172a"/><line x1="1680" y1="344" x2="880" y2="842" stroke="#0f172a" stroke-width="1.5"/><polygon points="880,842 885,834 889,841" fill="#0f172a"/><metadata data-activity-kind="Stop" data-activity-lane="default" data-activity-branch="0"/><circle cx="880" cy="922" r="14" fill="white" stroke="#0f172a" stroke-width="1.5"/><circle cx="880" cy="922" r="7" fill="#0f172a"/><line x1="880" y1="884" x2="880" y2="902" stroke="#0f172a" stroke-width="1.5"/><polygon points="880,902 876,894 884,894" fill="#0f172a"/></svg>