<svg xmlns="http://www.w3.org/2000/svg" width="1760" height="1022" viewBox="0 0 1760 1022"><rect width="100%" height="100%" fill="#ecfdf5"/><text x="32" y="28" font-family="monospace" font-size="18" font-weight="600" fill="#0f172a">Authentication Flow</text><text x="32" y="52" font-family="monospace" font-size="12" fill="#0f172a">activity diagram</text><rect x="32" y="62" width="1696" height="940" fill="#ecfdf5" stroke="#cbd5e1" stroke-width="1" stroke-dasharray="4 3"/><metadata data-activity-kind="Start" data-activity-lane="default" data-activity-branch="0"/><circle cx="880" cy="82" r="12" fill="#0f172a"/><metadata data-activity-kind="Action" data-activity-lane="default" data-activity-branch="0"/><rect x="770" y="126" width="220" height="36" rx="18" ry="18" fill="#ecfdf5" stroke="#047857" stroke-width="1.5"/><text x="880" y="149" text-anchor="middle" font-family="monospace" font-size="12" fill="#0f172a">Enter Credentials</text><line x1="880" y1="104" x2="880" y2="122" stroke="#0f172a" stroke-width="1.5"/><polygon points="880,122 876,114 884,114" fill="#0f172a"/><metadata data-activity-kind="IfStart" data-activity-lane="default" data-activity-branch="0"/><polygon points="880,184 980,206 880,228 780,206" fill="#fef9c3" stroke="#047857" stroke-width="1.5"/><text x="880" y="210" text-anchor="middle" font-family="monospace" font-size="11" fill="#0f172a">Username valid?</text><text x="984" y="210" text-anchor="start" font-family="monospace" font-size="10" fill="#0f172a">yes</text><line x1="880" y1="164" x2="880" y2="182" stroke="#0f172a" stroke-width="1.5"/><polygon points="880,182 876,174 884,174" fill="#0f172a"/><metadata data-activity-kind="Action" data-activity-lane="default" data-activity-branch="0"/><rect x="610" y="246" width="220" height="36" rx="18" ry="18" fill="#ecfdf5" stroke="#047857" stroke-width="1.5"/><text x="720" y="269" text-anchor="middle" font-family="monospace" font-size="12" fill="#0f172a">Hash Password</text><line x1="880" y1="224" x2="880" y2="233" stroke="#0f172a" stroke-width="1.5"/><line x1="880" y1="233" x2="720" y2="233" stroke="#0f172a" stroke-width="1.5"/><line x1="720" y1="233" x2="720" y2="242" stroke="#0f172a" stroke-width="1.5"/><polygon points="720,242 716,234 724,234" fill="#0f172a"/><metadata data-activity-kind="IfStart" data-activity-lane="default" data-activity-branch="0"/><polygon points="720,304 820,326 720,348 620,326" fill="#fef9c3" stroke="#047857" stroke-width="1.5"/><text x="720" y="330" text-anchor="middle" font-family="monospace" font-size="11" fill="#0f172a">Password match?</text><text x="824" y="330" text-anchor="start" font-family="monospace" font-size="10" fill="#0f172a">yes</text><line x1="720" y1="284" x2="720" y2="302" stroke="#0f172a" stroke-width="1.5"/><polygon points="720,302 716,294 724,294" fill="#0f172a"/><metadata data-activity-kind="IfStart" data-activity-lane="default" data-activity-branch="0"/><polygon points="560,364 660,386 560,408 460,386" fill="#fef9c3" stroke="#047857" stroke-width="1.5"/><text x="560" y="390" text-anchor="middle" font-family="monospace" font-size="11" fill="#0f172a">MFA enabled?</text><text x="664" y="390" text-anchor="start" font-family="monospace" font-size="10" fill="#0f172a">yes</text><line x1="720" y1="344" x2="720" y2="353" stroke="#0f172a" stroke-width="1.5"/><line x1="720" y1="353" x2="560" y2="353" stroke="#0f172a" stroke-width="1.5"/><line x1="560" y1="353" x2="560" y2="362" stroke="#0f172a" stroke-width="1.5"/><polygon points="560,362 556,354 564,354" fill="#0f172a"/><metadata data-activity-kind="Action" data-activity-lane="default" data-activity-branch="0"/><rect x="290" y="426" width="220" height="36" rx="18" ry="18" fill="#ecfdf5" stroke="#047857" stroke-width="1.5"/><text x="400" y="449" text-anchor="middle" font-family="monospace" font-size="12" fill="#0f172a">Send OTP</text><line x1="560" y1="404" x2="560" y2="413" stroke="#0f172a" stroke-width="1.5"/><line x1="560" y1="413" x2="400" y2="413" stroke="#0f172a" stroke-width="1.5"/><line x1="400" y1="413" x2="400" y2="422" stroke="#0f172a" stroke-width="1.5"/><polygon points="400,422 396,414 404,414" fill="#0f172a"/><metadata data-activity-kind="IfStart" data-activity-lane="default" data-activity-branch="0"/><polygon points="400,484 500,506 400,528 300,506" fill="#fef9c3" stroke="#047857" stroke-width="1.5"/><text x="400" y="510" text-anchor="middle" font-family="monospace" font-size="11" fill="#0f172a">OTP valid?</text><text x="504" y="510" text-anchor="start" font-family="monospace" font-size="10" fill="#0f172a">yes</text><line x1="400" y1="464" x2="400" y2="482" stroke="#0f172a" stroke-width="1.5"/><polygon points="400,482 396,474 404,474" fill="#0f172a"/><metadata data-activity-kind="Action" data-activity-lane="default" data-activity-branch="0"/><rect x="130" y="546" width="220" height="36" rx="18" ry="18" fill="#ecfdf5" stroke="#047857" stroke-width="1.5"/><text x="240" y="569" text-anchor="middle" font-family="monospace" font-size="12" fill="#0f172a">Grant Access</text><line x1="400" y1="524" x2="400" y2="533" stroke="#0f172a" stroke-width="1.5"/><line x1="400" y1="533" x2="240" y2="533" stroke="#0f172a" stroke-width="1.5"/><line x1="240" y1="533" x2="240" y2="542" stroke="#0f172a" stroke-width="1.5"/><polygon points="240,542 236,534 244,534" fill="#0f172a"/><metadata data-activity-kind="Else" data-activity-lane="default" data-activity-branch="0"/><metadata data-activity-kind="Action" data-activity-lane="default" data-activity-branch="0"/><rect x="450" y="606" width="220" height="36" rx="18" ry="18" fill="#ecfdf5" stroke="#047857" stroke-width="1.5"/><text x="560" y="629" text-anchor="middle" font-family="monospace" font-size="12" fill="#0f172a">Deny + Log</text><line x1="400" y1="524" x2="400" y2="563" stroke="#0f172a" stroke-width="1.5"/><line x1="400" y1="563" x2="560" y2="563" stroke="#0f172a" stroke-width="1.5"/><line x1="560" y1="563" x2="560" y2="602" stroke="#0f172a" stroke-width="1.5"/><polygon points="560,602 556,594 564,594" fill="#0f172a"/><metadata data-activity-kind="EndIf" data-activity-lane="default" data-activity-branch="0"/><metadata data-activity-kind="Else" data-activity-lane="default" data-activity-branch="0"/><metadata data-activity-kind="Action" data-activity-lane="default" data-activity-branch="0"/><rect x="610" y="486" width="220" height="36" rx="18" ry="18" fill="#ecfdf5" stroke="#047857" stroke-width="1.5"/><text x="720" y="509" text-anchor="middle" font-family="monospace" font-size="12" fill="#0f172a">Grant Access</text><line x1="240" y1="584" x2="720" y2="482" stroke="#0f172a" stroke-width="1.5"/><polygon points="720,482 713,488 711,480" fill="#0f172a"/><line x1="560" y1="644" x2="720" y2="482" stroke="#0f172a" stroke-width="1.5"/><polygon points="720,482 717,491 712,485" fill="#0f172a"/><line x1="560" y1="404" x2="560" y2="443" stroke="#0f172a" stroke-width="1.5"/><line x1="560" y1="443" x2="720" y2="443" stroke="#0f172a" stroke-width="1.5"/><line x1="720" y1="443" x2="720" y2="482" stroke="#0f172a" stroke-width="1.5"/><polygon points="720,482 716,474 724,474" fill="#0f172a"/><metadata data-activity-kind="EndIf" data-activity-lane="default" data-activity-branch="0"/><metadata data-activity-kind="Else" data-activity-lane="default" data-activity-branch="0"/><metadata data-activity-kind="Action" data-activity-lane="default" data-activity-branch="0"/><rect x="770" y="426" width="220" height="36" rx="18" ry="18" fill="#ecfdf5" stroke="#047857" stroke-width="1.5"/><text x="880" y="449" text-anchor="middle" font-family="monospace" font-size="12" fill="#0f172a">Increment Attempts</text><line x1="720" y1="524" x2="880" y2="422" stroke="#0f172a" stroke-width="1.5"/><polygon points="880,422 875,430 871,423" fill="#0f172a"/><line x1="720" y1="344" x2="720" y2="383" stroke="#0f172a" stroke-width="1.5"/><line x1="720" y1="383" x2="880" y2="383" stroke="#0f172a" stroke-width="1.5"/><line x1="880" y1="383" x2="880" y2="422" stroke="#0f172a" stroke-width="1.5"/><polygon points="880,422 876,414 884,414" fill="#0f172a"/><metadata data-activity-kind="IfStart" data-activity-lane="default" data-activity-branch="0"/><polygon points="880,484 980,506 880,528 780,506" fill="#fef9c3" stroke="#047857" stroke-width="1.5"/><text x="880" y="510" text-anchor="middle" font-family="monospace" font-size="11" fill="#0f172a">Max attempts?</text><text x="984" y="510" text-anchor="start" font-family="monospace" font-size="10" fill="#0f172a">yes</text><line x1="880" y1="464" x2="880" y2="482" stroke="#0f172a" stroke-width="1.5"/><polygon points="880,482 876,474 884,474" fill="#0f172a"/><metadata data-activity-kind="Action" data-activity-lane="default" data-activity-branch="0"/><rect x="610" y="546" width="220" height="36" rx="18" ry="18" fill="#ecfdf5" stroke="#047857" stroke-width="1.5"/><text x="720" y="569" text-anchor="middle" font-family="monospace" font-size="12" fill="#0f172a">Lock Account</text><line x1="880" y1="524" x2="880" y2="533" stroke="#0f172a" stroke-width="1.5"/><line x1="880" y1="533" x2="720" y2="533" stroke="#0f172a" stroke-width="1.5"/><line x1="720" y1="533" x2="720" y2="542" stroke="#0f172a" stroke-width="1.5"/><polygon points="720,542 716,534 724,534" fill="#0f172a"/><metadata data-activity-kind="Else" data-activity-lane="default" data-activity-branch="0"/><metadata data-activity-kind="Action" data-activity-lane="default" data-activity-branch="0"/><rect x="930" y="606" width="220" height="36" rx="18" ry="18" fill="#ecfdf5" stroke="#047857" stroke-width="1.5"/><text x="1040" y="629" text-anchor="middle" font-family="monospace" font-size="12" fill="#0f172a">Retry</text><line x1="880" y1="524" x2="880" y2="563" stroke="#0f172a" stroke-width="1.5"/><line x1="880" y1="563" x2="1040" y2="563" stroke="#0f172a" stroke-width="1.5"/><line x1="1040" y1="563" x2="1040" y2="602" stroke="#0f172a" stroke-width="1.5"/><polygon points="1040,602 1036,594 1044,594" fill="#0f172a"/><metadata data-activity-kind="EndIf" data-activity-lane="default" data-activity-branch="0"/><metadata data-activity-kind="EndIf" data-activity-lane="default" data-activity-branch="0"/><metadata data-activity-kind="Else" data-activity-lane="default" data-activity-branch="0"/><metadata data-activity-kind="Action" data-activity-lane="default" data-activity-branch="0"/><rect x="1090" y="306" width="220" height="36" rx="18" ry="18" fill="#ecfdf5" stroke="#047857" stroke-width="1.5"/><text x="1200" y="329" text-anchor="middle" font-family="monospace" font-size="12" fill="#0f172a">Return 401</text><line x1="720" y1="584" x2="1200" y2="302" stroke="#0f172a" stroke-width="1.5"/><polygon points="1200,302 1195,310 1191,303" fill="#0f172a"/><line x1="1040" y1="644" x2="1200" y2="302" stroke="#0f172a" stroke-width="1.5"/><polygon points="1200,302 1200,311 1193,308" fill="#0f172a"/><line x1="880" y1="224" x2="880" y2="263" stroke="#0f172a" stroke-width="1.5"/><line x1="880" y1="263" x2="1200" y2="263" stroke="#0f172a" stroke-width="1.5"/><line x1="1200" y1="263" x2="1200" y2="302" stroke="#0f172a" stroke-width="1.5"/><polygon points="1200,302 1196,294 1204,294" fill="#0f172a"/><metadata data-activity-kind="EndIf" data-activity-lane="default" data-activity-branch="0"/><metadata data-activity-kind="Stop" data-activity-lane="default" data-activity-branch="0"/><circle cx="880" cy="922" r="14" fill="white" stroke="#0f172a" stroke-width="1.5"/><circle cx="880" cy="922" r="7" fill="#0f172a"/><line x1="1200" y1="344" x2="1200" y2="623" stroke="#0f172a" stroke-width="1.5"/><line x1="1200" y1="623" x2="880" y2="623" stroke="#0f172a" stroke-width="1.5"/><line x1="880" y1="623" x2="880" y2="902" stroke="#0f172a" stroke-width="1.5"/><polygon points="880,902 876,894 884,894" fill="#0f172a"/></svg>