<svg xmlns="http://www.w3.org/2000/svg" width="888" height="746" viewBox="0 0 888 746"><rect width="100%" height="100%" fill="#ecfdf5"/><text x="32" y="22" font-family="monospace" font-size="16" font-weight="600" fill="#0f172a">Authentication Flow</text><metadata data-activity-kind="Start" data-activity-lane="default" data-activity-branch="0"/><circle cx="436" cy="66" r="12" fill="#0f172a"/><metadata data-activity-kind="Action" data-activity-lane="default" data-activity-branch="0"/><rect x="356" y="94" width="160" height="36" rx="18" ry="18" fill="#ecfdf5" stroke="#047857" stroke-width="1.5"/><text x="436" y="117" text-anchor="middle" font-family="monospace" font-size="12" fill="#0f172a">Enter Credentials</text><polyline points="436,88 436,90" fill="none" stroke="#0f172a" stroke-width="1.5"/><polygon points="436,90 432,82 440,82" fill="#0f172a"/><metadata data-activity-kind="IfStart" data-activity-lane="default" data-activity-branch="0"/><polygon points="436,136 536,158 436,180 336,158" fill="#fef9c3" stroke="#047857" stroke-width="1.5"/><text x="436" y="162" text-anchor="middle" font-family="monospace" font-size="11" fill="#0f172a">Username valid?</text><polyline points="436,132 436,134" fill="none" stroke="#0f172a" stroke-width="1.5"/><polygon points="436,134 432,126 440,126" fill="#0f172a"/><metadata data-activity-kind="Action" data-activity-lane="default" data-activity-branch="0"/><rect x="276" y="182" width="160" height="36" rx="18" ry="18" fill="#ecfdf5" stroke="#047857" stroke-width="1.5"/><text x="356" y="205" text-anchor="middle" font-family="monospace" font-size="12" fill="#0f172a">Hash Password</text><polyline points="336,158 336,168 356,168 356,178" fill="none" stroke="#0f172a" stroke-width="1.5"/><polygon points="356,178 352,170 360,170" fill="#0f172a"/><text x="362" y="168" font-family="monospace" font-size="10" fill="#0f172a">no</text><metadata data-activity-kind="IfStart" data-activity-lane="default" data-activity-branch="0"/><polygon points="356,224 456,246 356,268 256,246" fill="#fef9c3" stroke="#047857" stroke-width="1.5"/><text x="356" y="250" text-anchor="middle" font-family="monospace" font-size="11" fill="#0f172a">Password match?</text><polyline points="356,220 356,222" fill="none" stroke="#0f172a" stroke-width="1.5"/><polygon points="356,222 352,214 360,214" fill="#0f172a"/><metadata data-activity-kind="IfStart" data-activity-lane="default" data-activity-branch="0"/><polygon points="276,268 376,290 276,312 176,290" fill="#fef9c3" stroke="#047857" stroke-width="1.5"/><text x="276" y="294" text-anchor="middle" font-family="monospace" font-size="11" fill="#0f172a">MFA enabled?</text><polyline points="256,246 256,256 276,256 276,266" fill="none" stroke="#0f172a" stroke-width="1.5"/><polygon points="276,266 272,258 280,258" fill="#0f172a"/><text x="282" y="256" font-family="monospace" font-size="10" fill="#0f172a">no</text><metadata data-activity-kind="Action" data-activity-lane="default" data-activity-branch="0"/><rect x="116" y="314" width="160" height="36" rx="18" ry="18" fill="#ecfdf5" stroke="#047857" stroke-width="1.5"/><text x="196" y="337" text-anchor="middle" font-family="monospace" font-size="12" fill="#0f172a">Send OTP</text><polyline points="176,290 176,300 196,300 196,310" fill="none" stroke="#0f172a" stroke-width="1.5"/><polygon points="196,310 192,302 200,302" fill="#0f172a"/><text x="202" y="300" font-family="monospace" font-size="10" fill="#0f172a">no</text><metadata data-activity-kind="IfStart" data-activity-lane="default" data-activity-branch="0"/><polygon points="196,356 296,378 196,400 96,378" fill="#fef9c3" stroke="#047857" stroke-width="1.5"/><text x="196" y="382" text-anchor="middle" font-family="monospace" font-size="11" fill="#0f172a">OTP valid?</text><polyline points="196,352 196,354" fill="none" stroke="#0f172a" stroke-width="1.5"/><polygon points="196,354 192,346 200,346" fill="#0f172a"/><metadata data-activity-kind="Action" data-activity-lane="default" data-activity-branch="0"/><rect x="36" y="402" width="160" height="36" rx="18" ry="18" fill="#ecfdf5" stroke="#047857" stroke-width="1.5"/><text x="116" y="425" text-anchor="middle" font-family="monospace" font-size="12" fill="#0f172a">Grant Access</text><polyline points="96,378 96,388 116,388 116,398" fill="none" stroke="#0f172a" stroke-width="1.5"/><polygon points="116,398 112,390 120,390" fill="#0f172a"/><text x="122" y="388" font-family="monospace" font-size="10" fill="#0f172a">no</text><metadata data-activity-kind="Else" data-activity-lane="default" data-activity-branch="0"/><metadata data-activity-kind="Action" data-activity-lane="default" data-activity-branch="0"/><rect x="196" y="446" width="160" height="36" rx="18" ry="18" fill="#ecfdf5" stroke="#047857" stroke-width="1.5"/><text x="276" y="469" text-anchor="middle" font-family="monospace" font-size="12" fill="#0f172a">Deny + Log</text><polyline points="196,396 196,419 276,419 276,442" fill="none" stroke="#0f172a" stroke-width="1.5"/><polygon points="276,442 272,434 280,434" fill="#0f172a"/><text x="282" y="419" font-family="monospace" font-size="10" fill="#0f172a">yes</text><metadata data-activity-kind="EndIf" data-activity-lane="default" data-activity-branch="0"/><metadata data-activity-kind="Else" data-activity-lane="default" data-activity-branch="0"/><metadata data-activity-kind="Action" data-activity-lane="default" data-activity-branch="0"/><rect x="276" y="358" width="160" height="36" rx="18" ry="18" fill="#ecfdf5" stroke="#047857" stroke-width="1.5"/><text x="356" y="381" text-anchor="middle" font-family="monospace" font-size="12" fill="#0f172a">Grant Access</text><polyline points="116,440 208,440 208,397 356,397 356,354" fill="none" stroke="#0f172a" stroke-width="1.5"/><polygon points="356,354 352,362 360,362" fill="#0f172a"/><polyline points="276,484 368,484 368,436 356,436 356,354" fill="none" stroke="#0f172a" stroke-width="1.5"/><polygon points="356,354 352,362 360,362" fill="#0f172a"/><polyline points="276,308 276,331 356,331 356,354" fill="none" stroke="#0f172a" stroke-width="1.5"/><polygon points="356,354 352,346 360,346" fill="#0f172a"/><text x="362" y="331" font-family="monospace" font-size="10" fill="#0f172a">yes</text><metadata data-activity-kind="EndIf" data-activity-lane="default" data-activity-branch="0"/><metadata data-activity-kind="Else" data-activity-lane="default" data-activity-branch="0"/><metadata data-activity-kind="Action" data-activity-lane="default" data-activity-branch="0"/><rect x="356" y="314" width="160" height="36" rx="18" ry="18" fill="#ecfdf5" stroke="#047857" stroke-width="1.5"/><text x="436" y="337" text-anchor="middle" font-family="monospace" font-size="12" fill="#0f172a">Increment Attempts</text><polyline points="356,396 528,396 528,353 436,353 436,310" fill="none" stroke="#0f172a" stroke-width="1.5"/><polygon points="436,310 432,318 440,318" fill="#0f172a"/><polyline points="356,264 356,287 436,287 436,310" fill="none" stroke="#0f172a" stroke-width="1.5"/><polygon points="436,310 432,302 440,302" fill="#0f172a"/><text x="442" y="287" font-family="monospace" font-size="10" fill="#0f172a">yes</text><metadata data-activity-kind="IfStart" data-activity-lane="default" data-activity-branch="0"/><polygon points="436,356 536,378 436,400 336,378" fill="#fef9c3" stroke="#047857" stroke-width="1.5"/><text x="436" y="382" text-anchor="middle" font-family="monospace" font-size="11" fill="#0f172a">Max attempts?</text><polyline points="436,352 436,354" fill="none" stroke="#0f172a" stroke-width="1.5"/><polygon points="436,354 432,346 440,346" fill="#0f172a"/><metadata data-activity-kind="Action" data-activity-lane="default" data-activity-branch="0"/><rect x="276" y="402" width="160" height="36" rx="18" ry="18" fill="#ecfdf5" stroke="#047857" stroke-width="1.5"/><text x="356" y="425" text-anchor="middle" font-family="monospace" font-size="12" fill="#0f172a">Lock Account</text><polyline points="336,378 336,388 356,388 356,398" fill="none" stroke="#0f172a" stroke-width="1.5"/><polygon points="356,398 352,390 360,390" fill="#0f172a"/><text x="362" y="388" font-family="monospace" font-size="10" fill="#0f172a">no</text><metadata data-activity-kind="Else" data-activity-lane="default" data-activity-branch="0"/><metadata data-activity-kind="Action" data-activity-lane="default" data-activity-branch="0"/><rect x="436" y="446" width="160" height="36" rx="18" ry="18" fill="#ecfdf5" stroke="#047857" stroke-width="1.5"/><text x="516" y="469" text-anchor="middle" font-family="monospace" font-size="12" fill="#0f172a">Retry</text><polyline points="436,396 436,419 516,419 516,442" fill="none" stroke="#0f172a" stroke-width="1.5"/><polygon points="516,442 512,434 520,434" fill="#0f172a"/><text x="522" y="419" font-family="monospace" font-size="10" fill="#0f172a">yes</text><metadata data-activity-kind="EndIf" data-activity-lane="default" data-activity-branch="0"/><metadata data-activity-kind="EndIf" data-activity-lane="default" data-activity-branch="0"/><metadata data-activity-kind="Else" data-activity-lane="default" data-activity-branch="0"/><metadata data-activity-kind="Action" data-activity-lane="default" data-activity-branch="0"/><rect x="516" y="226" width="160" height="36" rx="18" ry="18" fill="#ecfdf5" stroke="#047857" stroke-width="1.5"/><text x="596" y="249" text-anchor="middle" font-family="monospace" font-size="12" fill="#0f172a">Return 401</text><polyline points="356,440 528,440 528,348 596,348 596,222" fill="none" stroke="#0f172a" stroke-width="1.5"/><polygon points="596,222 592,230 600,230" fill="#0f172a"/><polyline points="516,484 608,484 608,353 596,353 596,222" fill="none" stroke="#0f172a" stroke-width="1.5"/><polygon points="596,222 592,230 600,230" fill="#0f172a"/><polyline points="436,176 436,199 596,199 596,222" fill="none" stroke="#0f172a" stroke-width="1.5"/><polygon points="596,222 592,214 600,214" fill="#0f172a"/><text x="602" y="199" font-family="monospace" font-size="10" fill="#0f172a">yes</text><metadata data-activity-kind="EndIf" data-activity-lane="default" data-activity-branch="0"/><metadata data-activity-kind="Stop" data-activity-lane="default" data-activity-branch="0"/><circle cx="436" cy="682" r="14" fill="white" stroke="#0f172a" stroke-width="1.5"/><circle cx="436" cy="682" r="7" fill="#0f172a"/><polyline points="596,264 596,480 436,480 436,662" fill="none" stroke="#0f172a" stroke-width="1.5"/><polygon points="436,662 432,654 440,654" fill="#0f172a"/></svg>