<svg xmlns="http://www.w3.org/2000/svg" width="568" height="570" viewBox="0 0 568 570"><rect width="100%" height="100%" fill="#ecfdf5"/><text x="32" y="22" font-family="monospace" font-size="16" font-weight="600" fill="#0f172a">Data Pipeline</text><metadata data-activity-kind="Start" data-activity-lane="default" data-activity-branch="0"/><circle cx="276" cy="66" r="12" fill="#0f172a"/><metadata data-activity-kind="Action" data-activity-lane="default" data-activity-branch="0"/><rect x="196" y="94" width="160" height="36" rx="18" ry="18" fill="#ecfdf5" stroke="#047857" stroke-width="1.5"/><text x="276" y="117" text-anchor="middle" font-family="monospace" font-size="12" fill="#0f172a">Ingest Raw Data</text><line x1="276" y1="88" x2="276" y2="90" stroke="#0f172a" stroke-width="1.5"/><polygon points="276,90 272,82 280,82" fill="#0f172a"/><metadata data-activity-kind="Fork" data-activity-lane="default" data-activity-branch="0"/><rect x="74" y="158" width="404" height="8" fill="#0f172a"/><line x1="276" y1="132" x2="276" y2="134" stroke="#0f172a" stroke-width="1.5"/><polygon points="276,134 272,126 280,126" fill="#0f172a"/><metadata data-activity-kind="Action" data-activity-lane="default" data-activity-branch="0"/><rect x="66" y="182" width="160" height="36" rx="18" ry="18" fill="#ecfdf5" stroke="#047857" stroke-width="1.5"/><text x="146" y="205" text-anchor="middle" font-family="monospace" font-size="12" fill="#0f172a">Validate Schema</text><metadata data-activity-kind="ForkAgain" data-activity-lane="default" data-activity-branch="1"/><metadata data-activity-kind="Action" data-activity-lane="default" data-activity-branch="1"/><rect x="326" y="182" width="160" height="36" rx="18" ry="18" fill="#ecfdf5" stroke="#047857" stroke-width="1.5"/><text x="406" y="205" text-anchor="middle" font-family="monospace" font-size="12" fill="#0f172a">Check Duplicates</text><metadata data-activity-kind="EndFork" data-activity-lane="default" data-activity-branch="0"/><rect x="74" y="246" width="404" height="8" fill="#0f172a"/><metadata data-activity-kind="IfStart" data-activity-lane="default" data-activity-branch="0"/><polygon points="276,268 376,290 276,312 176,290" fill="#fef9c3" stroke="#047857" stroke-width="1.5"/><text x="276" y="294" text-anchor="middle" font-family="monospace" font-size="11" fill="#0f172a">All checks pass?</text><line x1="276" y1="264" x2="276" y2="266" stroke="#0f172a" stroke-width="1.5"/><polygon points="276,266 272,258 280,258" fill="#0f172a"/><metadata data-activity-kind="Action" data-activity-lane="default" data-activity-branch="0"/><rect x="116" y="314" width="160" height="36" rx="18" ry="18" fill="#ecfdf5" stroke="#047857" stroke-width="1.5"/><text x="196" y="337" text-anchor="middle" font-family="monospace" font-size="12" fill="#0f172a">Transform Data</text><line x1="176" y1="290" x2="176" y2="300" stroke="#0f172a" stroke-width="1.5"/><line x1="176" y1="300" x2="196" y2="300" stroke="#0f172a" stroke-width="1.5"/><line x1="196" y1="300" x2="196" y2="310" stroke="#0f172a" stroke-width="1.5"/><polygon points="196,310 192,302 200,302" fill="#0f172a"/><text x="190" y="296" font-family="monospace" font-size="10" fill="#0f172a">no</text><metadata data-activity-kind="Action" data-activity-lane="default" data-activity-branch="0"/><rect x="116" y="358" width="160" height="36" rx="18" ry="18" fill="#ecfdf5" stroke="#047857" stroke-width="1.5"/><text x="196" y="381" text-anchor="middle" font-family="monospace" font-size="12" fill="#0f172a">Enrich</text><line x1="196" y1="352" x2="196" y2="354" stroke="#0f172a" stroke-width="1.5"/><polygon points="196,354 192,346 200,346" fill="#0f172a"/><metadata data-activity-kind="Action" data-activity-lane="default" data-activity-branch="0"/><rect x="116" y="402" width="160" height="36" rx="18" ry="18" fill="#ecfdf5" stroke="#047857" stroke-width="1.5"/><text x="196" y="425" text-anchor="middle" font-family="monospace" font-size="12" fill="#0f172a">Load to Warehouse</text><line x1="196" y1="396" x2="196" y2="398" stroke="#0f172a" stroke-width="1.5"/><polygon points="196,398 192,390 200,390" fill="#0f172a"/><metadata data-activity-kind="Else" data-activity-lane="default" data-activity-branch="0"/><metadata data-activity-kind="Action" data-activity-lane="default" data-activity-branch="0"/><rect x="276" y="358" width="160" height="36" rx="18" ry="18" fill="#ecfdf5" stroke="#047857" stroke-width="1.5"/><text x="356" y="381" text-anchor="middle" font-family="monospace" font-size="12" fill="#0f172a">Quarantine</text><line x1="276" y1="308" x2="276" y2="331" stroke="#0f172a" stroke-width="1.5"/><line x1="276" y1="331" x2="356" y2="331" stroke="#0f172a" stroke-width="1.5"/><line x1="356" y1="331" x2="356" y2="354" stroke="#0f172a" stroke-width="1.5"/><polygon points="356,354 352,346 360,346" fill="#0f172a"/><text x="320" y="327" font-family="monospace" font-size="10" fill="#0f172a">yes</text><metadata data-activity-kind="Action" data-activity-lane="default" data-activity-branch="0"/><rect x="276" y="402" width="160" height="36" rx="18" ry="18" fill="#ecfdf5" stroke="#047857" stroke-width="1.5"/><text x="356" y="425" text-anchor="middle" font-family="monospace" font-size="12" fill="#0f172a">Alert</text><line x1="356" y1="396" x2="356" y2="398" stroke="#0f172a" stroke-width="1.5"/><polygon points="356,398 352,390 360,390" fill="#0f172a"/><metadata data-activity-kind="EndIf" data-activity-lane="default" data-activity-branch="0"/><metadata data-activity-kind="Stop" data-activity-lane="default" data-activity-branch="0"/><circle cx="276" cy="506" r="14" fill="white" stroke="#0f172a" stroke-width="1.5"/><circle cx="276" cy="506" r="7" fill="#0f172a"/><line x1="196" y1="440" x2="196" y2="463" stroke="#0f172a" stroke-width="1.5"/><line x1="196" y1="463" x2="276" y2="463" stroke="#0f172a" stroke-width="1.5"/><line x1="276" y1="463" x2="276" y2="486" stroke="#0f172a" stroke-width="1.5"/><polygon points="276,486 272,478 280,478" fill="#0f172a"/><line x1="356" y1="440" x2="356" y2="463" stroke="#0f172a" stroke-width="1.5"/><line x1="356" y1="463" x2="276" y2="463" stroke="#0f172a" stroke-width="1.5"/><line x1="276" y1="463" x2="276" y2="486" stroke="#0f172a" stroke-width="1.5"/><polygon points="276,486 272,478 280,478" fill="#0f172a"/><line x1="146" y1="220" x2="146" y2="246" stroke="#0f172a" stroke-width="1.5"/><polygon points="146,246 142,238 150,238" fill="#0f172a"/><line x1="406" y1="220" x2="406" y2="246" stroke="#0f172a" stroke-width="1.5"/><polygon points="406,246 402,238 410,238" fill="#0f172a"/><line x1="146" y1="166" x2="146" y2="178" stroke="#0f172a" stroke-width="1.5"/><polygon points="146,178 142,170 150,170" fill="#0f172a"/><line x1="406" y1="166" x2="406" y2="178" stroke="#0f172a" stroke-width="1.5"/><polygon points="406,178 402,170 410,170" fill="#0f172a"/></svg>