<svg xmlns="http://www.w3.org/2000/svg" width="568" height="570" viewBox="0 0 568 570"><rect width="100%" height="100%" fill="#ecfdf5"/><text x="32" y="22" font-family="monospace" font-size="16" font-weight="600" fill="#0f172a">Data Pipeline</text><metadata data-activity-kind="Start" data-activity-lane="default" data-activity-branch="0"/><circle cx="276" cy="66" r="12" fill="#0f172a"/><metadata data-activity-kind="Action" data-activity-lane="default" data-activity-branch="0"/><rect x="196" y="94" width="160" height="36" rx="18" ry="18" fill="#ecfdf5" stroke="#047857" stroke-width="1.5"/><text x="276" y="117" text-anchor="middle" font-family="monospace" font-size="12" fill="#0f172a">Ingest Raw Data</text><polyline points="276,88 276,90" fill="none" stroke="#0f172a" stroke-width="1.5"/><polygon points="276,90 272,82 280,82" fill="#0f172a"/><metadata data-activity-kind="Fork" data-activity-lane="default" data-activity-branch="0"/><rect x="74" y="158" width="404" height="8" fill="#0f172a"/><polyline points="276,132 276,134" fill="none" stroke="#0f172a" stroke-width="1.5"/><polygon points="276,134 272,126 280,126" fill="#0f172a"/><metadata data-activity-kind="Action" data-activity-lane="default" data-activity-branch="0"/><rect x="66" y="182" width="160" height="36" rx="18" ry="18" fill="#ecfdf5" stroke="#047857" stroke-width="1.5"/><text x="146" y="205" text-anchor="middle" font-family="monospace" font-size="12" fill="#0f172a">Validate Schema</text><metadata data-activity-kind="ForkAgain" data-activity-lane="default" data-activity-branch="1"/><metadata data-activity-kind="Action" data-activity-lane="default" data-activity-branch="1"/><rect x="326" y="182" width="160" height="36" rx="18" ry="18" fill="#ecfdf5" stroke="#047857" stroke-width="1.5"/><text x="406" y="205" text-anchor="middle" font-family="monospace" font-size="12" fill="#0f172a">Check Duplicates</text><metadata data-activity-kind="EndFork" data-activity-lane="default" data-activity-branch="0"/><rect x="74" y="246" width="404" height="8" fill="#0f172a"/><metadata data-activity-kind="IfStart" data-activity-lane="default" data-activity-branch="0"/><polygon points="276,268 376,290 276,312 176,290" fill="#fef9c3" stroke="#047857" stroke-width="1.5"/><text x="276" y="294" text-anchor="middle" font-family="monospace" font-size="11" fill="#0f172a">All checks pass?</text><polyline points="276,264 276,266" fill="none" stroke="#0f172a" stroke-width="1.5"/><polygon points="276,266 272,258 280,258" fill="#0f172a"/><metadata data-activity-kind="Action" data-activity-lane="default" data-activity-branch="0"/><rect x="116" y="314" width="160" height="36" rx="18" ry="18" fill="#ecfdf5" stroke="#047857" stroke-width="1.5"/><text x="196" y="337" text-anchor="middle" font-family="monospace" font-size="12" fill="#0f172a">Transform Data</text><polyline points="176,290 176,300 196,300 196,310" fill="none" stroke="#0f172a" stroke-width="1.5"/><polygon points="196,310 192,302 200,302" fill="#0f172a"/><text x="190" y="295" font-family="monospace" font-size="10" fill="#0f172a">yes</text><metadata data-activity-kind="Action" data-activity-lane="default" data-activity-branch="0"/><rect x="116" y="358" width="160" height="36" rx="18" ry="18" fill="#ecfdf5" stroke="#047857" stroke-width="1.5"/><text x="196" y="381" text-anchor="middle" font-family="monospace" font-size="12" fill="#0f172a">Enrich</text><polyline points="196,352 196,354" fill="none" stroke="#0f172a" stroke-width="1.5"/><polygon points="196,354 192,346 200,346" fill="#0f172a"/><metadata data-activity-kind="Action" data-activity-lane="default" data-activity-branch="0"/><rect x="116" y="402" width="160" height="36" rx="18" ry="18" fill="#ecfdf5" stroke="#047857" stroke-width="1.5"/><text x="196" y="425" text-anchor="middle" font-family="monospace" font-size="12" fill="#0f172a">Load to Warehouse</text><polyline points="196,396 196,398" fill="none" stroke="#0f172a" stroke-width="1.5"/><polygon points="196,398 192,390 200,390" fill="#0f172a"/><metadata data-activity-kind="Else" data-activity-lane="default" data-activity-branch="0"/><metadata data-activity-kind="Action" data-activity-lane="default" data-activity-branch="0"/><rect x="276" y="358" width="160" height="36" rx="18" ry="18" fill="#ecfdf5" stroke="#047857" stroke-width="1.5"/><text x="356" y="381" text-anchor="middle" font-family="monospace" font-size="12" fill="#0f172a">Quarantine</text><polyline points="276,308 276,331 356,331 356,354" fill="none" stroke="#0f172a" stroke-width="1.5"/><polygon points="356,354 352,346 360,346" fill="#0f172a"/><text x="290" y="319" font-family="monospace" font-size="10" fill="#0f172a">no</text><metadata data-activity-kind="Action" data-activity-lane="default" data-activity-branch="0"/><rect x="276" y="402" width="160" height="36" rx="18" ry="18" fill="#ecfdf5" stroke="#047857" stroke-width="1.5"/><text x="356" y="425" text-anchor="middle" font-family="monospace" font-size="12" fill="#0f172a">Alert</text><polyline points="356,396 356,398" fill="none" stroke="#0f172a" stroke-width="1.5"/><polygon points="356,398 352,390 360,390" fill="#0f172a"/><metadata data-activity-kind="EndIf" data-activity-lane="default" data-activity-branch="0"/><metadata data-activity-kind="Stop" data-activity-lane="default" data-activity-branch="0"/><circle cx="276" cy="506" r="14" fill="white" stroke="#0f172a" stroke-width="1.5"/><circle cx="276" cy="506" r="7" fill="#0f172a"/><polyline points="196,440 196,463 276,463 276,486" fill="none" stroke="#0f172a" stroke-width="1.5"/><polygon points="276,486 272,478 280,478" fill="#0f172a"/><polyline points="356,440 356,463 276,463 276,486" fill="none" stroke="#0f172a" stroke-width="1.5"/><polygon points="276,486 272,478 280,478" fill="#0f172a"/><polyline points="146,220 146,246" fill="none" stroke="#0f172a" stroke-width="1.5"/><polygon points="146,246 142,238 150,238" fill="#0f172a"/><polyline points="406,220 406,246" fill="none" stroke="#0f172a" stroke-width="1.5"/><polygon points="406,246 402,238 410,238" fill="#0f172a"/><polyline points="146,166 146,178" fill="none" stroke="#0f172a" stroke-width="1.5"/><polygon points="146,178 142,170 150,170" fill="#0f172a"/><polyline points="406,166 406,178" fill="none" stroke="#0f172a" stroke-width="1.5"/><polygon points="406,178 402,170 410,170" fill="#0f172a"/></svg>