<svg xmlns="http://www.w3.org/2000/svg" width="728" height="834" viewBox="0 0 728 834"><rect width="100%" height="100%" fill="#ecfdf5"/><text x="32" y="22" font-family="monospace" font-size="16" font-weight="600" fill="#0f172a">Deployment Pipeline</text><metadata data-activity-kind="Start" data-activity-lane="default" data-activity-branch="0"/><circle cx="356" cy="66" r="12" fill="#0f172a"/><metadata data-activity-kind="Action" data-activity-lane="default" data-activity-branch="0"/><rect x="276" y="94" width="160" height="36" rx="18" ry="18" fill="#ecfdf5" stroke="#047857" stroke-width="1.5"/><text x="356" y="117" text-anchor="middle" font-family="monospace" font-size="12" fill="#0f172a">Code Push</text><line x1="356" y1="88" x2="356" y2="90" stroke="#0f172a" stroke-width="1.5"/><polygon points="356,90 352,82 360,82" fill="#0f172a"/><metadata data-activity-kind="Action" data-activity-lane="default" data-activity-branch="0"/><rect x="276" y="138" width="160" height="36" rx="18" ry="18" fill="#ecfdf5" stroke="#047857" stroke-width="1.5"/><text x="356" y="161" text-anchor="middle" font-family="monospace" font-size="12" fill="#0f172a">Run Tests</text><line x1="356" y1="132" x2="356" y2="134" stroke="#0f172a" stroke-width="1.5"/><polygon points="356,134 352,126 360,126" fill="#0f172a"/><metadata data-activity-kind="IfStart" data-activity-lane="default" data-activity-branch="0"/><polygon points="356,180 456,202 356,224 256,202" fill="#fef9c3" stroke="#047857" stroke-width="1.5"/><text x="356" y="206" text-anchor="middle" font-family="monospace" font-size="11" fill="#0f172a">Tests pass?</text><line x1="356" y1="176" x2="356" y2="178" stroke="#0f172a" stroke-width="1.5"/><polygon points="356,178 352,170 360,170" fill="#0f172a"/><metadata data-activity-kind="Action" data-activity-lane="default" data-activity-branch="0"/><rect x="196" y="226" width="160" height="36" rx="18" ry="18" fill="#ecfdf5" stroke="#047857" stroke-width="1.5"/><text x="276" y="249" text-anchor="middle" font-family="monospace" font-size="12" fill="#0f172a">Build Artifact</text><line x1="256" y1="202" x2="256" y2="212" stroke="#0f172a" stroke-width="1.5"/><line x1="256" y1="212" x2="276" y2="212" stroke="#0f172a" stroke-width="1.5"/><line x1="276" y1="212" x2="276" y2="222" stroke="#0f172a" stroke-width="1.5"/><polygon points="276,222 272,214 280,214" fill="#0f172a"/><text x="270" y="208" font-family="monospace" font-size="10" fill="#0f172a">no</text><metadata data-activity-kind="Action" data-activity-lane="default" data-activity-branch="0"/><rect x="196" y="270" width="160" height="36" rx="18" ry="18" fill="#ecfdf5" stroke="#047857" stroke-width="1.5"/><text x="276" y="293" text-anchor="middle" font-family="monospace" font-size="12" fill="#0f172a">Push to Registry</text><line x1="276" y1="264" x2="276" y2="266" stroke="#0f172a" stroke-width="1.5"/><polygon points="276,266 272,258 280,258" fill="#0f172a"/><metadata data-activity-kind="Action" data-activity-lane="default" data-activity-branch="0"/><rect x="196" y="314" width="160" height="36" rx="18" ry="18" fill="#ecfdf5" stroke="#047857" stroke-width="1.5"/><text x="276" y="337" text-anchor="middle" font-family="monospace" font-size="12" fill="#0f172a">Deploy to Staging</text><line x1="276" y1="308" x2="276" y2="310" stroke="#0f172a" stroke-width="1.5"/><polygon points="276,310 272,302 280,302" fill="#0f172a"/><metadata data-activity-kind="IfStart" data-activity-lane="default" data-activity-branch="0"/><polygon points="276,356 376,378 276,400 176,378" fill="#fef9c3" stroke="#047857" stroke-width="1.5"/><text x="276" y="382" text-anchor="middle" font-family="monospace" font-size="11" fill="#0f172a">Staging OK?</text><line x1="276" y1="352" x2="276" y2="354" stroke="#0f172a" stroke-width="1.5"/><polygon points="276,354 272,346 280,346" fill="#0f172a"/><metadata data-activity-kind="Action" data-activity-lane="default" data-activity-branch="0"/><rect x="116" y="402" width="160" height="36" rx="18" ry="18" fill="#ecfdf5" stroke="#047857" stroke-width="1.5"/><text x="196" y="425" text-anchor="middle" font-family="monospace" font-size="12" fill="#0f172a">Promote to Prod</text><line x1="176" y1="378" x2="176" y2="388" stroke="#0f172a" stroke-width="1.5"/><line x1="176" y1="388" x2="196" y2="388" stroke="#0f172a" stroke-width="1.5"/><line x1="196" y1="388" x2="196" y2="398" stroke="#0f172a" stroke-width="1.5"/><polygon points="196,398 192,390 200,390" fill="#0f172a"/><text x="190" y="384" font-family="monospace" font-size="10" fill="#0f172a">no</text><metadata data-activity-kind="Action" data-activity-lane="default" data-activity-branch="0"/><rect x="116" y="446" width="160" height="36" rx="18" ry="18" fill="#ecfdf5" stroke="#047857" stroke-width="1.5"/><text x="196" y="469" text-anchor="middle" font-family="monospace" font-size="12" fill="#0f172a">Smoke Tests</text><line x1="196" y1="440" x2="196" y2="442" stroke="#0f172a" stroke-width="1.5"/><polygon points="196,442 192,434 200,434" fill="#0f172a"/><metadata data-activity-kind="IfStart" data-activity-lane="default" data-activity-branch="0"/><polygon points="196,488 296,510 196,532 96,510" fill="#fef9c3" stroke="#047857" stroke-width="1.5"/><text x="196" y="514" text-anchor="middle" font-family="monospace" font-size="11" fill="#0f172a">Smoke OK?</text><line x1="196" y1="484" x2="196" y2="486" stroke="#0f172a" stroke-width="1.5"/><polygon points="196,486 192,478 200,478" fill="#0f172a"/><metadata data-activity-kind="Action" data-activity-lane="default" data-activity-branch="0"/><rect x="36" y="534" width="160" height="36" rx="18" ry="18" fill="#ecfdf5" stroke="#047857" stroke-width="1.5"/><text x="116" y="557" text-anchor="middle" font-family="monospace" font-size="12" fill="#0f172a">Done</text><line x1="96" y1="510" x2="96" y2="520" stroke="#0f172a" stroke-width="1.5"/><line x1="96" y1="520" x2="116" y2="520" stroke="#0f172a" stroke-width="1.5"/><line x1="116" y1="520" x2="116" y2="530" stroke="#0f172a" stroke-width="1.5"/><polygon points="116,530 112,522 120,522" fill="#0f172a"/><text x="110" y="516" font-family="monospace" font-size="10" fill="#0f172a">no</text><metadata data-activity-kind="Else" data-activity-lane="default" data-activity-branch="0"/><metadata data-activity-kind="Action" data-activity-lane="default" data-activity-branch="0"/><rect x="196" y="578" width="160" height="36" rx="18" ry="18" fill="#ecfdf5" stroke="#047857" stroke-width="1.5"/><text x="276" y="601" text-anchor="middle" font-family="monospace" font-size="12" fill="#0f172a">Rollback</text><line x1="196" y1="528" x2="196" y2="551" stroke="#0f172a" stroke-width="1.5"/><line x1="196" y1="551" x2="276" y2="551" stroke="#0f172a" stroke-width="1.5"/><line x1="276" y1="551" x2="276" y2="574" stroke="#0f172a" stroke-width="1.5"/><polygon points="276,574 272,566 280,566" fill="#0f172a"/><text x="240" y="547" font-family="monospace" font-size="10" fill="#0f172a">yes</text><metadata data-activity-kind="EndIf" data-activity-lane="default" data-activity-branch="0"/><metadata data-activity-kind="Else" data-activity-lane="default" data-activity-branch="0"/><metadata data-activity-kind="Action" data-activity-lane="default" data-activity-branch="0"/><line x1="196" y1="528" x2="196" y2="551" stroke="#0f172a" stroke-width="1.5"/><line x1="196" y1="551" x2="276" y2="551" stroke="#0f172a" stroke-width="1.5"/><line x1="276" y1="551" x2="276" y2="574" stroke="#0f172a" stroke-width="1.5"/><polygon points="276,574 272,566 280,566" fill="#0f172a"/><text x="240" y="547" font-family="monospace" font-size="10" fill="#0f172a">yes</text><metadata data-activity-kind="EndIf" data-activity-lane="default" data-activity-branch="0"/><metadata data-activity-kind="Else" data-activity-lane="default" data-activity-branch="0"/><metadata data-activity-kind="Action" data-activity-lane="default" data-activity-branch="0"/><rect x="356" y="270" width="160" height="36" rx="18" ry="18" fill="#ecfdf5" stroke="#047857" stroke-width="1.5"/><text x="436" y="293" text-anchor="middle" font-family="monospace" font-size="12" fill="#0f172a">Notify Dev</text><line x1="116" y1="572" x2="288" y2="572" stroke="#0f172a" stroke-width="1.5"/><line x1="288" y1="572" x2="288" y2="436" stroke="#0f172a" stroke-width="1.5"/><line x1="288" y1="436" x2="436" y2="436" stroke="#0f172a" stroke-width="1.5"/><line x1="436" y1="436" x2="436" y2="266" stroke="#0f172a" stroke-width="1.5"/><polygon points="436,266 432,274 440,274" fill="#0f172a"/><line x1="276" y1="396" x2="368" y2="396" stroke="#0f172a" stroke-width="1.5"/><line x1="368" y1="396" x2="368" y2="348" stroke="#0f172a" stroke-width="1.5"/><line x1="368" y1="348" x2="436" y2="348" stroke="#0f172a" stroke-width="1.5"/><line x1="436" y1="348" x2="436" y2="266" stroke="#0f172a" stroke-width="1.5"/><polygon points="436,266 432,274 440,274" fill="#0f172a"/><text x="360" y="344" font-family="monospace" font-size="10" fill="#0f172a">yes</text><line x1="356" y1="484" x2="356" y2="375" stroke="#0f172a" stroke-width="1.5"/><line x1="356" y1="375" x2="436" y2="375" stroke="#0f172a" stroke-width="1.5"/><line x1="436" y1="375" x2="436" y2="266" stroke="#0f172a" stroke-width="1.5"/><polygon points="436,266 432,274 440,274" fill="#0f172a"/><line x1="356" y1="220" x2="356" y2="243" stroke="#0f172a" stroke-width="1.5"/><line x1="356" y1="243" x2="436" y2="243" stroke="#0f172a" stroke-width="1.5"/><line x1="436" y1="243" x2="436" y2="266" stroke="#0f172a" stroke-width="1.5"/><polygon points="436,266 432,258 440,258" fill="#0f172a"/><text x="400" y="239" font-family="monospace" font-size="10" fill="#0f172a">yes</text><metadata data-activity-kind="EndIf" data-activity-lane="default" data-activity-branch="0"/><metadata data-activity-kind="Stop" data-activity-lane="default" data-activity-branch="0"/><circle cx="356" cy="770" r="14" fill="white" stroke="#0f172a" stroke-width="1.5"/><circle cx="356" cy="770" r="7" fill="#0f172a"/><line x1="436" y1="308" x2="436" y2="529" stroke="#0f172a" stroke-width="1.5"/><line x1="436" y1="529" x2="356" y2="529" stroke="#0f172a" stroke-width="1.5"/><line x1="356" y1="529" x2="356" y2="750" stroke="#0f172a" stroke-width="1.5"/><polygon points="356,750 352,742 360,742" fill="#0f172a"/></svg>