<svg xmlns="http://www.w3.org/2000/svg" width="1440" height="1142" viewBox="0 0 1440 1142"><rect width="100%" height="100%" fill="#ecfdf5"/><text x="32" y="28" font-family="monospace" font-size="18" font-weight="600" fill="#0f172a">Deployment Pipeline</text><text x="32" y="52" font-family="monospace" font-size="12" fill="#0f172a">activity diagram</text><rect x="32" y="54" width="1376" height="1060" fill="#ecfdf5" stroke="#cbd5e1" stroke-width="1" stroke-dasharray="4 3"/><metadata data-activity-kind="Start" data-activity-lane="default" data-activity-branch="0"/><circle cx="720" cy="82" r="12" fill="#0f172a"/><metadata data-activity-kind="Action" data-activity-lane="default" data-activity-branch="0"/><rect x="610" y="126" width="220" height="36" rx="18" ry="18" fill="#ecfdf5" stroke="#047857" stroke-width="1.5"/><text x="720" y="149" text-anchor="middle" font-family="monospace" font-size="12" fill="#0f172a">Code Push</text><line x1="720" y1="104" x2="720" y2="122" stroke="#0f172a" stroke-width="1.5"/><polygon points="720,122 716,114 724,114" fill="#0f172a"/><metadata data-activity-kind="Action" data-activity-lane="default" data-activity-branch="0"/><rect x="610" y="186" width="220" height="36" rx="18" ry="18" fill="#ecfdf5" stroke="#047857" stroke-width="1.5"/><text x="720" y="209" text-anchor="middle" font-family="monospace" font-size="12" fill="#0f172a">Run Tests</text><line x1="720" y1="164" x2="720" y2="182" stroke="#0f172a" stroke-width="1.5"/><polygon points="720,182 716,174 724,174" fill="#0f172a"/><metadata data-activity-kind="IfStart" data-activity-lane="default" data-activity-branch="0"/><polygon points="720,244 820,266 720,288 620,266" fill="#fef9c3" stroke="#047857" stroke-width="1.5"/><text x="720" y="270" text-anchor="middle" font-family="monospace" font-size="11" fill="#0f172a">Tests pass? / yes</text><line x1="720" y1="224" x2="720" y2="242" stroke="#0f172a" stroke-width="1.5"/><polygon points="720,242 716,234 724,234" fill="#0f172a"/><metadata data-activity-kind="Action" data-activity-lane="default" data-activity-branch="0"/><rect x="610" y="306" width="220" height="36" rx="18" ry="18" fill="#ecfdf5" stroke="#047857" stroke-width="1.5"/><text x="720" y="329" text-anchor="middle" font-family="monospace" font-size="12" fill="#0f172a">Build Artifact</text><line x1="720" y1="284" x2="720" y2="302" stroke="#0f172a" stroke-width="1.5"/><polygon points="720,302 716,294 724,294" fill="#0f172a"/><metadata data-activity-kind="Action" data-activity-lane="default" data-activity-branch="0"/><rect x="610" y="366" width="220" height="36" rx="18" ry="18" fill="#ecfdf5" stroke="#047857" stroke-width="1.5"/><text x="720" y="389" text-anchor="middle" font-family="monospace" font-size="12" fill="#0f172a">Push to Registry</text><line x1="720" y1="344" x2="720" y2="362" stroke="#0f172a" stroke-width="1.5"/><polygon points="720,362 716,354 724,354" fill="#0f172a"/><metadata data-activity-kind="Action" data-activity-lane="default" data-activity-branch="0"/><rect x="610" y="426" width="220" height="36" rx="18" ry="18" fill="#ecfdf5" stroke="#047857" stroke-width="1.5"/><text x="720" y="449" text-anchor="middle" font-family="monospace" font-size="12" fill="#0f172a">Deploy to Staging</text><line x1="720" y1="404" x2="720" y2="422" stroke="#0f172a" stroke-width="1.5"/><polygon points="720,422 716,414 724,414" fill="#0f172a"/><metadata data-activity-kind="IfStart" data-activity-lane="default" data-activity-branch="0"/><polygon points="720,484 820,506 720,528 620,506" fill="#fef9c3" stroke="#047857" stroke-width="1.5"/><text x="720" y="510" text-anchor="middle" font-family="monospace" font-size="11" fill="#0f172a">Staging OK? / yes</text><line x1="720" y1="464" x2="720" y2="482" stroke="#0f172a" stroke-width="1.5"/><polygon points="720,482 716,474 724,474" fill="#0f172a"/><metadata data-activity-kind="Action" data-activity-lane="default" data-activity-branch="0"/><rect x="610" y="546" width="220" height="36" rx="18" ry="18" fill="#ecfdf5" stroke="#047857" stroke-width="1.5"/><text x="720" y="569" text-anchor="middle" font-family="monospace" font-size="12" fill="#0f172a">Promote to Prod</text><line x1="720" y1="524" x2="720" y2="542" stroke="#0f172a" stroke-width="1.5"/><polygon points="720,542 716,534 724,534" fill="#0f172a"/><metadata data-activity-kind="Action" data-activity-lane="default" data-activity-branch="0"/><rect x="610" y="606" width="220" height="36" rx="18" ry="18" fill="#ecfdf5" stroke="#047857" stroke-width="1.5"/><text x="720" y="629" text-anchor="middle" font-family="monospace" font-size="12" fill="#0f172a">Smoke Tests</text><line x1="720" y1="584" x2="720" y2="602" stroke="#0f172a" stroke-width="1.5"/><polygon points="720,602 716,594 724,594" fill="#0f172a"/><metadata data-activity-kind="IfStart" data-activity-lane="default" data-activity-branch="0"/><polygon points="720,664 820,686 720,708 620,686" fill="#fef9c3" stroke="#047857" stroke-width="1.5"/><text x="720" y="690" text-anchor="middle" font-family="monospace" font-size="11" fill="#0f172a">Smoke OK? / yes</text><line x1="720" y1="644" x2="720" y2="662" stroke="#0f172a" stroke-width="1.5"/><polygon points="720,662 716,654 724,654" fill="#0f172a"/><metadata data-activity-kind="Action" data-activity-lane="default" data-activity-branch="0"/><rect x="610" y="726" width="220" height="36" rx="18" ry="18" fill="#ecfdf5" stroke="#047857" stroke-width="1.5"/><text x="720" y="749" text-anchor="middle" font-family="monospace" font-size="12" fill="#0f172a">Done</text><line x1="720" y1="704" x2="720" y2="722" stroke="#0f172a" stroke-width="1.5"/><polygon points="720,722 716,714 724,714" fill="#0f172a"/><metadata data-activity-kind="Else" data-activity-lane="default" data-activity-branch="0"/><text x="880" y="750" text-anchor="middle" font-family="monospace" font-size="11" fill="#0f172a">(else) no</text><line x1="720" y1="704" x2="880" y2="722" stroke="#0f172a" stroke-width="1.5"/><polygon points="880,722 872,725 872,717" fill="#0f172a"/><metadata data-activity-kind="Action" data-activity-lane="default" data-activity-branch="0"/><rect x="770" y="786" width="220" height="36" rx="18" ry="18" fill="#ecfdf5" stroke="#047857" stroke-width="1.5"/><text x="880" y="809" text-anchor="middle" font-family="monospace" font-size="12" fill="#0f172a">Rollback</text><line x1="880" y1="764" x2="880" y2="782" stroke="#0f172a" stroke-width="1.5"/><polygon points="880,782 876,774 884,774" fill="#0f172a"/><metadata data-activity-kind="EndIf" data-activity-lane="default" data-activity-branch="0"/><text x="720" y="870" text-anchor="middle" font-family="monospace" font-size="11" fill="#0f172a">(endif)</text><line x1="720" y1="764" x2="720" y2="842" stroke="#0f172a" stroke-width="1.5"/><polygon points="720,842 716,834 724,834" fill="#0f172a"/><line x1="880" y1="824" x2="720" y2="842" stroke="#0f172a" stroke-width="1.5"/><polygon points="720,842 728,837 728,845" fill="#0f172a"/><metadata data-activity-kind="Else" data-activity-lane="default" data-activity-branch="0"/><text x="1040" y="570" text-anchor="middle" font-family="monospace" font-size="11" fill="#0f172a">(else) no</text><line x1="720" y1="524" x2="1040" y2="542" stroke="#0f172a" stroke-width="1.5"/><polygon points="1040,542 1032,546 1032,538" fill="#0f172a"/><metadata data-activity-kind="Action" data-activity-lane="default" data-activity-branch="0"/><rect x="930" y="606" width="220" height="36" rx="18" ry="18" fill="#ecfdf5" stroke="#047857" stroke-width="1.5"/><text x="1040" y="629" text-anchor="middle" font-family="monospace" font-size="12" fill="#0f172a">Rollback</text><line x1="1040" y1="584" x2="1040" y2="602" stroke="#0f172a" stroke-width="1.5"/><polygon points="1040,602 1036,594 1044,594" fill="#0f172a"/><metadata data-activity-kind="EndIf" data-activity-lane="default" data-activity-branch="0"/><text x="720" y="930" text-anchor="middle" font-family="monospace" font-size="11" fill="#0f172a">(endif)</text><line x1="720" y1="884" x2="720" y2="902" stroke="#0f172a" stroke-width="1.5"/><polygon points="720,902 716,894 724,894" fill="#0f172a"/><line x1="1040" y1="644" x2="720" y2="902" stroke="#0f172a" stroke-width="1.5"/><polygon points="720,902 724,894 729,900" fill="#0f172a"/><metadata data-activity-kind="Else" data-activity-lane="default" data-activity-branch="0"/><text x="1200" y="330" text-anchor="middle" font-family="monospace" font-size="11" fill="#0f172a">(else) no</text><line x1="720" y1="284" x2="1200" y2="302" stroke="#0f172a" stroke-width="1.5"/><polygon points="1200,302 1192,306 1192,298" fill="#0f172a"/><metadata data-activity-kind="Action" data-activity-lane="default" data-activity-branch="0"/><rect x="1090" y="366" width="220" height="36" rx="18" ry="18" fill="#ecfdf5" stroke="#047857" stroke-width="1.5"/><text x="1200" y="389" text-anchor="middle" font-family="monospace" font-size="12" fill="#0f172a">Notify Dev</text><line x1="1200" y1="344" x2="1200" y2="362" stroke="#0f172a" stroke-width="1.5"/><polygon points="1200,362 1196,354 1204,354" fill="#0f172a"/><metadata data-activity-kind="EndIf" data-activity-lane="default" data-activity-branch="0"/><text x="720" y="990" text-anchor="middle" font-family="monospace" font-size="11" fill="#0f172a">(endif)</text><line x1="720" y1="944" x2="720" y2="962" stroke="#0f172a" stroke-width="1.5"/><polygon points="720,962 716,954 724,954" fill="#0f172a"/><line x1="1200" y1="404" x2="720" y2="962" stroke="#0f172a" stroke-width="1.5"/><polygon points="720,962 722,953 728,959" fill="#0f172a"/><metadata data-activity-kind="Stop" data-activity-lane="default" data-activity-branch="0"/><circle cx="720" cy="1042" r="14" fill="white" stroke="#0f172a" stroke-width="1.5"/><circle cx="720" cy="1042" r="7" fill="#0f172a"/><line x1="720" y1="1004" x2="720" y2="1022" stroke="#0f172a" stroke-width="1.5"/><polygon points="720,1022 716,1014 724,1014" fill="#0f172a"/></svg>