<svg xmlns="http://www.w3.org/2000/svg" width="728" height="834" viewBox="0 0 728 834"><rect width="100%" height="100%" fill="#ecfdf5"/><text x="32" y="22" font-family="monospace" font-size="16" font-weight="600" fill="#0f172a">Deployment Pipeline</text><metadata data-activity-kind="Start" data-activity-lane="default" data-activity-branch="0"/><circle cx="356" cy="66" r="12" fill="#0f172a"/><metadata data-activity-kind="Action" data-activity-lane="default" data-activity-branch="0"/><rect x="276" y="94" width="160" height="36" rx="18" ry="18" fill="#ecfdf5" stroke="#047857" stroke-width="1.5"/><text x="356" y="117" text-anchor="middle" font-family="monospace" font-size="12" fill="#0f172a">Code Push</text><polyline points="356,88 356,90" fill="none" stroke="#0f172a" stroke-width="1.5"/><polygon points="356,90 352,82 360,82" fill="#0f172a"/><metadata data-activity-kind="Action" data-activity-lane="default" data-activity-branch="0"/><rect x="276" y="138" width="160" height="36" rx="18" ry="18" fill="#ecfdf5" stroke="#047857" stroke-width="1.5"/><text x="356" y="161" text-anchor="middle" font-family="monospace" font-size="12" fill="#0f172a">Run Tests</text><polyline points="356,132 356,134" fill="none" stroke="#0f172a" stroke-width="1.5"/><polygon points="356,134 352,126 360,126" fill="#0f172a"/><metadata data-activity-kind="IfStart" data-activity-lane="default" data-activity-branch="0"/><polygon points="356,180 456,202 356,224 256,202" fill="#fef9c3" stroke="#047857" stroke-width="1.5"/><text x="356" y="206" text-anchor="middle" font-family="monospace" font-size="11" fill="#0f172a">Tests pass?</text><polyline points="356,176 356,178" fill="none" stroke="#0f172a" stroke-width="1.5"/><polygon points="356,178 352,170 360,170" fill="#0f172a"/><metadata data-activity-kind="Action" data-activity-lane="default" data-activity-branch="0"/><rect x="196" y="226" width="160" height="36" rx="18" ry="18" fill="#ecfdf5" stroke="#047857" stroke-width="1.5"/><text x="276" y="249" text-anchor="middle" font-family="monospace" font-size="12" fill="#0f172a">Build Artifact</text><polyline points="256,202 256,212 276,212 276,222" fill="none" stroke="#0f172a" stroke-width="1.5"/><polygon points="276,222 272,214 280,214" fill="#0f172a"/><text x="282" y="212" font-family="monospace" font-size="10" fill="#0f172a">no</text><metadata data-activity-kind="Action" data-activity-lane="default" data-activity-branch="0"/><rect x="196" y="270" width="160" height="36" rx="18" ry="18" fill="#ecfdf5" stroke="#047857" stroke-width="1.5"/><text x="276" y="293" text-anchor="middle" font-family="monospace" font-size="12" fill="#0f172a">Push to Registry</text><polyline points="276,264 276,266" fill="none" stroke="#0f172a" stroke-width="1.5"/><polygon points="276,266 272,258 280,258" fill="#0f172a"/><metadata data-activity-kind="Action" data-activity-lane="default" data-activity-branch="0"/><rect x="196" y="314" width="160" height="36" rx="18" ry="18" fill="#ecfdf5" stroke="#047857" stroke-width="1.5"/><text x="276" y="337" text-anchor="middle" font-family="monospace" font-size="12" fill="#0f172a">Deploy to Staging</text><polyline points="276,308 276,310" fill="none" stroke="#0f172a" stroke-width="1.5"/><polygon points="276,310 272,302 280,302" fill="#0f172a"/><metadata data-activity-kind="IfStart" data-activity-lane="default" data-activity-branch="0"/><polygon points="276,356 376,378 276,400 176,378" fill="#fef9c3" stroke="#047857" stroke-width="1.5"/><text x="276" y="382" text-anchor="middle" font-family="monospace" font-size="11" fill="#0f172a">Staging OK?</text><polyline points="276,352 276,354" fill="none" stroke="#0f172a" stroke-width="1.5"/><polygon points="276,354 272,346 280,346" fill="#0f172a"/><metadata data-activity-kind="Action" data-activity-lane="default" data-activity-branch="0"/><rect x="116" y="402" width="160" height="36" rx="18" ry="18" fill="#ecfdf5" stroke="#047857" stroke-width="1.5"/><text x="196" y="425" text-anchor="middle" font-family="monospace" font-size="12" fill="#0f172a">Promote to Prod</text><polyline points="176,378 176,388 196,388 196,398" fill="none" stroke="#0f172a" stroke-width="1.5"/><polygon points="196,398 192,390 200,390" fill="#0f172a"/><text x="202" y="388" font-family="monospace" font-size="10" fill="#0f172a">no</text><metadata data-activity-kind="Action" data-activity-lane="default" data-activity-branch="0"/><rect x="116" y="446" width="160" height="36" rx="18" ry="18" fill="#ecfdf5" stroke="#047857" stroke-width="1.5"/><text x="196" y="469" text-anchor="middle" font-family="monospace" font-size="12" fill="#0f172a">Smoke Tests</text><polyline points="196,440 196,442" fill="none" stroke="#0f172a" stroke-width="1.5"/><polygon points="196,442 192,434 200,434" fill="#0f172a"/><metadata data-activity-kind="IfStart" data-activity-lane="default" data-activity-branch="0"/><polygon points="196,488 296,510 196,532 96,510" fill="#fef9c3" stroke="#047857" stroke-width="1.5"/><text x="196" y="514" text-anchor="middle" font-family="monospace" font-size="11" fill="#0f172a">Smoke OK?</text><polyline points="196,484 196,486" fill="none" stroke="#0f172a" stroke-width="1.5"/><polygon points="196,486 192,478 200,478" fill="#0f172a"/><metadata data-activity-kind="Action" data-activity-lane="default" data-activity-branch="0"/><rect x="36" y="534" width="160" height="36" rx="18" ry="18" fill="#ecfdf5" stroke="#047857" stroke-width="1.5"/><text x="116" y="557" text-anchor="middle" font-family="monospace" font-size="12" fill="#0f172a">Done</text><polyline points="96,510 96,520 116,520 116,530" fill="none" stroke="#0f172a" stroke-width="1.5"/><polygon points="116,530 112,522 120,522" fill="#0f172a"/><text x="122" y="520" font-family="monospace" font-size="10" fill="#0f172a">no</text><metadata data-activity-kind="Else" data-activity-lane="default" data-activity-branch="0"/><metadata data-activity-kind="Action" data-activity-lane="default" data-activity-branch="0"/><rect x="196" y="578" width="160" height="36" rx="18" ry="18" fill="#ecfdf5" stroke="#047857" stroke-width="1.5"/><text x="276" y="601" text-anchor="middle" font-family="monospace" font-size="12" fill="#0f172a">Rollback</text><polyline points="196,528 196,551 276,551 276,574" fill="none" stroke="#0f172a" stroke-width="1.5"/><polygon points="276,574 272,566 280,566" fill="#0f172a"/><text x="282" y="551" font-family="monospace" font-size="10" fill="#0f172a">yes</text><metadata data-activity-kind="EndIf" data-activity-lane="default" data-activity-branch="0"/><metadata data-activity-kind="Else" data-activity-lane="default" data-activity-branch="0"/><metadata data-activity-kind="Action" data-activity-lane="default" data-activity-branch="0"/><polyline points="196,528 196,551 276,551 276,574" fill="none" stroke="#0f172a" stroke-width="1.5"/><polygon points="276,574 272,566 280,566" fill="#0f172a"/><text x="282" y="551" font-family="monospace" font-size="10" fill="#0f172a">yes</text><metadata data-activity-kind="EndIf" data-activity-lane="default" data-activity-branch="0"/><metadata data-activity-kind="Else" data-activity-lane="default" data-activity-branch="0"/><metadata data-activity-kind="Action" data-activity-lane="default" data-activity-branch="0"/><rect x="356" y="270" width="160" height="36" rx="18" ry="18" fill="#ecfdf5" stroke="#047857" stroke-width="1.5"/><text x="436" y="293" text-anchor="middle" font-family="monospace" font-size="12" fill="#0f172a">Notify Dev</text><polyline points="116,572 288,572 288,436 436,436 436,266" fill="none" stroke="#0f172a" stroke-width="1.5"/><polygon points="436,266 432,274 440,274" fill="#0f172a"/><polyline points="276,396 368,396 368,348 436,348 436,266" fill="none" stroke="#0f172a" stroke-width="1.5"/><polygon points="436,266 432,274 440,274" fill="#0f172a"/><text x="374" y="348" font-family="monospace" font-size="10" fill="#0f172a">yes</text><polyline points="356,484 356,375 436,375 436,266" fill="none" stroke="#0f172a" stroke-width="1.5"/><polygon points="436,266 432,274 440,274" fill="#0f172a"/><polyline points="356,220 356,243 436,243 436,266" fill="none" stroke="#0f172a" stroke-width="1.5"/><polygon points="436,266 432,258 440,258" fill="#0f172a"/><text x="442" y="243" font-family="monospace" font-size="10" fill="#0f172a">yes</text><metadata data-activity-kind="EndIf" data-activity-lane="default" data-activity-branch="0"/><metadata data-activity-kind="Stop" data-activity-lane="default" data-activity-branch="0"/><circle cx="356" cy="770" r="14" fill="white" stroke="#0f172a" stroke-width="1.5"/><circle cx="356" cy="770" r="7" fill="#0f172a"/><polyline points="436,308 436,529 356,529 356,750" fill="none" stroke="#0f172a" stroke-width="1.5"/><polygon points="356,750 352,742 360,742" fill="#0f172a"/></svg>