<svg xmlns="http://www.w3.org/2000/svg" width="1440" height="1142" viewBox="0 0 1440 1142"><rect width="100%" height="100%" fill="#ecfdf5"/><text x="32" y="28" font-family="monospace" font-size="18" font-weight="600" fill="#0f172a">Deployment Pipeline</text><metadata data-activity-kind="Start" data-activity-lane="default" data-activity-branch="0"/><circle cx="720" cy="82" r="12" fill="#0f172a"/><metadata data-activity-kind="Action" data-activity-lane="default" data-activity-branch="0"/><rect x="610" y="126" width="220" height="36" rx="18" ry="18" fill="#ecfdf5" stroke="#047857" stroke-width="1.5"/><text x="720" y="149" text-anchor="middle" font-family="monospace" font-size="12" fill="#0f172a">Code Push</text><line x1="720" y1="104" x2="720" y2="122" stroke="#0f172a" stroke-width="1.5"/><polygon points="720,122 716,114 724,114" fill="#0f172a"/><metadata data-activity-kind="Action" data-activity-lane="default" data-activity-branch="0"/><rect x="610" y="186" width="220" height="36" rx="18" ry="18" fill="#ecfdf5" stroke="#047857" stroke-width="1.5"/><text x="720" y="209" text-anchor="middle" font-family="monospace" font-size="12" fill="#0f172a">Run Tests</text><line x1="720" y1="164" x2="720" y2="182" stroke="#0f172a" stroke-width="1.5"/><polygon points="720,182 716,174 724,174" fill="#0f172a"/><metadata data-activity-kind="IfStart" data-activity-lane="default" data-activity-branch="0"/><polygon points="720,244 820,266 720,288 620,266" fill="#fef9c3" stroke="#047857" stroke-width="1.5"/><text x="720" y="270" text-anchor="middle" font-family="monospace" font-size="11" fill="#0f172a">Tests pass?</text><line x1="720" y1="224" x2="720" y2="242" stroke="#0f172a" stroke-width="1.5"/><polygon points="720,242 716,234 724,234" fill="#0f172a"/><metadata data-activity-kind="Action" data-activity-lane="default" data-activity-branch="0"/><rect x="450" y="306" width="220" height="36" rx="18" ry="18" fill="#ecfdf5" stroke="#047857" stroke-width="1.5"/><text x="560" y="329" text-anchor="middle" font-family="monospace" font-size="12" fill="#0f172a">Build Artifact</text><line x1="620" y1="266" x2="620" y2="284" stroke="#0f172a" stroke-width="1.5"/><line x1="620" y1="284" x2="560" y2="284" stroke="#0f172a" stroke-width="1.5"/><line x1="560" y1="284" x2="560" y2="302" stroke="#0f172a" stroke-width="1.5"/><polygon points="560,302 556,294 564,294" fill="#0f172a"/><text x="594" y="280" font-family="monospace" font-size="10" fill="#0f172a">no</text><metadata data-activity-kind="Action" data-activity-lane="default" data-activity-branch="0"/><rect x="450" y="366" width="220" height="36" rx="18" ry="18" fill="#ecfdf5" stroke="#047857" stroke-width="1.5"/><text x="560" y="389" text-anchor="middle" font-family="monospace" font-size="12" fill="#0f172a">Push to Registry</text><line x1="560" y1="344" x2="560" y2="362" stroke="#0f172a" stroke-width="1.5"/><polygon points="560,362 556,354 564,354" fill="#0f172a"/><metadata data-activity-kind="Action" data-activity-lane="default" data-activity-branch="0"/><rect x="450" y="426" width="220" height="36" rx="18" ry="18" fill="#ecfdf5" stroke="#047857" stroke-width="1.5"/><text x="560" y="449" text-anchor="middle" font-family="monospace" font-size="12" fill="#0f172a">Deploy to Staging</text><line x1="560" y1="404" x2="560" y2="422" stroke="#0f172a" stroke-width="1.5"/><polygon points="560,422 556,414 564,414" fill="#0f172a"/><metadata data-activity-kind="IfStart" data-activity-lane="default" data-activity-branch="0"/><polygon points="560,484 660,506 560,528 460,506" fill="#fef9c3" stroke="#047857" stroke-width="1.5"/><text x="560" y="510" text-anchor="middle" font-family="monospace" font-size="11" fill="#0f172a">Staging OK?</text><line x1="560" y1="464" x2="560" y2="482" stroke="#0f172a" stroke-width="1.5"/><polygon points="560,482 556,474 564,474" fill="#0f172a"/><metadata data-activity-kind="Action" data-activity-lane="default" data-activity-branch="0"/><rect x="290" y="546" width="220" height="36" rx="18" ry="18" fill="#ecfdf5" stroke="#047857" stroke-width="1.5"/><text x="400" y="569" text-anchor="middle" font-family="monospace" font-size="12" fill="#0f172a">Promote to Prod</text><line x1="460" y1="506" x2="460" y2="524" stroke="#0f172a" stroke-width="1.5"/><line x1="460" y1="524" x2="400" y2="524" stroke="#0f172a" stroke-width="1.5"/><line x1="400" y1="524" x2="400" y2="542" stroke="#0f172a" stroke-width="1.5"/><polygon points="400,542 396,534 404,534" fill="#0f172a"/><text x="434" y="520" font-family="monospace" font-size="10" fill="#0f172a">no</text><metadata data-activity-kind="Action" data-activity-lane="default" data-activity-branch="0"/><rect x="290" y="606" width="220" height="36" rx="18" ry="18" fill="#ecfdf5" stroke="#047857" stroke-width="1.5"/><text x="400" y="629" text-anchor="middle" font-family="monospace" font-size="12" fill="#0f172a">Smoke Tests</text><line x1="400" y1="584" x2="400" y2="602" stroke="#0f172a" stroke-width="1.5"/><polygon points="400,602 396,594 404,594" fill="#0f172a"/><metadata data-activity-kind="IfStart" data-activity-lane="default" data-activity-branch="0"/><polygon points="400,664 500,686 400,708 300,686" fill="#fef9c3" stroke="#047857" stroke-width="1.5"/><text x="400" y="690" text-anchor="middle" font-family="monospace" font-size="11" fill="#0f172a">Smoke OK?</text><line x1="400" y1="644" x2="400" y2="662" stroke="#0f172a" stroke-width="1.5"/><polygon points="400,662 396,654 404,654" fill="#0f172a"/><metadata data-activity-kind="Action" data-activity-lane="default" data-activity-branch="0"/><rect x="130" y="726" width="220" height="36" rx="18" ry="18" fill="#ecfdf5" stroke="#047857" stroke-width="1.5"/><text x="240" y="749" text-anchor="middle" font-family="monospace" font-size="12" fill="#0f172a">Done</text><line x1="300" y1="686" x2="300" y2="704" stroke="#0f172a" stroke-width="1.5"/><line x1="300" y1="704" x2="240" y2="704" stroke="#0f172a" stroke-width="1.5"/><line x1="240" y1="704" x2="240" y2="722" stroke="#0f172a" stroke-width="1.5"/><polygon points="240,722 236,714 244,714" fill="#0f172a"/><text x="274" y="700" font-family="monospace" font-size="10" fill="#0f172a">no</text><metadata data-activity-kind="Else" data-activity-lane="default" data-activity-branch="0"/><metadata data-activity-kind="Action" data-activity-lane="default" data-activity-branch="0"/><rect x="450" y="786" width="220" height="36" rx="18" ry="18" fill="#ecfdf5" stroke="#047857" stroke-width="1.5"/><text x="560" y="809" text-anchor="middle" font-family="monospace" font-size="12" fill="#0f172a">Rollback</text><line x1="400" y1="704" x2="400" y2="743" stroke="#0f172a" stroke-width="1.5"/><line x1="400" y1="743" x2="560" y2="743" stroke="#0f172a" stroke-width="1.5"/><line x1="560" y1="743" x2="560" y2="782" stroke="#0f172a" stroke-width="1.5"/><polygon points="560,782 556,774 564,774" fill="#0f172a"/><text x="484" y="739" font-family="monospace" font-size="10" fill="#0f172a">yes</text><metadata data-activity-kind="EndIf" data-activity-lane="default" data-activity-branch="0"/><metadata data-activity-kind="Else" data-activity-lane="default" data-activity-branch="0"/><metadata data-activity-kind="Action" data-activity-lane="default" data-activity-branch="0"/><line x1="400" y1="704" x2="400" y2="743" stroke="#0f172a" stroke-width="1.5"/><line x1="400" y1="743" x2="560" y2="743" stroke="#0f172a" stroke-width="1.5"/><line x1="560" y1="743" x2="560" y2="782" stroke="#0f172a" stroke-width="1.5"/><polygon points="560,782 556,774 564,774" fill="#0f172a"/><text x="484" y="739" font-family="monospace" font-size="10" fill="#0f172a">yes</text><metadata data-activity-kind="EndIf" data-activity-lane="default" data-activity-branch="0"/><metadata data-activity-kind="Else" data-activity-lane="default" data-activity-branch="0"/><metadata data-activity-kind="Action" data-activity-lane="default" data-activity-branch="0"/><rect x="770" y="366" width="220" height="36" rx="18" ry="18" fill="#ecfdf5" stroke="#047857" stroke-width="1.5"/><text x="880" y="389" text-anchor="middle" font-family="monospace" font-size="12" fill="#0f172a">Notify Dev</text><line x1="240" y1="764" x2="522" y2="764" stroke="#0f172a" stroke-width="1.5"/><line x1="522" y1="764" x2="522" y2="542" stroke="#0f172a" stroke-width="1.5"/><line x1="522" y1="542" x2="880" y2="542" stroke="#0f172a" stroke-width="1.5"/><line x1="880" y1="542" x2="880" y2="362" stroke="#0f172a" stroke-width="1.5"/><polygon points="880,362 876,370 884,370" fill="#0f172a"/><line x1="560" y1="524" x2="682" y2="524" stroke="#0f172a" stroke-width="1.5"/><line x1="682" y1="524" x2="682" y2="422" stroke="#0f172a" stroke-width="1.5"/><line x1="682" y1="422" x2="880" y2="422" stroke="#0f172a" stroke-width="1.5"/><line x1="880" y1="422" x2="880" y2="362" stroke="#0f172a" stroke-width="1.5"/><polygon points="880,362 876,370 884,370" fill="#0f172a"/><text x="724" y="418" font-family="monospace" font-size="10" fill="#0f172a">yes</text><line x1="720" y1="644" x2="720" y2="503" stroke="#0f172a" stroke-width="1.5"/><line x1="720" y1="503" x2="880" y2="503" stroke="#0f172a" stroke-width="1.5"/><line x1="880" y1="503" x2="880" y2="362" stroke="#0f172a" stroke-width="1.5"/><polygon points="880,362 876,370 884,370" fill="#0f172a"/><line x1="720" y1="284" x2="720" y2="323" stroke="#0f172a" stroke-width="1.5"/><line x1="720" y1="323" x2="880" y2="323" stroke="#0f172a" stroke-width="1.5"/><line x1="880" y1="323" x2="880" y2="362" stroke="#0f172a" stroke-width="1.5"/><polygon points="880,362 876,354 884,354" fill="#0f172a"/><text x="804" y="319" font-family="monospace" font-size="10" fill="#0f172a">yes</text><metadata data-activity-kind="EndIf" data-activity-lane="default" data-activity-branch="0"/><metadata data-activity-kind="Stop" data-activity-lane="default" data-activity-branch="0"/><circle cx="720" cy="1042" r="14" fill="white" stroke="#0f172a" stroke-width="1.5"/><circle cx="720" cy="1042" r="7" fill="#0f172a"/><line x1="880" y1="404" x2="880" y2="713" stroke="#0f172a" stroke-width="1.5"/><line x1="880" y1="713" x2="720" y2="713" stroke="#0f172a" stroke-width="1.5"/><line x1="720" y1="713" x2="720" y2="1022" stroke="#0f172a" stroke-width="1.5"/><polygon points="720,1022 716,1014 724,1014" fill="#0f172a"/></svg>