<svg xmlns="http://www.w3.org/2000/svg" width="1440" height="1082" viewBox="0 0 1440 1082"><rect width="100%" height="100%" fill="#ecfdf5"/><text x="32" y="28" font-family="monospace" font-size="18" font-weight="600" fill="#0f172a">User Registration</text><text x="32" y="52" font-family="monospace" font-size="12" fill="#0f172a">activity diagram</text><rect x="32" y="62" width="1376" height="1000" fill="#ecfdf5" stroke="#cbd5e1" stroke-width="1" stroke-dasharray="4 3"/><metadata data-activity-kind="Start" data-activity-lane="default" data-activity-branch="0"/><circle cx="720" cy="82" r="12" fill="#0f172a"/><metadata data-activity-kind="Action" data-activity-lane="default" data-activity-branch="0"/><rect x="610" y="126" width="220" height="36" rx="18" ry="18" fill="#ecfdf5" stroke="#047857" stroke-width="1.5"/><text x="720" y="149" text-anchor="middle" font-family="monospace" font-size="12" fill="#0f172a">Enter Details</text><line x1="720" y1="104" x2="720" y2="122" stroke="#0f172a" stroke-width="1.5"/><polygon points="720,122 716,114 724,114" fill="#0f172a"/><metadata data-activity-kind="Action" data-activity-lane="default" data-activity-branch="0"/><rect x="610" y="186" width="220" height="36" rx="18" ry="18" fill="#ecfdf5" stroke="#047857" stroke-width="1.5"/><text x="720" y="209" text-anchor="middle" font-family="monospace" font-size="12" fill="#0f172a">Validate Input</text><line x1="720" y1="164" x2="720" y2="182" stroke="#0f172a" stroke-width="1.5"/><polygon points="720,182 716,174 724,174" fill="#0f172a"/><metadata data-activity-kind="IfStart" data-activity-lane="default" data-activity-branch="0"/><polygon points="720,244 820,266 720,288 620,266" fill="#fef9c3" stroke="#047857" stroke-width="1.5"/><text x="720" y="270" text-anchor="middle" font-family="monospace" font-size="11" fill="#0f172a">Valid?</text><text x="824" y="270" text-anchor="start" font-family="monospace" font-size="10" fill="#0f172a">yes</text><line x1="720" y1="224" x2="720" y2="242" stroke="#0f172a" stroke-width="1.5"/><polygon points="720,242 716,234 724,234" fill="#0f172a"/><metadata data-activity-kind="Action" data-activity-lane="default" data-activity-branch="0"/><rect x="450" y="306" width="220" height="36" rx="18" ry="18" fill="#ecfdf5" stroke="#047857" stroke-width="1.5"/><text x="560" y="329" text-anchor="middle" font-family="monospace" font-size="12" fill="#0f172a">Check Email Unique</text><line x1="720" y1="284" x2="720" y2="293" stroke="#0f172a" stroke-width="1.5"/><line x1="720" y1="293" x2="560" y2="293" stroke="#0f172a" stroke-width="1.5"/><line x1="560" y1="293" x2="560" y2="302" stroke="#0f172a" stroke-width="1.5"/><polygon points="560,302 556,294 564,294" fill="#0f172a"/><metadata data-activity-kind="IfStart" data-activity-lane="default" data-activity-branch="0"/><polygon points="560,364 660,386 560,408 460,386" fill="#fef9c3" stroke="#047857" stroke-width="1.5"/><text x="560" y="390" text-anchor="middle" font-family="monospace" font-size="11" fill="#0f172a">Unique?</text><text x="664" y="390" text-anchor="start" font-family="monospace" font-size="10" fill="#0f172a">yes</text><line x1="560" y1="344" x2="560" y2="362" stroke="#0f172a" stroke-width="1.5"/><polygon points="560,362 556,354 564,354" fill="#0f172a"/><metadata data-activity-kind="Action" data-activity-lane="default" data-activity-branch="0"/><rect x="290" y="426" width="220" height="36" rx="18" ry="18" fill="#ecfdf5" stroke="#047857" stroke-width="1.5"/><text x="400" y="449" text-anchor="middle" font-family="monospace" font-size="12" fill="#0f172a">Create Account</text><line x1="560" y1="404" x2="560" y2="413" stroke="#0f172a" stroke-width="1.5"/><line x1="560" y1="413" x2="400" y2="413" stroke="#0f172a" stroke-width="1.5"/><line x1="400" y1="413" x2="400" y2="422" stroke="#0f172a" stroke-width="1.5"/><polygon points="400,422 396,414 404,414" fill="#0f172a"/><metadata data-activity-kind="Action" data-activity-lane="default" data-activity-branch="0"/><rect x="290" y="486" width="220" height="36" rx="18" ry="18" fill="#ecfdf5" stroke="#047857" stroke-width="1.5"/><text x="400" y="509" text-anchor="middle" font-family="monospace" font-size="12" fill="#0f172a">Send Verification</text><line x1="400" y1="464" x2="400" y2="482" stroke="#0f172a" stroke-width="1.5"/><polygon points="400,482 396,474 404,474" fill="#0f172a"/><metadata data-activity-kind="Action" data-activity-lane="default" data-activity-branch="0"/><rect x="290" y="546" width="220" height="36" rx="18" ry="18" fill="#ecfdf5" stroke="#047857" stroke-width="1.5"/><text x="400" y="569" text-anchor="middle" font-family="monospace" font-size="12" fill="#0f172a">Wait for Confirm</text><line x1="400" y1="524" x2="400" y2="542" stroke="#0f172a" stroke-width="1.5"/><polygon points="400,542 396,534 404,534" fill="#0f172a"/><metadata data-activity-kind="IfStart" data-activity-lane="default" data-activity-branch="0"/><polygon points="400,604 500,626 400,648 300,626" fill="#fef9c3" stroke="#047857" stroke-width="1.5"/><text x="400" y="630" text-anchor="middle" font-family="monospace" font-size="11" fill="#0f172a">Confirmed?</text><text x="504" y="630" text-anchor="start" font-family="monospace" font-size="10" fill="#0f172a">yes</text><line x1="400" y1="584" x2="400" y2="602" stroke="#0f172a" stroke-width="1.5"/><polygon points="400,602 396,594 404,594" fill="#0f172a"/><metadata data-activity-kind="Action" data-activity-lane="default" data-activity-branch="0"/><rect x="130" y="666" width="220" height="36" rx="18" ry="18" fill="#ecfdf5" stroke="#047857" stroke-width="1.5"/><text x="240" y="689" text-anchor="middle" font-family="monospace" font-size="12" fill="#0f172a">Activate Account</text><line x1="400" y1="644" x2="400" y2="653" stroke="#0f172a" stroke-width="1.5"/><line x1="400" y1="653" x2="240" y2="653" stroke="#0f172a" stroke-width="1.5"/><line x1="240" y1="653" x2="240" y2="662" stroke="#0f172a" stroke-width="1.5"/><polygon points="240,662 236,654 244,654" fill="#0f172a"/><metadata data-activity-kind="Else" data-activity-lane="default" data-activity-branch="0"/><metadata data-activity-kind="Action" data-activity-lane="default" data-activity-branch="0"/><rect x="450" y="726" width="220" height="36" rx="18" ry="18" fill="#ecfdf5" stroke="#047857" stroke-width="1.5"/><text x="560" y="749" text-anchor="middle" font-family="monospace" font-size="12" fill="#0f172a">Resend Email</text><line x1="400" y1="644" x2="400" y2="683" stroke="#0f172a" stroke-width="1.5"/><line x1="400" y1="683" x2="560" y2="683" stroke="#0f172a" stroke-width="1.5"/><line x1="560" y1="683" x2="560" y2="722" stroke="#0f172a" stroke-width="1.5"/><polygon points="560,722 556,714 564,714" fill="#0f172a"/><metadata data-activity-kind="EndIf" data-activity-lane="default" data-activity-branch="0"/><metadata data-activity-kind="Else" data-activity-lane="default" data-activity-branch="0"/><metadata data-activity-kind="Action" data-activity-lane="default" data-activity-branch="0"/><rect x="610" y="486" width="220" height="36" rx="18" ry="18" fill="#ecfdf5" stroke="#047857" stroke-width="1.5"/><text x="720" y="509" text-anchor="middle" font-family="monospace" font-size="12" fill="#0f172a">Show Error</text><line x1="240" y1="704" x2="362" y2="704" stroke="#0f172a" stroke-width="1.5"/><line x1="362" y1="704" x2="362" y2="593" stroke="#0f172a" stroke-width="1.5"/><line x1="362" y1="593" x2="720" y2="593" stroke="#0f172a" stroke-width="1.5"/><line x1="720" y1="593" x2="720" y2="482" stroke="#0f172a" stroke-width="1.5"/><polygon points="720,482 716,490 724,490" fill="#0f172a"/><line x1="560" y1="764" x2="682" y2="764" stroke="#0f172a" stroke-width="1.5"/><line x1="682" y1="764" x2="682" y2="623" stroke="#0f172a" stroke-width="1.5"/><line x1="682" y1="623" x2="720" y2="623" stroke="#0f172a" stroke-width="1.5"/><line x1="720" y1="623" x2="720" y2="482" stroke="#0f172a" stroke-width="1.5"/><polygon points="720,482 716,490 724,490" fill="#0f172a"/><line x1="560" y1="404" x2="560" y2="443" stroke="#0f172a" stroke-width="1.5"/><line x1="560" y1="443" x2="720" y2="443" stroke="#0f172a" stroke-width="1.5"/><line x1="720" y1="443" x2="720" y2="482" stroke="#0f172a" stroke-width="1.5"/><polygon points="720,482 716,474 724,474" fill="#0f172a"/><metadata data-activity-kind="EndIf" data-activity-lane="default" data-activity-branch="0"/><metadata data-activity-kind="Else" data-activity-lane="default" data-activity-branch="0"/><metadata data-activity-kind="Action" data-activity-lane="default" data-activity-branch="0"/><rect x="770" y="366" width="220" height="36" rx="18" ry="18" fill="#ecfdf5" stroke="#047857" stroke-width="1.5"/><text x="880" y="389" text-anchor="middle" font-family="monospace" font-size="12" fill="#0f172a">Show Validation Errors</text><line x1="720" y1="524" x2="842" y2="524" stroke="#0f172a" stroke-width="1.5"/><line x1="842" y1="524" x2="842" y2="443" stroke="#0f172a" stroke-width="1.5"/><line x1="842" y1="443" x2="880" y2="443" stroke="#0f172a" stroke-width="1.5"/><line x1="880" y1="443" x2="880" y2="362" stroke="#0f172a" stroke-width="1.5"/><polygon points="880,362 876,370 884,370" fill="#0f172a"/><line x1="720" y1="284" x2="720" y2="323" stroke="#0f172a" stroke-width="1.5"/><line x1="720" y1="323" x2="880" y2="323" stroke="#0f172a" stroke-width="1.5"/><line x1="880" y1="323" x2="880" y2="362" stroke="#0f172a" stroke-width="1.5"/><polygon points="880,362 876,354 884,354" fill="#0f172a"/><metadata data-activity-kind="EndIf" data-activity-lane="default" data-activity-branch="0"/><metadata data-activity-kind="Stop" data-activity-lane="default" data-activity-branch="0"/><circle cx="720" cy="982" r="14" fill="white" stroke="#0f172a" stroke-width="1.5"/><circle cx="720" cy="982" r="7" fill="#0f172a"/><line x1="880" y1="404" x2="880" y2="683" stroke="#0f172a" stroke-width="1.5"/><line x1="880" y1="683" x2="720" y2="683" stroke="#0f172a" stroke-width="1.5"/><line x1="720" y1="683" x2="720" y2="962" stroke="#0f172a" stroke-width="1.5"/><polygon points="720,962 716,954 724,954" fill="#0f172a"/></svg>