<svg xmlns="http://www.w3.org/2000/svg" width="728" height="814" viewBox="0 0 728 814"><rect width="100%" height="100%" fill="#ecfdf5"/><text x="32" y="22" font-family="monospace" font-size="16" font-weight="600" fill="#0f172a">User Registration</text><metadata data-activity-kind="Start" data-activity-lane="default" data-activity-branch="0"/><circle cx="356" cy="66" r="12" fill="#0f172a"/><metadata data-activity-kind="Action" data-activity-lane="default" data-activity-branch="0"/><rect x="276" y="94" width="160" height="36" rx="18" ry="18" fill="#ecfdf5" stroke="#047857" stroke-width="1.5"/><text x="356" y="117" text-anchor="middle" font-family="monospace" font-size="12" fill="#0f172a">Enter Details</text><polyline points="356,88 356,90" fill="none" stroke="#0f172a" stroke-width="1.5"/><polygon points="356,90 352,82 360,82" fill="#0f172a"/><metadata data-activity-kind="Action" data-activity-lane="default" data-activity-branch="0"/><rect x="276" y="138" width="160" height="36" rx="18" ry="18" fill="#ecfdf5" stroke="#047857" stroke-width="1.5"/><text x="356" y="161" text-anchor="middle" font-family="monospace" font-size="12" fill="#0f172a">Validate Input</text><polyline points="356,132 356,134" fill="none" stroke="#0f172a" stroke-width="1.5"/><polygon points="356,134 352,126 360,126" fill="#0f172a"/><metadata data-activity-kind="IfStart" data-activity-lane="default" data-activity-branch="0"/><polygon points="356,180 456,202 356,224 256,202" fill="#fef9c3" stroke="#047857" stroke-width="1.5"/><text x="356" y="206" text-anchor="middle" font-family="monospace" font-size="11" fill="#0f172a">Valid?</text><polyline points="356,176 356,178" fill="none" stroke="#0f172a" stroke-width="1.5"/><polygon points="356,178 352,170 360,170" fill="#0f172a"/><metadata data-activity-kind="Action" data-activity-lane="default" data-activity-branch="0"/><rect x="196" y="226" width="160" height="36" rx="18" ry="18" fill="#ecfdf5" stroke="#047857" stroke-width="1.5"/><text x="276" y="249" text-anchor="middle" font-family="monospace" font-size="12" fill="#0f172a">Check Email Unique</text><polyline points="256,202 256,212 276,212 276,222" fill="none" stroke="#0f172a" stroke-width="1.5"/><polygon points="276,222 272,214 280,214" fill="#0f172a"/><text x="270" y="207" font-family="monospace" font-size="10" fill="#0f172a">yes</text><metadata data-activity-kind="IfStart" data-activity-lane="default" data-activity-branch="0"/><polygon points="276,268 376,290 276,312 176,290" fill="#fef9c3" stroke="#047857" stroke-width="1.5"/><text x="276" y="294" text-anchor="middle" font-family="monospace" font-size="11" fill="#0f172a">Unique?</text><polyline points="276,264 276,266" fill="none" stroke="#0f172a" stroke-width="1.5"/><polygon points="276,266 272,258 280,258" fill="#0f172a"/><metadata data-activity-kind="Action" data-activity-lane="default" data-activity-branch="0"/><rect x="116" y="314" width="160" height="36" rx="18" ry="18" fill="#ecfdf5" stroke="#047857" stroke-width="1.5"/><text x="196" y="337" text-anchor="middle" font-family="monospace" font-size="12" fill="#0f172a">Create Account</text><polyline points="176,290 176,300 196,300 196,310" fill="none" stroke="#0f172a" stroke-width="1.5"/><polygon points="196,310 192,302 200,302" fill="#0f172a"/><text x="190" y="295" font-family="monospace" font-size="10" fill="#0f172a">yes</text><metadata data-activity-kind="Action" data-activity-lane="default" data-activity-branch="0"/><rect x="116" y="358" width="160" height="36" rx="18" ry="18" fill="#ecfdf5" stroke="#047857" stroke-width="1.5"/><text x="196" y="381" text-anchor="middle" font-family="monospace" font-size="12" fill="#0f172a">Send Verification</text><polyline points="196,352 196,354" fill="none" stroke="#0f172a" stroke-width="1.5"/><polygon points="196,354 192,346 200,346" fill="#0f172a"/><metadata data-activity-kind="Action" data-activity-lane="default" data-activity-branch="0"/><rect x="116" y="402" width="160" height="36" rx="18" ry="18" fill="#ecfdf5" stroke="#047857" stroke-width="1.5"/><text x="196" y="425" text-anchor="middle" font-family="monospace" font-size="12" fill="#0f172a">Wait for Confirm</text><polyline points="196,396 196,398" fill="none" stroke="#0f172a" stroke-width="1.5"/><polygon points="196,398 192,390 200,390" fill="#0f172a"/><metadata data-activity-kind="IfStart" data-activity-lane="default" data-activity-branch="0"/><polygon points="196,444 296,466 196,488 96,466" fill="#fef9c3" stroke="#047857" stroke-width="1.5"/><text x="196" y="470" text-anchor="middle" font-family="monospace" font-size="11" fill="#0f172a">Confirmed?</text><polyline points="196,440 196,442" fill="none" stroke="#0f172a" stroke-width="1.5"/><polygon points="196,442 192,434 200,434" fill="#0f172a"/><metadata data-activity-kind="Action" data-activity-lane="default" data-activity-branch="0"/><rect x="36" y="490" width="160" height="36" rx="18" ry="18" fill="#ecfdf5" stroke="#047857" stroke-width="1.5"/><text x="116" y="513" text-anchor="middle" font-family="monospace" font-size="12" fill="#0f172a">Activate Account</text><polyline points="96,466 96,476 116,476 116,486" fill="none" stroke="#0f172a" stroke-width="1.5"/><polygon points="116,486 112,478 120,478" fill="#0f172a"/><text x="110" y="471" font-family="monospace" font-size="10" fill="#0f172a">yes</text><metadata data-activity-kind="Else" data-activity-lane="default" data-activity-branch="0"/><metadata data-activity-kind="Action" data-activity-lane="default" data-activity-branch="0"/><rect x="196" y="534" width="160" height="36" rx="18" ry="18" fill="#ecfdf5" stroke="#047857" stroke-width="1.5"/><text x="276" y="557" text-anchor="middle" font-family="monospace" font-size="12" fill="#0f172a">Resend Email</text><polyline points="196,484 196,507 276,507 276,530" fill="none" stroke="#0f172a" stroke-width="1.5"/><polygon points="276,530 272,522 280,522" fill="#0f172a"/><text x="210" y="495" font-family="monospace" font-size="10" fill="#0f172a">no</text><metadata data-activity-kind="EndIf" data-activity-lane="default" data-activity-branch="0"/><metadata data-activity-kind="Else" data-activity-lane="default" data-activity-branch="0"/><metadata data-activity-kind="Action" data-activity-lane="default" data-activity-branch="0"/><rect x="276" y="358" width="160" height="36" rx="18" ry="18" fill="#ecfdf5" stroke="#047857" stroke-width="1.5"/><text x="356" y="381" text-anchor="middle" font-family="monospace" font-size="12" fill="#0f172a">Show Error</text><polyline points="116,528 288,528 288,441 356,441 356,354" fill="none" stroke="#0f172a" stroke-width="1.5"/><polygon points="356,354 352,362 360,362" fill="#0f172a"/><polyline points="276,572 368,572 368,463 356,463 356,354" fill="none" stroke="#0f172a" stroke-width="1.5"/><polygon points="356,354 352,362 360,362" fill="#0f172a"/><polyline points="276,308 276,331 356,331 356,354" fill="none" stroke="#0f172a" stroke-width="1.5"/><polygon points="356,354 352,346 360,346" fill="#0f172a"/><text x="290" y="319" font-family="monospace" font-size="10" fill="#0f172a">no</text><metadata data-activity-kind="EndIf" data-activity-lane="default" data-activity-branch="0"/><metadata data-activity-kind="Else" data-activity-lane="default" data-activity-branch="0"/><metadata data-activity-kind="Action" data-activity-lane="default" data-activity-branch="0"/><rect x="356" y="270" width="160" height="36" rx="18" ry="18" fill="#ecfdf5" stroke="#047857" stroke-width="1.5"/><text x="436" text-anchor="middle" font-family="monospace" font-size="12" fill="#0f172a"><tspan x="436" y="286">Show Validation</tspan><tspan x="436" y="298">Errors</tspan></text><polyline points="356,396 448,396 448,331 436,331 436,266" fill="none" stroke="#0f172a" stroke-width="1.5"/><polygon points="436,266 432,274 440,274" fill="#0f172a"/><polyline points="356,220 356,243 436,243 436,266" fill="none" stroke="#0f172a" stroke-width="1.5"/><polygon points="436,266 432,258 440,258" fill="#0f172a"/><text x="370" y="231" font-family="monospace" font-size="10" fill="#0f172a">no</text><metadata data-activity-kind="EndIf" data-activity-lane="default" data-activity-branch="0"/><metadata data-activity-kind="Stop" data-activity-lane="default" data-activity-branch="0"/><circle cx="356" cy="726" r="14" fill="white" stroke="#0f172a" stroke-width="1.5"/><circle cx="356" cy="726" r="7" fill="#0f172a"/><polyline points="436,308 436,507 356,507 356,706" fill="none" stroke="#0f172a" stroke-width="1.5"/><polygon points="356,706 352,698 360,698" fill="#0f172a"/></svg>