<svg xmlns="http://www.w3.org/2000/svg" width="728" height="790" viewBox="0 0 728 790"><rect width="100%" height="100%" fill="#ecfdf5"/><text x="32" y="22" font-family="monospace" font-size="16" font-weight="600" fill="#0f172a">User Registration</text><metadata data-activity-kind="Start" data-activity-lane="default" data-activity-branch="0"/><circle cx="356" cy="66" r="12" fill="#0f172a"/><metadata data-activity-kind="Action" data-activity-lane="default" data-activity-branch="0"/><rect x="276" y="94" width="160" height="36" rx="18" ry="18" fill="#ecfdf5" stroke="#047857" stroke-width="1.5"/><text x="356" y="117" text-anchor="middle" font-family="monospace" font-size="12" fill="#0f172a">Enter Details</text><line x1="356" y1="88" x2="356" y2="90" stroke="#0f172a" stroke-width="1.5"/><polygon points="356,90 352,82 360,82" fill="#0f172a"/><metadata data-activity-kind="Action" data-activity-lane="default" data-activity-branch="0"/><rect x="276" y="138" width="160" height="36" rx="18" ry="18" fill="#ecfdf5" stroke="#047857" stroke-width="1.5"/><text x="356" y="161" text-anchor="middle" font-family="monospace" font-size="12" fill="#0f172a">Validate Input</text><line x1="356" y1="132" x2="356" y2="134" stroke="#0f172a" stroke-width="1.5"/><polygon points="356,134 352,126 360,126" fill="#0f172a"/><metadata data-activity-kind="IfStart" data-activity-lane="default" data-activity-branch="0"/><polygon points="356,180 456,202 356,224 256,202" fill="#fef9c3" stroke="#047857" stroke-width="1.5"/><text x="356" y="206" text-anchor="middle" font-family="monospace" font-size="11" fill="#0f172a">Valid?</text><line x1="356" y1="176" x2="356" y2="178" stroke="#0f172a" stroke-width="1.5"/><polygon points="356,178 352,170 360,170" fill="#0f172a"/><metadata data-activity-kind="Action" data-activity-lane="default" data-activity-branch="0"/><rect x="196" y="226" width="160" height="36" rx="18" ry="18" fill="#ecfdf5" stroke="#047857" stroke-width="1.5"/><text x="276" y="249" text-anchor="middle" font-family="monospace" font-size="12" fill="#0f172a">Check Email Unique</text><line x1="256" y1="202" x2="256" y2="212" stroke="#0f172a" stroke-width="1.5"/><line x1="256" y1="212" x2="276" y2="212" stroke="#0f172a" stroke-width="1.5"/><line x1="276" y1="212" x2="276" y2="222" stroke="#0f172a" stroke-width="1.5"/><polygon points="276,222 272,214 280,214" fill="#0f172a"/><text x="270" y="208" font-family="monospace" font-size="10" fill="#0f172a">no</text><metadata data-activity-kind="IfStart" data-activity-lane="default" data-activity-branch="0"/><polygon points="276,268 376,290 276,312 176,290" fill="#fef9c3" stroke="#047857" stroke-width="1.5"/><text x="276" y="294" text-anchor="middle" font-family="monospace" font-size="11" fill="#0f172a">Unique?</text><line x1="276" y1="264" x2="276" y2="266" stroke="#0f172a" stroke-width="1.5"/><polygon points="276,266 272,258 280,258" fill="#0f172a"/><metadata data-activity-kind="Action" data-activity-lane="default" data-activity-branch="0"/><rect x="116" y="314" width="160" height="36" rx="18" ry="18" fill="#ecfdf5" stroke="#047857" stroke-width="1.5"/><text x="196" y="337" text-anchor="middle" font-family="monospace" font-size="12" fill="#0f172a">Create Account</text><line x1="176" y1="290" x2="176" y2="300" stroke="#0f172a" stroke-width="1.5"/><line x1="176" y1="300" x2="196" y2="300" stroke="#0f172a" stroke-width="1.5"/><line x1="196" y1="300" x2="196" y2="310" stroke="#0f172a" stroke-width="1.5"/><polygon points="196,310 192,302 200,302" fill="#0f172a"/><text x="190" y="296" font-family="monospace" font-size="10" fill="#0f172a">no</text><metadata data-activity-kind="Action" data-activity-lane="default" data-activity-branch="0"/><rect x="116" y="358" width="160" height="36" rx="18" ry="18" fill="#ecfdf5" stroke="#047857" stroke-width="1.5"/><text x="196" y="381" text-anchor="middle" font-family="monospace" font-size="12" fill="#0f172a">Send Verification</text><line x1="196" y1="352" x2="196" y2="354" stroke="#0f172a" stroke-width="1.5"/><polygon points="196,354 192,346 200,346" fill="#0f172a"/><metadata data-activity-kind="Action" data-activity-lane="default" data-activity-branch="0"/><rect x="116" y="402" width="160" height="36" rx="18" ry="18" fill="#ecfdf5" stroke="#047857" stroke-width="1.5"/><text x="196" y="425" text-anchor="middle" font-family="monospace" font-size="12" fill="#0f172a">Wait for Confirm</text><line x1="196" y1="396" x2="196" y2="398" stroke="#0f172a" stroke-width="1.5"/><polygon points="196,398 192,390 200,390" fill="#0f172a"/><metadata data-activity-kind="IfStart" data-activity-lane="default" data-activity-branch="0"/><polygon points="196,444 296,466 196,488 96,466" fill="#fef9c3" stroke="#047857" stroke-width="1.5"/><text x="196" y="470" text-anchor="middle" font-family="monospace" font-size="11" fill="#0f172a">Confirmed?</text><line x1="196" y1="440" x2="196" y2="442" stroke="#0f172a" stroke-width="1.5"/><polygon points="196,442 192,434 200,434" fill="#0f172a"/><metadata data-activity-kind="Action" data-activity-lane="default" data-activity-branch="0"/><rect x="36" y="490" width="160" height="36" rx="18" ry="18" fill="#ecfdf5" stroke="#047857" stroke-width="1.5"/><text x="116" y="513" text-anchor="middle" font-family="monospace" font-size="12" fill="#0f172a">Activate Account</text><line x1="96" y1="466" x2="96" y2="476" stroke="#0f172a" stroke-width="1.5"/><line x1="96" y1="476" x2="116" y2="476" stroke="#0f172a" stroke-width="1.5"/><line x1="116" y1="476" x2="116" y2="486" stroke="#0f172a" stroke-width="1.5"/><polygon points="116,486 112,478 120,478" fill="#0f172a"/><text x="110" y="472" font-family="monospace" font-size="10" fill="#0f172a">no</text><metadata data-activity-kind="Else" data-activity-lane="default" data-activity-branch="0"/><metadata data-activity-kind="Action" data-activity-lane="default" data-activity-branch="0"/><rect x="196" y="534" width="160" height="36" rx="18" ry="18" fill="#ecfdf5" stroke="#047857" stroke-width="1.5"/><text x="276" y="557" text-anchor="middle" font-family="monospace" font-size="12" fill="#0f172a">Resend Email</text><line x1="196" y1="484" x2="196" y2="507" stroke="#0f172a" stroke-width="1.5"/><line x1="196" y1="507" x2="276" y2="507" stroke="#0f172a" stroke-width="1.5"/><line x1="276" y1="507" x2="276" y2="530" stroke="#0f172a" stroke-width="1.5"/><polygon points="276,530 272,522 280,522" fill="#0f172a"/><text x="240" y="503" font-family="monospace" font-size="10" fill="#0f172a">yes</text><metadata data-activity-kind="EndIf" data-activity-lane="default" data-activity-branch="0"/><metadata data-activity-kind="Else" data-activity-lane="default" data-activity-branch="0"/><metadata data-activity-kind="Action" data-activity-lane="default" data-activity-branch="0"/><rect x="276" y="358" width="160" height="36" rx="18" ry="18" fill="#ecfdf5" stroke="#047857" stroke-width="1.5"/><text x="356" y="381" text-anchor="middle" font-family="monospace" font-size="12" fill="#0f172a">Show Error</text><line x1="116" y1="528" x2="288" y2="528" stroke="#0f172a" stroke-width="1.5"/><line x1="288" y1="528" x2="288" y2="441" stroke="#0f172a" stroke-width="1.5"/><line x1="288" y1="441" x2="356" y2="441" stroke="#0f172a" stroke-width="1.5"/><line x1="356" y1="441" x2="356" y2="354" stroke="#0f172a" stroke-width="1.5"/><polygon points="356,354 352,362 360,362" fill="#0f172a"/><line x1="276" y1="572" x2="368" y2="572" stroke="#0f172a" stroke-width="1.5"/><line x1="368" y1="572" x2="368" y2="463" stroke="#0f172a" stroke-width="1.5"/><line x1="368" y1="463" x2="356" y2="463" stroke="#0f172a" stroke-width="1.5"/><line x1="356" y1="463" x2="356" y2="354" stroke="#0f172a" stroke-width="1.5"/><polygon points="356,354 352,362 360,362" fill="#0f172a"/><line x1="276" y1="308" x2="276" y2="331" stroke="#0f172a" stroke-width="1.5"/><line x1="276" y1="331" x2="356" y2="331" stroke="#0f172a" stroke-width="1.5"/><line x1="356" y1="331" x2="356" y2="354" stroke="#0f172a" stroke-width="1.5"/><polygon points="356,354 352,346 360,346" fill="#0f172a"/><text x="320" y="327" font-family="monospace" font-size="10" fill="#0f172a">yes</text><metadata data-activity-kind="EndIf" data-activity-lane="default" data-activity-branch="0"/><metadata data-activity-kind="Else" data-activity-lane="default" data-activity-branch="0"/><metadata data-activity-kind="Action" data-activity-lane="default" data-activity-branch="0"/><rect x="356" y="270" width="160" height="36" rx="18" ry="18" fill="#ecfdf5" stroke="#047857" stroke-width="1.5"/><text x="436" y="293" text-anchor="middle" font-family="monospace" font-size="12" fill="#0f172a">Show Validation Errors</text><line x1="356" y1="396" x2="448" y2="396" stroke="#0f172a" stroke-width="1.5"/><line x1="448" y1="396" x2="448" y2="331" stroke="#0f172a" stroke-width="1.5"/><line x1="448" y1="331" x2="436" y2="331" stroke="#0f172a" stroke-width="1.5"/><line x1="436" y1="331" x2="436" y2="266" stroke="#0f172a" stroke-width="1.5"/><polygon points="436,266 432,274 440,274" fill="#0f172a"/><line x1="356" y1="220" x2="356" y2="243" stroke="#0f172a" stroke-width="1.5"/><line x1="356" y1="243" x2="436" y2="243" stroke="#0f172a" stroke-width="1.5"/><line x1="436" y1="243" x2="436" y2="266" stroke="#0f172a" stroke-width="1.5"/><polygon points="436,266 432,258 440,258" fill="#0f172a"/><text x="400" y="239" font-family="monospace" font-size="10" fill="#0f172a">yes</text><metadata data-activity-kind="EndIf" data-activity-lane="default" data-activity-branch="0"/><metadata data-activity-kind="Stop" data-activity-lane="default" data-activity-branch="0"/><circle cx="356" cy="726" r="14" fill="white" stroke="#0f172a" stroke-width="1.5"/><circle cx="356" cy="726" r="7" fill="#0f172a"/><line x1="436" y1="308" x2="436" y2="507" stroke="#0f172a" stroke-width="1.5"/><line x1="436" y1="507" x2="356" y2="507" stroke="#0f172a" stroke-width="1.5"/><line x1="356" y1="507" x2="356" y2="706" stroke="#0f172a" stroke-width="1.5"/><polygon points="356,706 352,698 360,698" fill="#0f172a"/></svg>