<svg xmlns="http://www.w3.org/2000/svg" width="568" height="834" viewBox="0 0 568 834"><rect width="100%" height="100%" fill="#ecfdf5"/><text x="32" y="22" font-family="monospace" font-size="16" font-weight="600" fill="#0f172a">Purchase Flow</text><metadata data-activity-kind="Start" data-activity-lane="default" data-activity-branch="0"/><circle cx="276" cy="66" r="12" fill="#0f172a"/><metadata data-activity-kind="Action" data-activity-lane="default" data-activity-branch="0"/><rect x="196" y="94" width="160" height="36" rx="18" ry="18" fill="#ecfdf5" stroke="#047857" stroke-width="1.5"/><text x="276" y="117" text-anchor="middle" font-family="monospace" font-size="12" fill="#0f172a">Add to Cart</text><polyline points="276,88 276,90" fill="none" stroke="#0f172a" stroke-width="1.5"/><polygon points="276,90 272,82 280,82" fill="#0f172a"/><metadata data-activity-kind="Action" data-activity-lane="default" data-activity-branch="0"/><rect x="196" y="138" width="160" height="36" rx="18" ry="18" fill="#ecfdf5" stroke="#047857" stroke-width="1.5"/><text x="276" y="161" text-anchor="middle" font-family="monospace" font-size="12" fill="#0f172a">View Cart</text><polyline points="276,132 276,134" fill="none" stroke="#0f172a" stroke-width="1.5"/><polygon points="276,134 272,126 280,126" fill="#0f172a"/><metadata data-activity-kind="IfStart" data-activity-lane="default" data-activity-branch="0"/><polygon points="276,180 376,202 276,224 176,202" fill="#fef9c3" stroke="#047857" stroke-width="1.5"/><text x="276" y="206" text-anchor="middle" font-family="monospace" font-size="11" fill="#0f172a">Checkout?</text><polyline points="276,176 276,178" fill="none" stroke="#0f172a" stroke-width="1.5"/><polygon points="276,178 272,170 280,170" fill="#0f172a"/><metadata data-activity-kind="Action" data-activity-lane="default" data-activity-branch="0"/><rect x="116" y="226" width="160" height="36" rx="18" ry="18" fill="#ecfdf5" stroke="#047857" stroke-width="1.5"/><text x="196" y="249" text-anchor="middle" font-family="monospace" font-size="12" fill="#0f172a">Enter Shipping</text><polyline points="176,202 176,212 196,212 196,222" fill="none" stroke="#0f172a" stroke-width="1.5"/><polygon points="196,222 192,214 200,214" fill="#0f172a"/><text x="202" y="212" font-family="monospace" font-size="10" fill="#0f172a">yes</text><metadata data-activity-kind="Action" data-activity-lane="default" data-activity-branch="0"/><rect x="116" y="270" width="160" height="36" rx="18" ry="18" fill="#ecfdf5" stroke="#047857" stroke-width="1.5"/><text x="196" y="293" text-anchor="middle" font-family="monospace" font-size="12" fill="#0f172a">Select Payment</text><polyline points="196,264 196,266" fill="none" stroke="#0f172a" stroke-width="1.5"/><polygon points="196,266 192,258 200,258" fill="#0f172a"/><metadata data-activity-kind="IfStart" data-activity-lane="default" data-activity-branch="0"/><polygon points="196,312 296,334 196,356 96,334" fill="#fef9c3" stroke="#047857" stroke-width="1.5"/><text x="196" y="338" text-anchor="middle" font-family="monospace" font-size="11" fill="#0f172a">Card?</text><polyline points="196,308 196,310" fill="none" stroke="#0f172a" stroke-width="1.5"/><polygon points="196,310 192,302 200,302" fill="#0f172a"/><metadata data-activity-kind="Action" data-activity-lane="default" data-activity-branch="0"/><rect x="36" y="358" width="160" height="36" rx="18" ry="18" fill="#ecfdf5" stroke="#047857" stroke-width="1.5"/><text x="116" y="381" text-anchor="middle" font-family="monospace" font-size="12" fill="#0f172a">Process Card</text><polyline points="96,334 96,344 116,344 116,354" fill="none" stroke="#0f172a" stroke-width="1.5"/><polygon points="116,354 112,346 120,346" fill="#0f172a"/><text x="122" y="344" font-family="monospace" font-size="10" fill="#0f172a">yes</text><metadata data-activity-kind="Else" data-activity-lane="default" data-activity-branch="0"/><metadata data-activity-kind="Action" data-activity-lane="default" data-activity-branch="0"/><rect x="196" y="402" width="160" height="36" rx="18" ry="18" fill="#ecfdf5" stroke="#047857" stroke-width="1.5"/><text x="276" y="425" text-anchor="middle" font-family="monospace" font-size="12" fill="#0f172a">Redirect PayPal</text><polyline points="196,352 196,375 276,375 276,398" fill="none" stroke="#0f172a" stroke-width="1.5"/><polygon points="276,398 272,390 280,390" fill="#0f172a"/><text x="282" y="375" font-family="monospace" font-size="10" fill="#0f172a">no, PayPal</text><metadata data-activity-kind="EndIf" data-activity-lane="default" data-activity-branch="0"/><metadata data-activity-kind="IfStart" data-activity-lane="default" data-activity-branch="0"/><polygon points="196,488 296,510 196,532 96,510" fill="#fef9c3" stroke="#047857" stroke-width="1.5"/><text x="196" y="514" text-anchor="middle" font-family="monospace" font-size="11" fill="#0f172a">Payment OK?</text><polyline points="116,396 116,441 196,441 196,486" fill="none" stroke="#0f172a" stroke-width="1.5"/><polygon points="196,486 192,478 200,478" fill="#0f172a"/><polyline points="276,440 276,463 196,463 196,486" fill="none" stroke="#0f172a" stroke-width="1.5"/><polygon points="196,486 192,478 200,478" fill="#0f172a"/><metadata data-activity-kind="Action" data-activity-lane="default" data-activity-branch="0"/><rect x="36" y="534" width="160" height="36" rx="18" ry="18" fill="#ecfdf5" stroke="#047857" stroke-width="1.5"/><text x="116" y="557" text-anchor="middle" font-family="monospace" font-size="12" fill="#0f172a">Create Order</text><polyline points="96,510 96,520 116,520 116,530" fill="none" stroke="#0f172a" stroke-width="1.5"/><polygon points="116,530 112,522 120,522" fill="#0f172a"/><text x="122" y="520" font-family="monospace" font-size="10" fill="#0f172a">yes</text><metadata data-activity-kind="Action" data-activity-lane="default" data-activity-branch="0"/><rect x="36" y="578" width="160" height="36" rx="18" ry="18" fill="#ecfdf5" stroke="#047857" stroke-width="1.5"/><text x="116" y="601" text-anchor="middle" font-family="monospace" font-size="12" fill="#0f172a">Send Receipt</text><polyline points="116,572 116,574" fill="none" stroke="#0f172a" stroke-width="1.5"/><polygon points="116,574 112,566 120,566" fill="#0f172a"/><metadata data-activity-kind="Action" data-activity-lane="default" data-activity-branch="0"/><rect x="36" y="622" width="160" height="36" rx="18" ry="18" fill="#ecfdf5" stroke="#047857" stroke-width="1.5"/><text x="116" y="645" text-anchor="middle" font-family="monospace" font-size="12" fill="#0f172a">Fulfill Order</text><polyline points="116,616 116,618" fill="none" stroke="#0f172a" stroke-width="1.5"/><polygon points="116,618 112,610 120,610" fill="#0f172a"/><metadata data-activity-kind="Else" data-activity-lane="default" data-activity-branch="0"/><metadata data-activity-kind="Action" data-activity-lane="default" data-activity-branch="0"/><rect x="196" y="578" width="160" height="36" rx="18" ry="18" fill="#ecfdf5" stroke="#047857" stroke-width="1.5"/><text x="276" y="601" text-anchor="middle" font-family="monospace" font-size="12" fill="#0f172a">Show Error</text><polyline points="196,528 196,551 276,551 276,574" fill="none" stroke="#0f172a" stroke-width="1.5"/><polygon points="276,574 272,566 280,566" fill="#0f172a"/><text x="282" y="551" font-family="monospace" font-size="10" fill="#0f172a">no</text><metadata data-activity-kind="EndIf" data-activity-lane="default" data-activity-branch="0"/><metadata data-activity-kind="Else" data-activity-lane="default" data-activity-branch="0"/><metadata data-activity-kind="Action" data-activity-lane="default" data-activity-branch="0"/><rect x="276" y="270" width="160" height="36" rx="18" ry="18" fill="#ecfdf5" stroke="#047857" stroke-width="1.5"/><text x="356" y="293" text-anchor="middle" font-family="monospace" font-size="12" fill="#0f172a">Continue Shopping</text><polyline points="116,660 368,660 368,463 356,463 356,266" fill="none" stroke="#0f172a" stroke-width="1.5"/><polygon points="356,266 352,274 360,274" fill="#0f172a"/><polyline points="276,616 368,616 368,441 356,441 356,266" fill="none" stroke="#0f172a" stroke-width="1.5"/><polygon points="356,266 352,274 360,274" fill="#0f172a"/><polyline points="276,220 276,243 356,243 356,266" fill="none" stroke="#0f172a" stroke-width="1.5"/><polygon points="356,266 352,258 360,258" fill="#0f172a"/><text x="362" y="243" font-family="monospace" font-size="10" fill="#0f172a">no</text><metadata data-activity-kind="EndIf" data-activity-lane="default" data-activity-branch="0"/><metadata data-activity-kind="Stop" data-activity-lane="default" data-activity-branch="0"/><circle cx="276" cy="770" r="14" fill="white" stroke="#0f172a" stroke-width="1.5"/><circle cx="276" cy="770" r="7" fill="#0f172a"/><polyline points="356,308 356,529 276,529 276,750" fill="none" stroke="#0f172a" stroke-width="1.5"/><polygon points="276,750 272,742 280,742" fill="#0f172a"/></svg>