<svg xmlns="http://www.w3.org/2000/svg" width="480" height="1442" viewBox="0 0 480 1442"><rect width="100%" height="100%" fill="white"/><text x="32" y="28" font-family="monospace" font-size="18" font-weight="600">Purchase Flow</text><text x="32" y="52" font-family="monospace" font-size="12" fill="#475569">activity diagram</text><circle cx="240" cy="82" r="12" fill="#0f172a"/><rect x="130" y="126" width="220" height="36" rx="18" ry="18" fill="#ecfdf5" stroke="#047857" stroke-width="1.5"/><text x="240" y="149" text-anchor="middle" font-family="monospace" font-size="12">Add to Cart</text><line x1="240" y1="104" x2="240" y2="122" stroke="#0f172a" stroke-width="1.5"/><polygon points="240,122 236,116 244,116" fill="#0f172a"/><rect x="130" y="186" width="220" height="36" rx="18" ry="18" fill="#ecfdf5" stroke="#047857" stroke-width="1.5"/><text x="240" y="209" text-anchor="middle" font-family="monospace" font-size="12">View Cart</text><line x1="240" y1="164" x2="240" y2="182" stroke="#0f172a" stroke-width="1.5"/><polygon points="240,182 236,176 244,176" fill="#0f172a"/><polygon points="240,244 340,266 240,288 140,266" fill="#fef9c3" stroke="#047857" stroke-width="1.5"/><text x="240" y="270" text-anchor="middle" font-family="monospace" font-size="11">Checkout?) then (yes</text><line x1="240" y1="224" x2="240" y2="242" stroke="#0f172a" stroke-width="1.5"/><polygon points="240,242 236,236 244,236" fill="#0f172a"/><rect x="130" y="306" width="220" height="36" rx="18" ry="18" fill="#ecfdf5" stroke="#047857" stroke-width="1.5"/><text x="240" y="329" text-anchor="middle" font-family="monospace" font-size="12">Enter Shipping</text><line x1="240" y1="284" x2="240" y2="302" stroke="#0f172a" stroke-width="1.5"/><polygon points="240,302 236,296 244,296" fill="#0f172a"/><rect x="130" y="366" width="220" height="36" rx="18" ry="18" fill="#ecfdf5" stroke="#047857" stroke-width="1.5"/><text x="240" y="389" text-anchor="middle" font-family="monospace" font-size="12">Select Payment</text><line x1="240" y1="344" x2="240" y2="362" stroke="#0f172a" stroke-width="1.5"/><polygon points="240,362 236,356 244,356" fill="#0f172a"/><polygon points="240,424 340,446 240,468 140,446" fill="#fef9c3" stroke="#047857" stroke-width="1.5"/><text x="240" y="450" text-anchor="middle" font-family="monospace" font-size="11">Card?) then (yes</text><line x1="240" y1="404" x2="240" y2="422" stroke="#0f172a" stroke-width="1.5"/><polygon points="240,422 236,416 244,416" fill="#0f172a"/><rect x="130" y="486" width="220" height="36" rx="18" ry="18" fill="#ecfdf5" stroke="#047857" stroke-width="1.5"/><text x="240" y="509" text-anchor="middle" font-family="monospace" font-size="12">Process Card</text><line x1="240" y1="464" x2="240" y2="482" stroke="#0f172a" stroke-width="1.5"/><polygon points="240,482 236,476 244,476" fill="#0f172a"/><text x="240" y="570" text-anchor="middle" font-family="monospace" font-size="11" fill="#475569">(merge) no, PayPal</text><line x1="240" y1="524" x2="240" y2="542" stroke="#0f172a" stroke-width="1.5"/><polygon points="240,542 236,536 244,536" fill="#0f172a"/><rect x="130" y="606" width="220" height="36" rx="18" ry="18" fill="#ecfdf5" stroke="#047857" stroke-width="1.5"/><text x="240" y="629" text-anchor="middle" font-family="monospace" font-size="12">Redirect PayPal</text><line x1="240" y1="584" x2="240" y2="602" stroke="#0f172a" stroke-width="1.5"/><polygon points="240,602 236,596 244,596" fill="#0f172a"/><text x="240" y="690" text-anchor="middle" font-family="monospace" font-size="11" fill="#475569">(merge) </text><line x1="240" y1="644" x2="240" y2="662" stroke="#0f172a" stroke-width="1.5"/><polygon points="240,662 236,656 244,656" fill="#0f172a"/><polygon points="240,724 340,746 240,768 140,746" fill="#fef9c3" stroke="#047857" stroke-width="1.5"/><text x="240" y="750" text-anchor="middle" font-family="monospace" font-size="11">Payment OK?) then (yes</text><line x1="240" y1="704" x2="240" y2="722" stroke="#0f172a" stroke-width="1.5"/><polygon points="240,722 236,716 244,716" fill="#0f172a"/><rect x="130" y="786" width="220" height="36" rx="18" ry="18" fill="#ecfdf5" stroke="#047857" stroke-width="1.5"/><text x="240" y="809" text-anchor="middle" font-family="monospace" font-size="12">Create Order</text><line x1="240" y1="764" x2="240" y2="782" stroke="#0f172a" stroke-width="1.5"/><polygon points="240,782 236,776 244,776" fill="#0f172a"/><rect x="130" y="846" width="220" height="36" rx="18" ry="18" fill="#ecfdf5" stroke="#047857" stroke-width="1.5"/><text x="240" y="869" text-anchor="middle" font-family="monospace" font-size="12">Send Receipt</text><line x1="240" y1="824" x2="240" y2="842" stroke="#0f172a" stroke-width="1.5"/><polygon points="240,842 236,836 244,836" fill="#0f172a"/><rect x="130" y="906" width="220" height="36" rx="18" ry="18" fill="#ecfdf5" stroke="#047857" stroke-width="1.5"/><text x="240" y="929" text-anchor="middle" font-family="monospace" font-size="12">Fulfill Order</text><line x1="240" y1="884" x2="240" y2="902" stroke="#0f172a" stroke-width="1.5"/><polygon points="240,902 236,896 244,896" fill="#0f172a"/><text x="240" y="990" text-anchor="middle" font-family="monospace" font-size="11" fill="#475569">(merge) no</text><line x1="240" y1="944" x2="240" y2="962" stroke="#0f172a" stroke-width="1.5"/><polygon points="240,962 236,956 244,956" fill="#0f172a"/><rect x="130" y="1026" width="220" height="36" rx="18" ry="18" fill="#ecfdf5" stroke="#047857" stroke-width="1.5"/><text x="240" y="1049" text-anchor="middle" font-family="monospace" font-size="12">Show Error</text><line x1="240" y1="1004" x2="240" y2="1022" stroke="#0f172a" stroke-width="1.5"/><polygon points="240,1022 236,1016 244,1016" fill="#0f172a"/><text x="240" y="1110" text-anchor="middle" font-family="monospace" font-size="11" fill="#475569">(merge) </text><line x1="240" y1="1064" x2="240" y2="1082" stroke="#0f172a" stroke-width="1.5"/><polygon points="240,1082 236,1076 244,1076" fill="#0f172a"/><text x="240" y="1170" text-anchor="middle" font-family="monospace" font-size="11" fill="#475569">(merge) no</text><line x1="240" y1="1124" x2="240" y2="1142" stroke="#0f172a" stroke-width="1.5"/><polygon points="240,1142 236,1136 244,1136" fill="#0f172a"/><rect x="130" y="1206" width="220" height="36" rx="18" ry="18" fill="#ecfdf5" stroke="#047857" stroke-width="1.5"/><text x="240" y="1229" text-anchor="middle" font-family="monospace" font-size="12">Continue Shopping</text><line x1="240" y1="1184" x2="240" y2="1202" stroke="#0f172a" stroke-width="1.5"/><polygon points="240,1202 236,1196 244,1196" fill="#0f172a"/><text x="240" y="1290" text-anchor="middle" font-family="monospace" font-size="11" fill="#475569">(merge) </text><line x1="240" y1="1244" x2="240" y2="1262" stroke="#0f172a" stroke-width="1.5"/><polygon points="240,1262 236,1256 244,1256" fill="#0f172a"/><circle cx="240" cy="1342" r="14" fill="white" stroke="#0f172a" stroke-width="1.5"/><circle cx="240" cy="1342" r="7" fill="#0f172a"/><line x1="240" y1="1304" x2="240" y2="1322" stroke="#0f172a" stroke-width="1.5"/><polygon points="240,1322 236,1316 244,1316" fill="#0f172a"/></svg>