<svg xmlns="http://www.w3.org/2000/svg" width="568" height="834" viewBox="0 0 568 834"><rect width="100%" height="100%" fill="#ecfdf5"/><text x="32" y="22" font-family="monospace" font-size="16" font-weight="600" fill="#0f172a">Purchase Flow</text><metadata data-activity-kind="Start" data-activity-lane="default" data-activity-branch="0"/><circle cx="276" cy="66" r="12" fill="#0f172a"/><metadata data-activity-kind="Action" data-activity-lane="default" data-activity-branch="0"/><rect x="196" y="94" width="160" height="36" rx="18" ry="18" fill="#ecfdf5" stroke="#047857" stroke-width="1.5"/><text x="276" y="117" text-anchor="middle" font-family="monospace" font-size="12" fill="#0f172a">Add to Cart</text><line x1="276" y1="88" x2="276" y2="90" stroke="#0f172a" stroke-width="1.5"/><polygon points="276,90 272,82 280,82" fill="#0f172a"/><metadata data-activity-kind="Action" data-activity-lane="default" data-activity-branch="0"/><rect x="196" y="138" width="160" height="36" rx="18" ry="18" fill="#ecfdf5" stroke="#047857" stroke-width="1.5"/><text x="276" y="161" text-anchor="middle" font-family="monospace" font-size="12" fill="#0f172a">View Cart</text><line x1="276" y1="132" x2="276" y2="134" stroke="#0f172a" stroke-width="1.5"/><polygon points="276,134 272,126 280,126" fill="#0f172a"/><metadata data-activity-kind="IfStart" data-activity-lane="default" data-activity-branch="0"/><polygon points="276,180 376,202 276,224 176,202" fill="#fef9c3" stroke="#047857" stroke-width="1.5"/><text x="276" y="206" text-anchor="middle" font-family="monospace" font-size="11" fill="#0f172a">Checkout?</text><line x1="276" y1="176" x2="276" y2="178" stroke="#0f172a" stroke-width="1.5"/><polygon points="276,178 272,170 280,170" fill="#0f172a"/><metadata data-activity-kind="Action" data-activity-lane="default" data-activity-branch="0"/><rect x="116" y="226" width="160" height="36" rx="18" ry="18" fill="#ecfdf5" stroke="#047857" stroke-width="1.5"/><text x="196" y="249" text-anchor="middle" font-family="monospace" font-size="12" fill="#0f172a">Enter Shipping</text><line x1="176" y1="202" x2="176" y2="212" stroke="#0f172a" stroke-width="1.5"/><line x1="176" y1="212" x2="196" y2="212" stroke="#0f172a" stroke-width="1.5"/><line x1="196" y1="212" x2="196" y2="222" stroke="#0f172a" stroke-width="1.5"/><polygon points="196,222 192,214 200,214" fill="#0f172a"/><text x="190" y="208" font-family="monospace" font-size="10" fill="#0f172a">no</text><metadata data-activity-kind="Action" data-activity-lane="default" data-activity-branch="0"/><rect x="116" y="270" width="160" height="36" rx="18" ry="18" fill="#ecfdf5" stroke="#047857" stroke-width="1.5"/><text x="196" y="293" text-anchor="middle" font-family="monospace" font-size="12" fill="#0f172a">Select Payment</text><line x1="196" y1="264" x2="196" y2="266" stroke="#0f172a" stroke-width="1.5"/><polygon points="196,266 192,258 200,258" fill="#0f172a"/><metadata data-activity-kind="IfStart" data-activity-lane="default" data-activity-branch="0"/><polygon points="196,312 296,334 196,356 96,334" fill="#fef9c3" stroke="#047857" stroke-width="1.5"/><text x="196" y="338" text-anchor="middle" font-family="monospace" font-size="11" fill="#0f172a">Card?</text><line x1="196" y1="308" x2="196" y2="310" stroke="#0f172a" stroke-width="1.5"/><polygon points="196,310 192,302 200,302" fill="#0f172a"/><metadata data-activity-kind="Action" data-activity-lane="default" data-activity-branch="0"/><rect x="36" y="358" width="160" height="36" rx="18" ry="18" fill="#ecfdf5" stroke="#047857" stroke-width="1.5"/><text x="116" y="381" text-anchor="middle" font-family="monospace" font-size="12" fill="#0f172a">Process Card</text><line x1="96" y1="334" x2="96" y2="344" stroke="#0f172a" stroke-width="1.5"/><line x1="96" y1="344" x2="116" y2="344" stroke="#0f172a" stroke-width="1.5"/><line x1="116" y1="344" x2="116" y2="354" stroke="#0f172a" stroke-width="1.5"/><polygon points="116,354 112,346 120,346" fill="#0f172a"/><text x="110" y="340" font-family="monospace" font-size="10" fill="#0f172a">no, PayPal</text><metadata data-activity-kind="Else" data-activity-lane="default" data-activity-branch="0"/><metadata data-activity-kind="Action" data-activity-lane="default" data-activity-branch="0"/><rect x="196" y="402" width="160" height="36" rx="18" ry="18" fill="#ecfdf5" stroke="#047857" stroke-width="1.5"/><text x="276" y="425" text-anchor="middle" font-family="monospace" font-size="12" fill="#0f172a">Redirect PayPal</text><line x1="196" y1="352" x2="196" y2="375" stroke="#0f172a" stroke-width="1.5"/><line x1="196" y1="375" x2="276" y2="375" stroke="#0f172a" stroke-width="1.5"/><line x1="276" y1="375" x2="276" y2="398" stroke="#0f172a" stroke-width="1.5"/><polygon points="276,398 272,390 280,390" fill="#0f172a"/><text x="240" y="371" font-family="monospace" font-size="10" fill="#0f172a">yes</text><metadata data-activity-kind="EndIf" data-activity-lane="default" data-activity-branch="0"/><metadata data-activity-kind="IfStart" data-activity-lane="default" data-activity-branch="0"/><polygon points="196,488 296,510 196,532 96,510" fill="#fef9c3" stroke="#047857" stroke-width="1.5"/><text x="196" y="514" text-anchor="middle" font-family="monospace" font-size="11" fill="#0f172a">Payment OK?</text><line x1="116" y1="396" x2="116" y2="441" stroke="#0f172a" stroke-width="1.5"/><line x1="116" y1="441" x2="196" y2="441" stroke="#0f172a" stroke-width="1.5"/><line x1="196" y1="441" x2="196" y2="486" stroke="#0f172a" stroke-width="1.5"/><polygon points="196,486 192,478 200,478" fill="#0f172a"/><line x1="276" y1="440" x2="276" y2="463" stroke="#0f172a" stroke-width="1.5"/><line x1="276" y1="463" x2="196" y2="463" stroke="#0f172a" stroke-width="1.5"/><line x1="196" y1="463" x2="196" y2="486" stroke="#0f172a" stroke-width="1.5"/><polygon points="196,486 192,478 200,478" fill="#0f172a"/><metadata data-activity-kind="Action" data-activity-lane="default" data-activity-branch="0"/><rect x="36" y="534" width="160" height="36" rx="18" ry="18" fill="#ecfdf5" stroke="#047857" stroke-width="1.5"/><text x="116" y="557" text-anchor="middle" font-family="monospace" font-size="12" fill="#0f172a">Create Order</text><line x1="96" y1="510" x2="96" y2="520" stroke="#0f172a" stroke-width="1.5"/><line x1="96" y1="520" x2="116" y2="520" stroke="#0f172a" stroke-width="1.5"/><line x1="116" y1="520" x2="116" y2="530" stroke="#0f172a" stroke-width="1.5"/><polygon points="116,530 112,522 120,522" fill="#0f172a"/><text x="110" y="516" font-family="monospace" font-size="10" fill="#0f172a">no</text><metadata data-activity-kind="Action" data-activity-lane="default" data-activity-branch="0"/><rect x="36" y="578" width="160" height="36" rx="18" ry="18" fill="#ecfdf5" stroke="#047857" stroke-width="1.5"/><text x="116" y="601" text-anchor="middle" font-family="monospace" font-size="12" fill="#0f172a">Send Receipt</text><line x1="116" y1="572" x2="116" y2="574" stroke="#0f172a" stroke-width="1.5"/><polygon points="116,574 112,566 120,566" fill="#0f172a"/><metadata data-activity-kind="Action" data-activity-lane="default" data-activity-branch="0"/><rect x="36" y="622" width="160" height="36" rx="18" ry="18" fill="#ecfdf5" stroke="#047857" stroke-width="1.5"/><text x="116" y="645" text-anchor="middle" font-family="monospace" font-size="12" fill="#0f172a">Fulfill Order</text><line x1="116" y1="616" x2="116" y2="618" stroke="#0f172a" stroke-width="1.5"/><polygon points="116,618 112,610 120,610" fill="#0f172a"/><metadata data-activity-kind="Else" data-activity-lane="default" data-activity-branch="0"/><metadata data-activity-kind="Action" data-activity-lane="default" data-activity-branch="0"/><rect x="196" y="578" width="160" height="36" rx="18" ry="18" fill="#ecfdf5" stroke="#047857" stroke-width="1.5"/><text x="276" y="601" text-anchor="middle" font-family="monospace" font-size="12" fill="#0f172a">Show Error</text><line x1="196" y1="528" x2="196" y2="551" stroke="#0f172a" stroke-width="1.5"/><line x1="196" y1="551" x2="276" y2="551" stroke="#0f172a" stroke-width="1.5"/><line x1="276" y1="551" x2="276" y2="574" stroke="#0f172a" stroke-width="1.5"/><polygon points="276,574 272,566 280,566" fill="#0f172a"/><text x="240" y="547" font-family="monospace" font-size="10" fill="#0f172a">yes</text><metadata data-activity-kind="EndIf" data-activity-lane="default" data-activity-branch="0"/><metadata data-activity-kind="Else" data-activity-lane="default" data-activity-branch="0"/><metadata data-activity-kind="Action" data-activity-lane="default" data-activity-branch="0"/><rect x="276" y="270" width="160" height="36" rx="18" ry="18" fill="#ecfdf5" stroke="#047857" stroke-width="1.5"/><text x="356" y="293" text-anchor="middle" font-family="monospace" font-size="12" fill="#0f172a">Continue Shopping</text><line x1="116" y1="660" x2="368" y2="660" stroke="#0f172a" stroke-width="1.5"/><line x1="368" y1="660" x2="368" y2="463" stroke="#0f172a" stroke-width="1.5"/><line x1="368" y1="463" x2="356" y2="463" stroke="#0f172a" stroke-width="1.5"/><line x1="356" y1="463" x2="356" y2="266" stroke="#0f172a" stroke-width="1.5"/><polygon points="356,266 352,274 360,274" fill="#0f172a"/><line x1="276" y1="616" x2="368" y2="616" stroke="#0f172a" stroke-width="1.5"/><line x1="368" y1="616" x2="368" y2="441" stroke="#0f172a" stroke-width="1.5"/><line x1="368" y1="441" x2="356" y2="441" stroke="#0f172a" stroke-width="1.5"/><line x1="356" y1="441" x2="356" y2="266" stroke="#0f172a" stroke-width="1.5"/><polygon points="356,266 352,274 360,274" fill="#0f172a"/><line x1="276" y1="220" x2="276" y2="243" stroke="#0f172a" stroke-width="1.5"/><line x1="276" y1="243" x2="356" y2="243" stroke="#0f172a" stroke-width="1.5"/><line x1="356" y1="243" x2="356" y2="266" stroke="#0f172a" stroke-width="1.5"/><polygon points="356,266 352,258 360,258" fill="#0f172a"/><text x="320" y="239" font-family="monospace" font-size="10" fill="#0f172a">yes</text><metadata data-activity-kind="EndIf" data-activity-lane="default" data-activity-branch="0"/><metadata data-activity-kind="Stop" data-activity-lane="default" data-activity-branch="0"/><circle cx="276" cy="770" r="14" fill="white" stroke="#0f172a" stroke-width="1.5"/><circle cx="276" cy="770" r="7" fill="#0f172a"/><line x1="356" y1="308" x2="356" y2="529" stroke="#0f172a" stroke-width="1.5"/><line x1="356" y1="529" x2="276" y2="529" stroke="#0f172a" stroke-width="1.5"/><line x1="276" y1="529" x2="276" y2="750" stroke="#0f172a" stroke-width="1.5"/><polygon points="276,750 272,742 280,742" fill="#0f172a"/></svg>