<svg xmlns="http://www.w3.org/2000/svg" width="1120" height="1142" viewBox="0 0 1120 1142"><rect width="100%" height="100%" fill="#ecfdf5"/><text x="32" y="28" font-family="monospace" font-size="18" font-weight="600" fill="#0f172a">Purchase Flow</text><text x="32" y="52" font-family="monospace" font-size="12" fill="#0f172a">activity diagram</text><rect x="32" y="62" width="1056" height="1060" fill="#ecfdf5" stroke="#cbd5e1" stroke-width="1" stroke-dasharray="4 3"/><metadata data-activity-kind="Start" data-activity-lane="default" data-activity-branch="0"/><circle cx="560" cy="82" r="12" fill="#0f172a"/><metadata data-activity-kind="Action" data-activity-lane="default" data-activity-branch="0"/><rect x="450" y="126" width="220" height="36" rx="18" ry="18" fill="#ecfdf5" stroke="#047857" stroke-width="1.5"/><text x="560" y="149" text-anchor="middle" font-family="monospace" font-size="12" fill="#0f172a">Add to Cart</text><line x1="560" y1="104" x2="560" y2="122" stroke="#0f172a" stroke-width="1.5"/><polygon points="560,122 556,114 564,114" fill="#0f172a"/><metadata data-activity-kind="Action" data-activity-lane="default" data-activity-branch="0"/><rect x="450" y="186" width="220" height="36" rx="18" ry="18" fill="#ecfdf5" stroke="#047857" stroke-width="1.5"/><text x="560" y="209" text-anchor="middle" font-family="monospace" font-size="12" fill="#0f172a">View Cart</text><line x1="560" y1="164" x2="560" y2="182" stroke="#0f172a" stroke-width="1.5"/><polygon points="560,182 556,174 564,174" fill="#0f172a"/><metadata data-activity-kind="IfStart" data-activity-lane="default" data-activity-branch="0"/><polygon points="560,244 660,266 560,288 460,266" fill="#fef9c3" stroke="#047857" stroke-width="1.5"/><text x="560" y="270" text-anchor="middle" font-family="monospace" font-size="11" fill="#0f172a">Checkout?</text><text x="664" y="270" text-anchor="start" font-family="monospace" font-size="10" fill="#0f172a">yes</text><line x1="560" y1="224" x2="560" y2="242" stroke="#0f172a" stroke-width="1.5"/><polygon points="560,242 556,234 564,234" fill="#0f172a"/><metadata data-activity-kind="Action" data-activity-lane="default" data-activity-branch="0"/><rect x="290" y="306" width="220" height="36" rx="18" ry="18" fill="#ecfdf5" stroke="#047857" stroke-width="1.5"/><text x="400" y="329" text-anchor="middle" font-family="monospace" font-size="12" fill="#0f172a">Enter Shipping</text><line x1="560" y1="284" x2="560" y2="293" stroke="#0f172a" stroke-width="1.5"/><line x1="560" y1="293" x2="400" y2="293" stroke="#0f172a" stroke-width="1.5"/><line x1="400" y1="293" x2="400" y2="302" stroke="#0f172a" stroke-width="1.5"/><polygon points="400,302 396,294 404,294" fill="#0f172a"/><metadata data-activity-kind="Action" data-activity-lane="default" data-activity-branch="0"/><rect x="290" y="366" width="220" height="36" rx="18" ry="18" fill="#ecfdf5" stroke="#047857" stroke-width="1.5"/><text x="400" y="389" text-anchor="middle" font-family="monospace" font-size="12" fill="#0f172a">Select Payment</text><line x1="400" y1="344" x2="400" y2="362" stroke="#0f172a" stroke-width="1.5"/><polygon points="400,362 396,354 404,354" fill="#0f172a"/><metadata data-activity-kind="IfStart" data-activity-lane="default" data-activity-branch="0"/><polygon points="400,424 500,446 400,468 300,446" fill="#fef9c3" stroke="#047857" stroke-width="1.5"/><text x="400" y="450" text-anchor="middle" font-family="monospace" font-size="11" fill="#0f172a">Card?</text><text x="504" y="450" text-anchor="start" font-family="monospace" font-size="10" fill="#0f172a">yes</text><line x1="400" y1="404" x2="400" y2="422" stroke="#0f172a" stroke-width="1.5"/><polygon points="400,422 396,414 404,414" fill="#0f172a"/><metadata data-activity-kind="Action" data-activity-lane="default" data-activity-branch="0"/><rect x="130" y="486" width="220" height="36" rx="18" ry="18" fill="#ecfdf5" stroke="#047857" stroke-width="1.5"/><text x="240" y="509" text-anchor="middle" font-family="monospace" font-size="12" fill="#0f172a">Process Card</text><line x1="400" y1="464" x2="400" y2="473" stroke="#0f172a" stroke-width="1.5"/><line x1="400" y1="473" x2="240" y2="473" stroke="#0f172a" stroke-width="1.5"/><line x1="240" y1="473" x2="240" y2="482" stroke="#0f172a" stroke-width="1.5"/><polygon points="240,482 236,474 244,474" fill="#0f172a"/><metadata data-activity-kind="Else" data-activity-lane="default" data-activity-branch="0"/><metadata data-activity-kind="Action" data-activity-lane="default" data-activity-branch="0"/><rect x="450" y="546" width="220" height="36" rx="18" ry="18" fill="#ecfdf5" stroke="#047857" stroke-width="1.5"/><text x="560" y="569" text-anchor="middle" font-family="monospace" font-size="12" fill="#0f172a">Redirect PayPal</text><line x1="400" y1="464" x2="400" y2="503" stroke="#0f172a" stroke-width="1.5"/><line x1="400" y1="503" x2="560" y2="503" stroke="#0f172a" stroke-width="1.5"/><line x1="560" y1="503" x2="560" y2="542" stroke="#0f172a" stroke-width="1.5"/><polygon points="560,542 556,534 564,534" fill="#0f172a"/><metadata data-activity-kind="EndIf" data-activity-lane="default" data-activity-branch="0"/><metadata data-activity-kind="IfStart" data-activity-lane="default" data-activity-branch="0"/><polygon points="400,664 500,686 400,708 300,686" fill="#fef9c3" stroke="#047857" stroke-width="1.5"/><text x="400" y="690" text-anchor="middle" font-family="monospace" font-size="11" fill="#0f172a">Payment OK?</text><text x="504" y="690" text-anchor="start" font-family="monospace" font-size="10" fill="#0f172a">yes</text><line x1="240" y1="524" x2="240" y2="593" stroke="#0f172a" stroke-width="1.5"/><line x1="240" y1="593" x2="400" y2="593" stroke="#0f172a" stroke-width="1.5"/><line x1="400" y1="593" x2="400" y2="662" stroke="#0f172a" stroke-width="1.5"/><polygon points="400,662 396,654 404,654" fill="#0f172a"/><line x1="560" y1="584" x2="560" y2="623" stroke="#0f172a" stroke-width="1.5"/><line x1="560" y1="623" x2="400" y2="623" stroke="#0f172a" stroke-width="1.5"/><line x1="400" y1="623" x2="400" y2="662" stroke="#0f172a" stroke-width="1.5"/><polygon points="400,662 396,654 404,654" fill="#0f172a"/><metadata data-activity-kind="Action" data-activity-lane="default" data-activity-branch="0"/><rect x="130" y="726" width="220" height="36" rx="18" ry="18" fill="#ecfdf5" stroke="#047857" stroke-width="1.5"/><text x="240" y="749" text-anchor="middle" font-family="monospace" font-size="12" fill="#0f172a">Create Order</text><line x1="400" y1="704" x2="400" y2="713" stroke="#0f172a" stroke-width="1.5"/><line x1="400" y1="713" x2="240" y2="713" stroke="#0f172a" stroke-width="1.5"/><line x1="240" y1="713" x2="240" y2="722" stroke="#0f172a" stroke-width="1.5"/><polygon points="240,722 236,714 244,714" fill="#0f172a"/><metadata data-activity-kind="Action" data-activity-lane="default" data-activity-branch="0"/><rect x="130" y="786" width="220" height="36" rx="18" ry="18" fill="#ecfdf5" stroke="#047857" stroke-width="1.5"/><text x="240" y="809" text-anchor="middle" font-family="monospace" font-size="12" fill="#0f172a">Send Receipt</text><line x1="240" y1="764" x2="240" y2="782" stroke="#0f172a" stroke-width="1.5"/><polygon points="240,782 236,774 244,774" fill="#0f172a"/><metadata data-activity-kind="Action" data-activity-lane="default" data-activity-branch="0"/><rect x="130" y="846" width="220" height="36" rx="18" ry="18" fill="#ecfdf5" stroke="#047857" stroke-width="1.5"/><text x="240" y="869" text-anchor="middle" font-family="monospace" font-size="12" fill="#0f172a">Fulfill Order</text><line x1="240" y1="824" x2="240" y2="842" stroke="#0f172a" stroke-width="1.5"/><polygon points="240,842 236,834 244,834" fill="#0f172a"/><metadata data-activity-kind="Else" data-activity-lane="default" data-activity-branch="0"/><metadata data-activity-kind="Action" data-activity-lane="default" data-activity-branch="0"/><rect x="450" y="786" width="220" height="36" rx="18" ry="18" fill="#ecfdf5" stroke="#047857" stroke-width="1.5"/><text x="560" y="809" text-anchor="middle" font-family="monospace" font-size="12" fill="#0f172a">Show Error</text><line x1="400" y1="704" x2="400" y2="743" stroke="#0f172a" stroke-width="1.5"/><line x1="400" y1="743" x2="560" y2="743" stroke="#0f172a" stroke-width="1.5"/><line x1="560" y1="743" x2="560" y2="782" stroke="#0f172a" stroke-width="1.5"/><polygon points="560,782 556,774 564,774" fill="#0f172a"/><metadata data-activity-kind="EndIf" data-activity-lane="default" data-activity-branch="0"/><metadata data-activity-kind="Else" data-activity-lane="default" data-activity-branch="0"/><metadata data-activity-kind="Action" data-activity-lane="default" data-activity-branch="0"/><rect x="610" y="366" width="220" height="36" rx="18" ry="18" fill="#ecfdf5" stroke="#047857" stroke-width="1.5"/><text x="720" y="389" text-anchor="middle" font-family="monospace" font-size="12" fill="#0f172a">Continue Shopping</text><line x1="240" y1="884" x2="240" y2="623" stroke="#0f172a" stroke-width="1.5"/><line x1="240" y1="623" x2="720" y2="623" stroke="#0f172a" stroke-width="1.5"/><line x1="720" y1="623" x2="720" y2="362" stroke="#0f172a" stroke-width="1.5"/><polygon points="720,362 716,370 724,370" fill="#0f172a"/><line x1="560" y1="824" x2="560" y2="593" stroke="#0f172a" stroke-width="1.5"/><line x1="560" y1="593" x2="720" y2="593" stroke="#0f172a" stroke-width="1.5"/><line x1="720" y1="593" x2="720" y2="362" stroke="#0f172a" stroke-width="1.5"/><polygon points="720,362 716,370 724,370" fill="#0f172a"/><line x1="560" y1="284" x2="560" y2="323" stroke="#0f172a" stroke-width="1.5"/><line x1="560" y1="323" x2="720" y2="323" stroke="#0f172a" stroke-width="1.5"/><line x1="720" y1="323" x2="720" y2="362" stroke="#0f172a" stroke-width="1.5"/><polygon points="720,362 716,354 724,354" fill="#0f172a"/><metadata data-activity-kind="EndIf" data-activity-lane="default" data-activity-branch="0"/><metadata data-activity-kind="Stop" data-activity-lane="default" data-activity-branch="0"/><circle cx="560" cy="1042" r="14" fill="white" stroke="#0f172a" stroke-width="1.5"/><circle cx="560" cy="1042" r="7" fill="#0f172a"/><line x1="720" y1="404" x2="720" y2="713" stroke="#0f172a" stroke-width="1.5"/><line x1="720" y1="713" x2="560" y2="713" stroke="#0f172a" stroke-width="1.5"/><line x1="560" y1="713" x2="560" y2="1022" stroke="#0f172a" stroke-width="1.5"/><polygon points="560,1022 556,1014 564,1014" fill="#0f172a"/></svg>