<svg xmlns="http://www.w3.org/2000/svg" width="568" height="790" viewBox="0 0 568 790"><rect width="100%" height="100%" fill="#ecfdf5"/><text x="32" y="22" font-family="monospace" font-size="16" font-weight="600" fill="#0f172a">Report Generation</text><metadata data-activity-kind="Start" data-activity-lane="default" data-activity-branch="0"/><circle cx="276" cy="66" r="12" fill="#0f172a"/><metadata data-activity-kind="Action" data-activity-lane="default" data-activity-branch="0"/><rect x="196" y="94" width="160" height="36" rx="18" ry="18" fill="#ecfdf5" stroke="#047857" stroke-width="1.5"/><text x="276" y="117" text-anchor="middle" font-family="monospace" font-size="12" fill="#0f172a">Select Report Type</text><line x1="276" y1="88" x2="276" y2="90" stroke="#0f172a" stroke-width="1.5"/><polygon points="276,90 272,82 280,82" fill="#0f172a"/><metadata data-activity-kind="Fork" data-activity-lane="default" data-activity-branch="0"/><rect x="66" y="158" width="420" height="8" fill="#0f172a"/><line x1="276" y1="132" x2="276" y2="134" stroke="#0f172a" stroke-width="1.5"/><polygon points="276,134 272,126 280,126" fill="#0f172a"/><metadata data-activity-kind="Action" data-activity-lane="default" data-activity-branch="0"/><rect x="66" y="182" width="160" height="36" rx="18" ry="18" fill="#ecfdf5" stroke="#047857" stroke-width="1.5"/><text x="146" y="205" text-anchor="middle" font-family="monospace" font-size="12" fill="#0f172a">Fetch Data</text><metadata data-activity-kind="ForkAgain" data-activity-lane="default" data-activity-branch="1"/><metadata data-activity-kind="Action" data-activity-lane="default" data-activity-branch="1"/><rect x="326" y="182" width="160" height="36" rx="18" ry="18" fill="#ecfdf5" stroke="#047857" stroke-width="1.5"/><text x="406" y="205" text-anchor="middle" font-family="monospace" font-size="12" fill="#0f172a">Get Template</text><metadata data-activity-kind="EndFork" data-activity-lane="default" data-activity-branch="0"/><rect x="66" y="246" width="420" height="8" fill="#0f172a"/><metadata data-activity-kind="Action" data-activity-lane="default" data-activity-branch="0"/><rect x="196" y="270" width="160" height="36" rx="18" ry="18" fill="#ecfdf5" stroke="#047857" stroke-width="1.5"/><text x="276" y="293" text-anchor="middle" font-family="monospace" font-size="12" fill="#0f172a">Merge Data and Template</text><line x1="276" y1="264" x2="276" y2="266" stroke="#0f172a" stroke-width="1.5"/><polygon points="276,266 272,258 280,258" fill="#0f172a"/><metadata data-activity-kind="WhileStart" data-activity-lane="default" data-activity-branch="0"/><polygon points="276,312 376,334 276,356 176,334" fill="#fef9c3" stroke="#047857" stroke-width="1.5"/><text x="276" y="338" text-anchor="middle" font-family="monospace" font-size="11" fill="#0f172a">More Pages?</text><line x1="276" y1="308" x2="276" y2="310" stroke="#0f172a" stroke-width="1.5"/><polygon points="276,310 272,302 280,302" fill="#0f172a"/><path d="M 276 396 L 286 396 Q 368 396 368 386" fill="none" stroke="#0f172a" stroke-width="1.5"/><line x1="368" y1="386" x2="368" y2="320" stroke="#0f172a" stroke-width="1.5"/><path d="M 368 320 Q 368 310 286 310 L 276 310" fill="none" stroke="#0f172a" stroke-width="1.5"/><polygon points="276,310 272,318 280,318" fill="#0f172a"/><text x="374" y="353" font-family="monospace" font-size="10" fill="#0f172a">yes</text><metadata data-activity-kind="Action" data-activity-lane="default" data-activity-branch="0"/><rect x="196" y="358" width="160" height="36" rx="18" ry="18" fill="#ecfdf5" stroke="#047857" stroke-width="1.5"/><text x="276" y="381" text-anchor="middle" font-family="monospace" font-size="12" fill="#0f172a">Render Page</text><line x1="276" y1="352" x2="276" y2="354" stroke="#0f172a" stroke-width="1.5"/><polygon points="276,354 272,346 280,346" fill="#0f172a"/><metadata data-activity-kind="EndWhile" data-activity-lane="default" data-activity-branch="0"/><metadata data-activity-kind="Action" data-activity-lane="default" data-activity-branch="0"/><rect x="196" y="446" width="160" height="36" rx="18" ry="18" fill="#ecfdf5" stroke="#047857" stroke-width="1.5"/><text x="276" y="469" text-anchor="middle" font-family="monospace" font-size="12" fill="#0f172a">Combine Pages</text><line x1="376" y1="334" x2="376" y2="388" stroke="#0f172a" stroke-width="1.5"/><line x1="376" y1="388" x2="276" y2="388" stroke="#0f172a" stroke-width="1.5"/><line x1="276" y1="388" x2="276" y2="442" stroke="#0f172a" stroke-width="1.5"/><polygon points="276,442 272,434 280,434" fill="#0f172a"/><metadata data-activity-kind="IfStart" data-activity-lane="default" data-activity-branch="0"/><polygon points="276,488 376,510 276,532 176,510" fill="#fef9c3" stroke="#047857" stroke-width="1.5"/><text x="276" y="514" text-anchor="middle" font-family="monospace" font-size="11" fill="#0f172a">Export Format?</text><line x1="276" y1="484" x2="276" y2="486" stroke="#0f172a" stroke-width="1.5"/><polygon points="276,486 272,478 280,478" fill="#0f172a"/><metadata data-activity-kind="Action" data-activity-lane="default" data-activity-branch="0"/><rect x="116" y="534" width="160" height="36" rx="18" ry="18" fill="#ecfdf5" stroke="#047857" stroke-width="1.5"/><text x="196" y="557" text-anchor="middle" font-family="monospace" font-size="12" fill="#0f172a">Convert to PDF</text><line x1="176" y1="510" x2="176" y2="520" stroke="#0f172a" stroke-width="1.5"/><line x1="176" y1="520" x2="196" y2="520" stroke="#0f172a" stroke-width="1.5"/><line x1="196" y1="520" x2="196" y2="530" stroke="#0f172a" stroke-width="1.5"/><polygon points="196,530 192,522 200,522" fill="#0f172a"/><text x="190" y="516" font-family="monospace" font-size="10" fill="#0f172a">Excel</text><metadata data-activity-kind="Else" data-activity-lane="default" data-activity-branch="0"/><metadata data-activity-kind="Action" data-activity-lane="default" data-activity-branch="0"/><rect x="276" y="578" width="160" height="36" rx="18" ry="18" fill="#ecfdf5" stroke="#047857" stroke-width="1.5"/><text x="356" y="601" text-anchor="middle" font-family="monospace" font-size="12" fill="#0f172a">Export Excel</text><line x1="276" y1="528" x2="276" y2="551" stroke="#0f172a" stroke-width="1.5"/><line x1="276" y1="551" x2="356" y2="551" stroke="#0f172a" stroke-width="1.5"/><line x1="356" y1="551" x2="356" y2="574" stroke="#0f172a" stroke-width="1.5"/><polygon points="356,574 352,566 360,566" fill="#0f172a"/><text x="320" y="547" font-family="monospace" font-size="10" fill="#0f172a">PDF</text><line x1="276" y1="528" x2="276" y2="551" stroke="#0f172a" stroke-width="1.5"/><line x1="276" y1="551" x2="356" y2="551" stroke="#0f172a" stroke-width="1.5"/><line x1="356" y1="551" x2="356" y2="574" stroke="#0f172a" stroke-width="1.5"/><polygon points="356,574 352,566 360,566" fill="#0f172a"/><text x="320" y="547" font-family="monospace" font-size="10" fill="#0f172a">PDF</text><metadata data-activity-kind="Else" data-activity-lane="default" data-activity-branch="0"/><metadata data-activity-kind="Action" data-activity-lane="default" data-activity-branch="0"/><rect x="276" y="578" width="160" height="36" rx="18" ry="18" fill="#ecfdf5" stroke="#047857" stroke-width="1.5"/><text x="356" y="601" text-anchor="middle" font-family="monospace" font-size="12" fill="#0f172a">Export CSV</text><line x1="276" y1="528" x2="276" y2="551" stroke="#0f172a" stroke-width="1.5"/><line x1="276" y1="551" x2="356" y2="551" stroke="#0f172a" stroke-width="1.5"/><line x1="356" y1="551" x2="356" y2="574" stroke="#0f172a" stroke-width="1.5"/><polygon points="356,574 352,566 360,566" fill="#0f172a"/><text x="320" y="547" font-family="monospace" font-size="10" fill="#0f172a">PDF</text><line x1="276" y1="528" x2="276" y2="551" stroke="#0f172a" stroke-width="1.5"/><line x1="276" y1="551" x2="356" y2="551" stroke="#0f172a" stroke-width="1.5"/><line x1="356" y1="551" x2="356" y2="574" stroke="#0f172a" stroke-width="1.5"/><polygon points="356,574 352,566 360,566" fill="#0f172a"/><text x="320" y="547" font-family="monospace" font-size="10" fill="#0f172a">PDF</text><metadata data-activity-kind="EndIf" data-activity-lane="default" data-activity-branch="0"/><metadata data-activity-kind="Action" data-activity-lane="default" data-activity-branch="0"/><rect x="196" y="666" width="160" height="36" rx="18" ry="18" fill="#ecfdf5" stroke="#047857" stroke-width="1.5"/><text x="276" y="689" text-anchor="middle" font-family="monospace" font-size="12" fill="#0f172a">Deliver Report</text><line x1="356" y1="616" x2="356" y2="639" stroke="#0f172a" stroke-width="1.5"/><line x1="356" y1="639" x2="276" y2="639" stroke="#0f172a" stroke-width="1.5"/><line x1="276" y1="639" x2="276" y2="662" stroke="#0f172a" stroke-width="1.5"/><polygon points="276,662 272,654 280,654" fill="#0f172a"/><line x1="356" y1="616" x2="356" y2="639" stroke="#0f172a" stroke-width="1.5"/><line x1="356" y1="639" x2="276" y2="639" stroke="#0f172a" stroke-width="1.5"/><line x1="276" y1="639" x2="276" y2="662" stroke="#0f172a" stroke-width="1.5"/><polygon points="276,662 272,654 280,654" fill="#0f172a"/><metadata data-activity-kind="Stop" data-activity-lane="default" data-activity-branch="0"/><circle cx="276" cy="726" r="14" fill="white" stroke="#0f172a" stroke-width="1.5"/><circle cx="276" cy="726" r="7" fill="#0f172a"/><line x1="276" y1="704" x2="276" y2="706" stroke="#0f172a" stroke-width="1.5"/><polygon points="276,706 272,698 280,698" fill="#0f172a"/><line x1="146" y1="220" x2="146" y2="246" stroke="#0f172a" stroke-width="1.5"/><polygon points="146,246 142,238 150,238" fill="#0f172a"/><line x1="406" y1="220" x2="406" y2="246" stroke="#0f172a" stroke-width="1.5"/><polygon points="406,246 402,238 410,238" fill="#0f172a"/><line x1="146" y1="166" x2="146" y2="178" stroke="#0f172a" stroke-width="1.5"/><polygon points="146,178 142,170 150,170" fill="#0f172a"/><line x1="406" y1="166" x2="406" y2="178" stroke="#0f172a" stroke-width="1.5"/><polygon points="406,178 402,170 410,170" fill="#0f172a"/></svg>