<svg xmlns="http://www.w3.org/2000/svg" width="800" height="1202" viewBox="0 0 800 1202"><rect width="100%" height="100%" fill="#ecfdf5"/><text x="32" y="28" font-family="monospace" font-size="18" font-weight="600" fill="#0f172a">Report Generation</text><text x="32" y="52" font-family="monospace" font-size="12" fill="#0f172a">activity diagram</text><rect x="32" y="54" width="736" height="1120" fill="#ecfdf5" stroke="#cbd5e1" stroke-width="1" stroke-dasharray="4 3"/><metadata data-activity-kind="Start" data-activity-lane="default" data-activity-branch="0"/><circle cx="400" cy="82" r="12" fill="#0f172a"/><metadata data-activity-kind="Action" data-activity-lane="default" data-activity-branch="0"/><rect x="290" y="126" width="220" height="36" rx="18" ry="18" fill="#ecfdf5" stroke="#047857" stroke-width="1.5"/><text x="400" y="149" text-anchor="middle" font-family="monospace" font-size="12" fill="#0f172a">Select Report Type</text><line x1="400" y1="104" x2="400" y2="122" stroke="#0f172a" stroke-width="1.5"/><polygon points="400,122 396,114 404,114" fill="#0f172a"/><metadata data-activity-kind="Fork" data-activity-lane="default" data-activity-branch="0"/><rect x="290" y="206" width="220" height="8" fill="#0f172a"/><line x1="400" y1="164" x2="400" y2="182" stroke="#0f172a" stroke-width="1.5"/><polygon points="400,182 396,174 404,174" fill="#0f172a"/><metadata data-activity-kind="Action" data-activity-lane="default" data-activity-branch="0"/><rect x="290" y="246" width="220" height="36" rx="18" ry="18" fill="#ecfdf5" stroke="#047857" stroke-width="1.5"/><text x="400" y="269" text-anchor="middle" font-family="monospace" font-size="12" fill="#0f172a">Fetch Data</text><line x1="400" y1="224" x2="400" y2="242" stroke="#0f172a" stroke-width="1.5"/><polygon points="400,242 396,234 404,234" fill="#0f172a"/><metadata data-activity-kind="ForkAgain" data-activity-lane="default" data-activity-branch="1"/><rect x="290" y="326" width="220" height="8" fill="#0f172a"/><text x="400" y="322" text-anchor="middle" font-family="monospace" font-size="10" fill="#0f172a">branch 2</text><line x1="400" y1="284" x2="400" y2="302" stroke="#0f172a" stroke-width="1.5"/><polygon points="400,302 396,294 404,294" fill="#0f172a"/><line x1="400" y1="210" x2="400" y2="302" stroke="#0f172a" stroke-width="1.25" stroke-dasharray="4 2"/><metadata data-activity-kind="Action" data-activity-lane="default" data-activity-branch="1"/><rect x="290" y="366" width="220" height="36" rx="18" ry="18" fill="#ecfdf5" stroke="#047857" stroke-width="1.5"/><text x="400" y="389" text-anchor="middle" font-family="monospace" font-size="12" fill="#0f172a">Get Template</text><line x1="400" y1="344" x2="400" y2="362" stroke="#0f172a" stroke-width="1.5"/><polygon points="400,362 396,354 404,354" fill="#0f172a"/><line x1="400" y1="210" x2="400" y2="362" stroke="#0f172a" stroke-width="1.25" stroke-dasharray="4 2"/><metadata data-activity-kind="EndFork" data-activity-lane="default" data-activity-branch="0"/><rect x="290" y="446" width="220" height="8" fill="#0f172a"/><line x1="400" y1="404" x2="400" y2="422" stroke="#0f172a" stroke-width="1.5"/><polygon points="400,422 396,414 404,414" fill="#0f172a"/><metadata data-activity-kind="Action" data-activity-lane="default" data-activity-branch="0"/><rect x="290" y="486" width="220" height="36" rx="18" ry="18" fill="#ecfdf5" stroke="#047857" stroke-width="1.5"/><text x="400" y="509" text-anchor="middle" font-family="monospace" font-size="12" fill="#0f172a">Merge Data and Template</text><line x1="400" y1="464" x2="400" y2="482" stroke="#0f172a" stroke-width="1.5"/><polygon points="400,482 396,474 404,474" fill="#0f172a"/><metadata data-activity-kind="WhileStart" data-activity-lane="default" data-activity-branch="0"/><polygon points="400,544 500,566 400,588 300,566" fill="#fef9c3" stroke="#047857" stroke-width="1.5"/><text x="400" y="570" text-anchor="middle" font-family="monospace" font-size="11" fill="#0f172a">More Pages? / yes</text><text x="400" y="596" text-anchor="middle" font-family="monospace" font-size="10" fill="#0f172a">while</text><line x1="400" y1="524" x2="400" y2="542" stroke="#0f172a" stroke-width="1.5"/><polygon points="400,542 396,534 404,534" fill="#0f172a"/><metadata data-activity-kind="Action" data-activity-lane="default" data-activity-branch="0"/><rect x="290" y="606" width="220" height="36" rx="18" ry="18" fill="#ecfdf5" stroke="#047857" stroke-width="1.5"/><text x="400" y="629" text-anchor="middle" font-family="monospace" font-size="12" fill="#0f172a">Render Page</text><line x1="400" y1="584" x2="400" y2="602" stroke="#0f172a" stroke-width="1.5"/><polygon points="400,602 396,594 404,594" fill="#0f172a"/><metadata data-activity-kind="EndWhile" data-activity-lane="default" data-activity-branch="0"/><text x="400" y="690" text-anchor="middle" font-family="monospace" font-size="11" fill="#0f172a">(endwhile)</text><line x1="400" y1="644" x2="400" y2="662" stroke="#0f172a" stroke-width="1.5"/><polygon points="400,662 396,654 404,654" fill="#0f172a"/><metadata data-activity-kind="Action" data-activity-lane="default" data-activity-branch="0"/><rect x="290" y="726" width="220" height="36" rx="18" ry="18" fill="#ecfdf5" stroke="#047857" stroke-width="1.5"/><text x="400" y="749" text-anchor="middle" font-family="monospace" font-size="12" fill="#0f172a">Combine Pages</text><line x1="400" y1="704" x2="400" y2="722" stroke="#0f172a" stroke-width="1.5"/><polygon points="400,722 396,714 404,714" fill="#0f172a"/><metadata data-activity-kind="IfStart" data-activity-lane="default" data-activity-branch="0"/><polygon points="400,784 500,806 400,828 300,806" fill="#fef9c3" stroke="#047857" stroke-width="1.5"/><text x="400" y="810" text-anchor="middle" font-family="monospace" font-size="11" fill="#0f172a">Export Format? / PDF</text><line x1="400" y1="764" x2="400" y2="782" stroke="#0f172a" stroke-width="1.5"/><polygon points="400,782 396,774 404,774" fill="#0f172a"/><metadata data-activity-kind="Action" data-activity-lane="default" data-activity-branch="0"/><rect x="290" y="846" width="220" height="36" rx="18" ry="18" fill="#ecfdf5" stroke="#047857" stroke-width="1.5"/><text x="400" y="869" text-anchor="middle" font-family="monospace" font-size="12" fill="#0f172a">Convert to PDF</text><line x1="400" y1="824" x2="400" y2="842" stroke="#0f172a" stroke-width="1.5"/><polygon points="400,842 396,834 404,834" fill="#0f172a"/><metadata data-activity-kind="Else" data-activity-lane="default" data-activity-branch="0"/><text x="560" y="870" text-anchor="middle" font-family="monospace" font-size="11" fill="#0f172a">(else) Excel</text><line x1="400" y1="824" x2="560" y2="842" stroke="#0f172a" stroke-width="1.5"/><polygon points="560,842 552,845 552,837" fill="#0f172a"/><line x1="400" y1="824" x2="560" y2="842" stroke="#0f172a" stroke-width="1.5"/><polygon points="560,842 552,845 552,837" fill="#0f172a"/><metadata data-activity-kind="Action" data-activity-lane="default" data-activity-branch="0"/><rect x="450" y="906" width="220" height="36" rx="18" ry="18" fill="#ecfdf5" stroke="#047857" stroke-width="1.5"/><text x="560" y="929" text-anchor="middle" font-family="monospace" font-size="12" fill="#0f172a">Export Excel</text><line x1="560" y1="884" x2="560" y2="902" stroke="#0f172a" stroke-width="1.5"/><polygon points="560,902 556,894 564,894" fill="#0f172a"/><metadata data-activity-kind="Else" data-activity-lane="default" data-activity-branch="0"/><text x="560" y="870" text-anchor="middle" font-family="monospace" font-size="11" fill="#0f172a">(else) CSV</text><line x1="400" y1="824" x2="560" y2="842" stroke="#0f172a" stroke-width="1.5"/><polygon points="560,842 552,845 552,837" fill="#0f172a"/><line x1="400" y1="824" x2="560" y2="842" stroke="#0f172a" stroke-width="1.5"/><polygon points="560,842 552,845 552,837" fill="#0f172a"/><metadata data-activity-kind="Action" data-activity-lane="default" data-activity-branch="0"/><rect x="450" y="906" width="220" height="36" rx="18" ry="18" fill="#ecfdf5" stroke="#047857" stroke-width="1.5"/><text x="560" y="929" text-anchor="middle" font-family="monospace" font-size="12" fill="#0f172a">Export CSV</text><line x1="560" y1="884" x2="560" y2="902" stroke="#0f172a" stroke-width="1.5"/><polygon points="560,902 556,894 564,894" fill="#0f172a"/><metadata data-activity-kind="EndIf" data-activity-lane="default" data-activity-branch="0"/><text x="400" y="990" text-anchor="middle" font-family="monospace" font-size="11" fill="#0f172a">(endif)</text><line x1="560" y1="944" x2="400" y2="962" stroke="#0f172a" stroke-width="1.5"/><polygon points="400,962 408,957 408,965" fill="#0f172a"/><line x1="560" y1="944" x2="400" y2="962" stroke="#0f172a" stroke-width="1.5"/><polygon points="400,962 408,957 408,965" fill="#0f172a"/><metadata data-activity-kind="Action" data-activity-lane="default" data-activity-branch="0"/><rect x="290" y="1026" width="220" height="36" rx="18" ry="18" fill="#ecfdf5" stroke="#047857" stroke-width="1.5"/><text x="400" y="1049" text-anchor="middle" font-family="monospace" font-size="12" fill="#0f172a">Deliver Report</text><line x1="400" y1="1004" x2="400" y2="1022" stroke="#0f172a" stroke-width="1.5"/><polygon points="400,1022 396,1014 404,1014" fill="#0f172a"/><metadata data-activity-kind="Stop" data-activity-lane="default" data-activity-branch="0"/><circle cx="400" cy="1102" r="14" fill="white" stroke="#0f172a" stroke-width="1.5"/><circle cx="400" cy="1102" r="7" fill="#0f172a"/><line x1="400" y1="1064" x2="400" y2="1082" stroke="#0f172a" stroke-width="1.5"/><polygon points="400,1082 396,1074 404,1074" fill="#0f172a"/></svg>