<svg xmlns="http://www.w3.org/2000/svg" width="1120" height="1082" viewBox="0 0 1120 1082"><rect width="100%" height="100%" fill="#ecfdf5"/><text x="32" y="28" font-family="monospace" font-size="18" font-weight="600" fill="#0f172a">Report Generation</text><text x="32" y="52" font-family="monospace" font-size="12" fill="#0f172a">activity diagram</text><rect x="32" y="62" width="1056" height="1000" fill="#ecfdf5" stroke="#cbd5e1" stroke-width="1" stroke-dasharray="4 3"/><metadata data-activity-kind="Start" data-activity-lane="default" data-activity-branch="0"/><circle cx="560" cy="82" r="12" fill="#0f172a"/><metadata data-activity-kind="Action" data-activity-lane="default" data-activity-branch="0"/><rect x="450" y="126" width="220" height="36" rx="18" ry="18" fill="#ecfdf5" stroke="#047857" stroke-width="1.5"/><text x="560" y="149" text-anchor="middle" font-family="monospace" font-size="12" fill="#0f172a">Select Report Type</text><line x1="560" y1="104" x2="560" y2="122" stroke="#0f172a" stroke-width="1.5"/><polygon points="560,122 556,114 564,114" fill="#0f172a"/><metadata data-activity-kind="Fork" data-activity-lane="default" data-activity-branch="0"/><rect x="32" y="206" width="1056" height="8" fill="#0f172a"/><line x1="560" y1="164" x2="560" y2="182" stroke="#0f172a" stroke-width="1.5"/><polygon points="560,182 556,174 564,174" fill="#0f172a"/><metadata data-activity-kind="Action" data-activity-lane="default" data-activity-branch="0"/><rect x="186" y="246" width="220" height="36" rx="18" ry="18" fill="#ecfdf5" stroke="#047857" stroke-width="1.5"/><text x="296" y="269" text-anchor="middle" font-family="monospace" font-size="12" fill="#0f172a">Fetch Data</text><metadata data-activity-kind="ForkAgain" data-activity-lane="default" data-activity-branch="1"/><metadata data-activity-kind="Action" data-activity-lane="default" data-activity-branch="1"/><rect x="714" y="246" width="220" height="36" rx="18" ry="18" fill="#ecfdf5" stroke="#047857" stroke-width="1.5"/><text x="824" y="269" text-anchor="middle" font-family="monospace" font-size="12" fill="#0f172a">Get Template</text><metadata data-activity-kind="EndFork" data-activity-lane="default" data-activity-branch="0"/><rect x="32" y="326" width="1056" height="8" fill="#0f172a"/><metadata data-activity-kind="Action" data-activity-lane="default" data-activity-branch="0"/><rect x="450" y="366" width="220" height="36" rx="18" ry="18" fill="#ecfdf5" stroke="#047857" stroke-width="1.5"/><text x="560" y="389" text-anchor="middle" font-family="monospace" font-size="12" fill="#0f172a">Merge Data and Template</text><line x1="560" y1="344" x2="560" y2="362" stroke="#0f172a" stroke-width="1.5"/><polygon points="560,362 556,354 564,354" fill="#0f172a"/><metadata data-activity-kind="WhileStart" data-activity-lane="default" data-activity-branch="0"/><polygon points="560,424 660,446 560,468 460,446" fill="#fef9c3" stroke="#047857" stroke-width="1.5"/><text x="560" y="450" text-anchor="middle" font-family="monospace" font-size="11" fill="#0f172a">More Pages?</text><text x="664" y="450" text-anchor="start" font-family="monospace" font-size="10" fill="#0f172a">yes</text><line x1="560" y1="404" x2="560" y2="422" stroke="#0f172a" stroke-width="1.5"/><polygon points="560,422 556,414 564,414" fill="#0f172a"/><metadata data-activity-kind="Action" data-activity-lane="default" data-activity-branch="0"/><rect x="450" y="486" width="220" height="36" rx="18" ry="18" fill="#ecfdf5" stroke="#047857" stroke-width="1.5"/><text x="560" y="509" text-anchor="middle" font-family="monospace" font-size="12" fill="#0f172a">Render Page</text><line x1="560" y1="464" x2="560" y2="482" stroke="#0f172a" stroke-width="1.5"/><polygon points="560,482 556,474 564,474" fill="#0f172a"/><metadata data-activity-kind="EndWhile" data-activity-lane="default" data-activity-branch="0"/><line x1="560" y1="524" x2="560" y2="542" stroke="#0f172a" stroke-width="1.5"/><polygon points="560,542 556,534 564,534" fill="#0f172a"/><metadata data-activity-kind="Action" data-activity-lane="default" data-activity-branch="0"/><rect x="450" y="606" width="220" height="36" rx="18" ry="18" fill="#ecfdf5" stroke="#047857" stroke-width="1.5"/><text x="560" y="629" text-anchor="middle" font-family="monospace" font-size="12" fill="#0f172a">Combine Pages</text><metadata data-activity-kind="IfStart" data-activity-lane="default" data-activity-branch="0"/><polygon points="560,664 660,686 560,708 460,686" fill="#fef9c3" stroke="#047857" stroke-width="1.5"/><text x="560" y="690" text-anchor="middle" font-family="monospace" font-size="11" fill="#0f172a">Export Format?</text><text x="664" y="690" text-anchor="start" font-family="monospace" font-size="10" fill="#0f172a">PDF</text><line x1="560" y1="644" x2="560" y2="662" stroke="#0f172a" stroke-width="1.5"/><polygon points="560,662 556,654 564,654" fill="#0f172a"/><metadata data-activity-kind="Action" data-activity-lane="default" data-activity-branch="0"/><rect x="290" y="726" width="220" height="36" rx="18" ry="18" fill="#ecfdf5" stroke="#047857" stroke-width="1.5"/><text x="400" y="749" text-anchor="middle" font-family="monospace" font-size="12" fill="#0f172a">Convert to PDF</text><line x1="560" y1="704" x2="560" y2="713" stroke="#0f172a" stroke-width="1.5"/><line x1="560" y1="713" x2="400" y2="713" stroke="#0f172a" stroke-width="1.5"/><line x1="400" y1="713" x2="400" y2="722" stroke="#0f172a" stroke-width="1.5"/><polygon points="400,722 396,714 404,714" fill="#0f172a"/><metadata data-activity-kind="Else" data-activity-lane="default" data-activity-branch="0"/><metadata data-activity-kind="Action" data-activity-lane="default" data-activity-branch="0"/><rect x="610" y="786" width="220" height="36" rx="18" ry="18" fill="#ecfdf5" stroke="#047857" stroke-width="1.5"/><text x="720" y="809" text-anchor="middle" font-family="monospace" font-size="12" fill="#0f172a">Export Excel</text><line x1="560" y1="704" x2="560" y2="743" stroke="#0f172a" stroke-width="1.5"/><line x1="560" y1="743" x2="720" y2="743" stroke="#0f172a" stroke-width="1.5"/><line x1="720" y1="743" x2="720" y2="782" stroke="#0f172a" stroke-width="1.5"/><polygon points="720,782 716,774 724,774" fill="#0f172a"/><line x1="560" y1="704" x2="560" y2="743" stroke="#0f172a" stroke-width="1.5"/><line x1="560" y1="743" x2="720" y2="743" stroke="#0f172a" stroke-width="1.5"/><line x1="720" y1="743" x2="720" y2="782" stroke="#0f172a" stroke-width="1.5"/><polygon points="720,782 716,774 724,774" fill="#0f172a"/><metadata data-activity-kind="Else" data-activity-lane="default" data-activity-branch="0"/><metadata data-activity-kind="Action" data-activity-lane="default" data-activity-branch="0"/><rect x="610" y="786" width="220" height="36" rx="18" ry="18" fill="#ecfdf5" stroke="#047857" stroke-width="1.5"/><text x="720" y="809" text-anchor="middle" font-family="monospace" font-size="12" fill="#0f172a">Export CSV</text><line x1="560" y1="704" x2="560" y2="743" stroke="#0f172a" stroke-width="1.5"/><line x1="560" y1="743" x2="720" y2="743" stroke="#0f172a" stroke-width="1.5"/><line x1="720" y1="743" x2="720" y2="782" stroke="#0f172a" stroke-width="1.5"/><polygon points="720,782 716,774 724,774" fill="#0f172a"/><line x1="560" y1="704" x2="560" y2="743" stroke="#0f172a" stroke-width="1.5"/><line x1="560" y1="743" x2="720" y2="743" stroke="#0f172a" stroke-width="1.5"/><line x1="720" y1="743" x2="720" y2="782" stroke="#0f172a" stroke-width="1.5"/><polygon points="720,782 716,774 724,774" fill="#0f172a"/><metadata data-activity-kind="EndIf" data-activity-lane="default" data-activity-branch="0"/><metadata data-activity-kind="Action" data-activity-lane="default" data-activity-branch="0"/><rect x="450" y="906" width="220" height="36" rx="18" ry="18" fill="#ecfdf5" stroke="#047857" stroke-width="1.5"/><text x="560" y="929" text-anchor="middle" font-family="monospace" font-size="12" fill="#0f172a">Deliver Report</text><line x1="720" y1="824" x2="720" y2="863" stroke="#0f172a" stroke-width="1.5"/><line x1="720" y1="863" x2="560" y2="863" stroke="#0f172a" stroke-width="1.5"/><line x1="560" y1="863" x2="560" y2="902" stroke="#0f172a" stroke-width="1.5"/><polygon points="560,902 556,894 564,894" fill="#0f172a"/><line x1="720" y1="824" x2="720" y2="863" stroke="#0f172a" stroke-width="1.5"/><line x1="720" y1="863" x2="560" y2="863" stroke="#0f172a" stroke-width="1.5"/><line x1="560" y1="863" x2="560" y2="902" stroke="#0f172a" stroke-width="1.5"/><polygon points="560,902 556,894 564,894" fill="#0f172a"/><metadata data-activity-kind="Stop" data-activity-lane="default" data-activity-branch="0"/><circle cx="560" cy="982" r="14" fill="white" stroke="#0f172a" stroke-width="1.5"/><circle cx="560" cy="982" r="7" fill="#0f172a"/><line x1="560" y1="944" x2="560" y2="962" stroke="#0f172a" stroke-width="1.5"/><polygon points="560,962 556,954 564,954" fill="#0f172a"/><line x1="296" y1="284" x2="296" y2="326" stroke="#0f172a" stroke-width="1.5"/><polygon points="296,326 292,318 300,318" fill="#0f172a"/><line x1="824" y1="284" x2="824" y2="326" stroke="#0f172a" stroke-width="1.5"/><polygon points="824,326 820,318 828,318" fill="#0f172a"/><line x1="296" y1="214" x2="296" y2="242" stroke="#0f172a" stroke-width="1.5"/><polygon points="296,242 292,234 300,234" fill="#0f172a"/><line x1="824" y1="214" x2="824" y2="242" stroke="#0f172a" stroke-width="1.5"/><polygon points="824,242 820,234 828,234" fill="#0f172a"/></svg>