<svg xmlns="http://www.w3.org/2000/svg" width="1120" height="1226" viewBox="0 0 1120 1226"><rect width="100%" height="100%" fill="#ecfdf5"/><text x="32" y="28" font-family="monospace" font-size="18" font-weight="600" fill="#0f172a">Nested swimlanes with parallel forks</text><text x="32" y="52" font-family="monospace" font-size="12" fill="#0f172a">activity diagram</text><rect x="32" y="86" width="264" height="1100" fill="#ecfdf5" stroke="#cbd5e1" stroke-width="1" stroke-dasharray="4 3"/><rect x="32" y="62" width="264" height="24" fill="#e2e8f0" stroke="#94a3b8" stroke-width="1"/><text x="164" y="78" text-anchor="middle" font-family="monospace" font-size="11" font-weight="600" fill="#0f172a">Customer</text><rect x="296" y="206" width="264" height="860" fill="#f1f5f9" stroke="#cbd5e1" stroke-width="1" stroke-dasharray="4 3"/><rect x="296" y="182" width="264" height="24" fill="#dde5ef" stroke="#94a3b8" stroke-width="1"/><text x="428" y="198" text-anchor="middle" font-family="monospace" font-size="11" font-weight="600" fill="#0f172a">Warehouse</text><rect x="560" y="326" width="264" height="440" fill="#ecfdf5" stroke="#cbd5e1" stroke-width="1" stroke-dasharray="4 3"/><rect x="560" y="302" width="264" height="24" fill="#e2e8f0" stroke="#94a3b8" stroke-width="1"/><text x="692" y="318" text-anchor="middle" font-family="monospace" font-size="11" font-weight="600" fill="#0f172a">Finance</text><rect x="824" y="746" width="264" height="260" fill="#f1f5f9" stroke="#cbd5e1" stroke-width="1" stroke-dasharray="4 3"/><rect x="824" y="722" width="264" height="24" fill="#dde5ef" stroke="#94a3b8" stroke-width="1"/><text x="956" y="738" text-anchor="middle" font-family="monospace" font-size="11" font-weight="600" fill="#0f172a">Logistics</text><metadata data-activity-kind="PartitionStart" data-activity-lane="Customer" data-activity-branch="0"/><metadata data-activity-kind="Start" data-activity-lane="Customer" data-activity-branch="0"/><circle cx="164" cy="106" r="12" fill="#0f172a"/><metadata data-activity-kind="Action" data-activity-lane="Customer" data-activity-branch="0"/><rect x="54" y="150" width="220" height="36" rx="18" ry="18" fill="#ecfdf5" stroke="#047857" stroke-width="1.5"/><text x="164" y="173" text-anchor="middle" font-family="monospace" font-size="12" fill="#0f172a">Submit order</text><line x1="164" y1="128" x2="164" y2="146" stroke="#0f172a" stroke-width="1.5"/><polygon points="164,146 160,138 168,138" fill="#0f172a"/><metadata data-activity-kind="PartitionStart" data-activity-lane="Warehouse" data-activity-branch="0"/><metadata data-activity-kind="Action" data-activity-lane="Warehouse" data-activity-branch="0"/><rect x="318" y="210" width="220" height="36" rx="18" ry="18" fill="#ecfdf5" stroke="#047857" stroke-width="1.5"/><text x="428" y="233" text-anchor="middle" font-family="monospace" font-size="12" fill="#0f172a">Receive order notification</text><line x1="164" y1="188" x2="164" y2="197" stroke="#0f172a" stroke-width="1.5"/><line x1="164" y1="197" x2="428" y2="197" stroke="#0f172a" stroke-width="1.5"/><line x1="428" y1="197" x2="428" y2="206" stroke="#0f172a" stroke-width="1.5"/><polygon points="428,206 424,198 432,198" fill="#0f172a"/><metadata data-activity-kind="Fork" data-activity-lane="Warehouse" data-activity-branch="0"/><rect x="296" y="290" width="264" height="8" fill="#0f172a"/><line x1="428" y1="248" x2="428" y2="266" stroke="#0f172a" stroke-width="1.5"/><polygon points="428,266 424,258 432,258" fill="#0f172a"/><metadata data-activity-kind="PartitionStart" data-activity-lane="Warehouse" data-activity-branch="0"/><metadata data-activity-kind="Action" data-activity-lane="Warehouse" data-activity-branch="0"/><rect x="252" y="330" width="220" height="36" rx="18" ry="18" fill="#ecfdf5" stroke="#047857" stroke-width="1.5"/><text x="362" y="353" text-anchor="middle" font-family="monospace" font-size="12" fill="#0f172a">Pick items</text><line x1="428" y1="308" x2="428" y2="317" stroke="#0f172a" stroke-width="1.5"/><line x1="428" y1="317" x2="362" y2="317" stroke="#0f172a" stroke-width="1.5"/><line x1="362" y1="317" x2="362" y2="326" stroke="#0f172a" stroke-width="1.5"/><polygon points="362,326 358,318 366,318" fill="#0f172a"/><metadata data-activity-kind="Action" data-activity-lane="Warehouse" data-activity-branch="0"/><rect x="252" y="390" width="220" height="36" rx="18" ry="18" fill="#ecfdf5" stroke="#047857" stroke-width="1.5"/><text x="362" y="413" text-anchor="middle" font-family="monospace" font-size="12" fill="#0f172a">Pack items</text><line x1="362" y1="368" x2="362" y2="386" stroke="#0f172a" stroke-width="1.5"/><polygon points="362,386 358,378 366,378" fill="#0f172a"/><metadata data-activity-kind="ForkAgain" data-activity-lane="Warehouse" data-activity-branch="1"/><metadata data-activity-kind="PartitionStart" data-activity-lane="Finance" data-activity-branch="1"/><metadata data-activity-kind="Action" data-activity-lane="Finance" data-activity-branch="1"/><rect x="384" y="330" width="220" height="36" rx="18" ry="18" fill="#ecfdf5" stroke="#047857" stroke-width="1.5"/><text x="494" y="353" text-anchor="middle" font-family="monospace" font-size="12" fill="#0f172a">Charge payment</text><line x1="494" y1="308" x2="494" y2="326" stroke="#0f172a" stroke-width="1.5"/><polygon points="494,326 490,318 498,318" fill="#0f172a"/><metadata data-activity-kind="IfStart" data-activity-lane="Finance" data-activity-branch="1"/><polygon points="494,388 594,410 494,432 394,410" fill="#fef9c3" stroke="#047857" stroke-width="1.5"/><text x="494" y="414" text-anchor="middle" font-family="monospace" font-size="11" fill="#0f172a">payment ok?</text><text x="598" y="414" text-anchor="start" font-family="monospace" font-size="10" fill="#0f172a">yes</text><line x1="494" y1="368" x2="494" y2="386" stroke="#0f172a" stroke-width="1.5"/><polygon points="494,386 490,378 498,378" fill="#0f172a"/><metadata data-activity-kind="Action" data-activity-lane="Finance" data-activity-branch="1"/><rect x="384" y="450" width="220" height="36" rx="18" ry="18" fill="#ecfdf5" stroke="#047857" stroke-width="1.5"/><text x="494" y="473" text-anchor="middle" font-family="monospace" font-size="12" fill="#0f172a">Issue receipt</text><line x1="494" y1="428" x2="494" y2="446" stroke="#0f172a" stroke-width="1.5"/><polygon points="494,446 490,438 498,438" fill="#0f172a"/><metadata data-activity-kind="Else" data-activity-lane="Finance" data-activity-branch="1"/><metadata data-activity-kind="Action" data-activity-lane="Finance" data-activity-branch="1"/><rect x="384" y="510" width="220" height="36" rx="18" ry="18" fill="#ecfdf5" stroke="#047857" stroke-width="1.5"/><text x="494" y="533" text-anchor="middle" font-family="monospace" font-size="12" fill="#0f172a">Notify customer</text><metadata data-activity-kind="Stop" data-activity-lane="Finance" data-activity-branch="1"/><circle cx="494" cy="586" r="14" fill="white" stroke="#0f172a" stroke-width="1.5"/><circle cx="494" cy="586" r="7" fill="#0f172a"/><text x="494" y="610" text-anchor="middle" font-family="monospace" font-size="10" fill="#0f172a">detach</text><line x1="494" y1="548" x2="494" y2="566" stroke="#0f172a" stroke-width="1.5"/><polygon points="494,566 490,558 498,558" fill="#0f172a"/><metadata data-activity-kind="EndIf" data-activity-lane="Finance" data-activity-branch="1"/><metadata data-activity-kind="EndFork" data-activity-lane="Finance" data-activity-branch="0"/><rect x="296" y="710" width="264" height="8" fill="#0f172a"/><metadata data-activity-kind="PartitionStart" data-activity-lane="Logistics" data-activity-branch="0"/><metadata data-activity-kind="Action" data-activity-lane="Logistics" data-activity-branch="0"/><rect x="846" y="750" width="220" height="36" rx="18" ry="18" fill="#ecfdf5" stroke="#047857" stroke-width="1.5"/><text x="956" y="773" text-anchor="middle" font-family="monospace" font-size="12" fill="#0f172a">Assign courier</text><line x1="428" y1="728" x2="428" y2="737" stroke="#0f172a" stroke-width="1.5"/><line x1="428" y1="737" x2="956" y2="737" stroke="#0f172a" stroke-width="1.5"/><line x1="956" y1="737" x2="956" y2="746" stroke="#0f172a" stroke-width="1.5"/><polygon points="956,746 952,738 960,738" fill="#0f172a"/><metadata data-activity-kind="Action" data-activity-lane="Logistics" data-activity-branch="0"/><rect x="846" y="810" width="220" height="36" rx="18" ry="18" fill="#ecfdf5" stroke="#047857" stroke-width="1.5"/><text x="956" y="833" text-anchor="middle" font-family="monospace" font-size="12" fill="#0f172a">Print label</text><line x1="956" y1="788" x2="956" y2="806" stroke="#0f172a" stroke-width="1.5"/><polygon points="956,806 952,798 960,798" fill="#0f172a"/><metadata data-activity-kind="Fork" data-activity-lane="Logistics" data-activity-branch="0"/><rect x="824" y="890" width="264" height="8" fill="#0f172a"/><line x1="956" y1="848" x2="956" y2="866" stroke="#0f172a" stroke-width="1.5"/><polygon points="956,866 952,858 960,858" fill="#0f172a"/><metadata data-activity-kind="PartitionStart" data-activity-lane="Logistics" data-activity-branch="0"/><metadata data-activity-kind="Action" data-activity-lane="Logistics" data-activity-branch="0"/><rect x="780" y="930" width="220" height="36" rx="18" ry="18" fill="#ecfdf5" stroke="#047857" stroke-width="1.5"/><text x="890" y="953" text-anchor="middle" font-family="monospace" font-size="12" fill="#0f172a">Hand off to courier</text><line x1="956" y1="908" x2="956" y2="917" stroke="#0f172a" stroke-width="1.5"/><line x1="956" y1="917" x2="890" y2="917" stroke="#0f172a" stroke-width="1.5"/><line x1="890" y1="917" x2="890" y2="926" stroke="#0f172a" stroke-width="1.5"/><polygon points="890,926 886,918 894,918" fill="#0f172a"/><metadata data-activity-kind="ForkAgain" data-activity-lane="Logistics" data-activity-branch="1"/><metadata data-activity-kind="PartitionStart" data-activity-lane="Warehouse" data-activity-branch="1"/><metadata data-activity-kind="Action" data-activity-lane="Warehouse" data-activity-branch="1"/><rect x="912" y="930" width="220" height="36" rx="18" ry="18" fill="#ecfdf5" stroke="#047857" stroke-width="1.5"/><text x="1022" y="953" text-anchor="middle" font-family="monospace" font-size="12" fill="#0f172a">Update inventory</text><line x1="1022" y1="908" x2="1022" y2="926" stroke="#0f172a" stroke-width="1.5"/><polygon points="1022,926 1018,918 1026,918" fill="#0f172a"/><metadata data-activity-kind="EndFork" data-activity-lane="Warehouse" data-activity-branch="0"/><rect x="824" y="1010" width="264" height="8" fill="#0f172a"/><metadata data-activity-kind="PartitionStart" data-activity-lane="Customer" data-activity-branch="0"/><metadata data-activity-kind="Action" data-activity-lane="Customer" data-activity-branch="0"/><rect x="54" y="1050" width="220" height="36" rx="18" ry="18" fill="#ecfdf5" stroke="#047857" stroke-width="1.5"/><text x="164" y="1073" text-anchor="middle" font-family="monospace" font-size="12" fill="#0f172a">Receive delivery notification</text><line x1="956" y1="1028" x2="956" y2="1037" stroke="#0f172a" stroke-width="1.5"/><line x1="956" y1="1037" x2="164" y2="1037" stroke="#0f172a" stroke-width="1.5"/><line x1="164" y1="1037" x2="164" y2="1046" stroke="#0f172a" stroke-width="1.5"/><polygon points="164,1046 160,1038 168,1038" fill="#0f172a"/><metadata data-activity-kind="Stop" data-activity-lane="Customer" data-activity-branch="0"/><circle cx="164" cy="1126" r="14" fill="white" stroke="#0f172a" stroke-width="1.5"/><circle cx="164" cy="1126" r="7" fill="#0f172a"/><line x1="164" y1="1088" x2="164" y2="1106" stroke="#0f172a" stroke-width="1.5"/><polygon points="164,1106 160,1098 168,1098" fill="#0f172a"/><line x1="362" y1="428" x2="362" y2="710" stroke="#0f172a" stroke-width="1.5"/><polygon points="362,710 358,702 366,702" fill="#0f172a"/><line x1="494" y1="668" x2="494" y2="710" stroke="#0f172a" stroke-width="1.5"/><polygon points="494,710 490,702 498,702" fill="#0f172a"/><line x1="362" y1="298" x2="362" y2="326" stroke="#0f172a" stroke-width="1.5"/><polygon points="362,326 358,318 366,318" fill="#0f172a"/><line x1="494" y1="298" x2="494" y2="326" stroke="#0f172a" stroke-width="1.5"/><polygon points="494,326 490,318 498,318" fill="#0f172a"/><line x1="890" y1="968" x2="890" y2="1010" stroke="#0f172a" stroke-width="1.5"/><polygon points="890,1010 886,1002 894,1002" fill="#0f172a"/><line x1="1022" y1="968" x2="1022" y2="1010" stroke="#0f172a" stroke-width="1.5"/><polygon points="1022,1010 1018,1002 1026,1002" fill="#0f172a"/><line x1="890" y1="898" x2="890" y2="926" stroke="#0f172a" stroke-width="1.5"/><polygon points="890,926 886,918 894,918" fill="#0f172a"/><line x1="1022" y1="898" x2="1022" y2="926" stroke="#0f172a" stroke-width="1.5"/><polygon points="1022,926 1018,918 1026,918" fill="#0f172a"/></svg>