<svg xmlns="http://www.w3.org/2000/svg" width="649" height="902" viewBox="0 0 649 902"><rect width="100%" height="100%" fill="#ecfdf5"/><text x="32" y="22" font-family="monospace" font-size="16" font-weight="600" fill="#0f172a">Nested swimlanes with parallel forks</text><rect x="16" y="70" width="130" height="812" fill="#ecfdf5" stroke="#cbd5e1" stroke-width="1" stroke-dasharray="4 3"/><rect x="16" y="46" width="130" height="24" fill="#e2e8f0" stroke="#94a3b8" stroke-width="1"/><text x="81" y="62" text-anchor="middle" font-family="monospace" font-size="11" font-weight="600" fill="#0f172a">Customer</text><rect x="146" y="70" width="130" height="812" fill="#f1f5f9" stroke="#cbd5e1" stroke-width="1" stroke-dasharray="4 3"/><rect x="146" y="46" width="130" height="24" fill="#dde5ef" stroke="#94a3b8" stroke-width="1"/><text x="211" y="62" text-anchor="middle" font-family="monospace" font-size="11" font-weight="600" fill="#0f172a">Warehouse</text><rect x="276" y="70" width="130" height="812" fill="#ecfdf5" stroke="#cbd5e1" stroke-width="1" stroke-dasharray="4 3"/><rect x="276" y="46" width="130" height="24" fill="#e2e8f0" stroke="#94a3b8" stroke-width="1"/><text x="341" y="62" text-anchor="middle" font-family="monospace" font-size="11" font-weight="600" fill="#0f172a">Finance</text><rect x="406" y="70" width="130" height="812" fill="#f1f5f9" stroke="#cbd5e1" stroke-width="1" stroke-dasharray="4 3"/><rect x="406" y="46" width="130" height="24" fill="#dde5ef" stroke="#94a3b8" stroke-width="1"/><text x="471" y="62" text-anchor="middle" font-family="monospace" font-size="11" font-weight="600" fill="#0f172a">Logistics</text><metadata data-activity-kind="PartitionStart" data-activity-lane="Customer" data-activity-branch="0"/><metadata data-activity-kind="Start" data-activity-lane="Customer" data-activity-branch="0"/><circle cx="81" cy="90" r="12" fill="#0f172a"/><metadata data-activity-kind="Action" data-activity-lane="Customer" data-activity-branch="0"/><rect x="28" y="118" width="106" height="36" rx="18" ry="18" fill="#ecfdf5" stroke="#047857" stroke-width="1.5"/><text x="81" y="141" text-anchor="middle" font-family="monospace" font-size="12" fill="#0f172a">Submit order</text><line x1="81" y1="112" x2="81" y2="114" stroke="#0f172a" stroke-width="1.5"/><polygon points="81,114 77,106 85,106" fill="#0f172a"/><metadata data-activity-kind="PartitionStart" data-activity-lane="Warehouse" data-activity-branch="0"/><metadata data-activity-kind="Action" data-activity-lane="Warehouse" data-activity-branch="0"/><rect x="158" y="162" width="106" height="36" rx="18" ry="18" fill="#ecfdf5" stroke="#047857" stroke-width="1.5"/><text x="211" y="185" text-anchor="middle" font-family="monospace" font-size="12" fill="#0f172a">Receive order notification</text><line x1="81" y1="156" x2="81" y2="157" stroke="#0f172a" stroke-width="1.5"/><line x1="81" y1="157" x2="211" y2="157" stroke="#0f172a" stroke-width="1.5"/><line x1="211" y1="157" x2="211" y2="158" stroke="#0f172a" stroke-width="1.5"/><polygon points="211,158 207,150 215,150" fill="#0f172a"/><metadata data-activity-kind="Fork" data-activity-lane="Warehouse" data-activity-branch="0"/><rect x="103" y="226" width="216" height="8" fill="#0f172a"/><line x1="211" y1="200" x2="211" y2="202" stroke="#0f172a" stroke-width="1.5"/><polygon points="211,202 207,194 215,194" fill="#0f172a"/><metadata data-activity-kind="PartitionStart" data-activity-lane="Warehouse" data-activity-branch="0"/><metadata data-activity-kind="Action" data-activity-lane="Warehouse" data-activity-branch="0"/><rect x="93" y="250" width="106" height="36" rx="18" ry="18" fill="#ecfdf5" stroke="#047857" stroke-width="1.5"/><text x="146" y="273" text-anchor="middle" font-family="monospace" font-size="12" fill="#0f172a">Pick items</text><line x1="211" y1="244" x2="211" y2="245" stroke="#0f172a" stroke-width="1.5"/><line x1="211" y1="245" x2="146" y2="245" stroke="#0f172a" stroke-width="1.5"/><line x1="146" y1="245" x2="146" y2="246" stroke="#0f172a" stroke-width="1.5"/><polygon points="146,246 142,238 150,238" fill="#0f172a"/><metadata data-activity-kind="Action" data-activity-lane="Warehouse" data-activity-branch="0"/><rect x="93" y="294" width="106" height="36" rx="18" ry="18" fill="#ecfdf5" stroke="#047857" stroke-width="1.5"/><text x="146" y="317" text-anchor="middle" font-family="monospace" font-size="12" fill="#0f172a">Pack items</text><line x1="146" y1="288" x2="146" y2="290" stroke="#0f172a" stroke-width="1.5"/><polygon points="146,290 142,282 150,282" fill="#0f172a"/><metadata data-activity-kind="ForkAgain" data-activity-lane="Warehouse" data-activity-branch="1"/><metadata data-activity-kind="PartitionStart" data-activity-lane="Finance" data-activity-branch="1"/><metadata data-activity-kind="Action" data-activity-lane="Finance" data-activity-branch="1"/><rect x="223" y="250" width="106" height="36" rx="18" ry="18" fill="#ecfdf5" stroke="#047857" stroke-width="1.5"/><text x="276" y="273" text-anchor="middle" font-family="monospace" font-size="12" fill="#0f172a">Charge payment</text><line x1="276" y1="244" x2="276" y2="246" stroke="#0f172a" stroke-width="1.5"/><polygon points="276,246 272,238 280,238" fill="#0f172a"/><metadata data-activity-kind="IfStart" data-activity-lane="Finance" data-activity-branch="1"/><polygon points="276,292 376,314 276,336 176,314" fill="#fef9c3" stroke="#047857" stroke-width="1.5"/><text x="276" y="318" text-anchor="middle" font-family="monospace" font-size="11" fill="#0f172a">payment ok?</text><line x1="276" y1="288" x2="276" y2="290" stroke="#0f172a" stroke-width="1.5"/><polygon points="276,290 272,282 280,282" fill="#0f172a"/><metadata data-activity-kind="Action" data-activity-lane="Finance" data-activity-branch="1"/><rect x="223" y="338" width="106" height="36" rx="18" ry="18" fill="#ecfdf5" stroke="#047857" stroke-width="1.5"/><text x="276" y="361" text-anchor="middle" font-family="monospace" font-size="12" fill="#0f172a">Issue receipt</text><line x1="276" y1="332" x2="276" y2="334" stroke="#0f172a" stroke-width="1.5"/><polygon points="276,334 272,326 280,326" fill="#0f172a"/><text x="282" y="333" font-family="monospace" font-size="10" fill="#0f172a">no</text><metadata data-activity-kind="Else" data-activity-lane="Finance" data-activity-branch="1"/><metadata data-activity-kind="Action" data-activity-lane="Finance" data-activity-branch="1"/><rect x="223" y="382" width="106" height="36" rx="18" ry="18" fill="#ecfdf5" stroke="#047857" stroke-width="1.5"/><text x="276" y="405" text-anchor="middle" font-family="monospace" font-size="12" fill="#0f172a">Notify customer</text><metadata data-activity-kind="Detach" data-activity-lane="Finance" data-activity-branch="1"/><line x1="264" y1="442" x2="288" y2="442" stroke="#0f172a" stroke-width="3"/><line x1="276" y1="420" x2="276" y2="422" stroke="#0f172a" stroke-width="1.5"/><polygon points="276,422 272,414 280,414" fill="#0f172a"/><metadata data-activity-kind="EndIf" data-activity-lane="Finance" data-activity-branch="1"/><metadata data-activity-kind="EndFork" data-activity-lane="Finance" data-activity-branch="0"/><rect x="40" y="534" width="212" height="8" fill="#0f172a"/><metadata data-activity-kind="PartitionStart" data-activity-lane="Logistics" data-activity-branch="0"/><metadata data-activity-kind="Action" data-activity-lane="Logistics" data-activity-branch="0"/><rect x="418" y="558" width="106" height="36" rx="18" ry="18" fill="#ecfdf5" stroke="#047857" stroke-width="1.5"/><text x="471" y="581" text-anchor="middle" font-family="monospace" font-size="12" fill="#0f172a">Assign courier</text><line x1="146" y1="552" x2="146" y2="553" stroke="#0f172a" stroke-width="1.5"/><line x1="146" y1="553" x2="471" y2="553" stroke="#0f172a" stroke-width="1.5"/><line x1="471" y1="553" x2="471" y2="554" stroke="#0f172a" stroke-width="1.5"/><polygon points="471,554 467,546 475,546" fill="#0f172a"/><metadata data-activity-kind="Action" data-activity-lane="Logistics" data-activity-branch="0"/><rect x="418" y="602" width="106" height="36" rx="18" ry="18" fill="#ecfdf5" stroke="#047857" stroke-width="1.5"/><text x="471" y="625" text-anchor="middle" font-family="monospace" font-size="12" fill="#0f172a">Print label</text><line x1="471" y1="596" x2="471" y2="598" stroke="#0f172a" stroke-width="1.5"/><polygon points="471,598 467,590 475,590" fill="#0f172a"/><metadata data-activity-kind="Fork" data-activity-lane="Logistics" data-activity-branch="0"/><rect x="363" y="666" width="216" height="8" fill="#0f172a"/><line x1="471" y1="640" x2="471" y2="642" stroke="#0f172a" stroke-width="1.5"/><polygon points="471,642 467,634 475,634" fill="#0f172a"/><metadata data-activity-kind="PartitionStart" data-activity-lane="Logistics" data-activity-branch="0"/><metadata data-activity-kind="Action" data-activity-lane="Logistics" data-activity-branch="0"/><rect x="353" y="690" width="106" height="36" rx="18" ry="18" fill="#ecfdf5" stroke="#047857" stroke-width="1.5"/><text x="406" y="713" text-anchor="middle" font-family="monospace" font-size="12" fill="#0f172a">Hand off to courier</text><line x1="471" y1="684" x2="471" y2="685" stroke="#0f172a" stroke-width="1.5"/><line x1="471" y1="685" x2="406" y2="685" stroke="#0f172a" stroke-width="1.5"/><line x1="406" y1="685" x2="406" y2="686" stroke="#0f172a" stroke-width="1.5"/><polygon points="406,686 402,678 410,678" fill="#0f172a"/><metadata data-activity-kind="ForkAgain" data-activity-lane="Logistics" data-activity-branch="1"/><metadata data-activity-kind="PartitionStart" data-activity-lane="Warehouse" data-activity-branch="1"/><metadata data-activity-kind="Action" data-activity-lane="Warehouse" data-activity-branch="1"/><rect x="483" y="690" width="106" height="36" rx="18" ry="18" fill="#ecfdf5" stroke="#047857" stroke-width="1.5"/><text x="536" y="713" text-anchor="middle" font-family="monospace" font-size="12" fill="#0f172a">Update inventory</text><line x1="536" y1="684" x2="536" y2="686" stroke="#0f172a" stroke-width="1.5"/><polygon points="536,686 532,678 540,678" fill="#0f172a"/><metadata data-activity-kind="EndFork" data-activity-lane="Warehouse" data-activity-branch="0"/><rect x="363" y="754" width="216" height="8" fill="#0f172a"/><metadata data-activity-kind="PartitionStart" data-activity-lane="Customer" data-activity-branch="0"/><metadata data-activity-kind="Action" data-activity-lane="Customer" data-activity-branch="0"/><rect x="28" y="778" width="106" height="36" rx="18" ry="18" fill="#ecfdf5" stroke="#047857" stroke-width="1.5"/><text x="81" y="801" text-anchor="middle" font-family="monospace" font-size="12" fill="#0f172a">Receive delivery notification</text><line x1="471" y1="772" x2="471" y2="773" stroke="#0f172a" stroke-width="1.5"/><line x1="471" y1="773" x2="81" y2="773" stroke="#0f172a" stroke-width="1.5"/><line x1="81" y1="773" x2="81" y2="774" stroke="#0f172a" stroke-width="1.5"/><polygon points="81,774 77,766 85,766" fill="#0f172a"/><metadata data-activity-kind="Stop" data-activity-lane="Customer" data-activity-branch="0"/><circle cx="81" cy="838" r="14" fill="white" stroke="#0f172a" stroke-width="1.5"/><circle cx="81" cy="838" r="7" fill="#0f172a"/><line x1="81" y1="816" x2="81" y2="818" stroke="#0f172a" stroke-width="1.5"/><polygon points="81,818 77,810 85,810" fill="#0f172a"/><line x1="146" y1="332" x2="146" y2="534" stroke="#0f172a" stroke-width="1.5"/><polygon points="146,534 142,526 150,526" fill="#0f172a"/><line x1="146" y1="234" x2="146" y2="246" stroke="#0f172a" stroke-width="1.5"/><polygon points="146,246 142,238 150,238" fill="#0f172a"/><line x1="276" y1="234" x2="276" y2="246" stroke="#0f172a" stroke-width="1.5"/><polygon points="276,246 272,238 280,238" fill="#0f172a"/><line x1="406" y1="728" x2="406" y2="754" stroke="#0f172a" stroke-width="1.5"/><polygon points="406,754 402,746 410,746" fill="#0f172a"/><line x1="536" y1="728" x2="536" y2="754" stroke="#0f172a" stroke-width="1.5"/><polygon points="536,754 532,746 540,746" fill="#0f172a"/><line x1="406" y1="674" x2="406" y2="686" stroke="#0f172a" stroke-width="1.5"/><polygon points="406,686 402,678 410,678" fill="#0f172a"/><line x1="536" y1="674" x2="536" y2="686" stroke="#0f172a" stroke-width="1.5"/><polygon points="536,686 532,678 540,678" fill="#0f172a"/></svg>