<svg xmlns="http://www.w3.org/2000/svg" width="751" height="986" viewBox="0 0 751 986"><rect width="100%" height="100%" fill="#ecfdf5"/><text x="32" y="22" font-family="monospace" font-size="16" font-weight="600" fill="#0f172a">Nested swimlanes with parallel forks</text><rect x="16" y="70" width="130" height="836" fill="#ecfdf5" stroke="#cbd5e1" stroke-width="1" stroke-dasharray="4 3"/><rect x="16" y="46" width="130" height="24" fill="#e2e8f0" stroke="#94a3b8" stroke-width="1"/><text x="81" y="62" text-anchor="middle" font-family="monospace" font-size="11" font-weight="600" fill="#0f172a">Customer</text><rect x="146" y="70" width="130" height="836" fill="#f1f5f9" stroke="#cbd5e1" stroke-width="1" stroke-dasharray="4 3"/><rect x="146" y="46" width="130" height="24" fill="#dde5ef" stroke="#94a3b8" stroke-width="1"/><text x="211" y="62" text-anchor="middle" font-family="monospace" font-size="11" font-weight="600" fill="#0f172a">Warehouse</text><rect x="276" y="70" width="130" height="836" fill="#ecfdf5" stroke="#cbd5e1" stroke-width="1" stroke-dasharray="4 3"/><rect x="276" y="46" width="130" height="24" fill="#e2e8f0" stroke="#94a3b8" stroke-width="1"/><text x="341" y="62" text-anchor="middle" font-family="monospace" font-size="11" font-weight="600" fill="#0f172a">Finance</text><rect x="406" y="70" width="130" height="836" fill="#f1f5f9" stroke="#cbd5e1" stroke-width="1" stroke-dasharray="4 3"/><rect x="406" y="46" width="130" height="24" fill="#dde5ef" stroke="#94a3b8" stroke-width="1"/><text x="471" y="62" text-anchor="middle" font-family="monospace" font-size="11" font-weight="600" fill="#0f172a">Logistics</text><metadata data-activity-kind="PartitionStart" data-activity-lane="Customer" data-activity-branch="0"/><metadata data-activity-kind="Start" data-activity-lane="Customer" data-activity-branch="0"/><circle cx="81" cy="90" r="12" fill="#0f172a"/><metadata data-activity-kind="Action" data-activity-lane="Customer" data-activity-branch="0"/><rect x="28" y="118" width="106" height="36" rx="18" ry="18" fill="#ecfdf5" stroke="#047857" stroke-width="1.5"/><text x="81" y="141" text-anchor="middle" font-family="monospace" font-size="12" fill="#0f172a">Submit order</text><polyline points="81,112 81,114" fill="none" stroke="#0f172a" stroke-width="1.5"/><polygon points="81,114 77,106 85,106" fill="#0f172a"/><metadata data-activity-kind="PartitionStart" data-activity-lane="Warehouse" data-activity-branch="0"/><metadata data-activity-kind="Action" data-activity-lane="Warehouse" data-activity-branch="0"/><rect x="158" y="162" width="106" height="36" rx="18" ry="18" fill="#ecfdf5" stroke="#047857" stroke-width="1.5"/><text x="211" text-anchor="middle" font-family="monospace" font-size="12" fill="#0f172a"><tspan x="211" y="178">Receive order</tspan><tspan x="211" y="190">notification</tspan></text><polyline points="81,156 81,157 211,157 211,158" fill="none" stroke="#0f172a" stroke-width="1.5"/><polygon points="211,158 207,150 215,150" fill="#0f172a"/><metadata data-activity-kind="Fork" data-activity-lane="Warehouse" data-activity-branch="0"/><polyline points="211,200 211,202" fill="none" stroke="#0f172a" stroke-width="1.5"/><polygon points="211,202 207,194 215,194" fill="#0f172a"/><metadata data-activity-kind="PartitionStart" data-activity-lane="Warehouse" data-activity-branch="0"/><metadata data-activity-kind="Action" data-activity-lane="Warehouse" data-activity-branch="0"/><rect x="93" y="250" width="106" height="36" rx="18" ry="18" fill="#ecfdf5" stroke="#047857" stroke-width="1.5"/><text x="146" y="273" text-anchor="middle" font-family="monospace" font-size="12" fill="#0f172a">Pick items</text><polyline points="211,244 211,245 146,245 146,246" fill="none" stroke="#0f172a" stroke-width="1.5"/><polygon points="146,246 142,238 150,238" fill="#0f172a"/><metadata data-activity-kind="Action" data-activity-lane="Warehouse" data-activity-branch="0"/><rect x="93" y="294" width="106" height="36" rx="18" ry="18" fill="#ecfdf5" stroke="#047857" stroke-width="1.5"/><text x="146" y="317" text-anchor="middle" font-family="monospace" font-size="12" fill="#0f172a">Pack items</text><polyline points="146,288 146,290" fill="none" stroke="#0f172a" stroke-width="1.5"/><polygon points="146,290 142,282 150,282" fill="#0f172a"/><metadata data-activity-kind="ForkAgain" data-activity-lane="Warehouse" data-activity-branch="1"/><metadata data-activity-kind="PartitionStart" data-activity-lane="Finance" data-activity-branch="1"/><metadata data-activity-kind="Action" data-activity-lane="Finance" data-activity-branch="1"/><rect x="223" y="250" width="106" height="36" rx="18" ry="18" fill="#ecfdf5" stroke="#047857" stroke-width="1.5"/><text x="276" y="273" text-anchor="middle" font-family="monospace" font-size="12" fill="#0f172a">Charge payment</text><polyline points="276,244 276,246" fill="none" stroke="#0f172a" stroke-width="1.5"/><polygon points="276,246 272,238 280,238" fill="#0f172a"/><metadata data-activity-kind="IfStart" data-activity-lane="Finance" data-activity-branch="1"/><polygon points="276,292 376,314 276,336 176,314" fill="#fef9c3" stroke="#047857" stroke-width="1.5"/><text x="276" y="318" text-anchor="middle" font-family="monospace" font-size="11" fill="#0f172a">payment ok?</text><polyline points="276,288 276,290" fill="none" stroke="#0f172a" stroke-width="1.5"/><polygon points="276,290 272,282 280,282" fill="#0f172a"/><metadata data-activity-kind="Action" data-activity-lane="Finance" data-activity-branch="1"/><rect x="223" y="338" width="106" height="36" rx="18" ry="18" fill="#ecfdf5" stroke="#047857" stroke-width="1.5"/><text x="276" y="361" text-anchor="middle" font-family="monospace" font-size="12" fill="#0f172a">Issue receipt</text><polyline points="276,332 276,334" fill="none" stroke="#0f172a" stroke-width="1.5"/><polygon points="276,334 272,326 280,326" fill="#0f172a"/><text x="282" y="334" font-family="monospace" font-size="10" fill="#0f172a">yes</text><metadata data-activity-kind="Else" data-activity-lane="Finance" data-activity-branch="1"/><metadata data-activity-kind="Action" data-activity-lane="Finance" data-activity-branch="1"/><rect x="223" y="382" width="106" height="36" rx="18" ry="18" fill="#ecfdf5" stroke="#047857" stroke-width="1.5"/><text x="276" text-anchor="middle" font-family="monospace" font-size="12" fill="#0f172a"><tspan x="276" y="398">Notify</tspan><tspan x="276" y="410">customer</tspan></text><metadata data-activity-kind="Detach" data-activity-lane="Finance" data-activity-branch="1"/><line x1="264" y1="442" x2="288" y2="442" stroke="#0f172a" stroke-width="3"/><polyline points="276,420 276,422" fill="none" stroke="#0f172a" stroke-width="1.5"/><polygon points="276,422 272,414 280,414" fill="#0f172a"/><metadata data-activity-kind="EndIf" data-activity-lane="Finance" data-activity-branch="1"/><metadata data-activity-kind="EndFork" data-activity-lane="Finance" data-activity-branch="0"/><rect x="40" y="546" width="212" height="8" fill="#0f172a"/><metadata data-activity-kind="PartitionStart" data-activity-lane="Logistics" data-activity-branch="0"/><metadata data-activity-kind="Action" data-activity-lane="Logistics" data-activity-branch="0"/><rect x="418" y="570" width="106" height="36" rx="18" ry="18" fill="#ecfdf5" stroke="#047857" stroke-width="1.5"/><text x="471" y="593" text-anchor="middle" font-family="monospace" font-size="12" fill="#0f172a">Assign courier</text><polyline points="146,564 146,565 471,565 471,566" fill="none" stroke="#0f172a" stroke-width="1.5"/><polygon points="471,566 467,558 475,558" fill="#0f172a"/><metadata data-activity-kind="Action" data-activity-lane="Logistics" data-activity-branch="0"/><rect x="418" y="614" width="106" height="36" rx="18" ry="18" fill="#ecfdf5" stroke="#047857" stroke-width="1.5"/><text x="471" y="637" text-anchor="middle" font-family="monospace" font-size="12" fill="#0f172a">Print label</text><polyline points="471,608 471,610" fill="none" stroke="#0f172a" stroke-width="1.5"/><polygon points="471,610 467,602 475,602" fill="#0f172a"/><metadata data-activity-kind="Fork" data-activity-lane="Logistics" data-activity-branch="0"/><polyline points="471,652 471,654" fill="none" stroke="#0f172a" stroke-width="1.5"/><polygon points="471,654 467,646 475,646" fill="#0f172a"/><metadata data-activity-kind="PartitionStart" data-activity-lane="Logistics" data-activity-branch="0"/><metadata data-activity-kind="Action" data-activity-lane="Logistics" data-activity-branch="0"/><rect x="353" y="702" width="106" height="36" rx="18" ry="18" fill="#ecfdf5" stroke="#047857" stroke-width="1.5"/><text x="406" text-anchor="middle" font-family="monospace" font-size="12" fill="#0f172a"><tspan x="406" y="718">Hand off to</tspan><tspan x="406" y="730">courier</tspan></text><polyline points="471,696 471,697 406,697 406,698" fill="none" stroke="#0f172a" stroke-width="1.5"/><polygon points="406,698 402,690 410,690" fill="#0f172a"/><metadata data-activity-kind="ForkAgain" data-activity-lane="Logistics" data-activity-branch="1"/><metadata data-activity-kind="PartitionStart" data-activity-lane="Warehouse" data-activity-branch="1"/><metadata data-activity-kind="Action" data-activity-lane="Warehouse" data-activity-branch="1"/><rect x="483" y="702" width="106" height="36" rx="18" ry="18" fill="#ecfdf5" stroke="#047857" stroke-width="1.5"/><text x="536" text-anchor="middle" font-family="monospace" font-size="12" fill="#0f172a"><tspan x="536" y="718">Update</tspan><tspan x="536" y="730">inventory</tspan></text><polyline points="536,696 536,698" fill="none" stroke="#0f172a" stroke-width="1.5"/><polygon points="536,698 532,690 540,690" fill="#0f172a"/><metadata data-activity-kind="EndFork" data-activity-lane="Warehouse" data-activity-branch="0"/><metadata data-activity-kind="PartitionStart" data-activity-lane="Customer" data-activity-branch="0"/><metadata data-activity-kind="Action" data-activity-lane="Customer" data-activity-branch="0"/><rect x="28" y="790" width="106" height="36" rx="18" ry="18" fill="#ecfdf5" stroke="#047857" stroke-width="1.5"/><text x="81" text-anchor="middle" font-family="monospace" font-size="12" fill="#0f172a"><tspan x="81" y="800">Receive</tspan><tspan x="81" y="812">delivery</tspan><tspan x="81" y="824">notification</tspan></text><polyline points="471,784 471,785 81,785 81,786" fill="none" stroke="#0f172a" stroke-width="1.5"/><polygon points="81,786 77,778 85,778" fill="#0f172a"/><metadata data-activity-kind="Stop" data-activity-lane="Customer" data-activity-branch="0"/><circle cx="81" cy="850" r="14" fill="white" stroke="#0f172a" stroke-width="1.5"/><circle cx="81" cy="850" r="7" fill="#0f172a"/><polyline points="81,828 81,830" fill="none" stroke="#0f172a" stroke-width="1.5"/><polygon points="81,830 77,822 85,822" fill="#0f172a"/><polyline points="146,332 146,546" fill="none" stroke="#0f172a" stroke-width="1.5"/><polygon points="146,546 142,538 150,538" fill="#0f172a"/><polyline points="146,234 146,246" fill="none" stroke="#0f172a" stroke-width="1.5"/><polygon points="146,246 142,238 150,238" fill="#0f172a"/><polyline points="276,234 276,246" fill="none" stroke="#0f172a" stroke-width="1.5"/><polygon points="276,246 272,238 280,238" fill="#0f172a"/><polyline points="406,740 406,766" fill="none" stroke="#0f172a" stroke-width="1.5"/><polygon points="406,766 402,758 410,758" fill="#0f172a"/><polyline points="536,740 536,766" fill="none" stroke="#0f172a" stroke-width="1.5"/><polygon points="536,766 532,758 540,758" fill="#0f172a"/><polyline points="406,686 406,698" fill="none" stroke="#0f172a" stroke-width="1.5"/><polygon points="406,698 402,690 410,690" fill="#0f172a"/><polyline points="536,686 536,698" fill="none" stroke="#0f172a" stroke-width="1.5"/><polygon points="536,698 532,690 540,690" fill="#0f172a"/></svg>