<svg xmlns="http://www.w3.org/2000/svg" width="568" height="638" viewBox="0 0 568 638"><rect width="100%" height="100%" fill="#ecfdf5"/><text x="32" y="22" font-family="monospace" font-size="16" font-weight="600" fill="#0f172a">Switch/case pattern with detach and kill</text><metadata data-activity-kind="Start" data-activity-lane="default" data-activity-branch="0"/><circle cx="276" cy="66" r="12" fill="#0f172a"/><metadata data-activity-kind="Action" data-activity-lane="default" data-activity-branch="0"/><rect x="196" y="94" width="160" height="36" rx="18" ry="18" fill="#ecfdf5" stroke="#047857" stroke-width="1.5"/><text x="276" y="117" text-anchor="middle" font-family="monospace" font-size="12" fill="#0f172a">Read event type</text><polyline points="276,88 276,90" fill="none" stroke="#0f172a" stroke-width="1.5"/><polygon points="276,90 272,82 280,82" fill="#0f172a"/><metadata data-activity-kind="IfStart" data-activity-lane="default" data-activity-branch="0"/><polygon points="276,136 376,158 276,180 176,158" fill="#fef9c3" stroke="#047857" stroke-width="1.5"/><text x="276" y="162" text-anchor="middle" font-family="monospace" font-size="11" fill="#0f172a">switch event.type</text><polyline points="276,132 276,134" fill="none" stroke="#0f172a" stroke-width="1.5"/><polygon points="276,134 272,126 280,126" fill="#0f172a"/><metadata data-activity-kind="Else" data-activity-lane="default" data-activity-branch="0"/><metadata data-activity-kind="Action" data-activity-lane="default" data-activity-branch="0"/><rect x="276" y="226" width="160" height="36" rx="18" ry="18" fill="#ecfdf5" stroke="#047857" stroke-width="1.5"/><text x="356" y="249" text-anchor="middle" font-family="monospace" font-size="12" fill="#0f172a">Parse headers</text><polyline points="276,176 276,199 356,199 356,222" fill="none" stroke="#0f172a" stroke-width="1.5"/><polygon points="356,222 352,214 360,214" fill="#0f172a"/><text x="290" y="187" font-family="monospace" font-size="10" fill="#0f172a">HTTP_REQUEST</text><polyline points="276,176 276,199 356,199 356,222" fill="none" stroke="#0f172a" stroke-width="1.5"/><polygon points="356,222 352,214 360,214" fill="#0f172a"/><text x="290" y="187" font-family="monospace" font-size="10" fill="#0f172a">WEBSOCKET_MESSAGE</text><polyline points="276,408 302,408 302,315 356,315 356,222" fill="none" stroke="#0f172a" stroke-width="1.5"/><polygon points="356,222 352,230 360,230" fill="#0f172a"/><polyline points="436,396 528,396 528,309 356,309 356,222" fill="none" stroke="#0f172a" stroke-width="1.5"/><polygon points="356,222 352,230 360,230" fill="#0f172a"/><polyline points="276,176 276,199 356,199 356,222" fill="none" stroke="#0f172a" stroke-width="1.5"/><polygon points="356,222 352,214 360,214" fill="#0f172a"/><text x="290" y="187" font-family="monospace" font-size="10" fill="#0f172a">TIMER_TICK</text><polyline points="276,308 276,265 356,265 356,222" fill="none" stroke="#0f172a" stroke-width="1.5"/><polygon points="356,222 352,230 360,230" fill="#0f172a"/><text x="362" y="265" font-family="monospace" font-size="10" fill="#0f172a">yes</text><polyline points="436,408 528,408 528,315 356,315 356,222" fill="none" stroke="#0f172a" stroke-width="1.5"/><polygon points="356,222 352,230 360,230" fill="#0f172a"/><polyline points="276,176 276,199 356,199 356,222" fill="none" stroke="#0f172a" stroke-width="1.5"/><polygon points="356,222 352,214 360,214" fill="#0f172a"/><text x="290" y="187" font-family="monospace" font-size="10" fill="#0f172a">SIGNAL</text><metadata data-activity-kind="Action" data-activity-lane="default" data-activity-branch="0"/><rect x="276" y="270" width="160" height="36" rx="18" ry="18" fill="#ecfdf5" stroke="#047857" stroke-width="1.5"/><text x="356" y="293" text-anchor="middle" font-family="monospace" font-size="12" fill="#0f172a">Route to handler</text><polyline points="356,264 356,266" fill="none" stroke="#0f172a" stroke-width="1.5"/><polygon points="356,266 352,258 360,258" fill="#0f172a"/><metadata data-activity-kind="Action" data-activity-lane="default" data-activity-branch="0"/><rect x="276" y="314" width="160" height="36" rx="18" ry="18" fill="#ecfdf5" stroke="#047857" stroke-width="1.5"/><text x="356" y="337" text-anchor="middle" font-family="monospace" font-size="12" fill="#0f172a">Send response</text><polyline points="356,308 356,310" fill="none" stroke="#0f172a" stroke-width="1.5"/><polygon points="356,310 352,302 360,302" fill="#0f172a"/><metadata data-activity-kind="Else" data-activity-lane="default" data-activity-branch="0"/><metadata data-activity-kind="Action" data-activity-lane="default" data-activity-branch="0"/><rect x="276" y="226" width="160" height="36" rx="18" ry="18" fill="#ecfdf5" stroke="#047857" stroke-width="1.5"/><text x="356" y="249" text-anchor="middle" font-family="monospace" font-size="12" fill="#0f172a">Decode frame</text><polyline points="276,176 276,199 356,199 356,222" fill="none" stroke="#0f172a" stroke-width="1.5"/><polygon points="356,222 352,214 360,214" fill="#0f172a"/><text x="290" y="187" font-family="monospace" font-size="10" fill="#0f172a">HTTP_REQUEST</text><polyline points="276,176 276,199 356,199 356,222" fill="none" stroke="#0f172a" stroke-width="1.5"/><polygon points="356,222 352,214 360,214" fill="#0f172a"/><text x="290" y="187" font-family="monospace" font-size="10" fill="#0f172a">WEBSOCKET_MESSAGE</text><polyline points="276,408 302,408 302,315 356,315 356,222" fill="none" stroke="#0f172a" stroke-width="1.5"/><polygon points="356,222 352,230 360,230" fill="#0f172a"/><polyline points="436,396 528,396 528,309 356,309 356,222" fill="none" stroke="#0f172a" stroke-width="1.5"/><polygon points="356,222 352,230 360,230" fill="#0f172a"/><polyline points="276,176 276,199 356,199 356,222" fill="none" stroke="#0f172a" stroke-width="1.5"/><polygon points="356,222 352,214 360,214" fill="#0f172a"/><text x="290" y="187" font-family="monospace" font-size="10" fill="#0f172a">TIMER_TICK</text><polyline points="276,308 276,265 356,265 356,222" fill="none" stroke="#0f172a" stroke-width="1.5"/><polygon points="356,222 352,230 360,230" fill="#0f172a"/><text x="362" y="265" font-family="monospace" font-size="10" fill="#0f172a">yes</text><polyline points="436,408 528,408 528,315 356,315 356,222" fill="none" stroke="#0f172a" stroke-width="1.5"/><polygon points="356,222 352,230 360,230" fill="#0f172a"/><polyline points="276,176 276,199 356,199 356,222" fill="none" stroke="#0f172a" stroke-width="1.5"/><polygon points="356,222 352,214 360,214" fill="#0f172a"/><text x="290" y="187" font-family="monospace" font-size="10" fill="#0f172a">SIGNAL</text><metadata data-activity-kind="IfStart" data-activity-lane="default" data-activity-branch="0"/><polygon points="356,268 456,290 356,312 256,290" fill="#fef9c3" stroke="#047857" stroke-width="1.5"/><text x="356" y="294" text-anchor="middle" font-family="monospace" font-size="11" fill="#0f172a">frame.opcode == CLOSE</text><polyline points="356,264 356,266" fill="none" stroke="#0f172a" stroke-width="1.5"/><polygon points="356,266 352,258 360,258" fill="#0f172a"/><metadata data-activity-kind="Action" data-activity-lane="default" data-activity-branch="0"/><rect x="196" y="314" width="160" height="36" rx="18" ry="18" fill="#ecfdf5" stroke="#047857" stroke-width="1.5"/><text x="276" y="337" text-anchor="middle" font-family="monospace" font-size="12" fill="#0f172a">Send close frame</text><polyline points="256,290 256,300 276,300 276,310" fill="none" stroke="#0f172a" stroke-width="1.5"/><polygon points="276,310 272,302 280,302" fill="#0f172a"/><text x="270" y="295" font-family="monospace" font-size="10" fill="#0f172a">yes</text><metadata data-activity-kind="Kill" data-activity-lane="default" data-activity-branch="0"/><circle cx="276" cy="374" r="12" fill="white" stroke="#0f172a" stroke-width="1.5"/><line x1="268" y1="366" x2="284" y2="382" stroke="#0f172a" stroke-width="2"/><line x1="284" y1="366" x2="268" y2="382" stroke="#0f172a" stroke-width="2"/><polyline points="276,352 276,354" fill="none" stroke="#0f172a" stroke-width="1.5"/><polygon points="276,354 272,346 280,346" fill="#0f172a"/><metadata data-activity-kind="Else" data-activity-lane="default" data-activity-branch="0"/><metadata data-activity-kind="Action" data-activity-lane="default" data-activity-branch="0"/><rect x="356" y="358" width="160" height="36" rx="18" ry="18" fill="#ecfdf5" stroke="#047857" stroke-width="1.5"/><text x="436" y="381" text-anchor="middle" font-family="monospace" font-size="12" fill="#0f172a">Dispatch message</text><polyline points="356,308 448,308 448,348 436,348 436,354" fill="none" stroke="#0f172a" stroke-width="1.5"/><polygon points="436,354 432,346 440,346" fill="#0f172a"/><text x="454" y="348" font-family="monospace" font-size="10" fill="#0f172a">no</text><metadata data-activity-kind="EndIf" data-activity-lane="default" data-activity-branch="0"/><metadata data-activity-kind="Else" data-activity-lane="default" data-activity-branch="0"/><metadata data-activity-kind="Action" data-activity-lane="default" data-activity-branch="0"/><rect x="276" y="226" width="160" height="36" rx="18" ry="18" fill="#ecfdf5" stroke="#047857" stroke-width="1.5"/><text x="356" y="249" text-anchor="middle" font-family="monospace" font-size="12" fill="#0f172a">Run scheduled tasks</text><polyline points="276,176 276,199 356,199 356,222" fill="none" stroke="#0f172a" stroke-width="1.5"/><polygon points="356,222 352,214 360,214" fill="#0f172a"/><text x="290" y="187" font-family="monospace" font-size="10" fill="#0f172a">HTTP_REQUEST</text><polyline points="276,176 276,199 356,199 356,222" fill="none" stroke="#0f172a" stroke-width="1.5"/><polygon points="356,222 352,214 360,214" fill="#0f172a"/><text x="290" y="187" font-family="monospace" font-size="10" fill="#0f172a">WEBSOCKET_MESSAGE</text><polyline points="276,408 302,408 302,315 356,315 356,222" fill="none" stroke="#0f172a" stroke-width="1.5"/><polygon points="356,222 352,230 360,230" fill="#0f172a"/><polyline points="436,396 528,396 528,309 356,309 356,222" fill="none" stroke="#0f172a" stroke-width="1.5"/><polygon points="356,222 352,230 360,230" fill="#0f172a"/><polyline points="276,176 276,199 356,199 356,222" fill="none" stroke="#0f172a" stroke-width="1.5"/><polygon points="356,222 352,214 360,214" fill="#0f172a"/><text x="290" y="187" font-family="monospace" font-size="10" fill="#0f172a">TIMER_TICK</text><polyline points="276,308 276,265 356,265 356,222" fill="none" stroke="#0f172a" stroke-width="1.5"/><polygon points="356,222 352,230 360,230" fill="#0f172a"/><text x="362" y="265" font-family="monospace" font-size="10" fill="#0f172a">yes</text><polyline points="436,408 528,408 528,315 356,315 356,222" fill="none" stroke="#0f172a" stroke-width="1.5"/><polygon points="356,222 352,230 360,230" fill="#0f172a"/><polyline points="276,176 276,199 356,199 356,222" fill="none" stroke="#0f172a" stroke-width="1.5"/><polygon points="356,222 352,214 360,214" fill="#0f172a"/><text x="290" y="187" font-family="monospace" font-size="10" fill="#0f172a">SIGNAL</text><metadata data-activity-kind="IfStart" data-activity-lane="default" data-activity-branch="0"/><polygon points="356,268 456,290 356,312 256,290" fill="#fef9c3" stroke="#047857" stroke-width="1.5"/><text x="356" y="294" text-anchor="middle" font-family="monospace" font-size="11" fill="#0f172a">shutdown signal?</text><polyline points="356,264 356,266" fill="none" stroke="#0f172a" stroke-width="1.5"/><polygon points="356,266 352,258 360,258" fill="#0f172a"/><metadata data-activity-kind="Action" data-activity-lane="default" data-activity-branch="0"/><rect x="196" y="314" width="160" height="36" rx="18" ry="18" fill="#ecfdf5" stroke="#047857" stroke-width="1.5"/><text x="276" y="337" text-anchor="middle" font-family="monospace" font-size="12" fill="#0f172a">Flush queues</text><polyline points="256,290 256,300 276,300 276,310" fill="none" stroke="#0f172a" stroke-width="1.5"/><polygon points="276,310 272,302 280,302" fill="#0f172a"/><text x="270" y="295" font-family="monospace" font-size="10" fill="#0f172a">yes</text><metadata data-activity-kind="Detach" data-activity-lane="default" data-activity-branch="0"/><line x1="264" y1="374" x2="288" y2="374" stroke="#0f172a" stroke-width="3"/><polyline points="276,352 276,354" fill="none" stroke="#0f172a" stroke-width="1.5"/><polygon points="276,354 272,346 280,346" fill="#0f172a"/><metadata data-activity-kind="EndIf" data-activity-lane="default" data-activity-branch="0"/><metadata data-activity-kind="Else" data-activity-lane="default" data-activity-branch="0"/><metadata data-activity-kind="Action" data-activity-lane="default" data-activity-branch="0"/><rect x="276" y="226" width="160" height="36" rx="18" ry="18" fill="#ecfdf5" stroke="#047857" stroke-width="1.5"/><text x="356" y="249" text-anchor="middle" font-family="monospace" font-size="12" fill="#0f172a">Log signal</text><polyline points="276,176 276,199 356,199 356,222" fill="none" stroke="#0f172a" stroke-width="1.5"/><polygon points="356,222 352,214 360,214" fill="#0f172a"/><text x="290" y="187" font-family="monospace" font-size="10" fill="#0f172a">HTTP_REQUEST</text><polyline points="276,176 276,199 356,199 356,222" fill="none" stroke="#0f172a" stroke-width="1.5"/><polygon points="356,222 352,214 360,214" fill="#0f172a"/><text x="290" y="187" font-family="monospace" font-size="10" fill="#0f172a">WEBSOCKET_MESSAGE</text><polyline points="276,408 302,408 302,315 356,315 356,222" fill="none" stroke="#0f172a" stroke-width="1.5"/><polygon points="356,222 352,230 360,230" fill="#0f172a"/><polyline points="436,396 528,396 528,309 356,309 356,222" fill="none" stroke="#0f172a" stroke-width="1.5"/><polygon points="356,222 352,230 360,230" fill="#0f172a"/><polyline points="276,176 276,199 356,199 356,222" fill="none" stroke="#0f172a" stroke-width="1.5"/><polygon points="356,222 352,214 360,214" fill="#0f172a"/><text x="290" y="187" font-family="monospace" font-size="10" fill="#0f172a">TIMER_TICK</text><polyline points="276,308 276,265 356,265 356,222" fill="none" stroke="#0f172a" stroke-width="1.5"/><polygon points="356,222 352,230 360,230" fill="#0f172a"/><text x="362" y="265" font-family="monospace" font-size="10" fill="#0f172a">yes</text><polyline points="436,408 528,408 528,315 356,315 356,222" fill="none" stroke="#0f172a" stroke-width="1.5"/><polygon points="356,222 352,230 360,230" fill="#0f172a"/><polyline points="276,176 276,199 356,199 356,222" fill="none" stroke="#0f172a" stroke-width="1.5"/><polygon points="356,222 352,214 360,214" fill="#0f172a"/><text x="290" y="187" font-family="monospace" font-size="10" fill="#0f172a">SIGNAL</text><metadata data-activity-kind="Action" data-activity-lane="default" data-activity-branch="0"/><rect x="276" y="270" width="160" height="36" rx="18" ry="18" fill="#ecfdf5" stroke="#047857" stroke-width="1.5"/><text x="356" y="293" text-anchor="middle" font-family="monospace" font-size="12" fill="#0f172a">Graceful shutdown</text><polyline points="356,264 356,266" fill="none" stroke="#0f172a" stroke-width="1.5"/><polygon points="356,266 352,258 360,258" fill="#0f172a"/><metadata data-activity-kind="Action" data-activity-lane="default" data-activity-branch="0"/><rect x="276" y="314" width="160" height="36" rx="18" ry="18" fill="#ecfdf5" stroke="#047857" stroke-width="1.5"/><text x="356" y="337" text-anchor="middle" font-family="monospace" font-size="12" fill="#0f172a">Flush state</text><polyline points="356,308 356,310" fill="none" stroke="#0f172a" stroke-width="1.5"/><polygon points="356,310 352,302 360,302" fill="#0f172a"/><metadata data-activity-kind="Stop" data-activity-lane="default" data-activity-branch="0"/><circle cx="356" cy="374" r="14" fill="white" stroke="#0f172a" stroke-width="1.5"/><circle cx="356" cy="374" r="7" fill="#0f172a"/><polyline points="356,352 356,354" fill="none" stroke="#0f172a" stroke-width="1.5"/><polygon points="356,354 352,346 360,346" fill="#0f172a"/><metadata data-activity-kind="EndIf" data-activity-lane="default" data-activity-branch="0"/><metadata data-activity-kind="Action" data-activity-lane="default" data-activity-branch="0"/><rect x="196" y="502" width="160" height="36" rx="18" ry="18" fill="#ecfdf5" stroke="#047857" stroke-width="1.5"/><text x="276" y="525" text-anchor="middle" font-family="monospace" font-size="12" fill="#0f172a">Reset event buffer</text><polyline points="356,408 356,453 276,453 276,498" fill="none" stroke="#0f172a" stroke-width="1.5"/><polygon points="276,498 272,490 280,490" fill="#0f172a"/><metadata data-activity-kind="Stop" data-activity-lane="default" data-activity-branch="0"/><circle cx="276" cy="562" r="14" fill="white" stroke="#0f172a" stroke-width="1.5"/><circle cx="276" cy="562" r="7" fill="#0f172a"/><polyline points="276,540 276,542" fill="none" stroke="#0f172a" stroke-width="1.5"/><polygon points="276,542 272,534 280,534" fill="#0f172a"/></svg>