<svg xmlns="http://www.w3.org/2000/svg" width="1120" height="842" viewBox="0 0 1120 842"><rect width="100%" height="100%" fill="#ecfdf5"/><text x="32" y="28" font-family="monospace" font-size="18" font-weight="600" fill="#0f172a">Switch/case pattern with detach and kill</text><text x="32" y="52" font-family="monospace" font-size="12" fill="#0f172a">activity diagram</text><rect x="32" y="62" width="1056" height="760" fill="#ecfdf5" stroke="#cbd5e1" stroke-width="1" stroke-dasharray="4 3"/><metadata data-activity-kind="Start" data-activity-lane="default" data-activity-branch="0"/><circle cx="560" cy="82" r="12" fill="#0f172a"/><metadata data-activity-kind="Action" data-activity-lane="default" data-activity-branch="0"/><rect x="450" y="126" width="220" height="36" rx="18" ry="18" fill="#ecfdf5" stroke="#047857" stroke-width="1.5"/><text x="560" y="149" text-anchor="middle" font-family="monospace" font-size="12" fill="#0f172a">Read event type</text><line x1="560" y1="104" x2="560" y2="122" stroke="#0f172a" stroke-width="1.5"/><polygon points="560,122 556,114 564,114" fill="#0f172a"/><metadata data-activity-kind="IfStart" data-activity-lane="default" data-activity-branch="0"/><polygon points="560,184 660,206 560,228 460,206" fill="#fef9c3" stroke="#047857" stroke-width="1.5"/><text x="560" y="210" text-anchor="middle" font-family="monospace" font-size="11" fill="#0f172a">switch event.type</text><line x1="560" y1="164" x2="560" y2="182" stroke="#0f172a" stroke-width="1.5"/><polygon points="560,182 556,174 564,174" fill="#0f172a"/><metadata data-activity-kind="Else" data-activity-lane="default" data-activity-branch="0"/><metadata data-activity-kind="Action" data-activity-lane="default" data-activity-branch="0"/><rect x="610" y="306" width="220" height="36" rx="18" ry="18" fill="#ecfdf5" stroke="#047857" stroke-width="1.5"/><text x="720" y="329" text-anchor="middle" font-family="monospace" font-size="12" fill="#0f172a">Parse headers</text><line x1="560" y1="224" x2="560" y2="263" stroke="#0f172a" stroke-width="1.5"/><line x1="560" y1="263" x2="720" y2="263" stroke="#0f172a" stroke-width="1.5"/><line x1="720" y1="263" x2="720" y2="302" stroke="#0f172a" stroke-width="1.5"/><polygon points="720,302 716,294 724,294" fill="#0f172a"/><line x1="560" y1="224" x2="560" y2="263" stroke="#0f172a" stroke-width="1.5"/><line x1="560" y1="263" x2="720" y2="263" stroke="#0f172a" stroke-width="1.5"/><line x1="720" y1="263" x2="720" y2="302" stroke="#0f172a" stroke-width="1.5"/><polygon points="720,302 716,294 724,294" fill="#0f172a"/><line x1="560" y1="524" x2="560" y2="413" stroke="#0f172a" stroke-width="1.5"/><line x1="560" y1="413" x2="720" y2="413" stroke="#0f172a" stroke-width="1.5"/><line x1="720" y1="413" x2="720" y2="302" stroke="#0f172a" stroke-width="1.5"/><polygon points="720,302 716,310 724,310" fill="#0f172a"/><line x1="880" y1="524" x2="880" y2="413" stroke="#0f172a" stroke-width="1.5"/><line x1="880" y1="413" x2="720" y2="413" stroke="#0f172a" stroke-width="1.5"/><line x1="720" y1="413" x2="720" y2="302" stroke="#0f172a" stroke-width="1.5"/><polygon points="720,302 716,310 724,310" fill="#0f172a"/><line x1="560" y1="224" x2="560" y2="263" stroke="#0f172a" stroke-width="1.5"/><line x1="560" y1="263" x2="720" y2="263" stroke="#0f172a" stroke-width="1.5"/><line x1="720" y1="263" x2="720" y2="302" stroke="#0f172a" stroke-width="1.5"/><polygon points="720,302 716,294 724,294" fill="#0f172a"/><line x1="560" y1="404" x2="560" y2="353" stroke="#0f172a" stroke-width="1.5"/><line x1="560" y1="353" x2="720" y2="353" stroke="#0f172a" stroke-width="1.5"/><line x1="720" y1="353" x2="720" y2="302" stroke="#0f172a" stroke-width="1.5"/><polygon points="720,302 716,310 724,310" fill="#0f172a"/><line x1="880" y1="524" x2="880" y2="413" stroke="#0f172a" stroke-width="1.5"/><line x1="880" y1="413" x2="720" y2="413" stroke="#0f172a" stroke-width="1.5"/><line x1="720" y1="413" x2="720" y2="302" stroke="#0f172a" stroke-width="1.5"/><polygon points="720,302 716,310 724,310" fill="#0f172a"/><line x1="560" y1="224" x2="560" y2="263" stroke="#0f172a" stroke-width="1.5"/><line x1="560" y1="263" x2="720" y2="263" stroke="#0f172a" stroke-width="1.5"/><line x1="720" y1="263" x2="720" y2="302" stroke="#0f172a" stroke-width="1.5"/><polygon points="720,302 716,294 724,294" fill="#0f172a"/><metadata data-activity-kind="Action" data-activity-lane="default" data-activity-branch="0"/><rect x="610" y="366" width="220" height="36" rx="18" ry="18" fill="#ecfdf5" stroke="#047857" stroke-width="1.5"/><text x="720" y="389" text-anchor="middle" font-family="monospace" font-size="12" fill="#0f172a">Route to handler</text><line x1="720" y1="344" x2="720" y2="362" stroke="#0f172a" stroke-width="1.5"/><polygon points="720,362 716,354 724,354" fill="#0f172a"/><metadata data-activity-kind="Action" data-activity-lane="default" data-activity-branch="0"/><rect x="610" y="426" width="220" height="36" rx="18" ry="18" fill="#ecfdf5" stroke="#047857" stroke-width="1.5"/><text x="720" y="449" text-anchor="middle" font-family="monospace" font-size="12" fill="#0f172a">Send response</text><line x1="720" y1="404" x2="720" y2="422" stroke="#0f172a" stroke-width="1.5"/><polygon points="720,422 716,414 724,414" fill="#0f172a"/><metadata data-activity-kind="Else" data-activity-lane="default" data-activity-branch="0"/><metadata data-activity-kind="Action" data-activity-lane="default" data-activity-branch="0"/><rect x="610" y="306" width="220" height="36" rx="18" ry="18" fill="#ecfdf5" stroke="#047857" stroke-width="1.5"/><text x="720" y="329" text-anchor="middle" font-family="monospace" font-size="12" fill="#0f172a">Decode frame</text><line x1="560" y1="224" x2="560" y2="263" stroke="#0f172a" stroke-width="1.5"/><line x1="560" y1="263" x2="720" y2="263" stroke="#0f172a" stroke-width="1.5"/><line x1="720" y1="263" x2="720" y2="302" stroke="#0f172a" stroke-width="1.5"/><polygon points="720,302 716,294 724,294" fill="#0f172a"/><line x1="560" y1="224" x2="560" y2="263" stroke="#0f172a" stroke-width="1.5"/><line x1="560" y1="263" x2="720" y2="263" stroke="#0f172a" stroke-width="1.5"/><line x1="720" y1="263" x2="720" y2="302" stroke="#0f172a" stroke-width="1.5"/><polygon points="720,302 716,294 724,294" fill="#0f172a"/><line x1="560" y1="524" x2="560" y2="413" stroke="#0f172a" stroke-width="1.5"/><line x1="560" y1="413" x2="720" y2="413" stroke="#0f172a" stroke-width="1.5"/><line x1="720" y1="413" x2="720" y2="302" stroke="#0f172a" stroke-width="1.5"/><polygon points="720,302 716,310 724,310" fill="#0f172a"/><line x1="880" y1="524" x2="880" y2="413" stroke="#0f172a" stroke-width="1.5"/><line x1="880" y1="413" x2="720" y2="413" stroke="#0f172a" stroke-width="1.5"/><line x1="720" y1="413" x2="720" y2="302" stroke="#0f172a" stroke-width="1.5"/><polygon points="720,302 716,310 724,310" fill="#0f172a"/><line x1="560" y1="224" x2="560" y2="263" stroke="#0f172a" stroke-width="1.5"/><line x1="560" y1="263" x2="720" y2="263" stroke="#0f172a" stroke-width="1.5"/><line x1="720" y1="263" x2="720" y2="302" stroke="#0f172a" stroke-width="1.5"/><polygon points="720,302 716,294 724,294" fill="#0f172a"/><line x1="560" y1="404" x2="560" y2="353" stroke="#0f172a" stroke-width="1.5"/><line x1="560" y1="353" x2="720" y2="353" stroke="#0f172a" stroke-width="1.5"/><line x1="720" y1="353" x2="720" y2="302" stroke="#0f172a" stroke-width="1.5"/><polygon points="720,302 716,310 724,310" fill="#0f172a"/><line x1="880" y1="524" x2="880" y2="413" stroke="#0f172a" stroke-width="1.5"/><line x1="880" y1="413" x2="720" y2="413" stroke="#0f172a" stroke-width="1.5"/><line x1="720" y1="413" x2="720" y2="302" stroke="#0f172a" stroke-width="1.5"/><polygon points="720,302 716,310 724,310" fill="#0f172a"/><line x1="560" y1="224" x2="560" y2="263" stroke="#0f172a" stroke-width="1.5"/><line x1="560" y1="263" x2="720" y2="263" stroke="#0f172a" stroke-width="1.5"/><line x1="720" y1="263" x2="720" y2="302" stroke="#0f172a" stroke-width="1.5"/><polygon points="720,302 716,294 724,294" fill="#0f172a"/><metadata data-activity-kind="IfStart" data-activity-lane="default" data-activity-branch="0"/><polygon points="720,364 820,386 720,408 620,386" fill="#fef9c3" stroke="#047857" stroke-width="1.5"/><text x="720" y="390" text-anchor="middle" font-family="monospace" font-size="11" fill="#0f172a">frame.opcode == CLOSE</text><text x="824" y="390" text-anchor="start" font-family="monospace" font-size="10" fill="#0f172a">yes</text><line x1="720" y1="344" x2="720" y2="362" stroke="#0f172a" stroke-width="1.5"/><polygon points="720,362 716,354 724,354" fill="#0f172a"/><metadata data-activity-kind="Action" data-activity-lane="default" data-activity-branch="0"/><rect x="450" y="426" width="220" height="36" rx="18" ry="18" fill="#ecfdf5" stroke="#047857" stroke-width="1.5"/><text x="560" y="449" text-anchor="middle" font-family="monospace" font-size="12" fill="#0f172a">Send close frame</text><line x1="720" y1="404" x2="720" y2="413" stroke="#0f172a" stroke-width="1.5"/><line x1="720" y1="413" x2="560" y2="413" stroke="#0f172a" stroke-width="1.5"/><line x1="560" y1="413" x2="560" y2="422" stroke="#0f172a" stroke-width="1.5"/><polygon points="560,422 556,414 564,414" fill="#0f172a"/><metadata data-activity-kind="Stop" data-activity-lane="default" data-activity-branch="0"/><circle cx="560" cy="502" r="14" fill="white" stroke="#0f172a" stroke-width="1.5"/><circle cx="560" cy="502" r="7" fill="#0f172a"/><text x="560" y="526" text-anchor="middle" font-family="monospace" font-size="10" fill="#0f172a">kill</text><line x1="560" y1="464" x2="560" y2="482" stroke="#0f172a" stroke-width="1.5"/><polygon points="560,482 556,474 564,474" fill="#0f172a"/><metadata data-activity-kind="Else" data-activity-lane="default" data-activity-branch="0"/><metadata data-activity-kind="Action" data-activity-lane="default" data-activity-branch="0"/><rect x="770" y="486" width="220" height="36" rx="18" ry="18" fill="#ecfdf5" stroke="#047857" stroke-width="1.5"/><text x="880" y="509" text-anchor="middle" font-family="monospace" font-size="12" fill="#0f172a">Dispatch message</text><line x1="720" y1="404" x2="720" y2="443" stroke="#0f172a" stroke-width="1.5"/><line x1="720" y1="443" x2="880" y2="443" stroke="#0f172a" stroke-width="1.5"/><line x1="880" y1="443" x2="880" y2="482" stroke="#0f172a" stroke-width="1.5"/><polygon points="880,482 876,474 884,474" fill="#0f172a"/><metadata data-activity-kind="EndIf" data-activity-lane="default" data-activity-branch="0"/><metadata data-activity-kind="Else" data-activity-lane="default" data-activity-branch="0"/><metadata data-activity-kind="Action" data-activity-lane="default" data-activity-branch="0"/><rect x="610" y="306" width="220" height="36" rx="18" ry="18" fill="#ecfdf5" stroke="#047857" stroke-width="1.5"/><text x="720" y="329" text-anchor="middle" font-family="monospace" font-size="12" fill="#0f172a">Run scheduled tasks</text><line x1="560" y1="224" x2="560" y2="263" stroke="#0f172a" stroke-width="1.5"/><line x1="560" y1="263" x2="720" y2="263" stroke="#0f172a" stroke-width="1.5"/><line x1="720" y1="263" x2="720" y2="302" stroke="#0f172a" stroke-width="1.5"/><polygon points="720,302 716,294 724,294" fill="#0f172a"/><line x1="560" y1="224" x2="560" y2="263" stroke="#0f172a" stroke-width="1.5"/><line x1="560" y1="263" x2="720" y2="263" stroke="#0f172a" stroke-width="1.5"/><line x1="720" y1="263" x2="720" y2="302" stroke="#0f172a" stroke-width="1.5"/><polygon points="720,302 716,294 724,294" fill="#0f172a"/><line x1="560" y1="524" x2="560" y2="413" stroke="#0f172a" stroke-width="1.5"/><line x1="560" y1="413" x2="720" y2="413" stroke="#0f172a" stroke-width="1.5"/><line x1="720" y1="413" x2="720" y2="302" stroke="#0f172a" stroke-width="1.5"/><polygon points="720,302 716,310 724,310" fill="#0f172a"/><line x1="880" y1="524" x2="880" y2="413" stroke="#0f172a" stroke-width="1.5"/><line x1="880" y1="413" x2="720" y2="413" stroke="#0f172a" stroke-width="1.5"/><line x1="720" y1="413" x2="720" y2="302" stroke="#0f172a" stroke-width="1.5"/><polygon points="720,302 716,310 724,310" fill="#0f172a"/><line x1="560" y1="224" x2="560" y2="263" stroke="#0f172a" stroke-width="1.5"/><line x1="560" y1="263" x2="720" y2="263" stroke="#0f172a" stroke-width="1.5"/><line x1="720" y1="263" x2="720" y2="302" stroke="#0f172a" stroke-width="1.5"/><polygon points="720,302 716,294 724,294" fill="#0f172a"/><line x1="560" y1="404" x2="560" y2="353" stroke="#0f172a" stroke-width="1.5"/><line x1="560" y1="353" x2="720" y2="353" stroke="#0f172a" stroke-width="1.5"/><line x1="720" y1="353" x2="720" y2="302" stroke="#0f172a" stroke-width="1.5"/><polygon points="720,302 716,310 724,310" fill="#0f172a"/><line x1="880" y1="524" x2="880" y2="413" stroke="#0f172a" stroke-width="1.5"/><line x1="880" y1="413" x2="720" y2="413" stroke="#0f172a" stroke-width="1.5"/><line x1="720" y1="413" x2="720" y2="302" stroke="#0f172a" stroke-width="1.5"/><polygon points="720,302 716,310 724,310" fill="#0f172a"/><line x1="560" y1="224" x2="560" y2="263" stroke="#0f172a" stroke-width="1.5"/><line x1="560" y1="263" x2="720" y2="263" stroke="#0f172a" stroke-width="1.5"/><line x1="720" y1="263" x2="720" y2="302" stroke="#0f172a" stroke-width="1.5"/><polygon points="720,302 716,294 724,294" fill="#0f172a"/><metadata data-activity-kind="IfStart" data-activity-lane="default" data-activity-branch="0"/><polygon points="720,364 820,386 720,408 620,386" fill="#fef9c3" stroke="#047857" stroke-width="1.5"/><text x="720" y="390" text-anchor="middle" font-family="monospace" font-size="11" fill="#0f172a">shutdown signal?</text><text x="824" y="390" text-anchor="start" font-family="monospace" font-size="10" fill="#0f172a">yes</text><line x1="720" y1="344" x2="720" y2="362" stroke="#0f172a" stroke-width="1.5"/><polygon points="720,362 716,354 724,354" fill="#0f172a"/><metadata data-activity-kind="Action" data-activity-lane="default" data-activity-branch="0"/><rect x="450" y="426" width="220" height="36" rx="18" ry="18" fill="#ecfdf5" stroke="#047857" stroke-width="1.5"/><text x="560" y="449" text-anchor="middle" font-family="monospace" font-size="12" fill="#0f172a">Flush queues</text><line x1="720" y1="404" x2="720" y2="413" stroke="#0f172a" stroke-width="1.5"/><line x1="720" y1="413" x2="560" y2="413" stroke="#0f172a" stroke-width="1.5"/><line x1="560" y1="413" x2="560" y2="422" stroke="#0f172a" stroke-width="1.5"/><polygon points="560,422 556,414 564,414" fill="#0f172a"/><metadata data-activity-kind="Stop" data-activity-lane="default" data-activity-branch="0"/><circle cx="560" cy="502" r="14" fill="white" stroke="#0f172a" stroke-width="1.5"/><circle cx="560" cy="502" r="7" fill="#0f172a"/><text x="560" y="526" text-anchor="middle" font-family="monospace" font-size="10" fill="#0f172a">detach</text><line x1="560" y1="464" x2="560" y2="482" stroke="#0f172a" stroke-width="1.5"/><polygon points="560,482 556,474 564,474" fill="#0f172a"/><metadata data-activity-kind="EndIf" data-activity-lane="default" data-activity-branch="0"/><metadata data-activity-kind="Else" data-activity-lane="default" data-activity-branch="0"/><metadata data-activity-kind="Action" data-activity-lane="default" data-activity-branch="0"/><rect x="610" y="306" width="220" height="36" rx="18" ry="18" fill="#ecfdf5" stroke="#047857" stroke-width="1.5"/><text x="720" y="329" text-anchor="middle" font-family="monospace" font-size="12" fill="#0f172a">Log signal</text><line x1="560" y1="224" x2="560" y2="263" stroke="#0f172a" stroke-width="1.5"/><line x1="560" y1="263" x2="720" y2="263" stroke="#0f172a" stroke-width="1.5"/><line x1="720" y1="263" x2="720" y2="302" stroke="#0f172a" stroke-width="1.5"/><polygon points="720,302 716,294 724,294" fill="#0f172a"/><line x1="560" y1="224" x2="560" y2="263" stroke="#0f172a" stroke-width="1.5"/><line x1="560" y1="263" x2="720" y2="263" stroke="#0f172a" stroke-width="1.5"/><line x1="720" y1="263" x2="720" y2="302" stroke="#0f172a" stroke-width="1.5"/><polygon points="720,302 716,294 724,294" fill="#0f172a"/><line x1="560" y1="524" x2="560" y2="413" stroke="#0f172a" stroke-width="1.5"/><line x1="560" y1="413" x2="720" y2="413" stroke="#0f172a" stroke-width="1.5"/><line x1="720" y1="413" x2="720" y2="302" stroke="#0f172a" stroke-width="1.5"/><polygon points="720,302 716,310 724,310" fill="#0f172a"/><line x1="880" y1="524" x2="880" y2="413" stroke="#0f172a" stroke-width="1.5"/><line x1="880" y1="413" x2="720" y2="413" stroke="#0f172a" stroke-width="1.5"/><line x1="720" y1="413" x2="720" y2="302" stroke="#0f172a" stroke-width="1.5"/><polygon points="720,302 716,310 724,310" fill="#0f172a"/><line x1="560" y1="224" x2="560" y2="263" stroke="#0f172a" stroke-width="1.5"/><line x1="560" y1="263" x2="720" y2="263" stroke="#0f172a" stroke-width="1.5"/><line x1="720" y1="263" x2="720" y2="302" stroke="#0f172a" stroke-width="1.5"/><polygon points="720,302 716,294 724,294" fill="#0f172a"/><line x1="560" y1="404" x2="560" y2="353" stroke="#0f172a" stroke-width="1.5"/><line x1="560" y1="353" x2="720" y2="353" stroke="#0f172a" stroke-width="1.5"/><line x1="720" y1="353" x2="720" y2="302" stroke="#0f172a" stroke-width="1.5"/><polygon points="720,302 716,310 724,310" fill="#0f172a"/><line x1="880" y1="524" x2="880" y2="413" stroke="#0f172a" stroke-width="1.5"/><line x1="880" y1="413" x2="720" y2="413" stroke="#0f172a" stroke-width="1.5"/><line x1="720" y1="413" x2="720" y2="302" stroke="#0f172a" stroke-width="1.5"/><polygon points="720,302 716,310 724,310" fill="#0f172a"/><line x1="560" y1="224" x2="560" y2="263" stroke="#0f172a" stroke-width="1.5"/><line x1="560" y1="263" x2="720" y2="263" stroke="#0f172a" stroke-width="1.5"/><line x1="720" y1="263" x2="720" y2="302" stroke="#0f172a" stroke-width="1.5"/><polygon points="720,302 716,294 724,294" fill="#0f172a"/><metadata data-activity-kind="Action" data-activity-lane="default" data-activity-branch="0"/><rect x="610" y="366" width="220" height="36" rx="18" ry="18" fill="#ecfdf5" stroke="#047857" stroke-width="1.5"/><text x="720" y="389" text-anchor="middle" font-family="monospace" font-size="12" fill="#0f172a">Graceful shutdown</text><line x1="720" y1="344" x2="720" y2="362" stroke="#0f172a" stroke-width="1.5"/><polygon points="720,362 716,354 724,354" fill="#0f172a"/><metadata data-activity-kind="Action" data-activity-lane="default" data-activity-branch="0"/><rect x="610" y="426" width="220" height="36" rx="18" ry="18" fill="#ecfdf5" stroke="#047857" stroke-width="1.5"/><text x="720" y="449" text-anchor="middle" font-family="monospace" font-size="12" fill="#0f172a">Flush state</text><line x1="720" y1="404" x2="720" y2="422" stroke="#0f172a" stroke-width="1.5"/><polygon points="720,422 716,414 724,414" fill="#0f172a"/><metadata data-activity-kind="Stop" data-activity-lane="default" data-activity-branch="0"/><circle cx="720" cy="502" r="14" fill="white" stroke="#0f172a" stroke-width="1.5"/><circle cx="720" cy="502" r="7" fill="#0f172a"/><line x1="720" y1="464" x2="720" y2="482" stroke="#0f172a" stroke-width="1.5"/><polygon points="720,482 716,474 724,474" fill="#0f172a"/><metadata data-activity-kind="EndIf" data-activity-lane="default" data-activity-branch="0"/><metadata data-activity-kind="Action" data-activity-lane="default" data-activity-branch="0"/><rect x="450" y="666" width="220" height="36" rx="18" ry="18" fill="#ecfdf5" stroke="#047857" stroke-width="1.5"/><text x="560" y="689" text-anchor="middle" font-family="monospace" font-size="12" fill="#0f172a">Reset event buffer</text><line x1="720" y1="524" x2="720" y2="593" stroke="#0f172a" stroke-width="1.5"/><line x1="720" y1="593" x2="560" y2="593" stroke="#0f172a" stroke-width="1.5"/><line x1="560" y1="593" x2="560" y2="662" stroke="#0f172a" stroke-width="1.5"/><polygon points="560,662 556,654 564,654" fill="#0f172a"/><metadata data-activity-kind="Stop" data-activity-lane="default" data-activity-branch="0"/><circle cx="560" cy="742" r="14" fill="white" stroke="#0f172a" stroke-width="1.5"/><circle cx="560" cy="742" r="7" fill="#0f172a"/><line x1="560" y1="704" x2="560" y2="722" stroke="#0f172a" stroke-width="1.5"/><polygon points="560,722 556,714 564,714" fill="#0f172a"/></svg>