<svg xmlns="http://www.w3.org/2000/svg" width="960" height="1514" viewBox="0 0 960 1514"><rect width="100%" height="100%" fill="#ecfdf5"/><text x="32" y="28" font-family="monospace" font-size="18" font-weight="600" fill="#0f172a">Repeat-while inside partition — batch ETL job</text><text x="32" y="52" font-family="monospace" font-size="12" fill="#0f172a">activity diagram</text><rect x="32" y="178" width="896" height="320" fill="#ecfdf5" stroke="#cbd5e1" stroke-width="1" stroke-dasharray="4 3"/><rect x="32" y="154" width="896" height="24" fill="#e2e8f0" stroke="#94a3b8" stroke-width="1"/><text x="480" y="170" text-anchor="middle" font-family="monospace" font-size="11" font-weight="600" fill="#0f172a">Extract</text><rect x="32" y="534" width="896" height="320" fill="#f1f5f9" stroke="#cbd5e1" stroke-width="1" stroke-dasharray="4 3"/><rect x="32" y="510" width="896" height="24" fill="#dde5ef" stroke="#94a3b8" stroke-width="1"/><text x="480" y="526" text-anchor="middle" font-family="monospace" font-size="11" font-weight="600" fill="#0f172a">Transform</text><rect x="32" y="950" width="896" height="380" fill="#ecfdf5" stroke="#cbd5e1" stroke-width="1" stroke-dasharray="4 3"/><rect x="32" y="926" width="896" height="24" fill="#e2e8f0" stroke="#94a3b8" stroke-width="1"/><text x="480" y="942" text-anchor="middle" font-family="monospace" font-size="11" font-weight="600" fill="#0f172a">Load</text><metadata data-activity-kind="Start" data-activity-lane="default" data-activity-branch="0"/><circle cx="480" cy="106" r="12" fill="#0f172a"/><metadata data-activity-kind="PartitionStart" data-activity-lane="Extract" data-activity-branch="0"/><metadata data-activity-kind="Action" data-activity-lane="Extract" data-activity-branch="0"/><rect x="370" y="182" width="220" height="36" rx="18" ry="18" fill="#ecfdf5" stroke="#047857" stroke-width="1.5"/><text x="480" y="205" text-anchor="middle" font-family="monospace" font-size="12" fill="#0f172a">Open data source</text><line x1="480" y1="128" x2="480" y2="178" stroke="#0f172a" stroke-width="1.5"/><polygon points="480,178 476,170 484,170" fill="#0f172a"/><metadata data-activity-kind="RepeatStart" data-activity-lane="Extract" data-activity-branch="0"/><line x1="480" y1="400" x2="602" y2="400" stroke="#0f172a" stroke-width="1.5"/><line x1="602" y1="400" x2="602" y2="238" stroke="#0f172a" stroke-width="1.5"/><line x1="602" y1="238" x2="480" y2="238" stroke="#0f172a" stroke-width="1.5"/><polygon points="480,238 476,246 484,246" fill="#0f172a"/><text x="608" y="319" font-family="monospace" font-size="10" fill="#0f172a">yes / no</text><metadata data-activity-kind="Action" data-activity-lane="Extract" data-activity-branch="0"/><rect x="370" y="242" width="220" height="36" rx="18" ry="18" fill="#ecfdf5" stroke="#047857" stroke-width="1.5"/><text x="480" y="265" text-anchor="middle" font-family="monospace" font-size="12" fill="#0f172a">Fetch batch (1000 rows)</text><line x1="480" y1="220" x2="480" y2="238" stroke="#0f172a" stroke-width="1.5"/><polygon points="480,238 476,230 484,230" fill="#0f172a"/><line x1="480" y1="400" x2="602" y2="400" stroke="#0f172a" stroke-width="1.5"/><line x1="602" y1="400" x2="602" y2="238" stroke="#0f172a" stroke-width="1.5"/><line x1="602" y1="238" x2="480" y2="238" stroke="#0f172a" stroke-width="1.5"/><polygon points="480,238 476,246 484,246" fill="#0f172a"/><text x="608" y="319" font-family="monospace" font-size="10" fill="#0f172a">yes / no</text><metadata data-activity-kind="Action" data-activity-lane="Extract" data-activity-branch="0"/><rect x="370" y="302" width="220" height="36" rx="18" ry="18" fill="#ecfdf5" stroke="#047857" stroke-width="1.5"/><text x="480" y="325" text-anchor="middle" font-family="monospace" font-size="12" fill="#0f172a">Validate schema</text><line x1="480" y1="280" x2="480" y2="298" stroke="#0f172a" stroke-width="1.5"/><polygon points="480,298 476,290 484,290" fill="#0f172a"/><metadata data-activity-kind="RepeatWhile" data-activity-lane="Extract" data-activity-branch="0"/><polygon points="480,360 580,382 480,404 380,382" fill="#fef9c3" stroke="#047857" stroke-width="1.5"/><text x="480" y="386" text-anchor="middle" font-family="monospace" font-size="11" fill="#0f172a">more rows?</text><line x1="480" y1="340" x2="480" y2="358" stroke="#0f172a" stroke-width="1.5"/><polygon points="480,358 476,350 484,350" fill="#0f172a"/><metadata data-activity-kind="Action" data-activity-lane="Extract" data-activity-branch="0"/><rect x="370" y="422" width="220" height="36" rx="18" ry="18" fill="#ecfdf5" stroke="#047857" stroke-width="1.5"/><text x="480" y="445" text-anchor="middle" font-family="monospace" font-size="12" fill="#0f172a">Close source connection</text><line x1="480" y1="400" x2="480" y2="418" stroke="#0f172a" stroke-width="1.5"/><polygon points="480,418 476,410 484,410" fill="#0f172a"/><metadata data-activity-kind="PartitionEnd" data-activity-lane="default" data-activity-branch="0"/><metadata data-activity-kind="PartitionStart" data-activity-lane="Transform" data-activity-branch="0"/><metadata data-activity-kind="Action" data-activity-lane="Transform" data-activity-branch="0"/><rect x="370" y="538" width="220" height="36" rx="18" ry="18" fill="#ecfdf5" stroke="#047857" stroke-width="1.5"/><text x="480" y="561" text-anchor="middle" font-family="monospace" font-size="12" fill="#0f172a">Normalize timestamps</text><line x1="480" y1="460" x2="480" y2="534" stroke="#0f172a" stroke-width="1.5"/><polygon points="480,534 476,526 484,526" fill="#0f172a"/><metadata data-activity-kind="Action" data-activity-lane="Transform" data-activity-branch="0"/><rect x="370" y="598" width="220" height="36" rx="18" ry="18" fill="#ecfdf5" stroke="#047857" stroke-width="1.5"/><text x="480" y="621" text-anchor="middle" font-family="monospace" font-size="12" fill="#0f172a">Deduplicate records</text><line x1="480" y1="576" x2="480" y2="594" stroke="#0f172a" stroke-width="1.5"/><polygon points="480,594 476,586 484,586" fill="#0f172a"/><metadata data-activity-kind="WhileStart" data-activity-lane="Transform" data-activity-branch="0"/><polygon points="480,656 580,678 480,700 380,678" fill="#fef9c3" stroke="#047857" stroke-width="1.5"/><text x="480" y="682" text-anchor="middle" font-family="monospace" font-size="11" fill="#0f172a">records in queue?</text><line x1="480" y1="636" x2="480" y2="654" stroke="#0f172a" stroke-width="1.5"/><polygon points="480,654 476,646 484,646" fill="#0f172a"/><line x1="480" y1="816" x2="602" y2="816" stroke="#0f172a" stroke-width="1.5"/><line x1="602" y1="816" x2="602" y2="654" stroke="#0f172a" stroke-width="1.5"/><line x1="602" y1="654" x2="480" y2="654" stroke="#0f172a" stroke-width="1.5"/><polygon points="480,654 476,662 484,662" fill="#0f172a"/><text x="608" y="735" font-family="monospace" font-size="10" fill="#0f172a">yes</text><metadata data-activity-kind="Action" data-activity-lane="Transform" data-activity-branch="0"/><rect x="370" y="718" width="220" height="36" rx="18" ry="18" fill="#ecfdf5" stroke="#047857" stroke-width="1.5"/><text x="480" y="741" text-anchor="middle" font-family="monospace" font-size="12" fill="#0f172a">Apply transformation rules</text><line x1="480" y1="696" x2="480" y2="714" stroke="#0f172a" stroke-width="1.5"/><polygon points="480,714 476,706 484,706" fill="#0f172a"/><metadata data-activity-kind="Action" data-activity-lane="Transform" data-activity-branch="0"/><rect x="370" y="778" width="220" height="36" rx="18" ry="18" fill="#ecfdf5" stroke="#047857" stroke-width="1.5"/><text x="480" y="801" text-anchor="middle" font-family="monospace" font-size="12" fill="#0f172a">Emit to output queue</text><line x1="480" y1="756" x2="480" y2="774" stroke="#0f172a" stroke-width="1.5"/><polygon points="480,774 476,766 484,766" fill="#0f172a"/><metadata data-activity-kind="EndWhile" data-activity-lane="Transform" data-activity-branch="0"/><metadata data-activity-kind="PartitionEnd" data-activity-lane="default" data-activity-branch="0"/><metadata data-activity-kind="PartitionStart" data-activity-lane="Load" data-activity-branch="0"/><metadata data-activity-kind="Action" data-activity-lane="Load" data-activity-branch="0"/><rect x="370" y="954" width="220" height="36" rx="18" ry="18" fill="#ecfdf5" stroke="#047857" stroke-width="1.5"/><text x="480" y="977" text-anchor="middle" font-family="monospace" font-size="12" fill="#0f172a">Open destination</text><line x1="480" y1="876" x2="480" y2="950" stroke="#0f172a" stroke-width="1.5"/><polygon points="480,950 476,942 484,942" fill="#0f172a"/><line x1="580" y1="678" x2="602" y2="678" stroke="#0f172a" stroke-width="1.5"/><line x1="602" y1="678" x2="602" y2="814" stroke="#0f172a" stroke-width="1.5"/><line x1="602" y1="814" x2="480" y2="814" stroke="#0f172a" stroke-width="1.5"/><line x1="480" y1="814" x2="480" y2="950" stroke="#0f172a" stroke-width="1.5"/><polygon points="480,950 476,942 484,942" fill="#0f172a"/><text x="534" y="810" font-family="monospace" font-size="10" fill="#0f172a">no</text><metadata data-activity-kind="Fork" data-activity-lane="Load" data-activity-branch="0"/><rect x="83" y="1034" width="794" height="8" fill="#0f172a"/><line x1="480" y1="992" x2="480" y2="1010" stroke="#0f172a" stroke-width="1.5"/><polygon points="480,1010 476,1002 484,1002" fill="#0f172a"/><metadata data-activity-kind="Action" data-activity-lane="Load" data-activity-branch="0"/><rect x="72" y="1074" width="220" height="36" rx="18" ry="18" fill="#ecfdf5" stroke="#047857" stroke-width="1.5"/><text x="182" y="1097" text-anchor="middle" font-family="monospace" font-size="12" fill="#0f172a">Write primary table</text><metadata data-activity-kind="ForkAgain" data-activity-lane="Load" data-activity-branch="1"/><metadata data-activity-kind="Action" data-activity-lane="Load" data-activity-branch="1"/><rect x="370" y="1074" width="220" height="36" rx="18" ry="18" fill="#ecfdf5" stroke="#047857" stroke-width="1.5"/><text x="480" y="1097" text-anchor="middle" font-family="monospace" font-size="12" fill="#0f172a">Update search index</text><metadata data-activity-kind="ForkAgain" data-activity-lane="Load" data-activity-branch="2"/><metadata data-activity-kind="Action" data-activity-lane="Load" data-activity-branch="2"/><rect x="668" y="1074" width="220" height="36" rx="18" ry="18" fill="#ecfdf5" stroke="#047857" stroke-width="1.5"/><text x="778" y="1097" text-anchor="middle" font-family="monospace" font-size="12" fill="#0f172a">Publish CDC events</text><metadata data-activity-kind="EndFork" data-activity-lane="Load" data-activity-branch="0"/><rect x="83" y="1154" width="794" height="8" fill="#0f172a"/><metadata data-activity-kind="Action" data-activity-lane="Load" data-activity-branch="0"/><rect x="370" y="1194" width="220" height="36" rx="18" ry="18" fill="#ecfdf5" stroke="#047857" stroke-width="1.5"/><text x="480" y="1217" text-anchor="middle" font-family="monospace" font-size="12" fill="#0f172a">Commit transaction</text><line x1="480" y1="1172" x2="480" y2="1190" stroke="#0f172a" stroke-width="1.5"/><polygon points="480,1190 476,1182 484,1182" fill="#0f172a"/><metadata data-activity-kind="Action" data-activity-lane="Load" data-activity-branch="0"/><rect x="370" y="1254" width="220" height="36" rx="18" ry="18" fill="#ecfdf5" stroke="#047857" stroke-width="1.5"/><text x="480" y="1277" text-anchor="middle" font-family="monospace" font-size="12" fill="#0f172a">Close destination</text><line x1="480" y1="1232" x2="480" y2="1250" stroke="#0f172a" stroke-width="1.5"/><polygon points="480,1250 476,1242 484,1242" fill="#0f172a"/><metadata data-activity-kind="PartitionEnd" data-activity-lane="default" data-activity-branch="0"/><metadata data-activity-kind="Action" data-activity-lane="default" data-activity-branch="0"/><rect x="370" y="1338" width="220" height="36" rx="18" ry="18" fill="#ecfdf5" stroke="#047857" stroke-width="1.5"/><text x="480" y="1361" text-anchor="middle" font-family="monospace" font-size="12" fill="#0f172a">Log job metrics</text><line x1="480" y1="1292" x2="480" y2="1334" stroke="#0f172a" stroke-width="1.5"/><polygon points="480,1334 476,1326 484,1326" fill="#0f172a"/><metadata data-activity-kind="Stop" data-activity-lane="default" data-activity-branch="0"/><circle cx="480" cy="1414" r="14" fill="white" stroke="#0f172a" stroke-width="1.5"/><circle cx="480" cy="1414" r="7" fill="#0f172a"/><line x1="480" y1="1376" x2="480" y2="1394" stroke="#0f172a" stroke-width="1.5"/><polygon points="480,1394 476,1386 484,1386" fill="#0f172a"/><line x1="182" y1="1112" x2="182" y2="1154" stroke="#0f172a" stroke-width="1.5"/><polygon points="182,1154 178,1146 186,1146" fill="#0f172a"/><line x1="480" y1="1112" x2="480" y2="1154" stroke="#0f172a" stroke-width="1.5"/><polygon points="480,1154 476,1146 484,1146" fill="#0f172a"/><line x1="778" y1="1112" x2="778" y2="1154" stroke="#0f172a" stroke-width="1.5"/><polygon points="778,1154 774,1146 782,1146" fill="#0f172a"/><line x1="182" y1="1042" x2="182" y2="1070" stroke="#0f172a" stroke-width="1.5"/><polygon points="182,1070 178,1062 186,1062" fill="#0f172a"/><line x1="480" y1="1042" x2="480" y2="1070" stroke="#0f172a" stroke-width="1.5"/><polygon points="480,1070 476,1062 484,1062" fill="#0f172a"/><line x1="778" y1="1042" x2="778" y2="1070" stroke="#0f172a" stroke-width="1.5"/><polygon points="778,1070 774,1062 782,1062" fill="#0f172a"/></svg>