<svg xmlns="http://www.w3.org/2000/svg" width="554" height="1158" viewBox="0 0 554 1158"><rect width="100%" height="100%" fill="#ecfdf5"/><text x="32" y="22" font-family="monospace" font-size="16" font-weight="600" fill="#0f172a">Repeat-while inside partition — batch ETL job</text><rect x="16" y="146" width="440" height="240" fill="#ecfdf5" stroke="#cbd5e1" stroke-width="1" stroke-dasharray="4 3"/><rect x="16" y="122" width="440" height="24" fill="#e2e8f0" stroke="#94a3b8" stroke-width="1"/><text x="236" y="138" text-anchor="middle" font-family="monospace" font-size="11" font-weight="600" fill="#0f172a">Extract</text><rect x="16" y="422" width="440" height="240" fill="#f1f5f9" stroke="#cbd5e1" stroke-width="1" stroke-dasharray="4 3"/><rect x="16" y="398" width="440" height="24" fill="#dde5ef" stroke="#94a3b8" stroke-width="1"/><text x="236" y="414" text-anchor="middle" font-family="monospace" font-size="11" font-weight="600" fill="#0f172a">Transform</text><rect x="0" y="742" width="456" height="284" fill="#ecfdf5" stroke="#cbd5e1" stroke-width="1" stroke-dasharray="4 3"/><rect x="0" y="718" width="456" height="24" fill="#e2e8f0" stroke="#94a3b8" stroke-width="1"/><text x="228" y="734" text-anchor="middle" font-family="monospace" font-size="11" font-weight="600" fill="#0f172a">Load</text><metadata data-activity-kind="Start" data-activity-lane="default" data-activity-branch="0"/><circle cx="236" cy="90" r="12" fill="#0f172a"/><metadata data-activity-kind="PartitionStart" data-activity-lane="Extract" data-activity-branch="0"/><metadata data-activity-kind="Action" data-activity-lane="Extract" data-activity-branch="0"/><rect x="156" y="150" width="160" height="36" rx="18" ry="18" fill="#ecfdf5" stroke="#047857" stroke-width="1.5"/><text x="236" y="173" text-anchor="middle" font-family="monospace" font-size="12" fill="#0f172a">Open data source</text><line x1="236" y1="112" x2="236" y2="146" stroke="#0f172a" stroke-width="1.5"/><polygon points="236,146 232,138 240,138" fill="#0f172a"/><metadata data-activity-kind="RepeatStart" data-activity-lane="Extract" data-activity-branch="0"/><path d="M 236 320 L 246 320 Q 328 320 328 310" fill="none" stroke="#0f172a" stroke-width="1.5"/><line x1="328" y1="310" x2="328" y2="200" stroke="#0f172a" stroke-width="1.5"/><path d="M 328 200 Q 328 190 246 190 L 236 190" fill="none" stroke="#0f172a" stroke-width="1.5"/><polygon points="236,190 232,198 240,198" fill="#0f172a"/><text x="334" y="255" font-family="monospace" font-size="10" fill="#0f172a">yes / no</text><metadata data-activity-kind="Action" data-activity-lane="Extract" data-activity-branch="0"/><rect x="156" y="194" width="160" height="36" rx="18" ry="18" fill="#ecfdf5" stroke="#047857" stroke-width="1.5"/><text x="236" y="217" text-anchor="middle" font-family="monospace" font-size="12" fill="#0f172a">Fetch batch (1000 rows)</text><line x1="236" y1="188" x2="236" y2="190" stroke="#0f172a" stroke-width="1.5"/><polygon points="236,190 232,182 240,182" fill="#0f172a"/><path d="M 236 320 L 246 320 Q 328 320 328 310" fill="none" stroke="#0f172a" stroke-width="1.5"/><line x1="328" y1="310" x2="328" y2="200" stroke="#0f172a" stroke-width="1.5"/><path d="M 328 200 Q 328 190 246 190 L 236 190" fill="none" stroke="#0f172a" stroke-width="1.5"/><polygon points="236,190 232,198 240,198" fill="#0f172a"/><text x="334" y="255" font-family="monospace" font-size="10" fill="#0f172a">yes / no</text><metadata data-activity-kind="Action" data-activity-lane="Extract" data-activity-branch="0"/><rect x="156" y="238" width="160" height="36" rx="18" ry="18" fill="#ecfdf5" stroke="#047857" stroke-width="1.5"/><text x="236" y="261" text-anchor="middle" font-family="monospace" font-size="12" fill="#0f172a">Validate schema</text><line x1="236" y1="232" x2="236" y2="234" stroke="#0f172a" stroke-width="1.5"/><polygon points="236,234 232,226 240,226" fill="#0f172a"/><metadata data-activity-kind="RepeatWhile" data-activity-lane="Extract" data-activity-branch="0"/><polygon points="236,280 336,302 236,324 136,302" fill="#fef9c3" stroke="#047857" stroke-width="1.5"/><text x="236" y="306" text-anchor="middle" font-family="monospace" font-size="11" fill="#0f172a">more rows?</text><line x1="236" y1="276" x2="236" y2="278" stroke="#0f172a" stroke-width="1.5"/><polygon points="236,278 232,270 240,270" fill="#0f172a"/><metadata data-activity-kind="Action" data-activity-lane="Extract" data-activity-branch="0"/><rect x="156" y="326" width="160" height="36" rx="18" ry="18" fill="#ecfdf5" stroke="#047857" stroke-width="1.5"/><text x="236" y="349" text-anchor="middle" font-family="monospace" font-size="12" fill="#0f172a">Close source connection</text><line x1="236" y1="320" x2="236" y2="322" stroke="#0f172a" stroke-width="1.5"/><polygon points="236,322 232,314 240,314" fill="#0f172a"/><metadata data-activity-kind="PartitionEnd" data-activity-lane="default" data-activity-branch="0"/><metadata data-activity-kind="PartitionStart" data-activity-lane="Transform" data-activity-branch="0"/><metadata data-activity-kind="Action" data-activity-lane="Transform" data-activity-branch="0"/><rect x="156" y="426" width="160" height="36" rx="18" ry="18" fill="#ecfdf5" stroke="#047857" stroke-width="1.5"/><text x="236" y="449" text-anchor="middle" font-family="monospace" font-size="12" fill="#0f172a">Normalize timestamps</text><line x1="236" y1="364" x2="236" y2="422" stroke="#0f172a" stroke-width="1.5"/><polygon points="236,422 232,414 240,414" fill="#0f172a"/><metadata data-activity-kind="Action" data-activity-lane="Transform" data-activity-branch="0"/><rect x="156" y="470" width="160" height="36" rx="18" ry="18" fill="#ecfdf5" stroke="#047857" stroke-width="1.5"/><text x="236" y="493" text-anchor="middle" font-family="monospace" font-size="12" fill="#0f172a">Deduplicate records</text><line x1="236" y1="464" x2="236" y2="466" stroke="#0f172a" stroke-width="1.5"/><polygon points="236,466 232,458 240,458" fill="#0f172a"/><metadata data-activity-kind="WhileStart" data-activity-lane="Transform" data-activity-branch="0"/><polygon points="236,512 336,534 236,556 136,534" fill="#fef9c3" stroke="#047857" stroke-width="1.5"/><text x="236" y="538" text-anchor="middle" font-family="monospace" font-size="11" fill="#0f172a">records in queue?</text><line x1="236" y1="508" x2="236" y2="510" stroke="#0f172a" stroke-width="1.5"/><polygon points="236,510 232,502 240,502" fill="#0f172a"/><path d="M 236 640 L 246 640 Q 328 640 328 630" fill="none" stroke="#0f172a" stroke-width="1.5"/><line x1="328" y1="630" x2="328" y2="520" stroke="#0f172a" stroke-width="1.5"/><path d="M 328 520 Q 328 510 246 510 L 236 510" fill="none" stroke="#0f172a" stroke-width="1.5"/><polygon points="236,510 232,518 240,518" fill="#0f172a"/><text x="334" y="575" font-family="monospace" font-size="10" fill="#0f172a">yes</text><metadata data-activity-kind="Action" data-activity-lane="Transform" data-activity-branch="0"/><rect x="156" y="558" width="160" height="36" rx="18" ry="18" fill="#ecfdf5" stroke="#047857" stroke-width="1.5"/><text x="236" y="581" text-anchor="middle" font-family="monospace" font-size="12" fill="#0f172a">Apply transformation rules</text><line x1="236" y1="552" x2="236" y2="554" stroke="#0f172a" stroke-width="1.5"/><polygon points="236,554 232,546 240,546" fill="#0f172a"/><metadata data-activity-kind="Action" data-activity-lane="Transform" data-activity-branch="0"/><rect x="156" y="602" width="160" height="36" rx="18" ry="18" fill="#ecfdf5" stroke="#047857" stroke-width="1.5"/><text x="236" y="625" text-anchor="middle" font-family="monospace" font-size="12" fill="#0f172a">Emit to output queue</text><line x1="236" y1="596" x2="236" y2="598" stroke="#0f172a" stroke-width="1.5"/><polygon points="236,598 232,590 240,590" fill="#0f172a"/><metadata data-activity-kind="EndWhile" data-activity-lane="Transform" data-activity-branch="0"/><metadata data-activity-kind="PartitionEnd" data-activity-lane="default" data-activity-branch="0"/><metadata data-activity-kind="PartitionStart" data-activity-lane="Load" data-activity-branch="0"/><metadata data-activity-kind="Action" data-activity-lane="Load" data-activity-branch="0"/><rect x="156" y="746" width="160" height="36" rx="18" ry="18" fill="#ecfdf5" stroke="#047857" stroke-width="1.5"/><text x="236" y="769" text-anchor="middle" font-family="monospace" font-size="12" fill="#0f172a">Open destination</text><line x1="236" y1="684" x2="236" y2="742" stroke="#0f172a" stroke-width="1.5"/><polygon points="236,742 232,734 240,734" fill="#0f172a"/><line x1="336" y1="534" x2="336" y2="638" stroke="#0f172a" stroke-width="1.5"/><line x1="336" y1="638" x2="236" y2="638" stroke="#0f172a" stroke-width="1.5"/><line x1="236" y1="638" x2="236" y2="742" stroke="#0f172a" stroke-width="1.5"/><polygon points="236,742 232,734 240,734" fill="#0f172a"/><text x="290" y="634" font-family="monospace" font-size="10" fill="#0f172a">no</text><metadata data-activity-kind="Fork" data-activity-lane="Load" data-activity-branch="0"/><rect x="-9" y="810" width="490" height="8" fill="#0f172a"/><line x1="236" y1="784" x2="236" y2="786" stroke="#0f172a" stroke-width="1.5"/><polygon points="236,786 232,778 240,778" fill="#0f172a"/><metadata data-activity-kind="Action" data-activity-lane="Load" data-activity-branch="0"/><rect x="-28" y="834" width="160" height="36" rx="18" ry="18" fill="#ecfdf5" stroke="#047857" stroke-width="1.5"/><text x="52" y="857" text-anchor="middle" font-family="monospace" font-size="12" fill="#0f172a">Write primary table</text><metadata data-activity-kind="ForkAgain" data-activity-lane="Load" data-activity-branch="1"/><metadata data-activity-kind="Action" data-activity-lane="Load" data-activity-branch="1"/><rect x="156" y="834" width="160" height="36" rx="18" ry="18" fill="#ecfdf5" stroke="#047857" stroke-width="1.5"/><text x="236" y="857" text-anchor="middle" font-family="monospace" font-size="12" fill="#0f172a">Update search index</text><metadata data-activity-kind="ForkAgain" data-activity-lane="Load" data-activity-branch="2"/><metadata data-activity-kind="Action" data-activity-lane="Load" data-activity-branch="2"/><rect x="340" y="834" width="160" height="36" rx="18" ry="18" fill="#ecfdf5" stroke="#047857" stroke-width="1.5"/><text x="420" y="857" text-anchor="middle" font-family="monospace" font-size="12" fill="#0f172a">Publish CDC events</text><metadata data-activity-kind="EndFork" data-activity-lane="Load" data-activity-branch="0"/><rect x="-9" y="898" width="490" height="8" fill="#0f172a"/><metadata data-activity-kind="Action" data-activity-lane="Load" data-activity-branch="0"/><rect x="156" y="922" width="160" height="36" rx="18" ry="18" fill="#ecfdf5" stroke="#047857" stroke-width="1.5"/><text x="236" y="945" text-anchor="middle" font-family="monospace" font-size="12" fill="#0f172a">Commit transaction</text><line x1="236" y1="916" x2="236" y2="918" stroke="#0f172a" stroke-width="1.5"/><polygon points="236,918 232,910 240,910" fill="#0f172a"/><metadata data-activity-kind="Action" data-activity-lane="Load" data-activity-branch="0"/><rect x="156" y="966" width="160" height="36" rx="18" ry="18" fill="#ecfdf5" stroke="#047857" stroke-width="1.5"/><text x="236" y="989" text-anchor="middle" font-family="monospace" font-size="12" fill="#0f172a">Close destination</text><line x1="236" y1="960" x2="236" y2="962" stroke="#0f172a" stroke-width="1.5"/><polygon points="236,962 232,954 240,954" fill="#0f172a"/><metadata data-activity-kind="PartitionEnd" data-activity-lane="default" data-activity-branch="0"/><metadata data-activity-kind="Action" data-activity-lane="default" data-activity-branch="0"/><rect x="156" y="1034" width="160" height="36" rx="18" ry="18" fill="#ecfdf5" stroke="#047857" stroke-width="1.5"/><text x="236" y="1057" text-anchor="middle" font-family="monospace" font-size="12" fill="#0f172a">Log job metrics</text><line x1="236" y1="1004" x2="236" y2="1030" stroke="#0f172a" stroke-width="1.5"/><polygon points="236,1030 232,1022 240,1022" fill="#0f172a"/><metadata data-activity-kind="Stop" data-activity-lane="default" data-activity-branch="0"/><circle cx="236" cy="1094" r="14" fill="white" stroke="#0f172a" stroke-width="1.5"/><circle cx="236" cy="1094" r="7" fill="#0f172a"/><line x1="236" y1="1072" x2="236" y2="1074" stroke="#0f172a" stroke-width="1.5"/><polygon points="236,1074 232,1066 240,1066" fill="#0f172a"/><line x1="52" y1="872" x2="52" y2="898" stroke="#0f172a" stroke-width="1.5"/><polygon points="52,898 48,890 56,890" fill="#0f172a"/><line x1="236" y1="872" x2="236" y2="898" stroke="#0f172a" stroke-width="1.5"/><polygon points="236,898 232,890 240,890" fill="#0f172a"/><line x1="420" y1="872" x2="420" y2="898" stroke="#0f172a" stroke-width="1.5"/><polygon points="420,898 416,890 424,890" fill="#0f172a"/><line x1="52" y1="818" x2="52" y2="830" stroke="#0f172a" stroke-width="1.5"/><polygon points="52,830 48,822 56,822" fill="#0f172a"/><line x1="236" y1="818" x2="236" y2="830" stroke="#0f172a" stroke-width="1.5"/><polygon points="236,830 232,822 240,822" fill="#0f172a"/><line x1="420" y1="818" x2="420" y2="830" stroke="#0f172a" stroke-width="1.5"/><polygon points="420,830 416,822 424,822" fill="#0f172a"/></svg>