<svg xmlns="http://www.w3.org/2000/svg" width="960" height="1346" viewBox="0 0 960 1346"><rect width="100%" height="100%" fill="#ecfdf5"/><text x="32" y="28" font-family="monospace" font-size="18" font-weight="600" fill="#0f172a">Repeat-while inside partition — batch ETL job</text><text x="32" y="52" font-family="monospace" font-size="12" fill="#0f172a">activity diagram</text><rect x="32" y="86" width="298" height="1240" fill="#ecfdf5" stroke="#cbd5e1" stroke-width="1" stroke-dasharray="4 3"/><rect x="32" y="62" width="298" height="24" fill="#e2e8f0" stroke="#94a3b8" stroke-width="1"/><text x="181" y="78" text-anchor="middle" font-family="monospace" font-size="11" font-weight="600" fill="#0f172a">Extract</text><rect x="330" y="86" width="298" height="1240" fill="#f1f5f9" stroke="#cbd5e1" stroke-width="1" stroke-dasharray="4 3"/><rect x="330" y="62" width="298" height="24" fill="#dde5ef" stroke="#94a3b8" stroke-width="1"/><text x="479" y="78" text-anchor="middle" font-family="monospace" font-size="11" font-weight="600" fill="#0f172a">Transform</text><rect x="628" y="86" width="298" height="1240" fill="#ecfdf5" stroke="#cbd5e1" stroke-width="1" stroke-dasharray="4 3"/><rect x="628" y="62" width="298" height="24" fill="#e2e8f0" stroke="#94a3b8" stroke-width="1"/><text x="777" y="78" text-anchor="middle" font-family="monospace" font-size="11" font-weight="600" fill="#0f172a">Load</text><metadata data-activity-kind="Start" data-activity-lane="default" data-activity-branch="0"/><circle cx="181" cy="106" r="12" fill="#0f172a"/><metadata data-activity-kind="PartitionStart" data-activity-lane="Extract" data-activity-branch="0"/><metadata data-activity-kind="Action" data-activity-lane="Extract" data-activity-branch="0"/><rect x="71" y="150" width="220" height="36" rx="18" ry="18" fill="#ecfdf5" stroke="#047857" stroke-width="1.5"/><text x="181" y="173" text-anchor="middle" font-family="monospace" font-size="12" fill="#0f172a">Open data source</text><line x1="181" y1="128" x2="181" y2="146" stroke="#0f172a" stroke-width="1.5"/><polygon points="181,146 177,138 185,138" fill="#0f172a"/><metadata data-activity-kind="RepeatStart" data-activity-lane="Extract" data-activity-branch="0"/><line x1="181" y1="368" x2="303" y2="368" stroke="#0f172a" stroke-width="1.5"/><line x1="303" y1="368" x2="303" y2="206" stroke="#0f172a" stroke-width="1.5"/><line x1="303" y1="206" x2="181" y2="206" stroke="#0f172a" stroke-width="1.5"/><polygon points="181,206 177,214 185,214" fill="#0f172a"/><metadata data-activity-kind="Action" data-activity-lane="Extract" data-activity-branch="0"/><rect x="71" y="210" width="220" height="36" rx="18" ry="18" fill="#ecfdf5" stroke="#047857" stroke-width="1.5"/><text x="181" y="233" text-anchor="middle" font-family="monospace" font-size="12" fill="#0f172a">Fetch batch (1000 rows)</text><line x1="181" y1="188" x2="181" y2="206" stroke="#0f172a" stroke-width="1.5"/><polygon points="181,206 177,198 185,198" fill="#0f172a"/><line x1="181" y1="368" x2="303" y2="368" stroke="#0f172a" stroke-width="1.5"/><line x1="303" y1="368" x2="303" y2="206" stroke="#0f172a" stroke-width="1.5"/><line x1="303" y1="206" x2="181" y2="206" stroke="#0f172a" stroke-width="1.5"/><polygon points="181,206 177,214 185,214" fill="#0f172a"/><metadata data-activity-kind="Action" data-activity-lane="Extract" data-activity-branch="0"/><rect x="71" y="270" width="220" height="36" rx="18" ry="18" fill="#ecfdf5" stroke="#047857" stroke-width="1.5"/><text x="181" y="293" text-anchor="middle" font-family="monospace" font-size="12" fill="#0f172a">Validate schema</text><line x1="181" y1="248" x2="181" y2="266" stroke="#0f172a" stroke-width="1.5"/><polygon points="181,266 177,258 185,258" fill="#0f172a"/><metadata data-activity-kind="RepeatWhile" data-activity-lane="Extract" data-activity-branch="0"/><polygon points="181,328 281,350 181,372 81,350" fill="#fef9c3" stroke="#047857" stroke-width="1.5"/><text x="181" y="354" text-anchor="middle" font-family="monospace" font-size="11" fill="#0f172a">more rows?</text><line x1="181" y1="308" x2="181" y2="326" stroke="#0f172a" stroke-width="1.5"/><polygon points="181,326 177,318 185,318" fill="#0f172a"/><metadata data-activity-kind="Action" data-activity-lane="Extract" data-activity-branch="0"/><rect x="71" y="390" width="220" height="36" rx="18" ry="18" fill="#ecfdf5" stroke="#047857" stroke-width="1.5"/><text x="181" y="413" text-anchor="middle" font-family="monospace" font-size="12" fill="#0f172a">Close source connection</text><line x1="181" y1="368" x2="181" y2="386" stroke="#0f172a" stroke-width="1.5"/><polygon points="181,386 177,378 185,378" fill="#0f172a"/><metadata data-activity-kind="PartitionEnd" data-activity-lane="default" data-activity-branch="0"/><metadata data-activity-kind="PartitionStart" data-activity-lane="Transform" data-activity-branch="0"/><metadata data-activity-kind="Action" data-activity-lane="Transform" data-activity-branch="0"/><rect x="369" y="450" width="220" height="36" rx="18" ry="18" fill="#ecfdf5" stroke="#047857" stroke-width="1.5"/><text x="479" y="473" text-anchor="middle" font-family="monospace" font-size="12" fill="#0f172a">Normalize timestamps</text><line x1="181" y1="428" x2="181" y2="437" stroke="#0f172a" stroke-width="1.5"/><line x1="181" y1="437" x2="479" y2="437" stroke="#0f172a" stroke-width="1.5"/><line x1="479" y1="437" x2="479" y2="446" stroke="#0f172a" stroke-width="1.5"/><polygon points="479,446 475,438 483,438" fill="#0f172a"/><metadata data-activity-kind="Action" data-activity-lane="Transform" data-activity-branch="0"/><rect x="369" y="510" width="220" height="36" rx="18" ry="18" fill="#ecfdf5" stroke="#047857" stroke-width="1.5"/><text x="479" y="533" text-anchor="middle" font-family="monospace" font-size="12" fill="#0f172a">Deduplicate records</text><line x1="479" y1="488" x2="479" y2="506" stroke="#0f172a" stroke-width="1.5"/><polygon points="479,506 475,498 483,498" fill="#0f172a"/><metadata data-activity-kind="WhileStart" data-activity-lane="Transform" data-activity-branch="0"/><polygon points="479,568 579,590 479,612 379,590" fill="#fef9c3" stroke="#047857" stroke-width="1.5"/><text x="479" y="594" text-anchor="middle" font-family="monospace" font-size="11" fill="#0f172a">records in queue?</text><line x1="479" y1="548" x2="479" y2="566" stroke="#0f172a" stroke-width="1.5"/><polygon points="479,566 475,558 483,558" fill="#0f172a"/><metadata data-activity-kind="Action" data-activity-lane="Transform" data-activity-branch="0"/><rect x="369" y="630" width="220" height="36" rx="18" ry="18" fill="#ecfdf5" stroke="#047857" stroke-width="1.5"/><text x="479" y="653" text-anchor="middle" font-family="monospace" font-size="12" fill="#0f172a">Apply transformation rules</text><line x1="479" y1="608" x2="479" y2="626" stroke="#0f172a" stroke-width="1.5"/><polygon points="479,626 475,618 483,618" fill="#0f172a"/><metadata data-activity-kind="Action" data-activity-lane="Transform" data-activity-branch="0"/><rect x="369" y="690" width="220" height="36" rx="18" ry="18" fill="#ecfdf5" stroke="#047857" stroke-width="1.5"/><text x="479" y="713" text-anchor="middle" font-family="monospace" font-size="12" fill="#0f172a">Emit to output queue</text><line x1="479" y1="668" x2="479" y2="686" stroke="#0f172a" stroke-width="1.5"/><polygon points="479,686 475,678 483,678" fill="#0f172a"/><metadata data-activity-kind="OldStyle" data-activity-lane="Transform" data-activity-branch="0"/><rect x="369" y="750" width="220" height="36" rx="18" ry="18" fill="#ecfdf5" stroke="#047857" stroke-width="1.5"/><text x="479" y="773" text-anchor="middle" font-family="monospace" font-size="12" fill="#0f172a">endwhile (no)</text><line x1="479" y1="728" x2="479" y2="746" stroke="#0f172a" stroke-width="1.5"/><polygon points="479,746 475,738 483,738" fill="#0f172a"/><metadata data-activity-kind="PartitionEnd" data-activity-lane="default" data-activity-branch="0"/><metadata data-activity-kind="PartitionStart" data-activity-lane="Load" data-activity-branch="0"/><metadata data-activity-kind="Action" data-activity-lane="Load" data-activity-branch="0"/><rect x="667" y="810" width="220" height="36" rx="18" ry="18" fill="#ecfdf5" stroke="#047857" stroke-width="1.5"/><text x="777" y="833" text-anchor="middle" font-family="monospace" font-size="12" fill="#0f172a">Open destination</text><line x1="479" y1="788" x2="479" y2="797" stroke="#0f172a" stroke-width="1.5"/><line x1="479" y1="797" x2="777" y2="797" stroke="#0f172a" stroke-width="1.5"/><line x1="777" y1="797" x2="777" y2="806" stroke="#0f172a" stroke-width="1.5"/><polygon points="777,806 773,798 781,798" fill="#0f172a"/><metadata data-activity-kind="Fork" data-activity-lane="Load" data-activity-branch="0"/><rect x="597" y="890" width="360" height="8" fill="#0f172a"/><line x1="777" y1="848" x2="777" y2="866" stroke="#0f172a" stroke-width="1.5"/><polygon points="777,866 773,858 781,858" fill="#0f172a"/><metadata data-activity-kind="Action" data-activity-lane="Load" data-activity-branch="0"/><rect x="547" y="930" width="220" height="36" rx="18" ry="18" fill="#ecfdf5" stroke="#047857" stroke-width="1.5"/><text x="657" y="953" text-anchor="middle" font-family="monospace" font-size="12" fill="#0f172a">Write primary table</text><metadata data-activity-kind="ForkAgain" data-activity-lane="Load" data-activity-branch="1"/><metadata data-activity-kind="Action" data-activity-lane="Load" data-activity-branch="1"/><rect x="667" y="930" width="220" height="36" rx="18" ry="18" fill="#ecfdf5" stroke="#047857" stroke-width="1.5"/><text x="777" y="953" text-anchor="middle" font-family="monospace" font-size="12" fill="#0f172a">Update search index</text><metadata data-activity-kind="ForkAgain" data-activity-lane="Load" data-activity-branch="2"/><metadata data-activity-kind="Action" data-activity-lane="Load" data-activity-branch="2"/><rect x="787" y="930" width="220" height="36" rx="18" ry="18" fill="#ecfdf5" stroke="#047857" stroke-width="1.5"/><text x="897" y="953" text-anchor="middle" font-family="monospace" font-size="12" fill="#0f172a">Publish CDC events</text><metadata data-activity-kind="EndFork" data-activity-lane="Load" data-activity-branch="0"/><rect x="597" y="1010" width="360" height="8" fill="#0f172a"/><metadata data-activity-kind="Action" data-activity-lane="Load" data-activity-branch="0"/><rect x="667" y="1050" width="220" height="36" rx="18" ry="18" fill="#ecfdf5" stroke="#047857" stroke-width="1.5"/><text x="777" y="1073" text-anchor="middle" font-family="monospace" font-size="12" fill="#0f172a">Commit transaction</text><line x1="777" y1="1028" x2="777" y2="1046" stroke="#0f172a" stroke-width="1.5"/><polygon points="777,1046 773,1038 781,1038" fill="#0f172a"/><metadata data-activity-kind="Action" data-activity-lane="Load" data-activity-branch="0"/><rect x="667" y="1110" width="220" height="36" rx="18" ry="18" fill="#ecfdf5" stroke="#047857" stroke-width="1.5"/><text x="777" y="1133" text-anchor="middle" font-family="monospace" font-size="12" fill="#0f172a">Close destination</text><line x1="777" y1="1088" x2="777" y2="1106" stroke="#0f172a" stroke-width="1.5"/><polygon points="777,1106 773,1098 781,1098" fill="#0f172a"/><metadata data-activity-kind="PartitionEnd" data-activity-lane="default" data-activity-branch="0"/><metadata data-activity-kind="Action" data-activity-lane="default" data-activity-branch="0"/><rect x="71" y="1170" width="220" height="36" rx="18" ry="18" fill="#ecfdf5" stroke="#047857" stroke-width="1.5"/><text x="181" y="1193" text-anchor="middle" font-family="monospace" font-size="12" fill="#0f172a">Log job metrics</text><line x1="777" y1="1148" x2="777" y2="1157" stroke="#0f172a" stroke-width="1.5"/><line x1="777" y1="1157" x2="181" y2="1157" stroke="#0f172a" stroke-width="1.5"/><line x1="181" y1="1157" x2="181" y2="1166" stroke="#0f172a" stroke-width="1.5"/><polygon points="181,1166 177,1158 185,1158" fill="#0f172a"/><metadata data-activity-kind="Stop" data-activity-lane="default" data-activity-branch="0"/><circle cx="181" cy="1246" r="14" fill="white" stroke="#0f172a" stroke-width="1.5"/><circle cx="181" cy="1246" r="7" fill="#0f172a"/><line x1="181" y1="1208" x2="181" y2="1226" stroke="#0f172a" stroke-width="1.5"/><polygon points="181,1226 177,1218 185,1218" fill="#0f172a"/><line x1="657" y1="968" x2="657" y2="1010" stroke="#0f172a" stroke-width="1.5"/><polygon points="657,1010 653,1002 661,1002" fill="#0f172a"/><line x1="777" y1="968" x2="777" y2="1010" stroke="#0f172a" stroke-width="1.5"/><polygon points="777,1010 773,1002 781,1002" fill="#0f172a"/><line x1="897" y1="968" x2="897" y2="1010" stroke="#0f172a" stroke-width="1.5"/><polygon points="897,1010 893,1002 901,1002" fill="#0f172a"/><line x1="657" y1="898" x2="657" y2="926" stroke="#0f172a" stroke-width="1.5"/><polygon points="657,926 653,918 661,918" fill="#0f172a"/><line x1="777" y1="898" x2="777" y2="926" stroke="#0f172a" stroke-width="1.5"/><polygon points="777,926 773,918 781,918" fill="#0f172a"/><line x1="897" y1="898" x2="897" y2="926" stroke="#0f172a" stroke-width="1.5"/><polygon points="897,926 893,918 901,918" fill="#0f172a"/></svg>