<svg xmlns="http://www.w3.org/2000/svg" width="960" height="1490" viewBox="0 0 960 1490"><rect width="100%" height="100%" fill="#ecfdf5"/><text x="32" y="28" font-family="monospace" font-size="18" font-weight="600" fill="#0f172a">Repeat-while inside partition — batch ETL job</text><text x="32" y="52" font-family="monospace" font-size="12" fill="#0f172a">activity diagram</text><rect x="32" y="170" width="896" height="320" fill="#ecfdf5" stroke="#cbd5e1" stroke-width="1" stroke-dasharray="4 3"/><rect x="32" y="146" width="896" height="24" fill="#e2e8f0" stroke="#94a3b8" stroke-width="1"/><text x="480" y="162" text-anchor="middle" font-family="monospace" font-size="11" font-weight="600" fill="#0f172a">Extract</text><rect x="32" y="518" width="896" height="380" fill="#f1f5f9" stroke="#cbd5e1" stroke-width="1" stroke-dasharray="4 3"/><rect x="32" y="494" width="896" height="24" fill="#dde5ef" stroke="#94a3b8" stroke-width="1"/><text x="480" y="510" text-anchor="middle" font-family="monospace" font-size="11" font-weight="600" fill="#0f172a">Transform</text><rect x="32" y="926" width="896" height="380" fill="#ecfdf5" stroke="#cbd5e1" stroke-width="1" stroke-dasharray="4 3"/><rect x="32" y="902" width="896" height="24" fill="#e2e8f0" stroke="#94a3b8" stroke-width="1"/><text x="480" y="918" text-anchor="middle" font-family="monospace" font-size="11" font-weight="600" fill="#0f172a">Load</text><metadata data-activity-kind="Start" data-activity-lane="default" data-activity-branch="0"/><circle cx="480" cy="106" r="12" fill="#0f172a"/><metadata data-activity-kind="PartitionStart" data-activity-lane="Extract" data-activity-branch="0"/><metadata data-activity-kind="Action" data-activity-lane="Extract" data-activity-branch="0"/><rect x="370" y="174" width="220" height="36" rx="18" ry="18" fill="#ecfdf5" stroke="#047857" stroke-width="1.5"/><text x="480" y="197" text-anchor="middle" font-family="monospace" font-size="12" fill="#0f172a">Open data source</text><line x1="480" y1="128" x2="480" y2="170" stroke="#0f172a" stroke-width="1.5"/><polygon points="480,170 476,162 484,162" fill="#0f172a"/><metadata data-activity-kind="RepeatStart" data-activity-lane="Extract" data-activity-branch="0"/><line x1="480" y1="392" x2="602" y2="392" stroke="#0f172a" stroke-width="1.5"/><line x1="602" y1="392" x2="602" y2="230" stroke="#0f172a" stroke-width="1.5"/><line x1="602" y1="230" x2="480" y2="230" stroke="#0f172a" stroke-width="1.5"/><polygon points="480,230 476,238 484,238" fill="#0f172a"/><text x="608" y="311" font-family="monospace" font-size="10" fill="#0f172a">yes / no</text><metadata data-activity-kind="Action" data-activity-lane="Extract" data-activity-branch="0"/><rect x="370" y="234" width="220" height="36" rx="18" ry="18" fill="#ecfdf5" stroke="#047857" stroke-width="1.5"/><text x="480" y="257" text-anchor="middle" font-family="monospace" font-size="12" fill="#0f172a">Fetch batch (1000 rows)</text><line x1="480" y1="212" x2="480" y2="230" stroke="#0f172a" stroke-width="1.5"/><polygon points="480,230 476,222 484,222" fill="#0f172a"/><line x1="480" y1="392" x2="602" y2="392" stroke="#0f172a" stroke-width="1.5"/><line x1="602" y1="392" x2="602" y2="230" stroke="#0f172a" stroke-width="1.5"/><line x1="602" y1="230" x2="480" y2="230" stroke="#0f172a" stroke-width="1.5"/><polygon points="480,230 476,238 484,238" fill="#0f172a"/><text x="608" y="311" font-family="monospace" font-size="10" fill="#0f172a">yes / no</text><metadata data-activity-kind="Action" data-activity-lane="Extract" data-activity-branch="0"/><rect x="370" y="294" width="220" height="36" rx="18" ry="18" fill="#ecfdf5" stroke="#047857" stroke-width="1.5"/><text x="480" y="317" text-anchor="middle" font-family="monospace" font-size="12" fill="#0f172a">Validate schema</text><line x1="480" y1="272" x2="480" y2="290" stroke="#0f172a" stroke-width="1.5"/><polygon points="480,290 476,282 484,282" fill="#0f172a"/><metadata data-activity-kind="RepeatWhile" data-activity-lane="Extract" data-activity-branch="0"/><polygon points="480,352 580,374 480,396 380,374" fill="#fef9c3" stroke="#047857" stroke-width="1.5"/><text x="480" y="378" text-anchor="middle" font-family="monospace" font-size="11" fill="#0f172a">more rows?</text><line x1="480" y1="332" x2="480" y2="350" stroke="#0f172a" stroke-width="1.5"/><polygon points="480,350 476,342 484,342" fill="#0f172a"/><metadata data-activity-kind="Action" data-activity-lane="Extract" data-activity-branch="0"/><rect x="370" y="414" width="220" height="36" rx="18" ry="18" fill="#ecfdf5" stroke="#047857" stroke-width="1.5"/><text x="480" y="437" text-anchor="middle" font-family="monospace" font-size="12" fill="#0f172a">Close source connection</text><line x1="480" y1="392" x2="480" y2="410" stroke="#0f172a" stroke-width="1.5"/><polygon points="480,410 476,402 484,402" fill="#0f172a"/><metadata data-activity-kind="PartitionEnd" data-activity-lane="default" data-activity-branch="0"/><metadata data-activity-kind="PartitionStart" data-activity-lane="Transform" data-activity-branch="0"/><metadata data-activity-kind="Action" data-activity-lane="Transform" data-activity-branch="0"/><rect x="370" y="522" width="220" height="36" rx="18" ry="18" fill="#ecfdf5" stroke="#047857" stroke-width="1.5"/><text x="480" y="545" text-anchor="middle" font-family="monospace" font-size="12" fill="#0f172a">Normalize timestamps</text><line x1="480" y1="452" x2="480" y2="518" stroke="#0f172a" stroke-width="1.5"/><polygon points="480,518 476,510 484,510" fill="#0f172a"/><metadata data-activity-kind="Action" data-activity-lane="Transform" data-activity-branch="0"/><rect x="370" y="582" width="220" height="36" rx="18" ry="18" fill="#ecfdf5" stroke="#047857" stroke-width="1.5"/><text x="480" y="605" text-anchor="middle" font-family="monospace" font-size="12" fill="#0f172a">Deduplicate records</text><line x1="480" y1="560" x2="480" y2="578" stroke="#0f172a" stroke-width="1.5"/><polygon points="480,578 476,570 484,570" fill="#0f172a"/><metadata data-activity-kind="WhileStart" data-activity-lane="Transform" data-activity-branch="0"/><polygon points="480,640 580,662 480,684 380,662" fill="#fef9c3" stroke="#047857" stroke-width="1.5"/><text x="480" y="666" text-anchor="middle" font-family="monospace" font-size="11" fill="#0f172a">records in queue?</text><line x1="480" y1="620" x2="480" y2="638" stroke="#0f172a" stroke-width="1.5"/><polygon points="480,638 476,630 484,630" fill="#0f172a"/><metadata data-activity-kind="Action" data-activity-lane="Transform" data-activity-branch="0"/><rect x="370" y="702" width="220" height="36" rx="18" ry="18" fill="#ecfdf5" stroke="#047857" stroke-width="1.5"/><text x="480" y="725" text-anchor="middle" font-family="monospace" font-size="12" fill="#0f172a">Apply transformation rules</text><line x1="480" y1="680" x2="480" y2="698" stroke="#0f172a" stroke-width="1.5"/><polygon points="480,698 476,690 484,690" fill="#0f172a"/><metadata data-activity-kind="Action" data-activity-lane="Transform" data-activity-branch="0"/><rect x="370" y="762" width="220" height="36" rx="18" ry="18" fill="#ecfdf5" stroke="#047857" stroke-width="1.5"/><text x="480" y="785" text-anchor="middle" font-family="monospace" font-size="12" fill="#0f172a">Emit to output queue</text><line x1="480" y1="740" x2="480" y2="758" stroke="#0f172a" stroke-width="1.5"/><polygon points="480,758 476,750 484,750" fill="#0f172a"/><metadata data-activity-kind="OldStyle" data-activity-lane="Transform" data-activity-branch="0"/><rect x="370" y="822" width="220" height="36" rx="18" ry="18" fill="#ecfdf5" stroke="#047857" stroke-width="1.5"/><text x="480" y="845" text-anchor="middle" font-family="monospace" font-size="12" fill="#0f172a">endwhile (no)</text><line x1="480" y1="800" x2="480" y2="818" stroke="#0f172a" stroke-width="1.5"/><polygon points="480,818 476,810 484,810" fill="#0f172a"/><metadata data-activity-kind="PartitionEnd" data-activity-lane="default" data-activity-branch="0"/><metadata data-activity-kind="PartitionStart" data-activity-lane="Load" data-activity-branch="0"/><metadata data-activity-kind="Action" data-activity-lane="Load" data-activity-branch="0"/><rect x="370" y="930" width="220" height="36" rx="18" ry="18" fill="#ecfdf5" stroke="#047857" stroke-width="1.5"/><text x="480" y="953" text-anchor="middle" font-family="monospace" font-size="12" fill="#0f172a">Open destination</text><line x1="480" y1="860" x2="480" y2="926" stroke="#0f172a" stroke-width="1.5"/><polygon points="480,926 476,918 484,918" fill="#0f172a"/><metadata data-activity-kind="Fork" data-activity-lane="Load" data-activity-branch="0"/><rect x="33" y="1010" width="894" height="8" fill="#0f172a"/><line x1="480" y1="968" x2="480" y2="986" stroke="#0f172a" stroke-width="1.5"/><polygon points="480,986 476,978 484,978" fill="#0f172a"/><metadata data-activity-kind="Action" data-activity-lane="Load" data-activity-branch="0"/><rect x="72" y="1050" width="220" height="36" rx="18" ry="18" fill="#ecfdf5" stroke="#047857" stroke-width="1.5"/><text x="182" y="1073" text-anchor="middle" font-family="monospace" font-size="12" fill="#0f172a">Write primary table</text><metadata data-activity-kind="ForkAgain" data-activity-lane="Load" data-activity-branch="1"/><metadata data-activity-kind="Action" data-activity-lane="Load" data-activity-branch="1"/><rect x="370" y="1050" width="220" height="36" rx="18" ry="18" fill="#ecfdf5" stroke="#047857" stroke-width="1.5"/><text x="480" y="1073" text-anchor="middle" font-family="monospace" font-size="12" fill="#0f172a">Update search index</text><metadata data-activity-kind="ForkAgain" data-activity-lane="Load" data-activity-branch="2"/><metadata data-activity-kind="Action" data-activity-lane="Load" data-activity-branch="2"/><rect x="668" y="1050" width="220" height="36" rx="18" ry="18" fill="#ecfdf5" stroke="#047857" stroke-width="1.5"/><text x="778" y="1073" text-anchor="middle" font-family="monospace" font-size="12" fill="#0f172a">Publish CDC events</text><metadata data-activity-kind="EndFork" data-activity-lane="Load" data-activity-branch="0"/><rect x="33" y="1130" width="894" height="8" fill="#0f172a"/><metadata data-activity-kind="Action" data-activity-lane="Load" data-activity-branch="0"/><rect x="370" y="1170" width="220" height="36" rx="18" ry="18" fill="#ecfdf5" stroke="#047857" stroke-width="1.5"/><text x="480" y="1193" text-anchor="middle" font-family="monospace" font-size="12" fill="#0f172a">Commit transaction</text><line x1="480" y1="1148" x2="480" y2="1166" stroke="#0f172a" stroke-width="1.5"/><polygon points="480,1166 476,1158 484,1158" fill="#0f172a"/><metadata data-activity-kind="Action" data-activity-lane="Load" data-activity-branch="0"/><rect x="370" y="1230" width="220" height="36" rx="18" ry="18" fill="#ecfdf5" stroke="#047857" stroke-width="1.5"/><text x="480" y="1253" text-anchor="middle" font-family="monospace" font-size="12" fill="#0f172a">Close destination</text><line x1="480" y1="1208" x2="480" y2="1226" stroke="#0f172a" stroke-width="1.5"/><polygon points="480,1226 476,1218 484,1218" fill="#0f172a"/><metadata data-activity-kind="PartitionEnd" data-activity-lane="default" data-activity-branch="0"/><metadata data-activity-kind="Action" data-activity-lane="default" data-activity-branch="0"/><rect x="370" y="1314" width="220" height="36" rx="18" ry="18" fill="#ecfdf5" stroke="#047857" stroke-width="1.5"/><text x="480" y="1337" text-anchor="middle" font-family="monospace" font-size="12" fill="#0f172a">Log job metrics</text><line x1="480" y1="1268" x2="480" y2="1310" stroke="#0f172a" stroke-width="1.5"/><polygon points="480,1310 476,1302 484,1302" fill="#0f172a"/><metadata data-activity-kind="Stop" data-activity-lane="default" data-activity-branch="0"/><circle cx="480" cy="1390" r="14" fill="white" stroke="#0f172a" stroke-width="1.5"/><circle cx="480" cy="1390" r="7" fill="#0f172a"/><line x1="480" y1="1352" x2="480" y2="1370" stroke="#0f172a" stroke-width="1.5"/><polygon points="480,1370 476,1362 484,1362" fill="#0f172a"/><line x1="182" y1="1088" x2="182" y2="1130" stroke="#0f172a" stroke-width="1.5"/><polygon points="182,1130 178,1122 186,1122" fill="#0f172a"/><line x1="480" y1="1088" x2="480" y2="1130" stroke="#0f172a" stroke-width="1.5"/><polygon points="480,1130 476,1122 484,1122" fill="#0f172a"/><line x1="778" y1="1088" x2="778" y2="1130" stroke="#0f172a" stroke-width="1.5"/><polygon points="778,1130 774,1122 782,1122" fill="#0f172a"/><line x1="182" y1="1018" x2="182" y2="1046" stroke="#0f172a" stroke-width="1.5"/><polygon points="182,1046 178,1038 186,1038" fill="#0f172a"/><line x1="480" y1="1018" x2="480" y2="1046" stroke="#0f172a" stroke-width="1.5"/><polygon points="480,1046 476,1038 484,1038" fill="#0f172a"/><line x1="778" y1="1018" x2="778" y2="1046" stroke="#0f172a" stroke-width="1.5"/><polygon points="778,1046 774,1038 782,1038" fill="#0f172a"/></svg>