<svg xmlns="http://www.w3.org/2000/svg" width="448" height="256" viewBox="0 0 448 256"><rect width="448" height="256" fill="#ffffff"/><text x="224.0" y="22" text-anchor="middle" font-family="monospace" font-size="15" font-weight="700" fill="#0f172a">Wire harness controller</text><defs><marker id="wire-arrow" markerWidth="8" markerHeight="8" refX="7" refY="4" orient="auto"><path d="M0,0 L8,4 L0,8 Z" fill="#334155"/></marker></defs><polyline class="wire-link" points="180.0,100.0 225.0,100.0 225.0,106.7 270.0,106.7" fill="none" stroke="#334155" stroke-width="1.5" /><rect x="210.5" y="71.3" width="29" height="16" rx="2" fill="#ffffff" opacity="0.9"/><text x="225.0" y="83.3" text-anchor="middle" font-family="monospace" font-size="11" fill="#334155">24V</text><polyline class="wire-link" points="180.0,130.0 225.0,130.0 225.0,143.3 270.0,143.3" fill="none" stroke="#334155" stroke-width="1.5" marker-end="url(#wire-arrow)" /><rect x="200.0" y="144.7" width="50" height="16" rx="2" fill="#ffffff" opacity="0.9"/><text x="225.0" y="156.7" text-anchor="middle" font-family="monospace" font-size="11" fill="#334155">signal</text><rect class="wire-component" data-wire-id="Panel" x="60.0" y="70.0" width="120.0" height="90.0" rx="4" fill="#f8fafc" stroke="#475569" stroke-width="1.5"/><text x="120.0" y="119.0" text-anchor="middle" font-family="monospace" font-size="12" font-weight="600" fill="#0f172a">Panel</text><circle class="wire-port" data-wire-port="Panel:right:POWER" cx="180.0" cy="100.0" r="4" fill="#ffffff" stroke="#0f766e" stroke-width="1.5"/><text x="188.0" y="104.0" text-anchor="start" font-family="monospace" font-size="10" fill="#0f766e">POWER</text><circle class="wire-port" data-wire-port="Panel:right:DATA" cx="180.0" cy="130.0" r="4" fill="#ffffff" stroke="#0f766e" stroke-width="1.5"/><text x="188.0" y="134.0" text-anchor="start" font-family="monospace" font-size="10" fill="#0f766e">DATA</text><circle class="wire-port" data-wire-port="Panel:bottom:GND" cx="120.0" cy="160.0" r="4" fill="#ffffff" stroke="#0f766e" stroke-width="1.5"/><text x="120.0" y="174.0" text-anchor="middle" font-family="monospace" font-size="10" fill="#0f766e">GND</text><rect class="wire-component" data-wire-id="Controller" x="270.0" y="70.0" width="150.0" height="110.0" rx="4" fill="#f8fafc" stroke="#475569" stroke-width="1.5"/><text x="345.0" y="129.0" text-anchor="middle" font-family="monospace" font-size="12" font-weight="600" fill="#0f172a">Controller</text><circle class="wire-port" data-wire-port="Controller:left:POWER" cx="270.0" cy="106.7" r="4" fill="#ffffff" stroke="#0f766e" stroke-width="1.5"/><circle class="wire-port" data-wire-port="Controller:left:DATA" cx="270.0" cy="143.3" r="4" fill="#ffffff" stroke="#0f766e" stroke-width="1.5"/><circle class="wire-port" data-wire-port="Controller:right:OUT1" cx="420.0" cy="106.7" r="4" fill="#ffffff" stroke="#0f766e" stroke-width="1.5"/><text x="428.0" y="110.7" text-anchor="start" font-family="monospace" font-size="10" fill="#0f766e">OUT1</text><circle class="wire-port" data-wire-port="Controller:right:OUT2" cx="420.0" cy="143.3" r="4" fill="#ffffff" stroke="#0f766e" stroke-width="1.5"/><text x="428.0" y="147.3" text-anchor="start" font-family="monospace" font-size="10" fill="#0f766e">OUT2</text><text x="224.0" y="246.0" text-anchor="middle" font-family="monospace" font-size="11" fill="#64748b">Basic wire component ports</text></svg>