<svg xmlns="http://www.w3.org/2000/svg" width="458" height="354" viewBox="0 0 458 354"><rect width="458" height="354" fill="#ffffff"/><text x="229.0" y="22" text-anchor="middle" font-family="monospace" font-size="15" font-weight="700" fill="#0f172a">Column layout with spacing</text><defs><marker id="wire-arrow" markerWidth="8" markerHeight="8" refX="7" refY="4" orient="auto"><path d="M0,0 L8,4 L0,8 Z" fill="#334155"/></marker></defs><polyline class="wire-link" points="190.0,97.5 235.0,97.5 235.0,100.0 280.0,100.0" fill="none" stroke="#334155" stroke-width="1.5" /><polyline class="wire-link" points="190.0,268.0 235.0,268.0 235.0,190.0 280.0,190.0" fill="none" stroke="#334155" stroke-width="1.5" marker-end="url(#wire-arrow)" /><rect x="213.5" y="237.0" width="43" height="16" rx="2" fill="#ffffff" opacity="0.9"/><text x="235.0" y="249.0" text-anchor="middle" font-family="monospace" font-size="11" fill="#334155">debug</text><rect class="wire-component" data-wire-id="InputBank" x="60.0" y="70.0" width="130.0" height="110.0" rx="4" fill="#f8fafc" stroke="#475569" stroke-width="1.5"/><text x="125.0" y="129.0" text-anchor="middle" font-family="monospace" font-size="12" font-weight="600" fill="#0f172a">InputBank</text><circle class="wire-port" data-wire-port="InputBank:right:I1" cx="190.0" cy="97.5" r="4" fill="#ffffff" stroke="#0f766e" stroke-width="1.5"/><text x="198.0" y="101.5" text-anchor="start" font-family="monospace" font-size="10" fill="#0f766e">I1</text><circle class="wire-port" data-wire-port="InputBank:right:I2" cx="190.0" cy="125.0" r="4" fill="#ffffff" stroke="#0f766e" stroke-width="1.5"/><text x="198.0" y="129.0" text-anchor="start" font-family="monospace" font-size="10" fill="#0f766e">I2</text><circle class="wire-port" data-wire-port="InputBank:right:I3" cx="190.0" cy="152.5" r="4" fill="#ffffff" stroke="#0f766e" stroke-width="1.5"/><text x="198.0" y="156.5" text-anchor="start" font-family="monospace" font-size="10" fill="#0f766e">I3</text><rect class="wire-component" data-wire-id="ServicePort" x="60.0" y="238.0" width="130.0" height="60.0" rx="4" fill="#f8fafc" stroke="#475569" stroke-width="1.5"/><text x="125.0" y="272.0" text-anchor="middle" font-family="monospace" font-size="12" font-weight="600" fill="#0f172a">ServicePort</text><circle class="wire-port" data-wire-port="ServicePort:right:USB" cx="190.0" cy="268.0" r="4" fill="#ffffff" stroke="#0f766e" stroke-width="1.5"/><text x="198.0" y="272.0" text-anchor="start" font-family="monospace" font-size="10" fill="#0f766e">USB</text><rect class="wire-component" data-wire-id="MCU" x="280.0" y="70.0" width="150.0" height="150.0" rx="4" fill="#f8fafc" stroke="#475569" stroke-width="1.5"/><text x="355.0" y="149.0" text-anchor="middle" font-family="monospace" font-size="12" font-weight="600" fill="#0f172a">MCU</text><circle class="wire-port" data-wire-port="MCU:left:I1" cx="280.0" cy="100.0" r="4" fill="#ffffff" stroke="#0f766e" stroke-width="1.5"/><circle class="wire-port" data-wire-port="MCU:left:I2" cx="280.0" cy="130.0" r="4" fill="#ffffff" stroke="#0f766e" stroke-width="1.5"/><text x="272.0" y="134.0" text-anchor="end" font-family="monospace" font-size="10" fill="#0f766e">I2</text><circle class="wire-port" data-wire-port="MCU:left:I3" cx="280.0" cy="160.0" r="4" fill="#ffffff" stroke="#0f766e" stroke-width="1.5"/><text x="272.0" y="164.0" text-anchor="end" font-family="monospace" font-size="10" fill="#0f766e">I3</text><circle class="wire-port" data-wire-port="MCU:left:USB" cx="280.0" cy="190.0" r="4" fill="#ffffff" stroke="#0f766e" stroke-width="1.5"/><circle class="wire-port" data-wire-port="MCU:right:TX" cx="430.0" cy="120.0" r="4" fill="#ffffff" stroke="#0f766e" stroke-width="1.5"/><text x="438.0" y="124.0" text-anchor="start" font-family="monospace" font-size="10" fill="#0f766e">TX</text><circle class="wire-port" data-wire-port="MCU:right:RX" cx="430.0" cy="170.0" r="4" fill="#ffffff" stroke="#0f766e" stroke-width="1.5"/><text x="438.0" y="174.0" text-anchor="start" font-family="monospace" font-size="10" fill="#0f766e">RX</text></svg>