<svg xmlns="http://www.w3.org/2000/svg" width="466" height="246" viewBox="0 0 466 246"><rect width="466" height="246" fill="#ffffff"/><text x="233.0" y="22" text-anchor="middle" font-family="monospace" font-size="15" font-weight="700" fill="#0f172a">Variable-sized switches</text><defs><marker id="wire-arrow" markerWidth="8" markerHeight="8" refX="7" refY="4" orient="auto"><path d="M0,0 L8,4 L0,8 Z" fill="#334155"/></marker></defs><polyline class="wire-link" points="170.0,87.0 220.0,87.0 220.0,100.0 270.0,100.0" fill="none" stroke="#334155" stroke-width="1.5" marker-end="url(#wire-arrow)" /><polyline class="wire-link" points="170.0,173.0 220.0,173.0 220.0,130.0 270.0,130.0" fill="none" stroke="#334155" stroke-width="1.5" marker-end="url(#wire-arrow)" /><text x="270" y="194" font-family="monospace" font-size="11" fill="#475569">Designed with @startwire</text><rect class="wire-component" data-wire-id="Main_Switch" x="60.0" y="70.0" width="110.0" height="34.0" rx="4" fill="#f8fafc" stroke="#475569" stroke-width="1.5"/><text x="115.0" y="91.0" text-anchor="middle" font-family="monospace" font-size="12" font-weight="600" fill="#0f172a">Main_Switch</text><circle class="wire-port" data-wire-port="Main_Switch:right:MAIN" cx="170.0" cy="87.0" r="4" fill="#ffffff" stroke="#0f766e" stroke-width="1.5"/><text x="178.0" y="91.0" text-anchor="start" font-family="monospace" font-size="10" fill="#0f766e">MAIN</text><rect class="wire-component" data-wire-id="Secondary_Switch" x="60.0" y="156.0" width="110.0" height="34.0" rx="4" fill="#f8fafc" stroke="#475569" stroke-width="1.5"/><text x="115.0" y="177.0" text-anchor="middle" font-family="monospace" font-size="12" font-weight="600" fill="#0f172a">Secondary_Switch</text><circle class="wire-port" data-wire-port="Secondary_Switch:right:AUX" cx="170.0" cy="173.0" r="4" fill="#ffffff" stroke="#0f766e" stroke-width="1.5"/><text x="178.0" y="177.0" text-anchor="start" font-family="monospace" font-size="10" fill="#0f766e">AUX</text><rect class="wire-component" data-wire-id="Relay" x="270.0" y="70.0" width="120.0" height="90.0" rx="4" fill="#f8fafc" stroke="#475569" stroke-width="1.5"/><text x="330.0" y="119.0" text-anchor="middle" font-family="monospace" font-size="12" font-weight="600" fill="#0f172a">Relay</text><circle class="wire-port" data-wire-port="Relay:left:MAIN" cx="270.0" cy="100.0" r="4" fill="#ffffff" stroke="#0f766e" stroke-width="1.5"/><text x="262.0" y="104.0" text-anchor="end" font-family="monospace" font-size="10" fill="#0f766e">MAIN</text><circle class="wire-port" data-wire-port="Relay:left:AUX" cx="270.0" cy="130.0" r="4" fill="#ffffff" stroke="#0f766e" stroke-width="1.5"/><text x="262.0" y="134.0" text-anchor="end" font-family="monospace" font-size="10" fill="#0f766e">AUX</text></svg>