<svg xmlns="http://www.w3.org/2000/svg" width="436" height="410" viewBox="0 0 436 410"><rect width="436" height="410" fill="#ffffff"/><text x="218.0" y="22" text-anchor="middle" font-family="monospace" font-size="15" font-weight="700" fill="#0f172a">Manual placement hooks</text><defs><marker id="wire-arrow" markerWidth="8" markerHeight="8" refX="7" refY="4" orient="auto"><path d="M0,0 L8,4 L0,8 Z" fill="#334155"/></marker></defs><polyline class="wire-link" points="160.0,93.3 219.0,93.3 219.0,163.0 278.0,163.0" fill="none" stroke="#334155" stroke-width="1.5" marker-end="url(#wire-arrow)" /><polyline class="wire-link" points="160.0,330.7 219.0,330.7 219.0,203.0 278.0,203.0" fill="none" stroke="#334155" stroke-width="1.5" marker-end="url(#wire-arrow)" /><rect class="wire-component" data-wire-id="SensorA" x="60.0" y="70.0" width="100.0" height="70.0" rx="4" fill="#f8fafc" stroke="#475569" stroke-width="1.5"/><text x="110.0" y="109.0" text-anchor="middle" font-family="monospace" font-size="12" font-weight="600" fill="#0f172a">SensorA</text><circle class="wire-port" data-wire-port="SensorA:right:SDA" cx="160.0" cy="93.3" r="4" fill="#ffffff" stroke="#0f766e" stroke-width="1.5"/><text x="168.0" y="97.3" text-anchor="start" font-family="monospace" font-size="10" fill="#0f766e">SDA</text><circle class="wire-port" data-wire-port="SensorA:right:SCL" cx="160.0" cy="116.7" r="4" fill="#ffffff" stroke="#0f766e" stroke-width="1.5"/><text x="168.0" y="120.7" text-anchor="start" font-family="monospace" font-size="10" fill="#0f766e">SCL</text><rect class="wire-component" data-wire-id="SensorB" x="60.0" y="284.0" width="100.0" height="70.0" rx="4" fill="#f8fafc" stroke="#475569" stroke-width="1.5"/><text x="110.0" y="323.0" text-anchor="middle" font-family="monospace" font-size="12" font-weight="600" fill="#0f172a">SensorB</text><circle class="wire-port" data-wire-port="SensorB:right:SDA" cx="160.0" cy="307.3" r="4" fill="#ffffff" stroke="#0f766e" stroke-width="1.5"/><text x="168.0" y="311.3" text-anchor="start" font-family="monospace" font-size="10" fill="#0f766e">SDA</text><circle class="wire-port" data-wire-port="SensorB:right:SCL" cx="160.0" cy="330.7" r="4" fill="#ffffff" stroke="#0f766e" stroke-width="1.5"/><text x="168.0" y="334.7" text-anchor="start" font-family="monospace" font-size="10" fill="#0f766e">SCL</text><rect class="wire-component" data-wire-id="Hub" x="278.0" y="123.0" width="130.0" height="120.0" rx="4" fill="#f8fafc" stroke="#475569" stroke-width="1.5"/><text x="343.0" y="187.0" text-anchor="middle" font-family="monospace" font-size="12" font-weight="600" fill="#0f172a">Hub</text><circle class="wire-port" data-wire-port="Hub:left:SDA" cx="278.0" cy="163.0" r="4" fill="#ffffff" stroke="#0f766e" stroke-width="1.5"/><circle class="wire-port" data-wire-port="Hub:left:SCL" cx="278.0" cy="203.0" r="4" fill="#ffffff" stroke="#0f766e" stroke-width="1.5"/></svg>