<svg xmlns="http://www.w3.org/2000/svg" width="760" height="178" viewBox="0 0 760 178" data-projection="yaml" data-yaml-node-count="4" data-yaml-max-depth="1"><rect width="100%" height="100%" fill="white"/><defs><marker id="arrow-open" viewBox="0 0 10 10" refX="9" refY="5" markerWidth="10" markerHeight="10" markerUnits="userSpaceOnUse" orient="auto-start-reverse"><path d="M0,0 L10,5 L0,10" fill="none" stroke="#475569" stroke-width="1.5"/></marker><marker id="arrow-triangle" viewBox="0 0 12 12" refX="11" refY="6" markerWidth="12" markerHeight="12" markerUnits="userSpaceOnUse" orient="auto-start-reverse"><polygon points="0,0 12,6 0,12" fill="#ffffff" stroke="#475569" stroke-width="1.5" fill-rule="nonzero"/></marker><marker id="arrow-diamond-filled" viewBox="0 0 14 10" refX="13" refY="5" markerWidth="14" markerHeight="10" markerUnits="userSpaceOnUse" orient="auto-start-reverse"><path d="M0,5 L7,0 L14,5 L7,10 z" fill="#475569" stroke="#475569" stroke-width="1"/></marker><marker id="arrow-diamond-open" viewBox="0 0 14 10" refX="13" refY="5" markerWidth="14" markerHeight="10" markerUnits="userSpaceOnUse" orient="auto-start-reverse"><path d="M0,5 L7,0 L14,5 L7,10 z" fill="#ffffff" stroke="#475569" stroke-width="1"/></marker><marker id="arrow-double-open" viewBox="0 0 16 12" refX="15" refY="6" markerWidth="16" markerHeight="12" markerUnits="userSpaceOnUse" orient="auto-start-reverse"><path d="M0,1 L8,6 L0,11 M7,1 L15,6 L7,11" fill="none" stroke="#475569" stroke-width="1.5" stroke-linejoin="round"/></marker><marker id="arrow-circle-open" viewBox="0 0 12 12" refX="11" refY="6" markerWidth="12" markerHeight="12" markerUnits="userSpaceOnUse" orient="auto-start-reverse"><circle cx="6" cy="6" r="4" fill="#ffffff" stroke="#475569" stroke-width="1.5"/></marker><marker id="arrow-circle-filled" viewBox="0 0 12 12" refX="11" refY="6" markerWidth="12" markerHeight="12" markerUnits="userSpaceOnUse" orient="auto-start-reverse"><circle cx="6" cy="6" r="4" fill="#475569" stroke="#475569" stroke-width="1.5"/></marker><marker id="arrow-triangle-filled" viewBox="0 0 12 12" refX="11" refY="6" markerWidth="12" markerHeight="12" markerUnits="userSpaceOnUse" orient="auto-start-reverse"><polygon points="0,0 12,6 0,12" fill="#475569" stroke="#475569" stroke-width="1.5"/></marker><marker id="arrow-box-filled" viewBox="0 0 12 12" refX="11" refY="6" markerWidth="12" markerHeight="12" markerUnits="userSpaceOnUse" orient="auto-start-reverse"><rect x="2" y="2" width="8" height="8" fill="#475569" stroke="#475569" stroke-width="1.5"/></marker><marker id="arrow-plus" viewBox="0 0 12 12" refX="11" refY="6" markerWidth="12" markerHeight="12" markerUnits="userSpaceOnUse" orient="auto-start-reverse"><path d="M6,1 L6,11 M1,6 L11,6" fill="none" stroke="#475569" stroke-width="1.8" stroke-linecap="round"/></marker><marker id="arrow-slash" viewBox="0 0 12 12" refX="10" refY="6" markerWidth="12" markerHeight="12" markerUnits="userSpaceOnUse" orient="auto-start-reverse"><path d="M3,2 L9,10" fill="none" stroke="#475569" stroke-width="1.8" stroke-linecap="round"/></marker><marker id="arrow-cross" viewBox="0 0 12 12" refX="11" refY="6" markerWidth="12" markerHeight="12" markerUnits="userSpaceOnUse" orient="auto-start-reverse"><path d="M2,2 L10,10 M10,2 L2,10" fill="none" stroke="#475569" stroke-width="1.8" stroke-linecap="round"/></marker><marker id="arrow-bracket-open" viewBox="0 0 12 14" refX="11" refY="7" markerWidth="12" markerHeight="14" markerUnits="userSpaceOnUse" orient="auto-start-reverse"><path d="M10,1 L4,1 L4,13 L10,13" fill="none" stroke="#475569" stroke-width="1.8" stroke-linecap="round" stroke-linejoin="round"/></marker></defs><text x="24" y="28" font-family="monospace" font-size="18" font-weight="600">YAML</text><g class="data-tree-node yaml-node yaml-depth-0" data-projection="yaml" data-yaml-index="0" data-yaml-depth="0" data-yaml-path="/" data-yaml-highlight="false" data-yaml-label="{...}"><rect x="24" y="40" width="712" height="24" fill="#fef9c3" stroke="none"/><line class="data-table-separator" x1="260" y1="40" x2="260" y2="64" stroke="#ca8a04" stroke-width="1" opacity="0.85"/><text x="268" y="60" font-family="monospace" font-size="12" fill="#0f172a">{...}</text></g><g class="data-tree-node yaml-node yaml-depth-1" data-projection="yaml" data-yaml-index="1" data-yaml-depth="1" data-yaml-path="/name" data-yaml-highlight="false" data-yaml-label="name: Alice"><rect x="24" y="64" width="712" height="24" fill="#fef9c3" stroke="none"/><line x1="24" y1="64" x2="736" y2="64" stroke="#ca8a04" stroke-width="1" opacity="0.75"/><line class="data-table-separator" x1="260" y1="64" x2="260" y2="88" stroke="#ca8a04" stroke-width="1" opacity="0.85"/><line x1="36" y1="64" x2="36" y2="80" stroke="#ca8a04" stroke-width="1" stroke-dasharray="2 2"/><line x1="36" y1="80" x2="46" y2="80" stroke="#ca8a04" stroke-width="1" stroke-dasharray="2 2"/><text x="50" y="84" font-family="monospace" font-size="12" fill="#0f172a">name</text><text x="268" y="84" font-family="monospace" font-size="12" fill="#0f172a">Alice</text></g><g class="data-tree-node yaml-node yaml-depth-1" data-projection="yaml" data-yaml-index="2" data-yaml-depth="1" data-yaml-path="/age" data-yaml-highlight="false" data-yaml-label="age: 30"><rect x="24" y="88" width="712" height="24" fill="#fef9c3" stroke="none"/><line x1="24" y1="88" x2="736" y2="88" stroke="#ca8a04" stroke-width="1" opacity="0.75"/><line class="data-table-separator" x1="260" y1="88" x2="260" y2="112" stroke="#ca8a04" stroke-width="1" opacity="0.85"/><line x1="36" y1="88" x2="36" y2="104" stroke="#ca8a04" stroke-width="1" stroke-dasharray="2 2"/><line x1="36" y1="104" x2="46" y2="104" stroke="#ca8a04" stroke-width="1" stroke-dasharray="2 2"/><text x="50" y="108" font-family="monospace" font-size="12" fill="#0f172a">age</text><text x="268" y="108" font-family="monospace" font-size="12" fill="#0f172a">30</text></g><g class="data-tree-node yaml-node yaml-depth-1" data-projection="yaml" data-yaml-index="3" data-yaml-depth="1" data-yaml-path="/active" data-yaml-highlight="false" data-yaml-label="active: true"><rect x="24" y="112" width="712" height="24" fill="#fef9c3" stroke="none"/><line x1="24" y1="112" x2="736" y2="112" stroke="#ca8a04" stroke-width="1" opacity="0.75"/><line class="data-table-separator" x1="260" y1="112" x2="260" y2="136" stroke="#ca8a04" stroke-width="1" opacity="0.85"/><line x1="36" y1="112" x2="36" y2="128" stroke="#ca8a04" stroke-width="1" stroke-dasharray="2 2"/><line x1="36" y1="128" x2="46" y2="128" stroke="#ca8a04" stroke-width="1" stroke-dasharray="2 2"/><text x="50" y="132" font-family="monospace" font-size="12" fill="#0f172a">active</text><text x="268" y="132" font-family="monospace" font-size="12" fill="#0f172a">true</text></g><rect class="data-table-frame yaml-table" x="24" y="40" width="712" height="96" rx="3" ry="3" fill="none" stroke="#ca8a04" stroke-width="1"/></svg>