<svg xmlns="http://www.w3.org/2000/svg" width="760" height="190" viewBox="0 0 760 190" data-projection="yaml" data-yaml-node-count="5" data-yaml-max-depth="2"><rect width="100%" height="100%" fill="white"/><defs><marker id="arrow-open" viewBox="0 0 10 10" refX="9" refY="5" markerWidth="10" markerHeight="10" orient="auto-start-reverse"><path d="M0,0 L10,5 L0,10" fill="none" stroke="#475569" stroke-width="1.5"/></marker><marker id="arrow-triangle" viewBox="0 0 12 12" refX="11" refY="6" markerWidth="12" markerHeight="12" orient="auto-start-reverse"><path d="M0,0 L12,6 L0,12 z" fill="white" stroke="#475569" stroke-width="1.5"/></marker><marker id="arrow-diamond-filled" viewBox="0 0 14 10" refX="13" refY="5" markerWidth="14" markerHeight="10" orient="auto-start-reverse"><path d="M0,5 L7,0 L14,5 L7,10 z" fill="#475569" stroke="#475569" stroke-width="1"/></marker><marker id="arrow-diamond-open" viewBox="0 0 14 10" refX="13" refY="5" markerWidth="14" markerHeight="10" orient="auto-start-reverse"><path d="M0,5 L7,0 L14,5 L7,10 z" fill="white" stroke="#475569" stroke-width="1"/></marker></defs><text x="24" y="28" font-family="monospace" font-size="18" font-weight="600">YAML</text><g class="data-tree-node yaml-node yaml-depth-0" data-projection="yaml" data-yaml-index="0" data-yaml-depth="0" data-yaml-label="{...}"><rect x="24" y="44" width="712" height="18" rx="3" ry="3" fill="#fef9c3" stroke="#ca8a04" stroke-width="1"/><text x="30" y="58" font-family="monospace" font-size="12" fill="#0f172a">{...}</text></g><g class="data-tree-node yaml-node yaml-depth-1" data-projection="yaml" data-yaml-index="1" data-yaml-depth="1" data-yaml-label="fruits: [...]"><rect x="42" y="66" width="694" height="18" rx="3" ry="3" fill="#fef9c3" stroke="#ca8a04" stroke-width="1"/><text x="48" y="80" font-family="monospace" font-size="12" fill="#0f172a">fruits: [...]</text></g><g class="data-tree-node yaml-node yaml-depth-2" data-projection="yaml" data-yaml-index="2" data-yaml-depth="2" data-yaml-label="[0]: apple"><rect x="60" y="88" width="676" height="18" rx="3" ry="3" fill="#fef9c3" stroke="#ca8a04" stroke-width="1"/><text x="66" y="102" font-family="monospace" font-size="12" fill="#0f172a">[0]: apple</text></g><g class="data-tree-node yaml-node yaml-depth-2" data-projection="yaml" data-yaml-index="3" data-yaml-depth="2" data-yaml-label="[1]: banana"><rect x="60" y="110" width="676" height="18" rx="3" ry="3" fill="#fef9c3" stroke="#ca8a04" stroke-width="1"/><text x="66" y="124" font-family="monospace" font-size="12" fill="#0f172a">[1]: banana</text></g><g class="data-tree-node yaml-node yaml-depth-2" data-projection="yaml" data-yaml-index="4" data-yaml-depth="2" data-yaml-label="[2]: cherry"><rect x="60" y="132" width="676" height="18" rx="3" ry="3" fill="#fef9c3" stroke="#ca8a04" stroke-width="1"/><text x="66" y="146" font-family="monospace" font-size="12" fill="#0f172a">[2]: cherry</text></g></svg>