<svg xmlns="http://www.w3.org/2000/svg" width="760" height="234" viewBox="0 0 760 234" data-projection="yaml" data-yaml-node-count="7" data-yaml-max-depth="3"><rect width="100%" height="100%" fill="white"/><defs><marker id="arrow-open" viewBox="0 0 10 10" refX="9" refY="5" markerWidth="10" markerHeight="10" markerUnits="userSpaceOnUse" orient="auto-start-reverse"><path d="M0,0 L10,5 L0,10" fill="none" stroke="#475569" stroke-width="1.5"/></marker><marker id="arrow-triangle" viewBox="0 0 12 12" refX="11" refY="6" markerWidth="12" markerHeight="12" markerUnits="userSpaceOnUse" orient="auto-start-reverse"><polygon points="0,0 12,6 0,12" fill="#ffffff" stroke="#475569" stroke-width="1.5" fill-rule="nonzero"/></marker><marker id="arrow-diamond-filled" viewBox="0 0 14 10" refX="13" refY="5" markerWidth="14" markerHeight="10" markerUnits="userSpaceOnUse" orient="auto-start-reverse"><path d="M0,5 L7,0 L14,5 L7,10 z" fill="#475569" stroke="#475569" stroke-width="1"/></marker><marker id="arrow-diamond-open" viewBox="0 0 14 10" refX="13" refY="5" markerWidth="14" markerHeight="10" markerUnits="userSpaceOnUse" orient="auto-start-reverse"><path d="M0,5 L7,0 L14,5 L7,10 z" fill="#ffffff" stroke="#475569" stroke-width="1"/></marker></defs><text x="24" y="28" font-family="monospace" font-size="18" font-weight="600">YAML</text><line x1="33" y1="59" x2="33" y2="75" stroke="#ca8a04" stroke-width="1" stroke-dasharray="2 2"/><line x1="33" y1="75" x2="42" y2="75" stroke="#ca8a04" stroke-width="1" stroke-dasharray="2 2"/><line x1="51" y1="81" x2="51" y2="97" stroke="#ca8a04" stroke-width="1" stroke-dasharray="2 2"/><line x1="51" y1="97" x2="60" y2="97" stroke="#ca8a04" stroke-width="1" stroke-dasharray="2 2"/><line x1="51" y1="81" x2="51" y2="119" stroke="#ca8a04" stroke-width="1" stroke-dasharray="2 2"/><line x1="51" y1="119" x2="60" y2="119" stroke="#ca8a04" stroke-width="1" stroke-dasharray="2 2"/><line x1="51" y1="81" x2="51" y2="141" stroke="#ca8a04" stroke-width="1" stroke-dasharray="2 2"/><line x1="51" y1="141" x2="60" y2="141" stroke="#ca8a04" stroke-width="1" stroke-dasharray="2 2"/><line x1="69" y1="147" x2="69" y2="163" stroke="#ca8a04" stroke-width="1" stroke-dasharray="2 2"/><line x1="69" y1="163" x2="78" y2="163" stroke="#ca8a04" stroke-width="1" stroke-dasharray="2 2"/><line x1="69" y1="147" x2="69" y2="185" stroke="#ca8a04" stroke-width="1" stroke-dasharray="2 2"/><line x1="69" y1="185" x2="78" y2="185" stroke="#ca8a04" stroke-width="1" stroke-dasharray="2 2"/><g class="data-tree-node yaml-node yaml-depth-0" data-projection="yaml" data-yaml-index="0" data-yaml-depth="0" data-yaml-label="{...}"><rect x="24" y="44" width="712" height="18" rx="3" ry="3" fill="#fef9c3" stroke="#ca8a04" stroke-width="1"/><text x="30" y="58" font-family="monospace" font-size="12" fill="#0f172a">{...}</text></g><g class="data-tree-node yaml-node yaml-depth-1" data-projection="yaml" data-yaml-index="1" data-yaml-depth="1" data-yaml-label="database: {...}"><rect x="42" y="66" width="694" height="18" rx="3" ry="3" fill="#fef9c3" stroke="#ca8a04" stroke-width="1"/><text x="48" y="80" font-family="monospace" font-size="12" fill="#0f172a">database: {...}</text></g><g class="data-tree-node yaml-node yaml-depth-2" data-projection="yaml" data-yaml-index="2" data-yaml-depth="2" data-yaml-label="host: localhost"><rect x="60" y="88" width="676" height="18" rx="3" ry="3" fill="#fef9c3" stroke="#ca8a04" stroke-width="1"/><text x="66" y="102" font-family="monospace" font-size="12" fill="#0f172a">host: localhost</text></g><g class="data-tree-node yaml-node yaml-depth-2" data-projection="yaml" data-yaml-index="3" data-yaml-depth="2" data-yaml-label="port: 5432"><rect x="60" y="110" width="676" height="18" rx="3" ry="3" fill="#fef9c3" stroke="#ca8a04" stroke-width="1"/><text x="66" y="124" font-family="monospace" font-size="12" fill="#0f172a">port: 5432</text></g><g class="data-tree-node yaml-node yaml-depth-2" data-projection="yaml" data-yaml-index="4" data-yaml-depth="2" data-yaml-label="credentials: {...}"><rect x="60" y="132" width="676" height="18" rx="3" ry="3" fill="#fef9c3" stroke="#ca8a04" stroke-width="1"/><text x="66" y="146" font-family="monospace" font-size="12" fill="#0f172a">credentials: {...}</text></g><g class="data-tree-node yaml-node yaml-depth-3" data-projection="yaml" data-yaml-index="5" data-yaml-depth="3" data-yaml-label="user: admin"><rect x="78" y="154" width="658" height="18" rx="3" ry="3" fill="#fef9c3" stroke="#ca8a04" stroke-width="1"/><text x="84" y="168" font-family="monospace" font-size="12" fill="#0f172a">user: admin</text></g><g class="data-tree-node yaml-node yaml-depth-3" data-projection="yaml" data-yaml-index="6" data-yaml-depth="3" data-yaml-label="password: secret"><rect x="78" y="176" width="658" height="18" rx="3" ry="3" fill="#fef9c3" stroke="#ca8a04" stroke-width="1"/><text x="84" y="190" font-family="monospace" font-size="12" fill="#0f172a">password: secret</text></g></svg>