<svg xmlns="http://www.w3.org/2000/svg" width="760" height="394" viewBox="0 0 760 394"><rect width="100%" height="100%" fill="white"/><text class="files-title" x="24" y="28" font-family="monospace" font-size="18" font-weight="700" fill="#0f172a">Repository tree</text><g class="files-note"><rect x="24" y="44" width="360" height="22" rx="5" ry="5" fill="#fff7ed" stroke="#fdba74"/><text x="32" y="59" font-family="monospace" font-size="11" fill="#7c2d12">top-level repository note</text></g><g class="files-entry" data-files-path="/.github" data-files-kind="dir"><path d="M24 72 h9 l3 4 h14 v16 h-26 z" fill="#dbeafe" stroke="#2563eb"/><text x="58" y="86" font-family="monospace" font-size="13" fill="#0f172a">.github</text></g><g class="files-entry" data-files-path="/src" data-files-kind="dir"><path d="M24 100 h9 l3 4 h14 v16 h-26 z" fill="#dbeafe" stroke="#2563eb"/><text x="58" y="114" font-family="monospace" font-size="13" fill="#0f172a">src</text></g><g class="files-entry" data-files-path="/src/render" data-files-kind="dir"><path d="M48 128 h9 l3 4 h14 v16 h-26 z" fill="#dbeafe" stroke="#2563eb"/><text x="82" y="142" font-family="monospace" font-size="13" fill="#0f172a">render</text></g><g class="files-entry" data-files-path="/src/render/board_files.rs" data-files-kind="file"><path d="M72 156 h17 l7 7 v13 h-24 z" fill="#f8fafc" stroke="#64748b"/><text x="106" y="170" font-family="monospace" font-size="13" fill="#0f172a">board_files.rs</text></g><g class="files-entry" data-files-path="/src/normalize" data-files-kind="dir"><path d="M48 184 h9 l3 4 h14 v16 h-26 z" fill="#dbeafe" stroke="#2563eb"/><text x="82" y="198" font-family="monospace" font-size="13" fill="#0f172a">normalize</text></g><g class="files-entry" data-files-path="/src/normalize/board_files.rs" data-files-kind="file"><path d="M72 212 h17 l7 7 v13 h-24 z" fill="#f8fafc" stroke="#64748b"/><text x="106" y="226" font-family="monospace" font-size="13" fill="#0f172a">board_files.rs</text></g><g class="files-note"><rect x="106" y="238" width="360" height="22" rx="5" ry="5" fill="#fff7ed" stroke="#fdba74"/><text x="114" y="253" font-family="monospace" font-size="11" fill="#7c2d12">first Board/Files family slice</text></g><g class="files-entry" data-files-path="/tests" data-files-kind="dir"><path d="M24 268 h9 l3 4 h14 v16 h-26 z" fill="#dbeafe" stroke="#2563eb"/><text x="58" y="282" font-family="monospace" font-size="13" fill="#0f172a">tests</text></g><g class="files-entry" data-files-path="/tests/board_files_family.rs" data-files-kind="file"><path d="M48 296 h17 l7 7 v13 h-24 z" fill="#f8fafc" stroke="#64748b"/><text x="82" y="310" font-family="monospace" font-size="13" fill="#0f172a">board_files_family.rs</text></g><g class="files-entry" data-files-path="/README.md" data-files-kind="file"><path d="M24 324 h17 l7 7 v13 h-24 z" fill="#f8fafc" stroke="#64748b"/><text x="58" y="338" font-family="monospace" font-size="13" fill="#0f172a">README.md</text></g></svg>