<svg xmlns="http://www.w3.org/2000/svg" width="760" height="240" viewBox="0 0 760 240"><rect width="100%" height="100%" fill="white"/><defs><marker id="arrow-open" viewBox="0 0 10 10" refX="9" refY="5" markerWidth="10" markerHeight="10" markerUnits="userSpaceOnUse" orient="auto-start-reverse"><path d="M0,0 L10,5 L0,10" fill="none" stroke="#475569" stroke-width="1.5"/></marker><marker id="arrow-triangle" viewBox="0 0 12 12" refX="11" refY="6" markerWidth="12" markerHeight="12" markerUnits="userSpaceOnUse" orient="auto-start-reverse"><polygon points="0,0 12,6 0,12" fill="#ffffff" stroke="#475569" stroke-width="1.5" fill-rule="nonzero"/></marker><marker id="arrow-diamond-filled" viewBox="0 0 14 10" refX="13" refY="5" markerWidth="14" markerHeight="10" markerUnits="userSpaceOnUse" orient="auto-start-reverse"><path d="M0,5 L7,0 L14,5 L7,10 z" fill="#475569" stroke="#475569" stroke-width="1"/></marker><marker id="arrow-diamond-open" viewBox="0 0 14 10" refX="13" refY="5" markerWidth="14" markerHeight="10" markerUnits="userSpaceOnUse" orient="auto-start-reverse"><path d="M0,5 L7,0 L14,5 L7,10 z" fill="#ffffff" stroke="#475569" stroke-width="1"/></marker></defs><defs><marker id="archimate-assignment" viewBox="0 0 10 10" refX="1" refY="5" markerWidth="8" markerHeight="8" orient="auto-start-reverse"><circle cx="5" cy="5" r="3" fill="#475569" stroke="#475569" stroke-width="1"/></marker></defs><text x="24" y="28" font-family="monospace" font-size="18" font-weight="600">Archimate</text><rect x="24" y="44" width="712" height="80" fill="#cce0ff" stroke="#94a3b8" stroke-width="1"/><text x="32" y="58" font-family="monospace" font-size="11" fill="#475569">application</text><rect x="24" y="124" width="712" height="80" fill="#c8ffc8" stroke="#94a3b8" stroke-width="1"/><text x="32" y="138" font-family="monospace" font-size="11" fill="#475569">technology</text><line class="archimate-relation-edge" data-archimate-kind="serving" data-archimate-direction="" data-archimate-style="" x1="170" y1="146" x2="170" y2="106" stroke="#475569" stroke-width="1.5" marker-end="url(#arrow-open)" /><text class="archimate-relation-label" data-archimate-kind="serving" x="176" y="122" font-family="monospace" font-size="11" fill="#1e293b">calls</text><line class="archimate-relation-edge" data-archimate-kind="access" data-archimate-direction="" data-archimate-style="" x1="207" y1="146" x2="283" y2="106" stroke="#475569" stroke-width="1.5" stroke-dasharray="5 3" marker-end="url(#arrow-open)" /><text class="archimate-relation-label" data-archimate-kind="access" x="251" y="122" font-family="monospace" font-size="11" fill="#1e293b">reads/writes</text><g class="archimate-element" data-archimate-layer="application" data-archimate-kind="component" data-archimate-alias="web"><rect x="100" y="66" width="140" height="40" rx="4" ry="4" fill="white" stroke="#334155" stroke-width="1.5"/><rect x="96" y="76" width="15" height="8" fill="white" stroke="#334155" stroke-width="1"/><rect x="96" y="88" width="15" height="8" fill="white" stroke="#334155" stroke-width="1"/></g><text x="108" y="90" font-family="monospace" font-size="12" fill="#0f172a">Web App</text><g class="archimate-element" data-archimate-layer="application" data-archimate-kind="data-object" data-archimate-alias="db"><path d="M250,66 H372 L390 84 V106 H250 Z" fill="white" stroke="#334155" stroke-width="1.5"/><path d="M372 66 V84 H390" fill="none" stroke="#334155" stroke-width="1"/></g><text x="258" y="90" font-family="monospace" font-size="12" fill="#0f172a">Database</text><g class="archimate-element" data-archimate-layer="technology" data-archimate-kind="node" data-archimate-alias="api"><path d="M100,154 H228 L240,146 V178 L228,186 H100 Z" fill="white" stroke="#334155" stroke-width="1.5"/><path d="M228 154 V186 M228 154 L240 146" fill="none" stroke="#334155" stroke-width="1"/></g><text x="108" y="170" font-family="monospace" font-size="12" fill="#0f172a">API Server</text></svg>