<svg xmlns="http://www.w3.org/2000/svg" width="760" height="560" viewBox="0 0 760 560"><rect width="100%" height="100%" fill="white"/><defs><marker id="arrow-open" viewBox="0 0 10 10" refX="9" refY="5" markerWidth="10" markerHeight="10" orient="auto-start-reverse"><path d="M0,0 L10,5 L0,10" fill="none" stroke="#475569" stroke-width="1.5"/></marker><marker id="arrow-triangle" viewBox="0 0 12 12" refX="11" refY="6" markerWidth="12" markerHeight="12" orient="auto-start-reverse"><path d="M0,0 L12,6 L0,12 z" fill="white" stroke="#475569" stroke-width="1.5"/></marker><marker id="arrow-diamond-filled" viewBox="0 0 14 10" refX="13" refY="5" markerWidth="14" markerHeight="10" orient="auto-start-reverse"><path d="M0,5 L7,0 L14,5 L7,10 z" fill="#475569" stroke="#475569" stroke-width="1"/></marker><marker id="arrow-diamond-open" viewBox="0 0 14 10" refX="13" refY="5" markerWidth="14" markerHeight="10" orient="auto-start-reverse"><path d="M0,5 L7,0 L14,5 L7,10 z" fill="white" stroke="#475569" stroke-width="1"/></marker></defs><defs><marker id="archimate-assignment" viewBox="0 0 10 10" refX="1" refY="5" markerWidth="8" markerHeight="8" orient="auto-start-reverse"><circle cx="5" cy="5" r="3" fill="#475569" stroke="#475569" stroke-width="1"/></marker></defs><text x="24" y="28" font-family="monospace" font-size="18" font-weight="600">Archimate</text><rect x="24" y="44" width="712" height="80" fill="#fee2e2" stroke="#94a3b8" stroke-width="1"/><text x="32" y="58" font-family="monospace" font-size="11" fill="#475569">strategy</text><rect x="24" y="124" width="712" height="80" fill="#fef3c7" stroke="#94a3b8" stroke-width="1"/><text x="32" y="138" font-family="monospace" font-size="11" fill="#475569">business</text><rect x="24" y="204" width="712" height="80" fill="#dbeafe" stroke="#94a3b8" stroke-width="1"/><text x="32" y="218" font-family="monospace" font-size="11" fill="#475569">application</text><rect x="24" y="284" width="712" height="80" fill="#dcfce7" stroke="#94a3b8" stroke-width="1"/><text x="32" y="298" font-family="monospace" font-size="11" fill="#475569">technology</text><rect x="24" y="364" width="712" height="80" fill="#ede9fe" stroke="#94a3b8" stroke-width="1"/><text x="32" y="378" font-family="monospace" font-size="11" fill="#475569">motivation</text><rect x="24" y="444" width="712" height="80" fill="#f1f5f9" stroke="#94a3b8" stroke-width="1"/><text x="32" y="458" font-family="monospace" font-size="11" fill="#475569">junction</text><line class="archimate-relation-edge" data-archimate-kind="flow" data-archimate-direction="" data-archimate-style="" x1="240" y1="246" x2="250" y2="246" stroke="#475569" stroke-width="1.5" stroke-dasharray="5 3" marker-end="url(#arrow-open)" /><text class="archimate-relation-label" data-archimate-kind="flow" x="251" y="242" font-family="monospace" font-size="11" fill="#1e293b">routes</text><line class="archimate-relation-edge" data-archimate-kind="flow" data-archimate-direction="" data-archimate-style="" x1="390" y1="246" x2="400" y2="246" stroke="#475569" stroke-width="1.5" stroke-dasharray="5 3" marker-end="url(#arrow-open)" /><text class="archimate-relation-label" data-archimate-kind="flow" x="401" y="242" font-family="monospace" font-size="11" fill="#1e293b">routes</text><g class="archimate-element" data-archimate-layer="application" data-archimate-kind="service" data-archimate-alias="service_a"><rect x="100" y="226" width="140" height="40" rx="18" ry="18" fill="white" stroke="#334155" stroke-width="1.5"/></g><text x="108" y="250" font-family="monospace" font-size="12" fill="#0f172a">Service A</text><g class="archimate-element" data-archimate-layer="application" data-archimate-kind="service" data-archimate-alias="service_b"><rect x="250" y="226" width="140" height="40" rx="18" ry="18" fill="white" stroke="#334155" stroke-width="1.5"/></g><text x="258" y="250" font-family="monospace" font-size="12" fill="#0f172a">Service B</text><g class="archimate-element" data-archimate-layer="application" data-archimate-kind="service" data-archimate-alias="service_c"><rect x="400" y="226" width="140" height="40" rx="18" ry="18" fill="white" stroke="#334155" stroke-width="1.5"/></g><text x="408" y="250" font-family="monospace" font-size="12" fill="#0f172a">Service C</text></svg>