<svg xmlns="http://www.w3.org/2000/svg" width="754" height="520" viewBox="0 0 754 520" data-orientation="TopToBottom"><rect width="100%" height="100%" fill="#ffffff"/><defs><marker id="arrow-open" viewBox="0 0 10 10" refX="9" refY="5" markerWidth="10" markerHeight="10" markerUnits="userSpaceOnUse" orient="auto-start-reverse"><path d="M0,0 L10,5 L0,10" fill="none" stroke="#1e293b" stroke-width="1.5"/></marker><marker id="arrow-triangle" viewBox="0 0 16 16" refX="15" refY="8" markerWidth="16" markerHeight="16" markerUnits="userSpaceOnUse" orient="auto-start-reverse"><polygon points="0,1 14,8 0,15" fill="#ffffff" stroke="#1e293b" stroke-width="1.5" fill-rule="nonzero"/></marker><marker id="arrow-diamond-filled" viewBox="0 0 14 10" refX="13" refY="5" markerWidth="14" markerHeight="10" markerUnits="userSpaceOnUse" orient="auto-start-reverse"><path d="M0,5 L7,0 L14,5 L7,10 z" fill="#1e293b" stroke="#1e293b" stroke-width="1"/></marker><marker id="arrow-diamond-open" viewBox="0 0 14 10" refX="13" refY="5" markerWidth="14" markerHeight="10" markerUnits="userSpaceOnUse" orient="auto-start-reverse"><path d="M0,5 L7,0 L14,5 L7,10 z" fill="#ffffff" stroke="#1e293b" stroke-width="1"/></marker></defs><defs><marker id="arrow-triangle-filled" viewBox="0 0 12 12" refX="11" refY="6" markerWidth="12" markerHeight="12" markerUnits="userSpaceOnUse" orient="auto-start-reverse"><polygon points="0,0 12,6 0,12" fill="#1e293b" stroke="#1e293b" stroke-width="1.5"/></marker><marker id="arrow-box-filled" viewBox="0 0 12 12" refX="11" refY="6" markerWidth="12" markerHeight="12" markerUnits="userSpaceOnUse" orient="auto-start-reverse"><rect x="2" y="2" width="8" height="8" fill="#1e293b" stroke="#1e293b" stroke-width="1.5"/></marker><marker id="arrow-plus" viewBox="0 0 12 12" refX="11" refY="6" markerWidth="12" markerHeight="12" markerUnits="userSpaceOnUse" orient="auto-start-reverse"><path d="M6,1 L6,11 M1,6 L11,6" fill="none" stroke="#1e293b" stroke-width="1.8" stroke-linecap="round"/></marker><marker id="arrow-cross" viewBox="0 0 12 12" refX="11" refY="6" markerWidth="12" markerHeight="12" markerUnits="userSpaceOnUse" orient="auto-start-reverse"><path d="M2,2 L10,10 M10,2 L2,10" fill="none" stroke="#1e293b" stroke-width="1.8" stroke-linecap="round"/></marker><marker id="arrow-bracket-open" viewBox="0 0 12 14" refX="11" refY="7" markerWidth="12" markerHeight="14" markerUnits="userSpaceOnUse" orient="auto-start-reverse"><path d="M10,1 L4,1 L4,13 L10,13" fill="none" stroke="#1e293b" stroke-width="1.8" stroke-linecap="round" stroke-linejoin="round"/></marker><marker id="arrow-circle-open" viewBox="0 0 12 12" refX="11" refY="6" markerWidth="12" markerHeight="12" markerUnits="userSpaceOnUse" orient="auto-start-reverse"><circle cx="6" cy="6" r="4" fill="#ffffff" stroke="#1e293b" stroke-width="1.5"/></marker><marker id="arrow-circle-filled" viewBox="0 0 12 12" refX="11" refY="6" markerWidth="12" markerHeight="12" markerUnits="userSpaceOnUse" orient="auto-start-reverse"><circle cx="6" cy="6" r="4" fill="#1e293b" stroke="#1e293b" stroke-width="1.5"/></marker><marker id="arrow-double-open" viewBox="0 0 16 12" refX="15" refY="6" markerWidth="16" markerHeight="12" markerUnits="userSpaceOnUse" orient="auto-start-reverse"><path d="M0,1 L8,6 L0,11 M7,1 L15,6 L7,11" fill="none" stroke="#1e293b" stroke-width="1.5" stroke-linejoin="round"/></marker></defs><text x="8" y="8" font-family="monospace" font-size="18" font-weight="600" fill="#0f172a">Kubernetes cluster - web tier deployment</text><polyline class="uml-relation" data-uml-from="ingress" data-uml-to="webSvc" data-uml-arrow="--&gt;" points="482,94 482,130 482,166" fill="none" stroke="#1e293b" stroke-width="2" marker-end="url(#arrow-open)" /><rect class="uml-edge-label-bg" data-uml-label-role="edge-background" x="459" y="123" width="46" height="18" fill="white" opacity="0.85"/><text class="uml-edge-label" data-uml-label-role="edge" x="482" y="136" text-anchor="middle" font-family="monospace" font-size="11" fill="#334155">routes</text><polyline class="uml-relation" data-uml-from="webSvc" data-uml-to="webPod1" data-uml-arrow="--&gt;" points="402,192 482,192 127,316 202,316" fill="none" stroke="#1e293b" stroke-width="2" marker-end="url(#arrow-open)" /><rect class="uml-edge-label-bg" data-uml-label-role="edge-background" x="242" y="229" width="60" height="18" fill="white" opacity="0.85"/><text class="uml-edge-label" data-uml-label-role="edge" x="272" y="242" text-anchor="middle" font-family="monospace" font-size="11" fill="#334155">forwards</text><polyline class="uml-relation" data-uml-from="webSvc" data-uml-to="webPod2" data-uml-arrow="--&gt;" points="482,218 482,254 362,254 362,290" fill="none" stroke="#1e293b" stroke-width="2" marker-end="url(#arrow-open)" /><rect class="uml-edge-label-bg" data-uml-label-role="edge-background" x="362" y="229" width="60" height="18" fill="white" opacity="0.85"/><text class="uml-edge-label" data-uml-label-role="edge" x="392" y="242" text-anchor="middle" font-family="monospace" font-size="11" fill="#334155">forwards</text><polyline class="uml-relation" data-uml-from="webSvc" data-uml-to="webPod3" data-uml-arrow="--&gt;" points="482,218 482,254 602,254 602,290" fill="none" stroke="#1e293b" stroke-width="2" marker-end="url(#arrow-open)" /><rect class="uml-edge-label-bg" data-uml-label-role="edge-background" x="482" y="229" width="60" height="18" fill="white" opacity="0.85"/><text class="uml-edge-label" data-uml-label-role="edge" x="512" y="242" text-anchor="middle" font-family="monospace" font-size="11" fill="#334155">forwards</text><polyline class="uml-relation" data-uml-from="webDeploy" data-uml-to="webPod1" data-uml-arrow="..&gt;" points="242,218 242,254 122,254 122,290" fill="none" stroke="#1e293b" stroke-width="2" stroke-dasharray="5 3" marker-end="url(#arrow-open)" /><rect class="uml-edge-label-bg" data-uml-label-role="edge-background" x="190" y="229" width="32" height="18" fill="white" opacity="0.85"/><text class="uml-edge-label" data-uml-label-role="edge" x="206" y="242" text-anchor="middle" font-family="monospace" font-size="11" fill="#334155">owns</text><polyline class="uml-relation" data-uml-from="webDeploy" data-uml-to="webPod2" data-uml-arrow="..&gt;" points="242,218 242,254 362,254 362,290" fill="none" stroke="#1e293b" stroke-width="2" stroke-dasharray="5 3" marker-end="url(#arrow-open)" /><rect class="uml-edge-label-bg" data-uml-label-role="edge-background" x="310" y="229" width="32" height="18" fill="white" opacity="0.85"/><text class="uml-edge-label" data-uml-label-role="edge" x="326" y="242" text-anchor="middle" font-family="monospace" font-size="11" fill="#334155">owns</text><polyline class="uml-relation" data-uml-from="webDeploy" data-uml-to="webPod3" data-uml-arrow="..&gt;" points="322,192 242,192 597,316 522,316" fill="none" stroke="#1e293b" stroke-width="2" stroke-dasharray="5 3" marker-end="url(#arrow-open)" /><rect class="uml-edge-label-bg" data-uml-label-role="edge-background" x="430" y="229" width="32" height="18" fill="white" opacity="0.85"/><text class="uml-edge-label" data-uml-label-role="edge" x="446" y="242" text-anchor="middle" font-family="monospace" font-size="11" fill="#334155">owns</text><polyline class="uml-relation" data-uml-from="webPod1" data-uml-to="webCfg" data-uml-arrow="--&gt;" points="202,316 122,316 482,440 402,440" fill="none" stroke="#1e293b" stroke-width="2" marker-end="url(#arrow-open)" /><rect class="uml-edge-label-bg" data-uml-label-role="edge-background" x="249" y="353" width="46" height="18" fill="white" opacity="0.85"/><text class="uml-edge-label" data-uml-label-role="edge" x="272" y="366" text-anchor="middle" font-family="monospace" font-size="11" fill="#334155">mounts</text><polyline class="uml-relation" data-uml-from="webPod1" data-uml-to="tlsSecret" data-uml-arrow="--&gt;" points="122,342 122,378 242,378 242,414" fill="none" stroke="#1e293b" stroke-width="2" marker-end="url(#arrow-open)" /><rect class="uml-edge-label-bg" data-uml-label-role="edge-background" x="193" y="353" width="38" height="18" fill="white" opacity="0.85"/><text class="uml-edge-label" data-uml-label-role="edge" x="212" y="366" text-anchor="middle" font-family="monospace" font-size="11" fill="#334155">reads</text><polyline class="uml-relation" data-uml-from="hpa" data-uml-to="webDeploy" data-uml-arrow="..&gt;" points="242,94 242,130 242,166" fill="none" stroke="#1e293b" stroke-width="2" stroke-dasharray="5 3" marker-end="url(#arrow-open)" /><rect class="uml-edge-label-bg" data-uml-label-role="edge-background" x="219" y="123" width="46" height="18" fill="white" opacity="0.85"/><text class="uml-edge-label" data-uml-label-role="edge" x="242" y="136" text-anchor="middle" font-family="monospace" font-size="11" fill="#334155">scales</text><rect class="uml-node uml-cloud-icon-node" data-uml-id="ingress" data-provider="K8s" data-service="Ingress" x="402" y="42" width="160" height="52" rx="4" ry="4" fill="#E8EFFE" stroke="#326CE5" stroke-width="1.5"/><rect x="402" y="42" width="160" height="30" rx="4" ry="4" fill="#326CE5" stroke="#326CE5" stroke-width="1.5"/><rect x="402" y="64" width="160" height="8" fill="#326CE5"/><line x1="402" y1="72" x2="562" y2="72" stroke="#326CE5" stroke-width="1"/><rect class="cloud-icon-badge" data-provider="K8s" x="406" y="46" width="24" height="16" rx="3" ry="3" fill="#326CE5"/><text x="418" y="54" text-anchor="middle" dominant-baseline="middle" font-family="monospace" font-size="8" font-weight="700" fill="#ffffff">K8s</text><text x="436" y="61" font-family="monospace" font-size="10" font-weight="700" fill="#ffffff" data-cloud-service-name="true">Ingress</text><g transform="translate(482,77) scale(0.625)" fill="#326CE5" stroke="#326CE5" opacity="0.82" data-cloud-service-icon="true"><path d="M-7,0 L7,0" stroke="currentColor" stroke-width="2" stroke-linecap="round"/>
<path d="M3,-4 L7,0 L3,4" fill="none" stroke="currentColor" stroke-width="1.8" stroke-linejoin="round"/>
<rect x="-7" y="-7" width="5" height="14" rx="2" fill="currentColor" opacity="0.7"/></g><text x="482" y="92" text-anchor="middle" font-family="monospace" font-size="12" font-weight="600" fill="#0f172a" text-decoration="underline" text-decoration-thickness="1">nginx-ingress</text><rect class="uml-node uml-cloud-icon-node" data-uml-id="webSvc" data-provider="K8s" data-service="Service" x="402" y="166" width="160" height="52" rx="4" ry="4" fill="#E8EFFE" stroke="#326CE5" stroke-width="1.5"/><rect x="402" y="166" width="160" height="30" rx="4" ry="4" fill="#326CE5" stroke="#326CE5" stroke-width="1.5"/><rect x="402" y="188" width="160" height="8" fill="#326CE5"/><line x1="402" y1="196" x2="562" y2="196" stroke="#326CE5" stroke-width="1"/><rect class="cloud-icon-badge" data-provider="K8s" x="406" y="170" width="24" height="16" rx="3" ry="3" fill="#326CE5"/><text x="418" y="178" text-anchor="middle" dominant-baseline="middle" font-family="monospace" font-size="8" font-weight="700" fill="#ffffff">K8s</text><text x="436" y="185" font-family="monospace" font-size="10" font-weight="700" fill="#ffffff" data-cloud-service-name="true">Service</text><g transform="translate(482,201) scale(0.625)" fill="#326CE5" stroke="#326CE5" opacity="0.82" data-cloud-service-icon="true"><circle cx="0" cy="0" r="6" fill="none" stroke="currentColor" stroke-width="1.8"/>
<circle cx="0" cy="-6" r="1.8" fill="currentColor"/>
<circle cx="5.2" cy="3" r="1.8" fill="currentColor"/>
<circle cx="-5.2" cy="3" r="1.8" fill="currentColor"/>
<line x1="0" y1="-4.2" x2="0" y2="-1" stroke="currentColor" stroke-width="1"/>
<line x1="4" y1="2" x2="1.7" y2="0.5" stroke="currentColor" stroke-width="1"/>
<line x1="-4" y1="2" x2="-1.7" y2="0.5" stroke="currentColor" stroke-width="1"/></g><text x="482" y="216" text-anchor="middle" font-family="monospace" font-size="12" font-weight="600" fill="#0f172a" text-decoration="underline" text-decoration-thickness="1">web-service</text><rect class="uml-node uml-cloud-icon-node" data-uml-id="webDeploy" data-provider="K8s" data-service="Deployment" x="162" y="166" width="160" height="52" rx="4" ry="4" fill="#E8EFFE" stroke="#326CE5" stroke-width="1.5"/><rect x="162" y="166" width="160" height="30" rx="4" ry="4" fill="#326CE5" stroke="#326CE5" stroke-width="1.5"/><rect x="162" y="188" width="160" height="8" fill="#326CE5"/><line x1="162" y1="196" x2="322" y2="196" stroke="#326CE5" stroke-width="1"/><rect class="cloud-icon-badge" data-provider="K8s" x="166" y="170" width="24" height="16" rx="3" ry="3" fill="#326CE5"/><text x="178" y="178" text-anchor="middle" dominant-baseline="middle" font-family="monospace" font-size="8" font-weight="700" fill="#ffffff">K8s</text><text x="196" y="185" font-family="monospace" font-size="10" font-weight="700" fill="#ffffff" data-cloud-service-name="true">Deployment</text><g transform="translate(242,201) scale(0.625)" fill="#326CE5" stroke="#326CE5" opacity="0.82" data-cloud-service-icon="true"><rect x="-6" y="-6" width="9" height="9" rx="1" fill="currentColor" opacity="0.5"/>
<rect x="-3" y="-3" width="9" height="9" rx="1" fill="currentColor" opacity="0.7"/>
<rect x="0" y="0" width="6" height="6" rx="1" fill="currentColor"/></g><text x="242" y="216" text-anchor="middle" font-family="monospace" font-size="12" font-weight="600" fill="#0f172a" text-decoration="underline" text-decoration-thickness="1">web-deployment</text><rect class="uml-node uml-cloud-icon-node" data-uml-id="webPod1" data-provider="K8s" data-service="Pod" x="42" y="290" width="160" height="52" rx="4" ry="4" fill="#E8EFFE" stroke="#326CE5" stroke-width="1.5"/><rect x="42" y="290" width="160" height="30" rx="4" ry="4" fill="#326CE5" stroke="#326CE5" stroke-width="1.5"/><rect x="42" y="312" width="160" height="8" fill="#326CE5"/><line x1="42" y1="320" x2="202" y2="320" stroke="#326CE5" stroke-width="1"/><rect class="cloud-icon-badge" data-provider="K8s" x="46" y="294" width="24" height="16" rx="3" ry="3" fill="#326CE5"/><text x="58" y="302" text-anchor="middle" dominant-baseline="middle" font-family="monospace" font-size="8" font-weight="700" fill="#ffffff">K8s</text><text x="76" y="309" font-family="monospace" font-size="10" font-weight="700" fill="#ffffff" data-cloud-service-name="true">Pod</text><g transform="translate(122,325) scale(0.625)" fill="#326CE5" stroke="#326CE5" opacity="0.82" data-cloud-service-icon="true"><circle cx="0" cy="0" r="7" fill="none" stroke="currentColor" stroke-width="2"/>
<circle cx="0" cy="0" r="2.5" fill="currentColor"/></g><text x="122" y="340" text-anchor="middle" font-family="monospace" font-size="12" font-weight="600" fill="#0f172a" text-decoration="underline" text-decoration-thickness="1">web-pod-1</text><rect class="uml-node uml-cloud-icon-node" data-uml-id="webPod2" data-provider="K8s" data-service="Pod" x="282" y="290" width="160" height="52" rx="4" ry="4" fill="#E8EFFE" stroke="#326CE5" stroke-width="1.5"/><rect x="282" y="290" width="160" height="30" rx="4" ry="4" fill="#326CE5" stroke="#326CE5" stroke-width="1.5"/><rect x="282" y="312" width="160" height="8" fill="#326CE5"/><line x1="282" y1="320" x2="442" y2="320" stroke="#326CE5" stroke-width="1"/><rect class="cloud-icon-badge" data-provider="K8s" x="286" y="294" width="24" height="16" rx="3" ry="3" fill="#326CE5"/><text x="298" y="302" text-anchor="middle" dominant-baseline="middle" font-family="monospace" font-size="8" font-weight="700" fill="#ffffff">K8s</text><text x="316" y="309" font-family="monospace" font-size="10" font-weight="700" fill="#ffffff" data-cloud-service-name="true">Pod</text><g transform="translate(362,325) scale(0.625)" fill="#326CE5" stroke="#326CE5" opacity="0.82" data-cloud-service-icon="true"><circle cx="0" cy="0" r="7" fill="none" stroke="currentColor" stroke-width="2"/>
<circle cx="0" cy="0" r="2.5" fill="currentColor"/></g><text x="362" y="340" text-anchor="middle" font-family="monospace" font-size="12" font-weight="600" fill="#0f172a" text-decoration="underline" text-decoration-thickness="1">web-pod-2</text><rect class="uml-node uml-cloud-icon-node" data-uml-id="webPod3" data-provider="K8s" data-service="Pod" x="522" y="290" width="160" height="52" rx="4" ry="4" fill="#E8EFFE" stroke="#326CE5" stroke-width="1.5"/><rect x="522" y="290" width="160" height="30" rx="4" ry="4" fill="#326CE5" stroke="#326CE5" stroke-width="1.5"/><rect x="522" y="312" width="160" height="8" fill="#326CE5"/><line x1="522" y1="320" x2="682" y2="320" stroke="#326CE5" stroke-width="1"/><rect class="cloud-icon-badge" data-provider="K8s" x="526" y="294" width="24" height="16" rx="3" ry="3" fill="#326CE5"/><text x="538" y="302" text-anchor="middle" dominant-baseline="middle" font-family="monospace" font-size="8" font-weight="700" fill="#ffffff">K8s</text><text x="556" y="309" font-family="monospace" font-size="10" font-weight="700" fill="#ffffff" data-cloud-service-name="true">Pod</text><g transform="translate(602,325) scale(0.625)" fill="#326CE5" stroke="#326CE5" opacity="0.82" data-cloud-service-icon="true"><circle cx="0" cy="0" r="7" fill="none" stroke="currentColor" stroke-width="2"/>
<circle cx="0" cy="0" r="2.5" fill="currentColor"/></g><text x="602" y="340" text-anchor="middle" font-family="monospace" font-size="12" font-weight="600" fill="#0f172a" text-decoration="underline" text-decoration-thickness="1">web-pod-3</text><rect class="uml-node uml-cloud-icon-node" data-uml-id="webCfg" data-provider="K8s" data-service="ConfigMap" x="402" y="414" width="160" height="52" rx="4" ry="4" fill="#E8EFFE" stroke="#326CE5" stroke-width="1.5"/><rect x="402" y="414" width="160" height="30" rx="4" ry="4" fill="#326CE5" stroke="#326CE5" stroke-width="1.5"/><rect x="402" y="436" width="160" height="8" fill="#326CE5"/><line x1="402" y1="444" x2="562" y2="444" stroke="#326CE5" stroke-width="1"/><rect class="cloud-icon-badge" data-provider="K8s" x="406" y="418" width="24" height="16" rx="3" ry="3" fill="#326CE5"/><text x="418" y="426" text-anchor="middle" dominant-baseline="middle" font-family="monospace" font-size="8" font-weight="700" fill="#ffffff">K8s</text><text x="436" y="433" font-family="monospace" font-size="10" font-weight="700" fill="#ffffff" data-cloud-service-name="true">ConfigMap</text><g transform="translate(482,449) scale(0.625)" fill="#326CE5" stroke="#326CE5" opacity="0.82" data-cloud-service-icon="true"><circle cx="0" cy="0" r="3.5" fill="none" stroke="currentColor" stroke-width="1.8"/>
<path d="M0,-8 L1,-5 L-1,-5 Z" fill="currentColor"/>
<path d="M0,8 L1,5 L-1,5 Z" fill="currentColor"/>
<path d="M-8,0 L-5,-1 L-5,1 Z" fill="currentColor"/>
<path d="M8,0 L5,-1 L5,1 Z" fill="currentColor"/>
<path d="M-5.7,-5.7 L-3.5,-3 L-4.5,-2 Z" fill="currentColor"/>
<path d="M5.7,5.7 L3.5,3 L4.5,2 Z" fill="currentColor"/>
<path d="M5.7,-5.7 L3,3.5 L2,4.5 Z" fill="currentColor"/>
<path d="M-5.7,5.7 L-3,-3.5 L-2,-4.5 Z" fill="currentColor"/></g><text x="482" y="464" text-anchor="middle" font-family="monospace" font-size="12" font-weight="600" fill="#0f172a" text-decoration="underline" text-decoration-thickness="1">nginx-config</text><rect class="uml-node uml-cloud-icon-node" data-uml-id="tlsSecret" data-provider="K8s" data-service="Secret" x="162" y="414" width="160" height="52" rx="4" ry="4" fill="#E8EFFE" stroke="#326CE5" stroke-width="1.5"/><rect x="162" y="414" width="160" height="30" rx="4" ry="4" fill="#326CE5" stroke="#326CE5" stroke-width="1.5"/><rect x="162" y="436" width="160" height="8" fill="#326CE5"/><line x1="162" y1="444" x2="322" y2="444" stroke="#326CE5" stroke-width="1"/><rect class="cloud-icon-badge" data-provider="K8s" x="166" y="418" width="24" height="16" rx="3" ry="3" fill="#326CE5"/><text x="178" y="426" text-anchor="middle" dominant-baseline="middle" font-family="monospace" font-size="8" font-weight="700" fill="#ffffff">K8s</text><text x="196" y="433" font-family="monospace" font-size="10" font-weight="700" fill="#ffffff" data-cloud-service-name="true">Secret</text><text x="242" y="459" text-anchor="middle" font-family="monospace" font-size="12" font-weight="600" fill="#0f172a" text-decoration="underline" text-decoration-thickness="1">tls-secret</text><rect class="uml-node uml-cloud-icon-node" data-uml-id="hpa" data-provider="K8s" data-service="HPA" x="162" y="42" width="160" height="52" rx="4" ry="4" fill="#E8EFFE" stroke="#326CE5" stroke-width="1.5"/><rect x="162" y="42" width="160" height="30" rx="4" ry="4" fill="#326CE5" stroke="#326CE5" stroke-width="1.5"/><rect x="162" y="64" width="160" height="8" fill="#326CE5"/><line x1="162" y1="72" x2="322" y2="72" stroke="#326CE5" stroke-width="1"/><rect class="cloud-icon-badge" data-provider="K8s" x="166" y="46" width="24" height="16" rx="3" ry="3" fill="#326CE5"/><text x="178" y="54" text-anchor="middle" dominant-baseline="middle" font-family="monospace" font-size="8" font-weight="700" fill="#ffffff">K8s</text><text x="196" y="61" font-family="monospace" font-size="10" font-weight="700" fill="#ffffff" data-cloud-service-name="true">HPA</text><text x="242" y="87" text-anchor="middle" font-family="monospace" font-size="12" font-weight="600" fill="#0f172a" text-decoration="underline" text-decoration-thickness="1">web-hpa</text></svg>