<svg xmlns="http://www.w3.org/2000/svg" width="1327" height="520" viewBox="0 0 1327 520" data-orientation="TopToBottom"><rect width="100%" height="100%" fill="#ffffff"/><defs><marker id="arrow-open" viewBox="0 0 10 10" refX="9" refY="5" markerWidth="10" markerHeight="10" markerUnits="userSpaceOnUse" orient="auto-start-reverse"><path d="M0,0 L10,5 L0,10" fill="none" stroke="#1e293b" stroke-width="1.5"/></marker><marker id="arrow-triangle" viewBox="0 0 16 16" refX="15" refY="8" markerWidth="16" markerHeight="16" markerUnits="userSpaceOnUse" orient="auto-start-reverse"><polygon points="0,1 14,8 0,15" fill="#ffffff" stroke="#1e293b" stroke-width="1.5" fill-rule="nonzero"/></marker><marker id="arrow-diamond-filled" viewBox="0 0 14 10" refX="13" refY="5" markerWidth="14" markerHeight="10" markerUnits="userSpaceOnUse" orient="auto-start-reverse"><path d="M0,5 L7,0 L14,5 L7,10 z" fill="#1e293b" stroke="#1e293b" stroke-width="1"/></marker><marker id="arrow-diamond-open" viewBox="0 0 14 10" refX="13" refY="5" markerWidth="14" markerHeight="10" markerUnits="userSpaceOnUse" orient="auto-start-reverse"><path d="M0,5 L7,0 L14,5 L7,10 z" fill="#ffffff" stroke="#1e293b" stroke-width="1"/></marker></defs><defs><marker id="arrow-triangle-filled" viewBox="0 0 12 12" refX="11" refY="6" markerWidth="12" markerHeight="12" markerUnits="userSpaceOnUse" orient="auto-start-reverse"><polygon points="0,0 12,6 0,12" fill="#1e293b" stroke="#1e293b" stroke-width="1.5"/></marker><marker id="arrow-box-filled" viewBox="0 0 12 12" refX="11" refY="6" markerWidth="12" markerHeight="12" markerUnits="userSpaceOnUse" orient="auto-start-reverse"><rect x="2" y="2" width="8" height="8" fill="#1e293b" stroke="#1e293b" stroke-width="1.5"/></marker><marker id="arrow-plus" viewBox="0 0 12 12" refX="11" refY="6" markerWidth="12" markerHeight="12" markerUnits="userSpaceOnUse" orient="auto-start-reverse"><path d="M6,1 L6,11 M1,6 L11,6" fill="none" stroke="#1e293b" stroke-width="1.8" stroke-linecap="round"/></marker><marker id="arrow-cross" viewBox="0 0 12 12" refX="11" refY="6" markerWidth="12" markerHeight="12" markerUnits="userSpaceOnUse" orient="auto-start-reverse"><path d="M2,2 L10,10 M10,2 L2,10" fill="none" stroke="#1e293b" stroke-width="1.8" stroke-linecap="round"/></marker><marker id="arrow-bracket-open" viewBox="0 0 12 14" refX="11" refY="7" markerWidth="12" markerHeight="14" markerUnits="userSpaceOnUse" orient="auto-start-reverse"><path d="M10,1 L4,1 L4,13 L10,13" fill="none" stroke="#1e293b" stroke-width="1.8" stroke-linecap="round" stroke-linejoin="round"/></marker><marker id="arrow-circle-open" viewBox="0 0 12 12" refX="11" refY="6" markerWidth="12" markerHeight="12" markerUnits="userSpaceOnUse" orient="auto-start-reverse"><circle cx="6" cy="6" r="4" fill="#ffffff" stroke="#1e293b" stroke-width="1.5"/></marker><marker id="arrow-circle-filled" viewBox="0 0 12 12" refX="11" refY="6" markerWidth="12" markerHeight="12" markerUnits="userSpaceOnUse" orient="auto-start-reverse"><circle cx="6" cy="6" r="4" fill="#1e293b" stroke="#1e293b" stroke-width="1.5"/></marker><marker id="arrow-double-open" viewBox="0 0 16 12" refX="15" refY="6" markerWidth="16" markerHeight="12" markerUnits="userSpaceOnUse" orient="auto-start-reverse"><path d="M0,1 L8,6 L0,11 M7,1 L15,6 L7,11" fill="none" stroke="#1e293b" stroke-width="1.5" stroke-linejoin="round"/></marker></defs><text x="8" y="8" font-family="monospace" font-size="18" font-weight="600" fill="#0f172a">Kubernetes stateful workload - Postgres database cluster</text><polyline class="uml-relation" data-uml-from="pg" data-uml-to="primary" data-uml-arrow="..&gt;" points="595,68 513,68 642,192 560,192" fill="none" stroke="#1e293b" stroke-width="2" stroke-dasharray="5 3" marker-end="url(#arrow-open)" /><rect class="uml-edge-label-bg" data-uml-label-role="edge-background" x="527" y="105" width="32" height="18" fill="white" opacity="0.85"/><text class="uml-edge-label" data-uml-label-role="edge" x="543" y="118" text-anchor="middle" font-family="monospace" font-size="11" fill="#334155">owns</text><polyline class="uml-relation" data-uml-from="pg" data-uml-to="replica1" data-uml-arrow="..&gt;" points="430,68 513,68 124,316 207,316" fill="none" stroke="#1e293b" stroke-width="2" stroke-dasharray="5 3" marker-end="url(#arrow-open)" /><rect class="uml-edge-label-bg" data-uml-label-role="edge-background" x="300" y="167" width="32" height="18" fill="white" opacity="0.85"/><text class="uml-edge-label" data-uml-label-role="edge" x="316" y="180" text-anchor="middle" font-family="monospace" font-size="11" fill="#334155">owns</text><polyline class="uml-relation" data-uml-from="pg" data-uml-to="replica2" data-uml-arrow="..&gt;" points="512,94 512,192 383,192 383,290" fill="none" stroke="#1e293b" stroke-width="2" stroke-dasharray="5 3" marker-end="url(#arrow-open)" /><rect class="uml-edge-label-bg" data-uml-label-role="edge-background" x="429" y="167" width="32" height="18" fill="white" opacity="0.85"/><text class="uml-edge-label" data-uml-label-role="edge" x="445" y="180" text-anchor="middle" font-family="monospace" font-size="11" fill="#334155">owns</text><polyline class="uml-relation" data-uml-from="headless" data-uml-to="primary" data-uml-arrow="--&gt;" points="336,68 254,68 642,192 560,192" fill="none" stroke="#1e293b" stroke-width="2" marker-end="url(#arrow-open)" /><rect class="uml-edge-label-bg" data-uml-label-role="edge-background" x="460" y="105" width="46" height="18" fill="white" opacity="0.85"/><text class="uml-edge-label" data-uml-label-role="edge" x="483" y="118" text-anchor="middle" font-family="monospace" font-size="11" fill="#334155">routes</text><polyline class="uml-relation" data-uml-from="headless" data-uml-to="replica1" data-uml-arrow="--&gt;" points="253,94 253,192 124,192 124,290" fill="none" stroke="#1e293b" stroke-width="2" marker-end="url(#arrow-open)" /><rect class="uml-edge-label-bg" data-uml-label-role="edge-background" x="233" y="167" width="46" height="18" fill="white" opacity="0.85"/><text class="uml-edge-label" data-uml-label-role="edge" x="256" y="180" text-anchor="middle" font-family="monospace" font-size="11" fill="#334155">routes</text><polyline class="uml-relation" data-uml-from="headless" data-uml-to="replica2" data-uml-arrow="--&gt;" points="253,94 253,192 383,192 383,290" fill="none" stroke="#1e293b" stroke-width="2" marker-end="url(#arrow-open)" /><rect class="uml-edge-label-bg" data-uml-label-role="edge-background" x="362" y="167" width="46" height="18" fill="white" opacity="0.85"/><text class="uml-edge-label" data-uml-label-role="edge" x="385" y="180" text-anchor="middle" font-family="monospace" font-size="11" fill="#334155">routes</text><polyline class="uml-relation" data-uml-from="readSvc" data-uml-to="replica1" data-uml-arrow="--&gt;" points="948,68 1031,68 124,316 207,316" fill="none" stroke="#1e293b" stroke-width="2" marker-end="url(#arrow-open)" /><rect class="uml-edge-label-bg" data-uml-label-role="edge-background" x="436" y="167" width="66" height="18" fill="white" opacity="0.85"/><text class="uml-edge-label" data-uml-label-role="edge" x="469" y="180" text-anchor="middle" font-family="monospace" font-size="11" fill="#334155">read-only</text><polyline class="uml-relation" data-uml-from="readSvc" data-uml-to="replica2" data-uml-arrow="--&gt;" points="948,68 1031,68 383,316 466,316" fill="none" stroke="#1e293b" stroke-width="2" marker-end="url(#arrow-open)" /><rect class="uml-edge-label-bg" data-uml-label-role="edge-background" x="565" y="135" width="66" height="18" fill="white" opacity="0.85"/><text class="uml-edge-label" data-uml-label-role="edge" x="598" y="148" text-anchor="middle" font-family="monospace" font-size="11" fill="#334155">read-only</text><polyline class="uml-relation" data-uml-from="primary" data-uml-to="pv0" data-uml-arrow="--&gt;" points="725,192 642,192 1160,316 1078,316" fill="none" stroke="#1e293b" stroke-width="2" marker-end="url(#arrow-open)" /><rect class="uml-edge-label-bg" data-uml-label-role="edge-background" x="808" y="229" width="46" height="18" fill="white" opacity="0.85"/><text class="uml-edge-label" data-uml-label-role="edge" x="831" y="242" text-anchor="middle" font-family="monospace" font-size="11" fill="#334155">mounts</text><polyline class="uml-relation" data-uml-from="replica1" data-uml-to="pv1" data-uml-arrow="--&gt;" points="207,316 124,316 513,440 430,440" fill="none" stroke="#1e293b" stroke-width="2" marker-end="url(#arrow-open)" /><rect class="uml-edge-label-bg" data-uml-label-role="edge-background" x="295" y="339" width="46" height="18" fill="white" opacity="0.85"/><text class="uml-edge-label" data-uml-label-role="edge" x="318" y="352" text-anchor="middle" font-family="monospace" font-size="11" fill="#334155">mounts</text><polyline class="uml-relation" data-uml-from="replica2" data-uml-to="pv2" data-uml-arrow="--&gt;" points="466,316 383,316 772,440 689,440" fill="none" stroke="#1e293b" stroke-width="2" marker-end="url(#arrow-open)" /><rect class="uml-edge-label-bg" data-uml-label-role="edge-background" x="554" y="339" width="46" height="18" fill="white" opacity="0.85"/><text class="uml-edge-label" data-uml-label-role="edge" x="577" y="352" text-anchor="middle" font-family="monospace" font-size="11" fill="#334155">mounts</text><polyline class="uml-relation" data-uml-from="primary" data-uml-to="pgcfg" data-uml-arrow="--&gt;" points="642,218 642,254 642,290" fill="none" stroke="#1e293b" stroke-width="2" marker-end="url(#arrow-open)" /><rect class="uml-edge-label-bg" data-uml-label-role="edge-background" x="688" y="229" width="46" height="18" fill="white" opacity="0.85"/><text class="uml-edge-label" data-uml-label-role="edge" x="711" y="242" text-anchor="middle" font-family="monospace" font-size="11" fill="#334155">mounts</text><polyline class="uml-relation" data-uml-from="primary" data-uml-to="pgpwd" data-uml-arrow="--&gt;" points="725,192 642,192 901,316 819,316" fill="none" stroke="#1e293b" stroke-width="2" marker-end="url(#arrow-open)" /><rect class="uml-edge-label-bg" data-uml-label-role="edge-background" x="752" y="229" width="38" height="18" fill="white" opacity="0.85"/><text class="uml-edge-label" data-uml-label-role="edge" x="771" y="242" text-anchor="middle" font-family="monospace" font-size="11" fill="#334155">reads</text><polyline class="uml-relation" data-uml-from="primary" data-uml-to="replica1" data-uml-arrow="--&gt;" points="560,192 642,192 124,316 207,316" fill="none" stroke="#1e293b" stroke-width="2" marker-end="url(#arrow-open)" /><rect class="uml-edge-label-bg" data-uml-label-role="edge-background" x="351" y="229" width="74" height="18" fill="white" opacity="0.85"/><text class="uml-edge-label" data-uml-label-role="edge" x="388" y="242" text-anchor="middle" font-family="monospace" font-size="11" fill="#334155">replicates</text><polyline class="uml-relation" data-uml-from="primary" data-uml-to="replica2" data-uml-arrow="--&gt;" points="560,192 642,192 383,316 466,316" fill="none" stroke="#1e293b" stroke-width="2" marker-end="url(#arrow-open)" /><rect class="uml-edge-label-bg" data-uml-label-role="edge-background" x="480" y="229" width="74" height="18" fill="white" opacity="0.85"/><text class="uml-edge-label" data-uml-label-role="edge" x="517" y="242" text-anchor="middle" font-family="monospace" font-size="11" fill="#334155">replicates</text><rect class="uml-node uml-cloud-icon-node" data-uml-id="ns" data-provider="K8s" data-service="Namespace" x="689" y="42" width="165" height="52" rx="4" ry="4" fill="#E8EFFE" stroke="#326CE5" stroke-width="1.5"/><rect x="689" y="42" width="165" height="30" rx="4" ry="4" fill="#326CE5" stroke="#326CE5" stroke-width="1.5"/><rect x="689" y="64" width="165" height="8" fill="#326CE5"/><line x1="689" y1="72" x2="854" y2="72" stroke="#326CE5" stroke-width="1"/><rect class="cloud-icon-badge" data-provider="K8s" x="693" y="46" width="24" height="16" rx="3" ry="3" fill="#326CE5"/><text x="705" y="54" text-anchor="middle" dominant-baseline="middle" font-family="monospace" font-size="8" font-weight="700" fill="#ffffff">K8s</text><text x="723" y="61" font-family="monospace" font-size="10" font-weight="700" fill="#ffffff" data-cloud-service-name="true">Namespace</text><text x="771" y="87" text-anchor="middle" font-family="monospace" font-size="12" font-weight="600" fill="#0f172a" text-decoration="underline" text-decoration-thickness="1">database</text><rect class="uml-node uml-cloud-icon-node" data-uml-id="pg" data-provider="K8s" data-service="StatefulSet" x="430" y="42" width="165" height="52" rx="4" ry="4" fill="#E8EFFE" stroke="#326CE5" stroke-width="1.5"/><rect x="430" y="42" width="165" height="30" rx="4" ry="4" fill="#326CE5" stroke="#326CE5" stroke-width="1.5"/><rect x="430" y="64" width="165" height="8" fill="#326CE5"/><line x1="430" y1="72" x2="595" y2="72" stroke="#326CE5" stroke-width="1"/><rect class="cloud-icon-badge" data-provider="K8s" x="434" y="46" width="24" height="16" rx="3" ry="3" fill="#326CE5"/><text x="446" y="54" text-anchor="middle" dominant-baseline="middle" font-family="monospace" font-size="8" font-weight="700" fill="#ffffff">K8s</text><text x="464" y="61" font-family="monospace" font-size="10" font-weight="700" fill="#ffffff" data-cloud-service-name="true">StatefulSet</text><text x="512" y="87" text-anchor="middle" font-family="monospace" font-size="12" font-weight="600" fill="#0f172a" text-decoration="underline" text-decoration-thickness="1">postgres-sts</text><rect class="uml-node uml-cloud-icon-node" data-uml-id="primary" data-provider="K8s" data-service="Pod" x="560" y="166" width="165" height="52" rx="4" ry="4" fill="#E8EFFE" stroke="#326CE5" stroke-width="1.5"/><rect x="560" y="166" width="165" height="30" rx="4" ry="4" fill="#326CE5" stroke="#326CE5" stroke-width="1.5"/><rect x="560" y="188" width="165" height="8" fill="#326CE5"/><line x1="560" y1="196" x2="725" y2="196" stroke="#326CE5" stroke-width="1"/><rect class="cloud-icon-badge" data-provider="K8s" x="564" y="170" width="24" height="16" rx="3" ry="3" fill="#326CE5"/><text x="576" y="178" text-anchor="middle" dominant-baseline="middle" font-family="monospace" font-size="8" font-weight="700" fill="#ffffff">K8s</text><text x="594" y="185" font-family="monospace" font-size="10" font-weight="700" fill="#ffffff" data-cloud-service-name="true">Pod</text><g transform="translate(642,201) scale(0.625)" fill="#326CE5" stroke="#326CE5" opacity="0.82" data-cloud-service-icon="true"><circle cx="0" cy="0" r="7" fill="none" stroke="currentColor" stroke-width="2"/>
<circle cx="0" cy="0" r="2.5" fill="currentColor"/></g><text x="642" y="216" text-anchor="middle" font-family="monospace" font-size="12" font-weight="600" fill="#0f172a" text-decoration="underline" text-decoration-thickness="1">pg-0</text><rect class="uml-node uml-cloud-icon-node" data-uml-id="replica1" data-provider="K8s" data-service="Pod" x="42" y="290" width="165" height="52" rx="4" ry="4" fill="#E8EFFE" stroke="#326CE5" stroke-width="1.5"/><rect x="42" y="290" width="165" height="30" rx="4" ry="4" fill="#326CE5" stroke="#326CE5" stroke-width="1.5"/><rect x="42" y="312" width="165" height="8" fill="#326CE5"/><line x1="42" y1="320" x2="207" y2="320" stroke="#326CE5" stroke-width="1"/><rect class="cloud-icon-badge" data-provider="K8s" x="46" y="294" width="24" height="16" rx="3" ry="3" fill="#326CE5"/><text x="58" y="302" text-anchor="middle" dominant-baseline="middle" font-family="monospace" font-size="8" font-weight="700" fill="#ffffff">K8s</text><text x="76" y="309" font-family="monospace" font-size="10" font-weight="700" fill="#ffffff" data-cloud-service-name="true">Pod</text><g transform="translate(124,325) scale(0.625)" fill="#326CE5" stroke="#326CE5" opacity="0.82" data-cloud-service-icon="true"><circle cx="0" cy="0" r="7" fill="none" stroke="currentColor" stroke-width="2"/>
<circle cx="0" cy="0" r="2.5" fill="currentColor"/></g><text x="124" y="340" text-anchor="middle" font-family="monospace" font-size="12" font-weight="600" fill="#0f172a" text-decoration="underline" text-decoration-thickness="1">pg-1</text><rect class="uml-node uml-cloud-icon-node" data-uml-id="replica2" data-provider="K8s" data-service="Pod" x="301" y="290" width="165" height="52" rx="4" ry="4" fill="#E8EFFE" stroke="#326CE5" stroke-width="1.5"/><rect x="301" y="290" width="165" height="30" rx="4" ry="4" fill="#326CE5" stroke="#326CE5" stroke-width="1.5"/><rect x="301" y="312" width="165" height="8" fill="#326CE5"/><line x1="301" y1="320" x2="466" y2="320" stroke="#326CE5" stroke-width="1"/><rect class="cloud-icon-badge" data-provider="K8s" x="305" y="294" width="24" height="16" rx="3" ry="3" fill="#326CE5"/><text x="317" y="302" text-anchor="middle" dominant-baseline="middle" font-family="monospace" font-size="8" font-weight="700" fill="#ffffff">K8s</text><text x="335" y="309" font-family="monospace" font-size="10" font-weight="700" fill="#ffffff" data-cloud-service-name="true">Pod</text><g transform="translate(383,325) scale(0.625)" fill="#326CE5" stroke="#326CE5" opacity="0.82" data-cloud-service-icon="true"><circle cx="0" cy="0" r="7" fill="none" stroke="currentColor" stroke-width="2"/>
<circle cx="0" cy="0" r="2.5" fill="currentColor"/></g><text x="383" y="340" text-anchor="middle" font-family="monospace" font-size="12" font-weight="600" fill="#0f172a" text-decoration="underline" text-decoration-thickness="1">pg-2</text><rect class="uml-node uml-cloud-icon-node" data-uml-id="headless" data-provider="K8s" data-service="Service" x="171" y="42" width="165" height="52" rx="4" ry="4" fill="#E8EFFE" stroke="#326CE5" stroke-width="1.5"/><rect x="171" y="42" width="165" height="30" rx="4" ry="4" fill="#326CE5" stroke="#326CE5" stroke-width="1.5"/><rect x="171" y="64" width="165" height="8" fill="#326CE5"/><line x1="171" y1="72" x2="336" y2="72" stroke="#326CE5" stroke-width="1"/><rect class="cloud-icon-badge" data-provider="K8s" x="175" y="46" width="24" height="16" rx="3" ry="3" fill="#326CE5"/><text x="187" y="54" text-anchor="middle" dominant-baseline="middle" font-family="monospace" font-size="8" font-weight="700" fill="#ffffff">K8s</text><text x="205" y="61" font-family="monospace" font-size="10" font-weight="700" fill="#ffffff" data-cloud-service-name="true">Service</text><g transform="translate(253,77) scale(0.625)" fill="#326CE5" stroke="#326CE5" opacity="0.82" data-cloud-service-icon="true"><circle cx="0" cy="0" r="6" fill="none" stroke="currentColor" stroke-width="1.8"/>
<circle cx="0" cy="-6" r="1.8" fill="currentColor"/>
<circle cx="5.2" cy="3" r="1.8" fill="currentColor"/>
<circle cx="-5.2" cy="3" r="1.8" fill="currentColor"/>
<line x1="0" y1="-4.2" x2="0" y2="-1" stroke="currentColor" stroke-width="1"/>
<line x1="4" y1="2" x2="1.7" y2="0.5" stroke="currentColor" stroke-width="1"/>
<line x1="-4" y1="2" x2="-1.7" y2="0.5" stroke="currentColor" stroke-width="1"/></g><text x="253" y="92" text-anchor="middle" font-family="monospace" font-size="12" font-weight="600" fill="#0f172a" text-decoration="underline" text-decoration-thickness="1">postgres-headless</text><rect class="uml-node uml-cloud-icon-node" data-uml-id="readSvc" data-provider="K8s" data-service="Service" x="948" y="42" width="165" height="52" rx="4" ry="4" fill="#E8EFFE" stroke="#326CE5" stroke-width="1.5"/><rect x="948" y="42" width="165" height="30" rx="4" ry="4" fill="#326CE5" stroke="#326CE5" stroke-width="1.5"/><rect x="948" y="64" width="165" height="8" fill="#326CE5"/><line x1="948" y1="72" x2="1113" y2="72" stroke="#326CE5" stroke-width="1"/><rect class="cloud-icon-badge" data-provider="K8s" x="952" y="46" width="24" height="16" rx="3" ry="3" fill="#326CE5"/><text x="964" y="54" text-anchor="middle" dominant-baseline="middle" font-family="monospace" font-size="8" font-weight="700" fill="#ffffff">K8s</text><text x="982" y="61" font-family="monospace" font-size="10" font-weight="700" fill="#ffffff" data-cloud-service-name="true">Service</text><g transform="translate(1030,77) scale(0.625)" fill="#326CE5" stroke="#326CE5" opacity="0.82" data-cloud-service-icon="true"><circle cx="0" cy="0" r="6" fill="none" stroke="currentColor" stroke-width="1.8"/>
<circle cx="0" cy="-6" r="1.8" fill="currentColor"/>
<circle cx="5.2" cy="3" r="1.8" fill="currentColor"/>
<circle cx="-5.2" cy="3" r="1.8" fill="currentColor"/>
<line x1="0" y1="-4.2" x2="0" y2="-1" stroke="currentColor" stroke-width="1"/>
<line x1="4" y1="2" x2="1.7" y2="0.5" stroke="currentColor" stroke-width="1"/>
<line x1="-4" y1="2" x2="-1.7" y2="0.5" stroke="currentColor" stroke-width="1"/></g><text x="1030" y="92" text-anchor="middle" font-family="monospace" font-size="12" font-weight="600" fill="#0f172a" text-decoration="underline" text-decoration-thickness="1">postgres-read</text><rect class="uml-node uml-cloud-icon-node" data-uml-id="pv0" data-provider="K8s" data-service="PersistentVolume" x="1078" y="290" width="165" height="52" rx="4" ry="4" fill="#E8EFFE" stroke="#326CE5" stroke-width="1.5"/><rect x="1078" y="290" width="165" height="30" rx="4" ry="4" fill="#326CE5" stroke="#326CE5" stroke-width="1.5"/><rect x="1078" y="312" width="165" height="8" fill="#326CE5"/><line x1="1078" y1="320" x2="1243" y2="320" stroke="#326CE5" stroke-width="1"/><rect class="cloud-icon-badge" data-provider="K8s" x="1082" y="294" width="24" height="16" rx="3" ry="3" fill="#326CE5"/><text x="1094" y="302" text-anchor="middle" dominant-baseline="middle" font-family="monospace" font-size="8" font-weight="700" fill="#ffffff">K8s</text><text x="1112" y="309" font-family="monospace" font-size="10" font-weight="700" fill="#ffffff" data-cloud-service-name="true">PersistentVolume</text><text x="1160" y="335" text-anchor="middle" font-family="monospace" font-size="12" font-weight="600" fill="#0f172a" text-decoration="underline" text-decoration-thickness="1">pg-data-0</text><rect class="uml-node uml-cloud-icon-node" data-uml-id="pv1" data-provider="K8s" data-service="PersistentVolume" x="430" y="414" width="165" height="52" rx="4" ry="4" fill="#E8EFFE" stroke="#326CE5" stroke-width="1.5"/><rect x="430" y="414" width="165" height="30" rx="4" ry="4" fill="#326CE5" stroke="#326CE5" stroke-width="1.5"/><rect x="430" y="436" width="165" height="8" fill="#326CE5"/><line x1="430" y1="444" x2="595" y2="444" stroke="#326CE5" stroke-width="1"/><rect class="cloud-icon-badge" data-provider="K8s" x="434" y="418" width="24" height="16" rx="3" ry="3" fill="#326CE5"/><text x="446" y="426" text-anchor="middle" dominant-baseline="middle" font-family="monospace" font-size="8" font-weight="700" fill="#ffffff">K8s</text><text x="464" y="433" font-family="monospace" font-size="10" font-weight="700" fill="#ffffff" data-cloud-service-name="true">PersistentVolume</text><text x="512" y="459" text-anchor="middle" font-family="monospace" font-size="12" font-weight="600" fill="#0f172a" text-decoration="underline" text-decoration-thickness="1">pg-data-1</text><rect class="uml-node uml-cloud-icon-node" data-uml-id="pv2" data-provider="K8s" data-service="PersistentVolume" x="689" y="414" width="165" height="52" rx="4" ry="4" fill="#E8EFFE" stroke="#326CE5" stroke-width="1.5"/><rect x="689" y="414" width="165" height="30" rx="4" ry="4" fill="#326CE5" stroke="#326CE5" stroke-width="1.5"/><rect x="689" y="436" width="165" height="8" fill="#326CE5"/><line x1="689" y1="444" x2="854" y2="444" stroke="#326CE5" stroke-width="1"/><rect class="cloud-icon-badge" data-provider="K8s" x="693" y="418" width="24" height="16" rx="3" ry="3" fill="#326CE5"/><text x="705" y="426" text-anchor="middle" dominant-baseline="middle" font-family="monospace" font-size="8" font-weight="700" fill="#ffffff">K8s</text><text x="723" y="433" font-family="monospace" font-size="10" font-weight="700" fill="#ffffff" data-cloud-service-name="true">PersistentVolume</text><text x="771" y="459" text-anchor="middle" font-family="monospace" font-size="12" font-weight="600" fill="#0f172a" text-decoration="underline" text-decoration-thickness="1">pg-data-2</text><rect class="uml-node uml-cloud-icon-node" data-uml-id="pgcfg" data-provider="K8s" data-service="ConfigMap" x="560" y="290" width="165" height="52" rx="4" ry="4" fill="#E8EFFE" stroke="#326CE5" stroke-width="1.5"/><rect x="560" y="290" width="165" height="30" rx="4" ry="4" fill="#326CE5" stroke="#326CE5" stroke-width="1.5"/><rect x="560" y="312" width="165" height="8" fill="#326CE5"/><line x1="560" y1="320" x2="725" y2="320" stroke="#326CE5" stroke-width="1"/><rect class="cloud-icon-badge" data-provider="K8s" x="564" y="294" width="24" height="16" rx="3" ry="3" fill="#326CE5"/><text x="576" y="302" text-anchor="middle" dominant-baseline="middle" font-family="monospace" font-size="8" font-weight="700" fill="#ffffff">K8s</text><text x="594" y="309" font-family="monospace" font-size="10" font-weight="700" fill="#ffffff" data-cloud-service-name="true">ConfigMap</text><g transform="translate(642,325) scale(0.625)" fill="#326CE5" stroke="#326CE5" opacity="0.82" data-cloud-service-icon="true"><circle cx="0" cy="0" r="3.5" fill="none" stroke="currentColor" stroke-width="1.8"/>
<path d="M0,-8 L1,-5 L-1,-5 Z" fill="currentColor"/>
<path d="M0,8 L1,5 L-1,5 Z" fill="currentColor"/>
<path d="M-8,0 L-5,-1 L-5,1 Z" fill="currentColor"/>
<path d="M8,0 L5,-1 L5,1 Z" fill="currentColor"/>
<path d="M-5.7,-5.7 L-3.5,-3 L-4.5,-2 Z" fill="currentColor"/>
<path d="M5.7,5.7 L3.5,3 L4.5,2 Z" fill="currentColor"/>
<path d="M5.7,-5.7 L3,3.5 L2,4.5 Z" fill="currentColor"/>
<path d="M-5.7,5.7 L-3,-3.5 L-2,-4.5 Z" fill="currentColor"/></g><text x="642" y="340" text-anchor="middle" font-family="monospace" font-size="12" font-weight="600" fill="#0f172a" text-decoration="underline" text-decoration-thickness="1">pg-config</text><rect class="uml-node uml-cloud-icon-node" data-uml-id="pgpwd" data-provider="K8s" data-service="Secret" x="819" y="290" width="165" height="52" rx="4" ry="4" fill="#E8EFFE" stroke="#326CE5" stroke-width="1.5"/><rect x="819" y="290" width="165" height="30" rx="4" ry="4" fill="#326CE5" stroke="#326CE5" stroke-width="1.5"/><rect x="819" y="312" width="165" height="8" fill="#326CE5"/><line x1="819" y1="320" x2="984" y2="320" stroke="#326CE5" stroke-width="1"/><rect class="cloud-icon-badge" data-provider="K8s" x="823" y="294" width="24" height="16" rx="3" ry="3" fill="#326CE5"/><text x="835" y="302" text-anchor="middle" dominant-baseline="middle" font-family="monospace" font-size="8" font-weight="700" fill="#ffffff">K8s</text><text x="853" y="309" font-family="monospace" font-size="10" font-weight="700" fill="#ffffff" data-cloud-service-name="true">Secret</text><text x="901" y="335" text-anchor="middle" font-family="monospace" font-size="12" font-weight="600" fill="#0f172a" text-decoration="underline" text-decoration-thickness="1">pg-credentials</text></svg>