<svg xmlns="http://www.w3.org/2000/svg" width="760" height="262" viewBox="0 0 760 262"><rect width="100%" height="100%" fill="#f0f4f8"/><defs><marker id="arrow-open" viewBox="0 0 10 10" refX="9" refY="5" markerWidth="10" markerHeight="10" orient="auto-start-reverse"><path d="M0,0 L10,5 L0,10" fill="none" stroke="#1e293b" stroke-width="1.5"/></marker><marker id="arrow-triangle" viewBox="0 0 12 12" refX="11" refY="6" markerWidth="12" markerHeight="12" orient="auto-start-reverse"><polygon points="0,0 12,6 0,12" fill="white" stroke="#1e293b" stroke-width="1.5" fill-rule="nonzero"/></marker><marker id="arrow-diamond-filled" viewBox="0 0 14 10" refX="13" refY="5" markerWidth="14" markerHeight="10" orient="auto-start-reverse"><path d="M0,5 L7,0 L14,5 L7,10 z" fill="#1e293b" stroke="#1e293b" stroke-width="1"/></marker><marker id="arrow-diamond-open" viewBox="0 0 14 10" refX="13" refY="5" markerWidth="14" markerHeight="10" orient="auto-start-reverse"><path d="M0,5 L7,0 L14,5 L7,10 z" fill="white" stroke="#1e293b" stroke-width="1"/></marker></defs><text x="40" y="28" font-family="monospace" font-size="18" font-weight="600">Service Topology</text><desc data-uml-id="API">API</desc><rect class="uml-node uml-component" data-uml-kind="component" x="40" y="122" width="200" height="80" rx="4" ry="4" fill="#f0f4f8" stroke="#1e293b" stroke-width="1"/><rect x="36" y="134" width="16" height="8" fill="#f0f4f8" stroke="#1e293b" stroke-width="1"/><rect x="36" y="182" width="16" height="8" fill="#f0f4f8" stroke="#1e293b" stroke-width="1"/><text x="140" y="168" text-anchor="middle" font-family="monospace" font-size="13" font-weight="600" fill="#0f172a">API</text><text x="140" y="136" text-anchor="middle" font-family="monospace" font-size="10" fill="#0f172a">«component»</text><desc data-uml-id="Gateway">Gateway</desc><circle class="uml-node uml-interface" data-uml-kind="interface" cx="380" cy="162" r="18" fill="#e2e8f0" stroke="#1e293b" stroke-width="1.5"/><text x="380" y="190" text-anchor="middle" font-family="monospace" font-size="13" font-weight="600" fill="#0f172a">Gateway</text><text x="380" y="204" text-anchor="middle" font-family="monospace" font-size="10" fill="#0f172a">«interface»</text><desc data-uml-id="Worker">Worker</desc><rect class="uml-node uml-component" data-uml-kind="component" x="520" y="122" width="200" height="80" rx="4" ry="4" fill="#f0f4f8" stroke="#1e293b" stroke-width="1"/><rect x="516" y="134" width="16" height="8" fill="#f0f4f8" stroke="#1e293b" stroke-width="1"/><rect x="516" y="182" width="16" height="8" fill="#f0f4f8" stroke="#1e293b" stroke-width="1"/><text x="620" y="168" text-anchor="middle" font-family="monospace" font-size="13" font-weight="600" fill="#0f172a">Worker</text><text x="620" y="136" text-anchor="middle" font-family="monospace" font-size="10" fill="#0f172a">«component»</text><line class="uml-relation" data-uml-from="API" data-uml-to="Gateway" data-uml-arrow="--&gt;" x1="240" y1="162" x2="362" y2="162" stroke="#1e293b" stroke-width="2" marker-end="url(#arrow-open)" /><text x="301" y="150" text-anchor="middle" font-family="monospace" font-size="11" fill="#1e293b">depends</text><line class="uml-relation" data-uml-from="Worker" data-uml-to="API" data-uml-arrow="--&gt;" x1="520" y1="162" x2="240" y2="162" stroke="#1e293b" stroke-width="2" marker-end="url(#arrow-open)" /><text x="380" y="150" text-anchor="middle" font-family="monospace" font-size="11" fill="#1e293b">posts</text></svg>