<svg xmlns="http://www.w3.org/2000/svg" width="328" height="240" viewBox="0 0 328 240"><rect width="100%" height="100%" fill="white"/><rect x="24" y="24" width="120" height="32" rx="4" ry="4" fill="#f6f6f6" stroke="#111" stroke-width="1"/><text x="84" y="45" text-anchor="middle" font-family="monospace" font-size="13" fill="#111111">Alice</text><rect x="184" y="24" width="120" height="32" rx="4" ry="4" fill="#f6f6f6" stroke="#111" stroke-width="1"/><text x="244" y="45" text-anchor="middle" font-family="monospace" font-size="13" fill="#111111">Bob</text><line x1="84" y1="56" x2="84" y2="184" stroke="#555" stroke-width="1" stroke-dasharray="6 4"/><line x1="244" y1="56" x2="244" y2="184" stroke="#555" stroke-width="1" stroke-dasharray="6 4"/><line x1="84" y1="80" x2="244" y2="80" stroke="#111" stroke-width="1.5"/><polygon points="244,80 236,75 236,85" fill="#111" stroke="#111" stroke-width="1"/><text x="92" y="56" text-anchor="start" font-family="monospace" font-size="12" fill="#111">Hello with plain</text><text x="92" y="72" text-anchor="start" font-family="monospace" font-size="12" fill="#111">theme</text><line x1="244" y1="160" x2="84" y2="160" stroke="#111" stroke-width="1.5" stroke-dasharray="6 4"/><polygon points="84,160 92,155 92,165" fill="#111" stroke="#111" stroke-width="1"/><text x="92" y="152" text-anchor="start" font-family="monospace" font-size="12" fill="#111">Response</text><rect x="24" y="184" width="120" height="32" rx="4" ry="4" fill="#f6f6f6" stroke="#111" stroke-width="1"/><text x="84" y="205" text-anchor="middle" font-family="monospace" font-size="13" fill="#111111">Alice</text><rect x="184" y="184" width="120" height="32" rx="4" ry="4" fill="#f6f6f6" stroke="#111" stroke-width="1"/><text x="244" y="205" text-anchor="middle" font-family="monospace" font-size="13" fill="#111111">Bob</text></svg>