<svg xmlns="http://www.w3.org/2000/svg" width="232" height="228" viewBox="0 0 232 228"><rect width="100%" height="100%" fill="white"/><rect x="16" y="16" width="80" height="32" rx="4" ry="4" fill="#edf3f8" stroke="#2f4f6f" stroke-width="1"/><text x="56" y="37" text-anchor="middle" font-family="monospace" font-size="13" fill="#111111">Alice</text><rect x="116" y="16" width="80" height="32" rx="4" ry="4" fill="#edf3f8" stroke="#2f4f6f" stroke-width="1"/><text x="156" y="37" text-anchor="middle" font-family="monospace" font-size="13" fill="#111111">Bob</text><line x1="56" y1="48" x2="56" y2="180" stroke="#6d7f91" stroke-width="1" stroke-dasharray="6 4"/><line x1="156" y1="48" x2="156" y2="180" stroke="#6d7f91" stroke-width="1" stroke-dasharray="6 4"/><line x1="56" y1="112" x2="156" y2="112" stroke="#2f4f6f" stroke-width="1.5"/><polygon points="156,112 148,107 148,117" fill="#2f4f6f" stroke="#2f4f6f" stroke-width="1"/><text x="64" y="72" text-anchor="start" font-family="monospace" font-size="12" fill="#2f4f6f">Hello with</text><text x="64" y="88" text-anchor="start" font-family="monospace" font-size="12" fill="#2f4f6f">spacelab</text><text x="64" y="104" text-anchor="start" font-family="monospace" font-size="12" fill="#2f4f6f">theme</text><line x1="156" y1="164" x2="56" y2="164" stroke="#2f4f6f" stroke-width="1.5" stroke-dasharray="6 4"/><polygon points="56,164 64,159 64,169" fill="#2f4f6f" stroke="#2f4f6f" stroke-width="1"/><text x="64" y="156" text-anchor="start" font-family="monospace" font-size="12" fill="#2f4f6f">Response</text><rect x="16" y="180" width="80" height="32" rx="4" ry="4" fill="#edf3f8" stroke="#2f4f6f" stroke-width="1"/><text x="56" y="201" text-anchor="middle" font-family="monospace" font-size="13" fill="#111111">Alice</text><rect x="116" y="180" width="80" height="32" rx="4" ry="4" fill="#edf3f8" stroke="#2f4f6f" stroke-width="1"/><text x="156" y="201" text-anchor="middle" font-family="monospace" font-size="13" fill="#111111">Bob</text></svg>