<svg xmlns="http://www.w3.org/2000/svg" width="328" height="240" viewBox="0 0 328 240"><rect width="100%" height="100%" fill="white"/><rect x="24" y="24" width="120" height="32" rx="4" ry="4" fill="#edf3f8" stroke="#2f4f6f" stroke-width="1"/><text x="84" y="45" text-anchor="middle" font-family="monospace" font-size="13">Alice</text><rect x="184" y="24" width="120" height="32" rx="4" ry="4" fill="#edf3f8" stroke="#2f4f6f" stroke-width="1"/><text x="244" y="45" text-anchor="middle" font-family="monospace" font-size="13">Bob</text><line x1="84" y1="56" x2="84" y2="184" stroke="#6d7f91" stroke-width="1" stroke-dasharray="6 4"/><line x1="244" y1="56" x2="244" y2="184" stroke="#6d7f91" stroke-width="1" stroke-dasharray="6 4"/><line x1="84" y1="80" x2="244" y2="80" stroke="#2f4f6f" stroke-width="1.5"/><polygon points="244,80 238,76 238,84" fill="#2f4f6f"/><text x="166" y="56" text-anchor="middle" font-family="monospace" font-size="12">Hello with spacelab</text><text x="166" y="72" text-anchor="middle" font-family="monospace" font-size="12">theme</text><line x1="244" y1="160" x2="84" y2="160" stroke="#2f4f6f" stroke-width="1.5" stroke-dasharray="6 4"/><polygon points="84,160 90,156 90,164" fill="#2f4f6f"/><text x="166" y="152" text-anchor="middle" font-family="monospace" font-size="12">Response</text><rect x="24" y="184" width="120" height="32" rx="4" ry="4" fill="#edf3f8" stroke="#2f4f6f" stroke-width="1"/><text x="84" y="205" text-anchor="middle" font-family="monospace" font-size="13">Alice</text><rect x="184" y="184" width="120" height="32" rx="4" ry="4" fill="#edf3f8" stroke="#2f4f6f" stroke-width="1"/><text x="244" y="205" text-anchor="middle" font-family="monospace" font-size="13">Bob</text></svg>