<svg xmlns="http://www.w3.org/2000/svg" width="312" height="312" viewBox="0 0 312 312"><rect width="100%" height="100%" fill="white"/><text x="16" y="16" font-family="monospace" font-size="18" font-weight="600" fill="#111">Plain Theme Example</text><rect x="16" y="44" width="80" height="32" rx="4" ry="4" fill="#f6f6f6" stroke="#111" stroke-width="1"/><text x="56" y="65" text-anchor="middle" font-family="monospace" font-size="13" fill="#111111">Client</text><rect x="116" y="44" width="80" height="32" rx="4" ry="4" fill="#f6f6f6" stroke="#111" stroke-width="1"/><text x="156" y="65" text-anchor="middle" font-family="monospace" font-size="13" fill="#111111">Server</text><ellipse cx="256" cy="50" rx="38" ry="6" fill="#e9f5ff" stroke="#1b5e8a" stroke-width="1"/><rect x="218" y="50" width="76" height="20" fill="#e9f5ff" stroke="#1b5e8a" stroke-width="1"/><ellipse cx="256" cy="70" rx="38" ry="6" fill="#e9f5ff" stroke="#1b5e8a" stroke-width="1"/><text x="256" y="65" text-anchor="middle" font-family="monospace" font-size="13" fill="#111111">DB</text><line x1="56" y1="76" x2="56" y2="264" stroke="#555" stroke-width="1" stroke-dasharray="6 4"/><line x1="156" y1="76" x2="156" y2="264" stroke="#555" stroke-width="1" stroke-dasharray="6 4"/><line x1="256" y1="76" x2="256" y2="264" stroke="#555" stroke-width="1" stroke-dasharray="6 4"/><line x1="56" y1="124" x2="156" y2="124" stroke="#111" stroke-width="1.5"/><polygon points="156,124 148,119 148,129" fill="#111" stroke="#111" stroke-width="1"/><text x="64" y="100" text-anchor="start" font-family="monospace" font-size="12" fill="#111">GET</text><text x="64" y="116" text-anchor="start" font-family="monospace" font-size="12" fill="#111">/api/users</text><line x1="156" y1="180" x2="256" y2="180" stroke="#111" stroke-width="1.5"/><polygon points="256,180 248,175 248,185" fill="#111" stroke="#111" stroke-width="1"/><text x="164" y="156" text-anchor="start" font-family="monospace" font-size="12" fill="#111">SELECT *</text><text x="164" y="172" text-anchor="start" font-family="monospace" font-size="12" fill="#111">FROM users</text><line x1="256" y1="220" x2="156" y2="220" stroke="#111" stroke-width="1.5" stroke-dasharray="6 4"/><polygon points="156,220 164,215 164,225" fill="#111" stroke="#111" stroke-width="1"/><text x="164" y="212" text-anchor="start" font-family="monospace" font-size="12" fill="#111">rows</text><line x1="156" y1="248" x2="56" y2="248" stroke="#111" stroke-width="1.5" stroke-dasharray="6 4"/><polygon points="56,248 64,243 64,253" fill="#111" stroke="#111" stroke-width="1"/><text x="64" y="240" text-anchor="start" font-family="monospace" font-size="12" fill="#111">200 OK</text><rect x="16" y="264" width="80" height="32" rx="4" ry="4" fill="#f6f6f6" stroke="#111" stroke-width="1"/><text x="56" y="285" text-anchor="middle" font-family="monospace" font-size="13" fill="#111111">Client</text><rect x="116" y="264" width="80" height="32" rx="4" ry="4" fill="#f6f6f6" stroke="#111" stroke-width="1"/><text x="156" y="285" text-anchor="middle" font-family="monospace" font-size="13" fill="#111111">Server</text><ellipse cx="256" cy="270" rx="38" ry="6" fill="#e9f5ff" stroke="#1b5e8a" stroke-width="1"/><rect x="218" y="270" width="76" height="20" fill="#e9f5ff" stroke="#1b5e8a" stroke-width="1"/><ellipse cx="256" cy="290" rx="38" ry="6" fill="#e9f5ff" stroke="#1b5e8a" stroke-width="1"/><text x="256" y="285" text-anchor="middle" font-family="monospace" font-size="13" fill="#111111">DB</text></svg>