<svg xmlns="http://www.w3.org/2000/svg" width="488" height="308" viewBox="0 0 488 308"><rect width="100%" height="100%" fill="white"/><text x="24" y="24" font-family="monospace" font-size="18" font-weight="600" fill="#111">Plain Theme Example</text><rect x="24" y="52" width="120" height="32" rx="4" ry="4" fill="#f6f6f6" stroke="#111" stroke-width="1"/><text x="84" y="73" text-anchor="middle" font-family="monospace" font-size="13" fill="#111111">Client</text><rect x="184" y="52" width="120" height="32" rx="4" ry="4" fill="#f6f6f6" stroke="#111" stroke-width="1"/><text x="244" y="73" text-anchor="middle" font-family="monospace" font-size="13" fill="#111111">Server</text><ellipse cx="404" cy="58" rx="58" ry="6" fill="#e9f5ff" stroke="#1b5e8a" stroke-width="1"/><rect x="346" y="58" width="116" height="20" fill="#e9f5ff" stroke="#1b5e8a" stroke-width="1"/><ellipse cx="404" cy="78" rx="58" ry="6" fill="#e9f5ff" stroke="#1b5e8a" stroke-width="1"/><text x="404" y="73" text-anchor="middle" font-family="monospace" font-size="13" fill="#111111">DB</text><line x1="84" y1="84" x2="84" y2="252" stroke="#555" stroke-width="1" stroke-dasharray="6 4"/><line x1="244" y1="84" x2="244" y2="252" stroke="#555" stroke-width="1" stroke-dasharray="6 4"/><line x1="404" y1="84" x2="404" y2="252" stroke="#555" stroke-width="1" stroke-dasharray="6 4"/><line x1="84" y1="108" x2="244" y2="108" stroke="#111" stroke-width="1.5"/><polygon points="244,108 236,103 236,113" fill="#111" stroke="#111" stroke-width="1"/><text x="92" y="100" text-anchor="start" font-family="monospace" font-size="12" fill="#111">GET /api/users</text><line x1="244" y1="148" x2="404" y2="148" stroke="#111" stroke-width="1.5"/><polygon points="404,148 396,143 396,153" fill="#111" stroke="#111" stroke-width="1"/><text x="252" y="140" text-anchor="start" font-family="monospace" font-size="12" fill="#111">SELECT * FROM users</text><line x1="404" y1="188" x2="244" y2="188" stroke="#111" stroke-width="1.5" stroke-dasharray="6 4"/><polygon points="244,188 252,183 252,193" fill="#111" stroke="#111" stroke-width="1"/><text x="252" y="180" text-anchor="start" font-family="monospace" font-size="12" fill="#111">rows</text><line x1="244" y1="228" x2="84" y2="228" stroke="#111" stroke-width="1.5" stroke-dasharray="6 4"/><polygon points="84,228 92,223 92,233" fill="#111" stroke="#111" stroke-width="1"/><text x="92" y="220" text-anchor="start" font-family="monospace" font-size="12" fill="#111">200 OK</text><rect x="24" y="252" width="120" height="32" rx="4" ry="4" fill="#f6f6f6" stroke="#111" stroke-width="1"/><text x="84" y="273" text-anchor="middle" font-family="monospace" font-size="13" fill="#111111">Client</text><rect x="184" y="252" width="120" height="32" rx="4" ry="4" fill="#f6f6f6" stroke="#111" stroke-width="1"/><text x="244" y="273" text-anchor="middle" font-family="monospace" font-size="13" fill="#111111">Server</text><ellipse cx="404" cy="258" rx="58" ry="6" fill="#e9f5ff" stroke="#1b5e8a" stroke-width="1"/><rect x="346" y="258" width="116" height="20" fill="#e9f5ff" stroke="#1b5e8a" stroke-width="1"/><ellipse cx="404" cy="278" rx="58" ry="6" fill="#e9f5ff" stroke="#1b5e8a" stroke-width="1"/><text x="404" y="273" text-anchor="middle" font-family="monospace" font-size="13" fill="#111111">DB</text></svg>