<svg xmlns="http://www.w3.org/2000/svg" width="232" height="360" viewBox="0 0 232 360"><rect width="100%" height="100%" fill="white"/><text x="16" y="16" font-family="monospace" font-size="18" font-weight="600" fill="#2f4f6f">Spacelab Theme Complex</text><text x="16" y="40" font-family="monospace" font-size="18" font-weight="600" fill="#2f4f6f">Sequence</text><rect x="16" y="64" width="80" height="32" rx="4" ry="4" fill="#edf3f8" stroke="#2f4f6f" stroke-width="1"/><text x="56" y="85" text-anchor="middle" font-family="monospace" font-size="13" fill="#111111">Alice</text><rect x="116" y="64" width="80" height="32" rx="4" ry="4" fill="#edf3f8" stroke="#2f4f6f" stroke-width="1"/><text x="156" y="85" text-anchor="middle" font-family="monospace" font-size="13" fill="#111111">Bob</text><line x1="56" y1="96" x2="56" y2="312" stroke="#6d7f91" stroke-width="1" stroke-dasharray="6 4"/><line x1="156" y1="96" x2="156" y2="312" stroke="#6d7f91" stroke-width="1" stroke-dasharray="6 4"/><rect x="16" y="148" width="180" height="140" rx="2" ry="2" fill="#f4f8fc" stroke="#7b8da0" stroke-width="1"/><polygon points="16,148 109,148 109,162 103,168 16,168" fill="#f4f8fc" stroke="#7b8da0" stroke-width="1"/><text x="24" y="162" font-family="monospace" font-size="12" font-weight="600" fill="#2f4f6f">alt success</text><line x1="16" y1="204" x2="196" y2="204" stroke="#7b8da0" stroke-width="1" stroke-dasharray="5 4"/><text x="24" y="190" font-family="monospace" font-size="11" fill="#333">else failure</text><line x1="56" y1="128" x2="156" y2="128" stroke="#2f4f6f" stroke-width="1.5"/><polygon points="156,128 148,123 148,133" fill="#2f4f6f" stroke="#2f4f6f" stroke-width="1"/><text x="64" y="120" text-anchor="start" font-family="monospace" font-size="12" fill="#2f4f6f">authenticate</text><line x1="156" y1="184" x2="56" y2="184" stroke="#2f4f6f" stroke-width="1.5" stroke-dasharray="6 4"/><polygon points="56,184 64,179 64,189" fill="#2f4f6f" stroke="#2f4f6f" stroke-width="1"/><text x="64" y="176" text-anchor="start" font-family="monospace" font-size="12" fill="#2f4f6f">token</text><line x1="156" y1="240" x2="56" y2="240" stroke="#2f4f6f" stroke-width="1.5" stroke-dasharray="6 4"/><polygon points="56,240 64,235 64,245" fill="#2f4f6f" stroke="#2f4f6f" stroke-width="1"/><text x="64" y="232" text-anchor="start" font-family="monospace" font-size="12" fill="#2f4f6f">401</text><rect x="16" y="312" width="80" height="32" rx="4" ry="4" fill="#edf3f8" stroke="#2f4f6f" stroke-width="1"/><text x="56" y="333" text-anchor="middle" font-family="monospace" font-size="13" fill="#111111">Alice</text><rect x="116" y="312" width="80" height="32" rx="4" ry="4" fill="#edf3f8" stroke="#2f4f6f" stroke-width="1"/><text x="156" y="333" text-anchor="middle" font-family="monospace" font-size="13" fill="#111111">Bob</text></svg>