<svg xmlns="http://www.w3.org/2000/svg" width="328" height="448" viewBox="0 0 328 448"><rect width="100%" height="100%" fill="white"/><text x="24" y="24" font-family="monospace" font-size="18" font-weight="600" fill="#2f4f6f">Spacelab Theme Complex</text><text x="24" y="48" font-family="monospace" font-size="18" font-weight="600" fill="#2f4f6f">Sequence</text><rect x="24" y="72" width="120" height="32" rx="4" ry="4" fill="#edf3f8" stroke="#2f4f6f" stroke-width="1"/><text x="84" y="93" text-anchor="middle" font-family="monospace" font-size="13" fill="#111111">Alice</text><rect x="184" y="72" width="120" height="32" rx="4" ry="4" fill="#edf3f8" stroke="#2f4f6f" stroke-width="1"/><text x="244" y="93" text-anchor="middle" font-family="monospace" font-size="13" fill="#111111">Bob</text><line x1="84" y1="104" x2="84" y2="392" stroke="#6d7f91" stroke-width="1" stroke-dasharray="6 4"/><line x1="244" y1="104" x2="244" y2="392" stroke="#6d7f91" stroke-width="1" stroke-dasharray="6 4"/><rect x="24" y="168" width="280" height="200" rx="2" ry="2" fill="#f4f8fc" stroke="#7b8da0" stroke-width="1"/><polygon points="24,168 117,168 117,182 111,188 24,188" fill="#f4f8fc" stroke="#7b8da0" stroke-width="1"/><text x="32" y="182" font-family="monospace" font-size="12" font-weight="600" fill="#2f4f6f">alt success</text><line x1="24" y1="248" x2="304" y2="248" stroke="#7b8da0" stroke-width="1" stroke-dasharray="5 4"/><text x="32" y="234" font-family="monospace" font-size="11" fill="#333">else failure</text><line x1="84" y1="136" x2="244" y2="136" stroke="#2f4f6f" stroke-width="1.5"/><polygon points="244,136 236,131 236,141" fill="#2f4f6f" stroke="#2f4f6f" stroke-width="1"/><text x="92" y="128" text-anchor="start" font-family="monospace" font-size="12" fill="#2f4f6f">authenticate</text><line x1="244" y1="216" x2="84" y2="216" stroke="#2f4f6f" stroke-width="1.5" stroke-dasharray="6 4"/><polygon points="84,216 92,211 92,221" fill="#2f4f6f" stroke="#2f4f6f" stroke-width="1"/><text x="92" y="208" text-anchor="start" font-family="monospace" font-size="12" fill="#2f4f6f">token</text><line x1="244" y1="296" x2="84" y2="296" stroke="#2f4f6f" stroke-width="1.5" stroke-dasharray="6 4"/><polygon points="84,296 92,291 92,301" fill="#2f4f6f" stroke="#2f4f6f" stroke-width="1"/><text x="92" y="288" text-anchor="start" font-family="monospace" font-size="12" fill="#2f4f6f">401</text><rect x="24" y="392" width="120" height="32" rx="4" ry="4" fill="#edf3f8" stroke="#2f4f6f" stroke-width="1"/><text x="84" y="413" text-anchor="middle" font-family="monospace" font-size="13" fill="#111111">Alice</text><rect x="184" y="392" width="120" height="32" rx="4" ry="4" fill="#edf3f8" stroke="#2f4f6f" stroke-width="1"/><text x="244" y="413" text-anchor="middle" font-family="monospace" font-size="13" fill="#111111">Bob</text></svg>