<svg xmlns="http://www.w3.org/2000/svg" width="368" height="448" viewBox="0 0 368 448"><rect width="100%" height="100%" fill="white"/><text x="24" y="24" font-family="monospace" font-size="18" font-weight="600">Spacelab Theme Complex</text><text x="24" y="48" font-family="monospace" font-size="18" font-weight="600">Sequence</text><rect x="24" y="72" width="120" height="32" rx="4" ry="4" fill="#edf3f8" stroke="#2f4f6f" stroke-width="1"/><text x="84" y="93" text-anchor="middle" font-family="monospace" font-size="13">Alice</text><rect x="184" y="72" width="120" height="32" rx="4" ry="4" fill="#edf3f8" stroke="#2f4f6f" stroke-width="1"/><text x="244" y="93" text-anchor="middle" font-family="monospace" font-size="13">Bob</text><line x1="84" y1="104" x2="84" y2="392" stroke="#6d7f91" stroke-width="1" stroke-dasharray="6 4"/><line x1="244" y1="104" x2="244" y2="392" stroke="#6d7f91" stroke-width="1" stroke-dasharray="6 4"/><rect x="24" y="168" width="320" height="200" rx="2" ry="2" fill="#f4f8fc" stroke="#7b8da0" stroke-width="1"/><text x="32" y="184" font-family="monospace" font-size="12" font-weight="600">alt success</text><line x1="24" y1="248" x2="344" y2="248" stroke="#7b8da0" stroke-width="1" stroke-dasharray="5 4"/><text x="32" y="242" font-family="monospace" font-size="11" fill="#333">failure</text><line x1="84" y1="128" x2="244" y2="128" stroke="#2f4f6f" stroke-width="1.5"/><polygon points="244,128 238,124 238,132" fill="#2f4f6f"/><text x="166" y="120" text-anchor="middle" font-family="monospace" font-size="12">authenticate</text><line x1="244" y1="208" x2="84" y2="208" stroke="#2f4f6f" stroke-width="1.5" stroke-dasharray="6 4"/><polygon points="84,208 90,204 90,212" fill="#2f4f6f"/><text x="166" y="200" text-anchor="middle" font-family="monospace" font-size="12">token</text><line x1="244" y1="288" x2="84" y2="288" stroke="#2f4f6f" stroke-width="1.5" stroke-dasharray="6 4"/><polygon points="84,288 90,284 90,292" fill="#2f4f6f"/><text x="166" y="280" text-anchor="middle" font-family="monospace" font-size="12">401</text><rect x="24" y="392" width="120" height="32" rx="4" ry="4" fill="#edf3f8" stroke="#2f4f6f" stroke-width="1"/><text x="84" y="413" text-anchor="middle" font-family="monospace" font-size="13">Alice</text><rect x="184" y="392" width="120" height="32" rx="4" ry="4" fill="#edf3f8" stroke="#2f4f6f" stroke-width="1"/><text x="244" y="413" text-anchor="middle" font-family="monospace" font-size="13">Bob</text></svg>