<svg xmlns="http://www.w3.org/2000/svg" width="240" height="386" viewBox="0 0 240 386" data-orientation="TopToBottom"><rect width="100%" height="100%" fill="#f6f6f6"/><defs><marker id="arrow-open" viewBox="0 0 10 10" refX="9" refY="5" markerWidth="10" markerHeight="10" markerUnits="userSpaceOnUse" orient="auto-start-reverse"><path d="M0,0 L10,5 L0,10" fill="none" stroke="#111" stroke-width="1.5"/></marker><marker id="arrow-triangle" viewBox="0 0 16 16" refX="15" refY="8" markerWidth="16" markerHeight="16" markerUnits="userSpaceOnUse" orient="auto-start-reverse"><polygon points="0,1 14,8 0,15" fill="#ffffff" stroke="#111" stroke-width="1.5" fill-rule="nonzero"/></marker><marker id="arrow-diamond-filled" viewBox="0 0 14 10" refX="13" refY="5" markerWidth="14" markerHeight="10" markerUnits="userSpaceOnUse" orient="auto-start-reverse"><path d="M0,5 L7,0 L14,5 L7,10 z" fill="#111" stroke="#111" stroke-width="1"/></marker><marker id="arrow-diamond-open" viewBox="0 0 14 10" refX="13" refY="5" markerWidth="14" markerHeight="10" markerUnits="userSpaceOnUse" orient="auto-start-reverse"><path d="M0,5 L7,0 L14,5 L7,10 z" fill="#ffffff" stroke="#111" stroke-width="1"/></marker></defs><defs><marker id="arrow-triangle-filled" viewBox="0 0 12 12" refX="11" refY="6" markerWidth="12" markerHeight="12" markerUnits="userSpaceOnUse" orient="auto-start-reverse"><polygon points="0,0 12,6 0,12" fill="#111" stroke="#111" stroke-width="1.5"/></marker><marker id="arrow-box-filled" viewBox="0 0 12 12" refX="11" refY="6" markerWidth="12" markerHeight="12" markerUnits="userSpaceOnUse" orient="auto-start-reverse"><rect x="2" y="2" width="8" height="8" fill="#111" stroke="#111" stroke-width="1.5"/></marker><marker id="arrow-plus" viewBox="0 0 12 12" refX="11" refY="6" markerWidth="12" markerHeight="12" markerUnits="userSpaceOnUse" orient="auto-start-reverse"><path d="M6,1 L6,11 M1,6 L11,6" fill="none" stroke="#111" stroke-width="1.8" stroke-linecap="round"/></marker><marker id="arrow-cross" viewBox="0 0 12 12" refX="11" refY="6" markerWidth="12" markerHeight="12" markerUnits="userSpaceOnUse" orient="auto-start-reverse"><path d="M2,2 L10,10 M10,2 L2,10" fill="none" stroke="#111" stroke-width="1.8" stroke-linecap="round"/></marker><marker id="arrow-bracket-open" viewBox="0 0 12 14" refX="11" refY="7" markerWidth="12" markerHeight="14" markerUnits="userSpaceOnUse" orient="auto-start-reverse"><path d="M10,1 L4,1 L4,13 L10,13" fill="none" stroke="#111" stroke-width="1.8" stroke-linecap="round" stroke-linejoin="round"/></marker><marker id="arrow-circle-open" viewBox="0 0 12 12" refX="11" refY="6" markerWidth="12" markerHeight="12" markerUnits="userSpaceOnUse" orient="auto-start-reverse"><circle cx="6" cy="6" r="4" fill="#ffffff" stroke="#111" stroke-width="1.5"/></marker><marker id="arrow-circle-filled" viewBox="0 0 12 12" refX="11" refY="6" markerWidth="12" markerHeight="12" markerUnits="userSpaceOnUse" orient="auto-start-reverse"><circle cx="6" cy="6" r="4" fill="#111" stroke="#111" stroke-width="1.5"/></marker><marker id="arrow-double-open" viewBox="0 0 16 12" refX="15" refY="6" markerWidth="16" markerHeight="12" markerUnits="userSpaceOnUse" orient="auto-start-reverse"><path d="M0,1 L8,6 L0,11 M7,1 L15,6 L7,11" fill="none" stroke="#111" stroke-width="1.5" stroke-linejoin="round"/></marker></defs><polyline class="uml-relation" data-uml-from="Animal" data-uml-to="Dog" data-uml-arrow="&lt;|--" points="112,110 112,181 112,252" fill="none" stroke="#111" stroke-width="2" marker-start="url(#arrow-triangle)" /><rect x="32" y="32" width="160" height="78" rx="4" ry="4" fill="#f6f6f6" stroke="#111" stroke-width="1.5"/><rect x="32" y="32" width="160" height="30" rx="4" ry="4" fill="#fafafa" stroke="#111" stroke-width="1.5"/><line x1="32" y1="62" x2="192" y2="62" stroke="#111" stroke-width="1"/><text x="112" y="53" text-anchor="middle" font-family="monospace" font-size="13" font-weight="600" fill="#111">Animal</text><text class="uml-member" data-uml-visibility="public" x="42" y="78" font-family="monospace" font-size="11" fill="#16a34a">+name: String</text><line x1="32" y1="86" x2="192" y2="86" stroke="#111" stroke-width="1"/><text class="uml-member" data-uml-visibility="public" x="42" y="94" font-family="monospace" font-size="11" fill="#16a34a">+speak()</text><rect x="32" y="252" width="160" height="62" rx="4" ry="4" fill="#f6f6f6" stroke="#111" stroke-width="1.5"/><rect x="32" y="252" width="160" height="30" rx="4" ry="4" fill="#fafafa" stroke="#111" stroke-width="1.5"/><line x1="32" y1="282" x2="192" y2="282" stroke="#111" stroke-width="1"/><text x="112" y="273" text-anchor="middle" font-family="monospace" font-size="13" font-weight="600" fill="#111">Dog</text><text class="uml-member" data-uml-visibility="public" x="42" y="298" font-family="monospace" font-size="11" fill="#16a34a">+breed: String</text></svg>