<svg xmlns="http://www.w3.org/2000/svg" width="200" height="534" viewBox="0 0 200 534"><rect width="100%" height="100%" fill="white"/><defs><marker id="arrow" markerWidth="8" markerHeight="8" refX="6" refY="3" orient="auto"><path d="M0,0 L0,6 L8,3 z" fill="#2f4f6f"/></marker></defs><polyline class="state-transition" data-state-from="[*]" data-state-to="Idle" points="43,106 43,136 100,136 100,166" fill="none" stroke="#2f4f6f" stroke-width="2" marker-end="url(#arrow)"/><polyline class="state-transition" data-state-from="Idle" data-state-to="Running" points="100,206 100,266" fill="none" stroke="#2f4f6f" stroke-width="2" marker-end="url(#arrow)"/><text x="92" y="246" font-family="monospace" font-size="11" fill="#2f4f6f" text-anchor="middle" data-state-label="start"><tspan x="92" y="246">start</tspan></text><polyline class="state-transition" data-state-from="Running" data-state-to="Stopped" points="100,306 100,366" fill="none" stroke="#2f4f6f" stroke-width="2" marker-end="url(#arrow)"/><text x="92" y="346" font-family="monospace" font-size="11" fill="#2f4f6f" text-anchor="middle" data-state-label="stop"><tspan x="92" y="346">stop</tspan></text><polyline class="state-transition" data-state-from="Stopped" data-state-to="[*]__end" points="100,406 100,436 43,436 43,466" fill="none" stroke="#2f4f6f" stroke-width="2" marker-end="url(#arrow)"/><metadata data-state-node="[*]" data-state-kind="start-end" /><circle cx="43" cy="93" r="12" fill="#2f4f6f"/><metadata data-state-node="Idle" data-state-kind="normal" /><rect x="30" y="166" width="140" height="40" rx="8" ry="8" fill="#edf3f8" stroke="#2f4f6f" stroke-width="1.5"/><text x="100" y="190" font-family="monospace" font-size="13" font-weight="600" text-anchor="middle" fill="#2f4f6f">Idle</text><metadata data-state-node="Running" data-state-kind="normal" /><rect x="30" y="266" width="140" height="40" rx="8" ry="8" fill="#edf3f8" stroke="#2f4f6f" stroke-width="1.5"/><text x="100" y="290" font-family="monospace" font-size="13" font-weight="600" text-anchor="middle" fill="#2f4f6f">Running</text><metadata data-state-node="Stopped" data-state-kind="normal" /><rect x="30" y="366" width="140" height="40" rx="8" ry="8" fill="#edf3f8" stroke="#2f4f6f" stroke-width="1.5"/><text x="100" y="390" font-family="monospace" font-size="13" font-weight="600" text-anchor="middle" fill="#2f4f6f">Stopped</text><metadata data-state-node="[*]__end" data-state-kind="end" /><circle cx="43" cy="479" r="12" fill="#edf3f8" stroke="#2f4f6f" stroke-width="2"/><circle cx="43" cy="479" r="8" fill="#2f4f6f"/></svg>