<svg xmlns="http://www.w3.org/2000/svg" width="480" height="334" viewBox="0 0 480 334"><rect width="100%" height="100%" fill="white"/><defs><marker id="arrow" markerWidth="8" markerHeight="8" refX="6" refY="3" orient="auto"><path d="M0,0 L0,6 L8,3 z" fill="#2f4f6f"/></marker></defs><polyline class="state-transition" data-state-from="[*]" data-state-to="Idle" points="56,93 56,96 310,96 310,100" fill="none" stroke="#2f4f6f" stroke-width="2" marker-end="url(#arrow)"/><polyline class="state-transition" data-state-from="Idle" data-state-to="Running" points="310,100 310,143 170,143 170,186" fill="none" stroke="#2f4f6f" stroke-width="2" marker-end="url(#arrow)"/><text x="268" y="139" font-family="monospace" font-size="11" fill="#2f4f6f" text-anchor="middle" data-state-label="start"><tspan x="268" y="139">start</tspan></text><polyline class="state-transition" data-state-from="Running" data-state-to="Stopped" points="170,186 170,193 310,193 310,200" fill="none" stroke="#2f4f6f" stroke-width="2" marker-end="url(#arrow)"/><text x="212" y="205" font-family="monospace" font-size="11" fill="#2f4f6f" text-anchor="middle" data-state-label="stop"><tspan x="212" y="205">stop</tspan></text><polyline class="state-transition" data-state-from="Stopped" data-state-to="[*]__end" points="310,200 310,239 56,239 56,279" fill="none" stroke="#2f4f6f" stroke-width="2" marker-end="url(#arrow)"/><metadata data-state-node="[*]" data-state-kind="start-end" /><circle cx="43" cy="93" r="12" fill="#2f4f6f"/><metadata data-state-node="Idle" data-state-kind="normal" /><rect x="310" y="80" width="140" height="40" rx="8" ry="8" fill="#edf3f8" stroke="#2f4f6f" stroke-width="1.5"/><text x="380" y="104" font-family="monospace" font-size="13" font-weight="600" text-anchor="middle" fill="#2f4f6f">Idle</text><metadata data-state-node="Running" data-state-kind="normal" /><rect x="30" y="166" width="140" height="40" rx="8" ry="8" fill="#edf3f8" stroke="#2f4f6f" stroke-width="1.5"/><text x="100" y="190" font-family="monospace" font-size="13" font-weight="600" text-anchor="middle" fill="#2f4f6f">Running</text><metadata data-state-node="Stopped" data-state-kind="normal" /><rect x="310" y="180" width="140" height="40" rx="8" ry="8" fill="#edf3f8" stroke="#2f4f6f" stroke-width="1.5"/><text x="380" y="204" font-family="monospace" font-size="13" font-weight="600" text-anchor="middle" fill="#2f4f6f">Stopped</text><metadata data-state-node="[*]__end" data-state-kind="end" /><circle cx="43" cy="279" r="12" fill="#edf3f8" stroke="#2f4f6f" stroke-width="2"/><circle cx="43" cy="279" r="8" fill="#2f4f6f"/></svg>