<svg xmlns="http://www.w3.org/2000/svg" width="524" height="604" viewBox="0 0 524 604"><rect width="100%" height="100%" fill="#f0f4f8"/><defs><marker id="arrow-open" viewBox="0 0 10 10" refX="9" refY="5" markerWidth="10" markerHeight="10" markerUnits="userSpaceOnUse" orient="auto-start-reverse"><path d="M0,0 L10,5 L0,10" fill="none" stroke="#1e293b" stroke-width="1.5"/></marker><marker id="arrow-triangle" viewBox="0 0 12 12" refX="11" refY="6" markerWidth="12" markerHeight="12" markerUnits="userSpaceOnUse" orient="auto-start-reverse"><polygon points="0,0 12,6 0,12" fill="#ffffff" stroke="#1e293b" stroke-width="1.5" fill-rule="nonzero"/></marker><marker id="arrow-diamond-filled" viewBox="0 0 14 10" refX="13" refY="5" markerWidth="14" markerHeight="10" markerUnits="userSpaceOnUse" orient="auto-start-reverse"><path d="M0,5 L7,0 L14,5 L7,10 z" fill="#1e293b" stroke="#1e293b" stroke-width="1"/></marker><marker id="arrow-diamond-open" viewBox="0 0 14 10" refX="13" refY="5" markerWidth="14" markerHeight="10" markerUnits="userSpaceOnUse" orient="auto-start-reverse"><path d="M0,5 L7,0 L14,5 L7,10 z" fill="#ffffff" stroke="#1e293b" stroke-width="1"/></marker></defs><text x="40" y="40" font-family="monospace" font-size="18" font-weight="600">Default Theme (no !theme directive)</text><desc data-uml-id="User">User</desc><rect class="uml-node uml-component" data-uml-kind="component" x="142" y="342" width="200" height="80" rx="4" ry="4" fill="#f0f4f8" stroke="#1e293b" stroke-width="1"/><rect x="138" y="354" width="16" height="8" fill="#f0f4f8" stroke="#1e293b" stroke-width="1"/><rect x="138" y="402" width="16" height="8" fill="#f0f4f8" stroke="#1e293b" stroke-width="1"/><text x="242" y="388" text-anchor="middle" font-family="monospace" font-size="13" font-weight="600" fill="#0f172a">User</text><text x="242" y="356" text-anchor="middle" font-family="monospace" font-size="10" fill="#0f172a">«component»</text><desc data-uml-id="App">App</desc><rect class="uml-node uml-component" data-uml-kind="component" x="142" y="142" width="200" height="80" rx="4" ry="4" fill="#f0f4f8" stroke="#1e293b" stroke-width="1"/><rect x="138" y="154" width="16" height="8" fill="#f0f4f8" stroke="#1e293b" stroke-width="1"/><rect x="138" y="202" width="16" height="8" fill="#f0f4f8" stroke="#1e293b" stroke-width="1"/><text x="242" y="188" text-anchor="middle" font-family="monospace" font-size="13" font-weight="600" fill="#0f172a">App</text><text x="242" y="156" text-anchor="middle" font-family="monospace" font-size="10" fill="#0f172a">«component»</text><polyline class="uml-relation" data-uml-from="User" data-uml-to="App" data-uml-arrow="--&gt;" points="242,222 242,278 242,342" fill="none" stroke="#1e293b" stroke-width="2" marker-end="url(#arrow-open)" /><polyline class="uml-relation" data-uml-from="App" data-uml-to="User" data-uml-arrow="--&gt;" points="242,222 242,286 242,342" fill="none" stroke="#1e293b" stroke-width="2" marker-end="url(#arrow-open)" /><text x="242" y="298" text-anchor="middle" font-family="monospace" font-size="11" fill="#1e293b">action</text><text x="242" y="242" text-anchor="middle" font-family="monospace" font-size="11" fill="#1e293b">result</text></svg>