<svg xmlns="http://www.w3.org/2000/svg" width="328" height="248" viewBox="0 0 328 248"><rect width="100%" height="100%" fill="white"/><text x="24" y="24" font-family="monospace" font-size="18" font-weight="600">Default Theme (no !theme</text><text x="24" y="48" font-family="monospace" font-size="18" font-weight="600">directive)</text><rect x="24" y="72" width="120" height="32" rx="8" ry="8" fill="#fff3e0" stroke="#8a5a00" stroke-width="1"/><circle cx="36" cy="82" r="4" fill="none" stroke="#8a5a00" stroke-width="1"/><line x1="36" y1="86" x2="36" y2="94" stroke="#8a5a00" stroke-width="1"/><line x1="32" y1="90" x2="40" y2="90" stroke="#8a5a00" stroke-width="1"/><line x1="36" y1="94" x2="32" y2="100" stroke="#8a5a00" stroke-width="1"/><line x1="36" y1="94" x2="40" y2="100" stroke="#8a5a00" stroke-width="1"/><text x="84" y="93" text-anchor="middle" font-family="monospace" font-size="13">User</text><rect x="184" y="72" width="120" height="32" rx="4" ry="4" fill="#f6f6f6" stroke="#111" stroke-width="1"/><text x="244" y="93" text-anchor="middle" font-family="monospace" font-size="13">App</text><line x1="84" y1="104" x2="84" y2="192" stroke="#555" stroke-width="1" stroke-dasharray="6 4"/><line x1="244" y1="104" x2="244" y2="192" stroke="#555" stroke-width="1" stroke-dasharray="6 4"/><line x1="84" y1="128" x2="244" y2="128" stroke="#111" stroke-width="1.5"/><polygon points="244,128 238,124 238,132" fill="#111"/><text x="166" y="120" text-anchor="middle" font-family="monospace" font-size="12">action</text><line x1="244" y1="168" x2="84" y2="168" stroke="#111" stroke-width="1.5" stroke-dasharray="6 4"/><polygon points="84,168 90,164 90,172" fill="#111"/><text x="166" y="160" text-anchor="middle" font-family="monospace" font-size="12">result</text><rect x="24" y="192" width="120" height="32" rx="8" ry="8" fill="#fff3e0" stroke="#8a5a00" stroke-width="1"/><circle cx="36" cy="202" r="4" fill="none" stroke="#8a5a00" stroke-width="1"/><line x1="36" y1="206" x2="36" y2="214" stroke="#8a5a00" stroke-width="1"/><line x1="32" y1="210" x2="40" y2="210" stroke="#8a5a00" stroke-width="1"/><line x1="36" y1="214" x2="32" y2="220" stroke="#8a5a00" stroke-width="1"/><line x1="36" y1="214" x2="40" y2="220" stroke="#8a5a00" stroke-width="1"/><text x="84" y="213" text-anchor="middle" font-family="monospace" font-size="13">User</text><rect x="184" y="192" width="120" height="32" rx="4" ry="4" fill="#f6f6f6" stroke="#111" stroke-width="1"/><text x="244" y="213" text-anchor="middle" font-family="monospace" font-size="13">App</text></svg>