<svg xmlns="http://www.w3.org/2000/svg" width="232" height="220" viewBox="0 0 232 220"><rect width="100%" height="100%" fill="white"/><text x="16" y="16" font-family="monospace" font-size="18" font-weight="600" fill="#111">Default Theme (no</text><text x="16" y="40" font-family="monospace" font-size="18" font-weight="600" fill="#111">!theme directive)</text><rect x="16" y="64" width="80" height="32" rx="4" ry="4" fill="#f6f6f6" stroke="#111" stroke-width="1"/><text x="56" y="85" text-anchor="middle" font-family="monospace" font-size="13" fill="#111111">User</text><rect x="116" y="64" width="80" height="32" rx="4" ry="4" fill="#f6f6f6" stroke="#111" stroke-width="1"/><text x="156" y="85" text-anchor="middle" font-family="monospace" font-size="13" fill="#111111">App</text><line x1="56" y1="96" x2="56" y2="172" stroke="#555" stroke-width="1" stroke-dasharray="6 4"/><line x1="156" y1="96" x2="156" y2="172" stroke="#555" stroke-width="1" stroke-dasharray="6 4"/><line x1="56" y1="128" x2="156" y2="128" stroke="#111" stroke-width="1.5" stroke-dasharray="6 4"/><polygon points="156,128 148,123 148,133" fill="#111" stroke="#111" stroke-width="1"/><text x="64" y="120" text-anchor="start" font-family="monospace" font-size="12" fill="#111">action</text><line x1="156" y1="156" x2="56" y2="156" stroke="#111" stroke-width="1.5" stroke-dasharray="6 4"/><polygon points="56,156 64,151 64,161" fill="#111" stroke="#111" stroke-width="1"/><text x="64" y="148" text-anchor="start" font-family="monospace" font-size="12" fill="#111">result</text><rect x="16" y="172" width="80" height="32" rx="4" ry="4" fill="#f6f6f6" stroke="#111" stroke-width="1"/><text x="56" y="193" text-anchor="middle" font-family="monospace" font-size="13" fill="#111111">User</text><rect x="116" y="172" width="80" height="32" rx="4" ry="4" fill="#f6f6f6" stroke="#111" stroke-width="1"/><text x="156" y="193" text-anchor="middle" font-family="monospace" font-size="13" fill="#111111">App</text></svg>