<svg xmlns="http://www.w3.org/2000/svg" width="328" height="248" viewBox="0 0 328 248"><rect width="100%" height="100%" fill="white"/><text x="24" y="24" font-family="monospace" font-size="18" font-weight="600">Default Theme (no !theme</text><text x="24" y="48" font-family="monospace" font-size="18" font-weight="600">directive)</text><rect x="24" y="72" width="120" height="32" rx="4" ry="4" fill="#f6f6f6" stroke="#111" stroke-width="1"/><text x="84" y="93" text-anchor="middle" font-family="monospace" font-size="13">User</text><rect x="184" y="72" width="120" height="32" rx="4" ry="4" fill="#f6f6f6" stroke="#111" stroke-width="1"/><text x="244" y="93" text-anchor="middle" font-family="monospace" font-size="13">App</text><line x1="84" y1="104" x2="84" y2="192" stroke="#555" stroke-width="1" stroke-dasharray="6 4"/><line x1="244" y1="104" x2="244" y2="192" stroke="#555" stroke-width="1" stroke-dasharray="6 4"/><line x1="84" y1="128" x2="244" y2="128" stroke="#111" stroke-width="1.5" stroke-dasharray="6 4"/><polygon points="244,128 236,123 236,133" fill="#111" stroke="#111" stroke-width="1"/><text x="92" y="120" text-anchor="start" font-family="monospace" font-size="12">action</text><line x1="244" y1="168" x2="84" y2="168" stroke="#111" stroke-width="1.5" stroke-dasharray="6 4"/><polygon points="84,168 92,163 92,173" fill="#111" stroke="#111" stroke-width="1"/><text x="92" y="160" text-anchor="start" font-family="monospace" font-size="12">result</text><rect x="24" y="192" width="120" height="32" rx="4" ry="4" fill="#f6f6f6" stroke="#111" stroke-width="1"/><text x="84" y="213" text-anchor="middle" font-family="monospace" font-size="13">User</text><rect x="184" y="192" width="120" height="32" rx="4" ry="4" fill="#f6f6f6" stroke="#111" stroke-width="1"/><text x="244" y="213" text-anchor="middle" font-family="monospace" font-size="13">App</text></svg>