<svg xmlns="http://www.w3.org/2000/svg" width="528" height="440" viewBox="0 0 528 440"><rect width="100%" height="100%" fill="white"/><rect x="24" y="24" width="120" height="32" rx="4" ry="4" fill="#f6f6f6" stroke="#111" stroke-width="1"/><text x="84" y="45" text-anchor="middle" font-family="monospace" font-size="13">A</text><rect x="184" y="24" width="120" height="32" rx="4" ry="4" fill="#f6f6f6" stroke="#111" stroke-width="1"/><text x="244" y="45" text-anchor="middle" font-family="monospace" font-size="13">B</text><rect x="344" y="24" width="120" height="32" rx="4" ry="4" fill="#f6f6f6" stroke="#111" stroke-width="1"/><text x="404" y="45" text-anchor="middle" font-family="monospace" font-size="13">C</text><line x1="84" y1="56" x2="84" y2="384" stroke="#555" stroke-width="1" stroke-dasharray="6 4"/><line x1="244" y1="56" x2="244" y2="384" stroke="#555" stroke-width="1" stroke-dasharray="6 4"/><line x1="404" y1="56" x2="404" y2="384" stroke="#555" stroke-width="1" stroke-dasharray="6 4"/><rect x="24" y="120" width="480" height="240" rx="2" ry="2" fill="#fafafa" stroke="#666" stroke-width="1"/><text x="32" y="136" font-family="monospace" font-size="12" font-weight="600">alt happy path</text><line x1="24" y1="240" x2="504" y2="240" stroke="#666" stroke-width="1" stroke-dasharray="5 4"/><text x="32" y="234" font-family="monospace" font-size="11" fill="#333">error</text><line x1="84" y1="80" x2="244" y2="80" stroke="#111" stroke-width="1.5"/><polygon points="244,80 238,76 238,84" fill="#111"/><text x="166" y="72" text-anchor="middle" font-family="monospace" font-size="12">start</text><line x1="244" y1="160" x2="404" y2="160" stroke="#111" stroke-width="1.5"/><polygon points="404,160 398,156 398,164" fill="#111"/><text x="326" y="152" text-anchor="middle" font-family="monospace" font-size="12">process</text><line x1="404" y1="200" x2="244" y2="200" stroke="#111" stroke-width="1.5" stroke-dasharray="6 4"/><polygon points="244,200 250,196 250,204" fill="#111"/><text x="326" y="192" text-anchor="middle" font-family="monospace" font-size="12">ok</text><line x1="244" y1="280" x2="84" y2="280" stroke="#111" stroke-width="1.5" stroke-dasharray="6 4"/><polygon points="84,280 90,276 90,284" fill="#111"/><text x="166" y="272" text-anchor="middle" font-family="monospace" font-size="12">fail</text><rect x="24" y="384" width="120" height="32" rx="4" ry="4" fill="#f6f6f6" stroke="#111" stroke-width="1"/><text x="84" y="405" text-anchor="middle" font-family="monospace" font-size="13">A</text><rect x="184" y="384" width="120" height="32" rx="4" ry="4" fill="#f6f6f6" stroke="#111" stroke-width="1"/><text x="244" y="405" text-anchor="middle" font-family="monospace" font-size="13">B</text><rect x="344" y="384" width="120" height="32" rx="4" ry="4" fill="#f6f6f6" stroke="#111" stroke-width="1"/><text x="404" y="405" text-anchor="middle" font-family="monospace" font-size="13">C</text></svg>