<svg xmlns="http://www.w3.org/2000/svg" width="312" height="340" viewBox="0 0 312 340"><rect width="100%" height="100%" fill="white"/><rect x="16" y="16" width="80" height="32" rx="4" ry="4" fill="#f6f6f6" stroke="#111" stroke-width="1"/><text x="56" y="37" text-anchor="middle" font-family="monospace" font-size="13" fill="#111111">A</text><rect x="116" y="16" width="80" height="32" rx="4" ry="4" fill="#f6f6f6" stroke="#111" stroke-width="1"/><text x="156" y="37" text-anchor="middle" font-family="monospace" font-size="13" fill="#111111">B</text><rect x="216" y="16" width="80" height="32" rx="4" ry="4" fill="#f6f6f6" stroke="#111" stroke-width="1"/><text x="256" y="37" text-anchor="middle" font-family="monospace" font-size="13" fill="#111111">C</text><line x1="56" y1="48" x2="56" y2="292" stroke="#555" stroke-width="1" stroke-dasharray="6 4"/><line x1="156" y1="48" x2="156" y2="292" stroke="#555" stroke-width="1" stroke-dasharray="6 4"/><line x1="256" y1="48" x2="256" y2="292" stroke="#555" stroke-width="1" stroke-dasharray="6 4"/><rect x="16" y="100" width="280" height="168" rx="2" ry="2" fill="#fafafa" stroke="#666" stroke-width="1"/><polygon points="16,100 130,100 130,114 124,120 16,120" fill="#fafafa" stroke="#666" stroke-width="1"/><text x="24" y="114" font-family="monospace" font-size="12" font-weight="600" fill="#111">alt happy path</text><line x1="16" y1="184" x2="296" y2="184" stroke="#666" stroke-width="1" stroke-dasharray="5 4"/><text x="24" y="170" font-family="monospace" font-size="11" fill="#333">else error</text><line x1="56" y1="80" x2="156" y2="80" stroke="#111" stroke-width="1.5"/><polygon points="156,80 148,75 148,85" fill="#111" stroke="#111" stroke-width="1"/><text x="64" y="72" text-anchor="start" font-family="monospace" font-size="12" fill="#111">start</text><line x1="156" y1="136" x2="256" y2="136" stroke="#111" stroke-width="1.5"/><polygon points="256,136 248,131 248,141" fill="#111" stroke="#111" stroke-width="1"/><text x="164" y="128" text-anchor="start" font-family="monospace" font-size="12" fill="#111">process</text><line x1="256" y1="164" x2="156" y2="164" stroke="#111" stroke-width="1.5" stroke-dasharray="6 4"/><polygon points="156,164 164,159 164,169" fill="#111" stroke="#111" stroke-width="1"/><text x="164" y="156" text-anchor="start" font-family="monospace" font-size="12" fill="#111">ok</text><line x1="156" y1="220" x2="56" y2="220" stroke="#111" stroke-width="1.5" stroke-dasharray="6 4"/><polygon points="56,220 64,215 64,225" fill="#111" stroke="#111" stroke-width="1"/><text x="64" y="212" text-anchor="start" font-family="monospace" font-size="12" fill="#111">fail</text><rect x="16" y="292" width="80" height="32" rx="4" ry="4" fill="#f6f6f6" stroke="#111" stroke-width="1"/><text x="56" y="313" text-anchor="middle" font-family="monospace" font-size="13" fill="#111111">A</text><rect x="116" y="292" width="80" height="32" rx="4" ry="4" fill="#f6f6f6" stroke="#111" stroke-width="1"/><text x="156" y="313" text-anchor="middle" font-family="monospace" font-size="13" fill="#111111">B</text><rect x="216" y="292" width="80" height="32" rx="4" ry="4" fill="#f6f6f6" stroke="#111" stroke-width="1"/><text x="256" y="313" text-anchor="middle" font-family="monospace" font-size="13" fill="#111111">C</text></svg>