<svg xmlns="http://www.w3.org/2000/svg" width="488" height="440" viewBox="0 0 488 440"><rect width="100%" height="100%" fill="white"/><rect x="24" y="24" width="120" height="32" rx="4" ry="4" fill="#f6f6f6" stroke="#111" stroke-width="1"/><text x="84" y="45" text-anchor="middle" font-family="monospace" font-size="13" fill="#111111">A</text><rect x="184" y="24" width="120" height="32" rx="4" ry="4" fill="#f6f6f6" stroke="#111" stroke-width="1"/><text x="244" y="45" text-anchor="middle" font-family="monospace" font-size="13" fill="#111111">B</text><rect x="344" y="24" width="120" height="32" rx="4" ry="4" fill="#f6f6f6" stroke="#111" stroke-width="1"/><text x="404" y="45" text-anchor="middle" font-family="monospace" font-size="13" fill="#111111">C</text><line x1="84" y1="56" x2="84" y2="384" stroke="#555" stroke-width="1" stroke-dasharray="6 4"/><line x1="244" y1="56" x2="244" y2="384" stroke="#555" stroke-width="1" stroke-dasharray="6 4"/><line x1="404" y1="56" x2="404" y2="384" stroke="#555" stroke-width="1" stroke-dasharray="6 4"/><rect x="24" y="120" width="440" height="240" rx="2" ry="2" fill="#fafafa" stroke="#666" stroke-width="1"/><polygon points="24,120 138,120 138,134 132,140 24,140" fill="#fafafa" stroke="#666" stroke-width="1"/><text x="32" y="134" font-family="monospace" font-size="12" font-weight="600" fill="#111">alt happy path</text><line x1="24" y1="240" x2="464" y2="240" stroke="#666" stroke-width="1" stroke-dasharray="5 4"/><text x="32" y="226" font-family="monospace" font-size="11" fill="#333">else error</text><line x1="84" y1="88" x2="244" y2="88" stroke="#111" stroke-width="1.5"/><polygon points="244,88 236,83 236,93" fill="#111" stroke="#111" stroke-width="1"/><text x="92" y="80" text-anchor="start" font-family="monospace" font-size="12" fill="#111">start</text><line x1="244" y1="168" x2="404" y2="168" stroke="#111" stroke-width="1.5"/><polygon points="404,168 396,163 396,173" fill="#111" stroke="#111" stroke-width="1"/><text x="252" y="160" text-anchor="start" font-family="monospace" font-size="12" fill="#111">process</text><line x1="404" y1="208" x2="244" y2="208" stroke="#111" stroke-width="1.5" stroke-dasharray="6 4"/><polygon points="244,208 252,203 252,213" fill="#111" stroke="#111" stroke-width="1"/><text x="252" y="200" text-anchor="start" font-family="monospace" font-size="12" fill="#111">ok</text><line x1="244" y1="288" x2="84" y2="288" stroke="#111" stroke-width="1.5" stroke-dasharray="6 4"/><polygon points="84,288 92,283 92,293" fill="#111" stroke="#111" stroke-width="1"/><text x="92" y="280" text-anchor="start" font-family="monospace" font-size="12" fill="#111">fail</text><rect x="24" y="384" width="120" height="32" rx="4" ry="4" fill="#f6f6f6" stroke="#111" stroke-width="1"/><text x="84" y="405" text-anchor="middle" font-family="monospace" font-size="13" fill="#111111">A</text><rect x="184" y="384" width="120" height="32" rx="4" ry="4" fill="#f6f6f6" stroke="#111" stroke-width="1"/><text x="244" y="405" text-anchor="middle" font-family="monospace" font-size="13" fill="#111111">B</text><rect x="344" y="384" width="120" height="32" rx="4" ry="4" fill="#f6f6f6" stroke="#111" stroke-width="1"/><text x="404" y="405" text-anchor="middle" font-family="monospace" font-size="13" fill="#111111">C</text></svg>