<svg xmlns="http://www.w3.org/2000/svg" width="550" height="312" viewBox="0 0 550 312"><rect width="100%" height="100%" fill="white"/><rect x="54" y="24" width="120" height="32" rx="4" ry="4" fill="#f6f6f6" stroke="#111" stroke-width="1"/><text x="114" y="45" text-anchor="middle" font-family="monospace" font-size="13">Alice</text><rect x="214" y="24" width="120" height="32" rx="4" ry="4" fill="#f6f6f6" stroke="#111" stroke-width="1"/><text x="274" y="45" text-anchor="middle" font-family="monospace" font-size="13">Bob</text><line x1="114" y1="56" x2="114" y2="256" stroke="#555" stroke-width="1" stroke-dasharray="6 4"/><line x1="274" y1="56" x2="274" y2="256" stroke="#555" stroke-width="1" stroke-dasharray="6 4"/><line x1="114" y1="80" x2="274" y2="80" stroke="#111" stroke-width="1.5"/><polygon points="274,80 266,75 266,85" fill="#111" stroke="#111" stroke-width="1"/><text x="122" y="72" text-anchor="start" font-family="monospace" font-size="12">request</text><line x1="274" y1="160" x2="114" y2="160" stroke="#111" stroke-width="1.5" stroke-dasharray="6 4"/><polygon points="114,160 122,155 122,165" fill="#111" stroke="#111" stroke-width="1"/><text x="122" y="152" text-anchor="start" font-family="monospace" font-size="12">response</text><path d="M346,120 H516 L526 130 V152 H346 Z" fill="#fff8c4" stroke="#111" stroke-width="1"/><path d="M516 120 V130 H526" fill="none" stroke="#111" stroke-width="1"/><text x="354" y="140" font-family="monospace" font-size="12">plain theme note</text><path d="M24,200 H194 L204 210 V232 H24 Z" fill="#fff8c4" stroke="#111" stroke-width="1"/><path d="M194 200 V210 H204" fill="none" stroke="#111" stroke-width="1"/><text x="32" y="220" font-family="monospace" font-size="12">received</text><rect x="54" y="256" width="120" height="32" rx="4" ry="4" fill="#f6f6f6" stroke="#111" stroke-width="1"/><text x="114" y="277" text-anchor="middle" font-family="monospace" font-size="13">Alice</text><rect x="214" y="256" width="120" height="32" rx="4" ry="4" fill="#f6f6f6" stroke="#111" stroke-width="1"/><text x="274" y="277" text-anchor="middle" font-family="monospace" font-size="13">Bob</text></svg>