<svg xmlns="http://www.w3.org/2000/svg" width="394" height="256" viewBox="0 0 394 256"><rect width="100%" height="100%" fill="white"/><rect x="46" y="16" width="80" height="32" rx="4" ry="4" fill="#f6f6f6" stroke="#111" stroke-width="1"/><text x="86" y="37" text-anchor="middle" font-family="monospace" font-size="13" fill="#111111">Alice</text><rect x="146" y="16" width="80" height="32" rx="4" ry="4" fill="#f6f6f6" stroke="#111" stroke-width="1"/><text x="186" y="37" text-anchor="middle" font-family="monospace" font-size="13" fill="#111111">Bob</text><line x1="86" y1="48" x2="86" y2="208" stroke="#555" stroke-width="1" stroke-dasharray="6 4"/><line x1="186" y1="48" x2="186" y2="208" stroke="#555" stroke-width="1" stroke-dasharray="6 4"/><line x1="86" y1="80" x2="186" y2="80" stroke="#111" stroke-width="1.5"/><polygon points="186,80 178,75 178,85" fill="#111" stroke="#111" stroke-width="1"/><text x="94" y="72" text-anchor="start" font-family="monospace" font-size="12" fill="#111">request</text><line x1="186" y1="136" x2="86" y2="136" stroke="#111" stroke-width="1.5" stroke-dasharray="6 4"/><polygon points="86,136 94,131 94,141" fill="#111" stroke="#111" stroke-width="1"/><text x="94" y="128" text-anchor="start" font-family="monospace" font-size="12" fill="#111">response</text><path d="M238,100 H369 L378 109 V128 H238 Z" fill="#fff8c4" stroke="#111" stroke-width="1"/><path d="M369 100 V109 H378" fill="none" stroke="#111" stroke-width="1"/><text x="246" y="120" font-family="monospace" font-size="12" fill="#111">plain theme note</text><path d="M16,156 H147 L156 165 V184 H16 Z" fill="#fff8c4" stroke="#111" stroke-width="1"/><path d="M147 156 V165 H156" fill="none" stroke="#111" stroke-width="1"/><text x="24" y="176" font-family="monospace" font-size="12" fill="#111">received</text><rect x="46" y="208" width="80" height="32" rx="4" ry="4" fill="#f6f6f6" stroke="#111" stroke-width="1"/><text x="86" y="229" text-anchor="middle" font-family="monospace" font-size="13" fill="#111111">Alice</text><rect x="146" y="208" width="80" height="32" rx="4" ry="4" fill="#f6f6f6" stroke="#111" stroke-width="1"/><text x="186" y="229" text-anchor="middle" font-family="monospace" font-size="13" fill="#111111">Bob</text></svg>