<svg xmlns="http://www.w3.org/2000/svg" width="488" height="280" viewBox="0 0 488 280"><rect width="100%" height="100%" fill="white"/><rect x="24" y="24" width="120" height="32" rx="4" ry="4" fill="#edf3f8" stroke="#2f4f6f" stroke-width="1"/><text x="84" y="45" text-anchor="middle" font-family="monospace" font-size="13">Auth</text><rect x="184" y="24" width="120" height="32" rx="4" ry="4" fill="#edf3f8" stroke="#2f4f6f" stroke-width="1"/><text x="244" y="45" text-anchor="middle" font-family="monospace" font-size="13">Orders</text><rect x="344" y="24" width="120" height="32" rx="4" ry="4" fill="#edf3f8" stroke="#2f4f6f" stroke-width="1"/><text x="404" y="45" text-anchor="middle" font-family="monospace" font-size="13">Client</text><line x1="84" y1="56" x2="84" y2="224" stroke="#6d7f91" stroke-width="1" stroke-dasharray="6 4"/><line x1="244" y1="56" x2="244" y2="224" stroke="#6d7f91" stroke-width="1" stroke-dasharray="6 4"/><line x1="404" y1="56" x2="404" y2="224" stroke="#6d7f91" stroke-width="1" stroke-dasharray="6 4"/><line x1="404" y1="80" x2="84" y2="80" stroke="#2f4f6f" stroke-width="1.5"/><polygon points="84,80 90,76 90,84" fill="#2f4f6f"/><text x="246" y="72" text-anchor="middle" font-family="monospace" font-size="12">login</text><line x1="84" y1="120" x2="404" y2="120" stroke="#2f4f6f" stroke-width="1.5" stroke-dasharray="6 4"/><polygon points="404,120 398,116 398,124" fill="#2f4f6f"/><text x="246" y="112" text-anchor="middle" font-family="monospace" font-size="12">token</text><line x1="404" y1="160" x2="244" y2="160" stroke="#2f4f6f" stroke-width="1.5"/><polygon points="244,160 250,156 250,164" fill="#2f4f6f"/><text x="326" y="152" text-anchor="middle" font-family="monospace" font-size="12">get orders</text><line x1="244" y1="200" x2="404" y2="200" stroke="#2f4f6f" stroke-width="1.5" stroke-dasharray="6 4"/><polygon points="404,200 398,196 398,204" fill="#2f4f6f"/><text x="326" y="192" text-anchor="middle" font-family="monospace" font-size="12">list</text><rect x="24" y="224" width="120" height="32" rx="4" ry="4" fill="#edf3f8" stroke="#2f4f6f" stroke-width="1"/><text x="84" y="245" text-anchor="middle" font-family="monospace" font-size="13">Auth</text><rect x="184" y="224" width="120" height="32" rx="4" ry="4" fill="#edf3f8" stroke="#2f4f6f" stroke-width="1"/><text x="244" y="245" text-anchor="middle" font-family="monospace" font-size="13">Orders</text><rect x="344" y="224" width="120" height="32" rx="4" ry="4" fill="#edf3f8" stroke="#2f4f6f" stroke-width="1"/><text x="404" y="245" text-anchor="middle" font-family="monospace" font-size="13">Client</text></svg>