<svg xmlns="http://www.w3.org/2000/svg" width="488" height="668" viewBox="0 0 488 668"><rect width="100%" height="100%" fill="white"/><text x="24" y="24" font-family="monospace" font-size="18" font-weight="600" fill="#cc0000">reddress-lightorange Theme Showcase</text><rect x="24" y="52" width="120" height="32" rx="4" ry="4" fill="#fde9cc" stroke="#cc0000" stroke-width="1"/><text x="84" y="73" text-anchor="middle" font-family="monospace" font-size="13" fill="#111111">Alice</text><rect x="184" y="52" width="120" height="32" rx="4" ry="4" fill="#fde9cc" stroke="#cc0000" stroke-width="1"/><text x="244" y="73" text-anchor="middle" font-family="monospace" font-size="13" fill="#111111">Bob</text><rect x="344" y="52" width="120" height="32" rx="4" ry="4" fill="#fde9cc" stroke="#cc0000" stroke-width="1"/><text x="404" y="73" text-anchor="middle" font-family="monospace" font-size="13" fill="#111111">Charlie</text><line x1="84" y1="84" x2="84" y2="612" stroke="#cc0000" stroke-width="1" stroke-dasharray="6 4"/><line x1="244" y1="84" x2="244" y2="612" stroke="#cc0000" stroke-width="1" stroke-dasharray="6 4"/><line x1="404" y1="84" x2="404" y2="612" stroke="#cc0000" stroke-width="1" stroke-dasharray="6 4"/><rect x="24" y="268" width="440" height="320" rx="2" ry="2" fill="#fdeedd" stroke="#e08a20" stroke-width="1"/><polygon points="24,268 117,268 117,282 111,288 24,288" fill="#fdeedd" stroke="#e08a20" stroke-width="1"/><text x="32" y="282" font-family="monospace" font-size="12" font-weight="600" fill="#cc0000">alt success</text><line x1="24" y1="408" x2="464" y2="408" stroke="#e08a20" stroke-width="1" stroke-dasharray="5 4"/><text x="32" y="394" font-family="monospace" font-size="11" fill="#333">else error</text><line x1="84" y1="116" x2="244" y2="116" stroke="#cc0000" stroke-width="1.5"/><polygon points="244,116 236,111 236,121" fill="#cc0000" stroke="#cc0000" stroke-width="1"/><text x="92" y="108" text-anchor="start" font-family="monospace" font-size="12" fill="#cc0000">hello</text><line x1="244" y1="156" x2="404" y2="156" stroke="#cc0000" stroke-width="1.5"/><polygon points="404,156 396,151 396,161" fill="#cc0000" stroke="#cc0000" stroke-width="1"/><text x="252" y="148" text-anchor="start" font-family="monospace" font-size="12" fill="#cc0000">forward</text><line x1="404" y1="196" x2="244" y2="196" stroke="#cc0000" stroke-width="1.5" stroke-dasharray="6 4"/><polygon points="244,196 252,191 252,201" fill="#cc0000" stroke="#cc0000" stroke-width="1"/><text x="252" y="188" text-anchor="start" font-family="monospace" font-size="12" fill="#cc0000">ack</text><line x1="244" y1="236" x2="84" y2="236" stroke="#cc0000" stroke-width="1.5" stroke-dasharray="6 4"/><polygon points="84,236 92,231 92,241" fill="#cc0000" stroke="#cc0000" stroke-width="1"/><text x="92" y="228" text-anchor="start" font-family="monospace" font-size="12" fill="#cc0000">done</text><path d="M 84 316 L 120 316 Q 128 316 128 324 L 128 340 Q 128 348 120 348 L 92 348" fill="none" stroke="#cc0000" stroke-width="1.5"/><polygon points="84,348 92,343 92,353" fill="#cc0000" stroke="#cc0000" stroke-width="1"/><text x="92" y="308" text-anchor="start" font-family="monospace" font-size="12" fill="#cc0000">log success</text><path d="M 84 476 L 120 476 Q 128 476 128 484 L 128 500 Q 128 508 120 508 L 92 508" fill="none" stroke="#cc0000" stroke-width="1.5"/><polygon points="84,508 92,503 92,513" fill="#cc0000" stroke="#cc0000" stroke-width="1"/><text x="92" y="468" text-anchor="start" font-family="monospace" font-size="12" fill="#cc0000">log error</text><rect x="24" y="612" width="120" height="32" rx="4" ry="4" fill="#fde9cc" stroke="#cc0000" stroke-width="1"/><text x="84" y="633" text-anchor="middle" font-family="monospace" font-size="13" fill="#111111">Alice</text><rect x="184" y="612" width="120" height="32" rx="4" ry="4" fill="#fde9cc" stroke="#cc0000" stroke-width="1"/><text x="244" y="633" text-anchor="middle" font-family="monospace" font-size="13" fill="#111111">Bob</text><rect x="344" y="612" width="120" height="32" rx="4" ry="4" fill="#fde9cc" stroke="#cc0000" stroke-width="1"/><text x="404" y="633" text-anchor="middle" font-family="monospace" font-size="13" fill="#111111">Charlie</text></svg>