<svg xmlns="http://www.w3.org/2000/svg" width="528" height="588" viewBox="0 0 528 588"><rect width="100%" height="100%" fill="white"/><text x="24" y="24" font-family="monospace" font-size="18" font-weight="600">amiga Theme Showcase</text><rect x="24" y="52" width="120" height="32" rx="4" ry="4" fill="#ff6600" stroke="#0055aa" stroke-width="1"/><text x="84" y="73" text-anchor="middle" font-family="monospace" font-size="13">Alice</text><rect x="184" y="52" width="120" height="32" rx="4" ry="4" fill="#ff6600" stroke="#0055aa" stroke-width="1"/><text x="244" y="73" text-anchor="middle" font-family="monospace" font-size="13">Bob</text><rect x="344" y="52" width="120" height="32" rx="4" ry="4" fill="#ff6600" stroke="#0055aa" stroke-width="1"/><text x="404" y="73" text-anchor="middle" font-family="monospace" font-size="13">Charlie</text><line x1="84" y1="84" x2="84" y2="532" stroke="#0055aa" stroke-width="1" stroke-dasharray="6 4"/><line x1="244" y1="84" x2="244" y2="532" stroke="#0055aa" stroke-width="1" stroke-dasharray="6 4"/><line x1="404" y1="84" x2="404" y2="532" stroke="#0055aa" stroke-width="1" stroke-dasharray="6 4"/><rect x="24" y="268" width="480" height="240" rx="2" ry="2" fill="#ffe5cc" stroke="#0055aa" stroke-width="1"/><polygon points="24,268 117,268 117,282 111,288 24,288" fill="#ffe5cc" stroke="#0055aa" stroke-width="1"/><text x="32" y="282" font-family="monospace" font-size="12" font-weight="600">alt success</text><line x1="24" y1="368" x2="504" y2="368" stroke="#0055aa" stroke-width="1" stroke-dasharray="5 4"/><text x="32" y="354" font-family="monospace" font-size="11" fill="#333">else error</text><line x1="84" y1="108" x2="244" y2="108" stroke="#0055aa" stroke-width="1.5"/><polygon points="244,108 236,103 236,113" fill="#0055aa" stroke="#0055aa" stroke-width="1"/><text x="92" y="100" text-anchor="start" font-family="monospace" font-size="12">hello</text><line x1="244" y1="148" x2="404" y2="148" stroke="#0055aa" stroke-width="1.5"/><polygon points="404,148 396,143 396,153" fill="#0055aa" stroke="#0055aa" stroke-width="1"/><text x="252" y="140" text-anchor="start" font-family="monospace" font-size="12">forward</text><line x1="404" y1="188" x2="244" y2="188" stroke="#0055aa" stroke-width="1.5" stroke-dasharray="6 4"/><polygon points="244,188 252,183 252,193" fill="#0055aa" stroke="#0055aa" stroke-width="1"/><text x="252" y="180" text-anchor="start" font-family="monospace" font-size="12">ack</text><line x1="244" y1="228" x2="84" y2="228" stroke="#0055aa" stroke-width="1.5" stroke-dasharray="6 4"/><polygon points="84,228 92,223 92,233" fill="#0055aa" stroke="#0055aa" stroke-width="1"/><text x="92" y="220" text-anchor="start" font-family="monospace" font-size="12">done</text><path d="M 84 308 L 128 308 L 128 340 L 92 340" fill="none" stroke="#0055aa" stroke-width="1.5"/><polygon points="84,340 92,335 92,345" fill="#0055aa" stroke="#0055aa" stroke-width="1"/><text x="92" y="300" text-anchor="start" font-family="monospace" font-size="12">log success</text><path d="M 84 428 L 128 428 L 128 460 L 92 460" fill="none" stroke="#0055aa" stroke-width="1.5"/><polygon points="84,460 92,455 92,465" fill="#0055aa" stroke="#0055aa" stroke-width="1"/><text x="92" y="420" text-anchor="start" font-family="monospace" font-size="12">log error</text><rect x="24" y="532" width="120" height="32" rx="4" ry="4" fill="#ff6600" stroke="#0055aa" stroke-width="1"/><text x="84" y="553" text-anchor="middle" font-family="monospace" font-size="13">Alice</text><rect x="184" y="532" width="120" height="32" rx="4" ry="4" fill="#ff6600" stroke="#0055aa" stroke-width="1"/><text x="244" y="553" text-anchor="middle" font-family="monospace" font-size="13">Bob</text><rect x="344" y="532" width="120" height="32" rx="4" ry="4" fill="#ff6600" stroke="#0055aa" stroke-width="1"/><text x="404" y="553" text-anchor="middle" font-family="monospace" font-size="13">Charlie</text></svg>