<svg xmlns="http://www.w3.org/2000/svg" width="528" height="548" viewBox="0 0 528 548"><rect width="100%" height="100%" fill="white"/><text x="24" y="24" font-family="monospace" font-size="18" font-weight="600">reddress-lightgreen Theme Showcase</text><rect x="24" y="52" width="120" height="32" rx="4" ry="4" fill="#d6f0d6" stroke="#cc0000" stroke-width="1"/><text x="84" y="73" text-anchor="middle" font-family="monospace" font-size="13">Alice</text><rect x="184" y="52" width="120" height="32" rx="4" ry="4" fill="#d6f0d6" stroke="#cc0000" stroke-width="1"/><text x="244" y="73" text-anchor="middle" font-family="monospace" font-size="13">Bob</text><rect x="344" y="52" width="120" height="32" rx="4" ry="4" fill="#d6f0d6" stroke="#cc0000" stroke-width="1"/><text x="404" y="73" text-anchor="middle" font-family="monospace" font-size="13">Charlie</text><line x1="84" y1="84" x2="84" y2="492" stroke="#cc0000" stroke-width="1" stroke-dasharray="6 4"/><line x1="244" y1="84" x2="244" y2="492" stroke="#cc0000" stroke-width="1" stroke-dasharray="6 4"/><line x1="404" y1="84" x2="404" y2="492" stroke="#cc0000" stroke-width="1" stroke-dasharray="6 4"/><rect x="24" y="268" width="480" height="200" rx="2" ry="2" fill="#e4f5e4" stroke="#4aaa4a" stroke-width="1"/><polygon points="24,268 117,268 117,282 111,288 24,288" fill="#e4f5e4" stroke="#4aaa4a" stroke-width="1"/><text x="32" y="282" font-family="monospace" font-size="12" font-weight="600">alt success</text><line x1="24" y1="348" x2="504" y2="348" stroke="#4aaa4a" stroke-width="1" stroke-dasharray="5 4"/><text x="32" y="334" font-family="monospace" font-size="11" fill="#333">else error</text><line x1="84" y1="108" x2="244" y2="108" stroke="#cc0000" stroke-width="1.5"/><polygon points="244,108 236,103 236,113" fill="#cc0000" stroke="#cc0000" stroke-width="1"/><text x="92" y="100" text-anchor="start" font-family="monospace" font-size="12">hello</text><line x1="244" y1="148" x2="404" y2="148" stroke="#cc0000" stroke-width="1.5"/><polygon points="404,148 396,143 396,153" fill="#cc0000" stroke="#cc0000" stroke-width="1"/><text x="252" y="140" text-anchor="start" font-family="monospace" font-size="12">forward</text><line x1="404" y1="188" x2="244" y2="188" stroke="#cc0000" stroke-width="1.5" stroke-dasharray="6 4"/><polygon points="244,188 252,183 252,193" fill="#cc0000" stroke="#cc0000" stroke-width="1"/><text x="252" y="180" text-anchor="start" font-family="monospace" font-size="12">ack</text><line x1="244" y1="228" x2="84" y2="228" stroke="#cc0000" stroke-width="1.5" stroke-dasharray="6 4"/><polygon points="84,228 92,223 92,233" fill="#cc0000" stroke="#cc0000" stroke-width="1"/><text x="92" y="220" text-anchor="start" font-family="monospace" font-size="12">done</text><path d="M 84 308 L 128 308 L 128 340 L 84 340" fill="none" stroke="#cc0000" stroke-width="1.5"/><polygon points="84,340 92,335 92,345" fill="#cc0000" stroke="#cc0000" stroke-width="1"/><text x="92" y="300" text-anchor="start" font-family="monospace" font-size="12">log success</text><path d="M 84 388 L 128 388 L 128 420 L 84 420" fill="none" stroke="#cc0000" stroke-width="1.5"/><polygon points="84,420 92,415 92,425" fill="#cc0000" stroke="#cc0000" stroke-width="1"/><text x="92" y="380" text-anchor="start" font-family="monospace" font-size="12">log error</text><rect x="24" y="492" width="120" height="32" rx="4" ry="4" fill="#d6f0d6" stroke="#cc0000" stroke-width="1"/><text x="84" y="513" text-anchor="middle" font-family="monospace" font-size="13">Alice</text><rect x="184" y="492" width="120" height="32" rx="4" ry="4" fill="#d6f0d6" stroke="#cc0000" stroke-width="1"/><text x="244" y="513" text-anchor="middle" font-family="monospace" font-size="13">Bob</text><rect x="344" y="492" width="120" height="32" rx="4" ry="4" fill="#d6f0d6" stroke="#cc0000" stroke-width="1"/><text x="404" y="513" text-anchor="middle" font-family="monospace" font-size="13">Charlie</text></svg>