<svg xmlns="http://www.w3.org/2000/svg" width="312" height="508" viewBox="0 0 312 508"><rect width="100%" height="100%" fill="#161616"/><text x="16" y="16" font-family="monospace" font-size="18" font-weight="600" fill="#e0e0e0">carbon-gray Theme Showcase</text><rect x="16" y="44" width="80" height="32" rx="4" ry="4" fill="#393939" stroke="#e0e0e0" stroke-width="1"/><text x="56" y="65" text-anchor="middle" font-family="monospace" font-size="13" fill="#ffffff">Alice</text><rect x="116" y="44" width="80" height="32" rx="4" ry="4" fill="#393939" stroke="#e0e0e0" stroke-width="1"/><text x="156" y="65" text-anchor="middle" font-family="monospace" font-size="13" fill="#ffffff">Bob</text><rect x="216" y="44" width="80" height="32" rx="4" ry="4" fill="#393939" stroke="#e0e0e0" stroke-width="1"/><text x="256" y="65" text-anchor="middle" font-family="monospace" font-size="13" fill="#ffffff">Charlie</text><line x1="56" y1="76" x2="56" y2="460" stroke="#8d8d8d" stroke-width="1" stroke-dasharray="6 4"/><line x1="156" y1="76" x2="156" y2="460" stroke="#8d8d8d" stroke-width="1" stroke-dasharray="6 4"/><line x1="256" y1="76" x2="256" y2="460" stroke="#8d8d8d" stroke-width="1" stroke-dasharray="6 4"/><rect x="16" y="212" width="280" height="224" rx="2" ry="2" fill="#2e2e2e" stroke="#525252" stroke-width="1"/><polygon points="16,212 109,212 109,226 103,232 16,232" fill="#2e2e2e" stroke="#525252" stroke-width="1"/><text x="24" y="226" font-family="monospace" font-size="12" font-weight="600" fill="#e0e0e0">alt success</text><line x1="16" y1="310" x2="296" y2="310" stroke="#525252" stroke-width="1" stroke-dasharray="5 4"/><text x="24" y="296" font-family="monospace" font-size="11" fill="#333">else error</text><line x1="56" y1="108" x2="156" y2="108" stroke="#e0e0e0" stroke-width="1.5"/><polygon points="156,108 148,103 148,113" fill="#e0e0e0" stroke="#e0e0e0" stroke-width="1"/><text x="64" y="100" text-anchor="start" font-family="monospace" font-size="12" fill="#e0e0e0">hello</text><line x1="156" y1="136" x2="256" y2="136" stroke="#e0e0e0" stroke-width="1.5"/><polygon points="256,136 248,131 248,141" fill="#e0e0e0" stroke="#e0e0e0" stroke-width="1"/><text x="164" y="128" text-anchor="start" font-family="monospace" font-size="12" fill="#e0e0e0">forward</text><line x1="256" y1="164" x2="156" y2="164" stroke="#e0e0e0" stroke-width="1.5" stroke-dasharray="6 4"/><polygon points="156,164 164,159 164,169" fill="#e0e0e0" stroke="#e0e0e0" stroke-width="1"/><text x="164" y="156" text-anchor="start" font-family="monospace" font-size="12" fill="#e0e0e0">ack</text><line x1="156" y1="192" x2="56" y2="192" stroke="#e0e0e0" stroke-width="1.5" stroke-dasharray="6 4"/><polygon points="56,192 64,187 64,197" fill="#e0e0e0" stroke="#e0e0e0" stroke-width="1"/><text x="64" y="184" text-anchor="start" font-family="monospace" font-size="12" fill="#e0e0e0">done</text><path d="M 56 264 L 92 264 Q 100 264 100 272 L 100 288 Q 100 296 92 296 L 64 296" fill="none" stroke="#e0e0e0" stroke-width="1.5"/><polygon points="56,296 64,291 64,301" fill="#e0e0e0" stroke="#e0e0e0" stroke-width="1"/><text x="64" y="240" text-anchor="start" font-family="monospace" font-size="12" fill="#e0e0e0">log</text><text x="64" y="256" text-anchor="start" font-family="monospace" font-size="12" fill="#e0e0e0">success</text><path d="M 56 360 L 92 360 Q 100 360 100 368 L 100 384 Q 100 392 92 392 L 64 392" fill="none" stroke="#e0e0e0" stroke-width="1.5"/><polygon points="56,392 64,387 64,397" fill="#e0e0e0" stroke="#e0e0e0" stroke-width="1"/><text x="64" y="352" text-anchor="start" font-family="monospace" font-size="12" fill="#e0e0e0">log error</text><rect x="16" y="460" width="80" height="32" rx="4" ry="4" fill="#393939" stroke="#e0e0e0" stroke-width="1"/><text x="56" y="481" text-anchor="middle" font-family="monospace" font-size="13" fill="#ffffff">Alice</text><rect x="116" y="460" width="80" height="32" rx="4" ry="4" fill="#393939" stroke="#e0e0e0" stroke-width="1"/><text x="156" y="481" text-anchor="middle" font-family="monospace" font-size="13" fill="#ffffff">Bob</text><rect x="216" y="460" width="80" height="32" rx="4" ry="4" fill="#393939" stroke="#e0e0e0" stroke-width="1"/><text x="256" y="481" text-anchor="middle" font-family="monospace" font-size="13" fill="#ffffff">Charlie</text></svg>