<svg xmlns="http://www.w3.org/2000/svg" width="312" height="528" viewBox="0 0 312 528"><defs><filter id="sketch" x="-5%" y="-5%" width="110%" height="110%"><feTurbulence type="fractalNoise" baseFrequency="0.04" numOctaves="3" seed="2" result="noise"/><feDisplacementMap in="SourceGraphic" in2="noise" scale="2.5" xChannelSelector="R" yChannelSelector="G"/></filter></defs><rect width="100%" height="100%" fill="white"/><text x="16" y="16" font-family="monospace" font-size="18" font-weight="600" fill="#333333">sketchy outline Theme</text><text x="16" y="40" font-family="monospace" font-size="18" font-weight="600" fill="#333333">Showcase</text><rect x="16" y="64" width="80" height="32" rx="4" ry="4" fill="#ffffff" stroke="#333333" stroke-width="1"/><text x="56" y="85" text-anchor="middle" font-family="monospace" font-size="13" fill="#111111">Alice</text><rect x="116" y="64" width="80" height="32" rx="4" ry="4" fill="#ffffff" stroke="#333333" stroke-width="1"/><text x="156" y="85" text-anchor="middle" font-family="monospace" font-size="13" fill="#111111">Bob</text><rect x="216" y="64" width="80" height="32" rx="4" ry="4" fill="#ffffff" stroke="#333333" stroke-width="1"/><text x="256" y="85" text-anchor="middle" font-family="monospace" font-size="13" fill="#111111">Charlie</text><g filter="url(#sketch)"><line x1="56" y1="96" x2="56" y2="480" stroke="#555555" stroke-width="1" stroke-dasharray="6 4"/><line x1="156" y1="96" x2="156" y2="480" stroke="#555555" stroke-width="1" stroke-dasharray="6 4"/><line x1="256" y1="96" x2="256" y2="480" stroke="#555555" stroke-width="1" stroke-dasharray="6 4"/></g><rect x="16" y="232" width="280" height="224" rx="2" ry="2" fill="#ffffff" stroke="#777777" stroke-width="1"/><polygon points="16,232 109,232 109,246 103,252 16,252" fill="#ffffff" stroke="#777777" stroke-width="1"/><text x="24" y="246" font-family="monospace" font-size="12" font-weight="600" fill="#333333">alt success</text><line x1="16" y1="330" x2="296" y2="330" stroke="#777777" stroke-width="1" stroke-dasharray="5 4"/><text x="24" y="316" font-family="monospace" font-size="11" fill="#333">else error</text><g filter="url(#sketch)"><line x1="56" y1="128" x2="156" y2="128" stroke="#333333" stroke-width="1.5"/><polygon points="156,128 148,123 148,133" fill="#333333" stroke="#333333" stroke-width="1"/></g><text x="64" y="120" text-anchor="start" font-family="monospace" font-size="12" fill="#333333">hello</text><g filter="url(#sketch)"><line x1="156" y1="156" x2="256" y2="156" stroke="#333333" stroke-width="1.5"/><polygon points="256,156 248,151 248,161" fill="#333333" stroke="#333333" stroke-width="1"/></g><text x="164" y="148" text-anchor="start" font-family="monospace" font-size="12" fill="#333333">forward</text><g filter="url(#sketch)"><line x1="256" y1="184" x2="156" y2="184" stroke="#333333" stroke-width="1.5" stroke-dasharray="6 4"/><polygon points="156,184 164,179 164,189" fill="#333333" stroke="#333333" stroke-width="1"/></g><text x="164" y="176" text-anchor="start" font-family="monospace" font-size="12" fill="#333333">ack</text><g filter="url(#sketch)"><line x1="156" y1="212" x2="56" y2="212" stroke="#333333" stroke-width="1.5" stroke-dasharray="6 4"/><polygon points="56,212 64,207 64,217" fill="#333333" stroke="#333333" stroke-width="1"/></g><text x="64" y="204" text-anchor="start" font-family="monospace" font-size="12" fill="#333333">done</text><g filter="url(#sketch)"><path d="M 56 284 L 92 284 Q 100 284 100 292 L 100 308 Q 100 316 92 316 L 64 316" fill="none" stroke="#333333" stroke-width="1.5"/><polygon points="56,316 64,311 64,321" fill="#333333" stroke="#333333" stroke-width="1"/></g><text x="64" y="260" text-anchor="start" font-family="monospace" font-size="12" fill="#333333">log</text><text x="64" y="276" text-anchor="start" font-family="monospace" font-size="12" fill="#333333">success</text><g filter="url(#sketch)"><path d="M 56 380 L 92 380 Q 100 380 100 388 L 100 404 Q 100 412 92 412 L 64 412" fill="none" stroke="#333333" stroke-width="1.5"/><polygon points="56,412 64,407 64,417" fill="#333333" stroke="#333333" stroke-width="1"/></g><text x="64" y="372" text-anchor="start" font-family="monospace" font-size="12" fill="#333333">log error</text><rect x="16" y="480" width="80" height="32" rx="4" ry="4" fill="#ffffff" stroke="#333333" stroke-width="1"/><text x="56" y="501" text-anchor="middle" font-family="monospace" font-size="13" fill="#111111">Alice</text><rect x="116" y="480" width="80" height="32" rx="4" ry="4" fill="#ffffff" stroke="#333333" stroke-width="1"/><text x="156" y="501" text-anchor="middle" font-family="monospace" font-size="13" fill="#111111">Bob</text><rect x="216" y="480" width="80" height="32" rx="4" ry="4" fill="#ffffff" stroke="#333333" stroke-width="1"/><text x="256" y="501" text-anchor="middle" font-family="monospace" font-size="13" fill="#111111">Charlie</text></svg>