<svg xmlns="http://www.w3.org/2000/svg" width="528" height="548" viewBox="0 0 528 548"><rect width="100%" height="100%" fill="white"/><text x="24" y="24" font-family="monospace" font-size="18" font-weight="600">mono Theme Showcase</text><rect x="24" y="52" width="120" height="32" rx="4" ry="4" fill="#e8e8e8" stroke="#222222" stroke-width="1"/><text x="84" y="73" text-anchor="middle" font-family="monospace" font-size="13">Alice</text><rect x="184" y="52" width="120" height="32" rx="4" ry="4" fill="#e8e8e8" stroke="#222222" stroke-width="1"/><text x="244" y="73" text-anchor="middle" font-family="monospace" font-size="13">Bob</text><rect x="344" y="52" width="120" height="32" rx="4" ry="4" fill="#e8e8e8" stroke="#222222" stroke-width="1"/><text x="404" y="73" text-anchor="middle" font-family="monospace" font-size="13">Charlie</text><line x1="84" y1="84" x2="84" y2="492" stroke="#555555" stroke-width="1" stroke-dasharray="6 4"/><line x1="244" y1="84" x2="244" y2="492" stroke="#555555" stroke-width="1" stroke-dasharray="6 4"/><line x1="404" y1="84" x2="404" y2="492" stroke="#555555" stroke-width="1" stroke-dasharray="6 4"/><rect x="24" y="268" width="480" height="200" rx="2" ry="2" fill="#f0f0f0" stroke="#777777" stroke-width="1"/><text x="32" y="284" font-family="monospace" font-size="12" font-weight="600">alt success</text><line x1="24" y1="348" x2="504" y2="348" stroke="#777777" stroke-width="1" stroke-dasharray="5 4"/><text x="32" y="342" font-family="monospace" font-size="11" fill="#333">error</text><line x1="84" y1="108" x2="244" y2="108" stroke="#222222" stroke-width="1.5"/><polygon points="244,108 238,104 238,112" fill="#222222"/><text x="166" y="100" text-anchor="middle" font-family="monospace" font-size="12">hello</text><line x1="244" y1="148" x2="404" y2="148" stroke="#222222" stroke-width="1.5"/><polygon points="404,148 398,144 398,152" fill="#222222"/><text x="326" y="140" text-anchor="middle" font-family="monospace" font-size="12">forward</text><line x1="404" y1="188" x2="244" y2="188" stroke="#222222" stroke-width="1.5" stroke-dasharray="6 4"/><polygon points="244,188 250,184 250,192" fill="#222222"/><text x="326" y="180" text-anchor="middle" font-family="monospace" font-size="12">ack</text><line x1="244" y1="228" x2="84" y2="228" stroke="#222222" stroke-width="1.5" stroke-dasharray="6 4"/><polygon points="84,228 90,224 90,232" fill="#222222"/><text x="166" y="220" text-anchor="middle" font-family="monospace" font-size="12">done</text><line x1="84" y1="308" x2="128" y2="308" stroke="#222222" stroke-width="1.5"/><polygon points="128,308 122,304 122,312" fill="#222222"/><text x="108" y="300" text-anchor="middle" font-family="monospace" font-size="12">log success</text><line x1="84" y1="388" x2="128" y2="388" stroke="#222222" stroke-width="1.5"/><polygon points="128,388 122,384 122,392" fill="#222222"/><text x="108" y="380" text-anchor="middle" font-family="monospace" font-size="12">log error</text><rect x="24" y="492" width="120" height="32" rx="4" ry="4" fill="#e8e8e8" stroke="#222222" stroke-width="1"/><text x="84" y="513" text-anchor="middle" font-family="monospace" font-size="13">Alice</text><rect x="184" y="492" width="120" height="32" rx="4" ry="4" fill="#e8e8e8" stroke="#222222" stroke-width="1"/><text x="244" y="513" text-anchor="middle" font-family="monospace" font-size="13">Bob</text><rect x="344" y="492" width="120" height="32" rx="4" ry="4" fill="#e8e8e8" stroke="#222222" stroke-width="1"/><text x="404" y="513" text-anchor="middle" font-family="monospace" font-size="13">Charlie</text></svg>