<svg xmlns="http://www.w3.org/2000/svg" width="920" height="1230" viewBox="0 0 920 1230" data-stdlib-catalog="true" data-stdlib-entry-count="533" data-stdlib-pack-count="11" data-stdlib-unavailable-pack-count="12"><rect width="100%" height="100%" fill="white"/><rect x="24" y="24" width="872" height="56" rx="4" ry="4" fill="#f8fafc" stroke="#334155" stroke-width="1.5"/><text x="40" y="48" font-family="monospace" font-size="18" font-weight="700" fill="#0f172a">Local stdlib inventory</text><text x="40" y="68" font-family="monospace" font-size="12" fill="#475569">533 entries, 11 available packs, 12 unavailable upstream packs</text><text x="24" y="112" font-family="monospace" font-size="14" font-weight="700" fill="#0f172a">Packs</text><rect x="24" y="114" width="872" height="24" fill="#ffffff" stroke="#e2e8f0" stroke-width="1"/><text x="40" y="130" font-family="monospace" font-size="12" fill="#166534">C4</text><text x="360" y="130" font-family="monospace" font-size="12" fill="#475569">available; files 7; alias paths 0</text><rect x="24" y="138" width="872" height="24" fill="#ffffff" stroke="#e2e8f0" stroke-width="1"/><text x="40" y="154" font-family="monospace" font-size="12" fill="#991b1b">DomainStory</text><text x="360" y="154" font-family="monospace" font-size="12" fill="#475569">unavailable; files 0; alias paths 0</text><rect x="24" y="162" width="872" height="24" fill="#ffffff" stroke="#e2e8f0" stroke-width="1"/><text x="40" y="178" font-family="monospace" font-size="12" fill="#991b1b">ada</text><text x="360" y="178" font-family="monospace" font-size="12" fill="#475569">unavailable; files 0; alias paths 0</text><rect x="24" y="186" width="872" height="24" fill="#ffffff" stroke="#e2e8f0" stroke-width="1"/><text x="40" y="202" font-family="monospace" font-size="12" fill="#991b1b">archimate</text><text x="360" y="202" font-family="monospace" font-size="12" fill="#475569">unavailable; files 0; alias paths 0</text><rect x="24" y="210" width="872" height="24" fill="#ffffff" stroke="#e2e8f0" stroke-width="1"/><text x="40" y="226" font-family="monospace" font-size="12" fill="#991b1b">aws</text><text x="360" y="226" font-family="monospace" font-size="12" fill="#475569">unavailable; files 0; alias paths 0</text><rect x="24" y="234" width="872" height="24" fill="#ffffff" stroke="#e2e8f0" stroke-width="1"/><text x="40" y="250" font-family="monospace" font-size="12" fill="#166534">awslib</text><text x="360" y="250" font-family="monospace" font-size="12" fill="#475569">available; files 0; alias paths 25</text><rect x="24" y="258" width="872" height="24" fill="#ffffff" stroke="#e2e8f0" stroke-width="1"/><text x="40" y="274" font-family="monospace" font-size="12" fill="#166534">awslib14</text><text x="360" y="274" font-family="monospace" font-size="12" fill="#475569">available; files 25; alias paths 0</text><rect x="24" y="282" width="872" height="24" fill="#ffffff" stroke="#e2e8f0" stroke-width="1"/><text x="40" y="298" font-family="monospace" font-size="12" fill="#166534">azure</text><text x="360" y="298" font-family="monospace" font-size="12" fill="#475569">available; files 11; alias paths 0</text><rect x="24" y="306" width="872" height="24" fill="#ffffff" stroke="#e2e8f0" stroke-width="1"/><text x="40" y="322" font-family="monospace" font-size="12" fill="#991b1b">bootstrap</text><text x="360" y="322" font-family="monospace" font-size="12" fill="#475569">unavailable; files 0; alias paths 0</text><rect x="24" y="330" width="872" height="24" fill="#ffffff" stroke="#e2e8f0" stroke-width="1"/><text x="40" y="346" font-family="monospace" font-size="12" fill="#991b1b">classy</text><text x="360" y="346" font-family="monospace" font-size="12" fill="#475569">unavailable; files 0; alias paths 0</text><rect x="24" y="354" width="872" height="24" fill="#ffffff" stroke="#e2e8f0" stroke-width="1"/><text x="40" y="370" font-family="monospace" font-size="12" fill="#991b1b">classy-c4</text><text x="360" y="370" font-family="monospace" font-size="12" fill="#475569">unavailable; files 0; alias paths 0</text><rect x="24" y="378" width="872" height="24" fill="#ffffff" stroke="#e2e8f0" stroke-width="1"/><text x="40" y="394" font-family="monospace" font-size="12" fill="#991b1b">edgy</text><text x="360" y="394" font-family="monospace" font-size="12" fill="#475569">unavailable; files 0; alias paths 0</text><rect x="24" y="402" width="872" height="24" fill="#ffffff" stroke="#e2e8f0" stroke-width="1"/><text x="40" y="418" font-family="monospace" font-size="12" fill="#991b1b">eip</text><text x="360" y="418" font-family="monospace" font-size="12" fill="#475569">unavailable; files 0; alias paths 0</text><rect x="24" y="426" width="872" height="24" fill="#ffffff" stroke="#e2e8f0" stroke-width="1"/><text x="40" y="442" font-family="monospace" font-size="12" fill="#991b1b">elastic</text><text x="360" y="442" font-family="monospace" font-size="12" fill="#475569">unavailable; files 0; alias paths 0</text><rect x="24" y="450" width="872" height="24" fill="#ffffff" stroke="#e2e8f0" stroke-width="1"/><text x="40" y="466" font-family="monospace" font-size="12" fill="#166534">gcp</text><text x="360" y="466" font-family="monospace" font-size="12" fill="#475569">available; files 11; alias paths 0</text><rect x="24" y="474" width="872" height="24" fill="#ffffff" stroke="#e2e8f0" stroke-width="1"/><text x="40" y="490" font-family="monospace" font-size="12" fill="#991b1b">k8s</text><text x="360" y="490" font-family="monospace" font-size="12" fill="#475569">unavailable; files 0; alias paths 0</text><rect x="24" y="498" width="872" height="24" fill="#ffffff" stroke="#e2e8f0" stroke-width="1"/><text x="40" y="514" font-family="monospace" font-size="12" fill="#166534">material</text><text x="360" y="514" font-family="monospace" font-size="12" fill="#475569">available; files 53; alias paths 0</text><rect x="24" y="522" width="872" height="24" fill="#ffffff" stroke="#e2e8f0" stroke-width="1"/><text x="40" y="538" font-family="monospace" font-size="12" fill="#166534">material2</text><text x="360" y="538" font-family="monospace" font-size="12" fill="#475569">available; files 0; alias paths 53</text><rect x="24" y="546" width="872" height="24" fill="#ffffff" stroke="#e2e8f0" stroke-width="1"/><text x="40" y="562" font-family="monospace" font-size="12" fill="#166534">material2.1.19</text><text x="360" y="562" font-family="monospace" font-size="12" fill="#475569">available; files 0; alias paths 53</text><rect x="24" y="570" width="872" height="24" fill="#ffffff" stroke="#e2e8f0" stroke-width="1"/><text x="40" y="586" font-family="monospace" font-size="12" fill="#991b1b">material7</text><text x="360" y="586" font-family="monospace" font-size="12" fill="#475569">unavailable; files 0; alias paths 0</text><rect x="24" y="594" width="872" height="24" fill="#ffffff" stroke="#e2e8f0" stroke-width="1"/><text x="40" y="610" font-family="monospace" font-size="12" fill="#166534">office</text><text x="360" y="610" font-family="monospace" font-size="12" fill="#475569">available; files 12; alias paths 0</text><rect x="24" y="618" width="872" height="24" fill="#ffffff" stroke="#e2e8f0" stroke-width="1"/><text x="40" y="634" font-family="monospace" font-size="12" fill="#0369a1">openiconic</text><text x="360" y="634" font-family="monospace" font-size="12" fill="#475569">builtin; files 225; alias paths 0</text><rect x="24" y="642" width="872" height="24" fill="#ffffff" stroke="#e2e8f0" stroke-width="1"/><text x="40" y="658" font-family="monospace" font-size="12" fill="#166534">tupadr3</text><text x="360" y="658" font-family="monospace" font-size="12" fill="#475569">available; files 58; alias paths 0</text><text x="24" y="694" font-family="monospace" font-size="14" font-weight="700" fill="#0f172a">Aliases</text><rect x="24" y="696" width="872" height="24" fill="#ffffff" stroke="#e2e8f0" stroke-width="1"/><text x="40" y="712" font-family="monospace" font-size="12" fill="#1d4ed8">awslib</text><text x="360" y="712" font-family="monospace" font-size="12" fill="#475569">-&gt; awslib14</text><rect x="24" y="720" width="872" height="24" fill="#ffffff" stroke="#e2e8f0" stroke-width="1"/><text x="40" y="736" font-family="monospace" font-size="12" fill="#1d4ed8">material2</text><text x="360" y="736" font-family="monospace" font-size="12" fill="#475569">-&gt; material</text><rect x="24" y="744" width="872" height="24" fill="#ffffff" stroke="#e2e8f0" stroke-width="1"/><text x="40" y="760" font-family="monospace" font-size="12" fill="#1d4ed8">material2.1.19</text><text x="360" y="760" font-family="monospace" font-size="12" fill="#475569">-&gt; material</text><text x="24" y="796" font-family="monospace" font-size="14" font-weight="700" fill="#0f172a">Sample Include Paths</text><rect x="24" y="798" width="872" height="24" fill="#ffffff" stroke="#e2e8f0" stroke-width="1"/><text x="40" y="814" font-family="monospace" font-size="12" fill="#334155">C4/C4.puml</text><text x="360" y="814" font-family="monospace" font-size="12" fill="#475569">direct</text><rect x="24" y="822" width="872" height="24" fill="#ffffff" stroke="#e2e8f0" stroke-width="1"/><text x="40" y="838" font-family="monospace" font-size="12" fill="#334155">C4/C4_Component.puml</text><text x="360" y="838" font-family="monospace" font-size="12" fill="#475569">direct</text><rect x="24" y="846" width="872" height="24" fill="#ffffff" stroke="#e2e8f0" stroke-width="1"/><text x="40" y="862" font-family="monospace" font-size="12" fill="#334155">C4/C4_Container.puml</text><text x="360" y="862" font-family="monospace" font-size="12" fill="#475569">direct</text><rect x="24" y="870" width="872" height="24" fill="#ffffff" stroke="#e2e8f0" stroke-width="1"/><text x="40" y="886" font-family="monospace" font-size="12" fill="#334155">C4/C4_Context.puml</text><text x="360" y="886" font-family="monospace" font-size="12" fill="#475569">direct</text><rect x="24" y="894" width="872" height="24" fill="#ffffff" stroke="#e2e8f0" stroke-width="1"/><text x="40" y="910" font-family="monospace" font-size="12" fill="#334155">C4/C4_Deployment.puml</text><text x="360" y="910" font-family="monospace" font-size="12" fill="#475569">direct</text><rect x="24" y="918" width="872" height="24" fill="#ffffff" stroke="#e2e8f0" stroke-width="1"/><text x="40" y="934" font-family="monospace" font-size="12" fill="#334155">C4/C4_Dynamic.puml</text><text x="360" y="934" font-family="monospace" font-size="12" fill="#475569">direct</text><rect x="24" y="942" width="872" height="24" fill="#ffffff" stroke="#e2e8f0" stroke-width="1"/><text x="40" y="958" font-family="monospace" font-size="12" fill="#334155">C4/C4_Sequence.puml</text><text x="360" y="958" font-family="monospace" font-size="12" fill="#475569">direct</text><rect x="24" y="966" width="872" height="24" fill="#ffffff" stroke="#e2e8f0" stroke-width="1"/><text x="40" y="982" font-family="monospace" font-size="12" fill="#334155">awslib/AWSCommon.puml</text><text x="360" y="982" font-family="monospace" font-size="12" fill="#475569">-&gt; awslib14/AWSCommon.puml</text><rect x="24" y="990" width="872" height="24" fill="#ffffff" stroke="#e2e8f0" stroke-width="1"/><text x="40" y="1006" font-family="monospace" font-size="12" fill="#334155">awslib/Compute/Batch.puml</text><text x="360" y="1006" font-family="monospace" font-size="12" fill="#475569">-&gt; awslib14/Compute/Batch.puml</text><rect x="24" y="1014" width="872" height="24" fill="#ffffff" stroke="#e2e8f0" stroke-width="1"/><text x="40" y="1030" font-family="monospace" font-size="12" fill="#334155">awslib/Compute/EC2.puml</text><text x="360" y="1030" font-family="monospace" font-size="12" fill="#475569">-&gt; awslib14/Compute/EC2.puml</text><rect x="24" y="1038" width="872" height="24" fill="#ffffff" stroke="#e2e8f0" stroke-width="1"/><text x="40" y="1054" font-family="monospace" font-size="12" fill="#334155">awslib/Compute/ECS.puml</text><text x="360" y="1054" font-family="monospace" font-size="12" fill="#475569">-&gt; awslib14/Compute/ECS.puml</text><rect x="24" y="1062" width="872" height="24" fill="#ffffff" stroke="#e2e8f0" stroke-width="1"/><text x="40" y="1078" font-family="monospace" font-size="12" fill="#334155">awslib/Compute/EKS.puml</text><text x="360" y="1078" font-family="monospace" font-size="12" fill="#475569">-&gt; awslib14/Compute/EKS.puml</text><rect x="24" y="1086" width="872" height="24" fill="#ffffff" stroke="#e2e8f0" stroke-width="1"/><text x="40" y="1102" font-family="monospace" font-size="12" fill="#334155">awslib/Compute/Fargate.puml</text><text x="360" y="1102" font-family="monospace" font-size="12" fill="#475569">-&gt; awslib14/Compute/Fargate.puml</text><rect x="24" y="1110" width="872" height="24" fill="#ffffff" stroke="#e2e8f0" stroke-width="1"/><text x="40" y="1126" font-family="monospace" font-size="12" fill="#334155">awslib/Compute/Lambda.puml</text><text x="360" y="1126" font-family="monospace" font-size="12" fill="#475569">-&gt; awslib14/Compute/Lambda.puml</text><rect x="24" y="1134" width="872" height="24" fill="#ffffff" stroke="#e2e8f0" stroke-width="1"/><text x="40" y="1150" font-family="monospace" font-size="12" fill="#334155">awslib/Database/Aurora.puml</text><text x="360" y="1150" font-family="monospace" font-size="12" fill="#475569">-&gt; awslib14/Database/Aurora.puml</text><rect x="24" y="1158" width="872" height="24" fill="#ffffff" stroke="#e2e8f0" stroke-width="1"/><text x="40" y="1174" font-family="monospace" font-size="12" fill="#334155">awslib/Database/DynamoDB.puml</text><text x="360" y="1174" font-family="monospace" font-size="12" fill="#475569">-&gt; awslib14/Database/DynamoDB.puml</text><rect x="24" y="1182" width="872" height="24" fill="#ffffff" stroke="#e2e8f0" stroke-width="1"/><text x="40" y="1198" font-family="monospace" font-size="12" fill="#334155">awslib/Database/ElastiCache.puml</text><text x="360" y="1198" font-family="monospace" font-size="12" fill="#475569">-&gt; awslib14/Database/ElastiCache.puml</text><rect x="24" y="1206" width="872" height="24" fill="#ffffff" stroke="#e2e8f0" stroke-width="1"/><text x="40" y="1222" font-family="monospace" font-size="12" fill="#334155">awslib/Database/RDS.puml</text><text x="360" y="1222" font-family="monospace" font-size="12" fill="#475569">-&gt; awslib14/Database/RDS.puml</text></svg>