<svg xmlns="http://www.w3.org/2000/svg" width="704" height="500" viewBox="0 0 704 500"><rect width="100%" height="100%" fill="#ffffff"/><defs><marker id="arrow-open" viewBox="0 0 10 10" refX="9" refY="5" markerWidth="10" markerHeight="10" markerUnits="userSpaceOnUse" orient="auto-start-reverse"><path d="M0,0 L10,5 L0,10" fill="none" stroke="#1e293b" stroke-width="1.5"/></marker><marker id="arrow-triangle" viewBox="0 0 16 16" refX="15" refY="8" markerWidth="16" markerHeight="16" markerUnits="userSpaceOnUse" orient="auto-start-reverse"><polygon points="0,1 14,8 0,15" fill="#ffffff" stroke="#1e293b" stroke-width="1.5" fill-rule="nonzero"/></marker><marker id="arrow-diamond-filled" viewBox="0 0 14 10" refX="13" refY="5" markerWidth="14" markerHeight="10" markerUnits="userSpaceOnUse" orient="auto-start-reverse"><path d="M0,5 L7,0 L14,5 L7,10 z" fill="#1e293b" stroke="#1e293b" stroke-width="1"/></marker><marker id="arrow-diamond-open" viewBox="0 0 14 10" refX="13" refY="5" markerWidth="14" markerHeight="10" markerUnits="userSpaceOnUse" orient="auto-start-reverse"><path d="M0,5 L7,0 L14,5 L7,10 z" fill="#ffffff" stroke="#1e293b" stroke-width="1"/></marker></defs><polyline class="uml-relation" data-uml-from="User" data-uml-to="Login" data-uml-arrow="--&gt;" points="112,96 112,160 112,224" fill="none" stroke="#1e293b" stroke-width="2" marker-end="url(#arrow-open)" /><polyline class="uml-relation" data-uml-from="Login" data-uml-to="Register" data-uml-arrow="--&gt;" points="112,262 112,326 112,390" fill="none" stroke="#1e293b" stroke-width="2" marker-end="url(#arrow-open)" /><text x="112" y="314" text-anchor="middle" font-family="monospace" font-size="11" fill="#334155">leads to</text><circle cx="112" cy="43" r="9" fill="none" stroke="#1e293b" stroke-width="1.5"/><line x1="112" y1="52" x2="112" y2="66" stroke="#1e293b" stroke-width="1.5"/><line x1="100" y1="58" x2="124" y2="58" stroke="#1e293b" stroke-width="1.5"/><line x1="112" y1="66" x2="102" y2="78" stroke="#1e293b" stroke-width="1.5"/><line x1="112" y1="66" x2="122" y2="78" stroke="#1e293b" stroke-width="1.5"/><text x="112" y="92" text-anchor="middle" font-family="monospace" font-size="13" font-weight="600" fill="#0f172a">User</text><ellipse cx="112" cy="243" rx="80" ry="19" fill="#ffffff" stroke="#1e293b" stroke-width="1.5"/><text x="112" y="247" text-anchor="middle" font-family="monospace" font-size="13" font-weight="600" fill="#0f172a">Login</text><ellipse cx="112" cy="409" rx="80" ry="19" fill="#ffffff" stroke="#1e293b" stroke-width="1.5"/><text x="112" y="413" text-anchor="middle" font-family="monospace" font-size="13" font-weight="600" fill="#0f172a">Register</text></svg>