<svg xmlns="http://www.w3.org/2000/svg" width="528" height="516" viewBox="0 0 528 516" data-orientation="TopToBottom"><rect width="100%" height="100%" fill="#ffffff"/><defs><marker id="arrow-open" viewBox="0 0 10 10" refX="9" refY="5" markerWidth="10" markerHeight="10" markerUnits="userSpaceOnUse" orient="auto-start-reverse"><path d="M0,0 L10,5 L0,10" fill="none" stroke="#1e293b" stroke-width="1.5"/></marker><marker id="arrow-triangle" viewBox="0 0 16 16" refX="15" refY="8" markerWidth="16" markerHeight="16" markerUnits="userSpaceOnUse" orient="auto-start-reverse"><polygon points="0,1 14,8 0,15" fill="#ffffff" stroke="#1e293b" stroke-width="1.5" fill-rule="nonzero"/></marker><marker id="arrow-diamond-filled" viewBox="0 0 14 10" refX="13" refY="5" markerWidth="14" markerHeight="10" markerUnits="userSpaceOnUse" orient="auto-start-reverse"><path d="M0,5 L7,0 L14,5 L7,10 z" fill="#1e293b" stroke="#1e293b" stroke-width="1"/></marker><marker id="arrow-diamond-open" viewBox="0 0 14 10" refX="13" refY="5" markerWidth="14" markerHeight="10" markerUnits="userSpaceOnUse" orient="auto-start-reverse"><path d="M0,5 L7,0 L14,5 L7,10 z" fill="#ffffff" stroke="#1e293b" stroke-width="1"/></marker></defs><defs><marker id="arrow-triangle-filled" viewBox="0 0 12 12" refX="11" refY="6" markerWidth="12" markerHeight="12" markerUnits="userSpaceOnUse" orient="auto-start-reverse"><polygon points="0,0 12,6 0,12" fill="#1e293b" stroke="#1e293b" stroke-width="1.5"/></marker><marker id="arrow-box-filled" viewBox="0 0 12 12" refX="11" refY="6" markerWidth="12" markerHeight="12" markerUnits="userSpaceOnUse" orient="auto-start-reverse"><rect x="2" y="2" width="8" height="8" fill="#1e293b" stroke="#1e293b" stroke-width="1.5"/></marker><marker id="arrow-plus" viewBox="0 0 12 12" refX="11" refY="6" markerWidth="12" markerHeight="12" markerUnits="userSpaceOnUse" orient="auto-start-reverse"><path d="M6,1 L6,11 M1,6 L11,6" fill="none" stroke="#1e293b" stroke-width="1.8" stroke-linecap="round"/></marker><marker id="arrow-cross" viewBox="0 0 12 12" refX="11" refY="6" markerWidth="12" markerHeight="12" markerUnits="userSpaceOnUse" orient="auto-start-reverse"><path d="M2,2 L10,10 M10,2 L2,10" fill="none" stroke="#1e293b" stroke-width="1.8" stroke-linecap="round"/></marker><marker id="arrow-bracket-open" viewBox="0 0 12 14" refX="11" refY="7" markerWidth="12" markerHeight="14" markerUnits="userSpaceOnUse" orient="auto-start-reverse"><path d="M10,1 L4,1 L4,13 L10,13" fill="none" stroke="#1e293b" stroke-width="1.8" stroke-linecap="round" stroke-linejoin="round"/></marker><marker id="arrow-circle-open" viewBox="0 0 12 12" refX="11" refY="6" markerWidth="12" markerHeight="12" markerUnits="userSpaceOnUse" orient="auto-start-reverse"><circle cx="6" cy="6" r="4" fill="#ffffff" stroke="#1e293b" stroke-width="1.5"/></marker><marker id="arrow-circle-filled" viewBox="0 0 12 12" refX="11" refY="6" markerWidth="12" markerHeight="12" markerUnits="userSpaceOnUse" orient="auto-start-reverse"><circle cx="6" cy="6" r="4" fill="#1e293b" stroke="#1e293b" stroke-width="1.5"/></marker><marker id="arrow-double-open" viewBox="0 0 16 12" refX="15" refY="6" markerWidth="16" markerHeight="12" markerUnits="userSpaceOnUse" orient="auto-start-reverse"><path d="M0,1 L8,6 L0,11 M7,1 L15,6 L7,11" fill="none" stroke="#1e293b" stroke-width="1.5" stroke-linejoin="round"/></marker></defs><path class="uml-relation" data-uml-from="Customer" data-uml-to="UC1" data-uml-arrow="--&gt;" d="M 112,96 C 112.0,101.0 92.0,108.5 112.0,111.0 C 132.0,113.5 212.0,100.5 232.0,111.0 C 252.0,121.5 232.0,153.0 232.0,174.0" fill="none" stroke="#1e293b" stroke-width="2" marker-end="url(#arrow-open)" /><path class="uml-relation" data-uml-from="Customer" data-uml-to="UC2" data-uml-arrow="--&gt;" d="M 112,96 C 112.0,109.0 92.0,128.5 112.0,135.0 C 132.0,141.5 212.0,109.2 232.0,135.0 C 252.0,160.8 232.0,238.3 232.0,290.0" fill="none" stroke="#1e293b" stroke-width="2" marker-end="url(#arrow-open)" /><path class="uml-relation" data-uml-from="Admin" data-uml-to="UC3" data-uml-arrow="--&gt;" d="M 352,96 C 352.0,116.7 372.0,147.7 352.0,158.0 C 332.0,168.3 252.0,116.7 232.0,158.0 C 212.0,199.3 232.0,323.3 232.0,406.0" fill="none" stroke="#1e293b" stroke-width="2" marker-end="url(#arrow-open)" /><path class="uml-relation" data-uml-from="UC1" data-uml-to="UC2" data-uml-arrow="--&gt;" d="M 232,212 C 232.0,225.0 232.0,238.0 232.0,251.0 C 232.0,264.0 232.0,277.0 232.0,290.0" fill="none" stroke="#1e293b" stroke-width="2" marker-end="url(#arrow-open)" /><text class="uml-edge-label" data-uml-label-role="edge" x="344" y="258" text-anchor="middle" font-family="monospace" font-size="11" fill="#334155">leads to</text><path class="uml-relation" data-uml-from="UC2" data-uml-to="UC3" data-uml-arrow="--&gt;" d="M 232,328 C 232.0,341.0 232.0,354.0 232.0,367.0 C 232.0,380.0 232.0,393.0 232.0,406.0" fill="none" stroke="#1e293b" stroke-width="2" marker-end="url(#arrow-open)" /><text class="uml-edge-label" data-uml-label-role="edge" x="344" y="374" text-anchor="middle" font-family="monospace" font-size="11" fill="#334155">triggers</text><circle cx="112" cy="38" r="6" fill="none" stroke="#1e293b" stroke-width="1.5"/><line x1="112" y1="44" x2="112" y2="58" stroke="#1e293b" stroke-width="1.5"/><line x1="102" y1="48" x2="122" y2="48" stroke="#1e293b" stroke-width="1.5"/><line x1="112" y1="58" x2="104" y2="74" stroke="#1e293b" stroke-width="1.5"/><line x1="112" y1="58" x2="120" y2="74" stroke="#1e293b" stroke-width="1.5"/><text x="112" y="80" text-anchor="middle" font-family="monospace" font-size="13" font-weight="600" fill="#0f172a">Customer</text><circle cx="352" cy="38" r="6" fill="none" stroke="#1e293b" stroke-width="1.5"/><line x1="352" y1="44" x2="352" y2="58" stroke="#1e293b" stroke-width="1.5"/><line x1="342" y1="48" x2="362" y2="48" stroke="#1e293b" stroke-width="1.5"/><line x1="352" y1="58" x2="344" y2="74" stroke="#1e293b" stroke-width="1.5"/><line x1="352" y1="58" x2="360" y2="74" stroke="#1e293b" stroke-width="1.5"/><text x="352" y="80" text-anchor="middle" font-family="monospace" font-size="13" font-weight="600" fill="#0f172a">Admin</text><ellipse cx="232" cy="193" rx="80" ry="19" fill="#ffffff" stroke="#1e293b" stroke-width="1.5"/><text x="232" y="197" text-anchor="middle" font-family="monospace" font-size="13" font-weight="600" fill="#0f172a">BrowseProducts</text><ellipse cx="232" cy="309" rx="80" ry="19" fill="#ffffff" stroke="#1e293b" stroke-width="1.5"/><text x="232" y="313" text-anchor="middle" font-family="monospace" font-size="13" font-weight="600" fill="#0f172a">PlaceOrder</text><ellipse cx="232" cy="425" rx="80" ry="19" fill="#ffffff" stroke="#1e293b" stroke-width="1.5"/><text x="232" y="429" text-anchor="middle" font-family="monospace" font-size="13" font-weight="600" fill="#0f172a">ManageInventory</text></svg>