<svg xmlns="http://www.w3.org/2000/svg" width="704" height="238" viewBox="0 0 704 238"><rect width="100%" height="100%" fill="#ffffff"/><defs><marker id="arrow-open" viewBox="0 0 10 10" refX="9" refY="5" markerWidth="10" markerHeight="10" markerUnits="userSpaceOnUse" orient="auto-start-reverse"><path d="M0,0 L10,5 L0,10" fill="none" stroke="#1e293b" stroke-width="1.5"/></marker><marker id="arrow-triangle" viewBox="0 0 16 16" refX="15" refY="8" markerWidth="16" markerHeight="16" markerUnits="userSpaceOnUse" orient="auto-start-reverse"><polygon points="0,1 14,8 0,15" fill="#ffffff" stroke="#1e293b" stroke-width="1.5" fill-rule="nonzero"/></marker><marker id="arrow-diamond-filled" viewBox="0 0 14 10" refX="13" refY="5" markerWidth="14" markerHeight="10" markerUnits="userSpaceOnUse" orient="auto-start-reverse"><path d="M0,5 L7,0 L14,5 L7,10 z" fill="#1e293b" stroke="#1e293b" stroke-width="1"/></marker><marker id="arrow-diamond-open" viewBox="0 0 14 10" refX="13" refY="5" markerWidth="14" markerHeight="10" markerUnits="userSpaceOnUse" orient="auto-start-reverse"><path d="M0,5 L7,0 L14,5 L7,10 z" fill="#ffffff" stroke="#1e293b" stroke-width="1"/></marker></defs><line class="uml-relation" data-uml-from="Customer" data-uml-to="UC1" x1="192" y1="64" x2="512" y2="51" stroke="#1e293b" stroke-width="2" marker-end="url(#arrow-open)"/><line class="uml-relation" data-uml-from="Customer" data-uml-to="UC2" x1="112" y1="96" x2="112" y2="160" stroke="#1e293b" stroke-width="2" marker-end="url(#arrow-open)"/><line class="uml-relation" data-uml-from="Admin" data-uml-to="UC3" x1="352" y1="96" x2="352" y2="160" stroke="#1e293b" stroke-width="2" marker-end="url(#arrow-open)"/><line class="uml-relation" data-uml-from="UC1" data-uml-to="UC2" x1="512" y1="51" x2="192" y2="179" stroke="#1e293b" stroke-width="2" marker-end="url(#arrow-open)"/><text x="385" y="87" text-anchor="middle" font-family="monospace" font-size="11" fill="#334155">leads to</text><line class="uml-relation" data-uml-from="UC2" data-uml-to="UC3" x1="192" y1="179" x2="272" y2="179" stroke="#1e293b" stroke-width="2" marker-end="url(#arrow-open)"/><text x="224" y="165" text-anchor="middle" font-family="monospace" font-size="11" fill="#334155">triggers</text><circle cx="112" cy="43" r="9" fill="none" stroke="#1e293b" stroke-width="1.5"/><line x1="112" y1="52" x2="112" y2="66" stroke="#1e293b" stroke-width="1.5"/><line x1="100" y1="58" x2="124" y2="58" stroke="#1e293b" stroke-width="1.5"/><line x1="112" y1="66" x2="102" y2="78" stroke="#1e293b" stroke-width="1.5"/><line x1="112" y1="66" x2="122" y2="78" stroke="#1e293b" stroke-width="1.5"/><text x="112" y="92" text-anchor="middle" font-family="monospace" font-size="13" font-weight="600" fill="#0f172a">Customer</text><circle cx="352" cy="43" r="9" fill="none" stroke="#1e293b" stroke-width="1.5"/><line x1="352" y1="52" x2="352" y2="66" stroke="#1e293b" stroke-width="1.5"/><line x1="340" y1="58" x2="364" y2="58" stroke="#1e293b" stroke-width="1.5"/><line x1="352" y1="66" x2="342" y2="78" stroke="#1e293b" stroke-width="1.5"/><line x1="352" y1="66" x2="362" y2="78" stroke="#1e293b" stroke-width="1.5"/><text x="352" y="92" text-anchor="middle" font-family="monospace" font-size="13" font-weight="600" fill="#0f172a">Admin</text><ellipse cx="592" cy="51" rx="80" ry="19" fill="#ffffff" stroke="#1e293b" stroke-width="1.5"/><text x="592" y="55" text-anchor="middle" font-family="monospace" font-size="13" font-weight="600" fill="#0f172a">BrowseProducts</text><ellipse cx="112" cy="179" rx="80" ry="19" fill="#ffffff" stroke="#1e293b" stroke-width="1.5"/><text x="112" y="183" text-anchor="middle" font-family="monospace" font-size="13" font-weight="600" fill="#0f172a">PlaceOrder</text><ellipse cx="352" cy="179" rx="80" ry="19" fill="#ffffff" stroke="#1e293b" stroke-width="1.5"/><text x="352" y="183" text-anchor="middle" font-family="monospace" font-size="13" font-weight="600" fill="#0f172a">ManageInventory</text></svg>