<svg xmlns="http://www.w3.org/2000/svg" width="704" height="666" viewBox="0 0 704 666"><rect width="100%" height="100%" fill="#ffffff"/><defs><marker id="arrow-open" viewBox="0 0 10 10" refX="9" refY="5" markerWidth="10" markerHeight="10" markerUnits="userSpaceOnUse" orient="auto-start-reverse"><path d="M0,0 L10,5 L0,10" fill="none" stroke="#1e293b" stroke-width="1.5"/></marker><marker id="arrow-triangle" viewBox="0 0 16 16" refX="15" refY="8" markerWidth="16" markerHeight="16" markerUnits="userSpaceOnUse" orient="auto-start-reverse"><polygon points="0,1 14,8 0,15" fill="#ffffff" stroke="#1e293b" stroke-width="1.5" fill-rule="nonzero"/></marker><marker id="arrow-diamond-filled" viewBox="0 0 14 10" refX="13" refY="5" markerWidth="14" markerHeight="10" markerUnits="userSpaceOnUse" orient="auto-start-reverse"><path d="M0,5 L7,0 L14,5 L7,10 z" fill="#1e293b" stroke="#1e293b" stroke-width="1"/></marker><marker id="arrow-diamond-open" viewBox="0 0 14 10" refX="13" refY="5" markerWidth="14" markerHeight="10" markerUnits="userSpaceOnUse" orient="auto-start-reverse"><path d="M0,5 L7,0 L14,5 L7,10 z" fill="#ffffff" stroke="#1e293b" stroke-width="1"/></marker></defs><polyline class="uml-relation" data-uml-from="Customer" data-uml-to="UC1" data-uml-arrow="--&gt;" points="112,96 112,152 232,152 232,224" fill="none" stroke="#1e293b" stroke-width="2" marker-end="url(#arrow-open)" /><polyline class="uml-relation" data-uml-from="Customer" data-uml-to="UC2" data-uml-arrow="--&gt;" points="112,96 112,160 232,160 232,390" fill="none" stroke="#1e293b" stroke-width="2" marker-end="url(#arrow-open)" /><polyline class="uml-relation" data-uml-from="Admin" data-uml-to="UC3" data-uml-arrow="--&gt;" points="352,96 352,168 232,168 232,556" fill="none" stroke="#1e293b" stroke-width="2" marker-end="url(#arrow-open)" /><polyline class="uml-relation" data-uml-from="UC1" data-uml-to="UC2" data-uml-arrow="--&gt;" points="232,262 232,326 232,390" fill="none" stroke="#1e293b" stroke-width="2" marker-end="url(#arrow-open)" /><text x="232" y="314" text-anchor="middle" font-family="monospace" font-size="11" fill="#334155">leads to</text><polyline class="uml-relation" data-uml-from="UC2" data-uml-to="UC3" data-uml-arrow="--&gt;" points="232,428 232,492 232,556" fill="none" stroke="#1e293b" stroke-width="2" marker-end="url(#arrow-open)" /><text x="232" y="480" text-anchor="middle" font-family="monospace" font-size="11" fill="#334155">triggers</text><circle cx="112" cy="38" r="6" fill="none" stroke="#1e293b" stroke-width="1.5"/><line x1="112" y1="44" x2="112" y2="58" stroke="#1e293b" stroke-width="1.5"/><line x1="102" y1="48" x2="122" y2="48" stroke="#1e293b" stroke-width="1.5"/><line x1="112" y1="58" x2="104" y2="74" stroke="#1e293b" stroke-width="1.5"/><line x1="112" y1="58" x2="120" y2="74" stroke="#1e293b" stroke-width="1.5"/><text x="112" y="80" text-anchor="middle" font-family="monospace" font-size="13" font-weight="600" fill="#0f172a">Customer</text><circle cx="352" cy="38" r="6" fill="none" stroke="#1e293b" stroke-width="1.5"/><line x1="352" y1="44" x2="352" y2="58" stroke="#1e293b" stroke-width="1.5"/><line x1="342" y1="48" x2="362" y2="48" stroke="#1e293b" stroke-width="1.5"/><line x1="352" y1="58" x2="344" y2="74" stroke="#1e293b" stroke-width="1.5"/><line x1="352" y1="58" x2="360" y2="74" stroke="#1e293b" stroke-width="1.5"/><text x="352" y="80" text-anchor="middle" font-family="monospace" font-size="13" font-weight="600" fill="#0f172a">Admin</text><ellipse cx="232" cy="243" rx="80" ry="19" fill="#ffffff" stroke="#1e293b" stroke-width="1.5"/><text x="232" y="247" text-anchor="middle" font-family="monospace" font-size="13" font-weight="600" fill="#0f172a">BrowseProducts</text><ellipse cx="232" cy="409" rx="80" ry="19" fill="#ffffff" stroke="#1e293b" stroke-width="1.5"/><text x="232" y="413" text-anchor="middle" font-family="monospace" font-size="13" font-weight="600" fill="#0f172a">PlaceOrder</text><ellipse cx="232" cy="575" rx="80" ry="19" fill="#ffffff" stroke="#1e293b" stroke-width="1.5"/><text x="232" y="579" text-anchor="middle" font-family="monospace" font-size="13" font-weight="600" fill="#0f172a">ManageInventory</text></svg>