<svg xmlns="http://www.w3.org/2000/svg" width="760" height="110" viewBox="0 0 760 110"><rect width="100%" height="100%" fill="#ffffff"/><defs><marker id="arrow-open" viewBox="0 0 10 10" refX="9" refY="5" markerWidth="10" markerHeight="10" orient="auto-start-reverse"><path d="M0,0 L10,5 L0,10" fill="none" stroke="#1e293b" stroke-width="1.5"/></marker><marker id="arrow-triangle" viewBox="0 0 12 12" refX="11" refY="6" markerWidth="12" markerHeight="12" orient="auto-start-reverse"><path d="M0,0 L12,6 L0,12 z" fill="white" stroke="#1e293b" stroke-width="1.5"/></marker><marker id="arrow-diamond-filled" viewBox="0 0 14 10" refX="13" refY="5" markerWidth="14" markerHeight="10" orient="auto-start-reverse"><path d="M0,5 L7,0 L14,5 L7,10 z" fill="#1e293b" stroke="#1e293b" stroke-width="1"/></marker><marker id="arrow-diamond-open" viewBox="0 0 14 10" refX="13" refY="5" markerWidth="14" markerHeight="10" orient="auto-start-reverse"><path d="M0,5 L7,0 L14,5 L7,10 z" fill="white" stroke="#1e293b" stroke-width="1"/></marker></defs><line class="uml-relation" data-uml-from="UC1" data-uml-to="UC2" x1="232" y1="51" x2="280" y2="51" stroke="#1e293b" stroke-width="2" marker-end="url(#arrow-open)"/><text x="256" y="47" text-anchor="middle" font-family="monospace" font-size="11" fill="#334155">leads to</text><line class="uml-relation" data-uml-from="UC2" data-uml-to="UC3" x1="480" y1="51" x2="528" y2="51" stroke="#1e293b" stroke-width="2" marker-end="url(#arrow-open)"/><text x="504" y="47" text-anchor="middle" font-family="monospace" font-size="11" fill="#334155">triggers</text><ellipse cx="132" cy="51" rx="100" ry="19" fill="#ffffff" stroke="#1e293b" stroke-width="1.5"/><text x="132" y="55" text-anchor="middle" font-family="monospace" font-size="13" font-weight="600" fill="#0f172a">BrowseProducts</text><text x="132" y="71" text-anchor="middle" font-family="monospace" font-size="10" fill="#475569">as UC1</text><ellipse cx="380" cy="51" rx="100" ry="19" fill="#ffffff" stroke="#1e293b" stroke-width="1.5"/><text x="380" y="55" text-anchor="middle" font-family="monospace" font-size="13" font-weight="600" fill="#0f172a">PlaceOrder</text><text x="380" y="71" text-anchor="middle" font-family="monospace" font-size="10" fill="#475569">as UC2</text><ellipse cx="628" cy="51" rx="100" ry="19" fill="#ffffff" stroke="#1e293b" stroke-width="1.5"/><text x="628" y="55" text-anchor="middle" font-family="monospace" font-size="13" font-weight="600" fill="#0f172a">ManageInventory</text><text x="628" y="71" text-anchor="middle" font-family="monospace" font-size="10" fill="#475569">as UC3</text></svg>