<svg xmlns="http://www.w3.org/2000/svg" width="760" height="238" viewBox="0 0 760 238"><rect width="100%" height="100%" fill="#ffffff"/><defs><marker id="arrow-open" viewBox="0 0 10 10" refX="9" refY="5" markerWidth="10" markerHeight="10" markerUnits="userSpaceOnUse" orient="auto-start-reverse"><path d="M0,0 L10,5 L0,10" fill="none" stroke="#1e293b" stroke-width="1.5"/></marker><marker id="arrow-triangle" viewBox="0 0 16 16" refX="15" refY="8" markerWidth="16" markerHeight="16" markerUnits="userSpaceOnUse" orient="auto-start-reverse"><polygon points="0,1 14,8 0,15" fill="#ffffff" stroke="#1e293b" stroke-width="1.5" fill-rule="nonzero"/></marker><marker id="arrow-diamond-filled" viewBox="0 0 14 10" refX="13" refY="5" markerWidth="14" markerHeight="10" markerUnits="userSpaceOnUse" orient="auto-start-reverse"><path d="M0,5 L7,0 L14,5 L7,10 z" fill="#1e293b" stroke="#1e293b" stroke-width="1"/></marker><marker id="arrow-diamond-open" viewBox="0 0 14 10" refX="13" refY="5" markerWidth="14" markerHeight="10" markerUnits="userSpaceOnUse" orient="auto-start-reverse"><path d="M0,5 L7,0 L14,5 L7,10 z" fill="#ffffff" stroke="#1e293b" stroke-width="1"/></marker></defs><line class="uml-relation" data-uml-from="Customer" data-uml-to="UC1" x1="232" y1="62" x2="528" y2="53" stroke="#1e293b" stroke-width="2" marker-end="url(#arrow-open)"/><line class="uml-relation" data-uml-from="Customer" data-uml-to="UC2" x1="132" y1="96" x2="132" y2="160" stroke="#1e293b" stroke-width="2" marker-end="url(#arrow-open)"/><line class="uml-relation" data-uml-from="Admin" data-uml-to="UC3" x1="380" y1="96" x2="380" y2="160" stroke="#1e293b" stroke-width="2" marker-end="url(#arrow-open)"/><line class="uml-relation" data-uml-from="UC1" data-uml-to="UC2" x1="555" y1="70" x2="205" y2="160" stroke="#1e293b" stroke-width="2" marker-end="url(#arrow-open)"/><text x="380" y="99" text-anchor="middle" font-family="monospace" font-size="11" fill="#334155">leads to</text><line class="uml-relation" data-uml-from="UC2" data-uml-to="UC3" x1="232" y1="179" x2="280" y2="179" stroke="#1e293b" stroke-width="2" marker-end="url(#arrow-open)"/><text x="256" y="163" text-anchor="middle" font-family="monospace" font-size="11" fill="#334155">triggers</text><circle cx="132" cy="43" r="9" fill="none" stroke="#1e293b" stroke-width="1.5"/><line x1="132" y1="52" x2="132" y2="66" stroke="#1e293b" stroke-width="1.5"/><line x1="120" y1="58" x2="144" y2="58" stroke="#1e293b" stroke-width="1.5"/><line x1="132" y1="66" x2="122" y2="78" stroke="#1e293b" stroke-width="1.5"/><line x1="132" y1="66" x2="142" y2="78" stroke="#1e293b" stroke-width="1.5"/><text x="132" y="92" text-anchor="middle" font-family="monospace" font-size="13" font-weight="600" fill="#0f172a">Customer</text><circle cx="380" cy="43" r="9" fill="none" stroke="#1e293b" stroke-width="1.5"/><line x1="380" y1="52" x2="380" y2="66" stroke="#1e293b" stroke-width="1.5"/><line x1="368" y1="58" x2="392" y2="58" stroke="#1e293b" stroke-width="1.5"/><line x1="380" y1="66" x2="370" y2="78" stroke="#1e293b" stroke-width="1.5"/><line x1="380" y1="66" x2="390" y2="78" stroke="#1e293b" stroke-width="1.5"/><text x="380" y="92" text-anchor="middle" font-family="monospace" font-size="13" font-weight="600" fill="#0f172a">Admin</text><ellipse cx="628" cy="51" rx="100" ry="19" fill="#ffffff" stroke="#1e293b" stroke-width="1.5"/><text x="628" y="55" text-anchor="middle" font-family="monospace" font-size="13" font-weight="600" fill="#0f172a">BrowseProducts</text><ellipse cx="132" cy="179" rx="100" ry="19" fill="#ffffff" stroke="#1e293b" stroke-width="1.5"/><text x="132" y="183" text-anchor="middle" font-family="monospace" font-size="13" font-weight="600" fill="#0f172a">PlaceOrder</text><ellipse cx="380" cy="179" rx="100" ry="19" fill="#ffffff" stroke="#1e293b" stroke-width="1.5"/><text x="380" y="183" text-anchor="middle" font-family="monospace" font-size="13" font-weight="600" fill="#0f172a">ManageInventory</text></svg>