<svg xmlns="http://www.w3.org/2000/svg" width="664" height="212" viewBox="0 0 664 212"><rect width="100%" height="100%" fill="#ffffff"/><defs><marker id="arrow-open" viewBox="0 0 10 10" refX="9" refY="5" markerWidth="10" markerHeight="10" orient="auto-start-reverse"><path d="M0,0 L10,5 L0,10" fill="none" stroke="#1e293b" stroke-width="1.5"/></marker><marker id="arrow-triangle" viewBox="0 0 12 12" refX="11" refY="6" markerWidth="12" markerHeight="12" orient="auto-start-reverse"><polygon points="0,0 12,6 0,12" fill="white" stroke="#1e293b" stroke-width="1.5" fill-rule="nonzero"/></marker><marker id="arrow-diamond-filled" viewBox="0 0 14 10" refX="13" refY="5" markerWidth="14" markerHeight="10" orient="auto-start-reverse"><path d="M0,5 L7,0 L14,5 L7,10 z" fill="#1e293b" stroke="#1e293b" stroke-width="1"/></marker><marker id="arrow-diamond-open" viewBox="0 0 14 10" refX="13" refY="5" markerWidth="14" markerHeight="10" orient="auto-start-reverse"><path d="M0,5 L7,0 L14,5 L7,10 z" fill="white" stroke="#1e293b" stroke-width="1"/></marker></defs><line class="uml-relation" data-uml-from="UC1" data-uml-to="UC2" x1="200" y1="51" x2="248" y2="51" stroke="#1e293b" stroke-width="2" stroke-dasharray="5 3" marker-end="url(#arrow-open)"/><text x="224" y="39" text-anchor="middle" font-family="monospace" font-size="11" fill="#334155">&lt;&lt;extend&gt;&gt;</text><line class="uml-relation" data-uml-from="UC1" data-uml-to="UC3" x1="200" y1="51" x2="464" y2="51" stroke="#1e293b" stroke-width="2" stroke-dasharray="5 3" marker-end="url(#arrow-open)"/><text x="332" y="39" text-anchor="middle" font-family="monospace" font-size="11" fill="#334155">&lt;&lt;include&gt;&gt;</text><line class="uml-relation" data-uml-from="UC1" data-uml-to="UC4" x1="116" y1="70" x2="116" y2="134" stroke="#1e293b" stroke-width="2" stroke-dasharray="5 3" marker-end="url(#arrow-open)"/><text x="116" y="90" text-anchor="middle" font-family="monospace" font-size="11" fill="#334155">&lt;&lt;include&gt;&gt;</text><ellipse cx="116" cy="51" rx="84" ry="19" fill="#ffffff" stroke="#1e293b" stroke-width="1.5"/><text x="116" y="55" text-anchor="middle" font-family="monospace" font-size="13" font-weight="600" fill="#0f172a">Checkout</text><ellipse cx="332" cy="51" rx="84" ry="19" fill="#ffffff" stroke="#1e293b" stroke-width="1.5"/><text x="332" y="55" text-anchor="middle" font-family="monospace" font-size="13" font-weight="600" fill="#0f172a">ApplyCoupon</text><ellipse cx="548" cy="51" rx="84" ry="19" fill="#ffffff" stroke="#1e293b" stroke-width="1.5"/><text x="548" y="55" text-anchor="middle" font-family="monospace" font-size="13" font-weight="600" fill="#0f172a">ProcessPayment</text><ellipse cx="116" cy="153" rx="84" ry="19" fill="#ffffff" stroke="#1e293b" stroke-width="1.5"/><text x="116" y="157" text-anchor="middle" font-family="monospace" font-size="13" font-weight="600" fill="#0f172a">SendConfirmation</text></svg>