<svg xmlns="http://www.w3.org/2000/svg" width="768" height="282" viewBox="0 0 768 282" data-orientation="TopToBottom"><rect width="100%" height="100%" fill="#ffffff"/><defs><marker id="arrow-open" viewBox="0 0 10 10" refX="9" refY="5" markerWidth="10" markerHeight="10" markerUnits="userSpaceOnUse" orient="auto-start-reverse"><path d="M0,0 L10,5 L0,10" fill="none" stroke="#1e293b" stroke-width="1.5"/></marker><marker id="arrow-triangle" viewBox="0 0 16 16" refX="15" refY="8" markerWidth="16" markerHeight="16" markerUnits="userSpaceOnUse" orient="auto-start-reverse"><polygon points="0,1 14,8 0,15" fill="#ffffff" stroke="#1e293b" stroke-width="1.5" fill-rule="nonzero"/></marker><marker id="arrow-diamond-filled" viewBox="0 0 14 10" refX="13" refY="5" markerWidth="14" markerHeight="10" markerUnits="userSpaceOnUse" orient="auto-start-reverse"><path d="M0,5 L7,0 L14,5 L7,10 z" fill="#1e293b" stroke="#1e293b" stroke-width="1"/></marker><marker id="arrow-diamond-open" viewBox="0 0 14 10" refX="13" refY="5" markerWidth="14" markerHeight="10" markerUnits="userSpaceOnUse" orient="auto-start-reverse"><path d="M0,5 L7,0 L14,5 L7,10 z" fill="#ffffff" stroke="#1e293b" stroke-width="1"/></marker></defs><polyline class="uml-relation" data-uml-from="UC1" data-uml-to="UC2" data-uml-arrow="--&gt;" points="272,51 272,89 192,89 192,191" fill="none" stroke="#1e293b" stroke-width="2" stroke-dasharray="5 3" marker-end="url(#arrow-open)" /><text x="262" y="81" text-anchor="middle" font-family="monospace" font-size="11" fill="#334155">&lt;&lt;extend&gt;&gt;</text><polyline class="uml-relation" data-uml-from="UC1" data-uml-to="UC3" data-uml-arrow="--&gt;" points="352,70 352,121 352,172" fill="none" stroke="#1e293b" stroke-width="2" stroke-dasharray="5 3" marker-end="url(#arrow-open)" /><text x="366" y="102" text-anchor="middle" font-family="monospace" font-size="11" fill="#334155">&lt;&lt;include&gt;&gt;</text><polyline class="uml-relation" data-uml-from="UC1" data-uml-to="UC4" data-uml-arrow="--&gt;" points="432,51 432,152 512,152 512,191" fill="none" stroke="#1e293b" stroke-width="2" stroke-dasharray="5 3" marker-end="url(#arrow-open)" /><text x="491" y="118" text-anchor="middle" font-family="monospace" font-size="11" fill="#334155">&lt;&lt;include&gt;&gt;</text><ellipse cx="352" cy="51" rx="80" ry="19" fill="#ffffff" stroke="#1e293b" stroke-width="1.5"/><text x="352" y="55" text-anchor="middle" font-family="monospace" font-size="13" font-weight="600" fill="#0f172a">Checkout</text><ellipse cx="112" cy="191" rx="80" ry="19" fill="#ffffff" stroke="#1e293b" stroke-width="1.5"/><text x="112" y="195" text-anchor="middle" font-family="monospace" font-size="13" font-weight="600" fill="#0f172a">ApplyCoupon</text><ellipse cx="352" cy="191" rx="80" ry="19" fill="#ffffff" stroke="#1e293b" stroke-width="1.5"/><text x="352" y="195" text-anchor="middle" font-family="monospace" font-size="13" font-weight="600" fill="#0f172a">ProcessPayment</text><ellipse cx="592" cy="191" rx="80" ry="19" fill="#ffffff" stroke="#1e293b" stroke-width="1.5"/><text x="592" y="195" text-anchor="middle" font-family="monospace" font-size="13" font-weight="600" fill="#0f172a">SendConfirmation</text></svg>