<svg xmlns="http://www.w3.org/2000/svg" width="872" height="416" viewBox="0 0 872 416"><rect width="100%" height="100%" fill="#ffffff"/><defs><marker id="arrow-open" viewBox="0 0 10 10" refX="9" refY="5" markerWidth="10" markerHeight="10" markerUnits="userSpaceOnUse" orient="auto-start-reverse"><path d="M0,0 L10,5 L0,10" fill="none" stroke="#1e293b" stroke-width="1.5"/></marker><marker id="arrow-triangle" viewBox="0 0 16 16" refX="15" refY="8" markerWidth="16" markerHeight="16" markerUnits="userSpaceOnUse" orient="auto-start-reverse"><polygon points="0,1 14,8 0,15" fill="#ffffff" stroke="#1e293b" stroke-width="1.5" fill-rule="nonzero"/></marker><marker id="arrow-diamond-filled" viewBox="0 0 14 10" refX="13" refY="5" markerWidth="14" markerHeight="10" markerUnits="userSpaceOnUse" orient="auto-start-reverse"><path d="M0,5 L7,0 L14,5 L7,10 z" fill="#1e293b" stroke="#1e293b" stroke-width="1"/></marker><marker id="arrow-diamond-open" viewBox="0 0 14 10" refX="13" refY="5" markerWidth="14" markerHeight="10" markerUnits="userSpaceOnUse" orient="auto-start-reverse"><path d="M0,5 L7,0 L14,5 L7,10 z" fill="#ffffff" stroke="#1e293b" stroke-width="1"/></marker></defs><rect class="uml-group-frame" data-uml-group="Back Office" x="16" y="144" width="840" height="248" rx="6" ry="6" fill="none" stroke="#6366f1" stroke-width="1.5" stroke-dasharray="5 3"/><text x="24" y="158" font-family="monospace" font-size="11" font-weight="600" fill="#4338ca">Back Office</text><rect class="uml-group-frame" data-uml-group="Online Store" x="16" y="16" width="840" height="226" rx="6" ry="6" fill="none" stroke="#6366f1" stroke-width="1.5" stroke-dasharray="5 3"/><text x="24" y="30" font-family="monospace" font-size="11" font-weight="600" fill="#4338ca">Online Store</text><circle cx="140" cy="71" r="9" fill="none" stroke="#1e293b" stroke-width="1.5"/><line x1="140" y1="80" x2="140" y2="94" stroke="#1e293b" stroke-width="1.5"/><line x1="128" y1="86" x2="152" y2="86" stroke="#1e293b" stroke-width="1.5"/><line x1="140" y1="94" x2="130" y2="106" stroke="#1e293b" stroke-width="1.5"/><line x1="140" y1="94" x2="150" y2="106" stroke="#1e293b" stroke-width="1.5"/><text x="140" y="120" text-anchor="middle" font-family="monospace" font-size="13" font-weight="600" fill="#0f172a">Customer</text><circle cx="436" cy="71" r="9" fill="none" stroke="#1e293b" stroke-width="1.5"/><line x1="436" y1="80" x2="436" y2="94" stroke="#1e293b" stroke-width="1.5"/><line x1="424" y1="86" x2="448" y2="86" stroke="#1e293b" stroke-width="1.5"/><line x1="436" y1="94" x2="426" y2="106" stroke="#1e293b" stroke-width="1.5"/><line x1="436" y1="94" x2="446" y2="106" stroke="#1e293b" stroke-width="1.5"/><text x="436" y="120" text-anchor="middle" font-family="monospace" font-size="13" font-weight="600" fill="#0f172a">Manager</text><ellipse cx="732" cy="79" rx="108" ry="19" fill="#ffffff" stroke="#1e293b" stroke-width="1.5"/><text x="732" y="83" text-anchor="middle" font-family="monospace" font-size="13" font-weight="600" fill="#0f172a">Browse</text><ellipse cx="140" cy="207" rx="108" ry="19" fill="#ffffff" stroke="#1e293b" stroke-width="1.5"/><text x="140" y="211" text-anchor="middle" font-family="monospace" font-size="13" font-weight="600" fill="#0f172a">AddToCart</text><ellipse cx="436" cy="207" rx="108" ry="19" fill="#ffffff" stroke="#1e293b" stroke-width="1.5"/><text x="436" y="211" text-anchor="middle" font-family="monospace" font-size="13" font-weight="600" fill="#0f172a">Checkout</text><ellipse cx="732" cy="219" rx="108" ry="31" fill="#ffffff" stroke="#1e293b" stroke-width="1.5"/><text x="732" y="223" text-anchor="middle" font-family="monospace" font-size="13" font-weight="600" fill="#0f172a">ManageProducts</text><ellipse cx="140" cy="345" rx="108" ry="31" fill="#ffffff" stroke="#1e293b" stroke-width="1.5"/><text x="140" y="349" text-anchor="middle" font-family="monospace" font-size="13" font-weight="600" fill="#0f172a">ManageOrders</text></svg>