<svg xmlns="http://www.w3.org/2000/svg" width="760" height="412" viewBox="0 0 760 412"><rect width="100%" height="100%" fill="#ffffff"/><defs><marker id="arrow-open" viewBox="0 0 10 10" refX="9" refY="5" markerWidth="10" markerHeight="10" markerUnits="userSpaceOnUse" orient="auto-start-reverse"><path d="M0,0 L10,5 L0,10" fill="none" stroke="#1e293b" stroke-width="1.5"/></marker><marker id="arrow-triangle" viewBox="0 0 16 16" refX="15" refY="8" markerWidth="16" markerHeight="16" markerUnits="userSpaceOnUse" orient="auto-start-reverse"><polygon points="0,1 14,8 0,15" fill="#ffffff" stroke="#1e293b" stroke-width="1.5" fill-rule="nonzero"/></marker><marker id="arrow-diamond-filled" viewBox="0 0 14 10" refX="13" refY="5" markerWidth="14" markerHeight="10" markerUnits="userSpaceOnUse" orient="auto-start-reverse"><path d="M0,5 L7,0 L14,5 L7,10 z" fill="#1e293b" stroke="#1e293b" stroke-width="1"/></marker><marker id="arrow-diamond-open" viewBox="0 0 14 10" refX="13" refY="5" markerWidth="14" markerHeight="10" markerUnits="userSpaceOnUse" orient="auto-start-reverse"><path d="M0,5 L7,0 L14,5 L7,10 z" fill="#ffffff" stroke="#1e293b" stroke-width="1"/></marker></defs><rect class="uml-group-frame" data-uml-group="Back Office" x="20" y="152" width="720" height="232" rx="6" ry="6" fill="none" stroke="#6366f1" stroke-width="1.5" stroke-dasharray="5 3"/><text x="28" y="166" font-family="monospace" font-size="11" font-weight="600" fill="#4338ca">rectangle Back Office</text><rect class="uml-group-frame" data-uml-group="Online Store" x="20" y="24" width="720" height="210" rx="6" ry="6" fill="none" stroke="#6366f1" stroke-width="1.5" stroke-dasharray="5 3"/><text x="28" y="38" font-family="monospace" font-size="11" font-weight="600" fill="#4338ca">rectangle Online Store</text><circle cx="132" cy="67" r="9" fill="none" stroke="#1e293b" stroke-width="1.5"/><line x1="132" y1="76" x2="132" y2="90" stroke="#1e293b" stroke-width="1.5"/><line x1="120" y1="82" x2="144" y2="82" stroke="#1e293b" stroke-width="1.5"/><line x1="132" y1="90" x2="122" y2="102" stroke="#1e293b" stroke-width="1.5"/><line x1="132" y1="90" x2="142" y2="102" stroke="#1e293b" stroke-width="1.5"/><text x="132" y="116" text-anchor="middle" font-family="monospace" font-size="13" font-weight="600" fill="#0f172a">Customer</text><circle cx="380" cy="67" r="9" fill="none" stroke="#1e293b" stroke-width="1.5"/><line x1="380" y1="76" x2="380" y2="90" stroke="#1e293b" stroke-width="1.5"/><line x1="368" y1="82" x2="392" y2="82" stroke="#1e293b" stroke-width="1.5"/><line x1="380" y1="90" x2="370" y2="102" stroke="#1e293b" stroke-width="1.5"/><line x1="380" y1="90" x2="390" y2="102" stroke="#1e293b" stroke-width="1.5"/><text x="380" y="116" text-anchor="middle" font-family="monospace" font-size="13" font-weight="600" fill="#0f172a">Manager</text><ellipse cx="628" cy="75" rx="100" ry="19" fill="#ffffff" stroke="#1e293b" stroke-width="1.5"/><text x="628" y="79" text-anchor="middle" font-family="monospace" font-size="13" font-weight="600" fill="#0f172a">Online Store::Browse</text><ellipse cx="132" cy="203" rx="100" ry="19" fill="#ffffff" stroke="#1e293b" stroke-width="1.5"/><text x="132" y="207" text-anchor="middle" font-family="monospace" font-size="13" font-weight="600" fill="#0f172a">Online Store::AddToCart</text><ellipse cx="380" cy="203" rx="100" ry="19" fill="#ffffff" stroke="#1e293b" stroke-width="1.5"/><text x="380" y="207" text-anchor="middle" font-family="monospace" font-size="13" font-weight="600" fill="#0f172a">Online Store::Checkout</text><ellipse cx="628" cy="215" rx="100" ry="31" fill="#ffffff" stroke="#1e293b" stroke-width="1.5"/><text x="628" y="219" text-anchor="middle" font-family="monospace" font-size="13" font-weight="600" fill="#0f172a">Back Office::MP</text><text x="628" y="260" text-anchor="middle" font-family="monospace" font-size="11" fill="#334155">ManageProducts</text><ellipse cx="132" cy="341" rx="100" ry="31" fill="#ffffff" stroke="#1e293b" stroke-width="1.5"/><text x="132" y="345" text-anchor="middle" font-family="monospace" font-size="13" font-weight="600" fill="#0f172a">Back Office::MO</text><text x="132" y="386" text-anchor="middle" font-family="monospace" font-size="11" fill="#334155">ManageOrders</text></svg>