<svg xmlns="http://www.w3.org/2000/svg" width="872" height="794" viewBox="0 0 872 794"><rect width="100%" height="100%" fill="#ffffff"/><defs><marker id="arrow-open" viewBox="0 0 10 10" refX="9" refY="5" markerWidth="10" markerHeight="10" markerUnits="userSpaceOnUse" orient="auto-start-reverse"><path d="M0,0 L10,5 L0,10" fill="none" stroke="#1e293b" stroke-width="1.5"/></marker><marker id="arrow-triangle" viewBox="0 0 16 16" refX="15" refY="8" markerWidth="16" markerHeight="16" markerUnits="userSpaceOnUse" orient="auto-start-reverse"><polygon points="0,1 14,8 0,15" fill="#ffffff" stroke="#1e293b" stroke-width="1.5" fill-rule="nonzero"/></marker><marker id="arrow-diamond-filled" viewBox="0 0 14 10" refX="13" refY="5" markerWidth="14" markerHeight="10" markerUnits="userSpaceOnUse" orient="auto-start-reverse"><path d="M0,5 L7,0 L14,5 L7,10 z" fill="#1e293b" stroke="#1e293b" stroke-width="1"/></marker><marker id="arrow-diamond-open" viewBox="0 0 14 10" refX="13" refY="5" markerWidth="14" markerHeight="10" markerUnits="userSpaceOnUse" orient="auto-start-reverse"><path d="M0,5 L7,0 L14,5 L7,10 z" fill="#ffffff" stroke="#1e293b" stroke-width="1"/></marker></defs><polyline class="uml-relation" data-uml-from="Customer" data-uml-to="Browse" data-uml-arrow="--&gt;" points="180,136 180,184 180,264" fill="none" stroke="#1e293b" stroke-width="2" marker-end="url(#arrow-open)" /><polyline class="uml-relation" data-uml-from="Customer" data-uml-to="AddToCart" data-uml-arrow="--&gt;" points="180,136 180,192 180,374 180,454" fill="none" stroke="#1e293b" stroke-width="2" marker-end="url(#arrow-open)" /><polyline class="uml-relation" data-uml-from="Customer" data-uml-to="Checkout" data-uml-arrow="--&gt;" points="180,136 180,200 229,200 229,382 278,382 278,584 328,584 328,644" fill="none" stroke="#1e293b" stroke-width="2" marker-end="url(#arrow-open)" /><polyline class="uml-relation" data-uml-from="Manager" data-uml-to="MP" data-uml-arrow="--&gt;" points="476,136 476,208 476,264" fill="none" stroke="#1e293b" stroke-width="2" marker-end="url(#arrow-open)" /><polyline class="uml-relation" data-uml-from="Manager" data-uml-to="MO" data-uml-arrow="--&gt;" points="476,136 476,216 476,398 476,454" fill="none" stroke="#1e293b" stroke-width="2" marker-end="url(#arrow-open)" /><polyline class="uml-relation" data-uml-from="Browse" data-uml-to="AddToCart" data-uml-arrow="--&gt;" points="180,302 180,406 180,454" fill="none" stroke="#1e293b" stroke-width="2" marker-end="url(#arrow-open)" /><polyline class="uml-relation" data-uml-from="AddToCart" data-uml-to="Checkout" data-uml-arrow="--&gt;" points="180,492 180,592 328,592 328,644" fill="none" stroke="#1e293b" stroke-width="2" marker-end="url(#arrow-open)" /><polyline class="uml-relation" data-uml-from="MP" data-uml-to="MO" data-uml-arrow="--&gt;" points="476,326 476,414 476,454" fill="none" stroke="#1e293b" stroke-width="2" marker-end="url(#arrow-open)" /><text x="476" y="358" text-anchor="middle" font-family="monospace" font-size="11" fill="#334155">depends</text><rect class="uml-group-frame" data-uml-group="Back Office" x="352" y="208" width="248" height="324" rx="6" ry="6" fill="none" stroke="#6366f1" stroke-width="1.5" stroke-dasharray="5 3"/><text x="360" y="222" font-family="monospace" font-size="11" font-weight="600" fill="#4338ca">Back Office</text><rect class="uml-group-frame" data-uml-group="Online Store" x="56" y="208" width="396" height="490" rx="6" ry="6" fill="none" stroke="#6366f1" stroke-width="1.5" stroke-dasharray="5 3"/><text x="64" y="222" font-family="monospace" font-size="11" font-weight="600" fill="#4338ca">Online Store</text><circle cx="180" cy="83" r="9" fill="none" stroke="#1e293b" stroke-width="1.5"/><line x1="180" y1="92" x2="180" y2="106" stroke="#1e293b" stroke-width="1.5"/><line x1="168" y1="98" x2="192" y2="98" stroke="#1e293b" stroke-width="1.5"/><line x1="180" y1="106" x2="170" y2="118" stroke="#1e293b" stroke-width="1.5"/><line x1="180" y1="106" x2="190" y2="118" stroke="#1e293b" stroke-width="1.5"/><text x="180" y="132" text-anchor="middle" font-family="monospace" font-size="13" font-weight="600" fill="#0f172a">Customer</text><circle cx="476" cy="83" r="9" fill="none" stroke="#1e293b" stroke-width="1.5"/><line x1="476" y1="92" x2="476" y2="106" stroke="#1e293b" stroke-width="1.5"/><line x1="464" y1="98" x2="488" y2="98" stroke="#1e293b" stroke-width="1.5"/><line x1="476" y1="106" x2="466" y2="118" stroke="#1e293b" stroke-width="1.5"/><line x1="476" y1="106" x2="486" y2="118" stroke="#1e293b" stroke-width="1.5"/><text x="476" y="132" text-anchor="middle" font-family="monospace" font-size="13" font-weight="600" fill="#0f172a">Manager</text><ellipse cx="180" cy="283" rx="108" ry="19" fill="#ffffff" stroke="#1e293b" stroke-width="1.5"/><text x="180" y="287" text-anchor="middle" font-family="monospace" font-size="13" font-weight="600" fill="#0f172a">Browse</text><ellipse cx="180" cy="473" rx="108" ry="19" fill="#ffffff" stroke="#1e293b" stroke-width="1.5"/><text x="180" y="477" text-anchor="middle" font-family="monospace" font-size="13" font-weight="600" fill="#0f172a">AddToCart</text><ellipse cx="328" cy="663" rx="108" ry="19" fill="#ffffff" stroke="#1e293b" stroke-width="1.5"/><text x="328" y="667" text-anchor="middle" font-family="monospace" font-size="13" font-weight="600" fill="#0f172a">Checkout</text><ellipse cx="476" cy="295" rx="108" ry="31" fill="#ffffff" stroke="#1e293b" stroke-width="1.5"/><text x="476" y="299" text-anchor="middle" font-family="monospace" font-size="13" font-weight="600" fill="#0f172a">ManageProducts</text><ellipse cx="476" cy="485" rx="108" ry="31" fill="#ffffff" stroke="#1e293b" stroke-width="1.5"/><text x="476" y="489" text-anchor="middle" font-family="monospace" font-size="13" font-weight="600" fill="#0f172a">ManageOrders</text></svg>