<svg xmlns="http://www.w3.org/2000/svg" width="826" height="818" viewBox="0 0 826 818" data-orientation="TopToBottom"><rect width="100%" height="100%" fill="#ffffff"/><defs><marker id="arrow-open" viewBox="0 0 10 10" refX="9" refY="5" markerWidth="10" markerHeight="10" markerUnits="userSpaceOnUse" orient="auto-start-reverse"><path d="M0,0 L10,5 L0,10" fill="none" stroke="#1e293b" stroke-width="1.5"/></marker><marker id="arrow-triangle" viewBox="0 0 16 16" refX="15" refY="8" markerWidth="16" markerHeight="16" markerUnits="userSpaceOnUse" orient="auto-start-reverse"><polygon points="0,1 14,8 0,15" fill="#ffffff" stroke="#1e293b" stroke-width="1.5" fill-rule="nonzero"/></marker><marker id="arrow-diamond-filled" viewBox="0 0 14 10" refX="13" refY="5" markerWidth="14" markerHeight="10" markerUnits="userSpaceOnUse" orient="auto-start-reverse"><path d="M0,5 L7,0 L14,5 L7,10 z" fill="#1e293b" stroke="#1e293b" stroke-width="1"/></marker><marker id="arrow-diamond-open" viewBox="0 0 14 10" refX="13" refY="5" markerWidth="14" markerHeight="10" markerUnits="userSpaceOnUse" orient="auto-start-reverse"><path d="M0,5 L7,0 L14,5 L7,10 z" fill="#ffffff" stroke="#1e293b" stroke-width="1"/></marker></defs><defs><marker id="arrow-triangle-filled" viewBox="0 0 12 12" refX="11" refY="6" markerWidth="12" markerHeight="12" markerUnits="userSpaceOnUse" orient="auto-start-reverse"><polygon points="0,0 12,6 0,12" fill="#1e293b" stroke="#1e293b" stroke-width="1.5"/></marker><marker id="arrow-box-filled" viewBox="0 0 12 12" refX="11" refY="6" markerWidth="12" markerHeight="12" markerUnits="userSpaceOnUse" orient="auto-start-reverse"><rect x="2" y="2" width="8" height="8" fill="#1e293b" stroke="#1e293b" stroke-width="1.5"/></marker><marker id="arrow-plus" viewBox="0 0 12 12" refX="11" refY="6" markerWidth="12" markerHeight="12" markerUnits="userSpaceOnUse" orient="auto-start-reverse"><path d="M6,1 L6,11 M1,6 L11,6" fill="none" stroke="#1e293b" stroke-width="1.8" stroke-linecap="round"/></marker><marker id="arrow-cross" viewBox="0 0 12 12" refX="11" refY="6" markerWidth="12" markerHeight="12" markerUnits="userSpaceOnUse" orient="auto-start-reverse"><path d="M2,2 L10,10 M10,2 L2,10" fill="none" stroke="#1e293b" stroke-width="1.8" stroke-linecap="round"/></marker><marker id="arrow-bracket-open" viewBox="0 0 12 14" refX="11" refY="7" markerWidth="12" markerHeight="14" markerUnits="userSpaceOnUse" orient="auto-start-reverse"><path d="M10,1 L4,1 L4,13 L10,13" fill="none" stroke="#1e293b" stroke-width="1.8" stroke-linecap="round" stroke-linejoin="round"/></marker><marker id="arrow-circle-open" viewBox="0 0 12 12" refX="11" refY="6" markerWidth="12" markerHeight="12" markerUnits="userSpaceOnUse" orient="auto-start-reverse"><circle cx="6" cy="6" r="4" fill="#ffffff" stroke="#1e293b" stroke-width="1.5"/></marker><marker id="arrow-circle-filled" viewBox="0 0 12 12" refX="11" refY="6" markerWidth="12" markerHeight="12" markerUnits="userSpaceOnUse" orient="auto-start-reverse"><circle cx="6" cy="6" r="4" fill="#1e293b" stroke="#1e293b" stroke-width="1.5"/></marker><marker id="arrow-double-open" viewBox="0 0 16 12" refX="15" refY="6" markerWidth="16" markerHeight="12" markerUnits="userSpaceOnUse" orient="auto-start-reverse"><path d="M0,1 L8,6 L0,11 M7,1 L15,6 L7,11" fill="none" stroke="#1e293b" stroke-width="1.5" stroke-linejoin="round"/></marker></defs><path class="uml-relation" data-uml-from="Customer" data-uml-to="Browse" data-uml-arrow="--&gt;" d="M 192,148 C 192.0,153.3 192.0,161.3 192.0,164.0 C 192.0,166.7 192.0,145.3 192.0,164.0 C 192.0,182.7 192.0,238.7 192.0,276.0" fill="none" stroke="#1e293b" stroke-width="2" marker-end="url(#arrow-open)" /><path class="uml-relation" data-uml-from="Customer" data-uml-to="AddToCart" data-uml-arrow="--&gt;" d="M 192,148 C 192.0,161.3 144.0,181.3 192.0,188.0 C 240.0,194.7 432.0,158.2 480.0,188.0 C 528.0,217.8 528.0,337.2 480.0,367.0 C 432.0,396.8 240.0,350.5 192.0,367.0 C 144.0,383.5 192.0,433.0 192.0,466.0" fill="none" stroke="#1e293b" stroke-width="2" marker-end="url(#arrow-open)" /><path class="uml-relation" data-uml-from="Customer" data-uml-to="Checkout" data-uml-arrow="--&gt;" d="M 192,148 C 192.0,169.3 167.3,201.3 192.0,212.0 C 216.7,222.7 315.3,138.0 340.0,212.0 C 364.7,286.0 340.0,508.0 340.0,656.0" fill="none" stroke="#1e293b" stroke-width="2" marker-end="url(#arrow-open)" /><path class="uml-relation" data-uml-from="Manager" data-uml-to="MP" data-uml-arrow="--&gt;" d="M 488,148 C 488.0,189.3 464.7,251.3 488.0,272.0 C 511.3,292.7 604.7,271.3 628.0,272.0 C 651.3,272.7 628.0,274.7 628.0,276.0" fill="none" stroke="#1e293b" stroke-width="2" marker-end="url(#arrow-open)" /><path class="uml-relation" data-uml-from="Manager" data-uml-to="MO" data-uml-arrow="--&gt;" d="M 488,148 C 488.0,189.3 464.7,251.3 488.0,272.0 C 511.3,292.7 604.7,239.7 628.0,272.0 C 651.3,304.3 628.0,401.3 628.0,466.0" fill="none" stroke="#1e293b" stroke-width="2" marker-end="url(#arrow-open)" /><path class="uml-relation" data-uml-from="Browse" data-uml-to="AddToCart" data-uml-arrow="--&gt;" d="M 192,314 C 192.0,354.7 192.0,410.7 192.0,436.0 C 192.0,461.3 192.0,456.0 192.0,466.0" fill="none" stroke="#1e293b" stroke-width="2" marker-end="url(#arrow-open)" /><path class="uml-relation" data-uml-from="AddToCart" data-uml-to="Checkout" data-uml-arrow="--&gt;" d="M 192,504 C 192.0,548.3 167.3,614.8 192.0,637.0 C 216.7,659.2 315.3,633.8 340.0,637.0 C 364.7,640.2 340.0,649.7 340.0,656.0" fill="none" stroke="#1e293b" stroke-width="2" marker-end="url(#arrow-open)" /><path class="uml-relation" data-uml-from="MP" data-uml-to="MO" data-uml-arrow="--&gt;" d="M 628,338 C 628.0,376.3 628.0,431.7 628.0,453.0 C 628.0,474.3 628.0,461.7 628.0,466.0" fill="none" stroke="#1e293b" stroke-width="2" marker-end="url(#arrow-open)" /><text class="uml-edge-label" data-uml-label-role="edge" x="765" y="383" text-anchor="middle" font-family="monospace" font-size="11" fill="#334155">depends</text><rect class="uml-group-frame" data-uml-group="Back Office" x="500" y="204" width="256" height="344" rx="6" ry="6" fill="none" stroke="#6366f1" stroke-width="1.5" stroke-dasharray="5 3"/><rect x="500" y="204" width="104" height="24" rx="6" ry="6" fill="#ffffff" stroke="#6366f1" stroke-width="1.5"/><rect x="500" y="220" width="104" height="8" fill="#ffffff" stroke="none"/><text x="508" y="220" font-family="monospace" font-size="11" font-weight="600" fill="#4338ca">Back Office</text><line x1="500" y1="228" x2="756" y2="228" stroke="#6366f1" stroke-width="1"/><rect class="uml-group-frame" data-uml-group="Online Store" x="64" y="204" width="404" height="510" rx="6" ry="6" fill="none" stroke="#6366f1" stroke-width="1.5" stroke-dasharray="5 3"/><rect x="64" y="204" width="112" height="24" rx="6" ry="6" fill="#ffffff" stroke="#6366f1" stroke-width="1.5"/><rect x="64" y="220" width="112" height="8" fill="#ffffff" stroke="none"/><text x="72" y="220" font-family="monospace" font-size="11" font-weight="600" fill="#4338ca">Online Store</text><line x1="64" y1="228" x2="468" y2="228" stroke="#6366f1" stroke-width="1"/><circle cx="192" cy="90" r="6" fill="none" stroke="#1e293b" stroke-width="1.5"/><line x1="192" y1="96" x2="192" y2="110" stroke="#1e293b" stroke-width="1.5"/><line x1="182" y1="100" x2="202" y2="100" stroke="#1e293b" stroke-width="1.5"/><line x1="192" y1="110" x2="184" y2="126" stroke="#1e293b" stroke-width="1.5"/><line x1="192" y1="110" x2="200" y2="126" stroke="#1e293b" stroke-width="1.5"/><text x="192" y="132" text-anchor="middle" font-family="monospace" font-size="13" font-weight="600" fill="#0f172a">Customer</text><circle cx="488" cy="90" r="6" fill="none" stroke="#1e293b" stroke-width="1.5"/><line x1="488" y1="96" x2="488" y2="110" stroke="#1e293b" stroke-width="1.5"/><line x1="478" y1="100" x2="498" y2="100" stroke="#1e293b" stroke-width="1.5"/><line x1="488" y1="110" x2="480" y2="126" stroke="#1e293b" stroke-width="1.5"/><line x1="488" y1="110" x2="496" y2="126" stroke="#1e293b" stroke-width="1.5"/><text x="488" y="132" text-anchor="middle" font-family="monospace" font-size="13" font-weight="600" fill="#0f172a">Manager</text><ellipse cx="192" cy="295" rx="108" ry="19" fill="#ffffff" stroke="#1e293b" stroke-width="1.5"/><text x="192" y="299" text-anchor="middle" font-family="monospace" font-size="13" font-weight="600" fill="#0f172a">Browse</text><ellipse cx="192" cy="485" rx="108" ry="19" fill="#ffffff" stroke="#1e293b" stroke-width="1.5"/><text x="192" y="489" text-anchor="middle" font-family="monospace" font-size="13" font-weight="600" fill="#0f172a">AddToCart</text><ellipse cx="340" cy="675" rx="108" ry="19" fill="#ffffff" stroke="#1e293b" stroke-width="1.5"/><text x="340" y="679" text-anchor="middle" font-family="monospace" font-size="13" font-weight="600" fill="#0f172a">Checkout</text><ellipse cx="628" cy="307" rx="108" ry="31" fill="#ffffff" stroke="#1e293b" stroke-width="1.5"/><text x="628" y="311" text-anchor="middle" font-family="monospace" font-size="13" font-weight="600" fill="#0f172a">ManageProducts</text><ellipse cx="628" cy="497" rx="108" ry="31" fill="#ffffff" stroke="#1e293b" stroke-width="1.5"/><text x="628" y="501" text-anchor="middle" font-family="monospace" font-size="13" font-weight="600" fill="#0f172a">ManageOrders</text></svg>