<svg xmlns="http://www.w3.org/2000/svg" width="2166" height="818" viewBox="0 0 2166 818" data-orientation="TopToBottom"><rect width="100%" height="100%" fill="#ffffff"/><defs><marker id="arrow-open" viewBox="0 0 10 10" refX="9" refY="5" markerWidth="10" markerHeight="10" markerUnits="userSpaceOnUse" orient="auto-start-reverse"><path d="M0,0 L10,5 L0,10" fill="none" stroke="#1e293b" stroke-width="1.5"/></marker><marker id="arrow-triangle" viewBox="0 0 16 16" refX="15" refY="8" markerWidth="16" markerHeight="16" markerUnits="userSpaceOnUse" orient="auto-start-reverse"><polygon points="0,1 14,8 0,15" fill="#ffffff" stroke="#1e293b" stroke-width="1.5" fill-rule="nonzero"/></marker><marker id="arrow-diamond-filled" viewBox="0 0 14 10" refX="13" refY="5" markerWidth="14" markerHeight="10" markerUnits="userSpaceOnUse" orient="auto-start-reverse"><path d="M0,5 L7,0 L14,5 L7,10 z" fill="#1e293b" stroke="#1e293b" stroke-width="1"/></marker><marker id="arrow-diamond-open" viewBox="0 0 14 10" refX="13" refY="5" markerWidth="14" markerHeight="10" markerUnits="userSpaceOnUse" orient="auto-start-reverse"><path d="M0,5 L7,0 L14,5 L7,10 z" fill="#ffffff" stroke="#1e293b" stroke-width="1"/></marker></defs><polyline class="uml-relation" data-uml-from="Customer" data-uml-to="Browse" data-uml-arrow="--&gt;" points="300,116 300,272 972,272 972,103" fill="none" stroke="#1e293b" stroke-width="2" marker-end="url(#arrow-open)" /><polyline class="uml-relation" data-uml-from="Customer" data-uml-to="AddToCart" data-uml-arrow="--&gt;" points="300,116 300,272 676,272 676,103" fill="none" stroke="#1e293b" stroke-width="2" marker-end="url(#arrow-open)" /><polyline class="uml-relation" data-uml-from="Customer" data-uml-to="Checkout" data-uml-arrow="--&gt;" points="300,116 300,272 1268,272 1268,103" fill="none" stroke="#1e293b" stroke-width="2" marker-end="url(#arrow-open)" /><polyline class="uml-relation" data-uml-from="Manager" data-uml-to="MP" data-uml-arrow="--&gt;" points="596,116 596,272 1860,272 1860,103" fill="none" stroke="#1e293b" stroke-width="2" marker-end="url(#arrow-open)" /><polyline class="uml-relation" data-uml-from="Manager" data-uml-to="MO" data-uml-arrow="--&gt;" points="596,116 596,272 1564,272 1564,103" fill="none" stroke="#1e293b" stroke-width="2" marker-end="url(#arrow-open)" /><polyline class="uml-relation" data-uml-from="Browse" data-uml-to="AddToCart" data-uml-arrow="--&gt;" points="972,103 972,390 892,103" fill="none" stroke="#1e293b" stroke-width="2" marker-end="url(#arrow-open)" /><polyline class="uml-relation" data-uml-from="AddToCart" data-uml-to="Checkout" data-uml-arrow="--&gt;" points="892,103 892,637 1268,637 1268,103" fill="none" stroke="#1e293b" stroke-width="2" marker-end="url(#arrow-open)" /><polyline class="uml-relation" data-uml-from="MP" data-uml-to="MO" data-uml-arrow="--&gt;" points="1860,103 1860,402 1780,103" fill="none" stroke="#1e293b" stroke-width="2" marker-end="url(#arrow-open)" /><text x="1820" y="91" text-anchor="middle" font-family="monospace" font-size="11" fill="#334155">depends</text><rect class="uml-group-frame" data-uml-group="Back Office" x="1240" y="204" width="256" height="344" rx="6" ry="6" fill="none" stroke="#6366f1" stroke-width="1.5" stroke-dasharray="5 3"/><rect x="1240" y="204" width="104" height="24" rx="6" ry="6" fill="#ffffff" stroke="#6366f1" stroke-width="1.5"/><rect x="1240" y="220" width="104" height="8" fill="#ffffff" stroke="none"/><text x="1248" y="220" font-family="monospace" font-size="11" font-weight="600" fill="#4338ca">Back Office</text><line x1="1240" y1="228" x2="1496" y2="228" stroke="#6366f1" stroke-width="1"/><rect class="uml-group-frame" data-uml-group="Online Store" x="804" y="204" width="404" height="510" rx="6" ry="6" fill="none" stroke="#6366f1" stroke-width="1.5" stroke-dasharray="5 3"/><rect x="804" y="204" width="112" height="24" rx="6" ry="6" fill="#ffffff" stroke="#6366f1" stroke-width="1.5"/><rect x="804" y="220" width="112" height="8" fill="#ffffff" stroke="none"/><text x="812" y="220" font-family="monospace" font-size="11" font-weight="600" fill="#4338ca">Online Store</text><line x1="804" y1="228" x2="1208" y2="228" stroke="#6366f1" stroke-width="1"/><circle cx="192" cy="90" r="6" fill="none" stroke="#1e293b" stroke-width="1.5"/><line x1="192" y1="96" x2="192" y2="110" stroke="#1e293b" stroke-width="1.5"/><line x1="182" y1="100" x2="202" y2="100" stroke="#1e293b" stroke-width="1.5"/><line x1="192" y1="110" x2="184" y2="126" stroke="#1e293b" stroke-width="1.5"/><line x1="192" y1="110" x2="200" y2="126" stroke="#1e293b" stroke-width="1.5"/><text x="192" y="132" text-anchor="middle" font-family="monospace" font-size="13" font-weight="600" fill="#0f172a">Customer</text><circle cx="488" cy="90" r="6" fill="none" stroke="#1e293b" stroke-width="1.5"/><line x1="488" y1="96" x2="488" y2="110" stroke="#1e293b" stroke-width="1.5"/><line x1="478" y1="100" x2="498" y2="100" stroke="#1e293b" stroke-width="1.5"/><line x1="488" y1="110" x2="480" y2="126" stroke="#1e293b" stroke-width="1.5"/><line x1="488" y1="110" x2="496" y2="126" stroke="#1e293b" stroke-width="1.5"/><text x="488" y="132" text-anchor="middle" font-family="monospace" font-size="13" font-weight="600" fill="#0f172a">Manager</text><ellipse cx="932" cy="295" rx="108" ry="19" fill="#ffffff" stroke="#1e293b" stroke-width="1.5"/><text x="932" y="299" text-anchor="middle" font-family="monospace" font-size="13" font-weight="600" fill="#0f172a">Browse</text><ellipse cx="932" cy="485" rx="108" ry="19" fill="#ffffff" stroke="#1e293b" stroke-width="1.5"/><text x="932" y="489" text-anchor="middle" font-family="monospace" font-size="13" font-weight="600" fill="#0f172a">AddToCart</text><ellipse cx="1080" cy="675" rx="108" ry="19" fill="#ffffff" stroke="#1e293b" stroke-width="1.5"/><text x="1080" y="679" text-anchor="middle" font-family="monospace" font-size="13" font-weight="600" fill="#0f172a">Checkout</text><ellipse cx="1368" cy="307" rx="108" ry="31" fill="#ffffff" stroke="#1e293b" stroke-width="1.5"/><text x="1368" y="311" text-anchor="middle" font-family="monospace" font-size="13" font-weight="600" fill="#0f172a">ManageProducts</text><ellipse cx="1368" cy="497" rx="108" ry="31" fill="#ffffff" stroke="#1e293b" stroke-width="1.5"/><text x="1368" y="501" text-anchor="middle" font-family="monospace" font-size="13" font-weight="600" fill="#0f172a">ManageOrders</text><ellipse cx="1080" cy="103" rx="108" ry="19" fill="#ffffff" stroke="#1e293b" stroke-width="1.5"/><text x="1080" y="107" text-anchor="middle" font-family="monospace" font-size="13" font-weight="600" fill="#0f172a">Browse</text><ellipse cx="784" cy="103" rx="108" ry="19" fill="#ffffff" stroke="#1e293b" stroke-width="1.5"/><text x="784" y="107" text-anchor="middle" font-family="monospace" font-size="13" font-weight="600" fill="#0f172a">AddToCart</text><ellipse cx="1376" cy="103" rx="108" ry="19" fill="#ffffff" stroke="#1e293b" stroke-width="1.5"/><text x="1376" y="107" text-anchor="middle" font-family="monospace" font-size="13" font-weight="600" fill="#0f172a">Checkout</text><ellipse cx="1968" cy="103" rx="108" ry="19" fill="#ffffff" stroke="#1e293b" stroke-width="1.5"/><text x="1968" y="107" text-anchor="middle" font-family="monospace" font-size="13" font-weight="600" fill="#0f172a">MP</text><ellipse cx="1672" cy="103" rx="108" ry="19" fill="#ffffff" stroke="#1e293b" stroke-width="1.5"/><text x="1672" y="107" text-anchor="middle" font-family="monospace" font-size="13" font-weight="600" fill="#0f172a">MO</text></svg>