<svg xmlns="http://www.w3.org/2000/svg" width="2144" height="608" viewBox="0 0 2144 608"><rect width="100%" height="100%" fill="#ffffff"/><defs><marker id="arrow-open" viewBox="0 0 10 10" refX="9" refY="5" markerWidth="10" markerHeight="10" markerUnits="userSpaceOnUse" orient="auto-start-reverse"><path d="M0,0 L10,5 L0,10" fill="none" stroke="#1e293b" stroke-width="1.5"/></marker><marker id="arrow-triangle" viewBox="0 0 16 16" refX="15" refY="8" markerWidth="16" markerHeight="16" markerUnits="userSpaceOnUse" orient="auto-start-reverse"><polygon points="0,1 14,8 0,15" fill="#ffffff" stroke="#1e293b" stroke-width="1.5" fill-rule="nonzero"/></marker><marker id="arrow-diamond-filled" viewBox="0 0 14 10" refX="13" refY="5" markerWidth="14" markerHeight="10" markerUnits="userSpaceOnUse" orient="auto-start-reverse"><path d="M0,5 L7,0 L14,5 L7,10 z" fill="#1e293b" stroke="#1e293b" stroke-width="1"/></marker><marker id="arrow-diamond-open" viewBox="0 0 14 10" refX="13" refY="5" markerWidth="14" markerHeight="10" markerUnits="userSpaceOnUse" orient="auto-start-reverse"><path d="M0,5 L7,0 L14,5 L7,10 z" fill="#ffffff" stroke="#1e293b" stroke-width="1"/></marker></defs><line class="uml-relation" data-uml-from="Customer" data-uml-to="Browse" x1="868" y1="92" x2="1540" y2="79" stroke="#1e293b" stroke-width="2" marker-end="url(#arrow-open)"/><line class="uml-relation" data-uml-from="Customer" data-uml-to="AddToCart" x1="868" y1="92" x2="1244" y2="79" stroke="#1e293b" stroke-width="2" marker-end="url(#arrow-open)"/><line class="uml-relation" data-uml-from="Customer" data-uml-to="Checkout" x1="868" y1="92" x2="1836" y2="79" stroke="#1e293b" stroke-width="2" marker-end="url(#arrow-open)"/><line class="uml-relation" data-uml-from="Manager" data-uml-to="MP" x1="948" y1="92" x2="572" y2="91" stroke="#1e293b" stroke-width="2" marker-end="url(#arrow-open)"/><line class="uml-relation" data-uml-from="Manager" data-uml-to="MO" x1="948" y1="92" x2="276" y2="91" stroke="#1e293b" stroke-width="2" marker-end="url(#arrow-open)"/><line class="uml-relation" data-uml-from="Browse" data-uml-to="AddToCart" x1="1540" y1="79" x2="1460" y2="79" stroke="#1e293b" stroke-width="2" marker-end="url(#arrow-open)"/><line class="uml-relation" data-uml-from="AddToCart" data-uml-to="Checkout" x1="1460" y1="79" x2="1836" y2="79" stroke="#1e293b" stroke-width="2" marker-end="url(#arrow-open)"/><line class="uml-relation" data-uml-from="MP" data-uml-to="MO" x1="356" y1="91" x2="276" y2="91" stroke="#1e293b" stroke-width="2" marker-end="url(#arrow-open)"/><text x="324" y="77" text-anchor="middle" font-family="monospace" font-size="11" fill="#334155">depends</text><rect class="uml-group-frame" data-uml-group="Back Office" x="44" y="16" width="544" height="122" rx="6" ry="6" fill="none" stroke="#6366f1" stroke-width="1.5" stroke-dasharray="5 3"/><text x="52" y="30" font-family="monospace" font-size="11" font-weight="600" fill="#4338ca">Back Office</text><rect class="uml-group-frame" data-uml-group="Online Store" x="1228" y="16" width="840" height="98" rx="6" ry="6" fill="none" stroke="#6366f1" stroke-width="1.5" stroke-dasharray="5 3"/><text x="1236" y="30" font-family="monospace" font-size="11" font-weight="600" fill="#4338ca">Online Store</text><circle cx="760" cy="71" r="9" fill="none" stroke="#1e293b" stroke-width="1.5"/><line x1="760" y1="80" x2="760" y2="94" stroke="#1e293b" stroke-width="1.5"/><line x1="748" y1="86" x2="772" y2="86" stroke="#1e293b" stroke-width="1.5"/><line x1="760" y1="94" x2="750" y2="106" stroke="#1e293b" stroke-width="1.5"/><line x1="760" y1="94" x2="770" y2="106" stroke="#1e293b" stroke-width="1.5"/><text x="760" y="120" text-anchor="middle" font-family="monospace" font-size="13" font-weight="600" fill="#0f172a">Customer</text><circle cx="1056" cy="71" r="9" fill="none" stroke="#1e293b" stroke-width="1.5"/><line x1="1056" y1="80" x2="1056" y2="94" stroke="#1e293b" stroke-width="1.5"/><line x1="1044" y1="86" x2="1068" y2="86" stroke="#1e293b" stroke-width="1.5"/><line x1="1056" y1="94" x2="1046" y2="106" stroke="#1e293b" stroke-width="1.5"/><line x1="1056" y1="94" x2="1066" y2="106" stroke="#1e293b" stroke-width="1.5"/><text x="1056" y="120" text-anchor="middle" font-family="monospace" font-size="13" font-weight="600" fill="#0f172a">Manager</text><ellipse cx="1648" cy="79" rx="108" ry="19" fill="#ffffff" stroke="#1e293b" stroke-width="1.5"/><text x="1648" y="83" text-anchor="middle" font-family="monospace" font-size="13" font-weight="600" fill="#0f172a">Browse</text><ellipse cx="1352" cy="79" rx="108" ry="19" fill="#ffffff" stroke="#1e293b" stroke-width="1.5"/><text x="1352" y="83" text-anchor="middle" font-family="monospace" font-size="13" font-weight="600" fill="#0f172a">AddToCart</text><ellipse cx="1944" cy="79" rx="108" ry="19" fill="#ffffff" stroke="#1e293b" stroke-width="1.5"/><text x="1944" y="83" text-anchor="middle" font-family="monospace" font-size="13" font-weight="600" fill="#0f172a">Checkout</text><ellipse cx="464" cy="91" rx="108" ry="31" fill="#ffffff" stroke="#1e293b" stroke-width="1.5"/><text x="464" y="95" text-anchor="middle" font-family="monospace" font-size="13" font-weight="600" fill="#0f172a">ManageProducts</text><ellipse cx="168" cy="91" rx="108" ry="31" fill="#ffffff" stroke="#1e293b" stroke-width="1.5"/><text x="168" y="95" text-anchor="middle" font-family="monospace" font-size="13" font-weight="600" fill="#0f172a">ManageOrders</text></svg>