<svg xmlns="http://www.w3.org/2000/svg" width="826" height="542" viewBox="0 0 826 542" data-orientation="TopToBottom"><rect width="100%" height="100%" fill="#ffffff"/><defs><marker id="arrow-open" viewBox="0 0 10 10" refX="9" refY="5" markerWidth="10" markerHeight="10" markerUnits="userSpaceOnUse" orient="auto-start-reverse"><path d="M0,0 L10,5 L0,10" fill="none" stroke="#1e293b" stroke-width="1.5"/></marker><marker id="arrow-triangle" viewBox="0 0 16 16" refX="15" refY="8" markerWidth="16" markerHeight="16" markerUnits="userSpaceOnUse" orient="auto-start-reverse"><polygon points="0,1 14,8 0,15" fill="#ffffff" stroke="#1e293b" stroke-width="1.5" fill-rule="nonzero"/></marker><marker id="arrow-diamond-filled" viewBox="0 0 14 10" refX="13" refY="5" markerWidth="14" markerHeight="10" markerUnits="userSpaceOnUse" orient="auto-start-reverse"><path d="M0,5 L7,0 L14,5 L7,10 z" fill="#1e293b" stroke="#1e293b" stroke-width="1"/></marker><marker id="arrow-diamond-open" viewBox="0 0 14 10" refX="13" refY="5" markerWidth="14" markerHeight="10" markerUnits="userSpaceOnUse" orient="auto-start-reverse"><path d="M0,5 L7,0 L14,5 L7,10 z" fill="#ffffff" stroke="#1e293b" stroke-width="1"/></marker></defs><polyline class="uml-relation" data-uml-from="Customer" data-uml-to="Browse" data-uml-arrow="--&gt;" points="192,148 192,166 192,184" fill="none" stroke="#1e293b" stroke-width="2" marker-end="url(#arrow-open)" /><polyline class="uml-relation" data-uml-from="Customer" data-uml-to="AddToCart" data-uml-arrow="--&gt;" points="192,148 192,215 192,282" fill="none" stroke="#1e293b" stroke-width="2" marker-end="url(#arrow-open)" /><polyline class="uml-relation" data-uml-from="Customer" data-uml-to="Checkout" data-uml-arrow="--&gt;" points="192,148 192,166 340,166 340,380" fill="none" stroke="#1e293b" stroke-width="2" marker-end="url(#arrow-open)" /><polyline class="uml-relation" data-uml-from="Manager" data-uml-to="MP" data-uml-arrow="--&gt;" points="596,116 596,174 520,174 520,215" fill="none" stroke="#1e293b" stroke-width="2" marker-end="url(#arrow-open)" /><polyline class="uml-relation" data-uml-from="Manager" data-uml-to="MO" data-uml-arrow="--&gt;" points="488,148 488,180 628,180 628,282" fill="none" stroke="#1e293b" stroke-width="2" marker-end="url(#arrow-open)" /><polyline class="uml-relation" data-uml-from="Browse" data-uml-to="AddToCart" data-uml-arrow="--&gt;" points="192,222 192,252 192,282" fill="none" stroke="#1e293b" stroke-width="2" marker-end="url(#arrow-open)" /><polyline class="uml-relation" data-uml-from="AddToCart" data-uml-to="Checkout" data-uml-arrow="--&gt;" points="300,301 300,374 232,374 232,399" fill="none" stroke="#1e293b" stroke-width="2" marker-end="url(#arrow-open)" /><polyline class="uml-relation" data-uml-from="MP" data-uml-to="MO" data-uml-arrow="--&gt;" points="628,246 628,264 628,282" fill="none" stroke="#1e293b" stroke-width="2" marker-end="url(#arrow-open)" /><text x="628" y="166" text-anchor="middle" font-family="monospace" font-size="11" fill="#334155">depends</text><rect class="uml-group-frame" data-uml-group="Back Office" x="500" y="112" width="256" height="252" rx="6" ry="6" fill="none" stroke="#6366f1" stroke-width="1.5" stroke-dasharray="5 3"/><rect x="500" y="112" width="104" height="24" rx="6" ry="6" fill="#ffffff" stroke="#6366f1" stroke-width="1.5"/><rect x="500" y="128" width="104" height="8" fill="#ffffff" stroke="none"/><text x="508" y="128" font-family="monospace" font-size="11" font-weight="600" fill="#4338ca">Back Office</text><line x1="500" y1="136" x2="756" y2="136" stroke="#6366f1" stroke-width="1"/><rect class="uml-group-frame" data-uml-group="Online Store" x="64" y="112" width="404" height="326" rx="6" ry="6" fill="none" stroke="#6366f1" stroke-width="1.5" stroke-dasharray="5 3"/><rect x="64" y="112" width="112" height="24" rx="6" ry="6" fill="#ffffff" stroke="#6366f1" stroke-width="1.5"/><rect x="64" y="128" width="112" height="8" fill="#ffffff" stroke="none"/><text x="72" y="128" font-family="monospace" font-size="11" font-weight="600" fill="#4338ca">Online Store</text><line x1="64" y1="136" x2="468" y2="136" stroke="#6366f1" stroke-width="1"/><circle cx="192" cy="90" r="6" fill="none" stroke="#1e293b" stroke-width="1.5"/><line x1="192" y1="96" x2="192" y2="110" stroke="#1e293b" stroke-width="1.5"/><line x1="182" y1="100" x2="202" y2="100" stroke="#1e293b" stroke-width="1.5"/><line x1="192" y1="110" x2="184" y2="126" stroke="#1e293b" stroke-width="1.5"/><line x1="192" y1="110" x2="200" y2="126" stroke="#1e293b" stroke-width="1.5"/><text x="192" y="132" text-anchor="middle" font-family="monospace" font-size="13" font-weight="600" fill="#0f172a">Customer</text><circle cx="488" cy="90" r="6" fill="none" stroke="#1e293b" stroke-width="1.5"/><line x1="488" y1="96" x2="488" y2="110" stroke="#1e293b" stroke-width="1.5"/><line x1="478" y1="100" x2="498" y2="100" stroke="#1e293b" stroke-width="1.5"/><line x1="488" y1="110" x2="480" y2="126" stroke="#1e293b" stroke-width="1.5"/><line x1="488" y1="110" x2="496" y2="126" stroke="#1e293b" stroke-width="1.5"/><text x="488" y="132" text-anchor="middle" font-family="monospace" font-size="13" font-weight="600" fill="#0f172a">Manager</text><ellipse cx="192" cy="203" rx="108" ry="19" fill="#ffffff" stroke="#1e293b" stroke-width="1.5"/><text x="192" y="207" text-anchor="middle" font-family="monospace" font-size="13" font-weight="600" fill="#0f172a">Browse</text><ellipse cx="192" cy="301" rx="108" ry="19" fill="#ffffff" stroke="#1e293b" stroke-width="1.5"/><text x="192" y="305" text-anchor="middle" font-family="monospace" font-size="13" font-weight="600" fill="#0f172a">AddToCart</text><ellipse cx="340" cy="399" rx="108" ry="19" fill="#ffffff" stroke="#1e293b" stroke-width="1.5"/><text x="340" y="403" text-anchor="middle" font-family="monospace" font-size="13" font-weight="600" fill="#0f172a">Checkout</text><ellipse cx="628" cy="215" rx="108" ry="31" fill="#ffffff" stroke="#1e293b" stroke-width="1.5"/><text x="628" y="219" text-anchor="middle" font-family="monospace" font-size="13" font-weight="600" fill="#0f172a">ManageProducts</text><ellipse cx="628" cy="313" rx="108" ry="31" fill="#ffffff" stroke="#1e293b" stroke-width="1.5"/><text x="628" y="317" text-anchor="middle" font-family="monospace" font-size="13" font-weight="600" fill="#0f172a">ManageOrders</text></svg>