<svg xmlns="http://www.w3.org/2000/svg" width="645" height="764" viewBox="0 0 645 764" data-orientation="TopToBottom"><rect width="100%" height="100%" fill="#ffffff"/><defs><marker id="arrow-open" viewBox="0 0 10 10" refX="9" refY="5" markerWidth="10" markerHeight="10" markerUnits="userSpaceOnUse" orient="auto-start-reverse"><path d="M0,0 L10,5 L0,10" fill="none" stroke="#1e293b" stroke-width="1.5"/></marker><marker id="arrow-triangle" viewBox="0 0 16 16" refX="15" refY="8" markerWidth="16" markerHeight="16" markerUnits="userSpaceOnUse" orient="auto-start-reverse"><polygon points="0,1 14,8 0,15" fill="#ffffff" stroke="#1e293b" stroke-width="1.5" fill-rule="nonzero"/></marker><marker id="arrow-diamond-filled" viewBox="0 0 14 10" refX="13" refY="5" markerWidth="14" markerHeight="10" markerUnits="userSpaceOnUse" orient="auto-start-reverse"><path d="M0,5 L7,0 L14,5 L7,10 z" fill="#1e293b" stroke="#1e293b" stroke-width="1"/></marker><marker id="arrow-diamond-open" viewBox="0 0 14 10" refX="13" refY="5" markerWidth="14" markerHeight="10" markerUnits="userSpaceOnUse" orient="auto-start-reverse"><path d="M0,5 L7,0 L14,5 L7,10 z" fill="#ffffff" stroke="#1e293b" stroke-width="1"/></marker></defs><defs><marker id="arrow-triangle-filled" viewBox="0 0 12 12" refX="11" refY="6" markerWidth="12" markerHeight="12" markerUnits="userSpaceOnUse" orient="auto-start-reverse"><polygon points="0,0 12,6 0,12" fill="#1e293b" stroke="#1e293b" stroke-width="1.5"/></marker><marker id="arrow-box-filled" viewBox="0 0 12 12" refX="11" refY="6" markerWidth="12" markerHeight="12" markerUnits="userSpaceOnUse" orient="auto-start-reverse"><rect x="2" y="2" width="8" height="8" fill="#1e293b" stroke="#1e293b" stroke-width="1.5"/></marker><marker id="arrow-plus" viewBox="0 0 12 12" refX="11" refY="6" markerWidth="12" markerHeight="12" markerUnits="userSpaceOnUse" orient="auto-start-reverse"><path d="M6,1 L6,11 M1,6 L11,6" fill="none" stroke="#1e293b" stroke-width="1.8" stroke-linecap="round"/></marker><marker id="arrow-cross" viewBox="0 0 12 12" refX="11" refY="6" markerWidth="12" markerHeight="12" markerUnits="userSpaceOnUse" orient="auto-start-reverse"><path d="M2,2 L10,10 M10,2 L2,10" fill="none" stroke="#1e293b" stroke-width="1.8" stroke-linecap="round"/></marker><marker id="arrow-bracket-open" viewBox="0 0 12 14" refX="11" refY="7" markerWidth="12" markerHeight="14" markerUnits="userSpaceOnUse" orient="auto-start-reverse"><path d="M10,1 L4,1 L4,13 L10,13" fill="none" stroke="#1e293b" stroke-width="1.8" stroke-linecap="round" stroke-linejoin="round"/></marker><marker id="arrow-circle-open" viewBox="0 0 12 12" refX="11" refY="6" markerWidth="12" markerHeight="12" markerUnits="userSpaceOnUse" orient="auto-start-reverse"><circle cx="6" cy="6" r="4" fill="#ffffff" stroke="#1e293b" stroke-width="1.5"/></marker><marker id="arrow-circle-filled" viewBox="0 0 12 12" refX="11" refY="6" markerWidth="12" markerHeight="12" markerUnits="userSpaceOnUse" orient="auto-start-reverse"><circle cx="6" cy="6" r="4" fill="#1e293b" stroke="#1e293b" stroke-width="1.5"/></marker><marker id="arrow-double-open" viewBox="0 0 16 12" refX="15" refY="6" markerWidth="16" markerHeight="12" markerUnits="userSpaceOnUse" orient="auto-start-reverse"><path d="M0,1 L8,6 L0,11 M7,1 L15,6 L7,11" fill="none" stroke="#1e293b" stroke-width="1.5" stroke-linejoin="round"/></marker></defs><polyline class="uml-relation" data-uml-from="Customer" data-uml-to="Browse" data-uml-arrow="--&gt;" points="159,148 159,162 159,186" fill="none" stroke="#1e293b" stroke-width="2" marker-end="url(#arrow-open)" /><polyline class="uml-relation" data-uml-from="Customer" data-uml-to="AddToCart" data-uml-arrow="--&gt;" points="159,148 159,182 373,182 373,186 159,186 159,430" fill="none" stroke="#1e293b" stroke-width="2" marker-end="url(#arrow-open)" /><polyline class="uml-relation" data-uml-from="Customer" data-uml-to="Checkout" data-uml-arrow="--&gt;" points="159,148 159,186 274,186 274,602" fill="none" stroke="#1e293b" stroke-width="2" marker-end="url(#arrow-open)" /><polyline class="uml-relation" data-uml-from="Manager" data-uml-to="MP" data-uml-arrow="--&gt;" points="389,148 389,186 480,186 480,258" fill="none" stroke="#1e293b" stroke-width="2" marker-end="url(#arrow-open)" /><polyline class="uml-relation" data-uml-from="Manager" data-uml-to="MO" data-uml-arrow="--&gt;" points="389,148 389,186 480,186 480,430" fill="none" stroke="#1e293b" stroke-width="2" marker-end="url(#arrow-open)" /><polyline class="uml-relation" data-uml-from="Browse" data-uml-to="AddToCart" data-uml-arrow="--&gt;" points="159,296 159,404 159,430" fill="none" stroke="#1e293b" stroke-width="2" marker-end="url(#arrow-open)" /><polyline class="uml-relation" data-uml-from="AddToCart" data-uml-to="Checkout" data-uml-arrow="--&gt;" points="159,468 159,585 274,585 274,602" fill="none" stroke="#1e293b" stroke-width="2" marker-end="url(#arrow-open)" /><polyline class="uml-relation" data-uml-from="MP" data-uml-to="MO" data-uml-arrow="--&gt;" points="480,320 480,418 480,430" fill="none" stroke="#1e293b" stroke-width="2" marker-end="url(#arrow-open)" /><text class="uml-edge-label" data-uml-label-role="edge" x="584" y="357" text-anchor="middle" font-family="monospace" font-size="11" fill="#334155">depends</text><rect class="uml-group-frame" data-uml-group="Back Office" x="385" y="186" width="190" height="326" rx="6" ry="6" fill="none" stroke="#6366f1" stroke-width="1.5" stroke-dasharray="5 3"/><rect x="385" y="186" width="104" height="24" rx="6" ry="6" fill="#ffffff" stroke="#6366f1" stroke-width="1.5"/><rect x="385" y="202" width="104" height="8" fill="#ffffff" stroke="none"/><text x="393" y="202" font-family="monospace" font-size="11" font-weight="600" fill="#4338ca">Back Office</text><line x1="385" y1="210" x2="575" y2="210" stroke="#6366f1" stroke-width="1"/><rect class="uml-group-frame" data-uml-group="Online Store" x="64" y="186" width="305" height="474" rx="6" ry="6" fill="none" stroke="#6366f1" stroke-width="1.5" stroke-dasharray="5 3"/><rect x="64" y="186" width="112" height="24" rx="6" ry="6" fill="#ffffff" stroke="#6366f1" stroke-width="1.5"/><rect x="64" y="202" width="112" height="8" fill="#ffffff" stroke="none"/><text x="72" y="202" font-family="monospace" font-size="11" font-weight="600" fill="#4338ca">Online Store</text><line x1="64" y1="210" x2="369" y2="210" stroke="#6366f1" stroke-width="1"/><circle cx="159" cy="90" r="6" fill="none" stroke="#1e293b" stroke-width="1.5"/><line x1="159" y1="96" x2="159" y2="110" stroke="#1e293b" stroke-width="1.5"/><line x1="149" y1="100" x2="169" y2="100" stroke="#1e293b" stroke-width="1.5"/><line x1="159" y1="110" x2="151" y2="126" stroke="#1e293b" stroke-width="1.5"/><line x1="159" y1="110" x2="167" y2="126" stroke="#1e293b" stroke-width="1.5"/><text x="159" y="132" text-anchor="middle" font-family="monospace" font-size="13" font-weight="600" fill="#0f172a">Customer</text><circle cx="389" cy="90" r="6" fill="none" stroke="#1e293b" stroke-width="1.5"/><line x1="389" y1="96" x2="389" y2="110" stroke="#1e293b" stroke-width="1.5"/><line x1="379" y1="100" x2="399" y2="100" stroke="#1e293b" stroke-width="1.5"/><line x1="389" y1="110" x2="381" y2="126" stroke="#1e293b" stroke-width="1.5"/><line x1="389" y1="110" x2="397" y2="126" stroke="#1e293b" stroke-width="1.5"/><text x="389" y="132" text-anchor="middle" font-family="monospace" font-size="13" font-weight="600" fill="#0f172a">Manager</text><ellipse cx="159" cy="277" rx="75" ry="19" fill="#ffffff" stroke="#1e293b" stroke-width="1.5"/><text x="159" y="281" text-anchor="middle" font-family="monospace" font-size="13" font-weight="600" fill="#0f172a">Browse</text><ellipse cx="159" cy="449" rx="75" ry="19" fill="#ffffff" stroke="#1e293b" stroke-width="1.5"/><text x="159" y="453" text-anchor="middle" font-family="monospace" font-size="13" font-weight="600" fill="#0f172a">AddToCart</text><ellipse cx="274" cy="621" rx="75" ry="19" fill="#ffffff" stroke="#1e293b" stroke-width="1.5"/><text x="274" y="625" text-anchor="middle" font-family="monospace" font-size="13" font-weight="600" fill="#0f172a">Checkout</text><ellipse cx="480" cy="289" rx="75" ry="31" fill="#ffffff" stroke="#1e293b" stroke-width="1.5"/><text x="480" y="293" text-anchor="middle" font-family="monospace" font-size="13" font-weight="600" fill="#0f172a">ManageProducts</text><ellipse cx="480" cy="461" rx="75" ry="31" fill="#ffffff" stroke="#1e293b" stroke-width="1.5"/><text x="480" y="465" text-anchor="middle" font-family="monospace" font-size="13" font-weight="600" fill="#0f172a">ManageOrders</text></svg>