<svg xmlns="http://www.w3.org/2000/svg" width="2006" height="914" viewBox="0 0 2006 914" data-orientation="TopToBottom"><rect width="100%" height="100%" fill="#ffffff"/><defs><marker id="arrow-open" viewBox="0 0 10 10" refX="9" refY="5" markerWidth="10" markerHeight="10" markerUnits="userSpaceOnUse" orient="auto-start-reverse"><path d="M0,0 L10,5 L0,10" fill="none" stroke="#1e293b" stroke-width="1.5"/></marker><marker id="arrow-triangle" viewBox="0 0 16 16" refX="15" refY="8" markerWidth="16" markerHeight="16" markerUnits="userSpaceOnUse" orient="auto-start-reverse"><polygon points="0,1 14,8 0,15" fill="#ffffff" stroke="#1e293b" stroke-width="1.5" fill-rule="nonzero"/></marker><marker id="arrow-diamond-filled" viewBox="0 0 14 10" refX="13" refY="5" markerWidth="14" markerHeight="10" markerUnits="userSpaceOnUse" orient="auto-start-reverse"><path d="M0,5 L7,0 L14,5 L7,10 z" fill="#1e293b" stroke="#1e293b" stroke-width="1"/></marker><marker id="arrow-diamond-open" viewBox="0 0 14 10" refX="13" refY="5" markerWidth="14" markerHeight="10" markerUnits="userSpaceOnUse" orient="auto-start-reverse"><path d="M0,5 L7,0 L14,5 L7,10 z" fill="#ffffff" stroke="#1e293b" stroke-width="1"/></marker></defs><defs><marker id="arrow-triangle-filled" viewBox="0 0 12 12" refX="11" refY="6" markerWidth="12" markerHeight="12" markerUnits="userSpaceOnUse" orient="auto-start-reverse"><polygon points="0,0 12,6 0,12" fill="#1e293b" stroke="#1e293b" stroke-width="1.5"/></marker><marker id="arrow-box-filled" viewBox="0 0 12 12" refX="11" refY="6" markerWidth="12" markerHeight="12" markerUnits="userSpaceOnUse" orient="auto-start-reverse"><rect x="2" y="2" width="8" height="8" fill="#1e293b" stroke="#1e293b" stroke-width="1.5"/></marker><marker id="arrow-plus" viewBox="0 0 12 12" refX="11" refY="6" markerWidth="12" markerHeight="12" markerUnits="userSpaceOnUse" orient="auto-start-reverse"><path d="M6,1 L6,11 M1,6 L11,6" fill="none" stroke="#1e293b" stroke-width="1.8" stroke-linecap="round"/></marker><marker id="arrow-cross" viewBox="0 0 12 12" refX="11" refY="6" markerWidth="12" markerHeight="12" markerUnits="userSpaceOnUse" orient="auto-start-reverse"><path d="M2,2 L10,10 M10,2 L2,10" fill="none" stroke="#1e293b" stroke-width="1.8" stroke-linecap="round"/></marker><marker id="arrow-bracket-open" viewBox="0 0 12 14" refX="11" refY="7" markerWidth="12" markerHeight="14" markerUnits="userSpaceOnUse" orient="auto-start-reverse"><path d="M10,1 L4,1 L4,13 L10,13" fill="none" stroke="#1e293b" stroke-width="1.8" stroke-linecap="round" stroke-linejoin="round"/></marker><marker id="arrow-circle-open" viewBox="0 0 12 12" refX="11" refY="6" markerWidth="12" markerHeight="12" markerUnits="userSpaceOnUse" orient="auto-start-reverse"><circle cx="6" cy="6" r="4" fill="#ffffff" stroke="#1e293b" stroke-width="1.5"/></marker><marker id="arrow-circle-filled" viewBox="0 0 12 12" refX="11" refY="6" markerWidth="12" markerHeight="12" markerUnits="userSpaceOnUse" orient="auto-start-reverse"><circle cx="6" cy="6" r="4" fill="#1e293b" stroke="#1e293b" stroke-width="1.5"/></marker><marker id="arrow-double-open" viewBox="0 0 16 12" refX="15" refY="6" markerWidth="16" markerHeight="12" markerUnits="userSpaceOnUse" orient="auto-start-reverse"><path d="M0,1 L8,6 L0,11 M7,1 L15,6 L7,11" fill="none" stroke="#1e293b" stroke-width="1.5" stroke-linejoin="round"/></marker></defs><text x="32" y="32" font-family="monospace" font-size="18" font-weight="600" fill="#0f172a">Actor generalization, system boundary, extend with conditions</text><path class="uml-relation" data-uml-from="U" data-uml-to="RU" data-uml-arrow="&lt;|--" d="M 858,182 C 858.0,186.7 884.0,193.7 858.0,196.0 C 832.0,198.3 728.0,177.0 702.0,196.0 C 676.0,215.0 702.0,272.0 702.0,310.0" fill="none" stroke="#1e293b" stroke-width="2" marker-start="url(#arrow-triangle)" /><path class="uml-relation" data-uml-from="RU" data-uml-to="PU" data-uml-arrow="&lt;|--" d="M 818,342 C 818.0,382.3 778.7,442.8 818.0,463.0 C 857.3,483.2 1014.7,451.2 1054.0,463.0 C 1093.3,474.8 1054.0,510.3 1054.0,534.0" fill="none" stroke="#1e293b" stroke-width="2" marker-start="url(#arrow-triangle)" /><path class="uml-relation" data-uml-from="U" data-uml-to="Admin" data-uml-arrow="&lt;|--" d="M 742,150 C 742.0,172.0 781.3,205.0 742.0,216.0 C 702.7,227.0 545.3,195.0 506.0,216.0 C 466.7,237.0 506.0,300.0 506.0,342.0" fill="none" stroke="#1e293b" stroke-width="2" marker-start="url(#arrow-triangle)" /><path class="uml-relation" data-uml-from="U" data-uml-to="UC1" data-uml-arrow="--&gt;" d="M 858,182 C 858.0,200.0 832.0,227.0 858.0,236.0 C 884.0,245.0 988.0,223.7 1014.0,236.0 C 1040.0,248.3 1014.0,285.3 1014.0,310.0" fill="none" stroke="#1e293b" stroke-width="2" marker-end="url(#arrow-open)" /><path class="uml-relation" data-uml-from="U" data-uml-to="UC2" data-uml-arrow="--&gt;" d="M 974,150 C 974.0,185.3 934.7,238.3 974.0,256.0 C 1013.3,273.7 1170.7,241.8 1210.0,256.0 C 1249.3,270.2 1210.0,312.7 1210.0,341.0" fill="none" stroke="#1e293b" stroke-width="2" marker-end="url(#arrow-open)" /><path class="uml-relation" data-uml-from="U" data-uml-to="UC3" data-uml-arrow="--&gt;" d="M 974,150 C 974.0,192.0 882.7,255.0 974.0,276.0 C 1065.3,297.0 1430.7,265.2 1522.0,276.0 C 1613.3,286.8 1522.0,319.3 1522.0,341.0" fill="none" stroke="#1e293b" stroke-width="2" marker-end="url(#arrow-open)" /><path class="uml-relation" data-uml-from="RU" data-uml-to="UC4" data-uml-arrow="--&gt;" d="M 702,374 C 702.0,407.0 676.0,456.5 702.0,473.0 C 728.0,489.5 832.0,436.2 858.0,473.0 C 884.0,509.8 858.0,620.3 858.0,694.0" fill="none" stroke="#1e293b" stroke-width="2" marker-end="url(#arrow-open)" /><path class="uml-relation" data-uml-from="RU" data-uml-to="UC5" data-uml-arrow="--&gt;" d="M 702,374 C 702.0,410.3 676.0,464.8 702.0,483.0 C 728.0,501.2 832.0,479.8 858.0,483.0 C 884.0,486.2 858.0,495.7 858.0,502.0" fill="none" stroke="#1e293b" stroke-width="2" marker-end="url(#arrow-open)" /><path class="uml-relation" data-uml-from="RU" data-uml-to="UC7" data-uml-arrow="--&gt;" d="M 818,342 C 818.0,392.3 726.7,467.8 818.0,493.0 C 909.3,518.2 1274.7,486.3 1366.0,493.0 C 1457.3,499.7 1366.0,519.7 1366.0,533.0" fill="none" stroke="#1e293b" stroke-width="2" marker-end="url(#arrow-open)" /><path class="uml-relation" data-uml-from="RU" data-uml-to="UC8" data-uml-arrow="--&gt;" d="M 818,342 C 818.0,392.3 674.7,467.8 818.0,493.0 C 961.3,518.2 1534.7,486.3 1678.0,493.0 C 1821.3,499.7 1678.0,519.7 1678.0,533.0" fill="none" stroke="#1e293b" stroke-width="2" marker-end="url(#arrow-open)" /><path class="uml-relation" data-uml-from="PU" data-uml-to="UC9" data-uml-arrow="--&gt;" d="M 1170,566 C 1170.0,587.3 1170.0,608.7 1170.0,630.0 C 1170.0,651.3 1170.0,672.7 1170.0,694.0" fill="none" stroke="#1e293b" stroke-width="2" marker-end="url(#arrow-open)" /><path class="uml-relation" data-uml-from="Admin" data-uml-to="UC10" data-uml-arrow="--&gt;" d="M 390,374 C 390.0,397.0 416.0,431.5 390.0,443.0 C 364.0,454.5 260.0,433.2 234.0,443.0 C 208.0,452.8 234.0,482.3 234.0,502.0" fill="none" stroke="#1e293b" stroke-width="2" marker-end="url(#arrow-open)" /><path class="uml-relation" data-uml-from="Admin" data-uml-to="UC11" data-uml-arrow="--&gt;" d="M 390,374 C 390.0,400.3 364.0,439.8 390.0,453.0 C 416.0,466.2 520.0,444.8 546.0,453.0 C 572.0,461.2 546.0,485.7 546.0,502.0" fill="none" stroke="#1e293b" stroke-width="2" marker-end="url(#arrow-open)" /><path class="uml-relation" data-uml-from="UC6" data-uml-to="UC5" data-uml-arrow=".&gt;" d="M 1170,180 C 1170.0,218.7 1222.0,276.7 1170.0,296.0 C 1118.0,315.3 910.0,261.7 858.0,296.0 C 806.0,330.3 858.0,433.3 858.0,502.0" fill="none" stroke="#1e293b" stroke-width="2" stroke-dasharray="5 3" marker-end="url(#arrow-open)" /><text class="uml-edge-label" data-uml-label-role="edge" x="1028" y="284" text-anchor="middle" font-family="monospace" font-size="11" fill="#334155">&lt;&lt;extend&gt;&gt;</text><path class="uml-relation" data-uml-from="UC5" data-uml-to="UC4" data-uml-arrow="..&gt;" d="M 858,564 C 858.0,585.7 858.0,607.3 858.0,629.0 C 858.0,650.7 858.0,672.3 858.0,694.0" fill="none" stroke="#1e293b" stroke-width="2" stroke-dasharray="5 3" marker-end="url(#arrow-open)" /><text class="uml-edge-label" data-uml-label-role="edge" x="872" y="649" text-anchor="middle" font-family="monospace" font-size="11" fill="#334155">&lt;&lt;include&gt;&gt;</text><rect class="uml-group-frame" data-uml-group="E-Commerce Platform" x="98" y="46" width="1832" height="730" rx="6" ry="6" fill="none" stroke="#6366f1" stroke-width="1.5" stroke-dasharray="5 3"/><rect x="98" y="46" width="168" height="24" rx="6" ry="6" fill="#ffffff" stroke="#6366f1" stroke-width="1.5"/><rect x="98" y="62" width="168" height="8" fill="#ffffff" stroke="none"/><text x="106" y="62" font-family="monospace" font-size="11" font-weight="600" fill="#4338ca">E-Commerce Platform</text><line x1="98" y1="70" x2="1930" y2="70" stroke="#6366f1" stroke-width="1"/><circle cx="858" cy="124" r="6" fill="none" stroke="#1e293b" stroke-width="1.5"/><line x1="858" y1="130" x2="858" y2="144" stroke="#1e293b" stroke-width="1.5"/><line x1="848" y1="134" x2="868" y2="134" stroke="#1e293b" stroke-width="1.5"/><line x1="858" y1="144" x2="850" y2="160" stroke="#1e293b" stroke-width="1.5"/><line x1="858" y1="144" x2="866" y2="160" stroke="#1e293b" stroke-width="1.5"/><text x="858" y="166" text-anchor="middle" font-family="monospace" font-size="13" font-weight="600" fill="#0f172a">User</text><circle cx="702" cy="316" r="6" fill="none" stroke="#1e293b" stroke-width="1.5"/><line x1="702" y1="322" x2="702" y2="336" stroke="#1e293b" stroke-width="1.5"/><line x1="692" y1="326" x2="712" y2="326" stroke="#1e293b" stroke-width="1.5"/><line x1="702" y1="336" x2="694" y2="352" stroke="#1e293b" stroke-width="1.5"/><line x1="702" y1="336" x2="710" y2="352" stroke="#1e293b" stroke-width="1.5"/><text x="702" y="358" text-anchor="middle" font-family="monospace" font-size="13" font-weight="600" fill="#0f172a">Registered User</text><circle cx="1170" cy="508" r="6" fill="none" stroke="#1e293b" stroke-width="1.5"/><line x1="1170" y1="514" x2="1170" y2="528" stroke="#1e293b" stroke-width="1.5"/><line x1="1160" y1="518" x2="1180" y2="518" stroke="#1e293b" stroke-width="1.5"/><line x1="1170" y1="528" x2="1162" y2="544" stroke="#1e293b" stroke-width="1.5"/><line x1="1170" y1="528" x2="1178" y2="544" stroke="#1e293b" stroke-width="1.5"/><text x="1170" y="550" text-anchor="middle" font-family="monospace" font-size="13" font-weight="600" fill="#0f172a">Premium User</text><circle cx="390" cy="316" r="6" fill="none" stroke="#1e293b" stroke-width="1.5"/><line x1="390" y1="322" x2="390" y2="336" stroke="#1e293b" stroke-width="1.5"/><line x1="380" y1="326" x2="400" y2="326" stroke="#1e293b" stroke-width="1.5"/><line x1="390" y1="336" x2="382" y2="352" stroke="#1e293b" stroke-width="1.5"/><line x1="390" y1="336" x2="398" y2="352" stroke="#1e293b" stroke-width="1.5"/><text x="390" y="358" text-anchor="middle" font-family="monospace" font-size="13" font-weight="600" fill="#0f172a">Administrator</text><ellipse cx="1014" cy="341" rx="116" ry="31" fill="#ffffff" stroke="#1e293b" stroke-width="1.5"/><text x="1014" y="345" text-anchor="middle" font-family="monospace" font-size="13" font-weight="600" fill="#0f172a">Browse Catalog</text><ellipse cx="1326" cy="341" rx="116" ry="31" fill="#ffffff" stroke="#1e293b" stroke-width="1.5"/><text x="1326" y="345" text-anchor="middle" font-family="monospace" font-size="13" font-weight="600" fill="#0f172a">Search Products</text><ellipse cx="1638" cy="341" rx="116" ry="31" fill="#ffffff" stroke="#1e293b" stroke-width="1.5"/><text x="1638" y="345" text-anchor="middle" font-family="monospace" font-size="13" font-weight="600" fill="#0f172a">View Product Detail</text><ellipse cx="858" cy="725" rx="116" ry="31" fill="#ffffff" stroke="#1e293b" stroke-width="1.5"/><text x="858" y="729" text-anchor="middle" font-family="monospace" font-size="13" font-weight="600" fill="#0f172a">Add to Cart</text><ellipse cx="858" cy="533" rx="116" ry="31" fill="#ffffff" stroke="#1e293b" stroke-width="1.5"/><text x="858" y="537" text-anchor="middle" font-family="monospace" font-size="13" font-weight="600" fill="#0f172a">Checkout</text><ellipse cx="1170" cy="149" rx="116" ry="31" fill="#ffffff" stroke="#1e293b" stroke-width="1.5"/><text x="1170" y="153" text-anchor="middle" font-family="monospace" font-size="13" font-weight="600" fill="#0f172a">Apply Promo Code</text><ellipse cx="1482" cy="533" rx="116" ry="31" fill="#ffffff" stroke="#1e293b" stroke-width="1.5"/><text x="1482" y="537" text-anchor="middle" font-family="monospace" font-size="13" font-weight="600" fill="#0f172a">Track Order</text><ellipse cx="1794" cy="533" rx="116" ry="31" fill="#ffffff" stroke="#1e293b" stroke-width="1.5"/><text x="1794" y="537" text-anchor="middle" font-family="monospace" font-size="13" font-weight="600" fill="#0f172a">Write Review</text><ellipse cx="1170" cy="725" rx="116" ry="31" fill="#ffffff" stroke="#1e293b" stroke-width="1.5"/><text x="1170" y="729" text-anchor="middle" font-family="monospace" font-size="13" font-weight="600" fill="#0f172a">Access Priority Support</text><ellipse cx="234" cy="533" rx="116" ry="31" fill="#ffffff" stroke="#1e293b" stroke-width="1.5"/><text x="234" y="537" text-anchor="middle" font-family="monospace" font-size="13" font-weight="600" fill="#0f172a">Manage Users</text><ellipse cx="546" cy="533" rx="116" ry="31" fill="#ffffff" stroke="#1e293b" stroke-width="1.5"/><text x="546" y="537" text-anchor="middle" font-family="monospace" font-size="13" font-weight="600" fill="#0f172a">View Analytics</text></svg>