<svg xmlns="http://www.w3.org/2000/svg" width="2006" height="764" viewBox="0 0 2006 764" data-orientation="TopToBottom"><rect width="100%" height="100%" fill="#ffffff"/><defs><marker id="arrow-open" viewBox="0 0 10 10" refX="9" refY="5" markerWidth="10" markerHeight="10" markerUnits="userSpaceOnUse" orient="auto-start-reverse"><path d="M0,0 L10,5 L0,10" fill="none" stroke="#1e293b" stroke-width="1.5"/></marker><marker id="arrow-triangle" viewBox="0 0 16 16" refX="15" refY="8" markerWidth="16" markerHeight="16" markerUnits="userSpaceOnUse" orient="auto-start-reverse"><polygon points="0,1 14,8 0,15" fill="#ffffff" stroke="#1e293b" stroke-width="1.5" fill-rule="nonzero"/></marker><marker id="arrow-diamond-filled" viewBox="0 0 14 10" refX="13" refY="5" markerWidth="14" markerHeight="10" markerUnits="userSpaceOnUse" orient="auto-start-reverse"><path d="M0,5 L7,0 L14,5 L7,10 z" fill="#1e293b" stroke="#1e293b" stroke-width="1"/></marker><marker id="arrow-diamond-open" viewBox="0 0 14 10" refX="13" refY="5" markerWidth="14" markerHeight="10" markerUnits="userSpaceOnUse" orient="auto-start-reverse"><path d="M0,5 L7,0 L14,5 L7,10 z" fill="#ffffff" stroke="#1e293b" stroke-width="1"/></marker></defs><defs><marker id="arrow-triangle-filled" viewBox="0 0 12 12" refX="11" refY="6" markerWidth="12" markerHeight="12" markerUnits="userSpaceOnUse" orient="auto-start-reverse"><polygon points="0,0 12,6 0,12" fill="#1e293b" stroke="#1e293b" stroke-width="1.5"/></marker><marker id="arrow-box-filled" viewBox="0 0 12 12" refX="11" refY="6" markerWidth="12" markerHeight="12" markerUnits="userSpaceOnUse" orient="auto-start-reverse"><rect x="2" y="2" width="8" height="8" fill="#1e293b" stroke="#1e293b" stroke-width="1.5"/></marker><marker id="arrow-plus" viewBox="0 0 12 12" refX="11" refY="6" markerWidth="12" markerHeight="12" markerUnits="userSpaceOnUse" orient="auto-start-reverse"><path d="M6,1 L6,11 M1,6 L11,6" fill="none" stroke="#1e293b" stroke-width="1.8" stroke-linecap="round"/></marker><marker id="arrow-cross" viewBox="0 0 12 12" refX="11" refY="6" markerWidth="12" markerHeight="12" markerUnits="userSpaceOnUse" orient="auto-start-reverse"><path d="M2,2 L10,10 M10,2 L2,10" fill="none" stroke="#1e293b" stroke-width="1.8" stroke-linecap="round"/></marker><marker id="arrow-bracket-open" viewBox="0 0 12 14" refX="11" refY="7" markerWidth="12" markerHeight="14" markerUnits="userSpaceOnUse" orient="auto-start-reverse"><path d="M10,1 L4,1 L4,13 L10,13" fill="none" stroke="#1e293b" stroke-width="1.8" stroke-linecap="round" stroke-linejoin="round"/></marker><marker id="arrow-circle-open" viewBox="0 0 12 12" refX="11" refY="6" markerWidth="12" markerHeight="12" markerUnits="userSpaceOnUse" orient="auto-start-reverse"><circle cx="6" cy="6" r="4" fill="#ffffff" stroke="#1e293b" stroke-width="1.5"/></marker><marker id="arrow-circle-filled" viewBox="0 0 12 12" refX="11" refY="6" markerWidth="12" markerHeight="12" markerUnits="userSpaceOnUse" orient="auto-start-reverse"><circle cx="6" cy="6" r="4" fill="#1e293b" stroke="#1e293b" stroke-width="1.5"/></marker><marker id="arrow-double-open" viewBox="0 0 16 12" refX="15" refY="6" markerWidth="16" markerHeight="12" markerUnits="userSpaceOnUse" orient="auto-start-reverse"><path d="M0,1 L8,6 L0,11 M7,1 L15,6 L7,11" fill="none" stroke="#1e293b" stroke-width="1.5" stroke-linejoin="round"/></marker></defs><text x="32" y="32" font-family="monospace" font-size="18" font-weight="600" fill="#0f172a">Actor generalization, system boundary, extend with conditions</text><line class="uml-relation" data-uml-from="U" data-uml-to="RU" x1="858" y1="182" x2="702" y2="260" stroke="#1e293b" stroke-width="2" marker-start="url(#arrow-triangle)"/><line class="uml-relation" data-uml-from="RU" data-uml-to="PU" x1="702" y1="324" x2="1170" y2="402" stroke="#1e293b" stroke-width="2" marker-start="url(#arrow-triangle)"/><line class="uml-relation" data-uml-from="U" data-uml-to="Admin" x1="858" y1="182" x2="390" y2="260" stroke="#1e293b" stroke-width="2" marker-start="url(#arrow-triangle)"/><polyline class="uml-relation" data-uml-from="U" data-uml-to="UC1" data-uml-arrow="--&gt;" points="974,150 974,215 898,215 898,291" fill="none" stroke="#1e293b" stroke-width="2" marker-end="url(#arrow-open)" /><polyline class="uml-relation" data-uml-from="U" data-uml-to="UC2" data-uml-arrow="--&gt;" points="974,150 974,226 1210,226 1210,291" fill="none" stroke="#1e293b" stroke-width="2" marker-end="url(#arrow-open)" /><polyline class="uml-relation" data-uml-from="U" data-uml-to="UC3" data-uml-arrow="--&gt;" points="974,150 974,238 1522,238 1522,291" fill="none" stroke="#1e293b" stroke-width="2" marker-end="url(#arrow-open)" /><polyline class="uml-relation" data-uml-from="RU" data-uml-to="UC4" data-uml-arrow="--&gt;" points="702,324 702,391 858,391 858,544" fill="none" stroke="#1e293b" stroke-width="2" marker-end="url(#arrow-open)" /><polyline class="uml-relation" data-uml-from="RU" data-uml-to="UC5" data-uml-arrow="--&gt;" points="818,292 818,398 742,398 742,433" fill="none" stroke="#1e293b" stroke-width="2" marker-end="url(#arrow-open)" /><polyline class="uml-relation" data-uml-from="RU" data-uml-to="UC7" data-uml-arrow="--&gt;" points="818,292 818,398 1366,398 1366,433" fill="none" stroke="#1e293b" stroke-width="2" marker-end="url(#arrow-open)" /><polyline class="uml-relation" data-uml-from="RU" data-uml-to="UC8" data-uml-arrow="--&gt;" points="818,292 818,398 1678,398 1678,433" fill="none" stroke="#1e293b" stroke-width="2" marker-end="url(#arrow-open)" /><polyline class="uml-relation" data-uml-from="PU" data-uml-to="UC9" data-uml-arrow="--&gt;" points="1170,466 1170,540 1170,544" fill="none" stroke="#1e293b" stroke-width="2" marker-end="url(#arrow-open)" /><polyline class="uml-relation" data-uml-from="Admin" data-uml-to="UC10" data-uml-arrow="--&gt;" points="274,292 274,367 350,367 350,433" fill="none" stroke="#1e293b" stroke-width="2" marker-end="url(#arrow-open)" /><polyline class="uml-relation" data-uml-from="Admin" data-uml-to="UC11" data-uml-arrow="--&gt;" points="506,292 506,375 430,375 430,433" fill="none" stroke="#1e293b" stroke-width="2" marker-end="url(#arrow-open)" /><polyline class="uml-relation" data-uml-from="UC6" data-uml-to="UC5" data-uml-arrow=".&gt;" points="1054,149 1054,250 974,250 974,433" fill="none" stroke="#1e293b" stroke-width="2" stroke-dasharray="5 3" marker-end="url(#arrow-open)" /><rect class="uml-edge-label-bg" data-uml-label-role="edge-background" x="951" y="316" width="74" height="18" fill="white" opacity="0.85"/><rect class="uml-edge-label-bg" data-uml-label-role="edge-background" x="951" y="316" width="74" height="18" fill="white" opacity="0.85"/><text class="uml-edge-label" data-uml-label-role="edge" x="988" y="329" text-anchor="middle" font-family="monospace" font-size="11" fill="#334155">&lt;&lt;extend&gt;&gt;</text><polyline class="uml-relation" data-uml-from="UC5" data-uml-to="UC4" data-uml-arrow="..&gt;" points="858,464 858,540 858,544" fill="none" stroke="#1e293b" stroke-width="2" stroke-dasharray="5 3" marker-end="url(#arrow-open)" /><rect class="uml-edge-label-bg" data-uml-label-role="edge-background" x="832" y="477" width="80" height="18" fill="white" opacity="0.85"/><rect class="uml-edge-label-bg" data-uml-label-role="edge-background" x="832" y="477" width="80" height="18" fill="white" opacity="0.85"/><text class="uml-edge-label" data-uml-label-role="edge" x="872" y="490" text-anchor="middle" font-family="monospace" font-size="11" fill="#334155">&lt;&lt;include&gt;&gt;</text><rect class="uml-group-frame" data-uml-group="E-Commerce Platform" x="98" y="46" width="1832" height="580" rx="6" ry="6" fill="none" stroke="#6366f1" stroke-width="1.5" stroke-dasharray="5 3"/><rect x="98" y="46" width="168" height="24" rx="6" ry="6" fill="#ffffff" stroke="#6366f1" stroke-width="1.5"/><rect x="98" y="62" width="168" height="8" fill="#ffffff" stroke="none"/><text x="106" y="62" font-family="monospace" font-size="11" font-weight="600" fill="#4338ca">E-Commerce Platform</text><line x1="98" y1="70" x2="1930" y2="70" stroke="#6366f1" stroke-width="1"/><circle cx="858" cy="124" r="6" fill="none" stroke="#1e293b" stroke-width="1.5"/><line x1="858" y1="130" x2="858" y2="144" stroke="#1e293b" stroke-width="1.5"/><line x1="848" y1="134" x2="868" y2="134" stroke="#1e293b" stroke-width="1.5"/><line x1="858" y1="144" x2="850" y2="160" stroke="#1e293b" stroke-width="1.5"/><line x1="858" y1="144" x2="866" y2="160" stroke="#1e293b" stroke-width="1.5"/><text x="858" y="166" text-anchor="middle" font-family="monospace" font-size="13" font-weight="600" fill="#0f172a">User</text><circle cx="702" cy="266" r="6" fill="none" stroke="#1e293b" stroke-width="1.5"/><line x1="702" y1="272" x2="702" y2="286" stroke="#1e293b" stroke-width="1.5"/><line x1="692" y1="276" x2="712" y2="276" stroke="#1e293b" stroke-width="1.5"/><line x1="702" y1="286" x2="694" y2="302" stroke="#1e293b" stroke-width="1.5"/><line x1="702" y1="286" x2="710" y2="302" stroke="#1e293b" stroke-width="1.5"/><text x="702" y="308" text-anchor="middle" font-family="monospace" font-size="13" font-weight="600" fill="#0f172a">Registered User</text><circle cx="1170" cy="408" r="6" fill="none" stroke="#1e293b" stroke-width="1.5"/><line x1="1170" y1="414" x2="1170" y2="428" stroke="#1e293b" stroke-width="1.5"/><line x1="1160" y1="418" x2="1180" y2="418" stroke="#1e293b" stroke-width="1.5"/><line x1="1170" y1="428" x2="1162" y2="444" stroke="#1e293b" stroke-width="1.5"/><line x1="1170" y1="428" x2="1178" y2="444" stroke="#1e293b" stroke-width="1.5"/><text x="1170" y="450" text-anchor="middle" font-family="monospace" font-size="13" font-weight="600" fill="#0f172a">Premium User</text><circle cx="390" cy="266" r="6" fill="none" stroke="#1e293b" stroke-width="1.5"/><line x1="390" y1="272" x2="390" y2="286" stroke="#1e293b" stroke-width="1.5"/><line x1="380" y1="276" x2="400" y2="276" stroke="#1e293b" stroke-width="1.5"/><line x1="390" y1="286" x2="382" y2="302" stroke="#1e293b" stroke-width="1.5"/><line x1="390" y1="286" x2="398" y2="302" stroke="#1e293b" stroke-width="1.5"/><text x="390" y="308" text-anchor="middle" font-family="monospace" font-size="13" font-weight="600" fill="#0f172a">Administrator</text><ellipse cx="1014" cy="291" rx="116" ry="31" fill="#ffffff" stroke="#1e293b" stroke-width="1.5"/><text x="1014" y="295" text-anchor="middle" font-family="monospace" font-size="13" font-weight="600" fill="#0f172a">Browse Catalog</text><ellipse cx="1326" cy="291" rx="116" ry="31" fill="#ffffff" stroke="#1e293b" stroke-width="1.5"/><text x="1326" y="295" text-anchor="middle" font-family="monospace" font-size="13" font-weight="600" fill="#0f172a">Search Products</text><ellipse cx="1638" cy="291" rx="116" ry="31" fill="#ffffff" stroke="#1e293b" stroke-width="1.5"/><text x="1638" y="295" text-anchor="middle" font-family="monospace" font-size="13" font-weight="600" fill="#0f172a">View Product Detail</text><ellipse cx="858" cy="575" rx="116" ry="31" fill="#ffffff" stroke="#1e293b" stroke-width="1.5"/><text x="858" y="579" text-anchor="middle" font-family="monospace" font-size="13" font-weight="600" fill="#0f172a">Add to Cart</text><ellipse cx="858" cy="433" rx="116" ry="31" fill="#ffffff" stroke="#1e293b" stroke-width="1.5"/><text x="858" y="437" text-anchor="middle" font-family="monospace" font-size="13" font-weight="600" fill="#0f172a">Checkout</text><ellipse cx="1170" cy="149" rx="116" ry="31" fill="#ffffff" stroke="#1e293b" stroke-width="1.5"/><text x="1170" y="153" text-anchor="middle" font-family="monospace" font-size="13" font-weight="600" fill="#0f172a">Apply Promo Code</text><ellipse cx="1482" cy="433" rx="116" ry="31" fill="#ffffff" stroke="#1e293b" stroke-width="1.5"/><text x="1482" y="437" text-anchor="middle" font-family="monospace" font-size="13" font-weight="600" fill="#0f172a">Track Order</text><ellipse cx="1794" cy="433" rx="116" ry="31" fill="#ffffff" stroke="#1e293b" stroke-width="1.5"/><text x="1794" y="437" text-anchor="middle" font-family="monospace" font-size="13" font-weight="600" fill="#0f172a">Write Review</text><ellipse cx="1170" cy="575" rx="116" ry="31" fill="#ffffff" stroke="#1e293b" stroke-width="1.5"/><text x="1170" y="579" text-anchor="middle" font-family="monospace" font-size="13" font-weight="600" fill="#0f172a">Access Priority Support</text><ellipse cx="234" cy="433" rx="116" ry="31" fill="#ffffff" stroke="#1e293b" stroke-width="1.5"/><text x="234" y="437" text-anchor="middle" font-family="monospace" font-size="13" font-weight="600" fill="#0f172a">Manage Users</text><ellipse cx="546" cy="433" rx="116" ry="31" fill="#ffffff" stroke="#1e293b" stroke-width="1.5"/><text x="546" y="437" text-anchor="middle" font-family="monospace" font-size="13" font-weight="600" fill="#0f172a">View Analytics</text></svg>