<svg xmlns="http://www.w3.org/2000/svg" width="2060" height="914" viewBox="0 0 2060 914"><rect width="100%" height="100%" fill="#ffffff"/><defs><marker id="arrow-open" viewBox="0 0 10 10" refX="9" refY="5" markerWidth="10" markerHeight="10" markerUnits="userSpaceOnUse" orient="auto-start-reverse"><path d="M0,0 L10,5 L0,10" fill="none" stroke="#1e293b" stroke-width="1.5"/></marker><marker id="arrow-triangle" viewBox="0 0 16 16" refX="15" refY="8" markerWidth="16" markerHeight="16" markerUnits="userSpaceOnUse" orient="auto-start-reverse"><polygon points="0,1 14,8 0,15" fill="#ffffff" stroke="#1e293b" stroke-width="1.5" fill-rule="nonzero"/></marker><marker id="arrow-diamond-filled" viewBox="0 0 14 10" refX="13" refY="5" markerWidth="14" markerHeight="10" markerUnits="userSpaceOnUse" orient="auto-start-reverse"><path d="M0,5 L7,0 L14,5 L7,10 z" fill="#1e293b" stroke="#1e293b" stroke-width="1"/></marker><marker id="arrow-diamond-open" viewBox="0 0 14 10" refX="13" refY="5" markerWidth="14" markerHeight="10" markerUnits="userSpaceOnUse" orient="auto-start-reverse"><path d="M0,5 L7,0 L14,5 L7,10 z" fill="#ffffff" stroke="#1e293b" stroke-width="1"/></marker></defs><text x="32" y="32" font-family="monospace" font-size="18" font-weight="600" fill="#0f172a">Actor generalization, system boundary, extend with conditions</text><polyline class="uml-relation" data-uml-from="U" data-uml-to="RU" data-uml-arrow="&lt;|--" points="858,182 858,226 702,226 702,310" fill="none" stroke="#1e293b" stroke-width="2" marker-start="url(#arrow-triangle)" /><polyline class="uml-relation" data-uml-from="RU" data-uml-to="PU" data-uml-arrow="&lt;|--" points="702,374 702,458 546,458 546,502" fill="none" stroke="#1e293b" stroke-width="2" marker-start="url(#arrow-triangle)" /><polyline class="uml-relation" data-uml-from="U" data-uml-to="Admin" data-uml-arrow="&lt;|--" points="858,182 858,234 390,234 390,310" fill="none" stroke="#1e293b" stroke-width="2" marker-start="url(#arrow-triangle)" /><polyline class="uml-relation" data-uml-from="U" data-uml-to="UC1" data-uml-arrow="--&gt;" points="858,182 858,242 1014,242 1014,310" fill="none" stroke="#1e293b" stroke-width="2" marker-end="url(#arrow-open)" /><polyline class="uml-relation" data-uml-from="U" data-uml-to="UC2" data-uml-arrow="--&gt;" points="858,182 858,250 1326,250 1326,310" fill="none" stroke="#1e293b" stroke-width="2" marker-end="url(#arrow-open)" /><polyline class="uml-relation" data-uml-from="U" data-uml-to="UC3" data-uml-arrow="--&gt;" points="858,182 858,258 1638,258 1638,310" fill="none" stroke="#1e293b" stroke-width="2" marker-end="url(#arrow-open)" /><polyline class="uml-relation" data-uml-from="RU" data-uml-to="UC4" data-uml-arrow="--&gt;" points="702,374 702,466 858,466 858,694" fill="none" stroke="#1e293b" stroke-width="2" marker-end="url(#arrow-open)" /><polyline class="uml-relation" data-uml-from="RU" data-uml-to="UC5" data-uml-arrow="--&gt;" points="702,374 702,474 234,474 234,502" fill="none" stroke="#1e293b" stroke-width="2" marker-end="url(#arrow-open)" /><polyline class="uml-relation" data-uml-from="RU" data-uml-to="UC7" data-uml-arrow="--&gt;" points="702,374 702,482 1482,482 1482,502" fill="none" stroke="#1e293b" stroke-width="2" marker-end="url(#arrow-open)" /><polyline class="uml-relation" data-uml-from="RU" data-uml-to="UC8" data-uml-arrow="--&gt;" points="702,374 702,482 1794,482 1794,502" fill="none" stroke="#1e293b" stroke-width="2" marker-end="url(#arrow-open)" /><polyline class="uml-relation" data-uml-from="PU" data-uml-to="UC9" data-uml-arrow="--&gt;" points="546,566 546,674 1170,674 1170,694" fill="none" stroke="#1e293b" stroke-width="2" marker-end="url(#arrow-open)" /><polyline class="uml-relation" data-uml-from="Admin" data-uml-to="UC10" data-uml-arrow="--&gt;" points="390,374 390,442 858,442 858,502" fill="none" stroke="#1e293b" stroke-width="2" marker-end="url(#arrow-open)" /><polyline class="uml-relation" data-uml-from="Admin" data-uml-to="UC11" data-uml-arrow="--&gt;" points="390,374 390,450 1170,450 1170,502" fill="none" stroke="#1e293b" stroke-width="2" marker-end="url(#arrow-open)" /><polyline class="uml-relation" data-uml-from="UC6" data-uml-to="UC5" data-uml-arrow=".&gt;" points="1170,180 1170,266 234,266 234,502" fill="none" stroke="#1e293b" stroke-width="2" stroke-dasharray="5 3" marker-end="url(#arrow-open)" /><text x="702" y="240" text-anchor="middle" font-family="monospace" font-size="11" fill="#334155">&lt;&lt;extend&gt;&gt;</text><polyline class="uml-relation" data-uml-from="UC5" data-uml-to="UC4" data-uml-arrow="..&gt;" points="234,564 234,666 858,666 858,694" fill="none" stroke="#1e293b" stroke-width="2" stroke-dasharray="5 3" marker-end="url(#arrow-open)" /><text x="546" y="640" text-anchor="middle" font-family="monospace" font-size="11" fill="#334155">&lt;&lt;include&gt;&gt;</text><rect class="uml-group-frame" data-uml-group="E-Commerce Platform" x="98" y="46" width="1832" height="730" rx="6" ry="6" fill="none" stroke="#6366f1" stroke-width="1.5" stroke-dasharray="5 3"/><rect x="98" y="46" width="168" height="24" rx="6" ry="6" fill="#ffffff" stroke="#6366f1" stroke-width="1.5"/><rect x="98" y="62" width="168" height="8" fill="#ffffff" stroke="none"/><text x="106" y="62" font-family="monospace" font-size="11" font-weight="600" fill="#4338ca">E-Commerce Platform</text><line x1="98" y1="70" x2="1930" y2="70" stroke="#6366f1" stroke-width="1"/><circle cx="858" cy="124" r="6" fill="none" stroke="#1e293b" stroke-width="1.5"/><line x1="858" y1="130" x2="858" y2="144" stroke="#1e293b" stroke-width="1.5"/><line x1="848" y1="134" x2="868" y2="134" stroke="#1e293b" stroke-width="1.5"/><line x1="858" y1="144" x2="850" y2="160" stroke="#1e293b" stroke-width="1.5"/><line x1="858" y1="144" x2="866" y2="160" stroke="#1e293b" stroke-width="1.5"/><text x="858" y="166" text-anchor="middle" font-family="monospace" font-size="13" font-weight="600" fill="#0f172a">User</text><circle cx="702" cy="316" r="6" fill="none" stroke="#1e293b" stroke-width="1.5"/><line x1="702" y1="322" x2="702" y2="336" stroke="#1e293b" stroke-width="1.5"/><line x1="692" y1="326" x2="712" y2="326" stroke="#1e293b" stroke-width="1.5"/><line x1="702" y1="336" x2="694" y2="352" stroke="#1e293b" stroke-width="1.5"/><line x1="702" y1="336" x2="710" y2="352" stroke="#1e293b" stroke-width="1.5"/><text x="702" y="358" text-anchor="middle" font-family="monospace" font-size="13" font-weight="600" fill="#0f172a">Registered User</text><circle cx="546" cy="508" r="6" fill="none" stroke="#1e293b" stroke-width="1.5"/><line x1="546" y1="514" x2="546" y2="528" stroke="#1e293b" stroke-width="1.5"/><line x1="536" y1="518" x2="556" y2="518" stroke="#1e293b" stroke-width="1.5"/><line x1="546" y1="528" x2="538" y2="544" stroke="#1e293b" stroke-width="1.5"/><line x1="546" y1="528" x2="554" y2="544" stroke="#1e293b" stroke-width="1.5"/><text x="546" y="550" text-anchor="middle" font-family="monospace" font-size="13" font-weight="600" fill="#0f172a">Premium User</text><circle cx="390" cy="316" r="6" fill="none" stroke="#1e293b" stroke-width="1.5"/><line x1="390" y1="322" x2="390" y2="336" stroke="#1e293b" stroke-width="1.5"/><line x1="380" y1="326" x2="400" y2="326" stroke="#1e293b" stroke-width="1.5"/><line x1="390" y1="336" x2="382" y2="352" stroke="#1e293b" stroke-width="1.5"/><line x1="390" y1="336" x2="398" y2="352" stroke="#1e293b" stroke-width="1.5"/><text x="390" y="358" text-anchor="middle" font-family="monospace" font-size="13" font-weight="600" fill="#0f172a">Administrator</text><ellipse cx="1014" cy="341" rx="116" ry="31" fill="#ffffff" stroke="#1e293b" stroke-width="1.5"/><text x="1014" y="345" text-anchor="middle" font-family="monospace" font-size="13" font-weight="600" fill="#0f172a">Browse Catalog</text><ellipse cx="1326" cy="341" rx="116" ry="31" fill="#ffffff" stroke="#1e293b" stroke-width="1.5"/><text x="1326" y="345" text-anchor="middle" font-family="monospace" font-size="13" font-weight="600" fill="#0f172a">Search Products</text><ellipse cx="1638" cy="341" rx="116" ry="31" fill="#ffffff" stroke="#1e293b" stroke-width="1.5"/><text x="1638" y="345" text-anchor="middle" font-family="monospace" font-size="13" font-weight="600" fill="#0f172a">View Product Detail</text><ellipse cx="858" cy="725" rx="116" ry="31" fill="#ffffff" stroke="#1e293b" stroke-width="1.5"/><text x="858" y="729" text-anchor="middle" font-family="monospace" font-size="13" font-weight="600" fill="#0f172a">Add to Cart</text><ellipse cx="234" cy="533" rx="116" ry="31" fill="#ffffff" stroke="#1e293b" stroke-width="1.5"/><text x="234" y="537" text-anchor="middle" font-family="monospace" font-size="13" font-weight="600" fill="#0f172a">Checkout</text><ellipse cx="1170" cy="149" rx="116" ry="31" fill="#ffffff" stroke="#1e293b" stroke-width="1.5"/><text x="1170" y="153" text-anchor="middle" font-family="monospace" font-size="13" font-weight="600" fill="#0f172a">Apply Promo Code</text><ellipse cx="1482" cy="533" rx="116" ry="31" fill="#ffffff" stroke="#1e293b" stroke-width="1.5"/><text x="1482" y="537" text-anchor="middle" font-family="monospace" font-size="13" font-weight="600" fill="#0f172a">Track Order</text><ellipse cx="1794" cy="533" rx="116" ry="31" fill="#ffffff" stroke="#1e293b" stroke-width="1.5"/><text x="1794" y="537" text-anchor="middle" font-family="monospace" font-size="13" font-weight="600" fill="#0f172a">Write Review</text><ellipse cx="1170" cy="725" rx="116" ry="31" fill="#ffffff" stroke="#1e293b" stroke-width="1.5"/><text x="1170" y="729" text-anchor="middle" font-family="monospace" font-size="13" font-weight="600" fill="#0f172a">Access Priority Support</text><ellipse cx="858" cy="533" rx="116" ry="31" fill="#ffffff" stroke="#1e293b" stroke-width="1.5"/><text x="858" y="537" text-anchor="middle" font-family="monospace" font-size="13" font-weight="600" fill="#0f172a">Manage Users</text><ellipse cx="1170" cy="533" rx="116" ry="31" fill="#ffffff" stroke="#1e293b" stroke-width="1.5"/><text x="1170" y="537" text-anchor="middle" font-family="monospace" font-size="13" font-weight="600" fill="#0f172a">View Analytics</text></svg>