<svg xmlns="http://www.w3.org/2000/svg" width="1514" height="860" viewBox="0 0 1514 860" data-orientation="TopToBottom"><rect width="100%" height="100%" fill="#ffffff"/><defs><marker id="arrow-open" viewBox="0 0 10 10" refX="9" refY="5" markerWidth="10" markerHeight="10" markerUnits="userSpaceOnUse" orient="auto-start-reverse"><path d="M0,0 L10,5 L0,10" fill="none" stroke="#1e293b" stroke-width="1.5"/></marker><marker id="arrow-triangle" viewBox="0 0 16 16" refX="15" refY="8" markerWidth="16" markerHeight="16" markerUnits="userSpaceOnUse" orient="auto-start-reverse"><polygon points="0,1 14,8 0,15" fill="#ffffff" stroke="#1e293b" stroke-width="1.5" fill-rule="nonzero"/></marker><marker id="arrow-diamond-filled" viewBox="0 0 14 10" refX="13" refY="5" markerWidth="14" markerHeight="10" markerUnits="userSpaceOnUse" orient="auto-start-reverse"><path d="M0,5 L7,0 L14,5 L7,10 z" fill="#1e293b" stroke="#1e293b" stroke-width="1"/></marker><marker id="arrow-diamond-open" viewBox="0 0 14 10" refX="13" refY="5" markerWidth="14" markerHeight="10" markerUnits="userSpaceOnUse" orient="auto-start-reverse"><path d="M0,5 L7,0 L14,5 L7,10 z" fill="#ffffff" stroke="#1e293b" stroke-width="1"/></marker></defs><defs><marker id="arrow-triangle-filled" viewBox="0 0 12 12" refX="11" refY="6" markerWidth="12" markerHeight="12" markerUnits="userSpaceOnUse" orient="auto-start-reverse"><polygon points="0,0 12,6 0,12" fill="#1e293b" stroke="#1e293b" stroke-width="1.5"/></marker><marker id="arrow-box-filled" viewBox="0 0 12 12" refX="11" refY="6" markerWidth="12" markerHeight="12" markerUnits="userSpaceOnUse" orient="auto-start-reverse"><rect x="2" y="2" width="8" height="8" fill="#1e293b" stroke="#1e293b" stroke-width="1.5"/></marker><marker id="arrow-plus" viewBox="0 0 12 12" refX="11" refY="6" markerWidth="12" markerHeight="12" markerUnits="userSpaceOnUse" orient="auto-start-reverse"><path d="M6,1 L6,11 M1,6 L11,6" fill="none" stroke="#1e293b" stroke-width="1.8" stroke-linecap="round"/></marker><marker id="arrow-cross" viewBox="0 0 12 12" refX="11" refY="6" markerWidth="12" markerHeight="12" markerUnits="userSpaceOnUse" orient="auto-start-reverse"><path d="M2,2 L10,10 M10,2 L2,10" fill="none" stroke="#1e293b" stroke-width="1.8" stroke-linecap="round"/></marker><marker id="arrow-bracket-open" viewBox="0 0 12 14" refX="11" refY="7" markerWidth="12" markerHeight="14" markerUnits="userSpaceOnUse" orient="auto-start-reverse"><path d="M10,1 L4,1 L4,13 L10,13" fill="none" stroke="#1e293b" stroke-width="1.8" stroke-linecap="round" stroke-linejoin="round"/></marker><marker id="arrow-circle-open" viewBox="0 0 12 12" refX="11" refY="6" markerWidth="12" markerHeight="12" markerUnits="userSpaceOnUse" orient="auto-start-reverse"><circle cx="6" cy="6" r="4" fill="#ffffff" stroke="#1e293b" stroke-width="1.5"/></marker><marker id="arrow-circle-filled" viewBox="0 0 12 12" refX="11" refY="6" markerWidth="12" markerHeight="12" markerUnits="userSpaceOnUse" orient="auto-start-reverse"><circle cx="6" cy="6" r="4" fill="#1e293b" stroke="#1e293b" stroke-width="1.5"/></marker><marker id="arrow-double-open" viewBox="0 0 16 12" refX="15" refY="6" markerWidth="16" markerHeight="12" markerUnits="userSpaceOnUse" orient="auto-start-reverse"><path d="M0,1 L8,6 L0,11 M7,1 L15,6 L7,11" fill="none" stroke="#1e293b" stroke-width="1.5" stroke-linejoin="round"/></marker></defs><text x="32" y="32" font-family="monospace" font-size="18" font-weight="600" fill="#0f172a">Actor generalization, system boundary, extend with conditions</text><line class="uml-relation" data-uml-from="U" data-uml-to="RU" x1="653" y1="182" x2="538" y2="292" stroke="#1e293b" stroke-width="2" marker-start="url(#arrow-triangle)"/><line class="uml-relation" data-uml-from="RU" data-uml-to="PU" x1="538" y1="356" x2="883" y2="466" stroke="#1e293b" stroke-width="2" marker-start="url(#arrow-triangle)"/><line class="uml-relation" data-uml-from="U" data-uml-to="Admin" x1="653" y1="182" x2="308" y2="292" stroke="#1e293b" stroke-width="2" marker-start="url(#arrow-triangle)"/><polyline class="uml-relation" data-uml-from="U" data-uml-to="UC1" data-uml-arrow="--&gt;" points="653,182 653,228 768,228 768,292" fill="none" stroke="#1e293b" stroke-width="2" marker-end="url(#arrow-open)" /><polyline class="uml-relation" data-uml-from="U" data-uml-to="UC2" data-uml-arrow="--&gt;" points="728,150 728,245 923,245 923,323" fill="none" stroke="#1e293b" stroke-width="2" marker-end="url(#arrow-open)" /><polyline class="uml-relation" data-uml-from="U" data-uml-to="UC3" data-uml-arrow="--&gt;" points="728,150 728,262 1153,262 1153,323" fill="none" stroke="#1e293b" stroke-width="2" marker-end="url(#arrow-open)" /><polyline class="uml-relation" data-uml-from="RU" data-uml-to="UC4" data-uml-arrow="--&gt;" points="538,356 538,440 653,440 653,640" fill="none" stroke="#1e293b" stroke-width="2" marker-end="url(#arrow-open)" /><polyline class="uml-relation" data-uml-from="RU" data-uml-to="UC5" data-uml-arrow="--&gt;" points="538,356 538,449 653,449 653,466" fill="none" stroke="#1e293b" stroke-width="2" marker-end="url(#arrow-open)" /><polyline class="uml-relation" data-uml-from="RU" data-uml-to="UC7" data-uml-arrow="--&gt;" points="613,324 613,457 1038,457 1038,497" fill="none" stroke="#1e293b" stroke-width="2" marker-end="url(#arrow-open)" /><polyline class="uml-relation" data-uml-from="RU" data-uml-to="UC8" data-uml-arrow="--&gt;" points="613,324 613,457 1268,457 1268,497" fill="none" stroke="#1e293b" stroke-width="2" marker-end="url(#arrow-open)" /><polyline class="uml-relation" data-uml-from="PU" data-uml-to="UC9" data-uml-arrow="--&gt;" points="883,530 883,631 883,640" fill="none" stroke="#1e293b" stroke-width="2" marker-end="url(#arrow-open)" /><polyline class="uml-relation" data-uml-from="Admin" data-uml-to="UC10" data-uml-arrow="--&gt;" points="308,356 308,415 193,415 193,466" fill="none" stroke="#1e293b" stroke-width="2" marker-end="url(#arrow-open)" /><polyline class="uml-relation" data-uml-from="Admin" data-uml-to="UC11" data-uml-arrow="--&gt;" points="308,356 308,423 423,423 423,466" fill="none" stroke="#1e293b" stroke-width="2" marker-end="url(#arrow-open)" /><polyline class="uml-relation" data-uml-from="UC6" data-uml-to="UC5" data-uml-arrow=".&gt;" points="883,180 883,279 653,279 653,466" fill="none" stroke="#1e293b" stroke-width="2" stroke-dasharray="5 3" marker-end="url(#arrow-open)" /><rect class="uml-edge-label-bg" data-uml-label-role="edge-background" x="745" y="254" width="74" height="18" fill="white" opacity="0.85"/><rect class="uml-edge-label-bg" data-uml-label-role="edge-background" x="745" y="254" width="74" height="18" fill="white" opacity="0.85"/><text class="uml-edge-label" data-uml-label-role="edge" x="782" y="267" text-anchor="middle" font-family="monospace" font-size="11" fill="#334155">&lt;&lt;extend&gt;&gt;</text><polyline class="uml-relation" data-uml-from="UC5" data-uml-to="UC4" data-uml-arrow="..&gt;" points="653,528 653,623 653,640" fill="none" stroke="#1e293b" stroke-width="2" stroke-dasharray="5 3" marker-end="url(#arrow-open)" /><rect class="uml-edge-label-bg" data-uml-label-role="edge-background" x="627" y="550" width="80" height="18" fill="white" opacity="0.85"/><rect class="uml-edge-label-bg" data-uml-label-role="edge-background" x="627" y="550" width="80" height="18" fill="white" opacity="0.85"/><text class="uml-edge-label" data-uml-label-role="edge" x="667" y="563" text-anchor="middle" font-family="monospace" font-size="11" fill="#334155">&lt;&lt;include&gt;&gt;</text><rect class="uml-group-frame" data-uml-group="E-Commerce Platform" x="98" y="46" width="1340" height="676" rx="6" ry="6" fill="none" stroke="#6366f1" stroke-width="1.5" stroke-dasharray="5 3"/><rect x="98" y="46" width="168" height="24" rx="6" ry="6" fill="#ffffff" stroke="#6366f1" stroke-width="1.5"/><rect x="98" y="62" width="168" height="8" fill="#ffffff" stroke="none"/><text x="106" y="62" font-family="monospace" font-size="11" font-weight="600" fill="#4338ca">E-Commerce Platform</text><line x1="98" y1="70" x2="1438" y2="70" stroke="#6366f1" stroke-width="1"/><circle cx="653" cy="124" r="6" fill="none" stroke="#1e293b" stroke-width="1.5"/><line x1="653" y1="130" x2="653" y2="144" stroke="#1e293b" stroke-width="1.5"/><line x1="643" y1="134" x2="663" y2="134" stroke="#1e293b" stroke-width="1.5"/><line x1="653" y1="144" x2="645" y2="160" stroke="#1e293b" stroke-width="1.5"/><line x1="653" y1="144" x2="661" y2="160" stroke="#1e293b" stroke-width="1.5"/><text x="653" y="166" text-anchor="middle" font-family="monospace" font-size="13" font-weight="600" fill="#0f172a">User</text><circle cx="538" cy="298" r="6" fill="none" stroke="#1e293b" stroke-width="1.5"/><line x1="538" y1="304" x2="538" y2="318" stroke="#1e293b" stroke-width="1.5"/><line x1="528" y1="308" x2="548" y2="308" stroke="#1e293b" stroke-width="1.5"/><line x1="538" y1="318" x2="530" y2="334" stroke="#1e293b" stroke-width="1.5"/><line x1="538" y1="318" x2="546" y2="334" stroke="#1e293b" stroke-width="1.5"/><text x="538" y="340" text-anchor="middle" font-family="monospace" font-size="13" font-weight="600" fill="#0f172a">Registered User</text><circle cx="883" cy="472" r="6" fill="none" stroke="#1e293b" stroke-width="1.5"/><line x1="883" y1="478" x2="883" y2="492" stroke="#1e293b" stroke-width="1.5"/><line x1="873" y1="482" x2="893" y2="482" stroke="#1e293b" stroke-width="1.5"/><line x1="883" y1="492" x2="875" y2="508" stroke="#1e293b" stroke-width="1.5"/><line x1="883" y1="492" x2="891" y2="508" stroke="#1e293b" stroke-width="1.5"/><text x="883" y="514" text-anchor="middle" font-family="monospace" font-size="13" font-weight="600" fill="#0f172a">Premium User</text><circle cx="308" cy="298" r="6" fill="none" stroke="#1e293b" stroke-width="1.5"/><line x1="308" y1="304" x2="308" y2="318" stroke="#1e293b" stroke-width="1.5"/><line x1="298" y1="308" x2="318" y2="308" stroke="#1e293b" stroke-width="1.5"/><line x1="308" y1="318" x2="300" y2="334" stroke="#1e293b" stroke-width="1.5"/><line x1="308" y1="318" x2="316" y2="334" stroke="#1e293b" stroke-width="1.5"/><text x="308" y="340" text-anchor="middle" font-family="monospace" font-size="13" font-weight="600" fill="#0f172a">Administrator</text><ellipse cx="768" cy="323" rx="75" ry="31" fill="#ffffff" stroke="#1e293b" stroke-width="1.5"/><text x="768" y="327" text-anchor="middle" font-family="monospace" font-size="13" font-weight="600" fill="#0f172a">Browse Catalog</text><ellipse cx="998" cy="323" rx="75" ry="31" fill="#ffffff" stroke="#1e293b" stroke-width="1.5"/><text x="998" y="327" text-anchor="middle" font-family="monospace" font-size="13" font-weight="600" fill="#0f172a">Search Products</text><ellipse cx="1228" cy="323" rx="75" ry="31" fill="#ffffff" stroke="#1e293b" stroke-width="1.5"/><text x="1228" y="327" text-anchor="middle" font-family="monospace" font-size="13" font-weight="600" fill="#0f172a">View Product Detail</text><ellipse cx="653" cy="671" rx="75" ry="31" fill="#ffffff" stroke="#1e293b" stroke-width="1.5"/><text x="653" y="675" text-anchor="middle" font-family="monospace" font-size="13" font-weight="600" fill="#0f172a">Add to Cart</text><ellipse cx="653" cy="497" rx="75" ry="31" fill="#ffffff" stroke="#1e293b" stroke-width="1.5"/><text x="653" y="501" text-anchor="middle" font-family="monospace" font-size="13" font-weight="600" fill="#0f172a">Checkout</text><ellipse cx="883" cy="149" rx="75" ry="31" fill="#ffffff" stroke="#1e293b" stroke-width="1.5"/><text x="883" y="153" text-anchor="middle" font-family="monospace" font-size="13" font-weight="600" fill="#0f172a">Apply Promo Code</text><ellipse cx="1113" cy="497" rx="75" ry="31" fill="#ffffff" stroke="#1e293b" stroke-width="1.5"/><text x="1113" y="501" text-anchor="middle" font-family="monospace" font-size="13" font-weight="600" fill="#0f172a">Track Order</text><ellipse cx="1343" cy="497" rx="75" ry="31" fill="#ffffff" stroke="#1e293b" stroke-width="1.5"/><text x="1343" y="501" text-anchor="middle" font-family="monospace" font-size="13" font-weight="600" fill="#0f172a">Write Review</text><ellipse cx="883" cy="671" rx="75" ry="31" fill="#ffffff" stroke="#1e293b" stroke-width="1.5"/><text x="883" y="675" text-anchor="middle" font-family="monospace" font-size="13" font-weight="600" fill="#0f172a">Access Priority Support</text><ellipse cx="193" cy="497" rx="75" ry="31" fill="#ffffff" stroke="#1e293b" stroke-width="1.5"/><text x="193" y="501" text-anchor="middle" font-family="monospace" font-size="13" font-weight="600" fill="#0f172a">Manage Users</text><ellipse cx="423" cy="497" rx="75" ry="31" fill="#ffffff" stroke="#1e293b" stroke-width="1.5"/><text x="423" y="501" text-anchor="middle" font-family="monospace" font-size="13" font-weight="600" fill="#0f172a">View Analytics</text></svg>