<svg xmlns="http://www.w3.org/2000/svg" width="4190" height="914" viewBox="0 0 4190 914" data-orientation="TopToBottom"><rect width="100%" height="100%" fill="#ffffff"/><defs><marker id="arrow-open" viewBox="0 0 10 10" refX="9" refY="5" markerWidth="10" markerHeight="10" markerUnits="userSpaceOnUse" orient="auto-start-reverse"><path d="M0,0 L10,5 L0,10" fill="none" stroke="#1e293b" stroke-width="1.5"/></marker><marker id="arrow-triangle" viewBox="0 0 16 16" refX="15" refY="8" markerWidth="16" markerHeight="16" markerUnits="userSpaceOnUse" orient="auto-start-reverse"><polygon points="0,1 14,8 0,15" fill="#ffffff" stroke="#1e293b" stroke-width="1.5" fill-rule="nonzero"/></marker><marker id="arrow-diamond-filled" viewBox="0 0 14 10" refX="13" refY="5" markerWidth="14" markerHeight="10" markerUnits="userSpaceOnUse" orient="auto-start-reverse"><path d="M0,5 L7,0 L14,5 L7,10 z" fill="#1e293b" stroke="#1e293b" stroke-width="1"/></marker><marker id="arrow-diamond-open" viewBox="0 0 14 10" refX="13" refY="5" markerWidth="14" markerHeight="10" markerUnits="userSpaceOnUse" orient="auto-start-reverse"><path d="M0,5 L7,0 L14,5 L7,10 z" fill="#ffffff" stroke="#1e293b" stroke-width="1"/></marker></defs><text x="32" y="32" font-family="monospace" font-size="18" font-weight="600" fill="#0f172a">Actor generalization, system boundary, extend with conditions</text><polyline class="uml-relation" data-uml-from="U" data-uml-to="RU" data-uml-arrow="&lt;|--" points="350,150 350,196 1678,196 1678,342" fill="none" stroke="#1e293b" stroke-width="2" marker-start="url(#arrow-triangle)" /><polyline class="uml-relation" data-uml-from="RU" data-uml-to="PU" data-uml-arrow="&lt;|--" points="1910,342 1910,463 2146,463 2146,534" fill="none" stroke="#1e293b" stroke-width="2" marker-start="url(#arrow-triangle)" /><polyline class="uml-relation" data-uml-from="U" data-uml-to="Admin" data-uml-arrow="&lt;|--" points="350,150 350,216 1366,216 1366,342" fill="none" stroke="#1e293b" stroke-width="2" marker-start="url(#arrow-triangle)" /><polyline class="uml-relation" data-uml-from="U" data-uml-to="UC1" data-uml-arrow="--&gt;" points="350,150 350,236 742,236 742,137" fill="none" stroke="#1e293b" stroke-width="2" marker-end="url(#arrow-open)" /><polyline class="uml-relation" data-uml-from="U" data-uml-to="UC2" data-uml-arrow="--&gt;" points="350,150 350,256 1678,256 1678,137" fill="none" stroke="#1e293b" stroke-width="2" marker-end="url(#arrow-open)" /><polyline class="uml-relation" data-uml-from="U" data-uml-to="UC3" data-uml-arrow="--&gt;" points="350,150 350,276 1990,276 1990,137" fill="none" stroke="#1e293b" stroke-width="2" marker-end="url(#arrow-open)" /><polyline class="uml-relation" data-uml-from="RU" data-uml-to="UC4" data-uml-arrow="--&gt;" points="1910,342 1910,473 2302,473 2302,137" fill="none" stroke="#1e293b" stroke-width="2" marker-end="url(#arrow-open)" /><polyline class="uml-relation" data-uml-from="RU" data-uml-to="UC5" data-uml-arrow="--&gt;" points="1910,342 1910,483 2614,483 2614,137" fill="none" stroke="#1e293b" stroke-width="2" marker-end="url(#arrow-open)" /><polyline class="uml-relation" data-uml-from="RU" data-uml-to="UC7" data-uml-arrow="--&gt;" points="1910,342 1910,493 3238,493 3238,137" fill="none" stroke="#1e293b" stroke-width="2" marker-end="url(#arrow-open)" /><polyline class="uml-relation" data-uml-from="RU" data-uml-to="UC8" data-uml-arrow="--&gt;" points="1910,342 1910,493 3550,493 3550,137" fill="none" stroke="#1e293b" stroke-width="2" marker-end="url(#arrow-open)" /><polyline class="uml-relation" data-uml-from="PU" data-uml-to="UC9" data-uml-arrow="--&gt;" points="2378,534 2378,630 3862,137" fill="none" stroke="#1e293b" stroke-width="2" marker-end="url(#arrow-open)" /><polyline class="uml-relation" data-uml-from="Admin" data-uml-to="UC10" data-uml-arrow="--&gt;" points="1366,342 1366,443 1286,443 1286,137" fill="none" stroke="#1e293b" stroke-width="2" marker-end="url(#arrow-open)" /><polyline class="uml-relation" data-uml-from="Admin" data-uml-to="UC11" data-uml-arrow="--&gt;" points="1482,310 1482,453 1482,453 1482,156" fill="none" stroke="#1e293b" stroke-width="2" marker-end="url(#arrow-open)" /><polyline class="uml-relation" data-uml-from="UC6" data-uml-to="UC5" data-uml-arrow=".&gt;" points="2926,137 2926,296 2846,296 2846,137" fill="none" stroke="#1e293b" stroke-width="2" stroke-dasharray="5 3" marker-end="url(#arrow-open)" /><text x="2886" y="270" text-anchor="middle" font-family="monospace" font-size="11" fill="#334155">&lt;&lt;extend&gt;&gt;</text><polyline class="uml-relation" data-uml-from="UC5" data-uml-to="UC4" data-uml-arrow="..&gt;" points="2614,137 2614,629 2534,137" fill="none" stroke="#1e293b" stroke-width="2" stroke-dasharray="5 3" marker-end="url(#arrow-open)" /><text x="2574" y="292" text-anchor="middle" font-family="monospace" font-size="11" fill="#334155">&lt;&lt;include&gt;&gt;</text><rect class="uml-group-frame" data-uml-group="E-Commerce Platform" x="410" y="46" width="2612" height="730" rx="6" ry="6" fill="none" stroke="#6366f1" stroke-width="1.5" stroke-dasharray="5 3"/><rect x="410" y="46" width="168" height="24" rx="6" ry="6" fill="#ffffff" stroke="#6366f1" stroke-width="1.5"/><rect x="410" y="62" width="168" height="8" fill="#ffffff" stroke="none"/><text x="418" y="62" font-family="monospace" font-size="11" font-weight="600" fill="#4338ca">E-Commerce Platform</text><line x1="410" y1="70" x2="3022" y2="70" stroke="#6366f1" stroke-width="1"/><circle cx="234" cy="124" r="6" fill="none" stroke="#1e293b" stroke-width="1.5"/><line x1="234" y1="130" x2="234" y2="144" stroke="#1e293b" stroke-width="1.5"/><line x1="224" y1="134" x2="244" y2="134" stroke="#1e293b" stroke-width="1.5"/><line x1="234" y1="144" x2="226" y2="160" stroke="#1e293b" stroke-width="1.5"/><line x1="234" y1="144" x2="242" y2="160" stroke="#1e293b" stroke-width="1.5"/><text x="234" y="166" text-anchor="middle" font-family="monospace" font-size="13" font-weight="600" fill="#0f172a">User</text><circle cx="1794" cy="316" r="6" fill="none" stroke="#1e293b" stroke-width="1.5"/><line x1="1794" y1="322" x2="1794" y2="336" stroke="#1e293b" stroke-width="1.5"/><line x1="1784" y1="326" x2="1804" y2="326" stroke="#1e293b" stroke-width="1.5"/><line x1="1794" y1="336" x2="1786" y2="352" stroke="#1e293b" stroke-width="1.5"/><line x1="1794" y1="336" x2="1802" y2="352" stroke="#1e293b" stroke-width="1.5"/><text x="1794" y="358" text-anchor="middle" font-family="monospace" font-size="13" font-weight="600" fill="#0f172a">Registered User</text><circle cx="2262" cy="508" r="6" fill="none" stroke="#1e293b" stroke-width="1.5"/><line x1="2262" y1="514" x2="2262" y2="528" stroke="#1e293b" stroke-width="1.5"/><line x1="2252" y1="518" x2="2272" y2="518" stroke="#1e293b" stroke-width="1.5"/><line x1="2262" y1="528" x2="2254" y2="544" stroke="#1e293b" stroke-width="1.5"/><line x1="2262" y1="528" x2="2270" y2="544" stroke="#1e293b" stroke-width="1.5"/><text x="2262" y="550" text-anchor="middle" font-family="monospace" font-size="13" font-weight="600" fill="#0f172a">Premium User</text><circle cx="1482" cy="316" r="6" fill="none" stroke="#1e293b" stroke-width="1.5"/><line x1="1482" y1="322" x2="1482" y2="336" stroke="#1e293b" stroke-width="1.5"/><line x1="1472" y1="326" x2="1492" y2="326" stroke="#1e293b" stroke-width="1.5"/><line x1="1482" y1="336" x2="1474" y2="352" stroke="#1e293b" stroke-width="1.5"/><line x1="1482" y1="336" x2="1490" y2="352" stroke="#1e293b" stroke-width="1.5"/><text x="1482" y="358" text-anchor="middle" font-family="monospace" font-size="13" font-weight="600" fill="#0f172a">Administrator</text><ellipse cx="2106" cy="341" rx="116" ry="31" fill="#ffffff" stroke="#1e293b" stroke-width="1.5"/><text x="2106" y="345" text-anchor="middle" font-family="monospace" font-size="13" font-weight="600" fill="#0f172a">Browse Catalog</text><ellipse cx="2418" cy="341" rx="116" ry="31" fill="#ffffff" stroke="#1e293b" stroke-width="1.5"/><text x="2418" y="345" text-anchor="middle" font-family="monospace" font-size="13" font-weight="600" fill="#0f172a">Search Products</text><ellipse cx="2730" cy="341" rx="116" ry="31" fill="#ffffff" stroke="#1e293b" stroke-width="1.5"/><text x="2730" y="345" text-anchor="middle" font-family="monospace" font-size="13" font-weight="600" fill="#0f172a">View Product Detail</text><ellipse cx="1950" cy="725" rx="116" ry="31" fill="#ffffff" stroke="#1e293b" stroke-width="1.5"/><text x="1950" y="729" text-anchor="middle" font-family="monospace" font-size="13" font-weight="600" fill="#0f172a">Add to Cart</text><ellipse cx="1950" cy="533" rx="116" ry="31" fill="#ffffff" stroke="#1e293b" stroke-width="1.5"/><text x="1950" y="537" text-anchor="middle" font-family="monospace" font-size="13" font-weight="600" fill="#0f172a">Checkout</text><ellipse cx="546" cy="149" rx="116" ry="31" fill="#ffffff" stroke="#1e293b" stroke-width="1.5"/><text x="546" y="153" text-anchor="middle" font-family="monospace" font-size="13" font-weight="600" fill="#0f172a">Apply Promo Code</text><ellipse cx="2574" cy="533" rx="116" ry="31" fill="#ffffff" stroke="#1e293b" stroke-width="1.5"/><text x="2574" y="537" text-anchor="middle" font-family="monospace" font-size="13" font-weight="600" fill="#0f172a">Track Order</text><ellipse cx="2886" cy="533" rx="116" ry="31" fill="#ffffff" stroke="#1e293b" stroke-width="1.5"/><text x="2886" y="537" text-anchor="middle" font-family="monospace" font-size="13" font-weight="600" fill="#0f172a">Write Review</text><ellipse cx="2262" cy="725" rx="116" ry="31" fill="#ffffff" stroke="#1e293b" stroke-width="1.5"/><text x="2262" y="729" text-anchor="middle" font-family="monospace" font-size="13" font-weight="600" fill="#0f172a">Access Priority Support</text><ellipse cx="1326" cy="533" rx="116" ry="31" fill="#ffffff" stroke="#1e293b" stroke-width="1.5"/><text x="1326" y="537" text-anchor="middle" font-family="monospace" font-size="13" font-weight="600" fill="#0f172a">Manage Users</text><ellipse cx="1638" cy="533" rx="116" ry="31" fill="#ffffff" stroke="#1e293b" stroke-width="1.5"/><text x="1638" y="537" text-anchor="middle" font-family="monospace" font-size="13" font-weight="600" fill="#0f172a">View Analytics</text><ellipse cx="858" cy="137" rx="116" ry="19" fill="#ffffff" stroke="#1e293b" stroke-width="1.5"/><text x="858" y="141" text-anchor="middle" font-family="monospace" font-size="13" font-weight="600" fill="#0f172a">UC1</text><ellipse cx="1794" cy="137" rx="116" ry="19" fill="#ffffff" stroke="#1e293b" stroke-width="1.5"/><text x="1794" y="141" text-anchor="middle" font-family="monospace" font-size="13" font-weight="600" fill="#0f172a">UC2</text><ellipse cx="2106" cy="137" rx="116" ry="19" fill="#ffffff" stroke="#1e293b" stroke-width="1.5"/><text x="2106" y="141" text-anchor="middle" font-family="monospace" font-size="13" font-weight="600" fill="#0f172a">UC3</text><ellipse cx="2418" cy="137" rx="116" ry="19" fill="#ffffff" stroke="#1e293b" stroke-width="1.5"/><text x="2418" y="141" text-anchor="middle" font-family="monospace" font-size="13" font-weight="600" fill="#0f172a">UC4</text><ellipse cx="2730" cy="137" rx="116" ry="19" fill="#ffffff" stroke="#1e293b" stroke-width="1.5"/><text x="2730" y="141" text-anchor="middle" font-family="monospace" font-size="13" font-weight="600" fill="#0f172a">UC5</text><ellipse cx="3354" cy="137" rx="116" ry="19" fill="#ffffff" stroke="#1e293b" stroke-width="1.5"/><text x="3354" y="141" text-anchor="middle" font-family="monospace" font-size="13" font-weight="600" fill="#0f172a">UC7</text><ellipse cx="3666" cy="137" rx="116" ry="19" fill="#ffffff" stroke="#1e293b" stroke-width="1.5"/><text x="3666" y="141" text-anchor="middle" font-family="monospace" font-size="13" font-weight="600" fill="#0f172a">UC8</text><ellipse cx="3978" cy="137" rx="116" ry="19" fill="#ffffff" stroke="#1e293b" stroke-width="1.5"/><text x="3978" y="141" text-anchor="middle" font-family="monospace" font-size="13" font-weight="600" fill="#0f172a">UC9</text><ellipse cx="1170" cy="137" rx="116" ry="19" fill="#ffffff" stroke="#1e293b" stroke-width="1.5"/><text x="1170" y="141" text-anchor="middle" font-family="monospace" font-size="13" font-weight="600" fill="#0f172a">UC10</text><ellipse cx="1482" cy="137" rx="116" ry="19" fill="#ffffff" stroke="#1e293b" stroke-width="1.5"/><text x="1482" y="141" text-anchor="middle" font-family="monospace" font-size="13" font-weight="600" fill="#0f172a">UC11</text><ellipse cx="3042" cy="137" rx="116" ry="19" fill="#ffffff" stroke="#1e293b" stroke-width="1.5"/><text x="3042" y="141" text-anchor="middle" font-family="monospace" font-size="13" font-weight="600" fill="#0f172a">UC6</text></svg>