<svg xmlns="http://www.w3.org/2000/svg" width="2494" height="1256" viewBox="0 0 2494 1256" data-orientation="TopToBottom"><rect width="100%" height="100%" fill="#ffffff"/><defs><marker id="arrow-open" viewBox="0 0 10 10" refX="9" refY="5" markerWidth="10" markerHeight="10" markerUnits="userSpaceOnUse" orient="auto-start-reverse"><path d="M0,0 L10,5 L0,10" fill="none" stroke="#1e293b" stroke-width="1.5"/></marker><marker id="arrow-triangle" viewBox="0 0 16 16" refX="15" refY="8" markerWidth="16" markerHeight="16" markerUnits="userSpaceOnUse" orient="auto-start-reverse"><polygon points="0,1 14,8 0,15" fill="#ffffff" stroke="#1e293b" stroke-width="1.5" fill-rule="nonzero"/></marker><marker id="arrow-diamond-filled" viewBox="0 0 14 10" refX="13" refY="5" markerWidth="14" markerHeight="10" markerUnits="userSpaceOnUse" orient="auto-start-reverse"><path d="M0,5 L7,0 L14,5 L7,10 z" fill="#1e293b" stroke="#1e293b" stroke-width="1"/></marker><marker id="arrow-diamond-open" viewBox="0 0 14 10" refX="13" refY="5" markerWidth="14" markerHeight="10" markerUnits="userSpaceOnUse" orient="auto-start-reverse"><path d="M0,5 L7,0 L14,5 L7,10 z" fill="#ffffff" stroke="#1e293b" stroke-width="1"/></marker></defs><defs><marker id="arrow-triangle-filled" viewBox="0 0 12 12" refX="11" refY="6" markerWidth="12" markerHeight="12" markerUnits="userSpaceOnUse" orient="auto-start-reverse"><polygon points="0,0 12,6 0,12" fill="#1e293b" stroke="#1e293b" stroke-width="1.5"/></marker><marker id="arrow-box-filled" viewBox="0 0 12 12" refX="11" refY="6" markerWidth="12" markerHeight="12" markerUnits="userSpaceOnUse" orient="auto-start-reverse"><rect x="2" y="2" width="8" height="8" fill="#1e293b" stroke="#1e293b" stroke-width="1.5"/></marker><marker id="arrow-plus" viewBox="0 0 12 12" refX="11" refY="6" markerWidth="12" markerHeight="12" markerUnits="userSpaceOnUse" orient="auto-start-reverse"><path d="M6,1 L6,11 M1,6 L11,6" fill="none" stroke="#1e293b" stroke-width="1.8" stroke-linecap="round"/></marker><marker id="arrow-cross" viewBox="0 0 12 12" refX="11" refY="6" markerWidth="12" markerHeight="12" markerUnits="userSpaceOnUse" orient="auto-start-reverse"><path d="M2,2 L10,10 M10,2 L2,10" fill="none" stroke="#1e293b" stroke-width="1.8" stroke-linecap="round"/></marker><marker id="arrow-bracket-open" viewBox="0 0 12 14" refX="11" refY="7" markerWidth="12" markerHeight="14" markerUnits="userSpaceOnUse" orient="auto-start-reverse"><path d="M10,1 L4,1 L4,13 L10,13" fill="none" stroke="#1e293b" stroke-width="1.8" stroke-linecap="round" stroke-linejoin="round"/></marker><marker id="arrow-circle-open" viewBox="0 0 12 12" refX="11" refY="6" markerWidth="12" markerHeight="12" markerUnits="userSpaceOnUse" orient="auto-start-reverse"><circle cx="6" cy="6" r="4" fill="#ffffff" stroke="#1e293b" stroke-width="1.5"/></marker><marker id="arrow-circle-filled" viewBox="0 0 12 12" refX="11" refY="6" markerWidth="12" markerHeight="12" markerUnits="userSpaceOnUse" orient="auto-start-reverse"><circle cx="6" cy="6" r="4" fill="#1e293b" stroke="#1e293b" stroke-width="1.5"/></marker><marker id="arrow-double-open" viewBox="0 0 16 12" refX="15" refY="6" markerWidth="16" markerHeight="12" markerUnits="userSpaceOnUse" orient="auto-start-reverse"><path d="M0,1 L8,6 L0,11 M7,1 L15,6 L7,11" fill="none" stroke="#1e293b" stroke-width="1.5" stroke-linejoin="round"/></marker></defs><text x="32" y="32" font-family="monospace" font-size="18" font-weight="600" fill="#0f172a">Multiple system boundaries with actor inheritance</text><polyline class="uml-relation" data-uml-from="C" data-uml-to="UC1" data-uml-arrow="--&gt;" points="1006,150 1006,188 926,188 926,291" fill="none" stroke="#1e293b" stroke-width="2" marker-end="url(#arrow-open)" /><polyline class="uml-relation" data-uml-from="C" data-uml-to="UC2" data-uml-arrow="--&gt;" points="1114,182 1114,188 1114,188" fill="none" stroke="#1e293b" stroke-width="2" marker-end="url(#arrow-open)" /><polyline class="uml-relation" data-uml-from="C" data-uml-to="UC3" data-uml-arrow="--&gt;" points="1006,150 1006,188 334,188 334,291" fill="none" stroke="#1e293b" stroke-width="2" marker-end="url(#arrow-open)" /><polyline class="uml-relation" data-uml-from="C" data-uml-to="UC4" data-uml-arrow="--&gt;" points="1222,150 1222,188 1302,188 1302,291" fill="none" stroke="#1e293b" stroke-width="2" marker-end="url(#arrow-open)" /><polyline class="uml-relation" data-uml-from="SA" data-uml-to="UC5" data-uml-arrow="--&gt;" points="1410,182 1410,188 1706,188 1706,782" fill="none" stroke="#1e293b" stroke-width="2" marker-end="url(#arrow-open)" /><polyline class="uml-relation" data-uml-from="SA" data-uml-to="UC6" data-uml-arrow="--&gt;" points="1410,182 1410,188 2002,188 2002,782" fill="none" stroke="#1e293b" stroke-width="2" marker-end="url(#arrow-open)" /><polyline class="uml-relation" data-uml-from="SA" data-uml-to="UC7" data-uml-arrow="--&gt;" points="1410,182 1410,188 1262,188 1262,782" fill="none" stroke="#1e293b" stroke-width="2" marker-end="url(#arrow-open)" /><polyline class="uml-relation" data-uml-from="SA" data-uml-to="UC8" data-uml-arrow="--&gt;" points="1410,182 1410,188 1114,188 1114,782" fill="none" stroke="#1e293b" stroke-width="2" marker-end="url(#arrow-open)" /><polyline class="uml-relation" data-uml-from="SYS" data-uml-to="UC9" data-uml-arrow="--&gt;" points="926,150 926,188 2034,188 2034,571" fill="none" stroke="#1e293b" stroke-width="2" marker-end="url(#arrow-open)" /><polyline class="uml-relation" data-uml-from="SYS" data-uml-to="UC10" data-uml-arrow="--&gt;" points="926,150 926,188 1590,188 1590,291" fill="none" stroke="#1e293b" stroke-width="2" marker-end="url(#arrow-open)" /><polyline class="uml-relation" data-uml-from="SYS" data-uml-to="UC11" data-uml-arrow="--&gt;" points="926,150 926,186 2182,186 2182,188" fill="none" stroke="#1e293b" stroke-width="2" marker-end="url(#arrow-open)" /><polyline class="uml-relation" data-uml-from="UC3" data-uml-to="UC9" data-uml-arrow="..&gt;" points="334,291 334,527 2034,527 2034,571" fill="none" stroke="#1e293b" stroke-width="2" stroke-dasharray="5 3" marker-end="url(#arrow-open)" /><text class="uml-edge-label" data-uml-label-role="edge" x="1184" y="501" text-anchor="middle" font-family="monospace" font-size="11" fill="#334155">triggers</text><polyline class="uml-relation" data-uml-from="UC9" data-uml-to="UC11" data-uml-arrow="..&gt;" points="2250,571 2250,676 2182,676 2182,711" fill="none" stroke="#1e293b" stroke-width="2" stroke-dasharray="5 3" marker-end="url(#arrow-open)" /><text class="uml-edge-label" data-uml-label-role="edge" x="2430" y="611" text-anchor="middle" font-family="monospace" font-size="11" fill="#334155">triggers</text><polyline class="uml-relation" data-uml-from="UC10" data-uml-to="UC7" data-uml-arrow=".&gt;" points="1698,322 1698,527 1262,527 1262,782" fill="none" stroke="#1e293b" stroke-width="2" stroke-dasharray="5 3" marker-end="url(#arrow-open)" /><text class="uml-edge-label" data-uml-label-role="edge" x="1494" y="515" text-anchor="middle" font-family="monospace" font-size="11" fill="#334155">&lt;&lt;extend&gt;&gt;</text><rect class="uml-group-frame" data-uml-group="Automation Engine" x="1570" y="188" width="848" height="574" rx="6" ry="6" fill="none" stroke="#6366f1" stroke-width="1.5" stroke-dasharray="5 3"/><rect x="1570" y="188" width="152" height="24" rx="6" ry="6" fill="#ffffff" stroke="#6366f1" stroke-width="1.5"/><rect x="1570" y="204" width="152" height="8" fill="#ffffff" stroke="none"/><text x="1578" y="204" font-family="monospace" font-size="11" font-weight="600" fill="#4338ca">Automation Engine</text><line x1="1570" y1="212" x2="2418" y2="212" stroke="#6366f1" stroke-width="1"/><rect class="uml-group-frame" data-uml-group="Customer Portal" x="98" y="188" width="1440" height="154" rx="6" ry="6" fill="none" stroke="#6366f1" stroke-width="1.5" stroke-dasharray="5 3"/><rect x="98" y="188" width="136" height="24" rx="6" ry="6" fill="#ffffff" stroke="#6366f1" stroke-width="1.5"/><rect x="98" y="204" width="136" height="8" fill="#ffffff" stroke="none"/><text x="106" y="204" font-family="monospace" font-size="11" font-weight="600" fill="#4338ca">Customer Portal</text><line x1="98" y1="212" x2="1538" y2="212" stroke="#6366f1" stroke-width="1"/><rect class="uml-group-frame" data-uml-group="Support Console" x="986" y="782" width="1144" height="434" rx="6" ry="6" fill="none" stroke="#6366f1" stroke-width="1.5" stroke-dasharray="5 3"/><rect x="986" y="782" width="136" height="24" rx="6" ry="6" fill="#ffffff" stroke="#6366f1" stroke-width="1.5"/><rect x="986" y="798" width="136" height="8" fill="#ffffff" stroke="none"/><text x="994" y="798" font-family="monospace" font-size="11" font-weight="600" fill="#4338ca">Support Console</text><line x1="986" y1="806" x2="2130" y2="806" stroke="#6366f1" stroke-width="1"/><circle cx="1114" cy="124" r="6" fill="none" stroke="#1e293b" stroke-width="1.5"/><line x1="1114" y1="130" x2="1114" y2="144" stroke="#1e293b" stroke-width="1.5"/><line x1="1104" y1="134" x2="1124" y2="134" stroke="#1e293b" stroke-width="1.5"/><line x1="1114" y1="144" x2="1106" y2="160" stroke="#1e293b" stroke-width="1.5"/><line x1="1114" y1="144" x2="1122" y2="160" stroke="#1e293b" stroke-width="1.5"/><text x="1114" y="166" text-anchor="middle" font-family="monospace" font-size="13" font-weight="600" fill="#0f172a">Customer</text><circle cx="1410" cy="124" r="6" fill="none" stroke="#1e293b" stroke-width="1.5"/><line x1="1410" y1="130" x2="1410" y2="144" stroke="#1e293b" stroke-width="1.5"/><line x1="1400" y1="134" x2="1420" y2="134" stroke="#1e293b" stroke-width="1.5"/><line x1="1410" y1="144" x2="1402" y2="160" stroke="#1e293b" stroke-width="1.5"/><line x1="1410" y1="144" x2="1418" y2="160" stroke="#1e293b" stroke-width="1.5"/><text x="1410" y="166" text-anchor="middle" font-family="monospace" font-size="13" font-weight="600" fill="#0f172a">Support Agent</text><circle cx="818" cy="124" r="6" fill="none" stroke="#1e293b" stroke-width="1.5"/><line x1="818" y1="130" x2="818" y2="144" stroke="#1e293b" stroke-width="1.5"/><line x1="808" y1="134" x2="828" y2="134" stroke="#1e293b" stroke-width="1.5"/><line x1="818" y1="144" x2="810" y2="160" stroke="#1e293b" stroke-width="1.5"/><line x1="818" y1="144" x2="826" y2="160" stroke="#1e293b" stroke-width="1.5"/><text x="818" y="166" text-anchor="middle" font-family="monospace" font-size="13" font-weight="600" fill="#0f172a">System</text><ellipse cx="818" cy="291" rx="108" ry="31" fill="#ffffff" stroke="#1e293b" stroke-width="1.5"/><text x="818" y="295" text-anchor="middle" font-family="monospace" font-size="13" font-weight="600" fill="#0f172a">Login</text><ellipse cx="1114" cy="291" rx="108" ry="31" fill="#ffffff" stroke="#1e293b" stroke-width="1.5"/><text x="1114" y="295" text-anchor="middle" font-family="monospace" font-size="13" font-weight="600" fill="#0f172a">View Orders</text><ellipse cx="226" cy="291" rx="108" ry="31" fill="#ffffff" stroke="#1e293b" stroke-width="1.5"/><text x="226" y="295" text-anchor="middle" font-family="monospace" font-size="13" font-weight="600" fill="#0f172a">Open Ticket</text><ellipse cx="1410" cy="291" rx="108" ry="31" fill="#ffffff" stroke="#1e293b" stroke-width="1.5"/><text x="1410" y="295" text-anchor="middle" font-family="monospace" font-size="13" font-weight="600" fill="#0f172a">Chat with Agent</text><ellipse cx="1706" cy="885" rx="108" ry="31" fill="#ffffff" stroke="#1e293b" stroke-width="1.5"/><text x="1706" y="889" text-anchor="middle" font-family="monospace" font-size="13" font-weight="600" fill="#0f172a">View Queue</text><ellipse cx="2002" cy="885" rx="108" ry="31" fill="#ffffff" stroke="#1e293b" stroke-width="1.5"/><text x="2002" y="889" text-anchor="middle" font-family="monospace" font-size="13" font-weight="600" fill="#0f172a">Respond to Ticket</text><ellipse cx="1262" cy="1165" rx="108" ry="31" fill="#ffffff" stroke="#1e293b" stroke-width="1.5"/><text x="1262" y="1169" text-anchor="middle" font-family="monospace" font-size="13" font-weight="600" fill="#0f172a">Escalate Issue</text><ellipse cx="1114" cy="1025" rx="108" ry="31" fill="#ffffff" stroke="#1e293b" stroke-width="1.5"/><text x="1114" y="1029" text-anchor="middle" font-family="monospace" font-size="13" font-weight="600" fill="#0f172a">Close Ticket</text><ellipse cx="2142" cy="571" rx="108" ry="31" fill="#ffffff" stroke="#1e293b" stroke-width="1.5"/><text x="2142" y="575" text-anchor="middle" font-family="monospace" font-size="13" font-weight="600" fill="#0f172a">Auto-tag Ticket</text><ellipse cx="1698" cy="291" rx="108" ry="31" fill="#ffffff" stroke="#1e293b" stroke-width="1.5"/><text x="1698" y="295" text-anchor="middle" font-family="monospace" font-size="13" font-weight="600" fill="#0f172a">Send SLA Alert</text><ellipse cx="2290" cy="711" rx="108" ry="31" fill="#ffffff" stroke="#1e293b" stroke-width="1.5"/><text x="2290" y="715" text-anchor="middle" font-family="monospace" font-size="13" font-weight="600" fill="#0f172a">Route to Agent</text></svg>