<svg xmlns="http://www.w3.org/2000/svg" width="2755" height="856" viewBox="0 0 2755 856" data-orientation="TopToBottom"><rect width="100%" height="100%" fill="#ffffff"/><defs><marker id="arrow-open" viewBox="0 0 10 10" refX="9" refY="5" markerWidth="10" markerHeight="10" markerUnits="userSpaceOnUse" orient="auto-start-reverse"><path d="M0,0 L10,5 L0,10" fill="none" stroke="#1e293b" stroke-width="1.5"/></marker><marker id="arrow-triangle" viewBox="0 0 16 16" refX="15" refY="8" markerWidth="16" markerHeight="16" markerUnits="userSpaceOnUse" orient="auto-start-reverse"><polygon points="0,1 14,8 0,15" fill="#ffffff" stroke="#1e293b" stroke-width="1.5" fill-rule="nonzero"/></marker><marker id="arrow-diamond-filled" viewBox="0 0 14 10" refX="13" refY="5" markerWidth="14" markerHeight="10" markerUnits="userSpaceOnUse" orient="auto-start-reverse"><path d="M0,5 L7,0 L14,5 L7,10 z" fill="#1e293b" stroke="#1e293b" stroke-width="1"/></marker><marker id="arrow-diamond-open" viewBox="0 0 14 10" refX="13" refY="5" markerWidth="14" markerHeight="10" markerUnits="userSpaceOnUse" orient="auto-start-reverse"><path d="M0,5 L7,0 L14,5 L7,10 z" fill="#ffffff" stroke="#1e293b" stroke-width="1"/></marker></defs><defs><marker id="arrow-triangle-filled" viewBox="0 0 12 12" refX="11" refY="6" markerWidth="12" markerHeight="12" markerUnits="userSpaceOnUse" orient="auto-start-reverse"><polygon points="0,0 12,6 0,12" fill="#1e293b" stroke="#1e293b" stroke-width="1.5"/></marker><marker id="arrow-box-filled" viewBox="0 0 12 12" refX="11" refY="6" markerWidth="12" markerHeight="12" markerUnits="userSpaceOnUse" orient="auto-start-reverse"><rect x="2" y="2" width="8" height="8" fill="#1e293b" stroke="#1e293b" stroke-width="1.5"/></marker><marker id="arrow-plus" viewBox="0 0 12 12" refX="11" refY="6" markerWidth="12" markerHeight="12" markerUnits="userSpaceOnUse" orient="auto-start-reverse"><path d="M6,1 L6,11 M1,6 L11,6" fill="none" stroke="#1e293b" stroke-width="1.8" stroke-linecap="round"/></marker><marker id="arrow-cross" viewBox="0 0 12 12" refX="11" refY="6" markerWidth="12" markerHeight="12" markerUnits="userSpaceOnUse" orient="auto-start-reverse"><path d="M2,2 L10,10 M10,2 L2,10" fill="none" stroke="#1e293b" stroke-width="1.8" stroke-linecap="round"/></marker><marker id="arrow-bracket-open" viewBox="0 0 12 14" refX="11" refY="7" markerWidth="12" markerHeight="14" markerUnits="userSpaceOnUse" orient="auto-start-reverse"><path d="M10,1 L4,1 L4,13 L10,13" fill="none" stroke="#1e293b" stroke-width="1.8" stroke-linecap="round" stroke-linejoin="round"/></marker><marker id="arrow-circle-open" viewBox="0 0 12 12" refX="11" refY="6" markerWidth="12" markerHeight="12" markerUnits="userSpaceOnUse" orient="auto-start-reverse"><circle cx="6" cy="6" r="4" fill="#ffffff" stroke="#1e293b" stroke-width="1.5"/></marker><marker id="arrow-circle-filled" viewBox="0 0 12 12" refX="11" refY="6" markerWidth="12" markerHeight="12" markerUnits="userSpaceOnUse" orient="auto-start-reverse"><circle cx="6" cy="6" r="4" fill="#1e293b" stroke="#1e293b" stroke-width="1.5"/></marker><marker id="arrow-double-open" viewBox="0 0 16 12" refX="15" refY="6" markerWidth="16" markerHeight="12" markerUnits="userSpaceOnUse" orient="auto-start-reverse"><path d="M0,1 L8,6 L0,11 M7,1 L15,6 L7,11" fill="none" stroke="#1e293b" stroke-width="1.5" stroke-linejoin="round"/></marker></defs><text x="32" y="32" font-family="monospace" font-size="18" font-weight="600" fill="#0f172a">Multiple system boundaries with actor inheritance</text><polyline class="uml-relation" data-uml-from="C" data-uml-to="UC1" data-uml-arrow="--&gt;" points="923,150 923,218 728,218 728,220" fill="none" stroke="#1e293b" stroke-width="2" marker-end="url(#arrow-open)" /><polyline class="uml-relation" data-uml-from="C" data-uml-to="UC2" data-uml-arrow="--&gt;" points="998,182 998,220 883,220 883,292" fill="none" stroke="#1e293b" stroke-width="2" marker-end="url(#arrow-open)" /><polyline class="uml-relation" data-uml-from="C" data-uml-to="UC3" data-uml-arrow="--&gt;" points="923,150 923,220 268,220 268,323" fill="none" stroke="#1e293b" stroke-width="2" marker-end="url(#arrow-open)" /><polyline class="uml-relation" data-uml-from="C" data-uml-to="UC4" data-uml-arrow="--&gt;" points="998,182 998,220 1113,220 1113,292" fill="none" stroke="#1e293b" stroke-width="2" marker-end="url(#arrow-open)" /><polyline class="uml-relation" data-uml-from="SA" data-uml-to="UC5" data-uml-arrow="--&gt;" points="1228,182 1228,220 1343,220 1343,378" fill="none" stroke="#1e293b" stroke-width="2" marker-end="url(#arrow-open)" /><polyline class="uml-relation" data-uml-from="SA" data-uml-to="UC6" data-uml-arrow="--&gt;" points="1303,150 1303,220 1498,220 1498,378" fill="none" stroke="#1e293b" stroke-width="2" marker-end="url(#arrow-open)" /><polyline class="uml-relation" data-uml-from="SA" data-uml-to="UC7" data-uml-arrow="--&gt;" points="1228,182 1228,220 1113,220 1113,378" fill="none" stroke="#1e293b" stroke-width="2" marker-end="url(#arrow-open)" /><polyline class="uml-relation" data-uml-from="SA" data-uml-to="UC8" data-uml-arrow="--&gt;" points="1303,150 1303,220 1728,220 1728,378" fill="none" stroke="#1e293b" stroke-width="2" marker-end="url(#arrow-open)" /><polyline class="uml-relation" data-uml-from="SYS" data-uml-to="UC9" data-uml-arrow="--&gt;" points="843,150 843,199 2394,199 2394,220" fill="none" stroke="#1e293b" stroke-width="2" marker-end="url(#arrow-open)" /><polyline class="uml-relation" data-uml-from="SYS" data-uml-to="UC10" data-uml-arrow="--&gt;" points="843,150 843,209 1934,209 1934,220" fill="none" stroke="#1e293b" stroke-width="2" marker-end="url(#arrow-open)" /><polyline class="uml-relation" data-uml-from="SYS" data-uml-to="UC11" data-uml-arrow="--&gt;" points="843,150 843,190 2509,190 2509,220" fill="none" stroke="#1e293b" stroke-width="2" marker-end="url(#arrow-open)" /><polyline class="uml-relation" data-uml-from="UC3" data-uml-to="UC9" data-uml-arrow="..&gt;" points="268,323 268,378 2394,378 2394,495" fill="none" stroke="#1e293b" stroke-width="2" stroke-dasharray="5 3" marker-end="url(#arrow-open)" /><rect class="uml-edge-label-bg" data-uml-label-role="edge-background" x="1301" y="339" width="60" height="18" fill="white" opacity="0.85"/><text class="uml-edge-label" data-uml-label-role="edge" x="1331" y="352" text-anchor="middle" font-family="monospace" font-size="11" fill="#334155">triggers</text><polyline class="uml-relation" data-uml-from="UC9" data-uml-to="UC11" data-uml-arrow="..&gt;" points="2469,526 2469,618 2584,618 2584,636" fill="none" stroke="#1e293b" stroke-width="2" stroke-dasharray="5 3" marker-end="url(#arrow-open)" /><text class="uml-edge-label" data-uml-label-role="edge" x="2526" y="592" text-anchor="middle" font-family="monospace" font-size="11" fill="#334155">triggers</text><polyline class="uml-relation" data-uml-from="UC10" data-uml-to="UC7" data-uml-arrow=".&gt;" points="1934,323 1934,378 1188,378 1188,653" fill="none" stroke="#1e293b" stroke-width="2" stroke-dasharray="5 3" marker-end="url(#arrow-open)" /><text class="uml-edge-label" data-uml-label-role="edge" x="1561" y="352" text-anchor="middle" font-family="monospace" font-size="11" fill="#334155">&lt;&lt;extend&gt;&gt;</text><rect class="uml-group-frame" data-uml-group="Automation Engine" x="1914" y="220" width="765" height="498" rx="6" ry="6" fill="none" stroke="#6366f1" stroke-width="1.5" stroke-dasharray="5 3"/><rect x="1914" y="220" width="152" height="24" rx="6" ry="6" fill="#ffffff" stroke="#6366f1" stroke-width="1.5"/><rect x="1914" y="236" width="152" height="8" fill="#ffffff" stroke="none"/><text x="1922" y="236" font-family="monospace" font-size="11" font-weight="600" fill="#4338ca">Automation Engine</text><line x1="1914" y1="244" x2="2679" y2="244" stroke="#6366f1" stroke-width="1"/><rect class="uml-group-frame" data-uml-group="Customer Portal" x="98" y="220" width="1110" height="154" rx="6" ry="6" fill="none" stroke="#6366f1" stroke-width="1.5" stroke-dasharray="5 3"/><rect x="98" y="220" width="136" height="24" rx="6" ry="6" fill="#ffffff" stroke="#6366f1" stroke-width="1.5"/><rect x="98" y="236" width="136" height="8" fill="#ffffff" stroke="none"/><text x="106" y="236" font-family="monospace" font-size="11" font-weight="600" fill="#4338ca">Customer Portal</text><line x1="98" y1="244" x2="1208" y2="244" stroke="#6366f1" stroke-width="1"/><rect class="uml-group-frame" data-uml-group="Support Console" x="1018" y="378" width="880" height="326" rx="6" ry="6" fill="none" stroke="#6366f1" stroke-width="1.5" stroke-dasharray="5 3"/><rect x="1018" y="378" width="136" height="24" rx="6" ry="6" fill="#ffffff" stroke="#6366f1" stroke-width="1.5"/><rect x="1018" y="394" width="136" height="8" fill="#ffffff" stroke="none"/><text x="1026" y="394" font-family="monospace" font-size="11" font-weight="600" fill="#4338ca">Support Console</text><line x1="1018" y1="402" x2="1898" y2="402" stroke="#6366f1" stroke-width="1"/><circle cx="998" cy="124" r="6" fill="none" stroke="#1e293b" stroke-width="1.5"/><line x1="998" y1="130" x2="998" y2="144" stroke="#1e293b" stroke-width="1.5"/><line x1="988" y1="134" x2="1008" y2="134" stroke="#1e293b" stroke-width="1.5"/><line x1="998" y1="144" x2="990" y2="160" stroke="#1e293b" stroke-width="1.5"/><line x1="998" y1="144" x2="1006" y2="160" stroke="#1e293b" stroke-width="1.5"/><text x="998" y="166" text-anchor="middle" font-family="monospace" font-size="13" font-weight="600" fill="#0f172a">Customer</text><circle cx="1228" cy="124" r="6" fill="none" stroke="#1e293b" stroke-width="1.5"/><line x1="1228" y1="130" x2="1228" y2="144" stroke="#1e293b" stroke-width="1.5"/><line x1="1218" y1="134" x2="1238" y2="134" stroke="#1e293b" stroke-width="1.5"/><line x1="1228" y1="144" x2="1220" y2="160" stroke="#1e293b" stroke-width="1.5"/><line x1="1228" y1="144" x2="1236" y2="160" stroke="#1e293b" stroke-width="1.5"/><text x="1228" y="166" text-anchor="middle" font-family="monospace" font-size="13" font-weight="600" fill="#0f172a">Support Agent</text><circle cx="768" cy="124" r="6" fill="none" stroke="#1e293b" stroke-width="1.5"/><line x1="768" y1="130" x2="768" y2="144" stroke="#1e293b" stroke-width="1.5"/><line x1="758" y1="134" x2="778" y2="134" stroke="#1e293b" stroke-width="1.5"/><line x1="768" y1="144" x2="760" y2="160" stroke="#1e293b" stroke-width="1.5"/><line x1="768" y1="144" x2="776" y2="160" stroke="#1e293b" stroke-width="1.5"/><text x="768" y="166" text-anchor="middle" font-family="monospace" font-size="13" font-weight="600" fill="#0f172a">System</text><ellipse cx="653" cy="323" rx="75" ry="31" fill="#ffffff" stroke="#1e293b" stroke-width="1.5"/><text x="653" y="327" text-anchor="middle" font-family="monospace" font-size="13" font-weight="600" fill="#0f172a">Login</text><ellipse cx="883" cy="323" rx="75" ry="31" fill="#ffffff" stroke="#1e293b" stroke-width="1.5"/><text x="883" y="327" text-anchor="middle" font-family="monospace" font-size="13" font-weight="600" fill="#0f172a">View Orders</text><ellipse cx="193" cy="323" rx="75" ry="31" fill="#ffffff" stroke="#1e293b" stroke-width="1.5"/><text x="193" y="327" text-anchor="middle" font-family="monospace" font-size="13" font-weight="600" fill="#0f172a">Open Ticket</text><ellipse cx="1113" cy="323" rx="75" ry="31" fill="#ffffff" stroke="#1e293b" stroke-width="1.5"/><text x="1113" y="327" text-anchor="middle" font-family="monospace" font-size="13" font-weight="600" fill="#0f172a">Chat with Agent</text><ellipse cx="1343" cy="481" rx="75" ry="31" fill="#ffffff" stroke="#1e293b" stroke-width="1.5"/><text x="1343" y="485" text-anchor="middle" font-family="monospace" font-size="13" font-weight="600" fill="#0f172a">View Queue</text><ellipse cx="1573" cy="481" rx="75" ry="31" fill="#ffffff" stroke="#1e293b" stroke-width="1.5"/><text x="1573" y="485" text-anchor="middle" font-family="monospace" font-size="13" font-weight="600" fill="#0f172a">Respond to Ticket</text><ellipse cx="1113" cy="653" rx="75" ry="31" fill="#ffffff" stroke="#1e293b" stroke-width="1.5"/><text x="1113" y="657" text-anchor="middle" font-family="monospace" font-size="13" font-weight="600" fill="#0f172a">Escalate Issue</text><ellipse cx="1803" cy="481" rx="75" ry="31" fill="#ffffff" stroke="#1e293b" stroke-width="1.5"/><text x="1803" y="485" text-anchor="middle" font-family="monospace" font-size="13" font-weight="600" fill="#0f172a">Close Ticket</text><ellipse cx="2469" cy="495" rx="75" ry="31" fill="#ffffff" stroke="#1e293b" stroke-width="1.5"/><text x="2469" y="499" text-anchor="middle" font-family="monospace" font-size="13" font-weight="600" fill="#0f172a">Auto-tag Ticket</text><ellipse cx="2009" cy="323" rx="75" ry="31" fill="#ffffff" stroke="#1e293b" stroke-width="1.5"/><text x="2009" y="327" text-anchor="middle" font-family="monospace" font-size="13" font-weight="600" fill="#0f172a">Send SLA Alert</text><ellipse cx="2584" cy="667" rx="75" ry="31" fill="#ffffff" stroke="#1e293b" stroke-width="1.5"/><text x="2584" y="671" text-anchor="middle" font-family="monospace" font-size="13" font-weight="600" fill="#0f172a">Route to Agent</text></svg>