<svg xmlns="http://www.w3.org/2000/svg" width="2494" height="1556" viewBox="0 0 2494 1556" data-orientation="TopToBottom"><rect width="100%" height="100%" fill="#ffffff"/><defs><marker id="arrow-open" viewBox="0 0 10 10" refX="9" refY="5" markerWidth="10" markerHeight="10" markerUnits="userSpaceOnUse" orient="auto-start-reverse"><path d="M0,0 L10,5 L0,10" fill="none" stroke="#1e293b" stroke-width="1.5"/></marker><marker id="arrow-triangle" viewBox="0 0 16 16" refX="15" refY="8" markerWidth="16" markerHeight="16" markerUnits="userSpaceOnUse" orient="auto-start-reverse"><polygon points="0,1 14,8 0,15" fill="#ffffff" stroke="#1e293b" stroke-width="1.5" fill-rule="nonzero"/></marker><marker id="arrow-diamond-filled" viewBox="0 0 14 10" refX="13" refY="5" markerWidth="14" markerHeight="10" markerUnits="userSpaceOnUse" orient="auto-start-reverse"><path d="M0,5 L7,0 L14,5 L7,10 z" fill="#1e293b" stroke="#1e293b" stroke-width="1"/></marker><marker id="arrow-diamond-open" viewBox="0 0 14 10" refX="13" refY="5" markerWidth="14" markerHeight="10" markerUnits="userSpaceOnUse" orient="auto-start-reverse"><path d="M0,5 L7,0 L14,5 L7,10 z" fill="#ffffff" stroke="#1e293b" stroke-width="1"/></marker></defs><text x="32" y="32" font-family="monospace" font-size="18" font-weight="600" fill="#0f172a">Multiple system boundaries with actor inheritance</text><polyline class="uml-relation" data-uml-from="C" data-uml-to="UC1" data-uml-arrow="--&gt;" points="1006,150 1006,306 926,306 926,341" fill="none" stroke="#1e293b" stroke-width="2" marker-end="url(#arrow-open)" /><polyline class="uml-relation" data-uml-from="C" data-uml-to="UC2" data-uml-arrow="--&gt;" points="1114,182 1114,246 1114,310" fill="none" stroke="#1e293b" stroke-width="2" marker-end="url(#arrow-open)" /><polyline class="uml-relation" data-uml-from="C" data-uml-to="UC3" data-uml-arrow="--&gt;" points="1006,150 1006,306 334,306 334,341" fill="none" stroke="#1e293b" stroke-width="2" marker-end="url(#arrow-open)" /><polyline class="uml-relation" data-uml-from="C" data-uml-to="UC4" data-uml-arrow="--&gt;" points="1222,150 1222,306 1302,306 1302,341" fill="none" stroke="#1e293b" stroke-width="2" marker-end="url(#arrow-open)" /><polyline class="uml-relation" data-uml-from="SA" data-uml-to="UC5" data-uml-arrow="--&gt;" points="1410,182 1410,306 1706,306 1706,1054" fill="none" stroke="#1e293b" stroke-width="2" marker-end="url(#arrow-open)" /><polyline class="uml-relation" data-uml-from="SA" data-uml-to="UC6" data-uml-arrow="--&gt;" points="1410,182 1410,306 2002,306 2002,1054" fill="none" stroke="#1e293b" stroke-width="2" marker-end="url(#arrow-open)" /><polyline class="uml-relation" data-uml-from="SA" data-uml-to="UC7" data-uml-arrow="--&gt;" points="1410,182 1410,306 1262,306 1262,1434" fill="none" stroke="#1e293b" stroke-width="2" marker-end="url(#arrow-open)" /><polyline class="uml-relation" data-uml-from="SA" data-uml-to="UC8" data-uml-arrow="--&gt;" points="1410,182 1410,306 1114,306 1114,1244" fill="none" stroke="#1e293b" stroke-width="2" marker-end="url(#arrow-open)" /><polyline class="uml-relation" data-uml-from="SYS" data-uml-to="UC9" data-uml-arrow="--&gt;" points="926,150 926,306 2034,306 2034,721" fill="none" stroke="#1e293b" stroke-width="2" marker-end="url(#arrow-open)" /><polyline class="uml-relation" data-uml-from="SYS" data-uml-to="UC10" data-uml-arrow="--&gt;" points="926,150 926,306 1590,306 1590,341" fill="none" stroke="#1e293b" stroke-width="2" marker-end="url(#arrow-open)" /><polyline class="uml-relation" data-uml-from="SYS" data-uml-to="UC11" data-uml-arrow="--&gt;" points="926,150 926,306 2182,306 2182,911" fill="none" stroke="#1e293b" stroke-width="2" marker-end="url(#arrow-open)" /><polyline class="uml-relation" data-uml-from="UC3" data-uml-to="UC9" data-uml-arrow="..&gt;" points="334,341 334,673 2034,673 2034,721" fill="none" stroke="#1e293b" stroke-width="2" stroke-dasharray="5 3" marker-end="url(#arrow-open)" /><text class="uml-edge-label" data-uml-label-role="edge" x="1184" y="647" text-anchor="middle" font-family="monospace" font-size="11" fill="#334155">triggers</text><polyline class="uml-relation" data-uml-from="UC9" data-uml-to="UC11" data-uml-arrow="..&gt;" points="2142,752 2142,871 2290,871 2290,880" fill="none" stroke="#1e293b" stroke-width="2" stroke-dasharray="5 3" marker-end="url(#arrow-open)" /><text class="uml-edge-label" data-uml-label-role="edge" x="2216" y="845" text-anchor="middle" font-family="monospace" font-size="11" fill="#334155">triggers</text><polyline class="uml-relation" data-uml-from="UC10" data-uml-to="UC7" data-uml-arrow=".&gt;" points="1698,372 1698,673 1262,673 1262,1434" fill="none" stroke="#1e293b" stroke-width="2" stroke-dasharray="5 3" marker-end="url(#arrow-open)" /><rect class="uml-edge-label-bg" data-uml-label-role="edge-background" x="1239" y="1028" width="74" height="18" fill="white" opacity="0.85"/><rect class="uml-edge-label-bg" data-uml-label-role="edge-background" x="1239" y="1028" width="74" height="18" fill="white" opacity="0.85"/><text class="uml-edge-label" data-uml-label-role="edge" x="1276" y="1041" text-anchor="middle" font-family="monospace" font-size="11" fill="#334155">&lt;&lt;extend&gt;&gt;</text><rect class="uml-group-frame" data-uml-group="Automation Engine" x="1570" y="238" width="848" height="724" rx="6" ry="6" fill="none" stroke="#6366f1" stroke-width="1.5" stroke-dasharray="5 3"/><rect x="1570" y="238" width="152" height="24" rx="6" ry="6" fill="#ffffff" stroke="#6366f1" stroke-width="1.5"/><rect x="1570" y="254" width="152" height="8" fill="#ffffff" stroke="none"/><text x="1578" y="254" font-family="monospace" font-size="11" font-weight="600" fill="#4338ca">Automation Engine</text><line x1="1570" y1="262" x2="2418" y2="262" stroke="#6366f1" stroke-width="1"/><rect class="uml-group-frame" data-uml-group="Customer Portal" x="98" y="238" width="1440" height="154" rx="6" ry="6" fill="none" stroke="#6366f1" stroke-width="1.5" stroke-dasharray="5 3"/><rect x="98" y="238" width="136" height="24" rx="6" ry="6" fill="#ffffff" stroke="#6366f1" stroke-width="1.5"/><rect x="98" y="254" width="136" height="8" fill="#ffffff" stroke="none"/><text x="106" y="254" font-family="monospace" font-size="11" font-weight="600" fill="#4338ca">Customer Portal</text><line x1="98" y1="262" x2="1538" y2="262" stroke="#6366f1" stroke-width="1"/><rect class="uml-group-frame" data-uml-group="Support Console" x="986" y="982" width="1144" height="534" rx="6" ry="6" fill="none" stroke="#6366f1" stroke-width="1.5" stroke-dasharray="5 3"/><rect x="986" y="982" width="136" height="24" rx="6" ry="6" fill="#ffffff" stroke="#6366f1" stroke-width="1.5"/><rect x="986" y="998" width="136" height="8" fill="#ffffff" stroke="none"/><text x="994" y="998" font-family="monospace" font-size="11" font-weight="600" fill="#4338ca">Support Console</text><line x1="986" y1="1006" x2="2130" y2="1006" stroke="#6366f1" stroke-width="1"/><circle cx="1114" cy="124" r="6" fill="none" stroke="#1e293b" stroke-width="1.5"/><line x1="1114" y1="130" x2="1114" y2="144" stroke="#1e293b" stroke-width="1.5"/><line x1="1104" y1="134" x2="1124" y2="134" stroke="#1e293b" stroke-width="1.5"/><line x1="1114" y1="144" x2="1106" y2="160" stroke="#1e293b" stroke-width="1.5"/><line x1="1114" y1="144" x2="1122" y2="160" stroke="#1e293b" stroke-width="1.5"/><text x="1114" y="166" text-anchor="middle" font-family="monospace" font-size="13" font-weight="600" fill="#0f172a">Customer</text><circle cx="1410" cy="124" r="6" fill="none" stroke="#1e293b" stroke-width="1.5"/><line x1="1410" y1="130" x2="1410" y2="144" stroke="#1e293b" stroke-width="1.5"/><line x1="1400" y1="134" x2="1420" y2="134" stroke="#1e293b" stroke-width="1.5"/><line x1="1410" y1="144" x2="1402" y2="160" stroke="#1e293b" stroke-width="1.5"/><line x1="1410" y1="144" x2="1418" y2="160" stroke="#1e293b" stroke-width="1.5"/><text x="1410" y="166" text-anchor="middle" font-family="monospace" font-size="13" font-weight="600" fill="#0f172a">Support Agent</text><circle cx="818" cy="124" r="6" fill="none" stroke="#1e293b" stroke-width="1.5"/><line x1="818" y1="130" x2="818" y2="144" stroke="#1e293b" stroke-width="1.5"/><line x1="808" y1="134" x2="828" y2="134" stroke="#1e293b" stroke-width="1.5"/><line x1="818" y1="144" x2="810" y2="160" stroke="#1e293b" stroke-width="1.5"/><line x1="818" y1="144" x2="826" y2="160" stroke="#1e293b" stroke-width="1.5"/><text x="818" y="166" text-anchor="middle" font-family="monospace" font-size="13" font-weight="600" fill="#0f172a">System</text><ellipse cx="818" cy="341" rx="108" ry="31" fill="#ffffff" stroke="#1e293b" stroke-width="1.5"/><text x="818" y="345" text-anchor="middle" font-family="monospace" font-size="13" font-weight="600" fill="#0f172a">Login</text><ellipse cx="1114" cy="341" rx="108" ry="31" fill="#ffffff" stroke="#1e293b" stroke-width="1.5"/><text x="1114" y="345" text-anchor="middle" font-family="monospace" font-size="13" font-weight="600" fill="#0f172a">View Orders</text><ellipse cx="226" cy="341" rx="108" ry="31" fill="#ffffff" stroke="#1e293b" stroke-width="1.5"/><text x="226" y="345" text-anchor="middle" font-family="monospace" font-size="13" font-weight="600" fill="#0f172a">Open Ticket</text><ellipse cx="1410" cy="341" rx="108" ry="31" fill="#ffffff" stroke="#1e293b" stroke-width="1.5"/><text x="1410" y="345" text-anchor="middle" font-family="monospace" font-size="13" font-weight="600" fill="#0f172a">Chat with Agent</text><ellipse cx="1706" cy="1085" rx="108" ry="31" fill="#ffffff" stroke="#1e293b" stroke-width="1.5"/><text x="1706" y="1089" text-anchor="middle" font-family="monospace" font-size="13" font-weight="600" fill="#0f172a">View Queue</text><ellipse cx="2002" cy="1085" rx="108" ry="31" fill="#ffffff" stroke="#1e293b" stroke-width="1.5"/><text x="2002" y="1089" text-anchor="middle" font-family="monospace" font-size="13" font-weight="600" fill="#0f172a">Respond to Ticket</text><ellipse cx="1262" cy="1465" rx="108" ry="31" fill="#ffffff" stroke="#1e293b" stroke-width="1.5"/><text x="1262" y="1469" text-anchor="middle" font-family="monospace" font-size="13" font-weight="600" fill="#0f172a">Escalate Issue</text><ellipse cx="1114" cy="1275" rx="108" ry="31" fill="#ffffff" stroke="#1e293b" stroke-width="1.5"/><text x="1114" y="1279" text-anchor="middle" font-family="monospace" font-size="13" font-weight="600" fill="#0f172a">Close Ticket</text><ellipse cx="2142" cy="721" rx="108" ry="31" fill="#ffffff" stroke="#1e293b" stroke-width="1.5"/><text x="2142" y="725" text-anchor="middle" font-family="monospace" font-size="13" font-weight="600" fill="#0f172a">Auto-tag Ticket</text><ellipse cx="1698" cy="341" rx="108" ry="31" fill="#ffffff" stroke="#1e293b" stroke-width="1.5"/><text x="1698" y="345" text-anchor="middle" font-family="monospace" font-size="13" font-weight="600" fill="#0f172a">Send SLA Alert</text><ellipse cx="2290" cy="911" rx="108" ry="31" fill="#ffffff" stroke="#1e293b" stroke-width="1.5"/><text x="2290" y="915" text-anchor="middle" font-family="monospace" font-size="13" font-weight="600" fill="#0f172a">Route to Agent</text></svg>