<svg xmlns="http://www.w3.org/2000/svg" width="4706" height="910" viewBox="0 0 4706 910" data-orientation="TopToBottom"><rect width="100%" height="100%" fill="#ffffff"/><defs><marker id="arrow-open" viewBox="0 0 10 10" refX="9" refY="5" markerWidth="10" markerHeight="10" markerUnits="userSpaceOnUse" orient="auto-start-reverse"><path d="M0,0 L10,5 L0,10" fill="none" stroke="#1e293b" stroke-width="1.5"/></marker><marker id="arrow-triangle" viewBox="0 0 16 16" refX="15" refY="8" markerWidth="16" markerHeight="16" markerUnits="userSpaceOnUse" orient="auto-start-reverse"><polygon points="0,1 14,8 0,15" fill="#ffffff" stroke="#1e293b" stroke-width="1.5" fill-rule="nonzero"/></marker><marker id="arrow-diamond-filled" viewBox="0 0 14 10" refX="13" refY="5" markerWidth="14" markerHeight="10" markerUnits="userSpaceOnUse" orient="auto-start-reverse"><path d="M0,5 L7,0 L14,5 L7,10 z" fill="#1e293b" stroke="#1e293b" stroke-width="1"/></marker><marker id="arrow-diamond-open" viewBox="0 0 14 10" refX="13" refY="5" markerWidth="14" markerHeight="10" markerUnits="userSpaceOnUse" orient="auto-start-reverse"><path d="M0,5 L7,0 L14,5 L7,10 z" fill="#ffffff" stroke="#1e293b" stroke-width="1"/></marker></defs><text x="32" y="32" font-family="monospace" font-size="18" font-weight="600" fill="#0f172a">Multiple system boundaries with actor inheritance</text><polyline class="uml-relation" data-uml-from="C" data-uml-to="UC1" data-uml-arrow="--&gt;" points="630,150 630,306 1006,306 1006,137" fill="none" stroke="#1e293b" stroke-width="2" marker-end="url(#arrow-open)" /><polyline class="uml-relation" data-uml-from="C" data-uml-to="UC2" data-uml-arrow="--&gt;" points="630,150 630,306 1894,306 1894,137" fill="none" stroke="#1e293b" stroke-width="2" marker-end="url(#arrow-open)" /><polyline class="uml-relation" data-uml-from="C" data-uml-to="UC3" data-uml-arrow="--&gt;" points="630,150 630,306 2190,306 2190,137" fill="none" stroke="#1e293b" stroke-width="2" marker-end="url(#arrow-open)" /><polyline class="uml-relation" data-uml-from="C" data-uml-to="UC4" data-uml-arrow="--&gt;" points="630,150 630,306 2486,306 2486,137" fill="none" stroke="#1e293b" stroke-width="2" marker-end="url(#arrow-open)" /><polyline class="uml-relation" data-uml-from="SA" data-uml-to="UC5" data-uml-arrow="--&gt;" points="926,150 926,306 2782,306 2782,137" fill="none" stroke="#1e293b" stroke-width="2" marker-end="url(#arrow-open)" /><polyline class="uml-relation" data-uml-from="SA" data-uml-to="UC6" data-uml-arrow="--&gt;" points="926,150 926,306 3078,306 3078,137" fill="none" stroke="#1e293b" stroke-width="2" marker-end="url(#arrow-open)" /><polyline class="uml-relation" data-uml-from="SA" data-uml-to="UC7" data-uml-arrow="--&gt;" points="926,150 926,306 3374,306 3374,137" fill="none" stroke="#1e293b" stroke-width="2" marker-end="url(#arrow-open)" /><polyline class="uml-relation" data-uml-from="SA" data-uml-to="UC8" data-uml-arrow="--&gt;" points="926,150 926,306 3670,306 3670,137" fill="none" stroke="#1e293b" stroke-width="2" marker-end="url(#arrow-open)" /><polyline class="uml-relation" data-uml-from="SYS" data-uml-to="UC9" data-uml-arrow="--&gt;" points="334,150 334,306 3966,306 3966,137" fill="none" stroke="#1e293b" stroke-width="2" marker-end="url(#arrow-open)" /><polyline class="uml-relation" data-uml-from="SYS" data-uml-to="UC10" data-uml-arrow="--&gt;" points="334,150 334,306 1302,306 1302,137" fill="none" stroke="#1e293b" stroke-width="2" marker-end="url(#arrow-open)" /><polyline class="uml-relation" data-uml-from="SYS" data-uml-to="UC11" data-uml-arrow="--&gt;" points="334,150 334,306 1598,306 1598,137" fill="none" stroke="#1e293b" stroke-width="2" marker-end="url(#arrow-open)" /><polyline class="uml-relation" data-uml-from="UC3" data-uml-to="UC9" data-uml-arrow="..&gt;" points="2406,137 2406,481 3966,481 3966,137" fill="none" stroke="#1e293b" stroke-width="2" stroke-dasharray="5 3" marker-end="url(#arrow-open)" /><text x="2921" y="469" text-anchor="middle" font-family="monospace" font-size="11" fill="#334155">triggers</text><polyline class="uml-relation" data-uml-from="UC9" data-uml-to="UC11" data-uml-arrow="..&gt;" points="3966,137 3966,630 1814,630 1814,137" fill="none" stroke="#1e293b" stroke-width="2" stroke-dasharray="5 3" marker-end="url(#arrow-open)" /><text x="2890" y="604" text-anchor="middle" font-family="monospace" font-size="11" fill="#334155">triggers</text><polyline class="uml-relation" data-uml-from="UC10" data-uml-to="UC7" data-uml-arrow=".&gt;" points="1518,137 1518,491 3374,491 3374,137" fill="none" stroke="#1e293b" stroke-width="2" stroke-dasharray="5 3" marker-end="url(#arrow-open)" /><text x="2990" y="479" text-anchor="middle" font-family="monospace" font-size="11" fill="#334155">&lt;&lt;extend&gt;&gt;</text><rect class="uml-group-frame" data-uml-group="Automation Engine" x="3634" y="238" width="996" height="534" rx="6" ry="6" fill="none" stroke="#6366f1" stroke-width="1.5" stroke-dasharray="5 3"/><rect x="3634" y="238" width="152" height="24" rx="6" ry="6" fill="#ffffff" stroke="#6366f1" stroke-width="1.5"/><rect x="3634" y="254" width="152" height="8" fill="#ffffff" stroke="none"/><text x="3642" y="254" font-family="monospace" font-size="11" font-weight="600" fill="#4338ca">Automation Engine</text><line x1="3634" y1="262" x2="4630" y2="262" stroke="#6366f1" stroke-width="1"/><rect class="uml-group-frame" data-uml-group="Customer Portal" x="986" y="238" width="1440" height="154" rx="6" ry="6" fill="none" stroke="#6366f1" stroke-width="1.5" stroke-dasharray="5 3"/><rect x="986" y="238" width="136" height="24" rx="6" ry="6" fill="#ffffff" stroke="#6366f1" stroke-width="1.5"/><rect x="986" y="254" width="136" height="8" fill="#ffffff" stroke="none"/><text x="994" y="254" font-family="monospace" font-size="11" font-weight="600" fill="#4338ca">Customer Portal</text><line x1="986" y1="262" x2="2426" y2="262" stroke="#6366f1" stroke-width="1"/><rect class="uml-group-frame" data-uml-group="Support Console" x="2458" y="238" width="1144" height="344" rx="6" ry="6" fill="none" stroke="#6366f1" stroke-width="1.5" stroke-dasharray="5 3"/><rect x="2458" y="238" width="136" height="24" rx="6" ry="6" fill="#ffffff" stroke="#6366f1" stroke-width="1.5"/><rect x="2458" y="254" width="136" height="8" fill="#ffffff" stroke="none"/><text x="2466" y="254" font-family="monospace" font-size="11" font-weight="600" fill="#4338ca">Support Console</text><line x1="2458" y1="262" x2="3602" y2="262" stroke="#6366f1" stroke-width="1"/><circle cx="522" cy="124" r="6" fill="none" stroke="#1e293b" stroke-width="1.5"/><line x1="522" y1="130" x2="522" y2="144" stroke="#1e293b" stroke-width="1.5"/><line x1="512" y1="134" x2="532" y2="134" stroke="#1e293b" stroke-width="1.5"/><line x1="522" y1="144" x2="514" y2="160" stroke="#1e293b" stroke-width="1.5"/><line x1="522" y1="144" x2="530" y2="160" stroke="#1e293b" stroke-width="1.5"/><text x="522" y="166" text-anchor="middle" font-family="monospace" font-size="13" font-weight="600" fill="#0f172a">Customer</text><circle cx="818" cy="124" r="6" fill="none" stroke="#1e293b" stroke-width="1.5"/><line x1="818" y1="130" x2="818" y2="144" stroke="#1e293b" stroke-width="1.5"/><line x1="808" y1="134" x2="828" y2="134" stroke="#1e293b" stroke-width="1.5"/><line x1="818" y1="144" x2="810" y2="160" stroke="#1e293b" stroke-width="1.5"/><line x1="818" y1="144" x2="826" y2="160" stroke="#1e293b" stroke-width="1.5"/><text x="818" y="166" text-anchor="middle" font-family="monospace" font-size="13" font-weight="600" fill="#0f172a">Support Agent</text><circle cx="226" cy="124" r="6" fill="none" stroke="#1e293b" stroke-width="1.5"/><line x1="226" y1="130" x2="226" y2="144" stroke="#1e293b" stroke-width="1.5"/><line x1="216" y1="134" x2="236" y2="134" stroke="#1e293b" stroke-width="1.5"/><line x1="226" y1="144" x2="218" y2="160" stroke="#1e293b" stroke-width="1.5"/><line x1="226" y1="144" x2="234" y2="160" stroke="#1e293b" stroke-width="1.5"/><text x="226" y="166" text-anchor="middle" font-family="monospace" font-size="13" font-weight="600" fill="#0f172a">System</text><ellipse cx="1706" cy="341" rx="108" ry="31" fill="#ffffff" stroke="#1e293b" stroke-width="1.5"/><text x="1706" y="345" text-anchor="middle" font-family="monospace" font-size="13" font-weight="600" fill="#0f172a">Login</text><ellipse cx="2002" cy="341" rx="108" ry="31" fill="#ffffff" stroke="#1e293b" stroke-width="1.5"/><text x="2002" y="345" text-anchor="middle" font-family="monospace" font-size="13" font-weight="600" fill="#0f172a">View Orders</text><ellipse cx="1114" cy="341" rx="108" ry="31" fill="#ffffff" stroke="#1e293b" stroke-width="1.5"/><text x="1114" y="345" text-anchor="middle" font-family="monospace" font-size="13" font-weight="600" fill="#0f172a">Open Ticket</text><ellipse cx="2298" cy="341" rx="108" ry="31" fill="#ffffff" stroke="#1e293b" stroke-width="1.5"/><text x="2298" y="345" text-anchor="middle" font-family="monospace" font-size="13" font-weight="600" fill="#0f172a">Chat with Agent</text><ellipse cx="2882" cy="341" rx="108" ry="31" fill="#ffffff" stroke="#1e293b" stroke-width="1.5"/><text x="2882" y="345" text-anchor="middle" font-family="monospace" font-size="13" font-weight="600" fill="#0f172a">View Queue</text><ellipse cx="3178" cy="341" rx="108" ry="31" fill="#ffffff" stroke="#1e293b" stroke-width="1.5"/><text x="3178" y="345" text-anchor="middle" font-family="monospace" font-size="13" font-weight="600" fill="#0f172a">Respond to Ticket</text><ellipse cx="2586" cy="531" rx="108" ry="31" fill="#ffffff" stroke="#1e293b" stroke-width="1.5"/><text x="2586" y="535" text-anchor="middle" font-family="monospace" font-size="13" font-weight="600" fill="#0f172a">Escalate Issue</text><ellipse cx="3474" cy="341" rx="108" ry="31" fill="#ffffff" stroke="#1e293b" stroke-width="1.5"/><text x="3474" y="345" text-anchor="middle" font-family="monospace" font-size="13" font-weight="600" fill="#0f172a">Close Ticket</text><ellipse cx="4354" cy="531" rx="108" ry="31" fill="#ffffff" stroke="#1e293b" stroke-width="1.5"/><text x="4354" y="535" text-anchor="middle" font-family="monospace" font-size="13" font-weight="600" fill="#0f172a">Auto-tag Ticket</text><ellipse cx="3762" cy="341" rx="108" ry="31" fill="#ffffff" stroke="#1e293b" stroke-width="1.5"/><text x="3762" y="345" text-anchor="middle" font-family="monospace" font-size="13" font-weight="600" fill="#0f172a">Send SLA Alert</text><ellipse cx="4502" cy="721" rx="108" ry="31" fill="#ffffff" stroke="#1e293b" stroke-width="1.5"/><text x="4502" y="725" text-anchor="middle" font-family="monospace" font-size="13" font-weight="600" fill="#0f172a">Route to Agent</text><ellipse cx="1114" cy="137" rx="108" ry="19" fill="#ffffff" stroke="#1e293b" stroke-width="1.5"/><text x="1114" y="141" text-anchor="middle" font-family="monospace" font-size="13" font-weight="600" fill="#0f172a">UC1</text><ellipse cx="2002" cy="137" rx="108" ry="19" fill="#ffffff" stroke="#1e293b" stroke-width="1.5"/><text x="2002" y="141" text-anchor="middle" font-family="monospace" font-size="13" font-weight="600" fill="#0f172a">UC2</text><ellipse cx="2298" cy="137" rx="108" ry="19" fill="#ffffff" stroke="#1e293b" stroke-width="1.5"/><text x="2298" y="141" text-anchor="middle" font-family="monospace" font-size="13" font-weight="600" fill="#0f172a">UC3</text><ellipse cx="2594" cy="137" rx="108" ry="19" fill="#ffffff" stroke="#1e293b" stroke-width="1.5"/><text x="2594" y="141" text-anchor="middle" font-family="monospace" font-size="13" font-weight="600" fill="#0f172a">UC4</text><ellipse cx="2890" cy="137" rx="108" ry="19" fill="#ffffff" stroke="#1e293b" stroke-width="1.5"/><text x="2890" y="141" text-anchor="middle" font-family="monospace" font-size="13" font-weight="600" fill="#0f172a">UC5</text><ellipse cx="3186" cy="137" rx="108" ry="19" fill="#ffffff" stroke="#1e293b" stroke-width="1.5"/><text x="3186" y="141" text-anchor="middle" font-family="monospace" font-size="13" font-weight="600" fill="#0f172a">UC6</text><ellipse cx="3482" cy="137" rx="108" ry="19" fill="#ffffff" stroke="#1e293b" stroke-width="1.5"/><text x="3482" y="141" text-anchor="middle" font-family="monospace" font-size="13" font-weight="600" fill="#0f172a">UC7</text><ellipse cx="3778" cy="137" rx="108" ry="19" fill="#ffffff" stroke="#1e293b" stroke-width="1.5"/><text x="3778" y="141" text-anchor="middle" font-family="monospace" font-size="13" font-weight="600" fill="#0f172a">UC8</text><ellipse cx="4074" cy="137" rx="108" ry="19" fill="#ffffff" stroke="#1e293b" stroke-width="1.5"/><text x="4074" y="141" text-anchor="middle" font-family="monospace" font-size="13" font-weight="600" fill="#0f172a">UC9</text><ellipse cx="1410" cy="137" rx="108" ry="19" fill="#ffffff" stroke="#1e293b" stroke-width="1.5"/><text x="1410" y="141" text-anchor="middle" font-family="monospace" font-size="13" font-weight="600" fill="#0f172a">UC10</text><ellipse cx="1706" cy="137" rx="108" ry="19" fill="#ffffff" stroke="#1e293b" stroke-width="1.5"/><text x="1706" y="141" text-anchor="middle" font-family="monospace" font-size="13" font-weight="600" fill="#0f172a">UC11</text></svg>