<svg xmlns="http://www.w3.org/2000/svg" width="3818" height="760" viewBox="0 0 3818 760" data-orientation="TopToBottom"><rect width="100%" height="100%" fill="#ffffff"/><defs><marker id="arrow-open" viewBox="0 0 10 10" refX="9" refY="5" markerWidth="10" markerHeight="10" markerUnits="userSpaceOnUse" orient="auto-start-reverse"><path d="M0,0 L10,5 L0,10" fill="none" stroke="#1e293b" stroke-width="1.5"/></marker><marker id="arrow-triangle" viewBox="0 0 16 16" refX="15" refY="8" markerWidth="16" markerHeight="16" markerUnits="userSpaceOnUse" orient="auto-start-reverse"><polygon points="0,1 14,8 0,15" fill="#ffffff" stroke="#1e293b" stroke-width="1.5" fill-rule="nonzero"/></marker><marker id="arrow-diamond-filled" viewBox="0 0 14 10" refX="13" refY="5" markerWidth="14" markerHeight="10" markerUnits="userSpaceOnUse" orient="auto-start-reverse"><path d="M0,5 L7,0 L14,5 L7,10 z" fill="#1e293b" stroke="#1e293b" stroke-width="1"/></marker><marker id="arrow-diamond-open" viewBox="0 0 14 10" refX="13" refY="5" markerWidth="14" markerHeight="10" markerUnits="userSpaceOnUse" orient="auto-start-reverse"><path d="M0,5 L7,0 L14,5 L7,10 z" fill="#ffffff" stroke="#1e293b" stroke-width="1"/></marker></defs><text x="32" y="32" font-family="monospace" font-size="18" font-weight="600" fill="#0f172a">Multiple system boundaries with actor inheritance</text><polyline class="uml-relation" data-uml-from="C" data-uml-to="UC1" data-uml-arrow="--&gt;" points="1154,150 1154,256 926,256 926,291" fill="none" stroke="#1e293b" stroke-width="2" marker-end="url(#arrow-open)" /><polyline class="uml-relation" data-uml-from="C" data-uml-to="UC2" data-uml-arrow="--&gt;" points="1154,150 1154,256 1222,256 1222,291" fill="none" stroke="#1e293b" stroke-width="2" marker-end="url(#arrow-open)" /><polyline class="uml-relation" data-uml-from="C" data-uml-to="UC3" data-uml-arrow="--&gt;" points="1154,150 1154,256 334,256 334,291" fill="none" stroke="#1e293b" stroke-width="2" marker-end="url(#arrow-open)" /><polyline class="uml-relation" data-uml-from="C" data-uml-to="UC4" data-uml-arrow="--&gt;" points="1370,150 1370,256 1302,256 1302,291" fill="none" stroke="#1e293b" stroke-width="2" marker-end="url(#arrow-open)" /><polyline class="uml-relation" data-uml-from="SA" data-uml-to="UC5" data-uml-arrow="--&gt;" points="1666,150 1666,256 1886,256 1886,291" fill="none" stroke="#1e293b" stroke-width="2" marker-end="url(#arrow-open)" /><polyline class="uml-relation" data-uml-from="SA" data-uml-to="UC6" data-uml-arrow="--&gt;" points="1666,150 1666,256 2182,256 2182,291" fill="none" stroke="#1e293b" stroke-width="2" marker-end="url(#arrow-open)" /><polyline class="uml-relation" data-uml-from="SA" data-uml-to="UC7" data-uml-arrow="--&gt;" points="1558,182 1558,253 1698,253 1698,400" fill="none" stroke="#1e293b" stroke-width="2" marker-end="url(#arrow-open)" /><polyline class="uml-relation" data-uml-from="SA" data-uml-to="UC8" data-uml-arrow="--&gt;" points="1666,150 1666,256 2478,256 2478,291" fill="none" stroke="#1e293b" stroke-width="2" marker-end="url(#arrow-open)" /><polyline class="uml-relation" data-uml-from="SYS" data-uml-to="UC9" data-uml-arrow="--&gt;" points="1074,150 1074,256 3358,256 3358,431" fill="none" stroke="#1e293b" stroke-width="2" marker-end="url(#arrow-open)" /><polyline class="uml-relation" data-uml-from="SYS" data-uml-to="UC10" data-uml-arrow="--&gt;" points="1074,150 1074,256 2766,256 2766,291" fill="none" stroke="#1e293b" stroke-width="2" marker-end="url(#arrow-open)" /><polyline class="uml-relation" data-uml-from="SYS" data-uml-to="UC11" data-uml-arrow="--&gt;" points="1074,150 1074,256 3506,256 3506,571" fill="none" stroke="#1e293b" stroke-width="2" marker-end="url(#arrow-open)" /><polyline class="uml-relation" data-uml-from="UC3" data-uml-to="UC9" data-uml-arrow="..&gt;" points="334,291 334,396 3358,396 3358,431" fill="none" stroke="#1e293b" stroke-width="2" stroke-dasharray="5 3" marker-end="url(#arrow-open)" /><text x="2033" y="384" text-anchor="middle" font-family="monospace" font-size="11" fill="#334155">triggers</text><polyline class="uml-relation" data-uml-from="UC9" data-uml-to="UC11" data-uml-arrow="..&gt;" points="3574,431 3574,505 3506,505 3506,571" fill="none" stroke="#1e293b" stroke-width="2" stroke-dasharray="5 3" marker-end="url(#arrow-open)" /><text x="3554" y="493" text-anchor="middle" font-family="monospace" font-size="11" fill="#334155">triggers</text><polyline class="uml-relation" data-uml-from="UC10" data-uml-to="UC7" data-uml-arrow=".&gt;" points="2766,291 2766,396 1806,396 1806,431" fill="none" stroke="#1e293b" stroke-width="2" stroke-dasharray="5 3" marker-end="url(#arrow-open)" /><text x="2102" y="384" text-anchor="middle" font-family="monospace" font-size="11" fill="#334155">&lt;&lt;extend&gt;&gt;</text><rect class="uml-group-frame" data-uml-group="Automation Engine" x="2746" y="188" width="996" height="434" rx="6" ry="6" fill="none" stroke="#6366f1" stroke-width="1.5" stroke-dasharray="5 3"/><rect x="2746" y="188" width="152" height="24" rx="6" ry="6" fill="#ffffff" stroke="#6366f1" stroke-width="1.5"/><rect x="2746" y="204" width="152" height="8" fill="#ffffff" stroke="none"/><text x="2754" y="204" font-family="monospace" font-size="11" font-weight="600" fill="#4338ca">Automation Engine</text><line x1="2746" y1="212" x2="3742" y2="212" stroke="#6366f1" stroke-width="1"/><rect class="uml-group-frame" data-uml-group="Customer Portal" x="98" y="188" width="1440" height="154" rx="6" ry="6" fill="none" stroke="#6366f1" stroke-width="1.5" stroke-dasharray="5 3"/><rect x="98" y="188" width="136" height="24" rx="6" ry="6" fill="#ffffff" stroke="#6366f1" stroke-width="1.5"/><rect x="98" y="204" width="136" height="8" fill="#ffffff" stroke="none"/><text x="106" y="204" font-family="monospace" font-size="11" font-weight="600" fill="#4338ca">Customer Portal</text><line x1="98" y1="212" x2="1538" y2="212" stroke="#6366f1" stroke-width="1"/><rect class="uml-group-frame" data-uml-group="Support Console" x="1570" y="188" width="1144" height="294" rx="6" ry="6" fill="none" stroke="#6366f1" stroke-width="1.5" stroke-dasharray="5 3"/><rect x="1570" y="188" width="136" height="24" rx="6" ry="6" fill="#ffffff" stroke="#6366f1" stroke-width="1.5"/><rect x="1570" y="204" width="136" height="8" fill="#ffffff" stroke="none"/><text x="1578" y="204" font-family="monospace" font-size="11" font-weight="600" fill="#4338ca">Support Console</text><line x1="1570" y1="212" x2="2714" y2="212" stroke="#6366f1" stroke-width="1"/><circle cx="1262" cy="124" r="6" fill="none" stroke="#1e293b" stroke-width="1.5"/><line x1="1262" y1="130" x2="1262" y2="144" stroke="#1e293b" stroke-width="1.5"/><line x1="1252" y1="134" x2="1272" y2="134" stroke="#1e293b" stroke-width="1.5"/><line x1="1262" y1="144" x2="1254" y2="160" stroke="#1e293b" stroke-width="1.5"/><line x1="1262" y1="144" x2="1270" y2="160" stroke="#1e293b" stroke-width="1.5"/><text x="1262" y="166" text-anchor="middle" font-family="monospace" font-size="13" font-weight="600" fill="#0f172a">Customer</text><circle cx="1558" cy="124" r="6" fill="none" stroke="#1e293b" stroke-width="1.5"/><line x1="1558" y1="130" x2="1558" y2="144" stroke="#1e293b" stroke-width="1.5"/><line x1="1548" y1="134" x2="1568" y2="134" stroke="#1e293b" stroke-width="1.5"/><line x1="1558" y1="144" x2="1550" y2="160" stroke="#1e293b" stroke-width="1.5"/><line x1="1558" y1="144" x2="1566" y2="160" stroke="#1e293b" stroke-width="1.5"/><text x="1558" y="166" text-anchor="middle" font-family="monospace" font-size="13" font-weight="600" fill="#0f172a">Support Agent</text><circle cx="966" cy="124" r="6" fill="none" stroke="#1e293b" stroke-width="1.5"/><line x1="966" y1="130" x2="966" y2="144" stroke="#1e293b" stroke-width="1.5"/><line x1="956" y1="134" x2="976" y2="134" stroke="#1e293b" stroke-width="1.5"/><line x1="966" y1="144" x2="958" y2="160" stroke="#1e293b" stroke-width="1.5"/><line x1="966" y1="144" x2="974" y2="160" stroke="#1e293b" stroke-width="1.5"/><text x="966" y="166" text-anchor="middle" font-family="monospace" font-size="13" font-weight="600" fill="#0f172a">System</text><ellipse cx="818" cy="291" rx="108" ry="31" fill="#ffffff" stroke="#1e293b" stroke-width="1.5"/><text x="818" y="295" text-anchor="middle" font-family="monospace" font-size="13" font-weight="600" fill="#0f172a">Login</text><ellipse cx="1114" cy="291" rx="108" ry="31" fill="#ffffff" stroke="#1e293b" stroke-width="1.5"/><text x="1114" y="295" text-anchor="middle" font-family="monospace" font-size="13" font-weight="600" fill="#0f172a">View Orders</text><ellipse cx="226" cy="291" rx="108" ry="31" fill="#ffffff" stroke="#1e293b" stroke-width="1.5"/><text x="226" y="295" text-anchor="middle" font-family="monospace" font-size="13" font-weight="600" fill="#0f172a">Open Ticket</text><ellipse cx="1410" cy="291" rx="108" ry="31" fill="#ffffff" stroke="#1e293b" stroke-width="1.5"/><text x="1410" y="295" text-anchor="middle" font-family="monospace" font-size="13" font-weight="600" fill="#0f172a">Chat with Agent</text><ellipse cx="1994" cy="291" rx="108" ry="31" fill="#ffffff" stroke="#1e293b" stroke-width="1.5"/><text x="1994" y="295" text-anchor="middle" font-family="monospace" font-size="13" font-weight="600" fill="#0f172a">View Queue</text><ellipse cx="2290" cy="291" rx="108" ry="31" fill="#ffffff" stroke="#1e293b" stroke-width="1.5"/><text x="2290" y="295" text-anchor="middle" font-family="monospace" font-size="13" font-weight="600" fill="#0f172a">Respond to Ticket</text><ellipse cx="1698" cy="431" rx="108" ry="31" fill="#ffffff" stroke="#1e293b" stroke-width="1.5"/><text x="1698" y="435" text-anchor="middle" font-family="monospace" font-size="13" font-weight="600" fill="#0f172a">Escalate Issue</text><ellipse cx="2586" cy="291" rx="108" ry="31" fill="#ffffff" stroke="#1e293b" stroke-width="1.5"/><text x="2586" y="295" text-anchor="middle" font-family="monospace" font-size="13" font-weight="600" fill="#0f172a">Close Ticket</text><ellipse cx="3466" cy="431" rx="108" ry="31" fill="#ffffff" stroke="#1e293b" stroke-width="1.5"/><text x="3466" y="435" text-anchor="middle" font-family="monospace" font-size="13" font-weight="600" fill="#0f172a">Auto-tag Ticket</text><ellipse cx="2874" cy="291" rx="108" ry="31" fill="#ffffff" stroke="#1e293b" stroke-width="1.5"/><text x="2874" y="295" text-anchor="middle" font-family="monospace" font-size="13" font-weight="600" fill="#0f172a">Send SLA Alert</text><ellipse cx="3614" cy="571" rx="108" ry="31" fill="#ffffff" stroke="#1e293b" stroke-width="1.5"/><text x="3614" y="575" text-anchor="middle" font-family="monospace" font-size="13" font-weight="600" fill="#0f172a">Route to Agent</text></svg>