<svg xmlns="http://www.w3.org/2000/svg" width="3818" height="910" viewBox="0 0 3818 910"><rect width="100%" height="100%" fill="#ffffff"/><defs><marker id="arrow-open" viewBox="0 0 10 10" refX="9" refY="5" markerWidth="10" markerHeight="10" markerUnits="userSpaceOnUse" orient="auto-start-reverse"><path d="M0,0 L10,5 L0,10" fill="none" stroke="#1e293b" stroke-width="1.5"/></marker><marker id="arrow-triangle" viewBox="0 0 16 16" refX="15" refY="8" markerWidth="16" markerHeight="16" markerUnits="userSpaceOnUse" orient="auto-start-reverse"><polygon points="0,1 14,8 0,15" fill="#ffffff" stroke="#1e293b" stroke-width="1.5" fill-rule="nonzero"/></marker><marker id="arrow-diamond-filled" viewBox="0 0 14 10" refX="13" refY="5" markerWidth="14" markerHeight="10" markerUnits="userSpaceOnUse" orient="auto-start-reverse"><path d="M0,5 L7,0 L14,5 L7,10 z" fill="#1e293b" stroke="#1e293b" stroke-width="1"/></marker><marker id="arrow-diamond-open" viewBox="0 0 14 10" refX="13" refY="5" markerWidth="14" markerHeight="10" markerUnits="userSpaceOnUse" orient="auto-start-reverse"><path d="M0,5 L7,0 L14,5 L7,10 z" fill="#ffffff" stroke="#1e293b" stroke-width="1"/></marker></defs><text x="32" y="32" font-family="monospace" font-size="18" font-weight="600" fill="#0f172a">Multiple system boundaries with actor inheritance</text><polyline class="uml-relation" data-uml-from="C" data-uml-to="UC1" data-uml-arrow="--&gt;" points="1154,150 1154,306 926,306 926,341" fill="none" stroke="#1e293b" stroke-width="2" marker-end="url(#arrow-open)" /><polyline class="uml-relation" data-uml-from="C" data-uml-to="UC2" data-uml-arrow="--&gt;" points="1262,182 1262,306 1114,306 1114,310" fill="none" stroke="#1e293b" stroke-width="2" marker-end="url(#arrow-open)" /><polyline class="uml-relation" data-uml-from="C" data-uml-to="UC3" data-uml-arrow="--&gt;" points="1154,150 1154,306 334,306 334,341" fill="none" stroke="#1e293b" stroke-width="2" marker-end="url(#arrow-open)" /><polyline class="uml-relation" data-uml-from="C" data-uml-to="UC4" data-uml-arrow="--&gt;" points="1262,182 1262,306 1410,306 1410,310" fill="none" stroke="#1e293b" stroke-width="2" marker-end="url(#arrow-open)" /><polyline class="uml-relation" data-uml-from="SA" data-uml-to="UC5" data-uml-arrow="--&gt;" points="1666,150 1666,306 1886,306 1886,341" fill="none" stroke="#1e293b" stroke-width="2" marker-end="url(#arrow-open)" /><polyline class="uml-relation" data-uml-from="SA" data-uml-to="UC6" data-uml-arrow="--&gt;" points="1666,150 1666,306 2182,306 2182,341" fill="none" stroke="#1e293b" stroke-width="2" marker-end="url(#arrow-open)" /><polyline class="uml-relation" data-uml-from="SA" data-uml-to="UC7" data-uml-arrow="--&gt;" points="1558,182 1558,306 1698,306 1698,500" fill="none" stroke="#1e293b" stroke-width="2" marker-end="url(#arrow-open)" /><polyline class="uml-relation" data-uml-from="SA" data-uml-to="UC8" data-uml-arrow="--&gt;" points="1666,150 1666,306 2478,306 2478,341" fill="none" stroke="#1e293b" stroke-width="2" marker-end="url(#arrow-open)" /><polyline class="uml-relation" data-uml-from="SYS" data-uml-to="UC9" data-uml-arrow="--&gt;" points="1074,150 1074,306 3358,306 3358,531" fill="none" stroke="#1e293b" stroke-width="2" marker-end="url(#arrow-open)" /><polyline class="uml-relation" data-uml-from="SYS" data-uml-to="UC10" data-uml-arrow="--&gt;" points="1074,150 1074,306 2766,306 2766,341" fill="none" stroke="#1e293b" stroke-width="2" marker-end="url(#arrow-open)" /><polyline class="uml-relation" data-uml-from="SYS" data-uml-to="UC11" data-uml-arrow="--&gt;" points="1074,150 1074,306 3506,306 3506,721" fill="none" stroke="#1e293b" stroke-width="2" marker-end="url(#arrow-open)" /><polyline class="uml-relation" data-uml-from="UC3" data-uml-to="UC9" data-uml-arrow="..&gt;" points="334,341 334,481 3358,481 3358,531" fill="none" stroke="#1e293b" stroke-width="2" stroke-dasharray="5 3" marker-end="url(#arrow-open)" /><text x="2033" y="469" text-anchor="middle" font-family="monospace" font-size="11" fill="#334155">triggers</text><polyline class="uml-relation" data-uml-from="UC9" data-uml-to="UC11" data-uml-arrow="..&gt;" points="3466,562 3466,630 3614,630 3614,690" fill="none" stroke="#1e293b" stroke-width="2" stroke-dasharray="5 3" marker-end="url(#arrow-open)" /><text x="3540" y="604" text-anchor="middle" font-family="monospace" font-size="11" fill="#334155">triggers</text><polyline class="uml-relation" data-uml-from="UC10" data-uml-to="UC7" data-uml-arrow=".&gt;" points="2766,341 2766,491 1806,491 1806,531" fill="none" stroke="#1e293b" stroke-width="2" stroke-dasharray="5 3" marker-end="url(#arrow-open)" /><text x="2102" y="479" text-anchor="middle" font-family="monospace" font-size="11" fill="#334155">&lt;&lt;extend&gt;&gt;</text><rect class="uml-group-frame" data-uml-group="Automation Engine" x="2746" y="238" width="996" height="534" rx="2" ry="2" fill="none" stroke="#6366f1" stroke-width="1.5"/><rect x="2746" y="238" width="152" height="24" rx="2" ry="2" fill="#ffffff" stroke="#6366f1" stroke-width="1.5"/><rect x="2746" y="258" width="152" height="4" fill="#ffffff" stroke="none"/><text x="2754" y="254" font-family="monospace" font-size="11" font-weight="600" fill="#4338ca">Automation Engine</text><line x1="2898" y1="262" x2="3742" y2="262" stroke="#6366f1" stroke-width="1"/><rect class="uml-group-frame" data-uml-group="Customer Portal" x="98" y="238" width="1440" height="154" rx="2" ry="2" fill="none" stroke="#6366f1" stroke-width="1.5"/><rect x="98" y="238" width="136" height="24" rx="2" ry="2" fill="#ffffff" stroke="#6366f1" stroke-width="1.5"/><rect x="98" y="258" width="136" height="4" fill="#ffffff" stroke="none"/><text x="106" y="254" font-family="monospace" font-size="11" font-weight="600" fill="#4338ca">Customer Portal</text><line x1="234" y1="262" x2="1538" y2="262" stroke="#6366f1" stroke-width="1"/><rect class="uml-group-frame" data-uml-group="Support Console" x="1570" y="238" width="1144" height="344" rx="2" ry="2" fill="none" stroke="#6366f1" stroke-width="1.5"/><rect x="1570" y="238" width="136" height="24" rx="2" ry="2" fill="#ffffff" stroke="#6366f1" stroke-width="1.5"/><rect x="1570" y="258" width="136" height="4" fill="#ffffff" stroke="none"/><text x="1578" y="254" font-family="monospace" font-size="11" font-weight="600" fill="#4338ca">Support Console</text><line x1="1706" y1="262" x2="2714" y2="262" stroke="#6366f1" stroke-width="1"/><circle cx="1262" cy="124" r="6" fill="none" stroke="#1e293b" stroke-width="1.5"/><line x1="1262" y1="130" x2="1262" y2="144" stroke="#1e293b" stroke-width="1.5"/><line x1="1252" y1="134" x2="1272" y2="134" stroke="#1e293b" stroke-width="1.5"/><line x1="1262" y1="144" x2="1254" y2="160" stroke="#1e293b" stroke-width="1.5"/><line x1="1262" y1="144" x2="1270" y2="160" stroke="#1e293b" stroke-width="1.5"/><text x="1262" y="166" text-anchor="middle" font-family="monospace" font-size="13" font-weight="600" fill="#0f172a">Customer</text><circle cx="1558" cy="124" r="6" fill="none" stroke="#1e293b" stroke-width="1.5"/><line x1="1558" y1="130" x2="1558" y2="144" stroke="#1e293b" stroke-width="1.5"/><line x1="1548" y1="134" x2="1568" y2="134" stroke="#1e293b" stroke-width="1.5"/><line x1="1558" y1="144" x2="1550" y2="160" stroke="#1e293b" stroke-width="1.5"/><line x1="1558" y1="144" x2="1566" y2="160" stroke="#1e293b" stroke-width="1.5"/><text x="1558" y="166" text-anchor="middle" font-family="monospace" font-size="13" font-weight="600" fill="#0f172a">Support Agent</text><circle cx="966" cy="124" r="6" fill="none" stroke="#1e293b" stroke-width="1.5"/><line x1="966" y1="130" x2="966" y2="144" stroke="#1e293b" stroke-width="1.5"/><line x1="956" y1="134" x2="976" y2="134" stroke="#1e293b" stroke-width="1.5"/><line x1="966" y1="144" x2="958" y2="160" stroke="#1e293b" stroke-width="1.5"/><line x1="966" y1="144" x2="974" y2="160" stroke="#1e293b" stroke-width="1.5"/><text x="966" y="166" text-anchor="middle" font-family="monospace" font-size="13" font-weight="600" fill="#0f172a">System</text><ellipse cx="818" cy="341" rx="108" ry="31" fill="#ffffff" stroke="#1e293b" stroke-width="1.5"/><text x="818" y="345" text-anchor="middle" font-family="monospace" font-size="13" font-weight="600" fill="#0f172a">Login</text><ellipse cx="1114" cy="341" rx="108" ry="31" fill="#ffffff" stroke="#1e293b" stroke-width="1.5"/><text x="1114" y="345" text-anchor="middle" font-family="monospace" font-size="13" font-weight="600" fill="#0f172a">View Orders</text><ellipse cx="226" cy="341" rx="108" ry="31" fill="#ffffff" stroke="#1e293b" stroke-width="1.5"/><text x="226" y="345" text-anchor="middle" font-family="monospace" font-size="13" font-weight="600" fill="#0f172a">Open Ticket</text><ellipse cx="1410" cy="341" rx="108" ry="31" fill="#ffffff" stroke="#1e293b" stroke-width="1.5"/><text x="1410" y="345" text-anchor="middle" font-family="monospace" font-size="13" font-weight="600" fill="#0f172a">Chat with Agent</text><ellipse cx="1994" cy="341" rx="108" ry="31" fill="#ffffff" stroke="#1e293b" stroke-width="1.5"/><text x="1994" y="345" text-anchor="middle" font-family="monospace" font-size="13" font-weight="600" fill="#0f172a">View Queue</text><ellipse cx="2290" cy="341" rx="108" ry="31" fill="#ffffff" stroke="#1e293b" stroke-width="1.5"/><text x="2290" y="345" text-anchor="middle" font-family="monospace" font-size="13" font-weight="600" fill="#0f172a">Respond to Ticket</text><ellipse cx="1698" cy="531" rx="108" ry="31" fill="#ffffff" stroke="#1e293b" stroke-width="1.5"/><text x="1698" y="535" text-anchor="middle" font-family="monospace" font-size="13" font-weight="600" fill="#0f172a">Escalate Issue</text><ellipse cx="2586" cy="341" rx="108" ry="31" fill="#ffffff" stroke="#1e293b" stroke-width="1.5"/><text x="2586" y="345" text-anchor="middle" font-family="monospace" font-size="13" font-weight="600" fill="#0f172a">Close Ticket</text><ellipse cx="3466" cy="531" rx="108" ry="31" fill="#ffffff" stroke="#1e293b" stroke-width="1.5"/><text x="3466" y="535" text-anchor="middle" font-family="monospace" font-size="13" font-weight="600" fill="#0f172a">Auto-tag Ticket</text><ellipse cx="2874" cy="341" rx="108" ry="31" fill="#ffffff" stroke="#1e293b" stroke-width="1.5"/><text x="2874" y="345" text-anchor="middle" font-family="monospace" font-size="13" font-weight="600" fill="#0f172a">Send SLA Alert</text><ellipse cx="3614" cy="721" rx="108" ry="31" fill="#ffffff" stroke="#1e293b" stroke-width="1.5"/><text x="3614" y="725" text-anchor="middle" font-family="monospace" font-size="13" font-weight="600" fill="#0f172a">Route to Agent</text></svg>