<svg xmlns="http://www.w3.org/2000/svg" width="2494" height="1556" viewBox="0 0 2494 1556" data-orientation="TopToBottom"><rect width="100%" height="100%" fill="#ffffff"/><defs><marker id="arrow-open" viewBox="0 0 10 10" refX="9" refY="5" markerWidth="10" markerHeight="10" markerUnits="userSpaceOnUse" orient="auto-start-reverse"><path d="M0,0 L10,5 L0,10" fill="none" stroke="#1e293b" stroke-width="1.5"/></marker><marker id="arrow-triangle" viewBox="0 0 16 16" refX="15" refY="8" markerWidth="16" markerHeight="16" markerUnits="userSpaceOnUse" orient="auto-start-reverse"><polygon points="0,1 14,8 0,15" fill="#ffffff" stroke="#1e293b" stroke-width="1.5" fill-rule="nonzero"/></marker><marker id="arrow-diamond-filled" viewBox="0 0 14 10" refX="13" refY="5" markerWidth="14" markerHeight="10" markerUnits="userSpaceOnUse" orient="auto-start-reverse"><path d="M0,5 L7,0 L14,5 L7,10 z" fill="#1e293b" stroke="#1e293b" stroke-width="1"/></marker><marker id="arrow-diamond-open" viewBox="0 0 14 10" refX="13" refY="5" markerWidth="14" markerHeight="10" markerUnits="userSpaceOnUse" orient="auto-start-reverse"><path d="M0,5 L7,0 L14,5 L7,10 z" fill="#ffffff" stroke="#1e293b" stroke-width="1"/></marker></defs><defs><marker id="arrow-triangle-filled" viewBox="0 0 12 12" refX="11" refY="6" markerWidth="12" markerHeight="12" markerUnits="userSpaceOnUse" orient="auto-start-reverse"><polygon points="0,0 12,6 0,12" fill="#1e293b" stroke="#1e293b" stroke-width="1.5"/></marker><marker id="arrow-box-filled" viewBox="0 0 12 12" refX="11" refY="6" markerWidth="12" markerHeight="12" markerUnits="userSpaceOnUse" orient="auto-start-reverse"><rect x="2" y="2" width="8" height="8" fill="#1e293b" stroke="#1e293b" stroke-width="1.5"/></marker><marker id="arrow-plus" viewBox="0 0 12 12" refX="11" refY="6" markerWidth="12" markerHeight="12" markerUnits="userSpaceOnUse" orient="auto-start-reverse"><path d="M6,1 L6,11 M1,6 L11,6" fill="none" stroke="#1e293b" stroke-width="1.8" stroke-linecap="round"/></marker><marker id="arrow-cross" viewBox="0 0 12 12" refX="11" refY="6" markerWidth="12" markerHeight="12" markerUnits="userSpaceOnUse" orient="auto-start-reverse"><path d="M2,2 L10,10 M10,2 L2,10" fill="none" stroke="#1e293b" stroke-width="1.8" stroke-linecap="round"/></marker><marker id="arrow-bracket-open" viewBox="0 0 12 14" refX="11" refY="7" markerWidth="12" markerHeight="14" markerUnits="userSpaceOnUse" orient="auto-start-reverse"><path d="M10,1 L4,1 L4,13 L10,13" fill="none" stroke="#1e293b" stroke-width="1.8" stroke-linecap="round" stroke-linejoin="round"/></marker><marker id="arrow-circle-open" viewBox="0 0 12 12" refX="11" refY="6" markerWidth="12" markerHeight="12" markerUnits="userSpaceOnUse" orient="auto-start-reverse"><circle cx="6" cy="6" r="4" fill="#ffffff" stroke="#1e293b" stroke-width="1.5"/></marker><marker id="arrow-circle-filled" viewBox="0 0 12 12" refX="11" refY="6" markerWidth="12" markerHeight="12" markerUnits="userSpaceOnUse" orient="auto-start-reverse"><circle cx="6" cy="6" r="4" fill="#1e293b" stroke="#1e293b" stroke-width="1.5"/></marker><marker id="arrow-double-open" viewBox="0 0 16 12" refX="15" refY="6" markerWidth="16" markerHeight="12" markerUnits="userSpaceOnUse" orient="auto-start-reverse"><path d="M0,1 L8,6 L0,11 M7,1 L15,6 L7,11" fill="none" stroke="#1e293b" stroke-width="1.5" stroke-linejoin="round"/></marker></defs><text x="32" y="32" font-family="monospace" font-size="18" font-weight="600" fill="#0f172a">Multiple system boundaries with actor inheritance</text><path class="uml-relation" data-uml-from="C" data-uml-to="UC1" data-uml-arrow="--&gt;" d="M 1006,150 C 1006.0,174.7 1019.3,211.7 1006.0,224.0 C 992.7,236.3 939.3,204.5 926.0,224.0 C 912.7,243.5 926.0,302.0 926.0,341.0" fill="none" stroke="#1e293b" stroke-width="2" marker-end="url(#arrow-open)" /><path class="uml-relation" data-uml-from="C" data-uml-to="UC2" data-uml-arrow="--&gt;" d="M 1114,182 C 1114.0,199.7 1114.0,226.2 1114.0,235.0 C 1114.0,243.8 1114.0,222.5 1114.0,235.0 C 1114.0,247.5 1114.0,285.0 1114.0,310.0" fill="none" stroke="#1e293b" stroke-width="2" marker-end="url(#arrow-open)" /><path class="uml-relation" data-uml-from="C" data-uml-to="UC3" data-uml-arrow="--&gt;" d="M 1006,150 C 1006.0,182.0 1118.0,230.0 1006.0,246.0 C 894.0,262.0 446.0,230.2 334.0,246.0 C 222.0,261.8 334.0,309.3 334.0,341.0" fill="none" stroke="#1e293b" stroke-width="2" marker-end="url(#arrow-open)" /><path class="uml-relation" data-uml-from="C" data-uml-to="UC4" data-uml-arrow="--&gt;" d="M 1222,150 C 1222.0,202.0 1208.7,280.0 1222.0,306.0 C 1235.3,332.0 1288.7,300.2 1302.0,306.0 C 1315.3,311.8 1302.0,329.3 1302.0,341.0" fill="none" stroke="#1e293b" stroke-width="2" marker-end="url(#arrow-open)" /><path class="uml-relation" data-uml-from="SA" data-uml-to="UC5" data-uml-arrow="--&gt;" d="M 1410,182 C 1410.0,223.3 1360.7,285.3 1410.0,306.0 C 1459.3,326.7 1656.7,181.3 1706.0,306.0 C 1755.3,430.7 1706.0,804.7 1706.0,1054.0" fill="none" stroke="#1e293b" stroke-width="2" marker-end="url(#arrow-open)" /><path class="uml-relation" data-uml-from="SA" data-uml-to="UC6" data-uml-arrow="--&gt;" d="M 1410,182 C 1410.0,223.3 1311.3,285.3 1410.0,306.0 C 1508.7,326.7 1903.3,181.3 2002.0,306.0 C 2100.7,430.7 2002.0,804.7 2002.0,1054.0" fill="none" stroke="#1e293b" stroke-width="2" marker-end="url(#arrow-open)" /><path class="uml-relation" data-uml-from="SA" data-uml-to="UC7" data-uml-arrow="--&gt;" d="M 1410,182 C 1410.0,223.3 1434.7,285.3 1410.0,306.0 C 1385.3,326.7 1286.7,118.0 1262.0,306.0 C 1237.3,494.0 1262.0,1058.0 1262.0,1434.0" fill="none" stroke="#1e293b" stroke-width="2" marker-end="url(#arrow-open)" /><path class="uml-relation" data-uml-from="SA" data-uml-to="UC8" data-uml-arrow="--&gt;" d="M 1410,182 C 1410.0,223.3 1459.3,285.3 1410.0,306.0 C 1360.7,326.7 1163.3,149.7 1114.0,306.0 C 1064.7,462.3 1114.0,931.3 1114.0,1244.0" fill="none" stroke="#1e293b" stroke-width="2" marker-end="url(#arrow-open)" /><path class="uml-relation" data-uml-from="SYS" data-uml-to="UC9" data-uml-arrow="--&gt;" d="M 926,150 C 926.0,167.3 741.3,193.3 926.0,202.0 C 1110.7,210.7 1849.3,115.5 2034.0,202.0 C 2218.7,288.5 2034.0,548.0 2034.0,721.0" fill="none" stroke="#1e293b" stroke-width="2" marker-end="url(#arrow-open)" /><path class="uml-relation" data-uml-from="SYS" data-uml-to="UC10" data-uml-arrow="--&gt;" d="M 926,150 C 926.0,171.0 815.3,202.5 926.0,213.0 C 1036.7,223.5 1479.3,191.7 1590.0,213.0 C 1700.7,234.3 1590.0,298.3 1590.0,341.0" fill="none" stroke="#1e293b" stroke-width="2" marker-end="url(#arrow-open)" /><path class="uml-relation" data-uml-from="SYS" data-uml-to="UC11" data-uml-arrow="--&gt;" d="M 926,150 C 926.0,163.7 716.7,184.2 926.0,191.0 C 1135.3,197.8 1972.7,71.0 2182.0,191.0 C 2391.3,311.0 2182.0,671.0 2182.0,911.0" fill="none" stroke="#1e293b" stroke-width="2" marker-end="url(#arrow-open)" /><path class="uml-relation" data-uml-from="UC3" data-uml-to="UC9" data-uml-arrow="..&gt;" d="M 334,341 C 334.0,451.7 50.7,617.7 334.0,673.0 C 617.3,728.3 1750.7,665.0 2034.0,673.0 C 2317.3,681.0 2034.0,705.0 2034.0,721.0" fill="none" stroke="#1e293b" stroke-width="2" stroke-dasharray="5 3" marker-end="url(#arrow-open)" /><text class="uml-edge-label" data-uml-label-role="edge" x="1184" y="647" text-anchor="middle" font-family="monospace" font-size="11" fill="#334155">triggers</text><path class="uml-relation" data-uml-from="UC9" data-uml-to="UC11" data-uml-arrow="..&gt;" d="M 2142,752 C 2142.0,791.7 2117.3,851.2 2142.0,871.0 C 2166.7,890.8 2265.3,869.5 2290.0,871.0 C 2314.7,872.5 2290.0,877.0 2290.0,880.0" fill="none" stroke="#1e293b" stroke-width="2" stroke-dasharray="5 3" marker-end="url(#arrow-open)" /><text class="uml-edge-label" data-uml-label-role="edge" x="2216" y="845" text-anchor="middle" font-family="monospace" font-size="11" fill="#334155">triggers</text><path class="uml-relation" data-uml-from="UC10" data-uml-to="UC7" data-uml-arrow=".&gt;" d="M 1698,372 C 1698.0,472.3 1770.7,622.8 1698.0,673.0 C 1625.3,723.2 1334.7,546.2 1262.0,673.0 C 1189.3,799.8 1262.0,1180.3 1262.0,1434.0" fill="none" stroke="#1e293b" stroke-width="2" stroke-dasharray="5 3" marker-end="url(#arrow-open)" /><text class="uml-edge-label" data-uml-label-role="edge" x="1276" y="1041" text-anchor="middle" font-family="monospace" font-size="11" fill="#334155">&lt;&lt;extend&gt;&gt;</text><rect class="uml-group-frame" data-uml-group="Automation Engine" x="1570" y="238" width="848" height="724" rx="6" ry="6" fill="none" stroke="#6366f1" stroke-width="1.5" stroke-dasharray="5 3"/><rect x="1570" y="238" width="152" height="24" rx="6" ry="6" fill="#ffffff" stroke="#6366f1" stroke-width="1.5"/><rect x="1570" y="254" width="152" height="8" fill="#ffffff" stroke="none"/><text x="1578" y="254" font-family="monospace" font-size="11" font-weight="600" fill="#4338ca">Automation Engine</text><line x1="1570" y1="262" x2="2418" y2="262" stroke="#6366f1" stroke-width="1"/><rect class="uml-group-frame" data-uml-group="Customer Portal" x="98" y="238" width="1440" height="154" rx="6" ry="6" fill="none" stroke="#6366f1" stroke-width="1.5" stroke-dasharray="5 3"/><rect x="98" y="238" width="136" height="24" rx="6" ry="6" fill="#ffffff" stroke="#6366f1" stroke-width="1.5"/><rect x="98" y="254" width="136" height="8" fill="#ffffff" stroke="none"/><text x="106" y="254" font-family="monospace" font-size="11" font-weight="600" fill="#4338ca">Customer Portal</text><line x1="98" y1="262" x2="1538" y2="262" stroke="#6366f1" stroke-width="1"/><rect class="uml-group-frame" data-uml-group="Support Console" x="986" y="982" width="1144" height="534" rx="6" ry="6" fill="none" stroke="#6366f1" stroke-width="1.5" stroke-dasharray="5 3"/><rect x="986" y="982" width="136" height="24" rx="6" ry="6" fill="#ffffff" stroke="#6366f1" stroke-width="1.5"/><rect x="986" y="998" width="136" height="8" fill="#ffffff" stroke="none"/><text x="994" y="998" font-family="monospace" font-size="11" font-weight="600" fill="#4338ca">Support Console</text><line x1="986" y1="1006" x2="2130" y2="1006" stroke="#6366f1" stroke-width="1"/><circle cx="1114" cy="124" r="6" fill="none" stroke="#1e293b" stroke-width="1.5"/><line x1="1114" y1="130" x2="1114" y2="144" stroke="#1e293b" stroke-width="1.5"/><line x1="1104" y1="134" x2="1124" y2="134" stroke="#1e293b" stroke-width="1.5"/><line x1="1114" y1="144" x2="1106" y2="160" stroke="#1e293b" stroke-width="1.5"/><line x1="1114" y1="144" x2="1122" y2="160" stroke="#1e293b" stroke-width="1.5"/><text x="1114" y="166" text-anchor="middle" font-family="monospace" font-size="13" font-weight="600" fill="#0f172a">Customer</text><circle cx="1410" cy="124" r="6" fill="none" stroke="#1e293b" stroke-width="1.5"/><line x1="1410" y1="130" x2="1410" y2="144" stroke="#1e293b" stroke-width="1.5"/><line x1="1400" y1="134" x2="1420" y2="134" stroke="#1e293b" stroke-width="1.5"/><line x1="1410" y1="144" x2="1402" y2="160" stroke="#1e293b" stroke-width="1.5"/><line x1="1410" y1="144" x2="1418" y2="160" stroke="#1e293b" stroke-width="1.5"/><text x="1410" y="166" text-anchor="middle" font-family="monospace" font-size="13" font-weight="600" fill="#0f172a">Support Agent</text><circle cx="818" cy="124" r="6" fill="none" stroke="#1e293b" stroke-width="1.5"/><line x1="818" y1="130" x2="818" y2="144" stroke="#1e293b" stroke-width="1.5"/><line x1="808" y1="134" x2="828" y2="134" stroke="#1e293b" stroke-width="1.5"/><line x1="818" y1="144" x2="810" y2="160" stroke="#1e293b" stroke-width="1.5"/><line x1="818" y1="144" x2="826" y2="160" stroke="#1e293b" stroke-width="1.5"/><text x="818" y="166" text-anchor="middle" font-family="monospace" font-size="13" font-weight="600" fill="#0f172a">System</text><ellipse cx="818" cy="341" rx="108" ry="31" fill="#ffffff" stroke="#1e293b" stroke-width="1.5"/><text x="818" y="345" text-anchor="middle" font-family="monospace" font-size="13" font-weight="600" fill="#0f172a">Login</text><ellipse cx="1114" cy="341" rx="108" ry="31" fill="#ffffff" stroke="#1e293b" stroke-width="1.5"/><text x="1114" y="345" text-anchor="middle" font-family="monospace" font-size="13" font-weight="600" fill="#0f172a">View Orders</text><ellipse cx="226" cy="341" rx="108" ry="31" fill="#ffffff" stroke="#1e293b" stroke-width="1.5"/><text x="226" y="345" text-anchor="middle" font-family="monospace" font-size="13" font-weight="600" fill="#0f172a">Open Ticket</text><ellipse cx="1410" cy="341" rx="108" ry="31" fill="#ffffff" stroke="#1e293b" stroke-width="1.5"/><text x="1410" y="345" text-anchor="middle" font-family="monospace" font-size="13" font-weight="600" fill="#0f172a">Chat with Agent</text><ellipse cx="1706" cy="1085" rx="108" ry="31" fill="#ffffff" stroke="#1e293b" stroke-width="1.5"/><text x="1706" y="1089" text-anchor="middle" font-family="monospace" font-size="13" font-weight="600" fill="#0f172a">View Queue</text><ellipse cx="2002" cy="1085" rx="108" ry="31" fill="#ffffff" stroke="#1e293b" stroke-width="1.5"/><text x="2002" y="1089" text-anchor="middle" font-family="monospace" font-size="13" font-weight="600" fill="#0f172a">Respond to Ticket</text><ellipse cx="1262" cy="1465" rx="108" ry="31" fill="#ffffff" stroke="#1e293b" stroke-width="1.5"/><text x="1262" y="1469" text-anchor="middle" font-family="monospace" font-size="13" font-weight="600" fill="#0f172a">Escalate Issue</text><ellipse cx="1114" cy="1275" rx="108" ry="31" fill="#ffffff" stroke="#1e293b" stroke-width="1.5"/><text x="1114" y="1279" text-anchor="middle" font-family="monospace" font-size="13" font-weight="600" fill="#0f172a">Close Ticket</text><ellipse cx="2142" cy="721" rx="108" ry="31" fill="#ffffff" stroke="#1e293b" stroke-width="1.5"/><text x="2142" y="725" text-anchor="middle" font-family="monospace" font-size="13" font-weight="600" fill="#0f172a">Auto-tag Ticket</text><ellipse cx="1698" cy="341" rx="108" ry="31" fill="#ffffff" stroke="#1e293b" stroke-width="1.5"/><text x="1698" y="345" text-anchor="middle" font-family="monospace" font-size="13" font-weight="600" fill="#0f172a">Send SLA Alert</text><ellipse cx="2290" cy="911" rx="108" ry="31" fill="#ffffff" stroke="#1e293b" stroke-width="1.5"/><text x="2290" y="915" text-anchor="middle" font-family="monospace" font-size="13" font-weight="600" fill="#0f172a">Route to Agent</text></svg>