<svg xmlns="http://www.w3.org/2000/svg" width="480" height="284" viewBox="0 0 480 284" data-orientation="LeftToRight"><rect width="100%" height="100%" fill="#ffffff"/><defs><marker id="arrow-open" viewBox="0 0 10 10" refX="9" refY="5" markerWidth="10" markerHeight="10" markerUnits="userSpaceOnUse" orient="auto-start-reverse"><path d="M0,0 L10,5 L0,10" fill="none" stroke="#1e293b" stroke-width="1.5"/></marker><marker id="arrow-triangle" viewBox="0 0 16 16" refX="15" refY="8" markerWidth="16" markerHeight="16" markerUnits="userSpaceOnUse" orient="auto-start-reverse"><polygon points="0,1 14,8 0,15" fill="#ffffff" stroke="#1e293b" stroke-width="1.5" fill-rule="nonzero"/></marker><marker id="arrow-diamond-filled" viewBox="0 0 14 10" refX="13" refY="5" markerWidth="14" markerHeight="10" markerUnits="userSpaceOnUse" orient="auto-start-reverse"><path d="M0,5 L7,0 L14,5 L7,10 z" fill="#1e293b" stroke="#1e293b" stroke-width="1"/></marker><marker id="arrow-diamond-open" viewBox="0 0 14 10" refX="13" refY="5" markerWidth="14" markerHeight="10" markerUnits="userSpaceOnUse" orient="auto-start-reverse"><path d="M0,5 L7,0 L14,5 L7,10 z" fill="#ffffff" stroke="#1e293b" stroke-width="1"/></marker></defs><defs><marker id="arrow-triangle-filled" viewBox="0 0 12 12" refX="11" refY="6" markerWidth="12" markerHeight="12" markerUnits="userSpaceOnUse" orient="auto-start-reverse"><polygon points="0,0 12,6 0,12" fill="#1e293b" stroke="#1e293b" stroke-width="1.5"/></marker><marker id="arrow-box-filled" viewBox="0 0 12 12" refX="11" refY="6" markerWidth="12" markerHeight="12" markerUnits="userSpaceOnUse" orient="auto-start-reverse"><rect x="2" y="2" width="8" height="8" fill="#1e293b" stroke="#1e293b" stroke-width="1.5"/></marker><marker id="arrow-plus" viewBox="0 0 12 12" refX="11" refY="6" markerWidth="12" markerHeight="12" markerUnits="userSpaceOnUse" orient="auto-start-reverse"><path d="M6,1 L6,11 M1,6 L11,6" fill="none" stroke="#1e293b" stroke-width="1.8" stroke-linecap="round"/></marker><marker id="arrow-cross" viewBox="0 0 12 12" refX="11" refY="6" markerWidth="12" markerHeight="12" markerUnits="userSpaceOnUse" orient="auto-start-reverse"><path d="M2,2 L10,10 M10,2 L2,10" fill="none" stroke="#1e293b" stroke-width="1.8" stroke-linecap="round"/></marker><marker id="arrow-bracket-open" viewBox="0 0 12 14" refX="11" refY="7" markerWidth="12" markerHeight="14" markerUnits="userSpaceOnUse" orient="auto-start-reverse"><path d="M10,1 L4,1 L4,13 L10,13" fill="none" stroke="#1e293b" stroke-width="1.8" stroke-linecap="round" stroke-linejoin="round"/></marker><marker id="arrow-circle-open" viewBox="0 0 12 12" refX="11" refY="6" markerWidth="12" markerHeight="12" markerUnits="userSpaceOnUse" orient="auto-start-reverse"><circle cx="6" cy="6" r="4" fill="#ffffff" stroke="#1e293b" stroke-width="1.5"/></marker><marker id="arrow-circle-filled" viewBox="0 0 12 12" refX="11" refY="6" markerWidth="12" markerHeight="12" markerUnits="userSpaceOnUse" orient="auto-start-reverse"><circle cx="6" cy="6" r="4" fill="#1e293b" stroke="#1e293b" stroke-width="1.5"/></marker><marker id="arrow-double-open" viewBox="0 0 16 12" refX="15" refY="6" markerWidth="16" markerHeight="12" markerUnits="userSpaceOnUse" orient="auto-start-reverse"><path d="M0,1 L8,6 L0,11 M7,1 L15,6 L7,11" fill="none" stroke="#1e293b" stroke-width="1.5" stroke-linejoin="round"/></marker></defs><path class="uml-relation" data-uml-from="Customer" data-uml-to="UC1" data-uml-arrow="--&gt;" d="M 112,96 C 112.0,109.0 112.0,122.0 112.0,135.0 C 112.0,148.0 112.0,161.0 112.0,174.0" fill="none" stroke="#1e293b" stroke-width="2" marker-end="url(#arrow-open)" /><path class="uml-relation" data-uml-from="Manager" data-uml-to="UC2" data-uml-arrow="--&gt;" d="M 352,96 C 352.0,109.0 352.0,122.0 352.0,135.0 C 352.0,148.0 352.0,161.0 352.0,174.0" fill="none" stroke="#1e293b" stroke-width="2" marker-end="url(#arrow-open)" /><rect class="uml-business-usecase" data-uml-kind="business-usecase" x="32" y="174" width="160" height="38" rx="18" ry="18" fill="#ffffff" stroke="#1e293b" stroke-width="1.5"/><text x="112" y="197" text-anchor="middle" font-family="monospace" font-size="13" font-weight="600" fill="#0f172a">Checkout</text><rect class="uml-business-usecase" data-uml-kind="business-usecase" x="272" y="174" width="160" height="38" rx="18" ry="18" fill="#f0f8ff" stroke="#1e293b" stroke-width="1.5"/><text x="352" y="197" text-anchor="middle" font-family="monospace" font-size="13" font-weight="600" fill="#0f172a">Approve refund</text><rect class="uml-business-actor" data-uml-kind="business-actor" x="32" y="32" width="160" height="64" rx="10" ry="10" fill="#ffffff" stroke="#1e293b" stroke-width="1.5"/><circle cx="112" cy="38" r="6" fill="none" stroke="#1e293b" stroke-width="1.5"/><line x1="112" y1="44" x2="112" y2="58" stroke="#1e293b" stroke-width="1.5"/><line x1="102" y1="48" x2="122" y2="48" stroke="#1e293b" stroke-width="1.5"/><line x1="112" y1="58" x2="104" y2="74" stroke="#1e293b" stroke-width="1.5"/><line x1="112" y1="58" x2="120" y2="74" stroke="#1e293b" stroke-width="1.5"/><text x="112" y="80" text-anchor="middle" font-family="monospace" font-size="13" font-weight="600" fill="#0f172a">Customer</text><rect class="uml-business-actor" data-uml-kind="business-actor" x="272" y="32" width="160" height="64" rx="10" ry="10" fill="#ffffff" stroke="#1e293b" stroke-width="1.5"/><circle cx="352" cy="38" r="6" fill="none" stroke="#1e293b" stroke-width="1.5"/><line x1="352" y1="44" x2="352" y2="58" stroke="#1e293b" stroke-width="1.5"/><line x1="342" y1="48" x2="362" y2="48" stroke="#1e293b" stroke-width="1.5"/><line x1="352" y1="58" x2="344" y2="74" stroke="#1e293b" stroke-width="1.5"/><line x1="352" y1="58" x2="360" y2="74" stroke="#1e293b" stroke-width="1.5"/><text x="352" y="80" text-anchor="middle" font-family="monospace" font-size="13" font-weight="600" fill="#0f172a">Sales Manager</text></svg>