<svg xmlns="http://www.w3.org/2000/svg" width="516" height="334" viewBox="0 0 516 334" data-orientation="LeftToRight"><rect width="100%" height="100%" fill="#ffffff"/><defs><marker id="arrow-open" viewBox="0 0 10 10" refX="9" refY="5" markerWidth="10" markerHeight="10" markerUnits="userSpaceOnUse" orient="auto-start-reverse"><path d="M0,0 L10,5 L0,10" fill="none" stroke="#1e293b" stroke-width="1.5"/></marker><marker id="arrow-triangle" viewBox="0 0 16 16" refX="15" refY="8" markerWidth="16" markerHeight="16" markerUnits="userSpaceOnUse" orient="auto-start-reverse"><polygon points="0,1 14,8 0,15" fill="#ffffff" stroke="#1e293b" stroke-width="1.5" fill-rule="nonzero"/></marker><marker id="arrow-diamond-filled" viewBox="0 0 14 10" refX="13" refY="5" markerWidth="14" markerHeight="10" markerUnits="userSpaceOnUse" orient="auto-start-reverse"><path d="M0,5 L7,0 L14,5 L7,10 z" fill="#1e293b" stroke="#1e293b" stroke-width="1"/></marker><marker id="arrow-diamond-open" viewBox="0 0 14 10" refX="13" refY="5" markerWidth="14" markerHeight="10" markerUnits="userSpaceOnUse" orient="auto-start-reverse"><path d="M0,5 L7,0 L14,5 L7,10 z" fill="#ffffff" stroke="#1e293b" stroke-width="1"/></marker></defs><polyline class="uml-relation" data-uml-from="S" data-uml-to="Checkout" data-uml-arrow="--&gt;" points="112,96 112,160 232,160 232,224" fill="none" stroke="#1e293b" stroke-width="2" marker-end="url(#arrow-open)" /><text x="186" y="148" text-anchor="middle" font-family="monospace" font-size="11" fill="#334155">starts</text><circle cx="112" cy="38" r="6" fill="#ffffff" stroke="#1e293b" stroke-width="1.5"/><line x1="112" y1="44" x2="112" y2="58" stroke="#1e293b" stroke-width="1.5"/><line x1="102" y1="48" x2="122" y2="48" stroke="#1e293b" stroke-width="1.5"/><line x1="112" y1="58" x2="104" y2="74" stroke="#1e293b" stroke-width="1.5"/><line x1="112" y1="58" x2="120" y2="74" stroke="#1e293b" stroke-width="1.5"/><text x="112" y="80" text-anchor="middle" font-family="monospace" font-size="13" font-weight="600" fill="#0f172a">Shopper</text><rect x="152" y="224" width="160" height="38" rx="12" ry="12" fill="#ffffff" stroke="#1e293b" stroke-width="1.5"/><text x="232" y="247" text-anchor="middle" font-family="monospace" font-size="13" font-weight="600" fill="#0f172a">Checkout</text><rect x="338" y="35" width="28" height="36" rx="4" ry="4" fill="#ffffff" stroke="#1e293b" stroke-width="1.5"/><polygon points="346,45,358,45,352,53" fill="#ffffff" stroke="#1e293b" stroke-width="1.5"/><text x="352" y="80" text-anchor="middle" font-family="monospace" font-size="13" font-weight="600" fill="#0f172a">Clerk</text></svg>