<svg xmlns="http://www.w3.org/2000/svg" width="600" height="482" viewBox="0 0 600 482" data-orientation="LeftToRight"><rect width="100%" height="100%" fill="#ffffff"/><defs><marker id="arrow-open" viewBox="0 0 10 10" refX="9" refY="5" markerWidth="10" markerHeight="10" markerUnits="userSpaceOnUse" orient="auto-start-reverse"><path d="M0,0 L10,5 L0,10" fill="none" stroke="#1e293b" stroke-width="1.5"/></marker><marker id="arrow-triangle" viewBox="0 0 16 16" refX="15" refY="8" markerWidth="16" markerHeight="16" markerUnits="userSpaceOnUse" orient="auto-start-reverse"><polygon points="0,1 14,8 0,15" fill="#ffffff" stroke="#1e293b" stroke-width="1.5" fill-rule="nonzero"/></marker><marker id="arrow-diamond-filled" viewBox="0 0 14 10" refX="13" refY="5" markerWidth="14" markerHeight="10" markerUnits="userSpaceOnUse" orient="auto-start-reverse"><path d="M0,5 L7,0 L14,5 L7,10 z" fill="#1e293b" stroke="#1e293b" stroke-width="1"/></marker><marker id="arrow-diamond-open" viewBox="0 0 14 10" refX="13" refY="5" markerWidth="14" markerHeight="10" markerUnits="userSpaceOnUse" orient="auto-start-reverse"><path d="M0,5 L7,0 L14,5 L7,10 z" fill="#ffffff" stroke="#1e293b" stroke-width="1"/></marker></defs><polyline class="uml-relation" data-uml-from="Shopper" data-uml-to="Browse" data-uml-arrow="--&gt;" points="131,110 131,205 131,300" fill="none" stroke="#1e293b" stroke-width="2" marker-end="url(#arrow-open)" /><polyline class="uml-relation" data-uml-from="Support" data-uml-to="Checkout" data-uml-arrow="--&gt;" points="410,126 410,213 410,300" fill="none" stroke="#1e293b" stroke-width="2" marker-end="url(#arrow-open)" /><rect class="uml-edge-label-bg" data-uml-label-role="edge-background" x="384" y="188" width="52" height="18" fill="white" opacity="0.85"/><text class="uml-edge-label" data-uml-label-role="edge" x="410" y="201" text-anchor="middle" font-family="monospace" font-size="11" fill="#334155">assists</text><circle cx="131" cy="38" r="6" fill="none" stroke="#006400" stroke-width="1.5"/><line x1="131" y1="44" x2="131" y2="58" stroke="#006400" stroke-width="1.5"/><line x1="121" y1="48" x2="141" y2="48" stroke="#006400" stroke-width="1.5"/><line x1="131" y1="58" x2="123" y2="74" stroke="#006400" stroke-width="1.5"/><line x1="131" y1="58" x2="139" y2="74" stroke="#006400" stroke-width="1.5"/><text x="131" y="80" text-anchor="middle" font-family="monospace" font-size="13" font-weight="600" fill="#00008b">Shopper</text><circle cx="410" cy="38" r="6" fill="none" stroke="#483d8b" stroke-width="1.5"/><line x1="410" y1="44" x2="410" y2="58" stroke="#483d8b" stroke-width="1.5"/><line x1="400" y1="48" x2="420" y2="48" stroke="#483d8b" stroke-width="1.5"/><line x1="410" y1="58" x2="402" y2="74" stroke="#483d8b" stroke-width="1.5"/><line x1="410" y1="58" x2="418" y2="74" stroke="#483d8b" stroke-width="1.5"/><text x="410" y="80" text-anchor="middle" font-family="monospace" font-size="13" font-weight="600" fill="#483d8b">Support</text><ellipse cx="131" cy="339" rx="99" ry="39" fill="#f5deb3" stroke="#006400" stroke-width="1.5"/><text x="131" y="343" text-anchor="middle" font-family="monospace" font-size="13" font-weight="600" fill="#00008b">Browse catalog</text><ellipse cx="410" cy="355" rx="99" ry="55" fill="#ffc0cb" stroke="#ff0000" stroke-width="3" stroke-dasharray="5 3"/><text x="410" y="359" text-anchor="middle" font-family="monospace" font-size="13" font-weight="600" fill="#0000ff">Checkout</text></svg>