<svg xmlns="http://www.w3.org/2000/svg" width="994" height="520" viewBox="0 0 994 520" data-orientation="TopToBottom"><rect width="100%" height="100%" fill="#ffffff"/><defs><marker id="arrow-open" viewBox="0 0 10 10" refX="9" refY="5" markerWidth="10" markerHeight="10" markerUnits="userSpaceOnUse" orient="auto-start-reverse"><path d="M0,0 L10,5 L0,10" fill="none" stroke="#1e293b" stroke-width="1.5"/></marker><marker id="arrow-triangle" viewBox="0 0 16 16" refX="15" refY="8" markerWidth="16" markerHeight="16" markerUnits="userSpaceOnUse" orient="auto-start-reverse"><polygon points="0,1 14,8 0,15" fill="#ffffff" stroke="#1e293b" stroke-width="1.5" fill-rule="nonzero"/></marker><marker id="arrow-diamond-filled" viewBox="0 0 14 10" refX="13" refY="5" markerWidth="14" markerHeight="10" markerUnits="userSpaceOnUse" orient="auto-start-reverse"><path d="M0,5 L7,0 L14,5 L7,10 z" fill="#1e293b" stroke="#1e293b" stroke-width="1"/></marker><marker id="arrow-diamond-open" viewBox="0 0 14 10" refX="13" refY="5" markerWidth="14" markerHeight="10" markerUnits="userSpaceOnUse" orient="auto-start-reverse"><path d="M0,5 L7,0 L14,5 L7,10 z" fill="#ffffff" stroke="#1e293b" stroke-width="1"/></marker></defs><defs><marker id="arrow-triangle-filled" viewBox="0 0 12 12" refX="11" refY="6" markerWidth="12" markerHeight="12" markerUnits="userSpaceOnUse" orient="auto-start-reverse"><polygon points="0,0 12,6 0,12" fill="#1e293b" stroke="#1e293b" stroke-width="1.5"/></marker><marker id="arrow-box-filled" viewBox="0 0 12 12" refX="11" refY="6" markerWidth="12" markerHeight="12" markerUnits="userSpaceOnUse" orient="auto-start-reverse"><rect x="2" y="2" width="8" height="8" fill="#1e293b" stroke="#1e293b" stroke-width="1.5"/></marker><marker id="arrow-plus" viewBox="0 0 12 12" refX="11" refY="6" markerWidth="12" markerHeight="12" markerUnits="userSpaceOnUse" orient="auto-start-reverse"><path d="M6,1 L6,11 M1,6 L11,6" fill="none" stroke="#1e293b" stroke-width="1.8" stroke-linecap="round"/></marker><marker id="arrow-cross" viewBox="0 0 12 12" refX="11" refY="6" markerWidth="12" markerHeight="12" markerUnits="userSpaceOnUse" orient="auto-start-reverse"><path d="M2,2 L10,10 M10,2 L2,10" fill="none" stroke="#1e293b" stroke-width="1.8" stroke-linecap="round"/></marker><marker id="arrow-bracket-open" viewBox="0 0 12 14" refX="11" refY="7" markerWidth="12" markerHeight="14" markerUnits="userSpaceOnUse" orient="auto-start-reverse"><path d="M10,1 L4,1 L4,13 L10,13" fill="none" stroke="#1e293b" stroke-width="1.8" stroke-linecap="round" stroke-linejoin="round"/></marker><marker id="arrow-circle-open" viewBox="0 0 12 12" refX="11" refY="6" markerWidth="12" markerHeight="12" markerUnits="userSpaceOnUse" orient="auto-start-reverse"><circle cx="6" cy="6" r="4" fill="#ffffff" stroke="#1e293b" stroke-width="1.5"/></marker><marker id="arrow-circle-filled" viewBox="0 0 12 12" refX="11" refY="6" markerWidth="12" markerHeight="12" markerUnits="userSpaceOnUse" orient="auto-start-reverse"><circle cx="6" cy="6" r="4" fill="#1e293b" stroke="#1e293b" stroke-width="1.5"/></marker><marker id="arrow-double-open" viewBox="0 0 16 12" refX="15" refY="6" markerWidth="16" markerHeight="12" markerUnits="userSpaceOnUse" orient="auto-start-reverse"><path d="M0,1 L8,6 L0,11 M7,1 L15,6 L7,11" fill="none" stroke="#1e293b" stroke-width="1.5" stroke-linejoin="round"/></marker></defs><text x="8" y="8" font-family="monospace" font-size="18" font-weight="600" fill="#0f172a">AWS architecture overview — compute, storage, database, networking</text><polyline class="uml-relation" data-uml-from="cdn" data-uml-to="lb" data-uml-arrow="--&gt;" points="122,94 122,130 242,130 242,166" fill="none" stroke="#1e293b" stroke-width="2" marker-end="url(#arrow-open)" /><text class="uml-edge-label" data-uml-label-role="edge" x="182" y="104" text-anchor="middle" font-family="monospace" font-size="11" fill="#334155">forwards</text><polyline class="uml-relation" data-uml-from="lb" data-uml-to="web" data-uml-arrow="--&gt;" points="242,218 242,254 362,254 362,290" fill="none" stroke="#1e293b" stroke-width="2" marker-end="url(#arrow-open)" /><text class="uml-edge-label" data-uml-label-role="edge" x="302" y="228" text-anchor="middle" font-family="monospace" font-size="11" fill="#334155">routes</text><polyline class="uml-relation" data-uml-from="api" data-uml-to="auth" data-uml-arrow="--&gt;" points="362,94 362,130 482,130 482,166" fill="none" stroke="#1e293b" stroke-width="2" marker-end="url(#arrow-open)" /><text class="uml-edge-label" data-uml-label-role="edge" x="452" y="118" text-anchor="middle" font-family="monospace" font-size="11" fill="#334155">invokes</text><polyline class="uml-relation" data-uml-from="auth" data-uml-to="ddb" data-uml-arrow="--&gt;" points="482,218 482,254 602,254 602,290" fill="none" stroke="#1e293b" stroke-width="2" marker-end="url(#arrow-open)" /><text class="uml-edge-label" data-uml-label-role="edge" x="542" y="228" text-anchor="middle" font-family="monospace" font-size="11" fill="#334155">reads</text><polyline class="uml-relation" data-uml-from="web" data-uml-to="db" data-uml-arrow="--&gt;" points="362,342 362,378 482,378 482,414" fill="none" stroke="#1e293b" stroke-width="2" marker-end="url(#arrow-open)" /><text class="uml-edge-label" data-uml-label-role="edge" x="422" y="352" text-anchor="middle" font-family="monospace" font-size="11" fill="#334155">queries</text><polyline class="uml-relation" data-uml-from="workers" data-uml-to="bucket" data-uml-arrow="--&gt;" points="842,94 842,130 722,130 722,166" fill="none" stroke="#1e293b" stroke-width="2" marker-end="url(#arrow-open)" /><text class="uml-edge-label" data-uml-label-role="edge" x="782" y="104" text-anchor="middle" font-family="monospace" font-size="11" fill="#334155">writes</text><polyline class="uml-relation" data-uml-from="role" data-uml-to="auth" data-uml-arrow="..&gt;" points="602,94 602,130 482,130 482,166" fill="none" stroke="#1e293b" stroke-width="2" stroke-dasharray="5 3" marker-end="url(#arrow-open)" /><text class="uml-edge-label" data-uml-label-role="edge" x="515" y="118" text-anchor="middle" font-family="monospace" font-size="11" fill="#334155">grants</text><rect class="uml-node uml-cloud-icon-node" data-uml-id="cdn" data-provider="AWS" data-service="CloudFront" x="42" y="42" width="160" height="52" rx="4" ry="4" fill="#FFF3E0" stroke="#FF9900" stroke-width="1.5"/><rect x="42" y="42" width="160" height="30" rx="4" ry="4" fill="#FF9900" stroke="#FF9900" stroke-width="1.5"/><rect x="42" y="64" width="160" height="8" fill="#FF9900"/><line x1="42" y1="72" x2="202" y2="72" stroke="#FF9900" stroke-width="1"/><rect class="cloud-icon-badge" data-provider="AWS" x="46" y="46" width="24" height="16" rx="3" ry="3" fill="#FF9900"/><text x="58" y="54" text-anchor="middle" dominant-baseline="middle" font-family="monospace" font-size="8" font-weight="700" fill="#ffffff">AWS</text><text x="76" y="61" font-family="monospace" font-size="10" font-weight="700" fill="#ffffff" data-cloud-service-name="true">CloudFront</text><text x="122" y="87" text-anchor="middle" font-family="monospace" font-size="12" font-weight="600" fill="#0f172a" text-decoration="underline" text-decoration-thickness="1">Edge CDN</text><rect class="uml-node uml-cloud-icon-node" data-uml-id="lb" data-provider="AWS" data-service="ELB" x="162" y="166" width="160" height="52" rx="4" ry="4" fill="#FFF3E0" stroke="#FF9900" stroke-width="1.5"/><rect x="162" y="166" width="160" height="30" rx="4" ry="4" fill="#FF9900" stroke="#FF9900" stroke-width="1.5"/><rect x="162" y="188" width="160" height="8" fill="#FF9900"/><line x1="162" y1="196" x2="322" y2="196" stroke="#FF9900" stroke-width="1"/><rect class="cloud-icon-badge" data-provider="AWS" x="166" y="170" width="24" height="16" rx="3" ry="3" fill="#FF9900"/><text x="178" y="178" text-anchor="middle" dominant-baseline="middle" font-family="monospace" font-size="8" font-weight="700" fill="#ffffff">AWS</text><text x="196" y="185" font-family="monospace" font-size="10" font-weight="700" fill="#ffffff" data-cloud-service-name="true">ELB</text><text x="242" y="211" text-anchor="middle" font-family="monospace" font-size="12" font-weight="600" fill="#0f172a" text-decoration="underline" text-decoration-thickness="1">Application LB</text><rect class="uml-node uml-cloud-icon-node" data-uml-id="api" data-provider="AWS" data-service="APIGateway" x="282" y="42" width="160" height="52" rx="4" ry="4" fill="#FFF3E0" stroke="#FF9900" stroke-width="1.5"/><rect x="282" y="42" width="160" height="30" rx="4" ry="4" fill="#FF9900" stroke="#FF9900" stroke-width="1.5"/><rect x="282" y="64" width="160" height="8" fill="#FF9900"/><line x1="282" y1="72" x2="442" y2="72" stroke="#FF9900" stroke-width="1"/><rect class="cloud-icon-badge" data-provider="AWS" x="286" y="46" width="24" height="16" rx="3" ry="3" fill="#FF9900"/><text x="298" y="54" text-anchor="middle" dominant-baseline="middle" font-family="monospace" font-size="8" font-weight="700" fill="#ffffff">AWS</text><text x="316" y="61" font-family="monospace" font-size="10" font-weight="700" fill="#ffffff" data-cloud-service-name="true">APIGateway</text><text x="362" y="87" text-anchor="middle" font-family="monospace" font-size="12" font-weight="600" fill="#0f172a" text-decoration="underline" text-decoration-thickness="1">Public API</text><rect class="uml-node uml-cloud-icon-node" data-uml-id="web" data-provider="AWS" data-service="EC2" x="282" y="290" width="160" height="52" rx="4" ry="4" fill="#FFF3E0" stroke="#FF9900" stroke-width="1.5"/><rect x="282" y="290" width="160" height="30" rx="4" ry="4" fill="#FF9900" stroke="#FF9900" stroke-width="1.5"/><rect x="282" y="312" width="160" height="8" fill="#FF9900"/><line x1="282" y1="320" x2="442" y2="320" stroke="#FF9900" stroke-width="1"/><rect class="cloud-icon-badge" data-provider="AWS" x="286" y="294" width="24" height="16" rx="3" ry="3" fill="#FF9900"/><text x="298" y="302" text-anchor="middle" dominant-baseline="middle" font-family="monospace" font-size="8" font-weight="700" fill="#ffffff">AWS</text><text x="316" y="309" font-family="monospace" font-size="10" font-weight="700" fill="#ffffff" data-cloud-service-name="true">EC2</text><text x="362" y="335" text-anchor="middle" font-family="monospace" font-size="12" font-weight="600" fill="#0f172a" text-decoration="underline" text-decoration-thickness="1">Web Tier</text><rect class="uml-node uml-cloud-icon-node" data-uml-id="auth" data-provider="AWS" data-service="Lambda" x="402" y="166" width="160" height="52" rx="4" ry="4" fill="#FFF3E0" stroke="#FF9900" stroke-width="1.5"/><rect x="402" y="166" width="160" height="30" rx="4" ry="4" fill="#FF9900" stroke="#FF9900" stroke-width="1.5"/><rect x="402" y="188" width="160" height="8" fill="#FF9900"/><line x1="402" y1="196" x2="562" y2="196" stroke="#FF9900" stroke-width="1"/><rect class="cloud-icon-badge" data-provider="AWS" x="406" y="170" width="24" height="16" rx="3" ry="3" fill="#FF9900"/><text x="418" y="178" text-anchor="middle" dominant-baseline="middle" font-family="monospace" font-size="8" font-weight="700" fill="#ffffff">AWS</text><text x="436" y="185" font-family="monospace" font-size="10" font-weight="700" fill="#ffffff" data-cloud-service-name="true">Lambda</text><text x="482" y="211" text-anchor="middle" font-family="monospace" font-size="12" font-weight="600" fill="#0f172a" text-decoration="underline" text-decoration-thickness="1">Auth Function</text><rect class="uml-node uml-cloud-icon-node" data-uml-id="workers" data-provider="AWS" data-service="ECS" x="762" y="42" width="160" height="52" rx="4" ry="4" fill="#FFF3E0" stroke="#FF9900" stroke-width="1.5"/><rect x="762" y="42" width="160" height="30" rx="4" ry="4" fill="#FF9900" stroke="#FF9900" stroke-width="1.5"/><rect x="762" y="64" width="160" height="8" fill="#FF9900"/><line x1="762" y1="72" x2="922" y2="72" stroke="#FF9900" stroke-width="1"/><rect class="cloud-icon-badge" data-provider="AWS" x="766" y="46" width="24" height="16" rx="3" ry="3" fill="#FF9900"/><text x="778" y="54" text-anchor="middle" dominant-baseline="middle" font-family="monospace" font-size="8" font-weight="700" fill="#ffffff">AWS</text><text x="796" y="61" font-family="monospace" font-size="10" font-weight="700" fill="#ffffff" data-cloud-service-name="true">ECS</text><text x="842" y="87" text-anchor="middle" font-family="monospace" font-size="12" font-weight="600" fill="#0f172a" text-decoration="underline" text-decoration-thickness="1">Workers</text><rect class="uml-node uml-cloud-icon-node" data-uml-id="db" data-provider="AWS" data-service="RDS" x="402" y="414" width="160" height="52" rx="4" ry="4" fill="#FFF3E0" stroke="#FF9900" stroke-width="1.5"/><rect x="402" y="414" width="160" height="30" rx="4" ry="4" fill="#FF9900" stroke="#FF9900" stroke-width="1.5"/><rect x="402" y="436" width="160" height="8" fill="#FF9900"/><line x1="402" y1="444" x2="562" y2="444" stroke="#FF9900" stroke-width="1"/><rect class="cloud-icon-badge" data-provider="AWS" x="406" y="418" width="24" height="16" rx="3" ry="3" fill="#FF9900"/><text x="418" y="426" text-anchor="middle" dominant-baseline="middle" font-family="monospace" font-size="8" font-weight="700" fill="#ffffff">AWS</text><text x="436" y="433" font-family="monospace" font-size="10" font-weight="700" fill="#ffffff" data-cloud-service-name="true">RDS</text><text x="482" y="459" text-anchor="middle" font-family="monospace" font-size="12" font-weight="600" fill="#0f172a" text-decoration="underline" text-decoration-thickness="1">Primary DB</text><rect class="uml-node uml-cloud-icon-node" data-uml-id="ddb" data-provider="AWS" data-service="DynamoDB" x="522" y="290" width="160" height="52" rx="4" ry="4" fill="#FFF3E0" stroke="#FF9900" stroke-width="1.5"/><rect x="522" y="290" width="160" height="30" rx="4" ry="4" fill="#FF9900" stroke="#FF9900" stroke-width="1.5"/><rect x="522" y="312" width="160" height="8" fill="#FF9900"/><line x1="522" y1="320" x2="682" y2="320" stroke="#FF9900" stroke-width="1"/><rect class="cloud-icon-badge" data-provider="AWS" x="526" y="294" width="24" height="16" rx="3" ry="3" fill="#FF9900"/><text x="538" y="302" text-anchor="middle" dominant-baseline="middle" font-family="monospace" font-size="8" font-weight="700" fill="#ffffff">AWS</text><text x="556" y="309" font-family="monospace" font-size="10" font-weight="700" fill="#ffffff" data-cloud-service-name="true">DynamoDB</text><text x="602" y="335" text-anchor="middle" font-family="monospace" font-size="12" font-weight="600" fill="#0f172a" text-decoration="underline" text-decoration-thickness="1">Session Store</text><rect class="uml-node uml-cloud-icon-node" data-uml-id="bucket" data-provider="AWS" data-service="S3" x="642" y="166" width="160" height="52" rx="4" ry="4" fill="#FFF3E0" stroke="#FF9900" stroke-width="1.5"/><rect x="642" y="166" width="160" height="30" rx="4" ry="4" fill="#FF9900" stroke="#FF9900" stroke-width="1.5"/><rect x="642" y="188" width="160" height="8" fill="#FF9900"/><line x1="642" y1="196" x2="802" y2="196" stroke="#FF9900" stroke-width="1"/><rect class="cloud-icon-badge" data-provider="AWS" x="646" y="170" width="24" height="16" rx="3" ry="3" fill="#FF9900"/><text x="658" y="178" text-anchor="middle" dominant-baseline="middle" font-family="monospace" font-size="8" font-weight="700" fill="#ffffff">AWS</text><text x="676" y="185" font-family="monospace" font-size="10" font-weight="700" fill="#ffffff" data-cloud-service-name="true">S3</text><text x="722" y="211" text-anchor="middle" font-family="monospace" font-size="12" font-weight="600" fill="#0f172a" text-decoration="underline" text-decoration-thickness="1">Asset Bucket</text><rect class="uml-node uml-cloud-icon-node" data-uml-id="role" data-provider="AWS" data-service="IAM" x="522" y="42" width="160" height="52" rx="4" ry="4" fill="#FFF3E0" stroke="#FF9900" stroke-width="1.5"/><rect x="522" y="42" width="160" height="30" rx="4" ry="4" fill="#FF9900" stroke="#FF9900" stroke-width="1.5"/><rect x="522" y="64" width="160" height="8" fill="#FF9900"/><line x1="522" y1="72" x2="682" y2="72" stroke="#FF9900" stroke-width="1"/><rect class="cloud-icon-badge" data-provider="AWS" x="526" y="46" width="24" height="16" rx="3" ry="3" fill="#FF9900"/><text x="538" y="54" text-anchor="middle" dominant-baseline="middle" font-family="monospace" font-size="8" font-weight="700" fill="#ffffff">AWS</text><text x="556" y="61" font-family="monospace" font-size="10" font-weight="700" fill="#ffffff" data-cloud-service-name="true">IAM</text><text x="602" y="87" text-anchor="middle" font-family="monospace" font-size="12" font-weight="600" fill="#0f172a" text-decoration="underline" text-decoration-thickness="1">Service Role</text></svg>