<svg xmlns="http://www.w3.org/2000/svg" width="527" height="644" viewBox="0 0 527 644" data-orientation="TopToBottom"><rect width="100%" height="100%" fill="#ffffff"/><defs><marker id="arrow-open" viewBox="0 0 10 10" refX="9" refY="5" markerWidth="10" markerHeight="10" markerUnits="userSpaceOnUse" orient="auto-start-reverse"><path d="M0,0 L10,5 L0,10" fill="none" stroke="#1e293b" stroke-width="1.5"/></marker><marker id="arrow-triangle" viewBox="0 0 16 16" refX="15" refY="8" markerWidth="16" markerHeight="16" markerUnits="userSpaceOnUse" orient="auto-start-reverse"><polygon points="0,1 14,8 0,15" fill="#ffffff" stroke="#1e293b" stroke-width="1.5" fill-rule="nonzero"/></marker><marker id="arrow-diamond-filled" viewBox="0 0 14 10" refX="13" refY="5" markerWidth="14" markerHeight="10" markerUnits="userSpaceOnUse" orient="auto-start-reverse"><path d="M0,5 L7,0 L14,5 L7,10 z" fill="#1e293b" stroke="#1e293b" stroke-width="1"/></marker><marker id="arrow-diamond-open" viewBox="0 0 14 10" refX="13" refY="5" markerWidth="14" markerHeight="10" markerUnits="userSpaceOnUse" orient="auto-start-reverse"><path d="M0,5 L7,0 L14,5 L7,10 z" fill="#ffffff" stroke="#1e293b" stroke-width="1"/></marker></defs><defs><marker id="arrow-triangle-filled" viewBox="0 0 12 12" refX="11" refY="6" markerWidth="12" markerHeight="12" markerUnits="userSpaceOnUse" orient="auto-start-reverse"><polygon points="0,0 12,6 0,12" fill="#1e293b" stroke="#1e293b" stroke-width="1.5"/></marker><marker id="arrow-box-filled" viewBox="0 0 12 12" refX="11" refY="6" markerWidth="12" markerHeight="12" markerUnits="userSpaceOnUse" orient="auto-start-reverse"><rect x="2" y="2" width="8" height="8" fill="#1e293b" stroke="#1e293b" stroke-width="1.5"/></marker><marker id="arrow-plus" viewBox="0 0 12 12" refX="11" refY="6" markerWidth="12" markerHeight="12" markerUnits="userSpaceOnUse" orient="auto-start-reverse"><path d="M6,1 L6,11 M1,6 L11,6" fill="none" stroke="#1e293b" stroke-width="1.8" stroke-linecap="round"/></marker><marker id="arrow-cross" viewBox="0 0 12 12" refX="11" refY="6" markerWidth="12" markerHeight="12" markerUnits="userSpaceOnUse" orient="auto-start-reverse"><path d="M2,2 L10,10 M10,2 L2,10" fill="none" stroke="#1e293b" stroke-width="1.8" stroke-linecap="round"/></marker><marker id="arrow-bracket-open" viewBox="0 0 12 14" refX="11" refY="7" markerWidth="12" markerHeight="14" markerUnits="userSpaceOnUse" orient="auto-start-reverse"><path d="M10,1 L4,1 L4,13 L10,13" fill="none" stroke="#1e293b" stroke-width="1.8" stroke-linecap="round" stroke-linejoin="round"/></marker><marker id="arrow-circle-open" viewBox="0 0 12 12" refX="11" refY="6" markerWidth="12" markerHeight="12" markerUnits="userSpaceOnUse" orient="auto-start-reverse"><circle cx="6" cy="6" r="4" fill="#ffffff" stroke="#1e293b" stroke-width="1.5"/></marker><marker id="arrow-circle-filled" viewBox="0 0 12 12" refX="11" refY="6" markerWidth="12" markerHeight="12" markerUnits="userSpaceOnUse" orient="auto-start-reverse"><circle cx="6" cy="6" r="4" fill="#1e293b" stroke="#1e293b" stroke-width="1.5"/></marker><marker id="arrow-double-open" viewBox="0 0 16 12" refX="15" refY="6" markerWidth="16" markerHeight="12" markerUnits="userSpaceOnUse" orient="auto-start-reverse"><path d="M0,1 L8,6 L0,11 M7,1 L15,6 L7,11" fill="none" stroke="#1e293b" stroke-width="1.5" stroke-linejoin="round"/></marker></defs><text x="8" y="8" font-family="monospace" font-size="18" font-weight="600" fill="#0f172a">AWS serverless event pipeline</text><polyline class="uml-relation" data-uml-from="ingress" data-uml-to="validate" data-uml-arrow="--&gt;" points="122,94 122,130 245,130 245,166" fill="none" stroke="#1e293b" stroke-width="2" marker-end="url(#arrow-open)" /><text class="uml-edge-label" data-uml-label-role="edge" x="183" y="104" text-anchor="middle" font-family="monospace" font-size="11" fill="#334155">invoke</text><polyline class="uml-relation" data-uml-from="validate" data-uml-to="raw" data-uml-arrow="--&gt;" points="245,218 245,254 245,290" fill="none" stroke="#1e293b" stroke-width="2" marker-end="url(#arrow-open)" /><rect class="uml-edge-label-bg" data-uml-label-role="edge-background" x="207" y="229" width="66" height="18" fill="white" opacity="0.85"/><text class="uml-edge-label" data-uml-label-role="edge" x="240" y="242" text-anchor="middle" font-family="monospace" font-size="11" fill="#334155">putObject</text><polyline class="uml-relation" data-uml-from="raw" data-uml-to="transform" data-uml-arrow="--&gt;" points="245,342 245,378 245,414" fill="none" stroke="#1e293b" stroke-width="2" marker-end="url(#arrow-open)" /><rect class="uml-edge-label-bg" data-uml-label-role="edge-background" x="226" y="371" width="38" height="18" fill="white" opacity="0.85"/><text class="uml-edge-label" data-uml-label-role="edge" x="245" y="384" text-anchor="middle" font-family="monospace" font-size="11" fill="#334155">event</text><polyline class="uml-relation" data-uml-from="transform" data-uml-to="processed" data-uml-arrow="--&gt;" points="245,466 245,502 369,502 369,538" fill="none" stroke="#1e293b" stroke-width="2" marker-end="url(#arrow-open)" /><text class="uml-edge-label" data-uml-label-role="edge" x="302" y="490" text-anchor="middle" font-family="monospace" font-size="11" fill="#334155">putObject</text><polyline class="uml-relation" data-uml-from="transform" data-uml-to="catalog" data-uml-arrow="--&gt;" points="245,466 245,502 122,502 122,538" fill="none" stroke="#1e293b" stroke-width="2" marker-end="url(#arrow-open)" /><text class="uml-edge-label" data-uml-label-role="edge" x="183" y="476" text-anchor="middle" font-family="monospace" font-size="11" fill="#334155">putItem</text><polyline class="uml-relation" data-uml-from="key" data-uml-to="raw" data-uml-arrow="..&gt;" points="369,94 369,192 341,192 341,192 245,192 245,290" fill="none" stroke="#1e293b" stroke-width="2" stroke-dasharray="5 3" marker-end="url(#arrow-open)" /><text class="uml-edge-label" data-uml-label-role="edge" x="315" y="148" text-anchor="middle" font-family="monospace" font-size="11" fill="#334155">encrypts</text><polyline class="uml-relation" data-uml-from="key" data-uml-to="processed" data-uml-arrow="..&gt;" points="369,94 369,316 369,538" fill="none" stroke="#1e293b" stroke-width="2" stroke-dasharray="5 3" marker-end="url(#arrow-open)" /><rect class="uml-edge-label-bg" data-uml-label-role="edge-background" x="347" y="291" width="60" height="18" fill="white" opacity="0.85"/><text class="uml-edge-label" data-uml-label-role="edge" x="377" y="304" text-anchor="middle" font-family="monospace" font-size="11" fill="#334155">encrypts</text><rect class="uml-node uml-cloud-icon-node" data-uml-id="ingress" data-provider="AWS" data-service="APIGateway" x="42" y="42" width="160" height="52" rx="4" ry="4" fill="#FFF3E0" stroke="#FF9900" stroke-width="1.5"/><rect x="42" y="42" width="160" height="30" rx="4" ry="4" fill="#FF9900" stroke="#FF9900" stroke-width="1.5"/><rect x="42" y="64" width="160" height="8" fill="#FF9900"/><line x1="42" y1="72" x2="202" y2="72" stroke="#FF9900" stroke-width="1"/><rect class="cloud-icon-badge" data-provider="AWS" x="46" y="46" width="24" height="16" rx="3" ry="3" fill="#FF9900"/><text x="58" y="54" text-anchor="middle" dominant-baseline="middle" font-family="monospace" font-size="8" font-weight="700" fill="#ffffff">AWS</text><text x="76" y="61" font-family="monospace" font-size="10" font-weight="700" fill="#ffffff" data-cloud-service-name="true">APIGateway</text><text x="122" y="87" text-anchor="middle" font-family="monospace" font-size="12" font-weight="600" fill="#0f172a" text-decoration="underline" text-decoration-thickness="1">Upload API</text><rect class="uml-node uml-cloud-icon-node" data-uml-id="validate" data-provider="AWS" data-service="Lambda" x="165" y="166" width="160" height="52" rx="4" ry="4" fill="#FFF3E0" stroke="#FF9900" stroke-width="1.5"/><rect x="165" y="166" width="160" height="30" rx="4" ry="4" fill="#FF9900" stroke="#FF9900" stroke-width="1.5"/><rect x="165" y="188" width="160" height="8" fill="#FF9900"/><line x1="165" y1="196" x2="325" y2="196" stroke="#FF9900" stroke-width="1"/><rect class="cloud-icon-badge" data-provider="AWS" x="169" y="170" width="24" height="16" rx="3" ry="3" fill="#FF9900"/><text x="181" y="178" text-anchor="middle" dominant-baseline="middle" font-family="monospace" font-size="8" font-weight="700" fill="#ffffff">AWS</text><text x="199" y="185" font-family="monospace" font-size="10" font-weight="700" fill="#ffffff" data-cloud-service-name="true">Lambda</text><text x="245" y="211" text-anchor="middle" font-family="monospace" font-size="12" font-weight="600" fill="#0f172a" text-decoration="underline" text-decoration-thickness="1">Validator</text><rect class="uml-node uml-cloud-icon-node" data-uml-id="raw" data-provider="AWS" data-service="S3" x="165" y="290" width="160" height="52" rx="4" ry="4" fill="#FFF3E0" stroke="#FF9900" stroke-width="1.5"/><rect x="165" y="290" width="160" height="30" rx="4" ry="4" fill="#FF9900" stroke="#FF9900" stroke-width="1.5"/><rect x="165" y="312" width="160" height="8" fill="#FF9900"/><line x1="165" y1="320" x2="325" y2="320" stroke="#FF9900" stroke-width="1"/><rect class="cloud-icon-badge" data-provider="AWS" x="169" y="294" width="24" height="16" rx="3" ry="3" fill="#FF9900"/><text x="181" y="302" text-anchor="middle" dominant-baseline="middle" font-family="monospace" font-size="8" font-weight="700" fill="#ffffff">AWS</text><text x="199" y="309" font-family="monospace" font-size="10" font-weight="700" fill="#ffffff" data-cloud-service-name="true">S3</text><text x="245" y="335" text-anchor="middle" font-family="monospace" font-size="12" font-weight="600" fill="#0f172a" text-decoration="underline" text-decoration-thickness="1">Raw Bucket</text><rect class="uml-node uml-cloud-icon-node" data-uml-id="transform" data-provider="AWS" data-service="Lambda" x="165" y="414" width="160" height="52" rx="4" ry="4" fill="#FFF3E0" stroke="#FF9900" stroke-width="1.5"/><rect x="165" y="414" width="160" height="30" rx="4" ry="4" fill="#FF9900" stroke="#FF9900" stroke-width="1.5"/><rect x="165" y="436" width="160" height="8" fill="#FF9900"/><line x1="165" y1="444" x2="325" y2="444" stroke="#FF9900" stroke-width="1"/><rect class="cloud-icon-badge" data-provider="AWS" x="169" y="418" width="24" height="16" rx="3" ry="3" fill="#FF9900"/><text x="181" y="426" text-anchor="middle" dominant-baseline="middle" font-family="monospace" font-size="8" font-weight="700" fill="#ffffff">AWS</text><text x="199" y="433" font-family="monospace" font-size="10" font-weight="700" fill="#ffffff" data-cloud-service-name="true">Lambda</text><text x="245" y="459" text-anchor="middle" font-family="monospace" font-size="12" font-weight="600" fill="#0f172a" text-decoration="underline" text-decoration-thickness="1">Transformer</text><rect class="uml-node uml-cloud-icon-node" data-uml-id="processed" data-provider="AWS" data-service="S3" x="289" y="538" width="160" height="52" rx="4" ry="4" fill="#FFF3E0" stroke="#FF9900" stroke-width="1.5"/><rect x="289" y="538" width="160" height="30" rx="4" ry="4" fill="#FF9900" stroke="#FF9900" stroke-width="1.5"/><rect x="289" y="560" width="160" height="8" fill="#FF9900"/><line x1="289" y1="568" x2="449" y2="568" stroke="#FF9900" stroke-width="1"/><rect class="cloud-icon-badge" data-provider="AWS" x="293" y="542" width="24" height="16" rx="3" ry="3" fill="#FF9900"/><text x="305" y="550" text-anchor="middle" dominant-baseline="middle" font-family="monospace" font-size="8" font-weight="700" fill="#ffffff">AWS</text><text x="323" y="557" font-family="monospace" font-size="10" font-weight="700" fill="#ffffff" data-cloud-service-name="true">S3</text><text x="369" y="583" text-anchor="middle" font-family="monospace" font-size="12" font-weight="600" fill="#0f172a" text-decoration="underline" text-decoration-thickness="1">Processed Bucket</text><rect class="uml-node uml-cloud-icon-node" data-uml-id="catalog" data-provider="AWS" data-service="DynamoDB" x="42" y="538" width="160" height="52" rx="4" ry="4" fill="#FFF3E0" stroke="#FF9900" stroke-width="1.5"/><rect x="42" y="538" width="160" height="30" rx="4" ry="4" fill="#FF9900" stroke="#FF9900" stroke-width="1.5"/><rect x="42" y="560" width="160" height="8" fill="#FF9900"/><line x1="42" y1="568" x2="202" y2="568" stroke="#FF9900" stroke-width="1"/><rect class="cloud-icon-badge" data-provider="AWS" x="46" y="542" width="24" height="16" rx="3" ry="3" fill="#FF9900"/><text x="58" y="550" text-anchor="middle" dominant-baseline="middle" font-family="monospace" font-size="8" font-weight="700" fill="#ffffff">AWS</text><text x="76" y="557" font-family="monospace" font-size="10" font-weight="700" fill="#ffffff" data-cloud-service-name="true">DynamoDB</text><text x="122" y="583" text-anchor="middle" font-family="monospace" font-size="12" font-weight="600" fill="#0f172a" text-decoration="underline" text-decoration-thickness="1">Asset Catalog</text><rect class="uml-node uml-cloud-icon-node" data-uml-id="key" data-provider="AWS" data-service="KMS" x="289" y="42" width="160" height="52" rx="4" ry="4" fill="#FFF3E0" stroke="#FF9900" stroke-width="1.5"/><rect x="289" y="42" width="160" height="30" rx="4" ry="4" fill="#FF9900" stroke="#FF9900" stroke-width="1.5"/><rect x="289" y="64" width="160" height="8" fill="#FF9900"/><line x1="289" y1="72" x2="449" y2="72" stroke="#FF9900" stroke-width="1"/><rect class="cloud-icon-badge" data-provider="AWS" x="293" y="46" width="24" height="16" rx="3" ry="3" fill="#FF9900"/><text x="305" y="54" text-anchor="middle" dominant-baseline="middle" font-family="monospace" font-size="8" font-weight="700" fill="#ffffff">AWS</text><text x="323" y="61" font-family="monospace" font-size="10" font-weight="700" fill="#ffffff" data-cloud-service-name="true">KMS</text><text x="369" y="87" text-anchor="middle" font-family="monospace" font-size="12" font-weight="600" fill="#0f172a" text-decoration="underline" text-decoration-thickness="1">Encryption Key</text></svg>