<svg xmlns="http://www.w3.org/2000/svg" width="736" height="324" viewBox="0 0 736 324"><rect width="100%" height="100%" fill="#ffffff"/><defs><marker id="arrow-open" viewBox="0 0 10 10" refX="9" refY="5" markerWidth="10" markerHeight="10" orient="auto-start-reverse"><path d="M0,0 L10,5 L0,10" fill="none" stroke="#1e293b" stroke-width="1.5"/></marker><marker id="arrow-triangle" viewBox="0 0 12 12" refX="11" refY="6" markerWidth="12" markerHeight="12" orient="auto-start-reverse"><polygon points="0,0 12,6 0,12" fill="white" stroke="#1e293b" stroke-width="1.5" fill-rule="nonzero"/></marker><marker id="arrow-diamond-filled" viewBox="0 0 14 10" refX="13" refY="5" markerWidth="14" markerHeight="10" orient="auto-start-reverse"><path d="M0,5 L7,0 L14,5 L7,10 z" fill="#1e293b" stroke="#1e293b" stroke-width="1"/></marker><marker id="arrow-diamond-open" viewBox="0 0 14 10" refX="13" refY="5" markerWidth="14" markerHeight="10" orient="auto-start-reverse"><path d="M0,5 L7,0 L14,5 L7,10 z" fill="white" stroke="#1e293b" stroke-width="1"/></marker></defs><text x="32" y="32" font-family="monospace" font-size="18" font-weight="600" fill="#0f172a">System Context - Banking App</text><line class="uml-relation" data-uml-from="customer" data-uml-to="app" x1="224" y1="110" x2="512" y2="99" stroke="#1e293b" stroke-width="2" marker-end="url(#arrow-open)"/><text x="368" y="92" text-anchor="middle" font-family="monospace" font-size="11" fill="#334155">Uses</text><line class="uml-relation" data-uml-from="support" data-uml-to="app" x1="464" y1="107" x2="512" y2="102" stroke="#1e293b" stroke-width="2" marker-end="url(#arrow-open)"/><text x="488" y="92" text-anchor="middle" font-family="monospace" font-size="11" fill="#334155">Manages</text><line class="uml-relation" data-uml-from="app" data-uml-to="sms" x1="517" y1="126" x2="219" y2="224" stroke="#1e293b" stroke-width="2" marker-end="url(#arrow-open)"/><text x="368" y="163" text-anchor="middle" font-family="monospace" font-size="11" fill="#334155">Sends notifications</text><line class="uml-relation" data-uml-from="app" data-uml-to="bank" x1="563" y1="126" x2="413" y2="224" stroke="#1e293b" stroke-width="2" marker-end="url(#arrow-open)"/><text x="488" y="163" text-anchor="middle" font-family="monospace" font-size="11" fill="#334155">Transfers funds</text><circle cx="128" cy="76" r="9" fill="#1168bd" stroke="#0d4f8f" stroke-width="1.5"/><line x1="128" y1="85" x2="128" y2="98" stroke="#0d4f8f" stroke-width="2"/><line x1="116" y1="92" x2="140" y2="92" stroke="#0d4f8f" stroke-width="2"/><line x1="128" y1="98" x2="118" y2="110" stroke="#0d4f8f" stroke-width="2"/><line x1="128" y1="98" x2="138" y2="110" stroke="#0d4f8f" stroke-width="2"/><rect x="32" y="110" width="192" height="50" rx="8" ry="8" fill="#1168bd" stroke="#0d4f8f" stroke-width="1.5"/><text x="128" y="134" text-anchor="middle" font-family="monospace" font-size="13" font-weight="600" fill="#ffffff">Customer</text><text x="128" y="148" text-anchor="middle" font-family="monospace" font-size="10" fill="#ffffff">[Person]</text><circle cx="368" cy="76" r="9" fill="#8a8a8a" stroke="#6b6b6b" stroke-width="1.5"/><line x1="368" y1="85" x2="368" y2="98" stroke="#6b6b6b" stroke-width="2"/><line x1="356" y1="92" x2="380" y2="92" stroke="#6b6b6b" stroke-width="2"/><line x1="368" y1="98" x2="358" y2="110" stroke="#6b6b6b" stroke-width="2"/><line x1="368" y1="98" x2="378" y2="110" stroke="#6b6b6b" stroke-width="2"/><rect x="272" y="110" width="192" height="50" rx="8" ry="8" fill="#8a8a8a" stroke="#6b6b6b" stroke-width="1.5"/><text x="368" y="134" text-anchor="middle" font-family="monospace" font-size="13" font-weight="600" fill="#ffffff">Support</text><text x="368" y="148" text-anchor="middle" font-family="monospace" font-size="10" fill="#ffffff">[Person, ext]</text><rect x="512" y="66" width="192" height="60" rx="8" ry="8" fill="#1168bd" stroke="#0d4f8f" stroke-width="1.5"/><text x="608" y="92" text-anchor="middle" font-family="monospace" font-size="13" font-weight="600" fill="#ffffff">Banking Application</text><text x="608" y="106" text-anchor="middle" font-family="monospace" font-size="10" fill="#ffffff">[System]</text><rect x="32" y="224" width="192" height="60" rx="8" ry="8" fill="#8a8a8a" stroke="#6b6b6b" stroke-width="1.5"/><text x="128" y="250" text-anchor="middle" font-family="monospace" font-size="13" font-weight="600" fill="#ffffff">SMS Gateway</text><text x="128" y="264" text-anchor="middle" font-family="monospace" font-size="10" fill="#ffffff">[System, ext]</text><rect x="272" y="224" width="192" height="60" rx="8" ry="8" fill="#8a8a8a" stroke="#6b6b6b" stroke-width="1.5"/><text x="368" y="250" text-anchor="middle" font-family="monospace" font-size="13" font-weight="600" fill="#ffffff">Core Banking</text><text x="368" y="264" text-anchor="middle" font-family="monospace" font-size="10" fill="#ffffff">[System, ext]</text></svg>