<svg xmlns="http://www.w3.org/2000/svg" width="753" height="702" viewBox="0 0 753 702" data-orientation="TopToBottom"><rect width="100%" height="100%" fill="#ffffff"/><defs><marker id="arrow-open" viewBox="0 0 10 10" refX="9" refY="5" markerWidth="10" markerHeight="10" markerUnits="userSpaceOnUse" orient="auto-start-reverse"><path d="M0,0 L10,5 L0,10" fill="none" stroke="#1e293b" stroke-width="1.5"/></marker><marker id="arrow-triangle" viewBox="0 0 16 16" refX="15" refY="8" markerWidth="16" markerHeight="16" markerUnits="userSpaceOnUse" orient="auto-start-reverse"><polygon points="0,1 14,8 0,15" fill="#ffffff" stroke="#1e293b" stroke-width="1.5" fill-rule="nonzero"/></marker><marker id="arrow-diamond-filled" viewBox="0 0 14 10" refX="13" refY="5" markerWidth="14" markerHeight="10" markerUnits="userSpaceOnUse" orient="auto-start-reverse"><path d="M0,5 L7,0 L14,5 L7,10 z" fill="#1e293b" stroke="#1e293b" stroke-width="1"/></marker><marker id="arrow-diamond-open" viewBox="0 0 14 10" refX="13" refY="5" markerWidth="14" markerHeight="10" markerUnits="userSpaceOnUse" orient="auto-start-reverse"><path d="M0,5 L7,0 L14,5 L7,10 z" fill="#ffffff" stroke="#1e293b" stroke-width="1"/></marker></defs><defs><marker id="arrow-triangle-filled" viewBox="0 0 12 12" refX="11" refY="6" markerWidth="12" markerHeight="12" markerUnits="userSpaceOnUse" orient="auto-start-reverse"><polygon points="0,0 12,6 0,12" fill="#1e293b" stroke="#1e293b" stroke-width="1.5"/></marker><marker id="arrow-box-filled" viewBox="0 0 12 12" refX="11" refY="6" markerWidth="12" markerHeight="12" markerUnits="userSpaceOnUse" orient="auto-start-reverse"><rect x="2" y="2" width="8" height="8" fill="#1e293b" stroke="#1e293b" stroke-width="1.5"/></marker><marker id="arrow-plus" viewBox="0 0 12 12" refX="11" refY="6" markerWidth="12" markerHeight="12" markerUnits="userSpaceOnUse" orient="auto-start-reverse"><path d="M6,1 L6,11 M1,6 L11,6" fill="none" stroke="#1e293b" stroke-width="1.8" stroke-linecap="round"/></marker><marker id="arrow-cross" viewBox="0 0 12 12" refX="11" refY="6" markerWidth="12" markerHeight="12" markerUnits="userSpaceOnUse" orient="auto-start-reverse"><path d="M2,2 L10,10 M10,2 L2,10" fill="none" stroke="#1e293b" stroke-width="1.8" stroke-linecap="round"/></marker><marker id="arrow-bracket-open" viewBox="0 0 12 14" refX="11" refY="7" markerWidth="12" markerHeight="14" markerUnits="userSpaceOnUse" orient="auto-start-reverse"><path d="M10,1 L4,1 L4,13 L10,13" fill="none" stroke="#1e293b" stroke-width="1.8" stroke-linecap="round" stroke-linejoin="round"/></marker><marker id="arrow-circle-open" viewBox="0 0 12 12" refX="11" refY="6" markerWidth="12" markerHeight="12" markerUnits="userSpaceOnUse" orient="auto-start-reverse"><circle cx="6" cy="6" r="4" fill="#ffffff" stroke="#1e293b" stroke-width="1.5"/></marker><marker id="arrow-circle-filled" viewBox="0 0 12 12" refX="11" refY="6" markerWidth="12" markerHeight="12" markerUnits="userSpaceOnUse" orient="auto-start-reverse"><circle cx="6" cy="6" r="4" fill="#1e293b" stroke="#1e293b" stroke-width="1.5"/></marker><marker id="arrow-double-open" viewBox="0 0 16 12" refX="15" refY="6" markerWidth="16" markerHeight="12" markerUnits="userSpaceOnUse" orient="auto-start-reverse"><path d="M0,1 L8,6 L0,11 M7,1 L15,6 L7,11" fill="none" stroke="#1e293b" stroke-width="1.5" stroke-linejoin="round"/></marker></defs><text x="32" y="32" font-family="monospace" font-size="18" font-weight="600" fill="#0f172a">System Context - Banking App</text><path class="uml-relation" data-uml-from="customer" data-uml-to="app" data-uml-arrow="--&gt;" d="M 158,160 C 158.0,185.0 129.7,222.5 158.0,235.0 C 186.3,247.5 299.7,221.2 328.0,235.0 C 356.3,248.8 328.0,290.3 328.0,318.0" fill="none" stroke="#1e293b" stroke-width="2" marker-end="url(#arrow-open)" /><text class="uml-edge-label" data-uml-label-role="edge" x="295" y="223" text-anchor="middle" font-family="monospace" font-size="11" fill="#334155">Uses</text><path class="uml-relation" data-uml-from="support" data-uml-to="app" data-uml-arrow="--&gt;" d="M 499,160 C 499.0,187.7 527.5,229.2 499.0,243.0 C 470.5,256.8 356.5,230.5 328.0,243.0 C 299.5,255.5 328.0,293.0 328.0,318.0" fill="none" stroke="#1e293b" stroke-width="2" marker-end="url(#arrow-open)" /><text class="uml-edge-label" data-uml-label-role="edge" x="358" y="231" text-anchor="middle" font-family="monospace" font-size="11" fill="#334155">Manages</text><path class="uml-relation" data-uml-from="app" data-uml-to="sms" data-uml-arrow="--&gt;" d="M 328,378 C 328.0,403.0 299.5,440.5 328.0,453.0 C 356.5,465.5 470.5,439.2 499.0,453.0 C 527.5,466.8 499.0,508.3 499.0,536.0" fill="none" stroke="#1e293b" stroke-width="2" marker-end="url(#arrow-open)" /><text class="uml-edge-label" data-uml-label-role="edge" x="385" y="441" text-anchor="middle" font-family="monospace" font-size="11" fill="#334155">Sends notifications</text><path class="uml-relation" data-uml-from="app" data-uml-to="bank" data-uml-arrow="--&gt;" d="M 328,378 C 328.0,405.7 356.3,447.2 328.0,461.0 C 299.7,474.8 186.3,448.5 158.0,461.0 C 129.7,473.5 158.0,511.0 158.0,536.0" fill="none" stroke="#1e293b" stroke-width="2" marker-end="url(#arrow-open)" /><text class="uml-edge-label" data-uml-label-role="edge" x="259" y="449" text-anchor="middle" font-family="monospace" font-size="11" fill="#334155">Transfers funds</text><circle cx="158" cy="76" r="9" fill="#1168bd" stroke="#0d4f8f" stroke-width="1.5"/><line x1="158" y1="85" x2="158" y2="98" stroke="#0d4f8f" stroke-width="2"/><line x1="146" y1="92" x2="170" y2="92" stroke="#0d4f8f" stroke-width="2"/><line x1="158" y1="98" x2="148" y2="110" stroke="#0d4f8f" stroke-width="2"/><line x1="158" y1="98" x2="168" y2="110" stroke="#0d4f8f" stroke-width="2"/><rect x="66" y="110" width="184" height="50" rx="8" ry="8" fill="#1168bd" stroke="#0d4f8f" stroke-width="1.5"/><text x="158" y="134" text-anchor="middle" font-family="monospace" font-size="13" font-weight="600" fill="#ffffff">Customer</text><text x="158" y="148" text-anchor="middle" font-family="monospace" font-size="10" fill="#ffffff">[Person]</text><circle cx="499" cy="76" r="9" fill="#8a8a8a" stroke="#6b6b6b" stroke-width="1.5"/><line x1="499" y1="85" x2="499" y2="98" stroke="#6b6b6b" stroke-width="2"/><line x1="487" y1="92" x2="511" y2="92" stroke="#6b6b6b" stroke-width="2"/><line x1="499" y1="98" x2="489" y2="110" stroke="#6b6b6b" stroke-width="2"/><line x1="499" y1="98" x2="509" y2="110" stroke="#6b6b6b" stroke-width="2"/><rect x="407" y="110" width="184" height="50" rx="8" ry="8" fill="#8a8a8a" stroke="#6b6b6b" stroke-width="1.5"/><text x="499" y="134" text-anchor="middle" font-family="monospace" font-size="13" font-weight="600" fill="#ffffff">Support</text><text x="499" y="148" text-anchor="middle" font-family="monospace" font-size="10" fill="#ffffff">[Person, ext]</text><rect x="236" y="318" width="184" height="60" rx="8" ry="8" fill="#1168bd" stroke="#0d4f8f" stroke-width="1.5"/><text x="328" y="344" text-anchor="middle" font-family="monospace" font-size="13" font-weight="600" fill="#ffffff">Banking Application</text><text x="328" y="358" text-anchor="middle" font-family="monospace" font-size="10" fill="#ffffff">[System]</text><rect x="407" y="536" width="184" height="60" rx="8" ry="8" fill="#8a8a8a" stroke="#6b6b6b" stroke-width="1.5"/><text x="499" y="562" text-anchor="middle" font-family="monospace" font-size="13" font-weight="600" fill="#ffffff">SMS Gateway</text><text x="499" y="576" text-anchor="middle" font-family="monospace" font-size="10" fill="#ffffff">[System, ext]</text><rect x="66" y="536" width="184" height="60" rx="8" ry="8" fill="#8a8a8a" stroke="#6b6b6b" stroke-width="1.5"/><text x="158" y="562" text-anchor="middle" font-family="monospace" font-size="13" font-weight="600" fill="#ffffff">Core Banking</text><text x="158" y="576" text-anchor="middle" font-family="monospace" font-size="10" fill="#ffffff">[System, ext]</text></svg>