<svg xmlns="http://www.w3.org/2000/svg" width="761" height="536" viewBox="0 0 761 536" data-orientation="TopToBottom"><rect width="100%" height="100%" fill="#ffffff"/><defs><marker id="arrow-open" viewBox="0 0 10 10" refX="9" refY="5" markerWidth="10" markerHeight="10" markerUnits="userSpaceOnUse" orient="auto-start-reverse"><path d="M0,0 L10,5 L0,10" fill="none" stroke="#1e293b" stroke-width="1.5"/></marker><marker id="arrow-triangle" viewBox="0 0 16 16" refX="15" refY="8" markerWidth="16" markerHeight="16" markerUnits="userSpaceOnUse" orient="auto-start-reverse"><polygon points="0,1 14,8 0,15" fill="#ffffff" stroke="#1e293b" stroke-width="1.5" fill-rule="nonzero"/></marker><marker id="arrow-diamond-filled" viewBox="0 0 14 10" refX="13" refY="5" markerWidth="14" markerHeight="10" markerUnits="userSpaceOnUse" orient="auto-start-reverse"><path d="M0,5 L7,0 L14,5 L7,10 z" fill="#1e293b" stroke="#1e293b" stroke-width="1"/></marker><marker id="arrow-diamond-open" viewBox="0 0 14 10" refX="13" refY="5" markerWidth="14" markerHeight="10" markerUnits="userSpaceOnUse" orient="auto-start-reverse"><path d="M0,5 L7,0 L14,5 L7,10 z" fill="#ffffff" stroke="#1e293b" stroke-width="1"/></marker></defs><defs><marker id="arrow-triangle-filled" viewBox="0 0 12 12" refX="11" refY="6" markerWidth="12" markerHeight="12" markerUnits="userSpaceOnUse" orient="auto-start-reverse"><polygon points="0,0 12,6 0,12" fill="#1e293b" stroke="#1e293b" stroke-width="1.5"/></marker><marker id="arrow-box-filled" viewBox="0 0 12 12" refX="11" refY="6" markerWidth="12" markerHeight="12" markerUnits="userSpaceOnUse" orient="auto-start-reverse"><rect x="2" y="2" width="8" height="8" fill="#1e293b" stroke="#1e293b" stroke-width="1.5"/></marker><marker id="arrow-plus" viewBox="0 0 12 12" refX="11" refY="6" markerWidth="12" markerHeight="12" markerUnits="userSpaceOnUse" orient="auto-start-reverse"><path d="M6,1 L6,11 M1,6 L11,6" fill="none" stroke="#1e293b" stroke-width="1.8" stroke-linecap="round"/></marker><marker id="arrow-cross" viewBox="0 0 12 12" refX="11" refY="6" markerWidth="12" markerHeight="12" markerUnits="userSpaceOnUse" orient="auto-start-reverse"><path d="M2,2 L10,10 M10,2 L2,10" fill="none" stroke="#1e293b" stroke-width="1.8" stroke-linecap="round"/></marker><marker id="arrow-bracket-open" viewBox="0 0 12 14" refX="11" refY="7" markerWidth="12" markerHeight="14" markerUnits="userSpaceOnUse" orient="auto-start-reverse"><path d="M10,1 L4,1 L4,13 L10,13" fill="none" stroke="#1e293b" stroke-width="1.8" stroke-linecap="round" stroke-linejoin="round"/></marker><marker id="arrow-circle-open" viewBox="0 0 12 12" refX="11" refY="6" markerWidth="12" markerHeight="12" markerUnits="userSpaceOnUse" orient="auto-start-reverse"><circle cx="6" cy="6" r="4" fill="#ffffff" stroke="#1e293b" stroke-width="1.5"/></marker><marker id="arrow-circle-filled" viewBox="0 0 12 12" refX="11" refY="6" markerWidth="12" markerHeight="12" markerUnits="userSpaceOnUse" orient="auto-start-reverse"><circle cx="6" cy="6" r="4" fill="#1e293b" stroke="#1e293b" stroke-width="1.5"/></marker><marker id="arrow-double-open" viewBox="0 0 16 12" refX="15" refY="6" markerWidth="16" markerHeight="12" markerUnits="userSpaceOnUse" orient="auto-start-reverse"><path d="M0,1 L8,6 L0,11 M7,1 L15,6 L7,11" fill="none" stroke="#1e293b" stroke-width="1.5" stroke-linejoin="round"/></marker></defs><text x="32" y="32" font-family="monospace" font-size="18" font-weight="600" fill="#0f172a">Multi-System Context</text><polyline class="uml-relation" data-uml-from="dev" data-uml-to="platform" data-uml-arrow="--&gt;" points="226,118 226,183 276,183 276,269" fill="none" stroke="#1e293b" stroke-width="2" marker-end="url(#arrow-open)" /><text class="uml-edge-label" data-uml-label-role="edge" x="290" y="48" text-anchor="middle" font-family="monospace" font-size="11" fill="#334155">Develops on</text><polyline class="uml-relation" data-uml-from="ops" data-uml-to="platform" data-uml-arrow="--&gt;" points="356,170 356,202 356,234" fill="none" stroke="#1e293b" stroke-width="2" marker-end="url(#arrow-open)" /><rect class="uml-edge-label-bg" data-uml-label-role="edge-background" x="341" y="177" width="60" height="18" fill="white" opacity="0.85"/><text class="uml-edge-label" data-uml-label-role="edge" x="371" y="190" text-anchor="middle" font-family="monospace" font-size="11" fill="#334155">Operates</text><polyline class="uml-relation" data-uml-from="vendor" data-uml-to="platform" data-uml-arrow="--&gt;" points="487,118 487,220 436,220 436,269" fill="none" stroke="#1e293b" stroke-width="2" marker-end="url(#arrow-open)" /><rect class="uml-edge-label-bg" data-uml-label-role="edge-background" x="412" y="195" width="74" height="18" fill="white" opacity="0.85"/><text class="uml-edge-label" data-uml-label-role="edge" x="449" y="208" text-anchor="middle" font-family="monospace" font-size="11" fill="#334155">Integrates</text><polyline class="uml-relation" data-uml-from="platform" data-uml-to="ci" data-uml-arrow="--&gt;" points="356,304 356,332 251,332 251,368" fill="none" stroke="#1e293b" stroke-width="2" marker-end="url(#arrow-open)" /><text class="uml-edge-label" data-uml-label-role="edge" x="319" y="320" text-anchor="middle" font-family="monospace" font-size="11" fill="#334155">Triggers</text><polyline class="uml-relation" data-uml-from="platform" data-uml-to="cloud" data-uml-arrow="--&gt;" points="356,304 356,340 461,340 461,368" fill="none" stroke="#1e293b" stroke-width="2" marker-end="url(#arrow-open)" /><text class="uml-edge-label" data-uml-label-role="edge" x="388" y="328" text-anchor="middle" font-family="monospace" font-size="11" fill="#334155">Runs on</text><circle cx="146" cy="76" r="9" fill="#1168bd" stroke="#0d4f8f" stroke-width="1.5"/><line x1="146" y1="85" x2="146" y2="98" stroke="#0d4f8f" stroke-width="2"/><line x1="134" y1="92" x2="158" y2="92" stroke="#0d4f8f" stroke-width="2"/><line x1="146" y1="98" x2="136" y2="110" stroke="#0d4f8f" stroke-width="2"/><line x1="146" y1="98" x2="156" y2="110" stroke="#0d4f8f" stroke-width="2"/><rect x="66" y="110" width="160" height="60" rx="8" ry="8" fill="#1168bd" stroke="#0d4f8f" stroke-width="1.5"/><text x="146" y="134" text-anchor="middle" font-family="monospace" font-size="13" font-weight="600" fill="#ffffff">Developer</text><text x="146" y="148" text-anchor="middle" font-family="monospace" font-size="10" fill="#ffffff">«person»</text><circle cx="356" cy="76" r="9" fill="#1168bd" stroke="#0d4f8f" stroke-width="1.5"/><line x1="356" y1="85" x2="356" y2="98" stroke="#0d4f8f" stroke-width="2"/><line x1="344" y1="92" x2="368" y2="92" stroke="#0d4f8f" stroke-width="2"/><line x1="356" y1="98" x2="346" y2="110" stroke="#0d4f8f" stroke-width="2"/><line x1="356" y1="98" x2="366" y2="110" stroke="#0d4f8f" stroke-width="2"/><rect x="276" y="110" width="160" height="60" rx="8" ry="8" fill="#1168bd" stroke="#0d4f8f" stroke-width="1.5"/><text x="356" y="134" text-anchor="middle" font-family="monospace" font-size="13" font-weight="600" fill="#ffffff">Operator</text><text x="356" y="148" text-anchor="middle" font-family="monospace" font-size="10" fill="#ffffff">«person»</text><circle cx="567" cy="76" r="9" fill="#8a8a8a" stroke="#6b6b6b" stroke-width="1.5"/><line x1="567" y1="85" x2="567" y2="98" stroke="#6b6b6b" stroke-width="2"/><line x1="555" y1="92" x2="579" y2="92" stroke="#6b6b6b" stroke-width="2"/><line x1="567" y1="98" x2="557" y2="110" stroke="#6b6b6b" stroke-width="2"/><line x1="567" y1="98" x2="577" y2="110" stroke="#6b6b6b" stroke-width="2"/><rect x="487" y="110" width="160" height="60" rx="8" ry="8" fill="#8a8a8a" stroke="#6b6b6b" stroke-width="1.5"/><text x="567" y="134" text-anchor="middle" font-family="monospace" font-size="13" font-weight="600" fill="#ffffff">Vendor</text><text x="567" y="148" text-anchor="middle" font-family="monospace" font-size="10" fill="#ffffff">«external_person»</text><rect x="276" y="234" width="160" height="70" rx="8" ry="8" fill="#1168bd" stroke="#0d4f8f" stroke-width="1.5"/><text x="356" y="265" text-anchor="middle" font-family="monospace" font-size="13" font-weight="600" fill="#ffffff">Platform</text><text x="356" y="279" text-anchor="middle" font-family="monospace" font-size="10" fill="#ffffff">«system»</text><rect x="171" y="368" width="160" height="70" rx="8" ry="8" fill="#8a8a8a" stroke="#6b6b6b" stroke-width="1.5"/><text x="251" y="399" text-anchor="middle" font-family="monospace" font-size="13" font-weight="600" fill="#ffffff">CI/CD</text><text x="251" y="413" text-anchor="middle" font-family="monospace" font-size="10" fill="#ffffff">«external_system»</text><rect x="381" y="368" width="160" height="70" rx="8" ry="8" fill="#8a8a8a" stroke="#6b6b6b" stroke-width="1.5"/><text x="461" y="399" text-anchor="middle" font-family="monospace" font-size="13" font-weight="600" fill="#ffffff">Cloud Provider</text><text x="461" y="413" text-anchor="middle" font-family="monospace" font-size="10" fill="#ffffff">«external_system»</text></svg>