<svg xmlns="http://www.w3.org/2000/svg" width="804" height="702" viewBox="0 0 804 702"><rect width="100%" height="100%" fill="#ffffff"/><defs><marker id="arrow-open" viewBox="0 0 10 10" refX="9" refY="5" markerWidth="10" markerHeight="10" markerUnits="userSpaceOnUse" orient="auto-start-reverse"><path d="M0,0 L10,5 L0,10" fill="none" stroke="#1e293b" stroke-width="1.5"/></marker><marker id="arrow-triangle" viewBox="0 0 16 16" refX="15" refY="8" markerWidth="16" markerHeight="16" markerUnits="userSpaceOnUse" orient="auto-start-reverse"><polygon points="0,1 14,8 0,15" fill="#ffffff" stroke="#1e293b" stroke-width="1.5" fill-rule="nonzero"/></marker><marker id="arrow-diamond-filled" viewBox="0 0 14 10" refX="13" refY="5" markerWidth="14" markerHeight="10" markerUnits="userSpaceOnUse" orient="auto-start-reverse"><path d="M0,5 L7,0 L14,5 L7,10 z" fill="#1e293b" stroke="#1e293b" stroke-width="1"/></marker><marker id="arrow-diamond-open" viewBox="0 0 14 10" refX="13" refY="5" markerWidth="14" markerHeight="10" markerUnits="userSpaceOnUse" orient="auto-start-reverse"><path d="M0,5 L7,0 L14,5 L7,10 z" fill="#ffffff" stroke="#1e293b" stroke-width="1"/></marker></defs><text x="32" y="32" font-family="monospace" font-size="18" font-weight="600" fill="#0f172a">Multi-System Context</text><polyline class="uml-relation" data-uml-from="dev" data-uml-to="platform" data-uml-arrow="--&gt;" points="146,160 146,231 386,231 386,318" fill="none" stroke="#1e293b" stroke-width="2" marker-end="url(#arrow-open)" /><text x="266" y="219" text-anchor="middle" font-family="monospace" font-size="11" fill="#334155">Develops on</text><polyline class="uml-relation" data-uml-from="ops" data-uml-to="platform" data-uml-arrow="--&gt;" points="386,160 386,239 386,318" fill="none" stroke="#1e293b" stroke-width="2" marker-end="url(#arrow-open)" /><text x="386" y="266" text-anchor="middle" font-family="monospace" font-size="11" fill="#334155">Operates</text><polyline class="uml-relation" data-uml-from="vendor" data-uml-to="platform" data-uml-arrow="--&gt;" points="626,160 626,247 386,247 386,318" fill="none" stroke="#1e293b" stroke-width="2" marker-end="url(#arrow-open)" /><text x="506" y="235" text-anchor="middle" font-family="monospace" font-size="11" fill="#334155">Integrates</text><polyline class="uml-relation" data-uml-from="platform" data-uml-to="ci" data-uml-arrow="--&gt;" points="386,378 386,453 266,453 266,536" fill="none" stroke="#1e293b" stroke-width="2" marker-end="url(#arrow-open)" /><text x="326" y="441" text-anchor="middle" font-family="monospace" font-size="11" fill="#334155">Triggers</text><polyline class="uml-relation" data-uml-from="platform" data-uml-to="cloud" data-uml-arrow="--&gt;" points="386,378 386,461 506,461 506,536" fill="none" stroke="#1e293b" stroke-width="2" marker-end="url(#arrow-open)" /><text x="446" y="449" text-anchor="middle" font-family="monospace" font-size="11" fill="#334155">Runs on</text><circle cx="146" cy="76" r="9" fill="#1168bd" stroke="#0d4f8f" stroke-width="1.5"/><line x1="146" y1="85" x2="146" y2="98" stroke="#0d4f8f" stroke-width="2"/><line x1="134" y1="92" x2="158" y2="92" stroke="#0d4f8f" stroke-width="2"/><line x1="146" y1="98" x2="136" y2="110" stroke="#0d4f8f" stroke-width="2"/><line x1="146" y1="98" x2="156" y2="110" stroke="#0d4f8f" stroke-width="2"/><rect x="66" y="110" width="160" height="50" rx="8" ry="8" fill="#1168bd" stroke="#0d4f8f" stroke-width="1.5"/><text x="146" y="134" text-anchor="middle" font-family="monospace" font-size="13" font-weight="600" fill="#ffffff">Developer</text><text x="146" y="148" text-anchor="middle" font-family="monospace" font-size="10" fill="#ffffff">[Person]</text><circle cx="386" cy="76" r="9" fill="#1168bd" stroke="#0d4f8f" stroke-width="1.5"/><line x1="386" y1="85" x2="386" y2="98" stroke="#0d4f8f" stroke-width="2"/><line x1="374" y1="92" x2="398" y2="92" stroke="#0d4f8f" stroke-width="2"/><line x1="386" y1="98" x2="376" y2="110" stroke="#0d4f8f" stroke-width="2"/><line x1="386" y1="98" x2="396" y2="110" stroke="#0d4f8f" stroke-width="2"/><rect x="306" y="110" width="160" height="50" rx="8" ry="8" fill="#1168bd" stroke="#0d4f8f" stroke-width="1.5"/><text x="386" y="134" text-anchor="middle" font-family="monospace" font-size="13" font-weight="600" fill="#ffffff">Operator</text><text x="386" y="148" text-anchor="middle" font-family="monospace" font-size="10" fill="#ffffff">[Person]</text><circle cx="626" cy="76" r="9" fill="#8a8a8a" stroke="#6b6b6b" stroke-width="1.5"/><line x1="626" y1="85" x2="626" y2="98" stroke="#6b6b6b" stroke-width="2"/><line x1="614" y1="92" x2="638" y2="92" stroke="#6b6b6b" stroke-width="2"/><line x1="626" y1="98" x2="616" y2="110" stroke="#6b6b6b" stroke-width="2"/><line x1="626" y1="98" x2="636" y2="110" stroke="#6b6b6b" stroke-width="2"/><rect x="546" y="110" width="160" height="50" rx="8" ry="8" fill="#8a8a8a" stroke="#6b6b6b" stroke-width="1.5"/><text x="626" y="134" text-anchor="middle" font-family="monospace" font-size="13" font-weight="600" fill="#ffffff">Vendor</text><text x="626" y="148" text-anchor="middle" font-family="monospace" font-size="10" fill="#ffffff">[Person, ext]</text><rect x="306" y="318" width="160" height="60" rx="8" ry="8" fill="#1168bd" stroke="#0d4f8f" stroke-width="1.5"/><text x="386" y="344" text-anchor="middle" font-family="monospace" font-size="13" font-weight="600" fill="#ffffff">Platform</text><text x="386" y="358" text-anchor="middle" font-family="monospace" font-size="10" fill="#ffffff">[System]</text><rect x="186" y="536" width="160" height="60" rx="8" ry="8" fill="#8a8a8a" stroke="#6b6b6b" stroke-width="1.5"/><text x="266" y="562" text-anchor="middle" font-family="monospace" font-size="13" font-weight="600" fill="#ffffff">CI/CD</text><text x="266" y="576" text-anchor="middle" font-family="monospace" font-size="10" fill="#ffffff">[System, ext]</text><rect x="426" y="536" width="160" height="60" rx="8" ry="8" fill="#8a8a8a" stroke="#6b6b6b" stroke-width="1.5"/><text x="506" y="562" text-anchor="middle" font-family="monospace" font-size="13" font-weight="600" fill="#ffffff">Cloud Provider</text><text x="506" y="576" text-anchor="middle" font-family="monospace" font-size="10" fill="#ffffff">[System, ext]</text></svg>