<svg xmlns="http://www.w3.org/2000/svg" width="846" height="702" viewBox="0 0 846 702"><rect width="100%" height="100%" fill="#ffffff"/><defs><marker id="arrow-open" viewBox="0 0 10 10" refX="9" refY="5" markerWidth="10" markerHeight="10" markerUnits="userSpaceOnUse" orient="auto-start-reverse"><path d="M0,0 L10,5 L0,10" fill="none" stroke="#1e293b" stroke-width="1.5"/></marker><marker id="arrow-triangle" viewBox="0 0 16 16" refX="15" refY="8" markerWidth="16" markerHeight="16" markerUnits="userSpaceOnUse" orient="auto-start-reverse"><polygon points="0,1 14,8 0,15" fill="#ffffff" stroke="#1e293b" stroke-width="1.5" fill-rule="nonzero"/></marker><marker id="arrow-diamond-filled" viewBox="0 0 14 10" refX="13" refY="5" markerWidth="14" markerHeight="10" markerUnits="userSpaceOnUse" orient="auto-start-reverse"><path d="M0,5 L7,0 L14,5 L7,10 z" fill="#1e293b" stroke="#1e293b" stroke-width="1"/></marker><marker id="arrow-diamond-open" viewBox="0 0 14 10" refX="13" refY="5" markerWidth="14" markerHeight="10" markerUnits="userSpaceOnUse" orient="auto-start-reverse"><path d="M0,5 L7,0 L14,5 L7,10 z" fill="#ffffff" stroke="#1e293b" stroke-width="1"/></marker></defs><text x="32" y="32" font-family="monospace" font-size="18" font-weight="600" fill="#0f172a">Multi-System Context</text><polyline class="uml-relation" data-uml-from="dev" data-uml-to="platform" data-uml-arrow="--&gt;" points="226,113 226,231 327,231 327,348" fill="none" stroke="#1e293b" stroke-width="2" marker-end="url(#arrow-open)" /><text x="329" y="300" text-anchor="middle" font-family="monospace" font-size="11" fill="#334155">Develops on</text><polyline class="uml-relation" data-uml-from="ops" data-uml-to="platform" data-uml-arrow="--&gt;" points="407,160 407,239 407,318" fill="none" stroke="#1e293b" stroke-width="2" marker-end="url(#arrow-open)" /><text x="410" y="300" text-anchor="middle" font-family="monospace" font-size="11" fill="#334155">Operates</text><polyline class="uml-relation" data-uml-from="vendor" data-uml-to="platform" data-uml-arrow="--&gt;" points="588,113 588,247 487,247 487,348" fill="none" stroke="#1e293b" stroke-width="2" marker-end="url(#arrow-open)" /><text x="488" y="300" text-anchor="middle" font-family="monospace" font-size="11" fill="#334155">Integrates</text><polyline class="uml-relation" data-uml-from="platform" data-uml-to="ci" data-uml-arrow="--&gt;" points="407,378 407,453 276,453 276,536" fill="none" stroke="#1e293b" stroke-width="2" marker-end="url(#arrow-open)" /><text x="382" y="413" text-anchor="middle" font-family="monospace" font-size="11" fill="#334155">Triggers</text><polyline class="uml-relation" data-uml-from="platform" data-uml-to="cloud" data-uml-arrow="--&gt;" points="407,378 407,461 537,461 537,536" fill="none" stroke="#1e293b" stroke-width="2" marker-end="url(#arrow-open)" /><text x="486" y="445" text-anchor="middle" font-family="monospace" font-size="11" fill="#334155">Runs on</text><circle cx="146" cy="76" r="9" fill="#1168bd" stroke="#0d4f8f" stroke-width="1.5"/><line x1="146" y1="85" x2="146" y2="98" stroke="#0d4f8f" stroke-width="2"/><line x1="134" y1="92" x2="158" y2="92" stroke="#0d4f8f" stroke-width="2"/><line x1="146" y1="98" x2="136" y2="110" stroke="#0d4f8f" stroke-width="2"/><line x1="146" y1="98" x2="156" y2="110" stroke="#0d4f8f" stroke-width="2"/><rect x="66" y="110" width="160" height="50" rx="8" ry="8" fill="#1168bd" stroke="#0d4f8f" stroke-width="1.5"/><text x="146" y="134" text-anchor="middle" font-family="monospace" font-size="13" font-weight="600" fill="#ffffff">Developer</text><text x="146" y="148" text-anchor="middle" font-family="monospace" font-size="10" fill="#ffffff">[Person]</text><circle cx="407" cy="76" r="9" fill="#1168bd" stroke="#0d4f8f" stroke-width="1.5"/><line x1="407" y1="85" x2="407" y2="98" stroke="#0d4f8f" stroke-width="2"/><line x1="395" y1="92" x2="419" y2="92" stroke="#0d4f8f" stroke-width="2"/><line x1="407" y1="98" x2="397" y2="110" stroke="#0d4f8f" stroke-width="2"/><line x1="407" y1="98" x2="417" y2="110" stroke="#0d4f8f" stroke-width="2"/><rect x="327" y="110" width="160" height="50" rx="8" ry="8" fill="#1168bd" stroke="#0d4f8f" stroke-width="1.5"/><text x="407" y="134" text-anchor="middle" font-family="monospace" font-size="13" font-weight="600" fill="#ffffff">Operator</text><text x="407" y="148" text-anchor="middle" font-family="monospace" font-size="10" fill="#ffffff">[Person]</text><circle cx="668" cy="76" r="9" fill="#8a8a8a" stroke="#6b6b6b" stroke-width="1.5"/><line x1="668" y1="85" x2="668" y2="98" stroke="#6b6b6b" stroke-width="2"/><line x1="656" y1="92" x2="680" y2="92" stroke="#6b6b6b" stroke-width="2"/><line x1="668" y1="98" x2="658" y2="110" stroke="#6b6b6b" stroke-width="2"/><line x1="668" y1="98" x2="678" y2="110" stroke="#6b6b6b" stroke-width="2"/><rect x="588" y="110" width="160" height="50" rx="8" ry="8" fill="#8a8a8a" stroke="#6b6b6b" stroke-width="1.5"/><text x="668" y="134" text-anchor="middle" font-family="monospace" font-size="13" font-weight="600" fill="#ffffff">Vendor</text><text x="668" y="148" text-anchor="middle" font-family="monospace" font-size="10" fill="#ffffff">[Person, ext]</text><rect x="327" y="318" width="160" height="60" rx="8" ry="8" fill="#1168bd" stroke="#0d4f8f" stroke-width="1.5"/><text x="407" y="344" text-anchor="middle" font-family="monospace" font-size="13" font-weight="600" fill="#ffffff">Platform</text><text x="407" y="358" text-anchor="middle" font-family="monospace" font-size="10" fill="#ffffff">[System]</text><rect x="196" y="536" width="160" height="60" rx="8" ry="8" fill="#8a8a8a" stroke="#6b6b6b" stroke-width="1.5"/><text x="276" y="562" text-anchor="middle" font-family="monospace" font-size="13" font-weight="600" fill="#ffffff">CI/CD</text><text x="276" y="576" text-anchor="middle" font-family="monospace" font-size="10" fill="#ffffff">[System, ext]</text><rect x="457" y="536" width="160" height="60" rx="8" ry="8" fill="#8a8a8a" stroke="#6b6b6b" stroke-width="1.5"/><text x="537" y="562" text-anchor="middle" font-family="monospace" font-size="13" font-weight="600" fill="#ffffff">Cloud Provider</text><text x="537" y="576" text-anchor="middle" font-family="monospace" font-size="10" fill="#ffffff">[System, ext]</text></svg>