<svg xmlns="http://www.w3.org/2000/svg" width="718" height="1138" viewBox="0 0 718 1138"><rect width="100%" height="100%" fill="#ffffff"/><defs><marker id="arrow-open" viewBox="0 0 10 10" refX="9" refY="5" markerWidth="10" markerHeight="10" markerUnits="userSpaceOnUse" orient="auto-start-reverse"><path d="M0,0 L10,5 L0,10" fill="none" stroke="#1e293b" stroke-width="1.5"/></marker><marker id="arrow-triangle" viewBox="0 0 16 16" refX="15" refY="8" markerWidth="16" markerHeight="16" markerUnits="userSpaceOnUse" orient="auto-start-reverse"><polygon points="0,1 14,8 0,15" fill="#ffffff" stroke="#1e293b" stroke-width="1.5" fill-rule="nonzero"/></marker><marker id="arrow-diamond-filled" viewBox="0 0 14 10" refX="13" refY="5" markerWidth="14" markerHeight="10" markerUnits="userSpaceOnUse" orient="auto-start-reverse"><path d="M0,5 L7,0 L14,5 L7,10 z" fill="#1e293b" stroke="#1e293b" stroke-width="1"/></marker><marker id="arrow-diamond-open" viewBox="0 0 14 10" refX="13" refY="5" markerWidth="14" markerHeight="10" markerUnits="userSpaceOnUse" orient="auto-start-reverse"><path d="M0,5 L7,0 L14,5 L7,10 z" fill="#ffffff" stroke="#1e293b" stroke-width="1"/></marker></defs><text x="32" y="32" font-family="monospace" font-size="18" font-weight="600" fill="#0f172a">Container Diagram - Web App</text><polyline class="uml-relation" data-uml-from="user" data-uml-to="spa" data-uml-arrow="--&gt;" points="146,160 146,239 146,318" fill="none" stroke="#1e293b" stroke-width="2" marker-end="url(#arrow-open)" /><text x="146" y="227" text-anchor="middle" font-family="monospace" font-size="11" fill="#334155">Uses</text><polyline class="uml-relation" data-uml-from="spa" data-uml-to="api" data-uml-arrow="--&gt;" points="146,378 146,457 146,536" fill="none" stroke="#1e293b" stroke-width="2" marker-end="url(#arrow-open)" /><text x="146" y="445" text-anchor="middle" font-family="monospace" font-size="11" fill="#334155">Calls</text><polyline class="uml-relation" data-uml-from="api" data-uml-to="worker" data-uml-arrow="--&gt;" points="146,596 146,675 146,754" fill="none" stroke="#1e293b" stroke-width="2" marker-end="url(#arrow-open)" /><text x="146" y="663" text-anchor="middle" font-family="monospace" font-size="11" fill="#334155">Enqueues</text><polyline class="uml-relation" data-uml-from="worker" data-uml-to="email" data-uml-arrow="--&gt;" points="146,814 146,893 146,972" fill="none" stroke="#1e293b" stroke-width="2" marker-end="url(#arrow-open)" /><text x="146" y="881" text-anchor="middle" font-family="monospace" font-size="11" fill="#334155">Sends via</text><circle cx="146" cy="76" r="9" fill="#1168bd" stroke="#0d4f8f" stroke-width="1.5"/><line x1="146" y1="85" x2="146" y2="98" stroke="#0d4f8f" stroke-width="2"/><line x1="134" y1="92" x2="158" y2="92" stroke="#0d4f8f" stroke-width="2"/><line x1="146" y1="98" x2="136" y2="110" stroke="#0d4f8f" stroke-width="2"/><line x1="146" y1="98" x2="156" y2="110" stroke="#0d4f8f" stroke-width="2"/><rect x="66" y="110" width="160" height="50" rx="8" ry="8" fill="#1168bd" stroke="#0d4f8f" stroke-width="1.5"/><text x="146" y="134" text-anchor="middle" font-family="monospace" font-size="13" font-weight="600" fill="#ffffff">User</text><text x="146" y="148" text-anchor="middle" font-family="monospace" font-size="10" fill="#ffffff">[Person]</text><rect x="66" y="318" width="160" height="60" rx="8" ry="8" fill="#438dd5" stroke="#2e6da0" stroke-width="1.5"/><text x="146" y="344" text-anchor="middle" font-family="monospace" font-size="13" font-weight="600" fill="#ffffff">SPA</text><text x="146" y="358" text-anchor="middle" font-family="monospace" font-size="10" fill="#ffffff">[Container]</text><rect x="66" y="536" width="160" height="60" rx="8" ry="8" fill="#438dd5" stroke="#2e6da0" stroke-width="1.5"/><text x="146" y="562" text-anchor="middle" font-family="monospace" font-size="13" font-weight="600" fill="#ffffff">API</text><text x="146" y="576" text-anchor="middle" font-family="monospace" font-size="10" fill="#ffffff">[Container]</text><rect x="66" y="754" width="160" height="60" rx="8" ry="8" fill="#438dd5" stroke="#2e6da0" stroke-width="1.5"/><text x="146" y="780" text-anchor="middle" font-family="monospace" font-size="13" font-weight="600" fill="#ffffff">Worker</text><text x="146" y="794" text-anchor="middle" font-family="monospace" font-size="10" fill="#ffffff">[Container]</text><rect x="66" y="972" width="160" height="60" rx="8" ry="8" fill="#8a8a8a" stroke="#6b6b6b" stroke-width="1.5"/><text x="146" y="998" text-anchor="middle" font-family="monospace" font-size="13" font-weight="600" fill="#ffffff">Email</text><text x="146" y="1012" text-anchor="middle" font-family="monospace" font-size="10" fill="#ffffff">[System, ext]</text></svg>