<svg xmlns="http://www.w3.org/2000/svg" width="760" height="290" viewBox="0 0 760 290"><rect width="100%" height="100%" fill="#ffffff"/><defs><marker id="arrow-open" viewBox="0 0 10 10" refX="9" refY="5" markerWidth="10" markerHeight="10" markerUnits="userSpaceOnUse" orient="auto-start-reverse"><path d="M0,0 L10,5 L0,10" fill="none" stroke="#1e293b" stroke-width="1.5"/></marker><marker id="arrow-triangle" viewBox="0 0 16 16" refX="15" refY="8" markerWidth="16" markerHeight="16" markerUnits="userSpaceOnUse" orient="auto-start-reverse"><polygon points="0,1 14,8 0,15" fill="#ffffff" stroke="#1e293b" stroke-width="1.5" fill-rule="nonzero"/></marker><marker id="arrow-diamond-filled" viewBox="0 0 14 10" refX="13" refY="5" markerWidth="14" markerHeight="10" markerUnits="userSpaceOnUse" orient="auto-start-reverse"><path d="M0,5 L7,0 L14,5 L7,10 z" fill="#1e293b" stroke="#1e293b" stroke-width="1"/></marker><marker id="arrow-diamond-open" viewBox="0 0 14 10" refX="13" refY="5" markerWidth="14" markerHeight="10" markerUnits="userSpaceOnUse" orient="auto-start-reverse"><path d="M0,5 L7,0 L14,5 L7,10 z" fill="#ffffff" stroke="#1e293b" stroke-width="1"/></marker></defs><text x="32" y="32" font-family="monospace" font-size="18" font-weight="600" fill="#0f172a">Component Diagram - API Service</text><line class="uml-relation" data-uml-from="ctrl" data-uml-to="svc" x1="232" y1="96" x2="280" y2="96" stroke="#1e293b" stroke-width="2" marker-end="url(#arrow-open)"/><text x="256" y="80" text-anchor="middle" font-family="monospace" font-size="11" fill="#334155">Uses</text><line class="uml-relation" data-uml-from="svc" data-uml-to="repo" x1="480" y1="96" x2="528" y2="96" stroke="#1e293b" stroke-width="2" marker-end="url(#arrow-open)"/><text x="504" y="80" text-anchor="middle" font-family="monospace" font-size="11" fill="#334155">Queries</text><line class="uml-relation" data-uml-from="svc" data-uml-to="cache" x1="320" y1="126" x2="192" y2="190" stroke="#1e293b" stroke-width="2" marker-end="url(#arrow-open)"/><text x="256" y="142" text-anchor="middle" font-family="monospace" font-size="11" fill="#334155">Caches via</text><rect x="32" y="66" width="200" height="60" rx="8" ry="8" fill="#85bbf0" stroke="#5d82a8" stroke-width="1.5"/><text x="132" y="92" text-anchor="middle" font-family="monospace" font-size="13" font-weight="600" fill="#000000">OrderController</text><text x="132" y="106" text-anchor="middle" font-family="monospace" font-size="10" fill="#000000">[Component]</text><rect x="280" y="66" width="200" height="60" rx="8" ry="8" fill="#85bbf0" stroke="#5d82a8" stroke-width="1.5"/><text x="380" y="92" text-anchor="middle" font-family="monospace" font-size="13" font-weight="600" fill="#000000">OrderService</text><text x="380" y="106" text-anchor="middle" font-family="monospace" font-size="10" fill="#000000">[Component]</text><rect x="528" y="66" width="200" height="60" rx="8" ry="8" fill="#85bbf0" stroke="#5d82a8" stroke-width="1.5"/><text x="628" y="92" text-anchor="middle" font-family="monospace" font-size="13" font-weight="600" fill="#000000">OrderRepository</text><text x="628" y="106" text-anchor="middle" font-family="monospace" font-size="10" fill="#000000">[Component]</text><rect x="32" y="190" width="200" height="60" rx="8" ry="8" fill="#85bbf0" stroke="#5d82a8" stroke-width="1.5"/><text x="132" y="216" text-anchor="middle" font-family="monospace" font-size="13" font-weight="600" fill="#000000">CacheLayer</text><text x="132" y="230" text-anchor="middle" font-family="monospace" font-size="10" fill="#000000">[Component]</text></svg>