<svg xmlns="http://www.w3.org/2000/svg" width="704" height="600" viewBox="0 0 704 600"><rect width="100%" height="100%" fill="#ffffff"/><defs><marker id="arrow-open" viewBox="0 0 10 10" refX="9" refY="5" markerWidth="10" markerHeight="10" markerUnits="userSpaceOnUse" orient="auto-start-reverse"><path d="M0,0 L10,5 L0,10" fill="none" stroke="#1e293b" stroke-width="1.5"/></marker><marker id="arrow-triangle" viewBox="0 0 16 16" refX="15" refY="8" markerWidth="16" markerHeight="16" markerUnits="userSpaceOnUse" orient="auto-start-reverse"><polygon points="0,1 14,8 0,15" fill="#ffffff" stroke="#1e293b" stroke-width="1.5" fill-rule="nonzero"/></marker><marker id="arrow-diamond-filled" viewBox="0 0 14 10" refX="13" refY="5" markerWidth="14" markerHeight="10" markerUnits="userSpaceOnUse" orient="auto-start-reverse"><path d="M0,5 L7,0 L14,5 L7,10 z" fill="#1e293b" stroke="#1e293b" stroke-width="1"/></marker><marker id="arrow-diamond-open" viewBox="0 0 14 10" refX="13" refY="5" markerWidth="14" markerHeight="10" markerUnits="userSpaceOnUse" orient="auto-start-reverse"><path d="M0,5 L7,0 L14,5 L7,10 z" fill="#ffffff" stroke="#1e293b" stroke-width="1"/></marker></defs><text x="32" y="32" font-family="monospace" font-size="18" font-weight="600" fill="#0f172a">Component Diagram - API Service</text><polyline class="uml-relation" data-uml-from="ctrl" data-uml-to="svc" data-uml-arrow="--&gt;" points="266,126 266,176 266,250" fill="none" stroke="#1e293b" stroke-width="2" marker-end="url(#arrow-open)" /><text x="266" y="201" text-anchor="middle" font-family="monospace" font-size="11" fill="#334155">Uses</text><polyline class="uml-relation" data-uml-from="svc" data-uml-to="repo" data-uml-arrow="--&gt;" points="266,310 266,360 386,360 386,434" fill="none" stroke="#1e293b" stroke-width="2" marker-end="url(#arrow-open)" /><text x="326" y="348" text-anchor="middle" font-family="monospace" font-size="11" fill="#334155">Queries</text><polyline class="uml-relation" data-uml-from="svc" data-uml-to="cache" data-uml-arrow="--&gt;" points="266,310 266,368 146,368 146,434" fill="none" stroke="#1e293b" stroke-width="2" marker-end="url(#arrow-open)" /><text x="206" y="356" text-anchor="middle" font-family="monospace" font-size="11" fill="#334155">Caches via</text><rect x="186" y="66" width="160" height="60" rx="8" ry="8" fill="#85bbf0" stroke="#5d82a8" stroke-width="1.5"/><text x="266" y="92" text-anchor="middle" font-family="monospace" font-size="13" font-weight="600" fill="#000000">OrderController</text><text x="266" y="106" text-anchor="middle" font-family="monospace" font-size="10" fill="#000000">[Component]</text><rect x="186" y="250" width="160" height="60" rx="8" ry="8" fill="#85bbf0" stroke="#5d82a8" stroke-width="1.5"/><text x="266" y="276" text-anchor="middle" font-family="monospace" font-size="13" font-weight="600" fill="#000000">OrderService</text><text x="266" y="290" text-anchor="middle" font-family="monospace" font-size="10" fill="#000000">[Component]</text><rect x="306" y="434" width="160" height="60" rx="8" ry="8" fill="#85bbf0" stroke="#5d82a8" stroke-width="1.5"/><text x="386" y="460" text-anchor="middle" font-family="monospace" font-size="13" font-weight="600" fill="#000000">OrderRepository</text><text x="386" y="474" text-anchor="middle" font-family="monospace" font-size="10" fill="#000000">[Component]</text><rect x="66" y="434" width="160" height="60" rx="8" ry="8" fill="#85bbf0" stroke="#5d82a8" stroke-width="1.5"/><text x="146" y="460" text-anchor="middle" font-family="monospace" font-size="13" font-weight="600" fill="#000000">CacheLayer</text><text x="146" y="474" text-anchor="middle" font-family="monospace" font-size="10" fill="#000000">[Component]</text></svg>