<svg xmlns="http://www.w3.org/2000/svg" width="588" height="600" viewBox="0 0 588 600" data-orientation="TopToBottom"><rect width="100%" height="100%" fill="#ffffff"/><defs><marker id="arrow-open" viewBox="0 0 10 10" refX="9" refY="5" markerWidth="10" markerHeight="10" markerUnits="userSpaceOnUse" orient="auto-start-reverse"><path d="M0,0 L10,5 L0,10" fill="none" stroke="#1e293b" stroke-width="1.5"/></marker><marker id="arrow-triangle" viewBox="0 0 16 16" refX="15" refY="8" markerWidth="16" markerHeight="16" markerUnits="userSpaceOnUse" orient="auto-start-reverse"><polygon points="0,1 14,8 0,15" fill="#ffffff" stroke="#1e293b" stroke-width="1.5" fill-rule="nonzero"/></marker><marker id="arrow-diamond-filled" viewBox="0 0 14 10" refX="13" refY="5" markerWidth="14" markerHeight="10" markerUnits="userSpaceOnUse" orient="auto-start-reverse"><path d="M0,5 L7,0 L14,5 L7,10 z" fill="#1e293b" stroke="#1e293b" stroke-width="1"/></marker><marker id="arrow-diamond-open" viewBox="0 0 14 10" refX="13" refY="5" markerWidth="14" markerHeight="10" markerUnits="userSpaceOnUse" orient="auto-start-reverse"><path d="M0,5 L7,0 L14,5 L7,10 z" fill="#ffffff" stroke="#1e293b" stroke-width="1"/></marker></defs><defs><marker id="arrow-triangle-filled" viewBox="0 0 12 12" refX="11" refY="6" markerWidth="12" markerHeight="12" markerUnits="userSpaceOnUse" orient="auto-start-reverse"><polygon points="0,0 12,6 0,12" fill="#1e293b" stroke="#1e293b" stroke-width="1.5"/></marker><marker id="arrow-box-filled" viewBox="0 0 12 12" refX="11" refY="6" markerWidth="12" markerHeight="12" markerUnits="userSpaceOnUse" orient="auto-start-reverse"><rect x="2" y="2" width="8" height="8" fill="#1e293b" stroke="#1e293b" stroke-width="1.5"/></marker><marker id="arrow-plus" viewBox="0 0 12 12" refX="11" refY="6" markerWidth="12" markerHeight="12" markerUnits="userSpaceOnUse" orient="auto-start-reverse"><path d="M6,1 L6,11 M1,6 L11,6" fill="none" stroke="#1e293b" stroke-width="1.8" stroke-linecap="round"/></marker><marker id="arrow-cross" viewBox="0 0 12 12" refX="11" refY="6" markerWidth="12" markerHeight="12" markerUnits="userSpaceOnUse" orient="auto-start-reverse"><path d="M2,2 L10,10 M10,2 L2,10" fill="none" stroke="#1e293b" stroke-width="1.8" stroke-linecap="round"/></marker><marker id="arrow-bracket-open" viewBox="0 0 12 14" refX="11" refY="7" markerWidth="12" markerHeight="14" markerUnits="userSpaceOnUse" orient="auto-start-reverse"><path d="M10,1 L4,1 L4,13 L10,13" fill="none" stroke="#1e293b" stroke-width="1.8" stroke-linecap="round" stroke-linejoin="round"/></marker><marker id="arrow-circle-open" viewBox="0 0 12 12" refX="11" refY="6" markerWidth="12" markerHeight="12" markerUnits="userSpaceOnUse" orient="auto-start-reverse"><circle cx="6" cy="6" r="4" fill="#ffffff" stroke="#1e293b" stroke-width="1.5"/></marker><marker id="arrow-circle-filled" viewBox="0 0 12 12" refX="11" refY="6" markerWidth="12" markerHeight="12" markerUnits="userSpaceOnUse" orient="auto-start-reverse"><circle cx="6" cy="6" r="4" fill="#1e293b" stroke="#1e293b" stroke-width="1.5"/></marker><marker id="arrow-double-open" viewBox="0 0 16 12" refX="15" refY="6" markerWidth="16" markerHeight="12" markerUnits="userSpaceOnUse" orient="auto-start-reverse"><path d="M0,1 L8,6 L0,11 M7,1 L15,6 L7,11" fill="none" stroke="#1e293b" stroke-width="1.5" stroke-linejoin="round"/></marker></defs><text x="32" y="32" font-family="monospace" font-size="18" font-weight="600" fill="#0f172a">Component Diagram - API Service</text><path class="uml-relation" data-uml-from="ctrl" data-uml-to="svc" data-uml-arrow="--&gt;" d="M 273,126 C 273.0,146.7 273.0,167.3 273.0,188.0 C 273.0,208.7 273.0,229.3 273.0,250.0" fill="none" stroke="#1e293b" stroke-width="2" marker-end="url(#arrow-open)" /><text class="uml-edge-label" data-uml-label-role="edge" x="379" y="207" text-anchor="middle" font-family="monospace" font-size="11" fill="#334155">Uses</text><path class="uml-relation" data-uml-from="svc" data-uml-to="repo" data-uml-arrow="--&gt;" d="M 273,310 C 273.0,329.3 251.8,358.3 273.0,368.0 C 294.2,377.7 378.8,357.0 400.0,368.0 C 421.2,379.0 400.0,412.0 400.0,434.0" fill="none" stroke="#1e293b" stroke-width="2" marker-end="url(#arrow-open)" /><text class="uml-edge-label" data-uml-label-role="edge" x="314" y="356" text-anchor="middle" font-family="monospace" font-size="11" fill="#334155">Queries</text><path class="uml-relation" data-uml-from="svc" data-uml-to="cache" data-uml-arrow="--&gt;" d="M 273,310 C 273.0,332.0 294.2,365.0 273.0,376.0 C 251.8,387.0 167.2,366.3 146.0,376.0 C 124.8,385.7 146.0,414.7 146.0,434.0" fill="none" stroke="#1e293b" stroke-width="2" marker-end="url(#arrow-open)" /><text class="uml-edge-label" data-uml-label-role="edge" x="239" y="384" text-anchor="middle" font-family="monospace" font-size="11" fill="#334155">Caches via</text><rect x="193" y="66" width="160" height="60" rx="8" ry="8" fill="#85bbf0" stroke="#5d82a8" stroke-width="1.5"/><text x="273" y="92" text-anchor="middle" font-family="monospace" font-size="13" font-weight="600" fill="#000000">OrderController</text><text x="273" y="106" text-anchor="middle" font-family="monospace" font-size="10" fill="#000000">[Component]</text><rect x="193" y="250" width="160" height="60" rx="8" ry="8" fill="#85bbf0" stroke="#5d82a8" stroke-width="1.5"/><text x="273" y="276" text-anchor="middle" font-family="monospace" font-size="13" font-weight="600" fill="#000000">OrderService</text><text x="273" y="290" text-anchor="middle" font-family="monospace" font-size="10" fill="#000000">[Component]</text><rect x="320" y="434" width="160" height="60" rx="8" ry="8" fill="#85bbf0" stroke="#5d82a8" stroke-width="1.5"/><text x="400" y="460" text-anchor="middle" font-family="monospace" font-size="13" font-weight="600" fill="#000000">OrderRepository</text><text x="400" y="474" text-anchor="middle" font-family="monospace" font-size="10" fill="#000000">[Component]</text><rect x="66" y="434" width="160" height="60" rx="8" ry="8" fill="#85bbf0" stroke="#5d82a8" stroke-width="1.5"/><text x="146" y="460" text-anchor="middle" font-family="monospace" font-size="13" font-weight="600" fill="#000000">CacheLayer</text><text x="146" y="474" text-anchor="middle" font-family="monospace" font-size="10" fill="#000000">[Component]</text></svg>