<svg xmlns="http://www.w3.org/2000/svg" width="760" height="358" viewBox="0 0 760 358"><rect width="100%" height="100%" fill="#ffffff"/><defs><marker id="arrow-open" viewBox="0 0 10 10" refX="9" refY="5" markerWidth="10" markerHeight="10" orient="auto-start-reverse"><path d="M0,0 L10,5 L0,10" fill="none" stroke="#1e293b" stroke-width="1.5"/></marker><marker id="arrow-triangle" viewBox="0 0 12 12" refX="11" refY="6" markerWidth="12" markerHeight="12" orient="auto-start-reverse"><path d="M0,0 L12,6 L0,12 z" fill="white" stroke="#1e293b" stroke-width="1.5"/></marker><marker id="arrow-diamond-filled" viewBox="0 0 14 10" refX="13" refY="5" markerWidth="14" markerHeight="10" orient="auto-start-reverse"><path d="M0,5 L7,0 L14,5 L7,10 z" fill="#1e293b" stroke="#1e293b" stroke-width="1"/></marker><marker id="arrow-diamond-open" viewBox="0 0 14 10" refX="13" refY="5" markerWidth="14" markerHeight="10" orient="auto-start-reverse"><path d="M0,5 L7,0 L14,5 L7,10 z" fill="white" stroke="#1e293b" stroke-width="1"/></marker></defs><text x="32" y="32" font-family="monospace" font-size="18" font-weight="600" fill="#0f172a">Actors in the System</text><line class="uml-relation" data-uml-from="admin" data-uml-to="cms" x1="214" y1="160" x2="328" y2="224" stroke="#1e293b" stroke-width="2" marker-end="url(#arrow-open)"/><text x="271" y="188" text-anchor="middle" font-family="monospace" font-size="11" fill="#334155">&quot;Configures&quot;</text><line class="uml-relation" data-uml-from="editor" data-uml-to="cms" x1="380" y1="160" x2="380" y2="224" stroke="#1e293b" stroke-width="2" marker-end="url(#arrow-open)"/><text x="380" y="188" text-anchor="middle" font-family="monospace" font-size="11" fill="#334155">&quot;Creates content&quot;</text><line class="uml-relation" data-uml-from="viewer" data-uml-to="cms" x1="546" y1="160" x2="432" y2="224" stroke="#1e293b" stroke-width="2" marker-end="url(#arrow-open)"/><text x="489" y="188" text-anchor="middle" font-family="monospace" font-size="11" fill="#334155">&quot;Reads content&quot;</text><line class="uml-relation" data-uml-from="api_user" data-uml-to="cms" x1="232" y1="265" x2="280" y2="260" stroke="#1e293b" stroke-width="2" marker-end="url(#arrow-open)"/><text x="256" y="258" text-anchor="middle" font-family="monospace" font-size="11" fill="#334155">&quot;Reads via API&quot;</text><circle cx="132" cy="76" r="9" fill="#1168bd" stroke="#0d4f8f" stroke-width="1.5"/><line x1="132" y1="85" x2="132" y2="98" stroke="#0d4f8f" stroke-width="2"/><line x1="120" y1="92" x2="144" y2="92" stroke="#0d4f8f" stroke-width="2"/><line x1="132" y1="98" x2="122" y2="110" stroke="#0d4f8f" stroke-width="2"/><line x1="132" y1="98" x2="142" y2="110" stroke="#0d4f8f" stroke-width="2"/><rect x="32" y="110" width="200" height="50" rx="8" ry="8" fill="#1168bd" stroke="#0d4f8f" stroke-width="1.5"/><text x="132" y="134" text-anchor="middle" font-family="monospace" font-size="13" font-weight="600" fill="#ffffff">Administrator</text><text x="132" y="148" text-anchor="middle" font-family="monospace" font-size="10" fill="#ffffff">[Person]</text><circle cx="380" cy="76" r="9" fill="#1168bd" stroke="#0d4f8f" stroke-width="1.5"/><line x1="380" y1="85" x2="380" y2="98" stroke="#0d4f8f" stroke-width="2"/><line x1="368" y1="92" x2="392" y2="92" stroke="#0d4f8f" stroke-width="2"/><line x1="380" y1="98" x2="370" y2="110" stroke="#0d4f8f" stroke-width="2"/><line x1="380" y1="98" x2="390" y2="110" stroke="#0d4f8f" stroke-width="2"/><rect x="280" y="110" width="200" height="50" rx="8" ry="8" fill="#1168bd" stroke="#0d4f8f" stroke-width="1.5"/><text x="380" y="134" text-anchor="middle" font-family="monospace" font-size="13" font-weight="600" fill="#ffffff">Content Editor</text><text x="380" y="148" text-anchor="middle" font-family="monospace" font-size="10" fill="#ffffff">[Person]</text><circle cx="628" cy="76" r="9" fill="#1168bd" stroke="#0d4f8f" stroke-width="1.5"/><line x1="628" y1="85" x2="628" y2="98" stroke="#0d4f8f" stroke-width="2"/><line x1="616" y1="92" x2="640" y2="92" stroke="#0d4f8f" stroke-width="2"/><line x1="628" y1="98" x2="618" y2="110" stroke="#0d4f8f" stroke-width="2"/><line x1="628" y1="98" x2="638" y2="110" stroke="#0d4f8f" stroke-width="2"/><rect x="528" y="110" width="200" height="50" rx="8" ry="8" fill="#1168bd" stroke="#0d4f8f" stroke-width="1.5"/><text x="628" y="134" text-anchor="middle" font-family="monospace" font-size="13" font-weight="600" fill="#ffffff">Viewer</text><text x="628" y="148" text-anchor="middle" font-family="monospace" font-size="10" fill="#ffffff">[Person]</text><circle cx="132" cy="234" r="9" fill="#8a8a8a" stroke="#6b6b6b" stroke-width="1.5"/><line x1="132" y1="243" x2="132" y2="256" stroke="#6b6b6b" stroke-width="2"/><line x1="120" y1="250" x2="144" y2="250" stroke="#6b6b6b" stroke-width="2"/><line x1="132" y1="256" x2="122" y2="268" stroke="#6b6b6b" stroke-width="2"/><line x1="132" y1="256" x2="142" y2="268" stroke="#6b6b6b" stroke-width="2"/><rect x="32" y="268" width="200" height="50" rx="8" ry="8" fill="#8a8a8a" stroke="#6b6b6b" stroke-width="1.5"/><text x="132" y="292" text-anchor="middle" font-family="monospace" font-size="13" font-weight="600" fill="#ffffff">API Consumer</text><text x="132" y="306" text-anchor="middle" font-family="monospace" font-size="10" fill="#ffffff">[Person, ext]</text><rect x="280" y="224" width="200" height="60" rx="8" ry="8" fill="#1168bd" stroke="#0d4f8f" stroke-width="1.5"/><text x="380" y="250" text-anchor="middle" font-family="monospace" font-size="13" font-weight="600" fill="#ffffff">CMS Platform</text><text x="380" y="264" text-anchor="middle" font-family="monospace" font-size="10" fill="#ffffff">[System]</text></svg>