<svg xmlns="http://www.w3.org/2000/svg" width="1037" height="402" viewBox="0 0 1037 402" data-orientation="TopToBottom"><rect width="100%" height="100%" fill="#ffffff"/><defs><marker id="arrow-open" viewBox="0 0 10 10" refX="9" refY="5" markerWidth="10" markerHeight="10" markerUnits="userSpaceOnUse" orient="auto-start-reverse"><path d="M0,0 L10,5 L0,10" fill="none" stroke="#1e293b" stroke-width="1.5"/></marker><marker id="arrow-triangle" viewBox="0 0 16 16" refX="15" refY="8" markerWidth="16" markerHeight="16" markerUnits="userSpaceOnUse" orient="auto-start-reverse"><polygon points="0,1 14,8 0,15" fill="#ffffff" stroke="#1e293b" stroke-width="1.5" fill-rule="nonzero"/></marker><marker id="arrow-diamond-filled" viewBox="0 0 14 10" refX="13" refY="5" markerWidth="14" markerHeight="10" markerUnits="userSpaceOnUse" orient="auto-start-reverse"><path d="M0,5 L7,0 L14,5 L7,10 z" fill="#1e293b" stroke="#1e293b" stroke-width="1"/></marker><marker id="arrow-diamond-open" viewBox="0 0 14 10" refX="13" refY="5" markerWidth="14" markerHeight="10" markerUnits="userSpaceOnUse" orient="auto-start-reverse"><path d="M0,5 L7,0 L14,5 L7,10 z" fill="#ffffff" stroke="#1e293b" stroke-width="1"/></marker></defs><defs><marker id="arrow-triangle-filled" viewBox="0 0 12 12" refX="11" refY="6" markerWidth="12" markerHeight="12" markerUnits="userSpaceOnUse" orient="auto-start-reverse"><polygon points="0,0 12,6 0,12" fill="#1e293b" stroke="#1e293b" stroke-width="1.5"/></marker><marker id="arrow-box-filled" viewBox="0 0 12 12" refX="11" refY="6" markerWidth="12" markerHeight="12" markerUnits="userSpaceOnUse" orient="auto-start-reverse"><rect x="2" y="2" width="8" height="8" fill="#1e293b" stroke="#1e293b" stroke-width="1.5"/></marker><marker id="arrow-plus" viewBox="0 0 12 12" refX="11" refY="6" markerWidth="12" markerHeight="12" markerUnits="userSpaceOnUse" orient="auto-start-reverse"><path d="M6,1 L6,11 M1,6 L11,6" fill="none" stroke="#1e293b" stroke-width="1.8" stroke-linecap="round"/></marker><marker id="arrow-cross" viewBox="0 0 12 12" refX="11" refY="6" markerWidth="12" markerHeight="12" markerUnits="userSpaceOnUse" orient="auto-start-reverse"><path d="M2,2 L10,10 M10,2 L2,10" fill="none" stroke="#1e293b" stroke-width="1.8" stroke-linecap="round"/></marker><marker id="arrow-bracket-open" viewBox="0 0 12 14" refX="11" refY="7" markerWidth="12" markerHeight="14" markerUnits="userSpaceOnUse" orient="auto-start-reverse"><path d="M10,1 L4,1 L4,13 L10,13" fill="none" stroke="#1e293b" stroke-width="1.8" stroke-linecap="round" stroke-linejoin="round"/></marker><marker id="arrow-circle-open" viewBox="0 0 12 12" refX="11" refY="6" markerWidth="12" markerHeight="12" markerUnits="userSpaceOnUse" orient="auto-start-reverse"><circle cx="6" cy="6" r="4" fill="#ffffff" stroke="#1e293b" stroke-width="1.5"/></marker><marker id="arrow-circle-filled" viewBox="0 0 12 12" refX="11" refY="6" markerWidth="12" markerHeight="12" markerUnits="userSpaceOnUse" orient="auto-start-reverse"><circle cx="6" cy="6" r="4" fill="#1e293b" stroke="#1e293b" stroke-width="1.5"/></marker><marker id="arrow-double-open" viewBox="0 0 16 12" refX="15" refY="6" markerWidth="16" markerHeight="12" markerUnits="userSpaceOnUse" orient="auto-start-reverse"><path d="M0,1 L8,6 L0,11 M7,1 L15,6 L7,11" fill="none" stroke="#1e293b" stroke-width="1.5" stroke-linejoin="round"/></marker></defs><text x="32" y="32" font-family="monospace" font-size="18" font-weight="600" fill="#0f172a">Actors in the System</text><polyline class="uml-relation" data-uml-from="admin" data-uml-to="cms" data-uml-arrow="--&gt;" points="226,118 146,118 482,269 402,269" fill="none" stroke="#1e293b" stroke-width="2" marker-end="url(#arrow-open)" /><text class="uml-edge-label" data-uml-label-role="edge" x="337" y="70" text-anchor="middle" font-family="monospace" font-size="11" fill="#334155">Configures</text><polyline class="uml-relation" data-uml-from="editor" data-uml-to="cms" data-uml-arrow="--&gt;" points="595,170 595,209 482,209 482,234" fill="none" stroke="#1e293b" stroke-width="2" marker-end="url(#arrow-open)" /><rect class="uml-edge-label-bg" data-uml-label-role="edge-background" x="484" y="184" width="108" height="18" fill="white" opacity="0.85"/><text class="uml-edge-label" data-uml-label-role="edge" x="538" y="197" text-anchor="middle" font-family="monospace" font-size="11" fill="#334155">Creates content</text><polyline class="uml-relation" data-uml-from="viewer" data-uml-to="cms" data-uml-arrow="--&gt;" points="739,118 819,118 482,269 562,269" fill="none" stroke="#1e293b" stroke-width="2" marker-end="url(#arrow-open)" /><rect class="uml-edge-label-bg" data-uml-label-role="edge-background" x="599" y="198" width="94" height="18" fill="white" opacity="0.85"/><text class="uml-edge-label" data-uml-label-role="edge" x="646" y="211" text-anchor="middle" font-family="monospace" font-size="11" fill="#334155">Reads content</text><polyline class="uml-relation" data-uml-from="api_user" data-uml-to="cms" data-uml-arrow="--&gt;" points="370,170 370,195 482,195 482,234" fill="none" stroke="#1e293b" stroke-width="2" marker-end="url(#arrow-open)" /><rect class="uml-edge-label-bg" data-uml-label-role="edge-background" x="383" y="170" width="94" height="18" fill="white" opacity="0.85"/><text class="uml-edge-label" data-uml-label-role="edge" x="430" y="183" text-anchor="middle" font-family="monospace" font-size="11" fill="#334155">Reads via API</text><circle cx="146" cy="76" r="9" fill="#1168bd" stroke="#0d4f8f" stroke-width="1.5"/><line x1="146" y1="85" x2="146" y2="98" stroke="#0d4f8f" stroke-width="2"/><line x1="134" y1="92" x2="158" y2="92" stroke="#0d4f8f" stroke-width="2"/><line x1="146" y1="98" x2="136" y2="110" stroke="#0d4f8f" stroke-width="2"/><line x1="146" y1="98" x2="156" y2="110" stroke="#0d4f8f" stroke-width="2"/><rect x="66" y="110" width="160" height="60" rx="8" ry="8" fill="#1168bd" stroke="#0d4f8f" stroke-width="1.5"/><text x="146" y="134" text-anchor="middle" font-family="monospace" font-size="13" font-weight="600" fill="#ffffff">Administrator</text><text x="146" y="148" text-anchor="middle" font-family="monospace" font-size="10" fill="#ffffff">«person»</text><circle cx="595" cy="76" r="9" fill="#1168bd" stroke="#0d4f8f" stroke-width="1.5"/><line x1="595" y1="85" x2="595" y2="98" stroke="#0d4f8f" stroke-width="2"/><line x1="583" y1="92" x2="607" y2="92" stroke="#0d4f8f" stroke-width="2"/><line x1="595" y1="98" x2="585" y2="110" stroke="#0d4f8f" stroke-width="2"/><line x1="595" y1="98" x2="605" y2="110" stroke="#0d4f8f" stroke-width="2"/><rect x="515" y="110" width="160" height="60" rx="8" ry="8" fill="#1168bd" stroke="#0d4f8f" stroke-width="1.5"/><text x="595" y="134" text-anchor="middle" font-family="monospace" font-size="13" font-weight="600" fill="#ffffff">Content Editor</text><text x="595" y="148" text-anchor="middle" font-family="monospace" font-size="10" fill="#ffffff">«person»</text><circle cx="819" cy="76" r="9" fill="#1168bd" stroke="#0d4f8f" stroke-width="1.5"/><line x1="819" y1="85" x2="819" y2="98" stroke="#0d4f8f" stroke-width="2"/><line x1="807" y1="92" x2="831" y2="92" stroke="#0d4f8f" stroke-width="2"/><line x1="819" y1="98" x2="809" y2="110" stroke="#0d4f8f" stroke-width="2"/><line x1="819" y1="98" x2="829" y2="110" stroke="#0d4f8f" stroke-width="2"/><rect x="739" y="110" width="160" height="60" rx="8" ry="8" fill="#1168bd" stroke="#0d4f8f" stroke-width="1.5"/><text x="819" y="134" text-anchor="middle" font-family="monospace" font-size="13" font-weight="600" fill="#ffffff">Viewer</text><text x="819" y="148" text-anchor="middle" font-family="monospace" font-size="10" fill="#ffffff">«person»</text><circle cx="370" cy="76" r="9" fill="#8a8a8a" stroke="#6b6b6b" stroke-width="1.5"/><line x1="370" y1="85" x2="370" y2="98" stroke="#6b6b6b" stroke-width="2"/><line x1="358" y1="92" x2="382" y2="92" stroke="#6b6b6b" stroke-width="2"/><line x1="370" y1="98" x2="360" y2="110" stroke="#6b6b6b" stroke-width="2"/><line x1="370" y1="98" x2="380" y2="110" stroke="#6b6b6b" stroke-width="2"/><rect x="290" y="110" width="160" height="60" rx="8" ry="8" fill="#8a8a8a" stroke="#6b6b6b" stroke-width="1.5"/><text x="370" y="134" text-anchor="middle" font-family="monospace" font-size="13" font-weight="600" fill="#ffffff">API Consumer</text><text x="370" y="148" text-anchor="middle" font-family="monospace" font-size="10" fill="#ffffff">«external_person»</text><rect x="402" y="234" width="160" height="70" rx="8" ry="8" fill="#1168bd" stroke="#0d4f8f" stroke-width="1.5"/><text x="482" y="265" text-anchor="middle" font-family="monospace" font-size="13" font-weight="600" fill="#ffffff">CMS Platform</text><text x="482" y="279" text-anchor="middle" font-family="monospace" font-size="10" fill="#ffffff">«system»</text></svg>