<svg xmlns="http://www.w3.org/2000/svg" width="1231" height="484" viewBox="0 0 1231 484" data-orientation="TopToBottom"><rect width="100%" height="100%" fill="#ffffff"/><defs><marker id="arrow-open" viewBox="0 0 10 10" refX="9" refY="5" markerWidth="10" markerHeight="10" markerUnits="userSpaceOnUse" orient="auto-start-reverse"><path d="M0,0 L10,5 L0,10" fill="none" stroke="#1e293b" stroke-width="1.5"/></marker><marker id="arrow-triangle" viewBox="0 0 16 16" refX="15" refY="8" markerWidth="16" markerHeight="16" markerUnits="userSpaceOnUse" orient="auto-start-reverse"><polygon points="0,1 14,8 0,15" fill="#ffffff" stroke="#1e293b" stroke-width="1.5" fill-rule="nonzero"/></marker><marker id="arrow-diamond-filled" viewBox="0 0 14 10" refX="13" refY="5" markerWidth="14" markerHeight="10" markerUnits="userSpaceOnUse" orient="auto-start-reverse"><path d="M0,5 L7,0 L14,5 L7,10 z" fill="#1e293b" stroke="#1e293b" stroke-width="1"/></marker><marker id="arrow-diamond-open" viewBox="0 0 14 10" refX="13" refY="5" markerWidth="14" markerHeight="10" markerUnits="userSpaceOnUse" orient="auto-start-reverse"><path d="M0,5 L7,0 L14,5 L7,10 z" fill="#ffffff" stroke="#1e293b" stroke-width="1"/></marker></defs><text x="32" y="32" font-family="monospace" font-size="18" font-weight="600" fill="#0f172a">Actors in the System</text><polyline class="uml-relation" data-uml-from="admin" data-uml-to="cms" data-uml-arrow="--&gt;" points="226,113 226,182 499,182 499,348" fill="none" stroke="#1e293b" stroke-width="2" marker-end="url(#arrow-open)" /><text x="420" y="304" text-anchor="middle" font-family="monospace" font-size="11" fill="#334155">Configures</text><polyline class="uml-relation" data-uml-from="editor" data-uml-to="cms" data-uml-arrow="--&gt;" points="724,160 724,257 579,257 579,318" fill="none" stroke="#1e293b" stroke-width="2" marker-end="url(#arrow-open)" /><text x="519" y="300" text-anchor="middle" font-family="monospace" font-size="11" fill="#334155">Creates content</text><polyline class="uml-relation" data-uml-from="viewer" data-uml-to="cms" data-uml-arrow="--&gt;" points="933,113 933,295 659,295 659,348" fill="none" stroke="#1e293b" stroke-width="2" marker-end="url(#arrow-open)" /><text x="627" y="300" text-anchor="middle" font-family="monospace" font-size="11" fill="#334155">Reads content</text><polyline class="uml-relation" data-uml-from="api_user" data-uml-to="cms" data-uml-arrow="--&gt;" points="435,160 435,220 579,220 579,318" fill="none" stroke="#1e293b" stroke-width="2" marker-end="url(#arrow-open)" /><text x="729" y="304" text-anchor="middle" font-family="monospace" font-size="11" fill="#334155">Reads via API</text><circle cx="146" cy="76" r="9" fill="#1168bd" stroke="#0d4f8f" stroke-width="1.5"/><line x1="146" y1="85" x2="146" y2="98" stroke="#0d4f8f" stroke-width="2"/><line x1="134" y1="92" x2="158" y2="92" stroke="#0d4f8f" stroke-width="2"/><line x1="146" y1="98" x2="136" y2="110" stroke="#0d4f8f" stroke-width="2"/><line x1="146" y1="98" x2="156" y2="110" stroke="#0d4f8f" stroke-width="2"/><rect x="66" y="110" width="160" height="50" rx="8" ry="8" fill="#1168bd" stroke="#0d4f8f" stroke-width="1.5"/><text x="146" y="134" text-anchor="middle" font-family="monospace" font-size="13" font-weight="600" fill="#ffffff">Administrator</text><text x="146" y="148" text-anchor="middle" font-family="monospace" font-size="10" fill="#ffffff">[Person]</text><circle cx="724" cy="76" r="9" fill="#1168bd" stroke="#0d4f8f" stroke-width="1.5"/><line x1="724" y1="85" x2="724" y2="98" stroke="#0d4f8f" stroke-width="2"/><line x1="712" y1="92" x2="736" y2="92" stroke="#0d4f8f" stroke-width="2"/><line x1="724" y1="98" x2="714" y2="110" stroke="#0d4f8f" stroke-width="2"/><line x1="724" y1="98" x2="734" y2="110" stroke="#0d4f8f" stroke-width="2"/><rect x="644" y="110" width="160" height="50" rx="8" ry="8" fill="#1168bd" stroke="#0d4f8f" stroke-width="1.5"/><text x="724" y="134" text-anchor="middle" font-family="monospace" font-size="13" font-weight="600" fill="#ffffff">Content Editor</text><text x="724" y="148" text-anchor="middle" font-family="monospace" font-size="10" fill="#ffffff">[Person]</text><circle cx="1013" cy="76" r="9" fill="#1168bd" stroke="#0d4f8f" stroke-width="1.5"/><line x1="1013" y1="85" x2="1013" y2="98" stroke="#0d4f8f" stroke-width="2"/><line x1="1001" y1="92" x2="1025" y2="92" stroke="#0d4f8f" stroke-width="2"/><line x1="1013" y1="98" x2="1003" y2="110" stroke="#0d4f8f" stroke-width="2"/><line x1="1013" y1="98" x2="1023" y2="110" stroke="#0d4f8f" stroke-width="2"/><rect x="933" y="110" width="160" height="50" rx="8" ry="8" fill="#1168bd" stroke="#0d4f8f" stroke-width="1.5"/><text x="1013" y="134" text-anchor="middle" font-family="monospace" font-size="13" font-weight="600" fill="#ffffff">Viewer</text><text x="1013" y="148" text-anchor="middle" font-family="monospace" font-size="10" fill="#ffffff">[Person]</text><circle cx="435" cy="76" r="9" fill="#8a8a8a" stroke="#6b6b6b" stroke-width="1.5"/><line x1="435" y1="85" x2="435" y2="98" stroke="#6b6b6b" stroke-width="2"/><line x1="423" y1="92" x2="447" y2="92" stroke="#6b6b6b" stroke-width="2"/><line x1="435" y1="98" x2="425" y2="110" stroke="#6b6b6b" stroke-width="2"/><line x1="435" y1="98" x2="445" y2="110" stroke="#6b6b6b" stroke-width="2"/><rect x="355" y="110" width="160" height="50" rx="8" ry="8" fill="#8a8a8a" stroke="#6b6b6b" stroke-width="1.5"/><text x="435" y="134" text-anchor="middle" font-family="monospace" font-size="13" font-weight="600" fill="#ffffff">API Consumer</text><text x="435" y="148" text-anchor="middle" font-family="monospace" font-size="10" fill="#ffffff">[Person, ext]</text><rect x="499" y="318" width="160" height="60" rx="8" ry="8" fill="#1168bd" stroke="#0d4f8f" stroke-width="1.5"/><text x="579" y="344" text-anchor="middle" font-family="monospace" font-size="13" font-weight="600" fill="#ffffff">CMS Platform</text><text x="579" y="358" text-anchor="middle" font-family="monospace" font-size="10" fill="#ffffff">[System]</text></svg>