<svg xmlns="http://www.w3.org/2000/svg" width="1285" height="416" viewBox="0 0 1285 416"><rect width="100%" height="100%" fill="#ffffff"/><defs><marker id="arrow-open" viewBox="0 0 10 10" refX="9" refY="5" markerWidth="10" markerHeight="10" markerUnits="userSpaceOnUse" orient="auto-start-reverse"><path d="M0,0 L10,5 L0,10" fill="none" stroke="#1e293b" stroke-width="1.5"/></marker><marker id="arrow-triangle" viewBox="0 0 16 16" refX="15" refY="8" markerWidth="16" markerHeight="16" markerUnits="userSpaceOnUse" orient="auto-start-reverse"><polygon points="0,1 14,8 0,15" fill="#ffffff" stroke="#1e293b" stroke-width="1.5" fill-rule="nonzero"/></marker><marker id="arrow-diamond-filled" viewBox="0 0 14 10" refX="13" refY="5" markerWidth="14" markerHeight="10" markerUnits="userSpaceOnUse" orient="auto-start-reverse"><path d="M0,5 L7,0 L14,5 L7,10 z" fill="#1e293b" stroke="#1e293b" stroke-width="1"/></marker><marker id="arrow-diamond-open" viewBox="0 0 14 10" refX="13" refY="5" markerWidth="14" markerHeight="10" markerUnits="userSpaceOnUse" orient="auto-start-reverse"><path d="M0,5 L7,0 L14,5 L7,10 z" fill="#ffffff" stroke="#1e293b" stroke-width="1"/></marker></defs><text x="32" y="32" font-family="monospace" font-size="18" font-weight="600" fill="#0f172a">External System Integrations</text><polyline class="uml-relation" data-uml-from="core" data-uml-to="auth" data-uml-arrow="--&gt;" points="600,126 600,176 449,176 449,250" fill="none" stroke="#1e293b" stroke-width="2" marker-end="url(#arrow-open)" /><text x="555" y="149" text-anchor="middle" font-family="monospace" font-size="11" fill="#334155">Authenticates via</text><polyline class="uml-relation" data-uml-from="core" data-uml-to="payment" data-uml-arrow="--&gt;" points="600,126 600,184 752,184 752,250" fill="none" stroke="#1e293b" stroke-width="2" marker-end="url(#arrow-open)" /><text x="660" y="161" text-anchor="middle" font-family="monospace" font-size="11" fill="#334155">Processes via</text><polyline class="uml-relation" data-uml-from="core" data-uml-to="analytics" data-uml-arrow="--&gt;" points="520,96 520,192 226,192 226,280" fill="none" stroke="#1e293b" stroke-width="2" marker-end="url(#arrow-open)" /><text x="373" y="174" text-anchor="middle" font-family="monospace" font-size="11" fill="#334155">Sends events to</text><polyline class="uml-relation" data-uml-from="core" data-uml-to="storage" data-uml-arrow="--&gt;" points="680,96 680,200 975,200 975,280" fill="none" stroke="#1e293b" stroke-width="2" marker-end="url(#arrow-open)" /><text x="857" y="192" text-anchor="middle" font-family="monospace" font-size="11" fill="#334155">Stores files in</text><rect x="520" y="66" width="160" height="60" rx="8" ry="8" fill="#1168bd" stroke="#0d4f8f" stroke-width="1.5"/><text x="600" y="92" text-anchor="middle" font-family="monospace" font-size="13" font-weight="600" fill="#ffffff">Core System</text><text x="600" y="106" text-anchor="middle" font-family="monospace" font-size="10" fill="#ffffff">[System]</text><rect x="369" y="250" width="160" height="60" rx="8" ry="8" fill="#8a8a8a" stroke="#6b6b6b" stroke-width="1.5"/><text x="449" y="276" text-anchor="middle" font-family="monospace" font-size="13" font-weight="600" fill="#ffffff">Auth Provider</text><text x="449" y="290" text-anchor="middle" font-family="monospace" font-size="10" fill="#ffffff">[System, ext]</text><rect x="672" y="250" width="160" height="60" rx="8" ry="8" fill="#8a8a8a" stroke="#6b6b6b" stroke-width="1.5"/><text x="752" y="276" text-anchor="middle" font-family="monospace" font-size="13" font-weight="600" fill="#ffffff">Payment Gateway</text><text x="752" y="290" text-anchor="middle" font-family="monospace" font-size="10" fill="#ffffff">[System, ext]</text><rect x="66" y="250" width="160" height="60" rx="8" ry="8" fill="#8a8a8a" stroke="#6b6b6b" stroke-width="1.5"/><text x="146" y="276" text-anchor="middle" font-family="monospace" font-size="13" font-weight="600" fill="#ffffff">Analytics</text><text x="146" y="290" text-anchor="middle" font-family="monospace" font-size="10" fill="#ffffff">[System, ext]</text><rect x="975" y="250" width="160" height="60" rx="8" ry="8" fill="#8a8a8a" stroke="#6b6b6b" stroke-width="1.5"/><text x="1055" y="276" text-anchor="middle" font-family="monospace" font-size="13" font-weight="600" fill="#ffffff">Object Storage</text><text x="1055" y="290" text-anchor="middle" font-family="monospace" font-size="10" fill="#ffffff">[System, ext]</text></svg>