<svg xmlns="http://www.w3.org/2000/svg" width="640" height="290" viewBox="0 0 640 290"><rect width="100%" height="100%" fill="#ffffff"/><defs><marker id="arrow-open" viewBox="0 0 10 10" refX="9" refY="5" markerWidth="10" markerHeight="10" orient="auto-start-reverse"><path d="M0,0 L10,5 L0,10" fill="none" stroke="#1e293b" stroke-width="1.5"/></marker><marker id="arrow-triangle" viewBox="0 0 12 12" refX="11" refY="6" markerWidth="12" markerHeight="12" orient="auto-start-reverse"><polygon points="0,0 12,6 0,12" fill="white" stroke="#1e293b" stroke-width="1.5" fill-rule="nonzero"/></marker><marker id="arrow-diamond-filled" viewBox="0 0 14 10" refX="13" refY="5" markerWidth="14" markerHeight="10" orient="auto-start-reverse"><path d="M0,5 L7,0 L14,5 L7,10 z" fill="#1e293b" stroke="#1e293b" stroke-width="1"/></marker><marker id="arrow-diamond-open" viewBox="0 0 14 10" refX="13" refY="5" markerWidth="14" markerHeight="10" orient="auto-start-reverse"><path d="M0,5 L7,0 L14,5 L7,10 z" fill="white" stroke="#1e293b" stroke-width="1"/></marker></defs><text x="32" y="32" font-family="monospace" font-size="18" font-weight="600" fill="#0f172a">External System Integrations</text><line class="uml-relation" data-uml-from="core" data-uml-to="auth" x1="192" y1="96" x2="240" y2="96" stroke="#1e293b" stroke-width="2" marker-end="url(#arrow-open)"/><text x="216" y="84" text-anchor="middle" font-family="monospace" font-size="11" fill="#334155">Authenticates via</text><line class="uml-relation" data-uml-from="core" data-uml-to="payment" x1="192" y1="96" x2="448" y2="96" stroke="#1e293b" stroke-width="2" marker-end="url(#arrow-open)"/><text x="320" y="84" text-anchor="middle" font-family="monospace" font-size="11" fill="#334155">Processes via</text><line class="uml-relation" data-uml-from="core" data-uml-to="analytics" x1="112" y1="126" x2="112" y2="190" stroke="#1e293b" stroke-width="2" marker-end="url(#arrow-open)"/><text x="112" y="146" text-anchor="middle" font-family="monospace" font-size="11" fill="#334155">Sends events to</text><line class="uml-relation" data-uml-from="core" data-uml-to="storage" x1="162" y1="126" x2="270" y2="190" stroke="#1e293b" stroke-width="2" marker-end="url(#arrow-open)"/><text x="216" y="146" text-anchor="middle" font-family="monospace" font-size="11" fill="#334155">Stores files in</text><rect x="32" y="66" width="160" height="60" rx="8" ry="8" fill="#1168bd" stroke="#0d4f8f" stroke-width="1.5"/><text x="112" y="92" text-anchor="middle" font-family="monospace" font-size="13" font-weight="600" fill="#ffffff">Core System</text><text x="112" y="106" text-anchor="middle" font-family="monospace" font-size="10" fill="#ffffff">[System]</text><rect x="240" y="66" width="160" height="60" rx="8" ry="8" fill="#8a8a8a" stroke="#6b6b6b" stroke-width="1.5"/><text x="320" y="92" text-anchor="middle" font-family="monospace" font-size="13" font-weight="600" fill="#ffffff">Auth Provider</text><text x="320" y="106" text-anchor="middle" font-family="monospace" font-size="10" fill="#ffffff">[System, ext]</text><rect x="448" y="66" width="160" height="60" rx="8" ry="8" fill="#8a8a8a" stroke="#6b6b6b" stroke-width="1.5"/><text x="528" y="92" text-anchor="middle" font-family="monospace" font-size="13" font-weight="600" fill="#ffffff">Payment Gateway</text><text x="528" y="106" text-anchor="middle" font-family="monospace" font-size="10" fill="#ffffff">[System, ext]</text><rect x="32" y="190" width="160" height="60" rx="8" ry="8" fill="#8a8a8a" stroke="#6b6b6b" stroke-width="1.5"/><text x="112" y="216" text-anchor="middle" font-family="monospace" font-size="13" font-weight="600" fill="#ffffff">Analytics</text><text x="112" y="230" text-anchor="middle" font-family="monospace" font-size="10" fill="#ffffff">[System, ext]</text><rect x="240" y="190" width="160" height="60" rx="8" ry="8" fill="#8a8a8a" stroke="#6b6b6b" stroke-width="1.5"/><text x="320" y="216" text-anchor="middle" font-family="monospace" font-size="13" font-weight="600" fill="#ffffff">Object Storage</text><text x="320" y="230" text-anchor="middle" font-family="monospace" font-size="10" fill="#ffffff">[System, ext]</text></svg>