<svg xmlns="http://www.w3.org/2000/svg" width="760" height="448" viewBox="0 0 760 448"><rect width="100%" height="100%" fill="#ffffff"/><defs><marker id="arrow-open" viewBox="0 0 10 10" refX="9" refY="5" markerWidth="10" markerHeight="10" markerUnits="userSpaceOnUse" orient="auto-start-reverse"><path d="M0,0 L10,5 L0,10" fill="none" stroke="#1e293b" stroke-width="1.5"/></marker><marker id="arrow-triangle" viewBox="0 0 16 16" refX="15" refY="8" markerWidth="16" markerHeight="16" markerUnits="userSpaceOnUse" orient="auto-start-reverse"><polygon points="0,1 14,8 0,15" fill="#ffffff" stroke="#1e293b" stroke-width="1.5" fill-rule="nonzero"/></marker><marker id="arrow-diamond-filled" viewBox="0 0 14 10" refX="13" refY="5" markerWidth="14" markerHeight="10" markerUnits="userSpaceOnUse" orient="auto-start-reverse"><path d="M0,5 L7,0 L14,5 L7,10 z" fill="#1e293b" stroke="#1e293b" stroke-width="1"/></marker><marker id="arrow-diamond-open" viewBox="0 0 14 10" refX="13" refY="5" markerWidth="14" markerHeight="10" markerUnits="userSpaceOnUse" orient="auto-start-reverse"><path d="M0,5 L7,0 L14,5 L7,10 z" fill="#ffffff" stroke="#1e293b" stroke-width="1"/></marker></defs><text x="32" y="32" font-family="monospace" font-size="18" font-weight="600" fill="#0f172a">Microservices Architecture</text><line class="uml-relation" data-uml-from="client" data-uml-to="gw" x1="232" y1="113" x2="280" y2="96" stroke="#1e293b" stroke-width="2" marker-end="url(#arrow-open)"/><text x="256" y="88" text-anchor="middle" font-family="monospace" font-size="11" fill="#334155">API calls</text><line class="uml-relation" data-uml-from="gw" data-uml-to="users" x1="480" y1="96" x2="528" y2="96" stroke="#1e293b" stroke-width="2" marker-end="url(#arrow-open)"/><text x="504" y="80" text-anchor="middle" font-family="monospace" font-size="11" fill="#334155">Routes</text><line class="uml-relation" data-uml-from="gw" data-uml-to="orders" x1="280" y1="96" x2="232" y2="254" stroke="#1e293b" stroke-width="2" marker-end="url(#arrow-open)"/><text x="264" y="163" text-anchor="middle" font-family="monospace" font-size="11" fill="#334155">Routes</text><line class="uml-relation" data-uml-from="gw" data-uml-to="products" x1="380" y1="126" x2="380" y2="224" stroke="#1e293b" stroke-width="2" marker-end="url(#arrow-open)"/><text x="388" y="163" text-anchor="middle" font-family="monospace" font-size="11" fill="#334155">Routes</text><line class="uml-relation" data-uml-from="users" data-uml-to="db1" x1="628" y1="126" x2="628" y2="224" stroke="#1e293b" stroke-width="2" marker-end="url(#arrow-open)"/><text x="636" y="163" text-anchor="middle" font-family="monospace" font-size="11" fill="#334155">Reads/writes</text><line class="uml-relation" data-uml-from="orders" data-uml-to="db2" x1="132" y1="284" x2="132" y2="348" stroke="#1e293b" stroke-width="2" marker-end="url(#arrow-open)"/><text x="140" y="304" text-anchor="middle" font-family="monospace" font-size="11" fill="#334155">Reads/writes</text><circle cx="132" cy="76" r="9" fill="#1168bd" stroke="#0d4f8f" stroke-width="1.5"/><line x1="132" y1="85" x2="132" y2="98" stroke="#0d4f8f" stroke-width="2"/><line x1="120" y1="92" x2="144" y2="92" stroke="#0d4f8f" stroke-width="2"/><line x1="132" y1="98" x2="122" y2="110" stroke="#0d4f8f" stroke-width="2"/><line x1="132" y1="98" x2="142" y2="110" stroke="#0d4f8f" stroke-width="2"/><rect x="32" y="110" width="200" height="50" rx="8" ry="8" fill="#1168bd" stroke="#0d4f8f" stroke-width="1.5"/><text x="132" y="134" text-anchor="middle" font-family="monospace" font-size="13" font-weight="600" fill="#ffffff">Client</text><text x="132" y="148" text-anchor="middle" font-family="monospace" font-size="10" fill="#ffffff">[Person]</text><rect x="280" y="66" width="200" height="60" rx="8" ry="8" fill="#438dd5" stroke="#2e6da0" stroke-width="1.5"/><text x="380" y="92" text-anchor="middle" font-family="monospace" font-size="13" font-weight="600" fill="#ffffff">API Gateway</text><text x="380" y="106" text-anchor="middle" font-family="monospace" font-size="10" fill="#ffffff">[Container]</text><rect x="528" y="66" width="200" height="60" rx="8" ry="8" fill="#438dd5" stroke="#2e6da0" stroke-width="1.5"/><text x="628" y="92" text-anchor="middle" font-family="monospace" font-size="13" font-weight="600" fill="#ffffff">User Service</text><text x="628" y="106" text-anchor="middle" font-family="monospace" font-size="10" fill="#ffffff">[Container]</text><rect x="32" y="224" width="200" height="60" rx="8" ry="8" fill="#438dd5" stroke="#2e6da0" stroke-width="1.5"/><text x="132" y="250" text-anchor="middle" font-family="monospace" font-size="13" font-weight="600" fill="#ffffff">Order Service</text><text x="132" y="264" text-anchor="middle" font-family="monospace" font-size="10" fill="#ffffff">[Container]</text><rect x="280" y="224" width="200" height="60" rx="8" ry="8" fill="#438dd5" stroke="#2e6da0" stroke-width="1.5"/><text x="380" y="250" text-anchor="middle" font-family="monospace" font-size="13" font-weight="600" fill="#ffffff">Product Service</text><text x="380" y="264" text-anchor="middle" font-family="monospace" font-size="10" fill="#ffffff">[Container]</text><rect x="528" y="224" width="200" height="60" rx="8" ry="8" fill="#8a8a8a" stroke="#6b6b6b" stroke-width="1.5"/><text x="628" y="250" text-anchor="middle" font-family="monospace" font-size="13" font-weight="600" fill="#ffffff">User DB</text><text x="628" y="264" text-anchor="middle" font-family="monospace" font-size="10" fill="#ffffff">[System, ext]</text><rect x="32" y="348" width="200" height="60" rx="8" ry="8" fill="#8a8a8a" stroke="#6b6b6b" stroke-width="1.5"/><text x="132" y="374" text-anchor="middle" font-family="monospace" font-size="13" font-weight="600" fill="#ffffff">Order DB</text><text x="132" y="388" text-anchor="middle" font-family="monospace" font-size="10" fill="#ffffff">[System, ext]</text></svg>