<svg xmlns="http://www.w3.org/2000/svg" width="804" height="920" viewBox="0 0 804 920"><rect width="100%" height="100%" fill="#ffffff"/><defs><marker id="arrow-open" viewBox="0 0 10 10" refX="9" refY="5" markerWidth="10" markerHeight="10" markerUnits="userSpaceOnUse" orient="auto-start-reverse"><path d="M0,0 L10,5 L0,10" fill="none" stroke="#1e293b" stroke-width="1.5"/></marker><marker id="arrow-triangle" viewBox="0 0 16 16" refX="15" refY="8" markerWidth="16" markerHeight="16" markerUnits="userSpaceOnUse" orient="auto-start-reverse"><polygon points="0,1 14,8 0,15" fill="#ffffff" stroke="#1e293b" stroke-width="1.5" fill-rule="nonzero"/></marker><marker id="arrow-diamond-filled" viewBox="0 0 14 10" refX="13" refY="5" markerWidth="14" markerHeight="10" markerUnits="userSpaceOnUse" orient="auto-start-reverse"><path d="M0,5 L7,0 L14,5 L7,10 z" fill="#1e293b" stroke="#1e293b" stroke-width="1"/></marker><marker id="arrow-diamond-open" viewBox="0 0 14 10" refX="13" refY="5" markerWidth="14" markerHeight="10" markerUnits="userSpaceOnUse" orient="auto-start-reverse"><path d="M0,5 L7,0 L14,5 L7,10 z" fill="#ffffff" stroke="#1e293b" stroke-width="1"/></marker></defs><text x="32" y="32" font-family="monospace" font-size="18" font-weight="600" fill="#0f172a">Microservices Architecture</text><polyline class="uml-relation" data-uml-from="client" data-uml-to="gw" data-uml-arrow="--&gt;" points="386,160 386,239 386,318" fill="none" stroke="#1e293b" stroke-width="2" marker-end="url(#arrow-open)" /><text x="386" y="266" text-anchor="middle" font-family="monospace" font-size="11" fill="#334155">API calls</text><polyline class="uml-relation" data-uml-from="gw" data-uml-to="users" data-uml-arrow="--&gt;" points="386,378 386,449 386,536" fill="none" stroke="#1e293b" stroke-width="2" marker-end="url(#arrow-open)" /><text x="386" y="480" text-anchor="middle" font-family="monospace" font-size="11" fill="#334155">Routes</text><polyline class="uml-relation" data-uml-from="gw" data-uml-to="orders" data-uml-arrow="--&gt;" points="386,378 386,457 146,457 146,536" fill="none" stroke="#1e293b" stroke-width="2" marker-end="url(#arrow-open)" /><text x="346" y="445" text-anchor="middle" font-family="monospace" font-size="11" fill="#334155">Routes</text><polyline class="uml-relation" data-uml-from="gw" data-uml-to="products" data-uml-arrow="--&gt;" points="386,378 386,465 626,465 626,536" fill="none" stroke="#1e293b" stroke-width="2" marker-end="url(#arrow-open)" /><text x="426" y="453" text-anchor="middle" font-family="monospace" font-size="11" fill="#334155">Routes</text><polyline class="uml-relation" data-uml-from="users" data-uml-to="db1" data-uml-arrow="--&gt;" points="386,596 386,679 506,679 506,754" fill="none" stroke="#1e293b" stroke-width="2" marker-end="url(#arrow-open)" /><text x="366" y="667" text-anchor="middle" font-family="monospace" font-size="11" fill="#334155">Reads/writes</text><polyline class="uml-relation" data-uml-from="orders" data-uml-to="db2" data-uml-arrow="--&gt;" points="146,596 146,671 266,671 266,754" fill="none" stroke="#1e293b" stroke-width="2" marker-end="url(#arrow-open)" /><text x="286" y="659" text-anchor="middle" font-family="monospace" font-size="11" fill="#334155">Reads/writes</text><circle cx="386" cy="76" r="9" fill="#1168bd" stroke="#0d4f8f" stroke-width="1.5"/><line x1="386" y1="85" x2="386" y2="98" stroke="#0d4f8f" stroke-width="2"/><line x1="374" y1="92" x2="398" y2="92" stroke="#0d4f8f" stroke-width="2"/><line x1="386" y1="98" x2="376" y2="110" stroke="#0d4f8f" stroke-width="2"/><line x1="386" y1="98" x2="396" y2="110" stroke="#0d4f8f" stroke-width="2"/><rect x="306" y="110" width="160" height="50" rx="8" ry="8" fill="#1168bd" stroke="#0d4f8f" stroke-width="1.5"/><text x="386" y="134" text-anchor="middle" font-family="monospace" font-size="13" font-weight="600" fill="#ffffff">Client</text><text x="386" y="148" text-anchor="middle" font-family="monospace" font-size="10" fill="#ffffff">[Person]</text><rect x="306" y="318" width="160" height="60" rx="8" ry="8" fill="#438dd5" stroke="#2e6da0" stroke-width="1.5"/><text x="386" y="344" text-anchor="middle" font-family="monospace" font-size="13" font-weight="600" fill="#ffffff">API Gateway</text><text x="386" y="358" text-anchor="middle" font-family="monospace" font-size="10" fill="#ffffff">[Container]</text><rect x="306" y="536" width="160" height="60" rx="8" ry="8" fill="#438dd5" stroke="#2e6da0" stroke-width="1.5"/><text x="386" y="562" text-anchor="middle" font-family="monospace" font-size="13" font-weight="600" fill="#ffffff">User Service</text><text x="386" y="576" text-anchor="middle" font-family="monospace" font-size="10" fill="#ffffff">[Container]</text><rect x="66" y="536" width="160" height="60" rx="8" ry="8" fill="#438dd5" stroke="#2e6da0" stroke-width="1.5"/><text x="146" y="562" text-anchor="middle" font-family="monospace" font-size="13" font-weight="600" fill="#ffffff">Order Service</text><text x="146" y="576" text-anchor="middle" font-family="monospace" font-size="10" fill="#ffffff">[Container]</text><rect x="546" y="536" width="160" height="60" rx="8" ry="8" fill="#438dd5" stroke="#2e6da0" stroke-width="1.5"/><text x="626" y="562" text-anchor="middle" font-family="monospace" font-size="13" font-weight="600" fill="#ffffff">Product Service</text><text x="626" y="576" text-anchor="middle" font-family="monospace" font-size="10" fill="#ffffff">[Container]</text><rect x="426" y="754" width="160" height="60" rx="8" ry="8" fill="#8a8a8a" stroke="#6b6b6b" stroke-width="1.5"/><text x="506" y="780" text-anchor="middle" font-family="monospace" font-size="13" font-weight="600" fill="#ffffff">User DB</text><text x="506" y="794" text-anchor="middle" font-family="monospace" font-size="10" fill="#ffffff">[System, ext]</text><rect x="186" y="754" width="160" height="60" rx="8" ry="8" fill="#8a8a8a" stroke="#6b6b6b" stroke-width="1.5"/><text x="266" y="780" text-anchor="middle" font-family="monospace" font-size="13" font-weight="600" fill="#ffffff">Order DB</text><text x="266" y="794" text-anchor="middle" font-family="monospace" font-size="10" fill="#ffffff">[System, ext]</text></svg>