<svg xmlns="http://www.w3.org/2000/svg" width="882" height="920" viewBox="0 0 882 920" data-orientation="TopToBottom"><rect width="100%" height="100%" fill="#ffffff"/><defs><marker id="arrow-open" viewBox="0 0 10 10" refX="9" refY="5" markerWidth="10" markerHeight="10" markerUnits="userSpaceOnUse" orient="auto-start-reverse"><path d="M0,0 L10,5 L0,10" fill="none" stroke="#1e293b" stroke-width="1.5"/></marker><marker id="arrow-triangle" viewBox="0 0 16 16" refX="15" refY="8" markerWidth="16" markerHeight="16" markerUnits="userSpaceOnUse" orient="auto-start-reverse"><polygon points="0,1 14,8 0,15" fill="#ffffff" stroke="#1e293b" stroke-width="1.5" fill-rule="nonzero"/></marker><marker id="arrow-diamond-filled" viewBox="0 0 14 10" refX="13" refY="5" markerWidth="14" markerHeight="10" markerUnits="userSpaceOnUse" orient="auto-start-reverse"><path d="M0,5 L7,0 L14,5 L7,10 z" fill="#1e293b" stroke="#1e293b" stroke-width="1"/></marker><marker id="arrow-diamond-open" viewBox="0 0 14 10" refX="13" refY="5" markerWidth="14" markerHeight="10" markerUnits="userSpaceOnUse" orient="auto-start-reverse"><path d="M0,5 L7,0 L14,5 L7,10 z" fill="#ffffff" stroke="#1e293b" stroke-width="1"/></marker></defs><defs><marker id="arrow-triangle-filled" viewBox="0 0 12 12" refX="11" refY="6" markerWidth="12" markerHeight="12" markerUnits="userSpaceOnUse" orient="auto-start-reverse"><polygon points="0,0 12,6 0,12" fill="#1e293b" stroke="#1e293b" stroke-width="1.5"/></marker><marker id="arrow-box-filled" viewBox="0 0 12 12" refX="11" refY="6" markerWidth="12" markerHeight="12" markerUnits="userSpaceOnUse" orient="auto-start-reverse"><rect x="2" y="2" width="8" height="8" fill="#1e293b" stroke="#1e293b" stroke-width="1.5"/></marker><marker id="arrow-plus" viewBox="0 0 12 12" refX="11" refY="6" markerWidth="12" markerHeight="12" markerUnits="userSpaceOnUse" orient="auto-start-reverse"><path d="M6,1 L6,11 M1,6 L11,6" fill="none" stroke="#1e293b" stroke-width="1.8" stroke-linecap="round"/></marker><marker id="arrow-cross" viewBox="0 0 12 12" refX="11" refY="6" markerWidth="12" markerHeight="12" markerUnits="userSpaceOnUse" orient="auto-start-reverse"><path d="M2,2 L10,10 M10,2 L2,10" fill="none" stroke="#1e293b" stroke-width="1.8" stroke-linecap="round"/></marker><marker id="arrow-bracket-open" viewBox="0 0 12 14" refX="11" refY="7" markerWidth="12" markerHeight="14" markerUnits="userSpaceOnUse" orient="auto-start-reverse"><path d="M10,1 L4,1 L4,13 L10,13" fill="none" stroke="#1e293b" stroke-width="1.8" stroke-linecap="round" stroke-linejoin="round"/></marker><marker id="arrow-circle-open" viewBox="0 0 12 12" refX="11" refY="6" markerWidth="12" markerHeight="12" markerUnits="userSpaceOnUse" orient="auto-start-reverse"><circle cx="6" cy="6" r="4" fill="#ffffff" stroke="#1e293b" stroke-width="1.5"/></marker><marker id="arrow-circle-filled" viewBox="0 0 12 12" refX="11" refY="6" markerWidth="12" markerHeight="12" markerUnits="userSpaceOnUse" orient="auto-start-reverse"><circle cx="6" cy="6" r="4" fill="#1e293b" stroke="#1e293b" stroke-width="1.5"/></marker><marker id="arrow-double-open" viewBox="0 0 16 12" refX="15" refY="6" markerWidth="16" markerHeight="12" markerUnits="userSpaceOnUse" orient="auto-start-reverse"><path d="M0,1 L8,6 L0,11 M7,1 L15,6 L7,11" fill="none" stroke="#1e293b" stroke-width="1.5" stroke-linejoin="round"/></marker></defs><text x="32" y="32" font-family="monospace" font-size="18" font-weight="600" fill="#0f172a">Microservices Architecture</text><path class="uml-relation" data-uml-from="client" data-uml-to="gw" data-uml-arrow="--&gt;" d="M 414,160 C 414.0,186.3 414.0,212.7 414.0,239.0 C 414.0,265.3 414.0,291.7 414.0,318.0" fill="none" stroke="#1e293b" stroke-width="2" marker-end="url(#arrow-open)" /><text class="uml-edge-label" data-uml-label-role="edge" x="529" y="266" text-anchor="middle" font-family="monospace" font-size="11" fill="#334155">API calls</text><path class="uml-relation" data-uml-from="gw" data-uml-to="users" data-uml-arrow="--&gt;" d="M 414,378 C 414.0,404.3 414.0,430.7 414.0,457.0 C 414.0,483.3 414.0,509.7 414.0,536.0" fill="none" stroke="#1e293b" stroke-width="2" marker-end="url(#arrow-open)" /><text class="uml-edge-label" data-uml-label-role="edge" x="414" y="484" text-anchor="middle" font-family="monospace" font-size="11" fill="#334155">Routes</text><path class="uml-relation" data-uml-from="gw" data-uml-to="orders" data-uml-arrow="--&gt;" d="M 334,348 C 334.0,384.3 352.0,438.8 334.0,457.0 C 316.0,475.2 244.0,438.8 226.0,457.0 C 208.0,475.2 226.0,529.7 226.0,566.0" fill="none" stroke="#1e293b" stroke-width="2" marker-end="url(#arrow-open)" /><text class="uml-edge-label" data-uml-label-role="edge" x="354" y="445" text-anchor="middle" font-family="monospace" font-size="11" fill="#334155">Routes</text><path class="uml-relation" data-uml-from="gw" data-uml-to="products" data-uml-arrow="--&gt;" d="M 494,348 C 494.0,401.0 476.0,480.5 494.0,507.0 C 512.0,533.5 584.0,497.2 602.0,507.0 C 620.0,516.8 602.0,546.3 602.0,566.0" fill="none" stroke="#1e293b" stroke-width="2" marker-end="url(#arrow-open)" /><text class="uml-edge-label" data-uml-label-role="edge" x="474" y="495" text-anchor="middle" font-family="monospace" font-size="11" fill="#334155">Routes</text><path class="uml-relation" data-uml-from="users" data-uml-to="db1" data-uml-arrow="--&gt;" d="M 414,596 C 414.0,623.7 391.7,665.2 414.0,679.0 C 436.3,692.8 525.7,666.5 548.0,679.0 C 570.3,691.5 548.0,729.0 548.0,754.0" fill="none" stroke="#1e293b" stroke-width="2" marker-end="url(#arrow-open)" /><text class="uml-edge-label" data-uml-label-role="edge" x="672" y="667" text-anchor="middle" font-family="monospace" font-size="11" fill="#334155">Reads/writes</text><path class="uml-relation" data-uml-from="orders" data-uml-to="db2" data-uml-arrow="--&gt;" d="M 146,596 C 146.0,621.0 123.7,658.5 146.0,671.0 C 168.3,683.5 257.7,657.2 280.0,671.0 C 302.3,684.8 280.0,726.3 280.0,754.0" fill="none" stroke="#1e293b" stroke-width="2" marker-end="url(#arrow-open)" /><text class="uml-edge-label" data-uml-label-role="edge" x="404" y="659" text-anchor="middle" font-family="monospace" font-size="11" fill="#334155">Reads/writes</text><circle cx="414" cy="76" r="9" fill="#1168bd" stroke="#0d4f8f" stroke-width="1.5"/><line x1="414" y1="85" x2="414" y2="98" stroke="#0d4f8f" stroke-width="2"/><line x1="402" y1="92" x2="426" y2="92" stroke="#0d4f8f" stroke-width="2"/><line x1="414" y1="98" x2="404" y2="110" stroke="#0d4f8f" stroke-width="2"/><line x1="414" y1="98" x2="424" y2="110" stroke="#0d4f8f" stroke-width="2"/><rect x="334" y="110" width="160" height="50" rx="8" ry="8" fill="#1168bd" stroke="#0d4f8f" stroke-width="1.5"/><text x="414" y="134" text-anchor="middle" font-family="monospace" font-size="13" font-weight="600" fill="#ffffff">Client</text><text x="414" y="148" text-anchor="middle" font-family="monospace" font-size="10" fill="#ffffff">[Person]</text><rect x="334" y="318" width="160" height="60" rx="8" ry="8" fill="#438dd5" stroke="#2e6da0" stroke-width="1.5"/><text x="414" y="344" text-anchor="middle" font-family="monospace" font-size="13" font-weight="600" fill="#ffffff">API Gateway</text><text x="414" y="358" text-anchor="middle" font-family="monospace" font-size="10" fill="#ffffff">[Container]</text><rect x="334" y="536" width="160" height="60" rx="8" ry="8" fill="#438dd5" stroke="#2e6da0" stroke-width="1.5"/><text x="414" y="562" text-anchor="middle" font-family="monospace" font-size="13" font-weight="600" fill="#ffffff">User Service</text><text x="414" y="576" text-anchor="middle" font-family="monospace" font-size="10" fill="#ffffff">[Container]</text><rect x="66" y="536" width="160" height="60" rx="8" ry="8" fill="#438dd5" stroke="#2e6da0" stroke-width="1.5"/><text x="146" y="562" text-anchor="middle" font-family="monospace" font-size="13" font-weight="600" fill="#ffffff">Order Service</text><text x="146" y="576" text-anchor="middle" font-family="monospace" font-size="10" fill="#ffffff">[Container]</text><rect x="602" y="536" width="160" height="60" rx="8" ry="8" fill="#438dd5" stroke="#2e6da0" stroke-width="1.5"/><text x="682" y="562" text-anchor="middle" font-family="monospace" font-size="13" font-weight="600" fill="#ffffff">Product Service</text><text x="682" y="576" text-anchor="middle" font-family="monospace" font-size="10" fill="#ffffff">[Container]</text><rect x="468" y="754" width="160" height="60" rx="8" ry="8" fill="#8a8a8a" stroke="#6b6b6b" stroke-width="1.5"/><text x="548" y="780" text-anchor="middle" font-family="monospace" font-size="13" font-weight="600" fill="#ffffff">User DB</text><text x="548" y="794" text-anchor="middle" font-family="monospace" font-size="10" fill="#ffffff">[System, ext]</text><rect x="200" y="754" width="160" height="60" rx="8" ry="8" fill="#8a8a8a" stroke="#6b6b6b" stroke-width="1.5"/><text x="280" y="780" text-anchor="middle" font-family="monospace" font-size="13" font-weight="600" fill="#ffffff">Order DB</text><text x="280" y="794" text-anchor="middle" font-family="monospace" font-size="10" fill="#ffffff">[System, ext]</text></svg>