<svg xmlns="http://www.w3.org/2000/svg" width="882" height="990" viewBox="0 0 882 990" data-orientation="TopToBottom"><rect width="100%" height="100%" fill="#ffffff"/><defs><marker id="arrow-open" viewBox="0 0 10 10" refX="9" refY="5" markerWidth="10" markerHeight="10" markerUnits="userSpaceOnUse" orient="auto-start-reverse"><path d="M0,0 L10,5 L0,10" fill="none" stroke="#1e293b" stroke-width="1.5"/></marker><marker id="arrow-triangle" viewBox="0 0 16 16" refX="15" refY="8" markerWidth="16" markerHeight="16" markerUnits="userSpaceOnUse" orient="auto-start-reverse"><polygon points="0,1 14,8 0,15" fill="#ffffff" stroke="#1e293b" stroke-width="1.5" fill-rule="nonzero"/></marker><marker id="arrow-diamond-filled" viewBox="0 0 14 10" refX="13" refY="5" markerWidth="14" markerHeight="10" markerUnits="userSpaceOnUse" orient="auto-start-reverse"><path d="M0,5 L7,0 L14,5 L7,10 z" fill="#1e293b" stroke="#1e293b" stroke-width="1"/></marker><marker id="arrow-diamond-open" viewBox="0 0 14 10" refX="13" refY="5" markerWidth="14" markerHeight="10" markerUnits="userSpaceOnUse" orient="auto-start-reverse"><path d="M0,5 L7,0 L14,5 L7,10 z" fill="#ffffff" stroke="#1e293b" stroke-width="1"/></marker></defs><defs><marker id="arrow-triangle-filled" viewBox="0 0 12 12" refX="11" refY="6" markerWidth="12" markerHeight="12" markerUnits="userSpaceOnUse" orient="auto-start-reverse"><polygon points="0,0 12,6 0,12" fill="#1e293b" stroke="#1e293b" stroke-width="1.5"/></marker><marker id="arrow-box-filled" viewBox="0 0 12 12" refX="11" refY="6" markerWidth="12" markerHeight="12" markerUnits="userSpaceOnUse" orient="auto-start-reverse"><rect x="2" y="2" width="8" height="8" fill="#1e293b" stroke="#1e293b" stroke-width="1.5"/></marker><marker id="arrow-plus" viewBox="0 0 12 12" refX="11" refY="6" markerWidth="12" markerHeight="12" markerUnits="userSpaceOnUse" orient="auto-start-reverse"><path d="M6,1 L6,11 M1,6 L11,6" fill="none" stroke="#1e293b" stroke-width="1.8" stroke-linecap="round"/></marker><marker id="arrow-cross" viewBox="0 0 12 12" refX="11" refY="6" markerWidth="12" markerHeight="12" markerUnits="userSpaceOnUse" orient="auto-start-reverse"><path d="M2,2 L10,10 M10,2 L2,10" fill="none" stroke="#1e293b" stroke-width="1.8" stroke-linecap="round"/></marker><marker id="arrow-bracket-open" viewBox="0 0 12 14" refX="11" refY="7" markerWidth="12" markerHeight="14" markerUnits="userSpaceOnUse" orient="auto-start-reverse"><path d="M10,1 L4,1 L4,13 L10,13" fill="none" stroke="#1e293b" stroke-width="1.8" stroke-linecap="round" stroke-linejoin="round"/></marker><marker id="arrow-circle-open" viewBox="0 0 12 12" refX="11" refY="6" markerWidth="12" markerHeight="12" markerUnits="userSpaceOnUse" orient="auto-start-reverse"><circle cx="6" cy="6" r="4" fill="#ffffff" stroke="#1e293b" stroke-width="1.5"/></marker><marker id="arrow-circle-filled" viewBox="0 0 12 12" refX="11" refY="6" markerWidth="12" markerHeight="12" markerUnits="userSpaceOnUse" orient="auto-start-reverse"><circle cx="6" cy="6" r="4" fill="#1e293b" stroke="#1e293b" stroke-width="1.5"/></marker><marker id="arrow-double-open" viewBox="0 0 16 12" refX="15" refY="6" markerWidth="16" markerHeight="12" markerUnits="userSpaceOnUse" orient="auto-start-reverse"><path d="M0,1 L8,6 L0,11 M7,1 L15,6 L7,11" fill="none" stroke="#1e293b" stroke-width="1.5" stroke-linejoin="round"/></marker></defs><text x="32" y="32" font-family="monospace" font-size="18" font-weight="600" fill="#0f172a">Microservices Architecture</text><polyline class="uml-relation" data-uml-from="client" data-uml-to="gw" data-uml-arrow="--&gt;" points="414,170 414,254 414,338" fill="none" stroke="#1e293b" stroke-width="2" marker-end="url(#arrow-open)" /><rect class="uml-edge-label-bg" data-uml-label-role="edge-background" x="381" y="271" width="66" height="18" fill="white" opacity="0.85"/><text class="uml-edge-label" data-uml-label-role="edge" x="414" y="284" text-anchor="middle" font-family="monospace" font-size="11" fill="#334155">API calls</text><polyline class="uml-relation" data-uml-from="gw" data-uml-to="users" data-uml-arrow="--&gt;" points="414,408 414,492 414,576" fill="none" stroke="#1e293b" stroke-width="2" marker-end="url(#arrow-open)" /><rect class="uml-edge-label-bg" data-uml-label-role="edge-background" x="373" y="467" width="46" height="18" fill="white" opacity="0.85"/><text class="uml-edge-label" data-uml-label-role="edge" x="396" y="480" text-anchor="middle" font-family="monospace" font-size="11" fill="#334155">Routes</text><polyline class="uml-relation" data-uml-from="gw" data-uml-to="orders" data-uml-arrow="--&gt;" points="334,373 334,492 226,492 226,611" fill="none" stroke="#1e293b" stroke-width="2" marker-end="url(#arrow-open)" /><rect class="uml-edge-label-bg" data-uml-label-role="edge-background" x="313" y="467" width="46" height="18" fill="white" opacity="0.85"/><text class="uml-edge-label" data-uml-label-role="edge" x="336" y="480" text-anchor="middle" font-family="monospace" font-size="11" fill="#334155">Routes</text><polyline class="uml-relation" data-uml-from="gw" data-uml-to="products" data-uml-arrow="--&gt;" points="494,373 494,545 602,545 602,611" fill="none" stroke="#1e293b" stroke-width="2" marker-end="url(#arrow-open)" /><text class="uml-edge-label" data-uml-label-role="edge" x="456" y="533" text-anchor="middle" font-family="monospace" font-size="11" fill="#334155">Routes</text><polyline class="uml-relation" data-uml-from="users" data-uml-to="db1" data-uml-arrow="--&gt;" points="414,646 414,734 548,734 548,814" fill="none" stroke="#1e293b" stroke-width="2" marker-end="url(#arrow-open)" /><text class="uml-edge-label" data-uml-label-role="edge" x="481" y="722" text-anchor="middle" font-family="monospace" font-size="11" fill="#334155">Reads/writes</text><polyline class="uml-relation" data-uml-from="orders" data-uml-to="db2" data-uml-arrow="--&gt;" points="146,646 146,726 280,726 280,814" fill="none" stroke="#1e293b" stroke-width="2" marker-end="url(#arrow-open)" /><text class="uml-edge-label" data-uml-label-role="edge" x="213" y="714" text-anchor="middle" font-family="monospace" font-size="11" fill="#334155">Reads/writes</text><circle cx="414" cy="76" r="9" fill="#1168bd" stroke="#0d4f8f" stroke-width="1.5"/><line x1="414" y1="85" x2="414" y2="98" stroke="#0d4f8f" stroke-width="2"/><line x1="402" y1="92" x2="426" y2="92" stroke="#0d4f8f" stroke-width="2"/><line x1="414" y1="98" x2="404" y2="110" stroke="#0d4f8f" stroke-width="2"/><line x1="414" y1="98" x2="424" y2="110" stroke="#0d4f8f" stroke-width="2"/><rect x="334" y="110" width="160" height="60" rx="8" ry="8" fill="#1168bd" stroke="#0d4f8f" stroke-width="1.5"/><text x="414" y="134" text-anchor="middle" font-family="monospace" font-size="13" font-weight="600" fill="#ffffff">Client</text><text x="414" y="148" text-anchor="middle" font-family="monospace" font-size="10" fill="#ffffff">«person»</text><rect x="334" y="338" width="160" height="70" rx="8" ry="8" fill="#438dd5" stroke="#2e6da0" stroke-width="1.5"/><text x="414" y="369" text-anchor="middle" font-family="monospace" font-size="13" font-weight="600" fill="#ffffff">API Gateway</text><text x="414" y="383" text-anchor="middle" font-family="monospace" font-size="10" fill="#ffffff">«container»</text><text x="414" y="395" text-anchor="middle" font-family="monospace" font-size="9" font-style="italic" fill="#ffffff">Routes</text><rect x="334" y="576" width="160" height="70" rx="8" ry="8" fill="#438dd5" stroke="#2e6da0" stroke-width="1.5"/><text x="414" y="607" text-anchor="middle" font-family="monospace" font-size="13" font-weight="600" fill="#ffffff">User Service</text><text x="414" y="621" text-anchor="middle" font-family="monospace" font-size="10" fill="#ffffff">«container»</text><text x="414" y="633" text-anchor="middle" font-family="monospace" font-size="9" font-style="italic" fill="#ffffff">Users</text><rect x="66" y="576" width="160" height="70" rx="8" ry="8" fill="#438dd5" stroke="#2e6da0" stroke-width="1.5"/><text x="146" y="607" text-anchor="middle" font-family="monospace" font-size="13" font-weight="600" fill="#ffffff">Order Service</text><text x="146" y="621" text-anchor="middle" font-family="monospace" font-size="10" fill="#ffffff">«container»</text><text x="146" y="633" text-anchor="middle" font-family="monospace" font-size="9" font-style="italic" fill="#ffffff">Orders</text><rect x="602" y="576" width="160" height="70" rx="8" ry="8" fill="#438dd5" stroke="#2e6da0" stroke-width="1.5"/><text x="682" y="607" text-anchor="middle" font-family="monospace" font-size="13" font-weight="600" fill="#ffffff">Product Service</text><text x="682" y="621" text-anchor="middle" font-family="monospace" font-size="10" fill="#ffffff">«container»</text><text x="682" y="633" text-anchor="middle" font-family="monospace" font-size="9" font-style="italic" fill="#ffffff">Catalog</text><rect x="468" y="814" width="160" height="70" rx="8" ry="8" fill="#8a8a8a" stroke="#6b6b6b" stroke-width="1.5"/><text x="548" y="845" text-anchor="middle" font-family="monospace" font-size="13" font-weight="600" fill="#ffffff">User DB</text><text x="548" y="859" text-anchor="middle" font-family="monospace" font-size="10" fill="#ffffff">«external_system»</text><rect x="200" y="814" width="160" height="70" rx="8" ry="8" fill="#8a8a8a" stroke="#6b6b6b" stroke-width="1.5"/><text x="280" y="845" text-anchor="middle" font-family="monospace" font-size="13" font-weight="600" fill="#ffffff">Order DB</text><text x="280" y="859" text-anchor="middle" font-family="monospace" font-size="10" fill="#ffffff">«external_system»</text></svg>