<svg xmlns="http://www.w3.org/2000/svg" width="614" height="702" viewBox="0 0 614 702" data-orientation="TopToBottom"><rect width="100%" height="100%" fill="#ffffff"/><defs><marker id="arrow-open" viewBox="0 0 10 10" refX="9" refY="5" markerWidth="10" markerHeight="10" markerUnits="userSpaceOnUse" orient="auto-start-reverse"><path d="M0,0 L10,5 L0,10" fill="none" stroke="#1e293b" stroke-width="1.5"/></marker><marker id="arrow-triangle" viewBox="0 0 16 16" refX="15" refY="8" markerWidth="16" markerHeight="16" markerUnits="userSpaceOnUse" orient="auto-start-reverse"><polygon points="0,1 14,8 0,15" fill="#ffffff" stroke="#1e293b" stroke-width="1.5" fill-rule="nonzero"/></marker><marker id="arrow-diamond-filled" viewBox="0 0 14 10" refX="13" refY="5" markerWidth="14" markerHeight="10" markerUnits="userSpaceOnUse" orient="auto-start-reverse"><path d="M0,5 L7,0 L14,5 L7,10 z" fill="#1e293b" stroke="#1e293b" stroke-width="1"/></marker><marker id="arrow-diamond-open" viewBox="0 0 14 10" refX="13" refY="5" markerWidth="14" markerHeight="10" markerUnits="userSpaceOnUse" orient="auto-start-reverse"><path d="M0,5 L7,0 L14,5 L7,10 z" fill="#ffffff" stroke="#1e293b" stroke-width="1"/></marker></defs><text x="32" y="32" font-family="monospace" font-size="18" font-weight="600" fill="#0f172a">SaaS Product Context</text><polyline class="uml-relation" data-uml-from="customer" data-uml-to="saas" data-uml-arrow="--&gt;" points="414,160 414,243 280,243 280,318" fill="none" stroke="#1e293b" stroke-width="2" marker-end="url(#arrow-open)" /><text x="247" y="300" text-anchor="middle" font-family="monospace" font-size="11" fill="#334155">Uses</text><polyline class="uml-relation" data-uml-from="admin" data-uml-to="saas" data-uml-arrow="--&gt;" points="146,160 146,235 280,235 280,318" fill="none" stroke="#1e293b" stroke-width="2" marker-end="url(#arrow-open)" /><text x="310" y="300" text-anchor="middle" font-family="monospace" font-size="11" fill="#334155">Manages</text><polyline class="uml-relation" data-uml-from="saas" data-uml-to="billing" data-uml-arrow="--&gt;" points="280,378 280,453 146,453 146,536" fill="none" stroke="#1e293b" stroke-width="2" marker-end="url(#arrow-open)" /><text x="254" y="413" text-anchor="middle" font-family="monospace" font-size="11" fill="#334155">Bills via</text><polyline class="uml-relation" data-uml-from="saas" data-uml-to="email" data-uml-arrow="--&gt;" points="280,378 280,461 414,461 414,536" fill="none" stroke="#1e293b" stroke-width="2" marker-end="url(#arrow-open)" /><text x="361" y="445" text-anchor="middle" font-family="monospace" font-size="11" fill="#334155">Notifies via</text><circle cx="414" cy="76" r="9" fill="#1168bd" stroke="#0d4f8f" stroke-width="1.5"/><line x1="414" y1="85" x2="414" y2="98" stroke="#0d4f8f" stroke-width="2"/><line x1="402" y1="92" x2="426" y2="92" stroke="#0d4f8f" stroke-width="2"/><line x1="414" y1="98" x2="404" y2="110" stroke="#0d4f8f" stroke-width="2"/><line x1="414" y1="98" x2="424" y2="110" stroke="#0d4f8f" stroke-width="2"/><rect x="334" y="110" width="160" height="50" rx="8" ry="8" fill="#1168bd" stroke="#0d4f8f" stroke-width="1.5"/><text x="414" y="134" text-anchor="middle" font-family="monospace" font-size="13" font-weight="600" fill="#ffffff">Customer</text><text x="414" y="148" text-anchor="middle" font-family="monospace" font-size="10" fill="#ffffff">[Person]</text><circle cx="146" cy="76" r="9" fill="#1168bd" stroke="#0d4f8f" stroke-width="1.5"/><line x1="146" y1="85" x2="146" y2="98" stroke="#0d4f8f" stroke-width="2"/><line x1="134" y1="92" x2="158" y2="92" stroke="#0d4f8f" stroke-width="2"/><line x1="146" y1="98" x2="136" y2="110" stroke="#0d4f8f" stroke-width="2"/><line x1="146" y1="98" x2="156" y2="110" stroke="#0d4f8f" stroke-width="2"/><rect x="66" y="110" width="160" height="50" rx="8" ry="8" fill="#1168bd" stroke="#0d4f8f" stroke-width="1.5"/><text x="146" y="134" text-anchor="middle" font-family="monospace" font-size="13" font-weight="600" fill="#ffffff">Admin</text><text x="146" y="148" text-anchor="middle" font-family="monospace" font-size="10" fill="#ffffff">[Person]</text><rect x="200" y="318" width="160" height="60" rx="8" ry="8" fill="#1168bd" stroke="#0d4f8f" stroke-width="1.5"/><text x="280" y="344" text-anchor="middle" font-family="monospace" font-size="13" font-weight="600" fill="#ffffff">SaaS Platform</text><text x="280" y="358" text-anchor="middle" font-family="monospace" font-size="10" fill="#ffffff">[System]</text><rect x="66" y="536" width="160" height="60" rx="8" ry="8" fill="#8a8a8a" stroke="#6b6b6b" stroke-width="1.5"/><text x="146" y="562" text-anchor="middle" font-family="monospace" font-size="13" font-weight="600" fill="#ffffff">Stripe</text><text x="146" y="576" text-anchor="middle" font-family="monospace" font-size="10" fill="#ffffff">[System, ext]</text><rect x="334" y="536" width="160" height="60" rx="8" ry="8" fill="#8a8a8a" stroke="#6b6b6b" stroke-width="1.5"/><text x="414" y="562" text-anchor="middle" font-family="monospace" font-size="13" font-weight="600" fill="#ffffff">SendGrid</text><text x="414" y="576" text-anchor="middle" font-family="monospace" font-size="10" fill="#ffffff">[System, ext]</text></svg>