<svg xmlns="http://www.w3.org/2000/svg" width="556" height="752" viewBox="0 0 556 752" data-orientation="TopToBottom"><rect width="100%" height="100%" fill="#ffffff"/><defs><marker id="arrow-open" viewBox="0 0 10 10" refX="9" refY="5" markerWidth="10" markerHeight="10" markerUnits="userSpaceOnUse" orient="auto-start-reverse"><path d="M0,0 L10,5 L0,10" fill="none" stroke="#1e293b" stroke-width="1.5"/></marker><marker id="arrow-triangle" viewBox="0 0 16 16" refX="15" refY="8" markerWidth="16" markerHeight="16" markerUnits="userSpaceOnUse" orient="auto-start-reverse"><polygon points="0,1 14,8 0,15" fill="#ffffff" stroke="#1e293b" stroke-width="1.5" fill-rule="nonzero"/></marker><marker id="arrow-diamond-filled" viewBox="0 0 14 10" refX="13" refY="5" markerWidth="14" markerHeight="10" markerUnits="userSpaceOnUse" orient="auto-start-reverse"><path d="M0,5 L7,0 L14,5 L7,10 z" fill="#1e293b" stroke="#1e293b" stroke-width="1"/></marker><marker id="arrow-diamond-open" viewBox="0 0 14 10" refX="13" refY="5" markerWidth="14" markerHeight="10" markerUnits="userSpaceOnUse" orient="auto-start-reverse"><path d="M0,5 L7,0 L14,5 L7,10 z" fill="#ffffff" stroke="#1e293b" stroke-width="1"/></marker></defs><defs><marker id="arrow-triangle-filled" viewBox="0 0 12 12" refX="11" refY="6" markerWidth="12" markerHeight="12" markerUnits="userSpaceOnUse" orient="auto-start-reverse"><polygon points="0,0 12,6 0,12" fill="#1e293b" stroke="#1e293b" stroke-width="1.5"/></marker><marker id="arrow-box-filled" viewBox="0 0 12 12" refX="11" refY="6" markerWidth="12" markerHeight="12" markerUnits="userSpaceOnUse" orient="auto-start-reverse"><rect x="2" y="2" width="8" height="8" fill="#1e293b" stroke="#1e293b" stroke-width="1.5"/></marker><marker id="arrow-plus" viewBox="0 0 12 12" refX="11" refY="6" markerWidth="12" markerHeight="12" markerUnits="userSpaceOnUse" orient="auto-start-reverse"><path d="M6,1 L6,11 M1,6 L11,6" fill="none" stroke="#1e293b" stroke-width="1.8" stroke-linecap="round"/></marker><marker id="arrow-cross" viewBox="0 0 12 12" refX="11" refY="6" markerWidth="12" markerHeight="12" markerUnits="userSpaceOnUse" orient="auto-start-reverse"><path d="M2,2 L10,10 M10,2 L2,10" fill="none" stroke="#1e293b" stroke-width="1.8" stroke-linecap="round"/></marker><marker id="arrow-bracket-open" viewBox="0 0 12 14" refX="11" refY="7" markerWidth="12" markerHeight="14" markerUnits="userSpaceOnUse" orient="auto-start-reverse"><path d="M10,1 L4,1 L4,13 L10,13" fill="none" stroke="#1e293b" stroke-width="1.8" stroke-linecap="round" stroke-linejoin="round"/></marker><marker id="arrow-circle-open" viewBox="0 0 12 12" refX="11" refY="6" markerWidth="12" markerHeight="12" markerUnits="userSpaceOnUse" orient="auto-start-reverse"><circle cx="6" cy="6" r="4" fill="#ffffff" stroke="#1e293b" stroke-width="1.5"/></marker><marker id="arrow-circle-filled" viewBox="0 0 12 12" refX="11" refY="6" markerWidth="12" markerHeight="12" markerUnits="userSpaceOnUse" orient="auto-start-reverse"><circle cx="6" cy="6" r="4" fill="#1e293b" stroke="#1e293b" stroke-width="1.5"/></marker><marker id="arrow-double-open" viewBox="0 0 16 12" refX="15" refY="6" markerWidth="16" markerHeight="12" markerUnits="userSpaceOnUse" orient="auto-start-reverse"><path d="M0,1 L8,6 L0,11 M7,1 L15,6 L7,11" fill="none" stroke="#1e293b" stroke-width="1.5" stroke-linejoin="round"/></marker></defs><text x="32" y="32" font-family="monospace" font-size="18" font-weight="600" fill="#0f172a">Data Platform Containers</text><polyline class="uml-relation" data-uml-from="analyst" data-uml-to="viz" data-uml-arrow="--&gt;" points="386,170 386,254 386,338" fill="none" stroke="#1e293b" stroke-width="2" marker-end="url(#arrow-open)" /><rect class="uml-edge-label-bg" data-uml-label-role="edge-background" x="360" y="271" width="52" height="18" fill="white" opacity="0.85"/><text class="uml-edge-label" data-uml-label-role="edge" x="386" y="284" text-anchor="middle" font-family="monospace" font-size="11" fill="#334155">Queries</text><polyline class="uml-relation" data-uml-from="ingest" data-uml-to="transform" data-uml-arrow="--&gt;" points="146,136 146,237 146,338" fill="none" stroke="#1e293b" stroke-width="2" marker-end="url(#arrow-open)" /><rect class="uml-edge-label-bg" data-uml-label-role="edge-background" x="127" y="262" width="38" height="18" fill="white" opacity="0.85"/><text class="uml-edge-label" data-uml-label-role="edge" x="146" y="275" text-anchor="middle" font-family="monospace" font-size="11" fill="#334155">Feeds</text><polyline class="uml-relation" data-uml-from="transform" data-uml-to="warehouse" data-uml-arrow="--&gt;" points="146,408 146,488 266,488 266,576" fill="none" stroke="#1e293b" stroke-width="2" marker-end="url(#arrow-open)" /><text class="uml-edge-label" data-uml-label-role="edge" x="240" y="476" text-anchor="middle" font-family="monospace" font-size="11" fill="#334155">Loads</text><polyline class="uml-relation" data-uml-from="viz" data-uml-to="warehouse" data-uml-arrow="--&gt;" points="386,408 386,496 266,496 266,576" fill="none" stroke="#1e293b" stroke-width="2" marker-end="url(#arrow-open)" /><text class="uml-edge-label" data-uml-label-role="edge" x="300" y="484" text-anchor="middle" font-family="monospace" font-size="11" fill="#334155">Reads</text><circle cx="386" cy="76" r="9" fill="#1168bd" stroke="#0d4f8f" stroke-width="1.5"/><line x1="386" y1="85" x2="386" y2="98" stroke="#0d4f8f" stroke-width="2"/><line x1="374" y1="92" x2="398" y2="92" stroke="#0d4f8f" stroke-width="2"/><line x1="386" y1="98" x2="376" y2="110" stroke="#0d4f8f" stroke-width="2"/><line x1="386" y1="98" x2="396" y2="110" stroke="#0d4f8f" stroke-width="2"/><rect x="306" y="110" width="160" height="60" rx="8" ry="8" fill="#1168bd" stroke="#0d4f8f" stroke-width="1.5"/><text x="386" y="134" text-anchor="middle" font-family="monospace" font-size="13" font-weight="600" fill="#ffffff">Data Analyst</text><text x="386" y="148" text-anchor="middle" font-family="monospace" font-size="10" fill="#ffffff">«person»</text><rect x="66" y="66" width="160" height="70" rx="8" ry="8" fill="#438dd5" stroke="#2e6da0" stroke-width="1.5"/><text x="146" y="97" text-anchor="middle" font-family="monospace" font-size="13" font-weight="600" fill="#ffffff">Ingestion</text><text x="146" y="111" text-anchor="middle" font-family="monospace" font-size="10" fill="#ffffff">«container»</text><text x="146" y="123" text-anchor="middle" font-family="monospace" font-size="9" font-style="italic" fill="#ffffff">Streams events</text><rect x="66" y="338" width="160" height="70" rx="8" ry="8" fill="#438dd5" stroke="#2e6da0" stroke-width="1.5"/><text x="146" y="369" text-anchor="middle" font-family="monospace" font-size="13" font-weight="600" fill="#ffffff">Transform</text><text x="146" y="383" text-anchor="middle" font-family="monospace" font-size="10" fill="#ffffff">«container»</text><text x="146" y="395" text-anchor="middle" font-family="monospace" font-size="9" font-style="italic" fill="#ffffff">Processes data</text><rect x="186" y="576" width="160" height="70" rx="8" ry="8" fill="#438dd5" stroke="#2e6da0" stroke-width="1.5"/><text x="266" y="607" text-anchor="middle" font-family="monospace" font-size="13" font-weight="600" fill="#ffffff">Warehouse</text><text x="266" y="621" text-anchor="middle" font-family="monospace" font-size="10" fill="#ffffff">«container»</text><text x="266" y="633" text-anchor="middle" font-family="monospace" font-size="9" font-style="italic" fill="#ffffff">Stores results</text><rect x="306" y="338" width="160" height="70" rx="8" ry="8" fill="#438dd5" stroke="#2e6da0" stroke-width="1.5"/><text x="386" y="369" text-anchor="middle" font-family="monospace" font-size="13" font-weight="600" fill="#ffffff">Dashboard</text><text x="386" y="383" text-anchor="middle" font-family="monospace" font-size="10" fill="#ffffff">«container»</text><text x="386" y="395" text-anchor="middle" font-family="monospace" font-size="9" font-style="italic" fill="#ffffff">Visualizes</text></svg>