<svg xmlns="http://www.w3.org/2000/svg" width="556" height="702" viewBox="0 0 556 702" data-orientation="TopToBottom"><rect width="100%" height="100%" fill="#ffffff"/><defs><marker id="arrow-open" viewBox="0 0 10 10" refX="9" refY="5" markerWidth="10" markerHeight="10" markerUnits="userSpaceOnUse" orient="auto-start-reverse"><path d="M0,0 L10,5 L0,10" fill="none" stroke="#1e293b" stroke-width="1.5"/></marker><marker id="arrow-triangle" viewBox="0 0 16 16" refX="15" refY="8" markerWidth="16" markerHeight="16" markerUnits="userSpaceOnUse" orient="auto-start-reverse"><polygon points="0,1 14,8 0,15" fill="#ffffff" stroke="#1e293b" stroke-width="1.5" fill-rule="nonzero"/></marker><marker id="arrow-diamond-filled" viewBox="0 0 14 10" refX="13" refY="5" markerWidth="14" markerHeight="10" markerUnits="userSpaceOnUse" orient="auto-start-reverse"><path d="M0,5 L7,0 L14,5 L7,10 z" fill="#1e293b" stroke="#1e293b" stroke-width="1"/></marker><marker id="arrow-diamond-open" viewBox="0 0 14 10" refX="13" refY="5" markerWidth="14" markerHeight="10" markerUnits="userSpaceOnUse" orient="auto-start-reverse"><path d="M0,5 L7,0 L14,5 L7,10 z" fill="#ffffff" stroke="#1e293b" stroke-width="1"/></marker></defs><text x="32" y="32" font-family="monospace" font-size="18" font-weight="600" fill="#0f172a">Data Platform Containers</text><polyline class="uml-relation" data-uml-from="analyst" data-uml-to="viz" data-uml-arrow="--&gt;" points="386,160 386,239 386,318" fill="none" stroke="#1e293b" stroke-width="2" marker-end="url(#arrow-open)" /><text class="uml-edge-label" data-uml-label-role="edge" x="296" y="266" text-anchor="middle" font-family="monospace" font-size="11" fill="#334155">Queries</text><polyline class="uml-relation" data-uml-from="ingest" data-uml-to="transform" data-uml-arrow="--&gt;" points="146,126 146,222 146,318" fill="none" stroke="#1e293b" stroke-width="2" marker-end="url(#arrow-open)" /><text class="uml-edge-label" data-uml-label-role="edge" x="233" y="258" text-anchor="middle" font-family="monospace" font-size="11" fill="#334155">Feeds</text><polyline class="uml-relation" data-uml-from="transform" data-uml-to="warehouse" data-uml-arrow="--&gt;" points="146,378 146,453 266,453 266,536" fill="none" stroke="#1e293b" stroke-width="2" marker-end="url(#arrow-open)" /><text class="uml-edge-label" data-uml-label-role="edge" x="236" y="518" text-anchor="middle" font-family="monospace" font-size="11" fill="#334155">Loads</text><polyline class="uml-relation" data-uml-from="viz" data-uml-to="warehouse" data-uml-arrow="--&gt;" points="386,378 386,461 266,461 266,536" fill="none" stroke="#1e293b" stroke-width="2" marker-end="url(#arrow-open)" /><text class="uml-edge-label" data-uml-label-role="edge" x="296" y="518" text-anchor="middle" font-family="monospace" font-size="11" fill="#334155">Reads</text><circle cx="386" cy="76" r="9" fill="#1168bd" stroke="#0d4f8f" stroke-width="1.5"/><line x1="386" y1="85" x2="386" y2="98" stroke="#0d4f8f" stroke-width="2"/><line x1="374" y1="92" x2="398" y2="92" stroke="#0d4f8f" stroke-width="2"/><line x1="386" y1="98" x2="376" y2="110" stroke="#0d4f8f" stroke-width="2"/><line x1="386" y1="98" x2="396" y2="110" stroke="#0d4f8f" stroke-width="2"/><rect x="306" y="110" width="160" height="50" rx="8" ry="8" fill="#1168bd" stroke="#0d4f8f" stroke-width="1.5"/><text x="386" y="134" text-anchor="middle" font-family="monospace" font-size="13" font-weight="600" fill="#ffffff">Data Analyst</text><text x="386" y="148" text-anchor="middle" font-family="monospace" font-size="10" fill="#ffffff">[Person]</text><rect x="66" y="66" width="160" height="60" rx="8" ry="8" fill="#438dd5" stroke="#2e6da0" stroke-width="1.5"/><text x="146" y="92" text-anchor="middle" font-family="monospace" font-size="13" font-weight="600" fill="#ffffff">Ingestion</text><text x="146" y="106" text-anchor="middle" font-family="monospace" font-size="10" fill="#ffffff">[Container]</text><rect x="66" y="318" width="160" height="60" rx="8" ry="8" fill="#438dd5" stroke="#2e6da0" stroke-width="1.5"/><text x="146" y="344" text-anchor="middle" font-family="monospace" font-size="13" font-weight="600" fill="#ffffff">Transform</text><text x="146" y="358" text-anchor="middle" font-family="monospace" font-size="10" fill="#ffffff">[Container]</text><rect x="186" y="536" width="160" height="60" rx="8" ry="8" fill="#438dd5" stroke="#2e6da0" stroke-width="1.5"/><text x="266" y="562" text-anchor="middle" font-family="monospace" font-size="13" font-weight="600" fill="#ffffff">Warehouse</text><text x="266" y="576" text-anchor="middle" font-family="monospace" font-size="10" fill="#ffffff">[Container]</text><rect x="306" y="318" width="160" height="60" rx="8" ry="8" fill="#438dd5" stroke="#2e6da0" stroke-width="1.5"/><text x="386" y="344" text-anchor="middle" font-family="monospace" font-size="13" font-weight="600" fill="#ffffff">Dashboard</text><text x="386" y="358" text-anchor="middle" font-family="monospace" font-size="10" fill="#ffffff">[Container]</text></svg>