<svg xmlns="http://www.w3.org/2000/svg" width="704" height="324" viewBox="0 0 704 324"><rect width="100%" height="100%" fill="#ffffff"/><defs><marker id="arrow-open" viewBox="0 0 10 10" refX="9" refY="5" markerWidth="10" markerHeight="10" markerUnits="userSpaceOnUse" orient="auto-start-reverse"><path d="M0,0 L10,5 L0,10" fill="none" stroke="#1e293b" stroke-width="1.5"/></marker><marker id="arrow-triangle" viewBox="0 0 16 16" refX="15" refY="8" markerWidth="16" markerHeight="16" markerUnits="userSpaceOnUse" orient="auto-start-reverse"><polygon points="0,1 14,8 0,15" fill="#ffffff" stroke="#1e293b" stroke-width="1.5" fill-rule="nonzero"/></marker><marker id="arrow-diamond-filled" viewBox="0 0 14 10" refX="13" refY="5" markerWidth="14" markerHeight="10" markerUnits="userSpaceOnUse" orient="auto-start-reverse"><path d="M0,5 L7,0 L14,5 L7,10 z" fill="#1e293b" stroke="#1e293b" stroke-width="1"/></marker><marker id="arrow-diamond-open" viewBox="0 0 14 10" refX="13" refY="5" markerWidth="14" markerHeight="10" markerUnits="userSpaceOnUse" orient="auto-start-reverse"><path d="M0,5 L7,0 L14,5 L7,10 z" fill="#ffffff" stroke="#1e293b" stroke-width="1"/></marker></defs><text x="32" y="32" font-family="monospace" font-size="18" font-weight="600" fill="#0f172a">Data Platform Containers</text><line class="uml-relation" data-uml-from="analyst" data-uml-to="viz" x1="192" y1="113" x2="272" y2="254" stroke="#1e293b" stroke-width="2" marker-end="url(#arrow-open)"/><text x="237" y="162" text-anchor="middle" font-family="monospace" font-size="11" fill="#334155">Queries</text><line class="uml-relation" data-uml-from="ingest" data-uml-to="transform" x1="432" y1="96" x2="512" y2="96" stroke="#1e293b" stroke-width="2" marker-end="url(#arrow-open)"/><text x="464" y="82" text-anchor="middle" font-family="monospace" font-size="11" fill="#334155">Feeds</text><line class="uml-relation" data-uml-from="transform" data-uml-to="warehouse" x1="512" y1="96" x2="192" y2="254" stroke="#1e293b" stroke-width="2" marker-end="url(#arrow-open)"/><text x="385" y="145" text-anchor="middle" font-family="monospace" font-size="11" fill="#334155">Loads</text><line class="uml-relation" data-uml-from="viz" data-uml-to="warehouse" x1="272" y1="254" x2="192" y2="254" stroke="#1e293b" stroke-width="2" marker-end="url(#arrow-open)"/><text x="240" y="240" text-anchor="middle" font-family="monospace" font-size="11" fill="#334155">Reads</text><circle cx="112" cy="76" r="9" fill="#1168bd" stroke="#0d4f8f" stroke-width="1.5"/><line x1="112" y1="85" x2="112" y2="98" stroke="#0d4f8f" stroke-width="2"/><line x1="100" y1="92" x2="124" y2="92" stroke="#0d4f8f" stroke-width="2"/><line x1="112" y1="98" x2="102" y2="110" stroke="#0d4f8f" stroke-width="2"/><line x1="112" y1="98" x2="122" y2="110" stroke="#0d4f8f" stroke-width="2"/><rect x="32" y="110" width="160" height="50" rx="8" ry="8" fill="#1168bd" stroke="#0d4f8f" stroke-width="1.5"/><text x="112" y="134" text-anchor="middle" font-family="monospace" font-size="13" font-weight="600" fill="#ffffff">Data Analyst</text><text x="112" y="148" text-anchor="middle" font-family="monospace" font-size="10" fill="#ffffff">[Person]</text><rect x="272" y="66" width="160" height="60" rx="8" ry="8" fill="#438dd5" stroke="#2e6da0" stroke-width="1.5"/><text x="352" y="92" text-anchor="middle" font-family="monospace" font-size="13" font-weight="600" fill="#ffffff">Ingestion</text><text x="352" y="106" text-anchor="middle" font-family="monospace" font-size="10" fill="#ffffff">[Container]</text><rect x="512" y="66" width="160" height="60" rx="8" ry="8" fill="#438dd5" stroke="#2e6da0" stroke-width="1.5"/><text x="592" y="92" text-anchor="middle" font-family="monospace" font-size="13" font-weight="600" fill="#ffffff">Transform</text><text x="592" y="106" text-anchor="middle" font-family="monospace" font-size="10" fill="#ffffff">[Container]</text><rect x="32" y="224" width="160" height="60" rx="8" ry="8" fill="#438dd5" stroke="#2e6da0" stroke-width="1.5"/><text x="112" y="250" text-anchor="middle" font-family="monospace" font-size="13" font-weight="600" fill="#ffffff">Warehouse</text><text x="112" y="264" text-anchor="middle" font-family="monospace" font-size="10" fill="#ffffff">[Container]</text><rect x="272" y="224" width="160" height="60" rx="8" ry="8" fill="#438dd5" stroke="#2e6da0" stroke-width="1.5"/><text x="352" y="250" text-anchor="middle" font-family="monospace" font-size="13" font-weight="600" fill="#ffffff">Dashboard</text><text x="352" y="264" text-anchor="middle" font-family="monospace" font-size="10" fill="#ffffff">[Container]</text></svg>