<svg xmlns="http://www.w3.org/2000/svg" width="1922" height="670" viewBox="0 0 1922 670" data-orientation="TopToBottom"><rect width="100%" height="100%" fill="#ffffff"/><defs><marker id="arrow-open" viewBox="0 0 10 10" refX="9" refY="5" markerWidth="10" markerHeight="10" markerUnits="userSpaceOnUse" orient="auto-start-reverse"><path d="M0,0 L10,5 L0,10" fill="none" stroke="#1e293b" stroke-width="1.5"/></marker><marker id="arrow-triangle" viewBox="0 0 16 16" refX="15" refY="8" markerWidth="16" markerHeight="16" markerUnits="userSpaceOnUse" orient="auto-start-reverse"><polygon points="0,1 14,8 0,15" fill="#ffffff" stroke="#1e293b" stroke-width="1.5" fill-rule="nonzero"/></marker><marker id="arrow-diamond-filled" viewBox="0 0 14 10" refX="13" refY="5" markerWidth="14" markerHeight="10" markerUnits="userSpaceOnUse" orient="auto-start-reverse"><path d="M0,5 L7,0 L14,5 L7,10 z" fill="#1e293b" stroke="#1e293b" stroke-width="1"/></marker><marker id="arrow-diamond-open" viewBox="0 0 14 10" refX="13" refY="5" markerWidth="14" markerHeight="10" markerUnits="userSpaceOnUse" orient="auto-start-reverse"><path d="M0,5 L7,0 L14,5 L7,10 z" fill="#ffffff" stroke="#1e293b" stroke-width="1"/></marker></defs><defs><marker id="arrow-triangle-filled" viewBox="0 0 12 12" refX="11" refY="6" markerWidth="12" markerHeight="12" markerUnits="userSpaceOnUse" orient="auto-start-reverse"><polygon points="0,0 12,6 0,12" fill="#1e293b" stroke="#1e293b" stroke-width="1.5"/></marker><marker id="arrow-box-filled" viewBox="0 0 12 12" refX="11" refY="6" markerWidth="12" markerHeight="12" markerUnits="userSpaceOnUse" orient="auto-start-reverse"><rect x="2" y="2" width="8" height="8" fill="#1e293b" stroke="#1e293b" stroke-width="1.5"/></marker><marker id="arrow-plus" viewBox="0 0 12 12" refX="11" refY="6" markerWidth="12" markerHeight="12" markerUnits="userSpaceOnUse" orient="auto-start-reverse"><path d="M6,1 L6,11 M1,6 L11,6" fill="none" stroke="#1e293b" stroke-width="1.8" stroke-linecap="round"/></marker><marker id="arrow-cross" viewBox="0 0 12 12" refX="11" refY="6" markerWidth="12" markerHeight="12" markerUnits="userSpaceOnUse" orient="auto-start-reverse"><path d="M2,2 L10,10 M10,2 L2,10" fill="none" stroke="#1e293b" stroke-width="1.8" stroke-linecap="round"/></marker><marker id="arrow-bracket-open" viewBox="0 0 12 14" refX="11" refY="7" markerWidth="12" markerHeight="14" markerUnits="userSpaceOnUse" orient="auto-start-reverse"><path d="M10,1 L4,1 L4,13 L10,13" fill="none" stroke="#1e293b" stroke-width="1.8" stroke-linecap="round" stroke-linejoin="round"/></marker><marker id="arrow-circle-open" viewBox="0 0 12 12" refX="11" refY="6" markerWidth="12" markerHeight="12" markerUnits="userSpaceOnUse" orient="auto-start-reverse"><circle cx="6" cy="6" r="4" fill="#ffffff" stroke="#1e293b" stroke-width="1.5"/></marker><marker id="arrow-circle-filled" viewBox="0 0 12 12" refX="11" refY="6" markerWidth="12" markerHeight="12" markerUnits="userSpaceOnUse" orient="auto-start-reverse"><circle cx="6" cy="6" r="4" fill="#1e293b" stroke="#1e293b" stroke-width="1.5"/></marker><marker id="arrow-double-open" viewBox="0 0 16 12" refX="15" refY="6" markerWidth="16" markerHeight="12" markerUnits="userSpaceOnUse" orient="auto-start-reverse"><path d="M0,1 L8,6 L0,11 M7,1 L15,6 L7,11" fill="none" stroke="#1e293b" stroke-width="1.5" stroke-linejoin="round"/></marker></defs><text x="32" y="32" font-family="monospace" font-size="18" font-weight="600" fill="#0f172a">C4 System Landscape — 5+ systems</text><polyline class="uml-relation" data-uml-from="customer" data-uml-to="ecommerce" data-uml-arrow="--&gt;" points="594,118 594,183 718,183 718,269" fill="none" stroke="#1e293b" stroke-width="2" marker-end="url(#arrow-open)" /><text class="uml-edge-label" data-uml-label-role="edge" x="688" y="70" text-anchor="middle" font-family="monospace" font-size="11" fill="#334155">Shops, orders [HTTPS]</text><polyline class="uml-relation" data-uml-from="ecommerce" data-uml-to="crm" data-uml-arrow="--&gt;" points="718,269 718,336 377,336 377,403" fill="none" stroke="#1e293b" stroke-width="2" marker-end="url(#arrow-open)" /><rect class="uml-edge-label-bg" data-uml-label-role="edge-background" x="479" y="311" width="228" height="18" fill="white" opacity="0.85"/><text class="uml-edge-label" data-uml-label-role="edge" x="593" y="324" text-anchor="middle" font-family="monospace" font-size="11" fill="#334155">Creates support cases [REST/API]</text><polyline class="uml-relation" data-uml-from="ecommerce" data-uml-to="erp" data-uml-arrow="--&gt;" points="718,269 718,344 812,344 812,403" fill="none" stroke="#1e293b" stroke-width="2" marker-end="url(#arrow-open)" /><rect class="uml-edge-label-bg" data-uml-label-role="edge-background" x="700" y="319" width="158" height="18" fill="white" opacity="0.85"/><text class="uml-edge-label" data-uml-label-role="edge" x="779" y="332" text-anchor="middle" font-family="monospace" font-size="11" fill="#334155">Sends orders [EDI/API]</text><polyline class="uml-relation" data-uml-from="ecommerce" data-uml-to="notification" data-uml-arrow="--&gt;" points="1029,269 1029,352 936,352 936,403" fill="none" stroke="#1e293b" stroke-width="2" marker-end="url(#arrow-open)" /><rect class="uml-edge-label-bg" data-uml-label-role="edge-background" x="854" y="327" width="186" height="18" fill="white" opacity="0.85"/><text class="uml-edge-label" data-uml-label-role="edge" x="947" y="340" text-anchor="middle" font-family="monospace" font-size="11" fill="#334155">Triggers emails/SMS [AMQP]</text><polyline class="uml-relation" data-uml-from="ecommerce" data-uml-to="payment" data-uml-arrow="--&gt;" points="1029,269 1029,360 1371,360 1371,403" fill="none" stroke="#1e293b" stroke-width="2" marker-end="url(#arrow-open)" /><text class="uml-edge-label" data-uml-label-role="edge" x="1142" y="348" text-anchor="middle" font-family="monospace" font-size="11" fill="#334155">Processes payments [HTTPS/REST]</text><polyline class="uml-relation" data-uml-from="erp" data-uml-to="shipping" data-uml-arrow="--&gt;" points="812,403 812,484 936,484 936,537" fill="none" stroke="#1e293b" stroke-width="2" marker-end="url(#arrow-open)" /><rect class="uml-edge-label-bg" data-uml-label-role="edge-background" x="792" y="459" width="164" height="18" fill="white" opacity="0.85"/><text class="uml-edge-label" data-uml-label-role="edge" x="874" y="472" text-anchor="middle" font-family="monospace" font-size="11" fill="#334155">Books shipments [HTTPS]</text><polyline class="uml-relation" data-uml-from="erp" data-uml-to="analytics" data-uml-arrow="--&gt;" points="656,438 656,470 656,502" fill="none" stroke="#1e293b" stroke-width="2" marker-end="url(#arrow-open)" /><rect class="uml-edge-label-bg" data-uml-label-role="edge-background" x="509" y="445" width="214" height="18" fill="white" opacity="0.85"/><text class="uml-edge-label" data-uml-label-role="edge" x="616" y="458" text-anchor="middle" font-family="monospace" font-size="11" fill="#334155">Publishes financial data [ETL]</text><polyline class="uml-relation" data-uml-from="crm" data-uml-to="analytics" data-uml-arrow="--&gt;" points="377,403 377,474 501,474 501,537" fill="none" stroke="#1e293b" stroke-width="2" marker-end="url(#arrow-open)" /><rect class="uml-edge-label-bg" data-uml-label-role="edge-background" x="299" y="449" width="220" height="18" fill="white" opacity="0.85"/><text class="uml-edge-label" data-uml-label-role="edge" x="409" y="462" text-anchor="middle" font-family="monospace" font-size="11" fill="#334155">Publishes support metrics [ETL]</text><polyline class="uml-relation" data-uml-from="analyst" data-uml-to="analytics" data-uml-arrow="--&gt;" points="1153,118 1153,220 485,220 485,465 812,465 812,537" fill="none" stroke="#1e293b" stroke-width="2" marker-end="url(#arrow-open)" /><rect class="uml-edge-label-bg" data-uml-label-role="edge-background" x="716" y="195" width="172" height="18" fill="white" opacity="0.85"/><text class="uml-edge-label" data-uml-label-role="edge" x="802" y="208" text-anchor="middle" font-family="monospace" font-size="11" fill="#334155">Views dashboards [HTTPS]</text><polyline class="uml-relation" data-uml-from="ops" data-uml-to="ecommerce" data-uml-arrow="--&gt;" points="873,170 873,202 873,234" fill="none" stroke="#1e293b" stroke-width="2" marker-end="url(#arrow-open)" /><rect class="uml-edge-label-bg" data-uml-label-role="edge-background" x="761" y="177" width="178" height="18" fill="white" opacity="0.85"/><text class="uml-edge-label" data-uml-label-role="edge" x="850" y="190" text-anchor="middle" font-family="monospace" font-size="11" fill="#334155">Monitors health [SSH/API]</text><circle cx="438" cy="76" r="9" fill="#1168bd" stroke="#0d4f8f" stroke-width="1.5"/><line x1="438" y1="85" x2="438" y2="98" stroke="#0d4f8f" stroke-width="2"/><line x1="426" y1="92" x2="450" y2="92" stroke="#0d4f8f" stroke-width="2"/><line x1="438" y1="98" x2="428" y2="110" stroke="#0d4f8f" stroke-width="2"/><line x1="438" y1="98" x2="448" y2="110" stroke="#0d4f8f" stroke-width="2"/><rect x="283" y="110" width="311" height="60" rx="8" ry="8" fill="#1168bd" stroke="#0d4f8f" stroke-width="1.5"/><text x="438" y="134" text-anchor="middle" font-family="monospace" font-size="13" font-weight="600" fill="#ffffff">Customer</text><text x="438" y="148" text-anchor="middle" font-family="monospace" font-size="10" fill="#ffffff">«person»</text><text x="438" y="160" text-anchor="middle" font-family="monospace" font-size="9" font-style="italic" fill="#ffffff">End user purchasing products</text><circle cx="1308" cy="76" r="9" fill="#1168bd" stroke="#0d4f8f" stroke-width="1.5"/><line x1="1308" y1="85" x2="1308" y2="98" stroke="#0d4f8f" stroke-width="2"/><line x1="1296" y1="92" x2="1320" y2="92" stroke="#0d4f8f" stroke-width="2"/><line x1="1308" y1="98" x2="1298" y2="110" stroke="#0d4f8f" stroke-width="2"/><line x1="1308" y1="98" x2="1318" y2="110" stroke="#0d4f8f" stroke-width="2"/><rect x="1153" y="110" width="311" height="60" rx="8" ry="8" fill="#1168bd" stroke="#0d4f8f" stroke-width="1.5"/><text x="1308" y="134" text-anchor="middle" font-family="monospace" font-size="13" font-weight="600" fill="#ffffff">Business Analyst</text><text x="1308" y="148" text-anchor="middle" font-family="monospace" font-size="10" fill="#ffffff">«person»</text><text x="1308" y="160" text-anchor="middle" font-family="monospace" font-size="9" font-style="italic" fill="#ffffff">Reviews KPIs and dashboards</text><circle cx="873" cy="76" r="9" fill="#1168bd" stroke="#0d4f8f" stroke-width="1.5"/><line x1="873" y1="85" x2="873" y2="98" stroke="#0d4f8f" stroke-width="2"/><line x1="861" y1="92" x2="885" y2="92" stroke="#0d4f8f" stroke-width="2"/><line x1="873" y1="98" x2="863" y2="110" stroke="#0d4f8f" stroke-width="2"/><line x1="873" y1="98" x2="883" y2="110" stroke="#0d4f8f" stroke-width="2"/><rect x="718" y="110" width="311" height="60" rx="8" ry="8" fill="#1168bd" stroke="#0d4f8f" stroke-width="1.5"/><text x="873" y="134" text-anchor="middle" font-family="monospace" font-size="13" font-weight="600" fill="#ffffff">Operations Team</text><text x="873" y="148" text-anchor="middle" font-family="monospace" font-size="10" fill="#ffffff">«person»</text><text x="873" y="160" text-anchor="middle" font-family="monospace" font-size="9" font-style="italic" fill="#ffffff">Manages infrastructure and incidents</text><rect x="718" y="234" width="311" height="70" rx="8" ry="8" fill="#1168bd" stroke="#0d4f8f" stroke-width="1.5"/><text x="873" y="265" text-anchor="middle" font-family="monospace" font-size="13" font-weight="600" fill="#ffffff">E-Commerce Platform</text><text x="873" y="279" text-anchor="middle" font-family="monospace" font-size="10" fill="#ffffff">«system»</text><text x="873" y="291" text-anchor="middle" font-family="monospace" font-size="9" font-style="italic" fill="#ffffff">Web storefront and order management</text><rect x="66" y="368" width="311" height="70" rx="8" ry="8" fill="#1168bd" stroke="#0d4f8f" stroke-width="1.5"/><text x="221" y="399" text-anchor="middle" font-family="monospace" font-size="13" font-weight="600" fill="#ffffff">CRM System</text><text x="221" y="413" text-anchor="middle" font-family="monospace" font-size="10" fill="#ffffff">«system»</text><text x="221" y="425" text-anchor="middle" font-family="monospace" font-size="9" font-style="italic" fill="#ffffff">Customer relationship and support tickets</text><rect x="501" y="368" width="311" height="70" rx="8" ry="8" fill="#1168bd" stroke="#0d4f8f" stroke-width="1.5"/><text x="656" y="399" text-anchor="middle" font-family="monospace" font-size="13" font-weight="600" fill="#ffffff">ERP System</text><text x="656" y="413" text-anchor="middle" font-family="monospace" font-size="10" fill="#ffffff">«system»</text><text x="656" y="425" text-anchor="middle" font-family="monospace" font-size="9" font-style="italic" fill="#ffffff">Finance, inventory, and logistics</text><rect x="501" y="502" width="311" height="70" rx="8" ry="8" fill="#1168bd" stroke="#0d4f8f" stroke-width="1.5"/><text x="656" y="533" text-anchor="middle" font-family="monospace" font-size="13" font-weight="600" fill="#ffffff">Analytics Platform</text><text x="656" y="547" text-anchor="middle" font-family="monospace" font-size="10" fill="#ffffff">«system»</text><text x="656" y="559" text-anchor="middle" font-family="monospace" font-size="9" font-style="italic" fill="#ffffff">Data warehouse and BI dashboards</text><rect x="936" y="368" width="311" height="70" rx="8" ry="8" fill="#1168bd" stroke="#0d4f8f" stroke-width="1.5"/><text x="1091" y="399" text-anchor="middle" font-family="monospace" font-size="13" font-weight="600" fill="#ffffff">Notification Service</text><text x="1091" y="413" text-anchor="middle" font-family="monospace" font-size="10" fill="#ffffff">«system»</text><text x="1091" y="425" text-anchor="middle" font-family="monospace" font-size="9" font-style="italic" fill="#ffffff">Email, SMS, push notifications</text><rect x="1371" y="368" width="311" height="70" rx="8" ry="8" fill="#8a8a8a" stroke="#6b6b6b" stroke-width="1.5"/><text x="1526" y="399" text-anchor="middle" font-family="monospace" font-size="13" font-weight="600" fill="#ffffff">Payment Gateway</text><text x="1526" y="413" text-anchor="middle" font-family="monospace" font-size="10" fill="#ffffff">«external_system»</text><text x="1526" y="425" text-anchor="middle" font-family="monospace" font-size="9" font-style="italic" fill="#ffffff">Stripe — external payment processing</text><rect x="936" y="502" width="311" height="70" rx="8" ry="8" fill="#8a8a8a" stroke="#6b6b6b" stroke-width="1.5"/><text x="1091" y="533" text-anchor="middle" font-family="monospace" font-size="13" font-weight="600" fill="#ffffff">Shipping Partner API</text><text x="1091" y="547" text-anchor="middle" font-family="monospace" font-size="10" fill="#ffffff">«external_system»</text><text x="1091" y="559" text-anchor="middle" font-family="monospace" font-size="9" font-style="italic" fill="#ffffff">FedEx/UPS — external logistics</text></svg>