<svg xmlns="http://www.w3.org/2000/svg" width="2294" height="982" viewBox="0 0 2294 982" data-orientation="TopToBottom"><rect width="100%" height="100%" fill="#ffffff"/><defs><marker id="arrow-open" viewBox="0 0 10 10" refX="9" refY="5" markerWidth="10" markerHeight="10" markerUnits="userSpaceOnUse" orient="auto-start-reverse"><path d="M0,0 L10,5 L0,10" fill="none" stroke="#1e293b" stroke-width="1.5"/></marker><marker id="arrow-triangle" viewBox="0 0 16 16" refX="15" refY="8" markerWidth="16" markerHeight="16" markerUnits="userSpaceOnUse" orient="auto-start-reverse"><polygon points="0,1 14,8 0,15" fill="#ffffff" stroke="#1e293b" stroke-width="1.5" fill-rule="nonzero"/></marker><marker id="arrow-diamond-filled" viewBox="0 0 14 10" refX="13" refY="5" markerWidth="14" markerHeight="10" markerUnits="userSpaceOnUse" orient="auto-start-reverse"><path d="M0,5 L7,0 L14,5 L7,10 z" fill="#1e293b" stroke="#1e293b" stroke-width="1"/></marker><marker id="arrow-diamond-open" viewBox="0 0 14 10" refX="13" refY="5" markerWidth="14" markerHeight="10" markerUnits="userSpaceOnUse" orient="auto-start-reverse"><path d="M0,5 L7,0 L14,5 L7,10 z" fill="#ffffff" stroke="#1e293b" stroke-width="1"/></marker></defs><defs><marker id="arrow-triangle-filled" viewBox="0 0 12 12" refX="11" refY="6" markerWidth="12" markerHeight="12" markerUnits="userSpaceOnUse" orient="auto-start-reverse"><polygon points="0,0 12,6 0,12" fill="#1e293b" stroke="#1e293b" stroke-width="1.5"/></marker><marker id="arrow-box-filled" viewBox="0 0 12 12" refX="11" refY="6" markerWidth="12" markerHeight="12" markerUnits="userSpaceOnUse" orient="auto-start-reverse"><rect x="2" y="2" width="8" height="8" fill="#1e293b" stroke="#1e293b" stroke-width="1.5"/></marker><marker id="arrow-plus" viewBox="0 0 12 12" refX="11" refY="6" markerWidth="12" markerHeight="12" markerUnits="userSpaceOnUse" orient="auto-start-reverse"><path d="M6,1 L6,11 M1,6 L11,6" fill="none" stroke="#1e293b" stroke-width="1.8" stroke-linecap="round"/></marker><marker id="arrow-cross" viewBox="0 0 12 12" refX="11" refY="6" markerWidth="12" markerHeight="12" markerUnits="userSpaceOnUse" orient="auto-start-reverse"><path d="M2,2 L10,10 M10,2 L2,10" fill="none" stroke="#1e293b" stroke-width="1.8" stroke-linecap="round"/></marker><marker id="arrow-bracket-open" viewBox="0 0 12 14" refX="11" refY="7" markerWidth="12" markerHeight="14" markerUnits="userSpaceOnUse" orient="auto-start-reverse"><path d="M10,1 L4,1 L4,13 L10,13" fill="none" stroke="#1e293b" stroke-width="1.8" stroke-linecap="round" stroke-linejoin="round"/></marker><marker id="arrow-circle-open" viewBox="0 0 12 12" refX="11" refY="6" markerWidth="12" markerHeight="12" markerUnits="userSpaceOnUse" orient="auto-start-reverse"><circle cx="6" cy="6" r="4" fill="#ffffff" stroke="#1e293b" stroke-width="1.5"/></marker><marker id="arrow-circle-filled" viewBox="0 0 12 12" refX="11" refY="6" markerWidth="12" markerHeight="12" markerUnits="userSpaceOnUse" orient="auto-start-reverse"><circle cx="6" cy="6" r="4" fill="#1e293b" stroke="#1e293b" stroke-width="1.5"/></marker><marker id="arrow-double-open" viewBox="0 0 16 12" refX="15" refY="6" markerWidth="16" markerHeight="12" markerUnits="userSpaceOnUse" orient="auto-start-reverse"><path d="M0,1 L8,6 L0,11 M7,1 L15,6 L7,11" fill="none" stroke="#1e293b" stroke-width="1.5" stroke-linejoin="round"/></marker></defs><text x="32" y="32" font-family="monospace" font-size="18" font-weight="600" fill="#0f172a">C4 System Landscape — 5+ systems</text><polyline class="uml-relation" data-uml-from="customer" data-uml-to="ecommerce" data-uml-arrow="--&gt;" points="656,118 656,200 904,200 904,373" fill="none" stroke="#1e293b" stroke-width="2" marker-end="url(#arrow-open)" /><text class="uml-edge-label" data-uml-label-role="edge" x="860" y="188" text-anchor="middle" font-family="monospace" font-size="11" fill="#334155">Shops, orders [HTTPS]</text><polyline class="uml-relation" data-uml-from="ecommerce" data-uml-to="crm" data-uml-arrow="--&gt;" points="904,373 904,492 377,492 377,611" fill="none" stroke="#1e293b" stroke-width="2" marker-end="url(#arrow-open)" /><text class="uml-edge-label" data-uml-label-role="edge" x="764" y="480" text-anchor="middle" font-family="monospace" font-size="11" fill="#334155">Creates support cases [REST/API]</text><polyline class="uml-relation" data-uml-from="ecommerce" data-uml-to="erp" data-uml-arrow="--&gt;" points="904,373 904,514 936,514 936,611" fill="none" stroke="#1e293b" stroke-width="2" marker-end="url(#arrow-open)" /><rect class="uml-edge-label-bg" data-uml-label-role="edge-background" x="871" y="489" width="158" height="18" fill="white" opacity="0.85"/><rect class="uml-edge-label-bg" data-uml-label-role="edge-background" x="871" y="489" width="158" height="18" fill="white" opacity="0.85"/><rect class="uml-edge-label-bg" data-uml-label-role="edge-background" x="871" y="489" width="158" height="18" fill="white" opacity="0.85"/><text class="uml-edge-label" data-uml-label-role="edge" x="950" y="502" text-anchor="middle" font-family="monospace" font-size="11" fill="#334155">Sends orders [EDI/API]</text><polyline class="uml-relation" data-uml-from="ecommerce" data-uml-to="notification" data-uml-arrow="--&gt;" points="1215,373 1215,537 1184,537 1184,611" fill="none" stroke="#1e293b" stroke-width="2" marker-end="url(#arrow-open)" /><text class="uml-edge-label" data-uml-label-role="edge" x="1118" y="525" text-anchor="middle" font-family="monospace" font-size="11" fill="#334155">Triggers emails/SMS [AMQP]</text><polyline class="uml-relation" data-uml-from="ecommerce" data-uml-to="payment" data-uml-arrow="--&gt;" points="1215,373 1215,560 1743,560 1743,611" fill="none" stroke="#1e293b" stroke-width="2" marker-end="url(#arrow-open)" /><rect class="uml-edge-label-bg" data-uml-label-role="edge-background" x="1203" y="535" width="220" height="18" fill="white" opacity="0.85"/><rect class="uml-edge-label-bg" data-uml-label-role="edge-background" x="1203" y="535" width="220" height="18" fill="white" opacity="0.85"/><text class="uml-edge-label" data-uml-label-role="edge" x="1313" y="548" text-anchor="middle" font-family="monospace" font-size="11" fill="#334155">Processes payments [HTTPS/REST]</text><polyline class="uml-relation" data-uml-from="erp" data-uml-to="shipping" data-uml-arrow="--&gt;" points="936,611 936,770 1184,770 1184,849" fill="none" stroke="#1e293b" stroke-width="2" marker-end="url(#arrow-open)" /><text class="uml-edge-label" data-uml-label-role="edge" x="1060" y="744" text-anchor="middle" font-family="monospace" font-size="11" fill="#334155">Books shipments [HTTPS]</text><polyline class="uml-relation" data-uml-from="erp" data-uml-to="analytics" data-uml-arrow="--&gt;" points="780,646 780,730 780,814" fill="none" stroke="#1e293b" stroke-width="2" marker-end="url(#arrow-open)" /><rect class="uml-edge-label-bg" data-uml-label-role="edge-background" x="675" y="705" width="214" height="18" fill="white" opacity="0.85"/><text class="uml-edge-label" data-uml-label-role="edge" x="782" y="718" text-anchor="middle" font-family="monospace" font-size="11" fill="#334155">Publishes financial data [ETL]</text><polyline class="uml-relation" data-uml-from="crm" data-uml-to="analytics" data-uml-arrow="--&gt;" points="377,611 377,743 625,743 625,849" fill="none" stroke="#1e293b" stroke-width="2" marker-end="url(#arrow-open)" /><text class="uml-edge-label" data-uml-label-role="edge" x="575" y="731" text-anchor="middle" font-family="monospace" font-size="11" fill="#334155">Publishes support metrics [ETL]</text><polyline class="uml-relation" data-uml-from="analyst" data-uml-to="analytics" data-uml-arrow="--&gt;" points="1463,118 1463,307 952,307 952,716 936,716 936,849" fill="none" stroke="#1e293b" stroke-width="2" marker-end="url(#arrow-open)" /><rect class="uml-edge-label-bg" data-uml-label-role="edge-background" x="882" y="282" width="172" height="18" fill="white" opacity="0.85"/><text class="uml-edge-label" data-uml-label-role="edge" x="968" y="295" text-anchor="middle" font-family="monospace" font-size="11" fill="#334155">Views dashboards [HTTPS]</text><polyline class="uml-relation" data-uml-from="ops" data-uml-to="ecommerce" data-uml-arrow="--&gt;" points="1059,170 1059,254 1059,338" fill="none" stroke="#1e293b" stroke-width="2" marker-end="url(#arrow-open)" /><rect class="uml-edge-label-bg" data-uml-label-role="edge-background" x="933" y="229" width="178" height="18" fill="white" opacity="0.85"/><text class="uml-edge-label" data-uml-label-role="edge" x="1022" y="242" text-anchor="middle" font-family="monospace" font-size="11" fill="#334155">Monitors health [SSH/API]</text><circle cx="500" cy="76" r="9" fill="#1168bd" stroke="#0d4f8f" stroke-width="1.5"/><line x1="500" y1="85" x2="500" y2="98" stroke="#0d4f8f" stroke-width="2"/><line x1="488" y1="92" x2="512" y2="92" stroke="#0d4f8f" stroke-width="2"/><line x1="500" y1="98" x2="490" y2="110" stroke="#0d4f8f" stroke-width="2"/><line x1="500" y1="98" x2="510" y2="110" stroke="#0d4f8f" stroke-width="2"/><rect x="345" y="110" width="311" height="60" rx="8" ry="8" fill="#1168bd" stroke="#0d4f8f" stroke-width="1.5"/><text x="500" y="134" text-anchor="middle" font-family="monospace" font-size="13" font-weight="600" fill="#ffffff">Customer</text><text x="500" y="148" text-anchor="middle" font-family="monospace" font-size="10" fill="#ffffff">«person»</text><text x="500" y="160" text-anchor="middle" font-family="monospace" font-size="9" font-style="italic" fill="#ffffff">End user purchasing products</text><circle cx="1618" cy="76" r="9" fill="#1168bd" stroke="#0d4f8f" stroke-width="1.5"/><line x1="1618" y1="85" x2="1618" y2="98" stroke="#0d4f8f" stroke-width="2"/><line x1="1606" y1="92" x2="1630" y2="92" stroke="#0d4f8f" stroke-width="2"/><line x1="1618" y1="98" x2="1608" y2="110" stroke="#0d4f8f" stroke-width="2"/><line x1="1618" y1="98" x2="1628" y2="110" stroke="#0d4f8f" stroke-width="2"/><rect x="1463" y="110" width="311" height="60" rx="8" ry="8" fill="#1168bd" stroke="#0d4f8f" stroke-width="1.5"/><text x="1618" y="134" text-anchor="middle" font-family="monospace" font-size="13" font-weight="600" fill="#ffffff">Business Analyst</text><text x="1618" y="148" text-anchor="middle" font-family="monospace" font-size="10" fill="#ffffff">«person»</text><text x="1618" y="160" text-anchor="middle" font-family="monospace" font-size="9" font-style="italic" fill="#ffffff">Reviews KPIs and dashboards</text><circle cx="1059" cy="76" r="9" fill="#1168bd" stroke="#0d4f8f" stroke-width="1.5"/><line x1="1059" y1="85" x2="1059" y2="98" stroke="#0d4f8f" stroke-width="2"/><line x1="1047" y1="92" x2="1071" y2="92" stroke="#0d4f8f" stroke-width="2"/><line x1="1059" y1="98" x2="1049" y2="110" stroke="#0d4f8f" stroke-width="2"/><line x1="1059" y1="98" x2="1069" y2="110" stroke="#0d4f8f" stroke-width="2"/><rect x="904" y="110" width="311" height="60" rx="8" ry="8" fill="#1168bd" stroke="#0d4f8f" stroke-width="1.5"/><text x="1059" y="134" text-anchor="middle" font-family="monospace" font-size="13" font-weight="600" fill="#ffffff">Operations Team</text><text x="1059" y="148" text-anchor="middle" font-family="monospace" font-size="10" fill="#ffffff">«person»</text><text x="1059" y="160" text-anchor="middle" font-family="monospace" font-size="9" font-style="italic" fill="#ffffff">Manages infrastructure and incidents</text><rect x="904" y="338" width="311" height="70" rx="8" ry="8" fill="#1168bd" stroke="#0d4f8f" stroke-width="1.5"/><text x="1059" y="369" text-anchor="middle" font-family="monospace" font-size="13" font-weight="600" fill="#ffffff">E-Commerce Platform</text><text x="1059" y="383" text-anchor="middle" font-family="monospace" font-size="10" fill="#ffffff">«system»</text><text x="1059" y="395" text-anchor="middle" font-family="monospace" font-size="9" font-style="italic" fill="#ffffff">Web storefront and order management</text><rect x="66" y="576" width="311" height="70" rx="8" ry="8" fill="#1168bd" stroke="#0d4f8f" stroke-width="1.5"/><text x="221" y="607" text-anchor="middle" font-family="monospace" font-size="13" font-weight="600" fill="#ffffff">CRM System</text><text x="221" y="621" text-anchor="middle" font-family="monospace" font-size="10" fill="#ffffff">«system»</text><text x="221" y="633" text-anchor="middle" font-family="monospace" font-size="9" font-style="italic" fill="#ffffff">Customer relationship and support tickets</text><rect x="625" y="576" width="311" height="70" rx="8" ry="8" fill="#1168bd" stroke="#0d4f8f" stroke-width="1.5"/><text x="780" y="607" text-anchor="middle" font-family="monospace" font-size="13" font-weight="600" fill="#ffffff">ERP System</text><text x="780" y="621" text-anchor="middle" font-family="monospace" font-size="10" fill="#ffffff">«system»</text><text x="780" y="633" text-anchor="middle" font-family="monospace" font-size="9" font-style="italic" fill="#ffffff">Finance, inventory, and logistics</text><rect x="625" y="814" width="311" height="70" rx="8" ry="8" fill="#1168bd" stroke="#0d4f8f" stroke-width="1.5"/><text x="780" y="845" text-anchor="middle" font-family="monospace" font-size="13" font-weight="600" fill="#ffffff">Analytics Platform</text><text x="780" y="859" text-anchor="middle" font-family="monospace" font-size="10" fill="#ffffff">«system»</text><text x="780" y="871" text-anchor="middle" font-family="monospace" font-size="9" font-style="italic" fill="#ffffff">Data warehouse and BI dashboards</text><rect x="1184" y="576" width="311" height="70" rx="8" ry="8" fill="#1168bd" stroke="#0d4f8f" stroke-width="1.5"/><text x="1339" y="607" text-anchor="middle" font-family="monospace" font-size="13" font-weight="600" fill="#ffffff">Notification Service</text><text x="1339" y="621" text-anchor="middle" font-family="monospace" font-size="10" fill="#ffffff">«system»</text><text x="1339" y="633" text-anchor="middle" font-family="monospace" font-size="9" font-style="italic" fill="#ffffff">Email, SMS, push notifications</text><rect x="1743" y="576" width="311" height="70" rx="8" ry="8" fill="#8a8a8a" stroke="#6b6b6b" stroke-width="1.5"/><text x="1898" y="607" text-anchor="middle" font-family="monospace" font-size="13" font-weight="600" fill="#ffffff">Payment Gateway</text><text x="1898" y="621" text-anchor="middle" font-family="monospace" font-size="10" fill="#ffffff">«external_system»</text><text x="1898" y="633" text-anchor="middle" font-family="monospace" font-size="9" font-style="italic" fill="#ffffff">Stripe — external payment processing</text><rect x="1184" y="814" width="311" height="70" rx="8" ry="8" fill="#8a8a8a" stroke="#6b6b6b" stroke-width="1.5"/><text x="1339" y="845" text-anchor="middle" font-family="monospace" font-size="13" font-weight="600" fill="#ffffff">Shipping Partner API</text><text x="1339" y="859" text-anchor="middle" font-family="monospace" font-size="10" fill="#ffffff">«external_system»</text><text x="1339" y="871" text-anchor="middle" font-family="monospace" font-size="9" font-style="italic" fill="#ffffff">FedEx/UPS — external logistics</text></svg>