<svg xmlns="http://www.w3.org/2000/svg" width="1538" height="920" viewBox="0 0 1538 920"><rect width="100%" height="100%" fill="#ffffff"/><defs><marker id="arrow-open" viewBox="0 0 10 10" refX="9" refY="5" markerWidth="10" markerHeight="10" markerUnits="userSpaceOnUse" orient="auto-start-reverse"><path d="M0,0 L10,5 L0,10" fill="none" stroke="#1e293b" stroke-width="1.5"/></marker><marker id="arrow-triangle" viewBox="0 0 16 16" refX="15" refY="8" markerWidth="16" markerHeight="16" markerUnits="userSpaceOnUse" orient="auto-start-reverse"><polygon points="0,1 14,8 0,15" fill="#ffffff" stroke="#1e293b" stroke-width="1.5" fill-rule="nonzero"/></marker><marker id="arrow-diamond-filled" viewBox="0 0 14 10" refX="13" refY="5" markerWidth="14" markerHeight="10" markerUnits="userSpaceOnUse" orient="auto-start-reverse"><path d="M0,5 L7,0 L14,5 L7,10 z" fill="#1e293b" stroke="#1e293b" stroke-width="1"/></marker><marker id="arrow-diamond-open" viewBox="0 0 14 10" refX="13" refY="5" markerWidth="14" markerHeight="10" markerUnits="userSpaceOnUse" orient="auto-start-reverse"><path d="M0,5 L7,0 L14,5 L7,10 z" fill="#ffffff" stroke="#1e293b" stroke-width="1"/></marker></defs><text x="32" y="32" font-family="monospace" font-size="18" font-weight="600" fill="#0f172a">C4 System Landscape — 5+ systems</text><polyline class="uml-relation" data-uml-from="customer" data-uml-to="ecommerce" data-uml-arrow="--&gt;" points="453,113 453,189 652,189 652,348" fill="none" stroke="#1e293b" stroke-width="2" marker-end="url(#arrow-open)" /><text x="691" y="300" text-anchor="middle" font-family="monospace" font-size="11" fill="#334155">Shops, orders</text><polyline class="uml-relation" data-uml-from="ecommerce" data-uml-to="crm" data-uml-arrow="--&gt;" points="652,348 652,457 258,457 258,566" fill="none" stroke="#1e293b" stroke-width="2" marker-end="url(#arrow-open)" /><text x="534" y="399" text-anchor="middle" font-family="monospace" font-size="11" fill="#334155">Creates support cases</text><polyline class="uml-relation" data-uml-from="ecommerce" data-uml-to="erp" data-uml-arrow="--&gt;" points="748,378 748,478 553,478 553,536" fill="none" stroke="#1e293b" stroke-width="2" marker-end="url(#arrow-open)" /><text x="670" y="427" text-anchor="middle" font-family="monospace" font-size="11" fill="#334155">Sends orders</text><polyline class="uml-relation" data-uml-from="ecommerce" data-uml-to="notification" data-uml-arrow="--&gt;" points="748,378 748,499 944,499 944,536" fill="none" stroke="#1e293b" stroke-width="2" marker-end="url(#arrow-open)" /><text x="846" y="443" text-anchor="middle" font-family="monospace" font-size="11" fill="#334155">Triggers emails/SMS</text><polyline class="uml-relation" data-uml-from="ecommerce" data-uml-to="payment" data-uml-arrow="--&gt;" points="844,348 844,521 1239,521 1239,566" fill="none" stroke="#1e293b" stroke-width="2" marker-end="url(#arrow-open)" /><text x="1081" y="464" text-anchor="middle" font-family="monospace" font-size="11" fill="#334155">Processes payments</text><polyline class="uml-relation" data-uml-from="erp" data-uml-to="shipping" data-uml-arrow="--&gt;" points="649,566 649,712 848,712 848,784" fill="none" stroke="#1e293b" stroke-width="2" marker-end="url(#arrow-open)" /><text x="762" y="700" text-anchor="middle" font-family="monospace" font-size="11" fill="#334155">Books shipments</text><polyline class="uml-relation" data-uml-from="erp" data-uml-to="analytics" data-uml-arrow="--&gt;" points="553,596 553,675 553,754" fill="none" stroke="#1e293b" stroke-width="2" marker-end="url(#arrow-open)" /><text x="406" y="736" text-anchor="middle" font-family="monospace" font-size="11" fill="#334155">Publishes financial data</text><polyline class="uml-relation" data-uml-from="crm" data-uml-to="analytics" data-uml-arrow="--&gt;" points="258,566 258,687 457,687 457,784" fill="none" stroke="#1e293b" stroke-width="2" marker-end="url(#arrow-open)" /><text x="577" y="736" text-anchor="middle" font-family="monospace" font-size="11" fill="#334155">Publishes support metrics</text><polyline class="uml-relation" data-uml-from="analyst" data-uml-to="analytics" data-uml-arrow="--&gt;" points="1139,160 1139,289 553,289 553,754" fill="none" stroke="#1e293b" stroke-width="2" marker-end="url(#arrow-open)" /><text x="724" y="740" text-anchor="middle" font-family="monospace" font-size="11" fill="#334155">Views dashboards</text><polyline class="uml-relation" data-uml-from="ops" data-uml-to="ecommerce" data-uml-arrow="--&gt;" points="748,160 748,239 748,318" fill="none" stroke="#1e293b" stroke-width="2" marker-end="url(#arrow-open)" /><text x="799" y="300" text-anchor="middle" font-family="monospace" font-size="11" fill="#334155">Monitors health</text><circle cx="357" cy="76" r="9" fill="#1168bd" stroke="#0d4f8f" stroke-width="1.5"/><line x1="357" y1="85" x2="357" y2="98" stroke="#0d4f8f" stroke-width="2"/><line x1="345" y1="92" x2="369" y2="92" stroke="#0d4f8f" stroke-width="2"/><line x1="357" y1="98" x2="347" y2="110" stroke="#0d4f8f" stroke-width="2"/><line x1="357" y1="98" x2="367" y2="110" stroke="#0d4f8f" stroke-width="2"/><rect x="261" y="110" width="192" height="50" rx="8" ry="8" fill="#1168bd" stroke="#0d4f8f" stroke-width="1.5"/><text x="357" y="134" text-anchor="middle" font-family="monospace" font-size="13" font-weight="600" fill="#ffffff">Customer</text><text x="357" y="148" text-anchor="middle" font-family="monospace" font-size="10" fill="#ffffff">[Person]</text><circle cx="1139" cy="76" r="9" fill="#1168bd" stroke="#0d4f8f" stroke-width="1.5"/><line x1="1139" y1="85" x2="1139" y2="98" stroke="#0d4f8f" stroke-width="2"/><line x1="1127" y1="92" x2="1151" y2="92" stroke="#0d4f8f" stroke-width="2"/><line x1="1139" y1="98" x2="1129" y2="110" stroke="#0d4f8f" stroke-width="2"/><line x1="1139" y1="98" x2="1149" y2="110" stroke="#0d4f8f" stroke-width="2"/><rect x="1043" y="110" width="192" height="50" rx="8" ry="8" fill="#1168bd" stroke="#0d4f8f" stroke-width="1.5"/><text x="1139" y="134" text-anchor="middle" font-family="monospace" font-size="13" font-weight="600" fill="#ffffff">Business Analyst</text><text x="1139" y="148" text-anchor="middle" font-family="monospace" font-size="10" fill="#ffffff">[Person]</text><circle cx="748" cy="76" r="9" fill="#1168bd" stroke="#0d4f8f" stroke-width="1.5"/><line x1="748" y1="85" x2="748" y2="98" stroke="#0d4f8f" stroke-width="2"/><line x1="736" y1="92" x2="760" y2="92" stroke="#0d4f8f" stroke-width="2"/><line x1="748" y1="98" x2="738" y2="110" stroke="#0d4f8f" stroke-width="2"/><line x1="748" y1="98" x2="758" y2="110" stroke="#0d4f8f" stroke-width="2"/><rect x="652" y="110" width="192" height="50" rx="8" ry="8" fill="#1168bd" stroke="#0d4f8f" stroke-width="1.5"/><text x="748" y="134" text-anchor="middle" font-family="monospace" font-size="13" font-weight="600" fill="#ffffff">Operations Team</text><text x="748" y="148" text-anchor="middle" font-family="monospace" font-size="10" fill="#ffffff">[Person]</text><rect x="652" y="318" width="192" height="60" rx="8" ry="8" fill="#1168bd" stroke="#0d4f8f" stroke-width="1.5"/><text x="748" y="344" text-anchor="middle" font-family="monospace" font-size="13" font-weight="600" fill="#ffffff">E-Commerce Platform</text><text x="748" y="358" text-anchor="middle" font-family="monospace" font-size="10" fill="#ffffff">[System]</text><rect x="66" y="536" width="192" height="60" rx="8" ry="8" fill="#1168bd" stroke="#0d4f8f" stroke-width="1.5"/><text x="162" y="562" text-anchor="middle" font-family="monospace" font-size="13" font-weight="600" fill="#ffffff">CRM System</text><text x="162" y="576" text-anchor="middle" font-family="monospace" font-size="10" fill="#ffffff">[System]</text><rect x="457" y="536" width="192" height="60" rx="8" ry="8" fill="#1168bd" stroke="#0d4f8f" stroke-width="1.5"/><text x="553" y="562" text-anchor="middle" font-family="monospace" font-size="13" font-weight="600" fill="#ffffff">ERP System</text><text x="553" y="576" text-anchor="middle" font-family="monospace" font-size="10" fill="#ffffff">[System]</text><rect x="457" y="754" width="192" height="60" rx="8" ry="8" fill="#1168bd" stroke="#0d4f8f" stroke-width="1.5"/><text x="553" y="780" text-anchor="middle" font-family="monospace" font-size="13" font-weight="600" fill="#ffffff">Analytics Platform</text><text x="553" y="794" text-anchor="middle" font-family="monospace" font-size="10" fill="#ffffff">[System]</text><rect x="848" y="536" width="192" height="60" rx="8" ry="8" fill="#1168bd" stroke="#0d4f8f" stroke-width="1.5"/><text x="944" y="562" text-anchor="middle" font-family="monospace" font-size="13" font-weight="600" fill="#ffffff">Notification Service</text><text x="944" y="576" text-anchor="middle" font-family="monospace" font-size="10" fill="#ffffff">[System]</text><rect x="1239" y="536" width="192" height="60" rx="8" ry="8" fill="#8a8a8a" stroke="#6b6b6b" stroke-width="1.5"/><text x="1335" y="562" text-anchor="middle" font-family="monospace" font-size="13" font-weight="600" fill="#ffffff">Payment Gateway</text><text x="1335" y="576" text-anchor="middle" font-family="monospace" font-size="10" fill="#ffffff">[System, ext]</text><rect x="848" y="754" width="192" height="60" rx="8" ry="8" fill="#8a8a8a" stroke="#6b6b6b" stroke-width="1.5"/><text x="944" y="780" text-anchor="middle" font-family="monospace" font-size="13" font-weight="600" fill="#ffffff">Shipping Partner API</text><text x="944" y="794" text-anchor="middle" font-family="monospace" font-size="10" fill="#ffffff">[System, ext]</text></svg>