<svg xmlns="http://www.w3.org/2000/svg" width="1629" height="920" viewBox="0 0 1629 920" data-orientation="TopToBottom"><rect width="100%" height="100%" fill="#ffffff"/><defs><marker id="arrow-open" viewBox="0 0 10 10" refX="9" refY="5" markerWidth="10" markerHeight="10" markerUnits="userSpaceOnUse" orient="auto-start-reverse"><path d="M0,0 L10,5 L0,10" fill="none" stroke="#1e293b" stroke-width="1.5"/></marker><marker id="arrow-triangle" viewBox="0 0 16 16" refX="15" refY="8" markerWidth="16" markerHeight="16" markerUnits="userSpaceOnUse" orient="auto-start-reverse"><polygon points="0,1 14,8 0,15" fill="#ffffff" stroke="#1e293b" stroke-width="1.5" fill-rule="nonzero"/></marker><marker id="arrow-diamond-filled" viewBox="0 0 14 10" refX="13" refY="5" markerWidth="14" markerHeight="10" markerUnits="userSpaceOnUse" orient="auto-start-reverse"><path d="M0,5 L7,0 L14,5 L7,10 z" fill="#1e293b" stroke="#1e293b" stroke-width="1"/></marker><marker id="arrow-diamond-open" viewBox="0 0 14 10" refX="13" refY="5" markerWidth="14" markerHeight="10" markerUnits="userSpaceOnUse" orient="auto-start-reverse"><path d="M0,5 L7,0 L14,5 L7,10 z" fill="#ffffff" stroke="#1e293b" stroke-width="1"/></marker></defs><defs><marker id="arrow-triangle-filled" viewBox="0 0 12 12" refX="11" refY="6" markerWidth="12" markerHeight="12" markerUnits="userSpaceOnUse" orient="auto-start-reverse"><polygon points="0,0 12,6 0,12" fill="#1e293b" stroke="#1e293b" stroke-width="1.5"/></marker><marker id="arrow-box-filled" viewBox="0 0 12 12" refX="11" refY="6" markerWidth="12" markerHeight="12" markerUnits="userSpaceOnUse" orient="auto-start-reverse"><rect x="2" y="2" width="8" height="8" fill="#1e293b" stroke="#1e293b" stroke-width="1.5"/></marker><marker id="arrow-plus" viewBox="0 0 12 12" refX="11" refY="6" markerWidth="12" markerHeight="12" markerUnits="userSpaceOnUse" orient="auto-start-reverse"><path d="M6,1 L6,11 M1,6 L11,6" fill="none" stroke="#1e293b" stroke-width="1.8" stroke-linecap="round"/></marker><marker id="arrow-cross" viewBox="0 0 12 12" refX="11" refY="6" markerWidth="12" markerHeight="12" markerUnits="userSpaceOnUse" orient="auto-start-reverse"><path d="M2,2 L10,10 M10,2 L2,10" fill="none" stroke="#1e293b" stroke-width="1.8" stroke-linecap="round"/></marker><marker id="arrow-bracket-open" viewBox="0 0 12 14" refX="11" refY="7" markerWidth="12" markerHeight="14" markerUnits="userSpaceOnUse" orient="auto-start-reverse"><path d="M10,1 L4,1 L4,13 L10,13" fill="none" stroke="#1e293b" stroke-width="1.8" stroke-linecap="round" stroke-linejoin="round"/></marker><marker id="arrow-circle-open" viewBox="0 0 12 12" refX="11" refY="6" markerWidth="12" markerHeight="12" markerUnits="userSpaceOnUse" orient="auto-start-reverse"><circle cx="6" cy="6" r="4" fill="#ffffff" stroke="#1e293b" stroke-width="1.5"/></marker><marker id="arrow-circle-filled" viewBox="0 0 12 12" refX="11" refY="6" markerWidth="12" markerHeight="12" markerUnits="userSpaceOnUse" orient="auto-start-reverse"><circle cx="6" cy="6" r="4" fill="#1e293b" stroke="#1e293b" stroke-width="1.5"/></marker><marker id="arrow-double-open" viewBox="0 0 16 12" refX="15" refY="6" markerWidth="16" markerHeight="12" markerUnits="userSpaceOnUse" orient="auto-start-reverse"><path d="M0,1 L8,6 L0,11 M7,1 L15,6 L7,11" fill="none" stroke="#1e293b" stroke-width="1.5" stroke-linejoin="round"/></marker></defs><text x="32" y="32" font-family="monospace" font-size="18" font-weight="600" fill="#0f172a">C4 System Landscape — 5+ systems</text><path class="uml-relation" data-uml-from="customer" data-uml-to="ecommerce" data-uml-arrow="--&gt;" d="M 453,113 C 453.0,138.3 419.8,176.3 453.0,189.0 C 486.2,201.7 618.8,162.5 652.0,189.0 C 685.2,215.5 652.0,295.0 652.0,348.0" fill="none" stroke="#1e293b" stroke-width="2" marker-end="url(#arrow-open)" /><text class="uml-edge-label" data-uml-label-role="edge" x="593" y="177" text-anchor="middle" font-family="monospace" font-size="11" fill="#334155">Shops, orders</text><path class="uml-relation" data-uml-from="ecommerce" data-uml-to="crm" data-uml-arrow="--&gt;" d="M 652,348 C 652.0,384.3 717.7,438.8 652.0,457.0 C 586.3,475.2 323.7,438.8 258.0,457.0 C 192.3,475.2 258.0,529.7 258.0,566.0" fill="none" stroke="#1e293b" stroke-width="2" marker-end="url(#arrow-open)" /><text class="uml-edge-label" data-uml-label-role="edge" x="565" y="445" text-anchor="middle" font-family="monospace" font-size="11" fill="#334155">Creates support cases</text><path class="uml-relation" data-uml-from="ecommerce" data-uml-to="erp" data-uml-arrow="--&gt;" d="M 748,378 C 748.0,411.3 780.5,461.3 748.0,478.0 C 715.5,494.7 585.5,468.3 553.0,478.0 C 520.5,487.7 553.0,516.7 553.0,536.0" fill="none" stroke="#1e293b" stroke-width="2" marker-end="url(#arrow-open)" /><text class="uml-edge-label" data-uml-label-role="edge" x="688" y="466" text-anchor="middle" font-family="monospace" font-size="11" fill="#334155">Sends orders</text><path class="uml-relation" data-uml-from="ecommerce" data-uml-to="notification" data-uml-arrow="--&gt;" d="M 748,378 C 748.0,418.3 715.3,478.8 748.0,499.0 C 780.7,519.2 911.3,492.8 944.0,499.0 C 976.7,505.2 944.0,523.7 944.0,536.0" fill="none" stroke="#1e293b" stroke-width="2" marker-end="url(#arrow-open)" /><text class="uml-edge-label" data-uml-label-role="edge" x="805" y="487" text-anchor="middle" font-family="monospace" font-size="11" fill="#334155">Triggers emails/SMS</text><path class="uml-relation" data-uml-from="ecommerce" data-uml-to="payment" data-uml-arrow="--&gt;" d="M 844,348 C 844.0,405.7 778.2,492.2 844.0,521.0 C 909.8,549.8 1173.2,513.5 1239.0,521.0 C 1304.8,528.5 1239.0,551.0 1239.0,566.0" fill="none" stroke="#1e293b" stroke-width="2" marker-end="url(#arrow-open)" /><text class="uml-edge-label" data-uml-label-role="edge" x="940" y="509" text-anchor="middle" font-family="monospace" font-size="11" fill="#334155">Processes payments</text><path class="uml-relation" data-uml-from="erp" data-uml-to="shipping" data-uml-arrow="--&gt;" d="M 649,566 C 649.0,614.7 615.8,687.7 649.0,712.0 C 682.2,736.3 814.8,700.0 848.0,712.0 C 881.2,724.0 848.0,760.0 848.0,784.0" fill="none" stroke="#1e293b" stroke-width="2" marker-end="url(#arrow-open)" /><text class="uml-edge-label" data-uml-label-role="edge" x="897" y="700" text-anchor="middle" font-family="monospace" font-size="11" fill="#334155">Books shipments</text><path class="uml-relation" data-uml-from="erp" data-uml-to="analytics" data-uml-arrow="--&gt;" d="M 553,596 C 553.0,622.3 553.0,648.7 553.0,675.0 C 553.0,701.3 553.0,727.7 553.0,754.0" fill="none" stroke="#1e293b" stroke-width="2" marker-end="url(#arrow-open)" /><text class="uml-edge-label" data-uml-label-role="edge" x="612" y="702" text-anchor="middle" font-family="monospace" font-size="11" fill="#334155">Publishes financial data</text><path class="uml-relation" data-uml-from="crm" data-uml-to="analytics" data-uml-arrow="--&gt;" d="M 258,566 C 258.0,606.3 224.8,666.8 258.0,687.0 C 291.2,707.2 423.8,670.8 457.0,687.0 C 490.2,703.2 457.0,751.7 457.0,784.0" fill="none" stroke="#1e293b" stroke-width="2" marker-end="url(#arrow-open)" /><text class="uml-edge-label" data-uml-label-role="edge" x="441" y="675" text-anchor="middle" font-family="monospace" font-size="11" fill="#334155">Publishes support metrics</text><path class="uml-relation" data-uml-from="analyst" data-uml-to="analytics" data-uml-arrow="--&gt;" d="M 1139,160 C 1139.0,203.0 1236.7,267.5 1139.0,289.0 C 1041.3,310.5 650.7,211.5 553.0,289.0 C 455.3,366.5 553.0,599.0 553.0,754.0" fill="none" stroke="#1e293b" stroke-width="2" marker-end="url(#arrow-open)" /><text class="uml-edge-label" data-uml-label-role="edge" x="756" y="277" text-anchor="middle" font-family="monospace" font-size="11" fill="#334155">Views dashboards</text><path class="uml-relation" data-uml-from="ops" data-uml-to="ecommerce" data-uml-arrow="--&gt;" d="M 748,160 C 748.0,186.3 748.0,212.7 748.0,239.0 C 748.0,265.3 748.0,291.7 748.0,318.0" fill="none" stroke="#1e293b" stroke-width="2" marker-end="url(#arrow-open)" /><text class="uml-edge-label" data-uml-label-role="edge" x="701" y="266" text-anchor="middle" font-family="monospace" font-size="11" fill="#334155">Monitors health</text><circle cx="357" cy="76" r="9" fill="#1168bd" stroke="#0d4f8f" stroke-width="1.5"/><line x1="357" y1="85" x2="357" y2="98" stroke="#0d4f8f" stroke-width="2"/><line x1="345" y1="92" x2="369" y2="92" stroke="#0d4f8f" stroke-width="2"/><line x1="357" y1="98" x2="347" y2="110" stroke="#0d4f8f" stroke-width="2"/><line x1="357" y1="98" x2="367" y2="110" stroke="#0d4f8f" stroke-width="2"/><rect x="261" y="110" width="192" height="50" rx="8" ry="8" fill="#1168bd" stroke="#0d4f8f" stroke-width="1.5"/><text x="357" y="134" text-anchor="middle" font-family="monospace" font-size="13" font-weight="600" fill="#ffffff">Customer</text><text x="357" y="148" text-anchor="middle" font-family="monospace" font-size="10" fill="#ffffff">[Person]</text><circle cx="1139" cy="76" r="9" fill="#1168bd" stroke="#0d4f8f" stroke-width="1.5"/><line x1="1139" y1="85" x2="1139" y2="98" stroke="#0d4f8f" stroke-width="2"/><line x1="1127" y1="92" x2="1151" y2="92" stroke="#0d4f8f" stroke-width="2"/><line x1="1139" y1="98" x2="1129" y2="110" stroke="#0d4f8f" stroke-width="2"/><line x1="1139" y1="98" x2="1149" y2="110" stroke="#0d4f8f" stroke-width="2"/><rect x="1043" y="110" width="192" height="50" rx="8" ry="8" fill="#1168bd" stroke="#0d4f8f" stroke-width="1.5"/><text x="1139" y="134" text-anchor="middle" font-family="monospace" font-size="13" font-weight="600" fill="#ffffff">Business Analyst</text><text x="1139" y="148" text-anchor="middle" font-family="monospace" font-size="10" fill="#ffffff">[Person]</text><circle cx="748" cy="76" r="9" fill="#1168bd" stroke="#0d4f8f" stroke-width="1.5"/><line x1="748" y1="85" x2="748" y2="98" stroke="#0d4f8f" stroke-width="2"/><line x1="736" y1="92" x2="760" y2="92" stroke="#0d4f8f" stroke-width="2"/><line x1="748" y1="98" x2="738" y2="110" stroke="#0d4f8f" stroke-width="2"/><line x1="748" y1="98" x2="758" y2="110" stroke="#0d4f8f" stroke-width="2"/><rect x="652" y="110" width="192" height="50" rx="8" ry="8" fill="#1168bd" stroke="#0d4f8f" stroke-width="1.5"/><text x="748" y="134" text-anchor="middle" font-family="monospace" font-size="13" font-weight="600" fill="#ffffff">Operations Team</text><text x="748" y="148" text-anchor="middle" font-family="monospace" font-size="10" fill="#ffffff">[Person]</text><rect x="652" y="318" width="192" height="60" rx="8" ry="8" fill="#1168bd" stroke="#0d4f8f" stroke-width="1.5"/><text x="748" y="344" text-anchor="middle" font-family="monospace" font-size="13" font-weight="600" fill="#ffffff">E-Commerce Platform</text><text x="748" y="358" text-anchor="middle" font-family="monospace" font-size="10" fill="#ffffff">[System]</text><rect x="66" y="536" width="192" height="60" rx="8" ry="8" fill="#1168bd" stroke="#0d4f8f" stroke-width="1.5"/><text x="162" y="562" text-anchor="middle" font-family="monospace" font-size="13" font-weight="600" fill="#ffffff">CRM System</text><text x="162" y="576" text-anchor="middle" font-family="monospace" font-size="10" fill="#ffffff">[System]</text><rect x="457" y="536" width="192" height="60" rx="8" ry="8" fill="#1168bd" stroke="#0d4f8f" stroke-width="1.5"/><text x="553" y="562" text-anchor="middle" font-family="monospace" font-size="13" font-weight="600" fill="#ffffff">ERP System</text><text x="553" y="576" text-anchor="middle" font-family="monospace" font-size="10" fill="#ffffff">[System]</text><rect x="457" y="754" width="192" height="60" rx="8" ry="8" fill="#1168bd" stroke="#0d4f8f" stroke-width="1.5"/><text x="553" y="780" text-anchor="middle" font-family="monospace" font-size="13" font-weight="600" fill="#ffffff">Analytics Platform</text><text x="553" y="794" text-anchor="middle" font-family="monospace" font-size="10" fill="#ffffff">[System]</text><rect x="848" y="536" width="192" height="60" rx="8" ry="8" fill="#1168bd" stroke="#0d4f8f" stroke-width="1.5"/><text x="944" y="562" text-anchor="middle" font-family="monospace" font-size="13" font-weight="600" fill="#ffffff">Notification Service</text><text x="944" y="576" text-anchor="middle" font-family="monospace" font-size="10" fill="#ffffff">[System]</text><rect x="1239" y="536" width="192" height="60" rx="8" ry="8" fill="#8a8a8a" stroke="#6b6b6b" stroke-width="1.5"/><text x="1335" y="562" text-anchor="middle" font-family="monospace" font-size="13" font-weight="600" fill="#ffffff">Payment Gateway</text><text x="1335" y="576" text-anchor="middle" font-family="monospace" font-size="10" fill="#ffffff">[System, ext]</text><rect x="848" y="754" width="192" height="60" rx="8" ry="8" fill="#8a8a8a" stroke="#6b6b6b" stroke-width="1.5"/><text x="944" y="780" text-anchor="middle" font-family="monospace" font-size="13" font-weight="600" fill="#ffffff">Shipping Partner API</text><text x="944" y="794" text-anchor="middle" font-family="monospace" font-size="10" fill="#ffffff">[System, ext]</text></svg>