<svg xmlns="http://www.w3.org/2000/svg" width="1344" height="920" viewBox="0 0 1344 920" data-orientation="TopToBottom"><rect width="100%" height="100%" fill="#ffffff"/><defs><marker id="arrow-open" viewBox="0 0 10 10" refX="9" refY="5" markerWidth="10" markerHeight="10" markerUnits="userSpaceOnUse" orient="auto-start-reverse"><path d="M0,0 L10,5 L0,10" fill="none" stroke="#1e293b" stroke-width="1.5"/></marker><marker id="arrow-triangle" viewBox="0 0 16 16" refX="15" refY="8" markerWidth="16" markerHeight="16" markerUnits="userSpaceOnUse" orient="auto-start-reverse"><polygon points="0,1 14,8 0,15" fill="#ffffff" stroke="#1e293b" stroke-width="1.5" fill-rule="nonzero"/></marker><marker id="arrow-diamond-filled" viewBox="0 0 14 10" refX="13" refY="5" markerWidth="14" markerHeight="10" markerUnits="userSpaceOnUse" orient="auto-start-reverse"><path d="M0,5 L7,0 L14,5 L7,10 z" fill="#1e293b" stroke="#1e293b" stroke-width="1"/></marker><marker id="arrow-diamond-open" viewBox="0 0 14 10" refX="13" refY="5" markerWidth="14" markerHeight="10" markerUnits="userSpaceOnUse" orient="auto-start-reverse"><path d="M0,5 L7,0 L14,5 L7,10 z" fill="#ffffff" stroke="#1e293b" stroke-width="1"/></marker></defs><defs><marker id="arrow-triangle-filled" viewBox="0 0 12 12" refX="11" refY="6" markerWidth="12" markerHeight="12" markerUnits="userSpaceOnUse" orient="auto-start-reverse"><polygon points="0,0 12,6 0,12" fill="#1e293b" stroke="#1e293b" stroke-width="1.5"/></marker><marker id="arrow-box-filled" viewBox="0 0 12 12" refX="11" refY="6" markerWidth="12" markerHeight="12" markerUnits="userSpaceOnUse" orient="auto-start-reverse"><rect x="2" y="2" width="8" height="8" fill="#1e293b" stroke="#1e293b" stroke-width="1.5"/></marker><marker id="arrow-plus" viewBox="0 0 12 12" refX="11" refY="6" markerWidth="12" markerHeight="12" markerUnits="userSpaceOnUse" orient="auto-start-reverse"><path d="M6,1 L6,11 M1,6 L11,6" fill="none" stroke="#1e293b" stroke-width="1.8" stroke-linecap="round"/></marker><marker id="arrow-cross" viewBox="0 0 12 12" refX="11" refY="6" markerWidth="12" markerHeight="12" markerUnits="userSpaceOnUse" orient="auto-start-reverse"><path d="M2,2 L10,10 M10,2 L2,10" fill="none" stroke="#1e293b" stroke-width="1.8" stroke-linecap="round"/></marker><marker id="arrow-bracket-open" viewBox="0 0 12 14" refX="11" refY="7" markerWidth="12" markerHeight="14" markerUnits="userSpaceOnUse" orient="auto-start-reverse"><path d="M10,1 L4,1 L4,13 L10,13" fill="none" stroke="#1e293b" stroke-width="1.8" stroke-linecap="round" stroke-linejoin="round"/></marker><marker id="arrow-circle-open" viewBox="0 0 12 12" refX="11" refY="6" markerWidth="12" markerHeight="12" markerUnits="userSpaceOnUse" orient="auto-start-reverse"><circle cx="6" cy="6" r="4" fill="#ffffff" stroke="#1e293b" stroke-width="1.5"/></marker><marker id="arrow-circle-filled" viewBox="0 0 12 12" refX="11" refY="6" markerWidth="12" markerHeight="12" markerUnits="userSpaceOnUse" orient="auto-start-reverse"><circle cx="6" cy="6" r="4" fill="#1e293b" stroke="#1e293b" stroke-width="1.5"/></marker><marker id="arrow-double-open" viewBox="0 0 16 12" refX="15" refY="6" markerWidth="16" markerHeight="12" markerUnits="userSpaceOnUse" orient="auto-start-reverse"><path d="M0,1 L8,6 L0,11 M7,1 L15,6 L7,11" fill="none" stroke="#1e293b" stroke-width="1.5" stroke-linejoin="round"/></marker></defs><text x="32" y="32" font-family="monospace" font-size="18" font-weight="600" fill="#0f172a">C4 Container Diagram with databases and message bus</text><path class="uml-relation" data-uml-from="user" data-uml-to="spa" data-uml-arrow="--&gt;" d="M 309,160 C 309.0,166.3 282.5,175.8 309.0,179.0 C 335.5,182.2 441.5,155.8 468.0,179.0 C 494.5,202.2 468.0,271.7 468.0,318.0" fill="none" stroke="#1e293b" stroke-width="2" marker-end="url(#arrow-open)" /><text class="uml-edge-label" data-uml-label-role="edge" x="388" y="48" text-anchor="middle" font-family="monospace" font-size="11" fill="#334155">Uses</text><path class="uml-relation" data-uml-from="admin" data-uml-to="api" data-uml-arrow="--&gt;" d="M 945,160 C 945.0,206.3 998.0,275.8 945.0,299.0 C 892.0,322.2 680.0,259.5 627.0,299.0 C 574.0,338.5 627.0,457.0 627.0,536.0" fill="none" stroke="#1e293b" stroke-width="2" marker-end="url(#arrow-open)" /><text class="uml-edge-label" data-uml-label-role="edge" x="705" y="287" text-anchor="middle" font-family="monospace" font-size="11" fill="#334155">Administers</text><path class="uml-relation" data-uml-from="spa" data-uml-to="api" data-uml-arrow="--&gt;" d="M 468,378 C 468.0,425.0 441.5,495.5 468.0,519.0 C 494.5,542.5 600.5,516.2 627.0,519.0 C 653.5,521.8 627.0,530.3 627.0,536.0" fill="none" stroke="#1e293b" stroke-width="2" marker-end="url(#arrow-open)" /><text class="uml-edge-label" data-uml-label-role="edge" x="621" y="507" text-anchor="middle" font-family="monospace" font-size="11" fill="#334155">API calls</text><path class="uml-relation" data-uml-from="api" data-uml-to="pgdb" data-uml-arrow="--&gt;" d="M 627,596 C 627.0,622.3 653.5,661.8 627.0,675.0 C 600.5,688.2 494.5,661.8 468.0,675.0 C 441.5,688.2 468.0,727.7 468.0,754.0" fill="none" stroke="#1e293b" stroke-width="2" marker-end="url(#arrow-open)" /><text class="uml-edge-label" data-uml-label-role="edge" x="560" y="663" text-anchor="middle" font-family="monospace" font-size="11" fill="#334155">Reads/Writes</text><path class="uml-relation" data-uml-from="api" data-uml-to="redis" data-uml-arrow="--&gt;" d="M 627,596 C 627.0,629.3 600.5,679.3 627.0,696.0 C 653.5,712.7 759.5,686.3 786.0,696.0 C 812.5,705.7 786.0,734.7 786.0,754.0" fill="none" stroke="#1e293b" stroke-width="2" marker-end="url(#arrow-open)" /><text class="uml-edge-label" data-uml-label-role="edge" x="736" y="684" text-anchor="middle" font-family="monospace" font-size="11" fill="#334155">Cache lookup</text><path class="uml-relation" data-uml-from="api" data-uml-to="bus" data-uml-arrow="--&gt;" d="M 543,566 C 543.0,616.3 594.5,691.8 543.0,717.0 C 491.5,742.2 285.5,705.8 234.0,717.0 C 182.5,728.2 234.0,761.7 234.0,784.0" fill="none" stroke="#1e293b" stroke-width="2" marker-end="url(#arrow-open)" /><text class="uml-edge-label" data-uml-label-role="edge" x="313" y="705" text-anchor="middle" font-family="monospace" font-size="11" fill="#334155">Publishes events</text><path class="uml-relation" data-uml-from="worker" data-uml-to="bus" data-uml-arrow="--&gt;" d="M 627,126 C 627.0,153.7 706.5,195.2 627.0,209.0 C 547.5,222.8 229.5,118.2 150.0,209.0 C 70.5,299.8 150.0,572.3 150.0,754.0" fill="none" stroke="#1e293b" stroke-width="2" marker-end="url(#arrow-open)" /><text class="uml-edge-label" data-uml-label-role="edge" x="196" y="469" text-anchor="middle" font-family="monospace" font-size="11" fill="#334155">Consumes events</text><path class="uml-relation" data-uml-from="worker" data-uml-to="pgdb" data-uml-arrow="--&gt;" d="M 627,126 C 627.0,163.7 653.5,220.2 627.0,239.0 C 600.5,257.8 494.5,153.2 468.0,239.0 C 441.5,324.8 468.0,582.3 468.0,754.0" fill="none" stroke="#1e293b" stroke-width="2" marker-end="url(#arrow-open)" /><text class="uml-edge-label" data-uml-label-role="edge" x="455" y="484" text-anchor="middle" font-family="monospace" font-size="11" fill="#334155">Updates records</text><path class="uml-relation" data-uml-from="worker" data-uml-to="email" data-uml-arrow="--&gt;" d="M 627,126 C 627.0,173.7 600.5,245.2 627.0,269.0 C 653.5,292.8 759.5,260.8 786.0,269.0 C 812.5,277.2 786.0,301.7 786.0,318.0" fill="none" stroke="#1e293b" stroke-width="2" marker-end="url(#arrow-open)" /><text class="uml-edge-label" data-uml-label-role="edge" x="911" y="257" text-anchor="middle" font-family="monospace" font-size="11" fill="#334155">Sends email</text><path class="uml-relation" data-uml-from="api" data-uml-to="stripe" data-uml-arrow="--&gt;" d="M 711,566 C 711.0,623.7 659.5,710.2 711.0,739.0 C 762.5,767.8 968.5,731.5 1020.0,739.0 C 1071.5,746.5 1020.0,769.0 1020.0,784.0" fill="none" stroke="#1e293b" stroke-width="2" marker-end="url(#arrow-open)" /><text class="uml-edge-label" data-uml-label-role="edge" x="850" y="727" text-anchor="middle" font-family="monospace" font-size="11" fill="#334155">Processes payments</text><circle cx="309" cy="76" r="9" fill="#1168bd" stroke="#0d4f8f" stroke-width="1.5"/><line x1="309" y1="85" x2="309" y2="98" stroke="#0d4f8f" stroke-width="2"/><line x1="297" y1="92" x2="321" y2="92" stroke="#0d4f8f" stroke-width="2"/><line x1="309" y1="98" x2="299" y2="110" stroke="#0d4f8f" stroke-width="2"/><line x1="309" y1="98" x2="319" y2="110" stroke="#0d4f8f" stroke-width="2"/><rect x="225" y="110" width="168" height="50" rx="8" ry="8" fill="#1168bd" stroke="#0d4f8f" stroke-width="1.5"/><text x="309" y="134" text-anchor="middle" font-family="monospace" font-size="13" font-weight="600" fill="#ffffff">User</text><text x="309" y="148" text-anchor="middle" font-family="monospace" font-size="10" fill="#ffffff">[Person]</text><circle cx="945" cy="76" r="9" fill="#1168bd" stroke="#0d4f8f" stroke-width="1.5"/><line x1="945" y1="85" x2="945" y2="98" stroke="#0d4f8f" stroke-width="2"/><line x1="933" y1="92" x2="957" y2="92" stroke="#0d4f8f" stroke-width="2"/><line x1="945" y1="98" x2="935" y2="110" stroke="#0d4f8f" stroke-width="2"/><line x1="945" y1="98" x2="955" y2="110" stroke="#0d4f8f" stroke-width="2"/><rect x="861" y="110" width="168" height="50" rx="8" ry="8" fill="#1168bd" stroke="#0d4f8f" stroke-width="1.5"/><text x="945" y="134" text-anchor="middle" font-family="monospace" font-size="13" font-weight="600" fill="#ffffff">Admin</text><text x="945" y="148" text-anchor="middle" font-family="monospace" font-size="10" fill="#ffffff">[Person]</text><rect x="384" y="318" width="168" height="60" rx="8" ry="8" fill="#1168bd" stroke="#0d4f8f" stroke-width="1.5"/><text x="468" y="344" text-anchor="middle" font-family="monospace" font-size="13" font-weight="600" fill="#ffffff">Single Page App</text><text x="468" y="358" text-anchor="middle" font-family="monospace" font-size="10" fill="#ffffff">[System]</text><rect x="543" y="536" width="168" height="60" rx="8" ry="8" fill="#1168bd" stroke="#0d4f8f" stroke-width="1.5"/><text x="627" y="562" text-anchor="middle" font-family="monospace" font-size="13" font-weight="600" fill="#ffffff">API Server</text><text x="627" y="576" text-anchor="middle" font-family="monospace" font-size="10" fill="#ffffff">[System]</text><rect x="543" y="66" width="168" height="60" rx="8" ry="8" fill="#1168bd" stroke="#0d4f8f" stroke-width="1.5"/><text x="627" y="92" text-anchor="middle" font-family="monospace" font-size="13" font-weight="600" fill="#ffffff">Background Worker</text><text x="627" y="106" text-anchor="middle" font-family="monospace" font-size="10" fill="#ffffff">[System]</text><rect x="384" y="754" width="168" height="60" rx="8" ry="8" fill="#1168bd" stroke="#0d4f8f" stroke-width="1.5"/><text x="468" y="780" text-anchor="middle" font-family="monospace" font-size="13" font-weight="600" fill="#ffffff">PostgreSQL</text><text x="468" y="794" text-anchor="middle" font-family="monospace" font-size="10" fill="#ffffff">[System]</text><rect x="702" y="754" width="168" height="60" rx="8" ry="8" fill="#1168bd" stroke="#0d4f8f" stroke-width="1.5"/><text x="786" y="780" text-anchor="middle" font-family="monospace" font-size="13" font-weight="600" fill="#ffffff">Redis</text><text x="786" y="794" text-anchor="middle" font-family="monospace" font-size="10" fill="#ffffff">[System]</text><rect x="66" y="754" width="168" height="60" rx="8" ry="8" fill="#1168bd" stroke="#0d4f8f" stroke-width="1.5"/><text x="150" y="780" text-anchor="middle" font-family="monospace" font-size="13" font-weight="600" fill="#ffffff">Message Bus</text><text x="150" y="794" text-anchor="middle" font-family="monospace" font-size="10" fill="#ffffff">[System]</text><rect x="702" y="318" width="168" height="60" rx="8" ry="8" fill="#8a8a8a" stroke="#6b6b6b" stroke-width="1.5"/><text x="786" y="344" text-anchor="middle" font-family="monospace" font-size="13" font-weight="600" fill="#ffffff">SendGrid</text><text x="786" y="358" text-anchor="middle" font-family="monospace" font-size="10" fill="#ffffff">[System, ext]</text><rect x="1020" y="754" width="168" height="60" rx="8" ry="8" fill="#8a8a8a" stroke="#6b6b6b" stroke-width="1.5"/><text x="1104" y="780" text-anchor="middle" font-family="monospace" font-size="13" font-weight="600" fill="#ffffff">Stripe API</text><text x="1104" y="794" text-anchor="middle" font-family="monospace" font-size="10" fill="#ffffff">[System, ext]</text></svg>