<svg xmlns="http://www.w3.org/2000/svg" width="1291" height="670" viewBox="0 0 1291 670" data-orientation="TopToBottom"><rect width="100%" height="100%" fill="#ffffff"/><defs><marker id="arrow-open" viewBox="0 0 10 10" refX="9" refY="5" markerWidth="10" markerHeight="10" markerUnits="userSpaceOnUse" orient="auto-start-reverse"><path d="M0,0 L10,5 L0,10" fill="none" stroke="#1e293b" stroke-width="1.5"/></marker><marker id="arrow-triangle" viewBox="0 0 16 16" refX="15" refY="8" markerWidth="16" markerHeight="16" markerUnits="userSpaceOnUse" orient="auto-start-reverse"><polygon points="0,1 14,8 0,15" fill="#ffffff" stroke="#1e293b" stroke-width="1.5" fill-rule="nonzero"/></marker><marker id="arrow-diamond-filled" viewBox="0 0 14 10" refX="13" refY="5" markerWidth="14" markerHeight="10" markerUnits="userSpaceOnUse" orient="auto-start-reverse"><path d="M0,5 L7,0 L14,5 L7,10 z" fill="#1e293b" stroke="#1e293b" stroke-width="1"/></marker><marker id="arrow-diamond-open" viewBox="0 0 14 10" refX="13" refY="5" markerWidth="14" markerHeight="10" markerUnits="userSpaceOnUse" orient="auto-start-reverse"><path d="M0,5 L7,0 L14,5 L7,10 z" fill="#ffffff" stroke="#1e293b" stroke-width="1"/></marker></defs><defs><marker id="arrow-triangle-filled" viewBox="0 0 12 12" refX="11" refY="6" markerWidth="12" markerHeight="12" markerUnits="userSpaceOnUse" orient="auto-start-reverse"><polygon points="0,0 12,6 0,12" fill="#1e293b" stroke="#1e293b" stroke-width="1.5"/></marker><marker id="arrow-box-filled" viewBox="0 0 12 12" refX="11" refY="6" markerWidth="12" markerHeight="12" markerUnits="userSpaceOnUse" orient="auto-start-reverse"><rect x="2" y="2" width="8" height="8" fill="#1e293b" stroke="#1e293b" stroke-width="1.5"/></marker><marker id="arrow-plus" viewBox="0 0 12 12" refX="11" refY="6" markerWidth="12" markerHeight="12" markerUnits="userSpaceOnUse" orient="auto-start-reverse"><path d="M6,1 L6,11 M1,6 L11,6" fill="none" stroke="#1e293b" stroke-width="1.8" stroke-linecap="round"/></marker><marker id="arrow-cross" viewBox="0 0 12 12" refX="11" refY="6" markerWidth="12" markerHeight="12" markerUnits="userSpaceOnUse" orient="auto-start-reverse"><path d="M2,2 L10,10 M10,2 L2,10" fill="none" stroke="#1e293b" stroke-width="1.8" stroke-linecap="round"/></marker><marker id="arrow-bracket-open" viewBox="0 0 12 14" refX="11" refY="7" markerWidth="12" markerHeight="14" markerUnits="userSpaceOnUse" orient="auto-start-reverse"><path d="M10,1 L4,1 L4,13 L10,13" fill="none" stroke="#1e293b" stroke-width="1.8" stroke-linecap="round" stroke-linejoin="round"/></marker><marker id="arrow-circle-open" viewBox="0 0 12 12" refX="11" refY="6" markerWidth="12" markerHeight="12" markerUnits="userSpaceOnUse" orient="auto-start-reverse"><circle cx="6" cy="6" r="4" fill="#ffffff" stroke="#1e293b" stroke-width="1.5"/></marker><marker id="arrow-circle-filled" viewBox="0 0 12 12" refX="11" refY="6" markerWidth="12" markerHeight="12" markerUnits="userSpaceOnUse" orient="auto-start-reverse"><circle cx="6" cy="6" r="4" fill="#1e293b" stroke="#1e293b" stroke-width="1.5"/></marker><marker id="arrow-double-open" viewBox="0 0 16 12" refX="15" refY="6" markerWidth="16" markerHeight="12" markerUnits="userSpaceOnUse" orient="auto-start-reverse"><path d="M0,1 L8,6 L0,11 M7,1 L15,6 L7,11" fill="none" stroke="#1e293b" stroke-width="1.5" stroke-linejoin="round"/></marker></defs><text x="32" y="32" font-family="monospace" font-size="18" font-weight="600" fill="#0f172a">C4 Container Diagram with databases and message bus</text><polyline class="uml-relation" data-uml-from="user" data-uml-to="spa" data-uml-arrow="--&gt;" points="295,170 295,179 436,179 436,234" fill="none" stroke="#1e293b" stroke-width="2" marker-end="url(#arrow-open)" /><text class="uml-edge-label" data-uml-label-role="edge" x="365" y="48" text-anchor="middle" font-family="monospace" font-size="11" fill="#334155">Uses [HTTPS]</text><polyline class="uml-relation" data-uml-from="admin" data-uml-to="api" data-uml-arrow="--&gt;" points="857,170 857,224 576,224 576,368" fill="none" stroke="#1e293b" stroke-width="2" marker-end="url(#arrow-open)" /><rect class="uml-edge-label-bg" data-uml-label-role="edge-background" x="569" y="199" width="136" height="18" fill="white" opacity="0.85"/><rect class="uml-edge-label-bg" data-uml-label-role="edge-background" x="569" y="199" width="136" height="18" fill="white" opacity="0.85"/><text class="uml-edge-label" data-uml-label-role="edge" x="637" y="212" text-anchor="middle" font-family="monospace" font-size="11" fill="#334155">Administers [HTTPS]</text><polyline class="uml-relation" data-uml-from="spa" data-uml-to="api" data-uml-arrow="--&gt;" points="525,269 525,359 487,359 487,403" fill="none" stroke="#1e293b" stroke-width="2" marker-end="url(#arrow-open)" /><rect class="uml-edge-label-bg" data-uml-label-role="edge-background" x="450" y="334" width="116" height="18" fill="white" opacity="0.85"/><rect class="uml-edge-label-bg" data-uml-label-role="edge-background" x="450" y="334" width="116" height="18" fill="white" opacity="0.85"/><text class="uml-edge-label" data-uml-label-role="edge" x="508" y="347" text-anchor="middle" font-family="monospace" font-size="11" fill="#334155">API calls [REST]</text><polyline class="uml-relation" data-uml-from="api" data-uml-to="pgdb" data-uml-arrow="--&gt;" points="487,403 487,470 525,470 525,537" fill="none" stroke="#1e293b" stroke-width="2" marker-end="url(#arrow-open)" /><rect class="uml-edge-label-bg" data-uml-label-role="edge-background" x="383" y="445" width="130" height="18" fill="white" opacity="0.85"/><rect class="uml-edge-label-bg" data-uml-label-role="edge-background" x="383" y="445" width="130" height="18" fill="white" opacity="0.85"/><rect class="uml-edge-label-bg" data-uml-label-role="edge-background" x="383" y="445" width="130" height="18" fill="white" opacity="0.85"/><text class="uml-edge-label" data-uml-label-role="edge" x="448" y="458" text-anchor="middle" font-family="monospace" font-size="11" fill="#334155">Reads/Writes [SQL]</text><polyline class="uml-relation" data-uml-from="api" data-uml-to="redis" data-uml-arrow="--&gt;" points="665,403 665,478 628,478 628,537" fill="none" stroke="#1e293b" stroke-width="2" marker-end="url(#arrow-open)" /><rect class="uml-edge-label-bg" data-uml-label-role="edge-background" x="539" y="453" width="144" height="18" fill="white" opacity="0.85"/><rect class="uml-edge-label-bg" data-uml-label-role="edge-background" x="539" y="453" width="144" height="18" fill="white" opacity="0.85"/><rect class="uml-edge-label-bg" data-uml-label-role="edge-background" x="539" y="453" width="144" height="18" fill="white" opacity="0.85"/><text class="uml-edge-label" data-uml-label-role="edge" x="611" y="466" text-anchor="middle" font-family="monospace" font-size="11" fill="#334155">Cache lookup [Redis]</text><polyline class="uml-relation" data-uml-from="api" data-uml-to="bus" data-uml-arrow="--&gt;" points="487,403 487,486 244,486 244,537" fill="none" stroke="#1e293b" stroke-width="2" marker-end="url(#arrow-open)" /><rect class="uml-edge-label-bg" data-uml-label-role="edge-background" x="305" y="461" width="164" height="18" fill="white" opacity="0.85"/><text class="uml-edge-label" data-uml-label-role="edge" x="387" y="474" text-anchor="middle" font-family="monospace" font-size="11" fill="#334155">Publishes events [AMQP]</text><polyline class="uml-relation" data-uml-from="worker" data-uml-to="bus" data-uml-arrow="--&gt;" points="576,136 576,190 155,190 155,502" fill="none" stroke="#1e293b" stroke-width="2" marker-end="url(#arrow-open)" /><rect class="uml-edge-label-bg" data-uml-label-role="edge-background" x="149" y="165" width="158" height="18" fill="white" opacity="0.85"/><text class="uml-edge-label" data-uml-label-role="edge" x="228" y="178" text-anchor="middle" font-family="monospace" font-size="11" fill="#334155">Consumes events [AMQP]</text><polyline class="uml-relation" data-uml-from="worker" data-uml-to="pgdb" data-uml-arrow="--&gt;" points="576,136 576,202 541,202 541,462 436,462 436,502" fill="none" stroke="#1e293b" stroke-width="2" marker-end="url(#arrow-open)" /><rect class="uml-edge-label-bg" data-uml-label-role="edge-background" x="514" y="329" width="150" height="18" fill="white" opacity="0.85"/><rect class="uml-edge-label-bg" data-uml-label-role="edge-background" x="514" y="329" width="150" height="18" fill="white" opacity="0.85"/><rect class="uml-edge-label-bg" data-uml-label-role="edge-background" x="514" y="329" width="150" height="18" fill="white" opacity="0.85"/><text class="uml-edge-label" data-uml-label-role="edge" x="589" y="342" text-anchor="middle" font-family="monospace" font-size="11" fill="#334155">Updates records [SQL]</text><polyline class="uml-relation" data-uml-from="worker" data-uml-to="email" data-uml-arrow="--&gt;" points="576,136 576,213 717,213 717,234" fill="none" stroke="#1e293b" stroke-width="2" marker-end="url(#arrow-open)" /><text class="uml-edge-label" data-uml-label-role="edge" x="646" y="187" text-anchor="middle" font-family="monospace" font-size="11" fill="#334155">Sends email [HTTPS]</text><polyline class="uml-relation" data-uml-from="api" data-uml-to="stripe" data-uml-arrow="--&gt;" points="665,403 665,494 909,494 909,537" fill="none" stroke="#1e293b" stroke-width="2" marker-end="url(#arrow-open)" /><text class="uml-edge-label" data-uml-label-role="edge" x="773" y="482" text-anchor="middle" font-family="monospace" font-size="11" fill="#334155">Processes payments [HTTPS]</text><circle cx="295" cy="76" r="9" fill="#1168bd" stroke="#0d4f8f" stroke-width="1.5"/><line x1="295" y1="85" x2="295" y2="98" stroke="#0d4f8f" stroke-width="2"/><line x1="283" y1="92" x2="307" y2="92" stroke="#0d4f8f" stroke-width="2"/><line x1="295" y1="98" x2="285" y2="110" stroke="#0d4f8f" stroke-width="2"/><line x1="295" y1="98" x2="305" y2="110" stroke="#0d4f8f" stroke-width="2"/><rect x="206" y="110" width="178" height="60" rx="8" ry="8" fill="#1168bd" stroke="#0d4f8f" stroke-width="1.5"/><text x="295" y="134" text-anchor="middle" font-family="monospace" font-size="13" font-weight="600" fill="#ffffff">User</text><text x="295" y="148" text-anchor="middle" font-family="monospace" font-size="10" fill="#ffffff">«person»</text><text x="295" y="160" text-anchor="middle" font-family="monospace" font-size="9" font-style="italic" fill="#ffffff">Browser-based access</text><circle cx="857" cy="76" r="9" fill="#1168bd" stroke="#0d4f8f" stroke-width="1.5"/><line x1="857" y1="85" x2="857" y2="98" stroke="#0d4f8f" stroke-width="2"/><line x1="845" y1="92" x2="869" y2="92" stroke="#0d4f8f" stroke-width="2"/><line x1="857" y1="98" x2="847" y2="110" stroke="#0d4f8f" stroke-width="2"/><line x1="857" y1="98" x2="867" y2="110" stroke="#0d4f8f" stroke-width="2"/><rect x="768" y="110" width="178" height="60" rx="8" ry="8" fill="#1168bd" stroke="#0d4f8f" stroke-width="1.5"/><text x="857" y="134" text-anchor="middle" font-family="monospace" font-size="13" font-weight="600" fill="#ffffff">Admin</text><text x="857" y="148" text-anchor="middle" font-family="monospace" font-size="10" fill="#ffffff">«person»</text><text x="857" y="160" text-anchor="middle" font-family="monospace" font-size="9" font-style="italic" fill="#ffffff">Back-office operations</text><rect x="347" y="234" width="178" height="70" rx="8" ry="8" fill="#1168bd" stroke="#0d4f8f" stroke-width="1.5"/><text x="436" y="265" text-anchor="middle" font-family="monospace" font-size="13" font-weight="600" fill="#ffffff">Single Page App</text><text x="436" y="279" text-anchor="middle" font-family="monospace" font-size="10" fill="#ffffff">«system»</text><text x="436" y="291" text-anchor="middle" font-family="monospace" font-size="9" font-style="italic" fill="#ffffff">React customer UI</text><rect x="487" y="368" width="178" height="70" rx="8" ry="8" fill="#1168bd" stroke="#0d4f8f" stroke-width="1.5"/><text x="576" y="399" text-anchor="middle" font-family="monospace" font-size="13" font-weight="600" fill="#ffffff">API Server</text><text x="576" y="413" text-anchor="middle" font-family="monospace" font-size="10" fill="#ffffff">«system»</text><text x="576" y="425" text-anchor="middle" font-family="monospace" font-size="9" font-style="italic" fill="#ffffff">Rust REST endpoints</text><rect x="487" y="66" width="178" height="70" rx="8" ry="8" fill="#1168bd" stroke="#0d4f8f" stroke-width="1.5"/><text x="576" y="97" text-anchor="middle" font-family="monospace" font-size="13" font-weight="600" fill="#ffffff">Background Worker</text><text x="576" y="111" text-anchor="middle" font-family="monospace" font-size="10" fill="#ffffff">«system»</text><text x="576" y="123" text-anchor="middle" font-family="monospace" font-size="9" font-style="italic" fill="#ffffff">Async job processor</text><rect x="347" y="502" width="178" height="70" rx="8" ry="8" fill="#1168bd" stroke="#0d4f8f" stroke-width="1.5"/><text x="436" y="533" text-anchor="middle" font-family="monospace" font-size="13" font-weight="600" fill="#ffffff">PostgreSQL</text><text x="436" y="547" text-anchor="middle" font-family="monospace" font-size="10" fill="#ffffff">«system»</text><text x="436" y="559" text-anchor="middle" font-family="monospace" font-size="9" font-style="italic" fill="#ffffff">Relational database</text><rect x="628" y="502" width="178" height="70" rx="8" ry="8" fill="#1168bd" stroke="#0d4f8f" stroke-width="1.5"/><text x="717" y="533" text-anchor="middle" font-family="monospace" font-size="13" font-weight="600" fill="#ffffff">Redis</text><text x="717" y="547" text-anchor="middle" font-family="monospace" font-size="10" fill="#ffffff">«system»</text><text x="717" y="559" text-anchor="middle" font-family="monospace" font-size="9" font-style="italic" fill="#ffffff">Session cache</text><rect x="66" y="502" width="178" height="70" rx="8" ry="8" fill="#1168bd" stroke="#0d4f8f" stroke-width="1.5"/><text x="155" y="533" text-anchor="middle" font-family="monospace" font-size="13" font-weight="600" fill="#ffffff">Message Bus</text><text x="155" y="547" text-anchor="middle" font-family="monospace" font-size="10" fill="#ffffff">«system»</text><text x="155" y="559" text-anchor="middle" font-family="monospace" font-size="9" font-style="italic" fill="#ffffff">RabbitMQ async events</text><rect x="628" y="234" width="178" height="70" rx="8" ry="8" fill="#8a8a8a" stroke="#6b6b6b" stroke-width="1.5"/><text x="717" y="265" text-anchor="middle" font-family="monospace" font-size="13" font-weight="600" fill="#ffffff">SendGrid</text><text x="717" y="279" text-anchor="middle" font-family="monospace" font-size="10" fill="#ffffff">«external_system»</text><text x="717" y="291" text-anchor="middle" font-family="monospace" font-size="9" font-style="italic" fill="#ffffff">Email delivery</text><rect x="909" y="502" width="178" height="70" rx="8" ry="8" fill="#8a8a8a" stroke="#6b6b6b" stroke-width="1.5"/><text x="998" y="533" text-anchor="middle" font-family="monospace" font-size="13" font-weight="600" fill="#ffffff">Stripe API</text><text x="998" y="547" text-anchor="middle" font-family="monospace" font-size="10" fill="#ffffff">«external_system»</text><text x="998" y="559" text-anchor="middle" font-family="monospace" font-size="9" font-style="italic" fill="#ffffff">Payment processing</text></svg>