<svg xmlns="http://www.w3.org/2000/svg" width="1286" height="920" viewBox="0 0 1286 920"><rect width="100%" height="100%" fill="#ffffff"/><defs><marker id="arrow-open" viewBox="0 0 10 10" refX="9" refY="5" markerWidth="10" markerHeight="10" markerUnits="userSpaceOnUse" orient="auto-start-reverse"><path d="M0,0 L10,5 L0,10" fill="none" stroke="#1e293b" stroke-width="1.5"/></marker><marker id="arrow-triangle" viewBox="0 0 16 16" refX="15" refY="8" markerWidth="16" markerHeight="16" markerUnits="userSpaceOnUse" orient="auto-start-reverse"><polygon points="0,1 14,8 0,15" fill="#ffffff" stroke="#1e293b" stroke-width="1.5" fill-rule="nonzero"/></marker><marker id="arrow-diamond-filled" viewBox="0 0 14 10" refX="13" refY="5" markerWidth="14" markerHeight="10" markerUnits="userSpaceOnUse" orient="auto-start-reverse"><path d="M0,5 L7,0 L14,5 L7,10 z" fill="#1e293b" stroke="#1e293b" stroke-width="1"/></marker><marker id="arrow-diamond-open" viewBox="0 0 14 10" refX="13" refY="5" markerWidth="14" markerHeight="10" markerUnits="userSpaceOnUse" orient="auto-start-reverse"><path d="M0,5 L7,0 L14,5 L7,10 z" fill="#ffffff" stroke="#1e293b" stroke-width="1"/></marker></defs><text x="32" y="32" font-family="monospace" font-size="18" font-weight="600" fill="#0f172a">C4 Container Diagram with databases and message bus</text><polyline class="uml-relation" data-uml-from="user" data-uml-to="spa" data-uml-arrow="--&gt;" points="309,160 309,223 468,223 468,318" fill="none" stroke="#1e293b" stroke-width="2" marker-end="url(#arrow-open)" /><text x="388" y="197" text-anchor="middle" font-family="monospace" font-size="11" fill="#334155">Uses</text><polyline class="uml-relation" data-uml-from="admin" data-uml-to="api" data-uml-arrow="--&gt;" points="945,160 945,255 627,255 627,536" fill="none" stroke="#1e293b" stroke-width="2" marker-end="url(#arrow-open)" /><text x="588" y="518" text-anchor="middle" font-family="monospace" font-size="11" fill="#334155">Administers</text><polyline class="uml-relation" data-uml-from="spa" data-uml-to="api" data-uml-arrow="--&gt;" points="468,378 468,477 627,477 627,536" fill="none" stroke="#1e293b" stroke-width="2" marker-end="url(#arrow-open)" /><text x="672" y="518" text-anchor="middle" font-family="monospace" font-size="11" fill="#334155">API calls</text><polyline class="uml-relation" data-uml-from="api" data-uml-to="pgdb" data-uml-arrow="--&gt;" points="627,596 627,675 468,675 468,754" fill="none" stroke="#1e293b" stroke-width="2" marker-end="url(#arrow-open)" /><text x="411" y="736" text-anchor="middle" font-family="monospace" font-size="11" fill="#334155">Reads/Writes</text><polyline class="uml-relation" data-uml-from="api" data-uml-to="redis" data-uml-arrow="--&gt;" points="627,596 627,683 786,683 786,754" fill="none" stroke="#1e293b" stroke-width="2" marker-end="url(#arrow-open)" /><text x="674" y="629" text-anchor="middle" font-family="monospace" font-size="11" fill="#334155">Cache lookup</text><polyline class="uml-relation" data-uml-from="api" data-uml-to="bus" data-uml-arrow="--&gt;" points="627,596 627,691 150,691 150,754" fill="none" stroke="#1e293b" stroke-width="2" marker-end="url(#arrow-open)" /><text x="93" y="736" text-anchor="middle" font-family="monospace" font-size="11" fill="#334155">Publishes events</text><polyline class="uml-relation" data-uml-from="worker" data-uml-to="bus" data-uml-arrow="--&gt;" points="627,126 627,231 150,231 150,754" fill="none" stroke="#1e293b" stroke-width="2" marker-end="url(#arrow-open)" /><text x="210" y="736" text-anchor="middle" font-family="monospace" font-size="11" fill="#334155">Consumes events</text><polyline class="uml-relation" data-uml-from="worker" data-uml-to="pgdb" data-uml-arrow="--&gt;" points="627,126 627,239 468,239 468,754" fill="none" stroke="#1e293b" stroke-width="2" marker-end="url(#arrow-open)" /><text x="516" y="736" text-anchor="middle" font-family="monospace" font-size="11" fill="#334155">Updates records</text><polyline class="uml-relation" data-uml-from="worker" data-uml-to="email" data-uml-arrow="--&gt;" points="627,126 627,247 786,247 786,318" fill="none" stroke="#1e293b" stroke-width="2" marker-end="url(#arrow-open)" /><text x="720" y="235" text-anchor="middle" font-family="monospace" font-size="11" fill="#334155">Sends email</text><polyline class="uml-relation" data-uml-from="api" data-uml-to="stripe" data-uml-arrow="--&gt;" points="627,596 627,699 1104,699 1104,754" fill="none" stroke="#1e293b" stroke-width="2" marker-end="url(#arrow-open)" /><text x="865" y="661" text-anchor="middle" font-family="monospace" font-size="11" fill="#334155">Processes payments</text><circle cx="309" cy="76" r="9" fill="#1168bd" stroke="#0d4f8f" stroke-width="1.5"/><line x1="309" y1="85" x2="309" y2="98" stroke="#0d4f8f" stroke-width="2"/><line x1="297" y1="92" x2="321" y2="92" stroke="#0d4f8f" stroke-width="2"/><line x1="309" y1="98" x2="299" y2="110" stroke="#0d4f8f" stroke-width="2"/><line x1="309" y1="98" x2="319" y2="110" stroke="#0d4f8f" stroke-width="2"/><rect x="225" y="110" width="168" height="50" rx="8" ry="8" fill="#1168bd" stroke="#0d4f8f" stroke-width="1.5"/><text x="309" y="134" text-anchor="middle" font-family="monospace" font-size="13" font-weight="600" fill="#ffffff">User</text><text x="309" y="148" text-anchor="middle" font-family="monospace" font-size="10" fill="#ffffff">[Person]</text><circle cx="945" cy="76" r="9" fill="#1168bd" stroke="#0d4f8f" stroke-width="1.5"/><line x1="945" y1="85" x2="945" y2="98" stroke="#0d4f8f" stroke-width="2"/><line x1="933" y1="92" x2="957" y2="92" stroke="#0d4f8f" stroke-width="2"/><line x1="945" y1="98" x2="935" y2="110" stroke="#0d4f8f" stroke-width="2"/><line x1="945" y1="98" x2="955" y2="110" stroke="#0d4f8f" stroke-width="2"/><rect x="861" y="110" width="168" height="50" rx="8" ry="8" fill="#1168bd" stroke="#0d4f8f" stroke-width="1.5"/><text x="945" y="134" text-anchor="middle" font-family="monospace" font-size="13" font-weight="600" fill="#ffffff">Admin</text><text x="945" y="148" text-anchor="middle" font-family="monospace" font-size="10" fill="#ffffff">[Person]</text><rect x="384" y="318" width="168" height="60" rx="8" ry="8" fill="#1168bd" stroke="#0d4f8f" stroke-width="1.5"/><text x="468" y="344" text-anchor="middle" font-family="monospace" font-size="13" font-weight="600" fill="#ffffff">Single Page App</text><text x="468" y="358" text-anchor="middle" font-family="monospace" font-size="10" fill="#ffffff">[System]</text><rect x="543" y="536" width="168" height="60" rx="8" ry="8" fill="#1168bd" stroke="#0d4f8f" stroke-width="1.5"/><text x="627" y="562" text-anchor="middle" font-family="monospace" font-size="13" font-weight="600" fill="#ffffff">API Server</text><text x="627" y="576" text-anchor="middle" font-family="monospace" font-size="10" fill="#ffffff">[System]</text><rect x="543" y="66" width="168" height="60" rx="8" ry="8" fill="#1168bd" stroke="#0d4f8f" stroke-width="1.5"/><text x="627" y="92" text-anchor="middle" font-family="monospace" font-size="13" font-weight="600" fill="#ffffff">Background Worker</text><text x="627" y="106" text-anchor="middle" font-family="monospace" font-size="10" fill="#ffffff">[System]</text><rect x="384" y="754" width="168" height="60" rx="8" ry="8" fill="#1168bd" stroke="#0d4f8f" stroke-width="1.5"/><text x="468" y="780" text-anchor="middle" font-family="monospace" font-size="13" font-weight="600" fill="#ffffff">PostgreSQL</text><text x="468" y="794" text-anchor="middle" font-family="monospace" font-size="10" fill="#ffffff">[System]</text><rect x="702" y="754" width="168" height="60" rx="8" ry="8" fill="#1168bd" stroke="#0d4f8f" stroke-width="1.5"/><text x="786" y="780" text-anchor="middle" font-family="monospace" font-size="13" font-weight="600" fill="#ffffff">Redis</text><text x="786" y="794" text-anchor="middle" font-family="monospace" font-size="10" fill="#ffffff">[System]</text><rect x="66" y="754" width="168" height="60" rx="8" ry="8" fill="#1168bd" stroke="#0d4f8f" stroke-width="1.5"/><text x="150" y="780" text-anchor="middle" font-family="monospace" font-size="13" font-weight="600" fill="#ffffff">Message Bus</text><text x="150" y="794" text-anchor="middle" font-family="monospace" font-size="10" fill="#ffffff">[System]</text><rect x="702" y="318" width="168" height="60" rx="8" ry="8" fill="#8a8a8a" stroke="#6b6b6b" stroke-width="1.5"/><text x="786" y="344" text-anchor="middle" font-family="monospace" font-size="13" font-weight="600" fill="#ffffff">SendGrid</text><text x="786" y="358" text-anchor="middle" font-family="monospace" font-size="10" fill="#ffffff">[System, ext]</text><rect x="1020" y="754" width="168" height="60" rx="8" ry="8" fill="#8a8a8a" stroke="#6b6b6b" stroke-width="1.5"/><text x="1104" y="780" text-anchor="middle" font-family="monospace" font-size="13" font-weight="600" fill="#ffffff">Stripe API</text><text x="1104" y="794" text-anchor="middle" font-family="monospace" font-size="10" fill="#ffffff">[System, ext]</text></svg>