<svg xmlns="http://www.w3.org/2000/svg" width="1600" height="990" viewBox="0 0 1600 990" data-orientation="TopToBottom"><rect width="100%" height="100%" fill="#ffffff"/><defs><marker id="arrow-open" viewBox="0 0 10 10" refX="9" refY="5" markerWidth="10" markerHeight="10" markerUnits="userSpaceOnUse" orient="auto-start-reverse"><path d="M0,0 L10,5 L0,10" fill="none" stroke="#1e293b" stroke-width="1.5"/></marker><marker id="arrow-triangle" viewBox="0 0 16 16" refX="15" refY="8" markerWidth="16" markerHeight="16" markerUnits="userSpaceOnUse" orient="auto-start-reverse"><polygon points="0,1 14,8 0,15" fill="#ffffff" stroke="#1e293b" stroke-width="1.5" fill-rule="nonzero"/></marker><marker id="arrow-diamond-filled" viewBox="0 0 14 10" refX="13" refY="5" markerWidth="14" markerHeight="10" markerUnits="userSpaceOnUse" orient="auto-start-reverse"><path d="M0,5 L7,0 L14,5 L7,10 z" fill="#1e293b" stroke="#1e293b" stroke-width="1"/></marker><marker id="arrow-diamond-open" viewBox="0 0 14 10" refX="13" refY="5" markerWidth="14" markerHeight="10" markerUnits="userSpaceOnUse" orient="auto-start-reverse"><path d="M0,5 L7,0 L14,5 L7,10 z" fill="#ffffff" stroke="#1e293b" stroke-width="1"/></marker></defs><defs><marker id="arrow-triangle-filled" viewBox="0 0 12 12" refX="11" refY="6" markerWidth="12" markerHeight="12" markerUnits="userSpaceOnUse" orient="auto-start-reverse"><polygon points="0,0 12,6 0,12" fill="#1e293b" stroke="#1e293b" stroke-width="1.5"/></marker><marker id="arrow-box-filled" viewBox="0 0 12 12" refX="11" refY="6" markerWidth="12" markerHeight="12" markerUnits="userSpaceOnUse" orient="auto-start-reverse"><rect x="2" y="2" width="8" height="8" fill="#1e293b" stroke="#1e293b" stroke-width="1.5"/></marker><marker id="arrow-plus" viewBox="0 0 12 12" refX="11" refY="6" markerWidth="12" markerHeight="12" markerUnits="userSpaceOnUse" orient="auto-start-reverse"><path d="M6,1 L6,11 M1,6 L11,6" fill="none" stroke="#1e293b" stroke-width="1.8" stroke-linecap="round"/></marker><marker id="arrow-cross" viewBox="0 0 12 12" refX="11" refY="6" markerWidth="12" markerHeight="12" markerUnits="userSpaceOnUse" orient="auto-start-reverse"><path d="M2,2 L10,10 M10,2 L2,10" fill="none" stroke="#1e293b" stroke-width="1.8" stroke-linecap="round"/></marker><marker id="arrow-bracket-open" viewBox="0 0 12 14" refX="11" refY="7" markerWidth="12" markerHeight="14" markerUnits="userSpaceOnUse" orient="auto-start-reverse"><path d="M10,1 L4,1 L4,13 L10,13" fill="none" stroke="#1e293b" stroke-width="1.8" stroke-linecap="round" stroke-linejoin="round"/></marker><marker id="arrow-circle-open" viewBox="0 0 12 12" refX="11" refY="6" markerWidth="12" markerHeight="12" markerUnits="userSpaceOnUse" orient="auto-start-reverse"><circle cx="6" cy="6" r="4" fill="#ffffff" stroke="#1e293b" stroke-width="1.5"/></marker><marker id="arrow-circle-filled" viewBox="0 0 12 12" refX="11" refY="6" markerWidth="12" markerHeight="12" markerUnits="userSpaceOnUse" orient="auto-start-reverse"><circle cx="6" cy="6" r="4" fill="#1e293b" stroke="#1e293b" stroke-width="1.5"/></marker><marker id="arrow-double-open" viewBox="0 0 16 12" refX="15" refY="6" markerWidth="16" markerHeight="12" markerUnits="userSpaceOnUse" orient="auto-start-reverse"><path d="M0,1 L8,6 L0,11 M7,1 L15,6 L7,11" fill="none" stroke="#1e293b" stroke-width="1.5" stroke-linejoin="round"/></marker></defs><text x="32" y="32" font-family="monospace" font-size="18" font-weight="600" fill="#0f172a">C4 Container Diagram with databases and message bus</text><polyline class="uml-relation" data-uml-from="user" data-uml-to="spa" data-uml-arrow="--&gt;" points="347,170 347,190 539,190 539,338" fill="none" stroke="#1e293b" stroke-width="2" marker-end="url(#arrow-open)" /><text class="uml-edge-label" data-uml-label-role="edge" x="443" y="48" text-anchor="middle" font-family="monospace" font-size="11" fill="#334155">Uses [HTTPS]</text><polyline class="uml-relation" data-uml-from="admin" data-uml-to="api" data-uml-arrow="--&gt;" points="1115,170 1115,318 731,318 731,576" fill="none" stroke="#1e293b" stroke-width="2" marker-end="url(#arrow-open)" /><text class="uml-edge-label" data-uml-label-role="edge" x="778" y="306" text-anchor="middle" font-family="monospace" font-size="11" fill="#334155">Administers [HTTPS]</text><polyline class="uml-relation" data-uml-from="spa" data-uml-to="api" data-uml-arrow="--&gt;" points="539,408 539,558 731,558 731,576" fill="none" stroke="#1e293b" stroke-width="2" marker-end="url(#arrow-open)" /><rect class="uml-edge-label-bg" data-uml-label-role="edge-background" x="591" y="533" width="116" height="18" fill="white" opacity="0.85"/><text class="uml-edge-label" data-uml-label-role="edge" x="649" y="546" text-anchor="middle" font-family="monospace" font-size="11" fill="#334155">API calls [REST]</text><polyline class="uml-relation" data-uml-from="api" data-uml-to="pgdb" data-uml-arrow="--&gt;" points="731,646 731,730 539,730 539,814" fill="none" stroke="#1e293b" stroke-width="2" marker-end="url(#arrow-open)" /><rect class="uml-edge-label-bg" data-uml-label-role="edge-background" x="499" y="705" width="130" height="18" fill="white" opacity="0.85"/><text class="uml-edge-label" data-uml-label-role="edge" x="564" y="718" text-anchor="middle" font-family="monospace" font-size="11" fill="#334155">Reads/Writes [SQL]</text><polyline class="uml-relation" data-uml-from="api" data-uml-to="redis" data-uml-arrow="--&gt;" points="731,646 731,752 923,752 923,814" fill="none" stroke="#1e293b" stroke-width="2" marker-end="url(#arrow-open)" /><rect class="uml-edge-label-bg" data-uml-label-role="edge-background" x="716" y="727" width="144" height="18" fill="white" opacity="0.85"/><rect class="uml-edge-label-bg" data-uml-label-role="edge-background" x="716" y="727" width="144" height="18" fill="white" opacity="0.85"/><rect class="uml-edge-label-bg" data-uml-label-role="edge-background" x="716" y="727" width="144" height="18" fill="white" opacity="0.85"/><text class="uml-edge-label" data-uml-label-role="edge" x="788" y="740" text-anchor="middle" font-family="monospace" font-size="11" fill="#334155">Cache lookup [Redis]</text><polyline class="uml-relation" data-uml-from="api" data-uml-to="bus" data-uml-arrow="--&gt;" points="642,611 642,775 244,775 244,849" fill="none" stroke="#1e293b" stroke-width="2" marker-end="url(#arrow-open)" /><text class="uml-edge-label" data-uml-label-role="edge" x="417" y="763" text-anchor="middle" font-family="monospace" font-size="11" fill="#334155">Publishes events [AMQP]</text><polyline class="uml-relation" data-uml-from="worker" data-uml-to="bus" data-uml-arrow="--&gt;" points="731,136 731,222 155,222 155,814" fill="none" stroke="#1e293b" stroke-width="2" marker-end="url(#arrow-open)" /><text class="uml-edge-label" data-uml-label-role="edge" x="258" y="210" text-anchor="middle" font-family="monospace" font-size="11" fill="#334155">Consumes events [AMQP]</text><polyline class="uml-relation" data-uml-from="worker" data-uml-to="pgdb" data-uml-arrow="--&gt;" points="731,136 731,254 644,254 644,707 539,707 539,814" fill="none" stroke="#1e293b" stroke-width="2" marker-end="url(#arrow-open)" /><rect class="uml-edge-label-bg" data-uml-label-role="edge-background" x="630" y="459" width="150" height="18" fill="white" opacity="0.85"/><rect class="uml-edge-label-bg" data-uml-label-role="edge-background" x="630" y="459" width="150" height="18" fill="white" opacity="0.85"/><text class="uml-edge-label" data-uml-label-role="edge" x="705" y="472" text-anchor="middle" font-family="monospace" font-size="11" fill="#334155">Updates records [SQL]</text><polyline class="uml-relation" data-uml-from="worker" data-uml-to="email" data-uml-arrow="--&gt;" points="731,136 731,286 923,286 923,338" fill="none" stroke="#1e293b" stroke-width="2" marker-end="url(#arrow-open)" /><rect class="uml-edge-label-bg" data-uml-label-role="edge-background" x="1009" y="261" width="136" height="18" fill="white" opacity="0.85"/><text class="uml-edge-label" data-uml-label-role="edge" x="1077" y="274" text-anchor="middle" font-family="monospace" font-size="11" fill="#334155">Sends email [HTTPS]</text><polyline class="uml-relation" data-uml-from="api" data-uml-to="stripe" data-uml-arrow="--&gt;" points="820,611 820,798 1218,798 1218,849" fill="none" stroke="#1e293b" stroke-width="2" marker-end="url(#arrow-open)" /><rect class="uml-edge-label-bg" data-uml-label-role="edge-background" x="857" y="773" width="186" height="18" fill="white" opacity="0.85"/><text class="uml-edge-label" data-uml-label-role="edge" x="950" y="786" text-anchor="middle" font-family="monospace" font-size="11" fill="#334155">Processes payments [HTTPS]</text><circle cx="347" cy="76" r="9" fill="#1168bd" stroke="#0d4f8f" stroke-width="1.5"/><line x1="347" y1="85" x2="347" y2="98" stroke="#0d4f8f" stroke-width="2"/><line x1="335" y1="92" x2="359" y2="92" stroke="#0d4f8f" stroke-width="2"/><line x1="347" y1="98" x2="337" y2="110" stroke="#0d4f8f" stroke-width="2"/><line x1="347" y1="98" x2="357" y2="110" stroke="#0d4f8f" stroke-width="2"/><rect x="258" y="110" width="178" height="60" rx="8" ry="8" fill="#1168bd" stroke="#0d4f8f" stroke-width="1.5"/><text x="347" y="134" text-anchor="middle" font-family="monospace" font-size="13" font-weight="600" fill="#ffffff">User</text><text x="347" y="148" text-anchor="middle" font-family="monospace" font-size="10" fill="#ffffff">«person»</text><text x="347" y="160" text-anchor="middle" font-family="monospace" font-size="9" font-style="italic" fill="#ffffff">Browser-based access</text><circle cx="1115" cy="76" r="9" fill="#1168bd" stroke="#0d4f8f" stroke-width="1.5"/><line x1="1115" y1="85" x2="1115" y2="98" stroke="#0d4f8f" stroke-width="2"/><line x1="1103" y1="92" x2="1127" y2="92" stroke="#0d4f8f" stroke-width="2"/><line x1="1115" y1="98" x2="1105" y2="110" stroke="#0d4f8f" stroke-width="2"/><line x1="1115" y1="98" x2="1125" y2="110" stroke="#0d4f8f" stroke-width="2"/><rect x="1026" y="110" width="178" height="60" rx="8" ry="8" fill="#1168bd" stroke="#0d4f8f" stroke-width="1.5"/><text x="1115" y="134" text-anchor="middle" font-family="monospace" font-size="13" font-weight="600" fill="#ffffff">Admin</text><text x="1115" y="148" text-anchor="middle" font-family="monospace" font-size="10" fill="#ffffff">«person»</text><text x="1115" y="160" text-anchor="middle" font-family="monospace" font-size="9" font-style="italic" fill="#ffffff">Back-office operations</text><rect x="450" y="338" width="178" height="70" rx="8" ry="8" fill="#1168bd" stroke="#0d4f8f" stroke-width="1.5"/><text x="539" y="369" text-anchor="middle" font-family="monospace" font-size="13" font-weight="600" fill="#ffffff">Single Page App</text><text x="539" y="383" text-anchor="middle" font-family="monospace" font-size="10" fill="#ffffff">«system»</text><text x="539" y="395" text-anchor="middle" font-family="monospace" font-size="9" font-style="italic" fill="#ffffff">React customer UI</text><rect x="642" y="576" width="178" height="70" rx="8" ry="8" fill="#1168bd" stroke="#0d4f8f" stroke-width="1.5"/><text x="731" y="607" text-anchor="middle" font-family="monospace" font-size="13" font-weight="600" fill="#ffffff">API Server</text><text x="731" y="621" text-anchor="middle" font-family="monospace" font-size="10" fill="#ffffff">«system»</text><text x="731" y="633" text-anchor="middle" font-family="monospace" font-size="9" font-style="italic" fill="#ffffff">Rust REST endpoints</text><rect x="642" y="66" width="178" height="70" rx="8" ry="8" fill="#1168bd" stroke="#0d4f8f" stroke-width="1.5"/><text x="731" y="97" text-anchor="middle" font-family="monospace" font-size="13" font-weight="600" fill="#ffffff">Background Worker</text><text x="731" y="111" text-anchor="middle" font-family="monospace" font-size="10" fill="#ffffff">«system»</text><text x="731" y="123" text-anchor="middle" font-family="monospace" font-size="9" font-style="italic" fill="#ffffff">Async job processor</text><rect x="450" y="814" width="178" height="70" rx="8" ry="8" fill="#1168bd" stroke="#0d4f8f" stroke-width="1.5"/><text x="539" y="845" text-anchor="middle" font-family="monospace" font-size="13" font-weight="600" fill="#ffffff">PostgreSQL</text><text x="539" y="859" text-anchor="middle" font-family="monospace" font-size="10" fill="#ffffff">«system»</text><text x="539" y="871" text-anchor="middle" font-family="monospace" font-size="9" font-style="italic" fill="#ffffff">Relational database</text><rect x="834" y="814" width="178" height="70" rx="8" ry="8" fill="#1168bd" stroke="#0d4f8f" stroke-width="1.5"/><text x="923" y="845" text-anchor="middle" font-family="monospace" font-size="13" font-weight="600" fill="#ffffff">Redis</text><text x="923" y="859" text-anchor="middle" font-family="monospace" font-size="10" fill="#ffffff">«system»</text><text x="923" y="871" text-anchor="middle" font-family="monospace" font-size="9" font-style="italic" fill="#ffffff">Session cache</text><rect x="66" y="814" width="178" height="70" rx="8" ry="8" fill="#1168bd" stroke="#0d4f8f" stroke-width="1.5"/><text x="155" y="845" text-anchor="middle" font-family="monospace" font-size="13" font-weight="600" fill="#ffffff">Message Bus</text><text x="155" y="859" text-anchor="middle" font-family="monospace" font-size="10" fill="#ffffff">«system»</text><text x="155" y="871" text-anchor="middle" font-family="monospace" font-size="9" font-style="italic" fill="#ffffff">RabbitMQ async events</text><rect x="834" y="338" width="178" height="70" rx="8" ry="8" fill="#8a8a8a" stroke="#6b6b6b" stroke-width="1.5"/><text x="923" y="369" text-anchor="middle" font-family="monospace" font-size="13" font-weight="600" fill="#ffffff">SendGrid</text><text x="923" y="383" text-anchor="middle" font-family="monospace" font-size="10" fill="#ffffff">«external_system»</text><text x="923" y="395" text-anchor="middle" font-family="monospace" font-size="9" font-style="italic" fill="#ffffff">Email delivery</text><rect x="1218" y="814" width="178" height="70" rx="8" ry="8" fill="#8a8a8a" stroke="#6b6b6b" stroke-width="1.5"/><text x="1307" y="845" text-anchor="middle" font-family="monospace" font-size="13" font-weight="600" fill="#ffffff">Stripe API</text><text x="1307" y="859" text-anchor="middle" font-family="monospace" font-size="10" fill="#ffffff">«external_system»</text><text x="1307" y="871" text-anchor="middle" font-family="monospace" font-size="9" font-style="italic" fill="#ffffff">Payment processing</text></svg>