<svg xmlns="http://www.w3.org/2000/svg" width="252" height="144" viewBox="0 0 252 144"><rect width="100%" height="100%" fill="white"/><defs><marker id="da" markerWidth="8" markerHeight="6" refX="6" refY="3" orient="auto"><path d="M0,0 L0,6 L8,3 z" fill="#444"/></marker><marker id="dah" markerWidth="8" markerHeight="6" refX="2" refY="3" orient="auto"><path d="M8,0 L8,6 L0,3 z" fill="#444"/></marker></defs><rect data-ditaa-shape="rect" x="16" y="16" width="80" height="32" fill="#f0f4ff" stroke="#3344aa" stroke-width="1.5"  /><text x="56" y="45" font-family="monospace" font-size="11" text-anchor="middle" fill="#111">Client</text><rect data-ditaa-shape="rect" x="136" y="16" width="90" height="32" fill="#f0f4ff" stroke="#3344aa" stroke-width="1.5"  /><text x="181" y="45" font-family="monospace" font-size="11" text-anchor="middle" fill="#111">Server</text><rect data-ditaa-shape="rect" x="126" y="80" width="90" height="32" fill="#f0f4ff" stroke="#3344aa" stroke-width="1.5"  /><text x="171" y="109" font-family="monospace" font-size="11" text-anchor="middle" fill="#111">DB</text><line class="ditaa-connector" data-ditaa-arrow-start="false" data-ditaa-arrow-end="false" x1="26" y1="24" x2="106" y2="24" stroke="#444" stroke-width="1.5"/><line class="ditaa-connector" data-ditaa-arrow-start="false" data-ditaa-arrow-end="false" x1="146" y1="24" x2="236" y2="24" stroke="#444" stroke-width="1.5"/><line class="ditaa-connector" data-ditaa-arrow-start="false" data-ditaa-arrow-end="true" x1="106" y1="40" x2="126" y2="40" stroke="#444" stroke-width="1.5" marker-end="url(#da)"/><line class="ditaa-connector" data-ditaa-arrow-start="false" data-ditaa-arrow-end="false" x1="26" y1="56" x2="106" y2="56" stroke="#444" stroke-width="1.5"/><line class="ditaa-connector" data-ditaa-arrow-start="false" data-ditaa-arrow-end="false" x1="146" y1="56" x2="236" y2="56" stroke="#444" stroke-width="1.5"/><line class="ditaa-connector" data-ditaa-arrow-start="false" data-ditaa-arrow-end="false" x1="136" y1="88" x2="226" y2="88" stroke="#444" stroke-width="1.5"/><line class="ditaa-connector" data-ditaa-arrow-start="false" data-ditaa-arrow-end="false" x1="136" y1="120" x2="226" y2="120" stroke="#444" stroke-width="1.5"/><line class="ditaa-connector" data-ditaa-arrow-start="false" data-ditaa-arrow-end="false" x1="21" y1="32" x2="21" y2="64" stroke="#444" stroke-width="1.5"/><line class="ditaa-connector" data-ditaa-arrow-start="false" data-ditaa-arrow-end="false" x1="101" y1="32" x2="101" y2="64" stroke="#444" stroke-width="1.5"/><line class="ditaa-connector" data-ditaa-arrow-start="false" data-ditaa-arrow-end="false" x1="131" y1="96" x2="131" y2="128" stroke="#444" stroke-width="1.5"/><line class="ditaa-connector" data-ditaa-arrow-start="false" data-ditaa-arrow-end="false" x1="141" y1="32" x2="141" y2="64" stroke="#444" stroke-width="1.5"/><line class="ditaa-connector" data-ditaa-arrow-start="false" data-ditaa-arrow-end="false" x1="181" y1="64" x2="181" y2="80" stroke="#444" stroke-width="1.5"/><line class="ditaa-connector" data-ditaa-arrow-start="false" data-ditaa-arrow-end="false" x1="221" y1="96" x2="221" y2="128" stroke="#444" stroke-width="1.5"/><line class="ditaa-connector" data-ditaa-arrow-start="false" data-ditaa-arrow-end="false" x1="231" y1="32" x2="231" y2="64" stroke="#444" stroke-width="1.5"/></svg>