<svg xmlns="http://www.w3.org/2000/svg" width="232" height="200" viewBox="0 0 232 200"><rect width="100%" height="100%" fill="white"/><text x="16" y="16" font-family="monospace" font-size="18" font-weight="600" fill="#2a9fd6">Cyborg Theme</text><rect x="16" y="44" width="80" height="32" rx="4" ry="4" fill="#060606" stroke="#2a9fd6" stroke-width="1"/><text x="56" y="65" text-anchor="middle" font-family="monospace" font-size="13" fill="#ffffff">Alice</text><rect x="116" y="44" width="80" height="32" rx="4" ry="4" fill="#060606" stroke="#2a9fd6" stroke-width="1"/><text x="156" y="65" text-anchor="middle" font-family="monospace" font-size="13" fill="#ffffff">Bob</text><line x1="56" y1="76" x2="56" y2="152" stroke="#2a9fd6" stroke-width="1" stroke-dasharray="6 4"/><line x1="156" y1="76" x2="156" y2="152" stroke="#2a9fd6" stroke-width="1" stroke-dasharray="6 4"/><line x1="56" y1="108" x2="156" y2="108" stroke="#2a9fd6" stroke-width="1.5"/><polygon points="156,108 148,103 148,113" fill="#2a9fd6" stroke="#2a9fd6" stroke-width="1"/><text x="64" y="100" text-anchor="start" font-family="monospace" font-size="12" fill="#2a9fd6">hello</text><line x1="156" y1="136" x2="56" y2="136" stroke="#2a9fd6" stroke-width="1.5" stroke-dasharray="6 4"/><polygon points="56,136 64,131 64,141" fill="#2a9fd6" stroke="#2a9fd6" stroke-width="1"/><text x="64" y="128" text-anchor="start" font-family="monospace" font-size="12" fill="#2a9fd6">hi</text><rect x="16" y="152" width="80" height="32" rx="4" ry="4" fill="#060606" stroke="#2a9fd6" stroke-width="1"/><text x="56" y="173" text-anchor="middle" font-family="monospace" font-size="13" fill="#ffffff">Alice</text><rect x="116" y="152" width="80" height="32" rx="4" ry="4" fill="#060606" stroke="#2a9fd6" stroke-width="1"/><text x="156" y="173" text-anchor="middle" font-family="monospace" font-size="13" fill="#ffffff">Bob</text></svg>